<?xml version="1.0" encoding="utf-8"?>
<!-- Generator: Adobe Illustrator 24.1.0, SVG Export Plug-In . SVG Version: 6.00 Build 0)  -->
<svg version="1.1" id="Layer_1" xmlns="http://www.w3.org/2000/svg" xmlns:xlink="http://www.w3.org/1999/xlink" x="0px" y="0px"
	 viewBox="0 0 200 200" style="enable-background:new 0 0 200 200;" xml:space="preserve">
<g>
	<path style="fill:#E2DFD6;" d="M123.844,107.267c-0.028,0.18,0.024,0.268,0.084,0.348c0.497,0.66,0.943,1.355,1.318,2.088
		c0.674,1.32,1.706,2.312,2.798,3.281c1.584,1.407,3.31,2.614,5.057,3.799c0.304,0.206,0.575,0.261,0.942,0.169
		c1.498-0.373,3.001-0.734,4.513-1.045c1.805-0.372,3.62-0.697,5.433-1.027c1.556-0.283,3.111-0.581,4.677-0.803
		c0.972-0.137,1.935-0.333,2.917-0.412c0.778-0.063,1.553-0.178,2.323-0.307c0.53-0.089,0.898,0.132,1.199,0.515
		c0.216,0.275,0.164,0.934-0.079,1.254c-0.135,0.178-0.311,0.307-0.51,0.417c-2.062,1.135-4.117,2.283-6.155,3.462
		c-2.749,1.59-5.482,3.205-8.181,4.88c-0.956,0.593-1.904,1.203-2.867,1.787c-1.012,0.613-1.959,1.332-2.938,2
		c-0.73,0.497-1.471,0.977-2.196,1.481c-0.973,0.677-1.946,1.355-2.9,2.058c-1.261,0.929-2.539,1.837-3.803,2.762
		c-1.523,1.115-3.028,2.254-4.54,3.385c-1.318,0.986-2.632,1.979-3.929,2.993c-1.297,1.014-2.571,2.058-3.856,3.086
		c-0.941,0.752-1.911,1.469-2.819,2.26c-0.894,0.779-1.847,1.493-2.663,2.362c-0.25,0.266-0.369,0.585-0.467,0.899
		c-0.257,0.822-0.424,1.666-0.554,2.521c-0.141,0.932-0.15,1.878-0.335,2.803c-0.008,0.039-0.01,0.08-0.01,0.12
		c-0.004,1.401-0.137,1.094,1.009,1.404c1.841,0.497,3.682,0.998,5.519,1.508c2.07,0.574,4.136,1.165,6.207,1.739
		c2.012,0.558,4.023,1.123,6.044,1.647c1.439,0.373,2.863,0.798,4.297,1.189c2.033,0.555,4.068,1.101,6.1,1.66
		c2.362,0.65,4.713,1.343,7.084,1.955c1.963,0.507,3.895,1.125,5.87,1.587c1.211,0.283,2.391,0.693,3.591,1.025
		c1.818,0.503,3.642,0.988,5.462,1.482c0.291,0.079,0.586,0.149,0.866,0.259c0.416,0.163,0.768,0.718,0.724,1.091
		c-0.052,0.446-0.415,0.826-0.874,0.965c-0.319,0.096-0.613,0.097-0.943,0.013c-0.641-0.163-1.299-0.232-1.962-0.279
		c-0.738-0.052-1.472-0.176-2.206-0.276c-0.734-0.1-1.466-0.214-2.2-0.316c-0.813-0.113-1.626-0.227-2.44-0.325
		c-0.756-0.091-1.51-0.203-2.266-0.292c-1.173-0.138-2.352-0.224-3.517-0.437c-0.708-0.13-1.43-0.185-2.145-0.281
		c-0.774-0.104-1.543-0.25-2.32-0.315c-0.84-0.07-1.663-0.255-2.508-0.302c-0.738-0.041-1.472-0.171-2.207-0.271
		c-0.754-0.102-1.506-0.215-2.259-0.321c-1.07-0.151-2.141-0.303-3.212-0.448c-0.457-0.062-0.915-0.131-1.374-0.152
		c-0.844-0.038-1.671-0.203-2.507-0.3c-0.755-0.088-1.507-0.206-2.261-0.311c-0.773-0.108-1.546-0.219-2.32-0.323
		c-0.715-0.097-1.431-0.185-2.145-0.282c-0.913-0.124-1.83-0.202-2.744-0.32c-1.053-0.136-2.101-0.311-3.158-0.416
		c-0.996-0.098-1.985-0.262-2.978-0.395c-0.575-0.077-1.146-0.181-1.73-0.207c-0.741-0.033-1.468-0.206-2.208-0.271
		c-0.716-0.063-1.424-0.211-2.136-0.321c-0.329-0.05-0.586,0.133-0.841,0.288c-1.497,0.911-3.029,1.765-4.61,2.517
		c-1.361,0.647-2.731,1.281-4.172,1.747c-0.841,0.272-1.659,0.612-2.519,0.831c-1.458,0.371-2.914,0.746-4.394,1.022
		c-0.886,0.165-1.775,0.316-2.663,0.467c-0.416,0.07-0.85,0.082-1.259,0.082c-1.162-0.001-2.307,0.305-3.486,0.1
		c-0.685-0.119-1.394-0.121-2.084-0.271c-0.592-0.128-1.098-0.391-1.511-0.824c-0.217-0.227-0.435-0.338-0.75-0.207
		c-0.124,0.052-0.276,0.045-0.416,0.05c-0.442,0.016-0.887-0.034-1.32,0.108c-0.092,0.03-0.201,0.018-0.301,0.011
		c-1.08-0.076-2.154-0.179-3.21-0.447c-0.964-0.245-1.703-0.809-2.323-1.547c-0.19-0.226-0.388-0.275-0.663-0.314
		c-1.249-0.177-2.523-0.289-3.615-1.02c-0.683-0.458-1.241-1.035-1.512-1.828c-0.091-0.266-0.236-0.349-0.495-0.435
		c-1.226-0.41-2.396-0.959-3.37-1.822c-0.686-0.608-1.153-1.385-1.371-2.296c-0.272-1.141-0.06-2.23,0.328-3.302
		c0.116-0.321,0.268-0.629,0.401-0.944c0.143-0.339,0.077-0.5-0.284-0.545c-0.358-0.044-0.716-0.086-1.074-0.129
		c-1.551-0.189-3.096-0.435-4.648-0.586c-1.099-0.107-2.186-0.286-3.281-0.409c-0.934-0.105-1.858-0.295-2.789-0.434
		c-0.951-0.142-1.903-0.273-2.856-0.401c-1.211-0.163-2.417-0.357-3.624-0.542c-1.643-0.253-3.266-0.618-4.921-0.806
		c-0.874-0.099-1.734-0.319-2.599-0.491c-1.552-0.309-3.1-0.637-4.654-0.933c-1.302-0.248-2.575-0.62-3.87-0.892
		c-1.872-0.394-3.689-0.98-5.5-1.573c-1.875-0.615-3.584-1.558-4.873-3.101c-0.642-0.768-1.248-1.57-1.791-2.419
		c-0.606-0.948-1.246-1.874-1.807-2.85c-1.024-1.782-1.992-3.594-2.866-5.454c-0.658-1.399-1.308-2.803-1.892-4.236
		c-0.577-1.415-1.187-2.816-1.782-4.224c-0.321-0.759-0.616-1.528-0.887-2.307c-0.29-0.835-0.395-1.687-0.19-2.537
		c0.323-1.334,1.32-2.4,2.768-2.738c1.299-0.304,2.545-0.014,3.807,0.266c3.549,0.787,7.005,1.926,10.537,2.778
		c0.664,0.16,1.244,0.55,1.767,1.01c1.547,1.361,2.313,3.165,2.887,5.073c0.335,1.114,0.643,2.24,0.837,3.387
		c0.181,1.067,0.343,2.137,0.629,3.182c0.435,1.589,0.879,3.172,1.571,4.68c0.352,0.768,0.691,1.536,1.094,2.281
		c0.605,1.119,0.586,1.132,1.8,1.304c1.567,0.221,3.131,0.462,4.693,0.714c1.482,0.24,2.961,0.514,4.448,0.711
		c1.451,0.192,2.891,0.446,4.339,0.652c1.129,0.161,2.245,0.417,3.376,0.561c1.153,0.147,2.298,0.342,3.447,0.516
		c0.832,0.126,1.663,0.255,2.494,0.386c0.969,0.152,1.938,0.302,2.906,0.463c1.442,0.239,2.892,0.424,4.329,0.695
		c0.983,0.185,1.979,0.305,2.966,0.475c0.285,0.049,0.371-0.118,0.422-0.314c0.164-0.632,0.482-1.196,0.784-1.763
		c0.233-0.438,0.523-0.846,0.8-1.287c-0.996-0.35-1.963-0.667-2.914-1.028c-1.434-0.544-2.799-1.236-4.125-2.004
		c-1.183-0.686-2.331-1.429-3.428-2.249c-1.094-0.819-2.142-1.69-3.177-2.584c-1.3-1.124-2.491-2.357-3.668-3.598
		c-0.881-0.93-1.697-1.927-2.511-2.923c-1.645-2.011-3.136-4.129-4.547-6.304c-1.248-1.924-2.452-3.874-3.486-5.929
		c-0.851-1.691-1.617-3.415-2.265-5.192c-0.565-1.55-0.93-3.154-1.211-4.774c-0.377-2.172-0.069-4.281,0.713-6.328
		c0.077-0.202,0.194-0.407,0.343-0.562c1.058-1.1,2.017-2.287,3.265-3.211c1.067-0.79,2.129-1.581,3.263-2.271
		c0.149-0.091,0.282-0.207,0.532-0.393c-1.125-0.004-2.084-0.271-3.038-0.523c-1.454-0.385-2.908-0.777-4.254-1.494
		c-1.878-1.001-3.351-2.398-4.448-4.222c-0.825-1.371-1.227-2.865-1.495-4.42c-0.208-1.205-0.171-2.42-0.08-3.616
		c0.121-1.602,0.563-3.157,1.137-4.664c0.897-2.354,2.203-4.475,3.791-6.412c1.071-1.306,2.267-2.505,3.56-3.607
		c1.726-1.47,3.592-2.71,5.636-3.691c1.569-0.753,3.223-1.24,4.91-1.625c1.622-0.369,3.265-0.622,4.909-0.877
		c1.249-0.194,2.507-0.316,3.761-0.435c0.775-0.073,1.562-0.122,2.344-0.167c2.014-0.116,4.028-0.111,6.043-0.098
		c0.361,0.002,0.52-0.168,0.608-0.456c0.327-1.078,0.786-2.107,1.186-3.158c0.608-1.598,1.294-3.163,1.973-4.732
		c0.761-1.758,1.607-3.473,2.483-5.175c1.493-2.902,3.182-5.685,5.18-8.272c1.036-1.342,2.187-2.594,3.467-3.697
		c1.791-1.544,3.752-2.841,6.055-3.524c0.886-0.263,1.789-0.427,2.707-0.552c1.35-0.184,2.702-0.136,4.044-0.072
		c1.193,0.057,2.385,0.278,3.559,0.559c1.523,0.365,3.053,0.692,4.538,1.203c2.816,0.97,5.448,2.286,7.842,4.066
		c0.081,0.06,0.158,0.126,0.228,0.198c0.309,0.322,0.641,0.374,1.091,0.263c0.973-0.24,1.972-0.326,2.975-0.407
		c0.825-0.067,1.646-0.101,2.47-0.098c1.842,0.008,3.637,0.297,5.38,0.901c1.023,0.354,1.925,0.929,2.724,1.64
		c1.905,1.696,3.206,3.803,4.061,6.194c0.223,0.623,0.262,0.634,0.922,0.505c1.77-0.344,3.542-0.681,5.316-1.007
		c2.206-0.405,4.413-0.808,6.624-1.19c1.559-0.27,3.126-0.495,4.687-0.756c1.58-0.263,3.156-0.557,4.737-0.814
		c0.949-0.154,1.906-0.255,2.858-0.395c0.872-0.129,1.739-0.287,2.61-0.417c0.753-0.113,1.508-0.205,2.263-0.305
		c0.715-0.095,1.43-0.189,2.146-0.283c0.814-0.107,1.628-0.216,2.442-0.321c0.894-0.114,1.788-0.223,2.682-0.336
		c0.418-0.053,0.838-0.074,1.257-0.127c1.074-0.134,2.164-0.144,3.237-0.28c0.994-0.126,1.995-0.179,2.988-0.328
		c1.129-0.17,2.271-0.244,3.404-0.391c1.35-0.175,2.693-0.408,4.045-0.57c1.413-0.17,2.819-0.387,4.217-0.643
		c1.123-0.206,2.232-0.49,3.354-0.706c2.052-0.394,4.063-0.954,6.084-1.469c1.245-0.317,2.466-0.726,3.703-1.078
		c1.239-0.352,2.451-0.787,3.673-1.19c0.208-0.068,0.413-0.145,0.643-0.152c0.858-0.027,1.368,0.655,1.098,1.477
		c-0.064,0.194-0.145,0.372-0.273,0.533c-1.032,1.308-2.036,2.638-3.1,3.92c-0.564,0.679-1.143,1.35-1.717,2.021
		c-0.678,0.794-1.404,1.547-2.051,2.368c-0.099,0.126-0.222,0.234-0.336,0.348c-1.408,1.41-2.791,2.846-4.233,4.221
		c-1.353,1.289-2.739,2.543-4.179,3.739c-1.236,1.027-2.479,2.043-3.761,3.01c-1.427,1.077-2.88,2.117-4.354,3.128
		c-1.643,1.127-3.33,2.183-5.052,3.179c-1.202,0.695-2.441,1.327-3.676,1.965c-1.216,0.628-2.44,1.241-3.673,1.835
		c-1.414,0.681-2.856,1.299-4.303,1.91c-1.539,0.65-3.115,1.203-4.682,1.775c-1.32,0.482-2.679,0.859-4.03,1.249
		c-0.962,0.278-1.941,0.5-3.01,0.771c0.46,0.263,0.838,0.502,1.236,0.704c1.292,0.657,2.603,1.28,3.886,1.954
		c4.246,2.229,8.557,4.33,12.85,6.466c1.692,0.842,3.441,1.563,5.197,2.269c1.849,0.743,3.709,1.45,5.608,2.053
		c2.661,0.845,5.36,1.546,8.085,2.158c1.39,0.312,2.79,0.563,4.194,0.788c1.027,0.164,2.062,0.297,3.097,0.419
		c1.276,0.151,2.554,0.245,3.833,0.342c0.617,0.047,0.983,0.313,1.093,0.852c0.099,0.483-0.087,0.957-0.583,1.279
		c-0.522,0.339-1.052,0.67-1.592,0.981c-1.081,0.621-2.125,1.306-3.241,1.868c-0.9,0.453-1.774,0.958-2.681,1.393
		c-2.087,0.999-4.208,1.92-6.388,2.706c-2.119,0.765-4.265,1.432-6.451,1.969c-2.044,0.503-4.099,0.971-6.182,1.264
		c-0.83,0.117-1.669,0.219-2.509,0.283c-1.179,0.089-2.354,0.225-3.53,0.338c-0.16,0.015-0.322,0.016-0.484,0.016
		c-1.211,0.002-2.422,0.005-3.633,0.001c-0.985-0.003-1.96-0.153-2.939-0.216c-1.223-0.079-2.427-0.299-3.645-0.409
		c-0.914-0.083-1.819-0.297-2.72-0.49c-1.921-0.413-3.855-0.771-5.749-1.301c-1.741-0.487-3.501-0.903-5.213-1.493
		c-1.045-0.36-2.118-0.637-3.145-1.054c-0.147-0.06-0.312-0.121-0.465-0.112c-1.01,0.06-2.008-0.125-3.014-0.134
		c-0.802-0.007-1.598-0.122-2.395-0.208c-0.498-0.054-0.999-0.112-1.498-0.137c-0.945-0.047-1.869-0.221-2.803-0.341
		c-1.074-0.138-2.139-0.322-3.204-0.516c-1.36-0.248-2.724-0.465-4.075-0.769c-2.785-0.628-5.528-1.399-8.242-2.278
		c-0.153-0.049-0.298-0.123-0.443-0.192c-0.269-0.13-0.497-0.044-0.718,0.119c-0.128,0.095-0.183,0.191-0.114,0.358
		c0.26,0.632,0.521,1.264,0.755,1.906c0.082,0.225,0.226,0.243,0.418,0.25c0.541,0.02,1.085-0.061,1.62,0.11
		c0.74,0.236,1.157,0.757,1.369,1.472c0.145,0.489,0.122,0.994,0.13,1.496c0.007,0.489,0.15,0.619,0.632,0.539
		c0.962-0.16,1.915-0.076,2.881-0.015c1.417,0.089,2.785,0.386,4.127,0.791c1.495,0.451,2.856,1.196,4.076,2.181
		c0.266,0.214,0.535,0.423,0.788,0.654c1.147,1.046,2.002,2.311,2.727,3.662c0.291,0.542,0.528,1.127,0.661,1.741
		c0.127,0.587-0.185,1.149-0.768,1.287c-0.78,0.184-1.569,0.303-2.37,0.389C125.258,107.236,124.557,107.232,123.844,107.267z"/>
	<path style="fill:#240000;" d="M62.112,149.511c-0.042-0.919,0.253-1.685,0.643-2.42c0.445-0.841,1.002-1.608,1.596-2.349
		c0.123-0.154,0.293-0.278,0.361-0.522c-1.093-0.267-2.176-0.548-3.232-0.92c-3.634-1.283-6.891-3.226-9.886-5.629
		c-3.628-2.912-6.727-6.325-9.475-10.063c-2.536-3.45-4.864-7.033-6.723-10.901c-1.165-2.423-2.134-4.919-2.657-7.568
		c-0.327-1.653-0.492-3.315-0.082-4.979c0.139-0.566,0.341-1.116,0.519-1.672c0.076-0.238,0.26-0.405,0.414-0.59
		c2.196-2.633,4.943-4.55,7.96-6.114c0.658-0.341,1.336-0.642,2-1.06c-0.205,0-0.41,0.002-0.616,0
		c-3.03-0.032-5.992-0.488-8.824-1.584c-4.243-1.643-6.401-4.85-6.778-9.308c-0.261-3.086,0.513-5.976,1.949-8.676
		c2.991-5.626,7.404-9.707,13.389-12.003c1.889-0.724,3.881-1.078,5.871-1.407c4.571-0.756,9.179-1.021,13.808-0.967
		c0.262,0.003,0.526-0.016,0.787,0.007c0.307,0.028,0.454-0.081,0.564-0.384c0.539-1.476,1.092-2.948,1.672-4.409
		c1.609-4.051,3.414-8.01,5.574-11.8c1.643-2.883,3.496-5.617,5.831-7.996c1.508-1.536,3.178-2.856,5.13-3.796
		c1.584-0.764,3.257-1.144,5.01-1.26c3.544-0.234,6.945,0.467,10.292,1.516c3.283,1.029,6.312,2.552,8.959,4.777
		c0.206,0.173,0.384,0.206,0.655,0.14c2.612-0.638,5.261-0.785,7.933-0.517c3.184,0.319,5.696,1.756,7.443,4.479
		c0.888,1.385,1.576,2.856,2.071,4.421c0.165,0.523,0.171,0.528,0.682,0.422c5.469-1.127,10.971-2.075,16.476-3.003
		c4.871-0.822,9.751-1.585,14.648-2.237c3.359-0.447,6.722-0.859,10.097-1.155c3.9-0.342,7.782-0.837,11.652-1.401
		c7.057-1.03,13.945-2.783,20.695-5.077c0.093-0.032,0.178-0.096,0.334-0.055c-0.023,0.154-0.143,0.258-0.228,0.372
		c-7.224,9.704-15.887,17.872-26.202,24.212c-7.54,4.635-15.553,8.247-24.165,10.437c-1.231,0.313-2.47,0.591-3.725,0.792
		c-0.075,0.012-0.164,0.006-0.195,0.093c-0.009,0.117,0.083,0.127,0.149,0.161c6.518,3.368,13.074,6.662,19.642,9.931
		c5.889,2.931,12.039,5.137,18.446,6.629c3.656,0.852,7.345,1.497,11.09,1.808c0.562,0.047,1.125,0.083,1.687,0.127
		c0.009,0.001,0.017,0.028,0.033,0.058c-0.067,0.151-0.23,0.199-0.357,0.28c-6.359,4.048-13.16,7.066-20.517,8.787
		c-3.444,0.806-6.932,1.298-10.46,1.548c-4.768,0.339-9.467-0.154-14.139-1.055c-4.719-0.911-9.333-2.202-13.861-3.809
		c-0.23-0.082-0.458-0.13-0.705-0.137c-7.598-0.212-15.046-1.381-22.34-3.524c-1.14-0.335-2.271-0.705-3.372-1.155
		c-0.292-0.119-0.514-0.121-0.767,0.096c-0.382,0.328-0.797,0.618-1.202,0.918c-0.155,0.115-0.189,0.223-0.091,0.406
		c0.543,1.017,0.921,2.104,1.292,3.191c0.091,0.268,0.225,0.378,0.523,0.355c0.502-0.038,1.008-0.044,1.512-0.036
		c0.718,0.011,1.038,0.275,1.157,0.977c0.06,0.356,0.054,0.723,0.077,1.084c0.03,0.464,0.086,0.922,0.235,1.367
		c0.084,0.249,0.215,0.341,0.494,0.297c1.403-0.221,2.813-0.233,4.223-0.086c3.272,0.339,6.188,1.456,8.473,3.926
		c1.04,1.124,1.805,2.422,2.371,3.839c0.157,0.392,0.151,0.408-0.283,0.49c-2.23,0.422-4.447,0.478-6.636-0.241
		c-0.036-0.012-0.078-0.001-0.163-0.001c0.025,0.147,0.136,0.221,0.221,0.309c1.332,1.367,2.457,2.886,3.341,4.578
		c0.648,1.24,1.625,2.201,2.646,3.122c1.591,1.436,3.326,2.685,5.11,3.869c0.16,0.106,0.363,0.168,0.475,0.404
		c-0.832,0.154-1.649,0.216-2.463,0.263c-2.279,0.132-4.557,0.134-6.826-0.173c-0.143-0.019-0.271-0.027-0.406,0.052
		c-1.446,0.849-2.35,2.083-2.749,3.798c11.081-3.453,22.285-5.919,33.711-7.347c0.015,0.039,0.03,0.079,0.046,0.118
		c-0.184,0.106-0.366,0.216-0.551,0.318c-5.754,3.182-11.457,6.451-16.955,10.059c-5.263,3.454-10.36,7.148-15.386,10.938
		c-4.382,3.305-8.715,6.671-12.899,10.225c-0.169,0.144-0.326,0.303-0.505,0.434c-0.963,0.707-1.463,1.684-1.718,2.826
		c-0.286,1.281-0.475,2.576-0.596,3.88c-0.082,0.883-0.105,1.771-0.196,2.653c-0.035,0.337,0.062,0.448,0.379,0.534
		c2.762,0.745,5.52,1.511,8.278,2.27c13.114,3.607,26.229,7.213,39.343,10.82c1.243,0.342,2.486,0.685,3.729,1.029
		c0.191,0.053,0.379,0.117,0.555,0.239c-0.753-0.093-1.506-0.183-2.258-0.281c-2.66-0.345-5.319-0.693-7.978-1.04
		c-2.359-0.308-4.718-0.617-7.078-0.923c-2.34-0.303-4.681-0.6-7.021-0.904c-2.34-0.304-4.679-0.614-7.018-0.919
		c-2.279-0.297-4.559-0.589-6.839-0.884c-2.68-0.347-5.359-0.697-8.039-1.044c-2.32-0.3-4.64-0.598-6.96-0.897
		c-0.62-0.08-1.241-0.15-1.858-0.248c-0.36-0.057-0.653,0.025-0.965,0.218c-2.214,1.369-4.506,2.594-6.905,3.614
		c-3.283,1.396-6.697,2.317-10.223,2.844c-1.918,0.286-3.839,0.504-5.783,0.401c-0.706-0.037-1.41-0.098-2.08-0.346
		c-0.515-0.19-0.947-0.463-0.954-1.122c-1.03,0.138-2.028,0.257-3.034,0.278c-1.011,0.021-2.018-0.023-2.998-0.302
		c-0.96-0.272-1.817-0.688-2.227-1.685c-0.094-0.23-0.283-0.193-0.456-0.202c-0.766-0.044-1.527-0.123-2.274-0.304
		c-0.61-0.148-1.205-0.339-1.726-0.703c-0.575-0.401-0.983-0.909-0.932-1.656c0.02-0.293-0.117-0.385-0.367-0.435
		c-1.141-0.231-2.181-0.705-3.161-1.323c-1.084-0.685-1.697-1.652-1.732-2.944c-0.019-0.691,0.137-1.362,0.372-2.011
		c0.276-0.762,0.659-1.47,1.097-2.151c0.082-0.128,0.235-0.23,0.183-0.468c-0.718-0.091-1.449-0.189-2.182-0.274
		c-3.665-0.428-7.323-0.918-10.977-1.432c-3.494-0.492-6.984-1.016-10.462-1.612c-5.325-0.912-10.64-1.876-15.838-3.385
		c-1.065-0.309-2.108-0.68-3.142-1.081c-1.627-0.631-2.938-1.656-3.986-3.041c-1.475-1.952-2.759-4.023-3.917-6.176
		c-2.066-3.84-3.777-7.842-5.432-11.87c-0.26-0.634-0.526-1.265-0.775-1.904c-0.243-0.623-0.431-1.27-0.405-1.942
		c0.052-1.392,1.059-2.398,2.511-2.571c0.714-0.085,1.406,0.037,2.097,0.193c2.93,0.661,5.819,1.482,8.711,2.285
		c0.602,0.167,1.208,0.32,1.817,0.456c1.262,0.282,2.245,0.964,2.984,2.016c0.74,1.053,1.203,2.231,1.585,3.447
		c0.49,1.562,0.774,3.17,1.082,4.773c0.62,3.226,1.627,6.32,3.225,9.206c0.254,0.459,0.459,0.981,0.854,1.309
		c0.386,0.321,0.955,0.238,1.447,0.316c4.618,0.728,9.237,1.452,13.855,2.18c4.757,0.75,9.513,1.504,14.27,2.254
		c2.069,0.326,4.14,0.648,6.21,0.97C61.849,149.502,61.948,149.5,62.112,149.511z"/>
	<path style="fill:#E2DFD6;" d="M98.058,99.488c-1.932,0.128-3.865,0.247-5.796,0.388c-2.474,0.18-4.948,0.366-7.42,0.573
		c-2.372,0.198-4.743,0.405-7.111,0.645c-2.387,0.242-4.769,0.529-7.154,0.798c-2.525,0.286-5.041,0.641-7.552,1.024
		c-4.404,0.673-8.788,1.457-13.128,2.474c-0.647,0.152-1.296,0.293-1.944,0.438c-0.4,0.136-0.588-0.126-0.76-0.41
		c-0.585-0.968-0.698-1.977-0.254-3.032c0.168-0.443,0.336-0.886,0.536-1.413c-0.923,0.416-1.765,0.77-2.688,0.857
		c-0.107-0.217,0.062-0.339,0.177-0.464c1.929-2.103,4.104-3.885,6.679-5.155c0.441-0.218,0.958-0.257,1.343-0.594
		c0.782-0.329,1.612-0.528,2.437-0.643c0.665-0.093,1.356,0.126,2.032,0.241c2.009,0.345,3.947,0.988,5.932,1.422
		c2.241,0.489,4.364,1.292,6.436,2.234c1.264,0.575,2.554,0.971,3.937,1.076c1.455,0.11,2.905,0.105,4.33-0.247
		c3.145-0.777,4.991-2.879,5.917-5.88c0.354-1.147,0.431-2.334,0.266-3.6c1.9,0.032,3.739,0.197,5.472,1.012
		c-1.502-1.447-3.108-2.714-5.199-3.155c-1.498-0.316-3.009-0.241-4.512-0.001c-2.719,0.434-5.174,1.476-7.362,3.164
		c-1.184,0.914-2.588,1.385-4.025,1.731c-2.947,0.71-5.939,0.866-8.955,0.658c-0.499-0.034-1.009,0.006-1.497-0.15
		c3.127-2.503,6.154-5.14,9.628-7.178c2.513-1.474,5.136-2.662,8.05-3.094c0.005-0.001,0.004-0.038,0.006-0.058
		c0.502-0.184,1.035-0.153,1.55-0.178c1.309-0.064,2.616-0.173,3.929-0.159c4.443,0.049,8.797,0.65,13.032,2.028
		c0.112,0.036,0.228,0.06,0.344,0.085c0.013,0.003,0.032-0.02,0.078-0.052c-0.162-0.337-0.459-0.541-0.749-0.752
		c-0.605-0.441-1.309-0.697-1.957-1.056c0.437-0.767,1.119-1.313,1.764-1.877c2.366-2.068,5.038-3.687,7.78-5.196
		c3.59-1.975,7.305-3.687,11.098-5.231c1.906-0.776,3.906-1.129,5.957-1.191c8.078-0.245,15.695,1.738,23.093,4.78
		c0.53,0.218,0.961,0.64,1.549,0.728c0.801,0.499,1.608,0.988,2.402,1.499c3.545,2.281,7.277,4.223,11.042,6.105
		c3.457,1.728,6.957,3.364,10.478,4.957c0.183,0.083,0.361,0.176,0.541,0.265c-0.056,0.315-0.322,0.252-0.524,0.275
		c-1.95,0.229-3.896,0.051-5.841-0.091c-3.601-0.263-7.158-0.837-10.688-1.577c-2.578-0.54-5.152-1.106-7.635-2.011
		c-1.376-0.469-2.672-1.121-3.97-1.764c-3.428-1.698-6.816-3.478-10.313-5.038c-2.309-1.031-4.689-1.829-7.196-2.216
		c-1.924-0.297-3.855-0.307-5.788-0.11c-1.646,0.168-3.281,0.403-4.867,0.895c-3.295,1.023-6.114,2.843-8.629,5.19
		c1.216-0.299,2.421-0.628,3.67-0.724c0.075-0.03,0.159-0.069,0.225-0.001c0.105,0.11,0.006,0.183-0.073,0.234
		c-0.258,0.165-0.558,0.23-0.843,0.329c-2.68,0.93-4.855,2.499-6.357,4.948c-0.695,1.132-1.073,2.374-1.389,3.645
		c-0.038,0.071,0.11,0.02,0.029,0.013c-0.033-0.002-0.039-0.022-0.015-0.055c0.542-0.783,1.384-1.078,2.237-1.32
		c0.374-0.106,0.498,0.096,0.33,0.501c-0.333,0.806-0.598,1.619-0.629,2.505c-0.058,1.604,0.426,3.055,1.157,4.452
		c0.16,0.306,0.445,0.6,0.28,1.005c-0.527,0.721-1.055,1.443-1.582,2.164c-0.329,0.166-0.52-0.099-0.741-0.247
		c-0.199-0.133-0.366-0.309-0.536-0.428C98.251,98.811,98.297,99.155,98.058,99.488z"/>
	<path style="fill:#EC0C0A;" d="M97.498,37.163c0.308,0.189,0.609,0.391,0.87,0.642c0.287,0.276,0.281,0.372-0.047,0.612
		c-0.72,0.528-1.509,0.934-2.332,1.272c-1.932,0.792-3.952,1.252-6.004,1.598c-1.332,0.225-2.675,0.357-4.123,0.505
		c0.654,0.299,1.263,0.403,1.858,0.539c1.599,0.364,3.227,0.522,4.863,0.487c2.019-0.043,4.013-0.337,5.991-0.746
		c2.249-0.464,4.477-1.029,6.736-1.449c2.295-0.426,4.604-0.571,6.927-0.402c0.962,0.07,1.92,0.22,2.848,0.526
		c1.598,0.526,2.823,1.534,3.788,2.879c1.176,1.638,1.787,3.512,2.191,5.46c0.316,1.521,0.444,3.064,0.529,4.617
		c0.107,1.941,0.003,3.871-0.186,5.795c-0.117,1.189,0.033,0.988-1.03,0.746c-0.57-0.13-1.128-0.309-1.699-0.43
		c-0.318-0.068-0.437-0.216-0.422-0.536c0.047-0.989-0.04-1.975-0.084-2.962c-0.134-2.985-0.428-5.949-1.33-8.818
		c-0.322-1.024-0.735-2.006-1.399-2.865c-0.669-0.865-1.512-1.335-2.642-1.337c-1.158-0.002-2.244,0.232-3.27,0.744
		c-0.776,0.387-1.536,0.805-2.299,1.217c-0.933,0.504-1.927,0.813-2.976,0.96c-1.932,0.27-3.757,0.909-5.549,1.65
		c-0.368,0.152-0.758,0.268-1.077,0.504c-0.016,0.117,0.056,0.156,0.125,0.198c1.135,0.68,1.743,1.735,1.979,2.985
		c0.46,2.435-0.074,4.689-1.435,6.743c-0.716,1.08-1.697,1.792-2.995,2.094c-2.968,0.691-5.847,1.688-8.747,2.613
		c-1.325,0.423-2.658,0.816-4.032,1.058c-1.435,0.253-2.855,0.147-4.264-0.161c-2.684-0.586-5.29-1.434-7.866-2.376
		c-0.073-0.027-0.137-0.079-0.206-0.119c-0.095-0.259,0.055-0.472,0.141-0.691c2.3-5.85,5.102-11.452,8.409-16.794
		c1.625-2.625,3.704-4.823,6.556-6.178c1.835-0.872,3.779-1.289,5.794-1.323c1.468-0.024,2.943-0.125,4.408,0.107
		C96.199,36.635,96.883,36.788,97.498,37.163z"/>
	<path style="fill:#EC0C0A;" d="M59.865,64.403c0.407-0.169,0.832-0.067,1.284-0.101c-0.173,0.183-0.373,0.194-0.563,0.239
		c-3.518,0.827-6.973,1.852-10.306,3.264c-2.423,1.027-4.755,2.218-6.787,3.918c-1.221,1.021-2.256,2.192-2.836,3.708
		c-0.26,0.679-0.369,1.371-0.295,1.998c0.289-0.272,0.547-0.517,0.807-0.76c1.642-1.532,3.384-2.933,5.326-4.071
		c1.1-0.644,2.248-1.18,3.5-1.47c1.132-0.263,2.245-0.184,3.334,0.191c1.422,0.49,2.022,1.584,1.794,3.078
		c-0.197,1.289-0.731,2.353-1.721,3.226c-1.555,1.371-3.264,2.497-5.104,3.439c-3.17,1.622-6.533,2.636-10.039,3.208
		c-0.713,0.116-1.428,0.226-2.142,0.338c1.125,0.921,2.472,1.332,3.853,1.649c3.004,0.69,6.004,0.533,9.001-0.067
		c2.239-0.448,4.439-1.044,6.601-1.774c1.001-0.338,1.87-0.947,2.785-1.455c5.573-3.093,11.166-6.15,16.749-9.225
		c4.84-2.666,9.827-4.965,15.115-6.594c4.503-1.387,9.072-2.446,13.769-2.927c1.625-0.166,3.254-0.3,4.882-0.325
		c4.638-0.072,9.208,0.57,13.744,1.484c0.89,0.179,1.779,0.366,2.654,0.609c0.224,0.062,0.494,0.065,0.596,0.345
		c-0.669,0.048-1.327-0.085-1.987-0.146c-2.94-0.271-5.885-0.274-8.828-0.171c-2.709,0.094-5.372,0.529-7.977,1.295
		c-0.235,0.069-0.468,0.108-0.713,0.11c-2.141,0.014-4.269,0.218-6.385,0.523c-3.801,0.549-7.504,1.488-11.118,2.795
		c-3.355,1.213-6.467,2.901-9.541,4.687c-5.477,3.183-11.069,6.156-16.828,8.801c-4.033,1.853-8.137,3.529-12.402,4.786
		c-2.402,0.708-4.834,1.283-7.331,1.505c-2.104,0.187-4.196,0.126-6.179-0.749c-0.091-0.04-0.177-0.092-0.265-0.138
		c-2.683-1.526-3.331-4.072-3.445-6.881c-0.054-1.315,0.126-2.609,0.331-3.905c0.309-1.957,1.331-3.513,2.628-4.938
		c2.772-3.045,6.273-4.952,10.047-6.419c3.872-1.504,7.905-2.377,12.011-2.933C58.541,64.464,59.21,64.514,59.865,64.403z"/>
	<path style="fill:#810201;" d="M56.662,130.603c-2.799-1.176-5.437-2.639-7.832-4.51c-1.45-1.133-2.757-2.416-3.703-4.023
		c-0.234-0.397-0.446-0.803-0.598-1.358c2.617,1.143,5.21,2.073,8.003,2.271c0.044-0.197-0.105-0.214-0.201-0.265
		c-2.26-1.2-4.509-2.42-6.684-3.768c-1.712-1.06-3.456-2.084-4.83-3.597c-0.984-1.083-1.701-2.329-1.814-3.799
		c-0.09-1.162,0.39-2.079,1.735-2.604c0.902-0.352,1.855-0.529,2.8-0.713c1.95-0.379,3.903-0.741,5.861-1.075
		c1.641-0.28,3.291-0.508,4.937-0.761c1.507-0.232,3.011-0.482,4.52-0.697c1.589-0.227,3.183-0.419,4.774-0.634
		c1.074-0.145,2.144-0.317,3.218-0.452c1.155-0.145,2.314-0.256,3.47-0.392c0.837-0.098,1.671-0.219,2.508-0.318
		c0.858-0.101,1.717-0.189,2.575-0.281c1.057-0.114,2.115-0.223,3.173-0.341c0.479-0.053,0.96-0.055,1.442-0.118
		c1.095-0.142,2.202-0.18,3.303-0.276c1.18-0.103,2.358-0.227,3.538-0.336c0.6-0.055,1.206-0.079,1.805-0.107
		c0.925-0.043,1.852-0.102,2.77-0.185c1.063-0.096,2.136,0.006,3.189-0.195c0.02-0.004,0.04-0.005,0.06-0.005
		c2.337,0.009,4.67-0.241,7.01-0.114c0.045,0.086-0.001,0.149-0.058,0.209c-0.788,0.836-1.549,1.695-2.36,2.512
		c-0.678,0.683-1.492,1.098-2.387,1.362c-1.293,0.38-2.626,0.564-3.96,0.751c-2.324,0.326-4.65,0.634-6.945,1.153
		c-2.141,0.484-4.253,1.056-6.316,1.8c-3.371,1.216-6.54,2.829-9.487,4.874c-1.975,1.371-3.822,2.89-5.484,4.629
		c-0.089,0.093-0.314,0.15-0.18,0.365c0.041,0.228-0.14,0.326-0.277,0.426c-1.933,1.398-3.266,3.327-4.631,5.226
		c-0.306,0.426-0.579,0.874-0.857,1.319c-0.103,0.165-0.219,0.389-0.46,0.313c-0.233-0.073-0.214-0.32-0.222-0.517
		c-0.114-2.795,0.256-5.502,1.365-8.099c1.589-3.721,4.248-6.522,7.479-8.845c1.33-0.956,2.75-1.762,4.235-2.455
		c0.215-0.1,0.429-0.193,0.663-0.241c-0.88,0.238-1.791,0.221-2.686,0.298c-2.833,0.243-5.654,0.578-8.464,1.011
		c-5.569,0.859-11.069,2.037-16.481,3.615c-0.388,0.113-0.773,0.234-1.153,0.368c-0.548,0.194-0.592,0.319-0.189,0.74
		c0.865,0.903,1.735,1.804,2.656,2.649c2.185,2.005,4.469,3.895,6.795,5.733c0.918,0.725,1.844,1.441,2.77,2.155
		c0.752,0.58,0.735,0.931-0.096,1.422c-1.123,0.664-2.357,0.923-3.645,0.969c-0.436,0.015-0.872,0.002-1.424,0.001
		c1.545,1.177,3.071,2.143,4.78,2.786c0.859,0.323,1.469,0.896,1.917,1.672C56.673,130.292,56.765,130.434,56.662,130.603z"/>
	<path style="fill:#EC0C0A;" d="M56.662,130.603c-0.476-0.981-1.184-1.663-2.242-2.056c-1.614-0.599-3.057-1.533-4.419-2.581
		c-0.137-0.106-0.324-0.165-0.435-0.427c0.321,0,0.608-0.006,0.896,0.001c1.175,0.03,2.332-0.066,3.444-0.48
		c0.511-0.19,1.014-0.4,1.413-0.79c0.298-0.292,0.295-0.354-0.032-0.607c-0.828-0.64-1.666-1.268-2.487-1.916
		c-1.627-1.284-3.237-2.59-4.818-3.931c-1.784-1.514-3.49-3.108-5.116-4.789c-0.817-0.846-0.82-0.855,0.259-1.196
		c2.875-0.909,5.796-1.645,8.74-2.295c1.647-0.364,3.297-0.712,4.956-1.013c1.619-0.293,3.239-0.58,4.873-0.788
		c1.394-0.177,2.782-0.397,4.177-0.566c0.997-0.12,2-0.184,3.001-0.276c0.72-0.066,1.438-0.146,2.159-0.202
		c0.32-0.025,0.643-0.004,0.999-0.004c-0.102,0.13-0.256,0.159-0.383,0.217c-2.344,1.063-4.537,2.381-6.485,4.059
		c-2.712,2.335-4.88,5.082-6.03,8.53c-0.414,1.241-0.682,2.511-0.821,3.819c-0.111,1.049-0.065,2.091-0.079,3.137
		c-0.001,0.113-0.039,0.243,0.106,0.366c0.204-0.121,0.296-0.338,0.417-0.533c1.21-1.935,2.581-3.744,4.174-5.383
		c0.481-0.495,1.089-0.826,1.588-1.293c0.279-0.168,0.558-0.337,0.837-0.505c0.163-0.026,0.328-0.293,0.475-0.079
		c0.149,0.215-0.058,0.413-0.18,0.59c-1.461,2.109-2.745,4.322-3.848,6.637c-1.29,2.707-2.278,5.512-2.652,8.506
		c-0.08,0.643-0.003,1.29-0.054,1.932c-0.017,0.209,0.076,0.579-0.378,0.457c-0.826-0.813-1.789-1.389-2.914-1.686
		c-0.316-0.231-0.067-0.383,0.093-0.508c0.401-0.314,0.869-0.511,1.367-0.588c0.43-0.066,0.533-0.272,0.434-0.662
		c-0.168-0.661-0.341-1.32-0.624-1.943c-0.148-0.327-0.265-0.659-0.305-1.016C56.733,130.696,56.697,130.649,56.662,130.603z"/>
	<path style="fill:#E2DFD6;" d="M132.823,63.678c-0.16,0.071-0.317,0.037-0.468-0.024c-1.749-0.707-3.517-1.361-5.302-1.968
		c-0.222-0.076-0.301-0.194-0.314-0.43c-0.112-2.146-0.268-4.288-0.575-6.416c-0.011-0.078,0.002-0.159,0.004-0.239
		c0.312,0.133,0.6,0.212,0.967,0.091c4.756-1.571,9.628-2.705,14.518-3.762c4.337-0.937,8.695-1.768,13.067-2.53
		c0.613-0.107,1.238-0.122,1.856-0.181c-0.217,0.02-0.436,0.09-0.64-0.051c0.764-0.153,1.539-0.19,2.314-0.222
		c0.174,0.263-0.051,0.406-0.181,0.568c-1.172,1.449-2.552,2.685-4.019,3.819c-3.019,2.335-6.266,4.309-9.636,6.099
		c-3.153,1.674-6.397,3.142-9.664,4.568C134.122,63.272,133.452,63.414,132.823,63.678z"/>
	<path style="fill:#BCB6B4;" d="M132.823,63.678c0.225-0.261,0.567-0.294,0.858-0.412c1.473-0.595,2.923-1.244,4.373-1.892
		c1.691-0.756,3.367-1.544,5.011-2.397c2.966-1.538,5.88-3.166,8.617-5.091c1.265-0.89,2.495-1.821,3.669-2.834
		c0.98-0.846,1.852-1.786,2.715-2.741c0.096-0.107,0.19-0.21,0.185-0.366c0.989-0.205,2.001-0.222,2.999-0.357
		c1.737-0.233,3.482-0.402,5.217-0.651c2.272-0.325,4.536-0.703,6.787-1.16c2.706-0.55,5.388-1.187,7.993-2.118
		c0.113-0.041,0.221-0.092,0.387-0.067c-0.141,0.279-0.369,0.443-0.565,0.628c-2.132,2.016-4.472,3.769-6.915,5.383
		c-6.935,4.581-14.32,8.298-22.027,11.39c-0.555,0.223-1.099,0.481-1.712,0.596c1.947-1.778,3.786-3.638,5.13-5.956
		c-0.213-0.036-0.311,0.117-0.434,0.196c-2.145,1.38-4.464,2.409-6.831,3.329c-4.946,1.924-10.045,3.338-15.216,4.505
		C132.986,63.683,132.903,63.674,132.823,63.678z"/>
	<path style="fill:#EC0C0A;" d="M68.869,153.012c0.181-0.215,0.416-0.115,0.621-0.085c3.943,0.588,7.861,1.305,11.741,2.232
		c4.669,1.115,9.256,2.488,13.719,4.262c1.442,0.573,2.867,1.186,4.246,1.901c0.506,0.263,0.524,0.349,0.128,0.779
		c-0.559,0.607-1.29,0.958-2.015,1.31c-0.963,0.468-1.984,0.783-3,1.108c-0.987,0.471-2.012,0.519-3.063,0.277
		c-0.396-0.091-0.796-0.105-1.201-0.11c-1.69-0.021-3.379-0.083-5.062-0.245c-0.508-0.049-0.986-0.196-1.423-0.468
		c-0.442-0.275-0.929-0.373-1.443-0.374c-0.987-0.002-1.975-0.002-2.962-0.001c-0.713,0.001-1.254-0.217-1.458-0.986
		c-0.102-0.385-0.407-0.636-0.734-0.853c-0.694-0.46-1.447-0.795-2.232-1.059c-0.353-0.119-0.643-0.292-0.873-0.605
		c-0.32-0.435-0.838-0.613-1.292-0.868c-0.894-0.503-1.83-0.941-2.532-1.727c-1.03-1.153-1.328-2.543-1.317-4.033
		C68.72,153.303,68.791,153.155,68.869,153.012z"/>
	<path style="fill:#810201;" d="M58.716,137.144c0.108-0.011,0.2-0.05,0.208-0.173c0.01-0.161,0.013-0.323,0.008-0.483
		c-0.072-1.976,0.347-3.875,0.925-5.745c1.048-3.391,2.654-6.517,4.539-9.51c0.408-0.648,0.807-1.3,1.274-1.908
		c0.056-0.072,0.082-0.167,0.121-0.25c-0.178-0.089-0.296,0.08-0.436,0.026c0.175-0.288,0.479-0.433,0.737-0.615
		c1.153-0.812,2.346-1.564,3.583-2.244c2.425-1.332,4.956-2.421,7.598-3.243c1.804-0.561,3.636-1.013,5.511-1.27
		c0.529-0.073,1.045-0.248,1.7-0.214c-0.574,0.364-1.057,0.677-1.547,0.981c-2.023,1.252-3.917,2.68-5.762,4.181
		c-1.865,1.518-3.613,3.16-5.236,4.924c-2.103,2.285-3.97,4.751-5.464,7.493c-1.222,2.242-2.144,4.588-2.731,7.07
		c-0.189,0.801-0.311,1.615-0.433,2.428c-0.063,0.416-0.092,0.455-0.497,0.31c-1.024-0.366-2.037-0.76-3.01-1.25
		c-0.315-0.159-0.617-0.362-0.994-0.362C58.777,137.29,58.747,137.195,58.716,137.144z"/>
	<path style="fill:#810201;" d="M68.869,153.012c0,0.825,0.03,1.647,0.251,2.45c0.33,1.196,1,2.126,2.071,2.783
		c0.773,0.475,1.582,0.882,2.366,1.335c0.175,0.101,0.404,0.183,0.455,0.377c0.102,0.386,0.404,0.458,0.709,0.558
		c0.863,0.286,1.683,0.659,2.441,1.17c0.405,0.273,0.698,0.617,0.782,1.097c0.053,0.304,0.224,0.446,0.492,0.542
		c0.233,0.084,0.469,0.107,0.712,0.107c0.988-0.002,1.976-0.002,2.964-0.003c0.594-0.001,1.158,0.083,1.647,0.47
		c0.275,0.218,0.628,0.271,0.96,0.338c0.373,0.076,0.756,0.148,1.133,0.143c1.411-0.019,2.814,0.174,4.224,0.133
		c0.467-0.014,0.932,0.024,1.377,0.14c0.849,0.222,1.674,0.111,2.504-0.076c0.117-0.026,0.237-0.039,0.355-0.058
		c-0.698,0.491-1.492,0.788-2.278,1.092c-2.952,1.14-6.015,1.889-9.111,2.507c-0.903,0.18-1.818,0.308-2.753,0.298
		c-0.738-0.008-0.908-0.515-0.67-1.044c0.105-0.234,0.238-0.456,0.392-0.746c-3.067,0.503-6.017-0.041-9.099-0.49
		c0.35-0.261,0.645-0.309,0.915-0.396c1.037-0.333,2.051-0.72,3.017-1.228c0.254-0.133,0.481-0.293,0.671-0.507
		c0.083-0.093,0.157-0.191,0.113-0.323c-0.049-0.146-0.183-0.133-0.302-0.141c-0.512-0.037-0.999,0.073-1.48,0.234
		c-1.298,0.434-2.594,0.872-3.896,1.295c-1.11,0.361-2.187,0.256-3.21-0.302c-0.459-0.25-0.911-0.524-1.258-0.928
		c-0.564-0.658-0.596-0.963-0.083-1.712c0.319-0.467,0.698-0.884,1.174-1.205c0.114-0.077,0.227-0.169,0.299-0.352
		c-0.255,0.014-0.459,0.112-0.665,0.201c-0.888,0.384-1.793,0.718-2.721,0.993c-0.63,0.186-1.002,0.078-1.358-0.46
		c-0.439-0.664-0.692-1.404-0.759-2.199c-0.024-0.281,0.014-0.567-0.014-0.846c-0.095-0.934,0.713-1.786,1.785-2.063
		c0.132-0.034,0.239-0.007,0.28,0.144c0.011,0.039,0.02,0.079,0.035,0.116c0.311,0.775,0.605,0.88,1.306,0.429
		c0.32-0.206,0.62-0.445,0.896-0.713c1.028-0.995,2.061-1.985,3.094-2.975C68.703,153.127,68.789,153.073,68.869,153.012z"/>
	<path style="fill:#E2DFD6;" d="M90.753,140.162c12.408-5.929,25.099-11.159,38.129-15.567c-0.135,0.209-0.352,0.295-0.547,0.406
		c-5.082,2.896-10.036,5.991-14.714,9.51c-2.84,2.136-5.568,4.401-7.991,7.013c-0.508,0.547-0.988,1.118-1.439,1.713
		c-0.295,0.39-0.296,0.393-0.671,0.111c-1.48-1.113-3.106-1.937-4.878-2.475c-2.502-0.76-5.052-0.99-7.65-0.711
		C90.912,140.169,90.832,140.162,90.753,140.162z"/>
	<path style="fill:#FFFAFF;" d="M143.349,75.079c-0.147,0.166-0.292,0.066-0.435-0.005c-2.271-1.145-4.665-1.978-7.083-2.739
		c-2.297-0.723-4.622-1.342-6.998-1.758c-1.163-0.203-2.323-0.443-3.494-0.576c-0.594-0.067-1.202-0.106-1.796-0.17
		c-1.712-0.187-3.425-0.13-5.131-0.078c-2.034,0.062-4.019,0.463-5.902,1.291c-1.343,0.591-2.708,1.134-4.05,1.728
		c-1.603,0.709-3.166,1.503-4.728,2.298c-2.332,1.188-4.604,2.482-6.771,3.951c-1.566,1.062-3.057,2.222-4.356,3.609
		c-0.151,0.161-0.292,0.336-0.498,0.435c-1.157-0.462-2.313-0.924-3.495-1.397c0.238-0.373,0.54-0.667,0.835-0.967
		c2.076-2.112,4.441-3.861,6.932-5.442c3.512-2.228,7.16-4.195,11.102-5.565c4.181-1.454,8.486-2.23,12.915-2.317
		c4.356-0.086,8.526,0.76,12.555,2.401c3.309,1.347,6.509,2.903,9.562,4.759C142.797,74.71,143.071,74.898,143.349,75.079z"/>
	<path style="fill:#810201;" d="M66.362,153.09c-0.351,0.471-0.648,0.871-0.946,1.27c-0.148,0.198-0.349,0.259-0.588,0.221
		c-1.188-0.19-2.375-0.388-3.564-0.566c-1.488-0.223-2.981-0.419-4.469-0.645c-1.427-0.218-2.85-0.466-4.277-0.689
		c-1.15-0.18-2.304-0.334-3.454-0.512c-1.467-0.226-2.93-0.471-4.397-0.695c-1.19-0.182-2.384-0.341-3.574-0.52
		c-1.091-0.164-2.18-0.341-3.27-0.514c-1.189-0.189-2.377-0.378-3.565-0.57c-1.405-0.228-2.81-0.463-4.216-0.69
		c-1.347-0.217-2.696-0.42-4.042-0.644c-1.702-0.283-3.404-0.564-5.088-0.941c-0.733-0.164-1.414-0.465-2.101-0.751
		c-1.565-0.652-3.092-1.377-4.439-2.428c-0.377-0.294-0.766-0.589-0.957-1.16c2.887-0.356,5.739-0.708,8.644-1.066
		c-0.061,0.319-0.265,0.435-0.411,0.583c-0.356,0.36-0.692,0.733-0.921,1.189c-0.091,0.18-0.17,0.359-0.18,0.57
		c-0.028,0.558,0.091,0.795,0.616,0.958c0.497,0.155,1.008,0.278,1.521,0.368c2.608,0.456,5.21,0.951,7.826,1.363
		c1.783,0.281,3.555,0.632,5.335,0.93c1.84,0.307,3.686,0.578,5.527,0.881c1.821,0.3,3.636,0.629,5.457,0.929
		c1.603,0.264,3.211,0.5,4.815,0.761c1.624,0.264,3.243,0.551,4.868,0.812c1.406,0.226,2.817,0.423,4.223,0.644
		c1.051,0.165,2.098,0.352,3.148,0.523C64.671,152.83,65.462,152.949,66.362,153.09z"/>
	<path style="fill:#FFFFFF;" d="M125.867,66.33c-1.105-0.386-2.258-0.58-3.397-0.819c-2.586-0.542-5.198-0.931-7.826-1.199
		c-3.038-0.31-6.079-0.331-9.125-0.07c-8.834,0.757-17.208,3.188-25.201,6.964c-3.06,1.446-5.997,3.139-8.962,4.771
		c-4.978,2.741-9.942,5.505-14.922,8.243c-0.886,0.487-1.883,0.706-2.846,0.997c-2.357,0.713-4.752,1.257-7.201,1.536
		c-2.763,0.314-5.475,0.063-8.123-0.799c-0.654-0.213-1.279-0.497-1.83-0.914c-0.137-0.104-0.397-0.153-0.316-0.43
		c1.177,0.496,2.42,0.757,3.67,0.969c2.14,0.363,4.293,0.424,6.447,0.129c1.923-0.263,3.791-0.764,5.626-1.38
		c4.539-1.523,8.891-3.446,12.991-5.944c6.043-3.682,12.249-7.066,18.738-9.908c3.01-1.318,6.068-2.505,9.271-3.276
		c1.863-0.449,3.757-0.73,5.648-1.028c2.53-0.4,5.071-0.713,7.624-0.923c3.583-0.294,7.169-0.439,10.752-0.029
		c2.288,0.262,4.511,0.856,6.726,1.462c2.117,0.579,4.207,1.25,6.262,2.025c0.242,0.091,0.493,0.165,0.796,0.375
		C129.015,66.768,127.441,66.547,125.867,66.33z"/>
	<path style="fill:#BCB6B4;" d="M143.124,84.499c0.646,0.05,1.247,0.291,1.863,0.457c2.072,0.558,4.162,1.041,6.263,1.474
		c1.235,0.255,2.471,0.518,3.718,0.693c0.991,0.139,1.978,0.305,2.973,0.425c0.893,0.107,1.79,0.216,2.684,0.307
		c0.655,0.067,1.315,0.192,1.98,0.152c1.009-0.06,2.007,0.211,3.011,0.11c0.731-0.074,1.476-0.022,2.195-0.214
		c1.593,0.619,3.164,1.294,4.785,1.842c1.064,0.36,2.132,0.701,3.26,0.975c-0.17,0.067-0.337,0.143-0.511,0.2
		c-2.131,0.703-4.322,1.137-6.54,1.438c-2.741,0.372-5.496,0.529-8.262,0.473c-3.634-0.074-7.239-0.45-10.812-1.112
		c-4.644-0.861-9.168-2.158-13.583-3.831c-0.262-0.099-0.583-0.108-0.758-0.388l-0.01,0.009c1.788,0.482,3.57,0.984,5.378,1.389
		c3.248,0.728,6.519,1.286,9.84,1.557c2.216,0.181,4.429,0.231,6.647,0.084c1.046-0.07,2.085-0.207,3.119-0.379
		c0.053-0.009,0.126-0.015,0.112-0.141c-0.65-0.125-1.314-0.239-1.972-0.38c-4.129-0.883-8.114-2.231-12.043-3.752
		C145.337,85.455,144.197,85.055,143.124,84.499z"/>
	<path style="fill:#810201;" d="M127.176,115.961c-0.845,0.072-1.632-0.124-2.417-0.254c-1.585-0.262-3.147-0.634-4.664-1.175
		c-1.313-0.468-2.575-1.04-3.715-1.853c-0.691-0.492-1.304-1.065-1.823-1.741c-1.456-1.896-3.136-3.558-5.145-4.868
		c-0.485-0.316-0.993-0.597-1.483-0.889c0.041-0.234,0.234-0.242,0.367-0.305c0.607-0.29,1.135-0.683,1.612-1.153
		c0.689-0.679,1.393-1.346,1.944-2.145c0.178-0.258,0.334-0.204,0.557-0.113c1.311,0.539,2.506,1.285,3.673,2.074
		c1.469,0.993,2.869,2.074,4.094,3.366c0.604,0.637,1.08,1.335,1.275,2.217c0.137,0.618,0.536,1.125,0.904,1.626
		c0.464,0.631,0.964,1.235,1.511,1.802c0.544,0.565,1.046,1.171,1.62,1.708c0.47,0.44,0.947,0.873,1.416,1.313
		C127.002,115.665,127.13,115.74,127.176,115.961z"/>
	<path style="fill:#BCB6B4;" d="M100.672,109.685c0.109,0.234-0.023,0.417-0.076,0.599c-0.388,1.336-0.864,2.642-1.383,3.932
		c-1.336,3.321-3.869,5.153-7.296,5.876c-1.905,0.402-3.815,0.308-5.711-0.033c-1.566-0.282-3.117-0.643-4.674-0.972
		c-0.053-0.011-0.097-0.062-0.2-0.131c0.266-0.218,0.506-0.423,0.755-0.619c2.972-2.345,6.282-4.089,9.831-5.364
		c2.787-1.001,5.548-2.068,8.307-3.141C100.37,109.777,100.521,109.735,100.672,109.685z"/>
	<path style="fill:#FFFFFF;" d="M97.498,37.163c-0.704-0.162-1.386-0.407-2.11-0.492c-1.832-0.214-3.661-0.183-5.493-0.011
		c-1.931,0.182-3.748,0.734-5.435,1.695c-1.909,1.088-3.425,2.603-4.718,4.358c-1.211,1.644-2.167,3.442-3.165,5.215
		c-2.375,4.22-4.438,8.587-6.205,13.095c-0.051,0.13-0.121,0.252-0.183,0.378c-0.719-0.315-1.433-0.643-2.16-0.938
		c-0.251-0.102-0.289-0.244-0.225-0.467c0.185-0.64,0.416-1.263,0.679-1.874c1.651-3.842,3.688-7.48,5.857-11.048
		c0.901-1.482,1.841-2.941,2.888-4.324c1.716-2.265,3.689-4.266,6.052-5.872c4.534-3.082,10.259-2.224,13.657-0.154
		C97.14,36.848,97.369,36.944,97.498,37.163z"/>
	<path style="fill:#EC0C0A;" d="M71.25,150.951c0.4-0.578,0.904-0.848,1.437-1.083c0.512-0.226,1.071-0.306,1.699-0.508
		c-0.42-0.297-0.8-0.213-1.153-0.17c-0.378,0.045-0.752,0.144-1.122,0.24c-0.368,0.096-0.73,0.218-1.086,0.326
		c-0.038-0.059-0.082-0.096-0.077-0.124c0.186-0.997,0.506-1.946,1.026-2.82c0.169-0.284,0.401-0.491,0.736-0.588
		c1.819-0.527,3.611-1.158,5.482-1.482c1.611-0.279,3.238-0.411,4.872-0.206c0.957,0.12,1.713,0.559,2.181,1.433
		c0.112,0.208,0.156,0.406,0.036,0.629c-1.027,1.9-2.074,3.783-3.567,5.377c-0.309,0.33-0.595,0.431-1.049,0.326
		c-1.923-0.445-3.867-0.789-5.823-1.058c-1.079-0.148-2.164-0.233-3.254-0.25C71.509,150.992,71.43,150.974,71.25,150.951z"/>
	<path style="fill:#EC0C0A;" d="M85.141,153.085c0.438-0.748,0.875-1.492,1.308-2.238c0.717-1.237,1.428-2.477,1.889-3.839
		c0.065-0.193,0.186-0.297,0.346-0.391c0.997-0.585,2.06-0.802,3.192-0.526c1.376,0.335,2.505,1.066,3.386,2.183
		c0.26,0.33,0.313,0.674,0.218,1.073c-0.542,2.272-1.826,4.046-3.644,5.467c-0.152,0.119-0.305,0.187-0.5,0.131
		c-2.032-0.576-4.072-1.123-6.084-1.765C85.217,153.168,85.191,153.129,85.141,153.085z"/>
	<path style="fill:#BCB6B4;" d="M100.984,96.989c-0.115-0.477-0.393-0.88-0.609-1.31c-0.661-1.313-1.036-2.684-0.989-4.17
		c0.032-1.009,0.366-1.92,0.812-2.914c-1.104,0.236-2.003,0.673-2.767,1.601c0.103-0.891,0.323-1.616,0.589-2.328
		c0.639-1.714,1.678-3.161,3.046-4.355c1.238-1.082,2.676-1.845,4.231-2.382c0.266-0.092,0.55-0.144,0.798-0.269
		c0.214-0.107-0.055-0.078-0.063-0.132c0.432-0.19,0.901-0.106,1.36-0.194c-2.689,1.422-5.054,3.173-6.538,5.988
		c0.257,0.011,0.367-0.151,0.496-0.244c1.724-1.239,3.523-2.348,5.5-3.146c0.901-0.364,1.824-0.643,2.794-0.749
		c0.211-0.023,0.423-0.031,0.75-0.055c-0.293,0.277-0.558,0.373-0.796,0.507c-1.907,1.08-3.655,2.362-5.154,3.975
		c-1.723,1.855-2.642,4.023-2.653,6.566c-0.003,0.727-0.014,1.453,0.076,2.175c0.024,0.193,0.012,0.351-0.12,0.504
		C101.486,96.363,101.238,96.679,100.984,96.989z"/>
	<path style="fill:#FFFAFF;" d="M155.936,48.167c0.198,0.016,0.396,0.032,0.594,0.048c0.002,0.013,0.003,0.026,0.005,0.039
		c-0.983,0.178-1.965,0.356-2.948,0.533c-1.222,0.22-2.447,0.426-3.666,0.66c-1.968,0.377-3.933,0.763-5.897,1.161
		c-1.316,0.267-2.627,0.558-3.939,0.845c-2.057,0.45-4.113,0.908-6.148,1.452c-1.726,0.462-3.467,0.874-5.162,1.447
		c-0.609,0.206-1.227,0.386-1.839,0.583c-0.537,0.172-0.536,0.176-0.767-0.334c-0.113-0.696-0.215-1.394-0.343-2.087
		c-0.055-0.295-0.003-0.416,0.328-0.484c1.875-0.384,3.757-0.734,5.643-1.057c2.921-0.5,5.853-0.924,8.793-1.288
		c2.301-0.285,4.605-0.54,6.911-0.776c2.407-0.247,4.818-0.459,7.228-0.68C155.129,48.191,155.533,48.186,155.936,48.167z"/>
	<path style="fill:#FFFFFF;" d="M59.865,64.403c-0.454,0.196-0.947,0.166-1.421,0.229c-4.407,0.585-8.729,1.516-12.878,3.149
		c-2.867,1.129-5.56,2.565-7.922,4.57c-0.941,0.799-1.796,1.68-2.544,2.665c-0.892,1.175-1.515,2.452-1.753,3.931
		c-0.313,1.944-0.48,3.88-0.108,5.832c0.37,1.941,1.238,3.569,2.945,4.666c0.072,0.047,0.126,0.096,0.13,0.185
		c-2.502-1.059-3.846-3.06-4.618-5.569c-0.575-1.871-0.281-3.665,0.305-5.453c1.002-3.058,2.832-5.542,5.302-7.575
		c2.511-2.066,5.388-3.441,8.458-4.441c2.846-0.927,5.769-1.494,8.739-1.837c1.544-0.178,3.089-0.321,4.643-0.37
		C59.384,64.375,59.626,64.333,59.865,64.403z"/>
	<path style="fill:#E2DFD6;" d="M75.751,68.341c-4.05,0.995-7.449,3.182-10.813,5.438c-0.245,0.165-0.463,0.377-0.759,0.488
		c-0.083-1.604,1.601-7.606,2.401-9.459c0.916,0.672,1.938,1.124,2.98,1.536c1.95,0.77,3.956,1.363,5.972,1.929
		C75.605,68.294,75.678,68.318,75.751,68.341z"/>
	<path style="fill:#FFFFFF;" d="M5.98,128.271c1.711,0.08,3.301,0.153,4.89,0.229c2.236,0.107,4.471,0.216,6.706,0.325
		c0.141,0.007,0.282,0.018,0.423,0.017c0.22-0.002,0.319,0.109,0.367,0.317c0.231,1,0.471,1.997,0.714,3.02
		c-0.505,0.067-0.985,0.014-1.463-0.009c-3.182-0.152-6.364-0.319-9.547-0.456c-0.421-0.018-0.641-0.151-0.803-0.542
		C6.879,130.225,6.441,129.299,5.98,128.271z"/>
	<path style="fill:#EC0C0A;" d="M94.339,156.261c1.857-1.956,3.646-3.89,4.657-6.389c0.091,0.029,0.152,0.036,0.2,0.065
		c1.913,1.148,3.053,3.609,2.696,5.811c-0.129,0.798-0.318,1.579-0.659,2.316c-0.176,0.382-0.184,0.389-0.576,0.23
		c-1.382-0.559-2.777-1.083-4.202-1.526C95.784,156.56,95.102,156.396,94.339,156.261z"/>
	<path style="fill:#810201;" d="M18.056,127.128c-0.463-0.163-0.886-0.115-1.304-0.14c-1.061-0.065-2.125-0.078-3.181-0.221
		c-0.099-0.013-0.201-0.015-0.302-0.011c-1.048,0.048-2.087-0.111-3.13-0.155c-1.322-0.055-2.641-0.199-3.967-0.227
		c-0.259-0.006-0.516-0.073-0.774-0.104c-0.13-0.016-0.236-0.069-0.295-0.181c-0.359-0.677-0.705-1.358-0.661-2.161
		c0.03-0.55,0.262-0.792,0.823-0.815c1.759-0.072,3.474,0.197,5.187,0.588c1.913,0.436,3.737,1.096,5.485,1.967
		c0.628,0.313,1.212,0.713,1.815,1.075C17.87,126.813,18.001,126.875,18.056,127.128z"/>
	<path style="fill:#FFFFFF;" d="M20.156,138.19c-0.237,0.076-0.399-0.039-0.563-0.087c-3.398-1.003-6.791-2.02-10.19-3.02
		c-0.368-0.108-0.599-0.255-0.63-0.676c-0.023-0.312-0.133-0.618-0.21-0.952c0.307-0.047,0.563,0.014,0.821,0.034
		c2.23,0.179,4.461,0.355,6.691,0.533c0.964,0.077,1.929,0.16,2.893,0.232c0.178,0.013,0.31,0.047,0.355,0.246
		C19.599,135.73,19.878,136.959,20.156,138.19z"/>
	<path style="fill:#810201;" d="M126.229,105.095c-4.604-0.543-8.635-2.195-12.048-5.271c0.133-0.258,0.317-0.175,0.463-0.199
		c1.763-0.291,3.486-0.103,5.157,0.498c1.625,0.585,3.066,1.477,4.364,2.626c0.592,0.524,1.091,1.122,1.639,1.679
		C125.974,104.6,126.112,104.792,126.229,105.095z"/>
	<path style="fill:#810201;" d="M126.609,164.877c-7.632-1.23-15.265-2.46-22.945-3.698c0.236-0.623,0.413-1.251,0.467-1.91
		c0.022-0.271,0.254-0.195,0.428-0.15c0.758,0.194,1.515,0.394,2.274,0.588c4.57,1.165,9.144,2.313,13.708,3.5
		c1.904,0.495,3.81,0.976,5.718,1.453c0.133,0.033,0.259,0.093,0.389,0.141C126.634,164.826,126.622,164.851,126.609,164.877z"/>
	<path style="fill:#810201;" d="M56.768,130.742c0.576,1.036,0.919,2.155,1.162,3.307c0.061,0.29-0.017,0.392-0.407,0.424
		c-0.622,0.051-1.137,0.345-1.657,0.645c-0.164,0.095-0.166,0.204-0.064,0.34c-0.04-0.002-0.095,0.013-0.118-0.008
		c-1.015-0.944-2.221-1.638-3.283-2.523c-1.519-1.265-2.952-2.618-4.32-4.043c-0.068-0.071-0.143-0.145-0.091-0.268
		c0.193-0.114,0.34,0.043,0.495,0.111c2.203,0.956,4.474,1.673,6.855,2.037c0.396,0.061,0.803,0.049,1.191,0.163
		C56.695,130.975,56.748,130.878,56.768,130.742z"/>
	<path style="fill:#FFFFFF;" d="M21.628,141.047c-0.895,0.035-1.779,0.07-2.664,0.104c-2.056,0.078-4.113,0.148-6.168,0.241
		c-0.362,0.016-0.579-0.071-0.764-0.407c-0.57-1.038-1.181-2.054-1.813-3.142c0.793,0.033,1.492,0.206,2.195,0.322
		c2.804,0.463,5.604,0.951,8.408,1.414c0.321,0.053,0.521,0.155,0.572,0.494C21.442,140.388,21.62,140.675,21.628,141.047z"/>
	<path style="fill:#FFFAFF;" d="M75.88,83.148c0.028,0.048,0.193,0.1,0.099,0.117c-0.81,0.15-1.595,0.386-2.387,0.603
		c-0.836,0.229-1.636,0.55-2.429,0.887c-1.949,0.828-3.766,1.897-5.498,3.108c-1.528,1.068-3.023,2.181-4.453,3.381
		c-0.798,0.67-1.627,1.302-2.426,1.971c-0.182,0.153-0.371,0.226-0.59,0.263c-0.908-0.026-1.783-0.243-2.644-0.417
		c-0.037-0.109-0.004-0.158,0.049-0.192c2.869-1.836,5.668-3.781,8.63-5.469c2.136-1.217,4.293-2.395,6.638-3.174
		c1.32-0.439,2.66-0.803,4.05-0.947c0.152-0.101,0.341,0.004,0.494-0.09C75.569,83.176,75.724,83.162,75.88,83.148z"/>
	<path style="fill:#810201;" d="M103.244,98.48c0.7-0.894,1.516-1.596,2.537-2.027c1.62-0.685,3.18-0.006,3.786,1.496
		c0.273,0.679,0.21,1.406-0.042,2.066c-0.481,1.26-1.311,2.249-2.547,2.854c-0.09,0.044-0.182,0.09-0.278,0.116
		c-0.179,0.048-0.273-0.032-0.261-0.215c0.007-0.099,0.05-0.195,0.059-0.294c0.089-1.013-0.002-2.004-0.427-2.94
		c-0.349-0.769-0.929-1.191-1.809-1.128C103.924,98.432,103.58,98.372,103.244,98.48z"/>
	<path style="fill:#FFFAFF;" d="M52.986,95.616c0.085,0.082,0.047,0.132-0.043,0.172c-0.385,0.173-0.776,0.335-1.153,0.524
		c-2.044,1.027-3.923,2.286-5.517,3.941c-0.501,0.52-1.073,0.974-1.487,1.576c-0.296,0.297-0.682,0.423-1.065,0.54
		c-1.236,0.378-2.509,0.583-3.784,0.771c-0.071,0.011-0.154,0.036-0.251-0.08c0.199-0.206,0.398-0.423,0.61-0.627
		c2.666-2.575,5.824-4.356,9.252-5.693C50.673,96.302,51.804,95.878,52.986,95.616z"/>
	<path style="fill:#FFFAFF;" d="M80.948,91.331c-0.269,1.256-0.807,2.251-1.589,3.116c-1.203,1.333-2.75,2.004-4.493,2.274
		c-0.578,0.089-1.161,0.141-1.748,0.128c-0.338-0.007-0.676-0.001-0.984-0.001c-0.098-0.2,0.025-0.239,0.096-0.291
		c2.146-1.541,4.315-3.048,6.631-4.327C79.495,91.881,80.133,91.54,80.948,91.331z"/>
	<path style="fill:#810201;" d="M70.086,147.241c-0.161,1.044-0.522,2.078-1.146,3.018c-0.155,0.234-0.363,0.239-0.581,0.209
		c-0.756-0.104-1.512-0.198-2.274-0.251c-0.339-0.024-0.411-0.173-0.216-0.42c0.926-1.177,1.915-2.286,3.342-2.885
		c0.111-0.047,0.218-0.108,0.333-0.144C69.969,146.637,70.097,146.735,70.086,147.241z"/>
	<path style="fill:#BCB6B4;" d="M103.411,108.608c0.947-0.371,1.842-0.731,2.744-1.071c0.319-0.12,0.411-0.016,0.349,0.38
		c-0.213,1.358-0.539,2.687-1.058,3.964c-0.187,0.461-0.358,0.93-0.682,1.457C104.539,111.648,104.123,110.128,103.411,108.608z"/>
	<path style="fill:#BCB6B4;" d="M46.939,102.386c0.024,0.221,0.001,0.434-0.045,0.654c-0.196,0.941,0.072,1.775,0.604,2.552
		c0.124,0.181,0.278,0.207,0.455,0.236c-1.446,0.4-2.893,0.799-4.347,1.201c-0.025-0.211,0.123-0.274,0.212-0.368
		c1.18-1.251,2.211-2.61,3.01-4.138C46.854,102.471,46.901,102.431,46.939,102.386z"/>
	<path style="fill:#BBB1AF;" d="M98.058,99.488c0-0.358,0-0.716,0-1.07c0.276-0.063,0.396,0.118,0.545,0.241
		c0.244,0.201,0.466,0.437,0.799,0.494c-0.061,0.234-0.243,0.299-0.452,0.31C98.653,99.478,98.355,99.48,98.058,99.488z"/>
	<path style="fill:#E2DFD6;" d="M75.413,83.189c-0.143,0.151-0.318,0.124-0.494,0.09C75.071,83.177,75.238,83.162,75.413,83.189z"/>
	<path style="fill:#BCB6B4;" d="M135.39,87.502c-0.086,0-0.172,0-0.299,0c0.139-0.111,0.209-0.02,0.289,0.01
		C135.38,87.512,135.39,87.502,135.39,87.502z"/>
</g>
</svg>
