<?xml version="1.0" encoding="utf-8"?>
<!-- Generator: Adobe Illuana_strator 24.1.0, SVG Export Plug-In . SVG Version: 6.00 Build 0)  -->
<svg version="1.1" id="Layer_1" xmlns="http://www.w3.org/2000/svg" xmlns:xlink="http://www.w3.org/1999/xlink" x="0px"
	y="0px" viewBox="0 0 200 200" ana_style="enable-background:new 0 0 200 200;" xml:space="preserve">
	<style type="text/css">
		.ana_st0 {
			fill: #DFDBD3;
		}

		.ana_st1 {
			fill: #250101;
		}

		.ana_st2 {
			fill: #FDFAFA;
		}

		.ana_st3 {
			fill: #7F0201;
		}

		.ana_st4 {
			fill: #BAB3B1;
		}

		.ana_st5 {
			fill: #E1DED5;
		}

		.ana_st6 {
			fill: #EB0C0A;
		}

		.ana_st7 {
			fill: #EB0D0B;
		}

		.ana_st8 {
			fill: #810201;
		}

		.ana_st9 {
			fill: #E2DFD6;
		}

		.ana_st10 {
			fill: #BBB5B3;
		}

		.ana_st11 {
			fill: #FDF8FC;
		}

		.ana_st12 {
			fill: #FBF6F6;
		}

		.ana_st13 {
			fill: #FAF4F9;
		}
	</style>
	<g>
		<path class="ana_st0" d="M62.75,144.39c-0.74-0.25-1.48-0.49-2.21-0.75c-1.64-0.57-3.19-1.34-4.69-2.2c-1.59-0.91-3.08-1.97-4.56-3.05
		c-0.6-0.44-1.15-0.94-1.72-1.42c-1.08-0.91-2.05-1.93-3.05-2.93c-1.25-1.25-2.4-2.6-3.52-3.97c-1.69-2.08-3.23-4.26-4.68-6.51
		c-1.2-1.86-2.36-3.74-3.36-5.72c-1-1.98-1.87-4.01-2.56-6.11c-0.46-1.4-0.71-2.84-0.95-4.28c-0.15-0.89-0.15-1.78-0.08-2.65
		c0.1-1.14,0.4-2.25,0.84-3.32c0.21-0.51,0.64-0.87,1-1.27c1.51-1.69,3.27-3.1,5.16-4.34c0.17-0.11,0.35-0.19,0.52-0.31
		c0.16-0.12,0.35-0.18,0.5-0.39c-0.74-0.15-1.45-0.27-2.16-0.43c-1.61-0.37-3.21-0.77-4.69-1.52c-2.06-1.05-3.68-2.54-4.82-4.59
		c-0.7-1.26-1.05-2.6-1.33-3.98c-0.16-0.79-0.23-1.59-0.22-2.39c0.01-0.84,0.09-1.69,0.26-2.51c0.21-1.06,0.43-2.13,0.82-3.14
		c0.81-2.12,1.86-4.1,3.25-5.9c0.8-1.04,1.59-2.07,2.53-2.99c0.81-0.78,1.64-1.54,2.53-2.23c0.68-0.53,1.39-1.03,2.1-1.51
		c1.58-1.06,3.27-1.9,5.09-2.47c1.61-0.51,3.25-0.91,4.92-1.15c0.85-0.13,1.69-0.32,2.55-0.44c0.85-0.12,1.72-0.16,2.57-0.28
		c1.31-0.19,2.64-0.15,3.95-0.34c0.16-0.02,0.32-0.01,0.48-0.01c1.67,0,3.35,0,5.02-0.01c0.55,0,0.56,0,0.72-0.52
		c0.31-1.04,0.78-2.03,1.16-3.04c1.09-2.9,2.39-5.71,3.75-8.5c1.35-2.77,2.85-5.46,4.62-7.98c0.91-1.3,1.9-2.54,2.99-3.7
		c1.08-1.15,2.23-2.2,3.51-3.11c1.76-1.25,3.67-2.14,5.81-2.55c0.89-0.17,1.79-0.28,2.69-0.24c0.37,0.02,0.71-0.16,1.08-0.12
		c1.06,0.11,2.11,0.16,3.17,0.32c1.59,0.23,3.15,0.61,4.7,1.02c1.56,0.41,3.07,0.96,4.53,1.64c1.33,0.62,2.64,1.31,3.86,2.12
		c0.55,0.37,1.08,0.77,1.6,1.18c0.18,0.14,0.32,0.22,0.58,0.16c2.35-0.57,4.75-0.59,7.14-0.49c1.61,0.07,3.19,0.43,4.66,1.12
		c1.26,0.6,2.34,1.46,3.25,2.54c0.87,1.03,1.55,2.15,2.16,3.33c0.3,0.59,0.58,1.19,0.77,1.83c0.14,0.47,0.16,0.46,0.62,0.37
		c2.56-0.49,5.11-1,7.68-1.46c1.62-0.29,3.24-0.56,4.86-0.85c2.05-0.36,4.11-0.67,6.17-1c1.36-0.22,2.72-0.52,4.09-0.68
		c1.24-0.15,2.45-0.4,3.69-0.53c0.99-0.11,1.98-0.33,2.97-0.44c1.1-0.12,2.18-0.32,3.28-0.41c0.8-0.06,1.59-0.22,2.38-0.32
		c0.44-0.05,0.88-0.1,1.32-0.14c1.42-0.13,2.83-0.29,4.25-0.4c1.5-0.11,2.99-0.28,4.48-0.48c1.07-0.15,2.14-0.3,3.22-0.43
		c1.09-0.14,2.19-0.28,3.28-0.41c1.03-0.13,2.06-0.3,3.09-0.48c2.16-0.37,4.29-0.84,6.42-1.34c2.52-0.59,5.03-1.26,7.5-2.04
		c1.25-0.39,2.5-0.76,3.73-1.21c0.28-0.1,0.59-0.23,0.87-0.2c1.15,0.09,1.32,1.18,0.87,1.8c-0.77,1.06-1.57,2.09-2.38,3.11
		c-0.68,0.87-1.37,1.73-2.1,2.56c-0.57,0.65-1.12,1.31-1.7,1.96c-1.86,2.07-3.83,4.04-5.85,5.95c-1.18,1.11-2.4,2.19-3.65,3.24
		c-1.28,1.07-2.59,2.1-3.9,3.12c-1.29,1-2.63,1.92-3.98,2.83c-0.73,0.5-1.48,0.97-2.21,1.46c-1.37,0.92-2.8,1.75-4.25,2.54
		c-1.93,1.05-3.87,2.09-5.85,3.03c-2.38,1.13-4.8,2.17-7.27,3.09c-1.6,0.6-3.24,1.1-4.86,1.64c-1.26,0.42-2.55,0.73-3.84,1.01
		c-0.1,0.02-0.2,0.03-0.28,0.18c0.24,0.15,0.47,0.32,0.73,0.46c1.2,0.63,2.38,1.28,3.6,1.85c1.04,0.49,2.07,1,3.08,1.53
		c3.24,1.67,6.53,3.27,9.78,4.92c1.92,0.97,3.91,1.79,5.91,2.61c1.86,0.77,3.74,1.49,5.67,2.06c1.86,0.55,3.71,1.16,5.63,1.56
		c1.45,0.3,2.88,0.71,4.35,0.97c1.12,0.2,2.25,0.4,3.38,0.56c1.21,0.17,2.43,0.27,3.64,0.41c0.76,0.09,1.53-0.02,2.28,0.19
		c0.46,0.13,0.74,0.39,0.85,0.84c0.1,0.42-0.01,0.79-0.32,1.09c-0.09,0.08-0.17,0.18-0.27,0.23c-1.5,0.86-2.96,1.8-4.48,2.63
		c-1.42,0.77-2.85,1.5-4.31,2.18c-1.4,0.66-2.84,1.24-4.28,1.8c-2.22,0.86-4.48,1.56-6.78,2.15c-1.45,0.37-2.92,0.73-4.41,0.96
		c-0.83,0.13-1.65,0.33-2.49,0.42c-0.84,0.09-1.67,0.23-2.51,0.31c-0.64,0.07-1.29,0.03-1.91,0.2c-0.06,0.02-0.12,0.02-0.18,0.02
		c-1.87,0.15-3.75,0.2-5.62,0.1c-1.52-0.08-3.04-0.23-4.55-0.42c-2.01-0.24-4-0.62-5.98-1.02c-2.11-0.42-4.18-0.97-6.26-1.52
		c-1.73-0.46-3.41-1.07-5.13-1.56c-0.17-0.05-0.34-0.12-0.51-0.19c-0.56-0.23-1.15-0.31-1.75-0.39c-1.1-0.15-2.21-0.05-3.31-0.17
		c-1.03-0.12-2.07-0.22-3.12-0.29c-0.74-0.05-1.47-0.18-2.2-0.28c-0.97-0.14-1.94-0.27-2.91-0.43c-0.95-0.16-1.89-0.35-2.84-0.51
		c-2.22-0.38-4.39-0.98-6.56-1.54c-1.05-0.27-2.09-0.6-3.11-0.98c-0.36-0.13-0.74-0.21-1.08-0.37c-0.24-0.11-0.37,0-0.54,0.11
		c-0.19,0.12-0.21,0.31-0.15,0.48c0.24,0.64,0.49,1.28,0.76,1.91c0.1,0.23,0.32,0.18,0.53,0.15c0.93-0.15,1.74,0.07,2.41,0.78
		c0.4,0.43,0.45,0.97,0.52,1.5c0.03,0.26,0,0.52,0.01,0.79c0.02,0.41,0.09,0.48,0.51,0.49c0.44,0.01,0.89,0.01,1.33-0.01
		c1.75-0.08,3.44,0.21,5.12,0.65c1.98,0.52,3.75,1.43,5.27,2.81c1.43,1.3,2.58,2.81,3.3,4.61c0.13,0.32,0.29,0.61,0.36,0.96
		c0.13,0.62-0.17,1.21-0.78,1.35c-0.84,0.19-1.68,0.4-2.55,0.39c-0.32,0-0.64-0.02-0.96,0.09c-0.17,0.06-0.36,0.04-0.54-0.01
		c-0.15-0.05-0.35-0.15-0.45-0.01c-0.15,0.19,0.1,0.32,0.18,0.46c0.26,0.43,0.56,0.83,0.83,1.26c0.2,0.32,0.36,0.68,0.55,1.01
		c0.58,1,1.35,1.83,2.2,2.61c1.69,1.56,3.56,2.88,5.46,4.17c0.33,0.22,0.63,0.27,1.02,0.18c1.4-0.34,2.81-0.68,4.22-0.97
		c1.81-0.37,3.62-0.7,5.43-1.03c1.28-0.24,2.56-0.48,3.84-0.69c1.23-0.2,2.46-0.35,3.69-0.52c0.75-0.11,1.5-0.23,2.26-0.33
		c0.18-0.03,0.36-0.01,0.54-0.03c0.5-0.06,0.97,0.18,1.12,0.71c0.17,0.57,0.01,1.05-0.5,1.36c-0.51,0.32-1.04,0.62-1.57,0.9
		c-1.52,0.82-3.01,1.7-4.52,2.55c-1.72,0.97-3.42,1.96-5.1,2.99c-1.74,1.05-3.46,2.13-5.19,3.2c-1.66,1.02-3.27,2.13-4.87,3.24
		c-1.45,1.01-2.89,2.04-4.33,3.06c-1.97,1.4-3.91,2.83-5.85,4.26c-1.34,0.99-2.66,2.01-3.98,3.02c-1.3,0.98-2.56,2.01-3.87,2.98
		c-1.18,0.87-2.28,1.84-3.42,2.77c-1.09,0.89-2.18,1.77-3.26,2.68c-0.41,0.35-0.78,0.76-1.17,1.14c-0.12,0.12-0.15,0.28-0.21,0.43
		c-0.38,0.98-0.55,2-0.71,3.04c-0.14,0.93-0.16,1.88-0.33,2.8c-0.04,0.23,0,0.48-0.02,0.72c-0.01,0.24,0.09,0.34,0.33,0.41
		c1.3,0.34,2.6,0.71,3.89,1.07c1.78,0.49,3.56,1.01,5.35,1.46c1.77,0.45,3.51,1,5.28,1.45c2.18,0.56,4.34,1.19,6.5,1.81
		c1.41,0.4,2.83,0.75,4.24,1.16c2.2,0.64,4.42,1.21,6.62,1.82c2.9,0.8,5.81,1.61,8.71,2.41c1.99,0.55,3.99,1.08,5.99,1.63
		c1.14,0.31,2.28,0.64,3.42,0.95c0.5,0.14,1.01,0.26,1.52,0.39c0.47,0.12,0.75,0.4,0.85,0.9c0.1,0.46-0.08,0.77-0.38,1.07
		c-0.16,0.15-0.33,0.19-0.55,0.21c-0.61,0.05-1.2-0.1-1.8-0.16c-0.88-0.09-1.75-0.22-2.62-0.33c-0.68-0.09-1.35-0.19-2.02-0.28
		c-0.81-0.11-1.63-0.22-2.44-0.32c-0.76-0.1-1.51-0.18-2.27-0.28c-0.81-0.1-1.63-0.22-2.44-0.32c-0.79-0.11-1.59-0.21-2.38-0.32
		c-0.76-0.1-1.51-0.2-2.27-0.29c-0.76-0.1-1.51-0.19-2.27-0.29c-0.83-0.11-1.67-0.21-2.5-0.32c-0.74-0.09-1.47-0.19-2.21-0.29
		c-0.81-0.11-1.63-0.21-2.44-0.32c-0.72-0.09-1.43-0.19-2.15-0.28c-0.85-0.11-1.7-0.26-2.56-0.33c-0.74-0.06-1.47-0.19-2.2-0.29
		c-0.73-0.1-1.47-0.22-2.2-0.3c-0.84-0.1-1.67-0.2-2.5-0.33c-0.79-0.12-1.59-0.19-2.39-0.28c-0.74-0.09-1.47-0.19-2.21-0.29
		c-0.79-0.1-1.59-0.21-2.38-0.32c-0.75-0.1-1.51-0.21-2.26-0.3c-0.79-0.1-1.59-0.2-2.39-0.3c-0.77-0.1-1.55-0.2-2.32-0.3
		c-0.73-0.1-1.47-0.21-2.2-0.3c-0.32-0.04-0.61,0.01-0.92,0.2c-1.48,0.9-2.99,1.75-4.55,2.51c-2.35,1.15-4.79,2.1-7.33,2.78
		c-2.01,0.54-4.06,0.95-6.12,1.27c-1.96,0.3-3.93,0.36-5.9,0.24c-1.09-0.07-2.21-0.27-3.03-1.14c-0.14-0.15-0.31-0.19-0.5-0.15
		c-1.16,0.23-2.33,0.13-3.5,0.09c-0.91-0.04-1.83-0.22-2.67-0.65c-0.6-0.31-1.14-0.69-1.53-1.24c-0.13-0.19-0.28-0.25-0.5-0.27
		c-1.15-0.08-2.28-0.32-3.33-0.78c-0.95-0.41-1.65-1.14-1.98-2.16c-0.06-0.2-0.14-0.28-0.35-0.34c-1.19-0.35-2.28-0.9-3.27-1.66
		c-0.86-0.66-1.39-1.53-1.62-2.6c-0.31-1.41,0.08-2.7,0.62-3.97c0.05-0.11,0.11-0.22,0.16-0.33c0.1-0.21,0.07-0.35-0.2-0.37
		c-1.1-0.12-2.19-0.24-3.29-0.37c-0.68-0.08-1.35-0.17-2.03-0.26c-0.83-0.11-1.67-0.22-2.5-0.34c-0.99-0.14-1.98-0.29-2.97-0.43
		c-0.97-0.14-1.94-0.28-2.92-0.41c-0.93-0.13-1.87-0.26-2.8-0.4c-1.15-0.18-2.29-0.37-3.44-0.57c-1.36-0.23-2.72-0.47-4.09-0.69
		c-2.2-0.35-4.37-0.84-6.55-1.26c-1.02-0.19-2.03-0.5-3.05-0.71c-2.09-0.43-4.13-1.04-6.15-1.71c-1.09-0.36-2.14-0.85-3.11-1.46
		c-1.16-0.73-2.04-1.75-2.83-2.85c-1.4-1.97-2.69-4.01-3.82-6.15c-0.7-1.32-1.37-2.65-2.02-3.99c-0.65-1.34-1.21-2.72-1.8-4.09
		c-0.62-1.44-1.23-2.88-1.82-4.34c-0.4-0.99-0.83-1.97-0.95-3.04c-0.1-0.89,0.17-1.7,0.62-2.47c0.47-0.8,1.22-1.2,2.05-1.49
		c0.94-0.33,1.88-0.26,2.84-0.06c1.91,0.41,3.79,0.9,5.67,1.39c1.63,0.42,3.25,0.91,4.87,1.36c0.39,0.11,0.79,0.16,1.17,0.29
		c1.27,0.42,2.21,1.26,2.98,2.34c0.72,1.02,1.16,2.16,1.55,3.32c0.41,1.22,0.74,2.47,0.95,3.73c0.18,1.07,0.37,2.13,0.63,3.18
		c0.56,2.23,1.32,4.39,2.36,6.44c0.15,0.29,0.36,0.54,0.47,0.84c0.25,0.72,0.78,0.91,1.47,0.99c1.15,0.14,2.29,0.41,3.44,0.55
		c1.45,0.17,2.89,0.46,4.34,0.66c1.37,0.18,2.73,0.45,4.09,0.67c1.15,0.18,2.3,0.35,3.45,0.53c1.44,0.23,2.88,0.48,4.33,0.69
		c1.11,0.16,2.22,0.32,3.33,0.51c1.72,0.3,3.45,0.52,5.16,0.81c1.1,0.19,2.22,0.33,3.33,0.52c0.43,0.08,0.87,0.17,1.3,0.22
		c0.58,0.07,0.7,0.04,0.86-0.47c0.27-0.82,0.67-1.59,1.18-2.3C62.58,144.79,62.75,144.65,62.75,144.39z M122.4,119.42
		c0.65-0.04,2.11-0.48,2.35-0.75c-0.41,0-0.78,0.06-1.12-0.02c-0.33-0.07-0.54,0.02-0.75,0.23
		C122.7,119.06,122.5,119.2,122.4,119.42c-0.02,0-0.03,0.01-0.04,0.02c-0.01,0.01-0.01,0.02-0.01,0.03
		C122.36,119.46,122.38,119.44,122.4,119.42z M153.88,114.11c-0.08-0.1-0.17-0.07-0.27-0.05c-1.44,0.19-2.88,0.36-4.31,0.57
		c-4.08,0.61-8.14,1.36-12.18,2.25c-5.55,1.22-11.05,2.6-16.46,4.35c-0.12,0.04-0.24,0.15-0.39,0.08c-0.07-0.1-0.03-0.2,0-0.29
		c0.33-1.23,1.01-2.22,2-3.02c0.48-0.39,0.97-0.63,1.6-0.42c0.13,0.04,0.28,0.03,0.42,0.04c2.27,0.21,4.55,0.19,6.82-0.02
		c0.49-0.04,0.99-0.06,1.48-0.21c-0.11-0.23-0.32-0.3-0.48-0.41c-1.93-1.29-3.81-2.64-5.5-4.24c-0.78-0.73-1.55-1.49-2.05-2.44
		c-0.94-1.8-2.13-3.42-3.51-4.89c0-0.08,0.01-0.15,0.01-0.23c2.31,0.68,4.63,0.62,6.98,0.12c-0.05-0.18-0.08-0.28-0.11-0.37
		c-1.39-3.45-3.8-5.84-7.34-7.05c-2.41-0.82-4.89-0.99-7.41-0.72c-0.77,0.08-0.82,0.04-0.95-0.74c-0.07-0.4-0.09-0.8-0.12-1.2
		c-0.02-0.18,0-0.36-0.03-0.54c-0.1-0.87-0.43-1.17-1.29-1.18c-0.46,0-0.93,0-1.39,0.05c-0.33,0.03-0.46-0.11-0.55-0.39
		c-0.36-1.07-0.74-2.13-1.27-3.13c-0.11-0.21-0.08-0.33,0.1-0.46c0.44-0.32,0.88-0.65,1.31-0.98c0.16-0.13,0.31-0.13,0.5-0.06
		c0.49,0.19,0.98,0.37,1.48,0.54c7.83,2.6,15.88,3.89,24.11,4.18c0.32,0.01,0.63,0.02,0.95,0.14c4.2,1.49,8.48,2.71,12.85,3.61
		c2.85,0.59,5.71,1.03,8.61,1.25c2.54,0.19,5.08,0.14,7.62-0.07c3.3-0.27,6.56-0.79,9.78-1.56c7.21-1.73,13.87-4.72,20.11-8.69
		c0.13-0.08,0.3-0.12,0.36-0.31c-0.13-0.08-0.27-0.06-0.41-0.07c-0.86-0.06-1.73-0.1-2.59-0.19c-3.07-0.32-6.11-0.86-9.12-1.53
		c-6.48-1.45-12.71-3.63-18.66-6.56c-3.58-1.76-7.14-3.56-10.71-5.36c-3.17-1.6-6.32-3.22-9.48-4.83c-0.05-0.03-0.1-0.06-0.09-0.16
		c1.45-0.26,2.91-0.57,4.34-0.94c8.46-2.2,16.34-5.77,23.76-10.33c10.3-6.33,18.95-14.47,26.16-24.16c0.09-0.12,0.24-0.22,0.21-0.46
		c-0.39,0.13-0.77,0.27-1.14,0.39c-6.72,2.2-13.55,3.92-20.56,4.88c-2.86,0.39-5.72,0.74-8.58,1.08c-1.42,0.17-2.85,0.27-4.27,0.41
		c-2.55,0.25-5.09,0.56-7.63,0.9c-2.94,0.39-5.87,0.81-8.8,1.28c-3.3,0.53-6.6,1.08-9.9,1.64c-4.25,0.72-8.5,1.48-12.72,2.35
		c-0.72,0.15-0.72,0.15-0.94-0.54c-0.66-2.01-1.58-3.88-2.96-5.5c-1-1.17-2.19-2.09-3.66-2.59c-1.19-0.41-2.41-0.66-3.67-0.72
		c-2.39-0.11-4.76-0.02-7.09,0.59c-0.29,0.08-0.49,0.02-0.71-0.17c-0.59-0.52-1.23-0.98-1.88-1.42c-2.73-1.81-5.71-3.05-8.88-3.86
		c-2.29-0.58-4.6-1.05-6.98-1.01c-1.74,0.02-3.46,0.14-5.12,0.74c-2.55,0.92-4.64,2.49-6.51,4.39c-2.2,2.25-3.98,4.82-5.55,7.53
		c-2.66,4.6-4.79,9.45-6.67,14.41c-0.25,0.66-0.48,1.32-0.74,1.98c-0.29,0.74-0.11,0.62-0.87,0.63c-0.2,0-0.4,0-0.61,0
		c-4.45-0.07-8.87,0.19-13.27,0.87c-2.07,0.32-4.15,0.68-6.12,1.4C36.82,64.88,32.35,69,29.3,74.7c-1.31,2.45-2.03,5.08-2,7.89
		c0.04,4.08,1.97,8.52,7.38,10.31c2.68,0.89,5.43,1.35,8.26,1.36c0.21,0,0.42,0,0.7,0c-0.2,0.21-0.38,0.26-0.54,0.33
		c-0.85,0.38-1.68,0.78-2.49,1.24c-2.65,1.5-5.09,3.27-7.04,5.65c-0.15,0.19-0.33,0.36-0.4,0.6c-0.17,0.54-0.36,1.07-0.5,1.61
		c-0.41,1.66-0.25,3.33,0.07,4.98c0.53,2.67,1.49,5.19,2.68,7.62c2.38,4.86,5.36,9.33,8.77,13.52c2.52,3.09,5.33,5.89,8.53,8.28
		c3.26,2.43,6.8,4.31,10.76,5.36c0.41,0.11,0.82,0.21,1.26,0.33c-0.31,0.4-0.61,0.75-0.88,1.13c-0.9,1.24-1.77,2.51-1.79,4.17
		c-0.89-0.14-1.74-0.27-2.59-0.41c-3.46-0.54-6.93-1.09-10.39-1.63c-3.72-0.58-7.45-1.16-11.17-1.74c-3.5-0.55-7-1.11-10.51-1.65
		c-1.49-0.23-1.5-0.21-2.24-1.54c-1.63-2.91-2.65-6.04-3.28-9.31c-0.31-1.6-0.59-3.21-1.08-4.77c-0.4-1.27-0.89-2.51-1.69-3.59
		c-0.7-0.94-1.61-1.57-2.76-1.83c-1.28-0.29-2.54-0.63-3.8-1c-2.4-0.7-4.82-1.31-7.26-1.86c-0.91-0.2-1.8-0.22-2.66,0.18
		c-0.78,0.36-1.27,0.96-1.45,1.81c-0.19,0.9,0.06,1.73,0.39,2.53c1.54,3.79,3.1,7.57,4.91,11.24c1.43,2.89,3.03,5.69,4.94,8.3
		c1.19,1.63,2.7,2.79,4.6,3.48c2.14,0.79,4.33,1.4,6.55,1.92c6.01,1.43,12.09,2.44,18.19,3.36c5.24,0.8,10.5,1.5,15.77,2.12
		c0.57,0.07,1.15,0.07,1.7,0.25c0.01,0.21-0.13,0.32-0.21,0.45c-0.44,0.68-0.82,1.39-1.09,2.15c-0.23,0.65-0.39,1.32-0.36,2.01
		c0.04,1.24,0.61,2.19,1.65,2.86c0.97,0.63,2,1.12,3.15,1.35c0.3,0.06,0.51,0.15,0.46,0.55c-0.06,0.51,0.21,0.93,0.57,1.28
		c0.38,0.38,0.85,0.61,1.35,0.78c0.94,0.32,1.91,0.48,2.91,0.5c0.31,0.01,0.52,0.05,0.64,0.39c0.17,0.47,0.56,0.78,0.98,1.04
		c0.38,0.23,0.8,0.38,1.23,0.5c0.92,0.25,1.87,0.28,2.82,0.27c0.93-0.01,1.85-0.08,2.77-0.23c0.13-0.02,0.37-0.13,0.39,0.12
		c0.07,0.65,0.57,0.84,1.07,1.01c0.63,0.21,1.3,0.28,1.97,0.3c1.84,0.07,3.66-0.09,5.48-0.36c2.94-0.44,5.82-1.11,8.61-2.14
		c3.08-1.13,5.97-2.63,8.76-4.34c0.32-0.2,0.61-0.3,1.01-0.24c1.29,0.2,2.6,0.35,3.9,0.52c2.66,0.34,5.32,0.68,7.98,1.03
		c2.94,0.38,5.88,0.77,8.82,1.15c2.98,0.39,5.96,0.77,8.94,1.15c2.96,0.38,5.92,0.77,8.88,1.16c2.96,0.38,5.92,0.77,8.88,1.15
		c2.26,0.29,4.52,0.58,6.78,0.86c0.33,0.07,0.66,0.13,1.04,0.13c-0.36-0.15-0.68-0.28-1.04-0.31c-0.15-0.05-0.31-0.1-0.46-0.15
		c-2.27-0.63-4.55-1.25-6.82-1.88c-12.12-3.33-24.25-6.66-36.37-10c-2.45-0.67-4.89-1.35-7.34-2.03c-0.46-0.13-0.46-0.13-0.42-0.61
		c0.06-0.84,0.1-1.69,0.18-2.53c0.12-1.33,0.31-2.64,0.6-3.94c0.26-1.11,0.72-2.09,1.68-2.78c0.18-0.13,0.33-0.29,0.5-0.43
		c4.24-3.61,8.64-7.02,13.09-10.37c5.04-3.8,10.15-7.5,15.44-10.96c5.42-3.54,11.03-6.76,16.7-9.9c0.18-0.1,0.43-0.13,0.53-0.36
		c0.03-0.01,0.06-0.03,0.09-0.04c-0.02-0.01-0.05-0.03-0.07-0.03C153.85,114.03,153.85,114.06,153.88,114.11z" />
		<path class="ana_st1" d="M121.05,105.4c1.38,1.48,2.57,3.09,3.51,4.89c0.5,0.96,1.27,1.71,2.05,2.44c1.69,1.59,3.57,2.95,5.5,4.24
		c0.16,0.11,0.37,0.17,0.48,0.41c-0.49,0.15-0.99,0.16-1.48,0.21c-2.27,0.2-4.55,0.22-6.82,0.02c-0.14-0.01-0.29,0-0.42-0.04
		c-0.63-0.21-1.12,0.03-1.6,0.42c-0.99,0.8-1.67,1.79-2,3.02c-0.03,0.1-0.07,0.19,0,0.29c0.15,0.07,0.27-0.04,0.39-0.08
		c5.41-1.75,10.91-3.12,16.46-4.35c4.03-0.89,8.09-1.63,12.18-2.25c1.43-0.22,2.88-0.38,4.31-0.57c0.1-0.01,0.2-0.05,0.27,0.05
		l-0.01-0.01c-0.1,0.23-0.34,0.26-0.53,0.36c-5.66,3.14-11.28,6.36-16.7,9.9c-5.29,3.46-10.4,7.16-15.44,10.96
		c-4.45,3.35-8.84,6.76-13.09,10.37c-0.17,0.14-0.33,0.3-0.5,0.43c-0.95,0.69-1.42,1.67-1.68,2.78c-0.3,1.3-0.49,2.61-0.6,3.94
		c-0.08,0.84-0.12,1.69-0.18,2.53c-0.03,0.48-0.04,0.48,0.42,0.61c2.45,0.68,4.89,1.35,7.34,2.03c12.12,3.33,24.25,6.66,36.37,10
		c2.27,0.62,4.55,1.25,6.82,1.88c0.16,0.04,0.31,0.1,0.46,0.15c0,0.06,0,0.12-0.01,0.18c-2.26-0.29-4.52-0.57-6.78-0.86
		c-2.96-0.38-5.92-0.77-8.88-1.15c-2.96-0.38-5.92-0.77-8.88-1.16c-2.98-0.39-5.96-0.77-8.94-1.15c-2.94-0.38-5.88-0.77-8.82-1.15
		c-2.66-0.35-5.32-0.68-7.98-1.03c-1.3-0.17-2.6-0.32-3.9-0.52c-0.4-0.06-0.69,0.04-1.01,0.24c-2.79,1.71-5.69,3.21-8.76,4.34
		c-2.79,1.03-5.67,1.7-8.61,2.14c-1.82,0.27-3.64,0.43-5.48,0.36c-0.67-0.03-1.33-0.09-1.97-0.3c-0.5-0.17-1-0.36-1.07-1.01
		c-0.03-0.25-0.26-0.14-0.39-0.12c-0.92,0.16-1.84,0.22-2.77,0.23c-0.95,0.01-1.9-0.02-2.82-0.27c-0.43-0.12-0.85-0.27-1.23-0.5
		c-0.42-0.26-0.81-0.57-0.98-1.04c-0.12-0.34-0.34-0.39-0.64-0.39c-0.99-0.02-1.97-0.18-2.91-0.5c-0.5-0.17-0.97-0.4-1.35-0.78
		c-0.36-0.35-0.62-0.77-0.57-1.28c0.04-0.4-0.16-0.49-0.46-0.55c-1.15-0.22-2.18-0.72-3.15-1.35c-1.04-0.67-1.61-1.62-1.65-2.86
		c-0.02-0.69,0.13-1.36,0.36-2.01c0.27-0.76,0.65-1.47,1.09-2.15c0.08-0.13,0.22-0.24,0.21-0.45c-0.55-0.17-1.13-0.18-1.7-0.25
		c-5.27-0.62-10.52-1.32-15.77-2.12c-6.1-0.93-12.18-1.94-18.19-3.36c-2.22-0.53-4.41-1.14-6.55-1.92c-1.9-0.7-3.41-1.85-4.6-3.48
		c-1.91-2.61-3.5-5.41-4.94-8.3c-1.82-3.67-3.37-7.45-4.91-11.24c-0.33-0.8-0.58-1.63-0.39-2.53c0.18-0.85,0.67-1.45,1.45-1.81
		c0.86-0.4,1.76-0.39,2.66-0.18c2.44,0.55,4.86,1.16,7.26,1.86c1.26,0.37,2.52,0.71,3.8,1c1.15,0.26,2.06,0.89,2.76,1.83
		c0.81,1.08,1.29,2.32,1.69,3.59c0.49,1.56,0.77,3.17,1.08,4.77c0.63,3.27,1.65,6.39,3.28,9.31c0.74,1.33,0.75,1.31,2.24,1.54
		c3.5,0.54,7.01,1.1,10.51,1.65c3.72,0.58,7.45,1.16,11.17,1.74c3.46,0.54,6.93,1.09,10.39,1.63c0.85,0.13,1.7,0.27,2.59,0.41
		c0.02-1.66,0.89-2.92,1.79-4.17c0.27-0.37,0.57-0.73,0.88-1.13c-0.45-0.12-0.86-0.22-1.26-0.33c-3.95-1.05-7.49-2.93-10.76-5.36
		c-3.21-2.39-6.01-5.19-8.53-8.28c-3.41-4.19-6.39-8.66-8.77-13.52c-1.19-2.43-2.15-4.95-2.68-7.62c-0.33-1.65-0.49-3.31-0.07-4.98
		c0.14-0.55,0.33-1.08,0.5-1.61c0.07-0.24,0.25-0.41,0.4-0.6c1.95-2.37,4.39-4.14,7.04-5.65c0.81-0.46,1.64-0.86,2.49-1.24
		c0.16-0.07,0.34-0.11,0.54-0.33c-0.29,0-0.5,0-0.7,0c-2.83-0.01-5.58-0.48-8.26-1.36c-5.41-1.79-7.34-6.23-7.38-10.31
		c-0.03-2.81,0.69-5.44,2-7.89c3.04-5.7,7.52-9.82,13.62-12.07c1.97-0.73,4.05-1.08,6.12-1.4c4.4-0.69,8.82-0.94,13.27-0.87
		c0.2,0,0.4,0,0.61,0c0.76-0.01,0.58,0.12,0.87-0.63c0.26-0.66,0.49-1.32,0.74-1.98c1.88-4.96,4.01-9.81,6.67-14.41
		c1.57-2.71,3.34-5.28,5.55-7.53c1.87-1.91,3.97-3.48,6.51-4.39c1.66-0.6,3.38-0.71,5.12-0.74c2.38-0.03,4.69,0.43,6.98,1.01
		c3.17,0.81,6.15,2.05,8.88,3.86c0.66,0.44,1.29,0.9,1.88,1.42c0.22,0.19,0.42,0.25,0.71,0.17c2.33-0.61,4.7-0.7,7.09-0.59
		c1.25,0.06,2.48,0.31,3.67,0.72c1.47,0.5,2.66,1.42,3.66,2.59c1.38,1.62,2.3,3.49,2.96,5.5c0.23,0.7,0.23,0.69,0.94,0.54
		c4.22-0.87,8.47-1.64,12.72-2.35c3.3-0.56,6.6-1.11,9.9-1.64c2.93-0.47,5.86-0.89,8.8-1.28c2.54-0.33,5.08-0.65,7.63-0.9
		c1.42-0.14,2.85-0.24,4.27-0.41c2.86-0.34,5.73-0.69,8.58-1.08c7.01-0.96,13.84-2.67,20.56-4.88c0.38-0.12,0.75-0.26,1.14-0.39
		c0.03,0.25-0.12,0.34-0.21,0.46c-7.21,9.68-15.86,17.83-26.16,24.16c-7.42,4.56-15.3,8.13-23.76,10.33
		c-1.44,0.37-2.89,0.68-4.34,0.94c-0.01,0.1,0.04,0.14,0.09,0.16c3.16,1.61,6.31,3.23,9.48,4.83c3.56,1.8,7.12,3.6,10.71,5.36
		c5.96,2.93,12.18,5.1,18.66,6.56c3.01,0.68,6.05,1.21,9.12,1.53c0.86,0.09,1.73,0.13,2.59,0.19c0.14,0.01,0.28,0,0.41,0.07
		c-0.06,0.19-0.23,0.23-0.36,0.31c-6.24,3.97-12.9,6.95-20.11,8.69c-3.22,0.77-6.48,1.29-9.78,1.56c-2.54,0.21-5.08,0.27-7.62,0.07
		c-2.9-0.22-5.77-0.66-8.61-1.25c-4.37-0.9-8.65-2.12-12.85-3.61c-0.32-0.11-0.63-0.12-0.95-0.14c-8.23-0.29-16.28-1.58-24.11-4.18
		c-0.5-0.16-0.99-0.35-1.48-0.54c-0.19-0.07-0.34-0.07-0.5,0.06c-0.43,0.33-0.87,0.66-1.31,0.98c-0.17,0.13-0.21,0.25-0.1,0.46
		c0.53,1,0.9,2.07,1.27,3.13c0.1,0.29,0.23,0.42,0.55,0.39c0.46-0.04,0.93-0.05,1.39-0.05c0.86,0,1.2,0.31,1.29,1.18
		c0.02,0.18,0.01,0.36,0.03,0.54c0.03,0.4,0.05,0.81,0.12,1.2c0.13,0.79,0.19,0.83,0.95,0.74c2.52-0.27,5-0.1,7.41,0.72
		c3.54,1.2,5.96,3.59,7.34,7.05c0.04,0.09,0.06,0.19,0.11,0.37c-2.35,0.51-4.67,0.57-6.98-0.12c-0.08-0.05-0.16-0.11-0.26-0.02
		c0.05-0.09,0-0.09-0.07-0.07c0.03,0.02,0.05,0.04,0.08,0.06C120.83,105.29,120.94,105.35,121.05,105.4z M47.81,128.02
		c-0.01-0.06-0.03-0.07-0.04-0.03C47.77,127.99,47.8,128,47.81,128.02c0.02,0.03,0.04,0.07,0.06,0.1c1.69,1.77,3.42,3.5,5.38,4.97
		c0.77,0.58,1.54,1.14,2.32,1.71c0.05,0.14,0.19,0.13,0.29,0.17c0.74,0.29,1.5,0.55,2.13,1.06c0.31,0.25,0.61,0.51,0.92,0.77
		c0.3,0.05,0.57,0.2,0.84,0.33c0.97,0.49,1.97,0.91,3.01,1.25c0.16,0.05,0.32,0.18,0.53,0.06c0.08-1.08,0.29-2.14,0.55-3.19
		c0.68-2.76,1.82-5.33,3.27-7.76c1.63-2.72,3.63-5.16,5.83-7.44c1.22-1.26,2.53-2.42,3.87-3.55c2.17-1.83,4.48-3.49,6.89-4.98
		c0.17-0.1,0.4-0.17,0.48-0.42c-0.52-0.11-1,0.05-1.46,0.13c-2.14,0.37-4.25,0.88-6.31,1.57c-1.82,0.61-3.58,1.35-5.3,2.19
		c-1.5,0.73-2.94,1.59-4.32,2.53c-0.46,0.31-0.99,0.54-1.32,1.02c-0.36,0.1-0.58,0.45-0.95,0.53c-0.02-0.27,0.2-0.38,0.35-0.54
		c1.16-1.18,2.42-2.24,3.73-3.25c3.57-2.75,7.52-4.81,11.78-6.29c1.98-0.68,4-1.21,6.05-1.65c1.96-0.43,3.95-0.71,5.94-0.97
		c1.42-0.18,2.82-0.41,4.21-0.73c1.33-0.31,2.4-1.03,3.28-2.03c0.37-0.42,0.77-0.83,1.15-1.24c0.27-0.29,0.52-0.59,0.76-0.98
		c-0.84,0.03-1.6,0.04-2.36,0.09c-1.42,0.09-2.86,0.05-4.29,0.12c-1.24,0.06-2.49,0.15-3.74,0.18c-0.64,0.02-1.29,0.03-1.92,0.11
		c-1.3,0.17-2.6,0.18-3.9,0.32c-1.22,0.13-2.45,0.16-3.67,0.28c-0.46,0.05-0.92,0.06-1.38,0.13c-1.07,0.17-2.16,0.2-3.23,0.33
		c-0.9,0.11-1.8,0.17-2.7,0.27c-1.26,0.14-2.51,0.32-3.77,0.45c-1.16,0.12-2.31,0.3-3.47,0.4c-1.08,0.1-2.14,0.3-3.22,0.44
		c-1.35,0.18-2.71,0.33-4.06,0.52c-1.79,0.26-3.57,0.54-5.35,0.81c-1.88,0.29-3.77,0.56-5.65,0.88c-2.14,0.37-4.26,0.78-6.39,1.2
		c-0.63,0.12-1.26,0.27-1.86,0.49c-1.32,0.48-1.87,1.52-1.8,2.64c0.04,0.62,0.24,1.22,0.5,1.79c0.75,1.62,1.97,2.82,3.42,3.82
		c2.57,1.78,5.28,3.32,8.04,4.8c0.54,0.29,1.07,0.59,1.6,0.89c-2.83-0.05-5.39-1.02-7.91-2.08c-0.12,0.15-0.03,0.23,0,0.32
		c0.52,1.22,1.28,2.28,2.2,3.23c1.35,1.39,2.91,2.54,4.55,3.56c1.34,0.83,2.73,1.56,4.15,2.24c0.31,0.15,0.61,0.31,0.97,0.32
		c0.12,0.09,0.21,0.21,0.28,0.34c-0.13,0.18-0.33,0.15-0.5,0.12c-0.32-0.06-0.64-0.08-0.95-0.13c-2.11-0.36-4.16-0.92-6.14-1.74
		C48.75,128.36,48.34,128.03,47.81,128.02z M59.03,63.93c-1.27,0.06-2.53,0.15-3.8,0.29c-3.15,0.33-6.26,0.89-9.28,1.86
		c-3.03,0.97-5.89,2.3-8.39,4.3c-2.84,2.26-4.86,5.08-5.79,8.62c-0.24,0.91-0.48,1.84-0.39,2.8c0.12,1.21,0.43,2.38,0.96,3.47
		c0.69,1.45,1.66,2.66,3.09,3.45c0.28,0.27,0.64,0.37,0.99,0.51c0.94,0.35,1.89,0.68,2.89,0.81c1.68,0.22,3.34,0.06,5-0.18
		c2.58-0.38,5.08-1.06,7.56-1.87c3.66-1.2,7.22-2.67,10.72-4.28c6.01-2.77,11.83-5.91,17.55-9.22c1.76-1.02,3.53-2.03,5.39-2.86
		c3.79-1.69,7.72-2.92,11.79-3.7c2.55-0.49,5.13-0.82,7.73-0.93c0.88-0.04,1.76-0.06,2.63-0.31c1.86-0.54,3.77-0.85,5.7-1.02
		c0.89-0.08,1.77-0.07,2.66-0.13c2.28-0.14,4.55-0.01,6.82,0.11c0.88,0.05,1.76,0.22,2.65,0.17c1.5,0.24,3,0.47,4.5,0.71
		c0.21,0.06,0.42,0.16,0.7,0.11c-0.25-0.19-0.47-0.27-0.71-0.3c-2.26-0.87-4.56-1.59-6.9-2.22c-1.97-0.53-3.94-1.05-5.96-1.3
		c-3.3-0.41-6.6-0.32-9.91-0.1c-2.74,0.19-5.46,0.51-8.17,0.92c-2.15,0.33-4.31,0.64-6.42,1.17c-3.16,0.78-6.18,1.96-9.15,3.26
		c-6.47,2.84-12.66,6.22-18.68,9.89c-4.24,2.58-8.75,4.56-13.46,6.08c-2.09,0.68-4.23,1.22-6.43,1.35
		c-3.03,0.19-5.99-0.21-8.86-1.23c0.85-0.14,1.71-0.27,2.56-0.42c4.03-0.69,7.85-1.98,11.37-4.08c1.46-0.87,2.83-1.86,4-3.11
		c0.28-0.3,0.55-0.59,0.69-0.98c0.21-0.59,0.4-1.18,0.48-1.81c0.18-1.27-0.41-2.34-1.6-2.82c-1.05-0.42-2.14-0.53-3.26-0.33
		c-1.35,0.24-2.57,0.81-3.74,1.49c-1.82,1.06-3.47,2.35-5.02,3.77c-0.38,0.35-0.76,0.69-1.2,1.08c-0.05-0.33-0.02-0.57,0.02-0.8
		c0.19-1.23,0.74-2.29,1.51-3.25c1.26-1.57,2.87-2.7,4.6-3.69c3.1-1.78,6.43-2.98,9.83-4.01c1.61-0.48,3.24-0.9,4.88-1.33
		c-0.16,0-0.32,0-0.48,0C60.15,63.87,59.59,63.82,59.03,63.93z M97.34,36.64L97.34,36.64c-0.05-0.21-0.27-0.26-0.43-0.36
		c-3.38-2.06-9.39-3.1-14.29,0.62c-2.05,1.56-3.86,3.36-5.39,5.43c-1.96,2.64-3.63,5.46-5.23,8.33c-1.37,2.46-2.68,4.95-3.73,7.58
		c-0.17,0.43-0.31,0.87-0.45,1.31c-0.06,0.18-0.08,0.36,0.16,0.45c0.76,0.3,1.48,0.71,2.27,0.96c0.05,0.03,0.1,0.08,0.15,0.1
		c2.69,0.98,5.41,1.88,8.22,2.44c1.15,0.23,2.3,0.34,3.48,0.17c1.3-0.2,2.56-0.53,3.81-0.93c3.25-1.02,6.47-2.12,9.78-2.93
		c0.92-0.23,1.65-0.76,2.23-1.48c1.52-1.9,2.13-4.1,1.92-6.5c-0.13-1.54-0.71-2.89-2.13-3.74c-0.05-0.03-0.07-0.08-0.1-0.12
		c0.06-0.11,0.15-0.14,0.25-0.19c1.69-0.76,3.43-1.41,5.25-1.8c0.71-0.15,1.43-0.24,2.14-0.4c1.15-0.26,2.17-0.85,3.19-1.42
		c1.06-0.59,2.15-1.13,3.37-1.27c1.77-0.2,2.82,0.04,3.96,1.77c0.11,0.17,0.21,0.35,0.3,0.53c0.43,0.83,0.74,1.7,0.99,2.59
		c0.67,2.46,0.94,4.98,1.08,7.52c0.06,1.17,0.16,2.33,0.1,3.5c-0.02,0.36,0.14,0.5,0.46,0.57c0.73,0.17,1.45,0.37,2.17,0.54
		c0.12,0.03,0.26,0.14,0.42,0c0.25-1.51,0.3-3.06,0.33-4.61c0.04-2.02-0.1-4.03-0.45-6.02c-0.32-1.79-0.81-3.54-1.7-5.14
		c-0.92-1.65-2.17-2.95-3.95-3.67c-1.39-0.57-2.86-0.69-4.32-0.76c-2.91-0.14-5.74,0.39-8.56,1.01c-2.79,0.62-5.57,1.32-8.43,1.55
		c-2.64,0.22-5.23,0.01-7.78-0.72c-0.12-0.03-0.27-0.03-0.34-0.23c0.93-0.11,1.83-0.19,2.72-0.31c2.28-0.31,4.53-0.77,6.69-1.58
		c1-0.38,1.97-0.84,2.84-1.47c0.34-0.25,0.35-0.29,0.04-0.59c-0.19-0.18-0.41-0.32-0.61-0.49C97.63,36.78,97.57,36.57,97.34,36.64z
		 M128.56,124.23c-0.63,0.14-1.23,0.38-1.84,0.6c-11.08,3.85-21.91,8.3-32.57,13.18c-1.13,0.52-2.29,0.99-3.37,1.61
		c-0.03,0.02-0.07,0.03-0.1,0.05c0,0,0.01,0.02,0.01,0.02c0.06,0,0.11-0.01,0.07-0.09c0.17,0.12,0.35,0.04,0.53,0.03
		c1.43-0.1,2.86-0.08,4.28,0.1c2.91,0.38,5.58,1.36,7.94,3.14c0.12,0.09,0.21,0.25,0.4,0.22c1.62-2.07,3.09-3.6,5.36-5.56
		c4.34-3.76,9.06-6.98,13.94-9.98c1.77-1.09,3.56-2.12,5.35-3.18c0.19-0.05,0.36-0.13,0.49-0.33
		C128.87,124.1,128.69,124.1,128.56,124.23z M68.86,152.57c-0.24,0.04-0.37,0.24-0.52,0.39c-0.72,0.71-1.42,1.43-2.15,2.12
		c-0.48,0.46-0.96,0.92-1.52,1.29c-0.77,0.51-0.95,0.46-1.33-0.39c-0.1-0.22-0.21-0.26-0.41-0.24c-0.71,0.1-1.56,0.86-1.65,1.59
		c-0.15,1.17,0.03,2.3,0.63,3.32c0.38,0.65,0.79,0.78,1.54,0.59c0.35-0.09,0.7-0.19,1.03-0.33c0.54-0.22,1.09-0.43,1.63-0.64
		c0.09-0.04,0.21-0.09,0.28-0.01c0.11,0.13-0.03,0.22-0.1,0.3c-0.24,0.25-0.48,0.49-0.73,0.73c-0.19,0.19-0.32,0.41-0.45,0.64
		c-0.27,0.47-0.17,0.88,0.16,1.27c0.81,0.96,1.87,1.43,3.09,1.6c0.29,0.04,0.6,0.04,0.9-0.05c0.44-0.14,0.89-0.26,1.33-0.41
		c1.31-0.44,2.6-0.96,3.96-1.27c0.24-0.06,0.48-0.09,0.72-0.05c0.28,0.04,0.35,0.26,0.19,0.49c-0.16,0.22-0.39,0.34-0.62,0.47
		c-1.12,0.61-2.31,1.03-3.52,1.43c-0.14,0.05-0.29,0.06-0.4,0.25c2.98,0.47,5.92,0.94,8.96,0.5c-0.22,0.46-0.5,0.8-0.45,1.25
		c0.02,0.23,0.11,0.36,0.33,0.45c0.37,0.15,0.76,0.15,1.13,0.09c1.13-0.17,2.26-0.33,3.38-0.58c2.91-0.65,5.78-1.41,8.54-2.55
		c0.42-0.17,0.88-0.28,1.19-0.67c0.36-0.12,0.73-0.24,1.09-0.36c1.18-0.37,2.31-0.82,3.37-1.46c0.41-0.25,0.8-0.54,1.08-0.95
		c0.13-0.19,0.11-0.33-0.11-0.43c-0.13-0.06-0.25-0.13-0.38-0.19c-2.29-1.15-4.67-2.09-7.08-2.94c-4.92-1.74-9.96-3.07-15.07-4.09
		c-2.49-0.5-4.98-0.94-7.49-1.27C69.18,152.4,68.98,152.31,68.86,152.57z M149.39,58.18c0.04,0,0.08,0.02,0.12,0
		c1.62-0.68,3.22-1.39,4.72-2.31c0.38-0.12,0.66-0.42,1.02-0.57c0.03,0.04,0.07,0.08,0.1,0.12c-0.07,0.12-0.12,0.25-0.2,0.37
		c-1.02,1.57-2.25,2.96-3.61,4.25c-0.36,0.34-0.78,0.63-1.08,1.03c-0.07,0-0.15,0.06-0.14,0.08c0.06,0.08,0.14,0.06,0.19-0.03
		c0.19,0,0.35-0.09,0.52-0.16c4.25-1.65,8.4-3.51,12.45-5.61c4.5-2.33,8.89-4.85,12.99-7.84c1.62-1.18,3.18-2.42,4.63-3.8
		c0.15-0.15,0.38-0.27,0.41-0.53c-0.22-0.06-0.36,0.05-0.51,0.1c-0.77,0.24-1.53,0.51-2.3,0.73c-5.78,1.62-11.7,2.46-17.66,3.14
		c-0.94,0.11-1.88,0.15-2.81,0.33c-0.37,0.03-0.74,0-1.09,0.1c-0.17-0.03-0.32,0.01-0.48,0.06c-0.08-0.03-0.16-0.03-0.24,0.01
		c-0.22,0.01-0.44,0.01-0.66,0.03c-2.03,0.18-4.05,0.37-6.08,0.55c-3.11,0.28-6.21,0.63-9.3,1.02c-3.41,0.43-6.82,0.93-10.21,1.55
		c-1.35,0.25-2.69,0.52-4.03,0.78c-0.2,0.04-0.39,0.06-0.34,0.37c0.16,0.91,0.3,1.82,0.44,2.73c0,0.1,0,0.2,0.01,0.3
		c0.21,1.88,0.37,3.76,0.48,5.64c0.03,0.5,0.02,0.5,0.5,0.66c1.6,0.54,3.19,1.11,4.74,1.77c0.47,0.2,0.87,0.22,1.32,0.05
		c0.12,0.03,0.24-0.01,0.35-0.03c3.16-0.71,6.28-1.56,9.37-2.53c1.63-0.51,3.25-1.02,4.82-1.7c0.5-0.2,1.04-0.3,1.47-0.66l0.05,0
		C149.35,58.2,149.39,58.18,149.39,58.18z M143.46,84.19c0.06,0.09,0.16,0.12,0.25,0.15c0.94,0.37,1.87,0.76,2.81,1.12
		c3.95,1.52,7.96,2.88,12.11,3.75c0.58,0.12,1.16,0.23,1.77,0.35c-0.19,0.32-0.47,0.19-0.69,0.23c-3.17,0.51-6.35,0.46-9.53,0.18
		c-3.36-0.29-6.67-0.88-9.95-1.64c-1.08-0.25-2.15-0.52-3.22-0.79c-0.7-0.17-1.39-0.41-2.09-0.62c0.12,0.07,0.25,0.13,0.38,0.18
		c2.97,1.2,6.02,2.16,9.12,2.98c5.44,1.43,10.98,2.24,16.61,2.3c2.85,0.03,5.68-0.15,8.5-0.58c1.95-0.3,3.89-0.7,5.77-1.32
		c0.2-0.07,0.45-0.08,0.61-0.3c-0.26-0.05-0.48-0.08-0.7-0.13c-1.64-0.35-3.2-0.95-4.77-1.55c-0.88-0.34-1.76-0.69-2.64-1.04
		c-0.13-0.13-0.31-0.17-0.48-0.25c-3.58-1.62-7.13-3.28-10.64-5.04c-3.75-1.87-7.45-3.82-10.99-6.07c-0.78-0.49-1.52-1.06-2.35-1.47
		c-0.16-0.11-0.32-0.24-0.49-0.34c-3.04-1.88-6.23-3.46-9.53-4.82c-3.69-1.52-7.49-2.47-11.5-2.55c-4.95-0.1-9.76,0.69-14.42,2.34
		c-5.13,1.82-9.8,4.49-14.18,7.71c-1.55,1.14-3,2.38-4.29,3.81c-0.12,0.13-0.29,0.23-0.29,0.44c1.2,0.48,2.39,0.96,3.58,1.43
		c0.19,0.1,0.39,0.21,0.58,0.3c0.55,0.26,1.08,0.54,1.55,0.93c0.17,0.14,0.37,0.28,0.42,0.6c-0.62-0.19-1.17-0.36-1.72-0.52
		c-3.07-0.87-6.21-1.37-9.39-1.54c-2.55-0.14-5.11-0.07-7.65,0.23c-1.51,0.14-2.98,0.46-4.43,0.88c-2.26,0.66-4.33,1.73-6.38,2.86
		c-3.32,1.82-6.44,3.99-9.62,6.04c-0.03,0.02-0.05,0.06-0.1,0.14c1.07,0.27,2.13,0.49,3.22,0.49c0.48,0.17,0.99,0.12,1.49,0.14
		c2.81,0.17,5.6-0.02,8.35-0.66c1.48-0.35,2.92-0.83,4.14-1.77c2.38-1.83,5.06-2.9,8.02-3.25c1.36-0.16,2.74-0.19,4.09,0.15
		c1.85,0.47,3.35,1.55,4.7,2.85c0,0.06,0,0.11-0.01,0.17c-1.65-0.73-3.4-0.91-5.21-0.92c0.17,1.27,0.09,2.48-0.28,3.64
		c-0.96,3.06-2.88,5.17-6.12,5.88c-1.61,0.36-3.24,0.34-4.87,0.1c-0.64-0.09-1.28-0.16-1.88-0.42c-2.76-1.24-5.55-2.34-8.52-3
		c-2.18-0.48-4.32-1.15-6.54-1.42c-0.26-0.03-0.52-0.1-0.78-0.03c-0.76,0.21-1.53,0.34-2.27,0.61c-3.03,0.84-5.9,2.03-8.59,3.67
		c-1.54,0.94-2.96,2.03-4.25,3.29c-0.18,0.17-0.4,0.32-0.48,0.63c0.99-0.14,1.95-0.29,2.89-0.51c0.81-0.18,1.61-0.37,2.31-0.86
		c0.89-0.08,1.69-0.46,2.59-0.82c-0.24,0.59-0.44,1.09-0.63,1.59c-0.04,0.04-0.09,0.08-0.12,0.13c-0.81,1.5-1.84,2.84-3.02,4.06
		c-0.07,0.07-0.15,0.13-0.14,0.28c1.34-0.38,2.67-0.76,4-1.13c0.18-0.03,0.36-0.05,0.53-0.1c7.75-1.93,15.64-3.11,23.56-4.07
		c3.72-0.45,7.45-0.82,11.18-1.14c3.71-0.32,7.43-0.61,11.15-0.84c1.35-0.08,2.69-0.18,4.04-0.27c0.33-0.02,0.66-0.03,0.99-0.05
		c0.18-0.01,0.29-0.09,0.34-0.26c0.59-0.8,1.21-1.57,1.74-2.41c0.2-0.11,0.29-0.33,0.44-0.49c0.26-0.26,0.33-0.54,0.29-0.92
		c-0.13-1.27-0.1-2.54,0.11-3.8c0.3-1.84,1.22-3.36,2.45-4.71c1.53-1.69,3.36-3,5.35-4.11c0.18-0.1,0.39-0.17,0.57-0.36
		c-0.89-0.05-1.95,0.16-3.17,0.63c-2.07,0.79-3.94,1.94-5.73,3.21c-0.13,0.1-0.25,0.24-0.55,0.27c1.49-2.79,3.82-4.51,6.56-5.93
		c-0.52-0.04-0.89,0.05-1.26,0.13c-1.29,0.15-2.56,0.42-3.92,0.86c0.18-0.19,0.26-0.28,0.34-0.36c2.24-2.01,4.73-3.61,7.57-4.65
		c1.77-0.65,3.62-0.94,5.48-1.15c2.11-0.24,4.22-0.21,6.32,0.15c2.4,0.41,4.68,1.18,6.89,2.17c3.44,1.54,6.77,3.28,10.14,4.96
		C140.46,82.94,141.92,83.66,143.46,84.19z M13.42,142.77c0.35,0.64,0.79,1.01,1.26,1.36c0.55,0.41,1.14,0.76,1.74,1.08
		c1.38,0.75,2.81,1.41,4.33,1.83c1.61,0.45,3.27,0.65,4.91,0.93c1.58,0.28,3.17,0.51,4.75,0.76c1.7,0.27,3.41,0.55,5.11,0.82
		c1.37,0.22,2.74,0.42,4.1,0.64c1.45,0.23,2.89,0.47,4.34,0.69c1.41,0.22,2.82,0.42,4.23,0.63c1.23,0.19,2.46,0.39,3.68,0.58
		c1.17,0.18,2.34,0.34,3.51,0.52c1.41,0.22,2.81,0.46,4.22,0.67c1.57,0.24,3.13,0.47,4.7,0.71c0.93,0.15,0.93,0.16,1.48-0.59
		c0.1-0.13,0.19-0.26,0.28-0.39c0.24-0.33,0.22-0.42-0.21-0.51c-0.59-0.12-1.18-0.21-1.78-0.3c-1.17-0.18-2.34-0.36-3.51-0.54
		c-1.62-0.26-3.25-0.53-4.87-0.79c-1.39-0.23-2.77-0.45-4.16-0.68c-1.33-0.22-2.65-0.43-3.98-0.65c-1.15-0.19-2.3-0.38-3.44-0.57
		c-1.29-0.21-2.57-0.43-3.86-0.64c-1.39-0.23-2.77-0.44-4.16-0.67c-1.31-0.22-2.61-0.45-3.92-0.67c-1.34-0.23-2.69-0.46-4.03-0.69
		c-1.27-0.22-2.53-0.42-3.8-0.66c-1.01-0.19-2.01-0.38-3.01-0.61c-0.71-0.17-0.96-0.72-0.67-1.39c0.14-0.31,0.3-0.61,0.53-0.87
		c0.31-0.33,0.59-0.69,0.94-1.11C19.21,142.05,16.37,142.4,13.42,142.77z M127.32,115.56c-0.2-0.39-0.52-0.51-0.75-0.73
		c-1.37-1.37-2.79-2.68-3.97-4.22c-0.53-0.68-1.06-1.38-1.25-2.25c-0.09-0.45-0.29-0.84-0.56-1.19c-0.38-0.47-0.74-0.95-1.2-1.36
		c-1.4-1.24-2.88-2.39-4.48-3.37c-0.87-0.53-1.75-1.08-2.71-1.45c-0.25-0.1-0.42-0.07-0.58,0.13c-0.22,0.28-0.45,0.57-0.68,0.85
		c-0.82,0.98-1.72,1.87-2.88,2.44c-0.13,0.06-0.32,0.08-0.35,0.3c0.08,0.05,0.16,0.11,0.25,0.15c2.41,1.27,4.41,3.05,6.05,5.19
		c1.14,1.49,2.56,2.55,4.22,3.32c1.74,0.81,3.58,1.33,5.46,1.69C125,115.28,126.11,115.43,127.32,115.56z M81.3,118.53
		c0.18,0.06,0.27,0.1,0.37,0.12c1.54,0.31,3.06,0.71,4.61,0.96c1.82,0.3,3.64,0.41,5.47,0.05c3.5-0.7,6.1-2.52,7.46-5.92
		c0.54-1.35,1.04-2.7,1.43-4.1c0.04-0.13,0.13-0.26,0.01-0.4c-0.21,0-0.39,0.11-0.57,0.18c-2.61,1-5.21,2.04-7.85,2.96
		c-3.02,1.05-5.86,2.47-8.51,4.27C82.91,117.22,82.12,117.81,81.3,118.53z M70.9,149.26c0.66-0.17,1.2-0.32,1.74-0.44
		c0.99-0.22,1.29-0.2,1.66,0.07c-0.57,0.17-1.15,0.27-1.68,0.51c-0.76,0.34-1.15,0.66-1.32,1.13c1.4-0.06,2.78,0.11,4.16,0.31
		c1.79,0.27,3.57,0.58,5.34,0.99c0.3,0.07,0.54,0.03,0.76-0.21c0.3-0.33,0.62-0.63,0.89-0.98c1.07-1.37,1.94-2.86,2.76-4.39
		c0.18-0.33,0.15-0.6-0.03-0.9c-0.54-0.9-1.39-1.28-2.37-1.34c-1.65-0.09-3.3-0.05-4.93,0.3c-1.76,0.37-3.45,0.94-5.18,1.43
		c-0.31,0.09-0.53,0.29-0.69,0.55C71.45,147.16,71.16,148.14,70.9,149.26z M85.11,152.65c2.1,0.65,4.16,1.23,6.21,1.8
		c0.21,0.06,0.34,0,0.49-0.12c1.83-1.41,3.1-3.19,3.66-5.46c0.1-0.43,0.02-0.78-0.25-1.12c-0.87-1.11-2-1.8-3.34-2.15
		c-1.13-0.29-2.19-0.06-3.19,0.52c-0.18,0.11-0.31,0.24-0.38,0.45c-0.39,1.17-0.99,2.25-1.6,3.31
		C86.2,150.78,85.67,151.68,85.11,152.65z M66.55,64.32c-0.22,0.68-0.43,1.28-0.63,1.89c-0.72,2.26-1.36,4.55-1.71,6.9
		c-0.03,0.22-0.09,0.45-0.01,0.73c0.23-0.16,0.41-0.28,0.59-0.4c1.82-1.27,3.69-2.45,5.66-3.47c1.43-0.74,2.9-1.39,4.47-1.79
		c0.3-0.08,0.62-0.06,0.93-0.26c-1.78-0.49-3.52-0.99-5.22-1.61C69.25,65.79,67.84,65.28,66.55,64.32z M6.03,127.8
		c0.08,0.21,0.13,0.35,0.2,0.5c0.34,0.75,0.71,1.49,1.01,2.26c0.18,0.48,0.44,0.67,0.96,0.69c3.5,0.15,7,0.33,10.51,0.5
		c0.13,0.01,0.28,0.07,0.4-0.08c-0.22-0.91-0.44-1.83-0.66-2.75c-0.13-0.52-0.13-0.52-0.66-0.54c-2.15-0.11-4.31-0.22-6.46-0.32
		C9.58,127.96,7.85,127.89,6.03,127.8z M94.35,155.78c1.08,0.18,2.01,0.45,2.92,0.76c1.11,0.37,2.2,0.79,3.29,1.23
		c0.51,0.21,0.53,0.2,0.74-0.33c0.13-0.34,0.25-0.68,0.35-1.03c0.54-1.93,0.38-3.76-0.82-5.41c-0.48-0.67-1.07-1.24-1.82-1.67
		C98.01,151.87,96.19,153.77,94.35,155.78z M18.09,126.6c-0.14-0.24-0.29-0.31-0.42-0.4c-1.35-0.93-2.83-1.61-4.37-2.17
		c-1.78-0.64-3.62-1.07-5.5-1.32c-0.75-0.1-1.52-0.19-2.29-0.15c-0.8,0.05-1.08,0.33-1.05,1.14c0.03,0.73,0.38,1.34,0.72,1.97
		c0.09,0.18,0.26,0.16,0.42,0.16c0.34,0.01,0.69-0.02,1.03,0.02c1.56,0.2,3.13,0.21,4.69,0.32c1.06,0.08,2.12,0.21,3.19,0.16
		c0.08,0,0.16,0.01,0.24,0.02C15.84,126.43,16.92,126.51,18.09,126.6z M20.2,137.81c-0.25-1.09-0.48-2.07-0.7-3.05
		c-0.22-0.97-0.22-0.96-1.22-1.04c-2.97-0.24-5.94-0.48-8.91-0.72c-0.25-0.02-0.51-0.09-0.78,0.02c0.07,0.29,0.16,0.56,0.18,0.84
		c0.03,0.49,0.31,0.66,0.75,0.78c2.26,0.65,4.51,1.33,6.77,2C17.56,137.02,18.83,137.4,20.2,137.81z M126.12,104.46
		c-0.07-0.26-0.25-0.37-0.37-0.52c-1.8-2.18-4.01-3.76-6.75-4.54c-1.45-0.41-2.92-0.49-4.41-0.29c-0.13,0.02-0.28,0.03-0.35,0.18
		C116.1,101.69,123.59,104.97,126.12,104.46z M126.36,164.34c0.01-0.04,0.03-0.08,0.04-0.12c-7.41-1.89-14.81-3.79-22.26-5.69
		c-0.03,0.77-0.17,1.45-0.52,2.15C111.24,161.9,118.8,163.12,126.36,164.34z M21.65,140.58c-0.01-0.37-0.18-0.65-0.23-0.97
		c-0.06-0.32-0.23-0.44-0.56-0.49c-2.56-0.42-5.12-0.86-7.68-1.29c-0.95-0.16-1.9-0.32-2.85-0.48c-0.03,0.15,0.03,0.23,0.08,0.31
		c0.57,0.97,1.14,1.94,1.69,2.93c0.17,0.3,0.37,0.35,0.68,0.34c1.85-0.08,3.7-0.14,5.56-0.21
		C19.43,140.67,20.54,140.62,21.65,140.58z M103.17,97.94c0.21,0.09,0.33,0.04,0.44,0.02c1.28-0.29,2.18,0.2,2.59,1.43
		c0.3,0.91,0.43,1.83,0.26,2.79c-0.05,0.25,0.06,0.35,0.3,0.29c0.13-0.03,0.26-0.1,0.39-0.17c0.61-0.3,1.09-0.77,1.51-1.28
		c0.65-0.79,1.04-1.68,1.06-2.75c0.02-1.6-1.78-2.93-3.34-2.49C105.09,96.15,104.1,96.94,103.17,97.94z M71.97,96.27
		c4.28,0.62,8.33-1.6,8.91-5.45C77.62,92.19,74.87,94.27,71.97,96.27z M65.77,149.64c0.9,0.11,1.74,0.23,2.6,0.32
		c0.32,0.03,0.47-0.03,0.64-0.27c0.56-0.83,0.85-1.77,1.06-2.73c0.05-0.24,0.16-0.57-0.08-0.72c-0.2-0.13-0.46,0.06-0.67,0.15
		c-1.19,0.5-2.15,1.32-2.95,2.32C66.14,148.97,65.81,149.18,65.77,149.64z M104.79,112.77c0.91-1.7,1.44-3.51,1.72-5.39
		c0.05-0.33-0.06-0.41-0.37-0.3c-0.81,0.3-1.61,0.63-2.42,0.93c-0.28,0.1-0.25,0.25-0.15,0.46
		C104.17,109.85,104.55,111.29,104.79,112.77z M126.89,164.4c0-0.01,0-0.04-0.01-0.04c-0.04-0.01-0.08-0.02-0.11-0.01
		c-0.05,0.02-0.05,0.06,0.01,0.07C126.81,164.42,126.85,164.4,126.89,164.4z M181.68,43.12c-0.01-0.01-0.02-0.03-0.03-0.03
		c-0.01,0-0.02,0.02-0.04,0.03c0.01,0.01,0.02,0.03,0.03,0.03C181.66,43.15,181.67,43.13,181.68,43.12z" />
		<path class="ana_st2" d="M122.39,119.42c0.11-0.22,0.31-0.37,0.48-0.53c0.21-0.2,0.42-0.3,0.75-0.23c0.34,0.08,0.71,0.02,1.12,0.02
		C124.51,118.94,123.05,119.38,122.39,119.42L122.39,119.42z" />
		<path class="ana_st3" d="M156.57,170.21c0-0.06,0-0.12,0.01-0.18c0.35,0.03,0.68,0.16,1.04,0.31
		C157.23,170.34,156.9,170.27,156.57,170.21z" />
		<path class="ana_st4" d="M120.81,105.15c0.09-0.09,0.17-0.03,0.26,0.02c0,0.08-0.01,0.15-0.01,0.23c-0.12-0.05-0.22-0.11-0.23-0.26
		L120.81,105.15z" />
		<path class="ana_st2" d="M122.4,119.42c-0.02,0.02-0.03,0.03-0.05,0.05c0-0.01,0-0.03,0.01-0.03
		C122.36,119.43,122.38,119.43,122.4,119.42C122.39,119.42,122.4,119.42,122.4,119.42z" />
		<path class="ana_st1" d="M153.88,114.11c-0.04-0.04-0.03-0.07,0.01-0.08c0.02,0,0.05,0.02,0.07,0.03c-0.03,0.01-0.06,0.03-0.09,0.04
		C153.87,114.09,153.88,114.11,153.88,114.11z" />
		<path class="ana_st5"
			d="M53.02,95.13c0.74-0.28,1.51-0.4,2.27-0.61c0.26-0.07,0.52-0.01,0.78,0.03c2.23,0.27,4.36,0.94,6.54,1.42
		c2.97,0.66,5.77,1.76,8.52,3c0.6,0.27,1.24,0.33,1.88,0.42c1.63,0.24,3.26,0.25,4.87-0.1c3.23-0.71,5.15-2.82,6.12-5.88
		c0.37-1.16,0.45-2.37,0.28-3.64c1.81,0.01,3.56,0.19,5.21,0.92c0.07,0.07,0.15,0.1,0.24,0.03c-0.05,0.07-0.03,0.1,0.05,0.09
		c-0.02-0.03-0.04-0.05-0.07-0.08c-0.05-0.09-0.12-0.17-0.22-0.21c-1.35-1.3-2.85-2.37-4.7-2.85c-1.35-0.34-2.72-0.31-4.09-0.15
		c-2.96,0.35-5.64,1.41-8.02,3.25c-1.22,0.94-2.66,1.42-4.14,1.77c-2.75,0.64-5.54,0.83-8.35,0.66c-0.5-0.03-1.01,0.03-1.49-0.14
		c0-0.18,0.11-0.28,0.24-0.39c0.81-0.66,1.61-1.32,2.42-1.99c1.28-1.07,2.6-2.08,3.97-3.02c1.11-0.76,2.24-1.49,3.42-2.15
		c0.95-0.53,1.93-1,2.93-1.41c1.34-0.55,2.71-0.99,4.14-1.24c0.12-0.02,0.16-0.11,0.19-0.21c2.54-0.3,5.1-0.37,7.65-0.23
		c3.18,0.17,6.32,0.67,9.39,1.54c0.56,0.16,1.11,0.33,1.72,0.52c-0.05-0.32-0.25-0.45-0.42-0.6c-0.47-0.39-1-0.67-1.55-0.93
		c-0.2-0.09-0.39-0.2-0.58-0.3c0.07-0.1,0.13-0.2,0.21-0.29c1.2-1.28,2.53-2.41,3.98-3.41c2.63-1.84,5.42-3.39,8.28-4.85
		c1.65-0.84,3.34-1.6,5.03-2.35c1.31-0.58,2.62-1.13,3.96-1.62c2.03-0.74,4.16-0.83,6.28-0.93c1.2-0.06,2.4,0.13,3.6,0.2
		c1.21,0.07,2.4,0.23,3.58,0.42c1.56,0.25,3.12,0.57,4.65,0.95c2.91,0.73,5.77,1.59,8.55,2.74c0.85,0.35,1.7,0.73,2.55,1.1
		c0.13,0.05,0.27,0.23,0.42,0.02c0.83,0.41,1.57,0.98,2.35,1.47c3.54,2.25,7.24,4.2,10.99,6.07c3.51,1.76,7.07,3.42,10.64,5.04
		c0.16,0.07,0.34,0.12,0.48,0.25c-0.18,0.2-0.41,0.12-0.63,0.12c-2.25,0.01-4.5,0.03-6.75-0.22c-1.19-0.13-2.4-0.23-3.58-0.42
		c-1.54-0.24-3.08-0.49-4.62-0.79c-2.84-0.56-5.65-1.2-8.43-1.98c-0.11-0.03-0.22-0.12-0.32,0.01c-1.54-0.53-3.01-1.25-4.47-1.98
		c-3.37-1.68-6.71-3.42-10.14-4.96c-2.21-0.99-4.49-1.76-6.89-2.17c-2.1-0.36-4.21-0.39-6.32-0.15c-1.86,0.21-3.71,0.5-5.48,1.15
		c-2.84,1.04-5.33,2.64-7.57,4.65c-0.09,0.08-0.16,0.17-0.34,0.36c1.37-0.43,2.63-0.71,3.92-0.86c-0.05,0.3-0.33,0.26-0.52,0.32
		c-1.23,0.39-2.4,0.92-3.47,1.66c-2.46,1.7-4.01,4.02-4.69,6.92c-0.03,0.13-0.06,0.27,0.02,0.41c0.2-0.03,0.29-0.2,0.41-0.32
		c0.49-0.52,1.13-0.76,1.77-1c0.11-0.04,0.25-0.08,0.34,0.01c0.12,0.11,0,0.22-0.04,0.32c-0.28,0.65-0.52,1.31-0.59,2.02
		c-0.18,1.93,0.4,3.69,1.33,5.36c0.09,0.16,0.19,0.31,0.39,0.36c-0.53,0.84-1.15,1.61-1.74,2.41c-0.2,0-0.31-0.16-0.45-0.26
		c-0.26-0.19-0.48-0.45-0.88-0.55c0,0.41,0,0.76,0,1.12c-1.35,0.09-2.69,0.19-4.04,0.27c-3.72,0.23-7.44,0.53-11.15,0.84
		c-3.73,0.32-7.46,0.69-11.18,1.14c-7.92,0.96-15.81,2.14-23.56,4.07c-0.18,0.04-0.36,0.06-0.53,0.1c0.02-0.21-0.09-0.39-0.2-0.55
		c-0.49-0.76-0.66-1.58-0.45-2.46c0.03-0.12,0.05-0.24-0.07-0.33c0.2-0.5,0.4-0.99,0.63-1.59c-0.9,0.36-1.7,0.74-2.59,0.82
		c0-0.18,0.14-0.28,0.26-0.39c0.84-0.81,1.61-1.69,2.53-2.42c1.5-1.2,3.09-2.25,4.87-2.98C52.76,95.47,53,95.42,53.02,95.13z" />
		<path class="ana_st6" d="M97.76,36.88c0.2,0.16,0.42,0.31,0.61,0.49c0.31,0.29,0.3,0.34-0.04,0.59c-0.87,0.63-1.84,1.09-2.84,1.47
		c-2.16,0.81-4.41,1.27-6.69,1.58c-0.89,0.12-1.79,0.21-2.72,0.31c0.07,0.19,0.23,0.2,0.34,0.23c2.55,0.73,5.14,0.94,7.78,0.72
		c2.86-0.24,5.64-0.93,8.43-1.55c2.82-0.63,5.65-1.15,8.56-1.01c1.47,0.07,2.94,0.2,4.32,0.76c1.78,0.73,3.03,2.02,3.95,3.67
		c0.89,1.6,1.39,3.35,1.7,5.14c0.35,1.99,0.49,4,0.45,6.02c-0.03,1.55-0.09,3.1-0.33,4.61c-0.16,0.14-0.29,0.03-0.42,0
		c-0.72-0.18-1.44-0.37-2.17-0.54c-0.32-0.07-0.48-0.21-0.46-0.57c0.06-1.17-0.04-2.34-0.1-3.5c-0.14-2.54-0.41-5.06-1.08-7.52
		c-0.25-0.9-0.56-1.77-0.99-2.59c-0.09-0.18-0.19-0.36-0.3-0.53c-1.14-1.73-2.2-1.97-3.96-1.77c-1.23,0.14-2.31,0.67-3.37,1.27
		c-1.02,0.57-2.04,1.16-3.19,1.42c-0.71,0.16-1.43,0.25-2.14,0.4c-1.82,0.39-3.56,1.04-5.25,1.8c-0.09,0.04-0.19,0.08-0.25,0.19
		c0.03,0.04,0.06,0.1,0.1,0.12c1.42,0.85,2,2.2,2.13,3.74c0.2,2.4-0.4,4.6-1.92,6.5c-0.58,0.72-1.31,1.26-2.23,1.48
		c-3.31,0.81-6.53,1.91-9.78,2.93c-1.25,0.39-2.51,0.73-3.81,0.93c-1.18,0.18-2.33,0.06-3.48-0.17c-2.81-0.57-5.53-1.46-8.22-2.44
		c-0.05-0.02-0.1-0.07-0.15-0.1c2.07-5.43,4.66-10.61,7.57-15.64c0.78-1.34,1.6-2.66,2.58-3.86c1.88-2.31,4.19-4,7.1-4.78
		c2.56-0.68,5.18-0.7,7.8-0.45c0.7,0.07,1.36,0.33,2.06,0.42c0,0,0-0.01,0-0.01C97.38,36.89,97.61,36.83,97.76,36.88z" />
		<path class="ana_st7" d="M125.51,65.81c-0.89,0.05-1.77-0.12-2.65-0.17c-2.27-0.12-4.55-0.25-6.82-0.11c-0.88,0.06-1.77,0.05-2.66,0.13
		c-1.93,0.17-3.84,0.49-5.7,1.02c-0.87,0.25-1.75,0.27-2.63,0.31c-2.6,0.11-5.18,0.44-7.73,0.93c-4.07,0.78-8.01,2.01-11.79,3.7
		c-1.86,0.83-3.63,1.84-5.39,2.86c-5.72,3.31-11.54,6.45-17.55,9.22c-3.5,1.61-7.05,3.08-10.72,4.28c-2.47,0.81-4.98,1.49-7.56,1.87
		c-1.66,0.24-3.32,0.4-5,0.18c-1.01-0.13-1.95-0.46-2.89-0.81c-0.17-0.34-0.54-0.44-0.82-0.64c-1.3-1.1-2.01-2.54-2.34-4.19
		c-0.38-1.97-0.22-3.92,0.1-5.88c0.24-1.5,0.87-2.79,1.78-3.98c0.84-1.09,1.81-2.06,2.87-2.92c2.42-1.96,5.15-3.36,8.05-4.46
		c4.24-1.61,8.66-2.49,13.14-3.06c0.5-0.02,1.01-0.05,1.49-0.22c0.16,0,0.32,0,0.48,0c-1.64,0.42-3.27,0.84-4.88,1.33
		c-3.41,1.02-6.74,2.23-9.83,4.01c-1.72,0.99-3.34,2.12-4.6,3.69c-0.77,0.96-1.32,2.02-1.51,3.25c-0.04,0.24-0.06,0.47-0.02,0.8
		c0.43-0.39,0.82-0.73,1.2-1.08c1.55-1.42,3.2-2.71,5.02-3.77c1.17-0.68,2.39-1.25,3.74-1.49c1.12-0.2,2.21-0.09,3.26,0.33
		c1.18,0.48,1.77,1.54,1.6,2.82c-0.09,0.62-0.27,1.22-0.48,1.81c-0.14,0.39-0.41,0.69-0.69,0.98c-1.17,1.25-2.54,2.24-4,3.11
		c-3.52,2.1-7.34,3.39-11.37,4.08c-0.85,0.15-1.71,0.28-2.56,0.42c0.06,0.27,0.29,0.38,0.48,0.51c0.57,0.4,1.19,0.67,1.85,0.88
		c2.49,0.8,5.05,1.04,7.65,0.79c2.76-0.27,5.45-0.9,8.09-1.73c0.81-0.25,1.63-0.45,2.38-0.87c5.44-3,10.87-6.01,16.31-9
		c2.74-1.5,5.45-3.06,8.3-4.36c7.64-3.48,15.6-5.78,23.98-6.54c2.88-0.26,5.76-0.3,8.64-0.05c2.98,0.26,5.93,0.69,8.85,1.31
		C123.57,65.31,124.56,65.46,125.51,65.81z" />
		<path class="ana_st8" d="M56.53,129.96c-0.35-0.01-0.66-0.17-0.97-0.32c-1.42-0.68-2.81-1.41-4.15-2.24c-1.65-1.02-3.2-2.17-4.55-3.56
		c-0.92-0.94-1.68-2.01-2.2-3.23c-0.04-0.09-0.12-0.17,0-0.32c2.52,1.06,5.08,2.03,7.91,2.08c-0.53-0.3-1.06-0.6-1.6-0.89
		c-2.75-1.48-5.46-3.02-8.04-4.8c-1.45-1-2.67-2.2-3.42-3.82c-0.27-0.57-0.46-1.17-0.5-1.79c-0.07-1.12,0.48-2.16,1.8-2.64
		c0.6-0.22,1.23-0.37,1.86-0.49c2.13-0.42,4.26-0.83,6.39-1.2c1.88-0.33,3.77-0.59,5.65-0.88c1.78-0.27,3.57-0.56,5.35-0.81
		c1.35-0.19,2.71-0.34,4.06-0.52c1.07-0.14,2.14-0.34,3.22-0.44c1.16-0.11,2.31-0.29,3.47-0.4c1.26-0.13,2.51-0.31,3.77-0.45
		c0.9-0.1,1.8-0.17,2.7-0.27c1.08-0.13,2.16-0.16,3.23-0.33c0.46-0.07,0.92-0.08,1.38-0.13c1.22-0.13,2.45-0.15,3.67-0.28
		c1.3-0.14,2.61-0.15,3.9-0.32c0.64-0.08,1.29-0.1,1.92-0.11c1.25-0.03,2.5-0.12,3.74-0.18c1.43-0.07,2.86-0.03,4.29-0.12
		c0.76-0.05,1.52-0.06,2.36-0.09c-0.24,0.4-0.49,0.7-0.76,0.98c-0.38,0.41-0.78,0.82-1.15,1.24c-0.88,1-1.95,1.72-3.28,2.03
		c-1.39,0.32-2.79,0.55-4.21,0.73c-1.99,0.26-3.98,0.55-5.94,0.97c-2.04,0.45-4.07,0.97-6.05,1.65c-4.26,1.47-8.21,3.53-11.78,6.29
		c-1.31,1.01-2.57,2.08-3.73,3.25c-0.15,0.15-0.37,0.27-0.35,0.54c0,0,0-0.01,0-0.01c-0.06,0.02-0.24-0.07-0.12,0.13
		c-0.33,0.38-0.8,0.6-1.17,0.95c-1.8,1.73-3.26,3.72-4.59,5.82c-0.08,0.12-0.1,0.32-0.32,0.31c-0.14-0.11-0.09-0.26-0.1-0.39
		c-0.06-1.63,0.01-3.26,0.36-4.86c0.48-2.25,1.37-4.34,2.67-6.23c1.06-1.55,2.32-2.93,3.75-4.16c2.05-1.76,4.33-3.14,6.79-4.25
		c0.1-0.05,0.25-0.03,0.24-0.23c-1.26,0.11-2.52,0.22-3.78,0.33c-0.96,0.09-1.92,0.16-2.88,0.28c-1.35,0.17-2.7,0.39-4.06,0.56
		c-1.83,0.24-3.65,0.56-5.47,0.91c-3.28,0.63-6.54,1.35-9.75,2.25c-1.2,0.34-2.39,0.7-3.59,1.07c-0.33,0.1-0.36,0.2-0.13,0.46
		c0.37,0.43,0.73,0.86,1.14,1.25c1.34,1.31,2.71,2.59,4.13,3.81c1.1,0.94,2.21,1.87,3.35,2.77c1.41,1.11,2.82,2.21,4.22,3.32
		c0.44,0.34,0.43,0.42-0.02,0.74c-0.55,0.39-1.14,0.7-1.79,0.85c-1.1,0.25-2.2,0.43-3.34,0.27c-0.16-0.02-0.35-0.06-0.5,0.05
		c0.07,0.18,0.19,0.26,0.3,0.34c1.53,1.13,3.13,2.13,4.91,2.83C55.6,128.55,56.21,129.12,56.53,129.96z" />
		<path class="ana_st6" d="M56.53,129.96c-0.32-0.84-0.92-1.41-1.74-1.73c-1.78-0.7-3.38-1.7-4.91-2.83c-0.11-0.08-0.23-0.16-0.3-0.34
		c0.16-0.11,0.34-0.07,0.5-0.05c1.13,0.16,2.24-0.02,3.34-0.27c0.66-0.15,1.25-0.46,1.79-0.85c0.46-0.33,0.46-0.4,0.02-0.74
		c-1.41-1.11-2.81-2.22-4.22-3.32c-1.14-0.9-2.25-1.82-3.35-2.77c-1.42-1.22-2.79-2.5-4.13-3.81c-0.4-0.39-0.77-0.83-1.14-1.25
		c-0.22-0.26-0.2-0.35,0.13-0.46c1.19-0.37,2.39-0.73,3.59-1.07c3.21-0.9,6.47-1.62,9.75-2.25c1.81-0.35,3.63-0.67,5.47-0.91
		c1.35-0.17,2.7-0.4,4.06-0.56c0.96-0.12,1.92-0.19,2.88-0.28c1.26-0.11,2.52-0.22,3.78-0.33c0,0.19-0.14,0.18-0.24,0.23
		c-2.46,1.11-4.73,2.49-6.79,4.25c-1.43,1.23-2.69,2.61-3.75,4.16c-1.3,1.9-2.19,3.98-2.67,6.23c-0.34,1.61-0.42,3.23-0.36,4.86
		c0.01,0.13-0.04,0.28,0.1,0.39c0.21,0.01,0.24-0.18,0.32-0.31c1.33-2.1,2.79-4.09,4.59-5.82c0.37-0.35,0.83-0.57,1.17-0.95
		c0.04-0.04,0.08-0.08,0.12-0.13c0,0,0,0.01,0,0.01c0.37-0.08,0.59-0.43,0.95-0.53c0.13,0.04,0.31,0.05,0.19,0.26
		c-0.08,0.14-0.18,0.27-0.27,0.4c-1.16,1.69-2.21,3.45-3.15,5.28c-1.08,2.09-2,4.26-2.61,6.53c-0.42,1.55-0.74,3.12-0.69,4.75
		c0.01,0.34-0.02,0.68-0.03,1.02c-0.31-0.26-0.61-0.51-0.92-0.77c-0.63-0.51-1.39-0.77-2.13-1.06c-0.11-0.04-0.25-0.02-0.29-0.17
		c0.68-0.42,1.38-0.82,2.21-0.87c0.23-0.01,0.21-0.21,0.17-0.37c-0.28-1.12-0.57-2.24-1.15-3.26
		C56.73,130.17,56.65,130.05,56.53,129.96z" />
		<path class="ana_st9"
			d="M156.41,47.67c0.08-0.04,0.16-0.04,0.24-0.01c0.18,0.15,0.35,0.21,0.48-0.06c0.36-0.1,0.73-0.08,1.09-0.1
		c-0.05,0.18-0.13,0.34-0.26,0.47c-0.42,0.46-0.83,0.94-1.26,1.38c-0.83,0.85-1.76,1.59-2.68,2.34c-1.55,1.25-3.21,2.36-4.9,3.42
		c-1.35,0.84-2.73,1.63-4.13,2.39c-1.83,0.99-3.68,1.92-5.56,2.8c-1.95,0.91-3.94,1.74-5.92,2.59c-0.12,0.05-0.22,0.09-0.24,0.23
		c-0.45,0.17-0.85,0.15-1.32-0.05c-1.55-0.66-3.14-1.23-4.74-1.77c-0.47-0.16-0.47-0.17-0.5-0.66c-0.1-1.89-0.27-3.77-0.48-5.64
		c-0.01-0.1-0.01-0.2-0.01-0.3c0.16-0.01,0.31-0.05,0.47-0.11c2.61-0.89,5.26-1.61,7.93-2.28c2.26-0.57,4.52-1.08,6.79-1.6
		c1.95-0.44,3.92-0.82,5.89-1.21c1.53-0.3,3.07-0.59,4.61-0.87c1.4-0.25,2.8-0.49,4.2-0.73C156.28,47.88,156.4,47.85,156.41,47.67z" />
		<path class="ana_st10" d="M133.28,63.12c0.01-0.15,0.12-0.18,0.24-0.23c1.98-0.86,3.97-1.68,5.92-2.59c1.88-0.88,3.74-1.81,5.56-2.8
		c1.4-0.76,2.78-1.54,4.13-2.39c1.69-1.06,3.34-2.16,4.9-3.42c0.92-0.75,1.84-1.49,2.68-2.34c0.44-0.44,0.84-0.92,1.26-1.38
		c0.12-0.14,0.21-0.29,0.26-0.47c0.93-0.17,1.88-0.22,2.81-0.33c5.95-0.68,11.87-1.52,17.66-3.14c0.78-0.22,1.54-0.49,2.3-0.73
		c0.15-0.05,0.29-0.15,0.51-0.1c-0.03,0.26-0.26,0.38-0.41,0.53c-1.45,1.38-3.01,2.62-4.63,3.8c-4.1,2.99-8.49,5.5-12.99,7.84
		c-4.05,2.1-8.2,3.96-12.45,5.61c-0.17,0.07-0.33,0.16-0.52,0.16c-0.02-0.02-0.04-0.04-0.05-0.06c0.3-0.4,0.71-0.69,1.08-1.03
		c1.36-1.28,2.6-2.67,3.61-4.25c0.08-0.12,0.13-0.24,0.2-0.37c0.11-0.09,0.15-0.18,0.06-0.31c0.02,0.01,0.05,0.02,0.07,0.02
		c-0.02-0.01-0.04-0.01-0.06-0.02c-0.06,0.06-0.11,0.12-0.17,0.18c-0.36,0.15-0.64,0.45-1.02,0.57c-0.1-0.14-0.21-0.06-0.31-0.01
		c-0.42,0.23-0.83,0.49-1.27,0.67c-1.03,0.43-2,1-3.05,1.39c-0.13,0.05-0.21,0.11-0.21,0.25l-0.05,0.01c0,0-0.05,0-0.05,0
		c-0.51,0-0.92,0.28-1.36,0.46c-0.05,0.02-0.07,0.13-0.1,0.2c-1.57,0.67-3.2,1.19-4.82,1.7c-3.09,0.97-6.21,1.82-9.37,2.53
		C133.52,63.11,133.41,63.15,133.28,63.12z" />
		<path class="ana_st6" d="M68.86,152.57c0.12-0.25,0.32-0.17,0.52-0.14c2.51,0.33,5.01,0.78,7.49,1.27c5.12,1.02,10.15,2.35,15.07,4.09
		c2.41,0.85,4.79,1.8,7.08,2.94c0.13,0.06,0.25,0.13,0.38,0.19c0.22,0.1,0.24,0.24,0.11,0.43c-0.28,0.41-0.67,0.7-1.08,0.95
		c-1.06,0.64-2.19,1.1-3.37,1.46c-0.36,0.11-0.73,0.24-1.09,0.36c-0.1-0.03-0.2,0-0.29,0.01c-0.55,0.08-1.12,0.29-1.67,0.14
		c-1.16-0.3-2.34-0.34-3.53-0.32c-1.05,0.01-2.09-0.05-3.13-0.14c-0.52-0.04-1.08-0.07-1.5-0.39c-0.65-0.5-1.41-0.51-2.13-0.5
		c-0.72,0.01-1.45,0.01-2.17,0.05c-0.37,0.02-0.72-0.08-1.07-0.14c-0.26-0.05-0.49-0.18-0.52-0.5c-0.06-0.55-0.43-0.89-0.85-1.18
		c-0.75-0.52-1.58-0.88-2.45-1.16c-0.27-0.09-0.52-0.16-0.63-0.49c-0.08-0.25-0.36-0.37-0.59-0.49c-0.81-0.44-1.63-0.88-2.41-1.37
		c-1.01-0.64-1.58-1.57-1.9-2.69C68.89,154.17,68.9,153.37,68.86,152.57z" />
		<path class="ana_st8" d="M58.91,136.79c0.01-0.34,0.04-0.68,0.03-1.02c-0.05-1.62,0.27-3.19,0.69-4.75c0.62-2.28,1.54-4.44,2.61-6.53
		c0.94-1.82,1.99-3.58,3.15-5.28c0.09-0.13,0.19-0.26,0.27-0.4c0.12-0.21-0.06-0.22-0.19-0.26c0.33-0.48,0.86-0.71,1.32-1.02
		c1.38-0.94,2.82-1.79,4.32-2.53c1.72-0.84,3.48-1.58,5.3-2.19c2.06-0.69,4.17-1.2,6.31-1.57c0.46-0.08,0.94-0.24,1.46-0.13
		c-0.08,0.25-0.31,0.31-0.48,0.42c-2.42,1.49-4.72,3.14-6.89,4.98c-1.34,1.13-2.66,2.29-3.87,3.55c-2.2,2.28-4.21,4.72-5.83,7.44
		c-1.45,2.43-2.59,5-3.27,7.76c-0.26,1.05-0.47,2.11-0.55,3.19c-0.21,0.13-0.37,0-0.53-0.06c-1.03-0.34-2.03-0.77-3.01-1.25
		C59.48,136.99,59.22,136.84,58.91,136.79z" />
		<path class="ana_st8" d="M68.86,152.57c0.03,0.8,0.03,1.61,0.26,2.39c0.32,1.12,0.9,2.05,1.9,2.69c0.78,0.5,1.6,0.93,2.41,1.37
		c0.23,0.13,0.5,0.24,0.59,0.49c0.11,0.33,0.36,0.4,0.63,0.49c0.86,0.28,1.69,0.64,2.45,1.16c0.43,0.29,0.79,0.63,0.85,1.18
		c0.04,0.32,0.26,0.46,0.52,0.5c0.35,0.06,0.7,0.17,1.07,0.14c0.72-0.04,1.45-0.04,2.17-0.05c0.72-0.01,1.48-0.01,2.13,0.5
		c0.42,0.32,0.98,0.35,1.5,0.39c1.04,0.09,2.08,0.16,3.13,0.14c1.19-0.02,2.37,0.02,3.53,0.32c0.55,0.14,1.12-0.06,1.67-0.14
		c0.1-0.01,0.19-0.05,0.29-0.01c-0.3,0.39-0.77,0.5-1.19,0.67c-2.76,1.14-5.63,1.9-8.54,2.55c-1.12,0.25-2.25,0.41-3.38,0.58
		c-0.37,0.06-0.76,0.06-1.13-0.09c-0.22-0.09-0.3-0.23-0.33-0.45c-0.05-0.46,0.23-0.8,0.45-1.25c-3.04,0.45-5.98-0.03-8.96-0.5
		c0.11-0.18,0.26-0.2,0.4-0.25c1.2-0.4,2.4-0.82,3.52-1.43c0.23-0.13,0.46-0.25,0.62-0.47c0.17-0.23,0.09-0.44-0.19-0.49
		c-0.24-0.04-0.48,0-0.72,0.05c-1.36,0.31-2.65,0.83-3.96,1.27c-0.44,0.15-0.89,0.27-1.33,0.41c-0.3,0.1-0.61,0.09-0.9,0.05
		c-1.21-0.17-2.28-0.64-3.09-1.6c-0.33-0.39-0.43-0.8-0.16-1.27c0.13-0.23,0.26-0.45,0.45-0.64c0.25-0.24,0.49-0.48,0.73-0.73
		c0.08-0.08,0.21-0.16,0.1-0.3c-0.07-0.09-0.19-0.03-0.28,0.01c-0.54,0.21-1.09,0.41-1.63,0.64c-0.34,0.14-0.68,0.24-1.03,0.33
		c-0.75,0.19-1.16,0.05-1.54-0.59c-0.6-1.03-0.78-2.15-0.63-3.32c0.09-0.72,0.95-1.49,1.65-1.59c0.2-0.03,0.32,0.02,0.41,0.24
		c0.38,0.86,0.56,0.91,1.33,0.39c0.56-0.37,1.04-0.83,1.52-1.29c0.73-0.69,1.43-1.42,2.15-2.12
		C68.49,152.8,68.62,152.6,68.86,152.57z" />
		<path class="ana_st0" d="M128.57,124.38c-1.78,1.06-3.58,2.09-5.35,3.18c-4.88,3-9.6,6.22-13.94,9.98c-2.27,1.97-3.74,3.49-5.36,5.56
		c-0.19,0.04-0.28-0.12-0.4-0.22c-2.36-1.78-5.03-2.76-7.94-3.14c-1.42-0.19-2.85-0.2-4.28-0.1c-0.18,0.01-0.36,0.09-0.53-0.03
		l0.01,0.01c1.08-0.62,2.24-1.09,3.37-1.61c10.66-4.89,21.5-9.33,32.57-13.18c0.61-0.21,1.2-0.46,1.84-0.6
		C128.57,124.28,128.57,124.33,128.57,124.38z" />
		<path class="ana_st11" d="M143.34,74.64c-0.15,0.21-0.29,0.03-0.42-0.02c-0.85-0.36-1.69-0.74-2.55-1.1c-2.77-1.14-5.64-2.01-8.55-2.74
		c-1.54-0.38-3.09-0.7-4.65-0.95c-1.18-0.19-2.38-0.35-3.58-0.42c-1.2-0.07-2.4-0.25-3.6-0.2c-2.12,0.1-4.26,0.19-6.28,0.93
		c-1.34,0.49-2.66,1.04-3.96,1.62c-1.69,0.75-3.38,1.51-5.03,2.35c-2.85,1.45-5.65,3.01-8.28,4.85c-1.44,1.01-2.78,2.13-3.98,3.41
		c-0.08,0.09-0.14,0.19-0.21,0.29c-1.19-0.48-2.39-0.96-3.58-1.43c0-0.21,0.17-0.31,0.29-0.44c1.29-1.43,2.74-2.67,4.29-3.81
		c4.37-3.21,9.05-5.89,14.18-7.71c4.66-1.65,9.47-2.44,14.42-2.34c4,0.08,7.81,1.03,11.5,2.55c3.3,1.36,6.49,2.94,9.53,4.82
		C143.02,74.41,143.18,74.53,143.34,74.64z" />
		<path class="ana_st12"
			d="M125.51,65.81c-0.95-0.35-1.95-0.5-2.93-0.71c-2.92-0.62-5.88-1.05-8.85-1.31c-2.88-0.25-5.76-0.22-8.64,0.05
		c-8.38,0.77-16.34,3.07-23.98,6.54c-2.85,1.3-5.56,2.85-8.3,4.36c-5.44,2.99-10.87,6-16.31,9c-0.75,0.41-1.58,0.61-2.38,0.87
		c-2.64,0.83-5.33,1.47-8.09,1.73c-2.6,0.25-5.16,0.01-7.65-0.79c-0.66-0.21-1.28-0.48-1.85-0.88c-0.19-0.14-0.43-0.24-0.48-0.51
		c2.87,1.03,5.83,1.42,8.86,1.23c2.21-0.14,4.34-0.67,6.43-1.35c4.71-1.53,9.22-3.5,13.46-6.08c6.03-3.67,12.22-7.05,18.68-9.89
		c2.97-1.31,5.99-2.48,9.15-3.26c2.12-0.52,4.27-0.83,6.42-1.17c2.71-0.42,5.43-0.74,8.17-0.92c3.3-0.23,6.61-0.32,9.91,0.1
		c2.02,0.25,3.99,0.77,5.96,1.3c2.34,0.63,4.64,1.35,6.9,2.22c0,0.07,0,0.13,0,0.2C128.51,66.28,127.01,66.05,125.51,65.81z" />
		<path class="ana_st3" d="M13.42,142.77c2.96-0.36,5.79-0.72,8.73-1.08c-0.35,0.42-0.64,0.78-0.94,1.11c-0.24,0.26-0.4,0.56-0.53,0.87
		c-0.29,0.67-0.05,1.22,0.67,1.39c1,0.23,2,0.43,3.01,0.61c1.26,0.23,2.53,0.44,3.8,0.66c1.34,0.23,2.69,0.46,4.03,0.69
		c1.31,0.22,2.61,0.45,3.92,0.67c1.39,0.23,2.77,0.44,4.16,0.67c1.29,0.21,2.57,0.42,3.86,0.64c1.15,0.19,2.3,0.38,3.44,0.57
		c1.33,0.22,2.65,0.43,3.98,0.65c1.39,0.23,2.77,0.45,4.16,0.68c1.62,0.26,3.25,0.53,4.87,0.79c1.17,0.19,2.34,0.36,3.51,0.54
		c0.59,0.09,1.19,0.18,1.78,0.3c0.43,0.09,0.45,0.17,0.21,0.51c-0.09,0.13-0.19,0.26-0.28,0.39c-0.56,0.75-0.55,0.73-1.48,0.59
		c-1.56-0.25-3.13-0.47-4.7-0.71c-1.41-0.22-2.81-0.46-4.22-0.67c-1.17-0.18-2.34-0.34-3.51-0.52c-1.23-0.19-2.46-0.39-3.68-0.58
		c-1.41-0.22-2.82-0.41-4.23-0.63c-1.45-0.22-2.89-0.46-4.34-0.69c-1.37-0.22-2.74-0.42-4.1-0.64c-1.7-0.27-3.41-0.55-5.11-0.82
		c-1.58-0.25-3.17-0.49-4.75-0.76c-1.64-0.29-3.3-0.48-4.91-0.93c-1.52-0.42-2.94-1.09-4.33-1.83c-0.6-0.33-1.19-0.67-1.74-1.08
		C14.21,143.78,13.77,143.41,13.42,142.77z" />
		<path class="ana_st4" d="M143.46,84.19c0.1-0.13,0.21-0.04,0.32-0.01c2.78,0.79,5.6,1.43,8.43,1.98c1.53,0.3,3.08,0.56,4.62,0.79
		c1.19,0.18,2.39,0.29,3.58,0.42c2.25,0.25,4.5,0.23,6.75,0.22c0.21,0,0.45,0.08,0.63-0.12c0.88,0.35,1.75,0.7,2.64,1.04
		c1.56,0.59,3.12,1.2,4.77,1.55c0.22,0.05,0.44,0.08,0.7,0.13c-0.16,0.22-0.41,0.23-0.61,0.3c-1.88,0.62-3.81,1.02-5.77,1.32
		c-2.82,0.43-5.65,0.61-8.5,0.58c-5.63-0.06-11.17-0.87-16.61-2.3c-3.1-0.81-6.15-1.78-9.12-2.98c-0.13-0.05-0.26-0.11-0.38-0.18
		c0.69,0.21,1.39,0.44,2.09,0.62c1.07,0.27,2.14,0.54,3.22,0.79c3.28,0.76,6.6,1.35,9.95,1.64c3.18,0.28,6.36,0.33,9.53-0.18
		c0.22-0.04,0.5,0.09,0.69-0.23c-0.6-0.12-1.19-0.23-1.77-0.35c-4.15-0.88-8.16-2.23-12.11-3.75c-0.94-0.36-1.87-0.75-2.81-1.12
		C143.62,84.31,143.52,84.28,143.46,84.19z" />
		<path class="ana_st8" d="M127.32,115.56c-1.22-0.13-2.32-0.28-3.43-0.49c-1.88-0.36-3.72-0.88-5.46-1.69
		c-1.66-0.77-3.07-1.84-4.22-3.32c-1.65-2.14-3.64-3.92-6.05-5.19c-0.09-0.05-0.17-0.1-0.25-0.15c0.03-0.22,0.22-0.24,0.35-0.3
		c1.17-0.57,2.06-1.46,2.88-2.44c0.23-0.28,0.46-0.56,0.68-0.85c0.16-0.2,0.33-0.23,0.58-0.13c0.97,0.37,1.84,0.91,2.71,1.45
		c1.6,0.98,3.07,2.13,4.48,3.37c0.45,0.4,0.82,0.89,1.2,1.36c0.28,0.34,0.47,0.74,0.56,1.19c0.18,0.87,0.72,1.57,1.25,2.25
		c1.19,1.54,2.61,2.85,3.97,4.22C126.8,115.05,127.12,115.16,127.32,115.56z" />
		<path class="ana_st10" d="M81.3,118.53c0.82-0.72,1.61-1.31,2.42-1.86c2.64-1.8,5.49-3.22,8.51-4.27c2.64-0.92,5.24-1.97,7.85-2.96
		c0.19-0.07,0.36-0.18,0.57-0.18c0.12,0.14,0.02,0.27-0.01,0.4c-0.39,1.4-0.89,2.76-1.43,4.1c-1.36,3.39-3.96,5.22-7.46,5.92
		c-1.83,0.36-3.65,0.25-5.47-0.05c-1.55-0.25-3.07-0.65-4.61-0.96C81.57,118.63,81.48,118.59,81.3,118.53z" />
		<path class="ana_st2" d="M97.35,36.65c-0.7-0.09-1.36-0.35-2.06-0.42c-2.62-0.26-5.24-0.23-7.8,0.45c-2.91,0.77-5.21,2.47-7.1,4.78
		c-0.98,1.21-1.8,2.52-2.58,3.86c-2.91,5.02-5.49,10.21-7.57,15.64c-0.79-0.25-1.51-0.66-2.27-0.96c-0.23-0.09-0.22-0.27-0.16-0.45
		c0.14-0.44,0.28-0.88,0.45-1.31c1.05-2.62,2.36-5.11,3.73-7.58c1.59-2.87,3.27-5.69,5.23-8.33c1.53-2.07,3.34-3.87,5.39-5.43
		c4.9-3.71,10.91-2.67,14.29-0.62C97.07,36.37,97.29,36.42,97.35,36.65z" />
		<path class="ana_st6" d="M70.9,149.26c0.26-1.12,0.55-2.1,1.1-2.98c0.16-0.26,0.38-0.47,0.69-0.55c1.72-0.48,3.42-1.05,5.18-1.43
		c1.63-0.34,3.28-0.38,4.93-0.3c0.98,0.05,1.84,0.43,2.37,1.34c0.18,0.3,0.21,0.57,0.03,0.9c-0.82,1.53-1.69,3.02-2.76,4.39
		c-0.27,0.35-0.6,0.66-0.89,0.98c-0.22,0.24-0.46,0.28-0.76,0.21c-1.76-0.41-3.55-0.73-5.34-0.99c-1.37-0.2-2.75-0.37-4.16-0.31
		c0.17-0.47,0.56-0.78,1.32-1.13c0.53-0.24,1.11-0.34,1.68-0.51c-0.37-0.27-0.67-0.29-1.66-0.07
		C72.1,148.94,71.56,149.09,70.9,149.26z" />
		<path class="ana_st6" d="M85.11,152.65c0.56-0.97,1.09-1.87,1.6-2.77c0.61-1.07,1.2-2.14,1.6-3.31c0.07-0.21,0.19-0.34,0.38-0.45
		c1-0.58,2.07-0.81,3.19-0.52c1.34,0.35,2.48,1.04,3.34,2.15c0.27,0.35,0.36,0.7,0.25,1.12c-0.56,2.27-1.83,4.04-3.66,5.46
		c-0.15,0.12-0.28,0.18-0.49,0.12C89.27,153.87,87.22,153.3,85.11,152.65z" />
		<path class="ana_st4" d="M101.12,96.32c-0.19-0.05-0.3-0.2-0.39-0.36c-0.93-1.67-1.51-3.42-1.33-5.36c0.06-0.7,0.3-1.37,0.59-2.02
		c0.04-0.1,0.16-0.21,0.04-0.32c-0.1-0.09-0.23-0.05-0.34-0.01c-0.64,0.24-1.29,0.47-1.77,1c-0.12,0.13-0.21,0.3-0.41,0.32
		c-0.08-0.14-0.05-0.28-0.02-0.41c0.68-2.91,2.22-5.22,4.69-6.92c1.07-0.74,2.24-1.26,3.47-1.66c0.19-0.06,0.47-0.02,0.52-0.32
		c0.37-0.08,0.75-0.17,1.26-0.13c-2.74,1.42-5.07,3.13-6.56,5.93c0.3-0.03,0.41-0.17,0.55-0.27c1.8-1.28,3.66-2.42,5.73-3.21
		c1.22-0.46,2.28-0.67,3.17-0.63c-0.17,0.2-0.38,0.26-0.57,0.36c-1.99,1.1-3.82,2.41-5.35,4.11c-1.23,1.35-2.14,2.87-2.45,4.71
		c-0.21,1.26-0.24,2.53-0.11,3.8c0.04,0.38-0.03,0.66-0.29,0.92C101.41,95.99,101.32,96.2,101.12,96.32z" />
		<path class="ana_st11" d="M156.41,47.67c-0.02,0.18-0.14,0.21-0.29,0.23c-1.4,0.24-2.8,0.48-4.2,0.73c-1.54,0.28-3.07,0.56-4.61,0.87
		c-1.97,0.39-3.93,0.77-5.89,1.21c-2.27,0.51-4.54,1.02-6.79,1.6c-2.67,0.68-5.32,1.39-7.93,2.28c-0.15,0.05-0.31,0.1-0.47,0.11
		c-0.15-0.91-0.28-1.82-0.44-2.73c-0.05-0.3,0.14-0.33,0.34-0.37c1.34-0.26,2.68-0.53,4.03-0.78c3.39-0.62,6.79-1.11,10.21-1.55
		c3.1-0.39,6.2-0.74,9.3-1.02c2.03-0.18,4.05-0.37,6.08-0.55C155.97,47.68,156.19,47.68,156.41,47.67z" />
		<path class="ana_st12"
			d="M59.21,64.1c-4.49,0.56-8.9,1.45-13.14,3.06c-2.9,1.1-5.63,2.5-8.05,4.46c-1.07,0.87-2.03,1.83-2.87,2.92
		c-0.91,1.18-1.54,2.48-1.78,3.98c-0.32,1.96-0.48,3.92-0.1,5.88c0.32,1.65,1.03,3.08,2.33,4.19c-0.06,0.04-0.11,0.09-0.17,0.13
		c-1.43-0.79-2.4-2-3.09-3.45c-0.53-1.1-0.84-2.26-0.96-3.47c-0.09-0.96,0.15-1.88,0.39-2.8c0.94-3.54,2.96-6.35,5.79-8.62
		c2.51-2,5.36-3.33,8.39-4.3c3.02-0.97,6.13-1.53,9.28-1.86c1.26-0.13,2.53-0.22,3.8-0.29C59.09,63.99,59.15,64.04,59.21,64.1z" />
		<path class="ana_st0" d="M66.55,64.32c1.29,0.96,2.69,1.47,4.09,1.98c1.7,0.62,3.44,1.12,5.22,1.61c-0.31,0.2-0.63,0.19-0.93,0.26
		c-1.57,0.4-3.04,1.05-4.47,1.79c-1.97,1.02-3.85,2.2-5.66,3.47c-0.18,0.13-0.36,0.25-0.59,0.4c-0.09-0.28-0.03-0.5,0.01-0.73
		c0.35-2.36,0.99-4.64,1.71-6.9C66.12,65.6,66.33,65,66.55,64.32z" />
		<path class="ana_st2" d="M6.03,127.8c1.82,0.08,3.55,0.16,5.28,0.25c2.15,0.11,4.31,0.22,6.46,0.32c0.53,0.03,0.54,0.02,0.66,0.54
		c0.22,0.92,0.44,1.84,0.66,2.75c-0.12,0.15-0.27,0.09-0.4,0.08c-3.5-0.17-7-0.35-10.51-0.5c-0.52-0.02-0.78-0.21-0.96-0.69
		c-0.29-0.77-0.67-1.51-1.01-2.26C6.16,128.16,6.11,128.01,6.03,127.8z" />
		<path class="ana_st6" d="M94.35,155.78c1.84-2.01,3.65-3.9,4.65-6.46c0.74,0.43,1.33,1,1.82,1.67c1.2,1.66,1.37,3.49,0.82,5.41
		c-0.1,0.35-0.22,0.69-0.35,1.03c-0.2,0.53-0.22,0.53-0.74,0.33c-1.09-0.43-2.18-0.86-3.29-1.23
		C96.36,156.23,95.44,155.95,94.35,155.78z" />
		<path class="ana_st3" d="M18.09,126.6c-1.17-0.09-2.25-0.17-3.33-0.25c-0.08-0.01-0.16-0.02-0.24-0.02c-1.07,0.05-2.13-0.08-3.19-0.16
		c-1.56-0.11-3.13-0.12-4.69-0.32c-0.34-0.04-0.69-0.02-1.03-0.02c-0.16,0-0.33,0.01-0.42-0.16c-0.33-0.62-0.69-1.23-0.72-1.97
		c-0.03-0.81,0.25-1.09,1.05-1.14c0.77-0.05,1.53,0.05,2.29,0.15c1.88,0.24,3.71,0.67,5.5,1.32c1.54,0.55,3.02,1.24,4.37,2.17
		C17.8,126.29,17.95,126.36,18.09,126.6z" />
		<path class="ana_st2" d="M20.2,137.81c-1.37-0.41-2.64-0.79-3.91-1.17c-2.25-0.67-4.51-1.35-6.77-2c-0.43-0.12-0.72-0.29-0.75-0.78
		c-0.02-0.28-0.12-0.55-0.18-0.84c0.27-0.1,0.53-0.04,0.78-0.02c2.97,0.24,5.94,0.48,8.91,0.72c1,0.08,1,0.07,1.22,1.04
		C19.73,135.74,19.95,136.72,20.2,137.81z" />
		<path class="ana_st3" d="M126.12,104.46c-2.53,0.51-10.03-2.77-11.88-5.18c0.07-0.14,0.22-0.16,0.35-0.18c1.49-0.2,2.96-0.12,4.41,0.29
		c2.74,0.78,4.95,2.36,6.75,4.54C125.87,104.09,126.05,104.2,126.12,104.46z" />
		<path class="ana_st3" d="M126.36,164.34c-7.56-1.22-15.12-2.44-22.74-3.67c0.35-0.7,0.5-1.37,0.52-2.15c7.45,1.91,14.86,3.8,22.26,5.69
		C126.39,164.26,126.37,164.3,126.36,164.34z" />
		<path class="ana_st8" d="M56.8,130.3c0.58,1.02,0.87,2.14,1.15,3.26c0.04,0.16,0.06,0.35-0.17,0.37c-0.83,0.05-1.52,0.45-2.21,0.87
		c-0.77-0.57-1.55-1.13-2.32-1.71c-1.96-1.47-3.69-3.2-5.38-4.97c-0.03-0.03-0.04-0.07-0.06-0.1l-0.01,0.01
		c0.53,0.01,0.94,0.35,1.4,0.54c1.98,0.82,4.03,1.37,6.14,1.74c0.32,0.05,0.64,0.07,0.95,0.13C56.47,130.45,56.67,130.48,56.8,130.3
		z" />
		<path class="ana_st13" d="M76.02,82.66c-0.03,0.1-0.06,0.19-0.19,0.21c-1.43,0.25-2.81,0.69-4.14,1.24c-1,0.41-1.98,0.88-2.93,1.41
		c-1.18,0.66-2.31,1.39-3.42,2.15c-1.37,0.94-2.69,1.95-3.97,3.02c-0.8,0.67-1.6,1.33-2.42,1.99c-0.13,0.11-0.25,0.2-0.24,0.39
		c-1.09,0-2.15-0.22-3.22-0.49c0.05-0.08,0.07-0.12,0.1-0.14c3.18-2.05,6.3-4.21,9.62-6.04c2.05-1.12,4.12-2.2,6.38-2.86
		C73.04,83.12,74.51,82.8,76.02,82.66z" />
		<path class="ana_st2" d="M21.65,140.58c-1.11,0.05-2.21,0.1-3.32,0.14c-1.85,0.07-3.7,0.13-5.56,0.21c-0.32,0.01-0.52-0.03-0.68-0.34
		c-0.55-0.99-1.12-1.95-1.69-2.93c-0.05-0.09-0.11-0.17-0.08-0.31c0.95,0.16,1.9,0.32,2.85,0.48c2.56,0.43,5.12,0.88,7.68,1.29
		c0.33,0.05,0.51,0.17,0.56,0.49C21.47,139.92,21.64,140.21,21.65,140.58z" />
		<path class="ana_st3" d="M103.17,97.94c0.94-0.99,1.92-1.79,3.2-2.16c1.56-0.45,3.35,0.88,3.34,2.49c-0.01,1.08-0.4,1.96-1.06,2.75
		c-0.42,0.51-0.9,0.98-1.51,1.28c-0.13,0.06-0.25,0.13-0.39,0.17c-0.24,0.06-0.34-0.04-0.3-0.29c0.17-0.95,0.04-1.88-0.26-2.79
		c-0.41-1.24-1.31-1.72-2.59-1.43C103.49,97.98,103.38,98.02,103.17,97.94z" />
		<path class="ana_st13" d="M53.02,95.13c-0.02,0.28-0.26,0.34-0.46,0.42c-1.78,0.73-3.37,1.78-4.87,2.98c-0.92,0.73-1.69,1.62-2.53,2.42
		c-0.11,0.11-0.25,0.21-0.26,0.39c-0.69,0.49-1.5,0.68-2.31,0.86c-0.94,0.21-1.9,0.36-2.89,0.51c0.07-0.31,0.3-0.45,0.48-0.63
		c1.29-1.26,2.71-2.35,4.25-3.29C47.12,97.16,49.99,95.97,53.02,95.13z" />
		<path class="ana_st13" d="M71.97,96.27c2.89-2,5.65-4.08,8.91-5.45C80.3,94.68,76.25,96.89,71.97,96.27z" />
		<path class="ana_st3" d="M65.77,149.64c0.04-0.46,0.37-0.67,0.59-0.94c0.8-1,1.76-1.81,2.95-2.32c0.22-0.09,0.48-0.28,0.67-0.15
		c0.24,0.16,0.14,0.49,0.08,0.72c-0.21,0.96-0.5,1.9-1.06,2.73c-0.17,0.24-0.32,0.3-0.64,0.27
		C67.51,149.87,66.66,149.75,65.77,149.64z" />
		<path class="ana_st4" d="M104.79,112.77c-0.23-1.49-0.62-2.92-1.23-4.29c-0.1-0.21-0.13-0.36,0.15-0.46c0.81-0.3,1.61-0.63,2.42-0.93
		c0.32-0.12,0.42-0.03,0.37,0.3C106.23,109.27,105.7,111.07,104.79,112.77z" />
		<path class="ana_st4" d="M46.86,102.12c0.12,0.09,0.1,0.2,0.07,0.33c-0.21,0.89-0.04,1.7,0.45,2.46c0.11,0.17,0.22,0.34,0.2,0.55
		c-1.33,0.38-2.66,0.75-4,1.13c-0.01-0.16,0.07-0.22,0.14-0.28c1.19-1.22,2.21-2.56,3.02-4.06
		C46.77,102.2,46.82,102.16,46.86,102.12z" />
		<path class="ana_st0" d="M149.39,58.18c0-0.14,0.09-0.2,0.21-0.25c1.05-0.39,2.02-0.96,3.05-1.39c0.44-0.19,0.84-0.45,1.27-0.67
		c0.1-0.05,0.21-0.13,0.31,0.01c-1.5,0.92-3.1,1.63-4.72,2.31C149.48,58.2,149.43,58.19,149.39,58.18z" />
		<path class="ana_st4" d="M98.05,99.03c0-0.36,0-0.71,0-1.12c0.41,0.1,0.63,0.36,0.88,0.55c0.14,0.11,0.24,0.27,0.45,0.26
		c-0.05,0.17-0.17,0.25-0.34,0.26C98.71,99,98.38,99.02,98.05,99.03z" />
		<path class="ana_st0" d="M147.83,58.86c0.03-0.07,0.05-0.18,0.1-0.2c0.44-0.19,0.86-0.46,1.36-0.46
		C148.87,58.55,148.33,58.65,147.83,58.86z" />
		<path class="ana_st4" d="M59.21,64.1c-0.06-0.05-0.12-0.11-0.18-0.16c0.55-0.11,1.11-0.06,1.67-0.06
		C60.22,64.05,59.72,64.07,59.21,64.1z" />
		<path class="ana_st10" d="M35.43,88.72c0.06-0.04,0.11-0.09,0.17-0.13c0.28,0.2,0.65,0.3,0.82,0.64
		C36.08,89.09,35.71,88.98,35.43,88.72z" />
		<path class="ana_st4"
			d="M130.01,66.52c0-0.07,0-0.13,0-0.2c0.24,0.04,0.46,0.11,0.71,0.3C130.43,66.67,130.23,66.58,130.01,66.52z" />
		<path class="ana_st4" d="M128.57,124.38c0-0.05,0-0.1,0-0.14c0.13-0.13,0.3-0.13,0.49-0.18C128.93,124.25,128.76,124.33,128.57,124.38z
		" />
		<path class="ana_st11" d="M157.13,47.6c-0.13,0.27-0.3,0.21-0.48,0.06C156.81,47.61,156.97,47.57,157.13,47.6z" />
		<path class="ana_st4" d="M97.76,36.88c-0.16-0.05-0.38,0.02-0.42-0.24C97.57,36.57,97.63,36.78,97.76,36.88z" />
		<path class="ana_st3" d="M89.73,90.72c-0.09,0.07-0.17,0.03-0.24-0.03c0-0.05,0.01-0.11,0.01-0.16c0.1,0.04,0.17,0.11,0.22,0.21
		L89.73,90.72z" />
		<path class="ana_st3" d="M126.89,164.4c-0.04,0.01-0.08,0.02-0.11,0.02c-0.06-0.01-0.06-0.05-0.01-0.07c0.03-0.01,0.08,0.01,0.11,0.01
		C126.88,164.36,126.88,164.38,126.89,164.4z" />
		<path class="ana_st0" d="M90.77,139.61c0.04,0.08-0.01,0.09-0.07,0.09c0,0-0.01-0.02-0.01-0.02c0.03-0.02,0.06-0.04,0.1-0.05
		C90.79,139.62,90.77,139.61,90.77,139.61z" />
		<path class="ana_st10" d="M150.52,61.13c-0.06,0.08-0.13,0.11-0.19,0.03c-0.02-0.02,0.07-0.08,0.14-0.08
		C150.48,61.09,150.5,61.11,150.52,61.13z" />
		<path class="ana_st4" d="M120.82,105.14c-0.03-0.02-0.05-0.04-0.08-0.06c0.06-0.02,0.11-0.02,0.07,0.07
		C120.81,105.15,120.82,105.14,120.82,105.14z" />
		<path class="ana_st8" d="M47.82,128.01c-0.02-0.01-0.05-0.02-0.05-0.03C47.78,127.95,47.8,127.96,47.82,128.01
		C47.81,128.02,47.82,128.01,47.82,128.01z" />
		<path class="ana_st10" d="M181.68,43.12c-0.01,0.01-0.02,0.03-0.04,0.03c-0.01,0-0.02-0.02-0.03-0.03c0.01-0.01,0.02-0.03,0.04-0.03
		C181.66,43.09,181.67,43.11,181.68,43.12z" />
		<path class="ana_st3" d="M89.72,90.73c0.02,0.03,0.04,0.05,0.07,0.08c-0.08,0.01-0.1-0.02-0.05-0.09
		C89.73,90.72,89.72,90.73,89.72,90.73z" />
		<path class="ana_st1" d="M64.53,119.06c-0.04,0.04-0.08,0.08-0.12,0.13C64.29,118.99,64.47,119.09,64.53,119.06z" />
		<path class="ana_st1" d="M155.41,55.12c0.1,0.12,0.05,0.22-0.06,0.31c-0.03-0.04-0.07-0.08-0.1-0.12
		C155.31,55.25,155.36,55.19,155.41,55.12L155.41,55.12z" />
		<path class="ana_st1" d="M155.42,55.12c0.02,0.01,0.04,0.01,0.06,0.02C155.46,55.14,155.44,55.13,155.42,55.12
		C155.41,55.12,155.42,55.12,155.42,55.12z" />
	</g>
</svg>