<svg id="Layer_1" data-name="Layer 1" xmlns="http://www.w3.org/2000/svg" xmlns:xlink="http://www.w3.org/1999/xlink" viewBox="0 0 891.117 1079.073"><defs><radialGradient id="radial-gradient" cx="550.874" cy="467.805" r="197.194" gradientTransform="translate(-313.53 -313.53) scale(1.581 1.581)" gradientUnits="userSpaceOnUse"><stop offset="0" stop-color="#c20000"/><stop offset="1" stop-color="#5e0000"/></radialGradient><radialGradient id="radial-gradient-2" cx="540.207" cy="764.019" r="108.872" gradientTransform="translate(-313.53 134.022) scale(1.581 0.995)" xlink:href="#radial-gradient"/><linearGradient id="linear-gradient" x1="534.388" y1="619.841" x2="534.388" y2="732.736" gradientUnits="userSpaceOnUse"><stop offset="0.531" stop-color="#ec2224"/><stop offset="0.542" stop-color="#7f1416"/><stop offset="1" stop-color="#c20000"/></linearGradient></defs><path d="M868.963,214.373c-1.846-9.293-51.924-14.9-59.535-16.462Q770.787,190,731.839,183.7c-156.825-25.387-313.507-15.8-468.573,15.684a350.576,350.576,0,0,0-52.229,15L104.229,841.87S359.593,925.58,540,1069.378c180.409-143.8,435.769-227.512,435.769-227.512S868.965,214.382,868.963,214.373Z" transform="translate(-94.441 -1.378)" style="fill:none;stroke:#fff;stroke-width:17.3172054290772px"/><path d="M868.963,214.373c-1.846-9.293-51.924-14.9-59.535-16.462Q770.787,190,731.839,183.7c-156.825-25.387-313.507-15.8-468.573,15.684a350.576,350.576,0,0,0-52.229,15L104.229,841.87S359.593,925.58,540,1069.378c180.409-143.8,435.769-227.512,435.769-227.512S868.965,214.382,868.963,214.373Z" transform="translate(-94.441 -1.378)"/><path d="M869.01,567.3c-24.544-144.191-51.9-304.905-51.9-304.909-1.555-7.828-43.74-12.555-50.151-13.867q-32.551-6.665-65.359-11.975C569.5,215.165,437.511,223.241,306.887,249.762a295.16,295.16,0,0,0-44,12.633L210.991,567.3Z" transform="translate(-94.441 -1.378)" style="fill:url(#radial-gradient)"/><path d="M854.668,152.71a28.985,28.985,0,0,0-26.912-18.058c-.33,0-.659.007-1.049.018a29.111,29.111,0,0,0-26.048,18.471,12.9,12.9,0,0,1-2.959,4.316c-5.329,5.118-15.663,7.915-29.949,8.119-14.709-8.784-29.016-14.118-38.3-16.409-4.706-12.447-10.725-27.023-17.6-42.6a29.182,29.182,0,0,0-4.8-7.489,29.158,29.158,0,0,0-3.189-7.551q-.165-.275-.34-.55a28.666,28.666,0,0,0-2.335-7.9c-1.386-3.015-2.778-5.947-4.137-8.784-2.255-4.731-4.651-9.653-7.327-15.046-9.676-19.505-17.212-32.973-22.41-40.045-6-8.133-18.035-17.829-41.273-17.829-15.335,0-31.773,3.919-43.741,6.772l-.338.081c-3.871.914-10.349,2.445-12.118,2.573-1.031.044-2.166.066-3.373.066-3.18,0-6.895-.145-11.309-.438-3.106-.219-6.364-.474-9.651-.753l-.6-.046c-1.442-.1-2.895-.231-4.408-.363l-2.6-.221c-6.528-.582-14.224-1.242-21.817-1.716-.782-.049-1.577-.073-2.368-.073-25.4,0-42.239,23.31-60.085,48.019l-.076.106c-6.456,8.93-13.133,18.164-19.428,25.085-.461.5-.939,1-1.42,1.485l-.426.422c-.408.408-.823.814-1.263,1.23l-.4.374c-.546.511-1.1,1.018-1.72,1.564l-.072.063c-.631.555-1.273,1.1-1.866,1.6,0,.005-.116.1-.137.112-.657.547-1.326,1.086-2.062,1.667l-.177.141c-8.833,6.947-19.895,13.571-29.69,19.435l-.622.376c-21.81,13.124-34.35,21.246-38.46,35.487-2.4,8.177-3.64,20.223-3.769,36.771-94.617,60.353-139.092,127.474-132.211,199.563,2.238,23.748,14.3,45.429,34.893,62.709q.675.6,1.386,1.149l.14.11c2.641,2.154,5.477,4.265,8.415,6.269,2.017,1.379,3.861,2.58,5.638,3.67a28.977,28.977,0,0,0,6.745,3.033,28.977,28.977,0,0,0,6.245,4.075c22.109,10.683,47.806,16.371,74.36,16.463-.006.012-.014.022-.02.034a24.551,24.551,0,0,0-1.59,2.887,39.373,39.373,0,0,0-2.679,8.2c-.368,1.637-.7,3.435-1.049,5.647-.232,1.469-.448,2.963-.654,4.428-.231,1.625-.455,3.2-.7,4.635-.2,1.193-.387,2.109-.55,2.709a52.693,52.693,0,0,1-2.624,7.75,26.9,26.9,0,0,1-6.5,9.245l-.388.325a22.812,22.812,0,0,1-2.2,1.655,23.381,23.381,0,0,1-2.138,1.294,29.307,29.307,0,0,0-9.008,7.2,34.574,34.574,0,0,0-7.487,17.332,49.311,49.311,0,0,0-.536,8.538c.021,1.026.076,2.106.169,3.286.116,1.487.29,3,.519,4.507.2,1.325.456,2.676.75,4a59.525,59.525,0,0,0,1.571,5.774c1.968,5.984,4.564,10.616,7.715,13.764a13.133,13.133,0,0,1,1.053,1.176c-2.415,4.426-7.049,13.419-7.318,23.261a28.611,28.611,0,0,0,1.551,10.357,25.376,25.376,0,0,0,3.715,6.9c.813,1.077,1.651,2.129,2.489,3.152.787.957,1.578,1.9,2.295,2.737l.723.863c.559.667,1.868,2.23,2.856,3.548l-.121.379c-.735,2.3-1.68,5.388-2.47,8.93-.114.508-.222,1.024-.33,1.557a66.668,66.668,0,0,0-1.051,7.1c-.148,1.625-.226,3.253-.232,4.845a41.664,41.664,0,0,0,6.4,23.113,38.393,38.393,0,0,0,9.638,9.914c13.993,10.315,36.378,16.02,52.688,18.989,1.835.334,3.678.648,5.518.942l1,.159q3.113.481,6.23.9c2.222.293,4.441.559,6.633.792,3.3.356,6.592.647,9.8.871.652.045,1.317.075,1.981.1l.8.036c3.006.148,5.732.22,8.331.22,7.092,0,14.839-.417,23.027-1.241a374.524,374.524,0,0,0,41.4-6.722l2.431-.535c6.648-1.477,12.085-2.847,15.468-3.734.95-.248,1.805-.476,2.551-.679.938-.252,1.924-.555,2.926-.9.944-.323,1.922-.686,2.958-1.1.482-.193.97-.4,1.453-.6,8.375-3.59,21.079-11.125,29.327-20.559.619-.709,1.217-1.421,1.764-2.129.765-.986,1.471-1.986,2.1-2.968a31.3,31.3,0,0,0,2.618-5.007,2.367,2.367,0,0,1,.61-.967,15.29,15.29,0,0,1,2.169-1.457,25.479,25.479,0,0,0,7.53-6.242,18.131,18.131,0,0,0,3.658-8.969l.185-1.481a68.586,68.586,0,0,0,.609-9.684c-.011-.785-.047-1.584-.1-2.392-.081-1.249-.213-2.485-.394-3.67a32.277,32.277,0,0,0-2.51-8.588,25.4,25.4,0,0,0-3.949-6.172,23.308,23.308,0,0,0-2.162-2.159c1.442-11.95.149-21.591-3.847-28.758.081-.226.164-.453.245-.685.457-1.291.877-2.6,1.248-3.895.131-.46.259-.926.384-1.4a56.951,56.951,0,0,0,1.284-6.32c.23-1.609.382-3.2.453-4.723.027-.624.047-1.249.048-1.849a41.439,41.439,0,0,0-.332-5.492,35.209,35.209,0,0,0-3.254-11.012c.058-.217.114-.437.168-.656.226-.922.418-1.834.57-2.7.067-.389.13-.777.187-1.169.221-.362,1.437-2.38,1.437-2.38,1.491-2.5,2.808-4.8,3.936-6.881,35.288,17.4,56.653,36.273,63.567,56.173.137.4.283.787.438,1.175a27.72,27.72,0,0,0,24.621,17.942q.686.033,1.365.032a27.785,27.785,0,0,0,25.378-16.508c3.443-7.763,7.29-16.776,11.126-26.076,21.188-51.508,56.723-149.365,57.118-226.958a127.474,127.474,0,0,0-1.26-34.939,379.622,379.622,0,0,0,38.274-28.68l.468-.4c1.193-1.026,2.382-2.065,3.588-3.137l.686-.613c1.075-.959,2.151-1.932,3.234-2.93l.778-.718q1.458-1.35,2.9-2.732l1.19-1.138c.99-.954,1.973-1.916,2.878-2.82.5-.491.99-.989,1.452-1.456.717-.726,1.431-1.458,2.152-2.2q1.424-1.473,2.818-2.974s1.1-1.176,1.489-1.6c.508-.556,1.009-1.113,1.52-1.684l.28-.315c.581-.651,1.161-1.3,1.778-2.008.532-.611,1.059-1.221,1.608-1.865.662-.778,1.313-1.559,1.984-2.369,0,0,1.019-1.233,1.362-1.658.934-1.155,1.849-2.32,2.684-3.4l.592-.762q1.664-2.179,3.244-4.4c.186-.261.706-1.01.715-1.023.83-1.18,1.644-2.367,2.5-3.662l.777-1.192c.776-1.194,1.53-2.392,2.284-3.628l.681-1.122c.878-1.468,1.721-2.939,2.465-4.3l.319-.575c1.867-3.437,3.576-6.965,5.072-10.469.124-.288.454-1.095.461-1.109.6-1.448,1.169-2.908,1.69-4.33.168-.458.333-.914.489-1.359.522-1.489,1.02-3.021,1.449-4.454,0,0,.261-.844.364-1.2.6-2.09,1.09-3.991,1.491-5.8A83.01,83.01,0,0,0,854.668,152.71Z" transform="translate(-94.441 -1.378)" style="fill:#fcfcfc"/><path d="M843.393,154.578a17.188,17.188,0,0,0-15.9-10.67q-.309,0-.619.01a17.209,17.209,0,0,0-15.426,11,24.862,24.862,0,0,1-5.767,8.481c-7.909,7.6-21.332,11.448-39.894,11.448q-.813,0-1.645-.011C747.052,164.113,731,158.923,723.8,157.511c-1-.2-2.159-.366-3.425-.512-4.833-13.341-11.676-30.139-19.681-48.268a17.177,17.177,0,0,0-4.913-6.417,16.654,16.654,0,0,0-4.126-9.65,17.162,17.162,0,0,0-1.552-7.259q-2.037-4.431-4.066-8.633c-2.234-4.688-4.6-9.554-7.244-14.876-6.443-12.988-15.369-30.166-21.325-38.268-6.362-8.623-17.027-12.995-31.7-12.995-13.93,0-29.6,3.736-41.014,6.456l-.33.078c-5.793,1.368-11.783,2.782-14.338,2.88-1.188.052-2.5.078-3.889.078-3.436,0-7.431-.154-12.146-.467-3.163-.224-6.477-.482-9.893-.773-.1-.009-.256-.019-.385-.028-1.507-.11-3.023-.241-4.556-.374l-2.649-.226c-6.444-.575-14.037-1.226-21.5-1.692-.539-.033-1.085-.05-1.628-.05-19.319,0-33.731,19.952-50.418,43.055l-.085.119c-6.654,9.205-13.534,18.723-20.331,26.2-.567.616-1.153,1.224-1.745,1.825l-.454.45c-.481.481-.971.958-1.494,1.453l-.444.42q-.945.882-1.922,1.748l-.089.079c-.728.64-1.469,1.271-2.152,1.841l-.154.126c-.731.607-1.473,1.206-2.265,1.833l-.22.174c-9.43,7.417-20.821,14.237-30.907,20.276l-.626.377c-21.422,12.892-30.423,19.1-33.18,28.647-2.168,7.379-3.277,19.459-3.295,35.9a17.091,17.091,0,0,0,.434,3.82c-94.613,58.752-139.251,123.383-132.688,192.141,1.945,20.626,12.6,39.57,30.821,54.817q.451.4.925.772c.1.077.195.155.292.229,2.391,1.953,4.977,3.879,7.668,5.714,1.845,1.263,3.526,2.358,5.14,3.347a17.158,17.158,0,0,0,6.456,2.344,17.169,17.169,0,0,0,5.49,4.195c20.687,10,44.835,15.279,69.832,15.279h.008a182.281,182.281,0,0,0,70.887-14.422,17.188,17.188,0,0,0,9.576-21.22c-1.438-4.34-2.726-7.974-3.762-10.895-.888-2.5-1.708-4.82-2.5-7.208a17.165,17.165,0,0,0-4.472-7.039,17.182,17.182,0,0,0-.848-10.559c-.208-.5-.587-1.464-.975-2.72a17.18,17.18,0,0,0,9.708-9.174l3.365-7.65c.4-.9.811-1.779,1.221-2.618l5.009-10.271a17.189,17.189,0,0,0-7.293-22.666L427.9,331.826a126.652,126.652,0,0,0-13.755-6.35q.517-.541,1.042-1.083l.618-.625c.566-.571,1.141-1.136,1.653-1.634l1.719-1.642c.7-.659,1.4-1.313,2.155-1.992l.7-.629c.85-.757,1.715-1.5,2.549-2.212l.723-.624c.193-.149.384-.3.57-.461.031-.025.067-.054.1-.085q1.05-.871,2.118-1.729l.373-.3c.211-.158.419-.319.622-.487.221-.181.446-.357.672-.534l.186-.144c.6-.465,1.2-.929,1.763-1.359l2.04-1.524c.724-.532,1.452-1.066,2.215-1.611.526-.374,1.051-.751,1.588-1.117l.193-.134c.945-.66,1.891-1.321,2.855-1.968l.186-.124c1.192-.8,2.4-1.584,3.645-2.379l.807-.517c.985-.623,1.982-1.237,2.94-1.822l.882-.541c.226-.131.453-.27.679-.412l1.447-.854c.768-.454,1.535-.911,2.315-1.346.1-.058,1.284-.741,1.284-.741l2.491-1.4c.252-.139.5-.28.755-.413.139-.073,1.4-.767,1.4-.767.7-.381,2.478-1.322,2.478-1.322.232-.121.464-.245.7-.362q.291-.144.577-.3c1.378-.75,2.811-1.488,4.381-2.255l1.028-.508c1.222-.606,2.448-1.208,3.624-1.772l.342-.163q2.576-1.227,5.2-2.423l2.2-.984c.913-.409,1.827-.82,2.738-1.219,1.345-.588,2.7-1.162,4.046-1.73l1.083-.461c1.6-.687,3.229-1.335,4.878-1.994,0,0,.29-.116.357-.145.239-.1,2.953-1.167,2.953-1.167l2.3-.88c1.784-.708,3.528-1.369,5.184-1.966l.242-.089c1.192-.449,2.383-.878,3.574-1.306l.814-.3q.493-.155.981-.338c1.678-.6,3.39-1.2,5.1-1.776.07-.023,1.017-.351,1.017-.351,1.467-.5,2.925-.98,4.459-1.483l.211-.071c.792-.273,1.579-.519,2.366-.769l2.089-.669c.987-.312,4.95-1.543,4.95-1.543,1.147-.351,2.295-.7,3.52-1.062l1.568-.468c.8-.238,1.59-.473,2.441-.72l1.74-.5c1.019-.29,2.038-.578,3.051-.856.374-.1.754-.214,1.209-.353.019-.007.039-.012.059-.018,1.452-.421,2.928-.815,4.377-1.2l.167-.045c.729-.2,1.451-.393,2.174-.585l2.309-.613,1.775-.463,5.514-1.407c1.3-.326,2.6-.644,3.907-.965l1.436-.35q2.065-.5,4.117-.978l1.514-.354q5.217-1.2,10.386-2.335l.113-.023q4.933-1.072,9.766-2.052l5.133-1.024c2-.4,3.984-.783,5.974-1.147l.275-.053c.851-.171,1.724-.33,2.585-.477l.218-.039c8.426-1.556,17.1-3.022,25.724-4.352l.629-.1c1.755-.27,3.491-.529,5.248-.787l1.6-.234c1.414-.207,2.816-.406,4.243-.606l1.469-.208c3.708-.512,7.326-.993,10.826-1.433l1.374-.179c3.526-.442,6.94-.853,10.285-1.235l1.848-.21c7.547-.845,14.582-1.552,20.956-2.106l1.112-.1c.747-.07,1.473-.137,2.188-.192.111-.009,1.125-.1,1.513-.133l1.868-.154,5.264-.4q.411-.027.82-.073l5.941-.4c1.1,1.6,2.529,3.734,4.248,6.427l.139.237c.119.206.242.408.37.608,9.537,14.968-3.966,21.635-3.713,24.336-1.613,2.291,7.248,10.646,6.426,13.819-1.929,7.414,3.823,11.428,4.345,18.456A17.188,17.188,0,0,0,729.8,311.4s.591.238.7.279a17.138,17.138,0,0,0,5.981,1.076h.189a17.156,17.156,0,0,0,8.835-2.555l2.369-1.478a371.982,371.982,0,0,0,43.338-31.8l.475-.41q1.716-1.476,3.419-2.989l.691-.617q1.547-1.379,3.082-2.792l.765-.707c.929-.86,1.853-1.731,2.767-2.6l1.154-1.1c.941-.908,1.876-1.823,2.77-2.714.464-.46.924-.925,1.358-1.364q1.03-1.041,2.053-2.1c.9-.936,1.8-1.881,2.688-2.836,0,0,1.046-1.119,1.4-1.5q.719-.786,1.425-1.58l.28-.312c.555-.623,1.108-1.245,1.683-1.9.506-.581,1.008-1.162,1.519-1.762.627-.737,1.244-1.477,1.878-2.241l.3-.359c.331-.4.661-.8.979-1.193.874-1.082,1.732-2.172,2.559-3.248l.516-.659c1.032-1.354,2.036-2.721,3.01-4.085.173-.242.675-.965.675-.965.769-1.093,1.521-2.192,2.269-3.318l.762-1.167q1.073-1.65,2.088-3.316l.647-1.067c.807-1.349,1.585-2.706,2.28-3.976l.259-.464c1.693-3.118,3.24-6.311,4.59-9.476.109-.253.407-.981.407-.981.539-1.3,1.05-2.612,1.507-3.864.15-.405.3-.809.435-1.2.456-1.3.9-2.652,1.31-4.034,0,0,.217-.7.3-.972.535-1.865.966-3.539,1.313-5.1A71.336,71.336,0,0,0,843.393,154.578Z" transform="translate(-94.441 -1.378)"/><path d="M720.688,254.771c-4.563,6.24-4.169,18.641-2.963,28.29l-33.587-16.23-4.483-2.123-2.911,4.038c-.078.131-10.094,13.791-38.123,28.133a215.681,215.681,0,0,0-28.5,17.75c-9.858,7-16.361,11.616-27.4,13.136-21.657,2.989-51.73,14.473-53.225,15.05-26.612,11.51-57.21,23.518-62.323,23.676-2.648,0-9.334-1.233-17.226-2.91-7.132-1.521-15.26-3.435-22.286-5.166,2.91-6.922,5.453-14.735,5.165-24.253-.315-10.225-4.8-14.656-8.5-16.544a15.667,15.667,0,0,0-5.375-1.573c78.369-71.605,254.693-95.936,280.257-99.135,1.049,1.285,2.543,3.147,4.379,5.611.76,1,1.573,2.124,2.464,3.33l.394.551C723.047,249.212,721.238,254.037,720.688,254.771Z" transform="translate(-94.441 -1.378)" style="fill:#b36932"/><path d="M651.811,280.161s-8.781,10.015-12.485,13.034c0,0,10.015-6.037,15.5-9.192s9.878-5.625,9.878-5.625S655.571,280.781,651.811,280.161Z" transform="translate(-94.441 -1.378)" style="fill:#cc9266"/><path d="M714.508,266.922s-3.155,1.235-4.116,3.773-5.213,4.184-5.213,4.184l10.015,4.871S713.754,270.078,714.508,266.922Z" transform="translate(-94.441 -1.378)" style="fill:#f08c3e"/><path d="M569.357,254.643s60.228-.806,73.948,2.684,18.647-5.016,18.647-5.016,5.773.463,6.871,5.856,1.372,8.138,1.372,8.138a34.855,34.855,0,0,0,2.195-8.978c.274-4.193,0-5.016,0-5.016s2.926,9.146,3.018,11.524c0,0,1.463-10.975,4.39-13.262,0,0,.549,5.122,7.774,1.464s11.159-7.409,16.464-9.512,3.109-9.878,1.555-11.708a33.657,33.657,0,0,0-5.214-4.3s-23.963,9.878-28.628,16.829c0,0-36.127-4.477-63.017-1.324S573.885,249.842,569.357,254.643Z" transform="translate(-94.441 -1.378)" style="fill:#f08c3e"/><path d="M640.2,244.994c22.522,1.53,32.926,1.546,32.926,1.546s18.11-13.07,27.256-16.363c0,0,4.756,3.476,2.2,8.049s-19.024,11.89-19.024,11.89-4.756.366-4.573-2.2c0,0-3.841,3.5-3.7,5.831L671.7,249.7l-1.509,5.831s-5.557-5.145-10.29-5.762c0,0-3.773,7-19.413,4.047s-50.35-3.5-50.35-3.5S608.732,242.856,640.2,244.994Z" transform="translate(-94.441 -1.378)" style="fill:#ffae6e"/><path d="M490.38,354.344s-9.147,3.88-18.293,3.149l11.707-5.122a36.3,36.3,0,0,1-8.414-19.024s35.362,9.146,56.461-9.878c0,0-33.413-2.423-18.779-33.224,0,0,16.741-15.434,29.611-18l-15.708,21.585s23.621-10.61,34.31-11.707l-16.75,21.585s31.463-12.073,42.439-9.512,16.349,10.7,31.463,8.048c0,0-9.731,15.486-31.463,19.565-31.463,5.906-65.229,18.568-75.839,22.593A159.907,159.907,0,0,0,490.38,354.344Z" transform="translate(-94.441 -1.378)" style="fill:#f08c3e"/><path d="M548.55,290.245s-8.415,8.895-9.695,17.858c0,0,34.389-11.89,43.719-9.695s16.829,7.683,27.8,7.5c0,0-6.4,11.142-37.682,15.906s-81.951,28.911-81.951,28.911-5.065-.572-8.414-8.6c0,0,35.853.183,59.268-23.048,0,0-18.714,3.34-25.427-6.769s-2.32-22.916,15.669-32.86c0,0-7.8,12.739-7.8,18.043C524.038,297.493,537.94,291.7,548.55,290.245Z" transform="translate(-94.441 -1.378)" style="fill:#ffae6e"/><path d="M661.952,257.327s2.548,6.585-12.817,5.488-65.853-6.888-81.219.123a99.332,99.332,0,0,0-25.243,16.512s45.631-11.112,63.741-8.192c0,0-26.974,1.968-39.6,18.987,0,0,25.792-6.593,32.926,0s31.829,12.63,51.036-14.26C650.781,275.985,676.965,279.827,661.952,257.327Z" transform="translate(-94.441 -1.378)"/><path d="M640.574,276.593a16.917,16.917,0,0,1-1.5,1.862c-.157.157-.288.315-.445.5-.577.577-1.285,1.259-2.1,1.967-.157.131-.314.262-.5.419a27.221,27.221,0,0,1-2.229,1.6v.026c-.236.105-.445.262-.681.393a28.614,28.614,0,0,1-3.356,1.7h-.053c-.288.1-.6.236-.918.341-4.745,1.678-10.907,2.1-18.353-.891-.079-.026-.157-.079-.236-.105-.21-.079-.419-.184-.655-.288a1.155,1.155,0,0,1-.263-.105q-1.179-.512-2.438-1.18-.708-.354-1.416-.787c-.655-.367-1.337-.76-2.019-1.206,0,0,.027,0,.053-.052h.026c.105-.053.236-.131.419-.21.368-.184.918-.472,1.652-.787.341-.131.708-.288,1.128-.445.655-.262,1.415-.551,2.281-.84a59.247,59.247,0,0,1,17.7-2.91c2.228-.026,4.614.027,7.131.21,1.18.079,2.386.184,3.619.341.262.026.524.079.812.131h.027C639.027,276.358,639.787,276.463,640.574,276.593Z" transform="translate(-94.441 -1.378)" style="fill:#fff"/><path d="M640.574,276.593a16.917,16.917,0,0,1-1.5,1.862c-.157.157-.288.315-.445.5-.577.577-1.285,1.259-2.1,1.967-.157.131-.314.262-.5.419a27.221,27.221,0,0,1-2.229,1.6v.026c-.236.105-.445.262-.681.393a28.614,28.614,0,0,1-3.356,1.7h-.053c-.288.1-.6.236-.918.341-4.745,1.678-10.907,2.1-18.353-.891-.079-.026-.157-.079-.236-.105-.21-.079-.419-.184-.655-.288a1.155,1.155,0,0,1-.263-.105q-1.179-.512-2.438-1.18-.708-.354-1.416-.787c-.655-.367-1.337-.76-2.019-1.206,0,0,.027,0,.053-.052h.026c.105-.053.236-.131.419-.21.368-.184.918-.472,1.652-.787.341-.131.708-.288,1.128-.445,0,.026-.027.052-.027.105-.209.838-.576,1.625.158,1.7.734.052,1.284-.42,1.18.183a3.047,3.047,0,0,0,0,1.075s1.18,0,1.284.263a1.679,1.679,0,0,0,.551.839c.315.209-.052,0,.682.34s.917-.236,1.284.315c.367.524.735.944,1.1.917s1.337,0,1.337,0l1.311.315a4.923,4.923,0,0,0,1.416.393,14.244,14.244,0,0,0,2.123.315c1.416.131,2.649-.131,3.042,0,.21.079-.026.236-.131.315a4.043,4.043,0,0,0,.55-.184,7.971,7.971,0,0,1,2.727-.446s-.577-.5,0-.708,1.835-.576,1.835-.576-2.018-.315-.472-.472,2.413,0,1.914-.524c-.524-.525.577-.918.577-.918s-.577-.787-.393-.813,1.993-.629,1.993-.629-4.51-1.1-1.6-1.547a13.561,13.561,0,0,1,4.3-.157,9.666,9.666,0,0,0,1.233,0c-.131-.079-1-.735-1-.735l.839-.34,2.412-1.181h-3.854l1.731-.524s-1.1-.5-1-.865c1.18.079,2.386.184,3.619.341.262.026.524.079.812.131h.027C639.027,276.358,639.787,276.463,640.574,276.593Z" transform="translate(-94.441 -1.378)" style="fill:#edc5c5"/><path d="M608.822,280.579l-.917,1.363v1.049l-1.049-.157q-.708-.354-1.416-.787l1.888.341v-.419Z" transform="translate(-94.441 -1.378)" style="fill:#c20000"/><path d="M608.429,279.609l-1.468.131-1.1.6-.656-.157-.944.393.053.315-.813-.105c.105-.053.236-.131.419-.21.368-.184.918-.472,1.652-.787l.525.184.576-.524Z" transform="translate(-94.441 -1.378)" style="fill:#c20000"/><path d="M611.025,283.044l-.918.1-.5.735-.052.236a1.155,1.155,0,0,1-.263-.105l.079-.131.5-.971Z" transform="translate(-94.441 -1.378)" style="fill:#c20000"/><path d="M612.283,283.516l-1.363.524-.472.472c-.079-.026-.157-.079-.236-.105l.315-.551Z" transform="translate(-94.441 -1.378)" style="fill:#c20000"/><path d="M633.809,282.939v.026c-.236.105-.445.262-.681.393l-.97-.734-2.491.367v-1.049l-.918-1.363,1.5,1.39v.419l1.887-.341Z" transform="translate(-94.441 -1.378)" style="fill:#c20000"/><path d="M636.536,280.92c-.157.131-.314.262-.5.419l-1.94-.55-.839.105.052-.315-.944-.393-.655.157-1.1-.6-1.469-.131,1.757-.157.577.524.655-.236-.314-.5-.682-.6-.918.157,1.075-.419.761.786.524.446-.157.341.576.236.892-.341-.419.5.183.236h.629Z" transform="translate(-94.441 -1.378)" style="fill:#c20000"/><path d="M629.719,285.062c-.288.1-.6.236-.918.341l-.576-.445-.682-.027-.892-.891-1.363-.524,1.757.34.393.656.682-.026-.158-.6-.5-.735-.917-.1,1.153-.132.5.971.394.576-.236.289.472.393Z" transform="translate(-94.441 -1.378)" style="fill:#c20000"/><path d="M636.169,277.2l-1.652-.629.236.42-1.678-.394-1,.132.708-.289,2.019-.078,1.206.367,1.258-.577h.158c.262.026.524.079.812.131Z" transform="translate(-94.441 -1.378)" style="fill:#c20000"/><path d="M639.079,278.455c-.157.157-.288.315-.445.5l-.839-.472-.341.341-.525-.236-.865.367-.76-.5.76.262.5-.34-.576-.394-1.469.394h-.472l-.367.34-.813-.5.708.236.236-.262-.839-.524,1.285.393,1.757-.393,1.284.708.6-.551Z" transform="translate(-94.441 -1.378)" style="fill:#c20000"/><path d="M613.375,284.963a8.473,8.473,0,0,1-9.95-6.456c3.662-2.6,9.973-3.879,17.7-2.91C621.176,276.1,621.582,283.862,613.375,284.963Z" transform="translate(-94.441 -1.378)"/><path d="M679.02,255.817s-.378,4.889,6.288,1.313,28.321-16.791,35.908-14.927a35.832,35.832,0,0,1,13.031,6.413s-21.428.978-29.1,6.284c0,0,12.144-3.665,19.655,5.421,0,0-12.147.343-14.551,6.085s-13.789,16.4-25.331,1.911C684.92,268.317,674.941,273.686,679.02,255.817Z" transform="translate(-94.441 -1.378)"/><path d="M706.41,259.866a1.567,1.567,0,0,0-.445.734c-.027.052-.053.131-.105.236,0,.026-.026.052-.026.078a.488.488,0,0,0-.053.21,6.038,6.038,0,0,0-.262,1c-.026.053-.026.105-.053.158a1.817,1.817,0,0,1-.052.341c0,.026-.026.052-.026.1-.079.419-.131.891-.21,1.442v.078c0,.053-.026.132-.026.184a4.573,4.573,0,0,1-1.049,2.15,2.9,2.9,0,0,1-.393.419,5.633,5.633,0,0,1-1.1.944.536.536,0,0,1-.158.105,2.16,2.16,0,0,1-.524.315,1.257,1.257,0,0,1-.262.131c-2.911,1.52-7.289,1.862-11.983-.813,0,0,.394-.315,1.1-.813a5.033,5.033,0,0,1,.55-.393h.026a47.879,47.879,0,0,1,9.308-5.27v-.026c.394-.158.787-.289,1.18-.42h.026A14.169,14.169,0,0,1,706.41,259.866Z" transform="translate(-94.441 -1.378)" style="fill:#fff"/><path d="M706.41,259.866a1.567,1.567,0,0,0-.445.734c-.027.052-.053.131-.105.236,0,.026-.026.052-.026.078a.488.488,0,0,0-.053.21,6.038,6.038,0,0,0-.262,1c-.026.053-.026.105-.053.158a1.817,1.817,0,0,1-.052.341c0,.026-.026.052-.026.1-.079.419-.131.891-.21,1.442v.078c0,.053-.026.132-.026.184a4.573,4.573,0,0,1-1.049,2.15,2.9,2.9,0,0,1-.393.419,5.633,5.633,0,0,1-1.1.944.536.536,0,0,1-.158.105,2.16,2.16,0,0,1-.524.315,1.257,1.257,0,0,1-.262.131c-2.911,1.52-7.289,1.862-11.983-.813,0,0,.394-.315,1.1-.813.131.079.236.184.183.263a.891.891,0,0,0,0,.6l.393.314v.262l.708.184v.131a6.149,6.149,0,0,1,1.1.157c.078.079.209-.026.34,0a1.187,1.187,0,0,1,.368.263l1.153.183s.315.053.734.131a3.36,3.36,0,0,0,.944,0l.761-.131,1.468-.21a5.226,5.226,0,0,0,1.625-.76,1.029,1.029,0,0,0,.263-1.259c-.158-.288,1.416-.681,1.416-.681a6.117,6.117,0,0,1,.1-1.049c.053-.183.866-.367.761-.708s-.158-.446-.053-.629c.105-.157.6-.315.394-.682s0-.288.5-.524-.131-.315-.5-.63c-.367-.34.34-.917.34-1.311,0-.34-1.442-.1-1.914-.026A14.169,14.169,0,0,1,706.41,259.866Z" transform="translate(-94.441 -1.378)" style="fill:#edc5c5"/><path d="M704.1,266.578a2.9,2.9,0,0,1-.393.419l-.367-.839L701.8,264.8l2.124,1.39Z" transform="translate(-94.441 -1.378)" style="fill:#c20000"/><path d="M705.178,264.166v.078c0,.053-.026.132-.026.184l-.525.131-1.363-.6-1.547-.131,1.7-.157.813.524.551-.236-.551-.5-.97-.6-.839.157.865-.419,1.128.786.734.446v.341Z" transform="translate(-94.441 -1.378)" style="fill:#c20000"/><path d="M701.612,268.072l.315.289a1.257,1.257,0,0,1-.262.131l-.367-.236-1.6-.524Z" transform="translate(-94.441 -1.378)" style="fill:#c20000"/><path d="M702.609,267.941a.536.536,0,0,1-.158.105l-.76-.682-.97-.1,1.1-.131Z" transform="translate(-94.441 -1.378)" style="fill:#c20000"/><path d="M705.86,260.836l-.184-.053.158.131a.488.488,0,0,0-.053.21l-1.521-.315-.944.132.577-.289,1.993-.078.079.026C705.938,260.652,705.912,260.731,705.86,260.836Z" transform="translate(-94.441 -1.378)" style="fill:#c20000"/><path d="M704.811,262.435l.6.184c0,.026-.026.052-.026.1Z" transform="translate(-94.441 -1.378)" style="fill:#c20000"/><path d="M705.519,262.12c-.026.053-.026.105-.053.158l-.812-.393Z" transform="translate(-94.441 -1.378)" style="fill:#c20000"/><path d="M694.14,269.684c-2.517.052-3.8-1.022-4.458-2.307a15.756,15.756,0,0,1,9.308-5.27C699.1,262.605,700.223,269.553,694.14,269.684Z" transform="translate(-94.441 -1.378)"/><path d="M703.593,222.521c-13.346,4.457-26.324,10.2-32.7,17.436,0,0-65.836-8.783-103.906,10.226-38.045,19.035-63.635,27.084-67.305,35.867s-9.308,32.932,11.431,38.779c0,0-35.894,12.663-42.894-19.77,0,0-14.421,20.32,4.378,43.183,0,0-17.54,9.727-25.59-7.21a24.587,24.587,0,0,0,2.937,22.549c-7.132-1.521-15.26-3.435-22.286-5.166,2.91-6.922,5.453-14.735,5.165-24.253-.315-10.225-4.8-14.656-8.5-16.544a15.667,15.667,0,0,0-5.375-1.573c78.369-71.605,254.693-95.936,280.257-99.135C700.263,218.2,701.757,220.057,703.593,222.521Z" transform="translate(-94.441 -1.378)"/><path d="M668.35,607.2c-.257,0-.514-.006-.774-.018a15.868,15.868,0,0,1-14.113-10.348c-.1-.253-.2-.507-.289-.766-17.63-50.741-103.939-78.883-150.308-94l-1.207-.393c-9.367-3.053-17.456-5.689-23.478-8.038-43.9-17.074-55.391-46.6-55.5-46.9-.021-.057-.041-.113-.062-.169-2.378-6.116-4.3-10.635-6-14.629l-.135-.316a198.8,198.8,0,0,1-8.083-21.532c-.109-.351-.205-.707-.288-1.063q-.18-.48-.326-.972c-.989-3.3-1.947-6.721-2.93-10.473a47.569,47.569,0,0,1-1.493-16.113,15.93,15.93,0,0,1,.5-2.894l1.1-4.085a15.867,15.867,0,0,1,1.015-4.8l2.255-5.926a15.854,15.854,0,0,1,18.669-9.751c22.206,5.539,36.05,8.2,39.934,8.4,5.558-.862,27.952-9.012,60.838-23.226l0,.012c3.258-1.274,32.56-12.452,54.458-15.48,10.1-1.39,15.95-5.537,25.637-12.406a214.885,214.885,0,0,1,29.006-18.04c19.28-9.884,29.708-19.288,34.334-24.191.239-.275.484-.54.732-.792a15.868,15.868,0,0,1,18.192-3.128l39.251,18.983a16.074,16.074,0,0,1,2.075,1.2c23,15.8,19.482,56.637,18.707,63.532-.2,75.632-35.285,172.188-56.226,223.1-3.793,9.194-7.594,18.1-11,25.777A15.866,15.866,0,0,1,668.35,607.2Z" transform="translate(-94.441 -1.378)"/><path d="M734.261,347.517l-.053.734c0,72.1-33.324,164.918-55.034,217.7-4.142,10.042-7.839,18.642-10.828,25.38a3.535,3.535,0,0,0-.184-.472c-20.215-58.18-109.963-87.441-160.383-103.881-9.648-3.146-17.986-5.846-23.833-8.127-36.34-14.133-46.329-37.467-46.408-37.677l-.026-.079c-2.543-6.555-4.562-11.3-6.345-15.5a183.425,183.425,0,0,1-7.6-20.188l.105-.734-.682-1.18c-.865-2.884-1.782-6.136-2.779-9.937a31.865,31.865,0,0,1-1.022-10.855l1.992-7.394-.367.026,2.255-5.925c11.248,2.8,36.55,8.888,44.127,8.888,9.255,0,53.618-18.852,66.78-24.541.289-.131,30.048-11.51,50.341-14.316,13.923-1.914,22.182-7.761,32.643-15.181A200.488,200.488,0,0,1,644.014,307.4C665.8,296.232,677.706,285.3,683,279.609a1.522,1.522,0,0,1,.132-.157l39.25,18.982C735.86,307.69,735.546,336.976,734.261,347.517Z" transform="translate(-94.441 -1.378)" style="fill:#9e0404"/><path d="M548.367,464.687s-27.518-2.472-11.8-13.445c0,0-39.786,8.31-46.371,6.624C490.2,457.866,529.708,469.077,548.367,464.687Z" transform="translate(-94.441 -1.378)" style="fill:#5e0000"/><path d="M734.261,347.517l-.053.734c0,72.1-33.324,164.918-55.034,217.7a155.693,155.693,0,0,0-32.354-41.4l30.152,17.514s3.094.551-12.271-26.9c-15.364-27.425-11.51-14.263-24.148-30.729-12.611-16.465-2.176-10.409,0-14.263,2.2-3.828,18.669,7.682,26.036,20.871,7.394,13.162,12.376,20.293,20.608,29.077s5.506-6.581,7.683-19.77c2.2-13.162,12.506-25.223,12.506-25.223s-18.537,3.278-24.384-3.3-19.4-6.581-44.625-11.537c-25.249-4.929-30.2-2.726-71.893-2.412-41.715.315-10.042-5.27-10.042-5.27a191.851,191.851,0,0,1,48.191-9.753c27.74-2.1,73.257,5.925,89.7,0,16.466-5.926,10.986-7.237,15.863-16.571s-3.776,0-13.66,1.652c-9.885,1.626-37.31-2.2-37.861-5.06S677.89,415.293,683,410.914s-1.835-5.5-2.386-13.188,8.233-9.858,19.219-16.885c10.96-7,12.061-11.091,21.185-23.256s-3.618-6.5-13.634-6.87c-9.989-.367-36.654,16.282-58.6,32.853-21.945,16.544-58.626,27.583-79.418,27.346-20.818-.235,1.5-3.3,13.031-7.131,11.51-3.854,36.209-15.364,51.574-32.381s55.427-28,76.219-36.235,8.836-12.611,0-24.7c-8.862-12.061-27.058-31.017-27.058-31.017l39.25,18.982C735.86,307.69,735.546,336.976,734.261,347.517Z" transform="translate(-94.441 -1.378)" style="fill:#c20000"/><path d="M402.434,333.374l-17.489,11.818a116.882,116.882,0,0,1,31.614,9.152c2.633-6.143,4.706-12.335,4.479-19.826-.048-1.628-.352-5.51-2.09-6.4C415.757,326.486,407.152,330.186,402.434,333.374Z" transform="translate(-94.441 -1.378)" style="fill:#24160c"/><path d="M349.753,383.774c-8.522-.533-17.261-4.125-25.48-10.441l-.179-.012-3.062-2.623c-7.711-6.662-14.853-15.795-20.657-26.409-9.437-17.267-4.858-30.716-1.289-37.2l10.812-19.63,10.2,19.953c3.542,6.921,7.62,12.5,11.486,15.722,3.792,3.17,9.684,5.247,19.723,6.96,4.36.77,9.147,1.4,14.215,2.071l.178.024c5.864.776,11.641,1.558,17.912,2.6a117.687,117.687,0,0,1,36.118,12.17l10.059,5.422-5.01,10.269c-.5,1.036-1.014,2.12-1.5,3.226l-3.369,7.657-8.345-.577c-6.412-.4-18.562,2.382-32.62,5.784l-1.232.3c-7.655,1.849-14.885,3.6-20.708,4.442A34.806,34.806,0,0,1,349.753,383.774Z" transform="translate(-94.441 -1.378)"/><path d="M411.048,398.96c-4.677,16-24.441,27.9-24.768,28.085-11.265,7.072-37.528,2.752-52.941-5.777-.025-.028-.077-.031-.1-.059-.762-.415-1.47-.854-2.178-1.292a29.812,29.812,0,0,0-14.169-4.484c-8.007-.5-15.643,1.885-20.906,4.131a21.411,21.411,0,0,1,2.649-8.766c2.983-5.7,26.533-3.36,37.864-2.232,6.787.687,12.636,1.263,16.824,1.078,11.619-.535,17.665-6.488,24.075-12.787,1.54-1.532,3.135-3.088,4.862-4.661l.028-.025c1.282-1.181,2.695-2.353,4.213-3.519,6.265-4.837,14.909-6.95,20.982-7.858A45.617,45.617,0,0,0,411.048,398.96Z" transform="translate(-94.441 -1.378)" style="fill:#7f0000"/><path d="M411.048,398.96c-4.677,16-24.441,27.9-24.768,28.085-11.265,7.072-37.528,2.752-52.941-5.777,9.232,4.438,25.489,4.929,38.23,5.357,12.819.433,16.775-4.442,25.707-12.422,8.933-8.006,5.24-12.387,5.24-12.387A45.884,45.884,0,0,1,362,415.782s4.639-.2,16.829-4.465c9.206-3.218,12.864-6.39,16.679-10.621,4.283-4.749,6.746-7.33,4.8-11.5-1.9-4.033-17.241,2.653-18.023,2.972,1.282-1.181,2.695-2.353,4.213-3.519,6.265-4.837,14.909-6.95,20.982-7.858A45.617,45.617,0,0,0,411.048,398.96Z" transform="translate(-94.441 -1.378)" style="fill:#3b0000"/><path d="M414.089,357.432c-.572,1.173-1.148,2.4-1.7,3.651-7.9-.546-19.755,2.1-36.239,6.09-7.869,1.9-15.286,3.721-20.853,4.529-8.459,1.257-17.765-2.424-26.46-10.008h-.026a83.408,83.408,0,0,1-18-23.113c-6.318-11.56-4.3-20.313-1.307-25.748,3.137,6.133,8.05,14.111,14.468,19.451,6.317,5.281,14.883,7.76,25.333,9.543,4.6.813,9.55,1.464,14.839,2.162,5.628.745,11.411,1.527,17.521,2.539A106.544,106.544,0,0,1,414.089,357.432Z" transform="translate(-94.441 -1.378)" style="fill:#7f0000"/><path d="M414.089,357.432c-.572,1.173-1.148,2.4-1.7,3.651-7.9-.546-19.755,2.1-36.239,6.09-7.869,1.9-15.286,3.721-20.853,4.529-8.459,1.257-17.765-2.424-26.46-10.008,1.446.826,16.136,8.732,32.4,4.547a177.324,177.324,0,0,1,26.374-5.025c-5.7.353-44.07,2.343-55.58-8.543,0,0,28.815,5.11,37.306,4.17s-15.714-3.714-15.714-3.714,16.514-3.2,25.383,1.586a38.414,38.414,0,0,0,18.23,4.239s-5.054-7.829-14.514-9.891c-9.461-2.037-29.622-5.214-32.094-6.446a11.4,11.4,0,0,1-1.316-.791c4.6.813,9.55,1.464,14.839,2.162,5.628.745,11.411,1.527,17.521,2.539A106.544,106.544,0,0,1,414.089,357.432Z" transform="translate(-94.441 -1.378)" style="fill:#3b0000"/><path d="M415.922,415.362c-9.053,13.086-22.735,21.3-23.513,21.764-7.029,4.409-16.746,5.767-26.917,5.132-14.958-.935-30.9-6.182-40.725-12.363-11.12-7-26.73,1.643-29.095,3.039,37.01,17.882,85.223,18.121,126.51.522-1.365-4.116-2.56-7.492-3.647-10.56C417.607,420.279,416.75,417.857,415.922,415.362Z" transform="translate(-94.441 -1.378)" style="fill:#24160c"/><path d="M674.479,92.584c-47.882,7.437-168.241,29.1-257.938,70.049-12.142,5.546-23.728,11.443-34.5,17.706-.409.236-.791.475-1.2.713.011-10.272.529-24.031,2.6-31.074,1.207-4.18,15.069-12.456,26.179-19.143,3.6-2.14,7.286-4.353,11-6.643,12.517-7.755,25.249-16.444,34.637-26.68,7.531-8.278,14.721-18.231,21.679-27.858,13-18,26.43-36.6,37.054-35.935,6.961.435,14.121,1.04,21.044,1.657,2.561.212,5.069.448,7.553.629l.105.007c3.5.3,6.9.562,10.143.791a168.713,168.713,0,0,0,18,.415c4.186-.158,10.213-1.594,17.866-3.4,17.467-4.162,46.72-11.109,54.93.018,4.068,5.534,11.312,18.675,19.758,35.7,2.286,4.609,4.685,9.514,7.124,14.632C671.838,86.928,673.161,89.717,674.479,92.584Z" transform="translate(-94.441 -1.378)" style="fill:#6b4124"/><path d="M674.479,92.584c-47.882,7.437-168.241,29.1-257.938,70.049l-5.181-.323,9.264-38.118c12.517-7.755,25.249-16.444,34.637-26.68,7.531-8.278,14.721-18.231,21.679-27.858,13-18,26.43-36.6,37.054-35.935,6.961.435,14.121,1.04,21.044,1.657,2.561.212,5.069.448,7.553.629l.105.007c3.5.3,6.9.562,10.143.791-11.584,2.928-26.686,8.762-33.721,20.013-12.205,19.6-25.328,44.627-25.328,44.627s122.817-30.313,169.6-31.909c2.286,4.609,4.685,9.514,7.124,14.632C671.838,86.928,673.161,89.717,674.479,92.584Z" transform="translate(-94.441 -1.378)" style="fill:#472c18"/><path d="M614.153,36.244s-7.869,5.743-29.614,8.187c-18.668,2.1-28.14-2.107-37.789,5.127s-22.136,34.813-22.136,34.813S601.941,63.826,621.2,64.337,639.749,42.183,614.153,36.244Z" transform="translate(-94.441 -1.378)" style="fill:#995e33"/><path d="M674.479,92.584c-54.356,8.451-202.171,35.232-292.434,87.755-.409.236-.791.475-1.2.713.011-10.272.529-24.031,2.6-31.074,1.207-4.18,15.069-12.456,26.179-19.143,15.693-9.4,33.461-20.056,45.639-33.323,7.531-8.278,14.721-18.231,21.679-27.858,13-18,26.43-36.6,37.054-35.935,6.961.435,14.121,1.04,21.044,1.657,2.561.212,5.069.448,7.553.629-32.509-.639-42.518,23.325-59.905,55.628-16.877,31.311-23.161,36.014-23.518,36.255,93.721-33.444,189.7-42.106,211.345-43.722C671.838,86.928,673.161,89.717,674.479,92.584Z" transform="translate(-94.441 -1.378)" style="fill:#24160c"/><path d="M830.032,194.2c-4.165,18.8-16.859,36.876-31.892,52.6-21.869,22.874-48.71,40.763-61.655,48.762-.714-9.612-.238-18.96,1.865-21.525,7.88-9.493-.9-26.312-11.57-43.051l-.33-.569c-5.461-8.568-8.647-12.6-8.793-12.772l-1.877-2.34-3,.119c-.145.013-.343.026-.6.026-.5.026-1.216.066-2.1.119-.265.026-.555.04-.859.053-1.138.053-2.513.145-4.126.251-.317.013-.648.04-.991.066-.675.04-1.389.093-2.142.146-1.071.079-2.208.158-3.425.251-.3.026-.635.053-.952.066-3.134.238-6.69.542-10.63.886-1.071.106-2.182.2-3.306.3a.169.169,0,0,0-.079.013c-1.1.093-2.222.2-3.385.318-.172.013-.357.026-.542.052-1,.093-2.036.2-3.081.305-.621.066-1.243.132-1.864.185q-4.72.495-9.89,1.084c-.913.106-1.825.211-2.764.317-1.586.185-3.2.384-4.839.582-.82.092-1.64.2-2.473.3-.224.013-.436.053-.661.079-2.221.278-4.5.569-6.809.873-.926.119-1.864.251-2.816.383-1.4.186-2.817.384-4.245.582l-1.11.159c-.913.132-1.812.251-2.724.383-.331.053-.661.093-1,.146-1.507.225-3.015.449-4.548.674-.133.013-.252.04-.384.053-1.653.264-3.332.516-5.024.78-1.032.159-2.076.317-3.121.489-1.52.238-3.041.49-4.574.741q-6.505,1.071-13.223,2.287c-.991.185-2,.37-3,.556s-2.023.37-3.054.568-2.036.384-3.068.582q-2.221.436-4.482.872c-3.848.767-7.735,1.561-11.649,2.407-1.692.357-3.385.727-5.077,1.1q-8.727,1.925-17.559,4.112-4.007.992-8.039,2.037c-12.085,3.16-24.209,6.69-36.149,10.657-.886.29-1.772.594-2.658.9-.357.119-.727.238-1.1.37-1.745.582-3.477,1.19-5.21,1.8-2.287.82-4.561,1.64-6.822,2.486-1.045.383-2.089.78-3.121,1.177-7.88,3-15.615,6.2-23.125,9.638-.886.4-1.759.794-2.618,1.2s-1.745.806-2.605,1.229c-1.044.5-2.062.992-3.094,1.5-1.507.74-3,1.48-4.482,2.234-.952.5-1.9.992-2.843,1.481-1.6.833-3.186,1.679-4.76,2.552-.819.436-1.639.9-2.446,1.362-1.626.912-3.239,1.837-4.826,2.776-.806.463-1.586.939-2.38,1.415s-1.573.952-2.353,1.441-1.547.966-2.314,1.455q-2.32,1.467-4.562,2.975c-1.494,1-2.975,2.023-4.429,3.054a170.284,170.284,0,0,0-25.347,21.684c-.661.674-1.3,1.362-1.93,2.063L382.412,334.7c-5.858-.965-11.371-1.706-16.687-2.407-14.888-1.983-27.726-3.675-34.192-9.07a26.74,26.74,0,0,1-2.433-2.314c-7.7-8.039-12.455-21-12.521-21.142l-2.777-7.682-6.413,5.064c-7.906,6.254-19.5,24.1-6.941,47.084,1.468,2.7,3.015,5.289,4.614,7.722,12.575,19.238,28.8,30.728,44.651,31.719a35.69,35.69,0,0,0,7.325-.277c6.1-.939,13.778-2.79,21.9-4.76.635-.132,1.3-.3,1.97-.476-.555.383-1.1.74-1.626,1.163a108.843,108.843,0,0,0-10.181,9.137c-5.738,5.659-9.216,9.057-16.3,9.388-3.345.158-9.057-.41-15.139-1-20.085-2.023-42.826-4.284-49.477,8.515-5.17,9.9-4.4,17.413-2.949,21.856a99.609,99.609,0,0,1-11.49-8.172.344.344,0,0,1-.119-.118c-14.8-12.244-23.575-27.291-25.108-43.541-6-62.871,37.616-123.124,129.642-179q4.839-2.935,9.824-5.844c89.857-52.294,239.015-78.725,290.687-86.658-10.564,14.174-14.359,30.517-10.22,44.466,2.261,7.576,7.668,16.977,20,25.122a89.986,89.986,0,0,0,21.049,9.916l4.535,1.428a171.325,171.325,0,0,0,24.316,5.131,200.34,200.34,0,0,0,20.454,1.93c26.7,1.163,46.423-4.218,58.772-16.078a42.153,42.153,0,0,0,9.9-14.7A54.054,54.054,0,0,1,830.032,194.2Z" transform="translate(-94.441 -1.378)" style="fill:#6b4124"/><path d="M798.14,246.8c-21.869,22.874-48.71,40.763-61.655,48.762-.714-9.612-.238-18.96,1.865-21.525,7.88-9.493-.9-26.312-11.57-43.051l-.33-.569c-5.461-8.568-8.647-12.6-8.793-12.772l-1.877-2.34-3,.119c-.145.013-.343.026-.6.026q-.753.06-2.1.119c-.265.026-.555.04-.859.053-1.138.066-2.513.159-4.126.251-.317.026-.648.053-.991.066-.675.053-1.389.093-2.142.146-1.071.079-2.208.158-3.425.251-.317.026-.635.04-.952.066-3.134.238-6.69.542-10.63.886-1.071.093-2.169.2-3.306.3a.169.169,0,0,0-.079.013c-1.1.093-2.222.2-3.385.318-.172.013-.357.026-.542.052-1,.093-2.036.2-3.081.305-.621.066-1.243.132-1.864.185-3.147.33-6.453.687-9.89,1.084-.913.106-1.825.211-2.764.317-1.586.185-3.2.37-4.839.582-.82.092-1.64.2-2.473.3-.224.013-.436.053-.661.079-2.234.278-4.5.569-6.809.873-.926.119-1.864.251-2.816.383-1.4.186-2.817.384-4.245.582l-1.11.159c-.9.119-1.812.251-2.724.383-.331.053-.661.093-1,.146-1.494.211-3.015.436-4.548.674-.133.013-.252.04-.384.053-1.653.251-3.332.516-5.024.78-1.032.159-2.076.317-3.121.489-1.52.238-3.041.49-4.574.741q-6.505,1.071-13.223,2.287c-.991.185-2,.37-3,.556s-2.036.37-3.054.568-2.036.384-3.068.582q-2.221.436-4.482.872c-3.848.767-7.735,1.561-11.649,2.407-1.692.357-3.385.727-5.077,1.1q-8.727,1.925-17.559,4.112-4.007.992-8.039,2.037c-12.085,3.16-24.209,6.69-36.149,10.657-.886.29-1.772.594-2.658.9-.357.119-.727.238-1.1.37-1.745.582-3.477,1.19-5.21,1.8-2.287.82-4.561,1.64-6.822,2.486-1.045.383-2.089.78-3.121,1.177-7.88,3-15.615,6.2-23.125,9.638-.886.4-1.759.794-2.618,1.2s-1.745.819-2.605,1.229c-1.044.5-2.062.992-3.094,1.5-1.507.74-3,1.48-4.482,2.234-.952.5-1.9.992-2.843,1.481-1.6.833-3.186,1.692-4.76,2.552-.819.449-1.639.9-2.446,1.362-1.626.912-3.239,1.837-4.826,2.776-.806.463-1.586.939-2.38,1.415s-1.573.952-2.353,1.441-1.547.966-2.314,1.455q-2.3,1.467-4.562,2.975c-1.494,1-2.975,2.023-4.429,3.054a170.284,170.284,0,0,0-25.347,21.684c-.661.688-1.3,1.375-1.93,2.063l-14.161,15.536-2.816,3.107c-5.858-.965-11.371-1.706-16.687-2.407-14.888-1.983-27.726-3.675-34.192-9.07a26.74,26.74,0,0,1-2.433-2.314,513.115,513.115,0,0,1,50.786-50.891c88.562-77.945,241.276-94.882,308.564-96.548a89.986,89.986,0,0,0,21.049,9.916l4.535,1.428a171.325,171.325,0,0,0,24.316,5.131,200.34,200.34,0,0,0,20.454,1.93C775.94,203.537,793.036,221.36,798.14,246.8Z" transform="translate(-94.441 -1.378)" style="fill:#472c18"/><path d="M655.679,159.384s-87.419,6.938-180.7,40.946c-64.3,23.445-113.17,61.168-147.457,95.55q-4.558,4.565-8.752,9.032c-1.4-3-2.172-5.091-2.195-5.145l-2.766-7.685-6.411,5.071a35.274,35.274,0,0,0-11.735,34.308c-3.231,4.01-6.173,7.841-8.862,11.435-14.253,19.061-21.212,31.847-21.212,31.847S261.471,290.906,372.5,215.918c116.627-78.758,284.381-95.447,284.381-95.447C644.106,143.81,655.679,159.384,655.679,159.384Z" transform="translate(-94.441 -1.378)" style="fill:#995e33"/><path d="M378.928,378.642c.639-.143,1.307-.312,1.974-.48-.55.386-1.1.745-1.623,1.159a109.962,109.962,0,0,0-10.185,9.136c-5.739,5.658-9.21,9.066-16.3,9.385-3.347.159-9.064-.409-15.148-1-20.076-2.016-42.816-4.278-49.474,8.52-5.164,9.9-4.4,17.4-2.942,21.857a99.68,99.68,0,0,1-11.5-8.179.442.442,0,0,1-.124-.113c2.921-13.53,10.694-36.609,31.453-66.968,12.564,19.227,28.79,30.723,44.648,31.714a35.846,35.846,0,0,0,7.321-.279C363.137,382.463,370.819,380.605,378.928,378.642Z" transform="translate(-94.441 -1.378)" style="fill:#472c18"/><path d="M746.643,215.379s55.4-9.753,68.18-29c0,0-29.353,42.978-47.649,54.207C767.174,240.581,767.43,224.1,746.643,215.379Z" transform="translate(-94.441 -1.378)" style="fill:#995e33"/><path d="M830.031,194.191c-10.265,46.2-71.716,87.87-93.544,101.37-.711-9.61-.233-18.959,1.862-21.531,7.88-9.5-.9-26.3-11.565-43.049l-.336-.564a154.6,154.6,0,0,0-8.794-12.764l-1.879-2.357-3,.131c-1.049.04-4.825.255-10.786.664l-.026,0c-.32.033-.625.041-.972.072-.425.026-.877.051-1.318.1-1.263.08-2.621.181-4.046.3-.918.062-1.89.133-2.9.229-.626.04-1.266.106-1.932.171-1.132.088-2.291.2-3.5.311-8.431.731-18.578,1.78-30.071,3.155-1.643.215-3.31.4-5.008.641-15.195,1.912-32.433,4.491-50.714,7.867-1.018.174-2.049.362-3.056.564-2.479.454-4.946.923-7.442,1.429-.966.2-1.918.384-2.884.575-7.366,1.487-14.874,3.125-22.442,4.877-1.681.4-3.335.8-5.015,1.184-3.2.78-6.431,1.572-9.663,2.417-2.72.7-5.413,1.4-8.15,2.153-1.576.418-3.179.848-4.758,1.306-.31.087-.635.2-.958.284-2.884.787-5.8,1.625-8.7,2.5-3.226.951-6.442,1.956-9.631,2.962-1.5.462-2.987.939-4.489,1.455-1.691.556-3.368,1.1-5.06,1.684l-.569.2c-1.882.637-3.764,1.288-5.607,1.955a.384.384,0,0,1-.162.043c-1.748.632-3.5,1.252-5.246,1.911-1.911.688-3.825,1.417-5.7,2.161-1.859.705-3.691,1.4-5.5,2.147-1.834.733-3.641,1.455-5.424,2.218-1.591.655-3.185,1.351-4.777,2.033q-5.619,2.451-11.114,5.068c-1.721.833-3.428,1.641-5.138,2.514-1.708.834-3.392,1.7-5.051,2.6-1.682.836-3.341,1.739-4.975,2.657-1.631.865-3.265,1.8-4.874,2.742-1.387.775-2.749,1.59-4.111,2.393-.221.145-.442.29-.661.409-2.133,1.258-4.2,2.572-6.232,3.89s-4.061,2.66-6,4.036c-2.089,1.42-4.1,2.9-6.091,4.4-1.293.966-2.586,1.945-3.829,2.967-1.167.867-2.3,1.8-3.4,2.755-.362.268-.7.565-1.035.862-1.188,1-2.378,2.024-3.516,3.053-1.291,1.164-2.569,2.317-3.769,3.5-1.253,1.18-2.466,2.363-3.614,3.563-1.175,1.212-2.337,2.424-3.46,3.639l-14.152,15.53L382.4,334.7c-5.849-.962-11.366-1.7-16.688-2.408-14.873-1.975-27.723-3.679-34.183-9.064-5.818-4.841-10.276-13-12.766-18.311-1.4-3-2.172-5.091-2.195-5.145l-2.766-7.685-6.411,5.071a35.274,35.274,0,0,0-11.735,34.308,45.367,45.367,0,0,0,4.792,12.778c13.043,23.853,31.388,38.314,49.269,39.431a36.563,36.563,0,0,0,7.317-.271c6.1-.931,13.78-2.8,21.891-4.753.632-.146,1.305-.316,1.978-.486-.555.389-1.107.752-1.623,1.157a109.182,109.182,0,0,0-10.189,9.141c-5.745,5.655-9.217,9.068-16.3,9.381-3.348.161-9.062-.408-15.146-1-20.077-2.009-42.815-4.278-49.47,8.528-5.162,9.891-4.4,17.4-2.942,21.847a97.4,97.4,0,0,1-11.5-8.177s-4.787-36.387,18.906-37.119c20.838-.619,26.607,1.186,27.719,1.626-2.342-1.749-24.546-18.689-33.561-40.648-8.247-20.029-5.529-44.236,33.217-64.945a60.36,60.36,0,0,0,7.5,17.929c6.027,9.77,16.508,20.546,34.137,23.992,0,0,110.6-149.083,390.2-115.636l-.068.023c-1.54.473-27.323,8.374-24.725,9.623,2.65,1.265,24.36,23.791,24.895,41.3l.565,17.469s79.34-61.467,74.958-111.553A53.976,53.976,0,0,1,830.031,194.191Z" transform="translate(-94.441 -1.378)" style="fill:#24160c"/><path d="M706.622,169.725a.077.077,0,0,1-.051-.029c-14.569-6.06-23.763-14.489-26.826-24.742-2.648-8.913-.679-19.4,5.218-29.28C694.376,136.989,701.988,156.011,706.622,169.725Z" transform="translate(-94.441 -1.378)" style="fill:#6b4124"/><path d="M706.571,169.7c-14.569-6.06-23.763-14.489-26.826-24.742-2.648-8.913-.679-19.4,5.218-29.28,0,0-1.636,9.255,2.13,24.774C691.475,158.506,705.572,168.871,706.571,169.7Z" transform="translate(-94.441 -1.378)" style="fill:#24160c"/><path d="M442.166,712.234c-3.744,0-7.31-.115-10.6-.342-26.046-1.817-73.418-10.006-85.781-29.18-9.466-14.7-3.739-32.333-.987-40.807,0,0,.528-1.645.641-2.009-.448-1.692-3.86-5.752-5.93-8.215-1.5-1.761-3.072-3.633-4.592-5.645-8.851-11.627.123-27.926,3.072-33.282.849-1.552,2.279-4.165-2.751-9.2-6.126-6.126-9.912-21.775-8.1-33.488C328.5,541.14,332.843,534.542,339.7,531c12.578-6.542,15.974-18.944,17.606-24.9a78.419,78.419,0,0,0,1.428-8.178c.957-6.777,1.936-13.709,4.879-18.283,4.7-7.272,17.847-18.695,34.8-20.4,1.667-.167,3.351-.252,5.006-.252a47.4,47.4,0,0,1,17.7,3.387l.416-.43-.926-.689c-.7-.513-18.142-13.452-26.369-39.458-5.694-18,.148-33.116,5-41.565l-11.1-5.193-46.445-19.6a4.458,4.458,0,0,1-1.216-.763,46.129,46.129,0,0,1,33.536-85.388A44.951,44.951,0,0,1,381.1,271.9c.071,0,.143,0,.214,0a4.469,4.469,0,0,1,2.174.566l67.347,37.479c3.064-1.723,7.31-2.568,12.858-2.568a80.145,80.145,0,0,1,8.369.494c21.382,2.276,49.893,25.327,53.073,27.948l1.019.844a4.472,4.472,0,0,1,1.608,3.8l-.7,9.026c4.556,5.9,14.944,20.687,17.443,35.711,1.554,9.309,2.074,15.719-4.6,19.58-.02.057-.041.123-.066.2-.968,3.079,1.692,10.625,3.9,14.663l.419.766a4.477,4.477,0,0,1,.486,2.893l-.144.852c-1.352,8.339-5.6,17.525-9.634,24.8,1.83-.161,3.846-.264,6.016-.264a70.206,70.206,0,0,1,32.557,7.988c11.579,5.984,18.445,16.271,19.854,29.748a53.51,53.51,0,0,1-1.436,18.7l-.147.475a4.444,4.444,0,0,1-.573,1.192l-.216.317c-7.534,11.094-14.5,22.415-15.22,24.724-1.422,4.65-6.563,13.339-9.875,18.681a32.149,32.149,0,0,1-1.8,7.9c3.526,5.721,7.592,17.395-.36,35.4,6.615,8.216,5.857,21.751,4.164,31.343a15.544,15.544,0,0,1,4.588,3.6c6.761,7.715,5.124,20.3,4.426,25.677l-.064.551c-.7,5.537-4.875,8.048-7.641,9.711-2.407,1.454-4.493,2.715-5.827,5.982-5.1,12.546-26.367,25.707-38.2,28.9C514.141,702.547,475.733,712.234,442.166,712.234Z" transform="translate(-94.441 -1.378)"/><path d="M523.185,516.067c0,20.816,1.834,28.842,3.364,31.9,1.761,3.508,13.309,17.063,21.552,14.436a10.285,10.285,0,0,0,5.572-4.446,20.857,20.857,0,0,0,2.743-9.672v-.736l.39-.621c2.295-3.609,8.546-13.887,9.787-17.914,1.6-5.226,13.9-23.53,16.211-26.923a42.117,42.117,0,0,0,.837-16.86,29.385,29.385,0,0,0-2.281-7.507,25.03,25.03,0,0,0-2.916-4.879.043.043,0,0,1-.028-.014,27.364,27.364,0,0,0-9.355-7.709,60.976,60.976,0,0,0-40.174-5.63c3.032,15.345.289,26.013-2.367,36.335C524.8,502.469,523.185,508.748,523.185,516.067Z" transform="translate(-94.441 -1.378)" style="fill:#f08c3e"/><path d="M553.659,543.307c2.83,1.247,6.092-14.6,11.332-23.545,5.225-8.935,8.329-9.744,13.425-16.182,3.1-3.941,4.561-12.371,5.225-18.347a29.385,29.385,0,0,0-2.281-7.507,19.624,19.624,0,0,0-17.582,3.869c-9.267,7.882-10.249,22.779-12.977,36.074S550.8,542.047,553.659,543.307Z" transform="translate(-94.441 -1.378)" style="fill:#ffae6e"/><path d="M578.416,472.833a27.364,27.364,0,0,0-9.355-7.709,60.976,60.976,0,0,0-40.174-5.63c3.032,15.345.289,26.013-2.367,36.335-1.718,6.64-3.335,12.919-3.335,20.238,0,20.816,1.834,28.842,3.364,31.9,1.761,3.508,13.309,17.063,21.552,14.436a10.285,10.285,0,0,0,5.572-4.446s-10.841-3.624-14.06-7.117,1.2-24.713,4.966-45.659-.938-30.214,5.9-34.645C557.167,466.207,577.463,472.529,578.416,472.833Z" transform="translate(-94.441 -1.378)" style="fill:#b36932"/><path d="M395.9,484.886c-2.612.52-9.08,2.382-12.833,8.387-1.617,2.6-6.669,11.866-8.7,19.734l-.318-.549a59.686,59.686,0,0,1,3.1-14.508c2.454-6.294,7.434-14.2,17.163-16.124,5.37-1.054,18.68,1.747,21.177,3.537.159.736.361,1.6.578,2.5a20.233,20.233,0,0,0-3.753-1.155C404.028,484.973,399.22,484.208,395.9,484.886Z" transform="translate(-94.441 -1.378)" style="fill:#f1f2f2"/><path d="M378.542,519.026a6.331,6.331,0,0,0,.086.794,6.714,6.714,0,0,0,.636,1.66l.057.116c1.559,3.017,5.515,7.4,10.379,11.635a72.123,72.123,0,0,0,15.894,10.754,108.253,108.253,0,0,1,12.79,7.391c5.312,3.407,10.769,6.9,16.745,8.994a34.367,34.367,0,0,0,5.8,1.544c6.193,1.083,13.006,3.927,20.224,6.929.13.058.274.116.4.173,4.75,1.978,9.571,3.985,14.2,5.443a50,50,0,0,0,8.575,1.977,27.991,27.991,0,0,0,3.594.246c2.526,0,5.283.245,8.214.519,4.72.419,9.787.881,14.118.26a16.674,16.674,0,0,0,4.749-1.357,10.044,10.044,0,0,0,3.161-2.3c3.364-3.681,4.172-10.6,2.4-20.571-.881-1.357-5.024-7.1-15.937-14.536-9.21-6.28-16.254-8.705-26-12.054-3.956-1.357-8.445-2.9-13.671-4.908-13.049-4.994-23.169-11.678-29.867-16.11-2.7-1.775-4.85-3.19-6.308-3.926a50.1,50.1,0,0,1-6.352-4.1c-3.479-2.512-7.073-5.11-11.158-5.962-6.049-1.256-11.708-2.338-14.407-1.8a16.723,16.723,0,0,0-5.269,2.021,12.4,12.4,0,0,0-4.258,4.085C383.97,501.357,378.268,513.555,378.542,519.026Z" transform="translate(-94.441 -1.378)" style="fill:#f08c3e"/><path d="M475.765,574.459a50,50,0,0,0,8.575,1.977,27.991,27.991,0,0,0,3.594.246c2.526,0,5.283.245,8.214.519,4.72.419,9.787.881,14.118.26a70.693,70.693,0,0,0-4.1-13.252c-3.421-7.665-22.577-8.257-22.577-8.257S478.031,566.115,475.765,574.459Z" transform="translate(-94.441 -1.378)" style="fill:#ffae6e"/><path d="M378.542,519.026a6.331,6.331,0,0,0,.086.794,6.714,6.714,0,0,0,.636,1.66l.057.116c1.559,3.017,5.515,7.4,10.379,11.635a72.123,72.123,0,0,0,15.894,10.754,108.253,108.253,0,0,1,12.79,7.391c5.312,3.407,10.769,6.9,16.745,8.994l1.14-23.761a73.18,73.18,0,0,1-14.291-5.847c-7.463-4.027-20.96-22.36-30.372-21.754C388.445,509.21,383.594,513.469,378.542,519.026Z" transform="translate(-94.441 -1.378)" style="fill:#ffae6e"/><path d="M391.606,491.859c10.393,7.2,35.829,24.785,41.242,27.9,6.857,3.956,22.491,11.2,22.491,11.2s2.714,17.323,5.817,35.858c.13.751.26,1.487.4,2.194,7.752,3.234,15.721,6.525,22.78,7.42l4.143-35.785s33.014,4.778,26.532,35.453a10.044,10.044,0,0,0,3.161-2.3c3.364-3.681,4.172-10.6,2.4-20.571-.881-1.357-5.024-7.1-15.937-14.536-9.21-6.28-16.254-8.705-26-12.054-3.956-1.357-8.445-2.9-13.671-4.908-13.049-4.994-23.169-11.678-29.867-16.11-2.7-1.775-4.85-3.19-6.308-3.926a50.1,50.1,0,0,1-6.352-4.1c-3.479-2.512-7.073-5.11-11.158-5.962-6.049-1.256-11.708-2.338-14.407-1.8A16.723,16.723,0,0,0,391.606,491.859Z" transform="translate(-94.441 -1.378)" style="fill:#b36932"/><path d="M346.322,597.353c-2.209,4.013-8.921,16.226-3.826,22.924,1.357,1.79,2.83,3.537,4.259,5.24,4.865,5.76,9.455,11.2,7.954,16.615-.2.693-.491,1.6-.837,2.671-2.31,7.087-7.117,21.841-.087,32.739a16.407,16.407,0,0,0,2.411,2.873c10.711,10.422,41.863,19.589,76.017,21.971,33.938,2.367,77.778-8.589,90.41-12.01,10.985-2.974,28.409-14.8,31.859-23.285,2.512-6.207,6.683-8.719,9.729-10.567,2.122-1.27,2.988-1.876,3.089-2.7l.087-.635c.491-3.739,1.776-13.685-2.136-18.146a6.937,6.937,0,0,0-5-2.194l-11.072,7.824-5.76,4.057c-2.916,2.078-5.832,4.171-8.7,6.293-1.414,1.04-2.9,2.137-4.142,3.176l-.26.217c-.174.13-.347.245-.52.361a5.044,5.044,0,0,1-.881.447c-.548.245-1,.347-1.472.52-.938.274-1.833.491-2.743.693-7.189,1.544-14.32,2.411-21.494,3.233-7.175.794-14.349,1.386-21.552,1.819-7.189.39-14.407.65-21.625.476a105.289,105.289,0,0,1-10.841-.75c-3.609-.534-7.088-1.213-10.639-1.8l-42.469-7.391a1.211,1.211,0,0,1,.144.014l42.513,6.121c3.551.49,7.131,1.068,10.639,1.487a97.28,97.28,0,0,0,10.668.432c7.145-.043,14.305-.5,21.436-1.111,7.131-.635,14.248-1.429,21.336-2.425,7.059-1.011,14.19-2.108,20.989-3.782.852-.217,1.675-.448,2.469-.708a8.448,8.448,0,0,0,1.054-.4,2.985,2.985,0,0,0,.317-.159.027.027,0,0,1,.043,0c.058-.043.174-.158.26-.231,1.473-1.3,2.858-2.367,4.287-3.507,2.844-2.223,5.7-4.4,8.561-6.583l16.529-12.386c1.919-7.448,4.561-24.627-2.31-30.213-3.378,2.295-6.785,4.489-10.264,6.554q-3.27,1.992-6.64,3.825c-2.8,1.516-5.63,2.974-8.546,4.287a74.592,74.592,0,0,1-11.52,4.244l-2.757.592c-.909.188-1.9.217-2.844.332-1.905.173-3.536.13-5.341.289-3.522.2-7.059.491-10.61.765-7.088.577-14.19,1.169-21.321,1.588s-14.262.722-21.422.606l-5.37-.187c-1.79-.159-3.58-.231-5.37-.462a58.774,58.774,0,0,1-10.538-2.267c-13.685-4.071-27.052-8.993-40.318-14.147,13.41,4.764,26.922,9.3,40.65,12.935,6.828,1.963,13.858,2.353,20.946,2.237,7.088-.1,14.161-.592,21.234-1.227s14.133-1.429,21.206-2.208c3.551-.39,7.088-.794,10.668-1.1,1.732-.2,3.681-.231,5.312-.447.809-.13,1.617-.159,2.44-.361l2.454-.592a85.043,85.043,0,0,0,16.557-7.4c.78-.433,1.545-.881,2.31-1.328A196.928,196.928,0,0,0,553.067,593.8c1.169-2.194,6.207-12.227,5.514-21.754a18.367,18.367,0,0,0-2.7-8.705,14.785,14.785,0,0,1-6.251,3.869,12.042,12.042,0,0,1-3.753.577c-7.622,0-15.229-6.669-19.791-11.967,1.27,9.9-.1,16.933-4.186,21.394-4.1,4.489-10.091,5.615-16.37,5.615-3.277,0-6.626-.3-9.845-.606-2.8-.246-5.457-.491-7.752-.491-9.022,0-19.04-4.186-28.726-8.228-6.944-2.9-13.512-5.63-19.142-6.612-9.354-1.631-17-6.524-24.4-11.259a103.059,103.059,0,0,0-12.184-7.059c-10-4.62-24.049-16.37-28.51-24.469l-.029.015-6.063-10.48.058-.765c.015-.39.664-9.542,3.494-16.774,4.128-10.553,11.548-17.381,20.888-19.228,4.446-.881,17.293.519,23.53,3.637l3.753-7.867a37.881,37.881,0,0,0-21.249-3.926c-15.129,1.515-25.349,12.4-27.745,16.081-1.805,2.786-2.671,8.95-3.45,14.392a81.57,81.57,0,0,1-1.675,9.383c-.317,1.184-.736,2.743-1.328,4.547-.39,1.2-.852,2.5-1.415,3.869a48.074,48.074,0,0,1-6.293,11.158,39.745,39.745,0,0,1-13.382,11.3c-4.085,2.122-6.626,6.192-7.536,12.067-1.5,9.817,2.252,22.116,5.443,25.306C348.675,583.524,350.133,590.424,346.322,597.353Z" transform="translate(-94.441 -1.378)" style="fill:#de813a"/><path d="M356.2,680.415c10.711,10.422,41.863,19.589,76.017,21.971,33.938,2.367,77.778-8.589,90.41-12.01,10.985-2.974,28.409-14.8,31.859-23.285,2.512-6.207,6.683-8.719,9.729-10.567,2.122-1.27,2.988-1.876,3.089-2.7l.087-.635c.491-3.739,1.776-13.685-2.136-18.146a6.937,6.937,0,0,0-5-2.194l-11.072,7.824-5.76,4.057c-2.916,2.078-5.832,4.171-8.7,6.293-1.414,1.04-2.9,2.137-4.142,3.176l-.26.217c-.174.13-.347.245-.52.361a5.044,5.044,0,0,1-.881.447c-.548.245-1,.347-1.472.52-.938.274-1.833.491-2.743.693-7.189,1.544-14.32,2.411-21.494,3.233-7.175.794-14.349,1.386-21.552,1.819-7.189.39-14.407.65-21.625.476a105.289,105.289,0,0,1-10.841-.75c-3.609-.534-7.088-1.213-10.639-1.8l-42.469-7.391a1.211,1.211,0,0,1,.144.014l42.513,6.121c3.551.49,7.131,1.068,10.639,1.487a97.28,97.28,0,0,0,10.668.432c7.145-.043,14.305-.5,21.436-1.111,7.131-.635,14.248-1.429,21.336-2.425,7.059-1.011,14.19-2.108,20.989-3.782.852-.217,1.675-.448,2.469-.708a8.448,8.448,0,0,0,1.054-.4,2.985,2.985,0,0,0,.317-.159.027.027,0,0,1,.043,0c.058-.043.174-.158.26-.231,1.473-1.3,2.858-2.367,4.287-3.507,2.844-2.223,5.7-4.4,8.561-6.583l16.529-12.386c1.919-7.448,4.561-24.627-2.31-30.213-3.378,2.295-6.785,4.489-10.264,6.554q-3.27,1.992-6.64,3.825c-2.8,1.516-5.63,2.974-8.546,4.287-6.669,9.975-17.034,20.224-32.191,22.52-31.484,4.792-123.337-10.914-123.337-10.914s-6.9,31.268,21.018,39.207,112.8,3.753,112.8,3.753S440.2,699.759,361.8,681.628C359.891,681.2,358.029,680.79,356.2,680.415Z" transform="translate(-94.441 -1.378)" style="fill:#f08c3e"/><path d="M553.067,593.8c1.169-2.194,6.207-12.227,5.514-21.754a18.367,18.367,0,0,0-2.7-8.705,14.785,14.785,0,0,1-6.251,3.869,12.042,12.042,0,0,1-3.753.577c-7.622,0-15.229-6.669-19.791-11.967,1.27,9.9-.1,16.933-4.186,21.394-4.1,4.489-10.091,5.615-16.37,5.615-3.277,0-6.626-.3-9.845-.606-2.8-.246-5.457-.491-7.752-.491-9.022,0-19.04-4.186-28.726-8.228-6.944-2.9-13.512-5.63-19.142-6.612-9.354-1.631-17-6.524-24.4-11.259a103.059,103.059,0,0,0-12.184-7.059c-10-4.62-24.049-16.37-28.51-24.469l-.029.015-6.063-10.48.058-.765c.015-.39.664-9.542,3.494-16.774,4.128-10.553,11.548-17.381,20.888-19.228,4.446-.881,17.293.519,23.53,3.637l3.753-7.867a37.881,37.881,0,0,0-21.249-3.926c-15.129,1.515-25.349,12.4-27.745,16.081-1.805,2.786-2.671,8.95-3.45,14.392a81.57,81.57,0,0,1-1.675,9.383c-.317,1.184-.736,2.743-1.328,4.547-.39,1.2-.852,2.5-1.415,3.869a48.074,48.074,0,0,1-6.293,11.158s22.3,41.618,52.833,60.428,129.328,3.464,129.328,3.464a79.288,79.288,0,0,1-5.991,14.378c.78-.433,1.545-.881,2.31-1.328A196.928,196.928,0,0,0,553.067,593.8Z" transform="translate(-94.441 -1.378)" style="fill:#f08c3e"/><path d="M445.447,680.591c-27.708,0-62.245-7.572-67.5-18.438a70.88,70.88,0,0,1-2.957-7.136l4.682,1.367c1.284.375,31.6,9.21,45.628,11.908,4.455.857,12.046,1.273,23.206,1.273,11.454,0,24.162-.461,32.171-.813-3.819,4.539-11.157,10.153-24.525,11.39-3.214.3-6.813.449-10.7.449Zm-72.069-30.556a162.741,162.741,0,0,1-5.322-29.649,32.212,32.212,0,0,1,.934-6.561c1.509-7.59,3.577-17.987-1.395-27.635-3.418-6.634-5.21-18.131-2.018-27.271a19.185,19.185,0,0,1,8.328-10.6c8.6,5.172,26.064,16.857,29.542,24.689,3.547,7.991,4.947,18.548,2.88,21.726-.214.329-.321.413-.812.413a6.662,6.662,0,0,1-2.413-.6,40.1,40.1,0,0,0-14.73-3.325c-4.69,0-8.5,1.379-11.009,3.988a11.945,11.945,0,0,0-3.159,8.991c.117,3,.358,9.256,45.273,21.068,19.394,5.1,47.829,11.058,64.139,11.058a44.278,44.278,0,0,0,5.414-.293,46.647,46.647,0,0,1,5.751-.4c5.958,0,7.847,1.567,8.383,2.24.036.045.07.092.1.137a218.488,218.488,0,0,1-46.956,5.356c-4.933,0-9.791-.2-14.437-.588-5.182-.436-10.48-.657-15.744-.657-27.137,0-45.759,5.722-46.537,5.966Z" transform="translate(-94.441 -1.378)" style="fill:#ffae6e"/><path d="M557.326,628.779c1.919-7.448,4.561-24.627-2.31-30.213-3.378,2.295-6.785,4.489-10.264,6.554,4.259,4.648,1.2,22.432,1.2,22.432s-14.507,11.78-19.935,16.312-53.787,11.188-64.671,11.491c-10.538.274-62.03-3.118-65.119-3.32l42.513,6.121c3.551.49,7.131,1.068,10.639,1.487a97.28,97.28,0,0,0,10.668.432c7.145-.043,14.305-.5,21.436-1.111,7.131-.635,14.248-1.429,21.336-2.425,7.059-1.011,14.19-2.108,20.989-3.782.852-.217,1.675-.448,2.469-.708a8.448,8.448,0,0,0,1.054-.4,2.985,2.985,0,0,0,.317-.159.027.027,0,0,1,.043,0c.058-.043.174-.158.26-.231,1.473-1.3,2.858-2.367,4.287-3.507,2.844-2.223,5.7-4.4,8.561-6.583Z" transform="translate(-94.441 -1.378)" style="fill:#b36932"/><path d="M346.322,597.353c-2.209,4.013-8.921,16.226-3.826,22.924,1.357,1.79,2.83,3.537,4.259,5.24,4.865,5.76,9.455,11.2,7.954,16.615-.2.693-.491,1.6-.837,2.671-2.31,7.087-7.117,21.841-.087,32.739,7.463,11.563,41.17,22.246,78.428,24.844,33.938,2.367,77.778-8.589,90.41-12.01,10.985-2.974,28.409-14.8,31.859-23.285,2.512-6.207,6.683-8.719,9.729-10.567,2.122-1.27,2.988-1.876,3.089-2.7l.087-.635c.491-3.739,1.776-13.685-2.136-18.146a6.937,6.937,0,0,0-5-2.194l-11.072,7.824c2.483,3.176,7.723,11.3,1.617,16.385-7.738,6.452-20.86,29.809-104.1,33.735-83.235,3.941-82.34-30.112-84.707-47.435s-8.517-20.946-4.475-33.028-2.425-20.138-4.432-27.4-1.617-28.192,4.028-35.843c5.629-7.665,14.9-18.94,14.9-18.94l-6.857-15.027c-.39,1.2-.852,2.5-1.415,3.869-2.973,7.333-8.589,16.7-19.675,22.462-4.085,2.122-6.626,6.192-7.536,12.067-1.5,9.817,2.252,22.116,5.443,25.306C348.675,583.524,350.133,590.424,346.322,597.353Z" transform="translate(-94.441 -1.378)" style="fill:#b36932"/><path d="M363.745,516.991c1.228,2.7,2.541,5.37,3.84,7.939,7.059,13.887,29.81,24.165,41.5,35.844s18.925,20.96,19.185,28.611,6.193,24.165,42.556,23.357c36.378-.794,32.942-20.7,32.942-20.7,13.526.029,32.162-14.277,32.162-14.277,5.947,4.389,17.424.664,22.649-5.716a18.367,18.367,0,0,0-2.7-8.705,14.785,14.785,0,0,1-6.251,3.869,12.042,12.042,0,0,1-3.753.577c-7.622,0-15.229-6.669-19.791-11.967,1.27,9.9-.1,16.933-4.186,21.394-4.1,4.489-10.091,5.615-16.37,5.615-3.277,0-6.626-.3-9.845-.606-2.8-.246-5.457-.491-7.752-.491-9.022,0-19.04-4.186-28.726-8.228-6.944-2.9-13.512-5.63-19.142-6.612-9.354-1.631-17-6.524-24.4-11.259a103.059,103.059,0,0,0-12.184-7.059c-10-4.62-24.049-16.37-28.51-24.469l-.029.015-6.063-10.48.058-.765c.015-.39.664-9.542,3.494-16.774,4.128-10.553,11.548-17.381,20.888-19.228,4.446-.881,17.293.519,23.53,3.637l3.753-7.867a37.881,37.881,0,0,0-21.249-3.926c-15.129,1.515-25.349,12.4-27.745,16.081-1.805,2.786-2.671,8.95-3.45,14.392a81.57,81.57,0,0,1-1.675,9.383A67.966,67.966,0,0,1,363.745,516.991Z" transform="translate(-94.441 -1.378)" style="fill:#b36932"/><path d="M341.912,594.914c-2.6,4.72-10.509,19.112-3.422,28.423,1.429,1.891,2.945,3.7,4.418,5.428,3.8,4.518,7.723,9.181,6.943,12.01-.188.635-.462,1.473-.779,2.469-2.541,7.824-7.853,24.107.476,37.041,9.932,15.4,49.629,24.858,82.326,27.139,3.349.231,6.8.332,10.292.332,32.725,0,70.2-9.369,81.777-12.5,11.115-3,30.791-15.36,35.223-26.273,1.891-4.633,4.966-6.5,7.665-8.127,2.5-1.5,5.081-3.06,5.5-6.395l.072-.606c.621-4.778,2.064-15.966-3.349-22.144a11.337,11.337,0,0,0-6.366-3.653c1.6-7.246,4.648-25.868-4.388-33.345,2.988-6.034,10.249-23.617.635-35.786a26.858,26.858,0,0,0,2.512-9.86c1.689-2.7,8.473-13.655,9.975-18.564,1.111-3.58,10.047-17.452,15.792-25.911l.217-.318.115-.375c.087-.3,8.777-30.358-16.168-43.249-24.02-12.429-45.356-5.687-46.251-5.4l-2.194.722.519,2.252c3.566,15.446.823,26.07-1.819,36.348-1.717,6.655-3.493,13.541-3.493,21.5,0,13.194.707,22.765,2.151,28.943a83.71,83.71,0,0,0-12.8-10.494c-9.773-6.655-17.077-9.167-27.2-12.646-3.926-1.343-8.358-2.873-13.5-4.836-12.544-4.807-22.389-11.317-28.9-15.619a77.094,77.094,0,0,0-6.828-4.23,44.952,44.952,0,0,1-5.658-3.681c-1.069-.779-2.195-1.573-3.364-2.353-.361-1.472-1.068-4.431-1.545-6.51l6.583-13.815-1.718-1.227c-.433-.3-10.624-7.492-26.5-5.9-15.259,1.53-27.413,12.068-31.484,18.362-2.4,3.724-3.32,10.177-4.2,16.413a81.42,81.42,0,0,1-1.545,8.777c-1.66,6.063-5.528,20.267-19.877,27.73-5.529,2.859-9.051,8.315-10.192,15.778-1.717,11.116,2.267,25.06,6.843,29.636C345.044,587.032,343.586,591.853,341.912,594.914Zm176.271-21.105c-4.547,4.98-13.843,4.128-22.028,3.392-2.931-.274-5.688-.519-8.214-.519-8,0-17.554-3.984-26.778-7.839-7.218-3-14.031-5.846-20.224-6.929-8.358-1.443-15.561-6.063-22.548-10.538a108.253,108.253,0,0,0-12.79-7.391,72.123,72.123,0,0,1-15.894-10.754c-4.864-4.23-8.82-8.618-10.379-11.635l-.057-.116a6.714,6.714,0,0,1-.636-1.66c-.952-4.994,5.168-18.189,8.72-23.876,2.713-4.331,7.564-5.717,9.527-6.106,2.7-.534,8.358.548,14.407,1.8,4.085.852,7.679,3.45,11.158,5.962a50.172,50.172,0,0,0,6.352,4.1c1.458.736,3.609,2.151,6.308,3.926,6.7,4.432,16.818,11.116,29.867,16.11,5.226,2.007,9.715,3.551,13.671,4.908,9.744,3.349,16.788,5.774,26,12.054,10.913,7.434,15.056,13.179,15.937,14.536C522.355,563.213,521.547,570.128,518.183,573.809Zm-105.869-87.1c-8.286-1.732-13.094-2.5-16.414-1.819-2.612.52-9.08,2.382-12.833,8.387-1.617,2.6-6.669,11.866-8.7,19.734l-.318-.549a59.686,59.686,0,0,1,3.1-14.508c2.454-6.294,7.434-14.2,17.163-16.124,5.37-1.054,18.68,1.747,21.177,3.537.159.736.361,1.6.578,2.5A20.233,20.233,0,0,0,412.314,486.705Zm144.5,60.225-.39.621v.736c0,.115-.159,11.5-8.315,14.118-8.242,2.627-19.791-10.928-21.552-14.436-1.53-3.06-3.363-11.086-3.363-31.9,0-7.319,1.616-13.6,3.334-20.238,2.656-10.322,5.4-20.99,2.368-36.335a60.976,60.976,0,0,1,40.174,5.63c20.079,10.394,14.623,33.664,13.742,36.969-2.31,3.393-14.609,21.7-16.211,26.923C565.359,533.043,559.108,543.321,556.813,546.93ZM346.329,597.353c3.811-6.929,2.353-13.829-4.345-20.527-3.19-3.19-6.944-15.489-5.442-25.306.909-5.875,3.45-9.945,7.535-12.067,16.312-8.474,20.758-24.757,22.418-30.878a81.354,81.354,0,0,0,1.675-9.383c.779-5.442,1.645-11.606,3.45-14.392,2.4-3.681,12.616-14.566,27.745-16.081a37.881,37.881,0,0,1,21.249,3.926l-3.753,7.867c-6.236-3.118-19.084-4.518-23.53-3.637-9.34,1.847-16.76,8.675-20.888,19.228-2.83,7.232-3.479,16.384-3.494,16.774l-.057.765,6.062,10.48.029-.015c4.461,8.1,18.507,19.849,28.51,24.469a103.059,103.059,0,0,1,12.184,7.059c7.391,4.735,15.042,9.628,24.4,11.259,5.63.982,12.2,3.71,19.141,6.612,9.687,4.042,19.7,8.228,28.727,8.228,2.3,0,4.951.245,7.752.491,3.219.3,6.568.606,9.845.606,6.279,0,12.27-1.126,16.37-5.615,4.085-4.461,5.456-11.491,4.186-21.394,4.562,5.3,12.169,11.967,19.791,11.967a12.042,12.042,0,0,0,3.753-.577,14.785,14.785,0,0,0,6.251-3.869c7,11-1.27,27.572-2.815,30.459a196.928,196.928,0,0,1-17.135,11.289,90.256,90.256,0,0,1-18.867,8.733l-2.454.592c-.823.2-1.631.231-2.44.361-1.631.216-3.58.245-5.312.447-3.58.3-7.117.708-10.668,1.1-7.073.779-14.132,1.573-21.206,2.208s-14.146,1.126-21.234,1.227c-7.088.116-14.118-.274-20.946-2.237-13.728-3.638-27.24-8.171-40.65-12.935,13.266,5.154,26.633,10.076,40.318,14.147A58.774,58.774,0,0,0,443.018,621c1.79.231,3.58.3,5.37.462l5.37.187c7.16.116,14.305-.173,21.422-.606s14.233-1.011,21.321-1.588c3.551-.274,7.088-.563,10.61-.765,1.805-.159,3.436-.116,5.342-.289.938-.115,1.934-.144,2.843-.332l2.758-.592a94,94,0,0,0,20.065-8.531c5.817-3.19,11.4-6.64,16.9-10.379,6.871,5.586,4.229,22.765,2.31,30.213L540.8,641.165c-2.858,2.18-5.717,4.36-8.56,6.583-1.43,1.14-2.815,2.208-4.288,3.507-.086.073-.2.188-.26.231a.027.027,0,0,0-.043,0,2.985,2.985,0,0,1-.317.159,8.448,8.448,0,0,1-1.054.4c-.794.26-1.617.491-2.469.708-6.8,1.674-13.93,2.771-20.989,3.782-7.088,1-14.2,1.79-21.336,2.425-7.131.606-14.291,1.068-21.436,1.111a97.29,97.29,0,0,1-10.668-.432c-3.508-.419-7.088-1-10.639-1.487l-42.657-6.135,42.469,7.391c3.551.591,7.03,1.27,10.639,1.8a105.289,105.289,0,0,0,10.841.75c7.218.174,14.436-.086,21.625-.476,7.2-.433,14.377-1.025,21.552-1.819,7.174-.822,14.305-1.689,21.494-3.233.91-.2,1.805-.419,2.743-.693.476-.173.924-.275,1.472-.52a5.044,5.044,0,0,0,.881-.447c.173-.116.346-.231.52-.361l.26-.217c1.241-1.039,2.728-2.136,4.143-3.176,2.872-2.122,5.788-4.215,8.7-6.293l16.832-11.881a6.937,6.937,0,0,1,5,2.194c3.912,4.461,2.627,14.407,2.136,18.146l-.087.635c-.1.823-.967,1.429-3.089,2.7-3.046,1.848-7.218,4.36-9.729,10.567-3.45,8.488-20.874,20.311-31.859,23.285-12.632,3.421-56.472,14.377-90.41,12.01-37.258-2.6-70.965-13.281-78.428-24.844-7.03-10.9-2.223-25.652.087-32.739.346-1.068.635-1.978.837-2.671,1.5-5.413-3.089-10.855-7.954-16.615-1.429-1.7-2.9-3.45-4.259-5.24C337.408,613.579,344.12,601.366,346.329,597.353Z" transform="translate(-94.441 -1.378)"/><path d="M343.5,351.185l-.058.13,46.525,19.632,15.793,7.391c-4.345,6.106-13.541,22.216-7.247,42.108,7.709,24.367,24.079,36.71,24.771,37.215l1.184.881,1.343-.592c.043-.015,3.738-1.588,6.25-.419l-8.935,9.21,1.328,29.867,13.8,5.991c-.115,8.5-.678,46.727-1.472,56.774-1.675,21.134-1.834,40.911,8.141,42.571a141.7,141.7,0,0,0,22.289,2.093c5.774,0,11.288-.577,15.345-2.252,6.8-2.786,10.87-18.42,11.62-21.538l.693-2.872-2.959-.232c-7.305-.562-16.009-1.9-18.16-3.1-.693-4.432,2.194-29.1,5.514-51.261.491-4.561,2.469-12.472,5.688-14.695a2.984,2.984,0,0,1,2.656-.447c8.517,2.194,18.9,13.627,19,13.742l2.844,3.162,1.415-4.014c.361-1.01,8.863-25.1,10.682-36.074a256.119,256.119,0,0,0,2.425-26.374c2.425-3.507,13.844-20.7,16.11-34.674l.144-.851-.418-.765c-1.761-3.219-5.948-12.747-4.244-18.16.592-1.877,1.155-2.194,1.992-2.671,3.45-1.948,4.3-4.388,2.526-15.027-2.584-15.533-14.609-31.3-17.626-35.05l.838-10.768-1.011-.838c-1.227-1.01-30.228-24.771-50.7-26.951-10.74-1.14-17.4-.2-20.326,2.873a.178.178,0,0,0-.072.072L381.306,276.38l-.274.491a41,41,0,0,0-8.2-3.263A41.649,41.649,0,0,0,343.5,351.185Z" transform="translate(-94.441 -1.378)" style="fill:#030303"/><path d="M445.754,596.964a154.86,154.86,0,0,0,17.12,1.919c6.611.318,13.367.029,17.756-1.761,2.786-1.155,6.019-8.921,7.853-15.2-.217-.015-.448-.044-.665-.058-6.914-.693-15.821-2.064-18.087-4.605a3.675,3.675,0,0,1-.837-2.281,1.315,1.315,0,0,0-.029-.231,15.747,15.747,0,0,1-.116-1.631c-.231-5.327.592-17.9,5.154-48.734l-.274-.015,1.342-22.808-19.892.4-11.765.23c-.116,7.608-.679,47.031-1.5,57.569C439.459,589.573,442.65,596.444,445.754,596.964Z" transform="translate(-94.441 -1.378)" style="fill:#414042"/><path d="M464.748,508.993s-4.884,59.373-1.874,73.406,9.537,12.824,9.537,12.824-8.522-15.7-5.258-39.271S477.207,507.06,464.748,508.993Z" transform="translate(-94.441 -1.378)" style="fill:#5d5b5e"/><path d="M468.894,574.978c.635,5.717,2.511,14.248,6.871,14.811,4.316.563,11.1-6.857,12.053-7.925-6.914-.693-15.821-2.064-18.087-4.605A3.675,3.675,0,0,1,468.894,574.978Z" transform="translate(-94.441 -1.378)" style="fill:#212021"/><path d="M441.813,559.763c-2.354,29.81.837,36.681,3.941,37.2a154.86,154.86,0,0,0,17.12,1.919c-13.916-8.632-12.487-23.082-12.862-38.513-.4-16.673,3.941-50.063,5.067-58.406l-11.765.23C443.2,509.8,442.635,549.225,441.813,559.763Z" transform="translate(-94.441 -1.378)" style="fill:#212021"/><path d="M428.272,468.7l1.083,24.526,9.282,4.028v-.029l7.737-.159,36.017-.708V466.986c-3.681-1.876-12.66-7.679-15.634-21.061a43.85,43.85,0,0,1-.953-11.447c-1.284.375-2.612.721-4,.981a51.913,51.913,0,0,1-9.484.938,35.853,35.853,0,0,1-8.445-.967c.173,5.529-.289,15.576-5.1,22.188l.1.144Z" transform="translate(-94.441 -1.378)" style="fill:#414042"/><path d="M464.748,453.168s7.348,11.923,13.608,15.353l1.415,26.392s-7.914-14.251-8.937-20.873S459.683,466.109,464.748,453.168Z" transform="translate(-94.441 -1.378)" style="fill:#5d5b5e"/><path d="M438.882,457.762,428.272,468.7l1.083,24.526,9.282,4.028v-.029l7.737-.159c-1.645-2.035-13.3-17.034-7.521-22.1,6.193-5.442,10.408-25.681,15.244-26.287a126.137,126.137,0,0,0,12.66-2.757,43.85,43.85,0,0,1-.953-11.447c-1.284.375-2.612.721-4,.981a51.913,51.913,0,0,1-9.484.938,35.853,35.853,0,0,1-8.445-.967c.173,5.529-.289,15.576-5.1,22.188Z" transform="translate(-94.441 -1.378)" style="fill:#212021"/><path d="M479.764,506.15a10.507,10.507,0,0,1,2.309-2.223,8.04,8.04,0,0,1,6.8-1.184,19.626,19.626,0,0,1,2.945,1.011,30.113,30.113,0,0,1,3.609,1.818,65.488,65.488,0,0,1,12,9.427c2.512-7.362,7.81-23.386,9.138-31.383,1.761-10.581,2.381-26.3,2.381-26.46l.029-.751.433-.621c.13-.187,12.891-18.318,15.548-32.364-1.632-3.161-6.583-13.786-4.2-21.321a8.4,8.4,0,0,1,4.316-5.529c.678-.39,1.516-.866.029-9.816-2.671-16.024-17.02-33.26-17.164-33.433l-.664-.794.779-10.162c-3.854-3.061-18.015-13.96-31.974-20.355a48.317,48.317,0,0,1,5.933,7.651c.491.751.967,1.531,1.443,2.339a38.084,38.084,0,0,1,4.23,11.317c5.76,3.479,29.939,19.849,29.939,49.875v.5l-.188.462c-.043.116-3.8,9.34-1.587,16.052a9.517,9.517,0,0,0,1.948,3.45l.852.968-.274,1.256c-.245,1.169-6.381,28.784-20.21,40.087l-.794.649-1.025-.086c-.159-.014-15.46-1.2-18.9,8.834v35.945l-7.4.144Z" transform="translate(-94.441 -1.378)" style="fill:#808285"/><path d="M479.764,506.15a10.507,10.507,0,0,1,2.309-2.223,8.04,8.04,0,0,1,6.8-1.184,19.626,19.626,0,0,1,2.945,1.011c.1,0,1.776-35.238,1.776-35.238s6.669-7.751,14.262-8.04,21.35-33.433,20.787-45.847l-.274,1.256c-.245,1.169-6.381,28.784-20.21,40.087l-.794.649-1.025-.086c-.159-.014-15.46-1.2-18.9,8.834v35.945l-7.4.144Z" transform="translate(-94.441 -1.378)" style="fill:#343536"/><path d="M526.607,369.431c2.021,5.529,6.554,23.357,6.554,23.357s-1.921-.4-4.735,8.156,3.32,23.876,3.32,23.876-14.19,29-15.706,30.82c-7.3,8.762-18.073,41.95-20.614,49.932a65.488,65.488,0,0,1,12,9.427c2.512-7.362,7.81-23.386,9.138-31.383,1.761-10.581,2.381-26.3,2.381-26.46l.029-.751.433-.621c.13-.187,12.891-18.318,15.548-32.364-1.632-3.161-6.583-13.786-4.2-21.321a8.4,8.4,0,0,1,4.316-5.529c.678-.39,1.516-.866.029-9.816-2.671-16.024-17.02-33.26-17.164-33.433l-.664-.794.779-10.162c-3.854-3.061-18.015-13.96-31.974-20.355a48.317,48.317,0,0,1,5.933,7.651c5.37,3.941,22.014,16.1,22.014,16.1l1.01,6.655S524.6,363.888,526.607,369.431Z" transform="translate(-94.441 -1.378)" style="fill:#9da0a3"/><path d="M403.328,418.916a75.624,75.624,0,0,0,21.913,33.837l.014.014a15.242,15.242,0,0,1,4.129-.721,9.915,9.915,0,0,1,6,1.559c3.8-6.251,3.594-16.111,3.334-19.95a26.771,26.771,0,0,1-5.846-3.595c-11.419-9.325-11.808-25.363-11.823-26.041V403.8c.029-.5.751-10.235,6.641-15.59l-10.524-4.706-3.306-1.487-3.421-1.53C407.052,385.108,397.467,400.4,403.328,418.916Z" transform="translate(-94.441 -1.378)" style="fill:#808285"/><path d="M403.328,418.916a75.624,75.624,0,0,0,21.913,33.837c-.433-.606-14.263-20.224-18.579-38.514-3.551-15.085,4.172-27.918,7.2-32.22l-3.421-1.53C407.052,385.108,397.467,400.4,403.328,418.916Z" transform="translate(-94.441 -1.378)" style="fill:#9da0a3"/><path d="M418.745,426.625c10.826,17.394,14.305,18.477,10.639,25.421a9.915,9.915,0,0,1,6,1.559c3.8-6.251,3.594-16.111,3.334-19.95a26.771,26.771,0,0,1-5.846-3.595c-11.419-9.325-11.808-25.363-11.823-26.041V403.8c.029-.5.751-10.235,6.641-15.59l-10.524-4.706C413.764,390.651,407.658,408.826,418.745,426.625Z" transform="translate(-94.441 -1.378)" style="fill:#343536"/><path d="M483.416,461.847c4.908-10.206,18.318-10.523,22.274-10.408,10.509-9.311,16.2-30.314,17.467-35.468-5.876-8.055-1.617-20.57-.592-23.255-.145-14.71-6.944-25.941-13.858-33.592A68.6,68.6,0,0,0,498.544,350c.909,16.3-6.207,32.278-9.744,37.157.751,4.749,2.728,22.288-5.991,35.165A29.621,29.621,0,0,1,471,432.5C469.428,451.483,478.926,459.278,483.416,461.847Z" transform="translate(-94.441 -1.378)" style="fill:#808285"/><path d="M511.809,367.411s8.158,16.315,6.949,24.171-2.777,18.733.122,22.962c0,0-4.279,22.538-15.107,33.538,0,0-12.358.151-15.531,4.381,0,0,5.741-8.158,11.481-11.632s12.539-28.361,12.539-28.361-3.191-15.24,1.511-20.888S512.413,370.885,511.809,367.411Z" transform="translate(-94.441 -1.378)" style="fill:#9da0a3"/><path d="M483.416,461.847s-5.067-21.177-3.652-23.76c1.429-2.6,18.4-6.048,20.772-19.532,3.237-18.376-3.161-29.347-3.161-29.347s13.511-16.6,11.332-30.084A68.6,68.6,0,0,0,498.544,350c.909,16.3-6.207,32.278-9.744,37.157.751,4.749,2.728,22.288-5.991,35.165A29.621,29.621,0,0,1,471,432.5C469.428,451.483,478.926,459.278,483.416,461.847Z" transform="translate(-94.441 -1.378)" style="fill:#343536"/><path d="M426.107,404.033c.057,1.328.837,14.681,10,22.13,4.273,3.479,9.787,5.211,16.456,5.182a46.906,46.906,0,0,0,8.315-.852c7.809-1.458,13.771-5.153,17.727-10.985,8.776-12.934,5.067-32.379,5.038-32.567l-.318-1.558,1.2-.9c2.627-2.815,15.879-30.329,4.547-49.961-11.216-19.416-24.237-17.019-24.785-16.918l-.159-.679c-4.793-.029-7.2.635-8.358,1.2,23.472,16.9,30.112,39.048,17.712,59.648-8.17,13.555-23.5,15.316-30.921,15.316a32.191,32.191,0,0,1-4.186-.217l-.375-.043-4.923-2.209C427.233,393.437,426.208,402.922,426.107,404.033Z" transform="translate(-94.441 -1.378)" style="fill:#414042"/><path d="M467.153,425.119c-.289.22-11.017,4.835-15.056-3.625s-.693-14.822,10.777-18.137a38.674,38.674,0,0,0,18.117-11.775S481.983,413.841,467.153,425.119Z" transform="translate(-94.441 -1.378)" style="fill:#5d5b5e"/><path d="M455.339,399.457c18.058-3.825,22.5-11.866,22.5-11.866s14.666-23.977,5.745-46.367-27.817-23.1-27.817-23.1c23.472,16.9,30.112,39.048,17.712,59.648-8.17,13.555-23.5,15.316-30.921,15.316a32.191,32.191,0,0,1-4.186-.217l-.375-.043-4.923-2.209c-5.846,2.815-6.871,12.3-6.972,13.411.057,1.328.837,14.681,10,22.13,4.273,3.479,9.787,5.211,16.456,5.182l-.014-.014C438.954,420.186,437.28,403.268,455.339,399.457Z" transform="translate(-94.441 -1.378)" style="fill:#212021"/><path d="M365.752,355.241l26.258,11.087,18.709,8.747,28.625,12.819c2.324.2,15.706.967,24.959-6.987a23.142,23.142,0,0,0,4.85-5.73,35.227,35.227,0,0,0,5.428-17.453,30.746,30.746,0,0,0-1.068-8.921,37.917,37.917,0,0,0-5.731-11.938c-3.926-5.63-9.571-11-16.846-15.952l-54.667-30.429a41.561,41.561,0,0,1,7.174,23.3c0,1.025-.043,2.05-.115,3.061a41.68,41.68,0,0,1-37.576,38.4Z" transform="translate(-94.441 -1.378)" style="fill:#bcbec0"/><path d="M365.752,355.241l26.258,11.087,18.709,8.747,28.625,12.819c2.324.2,15.706.967,24.959-6.987l-73.982-36.8A41.639,41.639,0,0,1,365.752,355.241Z" transform="translate(-94.441 -1.378)" style="fill:#343536"/><path d="M403.443,313.782c0,1.025-.043,2.05-.115,3.061l71.253,40.881a30.746,30.746,0,0,0-1.068-8.921,37.917,37.917,0,0,0-5.731-11.938c-5.8-6.626-11.953-12.631-16.846-15.952l-54.667-30.429A41.561,41.561,0,0,1,403.443,313.782Z" transform="translate(-94.441 -1.378)" style="fill:#5a5b5c"/><path d="M325.2,313.782A36.6,36.6,0,1,0,371.5,278.473a37.131,37.131,0,0,0-9.7-1.3A36.647,36.647,0,0,0,325.2,313.782Zm6.727,0A29.875,29.875,0,1,1,361.8,343.649a29.551,29.551,0,0,1-12.112-2.555A29.9,29.9,0,0,1,331.922,313.782Z" transform="translate(-94.441 -1.378)" style="fill:#bcbec0"/><path d="M361.8,288.968a24.5,24.5,0,0,1,6.568.88A24.817,24.817,0,0,1,361.8,338.6a24.531,24.531,0,0,1-10.062-2.122A24.816,24.816,0,0,1,361.8,288.968Z" transform="translate(-94.441 -1.378)"/><path d="M343.5,351.185l-.058.13,46.525,19.632,15.793,7.391c-4.345,6.106-13.541,22.216-7.247,42.108,7.709,24.367,24.079,36.71,24.771,37.215l1.184.881,1.343-.592c.043-.015,3.738-1.588,6.25-.419l-8.935,9.21,1.328,29.867,13.8,5.991c-.115,8.5-.678,46.727-1.472,56.774-1.675,21.134-1.834,40.911,8.141,42.571a141.7,141.7,0,0,0,22.289,2.093c5.774,0,11.288-.577,15.345-2.252,6.8-2.786,10.87-18.42,11.62-21.538l.693-2.872-2.959-.232c-7.305-.562-16.009-1.9-18.16-3.1-.693-4.432,2.194-29.1,5.514-51.261.491-4.561,2.469-12.472,5.688-14.695a2.984,2.984,0,0,1,2.656-.447c8.517,2.194,18.9,13.627,19,13.742l2.844,3.162,1.415-4.014c.361-1.01,8.863-25.1,10.682-36.074a256.119,256.119,0,0,0,2.425-26.374c2.425-3.507,13.844-20.7,16.11-34.674l.144-.851-.418-.765c-1.761-3.219-5.948-12.747-4.244-18.16.592-1.877,1.155-2.194,1.992-2.671,3.45-1.948,4.3-4.388,2.526-15.027-2.584-15.533-14.609-31.3-17.626-35.05l.838-10.768-1.011-.838c-1.227-1.01-30.228-24.771-50.7-26.951-10.74-1.14-17.4-.2-20.326,2.873a.178.178,0,0,0-.072.072L381.306,276.38l-.274.491a41,41,0,0,0-8.2-3.263A41.649,41.649,0,0,0,343.5,351.185Zm145.581-16.659c11.332,19.632-1.919,47.146-4.547,49.961l-1.2.9.318,1.558c.029.188,3.739,19.633-5.038,32.567-3.956,5.832-9.917,9.527-17.727,10.985-10.5,1.963-18.838.5-24.771-4.33-9.167-7.449-9.946-20.8-10-22.13.1-1.111,1.126-10.6,6.972-13.411l4.923,2.209.375.043a32.191,32.191,0,0,0,4.186.217c7.42,0,22.751-1.761,30.921-15.316,12.4-20.6,5.76-42.744-17.712-59.648,1.155-.563,3.565-1.227,8.358-1.2l.159.679C464.844,317.507,477.865,315.11,489.081,334.526ZM471.008,432.5a29.621,29.621,0,0,0,11.808-10.177c8.72-12.877,6.742-30.416,5.991-35.165,3.537-4.879,10.654-20.859,9.744-37.157,7.954,5.8,23.8,20.166,24.021,42.715-1.025,2.685-5.284,15.2.592,23.255-1.271,5.154-6.958,26.157-17.467,35.468-3.956-.115-17.366.2-22.274,10.408C478.933,459.278,469.435,451.483,471.008,432.5Zm8.763,73.65.274-4.692,7.4-.144V465.369c3.436-10.032,18.737-8.848,18.9-8.834l1.025.086.794-.649c13.829-11.3,19.964-38.918,20.21-40.087l.274-1.256-.852-.968c-5.7-6.365-.418-19.372-.36-19.5l.187-.462v-.5c0-30.026-24.179-46.4-29.939-49.875A38.057,38.057,0,0,0,493.455,332a51.96,51.96,0,0,0-7.376-9.99c13.959,6.395,28.12,17.294,31.975,20.355l-.78,10.162.664.794c.144.173,14.493,17.409,17.164,33.433,1.487,8.95.649,9.426-.029,9.816a8.4,8.4,0,0,0-4.316,5.529c-2.382,7.535,2.569,18.16,4.2,21.321C532.3,437.466,519.54,455.6,519.41,455.784l-.433.621-.028.751c0,.159-.621,15.879-2.382,26.46-1.328,8-6.626,24.021-9.138,31.383-4.013-3.912-11.548-10.452-18.55-12.256a8.04,8.04,0,0,0-6.8,1.184A10.507,10.507,0,0,0,479.771,506.15ZM441.82,559.763c.822-10.538,1.385-49.961,1.5-57.569l31.657-.635-1.343,22.808.275.015c-7.305,49.355-5.038,51.91-4.172,52.877,2.338,2.627,11.75,4,18.752,4.663-1.834,6.279-5.067,14.045-7.853,15.2-8.864,3.624-27.341,1.1-34.876-.158C442.657,596.444,439.467,589.573,441.82,559.763Zm-2.931-102-.1-.144c4.807-6.612,5.269-16.659,5.1-22.188a35.853,35.853,0,0,0,8.445.967,51.913,51.913,0,0,0,9.484-.938c1.386-.26,2.714-.606,4-.981-.866,21.682,12,30.17,16.587,32.508v29.376l-43.754.867v.029l-9.282-4.028L428.279,468.7Zm-28.438-77.273,17.251,7.723c-5.89,5.355-6.612,15.085-6.641,15.59v.217c.015.678.405,16.716,11.823,26.041a26.771,26.771,0,0,0,5.846,3.595c.26,3.839.462,13.7-3.334,19.95-3.133-2.137-7.218-1.762-10.134-.838a75.647,75.647,0,0,1-21.927-33.851C397.474,400.4,407.059,385.108,410.451,380.489Zm-44.692-25.248a41.589,41.589,0,0,0,30.517-64.757l54.667,30.429c22.952,15.6,29.593,35.382,18.218,54.264-8.445,14-27.038,12.963-29.81,12.717l-28.625-12.819-18.709-8.747ZM325.2,313.782A36.647,36.647,0,0,1,361.8,277.174a37.131,37.131,0,0,1,9.7,1.3A36.618,36.618,0,1,1,325.2,313.782Z" transform="translate(-94.441 -1.378)"/><path d="M331.922,313.782a29.9,29.9,0,0,0,17.77,27.312,29.551,29.551,0,0,0,12.112,2.555,29.867,29.867,0,1,0-29.882-29.867Zm5.053,0A24.852,24.852,0,0,1,361.8,288.968a24.5,24.5,0,0,1,6.568.88A24.817,24.817,0,0,1,361.8,338.6a24.531,24.531,0,0,1-10.062-2.122A24.854,24.854,0,0,1,336.975,313.782Z" transform="translate(-94.441 -1.378)"/><path d="M378.635,519.82l-9.46-13.006s4.945,16.245,7.548,19.99a61.968,61.968,0,0,1,4.8,8.683s-8.917-9.192-10.015-11.113-6.585-8.506-1.1-24.7a31.162,31.162,0,0,1,10.015-16.737l11.181,8.917.755,9.7-6.448,5.666S378.767,517.187,378.635,519.82Z" transform="translate(-94.441 -1.378)" style="fill:#f08c3e"/><path d="M391.606,491.859l-11.181-8.917s4.939-8.232,17.835-8.1,18.658.824,18.658.824l-.057,4.841-1.372,4.851,3.35,10.749H412.4Z" transform="translate(-94.441 -1.378)" style="fill:#b36932"/><polygon points="72.803 575.67 805.204 575.67 851.035 836.565 31.792 836.565 72.803 575.67"/><path d="M306.78,862.421c78.044,41.7,159.489,91.756,231.643,149.267,72.151-57.511,153.592-107.564,231.633-149.267Z" transform="translate(-94.441 -1.378)" style="fill:url(#radial-gradient-2)"/><path d="M359.5,871.5c16.36,5.636,32.3,12.428,48.086,19.532q11.8,5.424,23.437,11.212c7.752,3.868,15.416,7.916,23.039,12.046,15.265,8.23,30.126,17.21,44.758,26.569q21.841,14.2,42.482,30.246l-5.641-.148c13.623-9.369,27.273-18.511,41.163-27.371,13.915-8.8,27.883-17.51,42.116-25.787,14.155-8.4,28.593-16.336,43.117-24.076,14.577-7.65,29.35-14.937,44.385-21.618-14.09,8.51-28.208,16.866-42.107,25.6q-20.909,12.978-41.556,26.328c-13.723,8.97-27.5,17.85-41.086,27.013-13.6,9.118-27.258,18.243-40.59,27.648l-2.867,2.023-2.774-2.171C521.984,968,508.122,957.9,493.842,948.393c-7.077-4.847-14.284-9.511-21.531-14.115-3.634-2.286-7.276-4.563-10.949-6.789-3.64-2.282-7.323-4.5-11-6.724-7.36-4.442-14.825-8.711-22.293-12.985s-14.994-8.459-22.581-12.535Q382.8,882.867,359.5,871.5Z" transform="translate(-94.441 -1.378)" style="fill:#c20000"/><path d="M665.318,327.078a9.535,9.535,0,0,1-.17-1.558C665.176,325.746,665.233,326.271,665.318,327.078Z" transform="translate(-94.441 -1.378)" style="fill:#ea2127"/><path d="M665.318,327.078a9.535,9.535,0,0,1-.17-1.558C665.176,325.746,665.233,326.271,665.318,327.078Z" transform="translate(-94.441 -1.378)" style="fill:#ae1f23"/><path d="M212.416,616.763h50.759q2.1,75.269,6.045,147.017-17.811,2.195-35.589,4.688-.48-7.106-.941-14.249-14.672-16.074-28.759-33.149,14.545-1.56,29.109-2.983-.439-28.521-.637-57.555-.274-2.162-.547-4.329-8.589,28.748-17.4,58.011-11.718,1.155-23.424,2.393,8.2,10.715,16.6,21.006-5.7,18.111-11.486,36.446-17.739,2.805-35.441,5.906Q187.408,696,212.416,616.763Z" transform="translate(-94.441 -1.378)" style="fill:none;stroke:#000;stroke-linecap:round;stroke-linejoin:round;stroke-width:45.2789365897041px"/><path d="M319.1,758.215q-16.5,1.647-32.97,3.546,7.779-62.376,15.557-124.754-7.2-9.976-14.227-20.244h45.9q9.865,28.531,20.539,56,2.8-28,5.593-56h30.49q-5.693,67.4-11.383,134.8-8.465,7.835-17.048,15.852c-12.208-25.429-23.794-51.37-34.775-78.081Q322.944,723.775,319.1,758.215Z" transform="translate(-94.441 -1.378)" style="fill:none;stroke:#000;stroke-linecap:round;stroke-linejoin:round;stroke-width:45.2789365897041px"/><path d="M430.527,616.763h50.759Q491.8,682.51,504.344,747.707q-17.917.247-35.832.792-1.3-6.308-2.58-12.623-16.809-15.357-32.985-30.795,14.637-.477,29.279-.818-3.631-24.912-6.994-49.944-.512-1.87-1.02-3.743-5.526,24.542-11.3,49.23-11.784.33-23.564.744,9.463,9.528,19.154,18.966-3.845,15.2-7.793,30.463-17.9.856-35.793,2.01Q413.714,683.5,430.527,616.763Z" transform="translate(-94.441 -1.378)" style="fill:none;stroke:#000;stroke-linecap:round;stroke-linejoin:round;stroke-width:45.2789365897041px"/><path d="M522.192,635.021q-8.4-9.121-16.617-18.258h47.409l.546,47.669q-11.985-.042-23.969-.032,11.953,10.823,24.217,21.713.351,30.739.7,61.479-16.561-.154-33.125-.054Q521.775,691.279,522.192,635.021Zm56.818,34.625-.915-34.56q-8.712-9.189-17.237-18.323H608.1l5.919,132.2q-16.463-.6-32.932-.96-.7-26.515-1.4-53.031-4.125-.054-8.25-.1-14.318-12.8-28.221-25.42Q561.11,669.483,579.01,669.646Z" transform="translate(-94.441 -1.378)" style="fill:none;stroke:#000;stroke-linecap:round;stroke-linejoin:round;stroke-width:45.2789365897041px"/><path d="M706.232,656.333q-15.582-.394-31.168-.718-.51-6.321-1.022-12.642-6.376-.09-12.755-.172,1.02,13.786,2.041,27.571,20.213.524,40.417,1.212-12.555,12.843-25.518,25.342-6.486-.27-12.972-.516l2.166,29.255q6.681.342,13.361.717-.516-6.4-1.034-12.8,16.1.8,32.182,1.788l3.834,39.726q-39.708-3.335-79.5-5.206-3.253-57.272-6.506-114.543-9-9.353-17.808-18.587h90.463Q704.321,636.548,706.232,656.333Z" transform="translate(-94.441 -1.378)" style="fill:none;stroke:#000;stroke-linecap:round;stroke-linejoin:round;stroke-width:45.2789365897041px"/><path d="M753.673,616.763q8.632,71.839,17.266,143.681-16.482-1.811-32.985-3.367-6.426-60.361-12.853-120.724-9.507-9.913-18.837-19.59Z" transform="translate(-94.441 -1.378)" style="fill:none;stroke:#000;stroke-linecap:round;stroke-linejoin:round;stroke-width:45.2789365897041px"/><path d="M825.626,767.155q-16.44-2.23-32.906-4.207L776.562,637.173q-9.774-10.356-19.374-20.41H804.6q15.1,31.324,30.844,64,7.719-31.212,14.722-64h31.494q13.211,81.6,26.42,163.2-16.269-2.85-32.573-5.451l-10.248-66.431q-2.587,12.723-5.281,25.209c.019.119-.1.278-.36.48a.7.7,0,0,0-.333.657c-.364.653-.61,1.118-.742,1.39s-.43.79-.894,1.543q-7.95,9.372-16.082,18.421-11.572-25.443-22.808-50.109-1.053-1.355-2.105-2.7Q821.139,735.063,825.626,767.155Z" transform="translate(-94.441 -1.378)" style="fill:none;stroke:#000;stroke-linecap:round;stroke-linejoin:round;stroke-width:45.2789365897041px"/><path d="M212.416,616.763h50.759q2.1,75.269,6.045,147.017-17.811,2.195-35.589,4.688-.48-7.106-.941-14.249-14.672-16.074-28.759-33.149,14.545-1.56,29.109-2.983-.439-28.521-.637-57.555-.274-2.162-.547-4.329-8.589,28.748-17.4,58.011-11.718,1.155-23.424,2.393,8.2,10.715,16.6,21.006-5.7,18.111-11.486,36.446-17.739,2.805-35.441,5.906Q187.408,696,212.416,616.763Z" transform="translate(-94.441 -1.378)" style="fill:url(#linear-gradient)"/><path d="M319.1,758.215q-16.5,1.647-32.97,3.546,7.779-62.376,15.557-124.754-7.2-9.976-14.227-20.244h45.9q9.865,28.531,20.539,56,2.8-28,5.593-56h30.49q-5.693,67.4-11.383,134.8-8.465,7.835-17.048,15.852c-12.208-25.429-23.794-51.37-34.775-78.081Q322.944,723.775,319.1,758.215Z" transform="translate(-94.441 -1.378)" style="fill:url(#linear-gradient)"/><path d="M430.527,616.763h50.759Q491.8,682.51,504.344,747.707q-17.917.247-35.832.792-1.3-6.308-2.58-12.623-16.809-15.357-32.985-30.795,14.637-.477,29.279-.818-3.631-24.912-6.994-49.944-.512-1.87-1.02-3.743-5.526,24.542-11.3,49.23-11.784.33-23.564.744,9.463,9.528,19.154,18.966-3.845,15.2-7.793,30.463-17.9.856-35.793,2.01Q413.714,683.5,430.527,616.763Z" transform="translate(-94.441 -1.378)" style="fill:url(#linear-gradient)"/><path d="M522.192,635.021q-8.4-9.121-16.617-18.258h47.409l.546,47.669q-11.985-.042-23.969-.032,11.953,10.823,24.217,21.713.351,30.739.7,61.479-16.561-.154-33.125-.054Q521.775,691.279,522.192,635.021Zm56.818,34.625-.915-34.56q-8.712-9.189-17.237-18.323H608.1l5.919,132.2q-16.463-.6-32.932-.96-.7-26.515-1.4-53.031-4.125-.054-8.25-.1-14.318-12.8-28.221-25.42Q561.11,669.483,579.01,669.646Z" transform="translate(-94.441 -1.378)" style="fill:url(#linear-gradient)"/><path d="M706.232,656.333q-15.582-.394-31.168-.718-.51-6.321-1.022-12.642-6.376-.09-12.755-.172,1.02,13.786,2.041,27.571,20.213.524,40.417,1.212-12.555,12.843-25.518,25.342-6.486-.27-12.972-.516l2.166,29.255q6.681.342,13.361.717-.516-6.4-1.034-12.8,16.1.8,32.182,1.788l3.834,39.726q-39.708-3.335-79.5-5.206-3.253-57.272-6.506-114.543-9-9.353-17.808-18.587h90.463Q704.321,636.548,706.232,656.333Z" transform="translate(-94.441 -1.378)" style="fill:url(#linear-gradient)"/><path d="M753.673,616.763q8.632,71.839,17.266,143.681-16.482-1.811-32.985-3.367-6.426-60.361-12.853-120.724-9.507-9.913-18.837-19.59Z" transform="translate(-94.441 -1.378)" style="fill:url(#linear-gradient)"/><path d="M825.626,767.155q-16.44-2.23-32.906-4.207L776.562,637.173q-9.774-10.356-19.374-20.41H804.6q15.1,31.324,30.844,64,7.719-31.212,14.722-64h31.494q13.211,81.6,26.42,163.2-16.269-2.85-32.573-5.451l-10.248-66.431q-2.587,12.723-5.281,25.209c.019.119-.1.278-.36.48a.7.7,0,0,0-.333.657c-.364.653-.61,1.118-.742,1.39s-.43.79-.894,1.543q-7.95,9.372-16.082,18.421-11.572-25.443-22.808-50.109-1.053-1.355-2.105-2.7Q821.139,735.063,825.626,767.155Z" transform="translate(-94.441 -1.378)" style="fill:url(#linear-gradient)"/><path d="M396.484,809.391l-5.541,5.925a32.18,32.18,0,0,1-6,14.543c-4.694,6.311-10.85,9.465-18.315,9.465-7.232,0-13.235-3.154-17.928-9.465a32.309,32.309,0,0,1-6.157-15l-5.309-5.386,5.464-5.54a31.909,31.909,0,0,1,6.079-14.159c4.77-6.31,10.927-9.465,18.39-9.465,7.311,0,13.236,3.155,17.853,9.465a31.785,31.785,0,0,1,5.848,13.851Zm-26.933.077,5.695-5.695a58.776,58.776,0,0,0-1-6.232c-1.462-6.618-3.848-9.927-7.08-9.927-5.155,0-8.233,5.387-9.31,16.082l5.54,5.695-5.617,6a49,49,0,0,0,1.769,8.618c1.77,5.925,4.31,8.848,7.618,8.848,5.156,0,7.926-5.847,8.388-17.544l-.154.078Z" transform="translate(-94.441 -1.378)" style="fill:#fff"/><path d="M432.88,809.468l4.232-4.233v-9.387c0-5.772-2.309-8.7-6.849-8.773l-.076-6.155,19.852-.154.078,6.771h-.462c-3.309,0-5,1.847-5,5.617v11.7l4.386,4.54-4.386,4.694v8.156a14.73,14.73,0,0,1-6.078,12,20.132,20.132,0,0,1-33.244-15.775v-3.386l-5.54-5.617,5.54-5.54V793.847a8.445,8.445,0,0,0-1.384-4.925A4.141,4.141,0,0,0,399.484,787V781.15L423.492,781v6c-3.309.077-5.463,2.771-5.463,6.156V803.62l5.617,5.771-5.617,6v5.078q0,10.388,9.926,10.388a8.336,8.336,0,0,0,6.848-3,10.877,10.877,0,0,0,2.309-7.233v-6.849Z" transform="translate(-94.441 -1.378)" style="fill:#fff"/><path d="M482.512,803.851l5.387,5.54-5.387,5.694v10.234a9.061,9.061,0,0,0,1.308,4.772,4.417,4.417,0,0,0,4.155,2.154l.077,5.387a10.807,10.807,0,0,1-2.924.385H466.122a16.509,16.509,0,0,1-1.924-.078v-5.232a5.959,5.959,0,0,0,5.079-5.926V815.316l-6-5.848,6-5.772v-9.849c0-3.155-1.386-4.694-4.079-4.694-2.924,0-5.156,2.077-6.772,6.157a29.783,29.783,0,0,0-1.924,9.7l-5.078-2.771V780.92l48.786-.077v20.545l-5.617,3.155a81.171,81.171,0,0,0-1.154-9.08c-1.077-4.233-2.924-6.387-5.464-6.387-2.693,0-5.463,2.386-5.463,5.079Z" transform="translate(-94.441 -1.378)" style="fill:#fff"/><path d="M521.833,803.773l5.463,5.618-5.463,5.848v11.389a13.946,13.946,0,0,0,7.31,1.847c6.541,0,11.773-4.156,15.621-12.543l4.463,2.385-4.771,19.7-42.553.077v-6.388a6.123,6.123,0,0,0,5.156-2.692,9.254,9.254,0,0,0,1.692-5.7l-.077-7.772-5.847-5.925,5.847-5.926.155.155V793.616c0-3.847-2.386-6.079-7.234-6.771v-5.31l26.7-.23v5.617h-.231c-4.155,0-6.233,2.308-6.233,6.849Z" transform="translate(-94.441 -1.378)" style="fill:#fff"/><path d="M595.935,804.466l8.542,4.925-3.848,4.155,7.157,13.851c2,3.848,4.078,5.618,6.233,5.387v5.31l-26.856-.232v-5.078a12.967,12.967,0,0,0,4.309-.693c1.77-.615,2.693-1.538,2.693-2.77a8.506,8.506,0,0,0-1.384-3.694c-.385-.692-1-1.847-2-3.462H566.925c-1.308,3.154-2,5.155-2,6,0,3.154,2.386,4.693,7.079,4.617v4.925l-23.469-.154v-5.079c3.77-.154,6.31-1.847,7.7-5.079l5.849-13.466-4.387-4.463,8.927-6.156c3.308-7.772,4.924-12.235,4.924-13.312,0-1.616-1-2.386-3.078-2.386a17.582,17.582,0,0,0-1.924.154l.078-6.7H594.55v6.079a6.457,6.457,0,0,0-3.308,1A3.206,3.206,0,0,0,589.548,791a5.523,5.523,0,0,0,.77,2.616Zm-9.772,9.542-8.7-17.391-6.926,17.314Z" transform="translate(-94.441 -1.378)" style="fill:#fff"/><path d="M677.81,804.928l4.386,4.463-6.925,4.771-6.695,23.855-8.7-.078-9.772-27.7-7.388,27.7h-9.388l-6.617-22.777-7.618-5.694,4.54-4.617-3.386-11.7a7.2,7.2,0,0,0-6-5.54l.077-6.309c.846.076,9.311,0,25.393-.077l.077,6.155a10.515,10.515,0,0,0-4,.924,3.872,3.872,0,0,0-1.77,3.54c0,1.615.769,4.924,2.386,9.925l3.232,10.159,7.926-30.473,8.464-.077,10.773,32.627,3.693-12c1.924-6.156,2.848-9.927,2.848-11.234a3.221,3.221,0,0,0-1.924-3,7.372,7.372,0,0,0-3.77-.77V781.15l20.391.231v6.387a5.855,5.855,0,0,0-1.616-.231c-2.539,0-4.309,2-5.464,6.079Z" transform="translate(-94.441 -1.378)" style="fill:#fff"/><path d="M737.908,809.391l-3,3.232a16,16,0,0,1,1.846,7.464,16.689,16.689,0,0,1-6.771,13.62,22.6,22.6,0,0,1-14.7,5.079c-1.924,0-8.388-.539-19.546-1.616l-.846-20.315,5.463-.384a25.829,25.829,0,0,0,5.926,9.772c3.385,3.771,6.54,5.617,9.387,5.617a8.152,8.152,0,0,0,8.464-8c0-3.77-2.616-6.463-7.771-7.925l-23.855-6.464,3.386-3.386a17.337,17.337,0,0,1-1.847-8.233,15.373,15.373,0,0,1,5.848-12.62,20.5,20.5,0,0,1,13.467-4.541c4.925,0,11.7.232,20.391.617L734.6,801l-4.617.384c-2.232-9.773-6.618-14.62-13.313-14.62a8.085,8.085,0,0,0-6.156,2.77,9.222,9.222,0,0,0-2.462,6.387c0,2.077,1.539,3.616,4.695,4.617,0,0,3.308.923,9.849,2.77a25.966,25.966,0,0,1,5.617,2.155Z" transform="translate(-94.441 -1.378)" style="fill:#fff"/></svg>