<?xml version="1.0" encoding="utf-8"?>
<!-- Generator: Adobe Illuanc_strator 24.1.0, SVG Export Plug-In . SVG Version: 6.00 Build 0)  -->
<svg version="1.1" id="Layer_1" xmlns="http://www.w3.org/2000/svg" xmlns:xlink="http://www.w3.org/1999/xlink" x="0px"
	y="0px" viewBox="0 0 200 200" anc_style="enable-background:new 0 0 200 200;" xml:space="preserve">
	<style type="text/css">
		.anc_st0 {
			fill: #1F2E41;
		}

		.anc_st1 {
			fill: #FEFEFE;
		}

		.anc_st2 {
			fill: #848482;
		}

		.anc_st3 {
			fill: #97B2D4;
		}

		.anc_st4 {
			fill: #FDFDFD;
		}

		.anc_st5 {
			fill: #838382;
		}

		.anc_st6 {
			fill: #FCFCFD;
		}

		.anc_st7 {
			fill: #838381;
		}

		.anc_st8 {
			fill: #FBFCFC;
		}

		.anc_st9 {
			fill: #FCFCFC;
		}

		.anc_st10 {
			fill: #FBFBFB;
		}

		.anc_st11 {
			fill: #253346;
		}
	</style>
	<g>
		<path class="anc_st0" d="M7.42,158.99c2.35-3.94,4.34-7.99,6.51-12.02c-1.05-0.22-2.01-0.43-2.98-0.64c-0.8-0.17-1.6-0.34-2.41-0.5
		c-0.18-0.04-0.34-0.09-0.48-0.22c-1.1-0.93-1.86-2.07-2.16-3.5c-0.23-1.08-0.43-2.16-0.46-3.26c-0.07-2.14-0.15-4.28,0.1-6.41
		c0.08-0.69,0.2-1.38,0.32-2.07c0.07-0.36,0.05-0.63-0.25-0.91c-0.74-0.68-1.16-1.57-1.5-2.49c-0.54-1.43-0.84-2.92-0.97-4.44
		c-0.3-3.74-0.24-7.47,0.14-11.2c0.18-1.71,0.44-3.41,0.93-5.06c0.08-0.27,0.07-0.47-0.15-0.69c-2.09-2.06-3.15-4.63-3.69-7.46
		c-0.42-2.24-0.39-4.5-0.31-6.76c0.18-4.66,1.38-9.07,3.4-13.26c1.55-3.22,3.86-5.83,6.63-8.03c2.59-2.06,5.58-3.02,8.9-3.08
		c1.87-0.04,3.63,0.23,5.39,0.88c2.6,0.97,5.25,1.8,7.88,2.69c0.19,0.06,0.37,0.16,0.58,0.16c0.11-0.15,0.02-0.3-0.01-0.45
		c-0.55-2.84-1.11-5.69-1.65-8.53c-0.16-0.83-0.04-1.68-0.06-2.51c0-0.26,0.22-0.42,0.37-0.6c2.68-3.42,5.36-6.83,8.04-10.24
		c0.59-0.76,1.2-1.5,1.89-2.17c0.25-0.24,0.5-0.33,0.84-0.34c1.96-0.04,3.91,0.17,5.87,0.29c0.66,0.04,1.32,0.08,1.97,0.15
		c0.35,0.04,0.59-0.07,0.84-0.32c2.63-2.66,5.28-5.3,7.9-7.97c0.41-0.42,0.81-0.63,1.4-0.59c0.87,0.05,0.88,0.01,1-0.84
		c0.24-1.58,0.48-3.16,0.7-4.74c0.04-0.29,0.18-0.5,0.35-0.73c0.58-0.77,1.3-1.01,2.27-0.98c1.19,0.04,2.34,0.24,3.51,0.42
		c2.94,0.45,5.88,0.92,8.82,1.38c2.96,0.47,5.92,0.93,8.88,1.4c2.66,0.42,5.33,0.84,8,1.24c0.33,0.05,0.57,0.2,0.84,0.4
		c0.75,0.58,0.97,1.29,0.93,2.23c-0.06,1.66-0.29,3.3-0.43,4.96c-0.04,0.44-0.05,0.44,0.4,0.58c0.07,0.02,0.16,0.04,0.21,0.1
		c0.47,0.51,1.05,0.92,1.4,1.55c0.56,1.04,1.14,2.06,1.72,3.1c0.25-0.06,0.39-0.24,0.55-0.37c8.9-7.36,18.17-14.22,27.92-20.43
		c9.57-6.1,19.69-11.11,30.18-15.4c6.47-2.65,13.06-5,19.73-7.09c0.26-0.08,0.45-0.15,0.63,0.18c2.4,4.36,5.03,8.59,7.3,13.02
		c3.46,6.75,6.52,13.66,8.85,20.89c1.42,4.42,2.48,8.93,3.32,13.49c0.63,3.44,1.13,6.9,1.52,10.38c0.27,2.4,0.47,4.81,0.65,7.23
		c0.52,6.85,0.53,13.71,0.46,20.57c-0.01,1.26-0.26,2.4-0.82,3.56c-2.78,5.78-5.11,11.76-7.34,17.77
		c-3.33,8.99-6.41,18.07-9.48,27.15c-0.2,0.6-0.4,1.21-0.64,1.81c-0.11,0.28-0.07,0.36,0.23,0.45c3.47,0.98,6.42,2.83,8.86,5.48
		c2.41,2.62,3.92,5.72,4.75,9.16c0.67,2.76,0.88,5.56,0.77,8.39c-0.07,1.84-0.26,3.67-0.53,5.49c-0.02,0.12,0,0.24-0.13,0.32
		c-0.23-0.09-0.36-0.3-0.53-0.46c-1.15-1.01-2.44-1.67-4.01-1.6c-0.89,0.04-1.73,0.28-2.55,0.61c-1.23,0.5-2.37,1.17-3.39,2.01
		c-9.99,8.23-19.97,16.46-29.95,24.7c-0.35,0.29-0.71,0.58-1.05,0.9c-0.2,0.19-0.39,0.21-0.65,0.14c-8.71-2.2-17.43-4.4-26.14-6.6
		c-10.88-2.74-21.77-5.49-32.65-8.23c-12.3-3.1-24.6-6.2-36.89-9.3c-11.19-2.82-22.39-5.64-33.58-8.46
		c-5.44-1.37-10.89-2.74-16.33-4.11C7.75,159.11,7.62,159.06,7.42,158.99z M191.91,162.18c0.05-0.07,0.07-0.09,0.07-0.1
		c0-0.08,0-0.16-0.01-0.24c-0.39-2.9-1.17-5.67-2.55-8.26c-1.06-2-2.52-3.63-4.46-4.84c-0.99-0.61-1.99-1.19-3.04-1.69
		c-2.38-1.12-4.86-1.95-7.42-2.51c-0.53-0.11-0.56-0.13-0.36-0.66c0.03-0.09,0.05-0.19,0.08-0.29c1.91-6.12,3.91-12.21,5.96-18.29
		c4.11-12.18,8.74-24.15,14.09-35.85c0.14-0.3,0.18-0.6,0.18-0.93c0.03-4.82-0.13-9.64-0.44-14.45c-0.27-4.21-0.67-8.41-1.21-12.6
		c-0.45-3.49-1.02-6.96-1.73-10.4c-1.4-6.81-3.51-13.4-6.18-19.82c-2.71-6.51-5.85-12.79-9.55-18.79c-0.35-0.57-0.19-0.61-0.98-0.35
		c-5.77,1.91-11.43,4.1-17.02,6.48c-11.23,4.77-21.99,10.41-32.16,17.18c-9.55,6.36-18.69,13.25-27.5,20.6
		c-0.23,0.19-0.43,0.41-0.69,0.54c-0.18-0.16-0.24-0.35-0.34-0.52c-1.42-2.62-2.84-5.24-4.24-7.86c-0.16-0.31-0.36-0.48-0.72-0.53
		c-0.87-0.13-1.73-0.32-2.59-0.47c-0.28-0.05-0.45-0.14-0.37-0.46c0.02-0.08,0.01-0.16,0.02-0.24c0.24-2.25,0.48-4.49,0.74-6.74
		c0.04-0.34-0.08-0.42-0.36-0.46c-3.14-0.48-6.28-0.97-9.42-1.46c-2.72-0.42-5.45-0.85-8.17-1.27c-1.34-0.21-2.69-0.42-4.03-0.63
		c-0.27-0.04-0.42,0.01-0.43,0.31c0,0.12-0.05,0.23-0.07,0.35c-0.37,2.21-0.74,4.41-1.11,6.62c-0.08,0.45-0.08,0.46-0.53,0.37
		c-0.98-0.19-1.97-0.37-2.93-0.61c-0.51-0.13-0.83-0.02-1.2,0.35c-2.63,2.66-5.29,5.3-7.92,7.95c-0.28,0.28-0.56,0.4-0.95,0.36
		c-0.54-0.06-1.08-0.09-1.61-0.12c-1.87-0.14-3.75-0.26-5.62-0.42c-0.37-0.03-0.58,0.07-0.81,0.34c-2.32,2.89-4.64,5.76-6.98,8.64
		c-0.21,0.26-0.26,0.5-0.2,0.82c0.75,4.15,1.5,8.3,2.22,12.45c0.07,0.4,0.21,0.56,0.61,0.66c3.23,0.77,6.44,1.57,9.67,2.34
		c0.35,0.08,0.49,0.23,0.57,0.57c0.48,1.88,0.99,3.74,1.49,5.62c0.03,0.13,0.11,0.26-0.01,0.41c-0.15-0.04-0.3-0.08-0.45-0.13
		c-10.19-3.41-20.38-6.81-30.56-10.25c-1.05-0.36-1.98-0.35-3,0.04C14.04,74.3,11.27,76.7,9.25,80c-1.06,1.73-1.8,3.61-2.35,5.56
		c-1.02,3.56-1.44,7.17-0.78,10.85c0.32,1.74,0.87,3.4,1.78,4.94c0.18,0.3,0.4,0.47,0.73,0.56c0.75,0.2,1.5,0.42,2.25,0.63
		c0.6,0.17,1.2,0.35,1.83,0.54c-1.24,1.37-1.59,1.89-2.17,3.2c-0.13,0.29-0.25,0.59-0.36,0.89c-0.69,1.84-1.1,3.76-1.36,5.7
		c-0.35,2.62-0.57,5.25-0.29,7.89c0.13,1.2,0.35,2.37,0.88,3.47c0.44,0.91,1.01,1.6,2.16,1.62c0.6,0.01,1.22,0.13,1.84,0.34
		c-0.66,0.95-1.12,1.94-1.45,3c-0.9,2.93-1.1,5.93-0.88,8.96c0.05,0.78,0.22,1.54,0.5,2.28c0.12,0.32,0.31,0.46,0.64,0.53
		c2.94,0.59,5.87,1.2,8.8,1.82c0.46,0.1,0.95,0.13,1.38,0.34c-0.03,0.25-0.16,0.43-0.26,0.62c-1.82,3.63-3.64,7.25-5.46,10.87
		c-0.33,0.66-0.33,0.66,0.35,0.83c4.69,1.17,9.38,2.34,14.07,3.5c12.44,3.1,24.89,6.19,37.33,9.3c15,3.74,30,7.49,45,11.22
		c12.77,3.18,25.55,6.36,38.31,9.55c0.48,0.12,0.8,0.06,1.18-0.26c9.54-7.95,19.09-15.89,28.64-23.84c1.3-1.08,2.75-1.93,4.32-2.55
		c1.35-0.53,2.75-0.83,4.22-0.67C190.73,161.74,191.31,161.95,191.91,162.18z" />
		<path class="anc_st1" d="M191.91,162.18c-0.6-0.23-1.18-0.44-1.8-0.51c-1.47-0.17-2.87,0.13-4.22,0.67c-1.57,0.62-3.02,1.47-4.32,2.55
		c-9.55,7.94-19.1,15.88-28.64,23.84c-0.38,0.32-0.7,0.38-1.18,0.26c-12.77-3.2-25.54-6.37-38.31-9.55c-15-3.74-30-7.48-45-11.22
		c-12.44-3.1-24.89-6.2-37.33-9.3c-4.69-1.17-9.38-2.34-14.07-3.5c-0.68-0.17-0.68-0.17-0.35-0.83c1.82-3.62,3.64-7.25,5.46-10.87
		c0.1-0.19,0.23-0.37,0.26-0.62c-0.44-0.21-0.92-0.24-1.38-0.34c-2.93-0.62-5.87-1.23-8.8-1.82c-0.33-0.07-0.53-0.21-0.64-0.53
		c-0.28-0.74-0.44-1.5-0.5-2.28c-0.21-3.03-0.02-6.03,0.88-8.96c0.33-1.06,0.79-2.05,1.45-3c-0.62-0.21-1.24-0.33-1.84-0.34
		c-1.16-0.02-1.72-0.71-2.16-1.62c-0.53-1.1-0.75-2.27-0.88-3.47c-0.28-2.64-0.06-5.27,0.29-7.89c0.26-1.94,0.66-3.86,1.36-5.7
		c0.11-0.3,0.23-0.6,0.36-0.89c0.58-1.31,0.93-1.83,2.17-3.2c-0.63-0.18-1.23-0.36-1.83-0.54c-0.75-0.21-1.5-0.43-2.25-0.63
		c-0.33-0.09-0.55-0.26-0.73-0.56c-0.91-1.53-1.46-3.19-1.78-4.94c-0.67-3.68-0.24-7.29,0.78-10.85c0.56-1.95,1.29-3.82,2.35-5.56
		c2.02-3.3,4.79-5.7,8.43-7.07c1.02-0.38,1.94-0.39,3-0.04c10.18,3.45,20.37,6.84,30.56,10.25c0.15,0.05,0.3,0.09,0.45,0.13
		c0.12-0.15,0.04-0.28,0.01-0.41c-0.5-1.87-1.01-3.74-1.49-5.62c-0.09-0.34-0.22-0.49-0.57-0.57c-3.23-0.77-6.44-1.57-9.67-2.34
		c-0.4-0.1-0.54-0.26-0.61-0.66c-0.73-4.15-1.47-8.3-2.22-12.45c-0.06-0.32-0.01-0.56,0.2-0.82c2.34-2.87,4.66-5.75,6.98-8.64
		c0.22-0.28,0.44-0.37,0.81-0.34c1.87,0.16,3.75,0.28,5.62,0.42c0.54,0.04,1.08,0.06,1.61,0.12c0.39,0.05,0.67-0.07,0.95-0.36
		c2.63-2.66,5.29-5.29,7.92-7.95c0.37-0.37,0.69-0.49,1.2-0.35c0.97,0.25,1.95,0.42,2.93,0.61c0.45,0.09,0.46,0.08,0.53-0.37
		c0.37-2.21,0.74-4.41,1.11-6.62c0.02-0.12,0.07-0.23,0.07-0.35c0-0.31,0.16-0.36,0.43-0.31c1.34,0.22,2.68,0.42,4.03,0.63
		c2.72,0.42,5.45,0.85,8.17,1.27c3.14,0.49,6.28,0.97,9.42,1.46c0.28,0.04,0.4,0.12,0.36,0.46c-0.27,2.24-0.5,4.49-0.74,6.74
		c-0.01,0.08,0,0.16-0.02,0.24c-0.08,0.32,0.09,0.42,0.37,0.46c0.87,0.15,1.73,0.34,2.59,0.47c0.36,0.05,0.56,0.22,0.72,0.53
		c1.41,2.62,2.82,5.24,4.24,7.86c0.09,0.17,0.16,0.37,0.34,0.52c0.27-0.13,0.47-0.35,0.69-0.54c8.8-7.35,17.95-14.25,27.5-20.6
		c10.16-6.77,20.93-12.4,32.16-17.18c5.59-2.38,11.25-4.57,17.02-6.48c0.78-0.26,0.63-0.22,0.98,0.35c3.7,6,6.84,12.28,9.55,18.79
		c2.67,6.42,4.78,13.01,6.18,19.82c0.71,3.45,1.28,6.91,1.73,10.4c0.55,4.19,0.94,8.38,1.21,12.6c0.31,4.81,0.47,9.63,0.44,14.45
		c0,0.32-0.04,0.62-0.18,0.93c-5.34,11.69-9.98,23.67-14.09,35.85c-2.05,6.08-4.05,12.17-5.96,18.29c-0.03,0.1-0.05,0.19-0.08,0.29
		c-0.19,0.53-0.16,0.55,0.36,0.66c2.57,0.56,5.04,1.39,7.42,2.51c1.05,0.5,2.05,1.07,3.04,1.69c1.94,1.2,3.4,2.84,4.46,4.84
		c1.38,2.59,2.16,5.36,2.55,8.26c0.01,0.08,0.01,0.16,0.01,0.24C191.97,162.09,191.95,162.11,191.91,162.18z M35.65,128.32
		c-0.26,0.09-0.52,0.01-0.77-0.02c-1.35-0.15-2.7-0.32-4.05-0.49c-3.55-0.44-7.1-0.86-10.65-1.32c-0.48-0.06-0.8,0.07-1.12,0.38
		c-0.76,0.73-1.22,1.63-1.53,2.61c-0.51,1.66-0.66,3.37-0.57,5.1c0.03,0.66,0.14,1.31,0.38,1.93c0.17,0.45,0.44,0.69,0.93,0.81
		c3.54,0.83,7.07,1.69,10.6,2.55c0.81,0.2,1.61,0.4,2.42,0.6c-0.05,0.25-0.18,0.4-0.28,0.57c-1.59,2.68-3.17,5.37-4.77,8.05
		c-0.32,0.54-0.29,0.52,0.25,0.64c0.04,0.01,0.08,0.03,0.11,0.04c6.94,1.81,13.88,3.62,20.81,5.43c12.19,3.18,24.39,6.37,36.58,9.55
		c13.26,3.46,26.52,6.92,39.77,10.38c9.1,2.38,18.2,4.77,27.3,7.16c0.38,0.1,0.63,0.03,0.92-0.21c1.31-1.08,2.64-2.15,3.96-3.22
		c6.46-5.21,12.89-10.46,19.43-15.57c1.8-1.4,3.64-2.74,5.66-3.83c1.67-0.9,3.41-1.57,5.3-1.81c0.42-0.05,0.85-0.08,1.28-0.11
		c0-0.09,0.01-0.13,0-0.17c-0.05-0.13-0.1-0.26-0.16-0.39c-0.86-1.74-2-3.27-3.45-4.57c-1.62-1.45-3.53-2.39-5.59-3.04
		c-3.21-1.02-6.44-1.32-9.75-0.55c-0.28,0.06-0.54,0.2-0.87,0.18c0.02-0.12,0.03-0.19,0.05-0.27c2.57-10.37,5.33-20.69,8.36-30.94
		c3.17-10.7,6.95-21.18,11.44-31.4c0.12-0.28,0.18-0.56,0.18-0.87c-0.01-3.62-0.12-7.24-0.31-10.86c-0.26-4.81-0.68-9.61-1.34-14.39
		c-0.49-3.57-1.13-7.1-2-10.6c-2.05-8.25-5-16.17-8.7-23.83c-0.77-1.6-1.59-3.18-2.44-4.74c-0.16-0.29-0.31-0.41-0.65-0.27
		c-0.37,0.15-0.76,0.23-1.15,0.35c-11.84,3.68-23.12,8.63-33.91,14.72c-7.11,4.02-13.85,8.61-20.46,13.4
		c-6.56,4.76-12.95,9.73-19.17,14.92c-0.29,0.24-0.58,0.38-0.97,0.34c-0.76-0.07-1.52-0.12-2.28-0.11c-0.47,0.01-0.7-0.17-0.92-0.57
		c-1.8-3.35-3.62-6.68-5.42-10.02c-0.18-0.34-0.39-0.54-0.8-0.61c-1.59-0.3-3.17-0.65-4.75-0.98c-0.49-0.1-0.49-0.11-0.44-0.57
		c0.18-1.45,0.36-2.9,0.54-4.34c0.11-0.93,0.21-1.87,0.34-2.8c0.03-0.24-0.05-0.33-0.26-0.36c-0.1-0.01-0.2-0.02-0.3-0.04
		c-1.72-0.26-3.44-0.53-5.16-0.79c-1.74-0.26-3.48-0.53-5.22-0.78c-0.43-0.06-0.44-0.05-0.52,0.34c-0.32,1.73-0.65,3.46-0.97,5.18
		c-0.17,0.9-0.34,1.8-0.51,2.72c-0.16-0.02-0.28-0.04-0.39-0.06c-1.82-0.37-3.65-0.72-5.46-1.13c-0.45-0.1-0.69,0.02-0.96,0.34
		c-2.2,2.67-4.43,5.32-6.63,7.99c-0.3,0.36-0.59,0.5-1.06,0.48c-2.52-0.11-5.04-0.18-7.56-0.27c-0.3-0.01-0.52,0.04-0.71,0.31
		c-1.07,1.52-2.16,3.02-3.26,4.53c-0.15,0.21-0.2,0.4-0.15,0.66c0.28,1.59,0.57,3.19,0.8,4.79c0.06,0.43,0.27,0.55,0.64,0.62
		c1.53,0.31,3.05,0.65,4.57,0.97c1.7,0.36,3.4,0.74,5.1,1.08c0.3,0.06,0.47,0.17,0.49,0.48c0.01,0.1,0.04,0.19,0.06,0.29
		c0.62,2.89,1.2,5.79,1.87,8.67c0.28,1.21,0.37,2.37,0.07,3.59c-0.38,1.51-0.63,3.05-0.93,4.58c-0.05,0.26-0.11,0.37-0.42,0.34
		c-2.29-0.24-4.58-0.46-6.86-0.7c-0.49-0.05-0.99-0.07-1.47-0.25c-9.26-3.46-18.53-6.9-27.78-10.39c-0.83-0.31-1.47-0.23-2.19,0.16
		c-1.85,1.01-3.33,2.42-4.49,4.16c-1.94,2.89-3.08,6.09-3.35,9.57c-0.12,1.55,0.1,3.07,0.8,4.49c0.19,0.39,0.47,0.65,0.88,0.83
		c8.3,3.71,16.59,7.44,24.88,11.16c0.45,0.2,0.9,0.41,1.38,0.63c-0.2,0.1-0.35,0.03-0.49,0c-1.91-0.34-3.82-0.68-5.73-1.01
		c-4.19-0.74-8.39-1.46-12.57-2.22c-0.65-0.12-1.18,0.01-1.69,0.37c-0.74,0.51-1.29,1.2-1.74,1.95c-0.67,1.1-1.13,2.29-1.49,3.52
		c-0.6,2.06-1.04,4.15-0.93,6.32c0.03,0.64,0.16,1.27,0.4,1.87c0.23,0.56,0.59,0.93,1.2,1.15c6.77,2.43,13.53,4.88,20.29,7.33
		c0.15,0.06,0.36,0.04,0.44,0.24L35.65,128.32z" />
		<path class="anc_st0" d="M35.64,128.33c-0.07-0.21-0.28-0.19-0.44-0.24c-6.76-2.45-13.52-4.9-20.29-7.33c-0.61-0.22-0.98-0.59-1.2-1.15
		c-0.24-0.6-0.36-1.22-0.4-1.87c-0.11-2.17,0.33-4.25,0.93-6.32c0.36-1.23,0.82-2.42,1.49-3.52c0.46-0.76,1-1.45,1.74-1.95
		c0.52-0.35,1.04-0.48,1.69-0.37c4.19,0.76,8.38,1.49,12.57,2.22c1.91,0.34,3.82,0.67,5.73,1.01c0.15,0.03,0.29,0.09,0.49,0
		c-0.48-0.22-0.93-0.43-1.38-0.63c-8.29-3.73-16.58-7.45-24.88-11.16c-0.41-0.19-0.69-0.44-0.88-0.83c-0.7-1.42-0.92-2.94-0.8-4.49
		c0.27-3.48,1.41-6.67,3.35-9.57c1.17-1.73,2.64-3.15,4.49-4.16c0.72-0.39,1.36-0.48,2.19-0.16c9.25,3.49,18.52,6.92,27.78,10.39
		c0.48,0.18,0.98,0.2,1.47,0.25c2.29,0.25,4.58,0.46,6.86,0.7c0.31,0.03,0.37-0.08,0.42-0.34c0.3-1.53,0.55-3.07,0.93-4.58
		c0.3-1.22,0.21-2.38-0.07-3.59c-0.67-2.88-1.25-5.78-1.87-8.67c-0.02-0.1-0.06-0.19-0.06-0.29c-0.02-0.31-0.19-0.42-0.49-0.48
		c-1.7-0.35-3.4-0.72-5.1-1.08c-1.52-0.33-3.05-0.66-4.57-0.97c-0.37-0.08-0.57-0.2-0.64-0.62c-0.24-1.6-0.52-3.19-0.8-4.79
		c-0.05-0.26,0-0.46,0.15-0.66c1.09-1.5,2.18-3.01,3.26-4.53c0.19-0.27,0.41-0.32,0.71-0.31c2.52,0.09,5.04,0.16,7.56,0.27
		c0.47,0.02,0.76-0.12,1.06-0.48c2.2-2.67,4.42-5.32,6.63-7.99c0.27-0.33,0.5-0.45,0.96-0.34c1.81,0.41,3.64,0.76,5.46,1.13
		c0.11,0.02,0.23,0.04,0.39,0.06c0.17-0.92,0.34-1.82,0.51-2.72c0.32-1.73,0.64-3.46,0.97-5.18c0.07-0.39,0.08-0.4,0.52-0.34
		c1.74,0.26,3.48,0.52,5.22,0.78c1.72,0.26,3.44,0.53,5.16,0.79c0.1,0.02,0.2,0.03,0.3,0.04c0.21,0.03,0.3,0.12,0.26,0.36
		c-0.13,0.93-0.22,1.87-0.34,2.8c-0.18,1.45-0.36,2.9-0.54,4.34c-0.06,0.46-0.05,0.47,0.44,0.57c1.58,0.33,3.16,0.68,4.75,0.98
		c0.41,0.08,0.61,0.27,0.8,0.61c1.8,3.34,3.63,6.67,5.42,10.02c0.22,0.4,0.45,0.58,0.92,0.57c0.76-0.01,1.52,0.05,2.28,0.11
		c0.39,0.04,0.68-0.1,0.97-0.34c6.22-5.19,12.62-10.16,19.17-14.92c6.61-4.79,13.35-9.38,20.46-13.4
		c10.79-6.09,22.08-11.04,33.91-14.72c0.38-0.12,0.78-0.19,1.15-0.35c0.35-0.14,0.49-0.02,0.65,0.27c0.85,1.56,1.67,3.14,2.44,4.74
		c3.69,7.65,6.64,15.58,8.7,23.83c0.87,3.49,1.51,7.03,2,10.6c0.66,4.78,1.08,9.57,1.34,14.39c0.19,3.62,0.3,7.23,0.31,10.86
		c0,0.3-0.05,0.58-0.18,0.87c-4.48,10.22-8.27,20.7-11.44,31.4c-3.03,10.25-5.79,20.57-8.36,30.94c-0.02,0.08-0.03,0.15-0.05,0.27
		c0.32,0.02,0.59-0.11,0.87-0.18c3.3-0.77,6.54-0.47,9.75,0.55c2.06,0.66,3.96,1.59,5.59,3.04c1.45,1.3,2.59,2.83,3.45,4.57
		c0.06,0.13,0.11,0.26,0.16,0.39c0.01,0.03,0,0.08,0,0.17c-0.42,0.04-0.85,0.06-1.28,0.11c-1.89,0.24-3.64,0.9-5.3,1.81
		c-2.01,1.09-3.86,2.43-5.66,3.83c-6.54,5.11-12.97,10.36-19.43,15.57c-1.32,1.07-2.65,2.13-3.96,3.22
		c-0.29,0.24-0.54,0.31-0.92,0.21c-9.1-2.4-18.2-4.78-27.3-7.16c-13.26-3.46-26.51-6.92-39.77-10.38
		c-12.19-3.18-24.39-6.37-36.58-9.55c-6.94-1.81-13.88-3.62-20.81-5.43c-0.04-0.01-0.08-0.03-0.11-0.04
		c-0.53-0.12-0.57-0.1-0.25-0.64c1.59-2.68,3.18-5.37,4.77-8.05c0.1-0.17,0.23-0.33,0.28-0.57c-0.81-0.2-1.61-0.41-2.42-0.6
		c-3.53-0.85-7.06-1.72-10.6-2.55c-0.49-0.12-0.76-0.36-0.93-0.81c-0.23-0.63-0.34-1.28-0.38-1.93c-0.09-1.73,0.06-3.44,0.57-5.1
		c0.3-0.99,0.77-1.88,1.53-2.61c0.32-0.31,0.64-0.44,1.12-0.38c3.55,0.46,7.1,0.89,10.65,1.32c1.35,0.17,2.7,0.33,4.05,0.49
		c0.25,0.03,0.51,0.11,0.77,0.02c0.01,0.12,0.1,0.08,0.17,0.09c0.01,0,0.03-0.04,0.04-0.06c-0.06-0.01-0.11-0.03-0.17-0.04
		C35.68,128.31,35.66,128.32,35.64,128.33z M174.16,152.07c-0.09-0.1-0.22-0.08-0.34-0.08c-0.72,0.05-1.44,0.08-2.15,0.15
		c-1.64,0.17-3.19,0.7-4.73,1.26c-0.4,0.14-0.6,0.35-0.71,0.77c-0.73,2.8-1.51,5.59-2.24,8.38c-0.23,0.87-0.53,1.71-0.64,2.61
		c-0.45,1.2-0.69,2.46-1,3.7c0.2-0.1,0.35-0.23,0.5-0.36c3.05-2.65,6.14-5.25,9.41-7.63c2.04-1.49,4.15-2.85,6.5-3.82
		c1.56-0.64,3.17-1.11,4.88-1.08c0.05,0,0.1-0.04,0.15-0.07C182.19,153.72,177.6,152.07,174.16,152.07z M64.45,155.93
		c0.56,0.12,1.09,0.31,1.66,0.38c0.26,0.17,0.56,0.18,0.85,0.26c13.78,3.58,27.57,7.17,41.35,10.75
		c12.16,3.16,24.32,6.31,36.48,9.46c1.02,0.26,2.03,0.59,3.08,0.76c0.49,0.18,0.99,0.34,1.55,0.38c-0.02-0.13-0.02-0.21-0.04-0.28
		c-0.86-3.76-1.98-7.45-3.44-11.02c-1.24-3.02-2.69-5.93-4.7-8.53c-4.11-5.33-9.3-9.37-15.24-12.46c-0.1-0.05-0.2-0.14-0.39-0.08
		c0.07,0.64,0.16,1.28,0.22,1.93c0.19,2.1,0.2,4.2-0.31,6.26c-0.95,3.85-3.28,6.36-7.18,7.32c-0.65,0.16-1.33,0.2-2.08,0.31
		c0.22,0.19,0.37,0.34,0.54,0.47c0.33,0.25,0.63,0.55,1.03,0.72c0.06,0.05,0.11,0.12,0.17,0.16c2.1,1.43,4.42,2.16,6.95,2.22
		c1.44,0.04,2.86-0.08,4.29-0.23c-0.12,0.17-0.31,0.25-0.48,0.35c-1.48,0.87-3.1,1.27-4.81,1.31c-2.29,0.06-4.48-0.47-6.62-1.24
		c-3.92-1.42-7.51-3.47-10.9-5.86c-2.97-2.1-5.93-4.22-8.84-6.41c-3.7-2.78-7.69-5.03-12.07-6.55c-2.34-0.81-4.73-1.32-7.24-1.04
		c-0.74,0.08-1.48,0.18-2.26,0.44c0.84,0.57,1.34,1.31,1.7,2.14c0.61,1.42,0.47,2.81-0.29,4.15c-0.99,1.74-2.51,2.82-4.42,3.36
		c-2.84,0.8-5.73,0.74-8.63,0.39c-0.35-0.08-0.71-0.2-1.2-0.1c0.29,0.1,0.47,0.17,0.65,0.22C64.07,155.87,64.25,155.98,64.45,155.93
		z M152.27,169.39c-0.01,1.17,0.51,2.2,0.84,3.39c0.24-0.42,0.42-0.77,0.63-1.1c0.18-0.28,0.26-0.57,0.29-0.9
		c0.19-1.87,0.4-3.74,0.61-5.6c0.27-2.44,0.54-4.89,0.81-7.33c0.21-1.95,0.42-3.89,0.64-5.84c0.23-2.07,0.46-4.13,0.68-6.2
		c0.22-1.97,0.43-3.93,0.64-5.9c0.26-2.4,0.53-4.81,0.79-7.21c0.22-1.99,0.43-3.97,0.65-5.96c0.26-2.38,0.53-4.77,0.79-7.15
		c0.22-1.99,0.43-3.97,0.65-5.96c0.26-2.38,0.53-4.77,0.79-7.15c0.26-2.36,0.51-4.73,0.77-7.09c0.26-2.38,0.53-4.77,0.79-7.15
		c0.26-2.36,0.51-4.73,0.77-7.09c0.26-2.38,0.53-4.77,0.79-7.15c0.26-2.36,0.51-4.73,0.77-7.09c0.35-3.2,0.7-6.4,1.05-9.6
		c0.08-0.73,0.17-1.45,0.25-2.2c0.26,0.06,0.38,0.23,0.51,0.36c0.54,0.51,1.02,1.08,1.48,1.65c3.05,3.73,5.36,7.89,7.11,12.38
		c1.43,3.69,2.63,7.46,3.72,11.26c0.05,0.19,0.06,0.41,0.24,0.58c0.07-0.19,0.03-0.35,0.03-0.51c-0.16-3.24-0.46-6.46-0.84-9.68
		c-0.49-4.17-1.14-8.31-2.06-12.41c-1.66-7.36-4.42-14.3-8.03-20.91c-0.22-0.41-0.23-0.4-0.69-0.25c-0.06,0.02-0.11,0.04-0.17,0.06
		c-5.93,2.07-11.69,4.55-17.36,7.23c-15.52,7.32-30.17,16.12-43.99,26.29c-7.32,5.38-14.39,11.08-21.02,17.3
		c-7.18,6.72-13.87,13.9-20.22,21.41c-9.18,10.86-17.61,22.27-25.34,34.2c-0.11,0.16-0.26,0.31-0.26,0.55
		c1.2,0.41,2.43,0.78,3.66,1.13c0.58,0.16,0.58,0.17,0.92-0.31c5.31-7.24,10.89-14.28,16.71-21.12
		c6.47-7.61,13.24-14.94,20.42-21.88c6.99-6.75,14.35-13.05,22.28-18.68c10.03-7.12,20.63-13.28,31.68-18.68
		c6.18-3.02,12.45-5.81,18.9-8.21c0.2-0.07,0.39-0.21,0.56-0.17c0,1.03,0.02,2.03,0,3.02c-0.09,5.04-0.19,10.08-0.29,15.12
		c-0.02,0.94-0.06,1.88-0.09,2.82c-3.7,1.01-7.35,2.17-10.96,3.47c-5.8,2.08-11.44,4.54-16.96,7.28c-2.45,1.22-4.87,2.5-7.26,3.84
		c-2.81,1.57-5.59,3.2-8.32,4.9c-4.7,2.93-9.29,6.03-13.75,9.31c-4.88,3.59-9.62,7.35-14.23,11.28c-2.22,1.9-4.41,3.82-6.57,5.79
		c-1.88,1.71-3.74,3.44-5.56,5.21c-2.45,2.38-4.88,4.79-7.24,7.27c-1.76,1.86-3.51,3.72-5.23,5.62c-1.53,1.69-3.02,3.41-4.49,5.15
		c-0.35,0.42-0.77,0.8-1.02,1.31c0.21,0.09,0.41,0.13,0.6,0.17c1.33,0.27,2.67,0.5,4.01,0.68c1.21,0.16,2.42,0.31,3.63,0.37
		c1.46,0.07,2.92,0.11,4.37-0.09c1.44-0.2,2.81-0.59,4.02-1.44c0.88-0.62,1.5-1.42,1.73-2.5c0.28-1.32-0.2-2.39-1.41-2.99
		c-0.97-0.49-2.01-0.64-3.08-0.64c-0.53,0-1.06,0-1.72,0c0.78-0.49,1.5-0.78,2.22-1.05c2.55-0.96,5.19-1.6,7.87-2.04
		c1.22-0.2,2.45-0.37,3.68-0.48c1.52-0.13,3.03,0.05,4.52,0.41c2.79,0.67,5.42,1.8,8.02,2.98c1.8,0.82,3.55,1.75,5.31,2.66
		c3.07,1.59,6.09,3.28,9.21,4.78c1.84,0.88,3.7,1.72,5.66,2.3c1.68,0.5,3.37,0.8,5.13,0.54c2.07-0.31,3.65-1.54,4.12-3.57
		c0.19-0.84,0.25-1.68,0.14-2.55c-0.39-3.01-1.78-5.38-4.34-7.06c-2.19-1.44-4.6-2.39-7.09-3.16c-0.6-0.18-1.21-0.34-1.81-0.52
		c0.74-0.04,1.45-0.19,2.17-0.19c2.22-0.01,4.43,0.12,6.64,0.32c1.43,0.13,2.86,0.31,4.27,0.55c2.05,0.35,4.07,0.81,6.06,1.41
		c2.9,0.87,5.68,2.03,8.31,3.53c3.46,1.97,6.28,4.65,8.66,7.83c2.72,3.64,4.82,7.63,6.64,11.78c0.71,1.61,1.34,3.25,1.94,4.9
		C152.05,169.12,152.02,169.35,152.27,169.39z M54.98,95.04c0.22,0.09,0.43,0.18,0.65,0.27c1.23,0.48,2.45,0.97,3.68,1.45
		c1.8,0.71,3.6,1.43,5.4,2.14c0.49,0.19,0.49,0.18,0.81-0.19c0.43-0.5,0.86-0.99,1.31-1.48c1.2-1.34,2.41-2.67,3.61-4.01
		c2.03-2.28,4.1-4.54,6.19-6.76c0.31-0.33,0.49-0.66,0.52-1.1c0.01-0.2,0.02-0.4,0.03-0.6c0.05-0.96,0.07-1.92,0.17-2.87
		c0.04-0.38-0.04-0.58-0.34-0.79c-3.24-2.27-6.46-4.56-9.69-6.84c-0.15-0.11-0.29-0.29-0.54-0.26c-0.21,0.6-0.27,1.24-0.39,1.86
		c-0.52,2.72-1.02,5.45-1.52,8.17c-0.34,1.84-0.68,3.68-1.03,5.53c-0.32,1.72-0.65,3.45-0.96,5.17c-0.04,0.24-0.16,0.34-0.41,0.34
		c-0.62-0.01-1.24,0.02-1.86-0.02C58.74,94.89,56.86,95,54.98,95.04z M15.51,92.69c0.58-0.86,1.1-1.73,1.69-2.55
		c0.53-0.74,1.13-1.4,1.85-1.95c0.35-0.27,0.64-0.32,1.08-0.15c11.68,4.63,23.36,9.24,35.04,13.86c1.73,0.68,3.46,1.35,5.18,2.05
		c0.34,0.14,0.54,0.09,0.76-0.19c0.27-0.35,0.57-0.67,0.86-1c0.4-0.46,0.8-0.93,1.2-1.39c-0.16-0.21-0.37-0.23-0.55-0.3
		C52.27,97.03,41.93,93,31.58,88.97c-4-1.56-8-3.12-12-4.68c-0.47-0.18-0.47-0.18-0.79,0.2c-0.81,0.97-1.55,1.99-2.13,3.11
		C15.83,89.2,15.54,90.91,15.51,92.69z M63.51,71.48c0.1-0.27,0.17-0.45,0.23-0.63c0.59-1.76,1.18-3.52,1.77-5.28
		c0.18-0.54,0.21-0.55,0.77-0.48c0.57,0.07,1.15,0.15,1.72,0.22c1.11,0.14,2.22,0.26,3.33,0.4c1.17,0.14,2.33,0.3,3.5,0.44
		c1.11,0.14,2.22,0.26,3.33,0.4c1.44,0.18,2.89,0.37,4.33,0.56c0.28,0.04,0.45-0.03,0.52-0.34c0.23-1.01,0.48-2.02,0.73-3.03
		c0.06-0.23-0.01-0.33-0.24-0.36c-0.85-0.11-1.7-0.24-2.55-0.35c-1.64-0.21-3.28-0.41-4.92-0.63c-1.94-0.26-3.87-0.54-5.81-0.8
		c-2.07-0.28-4.15-0.55-6.23-0.83c-0.44-0.06-0.54,0-0.59,0.44c-0.1,0.91-0.17,1.83-0.26,2.74c-0.09,0.89-0.17,1.79-0.27,2.68
		c-0.13,1.21-0.26,2.42-0.4,3.63c-0.01,0.1-0.01,0.21,0.07,0.28C62.84,70.84,63.15,71.13,63.51,71.48z M18.09,115.91
		c0.12-0.15,0.24-0.31,0.36-0.46c0.37-0.45,0.76-0.87,1.25-1.2c0.49-0.33,0.99-0.42,1.59-0.26c5.49,1.48,11,2.94,16.49,4.41
		c2.86,0.76,5.71,1.52,8.56,2.3c0.37,0.1,0.59,0.04,0.81-0.26c0.39-0.53,0.82-1.03,1.23-1.55c0.08-0.11,0.21-0.19,0.2-0.38
		c-0.18-0.05-0.37-0.11-0.55-0.16c-5.21-1.39-10.42-2.77-15.63-4.15c-4.03-1.07-8.07-2.13-12.1-3.22c-0.33-0.09-0.51-0.03-0.69,0.25
		c-0.4,0.6-0.73,1.24-0.99,1.91C18.29,114.03,18.03,114.93,18.09,115.91z M115.07,90.95c0.36-0.95,0.7-1.86,1.09-2.9
		c0.43,1.43,0.81,2.72,1.21,4.04c0.54-0.32,1.01-0.59,1.47-0.87c0.5-0.31,0.47-0.15,0.32-0.8c-0.47-2.08-0.95-4.17-1.44-6.24
		c-0.14-0.57-0.22-1.17-0.45-1.78c-0.6,0.35-1.16,0.7-1.74,1c-0.3,0.16-0.44,0.37-0.51,0.68c-0.16,0.72-0.34,1.44-0.52,2.15
		c-0.1,0.4-0.21,0.8-0.31,1.2c-0.26-0.03-0.39-0.19-0.55-0.31c-0.52-0.38-1.03-0.75-1.53-1.16c-0.24-0.2-0.43-0.2-0.68-0.01
		c-0.48,0.35-0.98,0.7-1.49,1.01c-0.31,0.19-0.37,0.37-0.26,0.73c0.57,1.97,1.11,3.96,1.66,5.94c0.14,0.51,0.24,1.04,0.47,1.56
		c0.58-0.34,1.13-0.67,1.69-0.98c0.26-0.14,0.32-0.29,0.25-0.58c-0.26-1.09-0.5-2.18-0.75-3.27c-0.04-0.16-0.11-0.33,0-0.54
		C113.69,90.21,114.36,90.57,115.07,90.95z M133.5,84.05c0.93-0.44,1.76-0.87,2.62-1.25c0.95-0.41,1.67-1.09,2.31-1.86
		c0.66-0.8,0.99-1.73,1.05-2.75c0.06-1.16-0.01-2.32-0.14-3.47c-0.06-0.5-0.21-0.98-0.48-1.41c-0.65-1.04-1.95-1.4-3.03-0.84
		c-1.01,0.52-2.02,1.05-3.04,1.56c-0.28,0.14-0.36,0.28-0.32,0.6c0.16,1.25,0.28,2.5,0.41,3.75
		C133.08,80.24,133.29,82.11,133.5,84.05z M148.08,67.2c-0.69,0.26-1.34,0.51-1.99,0.74c-0.3,0.1-0.43,0.27-0.5,0.58
		c-0.74,3.41-1.5,6.82-2.24,10.23c-0.09,0.42-0.23,0.84-0.24,1.33c0.66-0.22,1.28-0.43,1.9-0.64c0.17-0.06,0.23-0.18,0.27-0.35
		c0.09-0.37,0.19-0.73,0.29-1.1c0.04-0.13,0.05-0.27,0.21-0.33c0.68-0.25,1.35-0.55,2.07-0.75c0.13,0.36,0.27,0.68,0.36,1
		c0.08,0.29,0.18,0.4,0.5,0.27c0.53-0.22,1.09-0.4,1.64-0.57c0.29-0.09,0.42-0.21,0.3-0.51c-0.03-0.07-0.04-0.15-0.06-0.23
		c-0.58-2.28-1.17-4.56-1.75-6.84C148.58,69.09,148.34,68.17,148.08,67.2z M103.68,98.15c0.45-0.19,0.77-0.1,1.08,0.14
		c0.23,0.19,0.47,0.37,0.72,0.54c0.29,0.2,0.56,0.24,0.87-0.01c0.32-0.26,0.69-0.47,1.03-0.72c0.25-0.18,0.54-0.31,0.75-0.59
		c-0.6-0.45-1.17-0.88-1.74-1.32c-0.4-0.31-0.4-0.31-0.2-0.75c0.32-0.72,0.51-1.47,0.42-2.27c-0.17-1.49-1.56-2.31-2.94-1.74
		c-0.47,0.19-0.89,0.46-1.29,0.76c-0.8,0.6-1.59,1.21-2.38,1.81c-0.39,0.3-0.39,0.31-0.22,0.78c0.8,2.13,1.6,4.26,2.41,6.38
		c0.05,0.14,0.04,0.33,0.28,0.4c0.57-0.43,1.15-0.88,1.75-1.31c0.25-0.17,0.28-0.33,0.15-0.6
		C104.12,99.19,103.92,98.69,103.68,98.15z M83.81,60.89c-0.26-0.88-0.51-1.66-0.71-2.45c-0.08-0.32-0.21-0.45-0.55-0.5
		c-2.55-0.37-5.1-0.76-7.64-1.15c-2.13-0.32-4.27-0.63-6.4-0.96c-0.27-0.04-0.49-0.01-0.7,0.21c-0.65,0.69-1.33,1.37-2.05,2.1
		C71.78,59.07,77.76,59.97,83.81,60.89z M129.96,85.55c-1.25-2.78-2.48-5.51-3.72-8.27c-0.63,0.33-1.19,0.67-1.79,0.92
		c-0.5,0.21-0.65,0.54-0.7,1.04c-0.25,2.51-0.53,5.01-0.8,7.51c-0.08,0.76-0.15,1.53-0.24,2.39c0.6-0.3,1.11-0.56,1.64-0.8
		c0.27-0.12,0.43-0.3,0.43-0.58c-0.02-0.91,0.46-1.41,1.27-1.7c0.32-0.11,0.61-0.43,0.91-0.42c0.33,0.01,0.42,0.48,0.62,0.74
		c0.13,0.16,0.23,0.25,0.44,0.14C128.64,86.21,129.26,85.9,129.96,85.55z M99.17,103.8c-1.69-1.69-3.32-3.31-4.94-4.94
		c-0.19-0.2-0.32-0.15-0.49,0c-0.51,0.42-1.01,0.85-1.54,1.24c-0.27,0.2-0.36,0.42-0.34,0.75c0.12,2.6,0.22,5.19,0.34,7.79
		c0.01,0.13-0.06,0.28,0.14,0.4c0.55-0.43,1.1-0.89,1.67-1.32c0.25-0.19,0.37-0.4,0.34-0.71c-0.01-0.12,0.02-0.24,0.01-0.36
		c-0.03-0.31,0.08-0.53,0.35-0.7c0.35-0.23,0.67-0.5,1.01-0.75c0.56-0.42,0.56-0.42,1.14-0.04c0.15,0.1,0.29,0.21,0.48,0.06
		C97.92,104.76,98.53,104.3,99.17,103.8z M37.69,132.68c-0.14-0.14-0.24-0.13-0.34-0.15c-1.52-0.22-3.05-0.43-4.57-0.65
		c-2.99-0.43-5.97-0.87-8.96-1.3c-1-0.14-1-0.13-1.34,0.86c-0.24,0.7-0.4,1.41-0.25,2.17c0.19-0.08,0.23-0.25,0.32-0.37
		c0.3-0.37,0.64-0.54,1.15-0.44c0.68,0.14,1.38,0.2,2.08,0.3c2.41,0.34,4.83,0.69,7.24,1.03c0.93,0.13,1.86,0.27,2.79,0.39
		c0.23,0.03,0.46,0.1,0.64-0.16C36.86,133.81,37.28,133.25,37.69,132.68z M78.08,46.85c0.08-0.25-0.08-0.32-0.28-0.35
		c-0.75-0.11-1.5-0.21-2.25-0.33c-0.22-0.03-0.28,0.04-0.31,0.24c-0.04,0.3-0.11,0.59-0.16,0.88c-0.37,2.06-0.74,4.12-1.12,6.18
		c-0.05,0.29-0.01,0.42,0.32,0.47c0.87,0.13,1.73,0.3,2.59,0.45c0.44,0.07,0.45,0.06,0.5-0.39c0.08-0.75,0.14-1.51,0.22-2.26
		C77.76,50.1,77.92,48.47,78.08,46.85z M59.61,64.38c-0.16-0.17-0.29-0.28-0.38-0.4c-0.3-0.4-0.69-0.56-1.18-0.57
		c-0.44-0.01-0.88-0.05-1.31-0.08c-1.93-0.14-3.86-0.28-5.79-0.42c-0.18-0.01-0.37-0.07-0.53,0.04c-0.38,0.28-0.8,0.49-1.13,0.87
		c0.18,0.2,0.36,0.37,0.49,0.56c0.33,0.49,0.79,0.65,1.37,0.68c2.21,0.12,4.42,0.29,6.63,0.45c0.21,0.01,0.39,0,0.56-0.14
		C58.74,65.04,59.15,64.73,59.61,64.38z M87.75,68.6c0.18,0.17,0.32,0.28,0.44,0.41c0.37,0.39,0.81,0.62,1.35,0.7
		c0.61,0.09,1.22,0.23,1.81,0.38c0.4,0.1,0.72,0.04,1.03-0.24c0.42-0.37,0.89-0.68,1.33-1.02c0.1-0.08,0.26-0.11,0.24-0.28
		c-0.02-0.03-0.03-0.05-0.05-0.05c-1.5-0.24-2.99-0.48-4.49-0.72c-0.13-0.02-0.24-0.01-0.35,0.05
		C88.65,68.06,88.19,68.26,87.75,68.6z" />
		<path class="anc_st2" d="M152.27,169.39c-0.25-0.03-0.22-0.27-0.27-0.42c-0.61-1.65-1.24-3.29-1.94-4.9
		c-1.82-4.15-3.92-8.14-6.64-11.78c-2.37-3.17-5.19-5.86-8.66-7.83c-2.63-1.5-5.41-2.66-8.31-3.53c-1.99-0.6-4.01-1.06-6.06-1.41
		c-1.41-0.24-2.84-0.42-4.27-0.55c-2.21-0.2-4.42-0.32-6.64-0.32c-0.72,0-1.43,0.15-2.17,0.19c0.6,0.17,1.21,0.33,1.81,0.52
		c2.49,0.77,4.9,1.72,7.09,3.16c2.55,1.68,3.94,4.05,4.34,7.06c0.11,0.87,0.05,1.71-0.14,2.55c-0.47,2.03-2.05,3.26-4.12,3.57
		c-1.76,0.26-3.46-0.04-5.13-0.54c-1.96-0.59-3.82-1.42-5.66-2.3c-3.12-1.5-6.14-3.18-9.21-4.78c-1.76-0.91-3.51-1.84-5.31-2.66
		c-2.6-1.19-5.22-2.31-8.02-2.98c-1.49-0.36-2.99-0.54-4.52-0.41c-1.23,0.11-2.46,0.28-3.68,0.48c-2.68,0.44-5.32,1.09-7.87,2.04
		c-0.72,0.27-1.44,0.56-2.22,1.05c0.67,0,1.2,0,1.72,0c1.07,0.01,2.11,0.16,3.08,0.64c1.2,0.6,1.69,1.67,1.41,2.99
		c-0.23,1.08-0.84,1.88-1.73,2.5c-1.21,0.85-2.58,1.24-4.02,1.44c-1.45,0.2-2.92,0.16-4.37,0.09c-1.21-0.06-2.43-0.21-3.63-0.37
		c-1.34-0.18-2.68-0.41-4.01-0.68c-0.2-0.04-0.39-0.08-0.6-0.17c0.25-0.51,0.66-0.89,1.02-1.31c1.47-1.74,2.97-3.46,4.49-5.15
		c1.72-1.9,3.47-3.76,5.23-5.62c2.36-2.48,4.78-4.89,7.24-7.27c1.82-1.77,3.68-3.5,5.56-5.21c2.16-1.96,4.35-3.89,6.57-5.79
		c4.61-3.94,9.35-7.7,14.23-11.28c4.46-3.28,9.05-6.38,13.75-9.31c2.73-1.7,5.51-3.33,8.32-4.9c2.39-1.34,4.81-2.62,7.26-3.84
		c5.52-2.74,11.16-5.19,16.96-7.28c3.61-1.3,7.26-2.46,10.96-3.47c0.02,1.34-0.02,2.68-0.07,4.02c-0.07,2.04-0.04,4.08-0.13,6.12
		c-0.08,1.86-0.04,3.72-0.11,5.58c-0.08,2.02-0.04,4.04-0.13,6.06c-0.08,1.9-0.04,3.8-0.12,5.7c-0.08,2.04-0.05,4.08-0.13,6.12
		c-0.07,1.84-0.03,3.68-0.11,5.52c-0.08,2-0.04,4-0.12,6c-0.08,1.9-0.04,3.8-0.12,5.7c-0.08,2.02-0.04,4.04-0.13,6.06
		c-0.08,1.9-0.04,3.8-0.12,5.7c-0.08,2.02-0.05,4.04-0.13,6.06c-0.07,1.86-0.06,3.72-0.11,5.58c-0.09,3.16-0.12,6.32-0.18,9.47
		c-0.02,1.26-0.06,2.52-0.09,3.78C152.33,169.16,152.33,169.28,152.27,169.39z M139.83,98.07L139.83,98.07
		c0.07,0.22-0.03,0.39-0.1,0.58c-0.92,2.63-1.33,5.34-1.34,8.12c0,0.88,0.02,1.76,0.02,2.64c0,0.46,0,0.47-0.47,0.45
		c-0.84-0.03-1.68,0.03-2.51,0.17c-0.43,0.07-0.45,0.05-0.53-0.41c-0.35-1.97-0.7-3.93-1.05-5.9c-0.19-1.08-0.38-2.16-0.57-3.25
		c-0.08-0.43-0.07-0.43,0.38-0.51c0.41-0.07,0.83-0.14,1.23-0.25c0.39-0.1,0.77-0.21,1.13-0.41c-1.2-0.69-2.01-1.72-2.91-2.64
		c-0.92-0.94-1.74-1.97-2.44-3.13c-0.13,0.22-0.16,0.41-0.21,0.6c-0.46,1.82-0.87,3.65-1.43,5.45c-0.22,0.7-0.49,1.38-0.88,2.07
		c0.92-0.06,1.63-0.55,2.43-0.82c0.05,0.14,0.1,0.23,0.11,0.33c0.56,2.98,1.11,5.97,1.67,8.95c0.08,0.43,0.07,0.44-0.36,0.61
		c-0.61,0.24-1.23,0.48-1.85,0.71c-0.8,0.3-0.7,0.38-0.95-0.46c-0.84-2.91-2.1-5.61-4.03-7.97c-0.09-0.12-0.24-0.22-0.19-0.45
		c0.37-0.13,0.79-0.01,1.27-0.13c-2-0.95-3.97-1.47-6.18-1.21c0.33,0.28,0.58,0.51,0.84,0.73c2.8,2.46,4.98,5.34,6.22,8.89
		c0.37,1.06,0.72,2.12,1.02,3.2c0.12,0.42,0.14,0.42,0.53,0.31c0.13-0.04,0.26-0.09,0.4-0.14c1.1-0.37,2.19-0.75,3.32-1.03
		c0.49-0.12,0.5-0.12,0.59,0.35c0.16,0.88,0.32,1.77,0.49,2.65c0.24,1.32,0.48,2.63,0.73,3.95c0.08,0.41,0.08,0.42,0.51,0.38
		c0.44-0.04,0.87-0.1,1.31-0.16c0.79-0.11,0.78-0.11,0.64-0.88c-0.39-2.14-0.78-4.28-1.16-6.43c-0.09-0.53-0.09-0.53,0.41-0.59
		c1.53-0.18,3.06-0.33,4.6-0.36c0.42-0.01,0.44-0.02,0.39-0.46c-0.11-0.9-0.13-1.79-0.14-2.69c-0.04-3.06,0.37-6.06,1.41-8.95
		c0.83-2.32,1.9-4.53,3.09-6.69c0.09-0.16,0.26-0.3,0.16-0.58c-2.69,1.58-5.16,3.34-7.02,5.87
		C138.93,98.54,139.32,98.16,139.83,98.07z" />
		<path class="anc_st1" d="M152.27,169.39c0.07-0.11,0.06-0.23,0.06-0.35c0.03-1.26,0.07-2.52,0.09-3.78c0.06-3.16,0.09-6.32,0.18-9.47
		c0.06-1.86,0.04-3.72,0.11-5.58c0.08-2.02,0.05-4.04,0.13-6.06c0.08-1.9,0.04-3.8,0.12-5.7c0.08-2.02,0.04-4.04,0.13-6.06
		c0.08-1.9,0.04-3.8,0.12-5.7c0.08-2,0.04-4,0.12-6c0.08-1.84,0.04-3.68,0.11-5.52c0.08-2.04,0.05-4.08,0.13-6.12
		c0.08-1.9,0.04-3.8,0.12-5.7c0.08-2.02,0.04-4.04,0.13-6.06c0.08-1.86,0.04-3.72,0.11-5.58c0.09-2.04,0.05-4.08,0.13-6.12
		c0.05-1.34,0.09-2.68,0.07-4.02c0.03-0.94,0.08-1.88,0.09-2.82c0.1-5.04,0.2-10.08,0.29-15.12c0.02-1,0-2,0-3.02
		c-0.18-0.04-0.36,0.09-0.56,0.17c-6.45,2.4-12.72,5.19-18.9,8.21c-11.04,5.4-21.64,11.56-31.68,18.68
		c-7.93,5.63-15.29,11.92-22.28,18.68c-7.18,6.94-13.95,14.27-20.42,21.88c-5.82,6.84-11.4,13.88-16.71,21.12
		c-0.35,0.47-0.35,0.47-0.92,0.31c-1.23-0.35-2.45-0.71-3.66-1.13c0-0.24,0.16-0.38,0.26-0.55c7.73-11.93,16.16-23.34,25.34-34.2
		c6.35-7.51,13.04-14.68,20.22-21.41c6.63-6.22,13.7-11.92,21.02-17.3c13.83-10.17,28.47-18.97,43.99-26.29
		c5.68-2.68,11.44-5.15,17.36-7.23c0.06-0.02,0.11-0.04,0.17-0.06c0.46-0.15,0.47-0.16,0.69,0.25c3.6,6.61,6.37,13.55,8.03,20.91
		c0.92,4.1,1.58,8.24,2.06,12.41c0.38,3.22,0.68,6.44,0.84,9.68c0.01,0.16,0.05,0.32-0.03,0.51c-0.17-0.17-0.18-0.39-0.24-0.58
		c-1.09-3.8-2.28-7.57-3.72-11.26c-1.74-4.48-4.05-8.64-7.11-12.38c-0.47-0.57-0.95-1.14-1.48-1.65c-0.14-0.13-0.26-0.3-0.51-0.36
		c-0.09,0.75-0.17,1.47-0.25,2.2c-0.35,3.2-0.7,6.4-1.05,9.6c-0.26,2.36-0.51,4.73-0.77,7.09c-0.26,2.38-0.53,4.77-0.79,7.15
		c-0.26,2.36-0.51,4.73-0.77,7.09c-0.26,2.38-0.53,4.77-0.79,7.15c-0.26,2.36-0.51,4.73-0.77,7.09c-0.26,2.38-0.53,4.77-0.79,7.15
		c-0.22,1.99-0.43,3.97-0.65,5.96c-0.26,2.38-0.53,4.77-0.79,7.15c-0.22,1.99-0.43,3.97-0.65,5.96c-0.26,2.4-0.53,4.81-0.79,7.21
		c-0.22,1.97-0.43,3.93-0.64,5.9c-0.23,2.07-0.46,4.13-0.68,6.2c-0.21,1.95-0.42,3.89-0.64,5.84c-0.27,2.44-0.54,4.89-0.81,7.33
		c-0.21,1.87-0.42,3.73-0.61,5.6c-0.03,0.33-0.12,0.62-0.29,0.9c-0.21,0.33-0.39,0.68-0.63,1.1
		C152.77,171.58,152.25,170.55,152.27,169.39z" />
		<path class="anc_st3" d="M147.88,177.53c-1.05-0.17-2.06-0.5-3.08-0.76c-12.16-3.15-24.32-6.3-36.48-9.46
		c-13.78-3.58-27.57-7.16-41.35-10.75c-0.29-0.07-0.59-0.09-0.85-0.26c0.22,0,0.44-0.04,0.66,0c0.87,0.16,1.75,0.15,2.63,0.18
		c2.28,0.1,4.55,0.05,6.81-0.33c1.54-0.26,3.04-0.65,4.42-1.42c0.67-0.38,1.28-0.84,1.73-1.46c0.87-1.18,1.18-2.51,0.96-3.96
		c-0.01-0.09-0.04-0.19,0.08-0.3c0.98,0.47,1.91,1.05,2.8,1.69c0.88,0.63,1.69,1.34,2.47,2.09c0.78,0.76,1.38,1.68,2.15,2.46
		c-0.28-1.07-0.96-1.93-1.59-2.95c0.47,0.14,0.72,0.37,1,0.55c0.29,0.18,0.55,0.4,0.8,0.63c0.24,0.21,0.41,0.52,0.85,0.67
		c-0.23-0.68-0.47-1.21-0.76-1.74c-0.48-0.89-1.14-1.63-1.83-2.36l0.03-0.03c0.21-0.01,0.39,0.09,0.56,0.19
		c0.61,0.35,1.22,0.69,1.8,1.07c1.81,1.17,3.53,2.48,5.22,3.82c1.88,1.49,3.73,3,5.57,4.55c1.21,1.01,2.42,2.02,3.72,2.92
		c3.09,2.16,6.44,3.77,10.07,4.78c2.34,0.65,4.72,1,7.14,1.04c0.98,0.02,1.95-0.1,2.92-0.21c1.82-0.22,3.56-0.71,5.17-1.61
		c1.07-0.6,2.08-1.27,2.81-2.29c0.71-1,0.95-2.1,0.6-3.29c-0.16-0.52-0.48-0.96-0.72-1.44c0.02-0.02,0.04-0.04,0.05-0.05
		c0.17,0.01,0.29,0.1,0.43,0.19c0.54,0.38,0.99,0.86,1.46,1.31c0.24,0.23,0.41,0.54,0.73,0.69c0.02,0.04-0.04,0.15,0.07,0.11
		c0.02-0.01-0.03-0.09-0.08-0.11c0.03-0.21-0.04-0.39-0.11-0.58c-0.64-1.74-1.62-3.29-2.76-4.74c-0.5-0.64-1.04-1.26-1.57-1.88l0,0
		c0.2-0.05,0.34,0.07,0.49,0.16c0.85,0.49,1.66,1.03,2.46,1.6c1.53,1.11,2.93,2.35,4.17,3.77c1.53,1.75,2.71,3.76,3.77,5.82
		c1.6,3.11,2.91,6.35,3.99,9.68C147.49,176.19,147.76,176.84,147.88,177.53z" />
		<path class="anc_st4" d="M147.88,177.53c-0.12-0.69-0.39-1.34-0.61-2c-1.08-3.33-2.39-6.57-3.99-9.68c-1.06-2.06-2.24-4.06-3.77-5.82
		c-1.24-1.42-2.64-2.67-4.17-3.77c-0.79-0.57-1.61-1.11-2.46-1.6c-0.16-0.09-0.3-0.21-0.49-0.16c0-0.02,0-0.04-0.01-0.05
		c-0.01-0.01-0.03-0.01-0.04-0.01c0.02,0.02,0.04,0.04,0.05,0.06c0.52,0.63,1.06,1.24,1.57,1.88c1.14,1.45,2.12,3,2.76,4.74
		c0.07,0.19,0.14,0.37,0.11,0.58l0.01-0.01c-0.32-0.15-0.49-0.45-0.73-0.69c-0.47-0.46-0.92-0.93-1.46-1.31
		c-0.13-0.09-0.26-0.19-0.43-0.19c-0.03-0.04-0.07-0.09-0.11-0.02c-0.01,0.01,0.04,0.05,0.06,0.08c0.24,0.48,0.56,0.92,0.72,1.44
		c0.36,1.2,0.12,2.29-0.6,3.29c-0.73,1.02-1.74,1.7-2.81,2.29c-1.61,0.9-3.35,1.38-5.17,1.61c-0.97,0.12-1.94,0.23-2.92,0.21
		c-2.42-0.04-4.81-0.39-7.14-1.04c-3.63-1.01-6.98-2.63-10.07-4.78c-1.3-0.9-2.51-1.91-3.72-2.92c-1.84-1.54-3.69-3.06-5.57-4.55
		c-1.69-1.34-3.4-2.65-5.22-3.82c-0.59-0.38-1.2-0.72-1.8-1.07c-0.17-0.1-0.35-0.21-0.56-0.19c-0.02-0.05-0.05-0.09-0.1-0.03
		c0.02,0.02,0.05,0.04,0.07,0.06c0.69,0.72,1.35,1.47,1.83,2.36c0.28,0.52,0.53,1.06,0.76,1.74c-0.45-0.15-0.62-0.46-0.85-0.67
		c-0.26-0.23-0.51-0.45-0.8-0.63c-0.28-0.18-0.53-0.4-1-0.55c0.64,1.03,1.32,1.88,1.59,2.95c-0.77-0.78-1.37-1.69-2.15-2.46
		c-0.78-0.76-1.59-1.46-2.47-2.09c-0.89-0.64-1.82-1.22-2.8-1.69c-0.12,0.11-0.09,0.21-0.08,0.3c0.22,1.45-0.09,2.78-0.96,3.96
		c-0.45,0.62-1.06,1.08-1.73,1.46c-1.38,0.78-2.88,1.16-4.42,1.42c-2.26,0.38-4.53,0.42-6.81,0.33c-0.87-0.04-1.76-0.02-2.63-0.18
		c-0.21-0.04-0.44,0-0.66,0c-0.57-0.07-1.11-0.26-1.66-0.38c-0.01-0.07-0.01-0.14-0.02-0.21c2.9,0.35,5.78,0.41,8.63-0.39
		c1.91-0.54,3.42-1.61,4.42-3.36c0.76-1.33,0.9-2.73,0.29-4.15c-0.36-0.83-0.86-1.57-1.7-2.14c0.79-0.25,1.52-0.35,2.26-0.44
		c2.5-0.29,4.89,0.22,7.24,1.04c4.38,1.52,8.38,3.77,12.07,6.55c2.91,2.19,5.87,4.31,8.84,6.41c3.38,2.4,6.98,4.44,10.9,5.86
		c2.14,0.77,4.33,1.3,6.62,1.24c1.71-0.04,3.32-0.44,4.81-1.31c0.17-0.1,0.36-0.17,0.48-0.35c0.14,0.02,0.22-0.07,0.31-0.14
		c0.97-0.83,1.16-1.91,0.95-3.1c-0.22-1.22-0.78-2.3-1.41-3.35c-0.26-0.43-0.48-0.9-0.9-1.28c-0.3,0.81-0.69,1.5-1.62,1.83
		c0.18-1.2,0.17-2.32,0.15-3.48c-0.2,0.1-0.2,0.25-0.25,0.38c-0.57,1.43-1.27,2.8-2.14,4.08c-0.71,1.05-1.63,1.78-2.82,2.22
		c-1.19,0.45-2.43,0.59-3.69,0.69c-0.39-0.17-0.69-0.47-1.03-0.72c-0.17-0.13-0.32-0.28-0.54-0.47c0.75-0.12,1.42-0.15,2.08-0.31
		c3.9-0.96,6.23-3.47,7.18-7.32c0.51-2.06,0.5-4.16,0.31-6.26c-0.06-0.65-0.15-1.3-0.22-1.93c0.19-0.05,0.29,0.03,0.39,0.08
		c5.94,3.1,11.13,7.13,15.24,12.46c2,2.6,3.46,5.51,4.7,8.53c1.47,3.57,2.59,7.26,3.44,11.02c0.02,0.08,0.02,0.15,0.04,0.28
		C148.87,177.87,148.37,177.71,147.88,177.53z" />
		<path class="anc_st5" d="M54.98,95.04c1.88-0.04,3.76-0.15,5.64-0.01c0.62,0.05,1.24,0.01,1.86,0.02c0.24,0,0.36-0.1,0.41-0.34
		c0.32-1.73,0.64-3.45,0.96-5.17c0.34-1.84,0.68-3.68,1.03-5.53c0.51-2.72,1-5.45,1.52-8.17c0.12-0.62,0.18-1.26,0.39-1.86
		c0.25-0.02,0.38,0.15,0.54,0.26c3.23,2.28,6.46,4.57,9.69,6.84c0.3,0.21,0.38,0.41,0.34,0.79c-0.1,0.95-0.12,1.91-0.17,2.87
		c-0.01,0.2-0.01,0.4-0.03,0.6c-0.03,0.43-0.22,0.77-0.52,1.1c-2.09,2.23-4.15,4.48-6.19,6.76c-1.2,1.34-2.41,2.67-3.61,4.01
		c-0.44,0.49-0.88,0.99-1.31,1.48c-0.32,0.37-0.32,0.39-0.81,0.19c-1.8-0.71-3.6-1.42-5.4-2.14c-1.23-0.48-2.45-0.97-3.68-1.45
		C55.42,95.22,55.2,95.13,54.98,95.04z" />
		<path class="anc_st6" d="M15.51,92.69c0.02-1.78,0.32-3.5,1.15-5.09c0.59-1.12,1.32-2.15,2.13-3.11c0.32-0.38,0.32-0.38,0.79-0.2
		c4,1.56,8,3.12,12,4.68c10.34,4.03,20.69,8.06,31.03,12.1c0.18,0.07,0.39,0.09,0.55,0.3c-0.4,0.46-0.8,0.93-1.2,1.39
		c-0.29,0.33-0.59,0.65-0.86,1c-0.21,0.28-0.41,0.33-0.76,0.19c-1.72-0.7-3.45-1.37-5.18-2.05c-11.68-4.61-23.36-9.23-35.04-13.86
		c-0.44-0.17-0.73-0.12-1.08,0.15c-0.72,0.56-1.32,1.22-1.85,1.95C16.61,90.97,16.09,91.84,15.51,92.69z" />
		<path class="anc_st7" d="M63.51,71.48c-0.36-0.35-0.67-0.64-0.98-0.95c-0.08-0.07-0.08-0.18-0.07-0.28c0.13-1.21,0.27-2.42,0.4-3.63
		c0.09-0.89,0.18-1.79,0.27-2.68c0.09-0.91,0.17-1.83,0.26-2.74c0.05-0.44,0.15-0.5,0.59-0.44c2.08,0.28,4.15,0.55,6.23,0.83
		c1.94,0.26,3.87,0.54,5.81,0.8c1.64,0.22,3.28,0.42,4.92,0.63c0.85,0.11,1.7,0.24,2.55,0.35c0.24,0.03,0.3,0.12,0.24,0.36
		c-0.25,1.01-0.5,2.01-0.73,3.03c-0.07,0.31-0.24,0.37-0.52,0.34c-1.44-0.19-2.89-0.38-4.33-0.56c-1.11-0.14-2.22-0.26-3.33-0.4
		c-1.17-0.14-2.33-0.29-3.5-0.44c-1.11-0.14-2.22-0.26-3.33-0.4c-0.57-0.07-1.15-0.15-1.72-0.22c-0.56-0.07-0.59-0.06-0.77,0.48
		c-0.59,1.76-1.18,3.52-1.77,5.28C63.68,71.03,63.61,71.22,63.51,71.48z" />
		<path class="anc_st6" d="M174.16,152.07c3.44,0,8.03,1.64,9.64,3.84c-0.05,0.02-0.1,0.07-0.15,0.07c-1.71-0.02-3.32,0.45-4.88,1.08
		c-2.35,0.96-4.46,2.33-6.5,3.82c-3.27,2.38-6.36,4.98-9.41,7.63c-0.15,0.13-0.3,0.25-0.5,0.36c0.31-1.25,0.55-2.5,1-3.7
		c0.19-0.05,0.29-0.21,0.41-0.33c0.79-0.79,1.5-1.66,2.22-2.51c1.17-1.37,2.38-2.69,3.76-3.86c0.3-0.25,0.59-0.51,0.93-0.81
		c-0.45-0.13-0.77,0.23-1.26,0.13c1.46-1.17,3.06-1.91,4.7-2.63c-0.63-0.08-1.24-0.07-1.85-0.08c-0.62-0.01-1.21,0.17-1.83,0.18
		c2.23-1.16,4.55-1.96,7.11-1.72c0.02-0.2-0.09-0.22-0.17-0.28c-0.68-0.47-1.46-0.72-2.25-0.95
		C174.81,152.22,174.45,152.29,174.16,152.07z" />
		<path class="anc_st8" d="M18.09,115.91c-0.06-0.98,0.2-1.88,0.53-2.76c0.25-0.67,0.59-1.31,0.99-1.91c0.18-0.28,0.36-0.34,0.69-0.25
		c4.03,1.08,8.07,2.15,12.1,3.22c5.21,1.38,10.42,2.77,15.63,4.15c0.19,0.05,0.37,0.11,0.55,0.16c0.02,0.19-0.11,0.28-0.2,0.38
		c-0.41,0.52-0.84,1.02-1.23,1.55c-0.22,0.3-0.45,0.36-0.81,0.26c-2.85-0.78-5.71-1.54-8.56-2.3c-5.5-1.47-11-2.93-16.49-4.41
		c-0.6-0.16-1.1-0.07-1.59,0.26c-0.49,0.32-0.89,0.74-1.25,1.2C18.33,115.6,18.21,115.76,18.09,115.91z" />
		<path class="anc_st3" d="M117.86,162.54c1.25-0.09,2.49-0.24,3.69-0.69c1.18-0.44,2.11-1.18,2.82-2.22c0.87-1.28,1.56-2.64,2.14-4.08
		c0.05-0.12,0.05-0.27,0.25-0.38c0.02,1.16,0.03,2.28-0.15,3.48c0.93-0.33,1.32-1.01,1.62-1.83c0.42,0.38,0.64,0.85,0.9,1.28
		c0.64,1.04,1.19,2.13,1.41,3.35c0.22,1.19,0.03,2.27-0.95,3.1c-0.09,0.08-0.18,0.16-0.31,0.14c-1.43,0.15-2.85,0.27-4.29,0.23
		c-2.54-0.07-4.86-0.79-6.95-2.22C117.96,162.66,117.91,162.59,117.86,162.54z" />
		<path class="anc_st8" d="M115.07,90.95c-0.71-0.38-1.38-0.74-2.08-1.11c-0.11,0.21-0.03,0.38,0,0.54c0.24,1.09,0.48,2.18,0.75,3.27
		c0.07,0.28,0.01,0.44-0.25,0.58c-0.56,0.3-1.11,0.64-1.69,0.98c-0.22-0.52-0.32-1.05-0.47-1.56c-0.56-1.98-1.09-3.96-1.66-5.94
		c-0.1-0.35-0.05-0.54,0.26-0.73c0.51-0.31,1.01-0.65,1.49-1.01c0.25-0.18,0.44-0.18,0.68,0.01c0.5,0.4,1.01,0.78,1.53,1.16
		c0.15,0.11,0.28,0.28,0.55,0.31c0.1-0.4,0.21-0.8,0.31-1.2c0.18-0.72,0.36-1.43,0.52-2.15c0.07-0.31,0.21-0.53,0.51-0.68
		c0.58-0.3,1.13-0.65,1.74-1c0.24,0.61,0.32,1.2,0.45,1.78c0.49,2.08,0.97,4.16,1.44,6.24c0.15,0.65,0.18,0.49-0.32,0.8
		c-0.46,0.28-0.93,0.55-1.47,0.87c-0.39-1.32-0.78-2.61-1.21-4.04C115.77,89.1,115.43,90,115.07,90.95z" />
		<path class="anc_st3" d="M174.16,152.07c0.29,0.21,0.65,0.15,0.97,0.24c0.79,0.24,1.57,0.48,2.25,0.95c0.08,0.05,0.19,0.08,0.17,0.28
		c-2.56-0.24-4.88,0.56-7.11,1.72c0.62-0.01,1.21-0.19,1.83-0.18c0.61,0.01,1.22,0,1.85,0.08c-1.64,0.71-3.23,1.45-4.7,2.63
		c0.49,0.09,0.81-0.26,1.26-0.13c-0.34,0.29-0.64,0.55-0.93,0.81c-1.37,1.17-2.59,2.49-3.76,3.86c-0.72,0.85-1.43,1.72-2.22,2.51
		c-0.12,0.12-0.22,0.29-0.41,0.33c0.11-0.9,0.42-1.74,0.64-2.61c0.74-2.8,1.51-5.59,2.24-8.38c0.11-0.42,0.31-0.62,0.71-0.77
		c1.54-0.56,3.09-1.09,4.73-1.26c0.71-0.07,1.43-0.1,2.15-0.15C173.94,151.99,174.07,151.97,174.16,152.07z" />
		<path class="anc_st9" d="M133.5,84.05c-0.21-1.95-0.42-3.81-0.63-5.68c-0.14-1.25-0.25-2.51-0.41-3.75c-0.04-0.32,0.05-0.46,0.32-0.6
		c1.02-0.51,2.03-1.04,3.04-1.56c1.08-0.56,2.38-0.2,3.03,0.84c0.27,0.43,0.42,0.91,0.48,1.41c0.14,1.15,0.2,2.31,0.14,3.47
		c-0.06,1.03-0.39,1.96-1.05,2.75c-0.64,0.78-1.36,1.45-2.31,1.86C135.27,83.18,134.43,83.61,133.5,84.05z M135.52,79.82
		c0.48-0.14,0.86-0.38,1.17-0.72c0.23-0.26,0.38-0.57,0.37-0.93c-0.02-0.76-0.08-1.52-0.23-2.27c-0.13-0.65-0.47-0.81-1.1-0.56
		c-0.09,0.04-0.18,0.08-0.28,0.12c-0.52,0.21-0.44,0.21-0.4,0.65c0.09,0.83,0.19,1.67,0.3,2.5
		C135.4,79.01,135.37,79.41,135.52,79.82z" />
		<path class="anc_st8" d="M148.08,67.2c0.25,0.97,0.5,1.89,0.74,2.82c0.59,2.28,1.17,4.56,1.75,6.84c0.02,0.08,0.03,0.16,0.06,0.23
		c0.12,0.3,0,0.42-0.3,0.51c-0.55,0.16-1.1,0.35-1.64,0.57c-0.32,0.13-0.42,0.02-0.5-0.27c-0.09-0.32-0.22-0.64-0.36-1
		c-0.72,0.2-1.39,0.5-2.07,0.75c-0.16,0.06-0.18,0.2-0.21,0.33c-0.1,0.37-0.21,0.73-0.29,1.1c-0.04,0.17-0.1,0.3-0.27,0.35
		c-0.62,0.21-1.24,0.42-1.9,0.64c0.01-0.49,0.15-0.91,0.24-1.33c0.74-3.41,1.5-6.82,2.24-10.23c0.07-0.31,0.2-0.48,0.5-0.58
		C146.74,67.72,147.39,67.46,148.08,67.2z M146.73,71.75c-0.25,1.08-0.4,2.04-0.54,3.05c0.32-0.1,0.54-0.19,0.77-0.24
		c0.28-0.06,0.35-0.19,0.28-0.46C147.07,73.37,146.92,72.63,146.73,71.75z" />
		<path class="anc_st9" d="M103.68,98.15c0.24,0.53,0.44,1.03,0.68,1.51c0.13,0.27,0.1,0.42-0.15,0.6c-0.6,0.43-1.18,0.88-1.75,1.31
		c-0.23-0.07-0.22-0.26-0.28-0.4c-0.81-2.12-1.61-4.25-2.41-6.38c-0.18-0.47-0.18-0.48,0.22-0.78c0.79-0.61,1.58-1.22,2.38-1.81
		c0.4-0.3,0.82-0.57,1.29-0.76c1.38-0.57,2.77,0.25,2.94,1.74c0.09,0.8-0.1,1.55-0.42,2.27c-0.2,0.45-0.2,0.45,0.2,0.75
		c0.57,0.44,1.14,0.87,1.74,1.32c-0.2,0.28-0.5,0.41-0.75,0.59c-0.34,0.24-0.71,0.46-1.03,0.72c-0.31,0.25-0.58,0.21-0.87,0.01
		c-0.24-0.17-0.48-0.36-0.72-0.54C104.45,98.05,104.13,97.96,103.68,98.15z M103.13,96.22c0.47-0.32,0.78-0.67,1.03-1.08
		c0.13-0.21,0.19-0.44,0.14-0.69c-0.05-0.26-0.19-0.43-0.47-0.46c-0.28-0.02-1.05,0.4-1.17,0.64c-0.05,0.1-0.02,0.19,0.01,0.29
		C102.82,95.33,102.96,95.74,103.13,96.22z" />
		<path class="anc_st8"
			d="M83.81,60.89c-6.05-0.92-12.04-1.83-18.05-2.74c0.72-0.73,1.4-1.41,2.05-2.1c0.21-0.22,0.42-0.25,0.7-0.21
		c2.13,0.32,4.27,0.64,6.4,0.96c2.55,0.38,5.09,0.78,7.64,1.15c0.34,0.05,0.47,0.18,0.55,0.5C83.31,59.23,83.55,60.01,83.81,60.89z" />
		<path class="anc_st8" d="M129.96,85.55c-0.7,0.35-1.32,0.66-1.94,0.97c-0.21,0.11-0.31,0.02-0.44-0.14c-0.2-0.26-0.3-0.73-0.62-0.74
		c-0.29-0.01-0.59,0.31-0.91,0.42c-0.81,0.29-1.29,0.8-1.27,1.7c0.01,0.28-0.16,0.46-0.43,0.58c-0.52,0.23-1.03,0.5-1.64,0.8
		c0.09-0.86,0.16-1.63,0.24-2.39c0.27-2.5,0.55-5,0.8-7.51c0.05-0.51,0.2-0.84,0.7-1.04c0.6-0.25,1.17-0.59,1.79-0.92
		C127.49,80.05,128.71,82.77,129.96,85.55z M125.42,81.52c-0.03,0.01-0.06,0.02-0.1,0.02c-0.07,0.85-0.14,1.7-0.22,2.62
		c0.35-0.16,0.62-0.28,0.89-0.4c0.13-0.06,0.24-0.15,0.17-0.32C125.91,82.8,125.67,82.16,125.42,81.52z" />
		<path class="anc_st8" d="M99.17,103.8c-0.65,0.5-1.25,0.96-1.85,1.42c-0.19,0.15-0.32,0.04-0.48-0.06c-0.58-0.38-0.58-0.38-1.14,0.04
		c-0.34,0.25-0.66,0.52-1.01,0.75c-0.27,0.17-0.38,0.39-0.35,0.7c0.01,0.12-0.02,0.24-0.01,0.36c0.03,0.31-0.09,0.52-0.34,0.71
		c-0.57,0.43-1.12,0.89-1.67,1.32c-0.2-0.12-0.14-0.28-0.14-0.4c-0.11-2.6-0.21-5.19-0.34-7.79c-0.02-0.34,0.07-0.55,0.34-0.75
		c0.53-0.39,1.04-0.82,1.54-1.24c0.18-0.15,0.3-0.19,0.49,0C95.85,100.49,97.48,102.11,99.17,103.8z M93.92,102.12
		c-0.04,0.01-0.08,0.02-0.11,0.03c0.11,0.7,0.21,1.4,0.33,2.17c0.38-0.26,0.71-0.47,0.99-0.79
		C94.71,103.05,94.32,102.58,93.92,102.12z" />
		<path class="anc_st10" d="M37.69,132.68c-0.42,0.57-0.84,1.13-1.23,1.7c-0.18,0.26-0.42,0.19-0.64,0.16c-0.93-0.13-1.86-0.26-2.79-0.39
		c-2.41-0.34-4.83-0.69-7.24-1.03c-0.69-0.1-1.39-0.16-2.08-0.3c-0.51-0.11-0.85,0.07-1.15,0.44c-0.1,0.12-0.14,0.28-0.32,0.37
		c-0.14-0.77,0.01-1.48,0.25-2.17c0.34-0.99,0.34-1,1.34-0.86c2.99,0.43,5.97,0.87,8.96,1.3c1.52,0.22,3.05,0.43,4.57,0.65
		C37.45,132.55,37.56,132.54,37.69,132.68z" />
		<path class="anc_st8" d="M78.08,46.85c-0.16,1.63-0.32,3.26-0.48,4.89c-0.07,0.75-0.14,1.51-0.22,2.26c-0.05,0.46-0.06,0.47-0.5,0.39
		c-0.87-0.14-1.73-0.32-2.59-0.45c-0.33-0.05-0.38-0.18-0.32-0.47c0.38-2.06,0.74-4.12,1.12-6.18c0.05-0.29,0.12-0.59,0.16-0.88
		c0.03-0.2,0.1-0.27,0.31-0.24c0.75,0.12,1.5,0.22,2.25,0.33C78,46.52,78.15,46.6,78.08,46.85z" />
		<path class="anc_st10"
			d="M59.61,64.38c-0.46,0.35-0.87,0.66-1.28,0.98c-0.17,0.14-0.35,0.15-0.56,0.14c-2.21-0.16-4.42-0.32-6.63-0.45
		c-0.58-0.03-1.04-0.19-1.37-0.68c-0.13-0.2-0.31-0.36-0.49-0.56c0.33-0.37,0.75-0.59,1.13-0.87c0.16-0.11,0.35-0.05,0.53-0.04
		c1.93,0.14,3.86,0.28,5.79,0.42c0.44,0.03,0.88,0.08,1.31,0.08c0.49,0.01,0.89,0.17,1.18,0.57C59.32,64.1,59.45,64.2,59.61,64.38z" />
		<path class="anc_st10" d="M87.75,68.6c0.44-0.33,0.9-0.53,1.33-0.78c0.11-0.06,0.22-0.07,0.35-0.05c1.5,0.24,2.99,0.48,4.49,0.72
		c0.01,0,0.03,0.03,0.05,0.05c0.02,0.17-0.14,0.21-0.24,0.28c-0.44,0.34-0.91,0.65-1.33,1.02c-0.32,0.28-0.64,0.34-1.03,0.24
		c-0.6-0.15-1.2-0.29-1.81-0.38c-0.54-0.08-0.98-0.3-1.35-0.7C88.07,68.88,87.93,68.76,87.75,68.6z" />
		<path class="anc_st2" d="M64.43,155.71c0.01,0.07,0.01,0.14,0.02,0.21c-0.21,0.05-0.38-0.05-0.57-0.1c-0.18-0.05-0.36-0.12-0.65-0.22
		C63.73,155.51,64.08,155.63,64.43,155.71z" />
		<path class="anc_st1" d="M35.64,128.33c0.02-0.01,0.04-0.02,0.06-0.02c0.06,0.01,0.11,0.02,0.17,0.04c-0.01,0.02-0.03,0.06-0.04,0.06
		c-0.07-0.01-0.16,0.04-0.17-0.09C35.65,128.32,35.64,128.33,35.64,128.33z" />
		<path class="anc_st4" d="M139.83,98.07c-0.51,0.09-0.91,0.47-1.43,0.54c1.85-2.52,4.33-4.29,7.02-5.87c0.1,0.28-0.07,0.42-0.16,0.58
		c-1.19,2.16-2.26,4.37-3.09,6.69c-1.04,2.89-1.45,5.89-1.41,8.95c0.01,0.9,0.03,1.8,0.14,2.69c0.05,0.44,0.03,0.45-0.39,0.46
		c-1.54,0.03-3.07,0.18-4.6,0.36c-0.5,0.06-0.51,0.06-0.41,0.59c0.38,2.14,0.77,4.28,1.16,6.43c0.14,0.77,0.15,0.77-0.64,0.88
		c-0.44,0.06-0.87,0.12-1.31,0.16c-0.43,0.04-0.43,0.03-0.51-0.38c-0.24-1.32-0.48-2.63-0.73-3.95c-0.16-0.88-0.32-1.77-0.49-2.65
		c-0.09-0.47-0.09-0.48-0.59-0.35c-1.13,0.28-2.22,0.65-3.32,1.03c-0.13,0.05-0.26,0.1-0.4,0.14c-0.39,0.12-0.42,0.11-0.53-0.31
		c-0.31-1.08-0.65-2.14-1.02-3.2c-1.24-3.55-3.42-6.43-6.22-8.89c-0.26-0.22-0.51-0.45-0.84-0.73c2.21-0.26,4.18,0.26,6.18,1.21
		c-0.49,0.12-0.9,0-1.27,0.13c-0.05,0.23,0.1,0.33,0.19,0.45c1.93,2.36,3.19,5.06,4.03,7.97c0.24,0.84,0.15,0.76,0.95,0.46
		c0.62-0.23,1.23-0.47,1.85-0.71c0.43-0.17,0.44-0.18,0.36-0.61c-0.55-2.98-1.11-5.97-1.67-8.95c-0.02-0.1-0.06-0.19-0.11-0.33
		c-0.8,0.26-1.5,0.76-2.43,0.82c0.39-0.69,0.67-1.37,0.88-2.07c0.56-1.8,0.97-3.63,1.43-5.45c0.05-0.19,0.08-0.38,0.21-0.6
		c0.7,1.16,1.53,2.19,2.44,3.13c0.9,0.92,1.72,1.95,2.91,2.64c-0.35,0.2-0.74,0.31-1.13,0.41c-0.41,0.1-0.82,0.17-1.23,0.25
		c-0.46,0.08-0.46,0.08-0.38,0.51c0.19,1.08,0.38,2.16,0.57,3.25c0.35,1.97,0.7,3.93,1.05,5.9c0.08,0.46,0.1,0.48,0.53,0.41
		c0.83-0.13,1.66-0.2,2.51-0.17c0.47,0.02,0.47,0,0.47-0.45c0-0.88-0.02-1.76-0.02-2.64c0.01-2.78,0.42-5.49,1.34-8.12
		C139.8,98.46,139.91,98.29,139.83,98.07c0.07-0.03,0.02,0.07,0.06,0c0.02-0.04,0.01-0.06-0.03-0.05
		C139.78,98.04,139.89,98.01,139.83,98.07z" />
		<path class="anc_st4" d="M136.83,161.69c0.05,0.02,0.1,0.1,0.08,0.11C136.79,161.83,136.86,161.73,136.83,161.69
		C136.84,161.68,136.83,161.69,136.83,161.69z" />
		<path class="anc_st3" d="M89.29,150.06c-0.02-0.02-0.05-0.04-0.07-0.06c0.06-0.06,0.08-0.02,0.1,0.03
		C89.32,150.02,89.29,150.06,89.29,150.06z" />
		<path class="anc_st3" d="M132.39,154.48c-0.02-0.02-0.04-0.04-0.05-0.06c0.01,0,0.03,0,0.04,0.01
		C132.39,154.45,132.39,154.47,132.39,154.48C132.39,154.49,132.39,154.48,132.39,154.48z" />
		<path class="anc_st3" d="M134.17,159.55c-0.02-0.03-0.07-0.07-0.06-0.08c0.05-0.07,0.08-0.02,0.11,0.02
		C134.21,159.51,134.19,159.53,134.17,159.55z" />
		<path class="anc_st11" d="M135.52,79.82c-0.15-0.41-0.12-0.81-0.17-1.2c-0.11-0.83-0.21-1.67-0.3-2.5c-0.05-0.44-0.13-0.45,0.4-0.65
		c0.09-0.04,0.18-0.08,0.28-0.12c0.63-0.25,0.97-0.08,1.1,0.56c0.15,0.75,0.21,1.5,0.23,2.27c0.01,0.36-0.13,0.66-0.37,0.93
		C136.38,79.45,136,79.68,135.52,79.82z" />
		<path class="anc_st11" d="M146.73,71.75c0.19,0.88,0.35,1.62,0.52,2.35c0.06,0.27,0,0.41-0.28,0.46c-0.23,0.05-0.45,0.14-0.77,0.24
		C146.33,73.79,146.48,72.83,146.73,71.75z" />
		<path class="anc_st11" d="M103.13,96.22c-0.17-0.48-0.31-0.89-0.46-1.3c-0.03-0.1-0.06-0.19-0.01-0.29c0.12-0.24,0.9-0.66,1.17-0.64
		c0.28,0.03,0.42,0.2,0.47,0.46c0.05,0.24-0.01,0.47-0.14,0.69C103.92,95.55,103.6,95.9,103.13,96.22z" />
		<path class="anc_st11" d="M125.42,81.52c0.25,0.64,0.49,1.28,0.74,1.92c0.07,0.18-0.03,0.26-0.17,0.32c-0.27,0.12-0.54,0.24-0.89,0.4
		c0.08-0.92,0.15-1.77,0.22-2.62C125.35,81.53,125.39,81.52,125.42,81.52z" />
		<path class="anc_st11" d="M93.92,102.12c0.4,0.47,0.8,0.93,1.2,1.41c-0.28,0.32-0.61,0.53-0.99,0.79c-0.12-0.77-0.22-1.47-0.33-2.17
		C93.84,102.14,93.88,102.13,93.92,102.12z" />
		<path class="anc_st2" d="M139.83,98.07c0.06-0.06-0.06-0.03,0.02-0.05c0.04-0.01,0.06,0.01,0.03,0.05
		C139.85,98.14,139.91,98.04,139.83,98.07C139.84,98.07,139.83,98.07,139.83,98.07z" />
	</g>
</svg>