<?xml version="1.0" encoding="utf-8"?>
<!-- Generator: Adobe Illustrator 24.1.0, SVG Export Plug-In . SVG Version: 6.00 Build 0)  -->
<svg version="1.1" id="Layer_1" xmlns="http://www.w3.org/2000/svg" xmlns:xlink="http://www.w3.org/1999/xlink" x="0px" y="0px"
	 viewBox="0 0 200 200" style="enable-background:new 0 0 200 200;" xml:space="preserve">
<g>
	<path style="fill:#1E2D40;" d="M195.737,169.616c-0.354-0.316-0.627-0.579-0.92-0.817c-1.594-1.293-3.363-1.656-5.339-1.033
		c-1.586,0.5-3.021,1.279-4.296,2.328c-9.96,8.2-19.909,16.412-29.861,24.622c-0.386,0.318-0.774,0.635-1.14,0.975
		c-0.203,0.189-0.389,0.207-0.65,0.141c-9.663-2.445-19.328-4.882-28.994-7.318c-11.835-2.983-23.671-5.965-35.506-8.947
		c-13.249-3.339-26.499-6.68-39.748-10.018c-12.804-3.226-25.608-6.449-38.412-9.674c-1.119-0.282-2.236-0.573-3.412-0.875
		c2.34-3.939,4.352-8,6.511-12.036c-1.611-0.342-3.152-0.67-4.693-0.997c-0.215-0.046-0.429-0.1-0.646-0.129
		c-0.272-0.036-0.462-0.191-0.672-0.355c-1.488-1.158-2.028-2.798-2.252-4.555c-0.451-3.528-0.479-7.058,0.184-10.57
		c0.068-0.361,0.042-0.631-0.258-0.904c-0.744-0.676-1.152-1.573-1.5-2.495c-0.533-1.412-0.832-2.882-0.96-4.379
		c-0.288-3.355-0.241-6.715,0.022-10.069c0.167-2.133,0.463-4.252,1.067-6.315c0.07-0.238,0.057-0.396-0.131-0.58
		c-2.138-2.101-3.218-4.724-3.746-7.62c-0.401-2.201-0.371-4.426-0.286-6.641c0.177-4.657,1.368-9.072,3.407-13.257
		c1.051-2.156,2.426-4.085,4.147-5.768c1.002-0.98,1.982-1.977,3.148-2.77c2.467-1.678,5.183-2.495,8.171-2.57
		c1.91-0.048,3.712,0.233,5.506,0.904c2.562,0.958,5.176,1.777,7.77,2.65c0.206,0.069,0.405,0.177,0.634,0.171
		c0.101-0.157,0.02-0.309-0.009-0.461c-0.552-2.844-1.114-5.686-1.651-8.533c-0.157-0.829-0.037-1.675-0.058-2.513
		c-0.004-0.176,0.13-0.287,0.227-0.41c3.012-3.84,6.021-7.682,9.045-11.511c0.357-0.452,0.808-0.831,1.205-1.253
		c0.142-0.15,0.307-0.157,0.491-0.162c1.401-0.033,2.798,0.049,4.195,0.155c1.316,0.099,2.634,0.178,3.948,0.294
		c0.336,0.03,0.511-0.145,0.709-0.345c2.678-2.697,5.363-5.387,8.032-8.093c0.317-0.321,0.63-0.501,1.093-0.461
		c0.333,0.029,0.742,0.139,0.993-0.055c0.263-0.203,0.165-0.637,0.217-0.969c0.236-1.5,0.458-3.003,0.666-4.507
		c0.046-0.335,0.198-0.575,0.403-0.836c0.565-0.717,1.241-0.967,2.17-0.932c1.207,0.045,2.384,0.241,3.567,0.421
		c2.943,0.45,5.883,0.922,8.824,1.383c3.178,0.499,6.357,0.994,9.535,1.493c2.408,0.378,4.814,0.77,7.224,1.13
		c0.42,0.063,0.717,0.244,1.042,0.504c0.673,0.539,0.857,1.18,0.839,2.028c-0.036,1.685-0.284,3.345-0.418,5.018
		c-0.039,0.489-0.059,0.486,0.405,0.637c0.074,0.024,0.163,0.045,0.212,0.098c0.473,0.51,1.053,0.919,1.394,1.555
		c0.557,1.037,1.141,2.059,1.73,3.115c0.29-0.117,0.474-0.333,0.682-0.506c7.773-6.43,15.853-12.445,24.25-18.038
		c10.621-7.074,21.906-12.87,33.713-17.68c6.48-2.639,13.058-4.999,19.733-7.092c0.272-0.085,0.447-0.135,0.627,0.186
		c2.939,5.248,6.068,10.389,8.711,15.802c3.302,6.764,6.201,13.683,8.293,20.923c1.144,3.958,2.004,7.981,2.707,12.039
		c0.519,2.994,0.939,6.003,1.278,9.022c0.272,2.424,0.474,4.854,0.657,7.287c0.519,6.89,0.527,13.79,0.448,20.692
		c-0.013,1.16-0.252,2.209-0.767,3.269c-2.271,4.676-4.202,9.5-6.058,14.353c-2.94,7.689-5.625,15.469-8.291,23.256
		c-0.854,2.495-1.689,4.996-2.535,7.493c-0.186,0.548-0.386,1.091-0.576,1.637c-0.149,0.428-0.146,0.424,0.265,0.548
		c4.48,1.35,8.03,3.965,10.627,7.856c1.598,2.393,2.579,5.042,3.135,7.854c0.645,3.263,0.689,6.549,0.369,9.849
		C196.074,167.347,195.93,168.431,195.737,169.616z"/>
	<path style="fill:#FFFFFF;" d="M96.981,56.928c0.271-0.113,0.415-0.285,0.581-0.423c9.619-8.033,19.618-15.551,30.15-22.354
		c7.891-5.097,16.155-9.503,24.708-13.374c7.194-3.257,14.518-6.188,22.017-8.671c0.095-0.031,0.191-0.06,0.283-0.098
		c0.223-0.092,0.361-0.026,0.485,0.186c0.373,0.638,0.779,1.258,1.153,1.896c5.396,9.211,9.773,18.87,12.786,29.126
		c1.292,4.396,2.23,8.871,2.974,13.39c0.519,3.157,0.937,6.327,1.27,9.507c0.276,2.645,0.491,5.295,0.658,7.95
		c0.305,4.833,0.474,9.669,0.436,14.512c-0.002,0.303-0.04,0.584-0.171,0.869c-5.093,11.15-9.56,22.547-13.507,34.15
		c-2.284,6.714-4.508,13.447-6.61,20.221c-0.018,0.057-0.044,0.112-0.061,0.169c-0.13,0.44-0.129,0.439,0.327,0.539
		c2.586,0.566,5.084,1.394,7.48,2.523c1.359,0.64,2.654,1.39,3.881,2.261c1.551,1.101,2.69,2.551,3.6,4.199
		c1.308,2.37,2.403,6.004,2.596,8.602c-0.037,0.064-0.102,0.066-0.154,0.043c-1.62-0.733-3.27-0.641-4.923-0.151
		c-1.922,0.57-3.657,1.511-5.196,2.789c-9.601,7.974-19.197,15.955-28.785,23.946c-0.359,0.299-0.666,0.379-1.122,0.265
		c-11.782-2.95-23.567-5.884-35.352-8.822c-13.103-3.266-26.206-6.532-39.309-9.797c-12.115-3.019-24.229-6.037-36.344-9.056
		c-7.928-1.975-15.855-3.949-23.783-5.924c-0.652-0.163-0.652-0.166-0.338-0.79c1.866-3.715,3.732-7.43,5.598-11.145
		c0.054-0.107,0.103-0.215,0.15-0.314c-0.071-0.179-0.226-0.161-0.357-0.188c-3.286-0.683-6.571-1.371-9.86-2.04
		c-0.341-0.069-0.516-0.235-0.632-0.543c-0.276-0.737-0.437-1.503-0.492-2.279c-0.212-2.994-0.016-5.955,0.852-8.846
		c0.328-1.093,0.8-2.125,1.491-3.1c-0.635-0.191-1.251-0.314-1.853-0.331c-1.139-0.033-1.724-0.704-2.16-1.619
		c-0.506-1.061-0.764-2.196-0.857-3.353c-0.37-4.575,0.106-9.062,1.531-13.434c0.367-1.125,0.882-2.186,1.573-3.154
		c0.3-0.421,0.653-0.796,1.116-1.192c-0.959-0.278-1.83-0.532-2.703-0.783c-0.461-0.133-0.919-0.28-1.386-0.383
		c-0.383-0.084-0.619-0.297-0.813-0.629c-1.005-1.718-1.599-3.579-1.849-5.537c-0.682-5.328,0.378-10.357,2.865-15.07
		c1.874-3.553,4.71-6.125,8.477-7.611c1.73-0.682,1.735-0.674,3.493-0.086c10.098,3.376,20.195,6.753,30.292,10.129
		c0.187,0.063,0.375,0.123,0.559,0.183c0.11-0.156,0.03-0.292-0.003-0.418c-0.491-1.854-1-3.703-1.476-5.56
		c-0.097-0.378-0.25-0.551-0.646-0.645c-3.207-0.76-6.405-1.559-9.612-2.321c-0.4-0.095-0.542-0.26-0.612-0.658
		c-0.72-4.134-1.459-8.264-2.21-12.392c-0.067-0.368-0.015-0.631,0.225-0.926c2.324-2.853,4.635-5.717,6.939-8.587
		c0.223-0.278,0.438-0.376,0.806-0.344c1.853,0.159,3.709,0.279,5.565,0.413c0.558,0.04,1.119,0.062,1.675,0.127
		c0.391,0.046,0.665-0.071,0.946-0.354c2.648-2.67,5.318-5.319,7.964-7.992c0.333-0.337,0.625-0.443,1.096-0.325
		c1.007,0.252,2.032,0.433,3.051,0.634c0.393,0.077,0.403,0.067,0.467-0.309c0.37-2.187,0.74-4.374,1.103-6.562
		c0.138-0.833,0.13-0.841,0.974-0.711c4.068,0.631,8.135,1.266,12.203,1.898c2.942,0.457,5.885,0.91,8.828,1.363
		c0.516,0.079,0.519,0.075,0.465,0.578c-0.238,2.206-0.478,4.412-0.717,6.618c-0.009,0.08-0.004,0.162-0.022,0.239
		c-0.072,0.304,0.054,0.426,0.355,0.477c0.847,0.143,1.686,0.336,2.535,0.465c0.396,0.06,0.628,0.223,0.818,0.58
		c1.391,2.611,2.804,5.209,4.211,7.811C96.769,56.558,96.869,56.729,96.981,56.928z"/>
	<path style="fill:#1E2D40;" d="M167.923,149.038c0.7-0.166,1.408-0.351,2.133-0.459c2.761-0.411,5.452-0.101,8.107,0.712
		c1.908,0.584,3.71,1.366,5.283,2.622c1.749,1.397,3.096,3.111,4.075,5.119c0.061,0.125,0.109,0.257,0.155,0.388
		c0.012,0.033-0.005,0.077-0.012,0.151c-1.034,0.014-2.054,0.169-3.056,0.447c-1.789,0.496-3.429,1.315-4.987,2.307
		c-1.773,1.129-3.462,2.376-5.109,3.68c-7.512,5.946-14.951,11.984-22.393,18.018c-0.366,0.297-0.667,0.354-1.125,0.232
		c-6.314-1.673-12.635-3.323-18.955-4.974c-15.559-4.066-31.118-8.131-46.677-12.194c-12.312-3.215-24.625-6.427-36.938-9.642
		c-7.345-1.918-14.689-3.837-22.034-5.756c-0.094-0.025-0.188-0.054-0.375-0.108c1.776-3.047,3.575-6.03,5.363-9.085
		c-0.193-0.061-0.351-0.122-0.515-0.162c-4.174-1.011-8.347-2.028-12.527-3.017c-0.51-0.121-0.8-0.375-0.967-0.846
		c-0.224-0.629-0.333-1.281-0.365-1.938c-0.082-1.708,0.06-3.398,0.565-5.041c0.297-0.966,0.744-1.853,1.476-2.575
		c0.34-0.336,0.678-0.509,1.217-0.436c3.189,0.429,6.385,0.805,9.58,1.195c2.023,0.247,4.046,0.489,6.101,0.737
		c-0.195-0.199-0.43-0.242-0.644-0.319c-6.781-2.454-13.562-4.911-20.351-7.343c-0.609-0.218-0.972-0.598-1.197-1.158
		c-0.256-0.637-0.373-1.303-0.4-1.988c-0.089-2.25,0.387-4.41,1.041-6.541c0.365-1.189,0.837-2.333,1.512-3.383
		c0.458-0.713,0.997-1.35,1.72-1.815c0.473-0.304,0.956-0.408,1.535-0.302c3.499,0.64,7.003,1.245,10.506,1.863
		c2.617,0.461,5.234,0.922,7.851,1.385c0.131,0.023,0.26,0.074,0.407,0.016c-0.154-0.182-0.375-0.231-0.57-0.319
		c-8.475-3.808-16.949-7.62-25.434-11.406c-0.601-0.268-0.967-0.651-1.213-1.228c-0.563-1.317-0.769-2.699-0.66-4.107
		c0.299-3.86,1.588-7.367,3.944-10.453c1.155-1.513,2.578-2.723,4.309-3.559c0.5-0.242,0.936-0.272,1.472-0.071
		c9.317,3.489,18.643,6.954,27.961,10.441c0.54,0.202,1.09,0.246,1.641,0.305c2.266,0.241,4.536,0.447,6.802,0.692
		c0.34,0.037,0.399-0.09,0.452-0.365c0.338-1.746,0.669-3.493,1.046-5.231c0.152-0.7,0.141-1.362-0.013-2.06
		c-0.709-3.219-1.39-6.445-2.067-9.671c-0.078-0.373-0.214-0.559-0.627-0.645c-3.189-0.658-6.371-1.352-9.555-2.035
		c-0.552-0.118-0.561-0.118-0.654-0.659c-0.271-1.575-0.526-3.154-0.808-4.727c-0.051-0.284,0.005-0.49,0.169-0.716
		c1.073-1.47,2.143-2.942,3.192-4.429c0.21-0.298,0.428-0.401,0.787-0.387c2.518,0.1,5.038,0.166,7.556,0.275
		c0.452,0.019,0.725-0.123,1.006-0.465c2.212-2.687,4.449-5.353,6.664-8.038c0.259-0.314,0.484-0.42,0.908-0.324
		c1.754,0.395,3.52,0.739,5.281,1.1c0.098,0.02,0.201,0.02,0.295,0.051c0.226,0.074,0.317,0.004,0.36-0.235
		c0.175-0.983,0.371-1.963,0.555-2.945c0.291-1.552,0.577-3.104,0.867-4.656c0.079-0.422,0.083-0.432,0.543-0.363
		c2.53,0.38,5.058,0.767,7.587,1.15c0.968,0.147,1.937,0.291,2.905,0.438c0.436,0.067,0.441,0.07,0.386,0.528
		c-0.274,2.282-0.552,4.564-0.827,6.846c-0.014,0.119-0.02,0.239-0.037,0.358c-0.029,0.196,0.046,0.281,0.247,0.32
		c0.667,0.13,1.329,0.283,1.993,0.423c0.978,0.206,1.951,0.434,2.936,0.598c0.429,0.071,0.647,0.279,0.843,0.642
		c1.792,3.326,3.607,6.639,5.397,9.966c0.222,0.413,0.465,0.614,0.959,0.605c0.758-0.013,1.519,0.048,2.276,0.113
		c0.37,0.032,0.636-0.086,0.916-0.319c6.333-5.276,12.837-10.335,19.513-15.169c6.287-4.552,12.699-8.917,19.443-12.773
		c11.003-6.292,22.541-11.366,34.646-15.139c0.4-0.125,0.812-0.217,1.205-0.361c0.27-0.099,0.397-0.015,0.519,0.219
		c0.37,0.708,0.772,1.401,1.136,2.112c4.659,9.092,8.25,18.578,10.527,28.549c0.712,3.12,1.229,6.274,1.647,9.445
		c0.704,5.337,1.124,10.697,1.339,16.074c0.11,2.759,0.189,5.518,0.19,8.279c0,0.303-0.036,0.585-0.161,0.871
		c-4.548,10.348-8.368,20.961-11.564,31.802c-2.978,10.1-5.707,20.267-8.228,30.49C167.896,148.778,167.821,148.888,167.923,149.038
		z"/>
	<path style="fill:#848482;" d="M152.353,169.852c-0.397-1.065-0.778-2.135-1.194-3.193c-1.731-4.402-3.791-8.637-6.433-12.572
		c-1.296-1.93-2.734-3.75-4.376-5.394c-1.964-1.966-4.216-3.542-6.678-4.834c-3.692-1.937-7.605-3.21-11.68-4.034
		c-1.702-0.344-3.417-0.611-5.14-0.796c-1.328-0.143-2.662-0.268-4.002-0.285c-0.599-0.007-1.197-0.057-1.795-0.085
		c-1.221-0.057-2.436,0.084-3.688,0.191c0.164,0.048,0.326,0.102,0.491,0.145c2.484,0.646,4.886,1.509,7.139,2.753
		c1.052,0.581,2.057,1.237,2.908,2.1c1.543,1.567,2.377,3.465,2.675,5.632c0.122,0.887,0.079,1.745-0.119,2.61
		c-0.449,1.961-1.969,3.304-4.146,3.605c-2.229,0.309-4.328-0.206-6.383-0.961c-2.915-1.07-5.674-2.482-8.413-3.931
		c-2.209-1.169-4.43-2.315-6.64-3.479c-2.584-1.361-5.225-2.596-7.949-3.651c-1.753-0.679-3.547-1.222-5.405-1.532
		c-1.433-0.239-2.868-0.178-4.298,0.012c-1.799,0.239-3.593,0.513-5.36,0.93c-2.238,0.528-4.444,1.16-6.527,2.156
		c-0.171,0.082-0.364,0.138-0.549,0.352c0.665,0,1.256-0.01,1.847,0.002c0.946,0.019,1.861,0.185,2.737,0.562
		c1.326,0.571,1.869,1.715,1.528,3.192c-0.253,1.096-0.929,1.891-1.848,2.486c-1.195,0.773-2.522,1.168-3.931,1.343
		c-1.497,0.186-2.997,0.155-4.492,0.078c-1.752-0.091-3.494-0.331-5.225-0.627c-0.747-0.128-1.488-0.283-2.234-0.414
		c-0.198-0.035-0.39-0.079-0.608-0.173c0.126-0.274,0.327-0.487,0.513-0.709c2.542-3.035,5.178-5.986,7.875-8.885
		c3.204-3.442,6.517-6.775,9.89-10.049c1.764-1.712,3.569-3.385,5.389-5.039c3.299-2.998,6.666-5.917,10.114-8.745
		c3.587-2.942,7.242-5.795,10.991-8.525c5.401-3.933,10.955-7.636,16.699-11.052c4.298-2.556,8.679-4.959,13.171-7.154
		c5.084-2.484,10.272-4.726,15.592-6.66c3.737-1.359,7.522-2.561,11.357-3.606c0.22,0.199,0.207,0.471,0.202,0.726
		c-0.059,3.096-0.068,6.194-0.22,9.288c-0.005,0.1-0.014,0.2-0.012,0.3c0.079,3.259-0.101,6.516-0.145,9.773
		c-0.055,4.116-0.15,8.232-0.252,12.347c-0.046,1.858-0.023,3.717-0.092,5.574c-0.148,3.975-0.161,7.952-0.268,11.926
		c-0.051,1.899-0.021,3.798-0.093,5.694c-0.15,3.935-0.157,7.872-0.265,11.807c-0.052,1.879-0.026,3.757-0.095,5.634
		c-0.145,3.975-0.204,7.951-0.252,11.927c-0.011,0.876-0.113,1.754-0.111,2.634C152.553,169.465,152.543,169.691,152.353,169.852z"
		/>
	<path style="fill:#FFFFFF;" d="M152.353,169.852c0.033-1.059,0.077-2.117,0.098-3.176c0.062-3.24,0.113-6.48,0.172-9.719
		c0.042-2.28,0.063-4.56,0.145-6.838c0.059-1.64,0.042-3.28,0.1-4.919c0.078-2.239,0.065-4.48,0.14-6.719
		c0.057-1.68,0.042-3.36,0.101-5.039c0.078-2.239,0.064-4.48,0.14-6.719c0.057-1.68,0.061-3.359,0.096-5.039
		c0.086-4.159,0.149-8.319,0.264-12.477c0.047-1.7,0.04-3.4,0.102-5.099c0.08-2.179,0.059-4.36,0.137-6.539
		c0.061-1.72,0.042-3.44,0.104-5.159c0.077-2.159,0.068-4.32,0.134-6.479c0.044-1.439,0.084-2.878,0.07-4.317
		c0.044-1.719,0.094-3.438,0.132-5.157c0.109-5,0.213-9.999,0.319-14.999c0.005-0.259,0.001-0.519,0.001-0.79
		c-0.236-0.048-0.425,0.08-0.624,0.154c-5.567,2.068-11.003,4.445-16.365,6.991c-10.454,4.964-20.519,10.613-30.128,17.07
		c-8.755,5.883-16.903,12.516-24.551,19.771c-9.987,9.474-19.168,19.686-27.845,30.362c-3.798,4.672-7.479,9.434-11.043,14.287
		c-0.481,0.654-0.289,0.599-1.112,0.361c-1.187-0.343-2.373-0.689-3.534-1.1c0.012-0.242,0.166-0.387,0.272-0.551
		c9.909-15.262,20.91-29.681,33.196-43.114c10.189-11.14,21.442-21.077,33.625-29.979c13.775-10.065,28.327-18.824,43.762-26.103
		c5.46-2.575,11.002-4.957,16.689-6.991c0.301-0.108,0.616-0.183,0.904-0.318c0.314-0.148,0.452-0.032,0.601,0.241
		c0.864,1.578,1.673,3.184,2.439,4.811c3.16,6.711,5.36,13.719,6.581,21.039c0.602,3.61,1.091,7.232,1.442,10.874
		c0.225,2.329,0.407,4.66,0.523,6.999c-0.227-0.181-0.223-0.461-0.291-0.701c-1.025-3.615-2.166-7.191-3.493-10.707
		c-1.663-4.404-3.849-8.519-6.747-12.241c-0.639-0.821-1.3-1.624-2.042-2.356c-0.152-0.15-0.296-0.312-0.552-0.427
		c-0.13,1.16-0.255,2.265-0.377,3.37c-0.27,2.444-0.54,4.887-0.807,7.332c-0.217,1.987-0.428,3.975-0.645,5.962
		c-0.261,2.384-0.526,4.768-0.788,7.153c-0.218,1.987-0.431,3.975-0.649,5.962c-0.264,2.404-0.531,4.808-0.794,7.212
		c-0.216,1.967-0.427,3.935-0.642,5.902c-0.266,2.424-0.535,4.848-0.8,7.272c-0.215,1.967-0.426,3.935-0.641,5.902
		c-0.265,2.424-0.535,4.848-0.8,7.272c-0.217,1.987-0.428,3.975-0.646,5.962c-0.261,2.384-0.527,4.768-0.788,7.153
		c-0.218,1.987-0.431,3.975-0.649,5.962c-0.263,2.404-0.53,4.808-0.793,7.212c-0.218,1.987-0.431,3.975-0.648,5.962
		c-0.263,2.404-0.531,4.808-0.794,7.212c-0.217,1.987-0.431,3.975-0.647,5.962c-0.117,1.073-0.236,2.146-0.353,3.219
		c-0.013,0.12-0.032,0.235-0.095,0.343c-0.248,0.43-0.49,0.863-0.808,1.424C152.889,171.723,152.402,170.854,152.353,169.852z"/>
	<path style="fill:#97B2D4;" d="M147.927,177.525c-1.045-0.176-2.056-0.494-3.079-0.759c-12.163-3.149-24.324-6.306-36.485-9.461
		c-13.727-3.562-27.455-7.124-41.18-10.691c-0.344-0.089-0.707-0.127-1.022-0.313c0.202-0.237,0.477-0.18,0.727-0.154
		c1.871,0.198,3.749,0.298,5.625,0.206c2.216-0.108,4.43-0.286,6.544-1.061c0.776-0.284,1.511-0.638,2.183-1.116
		c1.567-1.117,2.111-2.694,2.016-4.548c-0.011-0.218-0.109-0.471,0.083-0.624c0.227-0.181,0.461,0.01,0.662,0.117
		c2.629,1.411,4.87,3.272,6.617,5.719c-0.371-0.741-0.8-1.44-1.273-2.114c-0.099-0.142-0.263-0.314-0.112-0.479
		c0.149-0.163,0.335-0.015,0.488,0.066c0.747,0.398,1.378,0.939,1.973,1.619c-0.578-1.416-1.283-2.677-2.413-3.66
		c-0.137-0.12-0.4-0.253-0.238-0.464c0.142-0.184,0.374-0.019,0.546,0.066c1.641,0.805,3.141,1.836,4.606,2.919
		c3.539,2.618,6.873,5.492,10.293,8.259c4.525,3.66,9.654,6.019,15.425,6.901c3.408,0.521,6.777,0.389,10.045-0.829
		c1.576-0.587,3.017-1.421,4.087-2.741c1.156-1.427,1.178-2.892,0.191-4.441c-0.054-0.084-0.12-0.162-0.162-0.252
		c-0.059-0.124-0.156-0.266-0.046-0.389c0.139-0.155,0.3-0.044,0.432,0.035c0.711,0.427,1.27,1.031,1.848,1.613
		c0.085,0.085,0.167,0.173,0.353,0.355c-0.561-1.477-1.242-2.74-2.088-3.916c-0.62-0.861-1.302-1.672-1.984-2.483
		c-0.129-0.153-0.405-0.318-0.206-0.541c0.151-0.169,0.375,0.005,0.544,0.102c1.831,1.046,3.504,2.305,5.065,3.722
		c2.971,2.697,4.844,6.131,6.518,9.692c1.338,2.845,2.405,5.8,3.351,8.797C147.945,176.946,148.147,177.223,147.927,177.525z"/>
	<path style="fill:#FFFFFF;" d="M147.927,177.525c-0.19-0.922-0.538-1.795-0.834-2.683c-1.077-3.226-2.362-6.366-3.953-9.375
		c-1.019-1.928-2.124-3.807-3.578-5.448c-1.25-1.41-2.644-2.666-4.173-3.772c-0.843-0.61-1.711-1.179-2.612-1.698
		c-0.113-0.065-0.21-0.193-0.418-0.121c1.91,2.144,3.667,4.365,4.492,7.176c-0.911-0.777-1.663-1.733-2.759-2.3
		c-0.036,0.175,0.059,0.257,0.126,0.346c1.517,2.033,0.954,4.119-0.798,5.621c-1.779,1.525-3.88,2.346-6.154,2.768
		c-1.495,0.278-3.008,0.415-4.527,0.339c-1.753-0.088-3.494-0.305-5.206-0.713c-4.921-1.174-9.328-3.388-13.248-6.574
		c-2.573-2.091-5.095-4.245-7.709-6.285c-1.969-1.537-3.947-3.063-6.123-4.306c-0.431-0.246-0.878-0.463-1.358-0.656
		c1.404,1.187,2.269,2.704,2.831,4.428c-0.796-0.776-1.593-1.536-2.744-2.065c0.699,1.041,1.369,1.944,1.673,3.056
		c-1.033-1.271-2.076-2.517-3.333-3.569c-1.261-1.054-2.612-1.96-4.068-2.684c-0.125,0.115-0.102,0.218-0.091,0.311
		c0.342,2.929-1.05,4.542-2.85,5.5c-1.373,0.731-2.853,1.112-4.382,1.348c-2.04,0.316-4.093,0.401-6.15,0.332
		c-1.015-0.034-2.034-0.059-3.045-0.195c-0.254-0.034-0.517-0.006-0.776-0.006c-0.767-0.121-1.507-0.346-2.241-0.625
		c0.672,0.064,1.343,0.144,2.017,0.188c2.404,0.157,4.796,0.133,7.14-0.536c1.798-0.513,3.263-1.481,4.279-3.079
		c1.299-2.044,1.049-4.194-0.562-6.006c-0.18-0.203-0.406-0.366-0.642-0.574c0.443-0.169,0.87-0.234,1.293-0.307
		c2.374-0.412,4.696-0.158,6.989,0.535c3.547,1.072,6.826,2.709,9.958,4.663c1.154,0.72,2.277,1.486,3.357,2.314
		c2.873,2.202,5.83,4.291,8.785,6.378c3.486,2.462,7.186,4.566,11.239,5.978c1.954,0.68,3.956,1.137,6.041,1.123
		c1.942-0.013,3.756-0.487,5.402-1.54c0.051-0.086,0.095-0.179,0.173-0.243c1.195-0.998,1.289-2.28,0.91-3.659
		c-0.375-1.365-1.12-2.547-1.892-3.726c-0.263,0.141-0.3,0.401-0.442,0.583c-0.135,0.172-0.236,0.375-0.405,0.517
		c-0.242,0.204-0.515,0.522-0.824,0.383c-0.347-0.157-0.198-0.563-0.149-0.868c0.125-0.785-0.022-1.579,0.078-2.18
		c-0.315,0.975-0.861,2.039-1.483,3.06c-0.643,1.056-1.292,2.111-2.414,2.769c-1.347,0.79-2.827,1.068-4.347,1.217
		c-0.178,0.018-0.356-0.04-0.517-0.128c-0.566-0.298-1.033-0.72-1.581-1.19c0.764-0.11,1.438-0.149,2.092-0.311
		c3.902-0.966,6.231-3.478,7.175-7.332c0.506-2.064,0.497-4.161,0.304-6.262c-0.06-0.648-0.146-1.293-0.219-1.93
		c0.182-0.059,0.278,0.034,0.379,0.087c5.964,3.111,11.166,7.156,15.285,12.518c1.988,2.588,3.43,5.484,4.664,8.488
		c1.468,3.575,2.586,7.261,3.445,11.027c0.017,0.076,0.02,0.156,0.036,0.286C148.924,177.861,148.422,177.71,147.927,177.525z"/>
	<path style="fill:#848482;" d="M55.031,94.928c1.977,0.068,3.955-0.044,5.931,0.101c0.498,0.037,1,0.005,1.5,0.026
		c0.31,0.013,0.421-0.145,0.471-0.417c0.194-1.059,0.399-2.115,0.597-3.174c0.343-1.842,0.684-3.685,1.025-5.527
		c0.465-2.509,0.93-5.017,1.395-7.526c0.247-1.333,0.491-2.666,0.748-3.997c0.028-0.147,0.038-0.317,0.209-0.476
		c0.399,0.272,0.81,0.544,1.213,0.828c2.907,2.053,5.806,4.117,8.723,6.154c0.44,0.308,0.634,0.582,0.548,1.168
		c-0.141,0.964-0.139,1.951-0.17,2.929c-0.018,0.582-0.189,1.044-0.608,1.491c-2.761,2.946-5.479,5.933-8.156,8.957
		c-0.967,1.093-1.938,2.182-2.909,3.271c-0.303,0.34-0.321,0.344-0.831,0.143c-2.192-0.867-4.382-1.738-6.574-2.605
		c-1.037-0.41-2.077-0.816-3.115-1.223C55.028,95.009,55.029,94.968,55.031,94.928z"/>
	<path style="fill:#FFFFFF;" d="M63.221,101.357c-0.751,0.864-1.498,1.719-2.24,2.579c-0.131,0.152-0.259,0.129-0.425,0.06
		c-0.591-0.243-1.189-0.471-1.783-0.706c-12.877-5.087-25.755-10.171-38.627-15.27c-0.411-0.163-0.697-0.116-1.031,0.144
		c-0.701,0.547-1.299,1.182-1.818,1.9c-0.61,0.843-1.146,1.733-1.677,2.636c-0.197-0.076-0.109-0.239-0.102-0.353
		c0.125-2.11,0.629-4.101,1.841-5.874c0.452-0.661,0.91-1.315,1.425-1.929c0.366-0.437,0.367-0.437,0.884-0.235
		c3.723,1.452,7.445,2.905,11.168,4.355c10.592,4.127,21.185,8.252,31.776,12.38C62.811,101.122,63.037,101.154,63.221,101.357z"/>
	<path style="fill:#848482;" d="M63.514,71.44c-0.309-0.296-0.607-0.579-0.902-0.866c-0.091-0.088-0.118-0.199-0.103-0.328
		c0.131-1.188,0.259-2.377,0.385-3.565c0.095-0.892,0.19-1.784,0.278-2.676c0.092-0.932,0.171-1.866,0.267-2.798
		c0.045-0.438,0.149-0.502,0.584-0.445c1.797,0.238,3.595,0.468,5.391,0.712c2.23,0.302,4.458,0.624,6.69,0.921
		c1.975,0.263,3.953,0.503,5.929,0.757c0.514,0.066,1.024,0.155,1.538,0.222c0.216,0.028,0.262,0.131,0.213,0.327
		c-0.253,1.025-0.508,2.05-0.747,3.079c-0.065,0.278-0.218,0.343-0.473,0.31c-1.087-0.138-2.175-0.269-3.263-0.403
		c-1.167-0.144-2.333-0.286-3.5-0.431c-1.147-0.142-2.293-0.289-3.44-0.43c-1.107-0.137-2.215-0.268-3.323-0.403
		c-0.91-0.111-1.82-0.219-2.728-0.339c-0.542-0.072-0.571-0.065-0.757,0.488c-0.591,1.759-1.178,3.519-1.769,5.279
		C63.726,71.034,63.696,71.233,63.514,71.44z"/>
	<path style="fill:#FFFFFF;" d="M174.328,152.069c3.393,0.045,7.73,1.575,9.534,3.805c-0.014,0.072-0.072,0.1-0.131,0.099
		c-1.838-0.027-3.548,0.5-5.213,1.21c-2.014,0.858-3.856,2.015-5.633,3.282c-3.486,2.487-6.762,5.236-9.992,8.043
		c-0.148,0.129-0.301,0.252-0.496,0.356c0.297-1.255,0.581-2.503,0.978-3.721c2.255-2.5,4.265-5.232,6.982-7.347
		c-0.185,0.047-0.32,0.118-0.465,0.144c-0.199,0.036-0.468,0.233-0.58-0.038c-0.095-0.231,0.179-0.37,0.355-0.494
		c1.281-0.899,2.646-1.64,4.12-2.175c-0.96,0.003-1.917-0.031-2.862,0.146c-0.186,0.035-0.461,0.127-0.527-0.107
		c-0.061-0.219,0.216-0.305,0.387-0.385c1.919-0.889,3.884-1.598,6.047-1.526c0.116,0.004,0.24,0.036,0.376-0.049
		c-0.726-0.475-1.524-0.714-2.342-0.913C174.665,152.353,174.357,152.418,174.328,152.069z"/>
	<path style="fill:#FFFFFF;" d="M48.718,118.546c-0.58,0.724-1.113,1.371-1.621,2.036c-0.194,0.254-0.406,0.191-0.64,0.129
		c-1.64-0.438-3.28-0.875-4.919-1.312c-6.732-1.798-13.466-3.591-20.194-5.404c-0.597-0.161-1.094-0.072-1.589,0.253
		c-0.577,0.38-1.022,0.89-1.439,1.431c-0.058,0.075-0.117,0.149-0.255,0.325c0-0.257-0.019-0.405,0.003-0.546
		c0.225-1.48,0.705-2.867,1.531-4.124c0.303-0.461,0.31-0.46,0.868-0.312c9.245,2.451,18.489,4.903,27.733,7.356
		C48.346,118.418,48.492,118.473,48.718,118.546z"/>
	<path style="fill:#97B2D4;" d="M117.902,162.535c1.074-0.077,2.137-0.203,3.176-0.508c1.594-0.467,2.761-1.442,3.624-2.85
		c0.794-1.297,1.479-2.64,2.101-4.066c0,0.377,0.002,0.754-0.001,1.13c-0.003,0.379-0.017,0.759-0.013,1.138
		c0.004,0.398-0.182,0.782-0.073,1.236c0.868-0.285,1.205-1.021,1.542-1.75c0.201-0.014,0.219,0.159,0.288,0.261
		c0.775,1.142,1.489,2.318,1.878,3.657c0.26,0.895,0.375,1.798-0.003,2.694c-0.246,0.583-0.629,1.049-1.207,1.335
		c-0.088-0.171-0.239-0.108-0.368-0.089c-1.286,0.188-2.579,0.224-3.875,0.192c-2.474-0.062-4.743-0.769-6.798-2.152
		C118.076,162.697,117.992,162.611,117.902,162.535z"/>
	<path style="fill:#97B2D4;" d="M174.328,152.069c0.268,0.198,0.6,0.167,0.9,0.25c0.773,0.215,1.519,0.486,2.189,0.939
		c0.078,0.053,0.185,0.08,0.19,0.282c-2.564-0.226-4.888,0.558-7.12,1.731c1.236-0.252,2.479-0.213,3.742-0.121
		c-0.519,0.343-1.13,0.485-1.676,0.763c-0.552,0.28-1.112,0.543-1.638,0.871c-0.538,0.336-1.083,0.66-1.627,1.138
		c0.52-0.049,0.9-0.321,1.352-0.311c0.019,0.219-0.152,0.283-0.262,0.37c-1.591,1.256-2.959,2.732-4.273,4.266
		c-0.74,0.864-1.452,1.753-2.265,2.552c-0.137,0.134-0.232,0.335-0.464,0.347c0.28-1.348,0.689-2.662,1.037-3.992
		c0.612-2.333,1.261-4.657,1.869-6.991c0.108-0.417,0.318-0.619,0.713-0.763c1.54-0.561,3.086-1.091,4.727-1.258
		c0.753-0.077,1.512-0.103,2.268-0.148C174.106,151.984,174.231,151.974,174.328,152.069z"/>
	<path style="fill:#FFFFFF;" d="M111.825,95.207c-0.274-0.983-0.536-1.922-0.797-2.861c-0.433-1.558-0.856-3.12-1.308-4.673
		c-0.094-0.321-0.071-0.505,0.233-0.686c0.497-0.297,0.964-0.643,1.445-0.967c0.422-0.283,0.424-0.284,0.817,0.008
		c0.641,0.477,1.28,0.956,1.909,1.426c0.196-0.065,0.171-0.226,0.202-0.353c0.25-1.008,0.505-2.015,0.739-3.027
		c0.073-0.314,0.217-0.524,0.511-0.68c0.577-0.305,1.132-0.65,1.76-1.016c0.16,0.67,0.306,1.265,0.444,1.861
		c0.473,2.043,0.944,4.086,1.416,6.129c0.134,0.578,0.135,0.578-0.376,0.882c-0.445,0.265-0.891,0.528-1.407,0.834
		c-0.397-1.328-0.783-2.618-1.21-4.045c-0.384,1.03-0.72,1.929-1.07,2.869c-0.758-0.303-1.41-0.759-2.152-1.092
		c-0.031,0.404,0.112,0.742,0.184,1.088c0.188,0.899,0.387,1.796,0.611,2.687c0.075,0.299,0.04,0.475-0.247,0.628
		C112.966,94.523,112.423,94.859,111.825,95.207z"/>
	<path style="fill:#FFFFFF;" d="M133.552,83.974c-0.084-0.706-0.174-1.412-0.251-2.121c-0.261-2.404-0.507-4.809-0.788-7.211
		c-0.041-0.349,0.054-0.496,0.346-0.641c1.003-0.496,1.992-1.018,2.988-1.529c1.166-0.599,2.499-0.191,3.133,0.959
		c0.225,0.408,0.355,0.85,0.409,1.308c0.129,1.093,0.183,2.191,0.147,3.293c-0.039,1.183-0.44,2.228-1.229,3.112
		c-0.616,0.69-1.293,1.297-2.165,1.667c-0.698,0.297-1.37,0.654-2.056,0.979C133.927,83.867,133.781,83.987,133.552,83.974z"/>
	<path style="fill:#FFFFFF;" d="M148.08,67.213c0.134,0.199,0.161,0.398,0.21,0.59c0.776,3.018,1.554,6.036,2.331,9.054
		c0.02,0.077,0.035,0.156,0.061,0.232c0.085,0.246,0.055,0.395-0.243,0.482c-0.594,0.173-1.177,0.384-1.757,0.602
		c-0.22,0.083-0.33,0.05-0.398-0.179c-0.085-0.287-0.191-0.568-0.287-0.852c-0.057-0.166-0.131-0.285-0.344-0.202
		c-0.595,0.233-1.192,0.461-1.793,0.68c-0.184,0.067-0.22,0.209-0.26,0.366c-0.083,0.329-0.184,0.655-0.254,0.987
		c-0.054,0.257-0.166,0.417-0.436,0.499c-0.572,0.173-1.134,0.382-1.695,0.574c-0.14-0.137-0.05-0.269-0.022-0.397
		c0.814-3.708,1.633-7.414,2.438-11.124c0.067-0.307,0.181-0.489,0.491-0.592C146.782,67.714,147.43,67.455,148.08,67.213z"/>
	<path style="fill:#FFFFFF;" d="M108.221,97.557c-0.7,0.479-1.356,0.927-2.012,1.377c-0.172,0.118-0.337,0.074-0.509-0.005
		c-0.258-0.118-0.472-0.297-0.693-0.468c-0.157-0.122-0.311-0.256-0.487-0.344c-0.22-0.11-0.5-0.162-0.684,0.003
		c-0.185,0.166,0.046,0.359,0.115,0.529c0.15,0.369,0.325,0.729,0.489,1.093c0.07,0.154,0.102,0.291-0.071,0.418
		c-0.639,0.469-1.271,0.949-1.895,1.417c-0.198-0.126-0.207-0.3-0.26-0.44c-0.801-2.108-1.595-4.218-2.391-6.328
		c-0.186-0.494-0.189-0.501,0.233-0.825c0.808-0.62,1.619-1.237,2.435-1.846c0.368-0.275,0.758-0.517,1.185-0.696
		c1.42-0.596,2.849,0.284,2.973,1.831c0.063,0.779-0.106,1.515-0.458,2.2c-0.161,0.313-0.132,0.477,0.16,0.681
		C106.972,96.584,107.562,97.058,108.221,97.557z"/>
	<path style="fill:#FFFFFF;" d="M83.854,60.885c-6.071-0.922-12.041-1.828-18.061-2.742c0.741-0.748,1.432-1.433,2.106-2.133
		c0.176-0.183,0.358-0.217,0.591-0.181c1.401,0.215,2.804,0.422,4.206,0.632c2.567,0.385,5.134,0.769,7.701,1.154
		c0.75,0.113,1.499,0.237,2.251,0.336c0.244,0.032,0.393,0.1,0.465,0.364C83.335,59.143,83.585,59.963,83.854,60.885z"/>
	<path style="fill:#FFFFFF;" d="M122.756,89.142c0.128-1.248,0.241-2.378,0.362-3.507c0.227-2.126,0.472-4.25,0.677-6.378
		c0.048-0.504,0.181-0.843,0.687-1.053c0.606-0.251,1.172-0.598,1.745-0.898c0.163,0.112,0.198,0.276,0.262,0.419
		c1.106,2.459,2.209,4.92,3.317,7.378c0.207,0.459,0.239,0.432-0.223,0.661c-0.501,0.248-1.005,0.493-1.501,0.75
		c-0.194,0.1-0.334,0.086-0.44-0.115c-0.028-0.053-0.066-0.1-0.101-0.149c-0.484-0.691-0.484-0.691-1.21-0.308
		c-0.053,0.028-0.105,0.057-0.158,0.086c-0.366,0.202-0.806,0.336-1.078,0.627c-0.26,0.279-0.202,0.754-0.269,1.144
		c-0.045,0.262-0.163,0.423-0.407,0.534C123.895,88.572,123.383,88.835,122.756,89.142z"/>
	<path style="fill:#FFFFFF;" d="M99.216,103.797c-0.642,0.493-1.245,0.95-1.84,1.417c-0.19,0.15-0.32,0.049-0.476-0.054
		c-0.584-0.386-0.586-0.382-1.143,0.035c-0.352,0.263-0.696,0.538-1.058,0.786c-0.221,0.151-0.341,0.332-0.301,0.598
		c0.103,0.678-0.21,1.116-0.763,1.471c-0.435,0.279-0.82,0.635-1.229,0.954c-0.023,0.018-0.073,0.002-0.144,0.002
		c-0.045-0.928-0.094-1.858-0.133-2.788c-0.076-1.796-0.14-3.593-0.227-5.388c-0.015-0.307,0.046-0.52,0.305-0.713
		c0.545-0.405,1.069-0.838,1.589-1.274c0.188-0.157,0.309-0.169,0.493,0.017C95.906,100.491,97.532,102.113,99.216,103.797z"/>
	<path style="fill:#FFFFFF;" d="M37.728,132.7c-0.42,0.57-0.855,1.16-1.291,1.75c-0.154,0.208-0.368,0.114-0.554,0.09
		c-0.931-0.123-1.86-0.258-2.789-0.39c-2.729-0.387-5.458-0.773-8.187-1.16c-0.376-0.053-0.762-0.066-1.125-0.165
		c-0.559-0.152-0.925,0.079-1.233,0.499c-0.069,0.094-0.136,0.189-0.281,0.39c-0.054-0.556-0.07-0.998,0.029-1.439
		c0.114-0.508,0.304-0.991,0.479-1.48c0.104-0.291,0.262-0.347,0.542-0.305c1.461,0.223,2.924,0.433,4.386,0.645
		c2.352,0.341,4.704,0.681,7.057,1.021c0.909,0.131,1.819,0.259,2.729,0.388C37.57,132.556,37.649,132.57,37.728,132.7z"/>
	<path style="fill:#FFFFFF;" d="M77.334,54.457c-1.026-0.183-2.003-0.37-2.985-0.523c-0.31-0.048-0.396-0.15-0.338-0.462
		c0.338-1.823,0.659-3.65,0.986-5.475c0.092-0.51,0.209-1.017,0.273-1.53c0.039-0.31,0.166-0.334,0.435-0.288
		c0.688,0.117,1.382,0.199,2.072,0.301c0.196,0.029,0.386,0.039,0.354,0.351c-0.248,2.421-0.48,4.844-0.719,7.266
		C77.403,54.195,77.371,54.29,77.334,54.457z"/>
	<path style="fill:#FFFFFF;" d="M49.291,63.771c0.39-0.282,0.719-0.505,1.032-0.75c0.195-0.153,0.405-0.141,0.624-0.125
		c1.93,0.141,3.86,0.282,5.79,0.424c0.577,0.042,1.154,0.089,1.731,0.13c0.552,0.039,0.76,0.529,1.097,0.846
		c0.088,0.083-0.034,0.174-0.112,0.233c-0.364,0.279-0.734,0.551-1.092,0.838c-0.174,0.14-0.358,0.135-0.563,0.12
		c-2.169-0.153-4.339-0.299-6.508-0.449c-0.179-0.012-0.358-0.045-0.536-0.046c-0.279-0.002-0.487-0.109-0.664-0.329
		C49.851,64.371,49.586,64.099,49.291,63.771z"/>
	<path style="fill:#FEFEFE;" d="M87.804,68.547c0.44-0.248,0.856-0.481,1.27-0.718c0.148-0.084,0.292-0.082,0.459-0.055
		c1.458,0.237,2.917,0.462,4.376,0.693c0.033,0.005,0.061,0.044,0.161,0.121c-0.355,0.269-0.689,0.534-1.035,0.782
		c-0.372,0.266-0.684,0.702-1.123,0.764c-0.409,0.058-0.855-0.142-1.284-0.23c-0.235-0.048-0.466-0.128-0.703-0.144
		C89.051,69.699,88.384,69.276,87.804,68.547z"/>
	<path style="fill:#FFFFFF;" d="M120.082,101.211c2.252-0.232,4.22,0.275,6.247,1.243c-0.54,0.035-0.948,0.061-1.469,0.094
		c1.113,1.417,2.099,2.793,2.832,4.326c0.735,1.535,1.293,3.137,1.757,4.82c0.421-0.068,0.766-0.271,1.133-0.401
		c0.49-0.173,0.974-0.362,1.457-0.555c0.44-0.175,0.448-0.192,0.36-0.668c-0.276-1.493-0.556-2.986-0.836-4.479
		c-0.268-1.433-0.537-2.866-0.806-4.298c-0.029-0.155-0.022-0.324-0.192-0.445c-0.759,0.296-1.49,0.724-2.38,0.844
		c0.992-1.783,1.335-3.715,1.838-5.594c0.222-0.829,0.415-1.666,0.62-2.496c0.144,0.014,0.182,0.112,0.232,0.192
		c1.219,1.93,2.837,3.508,4.477,5.066c0.207,0.196,0.488,0.253,0.757,0.439c-0.787,0.383-1.586,0.517-2.382,0.661
		c-0.482,0.087-0.483,0.087-0.399,0.56c0.537,3.009,1.074,6.019,1.612,9.028c0.098,0.548,0.098,0.534,0.647,0.462
		c0.832-0.11,1.668-0.216,2.509-0.127c0.304,0.032,0.384-0.069,0.375-0.357c-0.023-0.78-0.029-1.56-0.034-2.34
		c-0.018-3.024,0.408-5.976,1.441-8.829c0.033-0.092,0.056-0.189,0.104-0.353c-0.614,0.169-1.087,0.542-1.752,0.775
		c1.989-2.616,4.487-4.439,7.238-6.038c0.071,0.289-0.099,0.454-0.195,0.628c-0.997,1.805-1.883,3.66-2.666,5.568
		c-1.593,3.877-2.004,7.918-1.747,12.06c0.001,0.02,0.002,0.04,0.004,0.06c0.025,0.331,0.239,0.725,0.009,0.974
		c-0.204,0.221-0.609,0.074-0.924,0.09c-1.378,0.068-2.752,0.185-4.121,0.358c-0.395,0.05-0.403,0.058-0.333,0.444
		c0.357,1.965,0.716,3.93,1.074,5.896c0.064,0.354,0.123,0.709,0.188,1.062c0.042,0.23,0.009,0.376-0.277,0.406
		c-0.556,0.058-1.107,0.162-1.663,0.226c-0.489,0.056-0.495,0.044-0.585-0.439c-0.281-1.512-0.559-3.024-0.837-4.537
		c-0.126-0.687-0.247-1.376-0.374-2.063c-0.074-0.404-0.079-0.409-0.515-0.305c-1.169,0.276-2.303,0.668-3.438,1.053
		c-0.764,0.259-0.755,0.259-0.965-0.495c-0.413-1.485-0.925-2.933-1.527-4.353c-0.935-2.205-2.324-4.096-3.957-5.823
		C121.86,102.741,121.048,101.976,120.082,101.211z"/>
	<path style="fill:#1F2E41;" d="M135.575,79.817c-0.159-0.411-0.127-0.817-0.178-1.209c-0.109-0.832-0.213-1.664-0.297-2.499
		c-0.046-0.454-0.124-0.443,0.398-0.65c0.093-0.037,0.183-0.081,0.275-0.118c0.625-0.246,0.97-0.084,1.099,0.561
		c0.15,0.745,0.209,1.503,0.228,2.264c0.009,0.358-0.132,0.663-0.365,0.925C136.426,79.44,136.043,79.673,135.575,79.817z"/>
	<path style="fill:#263547;" d="M146.811,71.911c0.161,0.738,0.317,1.478,0.485,2.215c0.055,0.24-0.001,0.374-0.257,0.43
		c-0.25,0.055-0.492,0.147-0.81,0.245C146.372,73.792,146.526,72.84,146.811,71.911z"/>
	<path style="fill:#213042;" d="M103.178,96.209c-0.17-0.481-0.311-0.893-0.462-1.302c-0.054-0.147-0.047-0.264,0.079-0.372
		c0.258-0.222,0.53-0.426,0.861-0.519c0.383-0.107,0.666,0.103,0.709,0.501c0.024,0.228-0.043,0.435-0.157,0.625
		C103.959,95.554,103.639,95.899,103.178,96.209z"/>
	<path style="fill:#253446;" d="M125.474,81.523c0.243,0.628,0.482,1.257,0.73,1.884c0.066,0.165,0.016,0.265-0.134,0.333
		c-0.287,0.131-0.573,0.263-0.921,0.422c0.077-0.926,0.147-1.776,0.217-2.626C125.402,81.532,125.438,81.527,125.474,81.523z"/>
	<path style="fill:#253446;" d="M94.174,104.325c-0.093-0.789-0.275-1.455-0.278-2.285c0.478,0.554,0.872,1.011,1.276,1.478
		C94.895,103.846,94.56,104.043,94.174,104.325z"/>
</g>
</svg>
