<?xml version="1.0" encoding="utf-8"?>
<!-- Generator: Adobe Illustrator 24.1.0, SVG Export Plug-In . SVG Version: 6.00 Build 0)  -->
<svg version="1.1" id="Layer_1" xmlns="http://www.w3.org/2000/svg" xmlns:xlink="http://www.w3.org/1999/xlink" x="0px" y="0px"
	 viewBox="0 0 200 200" style="enable-background:new 0 0 200 200;" xml:space="preserve">
<path style="fill:#F8F6F7;" d="M40.937,73.541c1.65,4.037,3.2,8.036,4.84,12.039c0.312-0.183,0.365-0.465,0.479-0.696
	c1.98-4.027,3.955-8.057,5.93-12.087C59.469,57.938,66.75,43.08,74.033,28.221c0.12-0.245,0.251-0.486,0.376-0.729
	c0.309,0.099,0.334,0.38,0.435,0.587c2.354,4.795,4.699,9.594,7.047,14.392c4.949,10.115,9.899,20.229,14.849,30.344
	c0.048,0.099,0.088,0.203,0.145,0.297c0.083,0.136,0.104,0.359,0.287,0.37c0.244,0.015,0.258-0.243,0.335-0.401
	c1.753-3.586,3.502-7.176,5.251-10.764c0.109-0.223,0.211-0.449,0.328-0.667c0.101-0.188,0.137-0.512,0.34-0.52
	c0.278-0.011,0.305,0.337,0.41,0.543c2.727,5.378,5.447,10.759,8.173,16.138c0.132,0.261,0.218,0.555,0.505,0.803
	c1.535-3.059,3.003-6.106,4.493-9.142c1.492-3.04,2.976-6.084,4.473-9.122c1.495-3.034,2.96-6.083,4.48-9.12
	c0.302,0.195,0.362,0.478,0.479,0.717c2.086,4.251,4.168,8.505,6.249,12.759c3.606,7.37,7.21,14.74,10.822,22.107
	c0.113,0.23,0.154,0.627,0.456,0.603c0.269-0.021,0.32-0.407,0.436-0.644c1.344-2.745,2.679-5.494,4.017-8.241
	c0.108-0.223,0.22-0.444,0.336-0.663c0.054-0.102,0.208-0.101,0.264,0.002c0.119,0.217,0.231,0.438,0.343,0.66
	c1.691,3.341,3.38,6.683,5.071,10.024c0.4,0.79,0.402,0.793,1.31,0.655c2.013-0.306,4.023-0.636,6.04-0.916
	c1.608-0.223,3.224-0.401,4.839-0.572c1.506-0.16,3.014-0.295,4.524-0.42c1.07-0.088,2.143-0.155,3.215-0.208
	c3.744-0.183,7.49-0.219,11.234-0.006c3.301,0.188,6.583,0.557,9.834,1.173c0.215,0.041,0.426,0.105,0.635,0.158
	c-0.003,0.184-0.134,0.238-0.247,0.307c-6.941,4.25-13.19,9.375-19.012,15.04c-2.766,2.691-5.388,5.518-7.874,8.47
	c-0.135,0.16-0.426,0.327-0.312,0.532c0.138,0.246,0.445,0.08,0.666,0.033c2.666-0.567,5.352-1.025,8.052-1.39
	c3.851-0.522,7.721-0.835,11.61-0.831c2.867,0.003,5.725,0.19,8.559,0.645c0.835,0.134,1.682,0.239,2.493,0.51
	c-0.045,0.178-0.177,0.234-0.29,0.309c-5.448,3.601-9.945,8.17-13.687,13.496c-3.877,5.517-6.564,11.573-8.113,18.134
	c-0.063,0.268-0.12,0.538-0.17,0.808c-0.034,0.188,0.106,0.315,0.298,0.261c0.237-0.067,0.472-0.147,0.701-0.24
	c2.032-0.826,3.867-1.98,5.582-3.335c0.346-0.273,0.677-0.564,1.019-0.842c0.078-0.063,0.148-0.164,0.279-0.111
	c0.072,0.204-0.045,0.369-0.118,0.542c-0.842,2.003-2.161,3.635-3.879,4.95c-1.168,0.894-2.455,1.568-3.842,2.06
	c-0.255,0.091-0.54,0.122-0.754,0.313c-0.016,0.014-0.011,0.053-0.023,0.121c1.575,0.023,3.112-0.18,4.624-0.606
	c0.039,0.239-0.116,0.332-0.222,0.444c-0.651,0.688-1.423,1.214-2.259,1.648c-1.332,0.691-2.752,1.115-4.229,1.347
	c-1.775,0.278-3.555,0.334-5.353,0.215c-3-0.198-5.967-0.619-8.92-1.158c-2.003-0.365-4-0.763-5.999-1.152
	c-0.252-0.049-0.476-0.053-0.709,0.093c-2.257,1.402-4.668,2.466-7.197,3.271c-0.069,0.022-0.169,0.034-0.166,0.207
	c1.445,0.068,2.874-0.116,4.305-0.3c1.445-0.187,2.845-0.571,4.283-0.987c-0.112,0.38-0.377,0.553-0.591,0.757
	c-0.961,0.917-2.037,1.684-3.179,2.357c-2.418,1.425-5.022,2.369-7.753,2.976c-2.48,0.552-4.993,0.838-7.536,0.86
	c-2.591,0.023-5.174-0.086-7.756-0.317c-4.226-0.378-8.421-0.971-12.606-1.65c-5.434-0.881-10.835-1.938-16.24-2.972
	c-3.027-0.579-6.061-1.121-9.098-1.646c-1.546-0.267-3.107-0.436-4.672-0.564c-1.701-0.139-3.401-0.303-5.104-0.419
	c-1.319-0.09-2.641-0.14-3.962-0.177c-2.672-0.076-5.342-0.049-8.013,0.076c-2.229,0.104-4.452,0.272-6.672,0.488
	c-1.946,0.189-3.885,0.437-5.816,0.735c-3.428,0.528-6.827,1.209-10.197,2.034c-6.589,1.615-12.996,3.776-19.242,6.418
	c-0.221,0.093-0.426,0.253-0.774,0.193c2.453-2.343,5.006-4.473,7.701-6.436c2.671-1.946,5.468-3.683,8.482-5.008
	c-0.035-0.238-0.173-0.19-0.264-0.192c-1.57-0.035-3.137-0.025-4.707,0.085c-5.203,0.364-10.325,1.245-15.419,2.323
	c-6.978,1.476-13.848,3.359-20.659,5.466c-0.354,0.109-0.7,0.263-1.083,0.274c0.113-0.176,0.299-0.248,0.466-0.338
	c4.064-2.208,8.152-4.37,12.394-6.224c1.615-0.706,3.239-1.384,4.962-1.791c0.25-0.059,0.297-0.199,0.143-0.417
	c-0.174-0.248-0.361-0.487-0.544-0.728c-2.987-3.922-5.974-7.844-8.962-11.766c-0.083-0.11-0.172-0.215-0.256-0.325
	c-0.094-0.123-0.089-0.246-0.012-0.379c0.11-0.19,0.209-0.388,0.312-0.582c8.143-15.316,16.285-30.633,24.429-45.948
	c2.495-4.692,4.993-9.383,7.492-14.072C40.552,74.068,40.636,73.798,40.937,73.541z M180.796,144.737
	c-0.679,0.298-1.354,0.608-2.04,0.888c-0.303,0.124-0.625,0.226-0.948,0.275c-0.686,0.103-1.181-0.347-1.177-1.042
	c0.001-0.163,0.032-0.329,0.068-0.49c0.329-1.477,0.697-2.944,1.137-4.393c0.953-3.142,2.182-6.172,3.705-9.079
	c1.524-2.908,3.302-5.656,5.325-8.244c2.007-2.567,4.211-4.948,6.641-7.119c1.11-0.992,2.257-1.937,3.443-2.835
	c0.135-0.103,0.359-0.162,0.327-0.403c-0.067-0.033-0.111-0.069-0.159-0.076c-2.595-0.349-5.2-0.557-7.821-0.565
	c-2.813-0.009-5.617,0.127-8.414,0.406c-1.588,0.159-3.171,0.364-4.751,0.597c-1.851,0.272-3.695,0.581-5.529,0.95
	c-0.675,0.135-1.348,0.277-2.025,0.4c-0.621,0.113-1.017-0.021-1.224-0.431c-0.233-0.463-0.176-0.905,0.175-1.298
	c0.055-0.062,0.108-0.125,0.161-0.188c3.167-3.785,6.545-7.372,10.144-10.75c4.668-4.381,9.628-8.395,14.967-11.933
	c0.115-0.076,0.231-0.151,0.336-0.239c0.032-0.027,0.048-0.1,0.037-0.144c-0.01-0.041-0.062-0.097-0.101-0.102
	c-0.627-0.086-1.257-0.153-1.882-0.247c-2.318-0.35-4.655-0.497-6.993-0.581c-3.469-0.124-6.937-0.089-10.406,0.103
	c-1.816,0.1-3.628,0.236-5.437,0.403c-1.781,0.165-3.555,0.405-5.333,0.604c-1.861,0.208-3.709,0.503-5.558,0.793
	c-0.761,0.12-1.518,0.272-2.282,0.365c-0.768,0.094-1.059-0.076-1.4-0.743c-0.576-1.127-1.141-2.26-1.711-3.39
	c-0.954-1.891-1.907-3.784-2.869-5.671c-0.079-0.155-0.098-0.39-0.374-0.409c-0.049,0.086-0.107,0.176-0.154,0.271
	c-0.976,2.004-1.95,4.008-2.925,6.012c-0.265,0.544-0.532,1.088-0.803,1.629c-0.153,0.306-0.372,0.547-0.716,0.638
	c-0.52,0.138-0.974-0.053-1.25-0.557c-0.237-0.434-0.441-0.887-0.659-1.332c-1.704-3.485-3.407-6.97-5.112-10.455
	c-1.366-2.793-2.736-5.584-4.102-8.378c-2.236-4.573-4.468-9.147-6.706-13.719c-0.107-0.218-0.186-0.46-0.391-0.619
	c-0.205,0.164-0.272,0.412-0.38,0.632c-0.957,1.952-1.905,3.908-2.862,5.859c-1.732,3.533-3.471,7.063-5.203,10.596
	c-1.308,2.668-2.609,5.34-3.914,8.01c-0.097,0.198-0.192,0.399-0.315,0.581c-0.277,0.41-0.769,0.551-1.239,0.394
	c-0.346-0.116-0.518-0.38-0.671-0.684c-0.891-1.769-1.79-3.535-2.683-5.303c-1.687-3.34-3.372-6.682-5.06-10.021
	c-0.046-0.091-0.074-0.205-0.213-0.243c-0.216,0.096-0.253,0.334-0.345,0.521c-1.366,2.793-2.725,5.589-4.086,8.384
	c-0.301,0.618-0.591,1.244-0.917,1.849c-0.431,0.8-1.504,0.692-1.883-0.019c-0.09-0.17-0.167-0.347-0.251-0.52
	c-2.058-4.201-4.118-8.4-6.174-12.602c-2.309-4.721-4.613-9.444-6.922-14.165c-1.571-3.213-3.146-6.425-4.719-9.638
	c-1.113-2.274-2.223-4.549-3.343-6.819c-0.1-0.202-0.143-0.466-0.432-0.578c-0.336,0.686-0.661,1.353-0.988,2.019
	c-2.084,4.249-4.171,8.497-6.253,12.747c-1.501,3.063-2.995,6.131-4.496,9.194c-2.664,5.436-5.331,10.87-7.995,16.305
	c-1.15,2.347-2.296,4.697-3.444,7.045c-1.221,2.496-2.444,4.991-3.667,7.486c-0.242,0.494-0.488,0.987-0.737,1.477
	c-0.142,0.278-0.34,0.499-0.654,0.59c-0.561,0.163-1.044-0.031-1.293-0.585c-0.282-0.626-0.518-1.274-0.774-1.912
	c-1.044-2.604-2.088-5.208-3.135-7.811c-0.054-0.133-0.064-0.314-0.274-0.344c-0.058,0.101-0.115,0.194-0.167,0.291
	c-1.486,2.794-2.97,5.589-4.457,8.383c-2.987,5.611-5.978,11.22-8.963,16.833c-2.79,5.248-5.569,10.502-8.36,15.75
	c-2.817,5.296-5.642,10.588-8.462,15.882c-0.272,0.51-0.53,1.027-0.805,1.535c-0.104,0.193-0.113,0.361,0.031,0.531
	c0.053,0.063,0.1,0.132,0.15,0.197c2.755,3.613,5.511,7.225,8.266,10.838c0.351,0.46,0.701,0.92,1.044,1.386
	c0.199,0.271,0.324,0.565,0.262,0.919c-0.088,0.502-0.405,0.774-0.875,0.87c-0.486,0.099-0.966,0.211-1.438,0.366
	c-2.095,0.69-4.091,1.615-6.09,2.534c-0.118,0.054-0.259,0.106-0.28,0.272c0.186,0.132,0.373,0.023,0.548-0.023
	c2.527-0.662,5.057-1.313,7.609-1.877c1.423-0.315,2.847-0.629,4.273-0.929c2.289-0.481,4.591-0.891,6.903-1.243
	c0.898-0.137,1.797-0.273,2.699-0.374c1.313-0.147,2.63-0.262,3.945-0.393c1.84-0.183,3.684-0.178,5.529-0.115
	c0.191,0.007,0.387,0.022,0.572,0.065c0.547,0.129,0.801,0.396,0.853,0.873c0.053,0.489-0.123,0.86-0.573,1.085
	c-0.098,0.049-0.198,0.095-0.299,0.139c-1.896,0.827-3.698,1.827-5.444,2.934c-1.886,1.196-3.679,2.52-5.43,3.902
	c-0.065,0.051-0.135,0.1-0.185,0.164c-0.051,0.066-0.194,0.108-0.106,0.228c0.133,0.049,0.228-0.016,0.329-0.053
	c1.835-0.666,3.676-1.312,5.536-1.908c3.984-1.277,8.021-2.35,12.114-3.218c3.124-0.663,6.267-1.203,9.434-1.618
	c2.459-0.323,4.925-0.555,7.397-0.73c3.41-0.241,6.825-0.263,10.241-0.191c1.569,0.033,3.138,0.106,4.704,0.212
	c1.785,0.121,3.568,0.283,5.349,0.457c1.123,0.109,2.245,0.243,3.359,0.418c1.685,0.265,3.364,0.564,5.042,0.871
	c2.3,0.421,4.597,0.862,6.894,1.296c1.541,0.291,3.079,0.595,4.621,0.879c2.3,0.423,4.6,0.844,6.903,1.244
	c1.79,0.311,3.582,0.611,5.378,0.877c2.26,0.335,4.523,0.64,6.795,0.89c2.903,0.32,5.811,0.557,8.731,0.614
	c2.788,0.055,5.558-0.136,8.301-0.661c2.776-0.532,5.416-1.442,7.892-2.813c0.127-0.07,0.331-0.089,0.312-0.341
	c-0.246,0.015-0.494,0.013-0.737,0.049c-1.175,0.174-2.361,0.172-3.544,0.213c-0.299,0.01-0.607-0.023-0.9-0.086
	c-0.35-0.075-0.565-0.323-0.651-0.674c-0.158-0.649,0.124-1.127,0.782-1.315c2.661-0.759,5.181-1.845,7.536-3.295
	c0.53-0.327,1.037-0.406,1.644-0.279c1.885,0.393,3.775,0.76,5.67,1.1c1.978,0.354,3.963,0.657,5.96,0.891
	c2.249,0.263,4.498,0.423,6.759,0.261c1.211-0.086,2.403-0.294,3.56-0.674c0.117-0.039,0.264-0.075,0.216-0.252
	c-0.306-0.038-0.614-0.044-0.903-0.119c-0.461-0.12-0.743-0.525-0.738-0.982c0.005-0.434,0.251-0.791,0.669-0.949
	c0.154-0.058,0.317-0.092,0.475-0.14c1.591-0.486,3.083-1.173,4.411-2.188c0.168-0.033,0.276-0.156,0.39-0.267
	c0.05-0.049,0.131-0.111,0.035-0.182c-0.034-0.025-0.11-0.031-0.146-0.01C181.1,144.527,180.906,144.568,180.796,144.737z
	 M9.47,153.142c0.353-0.091,0.563-0.134,0.764-0.204c0.063-0.022,0.146-0.122,0.139-0.176c-0.009-0.074-0.117-0.111-0.196-0.079
	C9.977,152.762,9.756,152.806,9.47,153.142z"/>
<path style="fill:#202F42;" d="M180.982,144.894c-1.328,1.016-2.82,1.702-4.411,2.188c-0.158,0.048-0.321,0.082-0.475,0.14
	c-0.418,0.158-0.664,0.515-0.669,0.949c-0.005,0.457,0.277,0.862,0.738,0.982c0.29,0.075,0.597,0.081,0.903,0.119
	c0.049,0.177-0.098,0.213-0.216,0.252c-1.157,0.38-2.35,0.587-3.56,0.674c-2.262,0.162-4.511,0.002-6.759-0.261
	c-1.997-0.233-3.983-0.537-5.96-0.891c-1.895-0.339-3.785-0.707-5.67-1.1c-0.607-0.127-1.114-0.048-1.644,0.279
	c-2.356,1.451-4.876,2.536-7.536,3.295c-0.659,0.188-0.94,0.665-0.782,1.315c0.085,0.351,0.3,0.599,0.651,0.674
	c0.293,0.063,0.601,0.096,0.9,0.086c1.183-0.04,2.368-0.038,3.544-0.213c0.242-0.036,0.491-0.033,0.737-0.049
	c0.019,0.251-0.185,0.27-0.312,0.341c-2.476,1.371-5.116,2.281-7.892,2.813c-2.743,0.526-5.513,0.716-8.301,0.661
	c-2.92-0.057-5.828-0.294-8.731-0.614c-2.271-0.25-4.535-0.555-6.795-0.89c-1.797-0.266-3.589-0.566-5.378-0.877
	c-2.304-0.4-4.604-0.821-6.903-1.244c-1.542-0.283-3.08-0.587-4.621-0.879c-2.298-0.435-4.594-0.876-6.894-1.296
	c-1.678-0.307-3.357-0.606-5.042-0.871c-1.114-0.175-2.236-0.309-3.359-0.418c-1.781-0.174-3.564-0.336-5.349-0.457
	c-1.566-0.106-3.135-0.179-4.704-0.212c-3.415-0.072-6.831-0.05-10.241,0.191c-2.472,0.175-4.938,0.408-7.397,0.73
	c-3.167,0.415-6.31,0.955-9.434,1.618c-4.093,0.868-8.13,1.941-12.114,3.218c-1.86,0.596-3.701,1.242-5.536,1.908
	c-0.101,0.037-0.196,0.102-0.329,0.053c-0.088-0.12,0.055-0.162,0.106-0.228c0.049-0.064,0.12-0.113,0.185-0.164
	c1.752-1.382,3.544-2.706,5.43-3.902c1.746-1.107,3.548-2.107,5.444-2.934c0.101-0.044,0.201-0.09,0.299-0.139
	c0.45-0.224,0.626-0.596,0.573-1.085c-0.052-0.478-0.306-0.744-0.853-0.873c-0.186-0.044-0.381-0.059-0.572-0.065
	c-1.845-0.063-3.689-0.068-5.529,0.115c-1.315,0.131-2.632,0.245-3.945,0.393c-0.902,0.101-1.801,0.237-2.699,0.374
	c-2.312,0.352-4.614,0.763-6.903,1.243c-1.426,0.299-2.85,0.614-4.273,0.929c-2.551,0.564-5.081,1.215-7.609,1.877
	c-0.175,0.046-0.362,0.155-0.548,0.023c0.021-0.166,0.162-0.217,0.28-0.272c1.999-0.919,3.996-1.844,6.09-2.534
	c0.472-0.155,0.952-0.267,1.438-0.366c0.47-0.096,0.787-0.368,0.875-0.87c0.062-0.354-0.062-0.648-0.262-0.919
	c-0.343-0.466-0.693-0.926-1.044-1.386c-2.755-3.613-5.51-7.226-8.266-10.838c-0.05-0.066-0.097-0.134-0.15-0.197
	c-0.144-0.17-0.135-0.338-0.031-0.531c0.275-0.508,0.533-1.025,0.805-1.535c2.82-5.294,5.645-10.586,8.462-15.882
	c2.791-5.248,5.57-10.502,8.36-15.75c2.984-5.613,5.976-11.222,8.963-16.833c1.487-2.794,2.971-5.589,4.457-8.383
	c0.051-0.096,0.109-0.19,0.167-0.291c0.21,0.03,0.221,0.211,0.274,0.344c1.047,2.603,2.09,5.207,3.135,7.811
	c0.256,0.638,0.492,1.285,0.774,1.912c0.25,0.554,0.733,0.749,1.293,0.585c0.314-0.092,0.513-0.312,0.654-0.59
	c0.25-0.49,0.495-0.983,0.737-1.477c1.223-2.495,2.446-4.991,3.667-7.486c1.149-2.348,2.294-4.698,3.444-7.045
	c2.664-5.436,5.332-10.869,7.995-16.305c1.501-3.063,2.995-6.131,4.496-9.194c2.082-4.25,4.169-8.498,6.253-12.747
	c0.327-0.666,0.652-1.333,0.988-2.019c0.289,0.112,0.332,0.376,0.432,0.578c1.12,2.27,2.23,4.545,3.343,6.819
	c1.573,3.213,3.147,6.424,4.719,9.638c2.308,4.721,4.612,9.445,6.922,14.165c2.056,4.202,4.116,8.401,6.174,12.602
	c0.085,0.173,0.161,0.35,0.251,0.52c0.379,0.711,1.452,0.819,1.883,0.019c0.326-0.605,0.616-1.23,0.917-1.849
	c1.362-2.795,2.72-5.591,4.086-8.384c0.092-0.187,0.129-0.424,0.345-0.521c0.139,0.038,0.167,0.152,0.213,0.243
	c1.688,3.34,3.373,6.681,5.06,10.021c0.893,1.768,1.792,3.533,2.683,5.303c0.153,0.304,0.325,0.568,0.671,0.684
	c0.47,0.157,0.963,0.016,1.239-0.394c0.123-0.182,0.218-0.383,0.315-0.581c1.306-2.669,2.606-5.341,3.914-8.01
	c1.732-3.533,3.471-7.063,5.203-10.596c0.957-1.952,1.905-3.907,2.862-5.859c0.108-0.22,0.175-0.468,0.38-0.632
	c0.205,0.159,0.284,0.4,0.391,0.619c2.238,4.572,4.47,9.146,6.706,13.719c1.366,2.793,2.736,5.585,4.102,8.378
	c1.705,3.485,3.408,6.97,5.112,10.455c0.218,0.445,0.422,0.898,0.659,1.332c0.275,0.504,0.73,0.695,1.25,0.557
	c0.344-0.091,0.563-0.332,0.716-0.638c0.271-0.541,0.538-1.085,0.803-1.629c0.976-2.004,1.949-4.008,2.925-6.012
	c0.047-0.096,0.105-0.185,0.154-0.271c0.276,0.019,0.295,0.254,0.374,0.409c0.962,1.887,1.915,3.78,2.869,5.671
	c0.57,1.13,1.135,2.263,1.711,3.39c0.341,0.667,0.632,0.837,1.4,0.743c0.764-0.094,1.521-0.246,2.282-0.365
	c1.849-0.29,3.697-0.585,5.558-0.793c1.778-0.199,3.552-0.439,5.333-0.604c1.809-0.167,3.621-0.303,5.437-0.403
	c3.468-0.192,6.937-0.227,10.406-0.103c2.338,0.084,4.675,0.231,6.993,0.581c0.626,0.094,1.255,0.161,1.882,0.247
	c0.039,0.005,0.091,0.061,0.101,0.102c0.011,0.044-0.005,0.117-0.037,0.144c-0.105,0.088-0.221,0.163-0.336,0.239
	c-5.34,3.538-10.3,7.552-14.967,11.933c-3.599,3.378-6.977,6.964-10.144,10.75c-0.053,0.063-0.106,0.126-0.161,0.188
	c-0.351,0.393-0.409,0.835-0.175,1.298c0.207,0.41,0.603,0.544,1.224,0.431c0.677-0.124,1.35-0.265,2.025-0.4
	c1.834-0.368,3.678-0.677,5.529-0.95c1.58-0.233,3.163-0.438,4.751-0.597c2.797-0.28,5.601-0.415,8.414-0.406
	c2.622,0.008,5.226,0.215,7.821,0.565c0.048,0.007,0.092,0.043,0.159,0.076c0.032,0.241-0.192,0.3-0.327,0.403
	c-1.186,0.898-2.333,1.844-3.443,2.835c-2.43,2.171-4.635,4.552-6.641,7.119c-2.023,2.589-3.802,5.336-5.325,8.244
	c-1.523,2.907-2.752,5.937-3.705,9.079c-0.44,1.449-0.808,2.916-1.137,4.393c-0.036,0.161-0.067,0.326-0.068,0.49
	c-0.004,0.695,0.491,1.145,1.177,1.042c0.323-0.049,0.645-0.15,0.948-0.275c0.686-0.281,1.361-0.59,2.04-0.888
	C180.858,144.79,180.92,144.842,180.982,144.894z M77.956,102.433c1.007,0.116,2.016,0.187,3.029,0.181
	c0.127-0.001,0.309,0.073,0.421-0.171c-0.458,0.03-0.82-0.258-1.248-0.18c-0.132-0.037-0.263-0.081-0.397-0.111
	c-2.305-0.52-4.61-1.04-6.915-1.558c-0.455-0.102-0.914-0.289-1.366-0.275c-0.452,0.014-0.9,0.225-1.346,0.36
	c-3.601,1.091-7.201,2.189-10.805,3.272c-0.446,0.134-0.753,0.358-0.989,0.774c-0.746,1.315-1.536,2.605-2.303,3.908
	c-0.094,0.16-0.228,0.307-0.233,0.511c0.138,0.079,0.263,0.01,0.394-0.027c1.879-0.523,3.759-1.041,5.638-1.565
	c2.514-0.701,5.024-1.417,7.543-2.097c0.382-0.103,0.566-0.285,0.63-0.644c0.019-0.108,0.044-0.216,0.072-0.322
	c0.174-0.665,0.344-1.33,0.525-1.993c0.1-0.368,0.138-0.398,0.508-0.389c0.495,0.012,0.99,0.037,1.484,0.061
	C74.384,102.254,76.17,102.344,77.956,102.433z M82.461,111.38c-1.198-0.173-2.395-0.347-3.593-0.518
	c-1.77-0.252-3.54-0.504-5.311-0.753c-1.335-0.188-2.671-0.366-4.004-0.561c-0.5-0.073-0.969-0.022-1.459,0.12
	c-5.014,1.46-10.033,2.898-15.051,4.345c-1.479,0.426-2.956,0.859-4.434,1.288c-0.157,0.046-0.337,0.053-0.424,0.219
	c-0.196,0.376-0.432,0.736-0.547,1.238c0.317-0.079,0.553-0.132,0.786-0.197c1.96-0.544,3.922-1.079,5.876-1.643
	c0.468-0.135,0.912-0.141,1.378-0.041c1.72,0.369,3.439,0.751,5.167,1.079c0.474,0.09,0.791,0.296,1.075,0.663
	c0.807,1.046,1.642,2.07,2.457,3.11c0.158,0.202,0.319,0.28,0.565,0.181c0.332-0.133,0.661-0.282,1.006-0.368
	c0.409-0.103,0.559-0.358,0.653-0.744c0.422-1.736,0.873-3.466,1.314-5.198c0.122-0.48,0.241-0.96,0.365-1.439
	c0.045-0.174,0.144-0.293,0.343-0.293c0.138,0,0.275-0.004,0.413-0.007c2.862-0.067,5.725-0.131,8.587-0.204
	c1.624-0.042,3.247-0.101,4.87-0.152c0.182,0.044,0.365,0.09,0.512-0.09C82.822,111.362,82.644,111.325,82.461,111.38z
	 M119.186,85.931c0.217-0.033,0.437-0.052,0.649-0.103c0.514-0.122,0.994-0.021,1.429,0.243c0.83,0.505,1.31,1.241,1.353,2.23
	c0.039,0.899-0.293,1.669-0.842,2.357c-0.451,0.565-1.011,1.008-1.615,1.401c-0.843,0.548-0.744,0.392-0.317,1.259
	c0.059,0.12,0.113,0.249,0.304,0.336c0.557-0.395,1.093-0.864,1.638-1.32c0.138-0.115,0.155-0.281,0.18-0.446
	c0.128-0.846,0.533-1.559,1.094-2.183c0.899-0.999,2.002-1.716,3.223-2.257c0.248-0.11,0.523-0.176,0.793-0.218
	c0.845-0.133,1.505,0.171,1.993,0.875c0.391,0.564,0.581,1.176,0.54,1.865c-0.048,0.818-0.426,1.481-0.994,2.028
	c-0.654,0.63-1.34,1.23-2.083,1.755c-0.817,0.577-1.704,0.896-2.721,0.625c-0.26-0.069-0.474-0.015-0.678,0.177
	c-0.461,0.434-0.946,0.842-1.412,1.271c-0.407,0.375-0.404,0.383-0.149,0.909c0.096,0.198,0.196,0.395,0.31,0.582
	c0.058,0.096,0.164,0.149,0.284,0.115c0.186-0.051,0.369-0.108,0.554-0.164c2.212-0.667,4.419-1.354,6.638-1.996
	c1.955-0.566,3.927-1.075,5.886-1.625c0.278-0.078,0.61-0.057,0.814-0.331c0.28,0.081,0.539-0.012,0.808-0.08
	c1.413-0.354,2.829-0.697,4.245-1.042c0.614-0.149,0.618-0.148,0.317-0.746c-4.974-9.875-9.949-19.75-14.925-29.625
	c-0.096-0.19-0.148-0.41-0.347-0.543c-0.243,0.169-0.31,0.448-0.434,0.688c-2.482,4.817-4.962,9.635-7.442,14.453
	c-1.083,2.103-2.158,4.21-3.257,6.305c-0.199,0.379-0.228,0.685-0.015,1.073c0.514,0.941,0.981,1.908,1.466,2.864
	c0.087,0.172,0.159,0.352,0.26,0.515c0.055,0.088,0.158,0.166,0.274,0.077C117.688,86.742,118.446,86.352,119.186,85.931z
	 M176.732,136.837c-0.063,0.294-0.166,0.583-0.138,0.966c0.268-0.327,0.321-0.647,0.388-0.96c0.292-0.772,0.572-1.549,0.878-2.316
	c2.583-6.469,6.055-12.41,10.581-17.719c0.536-0.628,1.111-1.222,1.666-1.834c0.053-0.059,0.106-0.126,0.066-0.219
	c-0.04-0.092-0.125-0.092-0.202-0.1c-1.511-0.154-3.021-0.116-4.537-0.042c-2.727,0.133-5.43,0.469-8.116,0.927
	c-4.288,0.731-8.52,1.716-12.714,2.869c-0.52,0.143-0.866,0.403-1.166,0.825c-1.276,1.796-2.525,3.61-3.711,5.466
	c-3.507,5.488-6.523,11.233-9.012,17.252c-0.095,0.229-0.191,0.457-0.275,0.69c-0.071,0.198-0.01,0.294,0.209,0.359
	c0.079,0.024,0.159,0.047,0.24,0.062c1.326,0.243,2.655,0.469,3.976,0.737c0.354,0.072,0.637,0.036,0.935-0.15
	c1.027-0.641,2.076-1.249,3.092-1.908c1.572-1.018,3.074-2.137,4.536-3.309c0.135-0.108,0.259-0.257,0.495-0.25
	c-0.046,0.366-0.223,0.615-0.364,0.875c-0.923,1.703-2.048,3.262-3.337,4.706c-0.183,0.205-0.375,0.403-0.556,0.611
	c-0.16,0.183-0.126,0.32,0.086,0.35c0.844,0.121,1.688,0.249,2.534,0.352c1.503,0.184,3.012,0.295,4.523,0.399
	c1.817,0.125,3.632,0.105,5.45,0.099c0.11,0,0.22-0.007,0.33-0.014c0.197-0.013,0.292-0.129,0.305-0.318
	c0.008-0.11,0.009-0.22,0.013-0.33c0.064-1.844,0.189-3.682,0.439-5.512c0.453-3.316,1.267-6.537,2.522-9.639
	c1.723-4.26,4.103-8.095,7.432-11.302c0.026,0.097,0.053,0.194,0.079,0.291c-1.373,1.935-2.466,4.024-3.377,6.209
	C178.408,128.781,177.348,132.748,176.732,136.837z M25.754,130.367c0.226,0.042,0.432-0.038,0.645-0.095
	c2.734-0.731,5.465-1.472,8.207-2.174c0.497-0.127,0.808-0.364,1.068-0.796c1.362-2.261,2.75-4.506,4.129-6.757
	c0.072-0.117,0.147-0.233,0.213-0.353c0.136-0.249,0.13-0.317-0.086-0.488c-0.41-0.324-0.836-0.628-1.238-0.961
	c-0.253-0.209-0.499-0.277-0.832-0.209c-1.213,0.249-2.278-0.108-3.233-0.861c-0.592-0.467-1.042-1.048-1.396-1.708
	c-0.209-1.044,0.033-1.983,0.611-2.868c0.443-0.678,0.992-1.216,1.717-1.575c0.436-0.009,0.857-0.142,1.309-0.059
	c1.4,0.258,2.472,1.033,3.373,2.08c0.314,0.365,0.45,0.817,0.429,1.305c-0.01,0.22-0.025,0.44-0.05,0.658
	c-0.021,0.182,0.038,0.324,0.175,0.437c0.466,0.386,0.932,0.773,1.401,1.156c0.127,0.103,0.261,0.088,0.354-0.046
	c0.125-0.181,0.235-0.372,0.346-0.562c0.875-1.497,1.748-2.996,2.624-4.493c0.418-0.715,0.419-0.716,1.246-0.914
	c1.418-0.34,2.835-0.684,4.255-1.011c0.264-0.061,0.448-0.178,0.576-0.413c0.132-0.241,0.285-0.471,0.427-0.707
	c1.633-2.712,3.272-5.421,4.893-8.141c0.225-0.377,0.492-0.612,0.922-0.745c1.708-0.529,3.399-1.113,5.107-1.642
	c0.512-0.159,0.829-0.42,1.061-0.919c3.274-7.038,6.569-14.066,9.86-21.096c0.35-0.748,0.7-1.496,1.059-2.24
	c0.136-0.282,0.2-0.307,0.523-0.233c1.127,0.256,2.253,0.513,3.377,0.781c0.539,0.128,0.546,0.15,0.589,0.724
	c0.012,0.165,0.017,0.33,0.023,0.495c0.056,1.431,0.113,2.861,0.169,4.292c0.11,2.834,0.223,5.667,0.328,8.501
	c0.084,2.256,0.157,4.513,0.24,6.769c0.019,0.523,0.067,1.044,0.089,1.567c0.011,0.26,0.129,0.403,0.383,0.455
	c0.161,0.033,0.316,0.094,0.474,0.141c1.161,0.343,2.323,0.681,3.482,1.03c0.463,0.14,0.478,0.164,0.496,0.625
	c0.062,1.541,0.117,3.081,0.176,4.622c0.021,0.55,0.033,1.101,0.075,1.65c0.027,0.353-0.092,0.778,0.136,1.04
	c0.256,0.295,0.717,0.199,1.091,0.239c0.306,0.033,0.429,0.185,0.487,0.458c0.168,0.78,0.342,1.559,0.519,2.337
	c0.059,0.258,0.136,0.512,0.219,0.822c0.295-0.203,0.389-0.47,0.526-0.698c1.42-2.359,2.841-4.716,4.246-7.084
	c0.221-0.372,0.494-0.624,0.896-0.795c3.167-1.342,6.329-2.696,9.486-4.062c0.426-0.184,0.836-0.234,1.284-0.154
	c0.514,0.091,1.034,0.156,1.55,0.234c0.194,0.029,0.382,0.041,0.547-0.1c0.583-0.497,1.245-0.901,1.747-1.492
	c0.205-0.026,0.339-0.173,0.488-0.293c0.473-0.379,0.945-0.759,1.416-1.139c1.094-0.881,2.186-1.764,3.282-2.642
	c0.493-0.395,0.42-0.336,0.169-0.872c-0.035-0.075-0.068-0.15-0.104-0.225c-2.527-5.135-5.053-10.269-7.58-15.404
	c-0.656-1.333-1.316-2.664-1.973-3.997c-0.037-0.074-0.072-0.15-0.168-0.154c-0.1-0.004-0.131,0.075-0.167,0.148
	c-0.492,0.984-0.986,1.968-1.477,2.953c-1.508,3.029-3.015,6.06-4.523,9.089c-0.061,0.123-0.112,0.254-0.192,0.365
	c-0.069,0.097-0.062,0.283-0.317,0.256c-0.695-1.306-1.346-2.666-2.028-4.009c-0.673-1.325-1.336-2.654-2.002-3.982
	c-0.678-1.353-1.355-2.706-2.033-4.059c-0.678-1.353-1.356-2.706-2.035-4.058c-0.666-1.328-1.333-2.655-2-3.983
	c-0.68-1.352-1.36-2.704-2.04-4.056c-0.667-1.328-1.332-2.656-1.998-3.984c-0.678-1.353-1.354-2.707-2.033-4.059
	c-0.679-1.353-1.359-2.704-2.039-4.056c-0.667-1.327-1.332-2.656-2.002-3.982c-0.679-1.345-1.328-2.706-2.053-4.048
	c-0.254,0.192-0.32,0.435-0.428,0.645C67.933,53.103,61.62,65.42,55.307,77.736c-3.087,6.023-6.175,12.047-9.267,18.068
	c-0.101,0.197-0.152,0.446-0.429,0.584c-1.509-3.454-3.003-6.876-4.506-10.318c-0.28,0.217-0.359,0.489-0.487,0.729
	c-2.986,5.642-5.971,11.285-8.956,16.929c-5.004,9.463-10.007,18.925-15.01,28.388c-0.09,0.17-0.183,0.339-0.27,0.511
	c-0.036,0.072-0.055,0.151,0.005,0.222c0.067,0.079,0.153,0.04,0.23,0.026c0.135-0.025,0.27-0.055,0.403-0.09
	c2.658-0.705,5.316-1.408,7.972-2.122C25.253,130.593,25.539,130.566,25.754,130.367z M165.549,100.704
	c0.003,0.213-0.127,0.284-0.208,0.379c-0.643,0.754-1.301,1.495-1.938,2.254c-3.339,3.984-6.174,8.306-8.597,12.901
	c-1.608,3.049-3.015,6.19-4.194,9.429c-0.961,2.641-1.809,5.317-2.43,8.062c-0.048,0.214-0.082,0.431-0.115,0.648
	c-0.012,0.079,0.007,0.168,0.106,0.177c0.044,0.004,0.112-0.029,0.136-0.067c0.075-0.114,0.142-0.235,0.199-0.359
	c0.975-2.129,2.036-4.215,3.142-6.279c1.588-2.964,3.304-5.851,5.13-8.673c2.096-3.239,4.344-6.37,6.723-9.408
	c2.056-2.625,4.21-5.167,6.484-7.604c1.447-1.55,2.958-3.04,4.464-4.534c0.801-0.794,1.653-1.538,2.482-2.304
	c0.101-0.094,0.205-0.184,0.304-0.28c0.077-0.074,0.175-0.147,0.148-0.27c-0.033-0.144-0.17-0.123-0.271-0.127
	c-2.039-0.079-4.078-0.063-6.113,0.058c-1.482,0.088-2.959,0.266-4.435,0.435c-1.449,0.166-2.897,0.343-4.339,0.564
	c-2.394,0.367-4.778,0.791-7.155,1.256c-4.35,0.852-8.669,1.843-12.969,2.919c-3.392,0.849-6.77,1.751-10.13,2.718
	c-2.752,0.792-5.509,1.568-8.22,2.492c-3.883,1.324-7.764,2.654-11.646,3.983c-4.142,1.418-8.283,2.837-12.425,4.255
	c-4.194,1.436-8.389,2.87-12.584,4.305c-4.195,1.435-8.389,2.869-12.584,4.304c-4.195,1.435-8.389,2.87-12.584,4.304
	c-4.195,1.435-8.389,2.869-12.584,4.304c-4.247,1.453-8.493,2.907-12.74,4.358c-5.785,1.976-11.571,3.948-17.356,5.922
	c-0.182,0.062-0.366,0.121-0.547,0.188c-0.604,0.226-0.631,0.301-0.259,0.79c0.333,0.438,0.681,0.866,1.021,1.299
	c1.003,1.278,2.003,2.558,3.009,3.834c0.208,0.264,0.256,0.274,0.561,0.162c0.62-0.227,1.234-0.474,1.858-0.691
	c3.129-1.083,6.339-1.853,9.586-2.476c4.274-0.82,8.587-1.359,12.915-1.782c2.163-0.211,4.333-0.369,6.503-0.497
	c2.418-0.142,4.84-0.24,7.261-0.322c1.486-0.05,2.975-0.035,4.462-0.048c0.173-0.001,0.348-0.006,0.599,0.055
	c-0.524,0.196-0.962,0.347-1.39,0.523c-0.407,0.167-0.808,0.351-1.203,0.546c-0.419,0.208-0.832,0.43-1.239,0.661
	c-0.407,0.23-0.808,0.474-1.206,0.72c-0.375,0.232-0.748,0.467-1.112,0.714c-0.38,0.259-0.791,0.48-1.125,0.807
	c0.123,0.133,0.233,0.111,0.335,0.086c0.294-0.072,0.586-0.151,0.879-0.23c2.022-0.551,4.083-0.913,6.155-1.196
	c1.417-0.193,2.843-0.312,4.271-0.424c1.594-0.124,3.189-0.159,4.783-0.231c2.589-0.117,5.175,0.09,7.763,0.152
	c0.852,0.02,1.704,0.097,2.555,0.158c0.824,0.058,1.648,0.116,2.469,0.197c1.342,0.132,2.682,0.276,4.022,0.427
	c1.586,0.178,3.173,0.349,4.754,0.56c1.8,0.24,3.596,0.507,5.39,0.787c1.876,0.293,3.748,0.609,5.62,0.925
	c1.736,0.293,3.469,0.61,5.206,0.898c1.601,0.266,3.204,0.528,4.811,0.752c1.171,0.163,2.351,0.273,3.528,0.383
	c0.959,0.089,1.923,0.129,2.882,0.216c1.701,0.154,3.407,0.207,5.112,0.268c1.018,0.036,2.038,0.024,3.058,0.025
	c2.121,0.001,4.241-0.003,6.358-0.172c0.544-0.043,0.595-0.077,0.708-0.606c0.017-0.081,0.027-0.163,0.039-0.245
	c0.323-2.096,0.771-4.168,1.269-6.228c1.107-4.586,2.573-9.055,4.429-13.395c1.671-3.908,3.626-7.667,5.898-11.258
	c2.198-3.475,4.644-6.763,7.384-9.833c1.911-2.141,3.951-4.147,6.131-6.01C165.001,101.109,165.265,100.923,165.549,100.704z
	 M76.839,82.473c0-0.261,0.01-0.451-0.002-0.639c-0.096-1.51-0.193-3.02-0.295-4.53c-0.058-0.862,0.107-0.704-0.772-1.001
	c-0.078-0.026-0.157-0.052-0.235-0.078c-0.13-0.043-0.218,0.031-0.27,0.126c-0.092,0.168-0.163,0.348-0.241,0.524
	c-0.632,1.433-1.264,2.867-1.896,4.3c-2.287,5.18-4.574,10.359-6.858,15.54c-0.102,0.232-0.258,0.455-0.249,0.727
	c0.096,0.013,0.155,0.039,0.202,0.026c1.849-0.529,3.694-1.068,5.545-1.588c0.292-0.082,0.381-0.255,0.435-0.52
	c0.658-3.232,1.322-6.463,1.985-9.694c0.221-1.077,0.44-2.154,0.666-3.23c0.067-0.319,0.121-0.343,0.458-0.269
	C75.795,82.272,76.263,82.445,76.839,82.473z M45.608,120.808c0.094,0.131,0.143,0.23,0.219,0.301
	c0.93,0.871,0.585,0.794,1.772,0.528c0.391-0.088,0.775-0.28,1.207-0.204c0.021,0.337-0.15,0.595-0.24,0.873
	c-0.092,0.288-0.208,0.568-0.314,0.852c-0.105,0.284-0.232,0.562-0.309,0.853c-0.072,0.276-0.301,0.524-0.18,0.887
	c0.625-0.151,1.234-0.3,1.844-0.446c0.856-0.205,1.71-0.416,2.569-0.606c0.328-0.073,0.525-0.184,0.566-0.574
	c0.072-0.683,0.198-1.362,0.348-2.033c0.076-0.339-0.021-0.771,0.281-0.999c0.262-0.198,0.639-0.092,0.966-0.109
	c1.568-0.081,3.136-0.15,4.703-0.234c0.173-0.009,0.393,0.067,0.528-0.194c-1.777-0.31-3.538-0.602-5.291-0.934
	c-0.423-0.08-0.81-0.059-1.213,0.05c-1.566,0.424-3.133,0.843-4.701,1.262C47.462,120.322,46.558,120.558,45.608,120.808z
	 M92.517,108.869c0.193,0.09,0.332-0.019,0.479-0.078c2.521-1.009,5.042-2.016,7.56-3.032c0.299-0.121,0.692-0.135,0.858-0.431
	c0.151-0.269-0.066-0.582-0.096-0.88c-0.035-0.345-0.022-0.385,0.347-0.54c0.531-0.222,1.068-0.433,1.599-0.655
	c0.138-0.058,0.315-0.079,0.358-0.291c-0.78-0.161-1.56-0.317-2.337-0.483c-0.229-0.049-0.427,0.005-0.634,0.097
	c-1.957,0.864-3.916,1.725-5.878,2.579c-0.266,0.116-0.449,0.285-0.587,0.54c-0.535,0.99-1.085,1.972-1.624,2.959
	C92.528,108.715,92.53,108.799,92.517,108.869z M114.976,94.51c-0.547,0.355-3.567,2.911-4.695,3.971
	c-0.03,0.028-0.023,0.094-0.037,0.161c0.067,0.032,0.136,0.086,0.21,0.097c0.871,0.129,1.743,0.247,2.613,0.377
	c0.264,0.039,0.475-0.028,0.68-0.2c0.59-0.495,1.197-0.971,1.788-1.464c0.207-0.173,0.467-0.299,0.597-0.601
	C115.753,96.083,115.366,95.299,114.976,94.51z M149.015,85.816c-0.902,1.767-1.722,3.401-2.516,5.031
	c0.171,0.15,0.304,0.069,0.431,0.044c1.263-0.247,2.525-0.497,3.786-0.753c0.122-0.025,0.275-0.04,0.321-0.241
	C150.394,88.599,149.739,87.278,149.015,85.816z M39.665,127.099c1.341-0.32,2.484-0.594,3.629-0.863
	c0.18-0.042,0.285-0.141,0.338-0.315c0.138-0.445,0.282-0.889,0.423-1.333c0.046-0.144,0.021-0.268-0.111-0.359
	c-0.627-0.435-1.253-0.87-1.932-1.342C41.238,124.278,40.493,125.614,39.665,127.099z M148.026,134.926
	c-0.019,0.005-0.048,0.004-0.056,0.017c-0.013,0.02-0.024,0.055-0.014,0.073c0.034,0.065,0.072,0.057,0.091-0.021
	C148.052,134.975,148.034,134.949,148.026,134.926z"/>
<path style="fill:#7EA1D9;" d="M9.47,153.142c0.286-0.336,0.507-0.38,0.707-0.46c0.079-0.031,0.187,0.006,0.196,0.079
	c0.007,0.054-0.076,0.154-0.139,0.176C10.033,153.007,9.823,153.051,9.47,153.142z"/>
<path style="fill:#848482;" d="M180.982,144.894c-0.062-0.052-0.123-0.105-0.185-0.157c0.109-0.169,0.304-0.21,0.464-0.302
	c0.036-0.021,0.112-0.015,0.146,0.01c0.097,0.072,0.015,0.134-0.035,0.182C181.258,144.738,181.15,144.861,180.982,144.894z"/>
<path style="fill:#848482;" d="M165.549,100.704c-0.284,0.219-0.548,0.405-0.792,0.613c-2.181,1.863-4.221,3.869-6.131,6.01
	c-2.74,3.07-5.186,6.358-7.384,9.833c-2.272,3.592-4.226,7.351-5.898,11.258c-1.856,4.34-3.322,8.808-4.429,13.395
	c-0.497,2.06-0.945,4.132-1.269,6.228c-0.013,0.082-0.022,0.164-0.039,0.245c-0.113,0.529-0.164,0.563-0.708,0.606
	c-2.116,0.169-4.237,0.173-6.358,0.172c-1.019-0.001-2.039,0.012-3.058-0.025c-1.705-0.061-3.411-0.114-5.112-0.268
	c-0.959-0.087-1.923-0.126-2.882-0.216c-1.178-0.11-2.357-0.22-3.528-0.383c-1.608-0.224-3.21-0.487-4.811-0.752
	c-1.737-0.288-3.47-0.605-5.206-0.898c-1.872-0.316-3.744-0.633-5.62-0.925c-1.794-0.28-3.59-0.547-5.39-0.787
	c-1.582-0.211-3.169-0.382-4.754-0.56c-1.34-0.151-2.68-0.295-4.022-0.427c-0.822-0.081-1.646-0.138-2.469-0.197
	c-0.851-0.06-1.702-0.137-2.555-0.158c-2.588-0.062-5.174-0.269-7.763-0.152c-1.594,0.072-3.19,0.107-4.783,0.231
	c-1.428,0.112-2.855,0.23-4.271,0.424c-2.072,0.283-4.133,0.645-6.155,1.196c-0.292,0.08-0.585,0.158-0.879,0.23
	c-0.102,0.025-0.212,0.047-0.335-0.086c0.333-0.327,0.745-0.548,1.125-0.807c0.364-0.248,0.737-0.483,1.112-0.714
	c0.398-0.246,0.798-0.49,1.206-0.72c0.407-0.23,0.82-0.453,1.239-0.661c0.394-0.195,0.796-0.379,1.203-0.546
	c0.428-0.176,0.866-0.327,1.39-0.523c-0.25-0.061-0.426-0.056-0.599-0.055c-1.488,0.013-2.976-0.003-4.462,0.048
	c-2.421,0.082-4.843,0.18-7.261,0.322c-2.17,0.127-4.34,0.285-6.503,0.497c-4.328,0.423-8.641,0.962-12.915,1.782
	c-3.248,0.623-6.458,1.393-9.586,2.476c-0.624,0.216-1.238,0.463-1.858,0.691c-0.305,0.112-0.353,0.102-0.561-0.162
	c-1.006-1.276-2.006-2.556-3.009-3.834c-0.34-0.433-0.687-0.861-1.021-1.299c-0.372-0.489-0.344-0.565,0.259-0.79
	c0.18-0.067,0.364-0.126,0.547-0.188c5.785-1.974,11.571-3.947,17.356-5.922c4.247-1.451,8.494-2.905,12.74-4.358
	c4.195-1.435,8.389-2.869,12.584-4.304c4.195-1.435,8.389-2.87,12.584-4.304c4.195-1.435,8.389-2.869,12.584-4.304
	c4.195-1.435,8.389-2.869,12.584-4.305c4.142-1.418,8.283-2.837,12.425-4.255c3.882-1.329,7.763-2.659,11.646-3.983
	c2.711-0.924,5.468-1.7,8.22-2.492c3.36-0.967,6.738-1.869,10.13-2.718c4.299-1.076,8.618-2.067,12.969-2.919
	c2.377-0.466,4.761-0.889,7.155-1.256c1.441-0.221,2.89-0.398,4.339-0.564c1.476-0.169,2.953-0.347,4.435-0.435
	c2.035-0.121,4.075-0.137,6.113-0.058c0.101,0.004,0.238-0.017,0.271,0.127c0.028,0.122-0.071,0.196-0.148,0.27
	c-0.099,0.096-0.203,0.186-0.304,0.28c-0.829,0.766-1.681,1.51-2.482,2.304c-1.506,1.493-3.018,2.983-4.464,4.534
	c-2.274,2.437-4.428,4.979-6.484,7.604c-2.38,3.037-4.628,6.168-6.723,9.408c-1.826,2.822-3.542,5.709-5.13,8.673
	c-1.106,2.064-2.167,4.15-3.142,6.279c-0.057,0.124-0.124,0.245-0.199,0.359c-0.025,0.038-0.092,0.071-0.136,0.067
	c-0.099-0.009-0.118-0.098-0.106-0.177c0.032-0.217,0.066-0.434,0.115-0.648c0.621-2.744,1.469-5.421,2.43-8.062
	c1.179-3.239,2.585-6.38,4.194-9.429c2.423-4.595,5.257-8.917,8.597-12.901c0.637-0.759,1.294-1.501,1.938-2.254
	C165.422,100.988,165.552,100.917,165.549,100.704z M142.279,116.816c-0.109,0.236-0.166,0.358-0.222,0.479
	c-0.058,0.125-0.112,0.252-0.174,0.374c-0.604,1.19-1.525,2.008-2.825,2.362c-0.29,0.079-0.596,0.097-0.894,0.146
	c-0.08,0.013-0.176,0.021-0.197,0.118c-0.019,0.09,0.057,0.136,0.12,0.188c0.09,0.074,0.297,0.08,0.211,0.259
	c-0.026,0.053-0.202,0.047-0.309,0.046c-0.269-0.002-0.459-0.162-0.636-0.342c-0.36-0.368-0.524-0.836-0.657-1.316
	c-0.347-1.256-0.445-2.547-0.498-3.839c-0.04-0.99-0.037-1.984,0.006-2.973c0.022-0.51-0.082-0.913-0.495-1.223
	c-0.029-0.021-0.015-0.099-0.027-0.198c0.14,0,0.277-0.015,0.409,0.002c1.069,0.137,2.144,0.1,3.217,0.131
	c0.469,0.013,0.469,0.007,0.901,0.297c0.117-0.212,0.109-0.424-0.03-0.614c-0.105-0.143-0.281-0.16-0.448-0.17
	c-0.137-0.008-0.275-0.009-0.413-0.017c-0.879-0.05-1.759-0.097-2.637-0.155c-0.426-0.028-0.485-0.088-0.517-0.482
	c-0.022-0.274-0.024-0.55-0.038-0.825c-0.012-0.239,0.061-0.428,0.286-0.547c0.121-0.064,0.24-0.138,0.345-0.226
	c0.781-0.657,0.912-1.765,0.346-2.514c-0.68-0.898-2.448-0.872-3.084-0.294c-0.83,0.756-0.87,1.979,0.045,2.747
	c0.405,0.341,0.545,0.643,0.377,1.123c-0.054,0.154-0.052,0.326-0.085,0.487c-0.061,0.292-0.137,0.367-0.451,0.364
	c-0.44-0.004-0.88-0.032-1.319-0.057c-0.577-0.033-1.153-0.076-1.73-0.107c-0.136-0.007-0.275,0.009-0.411,0.022
	c-0.266,0.025-0.395,0.422-0.295,0.579c0.115,0.179,0.232-0.013,0.339-0.061c0.188-0.084,0.379-0.045,0.569-0.031
	c0.823,0.06,1.646,0.118,2.468,0.188c0.356,0.03,0.709,0.086,1.064,0.132c0.026,0.003,0.057,0.017,0.073,0.036
	c0.014,0.017,0.009,0.049,0.022,0.157c-0.024,0.015-0.092,0.059-0.164,0.097c-0.353,0.186-0.467,0.478-0.488,0.875
	c-0.076,1.43-0.263,2.85-0.527,4.257c-0.172,0.918-0.384,1.832-0.755,2.699c-0.164,0.383-0.361,0.743-0.649,1.047
	c-0.214,0.225-0.461,0.394-0.79,0.388c-0.083-0.001-0.168-0.025-0.183-0.119c-0.007-0.042,0.023-0.109,0.058-0.135
	c0.104-0.077,0.266-0.1,0.227-0.306c-0.942-0.221-1.816-0.575-2.536-1.275c-0.735-0.714-1.063-1.629-1.362-2.615
	c-0.094,0.115-0.163,0.169-0.193,0.24c-0.425,1.007-0.656,2.042-0.418,3.138c0.034,0.154-0.019,0.371,0.152,0.44
	c0.212,0.086,0.239-0.169,0.348-0.271c0.081-0.075,0.15-0.159,0.268-0.174c0.187,0.097,0.248,0.29,0.339,0.456
	c0.478,0.873,1.168,1.52,2.055,1.969c0.516,0.261,1.02,0.545,1.527,0.823c0.51,0.279,0.965,0.632,1.386,1.034
	c0.154,0.147,0.217,0.389,0.511,0.461c0.162-0.612,0.221-1.229,0.222-1.853c0.001-0.263-0.113-0.482-0.297-0.66
	c-0.194-0.187-0.399-0.362-0.603-0.545c0.056-0.054,0.087-0.109,0.134-0.127c0.69-0.27,1.021-0.798,1.111-1.511
	c0.086-0.682,0.194-1.362,0.273-2.045c0.19-1.64,0.366-3.281,0.552-4.921c0.05-0.437,0.11-0.873,0.176-1.308
	c0.011-0.074,0.063-0.163,0.168-0.12c0.042,0.017,0.097,0.069,0.099,0.109c0.017,0.247,0.028,0.494,0.029,0.742
	c0.007,2.396,0.012,4.792,0.015,7.188c0,0.387,0.019,0.768,0.148,1.14c0.132,0.382,0.339,0.689,0.726,0.849
	c0.1,0.041,0.194,0.096,0.322,0.161c-0.261,0.165-0.498,0.301-0.721,0.458c-0.286,0.201-0.456,0.482-0.462,0.835
	c-0.009,0.495-0.001,0.991,0.005,1.487c0.001,0.083,0.042,0.165,0.136,0.174c0.048,0.005,0.115-0.017,0.149-0.051
	c0.848-0.838,1.925-1.258,3.015-1.657c0.181-0.066,0.358-0.143,0.536-0.216c0.86-0.356,1.578-0.896,2.113-1.662
	c0.459-0.657,0.504-0.466,0.836,0.044c0.016,0.025,0.094,0.011,0.142,0.015C142.817,119.492,142.827,118.094,142.279,116.816z"/>
<path style="fill:#FDFEFE;" d="M35.558,111.522c-0.725,0.359-1.274,0.898-1.717,1.575c-0.578,0.885-0.82,1.824-0.611,2.868
	c-0.261,0.483-0.528,0.963-0.783,1.449c-2.158,4.113-4.314,8.228-6.468,12.343c-0.1,0.192-0.239,0.374-0.225,0.61
	c-0.214,0.199-0.5,0.226-0.761,0.296c-2.656,0.714-5.314,1.417-7.972,2.122c-0.133,0.035-0.267,0.065-0.403,0.09
	c-0.077,0.014-0.163,0.053-0.23-0.026c-0.06-0.071-0.041-0.15-0.005-0.222c0.087-0.172,0.18-0.34,0.27-0.511
	c5.003-9.463,10.006-18.926,15.01-28.388c2.984-5.643,5.969-11.286,8.956-16.929c0.127-0.24,0.207-0.512,0.487-0.729
	c1.503,3.441,2.998,6.864,4.506,10.318c0.276-0.138,0.328-0.387,0.429-0.584c3.092-6.021,6.179-12.045,9.267-18.068
	C61.62,65.42,67.933,53.103,74.249,40.789c0.108-0.21,0.173-0.453,0.428-0.645c0.725,1.342,1.374,2.703,2.053,4.048
	c0.67,1.326,1.335,2.655,2.002,3.982c0.68,1.352,1.36,2.704,2.039,4.056c0.679,1.353,1.355,2.706,2.033,4.059
	c0.666,1.328,1.331,2.657,1.998,3.984c0.679,1.352,1.36,2.704,2.04,4.056c0.667,1.327,1.334,2.655,2,3.983
	c0.679,1.352,1.357,2.705,2.035,4.058c0.678,1.353,1.355,2.707,2.033,4.059c0.666,1.328,1.329,2.658,2.002,3.982
	c0.682,1.343,1.334,2.703,2.028,4.009c0.255,0.027,0.248-0.159,0.317-0.256c0.079-0.111,0.13-0.242,0.192-0.365
	c1.508-3.03,3.014-6.06,4.523-9.089c0.49-0.985,0.985-1.969,1.477-2.953c0.036-0.073,0.068-0.152,0.167-0.148
	c0.096,0.004,0.131,0.079,0.168,0.154c0.657,1.332,1.317,2.664,1.973,3.997c2.527,5.134,5.054,10.269,7.58,15.404
	c0.036,0.074,0.069,0.15,0.104,0.225c0.251,0.536,0.323,0.477-0.169,0.872c-1.096,0.878-2.188,1.761-3.282,2.642
	c-0.472,0.38-0.944,0.76-1.416,1.139c-0.149,0.119-0.282,0.266-0.488,0.293c-0.045-0.128-0.077-0.264-0.138-0.384
	c-1.395-2.751-2.789-5.502-4.198-8.245c-0.128-0.25-0.145-0.602-0.497-0.703c-0.239,0.167-0.313,0.442-0.438,0.68
	c-1.899,3.606-3.792,7.215-5.687,10.822c-0.077,0.146-0.157,0.291-0.244,0.431c-0.114,0.181-0.26,0.173-0.371-0.025
	c-0.121-0.216-0.232-0.438-0.343-0.659c-2.171-4.302-4.342-8.604-6.51-12.908c-3.952-7.845-7.902-15.691-11.852-23.536
	c-1.015-2.017-2.027-4.035-3.046-6.05c-0.121-0.239-0.191-0.517-0.45-0.698c-0.21,0.13-0.274,0.346-0.37,0.533
	c-1.779,3.42-3.558,6.84-5.331,10.263c-2.42,4.67-4.835,9.342-7.252,14.013c-1.645,3.179-3.29,6.359-4.935,9.538
	c-2.518,4.867-5.036,9.733-7.554,14.6c-1.037,2.005-2.072,4.013-3.114,6.016c-0.11,0.212-0.16,0.475-0.451,0.605
	c-0.417-0.743-0.713-1.541-1.053-2.317c-0.353-0.807-0.701-1.617-1.051-2.425c-0.339-0.783-0.668-1.571-1.021-2.348
	c-0.36-0.792-0.642-1.623-1.087-2.387c-0.307,0.18-0.372,0.464-0.497,0.702c-1.003,1.899-2.003,3.8-2.996,5.704
	C36.91,108.876,36.237,110.2,35.558,111.522z"/>
<path style="fill:#7EA1D9;" d="M35.558,111.522c0.679-1.321,1.352-2.646,2.039-3.964c0.993-1.905,1.993-3.805,2.996-5.704
	c0.125-0.238,0.19-0.522,0.497-0.702c0.445,0.764,0.727,1.595,1.087,2.387c0.353,0.777,0.682,1.565,1.021,2.348
	c0.35,0.808,0.698,1.618,1.051,2.425c0.34,0.776,0.636,1.574,1.053,2.317c0.291-0.13,0.341-0.394,0.451-0.605
	c1.042-2.003,2.076-4.01,3.114-6.016c2.518-4.867,5.036-9.733,7.554-14.6c1.645-3.179,3.289-6.359,4.935-9.538
	c2.417-4.671,4.832-9.343,7.252-14.013c1.774-3.423,3.552-6.843,5.331-10.263c0.097-0.186,0.16-0.402,0.37-0.533
	c0.259,0.181,0.329,0.459,0.45,0.698c1.019,2.015,2.03,4.034,3.046,6.05c3.95,7.846,7.9,15.692,11.852,23.536
	c2.168,4.304,4.34,8.605,6.51,12.908c0.112,0.221,0.222,0.443,0.343,0.659c0.111,0.198,0.257,0.206,0.371,0.025
	c0.088-0.14,0.168-0.285,0.244-0.431c1.895-3.608,3.789-7.216,5.687-10.822c0.125-0.238,0.199-0.513,0.438-0.68
	c0.351,0.101,0.368,0.453,0.497,0.703c1.41,2.743,2.803,5.494,4.198,8.245c0.061,0.12,0.093,0.256,0.138,0.384
	c-0.502,0.591-1.164,0.995-1.747,1.492c-0.165,0.141-0.353,0.129-0.547,0.1c-0.517-0.078-1.036-0.143-1.55-0.234
	c-0.448-0.079-0.858-0.03-1.284,0.154c-3.157,1.366-6.319,2.72-9.486,4.062c-0.403,0.171-0.675,0.422-0.896,0.795
	c-1.405,2.367-2.826,4.725-4.246,7.084c-0.137,0.228-0.232,0.495-0.526,0.698c-0.083-0.31-0.16-0.564-0.219-0.822
	c-0.177-0.778-0.352-1.557-0.519-2.337c-0.059-0.272-0.181-0.425-0.487-0.458c-0.374-0.04-0.835,0.055-1.091-0.239
	c-0.228-0.262-0.109-0.687-0.136-1.04c-0.043-0.549-0.054-1.1-0.075-1.65c-0.059-1.541-0.114-3.081-0.176-4.622
	c-0.018-0.461-0.033-0.485-0.496-0.625c-1.159-0.349-2.321-0.687-3.482-1.03c-0.158-0.047-0.313-0.108-0.474-0.141
	c-0.254-0.052-0.372-0.195-0.383-0.455c-0.022-0.523-0.07-1.044-0.089-1.567c-0.083-2.256-0.156-4.513-0.24-6.769
	c-0.106-2.834-0.218-5.667-0.328-8.501c-0.056-1.431-0.112-2.861-0.169-4.292c-0.007-0.165-0.011-0.33-0.023-0.495
	c-0.043-0.574-0.051-0.596-0.589-0.724c-1.124-0.267-2.25-0.525-3.377-0.781c-0.324-0.074-0.387-0.049-0.523,0.233
	c-0.359,0.744-0.709,1.492-1.059,2.24c-3.291,7.03-6.586,14.058-9.86,21.096c-0.232,0.499-0.549,0.761-1.061,0.919
	c-1.708,0.529-3.399,1.112-5.107,1.642c-0.43,0.133-0.697,0.368-0.922,0.745c-1.621,2.719-3.26,5.428-4.893,8.141
	c-0.142,0.236-0.295,0.465-0.427,0.707c-0.129,0.235-0.312,0.352-0.576,0.413c-1.421,0.327-2.838,0.671-4.255,1.011
	c-0.826,0.198-0.827,0.199-1.246,0.914c-0.875,1.497-1.748,2.996-2.624,4.493c-0.111,0.19-0.221,0.381-0.346,0.562
	c-0.092,0.134-0.227,0.149-0.354,0.046c-0.469-0.383-0.935-0.769-1.401-1.156c-0.136-0.113-0.196-0.255-0.175-0.437
	c0.025-0.219,0.04-0.439,0.05-0.658c0.022-0.488-0.115-0.94-0.429-1.305c-0.901-1.047-1.973-1.821-3.373-2.08
	C36.415,111.38,35.994,111.512,35.558,111.522z"/>
<path style="fill:#7EA1D9;" d="M183.299,118.461c-3.329,3.207-5.709,7.042-7.432,11.302c-1.255,3.103-2.069,6.323-2.522,9.639
	c-0.25,1.831-0.375,3.668-0.439,5.512c-0.004,0.11-0.006,0.22-0.013,0.33c-0.013,0.189-0.108,0.304-0.305,0.318
	c-0.11,0.007-0.22,0.014-0.33,0.014c-1.817,0.006-3.633,0.026-5.45-0.099c-1.511-0.104-3.02-0.215-4.523-0.399
	c-0.846-0.104-1.69-0.231-2.534-0.352c-0.212-0.03-0.245-0.167-0.086-0.35c0.181-0.208,0.372-0.406,0.556-0.611
	c1.289-1.444,2.415-3.003,3.337-4.706c0.141-0.259,0.318-0.508,0.364-0.875c-0.236-0.007-0.36,0.142-0.495,0.25
	c-1.462,1.171-2.964,2.29-4.536,3.309c-1.016,0.658-2.064,1.267-3.092,1.908c-0.298,0.186-0.581,0.222-0.935,0.15
	c-1.321-0.268-2.65-0.494-3.976-0.737c-0.081-0.015-0.161-0.038-0.24-0.062c-0.219-0.066-0.28-0.161-0.209-0.359
	c0.084-0.233,0.18-0.461,0.275-0.69c2.489-6.02,5.506-11.764,9.012-17.252c1.186-1.857,2.436-3.67,3.711-5.466
	c0.3-0.423,0.647-0.683,1.166-0.825c4.194-1.153,8.427-2.138,12.714-2.869c2.686-0.458,5.389-0.794,8.116-0.927
	c1.516-0.074,3.026-0.112,4.537,0.042c0.077,0.008,0.162,0.007,0.202,0.1c0.041,0.093-0.012,0.16-0.066,0.219
	c-0.555,0.612-1.131,1.206-1.666,1.834c-4.526,5.309-7.997,11.249-10.581,17.719c-0.306,0.767-0.586,1.544-0.878,2.315
	c-0.083-0.002-0.167-0.004-0.25-0.006c0.616-4.089,1.676-8.056,3.268-11.876c0.911-2.185,2.005-4.274,3.376-6.208
	c0.209-0.156,0.37-0.345,0.417-0.612c0.058-0.029,0.066-0.053,0.021-0.062c-0.008-0.002-0.023,0.031-0.035,0.048
	C183.552,118.141,183.392,118.252,183.299,118.461z M169.001,127.35c0.248-0.484,0.287-0.523,0.108-0.836
	c-0.132-0.23-0.162-0.356,0.039-0.559c0.222-0.224,0.215-0.552,0.252-0.853c0.069-0.572,0.15-1.142,0.228-1.713
	c0.01-0.071,0.053-0.083,0.119-0.078c0.064,0.005,0.098,0.024,0.104,0.096c0.007,0.082,0.027,0.163,0.028,0.244
	c0.005,0.55,0.009,1.1,0.008,1.65c0,0.306,0.009,0.607,0.235,0.85c0.089,0.095,0.055,0.178-0.011,0.286
	c-0.268,0.441-0.261,0.445-0.081,0.988c0.343-0.309,0.749-0.474,1.16-0.627c0.393-0.146,0.752-0.337,1.029-0.661
	c0.089-0.104,0.179-0.213,0.332-0.219c0.268-0.01,0.295-0.211,0.307-0.404c0.012-0.191,0.003-0.385-0.016-0.576
	c-0.007-0.071-0.053-0.161-0.11-0.198c-0.08-0.052-0.149,0.011-0.185,0.093c-0.308,0.713-0.997,0.898-1.622,1.17
	c-0.114,0.05-0.225-0.008-0.28-0.107c-0.092-0.166-0.188-0.338-0.235-0.52c-0.109-0.426-0.179-0.861-0.183-1.304
	c-0.006-0.644-0.019-1.288-0.029-1.922c0.05-0.02,0.075-0.039,0.1-0.039c0.467-0.004,0.934-0.005,1.401-0.009
	c0.025,0,0.064-0.009,0.072-0.026c0.009-0.02-0.008-0.052-0.022-0.119c-0.364-0.034-0.743-0.06-1.119-0.106
	c-0.437-0.054-0.571-0.4-0.301-0.761c0.098-0.131,0.23-0.241,0.311-0.38c0.161-0.278,0.093-0.621-0.155-0.82
	c-0.249-0.2-0.533-0.277-0.85-0.187c-0.481,0.136-0.685,0.59-0.453,1.037c0.075,0.145,0.202,0.262,0.275,0.408
	c0.145,0.29-0.065,0.621-0.395,0.62c-0.33-0.001-0.659-0.029-0.989-0.038c-0.104-0.003-0.217,0.01-0.17,0.174
	c0.082,0.009,0.163,0.021,0.245,0.028c0.382,0.03,0.772-0.003,1.141,0.139c0.202,0.401-0.031,0.792-0.041,1.187
	c-0.017,0.661-0.167,1.309-0.378,1.937c-0.086,0.255-0.166,0.553-0.456,0.651c-0.235,0.08-0.379-0.179-0.585-0.248
	c-0.469-0.157-0.777-0.503-0.989-0.94c-0.036-0.074-0.062-0.154-0.105-0.224c-0.055-0.091-0.154-0.079-0.192-0.008
	c-0.177,0.328-0.174,0.682-0.127,1.041c0.034,0.257,0.287,0.068,0.385,0.194c0.034,0.043,0.079,0.079,0.106,0.125
	c0.248,0.425,0.645,0.666,1.069,0.874C168.349,126.842,168.684,127.08,169.001,127.35z"/>
<path style="fill:#FDFEFE;" d="M119.186,85.931c-0.739,0.421-1.497,0.81-2.178,1.328c-0.117,0.089-0.219,0.011-0.274-0.077
	c-0.101-0.163-0.173-0.343-0.26-0.515c-0.485-0.957-0.952-1.924-1.466-2.864c-0.213-0.389-0.184-0.695,0.015-1.073
	c1.099-2.095,2.174-4.202,3.257-6.305c2.48-4.818,4.96-9.636,7.442-14.453c0.124-0.24,0.191-0.519,0.434-0.688
	c0.198,0.133,0.251,0.353,0.347,0.543c4.976,9.874,9.951,19.749,14.925,29.625c0.301,0.597,0.297,0.596-0.317,0.746
	c-1.416,0.344-2.832,0.688-4.245,1.042c-0.269,0.067-0.527,0.161-0.808,0.08c0.054-0.36-0.174-0.626-0.319-0.913
	c-2.291-4.57-4.587-9.137-6.883-13.705c-0.827-1.645-1.652-3.292-2.485-4.934c-0.131-0.259-0.212-0.566-0.499-0.71
	c-0.225,0.137-0.289,0.358-0.388,0.55c-1.996,3.856-3.991,7.714-5.98,11.574C119.378,85.42,119.206,85.645,119.186,85.931z"/>
<path style="fill:#7EA1D9;" d="M119.186,85.931c0.02-0.286,0.193-0.512,0.317-0.753c1.99-3.86,3.984-7.717,5.98-11.574
	c0.099-0.192,0.164-0.413,0.388-0.55c0.287,0.144,0.368,0.451,0.499,0.71c0.833,1.642,1.658,3.289,2.485,4.934
	c2.296,4.568,4.592,9.135,6.883,13.705c0.144,0.288,0.373,0.554,0.319,0.913c-0.203,0.274-0.535,0.253-0.813,0.331
	c-1.96,0.55-3.931,1.059-5.886,1.625c-2.22,0.642-4.426,1.329-6.638,1.996c-0.184,0.056-0.368,0.113-0.554,0.164
	c-0.121,0.033-0.226-0.019-0.284-0.115c-0.114-0.188-0.214-0.384-0.31-0.582c-0.255-0.526-0.259-0.534,0.149-0.909
	c0.466-0.429,0.951-0.837,1.412-1.271c0.204-0.192,0.419-0.247,0.678-0.177c1.017,0.271,1.903-0.048,2.721-0.625
	c0.743-0.525,1.429-1.125,2.083-1.755c0.567-0.547,0.946-1.21,0.994-2.028c0.041-0.689-0.15-1.301-0.54-1.865
	c-0.488-0.704-1.148-1.008-1.993-0.875c-0.269,0.042-0.544,0.108-0.793,0.218c-1.221,0.54-2.324,1.258-3.223,2.257
	c-0.562,0.624-0.966,1.338-1.094,2.183c-0.025,0.165-0.042,0.331-0.18,0.446c-0.546,0.456-1.081,0.925-1.638,1.32
	c-0.19-0.086-0.245-0.215-0.304-0.336c-0.426-0.867-0.526-0.711,0.317-1.259c0.604-0.393,1.164-0.836,1.615-1.401
	c0.549-0.688,0.881-1.458,0.842-2.357c-0.043-0.989-0.523-1.725-1.353-2.23c-0.434-0.264-0.915-0.366-1.429-0.243
	C119.622,85.88,119.402,85.898,119.186,85.931z"/>
<path style="fill:#FDFEFE;" d="M82.49,111.504c-1.623,0.051-3.247,0.11-4.87,0.152c-2.862,0.074-5.725,0.137-8.587,0.204
	c-0.138,0.003-0.275,0.007-0.413,0.007c-0.199,0-0.298,0.119-0.343,0.293c-0.124,0.479-0.243,0.96-0.365,1.439
	c-0.44,1.732-0.891,3.462-1.314,5.198c-0.094,0.387-0.243,0.642-0.653,0.744c-0.344,0.086-0.674,0.235-1.006,0.368
	c-0.246,0.099-0.407,0.02-0.565-0.181c-0.815-1.04-1.65-2.064-2.457-3.11c-0.284-0.368-0.601-0.573-1.075-0.663
	c-1.728-0.328-3.446-0.711-5.167-1.079c-0.466-0.1-0.91-0.094-1.378,0.041c-1.954,0.564-3.916,1.099-5.876,1.643
	c-0.233,0.065-0.469,0.118-0.786,0.197c0.115-0.502,0.352-0.862,0.547-1.238c0.087-0.167,0.267-0.174,0.424-0.219
	c1.478-0.428,2.955-0.861,4.434-1.288c5.018-1.447,10.037-2.885,15.051-4.345c0.49-0.143,0.959-0.193,1.459-0.12
	c1.334,0.195,2.67,0.373,4.004,0.561c1.77,0.249,3.541,0.5,5.311,0.753c1.198,0.171,2.396,0.345,3.593,0.518
	C82.465,111.422,82.475,111.464,82.49,111.504z"/>
<path style="fill:#7EA1D9;" d="M25.754,130.367c-0.014-0.236,0.125-0.418,0.225-0.61c2.154-4.115,4.31-8.23,6.468-12.343
	c0.255-0.486,0.522-0.966,0.783-1.449c0.354,0.66,0.803,1.241,1.396,1.708c0.955,0.752,2.02,1.11,3.233,0.861
	c0.333-0.069,0.579,0,0.832,0.209c0.403,0.332,0.829,0.636,1.238,0.961c0.216,0.171,0.223,0.239,0.086,0.488
	c-0.066,0.12-0.141,0.236-0.213,0.353c-1.379,2.251-2.767,4.496-4.129,6.757c-0.26,0.432-0.571,0.669-1.068,0.796
	c-2.741,0.702-5.473,1.443-8.207,2.174C26.186,130.329,25.98,130.409,25.754,130.367z"/>
<path style="fill:#FDFEFE;" d="M76.839,82.473c-0.576-0.027-1.045-0.2-1.526-0.306c-0.337-0.074-0.391-0.05-0.458,0.269
	c-0.226,1.076-0.445,2.153-0.666,3.23c-0.663,3.231-1.328,6.462-1.985,9.694c-0.054,0.264-0.143,0.438-0.435,0.52
	c-1.851,0.52-3.697,1.059-5.545,1.588c-0.047,0.014-0.106-0.012-0.202-0.026c-0.009-0.272,0.147-0.495,0.249-0.727
	c2.284-5.181,4.571-10.36,6.858-15.54c0.633-1.433,1.264-2.867,1.896-4.3c0.078-0.176,0.149-0.356,0.241-0.524
	c0.052-0.095,0.141-0.169,0.27-0.126c0.078,0.026,0.157,0.051,0.235,0.078c0.879,0.297,0.714,0.139,0.772,1.001
	c0.102,1.51,0.199,3.02,0.295,4.53C76.85,82.022,76.839,82.211,76.839,82.473z"/>
<path style="fill:#FDFEFE;" d="M77.956,102.433c-1.786-0.089-3.572-0.179-5.358-0.266c-0.495-0.024-0.989-0.049-1.484-0.061
	c-0.369-0.009-0.408,0.022-0.508,0.389c-0.181,0.663-0.351,1.328-0.525,1.993c-0.028,0.106-0.053,0.214-0.072,0.322
	c-0.064,0.359-0.247,0.541-0.63,0.644c-2.52,0.68-5.029,1.396-7.543,2.097c-1.879,0.524-3.759,1.042-5.638,1.565
	c-0.131,0.036-0.256,0.106-0.394,0.027c0.005-0.204,0.139-0.351,0.233-0.511c0.767-1.303,1.556-2.594,2.303-3.908
	c0.236-0.415,0.543-0.64,0.989-0.774c3.604-1.082,7.203-2.181,10.805-3.272c0.446-0.135,0.894-0.346,1.346-0.36
	c0.452-0.014,0.911,0.173,1.366,0.275c2.305,0.518,4.611,1.038,6.915,1.558c0.134,0.03,0.265,0.074,0.397,0.111
	c-0.107,0.222-0.313,0.174-0.496,0.176C79.093,102.443,78.524,102.355,77.956,102.433z"/>
<path style="fill:#F8F6F7;" d="M45.608,120.808c0.95-0.25,1.854-0.486,2.756-0.727c1.567-0.418,3.135-0.838,4.701-1.262
	c0.403-0.109,0.79-0.131,1.213-0.05c1.753,0.332,3.514,0.624,5.291,0.934c-0.135,0.262-0.355,0.185-0.528,0.194
	c-1.567,0.084-3.136,0.154-4.703,0.234c-0.326,0.017-0.704-0.089-0.966,0.109c-0.302,0.228-0.205,0.66-0.281,0.999
	c-0.15,0.67-0.276,1.35-0.348,2.033c-0.041,0.39-0.238,0.501-0.566,0.574c-0.859,0.19-1.714,0.401-2.569,0.606
	c-0.61,0.146-1.219,0.295-1.844,0.446c-0.12-0.364,0.108-0.612,0.18-0.887c0.076-0.291,0.204-0.569,0.309-0.853
	c0.105-0.284,0.221-0.564,0.314-0.852c0.089-0.279,0.26-0.537,0.24-0.873c-0.432-0.076-0.815,0.116-1.207,0.204
	c-1.187,0.266-0.842,0.343-1.772-0.528C45.752,121.038,45.702,120.938,45.608,120.808z"/>
<path style="fill:#F8F6F7;" d="M92.517,108.869c0.014-0.07,0.011-0.154,0.045-0.216c0.54-0.987,1.09-1.969,1.624-2.959
	c0.138-0.255,0.321-0.424,0.587-0.54c1.962-0.853,3.921-1.714,5.878-2.579c0.207-0.092,0.405-0.146,0.634-0.097
	c0.777,0.167,1.556,0.323,2.337,0.483c-0.043,0.213-0.22,0.233-0.358,0.291c-0.531,0.222-1.068,0.433-1.599,0.655
	c-0.369,0.155-0.382,0.194-0.347,0.54c0.03,0.297,0.247,0.61,0.096,0.88c-0.166,0.296-0.56,0.311-0.858,0.431
	c-2.518,1.016-5.039,2.023-7.56,3.032C92.849,108.849,92.71,108.959,92.517,108.869z"/>
<path style="fill:#F8F6F7;" d="M114.976,94.51c0.39,0.789,0.777,1.573,1.156,2.34c-0.13,0.303-0.389,0.428-0.597,0.601
	c-0.591,0.494-1.198,0.969-1.788,1.464c-0.205,0.172-0.416,0.24-0.68,0.2c-0.87-0.13-1.742-0.249-2.613-0.377
	c-0.075-0.011-0.143-0.065-0.21-0.097c0.014-0.067,0.008-0.133,0.037-0.161C111.409,97.421,114.429,94.865,114.976,94.51z"/>
<path style="fill:#F8F6F7;" d="M149.015,85.816c0.724,1.462,1.378,2.783,2.022,4.082c-0.046,0.201-0.198,0.216-0.321,0.241
	c-1.261,0.256-2.523,0.505-3.786,0.753c-0.127,0.025-0.26,0.105-0.431-0.044C147.293,89.217,148.114,87.583,149.015,85.816z"/>
<path style="fill:#F8F6F7;" d="M39.665,127.099c0.828-1.485,1.572-2.821,2.347-4.212c0.679,0.472,1.305,0.907,1.932,1.342
	c0.131,0.091,0.156,0.215,0.111,0.359c-0.141,0.444-0.285,0.888-0.423,1.333c-0.054,0.174-0.158,0.273-0.338,0.315
	C42.15,126.505,41.007,126.78,39.665,127.099z"/>
<path style="fill:#7EA1D9;" d="M77.956,102.433c0.569-0.078,1.137,0.01,1.705,0.006c0.184-0.001,0.389,0.047,0.496-0.176
	c0.428-0.078,0.79,0.21,1.248,0.18c-0.111,0.244-0.294,0.17-0.421,0.171C79.972,102.62,78.962,102.549,77.956,102.433z"/>
<path style="fill:#848482;" d="M176.732,136.837c0.083,0.002,0.167,0.003,0.25,0.006c-0.067,0.314-0.12,0.633-0.388,0.961
	C176.566,137.42,176.669,137.131,176.732,136.837z"/>
<path style="fill:#848482;" d="M183.794,118.141c-0.047,0.267-0.208,0.456-0.417,0.612c-0.025-0.098-0.052-0.195-0.078-0.292
	c0.093-0.209,0.253-0.321,0.481-0.334L183.794,118.141z"/>
<path style="fill:#7EA1D9;" d="M82.49,111.504c-0.015-0.04-0.025-0.082-0.029-0.124c0.184-0.055,0.361-0.018,0.54,0.035
	C82.854,111.594,82.672,111.548,82.49,111.504z"/>
<path style="fill:#848482;" d="M148.026,134.926c0.008,0.023,0.026,0.049,0.021,0.07c-0.019,0.078-0.057,0.086-0.091,0.021
	c-0.009-0.018,0.002-0.053,0.014-0.073C147.978,134.93,148.007,134.931,148.026,134.926z"/>
<path style="fill:#202F42;" d="M142.279,116.816c0.548,1.278,0.537,2.676,0.032,3.797c-0.049-0.004-0.126,0.01-0.142-0.015
	c-0.333-0.51-0.377-0.7-0.836-0.044c-0.535,0.766-1.253,1.306-2.113,1.662c-0.178,0.074-0.355,0.15-0.536,0.216
	c-1.089,0.399-2.166,0.818-3.015,1.657c-0.034,0.034-0.101,0.056-0.149,0.051c-0.095-0.009-0.135-0.091-0.136-0.174
	c-0.006-0.495-0.014-0.991-0.005-1.487c0.007-0.353,0.176-0.634,0.462-0.835c0.223-0.156,0.46-0.293,0.721-0.458
	c-0.128-0.064-0.222-0.119-0.322-0.161c-0.387-0.16-0.594-0.467-0.726-0.849c-0.129-0.372-0.148-0.753-0.148-1.14
	c-0.003-2.396-0.008-4.792-0.015-7.188c-0.001-0.247-0.011-0.495-0.029-0.742c-0.003-0.039-0.057-0.092-0.099-0.109
	c-0.106-0.042-0.157,0.047-0.168,0.12c-0.065,0.435-0.126,0.871-0.176,1.308c-0.186,1.64-0.363,3.281-0.552,4.921
	c-0.079,0.683-0.186,1.363-0.273,2.045c-0.09,0.712-0.421,1.241-1.111,1.511c-0.046,0.018-0.078,0.073-0.134,0.127
	c0.203,0.183,0.409,0.358,0.603,0.545c0.184,0.178,0.297,0.397,0.297,0.66c-0.001,0.625-0.061,1.241-0.222,1.853
	c-0.294-0.071-0.357-0.314-0.511-0.461c-0.421-0.402-0.876-0.754-1.386-1.034c-0.507-0.278-1.011-0.562-1.527-0.823
	c-0.887-0.449-1.577-1.096-2.055-1.969c-0.091-0.166-0.152-0.359-0.339-0.455c-0.118,0.015-0.187,0.099-0.268,0.174
	c-0.109,0.102-0.136,0.358-0.348,0.271c-0.17-0.069-0.118-0.286-0.152-0.44c-0.238-1.096-0.008-2.131,0.418-3.138
	c0.03-0.071,0.099-0.125,0.193-0.24c0.299,0.986,0.628,1.901,1.362,2.615c0.72,0.7,1.594,1.055,2.536,1.275
	c0.039,0.206-0.123,0.229-0.227,0.306c-0.035,0.026-0.065,0.093-0.058,0.135c0.015,0.094,0.1,0.118,0.183,0.119
	c0.329,0.006,0.576-0.163,0.79-0.388c0.288-0.303,0.485-0.664,0.649-1.047c0.371-0.867,0.583-1.78,0.755-2.699
	c0.264-1.406,0.451-2.827,0.527-4.257c0.021-0.397,0.135-0.688,0.488-0.875c0.072-0.038,0.139-0.083,0.164-0.097
	c-0.014-0.108-0.009-0.14-0.022-0.157c-0.015-0.019-0.047-0.033-0.073-0.036c-0.354-0.046-0.708-0.102-1.064-0.132
	c-0.822-0.07-1.645-0.128-2.468-0.188c-0.19-0.014-0.381-0.053-0.569,0.031c-0.108,0.048-0.225,0.241-0.339,0.061
	c-0.1-0.157,0.029-0.554,0.295-0.579c0.137-0.013,0.275-0.03,0.411-0.022c0.577,0.031,1.153,0.074,1.73,0.107
	c0.439,0.025,0.879,0.053,1.319,0.057c0.314,0.003,0.39-0.072,0.451-0.364c0.034-0.162,0.032-0.334,0.085-0.487
	c0.168-0.48,0.028-0.783-0.377-1.123c-0.914-0.768-0.875-1.991-0.045-2.747c0.636-0.579,2.404-0.605,3.084,0.294
	c0.567,0.749,0.435,1.857-0.346,2.514c-0.104,0.088-0.224,0.162-0.345,0.226c-0.225,0.119-0.298,0.308-0.286,0.547
	c0.014,0.275,0.016,0.551,0.038,0.825c0.032,0.394,0.091,0.454,0.517,0.482c0.879,0.058,1.758,0.105,2.637,0.155
	c0.137,0.008,0.275,0.009,0.413,0.017c0.167,0.01,0.343,0.027,0.448,0.17c0.14,0.189,0.147,0.401,0.03,0.614
	c-0.432-0.29-0.432-0.284-0.901-0.297c-1.073-0.031-2.148,0.007-3.217-0.131c-0.132-0.017-0.269-0.002-0.409-0.002
	c0.012,0.098-0.002,0.176,0.027,0.198c0.413,0.31,0.517,0.713,0.495,1.223c-0.042,0.99-0.046,1.983-0.006,2.973
	c0.053,1.292,0.151,2.583,0.498,3.839c0.133,0.48,0.296,0.948,0.657,1.316c0.177,0.18,0.367,0.34,0.636,0.342
	c0.107,0.001,0.283,0.008,0.309-0.046c0.086-0.179-0.121-0.185-0.211-0.259c-0.063-0.051-0.14-0.098-0.12-0.188
	c0.021-0.097,0.117-0.105,0.197-0.118c0.298-0.049,0.604-0.067,0.894-0.146c1.299-0.354,2.22-1.172,2.825-2.362
	c0.062-0.123,0.116-0.25,0.174-0.374C142.113,117.174,142.17,117.052,142.279,116.816z M134.665,106.842
	c-0.042,0.458,0.243,0.818,0.683,0.863c0.443,0.045,0.814-0.262,0.846-0.7c0.033-0.446-0.261-0.828-0.68-0.883
	C135.121,106.071,134.703,106.425,134.665,106.842z M135.327,109.335c-0.021-0.004-0.042-0.007-0.063-0.011
	c-0.055,0.363-0.113,0.725-0.163,1.088c-0.011,0.083,0.028,0.161,0.129,0.149c0.036-0.004,0.092-0.064,0.093-0.099
	C135.33,110.086,135.327,109.711,135.327,109.335z"/>
<path style="fill:#202F42;" d="M169.001,127.35c-0.317-0.27-0.652-0.509-1.023-0.691c-0.424-0.208-0.821-0.45-1.069-0.874
	c-0.027-0.046-0.072-0.082-0.106-0.125c-0.098-0.125-0.351,0.063-0.385-0.194c-0.047-0.359-0.05-0.713,0.127-1.041
	c0.038-0.071,0.136-0.083,0.192,0.008c0.042,0.07,0.069,0.15,0.105,0.224c0.212,0.437,0.519,0.783,0.989,0.94
	c0.206,0.069,0.349,0.328,0.585,0.248c0.289-0.098,0.37-0.397,0.456-0.651c0.211-0.627,0.362-1.275,0.378-1.937
	c0.01-0.396,0.243-0.786,0.041-1.187c-0.369-0.142-0.758-0.109-1.141-0.139c-0.082-0.006-0.164-0.018-0.245-0.028
	c-0.047-0.164,0.066-0.177,0.17-0.174c0.33,0.009,0.659,0.038,0.989,0.038c0.33,0.001,0.54-0.33,0.395-0.62
	c-0.073-0.145-0.2-0.263-0.275-0.408c-0.232-0.447-0.029-0.901,0.453-1.037c0.317-0.09,0.601-0.013,0.85,0.187
	c0.248,0.199,0.316,0.542,0.155,0.82c-0.081,0.14-0.212,0.249-0.311,0.38c-0.27,0.361-0.136,0.707,0.301,0.761
	c0.376,0.047,0.755,0.073,1.119,0.106c0.014,0.067,0.031,0.099,0.022,0.119c-0.008,0.017-0.047,0.026-0.072,0.026
	c-0.467,0.004-0.934,0.005-1.401,0.009c-0.025,0-0.05,0.019-0.1,0.039c0.01,0.634,0.023,1.278,0.029,1.922
	c0.004,0.443,0.074,0.878,0.183,1.304c0.046,0.182,0.142,0.354,0.235,0.52c0.055,0.099,0.166,0.157,0.28,0.107
	c0.625-0.272,1.314-0.457,1.622-1.17c0.035-0.082,0.105-0.145,0.185-0.093c0.057,0.037,0.103,0.127,0.11,0.198
	c0.019,0.191,0.028,0.384,0.016,0.576c-0.012,0.193-0.039,0.394-0.307,0.404c-0.153,0.006-0.244,0.115-0.332,0.219
	c-0.277,0.324-0.636,0.515-1.029,0.661c-0.41,0.153-0.817,0.318-1.16,0.627c-0.18-0.544-0.187-0.547,0.081-0.988
	c0.066-0.108,0.099-0.19,0.011-0.286c-0.227-0.244-0.236-0.544-0.235-0.85c0-0.55-0.003-1.1-0.008-1.65
	c-0.001-0.082-0.02-0.163-0.028-0.244c-0.006-0.072-0.04-0.091-0.104-0.096c-0.065-0.006-0.109,0.006-0.119,0.078
	c-0.078,0.571-0.159,1.141-0.228,1.713c-0.037,0.301-0.029,0.63-0.252,0.853c-0.201,0.202-0.171,0.329-0.039,0.559
	C169.288,126.827,169.248,126.866,169.001,127.35z M170.196,120.401c-0.023-0.157-0.203-0.287-0.353-0.255
	c-0.151,0.032-0.28,0.229-0.229,0.369c0.05,0.134,0.149,0.223,0.304,0.216C170.084,120.722,170.22,120.558,170.196,120.401z"/>
<path style="fill:#848482;" d="M183.78,118.128c0.012-0.017,0.027-0.05,0.035-0.048c0.045,0.009,0.037,0.033-0.021,0.062
	C183.794,118.141,183.78,118.128,183.78,118.128z"/>
<path style="fill:#848482;" d="M134.665,106.842c0.038-0.417,0.456-0.771,0.849-0.72c0.419,0.054,0.713,0.436,0.68,0.883
	c-0.032,0.438-0.403,0.745-0.846,0.7C134.908,107.66,134.623,107.3,134.665,106.842z"/>
<path style="fill:#848482;" d="M135.327,109.335c0,0.376,0.003,0.751-0.004,1.127c-0.001,0.035-0.057,0.095-0.093,0.099
	c-0.1,0.012-0.14-0.067-0.129-0.149c0.05-0.363,0.108-0.725,0.163-1.088C135.286,109.327,135.306,109.331,135.327,109.335z"/>
<path style="fill:#7EA1D9;" d="M170.196,120.401c0.023,0.157-0.112,0.321-0.278,0.329c-0.155,0.007-0.254-0.081-0.304-0.216
	c-0.052-0.14,0.078-0.337,0.229-0.369C169.993,120.114,170.173,120.244,170.196,120.401z"/>
</svg>
