<svg version="1.1" id="Layer_1" xmlns="http://www.w3.org/2000/svg" x="0" y="0" viewBox="0 0 200 200" xml:space="preserve"><style>.anc_st0{fill:#1f2e41}.anc_st1{fill:#fefefe}.anc_st2{fill:#848482}.anc_st3{fill:#97b2d4}.anc_st4{fill:#fdfdfd}.anc_st6{fill:#fcfcfd}.anc_st8{fill:#fbfcfc}.anc_st9{fill:#fcfcfc}.anc_st10{fill:#fbfbfb}.anc_st11{fill:#253346}</style><path class="anc_st0" d="M7.4 159c2.4-4 4.4-8 6.5-12l-3-.7-2.4-.5a1 1 0 01-.4-.2c-1.1-1-1.9-2-2.2-3.5a18 18 0 01-.5-3.2c0-2.2-.1-4.3.1-6.5l.4-2c0-.4 0-.7-.3-1a6.1 6.1 0 01-1.5-2.4c-.5-1.5-.8-3-1-4.5a61.6 61.6 0 011-17C2 103.6.9 101 .4 98.2a33.2 33.2 0 013-20 23 23 0 016.7-8c2.6-2 5.6-3 8.9-3.1 1.9 0 3.6.2 5.4.9 2.6 1 5.2 1.8 7.9 2.7l.5.1c.1-.1 0-.3 0-.4l-1.6-8.6c-.2-.8 0-1.6 0-2.5l.3-.6 8-10.2c.6-.8 1.2-1.5 2-2.2.2-.2.4-.3.8-.3 2 0 3.9.2 5.8.3l2 .1c.3 0 .6 0 .8-.3l8-8c.4-.4.8-.6 1.3-.6 1 0 1 0 1-.8a386.8 386.8 0 001-5.5c.7-.7 1.4-1 2.4-1 1.2 0 2.3.3 3.5.5l8.8 1.4 8.9 1.4 8 1.2c.3 0 .5.2.8.4.8.6 1 1.3 1 2.2l-.5 5c0 .4 0 .4.4.6h.2l1.4 1.6 1.7 3.1c.3 0 .4-.2.6-.4 8.9-7.3 18.2-14.2 28-20.4 9.5-6 19.6-11.1 30-15.4 6.6-2.6 13.2-5 19.8-7 .3-.2.5-.2.7.1 2.3 4.4 5 8.6 7.2 13a108 108 0 0113.7 44.8A192.1 192.1 0 01200 90a8 8 0 01-.9 3.5c-2.7 5.8-5 11.8-7.3 17.8-3.3 9-6.4 18-9.5 27.2l-.6 1.8c-.1.2-.1.3.2.4 3.5 1 6.4 2.9 8.9 5.5 2.4 2.6 3.9 5.7 4.7 9.2.7 2.7.9 5.5.8 8.3 0 1.9-.3 3.7-.5 5.5 0 .2 0 .3-.2.4l-.5-.5a5.6 5.6 0 00-4-1.6c-1 0-1.7.3-2.6.6a13 13 0 00-3.4 2l-30 24.7-1 1h-.6l-26.1-6.5-32.7-8.3-36.9-9.3-33.6-8.4L8 159.2l-.5-.2zm184.5 3.2v-.1-.3c-.3-2.9-1.1-5.6-2.5-8.2-1-2-2.5-3.6-4.4-4.9a32.2 32.2 0 00-10.5-4.2c-.5 0-.6 0-.4-.6l.1-.3 6-18.3a372.2 372.2 0 0114.3-36.8 204.9 204.9 0 00-3.4-37.4 133.2 133.2 0 00-15.7-38.6c-.4-.6-.3-.6-1-.4a219.8 219.8 0 00-76.7 44.3l-.7.5c-.2-.1-.2-.3-.3-.5l-4.3-7.9c-.1-.3-.3-.4-.7-.5l-2.6-.5c-.3 0-.4-.1-.4-.4v-.3l.8-6.7c0-.3 0-.4-.4-.5l-9.4-1.4-8.2-1.3-4-.6c-.3 0-.4 0-.4.3v.3c-.5 2.2-.8 4.4-1.2 6.7 0 .4 0 .4-.5.3l-3-.6c-.5-.1-.8 0-1.2.4l-7.9 8a1 1 0 01-1 .3l-1.5-.1-5.7-.5c-.3 0-.5.1-.8.4l-7 8.6a1 1 0 00-.2.8l2.3 12.5c0 .4.2.5.6.6l9.6 2.4c.4 0 .5.2.6.6l1.5 5.6c0 .1.1.2 0 .4l-.5-.1-30.5-10.3c-1-.4-2-.3-3 0A16.4 16.4 0 009.3 80a22 22 0 00-2.4 5.6c-1 3.5-1.4 7.1-.8 10.8.3 1.7.9 3.4 1.8 5l.7.5 2.3.6 1.8.6a9.8 9.8 0 00-2.5 4 33 33 0 00-1.6 13.6c0 1.3.3 2.4.8 3.5.5 1 1 1.6 2.2 1.7a6 6 0 011.8.3c-.6 1-1.1 2-1.4 3-1 3-1.1 6-1 9 .1.7.3 1.5.6 2.2.1.4.3.5.6.6l8.8 1.8c.5 0 1 .1 1.4.3 0 .3-.2.5-.3.6l-5.4 11c-.3.6-.3.6.3.7l14.1 3.5 37.3 9.3 45 11.3 38.3 9.5c.5.1.8 0 1.2-.2l28.7-23.9c1.3-1 2.7-2 4.3-2.5 1.3-.6 2.7-.9 4.2-.7.6 0 1.2.3 1.8.5z"/><path class="anc_st1" d="M192 162.2c-.7-.2-1.3-.5-1.9-.5-1.5-.2-2.9.1-4.2.6-1.6.7-3 1.5-4.3 2.6l-28.7 23.8c-.3.4-.7.4-1.1.3l-38.4-9.6-45-11.2-37.3-9.3-14-3.5c-.7-.2-.7-.2-.4-.8l5.4-10.9.3-.6c-.4-.2-1-.2-1.4-.3l-8.8-1.9c-.3 0-.5-.2-.6-.5-.3-.7-.4-1.5-.5-2.3-.2-3 0-6 .9-9 .3-1 .8-2 1.4-3a6 6 0 00-1.8-.3c-1.2 0-1.7-.7-2.2-1.6-.5-1-.7-2.3-.9-3.5a33 33 0 012-14.4c.6-1.4 1-1.9 2.2-3.2l-1.8-.6-2.3-.6c-.3-.1-.5-.3-.7-.6-.9-1.5-1.5-3.2-1.8-5-.6-3.6-.2-7.2.8-10.8.6-2 1.3-3.8 2.4-5.5 2-3.3 4.7-5.7 8.4-7 1-.5 2-.5 3-.1L51.2 83l.5.1c.1-.1 0-.2 0-.4l-1.5-5.6c0-.3-.2-.5-.6-.6L40 74.3c-.4 0-.6-.3-.6-.7L37 61.2c0-.3 0-.6.2-.8l7-8.7c.3-.2.5-.3.8-.3l5.7.4 1.6.1c.4 0 .6 0 1-.3l7.8-8c.4-.3.7-.5 1.2-.3l3 .6c.4 0 .4 0 .5-.4L67 37v-.4c0-.3.2-.3.5-.3l4 .7 8.2 1.2 9.4 1.5c.3 0 .4.1.4.5l-.7 6.7v.2c-.1.4 0 .5.3.5l2.6.5c.4 0 .6.2.7.5l4.3 7.9.3.5.7-.6a315 315 0 0127.5-20.6 196.6 196.6 0 0149.2-23.6c.7-.3.6-.2 1 .3A133.2 133.2 0 01191 51a141 141 0 013 23 204.9 204.9 0 01.2 15.4c-5.4 11.7-10 23.7-14.1 35.9l-6 18.3v.2c-.2.6-.2.6.3.7a34.7 34.7 0 0110.5 4.2c1.9 1.2 3.4 2.8 4.4 4.8a24.2 24.2 0 012.6 8.5v.2zM35.6 128.3c-.3.1-.6 0-.8 0l-4-.5-10.7-1.3c-.5 0-.8 0-1.1.4a6 6 0 00-1.6 2.6c-.5 1.6-.6 3.3-.5 5 0 .7.1 1.4.3 2 .2.5.5.7 1 .8l10.6 2.6 2.4.6c0 .2-.2.4-.3.5l-4.8 8c-.3.6-.3.6.3.7h.1l20.8 5.5 36.6 9.6a222986.8 222986.8 0 0167 17.5c.4 0 .7 0 1-.2l4-3.2c6.4-5.3 12.8-10.5 19.4-15.6a41 41 0 015.6-3.8 15.2 15.2 0 016.6-2v-.1l-.1-.4a15 15 0 00-3.5-4.6 15 15 0 00-5.6-3 18 18 0 00-9.7-.6l-1 .2.1-.3c2.6-10.3 5.4-20.7 8.4-31a265.3 265.3 0 0111.6-32.2 218.7 218.7 0 00-1.6-25.2A122.8 122.8 0 00173 21c-.2-.3-.4-.4-.7-.3l-1.2.4A173.8 173.8 0 00117 49.3a359 359 0 00-19.2 15c-.3.2-.6.3-1 .3l-2.3-.2c-.4 0-.7-.1-.9-.5l-5.4-10c-.2-.4-.4-.6-.8-.7l-4.7-1c-.5 0-.5 0-.5-.5l.6-4.3c0-1 .2-2 .3-2.8 0-.3 0-.4-.3-.4h-.3l-5.1-.8-5.2-.8c-.5 0-.5 0-.6.3l-1 5.2-.4 2.7h-.4l-5.5-1.2c-.4 0-.7 0-1 .4l-6.6 8c-.3.3-.6.5-1 .4l-7.6-.2c-.3 0-.5 0-.7.3L44 63c-.1.2-.2.4-.1.7l.8 4.8c0 .4.2.5.6.6l4.6 1 5 1c.4.1.6.2.6.5v.3l1.9 8.7c.3 1.2.4 2.4 0 3.6l-.9 4.5c0 .3 0 .4-.4.4l-6.8-.7c-.5 0-1 0-1.5-.3L20 77.8c-.8-.4-1.5-.3-2.2.1-1.8 1-3.3 2.4-4.5 4.2-2 2.9-3 6-3.3 9.5-.1 1.6 0 3.1.8 4.5.2.4.5.7.9.9L36.5 108l1.4.6h-.5l-5.7-1-12.6-2.2a2 2 0 00-1.7.4c-.7.5-1.2 1.2-1.7 2a19 19 0 00-2.4 9.8c0 .6.1 1.2.4 1.8.2.6.6 1 1.2 1.2l20.3 7.3c.1 0 .3 0 .4.3z"/><path class="anc_st0" d="M35.6 128.3c0-.2-.2-.2-.4-.2-6.8-2.5-13.5-5-20.3-7.3-.6-.3-1-.6-1.2-1.2a6 6 0 01-.4-1.9 19.1 19.1 0 012.4-9.8 6 6 0 011.8-2c.5-.3 1-.4 1.7-.3l12.5 2.2 5.8 1h.5l-1.4-.6-25-11.2c-.3-.2-.6-.4-.8-.8-.7-1.4-1-3-.8-4.5.3-3.5 1.4-6.7 3.4-9.6 1.1-1.7 2.6-3.1 4.5-4.1.7-.4 1.3-.5 2.1-.2l27.8 10.4 1.5.3 6.9.7c.3 0 .3-.1.4-.4l.9-4.6c.3-1.2.2-2.3 0-3.6l-2-8.6v-.3c0-.3-.2-.4-.5-.5l-5-1-4.7-1c-.3-.1-.5-.3-.6-.7l-.8-4.8c0-.2 0-.4.2-.6l3.2-4.6c.2-.2.4-.3.7-.3l7.6.3c.5 0 .7-.1 1-.5l6.7-8c.2-.3.5-.4 1-.3l5.4 1.1h.4l.5-2.6 1-5.2c0-.4 0-.4.5-.4l5.2.8 5.2.8h.3c.2 0 .3.2.2.4l-.3 2.8-.6 4.4c0 .4 0 .4.5.5l4.7 1c.4 0 .6.3.8.6l5.4 10c.3.4.5.6 1 .6l2.2.1c.4 0 .7 0 1-.3a363 363 0 0119.2-15 174 174 0 0154.4-28.1l1.1-.3c.4-.2.5 0 .7.3a123.8 123.8 0 0113.1 39.2 173.3 173.3 0 011.5 26 267.1 267.1 0 00-11.5 31.4c-3 10.3-5.8 20.6-8.3 31v.3l.8-.2a18 18 0 019.7.5c2.1.7 4 1.6 5.6 3a15 15 0 013.6 5v.2l-1.2.1c-2 .2-3.7 1-5.3 1.8-2 1.1-3.9 2.4-5.7 3.8L156 179l-4 3.2c-.3.3-.5.3-1 .2l-27.2-7.1L84 164.8l-36.6-9.5-20.8-5.5c-.6-.1-.7-.1-.3-.7l4.7-8c.1-.2.3-.3.3-.6L29 140l-10.6-2.5c-.5-.1-.8-.4-1-.8a14.6 14.6 0 01.2-7c.4-1 .8-2 1.6-2.7.3-.3.6-.4 1.1-.4L31 128l4 .5h.8c0 .1 0 0 .1 0h-.2zm138.6 23.8l-.4-.1-2.1.1a20 20 0 00-4.8 1.3 1 1 0 00-.7.8l-2.2 8.3-.7 2.7-1 3.7.5-.4c3.1-2.7 6.2-5.3 9.5-7.6 2-1.5 4.1-2.9 6.5-3.9 1.5-.6 3.1-1 4.8-1l.2-.1c-1.6-2.2-6.2-3.8-9.6-3.8zm-109.7 3.8l1.6.4.9.3 41.3 10.7 36.5 9.5c1 .2 2 .6 3 .7.6.2 1 .4 1.6.4v-.3c-.9-3.7-2-7.4-3.5-11-1.2-3-2.6-6-4.7-8.5a45.2 45.2 0 00-15.2-12.5c-.1 0-.2-.1-.4 0l.2 1.9c.2 2 .2 4.2-.3 6.2a9.3 9.3 0 01-7.2 7.4l-2 .3.5.4 1 .8.2.1c2.1 1.4 4.4 2.2 7 2.2 1.4 0 2.8 0 4.2-.2 0 .2-.3.3-.4.4a9.8 9.8 0 01-4.8 1.3 18 18 0 01-6.7-1.3c-3.9-1.4-7.5-3.4-10.9-5.8l-8.8-6.4c-3.7-2.8-7.7-5-12-6.6-2.4-.8-4.8-1.3-7.3-1-.8 0-1.5.1-2.3.4.9.6 1.4 1.3 1.7 2.1.6 1.5.5 2.9-.3 4.2a7 7 0 01-4.4 3.4c-2.8.8-5.7.7-8.6.3-.4 0-.7-.2-1.2 0l.6.2h.7zm87.8 13.5c0 1.2.5 2.2.8 3.4l.6-1.1a504.5 504.5 0 01.9-6.5l.9-7.4.6-5.8.7-6.2.6-5.9.8-7.2.7-6 .7-7.1.7-6 .8-7.1.7-7.1.8-7.2.8-7 .8-7.2.8-7 1-9.7.3-2.2c.2 0 .3.2.5.4l1.5 1.6c3 3.7 5.3 8 7 12.4 1.5 3.7 2.7 7.5 3.8 11.3 0 .1 0 .4.2.5v-.5a142.5 142.5 0 00-2.8-22 80.4 80.4 0 00-8-21c-.3-.4-.3-.4-.8-.2h-.1a264.4 264.4 0 00-82.4 50.8A252.5 252.5 0 0065 114 335.5 335.5 0 0039.6 148l-.2.5 3.6 1.1c.6.2.6.2 1-.3a373.1 373.1 0 0137-43 193 193 0 0154-37.3c6.2-3 12.5-5.8 19-8.2l.5-.2v3l-.3 15.1v2.9A145.1 145.1 0 00119 96.2a203.7 203.7 0 00-36.3 25.5 277.3 277.3 0 00-29.1 29c-.4.5-.8.9-1 1.4l.5.2a61 61 0 007.7 1h4.4a9 9 0 004-1.5 4 4 0 001.7-2.5c.3-1.3-.2-2.4-1.4-3-1-.5-2-.7-3-.7h-1.8l2.2-1a41.2 41.2 0 0111.6-2.5c1.5-.2 3 0 4.5.4a45 45 0 018 3l5.3 2.6c3 1.6 6.1 3.3 9.2 4.8 1.9.9 3.7 1.7 5.7 2.3 1.7.5 3.4.8 5.1.5 2-.3 3.7-1.5 4.1-3.5.2-.9.3-1.7.2-2.6-.4-3-1.8-5.4-4.4-7a27.5 27.5 0 00-7-3.2l-1.9-.5 2.2-.2a70.1 70.1 0 0117 2.3c2.9.8 5.6 2 8.3 3.5 3.4 2 6.3 4.7 8.6 7.8A59.1 59.1 0 01152 169c0 .1 0 .3.3.4zM55 95l.6.3 3.7 1.5 5.4 2.1c.5.2.5.2.8-.2l1.3-1.5 3.6-4 6.2-6.7c.3-.4.5-.7.6-1.1v-.6l.1-3c0-.3 0-.5-.3-.7l-9.7-6.8c-.1-.2-.3-.3-.5-.3l-.4 1.9-1.5 8.1-1 5.6-1 5.1c0 .3-.2.4-.4.4h-1.9c-1.9-.2-3.7-.1-5.6 0zm-39.5-2.3l1.7-2.6a9 9 0 011.9-2c.3-.2.6-.2 1 0l35 13.8 5.3 2c.3.2.5.1.7-.1l.9-1 1.2-1.4-.6-.3-31-12.1-12-4.7c-.5-.2-.5-.2-.8.2-.8 1-1.6 2-2.1 3.1-.9 1.6-1.2 3.3-1.2 5zm48-21.2l.2-.6 1.8-5.3c.2-.6.2-.6.8-.5l1.7.2 3.3.4 3.5.5c1.1 0 2.2.2 3.4.4l4.3.5c.3 0 .4 0 .5-.3l.7-3c.1-.3 0-.4-.2-.4l-2.6-.4-4.9-.6-5.8-.8-6.2-.8c-.5 0-.6 0-.6.4l-.3 2.8-.2 2.6-.4 3.7v.2l1 1zm-45.4 44.4l.3-.5a6 6 0 011.3-1.2c.5-.3 1-.4 1.6-.2l16.5 4.4 8.5 2.3c.4.1.6 0 .8-.3l1.3-1.5.2-.4-.6-.2-15.6-4.1-12.1-3.2c-.3-.1-.5 0-.7.2l-1 2c-.3.8-.6 1.7-.5 2.7zm97-25l1-2.9 1.3 4 1.4-.8c.5-.3.5-.1.4-.8l-1.5-6.2-.4-1.8-1.8 1a1 1 0 00-.5.7l-.5 2.1-.3 1.2c-.3 0-.4-.2-.6-.3l-1.5-1.1c-.2-.2-.4-.2-.7 0l-1.5 1c-.3.2-.3.3-.2.7l1.6 6 .5 1.5 1.7-1c.3-.1.3-.3.2-.6l-.7-3.2v-.6l2 1.2zm18.4-6.9l2.6-1.2c1-.4 1.7-1 2.3-1.9.7-.8 1-1.7 1-2.7v-3.5l-.5-1.4c-.7-1-2-1.4-3-.8l-3.1 1.5c-.3.2-.4.3-.3.6l.4 3.8.6 5.6zm14.6-16.8l-2 .7c-.3.1-.4.3-.5.6l-2.2 10.2c-.1.5-.3.9-.3 1.4a407 407 0 002.2-1c0-.4.2-.7.3-1.1 0-.1 0-.3.2-.3l2-.8.4 1c0 .3.2.4.5.3l1.7-.6c.2 0 .4-.2.2-.5v-.2l-1.8-6.9-.7-2.8zm-44.4 31a1 1 0 011 0c.3.3.5.5.8.6.3.2.5.3.9 0l1-.7.7-.6-1.7-1.3c-.4-.3-.4-.3-.2-.8.3-.7.5-1.4.4-2.2a2 2 0 00-3-1.8l-1.2.8L100 94c-.4.3-.4.3-.2.8l2.4 6.4c0 .1 0 .3.3.4.5-.5 1.1-1 1.7-1.3.3-.2.3-.4.2-.6l-.7-1.5zM83.8 60.9l-.7-2.5c0-.3-.2-.4-.5-.5l-7.7-1.1-6.4-1c-.3 0-.5 0-.7.2l-2 2.1 18 2.8zM130 85.5l-3.8-8.2c-.6.3-1.1.7-1.7.9-.5.2-.7.5-.7 1l-.8 7.6-.3 2.3 1.7-.8c.2 0 .4-.3.4-.5 0-1 .4-1.4 1.3-1.7.3-.1.6-.5.9-.5.3 0 .4.5.6.8.1.1.2.2.4.1l2-1zm-30.8 18.3l-5-5h-.5c-.5.5-1 1-1.5 1.3-.3.2-.4.4-.3.8l.3 7.7.1.4 1.7-1.3c.3-.2.4-.4.4-.7v-.3c0-.4 0-.6.3-.7l1-.8c.6-.4.6-.4 1.2 0 .1 0 .3.2.4 0l1.9-1.4zm-61.5 28.9l-.4-.2-4.5-.6-9-1.3c-1-.2-1-.2-1.3.8-.3.7-.4 1.4-.3 2.2.2 0 .3-.2.3-.4.3-.3.7-.5 1.2-.4l2 .3 7.3 1 2.8.4c.2 0 .5.1.6-.1l1.3-1.7zM78 46.9c0-.3-.1-.4-.3-.4l-2.3-.3c-.2 0-.2 0-.3.2l-.1.9-1.1 6.2c0 .3 0 .4.3.4l2.6.5c.4 0 .4 0 .5-.4l.2-2.3.5-4.9zM59.6 64.3l-.4-.4c-.3-.4-.7-.6-1.2-.6h-1.3l-5.8-.5h-.5c-.4.3-.8.5-1.1 1l.5.5c.3.5.8.6 1.3.7 2.3 0 4.5.3 6.7.4l.5-.1 1.3-1zm28.1 4.2l.5.4c.4.4.8.6 1.3.7l1.8.4c.4 0 .8 0 1-.3l1.4-1c.1 0 .3 0 .2-.2v-.1l-4.5-.7h-.3l-1.3.8z"/><path class="anc_st2" d="M152.3 169.4c-.3 0-.3-.3-.3-.4a59.1 59.1 0 00-8.6-16.7 28.2 28.2 0 00-8.6-7.8 39.8 39.8 0 00-14.4-5 55.4 55.4 0 00-11-.9l-2 .2 1.7.6c2.5.7 5 1.7 7.1 3.1 2.6 1.7 4 4 4.4 7 0 1 0 1.8-.2 2.6-.5 2-2 3.3-4.1 3.6-1.8.3-3.5 0-5.1-.5-2-.6-3.9-1.5-5.7-2.3-3.1-1.5-6.1-3.2-9.2-4.8-1.8-1-3.5-1.9-5.3-2.7a43.9 43.9 0 00-8-3 14 14 0 00-4.6-.4 50.7 50.7 0 00-11.5 2.5l-2.2 1.1h1.7c1 0 2.1.2 3 .6 1.3.6 1.8 1.7 1.5 3a4 4 0 01-1.7 2.5 9 9 0 01-4 1.5 44.2 44.2 0 01-12.6-1.1A220.6 220.6 0 0176 127.4a301.9 301.9 0 0120.8-17 216.7 216.7 0 0129.3-18.1 160.6 160.6 0 0128-10.8l-.2 4v6.1c-.2 2-.1 3.8-.2 5.6l-.1 6-.1 5.8-.2 6.1v5.5c-.2 2-.1 4-.2 6l-.1 5.7c-.1 2 0 4-.2 6v5.8c-.2 2-.1 4-.2 6l-.1 5.6-.2 9.5v3.8l-.1.3zM139.8 98v.5c-1 2.7-1.4 5.4-1.4 8.2v2.6c0 .5 0 .5-.5.5l-2.5.1c-.4.1-.4 0-.5-.4l-1-5.9-.6-3.2c-.1-.5 0-.5.4-.5l1.2-.3c.4 0 .8-.2 1.1-.4-1.2-.7-2-1.7-2.9-2.6-1-1-1.7-2-2.4-3.2l-.2.6-1.5 5.5-.8 2c.9 0 1.6-.5 2.4-.8v.4l1.8 9c0 .3 0 .3-.4.5l-1.9.7c-.7.3-.6.4-.9-.4a22 22 0 00-4-8c-.1-.1-.3-.2-.2-.5h1.3c-2-1-4-1.5-6.2-1.3l.8.7a21 21 0 016.2 9c.4 1 .8 2 1 3.1.2.5.2.5.6.3l.4-.1 3.3-1c.5-.1.5-.1.6.3l.5 2.7.7 4c0 .3 0 .3.5.3l1.3-.2c.8 0 .8 0 .7-.8l-1.2-6.5c0-.5 0-.5.4-.6 1.6-.1 3-.3 4.6-.3.4 0 .5 0 .4-.5l-.1-2.7c0-3 .3-6 1.4-9a46 46 0 013-6.6c.2-.2.3-.3.2-.6a22.4 22.4 0 00-7 5.9c.5 0 1-.4 1.4-.5z"/><path class="anc_st1" d="M152.3 169.4v-.4l.1-3.7.2-9.5.1-5.6.1-6c.1-2 0-3.9.2-5.8v-6c.2-2 .1-3.8.2-5.7l.1-6 .1-5.5c.1-2 0-4.1.2-6.2v-5.7c.2-2 .1-4 .2-6l.1-5.6c.1-2 0-4 .2-6.1v-4l.1-2.9.3-15v-3h-.5a227 227 0 00-50.6 26.9A192 192 0 0081 106.4a373.1 373.1 0 00-37.1 43c-.4.5-.4.5-1 .4l-3.6-1.2.2-.5c7.8-12 16.2-23.4 25.4-34.2A227.5 227.5 0 01106.2 75a264.8 264.8 0 0161.4-33.5l.1-.1c.5-.2.5-.2.7.2a80.8 80.8 0 0110.1 33.4l.9 9.6v.5a127.9 127.9 0 00-4-11.8 45.2 45.2 0 00-8.6-14l-.5-.4-.3 2.2-1 9.6-.8 7.1-.8 7.2-.8 7-.8 7.2-.7 7-.8 7.2-.7 6-.8 7.2-.6 6-.8 7.1-.6 6-.7 6.1-.7 5.9-.8 7.3-.6 5.6c0 .3 0 .6-.3.9l-.6 1c-.3-1-.8-2-.8-3.2z"/><path class="anc_st3" d="M147.9 177.5c-1-.1-2-.5-3.1-.7l-36.5-9.5L67 156.6l-.9-.3h.7c.9.2 1.7.1 2.6.2 2.3 0 4.6 0 6.8-.3 1.6-.3 3-.7 4.4-1.5.7-.3 1.3-.8 1.8-1.4a5.1 5.1 0 001-4v-.3a18.6 18.6 0 015.3 3.8c.8.7 1.4 1.7 2.1 2.4-.2-1-1-1.9-1.6-2.9.5.1.8.4 1 .6l.8.6c.3.2.4.5.9.7a10.4 10.4 0 00-2.6-4.2l.6.2 1.8 1a240.3 240.3 0 0110.8 8.4l3.7 3a32.8 32.8 0 0017.2 5.8l3-.2c1.7-.2 3.5-.7 5.1-1.6 1-.6 2-1.3 2.8-2.3.7-1 1-2.1.6-3.3l-.7-1.5.5.2 1.4 1.3c.3.2.4.5.8.7v0c0-.2 0-.4-.2-.6-.6-1.7-1.6-3.3-2.7-4.7l-1.6-2 .5.2a30.5 30.5 0 016.6 5.4c1.6 1.8 2.7 3.8 3.8 5.8 1.6 3.1 3 6.4 4 9.7.2.7.5 1.3.6 2z"/><path class="anc_st4" d="M147.9 177.5c-.1-.7-.4-1.3-.6-2-1.1-3.3-2.4-6.5-4-9.6a24.5 24.5 0 00-10.4-11.2l-.5-.2 1.6 1.9c1.1 1.4 2 3 2.7 4.7 0 .2.2.4.1.6l-.7-.7c-.5-.5-1-1-1.5-1.3l-.4-.2c-.1 0 0 0 0 0l.7 1.5c.3 1.2.1 2.3-.6 3.3a8 8 0 01-2.8 2.3 14 14 0 01-5.2 1.6l-3 .2c-2.3 0-4.7-.4-7-1a33 33 0 01-13.8-7.7 269.3 269.3 0 00-10.8-8.4l-1.8-1-.6-.3a11 11 0 012.6 4.2c-.5-.2-.7-.5-.9-.7a6 6 0 00-.8-.6l-1-.6c.7 1 1.3 1.9 1.6 3l-2.1-2.5a21.3 21.3 0 00-5.3-3.8v.3a5.1 5.1 0 01-2.8 5.4c-1.4.8-2.9 1.2-4.4 1.5a33 33 0 01-6.8.3c-.9 0-1.8 0-2.6-.2H66c-.6 0-1.1-.2-1.7-.4v-.2c3 .4 5.8.4 8.6-.4a7 7 0 004.5-3.3c.7-1.4.9-2.8.3-4.2-.4-.8-.9-1.5-1.7-2.1a16.1 16.1 0 019.5.6 44 44 0 0112 6.5l8.9 6.4c3.3 2.4 7 4.5 10.9 5.9a18 18 0 006.6 1.2c1.7 0 3.3-.4 4.8-1.3.2 0 .4-.1.5-.3.1 0 .2 0 .3-.2 1-.8 1.2-1.9 1-3a10 10 0 00-1.5-3.4c-.2-.4-.4-1-.9-1.3-.3.8-.7 1.5-1.6 1.8.2-1.2.2-2.3.2-3.4-.2 0-.2.2-.3.3-.6 1.5-1.3 2.8-2.1 4.1-.7 1-1.7 1.8-2.9 2.2-1.1.5-2.4.6-3.6.7-.4-.1-.7-.4-1-.7l-.6-.5c.7 0 1.4-.1 2-.3 4-1 6.3-3.4 7.2-7.3.6-2 .5-4.1.4-6.2l-.3-2 .4.1c6 3.1 11.2 7.1 15.3 12.5 2 2.6 3.4 5.5 4.7 8.5 1.4 3.6 2.6 7.3 3.4 11v.3a5 5 0 01-1.5-.4z"/><path d="M55 95h7.5c.2 0 .3 0 .4-.3l1-5.2 1-5.5 1.5-8.2.4-1.8.5.2 9.7 6.9c.3.2.4.4.4.8l-.2 2.8v.6c0 .5-.3.8-.6 1.1l-6.1 6.8-3.7 4-1.3 1.5c-.3.4-.3.4-.8.2l-5.4-2.2-3.7-1.4-.6-.3z" fill="#838382"/><path class="anc_st6" d="M15.5 92.7c0-1.8.3-3.5 1.2-5.1l2-3.1c.4-.4.4-.4.9-.2l12 4.7 31 12 .6.4-1.2 1.4-.9 1c-.2.2-.4.3-.8.1l-5.1-2a25449 25449 0 01-35-13.9c-.5-.1-.8 0-1.2.2-.7.5-1.3 1.2-1.8 2l-1.7 2.5z"/><path d="M63.5 71.5l-1-1v-.2c0-1.3.2-2.5.4-3.7L63 64l.3-2.7c0-.4.1-.5.6-.4l6.2.8 5.8.8 5 .6 2.5.4c.2 0 .3 0 .2.3l-.7 3c0 .4-.2.4-.5.4l-4.3-.6-3.4-.4-3.5-.4-3.3-.4-1.7-.2c-.6 0-.6 0-.8.5l-1.8 5.2c0 .2 0 .4-.2.7z" fill="#838381"/><path class="anc_st6" d="M174.2 152c3.4 0 8 1.7 9.6 4h-.1c-1.8 0-3.4.4-5 1a31 31 0 00-6.4 3.9 140.5 140.5 0 00-10 8l1-3.7c.3 0 .4-.2.5-.4l2.2-2.5c1.2-1.3 2.4-2.7 3.8-3.8l.9-.8c-.5-.2-.8.2-1.3 0 1.5-1 3-1.8 4.7-2.5l-1.8-.1-1.9.2c2.3-1.2 4.6-2 7.1-1.8l-.1-.2c-.7-.5-1.5-.8-2.3-1-.3 0-.7 0-1-.2z"/><path class="anc_st8" d="M18 116a9.4 9.4 0 011.5-4.7c.3-.3.5-.4.8-.3l12.1 3.2 15.6 4.2.6.1-.2.4-1.3 1.5c-.2.3-.4.4-.8.3l-8.5-2.3-16.5-4.4c-.6-.2-1.1 0-1.6.3s-.9.7-1.3 1.2l-.3.4z"/><path class="anc_st3" d="M117.9 162.5a13 13 0 003.6-.7 5.8 5.8 0 002.9-2.2c.8-1.2 1.5-2.6 2.1-4 0-.2 0-.3.3-.4 0 1.1 0 2.2-.2 3.4 1-.3 1.3-1 1.6-1.8.5.4.7.9 1 1.3.6 1 1.1 2.1 1.3 3.3.3 1.2 0 2.3-1 3.1 0 .1 0 .2-.2.2-1.5.1-2.9.3-4.3.2-2.6 0-4.9-.8-7-2.2l-.1-.2z"/><path class="anc_st8" d="M115 91l-2-1.2v.6l.7 3.3c.1.2 0 .4-.2.5l-1.7 1-.5-1.5-1.6-6c-.1-.3 0-.5.2-.7l1.5-1c.3-.2.5-.2.7 0l1.5 1.1.6.4.3-1.2.5-2.2c0-.3.2-.5.5-.7l1.8-1 .4 1.8 1.5 6.2c.1.7.1.5-.4.8l-1.4 1-1.2-4.1L115 91z"/><path class="anc_st3" d="M174.2 152c.3.3.6.2 1 .3.7.2 1.5.5 2.2 1 0 0 .2 0 .1.2-2.5-.2-4.8.6-7 1.8l1.8-.2h1.8c-1.6.8-3.2 1.5-4.7 2.7.5 0 .8-.3 1.3-.1a49.6 49.6 0 00-4.7 4.6c-.7.9-1.4 1.8-2.2 2.5l-.4.4c0-1 .4-1.8.6-2.6l2.2-8.4c.1-.4.3-.6.7-.8 1.6-.6 3.1-1 4.8-1.3l2.1-.1h.4z"/><path class="anc_st9" d="M133.5 84l-.6-5.6-.4-3.8c0-.3 0-.4.3-.6l3-1.5c1.1-.6 2.4-.2 3 .8.3.4.5 1 .5 1.4.2 1.2.2 2.3.2 3.5 0 1-.4 2-1 2.7-.7.8-1.4 1.5-2.4 1.9l-2.6 1.3zm2-4.2c.5-.1.9-.4 1.2-.7.2-.3.4-.6.4-1 0-.7-.1-1.5-.3-2.2-.1-.7-.4-.8-1-.6-.2 0-.2.1-.3.2-.6.2-.5.2-.4.6 0 .8.1 1.7.3 2.5l.1 1.2z"/><path class="anc_st8" d="M148 67.2l.8 2.8 1.8 6.9v.2c.2.3 0 .4-.3.5l-1.6.6c-.3.1-.4 0-.5-.3l-.4-1-2 .8c-.2 0-.2.2-.2.3l-.3 1c0 .2-.1.4-.3.4l-2 .7.3-1.4 2.3-10.2c0-.3.2-.5.5-.6l2-.7zm-1.3 4.5l-.5 3.1.8-.2c.2-.1.3-.2.2-.5l-.5-2.3z"/><path class="anc_st9" d="M103.7 98.2l.7 1.5c0 .2 0 .4-.2.6l-1.7 1.3c-.3-.1-.3-.3-.3-.4l-2.4-6.4c-.2-.5-.2-.5.2-.8a135.6 135.6 0 013.7-2.6 2 2 0 012.9 1.8c0 .8-.1 1.5-.4 2.2-.2.5-.2.5.2.8l1.7 1.3-.7.6-1 .7c-.4.3-.6.2-1 0l-.7-.5c-.3-.3-.6-.3-1-.1zm-.6-2c.5-.3.8-.7 1-1 .2-.3.3-.5.2-.8 0-.2-.2-.4-.5-.4-.2 0-1 .4-1.1.6v.3l.4 1.3z"/><path class="anc_st8" d="M83.8 60.9l-18-2.7 2-2.2c.2-.2.4-.2.7-.2l6.4 1 7.7 1.1c.3.1.4.2.5.5l.7 2.5zM130 85.5l-2 1c-.2.1-.3 0-.4-.1-.2-.3-.3-.8-.6-.8s-.6.4-1 .5c-.8.3-1.2.8-1.2 1.7 0 .2-.2.4-.4.5l-1.7.8.3-2.3.8-7.6c0-.5.2-.8.7-1l1.7-1 3.8 8.3zm-4.6-4l-.3 2.7.9-.4.2-.4-.8-1.9zM99.2 103.8l-1.9 1.4c-.2.2-.3 0-.5 0-.5-.4-.5-.4-1.1 0l-1 .8c-.3.1-.4.3-.4.7v.3c0 .3 0 .5-.3.7-.6.4-1.1 1-1.7 1.3-.2 0-.1-.2-.1-.4l-.4-7.8c0-.3.1-.5.4-.7l1.5-1.2c.2-.2.3-.2.5 0l5 4.9zm-5.3-1.7l.2 2.2c.4-.2.8-.4 1-.8l-1.2-1.4z"/><path class="anc_st10" d="M37.7 132.7c-.4.6-.9 1.1-1.2 1.7-.2.2-.5.2-.7.1-1 0-1.8-.2-2.8-.4l-7.2-1c-.7 0-1.4-.1-2-.3-.6 0-1 0-1.2.5l-.4.3c-.1-.7 0-1.4.3-2.1.3-1 .3-1 1.3-.9l9 1.3 4.6.7h.3z"/><path class="anc_st8" d="M78 46.9c0 1.6-.2 3.2-.4 4.8l-.2 2.3c0 .5 0 .5-.5.4l-2.6-.5c-.3 0-.4-.1-.3-.4l1-6.2.3-.9c0-.2 0-.3.3-.2l2.2.3c.2 0 .4.1.3.4z"/><path class="anc_st10" d="M59.6 64.4l-1.3 1-.5.1L51 65c-.5 0-1-.1-1.3-.6l-.5-.6c.3-.4.7-.6 1.1-.9h.5l5.8.4 1.3.1c.5 0 1 .2 1.2.6l.4.4zM87.8 68.6l1.3-.8h.3l4.5.7c0 .2 0 .2-.2.3l-1.3 1a1 1 0 01-1 .3l-1.8-.4c-.6 0-1-.3-1.4-.7l-.5-.4z"/><path class="anc_st2" d="M64.4 155.7v.2H64l-.7-.3 1.2.1z"/><path class="anc_st1" d="M35.6 128.3H36v.1h-.2z"/><path class="anc_st4" d="M139.8 98c-.5.2-.9.5-1.4.6 1.9-2.5 4.3-4.3 7-5.9a46 46 0 00-3.3 7.3 25.2 25.2 0 00-1.2 11.6c0 .5 0 .5-.4.5-1.5 0-3 .2-4.6.4-.5 0-.5 0-.4.6l1.2 6.4c.1.8.1.8-.7.9l-1.3.1c-.4 0-.4 0-.5-.4a547 547 0 00-.7-3.9l-.5-2.7c-.1-.4-.1-.4-.6-.3a38.6 38.6 0 00-3.7 1.2c-.4 0-.4 0-.6-.3l-1-3.2a21 21 0 00-6.2-9l-.8-.7a11 11 0 016.1 1.2c-.4.2-.9 0-1.2.2a22 22 0 014.2 8.4c.2.8.1.8 1 .5l1.8-.8c.4-.1.4-.1.4-.6l-1.7-9-.1-.2c-.8.2-1.5.7-2.5.8l1-2 1.4-5.5c0-.2 0-.4.2-.6.7 1.1 1.5 2.1 2.4 3 .9 1 1.7 2 3 2.7l-1.2.4-1.2.3c-.5 0-.5 0-.4.5l.5 3.2 1 6c.2.4.2.4.6.4.9-.2 1.7-.2 2.5-.2.5 0 .5 0 .5-.5v-2.6c0-2.8.4-5.5 1.3-8.1.1-.2.2-.4.1-.6.1 0 0 0 0 0 .1 0 .1 0 0 0zM136.8 161.7l.1.1c-.1 0 0 0 0-.1z"/><path class="anc_st3" d="M89.3 150zM132.4 154.5zM134.2 159.6s-.1-.1 0-.1c0-.1 0 0 0 0z"/><path class="anc_st11" d="M135.5 79.8l-.1-1.2c-.2-.8-.3-1.7-.3-2.5-.1-.4-.2-.4.4-.6l.2-.2c.7-.2 1 0 1.1.6l.3 2.3c0 .3-.2.6-.4 1-.3.3-.7.5-1.2.6zM146.7 71.8l.6 2.3c0 .3 0 .4-.3.5l-.8.2.5-3zM103.1 96.2l-.4-1.3v-.3c0-.2.9-.6 1.1-.6.3 0 .5.2.5.4l-.1.7c-.3.5-.6.8-1 1.1zM125.4 81.5l.8 2c0 .1 0 .2-.2.3-.3 0-.6.2-.9.4l.2-2.7h.1zM94 102.1l1.1 1.4c-.3.4-.6.6-1 .8l-.3-2.1h.1z"/><path class="anc_st2" d="M139.8 98s.1 0 0 0c0 .1.1 0 0 0z"/></svg>