<?xml version="1.0" encoding="utf-8"?>
<!-- Generator: Adobe Illustrator 24.1.0, SVG Export Plug-In . SVG Version: 6.00 Build 0)  -->
<svg version="1.1" id="Layer_1" xmlns="http://www.w3.org/2000/svg" xmlns:xlink="http://www.w3.org/1999/xlink" x="0px" y="0px"
	 viewBox="0 0 200 200" style="enable-background:new 0 0 200 200;" xml:space="preserve">
<g>
	<path style="fill:#1A1A1A;" d="M31.754,199.921c-0.139,0-0.283-0.024-0.416,0.004c-1.422,0.301-1.679-0.313-1.72-1.674
		c-0.257-8.607-0.634-17.209-0.969-25.814c-0.038-0.972-0.138-1.948-0.081-2.915c0.271-4.623-0.946-8.857-2.737-13.107
		c-7.857-18.646-15.522-37.374-23.283-56.061c-0.735-1.77-0.716-3.419,0.02-5.188c6.426-15.448,12.814-30.912,19.213-46.371
		c2.556-6.175,5.126-12.343,7.653-18.53c0.635-1.553,1.684-2.555,3.23-3.194c20.876-8.625,41.77-17.211,62.584-25.983
		c3.407-1.436,6.282-1.461,9.706-0.017c20.854,8.797,41.792,17.394,62.709,26.04c1.499,0.62,2.502,1.616,3.123,3.117
		c8.862,21.423,17.726,42.845,26.644,64.245c0.949,2.277,0.947,4.35-0.003,6.626c-7.089,16.968-14.108,33.966-21.167,50.947
		c-0.599,1.442-0.375,2.907-0.32,4.371c0.431,11.52,0.86,23.039,1.341,34.557c0.049,1.168-0.233,1.589-1.446,1.633
		c-4.533,0.163-9.062,0.423-13.592,0.655c-6.517,0.335-13.033,0.686-19.55,1.015c-6.333,0.32-12.668,0.613-19.001,0.934
		c-6.425,0.326-12.848,0.678-19.272,1.009c-4.392,0.226-8.784,0.429-13.176,0.653c-6.61,0.337-13.218,0.686-19.828,1.027
		c-5.593,0.289-11.186,0.581-16.779,0.857c-7.628,0.376-15.256,0.738-22.884,1.107C31.753,199.882,31.753,199.902,31.754,199.921z"
		/>
	<path style="fill:#CE5B00;" d="M157.572,33.58c-0.892,1.056-1.762,2.131-2.682,3.162c-0.607,0.68-1.277,1.371-1.861-0.065
		c-0.07-0.173-0.338-0.265-0.617-0.47c-0.598,2.176-1.389,4.129-2.896,5.7c-0.224,0.234-0.452,0.467-0.694,0.681
		c-0.697,0.618-1.511,1.52-2.308,1.417c-1.188-0.152-0.343-1.521-0.74-2.261c-0.127-0.236-0.168-0.519-0.345-1.097
		c-0.15,0.886-0.253,1.468-0.347,2.052c-0.356,2.213-0.846,2.574-3.222,2.31c0.951-1.708,1.602-3.48,1.457-5.742
		c-1.519,2.511-1.789,5.629-5.096,6.766c1.492-4.229,2.303-8.404,2.641-12.693c-1.111,3.227-2.208,6.459-3.337,9.68
		c-0.535,1.527-1.042,3.074-1.716,4.541c-1.439,3.128-3.64,5.549-6.839,6.993c-1.432,0.646-2.889,1.277-4.056,2.376
		c-0.284,0.267-0.787,0.514-0.606,0.985c0.156,0.407,0.655,0.217,1.001,0.256c2.179,0.243,4.203-0.318,5.88-1.648
		c4.991-3.957,13.391-1.593,15.896,5.12c1.204,3.227,1.751,6.508,1.281,9.936c-0.333,2.431-2.714,5.633-5.363,7.087
		c0.85-2.675,1.372-5.283,1.181-7.994c-0.271-3.851-2.51-6.928-5.96-8.117c-3.431-1.183-6.072-0.235-7.923,2.897
		c-0.485,0.821-0.844,1.716-1.317,2.694c-0.652-0.68-1.241-1.327-1.866-1.936c-0.533-0.519-1.13-0.944-1.863-1.171
		c-0.547-0.169-1.016-0.103-1.396,0.313c-0.398,0.435,0.035,0.777,0.207,1.114c1.144,2.244,2.041,4.575,2.282,7.096
		c0.361,3.77-1.08,6.958-3.985,9.159c-4.778,3.62-6.745,8.524-7.418,14.194c-0.008,0.069-0.091,0.129-0.221,0.306
		c-0.76-1.397-0.91-2.809-0.71-4.287c0.432-3.193,1.915-5.972,3.456-8.724c0.862-1.54,1.641-3.118,2.141-4.81
		c0.507-1.716,0.177-2.767-0.919-3.267c-1.306-0.595-3.034-0.258-3.548,1.242c-1.577,4.599-5.319,7.938-7.022,12.393
		c-3.847,10.063-1.857,19.675,6.883,26.348c0.18,0.138,0.371,0.262,0.669,0.353c-5.859-6.493-6.014-14.03-4.147-21.951
		c0.619,2.502,1.229,5.001,2.318,7.345c0.409,0.881,0.842,1.751,1.291,2.612c4.611,8.842,14.205,9.101,21.2,6.226
		c0.339-0.139,0.662-0.319,1.008-0.487c0.23,2.243-0.984,3.877-7.301,9.858c0.588,0.194,0.993-0.143,1.394-0.342
		c3.009-1.49,5.073-3.996,6.954-6.653c1.872-2.645,3.701-5.325,5.426-8.067c4.03-6.404,9.874-8.425,17.093-7.263
		c0.685,0.11,1.358,0.296,2.044,0.389c7.578,1.024,10.008,6.952,10.687,11.896c0.247,1.799,0.255,3.605-0.058,5.393
		c-0.754,4.306-3.692,6.993-8.468,7.763c-2.161,0.348-4.333,0.568-6.432-0.304c-2.213-0.92-3.455-2.629-3.65-4.991
		c-0.214-2.599,0.812-4.695,2.888-6.277c-0.681,2.241-1.707,4.41-0.862,7.074c0.51-1.629,0.731-3.122,1.474-4.426
		c0.46-0.807,0.959-1.903,1.896-1.821c0.855,0.075,1.095,1.262,1.428,2.06c0.621,1.488,0.136,2.806-0.739,4.034
		c-0.319,0.448-0.661,0.879-1.019,1.353c3.211-1.33,4.303-4.759,2.645-7.486c-2.103-3.459-6.629-4.467-10.381-2.263
		c-1.878,1.104-3.311,2.664-4.537,4.429c-3.193,4.598-7.045,8.537-11.354,12.123c-4.5,3.744-9.607,4.508-15.124,3.92
		c-3.036-0.324-6.004-1.011-9.28-2.163c1.671-0.261,3.021-0.334,4.357-1.252c-1.788-0.229-3.337-0.531-4.808-1.152
		c-2.479-1.047-4.481-2.654-5.639-5.103c-1.692-3.58-3.729-6.887-6.366-9.879c-2.234-2.535-2.317-5.791-2.012-8.969
		c0.375-3.9,1.397-7.622,3.428-11.044c1.205-2.03,1.821-4.299,2.216-6.873c-1.454,1.065-2.376,2.272-3.09,3.607
		c-3.538,6.617-5.522,13.529-3.757,21.091c0.563,2.412,1.726,4.583,2.863,6.759c1.888,3.611,3.211,7.451,4.782,11.632
		c-0.902-0.758-1.497-1.258-2.379-1.999c1.156,2.963,1.534,5.678,1.447,8.479c-0.03,0.978-0.312,1.315-1.299,1.147
		c-1.777-0.303-3.563-0.567-5.355-0.765c-0.66-0.073-0.925-0.413-1.227-0.925c-3.307-5.621-4.769-11.792-5.557-18.186
		c-0.674-5.472-0.961-10.966-1.17-16.487c-0.621,1.657-0.839,3.396-1.043,5.138c-0.348,2.968-0.12,5.921,0.335,8.851
		c0.692,4.458,0.569,8.952,0.775,13.436c-0.575,0.093-0.508-0.359-0.609-0.606c-2.096-5.102-3.791-10.342-5.215-15.663
		c-1.194-4.461-0.246-8.825,1.016-13.117c1.456-4.955,3.684-9.581,6.23-14.059c0.229-0.402,0.465-0.801,0.685-1.208
		c0.032-0.06-0.006-0.159-0.032-0.535c-6.848,5.566-8.441,13.389-10.084,21.374c-0.644-0.989-0.651-2.029-1.115-3.178
		c-0.646,2.346-0.677,4.498-0.163,6.599c1.946,7.965,4.445,15.754,7.458,23.388c1.528,3.871,4.321,5.797,8.278,6.499
		c5.105,0.906,10.152,2.077,15.041,3.848c2.509,0.909,4.841,2.099,6.689,4.086c2.378,2.556,2.836,6.238,1.088,9.122
		c-0.334-1.45-0.319-2.931-0.944-4.296c-0.217,2.37-0.766,4.603-2.071,6.612c-0.411,0.633-0.85,1.044-1.658,1.019
		c-0.597-0.019-1.196,0.114-1.796,0.143c-2.77,0.131-5.541,0.249-8.342,0.373c0.999-3.429,3.059-3.898,6.611-1.487
		c-0.216-1.229-1.005-1.895-1.864-2.462c-1.354-0.894-2.881-1.305-4.491-1.189c-6.899,0.499-12.516-2.448-17.926-6.3
		c-6.976-4.967-10.161-12.025-11.756-20.075c-0.901-4.549-1.437-9.139-1.488-13.781c-0.004-0.334,0.111-0.714-0.337-1.221
		c-1.451,8.254-0.886,16.159,1.428,23.98c-2.826-4.346-4.813-9.039-5.151-14.205c-0.837-12.807,2.206-24.58,9.842-35.049
		c2.65-3.633,5.439-7.149,8.369-10.555c0.587-0.682,1.064-1.386,1.019-2.607c-4.499,3.805-7.735,8.453-11.2,12.896
		c-2.253,1.261-4.696,1.919-7.238,2.24c-4.076,0.515-7.863,2.076-11.759,3.239c-0.885,0.264-1.474,0.914-2.043,1.601
		c-0.998,1.207-1.839,2.557-3.139,3.493c-0.842-0.242-1.688-0.473-2.525-0.729c-1.607-0.493-1.612-0.503-0.661-1.98
		c1.595-2.477,3.839-4.228,6.36-5.671c0.38-0.218,0.862-0.291,1.244-0.92c-4.498,1.35-8.09,3.921-11.749,6.569
		c0.595-1.378,2.816-3.761,5.081-5.601c5.044-4.099,10.934-6.067,17.268-6.978c2.967-0.427,5.99-0.631,8.767-1.932
		c0.836-0.392,1.662-0.796,2.306-1.512c-0.106-0.054-0.212-0.142-0.246-0.12c-2.714,1.783-5.801,2.01-8.91,2.143
		c-4.962,0.212-9.745,1.246-14.139,3.579c-3.684,1.956-7.393,2.02-11.286,0.924c-2.896-0.815-5.707-1.849-8.6-3.091
		c0.061,1.514,1.18,2.375,1.69,3.541c-5.63-3.273-9.345-8.222-12.257-13.883c-0.353-0.529,0.016-0.974,0.191-1.422
		c1.648-4.202,3.447-8.341,5.18-12.508c0.18-0.433,0.244-1.031,0.92-1.062c0.645,0.384,0.661,1.083,0.816,1.695
		c1.174,4.63,3.244,8.728,6.79,12.04c2.704,2.527,5.845,4.223,9.355,5.25c9.222,2.697,17.97,1.679,26.392-3.075
		c2.634-1.487,4.327-3.274,5.015-6.195c0.41-1.742,1.601-2.877,3.481-3.154c1.209-0.178,1.276-0.186,2.258,0.855
		c0.707-0.971,0.582-2.03,0.429-3.048c-0.178-1.19-0.566-2.336-0.898-3.494c-0.941-3.285-1.211-6.623-0.789-9.649
		c-0.301,1.17-0.383,2.75-0.541,4.321c-0.052,0.516,0.152,1.346-0.532,1.372c-0.59,0.023-0.61-0.812-0.736-1.334
		c-0.473-1.964-0.477-3.982-0.203-5.94c0.662-4.73,2.521-9.034,4.885-12.799c-2.595,2.806-3.478,6.834-5.144,10.626
		c-0.754-0.617-0.692-1.264-0.579-1.867c1.312-7.035,3.787-13.553,8.656-18.952c1.608-1.783,3.726-2.891,5.886-3.862
		c4.332-1.948,8.892-3.139,13.566-3.923c0.37,0.058,0.763,0.084,0.858,0.561c-1.287,0.903-2.846,1.033-4.292,1.467
		c-2.093,0.628-4.105,1.443-6.088,2.343c-0.847,0.384-1.625,0.889-2.321,1.511c-1.451,1.298-1.493,1.569-0.512,3.274
		c1.482,2.575,1.16,5.111-0.996,7.364c-1.793,1.874-3.609,3.731-5.141,5.826c-2.466,3.371-2.383,8.235,0.123,11.57
		c1.64,2.182,4.84,3.298,7.453,2.565c2.068-0.58,3.234-2.134,3.926-4.015c0.642-1.744,0.871-3.561,0.622-5.462
		c-0.477-3.646-0.084-7.198,1.496-10.581c1.1-2.355,2.825-3.577,5.485-3.398c2.502,0.169,4.876-0.266,7.091-1.528
		c1.649-0.94,3.038-2.089,3.908-3.82c0.389-0.774,0.731-1.622,1.624-2.005c0.632-0.167,1.183,0.107,1.736,0.335
		c11.032,4.556,22.048,9.152,33.091,13.682c0.381,0.156,0.786,0.288,1.048,0.644c0.025,0.033,0.03,0.091,0.024,0.135
		C157.763,33.609,157.688,33.618,157.572,33.58z"/>
	<path style="fill:#A94B00;" d="M37.026,159.739c-1.556,0.283-3.13,0.087-4.693,0.188c-0.783,0.051-0.835-0.582-1.038-1.071
		c-3.597-8.657-7.196-17.313-10.785-25.973c-4.668-11.261-9.323-22.528-14.004-33.784c-0.333-0.8-0.502-1.497-0.141-2.363
		c8.884-21.361,17.749-42.73,26.586-64.11c0.4-0.968,0.924-1.575,1.911-1.983c21.383-8.831,42.753-17.692,64.119-26.565
		c0.779-0.323,1.447-0.353,2.238-0.024c21.45,8.911,42.906,17.806,64.371,26.681c0.793,0.328,1.254,0.795,1.581,1.586
		c8.876,21.464,17.772,42.92,26.678,64.372c0.301,0.725,0.342,1.372,0.035,2.112c-7.355,17.695-14.7,35.396-22.022,53.105
		c-0.308,0.744-0.66,1.127-1.512,1.066c-0.92-0.066-1.851,0.004-2.776,0.014c-0.338-0.797,0.19-1.427,0.457-2.076
		c4.892-11.859,9.803-23.711,14.711-35.564c2.215-5.349,4.422-10.701,6.658-16.041c0.483-1.154,0.474-2.179-0.004-3.333
		c-6.471-15.617-12.951-31.23-19.417-46.848c-1.842-4.45-3.705-8.893-5.511-13.358c-0.465-1.148-1.245-1.887-2.389-2.357
		c-11.14-4.572-22.257-9.2-33.385-13.8c-8.86-3.662-17.714-7.339-26.563-11.026c-1.291-0.538-2.423-0.548-3.723-0.009
		C80.18,16.134,61.958,23.698,43.729,31.244c-1.754,0.726-3.495,1.489-5.268,2.167c-1.151,0.44-1.926,1.196-2.399,2.346
		c-5.001,12.165-10.054,24.309-15.086,36.461c-3.243,7.831-6.464,15.67-9.742,23.486c-0.56,1.335-0.577,2.506-0.017,3.855
		c7.546,18.179,15.065,36.37,22.622,54.544c0.373,0.898,0.74,1.8,1.084,2.709C35.364,157.981,35.884,159.08,37.026,159.739z"/>
	<path style="fill:#A94B00;" d="M183.564,86.8c-3.703,0.625-7.479,0.402-11.185,0.954c-5.338,0.794-10.505,2.13-15.146,5.137
		c0.037-1.141,0.037-1.141,3.888-4.705c-3.893,1.208-7.684,2.641-10.112,6.212c-0.734,1.079-1.566,1.941-2.669,2.546
		c-2.542,1.394-4.746,3.185-6.753,5.278c-1.945,2.028-4.04,3.912-6.181,5.817c2.205-3.439,3.785-6.874,0.474-10.744
		c0,1.408,0.025,2.614-0.005,3.818c-0.095,3.885-2.415,6.181-6.279,6.3c-2.151,0.066-4.229-0.246-6.544-1.038
		c2.359-0.352,4.281-1.028,5.739-2.799c-4.158,0.66-6.871-3.372-6.211-7.675c0.556-3.63,2.789-5.829,6.081-7.113
		c1.718-0.671,3.528-0.979,5.575-1.207c-1.501-1.278-3.207-0.905-4.813-1.26c0.655-1.178,1.649-1.436,2.734-1.47
		c2.729-0.087,5.162,0.964,7.545,2.099c1.832,0.873,3.592,1.897,5.612,2.975c-0.949-2.277-2.628-3.672-4.399-5.261
		c3.711,0.322,7.112-0.195,10.413-1.461c3.332-1.277,6.228-3.203,8.795-5.693c-2.962,1.279-6.109,1.629-9.313,1.936
		c6.56-6.947,14.549-11.773,23.151-15.701c0.913,0.274,0.961,1.176,1.235,1.844c2.432,5.927,4.943,11.82,7.349,17.758
		c0.329,0.812,0.749,1.586,1.006,2.425C183.655,86.104,183.891,86.454,183.564,86.8z"/>
	<path style="fill:#F4EBE6;" d="M183.564,86.8c-3.201-7.685-6.401-15.371-9.602-23.056c0.001-0.324-0.121-0.597-0.337-0.833
		c-0.895-0.917-1.061-2.191-1.612-3.278c-0.503-1.183-1.02-2.36-1.521-3.544c-0.678-1.806-1.462-3.568-2.201-5.349
		c-0.23-0.555-0.427-1.113-0.419-1.724c-1.772-4.336-3.553-8.668-5.305-13.013c-0.184-0.457-0.523-0.604-0.906-0.76
		c-1.362-0.554-2.724-1.108-4.088-1.662c-11.643-4.836-23.284-9.672-34.927-14.504c-0.212-0.088-0.443-0.129-0.665-0.192
		c-0.418,0.009-0.815-0.06-1.209-0.218c-3.505-1.405-6.983-2.877-10.477-4.307c-0.377-0.154-0.781-0.302-0.97-0.723
		c-0.177-0.237-0.44-0.251-0.701-0.269c-1.425-0.214-2.717-0.815-4.021-1.382c-2.89-1.821-5.72-1.715-8.702-0.059
		c-1.93,1.072-4.073,1.763-6.138,2.583c-2.853,1.266-5.786,2.343-8.615,3.665c-4.884,1.878-9.68,3.973-14.518,5.963
		c-8.952,3.682-17.887,7.404-26.829,11.111c-0.979,0.406-1.57,1.01-1.958,1.986c-0.907,2.28-1.92,4.517-2.788,6.814
		c-0.202,0.578-0.555,1.089-0.745,1.673c-0.66,1.555-1.294,3.121-1.929,4.687c-0.652,1.265-0.909,2.725-1.884,3.832
		c-2.087,4.991-4.174,9.982-6.261,14.973c-0.867,2.13-1.735,4.261-2.603,6.391c0.179,0.437-0.034,0.809-0.191,1.193
		c-2.65,6.462-5.347,12.904-8.033,19.35c-0.447,1.074-0.413,1.988,0.028,3.048c3.074,7.387,6.151,14.773,9.2,22.171
		c0.268,0.65,0.446,1.308,0.466,2.008c0.181,0.432,0.363,0.865,0.544,1.297c0.69,0.302,0.529,0.984,0.683,1.526
		c0.172,0.428,0.344,0.856,0.516,1.284c1.254,1.418,1.539,3.3,2.335,4.937c0.394,0.81,0.859,1.636,0.82,2.599
		c0.044,0.565,0.321,1.039,0.591,1.515c0.509,0.316,0.646,0.785,0.553,1.348c0.393,0.977,0.787,1.955,1.18,2.932
		c0.804,0.479,0.692,1.349,0.892,2.086c0.423,1.157,0.824,2.324,1.452,3.394c0.565,0.281,0.657,0.868,0.859,1.37
		c1.381,3.431,2.842,6.828,4.262,10.242c0.224,0.538,0.59,1.078,0.235,1.706c-0.333,0.043-0.665,0.085-0.999,0.128
		c-1.003,0.17-1.428-0.339-1.798-1.235c-8.112-19.657-16.249-39.304-24.416-58.938c-0.556-1.337-0.554-2.51,0.001-3.846
		c8.357-20.106,16.683-40.225,24.996-60.349c0.439-1.062,1.128-1.737,2.177-2.17c17.688-7.31,35.37-14.636,53.053-21.957
		c2.52-1.043,5.053-2.056,7.555-3.141c1.138-0.494,2.179-0.477,3.324-0.002c20.152,8.366,40.311,16.715,60.479,25.044
		c1.151,0.475,1.881,1.198,2.356,2.35c8.33,20.168,16.676,40.33,25.051,60.48c0.526,1.267,0.4,2.371-0.104,3.585
		c-7.39,17.805-14.757,35.619-22.13,53.431c-0.803,0.298-1.636,0.204-2.463,0.194c-0.286-0.639,0.08-1.181,0.302-1.717
		c3.853-9.282,7.6-18.609,11.567-27.843c3.543-8.246,6.673-16.66,10.29-24.873c0.316-0.717,0.21-1.454,0.292-2.183
		c-0.163-0.728-0.441-1.408-0.846-2.035c-1.229-1.829-2.046-3.829-2.475-5.989C184.015,87.963,183.79,87.381,183.564,86.8z"/>
	<path style="fill:#CE5B00;" d="M22.215,101.323c0.944,0.909,1.814,1.79,2.732,2.619c1.908,1.724,3.982,2.111,6.382,0.952
		c2.819-1.362,5.3-3.205,7.758-5.098c2.066-1.591,4.199-3.052,6.83-3.55c4.565-0.865,7.789,0.826,9.578,5.105
		c2.33,5.571,2.032,11.184,0.189,16.82c-1.337,4.088-3.067,8.038-4.206,12.194c-1.644,5.995-1.311,11.925,0.768,17.732
		c1.843,5.148,5.465,8.48,10.799,9.878c0.173,0.045,0.335,0.133,0.497,0.211c0.023,0.011,0.02,0.078,0.045,0.193
		c-2.199,0.125-4.387,0.257-6.576,0.371c-3.372,0.176-6.746,0.315-10.115,0.529c-0.781,0.05-1.053-0.381-1.363-0.919
		c-2.387-4.146-3.624-8.656-4.51-13.33c-1.001-5.281,0.522-10.185,1.833-15.137c1.125-4.246,2.368-8.46,3.557-12.689
		c0.7-2.488,1.006-4.994,0.181-7.511c-1.141-3.481-3.484-4.625-6.913-3.375c-1.663,0.606-3.16,1.524-4.58,2.581
		c-1.966,1.464-4.115,2.562-6.628,2.509c-3.335-0.069-6.332-3.34-6.568-7.082C21.843,103.34,21.72,102.315,22.215,101.323z"/>
	<path style="fill:#A94B00;" d="M187.561,96.568c0.636,0.689,0.422,1.371,0.1,2.147c-7.53,18.15-15.039,36.31-22.552,54.467
		c-1.892,0.11-3.785,0.195-5.674,0.341c-0.955,0.074-1.273-0.058-0.973-1.172c1.213-4.505,1.444-9.025-0.32-13.47
		c-0.399-1.006-0.901-1.971-1.282-2.998c3.336,3.278,5.357,7.4,7.351,11.66c0.394-2.045-0.547-4.934-1.561-7.072
		c-1.622-3.422-3.936-6.363-6.525-9.097c-2.966-3.132-6.164-6.009-9.677-8.516c-0.754-0.538-0.931-0.988-0.383-1.773
		c0.733-1.051,1.329-2.204,2.438-3.063c1.152,5.177,5.064,7.629,9.31,9.784c-1.176-1.34-2.258-2.719-2.548-4.769
		c2.107,0.871,4.082,1.724,6.221,1.988c2.492,0.308,4.992,0.378,7.438-0.294c2.971-0.816,4.738-2.914,5.81-5.696
		c0.628-1.63,0.95-3.328,0.968-5.317c0.877,1.611,0.879,3.02,0.294,5.963c-0.387,1.945-0.944,3.84-1.649,6.121
		c1.608-1.525,2.612-3.024,3.452-4.603c2.927-5.499,3.174-11.131,0.493-16.787c-0.598-1.261-0.094-1.288,0.883-1.215
		c1.531,0.114,2.993,0.558,4.476,0.905c0.34,0.08,0.734,0.417,1.02,0.048c0.293-0.378,0.033-0.808-0.183-1.156
		c-0.669-1.08-1.605-1.905-2.623-2.641c-0.587-0.424-1.19-0.827-1.963-1.363C182.589,98.141,185.075,97.355,187.561,96.568z"/>
	<path style="fill:#A94B00;" d="M23.105,123.375c-3.451-8.3-6.903-16.6-10.346-24.903c-0.169-0.407-0.366-0.784-0.145-1.307
		c3.026-7.179,6.019-14.371,9.02-21.56c1.926,2.124,3.843,4.253,6.171,5.966c3.46,2.546,7.23,4.427,11.454,5.515
		c-2.514,1.271-5.231,1.358-7.958,1.381c-2.764,0.023-5.528,0.008-8.439-0.321c2.296,1.907,8.324,4.107,12.645,4.611
		c-1.643,1.654-2.243,3.618-2.541,6.014c1.795-1.686,3.484-3.092,5.512-4.003c0.41-0.184,0.903-0.654,1.26-0.347
		c0.477,0.409-0.072,0.923-0.232,1.368c-0.418,1.163-1.194,2.035-2.171,2.805c-1.196,0.942-2.262,2.047-3.414,3.046
		c-3.544,3.072-7.52,2.396-9.889-1.665c-0.941-1.613-1.496-3.373-2.041-5.458c-2.648,2.793-3.806,5.962-3.397,9.533
		c0.406,3.548,2.629,6.294,4.999,9.204c-1.648-0.579-2.621-1.653-3.955-2.515c0.817,3.077,2.691,4.988,5.409,6.055
		c1.002,0.394,1.15,0.787,0.729,1.727C25.017,120.216,23.99,121.754,23.105,123.375z"/>
	<path style="fill:#F4EBE6;" d="M148.877,182.158c0.509-0.711,0.596-1.495,0.549-2.359c-0.373-6.872-0.725-13.746-1.041-20.621
		c-0.034-0.749-0.362-1.314-0.699-1.909c-0.347-0.613-0.238-1.199,0.459-1.253c2.481-0.191,4.972-0.271,7.459-0.377
		c0.112-0.005,0.23,0.14,0.346,0.215c0.086,0.038,0.206,0.083,0.219,0.156c0.432,2.588,2.572,4.04,4.008,5.95
		c0.388,0.515,0.538,1.452,1.517,1.367c-0.101-2.332,0.309-4.73-0.932-6.913c-0.342-0.602,0.026-1.129,0.551-1.138
		c2.31-0.038,4.604-0.47,6.92-0.278c0.115,0.009,0.217,0.163,0.325,0.25c0.36,0.25,0.395,0.623,0.307,0.992
		c-0.92,3.863-0.021,7.731,0.031,11.591c0.041,3.083,0.313,6.173,0.434,9.262c0.053,1.352,0.132,2.664,0.718,3.915
		c0.391,0.836,0.088,1.578-0.798,1.697c-2.225,0.301-4.466,0.783-6.716,0.128c-0.553-0.346-0.695-0.787-0.421-1.409
		c0.904-2.057,0.284-4.179,0.193-6.273c-0.014-0.313-0.34-0.635-0.571-0.911c-1.717-2.051-3.446-4.091-5.171-6.134
		c-0.637-0.218-0.928-0.063-0.877,0.679c0.177,2.575,0.277,5.155,0.401,7.733c0.042,0.871,0.176,1.742,0.167,2.62
		c-0.008,0.806,0.211,1.542,0.606,2.243c0.776,1.376,0.359,2.14-1.26,2.246c-1.607,0.105-3.227-0.071-4.826,0.264
		c-0.463,0.097-0.907-0.111-1.322-0.328c-0.177-0.101-0.354-0.202-0.531-0.303C148.32,182.916,148.506,182.541,148.877,182.158z"/>
	<path style="fill:#F4EBE6;" d="M59.76,187.27c0.577-0.98,0.768-2.011,0.701-3.166c-0.373-6.413-0.695-12.829-1.006-19.246
		c-0.045-0.933-0.108-1.824-0.624-2.643c-0.583-0.924-0.367-1.479,0.794-1.541c5.492-0.295,10.983-0.592,16.474-0.903
		c0.369-0.021,0.62,0.104,0.841,0.361c1.355,1.375,1.547,3.221,1.905,4.96c0.67,3.255,0.569,6.524-0.222,9.76
		c-0.218,0.893-0.407,1.795-1.26,2.385c-0.667,0.461-0.193,1.012,0.057,1.464c1.051,1.899,2.025,3.839,3.1,5.724
		c0.252,0.442,0.503,0.888,0.664,1.37c0.289,0.866,0.009,1.541-0.912,1.647c-2.283,0.264-4.572,0.702-6.876,0.14
		c-0.439-0.316-0.806-0.703-0.552-1.276c0.441-0.995-0.017-1.776-0.487-2.587c-1.061-1.833-2.103-3.678-3.152-5.518
		c-1.696-0.738-2.134-0.459-1.966,1.263c0.134,1.378-0.001,2.762,0.1,4.139c0.07,0.964,0.26,1.903,0.679,2.797
		c0.384,0.817,0.094,1.664-0.735,1.747c-2.252,0.226-4.521,0.699-6.796,0.142c-0.165-0.088-0.33-0.177-0.496-0.265
		C59.61,187.867,59.577,187.602,59.76,187.27z"/>
	<path style="fill:#F4EBE6;" d="M51.079,188.612c-0.5-0.302-0.719-0.764-0.494-1.29c0.415-0.971,0.031-1.782-0.365-2.625
		c-1.014-2.158-2.008-4.324-3.01-6.488c-0.602-0.477-0.907-0.103-1.34,0.342c-2.451,2.514-1.991,5.487-1.258,8.413
		c0.481,1.922,0.259,2.46-1.731,2.503c-1.29,0.028-2.582-0.038-3.859,0.237c-0.558,0.12-1.101-0.03-1.603-0.303
		c-0.784-0.351-0.798-0.943-0.45-1.591c0.434-0.809,0.465-1.65,0.415-2.544c-0.351-6.319-0.685-12.639-0.988-18.96
		c-0.053-1.117-0.111-2.188-0.736-3.173c-0.4-0.63-0.277-1.234,0.558-1.301c2.164-0.173,4.333-0.276,6.502-0.367
		c0.223-0.009,0.458,0.258,0.688,0.397c0.444,0.149,0.377,0.536,0.255,0.797c-0.68,1.452-0.54,2.941-0.317,4.455
		c0.106,0.719-0.032,1.46,0.053,2.193c0.317-0.014,0.445-0.354,0.738-0.367c1.298-1.902,2.598-3.804,3.892-5.709
		c0.101-0.148,0.255-0.349,0.221-0.485c-0.453-1.83,0.802-1.667,1.935-1.712c1.755-0.068,3.507-0.188,5.261-0.267
		c0.491-0.022,1.023-0.164,1.423,0.292c0.581,0.749,0.003,1.313-0.351,1.86c-1.354,2.093-2.7,4.195-4.16,6.214
		c-0.667,0.922-0.688,1.725-0.224,2.681c1.673,3.444,3.172,6.968,4.795,10.435c0.606,1.295,1.19,2.601,1.774,3.905
		c0.759,1.695,0.265,2.441-1.594,2.458c-1.433,0.013-2.832,0.405-4.274,0.302C52.235,188.871,51.637,188.877,51.079,188.612z"/>
	<path style="fill:#F4EBE6;" d="M107.187,185.788c-0.161-0.083-0.321-0.167-0.482-0.25c-0.429-0.171-0.482-0.445-0.221-0.805
		c0.521-0.947,0.748-1.925,0.682-3.04c-0.373-6.326-0.694-12.655-1-18.984c-0.054-1.116-0.091-2.196-0.731-3.178
		c-0.418-0.64-0.281-1.241,0.545-1.309c2.166-0.179,4.339-0.279,6.51-0.37c0.224-0.009,0.459,0.258,0.689,0.397
		c0.444,0.149,0.377,0.536,0.255,0.797c-0.68,1.452-0.54,2.941-0.317,4.455c0.106,0.719-0.032,1.46,0.053,2.193
		c0.317-0.014,0.445-0.354,0.738-0.367c1.298-1.902,2.598-3.804,3.892-5.709c0.101-0.148,0.255-0.349,0.221-0.485
		c-0.453-1.831,0.802-1.667,1.935-1.711c1.755-0.068,3.507-0.188,5.261-0.267c0.491-0.022,1.023-0.163,1.423,0.292
		c0.58,0.749,0.003,1.313-0.351,1.86c-1.354,2.093-2.7,4.195-4.16,6.214c-0.667,0.922-0.688,1.725-0.224,2.681
		c1.673,3.444,3.172,6.968,4.795,10.435c0.606,1.295,1.19,2.601,1.774,3.905c0.759,1.695,0.265,2.441-1.594,2.458
		c-1.433,0.013-2.832,0.405-4.274,0.302c-0.601-0.043-1.199-0.037-1.757-0.301c-0.5-0.303-0.719-0.763-0.494-1.29
		c0.414-0.97,0.031-1.782-0.365-2.625c-1.014-2.157-2.008-4.324-3.01-6.488c-0.602-0.477-0.907-0.102-1.34,0.342
		c-2.452,2.515-1.99,5.488-1.258,8.414c0.481,1.921,0.258,2.459-1.733,2.502c-1.29,0.028-2.582-0.037-3.86,0.237
		C108.232,186.21,107.689,186.059,107.187,185.788z"/>
	<path style="fill:#F4EBE6;" d="M81.944,186.128c1.374-2.859,1.332-6.021,1.877-9.05c0.835-4.64,1.482-9.314,2.21-13.973
		c0.144-0.918,0.258-1.814-0.266-2.687c-0.494-0.823-0.225-1.317,0.763-1.373c4.021-0.226,8.043-0.449,12.063-0.693
		c0.433-0.026,0.685,0.206,0.963,0.447c0.518,0.186,0.361,0.617,0.26,0.93c-0.361,1.123-0.121,2.192,0.168,3.276
		c1.655,6.216,3.134,12.478,4.807,18.69c0.229,0.852,0.557,1.661,0.877,2.48c0.329,0.842,0.182,1.723-0.823,1.837
		c-1.964,0.223-3.951,0.249-5.931,0.295c-0.219,0.005-0.435-0.147-0.647-0.24c-0.727-0.337-0.798-0.872-0.501-1.551
		c0.389-0.889,0.216-1.732-0.271-2.535c-0.219-0.425-0.577-0.604-1.03-0.49c-1.501,0.377-3.029,0.172-4.544,0.227
		c-1.536,0.056-2.053,0.594-2.005,2.134c0.015,0.466,0.186,0.902,0.256,1.356c0.109,0.702-0.048,1.5-0.765,1.566
		c-2.212,0.202-4.435,0.678-6.665,0.124c-0.193-0.139-0.385-0.278-0.578-0.417C81.988,186.426,81.898,186.318,81.944,186.128z"/>
	<path style="fill:#F4EBE6;" d="M129.467,183.544c0.603-1.069,0.836-2.181,0.761-3.439c-0.38-6.377-0.695-12.758-1.003-19.14
		c-0.045-0.935-0.113-1.826-0.627-2.647c-0.586-0.935-0.349-1.477,0.808-1.537c5.178-0.268,10.356-0.541,15.533-0.828
		c0.447-0.025,0.816,0.082,1.154,0.351c0.707,1.692,0.773,3.471,0.598,5.252c-0.079,0.804-0.711,1.215-1.512,1.012
		c-2.521-0.639-5.03,0.207-7.55,0.006c-0.874-0.07-1.314,0.483-1.165,1.437c0.102,0.65,0.188,1.277,0.711,1.742
		c1.904-0.002,3.84,0.2,5.626-0.68c0.484-0.238,0.769,0.071,1.136,0.186c1.077,1.909,0.678,3.955,0.481,5.957
		c-0.074,0.744-0.737,1.012-1.491,0.818c-1.741-0.447-3.487,0.122-5.231-0.021c-0.33-0.027-0.747,0.114-0.737,0.483
		c0.051,1.844-0.349,3.765,0.813,5.445c2.88-0.232,5.829,0.175,8.617-0.894c0.439-0.168,0.691,0.095,1.019,0.214
		c0.873,1.848,0.854,3.813,0.668,5.771c-0.077,0.805-0.845,0.886-1.508,0.901c-1.608,0.037-3.217,0.192-4.812,0.227
		c-2.76,0.06-5.5,0.485-8.266,0.357c-1.074-0.05-2.173,0.581-3.227-0.121c-0.185-0.122-0.369-0.243-0.554-0.365
		C129.486,183.939,129.299,183.829,129.467,183.544z"/>
	<path style="fill:#A94B00;" d="M131.657,140.611c-0.299-2.682-1.126-4.77-2.245-6.944c2.685,0.36,4.142,1.968,5.024,4.158
		c1.35,3.353,1.309,6.87,0.99,10.395c-0.061,0.678-0.213,1.346-0.051,2.258c3.384-3.318,5.203-7.132,5.258-11.868
		c0.763,0.319,1.059,0.898,1.309,1.466c1.731,3.932,1.262,7.742-0.694,11.454c-0.172,0.326-0.419,0.613-0.593,0.939
		c-0.857,1.61-2.069,2.247-4.002,2.234c-3.831-0.024-7.667,0.287-11.497,0.525c-1.204,0.075-1.456-0.312-1.136-1.427
		c1.375-4.79-0.058-8.96-3.051-12.68c-1.303-1.62-3.284-2.276-5.25-2.603c-2.161-0.359-3.836-1.194-5.416-2.811
		c-1.155-1.182-1.876-1.895-1.229-3.65c0.544-1.477,0.283-1.55,1.886-1.062c4.111,1.252,8.245,2.382,12.496,3.121
		c3.198,0.556,5.221,3.007,7.25,5.313C130.944,139.701,131.16,139.991,131.657,140.611z"/>
	<path style="fill:#A94B00;" d="M60.765,133.338c3.625-2.113,4.563-5.697,5.251-9.62c1.264,2.732,2.432,5.27,3.612,7.803
		c0.567,1.216,1.161,2.419,1.734,3.633c0.159,0.336,0.335,0.715,0.092,1.055c-0.287,0.401-0.705,0.117-1.022,0.032
		c-1.381-0.373-2.746-0.803-4.319-1.272c0.415,1.442,1.042,2.573,2.285,3.324c0.289,0.175,0.834,0.205,0.686,0.711
		c-0.168,0.575-0.708,0.334-1.073,0.28c-3.527-0.527-6.537,0.616-9.304,2.721c-2.251,1.712-3.344,4.02-3.687,6.741
		c-0.061,0.481,0.1,0.99,0.2,1.841c-1.359-1.864-1.983-3.702-2.462-5.578c-1.206-4.729-0.547-9.364,0.854-13.942
		c1.422-4.646,3.02-9.232,4.698-13.79c0.043-0.116,0.14-0.211,0.413-0.612c0.28,2.734-0.358,5.087-0.551,7.489
		c2.865-4.647,4.502-9.7,5.089-15.149c0.928,4.064,0.487,8.164,0.348,12.267C63.466,125.491,62.512,129.482,60.765,133.338z"/>
	<path style="fill:#CE5B00;" d="M28.003,135.018c-1.199-2.451-2.187-4.99-3.156-7.536c1.828-2.678,2.974-5.672,3.616-8.8
		c0.738-3.601,2.442-6.225,6.009-7.483c0.773-0.273,1.478-0.738,2.28-1.039c-1.106,1.428-2.562,2.46-4.326,3.554
		c2.522,0.248,4.655-0.149,6.632-1.182c0.827-0.432,1.189-0.276,1.595,0.481c1.822,3.4,2.149,6.675-0.283,10.013
		C36.93,127.747,33.039,131.961,28.003,135.018z"/>
	<path style="fill:#CE5B00;" d="M147.205,139.983c-1.945-2.774-3.638-5.2-5.346-7.617c-0.888-1.256,0.109-3.659,1.631-3.93
		c0.625-0.111,0.77,0.413,1.043,0.74c4.017,4.816,5.632,7.936,7.903,15.316c0.234-2.358,0.197-4.48-0.215-6.594
		c-0.414-2.122-1.108-4.163-1.804-6.212c2.822,3.072,4.617,6.661,5.396,10.733c0.663,3.467,0.461,6.909-0.643,10.277
		c-0.165,0.504-0.237,1.074-1.018,1.107c-3.318,0.137-6.635,0.32-10.189,0.498c4.191-5.282,3.235-10.601,0.277-16.19
		C145.452,138.521,146.009,139.402,147.205,139.983z"/>
	<path style="fill:#CE5B00;" d="M60.841,144.333c-1.209,0.237-1.678,1.12-2.644,1.772c0.568-1.662,1.641-2.494,2.796-3.241
		c2.708-1.752,5.668-2.102,8.792-1.573c2.511,0.425,4.965,1.04,7.327,2.08c-2.766-0.24-5.516-0.178-8.409,0.244
		c1.112,0.572,2.237,0.44,3.274,0.696c2.158,0.535,4.311,1.062,6.256,2.19c0.759,0.44,1.369,0.924,0.954,1.99
		c-0.384,0.986-0.663,1.866-2.059,1.759c-2.035-0.157-4.071,0.062-6.056,0.553c-2.905,0.718-4.082,2.248-3.793,5.213
		c0.119,1.224-0.289,1.11-1.184,1c-2.977-0.365-5.231-1.621-6.353-4.57C58.668,149.62,59.043,147.006,60.841,144.333z"/>
	<path style="fill:#A94B00;" d="M167.872,49.016c0.976,2.331,1.952,4.663,2.927,6.994c-0.466,2.37-0.415,2.493,1.498,3.644
		c0.534,1.048,1.006,2.122,1.328,3.256c-3.996,0.16-7.53,1.751-10.965,3.602c-4.374,2.357-8.366,5.282-12.229,8.389
		c-0.173,0.139-0.357,0.267-0.767,0.572c0.665-3.037,2.058-5.369,3.938-7.447c3.733-4.127,8.37-6.957,13.34-9.315
		c0.401-0.19,0.887-0.262,1.174-0.681c-3.344-1.026-7.093-0.29-14.748,2.947c0.349-0.432,0.532-0.697,0.752-0.927
		c2.802-2.931,5.97-5.376,9.537-7.321C165.326,51.818,166.914,50.76,167.872,49.016z"/>
	<path style="fill:#CE5B00;" d="M184.24,88.545c0.939,1.949,1.79,3.935,2.475,5.989c-4.626,1.305-9.281,2.491-13.988,3.471
		c-0.112,0.023-0.236-0.016-0.645-0.051c2.972-2.135,6.215-3.052,9.326-4.271c-4.338,0.21-8.524,1.144-12.584,2.595
		c-1.415,0.506-2.736,0.627-4.176,0.232c-1.849-0.508-3.728-0.908-5.842-1.414c4.26-2.452,8.593-3.862,13.116-4.66
		C176.012,89.714,180.133,89.168,184.24,88.545z"/>
	<path style="fill:#A94B00;" d="M38.027,159.61c-1.619-3.964-3.239-7.927-4.852-11.893c-0.189-0.466-0.336-0.949-0.503-1.425
		c1.539-4.348,3.143-8.66,6.505-12.045c-1.129,4.294-0.946,8.563-0.15,12.861c0.8,4.314,2.412,8.3,4.764,12.159
		C41.762,159.499,39.906,159.711,38.027,159.61z"/>
	<path style="fill:#A94B00;" d="M51.895,94.871c1.979-2.96,4.079-5.553,7.923-6.474c4.017-0.962,7.962-2.202,12.076-2.768
		c1.449-0.199,2.645-1.322,4.181-1.332c-1.024,2.091-2.324,3.978-4.024,5.587c-0.774,0.733-1.68,0.889-2.688,0.848
		c-3.161-0.129-6.3-0.086-9.234,1.348c-0.197,0.096-0.388,0.205-0.635,0.336c0.453,0.469,1.03-0.013,1.533,0.459
		c-1.648,1.418-3.3,2.814-4.756,4.407c-0.326,0.357-0.537,0.166-0.799-0.068C54.397,96.256,53.138,95.575,51.895,94.871z"/>
	<path style="fill:#A94B00;" d="M138.321,69.224c-0.043,2.294,0.113,4.267-0.199,6.242c-0.101,0.641-0.348,1.007-0.935,1.205
		c-2.006,0.675-4.041,0.843-6.133,0.468c-0.608-0.109-0.738-0.284-0.566-0.902c0.493-1.772,1.128-3.515,1.237-5.377
		c0.036-0.61,0.412-0.554,0.879-0.508C134.503,70.536,136.386,70.537,138.321,69.224z"/>
	<path style="fill:#CE5A00;" d="M77.208,157.696c2.951-1.267,5.938-2.437,8.419-4.431c1.436-1.154,2.376-1.198,3.784-0.027
		c1.415,1.177,3.218,1.786,4.97,2.398c0.303,0.106,0.855,0.077,0.75,0.613c-0.091,0.461-0.499,0.584-0.966,0.605
		c-3.83,0.173-7.659,0.363-11.488,0.554C80.854,157.498,79.031,157.599,77.208,157.696z"/>
	<path style="fill:#A94B00;" d="M82.622,153.4c-3.734,2.039-7.349,3.437-11.332,3.778c-0.749,0.064-1.098-0.323-1.364-0.918
		c-0.383-0.858-0.465-1.695,0.163-2.478c0.7-0.872,1.692-1.311,2.714-1.595C76.129,151.261,79.242,152.162,82.622,153.4z"/>
	<path style="fill:#CD5B01;" d="M51.079,188.612c2.123-0.118,4.247-0.242,6.37-0.352c1.421-0.073,1.644-0.399,1.051-1.703
		c-2.292-5.044-4.581-10.09-6.915-15.114c-0.373-0.802-0.357-1.378,0.171-2.121c1.605-2.26,3.116-4.587,4.666-6.886
		c0.282-0.419,0.647-0.805,0.447-1.378c1.202,0.288,1.435,0.784,0.778,1.775c-1.607,2.424-3.236,4.833-4.855,7.249
		c-0.276,0.412-0.624,0.773-0.347,1.368c2.45,5.268,4.88,10.545,7.315,15.819c0.076,0.251,0.154,0.503,0.231,0.754
		c-0.242,0.659-0.649,1.048-1.413,1.073c-1.971,0.065-3.94,0.172-5.909,0.282C51.984,189.417,51.383,189.339,51.079,188.612z"/>
	<path style="fill:#CD5B01;" d="M129.467,183.544c0.08,0.163,0.161,0.327,0.241,0.49c0.042,0.904-0.394,1.388-1.293,1.434
		c-2.032,0.104-4.066,0.185-6.098,0.3c-0.665,0.038-1.186-0.117-1.469-0.769c2.124-0.118,4.247-0.243,6.371-0.351
		c1.42-0.073,1.643-0.4,1.051-1.703c-2.292-5.044-4.581-10.09-6.915-15.114c-0.373-0.802-0.357-1.378,0.171-2.121
		c1.605-2.26,3.116-4.587,4.666-6.886c0.282-0.418,0.649-0.805,0.447-1.378c1.202,0.288,1.435,0.784,0.777,1.776
		c-1.608,2.424-3.231,4.838-4.862,7.248c-0.319,0.471-0.583,0.879-0.292,1.504C124.679,173.155,127.069,178.351,129.467,183.544z"/>
	<path style="fill:#CD5A01;" d="M162.535,182.832c2.072-0.128,4.144-0.243,6.215-0.389c1.27-0.089,1.454-0.411,0.859-1.568
		c-0.366-0.711-0.6-1.423-0.637-2.231c-0.298-6.592-0.568-13.187-0.973-19.773c-0.08-1.303,0.671-2.377,0.56-3.625
		c0.918-0.02,1.378,0.536,1.056,1.304c-0.968,2.308-0.379,4.666-0.313,6.983c0.141,4.987,0.495,9.967,0.724,14.952
		c0.049,1.075,0.168,2.078,0.71,3.053c0.572,1.029,0.158,1.644-1.046,1.718c-1.891,0.116-3.785,0.187-5.675,0.306
		C163.357,183.603,162.818,183.502,162.535,182.832z"/>
	<path style="fill:#CD5B01;" d="M81.944,186.128c0.073,0.119,0.146,0.238,0.218,0.355c0.083,1.049-0.389,1.495-1.454,1.52
		c-1.941,0.046-3.88,0.177-5.819,0.286c-0.638,0.036-1.212-0.017-1.494-0.708c2.03-0.129,4.058-0.257,6.087-0.389
		c1.793-0.116,1.918-0.325,1.094-1.867c-1.306-2.445-2.619-4.886-3.936-7.326c-0.287-0.532-0.61-1.038,0.415-1.064
		c0.787-0.02,0.762-0.746,0.899-1.22c1.408-4.867,1.151-9.678-0.574-14.425c-0.141-0.388-0.294-0.771-0.441-1.157
		c0.629-0.098,0.908,0.278,1.124,0.791c2.201,5.214,2.535,10.518,0.776,15.923c-0.071,0.218-0.137,0.57-0.279,0.612
		c-1.808,0.537-0.589,1.463-0.23,2.145C79.489,181.803,80.733,183.956,81.944,186.128z"/>
	<path style="fill:#CD5A01;" d="M98.265,186.068c2.075-0.121,4.15-0.253,6.226-0.357c0.89-0.045,1.417-0.446,0.948-1.301
		c-1.472-2.685-1.779-5.708-2.579-8.581c-1.237-4.442-2.23-8.953-3.481-13.391c-0.37-1.313,0.063-2.431,0.176-3.637
		c1.166-0.018,1.167,0.762,0.903,1.509c-0.299,0.844-0.203,1.606,0.01,2.435c1.711,6.661,3.399,13.328,5.078,19.997
		c0.185,0.736,0.528,1.375,0.94,1.992c0.073,0.269,0.146,0.537,0.22,0.805c-0.208,0.732-0.709,0.985-1.448,1.01
		c-1.796,0.061-3.592,0.166-5.386,0.279C99.178,186.87,98.573,186.802,98.265,186.068z"/>
	<path style="fill:#CC5A01;" d="M149.453,183.563c2.078-0.122,4.157-0.238,6.234-0.369c0.485-0.03,1.028,0.105,1.304-0.53
		c0.249-0.574-0.157-0.896-0.444-1.201c-0.587-0.624-0.693-1.337-0.727-2.154c-0.171-4.106-0.394-8.209-0.61-12.528
		c0.717,0.379,1.01,0.882,1.355,1.325c-0.363,1.228-0.124,2.476-0.074,3.709c0.104,2.583,0.318,5.161,0.431,7.744
		c0.041,0.945,0.169,1.772,0.82,2.549c0.756,0.903,0.417,1.712-0.757,1.822c-2.113,0.199-4.238,0.271-6.358,0.397
		C150.046,184.363,149.657,184.106,149.453,183.563z"/>
	<path style="fill:#CB5901;" d="M99.847,194.334c-1.257,0.382-1.755-0.356-1.823-1.651c-0.022-0.413-0.145-0.819-0.183-1.233
		c-0.291-3.178,0.723-4.115,3.892-3.687c0.606,0.082,0.78,0.461,0.876,0.905c0.164,0.764,0.309,1.542,0.362,2.32
		C103.172,193.944,102.919,194.213,99.847,194.334z"/>
	<path style="fill:#CC5A00;" d="M118.548,189.443c0.067,1.402,0.045,2.379,0.186,3.332c0.083,0.563,0.007,0.774-0.566,0.745
		c-0.429-0.022-0.855,0.18-0.842-0.638c0.026-1.705-0.122-3.414-0.228-5.119c-0.019-0.311-0.064-0.58,0.331-0.577
		c0.478,0.003,1.015-0.256,1.401,0.275c0.375,0.515,0.768,1.017,1.44,1.477c0-0.417,0.083-0.856-0.02-1.246
		c-0.142-0.535-0.086-0.782,0.526-0.756c0.475,0.021,0.878-0.048,0.888,0.687c0.021,1.614,0.149,3.228,0.242,4.841
		c0.026,0.439,0.068,0.83-0.568,0.86c-0.603,0.029-0.819-0.189-0.795-0.795C120.597,191.207,119.574,190.565,118.548,189.443z"/>
	<path style="fill:#CD5A00;" d="M95.117,194.57c-1.407,0.615-1.628-0.524-2.101-1.312c-0.199-0.332-0.284-0.923-0.823-0.774
		c-0.549,0.151-0.243,0.708-0.281,1.082c-0.041,0.4,0.095,0.832-0.012,1.202c-0.036,0.123-0.583,0.12-0.898,0.136
		c-0.483,0.025-0.446-0.324-0.463-0.661c-0.077-1.57-0.176-3.139-0.252-4.709c-0.013-0.268,0.015-0.768,0.072-0.775
		c1.221-0.153,2.462-0.409,3.669-0.3c0.688,0.062,0.683,1.011,0.66,1.648c-0.025,0.714,0.089,1.405-0.302,2.144
		C93.959,193.057,95.037,193.663,95.117,194.57z"/>
	<path style="fill:#CD5B01;" d="M130.262,184.398c5.391-0.301,10.78-0.637,16.174-0.873c1.098-0.048,1.45-0.355,1.328-1.438
		c-0.179-1.602-0.245-3.217-0.358-4.825c0.896,0.104,1.194,0.661,1.231,1.501c0.05,1.133-0.125,2.284,0.241,3.395
		c-0.044,0.37-0.173,0.743,0.044,1.103c-0.049,0.851-0.609,1.02-1.331,1.057c-5.292,0.27-10.583,0.551-15.874,0.84
		C131.061,185.193,130.521,185.083,130.262,184.398z"/>
	<path style="fill:#CD5A00;" d="M87.54,194.87c-0.718,0.056-1.405,0.418-1.626-0.594c-0.149-0.682-0.744-0.359-1.156-0.385
		c-0.427-0.026-0.903,0.033-0.913,0.598c-0.016,0.93-0.696,0.738-1.18,0.677c-0.787-0.1-0.225-0.652-0.191-0.957
		c0.175-1.557,0.427-3.105,0.629-4.659c0.192-1.47,1.408-0.534,2.088-0.878c0.568-0.287,0.828,0.115,0.966,0.744
		C86.553,191.215,87.055,192.989,87.54,194.87z"/>
	<path style="fill:#CC5A00;" d="M129.582,192.738c-0.48,0.009-0.886,0.074-0.906-0.38c-0.045-1.015-0.767-0.668-1.303-0.697
		c-0.604-0.032-0.968,0.182-0.943,0.87c0.028,0.775-0.593,0.361-0.907,0.416c-0.571,0.1-0.544-0.332-0.483-0.718
		c0.265-1.683,0.569-3.361,0.782-5.05c0.065-0.515,0.321-0.568,0.704-0.633c2.064-0.351,2.063-0.356,2.573,1.698
		c0.3,1.207,0.558,2.428,0.921,3.616C130.217,192.508,130.196,192.833,129.582,192.738z"/>
	<path style="fill:#CD5B02;" d="M107.187,185.788c2.031-0.12,4.062-0.233,6.093-0.364c1.201-0.078,1.479-0.517,0.907-1.597
		c-1.033-1.95-0.933-4.155-0.649-6.092c0.229-1.559,1.768-2.926,2.795-4.483c0.415,0.499,0.591,0.891,0.647,1.345
		c-0.104,0.151-0.184,0.33-0.317,0.449c-2.442,2.188-2.299,5.006-1.948,7.884c0.07,0.574,0.402,1.021,0.623,1.523
		c0.437,0.996,0.125,1.694-0.908,1.773c-2.018,0.154-4.043,0.22-6.065,0.327C107.781,186.583,107.404,186.312,107.187,185.788z"/>
	<path style="fill:#CD5B02;" d="M37.419,189.401c1.984-0.119,3.969-0.238,5.953-0.356c1.391-0.082,1.62-0.466,0.992-1.737
		c-0.967-1.958-0.904-4.156-0.578-6.096c0.256-1.52,1.772-2.827,2.795-4.325c0.396,0.476,0.572,0.869,0.628,1.323
		c-0.104,0.151-0.184,0.33-0.317,0.449c-2.442,2.188-2.299,5.006-1.948,7.883c0.07,0.574,0.402,1.021,0.623,1.523
		c0.437,0.996,0.126,1.695-0.907,1.773c-2.018,0.154-4.043,0.22-6.065,0.327C38.012,190.196,37.634,189.929,37.419,189.401z"/>
	<path style="fill:#CD5A01;" d="M137.772,177.942c-0.536,0.068-1.101,0.297-1.12-0.652c-0.032-1.566-0.14-3.132-0.258-4.694
		c-0.053-0.706,0.18-1.03,0.91-0.991c1.917,0.103,3.846-0.48,5.761,0.18c0.807,0.278,1.225-0.159,1.179-1.006
		c-0.1-1.84-0.205-3.681-0.308-5.521c0.84,0.108,1.139,0.594,1.154,1.425c0.027,1.479,0.176,2.955,0.218,4.434
		c0.04,1.415-0.412,1.782-1.758,1.37c-1.843-0.564-3.674,0.066-5.51-0.041c-0.639-0.037-0.535,0.528-0.517,0.92
		C137.591,174.894,137.687,176.418,137.772,177.942z"/>
	<path style="fill:#CB5901;" d="M76.74,195.747c-1.501,0.363-1.92-0.439-2.085-1.75c-0.163-1.294-0.249-2.558-0.005-3.85
		c0.106-0.559,0.325-0.78,0.898-0.789c0.781-0.013,1.56-0.118,2.341-0.184c0.522-0.044,0.913,0.098,0.996,0.691
		c0.06,0.429,0.522,0.934,0.03,1.261c-0.417,0.277-0.931,0.25-1.263-0.36c-0.272-0.501-0.84-0.306-1.264-0.232
		c-0.53,0.092-0.501,0.62-0.503,1.009c-0.004,0.642,0.038,1.291,0.142,1.924c0.173,1.059,1.083,1.381,1.813,0.571
		c0.383-0.425,0.722-0.537,1.18-0.423c0.457,0.113,0.301,0.493,0.232,0.797c-0.116,0.509-0.02,1.154-0.865,1.159
		C77.837,195.573,77.289,195.685,76.74,195.747z"/>
	<path style="fill:#CC5B02;" d="M60.488,188.289c2.027-0.12,4.054-0.241,6.08-0.36c1.427-0.084,1.669-0.45,0.996-1.703
		c-0.409-0.763-0.554-1.553-0.592-2.389c-0.075-1.66-0.182-3.32-0.215-4.981c-0.009-0.47-0.469-1.251,0.403-1.349
		c0.717-0.081,1.73-0.583,2.044,0.695c-1.227-0.136-1.575,0.405-1.414,1.596c0.178,1.317,0.204,2.658,0.229,3.99
		c0.02,1.119,0.152,2.168,0.729,3.176c0.549,0.958,0.113,1.686-1.024,1.77c-1.972,0.146-3.949,0.209-5.923,0.323
		C61.178,189.091,60.726,188.888,60.488,188.289z"/>
	<path style="fill:#CB5A01;" d="M137.174,165.754c-0.732,0.234-1.063,0.07-1.119-0.8c-0.169-2.649-0.207-2.74,2.428-2.76
		c2.28-0.018,4.566-0.631,6.858,0.125c0.856,0.283,1.074-0.443,1.031-1.182c-0.094-1.611-0.187-3.221-0.281-4.832
		c0.771-0.043,1.092,0.41,1.139,1.093c0.099,1.43,0.204,2.862,0.239,4.295c0.031,1.254-0.484,1.618-1.718,1.325
		c-2.718-0.645-5.429,0.145-8.145,0.046c-0.581-0.021-0.619,0.45-0.587,0.893C137.064,164.557,137.122,165.156,137.174,165.754z"/>
	<path style="fill:#CC5B02;" d="M82.739,186.898c1.933-0.116,3.866-0.24,5.799-0.347c1.446-0.08,1.736-0.409,1.144-1.653
		c-0.498-1.048,0.007-1.99,0.056-2.976c0.021-0.434,0.433-0.407,0.749-0.427c2.118-0.132,4.236-0.254,6.354-0.391
		c0.695-0.045,0.76,0.343,0.652,0.877c-1.93,0.077-3.86,0.138-5.789,0.235c-0.787,0.039-1.344,1.252-1.15,2.486
		c0.049,0.311,0.187,0.615,0.317,0.907c0.481,1.077-0.045,1.638-1.034,1.725c-1.971,0.173-3.952,0.225-5.928,0.33
		C83.328,187.695,82.943,187.438,82.739,186.898z"/>
	<path style="fill:#C95901;" d="M107.756,194.088c-1.356,0.325-1.757-0.223-1.693-1.565c0.063-1.322-0.119-2.659-0.23-3.986
		c-0.048-0.577,0.106-0.824,0.731-0.852c0.671-0.03,0.694,0.25,0.677,0.805c-0.024,0.775,0.178,1.558,0.15,2.332
		c-0.047,1.302,0.105,2.302,1.811,1.91c0.369-0.085,0.619,0.102,0.685,0.491c0.082,0.491-0.211,0.659-0.625,0.706
		C108.761,193.988,108.258,194.036,107.756,194.088z"/>
	<path style="fill:#C95901;" d="M114.164,192.185c0,0.184-0.042,0.514,0.01,0.829c0.074,0.45,0.159,0.826-0.518,0.791
		c-0.469-0.025-0.885,0.079-0.897-0.666c-0.025-1.612-0.133-3.225-0.257-4.834c-0.051-0.667,0.165-0.882,0.834-0.899
		c0.836-0.022,0.528,0.511,0.555,0.914C113.974,189.562,114.066,190.804,114.164,192.185z"/>
	<path style="fill:#A24801;" d="M122.155,150.109c0,1.461,0.02,2.923-0.014,4.384c-0.009,0.388-0.039,0.908-0.606,0.936
		c-0.639,0.032-1.29,0.033-1.918-0.068c-0.23-0.037-0.081-0.392,0.014-0.597c0.734-1.582,1.47-3.163,2.205-4.744
		C121.942,150.05,122.049,150.08,122.155,150.109z"/>
	<path style="fill:#C95A03;" d="M44.137,168.94c-0.173,0.534-0.513,0.954-1.104,1.569c0.039-3.043-0.655-5.863,0.376-8.646
		c0.883-0.088,1.322,0.534,1.022,1.154C43.478,164.984,44.04,166.96,44.137,168.94z"/>
	<path style="fill:#C95A03;" d="M113.907,165.327c-0.173,0.534-0.513,0.954-1.104,1.569c0.039-3.043-0.655-5.863,0.376-8.646
		c0.883-0.088,1.321,0.534,1.022,1.154C113.249,161.37,113.81,163.347,113.907,165.327z"/>
	<path style="fill:#A84A01;" d="M132.376,68.739c0.67-1.783,2.081-2.845,3.627-2.795c0.307,0.01,0.693-0.095,0.868,0.258
		c0.196,0.395-0.076,0.733-0.314,0.991C135.44,68.404,133.957,68.611,132.376,68.739z"/>
	<path style="fill:#C85C09;" d="M161.695,163.327c0.015,0.181,0.106,0.406,0.031,0.533c-0.214,0.361-0.364,0.026-0.48-0.114
		c-1.68-2.02-3.34-4.056-5.031-6.066c-0.488-0.58,0.212-1.279-0.265-1.828c0.935,0.097,1.511,0.487,1.182,1.534
		c-0.143,0.456,0.157,0.697,0.382,0.968C158.9,160.018,160.3,161.67,161.695,163.327z"/>
	<path style="fill:#CC5B02;" d="M29.148,137.881c-0.184-0.449-0.369-0.898-0.553-1.348c2.333-0.85,4.431-2.141,6.511-3.49
		C33.361,134.97,31.315,136.501,29.148,137.881z"/>
	<path style="fill:#A34902;" d="M128.932,80.999c0.94-3.141,3.09-2.078,5.31-1.852C132.414,80.133,130.478,79.732,128.932,80.999z"
		/>
	<path style="fill:#C35A08;" d="M24.331,126.198c-0.228-0.509-0.456-1.018-0.683-1.526c0.52-0.579,1.04-1.158,1.56-1.737
		C25.202,124.181,24.779,125.193,24.331,126.198z"/>
	<path style="fill:#9F4C0C;" d="M31.219,142.899c-0.298-0.696-0.595-1.392-0.892-2.087c0.451-0.191,0.901-0.383,1.542-0.656
		C31.632,141.155,31.425,142.027,31.219,142.899z"/>
	<path style="fill:#1A1A1A;" d="M34.098,45.561c-0.119-0.625,0.448-0.975,0.6-1.492c0.847-0.441,0.773,0.318,0.831,0.71
		c0.13,0.87,0.034,1.756,0.059,2.635c0.138,4.947,1,9.749,2.86,14.354c0.991,2.454,2.527,4.514,4.525,6.234
		c0.549,0.472,1.121,0.925,2.083,1.152c-2.803-6.241-3.816-12.523-2.33-19.083c0.107-0.472,0.131-0.467,0.769-1.074
		c0.625,0.66,0.383,1.485,0.424,2.245c0.043,0.781-0.026,1.573,0.336,2.296c0.203-5.368,1.029-10.586,3.622-15.393
		c0.376-0.697,0.77-1.376,1.346-1.926c0.19-0.182,0.418-0.411,0.722-0.224c0.214,0.132,0.249,0.383,0.253,0.614
		c0.009,0.563-0.171,1.095-0.306,1.633c-1.024,4.091-1.876,8.211-2.145,12.448c0.562-1.957,1.043-3.924,1.837-5.788
		c0.817-1.918,1.738-3.786,2.84-5.56c1.108-1.785,2.493-3.342,4.046-4.739c2.555-2.298,5.457-4.14,8.276-6.08
		c4.461-3.072,9.004-6.026,13.509-9.034c0.926-0.618,1.948-1.062,2.888-1.652c2.797-1.348,5.671-2.511,8.583-3.582
		c0.083,0.809-0.566,1.119-1.068,1.485c-3.444,2.516-7.124,4.673-10.696,6.994c-3.302,2.145-6.638,4.245-9.782,6.615
		c-2.709,2.042-4.524,4.871-6.287,7.71c-2.106,3.392-3.864,6.962-5.374,10.656c-0.07,0.172-0.133,0.347-0.219,0.51
		c-0.19,0.359-0.298,0.893-0.799,0.845c-0.609-0.058-0.587-0.644-0.605-1.091c-0.091-2.288,0.423-4.5,0.905-6.734
		c-4.715,5.371-6.646,14.363-4.991,23.711c-0.201-2.017-0.124-3.734,0.191-5.44c0.086-0.463,0.161-1.07,0.705-1.046
		c0.595,0.026,0.494,0.68,0.531,1.114c0.308,3.639,1.241,7.088,2.872,10.374c0.945,1.904,2.339,2.659,4.429,2.61
		c3.608-0.085,7.105-0.558,10.347-2.256c1.07-0.561,2.037-1.255,2.869-2.361c-2.001-0.569-3.897-1.112-5.646-2.054
		c-4.019-2.164-6.536-5.371-7.057-9.996c-0.051-0.456-0.257-1.057,0.211-1.275c0.6-0.279,0.847,0.39,1.135,0.771
		c0.642,0.85,1.237,1.735,2.022,2.56c-0.389-2.318,0.344-4.317,1.507-6.211c1.924-3.133,4.527-5.605,7.458-7.7
		c-2.166,0.768-4.184,1.912-6.117,3.222c-0.394,0.267-0.887,0.806-1.315,0.241c-0.378-0.499,0.159-0.943,0.501-1.299
		c2.87-2.988,5.924-5.754,9.777-7.434c1.097-0.478,1.626-1.197,1.9-2.333c0.951-3.941,2.396-7.714,4.537-11.155
		c3.375-5.426,8.198-9.082,14.218-11.226c2.491-0.887,5.051-1.528,7.56-2.344c0.362-0.118,0.729-0.112,1.1-0.082
		c1.389,0.507,2.779,1.013,4.079,1.73c-3.852,0.806-7.647,1.792-11.372,3.092c-5.398,1.885-9.305,5.379-11.911,10.425
		c-2.073,4.016-3.632,8.202-4.387,12.669c-0.091,0.541-0.116,1.094-0.088,1.669c1.734-3.989,2.681-8.402,6.285-11.332
		c-2.933,5.275-5.653,10.602-5.573,16.863c0.025,1.922,0.208,2.878,0.856,4.263c0.13-2.174,0.131-4.249,0.766-6.236
		c0.094-0.295,0.153-0.635,0.648-0.889c-0.036,0.599-0.055,1.112-0.099,1.622c-0.297,3.395-0.144,6.743,0.915,10.019
		c0.468,1.449,0.934,2.906,0.911,4.468c-0.015,1.042-0.356,1.881-1.416,2.633c0.268-1.832-0.664-1.692-1.862-1.48
		c-1.554,0.274-2.503,1.097-2.979,2.546c-0.274,0.835-0.508,1.683-0.802,2.511c-0.479,1.353-1.285,2.513-2.551,3.189
		c-4.369,2.332-8.738,4.711-13.77,5.314c-7.866,0.942-15.37-0.103-22.048-4.631c-5.212-3.534-7.958-8.763-9.347-14.784
		c-0.083-0.358-0.202-0.707-0.304-1.061c0.402-1.347,0.945-2.636,1.603-3.877c0.606,0.355,0.535,1.121,1,1.718
		C32.561,49.681,33.454,47.641,34.098,45.561z"/>
	<path style="fill:#1A1A1A;" d="M109.325,13.636c4.262,1.646,8.486,3.383,12.657,5.249c-0.573,0.492-0.96,1.125-1.301,1.782
		c-2.052,3.953-5.54,5.486-9.751,5.8c-0.506,0.038-1.023,0.041-1.526-0.016c-2.716-0.308-4.379,1.032-5.424,3.392
		c-1.445,3.264-1.82,6.672-1.346,10.18c0.267,1.975,0.056,3.89-0.659,5.724c-1.972,5.063-8.128,6.036-11.71,1.879
		c-2.705-3.139-3.074-8.316-0.831-11.808c1.614-2.513,3.853-4.487,5.799-6.714c2.004-2.294,2.139-4.608,0.469-7.103
		c-0.051-0.077-0.098-0.16-0.163-0.224c-0.768-0.769-0.492-1.512,0.083-2.215c0.806-0.986,1.856-1.667,2.975-2.237
		C102,15.594,105.627,14.509,109.325,13.636z"/>
	<path style="fill:#191A1A;" d="M115.047,62.108c0.804-0.529,1.609-1.058,2.612-1.717c-0.708,1.742-1.642,3.085-2.906,4.152
		c-0.907,0.766-1.567,1.637-2.091,2.7c-1.191,2.414-3.078,2.704-4.965,0.76c-0.643-0.662-1.293-0.41-1.913-0.275
		c-2.918,0.636-5.219,2.284-7.12,4.536c-0.327,0.388-0.627,0.799-1.154,1.473c-0.054-1.722,0.286-3.089,0.758-4.514
		c-1.094-0.016-2.014,0.47-3.233,0.663c1.299-1.298,2.711-2.158,3.875-3.653c-0.852,0.208-1.48,0.362-2.273,0.556
		c0.528-4.124,1.746-7.739,5.619-9.693c1.96-0.989,3.107-2.179,3.207-4.502c0.086-1.98,1.027-3.808,1.974-5.592
		c-0.163,0.808-0.379,1.609-0.476,2.425c-0.137,1.149-0.162,2.31,0.023,3.46c0.156,0.975,0.417,1.622,1.694,1.068
		c1.087-0.472,2.309-0.647,3.481-0.904c3.894-0.855,7.198-2.602,9.484-6.538c0.528,3.716-0.733,6.542-2.114,9.446
		c-0.588-0.506-0.426-1.296-1.097-1.577c-0.585,1.256-0.845,2.664-1.817,3.715c-0.101,0.155,0.062-0.021-0.043,0.132
		c-0.444,0.648-1.093,1.616-1.74,1.219c-0.703-0.432,0.283-1.15,0.556-1.715c0.479-0.991,0.889-2.011,1.135-2.661
		c-1.379,4.271-5.349,6.23-9.341,8.13c-1.458,0.694-2.986,1.228-4.366,2.099c-1.775,1.121-3.18,2.52-3.817,4.659
		c3.423-2.554,7.075-4.545,11.227-5.526c1.315-0.31,2.538-0.861,3.572-1.766C114.158,62.355,114.586,62.194,115.047,62.108z"/>
	<path style="fill:#A94B00;" d="M115.047,62.108c-1.467,1.304-3.086,2.327-5.032,2.763c-4.054,0.909-7.535,2.978-10.855,5.371
		c-0.179,0.129-0.36,0.256-0.718,0.51c0.501-2.269,1.552-3.89,3.267-5.149c2.342-1.72,5.132-2.521,7.667-3.846
		c3.143-1.643,5.657-3.805,7.093-7.103c0.067-0.153,0.203-0.276,0.403-0.54c-0.221,2.026-0.979,3.663-1.965,5.266
		c0.57-0.427,1.14-0.854,1.709-1.282c-0.006,1.32-0.813,2.299-1.437,3.354C115.056,61.661,114.691,61.807,115.047,62.108z"/>
	<path style="fill:#1A1A1A;" d="M112.859,49.842c2.621-1.849,4.235-4.368,5.395-7.247c0.327-0.811,0.937-1.482,1.691-1.975
		c1.363-0.892,2.496-0.688,3.422,0.647c0.813,1.171,1.55,2.389,2.124,3.748c-0.9,0.211-1.579-0.09-2.218-0.599
		c-1.29-1.027-1.958-1.009-3.073,0.175c-0.566,0.601-1.144,1.242-1.512,1.969C117.478,48.946,115.397,49.747,112.859,49.842z"/>
	<path style="fill:#191A1A;" d="M87.38,64.188c0.934-1.559,0.895-2.915,0.484-4.494c-0.521-2.008-0.011-4.018,1.861-5.87
		c-0.512,2.124-1.456,3.815-0.998,5.753c0.129-2.431,1.584-3.795,3.848-4.89c-0.288,1.065-0.737,1.749-1.343,2.278
		c-0.998,0.871-1.417,1.951-1.259,3.213C90.218,62.131,89.264,63.287,87.38,64.188z"/>
	<path style="fill:#1A1A1A;" d="M113.279,68.57c2.28-3.808,5.968-6.199,7.42-10.222C120.293,63.104,117.509,66.163,113.279,68.57z"
		/>
	<path style="fill:#1B1A1A;" d="M99.859,57.205c-2.096,1.45-2.898,3.639-3.552,5.951c-0.396,1.4-0.699,2.893-2.105,3.804
		c1.133-2.373,1.584-4.972,2.568-7.384C97.297,58.283,98.379,57.484,99.859,57.205z"/>
	<path style="fill:#221D19;" d="M81.618,66.592c0.213-1.188,0.158-2.534,1.931-2.913C82.828,64.767,82.223,65.68,81.618,66.592z"/>
	<path style="fill:#1A1A1A;" d="M136.88,95.676c-1.761,0.009-3.25-1.299-3.282-2.883c-0.032-1.613,1.185-2.712,2.993-2.701
		c1.874,0.011,3.383,1.359,3.345,2.988C139.902,94.502,138.53,95.667,136.88,95.676z"/>
	<path style="fill:#1C1B1A;" d="M142.039,99.865c-1.049,0.023-1.968-0.918-1.998-2.045c-0.033-1.227,0.918-2.346,2.027-2.387
		c1.077-0.04,2.012,0.854,2.071,1.98C144.207,98.704,143.234,99.839,142.039,99.865z"/>
	<path style="fill:#1B1A1A;" d="M129.939,99.071c-1.219,0.003-2.396-0.814-2.305-1.703c0.109-1.069,0.896-1.409,1.871-1.41
		c1.227-0.001,2.22,0.824,2.193,1.811C131.676,98.615,131.063,99.068,129.939,99.071z"/>
	<path style="fill:#CE5B00;" d="M104.545,11.637c-2.55,1.122-5.292,1.645-7.92,2.538c-8.604,2.923-14.394,8.634-17.5,17.138
		c-0.731,2.002-1.404,4.021-1.89,6.093c-0.18,0.766-0.546,1.135-1.276,1.435c-4.469,1.832-7.87,5.047-10.968,8.661
		c2.629-1.456,5.016-3.388,8.149-3.806c-2.385,2.002-4.816,3.948-6.693,6.45c-1.901,2.534-3.47,5.183-2.611,8.764
		c-0.37-0.404-0.752-0.798-1.106-1.216c-0.418-0.494-0.828-0.998-1.212-1.519c-0.349-0.473-0.659-0.974-1.028-1.527
		c-0.421,2.884,1.11,6.446,3.839,8.959c2.566,2.363,5.78,3.346,9.21,4.095c-1.393,1.909-3.216,2.986-5.212,3.741
		c-3.477,1.315-7.091,1.643-10.79,1.311c-0.901-0.081-1.409-0.481-1.863-1.188c-2.277-3.552-3.345-7.491-3.784-11.636
		c-0.044-0.412-0.055-0.827-0.193-1.248c-0.777,2.272-0.694,4.632-0.642,7.025c-3.599-4.511-0.234-20.951,5.326-25.603
		c-0.55,2.981-1.417,5.797-0.778,8.774c0.572-1.292,1.146-2.583,1.715-3.876c1.308-2.97,2.847-5.817,4.531-8.589
		c2.341-3.853,5.272-7.102,9.135-9.529c5.251-3.299,10.418-6.734,15.61-10.126c1.12-0.732,2.269-1.44,3.13-2.502
		c3.333-1.406,6.67-2.803,9.994-4.231c0.433-0.186,0.781-0.133,1.174,0.039C102.108,10.595,103.328,11.114,104.545,11.637z"/>
	<path style="fill:#A94B00;" d="M81.144,17.838c-3.108,2.416-6.475,4.455-9.729,6.657c-4.179,2.828-8.362,5.648-12.477,8.571
		c-4.991,3.546-7.888,8.484-9.782,14.132c-0.541,1.613-1.076,3.236-1.462,4.917c-0.495-5.493,1.171-10.702,2.136-16.018
		c-4.178,5.459-5.028,11.869-5.236,18.704c-1.496-1.753-0.884-3.707-1.197-5.473c-1.953,7.077-0.815,13.821,2.429,20.546
		c-2.585-0.678-4.198-2.304-5.567-4.153c-2.691-3.633-3.731-7.906-4.478-12.265c-0.47-2.742-0.644-5.509-0.64-8.291
		c0.001-0.38,0.325-0.989-0.443-1.097c1.072-2.649,2.158-5.293,3.205-7.953c0.194-0.493,0.535-0.706,0.975-0.888
		c13.953-5.776,27.903-11.557,41.856-17.332C80.858,17.845,81.007,17.856,81.144,17.838z"/>
	<path style="fill:#A34B05;" d="M34.098,45.561c-0.201,1.122-0.347,2.256-0.616,3.361c-0.323,1.33-0.092,2.636,0.126,4.352
		c-1.089-0.953-1.286-1.939-1.508-2.912C32.644,48.711,33.282,47.099,34.098,45.561z"/>
	<path style="fill:#25201C;" d="M172.298,59.654c-2.015-0.17-2.717-1.878-1.498-3.645C171.299,57.225,171.798,58.439,172.298,59.654
		z"/>
	<path style="fill:#1B1A1A;" d="M71.857,166.794c0.069,0.265,0.156,0.527,0.205,0.795c0.19,1.043,0.313,2.12-0.081,3.113
		c-0.543,1.365-1.834,0.396-2.74,0.716c-0.535,0.189-1.174,0.084-1.766,0.112c-0.714-1.305-0.532-2.742-0.576-4.138
		c-0.014-0.443,0.336-0.802,0.783-0.832C69.079,166.467,70.499,166.138,71.857,166.794z"/>
	<path style="fill:#CE5F0A;" d="M71.857,166.794c-1.202,0.039-2.405,0.128-3.606,0.099c-0.909-0.022-1.093,0.37-1.005,1.18
		c0.124,1.147,0.157,2.304,0.229,3.457c-0.828,0.219-1.195-0.046-1.145-0.953c0.046-0.828-0.019-1.664-0.063-2.494
		c-0.1-1.873-0.107-1.881,1.824-1.995c0.923-0.055,1.85-0.046,2.771-0.118C71.499,165.921,71.82,166.163,71.857,166.794z"/>
	<path style="fill:#1B1A1A;" d="M93.416,165.615c0.775,2.92,1.541,5.842,2.334,8.757c0.173,0.635,0.073,0.928-0.66,0.929
		c-1.053,0.002-2.106,0.087-3.159,0.137c-0.356-0.384-0.297-0.842-0.236-1.303c0.313-2.368,0.672-4.73,1.004-7.095
		C92.775,166.495,92.89,165.945,93.416,165.615z"/>
	<path style="fill:#CC5B03;" d="M93.416,165.615c-0.683,3.246-0.986,6.55-1.486,9.824c-0.933,0.245-1.224-0.052-1.063-1.038
		c0.474-2.912,0.865-5.836,1.302-8.754c0.061-0.405-0.161-1.015,0.589-1.027C93.48,164.608,93.296,165.216,93.416,165.615z"/>
	<path style="fill:#1B1A1A;" d="M131.695,152.012c0.004,1.37-1.071,2.342-2.566,2.319c-1.52-0.023-2.769-1.194-2.738-2.566
		c0.03-1.31,1.032-2.186,2.516-2.198C130.511,149.554,131.69,150.589,131.695,152.012z"/>
	<path style="fill:#211C19;" d="M101.598,191.148c-0.002,1.114,0.059,1.963-1.235,1.907c-0.633-0.027-0.947-0.209-0.987-0.847
		c-0.04-0.643-0.141-1.283-0.161-1.926c-0.023-0.712,0.144-1.203,1.072-1.224c0.885-0.02,1.142,0.348,1.178,1.117
		C101.484,190.586,101.576,190.995,101.598,191.148z"/>
	<path style="fill:#332217;" d="M92.582,191.108c-0.629,0.057-0.907-0.171-0.904-0.77c0.002-0.543,0.259-0.708,0.761-0.708
		c0.508,0.001,0.908,0.052,0.91,0.706C93.351,190.92,93.119,191.2,92.582,191.108z"/>
	<path style="fill:#231D19;" d="M84.821,189.975c0.193,0.668,0.378,1.338,0.581,2.003c0.123,0.401,0.16,0.719-0.411,0.732
		c-0.485,0.011-0.96,0.026-0.85-0.679c0.104-0.668,0.232-1.333,0.349-1.999C84.601,190.014,84.711,189.995,84.821,189.975z"/>
	<path style="fill:#221C19;" d="M127.302,187.71c0.577,0.68,0.51,1.47,0.771,2.145c0.197,0.509-0.061,0.666-0.53,0.632
		c-0.344-0.025-0.865,0.106-0.728-0.497C126.975,189.283,126.793,188.508,127.302,187.71z"/>
	<path style="fill:#A94B00;" d="M69.882,63.576c-3.925-3.298-4.312-9.007-1.115-12.881c2.498-3.028,5.636-5.315,8.964-7.379
		c0.672,1.785,0.672,1.785-0.557,3.046c-0.129,0.133-0.259,0.265-0.384,0.401c-1.884,2.047-1.734,2.603,0.895,3.327
		c2.818,0.777,3.553,3.327,1.528,5.794c-0.818,0.997-0.813,1.893-0.408,2.93c0.709,1.817-0.457,2.974-1.485,4.126
		c-0.993,1.112-2.223,0.95-3.43,0.326c-1.659-0.857-2.67-2.355-3.739-3.992C69.436,60.633,69.224,61.885,69.882,63.576z"/>
	<path style="fill:#E7E1DD;" d="M81.151,54.441c0.346,0.275,0.03,0.719,0.328,1.091c0.184-0.274,0.347-0.533,0.527-0.779
		c0.133-0.182,0.308-0.18,0.466-0.033c0.135,0.125,0.281,0.295,0.124,0.467c-0.41,0.45-0.787,0.91-0.89,1.535
		c-0.125,0.761,0.347,1.215,0.865,1.619c0.466,0.363,0.967,0.68,1.561,1.092C81.053,59.171,80.015,57.348,81.151,54.441z"/>
	<path style="fill:#E2DCD7;" d="M83.384,55.975c0.298,0.656,1.075,1.185,0.565,1.947c-0.118,0.176-0.644,0.065-0.877-0.179
		C82.419,57.06,82.984,56.534,83.384,55.975z"/>
	<path style="fill:#F4EBE6;" d="M102.163,59.577c0.218,1.137,0.557,2.071,1.785,2.28c1.287,0.22,2.093-0.504,2.799-1.411
		c0.657-0.846,1.135-1.801,1.474-2.808c0.539-1.598,1.714-2.309,3.289-2.575c0.928-0.157,1.608-0.129,1.143,1.238
		c0.944-0.305,1.277-1.083,2.014-1.653c-0.268,1.486-1.024,2.533-1.964,3.438c-2.757,2.656-6.254,4.025-9.701,5.467
		c-0.778,0.326-1.484-0.051-1.998-0.596c-0.504-0.535-0.289-1.215-0.024-1.823C101.22,60.581,101.535,60.074,102.163,59.577z"/>
	<path style="fill:#F0E8E3;" d="M104.672,60.65c-0.723,0.056-1.195-0.278-1.14-0.919c0.086-1.001,0.803-1.765,1.685-1.937
		c0.362-0.07,1.169,1.141,1.168,1.478C106.383,60.143,105.501,60.541,104.672,60.65z"/>
	<path style="fill:#D0CCC8;" d="M107.714,56.585c-0.143,0.739-0.063,1.48-0.847,1.792c-0.215,0.086-0.438-0.214-0.437-0.43
		C106.436,57.186,106.964,56.857,107.714,56.585z"/>
	<path style="fill:#1B1A1A;" d="M77.215,57.243c-0.027,1.142-1.127,2.061-2.382,1.99c-1.334-0.076-2.447-1.169-2.416-2.374
		c0.029-1.123,1.019-2.005,2.227-1.982C76.06,54.903,77.245,55.993,77.215,57.243z"/>
	<path style="fill:#1F1C19;" d="M69.076,57.366c-0.774-0.017-1.419-0.376-1.482-1.136c-0.063-0.759,0.565-1.122,1.292-1.082
		c0.743,0.041,1.368,0.358,1.381,1.218C70.28,57.123,69.771,57.382,69.076,57.366z"/>
</g>
</svg>
