<svg version="1.1" id="Layer_1" xmlns="http://www.w3.org/2000/svg" x="0" y="0" viewBox="0 0 200 200" xml:space="preserve"><style>.col_st0{fill:#1a2f49}.col_st1{fill:#edc918}.col_st4{fill:#013086}.col_st6{fill:#32589d}.col_st7{fill:#eac71a}.col_st8{fill:#f7f8f9}.col_st9{fill:#f4f4f6}.col_st10{fill:#043285}.col_st11{fill:#053384}.col_st12{fill:#faf9f2}.col_st13{fill:#365b9b}.col_st15{fill:#1b304c}</style><path class="col_st0" d="M24 76.9l12.2-5.3c1-.4 2.5-.6 2.8-1.4.4-.8-.8-1.8-1.3-2.8-.7-1.3-1.3-2.7-1.8-4.1-.6-2.2-.8-4.2.5-6.3a11 11 0 001.4-3.8 8 8 0 00-.4-4.6c-1-2.5-1.5-5.2-1.1-8a8.2 8.2 0 0112.6-5.8c2 1.1 2 1.1 3.5-.3l1-.5c3.1-.5 6 0 8.6 1.6 2 1.3 4 1.4 6.3.8l4.2-1c3.6-1.1 6.4 0 8.8 2.6.7.9 1.3 1 2.4.5a15 15 0 019-1c2.5.5 4.7 1.7 6.5 3.7.3.4.7.6 1.2.6 1 0 2 .2 2.8.6 1.3.6 2.3.3 3.5-.2l40.7-17 1.5-.5-.7 5.6-5 40.8-5.3 44-2.3 18.2c0 .7.2 1 .8 1.3 1.1.7 2.2.7 3.5.3 4-1.2 8-1.5 12.2-1.8 4.4-.2 8.8-.3 13.2-.2a3 3 0 001.9-.5 31.6 31.6 0 0117.5-5.8c.7 0 1.3 0 2 .5.6.5 1.6.2 2.4 0 1.5-.3 2.2.3 2.8 1.6 2.5 5 5.1 9.8 7.7 14.7l.6 1.2h-8.5c-.5 0-.8 0-.5.6 3 4.8 1.7 9.2-.8 13.7-.3.4-.5.8-.4 1.3.2 1-.4 1.8-1 2.4a26 26 0 01-11 5.3c-3 .8-6 1.3-9.1 1.6l-1.2.3a42 42 0 01-8 3.4 2 2 0 01-1.8-.2 36.5 36.5 0 01-8.7-8.3l-2.1-2.7v3.2c.1 1-.3 1.4-1.1 1.7-3.6 1.2-7.3 1.7-11 2.1l-3.3.4c-.8.1-1.2 0-1.1-1v-1.2c-9.4 4.2-16.7 1.4-22.3-6.9-.8 1-1.2 2.2-1.4 3.4a36 36 0 00-.6 5.6c0 .8-.4 1.2-1.2 1.5a49.3 49.3 0 01-10.4 2.1l-4.5.5c-1 .1-1.3-.1-1.3-1.1 0-4.4.6-8.8 1.1-13.1l.6-3.9-1 .5c-3.3 1.5-6.6 2.9-10.1 3.8-.6.1-.7.3-.7.9-.1 3-.7 5.9-1 8.8-.2.8-.6 1.2-1.3 1.5a41.2 41.2 0 01-10.1 2.1l-6.2.5c-.7 0-1-.1-.8-.9l.1-1.9c-.8 0-1.4.4-2 .6-.6.3-.8 0-1-.5l-.8-2.8c-.2-.8-.5-.9-1.2-.5l-15.8 7.1c-.8.4-1.3.3-2-.1A48 48 0 0125 163c-.3-.3-.3-1-1-.8-.7.3-1.1.6-1 1.4 0 1.4-.8 2.4-2.2 2.8-3 1-6 1.5-9.1 2l-6.6 1c-1 .2-1.3-.1-1.3-1.2 0-9 2-17.4 5.6-25.6.3-.9.2-1.3-.5-1.9-3-2.5-5.8-5.2-8.8-7.8.3-.4.7-.4 1-.6a103 103 0 0143.6-5.6c1.7.1 1.8.2 2.3 2 .6 2.5.7 5.1.5 7.8 0 .8.2 1 1 1H52c.6 0 1-.1.8-.8v-.1c0-.9-.3-2 .2-2.6.5-.6 1.8-.4 2.7-.5l5.3-.7c.7 0 .7-.3.5-.8a17 17 0 01-1.3-7.3c.3-4.7 2.8-8.1 6.3-10.9.6-.4 1.3-.8 2-1 .8 0 1.6-.3 2.2.5.8.8 1.2 1.7.8 2.9l-.7 2c1.5-1 2.7-1.7 3.4-3.2.3-.7.2-1.2-.5-1.7l-20-14.8-28.5-20.8-1.1-1zM124.8 128c0 .3.2.6.5.9v-.7l-.2-.2v-1.4a47 47 0 01-.3-16 29 29 0 015-12.3c1.5-2 2.9-4.2 4.2-6.3a20 20 0 003.4-12.1c-.1-2-.8-4-2-6-.3 1.8-.6 3.2-1.1 4.6a13 13 0 01-5.3 7c0-.9.5-1.5.7-2.3.6-2.9 1-5.7.7-8.7-.3-2.6-.5-5.2-1.5-7.6a12 12 0 00-2.4-4.4c0 3.4-.5 6.3-3 8.5.3-2.1.2-4.2.2-6.3-.3-2.6-1-5-2.7-7l-.1 4.6c-.4.9-.4 1.9-1.3 2.8 0-1.6 0-3-.6-4.3-1-3.8-3-6.7-6.2-9 .3 1.1.7 2.1.9 3.2 0 .8-.2 1.5.1 2.3-.4.7-.6 1.5-1.2 2.2-.4-1.4-.3-2.8-1.3-3.9 0-.7-.5-1.3-.9-1.8-2-2.7-5-4-8.3-4.4-.8-.1-1.9-.5-2.3 0-.4.8 0 1.8.3 2.7l.2.2c0 .9.9 1.5 1.2 2.6-4-1.8-5.5-5-6.2-8.8-.3-1 .1-2.4-1.4-3.1-1-.5-2.2-1-3.4-1l-2 .1-7.7 1.8c-3.6.8-7.2 1.4-10.9.6-2.5-.6-4.8-1.7-7-3.3l-.4 1.6h-.2l-.6-1c-1.5-1.9-3.4-3-5.8-3.3-1 0-1.5.2-1.6 1.2a8 8 0 01-4.9 2.7c-.1 0-.4.2-.4-.2l.3-.3c.7-.2 1.1-.6 1.5-1.3-1.8-.4-3.5-1.2-5.2-1.9-2-.8-4 .4-4.3 2.6l-.2.2v1.9c.3.2.5-.1.7-.3.5-.3 1-.9 1.7-.4-1.4 1-1.6 2.5-1.2 4.1.6 2 .5 3.7-.8 5.2v.1c.8-.1 1.5-.5 2.3-.7.9 0 1.9 0 2.5.8.6.7 1.2.6 2 .3 3-1 6-1.6 9-.8.6.2.7-.2 1-.6 1.3-2.2 3.5-2.5 5.4-.8.9.8 1.6 1.8 2.3 2.7.3.4.6.6 1 .6 3.7.4 7.2 1.3 10.5 2.6 3.8 1.6 7.2 3.5 9.4 7.2.4.7.8.5 1.3.2 2-1.2 4.4-1.9 6.8-2 4.4 0 8.2 1.7 11.5 4.5a13 13 0 014.2 5.7c-6.9 3.8-12 9.2-14.7 16.6a75 75 0 00-3.6 23.7c0 1.9 0 3.8-.7 5.6-1 3.5-3.5 5.9-6.2 8a20 20 0 01-15.2 4.5l-3.6-.4h-.1-.1c0 .3 0 .5.2.8 1.3 2.2 3.3 3.5 5.6 4.4.3 0 .7.2 1-.2.3-.5 1-.8 1.2-1.6 1.2-.8 2.4-1.6 4-1.9 2-.4 3.9.1 5.8.3l.8.1c1.5.3 3 .9 4.6-.2 3.8-2.6 7.7-4.8 11-8a2 2 0 00.5-1.9c-.2-1.6-.4-3.2-.4-4.8 0-3.7-.2-7.4.2-11.1.4-3.4 1-6.7 2.2-9.8.2-.4.8-1 .4-1.2-.6-.3-.9.4-1.2.8-.2 0-.2.2-.3.3a20.5 20.5 0 00-2.4 5.8l-1.6 6c-.1-3 .3-6 .9-8.9 1.3-6.5 4.5-11.4 11.2-13.5l.2-.2 1.3-.2c1.4-.2 2.8-.6 4.2-.5.7 0 1 0 1.2-.6a21 21 0 001.5-6.5 11 11 0 00-2.1-7.9c-1.5-1.8-3.4-3.2-5.3-4.6-1.8-1.4-3.3-3-3.5-5.3.4.2.6.6 1 1 1.8 2.2 4 4 7 4.4.9.2 1.4.6 1.9 1.3 2.3 3.4 3.7 7 4 11.1.2 3.1.2 6.2-1 9.1-3.3 1.7-6 3.9-8.2 6.8a11 11 0 00-2.3 6.8c0 5.7 2.5 10.4 5.5 15h.3c.1.6.4 1.2.8 1.7 2.4 3.4 5 6.7 7.3 10.2.1.4.3.7.6 1l.2.2zm-24.4-61h-.2v.2c1.4 2.7 2.2 5.4 2 8.6 2.1-1.5 4-3 6-4.1l.2-.1c.5-.3.2-.6 0-.9-.8-1.2-1.8-2.2-2.9-3.2-1-.8-2-1.8-3.4-2.1v-.1c.9 1.6 1.9 3.1 2 5h-.1c-1.2-1-2.2-2.4-3.6-3.3zm64 95.8a46.6 46.6 0 01-10-10.6c-.3-.5 0-.7.4-1 2-1.3 3.8-2.9 5.9-4 1.3-.8 2-2 2.1-3.4.1-1.6.1-3.3.3-4.9 0-.8-.2-1-1-1.1-4.5-.3-9-.2-13.4.3-3.2.3-6.5.9-9.7 2l2.4 3.4c.5.7.6 1.3.3 2-.7 1.8-1.5 3.5-2.4 5.2-.3.4-.3 1.2-1.1.7-.7-.3-1.7-.6-1-1.7 0-.3.1-.5.3-.8a8 8 0 00-5-10.9c-2.7-.8-5.5-.8-8.3 0-.7.3-1 .2-1.3-.5a41 41 0 00-15.5-16c-.6-.4-1-.3-1.3.3l-2.3 4c-.4.6-.3.9.3 1.3a274.1 274.1 0 0116 11.9c.2.1 1 .3.4.8l-2.9 2.4c-.1-1.3 0-2.5-.3-3.7 0-.4-.1-.7-.7-.8-2.6-.1-5.2-.2-7.8 0-.4 0-.8 0-1 .5-.2.6-.7.7-1.3.7a91 91 0 00-13 1.2c-.7 0-.8-.1-.8-.8.1-1.6.3-1.5-1.5-1.5-3.5-.1-7.1-.1-10.7.2-3.6.4-7.2 1-10.7 2-.7.3-.8.5-.3 1 .7 1 1.3 2 2.1 2.8.6.6.6 1 .3 1.9l-4.7 13c-.1.4-.1.7-.5.9-.4-1.7-.6-3.4-.8-5a174 174 0 01-.6-16c0-.8-.2-1.2-1-1.2-1.7 0-3.4 0-5 .2-.8.1-1.3.4-1.2 1.3.2.8-.2 1.3-.9 1.8a57.4 57.4 0 00-11.6 11c-.4.5-1 1-.3 2 .3.3-.2.7-.4 1-1.2 1.6-2.4 3-3.5 4.7-.4.4-.5.4-.9 0-3-3.2-6-6.4-8.6-10-.5-.6-.3-1 .4-1.3 2.8-2 5.7-3.9 8.4-6a4 4 0 001.7-2.9c.2-2.1.3-4.3.3-6.4 0-1.6 0-1.6-1.7-1.6-7.8-.3-15.6.3-23.3 1.5a48 48 0 00-8 1.8c.2.5.6.6.9.8l5 4c.7.5.8 1 .4 1.8A58.2 58.2 0 009 163c0 .8.2 1 1 .8l7-1.4c.7 0 1-.4 1.2-1.2a91.5 91.5 0 016.8-21.6c.2-.5.4-1 1-1l7-1.2c.5-.1.7.2.8.7.1 1-.1 1.6-1 2.2-3 2.3-6.4 4.5-9.4 7-.5.4-.7.7-.4 1.4a54.3 54.3 0 0014.7 20c.3.3.5.6 1 .4 2.8-1.4 5.6-2.7 8.6-3.8-.3-.5-.9-.6-1.1-1.1.2-.2.6-.2.7-.7 1.7-4.8 5.4-6.8 10.2-7.6.9-.2 1.3 0 1.4 1 0 2.1.2 4.2.8 6.1.3.8.6 1 1.4.7l5.3-2.5-.2 1.4-.7 4.4c0 .4-.2 1 .5.8 2.2-.2 4.4-.5 6.5-1.2.5-.2.8-.6.8-1.1.5-3 1.2-5.8 1.9-8.6 1.1-4.2 2.3-8.4 4.4-12.2.2-.4.3-1 .8-1 1.7-.4 3.3-.8 5-.9.5 0 .8.1.7.7 0 1.4-.4 2.6-1.7 3.4-2 1.1-3.8 2.4-5.7 3.6-.3.2-.8.2-1 .7l4 2.6c.4.3.7.2 1.1 0l8.3-5.5c1.3-.8 1.8-1.7 1.7-3.2 0-.3-.2-.6.2-.8.4-.1.6.3.7.6.3.8.9 1 1.7.7l1-.2c1.6-.2 3.2-.7 4.9-.7v.2l-.6 1.2a67.7 67.7 0 00-6.3 21c-.1.4-.3 1 .6.8l6.3-1.2c.7-.2 1-.5 1.2-1.4.7-6.3 2-12.5 5.2-18.2.4-.6.2-.8-.4-1l-3.7-1.6c2.2-.7 11.2-1 12.7-.3-1.7 2.3-2.7 5-3 7.9-.9 7.7 4.2 12.8 12 11.8 4.5-.6 7.8-3.1 10.8-6.4l1.6-2v.7c-.8 2-1.2 4.2-1.2 6.4 0 .5 0 1 .7.8 1.9-.2 3.8-.5 5.7-1 .5-.1.8-.4.8-1a75.6 75.6 0 015.5-16.7c.3-.5.5-1 1.2-1.1 1.7-.4 3.4-.8 5.2-.8.3 0 .7-.1.8.2.2.4.1.8-.1 1.1l-.7.6a170 170 0 00-7.3 5.5c-.5.4-.7.8-.5 1.5a39.5 39.5 0 0011.4 15.9c.5.3.8.4 1.4.2l5.2-2.4c.2-.1.7-.3.7-.5-.1-.8.4-.6.8-.6 2 0 4-.2 6-.5 3.7-.6 7.3-1.6 10.5-3.7.5-.3 1-.6.6-1.2-.5-1 0-1.4.7-2 1.4-.9 2.3-2.2 3-3.6 1-2 .9-3.8-.3-5.5a8.6 8.6 0 00-5.5-3.8l-4.4-.8c-.6-.1-1.4 0-1.5-1 0-.7.5-1.2 1.1-1.5 1.3-.8 2.7-1 4-1 3.4-.4 6.8-.5 10.1-.5.8 0 1-.2.6-.9-.7-1.3-1.5-2.5-2-3.9-.7-2-2.1-2.4-4-2.2-.4 0-.9.2-1.2-.2-.6-.8-1.3-.6-2-.5-4.2.4-8 1.7-11.5 3.8-1.4 1-2.7 2-3.7 3.4a6 6 0 000 7c1.4 2 3.3 3.4 5.7 3.8l3.9.7c1 .2 2.3.4 2.4 1.6.1 1.2-1.2 1.6-2 2-3 1.3-6.1 1.9-9.3 2.3-2.3.3-4.7.5-7.2.5 1.1 2.2 2.5 4 3.4 6.1zM40.2 79l.7.6 16.5 12.5c1 .8 1.9.7 2.8 0 1.4-1.1 2.4-2.5 3.4-4 1.8-2.4 3.6-4.9 5.9-7 1.4-1.4 3-2.7 5-3.4.9-.3 1-.7.9-1.6-.8-4-3.4-6.5-6.4-8.7-.5-.3-.8-.1-1.2 0L60 70.7 40.2 79zm95.6-18l3.3-23.4-23.2 10.2c7.5 3.3 13.8 8 19.9 13.2zm-77 36.3c3.5 1.3 8.3 0 10.3-2.9 3.6-5 8.3-8 14.7-7.8 1.9 0 3.8-.1 5.6-.8 3.3-1.1 5.3-3.7 7.3-6.3.5-.6 0-.6-.4-.6h-6.2c-3.4 0-6.7.8-10 2.1-1 .4-1.8 1.2-3 1.4 2-2.5 5-3.7 7.6-5.3-4.6 1-8.9 2.7-12.3 6-2.6 2.4-4.6 5.4-6.7 8.3-1.8 2.4-3.6 5-6.9 6zM75 94.5a21.4 21.4 0 01-8 4.7l8 6.4v-11zM45.8 66.7l-.4-2.2c-.3-1.8-.8-3.7.1-5.5a4 4 0 00-1-4.5c-.4-.5-.8-.6-1.4-.1a5.7 5.7 0 00-2 5.7c.5 2.9 2.5 4.8 4.7 6.6zm17.8-2.6l-.1-1c-.4-2.3-.7-4.6.4-6.9.6-1 0-2.1-.8-3-1-1-2-1-3 0a4.5 4.5 0 00-.8 4.5 15 15 0 004.3 6.4zm5.7 52.6c-.4 0-.5.2-.7.3-2.5 2.2-3.4 5-3.4 8.2 0 1.2 1 2 2.2 2.3.8.2 1.5.2 2.1-.4.6-.6.4-1.4 0-2a8.4 8.4 0 01-.7-4c0-1.5.3-3 .5-4.4zm10.6-1.7c-.5 2.6-1 5.2-.5 7.8.2.7.6 1.4 1.3 1.8 1.2.6 2.3.3 3-.7.8-1.4.7-2.5-.3-3.3l-.7-.6c-1.5-1.4-2-3.2-2.8-5zM67.8 64.2c.8-1.3 1.4-2.5 2-3.8.3-1 .6-2 .4-3-.1-1.2-1-2.3-2-2.3-.6 0-1.5 1.1-1.6 2.2-.2 2.3.2 4.6 1.2 7zm-.4-23.1c2.9 1.3 5.8 1.8 8.9 1.3.6-.2 1.3-.3 1.2-1.2-.1-1-1.3-2.2-2-2l-8 1.9zM50.5 62.5c-.1-2 0-4 .9-5.7v-.5c0-1.3-.8-2.3-2-2.3s-1.2 1.1-1.3 1.9c-.5 2.6.6 4.7 2.4 6.6zm5-.7v-.6c0-1.5-.2-3 .8-4.5.8-1.1.1-2.6-1.2-3.3-.8-.3-1.2-.3-1.6.5-1 2.2-.1 6 2 7.9zm17.7 3c.5-1.5.9-2.6 1.7-3.6 1-1.1-.4-2.3-.2-3.5v-.3c0-.4-.2-.4-.5-.4-2 .5-3 2.1-2.4 4 .3 1.2.8 2.3 1.4 3.7zm-.8 55.6c-1.3 1.7-1.4 3.5-1.4 5.3 0 .8.5 1.2 1.2 1.4.8.2 1.6 0 2.2-.6.4-.6.2-1.2-.2-1.7-1-1.2-1.4-2.6-1.8-4.4zM78 66.5l.8-1.7 1-1.5c.2-.2.2-.4.1-.6l-.4-2.5c0-.2 0-.5-.4-.5-1.1 0-2.6 1.6-2.4 2.8.1 1.4.7 2.7 1.3 4zm-1 54a6.5 6.5 0 00-1.4 4.7c0 .7.5 1.2 1.1 1.4a2 2 0 002.2-.6c.5-.5.1-1.1-.2-1.7-.6-1.1-1.2-2.4-1.7-3.9zm7-4.2c.2 1.2.4 2.4 1 3.5 0 .5.3 1 .8 1 1 0 1.6-.3 1.8-1.3.3-1.2 0-2-.9-2.3l-2.6-1zm5 .4c1 0 1.3-.2 1.5-1.2.3-1.2-.2-2-1.7-2.6-.4-.2-1-.4-1.4-.3-.4.3-.1 1 0 1.4l.5 2c.2.6.6.8 1 .7zm12.3 18l-3.6-2.5c-.2-.2-.4-.3-.7 0l-2.1 1.4c1.3-.2 1.6.3 1.7 1.2 0 .4.2.5.6.4l4-.5zM82.4 67.6l.4-1.4.6-1c.4-.6.4-2.4 0-3a.4.4 0 00-.4-.1c-.7 0-1.8 1-1.8 1.7 0 1.2.5 2.4 1.2 3.8z"/><path class="col_st1" d="M164.3 162.8c-.9-2-2.3-3.9-3.4-6 2.5-.1 4.9-.3 7.2-.6a32 32 0 009.2-2.3c1-.4 2.2-.8 2.1-2 0-1.2-1.4-1.4-2.4-1.6l-3.9-.7a8.4 8.4 0 01-5.7-3.8 6 6 0 010-7c1-1.4 2.3-2.5 3.7-3.4 3.6-2 7.4-3.4 11.4-3.8.8-.1 1.6-.3 2.1.5.3.4.8.2 1.2.2 1.9-.2 3.4.1 4 2.2.5 1.4 1.3 2.6 2 4 .4.6.3.8-.5.8-3.4 0-6.8.1-10.1.4-1.4.1-2.8.3-4 1-.7.4-1.3.9-1.2 1.7.1.8 1 .8 1.5 1l4.4.7c2.4.5 4.2 1.8 5.5 3.8a5.2 5.2 0 01.4 5.5 9.6 9.6 0 01-3 3.7c-.8.5-1.3 1-.8 2 .3.5-.1.8-.6 1a26.8 26.8 0 01-10.6 3.8c-2 .3-3.9.5-5.9.5-.4 0-1-.2-.8.6 0 .2-.5.4-.7.5l-5.2 2.4c-.6.3-1 .2-1.4-.2-5-4.4-8.9-9.7-11.3-16-.3-.6-.1-1 .4-1.4l7.3-5.5.7-.6c.2-.3.3-.7.1-1-.1-.4-.5-.3-.8-.3-1.8 0-3.5.4-5.2.8-.7.1-.9.6-1.2 1.1a50.8 50.8 0 00-5.4 16.8c-.1.5-.4.8-.9 1-1.9.5-3.8.7-5.7 1-.8 0-.7-.4-.7-.9 0-2.2.5-4.3 1.1-6.4l.2-.8-1.7 2c-3 3.4-6.3 6-10.9 6.5-7.7 1-12.7-4.1-11.9-11.8.3-3 1.3-5.6 3-8-1.5-.6-10.5-.3-12.7.4l3.7 1.6c.6.2.8.4.4 1a46.7 46.7 0 00-5.2 18.2c-.1.9-.4 1.2-1.2 1.4-2 .5-4.2.8-6.3 1.2-.9.2-.7-.4-.6-.9 1-7.3 3-14.2 6.3-20.9l.6-1.2v-.2c-1.7 0-3.3.5-4.9.7-.3 0-.7 0-1 .2-.8.3-1.4.1-1.7-.7-.1-.3-.3-.7-.7-.6-.4.2-.2.5-.2.8.2 1.5-.4 2.4-1.6 3.2l-8.4 5.4c-.4.3-.7.4-1.1 0l-4-2.5c.3-.5.7-.5 1-.7L84 147c1.3-.8 1.7-2 1.7-3.4 0-.6-.1-.7-.7-.7-1.7.1-3.3.5-5 .9-.5 0-.6.6-.8 1-2 3.8-3.3 8-4.4 12.2-.7 2.8-1.4 5.7-1.8 8.6-.1.5-.3.9-.9 1-2 .8-4.3 1-6.5 1.3-.7.1-.5-.4-.5-.8l.7-4.4c0-.5.2-.9.3-1.4l-5.4 2.5c-.8.4-1.1.1-1.3-.7-.6-2-.9-4-1-6 0-1.2-.4-1.3-1.3-1.1-4.7.8-8.5 2.8-10.1 7.6-.2.5-.5.5-.8.7.2.5.8.6 1.1 1-3 1.2-5.8 2.5-8.6 3.9-.4.2-.7 0-1-.3A54.3 54.3 0 0123 148.8c-.3-.7 0-1 .4-1.4 3-2.5 6.3-4.7 9.5-7a2 2 0 00.9-2.2c0-.5-.3-.8-.9-.7l-6.9 1.1c-.6.1-.8.6-1 1.1a75.6 75.6 0 00-6.8 21.6c-.2.8-.5 1.1-1.2 1.2l-7 1.4c-.8.1-1 0-1-.8a57.9 57.9 0 016.8-21.9c.5-.8.4-1.3-.3-1.8l-5-4c-.3-.2-.7-.3-.9-.8 2.7-.9 5.3-1.4 8-1.8 7.7-1.2 15.5-1.8 23.3-1.5 1.6 0 1.7 0 1.7 1.6 0 2.2 0 4.3-.3 6.4a4 4 0 01-1.7 3c-2.7 2-5.5 4-8.4 5.9-.6.4-.8.7-.3 1.4 2.5 3.5 5.5 6.7 8.5 10 .4.3.6.3.9-.1l3.5-4.7c.2-.3.7-.7.4-1-.8-1-.1-1.5.3-2 3.3-4.3 7.3-7.8 11.6-11 .7-.5 1-1 1-1.8-.2-.9.3-1.2 1-1.3 1.7-.3 3.4-.2 5-.2 1 0 1.1.4 1.1 1.2a174 174 0 001.4 21c.4-.2.4-.5.5-.8 1.6-4.4 3.1-8.8 4.8-13.1.3-.8.2-1.3-.4-2l-2.1-2.6c-.5-.6-.4-.9.3-1 3.5-1.1 7-1.7 10.7-2 3.6-.4 7.2-.4 10.8-.3 1.7 0 1.5-.1 1.4 1.5 0 .7.2.9.9.8 4.2-.8 8.6-1 13-1.2.5 0 1 0 1.2-.7.2-.4.6-.5 1-.6l7.8.1c.6 0 .7.4.8.8.2 1.2 0 2.4.2 3.7l2.9-2.4c.6-.5-.2-.7-.4-.8a1309.8 1309.8 0 00-16-11.9c-.6-.4-.7-.7-.3-1.3l2.3-4c.4-.6.7-.7 1.3-.3a41 41 0 0115.5 16c.4.7.7.8 1.3.6 2.8-.9 5.6-1 8.4 0a8 8 0 014.9 10.8l-.3.8c-.7 1.1.3 1.4 1 1.7.8.5.9-.3 1-.7a45 45 0 002.5-5.2c.3-.7.3-1.3-.2-2-.9-1-1.7-2.2-2.5-3.3 3.2-1.2 6.5-1.8 9.8-2.1 4.4-.5 8.8-.6 13.2-.3.9 0 1.2.3 1 1.1 0 1.6 0 3.3-.2 5a3.9 3.9 0 01-2 3.2c-2.2 1.2-4 2.8-6 4.1-.4.3-.7.5-.3 1 2.7 3.7 5.4 7.4 9.1 10.2.2.2.5.4.8.4l.1.1h.1l-.2-.2zM49.1 149.7c-.9.8-1.7 1.8-2.4 2.8v.7c.8 1 .3 1.6-.4 2.4-1.6 1.8-3 3.8-4.3 5.8-.5.8-.8.8-1.4.2-3-2.8-5.8-5.9-8.4-9l-2-3c-.2 0-.2-.2-.3-.3-.8-.7-.6-1.1.3-1.5l2.1-1.4c-1.2-.2-2.3-.1-3.4-.2-1.4-.2-2.4.4-3.4 1.3-.8.7-1 1.3-.4 2.3l1.5 2.8A37.5 37.5 0 0037.9 167c.6.4 1.2.6 2 .1l3-1.5c.6-.3 1.9-.1 1.3-1.5v-.1c2.6-4.1 5.7-7.7 10.6-9l2.6-.7 1-.1c1.2-.3 1.6 0 1.6 1.3 0 2 .2 3.8.5 5.8 0 .7.3 1.1 1.1.6l2.8-1.4c.6-.3.8-.6.6-1.3-.5-2.2-.8-4.5-1-6.8v-3-1.7c0-1.8.3-1.6-1.5-1.6-3.3 0-3.3 0-2.8 3.4-.2 1-.2 2 0 3 0 1-.4 1.5-1.5 1.3h-.8c-2.8 0-5.6.3-8.5.6.4-.8 1-1.3 1-2l2.2-2.7 3.1-3.4-.1-.2c-.9 0-1.8-.3-2.6.2-1.3.9-2.5 1.9-3.4 3.3zm26.4-.3l1.1-2.5c.3-.6 0-.7-.6-.7-2.7-.1-2.7-.1-3.8 2.4l-.2.8-1.1 2.7c-.8 1.6-1.3 3.4-1.9 5.1-.8 2.7-1.6 5.5-2 8.3-.2.6 0 .8.6.7l3.3-.6c.6-.1 1-.4 1-1.1a112.4 112.4 0 013.6-15zm60.1.4c.5-.9.7-1.8 1-2.8.1-.5 0-.9-.7-.8h-2.4c-.5 0-.8.2-.7.8v2.7l-1 2.8-.5 1c-1.5 3-3.7 5-7 5.3-3.2.4-5.1-1.1-5.2-4.3 0-1-.3-1.6-1.2-2 0-1 .5-1.8.7-2.7l1.8-3c.3-.5.1-.6-.4-.6H117c-.4 0-.7.1-.9.5-.3 1-1 2-1.1 3-.5.9-.7 1.8-.7 2.8-.2.9 0 1.7 0 2.5.6 4.8 3.6 7.4 8.4 7.3 1 0 1.9-.1 2.8-.3 5.5-1 8.5-4.8 10.6-9.5-.4-.8-1-1.7-.6-2.7zm16-.1c-.7.2-1.3.7-2 1.2s-.8 1.2-.2 1.9c1.9 4 4.1 7.6 7 10.9.8.9 1.7 1.7 2.8 2.3.3.2.5.5 1 .4 1.2-.6 2.5-1 3.7-1.8a73.3 73.3 0 01-11.2-12c-.8-.7-.8-1.2 0-1.7l1.7-1.1a34 34 0 004.8-3.5c-1.3 0-2.6-.5-3.6.1-1.4 1-2.8 2-4 3.3zm-68.3-.3l-2.8 1.6c-.2.1-.5.2-.2.5a2 2 0 002.5.6 25 25 0 004-2.6 16 16 0 004.3-3.3H89c-.7 0-1.5-.2-2.2.3l-3.5 2.8zm21.3.2l.8-1.8c.1-.2.2-.6-.1-.8-1-.6-2-.8-3-.7-.9 0-.8.9-1.1 1.4-.4.6-.6 1.3-.8 1.9l-1.3 3a51.6 51.6 0 00-3.4 13c0 .7.1.8.7.7l3.6-.8c.4-.1.6-.3.7-.8a57 57 0 014-15zm40.7.1l.5-1c1-2.5 1-2.5-1.8-2.5-.5 0-1-.1-1.3.4-.5 1-1.2 2-1.5 3a45.4 45.4 0 00-3 9.4c-.8 3.4-.4 3.7 3 2.8.6-.2.9-.5 1-1.2l2-8 1.1-2.9zm-125.7-.2l.2-.6c.2-1 .7-1.7.8-2.7h-2.8c-3.2 0-3.2 0-4 3v.3l-1.3 3c-1.2 3-1.6 6.1-2 9.2 0 .5 0 .7.5.6 1.7-.3 3.4-.5 5-1 .6-.2.8-.5.9-1.1.4-2.6.8-5.1 1.5-7.6.6-1 .9-2 1.2-3zm167.1.2c-.5-2-2.3-3.5-4.4-3.5h-12.4a7.8 7.8 0 005.2 2.2c1.7 0 3.3.4 4.8 1.4.7.7 1 1.7 1 2.7-.2 1-.9 1.5-1.7 2-1.2.8-2.5 1.3-4 1.7-3.4 1-7 1.4-10.5 1.8-1.3.1-1.3 0-.6 1.2l1.5 2.5c.3.5.5 1-.1 1.6a38 38 0 0016.3-3.8c.6-.3.9-.7.5-1.4-.5-.8-.2-1.3.5-1.8 1.5-1 2.8-2 3.4-3.8.9-.8.6-1.8.5-2.8zm-55.3-1.4c.1-3.7-2.2-5.4-5.7-4.2l-1.6.8c-2.3 1.6-3.5 4-4.4 6.4-.1.3-.1.7.3.7.8.1.7.6.7 1.2v2c.2 1.4 1 2.1 2.4 2.2a6 6 0 002-.3c3.6-1 6.2-4.7 6.3-8.8zm-80 4.5l6.3-.3c.7 0 .6-.4.6-.8v-5.2c0-.4.1-.8-.1-1.2-1 .8-1.9 1.7-2.7 2.6l-4 5z"/><path d="M123.6 64.8c0 2.1 0 4.2-.2 6.3-.1.4.1.8.2 1.1 1.4 3.3 2.3 6.6 2 10.2a46 46 0 01-1.3 7.8c-1 4.8-2.9 9.5-3.5 14.4a39 39 0 003.2 22c0 .2-.1.2-.2.3-2.3-3.5-4.8-6.8-7.3-10.2-.3-.5-.6-1-.7-1.7V113a87 87 0 01-.6-8c0-5.1 1-9.9 3.7-14.2.8-1.3 1.3-2.8 1.5-4.3 1.3-2.9 1.3-6 1-9-.2-4.1-1.6-7.8-4-11.2-.4-.7-1-1.1-1.8-1.3-3-.5-5.2-2.2-7.1-4.5-.3-.3-.5-.7-1-1 0-.1 0-.3-.2-.4h-.2v.1c-.5 3.6 1.1 6.3 3.8 8.6l3.9 3.2c.4.4.6.8.5 1.4-.6 4.7-1.5 9.2-5 12.8l-.2.2c-6.7 2-9.9 7-11.2 13.5-.7 3-1 5.9-1 9v1.8c-.1 3.6.5 7.2 0 10.7 0 .8-.2 1.5-.8 2a58 58 0 01-13 9.3c-1.9 0-3.8-.5-5.8-.2-1.5.3-2.7 1.1-4 2-3-.3-5.5-1.6-7.7-3.5l3.6.5a20 20 0 0015.1-4.5c2.8-2.2 5.2-4.6 6.3-8 .6-1.9.6-3.8.7-5.7l.6-1.4c2.5-6.8 4-13.8 5.9-20.7.2-.7.5-1.3 1-1.9l9.1-13c.8-1 1.3-2 1.6-3.3-.7-2.3-2.3-4.1-4.1-5.7-3.3-2.8-7.1-4.5-11.5-4.4-2.4 0-4.7.7-6.9 2-.4.2-.9.4-1.3-.3a17.5 17.5 0 00-9.3-7.1 36.7 36.7 0 00-10.5-2.7c-.5 0-.8-.2-1-.6-.7-1-1.4-1.9-2.3-2.7-2-1.7-4.2-1.4-5.5.8-.2.4-.3.8-1 .6a15 15 0 00-9 .8c-.7.3-1.3.4-2-.3-.6-.7-1.5-.8-2.5-.8.6-1 1-2.2.5-3.5-.6-1.7-.8-3.4-.7-5.2-.7-.4-1.2 0-1.7.5-.2.1-.4.5-.6.2-.2 0-.2-.4-.2-.6l.1-1.3.2-.2c1.6-1.3 3.3-1.3 5.1-.3.9.4 1.9.7 2.9.9l-.3.3c0 .4.3.2.4.2a8 8 0 004.9-2.7c1.8-.3 3.2.3 4.5 1.5a30 30 0 014 4.2v-1c0-.3-.2-.6.2-.8 2.5 2.8 5.8 3.3 9.3 3 3.6-.1 7-.9 10.5-1.5 4.3-.9 8.6-1.8 12.5 1 .7 3.8 2.3 7 6.2 8.8-.3-1-1.2-1.7-1.2-2.6h1.4a24 24 0 019.6 3.3c1 1 1 2.5 1.3 3.9.6-.6.8-1.5 1.2-2.2 2 .8 3.5 2.2 5.2 3.5.5 1.3.6 2.7.6 4.3 1-.9 1-2 1.3-2.8 1 .7 1.7 1.8 2.8 2.4zM51.9 46c0 .2-.2.3-.3.5l-.2.4v.1l.4-.1c1.4-.8 2.8-1.2 4.2 0 .4.4.5 0 .7-.2 1-1 1.2-2.5.7-3.6-.2-.4-.4-.6-.8-.5-1.8.6-3.5 1.4-4.5 3.2l-.2.2zm43.5 6l-.1-.7c-.9-3.2-4.1-5.3-8-5.5-4.2-.3-8 1-11.4 3.6-.7.5-1.5.9-1.8 1.8-.4.5-1.3.9-.5 1.7 1.2 1.4 2.6 2.5 4.4 3.2 1.4.6 2.8 1 4.5.7 4-.6 7.6-2.1 11.3-3.4.7-.2 1.5-.5 1.6-1.5z" fill="#33599d"/><path d="M40.2 79L60 70.7l7.8-3.3c.4-.1.7-.3 1.2 0 3 2.2 5.6 4.8 6.4 8.7.1.9 0 1.3-1 1.6-2 .7-3.5 2-5 3.4-2.2 2.2-4 4.6-5.8 7-1 1.5-2 2.9-3.5 4-.9.7-1.6.8-2.7 0L41 79.6l-.7-.6z" fill="#f0cb16"/><path class="col_st4" d="M124 126.7a39.3 39.3 0 01-3.3-22.1c.7-5 2.5-9.6 3.6-14.4a47 47 0 001.4-7.8c.2-3.6-.7-7-2-10.2-.2-.3-.4-.7-.3-1 2.5-2.2 3-5.2 3-8.5a12 12 0 012.4 4.3c1 2.5 1.2 5 1.5 7.7.3 3 0 5.8-.8 8.6-.1.8-.7 1.4-.7 2.3 2.6-1.7 4.3-4 5.4-7 .5-1.3.8-2.8 1-4.5 1.3 2 2 3.8 2.1 6a20 20 0 01-3.4 12 81.3 81.3 0 01-4.2 6.4 28.9 28.9 0 00-5 12.3 47 47 0 00.2 16v1.3h-.2l-.2-.2c0-.5-.1-.9-.5-1.2z"/><path d="M135.8 61a77.7 77.7 0 00-20-13.2l23.3-10.2-3.3 23.4z" fill="#f0ca16"/><path class="col_st6" d="M58.8 97.3c3.3-1 5-3.5 6.9-6 2.1-2.8 4.1-5.8 6.7-8.2 3.4-3.3 7.7-5 12.3-6C82 78.7 79 80 77 82.4c1.2-.2 2-1 3-1.4 3.3-1.3 6.6-2 10-2l6.2-.1c.4 0 1 0 .5.6-2 2.6-4.1 5.1-7.4 6.3a16 16 0 01-5.6.8 16.6 16.6 0 00-14.7 7.8c-2 2.9-6.7 4.2-10.3 3zm17.8-14.5l-.2.2v.1l.2-.3.2-.1h-.2z"/><path class="col_st1" d="M110.5 72c-.3 1.1-.8 2.3-1.6 3.3l-9.2 13a6 6 0 00-1 1.9C97 97 95.5 104 93 110.8l-.6 1.4c.2-8 .8-16 3.6-23.7A30.7 30.7 0 01110.5 72zM120.4 86.4c-.2 1.6-.7 3-1.5 4.3-2.7 4.3-3.8 9-3.7 14.1 0 2.7.2 5.4.5 8.1v2.2s-.2 0-.2-.2c-3-4.5-5.5-9.2-5.5-14.9 0-2.5.7-4.8 2.2-6.8 2.2-2.9 5-5.1 8.2-6.8z"/><path class="col_st4" d="M84.2 131.7a57.1 57.1 0 0013-9.3c.5-.6.7-1.3.8-2 .4-3.6-.2-7.2 0-10.8v-1.9l1.5-6c.6-2 1.3-4 2.5-5.8l.2-.3c.4-.4.7-1.1 1.2-.8.4.2-.1.8-.3 1.2a36.7 36.7 0 00-2.2 9.8c-.4 3.7-.2 7.4-.2 11 0 1.7.2 3.3.4 5a2 2 0 01-.6 1.8c-3.2 3.2-7.2 5.4-10.9 8-1.6 1.1-3 .5-4.7.2l-.7-.1zM110.3 85.1c3.5-3.5 4.4-8.1 5-12.8 0-.6 0-1-.5-1.4l-3.9-3.2c-2.7-2.2-4.2-5-3.8-8.6h.2c0 .1 0 .3.3.4.2 2.4 1.7 4 3.5 5.3 1.9 1.4 3.8 2.8 5.3 4.7 1.8 2.3 2.3 5 2 7.8 0 2.2-.6 4.4-1.4 6.5-.3.6-.5.7-1.2.7-1.4-.1-2.8.2-4.3.4l-1.2.2z"/><path class="col_st7" d="M95.2 46.3c-4-3-8.2-2-12.5-1.1-3.4.6-7 1.4-10.5 1.6-3.5.2-6.8-.3-9.3-3-.4 0-.2.4-.2.7v1a30 30 0 00-4-4.2c-1.3-1.2-2.8-1.8-4.5-1.5.1-1 .7-1.2 1.6-1.1 2.4.3 4.3 1.4 5.8 3.3l.6 1h.2c0-.6.2-1 .3-1.6 2.3 1.5 4.6 2.6 7.1 3.2 3.7.9 7.3.2 10.9-.6l7.6-1.7c.7-.2 1.4-.2 2-.2 1.3 0 2.4.5 3.5 1 1.5.7 1 2 1.4 3.2z"/><path class="col_st1" d="M75 94.5v11.1l-8-6.4c3.1-1 5.5-2.6 8-4.7z"/><path class="col_st8" d="M45.8 66.7C43.6 65 41.6 63 41 60.1c-.4-2.3.3-4.2 2.1-5.7.6-.5 1-.4 1.5 0a4 4 0 011 4.6c-1 1.9-.5 3.7-.2 5.5 0 .8.2 1.5.4 2.2z"/><path class="col_st7" d="M102 65.5c1.4.3 2.4 1.3 3.4 2.1 1.1 1 2.1 2 2.9 3.2.2.3.5.6 0 .9l-.2.1c-2 1.2-4 2.6-6 4.2.2-3.3-.7-6-2-8.7l.2-.2c1.4 1 2.4 2.2 3.6 3.4 0 0 0 .2.1.1v-.2c-.2-1.9-1.1-3.4-2-5z"/><path class="col_st8" d="M63.6 64a15 15 0 01-4.3-6.3c-.5-1.6-.2-3.1.9-4.5.9-1 2-1 3 0 .7.9 1.3 2 .7 3-1.1 2.3-.8 4.6-.4 7l.1.9zM69.3 116.7c-.2 1.4-.5 2.9-.5 4.4 0 1.4.1 2.7.7 4 .4.6.6 1.4 0 2-.6.6-1.3.6-2.1.4-1.3-.3-2.1-1.1-2.2-2.3 0-3.2 1-6 3.4-8.2.2-.1.3-.4.7-.3zM79.9 115c.8 1.8 1.3 3.6 2.8 5l.7.5c1 .9 1.1 2 .2 3.4-.6 1-1.7 1.2-2.9.6-.7-.3-1.1-1-1.3-1.7-.5-2.6 0-5.2.5-7.8z"/><path class="col_st7" d="M111.2 55.7c-3-1.7-6.1-3-9.6-3.3h-1.4l-.2-.2c-.3-.9-.8-1.9-.3-2.6.4-.6 1.5-.2 2.3 0 3.3.4 6.2 1.6 8.3 4.3.4.6 1 1 1 1.8z"/><path class="col_st8" d="M67.8 64.2c-1-2.3-1.4-4.6-1.2-6.9 0-1 1-2.2 1.7-2.2.8 0 1.8 1.2 2 2.3.1 1-.2 2-.6 3-.5 1.3-1 2.5-2 3.8z"/><path class="col_st4" d="M67.4 41l8-1.8c.8-.2 2 1 2.1 2 .1.9-.5 1-1.2 1.1-3 .6-6 .1-8.9-1.2z"/><path class="col_st8" d="M50.5 62.5c-1.8-1.9-2.9-4-2.4-6.6 0-.8 0-2 1.3-1.9 1.3 0 2 1 2 2.3v.5c-.8 1.8-1 3.7-.9 5.7zM55.6 61.8c-2.2-2-3.1-5.7-2.1-7.9.4-.8.8-.8 1.6-.5 1.3.7 2 2.2 1.2 3.3-1 1.5-.9 3-.7 4.5v.6z"/><path class="col_st7" d="M118.9 60.9c-1.7-1.3-3.2-2.7-5.2-3.5-.3-.8 0-1.5-.1-2.3l-.9-3.1c3.1 2.3 5.2 5.1 6.2 8.9z"/><path class="col_st9" d="M73.2 64.7l-1.4-3.6c-.6-2 .4-3.6 2.4-4 .3-.1.5 0 .5.3v.3c-.2 1.2 1.2 2.3.2 3.5-.8 1-1.2 2.1-1.8 3.5z"/><path class="col_st8" d="M72.4 120.4c.4 1.8.9 3.2 1.8 4.4.4.5.7 1 .2 1.7-.6.7-1.4.8-2.2.6-.7-.2-1.1-.6-1.2-1.4 0-1.8 0-3.6 1.4-5.3z"/><path class="col_st7" d="M49.2 42c-1-.2-2-.5-3-1-1.7-.9-3.4-1-5 .4.3-2.2 2.2-3.4 4.3-2.5 1.7.7 3.3 1.4 5.2 1.9-.4.6-.9 1-1.5 1.2z"/><path class="col_st9" d="M78 66.5c-.7-1.3-1.3-2.6-1.4-4-.2-1.2 1.3-2.8 2.4-2.8.4 0 .3.3.4.5l.4 2.5v.6a5 5 0 00-1.1 1.5l-.8 1.7zM76.9 120.4c.5 1.5 1 2.7 1.7 4 .3.5.7 1 .2 1.6a2 2 0 01-2.1.6c-.7-.2-1.1-.7-1.2-1.4-.2-1.7.2-3.3 1.4-4.8z"/><path class="col_st10" d="M43.4 42.8c0 1.8 0 3.5.7 5.2.4 1.3.1 2.4-.5 3.5-.7.3-1.4.6-2.2.7 1.2-1.6 1.3-3.3.8-5.2-.4-1.6-.2-3.1 1.2-4.2zM66.6 129.9c2.2 1.9 4.8 3.3 7.8 3.5-.2.7-.9 1-1.3 1.6-.2.3-.6.2-1 0-2.2-.8-4.3-2-5.5-4.3-.2-.2-.3-.5-.2-.8h.2z"/><path class="col_st9" d="M84 116.3l2.6 1c1 .2 1.2 1 1 2.2-.3 1-1 1.3-1.9 1.3-.5 0-.7-.5-.9-1-.5-1-.7-2.3-.8-3.5zM88.9 116.7c-.5.1-1-.1-1-.7-.3-.6-.5-1.3-.6-2-.1-.4-.4-1 0-1.3.3-.2 1 0 1.4.2 1.5.6 2 1.4 1.7 2.6-.2 1-.5 1.2-1.5 1.2z"/><path class="col_st7" d="M101.2 134.7l-4 .5c-.5 0-.7 0-.7-.4-.1-.9-.4-1.4-1.7-1.2l2-1.5c.4-.2.6-.1.8 0l3.6 2.6zM123.6 64.8c-1.1-.6-1.8-1.7-2.8-2.4l.1-4.6c1.8 2 2.3 4.5 2.7 7z"/><path class="col_st9" d="M82.4 67.6a9.9 9.9 0 01-1.2-3.8c0-.7 1-1.7 1.8-1.7.2 0 .3 0 .4.2.4.5.4 2.3 0 2.9l-.6 1-.4 1.4z"/><path class="col_st6" d="M124 126.7c.4.3.5.7.5 1.1-.4-.2-.5-.5-.7-.9l.2-.2zM124.7 128h.3l.1.3v.7l-.4-1z"/><path class="col_st7" d="M102 65.4z"/><path class="col_st10" d="M41.4 52.2z"/><path class="col_st6" d="M125.2 129z"/><path class="col_st4" d="M125.2 128.3l-.2-.2.2.2z"/><path class="col_st6" d="M124.5 127.8l.2.3-.2-.3z"/><path class="col_st7" d="M100.2 67.3l-.1-.2h.2l-.1.2z"/><path class="col_st4" d="M110 85.3z"/><path class="col_st7" d="M41.2 41.4l-.2.2.2-.2z"/><path class="col_st10" d="M32.2 152.5c2.6 3.2 5.4 6.3 8.4 9.1.6.6.9.6 1.4-.2 1.2-2 2.7-4 4.3-5.8.7-.8 1.2-1.5.4-2.4v-.7h3.2c-.1.7-.6 1.2-1 2 3-.3 5.7-.5 8.5-.5v.4l-2.6.6c-5 1.4-8 5-10.5 9l-.2.2c.7 1.4-.7 1.2-1.2 1.5-1 .6-2.1 1-3.1 1.5-.8.4-1.3.3-2-.2a37.5 37.5 0 01-11.2-14.5h5.6z"/><path class="col_st0" d="M131.4 148.3a9.5 9.5 0 01-6.4 8.8 6 6 0 01-1.9.3c-1.3 0-2.2-.8-2.4-2.1a7 7 0 010-2c0-.7.1-1.2-.7-1.3-.4 0-.4-.3-.3-.7 1-2.5 2-4.8 4.4-6.4l1.6-.8c3.5-1.2 5.8.6 5.7 4.2z"/><path class="col_st10" d="M186.2 152.5c-.6 1.8-2 2.8-3.4 3.8-.8.5-1 1-.6 1.8.5.7.2 1-.5 1.4a35.8 35.8 0 01-16.3 3.8c.7-.6.5-1.1.2-1.6l-1.5-2.5c-.7-1.1-.7-1 .6-1.2 3.5-.4 7-.8 10.5-1.8 1.4-.4 2.8-.9 4-1.7.8-.5 1.4-1 1.7-2h5.3z"/><path class="col_st11" d="M136.2 152.5c-2.1 4.7-5 8.5-10.5 9.5l-2.9.3c-4.8 0-7.8-2.5-8.3-7.3-.1-.8-.2-1.6 0-2.5h3.4c1 .4 1.1 1 1.2 2 .1 3.2 2 4.7 5.1 4.3 3.4-.4 5.6-2.3 7.1-5.3l.5-1h4.4zM152.7 152.5c3.1 4.5 7 8.3 11.2 12.1-1.2.8-2.5 1.2-3.8 1.8-.3.1-.6-.2-.9-.4-1-.6-2-1.4-2.8-2.3-2.9-3.3-5.2-7-7-10.9 1-.6 2.2-.1 3.3-.3z"/><path class="col_st10" d="M103.4 152.5c-1.3 4-2.3 8-2.7 12.3 0 .4-.3.6-.7.7l-3.6.8c-.6 0-.8 0-.7-.7.6-4.4 1.6-8.9 3.4-13h4.3z"/><path class="col_st11" d="M74.5 152.3c-1.1 4-1.9 8-2.6 12.2 0 .7-.4 1-1 1l-3.3.7c-.6.1-.8 0-.7-.7.5-2.8 1.2-5.6 2.1-8.3.6-1.7 1.1-3.5 1.9-5.1 1.2 0 2.4.3 3.6.2z"/><path class="col_st10" d="M18.4 152.6c-.7 2.5-1.1 5-1.5 7.6-.1.6-.3 1-1 1-1.6.6-3.2.8-4.9 1-.5.2-.6 0-.5-.5.4-3 .8-6.2 2-9.2h5.9z"/><path class="col_st12" d="M179.9 149.8c-1.5-1-3-1.4-4.8-1.4-2 0-3.6-.9-5.1-2.2h12.3c2 0 3.9 1.4 4.4 3.5h-6.8z"/><path class="col_st11" d="M57.4 154.4v-.4c.3 0 .5-.1.8 0 1 0 1.5-.4 1.4-1.4H64c.2 2.2.5 4.5 1 6.7.1.6 0 1-.6 1.3l-2.8 1.4c-.9.5-1 0-1.2-.6-.2-2-.5-3.9-.5-5.8 0-1.2-.3-1.6-1.5-1.3h-1zM144.2 152.5l-2 8.1c-.1.7-.4 1-1 1.2-3.4 1-3.8.6-3-2.7.5-2.2 1-4.4 1.9-6.6h4z"/><path class="col_st0" d="M51.5 152.8l4-4.9c.8-.9 1.6-1.8 2.6-2.6.3.4.2.8.2 1.2v5.2c0 .4 0 .8-.6.8l-6.2.3z"/><path class="col_st12" d="M13.7 149.5v-.2c.9-3.1.9-3.1 4-3.1h2.9c0 1-.7 1.8-.8 2.7l-.2.6h-5.9zM25.1 149.7c-.7-.9-.4-1.5.4-2.3 1-.8 2-1.4 3.4-1.2 1 0 2.2 0 3.4.2-.7.5-1.4 1-2.2 1.3-.9.5-1 1-.2 1.6l.2.4h-5z"/><path class="col_st13" d="M13.7 149.5h5.9c-.3 1-.6 2.1-1.2 3h-5.9l1.2-3z"/><path class="col_st6" d="M179.9 149.8h6.8c.1 1 .4 2-.5 2.7h-5.3c0-1-.3-2-1-2.7z"/><path class="col_st12" d="M59.6 149.6c-.4-3.4-.4-3.4 2.9-3.4 1.8 0 1.6-.2 1.6 1.6v1.8h-4.5zM141.2 149.7c.3-1.1 1-2 1.5-3 .3-.6.9-.5 1.3-.5 2.8 0 2.8 0 1.8 2.5l-.5 1h-4z"/><path class="col_st13" d="M25.1 149.7h5l2.1 2.8h-5.6l-1.5-2.8z"/><path class="col_st12" d="M115.1 149.7c.2-1 .8-2 1.1-3 .2-.4.5-.5 1-.5h2.8c.5 0 .7.1.4.6l-1.8 3-3.5-.1z"/><path class="col_st13" d="M59.6 149.6H64v3h-4.4v-3z"/><path d="M100.4 149.6c.2-.6.4-1.3.8-1.9.3-.5.2-1.4 1-1.4 1.1 0 2.2.1 3 .7.4.3.3.6.2.8l-.8 1.8h-4.2z" fill="#fefefe"/><path class="col_st12" d="M83.3 149.3l3.5-2.8c.7-.5 1.5-.3 2.2-.3h2a15.8 15.8 0 01-4.2 3.3l-3.5-.2z"/><path class="col_st13" d="M100.4 149.6h4.2l-1.2 3h-4.3l1.3-3z"/><path class="col_st12" d="M151.7 149.7c1.1-1.3 2.5-2.4 3.9-3.3 1-.6 2.3-.1 3.6 0a34.5 34.5 0 01-4.8 3.4l-2.7-.1zM132.8 149.7V147c0-.6.1-.8.7-.8h2.4c.7 0 .8.3.7.8-.3 1-.5 2-1 2.8l-2.8-.1zM72 149.4l.2-.8c1-2.5 1-2.5 3.8-2.4.7 0 .9.1.6.7l-1 2.5H72zM49.1 149.7a11 11 0 013.4-3.3c.8-.5 1.7-.1 2.5-.2l.2.2-3 3.4-3-.1z"/><path class="col_st13" d="M141.2 149.7h4.1l-1.2 2.8h-4c.2-1 .6-2 1.1-2.8zM72 149.4h3.5c-.2 1-.5 2-1 3L71 152l1-2.7zM83.3 149.3l3.5.2c-1.3 1-2.6 1.9-4 2.6a2 2 0 01-2.5-.6c-.3-.3 0-.4.2-.5l2.8-1.7zM115.1 149.7h3.5c-.2 1-.7 1.8-.7 2.8h-3.5c0-1 .2-2 .7-2.8zM132.8 149.7h2.8c-.4 1.1.2 2 .6 2.8h-4.4l1-2.8zM49.1 149.7h3l-2.2 2.8h-3.2c.7-1 1.5-2 2.4-2.8zM151.7 149.7h2.7c-.6.5-1 .9-1.6 1.2-.9.5-1 1-.2 1.6-1 .2-2.2-.3-3.2.3-.6-.7-.5-1.4.3-1.9.6-.5 1.2-1 2-1.2z"/><path class="col_st0" d="M164.3 162.8l.2.1v.1l-.2-.1z"/><path class="col_st15" d="M74 51.2c.4-.9 1.2-1.3 1.9-1.8 3.4-2.5 7.2-3.9 11.5-3.7 3.8.3 7 2.4 7.9 5.6v.6c-1.7-1.2-3.4-1-5.2 0l-3.7 1.4c-2.5 1-5 1.8-7.6.9-1.8-.7-3.2-1.8-4.7-3zM89 49a8.4 8.4 0 00-5.4-1.3c-2.3.1-4.1 1.4-5.9 2.8-.8.6-.9.8 0 1.4.6.3 1.3.4 2 .5 1.6.2 3-.1 4.5-.9L89 49z"/><path class="col_st4" d="M74 51.2c1.6 1.2 3 2.3 4.8 3 2.7 1 5.1 0 7.6-.9 1.2-.4 2.5-.9 3.6-1.5 1.9-.9 3.6-1.1 5.4.1-.2 1-1 1.3-1.6 1.5-3.8 1.2-7.4 2.8-11.3 3.4-1.7.3-3.1-.1-4.6-.7a12 12 0 01-4.3-3.2c-.8-.9 0-1.2.5-1.7z"/><path class="col_st15" d="M52.1 45.8c1-1.8 2.7-2.6 4.5-3.2.4-.1.6 0 .8.4.5 1.2.3 2.7-.7 3.7 0-.7.7-1.6-.2-2.1-.8-.5-1.6-.1-2.3.2-.8.2-1.3.9-2 1z"/><path class="col_st10" d="M52.1 45.8c.8-.1 1.3-.8 2-1 .8-.3 1.6-.7 2.4-.2.9.6.2 1.4.2 2-.2.2-.3.7-.7.4-1.4-1.3-2.8-.9-4.2-.2l-.4.1c0-.2 0-.3.2-.5.3 0 .3-.2.3-.4l.2-.2z"/><path class="col_st15" d="M52 46c0 .2-.1.4-.4.5l.3-.5z"/><path class="col_st0" d="M107.6 59.5c-.2-.1-.3-.3-.3-.5.2.1.3.3.3.5z"/><path class="col_st10" d="M51.5 47h-.1z"/><path class="col_st15" d="M52.1 45.8l-.2.2.2-.2z"/><path class="col_st0" d="M128.8 85.5v.1zM76.4 83v.1zM76.4 83l.2-.2-.2.2zM76.6 82.8l.2-.1-.2.1zM104 70.4v.2l-.1-.1v-.1z"/><path class="col_st8" d="M89 49l-4.8 2.5c-1.4.8-3 1.1-4.6 1-.6-.2-1.3-.3-1.8-.7-1-.5-1-.7 0-1.3 1.7-1.4 3.5-2.6 5.8-2.8 2-.2 3.7.1 5.4 1.3z"/></svg>