<?xml version="1.0" encoding="utf-8"?>
<!-- Generator: Adobe Illustrator 24.1.0, SVG Export Plug-In . SVG Version: 6.00 Build 0)  -->
<svg version="1.1" id="Layer_1" xmlns="http://www.w3.org/2000/svg" xmlns:xlink="http://www.w3.org/1999/xlink" x="0px" y="0px"
	 viewBox="0 0 200 200" style="enable-background:new 0 0 200 200;" xml:space="preserve">
<g>
	<path style="fill:#FEFEFE;" d="M0,133.687c3.347-1.157,6.646-2.447,10.064-3.401c12.072-3.37,24.343-4.552,36.831-3.455
		c2.152,0.189,2.493,0.475,3.14,2.567c0.608,1.967,0.693,4.003,0.789,6.037c0.012,0.259,0.059,0.529,0.004,0.775
		c-0.258,1.157,0.451,1.158,1.255,1.106c0.356-0.023,0.566-0.126,0.535-0.517c-0.006-0.074-0.007-0.149,0.001-0.222
		c0.099-0.866-0.411-1.997,0.243-2.535c0.558-0.458,1.628-0.292,2.472-0.403c1.541-0.202,3.08-0.434,4.625-0.591
		c0.619-0.063,0.702-0.24,0.541-0.825c-0.586-2.12-0.885-4.289-0.627-6.483c0.686-5.831,3.97-9.776,9.114-12.484
		c-15.232-11.168-30.524-22.378-45.917-33.664c4.966-2.155,9.765-4.28,14.607-6.304c1.048-0.438,1.088-0.785,0.552-1.696
		c-1.13-1.92-1.962-3.982-2.342-6.197c-0.289-1.682-0.201-3.304,0.689-4.837c0.537-0.926,0.939-1.925,1.264-2.953
		c0.52-1.646,0.523-3.227-0.159-4.867c-1.067-2.566-1.542-5.268-1.119-8.043c1.068-6.999,8.142-10.524,14.36-7.154
		c0.835,0.452,1.473,0.795,2.057-0.266c0.218-0.395,0.691-0.386,1.085-0.465c3.617-0.728,7.014-0.028,10.159,1.781
		c1.325,0.762,2.581,0.912,4.019,0.551c1.901-0.477,3.839-0.806,5.738-1.29c2.961-0.754,5.561-0.006,7.685,2.039
		c1.181,1.137,2.148,1.19,3.647,0.709c4.697-1.508,9.347-1.236,13.234,2.002c1.814,1.51,3.864,1.802,5.861,2.529
		c0.333,0.121,0.581-0.035,0.842-0.144c14.477-6.029,28.952-12.064,43.425-18.103c0.16-0.067,0.293-0.196,0.438-0.297
		c0.074,0,0.148,0,0.222,0c0.383,0.445,0.304,0.963,0.239,1.481c-1.47,11.642-2.855,23.295-4.286,34.942
		c-1.495,12.161-2.965,24.326-4.454,36.488c-1.111,9.076-2.202,18.154-3.319,27.229c-0.271,2.204-0.564,4.406-0.786,6.617
		c-0.121,1.202,0.1,1.421,1.29,1.087c9.204-2.255,18.881-2.421,23.66-1.726c1.123,0.163,2.102-0.282,3.042-0.835
		c0.957-0.563,1.924-1.113,2.873-1.689c4.479-2.718,9.485-3.444,14.562-3.919c0.258-0.024,0.529-0.058,0.776,0.004
		c1.803,0.452,3.608,0.797,5.48,0.453c0.325-0.06,0.654,0.1,0.912,0.338c2.761,5.352,10.003,18.593,10.679,19.962
		c0,0.074,0,0.148,0,0.222c-0.436,0.387-0.973,0.3-1.484,0.303c-1.999,0.011-3.999,0.015-5.998-0.001
		c-0.735-0.006-1.017,0.24-0.82,0.999c1.055,4.055-0.016,7.759-1.919,11.314c-0.263,0.492-0.6,0.966-0.561,1.544
		c0.099,1.466-0.73,2.424-1.729,3.306c-2.027,1.789-4.383,3.018-6.87,4.014c-4.124,1.65-8.45,2.455-12.832,3.005
		c-0.712,0.089-1.371,0.288-1.998,0.626c-2.457,1.324-5.085,2.215-7.721,3.094c-0.891,0.297-1.637,0.165-2.425-0.296
		c-2.782-1.627-5.149-3.741-7.209-6.191c-0.646-0.768-1.116-0.897-2.031-0.399c-2.34,1.273-4.95,1.723-7.549,2.141
		c-3.106,0.5-6.224,0.901-9.368,1.061c-0.74,0.038-1.494,0.07-1.842-0.851c-0.154-0.407-0.563-0.245-0.882-0.162
		c-1.04,0.27-2.09,0.47-3.159,0.604c-4.192,0.527-7.9-0.722-11.294-3.069c-1.153-0.797-2.282-1.65-3.162-2.775
		c-0.128-0.163-0.256-0.42-0.516-0.307c-0.223,0.098-0.222,0.368-0.258,0.583c-0.25,1.499-0.319,3.017-0.4,4.528
		c-0.074,1.371-0.816,2.02-1.991,2.472c-2.752,1.058-5.628,1.581-8.518,2.034c-2.815,0.441-5.657,0.651-8.495,0.891
		c-1.015,0.086-1.364-0.268-1.491-1.321c-0.388-3.223,0.089-6.416,0.328-9.616c0.131-1.756,0.44-3.497,0.632-5.472
		c-2.258,1.022-4.413,1.77-6.564,2.529c-0.474,0.167-0.635,0.569-0.672,1.053c-0.179,2.327-0.7,4.612-0.897,6.933
		c-0.141,1.663-0.988,2.603-2.491,3.168c-2.657,0.999-5.428,1.454-8.211,1.884c-3.148,0.486-6.332,0.583-9.498,0.866
		c-1.086,0.097-1.32-0.089-1.506-1.229c-0.088-0.538-0.296-0.731-0.806-0.553c-0.81,0.282-1.152-0.164-1.38-0.844
		c-0.224-0.667-0.455-1.334-0.607-2.02c-0.162-0.73-0.52-0.894-1.189-0.567c-1.697,0.829-3.443,1.55-5.159,2.335
		c-2.727,1.248-5.477,2.442-8.211,3.671c-0.55,0.247-1.165,0.198-1.69,0.49c-0.074,0-0.148,0-0.222,0
		c-2.469-0.789-4.378-2.452-6.205-4.163c-1.997-1.869-4.003-3.75-5.69-5.921c-0.467-0.601-0.729-0.568-1.093,0.071
		c-0.61,1.071-1.68,1.529-2.775,1.907c-2.885,0.996-5.901,1.4-8.889,1.931c-2.553,0.453-5.128,0.748-7.696,1.086
		c-1.842,0.243-2.127-0.027-2.168-1.902c-0.182-8.408,1.459-16.481,4.453-24.306c0.172-0.45,0.332-0.907,0.54-1.339
		c0.361-0.749,0.205-1.329-0.421-1.865c-2.895-2.479-5.701-5.058-8.547-7.592c-0.339-0.302-0.623-0.624-0.842-1.014
		C0,133.835,0,133.761,0,133.687z"/>
	<path style="fill:#182D49;" d="M188.261,145.683c0.731,1.362,1.49,2.547,1.751,3.948c0.671,3.605-0.453,6.798-2.241,9.835
		c-0.269,0.456-0.547,0.886-0.447,1.437c0.173,0.952-0.284,1.598-0.951,2.208c-2.638,2.413-5.837,3.741-9.182,4.775
		c-3.335,1.031-6.759,1.638-10.229,1.988c-0.446,0.045-0.857,0.114-1.261,0.348c-2.446,1.42-5.086,2.381-7.762,3.265
		c-0.674,0.223-1.193,0.123-1.761-0.236c-3.565-2.254-6.294-5.365-8.882-8.622c-0.46-0.579-0.89-1.182-1.424-1.894
		c-0.278,1.036-0.185,1.986-0.115,2.897c0.077,1.007-0.332,1.442-1.23,1.746c-2.859,0.968-5.814,1.45-8.787,1.845
		c-1.614,0.215-3.247,0.296-4.854,0.547c-0.921,0.144-1.315-0.046-1.168-1.023c0.048-0.321,0.008-0.655,0.008-1.134
		c-9.192,4.119-16.224,1.421-21.614-6.637c-0.865,0.924-1.203,2.074-1.432,3.272c-0.34,1.786-0.515,3.596-0.57,5.407
		c-0.026,0.865-0.387,1.211-1.139,1.476c-3.236,1.144-6.6,1.65-9.981,2.077c-1.468,0.186-2.952,0.254-4.418,0.459
		c-0.984,0.138-1.322-0.104-1.315-1.173c0.032-4.755,0.647-9.45,1.294-14.145c0.096-0.693,0.209-1.384,0.339-2.24
		c-0.42,0.175-0.74,0.292-1.045,0.439c-3.142,1.507-6.348,2.85-9.734,3.709c-0.536,0.136-0.696,0.351-0.715,0.89
		c-0.107,2.929-0.67,5.806-1.045,8.704c-0.091,0.699-0.435,1.013-1.038,1.253c-3.167,1.262-6.509,1.699-9.854,2.088
		c-2.021,0.235-4.059,0.321-6.086,0.512c-0.698,0.066-0.934-0.118-0.793-0.843c0.118-0.606,0.1-1.238,0.144-1.889
		c-0.707,0.007-1.24,0.29-1.767,0.519c-0.691,0.3-1.054,0.259-1.228-0.578c-0.187-0.902-0.575-1.762-0.77-2.663
		c-0.165-0.761-0.452-0.713-1.056-0.437c-5.119,2.33-10.261,4.609-15.374,6.951c-0.769,0.352-1.329,0.304-2.027-0.153
		c-4.433-2.901-7.954-6.724-11.177-10.866c-0.262-0.336-0.329-1.09-1.087-0.782c-0.617,0.251-0.975,0.578-0.932,1.385
		c0.067,1.268-0.741,2.22-2.079,2.685c-2.775,0.965-5.672,1.408-8.554,1.887c-2.19,0.364-4.403,0.598-6.59,0.976
		c-1.055,0.182-1.388-0.042-1.381-1.184c0.051-8.683,1.948-16.955,5.436-24.876c0.35-0.794,0.247-1.2-0.386-1.749
		c-2.628-2.282-5.207-4.621-7.796-6.947c-0.264-0.237-0.614-0.408-0.763-0.869c3.064-1.217,6.197-2.183,9.374-3.002
		c11.07-2.852,22.306-3.816,33.702-2.89c1.86,0.151,1.961,0.227,2.395,2.074c0.581,2.474,0.619,4.992,0.492,7.51
		c-0.04,0.799,0.19,1.031,0.968,0.989c1.108-0.06,2.222-0.039,3.332-0.006c0.566,0.017,0.813-0.155,0.769-0.752
		c-0.043-0.589,0.056-1.193-0.024-1.775c-0.124-0.904,0.301-1.103,1.103-1.19c2.499-0.269,4.99-0.621,7.59-0.954
		c-0.81-1.982-1.317-3.978-1.452-6.057c-0.357-5.504,2.195-9.505,6.527-12.568c0.413-0.292,0.923-0.482,1.416-0.616
		c0.791-0.215,1.619-0.391,2.256,0.376c0.693,0.834,1.149,1.727,0.691,2.851c-0.218,0.536-0.391,1.09-0.671,1.881
		c1.389-0.97,2.683-1.602,3.269-3.057c0.294-0.73,0.216-1.16-0.446-1.673c-6.669-5.177-13.572-10.036-20.364-15.046
		c-8.968-6.615-17.971-13.182-26.958-19.771c-0.236-0.173-0.466-0.355-0.703-0.536c0.208-0.415,0.612-0.443,0.931-0.582
		c4.239-1.85,8.473-3.713,12.735-5.507c0.85-0.358,1.034-0.607,0.499-1.443c-1.461-2.285-2.654-4.702-3.154-7.409
		c-0.251-1.358-0.138-2.63,0.55-3.864c0.759-1.361,1.361-2.798,1.654-4.34c0.289-1.52,0.22-3.001-0.384-4.465
		c-1.017-2.465-1.54-5.021-1.112-7.702c0.878-5.507,6.514-8.447,11.544-6.024c0.333,0.16,0.658,0.34,0.978,0.524
		c1.449,0.834,1.819,0.808,2.995-0.364c0.335-0.334,0.685-0.506,1.145-0.585c2.939-0.504,5.744,0.029,8.239,1.533
		c2.024,1.22,3.991,1.332,6.157,0.748c1.392-0.376,2.837-0.571,4.212-0.996c3.303-1.02,5.999-0.005,8.206,2.435
		c0.847,0.937,1.501,1.095,2.687,0.594c3.037-1.283,6.212-1.646,9.448-0.725c2.116,0.602,3.932,1.711,5.399,3.35
		c0.347,0.388,0.676,0.62,1.211,0.62c0.972,0.001,1.948,0.183,2.809,0.588c1.126,0.53,2.073,0.297,3.149-0.153
		c13.309-5.578,26.634-11.118,39.955-16.666c0.332-0.138,0.67-0.261,1.15-0.447c-0.385,3.186-0.749,6.228-1.119,9.269
		c-1.447,11.868-2.896,23.735-4.345,35.603c-1.592,13.043-3.184,26.086-4.774,39.13c-0.882,7.238-1.753,14.478-2.658,21.713
		c-0.07,0.557,0.124,0.76,0.555,1.024c1.162,0.712,2.227,0.844,3.618,0.393c3.864-1.251,7.919-1.469,11.949-1.716
		c4.253-0.26,8.512-0.301,12.77-0.198c0.622,0.015,1.129-0.137,1.656-0.467c3.557-2.222,7.172-4.34,11.407-5.003
		c1.9-0.298,3.816-0.511,5.73-0.707c0.667-0.068,1.309-0.088,1.927,0.499c0.311,0.295,1.158,0.175,1.711,0.037
		c1.88-0.466,2.768,0.376,3.586,2.027c2.331,4.707,4.86,9.317,7.339,13.95c0.389,0.727,0.4,0.983-0.551,0.965
		C193.647,145.65,191.03,145.683,188.261,145.683z"/>
	<path style="fill:#F2CC16;" d="M101.07,145.804c-2.103,0.361-4.035,0.651-5.945,1.043c-0.757,0.155-1.272,0.126-1.576-0.678
		c-0.122-0.321-0.302-0.779-0.78-0.606c-0.439,0.159-0.173,0.595-0.155,0.883c0.084,1.285-0.338,2.19-1.474,2.951
		c-2.675,1.795-5.372,3.552-8.103,5.261c-0.507,0.317-0.87,0.376-1.384,0.01c-1.174-0.835-2.398-1.6-3.733-2.48
		c1.097-0.669,2.108-1.262,3.095-1.893c1.309-0.838,2.595-1.712,3.897-2.559c1.166-0.759,1.173-1.97,1.258-3.154
		c0.024-0.33-0.146-0.475-0.463-0.464c-1.785,0.065-3.529,0.395-5.234,0.901c-0.436,0.13-0.546,0.676-0.748,1.063
		c-2.069,3.969-3.307,8.234-4.365,12.552c-0.599,2.442-1.095,4.912-1.564,7.383c-0.138,0.729-0.467,1.109-1.141,1.309
		c-1.889,0.561-3.831,0.819-5.777,1.078c-0.771,0.103-0.763-0.334-0.73-0.858c0.106-1.668,0.492-3.292,0.781-4.932
		c0.036-0.206,0.19-0.414,0.019-0.627c-1.704,0.797-3.422,1.564-5.103,2.403c-0.745,0.372-1.044,0.157-1.264-0.575
		c-0.579-1.933-0.795-3.918-0.859-5.916c-0.031-0.959-0.312-1.274-1.314-1.107c-4.566,0.762-8.208,2.736-9.852,7.361
		c-0.214,0.601-0.564,0.549-1.043,0.49c0.317,0.597,0.954,0.742,1.376,1.272c-2.865,1.092-5.611,2.36-8.342,3.659
		c-0.443,0.211-0.691-0.003-0.977-0.246c-6.309-5.385-11.034-11.926-14.317-19.532c-0.298-0.69-0.015-1.002,0.45-1.382
		c2.958-2.413,6.127-4.541,9.208-6.787c0.823-0.6,0.965-1.325,0.829-2.227c-0.069-0.454-0.276-0.649-0.746-0.57
		c-2.299,0.386-4.6,0.764-6.9,1.142c-0.589,0.097-0.697,0.623-0.904,1.034c-2.614,5.191-4.261,10.718-5.622,16.34
		c-0.366,1.51-0.718,3.028-0.966,4.56c-0.137,0.841-0.53,1.174-1.33,1.31c-2.225,0.381-4.446,0.791-6.654,1.261
		c-0.828,0.176-0.931-0.117-0.874-0.827c0.322-4.048,1.253-7.965,2.542-11.801c1.11-3.303,2.454-6.512,4.136-9.568
		c0.351-0.639,0.327-1.001-0.266-1.458c-1.961-1.514-3.879-3.083-5.868-4.674c0.331-0.345,0.78-0.374,1.179-0.483
		c5.633-1.546,11.408-2.17,17.208-2.611c4.026-0.306,8.059-0.41,12.099-0.299c1.135,0.031,1.55,0.402,1.516,1.561
		c-0.061,2.035-0.09,4.068-0.27,6.099c-0.119,1.338-0.613,2.346-1.727,3.167c-2.625,1.933-5.301,3.79-8.03,5.569
		c-0.7,0.456-0.883,0.761-0.343,1.507c2.483,3.431,5.365,6.512,8.259,9.587c0.324,0.344,0.513,0.4,0.836-0.041
		c1.137-1.553,2.314-3.077,3.493-4.598c0.351-0.453,0.553-0.871,0.105-1.374c-0.493-0.553,0.058-0.888,0.318-1.227
		c3.205-4.175,7.054-7.687,11.286-10.783c0.757-0.554,1.253-1.099,1.094-2.073c-0.107-0.654,0.237-0.91,0.845-1.027
		c1.799-0.344,3.604-0.328,5.421-0.224c0.822,0.047,0.686,0.583,0.686,1.088c0.005,4.444,0.121,8.886,0.431,13.319
		c0.167,2.388,0.359,4.779,0.917,7.129c0.369-0.106,0.347-0.409,0.425-0.638c1.453-4.314,2.992-8.598,4.656-12.835
		c0.292-0.743,0.292-1.255-0.28-1.866c-0.73-0.781-1.297-1.712-2.001-2.52c-0.58-0.664-0.565-0.93,0.358-1.198
		c3.32-0.967,6.71-1.53,10.14-1.87c3.58-0.355,7.171-0.344,10.765-0.304c1.042,0.011,1.388,0.34,1.227,1.336
		c-0.091,0.565-0.173,1.093,0.784,0.916c4.126-0.762,8.31-0.919,12.49-1.083c0.591-0.023,1.089-0.069,1.335-0.715
		c0.212-0.556,0.743-0.558,1.22-0.578c2.407-0.1,4.812-0.043,7.217,0.104c0.517,0.032,0.687,0.252,0.791,0.715
		c0.257,1.15,0.167,2.328,0.25,3.692c1.033-0.892,1.889-1.689,2.827-2.386c0.689-0.512-0.142-0.65-0.356-0.811
		c-4.081-3.074-8.179-6.125-12.28-9.173c-1.07-0.795-2.14-1.592-3.25-2.328c-0.566-0.375-0.74-0.666-0.326-1.307
		c0.823-1.273,1.596-2.585,2.299-3.928c0.347-0.663,0.671-0.587,1.21-0.305c3.525,1.841,6.521,4.346,9.179,7.275
		c2.301,2.535,4.236,5.332,5.85,8.346c0.315,0.587,0.576,0.761,1.272,0.54c2.678-0.851,5.402-0.887,8.093-0.064
		c4.406,1.347,6.645,6.368,4.772,10.594c-0.105,0.236-0.212,0.473-0.297,0.717c-0.31,0.897,0.308,1.83,1.253,1.909
		c0.338,0.028,0.434-0.245,0.555-0.457c1.086-1.9,2.008-3.875,2.754-5.934c0.177-0.488,0.015-0.877-0.249-1.243
		c-0.692-0.96-1.367-1.937-2.123-2.846c-0.484-0.582-0.288-0.742,0.313-0.933c3.552-1.125,7.207-1.675,10.905-1.954
		c3.584-0.27,7.174-0.304,10.767-0.093c0.782,0.046,1.025,0.298,0.969,1.052c-0.116,1.55-0.162,3.104-0.256,4.656
		c-0.092,1.511-0.786,2.593-2.108,3.423c-1.972,1.239-3.832,2.654-5.75,3.98c-0.388,0.268-0.576,0.464-0.226,0.951
		c2.338,3.254,4.772,6.422,7.824,9.055c0.575,0.497,1.216,0.918,2.008,1.212c-1.15-1.943-2.301-3.886-3.542-5.983
		c2.521-0.081,4.869-0.218,7.2-0.534c2.904-0.394,5.787-0.904,8.49-2.086c0.984-0.43,2.412-0.767,2.322-2.062
		c-0.091-1.315-1.558-1.399-2.599-1.656c-1.145-0.282-2.333-0.392-3.497-0.6c-2.472-0.441-4.367-1.746-5.701-3.867
		c-1.366-2.172-1.251-4.353,0.055-6.487c0.931-1.52,2.327-2.572,3.83-3.478c3.38-2.037,7.041-3.257,10.96-3.702
		c0.73-0.083,1.486-0.214,2.004,0.551c0.193,0.285,0.515,0.205,0.815,0.201c0.776-0.011,1.553,0.05,2.327,0.017
		c0.617-0.026,0.933,0.264,1.19,0.781c0.857,1.723,1.718,3.445,2.633,5.137c0.419,0.774,0.102,0.835-0.572,0.839
		c-3.222,0.019-6.441,0.132-9.653,0.396c-1.148,0.094-2.28,0.271-3.359,0.694c-0.556,0.217-1.085,0.491-1.454,0.982
		c-0.572,0.761-0.386,1.465,0.537,1.68c1.259,0.293,2.545,0.474,3.824,0.674c2.435,0.381,4.519,1.382,6.05,3.372
		c1.535,1.996,1.755,4.092,0.473,6.309c-0.732,1.266-1.61,2.39-2.83,3.226c-0.619,0.424-1.074,0.91-0.609,1.745
		c0.343,0.615-0.081,0.919-0.551,1.223c-3.173,2.059-6.718,3.056-10.401,3.644c-1.865,0.298-3.745,0.477-5.638,0.494
		c-0.348,0.003-0.947-0.267-0.764,0.56c0.02,0.09-0.381,0.307-0.611,0.413c-1.746,0.808-3.506,1.589-5.245,2.412
		c-0.443,0.21-0.748,0.128-1.098-0.166c-5.066-4.258-8.789-9.469-11.184-15.64c-0.245-0.631,0.015-0.938,0.453-1.288
		c2.342-1.874,4.703-3.723,7.153-5.454c0.303-0.214,0.648-0.381,0.739-0.783c0.127-0.563,0.161-1.005-0.674-0.989
		c-1.791,0.036-3.53,0.354-5.26,0.779c-0.546,0.134-0.739,0.581-0.974,0.992c-2.241,3.934-3.487,8.231-4.56,12.588
		c-0.301,1.221-0.567,2.452-0.796,3.689c-0.098,0.532-0.301,0.87-0.841,1.023c-1.824,0.517-3.694,0.759-5.569,0.985
		c-0.606,0.073-0.658-0.246-0.657-0.716c0.004-1.868,0.35-3.68,0.849-5.469c0.148-0.531,0.314-1.058,0.484-1.625
		c-0.44,0.153-0.554,0.553-0.779,0.838c-2.724,3.446-5.906,6.233-10.338,7.237c-2.026,0.459-4.048,0.404-6.048-0.124
		c-4.115-1.086-6.574-4.53-6.703-9.377c-0.094-3.518,0.909-6.706,3.109-9.685c-4.28-0.292-8.382-0.203-12.741,0.432
		c1.481,0.614,2.707,1.134,3.944,1.628c0.544,0.218,0.608,0.472,0.313,0.998c-3.102,5.528-4.442,11.572-5.119,17.797
		c-0.077,0.706-0.305,1.037-0.993,1.211c-2.086,0.529-4.212,0.823-6.325,1.196c-0.868,0.153-0.554-0.437-0.506-0.817
		c0.816-6.438,2.637-12.591,5.289-18.504C99.948,148.115,100.472,147.063,101.07,145.804z"/>
	<path style="fill:#33599E;" d="M110.233,75.132c-0.677-2.11-2.076-3.726-3.664-5.175c-3.19-2.91-6.921-4.648-11.286-4.665
		c-2.46-0.009-4.814,0.651-6.967,1.904c-0.456,0.266-0.804,0.4-1.174-0.21c-2.265-3.744-5.857-5.745-9.782-7.241
		c-3.039-1.158-6.19-1.927-9.431-2.27c-0.507-0.054-0.781-0.314-1.062-0.682c-0.673-0.879-1.35-1.757-2.179-2.502
		c-1.823-1.637-4.019-1.408-5.258,0.651c-0.39,0.648-0.704,0.71-1.384,0.564c-3.025-0.651-5.938-0.078-8.767,1.018
		c-0.525,0.203-0.872,0.23-1.237-0.238c-0.4-0.513-0.936-0.832-1.614-0.851c-1.237-0.146-1.269-0.154-0.957-1.357
		c0.246-0.95-0.002-1.836-0.225-2.727c-0.27-1.079-0.518-2.154-0.453-3.279c0.026-0.448,0.045-0.887,0.333-1.261
		c-0.582-0.493-1.001,0.064-1.464,0.248c-0.294,0.117-0.429,0.507-0.912,0.557c-0.144-0.713-0.115-1.419,0.019-2.131
		c1.092-1.282,2.44-1.694,4.025-1.098c1.234,0.465,2.432,1.026,3.734,1.295c0.176,0.036,0.343,0.131,0.359,0.355
		c-0.165,0.129-0.43,0.137-0.487,0.397c2.007-0.035,3.843-1.018,5.069-2.712c1.046-0.554,2.056-0.193,2.962,0.277
		c2.042,1.061,3.529,2.771,4.937,4.544c0.09,0.114,0.141,0.26,0.061,0.412c0.174-0.089,0.085-0.239,0.086-0.369
		c0.001-0.4-0.101-0.893,0.348-1.077c0.384-0.157,0.68,0.209,0.936,0.462c2.246,2.218,5.039,2.557,8.004,2.396
		c4.711-0.255,9.265-1.486,13.908-2.157c2.279-0.329,4.573-0.436,6.752,0.588c0.711,0.334,1.379,0.716,1.835,1.383
		c0.758,3.619,2.203,6.75,6.061,8.487c-0.396-1.075-1.145-1.703-1.313-2.607c1.01-0.465,2.037-0.213,3.036-0.005
		c2.831,0.59,5.58,1.405,7.927,3.203c0.673,1.173,0.896,2.472,1.05,3.896c0.737-0.61,0.816-1.516,1.293-2.173
		c0.394-0.22,0.713,0.011,1.008,0.206c1.424,0.94,2.948,1.755,4.019,3.146c0.38,1.313,0.66,2.641,0.464,4.315
		c1.027-1.036,1.05-2.143,1.284-3.163c1.056,0.748,1.883,1.729,2.734,2.685c0.075,2.06,0.125,4.12-0.173,6.17
		c1.219,1.986,1.831,4.195,2.251,6.449c0.65,3.485,0.153,6.923-0.579,10.345c-0.806,3.768-1.996,7.433-2.973,11.154
		c-2.34,8.912-1.553,17.522,2.301,25.874c0.225,0.487,0.532,0.978,0.307,1.562c-1.596-2.254-3.212-4.493-4.781-6.765
		c-1.211-1.754-2.708-3.308-3.667-5.238c-0.731-1.854-0.762-3.83-0.877-5.766c-0.197-3.305-0.398-6.627,0.135-9.924
		c0.494-3.052,1.459-5.947,3.121-8.574c0.839-1.326,1.08-2.902,1.865-4.245c0.898-1.529,0.918-3.27,1.043-4.94
		c0.401-5.375-0.924-10.327-3.95-14.812c-0.374-0.554-0.824-0.939-1.487-1.046c-3.407-0.549-5.81-2.582-7.771-5.262
		c-0.152-0.208-0.25-0.456-0.508-0.565c-0.293,3.211,0.867,5.816,3.313,7.867c0.989,0.83,1.92,1.734,2.979,2.475
		c1.327,0.929,1.9,2.001,1.602,3.748c-0.551,3.229-1.237,6.369-3.003,9.184c-0.577,0.92-1.259,1.728-2.227,2.259
		c-6.483,2.015-9.569,6.863-10.873,13.142c-0.59,2.843-0.981,5.722-0.898,8.642c0.354,0.361,0.276,0.825,0.287,1.26
		c0.058,2.402-0.091,4.806,0.2,7.208c0.179,1.472-0.249,2.942-0.25,4.425c0,0.62-0.393,1.102-0.813,1.537
		c-3.297,3.416-7.172,6.057-11.283,8.377c-0.662,0.374-1.377,0.526-2.138,0.349c-1.574,0.088-3.112-0.401-4.724-0.124
		c-1.592,0.273-2.9,0.994-4.168,1.89c-1.799,0.318-3.428-0.266-4.9-1.162c-0.946-0.576-2.025-1.058-2.676-2.048
		c-0.08-0.122,0.052,0.038,0.028-0.107c-0.006-0.038,0.093-0.063,0.178-0.054c1.81,0.319,3.627,0.692,5.466,0.644
		c6.548-0.17,11.769-3.057,16.076-7.875c2.593-2.901,3.297-6.325,3.166-10.048c2.403-7.156,4.243-14.471,6.173-21.761
		c0.294-1.111,1.066-1.94,1.709-2.834c2.611-3.636,5.155-7.32,7.798-10.931C108.959,77.538,109.359,76.198,110.233,75.132z"/>
	<path style="fill:#F2CC16;" d="M42.078,81.955c3.856-1.623,7.704-3.244,11.553-4.861c5.01-2.105,10.028-4.194,15.027-6.326
		c0.624-0.266,1.058-0.243,1.599,0.172c2.79,2.14,5.129,4.576,5.847,8.2c0.172,0.87,0.025,1.323-0.901,1.631
		c-1.858,0.619-3.347,1.857-4.746,3.196c-2.149,2.057-3.896,4.446-5.646,6.834c-1.05,1.433-2.105,2.862-3.546,3.946
		c-0.855,0.643-1.584,0.763-2.558,0.011c-5.211-4.022-10.485-7.963-15.731-11.941C42.663,82.581,42.262,82.422,42.078,81.955z"/>
	<path style="fill:#003086;" d="M123.997,129.727c-0.866-2.19-1.888-4.316-2.596-6.571c-1.409-4.487-1.897-9.088-1.579-13.754
		c0.304-4.465,1.652-8.726,2.856-13.01c1.205-4.288,2.372-8.585,2.224-13.11c-0.091-2.775-0.919-5.353-1.952-7.886
		c-0.139-0.341-0.345-0.66-0.259-1.054c1.81-1.485,2.327-2.881,2.962-7.996c2.909,2.055,5.72,14.233,2.124,22.263
		c1.954-1.471,3.489-2.967,4.515-4.992c0.993-1.958,1.613-4.005,1.84-6.495c1.12,1.406,1.569,2.786,1.848,4.195
		c0.707,3.564,0.072,6.95-1.447,10.226c-1.689,3.642-4.009,6.886-6.26,10.174c-2.675,3.908-3.855,8.308-4.52,12.921
		c-0.44,3.052-0.307,6.103-0.162,9.148c0.091,1.901,0.487,3.788,0.751,5.681c0.031,0.226,0.236,0.511-0.207,0.529
		C124.092,130.001,124.043,129.822,123.997,129.727z"/>
	<path style="fill:#F2CC16;" d="M115.426,51.649c7.582-3.321,14.95-6.548,22.511-9.86c-1.081,7.647-2.133,15.095-3.213,22.735
		C128.791,59.369,122.689,54.807,115.426,51.649z"/>
	<path style="fill:#33599E;" d="M85.759,80.015c-3.152,1.489-6.239,3.019-8.487,5.807c1.747-1.097,3.558-2.038,5.529-2.655
		c2.444-0.764,4.936-1.169,7.497-1.293c1.809-0.088,3.615-0.17,5.426-0.158c0.444,0.003,1.006-0.095,1.24,0.296
		c0.251,0.418-0.302,0.7-0.531,0.99c-1.633,2.063-3.305,4.098-5.775,5.238c-2.343,1.082-4.875,1.151-7.374,1.202
		c-4.331,0.089-7.987,1.632-10.968,4.749c-0.789,0.825-1.492,1.737-2.192,2.643c-2.176,2.818-5.105,3.706-8.518,3.352
		c-0.466-0.048-0.977,0.038-1.437-0.356c4.155-1.468,6.018-5.22,8.417-8.404c2.781-3.692,5.694-7.192,10.043-9.147
		C80.924,81.249,83.301,80.495,85.759,80.015z"/>
	<path style="fill:#F2CC16;" d="M110.233,75.132c-0.316,1.108-0.781,2.149-1.45,3.09c-3.044,4.282-6.089,8.564-9.144,12.838
		c-0.372,0.52-0.625,1.067-0.799,1.686c-1.894,6.763-3.32,13.66-5.801,20.255c-0.153,0.408-0.207,0.871-0.575,1.176
		c0.248-7.075,0.863-14.108,2.881-20.931C97.747,85.129,102.944,79.259,110.233,75.132z"/>
	<path style="fill:#F2CC16;" d="M119.794,89.215c-0.168,1.534-0.735,2.937-1.524,4.237c-2.615,4.309-3.585,9.005-3.487,13.996
		c0.067,3.443,0.449,6.855,0.766,10.276c-2.609-3.926-4.953-7.954-5.674-12.739c-0.594-3.938,0.239-7.403,2.944-10.377
		C114.828,92.398,117.128,90.572,119.794,89.215z"/>
	<path style="fill:#003086;" d="M84.017,133.062c0.904,0.068,1.649-0.377,2.373-0.804c3.849-2.266,7.53-4.758,10.688-7.959
		c0.639-0.648,0.881-1.339,0.955-2.248c0.327-4.052-0.24-8.097-0.019-12.144c0.812-2.403,1.139-4.938,2.014-7.324
		c0.534-1.457,1.05-2.925,1.964-4.202c0.255-0.357,0.58-0.666,0.888-0.982c0.136-0.139,0.337-0.192,0.504-0.073
		c0.205,0.146,0.068,0.331-0.01,0.489c-1.42,2.885-1.996,5.999-2.413,9.143c-0.301,2.27-0.337,4.561-0.313,6.854
		c0.034,3.321-0.084,6.647,0.454,9.944c0.105,0.642-0.146,1.109-0.607,1.565c-3.151,3.119-6.918,5.383-10.603,7.774
		c-1.16,0.752-2.232,0.965-3.527,0.478C85.623,133.295,84.802,133.226,84.017,133.062z"/>
	<path style="fill:#003086;" d="M109.785,88.123c3.288-3.241,4.334-7.38,4.963-11.778c0.225-1.572-0.408-2.283-1.421-3.118
		c-2.179-1.798-4.573-3.39-5.844-6.086c-0.696-1.476-0.644-2.995-0.543-4.542c0.001-0.019,0.051-0.049,0.079-0.049
		c0.034,0,0.068,0.025,0.103,0.039c0.462,3.141,2.663,4.933,5.038,6.652c2.282,1.651,4.37,3.512,5.249,6.353
		c1.222,3.952,0.328,7.702-1.073,11.404c-0.093,0.245-0.232,0.401-0.581,0.361C113.706,87.125,111.751,87.684,109.785,88.123z"/>
	<path style="fill:#F2CC16;" d="M95.299,50.182c-3.406-2.539-7.16-2.025-10.958-1.285c-3.884,0.757-7.756,1.608-11.727,1.795
		c-3.297,0.155-6.355-0.393-8.711-3.177c-0.271,0.604-0.065,1.156-0.194,1.889c-0.917-1.249-1.905-2.248-2.882-3.256
		c-1.477-1.524-3.159-2.528-5.358-2.426c0.34-0.884,0.993-1.028,1.865-0.902c2.449,0.353,4.116,1.472,6.139,4.276
		c0.126-0.568,0.239-1.076,0.361-1.628c1.032,0.597,1.997,1.207,3.007,1.731c4.28,2.219,8.762,2.08,13.302,1.061
		c2.884-0.648,5.752-1.362,8.637-2.003c1.681-0.373,3.294-0.126,4.842,0.664c0.958,0.489,1.655,1.074,1.539,2.276
		C95.13,49.518,95.249,49.854,95.299,50.182z"/>
	<path style="fill:#F1CC16;" d="M75.714,97.072c0,3.725,0,7.116,0,10.807c-2.594-2.118-5.025-4.101-7.658-6.251
		C71,100.708,73.377,99.155,75.714,97.072z"/>
	<path style="fill:#FEFEFE;" d="M47.407,70.353c-1.829-1.7-3.356-3.245-4.213-5.31c-1.097-2.642-0.469-5.248,1.585-6.931
		c0.533-0.436,0.912-0.44,1.417,0.028c1.259,1.165,1.647,2.961,0.888,4.533c-0.579,1.2-0.464,2.459-0.32,3.704
		C46.909,67.618,47.159,68.848,47.407,70.353z"/>
	<path style="fill:#F1CC16;" d="M102.033,78.991c0.186-3.219-0.608-5.987-1.867-8.749c0.662,0.586,1.351,1.144,1.978,1.766
		c0.617,0.612,1.171,1.288,1.858,2.054c-0.221-1.996-1.051-3.585-1.892-5.223c1.575,0.793,2.947,1.845,4.18,3.091
		c0.729,0.737,1.768,1.5,1.834,2.423c0.08,1.105-1.431,1.186-2.183,1.798C104.75,77.118,103.46,77.965,102.033,78.991z"/>
	<path style="fill:#FDFDFE;" d="M64.564,67.662c-1.845-2.117-3.601-4.19-4.203-6.96c-0.321-1.475,0.109-2.787,1.147-3.872
		c0.776-0.811,1.59-0.838,2.463-0.15c0.923,0.727,1.527,2.192,1.036,3.165c-1.115,2.209-0.797,4.452-0.438,6.724
		c0.04,0.255,0.079,0.511,0.106,0.768C64.682,67.398,64.635,67.463,64.564,67.662z"/>
	<path style="fill:#FDFDFD;" d="M70.193,118.593c-0.152,1.368-0.434,2.694-0.459,4.048c-0.026,1.452,0.055,2.866,0.733,4.2
		c0.307,0.603,0.465,1.289-0.038,1.874c-0.515,0.599-1.234,0.61-1.945,0.47c-1.446-0.285-2.261-1.243-2.225-2.724
		c0.067-2.748,0.877-5.221,2.891-7.194C69.429,118.992,69.684,118.652,70.193,118.593z"/>
	<path style="fill:#FDFDFD;" d="M80.462,116.992c0.777,1.66,1.285,3.418,2.659,4.705c0.215,0.202,0.415,0.421,0.641,0.609
		c1.165,0.967,1.245,1.275,0.658,2.73c-0.372,0.922-0.932,1.586-2.052,1.509c-1.227-0.084-2.057-0.718-2.33-1.991
		C79.491,122.009,80.024,119.511,80.462,116.992z"/>
	<path style="fill:#F2CC16;" d="M111.011,59.26c-0.369,0.08-0.624-0.168-0.905-0.325c-3.128-1.748-6.45-2.809-10.058-2.872
		c-0.986-2.817-0.71-3.15,2.218-2.656C106.058,54.045,109.201,55.657,111.011,59.26z"/>
	<path style="fill:#FDFDFD;" d="M68.718,67.667c-0.96-2.355-1.363-4.588-1.106-6.895c0.098-0.878,0.55-1.756,1.556-1.947
		c0.745-0.142,1.735,0.961,1.925,2.013c0.126,0.698,0.089,1.393-0.115,2.083C70.493,64.555,69.713,66.038,68.718,67.667z"/>
	<path style="fill:#003086;" d="M68.413,45.122c2.577-0.604,5.152-1.217,7.732-1.808c0.714-0.163,1.798,0.84,2.013,1.862
		c0.205,0.97-0.521,1.088-1.193,1.205c-2.975,0.515-5.817,0.027-8.587-0.973C68.391,45.313,68.402,45.218,68.413,45.122z"/>
	<path style="fill:#FDFDFD;" d="M51.982,65.888c-1.787-1.818-2.803-3.892-2.37-6.416c0.128-0.744,0.157-1.84,1.389-1.751
		c1.177,0.085,1.867,0.974,1.84,2.221c-0.003,0.147,0.013,0.31-0.042,0.438C52.048,62.134,51.839,63.967,51.982,65.888z"/>
	<path style="fill:#FCFDFD;" d="M56.871,65.295c-2.183-2.012-3.03-5.644-1.956-7.767c0.324-0.64,0.665-0.754,1.302-0.479
		c1.427,0.617,2.217,2.129,1.398,3.321c-0.941,1.37-0.854,2.766-0.745,4.239C56.883,64.791,56.871,64.973,56.871,65.295z"/>
	<path style="fill:#F0CB16;" d="M118.38,64.335c-1.286-0.913-2.564-1.836-3.862-2.732c-0.359-0.248-0.775-0.415-1.164-0.62
		c-0.323-0.477-0.132-1.009-0.142-1.512c-0.028-1.383-0.473-2.652-1.006-3.919C115.285,57.781,117.308,60.725,118.38,64.335z"/>
	<path style="fill:#FDFDFD;" d="M73.91,68.018c-0.487-1.297-0.981-2.413-1.326-3.574c-0.54-1.818,0.507-3.405,2.372-3.786
		c0.365-0.075,0.457,0.024,0.472,0.358c0.043,1.003,0.291,1.966,0.594,2.917c0.056,0.175,0.145,0.386-0.028,0.514
		C74.861,65.289,74.609,66.661,73.91,68.018z"/>
	<path style="fill:#F0CB17;" d="M50.887,46.037c-0.923-0.122-1.84-0.318-2.655-0.763c-1.879-1.029-3.692-1.171-5.463,0.211
		c0.964-2.725,2.791-3.451,5.335-2.052c1.259,0.693,2.664,0.955,4.021,1.458C51.817,45.457,51.354,45.749,50.887,46.037z"/>
	<path style="fill:#FCFDFD;" d="M73.245,122.408c0.342,1.562,0.905,2.964,1.796,4.251c0.619,0.894,0.308,1.634-0.657,2.05
		c-0.865,0.373-2.089-0.05-2.384-0.825C71.491,126.549,72.133,123.592,73.245,122.408z"/>
	<path style="fill:#FCFCFC;" d="M78.498,69.869c-0.388-1.063-0.763-1.946-1.031-2.86c-0.628-2.141,0.162-3.309,2.284-3.672
		C81.226,65.835,79.614,67.745,78.498,69.869z"/>
	<path style="fill:#FCFCFC;" d="M77.595,122.24c0.506,1.474,1.036,2.716,1.703,3.898c0.271,0.48,0.57,1.049,0.11,1.537
		c-0.535,0.568-1.264,0.749-2.034,0.564c-0.689-0.166-1.07-0.671-1.134-1.346C76.084,125.26,76.434,123.752,77.595,122.24z"/>
	<path style="fill:#013086;" d="M45.126,46.81c-0.239,1.965,0.244,3.849,0.706,5.724c0.141,0.571,0.153,1.101-0.067,1.596
		c-0.338,0.762-0.241,1.216,0.663,1.306c-1.143,0.007-2.287,0.009-3.382,0.655c1.408-1.689,1.344-3.478,0.83-5.431
		C43.496,49.214,43.761,47.784,45.126,46.81z"/>
	<path style="fill:#013085;" d="M67.757,131.457c1.616,1.583,3.479,2.711,5.737,3.107c0.543,0.095,1.088,0.176,1.632,0.264
		c-0.112,0.192-0.207,0.396-0.339,0.572c-1.017,1.364-1.21,1.395-2.745,0.655c-1.862-0.896-3.537-2.002-4.536-3.893
		c-0.139-0.263-0.403-0.56-0.106-0.863C67.494,131.203,67.675,131.311,67.757,131.457z"/>
	<path style="fill:#FBFBFB;" d="M84.447,118.211c0.95,0.337,1.798,0.692,2.677,0.937c1.021,0.285,0.849,1.071,0.826,1.78
		c-0.029,0.854-0.405,1.462-1.331,1.628c-0.87,0.156-1.187-0.412-1.43-1.055C84.799,120.47,84.571,119.397,84.447,118.211z"/>
	<path style="fill:#FBFBFC;" d="M89.27,118.637c-0.523,0.088-0.883-0.124-1.087-0.656c-0.346-0.901-0.516-1.838-0.65-2.787
		c-0.06-0.423,0.032-0.587,0.527-0.508c0.95,0.151,1.739,0.567,2.417,1.227c0.628,0.612,0.318,1.311,0.137,1.968
		C90.438,118.524,89.891,118.652,89.27,118.637z"/>
	<path style="fill:#EFCA17;" d="M122.863,68.173c-1.022-0.782-2.087-1.521-2.734-2.685c0.256-1.339,0.031-2.696,0.078-4.336
		C121.983,63.365,122.581,65.708,122.863,68.173z"/>
	<path style="fill:#F0CB16;" d="M95.15,135.042c0.125-0.2,0.136-0.239,0.162-0.257c2.001-1.382,2.001-1.383,3.953,0.027
		c0.534,0.385,1.064,0.775,1.844,1.345c-1.521,0.181-2.771,0.334-4.023,0.477c-0.426,0.049-0.499-0.307-0.516-0.577
		C96.515,135.191,96.013,134.934,95.15,135.042z"/>
	<path style="fill:#FAFAFB;" d="M82.96,71.036c-0.58-1.226-0.94-2.266-1.143-3.35c-0.187-1.003,0.621-1.985,1.639-2.097
		c0.162-0.018,0.261-0.016,0.377,0.112c0.315,0.35,0.544,2.285,0.237,2.655c-0.311,0.374-0.61,0.74-0.742,1.212
		C83.211,69.984,83.116,70.406,82.96,71.036z"/>
	<path style="fill:#003086;" d="M34.244,153.439c2.513,3.108,5.18,6.073,8.077,8.834c0.642,0.612,0.874,0.571,1.339-0.177
		c1.25-2.012,2.695-3.896,4.236-5.693c0.633-0.738,1.124-1.368,0.407-2.307c-0.108-0.141-0.033-0.421-0.043-0.636
		c1.033-0.475,2.065-0.554,3.096,0.004c-0.07,0.683-0.599,1.155-0.922,1.863c2.116-0.1,4.112-0.463,6.127-0.33
		c0.71-0.003,1.463-0.392,2.103,0.234c-0.859,0.218-1.724,0.417-2.577,0.658c-4.75,1.343-7.682,4.806-10.187,8.763
		c-0.058,0.092-0.166,0.241-0.136,0.287c0.656,0.999-0.336,0.938-0.775,1.159c-1.156,0.581-2.371,1.054-3.501,1.679
		c-0.672,0.371-1.117,0.243-1.682-0.178c-4.118-3.07-7.125-7.072-9.68-11.455c-0.464-0.796-0.845-1.639-1.264-2.461
		c0.01-0.329,0.257-0.462,0.509-0.474C31.002,153.13,32.645,152.837,34.244,153.439z"/>
	<path style="fill:#182D49;" d="M130.516,149.252c-0.064,4.022-2.69,7.68-6.236,8.706c-0.577,0.167-1.159,0.24-1.755,0.228
		c-1.432-0.028-2.287-0.749-2.484-2.178c-0.08-0.581-0.075-1.188-0.005-1.77c0.073-0.612,0.25-1.178-0.657-1.281
		c-0.415-0.047-0.38-0.369-0.265-0.68c0.829-2.247,1.876-4.357,3.783-5.912c0.666-0.542,1.416-0.938,2.245-1.184
		C128.424,144.208,130.571,145.833,130.516,149.252z"/>
	<path style="fill:#003086;" d="M183.615,153.47c-0.543,1.595-1.735,2.65-3.082,3.518c-0.874,0.564-1.2,1.182-0.628,2.094
		c0.445,0.71-0.12,0.898-0.545,1.151c-3.074,1.835-6.472,2.683-9.966,3.206c-1.864,0.279-3.737,0.488-5.543,0.459
		c0.228-2.091-1.637-3.242-2.175-5.03c2.887-0.291,5.745-0.587,8.559-1.175c1.995-0.416,3.973-0.902,5.803-1.825
		c1.06-0.535,2.104-1.13,2.452-2.409C180.2,152.895,181.908,152.881,183.615,153.47z"/>
	<path style="fill:#003086;" d="M117.393,153.415c0.853,0.395,1.097,1.019,1.128,1.989c0.097,3.038,1.978,4.525,5.001,4.164
		c3.234-0.387,5.381-2.229,6.827-5.03c0.185-0.359,0.351-0.728,0.526-1.093c1.427-0.523,2.852-0.552,4.275,0.017
		c-2.068,4.578-4.968,8.241-10.257,9.228c-0.869,0.162-1.762,0.252-2.646,0.271c-4.594,0.099-7.393-2.221-8.167-6.75
		c-0.156-0.911-0.22-1.836-0.084-2.761C115.123,152.916,116.256,152.965,117.393,153.415z"/>
	<path style="fill:#003086;" d="M151.108,153.451c1.532,2.185,3.248,4.216,5.095,6.14c1.844,1.92,3.768,3.756,5.857,5.609
		c-1.224,0.716-2.463,1.18-3.683,1.681c-0.377,0.155-0.633-0.118-0.904-0.287c-1.205-0.75-2.218-1.726-3.133-2.797
		c-2.612-3.053-4.692-6.448-6.396-10.079c0.221-0.717,0.842-0.555,1.353-0.597C149.923,153.07,150.538,153.155,151.108,153.451z"/>
	<path style="fill:#003086;" d="M103.33,153.465c-1.269,3.873-2.27,7.807-2.666,11.874c-0.047,0.48-0.316,0.63-0.695,0.713
		c-1.156,0.253-2.315,0.489-3.47,0.746c-0.534,0.119-0.75-0.016-0.666-0.607c0.626-4.367,1.542-8.658,3.29-12.735
		C100.527,152.92,101.929,152.896,103.33,153.465z"/>
	<path style="fill:#003086;" d="M75.155,153.705c-1.001,3.714-1.75,7.482-2.357,11.277c-0.121,0.756-0.444,1.068-1.171,1.166
		c-0.988,0.132-1.975,0.306-2.942,0.543c-0.771,0.189-0.874-0.051-0.753-0.759c0.762-4.463,2.15-8.737,3.819-12.93
		c1.066-0.554,2.111-0.09,3.155,0.09C75.187,153.14,75.262,153.421,75.155,153.705z"/>
	<path style="fill:#003086;" d="M20.704,153.696c-0.56,2.412-1.048,4.839-1.381,7.294c-0.077,0.569-0.355,0.827-0.876,0.982
		c-1.565,0.466-3.179,0.676-4.778,0.969c-0.492,0.09-0.589-0.135-0.537-0.543c0.386-3.044,0.782-6.085,1.997-8.944
		c0.568-0.469,1.252-0.329,1.899-0.342c0.878-0.017,1.759-0.041,2.635,0.019C20.074,153.159,20.585,153.093,20.704,153.696z"/>
	<path style="fill:#FEFDFC;" d="M177.496,150.773c-1.346-0.955-2.852-1.33-4.493-1.34c-1.723-0.01-3.713-0.82-5.077-1.958
		c0.198-0.341,0.527-0.166,0.781-0.167c3.701-0.014,7.402-0.01,11.103-0.009c2.082,0,3.78,1.334,4.33,3.399
		c-0.154,0.303-0.444,0.396-0.739,0.41c-1.696,0.076-3.394,0.092-5.09-0.01C178.021,151.081,177.742,150.946,177.496,150.773z"/>
	<path style="fill:#003086;" d="M58.665,155.23c-0.661-0.431-1.407-0.101-2.102-0.234c1.346-0.309,2.719-0.148,4.078-0.24
		c0.356-1.637,0.357-1.656,2.217-1.63c0.752,0.011,1.554-0.2,2.233,0.335c0.16,2.213,0.47,4.407,0.954,6.57
		c0.14,0.627-0.011,0.961-0.566,1.224c-0.901,0.427-1.811,0.845-2.663,1.357c-0.901,0.542-1.113,0.104-1.221-0.689
		c-0.249-1.831-0.496-3.67-0.473-5.515c0.015-1.169-0.348-1.54-1.466-1.232C59.344,155.262,58.996,155.216,58.665,155.23z"/>
	<path style="fill:#003086;" d="M142.703,153.92c-0.594,2.514-1.206,5.025-1.769,7.546c-0.124,0.555-0.395,0.84-0.92,0.947
		c-1.078,0.221-2.391,0.784-3.187,0.135c-0.616-0.502,0.028-1.801,0.228-2.724c0.471-2.165,1.048-4.303,1.851-6.373
		c1.073-0.602,2.213-0.334,3.331-0.228C142.586,153.257,142.859,153.48,142.703,153.92z"/>
	<path style="fill:#192E48;" d="M52.969,153.735c2.077-2.652,4.012-5.151,6.576-7.478c0,2.418,0.001,4.575-0.001,6.732
		c0,0.433-0.321,0.416-0.622,0.432C57.008,153.52,55.094,153.623,52.969,153.735z"/>
	<path style="fill:#FDFDFC;" d="M16.293,150.503c0.769-3.205,0.769-3.205,3.96-3.205c0.909,0,1.819,0,2.891,0
		c-0.573,1.129-0.847,2.194-1.183,3.239c-0.235,0.264-0.548,0.352-0.883,0.363c-1.309,0.043-2.619,0.05-3.928-0.005
		C16.82,150.883,16.494,150.818,16.293,150.503z"/>
	<path style="fill:#FDFDFB;" d="M27.33,150.732c-0.698-0.903-0.378-1.541,0.412-2.239c0.966-0.854,1.953-1.355,3.287-1.216
		c1.049,0.109,2.118,0.022,3.273,0.236c-0.698,0.434-1.369,0.923-2.102,1.288c-0.841,0.418-1.009,0.849-0.262,1.504
		c0.105,0.092,0.153,0.25,0.227,0.378c-0.034,0.064-0.056,0.174-0.103,0.186C30.474,151.263,28.889,151.445,27.33,150.732z"/>
	<path style="fill:#34599E;" d="M16.293,150.503c1.889,0.012,3.779,0.023,5.668,0.035c-0.313,1.095-0.666,2.175-1.257,3.159
		c-0.903-0.479-1.874-0.161-2.811-0.221c-0.918-0.059-1.843-0.018-2.764-0.021C15.517,152.471,15.905,151.487,16.293,150.503z"/>
	<path style="fill:#32589E;" d="M177.496,150.773c2.215-0.025,4.43-0.05,6.645-0.075c0.153,0.986,0.402,1.99-0.525,2.772
		c-1.708-0.003-3.416-0.006-5.124-0.009C178.497,152.44,178.192,151.534,177.496,150.773z"/>
	<path style="fill:#FDFDFA;" d="M60.845,150.552c-0.482-3.254-0.482-3.254,2.603-3.254c1.684,0,1.687,0,1.682,1.713
		c-0.002,0.516-0.026,1.032-0.04,1.548C63.674,151.135,62.259,151.158,60.845,150.552z"/>
	<path style="fill:#33599E;" d="M27.33,150.732c1.612-0.017,3.224-0.033,4.836-0.05c0.692,0.919,1.385,1.838,2.077,2.758
		c-1.453,0.007-2.905,0.008-4.358,0.024c-0.351,0.004-0.736-0.103-1.023,0.219C28.294,152.729,27.732,151.772,27.33,150.732z"/>
	<path style="fill:#FDFCFB;" d="M140.008,150.69c0.323-1.026,0.932-1.913,1.393-2.871c0.291-0.606,0.817-0.518,1.327-0.521
		c2.667-0.016,2.669-0.016,1.703,2.436c-0.134,0.34-0.301,0.667-0.453,1C142.648,151.354,141.323,151.455,140.008,150.69z"/>
	<path style="fill:#FDFDFB;" d="M114.669,150.692c0.208-1.059,0.746-1.987,1.176-2.958c0.161-0.363,0.435-0.445,0.798-0.44
		c0.883,0.013,1.766,0.023,2.649-0.003c0.627-0.019,0.825,0.116,0.435,0.724c-0.575,0.897-1.096,1.828-1.64,2.745
		C116.937,151.308,115.794,151.471,114.669,150.692z"/>
	<path style="fill:#34599D;" d="M60.845,150.552c1.415,0.002,2.83,0.005,4.245,0.007c0,0.967,0.001,1.935,0.001,2.902
		c-0.699-0.003-1.401,0.034-2.096-0.017c-1.091-0.08-2.149-0.166-2.354,1.313C60.709,153.355,60.777,151.953,60.845,150.552z"/>
	<path style="fill:#345A9E;" d="M103.33,153.465c-1.402-0.003-2.804-0.006-4.207-0.008c0.407-0.957,0.815-1.914,1.222-2.871
		c1.385-0.542,2.765-0.657,4.139,0.039C104.204,151.614,103.82,152.561,103.33,153.465z"/>
	<path style="fill:#FEFEFD;" d="M104.485,150.625c-1.379-0.013-2.759-0.026-4.138-0.039c0.307-0.71,0.579-1.438,0.935-2.122
		c0.22-0.423,0.213-1.143,0.894-1.119c1.071,0.038,2.139,0.196,3.05,0.839c0.215,0.152,0.115,0.409,0.03,0.613
		C105.004,149.409,104.742,150.016,104.485,150.625z"/>
	<path style="fill:#FEFDFB;" d="M83.762,150.358c1.15-0.915,2.307-1.821,3.446-2.749c0.657-0.535,1.415-0.247,2.127-0.303
		c0.538-0.042,1.082-0.008,1.949-0.008c-1.33,1.462-2.714,2.37-4.146,3.219C86.005,150.636,84.861,150.973,83.762,150.358z"/>
	<path style="fill:#FDFCFA;" d="M150.167,150.635c1.211-1.026,2.41-2.065,3.637-3.071c0.641-0.525,1.428-0.194,2.146-0.259
		c0.471-0.043,0.949-0.008,1.57,0.253c-1.58,1.075-3.161,2.15-4.741,3.224C151.894,151,150.988,151.579,150.167,150.635z"/>
	<path style="fill:#FCFCF8;" d="M131.862,150.689c0.114-0.81,0.083-1.62-0.03-2.424c-0.097-0.692,0.093-1.058,0.87-0.977
		c0.438,0.046,0.884,0.008,1.326,0.008c1.725,0,1.74,0.005,1.239,1.698c-0.177,0.597-0.446,1.167-0.673,1.749
		C133.673,151.265,132.758,151.424,131.862,150.689z"/>
	<path style="fill:#33599E;" d="M140.008,150.69c1.323,0.014,2.647,0.029,3.97,0.043c-0.425,1.063-0.85,2.126-1.275,3.188
		c-0.091-0.497-0.47-0.472-0.843-0.47c-0.985,0.004-1.97,0.002-2.955,0.002C139.138,152.477,139.481,151.547,140.008,150.69z"/>
	<path style="fill:#FEFDFB;" d="M72.796,150.386c0.111-0.31,0.206-0.627,0.335-0.929c1.019-2.38,1.02-2.365,3.617-2.169
		c0.546,0.041,0.754,0.19,0.526,0.73c-0.342,0.808-0.679,1.618-1.019,2.427C75.096,150.825,73.941,150.913,72.796,150.386z"/>
	<path style="fill:#FCFCFA;" d="M50.631,150.685c0.831-1.332,2.007-2.333,3.282-3.185c0.72-0.481,1.624-0.157,2.812-0.174
		c-1.194,1.284-2.194,2.358-3.193,3.432C52.553,151.255,51.58,151.453,50.631,150.685z"/>
	<path style="fill:#355A9E;" d="M72.796,150.386c1.153,0.019,2.306,0.039,3.46,0.058c-0.266,1.121-0.658,2.2-1.101,3.261
		c-0.078-0.275-0.231-0.435-0.542-0.458c-0.955-0.07-1.908-0.162-2.862-0.245C72.006,152.092,72.368,151.226,72.796,150.386z"/>
	<path style="fill:#375B9E;" d="M83.762,150.358c1.12,0.177,2.26-0.099,3.376,0.159c-1.064,0.724-2.104,1.489-3.199,2.164
		c-1.567,0.967-1.773,0.915-3.287-0.462C81.704,151.59,82.733,150.974,83.762,150.358z"/>
	<path style="fill:#34599D;" d="M114.669,150.692c1.139,0.023,2.279,0.046,3.418,0.068c-0.226,0.886-0.708,1.705-0.695,2.654
		c-1.132,0.012-2.265,0.023-3.397,0.035C114.03,152.484,114.196,151.551,114.669,150.692z"/>
	<path style="fill:#33599D;" d="M131.862,150.689c0.911,0.018,1.822,0.036,2.732,0.054c-0.508,1.048,0.179,1.851,0.556,2.718
		c-1.425-0.006-2.85-0.011-4.275-0.017C131.204,152.526,131.533,151.608,131.862,150.689z"/>
	<path style="fill:#34599D;" d="M50.631,150.685c0.967,0.024,1.935,0.049,2.902,0.073c-0.726,0.902-1.451,1.803-2.177,2.705
		c-1.032-0.001-2.064-0.003-3.096-0.004C48.934,152.435,49.725,151.51,50.631,150.685z"/>
	<path style="fill:#33599C;" d="M150.167,150.635c0.871,0.049,1.742,0.098,2.613,0.148c-0.512,0.356-1.007,0.743-1.542,1.06
		c-0.832,0.494-0.939,1.003-0.131,1.609c-1.05,0.147-2.151-0.312-3.164,0.267c-0.665-0.788-0.394-1.415,0.361-1.922
		C148.911,151.388,149.545,151.02,150.167,150.635z"/>
	<path style="fill:#182D49;" d="M74.88,54.815c4.437-4.508,11.479-6.693,17.002-3.949c1.978,0.983,3.362,2.514,3.647,4.825
		c-0.344,0.264-0.643,0.041-0.91-0.125c-0.97-0.605-1.954-0.517-2.972-0.148c-1.561,0.565-3.058,1.284-4.609,1.872
		c-1.035,0.392-2.082,0.738-3.154,1.019c-3.468,0.909-6.164-0.617-8.68-2.72C74.975,55.399,74.806,55.149,74.88,54.815z"/>
	<path style="fill:#003086;" d="M74.88,54.815c1.857,1.959,4.072,3.348,6.793,3.488c1.758,0.09,3.464-0.57,5.109-1.231
		c1.195-0.481,2.418-0.905,3.57-1.473c1.767-0.871,3.472-1.141,5.177,0.093c-0.192,0.948-1.015,1.262-1.742,1.503
		c-3.657,1.213-7.216,2.745-11.08,3.291c-1.237,0.175-2.332-0.105-3.442-0.491c-1.962-0.681-3.578-1.883-4.931-3.433
		C73.621,55.746,74.62,55.376,74.88,54.815z"/>
	<path style="fill:#182E4B;" d="M53.07,50.373c0.91-1.978,2.585-3.011,4.547-3.701c0.538-0.189,0.805,0.028,1.028,0.499
		c0.532,1.128,0.305,2.416-0.642,3.422c-0.221-0.2-0.171-0.457-0.166-0.714c0.022-1.063-0.341-1.369-1.39-1.147
		c-0.917,0.194-1.676,0.704-2.426,1.239C53.743,50.168,53.509,50.532,53.07,50.373z"/>
	<path style="fill:#013086;" d="M53.07,50.373c0.771-0.55,1.443-1.246,2.348-1.598c0.782-0.304,1.598-0.735,2.403-0.21
		c0.84,0.548,0.14,1.345,0.182,2.027c-0.152,0.27-0.361,0.564-0.671,0.283c-1.401-1.265-2.808-0.815-4.232-0.077
		c-0.09,0.046-0.198,0.057-0.302,0.086C52.68,50.58,52.896,50.488,53.07,50.373z"/>
	<path style="fill:#FDFDFD;" d="M89.356,52.798c-1.667,0.885-3.186,1.709-4.722,2.502c-1.376,0.71-2.833,1.05-4.392,0.854
		c-0.63-0.079-1.238-0.227-1.793-0.537c-0.913-0.51-0.903-0.702-0.087-1.316c1.72-1.295,3.427-2.566,5.701-2.741
		C85.927,51.416,87.647,51.734,89.356,52.798z"/>
</g>
</svg>
