<?xml version="1.0" encoding="utf-8"?>
<!-- Generator: Adobe Illudet_strator 24.1.0, SVG Export Plug-In . SVG Version: 6.00 Build 0)  -->
<svg version="1.1" id="Layer_1" xmlns="http://www.w3.org/2000/svg" xmlns:xlink="http://www.w3.org/1999/xlink" x="0px"
	y="0px" viewBox="0 0 200 200" det_style="enable-background:new 0 0 200 200;" xml:space="preserve">
	<style type="text/css">
		.det_st0 {
			fill: #D5D4D2;
		}

		.det_st1 {
			fill: #FDFAF9;
		}

		.det_st2 {
			fill: #C12A2F;
		}

		.det_st3 {
			fill: #EB2327;
		}

		.det_st4 {
			fill: #C0282D;
		}

		.det_st5 {
			fill: #C1292E;
		}

		.det_st6 {
			fill: #FAA83E;
		}

		.det_st7 {
			fill: #FDF2F1;
		}

		.det_st8 {
			fill: #F9A23E;
		}
	</style>
	<g>
		<path class="det_st0" d="M196.31,63.91c-2.4,1.32-4.79,2.65-7.49,4.13c3.72,0.27,7.06-0.08,10.46-0.03
		c-8.94,4.97-18.17,9.32-27.4,14.09c1.47,0.9,3.05,1.05,4.42,2.04c-1.35,0.74-2.57,1.43-3.8,2.08c-5,2.64-10.01,5.28-15.03,7.88
		c-0.81,0.42-1.1,0.76-0.67,1.71c1.42,3.18,2.6,6.46,4.47,9.45c1.35,2.15,0.96,4.43-0.37,6.48c-1.4,2.16-2.94,4.23-4.39,6.36
		c-0.37,0.54-0.71,0.62-1.22,0.21c-0.41-0.33-0.87-0.61-1.29-0.9c-0.1,0.11-0.2,0.18-0.19,0.23c0.31,1.83,0.29,1.78-1.57,2.46
		c-3.19,1.16-6.19,0.92-8.99-1.08c-0.74-0.53-1.21-0.44-1.69,0.37c-0.64,1.07-1.36,2.09-2.13,3.07c-0.5,0.63-0.33,1.01,0.22,1.42
		c2.72,2.05,5.43,4.1,8.13,6.17c0.39,0.3,0.66,0.3,0.95-0.05c2.09-2.51,5.05-2.58,7.94-2.87c0.12-0.01,0.26,0.03,0.37-0.02
		c2.62-0.99,4.14,0.39,5.5,2.41c1.11,1.65,2.44,3.14,3.67,4.71c0.31,0.39,0.61,0.76,0.31,1.34c-0.67,1.34-1.29,2.7-1.9,4.07
		c-0.29,0.65-0.7,0.81-1.39,0.62c-1.06-0.28-2.16-0.45-3.28-0.68c1.13,1.17,2.17,2.29,3.27,3.36c0.57,0.55,0.57,0.91-0.09,1.36
		c-3.8,2.54-7.59,5.1-11.37,7.67c-0.59,0.4-0.94,0.41-1.39-0.26c-1.52-2.28-3.13-4.5-4.71-6.74c-0.23-0.33-0.48-0.64-0.86-0.9
		c1.1,3.71,2.06,7.46,3.75,10.99c-0.55,0.12-1.07,0.06-1.6-0.07c-1.29-0.3-1.44-0.13-1.15,1.19c0.34,1.54,0.64,3.09,1.05,4.6
		c0.29,1.07-0.04,1.14-0.95,0.88c-1.51-0.43-3.07-0.71-4.58-1.16c-0.78-0.23-1.07,0.02-1.23,0.71c-0.35,1.45-0.73,2.89-1.07,4.35
		c-0.1,0.44-0.01,1.04-0.49,1.18c-0.49,0.14-0.74-0.45-1.04-0.76c-4.63-4.71-9.97-8.39-16.03-11.01c-0.18-0.08-0.38-0.13-0.68-0.23
		c0.04,3.18-0.36,6.19-0.99,9.2c-0.77,3.6-2.22,6.85-4.61,9.67c-0.66,0.78-1.19,0.85-1.92,0.13c-0.86-0.84-1.83-1.57-2.66-2.44
		c-0.57-0.59-1.01-0.62-1.71-0.24c-4.27,2.33-8.56,4.62-12.85,6.92c-1.41,0.76-1.41,0.75-1.84-0.73c-0.39-1.36-0.82-2.7-1.18-4.06
		c-0.19-0.71-0.48-0.8-1.15-0.5c-5.8,2.61-11.83,4.63-17.77,6.9c-1.05,0.4-1.3,0.17-1.35-0.96c-0.11-2.36,0.31-4.63,0.83-6.89
		c0.19-0.85,0.01-0.95-0.75-0.66c-5.56,2.09-11.33,3.53-17,5.27c-0.83,0.25-1.41,0.55-1.09-0.86c0.56-2.46,0.86-4.97,1.35-7.45
		c0.16-0.8-0.02-0.94-0.76-0.86c-3.7,0.39-7.1-0.59-9.8-3.03c-4.04-3.64-7.27-8.08-11.27-12.03c0.75-0.33,1.32-0.23,1.86-0.19
		c4.27,0.3,8.52,0.52,12.76-0.47c3.64-0.85,6.81-2.59,9.84-4.66c5.94-4.05,11.89-8.09,17.82-12.15c3.53-2.41,7.03-4.85,10.78-7.44
		c-2.14-0.2-4.03-0.39-5.92-0.55c-3.05-0.26-6.11-0.52-9.16-0.75c-0.68-0.05-0.72-0.46-0.67-0.94c0.16-1.35-0.08-2.04-1.76-2.19
		c-2.9-0.26-5.76-0.95-8.97-1.52c1.09-0.64,1.89-1.11,2.68-1.58c0.23-0.14,0.63-0.17,0.61-0.53c-0.08-1.7,0.92-3.07,1.38-4.6
		c0.23-0.78,0.11-1.19-0.6-1.58c-3.31-1.84-6.59-3.71-9.89-5.56c-0.47-0.26-0.96-0.47-1.41-1.03c2.22-0.59,4.36-1.16,6.61-1.76
		c-0.77-1.05-1.75-1.74-2.6-2.56c-1.95-1.87-3.99-3.64-5.98-5.47c-5.05-4.64-10.04-9.34-15.07-14c-2.53-2.34-5.11-4.63-7.66-6.95
		c-0.2-0.18-0.55-0.36-0.43-0.69c0.12-0.31,0.48-0.27,0.77-0.27c3.03-0.08,6.02-0.55,9.21-0.83c-8.85-9.48-18.21-18.32-27.23-27.93
		c2.35-0.02,4.48,0.08,6.77-0.38c-4.82-4.4-9.57-8.74-14.33-13.09c3.59-0.21,7.12-0.41,10.64,0.05c0.09-0.14,0.17-0.28,0.26-0.42
		c-0.97-0.88-1.94-1.75-2.9-2.63c-3.03-2.78-6.06-5.56-9.09-8.34c-0.37-0.34-0.75-0.65-1.13-0.98c-0.24-0.21-0.67-0.38-0.51-0.75
		c0.16-0.37,0.59-0.19,0.89-0.14c1.67,0.31,3.33,0.63,5,0.95c7.27,1.41,14.55,2.79,21.82,4.22c8.82,1.73,17.62,3.51,26.43,5.25
		c6.58,1.3,13.16,2.6,19.74,3.89c2.11,0.41,4.23,0.8,6.35,1.2c3.62,0.69,6.2,2.83,8.2,5.82c7.08,10.62,14.15,21.24,21.27,31.84
		c3.5,5.21,7,10.41,10.7,15.48c1.28,1.76,2.95,1.97,4.46,0.33c1.85-2.02,3.61-4.12,5.39-6.2c2.73-3.18,5.43-6.38,8.15-9.57
		c1.83-2.15,3.69-4.27,5.49-6.44c0.86-1.04,1.73-1.67,3.25-1.63c4.45,0.12,8.92,0.21,13.37-0.02c5.78-0.3,11.57,0.05,17.34-0.26
		c3.83-0.2,7.65,0,11.47-0.23C192.23,63.72,194.21,63.66,196.31,63.91z M6.02,21.9c-0.03-0.02-0.06-0.04-0.1-0.06
		C5.96,21.86,5.99,21.88,6.02,21.9c0.73,1.1,1.89,1.74,2.8,2.64c1.99,1.95,4.08,3.78,6.12,5.67c1.33,1.23,2.64,2.47,4.23,3.97
		c-3.9-0.15-7.43-0.44-11.27-0.21c4.9,4.52,9.6,8.84,14.29,13.17c-2.11,0.26-4.02,0.25-5.93,0.26c-0.31,0-0.75-0.17-0.87,0.25
		c-0.08,0.29,0.27,0.48,0.47,0.69c3.07,3.16,6.2,6.27,9.26,9.45c4.93,5.14,10.04,10.1,15.06,15.16c0.62,0.63,1.16,1.35,1.82,2.12
		c-3.36,0.64-6.63,0.48-9.95,1.15c3.69,3.37,7.23,6.58,10.74,9.81c3.67,3.38,7.3,6.79,10.96,10.18c1.43,1.32,2.92,2.58,4.36,3.91
		c1.65,1.52,3.27,3.08,4.91,4.61c0.45,0.42,0.55,0.74-0.19,0.91c-0.36,0.08-0.73,0.16-1.08,0.28c-1.17,0.42-2.48,0.44-3.69,1.12
		c0.25,0.18,0.38,0.28,0.52,0.36c2.77,1.59,5.53,3.22,8.34,4.75c0.79,0.43,0.83,0.86,0.55,1.58c-0.35,0.93-0.58,1.92-0.99,2.82
		c-0.39,0.86,0.03,1.09,0.73,1.26c0.7,0.17,1.5-0.18,2.25,0.4c-1.22,0.7-2.36,1.37-3.77,2.18c2.14,0.36,3.96,0.74,5.8,0.96
		c1.24,0.15,2.06,0.47,1.76,1.96c-0.16,0.8,0.22,1.08,1.04,1.09c1.32,0.01,2.65,0.12,3.97,0.25c4.36,0.42,8.7,1.14,13.11,0.75
		c0.3-0.03,0.64-0.12,0.99,0.17c-0.16,0.14-0.27,0.24-0.39,0.33c-9.46,6.77-19.15,13.2-28.76,19.74c-3.15,2.14-6.14,4.55-9.73,6.02
		c-4.59,1.87-9.31,2.66-14.24,2.02c-0.28-0.04-0.65-0.16-0.81,0.12c-0.21,0.39,0.23,0.56,0.44,0.79c2.01,2.22,4.1,4.36,6.02,6.65
		c1.62,1.92,3.63,3.14,5.96,3.88c1.89,0.6,3.82,0.68,5.78,0.3c1.4-0.27,1.57-0.08,1.36,1.31c-0.17,1.15-0.45,2.28-0.61,3.42
		c-0.2,1.33-0.75,2.62-0.58,4.05c6.52-1.66,12.83-3.72,19.25-6.08c-0.1,0.54-0.14,0.78-0.18,1.02c-0.5,2.47-1.37,4.87-1.39,7.44
		c-0.01,0.93,0.2,0.99,1.06,0.68c5.88-2.18,11.78-4.31,17.49-6.91c0.6-0.27,0.85-0.24,1.03,0.48c0.33,1.41,0.84,2.78,1.18,4.19
		c0.24,0.98,0.59,1.13,1.5,0.63c4.13-2.24,8.3-4.41,12.44-6.64c0.66-0.36,1.08-0.32,1.61,0.23c0.84,0.86,1.78,1.62,2.66,2.44
		c0.35,0.32,0.63,0.54,1,0.02c0.92-1.28,1.95-2.51,2.47-4.02c1.25-3.62,2.12-7.33,2.09-11.2c-0.01-1.48,0.06-2.96-0.39-4.74
		c7.07,3.29,13.76,6.48,19.06,12.25c0.47-1.79,0.9-3.29,1.24-4.83c0.15-0.71,0.41-0.88,1.1-0.68c1.23,0.36,2.51,0.56,3.74,0.95
		c1.03,0.33,1.08-0.13,0.91-0.9c-0.35-1.58-0.7-3.15-1.09-4.72c-0.18-0.74,0.01-1.01,0.8-0.87c1.5,0.26,1.51,0.24,1.02-1.23
		c-0.94-2.8-1.88-5.59-2.79-8.4c-0.09-0.27-0.49-0.64,0.07-0.94c1.21-0.64,3.08-0.2,3.87,0.93c1.46,2.07,2.94,4.12,4.36,6.22
		c0.38,0.57,0.63,0.58,1.17,0.21c2.84-1.96,5.7-3.89,8.57-5.79c0.5-0.33,0.53-0.53,0.11-0.92c-2.11-2-4.02-4.22-6.37-5.97
		c0.07-0.27,0.27-0.42,0.51-0.51c0.16,0.22,0.38,0.28,0.64,0.33c1.86,0.4,3.72,0.85,5.58,1.23c2.61,0.54,1.98,0.79,3.11-1.62
		c0.09-0.19,0.13-0.4,0.24-0.57c0.36-0.56,0.16-0.96-0.24-1.43c-0.81-0.94-1.6-1.92-2.29-2.94c-1.42-2.11-3-3.77-5.87-2.66
		c-0.07,0.03-0.17,0.01-0.25,0.01c-2.29,0.01-4.29,0.7-6,2.28c-1.52,1.4-1.59,1.37-3.21,0.15c-3.12-2.34-6.22-4.71-9.34-7.05
		c-0.61-0.45-0.71-0.77-0.18-1.47c1.34-1.74,2.54-3.59,3.79-5.4c0.99-1.44,0.98-1.45,2.4-0.35c2.29,1.78,4.76,2.64,7.67,1.73
		c1-0.31,1.34-0.64,0.9-1.72c-0.51-1.26-0.79-2.61-1.27-4.26c1.67,1.23,3,2.2,4.33,3.19c0.36,0.27,0.66,0.52,1.02-0.02
		c1.27-1.85,2.66-3.61,3.78-5.56c0.97-1.69,0.86-3.31-0.24-4.9c-0.86-1.24-1.45-2.6-2.09-3.96c-1.02-2.18-1.62-4.55-2.91-6.6
		c-0.51-0.81-0.33-1.03,0.43-1.42c5.43-2.8,10.84-5.65,16.26-8.49c0.36-0.19,0.79-0.3,0.93-0.81c-1.31-0.81-2.91-1.04-4.32-1.96
		c8.22-4.12,16.3-8.17,24.39-12.23c-0.02-0.13-0.05-0.26-0.07-0.38c-3.21,0.36-6.41,0.2-9.63,0.02c2.38-1.33,4.76-2.67,7.41-4.15
		c-1.65-0.23-2.88,0.07-4.12,0.11c-4.36,0.15-8.73,0.06-13.09,0.2c-7.19,0.24-14.39,0.03-21.59,0.32c-1,0.04-2,0.05-3,0
		c-0.72-0.03-1.23,0.13-1.71,0.73c-1.44,1.77-2.95,3.48-4.44,5.21c-4.71,5.47-9.49,10.88-14.09,16.45c-1.2,1.45-2.53,2.03-4.25,2.42
		c-1.46,0.33-2.24-0.07-3.08-1.23c-6.77-9.41-13.09-19.12-19.58-28.72c-4.42-6.54-8.76-13.14-13.11-19.72
		c-1.84-2.79-4.4-4.46-7.66-5.08c-6.42-1.23-12.85-2.45-19.27-3.7c-7.27-1.42-14.54-2.89-21.81-4.33
		c-8.41-1.66-16.81-3.33-25.23-4.91C11.25,22.75,8.69,22.02,6.02,21.9z" />
		<path class="det_st1"
			d="M154.39,137.03c2.35,1.75,4.26,3.96,6.37,5.97c0.41,0.39,0.38,0.6-0.11,0.92c-2.87,1.9-5.73,3.84-8.57,5.79
		c-0.54,0.37-0.79,0.35-1.17-0.21c-1.42-2.1-2.91-4.15-4.36-6.22c-0.79-1.13-2.66-1.57-3.87-0.93c-0.56,0.3-0.16,0.67-0.07,0.94
		c0.91,2.81,1.86,5.6,2.79,8.4c0.49,1.47,0.49,1.49-1.02,1.23c-0.79-0.14-0.98,0.13-0.8,0.87c0.38,1.57,0.73,3.15,1.09,4.72
		c0.17,0.77,0.12,1.22-0.91,0.9c-1.22-0.39-2.5-0.59-3.74-0.95c-0.7-0.2-0.95-0.03-1.1,0.68c-0.33,1.53-0.77,3.04-1.24,4.83
		c-5.3-5.78-11.98-8.96-19.06-12.25c0.45,1.79,0.38,3.27,0.39,4.74c0.03,3.87-0.84,7.57-2.09,11.2c-0.52,1.51-1.55,2.74-2.47,4.02
		c-0.37,0.52-0.65,0.3-1-0.02c-0.88-0.82-1.83-1.58-2.66-2.44c-0.53-0.55-0.95-0.59-1.61-0.23c-4.14,2.23-8.31,4.39-12.44,6.64
		c-0.91,0.49-1.26,0.34-1.5-0.63c-0.34-1.41-0.85-2.78-1.18-4.19c-0.17-0.72-0.43-0.75-1.03-0.48c-5.71,2.6-11.61,4.74-17.49,6.91
		c-0.85,0.32-1.07,0.25-1.06-0.68c0.02-2.57,0.89-4.97,1.39-7.44c0.05-0.24,0.09-0.48,0.18-1.02c-6.41,2.36-12.73,4.42-19.25,6.08
		c-0.18-1.43,0.38-2.72,0.58-4.05c0.17-1.15,0.44-2.28,0.61-3.42c0.21-1.39,0.04-1.58-1.36-1.31c-1.96,0.38-3.9,0.3-5.78-0.3
		c-2.33-0.74-4.34-1.96-5.96-3.88c-1.92-2.29-4.01-4.43-6.02-6.65c-0.21-0.23-0.65-0.4-0.44-0.79c0.15-0.28,0.53-0.16,0.81-0.12
		c4.94,0.64,9.66-0.14,14.24-2.02c3.59-1.47,6.57-3.87,9.73-6.02c9.62-6.54,19.31-12.97,28.76-19.74c0.12-0.09,0.23-0.2,0.39-0.33
		c-0.35-0.29-0.69-0.19-0.99-0.17c-4.41,0.39-8.75-0.33-13.11-0.75c-1.32-0.13-2.65-0.24-3.97-0.25c-0.82-0.01-1.2-0.29-1.04-1.09
		c0.3-1.49-0.52-1.81-1.76-1.96c-1.84-0.22-3.66-0.6-5.8-0.96c1.41-0.81,2.55-1.48,3.77-2.18c-0.76-0.58-1.55-0.23-2.25-0.4
		c-0.71-0.17-1.12-0.4-0.73-1.26c0.4-0.91,0.63-1.89,0.99-2.82c0.27-0.71,0.24-1.15-0.55-1.58c-2.81-1.53-5.56-3.16-8.34-4.75
		c-0.14-0.08-0.26-0.18-0.52-0.36c1.22-0.68,2.52-0.7,3.69-1.12c0.35-0.13,0.72-0.2,1.08-0.28c0.74-0.17,0.64-0.49,0.19-0.91
		c-1.64-1.54-3.25-3.09-4.91-4.61c-1.43-1.32-2.92-2.58-4.36-3.91c-3.66-3.38-7.3-6.8-10.96-10.18c-3.51-3.24-7.05-6.44-10.74-9.81
		c3.32-0.67,6.59-0.52,9.95-1.15c-0.66-0.77-1.19-1.49-1.82-2.12C35.17,67.9,30.06,62.93,25.13,57.8c-3.06-3.18-6.19-6.29-9.26-9.45
		c-0.2-0.2-0.55-0.4-0.47-0.69c0.12-0.42,0.56-0.25,0.87-0.25c1.91-0.01,3.83-0.01,5.93-0.26c-4.69-4.32-9.38-8.65-14.29-13.17
		c3.84-0.24,7.37,0.06,11.27,0.21c-1.6-1.5-2.91-2.74-4.23-3.97c-2.04-1.89-4.14-3.73-6.12-5.67c-0.92-0.9-2.08-1.54-2.8-2.64l0,0
		c2.66,0.12,5.23,0.85,7.83,1.34c8.42,1.59,16.83,3.26,25.23,4.91c7.27,1.43,14.54,2.9,21.81,4.33c6.42,1.26,12.84,2.47,19.27,3.7
		c3.26,0.63,5.82,2.3,7.66,5.08c4.35,6.59,8.69,13.18,13.11,19.72c6.49,9.6,12.81,19.31,19.58,28.72c0.84,1.16,1.61,1.56,3.08,1.23
		c1.72-0.39,3.05-0.97,4.25-2.42c4.6-5.56,9.38-10.98,14.09-16.45c1.49-1.73,3-3.44,4.44-5.21c0.48-0.6,1-0.76,1.71-0.73
		c1,0.05,2,0.04,3,0c7.19-0.28,14.4-0.08,21.59-0.32c4.37-0.14,8.73-0.05,13.09-0.2c1.24-0.04,2.47-0.34,4.12-0.11
		c-2.65,1.49-5.03,2.82-7.41,4.15c3.23,0.19,6.42,0.34,9.63-0.02c0.02,0.13,0.05,0.26,0.07,0.38c-8.09,4.05-16.17,8.11-24.39,12.23
		c1.41,0.93,3.01,1.16,4.32,1.96c-0.14,0.51-0.57,0.62-0.93,0.81c-5.41,2.84-10.82,5.69-16.26,8.49c-0.76,0.39-0.94,0.62-0.43,1.42
		c1.29,2.04,1.89,4.42,2.91,6.6c0.64,1.36,1.23,2.73,2.09,3.96c1.1,1.58,1.22,3.2,0.24,4.9c-1.12,1.95-2.51,3.71-3.78,5.56
		c-0.36,0.53-0.67,0.28-1.02,0.02c-1.33-0.99-2.66-1.96-4.33-3.19c0.48,1.65,0.76,3,1.27,4.26c0.44,1.08,0.1,1.41-0.9,1.72
		c-2.92,0.9-5.39,0.05-7.67-1.73c-1.42-1.11-1.41-1.1-2.4,0.35c-1.24,1.81-2.45,3.66-3.79,5.4c-0.53,0.69-0.43,1.01,0.18,1.47
		c3.12,2.34,6.22,4.71,9.34,7.05c1.63,1.22,1.69,1.26,3.21-0.15c1.72-1.58,3.72-2.27,6-2.28c0.08,0,0.18,0.02,0.25-0.01
		c2.87-1.11,4.44,0.56,5.87,2.66c0.7,1.03,1.48,2,2.29,2.94c0.4,0.47,0.61,0.87,0.24,1.43c-0.11,0.17-0.16,0.38-0.24,0.57
		c-1.13,2.41-0.49,2.16-3.11,1.62c-1.87-0.39-3.72-0.83-5.58-1.23c-0.25-0.06-0.48-0.11-0.64-0.33c0.68-0.73,1.38-1.44,2.02-2.2
		c0.39-0.46,0.75-0.5,1.29-0.24c0.95,0.45,1.86,1.01,3.03,1.13c-0.96-1.45-2.01-2.79-3.11-4.1c-0.11-0.13-0.47-0.07-0.71-0.07
		c-3.01,0.01-5.77,0.64-7.83,3.07c-0.21,0.25-0.53,0.41-0.75,0.66c-0.61,0.68-1.11,0.67-1.87,0.08c-4-3.12-8.07-6.16-12.09-9.26
		c-0.62-0.48-0.88-0.48-1.28,0.23c-1.01,1.82-2.1,3.59-3.17,5.38c-1.29,2.17-2.59,4.34-3.91,6.55c0.85,0.22,1.89,0.19,2.21,0.65
		c0.4,0.58-0.32,1.43-0.48,2.18c-0.02,0.1,0.05,0.22,0.08,0.36c0.35-0.11,0.67-0.2,0.98-0.3c1.81-0.57,2.63,0.07,2.42,1.88
		c-0.03,0.27-0.19,0.56,0.13,0.87c1.36-0.54,2.74-1.11,4.13-1.65c2.68-1.05,5.4-1.93,8.34-1.87c1.54,0.03,2.72,0.62,3.58,1.89
		c1.03,1.51,2.11,2.99,3.12,4.52c0.38,0.58,0.67,0.65,1.25,0.23c1.62-1.16,3.3-2.24,4.95-3.37c0.3-0.21,0.7-0.33,0.91-0.87
		c-0.55,0.12-0.95,0.2-1.35,0.3c-3.01,0.73-3.01,0.73-5.08-1.67c-0.03-0.03-0.05-0.07-0.09-0.09c-0.45-0.34-0.37-0.64,0.01-1
		C152.6,138.88,153.49,137.95,154.39,137.03z M109.48,132.59l-0.01-0.03c0.24,0.3,0.03,0.57-0.1,0.8c-1.23,2.12-1.66,4.17,0.26,6.16
		c0.44,0.46,0.17,0.7-0.36,0.8c-0.81,0.15-1.61,0.33-2.62,0.54c1.39,1.04,2.59,1.94,3.91,2.93c-1.3,0.44-2.53,0.22-3.75,0.72
		c1.72,1.26,3.31,2.42,4.99,3.65c-1.11,0.5-2.22,0.44-3.22,1.02c0.45,0.41,0.79,0.77,1.19,1.07c0.8,0.61,1.33,1.8,2.72,1.18
		c0.96-0.43,2.15-0.27,2.94-1.18c0.43-0.49,1.03-0.62,1.7-0.64c1.58-0.05,3.06,0.29,4.45,1.02c4.22,2.25,8.52,4.35,12.84,6.4
		c0.61,0.29,0.99,0.67,1.24,1.29c0.41,1.06,0.88,2.08,1.33,3.12c0.22-0.62,0.18-1.15,0.22-1.68c0.2-2.68-0.07-5.13-2.98-6.37
		c-0.24-0.1-0.59-0.29-0.41-0.66c0.17-0.34,0.52-0.16,0.78-0.13c1.79,0.23,3.47,0.61,4.75,2.11c0.62,0.73,1.33,1.49,2.59,2.02
		c-0.9-2.31-1.68-4.32-2.45-6.32c-0.19-0.49-0.64-0.48-1.03-0.57c-1.14-0.27-2.28-0.54-3.42-0.81c1.25-0.72,2.49-1.96,3.69-1.66
		c1.45,0.37,2.99,1.16,3.9,2.58c0.55-1,0.23-1.79-0.45-2.6c-0.72-0.86-1.36-1.8-1.9-2.78c-0.4-0.72-0.79-0.75-1.49-0.49
		c-2.66,0.97-5.36,1.82-8,2.83c-0.94,0.36-1.48,0.18-2.13-0.53c-2-2.18-4.04-4.32-6.13-6.41c-0.63-0.63-0.5-0.96,0.09-1.44
		c2.27-1.82,4.11-4.04,5.41-6.63c0.81-1.6,1.6-3.19,2.66-4.64c1.03-1.41,2-2.87,3.01-4.3c1.94-2.76,3.83-5.56,5.84-8.26
		c1.72-2.31,1.22-2.1,3.46-0.57c0.93,0.64,1.8,1.36,2.76,1.93c1.39,0.82,2.87,1.03,4.4,0.24c-0.31-0.59-1.04-0.78-1.13-1.49
		c-0.16-1.32-0.34-2.64-0.54-3.96c-0.07-0.51,0.08-0.65,0.6-0.59c1.32,0.15,2.65,0.28,3.98,0.36c0.67,0.04,0.9,0.3,1,0.96
		c0.13,0.87,0.07,1.8,0.6,2.93c0.95-1.93,1.76-3.64,2.63-5.32c0.45-0.88,0.37-1.66-0.18-2.45c-1.85-2.66-3.12-5.59-3.92-8.72
		c-0.27-1.06-0.88-1.84-1.81-2.44c-2.48-1.6-4.97-3.2-7.4-4.89c-1.26-0.88-2.5-1.08-3.99-0.77c-6.19,1.27-12.41,2.44-18.61,3.7
		c-0.87,0.18-1.32-0.01-1.83-0.72c-4.1-5.77-8.18-11.55-12.1-17.44c-7.22-10.84-14.49-21.66-21.69-32.52
		c-1.61-2.43-3.69-3.94-6.58-4.5c-19.24-3.75-38.46-7.55-57.69-11.33c-2.76-0.54-5.53-1.05-8.29-1.58
		c-0.04,0.07-0.07,0.14-0.11,0.21c2.05,1.87,4.1,3.73,6.15,5.6c1.85,1.76,3.71,3.52,5.68,5.39c-3.85-0.16-7.49-0.31-11.46-0.47
		c4.93,4.55,9.55,8.81,14.18,13.07c-0.05,0.09-0.09,0.18-0.14,0.28c-2.39,0-4.78,0-7.5,0c9.07,9.22,17.9,18.2,26.9,27.34
		c-3.42,0.33-6.53,0.63-9.94,0.96c10.46,9.63,20.71,19.05,31.09,28.6c-1.54,0.42-2.9,0.8-4.5,1.24c1.44,0.83,2.66,1.53,3.87,2.24
		c0.89,0.52,2.16,0.87,2.56,1.65c0.41,0.81-0.43,1.94-0.82,2.89c-0.38,0.93-0.03,1.11,0.78,1.21c1.95,0.24,3.9,0.53,6.13,0.85
		c-1.02,0.73-1.78,1.28-2.69,1.93c1.08,0.14,1.9,0.25,2.81,0.37c-0.41,0.6-1,0.82-1.25,1.44c1.33,0.29,1.01,0.98,0.32,1.74
		c3.63,0.33,7.1,0.7,10.59,0.94c2.78,0.19,5.53,0.17,8.24-0.88c2.12-0.82,4.4-1.22,6.61-1.8c-1.17,2.23-3.02,3.83-5,5.3
		c-12.23,9.09-25.04,17.36-37.61,25.95c-3.54,2.42-7.59,3.75-11.88,4.29c-0.96,0.12-1.91,0.23-3.04,0.36
		c1.15,1.3,2.17,2.45,3.2,3.59c2.24,2.49,5.03,3.59,8.37,3.34c1.83-0.14,3.66-0.2,5.48-0.39c1.01-0.11,1.19,0.14,0.94,1.12
		c-0.62,2.44-1.13,4.9-1.73,7.59c6.56-2.38,12.87-4.67,19.39-7.04c-0.73,3.48-1.41,6.73-2.13,10.12c5.92-2.46,11.62-4.88,17.23-7.53
		c0.77-0.36,1.05-0.29,1.25,0.55c0.34,1.41,0.84,2.79,1.16,4.21c0.2,0.9,0.51,0.91,1.24,0.51c3.18-1.74,6.38-3.41,9.57-5.12
		c2.77-1.48,2.76-1.49,5.17,0.63c1.07,0.95,1.13,0.97,1.69-0.41c1.7-4.14,2.44-8.46,2.24-12.93c-0.1-2.26-0.33-2.47-2.34-1.49
		c-1.84,0.9-3.19,0.75-4.72-0.69c-1.82-1.73-3.91-3.17-6.07-4.89c1.32-0.14,2.37-0.25,3.65-0.38c-1.75-1.52-3.34-2.89-5.12-4.43
		c1.42-0.21,2.61-0.38,3.98-0.58c-0.59-0.7-1.04-1.23-1.5-1.76c-0.47-0.54-0.93-1.09-1.47-1.71c1.35-0.31,2.55-0.07,3.72-0.48
		c-0.19-0.32-0.31-0.64-0.53-0.88c-0.7-0.73-0.44-1.23,0.27-1.79C107.3,134.53,108.38,133.54,109.48,132.59z M180.05,68.04
		c-0.96,0-1.61-0.01-2.27,0c-9.65,0.15-19.31,0.3-28.96,0.43c-0.86,0.01-1.44,0.28-2.01,0.95c-5.5,6.47-11.03,12.9-16.55,19.35
		c-0.2,0.23-0.54,0.4-0.46,0.84c3.53-0.61,7.05-1.17,10.56-1.84c1.05-0.2,1.97-0.02,2.89,0.43c2.4,1.17,4.7,2.5,6.9,4
		c0.64,0.44,1.11,0.45,1.79,0.09c4.51-2.41,9.04-4.78,13.56-7.17c0.26-0.14,0.69-0.13,0.69-0.61c-1.48-0.58-2.96-1.17-4.68-1.84
		c6.82-3.45,13.39-6.78,19.96-10.1c-0.02-0.08-0.04-0.16-0.07-0.25c-2.93,0-5.86,0-9.1,0C174.99,70.82,177.38,69.5,180.05,68.04z" />
		<path class="det_st2" d="M154.39,137.03c-0.9,0.92-1.79,1.85-2.72,2.75c-0.38,0.37-0.46,0.66-0.01,1c0.03,0.02,0.06,0.06,0.09,0.09
		c2.07,2.4,2.07,2.4,5.08,1.67c0.4-0.1,0.8-0.18,1.35-0.3c-0.2,0.54-0.61,0.67-0.91,0.87c-1.65,1.13-3.33,2.21-4.95,3.37
		c-0.58,0.42-0.87,0.34-1.25-0.23c-1.01-1.53-2.09-3.01-3.12-4.52c-0.87-1.27-2.04-1.86-3.58-1.89c-2.94-0.06-5.66,0.82-8.34,1.87
		c-1.39,0.54-2.77,1.11-4.13,1.65c-0.32-0.3-0.16-0.6-0.13-0.87c0.21-1.81-0.61-2.45-2.42-1.88c-0.31,0.1-0.63,0.19-0.98,0.3
		c-0.04-0.15-0.1-0.26-0.08-0.36c0.16-0.75,0.88-1.6,0.48-2.18c-0.32-0.46-1.36-0.43-2.21-0.65c1.32-2.21,2.61-4.38,3.91-6.55
		c1.06-1.79,2.16-3.56,3.17-5.38c0.4-0.71,0.66-0.71,1.28-0.23c4.02,3.11,8.09,6.14,12.09,9.26c0.76,0.59,1.26,0.6,1.87-0.08
		c0.22-0.25,0.54-0.41,0.75-0.66c2.06-2.43,4.82-3.06,7.83-3.07c0.24,0,0.6-0.06,0.71,0.07c1.1,1.31,2.15,2.65,3.11,4.1
		c-1.16-0.11-2.08-0.67-3.03-1.13c-0.55-0.26-0.9-0.22-1.29,0.24c-0.65,0.76-1.35,1.47-2.02,2.2
		C154.66,136.62,154.46,136.76,154.39,137.03z" />
		<path class="det_st1"
			d="M6.02,21.9c-0.03-0.02-0.07-0.04-0.1-0.06C5.96,21.86,5.99,21.88,6.02,21.9C6.02,21.9,6.02,21.9,6.02,21.9z" />
		<path class="det_st3" d="M19.28,31.39c-2.05-1.87-4.1-3.73-6.15-5.6c0.04-0.07,0.07-0.14,0.11-0.21c2.76,0.53,5.53,1.04,8.29,1.58
		c19.23,3.78,38.45,7.58,57.69,11.33c2.89,0.56,4.97,2.07,6.58,4.5c7.2,10.86,14.46,21.68,21.69,32.52
		c3.92,5.89,8.01,11.67,12.1,17.44c0.51,0.72,0.96,0.9,1.83,0.72c6.2-1.26,12.41-2.43,18.61-3.7c1.5-0.31,2.73-0.1,3.99,0.77
		c2.42,1.69,4.91,3.28,7.4,4.89c0.92,0.6,1.54,1.38,1.81,2.44c0.8,3.13,2.08,6.06,3.92,8.72c0.55,0.8,0.63,1.57,0.18,2.45
		c-0.86,1.68-1.68,3.39-2.63,5.32c-0.54-1.13-0.47-2.06-0.6-2.93c-0.1-0.66-0.33-0.93-1-0.96c-1.33-0.07-2.66-0.2-3.98-0.36
		c-0.52-0.06-0.67,0.09-0.6,0.59c0.19,1.32,0.38,2.64,0.54,3.96c0.09,0.71,0.82,0.89,1.13,1.49c-1.53,0.79-3.01,0.58-4.4-0.24
		c-0.96-0.57-1.83-1.29-2.76-1.93c-2.24-1.54-1.74-1.75-3.46,0.57c-2.01,2.7-3.9,5.5-5.84,8.26c-1.01,1.43-1.97,2.89-3.01,4.3
		c-1.06,1.45-1.86,3.03-2.66,4.64c-1.3,2.59-3.14,4.81-5.41,6.63c-0.6,0.48-0.72,0.81-0.09,1.44c2.09,2.09,4.13,4.23,6.13,6.41
		c0.65,0.71,1.18,0.89,2.13,0.53c2.64-1.01,5.34-1.86,8-2.83c0.7-0.26,1.09-0.23,1.49,0.49c0.54,0.98,1.18,1.92,1.9,2.78
		c0.68,0.81,1,1.6,0.45,2.6c-0.91-1.42-2.46-2.21-3.9-2.58c-1.2-0.31-2.45,0.93-3.69,1.66c1.14,0.27,2.28,0.53,3.42,0.81
		c0.39,0.09,0.84,0.08,1.03,0.57c0.77,2.01,1.55,4.01,2.45,6.32c-1.26-0.54-1.98-1.29-2.59-2.02c-1.27-1.51-2.96-1.89-4.75-2.11
		c-0.27-0.03-0.62-0.21-0.78,0.13c-0.18,0.36,0.18,0.56,0.41,0.66c2.91,1.24,3.18,3.68,2.98,6.37c-0.04,0.53-0.01,1.06-0.22,1.68
		c-0.45-1.04-0.92-2.07-1.33-3.12c-0.24-0.62-0.62-1-1.24-1.29c-4.32-2.05-8.62-4.16-12.84-6.4c-1.39-0.74-2.87-1.08-4.45-1.02
		c-0.66,0.02-1.27,0.15-1.7,0.64c-0.79,0.91-1.98,0.76-2.94,1.18c-1.39,0.62-1.92-0.57-2.72-1.18c-0.39-0.3-0.74-0.66-1.19-1.07
		c1-0.58,2.11-0.52,3.22-1.02c-1.68-1.23-3.28-2.4-4.99-3.65c1.22-0.49,2.45-0.28,3.75-0.72c-1.31-0.98-2.52-1.89-3.91-2.93
		c1.01-0.21,1.81-0.39,2.62-0.54c0.53-0.1,0.8-0.34,0.36-0.8c-1.92-1.99-1.49-4.05-0.26-6.16c0.13-0.22,0.34-0.5,0.1-0.8
		c0.05,0,0.1,0.01,0.14,0.01c-0.01-0.01-0.03-0.03-0.04-0.03c-0.03,0.01-0.06,0.03-0.09,0.04c-1.1,0.95-2.17,1.93-3.32,2.83
		c-0.71,0.56-0.97,1.05-0.27,1.79c0.22,0.23,0.34,0.56,0.53,0.88c-1.17,0.4-2.36,0.16-3.72,0.48c0.54,0.62,1,1.17,1.47,1.71
		c0.45,0.53,0.9,1.06,1.5,1.76c-1.36,0.2-2.55,0.37-3.98,0.58c1.78,1.54,3.37,2.92,5.12,4.43c-1.28,0.13-2.33,0.24-3.65,0.38
		c2.17,1.72,4.26,3.16,6.07,4.89c1.52,1.45,2.87,1.6,4.72,0.69c2-0.98,2.24-0.77,2.34,1.49c0.19,4.47-0.54,8.79-2.24,12.93
		c-0.57,1.38-0.62,1.36-1.69,0.41c-2.4-2.12-2.4-2.11-5.17-0.63c-3.19,1.71-6.4,3.38-9.57,5.12c-0.74,0.4-1.04,0.4-1.24-0.51
		c-0.32-1.42-0.81-2.8-1.16-4.21c-0.2-0.83-0.48-0.91-1.25-0.55c-5.6,2.64-11.31,5.07-17.23,7.53c0.71-3.39,1.4-6.64,2.13-10.12
		c-6.52,2.37-12.83,4.66-19.39,7.04c0.6-2.68,1.11-5.15,1.73-7.59c0.25-0.98,0.08-1.23-0.94-1.12c-1.82,0.19-3.65,0.25-5.48,0.39
		c-3.34,0.25-6.13-0.84-8.37-3.34c-1.03-1.14-2.04-2.3-3.2-3.59c1.12-0.13,2.08-0.24,3.04-0.36c4.28-0.54,8.33-1.86,11.88-4.29
		c12.58-8.59,25.38-16.86,37.61-25.95c1.98-1.47,3.83-3.07,5-5.3c-1.1-2.47-2.61-4.7-3.94-7.04c-2.6-4.58-5.28-9.12-7.93-13.67
		c-0.12-0.21-0.4-0.4-0.21-0.65c0.16-0.22,0.46-0.11,0.7-0.07c1.83,0.3,3.66,0.61,5.5,0.9c0.4,0.06,0.93,0.21,1.19-0.1
		c0.31-0.37-0.12-0.78-0.32-1.11c-3.25-5.4-6.54-10.78-9.76-16.2c-0.88-1.48-2.01-2.84-2.47-4.55l0.01-0.01
		c0.35,0.13,0.72,0.23,1.03,0.41c2.8,1.62,5.59,3.26,8.4,4.88c0.76,0.44,1.48,0.97,2.63,1.25c-4.94-8-9.73-15.78-14.53-23.56
		c0.09-0.07,0.17-0.13,0.26-0.2c3,2.06,5.98,4.17,9.02,6.16c2.32,1.52,4.45,3.32,6.94,4.58c0.01,0.03,0.02,0.06,0.04,0.08
		c0.01,0.01,0.04,0.01,0.06,0.02c-0.03-0.03-0.07-0.07-0.1-0.1c-0.03-0.48-0.33-0.83-0.57-1.22c-4.23-7-8.47-13.98-12.67-21
		c-2.5-4.18-6.06-6.86-10.85-7.82c-3.28-0.66-6.57-1.27-9.86-1.89c-5.4-1.02-10.81-2.03-16.21-3.03c-6.66-1.24-13.32-2.51-20-3.68
		C24.49,32.28,21.93,31.55,19.28,31.39z M147.99,113.11c0.03,0.02,0.06,0.03,0.08,0.05c-0.03-0.01-0.06-0.02-0.1-0.03
		c0-0.41,0.03-0.82,0.01-1.23c-0.08-1.85-0.43-2.13-2.49-1.87C146.35,111.11,147.03,112.21,147.99,113.11z M154.98,111.5
		c0.12-0.07,0.24-0.14,0.37-0.21c0.41-0.77,0.78-1.56,1.23-2.3c0.4-0.65,0.26-1.12-0.08-1.8c-1.28-2.54-3.04-3.62-5.82-2.39
		c-0.37,0.16-0.81,0.17-1.21,0.26c-0.21,0.04-0.47,0.13-0.37,0.38c0.37,0.91-0.44,0.74-0.8,0.83c-0.72,0.18-1.48,0.21-2.21,0.35
		c-1.45,0.26-2.93,0.35-4.69,0.89c3.99,0.64,7.59,1.25,11.19,1.79C153.84,109.5,155.1,109.55,154.98,111.5z M141.92,98.4
		c0.37,1.46,0.68,2.66,0.98,3.86c0.08,0.3,0.17,0.56,0.56,0.53c1.37-0.12,2.74-0.23,4.41-0.37C145.78,101,143.96,99.77,141.92,98.4z
		" />
		<path class="det_st4" d="M83.5,77.89c0.46,1.71,1.59,3.07,2.47,4.55c3.22,5.42,6.51,10.79,9.76,16.2c0.2,0.33,0.63,0.74,0.32,1.11
		c-0.26,0.32-0.79,0.16-1.19,0.1c-1.83-0.28-3.67-0.59-5.5-0.9c-0.25-0.04-0.54-0.14-0.7,0.07c-0.19,0.25,0.09,0.44,0.21,0.65
		c2.65,4.55,5.32,9.09,7.93,13.67c1.33,2.34,2.84,4.57,3.94,7.04c-2.21,0.59-4.49,0.99-6.61,1.8c-2.71,1.05-5.46,1.07-8.24,0.88
		c-3.48-0.24-6.96-0.61-10.59-0.94c0.69-0.76,1.01-1.45-0.32-1.74c0.25-0.62,0.84-0.84,1.25-1.44c-0.91-0.12-1.73-0.23-2.81-0.37
		c0.91-0.65,1.67-1.2,2.69-1.93c-2.23-0.31-4.18-0.61-6.13-0.85c-0.81-0.1-1.16-0.28-0.78-1.21c0.39-0.94,1.23-2.08,0.82-2.89
		c-0.4-0.78-1.67-1.13-2.56-1.65c-1.21-0.71-2.43-1.4-3.87-2.24c1.6-0.44,2.96-0.82,4.5-1.24C57.71,97.01,47.46,87.58,37,77.96
		c3.41-0.33,6.52-0.63,9.94-0.96c-9-9.15-17.83-18.13-26.9-27.34c2.73,0,5.11,0,7.5,0c0.05-0.09,0.09-0.18,0.14-0.28
		c-4.62-4.26-9.25-8.53-14.18-13.07c3.97,0.16,7.61,0.32,11.46,0.47c-1.98-1.87-3.83-3.63-5.68-5.39c2.65,0.16,5.21,0.89,7.82,1.34
		c6.68,1.17,13.33,2.44,20,3.68c5.4,1.01,10.81,2.02,16.21,3.03c3.29,0.62,6.58,1.23,9.86,1.89c4.79,0.96,8.35,3.64,10.85,7.82
		c4.2,7.02,8.44,14,12.67,21c0.24,0.39,0.54,0.74,0.57,1.22l0,0c-2.49-1.26-4.62-3.06-6.94-4.58c-3.05-1.99-6.02-4.1-9.02-6.16
		c-0.09,0.07-0.17,0.13-0.26,0.2c4.8,7.78,9.6,15.56,14.53,23.56c-1.14-0.28-1.87-0.81-2.63-1.25c-2.81-1.61-5.59-3.26-8.4-4.88
		C84.22,78.1,83.85,78.01,83.5,77.89c-0.03-0.04-0.06-0.07-0.1-0.11C83.43,77.81,83.47,77.85,83.5,77.89z" />
		<path class="det_st5" d="M180.05,68.04c-2.67,1.47-5.06,2.78-7.74,4.26c3.24,0,6.17,0,9.1,0c0.02,0.08,0.04,0.16,0.07,0.25
		c-6.57,3.32-13.14,6.65-19.96,10.1c1.72,0.68,3.2,1.26,4.68,1.84c0.01,0.48-0.43,0.48-0.69,0.61c-4.52,2.4-9.05,4.76-13.56,7.17
		c-0.67,0.36-1.14,0.35-1.79-0.09c-2.2-1.5-4.51-2.83-6.9-4c-0.92-0.45-1.83-0.63-2.89-0.43c-3.51,0.66-7.04,1.23-10.56,1.84
		c-0.09-0.43,0.26-0.61,0.46-0.84c5.52-6.45,11.05-12.89,16.55-19.35c0.57-0.67,1.15-0.94,2.01-0.95
		c9.65-0.12,19.31-0.28,28.96-0.43C178.43,68.03,179.09,68.04,180.05,68.04z" />
		<path class="det_st6" d="M154.98,111.5c0.12-1.95-1.14-2-2.4-2.19c-3.61-0.54-7.2-1.15-11.19-1.79c1.76-0.54,3.25-0.63,4.69-0.89
		c0.73-0.13,1.49-0.16,2.21-0.35c0.36-0.09,1.17,0.08,0.8-0.83c-0.1-0.25,0.17-0.33,0.37-0.38c0.41-0.09,0.84-0.1,1.21-0.26
		c2.78-1.23,4.55-0.15,5.82,2.39c0.34,0.68,0.49,1.14,0.08,1.8c-0.46,0.74-0.83,1.53-1.23,2.3
		C155.23,111.37,155.11,111.44,154.98,111.5z" />
		<path class="det_st7" d="M141.92,98.4c2.04,1.38,3.86,2.6,5.95,4.02c-1.67,0.14-3.04,0.25-4.41,0.37c-0.39,0.03-0.48-0.23-0.56-0.53
		C142.6,101.05,142.3,99.86,141.92,98.4z" />
		<path class="det_st8" d="M147.99,113.11c-0.96-0.9-1.65-2.01-2.49-3.08c2.06-0.26,2.41,0.02,2.49,1.87c0.02,0.41,0,0.82-0.01,1.23
		L147.99,113.11z" />
		<path class="det_st4" d="M97.25,71.38c0.03,0.03,0.07,0.07,0.1,0.1c-0.02-0.01-0.05,0-0.06-0.02C97.27,71.45,97.26,71.41,97.25,71.38
		C97.25,71.38,97.25,71.38,97.25,71.38z" />
		<path class="det_st8" d="M147.98,113.13c0.03,0.01,0.06,0.02,0.1,0.03c-0.03-0.02-0.06-0.03-0.08-0.05
		C147.99,113.11,147.98,113.13,147.98,113.13z" />
		<path class="det_st1" d="M109.48,132.59c0.03-0.02,0.06-0.03,0.09-0.04c0.01,0,0.03,0.02,0.04,0.03c-0.05,0-0.1-0.01-0.14-0.01
		C109.47,132.57,109.48,132.59,109.48,132.59z" />
		<path class="det_st3" d="M83.5,77.89c-0.03-0.04-0.07-0.07-0.1-0.11C83.43,77.81,83.47,77.84,83.5,77.89
		C83.51,77.88,83.5,77.89,83.5,77.89z" />
	</g>
</svg>