<svg version="1.1" id="Layer_1" xmlns="http://www.w3.org/2000/svg" x="0" y="0" viewBox="0 0 200 200" xml:space="preserve"><style>.det_st1{fill:#fdfaf9}.det_st3{fill:#eb2327}.det_st4{fill:#c0282d}.det_st8{fill:#f9a23e}</style><path d="M196.3 64l-7.5 4c3.7.3 7 0 10.5 0-9 5-18.2 9.3-27.4 14.1 1.4.9 3 1 4.4 2l-3.8 2.1-15 7.9c-.8.4-1.1.8-.7 1.7 1.4 3.2 2.6 6.5 4.5 9.5 1.3 2.1 1 4.4-.4 6.4l-4.4 6.4c-.4.5-.7.6-1.2.2l-1.3-.9-.2.2c.3 1.9.3 1.8-1.6 2.5a9.2 9.2 0 01-9-1c-.7-.6-1.2-.5-1.6.3l-2.2 3c-.5.7-.3 1 .3 1.5l8 6.1c.5.3.7.3 1 0 2.1-2.5 5-2.6 8-2.9h.3c2.7-1 4.2.4 5.5 2.4 1.1 1.7 2.5 3.2 3.7 4.7.3.4.6.8.3 1.4l-1.9 4c-.3.7-.7.8-1.4.7l-3.2-.7 3.2 3.3c.6.6.6 1 0 1.4a1739 1739 0 00-11.4 7.7c-.6.4-1 .4-1.4-.3l-4.7-6.7-.9-1c1.1 3.8 2 7.5 3.7 11-.5.2-1 .1-1.6 0-1.2-.3-1.4-.1-1.1 1.2l1 4.6c.3 1 0 1.1-.9.9-1.5-.5-3-.7-4.6-1.2-.8-.2-1 0-1.2.7l-1 4.4c-.2.4 0 1-.6 1.1-.5.2-.7-.4-1-.7-4.6-4.7-10-8.4-16-11l-.7-.3c0 3.2-.4 6.2-1 9.2-.8 3.6-2.2 6.9-4.6 9.7-.7.8-1.2.9-2 .1s-1.8-1.5-2.6-2.4c-.6-.6-1-.6-1.7-.2L96 178c-1.4.7-1.4.7-1.8-.8l-1.2-4c-.2-.7-.5-.8-1.1-.5-5.8 2.6-11.9 4.6-17.8 6.9-1 .4-1.3.2-1.3-1-.2-2.3.3-4.6.8-6.9.2-.8 0-1-.8-.6-5.5 2-11.3 3.5-17 5.3-.8.2-1.4.5-1-1L56 168c.2-.8 0-.9-.8-.8-3.7.4-7-.6-9.8-3-4-3.7-7.2-8.1-11.2-12 .7-.4 1.3-.3 1.8-.3 4.3.3 8.5.6 12.8-.4 3.6-.9 6.8-2.6 9.8-4.7 6-4 12-8 17.8-12.2l10.8-7.4-5.9-.5-9.2-.8c-.6 0-.7-.4-.6-1 .1-1.3-.1-2-1.8-2.1-2.9-.3-5.7-1-9-1.5l2.7-1.6c.3-.2.7-.2.6-.5 0-1.7 1-3.1 1.4-4.6.2-.8.1-1.2-.6-1.6l-9.9-5.6c-.4-.2-1-.5-1.4-1l6.6-1.8c-.7-1-1.7-1.7-2.6-2.5-2-2-4-3.7-6-5.5l-15-14-7.7-7c-.2-.1-.5-.3-.4-.6.1-.4.5-.3.8-.3 3-.1 6-.6 9.2-.8-8.9-9.5-18.2-18.4-27.3-28 2.4 0 4.5.1 6.8-.4l-14.3-13c3.6-.3 7-.5 10.6 0l.3-.4-3-2.6-9-8.4-1.1-1c-.3-.2-.7-.3-.6-.7.2-.4.6-.2 1-.2l5 1 21.8 4.2L55 29.7l19.7 3.9 6.4 1.2c3.6.6 6.2 2.8 8.2 5.8l21.2 31.8c3.5 5.2 7 10.4 10.7 15.5 1.3 1.8 3 2 4.5.3 1.9-2 3.6-4.1 5.4-6.2l8.1-9.5 5.5-6.5c.9-1 1.8-1.7 3.3-1.6 4.4.1 8.9.2 13.4 0 5.7-.3 11.5 0 17.3-.3 3.8-.2 7.6 0 11.5-.2 2-.2 4-.2 6 0zM6 21.8c.7 1.1 2 1.7 2.8 2.6l6.1 5.7 4.3 4c-4-.2-7.5-.5-11.3-.2L22.2 47c-2.1.3-4 .3-6 .3-.2 0-.7-.2-.8.3 0 .2.3.4.5.6l9.2 9.5 15 15.1 1.9 2.2c-3.4.6-6.6.4-10 1.1L42.9 86l11 10.2 4.3 4 5 4.5c.4.5.5.8-.3 1l-1 .2c-1.2.4-2.5.5-3.7 1.1l.5.4 8.3 4.8c.8.4.9.8.6 1.5l-1 2.9c-.4.8 0 1 .7 1.2.7.2 1.5-.2 2.3.4l-3.8 2.2 5.8 1c1.2.1 2 .4 1.8 2-.2.7.2 1 1 1l4 .3c4.3.4 8.7 1 13 .7.4 0 .7-.1 1 .2l-.3.3c-9.5 6.8-19.2 13.2-28.8 19.7-3.1 2.2-6.1 4.6-9.7 6a27.7 27.7 0 01-14.3 2c-.2 0-.6 0-.8.2-.2.4.3.6.5.8l6 6.6a12.5 12.5 0 0011.7 4.2c1.4-.2 1.6 0 1.4 1.3-.2 1.2-.5 2.3-.6 3.5-.2 1.3-.8 2.6-.6 4 6.5-1.7 12.8-3.7 19.3-6l-.2 1c-.5 2.4-1.4 4.8-1.4 7.4 0 1 .2 1 1 .7 6-2.2 11.8-4.3 17.5-7 .6-.2.9-.2 1 .5l1.2 4.2c.3 1 .6 1.2 1.5.7l12.5-6.7c.6-.3 1-.3 1.6.2.8.9 1.8 1.7 2.7 2.5.3.3.6.5 1 0 .9-1.3 1.9-2.5 2.4-4 1.3-3.6 2.1-7.3 2.1-11.2 0-1.5 0-3-.4-4.8 7 3.3 13.8 6.5 19 12.3.6-1.8 1-3.3 1.3-4.8.2-.7.4-1 1.1-.7 1.3.3 2.5.5 3.8 1 1 .3 1-.2.9-1l-1.1-4.7c-.2-.7 0-1 .8-.9 1.5.3 1.5.3 1-1.2l-2.8-8.4c0-.3-.5-.6 0-1 1.3-.6 3.2-.1 4 1l4.3 6.2c.4.6.6.6 1.2.2l8.6-5.8c.5-.3.5-.5 0-.9-2-2-4-4.2-6.3-6 0-.2.3-.4.5-.5.2.3.4.3.6.4l5.6 1.2c2.6.5 2 .8 3.1-1.6l.3-.6c.3-.5.1-1-.3-1.4l-2.3-3c-1.4-2-3-3.7-5.8-2.6h-.3c-2.3 0-4.3.7-6 2.3-1.5 1.4-1.6 1.3-3.2.1l-9.3-7c-.6-.5-.7-.8-.2-1.5l3.8-5.4c1-1.4 1-1.4 2.4-.3 2.3 1.7 4.7 2.6 7.7 1.7 1-.3 1.3-.7.9-1.7-.6-1.3-.8-2.6-1.3-4.3l4.3 3.2c.4.3.7.5 1 0 1.3-1.9 2.7-3.6 3.8-5.6 1-1.7.9-3.3-.2-4.9-.9-1.2-1.5-2.6-2.1-4-1-2.1-1.6-4.5-3-6.5-.4-.9-.3-1 .5-1.5l16.3-8.5c.3-.1.8-.3.9-.8-1.3-.8-3-1-4.3-2L192.2 70l-.1-.3c-3.2.3-6.4.2-9.6 0l7.4-4.2c-1.7-.2-3 .1-4.1.1-4.4.2-8.8.1-13.1.2-7.2.3-14.4 0-21.6.4h-3c-.7 0-1.3 0-1.7.7l-4.5 5.2c-4.7 5.5-9.5 10.9-14 16.5a7 7 0 01-4.3 2.4c-1.5.3-2.3-.1-3.1-1.3-6.8-9.4-13-19-19.6-28.7L88 41.3a11.3 11.3 0 00-7.7-5l-19.3-3.8L39 28.2l-25.3-5C11.2 22.9 8.7 22 6 22z" fill="#d5d4d2"/><path class="det_st1" d="M154.4 137c2.3 1.8 4.2 4 6.4 6 .4.4.3.6-.2 1l-8.5 5.7c-.6.4-.8.4-1.2-.2l-4.4-6.2a3.2 3.2 0 00-3.8-1c-.6.3-.2.7 0 1l2.7 8.4c.5 1.5.5 1.5-1 1.2-.8-.1-1 .1-.8.9l1 4.7c.2.8.2 1.2-.8 1-1.3-.5-2.5-.7-3.8-1-.7-.2-1 0-1 .6-.4 1.6-.9 3-1.3 4.9-5.3-5.8-12-9-19-12.3.4 1.8.3 3.3.3 4.8 0 3.8-.8 7.5-2 11.2-.6 1.5-1.6 2.7-2.6 4-.3.5-.6.3-1 0l-2.6-2.5c-.5-.5-1-.6-1.6-.2l-12.5 6.6c-.9.5-1.2.4-1.5-.6l-1.1-4.2c-.2-.7-.5-.7-1-.5-5.8 2.6-11.7 4.8-17.6 7-.8.3-1 .2-1-.7 0-2.6.9-5 1.4-7.5l.1-1a194 194 0 01-19.2 6c-.2-1.3.4-2.6.6-4l.6-3.4c.2-1.4 0-1.6-1.4-1.3a12.5 12.5 0 01-11.7-4.2l-6-6.6c-.2-.3-.7-.4-.5-.8.2-.3.6-.2.8-.1 5 .6 9.7-.2 14.3-2 3.6-1.5 6.5-4 9.7-6 9.6-6.6 19.3-13 28.8-19.8l.4-.4c-.4-.2-.7-.1-1-.1-4.4.4-8.8-.4-13.1-.8a44 44 0 00-4-.2c-.8 0-1.2-.3-1-1.1.2-1.5-.6-1.8-1.8-2-1.9-.2-3.7-.6-5.8-1l3.8-2.1c-.8-.6-1.6-.2-2.3-.4-.7-.2-1.1-.4-.7-1.3l1-2.8c.2-.7.2-1.1-.6-1.6l-8.3-4.7-.5-.4c1.2-.7 2.5-.7 3.6-1.1l1.1-.3c.8-.2.7-.5.2-.9l-4.9-4.6-4.4-4-11-10c-3.4-3.3-7-6.5-10.7-9.9 3.4-.7 6.6-.5 10-1.2l-1.8-2c-5-5.1-10.1-10-15-15.2l-9.3-9.4c-.2-.3-.6-.5-.5-.7.1-.5.6-.3.9-.3 1.9 0 3.8 0 5.9-.3L7.9 34c3.8-.3 7.4 0 11.3.2l-4.3-4-6-5.7C7.8 23.6 6.6 23 6 22c2.7.1 5.3.9 7.9 1.3l25.2 5 21.8 4.3 19.3 3.7c3.2.6 5.8 2.3 7.6 5L101 61c6.5 9.6 12.8 19.3 19.6 28.7.9 1.2 1.6 1.6 3.1 1.2a7 7 0 004.3-2.4c4.5-5.5 9.3-11 14-16.4l4.5-5.2c.5-.6 1-.8 1.7-.8h3c7.2-.2 14.4 0 21.6-.3 4.4-.1 8.7 0 13-.2 1.3 0 2.5-.3 4.2-.1l-7.4 4.2c3.2.1 6.4.3 9.6 0v.3l-24.3 12.2c1.4 1 3 1.2 4.3 2-.1.5-.6.6-1 .8-5.3 2.9-10.7 5.7-16.2 8.5-.7.4-1 .6-.4 1.4 1.3 2 1.9 4.4 2.9 6.6.6 1.4 1.2 2.7 2 4a4.2 4.2 0 01.3 4.9c-1 2-2.5 3.7-3.7 5.5-.4.6-.7.3-1 0l-4.4-3.1c.5 1.6.8 3 1.3 4.2.4 1.1 0 1.4-1 1.8-2.9.9-5.3 0-7.6-1.8-1.4-1-1.4-1-2.4.4l-3.8 5.4c-.5.7-.4 1 .2 1.4l9.3 7c1.7 1.3 1.7 1.4 3.2 0a8.6 8.6 0 016-2.3h.3c2.9-1.2 4.4.5 5.9 2.6.7 1 1.4 2 2.3 3 .4.4.6.8.2 1.4l-.2.5c-1.2 2.5-.5 2.2-3.2 1.7l-5.5-1.3c-.3 0-.5 0-.7-.3l2-2.2c.4-.5.8-.5 1.3-.2 1 .4 1.9 1 3 1.1a45 45 0 00-3-4.1c-.2-.1-.5 0-.8 0-3 0-5.7.6-7.8 3l-.7.7c-.7.6-1.2.6-2 0l-12-9.2c-.6-.5-.9-.5-1.3.2-1 1.8-2 3.6-3.2 5.4-1.2 2.2-2.5 4.3-3.9 6.5.9.3 2 .2 2.2.7.5.6-.3 1.4-.4 2.2v.3c.4 0 .7-.2 1-.3 1.8-.5 2.7.1 2.5 2 0 .2-.2.5 0 .8l4.2-1.7c2.7-1 5.4-1.9 8.3-1.8 1.6 0 2.8.6 3.6 1.9l3.2 4.5c.3.5.6.6 1.2.2l5-3.4c.2-.2.6-.3.9-.8-.6 0-1 .2-1.4.3-3 .7-3 .7-5-1.7l-.2-.1c-.4-.3-.3-.6 0-1l2.8-2.8zm-45-4.4c.3.3.1.5 0 .8-1.3 2-1.7 4.1.2 6.1.5.5.2.7-.3.8l-2.6.6 3.9 2.9c-1.3.4-2.6.2-3.8.7l5 3.7c-1.1.5-2.2.4-3.2 1 .4.4.8.8 1.2 1 .8.7 1.3 1.9 2.7 1.2 1-.4 2.1-.2 3-1.1.4-.5 1-.7 1.6-.7 1.6 0 3 .3 4.5 1 4.2 2.3 8.5 4.4 12.8 6.4.6.3 1 .7 1.3 1.3l1.3 3.1c.2-.6.2-1.1.2-1.6.2-2.7 0-5.2-3-6.4-.2-.1-.6-.3-.4-.7.2-.3.5-.1.8-.1 1.8.2 3.5.6 4.8 2.1.6.7 1.3 1.5 2.5 2l-2.4-6.3c-.2-.5-.6-.5-1-.6l-3.5-.8c1.3-.7 2.5-2 3.7-1.6 1.5.3 3 1.1 4 2.6.5-1 .2-1.8-.5-2.6l-2-2.8c-.3-.7-.7-.8-1.4-.5l-8 2.8c-1 .4-1.5.2-2.1-.5-2-2.2-4-4.3-6.2-6.4-.6-.7-.5-1 .1-1.5a20 20 0 005.4-6.6c.8-1.6 1.6-3.2 2.7-4.6l3-4.3 5.8-8.3c1.8-2.3 1.3-2.1 3.5-.6l2.8 2c1.4.8 2.8 1 4.4.2-.3-.6-1-.8-1.2-1.5l-.5-4c0-.5 0-.6.6-.5l4 .3c.6 0 .9.3 1 1 .1.9 0 1.8.6 3l2.6-5.4c.5-.9.4-1.7-.2-2.5a26.7 26.7 0 01-3.9-8.7 4 4 0 00-1.8-2.4c-2.5-1.6-5-3.2-7.4-5-1.3-.8-2.5-1-4-.7l-18.6 3.7c-.9.2-1.3 0-1.8-.7-4.1-5.8-8.2-11.5-12.1-17.4L85.8 42.9a9.8 9.8 0 00-6.6-4.5L21.5 27.1l-8.3-1.6-.1.2c2 2 4.1 3.8 6.2 5.6l5.6 5.4-11.4-.4 14.2 13-.2.3H20L47 77l-10 1 31 28.5-4.4 1.3 3.8 2.2c1 .5 2.2.9 2.6 1.6.4.9-.4 2-.8 3-.4.9 0 1 .8 1.1l6 .9-2.6 2c1 0 1.9.2 2.8.3-.4.6-1 .8-1.2 1.4 1.3.3 1 1 .3 1.8l10.6 1c2.7.1 5.5 0 8.2-1 2.1-.8 4.4-1.2 6.6-1.8-1.2 2.3-3 3.9-5 5.3-12.2 9.1-25 17.4-37.6 26a26.7 26.7 0 01-11.9 4.3l-3 .3 3.2 3.6c2.2 2.5 5 3.6 8.4 3.4l5.4-.4c1-.1 1.2.1 1 1l-1.8 7.7 19.4-7-2.1 10c6-2.4 11.6-4.8 17.2-7.5.8-.3 1-.3 1.3.6l1.1 4.2c.2.9.6.9 1.3.5l9.6-5.1c2.7-1.5 2.7-1.5 5.1.6 1 1 1.2 1 1.7-.4 1.7-4.1 2.5-8.5 2.3-13-.1-2.2-.4-2.4-2.4-1.4-1.8.9-3.2.7-4.7-.7-1.8-1.7-4-3.2-6-4.9l3.6-.4-5.1-4.4 4-.6-1.6-1.7-1.4-1.8c1.3-.3 2.5 0 3.7-.4l-.5-1c-.7-.6-.5-1.1.2-1.7l3.4-2.8zM180.2 68h-2.3l-29 .5c-.8 0-1.4.3-2 1l-16.5 19.3c-.2.2-.6.4-.5.8l10.6-1.8c1-.2 2 0 2.8.4a55 55 0 017 4c.6.4 1 .5 1.7 0l13.6-7c.3-.2.7-.2.7-.7l-4.7-1.8 20-10.1-.1-.3h-9.1l7.8-4.3z"/><path d="M154.4 137l-2.7 2.8c-.4.3-.5.6 0 1 2.1 2.5 2.1 2.5 5.1 1.7l1.4-.3c-.2.6-.6.7-1 1-1.6 1-3.3 2.1-4.9 3.3-.6.4-.8.3-1.2-.3l-3.1-4.5c-1-1.2-2-1.8-3.6-1.9-3 0-5.7.9-8.4 2-1.4.4-2.7 1-4.1 1.6-.3-.3-.2-.6-.1-1 .2-1.7-.6-2.4-2.5-1.8l-1 .3v-.3c.2-.8.9-1.6.5-2.2-.4-.5-1.4-.5-2.2-.7l3.9-6.5 3.1-5.4c.4-.7.7-.7 1.3-.2l12.1 9.2c.8.6 1.3.6 1.9 0l.7-.7c2-2.5 4.9-3 7.9-3 .2 0 .6-.2.7 0a45 45 0 013 4c-1 0-2-.6-3-1-.5-.3-.8-.3-1.2.2l-2 2.2c-.3.1-.5.3-.6.5z" fill="#c12a2f"/><path class="det_st1" d="M6 21.9z"/><path class="det_st3" d="M19.3 31.4L13 25.8l.1-.2 8.3 1.6 57.7 11.3c3 .5 5 2 6.6 4.5l21.7 32.5 12 17.4c.6.8 1 1 2 .8L140 90c1.5-.3 2.8-.1 4 .7l7.4 5a4 4 0 011.8 2.4c.8 3.1 2.1 6 4 8.7.5.8.6 1.6.1 2.4l-2.6 5.4c-.5-1.2-.5-2.1-.6-3-.1-.6-.3-.9-1-1-1.3 0-2.7-.1-4-.3-.5 0-.6.1-.6.6l.6 4c0 .7.8.8 1 1.4-1.4.8-3 .6-4.3-.2l-2.8-2c-2.2-1.5-1.7-1.7-3.4.6l-5.9 8.3-3 4.3c-1 1.5-1.8 3-2.6 4.6a20 20 0 01-5.4 6.7c-.6.5-.8.8-.1 1.4l6 6.4c.7.7 1.3 1 2.2.6l8-2.9c.7-.2 1.1-.2 1.5.5.5 1 1.2 2 2 2.8.6.8 1 1.6.4 2.6a6.5 6.5 0 00-4-2.6c-1.1-.3-2.4 1-3.6 1.7l3.4.8c.4 0 .8 0 1 .6l2.5 6.3c-1.3-.6-2-1.3-2.6-2-1.3-1.6-3-2-4.8-2.2-.2 0-.6-.2-.8.2-.1.3.2.5.5.6 2.9 1.3 3.1 3.7 3 6.4-.1.5 0 1-.3 1.7l-1.3-3.1c-.3-.7-.6-1-1.3-1.3-4.3-2-8.6-4.2-12.8-6.4-1.4-.8-2.9-1.1-4.4-1-.7 0-1.3.1-1.7.6-.8 1-2 .8-3 1.2-1.4.6-1.9-.6-2.7-1.2l-1.2-1c1-.7 2.1-.6 3.2-1l-5-3.7c1.3-.5 2.5-.3 3.8-.8l-4-2.9 2.7-.5c.5-.1.8-.4.4-.8-2-2-1.5-4-.3-6.2.1-.2.3-.5.1-.8h.1l-3.4 2.9c-.7.5-1 1-.3 1.7l.5 1c-1.1.3-2.3 0-3.7.4l1.5 1.7 1.5 1.8-4 .6 5.1 4.4-3.6.4c2.2 1.7 4.2 3.1 6 4.9 1.6 1.4 3 1.6 4.8.6 2-1 2.2-.7 2.3 1.5.2 4.5-.5 8.8-2.2 13-.6 1.3-.6 1.3-1.7.4-2.4-2.1-2.4-2.1-5.2-.7l-9.6 5.2c-.7.4-1 .4-1.2-.5-.3-1.5-.8-2.8-1.2-4.3-.2-.8-.4-.9-1.2-.5-5.6 2.6-11.3 5-17.2 7.5l2.1-10-19.4 7 1.7-7.6c.3-1 .1-1.3-.9-1.2l-5.5.4c-3.3.3-6.1-.8-8.4-3.3l-3.2-3.6 3-.4c4.4-.5 8.4-1.8 12-4.3 12.5-8.5 25.3-16.8 37.6-25.9 2-1.5 3.8-3 5-5.3-1.1-2.5-2.6-4.7-4-7L89 99.7c-.1-.2-.4-.4-.2-.7.2-.2.5 0 .7 0l5.5.9c.4 0 1 .2 1.2-.1.3-.4-.1-.8-.3-1.1L86 82.5c-.9-1.5-2-2.9-2.5-4.6.4.1.8.2 1 .4l8.5 4.9c.7.4 1.5 1 2.6 1.2L81.1 61l.2-.2 9 6.1c2.4 1.6 4.5 3.4 7 4.6v.1h0c0-.6-.3-1-.6-1.3l-12.6-21c-2.5-4.2-6.1-6.9-10.9-7.8l-9.9-2-16.2-3c-6.6-1.2-13.3-2.5-20-3.6-2.6-.5-5.2-1.2-7.8-1.4zM148 113V112c-.1-1.9-.4-2.1-2.5-1.9.8 1.1 1.5 2.2 2.5 3.1zm7-1.6l.3-.2 1.3-2.3c.4-.7.2-1.1-.1-1.8-1.3-2.5-3-3.6-5.8-2.4l-1.2.3c-.2 0-.5 0-.4.3.4 1-.4.8-.8.9-.7.2-1.5.2-2.2.3-1.5.3-3 .4-4.7 1l11.2 1.7c1.2.2 2.5.3 2.4 2.2zm-13-13.1l.9 3.9c0 .3.2.5.6.5l4.4-.4-6-4z"/><path class="det_st4" d="M83.5 77.9c.5 1.7 1.6 3 2.5 4.5l9.7 16.2c.2.4.7.8.4 1.2-.3.3-.8.1-1.2 0-1.9-.2-3.7-.5-5.5-.9l-.7.1c-.2.3 0 .5.2.7l7.9 13.6c1.3 2.4 2.8 4.6 4 7-2.3.7-4.6 1-6.7 1.9-2.7 1-5.4 1-8.2.9l-10.6-1c.7-.7 1-1.4-.3-1.7.2-.6.8-.9 1.2-1.5l-2.8-.3 2.7-2-6.1-.8c-.8-.1-1.2-.3-.8-1.2.4-1 1.2-2.1.8-3-.4-.7-1.7-1-2.5-1.6l-4-2.2 4.6-1.2L37 78l10-1-27-27.3h7.5l.2-.3-14.2-13c4 0 7.6.2 11.5.4l-5.7-5.4c2.6.1 5.2.9 7.8 1.3l20 3.7 16.2 3 9.9 2c4.8.9 8.3 3.6 10.8 7.8l12.7 21c.2.3.5.7.6 1.2-2.5-1.3-4.7-3-7-4.6l-9-6.2-.3.2 14.6 23.6c-1.2-.3-1.9-.8-2.7-1.3l-8.4-4.8-1-.4-.1-.1h.1z"/><path d="M180 68l-7.7 4.3h9.1v.3l-19.9 10 4.7 1.9c0 .5-.4.5-.7.6L152 92.3c-.6.3-1 .3-1.7-.1a55.8 55.8 0 00-7-4c-.9-.5-1.8-.6-2.8-.4l-10.6 1.8c0-.4.3-.6.5-.8l16.5-19.4c.6-.7 1.2-1 2-1 9.7 0 19.3-.2 29-.4h2.3z" fill="#c1292e"/><path d="M155 111.5c.1-2-1.2-2-2.4-2.2l-11.2-1.8c1.7-.5 3.2-.6 4.7-.9.7-.1 1.5-.1 2.2-.3.3-.1 1.2 0 .8-.8-.1-.3.2-.4.4-.4l1.2-.3c2.8-1.2 4.5-.1 5.8 2.4.3.7.5 1.1 0 1.8l-1.2 2.3a3 3 0 01-.3.2z" fill="#faa83e"/><path d="M142 98.4l5.9 4-4.4.4c-.4 0-.5-.2-.6-.5l-1-3.9z" fill="#fdf2f1"/><path class="det_st8" d="M148 113.1c-1-.9-1.7-2-2.5-3 2-.3 2.4 0 2.5 1.8v1.2z"/><path class="det_st4" d="M97.3 71.4z"/><path class="det_st8" d="M148 113.1z"/><path class="det_st1" d="M109.5 132.6h0z"/><path class="det_st3" d="M83.5 77.9l-.1-.1h.1z"/></svg>