<?xml version="1.0" encoding="utf-8"?>
<!-- Generator: Adobe Illustrator 24.1.2, SVG Export Plug-In . SVG Version: 6.00 Build 0)  -->
<svg version="1.1" id="Layer_1" xmlns="http://www.w3.org/2000/svg" xmlns:xlink="http://www.w3.org/1999/xlink" x="0px" y="0px"
	 viewBox="0 0 200 200" style="enable-background:new 0 0 200 200;" xml:space="preserve">
<style type="text/css">
	.st0{fill-rule:evenodd;clip-rule:evenodd;fill:#EFEFEF;}
	.st1{fill-rule:evenodd;clip-rule:evenodd;fill:#171413;}
	.st2{fill:#171413;}
	.st3{fill-rule:evenodd;clip-rule:evenodd;fill:#282828;}
	.st4{fill-rule:evenodd;clip-rule:evenodd;fill:#161616;}
	.st5{fill-rule:evenodd;clip-rule:evenodd;fill:#9A9396;}
	.st6{fill-rule:evenodd;clip-rule:evenodd;fill:#7C1315;}
	.st7{fill-rule:evenodd;clip-rule:evenodd;fill:#EFE0DF;}
	.st8{fill:#33302D;}
	.st9{fill:none;}
	.st10{fill-rule:evenodd;clip-rule:evenodd;fill:#EECFAC;}
	.st11{fill-rule:evenodd;clip-rule:evenodd;fill:#EEB18F;}
	.st12{fill-rule:evenodd;clip-rule:evenodd;fill:#70343A;}
	.st13{fill-rule:evenodd;clip-rule:evenodd;fill:#353230;}
	.st14{fill-rule:evenodd;clip-rule:evenodd;fill:#926B49;}
	.st15{fill:#926B49;}
	.st16{fill-rule:evenodd;clip-rule:evenodd;fill:#E4BC75;}
	.st17{fill-rule:evenodd;clip-rule:evenodd;fill:#B29659;}
	.st18{fill:#B29659;}
	.st19{fill-rule:evenodd;clip-rule:evenodd;fill:#806A42;}
</style>
<path class="st0" d="M185.2,38.7c0-0.3,0-1.4,0-1.4s-0.6-0.8-0.8-1.1c0-0.1,0-0.2-0.1-0.5l0-0.1c0.1-0.4,0.2-0.9,0.2-1.5
	c0-0.5-0.1-1-0.1-1.4l0-0.2c0-0.1,0-0.3,0-0.4c0-0.2,0-0.4,0-0.5c-0.2-2.4-0.7-4.8-3.9-6.9l-0.1,0c-0.1-0.1-0.2-0.1-0.3-0.2
	l-0.2-0.1c0,0-0.2-0.1-0.2-0.1c-0.2-0.1-0.4-0.2-0.7-0.4c-0.2-0.1-0.4-0.3-0.5-0.3l-0.1-0.2c-0.2-0.2-0.4-0.5-0.6-0.8
	c-0.4-0.4-0.9-1.1-1.7-1.7c-0.4-0.3-0.9-0.6-1.3-0.8l-1.1-0.5h-0.8c-0.3,0-0.6-0.1-1-0.1c-0.4,0-0.8,0-1.1,0.1h-5
	c-0.3,0-0.8,0-1.2,0c-0.2,0-0.7,0-2.2,0.2l-0.1,0l-0.1,0c-1.3,0.3-2.8,0.9-4.4,1.5c-0.5-0.6-1-1.1-1.6-1.6c-0.2-0.2-0.5-0.3-0.7-0.5
	l-0.1-0.1l-4.8-2.3l-0.1,0c-0.1,0-0.2-0.1-0.3-0.1c-1.9-1.5-4.1-2.4-6.9-2.6l-5.9-0.6l0.1,1.4c-0.4,0-0.7,0-1.1-0.1
	c-0.6,0-1.7-0.1-2.1-0.3l-1.7-0.9l-1.9,0.4c-0.9,0.2-1.6,0.5-2.1,0.8l-0.6-0.4l-0.3-0.5l-0.3,0.1l-0.6-0.4l-0.6-0.2
	c-1.1-0.4-2.2-0.7-3.3-1c-3-0.9-5.6-1.6-7.5-3.4l-9.1-8.7l0.5,9.8c-0.6,0.1-1.2,0.2-1.8,0.3c-1.9,0.4-3.9,0.8-5.7,0.8
	c-1.1,0-2.2-0.2-3.1-0.5l-9.4-3.3l2.5,7.5c-1,0.4-1.6,1-2.1,1.6c-2.1-2.8-5.2-4.7-9.3-5.6c-1.1-0.3-1.3-0.5-1.3-0.5l-0.6-0.8
	l-0.9-0.5c-2.7-1.3-5-1.9-7.3-1.9c-0.3,0-0.6,0-1,0c-1.7-0.6-3.3-0.9-4.9-0.9c-2.5,0-5,0.8-7.3,2.2c-0.6,0.4-1.5,0.8-2.5,1.2
	c-2.9,1.2-7.2,3-8.7,7.9c-0.2,0.7-0.7,1.6-1.1,2.5c-0.7,1.3-1.5,2.9-1.9,4.7l-1.5,6l1.5-0.1c0,0.4,0,0.8,0,1.2l0,1.1
	c0,0.5,0,1.1,0,1.7c-0.2,1.8,0.1,3.6,0.9,5.1l0,0.3l0.5,0.6l0.2,0.6l0,0.2c0.2,0.7,0.6,2.7,2.6,4c-1.7,2.3-3.3,4.8-4.1,8L39,57.8
	l1,0.2c-0.2,0.6-0.4,1.2-0.7,1.8l-0.5,1.3l-0.2,0.2l-0.4,0.4c-0.2,0.2-0.4,0.4-0.5,0.5l-3.1,3l0.8,0.5c-0.2,0.5-0.2,1-0.3,1.6
	l-0.2,4.1c-0.2,0.8-0.2,1.6,0,2.3l-1,1.9l-0.1,0.2c-0.4,1.3-0.5,2.5-0.6,3.4c0,0.4-0.1,0.7-0.1,1l-1.1,7.6l0.5-0.2
	c0,0.1,0,0.2,0,0.3c-0.3,2,0.6,3.3,1.3,4.1c0.2,0.2,0.4,0.4,0.6,0.5l0.4,0.3l1.9,0.5c0,1.2,0.3,2.2,0.9,3.1l1.3,1.9l0,0.1
	c0.2,0.7,0.7,2.8,0.7,3.2l0,0.4l2.6,9.6l1-1l-0.9,5.7c-0.4,0.5-0.9,1.1-1.3,1.8c-0.5,0-1,0-1.4,0c-0.6,0-1.2,0.1-1.8,0.1
	c-0.6,0-1.1,0-1.7-0.1l-0.2,0c-0.3,0-0.8-0.1-1.3-0.1c-0.3,0-0.6,0-0.9,0.1c-1.4,0.2-2.7,0.8-3.6,1.8c-0.3,0-0.6,0.1-0.7,0.1
	c-0.4,0.1-1,0.1-1.6,0.3l-1.2,0.3l-1.5,3.1c-2.1,1.1-2.8,2.6-3.1,3.7c0,0.1-0.1,0.3-0.1,0.4l-2,2.8l0.1,0.9c0.2,1.9-0.3,3.2-1,5
	c-0.7,1.9-1.6,4.3-1.6,7.4c-0.4,2.1-0.1,3.9,0.1,5.4l0.1,0.8l0.2,0.5c0.1,0.1,0.1,0.3,0.1,0.3c0,0.1-0.2,0.5-0.4,0.9l0,0.1
	c-0.3,0.5-0.7,1.2-1.1,2.1c-1.8,4-1.1,7.6,0,10.9l0,0.1c0.6,2,1.8,3.1,2.9,3.7l0.4,1.5c-1.7,4.7-0.9,8.8,2.3,11.4
	c0.6,0.4,1.1,1,1.8,1.5c0.9,0.8,1.8,1.5,2.8,2.3c1.1,0.8,2.6,1.6,4.4,2.4c4.2,2.8,11.5,4.5,15,4.5c0.3,0,0.6,0,0.9,0
	c0.5-0.1,1-0.1,1.3-0.1c0.3,0,0.6,0,0.8,0.1c0.5,0.3,1.4,0.8,1.8,1c0.9,0.5,2.1,0.8,3.6,0.8c2.3,0,4.9-0.6,6.2-0.9
	c1.8,0.4,3.6,0.8,5.4,1.2l2.7,0.6l4.5,1.1l0.2,0c1.7,0.3,3.4,0.6,4.9,0.9c4.2,0.9,8.5,1.7,13.2,1.7c1.4,0,2.8-0.1,4.2-0.2l0.1,0
	l18.5-3.6l-13.9-4l-2.8-8.1c-1-3-6-9.3-8.1-11.3l0,0c-1.6-2.2-3.8-4.8-5.7-6.7c-1.5-1.7-5.3-5.2-9.2-8.3l-0.1-0.2
	c-0.2-0.4-0.4-0.8-0.6-1.3c2,0.8,3.8,1.7,5.2,2.5l0.8,0.5c6.2,3.9,12.7,7.9,16.5,13.8l6.2,9.6l1.6-5.8c1.8-6.5,1.8-6.9,1.8-7.1
	c0.3-3.8-1.6-6.8-3-9.2c-0.4-0.6-0.7-1.1-1-1.7c-2-3.8-4.9-6.9-7.7-9.7l0-0.8c1.2,0.3,2.4,0.7,3.5,1.1c0.8,0.3,1.6,0.7,2.5,1.2
	c0.9,0.5,1.9,1,3,1.5c1.7,1.2,3.6,2.3,5.4,3.4c1.9,1.1,3.9,2.3,5.9,3.7l17.4,12.2l-7.9-14.2c0.3,0.2,0.6,0.4,0.8,0.5
	c0.6,0.4,1,0.6,1.3,0.8c0.9,0.7,1.7,1.3,2.6,2l0,0c2.1,1.5,4.1,3,5.7,4.6c0.1,0.1,0.2,0.2,0.3,0.3l0.2,0.2c0.8,0.8,5.5,4.6,6.9,5.7
	l4.7,3.8l-0.3-5.8c-0.4-7.1-0.5-7.4-0.6-7.7c-1.3-4.1-3.4-7.7-6.1-10.9c-0.7-1.1-1.7-2.6-3-4.1l1.3,0.1c1.9,1.1,4.3,2,7.2,2.7
	l5.1,1.2l8.1,4.2l-0.2-2.3l1.1,0.3l0.6,0.4l1,0.3c0.2,0.1,0.6,0.2,1,0.3l0.6,0.1h0.6c1.9,0,3.8-0.9,4.8-2.3l0.4-0.6l0.1-2.3
	c0.2-0.2,0.4-0.5,0.5-0.7l0.2,0.2l15.8,6l-5.1-11.8l-0.3-0.3c-0.3-0.4-0.7-0.8-1.1-1.3c0-0.1,0-0.2,0-0.3c-0.1-1.8-1-3.4-2.8-4.7
	c-1.9-1.4-3.7-2.9-5.7-4.8c-1.5-1.4-4.8-5.1-5.4-5.8c-0.6-1-0.8-1.6-1.2-2.6c0,0-0.1-0.4-0.2-0.5c-0.2-1.5-1.9-7.6-2.5-9.9
	c-0.3-0.9-0.6-2.1-0.9-3.2l2-6.1l0-0.1c0-0.1,2.9-11,3.8-13.9c0.5-1.5,3.9-6,6.9-9.3l0,0c1-1.2,1.9-2.9,2.7-4.9
	c0.5-1.4,1.2-5.7,1.4-7.5c0.2-1,0.6-2.1,0.8-2.7c0.1,0,0.3-0.1,0.4-0.2l0.1,0l0.8-0.4l3.6-3.6l0.4-0.7c0.1-0.2,0.3-0.5,0.3-0.6
	l0.7-1l0.1-1.2c0.2-2.4-0.5-4.3-1.1-5.9c-0.1-0.4-0.3-0.7-0.4-1c0.9-0.8,1.1-1.2,1.3-1.6c0.4-0.9,0.5-2.3,0.2-4.3c0-0.1,0-0.1,0-0.2
	c0.3-0.4,0.5-0.9,0.7-1.3C185.3,40.1,185.3,39.3,185.2,38.7z M87.6,186.2c-0.4-0.2-0.9-0.5-1.4-0.7l0,0c-1.3-0.7-2.9-1.6-4.9-2.5
	c-2.2-1.3-6.5-3.3-10.6-5.2l-0.2-0.1c-1.4-0.6-2.6-1.2-3.8-1.8l0,0c-0.4-1-0.8-1.9-1.3-2.8c0.8-0.3,1.6-0.7,2.3-1.1
	c6,3.3,14.6,10.1,18.8,13.4C86.9,185.6,87.3,185.9,87.6,186.2C87.6,186.2,87.6,186.2,87.6,186.2z"/>
<path class="st1" d="M176.7,38c0-0.1,0-0.1,0-0.2v-0.6l-0.4-0.5c-0.1-0.1-0.1-0.2-0.2-0.3c0,0,0,0,0,0c0,0,0,0,0,0
	c-0.2-0.5-0.3-1-0.3-1.7c0-0.1,0-0.2,0.1-0.4c0.1-0.4,0.1-0.7,0.1-1.1c0-0.3-0.1-0.7-0.1-1c0-0.1,0-0.2,0-0.3c0-0.2,0-0.4,0-0.5
	c0-0.1,0-0.3,0-0.4c0,0,0,0,0,0c-0.1-2-0.6-3.6-2.8-5c0,0-0.1,0-0.1-0.1c-0.1,0-0.1-0.1-0.2-0.1c0,0-0.1-0.1-0.1-0.1
	c-0.1,0-0.1-0.1-0.2-0.1c-0.2-0.1-0.4-0.2-0.7-0.4c-0.5-0.3-0.9-0.6-1.1-0.7c-0.1-0.1-0.1-0.2-0.2-0.3c-0.1-0.1-0.1-0.2-0.2-0.3
	c-0.2-0.2-0.3-0.5-0.5-0.7c-0.3-0.4-0.8,0.4-1.3,0c-0.2-0.2-0.5,2.1-0.8,2l-0.5-0.3h-0.4c-0.2,0-0.5-0.1-0.8-0.1c-0.4,0-0.7,0-1,0.1
	h-5.2c-0.3,0-0.7,0-1.1,0c-0.3,0-1.7,0.2-1.7,0.2c-1.2,0.3-2.6-3-4.2-2.3c-0.3,0.1-0.6,0.2-0.8,0.3c-0.5,0.1-0.9,0.3-1.4,0.4
	c-0.3-0.9-1-1.9-2.1-2.7c-0.1-0.1-0.3-0.2-0.4-0.3l-4.7-2.3c-0.2-0.1-0.4,1.1-0.6,1c-1.5-1.3-3.4-0.4-5.8-0.6l-2.7-0.3l0.1,1.4
	c-1.5-0.3-2.9-1.6-4.2-1.7c-1.3-0.1-2.4,0.2-3.2-0.2l-0.8-1.3l-0.9,0.2c-0.9,0.2-1.6-0.6-2-0.3c-0.1,0.1-0.2,0.1-0.3,0.2l-1-0.2
	l-0.8-0.5l-1.7-1.1l-0.3-0.1c-1.1-0.4-2.1-0.7-3.2-1c-3.2-0.9-6.3,2-8.6-0.2l-4,1c0,0.1-0.5-0.6-0.5-0.5c-0.1,0-0.2,0-0.3,0
	c-1.2,0-2.5,0.1-3.8,0.4c-2.1,0.4,1.1,8.5-1,8.5c-1.5,0-2.8-0.2-4.1-0.7l-4.3-1.5l1.3,3.9c0.2,0.5,0.4,1,0.7,1.4c-0.1,0-1.1,1-1.2,1
	c-2.1,0-2.2-0.1-2.6,0.6c-0.2,0.3-5.4-9.6-6.6-9.3c-0.4,0.1-0.8,0.2-1.2,0.4c-0.1-0.1-0.1-0.2-0.2-0.4l0,0c-1.6-2.9-4.5-4.9-8.6-5.9
	c-1.4-0.3-2.2-0.7-2.8-1.4L68,10.7l-0.4-0.2c-2.3-1.1-4.2-1.6-6.1-1.6c-2,0-3.9,0.6-5.7,1.8c-0.8,0.5-1.9,1-3,1.4
	c-2.7,1.1-6.1,2.5-7.2,6.3c-0.3,0.9-0.8,1.9-1.3,2.8c-0.7,1.3-1.3,2.6-1.7,4.2l-0.6,2.6l0.9-0.1c-0.3,1.3-0.2,2.6-0.2,3.8l0,1.1
	c0,0.7,0,1.4-0.1,2c-0.2,1.5,0.1,3,1,4.2l0,0.1l0.5,0.5L44,39.9l0.2,0.5c0,0.1,0.1,0.3,0.1,0.4c0.2,0.8,0.6,2.4,2.5,2.9
	c0.3,0.1,0.5,0.1,0.8,0.1c0,0.3,0,0.7,0.2,1l0,0l-0.3,0.4c-1.9,2.6-4,5.3-4.8,8.6l-0.5,1.9l1.5,0.3c-0.7,1.3-1.3,2.8-1.9,4.5
	l-0.7,1.8l-0.7,0.7c0,0-0.4,0.4-0.4,0.4c-0.2,0.2-0.3,0.3-0.5,0.5l-0.8,0.8l0.1,0c-0.5,0.7-1,1.6-1.1,2.7l-0.1,1.9l1.2,0.1
	c0,0,0,0,0,0c-0.7,0.8-2.2,2.6-1.1,4.6c-0.1,0.1-0.2,0.3-0.3,0.4l-1.1,2.1c-0.3,1-0.4,2-0.5,2.9c0,0.4-0.1,0.8-0.1,1.2L35.3,84
	l0.3-0.1c-0.4,1.4-0.5,2.8-0.4,4.2c-0.1,0.6-0.2,1.5,0.6,2.3c0.1,0.1,0.2,0.2,0.3,0.3l2.3,0.6c0.2,0,0.5,0,0.8,0l0.6,0.2
	c-0.4,1.7-0.4,2.8,0.2,3.7l0.7,1l0.5,0c0.1,0.6,0.3,1.2,0.4,1.8c0.4,1.5,0.8,3.2,0.7,4l1.2,4.5l2.8-3.1c0,0.2,0,0.3,0,0.5
	c0,0.1,0,0.1,0,0.2c0,0.1,0,0.3,0,0.4l-0.5,6.2l-1.1,6.7c-2.2,2.4-4,6.1-4.3,6.7c-1.1,2.9-0.9,5.6-0.7,8.2l0.1,0.6
	c0.3,3.8,2.4,7.1,5.9,9.6c1.1,0.8,2.8,1.8,4.8,1.8c1.4,0,2.7-0.5,3.7-1.4c0,0,0.1,0,0.1-0.1c0,0,0,0,0.1,0c0.2,0,0.4,0,0.6,0
	c0.3,0,0.7,0.1,1.1,0.1c0.1,0,0.2,0,0.3,0l4.9-0.2l3.2,0.9l-0.4-2.4c0.7,0.1,1.3,0.1,2,0.2c0.9,0.1,1.8,0.1,2.7,0.3l5.1,0.1
	l-1.1-1.6c0.6,0.1,1.3,0.1,2,0.1c0.3,0,0.5,0,0.8,0l3.3-0.2c0,0,11.7-6.3,13-6.3l0.5,2l35.8,3.9c1.9,1.4,8.3-0.7,11.7,0.1l13.5-40.2
	c0,0,2.9-11,3.8-14c0.9-2.9,7.4-10.2,7.4-10.2c1-1.2,1.7-2.8,2.3-4.2c0.5-1.4,1.3-7.1,1.3-7.1s0.8-3.3,1.6-4.2
	c0.3-0.3,0.8-0.4,1.3-0.6l0.1-0.1l0.1,0l0.2-0.1l3-3c0.1-0.1,0.1-0.2,0.2-0.3c0.2-0.4,0.4-0.8,0.6-1l0.3-0.4l0.1-0.5
	c0.2-1.8-0.4-3.4-0.9-4.8c-0.3-0.8-0.6-1.5-0.7-2.2c0.1-0.4,0.3-0.8,0.6-1.1c0,0,0.9-0.7,1.1-1.1c0.3-0.7,0-3.2,0-3.2
	c0-0.3,0-0.5,0-0.8c0-0.1,0-0.2,0-0.3c0,0,0-0.1,0-0.1c0,0,0.1-0.1,0.1-0.1c0.3-0.3,0.6-0.7,0.7-1.2C176.8,38.9,176.8,38.4,176.7,38
	z"/>
<path class="st2" d="M170.6,144.5l-0.3-0.2c-0.9-0.8-2.2-1.4-3.6-2.1c-0.1-0.1-0.2-0.1-0.4-0.2c0.4,0.6,0.9,1.5,0.5,2.6
	c-0.1,0.4-0.4,1-1.1,1.5l-0.2,2.5c-0.6,0.7-1.6,1.2-2.6,1.2h-0.3l-0.3-0.1c-0.3-0.1-0.6-0.1-0.7-0.2l-0.6-0.2c0,0-0.6-0.4-0.6-0.5
	l-5.3-1.2l0.1,1.2l-4-2.1l-5.5-1.3c-3.5-0.8-5.9-1.8-7.9-3.3l-2.3-1.6l1.4-1.4c-0.6-0.6-1.2-1.2-1.7-1.9c-1.4-1.7-0.9-3-0.5-3.7
	c0.7-1.1,2.1-1.8,3.8-1.8c0.3,0,0.8,0,1.3,0.1c0.3,0.1,0.7,0.1,1.1,0.1c0.6,0,1.3-0.1,2.1-0.2c0.6-0.1,1.2-0.2,1.9-0.2
	c0.1,0,0.1-0.1,0.2-0.1c0.4-0.2,0.9-0.4,1.4-0.6c0.3-0.1,0.5-0.3,0.7-0.4c0.5-0.3,1-0.6,2.1-1c-0.1-0.3-0.3-0.6-0.4-0.8
	c-0.5-0.7-0.8-1.6-1-2.6c-0.3-1.1-0.6-2.6-0.4-3.8l0.5-3.5l1.1,0.4c0.1-0.3,0.3-0.6,0.5-0.8c0.6-0.7,0.7-1.5,0.9-2.7
	c0.1-0.9,0.4-2.1,0.7-3.3l-0.2,0l0.9-3.7c0.4-2.1,1-3.6,1.8-4.6c0.4-0.6,0.5-0.7,0.5-0.8l0-0.4l1.1-0.4c0.3-0.8,5.4,18.3,5.2,18.3
	c0.5,1.4,0.8,2.4,1.7,4c0.5,0.7,4.1,4.7,5.7,6.2c2.1,2,4,3.6,5.9,5c0.4,0.3,1.7,1.3,1.8,2.8c0,0.4,0,0.7-0.2,1
	c0.6,0.7,1.2,1.4,1.8,2.1l2.6,5.9L170.6,144.5z"/>
<path class="st1" d="M129,113c-0.5-1.3-1.7-2.1-2.4-2.6v-4.9l-5.7,2.9c-0.9,0.3-4.3,0.8-6.8,1.2c-3.5,0.6-6.1,1-8.1,1.4l0.3-6.9
	l-7.7,9.6c-0.8,1.1-1.3,2.1-1.6,3l-0.2,0c-0.2-1.5-0.2-3.1,0.1-4.9l1.5-11.6l-8.5,9.2c-0.4,0.5-0.8,0.9-1.1,1.4l-2-4.1
	c-3.2,0.4-6.1,1-8.6,1.9c0.6-0.8,1.2-1.7,1.9-2.6c0.1-0.1,0.3-0.2,0.4-0.3c2.4-1.7,2.8-3.4,2.6-4.6l8.5-4.6l-10.2-1.5
	c-0.9-0.1-1.8-0.2-2.8-0.2c-1.1,0-2.1,0.1-3,0.2l-0.5-0.9l0.2-3l-0.1,0l2.9-6.5L69.7,90l-0.6-1.1l-3.7,1.8c-1.9,0.9-3.1,2.1-4.1,3
	c-0.4,0.2-0.8,0.5-1,0.8c-1.3,1-2.4,2.1-3.4,3.1l-0.4,0.2l-0.4,0.6c-3.5,3.9-5.2,7.8-5,11.5l0.2,3.8l1.8-0.3
	c0.1,0.4,0.3,0.8,0.6,1.1l-0.2,0l-0.6,0.5l-0.5,0.2c-4.1,1.4-7.6,9.3-7.6,9.4c-1.2,3.1-1,6.1-0.7,8.8l0.1,0.6
	c0.4,4.2,2.6,7.9,6.5,10.6c1.3,0.9,3.3,2.1,5.9,2.1c1.6,0,3.1-0.5,4.4-1.4c0.3,0,0.7,0.1,1.2,0.1c0.1,0,0.2,0,0.4,0l4.3-0.1l6-1.4
	c0.6,0,34.3-19.9,33.9-21.2c2.6,1.4,5,2.3,5,2.4c0.1,0,0.2,0.1,0.3,0.1c0.8,0.3,1.9,0.8,3.3,0.8c1,0,1.9-0.2,2.8-0.7
	c0.4-0.2,2-1.2,2.2-3.1c0.6-0.2,1.1-0.4,1.6-0.6c1.1-0.4,2.3-0.9,3.2-1.3c1.5-0.6,3.5-1.4,3.7-3.5c0.5-0.7,1-1.9,0.6-3.3
	C129.2,113.4,129.1,113.2,129,113z M62.3,118.5c-0.2-0.3-0.4-0.7-0.6-1c0.1,0,0.1,0,0.2,0c0.4,0,0.8,0,1.1-0.1l0.8,0.3
	C63.3,117.9,62.8,118.2,62.3,118.5z M94.1,129.8l-0.8,0.5c0,0,0,0,0,0L94.1,129.8z M95.8,132.4c-1-0.6-1.7-1.2-2.4-2l1.1-0.7
	l1.3,0.8l0.8-0.6c0.9,1.5,1.9,3.1,3.2,4.5l0.1,0.1l1,0.9L95.8,132.4z"/>
<path class="st1" d="M182.6,38.8c0-0.1,0-0.1,0-0.2v-0.6l-0.4-0.5c-0.1-0.1-0.1-0.2-0.2-0.3c0,0,0,0,0,0c0,0,0,0,0,0
	c-0.2-0.5-0.3-1-0.3-1.7c0-0.1,0-0.2,0.1-0.4c0.1-0.4,0.1-0.7,0.1-1.1c0-0.3-0.1-0.7-0.1-1c0-0.1,0-0.2,0-0.3c0-0.2,0-0.4,0-0.5
	c0-0.1,0-0.3,0-0.4c0,0,0,0,0,0c-0.1-2-0.6-3.6-2.8-5c0,0-0.1,0-0.1-0.1c-0.1,0-0.1-0.1-0.2-0.1c0,0-0.1-0.1-0.1-0.1
	c-0.1,0-0.1-0.1-0.2-0.1c-0.2-0.1-0.4-0.2-0.7-0.4c-0.5-0.3-0.9-0.6-1.1-0.7c-0.1-0.1-0.1-0.2-0.2-0.3c-0.1-0.1-0.1-0.2-0.2-0.3
	c-0.2-0.2-0.3-0.5-0.5-0.7c-0.3-0.4-0.8-0.9-1.3-1.3c-0.2-0.2-0.5-0.4-0.8-0.5l-0.5-0.3h-0.4c-0.2,0-0.5-0.1-0.8-0.1
	c-0.4,0-0.7,0-1,0.1h-5.2c-0.3,0-0.7,0-1.1,0c-0.3,0-1.7,0.2-1.7,0.2c-1.2,0.3-2.6,0.8-4.2,1.4c-0.3,0.1-0.6,0.2-0.8,0.3
	c-0.5,0.1-0.9,0.3-1.4,0.4c-0.3-0.9-1-1.9-2.1-2.7c-0.1-0.1-0.3-0.2-0.4-0.3l-4.7-2.3c-0.2-0.1-0.4-0.2-0.6-0.2
	c-1.5-1.3-3.4-2.1-5.8-2.3l-2.7-0.3l0.1,1.4c-1.5-0.3-2.9-0.4-4.2-0.4c-1.3-0.1-2.4-0.2-3.2-0.6l-0.8-0.4l-0.9,0.2
	c-0.9,0.2-1.6,0.6-2,0.9c-0.1,0.1-0.2,0.1-0.3,0.2l-1-0.2l-0.8-0.5l-1.7-1.1l-0.3-0.1c-1.1-0.4-2.1-0.7-3.2-1
	c-3.2-0.9-6.3-1.8-8.6-4l-4.2-4l0.3,5.4c0,0.1,0,0.2,0,0.3c-0.1,0-0.2,0-0.3,0c-1.2,0-2.5,0.1-3.8,0.4c-2.1,0.4-4.2,0.9-6.3,0.9
	c-1.5,0-2.8-0.2-4.1-0.7l-4.3-1.5l1.3,3.9c0.2,0.5,0.4,1,0.7,1.4c-0.1,0-0.2,0-0.4,0c-2.1,0-3.1,0.9-3.4,1.6
	c-0.2,0.3-0.6,0.5-1.8,0.8c-0.4,0.1-0.8,0.2-1.2,0.4c-0.1-0.1-0.1-0.2-0.2-0.4l0,0c-1.6-2.9-4.5-4.9-8.6-5.9
	c-1.4-0.3-2.2-0.7-2.8-1.4l-0.3-0.3l-0.4-0.2c-2.3-1.1-4.2-1.6-6.1-1.6c-2,0-3.9,0.6-5.7,1.8c-0.8,0.5-1.9,1-3,1.4
	c-2.7,1.1-6.1,2.5-7.2,6.3c-0.3,0.9-0.8,1.9-1.3,2.8c-0.7,1.3-1.3,2.6-1.7,4.2l-0.6,2.6l0.9-0.1c-0.3,1.3-0.2,2.6-0.2,3.8l0,1.1
	c0,0.7,0,1.4-0.1,2c-0.2,1.5,0.1,3,1,4.2l0,0.1l0.5,0.5l-0.1,0.3l0.2,0.5c0,0.1,0.1,0.3,0.1,0.4c0.2,0.8,0.6,2.4,2.5,2.9
	c0.3,0.1,0.5,0.1,0.8,0.1c0,0.3,0,0.7,0.2,1l0,0l-0.3,0.4c-1.9,2.6-4,5.3-4.8,8.6l-0.5,1.9l1.5,0.3c-0.7,1.3-1.3,2.8-1.9,4.5
	L47,63.3l-0.7,0.7c0,0-0.4,0.4-0.4,0.4c-0.2,0.2-0.3,0.3-0.5,0.5l-0.8,0.8l0.1,0c-0.5,0.7-1,1.6-1.1,2.7l-0.1,1.9l1.2,0.1
	c0,0,0,0,0,0c-0.7,0.8-2.2,2.6-1.1,4.6c-0.1,0.1-0.2,0.3-0.3,0.4l-1.1,2.1c-0.3,1-0.4,2-0.5,2.9c0,0.4-0.1,0.8-0.1,1.2l-0.5,3.3
	l0.3-0.1c-0.4,1.4-0.5,2.8-0.4,4.2c-0.1,0.6-0.2,1.5,0.6,2.3c0.1,0.1,0.2,0.2,0.3,0.3l2.2,0.6c0.2,0,0.5,0,0.8,0l0.6,0.2
	c-0.4,1.7-0.4,2.8,0.2,3.7l0.7,1l0.5,0c0.1,0.6,0.3,1.2,0.4,1.8c0.4,1.5,0.8,3.2,0.7,4l0.2,6.6l3.8-5.2c0,0.2,0,0.3,0,0.5
	c0,0.1,0,0.1,0,0.2c0,0.1,0,0.3,0,0.4l-0.5,6.2l-1.1,6.7c-2.2,2.4-4,6.1-4.3,6.7c-1.1,2.9-0.9,5.6-0.7,8.2l0.1,0.6
	c0.3,3.8,2.4,7.1,5.9,9.6c1.1,0.8,2.8,1.8,4.8,1.8c1.4,0,2.7-0.5,3.7-1.4c0,0,0.1,0,0.1-0.1c0,0,0,0,0.1,0c0.2,0,0.4,0,0.6,0
	c0.3,0,0.7,0.1,1.1,0.1c0.1,0,0.2,0,0.3,0l4.9-0.2l2.8-1.6c0.7,0.1,1.3,0.1,2,0.2c0.9,0.1,1.8,0.1,2.7,0.3l5.1,0.1l-1.1-1.6
	c0.6,0.1,0.8,0.6,1.5,0.6c0.3,0,7.3-0.7,7.6-0.8c1.8-0.3,4.1-2.6,4.1-2.6l5.9-0.1l42.8,4.9c1.9,1.4,1.7-3.1,5.1-2.3l13.5-40.2
	c0,0,2.9-11,3.8-14c0.9-2.9,7.4-10.2,7.4-10.2c1-1.2,1.7-2.8,2.3-4.2c0.5-1.4,1.3-7.1,1.3-7.1s0.8-3.3,1.6-4.2
	c0.3-0.3,0.8-0.4,1.3-0.6l0.1-0.1l0.1,0l0.2-0.1l3-3c0.1-0.1,0.1-0.2,0.2-0.3c0.2-0.4,0.4-0.8,0.6-1l0.3-0.4l0.1-0.5
	c0.2-1.8-0.4-3.4-0.9-4.8c-0.3-0.8-0.6-1.5-0.7-2.2c0.1-0.4,0.3-0.8,0.6-1.1c0,0,0.9-0.7,1.1-1.1c0.3-0.7,0-3.2,0-3.2
	c0-0.3,0-0.5,0-0.8c0-0.1,0-0.2,0-0.3c0,0,0-0.1,0-0.1c0,0,0.1-0.1,0.1-0.1c0.3-0.3,0.6-0.7,0.7-1.2
	C182.6,39.7,182.6,39.2,182.6,38.8z"/>
<g id="Nose">
	<path class="st3" d="M163.9,24c2.8,0,5.6,0,8.5,0c1.5,0.8,1.9,2.8,3.7,3.6c3.1,1.4,3.3,2.5,3.4,5.3c0.1,1.8-0.4,4.1,0.9,5.8
		c0,1.9-1.1,1.5-1,3.4c0.1,1,0.3,1.2-0.8,1.2c-4.1-0.1-6.7,1.8-10.9,1.8c-1.4-0.9-2.8-1.8-3.9-3c-2.4-2.6-5.4-4.1-9.3-4.2
		c-2.1-0.1-3.7-0.9-5.2-1.9c-1.5-1-1.5-2-0.1-3c1.8-1.2,3.4-2.6,4.8-4.2c1.5-1.7,3.3-2.8,5.9-3.1C161.3,25.5,162.8,24.9,163.9,24z"
		/>
	<path class="st4" d="M158.1,29.5l-5.3,4.1l3.9,3.7c0,0-2.4-2.4-2.4-3.4C154.5,32.5,158.1,29.5,158.1,29.5z"/>
	<path class="st4" d="M157.2,33c5,0.5,7.1-6.9,11.4-5.8c3.9,1-2.8,7.6-4.2,8.4c0.5-0.5,0.6-0.9,0.9-1.5c-1.8,0.3-3.4-0.5-3.4-2.2
		C160.4,32.9,158.8,33.8,157.2,33z"/>
	<polygon class="st4" points="172.5,25 172.4,28 171.9,30.1 171.3,33 170.5,37.2 170.1,39.5 170.2,41 169.9,42.7 169.4,43.8 
		168.2,45 168.6,44.3 169.1,43.4 169.6,42.2 169.8,41 169.7,39.7 169.8,38.6 170.2,35.6 170.6,33 171.6,29.5 171.9,27.1 171.9,25.3 
		172.2,24.9 	"/>
	<path class="st5" d="M172.9,30.1c0,0-0.6,0.9-0.7,1.2c-0.1,0.7,0.3,2.5,0.5,2.9c0.1,0.3,1.7,2.5,2.2,2.6c0.1,0-0.9-3.1-1.2-4.2
		C173.5,32,172.9,30.1,172.9,30.1z"/>
	<path class="st4" d="M174.9,36.9c0,0-4.1-5.2-1.6-7.2c2.2-1.7,4.9,4.5,5,5.5c-0.2-0.4-0.5-0.7-0.8-1c-0.4,1.1-1.6,1.7-2.9,1
		C174.9,36.3,174.9,36.9,174.9,36.9z"/>
	<path class="st4" d="M172.4,38.7l3.8,2l1.9-2.8c0,0-1.3,1.7-2,1.9C175.2,40,172.4,38.7,172.4,38.7z"/>
</g>
<path class="st6" d="M125.4,35.8c-1.1,0.8-2.3,0.9-3.4,0.1c-0.9-0.6-2-1.5-1.5-2.6c0.5-1,1.9-1.7,3.1-1.7c1.4-0.1,2.5,0.9,2.6,2.3
	C125.4,34.4,125.2,35,125.4,35.8z"/>
<path class="st7" d="M125.1,35.6c-0.7-0.2-1.6-0.7-1.3-1.3c0.3-0.8,1.3-0.8,2.1-0.5C126.2,34.6,125.9,35.2,125.1,35.6z"/>
<path class="st8" d="M141.8,33.4C141.7,33.4,141.7,33.4,141.8,33.4C141.7,33.4,141.7,33.4,141.8,33.4L141.8,33.4z"/>
<path class="st9" d="M155.7,147.1c0.4,0.3,0.8,0.4,1.1,0.4c-0.6-0.2-1.1-0.5-1.7-0.7C155.3,146.8,155.5,146.9,155.7,147.1z"/>
<path class="st9" d="M155.1,146.7c-0.8-0.4-1.5-0.6-2-0.8C153.8,146.2,154.5,146.5,155.1,146.7z"/>
<path class="st9" d="M157.4,134.9C157.4,134.9,157.4,134.9,157.4,134.9C157.4,134.9,157.4,134.9,157.4,134.9
	C157.4,134.9,157.4,134.9,157.4,134.9z"/>
<g id="Top_Teeth">
	<path class="st10" d="M167.7,76.1c0-1.2,0-2.3-0.1-3.5c0.2-1.7,0.6-3.9-0.6-5.4c0.3-2.2,1.6-6.1,1.8-6.4c0.3-0.9,0.6-1.2,1-1.7
		c1.5,0.5,1.2,2.4,1.3,3.4c0.7,4.7,0.1,7.6-0.4,9.1C170.3,72.6,168.8,75.9,167.7,76.1z"/>
	<path class="st10" d="M163.4,66.7c-1.1-1.1-0.1-2.4-0.5-3.6c0.5-1.5,0.7-3.1,2.5-4.3c0.4,2.2-0.7,4.1-0.8,6.1
		C164.6,65.7,163.9,66.1,163.4,66.7z"/>
	<path class="st10" d="M165.1,64.9c0.7-1.9,0.2-3.8,1.9-5.4c1.6,2.7-0.3,4.9-0.7,7.3c-0.6,0.5-1.2,0.8-1.2-0.3
		C165,65.9,165.1,65.4,165.1,64.9z"/>
	<path class="st10" d="M150.2,59.4c0.2,5.4-2,10.1-5.3,14.6c-1.8-0.2-1.4-1.3-1.2-2.2c0.6-2,0.2-4,0.2-6c0.1-1.8-2.2-3.2-1-5.1
		c2-0.2,1.8,1.2,2.2,2.2c0.1,0.3,0.5-0.2,0.2,0c-0.1,0.1-0.2,0-0.2-0.1c-0.4-1.3-0.9-2.6,0.4-3.8c0.2-0.2,0.4-0.4,0.6-0.5
		c1,0,1.3,0.6,1.2,1.2c-0.3,1.7,0,3.5-0.4,5c0.3-1.8,0.4-3.8,0.3-5.8c0-0.8,0.1-1.5,0.3-2.2c0.4-0.8,0.9-0.8,1.6-0.4
		C151,57,150.1,58.3,150.2,59.4z"/>
	<path class="st11" d="M147.5,56.7c0.8,3.2,0.2,6.2-0.7,9.9c-0.7-3.1,0.3-5.6-0.7-8.1C146.5,57.9,146.8,57.1,147.5,56.7z"/>
	<path class="st11" d="M145.5,59c0,1.6,0,3.2,0,5.2c-1.1-1.3-1.2-2.8-2.5-3.5C143.5,59.8,144.6,59.6,145.5,59z"/>
	<path class="st10" d="M154.1,57.9c0.2,0,1.8-1.7,2.8-0.9c0.8,0.6,0.9,1.6,0.6,2.5c-0.3,0.8-0.9,1.6-0.9,2.6
		c-0.8,1.8-0.8,1.8-1.6,2.4c-0.7,0.4-1-1.1-1.5-1.3C152.8,61.5,151.6,59.7,154.1,57.9z"/>
	<path class="st10" d="M159.3,62.7c-0.6,0.7-1.3,1.4-2.2,1.8c-0.3-1.9,0.1-3.8,1.4-5.4c0.4-0.6,0.9-1.6,1.9-1.1c1,0.4,0.5,1.3,0.1,2
		C160.1,60.8,159.7,61.8,159.3,62.7z"/>
	<path class="st10" d="M162.5,63.1c-0.2,1.2-1.5,1.7-2.7,3c0-1.4,0-2.4,0-3.4c1.3-1,1-2.9,2.9-3.6C163.4,60.5,162.4,61.8,162.5,63.1
		z"/>
	<path class="st11" d="M167.5,65.2c0.2,1.1,0.9,3.8,0.4,5.2c0-1-0.2-2.6-0.8-3.2C167.2,66.5,167.3,65.8,167.5,65.2z"/>
	<path class="st11" d="M168.1,63.1c0.5,2.3,1.2,2.6,0.6,5.2c-0.4-2.2-0.4-2-1-3.7C167.7,64.1,168,63.4,168.1,63.1z"/>
	<path class="st11" d="M154.5,57.6l-0.8,4.5c0,0-0.1-1.6-0.2-2.2c0-0.3-0.4-1-0.3-1.2C153.5,58.2,154.5,57.6,154.5,57.6z"/>
	<path class="st11" d="M159.2,58.2l-1.6,4.7c0,0,0.5-2.1,0.5-2.6c0-0.4,0.1-0.9,0.1-0.9C158.8,58.7,159.2,58.2,159.2,58.2z"/>
	<path class="st11" d="M161.7,59.7l-1.1,3.7c0,0,0.1-1.3,0.2-1.7c0-0.2,0-0.5,0.1-0.6C161.1,60.3,161.7,59.7,161.7,59.7z"/>
	<path class="st11" d="M163.7,60.8l-0.4,3.5c0,0,0-1,0-1.3c0-0.2-0.1-0.6-0.1-0.8C163.2,61.8,163.7,60.8,163.7,60.8z"/>
	<path class="st11" d="M165.8,61.8l-0.2,3.2c0,0-0.1-0.8-0.1-1C165.4,63.5,165.8,61.8,165.8,61.8z"/>
</g>
<path class="st12" d="M165.7,55.8c-0.6-1.3,2.3-0.1,1.4,0c0.8,0.5,0.9,2.2,2.3,1.5c1.1-0.5,0.3-1.7,0-2.6c-0.1-0.3-0.3-0.7-0.5-1
	c0,0,0,0,0,0c0-1.9-2.5-1.1-3.1-2.1c-1.6-2.5-3.1-1.1-4.7-0.1c-0.6,0.4-1.3,0.7-2,1c-1.3,0.5-1,1.1-0.2,1.8c0.3,0.3,0.5,0.6,0.7,0.9
	c-0.2-0.3-0.5-0.6-0.8-0.8c-1.7-0.3-3.3,0.4-5.1,0.1c-1.2-0.2-1.9,0.7-2.2,1.6c-0.2,0.2-0.4,0.4-0.5,0.6c-0.1-0.6-0.4-1.1-1.1-1.5
	c-0.5,0.2-0.5,0.6-0.5,1c0.4,1,0.7,2,1.1,3c0.2,0,0.4,0,0.6-0.1c1.6,0.4,1.7-1.7,3.2-1.5c0.1,0.2,2.3-2.4,4-0.6c1.1,0,2.3-1,3.3,0.3
	c0.5,1,1.8,0.8,2.6,1.3c0.9-1.5,2.2-0.5,2.9,0c1.3,0.8,2,0.5,2.9-0.3C168,58.1,166.7,57.2,165.7,55.8z M159.6,55.5
	c0.2,0.2,0.5,0.4,1,0.5C160.1,55.9,159.9,55.7,159.6,55.5z"/>
<path class="st13" d="M153.6,106c-0.5-0.3-2.4,2.2-2.4,2.5c0,2.5-2.3,4.1-2,6.6c0.1,0.5,1,1.3,0.9,1.8c-0.3,0.9-2.6,1.6-3.6,1.8
	c-0.7,0.2-2.4,0.2-3.1,0c-0.5-1.2-11.5-10.9-14.6-16.8c-0.5-0.9-0.9-7.5-1.4-8.4c-0.6-1.1-1.5-3.5-1.7-4.7c-0.3-1.5,0-4.6,0-6.2
	c0-1.4-0.2-4.2,0-5.5c0.2-1.2,2.7-8.2,3.5-9.3c0.5-0.7,1.8-1.7,2.2-2.4c0.8-1.2,2-5.3,2-5.3s-2.9,2.6-3.8,3.6
	c-1,1.1-3.1,3.3-3.9,4.6c-1.2,1.9-2.8,5.9-3.4,7.9c-0.6,1.7-1.3,5.3-1.5,7.1c-0.2,1.7-0.5,5.1,0,6.7c0.4,1.2,2.5,6.3,3.4,7.4
	c1.3,1.7,1.7,6.4,2.7,8.2c1,1.7,4.5,8.4,7.4,8.9c1,0.2,2.3,0.7,3.7,1.4c0.2,0.6,0.4,1.1,0.7,1.4c0.7,0.9,2.8,2.3,3.9,2.7
	c1,0.4,3.4,0.4,4.5,0.3c0.9-0.1,2.6-0.7,3.4-1.2c0.5-0.3,1.3-1,1.4-1.5c0.2-0.6-0.4-2-0.3-2.6c0.1-0.9,1.2-2.4,1.4-3.3
	c0.2-0.7,0.2-2.3,0.2-3C153.1,107.5,154.9,106.8,153.6,106z"/>
<path class="st10" d="M150.7,107.9c-0.9,0-3-0.4-3.8-0.9c0.6-2.1,1.8-3.1,3.6-5c3.2-2.2,3.7-3.4,6-5.6c0.2,3.4,0,3.4-0.7,5.1
	c-0.3,0.8-0.9,1.6-1.3,2.4C153.2,105.2,152.5,107,150.7,107.9z"/>
<path class="st10" d="M136.3,103.3c-0.4,0.3-0.8,0.6-1.2,0.9c-0.8,0.6-1.8,0.7-2.7,0.3c-1-0.4-0.8-1.3-0.8-2.2c0-1.3,1-2,1.6-3.2
	c0.3-0.4,0.6-0.8,0.9-1.2c1.6-2.1,2.3-3.7,2.9-6.5c0.3,0,0.8,4.6,0.5,6.9C137.5,100,137,101.6,136.3,103.3z"/>
<path class="st10" d="M145.5,107.6c-0.4,0.5-0.7,1-1.1,1.5c-0.1,0.1-0.2,0.2-0.3,0.3c-0.1,0-0.3,0-0.4,0c-1.2-1.6-0.8-2.4,0-3.4
	c0.9-0.6,3.2-2.3,4.3-2.6C147.3,105.2,147,106.3,145.5,107.6z"/>
<path class="st10" d="M136.9,105.1c-0.1-2.7,2.8-2.6,4.2-3.4c-0.3,0.5-2.5,3.9-2.9,4.3C137,107.1,136.9,106.9,136.9,105.1z"/>
<path class="st10" d="M139.6,105.7c0-0.3,1.4-1.3,2-1.6c0.4-0.2,1.8-1.2,2-1.3c0.6-0.1-0.6,1.6-0.6,2.2c-0.6,0.8-1,1.8-1,1.8
	s-0.3,1.1-1.4,1C139.7,107.1,139.9,106.4,139.6,105.7z"/>
<path class="st12" d="M148.7,117.1c-3.8-2.5-0.3-3.8-0.1-5.5C148.9,113.3,147.4,114.8,148.7,117.1z"/>
<path class="st11" d="M131.7,103.7c-0.3-1.4,2.7-5.7,2.7-5.7s-1.4,3.2-1.6,4.1c-0.1,0.6,0.2,2.5-0.4,2.3
	C132.2,104.4,131.8,104,131.7,103.7z"/>
<path class="st11" d="M133.7,104.7c-0.8-0.2-0.2-2.3,0-3c0.2-0.6,1.4-2.2,1.4-2.2s-0.7,1.8-0.7,2.5c0,0.6,1.2,1.8,0.8,2.2
	C134.8,104.5,134.1,104.8,133.7,104.7z"/>
<path class="st11" d="M148.3,107.5c0.7-0.3,0.4-2.1,0.6-2.8c0.2-0.4,1-1.6,1-1.6s-1.1,0.6-1.4,0.9c-0.3,0.3-0.8,1.1-1.1,1.5
	c-0.2,0.4-0.8,1.1-0.6,1.5C147.1,107.3,148.3,107.5,148.3,107.5z"/>
<path class="st11" d="M136.9,105.1c0.2-0.5,1.3-1.8,1.3-1.8s-0.1,1.4-0.3,1.8c-0.2,0.3-0.6,1.3-1,1.2
	C137,106.3,136.8,105.4,136.9,105.1z"/>
<path class="st11" d="M139.7,105.5c0.3-0.4,1.4-1,1.4-1s-0.3,1-0.4,1.4c-0.2,0.3-0.1,1.3-0.6,1.3
	C139.8,107.2,139.5,105.7,139.7,105.5z"/>
<path class="st11" d="M143.9,105.7l-0.9,2.5c0,0-0.1-0.4-0.1-0.8c0-0.3,0-0.4,0.4-1C143.4,106.1,143.9,105.7,143.9,105.7z"/>
<path class="st11" d="M149.4,107.8c-0.5-0.6,0.4-3,0.4-3s0.3,1.1,0.4,1.5c0.1,0.4,0.5,1.3,0.4,1.7L149.4,107.8z"/>
<path class="st12" d="M148.1,108.2c-2.6,0.4-0.6,0.9-3.2,1.8c-2.4-0.3-3-1.2-3.4-0.7c-0.7-0.5-1.5-1-1.7-1c-1.5-0.7-3.9-0.4-3.9-2.7
	c0-0.4,0-0.9,0-1.3c-1.5,1.3-2.1,1.3-4.6,0.5c2.5,3.5,4.2,4.7,6.4,6.8c1.2,0.3,2.2,0.3,3,0c-0.3,0.5-0.8,0.9-1.2,1.5
	c1.1,1.5,3.3,3.4,4.4,4.9c0.3-0.7,3.7,1.1,2.5-0.2c-2-2.1,0-4.8,1-6.2c1-1.4,1-1.3,2.3-2.7C149.6,108.5,148.5,108.2,148.1,108.2z"/>
<path class="st14" d="M131.7,18.3c1.3,0.7,2.8,0.8,4.3,0.9c2.7,0.2,5.3,0.4,7.7,1.8c0.2-1.1-1-1.6-1-2.6c1.9,0.2,3.6,0.8,4.8,2.1
	c0.2,0.1,1.9,0.5,3.9,2.9c0,0,0.7-1.1,1.5-0.4c1.2,1.7,0.4,2.7,0.3,4.6c-0.7,2.3-4,2.9-3.5,0.7c-1.9-2-4.1-1.9-6.8-1.4
	c-1.2,0.2-2.1-0.1-2.5-1.1c-1.2-4.1-7.5-5.8-7.5-5.8c-0.3-1-3.8,0.2-4.6-0.7C130,19.8,130.5,18.6,131.7,18.3z"/>
<path class="st14" d="M138,27.7c0.6-0.7,0-1.8,0.1-2.6c0-0.1-0.5-0.3-0.5-0.4c-0.1-0.5-0.3-1-0.8-1.1c-2.4-0.5-3.6-2.1-5.8-2.9
	c-0.1,0-0.2,0-0.4,0c-1.8,0.8,1.1,1.5,0.1,2.4c-2.1-1.2-4.1-2.8-6.9-2.8c0,1.2,1.6,1.8,1.3,2.8c-7.1-3-13.3,0-19.8,1.4
	c0.3,1.1,2,0.5,1.6,1.4c-0.2,0.6-0.9,1.2-2.1,1.4c-3.7,0.5-6.7,2.3-10.3,4.2c1.4,0.1,2.2,0.1,3.6,0.2c-3,1.3-2.2,2.9-2.6,4.4
	l-0.5,0.6c-0.3,0.3-0.5,0.6-0.8,0.9l0,0l0,0c-0.9,1.3-1.4,2.8-1.1,4.1c0.6,2.5,0.2,4.5-1.1,6.6c0,0,0.1,0.2,0.2,0.3
	c0.5-0.1,0.5-0.8,1.3-0.6c-0.8,1.8-2.5,3.2-2.1,5.7c2.2-2.2,6.5-0.5,7.5-4.1c0.4,2.2,0.3,2.6-1.1,5.1c1.4,0,1.7-1.6,3.1-1.8
	c0.2,2.4,0.3,2.4-1.1,4.6c-0.7,1.1-0.3,1.1,0.8,1l-0.1,0c0,0,0,0,0,0c-1.4,1.2-4.4,1-4.1,4c1.7-1.6,3.7-2.1,5.7-2.4
	c3.7-0.5,7.4-0.8,9.7-3.9c1,1.3-1.2,2.1-0.2,3.2l0,0c1.2-0.7,2.3-1.6,3.1-2.7c0.2-0.3,0.3-0.7,0.3-1l2.5-4v0c1.6-0.2,1.8-1.3,2-2.4
	c0.2-1.2,0.4-2.2,1.3-3.2c0.6-0.6,1.1-1.2,1.4-1.9c0.4-1.1,0-2.1-1.4-1.5c-1.7,0.7-1.5-0.7-2.2-1.1c-0.8-0.4-2.3-0.6-1.2-2
	c0.6-0.8-0.3-1.2-1.2-1.3c-0.8-0.1-1.6,0.2-2.2,0.7c-1.6,1.4-3.4,2.2-5.5,1.4c2.9-2.6,6.3-3.9,10.5-1.8c0.1,0.1,0.3,0,0.5-0.1
	c1-0.8,0.2-1.8,0.3-2.7c-0.4-2.9-2.8-3.3-5.5-3.3l-0.2-1.6l1.9,0.6l2.1-0.3l2-0.9l2.1-0.5c0.6,0.1,1.2,0.1,1.8,0
	c1.4-0.3,2.6-0.6,3.6,0.9c1.8,2.8,1.8,2.7,5.1,1.5c0.5-0.2,1.1-0.2,1.5-0.5c1.1-0.7,2.9-0.6,3.7-1.9c-0.3-0.4-0.6-0.7-1-0.9l1.2-1
	L138,27.7z"/>
<path class="st14" d="M58.7,28.9c-0.1,0-0.2,0-0.2-0.1c-0.1-0.1-0.1-0.2-0.1-0.3c0.6-0.1,1.2-0.1,1.8-0.2c1-0.2,2.8,0.6,2.9-0.2
	c0.1-0.8,0.6-2.3-1.3-2.8c1.4-0.2,2,0.5,2.9,0.8c0.3,0.1,0.7,1,1,0.1c0.7-1.8,1.3,0.2,1.9,0.1c0.7-1.1,0.8-2.3,0.9-3.5
	c0.5,1.6,1.1,3.2,2.2,4.6c0.3,0.4,1.1,1.6-0.2,1.6c-4.2,0.1-5.4,3.7-8.4,5c-0.8,0.3-1.2,1.4-2.1,1.1c-0.3-0.1-0.3-1.2-0.3-1.8
	c0.1-1.3-0.6-1.8-2.7-1.9c1.4-0.4,2.2-0.7,2.9-0.9C60.2,29.6,59.5,29.3,58.7,28.9z"/>
<path class="st14" d="M71.8,22.1c2-0.9,3.2,0.1,4.3,1.3c0.2-0.3,0.3-0.3,0.5,0c1.4-1.4,1.1-4.2-0.5-5.4c1.2-1.6,2.3-0.8,3.4,0.1
	c1.6,1.4,1.8,3.2,2,5c0.6,2.1-1.5,2.6-2.7,3.6c-4.6,0.8-4.6,0.8-6.3-2.8C72.2,23.2,72,22.6,71.8,22.1z"/>
<path class="st14" d="M52.4,38.4c0.3,0.5,0.6,0.9,1,1.6c0.9-1.2,2.2-2,1.7-3.6c-0.3-1,0.8-0.7,1.5-0.7c2.1,2.2,0.7,4-1,5.7
	c-0.6,0.6-1.2,1.6-2.2,1.3c-0.8-0.2-0.8-1.2-1.1-1.9c0.1-0.5-0.1-1-0.4-1.4C51.8,38.9,51.8,38.6,52.4,38.4z"/>
<g id="Top_Area">
	<path class="st15" d="M124.2,17.5c-4.3-1.5-9.1-2.1-12.6-5.5c0.1,1.9,1.9,2.4,2.7,3.6c-2.7-1.4-5.5-1.5-8.5-0.8
		c-3.8,0.8-7.6,1.6-11.8,0.1c0.8,2.5,3.2,2.7,5,3.7c-1.7,0.2-3.3,0.2-5,0.2c-1.1,0-2.9-0.3-3.3,0.4c-1.3,2.4-5.3,1.3-6.6,4.1
		c-0.6,1.2-1.9,2-3.4,3.3c-1.2,1.6-0.2,1.4,0.1,1.5c-4.7,3.8-6,10.2-11.5,13.3c3.1-0.4,5.4-2.6,8.2-3.6c-1.9,1.8-3.5,3.7-4.6,5.9
		c0.7,0.2,1.1-0.7,1.8,0c-4.6,3.8-4.5,9.4-7,13.9c1.2-0.8,2-1.9,3.5-2.4c-1.7,1.8-3.7,3.5-4.4,6.1c1.5-0.7,1.9-2.5,3.8-1.9
		c-0.3,1.5-1.2,2.8-2.3,3.9c-1.2,1.2-3.4,3.5-3.3,5.2c0.7,0.2,2.4-0.6,3.1-0.5c0,0,0,0,0,0c3.8-1.6,7.6-3.4,10.3-6.4
		c-1,2.9-4.1,4-6.7,5.9c4.3,0.1,7.3-1.8,10.2-3.9c0.9-0.7,1.5,0,1.5,0.1c0.7-0.1,1.6-0.5,2.4-0.9c1.1-0.9,2-1.9,0.9-3.3
		c-1.3-1.4-2.7-0.9-4,0.1c0,0,0,0,0,0c-0.2,0.1-0.1,0.2-0.1,0.2c0,0,0,0,0,0c0,0,0,0,0,0c0,0,0,0-0.1-0.1c0,0,0,0,0.2-0.1
		c0,0,0,0,0.1-0.1c1.8-1.4,2.5-3.1,2.1-6c-0.2-1.7-0.3-3.3,0.5-4.9c0.5-1.2,0.4-2.5-0.8-3.4c-1.6-1.3-1.1-2.8-0.6-4.2
		c0.5-1.5,1.5-2.8,2.7-4.1c-1.8,2.9-1.7,5.9-0.9,8.9c0.1,0.4,0.1,0.8,0.1,1.1c0.4,4.4-0.2,8.9,2.6,12.9c0.2,0.3,0.3,0.7,0.2,1.1
		c-0.2,0.4-1.4,1.1-2.6,1.7c-0.1,0.1-2.4,1-2.5,1c-0.1,0.1-0.2,0.2-0.4,0.2c-2.5,2-5.9,2.9-8.4,5c-0.3,0-0.6,0-0.9,0
		c-0.1,0.2-0.2,0.4-0.1,0.5c0.5,0,2-0.4,2.4-0.3c4.7-1.7,10-3.6,13.2-4.7c-0.8,1.8-3.1,2-4.9,2.8c-0.4,0.2-3.8,1.7-3.8,1.7
		s12.9,1.6,18.3-1.9c-0.8,0.6-0.2,1-1.2,1.3c-0.7,0.3-3,2-3,2s1.7-0.1,2.7-0.2c0.5-0.1,1-0.2,1.5-0.4c1.9-1.3,4.1-2.4,5.6-4.1
		c1.7-1.8,1.2-2.9-1.5-3.3c-1.3,0-2.6,0.3-3.8,0.8c-1.4,0.5-2.1,1.4-1,3c-2-0.8-2.9-2-3-3.2c-0.1-1.5-1.8-2.8-1.7-3.6
		c0.1-2.9-1.8,0.4-1.9-0.6c0.7-1.1-0.6-2.4,0.6-3.4c-0.9,0.7-1.8,1.3-2.8,2.1c-0.4-3.3,0.7-6.3-0.2-9.4c-0.3-0.9-0.4-2.1-0.4-3.2
		c0-0.7,1.6-1.7-0.3-2.1c0.9-1.6-0.5-4,2.2-5c1-0.4,0.6-1,0.2-1.3c-2-1.4-0.6-2.4,0.4-3.5c1.1-1.3,2.5-2.3,4.2-3
		c1.3-0.5,3.1-1,3.8-2c1.9-2.9,5.1-4.1,8.3-5.3c1.4-0.5,0.4-2,2.2-2.3c5.3-0.7,10.3-3.4,16.1-1.7C125.2,18.1,124.7,17.8,124.2,17.5z
		"/>
</g>
<path class="st15" d="M171.2,140.1c-5.9-3.1-10-7.9-14-12c-0.2-0.1-0.4-0.2-0.5-0.3c0,0,0,0,0,0c0,0,0,0,0,0c-0.1,0-1.1-1.1-0.8-2.1
	c0.6,0.7,1.2,1.1,1.4,1.7c0.8,0.7,1.7,1.8,2.1,2.2c4,3.9,7.8,7.9,13.7,10.7c0.7-0.6,0.1-1.2-0.4-1.6c-2.2-1.7-4.2-3.4-6.2-5.2
	c-1.9-1.7-5.8-6.2-6.1-6.7c-3-4.8-5-16.9-5-16.9c0.3,0-1,4.5-1.4,6.8c-0.2,1.4-0.4,2.6-1.4,3.9c-0.9,1.1-0.5,2.7,0.3,4.1
	c-1.2-0.2-1.1-1-1.9-1.4c-0.2,1.5,0.8,4.7,1,4.7c0.8,1.5,2,3.5-0.8,4.4c-1.5,0.5-1.6,0.8-3,1.4c-0.7,0.1-1.4,0.7-2.1,0.8
	c-2.1,0.1-4.1,0.8-6.5,0.2c-0.7-0.2-2.6,0-1.4,1.4c1.2,1.5,2.8,2.8,4.3,4.2c-0.9-0.1-1.7-0.3-2.3,0.3c1.8,1.3,4,2.1,6.7,2.7
	c-1.5-1-2.9-1.7-3.5-3.1c3.4,1.1,6,2.7,8.9,4.2c-0.3-3.1-4.1-3.7-6.7-5.1c6.5,1.9,12.4,4.5,17.3,8c0.2,0,0.3,0.1,0.5,0.1
	c0.1,0,0.2-0.1,0.2-0.1c-0.3-0.5-0.6-1-1-1.5c-3.9-4.4-9.6-7.4-16.1-9.8c-0.7-0.3-1.4-0.5-2.7-1c1.4,0.1,2,0.2,2.6,0.2
	c4.6,1.6,8.6,3.8,12.6,6c1.4,0.7,2.4,1.6,3.4,2.6c0.4,0.4,0.8,1,1.6,0.7c0.9-0.3,0.4-0.9,0-1.4c-0.7-0.9-1.6-1.8-2.6-2.5
	c-1.9-1.4-7-3.6-6.4-3.3c0.3-0.2,0.8-0.2,1-0.7c0.2,0.1,0.4,0.1,0.6,0.1c1.7-0.6,2.6,0.6,3.9,0.9c0.3,0,0.5-0.1,0.7-0.2
	c-1.1-1.9-4.5-2.6-5.6-5.2c3.9,3,7.7,5.3,11.9,7.3c1.9,0.9,3.9,1.7,5.3,3c0.8,0.4,1.7,0.9,3,1.6
	C174.4,142.7,173.1,141.1,171.2,140.1z"/>
<g id="below_ear">
	<g>
		<path class="st14" d="M72.7,34.3c1.9-2.1,3.6-3.9,5.7-6.5c-2.6,0.6-4.5,0.2-6.3-0.4c-0.3,1.3,1.5,1.6,1.2,2.9
			c-4.5-0.7-6.3,2.9-9.4,4.5c1,0.7,1.6,0.4,2.2-0.1c0.2-0.2,0.3-0.3,0.6-0.4c0.3-0.2,0.6-0.3,0.9-0.3c-0.4,0.1-0.7,0.2-0.9,0.3
			c-0.2,0.1-0.4,0.3-0.6,0.4c-0.8,0.8-0.8,2.1-1.6,2.9c-1.5,1.6-4.1,7.4-2.3,7.4c0,0-1.1,2.5-3.1,2.9c0.6-1.9,1-3.8,2-5.6
			c0.5-0.9,0.9-1.7-0.3-2.4c-1.9,1.1-3.4,2.7-4.8,4.2c-0.2,0.2-0.4,0.6-0.3,0.8c0.5,1,0.6,1,0,1.8c-2,2.7-4.1,5.3-4.9,8.5
			c1.1,0.2,1.6-1.4,2.9-0.6C52,56.7,51,59,49.9,62c2.4-1.9,4.9-2.1,7-3c2.3-0.9,4-2.4,5.3-4.4c0.3,1.2-0.5,1.9-1.1,2.6
			c-1.7,2-4.3,2.8-6.9,3.6c-1.4,0.4-2.8,0.7-3.4,2.3c1.6-0.2,2.8-1.1,4.8-0.7c-2.6,0.9-6,1.3-7.5,2.8c0,0,0,0,0,0c0,0,0,0,0,0
			c-0.9,0.9-2.1,1.8-2.1,3.2c1.6,0.1,2.5-1.2,4.2-0.9c-0.8,1.1-2.5,1.5-2.6,2.9c2.2,0.7,3.4-1.5,5.4-1.5c-0.7,1-1.1,2-0.7,3.1
			c0.5,1.6-0.3,2.6-1.6,3.5c-0.7,0.5-1.5,1-1.6,1.8c-1-0.4-2-0.9-3.1-1.4c-1.9,1.9-1.6,3.9-1.8,5.9c0.9-0.3,0.7-0.8,1.7-0.4
			C44,83.7,43,86.3,43.4,89c1.2,0.8,1.5-0.2,2-0.7c0.2-0.2,0.4-0.5,0.6-0.7c0.9-1.1,1.9-2.2,3-3.1c-1.1,1-2.1,2-3,3.1
			c-0.2,0.3-0.5,0.6-0.7,0.9c-0.4,0.6-1.4,1.3,0.2,1.7c1.1-0.7,2-1.6,3.4-2c0.3,0.9-1.7,5.9-1,6.8c0.3,0,0.7-0.5,1.1-1.1
			c0,2.5,1.8,7.1,1.6,9.1c1.4-1.9,2.9-2.2,4.4-1.2c1.3,0.9-0.5,1.8-0.4,2.8c0.1,0.3,0,0.7-0.1,1c0.9-0.9,1.3-2,2-2.9
			c1.8-2.4,3.2-5.1,6.8-6c0.2-0.2,0.4-0.3,0.6-0.5c-0.9,0.1-1-0.4-0.8-1c0.3-0.9,0.6-1.8,0.9-3c-2.1,0.7-3.1,2.1-4.9,2.9
			c0.4-1.5,1.1-2.8,1.7-4.1c0.7-1.3,0-1.5-1.4-1.4c-1.6,0-2,1.4-3.3,1.6l-0.6-0.3c1.4-2,2.6-4.6,4.2-5.1c-1.3-0.5-1.7,0.6-2.6,0.3
			c0.3-1.2,1.6-2,2.2-3.4c-1.9,0.8-3.3,1.4-5.3,2.2c0.6-1.9,1-3.8,1.4-5.3c1.1-2.1,2.4-4,4-5.8c0.2-0.2,1-0.7,0.1-1
			c-0.2-0.1-0.6,0.2-0.9,0.3c-0.3-1-1.1-1.5-2.3-1.4c-1.1,0.1-2.2,0-3.2-1.1c2.6,0,3.6-1.6,5.2-2.6c-0.8-0.6-1.4,0.4-2.2,0
			c0.4-0.5-0.3-1.2,0-1.7c-0.7-0.1-1.3-0.2-1.9-0.2c0.6-0.4,0.5-0.5,1.5-0.6c1.2-0.2,2.9,0.1,3.4-0.9c1.5-2.7,5-4.2,5.6-7.4
			c0.2-1.2,0.6-2.4,1-3.7c-0.5,0.2-0.8,0.4-1.5,0.6c0.9-1.7,1.5-3.2,1-4.9c-1.2,0.4-2.3,0.8-3.3,1.6c-2.1,1.7-4.3,3.3-6.6,4.9
			c0-0.5,0.8-0.9,0.4-1.6c2-1.9,4.4-3.5,7.1-4.6c4-1.7,4.1-1.7,6.6-5.3c-2.1,1-3.3-1.3-5.5-1.1C68.7,41.1,70,37.2,72.7,34.3z
			 M47,82.5c0,0.1-0.1,0.1-0.1,0.2c0.1,0.1,0.2,0.1,0,0c0,0,0,0,0,0C46.8,82.6,46.8,82.6,47,82.5C47,82.5,47,82.5,47,82.5
			c0-0.1,0.1-0.1,0.1-0.2c0,0,0,0,0-0.1C47.1,82.4,47.1,82.5,47,82.5z M50.9,86.3c0.8,0.5,1,2.1,1.2,3.7
			C50.8,91.5,50.5,87.6,50.9,86.3z"/>
		<path class="st14" d="M50.7,69.8c-1-0.1-1.8,0.6-2.8-0.3C47.2,71,44.3,73,46.5,75C48.2,73.7,49.6,71.5,50.7,69.8z"/>
	</g>
</g>
<path class="st14" d="M92.7,128.3c-3.4-4.5-4.8-9.3-3.5-15.1c0.4,1,0.6,1.5,0.8,2.1c0.2,0.6,0.3,1.2,0.5,2.1
	c0.9-1.9,0.7-3.8,2.5-5.8c-0.7,5.1,0.2,9.5,3.1,13.4c0.2,0.2,0.6,0.1,0.6,0.5c0.4,0.7,0.8,1.3,1.4,2.4c-1.5-0.9-2.6-1.6-4.4-2.7
	c1.4,1.9-0.8,3.3,0.4,4.7C93.6,129.3,93.2,128.8,92.7,128.3z"/>
<path class="st14" d="M93.6,135.1c-2.7-1.6-4.4-3.7-5.3-6.2c-0.3-0.5-1.3-1.1,0.1-1.5c0.7-0.2,1.5-0.1,2.3-0.2
	c-3.4-0.3-3.4-0.3-4.1-2.9c-1.2,0.5-0.3,2-1.6,2.7c-0.8-1.3-0.3-2.7-0.5-4c-1.3,1.2-0.8,2.9-2.3,4.4c0-2.6,0-4.8,0-7.5
	c-1.7,2.6-2.4,4.8-2.7,7.1c-0.9,0.6-2,0.1-2.9,0.3c0.2-2,0.6-4,1-6c-0.6,0.6-1.1,1.2-1.7,1.9c1.8-5.5,6-9.4,11.8-13.1
	c-6.6,0.8-11.8,2.7-16.1,6.7c-0.1-1.9,0.3-3.4,0.9-4.8c-0.2,0-0.3-0.1-0.5-0.1c0.2-0.2,0.4-0.4,0.6-0.7c1.1-2.6,2.8-4.9,4.6-7.1
	c0.7-1,2.9-1.7,2.1-2.8c-0.9-1.2-2.9-0.4-4.4-0.3c-0.1,0-0.2-0.1-0.4-0.2c1.9-1.2,4.4-1.2,6.6-2.4c-3.4-0.5-6.2,0.3-9.1,0.9
	c-0.2-0.9,1.2-1.3,0.4-2.7c-0.8,0.7-1.5,1.3-2.2,1.9c-0.2-1.2,1.2-1.9,1.3-3c-1.5,0.3-2,1.5-3.3,2.2c0.2-1.4,1.3-2.3,1.9-3.8
	c-1.3,0.8-2.2,1.3-3,1.8c-0.4-0.9,0.9-1.4,0.4-2.2c-1.5,0.7-2.4,1.7-3.4,2.6c-0.2,0.2-0.5,0.2-0.6,0.5c-1.5,1.2-2.8,2.4-3.9,3.5l0,0
	l0,0c-3.1,3.3-4.5,6.5-4.3,9.5c2.8-0.4,3.4-3.1,5.6-4.4c-1.2,2.1-3,3.9-3.6,6.2c-0.3,1.3-0.3,1.2,1.1,1.8c0.2,0.1,0.1,0.7,0.1,1.1
	c0.6,0.5,1.2,0,1.8-0.1c0.1-0.4,0.2-0.9,0.4-1.3c0-0.1,0.1-0.3,0.1-0.4l0,0c-0.1,0.1-0.1,0.2-0.2,0.4c-0.1,0.3-0.1,0.6,0,1
	c1.1,0.2,2.1,0.2,3-0.1l2,0.8l3.4,1.4c0.2,1.8,0.8,3.6,2,5.3c-1.2-0.4-2.5-0.6-3.8,0.5c-0.1,0.1-0.2-0.1-0.4-0.2
	c-2.5-1.9-2.2,0.2-2.6,1.3c-0.7-0.5-1.3-1.5-2.4-1c-0.6,0.3-0.7,0.8-0.6,1.3l-0.3,0c-2.1-1.8-1.7-4.7-4.6-5.9
	c-0.3,0.1-0.6,0.1-0.8,0.2c-0.4,0.4-0.7,0.9-1.5,0.7c-1.6,0.6-4.7,5.6-5.4,7.4c-1.1,2.7-0.7,5.4-0.5,8.1c0.3,3.3,2.1,6.1,5.1,8.2
	c1.6,1.1,3.7,2.1,5.5,0.5c1.2-1,2.2-0.5,3.6-0.6c-0.6-0.5-1-0.8-1.5-1.1c2.4,0.9,3.7-1.1,6.2,0.4c-0.4-0.8-0.6-1.2-1.2-2.2
	c3.2,1.6,6.1,1.2,9.4,1.7c-1.3-1.1-2.2-1.9-3-2.8c-0.7-0.8-1.5-1.7-1.6-3c3.2,2.4,6.2,4.6,10.9,4.4c-0.8-1.6-2.1-2.5-2.5-3.7
	c3.7-1.9,4.9,2.3,8,2.2c-0.3-1.1-1.5-1.6-1.6-2.6c1.2-0.1,1.9,1.2,3.2,0.7c-0.3-0.8-0.5-1.6-0.9-2.7C89.7,134.3,91,136.1,93.6,135.1
	z M71.6,121.6c1.5-3,3.4-5.6,6.7-7.1c-2.7,2.1-4.4,4.7-6,7.4C72.1,121.8,71.8,121.7,71.6,121.6z"/>
<path class="st14" d="M106.7,129.3c0-0.4-0.5-0.2-0.7-0.4c-3.2-3.7-4.4-8-4.2-13.1c-1.7,2.1-1.3,4-2,5.9c-0.3-0.9-0.5-1.4-0.7-2
	c-0.2-0.6-0.5-1.1-1-2.1c-0.8,5.9,1,10.6,4.8,14.9c0.5,0.5,1,0.9,1.6,1.4c-1.3-1.4,0.8-2.9-0.8-4.7c1.8,1,3,1.6,4.6,2.5
	C107.5,130.5,107.1,129.9,106.7,129.3z"/>
<path class="st14" d="M71.8,22.1c-0.5-0.6-0.9-1.1-1.4-1.7c-1-1.3-2.2-2.4-4.3-1.6c-0.1,0-0.2,0-0.3,0c-5.9-1.1-7.9,2.6-10.2,6
	c-0.5,0.8-1.1,1.6-1.6,2.3c-0.3-0.1-0.5-0.2-0.7-0.4c-0.8-2.9-0.2-4.9,1.8-5.7c0.1,0,0.3,0.1,0.4-0.2c1.3-3.7,4.1-6.2,8.2-7.6
	c3.2-1,6.4-0.6,9.1,1.3c1.3,0.9,3.1,1.1,3.9,2.6c1.9,1.3,1.7,3.1,1.6,4.8c0,0.8-0.6,1.4-1.7,1.4C76,23,76.6,22,76,21.5
	c0.4,0.5,0.5,1.1,0.3,1.8C74.4,23.8,73.3,22.3,71.8,22.1z"/>
<path class="st14" d="M54.1,27.2c-0.5,3.1,0.1,6,2.4,8.5c-0.4,0.5-0.4,1.1-0.4,1.7c-0.1,1.4-0.8,2.7-2.4,2.9c-1.4,0.1-1.5-1.4-2-2.3
	c-1.1-3.5,0.3-6.9,0.5-10.3c0.1-0.7,0.4-1.7,1.6-0.7C53.9,27,54,27.1,54.1,27.2z"/>
<path class="st15" d="M165.6,45.2c-0.2-0.3-1.2-0.5-1.4-0.8c-0.5-0.5-0.9-1.8-1.4-2.2c-0.8-0.7-2.8-1.8-3.8-2.3
	c-0.7-0.3-2.3-0.8-3.1-0.9c-0.7-0.1-2.2,0-2.9-0.2c-0.7-0.1-2-0.7-2.6-1c-0.3-0.2-0.9-0.6-1.2-0.8c-0.4-0.3-1.8-0.7-2.1-1.1
	c-0.2-0.3-0.2-1-0.1-1.3c0.1-0.4,0.8-1.2,1.1-1.5c0.3-0.3,1.1-1.1,1.5-1.4c0.2-0.1,0.1-0.3,0.1-0.5c0-0.4-0.1-0.3-0.5-0.6
	c-4.3-2.7-5.9-1.6-7.6-0.9c-1.3,0.5-4,1.6-5.3,2.1c-1.4,0.6-4.4,1.7-5.6,2.7c-1.5,1.2-3.5,3.8-4.4,5.3c-1.3,2.1-2.8,6.6-4.1,8.6
	c-0.7,1.1-2.5,5.2-3.4,6.2c-1.5,1.7-3.9,4.4-5.8,5.7c-1.2,0.8-4.8,0.9-6.2,1.4c-1.1,0.3-3.7,0.2-4.5,0.9c-1,0.9-1.8,4-1.1,5.1
	c0.1,0.2,0.8,0.3,1.1,0.3c1.3-0.1,3.4-1.4,4.5-2c0.5-0.3,1.3-1.4,1.8-1.1c0.4,0.3-0.7,1.6-0.7,1.6s5.6-4.2,6.6-2.8
	c1,1.4-4.5,3.1-6.1,4.1c-1.3,0.8-4.1,2.2-5.5,2.7c-1.7,0.6-5.2,1.6-7,1.8c-2.2,0.2-6.6-0.7-8.8-0.9c-1.8-0.2-5.4-0.6-7.1-0.5
	c-1.3,0.1-4,0.7-5.3,1c-1.5,0.4-4.5,1.4-5.8,2.1c-1,0.6-2.5,2.1-3.3,2.8c-0.8,0.6-3.1,2.5-3.1,2.5s2.6-1.5,3.1-1
	c0.6,0.6-1.8,2-2,2.7c-0.2,0.7,0,2.3,0.1,3.1c0,0.3,0.3,1.3,0.3,1.3s0.8-1.5,1.3-1.9c0.6-0.6,2-1.4,2.8-1.8c0.9-0.4,3-0.9,4-1.2
	c1.5-0.4,4.4-1.2,5.9-1.6c1-0.3,3-0.9,4-1.1c0.8-0.1,3.1-0.7,3.2-0.1c0.2,1.2-4.1,1-5.4,1.4c-2.5,0.8-7.8,1.9-9.9,3.3
	c-0.6,0.4-1.5,1.5-1.8,2.1c-0.2,0.5-0.2,2.1-0.2,2.1s1.5-0.7,2-1c0.7-0.4,2.1-1.5,2.8-1.8c0.6-0.3,2.1-1.4,2.6-1
	c0.3,0.2-0.3,1.2,0.1,1.4c0.6,0.3,1.7-1.1,2.3-1.4c1.7-0.7,5.3-1.7,7.1-2.1c2.5-0.5,7.7-1.2,10.3-1.4c2.4-0.2,7.3-0.2,9.7-0.6
	c1.7-0.2,5-0.9,6.5-1.5c1-0.4,6.9,0.2,9.4-5.6c0.7-1.6,3.3-9.6,3.8-10.5c0.5-0.9,1.2-2.8,1.6-3.7c0.6-1.3,0.7-4,1.6-5.2
	c0.7-1,2.2-3,3.3-3.7c0.8-0.5,2.7-0.9,3.6-1.1c0.5-0.1,1.7-0.4,1.9,0c0.3,0.7-2.9,1.1-3.4,1.7c-0.3,0.4-1.4,2-1.5,2.5
	c-0.1,0.4-0.1,3-0.1,3s4-2.5,5-2.9c0.4-0.1,1.3-0.9,1.5-0.6c0.7,0.9-2.7,2.2-3.5,3c-0.8,0.8-2.2,2.3-2.8,3.2
	c-0.6,0.9-1.2,2.8-1.8,3.7c-0.4,0.6-1.3,1.7-1.8,2.3c-0.3,0.3-1.2,1-1.2,1s2.3-0.3,3-0.6c0.7-0.4,1.8-1.6,2.3-2.1
	c0.6-0.6,1.9-1.8,2.5-2.4c0.8-0.6,2.4-1.8,3.3-2.3c0.9-0.6,3-1.5,4-1.9c1.3-0.6,3.8-1.7,5.2-2.1c1.1-0.3,3.3-0.6,4.4-1
	c1.1-0.4,3.2-1.5,4.3-1.9c1-0.4,3.3-0.7,4.3-1.1c0.9-0.3,2.7-0.8,3.5-1.2c0.6-0.3,1.8-0.8,2.1-1.3C165.8,46.4,165.8,45.5,165.6,45.2
	z M141.7,33.4C141.7,33.4,141.7,33.4,141.7,33.4L141.7,33.4C141.7,33.4,141.7,33.4,141.7,33.4c-4.4,0.1-7.3,1.9-8.9,5.6
	c-0.3,0.6-0.8,1.2-1.2,1.8c-0.5,0.9-0.5,0.9,0.2,2.3c0.1,0.2-0.2,0.7-0.4,1c-0.5,0.9-1.1,1.7-1.3,2.7c-0.3,1.1,0.5,1.1,1.4,1
	c-1.1,2.3-3.1,0.9-4.7,0.8c-0.2-0.2-0.2-0.3-0.3-0.6c0-0.5,0.3-1,0-1.4c0-0.1-0.1-0.2-0.1-0.3c0.4-1.4,1-2.6,1-4.2c0-2.3,2-4,4-5.4
	c2.8-2,5.9-3.9,9.7-4.1C141.8,32.5,142.8,32.4,141.7,33.4z"/>
<path class="st14" d="M126.9,48c-1.4-0.4-0.8-1.1-0.5-1.8c0.4-0.1,0.9-0.5,1.1,0.2C127.8,47.1,127.7,47.6,126.9,48z"/>
<path class="st14" d="M171.9,54c-1.6-1.8-2.8-3.8-3.8-5.9c-0.4-1-1-2.3,1.2-2.4c0.5,0,1.1-0.1,1.6,0c0.7,0.2,1.9-1.8,2.1,0.4
	c0.3-0.1,0.7-0.1,1-0.2c0.9-0.4,1.8-0.8,2.9-1.3c-0.7-0.2,0.8-0.8,2-0.9c1.2-0.1,1,0.5,0.7,1.1c-2.2,0.7-2.6,2.3-2.6,4
	c0.4,0.8,0.5,1.7,0.9,2.5c0.1,2-0.9,2.2-2.7,1.5c-1.1-0.1-1.5-1.2-2.5-1.4c0.2,0.4,0.4,0.8,0.3,1.3C172.8,53.3,172.6,53.8,171.9,54z
	"/>
<path class="st14" d="M126.6,64.5c0,0-4.7,7.6-5.6,10.4c-1,3-1.8,9.4-1.6,12.5c0.2,2.8,1.9,8.3,2.9,10.9c1.5,3.9,4.7,11.1,7.7,14.4
	c1.2,1.4,4.6,4.2,6.2,5.2c1.8,1.1,6.2,4.2,7.7,2.8c0.9-0.7-2.4-0.9-3.2-1.8c-0.5-0.6-2.7-2.5-3.3-3c-1.7-1.6-4.6-4.1-6-5.9
	c-1.6-2-3.5-6.6-4.6-8.9c-1-2.1-3.1-6.4-3.7-8.6c-0.7-2.7-1.6-8.2-1.4-11c0.1-2.1,1.2-6.2,2-8.2c1.1-2.5,5.9-9.5,5.9-9.5L126.6,64.5
	z"/>
<path class="st14" d="M110,88.7c1.2,0,2.2,0.3,3.4,1.2c-1.2,0.1-2.2,0.2-3.2,0.3c0,0.5,0.7,0.3,0.7,0.5c0.2,0.7-0.5,0.4-0.8,0.4
	c-2.9,0.3-5.8,0.4-8.7,0.2c-6.7-0.5-13.5-0.2-20.3-0.3c-0.7,0-1.4,0.2-2,0.3c-2.1-1-4.2-2-6.3-3c3.5-4.1,8.5-6,14.1-6.8
	c1.7-0.3,3.4-0.7,5.2-0.4c3.6,0.5,7.1,0,10.7-0.2c1.4-0.1,2.5,0.1,3,1.2c0.4,0.9-0.8,1.8-2.8,2.2c1.9,0.1,3.7,0,5.2,0.7
	c0.3-2.8,3.2-4.1,4.4-6.3c1.4-0.9,5.4-2.1,5.2-1c-0.2,1.9-0.1,5.7-0.9,7.5c-0.2,0.4,0.2,1.8,0.6,2.3c1.4,1.8-5.7,0.3-6.4,0.2
	c-2.3-0.5-4.6-1.1-6.8-1.7c-5.9-1.6-11.5-1.2-16.8,1.6c-0.7,0.4-1.9,0.8-1.6,1.6c0.3,0.9,1.5,0.5,2.3,0.5c2.5,0.1,4.9-0.1,7.4,0.3
	c-2.6-1-5.4-0.9-8.4-0.9c0.9-1,2-1.4,3.3-1.6c1.9,0,3.7-0.7,5.7-0.8c3.7-0.2,7,1,10.5,1.7C107.7,88.5,108.8,88.7,110,88.7z"/>
<path class="st14" d="M100.4,91c1.6,0,3.2-0.1,4.8-0.1c1.3,0,3.3-0.4,3.3,1c0,0.9-0.8,2.5-2.4,3c-1.5,0.5-3.2,0.7-4.4,1.9
	c1,0.9,1.9-0.3,2.7,0.1c-0.4,2.2-0.5,2.1-2.8,2.2c-3.1,0.1-6.2-0.2-9.1-1c-5.8-1.4-11.4-3.5-17.8-2.5c3-2.9,1.6-7,6-6.7
	c0.4,0.1,7.5,1.8,7.9,1.9c0.8,0,7.9-0.7,8.2,0.1c0.3,0.7-8.1,2.8-8.6,3.3c-0.4,0.4-2.1,0.6-0.4,1.4c0.7,0.2,1.4,0.4,1.9,0.6
	c-0.5-0.1-1.1-0.3-1.8-0.5c-1.7-0.8-0.6-1.1,0.3-1.3c2.7-0.5,5.2,0.2,7.4,1.3c-0.7-1.8,1.1-2.2,2.5-2.7c0.6-0.2,2.1,0.4,1.4-1.1
	C99.4,91.7,99.9,91.2,100.4,91z"/>
<path class="st14" d="M98.4,105.6c-1.3,0.7-2.8,1-4.2,1.3c-2.5-1.2-5.4-1.2-8.2-1.3c-0.7,0-1.8,0.4-2.1-0.4
	c-0.3-0.7,0.5-1.3,1.1-1.7c1.8-1.4,3.7-2.5,6.3-2.5c0.9,0,1.7,0,2.6-0.2c-4.3-0.7-8.4,0.4-13.1,1c4-2.8,8.1-3.1,12.4-2.5
	c3.6,0.5,7.1,1.2,10.6,0.2c0.3-0.1,0.8-0.4,0.7,0.2c-0.4,2.5,1.2-0.3,1.4,1.1c-0.1,0.5-2.3,1.6-0.2,2.9c-1.7,0.5-3.4,1.1-5.3,1.3
	C100.1,105,98.4,105.1,98.4,105.6z"/>
<path class="st14" d="M117.7,101.8c-0.2,1-1,1.7-1.9,2.3c-0.7-4-2.7-4.9-7.1-3.3c-0.7,0.3-0.8,0.2-1.6,0.6c0.5-1.3,1.4-1.3,2.4-1.9
	c1-0.6,2-1.1,3-1.6c-0.6-1-1.5-0.4-2.2-0.8c1.5-1,3.3-0.9,4.6-1.3c1.9-2-5.9-1.4-1-4c1.4-0.8,2.4-0.9,3,0.7
	c-0.1,0.7,0.2,1.3,0.6,1.9c0.6,0.8,0.7,1.6,0.1,2.5C116.4,98.4,116.4,100.1,117.7,101.8z"/>
<path class="st14" d="M104.7,116.5c-3.6-2.2-6.5-5.3-11.3-6.5c1.9-0.9,3.4,0.3,5-0.2c-1-1.4-4.2-2.5-5.3-3.4
	c3.2-1.1,9.4-1.6,12.6-2.7c1.2,0.4,0.1,1.6,0.3,2.6c1.1,0.6,2.1-0.2,3.2-0.1c1.7,0.1,0,0,3.7-0.1c-0.1,0.4,8.2,0.2,8.5,0.5
	c-1.4,2-6.7,7.8-9.1,9.6C109.7,116.1,107.2,116.6,104.7,116.5z"/>
<path class="st14" d="M122.7,111.4c0,1.1,2.7,2,2.7,3.1c0.8,0.3-1.4,1.9-0.5,2.2c0,0.3-8.9,3.5-9,3.8c-0.2,0.7,1.1,1.5,0.1,2
	c-0.8,0.4-1.8-0.1-2.7-0.5c-2.5-1-9.2-4.3-10.1-6.5C104.3,114,120.7,112.4,122.7,111.4z"/>
<polygon class="st14" points="122.7,111.4 121.4,106.6 116,108.7 115,112.2 118.4,114.7 "/>
<path class="st1" d="M116,136.6c-0.1-0.9-0.5-1.7-0.8-2.3c-0.2-0.5-0.4-0.9-0.4-1.1l0-0.1l0-0.1c-0.1-1.6-1.1-2.6-1.8-3.4
	c-0.1-0.1-0.2-0.2-0.3-0.4l-0.4-0.5l-0.3-0.1c0,0,0,0,0,0c-0.4-0.5-1.1-1.5-2.7-1.7l-1.4-0.2l-0.2,0.3c-0.6-0.4-1.3-0.6-2-0.5
	c-0.5,0.1-1.1,0.3-1.7,0.9c0,0-0.1,0.1-0.1,0.1c-0.2,0-0.7-0.1-1-0.2c-0.4-0.1-0.9-0.3-1.4-0.3c-1-0.2-2.1-0.4-3.1-0.6
	c-2.2-0.4-4.4-0.8-6.8-1.1l-2.2-0.2c-1.1-1.4-2.4-2.7-3.6-3.8c-0.1-0.1-1.2-1.1-2.6-0.9c0,0-0.8,0.1-0.8,0.1
	c-0.4-0.2-0.8-0.4-1.3-0.5c-0.1,0-0.4-0.2-0.5-0.2c-0.6-0.3-1.2-0.6-2.1-0.5l-0.9,0.1l-0.6,0.6c-0.1,0.1-0.3,0.2-0.3,0.2
	c-0.3,0-0.9-0.2-1.4-0.3c-0.7-0.2-1.5-0.4-2.3-0.5c-0.7,0-1.4-0.1-2.1-0.2c-1.8-0.2-3.7-0.4-5.8-0.2l-12.8-0.3
	c-0.2-0.1-0.4-0.1-0.7-0.1l-0.5-0.2l-0.1,0.2l-0.9,0.1l-0.6,0.8c-0.1,0.2-0.2,0.4-0.3,0.6c-0.1,0-0.2,0-0.2,0
	c-1.1,0.1-1.8,0.6-2.4,1c-0.1,0.1-0.2,0.1-0.3,0.2c-2.6-0.7-4.7-0.7-6.7-0.6c-1.3,0.1-2.5,0.1-3.9-0.1l-0.2,0c-0.4-0.1-1-0.1-1.6,0
	c-1,0.1-1.8,0.6-2.3,1.3c-0.1,0.2-0.2,0.3-1.1,0.4c0,0-0.8,0.1-0.9,0.1c-0.3,0-0.8,0.1-1.3,0.2l-1.4,2.9c-0.1,0-0.1,0-0.2,0.1
	c-1.3,0.5-2.1,1.3-2.3,2.3c-0.1,0.4-0.1,0.7,0,1.1c-0.2,0.1-0.3,0.2-0.5,0.2l-1.4,2c0.3,2.5-0.4,4.2-1.1,6.1c-0.7,1.9-1.5,4-1.5,6.8
	c-0.4,1.7-0.1,3.4,0.1,4.8l0.1,0.5l0.1,0.2c0.6,1.4,0.4,1.8-0.4,3.3c-0.3,0.5-0.6,1.2-1,2c-1.6,3.4-0.8,6.5,0.1,9.2l0,0.1
	c0.5,1.7,1.6,2.3,2.5,2.5l1,3.5c0,0.1-0.1,0.2-0.1,0.3c-1.6,3.9-1.1,7.1,1.4,9c0.6,0.5,1.2,1,1.8,1.6c0.8,0.7,1.7,1.5,2.6,2.2
	c3.6,2.7,11.5,4.6,14.5,4.3c1.3-0.1,2.4-0.1,3.4,0.1c0,0,2.9,0.5,3.4,0.8c2.1,1.2,7-0.1,7-0.1c0.1,0,0.1,0,0.2,0
	c2.1,0.5,4.3,1,6.4,1.5l2.2,0.5l4.4,1.1l0.1,0c1.7,0.3,3.3,0.6,5,0.9c5.2,1.1,10.5,2.1,16.4,1.4c0,0-29.2-17.6-30.7-18.3l-0.4-1
	c-0.7-2-1.8-3.7-3.3-5.2c0.2,0,0.4,0,0.6,0c2.2-0.3,4.8-2.2,6.7-3.6c6.2,3,26.7,15.7,26.7,15.7c-0.9-2.5-5.7-8.7-7.5-10.3l-0.2-0.2
	c-1.5-2.1-3.7-4.7-5.5-6.5c-1.5-1.7-5.6-5.4-9.4-8.4l-0.3-0.8c-1-2.4-2.8-4.8-4.3-6.4c0.7,0.2,1.4,0.3,2.3,0.4l0.7,0.1l0.4,0.1
	c3.8,1.2,8,1.1,10.3,2.5c0,0,21.8,14.8,21.9,14.4c0.2-3.1-1.3-5.6-2.7-7.7c-0.4-0.6-0.7-1.2-1-1.8c-2-3.7-5-6.8-8-9.8l-0.1-5.2
	c0.9,0.3,1.8,0.5,2.7,0.8c1.6,0.4,3,0.8,4.4,1.3C95.6,144.5,118.8,137.6,116,136.6z"/>
<path class="st1" d="M143.1,161c-1.2-3.8-3.2-7.3-5.7-10.2c-1.7-2.8-4.2-6.2-8.5-8.3c-1.7-1.3-5.9-3.2-8.7-4.2
	c-0.1-0.9-0.5-1.7-0.8-2.3c-0.2-0.5-0.4-0.9-0.4-1.1l0-0.1l0-0.1c-0.1-1.6-1.1-2.6-1.8-3.4c-0.1-0.1-0.2-0.2-0.3-0.4l-0.4-0.5
	l-0.3-0.1c0,0,0,0,0,0c-0.4-0.5-1.1-1.5-2.7-1.7l-1.4-0.2l-0.2,0.3c-0.6-0.4-1.3-0.6-2.1-0.5c-0.5,0.1-1.1,0.3-1.7,0.9
	c0,0-0.1,0.1-0.1,0.1c-0.2,0-0.7-0.1-1-0.2c-0.4-0.1-0.9-0.3-1.4-0.3c-1-0.2-2.1-0.4-3.1-0.6c-2.2-0.4-4.4-0.8-6.8-1.1l-2.2-0.2
	c-1.2-1.5-2.5-2.7-3.6-3.8c-0.1-0.1-1.2-1.1-2.6-0.9c0,0-0.8,0.1-0.8,0.1c-0.4-0.2-0.8-0.4-1.3-0.5c-0.1,0-0.4-0.2-0.5-0.2
	c-0.6-0.3-1.2-0.6-2.1-0.5l-0.9,0.1l-0.6,0.6c-0.1,0.1-0.3,0.2-0.4,0.2c-0.3,0-0.9-0.2-1.4-0.3c-0.7-0.2-1.5-0.4-2.3-0.5
	c-0.7,0-1.4-0.1-2.1-0.2c-1.8-0.2-3.8-0.4-5.9-0.2l-12.9-0.3c-0.2-0.1-0.4-0.1-0.7-0.1L55,120l-0.1,0.2l-0.9,0.1l-0.6,0.8
	c-0.2,0.2-0.2,0.4-0.3,0.6c-0.1,0-0.2,0-0.2,0c-1.1,0.1-1.8,0.6-2.4,1c-0.1,0.1-0.2,0.1-0.3,0.2c-2.6-0.7-4.7-0.7-6.7-0.6
	c-1.3,0.1-2.5,0.1-3.9-0.1l-0.2,0c-0.4-0.1-1-0.1-1.6,0c-1,0.1-1.8,0.6-2.3,1.4c-0.1,0.2-0.2,0.3-1.1,0.4c0,0-0.8,0.1-0.9,0.1
	c-0.3,0-0.8,0.1-1.3,0.2l-1.4,2.9c-0.1,0-0.1,0-0.2,0.1c-1.3,0.5-2.1,1.3-2.3,2.3c-0.1,0.4-0.1,0.7,0,1.1c-0.2,0.1-0.3,0.2-0.5,0.2
	l-1.4,2c0.3,2.5-0.4,4.2-1.1,6.2c-0.7,1.9-1.5,4-1.5,6.9c-0.4,1.7-0.1,3.4,0.1,4.8l0.1,0.5l0.1,0.2c0.6,1.5,0.4,1.8-0.4,3.3
	c-0.3,0.5-0.7,1.2-1,2c-1.6,3.4-0.8,6.6,0.1,9.3l0,0.1c0.5,1.7,1.6,2.3,2.5,2.5l1,3.5c0,0.1-0.1,0.2-0.1,0.3
	c-1.6,3.9-1.1,7.1,1.4,9.1c0.6,0.5,1.2,1,1.9,1.6c0.8,0.7,1.7,1.5,2.6,2.2c3.6,2.7,11.6,4.6,14.5,4.3c1.4-0.1,2.4-0.1,3.4,0.1
	c0,0,1.6,0.9,2.1,1.2c2.1,1.2,8.3-0.5,8.3-0.5c0.1,0,0.1,0,0.2,0c2.2,0.5,4.3,1,6.4,1.5l2.2,0.5l4.4,1.1l0.1,0c1.7,0.3,3.4,0.6,5,1
	c5.2,1.1,10.6,2.2,16.4,1.5l8.1-1.6l-8.2-2.4c-2.2-0.3-3.7-1.1-5.5-2c-1-0.6-2.1-1.1-3.3-1.6c-0.5-0.2-1-0.5-1.5-0.8
	c-1.3-0.7-3-1.6-4.9-2.5c-1.9-1.2-6.3-3.2-10.5-5.2c-1.8-0.8-3.6-1.7-5-2.3l-0.4-1c-0.7-2-1.9-3.8-3.3-5.2c0.2,0,0.4,0,0.6,0
	c2.2-0.3,4.2-1.1,6.1-2.4c6.2,3,15.8,10.6,20.7,14.4c1.8,1.4,2.7,2.1,3.2,2.4l5.6,3.7l-2-5.8c-0.9-2.6-5.7-8.7-7.5-10.4l-0.2-0.2
	c-1.5-2.1-3.7-4.7-5.6-6.5c-1.5-1.7-5.6-5.4-9.4-8.5l-0.3-0.8c-1-2.4-2.8-4.9-4.3-6.5c0.7,0.2,1.5,0.3,2.3,0.4l0.7,0.1l0.4,0.1
	c3.8,1.2,7.1,2.6,9.5,4.1l0.8,0.5c6.5,4,13.2,8.2,17.4,14.6l2.9,4.5c0,0,1.7-6.3,1.7-6.7c0.2-3.1-1.3-5.6-2.7-7.8
	c-0.4-0.6-0.7-1.2-1.1-1.8c-2-3.8-5-6.9-8-9.8l-0.1-5.2c0.9,0.3,1.8,0.5,2.7,0.8c1.6,0.4,3,0.8,4.4,1.3c0.9,0.4,1.9,0.8,2.8,1.3
	c1,0.5,1.9,1,3,1.5c1.7,1.2,3.5,2.3,5.5,3.4c2,1.2,4,2.3,6.1,3.8l8,5.6l-4.5-8c-1-1.8-1.9-3.1-2.8-4.2c0.4,0.2,0.8,0.4,1.3,0.6
	c2,0.6,6.3,3.3,8.2,4.5c0.7,0.4,1.1,0.7,1.4,0.8c0.9,0.7,1.8,1.4,2.7,2c2.2,1.6,4.2,3.1,6,4.9c0.2,0.2,0.4,0.4,0.5,0.5
	c0.7,0.7,6.7,5.5,6.7,5.5S143.2,161.3,143.1,161z"/>
<path class="st9" d="M50.7,184.4c0.6,1.7,1.1,3.4,1.7,5.2l14.6-1.9c0.1-0.1,0.2-0.3,0.3-0.4c0,0.1,0.1,0.2,0.1,0.4l1-0.1
	c-2.2-1.4-4.5-2.9-6.7-4.3C58,183.6,54.3,184,50.7,184.4z"/>
<path class="st14" d="M116.8,134.8c-0.1,1.4,1.1,2.4,1.2,3.9c-2.8,0-5.5-0.9-8.3-0.3c-0.8,0.2-2.1-1.1-3.1-1.7
	c-0.9-0.5-1.8-1.1-2.7-1.7c0.5-0.7,1.5-1,2-0.6c1.2,0.9,2.4,0.4,3.5,0.1c1.9-0.6,3.7-0.6,5.4,0.3c-1.9-0.6-3.6-1.9-5.8-1.1
	c-0.6,0.2-1.2,0.1-1.7-0.2c-2.1-1.3-4.8-0.9-6.9-2.2c1.1,1.2,3.5,1.3,3.3,3.4c-3-1.6-7.1-2.1-8.1-5.9c3.3,0.3,6.5,1.1,9.8,1.6
	c1.5,0.2,3.2,1.4,4.7-0.2c0.4-0.4,0.7,0.1,1,0.3c0.6,0.5,1.1,1.1,1.7,1.6c1-0.4,0.2-1.1,0.6-1.6c1.1,0.1,1.1,1.3,2,1.5
	C115.8,132.9,116.7,133.7,116.8,134.8z"/>
<path class="st14" d="M26.3,150.9c-0.2-1.6-0.5-3.1-0.1-4.7c-0.1-5.5,3.2-7.9,2.6-13.4c2.5-0.9,5.6-4.4,4.2-6.5
	c1.6-0.4,3.6,0,4.7-1.8c0.3-0.5,1.1-0.3,1.7-0.2c4,0.5,6.7-0.6,10.4,0.6c2,0.6,2.7-2,4.6-1c0.9,0.5,1.7,0.2,1.3-1
	c-0.7-1.8,0.7,0,0.9-0.4c1.1,0.4,1.5,1.2,0.8,1.9c-1.4,1.3,0.2,1.8,0.6,2.7c-1.7,0.9-3.9,1.3-2.7,2c-2,0.1-3.2,1.8-5.1,1.9
	c-2.9,0.1-4.3,1.6-5.3,3.5c-0.7,1.3-1,2.7-2.2,3.7c1.7,1,2.2,2.3,1.9,4c-0.1,0.6,0.1,1.4,0.5,1.9c0.2,0.3,0.8-0.4,1.4-0.5
	c-1.7,4-6,2.5-9,3.5c1.8,0.9-0.2,1.9-0.5,2c-1.9,0.4-2.9,1.8-4.4,2.6c-1.2,0.7-0.5,2-0.3,3.3c0.2,1.5,0.5,3.2-0.2,4.8
	c-0.2,0.4-0.7,0.8-0.7,1.2c-0.1,1.3-2.1,1.7-1.6,3.4c0.3,1.3-2,2-3.5,2.4c-0.9,0.3-1.1-0.5-1.3-1.1c-0.8-2.7-1.4-5.3-0.2-8
	C26.3,154.5,27.5,153.8,26.3,150.9z"/>
<path class="st16" d="M132.8,153.5c1.3,1.1,2.6,2.2,3.4,3.6c-1.7-0.6-2.8-1.9-4.2-2.9C132.3,154,132.6,153.8,132.8,153.5z"/>
<path class="st14" d="M55.4,176.6c-2.6,1-5.3,2.1-7.9,3c-1.4,0.5-1.4,1-0.6,1.9c2,2.1,3.9,4.3,6.3,6.1c-1.7,0.5-3.6,0-4.9-0.6
	c-2.1-1-4.4-1.6-6.4-2.7c-1.1-0.6-3.1,0.5-3.2-1.4c-0.2,0.1-0.2,0.3-0.3,0.5c-0.5,0.7-1.2,0.7-1.6,0.1c-1-1.4-4.2-2-4.1-4.2
	c0-0.1-0.4-0.2-0.6-0.3c0-1.8-1.3-3.4-1.1-5.3c-0.1-1.3,2.1-1.7,2.6-2.7c0.7-0.6,1.1-1.5,2.4-0.9c0.3,1.2-0.9,2-1.2,3
	c-0.3,0.2-0.1,0.3-0.1,0.2c0.4-0.6,1.1-1.3,1.7-0.8c0.9,0.9-0.4,1.5-0.8,2.3c0.2-0.1,0.3-0.4,0.5-0.5c0.6-0.5,1.4-1.4,2.1-0.9
	c1.1,0.7-0.5,1.3-0.6,1.9c1.6-1.4,3.6-2.3,5.9-3c0.5-0.1,1.1-0.2,1.5,0.1c1.1,0.9,2.5,1.3,3.9,1.5c0.8,0.1,0.8,0.7,0.8,1.2
	c0.4,0.6,1,0.8,0-0.1c0.8-1,1.7-0.4,2.5-0.1c0.9,0.4,1.8,0.8,2.8,1.2C55.2,176.2,55.3,176.4,55.4,176.6z"/>
<path class="st14" d="M53.4,135.2c0.6-0.9-0.8-0.8-0.9-1.3c1.1-0.8,3-0.2,3.6-1.7c1.2-0.1,2.3-0.8,3.6-0.8c1.9,1.3-0.2,1.4-0.7,1.9
	c0,0.1-0.1,0.1-0.1,0.2c0,0.1,0.1,0.1,0.2,0.1c1.5-0.1,2.8-1.3,4.4-0.9c2.1,1.1,4.5,1.3,6.7,1.9c0.7,0.2,1.3,0.5,1.3,1.2
	c0.1,0.7-0.7,0.7-1.2,0.8c-0.1,0-1.7-0.1-2.8-0.2c-2,0-3.5,0.8-3,2.5c1,3.1,2.9,7.1,5.7,9.4c0.3,0.3-2.5-0.6-4.1-0.4
	c-1.7-0.2-2.5-1.4-3.4-2.4c-0.9-0.9-1.8-1.7-3.2-1.9c-0.6-1.5-2.7-1.4-3.7-2.6c-0.9-1.1-0.9-1.6,0.1-2c-1.1,0.6-2.3,0.7-3.2-0.6
	c-0.8-1.1-0.8-2.1,0.8-2.7C53.7,135.7,53.4,135.4,53.4,135.2z"/>
<path class="st14" d="M88.6,141c-2.1,1.8-2.2,1.4-3-0.8c-2.4-6.3-7.4-10.4-14.3-12.9c-0.8-0.3-1.6-0.5-2.4-0.7
	c-1-0.3-2.8,0.4-2.9-0.9c-0.1-1.9,1.5-3,3.6-3.2c2.5-0.3,4.9,0.2,7.4,0.4c2,0.1,4,1.8,6-0.1c0.1-0.1,1.1,0.6,1.8,0.7
	c1,0.1,1.6,2.2,3,0.5c0,0,0.4,0.2,0.6,0.3c1.8,1.7,4.3,4.2,5.5,6.9c-2.2-1.6-5.2-1.7-7.1-2.2c-1.9-0.5-2.5,0.4-2.6,1.8
	c0,1.4,0.4,2.8,1.2,4.1c1.3,2,2,2.9,3.3,4.8L88.6,141z"/>
<path class="st14" d="M36,169.7c0,0,0,0.1,0,0.1c-0.7,0.4-1.5,0.9-2.2,1.3c-1,1.1-2.9,1.8-2.4,3.7c0.3,1.5,0.7,2.9,1.7,4.2
	c0.4,0,1.3-0.7,1.1-0.2c-0.6,2.6,3.1,2.7,3.6,4.7c0.3-0.6,0.5-1.2,0.8-1.8c0.7,0.4,0.5,1.1,0.8,1.5c0.2,0.3,0.3,0.5,0.7,0.5
	c0.7-0.1,5.3,0.7,5.9,1.3c2,1.9,4.7,1.9,7.2,2.5c1.2,0.3,2.3,0.6,3.8,0.9c-1.8,0.9-3.4,0.9-4.7,0.1c-1.9-1.1-3.9-1.1-5.9-0.9
	c-5,0.5-9-1-12.8-3.8c-1.6-1.2-2.9-2.5-4.4-3.7c-2.1-1.6-1.8-4.5-0.8-6.9c0.7-1.9,1.3-3.8,2-5.7c0.4-1,1.2-1.6,2.5-1.6
	C35.1,166.3,36.1,167.4,36,169.7z"/>
<path class="st14" d="M52.8,161.5c-1.8,0.3-4,2.4-3.3,3.2c0.7,0.8-0.2,0.8-0.9,2.3c-5.1,0.9-11.4-4.3-11.1-9.5
	c0-0.8,0.6-1.1,1.2-1.5c1.7,0.5,4.9-2.3,5.6-0.4C44.8,157.2,50.3,161.1,52.8,161.5z"/>
<path class="st14" d="M47.3,162.6c1,0,2,0.1,3.2,0.1c-1.4-0.9-3.2-1.5-3.4-3.2c0-0.2-0.4-0.4-0.4-0.4c-2.3,1.4-1.9-0.8-2-1.4
	c-0.2-1.4-0.9-1.2-2.2-0.4c1-1.8,1.3-3.6,4-3.6c0.9,0,1.1-0.5,0.7,0.7c-0.3,0.9,0.7-0.2,1.1-0.1c0.2,0.1-0.4,1-0.4,1.3
	c0.4,3,3.5,3.6,5.8,5.1c2.9,1.9,5.9,3.6,9.8,5.1c-0.6,1.6-1.9,1.1-3.4,1c-1.5-1-3.2-1.3-5.1-1.3c-1.6-0.2-2.9,0.2-4.2,1
	c-0.7,0.3-1.4,0.8-2.3,0.4c-0.6-1-1.6-1.7-2.4-2.6c-0.4-0.5-0.9-1-0.5-1.6C46,162.2,46.8,162.9,47.3,162.6z"/>
<path class="st14" d="M53.4,135.2c0.4,0.2,1.1,0.5,0.3,0.9c-1.4,0.6-1.2,1.4-0.5,2.3c0.9,1.2,1.8,0.7,2.8,0.2c0.5-0.3,1-0.5,1.8-0.4
	c-0.8,0.6-1.6,1.2-2.5,1.9c1.8,0.5,2.2,3,4.8,2.1c0.1,0,0.5,0.2,0.6,0.3c0.2,0.8-0.9,0.8-1.3,1.2c-0.4,0.2-0.8,0.5-1.1,0.5
	c-2.8-0.6-5.5-0.4-8.3,0.3c-0.5,0.1-1.2,0-1.3-0.7C48.1,141.1,50.5,136.6,53.4,135.2z"/>
<path class="st14" d="M60,166.6c1.3,0,1.6-0.4,2.6-1c1.3,0.3,4.1,1.3,4.1,1.3c-4.5,3.7-9.7,3.4-15.9-0.2c-0.2-0.3-0.3-0.6-0.5-1
	c1.6,0.3,3.1-1.7,4.8-0.3C56.9,165.5,58.4,166.1,60,166.6z"/>
<path class="st14" d="M48.2,154.3c1.7-1.6,3.5-3.2,6.1-3.2c2,0,4,0,6.1,0.8c1.4,0.6,3.6,0.3,5.4-0.1c1.6,1.7,3.2,4,4,6
	c-1.2-0.6-2.7-1.9-3.7-2.6c-3.7-2.5-7.7-3.7-12.3-2.6c-1.7,0.4-3,0.5-5.4,2C48.4,154.5,48.3,154.4,48.2,154.3z"/>
<path class="st17" d="M85.8,174.5c-0.3-0.4-0.7-0.7-1-1.1c-1.9-1.9-3.6-4-5.6-5.8c-0.9-1-2.1-1.8-3.1-2.7c-0.6-0.5-1.2-1-1.9-1.5
	c-2.2-2.1-4.8-3.8-7.5-5.4c-0.8-0.5-0.8-0.5-1.3-1.3c-0.1-0.2-0.3-0.3-0.4-0.5c0,0,0,0,0,0c0.1-1.1-1-1.4-1.9-1.9
	c-3.1-1.7-6.4-1.8-9.9-1c-0.8,0.1-1.4,0.5-2.2,0.7c-2.9,0.9-3.3,2-1,3.7c4.9,3.7,10.1,6.9,16.4,8.6c0.1,0,0.3,0,0.4,0.1
	c8.1,3.1,24,16.6,25.9,17.8C92,182,87.4,175.9,85.8,174.5z M56.2,158.4C56.2,158.4,56.2,158.4,56.2,158.4
	C56.2,158.4,56.2,158.4,56.2,158.4C56.2,158.4,56.2,158.4,56.2,158.4z M72.3,164.9C72.3,164.9,72.3,164.9,72.3,164.9
	C72.3,164.9,72.3,164.9,72.3,164.9C72.3,164.9,72.3,164.9,72.3,164.9z M67.6,159.5C67.6,159.5,67.6,159.5,67.6,159.5
	C67.6,159.5,67.7,159.5,67.6,159.5C67.7,159.6,67.6,159.5,67.6,159.5z"/>
<path class="st16" d="M123.2,147c-0.2,0.1-0.4,0.2-0.6,0.3c-1.3-0.5-2.6-1-3.8-1.6C120.3,146,122,145.9,123.2,147z"/>
<path class="st18" d="M95,194.1c-4.1-0.5-10.1-4-10.4-4c-2-0.8-5.4-2.5-5.2-2.6c-0.4-1.2-12.7-6.4-17.7-8.9c-1.4-0.7-5.5-2.1-5.4-2
	c0,0-5.5,2.5-7.9,3.4c-1.1,0.4-1.3,0.8-0.6,1.6c2.9,3.1,5.7,6.4,10.8,6.8c1.4,0.2,1.7,0,2.5,0.1c2.9,0.7,5.8,1.4,8.7,2
	c1.4,0.4,2.9,0.7,4.3,1.1c1.2,0.2,3.2,0.5,3,0.4c0.8,0.2,1.6,0.4,2.4,0.6c-0.6-0.1-1.1-0.2-1.7-0.3c1.6,0.6,4,0.8,4,0.8
	C86.3,194,90.5,194.6,95,194.1z"/>
<path class="st17" d="M141,161.5c-1.1-3.5-2.9-6.8-5.5-9.6c-1.9-3.2-4.3-6-7.9-7.8c0,0,0,0,0,0c-1.3-1.2-7.1-3.8-9.4-4.3
	c-1.4-0.4-2.8-0.6-4.2-0.5c0,0,0,0,0,0c-0.3-0.1-0.7-0.2-1-0.3c-0.7-0.1-1.7-0.5-2,0.4c-0.3,0.7,0.7,0.9,1.2,1.3
	c2,1.6,3.5,3.4,4.8,5.4c0.5,0.8,1,1.5,2.1,1.8c3.1,0.9,9.8,5.5,10.1,5.6c3.1,2.4,6.4,4.5,9.1,7.2c1,1,1.4,1.6,3.2,2.7
	C141.5,163.3,141.2,162,141,161.5z"/>
<path class="st17" d="M97.6,159.6c-2.7-5.1-7.4-9-11.6-13.2c-2.6-1.9-3-3-3-3c-1-1.4-1.3-1.6-2.2-2.9c-0.6-1-0.9-1.2-1.7-1.5
	c-0.4-0.1-0.7-0.1-1.1-0.2c-1.2-0.3-5.4-0.9-7.1-1.3c-1-0.4-2.3-0.2-3.4-0.4c-2.2-0.2-2.7,0.5-2.2,2.4c1,3.4,3,6.2,5.8,8.7
	c0.2,0.4,0.3,0.7,0.7,1c3.6,1.1,7.2,2.5,10.1,4.3c7,4.3,14.2,8.7,18.8,15.8c0.2-0.7,0.3-1,0.3-1.3C101.3,165,99.1,162.4,97.6,159.6z
	"/>
<g>
	<path class="st17" d="M89.2,140.8C89.2,140.8,89.2,140.7,89.2,140.8C89.2,140.7,89.2,140.7,89.2,140.8L89.2,140.8z"/>
	<path class="st17" d="M110.7,145.7c-2.2-2.4-7-7.8-11.2-10.4c-0.9-0.6-3.1-1.9-5.7-3.1c-0.6-0.3-1-0.6-0.4-0.7
		c-2.2-1.3-4.7-1.6-7.2-1.8c-1.1-0.1-1.3,0.2-1.2,1.1c0.1,1.6,0.6,3,1.4,4.4c1,1.8,2.9,3.3,3,5.5c3.3,1.5,7.1,2,10.5,3.3
		c2.2,0.8,5.3,2.9,7.5,3.7c0,0,6.2,3.6,10.5,6.6C115.4,150.2,113.7,148.9,110.7,145.7z M95.2,135.3
		C95.2,135.3,95.2,135.3,95.2,135.3C95.2,135.3,95.2,135.3,95.2,135.3C95.2,135.3,95.2,135.3,95.2,135.3z"/>
</g>
<path class="st9" d="M75.2,138.7C75.2,138.2,75,138.1,75.2,138.7L75.2,138.7z"/>
<path class="st16" d="M54.6,181.5c0,0,23.2,4.9,28.5,8.7c1.3,1-6.5-2.2-7-0.6l6.2,2.5c0,0-6.2-0.6-8.2-1c-4.6-1-17.9-5.6-17.9-5.6
	s7.2,2.2,6.7,0.9C62.3,184.1,54.6,181.5,54.6,181.5z"/>
<path class="st16" d="M55.7,158.3c0,0,14.3,5.1,26.3,15.3c6.7,5.7-7.4-7.2-9.7-8.7C70,163.4,57.8,157.4,55.7,158.3z"/>
<path class="st16" d="M54.8,154.6c8.7,1.2,10.6,2.8,21.2,10.6c0,0-7.8-7.5-11-9.2C61.2,154.2,54.8,154.6,54.8,154.6z"/>
<path class="st19" d="M53.7,156c0,0,15.7,3.7,32.1,20c0,0-5.1-8.6-15-14.5C61.1,155.7,53.7,156,53.7,156z"/>
<path class="st16" d="M74.5,148c7.9,3.6,12.6,7.3,12.6,7.3s-0.6-1.1,1.2-1.2c0.8,0,6.9,6.5,6.9,6.5s-5.8-8.3-10.9-12.2
	c-5.1-3.9-10.6-6.3-10.6-6.3s5,4.3,5.5,4.9c0.5,0.6-4-2.1-5.6-1l4.9,2.4L74.5,148z"/>
<path class="st19" d="M88.1,151.8c-2.9-2.7-6-5.1-9.4-7.3c-2.2-2.4-5.6-3.3-8.6-4.7c8.4,1.1,13.8,5.9,18.7,11.4
	C89.2,151.7,88.8,151.8,88.1,151.8z"/>
<path class="st16" d="M95.2,135.3c4.5,2.3,8.4,5.2,11.7,8.8c0,0.4-0.2,0.6-0.6,0.3c-1-0.3-1.6-1.6-3.1-1.1c0.6,1.3,2.6,1.5,3,2.9
	c-2.5-0.7-4.4-2.2-6.5-3.4c-2.5-1.4-4.9-2.9-7.4-4.4c2.1,0.1,4.1,1.7,6.3,0.6c-2.2-0.8-2.8-3.4-5.8-3.9
	C93.9,134.7,94.5,135.2,95.2,135.3z"/>
<path class="st16" d="M119,145.8c0,0,4.5,2.2,9.8,5.7c5.3,3.5,7.4,6,7.4,6s-1.7-4.2-6.1-7C123.8,146.4,119,145.8,119,145.8z"/>
<path class="st16" d="M114.2,139.9c0,0,4.5,0.6,6.7,1.7c2.2,1.1,4.9,2.8,6.6,2.5c0,0-6-3.3-8.2-4
	C116.6,139.3,114.2,139.9,114.2,139.9z"/>
<path class="st19" d="M114.8,140.1c0,0,7.5,2.8,12.8,8.1c5.3,5.3,9.7,10.5,9.7,10.5s-0.5-4.4-8.4-12
	C120.9,139.2,114.8,140.1,114.8,140.1z"/>
</svg>
