<svg version="1.1" id="Layer_1" xmlns="http://www.w3.org/2000/svg" x="0" y="0" viewBox="0 0 200 200" xml:space="preserve"><style>.kel_st1{fill:#515251}.kel_st2{fill:#151a15}.kel_st3{fill:#010100}.kel_st4{fill:#013001}.kel_st5{fill:#797979}.kel_st7{fill:#e4d176}.kel_st8{fill:#003000}.kel_st9{fill:#fdfdfc}.kel_st10{fill:#e6d176}.kel_st11{fill:#fcfcfb}.kel_st12{fill:#ead064}.kel_st13{fill:#f0dd4f}</style><path d="M20.1 48.7l2 .3.6.3c.8 0 1.5.3 2.4.2.2 0 .5-.1.7.2l.2.1a40 40 0 006.8-.2c.4-.2.9 0 1.4-.2.2 0 .3-.4.5-.3h.3l3.2-1.6 1.4-.9 2.7-1.7.4-.3c.1 0 .2 0 .2-.2.1.1.2 0 .2 0l5.9-4c.4-.2.9-.3 1.1-.7.6 0 1-.5 1.4-.7.4-.2.9-.2 1.1-.7.4.1.7-.1 1-.4l.5-.1c.3 0 .3-.2.5-.4l.5-.1.4-.2.2-.1.9-.3c.1-.1.3-.2 0-.3.1-.3.3-.4.5-.2.3.3.5.2.7 0 .2-.2.5-.2.8-.3.3-.1.7-.1 1-.4l1.4-.3c.3-.1.3-.1.2-.2 0-.2.1-.4.3-.3.6.6 1.1-.2 1.7.1 0-.3-.3-.2-.3-.4.4-.3.7.1 1 .1.7 0 1.5 0 2.2-.4l3.7-.3h3.9l2.7.2a3 3 0 011.6.3c.4.2.9.2 1.3.3H79.9l.3.1c.4.5.9.3 1.4.4l.2.1c.3.5.7.4 1.1.3h.3c.3.4.6.1.8 0 .6-.4 1.3-.6 1.9-.9h.1l.4-.1.3-.1 2.9-1.1 1.7-.5c.8-.1 1.5-.7 2.4-.6.2 0 .4-.1.5-.3l.2-.1c.5-.1 1.1 0 1.6-.3.1 0 .3 0 .4-.2l1.4-.2c.2 0 .5-.1.4-.3-.3-.4.1-.3.2-.4l2.5-.5a66.4 66.4 0 0127.8.5c.2 0 .6-.1.5.4l-.2.1c-.1.1.1.2.2.2l1.5.1h.4l.1.1c.4.3.8.4 1.2.3h.2c.1.1.1.3.3.3.5 0 .9.4 1.4.2h.2c.4.4.9.7 1.3.4.3-.2.4 0 .6 0-.1.1-.4.1-.4.3l.6.2h.6c.2.1.4-.4.5.1-.3 0-.2.2 0 .3.3.2.7.2 1.1.2l.2.1.2.2c.9.3 1.8.6 2.6 1.1.1.1.2 0 .4 0l.1.1.3.2c.6.4 1.2.6 1.8.8.2.1.4 0 .5.3.1.3.4.2.6.2l.5.3c.1.3.3.1.5.2l.4.2c.4.4.9.5 1.3.8.3.5.9.4 1.3.8l1.1.7c.1.1.4-.1.4.2.1.4.5.1.7.4.5.7 1.3.9 2 1.4l1.8 1.3c.4.3.7.7 1.3.7 0 .3.3.3.4.5.1.5.6.5.8.7l2 1.6.4.4c.1.3.4.3.5.4 1.9 1.9 3.9 3.7 5.6 5.8.1.2.3.2.5.2l.2.5.1.1.1.1.4.4c.3.6.9 1 1.2 1.6.1.2.2.2.4.2.2.3.1.7.5.9l.6 1c.1.2.5.1.5.4-.1.2 0 .3.1.4.5.7 1.1 1.4 1.5 2.2.3.5.8.8.8 1.4 0 .4.3.2.4.1.2.1.1.3.1.5-.1.3.2.4.4.5v.2l.1.2c.1.3.3.3.5.3-.2.2 0 .3 0 .5-.1.3.1.3.3.3.6.2.1.6.2.9.4-.1.7.1.6.5-.1.2 0 .3.1.3.2.3.1.7.5.9l.1.1c.1.3 0 .8.5.9l.1.1.1.8c0 .2.1.3.3.2.2 0 .3.2.3.4-.1.4-.4.8.4.8.2 0 0 .3.1.4-.1.4 0 .6.4.7l.1.2c.1.3-.2.7.2.9.4 0 .4.2.4.5-.1.3-.1.7.3.8.2.1.1.3.2.4v.4c0 .2-.1.5.3.5.3 0 .2.2.2.4v.6c0 .1-.1.3.1.4.1.1.2 0 .2 0 .2.1.3.3.2.5v.7c0 .1 0 .3.2.3.5 0 .2.4.3.6v.7l.1.4c.4.1.7.3.5.7-.1.3 0 .6 0 .8-.1.1 0 .1 0 .2v.1c.7.1.5.4.4.9v1.2l.1.2c.4.1.4.1.4.5-.1 0-.1.1 0 .2l.1 1c-.1.1 0 .2 0 .4.2.2.6.3.5.7-.2.8 0 1.7 0 2.5l.1.3c.2 0 .1-.2.3-.3.1.4.2.8.1 1.2l-.1.1.2 3.6c0 .4 0 .8.2 1.3l.1-.8c.2.6.3 1.2.2 1.8l-.1.2v5.1c0 .1-.1.2.1.3.1.8 0 1.5-.1 2.3l-.1-1.1-.2 1.8-.1 2.5c0 .2 0 .5.3.6l-.1.2c-.3.1-.1.6-.2.6-.6.1-.3.5-.4.8v.7c0 .2.1.2.3.3.1.2.3.2.5.3 1 .2 1.7.8 2.5 1.3 1.8 1.2 3.3 2.8 4.7 4.3.2.3.3.6.7.8l.2.3 1.7 2.3c.2.3.1.7.5.9-.1.1-.1.1 0 .2l.3.3c.4.8.5 1.7 1 2.5v.2c-.1.8.2 1.5.4 2.1v.5 5.1l-.1.6c-.3.8-.5 1.6-.4 2.5l-.1.4c-.3.5-.6 1-.4 1.6v.2a3 3 0 00-.5 1.2c0 .2-.2.3-.3.5l-.1.2c-.2 0-.1.2-.1.3l-.3 1c-.3.1-.3.4-.4.6v.4l-.2.2c-.1.3-.3.5-.2.8 0 .2-.2.2-.3.3-.5.4-1 .3-1.6.3-.5-.1-.7-.6-.9-1-.8-1.7-2-3.2-3.4-4.5-.7-.7-1.6-1.4-2.5-2-.9-.7-2-1.2-3-1.8-.5-.3-1.2-.2-1.5-.8l-.7-.1-.5-.2c-.9-.3-1.8-.2-2.8-.1-.3 0-.4.3-.5.5l-1 1.8-.1.2c-.5.6-.7 1.4-1.3 2-.1.1-.2.3.1.3l.1.1-.1.1c-.3-.4-.3 0-.4.1l-.5.7c-.1.1-.3.3 0 .4.1.1.1.2 0 .2-.8.2-1 1-1.4 1.5-.4.6-.9.9-1.2 1.6l-.3.5c-.5.7-1.2 1.2-1.6 2l-.2.4-1.6 1.8-3 3.1-2.3 2.3-2.4 2c-.6.3-1 .8-1.5 1.2-.3.3-.8.4-1 .8l-1.5 1-.3.1c-1.2.9-2.4 1.8-3.7 2.5-.2.1-.4.2-.4.4-.8.2-1.4.8-2.2 1.1l-1.8 1-2.7 1.4-2.9 1.3-.4.2c-.3.1-.7 0-.9.4l-1.4.4-.5.2-.7.2-.2.1-.2.1.1.1c-.1-.1-.3 0-.4 0l-.9.2h-.1-.1l-.4.2-.9.2-.3.1-.5.2-1.1.2c-.2 0-.3 0-.3.2l-.3.2v-.1l-.1-.1-1.1.1c-.1 0-.3-.1-.4.1l-.6.2a44.8 44.8 0 01-10 1.7c-4.9.3-9.8.3-14.6-.4-2.1-.3-4.2-.5-6.2-1.1-.4-.1-.8-.1-1.1-.5-.6-.1-1.2-.2-1.8-.1-.3-.5-.8-.6-1.3-.4-.5.2-.6-.1-.8-.4a.3.3 0 00-.4 0h-1c-.2-.5-.6-.6-1.1-.5l-.5-.1c-.6-.5-1.4-.3-2-.8h-.3c-.4.2-.5-.1-.7-.3-.3-.3-.8-.1-1.1-.4-.2-.3-.4-.2-.7-.3-.4 0-.5-.5-.9-.4-.7-.2-1.3-.6-2-.9l-2.2-1.1-1.9-1.1-.4-.3-1.7-.9c-.2-.3-.5-.4-.8-.5-.2-.1-.3-.3-.6-.2-.6-.7-1.4-1-2.1-1.5l-1.1-.8-.2-.2-.2-.1-.3-.2c-.5-.2-.9-.5-1.3-.9-.2-.2-.3-.5-.7-.4.1-.1 0-.2-.1-.2-.9-.4-1.5-1.3-2.3-1.9l-.5-.5c-.1-.1-.1-.2-.3-.1v-.1l-.3-.3c-1.8-1.4-3.4-3-4.9-4.8l-.3-.2c-.1-.2-.1-.4-.4-.5-.1-.1 0-.3-.3-.3-.6-.9-1.5-1.6-2.1-2.6l-.3-.2-.2-.5-1.2-1.5c-.1-.2-.1-.4-.3-.5-1-1.4-2.1-2.8-2.9-4.4l-.6-.9-.5-.8-.7-1.2-.8-1.4c-.3-.4-.2-1.2-.9-1.4 0 0-.1-.1 0-.1.2-.7-.5-1-.5-1.6l-.1-.1-.1-.1v-.1c0-.2-.2-.3-.3-.4 0-.3 0-.5-.2-.8l-.1-.1c-.1-.1-.1-.1-.2 0a.8.8 0 01-.2-.5v-.5c0-.1 0-.3-.2-.3-.4.1-.2-.2-.3-.4l-.1-.6-.2-.3-.1-.7v-.3-.1c-.3-.1-.3-.3-.3-.6s0-.8-.2-.8c-.5-.2-.4-.7-.3-1 0-.6-.7-.8-.5-1.5.1-.3.1-.7-.4-.8-.1 0 0-.1 0-.2-.1-.6.3-1.3-.5-1.6 0 0-.1-.1 0-.2.3-.6 0-1.2-.1-1.8l-.2-.4c0-.6-.1-1.2-.3-1.7 0-.3-.3-.3-.4-.4v-.4c.1-.5.1-1-.1-1.5 0-.2.1-.6-.1-.6-.6-.2-.2-.7-.3-1 .1-.9-.1-1.8-.2-2.6.1-.2.1-.4 0-.4-.5-.2-.3-.5-.3-.8l.1-.2c0-1 0-2-.2-3.1l.1-.1v-6.2V95v-.3l.1-1.5c-.1-.4-.3-1 0-1.3.6.1.6-.1.6-.4.2-1.4.1-2.8.2-4 .1.1-.1.4.3.7v-1.4c0-.5-.4-.7-.7-.4-.7.4-1.6.2-2.3.5-1.8.6-3.6.3-5.5.6l1.1.3c-2.5.1-5 .1-7.5-.2.1.3.2.2.4.3.2 0 .4 0 .4-.2 0-.3-.3-.2-.4-.2-1.1 0-2.3-.3-3.4-.1-.3.1-.7-.2-1.1 0 .4.1.5 0 .5-.3 0-.2-.2-.2-.3-.2-.6 0-1.3-.2-1.9-.1-.2 0-.6.1-.6-.3 0-.2-.2-.1-.3-.1l-1.2-.1c-.3 0-.5 0-.7-.3-.2-.3-.6-.2-.9-.2-.3 0-.6.1-.8-.3-.1-.3-.5-.2-.7-.2-.2 0-.5.1-.6-.1-.2-.5-.6-.4-1-.4-.1-.1-.3-.3-.5-.2 0-.1 0-.2-.2-.2-.4 0-.8.1-.9-.4l-.4-.1h-.3c-.8-.8-2-1.3-2.9-2L8 79.3l-1.2-1.5c-.7-.9-1.3-1.9-1.8-2.9l-.8-1.6c-.1-.2-.1-.5-.4-.5.2-.4-.2-.5-.2-.8-.3-.3-.5-.8-.6-1.2l-.7-2.5c-.3-.9-.4-1.8-.5-2.7-.1-1.2.8-1.8 1.9-1.4.9.3 1.9.5 2.8 1 .2.1.4.2.6.1.3 0 .5.4.9.4.8-.1 1.5.5 2.2.6h.5c.2 0 .5-.1.6.3l.3.1 2 .1c.4 0 .6.5 1 .3h7c.2 0 .4 0 .4-.2 0-.1-.1-.2-.3-.2 1.4.3 2.6-.3 3.8-.6.2 0 .2-.3.4-.3.3 0 .8 0 .8-.3.1-.3-.4-.5-.6-.7-1.3-1-2.7-1.9-3.7-3.2-.9-1.1-1.9-2.2-2.4-3.6l-.5-1.1c-.6-.6-.3-1.3-.5-1.9l-.2-.2c0-.1 0-.2-.1-.1l-.2-2.3V52v-1.9c.1-.5.6-1.3 1.6-1.4M152 41.6l-.1-.1c-.1-.2-.3-.2-.5-.3l-.2-.1-.3-.1-.4-.2-.4-.2a2 2 0 00-.9-.5l-.4-.2-.4-.2-.2-.1-.2-.1a.5.5 0 00-.5-.3.8.8 0 00-.5-.2 9 9 0 00-2.2-1.1s0-.1-.1 0c-.6-.3-1.1-.7-1.7-.8l-.4-.2-2.2-1a61 61 0 00-15.6-4.4 69 69 0 00-22.8-.1c-2.9.5-5.9 1-8.7 2-2.1.5-4.1 1.2-6 2.1l-.3.1-.3.2-.2.1-1.3.5c-1.2.6-2.2.9-3.6.3-3.8-1.5-7.8-1.8-11.8-1.5-5.8.3-11.2 1.9-16.4 4.6-3.9 2-7.4 4.5-11 7a39 39 0 01-7.2 4 22.5 22.5 0 01-10.3.7l-4.5-.8c-.2-.1-.5-.2-.5.3-.1 1.7.1 3.3.6 4.9 1.4 4.7 4.9 7.7 9 10 .1.1.4.1.3.3 0 .2-.2.2-.4.3a20 20 0 01-10.6 2.8c-3.9.1-7.8-.7-11.5-1.9l-3.8-1.3c.2 2 .7 4 1.4 5.8.7 1.9 1.7 3.6 2.8 5.3 2.4 3.4 5.6 5.6 9.5 6.9a63 63 0 0010.1 2.3 47.2 47.2 0 0017.4-1.5c.3-.1.5-.2.8-.1l-.5 1.9a65.7 65.7 0 00.1 27.6 68.4 68.4 0 0022.5 38.2 63 63 0 009.4 6.9c1.9 1.2 4 2.2 6 3.2 2.9 1.4 6 2.6 9 3.7a92.7 92.7 0 0015.5 3c4.3.4 8.6.4 12.9-.1l3.6-.4a54.1 54.1 0 0012.3-3.1c2-.6 3.9-1.4 5.8-2.3.9-.4 1.8-.7 2.6-1.3 1.5-.7 3-1.5 4.4-2.4h.1c1.4-.8 2.7-1.6 3.9-2.5l.7-.5.3-.2h.1c.3-.3.7-.4.9-.7l.7-.5.5-.4h.1l1.9-1.5.5-.4.2-.2c.2 0 .3-.2.4-.3l.2-.2c.3-.1.4-.3.6-.5l.3-.2.3-.2.3-.2c1.2-1 2.3-2.1 3.3-3.3.1-.1.2-.1.2-.3.1-.1.2-.1.2-.3l.2-.2c.2-.2.4-.3.4-.5.3-.2.5-.4.6-.7.1-.1.2-.1.2-.3l1.3-1.5c.2-.1.3-.3.3-.4l.1-.1a54 54 0 005.1-7.4s.1 0 0-.1l.1-.3c.6-1 1.2-1.9 1.6-2.9.1-.3.3-.5.6-.6 1.7-.2 3.3-.2 4.9.4 3 1.2 5.8 3 8.2 5.3a20 20 0 013.6 4.9l1.3-3.7a27 27 0 001.5-10.6c-.2-2.3-.7-4.5-1.9-6.5a25 25 0 00-6.7-7.4c-1-.7-2.1-1.3-3.3-1.6-.4-.1-.9.2-1.1-.2-.2-.3 0-.8 0-1.2v-.1l.7-5.3.1-1a61.7 61.7 0 00-2-21.6 70.6 70.6 0 00-8.8-20.5l-.2-.2c0-.2-.1-.3-.3-.4-.1-.3-.2-.6-.5-.8l-.1-.2-.2-.2c-.3-.4-.5-.9-.9-1.2 0-.1 0-.2-.2-.3v-.1l-.2-.2-.1-.3-.2-.3-.2-.2c0-.1 0-.2-.2-.2l-.2-.3-3.3-4.1c-2-2.2-4-4.4-6.4-6.2l-.2-.1-.3-.3c-.1-.1-.1-.2-.3-.2-.1-.1-.1-.2-.3-.2l-.6-.5-.1-.1-.1-.1-.4-.3c-.1-.1-.1-.2-.3-.2l-.4-.3-.4-.3c-.1-.1-.1-.2-.3-.2l-.4-.3-.4-.3c-.1-.1-.1-.2-.3-.2l-.4-.3-.4-.3c-.1-.2-.2-.2-.4-.3l-.1-.1-.6-.4-.3-.2c-.1-.2-.3-.2-.5-.3 1-.8 1-.9.9-.9z" fill="#f5f6f5"/><path class="kel_st1" d="M15.1 67.2H15"/><path class="kel_st2" d="M152.6 159.6s0 .1 0 0c0 .1 0 0 0 0z"/><path class="kel_st1" d="M157 42.8l-.1-.2.1.2z"/><path class="kel_st3" d="M45.2 86.2a6 6 0 01.5-1.9c-.3-.2-.5 0-.8.1a46.1 46.1 0 01-17.4 1.5 42 42 0 01-10.1-2.3A20 20 0 015 71.4c-.7-1.8-1.2-3.8-1.4-5.8l3.8 1.3a38 38 0 0011.5 1.9c3.8 0 7.4-.9 10.6-2.8l.4-.3c0-.2-.2-.2-.3-.3-4.2-2.3-7.6-5.2-9-10-.5-1.6-.7-3.2-.6-4.9 0-.5.3-.3.5-.3l4.5.8c3.5.5 6.9.6 10.3-.7 2.6-1 4.9-2.4 7.2-4 3.6-2.4 7.2-5 11-7a39.2 39.2 0 0116.4-4.6c4.1-.2 8.1.1 11.8 1.5 1.4.5 2.4.3 3.6-.3l1.3-.5c.1.3-.2.3-.3.4-.5.2-1.1.4-1.5.7-.6.4-.6.7.1 1.1 1.6.8 3 1.7 4.4 2.8.2.2.4.2.7.1l2.5-1c2-.8 4.2-1.3 6.3-1.9a66 66 0 0131.3.4 59.7 59.7 0 0118.6 8.3c1.7 1.1 3.2 2.3 4.8 3.5 1.8 1.4 3.4 3 5.1 4.5l2.6 2.7a75.2 75.2 0 017.7 10.5 65.8 65.8 0 017.8 21.6c.6 3 .7 6.1.9 9.1.1 1.6-.1 3.2-.2 4.9 0 .7 0 1.5-.2 2.2-.1.4.2.5.5.5 1.1 0 2.1.2 3.2.3.5 0 .7.2.6.6-.1.7.1 1.3.1 2 0 .2.1.3.3.4.2 0 .2-.1.2-.2.1-1.2.5-2.3.6-3.5h.2c-.2 1.8-.3 3.6-.7 5.3v.1c0 .4-.2.9 0 1.2.2.4.7.1 1.1.2 1.2.3 2.3.8 3.3 1.6 2.7 2 5 4.5 6.7 7.4 1.2 2 1.7 4.2 1.9 6.5.3 3.7-.4 7.1-1.5 10.6l-1.3 3.7a16 16 0 00-3.6-4.9 24.6 24.6 0 00-8.2-5.3 10 10 0 00-4.9-.4c-.3 0-.5.3-.6.6l-1.6 2.9h-.2l.1-.6 1-2v-.5h-.3c-1.4.4-2.9.6-4.3 1.3-1.2.6-2.5 1-3.3 2.1l-2 2.6c-1.2 1.7-2.5 3.2-3.8 4.7a57.8 57.8 0 01-9.9 8.8 64.2 64.2 0 01-35.1 12l-6-.1a58.2 58.2 0 01-16.6-3.1 62 62 0 01-24.4-14.9l-3.4-3.6A64.5 64.5 0 0152 117.2c-.8-2.6-1.3-5.2-1.7-7.8a52.9 52.9 0 01-.5-16.6l.7-5.2 1.4-6.1c0-.2.2-.4 0-.5-.1-.1-.3 0-.5.1-1.7.7-3.3 1.6-4.9 2.5-.4.2-.8.5-.9 1l-.4 1.6c.2 0 .1 0 0 0zm59.5-15.1s-.1 0 0 0a58.5 58.5 0 00-5 3.6l-.2.1c-.2 0-.3.2-.5.3-1.8 1.4-3.6 2.6-5.2 4.2-1.2 1.3-2.5 2.5-3.5 4a8.3 8.3 0 00-1.6 4l-.1.2-.1 1.1c0 2.6.6 4.9 2.5 6.7 1.6 1.5 4.3 1.2 5.4-.4a7.3 7.3 0 001.5-4c.3-2.3.1-4.6-1.6-6.4l-.7-.8c-.2-.3-.6-.7-.5-1 .1-.3.6 0 .9-.1h.2l.7.1 2.1.7c4.2 1.8 6.4 5.3 7.7 9.5.8 2.6.6 5.2.2 7.8l-.4 2.5c-.7-1.2-1-2.6-1.7-3.8-.3-.7-.6-1.5-1-2.1-.3-.8-.6-1.6-1.2-2.4v2.7l-.1 1.6V99.5l-.1.5c-.3 2.1-.7 4.2-1.4 6.2-.2.6-.1.9.4 1.3a60.7 60.7 0 0026.9 12.2c2.1.7 4.2 1 6.4 1.4l.7.2c1.9.4 3.8.8 5.7.9l1.2.3c.6.2.6 0 .6-.5-.1-2.6-.2-5.2-.1-7.7a209 209 0 011.5-22.7l.9-7c.1-.5 0-.8-.6-.6h-.3l-10.5.6c-5.2.1-10.3-.1-15.5-.6-.3 0-.4-.1-.4-.4-.7-2.4-2-4.5-4.1-6-.2-.2-.5-.2-.5-.6 5.2-.1 10.4-.2 15.5-.1h.9c2.6.1 5.2.2 7.8.1 1.8 0 3.6.2 5.4.1l.7.2c2 .5 4 .9 5.8 1.8.4.2.4 0 .4-.3a28 28 0 00-1.4-10.7c-.9-2.8-2.1-5.5-3.8-8-1-1.4-2.2-2.5-4.2-2.3-1.6.2-3.1.3-4.7.7a205.9 205.9 0 00-18 5.2c-.6-.1 0-.3 0-.3l4.4-3.1 3-1.8.7-.3 6.9-3c.3-.2.9-.1.9-.5s-.6-.4-.9-.6l-5.1-1.8a33 33 0 00-14.3-.9c-1.2.2-2.5.5-3.6 1-2 .5-3.8 1.3-5.4 2.7-1.6 1.3-2.6 3-2.3 5.2.4 3 2.2 5.2 5.4 5.4 1.1.1 2.3.2 3.2 1v.5l-.2.2-5.4 3.9c-.2-.3-.2-.2-.3-.2zM134 47.3l.2.1 4.4 2.4c1 .5 1.4.3 1.8-.8.1-.3.1-.6-.2-.7-.8-.4-1.6-.9-2.5-1.2-.1-.2-.4-.1-.6-.2a65.8 65.8 0 00-7.4-2.8c-1.9-.5-3.8-1-5.8-1.3-1.4-.3-2.8-.6-4.2-.6l-2.3-.2-2.5-.1a35 35 0 00-10.1.7l-2.1.2c.7.4 1.4.3 2 .5.6.1 1.2.4 1.9.4l.6.1 3.2.8h.5c1.1-.4 2.3-.4 3.5-.6 2-.2 3.9-.1 5.9-.1a63.6 63.6 0 0111.8 2.8l.6.3.6.3.2.1c.3-.2.4-.1.5-.1zM97.1 59.1l-.2.1-.5.5a26.7 26.7 0 00-3.8 4.4 27.5 27.5 0 00-3.9 7.4c-.1.3-.3.6-.3 1l-.2.5-.6 2.7-.4 2.7 3.6-3.7.2-.5 1-4.4c.1-.1 0-.2 0-.4.2-.1.2-.2.2-.4l1.7-4.2c1-2 2.1-3.9 3.4-5.6l.7-.9-.9.8zm69.5 17.3l-.1-.3V76a75 75 0 00-2.5-4.9c-1-1.8-2.2-3.5-3.4-5.3a64.5 64.5 0 00-13.7-13.7c-.7-.5-1.4-1.2-2.3-1.4l-.2-.2c-.4-.4-.9-.6-1.6-.9l1.8 1.4c2.1 1.8 4.1 3.7 5.8 5.8 1.1 1.6 2.2 3.1 3.1 4.8a33.8 33.8 0 013.4 22c-.1.4-.1.8.1 1.2 1.4 2.7 2.1 5.5 2.2 8.6.1 2.4-.1 4.9-.9 7.2-.2.5-.1.8.3 1 1 .6 2.2 1 3.3 1.4 2.9.9 5.8 1.3 8.8 1.9.3.1.4 0 .5-.4l.2-2.2a55.3 55.3 0 00-4.2-24.8l-.6-1.1zm-61.3 51.3l.3-.1c.5-.1.9-.3 1.4-.8-.7.1-1.2 0-1.8-.1h-.1l-.2-.1c-.8-.3-1.6-.5-2.3-.9-2-1.1-3.5-2.6-5-4.3a32.2 32.2 0 01-4.5-7l-2-4.4-1.4-3.4v2.8.7.9c0 1.6.1 3.1.4 4.7l.1 1.1.1.5v.3l.2 1.1.1.6.1.4v.1c.2 1.2.6 2.4 1.1 3.5.1.3.1.5-.3.4l-4.6-3.6c-.1-.2-.2-.3-.4-.3l-.1-.1c-.8-.5-1.2-1.4-2.1-1.9l.2 2.1v.4c.4 2.3.9 4.6 1.9 6.8.9 2.1 2.1 4 3.7 5.7.3.3.6.3.8.2l1.1-.3 7.5-2.7c1-.4 2.1-.7 3-1.2l.6-.3c.9-.4 1.6-.4 2.2-.8zm-7.8-75.8l.2-.1 3.4-1.6-.1-.2h-1.8a15 15 0 00-5.1.7 9.4 9.4 0 00-6 5.8c-.7 1.6-1.1 3.2-1.1 5 .3-.1.4-.3.5-.4.3-.4.5-.9.9-1.3l1.7-2.1.2-.1c2.1-2.2 4.4-4.1 7.1-5.6l.1-.1zm32.6 92.8h.1a79.1 79.1 0 0013.2-5.3c3.3-1.7 6.4-3.7 9.6-5.5 3.1-1.8 6.2-3.5 9.5-4.9l4.1-1.7c1.9-.7 3.8-1.2 5.7-1.6 1.5-.3 3.1-.3 4.6-.4l1.7.3c2.1.4 4.1.7 6.1 1.4.4.1.9.2.8.8-.1.5-.6.4-.9.4-.7.1-.8.3-.4.8.7 1.1 1.4 2.2 2.3 3.1 1.3 1.3 2.2 1 2.8-.7v-.1c.7-2 .3-3.9-.3-5.8a15 15 0 00-3.6-5.4 13 13 0 00-9.5-4.1c-4.1-.1-8.1.8-11.9 2.3a75 75 0 00-12.6 6.5c-3.5 2.1-6.8 4.4-10.1 6.8-1.5 1.1-3 2.1-4.4 3.3l-2.2 1.7-3.1 2.2-3 2.1-2.4 1.6-4.5 2.7c-1.6.8-3.1 1.8-4.9 2.2 1.6.1 3.1-.4 4.6-.6 1.5-.2 3-.6 4.5-1 .2.1.4-.1.6-.1h.1c.2 0 .4 0 .6-.2h.2l.9-.3 1.3-.3c.3 0 .4-.1.5-.2zM57 109.9l.9 3.9c.3 0 .3-.2.4-.3l1.4-2.2c.8-1.5 1.5-3.1 1.8-4.7l.1-.3c.5-1.7.7-3.4.9-5.2 0-.4.2-.4.5-.3l1.4.4c4.6 1.2 9.3 1.6 14 2 .3 0 .5-.1.5-.4l.1-4.2a48.8 48.8 0 00-2.8-15.9c-.2-.4-.3-.5-.7-.3-1.8.5-3.6.7-5.4.8a14 14 0 01-7.8-1.2c-.5-.2-.9-.6-1.5-.6-.5-.4-1.1-.5-1.6-.7-.3-.1-.4 0-.5.2l-.6 2.2-.2.7a51.6 51.6 0 00-1.6 20.3c.1 1.9.3 3.8.7 5.8zm29.6-62s.1 0 0 0c.1 0 0 0 0 0 0-.3-.2-.4-.4-.6-1.2-1.1-2.4-2-3.8-2.7-2.7-1.5-5.7-2-8.7-2.2a37.7 37.7 0 00-12.1 1.8c-2.5.9-4.9 1.9-7 3.5-1.7 1.2-3.3 2.6-5.1 3.8-2.8 2-5.8 3.5-9 4.6-1.9.7-3.9 1.2-6 1.1h-2.7l-.3.1c-.1.1.1.2.1.3 1 1.2 2.2 2.2 3.6 2.9 1.9.9 3.9 1.3 6 1.4 1.3.1 2.7 0 4-.1.5-.1.6.2.3.6l-1.3 1.9a27.7 27.7 0 01-12.8 9.3 21 21 0 01-6.6 1.3c-2.4.1-4.7 0-7.1-.4-.6-.1-1.2-.3-2-.1l1.4 1.4.2.2c2.9 2.1 6.1 3.5 9.7 3.7 3.2.2 6.4.1 9.6-.5 3.3-.6 6.4-1.9 9.2-3.7 2.8-1.8 5.3-3.8 7.7-6.1 3.4-3.2 6.6-6.7 10.1-9.9a20 20 0 016-4.3 8 8 0 014.3-.7h.5c.1-.2-.2-.4-.3-.5-1-.9-2.3-1.5-3.6-1.8-2-.5-4-.6-6-.8l-.5-.1c-.1-.2.1-.3.2-.4.6-.5 1.1-1.1 1.8-1.5 2.5-1.5 5.1-2.8 8-3.2 2.3-.3 4.6-.3 6.9.1 2.2.3 4 .8 5.7 1.6zm49.4 79.9h-.9a9 9 0 01-2.8.4c-2.5.1-5 .7-7.4 1.1l-5 1.1c-2.8.7-5.5 1.5-8.2 2.4a51.5 51.5 0 00-9.3 4.1c-1.4.8-2.8 1.7-3.9 2.8-.3.3-.3.5.2.6l1.9.3c1.8.3 3.7.4 5.5.5a42 42 0 0011.4-1.3c1.8-.4 3.5-1.1 5.3-1.6a6 6 0 002.2-1.2l-3.9.1c-1.6.1-3.2-.1-4.7-.1l-1.4-.2c-.2 0-.5 0-.5-.2-.1-.3.2-.3.3-.4l1-.7 7.6-3.1 7.5-2.7c1.5-.7 3.2-1.4 5.1-1.9zm-57.5-14.7c-2.3 0-3.5.9-4.1 2.8-.3.8-.4 1.6-.5 2.4-.4 2-.5 3.9.3 5.8.1.3.5.8.3 1.1-.4.3-.8-.2-1.2-.4l-2.9-1.6c-.2-.1-.4-.2-.5 0v.5l.3 1.8c.9 4 3 6.9 6.8 8.6.6.3 1.3.6 1.9.5 1.3-.2 2.3-2.2 1.8-3.4-1.2-2.8-2-5.7-2.5-8.6a10 10 0 010-4.2c.3-1.8 1.7-2.9 3.2-3.7.1-.1.4-.1.3-.3 0-.2-.2-.2-.3-.2a5 5 0 00-2.9-1.1zm68.2 6.1l.3-1.6 2.1-9.5 3.3-14.7c.1-.3 0-.6-.1-.9-.5-1.4-1.1-2.8-1.9-4.1-.3-.5-.5-1.2-1.2-1.5v.3l-1.1 9.8-.8 7.7c-.3 4-.7 8-.8 12-.1.7-.2 1.6.2 2.5zm-71.2-60c-.3-.1-.4.1-.6.2a12 12 0 00-3 2 11.7 11.7 0 00-4.8 7.3c-.5 2.4.5 5.1 3.2 6.2 1.2.5 2.5.5 3.7.9.3.1.4 0 .3-.4l-.4-1.2c-1-2.4-1.3-4.9-1-7.5.2-2.7 1.3-5.2 2.6-7.5z"/><path class="kel_st4" d="M45.5 86.3l.4-1.6c.1-.5.5-.7.9-1 1.6-.9 3.2-1.8 4.9-2.5.1-.1.4-.2.5-.1.2.1 0 .3 0 .5l-1.4 6.1-.7 5.2c-.3 2.9-.4 5.7-.3 8.6.1 2.7.3 5.3.8 8 .5 2.6 1 5.2 1.7 7.8a73.4 73.4 0 008.2 17.8 64.5 64.5 0 0049.5 28.2l6 .1a62.5 62.5 0 0028.6-7.9c2.2-1.3 4.4-2.6 6.5-4.1a64.2 64.2 0 0015.7-16.1c.9-1.1 2.1-1.5 3.3-2.1 1.4-.6 2.9-.8 4.3-1.3h.3v.5l-1 2-.1.6v.4c-.2 0-.4 0-.5.3-1.3 2.1-2.5 4.2-4.1 6.1-.2.3-.6.6-.5 1l-.1.1c-.4-.1-.4.1-.3.4-.5.1-1.2.9-1.3 1.5-.2 0-.3.1-.2.3-.4.1-.7.3-.6.7-.3 0-.5.2-.4.5-.2 0-.2.1-.2.2-.2 0-.3.1-.2.3-.2 0-.3.1-.2.3l-.4.2-2.6 2.6-.2.4c-.2 0-.3.1-.3.2-.2 0-.3.1-.3.2-.2 0-.2.1-.3.2-.3 0-.6.1-.6.5-.1 0-.2 0-.2.2-.3-.1-.4.1-.4.3-.1 0-.2 0-.2.2-.4-.1-.5.1-.5.4a4 4 0 00-1.9 1.5v.1h-.1c-.4-.2-.5.1-.5.4-.4 0-.7.1-.7.5-.5 0-.9.3-.9.7h-.1c-.2-.1-.3 0-.3.2-.4 0-.7.1-.7.5l-.4.1a63 63 0 00-3.3 2.2c-.1.1-.3.1-.2.3h-.1c-.3-.2-.5 0-.7.1-1.1.6-2.1 1.4-3.3 1.8-.2.1-.4.2-.4.5h-.5l-3.4 1.6c-1.9.9-3.9 1.5-5.9 2.1a46 46 0 01-3.5 1c-1.3.3-2.5.8-3.8.9l-3.3.6c-1.9.3-3.7.7-5.6.6-.9-.1-1.7.3-2.5.3-2.2 0-4.5.2-6.7-.1l-1.7-.2c-2.1.1-4.2-.4-6.3-.7-1.2-.2-2.4-.6-3.6-.7-1.6-.2-3.1-.8-4.6-1.1-1.1-.2-2.1-.7-3.2-1a81.6 81.6 0 01-24.3-14.8 70 70 0 01-17.3-25.6c-.8-2.2-1.6-4.4-2.2-6.7l-1.6-7.4c-.4-2.3-.4-4.6-.7-6.8-.2-2-.2-4.1-.1-6.2v-1.7c.2-1.3.4-2.6.4-3.9l.2-1.7c0-1-.1-2.3.3-3.6zM182.7 105.4c-.2 1.2-.6 2.3-.6 3.5 0 .1-.1.3-.2.2-.2 0-.3-.2-.3-.4 0-.7-.2-1.3-.1-2 0-.5-.1-.6-.6-.6-1.1 0-2.1-.3-3.2-.3-.3 0-.6-.1-.5-.5.2-.7.1-1.5.2-2.2.1-1.6.3-3.2.2-4.9-.2-3-.4-6.1-.9-9.1A65.9 65.9 0 00161.2 57l-2.6-2.7a71.4 71.4 0 00-5.1-4.5c-1.6-1.2-3.1-2.4-4.8-3.5a71.7 71.7 0 00-18.6-8.3 53.2 53.2 0 00-13.7-2.1 66 66 0 00-17.6 1.7c-2.1.6-4.2 1.1-6.3 1.9l-2.5 1c-.2.1-.5.1-.7-.1a22 22 0 00-4.4-2.8c-.7-.3-.7-.6-.1-1.1l1.5-.7c.2-.1.4-.1.3-.4l.2-.1c.1 0 .4.2.3-.2.1 0 .3.2.3-.1 2-.9 3.9-1.6 6-2.1.3.1.6.1.8 0 1.7-.6 3.5-.9 5.2-1.2l.9-.2 4.5-.6c1.3-.1 2.6-.5 3.9-.4l6.9.1c2 .1 3.9 0 5.9.4 1.2.3 2.5.2 3.7.5l1.4.3 3.6.6 3.9 1.1 4.2 1.4c.7.2 1.3.7 2.1.6.6.6 1.3.9 2.2 1 0 .3.2.3.4.2.5.5 1 .9 1.7.8h.1c-.1.1 0 .2 0 .2.7.3 1.3.8 2.1.9.1.3.3.3.5.2 0 .3.3.3.5.3 0 .2 0 .3.2.1l.2.1c0 .3.2.3.4.2 0 .3.2.3.4.2.1.4.4.6.9.5 0 .3.2.3.4.2 0 .3.2.3.4.2 0 .1.1.2.3.1l.2.1c0 .3.2.3.5.3l.2.1.2.1c0 .3.2.3.5.3 0 .2.1.3.3.2 0 .4.3.4.6.4l.1.1c0 .3.2.3.4.3 0 .3.2.3.4.3 0 .3.2.3.4.3 0 .2.1.3.3.2 0 .2.2.3.4.3 0 .3.2.3.4.3 0 .2.1.3.3.2 0 .2.2.3.4.3 0 .3.2.3.4.3 0 .2.1.3.3.2 0 .3.2.3.4.3l.1.1.1.1c0 .4.3.5.6.5 0 .2.1.3.3.2 0 .2.1.3.3.2 0 .3.1.3.3.3l.2.1a62.5 62.5 0 019.9 10.6c0 .1 0 .2.2.2 0 .1 0 .2.2.2-.1.2 0 .3.2.3l.1.3c0 .1 0 .2.2.2v.1c-.1.2 0 .3.2.3.2.5.3 1.1.9 1.2 0 .1 0 .2.2.2l.1.2c0 .3.1.7.5.8 0 .2 0 .4.3.4 0 .1 0 .2.2.2-.1.3.1.5.2.7l2.3 4.1a73.5 73.5 0 017.1 20l.6 4.2.6 6.1v5.1c-.8 1.1-.7 2.2-1 3.2z"/><path class="kel_st2" d="M45.5 86.3c-.4 1.3-.3 2.7-.7 4l-.2 1.7c0 1.3-.3 2.6-.4 3.9v1.7c0 2.1-.1 4.1.1 6.2.2 2.3.3 4.6.7 6.8a60.8 60.8 0 003.8 14.1c1.1 2.9 2.4 5.6 3.9 8.3l2.8 4.7a73.6 73.6 0 0025.8 23.4c2.9 1.6 6 2.8 9.1 4 1.1.4 2.1.8 3.2 1 1.6.3 3 .9 4.6 1.1 1.2.2 2.4.6 3.6.7 2.1.3 4.1.8 6.3.7l1.7.2c2.2.3 4.5.2 6.7.1.8 0 1.7-.4 2.5-.3 1.9.1 3.7-.3 5.6-.6l3.3-.6c1.3-.2 2.6-.6 3.8-.9l3.5-1c2-.6 4-1.3 5.9-2.1l3.4-1.6h.5c-.8.6-1.8.9-2.6 1.3a100 100 0 01-5.8 2.3c-2.2.7-4.3 1.4-6.5 1.9-1.9.5-3.9.8-5.8 1.2l-3.6.4a61.8 61.8 0 01-22.1-1.3l-6.3-1.6c-3.1-1-6.1-2.2-9-3.7l-6-3.2A63 63 0 0159.1 143a83.3 83.3 0 01-9.2-15.1 73.4 73.4 0 01-4.6-41.5c0-.2.1-.2.2-.1zM140.5 35.5c-.8.1-1.4-.4-2.1-.6l-4.2-1.4-3.9-1.1-3.6-.6-1.4-.3c-1.2-.4-2.5-.2-3.7-.5-1.9-.4-3.9-.3-5.9-.4l-6.9-.1c-1.3 0-2.6.3-3.9.4l-4.5.6-.9.2c-1.8.3-3.5.6-5.2 1.2-.3.1-.6.2-.8 0 2.8-1 5.8-1.5 8.7-2a75.5 75.5 0 0134 2.8c1.4.6 2.9 1.1 4.3 1.8zM182.7 105.4c.3-1 .2-2 .2-3.1v-5.1l-.6-6.1-.6-4.2a65.6 65.6 0 00-7.1-20l-2.3-4.1c-.1-.2-.3-.4-.2-.7a68.5 68.5 0 0110.8 42.1l-.1 1c.1.2 0 .2-.1.2zM168.4 142.7c-.1-.5.3-.8.5-1 1.6-1.9 2.9-4 4.1-6.1.1-.2.3-.2.5-.3-1.5 2.5-3.2 5-5.1 7.4zM145 161.6c0-.3.2-.4.4-.5 1.2-.5 2.2-1.2 3.3-1.8.2-.1.4-.3.7-.1-1.4.9-2.8 1.8-4.4 2.4zM161.4 150.3l.2-.4 2.6-2.6.4-.2c-.9 1.1-2 2.2-3.2 3.2zM149.5 159.2a63 63 0 003.5-2.5l.4-.1c-1.2 1-2.6 1.8-3.9 2.6zM156.7 154.2s0-.1 0 0c.5-.7 1.1-1.3 1.9-1.5-.5.6-1.2 1-1.9 1.5zM147.2 38.7c-.8-.1-1.4-.6-2.1-.9-.1 0-.1-.1 0-.2.7.3 1.4.6 2.1 1.1zM142.8 36.5a3 3 0 01-2.2-1l2.2 1zM166.6 144.8c.1-.6.8-1.5 1.3-1.5l-1.3 1.5zM144.9 37.5c-.7 0-1.3-.3-1.7-.8l1.7.8zM171.1 60.5c-.6-.2-.7-.7-.9-1.2.5.3.7.8.9 1.2zM154.5 155.9c0-.4.5-.8.9-.7-.2.3-.6.5-.9.7zM165.8 145.8c0-.5.2-.7.6-.7l-.6.7zM150.2 40.5c-.4 0-.7-.1-.9-.5.4.1.7.3.9.5zM171.9 61.6c-.5-.1-.5-.4-.5-.8l.5.8zM155.5 155.2c0-.4.3-.6.7-.5a3 3 0 01-.7.5zM153.4 156.7c.1-.4.4-.5.7-.5l-.7.5zM158.3 46.2c-.4 0-.6-.1-.6-.5l.6.5zM160 151.5c0-.4.3-.5.6-.5-.2.2-.3.4-.6.5zM158.6 152.6c0-.3.1-.6.5-.4 0 .2-.3.3-.5.4z"/><path class="kel_st2" d="M156.1 154.7c0-.3.1-.6.5-.4 0 .2-.3.2-.5.4zM165.3 146.3c-.1-.4.1-.5.4-.5 0 .2-.2.3-.4.5zM168 143.2c-.1-.3-.1-.5.3-.4l-.3.4zM153.5 42.6c-.3 0-.6-.1-.6-.4.3.1.5.2.6.4zM159.4 152c0-.3.1-.4.4-.3-.1.1-.2.3-.4.3zM152.6 42c-.2 0-.4 0-.5-.3.2.1.4.1.5.3zM151.9 41.5c-.2 0-.4 0-.5-.3.2.1.4.1.5.3zM147.7 39c-.2.1-.5.1-.5-.2.1-.1.3 0 .5.2z"/><path class="kel_st2" d="M148.1 39.2c-.2 0-.5 0-.5-.3l.5.3zM172.1 62c-.3 0-.3-.2-.3-.4.2.1.3.2.3.4zM154 43c-.2 0-.4 0-.4-.3l.4.3zM149.4 40c-.2 0-.4 0-.4-.2.2 0 .3 0 .4.2zM143.2 36.7c-.2.1-.4.1-.4-.2l.4.2zM151 41c-.2 0-.4 0-.4-.2.2 0 .3 0 .4.2zM155.7 44.3c-.2 0-.4 0-.4-.3.3 0 .4.1.4.3zM150.6 40.8c-.2 0-.4 0-.4-.2.2-.1.3 0 .4.2zM157.4 45.5c-.2 0-.4 0-.4-.3l.4.3zM154.8 43.5c-.2 0-.4 0-.4-.3l.4.3zM154.4 43.2c-.2 0-.4 0-.4-.3l.4.3zM156.7 45c-.2 0-.4 0-.4-.3l.4.3zM148.4 39.4c-.2.2-.2 0-.2-.1l.2.1zM152.9 42.2c-.2.1-.3 0-.3-.2.2 0 .2.1.3.2zM161.1 150.5c0-.2.1-.3.3-.2 0 .1-.1.2-.3.2zM156.4 44.7c-.2 0-.3-.1-.4-.3l.4.3zM156 44.5c-.2 0-.3 0-.3-.2.2 0 .3 0 .3.2zM149 39.8c-.2 0-.4 0-.4-.2.2-.1.3 0 .4.2zM155.4 44c-.2 0-.4 0-.4-.3.2 0 .3.1.4.3zM155 43.7c-.2.1-.3 0-.3-.2.2 0 .3.1.3.2zM154.1 156.1c0-.2.1-.3.3-.2l-.3.2zM170.3 59.2c-.2 0-.3-.1-.2-.3l.2.3zM169.8 58.5c-.2 0-.3-.1-.2-.3l.2.3zM158.8 46.7c-.2.1-.3 0-.3-.2.2 0 .2.1.3.2z"/><path class="kel_st3" d="M87.4 35.1c0 .3-.2.1-.3.1l.3-.1z"/><path class="kel_st2" d="M159.1 47c-.2 0-.4-.1-.3-.3l.3.3zM158.5 46.5c-.2 0-.3-.1-.3-.2.2 0 .3.1.3.2zM157 45.2c-.2 0-.3 0-.3-.2.2 0 .3.1.3.2zM160.6 151c0-.2.1-.2.3-.2l-.3.2zM160.9 150.7c0-.2.1-.2.3-.2l-.3.2zM169.2 57.8c-.2 0-.3-.1-.2-.3.1 0 .2.1.2.3zM164.6 147c0-.2.1-.3.2-.3.1.2 0 .3-.2.3zM164.9 146.8c0-.2.1-.3.2-.3l-.2.3z"/><path class="kel_st3" d="M87.1 35.2c.1.4-.2.2-.3.2l.3-.2z"/><path class="kel_st5" d="M130.2 168.6l-.4.1"/><path class="kel_st2" d="M166.4 145c0-.2.1-.3.2-.3 0 .2-.1.3-.2.3zM171.3 60.7c-.2 0-.2-.1-.2-.2l.2.2zM151.3 41.1l-.3-.1.3.1zM169.4 58a.2.2 0 01-.2-.2l.2.2zM165.1 146.5c0-.1 0-.2.2-.2l-.2.2zM173.5 135.1v-.3h.2l-.2.3zM170.1 58.9c-.2.1-.2 0-.2-.2l.2.2zM172.3 62.2c-.2 0-.2-.1-.2-.2l.2.2zM159.8 151.7c0-.2.1-.2.2-.2l-.2.2zM169.9 58.8l-.1-.3.1.3zM159.2 152.2c0-.2.1-.2.2-.2l-.2.2zM169.6 58.2c-.2 0-.2-.1-.2-.2l.2.2z"/><path d="M79.5 34.1h-.2" fill="#353436"/><path class="kel_st3" d="M86.8 35.4l-.2.1.2-.1z"/><path class="kel_st5" d="M194.2 141.2v0z"/><path class="kel_st2" d="M159.3 47.1l-.2-.1.2.1z"/><path d="M47 124.5v.1M195.2 121.1l-.1.1"/><path class="kel_st2" d="M151.4 41.2l-.2-.1.2.1zM171.4 60.9l-.1-.2.1.2zM157.6 45.7l-.1-.1.1.1zM157.5 45.6l-.1-.1.1.1zM152 41.6l-.2-.1.2.1zM152.2 41.7l-.2-.1.2.1zM153.7 42.7l-.1-.1.1.1z"/><path d="M156 42z"/><path class="kel_st7" d="M105.1 99.4c.7 1.2 1 2.6 1.7 3.8l.4-2.5c.4-2.6.6-5.2-.2-7.8-1.3-4.2-3.5-7.6-7.7-9.5l-2.1-.7c-.5-.5 0-.7.3-.7.8-.2 1.5-.6 2-1.1.6-.6.5-1.1-.2-1.4-.7-.3-.8-.3-.3-1l.4-.5c.2-.3.7-.6.4-.8-.3-.3-.8 0-1.1.2l-.3.4c-.3.5-.7.8-1.3.8l-.5.2-2.4 1.7c-.3 0-.6.5-1.2.5.9-1.1 2-2 3-2.9 1-1 2.1-1.7 3.2-2.5l4.1-2.8c1.5-1.1 3.1-2 4.6-3.2.8-.7 1.9-1.2 2.7-1.8.6-.4.5-.9-.1-1.2-.9-.8-2.1-.9-3.2-1-3.2-.2-5.1-2.5-5.4-5.4-.3-2.2.7-3.9 2.3-5.2 1.6-1.3 3.4-2.2 5.4-2.7.3.4.8.6 1.3.7l3.6 1.2 9.7 3.1c.6.2 1.1.3 1 1.1l-3 1.8a32 32 0 00-4.4 3.1s-.6.2 0 .3c.1.3.4.3.7.3 1.6.1 3.2.1 4.7-.2.9-.1 1.8-.4 2.6-.3 1.5.2 2.7 1.5 3 3.1l.8 5.5c.2 1.6.5 3.1.1 4.7h-.9c-5.2-.1-10.4 0-15.5.1h-.5c-.8 0-1.1.3-.9 1.1l.7 1.7c1.1 1.7 2.2 3.3 2.9 5.3.5 1.3 1.5 2 2.8 2.3 3.7.7 7.4 1 11.2 1.1.5 0 .7.2.6.7l-.2 4a348 348 0 01-.5 10.2l-.8 13.3c-.1 1.1-.1 2.2-.4 3.2-3-.6-5.9-1.5-8.8-2.4a60.8 60.8 0 01-18.1-9.8c-.5-.4-.6-.7-.4-1.3.7-2 1.1-4.1 1.4-6.2l.1-.5c.3.6.3.6.7.1.4-.5.8-.6 1.3-.2.5.3.6.1.7 0z"/><path class="kel_st8" d="M86.6 47.9a24 24 0 00-12.3-1.7c-2.9.4-5.6 1.7-8 3.2l-1.8 1.5c-.1.1-.3.2-.2.4.1.2.3.1.5.1 2 .1 4 .3 6 .8 1.3.3 2.5.9 3.6 1.8.1.1.4.2.3.5-.1.2-.3.1-.5 0-1.5-.3-2.9.1-4.3.7-2.3 1-4.2 2.6-6 4.3-3.4 3.2-6.6 6.7-10.1 9.9a57.3 57.3 0 01-7.7 6.1c-2.9 1.8-5.9 3-9.2 3.7-3.2.6-6.4.7-9.6.5-3.6-.2-6.8-1.5-9.7-3.7l-.2-.2-1.4-1.4c.8-.2 1.4 0 2 .1 2.3.4 4.7.6 7.1.4a22 22 0 006.6-1.3 27.7 27.7 0 0014.1-11.2c.3-.4.2-.6-.3-.6-1.3.1-2.7.2-4 .1-2.1-.1-4.1-.5-6-1.4a10 10 0 01-3.6-2.9c-.1-.1-.2-.2-.1-.3l.3-.1h2.7c2.1.1 4.1-.4 6-1.1 3.2-1.1 6.3-2.7 9-4.6 1.7-1.2 3.3-2.6 5.1-3.8a28.7 28.7 0 0112.8-4.9c2.1-.3 4.2-.6 6.3-.4 3 .3 6 .7 8.7 2.2 1.4.7 2.6 1.7 3.8 2.7-.1.2.1.3.1.6z"/><path class="kel_st7" d="M60.8 81.2c.6 0 1 .4 1.5.6a14 14 0 007.8 1.2c1.8-.1 3.6-.3 5.4-.8.4-.1.5 0 .7.3A48.8 48.8 0 0179 98.4l-.1 4.2c0 .4-.2.4-.5.4-4.7-.4-9.4-.8-14-2l-1.4-.4c-.3-.1-.5-.1-.5.3-.2 1.7-.4 3.5-.9 5.2l-.1.3c-.3 0-.4.2-.5.4a24.4 24.4 0 01-1.8 3.9c-.2.3-.4.3-.7.1-.6-.4-1.4-.7-1.2-1.7l-.1-.1c-.2.2 0 .5-.2.7a58.1 58.1 0 01.9-26.8c.5 0 .6-.4.8-.7.6-.6 1.2-1 2.1-1z"/><path class="kel_st9" d="M128.5 119.8l.4-3.2.8-13.3.5-10.2.2-4c0-.5-.1-.7-.6-.7-3.8-.1-7.5-.4-11.2-1.1-1.3-.3-2.4-1-2.8-2.3-.7-1.9-1.8-3.6-2.9-5.3l-.7-1.7c-.2-.8.1-1.1.9-1.1h.5c0 .3.3.4.5.6 2 1.6 3.3 3.6 4.1 6 .1.3.2.4.4.4a133 133 0 0026 0h.3c.6-.1.6.2.6.6l-.9 7-.7 6.9c-.4 5.2-.7 10.5-.8 15.8l.1 7.7c0 .5 0 .7-.6.5l-1.2-.3c0-.3-.1-.6-.3-.8-1.2-1-1.6-2.3-1.6-3.8l.3-15 .2-6.2v-.4l.3-6.7c0-.4-.1-.5-.5-.5h-2.6c-.4 0-.5.1-.5.5l-.5 7.4-.3 4.7-.6 9.3-.4 8.8c0 .6-.2 1.2 0 1.7a28 28 0 01-6.4-1.3z"/><path class="kel_st7" d="M166.5 76s0 .1 0 0c0 .2 0 .3.2.4-.3.5 0 .8.2 1.2.1.2.2.2.3 0a53 53 0 014.2 24.8l-.2 2.2c0 .3-.1.4-.5.4-2.9-.6-5.9-1-8.8-1.9a9.7 9.7 0 01-3.3-1.4c-.4-.2-.5-.5-.3-1 .8-2.3 1-4.7.9-7.2a20 20 0 00-2.2-8.6c-.2-.4-.2-.8-.1-1.2.6-2.8.7-5.6.5-8.4-.2-2.9-.7-5.7-1.7-8.4-.6-1.8-1.4-3.5-2.2-5.2.4 0 .4-.3.3-.5l-.5-1.2c-.2-.3-.2-.6 0-.8.2-.2.4 0 .6.1.6.3 1.2.6 1.6 1.1l2.5 2.9c1.9 2.4 3.7 4.9 5.2 7.6.9 1.6 1.9 3.2 2.6 4.9l.7.2z"/><path class="kel_st10" d="M134.7 136.6l2.2-1.7c.1 0 .1.1.2 0 1.3-.4 2.5-1 3.8-1.6a420.8 420.8 0 0116.9-7.8c4.5-1.9 9.1-3.7 13.9-4.8 1.3-.3 2.6-.6 4-.3 1.5.2 2.6 1.7 2.1 3.2-.2.6-.6 1.1-.7 1.6l-4.6.4a34.1 34.1 0 00-9.8 3.3 122 122 0 00-9.5 4.9c-3.2 1.9-6.3 3.9-9.6 5.5a79.1 79.1 0 01-8.4 3.7c-1.6.6-3.1 1.2-4.8 1.6l.3-.2c.2-.1.5 0 .4-.3-.1-.2-.4-.2-.5-.1-.9.4-1.9.5-2.9.8-.8.3-1.7.4-2.6.4-.1 0-.3 0-.3-.2l.1-.4 1.6-1.4 3.5-2.5 2.3-1.7 2.3-1.6.5-.5c0-.2-.2-.3-.4-.3z"/><path class="kel_st9" d="M129.9 76.9c.3-1.6 0-3.1-.1-4.7l-.8-5.5c-.3-1.7-1.5-2.9-3-3.1-.9-.1-1.8.1-2.6.3-1.6.2-3.1.2-4.7.2-.3 0-.6 0-.7-.3l4.3-1.4 6.2-1.9c2.5-.7 4.9-1.4 7.5-1.9l4.7-.7c2-.2 3.2.9 4.2 2.3a31.1 31.1 0 015.2 18.7c0 .3 0 .5-.4.3-1.8-1-3.9-1.3-5.8-1.8l-.7-.2v-.6l-1.2-7.3-1.2-5.7c-.4-1.4-1-1.8-2.5-1.6l-2.7.6c-.9.2-1.1.5-.9 1.4.6 3 1.5 5.9 2.2 8.9.4 1.4.9 2.7 1 4.2l-8-.2z"/><path class="kel_st11" d="M177 125.3l.7-1.6c.5-1.5-.6-2.9-2.1-3.2-1.4-.2-2.7 0-4 .3a84.6 84.6 0 00-13.9 4.8 226.4 226.4 0 00-16.9 7.8L137 135h-.2c1.4-1.2 2.9-2.2 4.4-3.3 3.3-2.4 6.7-4.7 10.1-6.8 4.1-2.5 8.2-4.8 12.6-6.5a30 30 0 0111.9-2.3 13 13 0 019.5 4.1c1.5 1.6 2.9 3.2 3.6 5.4.7 1.9 1 3.9.3 5.8v.1c-.6 1.8-1.5 2-2.8.7-.9-.9-1.6-2-2.3-3.1-.3-.6-.2-.7.4-.8.3-.1.8.1.9-.4.1-.6-.5-.6-.8-.8-2-.7-4.1-1-6.1-1.4l-1.5-.4z"/><path class="kel_st7" d="M87.1 120.1l4.6 3.6c.3.2.7.2.8-.2.1-.4.1-.9-.4-1.1-.2-.1-.4-.3-.3-.5.2-.4 0-.7-.2-1-.1-.2-.3-.4-.2-.7.1-.4 0-.6-.1-1s-.6-.8-.5-1c.3-.6.1-1-.3-1.4v-.3c0-.5 0-.9-.2-1.3a.3.3 0 010-.4l.6-1.3c.1-.2.1-.6.4-.6.3 0 .4.3.6.5l1.1 1.9c1.3 2.3 2.7 4.6 4.4 6.7.8.9 1.6 1.7 2.6 2.5.9.7 2 1.2 2.9 2 .7.7.7 1.1-.1 1.6l-.2.1c-.1 0-.3.1-.3.3 0 .2.2.2.4.3l-3 1.2-7.5 2.7-1.1.3c-.2.1-.5.1-.8-.2a19.3 19.3 0 01-3.7-5.7c-.9-2.2-1.5-4.4-1.9-6.8v-.4l.1-.2c.1.4.2.2.5.1.4-.1.9-.2 1.2.3.2.1.4.3.6 0z"/><path class="kel_st4" d="M136 127.8c-1.8.5-3.6 1.2-5.3 1.9l-7.5 2.7c-2.5 1-5.1 1.9-7.6 3.1l-1 .7c-.1.1-.4.2-.3.4.1.2.4.2.5.2l1.4.2c1.6 0 3.2.2 4.7.1l3.9-.1a6 6 0 01-2.2 1.2 46.4 46.4 0 01-16.7 2.9c-1.8-.1-3.7-.1-5.5-.5-.6-.1-1.3-.1-1.9-.3-.5-.1-.5-.3-.2-.6 1.2-1.1 2.5-2 3.9-2.8 2.9-1.7 6.1-3 9.3-4.1 2.7-.9 5.4-1.7 8.2-2.4l5-1.1c2.5-.5 4.9-1 7.4-1.1a9 9 0 002.8-.4 2 2 0 011.1 0z"/><path class="kel_st10" d="M134.9 121.2c-.2-.6 0-1.2 0-1.7l.4-8.8.6-9.3.3-4.7.5-7.4c0-.4.1-.5.5-.5h2.6c.3 0 .5.1.5.5L140 96v.4l-.2 6.2-.3 15c0 1.5.4 2.8 1.6 3.8.3.2.3.5.3.8-1.9-.1-3.8-.6-5.7-.9l-.8-.1z"/><path class="kel_st8" d="M78.5 113.1c.7 0 1.8.2 2.8.8l.3.2c0 .2-.2.2-.3.3-1.5.8-2.8 1.9-3.2 3.7-.3 1.4-.2 2.8 0 4.2.6 3 1.3 5.9 2.5 8.6.5 1.3-.4 3.2-1.8 3.4-.6.1-1.3-.2-1.9-.5a11.7 11.7 0 01-6.8-8.6l-.3-1.8v-.5c.2-.2.4 0 .5 0l2.9 1.6c.4.2.8.7 1.2.4.3-.2-.1-.7-.3-1.1a9.6 9.6 0 01-.3-5.8l.5-2.4c.8-1.6 1.9-2.5 4.2-2.5z"/><path class="kel_st10" d="M93 81c.6 0 .9-.5 1.3-.8l2.4-1.7.5-.2c.6-.1 1-.3 1.3-.8l.3-.4c.3-.3.8-.5 1.1-.2.3.3-.2.6-.4.8l-.4.5c-.5.7-.5.7.3 1 .7.3.9.9.2 1.4-.6.5-1.2 1-2 1.1-.4.1-.8.2-.3.7l-.7-.1c-.1-.1-.2-.1-.2 0-.3.1-.8-.2-.9.1-.1.3.3.7.5 1l.7.8c1.6 1.9 1.8 4.1 1.6 6.4a9.2 9.2 0 01-1.5 4c-1.2 1.6-3.9 1.9-5.4.4a9 9 0 01-2.5-6.7l.1-1.1.1-.2c.4.1.5-.3.6-.5.2-.7.7-1.4 1.1-2l.3-.2c-.3.7-.3.7.4.7h.2c1.4.1 2.9 1.2 3.1 2.4.3 1.8.2 3.6-.3 5.3-.1.5-.4.9-.7 1.4-.1.1-.1.3 0 .4.1.1.3.1.4 0 .7-.3 1.3-.7 1.7-1.4a7 7 0 00.4-6.6c-.5-1.2-1.3-2.2-2.8-2.5h-1.7c0-.2 0-.4-.2-.5-.6-.3-.4-.7-.1-1 .5-.3 1-.9 1.5-1.5z"/><path class="kel_st11" d="M125.3 58.4c.1-.8-.5-.9-1-1.1l-9.7-3.1L111 53c-.5-.2-.9-.3-1.3-.7 1.2-.5 2.4-.8 3.6-1a33.1 33.1 0 0119.4 2.7c.3.2.9.2.9.6 0 .3-.6.3-.9.5l-6.9 3-.5.3z"/><path class="kel_st10" d="M137.6 77c-.1-1.5-.6-2.8-1-4.2-.8-3-1.6-5.9-2.2-8.9-.2-1 0-1.2.9-1.4l2.7-.6c1.4-.2 2 .2 2.5 1.6.6 1.9.9 3.8 1.2 5.7.5 2.4.8 4.9 1.2 7.3v.6l-5.3-.1z"/><path class="kel_st11" d="M146.7 119.2c-.3-.9-.3-1.7-.2-2.6.1-4 .5-8 .8-12l.8-7.7 1.1-9.8v-.3c.7.4.9 1 1.2 1.5.8 1.3 1.4 2.7 1.9 4.1l.1.9-3.3 14.7-2.1 9.5-.3 1.7z"/><path class="kel_st8" d="M75.5 59.2a22.5 22.5 0 00-2.7 7.5c-.3 2.6 0 5.1 1 7.5l.4 1.2c.1.3-.1.5-.3.4-1.2-.4-2.5-.4-3.7-.9-2.7-1.1-3.6-3.8-3.2-6.2.6-3.1 2.5-5.4 4.8-7.3.9-.8 1.9-1.4 3-2 .2-.1.4-.3.7-.2z"/><path class="kel_st12" d="M88.1 56.5a9.4 9.4 0 016-5.8c1.7-.6 3.3-.7 5.1-.7-.7 0-1.1.3-1.3.9l-.2.2c-.3.1-.4.4-.3.7-2.7 1.5-5 3.4-7.1 5.6l-.2.1c-.4-.1-.7.2-1 .4-.3.2-.5.1-.8 0-.3-.2-.2-.4-.1-.7.2-.1.4-.5-.1-.7zM107.1 42.1c2.6-.4 5.3-.5 7.9-.4l2.5.1c.5.5 1.3.4 1.9.6.4.1.7-.4 1.1.1.3.4-.2.7-.1 1.1-2 0-3.9-.1-5.9.1-1.2.1-2.4.2-3.5.6h-.5l-3.2-.8c.6.1.9-.1.6-.7v-.3c.1-.4 0-.5-.4-.5l-.4.1z"/><path class="kel_st13" d="M120.4 43.7c-.1-.4.4-.7.1-1.1-.3-.5-.7 0-1.1-.1-.6-.2-1.4-.1-1.9-.6l2.3.2c1.4 0 2.8.4 4.2.6l5.8 1.3a35.8 35.8 0 017.4 2.8c.2.1.4-.1.6.2-.3.5-.6.3-.9.1-.8-.5-1.3-.5-2 .2-.2.2-.4.1-.6.1l-.2-.1-.3-.1-.2-.1c-.1-.3-.4-.3-.6-.3-.1-.3-.4-.3-.6-.3-2-.7-4.1-1.5-6.2-1.9a63 63 0 00-5.8-.9z"/><path class="kel_st12" d="M102.8 128.6c-.2 0-.4 0-.4-.3 0-.2.1-.2.3-.3l.2-.1c.9-.5.9-.9.1-1.6-.9-.8-2-1.3-2.9-2-1-.7-1.8-1.6-2.6-2.5a43 43 0 01-5.5-8.6c-.1-.2-.3-.5-.6-.5s-.3.4-.4.6l-.6 1.3c-.1.1-.1.3 0 .4.2.4.2.9.2 1.3v.3c.4.4.6.8.3 1.4-.1.3.4.6.5 1 .1.3.2.6.1 1-.1.3 0 .5.2.7.2.3.4.6.2 1-.1.2.1.4.3.5.5.2.5.7.4 1.1-.1.4-.5.4-.8.2.4.1.4-.1.3-.4-.5-1.1-.9-2.3-1.1-3.5l-.1-.1-.1-.4c.2-.3.1-.5-.1-.6l-.2-1.1.2-.1-.2-.1-.1-.5c.1-.4.3-.8-.1-1.1-.3-1.5-.4-3.1-.4-4.7v-1.6c.4.3 0 .8.3 1.1.3-.5.7-.5 1.1-.5a42.8 42.8 0 006.5 11.4c1.4 1.7 3 3.2 5 4.3.7.4 1.5.6 2.3.9l.2.1h.1c0 .2.1.5-.1.7-.2.2.1.2.2.3-.6.4-1.3.5-1.9.7l-.8.3zM90.8 84.5c-.2 0-.3.1-.3.2-.5.6-.9 1.3-1.1 2-.1.3-.2.6-.6.5.2-1.5.9-2.8 1.6-4 .9-1.5 2.2-2.7 3.5-4 1.6-1.6 3.4-2.9 5.2-4.2.1-.1.3-.3.5-.3l.2-.1c.1 0 .2 0 .2-.2 1.5-1.2 3.2-2.2 4.8-3.3.1.1.1 0 .1-.1l.2-.1 5.4-3.9.2-.2v-.5c.6.3.7.8.1 1.2-.9.6-1.9 1.1-2.7 1.8-1.4 1.2-3.1 2.1-4.6 3.2l-4.1 2.8-3.2 2.5-3 2.9-1.6 1.7c-.3.3-.5.7.1 1 .2.1.2.3.2.5h-.1c-.5.4-.8.2-1 .6z"/><path class="kel_st10" d="M92 69.9l-1 4.4c-.3 0-.5.2-.6.3l-1.2 1.2c-.5.5-.7.4-1-.2 0-.1 0-.2-.2-.2-.1.1-.1.3-.3.3.1-.9.3-1.9.6-2.7.3-.1.5-.2.2-.5 0-.4.2-.7.3-1 .3 0 .5-.2.6-.5.4-1.2.9-2.3 1.7-3.3.3-.3.5-.3.7 0 .2.2.2.5.1.8-.1.3-.2.6.3.6 0 .1 0 .3-.2.4l-.2.1c0 .2.1.2.2.3z"/><path class="kel_st12" d="M134.7 136.6c.2 0 .3.1.2.3l-.5.5-2.3 1.6-2.3 1.7a28 28 0 00-3.5 2.5l-1.6 1.4c-.1.1-.2.2-.1.4 0 .2.2.2.3.2.9 0 1.8-.1 2.6-.4 1-.3 2-.4 2.9-.8.2-.1.5-.2.5.1.1.3-.3.2-.4.3l-.3.2h-.1c-.1-.2-.3-.3-.5-.1-.1.1-.1.2.1.2l-1.3.3c-.4-.2-.7-.1-.9.3h-.2c-.3-.2-.5-.1-.6.2h-.1c-.3-.2-.5-.1-.6.1-1.5.4-3 .8-4.5 1 .1-.2.2-.2.4-.2s.3-.2.1-.3c-.5-.2-.4-.5-.2-.8.1-.1 0-.2-.1-.3l4.5-2.7 2.4-1.6 3-2.1 3.1-2zM166.5 76c-.3 0-.4-.1-.5-.3l-2.6-4.9a56.7 56.7 0 00-7.7-10.5c-.5-.5-1.1-.8-1.6-1.1-.2-.1-.4-.3-.6-.1-.2.2-.2.6 0 .8l.5 1.2c.1.2.1.5-.3.5-.9-1.7-2-3.2-3.1-4.8.6-.2 1.1-.5 1.7 0l.2-.1a79 79 0 0111.6 14.5l2.4 4.8zM134.3 47.4c.2 0 .4.1.6-.1.7-.6 1.2-.7 2-.2.3.2.6.4.9-.1.9.3 1.7.8 2.5 1.2.3.2.4.4.2.7-.4 1.1-.8 1.3-1.8.8a61 61 0 01-4.4-2.3zM92.2 69.1c-.5 0-.4-.4-.3-.6.1-.3.1-.5-.1-.8-.2-.3-.4-.4-.7 0-.8 1-1.3 2.1-1.7 3.3-.1.3-.3.5-.6.5a25 25 0 013.9-7.4c0 .5.6.2.7.6.1.5.3.3.6.2l-1.8 4.2z"/><path class="kel_st13" d="M152.4 56.6l-.2.1c-.6-.5-1.2-.2-1.7 0a45.4 45.4 0 00-5.8-5.8v-.2c.9.3 1.5.9 2.3 1.4 1.8 1.4 3.7 2.9 5.4 4.5z"/><path class="kel_st12" d="M57 109.9c.2-.2 0-.5.2-.7l.1.1c-.2 1 .6 1.3 1.2 1.7.3.2.5.1.7-.1l.8-1.5 1-2.4c.1-.2.2-.4.5-.4-.3 1.7-1 3.2-1.8 4.7l-1.4 2.2c-.1.2-.2.3-.4.3l-.9-3.9z"/><path class="kel_st13" d="M93.9 64.9c-.3.1-.5.3-.6-.2-.1-.4-.7-.1-.7-.6a26 26 0 013.8-4.4l.5-.5.2-.1.2.1a40.8 40.8 0 00-3.4 5.7zM88.1 56.5c.5.2.2.6.1.8-.1.3-.2.5.1.7.3.2.5.3.8 0 .3-.2.5-.6 1-.4l-1.7 2.1c-.4.4-.6.9-.9 1.3-.1.2-.2.3-.5.4.1-1.7.5-3.3 1.1-4.9zM121.7 145.2c.1.1.2.2.1.3-.2.3-.3.6.2.8.2.1.1.2-.1.3l-.4.2c-1.5.2-3 .7-4.6.6 1.7-.3 3.2-1.4 4.8-2.2z"/><path class="kel_st12" d="M87.6 75.8c.2 0 .2-.2.3-.3l.2.2c.3.6.5.7 1 .2l1.2-1.2c.2-.2.3-.4.6-.3 0 .2 0 .4-.2.5l-3.6 3.7.5-2.8z"/><path class="kel_st13" d="M107.1 42.1h.4c.4 0 .6.1.4.5v.3c.3.7-.1.8-.6.7-.2-.2-.4-.1-.6-.1-.6 0-1.2-.3-1.9-.4-.2-.3 0-.5.1-.7l2.2-.3z"/><path class="kel_st12" d="M105.1 99.4c-.1.1-.2.3-.4.1-.5-.4-.9-.3-1.3.2s-.4.5-.7-.1v-.2-.1l.1-1.6.2-.4c.1.2-.1.5.2.6.3.1.4-.2.5-.4l.4-.2c.4.6.7 1.4 1 2.1z"/><path class="kel_st13" d="M91.1 110c-.4 0-.9 0-1.1.5-.3-.4.1-.8-.3-1.1v-2.8c.6 1.1 1.1 2.2 1.4 3.4zM97.4 51.9c0-.3 0-.6.3-.7l.2-.2c.2-.6.6-1 1.3-.9h1.8l.1.2-3.4 1.6-.2.1-.1-.1zM87.1 120.1c-.2.3-.5.1-.6-.1-.3-.4-.8-.3-1.2-.3-.2 0-.4.2-.5-.1l-.1.2c-.2-.7-.2-1.3-.2-2.1.9.6 1.3 1.4 2.1 1.9l.1.1.4.4z"/><path class="kel_st12" d="M60.8 81.2c-.9-.1-1.4.3-1.9 1-.2.4-.4.8-.9.8l.6-2.2c.1-.3.2-.3.5-.2.6.2 1.2.3 1.7.6z"/><path class="kel_st13" d="M104.1 97.2c-.1 0-.3 0-.4.2-.1.2-.2.5-.5.4-.2-.1 0-.4-.2-.6l-.2.4v-2.7c.7.8 1 1.6 1.3 2.3zM105.3 127.7c-.1-.1-.3-.1-.2-.3.2-.2.1-.5.1-.7.5.1 1.1.2 1.8.1-.5.5-.9.7-1.4.8-.1-.1-.3-.2-.3.1z"/><path class="kel_st10" d="M104.9 42.4c-.1.2-.3.4-.1.7-.6-.1-1.3-.1-2-.5l2.1-.2z"/><path class="kel_st12" d="M144.6 50.8v.2l-1.8-1.4 1.6.9c0 .2.1.3.2.3zM167.2 77.6c-.1.2-.2.2-.3 0-.2-.4-.5-.8-.2-1.2l.5 1.2zM97.4 59.3l-.2-.1.9-.8-.7.9z"/><path class="kel_st7" d="M90.1 115.6c.4.3.2.7.1 1.1l-.1-1.1z"/><path class="kel_st10" d="M127.6 145.5c.2-.3.5-.5.9-.3l-.9.3zM129.7 144.9c-.2 0-.2-.1-.1-.2.2-.2.3-.2.5.1l-.4.1z"/><path class="kel_st12" d="M88.5 72.5c.3.3.1.4-.2.5 0-.2 0-.4.2-.5z"/><path class="kel_st10" d="M126 145.9c.2-.3.4-.3.6-.1l-.6.1z"/><path class="kel_st13" d="M89.7 110v0z"/><path class="kel_st10" d="M126.8 145.7c.2-.2.4-.4.6-.2l-.6.2z"/><path class="kel_st12" d="M92 69.9l-.2-.2.2-.1v.3zM132.2 46.5c.2 0 .5-.1.6.3l-.6-.3zM132.9 46.8c.3 0 .5-.1.6.3l-.6-.3z"/><path class="kel_st7" d="M90.6 118.6c.3.2.3.4.1.6l-.1-.6z"/><path class="kel_st12" d="M106.6 43.5c.2 0 .5-.1.6.1-.2.1-.4 0-.6-.1z"/><path class="kel_st7" d="M90.4 117.2l.2.1-.2.1v-.2z"/><path class="kel_st12" d="M105.3 127.7c0-.2.2-.2.3-.1l-.3.1z"/><path class="kel_st13" d="M144.6 50.8c-.2 0-.2-.1-.2-.2.1-.1.2 0 .2.2z"/><path class="kel_st12" d="M166.6 76.4l-.1-.3.1.3z"/><path class="kel_st13" d="M105.1 126.6l-.2-.1.2.1z"/><path class="kel_st7" d="M110.5 67l-.2.2c0-.2.1-.2.2-.2z"/><path class="kel_st12" d="M134 47.3l.2.1-.2-.1z"/><path class="kel_st7" d="M96.3 82.6c.1-.1.2-.1.2 0h-.2z"/><path class="kel_st12" d="M133.7 47.1l.3.1c-.1.1-.2 0-.3-.1zM97.1 59.1l-.2.1.2-.1z"/><path class="kel_st7" d="M99.9 74.5l-.2.2c0-.2.1-.2.2-.2z"/><path class="kel_st8" d="M86.6 47.9s.1 0 0 0c.1 0 0 0 0 0z"/><path class="kel_st7" d="M104.9 71l-.2.1.2-.1z"/><path class="kel_st12" d="M97.5 51.9l.2-.1-.2.1z"/><path class="kel_st7" d="M104.7 71.1c0 .1 0 .1 0 0-.1 0 0 0 0 0zM99.6 74.6l-.2.1.2-.1zM90.9 119.6s0 .1 0 0c.1.1 0 .1 0 .1v-.1zM86.7 119.8l-.1-.1.1.1zM102.8 99.3v0z"/><path class="kel_st12" d="M88.7 87.3l-.1.2.1-.2z"/><path class="kel_st11" d="M90.8 84.5c.3-.1.5-.1.7-.3h1.8c1.4.2 2.3 1.2 2.8 2.5a7 7 0 01-.4 6.6c-.4.7-1 1.1-1.7 1.4-.1.1-.3.1-.4 0a.3.3 0 010-.4l.7-1.4c.5-1.7.6-3.5.3-5.3-.2-1.2-1.7-2.3-3.1-2.4h-.2c-.8 0-.8 0-.5-.7z"/><path class="kel_st10" d="M91.5 84.3l-.6.2c.1-.4.4-.2.6-.2z"/></svg>