<svg version="1.1" id="Layer_1" xmlns="http://www.w3.org/2000/svg" x="0" y="0" viewBox="0 0 200 200" xml:space="preserve"><style>.met_st1{fill:#082a17}.met_st2{fill:#84704c}.met_st3{fill:#a8a8a8}.met_st4{fill:#fdfdfd}.met_st5{fill:#675539}.met_st6{fill:#67553a}</style><path d="M29.57 169.77c-.66-.27-1.38-.22-2.07-.32a33.74 33.74 0 01-12.88-4.62c-.36-.22-.43-.36-.2-.76a71.45 71.45 0 0110.51-13.53 138.22 138.22 0 0123.62-19.25c.34-.22.37-.38.2-.74a52.13 52.13 0 01-4.25-13.41 44.52 44.52 0 01-.37-11.06 45.28 45.28 0 013.91-15.11 47.1 47.1 0 015.48-9.15c.25-.33.24-.53-.03-.84a15.38 15.38 0 00-2.85-2.55c-.28-.2-.46-.18-.71.04a37.37 37.37 0 00-6.98 7.92 60.5 60.5 0 00-6.74 13.18c-.11.3-.22.45-.59.39-5.54-.96-10.91-2.46-15.96-5.03-7.24-3.68-12.92-8.95-16.55-16.29a28.78 28.78 0 01-2.98-9.85c-.01-.08-.02-.14-.11-.16v-.9a74.47 74.47 0 0011.94-5.74 96.37 96.37 0 0017.72-13.56c4.86-4.65 9.29-9.66 13.19-15.14.57-.79 1.09-1.62 1.61-2.44.24-.38.36-.43.66-.04 2.24 2.95 4.48 5.89 6.75 8.81 4.4 5.65 8.82 11.27 13.57 16.63 1.3 1.46 2.58 2.94 4.26 4 .27.17.29.31.11.57-.51.72-.99 1.47-1.67 2.05-.21.18-.18.3-.03.5a149.2 149.2 0 012.63 3.45c.24.33.41.17.64.04a61.08 61.08 0 0112.55-5.46 52.84 52.84 0 0114.07-2.27 55.3 55.3 0 0129.92 7.81c.26.15.44.28.67-.07a20.55 20.55 0 013.36-3.55c.35-.31.3-.43-.03-.69-.85-.65-1.66-1.35-2.49-2.03.02-.04.02-.08.04-.1 2.72-1.78 4.7-4.3 6.75-6.75a535.83 535.83 0 0018.13-23.29c.37-.5.37-.49.74.05a102.66 102.66 0 0033.13 30.98 69.54 69.54 0 0010.97 5.18c.47.18.61.4.57.88-.28 3.7-1.4 7.16-3.02 10.47-3.61 7.38-9.31 12.67-16.55 16.38a55.4 55.4 0 01-15.79 5.06c-.44.08-.42-.21-.5-.42a60.31 60.31 0 00-6.37-12.37 38.72 38.72 0 00-7.47-8.53c-.36-.3-.6-.3-.98-.06a12.93 12.93 0 00-3.86 3.23c-.28.39-.35.66-.03 1.12a48.2 48.2 0 018.37 20.9c1.38 9.47.1 18.59-3.86 27.31-.21.46-.12.62.27.87 7.48 4.75 14.59 10 21.11 16.02 4.7 4.34 9.08 8.97 12.67 14.3.51.76.96 1.56 1.4 2.37.12.21.11.33-.11.5a23.97 23.97 0 01-11.23 4.6c-6.82.95-13.38-.18-19.77-2.58-.54-.2-.73-.51-.78-1.05-.27-3-1.08-5.86-2.44-8.55a27.34 27.34 0 00-11.05-11.47c-.35-.2-.5-.03-.7.17a52.42 52.42 0 01-9.53 7.52 56.5 56.5 0 01-21.44 7.88 57.2 57.2 0 01-17.23.07c-11.95-1.78-22.37-6.73-31.1-15.13-.2-.19-.32-.34-.63-.11-5.26 3.9-9.42 8.69-11.93 14.8a19.53 19.53 0 00-1.4 5.02c-.04.3-.15.45-.41.59a28.5 28.5 0 01-11.34 3.21c-.09.01-.19-.01-.24.09l-4.27.01zm15.37-134.5a118.47 118.47 0 01-9.09 10.96 138.26 138.26 0 01-5.44 5.39 96.42 96.42 0 01-14.3 11.13 82 82 0 01-12.69 6.66c-.27.11-.35.21-.29.54.46 2.5 1.29 4.89 2.39 7.18a31.9 31.9 0 009.33 11.45 39.27 39.27 0 009.52 5.39 55.62 55.62 0 009.47 2.79c.31.07.43 0 .54-.28.35-.85.7-1.7 1.09-2.53a62.62 62.62 0 017.46-12.28 36.28 36.28 0 016.69-6.53c.24-.18.47-.25.78-.11 2.13 1 3.87 2.48 5.38 4.26.72.85 1.19 1.91 2.17 2.55.37.24.68.56 1.04.86a1.2 1.2 0 01-.66.25c-.56.09-.9.34-1.13.92-.38.95-.72 2.01-2 2.16-.18.02-.25.18-.27.37-.1.81-.24 1.62-.32 2.44-.08.71-.09 1.43-1 1.64-.21.05-.29.27-.42.43-1.41 1.89-1.47 4.16-1.73 6.36-.07.62-.27 1.06-.76 1.42-.36.27-.7.56-1.05.85a.59.59 0 00-.24.59c.07.4.12.81.21 1.21.2.91.2 1.74-.7 2.32-.26.17-.3.44-.31.74-.02.56-.08 1.12-.14 1.68l-.53 4.56c-.1.87.39 1.54.73 2.26.13.26.15.47 0 .73-.36.61-.65 1.28-1.07 1.85-.36.49-.28.86.11 1.19.61.53.67 1.06.3 1.79-.45.9-.26 1.18.72 1.22.4.01.47.17.45.52a8.88 8.88 0 01-.27 1.88c-.26.95.19 1.36.92 1.65.51.21.53.55.44 1-.08.36-.12.74-.18 1.1-.1.58.07.99.63 1.29.59.32.8.88.67 1.47-.19.89-.06 1.1.81 1.41.75.27 1.48.56 2.3.87-.83.53-1.56 1.01-2.31 1.46a111.19 111.19 0 00-8.43 5.7 155.93 155.93 0 00-8.12 6.38 128.4 128.4 0 00-5.9 5.28c-3.11 2.97-6 6.14-8.64 9.53a55.97 55.97 0 00-2.76 3.9c-.15.23-.29.45.1.62a33.38 33.38 0 009.47 2.88c2.39.32 4.76.38 7.16.12a27.6 27.6 0 006.77-1.72c.87-.33 1.62-.69 1.64-1.82 0-.41.23-.82.36-1.24a32.17 32.17 0 014.71-9.29 36.54 36.54 0 015.89-6.47c2.26-1.93 4.67-3.68 6.88-5.68.26-.23.37-.22.51.12.4.95.84 1.88 1.27 2.82.13.3.33.44.68.48 1.06.12 2.11.3 3.16.42.28.03.39.14.46.38.27.88.58 1.74.83 2.63.11.39.29.52.7.52 1.77-.02 3.53 0 5.3-.02.36 0 .55.06.57.47.02.41.13.81.21 1.21.21 1.06.21 1.06 1.32.92.24-.03.48-.05.72-.1.83-.17 1.61-.24 2.22.57.34.46.82.83 1.22 1.25.18.18.36.3.63.32 1.6.13 3.2.3 4.8.42.39.03.67.12.93.41.67.76 1.36 1.49 2.03 2.26.34.39.65.58 1.2.36 1.1-.42 2.25-.73 3.36-1.11.38-.13.62-.07.89.22.94 1 1.89 1.98 2.85 2.96.13.14.24.3.51.27 1.15-.12 2.31-.2 3.46-.28 1.92-.13 3.85-.2 5.77-.37.47-.04 1.04.11 1.42-.34.85-1 1.69-2 2.51-3.02.22-.27.4-.36.76-.27 1.41.38 2.84.69 4.24 1.07.41.11.58-.04.75-.33.46-.82.95-1.62 1.38-2.45.2-.38.45-.44.83-.36.82.17 1.65.32 2.47.5.25.05.38.02.43-.27.07-.44.23-.87.27-1.32.04-.52.31-.68.78-.76 1.23-.21 2.46-.46 3.69-.69.34-.07.59-.19.71-.59.23-.77.55-1.51.82-2.27.07-.2.12-.4.41-.36 1.21.18 2.44.05 3.65.08.38.01 1.33-.75 1.38-1.1.06-.43.13-.86.11-1.28-.03-.53.22-.61.65-.53l1.43.28c.38.09.62.09.68-.42.11-.85.34-1.68.48-2.53.07-.42.2-.43.46-.14.86.94 1.92 1.56 3.05 2.14a30.2 30.2 0 019.7 7.88 27.46 27.46 0 015.9 13.23c.04.3.09.58.49.72a42.07 42.07 0 0011.86 2.26c1.82.09 3.63-.09 5.43-.35 2.6-.38 5.05-1.24 7.36-2.49.45-.25.5-.42.22-.84a63.7 63.7 0 00-6.69-8.22 123.14 123.14 0 00-11.53-10.63c-3.1-2.51-6.29-4.91-9.6-7.12-2.99-2-5.91-4.13-9.17-5.69-.08-.04-.17-.08-.15-.23.16-.09.34-.21.53-.27.65-.19.88-.67.98-1.28.08-.5.23-.98.33-1.48.04-.18.09-.32.26-.4.82-.35 1.25-.83 1.02-1.84-.18-.79-.11-1.64-.24-2.45-.04-.27.08-.41.26-.56.25-.22.61-.33.73-.68.2-.64.43-1.28.57-1.94.36-1.78-.11-3.54-.16-5.31-.01-.29.03-.5.2-.71l1.07-1.3c.22-.25.27-.49.12-.82-.25-.56-.42-1.16-.65-1.74-.19-.46-.13-.86.17-1.26.21-.28.5-.56.46-.93-.16-1.65-.41-3.3-.5-4.96-.08-1.36-.24-2.63-1.27-3.64-.26-.26-.26-.59-.14-.94.22-.6.33-1.24.59-1.81.25-.56.1-.92-.38-1.18-.68-.37-.83-.87-.64-1.62.31-1.23.26-1.27-1.01-1.12-.44.05-.43-.08-.47-.42-.05-.43-.09-.85-.1-1.29-.01-1.02-.12-1.98-1.45-2.09l-.05-.02c-.36-.06-.41-.29-.42-.61-.01-.62-.07-1.23-.11-1.85-.01-.21-.09-.33-.31-.4-1.34-.46-1.45-.6-1.49-1.97-.01-.46-.22-.62-.66-.63-.47-.01-.93-.07-1.4-.12-.08-.01-.2-.06-.23-.12-.05-.1.06-.15.14-.2.44-.29.86-.61 1.31-.87.47-.28.78-.61.96-1.16a8.3 8.3 0 012.78-3.67 21.36 21.36 0 014.3-2.75c.47-.23.85-.26 1.33.1a36.03 36.03 0 015.95 5.63 53.25 53.25 0 014.89 6.85 68.77 68.77 0 014.33 8.46c.16.37.36.43.69.35 1.77-.41 3.53-.83 5.26-1.38 3.08-.98 6.06-2.2 8.87-3.81a34.52 34.52 0 006.46-4.65 32.43 32.43 0 006.28-7.81 31.38 31.38 0 003.44-9.17c.11-.52-.07-.67-.48-.84a80.3 80.3 0 01-11.01-5.52c-3.35-2-6.54-4.23-9.62-6.62a120.27 120.27 0 01-10.03-8.84c-1.42-1.39-2.76-2.86-4.11-4.32a111.26 111.26 0 01-6.58-8.03c-.19-.26-.29-.36-.55-.01-1.6 2.14-3.24 4.26-4.86 6.39-2.67 3.52-5.39 7-8.17 10.42-2.28 2.8-4.52 5.64-7.09 8.19-.3.3-.25.51.05.73.72.52 1.27 1.22 1.92 1.82.26.24.31.36-.02.63a59.2 59.2 0 00-3.04 2.67 31.29 31.29 0 00-4.75 5.89c-.24.36-.33.24-.47-.04-.24-.49-.5-.97-.73-1.46a.98.98 0 00-.6-.56c-.46-.15-.92-.37-1.39-.44-.95-.15-1.57-.63-1.87-1.53-.11-.34-.34-.43-.69-.43-1.24.02-2.48.01-3.72.01-.22 0-.48.05-.59-.22-.38-.91-1.19-1.21-2.03-1.53a7.99 7.99 0 00-3.28-.63c-1.24.06-2.48-.02-3.72.03-.54.02-.92-.15-1.27-.54a9.58 9.58 0 00-1.39-1.31c-.19-.14-.32-.19-.56-.12-.84.25-1.7.45-2.54.72a.84.84 0 01-.92-.19c-.66-.6-1.4-.99-2.34-.82a5.2 5.2 0 01-.78.1c-1.82.06-3.64-.02-5.46.08-.88.05-1.65.2-2.33.75-.69.57-1.4.77-2.23.23-.31-.2-.69-.28-1.04-.43-1.01-.41-1.55-.32-2.29.48-.36.39-.71.59-1.22.31-.09-.05-.22-.04-.32-.08-.5-.2-.92.1-1.33.28-.33.14-.15.54-.14.82.01.41-.14.51-.53.5-.86-.02-1.73 0-2.59-.01-.61-.01-1 .24-1.18.82-.09.3-.23.59-.36.88-.09.2-.23.35-.48.29-.67-.16-1.35-.03-2.02-.08-.52-.04-.83.15-1 .68-.29.87-.87 1.24-1.77 1.24h-.79c-.29-.02-.45.06-.49.38-.06.42-.17.84-.27 1.26-.04.15.02.39-.18.43-.17.03-.28-.17-.38-.3-1.14-1.29-2.29-2.57-3.31-3.96-1.23-1.67-2.56-3.27-3.85-4.9-.27-.34-.29-.53.18-.7.54-.2 1.05-.49 1.57-.76.26-.13.36-.28.08-.54a34.84 34.84 0 01-2.38-2.48c-1.06-1.23-2.16-2.44-3.2-3.69a394.6 394.6 0 01-4.86-5.96c-1.8-2.25-3.58-4.51-5.36-6.78l-5-6.46z" fill="#0a5f31"/><path class="met_st1" d="M44.94 35.27c1.7 2.2 3.36 4.35 5.03 6.48 1.78 2.27 3.56 4.53 5.36 6.78 1.6 2 3.22 3.99 4.86 5.96 1.04 1.25 2.14 2.46 3.2 3.69a37.1 37.1 0 002.38 2.48c.27.26.18.41-.08.54-.52.26-1.03.56-1.57.76-.47.17-.45.37-.18.7 1.29 1.63 2.62 3.23 3.85 4.9 1.02 1.39 2.17 2.67 3.31 3.96.11.12.21.33.38.3.2-.04.14-.28.18-.43.1-.42.21-.83.27-1.26.05-.32.2-.4.49-.38.26.02.53 0 .79 0 .9 0 1.48-.37 1.77-1.24.18-.53.49-.72 1-.68.67.05 1.35-.08 2.02.08.25.06.39-.09.48-.29.13-.29.27-.58.36-.88.18-.59.57-.83 1.18-.82.86.02 1.73-.01 2.59.01.38.01.54-.1.53-.5-.01-.28-.18-.68.14-.82.41-.18.83-.47 1.33-.28.1.04.23.03.32.08.51.28.85.08 1.22-.31.74-.8 1.28-.89 2.29-.48.35.14.73.22 1.04.43.82.54 1.53.34 2.23-.23.68-.55 1.45-.7 2.33-.75 1.82-.1 3.64-.03 5.46-.08.26-.01.52-.06.78-.1.94-.17 1.68.22 2.34.82.28.25.54.31.92.19.84-.27 1.7-.47 2.54-.72.23-.07.37-.02.56.12.52.38.96.84 1.39 1.31.36.39.73.56 1.27.54 1.24-.04 2.48.03 3.72-.03a7.83 7.83 0 013.28.63c.84.33 1.65.63 2.03 1.53.11.27.37.22.59.22 1.24 0 2.48.01 3.72-.01.35-.01.58.09.69.43.3.91.93 1.39 1.87 1.53.48.07.93.29 1.39.44.29.09.47.29.6.56.23.49.49.97.73 1.46.14.28.24.41.47.04a30.97 30.97 0 014.75-5.89c.98-.92 2-1.81 3.04-2.67.33-.27.28-.4.02-.63-.65-.6-1.2-1.29-1.92-1.82-.3-.22-.35-.43-.05-.73 2.57-2.55 4.81-5.39 7.09-8.19 2.79-3.43 5.5-6.91 8.17-10.42 1.62-2.13 3.26-4.25 4.86-6.39.26-.35.36-.25.55.01a118.07 118.07 0 006.58 8.03c1.35 1.46 2.68 2.94 4.11 4.32 3.2 3.11 6.49 6.1 10.03 8.84a98.26 98.26 0 009.62 6.62 79.18 79.18 0 0011.01 5.52c.41.16.59.32.48.84a31.66 31.66 0 01-3.44 9.17 32.05 32.05 0 01-6.28 7.81 35.18 35.18 0 01-6.46 4.65 45.45 45.45 0 01-8.87 3.81c-1.73.55-3.5.97-5.26 1.38-.33.08-.53.02-.69-.35a67.4 67.4 0 00-4.33-8.46 52.3 52.3 0 00-4.89-6.85 35.66 35.66 0 00-5.95-5.63c-.48-.36-.86-.33-1.33-.1a21.36 21.36 0 00-4.3 2.75 8.38 8.38 0 00-2.78 3.67c-.18.55-.49.88-.96 1.16-.45.27-.87.58-1.31.87-.08.05-.19.11-.14.2.03.06.15.11.23.12.46.05.93.11 1.4.12.44.01.65.17.66.63.04 1.37.16 1.51 1.49 1.97.22.07.3.19.31.4.03.62.09 1.23.11 1.85.01.32.06.56.42.61l.05.02c1.33.11 1.44 1.07 1.45 2.09.01.43.04.86.1 1.29.04.33.04.47.47.42 1.28-.16 1.32-.11 1.01 1.12-.19.75-.04 1.25.64 1.62.48.26.63.62.38 1.18-.26.58-.38 1.22-.59 1.81-.13.36-.13.68.14.94 1.03 1.01 1.19 2.29 1.27 3.64.09 1.66.34 3.3.5 4.96.04.37-.26.65-.46.93-.3.4-.36.79-.17 1.26.23.57.4 1.17.65 1.74.15.33.09.56-.12.82l-1.07 1.3c-.17.21-.21.42-.2.71.05 1.77.52 3.53.16 5.31-.13.66-.37 1.3-.57 1.94-.11.36-.47.47-.73.68-.19.16-.31.3-.26.56.13.81.06 1.66.24 2.45.23 1.01-.2 1.5-1.02 1.84-.18.07-.23.22-.26.4-.1.49-.25.98-.33 1.48-.1.61-.33 1.09-.98 1.28-.19.06-.37.18-.53.27-.03.15.07.19.15.23 3.26 1.57 6.18 3.69 9.17 5.69 3.32 2.22 6.51 4.61 9.6 7.12a123.14 123.14 0 0111.53 10.63 63.54 63.54 0 016.69 8.22c.28.42.24.59-.22.84a22.12 22.12 0 01-7.36 2.49c-1.8.26-3.61.44-5.43.35a42.2 42.2 0 01-11.86-2.26c-.4-.14-.45-.42-.49-.72-.2-1.55-.58-3.05-1.08-4.52a27.67 27.67 0 00-4.82-8.71 30.17 30.17 0 00-9.7-7.88 10.24 10.24 0 01-3.05-2.14c-.27-.29-.39-.28-.46.14-.15.85-.37 1.68-.48 2.53-.07.51-.3.51-.68.42-.47-.11-.95-.19-1.43-.28-.42-.08-.68 0-.65.53.02.42-.05.86-.11 1.28-.05.35-.99 1.11-1.38 1.1-1.22-.03-2.44.1-3.65-.08-.29-.04-.33.15-.41.36-.27.76-.59 1.5-.82 2.27-.12.4-.37.53-.71.59-1.23.23-2.46.48-3.69.69-.46.08-.74.24-.78.76-.03.44-.19.87-.27 1.32-.05.28-.18.32-.43.27l-2.47-.5c-.37-.08-.63-.02-.83.36-.43.83-.92 1.63-1.38 2.45-.17.3-.34.45-.75.33-1.41-.39-2.83-.7-4.24-1.07-.36-.09-.54-.01-.76.27-.82 1.02-1.66 2.02-2.51 3.02-.38.45-.95.3-1.42.34-1.92.17-3.85.24-5.77.37-1.16.08-2.31.17-3.46.28-.27.03-.37-.14-.51-.27-.95-.98-1.91-1.96-2.85-2.96-.27-.29-.51-.35-.89-.22-1.11.39-2.26.7-3.36 1.11-.56.21-.87.03-1.2-.36-.66-.76-1.36-1.5-2.03-2.26-.25-.29-.54-.38-.93-.41-1.6-.12-3.2-.29-4.8-.42a.94.94 0 01-.63-.32c-.41-.42-.88-.78-1.22-1.25-.61-.81-1.39-.74-2.22-.57-.24.05-.48.07-.72.1-1.1.14-1.1.14-1.32-.92-.08-.4-.19-.81-.21-1.21-.02-.41-.21-.48-.57-.47-1.77.01-3.53-.01-5.3.02-.41.01-.59-.12-.7-.52-.25-.88-.56-1.75-.83-2.63-.07-.24-.19-.35-.46-.38-1.06-.12-2.1-.31-3.16-.42-.35-.04-.55-.18-.68-.48-.42-.94-.86-1.87-1.27-2.82-.14-.34-.25-.35-.51-.12-2.21 1.99-4.62 3.75-6.88 5.68a36.2 36.2 0 00-5.89 6.47 32.05 32.05 0 00-4.71 9.29c-.13.41-.35.82-.36 1.24-.01 1.13-.76 1.49-1.64 1.82a27.7 27.7 0 01-6.77 1.72c-2.4.27-4.77.21-7.16-.12a33.38 33.38 0 01-9.47-2.88c-.39-.18-.25-.4-.1-.62a58.45 58.45 0 012.76-3.9 87.63 87.63 0 018.64-9.53 128.4 128.4 0 015.9-5.28c2.64-2.22 5.34-4.35 8.12-6.38 2.74-2.01 5.51-3.95 8.43-5.7.75-.45 1.48-.94 2.31-1.46-.81-.31-1.55-.6-2.3-.87-.88-.31-1-.52-.81-1.41a1.3 1.3 0 00-.67-1.47c-.55-.3-.72-.71-.63-1.29.06-.37.11-.74.18-1.1.09-.45.07-.79-.44-1-.72-.3-1.18-.7-.92-1.65.16-.59.24-1.24.27-1.88.01-.34-.06-.5-.45-.52-.98-.03-1.18-.32-.72-1.22.37-.73.31-1.26-.3-1.79-.39-.34-.47-.7-.11-1.19.42-.57.71-1.24 1.07-1.85.15-.26.13-.46 0-.73-.34-.72-.83-1.4-.73-2.26l.53-4.56c.06-.56.12-1.12.14-1.68.01-.3.05-.57.31-.74.91-.57.9-1.41.7-2.32-.09-.4-.13-.81-.21-1.21a.59.59 0 01.24-.59c.35-.28.69-.58 1.05-.85.48-.36.69-.81.76-1.42.26-2.2.32-4.46 1.73-6.36.12-.17.2-.39.42-.43.91-.21.92-.93 1-1.64.09-.82.23-1.63.32-2.44.02-.19.09-.35.27-.37 1.29-.15 1.63-1.21 2-2.16.23-.57.57-.83 1.13-.92.22-.03.44-.07.66-.25-.36-.3-.67-.62-1.04-.86-.98-.64-1.46-1.7-2.17-2.55a15.72 15.72 0 00-5.38-4.26c-.31-.14-.54-.07-.78.11a35.67 35.67 0 00-6.69 6.53 62.04 62.04 0 00-7.46 12.28c-.4.83-.74 1.68-1.09 2.53-.11.28-.23.35-.54.28a55.62 55.62 0 01-9.47-2.79 39.46 39.46 0 01-9.52-5.39 32.1 32.1 0 01-9.33-11.45 28.33 28.33 0 01-2.39-7.18c-.06-.32.02-.43.29-.54a82.46 82.46 0 0012.69-6.66 96.42 96.42 0 0014.3-11.13 131.7 131.7 0 005.44-5.39 96.87 96.87 0 005.18-5.91 160.6 160.6 0 003.88-5.07zm91.78 39.22l-.02-.02c.04-.08.06-.18.11-.25l3.39-4.2 2.51-3.1c.15-.19.33-.41-.07-.55-.97-.34-1.93-.72-2.93-.98-.29-.07-.49-.02-.7.21-1.22 1.38-2.46 2.73-3.67 4.11-1.18 1.34-2.32 2.7-3.48 4.05-.21.24-.3.45.04.69a54.46 54.46 0 015.08 4c.26.23.36.72.75.67.36-.05.57-.46.86-.7 2.74-2.31 5.38-4.73 8.23-6.9.21-.16.26-.32.16-.57a6.64 6.64 0 00-2.5-3.11c-.25-.17-.47-.16-.7.07-.67.66-1.36 1.29-2.04 1.94l-4.7 4.46c-.08.09-.17.18-.32.18zm-73.57-.43c-.47-.22-.79-.62-1.16-.96-1.96-1.81-3.9-3.63-5.83-5.47-.24-.23-.41-.24-.67-.07a6.56 6.56 0 00-2.17 2.39c-.56 1.02-.55 1.02.36 1.7l.31.24c2.73 2.2 5.39 4.49 8.03 6.79.19.16.31.22.51.01 1.6-1.7 3.49-3.07 5.37-4.44.46-.34.47-.54.14-.95-2.29-2.75-4.75-5.36-7.14-8.03-.18-.2-.35-.27-.64-.19-.97.25-1.88.64-2.83.94-.43.14-.47.31-.18.65 1.23 1.48 2.46 2.98 3.67 4.48.76.95 1.58 1.85 2.27 2.85l-.04.06zm-16.8 71.44l.05.05c-.04.2-.2.31-.33.44a46.3 46.3 0 00-6.91 8.5c-.32.5-.69.99-.92 1.66a30.95 30.95 0 013.99-1.37c.32-.09.5-.27.64-.56a28.47 28.47 0 015.01-6.96 54.31 54.31 0 0110.95-8.86c.38-.23.36-.4.13-.73a81.48 81.48 0 01-2.12-3.12c-.25-.39-.44-.36-.78-.13a210.2 210.2 0 00-11.04 7.97 156.34 156.34 0 00-11.77 10.02 95.53 95.53 0 00-8.26 8.69c-.33.4-.72.77-.98 1.37l.66-.3a34.28 34.28 0 004.45-2.74l3.13-2.19.03.03c-.04.08-.06.18-.12.25a27.03 27.03 0 00-2.18 3.21c-.07.13-.22.25-.14.4.09.15.28.08.42.07.94-.04 1.88.02 2.8.15 2.08.28 4.13.71 6.13 1.33.24.07.34.07.42-.22.32-1.2.82-2.33 1.31-3.46l1.01-2.34c-.22-.11-.34.01-.47.06a16.9 16.9 0 01-4.91 1.1c-.67.06-.67.03-.51-.6a12.6 12.6 0 011.44-3.22 23.85 23.85 0 015.21-5.85 23.3 23.3 0 013.66-2.65zm120.71 10.73c.2 0 .35.13.5.24a63.68 63.68 0 005.61 3.75c.69.41 1.37.88 2.26 1.06-.08-.14-.11-.21-.16-.26a63.7 63.7 0 00-4.38-4.91c-2.01-2.1-4.15-4.07-6.32-6.02a158.93 158.93 0 00-9.85-8.12 201.23 201.23 0 00-11.78-8.3c-.34-.22-.49-.17-.7.16-.63 1-1.29 1.98-1.94 2.97-.44.66-.43.65.26 1.07a56.74 56.74 0 019.37 7.17c2.6 2.49 4.96 5.18 6.59 8.43.09.18.21.31.4.36 1.38.39 2.76.79 4.13 1.3a44.46 44.46 0 00-8.46-10.52c.17-.1.24-.01.31.03a31.74 31.74 0 017.32 6.2 15.85 15.85 0 012.76 4.49c.18.46.62 1.1.33 1.38-.33.32-1.03.1-1.57.04-1.48-.17-2.9-.58-4.29-1.07l-.05-.02.05.02c-.04.24.11.43.2.63.71 1.59 1.45 3.17 2.04 4.82.26.73.25.7.99.49 2.72-.78 5.47-1.46 8.33-1.44.18 0 .43.1.53-.07.12-.2-.11-.37-.22-.54-.26-.42-.51-.83-.79-1.23-.49-.71-1.01-1.4-1.51-2.1l.04-.01zm-67.05-68.37l.07.06c-.08.15-.15.3-.24.44-1.32 2.07-2.64 4.15-3.98 6.21-.24.38-.12.47.23.51.42.05.84.08 1.28.23-.09.14-.14.24-.21.32a2.17 2.17 0 00-.62 2.38c.1.31-.02.68.24.96.94.99 1.64 2.14 2.35 3.29.29.47.44.38.71 0 .98-1.4 1.97-2.79 2.97-4.18 3.84-5.38 7.67-10.76 11.52-16.13.26-.36.26-.58 0-.92-.87-1.11-1.71-2.24-2.56-3.36-.07-.1-.23-.19-.13-.33.05-.06.2-.06.31-.05l2.59.07 5.06.16c.17.01.25-.06.34-.22.87-1.59.83-1.84-.53-3.04l-.31-.25c-2.44-1.94-5.29-2.96-8.26-3.7a46.22 46.22 0 00-7.94-1.16 66.65 66.65 0 00-7.48-.08c-.35.01-.46.13-.4.48.08.44.13.89.18 1.34.38 3.37.77 6.74 1.12 10.11.06.57.22 1.15.1 1.84l-.22-.36c-2.09-3.97-4.19-7.93-6.27-11.91-.22-.42-.47-.53-.88-.45-.13.03-.26.06-.39.07-4.2.52-7.75 2.34-10.74 5.31-.6.6-.6.6-.16 1.36.12.21.25.42.35.64.16.38.42.5.83.5 2.88-.02 5.75-.01 8.63-.01.2 0 .41-.06.58.05.04.13-.04.19-.1.26-1.08 1.2-2.15 2.41-3.26 3.58-.36.37-.38.6-.07 1.01 2.51 3.37 5.11 6.67 7.68 10 .26.34.45.34.77.09 1.35-1.05 2.7-2.09 4.07-3.11.92-.67 1.76-1.45 2.77-2.01zm59.46-25.24l.11.1-4.85 5.61.05.08 2.77-1.17a37.2 37.2 0 01-1.78 3.32c-.13.22-.22.39.02.63 2.75 2.73 4.84 5.96 6.87 9.23.7 1.13 1.37 2.28 2.05 3.42l.32.77c1.03 2.39 1.94 4.83 2.84 7.27.14.39.28.53.75.45a33.2 33.2 0 005.88-1.68c.4-.16.48-.34.41-.74-.21-1.1-.38-2.21-.58-3.43l1.52 1.01-1.43-5.41c.32.19.4.43.53.63 1.11 1.69 2.23 3.38 3.32 5.09.21.33.36.37.69.16a32.7 32.7 0 004.61-3.87c.17-.16.15-.31.11-.51l-.52-2.91c.58.43 1.1.79 1.58 1.2.33.29.54.23.84-.05 1.55-1.5 2.81-3.23 4.12-4.92.2-.26.03-.3-.15-.37-.98-.38-1.92-.85-2.76-1.49a5.56 5.56 0 01-1.65-1.81l.31.05c1.68.45 3.37.89 5.05 1.36.39.11.59.04.75-.32.3-.71.61-1.41.94-2.1.13-.28.06-.42-.21-.56-.92-.46-1.83-.95-2.75-1.42l-4.69-2.4c-.17-.11-.33-.24-.51-.34a94.14 94.14 0 01-10.44-7.17 102.46 102.46 0 01-15.21-14.6c-.18-.22-.28-.23-.47-.01-.77.87-1.56 1.73-2.35 2.58l-5.13 5.6-.08-.07c.07-.15.14-.31.22-.45 1.67-2.93 3.36-5.86 5.02-8.8.3-.53.91-1.06.79-1.61-.13-.57-.88-.88-1.34-1.31-.34-.32-.53-.24-.79.1-1.66 2.11-3.35 4.2-5.02 6.3l-8.2 10.4c-.16.2-.43.37.01.63 3.96 2.42 7.66 5.22 11.38 7.99.33.24.51.25.84-.02a48.93 48.93 0 016.21-4.44zM15.46 67.81c-.51.14-.94.45-1.4.69a1139.1 1139.1 0 00-6.01 3.17c-.15.08-.44.06-.3.41.34.81.67 1.63 1.08 2.4.14.26.32.26.56.19l2.11-.59 3.39-.92c-1.18 1.87-2.92 2.72-4.74 3.5l.97 1.28c1.07 1.35 2.12 2.72 3.4 3.9.25.23.43.26.71.03.5-.41 1.02-.79 1.64-1.25l-.46 2.67c-.04.26-.14.53.12.78a31.5 31.5 0 004.58 3.81c.31.2.47.2.69-.15 1.16-1.84 2.35-3.66 3.54-5.48.07-.11.1-.26.31-.31l-1.42 5.46 1.52-1.03c-.2 1.22-.39 2.33-.56 3.44-.04.26-.14.52.26.68 2.04.78 4.12 1.39 6.27 1.73.25.04.34-.03.41-.23 1.01-2.78 2.04-5.55 3.2-8.27.55-.93 1.09-1.87 1.65-2.8 2.12-3.52 4.31-7 7.22-9.94.24-.24.14-.41.01-.63l-1.81-3.17.09-.11 2.69 1.1a.47.47 0 00.05-.1l-4.97-5.63c.36-.05.5.13.66.23 2.03 1.29 4 2.66 5.85 4.2.25.21.45.29.7.03.11-.12.26-.21.4-.31 3.6-2.68 7.16-5.41 10.98-7.78.38-.23.28-.36.07-.62l-7.84-9.82c-1.82-2.27-3.67-4.52-5.48-6.8-.32-.4-.53-.43-.87-.07-.33.33-.7.63-1.07.92-.3.24-.31.47-.11.81 1 1.68 1.97 3.37 2.94 5.06l3.04 5.32-.08.07-.32-.31-7.1-7.71c-.2-.22-.32-.43-.63-.06a93.9 93.9 0 01-9.15 9.56 101.62 101.62 0 01-13.16 10.31c-1.19.79-2.41 1.56-3.63 2.34zm67.42 55.14c.14 3.52.03 6.84-.89 10.1-.11.39.07.45.34.5.89.16 1.76.38 2.6.71.35.13.42.3.24.63-.27.49-.51 1-.74 1.51-1 2.17-1.73 4.4-1.41 6.84.17 1.28.49 2.49 1.5 3.36 2.95 2.53 6.43 3.78 10.25 4.21 2.32.26 4.64.26 6.97.12.47-.03.64-.06.41-.59a51.58 51.58 0 01-2.12-5.63c-.28-.93-.57-1.87-.6-2.97l6.69 5.92v-12.97a1 1 0 01.27.49 77.63 77.63 0 002.02 5.91 21.75 21.75 0 002.83 5.48c.61.79 1.34 1.24 2.43 1.03 1.72-.34 2.71-1.42 3.31-2.97.56-1.42.74-2.92.74-4.41.03-10 .02-19.99 0-29.99 0-.82-.12-1.64-.41-2.43-.37-1.01-.93-1.3-1.98-1-.77.22-1.37.68-1.87 1.29a11.34 11.34 0 00-1.91 3.8c-.57 1.77-.91 3.6-1.22 5.44-.46-1.33-.67-2.7-.85-4.21-3.43 4.03-7.05 7.75-9.7 12.28-.7-.71-1.5-1.39-2.14-2.23-2.89-3.82-5.7-7.69-8.79-11.35a42.63 42.63 0 00-4.1-4.4c-1.48-1.33-2.52-.54-3.09.65-.11.24-.19.49-.27.74-.4 1.27-.49 2.58-.5 3.89-.04 4.13-.01 8.27-.01 12.4 0 .18-.07.37.11.58a9.3 9.3 0 001.89-2.73zM60.6 98.57A18.16 18.16 0 0164.56 95c.18-.11.33-.2.33-.46.02-1.75-.12-3.48-.71-5.15a3.9 3.9 0 00-1.28-1.82c-.26-.2-.47-.24-.71.05-.56.68-1.15 1.34-1.65 2.06-3.62 5.27-5.11 11.21-5.45 17.49-.13 2.4-.08 4.8.18 7.2.3 2.72.83 5.37 1.88 7.9a12.2 12.2 0 003.58 5.1c.29.23.5.23.79.02a7.67 7.67 0 003.24-5.5c.19-1.59.11-3.19.11-4.78.01-4.43-.02-8.87-.02-13.3 0-.4-.1-.56-.53-.57-1.74-.06-3.48-.15-5.23-.23-.11-.01-.23.02-.32-.17a8.55 8.55 0 013.31-2.31c.75-.24.8-.33.28-.96a2.62 2.62 0 00-1-.71c-.23-.11-.52-.08-.76-.29zm75.56-.9v.59c-.07 2.23-.14 4.46-.23 6.69-.02.42.07.68.48.88.77.39 1.48.89 2.1 1.5.22.21.28.39.07.67a8.38 8.38 0 01-2.37 2.3c-.14.08-.37.12-.36.32.03.62-.18 1.26.28 1.84.6.76.93 1.66 1.12 2.61.08.39 0 .61-.47.58-.39-.03-.79.01-1.18.02-1.3.01-1.32.01-1.34 1.33-.03 2.59.04 5.18.55 7.73a9.05 9.05 0 001.45 3.81c.66.89.71.88 1.56.18.17-.14.35-.29.51-.45a15.82 15.82 0 003.57-6.25 36.99 36.99 0 001.71-10.9c.1-4.57-.17-9.1-1.47-13.53a21.95 21.95 0 00-7.04-10.77c-.26-.22-.36-.13-.4.14-.09.65-.18 1.3-.24 1.95-.11 1.27-.22 2.54-.29 3.81a38.5 38.5 0 00.15 5.68c.03.29.15.28.36.22.54-.15 1-.42 1.48-.95z"/><path class="met_st2" d="M82.88 122.95a10.04 10.04 0 01-1.86 2.73c-.18-.21-.11-.4-.11-.58 0-4.13-.03-8.27.01-12.4.01-1.31.1-2.62.5-3.89.08-.25.16-.5.27-.74.57-1.19 1.61-1.98 3.09-.65a43.68 43.68 0 014.1 4.4c3.08 3.66 5.9 7.53 8.79 11.35.63.84 1.44 1.52 2.14 2.23 2.65-4.53 6.26-8.25 9.7-12.28.18 1.51.39 2.88.85 4.21.3-1.84.64-3.66 1.22-5.44.44-1.36.98-2.68 1.91-3.8.5-.61 1.1-1.07 1.87-1.29 1.05-.29 1.61-.01 1.98 1 .29.79.41 1.61.41 2.43.01 10 .02 19.99 0 29.99 0 1.5-.18 3-.74 4.41-.61 1.54-1.59 2.63-3.31 2.97-1.09.21-1.81-.24-2.43-1.03a21.75 21.75 0 01-2.83-5.48 77.63 77.63 0 01-2.02-5.91 1 1 0 00-.27-.49v12.97l-6.69-5.92c.03 1.1.32 2.03.6 2.97a48.9 48.9 0 002.12 5.63c.23.53.06.56-.41.59-2.33.14-4.65.14-6.97-.12-3.82-.43-7.3-1.68-10.25-4.21-1.01-.87-1.34-2.09-1.5-3.36-.32-2.45.41-4.67 1.41-6.84.24-.51.48-1.02.74-1.51.18-.33.11-.5-.24-.63-.84-.32-1.71-.55-2.6-.71-.28-.05-.45-.11-.34-.5.9-3.26 1-6.59.86-10.1z"/><path class="met_st3" d="M42.39 67.19l1.81 3.17c.13.22.23.39-.01.63-2.91 2.95-5.1 6.42-7.22 9.94-.56.93-1.1 1.87-1.65 2.8a23.36 23.36 0 01-3.88-1.49 37.35 37.35 0 01-14.27-11.75c-.63-.85-1.29-1.7-1.71-2.69 1.21-.78 2.44-1.54 3.64-2.33 4.68-3.06 9.05-6.52 13.16-10.31a95 95 0 009.15-9.56c.3-.37.43-.16.63.06l7.1 7.71.32.31.15.14c.09-.1.01-.15-.06-.21l-3.04-5.32c-.97-1.69-1.95-3.38-2.94-5.06-.2-.34-.19-.56.11-.81.37-.29.74-.59 1.07-.92.35-.35.56-.33.87.07 1.81 2.28 3.66 4.53 5.48 6.8l7.84 9.82c.21.26.31.39-.07.62-3.82 2.36-7.38 5.1-10.98 7.78-.14.1-.29.19-.4.31-.25.27-.45.18-.7-.03a57.26 57.26 0 00-5.85-4.2c-.16-.1-.31-.28-.66-.23l4.97 5.63a.47.47 0 00-.05.1l-2.69-1.1-.13-.01c-.02.05 0 .09.01.13zm-2.17-4.86a.08.08 0 00-.02.04c.02.05.05.05.07 0l-.02-.03-.03-.01zM150.43 53.91l5.13-5.6 2.35-2.58c.19-.21.29-.2.47.01a102.46 102.46 0 0015.21 14.6 93.22 93.22 0 0010.44 7.17c.18.1.34.23.51.34-.05.1-.08.21-.14.3a37.34 37.34 0 01-16.94 14.74c-.89.39-1.78.79-2.75.96-.68-1.14-1.35-2.29-2.05-3.42-2.03-3.27-4.12-6.5-6.87-9.23-.24-.24-.14-.41-.02-.63a41.63 41.63 0 001.78-3.32l-2.77 1.17-.05-.08 4.85-5.61.14-.19a.18.18 0 01.07-.05l-.07-.02.01.08c-.12-.08-.19 0-.26.08a48.83 48.83 0 00-6.22 4.45c-.32.27-.51.26-.84.02-3.72-2.77-7.42-5.57-11.38-7.99-.44-.27-.17-.43-.01-.63l8.2-10.4c1.67-2.11 3.36-4.19 5.02-6.3.27-.34.46-.42.79-.1.46.44 1.21.74 1.34 1.31.13.56-.49 1.08-.79 1.61-1.66 2.94-3.35 5.87-5.02 8.8-.08.14-.15.3-.22.45-.07.06-.15.11-.06.21l.15-.15z"/><path class="met_st2" d="M100.01 87.86c-1 .56-1.84 1.34-2.76 2.02a174.93 174.93 0 00-4.07 3.11c-.32.25-.5.25-.77-.09-2.57-3.33-5.18-6.63-7.68-10-.31-.42-.29-.64.07-1.01 1.11-1.17 2.18-2.38 3.26-3.58.06-.07.14-.13.1-.26-.19-.12-.4-.05-.59-.05-2.88 0-5.75-.01-8.63.01-.41 0-.67-.11-.83-.5-.09-.22-.22-.43-.35-.64-.44-.76-.45-.76.16-1.36a18.16 18.16 0 0110.74-5.31l.39-.07c.41-.08.66.03.88.45 2.07 3.98 4.17 7.94 6.27 11.91l.22.36c.12-.69-.04-1.27-.1-1.84-.35-3.37-.74-6.74-1.12-10.11-.05-.45-.1-.89-.18-1.34-.06-.35.05-.46.4-.48 2.49-.1 4.98-.1 7.48.08 2.68.19 5.34.51 7.94 1.16 2.97.74 5.82 1.76 8.26 3.7l.31.25c1.36 1.2 1.4 1.45.53 3.04-.09.16-.17.23-.34.22l-5.06-.16-2.59-.07c-.11 0-.26-.01-.31.05-.1.14.06.23.13.33.85 1.12 1.69 2.25 2.56 3.36.26.34.26.56 0 .92-3.85 5.37-7.68 10.75-11.52 16.13-.99 1.39-1.99 2.78-2.97 4.18-.26.38-.42.47-.71 0-.71-1.15-1.41-2.31-2.35-3.29-.26-.28-.14-.65-.24-.96-.3-.94-.07-1.71.62-2.38.08-.08.12-.18.21-.32-.44-.15-.86-.18-1.28-.23-.35-.05-.48-.14-.23-.51 1.34-2.06 2.66-4.14 3.98-6.21.09-.14.16-.29.24-.44.09-.06.11-.14.09-.24l.04-.04-.03.05a.85.85 0 00-.17.16zM60.6 98.57c.24.21.53.18.76.29.38.18.73.38 1 .71.51.62.47.72-.28.96a8.45 8.45 0 00-3.31 2.31c.09.19.21.16.32.17 1.74.08 3.48.18 5.23.23.43.01.53.17.53.57 0 4.43.03 8.87.02 13.3 0 1.59.08 3.19-.11 4.78a7.73 7.73 0 01-3.24 5.5c-.29.21-.5.21-.79-.02a12.2 12.2 0 01-3.58-5.1 28.56 28.56 0 01-1.88-7.9c-.26-2.4-.31-4.8-.18-7.2.34-6.28 1.83-12.22 5.45-17.49.5-.73 1.09-1.38 1.65-2.06.24-.29.45-.25.71-.05.61.48 1.02 1.1 1.28 1.82.59 1.67.73 3.4.71 5.15 0 .26-.15.35-.33.46a18.16 18.16 0 00-3.96 3.57zM136.16 97.67c-.48.52-.94.8-1.48.94-.21.06-.33.07-.36-.22a35.9 35.9 0 01-.15-5.68c.07-1.27.18-2.54.29-3.81.06-.65.15-1.3.24-1.95.04-.28.14-.36.4-.14a21.95 21.95 0 017.04 10.77c1.29 4.43 1.57 8.96 1.47 13.53a36.99 36.99 0 01-1.71 10.9 15.7 15.7 0 01-3.57 6.25c-.16.16-.33.3-.51.45-.85.7-.9.71-1.56-.18a9.05 9.05 0 01-1.45-3.81c-.5-2.55-.58-5.14-.55-7.73.02-1.32.04-1.32 1.34-1.33.39 0 .79-.04 1.18-.02.47.03.54-.19.47-.58a6.16 6.16 0 00-1.12-2.61c-.45-.58-.25-1.22-.28-1.84-.01-.2.22-.24.36-.32.98-.57 1.7-1.4 2.37-2.3.21-.28.15-.46-.07-.67a8.39 8.39 0 00-2.1-1.5c-.41-.2-.5-.46-.48-.88.09-2.23.16-4.46.23-6.69v-.58z"/><path class="met_st4" d="M164.71 83.84c.97-.17 1.86-.57 2.75-.96a37.2 37.2 0 0016.94-14.74c.06-.09.09-.2.14-.3l4.69 2.4c.92.47 1.82.96 2.75 1.42.27.14.34.28.21.56-.32.7-.64 1.4-.94 2.1-.15.36-.36.43-.75.32-1.68-.48-3.36-.91-5.05-1.36a1.95 1.95 0 00-.31-.05 5.56 5.56 0 001.65 1.81c.84.64 1.78 1.11 2.76 1.49.18.07.35.11.15.37-1.31 1.69-2.57 3.42-4.12 4.92-.29.28-.51.34-.84.05-.48-.41-1-.77-1.58-1.2.18 1.03.34 1.97.52 2.91.04.19.05.35-.11.51a31.61 31.61 0 01-4.61 3.87c-.33.22-.48.17-.69-.16-1.09-1.71-2.21-3.4-3.32-5.09-.13-.2-.22-.43-.53-.63l1.43 5.41-1.52-1.01c.2 1.22.37 2.33.58 3.43.08.4-.01.59-.41.74-1.91.74-3.87 1.3-5.88 1.68-.47.09-.61-.06-.75-.45-.89-2.44-1.8-4.88-2.84-7.27l-.32-.77zM15.46 67.81c.42.99 1.08 1.83 1.71 2.69a37.35 37.35 0 0014.27 11.75c1.25.59 2.54 1.12 3.88 1.49a162.28 162.28 0 00-3.2 8.27c-.07.2-.16.27-.41.23a30.83 30.83 0 01-6.27-1.73c-.4-.15-.3-.42-.26-.68.17-1.11.36-2.22.56-3.44l-1.52 1.03 1.42-5.46c-.21.05-.24.2-.31.31-1.18 1.82-2.38 3.64-3.54 5.48-.22.35-.38.35-.69.15a32.04 32.04 0 01-4.58-3.81c-.26-.25-.16-.51-.12-.78l.46-2.67c-.61.46-1.14.84-1.64 1.25-.28.23-.46.2-.71-.03-1.28-1.18-2.33-2.55-3.4-3.9-.33-.41-.64-.83-.97-1.28 1.82-.78 3.56-1.63 4.74-3.5a397.56 397.56 0 00-5.5 1.51c-.24.07-.42.07-.56-.19-.42-.78-.74-1.59-1.08-2.4-.14-.34.15-.33.3-.41l6.01-3.17c.47-.26.9-.58 1.41-.71z"/><path class="met_st5" d="M157.46 155.67c1.4.5 2.81.91 4.29 1.07.54.06 1.24.28 1.57-.04.29-.29-.15-.92-.33-1.38a15.85 15.85 0 00-2.76-4.49 31.74 31.74 0 00-7.32-6.2c-.07-.05-.14-.13-.31-.03a44.71 44.71 0 018.46 10.52 53.22 53.22 0 00-4.13-1.3c-.19-.05-.31-.18-.4-.36-1.64-3.25-3.99-5.93-6.59-8.43a56.74 56.74 0 00-9.37-7.17c-.69-.43-.69-.41-.26-1.07.65-.99 1.31-1.97 1.94-2.97.21-.33.36-.38.7-.16 4.01 2.64 7.96 5.38 11.78 8.3a162.6 162.6 0 019.85 8.12 123.8 123.8 0 016.32 6.02 65.86 65.86 0 014.38 4.91l.16.26c-.89-.19-1.57-.66-2.26-1.06a65.98 65.98 0 01-5.61-3.75c-.15-.11-.29-.24-.5-.24l-.06-.05.05.06c.51.7 1.02 1.39 1.51 2.1.28.4.53.82.79 1.23.1.17.34.33.22.54-.1.16-.35.07-.53.07-2.86-.03-5.61.66-8.33 1.44-.75.21-.73.24-.99-.49-.59-1.64-1.33-3.22-2.04-4.82-.11-.2-.26-.39-.23-.63zM32.26 157.24l-3.13 2.19c-1.43 1-2.88 1.98-4.45 2.74l-.66.3c.26-.6.65-.97.98-1.37a95.53 95.53 0 018.26-8.69 153.7 153.7 0 0111.77-10.02c3.59-2.78 7.28-5.42 11.04-7.97.34-.23.53-.26.78.13a81.48 81.48 0 002.12 3.12c.23.33.25.49-.13.73a54.38 54.38 0 00-10.95 8.86 28.47 28.47 0 00-5.01 6.96c-.14.29-.32.48-.64.56-1.32.37-2.62.79-3.99 1.37.23-.67.6-1.16.92-1.66a46.23 46.23 0 016.91-8.5c.13-.13.3-.24.33-.44l.21-.14.05-.07-.07.04-.23.11c-1.32.73-2.5 1.66-3.64 2.63a24.03 24.03 0 00-5.21 5.85 12.6 12.6 0 00-1.44 3.22c-.17.63-.17.65.51.6a16.9 16.9 0 004.91-1.1c.13-.05.25-.18.47-.06l-1.01 2.34c-.49 1.14-.99 2.27-1.31 3.46-.08.29-.18.3-.42.22a39.19 39.19 0 00-6.13-1.33c-.93-.13-1.86-.19-2.8-.15-.14.01-.33.08-.42-.07-.09-.15.07-.27.14-.4a26.65 26.65 0 012.18-3.21c.05-.07.08-.17.11-.25l.1-.13.05-.01.01-.03-.05.05a.82.82 0 00-.16.12z"/><path class="met_st6" d="M63.19 74.02c-.68-1.01-1.5-1.91-2.27-2.85-1.21-1.5-2.44-2.99-3.67-4.48-.29-.35-.25-.51.18-.65.94-.3 1.86-.69 2.83-.94.29-.07.46-.01.64.19 2.39 2.67 4.84 5.27 7.14 8.03.34.4.32.61-.14.95-1.88 1.37-3.76 2.73-5.37 4.44-.19.21-.32.15-.51-.01-2.64-2.3-5.3-4.59-8.03-6.79-.1-.08-.2-.17-.31-.24-.91-.67-.92-.68-.36-1.7a6.47 6.47 0 012.17-2.39c.27-.18.44-.16.67.07 1.93 1.83 3.87 3.66 5.83 5.47.37.34.69.74 1.16.96l.12.1.13.1c-.01.1.02.18.11.22l.02.04.03.01-.06-.04c.01-.1-.01-.18-.11-.23l-.11-.12a.34.34 0 00-.09-.14zM136.72 74.5c.15 0 .24-.1.33-.19l4.7-4.46c.68-.65 1.37-1.28 2.04-1.94.23-.23.45-.24.7-.07a6.64 6.64 0 012.5 3.11c.1.26.05.41-.16.57-2.85 2.17-5.49 4.59-8.23 6.9-.29.24-.49.65-.86.7-.39.05-.49-.45-.75-.67a55.8 55.8 0 00-5.08-4c-.34-.24-.25-.45-.04-.69 1.16-1.35 2.31-2.71 3.48-4.05 1.21-1.38 2.46-2.73 3.67-4.11.2-.23.41-.29.7-.21 1 .26 1.96.64 2.93.98.4.14.23.36.07.55l-2.51 3.1-3.39 4.2c-.06.07-.08.17-.11.25l-.11.12-.11.12-.11.11a.08.08 0 00-.02.04l.02-.05.11-.11.12-.11.11-.09z"/><path class="met_st5" d="M157.47 155.67l-.05-.02.05.02c-.01 0 0 0 0 0z"/><path class="met_st1" d="M49.54 53.61c.07.06.15.11.06.21l-.15-.14a.35.35 0 00.09-.07zM42.39 67.19l-.04-.12.13.01-.09.11zM40.22 62.33h.03l.02.03c-.02.05-.05.05-.07 0l.02-.03zM150.43 53.91l-.15.14c-.09-.1-.01-.16.06-.21l.09.07zM159.47 62.62c.07-.07.14-.16.26-.08l-.01-.01-.14.19-.11-.1z"/><path class="met_st1" d="M159.73 62.54l-.01-.08.07.02c-.02.02-.05.03-.06.06-.01-.01 0 0 0 0zM100.17 87.67c.02.1 0 .18-.09.24l-.07-.06.16-.18z"/><path class="met_st1" d="M100.17 87.68l.03-.05-.03.05c0-.01 0 0 0 0zM167.05 156.24l-.05-.06.06.05-.01.01zM46.61 145.42l-.21.14a.12.12 0 00-.05-.05l.23-.11.03.02z"/><path class="met_st1" d="M46.58 145.39l.07-.04-.05.07-.02-.03zM32.39 157.14l.05-.05-.01.03-.04.02c-.01 0 0 0 0 0zM32.26 157.24l.12-.1-.1.13-.02-.03zM63.52 74.48c-.1-.05-.13-.12-.11-.22.09.05.11.13.11.22zM63.51 74.49l.06.04-.03-.01-.03-.03c.01-.01 0 0 0 0zM63.29 74.14l.11.12-.13-.1.02-.02zM63.19 74.02l.1.12-.02.02-.12-.1.04-.04zM136.37 74.82l-.02.05a.08.08 0 00.02-.05c.01.01 0 0 0 0zM136.49 74.71l-.11.11.01.01a.53.53 0 01.1-.12zM136.6 74.6l.11-.12.02.02-.13.1z"/><path class="met_st1" d="M136.49 74.71l.11-.12.01.01-.12.11z"/></svg>