<?xml version="1.0" encoding="utf-8"?>
<!-- Generator: Adobe Illumet_strator 24.1.0, SVG Export Plug-In . SVG Version: 6.00 Build 0)  -->
<svg version="1.1" id="Layer_1" xmlns="http://www.w3.org/2000/svg" xmlns:xlink="http://www.w3.org/1999/xlink" x="0px"
	y="0px" viewBox="0 0 200 200" met_style="enable-background:new 0 0 200 200;" xml:space="preserve">
	<style type="text/css">
		.met_st0 {
			fill: #0A5F31;
		}

		.met_st1 {
			fill: #082A17;
		}

		.met_st2 {
			fill: #84704C;
		}

		.met_st3 {
			fill: #A8A8A8;
		}

		.met_st4 {
			fill: #FDFDFD;
		}

		.met_st5 {
			fill: #675539;
		}

		.met_st6 {
			fill: #67553A;
		}
	</style>
	<g>
		<path class="met_st0" d="M29.57,169.77c-0.66-0.27-1.38-0.22-2.07-0.32c-4.59-0.71-8.92-2.15-12.88-4.62c-0.36-0.22-0.43-0.36-0.2-0.76
		c2.92-4.97,6.51-9.41,10.51-13.53c7.11-7.35,15.09-13.64,23.62-19.25c0.34-0.22,0.37-0.38,0.2-0.74
		c-1.99-4.29-3.47-8.73-4.25-13.41c-0.61-3.67-0.68-7.36-0.37-11.06c0.44-5.26,1.72-10.3,3.91-15.11c1.48-3.26,3.31-6.31,5.48-9.15
		c0.25-0.33,0.24-0.53-0.03-0.84c-0.84-0.97-1.79-1.81-2.85-2.55c-0.28-0.2-0.46-0.18-0.71,0.04c-2.74,2.28-4.99,4.98-6.98,7.92
		c-2.78,4.12-5.04,8.51-6.74,13.18c-0.11,0.3-0.22,0.45-0.59,0.39C30.08,99,24.71,97.5,19.66,94.93
		c-7.24-3.68-12.92-8.95-16.55-16.29c-1.54-3.11-2.62-6.37-2.98-9.85c-0.01-0.08-0.02-0.14-0.11-0.16c0-0.3,0-0.6,0-0.9
		c4.16-1.54,8.12-3.49,11.94-5.74c6.45-3.8,12.31-8.38,17.72-13.56c4.86-4.65,9.29-9.66,13.19-15.14c0.57-0.79,1.09-1.62,1.61-2.44
		c0.24-0.38,0.36-0.43,0.66-0.04c2.24,2.95,4.48,5.89,6.75,8.81c4.4,5.65,8.82,11.27,13.57,16.63c1.3,1.46,2.58,2.94,4.26,4
		c0.27,0.17,0.29,0.31,0.11,0.57c-0.51,0.72-0.99,1.47-1.67,2.05c-0.21,0.18-0.18,0.3-0.03,0.5c0.89,1.14,1.77,2.28,2.63,3.45
		c0.24,0.33,0.41,0.17,0.64,0.04c3.99-2.27,8.15-4.13,12.55-5.46c4.59-1.38,9.27-2.16,14.07-2.27c10.72-0.25,20.69,2.37,29.92,7.81
		c0.26,0.15,0.44,0.28,0.67-0.07c0.93-1.36,2.15-2.46,3.36-3.55c0.35-0.31,0.3-0.43-0.03-0.69c-0.85-0.65-1.66-1.35-2.49-2.03
		c0.02-0.04,0.02-0.08,0.04-0.1c2.72-1.78,4.7-4.3,6.75-6.75c6.32-7.55,12.24-15.41,18.13-23.29c0.37-0.5,0.37-0.49,0.74,0.05
		c8.76,12.77,19.75,23.15,33.13,30.98c3.5,2.05,7.17,3.77,10.97,5.18c0.47,0.18,0.61,0.4,0.57,0.88c-0.28,3.7-1.4,7.16-3.02,10.47
		c-3.61,7.38-9.31,12.67-16.55,16.38c-4.98,2.55-10.29,4.09-15.79,5.06c-0.44,0.08-0.42-0.21-0.5-0.42
		c-1.64-4.38-3.78-8.49-6.37-12.37c-2.11-3.17-4.52-6.09-7.47-8.53c-0.36-0.3-0.6-0.3-0.98-0.06c-1.45,0.89-2.84,1.84-3.86,3.23
		c-0.28,0.39-0.35,0.66-0.03,1.12c4.41,6.31,7.26,13.27,8.37,20.9c1.38,9.47,0.1,18.59-3.86,27.31c-0.21,0.46-0.12,0.62,0.27,0.87
		c7.48,4.75,14.59,10,21.11,16.02c4.7,4.34,9.08,8.97,12.67,14.3c0.51,0.76,0.96,1.56,1.4,2.37c0.12,0.21,0.11,0.33-0.11,0.5
		c-3.35,2.51-7.1,4.02-11.23,4.6c-6.82,0.95-13.38-0.18-19.77-2.58c-0.54-0.2-0.73-0.51-0.78-1.05c-0.27-3-1.08-5.86-2.44-8.55
		c-2.5-4.96-6.27-8.7-11.05-11.47c-0.35-0.2-0.5-0.03-0.7,0.17c-2.88,2.88-6.07,5.38-9.53,7.52c-6.61,4.1-13.76,6.7-21.44,7.88
		c-5.74,0.88-11.49,0.93-17.23,0.07c-11.95-1.78-22.37-6.73-31.1-15.13c-0.2-0.19-0.32-0.34-0.63-0.11
		c-5.26,3.9-9.42,8.69-11.93,14.8c-0.66,1.62-1.19,3.28-1.4,5.02c-0.04,0.3-0.15,0.45-0.41,0.59c-3.56,1.83-7.33,2.96-11.34,3.21
		c-0.09,0.01-0.19-0.01-0.24,0.09C32.42,169.77,30.99,169.77,29.57,169.77z M44.94,35.27c-1.28,1.74-2.57,3.42-3.91,5.05
		c-1.66,2.03-3.37,4.02-5.18,5.91c-1.77,1.84-3.57,3.65-5.44,5.39c-1.62,1.51-3.28,2.97-4.99,4.37c-2.97,2.43-6.07,4.7-9.31,6.76
		c-4.05,2.57-8.25,4.83-12.69,6.66c-0.27,0.11-0.35,0.21-0.29,0.54c0.46,2.5,1.29,4.89,2.39,7.18c2.19,4.56,5.34,8.34,9.33,11.45
		c2.91,2.27,6.11,4.01,9.52,5.39c3.06,1.24,6.24,2.11,9.47,2.79c0.31,0.07,0.43,0,0.54-0.28c0.35-0.85,0.7-1.7,1.09-2.53
		c2.07-4.34,4.44-8.5,7.46-12.28c1.97-2.46,4.17-4.66,6.69-6.53c0.24-0.18,0.47-0.25,0.78-0.11c2.13,1,3.87,2.48,5.38,4.26
		c0.72,0.85,1.19,1.91,2.17,2.55c0.37,0.24,0.68,0.56,1.04,0.86c-0.22,0.18-0.44,0.22-0.66,0.25c-0.56,0.09-0.9,0.34-1.13,0.92
		c-0.38,0.95-0.72,2.01-2,2.16c-0.18,0.02-0.25,0.18-0.27,0.37c-0.1,0.81-0.24,1.62-0.32,2.44c-0.08,0.71-0.09,1.43-1,1.64
		c-0.21,0.05-0.29,0.27-0.42,0.43c-1.41,1.89-1.47,4.16-1.73,6.36c-0.07,0.62-0.27,1.06-0.76,1.42c-0.36,0.27-0.7,0.56-1.05,0.85
		c-0.19,0.15-0.28,0.34-0.24,0.59c0.07,0.4,0.12,0.81,0.21,1.21c0.2,0.91,0.2,1.74-0.7,2.32c-0.26,0.17-0.3,0.44-0.31,0.74
		c-0.02,0.56-0.08,1.12-0.14,1.68c-0.17,1.52-0.35,3.04-0.53,4.56c-0.1,0.87,0.39,1.54,0.73,2.26c0.13,0.26,0.15,0.47,0,0.73
		c-0.36,0.61-0.65,1.28-1.07,1.85c-0.36,0.49-0.28,0.86,0.11,1.19c0.61,0.53,0.67,1.06,0.3,1.79c-0.45,0.9-0.26,1.18,0.72,1.22
		c0.4,0.01,0.47,0.17,0.45,0.52c-0.03,0.64-0.11,1.29-0.27,1.88c-0.26,0.95,0.19,1.36,0.92,1.65c0.51,0.21,0.53,0.55,0.44,1
		c-0.08,0.36-0.12,0.74-0.18,1.1c-0.1,0.58,0.07,0.99,0.63,1.29c0.59,0.32,0.8,0.88,0.67,1.47c-0.19,0.89-0.06,1.1,0.81,1.41
		c0.75,0.27,1.48,0.56,2.3,0.87c-0.83,0.53-1.56,1.01-2.31,1.46c-2.91,1.75-5.69,3.69-8.43,5.7c-2.78,2.04-5.48,4.16-8.12,6.38
		c-2.02,1.7-3.99,3.46-5.9,5.28c-3.11,2.97-6,6.14-8.64,9.53c-0.98,1.26-1.89,2.56-2.76,3.9c-0.15,0.23-0.29,0.45,0.1,0.62
		c3.03,1.39,6.15,2.43,9.47,2.88c2.39,0.32,4.76,0.38,7.16,0.12c2.35-0.26,4.58-0.89,6.77-1.72c0.87-0.33,1.62-0.69,1.64-1.82
		c0-0.41,0.23-0.82,0.36-1.24c1.04-3.36,2.66-6.44,4.71-9.29c1.71-2.38,3.66-4.56,5.89-6.47c2.26-1.93,4.67-3.68,6.88-5.68
		c0.26-0.23,0.37-0.22,0.51,0.12c0.4,0.95,0.84,1.88,1.27,2.82c0.13,0.3,0.33,0.44,0.68,0.48c1.06,0.12,2.11,0.3,3.16,0.42
		c0.28,0.03,0.39,0.14,0.46,0.38c0.27,0.88,0.58,1.74,0.83,2.63c0.11,0.39,0.29,0.52,0.7,0.52c1.77-0.02,3.53,0,5.3-0.02
		c0.36,0,0.55,0.06,0.57,0.47c0.02,0.41,0.13,0.81,0.21,1.21c0.21,1.06,0.21,1.06,1.32,0.92c0.24-0.03,0.48-0.05,0.72-0.1
		c0.83-0.17,1.61-0.24,2.22,0.57c0.34,0.46,0.82,0.83,1.22,1.25c0.18,0.18,0.36,0.3,0.63,0.32c1.6,0.13,3.2,0.3,4.8,0.42
		c0.39,0.03,0.67,0.12,0.93,0.41c0.67,0.76,1.36,1.49,2.03,2.26c0.34,0.39,0.65,0.58,1.2,0.36c1.1-0.42,2.25-0.73,3.36-1.11
		c0.38-0.13,0.62-0.07,0.89,0.22c0.94,1,1.89,1.98,2.85,2.96c0.13,0.14,0.24,0.3,0.51,0.27c1.15-0.12,2.31-0.2,3.46-0.28
		c1.92-0.13,3.85-0.2,5.77-0.37c0.47-0.04,1.04,0.11,1.42-0.34c0.85-1,1.69-2,2.51-3.02c0.22-0.27,0.4-0.36,0.76-0.27
		c1.41,0.38,2.84,0.69,4.24,1.07c0.41,0.11,0.58-0.04,0.75-0.33c0.46-0.82,0.95-1.62,1.38-2.45c0.2-0.38,0.45-0.44,0.83-0.36
		c0.82,0.17,1.65,0.32,2.47,0.5c0.25,0.05,0.38,0.02,0.43-0.27c0.07-0.44,0.23-0.87,0.27-1.32c0.04-0.52,0.31-0.68,0.78-0.76
		c1.23-0.21,2.46-0.46,3.69-0.69c0.34-0.07,0.59-0.19,0.71-0.59c0.23-0.77,0.55-1.51,0.82-2.27c0.07-0.2,0.12-0.4,0.41-0.36
		c1.21,0.18,2.44,0.05,3.65,0.08c0.38,0.01,1.33-0.75,1.38-1.1c0.06-0.43,0.13-0.86,0.11-1.28c-0.03-0.53,0.22-0.61,0.65-0.53
		c0.48,0.09,0.95,0.18,1.43,0.28c0.38,0.09,0.62,0.09,0.68-0.42c0.11-0.85,0.34-1.68,0.48-2.53c0.07-0.42,0.2-0.43,0.46-0.14
		c0.86,0.94,1.92,1.56,3.05,2.14c3.79,1.93,7,4.59,9.7,7.88c2.14,2.61,3.74,5.51,4.82,8.71c0.5,1.47,0.88,2.97,1.08,4.52
		c0.04,0.3,0.09,0.58,0.49,0.72c3.84,1.34,7.8,2.06,11.86,2.26c1.82,0.09,3.63-0.09,5.43-0.35c2.6-0.38,5.05-1.24,7.36-2.49
		c0.45-0.25,0.5-0.42,0.22-0.84c-1.98-2.95-4.26-5.65-6.69-8.22c-1.7-1.8-3.46-3.54-5.29-5.23c-2.02-1.87-4.1-3.67-6.24-5.4
		c-3.1-2.51-6.29-4.91-9.6-7.12c-2.99-2-5.91-4.13-9.17-5.69c-0.08-0.04-0.17-0.08-0.15-0.23c0.16-0.09,0.34-0.21,0.53-0.27
		c0.65-0.19,0.88-0.67,0.98-1.28c0.08-0.5,0.23-0.98,0.33-1.48c0.04-0.18,0.09-0.32,0.26-0.4c0.82-0.35,1.25-0.83,1.02-1.84
		c-0.18-0.79-0.11-1.64-0.24-2.45c-0.04-0.27,0.08-0.41,0.26-0.56c0.25-0.22,0.61-0.33,0.73-0.68c0.2-0.64,0.43-1.28,0.57-1.94
		c0.36-1.78-0.11-3.54-0.16-5.31c-0.01-0.29,0.03-0.5,0.2-0.71c0.36-0.43,0.71-0.87,1.07-1.3c0.22-0.25,0.27-0.49,0.12-0.82
		c-0.25-0.56-0.42-1.16-0.65-1.74c-0.19-0.46-0.13-0.86,0.17-1.26c0.21-0.28,0.5-0.56,0.46-0.93c-0.16-1.65-0.41-3.3-0.5-4.96
		c-0.08-1.36-0.24-2.63-1.27-3.64c-0.26-0.26-0.26-0.59-0.14-0.94c0.22-0.6,0.33-1.24,0.59-1.81c0.25-0.56,0.1-0.92-0.38-1.18
		c-0.68-0.37-0.83-0.87-0.64-1.62c0.31-1.23,0.26-1.27-1.01-1.12c-0.44,0.05-0.43-0.08-0.47-0.42c-0.05-0.43-0.09-0.85-0.1-1.29
		c-0.01-1.02-0.12-1.98-1.45-2.09c-0.02,0-0.03-0.02-0.05-0.02c-0.36-0.06-0.41-0.29-0.42-0.61c-0.01-0.62-0.07-1.23-0.11-1.85
		c-0.01-0.21-0.09-0.33-0.31-0.4c-1.34-0.46-1.45-0.6-1.49-1.97c-0.01-0.46-0.22-0.62-0.66-0.63c-0.47-0.01-0.93-0.07-1.4-0.12
		c-0.08-0.01-0.2-0.06-0.23-0.12c-0.05-0.1,0.06-0.15,0.14-0.2c0.44-0.29,0.86-0.61,1.31-0.87c0.47-0.28,0.78-0.61,0.96-1.16
		c0.51-1.52,1.56-2.65,2.78-3.67c1.32-1.11,2.77-1.99,4.3-2.75c0.47-0.23,0.85-0.26,1.33,0.1c2.2,1.65,4.17,3.52,5.95,5.63
		c1.82,2.15,3.43,4.44,4.89,6.85c1.64,2.72,3.08,5.54,4.33,8.46c0.16,0.37,0.36,0.43,0.69,0.35c1.77-0.41,3.53-0.83,5.26-1.38
		c3.08-0.98,6.06-2.2,8.87-3.81c2.32-1.33,4.51-2.83,6.46-4.65c2.47-2.3,4.62-4.86,6.28-7.81c1.62-2.88,2.78-5.93,3.44-9.17
		c0.11-0.52-0.07-0.67-0.48-0.84c-3.82-1.55-7.48-3.41-11.01-5.52c-3.35-2-6.54-4.23-9.62-6.62c-3.53-2.74-6.83-5.73-10.03-8.84
		c-1.42-1.39-2.76-2.86-4.11-4.32c-0.83-0.89-1.62-1.82-2.4-2.75c-1.44-1.73-2.85-3.47-4.18-5.28c-0.19-0.26-0.29-0.36-0.55-0.01
		c-1.6,2.14-3.24,4.26-4.86,6.39c-2.67,3.52-5.39,7-8.17,10.42c-2.28,2.8-4.52,5.64-7.09,8.19c-0.3,0.3-0.25,0.51,0.05,0.73
		c0.72,0.52,1.27,1.22,1.92,1.82c0.26,0.24,0.31,0.36-0.02,0.63c-1.04,0.85-2.06,1.75-3.04,2.67c-1.86,1.74-3.37,3.77-4.75,5.89
		c-0.24,0.36-0.33,0.24-0.47-0.04c-0.24-0.49-0.5-0.97-0.73-1.46c-0.13-0.27-0.31-0.47-0.6-0.56c-0.46-0.15-0.92-0.37-1.39-0.44
		c-0.95-0.15-1.57-0.63-1.87-1.53c-0.11-0.34-0.34-0.43-0.69-0.43c-1.24,0.02-2.48,0.01-3.72,0.01c-0.22,0-0.48,0.05-0.59-0.22
		c-0.38-0.91-1.19-1.21-2.03-1.53c-1.06-0.41-2.12-0.68-3.28-0.63c-1.24,0.06-2.48-0.02-3.72,0.03c-0.54,0.02-0.92-0.15-1.27-0.54
		c-0.43-0.47-0.87-0.93-1.39-1.31c-0.19-0.14-0.32-0.19-0.56-0.12c-0.84,0.25-1.7,0.45-2.54,0.72c-0.37,0.12-0.64,0.06-0.92-0.19
		c-0.66-0.6-1.4-0.99-2.34-0.82c-0.26,0.05-0.52,0.09-0.78,0.1c-1.82,0.06-3.64-0.02-5.46,0.08c-0.88,0.05-1.65,0.2-2.33,0.75
		c-0.69,0.57-1.4,0.77-2.23,0.23c-0.31-0.2-0.69-0.28-1.04-0.43c-1.01-0.41-1.55-0.32-2.29,0.48c-0.36,0.39-0.71,0.59-1.22,0.31
		c-0.09-0.05-0.22-0.04-0.32-0.08c-0.5-0.2-0.92,0.1-1.33,0.28c-0.33,0.14-0.15,0.54-0.14,0.82c0.01,0.41-0.14,0.51-0.53,0.5
		c-0.86-0.02-1.73,0-2.59-0.01c-0.61-0.01-1,0.24-1.18,0.82c-0.09,0.3-0.23,0.59-0.36,0.88c-0.09,0.2-0.23,0.35-0.48,0.29
		c-0.67-0.16-1.35-0.03-2.02-0.08c-0.52-0.04-0.83,0.15-1,0.68c-0.29,0.87-0.87,1.24-1.77,1.24c-0.26,0-0.53,0.01-0.79,0
		c-0.29-0.02-0.45,0.06-0.49,0.38c-0.06,0.42-0.17,0.84-0.27,1.26c-0.04,0.15,0.02,0.39-0.18,0.43c-0.17,0.03-0.28-0.17-0.38-0.3
		c-1.14-1.29-2.29-2.57-3.31-3.96c-1.23-1.67-2.56-3.27-3.85-4.9c-0.27-0.34-0.29-0.53,0.18-0.7c0.54-0.2,1.05-0.49,1.57-0.76
		c0.26-0.13,0.36-0.28,0.08-0.54c-0.83-0.79-1.63-1.61-2.38-2.48c-1.06-1.23-2.16-2.44-3.2-3.69c-1.64-1.97-3.26-3.96-4.86-5.96
		c-1.8-2.25-3.58-4.51-5.36-6.78C48.3,39.62,46.64,37.47,44.94,35.27z" />
		<path class="met_st1" d="M44.94,35.27c1.7,2.2,3.36,4.35,5.03,6.48c1.78,2.27,3.56,4.53,5.36,6.78c1.6,2,3.22,3.99,4.86,5.96
		c1.04,1.25,2.14,2.46,3.2,3.69c0.75,0.87,1.55,1.68,2.38,2.48c0.27,0.26,0.18,0.41-0.08,0.54c-0.52,0.26-1.03,0.56-1.57,0.76
		c-0.47,0.17-0.45,0.37-0.18,0.7c1.29,1.63,2.62,3.23,3.85,4.9c1.02,1.39,2.17,2.67,3.31,3.96c0.11,0.12,0.21,0.33,0.38,0.3
		c0.2-0.04,0.14-0.28,0.18-0.43c0.1-0.42,0.21-0.83,0.27-1.26c0.05-0.32,0.2-0.4,0.49-0.38c0.26,0.02,0.53,0,0.79,0
		c0.9,0,1.48-0.37,1.77-1.24c0.18-0.53,0.49-0.72,1-0.68c0.67,0.05,1.35-0.08,2.02,0.08c0.25,0.06,0.39-0.09,0.48-0.29
		c0.13-0.29,0.27-0.58,0.36-0.88c0.18-0.59,0.57-0.83,1.18-0.82c0.86,0.02,1.73-0.01,2.59,0.01c0.38,0.01,0.54-0.1,0.53-0.5
		c-0.01-0.28-0.18-0.68,0.14-0.82c0.41-0.18,0.83-0.47,1.33-0.28c0.1,0.04,0.23,0.03,0.32,0.08c0.51,0.28,0.85,0.08,1.22-0.31
		c0.74-0.8,1.28-0.89,2.29-0.48c0.35,0.14,0.73,0.22,1.04,0.43c0.82,0.54,1.53,0.34,2.23-0.23c0.68-0.55,1.45-0.7,2.33-0.75
		c1.82-0.1,3.64-0.03,5.46-0.08c0.26-0.01,0.52-0.06,0.78-0.1c0.94-0.17,1.68,0.22,2.34,0.82c0.28,0.25,0.54,0.31,0.92,0.19
		c0.84-0.27,1.7-0.47,2.54-0.72c0.23-0.07,0.37-0.02,0.56,0.12c0.52,0.38,0.96,0.84,1.39,1.31c0.36,0.39,0.73,0.56,1.27,0.54
		c1.24-0.04,2.48,0.03,3.72-0.03c1.16-0.05,2.22,0.21,3.28,0.63c0.84,0.33,1.65,0.63,2.03,1.53c0.11,0.27,0.37,0.22,0.59,0.22
		c1.24,0,2.48,0.01,3.72-0.01c0.35-0.01,0.58,0.09,0.69,0.43c0.3,0.91,0.93,1.39,1.87,1.53c0.48,0.07,0.93,0.29,1.39,0.44
		c0.29,0.09,0.47,0.29,0.6,0.56c0.23,0.49,0.49,0.97,0.73,1.46c0.14,0.28,0.24,0.41,0.47,0.04c1.38-2.13,2.89-4.15,4.75-5.89
		c0.98-0.92,2-1.81,3.04-2.67c0.33-0.27,0.28-0.4,0.02-0.63c-0.65-0.6-1.2-1.29-1.92-1.82c-0.3-0.22-0.35-0.43-0.05-0.73
		c2.57-2.55,4.81-5.39,7.09-8.19c2.79-3.43,5.5-6.91,8.17-10.42c1.62-2.13,3.26-4.25,4.86-6.39c0.26-0.35,0.36-0.25,0.55,0.01
		c1.33,1.81,2.75,3.55,4.18,5.28c0.78,0.94,1.57,1.86,2.4,2.75c1.35,1.46,2.68,2.94,4.11,4.32c3.2,3.11,6.49,6.1,10.03,8.84
		c3.09,2.39,6.28,4.62,9.62,6.62c3.53,2.11,7.19,3.98,11.01,5.52c0.41,0.16,0.59,0.32,0.48,0.84c-0.67,3.24-1.82,6.29-3.44,9.17
		c-1.66,2.96-3.81,5.52-6.28,7.81c-1.96,1.82-4.15,3.32-6.46,4.65c-2.81,1.61-5.79,2.83-8.87,3.81c-1.73,0.55-3.5,0.97-5.26,1.38
		c-0.33,0.08-0.53,0.02-0.69-0.35c-1.25-2.92-2.68-5.74-4.33-8.46c-1.45-2.41-3.07-4.7-4.89-6.85c-1.77-2.1-3.74-3.98-5.95-5.63
		c-0.48-0.36-0.86-0.33-1.33-0.1c-1.53,0.76-2.98,1.64-4.3,2.75c-1.21,1.02-2.27,2.15-2.78,3.67c-0.18,0.55-0.49,0.88-0.96,1.16
		c-0.45,0.27-0.87,0.58-1.31,0.87c-0.08,0.05-0.19,0.11-0.14,0.2c0.03,0.06,0.15,0.11,0.23,0.12c0.46,0.05,0.93,0.11,1.4,0.12
		c0.44,0.01,0.65,0.17,0.66,0.63c0.04,1.37,0.16,1.51,1.49,1.97c0.22,0.07,0.3,0.19,0.31,0.4c0.03,0.62,0.09,1.23,0.11,1.85
		c0.01,0.32,0.06,0.56,0.42,0.61c0.02,0,0.03,0.02,0.05,0.02c1.33,0.11,1.44,1.07,1.45,2.09c0.01,0.43,0.04,0.86,0.1,1.29
		c0.04,0.33,0.04,0.47,0.47,0.42c1.28-0.16,1.32-0.11,1.01,1.12c-0.19,0.75-0.04,1.25,0.64,1.62c0.48,0.26,0.63,0.62,0.38,1.18
		c-0.26,0.58-0.38,1.22-0.59,1.81c-0.13,0.36-0.13,0.68,0.14,0.94c1.03,1.01,1.19,2.29,1.27,3.64c0.09,1.66,0.34,3.3,0.5,4.96
		c0.04,0.37-0.26,0.65-0.46,0.93c-0.3,0.4-0.36,0.79-0.17,1.26c0.23,0.57,0.4,1.17,0.65,1.74c0.15,0.33,0.09,0.56-0.12,0.82
		c-0.36,0.43-0.71,0.87-1.07,1.3c-0.17,0.21-0.21,0.42-0.2,0.71c0.05,1.77,0.52,3.53,0.16,5.31c-0.13,0.66-0.37,1.3-0.57,1.94
		c-0.11,0.36-0.47,0.47-0.73,0.68c-0.19,0.16-0.31,0.3-0.26,0.56c0.13,0.81,0.06,1.66,0.24,2.45c0.23,1.01-0.2,1.5-1.02,1.84
		c-0.18,0.07-0.23,0.22-0.26,0.4c-0.1,0.49-0.25,0.98-0.33,1.48c-0.1,0.61-0.33,1.09-0.98,1.28c-0.19,0.06-0.37,0.18-0.53,0.27
		c-0.03,0.15,0.07,0.19,0.15,0.23c3.26,1.57,6.18,3.69,9.17,5.69c3.32,2.22,6.51,4.61,9.6,7.12c2.14,1.73,4.22,3.53,6.24,5.4
		c1.82,1.68,3.58,3.43,5.29,5.23c2.44,2.57,4.71,5.28,6.69,8.22c0.28,0.42,0.24,0.59-0.22,0.84c-2.31,1.25-4.76,2.11-7.36,2.49
		c-1.8,0.26-3.61,0.44-5.43,0.35c-4.05-0.2-8.01-0.92-11.86-2.26c-0.4-0.14-0.45-0.42-0.49-0.72c-0.2-1.55-0.58-3.05-1.08-4.52
		c-1.08-3.19-2.68-6.09-4.82-8.71c-2.7-3.29-5.92-5.96-9.7-7.88c-1.14-0.58-2.19-1.2-3.05-2.14c-0.27-0.29-0.39-0.28-0.46,0.14
		c-0.15,0.85-0.37,1.68-0.48,2.53c-0.07,0.51-0.3,0.51-0.68,0.42c-0.47-0.11-0.95-0.19-1.43-0.28c-0.42-0.08-0.68,0-0.65,0.53
		c0.02,0.42-0.05,0.86-0.11,1.28c-0.05,0.35-0.99,1.11-1.38,1.1c-1.22-0.03-2.44,0.1-3.65-0.08c-0.29-0.04-0.33,0.15-0.41,0.36
		c-0.27,0.76-0.59,1.5-0.82,2.27c-0.12,0.4-0.37,0.53-0.71,0.59c-1.23,0.23-2.46,0.48-3.69,0.69c-0.46,0.08-0.74,0.24-0.78,0.76
		c-0.03,0.44-0.19,0.87-0.27,1.32c-0.05,0.28-0.18,0.32-0.43,0.27c-0.82-0.17-1.65-0.33-2.47-0.5c-0.37-0.08-0.63-0.02-0.83,0.36
		c-0.43,0.83-0.92,1.63-1.38,2.45c-0.17,0.3-0.34,0.45-0.75,0.33c-1.41-0.39-2.83-0.7-4.24-1.07c-0.36-0.09-0.54-0.01-0.76,0.27
		c-0.82,1.02-1.66,2.02-2.51,3.02c-0.38,0.45-0.95,0.3-1.42,0.34c-1.92,0.17-3.85,0.24-5.77,0.37c-1.16,0.08-2.31,0.17-3.46,0.28
		c-0.27,0.03-0.37-0.14-0.51-0.27c-0.95-0.98-1.91-1.96-2.85-2.96c-0.27-0.29-0.51-0.35-0.89-0.22c-1.11,0.39-2.26,0.7-3.36,1.11
		c-0.56,0.21-0.87,0.03-1.2-0.36c-0.66-0.76-1.36-1.5-2.03-2.26c-0.25-0.29-0.54-0.38-0.93-0.41c-1.6-0.12-3.2-0.29-4.8-0.42
		c-0.27-0.02-0.45-0.14-0.63-0.32c-0.41-0.42-0.88-0.78-1.22-1.25c-0.61-0.81-1.39-0.74-2.22-0.57c-0.24,0.05-0.48,0.07-0.72,0.1
		c-1.1,0.14-1.1,0.14-1.32-0.92c-0.08-0.4-0.19-0.81-0.21-1.21c-0.02-0.41-0.21-0.48-0.57-0.47c-1.77,0.01-3.53-0.01-5.3,0.02
		c-0.41,0.01-0.59-0.12-0.7-0.52c-0.25-0.88-0.56-1.75-0.83-2.63c-0.07-0.24-0.19-0.35-0.46-0.38c-1.06-0.12-2.1-0.31-3.16-0.42
		c-0.35-0.04-0.55-0.18-0.68-0.48c-0.42-0.94-0.86-1.87-1.27-2.82c-0.14-0.34-0.25-0.35-0.51-0.12c-2.21,1.99-4.62,3.75-6.88,5.68
		c-2.23,1.9-4.18,4.09-5.89,6.47c-2.05,2.85-3.67,5.92-4.71,9.29c-0.13,0.41-0.35,0.82-0.36,1.24c-0.01,1.13-0.76,1.49-1.64,1.82
		c-2.19,0.83-4.43,1.46-6.77,1.72c-2.4,0.27-4.77,0.21-7.16-0.12c-3.32-0.45-6.44-1.49-9.47-2.88c-0.39-0.18-0.25-0.4-0.1-0.62
		c0.87-1.33,1.78-2.64,2.76-3.9c2.64-3.39,5.53-6.56,8.64-9.53c1.91-1.82,3.88-3.58,5.9-5.28c2.64-2.22,5.34-4.35,8.12-6.38
		c2.74-2.01,5.51-3.95,8.43-5.7c0.75-0.45,1.48-0.94,2.31-1.46c-0.81-0.31-1.55-0.6-2.3-0.87c-0.88-0.31-1-0.52-0.81-1.41
		c0.12-0.59-0.08-1.14-0.67-1.47c-0.55-0.3-0.72-0.71-0.63-1.29c0.06-0.37,0.11-0.74,0.18-1.1c0.09-0.45,0.07-0.79-0.44-1
		c-0.72-0.3-1.18-0.7-0.92-1.65c0.16-0.59,0.24-1.24,0.27-1.88c0.01-0.34-0.06-0.5-0.45-0.52c-0.98-0.03-1.18-0.32-0.72-1.22
		c0.37-0.73,0.31-1.26-0.3-1.79c-0.39-0.34-0.47-0.7-0.11-1.19c0.42-0.57,0.71-1.24,1.07-1.85c0.15-0.26,0.13-0.46,0-0.73
		c-0.34-0.72-0.83-1.4-0.73-2.26c0.18-1.52,0.36-3.04,0.53-4.56c0.06-0.56,0.12-1.12,0.14-1.68c0.01-0.3,0.05-0.57,0.31-0.74
		c0.91-0.57,0.9-1.41,0.7-2.32c-0.09-0.4-0.13-0.81-0.21-1.21c-0.04-0.25,0.05-0.44,0.24-0.59c0.35-0.28,0.69-0.58,1.05-0.85
		c0.48-0.36,0.69-0.81,0.76-1.42c0.26-2.2,0.32-4.46,1.73-6.36c0.12-0.17,0.2-0.39,0.42-0.43c0.91-0.21,0.92-0.93,1-1.64
		c0.09-0.82,0.23-1.63,0.32-2.44c0.02-0.19,0.09-0.35,0.27-0.37c1.29-0.15,1.63-1.21,2-2.16c0.23-0.57,0.57-0.83,1.13-0.92
		c0.22-0.03,0.44-0.07,0.66-0.25c-0.36-0.3-0.67-0.62-1.04-0.86c-0.98-0.64-1.46-1.7-2.17-2.55c-1.5-1.79-3.25-3.26-5.38-4.26
		c-0.31-0.14-0.54-0.07-0.78,0.11c-2.53,1.87-4.73,4.07-6.69,6.53c-3.02,3.77-5.39,7.93-7.46,12.28c-0.4,0.83-0.74,1.68-1.09,2.53
		c-0.11,0.28-0.23,0.35-0.54,0.28c-3.23-0.68-6.41-1.55-9.47-2.79c-3.4-1.38-6.61-3.12-9.52-5.39c-3.98-3.11-7.13-6.89-9.33-11.45
		c-1.1-2.29-1.93-4.67-2.39-7.18c-0.06-0.32,0.02-0.43,0.29-0.54c4.43-1.83,8.64-4.09,12.69-6.66c3.24-2.06,6.34-4.33,9.31-6.76
		c1.71-1.4,3.37-2.86,4.99-4.37c1.87-1.74,3.68-3.55,5.44-5.39c1.81-1.89,3.53-3.88,5.18-5.91C42.37,38.69,43.66,37.02,44.94,35.27z
		 M136.72,74.49c0,0-0.02-0.02-0.02-0.02c0.04-0.08,0.06-0.18,0.11-0.25c1.13-1.4,2.26-2.8,3.39-4.2c0.84-1.03,1.68-2.07,2.51-3.1
		c0.15-0.19,0.33-0.41-0.07-0.55c-0.97-0.34-1.93-0.72-2.93-0.98c-0.29-0.07-0.49-0.02-0.7,0.21c-1.22,1.38-2.46,2.73-3.67,4.11
		c-1.18,1.34-2.32,2.7-3.48,4.05c-0.21,0.24-0.3,0.45,0.04,0.69c1.77,1.24,3.47,2.56,5.08,4c0.26,0.23,0.36,0.72,0.75,0.67
		c0.36-0.05,0.57-0.46,0.86-0.7c2.74-2.31,5.38-4.73,8.23-6.9c0.21-0.16,0.26-0.32,0.16-0.57c-0.52-1.29-1.34-2.33-2.5-3.11
		c-0.25-0.17-0.47-0.16-0.7,0.07c-0.67,0.66-1.36,1.29-2.04,1.94c-1.57,1.49-3.13,2.97-4.7,4.46
		C136.96,74.4,136.87,74.49,136.72,74.49z M63.15,74.06c-0.47-0.22-0.79-0.62-1.16-0.96c-1.96-1.81-3.9-3.63-5.83-5.47
		c-0.24-0.23-0.41-0.24-0.67-0.07c-0.93,0.61-1.64,1.42-2.17,2.39c-0.56,1.02-0.55,1.02,0.36,1.7c0.11,0.08,0.21,0.16,0.31,0.24
		c2.73,2.2,5.39,4.49,8.03,6.79c0.19,0.16,0.31,0.22,0.51,0.01c1.6-1.7,3.49-3.07,5.37-4.44c0.46-0.34,0.47-0.54,0.14-0.95
		c-2.29-2.75-4.75-5.36-7.14-8.03c-0.18-0.2-0.35-0.27-0.64-0.19c-0.97,0.25-1.88,0.64-2.83,0.94c-0.43,0.14-0.47,0.31-0.18,0.65
		c1.23,1.48,2.46,2.98,3.67,4.48c0.76,0.95,1.58,1.85,2.27,2.85L63.15,74.06z M46.35,145.5c0.02,0.02,0.03,0.04,0.05,0.05
		c-0.04,0.2-0.2,0.31-0.33,0.44c-2.65,2.55-4.93,5.4-6.91,8.5c-0.32,0.5-0.69,0.99-0.92,1.66c1.37-0.58,2.67-1.01,3.99-1.37
		c0.32-0.09,0.5-0.27,0.64-0.56c1.28-2.6,3.03-4.87,5.01-6.96c3.25-3.44,6.93-6.37,10.95-8.86c0.38-0.23,0.36-0.4,0.13-0.73
		c-0.73-1.03-1.44-2.06-2.12-3.12c-0.25-0.39-0.44-0.36-0.78-0.13c-3.76,2.54-7.45,5.19-11.04,7.97
		c-4.08,3.16-8.03,6.48-11.77,10.02c-2.9,2.75-5.72,5.59-8.26,8.69c-0.33,0.4-0.72,0.77-0.98,1.37c0.29-0.13,0.48-0.21,0.66-0.3
		c1.58-0.77,3.02-1.75,4.45-2.74c1.04-0.73,2.08-1.46,3.13-2.19l0.03,0.03c-0.04,0.08-0.06,0.18-0.12,0.25
		c-0.79,1.02-1.54,2.08-2.18,3.21c-0.07,0.13-0.22,0.25-0.14,0.4c0.09,0.15,0.28,0.08,0.42,0.07c0.94-0.04,1.88,0.02,2.8,0.15
		c2.08,0.28,4.13,0.71,6.13,1.33c0.24,0.07,0.34,0.07,0.42-0.22c0.32-1.2,0.82-2.33,1.31-3.46c0.34-0.78,0.68-1.56,1.01-2.34
		c-0.22-0.11-0.34,0.01-0.47,0.06c-1.58,0.63-3.22,0.96-4.91,1.1c-0.67,0.06-0.67,0.03-0.51-0.6c0.31-1.15,0.83-2.21,1.44-3.22
		c1.37-2.28,3.2-4.15,5.21-5.85C43.86,147.16,45.04,146.23,46.35,145.5z M167.06,156.23c0.2,0,0.35,0.13,0.5,0.24
		c1.81,1.34,3.67,2.61,5.61,3.75c0.69,0.41,1.37,0.88,2.26,1.06c-0.08-0.14-0.11-0.21-0.16-0.26c-1.35-1.73-2.86-3.33-4.38-4.91
		c-2.01-2.1-4.15-4.07-6.32-6.02c-3.17-2.85-6.47-5.54-9.85-8.12c-3.82-2.92-7.76-5.66-11.78-8.3c-0.34-0.22-0.49-0.17-0.7,0.16
		c-0.63,1-1.29,1.98-1.94,2.97c-0.44,0.66-0.43,0.65,0.26,1.07c3.36,2.09,6.51,4.43,9.37,7.17c2.6,2.49,4.96,5.18,6.59,8.43
		c0.09,0.18,0.21,0.31,0.4,0.36c1.38,0.39,2.76,0.79,4.13,1.3c-2.25-3.96-5.13-7.41-8.46-10.52c0.17-0.1,0.24-0.01,0.31,0.03
		c2.72,1.74,5.23,3.72,7.32,6.2c1.14,1.36,2.12,2.82,2.76,4.49c0.18,0.46,0.62,1.1,0.33,1.38c-0.33,0.32-1.03,0.1-1.57,0.04
		c-1.48-0.17-2.9-0.58-4.29-1.07c-0.02-0.01-0.03-0.02-0.05-0.02c0.02,0.01,0.03,0.01,0.05,0.02c-0.04,0.24,0.11,0.43,0.2,0.63
		c0.71,1.59,1.45,3.17,2.04,4.82c0.26,0.73,0.25,0.7,0.99,0.49c2.72-0.78,5.47-1.46,8.33-1.44c0.18,0,0.43,0.1,0.53-0.07
		c0.12-0.2-0.11-0.37-0.22-0.54c-0.26-0.42-0.51-0.83-0.79-1.23c-0.49-0.71-1.01-1.4-1.51-2.1L167.06,156.23z M100.01,87.86
		c0.02,0.02,0.05,0.04,0.07,0.06c-0.08,0.15-0.15,0.3-0.24,0.44c-1.32,2.07-2.64,4.15-3.98,6.21c-0.24,0.38-0.12,0.47,0.23,0.51
		c0.42,0.05,0.84,0.08,1.28,0.23c-0.09,0.14-0.14,0.24-0.21,0.32c-0.68,0.67-0.92,1.44-0.62,2.38c0.1,0.31-0.02,0.68,0.24,0.96
		c0.94,0.99,1.64,2.14,2.35,3.29c0.29,0.47,0.44,0.38,0.71,0c0.98-1.4,1.97-2.79,2.97-4.18c3.84-5.38,7.67-10.76,11.52-16.13
		c0.26-0.36,0.26-0.58,0-0.92c-0.87-1.11-1.71-2.24-2.56-3.36c-0.07-0.1-0.23-0.19-0.13-0.33c0.05-0.06,0.2-0.06,0.31-0.05
		c0.86,0.02,1.73,0.04,2.59,0.07c1.69,0.05,3.38,0.11,5.06,0.16c0.17,0.01,0.25-0.06,0.34-0.22c0.87-1.59,0.83-1.84-0.53-3.04
		c-0.1-0.09-0.2-0.16-0.31-0.25c-2.44-1.94-5.29-2.96-8.26-3.7c-2.61-0.65-5.26-0.97-7.94-1.16c-2.49-0.18-4.98-0.18-7.48-0.08
		c-0.35,0.01-0.46,0.13-0.4,0.48c0.08,0.44,0.13,0.89,0.18,1.34c0.38,3.37,0.77,6.74,1.12,10.11c0.06,0.57,0.22,1.15,0.1,1.84
		c-0.11-0.18-0.17-0.27-0.22-0.36c-2.09-3.97-4.19-7.93-6.27-11.91c-0.22-0.42-0.47-0.53-0.88-0.45c-0.13,0.03-0.26,0.06-0.39,0.07
		c-4.2,0.52-7.75,2.34-10.74,5.31c-0.6,0.6-0.6,0.6-0.16,1.36c0.12,0.21,0.25,0.42,0.35,0.64c0.16,0.38,0.42,0.5,0.83,0.5
		c2.88-0.02,5.75-0.01,8.63-0.01c0.2,0,0.41-0.06,0.58,0.05c0.04,0.13-0.04,0.19-0.1,0.26c-1.08,1.2-2.15,2.41-3.26,3.58
		c-0.36,0.37-0.38,0.6-0.07,1.01c2.51,3.37,5.11,6.67,7.68,10c0.26,0.34,0.45,0.34,0.77,0.09c1.35-1.05,2.7-2.09,4.07-3.11
		C98.16,89.2,99,88.42,100.01,87.86z M159.47,62.62c0.04,0.03,0.07,0.07,0.11,0.1c-1.62,1.87-3.23,3.74-4.85,5.61
		c0.02,0.03,0.03,0.05,0.05,0.08c0.92-0.39,1.85-0.78,2.77-1.17c-0.54,1.18-1.16,2.26-1.78,3.32c-0.13,0.22-0.22,0.39,0.02,0.63
		c2.75,2.73,4.84,5.96,6.87,9.23c0.7,1.13,1.37,2.28,2.05,3.42c0.11,0.26,0.21,0.51,0.32,0.77c1.03,2.39,1.94,4.83,2.84,7.27
		c0.14,0.39,0.28,0.53,0.75,0.45c2.02-0.38,3.97-0.94,5.88-1.68c0.4-0.16,0.48-0.34,0.41-0.74c-0.21-1.1-0.38-2.21-0.58-3.43
		c0.55,0.36,0.99,0.66,1.52,1.01c-0.48-1.83-0.94-3.58-1.43-5.41c0.32,0.19,0.4,0.43,0.53,0.63c1.11,1.69,2.23,3.38,3.32,5.09
		c0.21,0.33,0.36,0.37,0.69,0.16c1.69-1.1,3.15-2.48,4.61-3.87c0.17-0.16,0.15-0.31,0.11-0.51c-0.17-0.94-0.33-1.88-0.52-2.91
		c0.58,0.43,1.1,0.79,1.58,1.2c0.33,0.29,0.54,0.23,0.84-0.05c1.55-1.5,2.81-3.23,4.12-4.92c0.2-0.26,0.03-0.3-0.15-0.37
		c-0.98-0.38-1.92-0.85-2.76-1.49c-0.64-0.48-1.22-1.02-1.65-1.81c0.17,0.03,0.24,0.04,0.31,0.05c1.68,0.45,3.37,0.89,5.05,1.36
		c0.39,0.11,0.59,0.04,0.75-0.32c0.3-0.71,0.61-1.41,0.94-2.1c0.13-0.28,0.06-0.42-0.21-0.56c-0.92-0.46-1.83-0.95-2.75-1.42
		c-1.56-0.8-3.13-1.6-4.69-2.4c-0.17-0.11-0.33-0.24-0.51-0.34c-3.64-2.15-7.12-4.55-10.44-7.17c-5.54-4.37-10.67-9.18-15.21-14.6
		c-0.18-0.22-0.28-0.23-0.47-0.01c-0.77,0.87-1.56,1.73-2.35,2.58c-1.71,1.87-3.42,3.73-5.13,5.6c-0.03-0.03-0.06-0.05-0.08-0.07
		c0.07-0.15,0.14-0.31,0.22-0.45c1.67-2.93,3.36-5.86,5.02-8.8c0.3-0.53,0.91-1.06,0.79-1.61c-0.13-0.57-0.88-0.88-1.34-1.31
		c-0.34-0.32-0.53-0.24-0.79,0.1c-1.66,2.11-3.35,4.2-5.02,6.3c-2.74,3.46-5.47,6.93-8.2,10.4c-0.16,0.2-0.43,0.37,0.01,0.63
		c3.96,2.42,7.66,5.22,11.38,7.99c0.33,0.24,0.51,0.25,0.84-0.02C155.21,65.44,157.27,63.93,159.47,62.62z M15.46,67.81
		c-0.51,0.14-0.94,0.45-1.4,0.69c-2.01,1.05-4.01,2.11-6.01,3.17c-0.15,0.08-0.44,0.06-0.3,0.41c0.34,0.81,0.67,1.63,1.08,2.4
		c0.14,0.26,0.32,0.26,0.56,0.19c0.7-0.2,1.41-0.4,2.11-0.59c1.08-0.29,2.16-0.59,3.39-0.92c-1.18,1.87-2.92,2.72-4.74,3.5
		c0.34,0.44,0.65,0.86,0.97,1.28c1.07,1.35,2.12,2.72,3.4,3.9c0.25,0.23,0.43,0.26,0.71,0.03c0.5-0.41,1.02-0.79,1.64-1.25
		c-0.17,0.98-0.32,1.82-0.46,2.67c-0.04,0.26-0.14,0.53,0.12,0.78c1.44,1.38,2.9,2.72,4.58,3.81c0.31,0.2,0.47,0.2,0.69-0.15
		c1.16-1.84,2.35-3.66,3.54-5.48c0.07-0.11,0.1-0.26,0.31-0.31c-0.47,1.81-0.93,3.58-1.42,5.46c0.55-0.37,1-0.67,1.52-1.03
		c-0.2,1.22-0.39,2.33-0.56,3.44c-0.04,0.26-0.14,0.52,0.26,0.68c2.04,0.78,4.12,1.39,6.27,1.73c0.25,0.04,0.34-0.03,0.41-0.23
		c1.01-2.78,2.04-5.55,3.2-8.27c0.55-0.93,1.09-1.87,1.65-2.8c2.12-3.52,4.31-7,7.22-9.94c0.24-0.24,0.14-0.41,0.01-0.63
		c-0.61-1.05-1.21-2.11-1.81-3.17c0.03-0.04,0.06-0.07,0.09-0.11c0.9,0.37,1.8,0.73,2.69,1.1c0.02-0.03,0.04-0.07,0.05-0.1
		c-1.64-1.86-3.28-3.72-4.97-5.63c0.36-0.05,0.5,0.13,0.66,0.23c2.03,1.29,4,2.66,5.85,4.2c0.25,0.21,0.45,0.29,0.7,0.03
		c0.11-0.12,0.26-0.21,0.4-0.31c3.6-2.68,7.16-5.41,10.98-7.78c0.38-0.23,0.28-0.36,0.07-0.62c-2.62-3.27-5.22-6.55-7.84-9.82
		c-1.82-2.27-3.67-4.52-5.48-6.8c-0.32-0.4-0.53-0.43-0.87-0.07c-0.33,0.33-0.7,0.63-1.07,0.92c-0.3,0.24-0.31,0.47-0.11,0.81
		c1,1.68,1.97,3.37,2.94,5.06c1.02,1.77,2.03,3.55,3.04,5.32c-0.03,0.02-0.06,0.05-0.08,0.07c-0.11-0.1-0.22-0.2-0.32-0.31
		c-2.37-2.57-4.73-5.14-7.1-7.71c-0.2-0.22-0.32-0.43-0.63-0.06c-2.8,3.42-5.9,6.57-9.15,9.56c-4.11,3.79-8.48,7.24-13.16,10.31
		C17.9,66.26,16.68,67.03,15.46,67.81z M82.88,122.95c0.14,3.52,0.03,6.84-0.89,10.1c-0.11,0.39,0.07,0.45,0.34,0.5
		c0.89,0.16,1.76,0.38,2.6,0.71c0.35,0.13,0.42,0.3,0.24,0.63c-0.27,0.49-0.51,1-0.74,1.51c-1,2.17-1.73,4.4-1.41,6.84
		c0.17,1.28,0.49,2.49,1.5,3.36c2.95,2.53,6.43,3.78,10.25,4.21c2.32,0.26,4.64,0.26,6.97,0.12c0.47-0.03,0.64-0.06,0.41-0.59
		c-0.81-1.84-1.53-3.71-2.12-5.63c-0.28-0.93-0.57-1.87-0.6-2.97c2.25,1.99,4.41,3.9,6.69,5.92c0-4.43,0-8.7,0-12.97
		c0.16,0.15,0.22,0.32,0.27,0.49c0.61,1.99,1.25,3.97,2.02,5.91c0.76,1.92,1.55,3.83,2.83,5.48c0.61,0.79,1.34,1.24,2.43,1.03
		c1.72-0.34,2.71-1.42,3.31-2.97c0.56-1.42,0.74-2.92,0.74-4.41c0.03-10,0.02-19.99,0-29.99c0-0.82-0.12-1.64-0.41-2.43
		c-0.37-1.01-0.93-1.3-1.98-1c-0.77,0.22-1.37,0.68-1.87,1.29c-0.92,1.12-1.47,2.44-1.91,3.8c-0.57,1.77-0.91,3.6-1.22,5.44
		c-0.46-1.33-0.67-2.7-0.85-4.21c-3.43,4.03-7.05,7.75-9.7,12.28c-0.7-0.71-1.5-1.39-2.14-2.23c-2.89-3.82-5.7-7.69-8.79-11.35
		c-1.29-1.54-2.6-3.05-4.1-4.4c-1.48-1.33-2.52-0.54-3.09,0.65c-0.11,0.24-0.19,0.49-0.27,0.74c-0.4,1.27-0.49,2.58-0.5,3.89
		c-0.04,4.13-0.01,8.27-0.01,12.4c0,0.18-0.07,0.37,0.11,0.58C81.78,124.91,82.36,124.03,82.88,122.95z M60.6,98.57
		c1.21-1.33,2.41-2.64,3.96-3.57c0.18-0.11,0.33-0.2,0.33-0.46c0.02-1.75-0.12-3.48-0.71-5.15c-0.26-0.72-0.66-1.34-1.28-1.82
		c-0.26-0.2-0.47-0.24-0.71,0.05c-0.56,0.68-1.15,1.34-1.65,2.06c-3.62,5.27-5.11,11.21-5.45,17.49c-0.13,2.4-0.08,4.8,0.18,7.2
		c0.3,2.72,0.83,5.37,1.88,7.9c0.81,1.96,1.88,3.75,3.58,5.1c0.29,0.23,0.5,0.23,0.79,0.02c1.87-1.37,2.97-3.19,3.24-5.5
		c0.19-1.59,0.11-3.19,0.11-4.78c0.01-4.43-0.02-8.87-0.02-13.3c0-0.4-0.1-0.56-0.53-0.57c-1.74-0.06-3.48-0.15-5.23-0.23
		c-0.11-0.01-0.23,0.02-0.32-0.17c0.96-0.96,1.97-1.87,3.31-2.31c0.75-0.24,0.8-0.33,0.28-0.96c-0.27-0.33-0.62-0.54-1-0.71
		C61.13,98.75,60.84,98.78,60.6,98.57z M136.16,97.67c0,0.29,0,0.44,0,0.59c-0.07,2.23-0.14,4.46-0.23,6.69
		c-0.02,0.42,0.07,0.68,0.48,0.88c0.77,0.39,1.48,0.89,2.1,1.5c0.22,0.21,0.28,0.39,0.07,0.67c-0.67,0.89-1.39,1.72-2.37,2.3
		c-0.14,0.08-0.37,0.12-0.36,0.32c0.03,0.62-0.18,1.26,0.28,1.84c0.6,0.76,0.93,1.66,1.12,2.61c0.08,0.39,0,0.61-0.47,0.58
		c-0.39-0.03-0.79,0.01-1.18,0.02c-1.3,0.01-1.32,0.01-1.34,1.33c-0.03,2.59,0.04,5.18,0.55,7.73c0.26,1.35,0.61,2.68,1.45,3.81
		c0.66,0.89,0.71,0.88,1.56,0.18c0.17-0.14,0.35-0.29,0.51-0.45c1.73-1.77,2.8-3.93,3.57-6.25c1.17-3.54,1.63-7.19,1.71-10.9
		c0.1-4.57-0.17-9.1-1.47-13.53c-1.26-4.31-3.63-7.87-7.04-10.77c-0.26-0.22-0.36-0.13-0.4,0.14c-0.09,0.65-0.18,1.3-0.24,1.95
		c-0.11,1.27-0.22,2.54-0.29,3.81c-0.1,1.89-0.03,3.79,0.15,5.68c0.03,0.29,0.15,0.28,0.36,0.22
		C135.22,98.47,135.68,98.2,136.16,97.67z" />
		<path class="met_st2" d="M82.88,122.95c-0.53,1.08-1.1,1.96-1.86,2.73c-0.18-0.21-0.11-0.4-0.11-0.58c0-4.13-0.03-8.27,0.01-12.4
		c0.01-1.31,0.1-2.62,0.5-3.89c0.08-0.25,0.16-0.5,0.27-0.74c0.57-1.19,1.61-1.98,3.09-0.65c1.5,1.35,2.81,2.87,4.1,4.4
		c3.08,3.66,5.9,7.53,8.79,11.35c0.63,0.84,1.44,1.52,2.14,2.23c2.65-4.53,6.26-8.25,9.7-12.28c0.18,1.51,0.39,2.88,0.85,4.21
		c0.3-1.84,0.64-3.66,1.22-5.44c0.44-1.36,0.98-2.68,1.91-3.8c0.5-0.61,1.1-1.07,1.87-1.29c1.05-0.29,1.61-0.01,1.98,1
		c0.29,0.79,0.41,1.61,0.41,2.43c0.01,10,0.02,19.99,0,29.99c0,1.5-0.18,3-0.74,4.41c-0.61,1.54-1.59,2.63-3.31,2.97
		c-1.09,0.21-1.81-0.24-2.43-1.03c-1.28-1.65-2.07-3.56-2.83-5.48c-0.77-1.94-1.41-3.92-2.02-5.91c-0.05-0.17-0.11-0.34-0.27-0.49
		c0,4.27,0,8.54,0,12.97c-2.28-2.01-4.44-3.93-6.69-5.92c0.03,1.1,0.32,2.03,0.6,2.97c0.58,1.92,1.31,3.8,2.12,5.63
		c0.23,0.53,0.06,0.56-0.41,0.59c-2.33,0.14-4.65,0.14-6.97-0.12c-3.82-0.43-7.3-1.68-10.25-4.21c-1.01-0.87-1.34-2.09-1.5-3.36
		c-0.32-2.45,0.41-4.67,1.41-6.84c0.24-0.51,0.48-1.02,0.74-1.51c0.18-0.33,0.11-0.5-0.24-0.63c-0.84-0.32-1.71-0.55-2.6-0.71
		c-0.28-0.05-0.45-0.11-0.34-0.5C82.92,129.79,83.02,126.46,82.88,122.95z" />
		<path class="met_st3" d="M42.39,67.19c0.6,1.06,1.21,2.11,1.81,3.17c0.13,0.22,0.23,0.39-0.01,0.63c-2.91,2.95-5.1,6.42-7.22,9.94
		c-0.56,0.93-1.1,1.87-1.65,2.8c-1.34-0.37-2.63-0.89-3.88-1.49c-5.74-2.72-10.5-6.64-14.27-11.75c-0.63-0.85-1.29-1.7-1.71-2.69
		c1.21-0.78,2.44-1.54,3.64-2.33c4.68-3.06,9.05-6.52,13.16-10.31c3.25-2.99,6.34-6.14,9.15-9.56c0.3-0.37,0.43-0.16,0.63,0.06
		c2.36,2.57,4.73,5.14,7.1,7.71c0.1,0.11,0.21,0.21,0.32,0.31c0.05,0.05,0.1,0.09,0.15,0.14c0.09-0.1,0.01-0.15-0.06-0.21
		c-1.01-1.77-2.02-3.55-3.04-5.32c-0.97-1.69-1.95-3.38-2.94-5.06c-0.2-0.34-0.19-0.56,0.11-0.81c0.37-0.29,0.74-0.59,1.07-0.92
		c0.35-0.35,0.56-0.33,0.87,0.07c1.81,2.28,3.66,4.53,5.48,6.8c2.62,3.27,5.22,6.55,7.84,9.82c0.21,0.26,0.31,0.39-0.07,0.62
		c-3.82,2.36-7.38,5.1-10.98,7.78c-0.14,0.1-0.29,0.19-0.4,0.31c-0.25,0.27-0.45,0.18-0.7-0.03c-1.85-1.54-3.83-2.91-5.85-4.2
		c-0.16-0.1-0.31-0.28-0.66-0.23c1.69,1.92,3.33,3.77,4.97,5.63c-0.02,0.03-0.04,0.07-0.05,0.1c-0.9-0.37-1.8-0.73-2.69-1.1
		c-0.04,0-0.09-0.01-0.13-0.01C42.36,67.11,42.38,67.15,42.39,67.19z M40.22,62.33c-0.01,0.01-0.02,0.03-0.02,0.04
		c0.02,0.05,0.05,0.05,0.07,0c0-0.01-0.01-0.03-0.02-0.03C40.25,62.33,40.23,62.33,40.22,62.33z" />
		<path class="met_st3" d="M150.43,53.91c1.71-1.87,3.42-3.73,5.13-5.6c0.79-0.86,1.57-1.71,2.35-2.58c0.19-0.21,0.29-0.2,0.47,0.01
		c4.54,5.42,9.67,10.23,15.21,14.6c3.32,2.62,6.79,5.02,10.44,7.17c0.18,0.1,0.34,0.23,0.51,0.34c-0.05,0.1-0.08,0.21-0.14,0.3
		c-1.25,2.06-2.69,3.98-4.33,5.75c-3.57,3.87-7.78,6.88-12.61,8.99c-0.89,0.39-1.78,0.79-2.75,0.96c-0.68-1.14-1.35-2.29-2.05-3.42
		c-2.03-3.27-4.12-6.5-6.87-9.23c-0.24-0.24-0.14-0.41-0.02-0.63c0.62-1.07,1.23-2.14,1.78-3.32c-0.92,0.39-1.85,0.78-2.77,1.17
		c-0.02-0.03-0.03-0.05-0.05-0.08c1.62-1.87,3.23-3.74,4.85-5.61c0.05-0.06,0.1-0.12,0.14-0.19c0.02-0.02,0.04-0.04,0.07-0.05
		c-0.02-0.01-0.04-0.01-0.07-0.02c0,0.03,0,0.05,0.01,0.08c-0.12-0.08-0.19,0-0.26,0.08c-2.2,1.31-4.26,2.82-6.22,4.45
		c-0.32,0.27-0.51,0.26-0.84,0.02c-3.72-2.77-7.42-5.57-11.38-7.99c-0.44-0.27-0.17-0.43-0.01-0.63c2.73-3.47,5.46-6.94,8.2-10.4
		c1.67-2.11,3.36-4.19,5.02-6.3c0.27-0.34,0.46-0.42,0.79-0.1c0.46,0.44,1.21,0.74,1.34,1.31c0.13,0.56-0.49,1.08-0.79,1.61
		c-1.66,2.94-3.35,5.87-5.02,8.8c-0.08,0.14-0.15,0.3-0.22,0.45c-0.07,0.06-0.15,0.11-0.06,0.21
		C150.33,54,150.38,53.96,150.43,53.91z" />
		<path class="met_st2" d="M100.01,87.86c-1,0.56-1.84,1.34-2.76,2.02c-1.37,1.01-2.73,2.06-4.07,3.11c-0.32,0.25-0.5,0.25-0.77-0.09
		c-2.57-3.33-5.18-6.63-7.68-10c-0.31-0.42-0.29-0.64,0.07-1.01c1.11-1.17,2.18-2.38,3.26-3.58c0.06-0.07,0.14-0.13,0.1-0.26
		C87.97,77.93,87.76,78,87.57,78c-2.88,0-5.75-0.01-8.63,0.01c-0.41,0-0.67-0.11-0.83-0.5c-0.09-0.22-0.22-0.43-0.35-0.64
		c-0.44-0.76-0.45-0.76,0.16-1.36c2.99-2.96,6.55-4.78,10.74-5.31c0.13-0.02,0.26-0.05,0.39-0.07c0.41-0.08,0.66,0.03,0.88,0.45
		c2.07,3.98,4.17,7.94,6.27,11.91c0.05,0.09,0.11,0.19,0.22,0.36c0.12-0.69-0.04-1.27-0.1-1.84c-0.35-3.37-0.74-6.74-1.12-10.11
		c-0.05-0.45-0.1-0.89-0.18-1.34c-0.06-0.35,0.05-0.46,0.4-0.48c2.49-0.1,4.98-0.1,7.48,0.08c2.68,0.19,5.34,0.51,7.94,1.16
		c2.97,0.74,5.82,1.76,8.26,3.7c0.1,0.08,0.21,0.16,0.31,0.25c1.36,1.2,1.4,1.45,0.53,3.04c-0.09,0.16-0.17,0.23-0.34,0.22
		c-1.69-0.06-3.38-0.11-5.06-0.16c-0.86-0.03-1.73-0.05-2.59-0.07c-0.11,0-0.26-0.01-0.31,0.05c-0.1,0.14,0.06,0.23,0.13,0.33
		c0.85,1.12,1.69,2.25,2.56,3.36c0.26,0.34,0.26,0.56,0,0.92c-3.85,5.37-7.68,10.75-11.52,16.13c-0.99,1.39-1.99,2.78-2.97,4.18
		c-0.26,0.38-0.42,0.47-0.71,0c-0.71-1.15-1.41-2.31-2.35-3.29c-0.26-0.28-0.14-0.65-0.24-0.96c-0.3-0.94-0.07-1.71,0.62-2.38
		c0.08-0.08,0.12-0.18,0.21-0.32c-0.44-0.15-0.86-0.18-1.28-0.23c-0.35-0.05-0.48-0.14-0.23-0.51c1.34-2.06,2.66-4.14,3.98-6.21
		c0.09-0.14,0.16-0.29,0.24-0.44c0.09-0.06,0.11-0.14,0.09-0.24c0.01-0.01,0.02-0.03,0.04-0.04c-0.01,0.02-0.02,0.03-0.03,0.05
		C100.12,87.74,100.06,87.8,100.01,87.86z" />
		<path class="met_st2" d="M60.6,98.57c0.24,0.21,0.53,0.18,0.76,0.29c0.38,0.18,0.73,0.38,1,0.71c0.51,0.62,0.47,0.72-0.28,0.96
		c-1.34,0.43-2.35,1.35-3.31,2.31c0.09,0.19,0.21,0.16,0.32,0.17c1.74,0.08,3.48,0.18,5.23,0.23c0.43,0.01,0.53,0.17,0.53,0.57
		c0,4.43,0.03,8.87,0.02,13.3c0,1.59,0.08,3.19-0.11,4.78c-0.28,2.31-1.38,4.13-3.24,5.5c-0.29,0.21-0.5,0.21-0.79-0.02
		c-1.7-1.35-2.77-3.14-3.58-5.1c-1.05-2.53-1.58-5.18-1.88-7.9c-0.26-2.4-0.31-4.8-0.18-7.2c0.34-6.28,1.83-12.22,5.45-17.49
		c0.5-0.73,1.09-1.38,1.65-2.06c0.24-0.29,0.45-0.25,0.71-0.05c0.61,0.48,1.02,1.1,1.28,1.82c0.59,1.67,0.73,3.4,0.71,5.15
		c0,0.26-0.15,0.35-0.33,0.46C63.01,95.93,61.81,97.24,60.6,98.57z" />
		<path class="met_st2" d="M136.16,97.67c-0.48,0.52-0.94,0.8-1.48,0.94c-0.21,0.06-0.33,0.07-0.36-0.22c-0.19-1.89-0.26-3.78-0.15-5.68
		c0.07-1.27,0.18-2.54,0.29-3.81c0.06-0.65,0.15-1.3,0.24-1.95c0.04-0.28,0.14-0.36,0.4-0.14c3.41,2.9,5.78,6.46,7.04,10.77
		c1.29,4.43,1.57,8.96,1.47,13.53c-0.08,3.71-0.54,7.36-1.71,10.9c-0.77,2.32-1.83,4.48-3.57,6.25c-0.16,0.16-0.33,0.3-0.51,0.45
		c-0.85,0.7-0.9,0.71-1.56-0.18c-0.84-1.13-1.19-2.46-1.45-3.81c-0.5-2.55-0.58-5.14-0.55-7.73c0.02-1.32,0.04-1.32,1.34-1.33
		c0.39,0,0.79-0.04,1.18-0.02c0.47,0.03,0.54-0.19,0.47-0.58c-0.19-0.95-0.53-1.85-1.12-2.61c-0.45-0.58-0.25-1.22-0.28-1.84
		c-0.01-0.2,0.22-0.24,0.36-0.32c0.98-0.57,1.7-1.4,2.37-2.3c0.21-0.28,0.15-0.46-0.07-0.67c-0.62-0.61-1.33-1.11-2.1-1.5
		c-0.41-0.2-0.5-0.46-0.48-0.88c0.09-2.23,0.16-4.46,0.23-6.69C136.16,98.11,136.16,97.97,136.16,97.67z" />
		<path class="met_st4" d="M164.71,83.84c0.97-0.17,1.86-0.57,2.75-0.96c4.83-2.11,9.04-5.11,12.61-8.99c1.63-1.77,3.07-3.69,4.33-5.75
		c0.06-0.09,0.09-0.2,0.14-0.3c1.56,0.8,3.13,1.6,4.69,2.4c0.92,0.47,1.82,0.96,2.75,1.42c0.27,0.14,0.34,0.28,0.21,0.56
		c-0.32,0.7-0.64,1.4-0.94,2.1c-0.15,0.36-0.36,0.43-0.75,0.32c-1.68-0.48-3.36-0.91-5.05-1.36c-0.07-0.02-0.14-0.03-0.31-0.05
		c0.43,0.79,1.01,1.33,1.65,1.81c0.84,0.64,1.78,1.11,2.76,1.49c0.18,0.07,0.35,0.11,0.15,0.37c-1.31,1.69-2.57,3.42-4.12,4.92
		c-0.29,0.28-0.51,0.34-0.84,0.05c-0.48-0.41-1-0.77-1.58-1.2c0.18,1.03,0.34,1.97,0.52,2.91c0.04,0.19,0.05,0.35-0.11,0.51
		c-1.45,1.39-2.91,2.77-4.61,3.87c-0.33,0.22-0.48,0.17-0.69-0.16c-1.09-1.71-2.21-3.4-3.32-5.09c-0.13-0.2-0.22-0.43-0.53-0.63
		c0.48,1.83,0.94,3.58,1.43,5.41c-0.53-0.35-0.97-0.65-1.52-1.01c0.2,1.22,0.37,2.33,0.58,3.43c0.08,0.4-0.01,0.59-0.41,0.74
		c-1.91,0.74-3.87,1.3-5.88,1.68c-0.47,0.09-0.61-0.06-0.75-0.45c-0.89-2.44-1.8-4.88-2.84-7.27
		C164.92,84.36,164.82,84.1,164.71,83.84z" />
		<path class="met_st4" d="M15.46,67.81c0.42,0.99,1.08,1.83,1.71,2.69c3.77,5.11,8.53,9.03,14.27,11.75c1.25,0.59,2.54,1.12,3.88,1.49
		c-1.16,2.72-2.19,5.49-3.2,8.27c-0.07,0.2-0.16,0.27-0.41,0.23c-2.16-0.34-4.24-0.95-6.27-1.73c-0.4-0.15-0.3-0.42-0.26-0.68
		c0.17-1.11,0.36-2.22,0.56-3.44c-0.53,0.35-0.98,0.66-1.52,1.03c0.49-1.88,0.95-3.65,1.42-5.46c-0.21,0.05-0.24,0.2-0.31,0.31
		c-1.18,1.82-2.38,3.64-3.54,5.48c-0.22,0.35-0.38,0.35-0.69,0.15c-1.67-1.09-3.14-2.43-4.58-3.81c-0.26-0.25-0.16-0.51-0.12-0.78
		c0.14-0.85,0.29-1.7,0.46-2.67c-0.61,0.46-1.14,0.84-1.64,1.25c-0.28,0.23-0.46,0.2-0.71-0.03c-1.28-1.18-2.33-2.55-3.4-3.9
		c-0.33-0.41-0.64-0.83-0.97-1.28c1.82-0.78,3.56-1.63,4.74-3.5c-1.23,0.33-2.31,0.62-3.39,0.92c-0.7,0.19-1.41,0.39-2.11,0.59
		c-0.24,0.07-0.42,0.07-0.56-0.19c-0.42-0.78-0.74-1.59-1.08-2.4c-0.14-0.34,0.15-0.33,0.3-0.41c2-1.06,4-2.12,6.01-3.17
		C14.52,68.26,14.95,67.94,15.46,67.81z" />
		<path class="met_st5" d="M157.46,155.67c1.4,0.5,2.81,0.91,4.29,1.07c0.54,0.06,1.24,0.28,1.57-0.04c0.29-0.29-0.15-0.92-0.33-1.38
		c-0.64-1.67-1.62-3.13-2.76-4.49c-2.09-2.48-4.6-4.46-7.32-6.2c-0.07-0.05-0.14-0.13-0.31-0.03c3.33,3.11,6.2,6.56,8.46,10.52
		c-1.37-0.51-2.75-0.91-4.13-1.3c-0.19-0.05-0.31-0.18-0.4-0.36c-1.64-3.25-3.99-5.93-6.59-8.43c-2.86-2.74-6.01-5.08-9.37-7.17
		c-0.69-0.43-0.69-0.41-0.26-1.07c0.65-0.99,1.31-1.97,1.94-2.97c0.21-0.33,0.36-0.38,0.7-0.16c4.01,2.64,7.96,5.38,11.78,8.3
		c3.38,2.59,6.68,5.27,9.85,8.12c2.16,1.95,4.3,3.92,6.32,6.02c1.52,1.58,3.02,3.18,4.38,4.91c0.04,0.06,0.07,0.12,0.16,0.26
		c-0.89-0.19-1.57-0.66-2.26-1.06c-1.94-1.14-3.8-2.42-5.61-3.75c-0.15-0.11-0.29-0.24-0.5-0.24c-0.02-0.02-0.04-0.04-0.06-0.05
		c0.02,0.02,0.03,0.04,0.05,0.06c0.51,0.7,1.02,1.39,1.51,2.1c0.28,0.4,0.53,0.82,0.79,1.23c0.1,0.17,0.34,0.33,0.22,0.54
		c-0.1,0.16-0.35,0.07-0.53,0.07c-2.86-0.03-5.61,0.66-8.33,1.44c-0.75,0.21-0.73,0.24-0.99-0.49c-0.59-1.64-1.33-3.22-2.04-4.82
		C157.58,156.1,157.43,155.91,157.46,155.67L157.46,155.67z" />
		<path class="met_st5" d="M32.26,157.24c-1.04,0.73-2.08,1.46-3.13,2.19c-1.43,1-2.88,1.98-4.45,2.74c-0.18,0.09-0.37,0.17-0.66,0.3
		c0.26-0.6,0.65-0.97,0.98-1.37c2.54-3.1,5.36-5.94,8.26-8.69c3.75-3.55,7.69-6.87,11.77-10.02c3.59-2.78,7.28-5.42,11.04-7.97
		c0.34-0.23,0.53-0.26,0.78,0.13c0.68,1.06,1.39,2.09,2.12,3.12c0.23,0.33,0.25,0.49-0.13,0.73c-4.02,2.5-7.71,5.42-10.95,8.86
		c-1.98,2.09-3.73,4.36-5.01,6.96c-0.14,0.29-0.32,0.48-0.64,0.56c-1.32,0.37-2.62,0.79-3.99,1.37c0.23-0.67,0.6-1.16,0.92-1.66
		c1.98-3.09,4.25-5.95,6.91-8.5c0.13-0.13,0.3-0.24,0.33-0.44c0.07-0.05,0.14-0.09,0.21-0.14c0.02-0.02,0.03-0.05,0.05-0.07
		c-0.02,0.01-0.05,0.03-0.07,0.04c-0.08,0.04-0.15,0.07-0.23,0.11c-1.32,0.73-2.5,1.66-3.64,2.63c-2.01,1.7-3.84,3.58-5.21,5.85
		c-0.61,1.01-1.13,2.07-1.44,3.22c-0.17,0.63-0.17,0.65,0.51,0.6c1.69-0.14,3.33-0.47,4.91-1.1c0.13-0.05,0.25-0.18,0.47-0.06
		c-0.34,0.78-0.68,1.56-1.01,2.34c-0.49,1.14-0.99,2.27-1.31,3.46c-0.08,0.29-0.18,0.3-0.42,0.22c-2.01-0.61-4.06-1.05-6.13-1.33
		c-0.93-0.13-1.86-0.19-2.8-0.15c-0.14,0.01-0.33,0.08-0.42-0.07c-0.09-0.15,0.07-0.27,0.14-0.4c0.64-1.13,1.38-2.18,2.18-3.21
		c0.05-0.07,0.08-0.17,0.11-0.25c0.03-0.04,0.06-0.09,0.1-0.13c0.02,0,0.03-0.01,0.05-0.01c0.01-0.01,0.01-0.02,0.01-0.03
		c-0.02,0.02-0.04,0.03-0.05,0.05C32.34,157.17,32.3,157.2,32.26,157.24z" />
		<path class="met_st6" d="M63.19,74.02c-0.68-1.01-1.5-1.91-2.27-2.85c-1.21-1.5-2.44-2.99-3.67-4.48c-0.29-0.35-0.25-0.51,0.18-0.65
		c0.94-0.3,1.86-0.69,2.83-0.94c0.29-0.07,0.46-0.01,0.64,0.19c2.39,2.67,4.84,5.27,7.14,8.03c0.34,0.4,0.32,0.61-0.14,0.95
		c-1.88,1.37-3.76,2.73-5.37,4.44c-0.19,0.21-0.32,0.15-0.51-0.01c-2.64-2.3-5.3-4.59-8.03-6.79c-0.1-0.08-0.2-0.17-0.31-0.24
		c-0.91-0.67-0.92-0.68-0.36-1.7c0.53-0.97,1.23-1.78,2.17-2.39c0.27-0.18,0.44-0.16,0.67,0.07c1.93,1.83,3.87,3.66,5.83,5.47
		c0.37,0.34,0.69,0.74,1.16,0.96c0.04,0.03,0.08,0.07,0.12,0.1c0.04,0.03,0.09,0.07,0.13,0.1c-0.01,0.1,0.02,0.18,0.11,0.22
		c0.01,0.01,0.01,0.03,0.02,0.04c0.01,0.01,0.02,0,0.03,0.01c-0.02-0.01-0.04-0.03-0.06-0.04c0.01-0.1-0.01-0.18-0.11-0.23
		c-0.04-0.04-0.07-0.08-0.11-0.12C63.26,74.1,63.23,74.06,63.19,74.02z" />
		<path class="met_st6" d="M136.72,74.5c0.15,0,0.24-0.1,0.33-0.19c1.57-1.49,3.13-2.97,4.7-4.46c0.68-0.65,1.37-1.28,2.04-1.94
		c0.23-0.23,0.45-0.24,0.7-0.07c1.16,0.78,1.98,1.82,2.5,3.11c0.1,0.26,0.05,0.41-0.16,0.57c-2.85,2.17-5.49,4.59-8.23,6.9
		c-0.29,0.24-0.49,0.65-0.86,0.7c-0.39,0.05-0.49-0.45-0.75-0.67c-1.61-1.44-3.32-2.76-5.08-4c-0.34-0.24-0.25-0.45-0.04-0.69
		c1.16-1.35,2.31-2.71,3.48-4.05c1.21-1.38,2.46-2.73,3.67-4.11c0.2-0.23,0.41-0.29,0.7-0.21c1,0.26,1.96,0.64,2.93,0.98
		c0.4,0.14,0.23,0.36,0.07,0.55c-0.83,1.04-1.68,2.07-2.51,3.1c-1.13,1.4-2.26,2.8-3.39,4.2c-0.06,0.07-0.08,0.17-0.11,0.25
		c-0.04,0.04-0.07,0.08-0.11,0.12c-0.04,0.04-0.07,0.08-0.11,0.12c-0.04,0.04-0.07,0.08-0.11,0.11c-0.01,0.01-0.02,0.03-0.02,0.04
		c0.01-0.02,0.01-0.03,0.02-0.05c0.04-0.04,0.08-0.07,0.11-0.11c0.04-0.04,0.08-0.07,0.12-0.11
		C136.64,74.57,136.68,74.53,136.72,74.5z" />
		<path class="met_st5" d="M157.47,155.67c-0.02-0.01-0.03-0.01-0.05-0.02C157.43,155.66,157.45,155.67,157.47,155.67
		C157.46,155.67,157.47,155.67,157.47,155.67z" />
		<path class="met_st1" d="M49.54,53.61c0.07,0.06,0.15,0.11,0.06,0.21c-0.05-0.05-0.1-0.09-0.15-0.14
		C49.49,53.66,49.52,53.63,49.54,53.61z" />
		<path class="met_st1" d="M42.39,67.19c-0.01-0.04-0.03-0.08-0.04-0.12c0.04,0,0.09,0.01,0.13,0.01C42.45,67.12,42.42,67.15,42.39,67.19
		z" />
		<path class="met_st1" d="M40.22,62.33c0.01,0,0.03,0,0.03,0c0.01,0.01,0.02,0.03,0.02,0.03c-0.02,0.05-0.05,0.05-0.07,0
		C40.2,62.36,40.21,62.34,40.22,62.33z" />
		<path class="met_st1" d="M150.43,53.91c-0.05,0.05-0.1,0.09-0.15,0.14c-0.09-0.1-0.01-0.16,0.06-0.21
		C150.37,53.86,150.4,53.89,150.43,53.91z" />
		<path class="met_st1" d="M159.47,62.62c0.07-0.07,0.14-0.16,0.26-0.08l-0.01-0.01c-0.05,0.06-0.1,0.12-0.14,0.19
		C159.54,62.69,159.51,62.65,159.47,62.62z" />
		<path class="met_st1" d="M159.73,62.54c0-0.03,0-0.05-0.01-0.08c0.02,0.01,0.04,0.01,0.07,0.02C159.77,62.5,159.74,62.51,159.73,62.54
		C159.72,62.53,159.73,62.54,159.73,62.54z" />
		<path class="met_st1" d="M100.17,87.67c0.02,0.1,0,0.18-0.09,0.24c-0.02-0.02-0.05-0.04-0.07-0.06
		C100.06,87.8,100.12,87.74,100.17,87.67L100.17,87.67z" />
		<path class="met_st1" d="M100.17,87.68c0.01-0.02,0.02-0.03,0.03-0.05C100.19,87.65,100.18,87.66,100.17,87.68
		C100.17,87.67,100.17,87.68,100.17,87.68z" />
		<path class="met_st1" d="M167.05,156.24c-0.02-0.02-0.03-0.04-0.05-0.06c0.02,0.02,0.04,0.04,0.06,0.05
		C167.06,156.23,167.05,156.24,167.05,156.24z" />
		<path class="met_st1" d="M46.61,145.42c-0.07,0.05-0.14,0.09-0.21,0.14c-0.01-0.02-0.03-0.04-0.05-0.05c0.08-0.04,0.15-0.07,0.23-0.11
		L46.61,145.42z" />
		<path class="met_st1" d="M46.58,145.39c0.02-0.01,0.05-0.03,0.07-0.04c-0.02,0.02-0.03,0.05-0.05,0.07
		C46.61,145.42,46.58,145.39,46.58,145.39z" />
		<path class="met_st1" d="M32.39,157.14c0.02-0.02,0.04-0.03,0.05-0.05c0,0.01,0,0.03-0.01,0.03C32.42,157.13,32.4,157.13,32.39,157.14
		C32.38,157.14,32.39,157.14,32.39,157.14z" />
		<path class="met_st1" d="M32.26,157.24c0.04-0.03,0.08-0.07,0.12-0.1c0,0,0,0,0,0c-0.03,0.04-0.06,0.09-0.1,0.13
		C32.29,157.27,32.26,157.24,32.26,157.24z" />
		<path class="met_st1"
			d="M63.52,74.48c-0.1-0.05-0.13-0.12-0.11-0.22c0,0,0,0,0,0C63.5,74.31,63.52,74.39,63.52,74.48L63.52,74.48z" />
		<path class="met_st1" d="M63.51,74.49c0.02,0.01,0.04,0.03,0.06,0.04c-0.01,0-0.03,0-0.03-0.01C63.53,74.51,63.52,74.5,63.51,74.49
		C63.52,74.48,63.51,74.49,63.51,74.49z" />
		<path class="met_st1" d="M63.29,74.14c0.04,0.04,0.07,0.08,0.11,0.12c0,0,0,0,0,0c-0.04-0.03-0.09-0.07-0.13-0.1
		C63.28,74.16,63.29,74.14,63.29,74.14z" />
		<path class="met_st1" d="M63.19,74.02c0.03,0.04,0.07,0.08,0.1,0.12c0,0-0.02,0.02-0.02,0.02c-0.04-0.03-0.08-0.07-0.12-0.1
		C63.15,74.06,63.19,74.02,63.19,74.02z" />
		<path class="met_st1" d="M136.37,74.82c-0.01,0.02-0.01,0.03-0.02,0.05C136.36,74.86,136.37,74.84,136.37,74.82
		C136.38,74.83,136.37,74.82,136.37,74.82z" />
		<path class="met_st1" d="M136.49,74.71c-0.04,0.04-0.08,0.07-0.11,0.11c0,0,0.01,0.01,0.01,0.01
		C136.41,74.79,136.45,74.75,136.49,74.71C136.49,74.71,136.49,74.71,136.49,74.71z" />
		<path class="met_st1" d="M136.6,74.6c0.04-0.04,0.07-0.08,0.11-0.12c0,0,0.02,0.02,0.02,0.02C136.68,74.53,136.64,74.57,136.6,74.6
		C136.6,74.6,136.6,74.6,136.6,74.6z" />
		<path class="met_st1" d="M136.49,74.71c0.04-0.04,0.07-0.08,0.11-0.12c0,0,0.01,0.01,0.01,0.01C136.56,74.64,136.53,74.67,136.49,74.71
		C136.49,74.71,136.49,74.71,136.49,74.71z" />
	</g>
</svg>