<?xml version="1.0" encoding="utf-8"?>
<!-- Generator: Adobe Illustrator 24.1.0, SVG Export Plug-In . SVG Version: 6.00 Build 0)  -->
<svg version="1.1" id="Layer_1" xmlns="http://www.w3.org/2000/svg" xmlns:xlink="http://www.w3.org/1999/xlink" x="0px" y="0px"
	 viewBox="0 0 200 200" style="enable-background:new 0 0 200 200;" xml:space="preserve">
<g>
	<path style="fill:#C5B172;" d="M139.34,200.617c-0.833-0.757-1.561-1.408-2.279-2.071c-4.208-3.887-8.411-7.779-12.62-11.664
		c-4.931-4.552-9.867-9.099-14.801-13.648c-4.353-4.013-8.706-8.026-13.059-12.039c-4.934-4.549-9.868-9.098-14.802-13.647
		c-4.369-4.027-8.738-8.054-13.106-12.082c-4.965-4.578-9.929-9.158-14.895-13.736c-4.306-3.969-8.614-7.936-12.919-11.906
		c-6.097-5.621-12.178-11.26-18.308-16.844c-0.72-0.656-0.986-1.272-0.985-2.228c0.026-26.966,0.02-53.933,0.022-80.899
		c0-0.978-0.119-0.864,0.84-0.864c23.883-0.002,47.767-0.003,71.65,0.008c0.644,0,1.172-0.137,1.713-0.517
		c4.634-3.255,9.768-5.349,15.288-6.551c3.565-0.776,7.174-1.101,10.804-0.866c7.481,0.484,14.225,2.98,20.118,7.67
		c0.521,0.414,1.528,0.371,2.116-0.111c1.965-1.613,4.006-3.124,6.123-4.531c1.796-1.194,3.64-2.303,5.642-3.133
		c0.831-0.345,1.624-0.449,2.531-0.207c5.942,1.584,11.263,4.282,15.73,8.568c0.504,0.483,0.788,1.032,0.885,1.715
		c0.481,3.389,0.595,6.787,0.423,10.207c-0.117,2.324-0.307,4.639-0.575,6.947c-0.468,4.038-1.463,7.951-2.866,11.766
		c-1.179,3.206-2.523,6.339-4.072,9.382c-0.223,0.439-0.115,0.605,0.234,0.845c2.848,1.963,5.267,4.348,7.075,7.315
		c1.804,2.963,2.926,6.141,2.993,9.648c0.007,0.387-0.117,0.597-0.459,0.806c-1.475,0.903-3.106,1.261-4.786,1.469
		c-0.89,0.11-1.785,0.184-2.682,0.127c-0.403-0.026-0.533,0.171-0.671,0.502c-0.81,1.941-1.068,4.03-1.643,6.034
		c-0.129,0.448,0.008,0.694,0.561,0.721c2.322,0.112,4.641,0.308,6.88,0.98c1.456,0.438,2.916,0.95,3.763,2.353
		c0.474,0.785,0.693,1.693,0.973,2.564c1.173,3.64,1.822,7.393,2.397,11.163c0.065,0.428-0.145,0.794-0.257,1.175
		c-0.753,2.566-1.142,5.19-1.41,7.845c-0.355,3.509-0.294,7.022-0.216,10.536c0.019,0.85,0.181,1.697,0.194,2.547
		c0.016,1.055-0.606,1.846-1.283,2.565c-1.376,1.459-3.051,2.537-4.749,3.568c-1.751,1.063-3.558,2.028-5.408,2.909
		c-0.212,0.101-0.398,0.217-0.654,0.077c-2.355-1.294-4.941-1.979-7.479-2.777c-2.702-0.849-5.434-1.601-8.148-2.41
		c-0.456-0.136-0.687-0.085-0.587,0.451c0.004,0.021,0.002,0.043,0,0.064c-0.179,2.099,0.143,4.104,1.007,6.039
		c0.893,2,0.419,3.874-0.719,5.633c-0.222,0.342-0.293,0.684-0.293,1.081c0.006,11.762-0.014,23.524,0.03,35.285
		c0.005,1.41-0.575,2.43-1.504,3.318c-1.145,1.095-2.568,1.563-4.144,1.61c-0.362,0.011-0.555-0.113-0.656-0.451
		c-0.06-0.203-0.202-0.386-0.245-0.59c-0.225-1.086-0.863-1.379-1.954-1.319c-1.897,0.106-3.804,0.042-5.707,0.02
		c-0.443-0.005-0.596,0.108-0.568,0.572c0.216,3.602,0.411,7.204,0.611,10.807c0.09,1.62,0.179,3.24,0.264,4.861
		c0.216,4.095,0.43,8.189,0.642,12.284C139.353,199.856,139.34,200.154,139.34,200.617z"/>
	<path style="fill:#06152F;" d="M62.878,126.515c-1.302-1.008-2.433-2.206-3.664-3.293c-0.201-0.177-0.152-0.43-0.166-0.662
		c-0.056-0.938-0.136-1.876-0.165-2.815c-0.016-0.519-0.217-0.765-0.732-0.924c-2.799-0.864-5.293-2.272-7.375-4.354
		c-3.235-3.234-4.909-7.232-5.672-11.673c-0.059-0.341,0.064-0.408,0.364-0.387c0.644,0.045,1.277-0.083,1.915-0.135
		c0.364-0.03,0.494-0.169,0.531-0.547c0.258-2.591,0.849-5.091,2.142-7.385c0.676-1.2,1.494-2.287,2.482-3.248
		c0.274-0.267,0.376-0.312,0.508,0.135c0.775,2.637,1.775,5.164,3.592,7.298c0.367,0.431,0.563,0.448,0.873-0.013
		c0.237-0.353,0.603-0.628,0.802-0.996c0.321-0.596,0.637-0.456,1.088-0.165c2.902,1.875,5.29,4.247,7.064,7.221
		c0.18,0.302,0.283,0.493,0.63,0.139c3.603-3.666,8.073-5.981,12.676-8.079c1.068-0.487,2.157-0.929,3.253-1.348
		c0.423-0.162,0.726-0.406,0.986-0.763c1.816-2.487,2.738-5.34,3.366-8.301c0.753-3.544,1.077-7.134,1.048-10.758
		c-0.003-0.412-0.051-0.581-0.523-0.435c-0.61,0.188-1.257,0.258-1.867,0.448c-0.55,0.171-0.656,0.057-0.524-0.497
		c0.568-2.394,1.336-4.721,2.311-6.977c1.298-3.005,2.818-5.891,4.724-8.563c0.164-0.23,0.413-0.426-0.001-0.713
		c-2.836-1.969-4.599-4.788-6.016-7.837c-2.081-4.479-3.168-9.205-3.08-14.151c0.156-8.739,3.478-16.144,9.682-22.253
		c4.578-4.508,10.083-7.408,16.248-9.11c3.815-1.053,7.699-1.57,11.655-1.391c7.431,0.336,14.06,2.799,19.775,7.606
		c0.554,0.466,1.065,0.991,1.549,1.531c0.299,0.333,0.473,0.394,0.854,0.069c2.978-2.538,6.042-4.967,9.337-7.088
		c1.312-0.844,2.658-1.624,4.08-2.274c0.471-0.215,0.904-0.259,1.414-0.12c5.022,1.377,9.556,3.657,13.444,7.162
		c0.43,0.388,0.673,0.797,0.75,1.406c0.452,3.581,0.417,7.167,0.172,10.753c-0.222,3.261-0.557,6.515-1.307,9.702
		c-1.296,5.517-3.494,10.696-6.022,15.745c-0.334,0.668-0.68,1.332-1.056,1.977c-0.207,0.355-0.171,0.524,0.206,0.736
		c2.398,1.352,4.58,2.987,6.419,5.052c2.25,2.525,3.772,5.422,4.439,8.75c0.19,0.948,0.177,0.993-0.757,1.207
		c-1.954,0.448-3.939,0.503-5.927,0.331c-0.441-0.038-0.616,0.064-0.788,0.471c-1.214,2.864-1.895,5.883-2.6,8.893
		c-0.182,0.779,0.184,1.551,0.304,2.323c0.227,1.459,0.257,1.436,1.734,1.479c2.5,0.073,4.985,0.254,7.43,0.866
		c1.45,0.363,2.321,1.099,2.78,2.609c1.017,3.34,1.7,6.739,2.244,10.176c0.058,0.364,0.017,0.707-0.086,1.067
		c-1.073,3.759-1.526,7.614-1.692,11.506c-0.133,3.117-0.1,6.236,0.137,9.348c0.044,0.578-0.134,0.977-0.525,1.357
		c-1.408,1.368-3.065,2.387-4.746,3.365c-1.014,0.59-2.06,1.127-3.091,1.689c-0.225,0.122-0.423,0.217-0.711,0.1
		c-4.279-1.741-8.728-2.96-13.157-4.236c-2.644-0.762-5.308-1.455-7.958-2.199c-0.454-0.127-0.596-0.156-0.552,0.439
		c0.22,2.958,1.489,5.591,2.469,8.316c0.448,1.245,0.874,2.499,1.339,3.738c0.217,0.578,0.206,1.133-0.059,1.67
		c-1.431,2.897-3.59,5.075-6.516,6.453c-1.223,0.576-2.522,0.328-3.784,0.116c-4.503-0.754-8.812-2.205-13.093-3.741
		c-0.523-0.187-1.022-0.213-1.561-0.179c-4.899,0.316-9.372-1.041-13.56-3.494c-0.258-0.151-0.51-0.313-0.763-0.471
		c-0.891-0.555-0.921-0.59-0.271-1.441c1.051-1.376,2.519-2.225,4.006-3.031c0.543-0.294,1.116-0.535,1.682-0.785
		c0.21-0.093,0.388-0.179,0.354-0.453c-0.325-2.614,0.329-5.141,0.678-7.695c0.006-0.041-0.005-0.084-0.008-0.133
		c-0.194-0.085-0.237,0.114-0.345,0.186c-0.035,0.023-0.063,0.058-0.09,0.091c-2.417,3.015-5.669,4.794-9.158,6.244
		c-2.048,0.851-4.083,1.736-6.159,2.521c-0.273,0.103-0.461,0.213-0.548,0.54c-1.846,6.897-5.615,12.726-10.122,18.139
		c-1.547,1.858-3.205,3.614-4.906,5.331c-0.334,0.337-0.537,0.405-0.916,0.05c-2.681-2.514-5.383-5.007-8.08-7.505
		c-0.752-0.696-1.51-1.386-2.265-2.079c-0.032-0.484,0.26-0.853,0.472-1.237c1.741-3.155,3.116-6.469,4.329-9.855
		c1.672-4.664,2.883-9.444,3.622-14.344c0.019-0.127,0.03-0.256,0.074-0.377c0.101-0.274,0.243-0.264,0.402-0.049
		c0.117,0.157,0.173,0.343,0.218,0.531c0.735,3.053,1.055,6.152,0.928,9.286c-0.042,1.042-0.135,2.088-0.27,3.127
		c-0.077,0.592-0.029,0.632,0.503,0.438c4.387-1.597,8.634-3.503,12.747-5.714c1.997-1.074,3.956-2.211,5.882-3.406
		c0.289-0.179,0.572-0.365,0.985-0.643c-1.198-0.034-2.252-0.003-3.301-0.126c-1.187-0.139-2.378-0.257-3.566-0.397
		c-0.449-0.053-0.683-0.292-0.8-0.706c-0.719-2.555-1.318-5.127-1.495-7.792c-0.08-1.201-0.134-2.387,0.044-3.576
		c0.043-0.289,0.02-0.708,0.328-0.773c0.361-0.075,0.421,0.361,0.532,0.618c0.958,2.203,2.159,4.271,3.439,6.298
		c0.318,0.504,0.726,0.812,1.305,0.942c2.278,0.509,4.58,0.846,6.905,1.047c4.608,0.399,9.226,0.241,13.841,0.257
		c1.342,0.005,1.31-0.003,1.349-1.343c0.073-2.46-0.614-4.727-1.646-6.921c-0.117-0.249-0.434-0.571-0.153-0.795
		c0.257-0.205,0.544,0.128,0.783,0.286c2.732,1.802,4.941,4.14,6.85,6.771c1.934,2.665,3.429,5.564,4.535,8.667
		c0.19,0.534,0.163,0.928-0.258,1.382c-1.193,1.285-1.574,2.9-1.691,4.6c-0.021,0.3,0.129,0.753-0.247,0.836
		c-0.341,0.075-0.479-0.363-0.633-0.633c-0.801-1.405-1.107-2.95-1.258-4.536c-0.012-0.127,0.001-0.257-0.017-0.384
		c-0.006-0.044-0.026-0.081-0.089-0.146c-0.273,0.027-0.449,0.252-0.642,0.43c-1.115,1.027-1.771,2.341-2.319,3.724
		c-0.106,0.267-0.124,0.694-0.462,0.704c-0.4,0.011-0.397-0.443-0.498-0.727c-0.607-1.705-0.708-3.47-0.537-5.252
		c0.046-0.483-0.074-0.586-0.51-0.43c-0.887,0.318-1.814,0.496-2.72,0.749c-0.369,0.103-0.464,0.253-0.255,0.582
		c0.127,0.199,0.217,0.418,0.296,0.639c0.266,0.743,0.153,1.065-0.485,1.526c-1.868,1.353-3.297,3.093-4.423,5.09
		c-0.352,0.624-0.305,0.718,0.314,1.036c1.123,0.578,2.336,0.863,3.577,0.929c1.621,0.086,3.252,0.108,4.852-0.257
		c0.607-0.138,1.118-0.043,1.623,0.337c1.633,1.23,3.528,1.905,5.46,2.479c2.847,0.846,5.782,1.124,8.73,1.308
		c0.336,0.021,0.625-0.067,0.886-0.292c1.737-1.497,3.023-3.3,3.755-5.485c0.136-0.405,0.146-0.786-0.075-1.172
		c-1.775-3.101-2.681-6.51-3.502-9.948c-0.721-3.019-1.193-6.084-1.647-9.15c-0.073-0.493-0.269-0.548-0.68-0.432
		c-0.452,0.128-0.913,0.239-1.385,0.257c-0.601,0.023-0.745-0.149-0.573-0.725c0.393-1.313,0.758-2.633,0.884-4.002
		c0.142-1.54,0.109-3.073-0.285-4.584c-0.158-0.606-0.476-0.972-1.091-1.207c-3.638-1.389-7.382-2.332-11.263-2.648
		c-4.255-0.346-8.45,0.015-12.54,1.318c-0.352,0.112-0.828,0.459-1.068,0.134c-0.273-0.371,0.221-0.714,0.452-1.016
		c1.624-2.126,3.771-3.641,5.996-5.056c2.387-1.518,4.913-2.773,7.486-3.938c0.578-0.261,0.58-0.271,0.197-0.804
		c-1.502-2.09-2.682-4.342-3.125-6.896c-0.712-4.108,0.676-7.475,3.785-10.182c0.064-0.056,0.13-0.112,0.202-0.157
		c0.178-0.111,0.37-0.295,0.575-0.137c0.171,0.132,0.085,0.364,0.033,0.542c-0.259,0.886-0.423,1.79-0.522,2.705
		c-0.316,2.915,0.437,5.483,2.404,7.704c1.209,1.365,2.667,2.39,4.176,3.366c3.784,2.448,6.624,5.752,8.815,9.66
		c0.774,1.381,1.4,2.838,2.218,4.195c0.588,0.976,1.224,1.907,2.148,2.605c2.096,1.583,4.305,1.37,6.554,0.406
		c0.506-0.217,1.018-0.443,1.438-0.954c-0.371,0.055-0.681,0.072-0.992,0.087c-0.815,0.04-1.539-0.197-2.253-0.601
		c-1.454-0.822-2.487-1.969-3.147-3.507c-0.48-1.118-1.08-2.185-1.621-3.277c-0.229-0.462-0.5-0.896-0.795-1.317
		c-0.722-1.032-1.677-1.609-2.971-1.596c-0.823,0.008-1.006-0.224-0.812-1.022c0.28-1.152,0.685-2.249,1.559-3.111
		c1.255-1.238,2.734-1.263,4.042-0.061c1.169,1.075,1.965,2.414,2.692,3.802c0.506,0.966,0.913,1.981,1.428,2.943
		c0.823,1.535,1.987,2.613,3.807,2.792c0.171,0.017,0.342,0.031,0.511-0.011c0.314-0.079,0.549-0.25,0.59-0.594
		c0.038-0.318-0.187-0.446-0.432-0.559c-0.66-0.305-1.327-0.595-1.86-1.115c-0.798-0.777-1.229-1.694-1.045-2.823
		c0.114-0.697,0.322-0.764,0.872-0.312c1.337,1.098,2.793,1.967,4.491,2.39c1.047,0.26,2.098,0.377,3.177,0.232
		c0.486-0.066,0.673-0.247,0.552-0.757c-0.57-2.398-0.849-4.841-1.055-7.29c-0.075-0.891-0.129-1.788-0.182-2.683
		c-0.137-2.328-0.109-4.657-0.12-6.985c-0.007-1.369,0.182-2.729,0.152-4.1c-0.008-0.364-0.044-0.897,0.356-1.017
		c0.397-0.12,0.619,0.367,0.886,0.635c0.176,0.176,0.225,0.579,0.482,0.532c0.282-0.052,0.277-0.442,0.356-0.698
		c0.226-0.74,0.305-1.505,0.376-2.273c0.033-0.358-0.083-0.457-0.427-0.413c-0.937,0.12-1.879,0.081-2.818,0.035
		c-0.534-0.026-0.618-0.216-0.287-0.632c1.12-1.405,1.207-3.032,0.965-4.695c-0.345-2.371-1.538-4.374-2.898-6.29
		c-0.192-0.271-0.489-0.495-0.461-0.884c0.901-1.543,1.419-3.249,2.046-4.904c1.795-4.739,3.438-9.53,4.703-14.443
		c0.721-2.8,1.154-5.648,1.456-8.522c0.277-2.637,0.359-5.279,0.39-7.929c0.015-1.33-0.611-2.286-1.483-3.14
		c-1.105-1.083-2.482-1.734-3.909-2.272c-1.705-0.642-3.462-1.096-5.27-1.344c-0.342-0.047-0.622,0-0.878,0.252
		c-0.292,0.288-0.661,0.471-1.029,0.642c-1.3,0.605-2.391,1.484-3.355,2.534c-0.22,0.239-0.398,0.502-0.519,0.803
		c-0.148,0.369-0.001,0.485,0.355,0.388c0.724-0.198,1.403-0.518,2.1-0.788c0.579-0.225,1.159-0.448,1.778-0.531
		c0.927-0.124,1.372,0.27,1.385,1.202c0.013,0.98,0.013,0.97,1.008,0.909c0.797-0.049,1.584,0.009,2.31,0.384
		c0.225,0.116,0.506,0.257,0.482,0.545c-0.025,0.306-0.344,0.343-0.586,0.412c-1.032,0.295-2.023,0.69-2.951,1.232
		c-0.899,0.525-1.469,1.283-1.616,2.337c-0.099,0.705-0.039,0.791,0.66,0.775c1.137-0.025,2.269-0.017,3.333,0.47
		c0.058,0.027,0.12,0.045,0.177,0.075c0.204,0.107,0.493,0.184,0.455,0.465c-0.034,0.251-0.324,0.246-0.522,0.282
		c-1.183,0.212-2.317,0.57-3.437,1.012c-1.12,0.442-1.792,1.14-1.876,2.394c-0.056,0.828-0.209,1.652-0.319,2.478
		c-0.067,0.502,0.103,0.647,0.573,0.653c1.177,0.015,2.348,0.109,3.495,0.396c0.731,0.183,1.425,0.458,2.041,0.902
		c0.221,0.16,0.546,0.346,0.423,0.642c-0.118,0.284-0.486,0.213-0.756,0.181c-1.279-0.153-2.555-0.174-3.831,0.029
		c-0.233,0.037-0.461,0.093-0.68,0.182c-0.83,0.336-1.048,0.731-0.831,1.599c0.456,1.828,0.758,3.685,1.043,5.544
		c0.087,0.565,0.296,0.929,0.878,1.106c0.895,0.271,1.617,0.858,2.338,1.431c0.151,0.12,0.284,0.261,0.379,0.431
		c0.18,0.32,0.113,0.537-0.275,0.584c-0.468,0.057-0.94,0.016-1.409,0.029c-1.265,0.034-1.323,0.104-1.13,1.323
		c0.263,1.653,0.251,3.32,0.243,4.987c-0.003,0.725-0.046,1.453,0.087,2.175c0.042,0.229,0.041,0.476-0.204,0.627
		c-0.227,0.062-0.42-0.043-0.609-0.139c-2.872-1.463-5.991-2.123-9.103-2.805c-0.305-0.067-0.777-0.016-0.823-0.351
		c-0.052-0.382,0.434-0.46,0.725-0.596c1.133-0.527,2.324-0.871,3.575-0.939c0.48-0.026,0.611-0.227,0.618-0.675
		c0.092-6.327-1.234-12.301-4.345-17.851c-1.969-3.513-4.342-6.72-7.284-9.466c-4.914-4.585-10.642-7.537-17.375-8.389
		c-4.809-0.609-9.504-0.046-14.118,1.343c-3.561,1.071-6.813,2.741-9.705,5.091c-4.035,3.279-6.852,7.414-8.606,12.29
		c-0.123,0.342-0.261,0.678-0.385,1.018c-0.083,0.144-0.102,0.322-0.224,0.447c0.135-0.073,0.111-0.241,0.197-0.344
		c1.03-2.329,2.547-4.295,4.49-5.924c0.431-0.361,0.74-0.745,0.887-1.284c0.18-0.66,0.354-1.322,0.574-1.97
		c0.06-0.176,0.104-0.414,0.333-0.424c0.213-0.009,0.307,0.201,0.412,0.363c0.604,0.937,0.603,0.933,1.583,0.458
		c0.578-0.28,1.175-0.523,1.795-0.688c0.544-0.146,0.817-0.471,0.927-1.013c0.14-0.691,0.327-1.373,0.511-2.054
		c0.044-0.161,0.077-0.378,0.265-0.403c0.22-0.029,0.336,0.171,0.408,0.35c0.233,0.575,0.556,1.11,0.766,1.695
		c0.141,0.394,0.382,0.501,0.795,0.42c1.049-0.207,2.112-0.332,3.182-0.324c0.567,0.004,0.782-0.338,0.963-0.776
		c0.465-1.12,1.144-2.098,1.997-2.957c0.121-0.121,0.25-0.235,0.385-0.339c0.217-0.169,0.454-0.432,0.732-0.279
		c0.326,0.179,0.104,0.5,0.037,0.748c-0.245,0.91-0.224,1.816-0.031,2.73c0.082,0.389,0.283,0.578,0.686,0.63
		c1.187,0.155,2.374,0.325,3.528,0.657c0.463,0.133,0.775-0.069,1.076-0.38c1.131-1.169,2.318-2.277,3.642-3.229
		c0.278-0.2,0.55-0.415,0.882-0.516c0.382-0.115,0.53,0.037,0.421,0.426c-0.07,0.247-0.216,0.465-0.308,0.705
		c-0.471,1.221-0.773,2.489-1.066,3.761c-0.107,0.467-0.016,0.758,0.503,0.907c0.991,0.284,1.914,0.747,2.801,1.263
		c0.464,0.27,0.808,0.236,1.214-0.09c1.132-0.911,2.397-1.569,3.835-1.844c0.922-0.176,1.851-0.329,2.794-0.145
		c0.217,0.042,0.537-0.037,0.582,0.264c0.038,0.254-0.223,0.395-0.417,0.522c-0.844,0.553-1.617,1.189-2.315,1.92
		c-0.642,0.673-1.136,1.439-1.528,2.28c-0.187,0.401-0.137,0.718,0.165,1.048c0.808,0.883,1.616,1.77,2.33,2.73
		c0.35,0.47,0.695,0.566,1.257,0.378c1.876-0.627,3.8-0.997,5.794-0.931c0.777,0.026,1.53,0.146,2.267,0.381
		c0.238,0.076,0.569,0.111,0.568,0.424c-0.001,0.334-0.352,0.329-0.585,0.381c-1.458,0.32-2.807,0.899-4.065,1.692
		c-0.852,0.537-1.636,1.164-2.35,1.878c-0.234,0.234-0.35,0.457-0.153,0.788c0.883,1.485,1.384,3.122,1.846,4.77
		c0.233,0.831,0.219,0.822,1.107,0.673c2.55-0.429,5.097-0.553,7.628,0.142c0.643,0.176,1.259,0.418,1.829,0.764
		c0.211,0.128,0.527,0.249,0.464,0.542c-0.058,0.269-0.384,0.224-0.605,0.242c-1.535,0.126-3.061,0.302-4.569,0.627
		c-1.499,0.323-2.927,0.809-4.165,1.745c-0.631,0.477-1.081,1.089-1.254,1.88c-0.137,0.629-0.035,0.778,0.615,0.779
		c1.269,0.001,2.514,0.161,3.741,0.483c0.397,0.104,0.767,0.266,1.117,0.475c0.126,0.075,0.29,0.161,0.255,0.331
		c-0.032,0.156-0.204,0.205-0.347,0.254c-0.226,0.077-0.463,0.07-0.698,0.084c-5.619,0.329-10.852,1.835-15.508,5.096
		c-0.421,0.295-0.817,0.622-1.202,0.961c-0.41,0.361-0.414,0.47,0.042,0.755c1.233,0.769,2.586,1.217,4.016,1.439
		c2.743,0.426,5.357-0.134,7.921-1.053c0.235-0.084,0.462-0.193,0.593-0.201c-1.45,0.204-2.98-0.023-4.491-0.446
		c-0.725-0.203-1.414-0.489-2.034-0.924c-0.174-0.123-0.382-0.246-0.343-0.495c0.039-0.251,0.276-0.308,0.482-0.362
		c2.672-0.691,5.357-1.29,8.117-1.532c1.907-0.168,3.798-0.174,5.681,0.169c1.624,0.296,3.148,0.826,4.335,2.043
		c0.672,0.689,0.936,1.623,1.378,2.448c1.478,2.752,3.387,5.131,5.902,7.004c0.949,0.707,2.007,1.221,3.079,1.708
		c0.167,0.076,0.406,0.134,0.382,0.367c-0.02,0.195-0.247,0.24-0.405,0.253c-2.443,0.192-4.895,0.406-6.973-1.319
		c-0.659-0.547-1.197-1.225-1.842-1.784c-1.184-1.027-2.488-1.818-4.133-1.803c-0.314,0.003-0.633,0.014-0.964,0.285
		c0.991,0.419,1.827,0.941,2.544,1.666c1.12,1.131,1.79,2.492,2.18,4.006c0.37,1.439,0.942,2.748,2.154,3.693
		c0.668,0.521,0.747,0.513,1.127-0.217c0.279-0.536,0.591-1.047,1.091-1.406c0.48-0.345,0.792-0.216,0.781,0.374
		c-0.074,3.873,1.075,7.511,2.108,11.172c0.139,0.493,0.36,0.962,0.467,1.466c0.035,0.166,0.098,0.352-0.06,0.479
		c-0.156,0.125-0.328,0.041-0.482-0.035c-0.231-0.114-0.434-0.272-0.635-0.433c-3.05-2.437-5.31-5.48-6.908-9.026
		c-0.164-0.363-0.344-0.614-0.79-0.61c-1.871,0.017-3.585-0.498-5.132-1.586c0.133,1.701,0.873,3.11,1.891,4.403
		c0.16,0.203,0.488,0.424,0.269,0.709c-0.204,0.265-0.527,0.059-0.77-0.038c-2.344-0.937-4.141-2.533-5.486-4.646
		c-1.243-1.954-2.033-4.089-2.45-6.365c-0.126-0.687-0.137-0.713-0.836-0.548c-1.382,0.326-2.798,0.482-4.197,0.465
		c-2.525-0.029-5.031-0.336-7.427-1.222c-0.197-0.073-0.479-0.128-0.484-0.359c-0.006-0.296,0.316-0.302,0.527-0.363
		c0.57-0.165,1.133-0.342,1.723-0.649c-3.084-0.743-5.803-2.185-8.542-3.573c-0.407-0.206-0.726-0.237-1.118,0.041
		c-2.396,1.699-4.649,3.567-6.649,5.721c-3.392,3.653-6.062,7.779-8.039,12.358c-2.024,4.688-3.302,9.573-3.899,14.637
		c-0.195,1.654-0.34,3.315-0.288,4.986c0.008,0.256,0.02,0.515-0.017,0.769c-0.069,0.468-0.289,0.579-0.715,0.352
		c-0.384-0.205-0.674-0.518-0.946-0.853c-1.368-1.689-2.383-3.593-3.401-5.614c-0.209,0.94-0.414,1.795-0.696,2.63
		c-1.02,3.022-2.642,5.685-4.723,8.089c-2.872,3.318-6.281,5.968-10.048,8.183c-0.166,0.098-0.332,0.198-0.51,0.27
		c-0.246,0.1-0.537,0.375-0.755,0.123c-0.185-0.213,0.107-0.46,0.228-0.675c0.084-0.149,0.194-0.281,0.295-0.42
		c0.93-1.28,1.816-2.591,2.733-3.88c0.108-0.152,0.256-0.29,0.271-0.555c-1.198,0.625-2.348,1.265-3.463,1.967
		c-3.388,2.133-6.38,4.736-9.114,7.648c-0.322,0.343-0.591,0.732-0.917,1.072c-0.115,0.12-0.221,0.308-0.412,0.246
		c-0.223-0.072-0.196-0.306-0.209-0.492c-0.017-0.237,0.039-0.467,0.081-0.699c0.231-1.266,0.631-2.486,1.013-3.711
		c0.142-0.457,0.121-0.873-0.047-1.31c-0.768-2.001-2.188-3.386-4.074-4.329c-0.177-0.088-0.401-0.264-0.588-0.076
		c-0.143,0.144-0.043,0.37-0.002,0.554c0.18,0.804,0.553,1.524,0.989,2.215c0.068,0.108,0.137,0.218,0.195,0.332
		c0.094,0.185,0.282,0.39,0.121,0.584c-0.187,0.226-0.44,0.081-0.646-0.021c-1.541-0.759-2.813-1.855-3.914-3.159
		c-1.684-1.996-2.915-4.262-3.98-6.79c-0.419,0.954-0.627,1.842-0.748,2.757c-0.267,2.016,0.074,3.956,0.727,5.857
		c0.049,0.142,0.108,0.279,0.154,0.422c0.206,0.637,0.022,0.89-0.659,0.844c-0.597-0.04-1.185-0.164-1.765-0.318
		c-0.164-0.044-0.326-0.106-0.568-0.093c0.07,0.366,0.271,0.663,0.431,0.968c2.094,4,5.067,7.063,9.339,8.735
		c0.619,0.242,1.256,0.421,1.91,0.538c0.823,0.147,0.928,0.239,1.056,1.04c0.389,2.448,0.783,4.896,0.792,7.385
		c0.001,0.28,0.086,0.55,0.1,0.827C63.055,125.92,63.154,126.254,62.878,126.515z"/>
	<path style="fill:#FEFEFE;" d="M62.878,126.515c-0.075-3.1-0.39-6.176-0.902-9.233c-0.065-0.386-0.19-0.611-0.678-0.714
		c-4.534-0.953-7.889-3.601-10.425-7.388c-0.697-1.04-1.258-2.155-1.818-3.353c0.781,0.167,1.501,0.342,2.229,0.471
		c1.192,0.213,1.204,0.197,0.823-0.922c-0.88-2.582-1.185-5.19-0.362-7.848c0.13-0.42,0.252-0.852,0.529-1.213
		c1.91,4.229,4.018,8.26,8.505,10.333c-0.441-0.871-0.995-1.67-1.313-2.593c-0.134-0.387-0.217-0.784-0.225-1.191
		c-0.005-0.248,0.063-0.397,0.385-0.257c2.319,1.017,4.052,2.58,4.829,5.066c0.095,0.302,0.083,0.566-0.017,0.865
		c-0.447,1.334-0.856,2.679-1.091,4.07c-0.046,0.271-0.057,0.548-0.104,1.018c4.083-4.86,8.822-8.612,14.333-11.375
		c0.051,0.039,0.102,0.077,0.153,0.116c-1.342,1.916-2.685,3.832-4.056,5.789c0.471-0.016,0.777-0.307,1.111-0.502
		c4.647-2.703,8.752-6.029,11.875-10.462c1.79-2.54,3.06-5.308,3.598-8.389c0.021-0.121,0.075-0.237,0.137-0.43
		c0.708,1.417,1.39,2.766,2.201,4.043c0.63,0.992,1.264,1.985,2.202,2.728c0.13,0.103,0.264,0.276,0.44,0.204
		c0.209-0.086,0.081-0.301,0.082-0.456c0.08-9.304,2.332-18.016,7.16-26.005c3.083-5.101,7.133-9.305,12.045-12.68
		c0.295-0.203,0.513-0.219,0.846-0.041c2.634,1.405,5.285,2.777,8.194,3.552c0.284,0.076,0.601,0.044,0.879,0.255
		c-0.79,0.572-1.718,0.745-2.688,1.044c1.611,0.632,3.214,0.998,4.853,1.218c2.606,0.35,5.194,0.26,7.754-0.362
		c0.399-0.097,0.451,0.071,0.503,0.399c0.471,2.957,1.513,5.676,3.429,8.015c1.357,1.657,3.049,2.832,5.161,3.458
		c-1.301-1.592-2.253-3.327-2.391-5.435c1.71,1.204,3.585,1.876,5.697,1.73c0.377-0.026,0.409,0.243,0.503,0.463
		c1.584,3.678,3.894,6.804,7.055,9.281c0.27,0.211,0.518,0.486,0.967,0.555c-0.524-1.661-1.039-3.255-1.454-4.878
		c-0.704-2.753-1.392-5.507-1.257-8.386c0.005-0.114,0.078-0.267-0.087-0.332c-0.142-0.056-0.239,0.056-0.338,0.131
		c-0.634,0.478-1.064,1.125-1.327,1.849c-0.195,0.535-0.396,0.444-0.76,0.204c-1.437-0.95-2.214-2.315-2.616-3.955
		c-0.537-2.191-1.585-4.049-3.618-5.202c-0.437-0.248-0.915-0.422-1.432-0.656c0.944-0.644,1.902-0.575,2.858-0.273
		c1.374,0.434,2.586,1.191,3.487,2.298c1.744,2.145,4.021,2.736,6.633,2.538c0.593-0.045,1.193-0.017,1.886-0.199
		c-0.956-0.405-1.829-0.771-2.638-1.269c-3.193-1.964-5.614-4.707-7.083-8.074c-1.314-3.012-3.668-3.889-6.513-4.217
		c-3.727-0.43-7.36,0.225-10.968,1.074c-0.746,0.176-1.486,0.374-2.254,0.568c1.054,1.185,3.343,1.753,7.345,1.824
		c-0.301,0.145-0.485,0.248-0.679,0.324c-3.101,1.225-6.271,1.787-9.575,0.956c-1.083-0.272-2.084-0.742-3.039-1.323
		c-0.423-0.258-0.466-0.414-0.068-0.761c1.853-1.616,3.944-2.841,6.191-3.804c3.588-1.539,7.355-2.297,11.242-2.511
		c0.204-0.011,0.415,0.018,0.635-0.127c-0.954-0.635-2.025-0.805-3.095-0.966c-0.783-0.118-1.573-0.173-2.364-0.142
		c-0.449,0.017-0.553-0.178-0.513-0.576c0.124-1.238,0.855-2.066,1.842-2.702c1.805-1.163,3.863-1.543,5.939-1.832
		c0.993-0.138,1.996-0.2,3.046-0.301c-0.423-0.464-0.973-0.672-1.509-0.881c-2.446-0.956-4.972-0.898-7.516-0.56
		c-0.465,0.062-0.941,0.107-1.385,0.246c-0.451,0.142-0.544-0.054-0.636-0.424c-0.397-1.595-0.905-3.153-1.635-4.632
		c-0.019-0.038-0.043-0.074-0.062-0.112c-0.539-1.056-0.544-1.061,0.345-1.868c1.903-1.729,4.093-2.895,6.75-3.341
		c-0.53-0.436-1.099-0.5-1.641-0.59c-2.467-0.409-4.843,0.071-7.17,0.838c-0.532,0.175-0.816,0.13-1.154-0.33
		c-0.797-1.085-1.68-2.106-2.654-3.038c-0.289-0.276-0.195-0.523-0.089-0.804c0.695-1.834,2.033-3.126,3.575-4.246
		c0.292-0.212,0.588-0.42,0.881-0.632c0.008-0.006-0.003-0.038-0.009-0.095c-2.698-0.388-5.093,0.324-7.19,2.04
		c-0.373,0.305-0.626,0.341-1.041,0.096c-1.066-0.63-2.186-1.165-3.383-1.498c-0.368-0.102-0.336-0.253-0.278-0.546
		c0.353-1.794,0.777-3.563,1.668-5.302c-0.49,0.088-0.779,0.335-1.081,0.546c-1.476,1.036-2.789,2.258-4.01,3.578
		c-0.248,0.268-0.473,0.343-0.83,0.246c-1.319-0.358-2.651-0.66-4.024-0.708c-0.273-0.009-0.352-0.137-0.417-0.375
		c-0.339-1.226-0.375-2.439,0.089-3.644c0.028-0.072,0.039-0.15,0.08-0.316c-0.859,0.435-1.433,1.051-1.944,1.731
		c-0.541,0.72-0.969,1.508-1.281,2.351c-0.124,0.335-0.306,0.45-0.653,0.461c-1.26,0.039-2.518,0.14-3.749,0.409
		c-0.359,0.079-0.452-0.073-0.563-0.318c-0.347-0.773-0.697-1.545-1.112-2.465c-0.275,1.112-0.516,2.062-0.742,3.016
		c-0.075,0.315-0.215,0.496-0.554,0.598c-1.06,0.32-2.117,0.667-3.037,1.314c-0.23,0.162-0.302,0.09-0.409-0.133
		c-0.218-0.456-0.475-0.893-0.78-1.456c-0.309,1.045-0.578,1.969-0.857,2.89c-0.066,0.217-0.086,0.449-0.304,0.608
		c-2.265,1.652-3.803,3.891-5.087,6.332c-0.113,0.024-0.181,0.006-0.123-0.131c0.834-3.084,2.277-5.874,4.155-8.436
		c4.082-5.57,9.577-9.01,16.232-10.691c3.102-0.783,6.245-1.209,9.444-1.13c6.496,0.16,12.37,2.196,17.527,6.127
		c6.655,5.073,11.217,11.635,13.506,19.714c0.985,3.475,1.324,7.041,1.258,10.65c-0.007,0.386-0.08,0.481-0.487,0.479
		c-1.635-0.008-3.131,0.522-4.638,1.311c1.615,0.384,3.159,0.712,4.68,1.121c2.017,0.543,4.04,1.088,5.831,2.229
		c0.732,0.374,1.509,0.65,2.241,1.023c0.22,0.112,0.484,0.179,0.576,0.457c1.227,1.644,2.349,3.348,3.041,5.298
		c0.508,1.432,0.692,2.896,0.435,4.407c-0.167,0.984-0.525,1.865-1.382,2.603c1.251,0.057,2.389,0.129,3.526-0.081
		c0.191-0.035,0.508-0.216,0.476,0.231c-0.091,1.258-0.21,2.511-0.77,3.67c-0.033,0.069-0.09,0.127-0.163,0.227
		c-0.436-0.614-0.718-1.308-1.448-1.719c-0.184,1.58-0.202,3.108-0.237,4.631c-0.097,4.19,0.031,8.374,0.507,12.541
		c0.198,1.736,0.46,3.466,0.878,5.166c0.098,0.398,0.106,0.571-0.404,0.641c-3.096,0.428-5.703-0.634-8.053-2.539
		c-0.165-0.134-0.333-0.264-0.501-0.394c-0.012-0.009-0.04,0.004-0.06,0.007c-0.418,1.418-0.03,2.579,1.171,3.465
		c0.483,0.356,1.007,0.643,1.575,0.843c0.288,0.101,0.553,0.172,0.525,0.589c-0.025,0.388-0.169,0.658-0.516,0.806
		c-0.26,0.111-0.539,0.102-0.82,0.071c-2.221-0.243-3.45-1.685-4.31-3.568c-0.789-1.728-1.599-3.445-2.751-4.971
		c-0.427-0.565-0.903-1.084-1.508-1.466c-1.033-0.653-2.068-0.588-3.014,0.204c-1.169,0.979-1.593,2.33-1.859,3.759
		c-0.055,0.294,0.061,0.364,0.344,0.336c1.771-0.175,2.967,0.696,3.828,2.147c0.905,1.524,1.571,3.168,2.388,4.737
		c0.975,1.874,2.474,3.055,4.567,3.427c0.592,0.105,1.178-0.1,1.802-0.18c-0.031,0.092-0.034,0.157-0.068,0.194
		c-1.806,1.991-5.652,2.544-7.916,1.123c-1.462-0.917-2.4-2.284-3.151-3.795c-1.437-2.889-2.967-5.715-5.067-8.199
		c-1.756-2.077-3.805-3.794-6.104-5.235c-1.939-1.215-3.67-2.67-4.842-4.673c-1.4-2.391-1.544-4.966-0.986-7.619
		c0.122-0.582,0.277-1.156,0.437-1.817c-0.192,0.128-0.341,0.215-0.476,0.32c-3.835,2.977-5.097,7.879-3.25,12.556
		c0.614,1.556,1.405,3.01,2.374,4.371c0.183,0.257,0.352,0.524,0.53,0.789c-9.574,4.707-12.089,6.435-14.83,10.226
		c0.871-0.258,1.66-0.513,2.461-0.724c3.795-1.001,7.65-1.234,11.552-0.889c3.919,0.346,7.681,1.313,11.332,2.755
		c0.381,0.15,0.619,0.34,0.748,0.77c0.832,2.762,0.549,5.488-0.201,8.205c-0.129,0.465-0.296,0.92-0.457,1.416
		c0.798,0.013,1.532-0.11,2.237-0.368c0.349-0.128,0.505-0.135,0.56,0.315c0.439,3.578,1.068,7.124,1.943,10.62
		c0.782,3.125,1.656,6.228,3.351,9.016c0.157,0.258,0.143,0.481,0.068,0.726c-0.743,2.414-2.122,4.401-4.045,6.024
		c-0.154,0.13-0.311,0.202-0.52,0.194c-4.312-0.158-8.545-0.708-12.518-2.536c-0.837-0.385-1.637-0.841-2.351-1.421
		c-0.346-0.28-0.672-0.271-1.063-0.196c-2.394,0.463-4.788,0.552-7.174-0.053c-0.727-0.184-1.411-0.477-2.071-0.833
		c-0.259-0.14-0.311-0.275-0.161-0.553c1.2-2.229,2.699-4.212,4.813-5.645c0.583-0.395,0.621-0.783,0.379-1.334
		c-0.18-0.41-0.391-0.803-0.727-1.209c1.46-0.412,2.889-0.697,4.367-1.281c-0.232,1.262-0.28,2.429-0.169,3.592
		c0.108,1.135,0.375,2.24,0.864,3.412c0.796-2.127,1.632-4.102,3.637-5.397c0.214,2.171,0.412,4.291,1.847,6.187
		c0.043-1.12,0.117-2.1,0.393-3.056c0.308-1.067,0.773-2.031,1.606-2.784c0.187-0.169,0.23-0.31,0.144-0.551
		c-2.325-6.546-5.993-12.099-11.837-16.046c-0.094-0.064-0.172-0.211-0.341-0.113c1.408,2.681,2.205,5.502,2.017,8.565
		c-0.028,0.458-0.193,0.573-0.595,0.583c-3.841,0.098-7.681,0.144-11.521-0.028c-3.008-0.135-6.007-0.37-8.966-0.966
		c-0.083-0.017-0.167-0.037-0.252-0.044c-1.423-0.116-2.297-0.895-2.985-2.134c-1.066-1.92-2.173-3.814-3.04-5.836
		c-0.04-0.093-0.095-0.179-0.197-0.369c-0.274,1.142-0.326,2.193-0.288,3.245c0.112,3.113,0.733,6.137,1.626,9.113
		c0.098,0.325,0.274,0.366,0.548,0.398c2.407,0.286,4.811,0.589,7.295,0.533c-2.064,2.095-15.909,8.975-20.821,10.357
		c0.329-2.35,0.512-4.677,0.374-7.019c-0.137-2.322-0.444-4.613-1.125-6.851c-1.425,9.147-4.215,17.821-8.719,25.918
		c-1.057-0.962-2.119-1.917-3.17-2.886c-2.963-2.734-5.922-5.472-8.879-8.211C63.215,126.901,63.052,126.702,62.878,126.515z"/>
	<path style="fill:#06152F;" d="M109.875,123.859c-0.398,0.5-0.785,0.942-1.123,1.419c-0.678,0.958-0.961,2.026-0.828,3.204
		c0.058,0.51,0.224,0.907,0.668,1.23c3.268,2.377,6.864,4.015,10.807,4.898c2.094,0.469,4.213,0.613,6.351,0.508
		c0.457-0.022,0.877,0.06,1.308,0.213c3.87,1.37,7.771,2.638,11.803,3.447c1.589,0.319,3.196,0.622,4.824,0.393
		c2.292-0.323,4.1-1.598,5.789-3.078c0.144-0.126,0.28-0.262,0.423-0.396c0.202,0.125,0.106,0.314,0.106,0.464
		c0.006,10.755,0.005,21.51,0.004,32.266c0,0.832-0.94,1.944-1.719,2.081c-0.24,0.042-0.251-0.123-0.296-0.241
		c-0.524-1.399-1.642-1.81-3.003-1.812c-2.266-0.003-4.532-0.017-6.798,0.006c-1.011,0.01-1.967,0.23-2.538,1.195
		c-0.334,0.564-0.453,1.195-0.419,1.845c0.161,3.072,0.34,6.143,0.496,9.216c0.11,2.151,0.183,4.304,0.293,6.456
		c0.114,2.238,0.252,4.475,0.378,6.712c0.007,0.126,0.001,0.253,0.001,0.482c-0.428-0.382-0.807-0.709-1.174-1.049
		c-4.913-4.538-9.823-9.079-14.736-13.618c-5.006-4.624-10.012-9.249-15.022-13.869c-4.319-3.983-8.642-7.963-12.966-11.941
		c-1.21-1.114-2.416-2.233-3.651-3.319c-0.379-0.333-0.386-0.515-0.021-0.876c3.634-3.602,6.972-7.453,9.78-11.744
		c2.331-3.562,4.264-7.318,5.531-11.397c0.086-0.276,0.179-0.488,0.479-0.611c1.674-0.683,3.339-1.388,5.009-2.082
		C109.682,123.84,109.749,123.859,109.875,123.859z"/>
	<path style="fill:#06152F;" d="M85.48,55.315c1.022,1.391,1.969,2.843,3.213,4.056c0.285,0.277,0.033,0.465-0.087,0.664
		c-1.629,2.708-3.033,5.525-4.175,8.474c-1.275,3.291-2.108,6.688-2.531,10.189c-0.093,0.769-0.099,0.772,0.67,0.6
		c0.786-0.176,1.582-0.321,2.349-0.557c0.456-0.14,0.455,0.046,0.438,0.377c-0.081,1.598-0.272,3.186-0.536,4.762
		c-0.384,2.292-0.968,4.525-1.885,6.675c-0.582,1.365-1.456,2.209-2.885,2.78c-4.181,1.671-8.17,3.742-11.806,6.437
		c-0.982,0.728-0.97,0.705-1.786-0.217c-2.529-2.856-5.512-5.094-9.08-6.49c-0.585-0.229-0.852-0.593-1.042-1.15
		c-0.566-1.658-0.945-3.359-1.272-5.074c-0.043-0.227-0.107-0.449-0.165-0.688c-4.166,1.677-6.738,4.841-8.421,8.843
		c-0.545,1.296-0.935,2.646-1.154,4.036c-0.069,0.436-0.272,0.456-0.622,0.351c-0.266-0.08-0.423-0.278-0.606-0.452
		c-0.721-0.686-1.442-1.372-2.133-2.03c-0.159,3.593,0.117,7.202,1.317,10.699c0.101,0.294,0.389,0.749,0.192,0.867
		c-0.303,0.18-0.548-0.281-0.777-0.488c-1.761-1.59-3.497-3.206-5.241-4.814c-4.257-3.924-8.511-7.853-12.78-11.763
		c-0.38-0.348-0.529-0.693-0.528-1.209c0.018-6.115,0.011-12.23,0.015-18.344c0-0.248-0.081-0.516,0.105-0.742
		c0.131-0.2,0.352-0.23,0.555-0.284c3.553-0.946,7.114-1.861,10.67-2.796c0.312-0.082,0.774-0.336,0.93,0.025
		c0.161,0.372-0.348,0.513-0.621,0.684c-2.789,1.749-5.583,3.491-8.386,5.217c-0.176,0.108-0.367,0.203-0.543,0.423
		c1.421,0.267,2.785,0.513,4.15,0.756c2.967,0.53,5.936,1.044,8.896,1.61c0.588,0.112,1.015,0.007,1.434-0.429
		c1.882-1.957,3.886-3.79,5.829-5.685c2.509-2.446,5.033-4.878,7.556-7.31c2.492-2.403,4.976-4.813,7.469-7.215
		c2.509-2.416,5.022-4.827,7.517-7.258c0.779-0.759,1.602-1.478,2.361-2.26c0.388-0.399,0.735-0.386,1.179-0.073
		c3.824,2.701,7.638,5.416,11.47,8.105C85.016,54.815,85.263,55.05,85.48,55.315z"/>
	<path style="fill:#D6DDD9;" d="M85.48,55.315c-3.198-2.248-6.396-4.496-9.593-6.746c-0.909-0.639-1.833-1.259-2.714-1.934
		c-0.4-0.306-0.62-0.292-0.992,0.069c-7.459,7.232-14.934,14.447-22.406,21.666c-2.86,2.763-5.724,5.521-8.571,8.296
		c-0.296,0.288-0.564,0.37-0.962,0.298c-4.497-0.819-8.997-1.623-13.496-2.433c-0.08-0.014-0.158-0.042-0.389-0.104
		c3.437-2.138,6.768-4.209,10.099-6.281c-0.021-0.058-0.041-0.116-0.062-0.174c-4.042,1.044-8.085,2.089-12.127,3.133
		c-0.226-0.417-0.069-0.865-0.104-1.297c0.704-0.677,1.606-1.044,2.434-1.52c3.687-2.122,7.381-4.231,11.078-6.335
		c0.279-0.159,0.536-0.347,0.753-0.591c0.977-1.104,2.002-2.163,3.016-3.233c2.365-2.494,4.671-5.044,7.053-7.475
		c-1.494,1.128-3.04,2.243-4.579,3.366c-2.452,1.789-4.902,3.582-7.357,5.367c-0.402,0.292-0.831,0.528-1.283,0.72
		c-3.443,1.461-6.851,3.004-10.297,4.458c-0.225,0.095-0.44,0.295-0.716,0.132c-0.238-0.546-0.079-1.118-0.101-1.677
		c-0.028-0.736,0-1.474,0.003-2.212c0.097-0.196,0.244-0.342,0.423-0.469c6.191-4.42,12.358-8.872,18.626-13.36
		c-3.717,1.63-7.273,3.361-10.74,5.276c-2.62,1.447-5.171,3.007-7.656,4.676c-0.166,0.112-0.326,0.298-0.573,0.184
		c-0.197-1.16-0.049-2.328-0.081-3.492c0.512-1.144,1.412-2.032,2.042-3.094c0.484-0.817,1.14-1.285,2.08-1.398
		c0.358-0.043,0.702-0.219,1.059-0.25c1.885-0.16,3.147-1.399,4.489-2.521c4.245-3.549,8.511-7.072,12.756-10.621
		c3.409-2.85,6.851-5.66,10.246-8.528c0.951-0.804,1.035-0.801,1.789,0.192c0.491,0.647,0.937,1.327,1.438,1.967
		c0.283,0.362,0.284,0.698-0.065,1.017c-2.284,2.09-4.529,4.223-6.775,6.354c-0.138,0.131-0.3,0.241-0.455,0.346
		c-0.027,0.027-0.057,0.046-0.087,0.054c0.064,0.009,0.1-0.047,0.153-0.071c3.873-2.096,7.428-4.642,10.761-7.509
		c1.945-1.673,3.842-3.397,5.616-5.25c2.823-2.95,5.508-6.021,7.95-9.299c0.155-0.209,0.274-0.594,0.59-0.469
		c0.286,0.112,0.204,0.491,0.176,0.756c-0.243,2.27-0.374,4.55-0.606,6.821c-0.004,0.043-0.016,0.086-0.01,0.128
		c0.225,1.641-0.645,2.893-1.424,4.208c-1.176,1.984-2.733,3.56-4.574,4.939c-2.582,1.933-5.06,4.006-7.603,5.994
		c-0.397,0.31-0.708,0.681-0.901,1.146c-0.601,1.44-1.335,2.82-1.945,4.255c-0.161,0.379-0.398,0.691-0.712,0.97
		c-2.694,2.39-5.43,4.733-8.152,7.15c2.001,0.003,3.963,0,5.926,0.001c0.171,0,0.342-0.005,0.513,0.008
		c0.17,0.012,0.377,0.003,0.461,0.168c0.107,0.209-0.088,0.349-0.201,0.497c-0.052,0.068,0.018-0.012-0.044,0.047
		c-2.588,2.489-4.937,5.215-7.569,7.659c-0.032,0.056-0.117,0.061-0.131,0.136c0.039-0.044,0.085-0.08,0.129-0.123
		c1.29-1.029,2.672-1.924,4.017-2.871c4.876-3.432,9.764-6.846,14.645-10.272c1.259-0.884,2.529-1.754,3.781-2.649
		c0.442-0.316,0.796-0.28,1.188,0.098c2.247,2.162,4.558,4.255,6.808,6.414c0.724,0.694,1.497,1.337,2.168,2.086
		c0.132,0.156,0.241,0.329,0.373,0.485C84.535,53.5,85.007,54.407,85.48,55.315z"/>
	<path style="fill:#06152F;" d="M52.633,37.087c2.394-2.258,4.781-4.523,7.19-6.766c0.346-0.322,0.416-0.528,0.096-0.919
		c-0.608-0.743-1.181-1.519-1.717-2.316c-0.288-0.427-0.47-0.427-0.859-0.101c-5.18,4.333-10.376,8.648-15.568,12.967
		c-3.27,2.72-6.542,5.437-9.805,8.164c-0.304,0.254-0.624,0.422-1.008,0.514c-1.142,0.272-2.276,0.579-3.42,0.843
		c-0.339,0.078-0.558,0.242-0.755,0.521c-0.862,1.218-1.745,2.42-2.62,3.629c0.005-0.126,0.01-0.252,0.014-0.378
		c0.086-1.544,0.015-3.089,0.037-4.632c-0.009-0.134,0.029-0.237,0.148-0.326c3.248-2.439,6.326-5.091,9.493-7.632
		c3.134-2.515,6.239-5.067,9.352-7.608c5.265-4.299,10.562-8.559,15.81-12.879c1.051-0.865,1.101-0.829,2.027,0.216
		c0.806,0.911,1.613,1.826,2.488,2.674c0.366,0.356,0.664,0.773,1.082,1.22c0.09-0.873,0.031-1.651,0.044-2.426
		c0.015-0.871,0.034-0.919,0.82-1.237c2.18-0.882,4.347-1.795,6.534-2.661c0.579-0.229,1.02-0.568,1.364-1.099
		c0.999-1.544,2.036-3.063,3.055-4.594c0.164-0.246,0.295-0.529,0.61-0.633c1.318-0.152,2.487,0.209,3.68,0.795
		c2.208,1.083,4.129,2.581,6.151,3.935c0.154,0.103,0.333,0.215,0.272,0.457c-1.781,2.556-3.326,5.24-4.431,8.164
		c-1.646,4.357-2.41,8.862-2.199,13.514c0.215,4.745,1.342,9.28,3.307,13.604c0.027,0.127-0.024,0.169-0.146,0.136
		c-2.996-2.805-6-5.601-8.978-8.425c-0.424-0.402-0.677-0.477-1.201-0.108C66.149,48.885,58.777,54.039,51.41,59.2
		c-0.105,0.073-0.213,0.14-0.32,0.21c-0.133,0.042-0.166-0.014-0.132-0.135c2.631-2.701,5.262-5.403,7.981-8.195
		c-2.492,0-4.85,0-7.243,0c0.059-0.26,0.247-0.342,0.381-0.459c2.65-2.327,5.301-4.652,7.959-6.971
		c0.264-0.23,0.461-0.486,0.608-0.806c0.702-1.534,1.428-3.056,2.128-4.591c0.165-0.363,0.397-0.639,0.707-0.884
		c3.168-2.505,6.326-5.024,9.497-7.524c0.543-0.428,1.026-0.894,1.403-1.475c0.279-0.43,0.562-0.86,0.879-1.262
		c1.355-1.72,1.993-3.641,2.026-5.857c0.033-2.216,0.334-4.428,0.522-6.704c-0.284,0.129-0.376,0.372-0.515,0.556
		c-5.496,7.25-11.755,13.726-19.241,18.954c-1.681,1.174-3.412,2.271-5.256,3.18C52.643,37.29,52.614,37.215,52.633,37.087z"/>
	<path style="fill:#06152F;" d="M24.264,64.696c3.859-1.673,7.719-3.344,11.575-5.024c0.212-0.092,0.399-0.245,0.588-0.383
		c3.97-2.898,7.939-5.799,11.909-8.698c0.171-0.125,0.345-0.244,0.52-0.367c0.153,0.206-0.043,0.279-0.129,0.371
		c-3.435,3.667-6.873,7.331-10.315,10.992c-0.144,0.153-0.315,0.291-0.497,0.395c-4.503,2.581-9.01,5.157-13.517,7.732
		c-0.072,0.041-0.156,0.063-0.234,0.094c-0.001-1.522-0.003-3.044-0.004-4.566C24.159,65.054,24.13,64.86,24.264,64.696z"/>
	<path style="fill:#06152F;" d="M24.246,57.115c5.924-4.003,12.195-7.366,18.755-10.2c0.188-0.081,0.361-0.234,0.597-0.183
		c0.079,0.18-0.083,0.218-0.169,0.279c-6.363,4.572-12.729,9.141-19.095,13.709c-0.051,0.036-0.112,0.058-0.168,0.087
		C24.204,59.577,24.054,58.342,24.246,57.115z"/>
	<path style="fill:#0D244D;" d="M24.282,48.381c-0.001,1.397,0.001,2.794-0.007,4.191c-0.001,0.225,0.074,0.468-0.095,0.673
		c-0.007-1.838-0.019-3.677-0.019-5.515c-0.002-11.804,0.004-23.608-0.015-35.411c-0.001-0.605,0.123-0.775,0.756-0.774
		c22.086,0.019,44.172,0.016,66.258,0.016c0.204,0,0.408,0,0.751,0c-1.836,1.657-3.323,3.435-4.763,5.255
		c-0.385-0.47-0.939-0.724-1.421-1.06c-1.743-1.216-3.486-2.424-5.418-3.355c-1.074-0.518-2.117-0.848-3.298-0.717
		c-0.405,0.266-0.863,0.209-1.308,0.209c-16.633,0.002-33.266,0.001-49.899,0.002c-0.278,0-0.556,0-0.834,0.01
		c-0.316,0.011-0.462,0.168-0.47,0.48c-0.006,0.257-0.007,0.513-0.008,0.77c0,11.333,0.001,22.665-0.005,33.998
		C24.486,47.566,24.596,48.012,24.282,48.381z"/>
	<path style="fill:#696C68;" d="M83.678,52.232c0.049-0.045,0.097-0.091,0.146-0.136c0.149,0.132,0.211,0.306,0.238,0.496
		C83.895,52.513,83.762,52.399,83.678,52.232z"/>
	<path style="fill:#C5B173;" d="M159.516,51.336c-0.751-0.344-1.497-0.698-2.254-1.027c-0.237-0.103-0.465-0.191-0.563-0.453
		c0.12-0.095,0.1-0.23,0.087-0.354c-0.239-2.234,0.006-4.487-0.25-6.72c-0.061-0.529-0.134-1.058-0.229-1.581
		c-0.065-0.359,0.059-0.472,0.414-0.534c0.907-0.158,1.815-0.17,2.892-0.092c-0.933-1.11-1.944-1.852-3.182-2.236
		c-0.48-0.149-0.661-0.366-0.735-0.858c-0.311-2.066-0.614-4.135-1.172-6.154c-0.163-0.589,0.091-0.995,0.588-1.28
		c0.688-0.395,1.453-0.483,2.223-0.521c1.173-0.059,2.344,0,3.62,0.17c-0.501-0.688-1.142-0.962-1.787-1.204
		c-1.483-0.556-3.038-0.649-4.6-0.61c-0.39,0.01-0.488-0.107-0.439-0.465c0.182-1.332,0.291-2.674,0.609-3.986
		c0.088-0.364,0.26-0.604,0.57-0.796c1.574-0.972,3.297-1.494,5.24-1.728c-0.854-0.6-1.72-0.82-2.627-0.876
		c-0.595-0.037-1.199-0.022-1.791,0.04c-0.364,0.039-0.453-0.075-0.457-0.4c-0.016-1.382,0.55-2.432,1.757-3.119
		c1.115-0.635,2.318-1.056,3.615-1.408c-0.692-0.74-1.535-0.822-2.387-0.83c-0.445-0.004-0.901,0.043-1.334,0.141
		c-0.428,0.097-0.405-0.06-0.343-0.384c0.351-1.81-0.124-2.248-1.865-1.674c-1.053,0.347-2.075,0.786-3.121,1.158
		c-0.196,0.069-0.475,0.246-0.645-0.005c-0.14-0.207-0.013-0.467,0.091-0.672c0.553-1.084,1.491-1.799,2.44-2.497
		c0.552-0.406,1.162-0.716,1.773-1.023c0.209-0.105,0.477-0.187,0.596-0.362c0.385-0.57,0.886-0.499,1.449-0.397
		c2.724,0.496,5.383,1.169,7.764,2.662c0.675,0.423,1.278,0.925,1.789,1.541c0.65,0.783,0.969,1.642,0.986,2.694
		c0.135,8.343-1.388,16.392-4.145,24.241c-1.308,3.723-2.62,7.444-4.126,11.092C159.884,51.03,159.915,51.392,159.516,51.336z"/>
	<path style="fill:#FEFEFE;" d="M171.575,97.351c1.25,0.284,2.466,0.333,3.68,0.399c0.218,0.012,0.458-0.06,0.396,0.353
		c-0.36,2.416-0.307,4.855-0.34,7.288c-0.033,2.391-0.017,4.784,0.027,7.175c0.01,0.561-0.202,0.927-0.582,1.268
		c-1.266,1.133-2.717,1.992-4.189,2.813c-2.304,1.285-2.313,1.282-4.892,0.616c-4.312-1.113-8.586-2.362-12.864-3.596
		c-0.078-0.022-0.148-0.069-0.252-0.119c1.096-0.634,2.13-1.302,3.225-1.849c1.523-0.76,2.042-2.042,2.034-3.615
		c-0.002-0.487,0.134-0.601,0.601-0.602c1.796-0.003,3.58,0.14,5.363,0.329c0.47,0.05,0.587,0.381,0.686,0.728
		c0.367,1.291,0.579,2.616,0.808,3.936c0.024,0.14,0.005,0.298,0.179,0.432c0.413-1.45,0.604-2.9,0.697-4.356
		c0.288-4.494-0.048-8.959-0.716-13.404c-0.047-0.312,0.026-0.513,0.242-0.734c0.67-0.689,1.32-1.397,1.887-2.178
		c0.319-0.439,0.435-0.885,0.343-1.435c-0.384-2.291-0.813-4.574-1.301-6.844c-0.121-0.563-0.016-0.711,0.58-0.689
		c2.47,0.088,4.884,0.388,7.15,1.469c0.426,0.203,0.665,0.498,0.782,0.935c0.656,2.451,1.166,4.934,1.681,7.417
		c0.084,0.407-0.21,0.464-0.438,0.589c-1.408,0.771-2.756,1.628-3.945,2.715C172.119,96.661,171.808,96.923,171.575,97.351z"/>
	<path style="fill:#C5B173;" d="M88.409,46.851c1.48,1.93,3.284,3.427,5.67,4.076c3.397,0.924,6.475,0.094,9.27-1.891
		c3.985-2.829,5.234-6.777,4.514-11.474c-0.093-0.61-0.205-1.228-0.411-1.806c-0.184-0.516-0.037-0.859,0.316-1.195
		c0.694-0.661,1.542-1.069,2.407-1.439c0.717-0.306,1.453-0.568,2.236-0.872c-1.216-0.495-2.429-0.458-3.645-0.377
		c-0.298,0.02-0.614,0.006-0.888,0.102c-0.942,0.331-1.497,0.008-1.956-0.863c-0.342-0.648-0.884-1.206-1.4-1.743
		c-0.351-0.366-0.34-0.633-0.093-1.045c0.48-0.799,0.893-1.639,1.371-2.531c-0.542-0.002-0.88,0.272-1.224,0.494
		c-0.665,0.43-1.279,0.931-1.851,1.478c-0.206,0.197-0.35,0.225-0.594,0.049c-0.274-0.198-0.584-0.372-0.905-0.472
		c-0.703-0.22-1.206-0.569-1.24-1.386c-0.019-0.44-0.277-0.268-0.472-0.128c-0.466,0.336-0.564,0.883-0.75,1.421
		c-1.124-0.532-2.326-0.686-3.655-0.961c2.207-1.04,4.34-1.744,6.6-2.037c6.052-0.784,10.537,2.185,13.411,7.227
		c2.024,3.55,2.745,7.365,2.422,11.406c-0.031,0.382-0.091,0.764-0.173,1.139c-0.541,2.477-1.729,3.466-4.27,3.586
		c-1.569,0.075-3.112-0.11-4.641-0.446c-0.098-0.022-0.199-0.032-0.423-0.068c0.966,1.067,2.034,1.793,3.193,2.396
		c0.93,0.484,1.897,0.892,2.909,1.16c0.51,0.135,0.414,0.302,0.189,0.623c-2.023,2.89-5.097,3.998-8.545,3.069
		c-1.38-0.372-2.677-0.953-4.085-1.714c0.705,1.7,1.689,2.96,3.168,4.015c-2.106,0.425-4.056,0.538-6.003-0.023
		c-0.499-0.144-0.797-0.555-1.071-0.969c-0.451-0.679-0.777-1.421-1.123-2.379c-0.172,0.8-0.319,1.419-0.434,2.044
		c-0.072,0.391-0.213,0.462-0.594,0.306c-2.178-0.892-3.777-2.463-5.104-4.34c-0.939-1.328-1.71-2.754-2.264-4.29
		C88.225,46.856,88.288,46.825,88.409,46.851z"/>
	<path style="fill:#FEFEFE;" d="M161.818,97.999c0.406,1.751,0.775,3.385,1.172,5.013c0.083,0.341-0.116,0.291-0.297,0.302
		c-1.277,0.077-2.553,0.159-3.831,0.223c-1.001,0.05-2,0.104-2.995,0.242c-0.489,0.068-0.775,0.306-0.956,0.728
		c-0.36,0.841-0.721,1.682-1.078,2.525c-0.222,0.525-0.596,0.85-1.156,1.007c-1.6,0.448-3.194,0.922-4.79,1.385
		c-0.346,0.1-0.549,0.118-0.601-0.385c-0.24-2.358-0.446-4.718-0.62-7.081c-0.008-0.102-0.001-0.206-0.001-0.42
		C152.449,103.564,157.28,101.588,161.818,97.999z"/>
	<path style="fill:#0D244D;" d="M116.461,25.488c1.096,0.394,2.099,0.927,3.002,1.644c2.372,1.881,3.861,4.38,5.033,7.115
		c1.174,2.742,1.784,5.628,2.276,8.547c0.171,1.015-0.091,1.813-1.046,2.366c-1.565,0.907-3.272,1.406-5.062,1.939
		c0.907-3.813,1.522-7.58,0.848-11.414C120.83,31.812,118.925,28.52,116.461,25.488z"/>
	<path style="fill:#0D244D;" d="M99.465,39.005c0.115-2.373,0.629-4.438,1.694-6.354c0.191-0.344,0.318-0.343,0.51-0.004
		c1.036,1.831,1.756,3.743,1.922,5.88c0.176,2.273-0.407,4.279-1.687,6.122c-0.41,0.59-0.486,0.605-0.854-0.005
		C99.967,42.853,99.553,40.873,99.465,39.005z"/>
	<path style="fill:#FEFEFE;" d="M165.631,55.598c0.155,0.027,0.221,0.02,0.263,0.048c2.506,1.697,4.408,3.874,5.428,6.77
		c0.16,0.454,0.06,0.598-0.379,0.668c-0.458,0.073-0.907,0.2-1.456,0.326c0.427-1.086-0.022-1.72-0.954-2.117
		c-0.392-0.167-0.598-0.467-0.759-0.876C167.14,58.805,166.503,57.191,165.631,55.598z"/>
	<path style="fill:#C5B172;" d="M144.471,64.742c-0.383-0.081-0.754-0.193-1.133-0.231c-0.574-0.057-0.749,0.194-0.532,0.729
		c0.285,0.704,0.782,1.268,1.25,1.851c0.129,0.16,0.265,0.314,0.43,0.51c-2.421-0.646-3.89-2.692-3.079-4.956
		c0.184-0.514,0.417-0.592,0.889-0.384c1.005,0.442,1.76,1.115,2.16,2.154c0.03,0.079,0.052,0.163,0.062,0.247
		C144.522,64.691,144.481,64.727,144.471,64.742z"/>
	<path style="fill:#C4B072;" d="M149.651,87.271c-0.773-1.099-1.728-2.023-2.793-2.98c0.449-0.147,0.82-0.268,1.191-0.39
		c0.04-0.013,0.112-0.047,0.115-0.04c0.236,0.407,0.881,0.45,1.003,0.763c0.317,0.815,0.434,1.708,0.631,2.57
		C149.749,87.219,149.7,87.245,149.651,87.271z"/>
	<path style="fill:#FAFBFB;" d="M163.114,90.507c-0.536,1.081-1.48,1.459-2.432,1.81c-0.238,0.088-0.254-0.167-0.246-0.314
		c0.03-0.576,0.293-1.021,0.837-1.247C161.826,90.525,162.408,90.43,163.114,90.507z"/>
	<path style="fill:#89805D;" d="M88.409,46.851c-0.046,0.047-0.092,0.094-0.139,0.141c-0.149-0.154-0.19-0.344-0.155-0.574
		C88.213,46.563,88.311,46.707,88.409,46.851z"/>
	<path style="fill:#C4C8CE;" d="M89.192,28.482c0.041,0.044,0.082,0.087,0.123,0.131c-0.052,0.125-0.104,0.25-0.172,0.414
		C89,28.782,89.067,28.628,89.192,28.482z"/>
	<path style="fill:#D8D8D8;" d="M121.646,159.119c-0.054-0.076-0.358-0.094-0.077-0.243c0.118-0.062,0.293-0.017,0.442-0.02
		c1.49-0.034,2.98-0.083,4.471-0.09c0.411-0.002,0.579-0.143,0.711-0.527c0.489-1.426,1.023-2.837,1.54-4.253
		c0.405,0.135,0.276,0.489,0.279,0.758c0.018,1.347,0.011,2.694,0.007,4.04c-0.002,0.6,0.043,1.194,0.107,1.79
		c0.082,0.765-0.28,1.041-0.999,0.787c-0.241-0.085-0.465-0.217-0.721-0.259c-0.111-0.001-0.221-0.012-0.329-0.038
		C125.266,160.422,123.375,159.997,121.646,159.119z"/>
	<path style="fill:#CFCFCF;" d="M127.3,160.91c0.349,0.011,0.641,0.169,0.949,0.32c0.471,0.23,0.775,0.031,0.711-0.469
		c-0.26-2.031-0.049-4.069-0.123-6.103c-0.008-0.226,0.076-0.471-0.105-0.671c0.045-0.159,0.091-0.317,0.14-0.49
		c0.22,0.101,0.217,0.287,0.234,0.463c0.289,1.407,0.186,2.825,0.117,4.242c-0.005,0.105-0.039,0.209-0.042,0.315
		c-0.005,0.206-0.085,0.452,0.135,0.581c0.187,0.109,0.359-0.054,0.531-0.128c0.297-0.127,0.542-0.45,0.927-0.246
		c0.181,0.037,0.362,0.075,0.543,0.112c-0.681,0.37-0.854,1.054-1.131,1.772c2-0.399,3.782-1.274,5.71-1.625
		c0.152-0.014,0.314-0.089,0.438,0.07c-0.095,0.071-0.19,0.143-0.286,0.214c-1.683,0.748-3.472,1.182-5.21,1.763
		c-0.612,0.078-1.16,0.352-1.725,0.572c-0.458,0.178-0.547,0.667-0.82,1.002c-0.966,1.278-1.879,2.595-2.849,3.87
		c-0.166,0.218-0.295,0.482-0.62,0.506c-0.335-0.252-0.053-0.44,0.076-0.63c0.744-1.095,1.575-2.127,2.309-3.228
		c0.082-0.122,0.194-0.23,0.226-0.432c-0.487-0.212-1.046,0.057-1.527-0.187c-0.138-0.341,0.163-0.426,0.345-0.564
		c0.251-0.191,0.535-0.346,0.831-0.443C127.447,161.379,127.387,161.163,127.3,160.91z"/>
	<path style="fill:#868686;" d="M124.851,166.938c1.008-1.168,1.846-2.463,2.769-3.694c0.176-0.234,0.293-0.521,0.572-0.667
		c0.115-0.176,0.27-0.322,0.369-0.513c0.07-0.134,0.1-0.363,0.341-0.285c0.191,0.062,0.218,0.252,0.225,0.418
		c0.031,0.78,0.072,1.561-0.087,2.334c0.001,0.074-0.02,0.141-0.063,0.201c-0.943,0.369-1.678,1.069-2.522,1.595
		c-0.63,0.393-1.24,0.818-1.859,1.229c-0.071-0.065-0.089-0.149-0.082-0.24C124.55,167.121,124.679,167.011,124.851,166.938z"/>
	<path style="fill:#B6B6B6;" d="M132.037,162.709c0.49,1.681,0.98,3.363,1.478,5.074c-0.301-0.003-0.441-0.153-0.581-0.305
		c-1.031-1.216-1.833-2.601-2.819-3.852c-0.199-0.252-0.344-0.56-0.184-0.891c0.171-0.353,0.519-0.325,0.836-0.322
		c0.359,0.004,0.723-0.051,1.076,0.065C131.943,162.527,131.989,162.619,132.037,162.709z"/>
	<path style="fill:#868686;" d="M132.037,162.709c-0.044-0.042-0.089-0.084-0.133-0.126c-0.039-0.046-0.081-0.089-0.128-0.127
		c-0.434-0.267-0.903-0.467-1.349-0.711c-0.178-0.098-0.459-0.163-0.43-0.407c0.03-0.262,0.315-0.304,0.538-0.359
		c0.08-0.02,0.169-0.002,0.229-0.077c1.657-0.541,3.313-1.084,4.971-1.62c0.096-0.031,0.209-0.011,0.314-0.015
		c-1.146,1.035-2.447,1.871-3.645,2.839C132.202,162.27,131.985,162.401,132.037,162.709z"/>
	<path style="fill:#D7D7D7;" d="M135.896,158.984c-1.661,0.64-3.365,1.149-5.069,1.66c-0.281,0.084-0.567,0.149-0.994,0.261
		c0.334-0.664,0.513-1.275,0.868-1.822c0.163-0.252,0.398-0.201,0.616-0.246C132.845,158.846,134.373,158.831,135.896,158.984z"/>
	<path style="fill:#AAAAAA;" d="M131.902,162.462c0.002,0.04,0.003,0.08,0.002,0.121c-0.427-0.001-0.855-0.01-1.281-0.002
		c-0.647,0.011-0.811,0.294-0.447,0.843c0.373,0.561,0.824,1.071,1.196,1.632c0.531,0.801,1.186,1.522,1.564,2.422
		c-1.319-0.916-2.638-1.832-3.957-2.748c0.006-0.033,0.008-0.066,0.006-0.1c0.04-0.74,0.517-1.34,0.656-2.05
		c0.031-0.157,0.177-0.253,0.33-0.264C130.62,162.269,131.28,162.129,131.902,162.462z"/>
	<path style="fill:#D5D5D6;" d="M124.851,166.938c-0.082,0.129-0.164,0.259-0.245,0.388c-0.057,0.08-0.116,0.168-0.231,0.133
		c-0.068-0.021-0.056-0.086-0.031-0.141c0.48-1.622,0.959-3.244,1.439-4.866c0.035-0.065,0.07-0.063,0.107-0.002
		c0.513,0,1.026,0.001,1.539-0.001c0.363-0.001,0.408,0.101,0.183,0.403c-0.925,1.246-1.829,2.508-2.744,3.762
		C124.787,166.726,124.709,166.822,124.851,166.938z"/>
	<path style="fill:#AEAEAE;" d="M121.646,159.119c1.799,0.597,3.598,1.195,5.397,1.792c0.182,0.339-0.097,0.506-0.281,0.679
		c-0.305,0.288-0.651,0.531-1.011,0.748C124.382,161.266,123.014,160.192,121.646,159.119z"/>
	<path style="fill:#B9B9B9;" d="M130.774,158.724c-0.446,0.053-0.742,0.404-1.133,0.572c-0.58,0.25-0.727,0.208-0.657-0.416
		c0.184-1.639,0.065-3.281,0.122-4.92C129.733,155.523,130.242,157.128,130.774,158.724z"/>
	<path style="fill:#C1C1C1;" d="M125.751,162.339c0.399-0.504,1.081-0.753,1.292-1.428c0.086,0,0.172-0.001,0.257-0.001
		c0.147,0.111,0.293,0.222,0.466,0.353c-0.602,0.469-1.395,0.587-1.875,1.187c-0.036,0.002-0.071,0.003-0.107,0.002
		C125.762,162.418,125.751,162.38,125.751,162.339z"/>
	<path style="fill:#B0B2B3;" d="M124.344,167.318c0.083,0.141,0.174,0.026,0.262,0.008c-0.003,0.077-0.006,0.153-0.01,0.23
		c-0.111,0.078-0.237,0.281-0.336,0.195C124.132,167.64,124.227,167.449,124.344,167.318z"/>
	<path style="fill:#3C475A;" d="M50.958,59.275c0.044,0.045,0.088,0.09,0.132,0.135c-0.152,0.172-0.332,0.306-0.598,0.405
		C50.569,59.529,50.772,59.409,50.958,59.275z"/>
	<path style="fill:#2A3449;" d="M52.633,37.087c0.053,0.05,0.107,0.099,0.16,0.149c-0.128,0.137-0.283,0.211-0.546,0.251
		C52.354,37.264,52.485,37.168,52.633,37.087z"/>
	<path style="fill:#0D244D;" d="M24.282,48.381c-0.001-11.99,0.003-23.98-0.015-35.97c-0.001-0.598,0.17-0.744,0.753-0.744
		c17.33,0.015,34.66,0.013,51.991,0.014c-1.195,1.79-2.41,3.567-3.571,5.378c-0.324,0.505-0.747,0.795-1.266,1.006
		c-2.287,0.933-4.569,1.879-6.868,2.782c-0.409,0.161-0.495,0.379-0.488,0.761c0.017,0.972,0.006,1.944,0.006,3.094
		c-0.894-0.966-1.67-1.801-2.442-2.639c-0.678-0.736-1.353-1.475-2.028-2.215c-0.209-0.229-0.394-0.252-0.654-0.038
		c-2.839,2.338-5.681,4.672-8.534,6.993c-2.375,1.931-4.774,3.832-7.148,5.763c-2.87,2.334-5.719,4.693-8.589,7.027
		c-2.374,1.932-4.766,3.842-7.146,5.766c-1.19,0.962-2.376,1.931-3.557,2.904C24.584,48.38,24.47,48.496,24.282,48.381z"/>
	<path style="fill:#989898;" d="M131.902,162.462c-0.617-0.003-1.28-0.15-1.837,0.03c-0.612,0.198-0.363,1.071-0.776,1.52
		c-0.149,0.163-0.207,0.41-0.306,0.618c-0.302-0.311,0.035-0.626,0.002-0.95c-0.062-0.593-0.018-1.197-0.018-1.913
		c-0.401,0.276-0.425,0.701-0.775,0.808c0.378-1.295,1.523-1.409,2.571-1.673c-0.17,0.226-0.53,0.146-0.687,0.439
		C130.614,161.829,131.435,161.865,131.902,162.462z"/>
</g>
</svg>
