<svg version="1.1" id="Layer_1" xmlns="http://www.w3.org/2000/svg" x="0" y="0" viewBox="0 0 200 200" xml:space="preserve"><style>.nbb_st0{fill:#c4b173}.nbb_st1{fill:#071630}.nbb_st2{fill:#fdfdfd}.nbb_st3{fill:#06152f}.nbb_st4{fill:#d5dcd8}.nbb_st5{fill:#0d244d}.nbb_st6{fill:#07162f}.nbb_st7{fill:#14294d}.nbb_st8{fill:#c4b072}.nbb_st9{fill:#fbfbfc}.nbb_st12{fill:#aeafaf}</style><path class="nbb_st0" d="M137.3 200l-2.3-2-10.8-10a33188 33188 0 00-20-18.4c-3-3-6.2-5.8-9.4-8.7l-20-18.5-11.4-10.6-16.5-15.2-13.1-12L20 91.9c-.3-.3-.5-.6-.5-1V9.1c0-.7.2-.8.8-.8h71.8c.6 0 1-.1 1.6-.5A42 42 0 01119.8.5c7.4.4 14.1 3 20 7.5.7.6 1.6.5 2.3 0a68.8 68.8 0 0112-7.8c.7-.3 1.5-.3 2.3 0 5.8 1.5 11 4.1 15.5 8.3.7.7 1 1.5 1.2 2.5a56.6 56.6 0 01-.1 15c-.4 4.4-1.4 8.7-2.9 12.9a83.2 83.2 0 01-4.2 9.8c-.2.4-.2.6.2.8a24 24 0 017 7.4c1.9 3 3 6.1 3 9.6 0 .4 0 .6-.4.8-1.4 1-3 1.3-4.7 1.5-1 .1-1.9.2-2.8.1-.3 0-.5.1-.6.4-.8 2-1.1 4.2-1.7 6.2 0 .4 0 .6.5.7a32.7 32.7 0 018.2 1.4 5 5 0 013.2 3.5c1.2 3.7 2 7.5 2.6 11.4.2 1.2-.3 2.3-.6 3.4-.6 2.6-.9 5.3-1 8-.3 2.9-.2 5.8-.2 8.8l.2 2.6c0 1.1-.6 2-1.3 2.6-1.4 1.5-3 2.5-4.7 3.5-1.7 1.1-3.5 2-5.4 3-.2 0-.4.2-.7 0-2.8-1.4-5.8-2.2-8.7-3.1l-6.9-2c-.5-.2-.7-.1-.6.4v.1c-.3 2.3.4 4.5 1.2 6.7.6 1.5.2 3-.6 4.3-.4.8-.6 1.6-.6 2.5v34.5c0 1.3-.5 2.3-1.4 3.2a6 6 0 01-4.2 1.7c-.4 0-.6 0-.7-.4-.2-.6-.4-1.4-.8-1.8-.5-.3-1.4 0-2 0h-5.1c-.5 0-.6 0-.6.5l.6 10.8.3 4.7.7 12.5v1zM76.6 11H22.2v78.5c0 .6 0 1 .4 1.3l15 13.7 4 3.6a29.7 29.7 0 01-1.7-11.8l2.1 2 .5.4c.5.2.7.2.8-.4a19 19 0 012.8-7 14 14 0 016.8-5.8c.4 2 .7 4 1.4 5.8.2.6.5 1 1 1.1 3.6 1.4 6.6 3.7 9.1 6.5.8 1 .8 1 1.8.3 3.6-2.8 7.7-4.8 11.8-6.6.8-.3 1.8-.5 2.3-1.5.7-1.5 1.4-3 1.8-4.6a41 41 0 001.2-8c0-.3 0-.5-.5-.4-.7.3-1.5.4-2.3.6-.7.1-.7.1-.6-.6a42 42 0 012.5-10.2c1.1-3 2.5-5.8 4.2-8.5 0-.2.3-.4 0-.7-1.2-1.2-2.1-2.6-3.2-4l-.1-.1c-.4-1-1-2-1.6-3 .3-.2 0-.3 0-.5A33.6 33.6 0 0189.8 11H76.6zm31.2 112.2l-5.4 2.2c-.2 0-.2.3-.3.5-1.5 5-4 9.4-7 13.6a75.7 75.7 0 01-8.3 9.6c-.4.3-.4.5 0 .8l2 1.8 14.6 13.5 13.2 12.2 16.5 15.2 1.3 1.1v-.6l-.6-10.2-.1-2.8-.5-9.2c0-.7 0-1.3.4-1.9.6-1 1.6-1.1 2.6-1.2h6.7c1.4 0 2.5.4 3 1.9l.4.2c1-.4 1.7-1.3 1.7-2.3v-31.8-.7c-.3 0-.4.3-.6.4a11.4 11.4 0 01-5.7 3c-1.7.3-3.3 0-4.9-.3-4-.8-8-2.1-11.8-3.5l-1.3-.2a24 24 0 01-7-.6c-3.6-1-7-2.5-10.1-4.8-.5-.3-.7-.7-.7-1.2a5 5 0 011.3-3.9c.2-.2.5-.4.6-.8h.2-.2zm-34.4 14.3l2.3 2.2 8 7.5c.4.3.6.3 1 0 2.1-2.3 4.2-4.5 6.1-7 4-5 7.3-10.4 8.9-16.6 0-.3.3-.4.6-.5 2.7-1 5.5-2.2 8.1-3.5 2.4-1 4.6-2.3 6.2-4.3l1.3-1.3c.1.2 0 .3 0 .4-.3 2.5-.9 4.9-.6 7.3 0 .4-.1.5-.4.7-1.2.4-2.3 1-3.4 1.7-1 .7-2 1.4-2.5 2.5-.2.3-.2.5.1.7a24 24 0 0015 4.2c.5 0 .9 0 1.2.2 4.3 1.5 8.6 3 13.1 3.8 1.6.2 3.2.4 4.6-.5a15 15 0 005.5-5.5 3 3 0 00.3-2.8l-3-7.7c-.4-1.4-.6-2.9-.7-4.4l6 1.6c5.3 1.5 10.6 3 15.7 5l.6-.1 3.2-1.8c1.7-1 3.3-2 4.7-3.3.4-.4.5-.8.5-1.3-.3-3.7-.3-7.5 0-11.2a46.9 46.9 0 011.7-10.8c-.6-3.4-1.3-6.8-2.3-10.2-.4-1.4-1.3-2.2-2.7-2.5-2.4-.7-5-.8-7.4-1-1.6 0-1.6 0-1.8-1.5-.2-.7-.5-1.5-.3-2.3.7-3 1.4-6 2.6-8.8.1-.4.3-.5.7-.5 2 .2 4 .1 5.9-.3 1-.2 1-.3.8-1.3-.6-3.3-2.2-6.2-4.4-8.7a24 24 0 00-6.4-5c-.4-.2-.4-.4-.2-.9a88.1 88.1 0 006.9-17c.8-3.2 1.2-6.5 1.4-9.9.3-3.7.3-7.4-.1-11.1 0-.6-.3-1-.8-1.4A32.5 32.5 0 00156 3a2 2 0 00-1.5.1l-3 1.7a85 85 0 00-10.4 7.7c-.3.3-.5.3-.7 0a32 32 0 00-21-9.2c-4.1-.2-8.1.3-12.1 1.4-6 1.7-11.5 4.5-16 8.9a31 31 0 00-9.9 22.5c0 5 1 9.8 3.2 14.2 1.4 3 3.1 5.8 6 7.8.3.2 0 .4 0 .6a44 44 0 00-7.1 15.6c-.1.5-.1.7.5.5l1.8-.5c.5-.1.6 0 .6.5 0 3.8-.4 7.5-1.2 11.2-.6 2.8-1.5 5.5-3.2 7.8a2 2 0 01-1 .8 54.2 54.2 0 00-16 9.4c-.3.4-.4.2-.6-.1-1.8-3-4.2-5.4-7-7.2-.5-.3-.8-.5-1.1.1l-.8 1c-.3.5-.6.4-1 0a19.3 19.3 0 01-3.5-7.3c-.1-.4-.2-.4-.5-.1-1 1-1.8 2-2.5 3.2a18.4 18.4 0 00-2.1 7.4c0 .4-.2.5-.6.6l-1.9.1c-.3 0-.4 0-.3.4.7 4.4 2.4 8.3 5.5 11.6 2.1 2 4.6 3.5 7.4 4.4.6.2.8.4.8 1l.2 2.8c0 .2 0 .4.2.6 1.2 1.1 2.3 2.3 3.6 3.3.5.7 1.2 1.2 1.8 1.7l9.3 8.6c.5.5 1 1 1.5 1.3z"/><path class="nbb_st1" d="M60.8 125.9c-1.3-1-2.4-2.2-3.6-3.3-.2-.2-.2-.4-.2-.6l-.1-2.8c0-.6-.3-.8-.9-1-2.8-.9-5.3-2.3-7.4-4.4a21 21 0 01-5.5-11.6c-.1-.4 0-.4.3-.4l2-.1c.3 0 .4-.2.5-.6.2-2.6.8-5 2.1-7.4.7-1.2 1.5-2.3 2.5-3.2.3-.3.4-.3.5.1.8 2.6 1.8 5.1 3.5 7.3.4.4.7.5 1 0l.8-1c.3-.6.6-.4 1-.2 3 2 5.3 4.3 7.1 7.3.2.3.3.5.6.1a52.9 52.9 0 0116-9.4 2 2 0 001-.8c1.7-2.3 2.6-5 3.2-7.8.8-3.7 1.2-7.4 1.2-11.2 0-.5 0-.6-.6-.5L84 75c-.6.2-.6 0-.5-.6a43 43 0 017-15.5c.2-.2.4-.4 0-.7-2.8-1.9-4.5-4.7-6-7.7a32 32 0 01-3-14.2 31 31 0 019.8-22.5c4.5-4.4 10-7.2 16-9 4-1 8-1.5 12.1-1.3a32 32 0 0121 9.2c.2.3.4.3.7 0a85 85 0 0113.4-9.4 2 2 0 011.5 0c5 1.3 9.6 3.6 13.4 7 .5.5.7.9.8 1.5.4 3.7.4 7.4.1 11.1a59.4 59.4 0 01-8.3 27c-.2.3-.2.5.2.8 2.4 1.3 4.6 3 6.4 5 2.2 2.5 3.8 5.4 4.4 8.7.2 1 .2 1-.8 1.3-2 .4-3.9.5-5.9.3-.4 0-.6.1-.7.5a55.5 55.5 0 00-2.6 8.8c-.2.8.2 1.5.3 2.3.2 1.6.2 1.5 1.8 1.6a31 31 0 017.4.9c1.4.3 2.3 1 2.7 2.5a74.2 74.2 0 012.2 11.3 47 47 0 00-1.6 9.7c-.3 3.8-.2 7.5 0 11.2 0 .5-.1 1-.5 1.3-1.4 1.3-3 2.3-4.7 3.3l-3.2 1.8c-.2 0-.4.2-.6 0-5.1-2-10.4-3.4-15.6-4.9-2-.6-4-1-6.1-1.7 0 1.6.3 3 .8 4.5l2.9 7.7a3 3 0 01-.3 2.8 15 15 0 01-5.5 5.5c-1.4.9-3 .7-4.6.4-4.5-.7-8.8-2.2-13-3.7-.4-.2-.8-.2-1.2-.2-5.6.4-10.5-1.2-15-4.2-.4-.2-.4-.4-.2-.7.6-1.1 1.6-1.8 2.5-2.5 1-.7 2.2-1.3 3.4-1.8.3 0 .4-.2.4-.6-.3-2.4.3-4.9.7-7.3v-.4l-1.4 1.3c-1.6 2-3.8 3.2-6.2 4.3-2.6 1.3-5.4 2.4-8.1 3.5-.3 0-.5.2-.6.5-1.6 6.2-5 11.6-8.9 16.6-1.9 2.4-4 4.7-6.2 7-.3.3-.5.3-.8 0l-8.1-7.6c-.8-.7-1.6-1.3-2.3-2.1a73.9 73.9 0 008.7-25.9c1.3 4.6 1.5 9.2.8 14 7.4-2.7 14.3-6.1 20.8-10.4-2.5 0-4.9-.3-7.3-.6-.3 0-.5-.1-.6-.4-.8-2.9-1.4-5.8-1.6-8.8 0-1.1 0-2.3.3-3.6l.2.4c.9 2 2 4 3 5.9.7 1.2 1.6 2 3 2.1h.3c3 .7 6.1.9 9.2 1 3.7.2 7.5.1 11.2 0 .4 0 .6 0 .7-.6 0-2.2-.3-4.4-1.1-6.4l-1-2.2.3.1c5.9 4 9.6 9.6 12 16.2 0 .2 0 .4-.3.6-.7.6-1 1.4-1.4 2.3a11 11 0 00-.5 3.4c-.8-.9-1.1-2-1.4-3-.3-1-.4-2-.5-3.1-2 1.3-2.8 3.3-3.6 5.4a11.5 11.5 0 01-.7-7c-1.5.6-3 .8-4.3 1.2l.8 1.6c0 .3 0 .6-.4.9a15.7 15.7 0 00-5 5.7c0 .3 0 .5.3.6l2 .8c2.4.6 4.7.5 7.1 0 .5 0 .8 0 1.2.3.7.6 1.4 1 2.2 1.3 4 2 8.2 2.5 12.6 2.6.3 0 .4-.1.6-.3 1.5-1.3 2.7-2.8 3.5-4.6.4-1 .7-2-.1-2.8v-.2c-1.7-3-2.5-6.4-3.3-9.7l-1.5-8.9c0-.4-.2-.5-.6-.4-.7.3-1.4.4-2.2.4l.4-1.4c.8-2.7 1-5.5.2-8.2 0-.5-.3-.6-.7-.8a36 36 0 00-25.3-1.3c3.8-5 9.3-7.5 14.8-10l-1.8-3a12.3 12.3 0 01-1.7-8.7 10 10 0 014.2-6.3v.1l-.3 1.6c-.5 2.5-.5 5 .8 7.3 1.1 2.2 3 3.7 5 5 3.5 2.2 6.3 5 8.5 8.6 1.2 1.8 2 3.8 3 5.6 1.8 3.2 4.4 4.4 7.5 3.6a6 6 0 003.4-1.9c-.7.1-1.3.3-1.9.2-2-.4-3.6-1.5-4.5-3.4-.9-1.5-1.5-3.2-2.4-4.7-.9-1.5-2-2.4-3.9-2.2-.3 0-.4 0-.3-.4.2-1.4.7-2.7 1.8-3.7 1-.8 2-.9 3.1-.2.6.4 1 1 1.5 1.5 1 1.3 1.7 2.7 2.4 4.2.6 1.3 1.1 2.6 2.3 3.4.9.6 1.8 1 2.8.9.5 0 .8-.3.8-.8.1-.4-.2-.6-.5-.7l-1.6-.8c-1.2-.9-1.5-2-1.1-3.5l.5.4c2.4 2 5 3 8.2 2.5.3 0 .4 0 .3-.5A92.8 92.8 0 01161 70c0-1.5 0-3 .3-4.6.7.4 1 1 1.4 1.7l.2-.4c.5-1 .6-2.2.7-3.3 0-.4 0-.5-.4-.4-1.2.2-2.3.1-3.6 0a4 4 0 001.4-2.5c.3-1.5.1-3-.4-4.4-.7-2-1.8-3.7-3-5.3.3 0 .3-.3.4-.5 1.5-3.6 2.8-7.4 4.1-11.1a69.2 69.2 0 004.2-24.3c0-1-.4-2-1-2.7-.5-.6-1.1-1-1.7-1.5a22 22 0 00-8.6-2.8c-.1 0-.3 0-.4.2-.2.4-.6.5-1 .7-1.3.7-2.5 1.5-3.5 2.6-.3.3-.6.7-.7 1.1-.1.4 0 .7.4.5l1.3-.4c1-.4 2-.9 3-1 .7 0 1 .2 1 .8 0 .5-.4 1.2 0 1.5.4.2 1-.2 1.6-.2.8 0 1.7.1 2.3.8 0 .2-.2.2-.3.2-1.2.3-2.3.7-3.3 1.3a3.3 3.3 0 00-1.7 2.9c0 .4 0 .7.6.6h1.7c.9 0 1.7.2 2.6.8-2 .3-3.7.8-5.3 1.8-.3.2-.5.4-.5.8-.4 1.3-.5 2.6-.7 4 0 .3.1.4.5.4 1.5 0 3.1 0 4.6.6.6.3 1.3.5 1.8 1.2l-3.6-.2a5 5 0 00-2.3.6c-.5.3-.7.7-.6 1.3.6 2 .9 4 1.2 6.2 0 .4.2.6.7.7 1.2.4 2.3 1.2 3.2 2.3h-2.8c-.5.2-.6.3-.5.7l.2 1.5c.3 2.4 0 4.7.3 7-3.3-1.8-7-2.4-10.6-3.3 1.5-.8 3-1.3 4.7-1.3.3 0 .4 0 .4-.4a36.8 36.8 0 00-14.6-30.3c-5.2-4-11.1-6.1-17.7-6.3a35 35 0 00-9.4 1.2A28.5 28.5 0 0095 15.2a27 27 0 00-8 12.9c-.1 0-.2.2 0 .3v-.2l.2-.3c1.2-2.4 2.8-4.5 5-6.2.2-.1.2-.3.3-.6l.9-3 .8 1.5c0 .3.1.3.4.2.9-.7 2-1 3-1.3.3-.1.5-.3.6-.6l.7-3c.4.9.8 1.6 1 2.4.2.3.4.4.7.3l3.5-.4c.5 0 .8-.1 1-.6.4-1 1-2.1 1.8-3 .4-.3.7-.7 1.3-.9a5.7 5.7 0 00-.2 3.9c.1.2.2.4.5.4 1.3 0 2.6.4 3.9.7.4.1.6 0 1-.3 1.4-1.5 3-3 4.8-4h.1c-.8 1.7-1.2 3.5-1.6 5.3 0 .3 0 .4.3.5 1.2.4 2.4 1 3.5 1.6.3.1.5.2.8-.1a9 9 0 017.4-2l-1 .6a9.4 9.4 0 00-3.5 4.2c-.1.3-.2.6 0 .8 1 1 2 2.1 2.8 3.2.3.4.5.4.9.3 2-.7 4.2-1.2 6.4-1 1 0 1.8.1 2.7.7a13 13 0 00-6.9 3.3c-.9.8-.9.8-.3 1.9.8 1.6 1.3 3.1 1.7 4.7 0 .4.2.5.6.4l2.7-.4c2.3-.1 4.7 0 6.8 1 .3.2.7.3.9.6l-3 .3c-2.1.3-4.2.7-6 1.9-1 .6-1.7 1.4-1.8 2.6 0 .4 0 .7.6.7h2.3c1 .3 2.1.4 3.1 1.1h-.7c-2.4.2-4.7.6-7 1.2-3.7 1-7.2 2.5-10.1 5-.8.6-.8.7.1 1.2 4.3 2.4 8.6 1.6 12.8-.1-1.2 0-2.5 0-3.7-.3a8 8 0 01-3.6-1.6l.6-.1c2-.6 4.2-1 6.3-1.4 2.6-.3 5.3-.5 8 0 2.1.6 3.8 1.6 4.8 3.8 2 4.4 5.2 7.8 10 9.6-1 .2-1.7.2-2.5.2-2.4.1-4.5-.5-6-2.4l-.9-.9c-1-.8-2-1.4-3.3-1.7-.8-.1-1.6-.1-2.3.4 3.4 1.8 4 2.6 5.2 6.3a6.2 6.2 0 002.4 3.5c.4.3.6.3.9-.2.3-.9.8-1.6 1.7-2-.2 4.8 1.3 9.2 2.7 13.8l-1-.7a23.3 23.3 0 01-7-9.2c-.1-.2-.1-.6-.5-.5-2.1 0-4-.6-5.7-1.8a9.1 9.1 0 002.5 5.5 9.4 9.4 0 01-4-2.1 15.5 15.5 0 01-4.7-9.4c0-.3 0-.5-.5-.4a21 21 0 01-12.6-.9c1-.3 1.9-.4 2.7-1l-.9-.3c-2.9-.7-5.5-2-8.1-3.5-.4-.2-.7-.2-1 0a41.3 41.3 0 00-12 12.7c-4.8 8-7 16.6-7.2 26 0 .1.2.4 0 .5-.3 0-.4-.2-.6-.3-.9-.8-1.5-1.7-2.1-2.7l-2.2-4-.1.4c-.6 3-1.8 5.8-3.6 8.3a36.5 36.5 0 01-12 10.6l-1 .5 4-5.9A44.6 44.6 0 0061.1 113v-1l1.1-4c.2-.4.2-.7 0-1-.6-2-2-3.5-3.8-4.5-.4-.2-1-.7-1.2-.5-.4.4 0 1 .1 1.5.3.9.9 1.7 1.3 2.5-4.5-2-6.6-6-8.5-10.3a6 6 0 00-.7 1.8c-.7 2.9-.2 5.6.9 8.2-1.2.2-2.3-.3-3.4-.5.5 1.3 1.1 2.4 1.8 3.4 2.5 3.8 5.9 6.4 10.4 7.4.5 0 .6.3.7.7.5 3 .9 6.1 1 9.2zm25.5-79.7s0-.2-.1-.1c-.1 0 0 .1 0 .2.5 1.6 1.3 3 2.3 4.3 1.3 2 2.9 3.5 5 4.4.5.2.6 0 .7-.3l.4-2 1.1 2.3c.4.6 1 1 1.6 1.2 1.3.2 2.6.2 4 0 .4 0 1 0 1.4-.2a8.8 8.8 0 01-3-4c1.2.7 2.4 1.3 3.6 1.6 3.6 1.1 6.8 0 9-2.9.3-.4.2-.5-.3-.7-2-.6-4-1.5-5.5-3-.2-.1-.3-.2-.4-.5 1.6.4 3.3.6 5 .5 2.5-.1 3.7-1.1 4.2-3.6l.2-1.1c.3-4-.4-7.9-2.5-11.4-2.8-5-7.3-8-13.3-7.3-2.3.3-4.4 1-6.7 2 1.4.3 2.6.5 3.7 1 .2-.5.3-1 .7-1.4.3-.1.5-.3.5.1 0 .9.6 1.2 1.3 1.4l.9.5c.2.2.3.1.5 0l1.8-1.5c.4-.2.8-.5 1.3-.5l-.1.2-1.3 2.5c-.2.3-.2.5 0 .7l1.2 1.4c.5.5.6 1.3 1.2 1.5.6.1 1.3-.2 1.9-.2a8 8 0 013.8.3l-1.7.7c-1 .4-2 .8-2.7 1.4-.6.4-1 .9-.6 1.6l.3.9c1.1 5.5-.7 10.1-5.4 12.8a10 10 0 01-11 0c-1.2-.7-2-1.7-3-2.8zm64.2 66.7l.2.2 13 3.6c1.8.5 3.3.5 4.8-.6 1.4-1 3-1.7 4.2-2.9.4-.3.6-.7.6-1.3v-7c0-2.5 0-5 .3-7.5 0-.4-.2-.3-.4-.3-1.2 0-2.4 0-3.7-.4l.9-1c1.2-1 2.5-1.9 3.9-2.6.2-.2.5-.2.4-.6l-1.6-7.5c-.2-.4-.4-.7-.9-1a17 17 0 00-7-1.4c-.8 0-.8 0-.6.8l1.3 6.8c0 .5 0 1-.4 1.4l-1.9 2.2c-.2.2-.3.3-.2.6l.2 2a56.3 56.3 0 01-.2 15.8c-.2 0-.2-.2-.2-.4-.2-1.3-.4-2.6-.8-3.9-.1-.4-.2-.7-.7-.7a52 52 0 00-5.3-.4c-.5 0-.7.1-.6.6 0 1.6-.5 2.9-2 3.7-1.2.5-2.2 1.2-3.3 1.8zm9.3-15.5l-.3.2c-1.9 1.4-3.9 2.7-6.1 3.5-2.8 1-5.5.7-8.3 0-.5-.1-.5 0-.5.4l.7 7c0 .4.2.4.5.3l5-1.4c.4-.1.7-.4 1-.9l1-2.6a1 1 0 011-.7c.8-.2 1.7-.2 2.5-.3 1.6 0 3.1 0 4.7-.2l-1.2-5.3zm-41.3-50.9c2-.6 3.9-1.1 5.5-2.2.5-.3.9-.8.7-1.5l-.1-1.4c-.6-3.1-1.3-6.2-2.8-9-1.3-2.7-3-5.1-5.6-6.7l-1.8-.9-.1.1c5.8 6.3 6.5 13.6 4.3 21.6zm-21-8.3c-.2.4 0 .7 0 1.1 0 1.7.7 3.3 1.5 4.7.3.7.4.6.8 0a9.2 9.2 0 001.7-6 14 14 0 00-1.9-6c-.2-.3-.3-.3-.5 0-1 2-1.6 4-1.7 6.2zM163.5 55c.8 1.6 1.5 3.2 2.1 4.9.2.3.4.6.7.7.9.4 1.5 1 1 2.2l1.5-.3c.5-.1.5-.3.4-.7-1-3-3-5.2-5.7-6.8zm-21.2 12c-.4-.6-.9-1-1.2-1.6-.3-.4-.8-.9-.4-1.3.3-.4.8-.2 1.2 0 .4 0 .5 0 .4-.4-.5-1-1.2-1.6-2.2-2-.5-.3-.7-.2-.8.3-.8 2.1.5 4.4 3 5zm5.4 19.9l-.5-2.3c-.1-.3 0-1-.7-.8l-.2-.2c0-.5-.4-.3-.7-.2l-.9.3c1.1 1 2.2 2 3 3.2zm13.2 3h-.9c-.6.1-1.2.2-1.5.9-.2.2-.4.6-.1.8.2.2.5 0 .7-.1l.9-.5c.4-.3.8-.5.9-1zm-85.2 11.7z"/><path class="nbb_st2" d="M60.8 125.9c0-3.1-.4-6.2-.9-9.2 0-.4-.2-.6-.6-.7-4.6-1-8-3.6-10.5-7.4-.7-1-1.2-2.1-1.8-3.4 1.2.3 2.2.7 3.4.5-1-2.6-1.6-5.3-.9-8.2l.7-1.8c2 4.2 4 8.3 8.5 10.3-.4-.8-1-1.6-1.3-2.5-.1-.5-.4-1.1 0-1.5.2-.2.8.3 1.2.5 1.8 1 3.2 2.5 3.8 4.5v1c-.5 1.3-.9 2.6-1.1 4v1a44.6 44.6 0 0114.4-11.3l-4.1 5.9c.5-.1.8-.4 1.1-.5 4.7-2.8 8.9-6.1 12-10.6 1.7-2.5 3-5.2 3.5-8.3l.1-.4 2.2 4c.7 1 1.3 2 2.2 2.7.1.1.3.3.5.3.2-.1 0-.4 0-.6.2-9.3 2.4-18 7.3-26 3-5 7-9.2 12-12.5.3-.3.6-.3 1 0 2.5 1.3 5.2 2.7 8 3.4.3.1.6 0 .9.3-.8.6-1.7.7-2.7 1a21 21 0 0012.6.9c.5-.1.5.1.5.4.7 3.6 2 6.9 4.8 9.4 1.1 1 2.7 1.8 4 2.1a9.1 9.1 0 01-2.6-5.5 8.6 8.6 0 005.7 1.8c.4 0 .4.2.5.5 1.6 3.6 4 6.7 7 9.2l1 .7c-1.3-4.6-2.8-9-2.7-13.8-.9.4-1.4 1.2-1.7 2-.2.5-.4.5-.8.2-1.3-.9-2-2-2.5-3.5-1-3.7-1.7-4.5-5.1-6.3.7-.5 1.5-.5 2.2-.4 1.3.3 2.4.9 3.4 1.7l.8.9c1.6 1.9 3.6 2.5 6 2.4.8 0 1.6 0 2.5-.2a17.8 17.8 0 01-10-9.6 6.4 6.4 0 00-4.8-3.7c-2.6-.6-5.3-.4-8 0-2.1.2-4.2.7-6.3 1.3l-.5.1c1 .9 2.3 1.3 3.5 1.6l3.8.3c-4.3 1.7-8.6 2.5-12.9 0-.9-.4-.9-.5 0-1.1 2.9-2.5 6.3-4 10-5 2.3-.6 4.7-1 7-1.1h.8c-1-.8-2.1-1-3.2-1.1-.8-.1-1.5-.2-2.3-.1-.6 0-.6-.3-.6-.7.2-1.2 1-2 1.8-2.6 1.8-1.2 4-1.6 6-1.9l3-.3c-.2-.3-.5-.4-.8-.6a13 13 0 00-6.9-1l-2.7.4c-.4.1-.5 0-.6-.4a23 23 0 00-1.6-4.6v-.1c-.6-1-.6-1.1.3-1.9 1.9-1.7 4-3 6.8-3.3-.9-.6-1.8-.7-2.6-.7-2.3-.2-4.4.3-6.5 1-.4.1-.6 0-.8-.3l-2.8-3.2c-.3-.2-.2-.5 0-.8.6-1.8 2-3 3.4-4.2l1-.7a9 9 0 00-7.4 2c-.3.4-.5.3-.8.2a16 16 0 00-3.5-1.6c-.3 0-.3-.2-.3-.5.4-1.8.9-3.6 1.7-5.3 0-.2 0-.1-.1 0-1.9 1-3.4 2.5-4.9 4-.3.3-.6.4-1 .3-1.3-.3-2.6-.6-3.9-.7-.3 0-.4-.1-.4-.4-.4-1.3-.4-2.6.2-3.9-.6.2-1 .6-1.3 1-.9.8-1.5 1.8-2 3-.1.4-.4.5-.8.5-1.2 0-2.4.2-3.5.4-.4.1-.5 0-.7-.3l-1-2.4-.8 3c0 .3-.2.5-.6.6-1 .3-2 .6-3 1.3-.2.1-.3 0-.4-.2l-.8-1.4-.9 3c0 .2 0 .4-.3.5a17.4 17.4 0 00-5 6.2l-.1.3-.1-.1a27 27 0 018-12.9c3.6-3.2 7.8-5.3 12.4-6.4a35 35 0 019.5-1.2c6.5.2 12.5 2.3 17.7 6.3a36.9 36.9 0 0114.6 30.3c0 .3-.1.4-.5.4-1.7 0-3.2.5-4.7 1.3 3.7.9 7.4 1.5 10.6 3.4 0 .3.3.3.5.4l2.3 1a20 20 0 013 5.4c.5 1.4.7 2.9.4 4.4-.1 1-.5 1.8-1.3 2.6 1.2 0 2.3.1 3.5-.1.4-.1.5 0 .4.4 0 1.1-.2 2.3-.6 3.3l-.3.4c-.4-.6-.7-1.3-1.4-1.7l-.3 4.7a91 91 0 001.4 17.7c.1.5 0 .5-.3.5-3.1.5-5.8-.6-8.1-2.5l-.5-.4c-.5 1.4-.1 2.6 1 3.5l1.6.8c.3.1.6.3.6.8-.1.4-.4.7-.8.7-1 0-2-.3-2.9-.9-1.1-.8-1.7-2.1-2.3-3.4a23 23 0 00-2.4-4.2 6 6 0 00-1.5-1.5c-1-.7-2.1-.6-3 .2-1.2 1-1.6 2.3-1.9 3.7 0 .3 0 .4.3.4 1.8-.2 3 .7 4 2.2l2.3 4.7c1 1.9 2.4 3 4.5 3.4.6.1 1.2-.1 2-.2a6 6 0 01-3.5 2c-3 .7-5.7-.5-7.4-3.7l-3-5.6c-2.2-3.5-5-6.4-8.6-8.6-2-1.3-3.8-2.8-5-5a10.4 10.4 0 01-.8-7.3l.4-1.6v-.1h-.1a10 10 0 00-4.2 6.3c-.7 3.1.2 6 1.7 8.8.5 1 1.2 1.9 1.8 2.8-5.4 2.6-11 5.1-14.7 10.2l4.4-1.1a35.7 35.7 0 0120.8 2.3c.4.2.6.4.8.8.8 2.7.5 5.5-.2 8.2l-.5 1.4c.8 0 1.5-.1 2.2-.4.4-.1.6 0 .6.4.4 3 .9 6 1.6 8.9.7 3.3 1.6 6.6 3.1 9.7l.1.1c.9 1 .6 1.9.1 2.9-.8 1.8-2 3.3-3.5 4.6-.1.2-.3.3-.6.3-4.3-.1-8.6-.7-12.6-2.6-.8-.3-1.5-.7-2.1-1.3-.4-.3-.8-.3-1.3-.2-2.3.4-4.7.5-7 0l-2-.9c-.4-.1-.5-.3-.3-.6 1.3-2.3 2.8-4.3 5-5.7.3-.3.4-.6.3-1l-.8-1.5c1.4-.4 2.9-.6 4.3-1.3a12.4 12.4 0 00.7 7c.8-2 1.6-4 3.7-5.3 0 1 .1 2.1.4 3.2.3 1 .6 2 1.4 3 0-1.3.1-2.5.5-3.5.3-1 .8-1.7 1.5-2.3.2-.2.3-.4.2-.6-2.4-6.6-6.1-12.2-12-16.2h-.2l1 2c.7 2.1 1.1 4.3 1 6.5 0 .5-.2.6-.7.7h-11.2a58.3 58.3 0 01-9.5-1c-1.4-.2-2.2-1-3-2.2-1-2-2.1-3.8-3-5.9l-.2-.4c-.3 1.3-.3 2.5-.2 3.6.1 3 .7 5.9 1.6 8.7 0 .4.2.5.5.5 2.4.3 4.8.6 7.3.6a95.7 95.7 0 01-20.8 10.3c.7-4.7.5-9.3-.8-13.9l-1 5.3c-1.6 7.2-4 14.1-7.7 20.6-.6-.3-1-.9-1.5-1.3l-9.2-8.6c-.7-.5-1.4-1-1.9-1.7z"/><path class="nbb_st3" d="M107.8 123.2c0 .4-.4.6-.6.8a5 5 0 00-1.3 3.9c0 .5.2.9.7 1.2a29 29 0 0010.2 4.8c2.2.5 4.5.7 6.9.6.4 0 .9 0 1.3.2 3.9 1.4 7.8 2.6 11.8 3.5 1.6.3 3.2.6 4.9.3 2.2-.3 4-1.6 5.7-3 .2-.2.3-.4.5-.4v32.5c0 1-.6 2-1.6 2.2-.2.1-.3 0-.4-.2-.5-1.4-1.6-1.8-3-1.8h-6.7c-1 0-2 .2-2.6 1.2-.3.6-.5 1.2-.4 1.8l.5 9.3.1 2.8.5 10.2v.6l-1.2-1.1-16.5-15.2-13.2-12.2-14.6-13.5-2-1.8c-.4-.3-.4-.5 0-.8 3-3 5.8-6.1 8.2-9.6 3-4.2 5.6-8.7 7.1-13.7 0-.2.1-.3.3-.4l5.4-2.2zm19.2 41l4.3 3h.1l-1.5-5.4c.2 0 .3-.2.5-.3 1.2-1 2.4-1.8 3.6-2.9 0 0 .3 0 .3-.2h-.8c-1.6-.2-3.2 0-4.8-.3-.5-1.5-.9-3-1.5-4.4 0-.3-.2-.5-.4-.7l-.2.3-1.4 4.1c-.2.6-.4.7-1 .7h-4.8v.2l.6.5 3.7 2.9-.2.8-1.4 4.6c.3 0 .4-.2.6-.3l3.6-2.4c.2-.1.4-.3.7-.2zM83.4 54.7c1 1.4 2 2.8 3.2 4 .3.4 0 .5 0 .7-1.7 2.8-3.1 5.6-4.2 8.6a42 42 0 00-2.6 10c0 .8 0 .8.7.7.8-.2 1.6-.3 2.3-.6.5-.1.5 0 .5.4a41 41 0 01-1.2 8c-.5 1.6-1 3.2-1.8 4.7-.5 1-1.5 1.1-2.3 1.5a58 58 0 00-11.8 6.5c-1 .7-1 .7-1.8-.2a23.6 23.6 0 00-9-6.5c-.6-.3-1-.6-1.1-1.2-.7-1.8-1-3.8-1.4-5.7a14 14 0 00-6.9 5.7 19 19 0 00-2.7 7c-.1.6-.4.6-.8.4-.2 0-.3-.2-.5-.4l-2-2c-.3 4 .1 8 1.5 11.9l-4-3.7-14.9-13.7c-.4-.4-.5-.7-.5-1.2v-19l12.3-3.3v.2l-10.1 6.3.4.1 13.5 2.4c.4.1.7 0 1-.3l31-30c.3-.2.5-.3.9 0l11.6 8.2.6.4.1.1z"/><path class="nbb_st4" d="M83.3 54.6l-.6-.4L71.1 46c-.4-.3-.6-.3-1 0l-31 30c-.2.3-.5.4-1 .4l-13.4-2.5h-.4l10.2-6.4-.1-.2L22 70.5v-1.3l.6-.3c3-1.7 5.9-3.5 9-5 3-1.7 5.7-3.7 8-6.4 2.2-2.6 4.7-5 7-7.6l.2-.2c0-.2 0-.1-.1 0h-.1l-12.3 9-.7.4-11.6 5v-3.9l1.6-1.1 18-13h.1c0-.2-.2 0-.2 0-2.3.9-4.5 2-6.7 3-4.4 2.2-8.7 4.7-12.8 7.5V53l2.6-3.6c.2-.3.4-.4.8-.5l3.4-.9c.4 0 .7-.2 1-.5l11.2-9.2 14.2-11.9c.4-.3.6-.3.9.1l1.5 2.1c.5.6.4.9-.1 1.3l-7.2 6.8-.2.2.3-.1C52 36 53.5 35 55 34a85 85 0 0020.2-19.5l.5-.7v.6c-.2 2.2-.5 4.5-.5 6.7 0 2-.8 3.6-1.9 5.2l-1 1.4c-.3.6-.8 1-1.4 1.5l-9.5 7.5c-.3.2-.5.5-.7 1l-2 4.4-.7.9-8 7c-.1 0-.4.1-.3.4h7l.2.2-.7.5-7.4 7.5v.2l-.3.1v0h.3l.1-.2.6-.3 22-15.5c.3-.2.5-.4.9 0l9.2 8.7c.8.8 1.3 1.8 1.7 2.9zM34.6 67.3z"/><path class="nbb_st5" d="M22.2 11h52.6l-.2.7-3.2 4.7c-.3.6-.8.9-1.3 1-2.3 1-4.5 2-6.8 2.8-.4.2-.6.5-.5 1v2.7l-.2.1-.4-.5-3.8-4.2c-.3-.3-.5-.3-.8 0l-5 4.1-9.7 7.8-9.6 7.9-9.6 7.8c-.5.3-.9 1-1.6.9v-.5-35.7-.5l.1-.1z"/><path class="nbb_st6" d="M22.1 47.8c.8 0 1.1-.6 1.6-1l9.6-7.7 9.7-7.9a6581.3 6581.3 0 0014.6-12c.3-.2.5-.2.8.1l3.8 4.2.4.5h.2V21c0-.5 0-.7.5-.9l6.8-2.7c.5-.2 1-.5 1.3-1 1-1.7 2.1-3.2 3.2-4.8.1-.2.3-.4.2-.7h1.8c1.6 1 3.4 1.5 5 2.7l3.5 2.5a33.3 33.3 0 00-6.6 21.4c.1 4.7 1.2 9.2 3.1 13.5 0 .2.4.4 0 .6-3-3-6.1-5.8-9.2-8.7-.4-.4-.6-.2-.8 0l-22 15.5-.6.3h-.2l7.4-7.6.7-.5-.1-.2h-7.1c0-.3.2-.3.3-.5a1724.8 1724.8 0 018.6-7.8l2-4.5.9-1 9.4-7.4 1.5-1.5 1-1.4a8.8 8.8 0 001.8-5.2c0-2.2.4-4.5.5-6.7v-.6l-.5.7a84.5 84.5 0 01-24.7 22.2l-.1-.1 7.2-6.8c.5-.4.6-.7.1-1.3l-1.5-2.1c-.3-.4-.5-.4-.9-.1L41.1 38.3l-11.2 9.2c-.3.3-.6.4-1 .5l-3.4.9c-.3 0-.6.2-.8.5L22.1 53v-5.2z"/><path class="nbb_st1" d="M22.1 64.1l11.6-5 .7-.4 12.3-9v.2c-2.3 2.5-4.8 5-7 7.6-2.3 2.7-5 4.7-8 6.3l-9 5-.6.4v-5zM22.1 56.5c4.1-2.7 8.4-5.2 12.8-7.4 2.2-1 4.4-2.1 6.7-3l-17.8 13-1.7 1.1v-3.7z"/><path class="nbb_st7" d="M85.1 16.2c-1.1-1-2.4-1.7-3.5-2.5-1.6-1.2-3.4-1.8-5-2.7H90a43.2 43.2 0 00-4.8 5.2z"/><path class="nbb_st3" d="M107.8 123.2h0z"/><path class="nbb_st4" d="M83.4 54.7l-.1-.1.1.1z"/><path class="nbb_st7" d="M22.2 11z"/><path class="nbb_st0" d="M157.5 50.7l-2.3-1c-.2-.1-.5-.1-.5-.4-.2-2.4 0-4.8-.2-7.1l-.2-1.5c-.1-.4 0-.6.4-.7a15 15 0 012.9 0c-1-1.2-2-1.9-3.3-2.3-.4-.1-.6-.3-.6-.8l-1.2-6.2c-.2-.6 0-1 .6-1.3a5 5 0 012.3-.5c1.1 0 2.3 0 3.5.2-.5-.7-1.1-1-1.8-1.2a12 12 0 00-4.6-.6c-.4 0-.5-.1-.4-.5.2-1.3.3-2.7.6-4 0-.3.3-.6.6-.8 1.5-1 3.3-1.5 5.2-1.7-.8-.6-1.7-.8-2.5-.9h-1.8c-.5.1-.6 0-.6-.5 0-1.3.6-2.3 1.7-3 1-.5 2.2-1 3.3-1.2.1 0 .3 0 .4-.2-.7-.7-1.5-.8-2.4-.8-.5 0-1.2.3-1.5.1-.4-.2 0-1 0-1.4-.1-.6-.4-.9-1-.8-1.1 0-2 .6-3 1l-1.3.4c-.5.2-.6 0-.5-.5.2-.5.5-.8.8-1.2 1-1 2.2-1.9 3.5-2.5l1-.7c0-.2.2-.2.4-.2 3 .5 5.9 1.2 8.5 2.8.6.4 1.2.9 1.7 1.5.7.8 1 1.6 1 2.7.1 8.4-1.4 16.4-4.1 24.2-1.4 3.8-2.7 7.5-4.2 11.2-.1.2 0 .5-.4.4z"/><path class="nbb_st2" d="M150.5 113l3.2-2c1.6-.7 2-2 2-3.5 0-.5.2-.6.7-.6l5.3.3c.5 0 .6.4.7.7.4 1.3.6 2.7.8 4 0 .1 0 .2.2.3l.6-3c.4-4.3.2-8.6-.4-12.8l-.2-2c0-.2 0-.4.2-.6l2-2.2c.2-.4.4-.9.3-1.4l-1.3-6.7c-.2-.8-.2-.8.7-.8 2.4 0 4.7.4 7 1.4.4.2.6.5.8 1l1.6 7.4c.1.4-.2.5-.4.6-1.4.8-2.7 1.6-4 2.7l-.8 1c1.3.3 2.5.3 3.7.4.2 0 .5-.1.4.3-.4 2.4-.3 5-.3 7.4v7c0 .6-.2 1-.6 1.4-1.3 1-2.8 1.8-4.2 2.8-1.5 1-3 1.1-4.8.6l-13-3.6-.2-.2z"/><path class="nbb_st8" d="M86.3 46.2c1 1 1.8 2.1 3 2.9a10 10 0 0011 0c4.7-2.8 6.6-7.4 5.4-12.9 0-.3 0-.6-.2-.8-.4-.8 0-1.2.5-1.7.8-.6 1.8-1 2.7-1.4l1.7-.6a7.7 7.7 0 00-3.8-.4c-.6 0-1.3.3-1.9.2-.6-.2-.7-1-1.1-1.5l-1.2-1.4c-.3-.2-.3-.4-.1-.7l1.3-2.5.1-.2c-.5 0-.9.3-1.2.5-.7.4-1.3 1-1.8 1.5-.2.2-.4.2-.6 0a3 3 0 00-1-.5c-.6-.2-1.1-.5-1.1-1.3 0-.5-.3-.3-.5-.2-.5.4-.6 1-.8 1.4a15 15 0 00-3.7-.9c2.3-1 4.4-1.8 6.7-2 6-.8 10.5 2.2 13.4 7.2a19.4 19.4 0 012.2 12.5c-.5 2.5-1.7 3.5-4.2 3.6a18 18 0 01-5-.5c0 .3.3.4.4.5 1.6 1.5 3.5 2.4 5.5 3 .5.2.6.3.3.7-2.2 3-5.3 4-9 3-1.2-.4-2.3-1-3.6-1.7a9 9 0 003 4c-.4.3-1 .3-1.4.3-1.3.1-2.6.1-4-.1-.6-.2-1.1-.6-1.5-1.2-.5-.6-.8-1.4-1.1-2.3l-.5 2c0 .4-.2.5-.6.3-2.2-.9-3.8-2.5-5.1-4.3a17.4 17.4 0 01-2.2-4.5z"/><path class="nbb_st9" d="M159.8 97.4l1.2 5.3c-1.6.2-3.1.2-4.7.2l-2.5.3c-.5 0-.8.3-1 .7l-1 2.6c-.3.5-.6.8-1 .9l-5 1.4c-.3.1-.5.2-.6-.3l-.6-7c0-.4 0-.5.5-.4 2.7.8 5.5 1 8.2 0 2.3-.8 4.3-2 6.2-3.5l.3-.2z"/><path class="nbb_st5" d="M118.5 46.5c2.3-8 1.5-15.3-4.2-21.6l.1-.1 1.8 1c2.6 1.5 4.3 3.9 5.6 6.5 1.5 3 2.2 6 2.8 9.1l.1 1.4c.2.7-.2 1.2-.7 1.5a18.5 18.5 0 01-5.5 2.2zM97.4 38.2a14 14 0 011.7-6.2c.2-.3.3-.3.5 0 1 1.9 1.8 3.8 2 6 0 2.2-.5 4.2-1.7 6-.5.6-.5.7-.9 0a10 10 0 01-1.4-4.7c0-.3-.3-.7-.2-1z"/><path class="nbb_st9" d="M163.6 55c2.6 1.6 4.6 3.8 5.7 6.8.1.4 0 .6-.4.7l-1.5.3c.5-1.2-.1-1.8-1-2.2-.4-.1-.5-.4-.7-.7l-2-5z"/><path class="nbb_st8" d="M142.4 67c-2.5-.6-3.8-2.9-3-5 .1-.5.3-.6.8-.4 1 .4 1.8 1 2.2 2.1.1.4 0 .5-.3.4-.5-.1-1-.4-1.3 0-.4.4.1.9.4 1.3l1.2 1.6zM147.8 86.9c-.8-1.2-1.9-2.2-3-3.2l1-.3c.2-.1.5-.3.6.2l.2.2c.7-.1.6.4.7.8l.5 2.3z"/><path class="nbb_st9" d="M161 90c-.1.4-.5.7-1 1l-.8.5c-.2 0-.5.3-.7.1-.3-.2 0-.6 0-.8.4-.7 1-.8 1.6-.9h.9z"/><path class="nbb_st8" d="M86.2 46.3s-.1-.2 0-.2v.1z"/><path class="nbb_st2" d="M87.2 28.1l-.1.3V28zM75.8 101.6z"/><path class="nbb_st1" d="M126.9 65.7s0-.1 0 0c.1 0 0 0 0 0zM118.4 13.3s0-.1.1 0v.1h-.1z"/><path d="M122.7 166.8c-.2.1-.3.3-.6.3l1.4-4.6c.1-.2.3-.5.2-.8l1-.6c.3 0 .6-.1.5-.5 0-.3-.3-.3-.5-.4l-4.1-1.4c-.2 0-.4-.3-.6 0l-.6-.4v-.2h4.8c.6 0 .9-.2 1-.7l1.5-4.2s0-.2.2-.3c0 .3.3.5.3.8l-.1.1-.2 4.6c0 .4.2.4.5.3l1.3-.7c1.6.2 3.2.1 4.8.2l.8.1c0 .2-.2.2-.3.3h-.3a205 205 0 01-5.5 1.7c-.5.2-1.3.3-1.6.8l-3.2 4.5c-.3.3-.7.6-.7 1.1z" fill="#d2d2d3"/><path d="M122.7 166.8c0-.5.4-.8.7-1.2l3.2-4.4c.3-.6 1-.6 1.6-.8l5.5-1.7h.3l-3.6 2.8-.5.4h-1c-.6 0-1.3-.2-1.3.7 0 .3-.2.6-.3.8-.2.3-.3.5-.3.8-.3-.1-.5.1-.7.3l-3.6 2.3z" fill="#878888"/><path class="nbb_st12" d="M127 164.2c0-.3.2-.6.3-.8l.4-.8c0-1 .6-.8 1.1-.8h1.1l1.6 5.3-.2.1-4.3-3zM120 158.8c.2-.3.4 0 .5 0l4.2 1.4c.2 0 .5 0 .5.4s-.2.4-.4.5l-1.1.6-3.7-3zM128.7 158.1l-1.3.7c-.3.1-.5 0-.5-.3l.2-4.6v-.2c.7 1.5 1.1 3 1.6 4.4z"/><path class="nbb_st6" d="M48.8 59h-.3l.2-.2.1.1z"/><path class="nbb_st1" d="M41.6 46h.2c.1.1 0 .1-.1.2l-.1-.1z"/><path class="nbb_st6" d="M50.5 36.8h-.3l.2-.1zM48.5 59v.1z"/><path class="nbb_st3" d="M34.6 67.3z"/><path class="nbb_st1" d="M46.7 49.7h.1v.2l-.1-.2zM46.8 49.6s.1-.1.2 0l-.1.1h-.1z"/><path class="nbb_st6" d="M48.7 58.9l.1-.2.1.1-.1.1z"/></svg>