<svg version="1.1" id="Layer_1" xmlns="http://www.w3.org/2000/svg" x="0" y="0" viewBox="0 0 200 200" xml:space="preserve"><style>.nl_st0{fill:#020202}.nl_st1{fill:#c9c8c8}.nl_st2{fill:#4d4d4d}.nl_st3{fill:#4c4c4c}.nl_st5{fill:#fdfdfd}.nl_st6{fill:#fefefe}.nl_st7{fill:#cacaca}.nl_st8{fill:#c9c9c9}.nl_st9{fill:#f80404}.nl_st10{fill:#f0f0f0}.nl_st11{fill:#d9d9d9}.nl_st12{fill:#060606}</style><path class="nl_st0" d="M49.8 147.9c-1.8 1-3.5 2-5.4 2.8a37.5 37.5 0 01-22.2 2.2 94 94 0 01-14.5-4.4c-.2 0-.5 0-.6-.3 0-.2.2-.2.3-.2a93.4 93.4 0 0015.5-6.4c3-1.7 5.9-3.5 8.6-5.7a30.2 30.2 0 009.8-16l-1.5-5.2A136.7 136.7 0 0134 90.2c-.5-4.1-.8-8.2-.7-12.3.1-8 1.4-15.7 4.2-23.1a53 53 0 019.8-16.3c3-3.3 6.2-6.1 10-8.4l.4-.2-.6-1c-2.4-3.4-4.7-7-6.8-10.7-1.3-2.4-2.6-5-3.6-7.6a16 16 0 01-1.2-4.8v-.4c0-1 0-1 .8-1.4A33 33 0 0156 .6C59.5 0 63 0 66.7.1c4.8.4 9.5 1.5 14 3 4.6 1.6 9 3.6 13.3 6 .7.4 1.5.7 2.3.9 2.5.4 5 1 7.4 1.7l7 2c.7.3 1.3.3 2 .2a44.7 44.7 0 0111.6 0l1.1.5a113 113 0 017.7 5.5c.5.4 1 .6 1.6.8a77.2 77.2 0 0144.6 30.7l.5.2 1-.1c1.5-.2 3-.1 4.4.3 1.2.3 2.3.9 3.1 1.8 1.8 1.8 3 3.9 3.3 6.4.3 2-.3 3.5-2 4.6l-1.5 1.2c-.7.6-.5.5-.3 1.2a76 76 0 015.6 32.2 76.8 76.8 0 01-17.8 46.8 77 77 0 01-37.4 25c-.5 0-.9.3-1.1.8a18.3 18.3 0 01-5 6.6c-.4.3-.5.5-.4.9.6 5.4-1 10-5 14a23 23 0 01-4.8 3.7l-5 2.8-.3.1c-.3.2-.4 0-.4-.2l.3-3.7v-3.6c0-2.6-.6-5-1.6-7.4a32.6 32.6 0 00-7.5-10.8c-.3-.3-.6-.5-1-.5a76.6 76.6 0 01-40-17c-.4-.4-.8-.5-1.3-.2a51.5 51.5 0 01-17 4c-3.3.3-6.5.2-9.7.1H32c.1-.4.4-.5.6-.6l9.5-5.4c3-1.6 5.5-3.8 7.6-6.4l.3-.3s.1-.2 0-.2H50l-.2.2zm76.1 16.2V163l-.3-.3c-.5 0-1 0-1.6.3l1 1.3.8 1.1.3.1c0-.5 0-1-.2-1.4zm14.8-40.4a5 5 0 00-.4-2c0-.1-.2-.2-.3 0-.8 1-1.5 2.2-2 3.6v.3h.3c.7-.1 1.3-.6 2-.8.2 0 .3-.2.4-.4v-.7zm9.4-2.5l.2-.4c0-.4 0-.5-.4-.6-.7-.3-1.5-.5-2.2-.5-1.2-.1-1.7-.1-1.2 1.5 0 .6.3 1 .7 1.5.3.5.5.5 1 .2l.4-.3 1.5-1.4zm-4.5.3c0-.5-.2-.9-.3-1.3 0-.2-.2-.3-.4-.3-1 0-2 .2-2.8.7-.6.3-.9.7-.7 1.3l.1 1v.5c.3.7.4.8 1 .7l2.1-.6c1.2-.3 1.2-.3 1.1-1.5l-.1-.5zm-62 35.3c0-.2-.3-.3-.4-.4-1.3-1-2.6-2-3.8-3.3-.8-.8-1.7-1.5-2.7-2.2-.8-.5-.7-.6-1.6 0l-.5.4-.5.3a39 39 0 01-5.6 3.3c-.1.1-.2.2 0 .3l.6.6a74.7 74.7 0 0034 15h.6v-.2l-2.6-2a.4.4 0 00-.5-.1l-.3.1c-1.3.6-3-.4-3-2v-.5c0-.2 0-.4-.3-.5l-3.5-2.3a128.8 128.8 0 01-9.9-6.5zM137.5 89h.2c1.6-.9 3.3-1.4 5-2 .6 0 1.2-.3 1.7-.6 0-.2-.2-.2-.4-.3-.9-.3-1.7-.8-2.4-1.4l-1.9-1.6c0-.1-.2-.3-.4-.2l-.1 1.7c-.3 1.3-.8 2.6-1.5 3.7 0 .2-.3.4-.2.7-.1 0-.2 0-.1.1h.1zm13.3-51.5l.2.5 1.3 1.8c.2.4.5.7 1 1 2.5 1.7 5 3.6 7.3 5.7.2.2.3.4.5.4 1 .4 2.1 1 3.2 1.2.3 0 .5.2.7.3l6.2 2.3c.4.1.7.2 1.2 0 1-.3 1.7 0 2.4.7l.3.5c.2.4.5.5 1 .4l.6-.2c0-.4-.3-.6-.5-.9a75.7 75.7 0 00-36.6-26.6c-.3 0-.5-.2-.7 0v-.2h-.2l.2.1c0 .4.4.5.6.7a86 86 0 0110.6 11.5l.5.6c0 .1 0 .2.2.2zm-8.2 40.4l-3 2 .2.2c1.1.8 2.1 1.8 3.1 2.7.6.5 1.2 1 2 1.4a8.1 8.1 0 006.8.7c.7-.2 1.3-.5 1.6-1.2.7-.7 1-1.6 1-2.5l.4-3.5V77v-2.2c0-.3 0-.4-.4-.4-1.7-.2-3.4-.1-5 .2-1.2.3-2.4.7-3.4 1.4-1.2.4-2.2 1.1-3.3 1.8zM114.1 114l-2.4-1.4-2.2-1.5-.1.6-.7 2.7c-1.6 5-4 9.7-7 14.1-.4.6-.8 1.3-.9 2-.2 1.1-.1 2.2 0 3.3a32 32 0 002.3 8.2 7.6 7.6 0 002.2 3 12 12 0 002.7 1.6c1.4.7 2.9 1.3 4.4 1.7 3.3 1.1 6.7 2.2 9.9 3.6 0 0 .2.2.4 0l-.4-1.5c-.5-1.5-.7-3.2-1.1-4.7-.5-3-.9-6.1-1-9.2l-.1-1.4v-.9c0-2.1 0-4.2.2-6.4.1-1.8.4-3.7.8-5.6.9-3.8 2.8-7.1 5.8-9.7 1.3-1.3 2.8-2.3 4.3-3.3 2-1.2 3.9-2.3 5.9-3.2l.7-.4s.2-.1.2-.3v-1l-.1-1.2c-1.8 0-3.6.4-5.4 0l1-.5c2-1 3.5-2.3 4.5-4.2l.7-1.2a4 4 0 011.5-1.5c2.2-1 4.4-1.4 6.6-.1l1.6 1 1 .5.6.4v.3c-.6 0-1.2-.2-1.7-.3-1.5-.1-2.9-.1-4.3.1-.9.2-1.5.6-2 1.4-.3.5-.6 1.1-.6 1.8-.3 1-.2 2 0 3 0 .4 0 .8.2 1.2.2.3.4.5.8.5h1a54.1 54.1 0 0113.5-.7l3.1.6h.3c.5 0 .8 0 1-.5l.1-.7a6 6 0 00-1.5-4.6c-.6-.6-1.2-1.3-1.6-2a8 8 0 01-1.5-4.6l-.1-2c-.4-2-1.5-3.4-3.5-4a12.6 12.6 0 00-7 .4 50 50 0 00-4.6 2l-6 2.6c-1.9.9-3.9 1.6-6 2v-.3c2.5-1.4 4-3.7 4.9-6.3.1-.3 0-.4-.2-.5l-4.5-.6c-.2 0-.4 0-.6.3l-.2.3a105 105 0 00-6.3 9 51.9 51.9 0 00-4.3 8c0 .4-.3.6-.3 1-.4.8-.6 1.8-.9 2.7 0 .2 0 .4.2.6.7.7 1.3 1.3 2.2 1.8.7.4 1 1 1 1.8v1l-.5 2.2c-.8 3-2 5.8-3.2 8.5h-.4a144.5 144.5 0 00.8-6.6c0-1-.5-1.5-1.2-2l-2-.9zm34.2 11.3c-.7.2-1 .7-1.6 1.1-1.2 1-2.5 1.7-4 2.2l-2 .6-2.2.8c-1.2.7-2 1.6-2.2 3a9.4 9.4 0 000 3.5l1 6 2 11.1c0 .4.2.6.6.7l3.1.6c2 .5 4 .8 6.1.8 1.1 0 2.2 0 3.2-.5 2.7-1.4 4.6-3.6 5.7-6.4v-.6c.2-.2.2-.5.3-.7.1-1.2-.1-2.3-.5-3.3-.4-1.3-1-2.5-1.6-3.8-.4-1-.9-2-1.1-3a7 7 0 01-.3-2.9v-.5c-.8-.2-1.3-.2-2.1.2-1 .4-1.9 1-2.7 1.8-.2.2-.4.5-.7.6v-1.8c.4-1.2 1.1-2.2 2.2-3 .9-.6 1.9-1 3-1.4.8-.3 1.7-.5 2.6-.6.8-.1 1.5-.4 2.2-.8.6-.5 1.1-1 1.3-1.8.4-.7.3-1.6.1-2.4-.2-.8-.7-1.3-1.5-1.6l-.7-.3c-1.8-.5-3.5-.5-5.3-.2-.9 0-1.7.3-2.5.8-1 .5-1.7 1-2.4 1.8zm-4 33.3l-1.2-.3c-1.4-.3-1.4-.3-2.7.3h-.1c-.2.2-.3.3-.3.5v1.3l-.1.6c-.2 2-.5 4-1 6-.1.4-.3.7-.2 1 .4.2.7 0 1-.1a75.1 75.1 0 0047.4-95.7c-.3-1.3-.7-2.5-1.3-3.7 0 0-.2 0-.2.2a82.5 82.5 0 00-4.7 6.6l-.5.7c-.5.5-.6 1-.3 1.8a69.4 69.4 0 01-.4 38.4c-3.4 10.6-9 19.9-17 27.8-.3.4-1 .7-1 1.2-.2.6 0 1.3 0 1.9-.2.7-.2 1.5-.5 2.2-1.2 4-3.8 7-7.5 8.9-1 .4-1.9.6-2.9.8h-.5l.2.8a2.2 2.2 0 01-3.3 2.5c-.8-.5-1.2-1.6-1-2.5l.5-1c-.9 0-1.7-.3-2.5-.2zM84 84.5c-.3.1-.5.4-.7.7a58.4 58.4 0 00-8.5 17.3l-1.4 4.5c0 .3 0 .5-.3.7v-1.4l.7-4.8a76 76 0 013.5-14v-.4l.2-.1v-.2.1l-.1.2c-.3 0-.3.3-.5.4-2 2.9-3.5 5.9-4.9 9-1.2 2.8-2.2 5.6-3.2 8.4-1.4 4-2.8 8.1-4.6 12a67 67 0 01-6.2 10.4l-2 2.4c-.1.2-.2.4-.5.3l.1-1.3c.1-.7 0-1.4.2-2.2V125l-.2-1.4c.1-1.5-.2-3-.5-4.5a48 48 0 00-1.2-5.6c-.2-.4-.2-.8-.5-1.2-.2-.4-.1-1-.2-1.4-1.1-3.5-2.2-7.1-3.1-10.8 0-.2 0-.4-.3-.6v.6c0 2.8 0 5.6-.2 8.5l-.6 5.7c-.4 1.9-1 3.8-1.7 5.6l-1.2 3a49.8 49.8 0 01-4 8c-2.1 3.7-4.6 7.1-7.3 10.3-1.2 1.5-2.6 2.9-3.9 4.3l-.2.4h.6a42.7 42.7 0 0018.7-6.5h-5.2c-.5 0-.9 0-1.4-.2l1.5-.7a58.5 58.5 0 0012-7.1 24 24 0 004.8-5.5c.1 0 .1-.3.3-.3l.1.1c0 1.6 0 3.2-.2 4.8l-.3 1.8a46.5 46.5 0 01-9.7 18.7c-.1.1-.3.2-.2.4h.8c3-.6 6-1.3 8.8-2.5 2-.9 3.8-1.8 5.5-3.2.2 0 .4-.2.3-.4 0-.2-.2-.2-.4-.3h-.6c-.9 0-1.8-.2-2.7.1h-.3-.3c.1-.3.3-.3.4-.4l5.4-3c.6-.3.6-.4.5-1l-.3-2.5c0-2.4-.2-4.8.3-7.1.4-1.6 1-3.2 1.8-4.5.4-.6.7-1.2.8-1.8.8-2.8 1.9-5.5 3.4-8 .3-.4.4-1 1-1.2H76l-.2 1.6-.4 3.6c-.2 1.4-.2 2.8-.3 4.3-.1 1 0 2.1.1 3.2a26.6 26.6 0 001.9 8.8 26 26 0 003 5.6l2 2.5c.8 1 1.8 1.7 2.7 2.6H85.1v-.4c-.7-1.5-.9-3.1-1-4.7v-2.8l.2-2 .2-.5.1.3.8 4c.6 3.2 2 5.9 4.2 8.2 2 2 4.2 3.7 6.5 5.3a139 139 0 019.8 7.4l5.3 4.8 1.3 1.4a40 40 0 017.6 11.2c.9 2 1.5 4 1.7 6.2a18 18 0 01-.6 6.8c0 .1-.2.3 0 .5l.3-.1 2-1.5a13.2 13.2 0 005-12.1c-.3-2.4-1.1-4.7-2.1-6.9a42.2 42.2 0 00-12.2-14.8l-6.6-5.2a51.9 51.9 0 01-8.4-8.2 32 32 0 01-3.4-6.6l-.4-1.1-.2-.1-.2.1c-.6 2.1-1 4.2-.8 6.4l.1.7c.3 1.2.7 2.3 1.3 3.4.1.3.4.6.4 1l-.4-.1a14.8 14.8 0 01-3.8-4.2 9.4 9.4 0 01-1.3-5.9c.3-2 1-3.8 1.8-5.5 1.3-2.5 3-4.8 4.6-7l3.4-4.6a21.3 21.3 0 005-14.2c0-.4 0-.6-.3-1-.6-.8-1.2-1.6-1.6-2.6l-.6-.9c-.1-.2-.3-.2-.5 0l-.6.8c-.4.8-.5 1.7-.6 2.6-.2 1.4 0 2.8.2 4.2l.3 1.9c-.3 0-.4-.1-.6-.3l-1-.9a48.6 48.6 0 01-13.7-21.6c0-.4-.2-.9-.4-1.3a72.6 72.6 0 00-3.4 5.7c-.8 1.6-1.5 3.1-2 4.7-.1.1-.2.3-.4.3v-.7l1-3.5a80 80 0 012.7-8.7c0-.3.3-.7.2-1l.2-.2-.1-.1v.2zm20.6-10.6v.8c-.5 1.8-.8 3.7-1 5.6l-.4 4.8.2 2.4c0 1.3.2 2.5.4 3.8a31 31 0 006.6 15.6l1 1h.1l-.2-1.1a25.2 25.2 0 01-.8-9c.3-1.8.7-3.5 1.5-5.2.3-.8.8-1.5 1.3-2.1 0-.1.1-.2.2-.1l.1.1v1.9c-.1.2-.2.4-.1.7l.1 2c0 .7.3 1.4.5 2.1.1.4.3.8.8 1l.1-.3c.1-.8.3-1.5.6-2.3.5-1.2 1.1-2.3 1.8-3.4 1.5-2.3 3.3-4.5 5-6.6l3.4-4c1.5-1.8 3-3.7 4.3-5.6a48 48 0 004.5-8.2c.1-.2.1-.5.5-.6.6 1 1 2.3 1 3.5.1 1.6-.2 3-.4 4.6-.2 1-.4 2-.3 3.2 0 .1-.2.3.1.4l2-3c1.5-1.8 3.4-3.1 5.5-4 2.8-1.3 5.7-1.7 8.8-1.8l5 .3c1.6.1 3.2.4 4.8.7 3 .5 5.8 1.2 8.6 2 1.6.4 3.2.7 4.7 1.2.5 0 1 0 1.4-.2 1.6-1 3-2.1 4.2-3.7A7.3 7.3 0 00182 65c-.3-2-1.3-3.4-2.7-4.7-.2-.2-.4-.1-.5 0-.6.7-1 1.4-1.4 2.2l-.9 1.8c-.1.3-.3.4-.5.1a16 16 0 01-2-2.2 10.7 10.7 0 01-2.2-5c-.1-.8-.2-.9-1-1h-.6c-2 0-4 0-6.1.4a26 26 0 00-5 1.3c-.4 0-.7.3-1 .4h-.3V58l.5-.7c1-1 1.8-2 2.9-2.7 0 0 .1-.1 0-.2l-.1-.2h-.4c-2.9-.1-5.8-.1-8.7.2h-.1l-4.5.7c-3 .5-5.9 1.3-8.7 2.4l-.6.2.2-.5c2-2 3.9-3.8 6-5.4.3-.2.6-.3.7-.5h-.3a41.2 41.2 0 00-25.3 14.6 48.4 48.4 0 00-8 14c0 .1 0 .3-.2.3-.2-.1-.1-.3-.1-.4-.1-2 .3-3.8.7-5.7a57.3 57.3 0 016.3-15.5 64 64 0 014.5-7c.6-1 .6-1-.1-1.8l-3-3.5c-1.4-1.6-2.8-3.2-4.4-4.5-2.2-1.9-4.6-3.1-7.5-3.4h-.8l-1-.2 2-.8 1.8-.6 2-.3 1.9-.2 2 .1c.6.2 1.2.4 1.8.4 0-2 .7-3.6 1.5-5.2l.8-1.4 1-1.6c.3-.4.3-.4 0-.7a18 18 0 00-8.4-3.2c.2-.3.5-.3.8-.3 2-.1 4 0 5.9.4 2 .4 4 1 5.9 1.8 1.6.6 3 1.6 4 3l2.8 3.7 7 10.5 1.1 1.8c.3.4.5.6 1 .4 1.6-.5 3.1-.9 4.7-1.2 1.6-.2 3-.5 4.6-.4h.7c.1 0 .3 0 .4-.2 0-.2-.1-.3-.3-.5l-4.3-5.2-1.7-2c-1.1-1-2.1-2.3-3.2-3.4a389.1 389.1 0 00-8.8-8.6l-4.2-3.5-3.2-2.4c-.2-.1-.5-.3-.9-.3l-3-.2-2.6.1-3 .2a36.2 36.2 0 00-9.4 2.5l-1 .6c-.1 0-.3.1-.4 0V21l.5-.5c.6-.7 1.2-1.3 2-1.8l1.5-1c.2-.1.2-.3 0-.4a39 39 0 00-10-2.8c-1.8-.2-3.6-.1-5.4 0h-.2l-2.2.5c-.4 0-.8 0-1.1-.2l-1-.8a46.7 46.7 0 00-21.5-8.2l-4.5-.4a44.5 44.5 0 00-8.4.6c-.4 0-.6.2-.5.7l.1.4.8 2.8v.4c.1.3 0 .4-.3.4h-3.1c-.1 0-.3 0-.3.2l2 1.7c1.5 1.1 2.8 2.4 4 3.8l1.3 1.9c.2.3.3.3.6 0 1-1 2.4-1.6 3.8-2a17.2 17.2 0 015.6-.7l.2-.3-.2-.4c-.7-1.3-1.5-2.6-2.7-3.6-1.2-1-2.6-2-4.2-2.4-.2 0-.4 0-.5-.3 1.5 0 3-.1 4.5.1 2.3.4 4.4 1.2 6.3 2.4 2.1 1.3 3.8 3 5.4 4.9 1.6 1.8 3 3.8 4.2 5.9v.3c-.2 0-.4 0-.6-.2a24.5 24.5 0 00-11-2.5l-1.7.2c-1.2.1-2.5.5-3.6 1h-.2v.3l.2.1c1.4.5 2.6 1.1 3.8 1.8a14 14 0 014 3l1 1.5c0 .1.2.3 0 .5l-1.2.3c-2.2.3-4.4 1.1-6.5 2a42.4 42.4 0 00-14.7 12 50.4 50.4 0 00-9.5 20.5A62.5 62.5 0 0040.2 77V79l.2 5.2v.2l.6 4a73.2 73.2 0 002.5 12.3l.4.8V100c-.2-.8-.2-1.7-.1-2.5v-5.6A130.4 130.4 0 0145.5 81c.8-4 2-7.8 3.7-11.5 1.2-2.8 2.7-5.5 4.5-8 1.3-1.8 2.8-3.6 4.6-5 .1-.2.3-.4.5-.3v.4A99.8 99.8 0 0056 69.3c0 .7 0 1.5-.2 2.2-.2 1.2 0 2.4-.3 3.6a75.7 75.7 0 002.4 22.5l1.3 6.3.6 3.9.4 3.3.2 3.2v.2h.3v-.3a91.7 91.7 0 005.8-22.7l.7-5.4.6-4.2c.3-2.2.8-4.2 1.3-6.3a40.3 40.3 0 019-16.6c.2-.2.5-.5.6-.8-.3-.2-.5 0-.7 0-.9.3-1.7.5-2.6 1-1.3.5-2.7 1.1-3.8 2l-.4.3-.2-.1v-.6l.8-2.1a35.5 35.5 0 0110.4-13.3c2.2-1.7 4.6-3 7.4-3.9.1 0 .3-.1.4.1l-1.1 1.8a20.8 20.8 0 00-2.5 13.8c.4 2.3 1 4.4 1.9 6.5 1 2.3 2.4 4.5 4.7 6 .3.2.3.3.2.7-.5 1.5-.8 3-.7 4.5 0 1.9-.1 3.8.1 5.7L93 83a53 53 0 004.7 14.4l.4.5v-3l.6-4a60.3 60.3 0 015.4-16.2c.2-.3.3-.6.6-.8zm25.5 70v-1a35.8 35.8 0 014.2-22.5c1-1.5 2.2-2.8 3.5-4.1 1-1 2.1-1.7 3.5-2 1-.2 2-.4 3-.4 2 0 3.8.1 5.7.4l6.2 1.1 5.1 1.2h.8c.3.1.4 0 .5-.3.3-1.5.2-3 .1-4.5 0-.4-.2-.7-.5-1l-1.2-.8a25.5 25.5 0 00-10-2.5 31 31 0 00-5.2.1l-3.3.5c-3 .7-5.7 1.7-8.4 3.1a18.6 18.6 0 00-9 11 28.4 28.4 0 00-1.7 8.8 51.8 51.8 0 00.8 10.7c.4 2.8 1 5.5 1.8 8.2l1.5 5.4c.7 2.6 1.4 5.2 1.6 7.8l.4 3.5a34.7 34.7 0 01-.7 7.7l-.5 2.2c.4-.2.4-.2.6-.5a44.9 44.9 0 006-18c.2-.6.2-1.3.3-2 .2-1.3.1-2.7.3-4v-3.4-.5l-.7-3.7a270 270 0 01-.6-3.9l-.7-4v-.1h-.3c-.5.8-1 1.5-1.3 2.4a18 18 0 00-1.5 4.7c0 .1 0 .3-.3.4zM72.5 87.4l.1-.2c1.4-3 3-6 5-8.8a25 25 0 015-5.2l1.5-1c.3-.2.3-.3 0-.6l-.5-.5c-.7-.8-1.1-1.7-1.5-2.7-.4-1-.6-2.2-.8-3.4l-.2-1.8-.2-.1h-.1l-.2.2a38.6 38.6 0 00-8 18.8c0 .6 0 1.2-.2 1.7-.2 1.2 0 2.4 0 3.6zm115.1-23.9l.4-.3a6.2 6.2 0 00-.2-8.1c-.1-.2-.3-.2-.5 0-.6.4-1.1 1-1 1.9l.1 1.3.2.6a12 12 0 011 4.6zm-50 64.7h.1l3.2-.8c.4-.1.4-.2.3-.6 0-.2 0-.5-.2-.7 0-.4-.2-.5-.5-.4a72.1 72.1 0 00-2.8 1c-.1.5-.3 1-.2 1.5zm4.7-1.4c1.4-.5 2.5-1.3 3.6-2.1v-.3h-.6l-2.1.5c-1.2.4-1.2.5-1 1.7l.1.2z"/><path class="nl_st1" d="M49.8 147.9s0-.2.2-.2h.1c.1 0 0 .1 0 .2s-.1.3-.3.3v-.3z"/><path class="nl_st2" d="M111.4 107.8c-.4-.2-.7-.6-1-1a31.3 31.3 0 01-6.6-15.5c-.2-1.3-.4-2.5-.4-3.8l-.2-2.5.4-4.7c.2-1.9.5-3.8 1-5.6V74h.1v-.2l-.1.2c-.3.2-.4.5-.6.8a52.9 52.9 0 00-6 20.1v3c-.3 0-.3-.3-.4-.4A46.3 46.3 0 0193 82.9l-.3-2.3c-.2-2-.1-3.8-.2-5.8 0-1.5.3-3 .7-4.4.2-.4.2-.5-.2-.7a13.5 13.5 0 01-4.6-6 23.8 23.8 0 01.5-20.3l1.2-1.8c-.1-.3-.3-.1-.4-.1a22 22 0 00-7.4 3.9 35.3 35.3 0 00-10.4 13.3c-.4.6-.6 1.3-.8 2v.6l.1.2.5-.3c1.1-1 2.5-1.5 3.8-2.1l2.6-1h.7c-.1.4-.4.6-.6 1a40.4 40.4 0 00-10.3 22.8l-.6 4.2-.7 5.4a91 91 0 01-5.7 22.7s0 .2-.2.3h-.1l-.1-.2c0-1.1 0-2.2-.2-3.3l-.4-3.3-.6-3.8-1.3-6.3-1.5-8-.6-4.6c-.4-3.3-.4-6.6-.3-10 .2-1.1 0-2.3.3-3.5l.2-2.2a84.8 84.8 0 012.7-12.8v-.3c-.2-.1-.4 0-.5.2a28.3 28.3 0 00-4.7 5.1 43.4 43.4 0 00-4.4 8 63.2 63.2 0 00-5.2 22.3c-.2 1.8-.1 3.7-.2 5.6 0 .8 0 1.6.2 2.5v1.5c-.3-.2-.3-.5-.4-.8a94.5 94.5 0 01-3-16.4V84c-.1-1.7-.4-3.4-.3-5.2V77a63.5 63.5 0 014.6-23.7 50.6 50.6 0 0111.8-16.7c2.9-2.5 6-4.7 9.4-6.3 2.1-1 4.2-1.7 6.5-2l1.2-.3c.2-.2 0-.4 0-.6l-1-1.5a14.3 14.3 0 00-4-3 28 28 0 00-4-1.9c-.1 0-.1-.1 0-.2h.1c1.2-.5 2.4-1 3.7-1l1.7-.2a24.5 24.5 0 0111 2.5l.6.2c.1-.1 0-.2 0-.4-1.3-2-2.6-4-4.2-5.9a23.8 23.8 0 00-5.4-4.8c-2-1.2-4-2-6.3-2.4-1.5-.2-3-.1-4.5-.2 0 .3.3.3.5.4 1.6.4 3 1.3 4.2 2.4a12.3 12.3 0 012.9 4s0 .2-.2.2h-1c-1.6 0-3 .3-4.6.8-1.4.4-2.7 1-3.9 2-.3.3-.3.3-.6 0l-1.3-1.9a28.9 28.9 0 00-3.8-3.9l-2-1.6c0-.2 0-.2.2-.2h3.1c.3 0 .4-.2.4-.5l-.1-.4-.8-2.8v-.4c-.2-.4 0-.6.4-.6a91 91 0 018.4-.6l4.5.3a43.8 43.8 0 0121.4 8.3l1 .7c.4.3.8.3 1.2.3l2.2-.5h.2a27.7 27.7 0 0110.2 1c1.7.4 3.5 1 5.1 1.7.3.1.3.3.1.5l-1.5 1c-.8.4-1.4 1-2 1.7l-.4.6c0 .1-.2.2 0 .4 0 .1.1 0 .2 0l1-.6c1.4-.7 2.8-1.2 4.3-1.6a38 38 0 015.2-.9l3-.2 2.5-.1c1 0 2 .2 3.1.1.4 0 .6.2 1 .4l3 2.3a161.8 161.8 0 017 6l6.1 6.2 3.1 3.4 1.7 2 4.4 5.2c.2.1.2.3.3.4 0 .3-.3.2-.4.2h-.7a33 33 0 00-9.3 1.6c-.5.2-.7.1-1-.3l-1.2-1.8-7-10.5c-.8-1.3-1.8-2.6-2.7-3.8a9 9 0 00-4-3c-2-.7-3.9-1.4-6-1.8-1.9-.4-3.9-.4-5.9-.4-.2 0-.5 0-.7.4 2.1 0 4 .8 5.7 1.6 1 .4 1.8 1 2.6 1.6.4.2.4.3.2.7l-1 1.5-.9 1.5a11 11 0 00-1.5 5.1c-.7 0-1.3-.2-1.9-.3l-2-.1-1.9.1-1.9.4-1.8.6c-.7.2-1.3.4-2 .8h1l.8.2c2.9.3 5.3 1.5 7.5 3.4 1.6 1.3 3 2.9 4.3 4.5l3 3.4c.8.9.8 1 .1 1.9A64 64 0 00111.8 74a20 20 0 00-.7 5.6v.4c.2 0 .2-.1.3-.2a49.3 49.3 0 0113-19.3 41.7 41.7 0 0120.3-9.4h.3a43.7 43.7 0 00-6.9 6.4l-.1.1c.3 0 .5 0 .7-.2 2.8-1 5.7-1.9 8.7-2.4l4.5-.7h.1a76.5 76.5 0 019.3 0l-.1.2c-1.1.8-2 1.8-2.9 2.7l-.5.7v.2h.2l1-.4c1.7-.6 3.3-1.1 5-1.3a37 37 0 016.8-.4c.8.1.9.2 1 1 .3 1.9 1 3.5 2.2 5 .6.8 1.2 1.5 2 2.2.2.3.4.2.5 0l.9-2c.3-.7.8-1.4 1.4-2 .1-.2.3-.3.5 0a7.7 7.7 0 012.7 4.6c.3 2-.3 3.9-1.5 5.5a14.8 14.8 0 01-4.2 3.7c-.4.3-.9.3-1.4.2l-4.7-1.2c-2.8-.8-5.7-1.5-8.6-2-1.6-.3-3.2-.6-4.8-.7-1.7-.2-3.4-.4-5-.3-3 0-6 .5-8.8 1.7-2 1-4 2.3-5.4 4-.8 1-1.5 2-2 3-.3 0-.2-.2-.3-.3 0-1.1.2-2.2.4-3.2.2-1.5.5-3 .4-4.6 0-1.2-.4-2.4-1-3.5-.4.1-.4.4-.5.6a46.4 46.4 0 01-4.5 8.2c-1.4 2-2.8 3.8-4.3 5.6-1 1.4-2.3 2.7-3.4 4a68.6 68.6 0 00-5 6.6 19 19 0 00-1.8 3.4c-.3.8-.5 1.5-.6 2.3l-.1.3c-.5-.2-.7-.6-.8-1a7 7 0 01-.5-2l-.1-2.1v-.7l.1-1.9v-.1h-.3l-1.4 2.2a18.6 18.6 0 00-1.6 7.7c.1 2.2.3 4.4 1 6.5l.2 1zm47.4-48c-.2 0-.3 0-.4.2l-.4.3a18.2 18.2 0 00-4 4.3c-.6 1-1.1 2-1.5 3.1 0 .3-.2.6-.1 1l.5-.8 1.6-2.4 3-4c.4-.4.9-.9 1.2-1.5l.1-.2h.1zm4.7.2c-2.9 2-6 6.5-6 8.6l.4-.4c1.1-2 2.5-3.8 4-5.7l1.7-2.2.2-.2.2-.2v-.1h-.1c-.2 0-.3 0-.4.2zm4.7.4c-3.2 2.3-5.7 6.6-5.5 8.3l.3-.5c1-1.6 2-3.1 3.2-4.6l2.3-3c.5-.4.5-.4.6-1l-1 .8z"/><path class="nl_st3" d="M50 139.4l-.3.3a40.2 40.2 0 01-18.4 6.2l-.5-.1c-.1-.2 0-.3.1-.4l4-4.3A74.6 74.6 0 0046 123l1.2-3.1a30.8 30.8 0 002.3-11.3c.2-2.9.1-5.7.2-8.6v-.5c.3.2.2.4.3.6l3 10.8c.2.5 0 1 .3 1.4.3.3.4.8.5 1.2a47 47 0 011.3 5.6c.2 1.5.5 3 .4 4.5l.2 1.4v1.6l-.1 2.2-.2 1.3c.3 0 .4-.1.5-.3l2-2.4a49.5 49.5 0 006.2-10.4c1.8-3.9 3.2-8 4.6-12 1-2.8 2-5.6 3.2-8.4a53 53 0 015-9c0-.1.1-.4.4-.4v.4a61.7 61.7 0 00-3.5 14l-.8 4.8v1.4c.3-.2.3-.4.3-.7l1.4-4.5a72.3 72.3 0 018.5-17.3c.2-.3.4-.6.7-.7a82.3 82.3 0 00-3 9.7l-.8 3.5v.7c.2 0 .2-.2.3-.3.5-1.6 1.3-3 2-4.6a71 71 0 013.4-5.8c.3.4.3 1 .5 1.4a43 43 0 006.6 13.7c2 2.9 4.4 5.5 7 7.9l1 .9.7.2-.3-1.8c-.2-1.4-.4-2.8-.3-4.2.1-1 .2-1.8.6-2.7l.7-.8c.2-.2.3-.2.5 0l.5 1c.5 1 1 1.8 1.7 2.6.1.3.3.6.3 1a21.3 21.3 0 01-5 14.1l-3.5 4.6a53.2 53.2 0 00-4.5 7c-1 1.7-1.6 3.6-1.8 5.5-.2 2.1.2 4.1 1.3 6 1 1.6 2.2 3 3.8 4.1l.3.2h.1c0-.4-.3-.7-.5-1-.5-1.1-1-2.3-1.2-3.5l-.1-.7a17 17 0 01.8-6.3c0-.1 0-.2.2-.2l.1.1.4 1.1a32.7 32.7 0 006 9.7 53 53 0 005.8 5.1l6.7 5.3a46.1 46.1 0 0112.1 14.7c1 2.2 1.8 4.5 2 7a13 13 0 01-4.9 12c-.6.6-1.3 1-2 1.5 0 .1-.1.2-.3.1v-.5c.7-2.2.8-4.5.6-6.8-.2-2.1-.8-4.2-1.6-6.2a35 35 0 00-7.7-11.2l-1.3-1.4-5.2-4.7A133 133 0 0096 155a44.2 44.2 0 01-6.4-5.4c-2.2-2.3-3.6-5-4.2-8l-.8-4.1-.1-.3-.2.4c-.1.6-.3 1.3-.3 2v2.8a16.3 16.3 0 001 5v.2h-.2c-1-1-2-1.7-2.7-2.6l-2-2.5a26.9 26.9 0 01-5-14.5c0-1-.2-2.1-.1-3.2.1-1.4.1-2.9.3-4.3l.5-3.6c0-.5.2-1 .1-1.6.1 0 .2 0 0 0-.4.3-.6.8-.8 1.3a33.2 33.2 0 00-3.4 8l-.8 1.7c-.9 1.4-1.5 3-1.8 4.5-.5 2.4-.4 4.8-.4 7.1 0 .8.2 1.6.4 2.5 0 .6 0 .7-.6 1l-5.4 3c-.1.1-.3.2-.3.4s.2 0 .3 0h.3c.9-.2 1.8 0 2.7-.1h.6l.3.3c.1.3-.1.4-.2.5a24.6 24.6 0 01-5.6 3.1 42.7 42.7 0 01-9.5 2.6c-.1-.2 0-.3.1-.5a46.4 46.4 0 009.7-18.6l.3-1.8c.3-1.6.3-3.2.2-4.8v-.2a24.3 24.3 0 01-5.2 5.8 41 41 0 01-12 7.2l-1.4.6c.4.3.9.3 1.3.3H50zm23-31v-.1c0-.1 0-.1 0 0v.2zm7-9.5v0z"/><path d="M180.9 75.3a80 80 0 014.6-6.6l.3-.2 1.4 3.7a74.2 74.2 0 013.9 25 75.1 75.1 0 01-51.4 70.7c-.3 0-.6.3-1 .2-.1-.4 0-.7.1-1 .5-2 1-4 1-6.1l.1-.6 3-1.2c.5-.2 1-.3 1.3-.6l2.5.2-.4 1c-.4 1 0 2 .8 2.5s1.8.5 2.6 0c.8-.6 1.1-1.6.8-2.5l-.3-.7c.2-.2.4-.1.6-.1 1-.2 2-.4 2.8-.8 3.8-2 6.4-4.9 7.6-9l.4-2.1.7-.6A68.4 68.4 0 00181 75.3zm-10.3 70.1c0-1.2-1-2.3-2.2-2.3-1.2 0-2.3 1-2.3 2.2 0 1.2 1 2.3 2.2 2.3 1.2 0 2.3-1 2.3-2.2zm17-43.2c1.2 0 2.2-1 2.2-2.3 0-1.2-1-2.2-2.3-2.2-1.2 0-2.2 1-2.2 2.2 0 1.3 1 2.3 2.2 2.3zm-5.7 20c-1.2 0-2.2 1-2.2 2.2 0 1 .7 2.1 2.2 2.2 1.4 0 2.3-1.1 2.2-2.2 0-1.3-.9-2.3-2.2-2.3zm4.8-47c0-1.3-1-2.3-2.2-2.3-1.3 0-2.3 1-2.3 2.2 0 1.2 1 2.2 2.2 2.2 1.3 0 2.2-1 2.3-2.2z" fill="#cac9c9"/><path class="nl_st3" d="M130.1 144l.3-.5a17.9 17.9 0 012.8-7c0-.1.2-.2.3-.1v.1l.7 4 .7 4 .6 3.6v3.9c-.2 1.3 0 2.6-.3 4l-.2 2-.4 2.8c-.4 2.6-1 5.1-2 7.6a35 35 0 01-3.7 7.6c-.1.2-.1.3-.6.5l.5-2.2a50.4 50.4 0 00.7-7.7c0-1.2-.2-2.3-.3-3.5a55 55 0 00-1.7-7.8l-1.5-5.4a71.2 71.2 0 01-2.5-18.9 31.8 31.8 0 011.5-8.9 18.4 18.4 0 019-11 33 33 0 018.5-3l3.3-.5a31 31 0 0110.8.7c1.5.4 3 1 4.4 1.7l1.3.8c.3.2.4.5.5 1 0 1.5 0 3-.2 4.5 0 .3-.2.4-.5.4l-.8-.1-5.1-1.2-6.1-1.1a38 38 0 00-5.8-.4c-1 0-2 .2-3 .4-1.3.3-2.5 1-3.5 2a25.6 25.6 0 00-3.5 4.1 26 26 0 00-3 6.7 50.2 50.2 0 00-1.5 7.4 34 34 0 000 4.4c0 1.3 0 2.7.2 4l.1 1z"/><path class="nl_st5" d="M118.2 104.9c0-.4.1-.6.3-1 1-2.8 2.6-5.5 4.2-8 2-3.2 4-6.1 6.3-9l.2-.3.6-.3 4.5.6c.3 0 .3.2.2.5-1 2.6-2.4 4.9-4.8 6.3-.3 0-.5.1-.6.4h.6c2-.5 4-1.2 6-2l6-2.8 4.5-2a12.5 12.5 0 017-.3c2 .6 3.1 2 3.5 4l.2 2a8 8 0 001.4 4.6l1.6 2a6 6 0 011.5 4.7l-.1.6c-.2.4-.5.6-1 .6h-.2l-3.2-.7a69.5 69.5 0 00-8.3-5c-.7-.2-1.5-.4-2.3-.3-1.4.1-2.8.4-4 1l-.9.3c0-.7.3-1.3.6-1.8.5-.8 1.1-1.2 2-1.4 1.4-.2 2.8-.2 4.3 0l1.7.2h1c-.5-.2-.7-.4-1-.3-.1-.2-.4-.2-.6-.4.2-.6.3-1.3.1-2v-.6a7 7 0 00-.7-2.5c-.3-.5-.7-1-1.3-1.2-.7-.3-1.3-.3-2 0-1.8.4-3.3 1.3-4.6 2.6-1.2 1-2.1 2.3-3.2 3.5a13.7 13.7 0 01-5.7 4.1c-1.5.6-3.1 1-4.8 1.1a13.3 13.3 0 01-5.3-.5c0 .1-.1.2 0 .2l.2.4 2.6 1.5 1.6.6.8.6c.2.3.2.5 0 .7a2 2 0 01-1 .7l-2.3.4-2-.2-1.2-.3c-.7-.3-1.4-.6-2-1.1a.6.6 0 00-.4-.2zm10.5-10.6h.1v-.1h-.2z"/><path class="nl_st6" d="M149.3 136.6c.3-.1.4-.4.7-.6.8-.8 1.6-1.4 2.6-1.8.9-.4 1.3-.4 2.2-.2v.5c-.2 1 0 2 .2 3l1.2 3 1.6 3.7c.3 1 .6 2.1.4 3.2 0 .3 0 .6-.2.8h-.6c-1 .5-2 .7-3 .9-1 .2-2.1.4-3.2.4-2.3 0-4.6.2-6.8-.1l-1.8-.3c-.4 0-.8-.3-1-.8l-.2-1-.8-4-.8-5c-.1-.7 0-1.3-.3-2-.2-.9 0-1.7.3-2.5a6 6 0 011.4-2.2c1.2-1.2 2.6-2.2 4-3.2l2.8-2.6c.1-.1.3-.3.2-.6.7-.7 1.6-1.3 2.4-1.8.8-.4 1.6-.7 2.5-.8 1.8-.2 3.6-.2 5.3.3l.8.2c.8.3 1.3.9 1.5 1.7.2.8.2 1.6-.2 2.4-.2 0-.5 0-.7.2-1.4.6-2.8 1-4.3 1.2l-2 .2c-1.8.3-3.4.9-4.8 2a7 7 0 00-1.9 2.3c-.5.9-.8 1.8-.7 2.9.2 1.5.9 2.8 2.1 3.8.2.1.4 0 .4-.2l.1-.7.6-2.3z"/><path class="nl_st7" d="M118.2 104.9c.1 0 .3 0 .4.2.6.5 1.3.8 2 1.1l1.2.3 2 .2 2.3-.4a2 2 0 001-.7c.2-.2.2-.4 0-.7a2 2 0 00-.8-.6l-1.6-.7c-1-.3-1.8-.9-2.6-1.4l-.3-.4v-.2h.5c1.6.6 3.3.7 5 .5a16.8 16.8 0 008.2-3 16 16 0 002.3-2.2l3-3.5a11 11 0 014.7-2.7c.7-.2 1.3-.2 2 0 .6.3 1 .7 1.3 1.3.4.8.6 1.6.7 2.5v.7a3 3 0 010 1.9c-.5 0-.8-.3-1.1-.5l-1.6-1c-2.2-1.3-4.4-1-6.6.2a4 4 0 00-1.5 1.4l-.7 1.1c-1 2-2.6 3.4-4.6 4.3l-.8.4v.1c1.7.4 3.5 0 5.3 0v2.2l-.1.3-.7.4a60 60 0 00-10.2 6.5c-3 2.6-5 5.9-5.8 9.7-.4 1.9-.7 3.8-.8 5.6-.2 2.2-.2 4.3-.2 6.4v.9l-.5-.2c-1.4-1.1-2.9-2-4.5-2.8-1.4-.7-3-1.3-4.5-1.6-.2 0-.5 0-.6-.3l.3-.3 2.5-2c1.1-1 2.2-2 3-3.2.2-.2.3-.4.5-.4.1 0 0 .4.3 0a53.4 53.4 0 004-11.6v-1c0-.7-.3-1.3-1-1.7a9.4 9.4 0 01-2.1-1.8c-.2-.2-.3-.4-.2-.6.2-1 .4-1.9.9-2.7z"/><path class="nl_st6" d="M116.3 124.3c-.3 0-.3.3-.5.4-.8 1.2-1.9 2.2-3 3.2l-2.5 2-.3.3c.1.3.4.3.6.4 1.6.2 3 .8 4.5 1.5a26.6 26.6 0 015 3v1.5c.2 3 .6 6 1 9h-.6l-6.3-1.3c-2.3-.6-4.7-1.2-7-2.2-1-.4-2-.9-3-1.6-1-.7-1.2-1.6-1.1-2.7 0-.5 0-1 .2-1.4a26.6 26.6 0 014-8.7c1.3-1.9 2.6-3.8 4-5.5 1.1-1.3 1.9-2.8 2.2-4.5l.3-3c0-.2 0-.5.3-.6.7.3 1.4.5 2 .9.8.4 1.3 1 1.3 2 0 1.2-.2 2.4-.4 3.6 0 1-.3 2-.4 2.9l-.3.8z"/><path class="nl_st8" d="M150.6 37.3l-.5-.6c-3.2-4.1-6.7-8-10.6-11.4-.2-.2-.5-.4-.6-.7.2-.2.5 0 .7 0a74 74 0 0136.6 26.7c.2.2.5.5.5.8l-.6.2c-.5.1-.8 0-1-.4l-.3-.5c-.7-.7-1.5-1-2.4-.7-.4.2-.8.2-1.2 0l-6.2-2.3-.7-.3-.2-.3a69.3 69.3 0 00-12.8-10c-.1-.2-.3-.3-.5-.3 0-.1 0-.2-.2-.2zm4.1-3.8c-1.3 0-2.2 1-2.2 2.3 0 1 .7 2.2 2.2 2.2 1.4 0 2.3-1 2.2-2.3 0-1.2-1-2.2-2.2-2.2z"/><path class="nl_st7" d="M114 114c-.2.2-.2.5-.2.7 0 1-.2 2-.4 3-.3 1.7-1 3.2-2 4.5a49.6 49.6 0 00-8.1 14.2l-.2 1.4c-.1 1 .1 2 1.1 2.7 1 .7 2 1.2 3 1.6 2.3 1 4.6 1.6 7 2.1l6.3 1.4h.7l1 4.8.4 1.5c-.1.2-.2 0-.3 0-3.3-1.4-6.6-2.5-10-3.6-1.4-.5-3-1-4.3-1.7-1-.4-1.9-1-2.7-1.6-1-.8-1.7-1.8-2.2-3a32 32 0 01-2.3-8.2c-.2-1.1-.2-2.2 0-3.3.1-.7.5-1.4.9-2a58.4 58.4 0 007.6-16.8l.2-.6c.8.4 1.5 1 2.2 1.5l2.4 1.5z"/><path class="nl_st1" d="M103.6 170.7c-.1.2-.3.1-.5 0a74.7 74.7 0 01-34-15c-.2 0-.4-.3-.6-.5-.2 0-.1-.2 0-.3l.4-.2c1.8-1 3.6-2 5.2-3.1l.5-.3c2.7 2 5.5 3.8 8.4 5.4.2 0 .4.2.7.1a128.8 128.8 0 009.9 6.5l3.5 2.3c.2.1.3.3.3.5v.4c-.1 1.7 1.7 2.7 2.9 2.1l.4-.1c.1-.1.3-.1.4 0 .9.7 1.8 1.4 2.5 2.2zm-29.3-14a2.2 2.2 0 104.4.1 2.2 2.2 0 00-4.5 0z"/><path class="nl_st7" d="M148.3 125.3l-.3.6-2.8 2.5c-1.4 1-2.7 2-4 3.2a6 6 0 00-1.4 2.2c-.3.8-.5 1.7-.2 2.6l.2 1.9.8 5 .8 4 .3 1c.1.5.5.8 1 .9l1.7.2c2.3.3 4.5.2 6.8.2 1.1 0 2.2-.2 3.3-.5 1-.2 2-.4 2.9-.8h.7l-.1.5c-1 2.9-3 5-5.7 6.4-1 .5-2 .5-3.2.5-2 0-4-.3-6-.7l-3.2-.7c-.4-.1-.6-.3-.6-.7l-2-11-1-6.1a9.6 9.6 0 010-3.5c.3-1.4 1-2.3 2.2-3l2.1-.8 2.2-.6a13 13 0 003.9-2.2c.5-.4 1-.9 1.6-1.1z"/><path class="nl_st9" d="M180.9 75.3a65 65 0 013.1 25 68.5 68.5 0 01-21.7 46.2l-.7.6c0-.6-.2-1.3 0-1.9.1-.5.8-.8 1.2-1.2A66.8 66.8 0 00180 77.8c-.2-.7-.1-1.3.4-1.8l.5-.7z"/><path class="nl_st3" d="M72.5 87.4c-.2-1.2-.3-2.4 0-3.6l.1-1.7a38.5 38.5 0 018-18.8s0-.2.2-.2H81l.2 2c.2 1.1.4 2.2.8 3.3.4 1 .8 2 1.5 2.7l.5.5c.3.3.3.4 0 .6l-1.5 1a25 25 0 00-5 5.2c-2 2.8-3.6 5.7-5 8.8l-.1.2z"/><path class="nl_st6" d="M154.7 77v.7l-.4 3.5c0 1-.3 1.8-1 2.5l-.8.2c-.8.4-1.7.5-2.5.4-.7 0-1.3-.2-1.8-.7l-3.4-3.4c-.6-.6-1.2-1.3-1.9-1.7a.7.7 0 01-.3-.6c1-.7 2.1-1.4 3.3-1.8.2.2.4.2.6.2h1.5c1.2.3 2.4.1 3.6.3l1.1.2c.7 0 1.3.3 2 .3z"/><path class="nl_st7" d="M141.4 100.8l.8-.2c1.3-.7 2.7-1 4-1.2.9 0 1.7.2 2.4.5l3.1 1.4 4.8 3c.2.1.4.2.4.5l-2.8-.2h-4a56 56 0 00-6.6.8h-1c-.5.1-.7 0-.8-.4l-.4-1.2c-.1-1-.2-2 .1-3zM149.3 136.6l-.5 2.4-.2.6c0 .3-.2.4-.4.2-1.2-1-2-2.3-2-3.8-.2-1 .2-2 .6-3a7 7 0 011.9-2.1c1.4-1.2 3-1.8 4.8-2l2-.3c1.5-.2 3-.6 4.3-1.2l.7-.2c-.1.8-.7 1.3-1.3 1.7-.6.5-1.4.7-2.2.9-.9.1-1.8.3-2.6.6-1 .3-2 .8-3 1.4-1 .8-1.7 1.8-2 3-.2.6-.2 1.2-.2 1.8z"/><path class="nl_st8" d="M142.6 77.9l.3.6c.8.4 1.3 1 1.9 1.7l3.4 3.3c.5.6 1 .8 1.8.8.9 0 1.7 0 2.5-.4l.8-.2c-.3.7-1 1-1.6 1.2-2.4.7-4.7.7-6.9-.7l-1.8-1.4-3.2-2.7-.2-.2 3-2z"/><path class="nl_st9" d="M150.8 37.5l.5.2c4.7 2.8 9 6.2 12.8 10l.2.4c-1.1-.3-2.1-.8-3.2-1.2a65.4 65.4 0 00-8-6.2c-.3-.2-.6-.5-.9-1L151 38l-.2-.5zM137.5 89c-.1-.3.1-.5.3-.7.6-1.1 1.1-2.4 1.4-3.7l.1-1.6c.2-.1.3 0 .4.1l1.9 1.6c.7.6 1.5 1 2.4 1.4.2 0 .3.1.4.3l-1.7.7c-1.7.5-3.4 1-5 2h-.2z"/><path class="nl_st3" d="M187.6 63.5a12 12 0 00-1-4.6c0-.2 0-.4-.2-.6l-.2-1.3c0-1 .5-1.5 1.1-2 .2-.1.4 0 .5.1a7 7 0 011.6 3.5c.2 1.8-.3 3.3-1.4 4.7l-.4.2z"/><path class="nl_st1" d="M154.7 77c-.7.1-1.3-.1-2-.2l-1-.1c-1.3-.3-2.5-.1-3.7-.4h-1.5c-.2 0-.4 0-.6-.2 1-.7 2.2-1.1 3.4-1.4 1.6-.3 3.3-.4 5-.2.4 0 .5 0 .5.5l-.1 2z"/><path class="nl_st9" d="M83.7 156.8a66.3 66.3 0 01-9-5.6l.4-.3c.9-.6.8-.5 1.6 0 1 .7 1.9 1.4 2.7 2.2l3.7 3.3c.2.1.5.2.6.4z"/><path class="nl_st1" d="M141.5 123c-.2-.4 0-.8-.1-1.1-.2-.7.1-1 .6-1.3 1-.5 1.9-.7 2.9-.7.2 0 .3.1.4.3l.3 1.3-1 .2c-1.1.3-2 .8-3 1.2z"/><path class="nl_st5" d="M141.5 123a18 18 0 014-1.5l.2.5c.1 1.2.1 1.2-1 1.5l-2.2.6c-.6 0-.7 0-1-.7v-.5z"/><path class="nl_st10" d="M137.5 128.2c-.1-.5 0-1 .2-1.4l.3-.3 2.5-.8c.3 0 .4 0 .5.4l.2.7c.1.4 0 .5-.3.6l-3.2.8h-.2z"/><path class="nl_st9" d="M144.2 158.6c-.4.3-.8.4-1.3.6l-3 1.2.1-1.3c0-.2.1-.3.3-.4h.1c1.3-.7 1.3-.7 2.7-.4.4.1.8 0 1.1.3z"/><path class="nl_st10" d="M142.3 126.8l-.1-.2c-.2-1.2-.2-1.3 1-1.6l2.1-.6h.7v.3c-1.2.8-2.3 1.6-3.7 2.1z"/><path class="nl_st1" d="M146.5 121.2c-.5-1.6 0-1.6 1.2-1.5.8 0 1.5.2 2.2.5.4.1.4.2.4.6 0 .2 0 .4-.2.4l-.3-.2h-2c-.5.2-.9.2-1.3.2z"/><path class="nl_st10" d="M146.5 121.2c.4 0 .9 0 1.3-.2h2l.3.2a96 96 0 01-2 1.7c-.4.3-.6.3-1-.2a3 3 0 01-.6-1.5z"/><path class="nl_st1" d="M138.3 125.6h-.2v-.3c.4-1.4 1-2.5 2-3.7l.2.1c.3.7.4 1.3.4 2l-.6.1-1.6 1.3-.2.5z"/><path class="nl_st9" d="M125 164.3a9 9 0 01-1-1.3c.5-.3 1-.3 1.6-.3.1 0 .2.1.2.3.1.4.2.7.1 1.1l-.9.2z"/><path class="nl_st10" d="M138.3 125.6l.2-.5 1.6-1.3.6-.1v.7c0 .2-.2.3-.4.4-.7.3-1.3.7-2 .8z"/><path class="nl_st1" d="M125 164.3l1-.2v1.4h-.2l-.8-1.2z"/><path class="nl_st3" d="M116.3 124.3l.3-.8h.4c0 .4-.2.6-.4.9-.2.3-.2 0-.3-.1z"/><path class="nl_st2" d="M150 97.5l.9.3h-.9v-.3zM129.7 94c-.2.2-.4.1-.6.1.1-.3.3-.3.6-.4v.3z"/><path class="nl_st3" d="M84 84.5v-.2h.1c.1 0 .1 0 0 0v.2zM77.4 87V87h.1l-.1.2zM50 139.4v-.1z"/><path class="nl_st9" d="M150.6 37.3c.1 0 .2 0 .2.2-.1 0-.2 0-.2-.2z"/><path class="nl_st2" d="M111.5 107.8v.1z"/><path class="nl_st9" d="M84 157c-.2 0-.3 0-.4-.2l.4.3z"/><path class="nl_st2" d="M98 97.8c0 .1 0 .1 0 0z"/><path class="nl_st9" d="M137.5 89l-.1.1s0-.1.1 0z"/><path class="nl_st8" d="M138.9 24.6l-.2-.1h.1c.1 0 .1 0 0 0z"/><path class="nl_st1" d="M103.6 170.7l.2.1h-.1c-.1 0-.1 0 0 0z"/><path class="nl_st11" d="M152.4 68.7l.1-1c.3-1.1.9-2.2 1.5-3.2 1.1-1.6 2.4-3 4-4.3l.4-.2h.3c-.3.6-.8 1-1.2 1.6l-3 3.9-1.6 2.4-.5.7zM163.6 60.3l-1.7 2.2a49.6 49.6 0 00-4 5.7l-.3.4c-.2-2.1 3-6.7 5.8-8.5l.2.2zM168.5 60.7l-2.3 2.9a43.3 43.3 0 00-3.5 5c-.2-1.6 2.3-6 5.5-8.2l.3.3z"/><path class="nl_st1" d="M168.5 60.7l-.3-.3c.2-.3.5-.6.9-.7-.1.5-.1.5-.6 1zM163.5 60l.4-.3h.1v.2l-.2.1h-.3zM158.7 60h-.3c.1-.2.2-.3.4-.2l-.1.2z"/><path class="nl_st0" d="M104.6 74v-.3c.2 0 .2 0 .1.1l-.1.1zM138 57.7z"/><path class="nl_st1" d="M158.8 59.8h.1z"/><path class="nl_st11" d="M152.4 68.6zM163.5 60h.3l-.2.3-.2-.2h.1z"/><path class="nl_st0" d="M73 108.5v-.2c0-.1 0-.1 0 0v.2zM80 99zM96 148.4s.1 0 0 0zM76 115.5v-.1c.1 0 .1 0 0 0z"/><path class="nl_st12" d="M170.6 145.4c0 1.2-1 2.2-2.3 2.2-1.2 0-2.2-1-2.2-2.3 0-1.2 1-2.2 2.3-2.2 1.2 0 2.2 1 2.2 2.3zM187.5 102.2c-1.2 0-2.2-1-2.2-2.3 0-1.2 1-2.2 2.3-2.2 1.2 0 2.2 1 2.2 2.2 0 1.3-1 2.3-2.3 2.3zM182 122.1c1.2 0 2.1 1 2.2 2.3 0 1-.9 2.2-2.3 2.2a2.2 2.2 0 01-2.2-2.2c0-1.3 1-2.3 2.2-2.3zM186.7 75.1c0 1.3-1 2.2-2.3 2.2a2.2 2.2 0 010-4.4c1.3 0 2.3 1 2.3 2.2z"/><path class="nl_st1" d="M128.7 94.3v-.1h0z"/><path class="nl_st12" d="M154.7 33.5c1.3 0 2.2 1 2.3 2.3 0 1.2-1 2.2-2.3 2.2a2.2 2.2 0 01-2.2-2.2c0-1.2 1-2.2 2.2-2.3zM74.3 156.7c0-1.2 1-2.1 2.2-2.1a2.2 2.2 0 110 4.4c-1.3 0-2.3-1-2.2-2.3z"/></svg>