<?xml version="1.0" encoding="utf-8"?>
<!-- Generator: Adobe Illunl_strator 24.1.0, SVG Export Plug-In . SVG Version: 6.00 Build 0)  -->
<svg version="1.1" id="Layer_1" xmlns="http://www.w3.org/2000/svg" xmlns:xlink="http://www.w3.org/1999/xlink" x="0px"
	y="0px" viewBox="0 0 200 200" nl_style="enable-background:new 0 0 200 200;" xml:space="preserve">
	<style type="text/css">
		.nl_st0 {
			fill: #020202;
		}

		.nl_st1 {
			fill: #C9C8C8;
		}

		.nl_st2 {
			fill: #4D4D4D;
		}

		.nl_st3 {
			fill: #4C4C4C;
		}

		.nl_st4 {
			fill: #CAC9C9;
		}

		.nl_st5 {
			fill: #FDFDFD;
		}

		.nl_st6 {
			fill: #FEFEFE;
		}

		.nl_st7 {
			fill: #CACACA;
		}

		.nl_st8 {
			fill: #C9C9C9;
		}

		.nl_st9 {
			fill: #F80404;
		}

		.nl_st10 {
			fill: #F0F0F0;
		}

		.nl_st11 {
			fill: #D9D9D9;
		}

		.nl_st12 {
			fill: #060606;
		}
	</style>
	<g>
		<path class="nl_st0" d="M49.76,147.88c-1.74,1.02-3.51,2-5.38,2.78c-3.17,1.33-6.45,2.25-9.87,2.68c-1.46,0.18-2.92,0.3-4.39,0.33
		c-2.69,0.06-5.34-0.29-7.96-0.82c-4.96-1.01-9.77-2.53-14.5-4.32c-0.19-0.07-0.47-0.06-0.56-0.34c0-0.19,0.18-0.15,0.28-0.18
		c5.35-1.72,10.54-3.81,15.5-6.46c3.03-1.61,5.92-3.44,8.58-5.63c3.6-2.96,6.2-6.67,8.15-10.87c0.66-1.42,1.21-2.89,1.67-4.38
		c0.09-0.29,0.14-0.56,0.06-0.86c-0.51-1.72-0.95-3.46-1.53-5.16c-1.75-5.13-3.27-10.32-4.4-15.62c-0.62-2.94-1.13-5.89-1.51-8.87
		c-0.51-4.09-0.79-8.19-0.72-12.31c0.14-7.93,1.4-15.65,4.27-23.07c2.31-5.99,5.52-11.45,9.79-16.26c2.92-3.29,6.2-6.16,10.01-8.4
		c0.11-0.06,0.21-0.14,0.38-0.25c-0.2-0.31-0.39-0.61-0.59-0.89c-2.42-3.48-4.72-7.05-6.79-10.75c-1.38-2.48-2.68-5-3.67-7.67
		C46,9.01,45.51,7.46,45.42,5.81c-0.01-0.13-0.03-0.26-0.03-0.39c-0.02-0.96-0.01-0.98,0.84-1.44c3.04-1.63,6.27-2.72,9.66-3.35
		c3.59-0.68,7.2-0.77,10.82-0.5c4.8,0.36,9.46,1.44,14.02,2.99c4.61,1.57,9.02,3.59,13.26,5.97c0.74,0.42,1.5,0.73,2.35,0.88
		c2.47,0.45,4.9,1.1,7.31,1.77c2.38,0.67,4.77,1.34,7.14,2.05c0.61,0.18,1.2,0.24,1.83,0.16c2.17-0.3,4.35-0.39,6.54-0.37
		c1.73,0.02,3.45,0.19,5.17,0.4c0.41,0.05,0.74,0.24,1.07,0.45c2.65,1.73,5.24,3.55,7.74,5.5c0.47,0.37,0.98,0.6,1.56,0.75
		c13.68,3.49,25.53,10.21,35.6,20.1c3.2,3.14,6.09,6.54,8.71,10.18c0.1,0.13,0.19,0.26,0.28,0.4c0.12,0.18,0.28,0.26,0.49,0.24
		c0.32-0.04,0.65-0.08,0.97-0.11c1.51-0.15,3-0.09,4.46,0.31c1.19,0.32,2.25,0.89,3.11,1.77c1.76,1.79,2.95,3.9,3.3,6.41
		c0.27,1.94-0.34,3.54-2.03,4.64c-0.52,0.34-1.01,0.72-1.47,1.14c-0.72,0.65-0.57,0.54-0.29,1.23c0.99,2.45,1.85,4.95,2.58,7.49
		c1.04,3.61,1.81,7.27,2.33,11c0.63,4.54,0.89,9.1,0.7,13.68c-0.75,17.61-6.63,33.28-17.87,46.87
		c-8.15,9.86-18.15,17.28-29.96,22.24c-2.44,1.02-4.92,1.92-7.45,2.66c-0.5,0.15-0.82,0.39-1.06,0.89c-1.2,2.58-2.86,4.82-5.08,6.62
		c-0.29,0.23-0.38,0.47-0.33,0.84c0.62,5.45-1.07,10.1-4.91,13.98c-1.45,1.47-3.12,2.68-4.9,3.71c-1.67,0.96-3.36,1.88-5.04,2.82
		c-0.09,0.05-0.17,0.1-0.25,0.15c-0.25,0.12-0.39,0.05-0.37-0.21c0.08-1.24,0.15-2.48,0.24-3.71c0.09-1.21,0.15-2.41,0.12-3.62
		c-0.05-2.58-0.69-5.03-1.68-7.4c-1.22-2.91-2.94-5.52-4.93-7.96c-0.81-0.99-1.67-1.92-2.54-2.85c-0.29-0.31-0.61-0.44-1.02-0.49
		c-13.39-1.58-25.55-6.34-36.48-14.25c-1.21-0.88-2.39-1.81-3.56-2.76c-0.42-0.34-0.74-0.46-1.3-0.23c-3.03,1.31-6.16,2.3-9.38,3.01
		c-2.52,0.56-5.06,0.93-7.64,1.12c-3.23,0.24-6.46,0.08-9.69,0.05c-1.86-0.02-3.72-0.05-5.58-0.08c-0.22,0-0.44-0.02-0.72-0.03
		c0.16-0.32,0.43-0.39,0.63-0.51c3.18-1.8,6.36-3.58,9.54-5.38c2.93-1.65,5.43-3.82,7.55-6.43c0.16-0.05,0.24-0.19,0.33-0.31
		c0.06-0.07,0.09-0.17,0.01-0.24c-0.03-0.02-0.12,0.01-0.17,0.04C49.89,147.75,49.83,147.82,49.76,147.88z M125.91,164.12
		c0.05-0.39-0.01-0.77-0.1-1.15c-0.03-0.13-0.1-0.28-0.23-0.28c-0.53,0.01-1.07-0.02-1.62,0.28c0.35,0.5,0.67,0.93,1.07,1.31
		c0.27,0.39,0.54,0.78,0.82,1.17c0.03,0.04,0.11,0.03,0.23,0.06C126.08,165.03,126.01,164.57,125.91,164.12z M140.66,123.7
		c0.06-0.69-0.11-1.35-0.32-2c-0.04-0.13-0.22-0.16-0.31-0.06c-0.84,1.12-1.57,2.3-1.97,3.66c-0.03,0.09-0.05,0.21-0.01,0.28
		c0.04,0.09,0.15,0.09,0.25,0.04c0.72-0.15,1.34-0.58,2.02-0.84c0.19-0.07,0.3-0.22,0.33-0.43
		C140.69,124.14,140.74,123.92,140.66,123.7z M150.07,121.22c0.18-0.08,0.18-0.25,0.2-0.41c0.04-0.43,0-0.5-0.39-0.65
		c-0.7-0.26-1.43-0.44-2.16-0.49c-1.26-0.09-1.68-0.07-1.18,1.49c0.02,0.6,0.29,1.11,0.62,1.59c0.29,0.43,0.56,0.47,0.98,0.19
		c0.16-0.11,0.31-0.22,0.46-0.35C149.08,122.13,149.57,121.67,150.07,121.22z M145.58,121.52c0.02-0.47-0.14-0.89-0.29-1.32
		c-0.07-0.2-0.2-0.35-0.43-0.33c-0.97,0.09-1.93,0.24-2.81,0.7c-0.56,0.29-0.84,0.68-0.68,1.33c0.08,0.34-0.03,0.72,0.17,1.04
		c0.02,0.16,0.02,0.33,0.05,0.48c0.16,0.65,0.31,0.77,0.95,0.64c0.7-0.14,1.38-0.34,2.07-0.52c1.22-0.33,1.22-0.33,1.09-1.56
		C145.69,121.82,145.62,121.67,145.58,121.52z M83.64,156.83l0.01,0.02c-0.1-0.22-0.31-0.32-0.49-0.46
		c-1.3-1.04-2.59-2.08-3.76-3.26c-0.83-0.83-1.74-1.56-2.71-2.22c-0.77-0.52-0.69-0.61-1.61,0.01c-0.16,0.11-0.29,0.25-0.44,0.38
		c-0.17,0.09-0.35,0.17-0.51,0.28c-1.64,1.18-3.39,2.2-5.19,3.11c-0.15,0.07-0.29,0.14-0.43,0.23c-0.12,0.08-0.17,0.21-0.06,0.32
		c0.21,0.2,0.45,0.38,0.68,0.56c8.54,6.69,18.07,11.32,28.6,13.9c1.77,0.43,3.55,0.81,5.36,1.08c0.18,0.03,0.38,0.12,0.55-0.05
		c-0.07,0.06-0.07,0.11,0.02,0.13c0.02,0.01,0.08-0.02,0.08-0.02c0-0.08-0.05-0.11-0.13-0.09c0-0.03,0.01-0.08,0-0.1
		c-0.77-0.8-1.67-1.44-2.53-2.14c-0.14-0.11-0.29-0.13-0.45-0.05c-0.11,0.06-0.24,0.11-0.36,0.16c-1.24,0.54-3.01-0.4-2.97-2.11
		c0-0.13,0.01-0.26,0.03-0.39c0.05-0.26-0.07-0.42-0.29-0.56c-1.18-0.75-2.33-1.55-3.54-2.27c-3.29-1.94-6.47-4.03-9.57-6.25
		C83.85,156.98,83.74,156.9,83.64,156.83z M137.5,89.02c0.06,0,0.14,0.01,0.19-0.02c1.58-0.87,3.29-1.39,5.01-1.91
		c0.59-0.18,1.18-0.36,1.72-0.69c-0.09-0.18-0.25-0.22-0.4-0.28c-0.88-0.36-1.68-0.86-2.42-1.45c-0.63-0.51-1.24-1.05-1.86-1.58
		c-0.12-0.1-0.22-0.25-0.4-0.15c-0.05,0.56-0.08,1.12-0.17,1.66c-0.22,1.33-0.73,2.56-1.42,3.72
		C137.62,88.54,137.38,88.72,137.5,89.02c-0.13-0.05-0.16,0-0.11,0.12C137.43,89.1,137.46,89.06,137.5,89.02z M150.82,37.49
		l-0.01-0.01c-0.05,0.22,0.11,0.36,0.22,0.52c0.4,0.59,0.83,1.17,1.22,1.77c0.25,0.39,0.57,0.7,0.96,0.96
		c2.6,1.75,5.05,3.69,7.37,5.79c0.17,0.15,0.34,0.33,0.54,0.41c1.06,0.4,2.09,0.89,3.21,1.14c0.23,0.11,0.46,0.24,0.7,0.33
		c2.05,0.76,4.1,1.5,6.14,2.27c0.42,0.16,0.78,0.18,1.22,0.03c0.92-0.3,1.74-0.06,2.38,0.68c0.13,0.15,0.22,0.32,0.31,0.49
		c0.22,0.4,0.56,0.53,0.98,0.44c0.22-0.04,0.43-0.13,0.64-0.2c-0.03-0.39-0.29-0.61-0.48-0.87c-8.26-10.99-18.67-19.25-31.33-24.64
		c-1.74-0.74-3.51-1.4-5.31-2c-0.23-0.08-0.47-0.25-0.72-0.07c0.06-0.07,0.06-0.12-0.01-0.14c-0.04-0.01-0.08,0.03-0.12,0.05
		c0.05,0.03,0.1,0.05,0.15,0.08c0.09,0.34,0.4,0.49,0.63,0.71c3.86,3.52,7.43,7.32,10.59,11.48c0.16,0.21,0.34,0.39,0.52,0.58
		C150.64,37.43,150.68,37.52,150.82,37.49z M142.6,77.89c-1.05,0.58-2.02,1.27-2.98,1.98c0.07,0.11,0.09,0.19,0.13,0.22
		c1.15,0.82,2.15,1.8,3.2,2.73c0.58,0.52,1.2,1.01,1.87,1.41c2.19,1.32,4.51,1.38,6.88,0.65c0.65-0.2,1.27-0.51,1.6-1.18
		c0.71-0.67,0.91-1.56,1.03-2.46c0.16-1.19,0.26-2.39,0.37-3.59c0.02-0.19,0-0.39-0.01-0.58c0.14-0.71,0.06-1.42,0.08-2.13
		c0.01-0.37-0.06-0.41-0.46-0.46c-1.69-0.2-3.36-0.11-5.02,0.24c-1.2,0.26-2.35,0.67-3.38,1.38
		C144.72,76.54,143.66,77.22,142.6,77.89z M114.07,114.05c-0.78-0.47-1.55-0.94-2.33-1.41c-0.76-0.47-1.42-1.09-2.24-1.58
		c-0.06,0.27-0.12,0.45-0.14,0.64c-0.11,0.91-0.34,1.79-0.63,2.66c-1.68,5.04-4.07,9.74-7.03,14.14c-0.43,0.64-0.75,1.29-0.88,2.04
		c-0.19,1.07-0.16,2.14-0.03,3.22c0.36,2.87,1.25,5.59,2.35,8.25c0.48,1.17,1.23,2.14,2.2,2.96c0.8,0.68,1.7,1.21,2.64,1.66
		c1.41,0.69,2.88,1.22,4.37,1.71c3.34,1.1,6.7,2.15,9.92,3.59c0.09,0.04,0.23,0.15,0.38-0.07c-0.13-0.45-0.27-0.95-0.4-1.44
		c-0.44-1.57-0.7-3.18-1.06-4.77c-0.44-3.03-0.85-6.06-0.99-9.11c-0.02-0.49-0.09-0.97-0.13-1.46c0.01-0.29,0.03-0.58,0.03-0.88
		c-0.01-2.12-0.02-4.24,0.16-6.36c0.16-1.89,0.39-3.76,0.82-5.61c0.9-3.87,2.82-7.13,5.77-9.78c1.36-1.22,2.84-2.3,4.38-3.28
		c1.88-1.19,3.83-2.23,5.83-3.2c0.23-0.11,0.47-0.23,0.7-0.34c0.13-0.06,0.2-0.18,0.2-0.31c0-0.36-0.01-0.72-0.02-1.08
		c-0.01-0.38,0.07-0.77-0.06-1.18c-1.8,0.1-3.58,0.45-5.38,0.08c0.04-0.08,0.05-0.12,0.07-0.13c0.29-0.15,0.58-0.29,0.87-0.43
		c1.99-0.91,3.56-2.27,4.59-4.23c0.21-0.4,0.45-0.8,0.7-1.18c0.38-0.58,0.84-1.1,1.46-1.42c2.17-1.14,4.38-1.44,6.62-0.16
		c0.54,0.31,1.05,0.66,1.58,0.97c0.33,0.2,0.63,0.46,1.04,0.52c0.15,0.21,0.41,0.23,0.6,0.38c-0.01,0.11-0.01,0.22-0.02,0.33
		c-0.58-0.08-1.16-0.16-1.74-0.24c-1.43-0.19-2.85-0.19-4.28,0.07c-0.86,0.16-1.5,0.61-1.95,1.34c-0.34,0.56-0.61,1.15-0.63,1.82
		c-0.32,0.99-0.23,2-0.09,3c0.06,0.42,0.15,0.83,0.33,1.22c0.15,0.33,0.37,0.53,0.75,0.5c0.36-0.03,0.72-0.02,1.07-0.08
		c2.19-0.38,4.37-0.7,6.59-0.81c1.34-0.07,2.67-0.09,4.01,0.01c0.94,0.07,1.88,0.14,2.82,0.2c1.05,0.21,2.11,0.41,3.16,0.62
		c0.1,0.02,0.19,0.03,0.29,0.03c0.45,0.02,0.75-0.15,0.93-0.57c0.09-0.21,0.14-0.44,0.15-0.66c0.07-1.72-0.25-3.31-1.49-4.61
		c-0.61-0.64-1.18-1.31-1.66-2.05c-0.91-1.4-1.45-2.91-1.42-4.6c0.01-0.69-0.07-1.37-0.19-2.04c-0.37-2-1.46-3.38-3.45-3.98
		c-0.5-0.15-1.01-0.25-1.53-0.3c-1.88-0.18-3.7,0.07-5.48,0.7c-1.57,0.56-3.08,1.24-4.58,1.95c-1.97,0.93-3.93,1.9-5.95,2.74
		c-1.96,0.82-3.94,1.54-6.02,1.98c0-0.1,0-0.2,0-0.29c2.45-1.46,3.88-3.71,4.85-6.3c0.12-0.31,0.04-0.46-0.23-0.52
		c-1.47-0.31-2.96-0.48-4.45-0.58c-0.24-0.02-0.45,0.04-0.6,0.25c-0.08,0.11-0.16,0.2-0.24,0.31c-2.24,2.88-4.38,5.84-6.31,8.94
		c-1.62,2.6-3.1,5.28-4.24,8.13c-0.12,0.3-0.29,0.58-0.3,0.92c-0.45,0.84-0.64,1.77-0.9,2.67c-0.07,0.26,0.04,0.44,0.2,0.61
		c0.64,0.7,1.32,1.36,2.14,1.83c0.71,0.4,0.98,1.01,1.02,1.76c0.02,0.32,0.02,0.65-0.03,0.97c-0.11,0.77-0.24,1.54-0.44,2.3
		c-0.79,2.93-1.94,5.73-3.21,8.47c-0.12,0-0.25-0.01-0.37-0.01c0.16-0.96,0.32-1.93,0.46-2.89c0.18-1.23,0.34-2.45,0.33-3.7
		c0-0.93-0.49-1.54-1.25-1.94C115.46,114.62,114.76,114.36,114.07,114.05z M148.26,125.26c-0.62,0.25-1.05,0.76-1.56,1.15
		c-1.2,0.92-2.49,1.67-3.93,2.14c-0.71,0.23-1.43,0.43-2.15,0.66c-0.72,0.22-1.43,0.46-2.09,0.81c-1.19,0.63-1.94,1.6-2.23,2.94
		c-0.25,1.17-0.25,2.34-0.06,3.5c0.32,2.03,0.69,4.05,1.05,6.07c0.66,3.69,1.33,7.38,1.99,11.07c0.07,0.37,0.22,0.58,0.6,0.66
		c1.05,0.22,2.1,0.48,3.15,0.69c2.01,0.41,4.04,0.74,6.1,0.76c1.08,0.01,2.16-0.04,3.15-0.54c2.74-1.38,4.66-3.52,5.71-6.41
		c0.07-0.18,0.13-0.37,0.07-0.57c0.16-0.22,0.18-0.48,0.21-0.74c0.14-1.13-0.09-2.2-0.46-3.26c-0.45-1.29-1.04-2.53-1.6-3.77
		c-0.45-0.98-0.87-1.96-1.16-3c-0.26-0.95-0.39-1.91-0.24-2.9c0.03-0.18,0.14-0.36,0.04-0.55c-0.89-0.17-1.36-0.13-2.18,0.21
		c-1.01,0.41-1.86,1.05-2.66,1.79c-0.23,0.22-0.41,0.51-0.73,0.63c-0.02-0.59-0.05-1.17,0.1-1.75c0.32-1.26,1.06-2.22,2.08-2.99
		c0.89-0.68,1.9-1.13,2.96-1.47c0.87-0.28,1.77-0.44,2.67-0.59c0.78-0.13,1.52-0.38,2.17-0.84c0.62-0.44,1.16-0.95,1.33-1.73
		c0.38-0.77,0.32-1.58,0.13-2.38c-0.19-0.82-0.7-1.38-1.48-1.68c-0.24-0.09-0.49-0.18-0.74-0.25c-1.75-0.51-3.53-0.52-5.32-0.26
		c-0.87,0.13-1.71,0.37-2.49,0.81C149.78,123.95,148.97,124.54,148.26,125.26z M144.22,158.59c-0.34-0.23-0.74-0.19-1.11-0.27
		c-1.43-0.3-1.43-0.29-2.67,0.29c-0.06,0.03-0.12,0.06-0.17,0.08c-0.16,0.08-0.25,0.2-0.26,0.38c-0.03,0.45-0.15,0.89-0.04,1.34
		c-0.03,0.19-0.08,0.38-0.09,0.58c-0.15,2.06-0.5,4.08-1.01,6.07c-0.08,0.34-0.28,0.66-0.19,1.03c0.41,0.15,0.74-0.11,1.09-0.23
		c10.09-3.4,19.05-8.74,26.88-15.95c15.36-14.14,24.13-33.51,24.44-54.73c0.06-3.92-0.21-7.83-0.76-11.71
		c-0.65-4.53-1.69-8.97-3.15-13.31c-0.42-1.23-0.83-2.47-1.37-3.68c-0.1,0.07-0.21,0.1-0.26,0.17c-1.65,2.15-3.21,4.36-4.64,6.66
		c-0.18,0.23-0.34,0.47-0.54,0.68c-0.5,0.53-0.53,1.07-0.32,1.78c1.36,4.55,2.16,9.2,2.45,13.93c0.28,4.66,0.16,9.32-0.5,13.96
		c-0.51,3.56-1.27,7.05-2.34,10.48c-3.33,10.67-8.97,19.93-16.88,27.81c-0.41,0.41-1.03,0.73-1.17,1.28
		c-0.15,0.57,0.01,1.22,0.03,1.84c-0.11,0.74-0.18,1.49-0.4,2.21c-1.25,4.06-3.81,7-7.59,8.88c-0.88,0.44-1.84,0.66-2.81,0.79
		c-0.19,0.02-0.39-0.02-0.58,0.14c0.09,0.23,0.21,0.47,0.28,0.71c0.28,0.9-0.06,1.89-0.81,2.44c-0.77,0.57-1.78,0.58-2.57,0.05
		c-0.75-0.51-1.21-1.57-0.87-2.5c0.11-0.3,0.24-0.59,0.41-0.98C145.81,158.86,145.04,158.54,144.22,158.59z M84.02,84.49
		c-0.32,0.14-0.5,0.42-0.68,0.68c-1.26,1.82-2.46,3.68-3.51,5.64c-2,3.74-3.68,7.62-5,11.66c-0.5,1.52-0.95,3.04-1.39,4.58
		c-0.06,0.21-0.08,0.47-0.38,0.66c0.02-0.52,0.01-0.94,0.07-1.36c0.23-1.61,0.49-3.21,0.72-4.82c0.33-2.25,0.79-4.48,1.32-6.69
		c0.59-2.47,1.26-4.92,2.15-7.3c0.06-0.15,0.04-0.32,0.06-0.48c0.04-0.04,0.1-0.07,0.13-0.11c0.04-0.06,0.02-0.11-0.06-0.12
		c-0.01,0-0.03,0.05-0.04,0.07c-0.01,0.06-0.01,0.11-0.02,0.17c-0.25,0.06-0.33,0.29-0.46,0.48c-1.96,2.82-3.56,5.85-4.93,8.99
		c-1.21,2.75-2.22,5.57-3.2,8.4c-1.41,4.03-2.81,8.06-4.61,11.95c-0.73,1.57-1.53,3.1-2.38,4.61c-1.14,2.02-2.42,3.95-3.84,5.78
		c-0.64,0.82-1.3,1.63-1.96,2.44c-0.12,0.14-0.22,0.34-0.48,0.3c0.04-0.45,0.09-0.89,0.12-1.34c0.05-0.71,0.03-1.43,0.14-2.15
		c0.09-0.54,0.06-1.1-0.03-1.66c-0.07-0.45-0.14-0.91-0.12-1.36c0.07-1.55-0.24-3.05-0.49-4.55c-0.31-1.86-0.74-3.7-1.27-5.52
		c-0.13-0.43-0.16-0.89-0.44-1.29c-0.26-0.39-0.14-0.88-0.28-1.32c-1.1-3.58-2.17-7.17-3.08-10.81c-0.05-0.2-0.01-0.46-0.28-0.64
		c-0.01,0.21-0.03,0.39-0.03,0.57c-0.05,2.84,0.07,5.67-0.14,8.51c-0.14,1.92-0.29,3.83-0.66,5.72c-0.38,1.92-0.89,3.81-1.63,5.62
		c-0.42,1.03-0.86,2.04-1.26,3.08c-0.53,1.37-1.15,2.7-1.8,4.02c-0.67,1.34-1.4,2.65-2.16,3.95c-2.15,3.63-4.58,7.06-7.31,10.26
		c-1.25,1.46-2.58,2.85-3.87,4.28c-0.1,0.11-0.26,0.21-0.19,0.41c0.18,0.13,0.38,0.07,0.56,0.07c1.77-0.01,3.49-0.34,5.21-0.73
		c2.2-0.49,4.33-1.17,6.43-2c2.34-0.92,4.57-2.06,6.7-3.41c0.14-0.09,0.27-0.18,0.32-0.35c0.02-0.01,0.05-0.01,0.07-0.03
		c0.01-0.01,0.01-0.03,0.01-0.05c-0.02,0.03-0.05,0.06-0.07,0.09c-0.33-0.01-0.65-0.02-0.98-0.02c-1.4,0-2.81,0-4.21,0
		c-0.45,0-0.89-0.02-1.35-0.28c0.51-0.23,0.98-0.44,1.45-0.65c2.39-1.05,4.72-2.22,6.95-3.58c1.75-1.07,3.43-2.25,5.01-3.58
		c1.89-1.58,3.54-3.37,4.87-5.44c0.08-0.13,0.11-0.31,0.3-0.35c0.03,0.05,0.08,0.1,0.08,0.15c0.05,1.6,0.08,3.2-0.24,4.78
		c-0.12,0.61-0.16,1.22-0.29,1.83c-0.5,2.44-1.38,4.76-2.39,7.02c-1.89,4.22-4.28,8.14-7.32,11.63c-0.1,0.11-0.25,0.21-0.15,0.41
		c0.26,0.08,0.52,0.03,0.77-0.02c3.01-0.57,5.98-1.32,8.81-2.53c1.95-0.83,3.84-1.8,5.52-3.11c0.15-0.11,0.37-0.2,0.29-0.45
		c-0.06-0.17-0.24-0.21-0.39-0.26c-0.19-0.05-0.38-0.09-0.58-0.09c-0.91,0-1.83-0.1-2.72,0.17c-0.09,0.03-0.2,0.04-0.29,0.02
		c-0.11-0.01-0.27,0.08-0.29-0.13c0.07-0.18,0.23-0.23,0.37-0.31c1.79-1,3.59-2,5.38-3c0.59-0.33,0.63-0.43,0.53-1.09
		c-0.12-0.8-0.28-1.61-0.31-2.42c-0.09-2.38-0.15-4.76,0.35-7.11c0.34-1.62,0.91-3.14,1.79-4.52c0.36-0.56,0.62-1.11,0.8-1.75
		c0.81-2.8,1.86-5.5,3.38-8c0.26-0.43,0.4-0.98,0.89-1.25l-0.01-0.01c0.09,0.56-0.1,1.1-0.17,1.64c-0.16,1.19-0.33,2.38-0.47,3.58
		c-0.16,1.43-0.16,2.86-0.3,4.29c-0.1,1.07,0.1,2.15,0.14,3.22c0.04,1.37,0.26,2.72,0.51,4.07c0.31,1.63,0.74,3.24,1.37,4.78
		c0.8,1.97,1.76,3.85,3.02,5.58c0.63,0.87,1.36,1.67,2.04,2.5c0.8,0.97,1.79,1.71,2.69,2.56c0.04,0.04,0.12,0.06,0.18,0.06
		c0.05-0.01,0.13-0.07,0.13-0.1c-0.02-0.13-0.06-0.25-0.11-0.37c-0.6-1.5-0.82-3.08-0.96-4.67c-0.08-0.94-0.05-1.89,0-2.84
		c0.03-0.68,0.15-1.36,0.24-2.03c0.02-0.12,0.11-0.23,0.2-0.39c0.06,0.14,0.11,0.22,0.12,0.31c0.26,1.34,0.52,2.68,0.78,4.02
		c0.6,3.13,2.01,5.83,4.22,8.12c1.96,2.03,4.16,3.75,6.47,5.35c3.37,2.35,6.7,4.75,9.85,7.39c1.8,1.51,3.5,3.12,5.21,4.73
		c0.47,0.45,0.87,0.97,1.32,1.44c0.96,0.98,1.84,2.02,2.7,3.1c1.98,2.48,3.69,5.13,4.95,8.06c0.85,1.99,1.46,4.06,1.66,6.21
		c0.21,2.28,0.1,4.56-0.56,6.79c-0.05,0.17-0.2,0.35-0.06,0.54c0.15,0.05,0.26-0.03,0.36-0.1c0.68-0.45,1.31-0.97,1.94-1.48
		c1.63-1.31,2.89-2.92,3.8-4.78c1.14-2.32,1.43-4.81,1.16-7.34c-0.26-2.42-1.03-4.7-2.07-6.89c-1.89-3.96-4.53-7.38-7.5-10.56
		c-1.43-1.53-3-2.9-4.62-4.21c-2.2-1.79-4.43-3.53-6.68-5.26c-2.04-1.57-4-3.24-5.79-5.1c-0.93-0.97-1.77-2.01-2.53-3.1
		c-1.43-2.04-2.51-4.27-3.43-6.58c-0.15-0.36-0.28-0.73-0.43-1.09c-0.02-0.05-0.08-0.12-0.13-0.13c-0.11-0.02-0.18,0.06-0.21,0.16
		c-0.61,2.08-1.01,4.18-0.81,6.36c0.02,0.23,0.07,0.45,0.11,0.67c0.23,1.23,0.67,2.38,1.25,3.48c0.16,0.31,0.42,0.59,0.4,0.98
		l-0.01,0.01c-0.12-0.04-0.26-0.06-0.36-0.13c-1.51-1.17-2.82-2.52-3.79-4.17c-1.08-1.83-1.51-3.83-1.28-5.92
		c0.22-1.96,0.9-3.81,1.8-5.55c1.28-2.47,2.89-4.73,4.53-6.96c1.14-1.55,2.3-3.08,3.43-4.64c1.02-1.4,1.96-2.85,2.8-4.36
		c1.7-3.05,2.11-6.4,2.24-9.81c0.01-0.35-0.14-0.62-0.33-0.9c-0.57-0.87-1.18-1.72-1.65-2.66c-0.16-0.32-0.36-0.62-0.55-0.93
		c-0.13-0.21-0.29-0.22-0.48-0.06c-0.28,0.24-0.47,0.54-0.64,0.86c-0.44,0.83-0.54,1.75-0.62,2.65c-0.13,1.4,0.05,2.8,0.26,4.19
		c0.09,0.6,0.2,1.2,0.3,1.83c-0.29,0.02-0.45-0.1-0.6-0.22c-0.38-0.31-0.77-0.6-1.13-0.93c-2.6-2.4-4.96-4.99-6.99-7.9
		c-1.67-2.39-3.12-4.9-4.32-7.55c-0.9-1.99-1.7-4.03-2.27-6.14c-0.12-0.45-0.2-0.93-0.47-1.32c-0.23,0.06-0.31,0.2-0.39,0.34
		c-1.05,1.76-2.08,3.55-2.98,5.4c-0.74,1.52-1.49,3.05-2.08,4.64c-0.04,0.12-0.06,0.32-0.28,0.29c-0.07-0.24-0.01-0.46,0.04-0.68
		c0.29-1.17,0.58-2.34,0.88-3.51c0.75-2.94,1.63-5.84,2.71-8.68c0.12-0.33,0.3-0.66,0.27-1.03c0.04-0.05,0.1-0.08,0.13-0.14
		c0.04-0.07,0.01-0.13-0.07-0.15c-0.01,0-0.05,0.04-0.06,0.07C84.04,84.37,84.04,84.43,84.02,84.49z M104.6,73.93L104.6,73.93
		c-0.01,0.26,0.02,0.53-0.04,0.78c-0.46,1.83-0.77,3.69-0.98,5.57c-0.18,1.59-0.22,3.18-0.33,4.77c-0.06,0.82,0.13,1.62,0.15,2.44
		c0.02,1.27,0.19,2.53,0.38,3.79c0.3,1.97,0.75,3.9,1.37,5.79c1.17,3.57,2.92,6.83,5.26,9.76c0.3,0.38,0.59,0.78,1.04,1.02
		c0.04,0.03,0.07,0.06,0.11,0.09c0.02-0.06,0-0.1-0.08-0.12c0.04-0.37-0.1-0.71-0.21-1.05c-0.66-2.1-0.83-4.28-0.93-6.46
		c-0.04-0.84,0.07-1.69,0.18-2.53c0.23-1.78,0.68-3.52,1.43-5.16c0.35-0.78,0.82-1.48,1.33-2.16c0.05-0.07,0.14-0.15,0.25-0.09
		c0.04,0.03,0.08,0.1,0.08,0.15c-0.02,0.62,0.03,1.24-0.09,1.86c-0.04,0.22-0.09,0.46-0.04,0.68c0.15,0.68,0.11,1.36,0.14,2.05
		c0.03,0.73,0.23,1.42,0.47,2.09c0.14,0.39,0.35,0.76,0.8,0.97c0.05-0.13,0.1-0.21,0.11-0.3c0.11-0.78,0.34-1.52,0.62-2.26
		c0.47-1.22,1.12-2.36,1.82-3.45c1.49-2.31,3.23-4.42,4.98-6.53c1.12-1.36,2.29-2.68,3.39-4.05c1.47-1.83,2.94-3.65,4.29-5.58
		c1.14-1.63,2.21-3.31,3.14-5.07c0.53-1.01,1.01-2.05,1.4-3.12c0.08-0.23,0.11-0.53,0.47-0.63c0.57,1.11,0.95,2.27,1.02,3.53
		c0.09,1.55-0.26,3.05-0.47,4.56c-0.15,1.06-0.34,2.12-0.31,3.2c0,0.13-0.1,0.33,0.17,0.38c0.62-1.03,1.28-2.03,2.05-2.97
		c1.48-1.81,3.33-3.1,5.44-4.06c2.78-1.26,5.74-1.67,8.75-1.76c1.69-0.05,3.38,0.16,5.06,0.3c1.63,0.14,3.23,0.42,4.82,0.71
		c2.88,0.52,5.72,1.25,8.56,1.98c1.58,0.4,3.16,0.79,4.73,1.2c0.5,0.13,0.95,0.14,1.41-0.15c1.56-1.02,3.05-2.13,4.15-3.68
		c1.17-1.65,1.8-3.44,1.49-5.5c-0.29-1.94-1.28-3.46-2.72-4.72c-0.19-0.17-0.36-0.15-0.5,0.04c-0.51,0.68-1.04,1.34-1.4,2.12
		c-0.29,0.62-0.57,1.25-0.85,1.87c-0.13,0.29-0.27,0.32-0.52,0.09c-0.75-0.68-1.42-1.44-2.03-2.25c-1.1-1.49-1.9-3.11-2.15-4.97
		c-0.11-0.82-0.18-0.89-1-0.97c-0.19-0.02-0.39-0.01-0.59-0.02c-2.05-0.05-4.09,0.04-6.14,0.34c-1.72,0.25-3.37,0.72-5,1.3
		c-0.37,0.13-0.71,0.32-1.07,0.47c-0.05,0.02-0.14,0-0.18-0.04c-0.03-0.03-0.04-0.12-0.03-0.16c0.11-0.28,0.32-0.49,0.52-0.7
		c0.91-0.94,1.76-1.93,2.84-2.69c0.07-0.05,0.14-0.17,0.12-0.24c-0.01-0.07-0.12-0.15-0.2-0.18c-0.12-0.04-0.26-0.05-0.38-0.05
		c-2.9-0.06-5.8-0.08-8.7,0.2c-0.03,0-0.07,0-0.1,0.01c-1.5,0.27-3.02,0.42-4.53,0.7c-2.96,0.55-5.83,1.36-8.63,2.45
		c-0.22,0.08-0.42,0.17-0.66,0.14l0.01,0.01c-0.02-0.22,0.11-0.37,0.25-0.51c1.87-1.96,3.85-3.81,6.05-5.39
		c0.2-0.15,0.46-0.24,0.58-0.52c-0.11-0.01-0.21-0.04-0.3-0.02c-1.92,0.38-3.83,0.76-5.7,1.33c-3.23,0.99-6.29,2.32-9.19,4.06
		c-1.94,1.16-3.76,2.47-5.44,3.97c-1.8,1.61-3.51,3.32-5.02,5.21c-2.24,2.78-4.12,5.79-5.7,8.99c-0.82,1.66-1.6,3.35-2.23,5.11
		c-0.04,0.11-0.07,0.25-0.23,0.28c-0.15-0.12-0.08-0.29-0.09-0.43c-0.11-1.91,0.28-3.76,0.7-5.61c0.9-3.9,2.36-7.59,4.04-11.21
		c0.69-1.48,1.44-2.92,2.24-4.35c1.35-2.43,2.85-4.76,4.5-6.99c0.67-0.9,0.67-0.96-0.09-1.82c-1.01-1.15-2.01-2.31-3.01-3.47
		c-1.36-1.58-2.71-3.16-4.32-4.51c-2.21-1.85-4.66-3.09-7.56-3.35c-0.26-0.02-0.51-0.1-0.77-0.13c-0.27-0.03-0.54-0.04-1.02-0.08
		c0.77-0.41,1.37-0.63,1.98-0.83c0.62-0.21,1.25-0.38,1.87-0.56c0.63-0.18,1.27-0.27,1.91-0.37c0.65-0.1,1.29-0.16,1.94-0.15
		c0.65,0.01,1.3-0.02,1.95,0.11c0.62,0.12,1.22,0.36,1.9,0.33c0.02-1.9,0.62-3.57,1.48-5.17c0.26-0.49,0.53-0.97,0.82-1.44
		c0.33-0.53,0.68-1.03,1.03-1.55c0.24-0.36,0.23-0.44-0.15-0.7c-0.83-0.58-1.68-1.13-2.59-1.56c-1.79-0.86-3.62-1.61-5.68-1.63
		c0.19-0.3,0.45-0.32,0.71-0.33c1.99-0.09,3.97-0.05,5.93,0.37c2.01,0.43,3.96,1.05,5.88,1.8c1.62,0.63,2.99,1.6,4.04,2.98
		c0.94,1.25,1.9,2.49,2.78,3.78c2.35,3.49,4.65,7.01,6.97,10.53c0.4,0.6,0.79,1.2,1.19,1.8c0.27,0.4,0.45,0.54,0.97,0.37
		c1.55-0.51,3.13-0.9,4.73-1.17c1.51-0.26,3.01-0.54,4.56-0.48c0.23,0.01,0.46,0.01,0.68,0c0.15-0.01,0.33,0.07,0.44-0.18
		c-0.08-0.14-0.16-0.32-0.28-0.46c-1.45-1.76-2.89-3.53-4.39-5.25c-0.56-0.64-1.13-1.27-1.7-1.9c-1.05-1.16-2.06-2.36-3.15-3.48
		c-2-2.06-4.04-4.08-6.09-6.1c-0.86-0.85-1.75-1.66-2.67-2.45c-1.41-1.21-2.84-2.4-4.29-3.56c-1.02-0.81-2.08-1.57-3.13-2.34
		c-0.26-0.19-0.54-0.38-0.89-0.37c-1.05,0.04-2.07-0.21-3.12-0.17c-0.85,0.03-1.69,0.07-2.53,0.14c-1,0.09-2.01,0.09-3.02,0.2
		c-1.75,0.19-3.48,0.48-5.18,0.92c-1.46,0.37-2.87,0.87-4.21,1.54c-0.35,0.18-0.68,0.39-1.02,0.58c-0.1,0.06-0.24,0.16-0.34,0.01
		c-0.08-0.12,0-0.25,0.07-0.36c0.12-0.19,0.24-0.39,0.4-0.56c0.62-0.67,1.26-1.32,2.04-1.82c0.49-0.32,0.99-0.63,1.48-0.96
		c0.2-0.13,0.18-0.33-0.06-0.44c-1.67-0.74-3.4-1.32-5.16-1.82c-1.57-0.44-3.17-0.77-4.78-0.93c-1.78-0.18-3.58-0.13-5.38-0.02
		c-0.06,0-0.13,0.03-0.19,0.04c-0.73,0.16-1.46,0.31-2.19,0.47c-0.44,0.1-0.83,0.08-1.19-0.24c-0.32-0.28-0.68-0.5-1.03-0.75
		c-2.43-1.72-4.98-3.22-7.69-4.45c-2.32-1.06-4.7-1.93-7.17-2.57c-2.14-0.55-4.31-1-6.52-1.21c-1.52-0.15-3.04-0.32-4.57-0.33
		c-1.33-0.01-2.67,0.02-4,0.13c-1.46,0.12-2.92,0.26-4.37,0.45c-0.45,0.06-0.56,0.21-0.48,0.65c0.02,0.13,0.07,0.25,0.1,0.38
		c0.25,0.94,0.5,1.89,0.75,2.83c0.03,0.13,0.08,0.25,0.1,0.38c0.05,0.29-0.06,0.45-0.34,0.47c-0.16,0.01-0.33,0.01-0.49,0.01
		c-0.88-0.01-1.76-0.02-2.64-0.03c-0.13,0-0.26,0-0.27,0.18c0.67,0.56,1.35,1.12,2.03,1.68c1.41,1.17,2.7,2.46,3.87,3.87
		c0.48,0.58,0.89,1.21,1.32,1.82c0.24,0.34,0.31,0.36,0.6,0.08c1.11-1.01,2.42-1.65,3.85-2.05c1.51-0.42,3.05-0.69,4.62-0.69
		c0.32,0,0.65-0.01,0.97-0.05c0.15-0.01,0.21-0.15,0.18-0.29c-0.02-0.13-0.07-0.25-0.13-0.36c-0.71-1.34-1.58-2.57-2.71-3.56
		c-1.23-1.08-2.59-1.98-4.2-2.42c-0.19-0.05-0.46-0.04-0.55-0.35c1.51,0.01,3-0.07,4.5,0.16c2.3,0.35,4.39,1.2,6.35,2.41
		c2.08,1.28,3.78,3.01,5.37,4.83c1.59,1.82,2.94,3.82,4.17,5.91c0.06,0.1,0.16,0.22,0.01,0.34c-0.21,0.04-0.37-0.1-0.54-0.18
		c-1.41-0.7-2.88-1.22-4.4-1.62c-2.18-0.57-4.39-0.9-6.66-0.86c-0.56,0.01-1.1,0.15-1.65,0.18c-1.28,0.07-2.49,0.46-3.68,0.91
		c-0.06,0.02-0.12,0.06-0.17,0.09c-0.11,0.07-0.08,0.17-0.01,0.24c0.07,0.06,0.16,0.11,0.25,0.14c1.33,0.47,2.59,1.08,3.82,1.75
		c1.45,0.78,2.77,1.72,3.87,2.95c0.42,0.46,0.77,0.97,1.04,1.53c0.08,0.17,0.22,0.34,0.09,0.57c-0.39,0.08-0.8,0.17-1.22,0.24
		c-2.27,0.37-4.41,1.14-6.49,2.09c-3.47,1.59-6.56,3.76-9.39,6.3c-1.94,1.74-3.74,3.65-5.33,5.72c-2.62,3.4-4.81,7.05-6.5,11.01
		c-1.3,3.03-2.32,6.16-3.04,9.38c-0.53,2.38-0.96,4.78-1.21,7.22c-0.24,2.34-0.39,4.68-0.37,7.03c0.01,0.62,0.03,1.24,0,1.86
		c-0.06,1.73,0.2,3.45,0.24,5.18c0,0.07,0.01,0.13,0.02,0.2c0.18,1.35,0.36,2.71,0.53,4.06c0.23,1.91,0.59,3.79,0.97,5.68
		c0.46,2.23,0.97,4.46,1.59,6.65c0.08,0.27,0.11,0.56,0.36,0.8c0-0.54,0.07-1.04-0.02-1.51c-0.16-0.85-0.14-1.69-0.13-2.54
		c0.02-1.86-0.02-3.71,0.13-5.57c0.16-1.98,0.36-3.95,0.61-5.92c0.21-1.65,0.51-3.28,0.87-4.9c0.88-3.95,2.08-7.81,3.72-11.52
		c1.23-2.79,2.69-5.44,4.47-7.91c1.36-1.88,2.87-3.63,4.65-5.13c0.14-0.12,0.26-0.31,0.49-0.23c0.09,0.13,0.03,0.25-0.01,0.37
		c-0.67,2.39-1.26,4.79-1.75,7.22c-0.36,1.82-0.65,3.65-0.9,5.49c-0.1,0.74-0.11,1.5-0.23,2.23c-0.21,1.2-0.07,2.41-0.31,3.6
		c-0.05,3.29-0.05,6.58,0.33,9.87c0.18,1.52,0.36,3.04,0.59,4.55c0.41,2.71,0.95,5.38,1.52,8.06c0.45,2.1,0.85,4.21,1.26,6.32
		c0.25,1.28,0.46,2.56,0.63,3.85c0.14,1.1,0.26,2.2,0.39,3.3c0.12,1.07,0.15,2.15,0.18,3.22c0,0.06,0.01,0.13,0.03,0.19
		c0.01,0.02,0.04,0.06,0.06,0.06c0.06-0.01,0.14-0.01,0.17-0.05c0.06-0.07,0.09-0.17,0.13-0.26c1.08-2.69,1.99-5.45,2.81-8.23
		c0.66-2.22,1.19-4.47,1.66-6.74c0.52-2.55,0.94-5.12,1.23-7.71c0.21-1.81,0.51-3.61,0.72-5.42c0.16-1.42,0.38-2.84,0.59-4.25
		c0.32-2.13,0.77-4.22,1.33-6.3c1.1-4.03,2.83-7.78,5.09-11.28c1.18-1.84,2.51-3.58,3.9-5.26c0.23-0.27,0.45-0.54,0.58-0.88
		c-0.26-0.13-0.48-0.05-0.7,0.03c-0.86,0.31-1.74,0.56-2.57,0.93c-1.34,0.59-2.69,1.18-3.85,2.12c-0.13,0.1-0.27,0.18-0.42,0.25
		c-0.09,0.04-0.2-0.02-0.2-0.13c0-0.19,0-0.4,0.06-0.58c0.23-0.71,0.45-1.44,0.74-2.12c1.58-3.63,3.85-6.8,6.5-9.71
		c1.19-1.3,2.51-2.47,3.91-3.55c2.24-1.73,4.67-3.09,7.41-3.87c0.14-0.04,0.3-0.15,0.42,0.07c-0.38,0.6-0.78,1.19-1.14,1.81
		c-1.61,2.76-2.35,5.78-2.61,8.93c-0.13,1.63-0.05,3.26,0.19,4.88c0.33,2.24,0.88,4.42,1.83,6.47c1.09,2.36,2.44,4.54,4.69,6.01
		c0.34,0.22,0.35,0.29,0.2,0.75c-0.48,1.43-0.71,2.91-0.7,4.42c0.02,1.92-0.07,3.85,0.18,5.77c0.1,0.77,0.17,1.56,0.29,2.32
		c0.32,1.93,0.73,3.84,1.26,5.72c0.86,3.02,1.98,5.94,3.43,8.72c0.09,0.17,0.15,0.37,0.34,0.46c0.03,0.1,0.05,0.11,0.07,0.05
		c0-0.01-0.05-0.02-0.08-0.03c0.09-1.01,0.08-2.02,0.15-3.02c0.1-1.34,0.26-2.66,0.49-3.97c0.49-2.73,1.19-5.4,2.05-8.04
		c0.92-2.8,2.03-5.51,3.4-8.11C104.19,74.42,104.26,74.08,104.6,73.93z M130.1,143.91c-0.03-0.36-0.03-0.66-0.08-0.94
		c-0.22-1.35-0.27-2.72-0.32-4.08c-0.06-1.46,0.01-2.93,0.13-4.39c0.12-1.33,0.28-2.66,0.55-3.96c0.24-1.15,0.55-2.28,0.88-3.41
		c0.68-2.36,1.68-4.59,2.99-6.67c0.98-1.55,2.21-2.9,3.51-4.19c1-1,2.18-1.64,3.54-1.96c0.98-0.23,1.98-0.38,2.99-0.39
		c1.92-0.02,3.83,0.09,5.74,0.37c2.06,0.3,4.1,0.71,6.13,1.15c1.72,0.37,3.42,0.78,5.14,1.17c0.25,0.06,0.52,0.07,0.78,0.08
		c0.32,0.01,0.42-0.08,0.48-0.36c0.31-1.52,0.22-3.05,0.18-4.58c-0.01-0.37-0.2-0.69-0.51-0.91c-0.4-0.28-0.77-0.59-1.22-0.82
		c-1.43-0.73-2.93-1.26-4.48-1.67c-1.8-0.47-3.63-0.79-5.48-0.86c-1.75-0.07-3.51-0.1-5.27,0.13c-1.1,0.14-2.2,0.27-3.27,0.51
		c-2.94,0.65-5.75,1.66-8.41,3.08c-2.3,1.23-4.27,2.86-5.89,4.91c-1.42,1.81-2.46,3.84-3.2,6.01c-0.5,1.45-0.85,2.94-1.11,4.45
		c-0.25,1.48-0.45,2.96-0.47,4.46c-0.03,1.86-0.05,3.71,0.12,5.57c0.16,1.69,0.35,3.36,0.61,5.04c0.43,2.81,1.1,5.55,1.86,8.28
		c0.5,1.79,1.02,3.57,1.49,5.37c0.69,2.58,1.34,5.17,1.63,7.83c0.13,1.16,0.3,2.32,0.31,3.5c0.01,1.27-0.01,2.54-0.14,3.81
		c-0.13,1.3-0.31,2.58-0.54,3.86c-0.13,0.73-0.3,1.45-0.46,2.22c0.43-0.25,0.43-0.25,0.59-0.51c1.57-2.38,2.78-4.94,3.73-7.62
		c0.87-2.46,1.51-4.99,1.94-7.56c0.16-0.93,0.29-1.86,0.42-2.8c0.1-0.68,0.08-1.37,0.2-2.04c0.25-1.32,0.13-2.66,0.29-3.99
		c0.14-1.13,0.04-2.28,0.04-3.42c0-0.16,0.01-0.33-0.02-0.49c-0.22-1.22-0.45-2.43-0.67-3.65c-0.23-1.31-0.46-2.63-0.67-3.94
		c-0.21-1.32-0.41-2.64-0.62-3.95c-0.01-0.06-0.05-0.12-0.1-0.15c-0.1-0.08-0.19-0.01-0.25,0.07c-0.52,0.72-0.97,1.47-1.33,2.28
		c-0.69,1.52-1.23,3.09-1.48,4.74C130.38,143.62,130.34,143.78,130.1,143.91z M72.45,87.44c0.05-0.08,0.12-0.15,0.16-0.24
		c1.34-3.09,2.95-6.03,4.92-8.77c1.44-2,3.12-3.76,5.07-5.26c0.46-0.36,0.99-0.63,1.48-0.96c0.33-0.22,0.35-0.35,0.06-0.58
		c-0.21-0.16-0.38-0.35-0.55-0.55c-0.67-0.78-1.09-1.71-1.45-2.65c-0.42-1.1-0.68-2.24-0.84-3.41c-0.08-0.61-0.16-1.23-0.24-1.84
		c-0.01-0.05-0.07-0.11-0.12-0.13c-0.05-0.02-0.13-0.01-0.18,0.03c-0.08,0.06-0.14,0.14-0.2,0.21c-2.55,3.27-4.51,6.86-5.91,10.75
		c-0.94,2.61-1.67,5.27-2.01,8.04c-0.07,0.58-0.08,1.17-0.19,1.75C72.22,85.04,72.33,86.24,72.45,87.44z M187.63,63.51
		c0.21-0.15,0.3-0.19,0.36-0.26c1.06-1.37,1.58-2.9,1.39-4.64c-0.14-1.33-0.75-2.47-1.55-3.52c-0.13-0.17-0.33-0.22-0.52-0.08
		c-0.65,0.49-1.13,1.07-1.09,1.95c0.02,0.46,0.03,0.91,0.21,1.34c0.09,0.21,0.13,0.44,0.22,0.64
		C187.24,60.37,187.61,61.84,187.63,63.51z M137.51,128.19c0.08,0.01,0.15,0.05,0.2,0.03c1.04-0.36,2.1-0.64,3.18-0.87
		c0.38-0.08,0.43-0.16,0.35-0.54c-0.05-0.25-0.11-0.51-0.19-0.75c-0.12-0.33-0.26-0.43-0.58-0.34c-0.84,0.25-1.66,0.52-2.49,0.8
		c-0.11,0.04-0.24,0.15-0.27,0.25C137.59,127.24,137.4,127.7,137.51,128.19z M142.3,126.83c1.37-0.51,2.5-1.31,3.62-2.16
		c0.08-0.06,0.11-0.16,0.04-0.26c-0.03-0.05-0.1-0.1-0.15-0.1c-0.16,0-0.33,0-0.48,0.04c-0.72,0.19-1.44,0.38-2.16,0.59
		c-1.16,0.34-1.22,0.46-1.01,1.64C142.17,126.65,142.22,126.7,142.3,126.83z" />
		<path class="nl_st1" d="M49.76,147.88c0.07-0.06,0.13-0.13,0.21-0.18c0.05-0.03,0.14-0.06,0.17-0.04c0.08,0.07,0.04,0.17-0.01,0.24
		c-0.09,0.12-0.16,0.27-0.33,0.31C49.78,148.1,49.77,147.99,49.76,147.88z" />
		<path class="nl_st2" d="M111.44,107.85c-0.44-0.24-0.74-0.64-1.04-1.02c-2.34-2.94-4.08-6.19-5.26-9.76
		c-0.62-1.89-1.07-3.82-1.37-5.79c-0.19-1.26-0.36-2.51-0.38-3.79c-0.01-0.81-0.2-1.62-0.15-2.44c0.11-1.59,0.15-3.18,0.33-4.77
		c0.21-1.88,0.52-3.74,0.98-5.57c0.06-0.25,0.03-0.52,0.05-0.78c0.05-0.04,0.11-0.06,0.14-0.11c0.04-0.07,0.01-0.13-0.06-0.15
		c-0.01,0-0.05,0.04-0.06,0.07c-0.01,0.06-0.02,0.13-0.02,0.19c-0.34,0.14-0.42,0.49-0.57,0.77c-1.37,2.6-2.48,5.32-3.4,8.11
		c-0.87,2.64-1.56,5.31-2.05,8.04c-0.24,1.31-0.39,2.64-0.49,3.97c-0.08,1.01-0.07,2.02-0.15,3.02l0.01-0.01
		c-0.2-0.09-0.26-0.29-0.34-0.46c-1.45-2.79-2.57-5.7-3.43-8.72c-0.54-1.88-0.95-3.79-1.26-5.72c-0.13-0.77-0.19-1.55-0.29-2.32
		c-0.25-1.92-0.16-3.84-0.18-5.77c-0.01-1.51,0.22-2.99,0.7-4.42c0.15-0.45,0.14-0.52-0.2-0.75c-2.25-1.47-3.61-3.65-4.69-6.01
		c-0.94-2.05-1.5-4.24-1.83-6.47c-0.24-1.62-0.32-3.25-0.19-4.88c0.25-3.15,1-6.17,2.61-8.93c0.36-0.62,0.76-1.21,1.14-1.81
		c-0.12-0.22-0.28-0.11-0.42-0.07c-2.73,0.78-5.17,2.14-7.41,3.87c-1.4,1.08-2.72,2.24-3.91,3.55c-2.66,2.91-4.92,6.08-6.5,9.71
		c-0.3,0.69-0.51,1.41-0.74,2.12c-0.06,0.18-0.06,0.39-0.06,0.58c0,0.11,0.11,0.17,0.2,0.13c0.15-0.06,0.29-0.15,0.42-0.25
		c1.16-0.93,2.5-1.53,3.85-2.12c0.83-0.37,1.71-0.62,2.57-0.93c0.22-0.08,0.43-0.16,0.7-0.03c-0.13,0.34-0.36,0.61-0.58,0.88
		c-1.4,1.68-2.72,3.42-3.9,5.26c-2.26,3.51-3.99,7.25-5.09,11.28c-0.57,2.08-1.01,4.17-1.33,6.3c-0.21,1.42-0.43,2.83-0.59,4.25
		c-0.21,1.81-0.51,3.61-0.72,5.42c-0.3,2.59-0.71,5.16-1.23,7.71c-0.46,2.27-1,4.52-1.66,6.74c-0.82,2.78-1.73,5.54-2.81,8.23
		c-0.04,0.09-0.07,0.18-0.13,0.26c-0.03,0.04-0.11,0.04-0.17,0.05c-0.02,0-0.05-0.03-0.06-0.06c-0.01-0.06-0.02-0.13-0.03-0.19
		c-0.03-1.07-0.05-2.15-0.18-3.22c-0.13-1.1-0.25-2.2-0.39-3.3c-0.17-1.29-0.38-2.58-0.63-3.85c-0.41-2.11-0.81-4.22-1.26-6.32
		c-0.57-2.67-1.12-5.35-1.52-8.06c-0.23-1.51-0.41-3.03-0.59-4.55c-0.38-3.28-0.38-6.57-0.33-9.87c0.24-1.19,0.1-2.4,0.31-3.6
		c0.13-0.73,0.13-1.49,0.23-2.23c0.25-1.84,0.53-3.67,0.9-5.49c0.49-2.43,1.08-4.83,1.75-7.22c0.03-0.12,0.1-0.24,0.01-0.37
		c-0.23-0.08-0.35,0.11-0.49,0.23c-1.78,1.5-3.29,3.25-4.65,5.13c-1.78,2.47-3.24,5.12-4.47,7.91c-1.63,3.72-2.83,7.57-3.72,11.52
		c-0.36,1.62-0.67,3.25-0.87,4.9c-0.25,1.97-0.45,3.94-0.61,5.92c-0.15,1.86-0.11,3.72-0.13,5.57c-0.01,0.85-0.03,1.69,0.13,2.54
		c0.09,0.47,0.02,0.97,0.02,1.51c-0.25-0.24-0.28-0.53-0.36-0.8c-0.62-2.19-1.13-4.42-1.59-6.65c-0.39-1.88-0.74-3.77-0.97-5.68
		c-0.17-1.36-0.35-2.71-0.53-4.06c-0.01-0.06-0.01-0.13-0.02-0.2c-0.03-1.73-0.3-3.44-0.24-5.18c0.02-0.62,0-1.24,0-1.86
		c-0.02-2.35,0.13-4.69,0.37-7.03c0.25-2.44,0.68-4.83,1.21-7.22c0.72-3.22,1.74-6.35,3.04-9.38c1.69-3.95,3.88-7.61,6.5-11.01
		c1.6-2.07,3.39-3.98,5.33-5.72c2.83-2.54,5.92-4.71,9.39-6.3c2.08-0.95,4.22-1.72,6.49-2.09c0.41-0.07,0.83-0.16,1.22-0.24
		c0.13-0.23-0.01-0.41-0.09-0.57c-0.27-0.56-0.62-1.07-1.04-1.53c-1.11-1.23-2.43-2.17-3.87-2.95c-1.24-0.66-2.49-1.28-3.82-1.75
		c-0.09-0.03-0.18-0.07-0.25-0.14c-0.07-0.06-0.1-0.16,0.01-0.24c0.05-0.04,0.11-0.07,0.17-0.09c1.19-0.45,2.4-0.84,3.68-0.91
		c0.55-0.03,1.09-0.17,1.65-0.18c2.26-0.04,4.48,0.29,6.66,0.86c1.52,0.4,2.99,0.92,4.4,1.62c0.17,0.08,0.33,0.22,0.54,0.18
		c0.15-0.12,0.06-0.23-0.01-0.34c-1.23-2.08-2.58-4.09-4.17-5.91c-1.59-1.82-3.28-3.55-5.37-4.83c-1.96-1.2-4.05-2.05-6.35-2.41
		c-1.5-0.23-2.99-0.14-4.5-0.16c0.09,0.31,0.36,0.29,0.55,0.35c1.61,0.44,2.97,1.34,4.2,2.42c1.13,1,2.01,2.22,2.71,3.56
		c0.06,0.11,0.11,0.24,0.13,0.36c0.03,0.14-0.04,0.28-0.18,0.29c-0.32,0.03-0.65,0.05-0.97,0.05c-1.58,0-3.11,0.26-4.62,0.69
		c-1.43,0.4-2.74,1.03-3.85,2.05c-0.3,0.27-0.37,0.25-0.6-0.08c-0.43-0.61-0.84-1.24-1.32-1.82c-1.17-1.41-2.45-2.7-3.87-3.87
		c-0.68-0.56-1.35-1.12-2.03-1.68c0.01-0.18,0.15-0.18,0.27-0.18c0.88,0.01,1.76,0.02,2.64,0.03c0.16,0,0.33,0,0.49-0.01
		c0.28-0.02,0.39-0.18,0.34-0.47c-0.02-0.13-0.07-0.25-0.1-0.38c-0.25-0.94-0.5-1.89-0.75-2.83c-0.03-0.13-0.08-0.25-0.1-0.38
		c-0.08-0.44,0.03-0.59,0.48-0.65c1.45-0.19,2.91-0.33,4.37-0.45c1.34-0.11,2.67-0.13,4-0.13c1.53,0.01,3.05,0.18,4.57,0.33
		c2.21,0.22,4.37,0.66,6.52,1.21c2.47,0.64,4.85,1.51,7.17,2.57c2.71,1.23,5.26,2.73,7.69,4.45c0.35,0.24,0.71,0.47,1.03,0.75
		c0.36,0.31,0.75,0.33,1.19,0.24c0.73-0.16,1.46-0.31,2.19-0.47c0.06-0.01,0.13-0.04,0.19-0.04c1.79-0.11,3.59-0.16,5.38,0.02
		c1.62,0.16,3.22,0.49,4.78,0.93c1.76,0.5,3.48,1.08,5.16,1.82c0.24,0.1,0.27,0.3,0.06,0.44c-0.49,0.32-0.98,0.64-1.48,0.96
		c-0.78,0.5-1.42,1.15-2.04,1.82c-0.15,0.17-0.27,0.36-0.4,0.56c-0.07,0.11-0.15,0.23-0.07,0.36c0.1,0.15,0.24,0.05,0.34-0.01
		c0.34-0.19,0.67-0.41,1.02-0.58c1.34-0.68,2.76-1.17,4.21-1.54c1.71-0.43,3.43-0.73,5.18-0.92c1.01-0.11,2.02-0.11,3.02-0.2
		c0.84-0.07,1.69-0.11,2.53-0.14c1.05-0.04,2.08,0.21,3.12,0.17c0.35-0.01,0.62,0.17,0.89,0.37c1.05,0.77,2.12,1.53,3.13,2.34
		c1.45,1.16,2.88,2.35,4.29,3.56c0.92,0.78,1.81,1.6,2.67,2.45c2.05,2.02,4.09,4.04,6.09,6.1c1.09,1.12,2.1,2.32,3.15,3.48
		c0.57,0.63,1.14,1.26,1.7,1.9c1.5,1.72,2.94,3.49,4.39,5.25c0.12,0.14,0.19,0.32,0.28,0.46c-0.11,0.25-0.3,0.18-0.44,0.18
		c-0.23,0.01-0.46,0.01-0.68,0c-1.54-0.06-3.05,0.22-4.56,0.48c-1.61,0.27-3.19,0.67-4.73,1.17c-0.52,0.17-0.7,0.04-0.97-0.37
		c-0.4-0.6-0.79-1.2-1.19-1.8c-2.32-3.51-4.62-7.03-6.97-10.53c-0.87-1.3-1.83-2.54-2.78-3.78c-1.05-1.39-2.42-2.35-4.04-2.98
		c-1.91-0.75-3.86-1.37-5.88-1.8c-1.96-0.42-3.94-0.46-5.93-0.37c-0.26,0.01-0.52,0.03-0.71,0.33c2.06,0.03,3.89,0.78,5.68,1.63
		c0.91,0.44,1.76,0.99,2.59,1.56c0.38,0.26,0.39,0.34,0.15,0.7c-0.34,0.52-0.7,1.02-1.03,1.55c-0.29,0.47-0.56,0.96-0.82,1.44
		c-0.86,1.6-1.46,3.27-1.48,5.17c-0.68,0.03-1.28-0.21-1.9-0.33c-0.65-0.12-1.3-0.1-1.95-0.11c-0.65-0.01-1.29,0.04-1.94,0.15
		c-0.64,0.1-1.29,0.2-1.91,0.37c-0.63,0.18-1.25,0.35-1.87,0.56c-0.61,0.2-1.21,0.43-1.98,0.83c0.48,0.04,0.76,0.04,1.02,0.08
		c0.26,0.03,0.51,0.11,0.77,0.13c2.9,0.26,5.35,1.51,7.56,3.35c1.61,1.35,2.97,2.93,4.32,4.51c1,1.16,2,2.32,3.01,3.47
		c0.76,0.86,0.76,0.92,0.09,1.82c-1.65,2.23-3.15,4.56-4.5,6.99c-0.79,1.43-1.55,2.87-2.24,4.35c-1.68,3.61-3.14,7.31-4.04,11.21
		c-0.42,1.84-0.81,3.7-0.7,5.61c0.01,0.14-0.06,0.31,0.09,0.43c0.17-0.03,0.19-0.17,0.23-0.28c0.62-1.75,1.4-3.44,2.23-5.11
		c1.58-3.19,3.47-6.21,5.7-8.99c1.52-1.89,3.22-3.6,5.02-5.21c1.68-1.5,3.51-2.81,5.44-3.97c2.9-1.73,5.96-3.07,9.19-4.06
		c1.87-0.57,3.78-0.96,5.7-1.33c0.09-0.02,0.19,0.01,0.3,0.02c-0.12,0.28-0.38,0.37-0.58,0.52c-2.21,1.59-4.18,3.43-6.05,5.39
		c-0.14,0.14-0.27,0.29-0.25,0.51c-0.02,0.01-0.05,0.01-0.07,0.02C138,57.7,138,57.73,138,57.75c0.03-0.03,0.06-0.05,0.08-0.08
		c0.24,0.03,0.44-0.06,0.66-0.14c2.8-1.09,5.67-1.9,8.63-2.45c1.5-0.28,3.02-0.43,4.53-0.7c0.03-0.01,0.06-0.01,0.1-0.01
		c2.89-0.28,5.79-0.25,8.7-0.2c0.13,0,0.26,0.01,0.38,0.05c0.08,0.03,0.19,0.11,0.2,0.18c0.01,0.07-0.06,0.19-0.12,0.24
		c-1.07,0.76-1.93,1.75-2.84,2.69c-0.2,0.21-0.42,0.42-0.52,0.7c-0.02,0.05-0.01,0.13,0.03,0.16c0.04,0.04,0.13,0.06,0.18,0.04
		c0.36-0.15,0.71-0.34,1.07-0.47c1.63-0.59,3.27-1.06,5-1.3c2.04-0.29,4.08-0.39,6.14-0.34c0.2,0,0.39,0,0.59,0.02
		c0.82,0.08,0.89,0.14,1,0.97c0.25,1.86,1.05,3.48,2.15,4.97c0.6,0.81,1.28,1.57,2.03,2.25c0.25,0.23,0.39,0.2,0.52-0.09
		c0.29-0.62,0.56-1.25,0.85-1.87c0.36-0.77,0.89-1.44,1.4-2.12c0.15-0.19,0.32-0.21,0.5-0.04c1.44,1.27,2.43,2.79,2.72,4.72
		c0.31,2.06-0.32,3.85-1.49,5.5c-1.1,1.55-2.58,2.65-4.15,3.68c-0.45,0.29-0.91,0.28-1.41,0.15c-1.58-0.41-3.16-0.79-4.73-1.2
		c-2.84-0.73-5.67-1.46-8.56-1.98c-1.6-0.29-3.2-0.58-4.82-0.71c-1.69-0.14-3.37-0.36-5.06-0.3c-3.01,0.09-5.97,0.5-8.75,1.76
		c-2.1,0.95-3.96,2.24-5.44,4.06c-0.77,0.94-1.43,1.94-2.05,2.97c-0.26-0.05-0.16-0.25-0.17-0.38c-0.03-1.08,0.17-2.14,0.31-3.2
		c0.21-1.51,0.55-3.01,0.47-4.56c-0.07-1.26-0.46-2.42-1.02-3.53c-0.36,0.11-0.38,0.4-0.47,0.63c-0.39,1.08-0.87,2.11-1.4,3.12
		c-0.93,1.76-1.99,3.44-3.14,5.07c-1.35,1.93-2.82,3.75-4.29,5.58c-1.1,1.37-2.27,2.69-3.39,4.05c-1.75,2.11-3.49,4.22-4.98,6.53
		c-0.71,1.1-1.35,2.23-1.82,3.45c-0.28,0.73-0.51,1.48-0.62,2.26c-0.01,0.09-0.06,0.17-0.11,0.3c-0.44-0.21-0.66-0.57-0.8-0.97
		c-0.24-0.67-0.44-1.36-0.47-2.09c-0.03-0.68,0.01-1.37-0.14-2.05c-0.05-0.21,0-0.46,0.04-0.68c0.12-0.62,0.06-1.24,0.09-1.86
		c0-0.05-0.04-0.12-0.08-0.15c-0.11-0.06-0.19,0.02-0.25,0.09c-0.5,0.68-0.98,1.39-1.33,2.16c-0.74,1.65-1.19,3.38-1.43,5.16
		c-0.11,0.84-0.22,1.69-0.18,2.53c0.1,2.18,0.27,4.36,0.93,6.46c0.11,0.34,0.25,0.68,0.21,1.05L111.44,107.85z M158.85,59.84
		c-0.2-0.09-0.34,0-0.44,0.16c-0.14,0.08-0.29,0.15-0.41,0.25c-1.54,1.22-2.87,2.65-3.95,4.3c-0.64,0.98-1.18,2.02-1.54,3.15
		c-0.1,0.32-0.19,0.62-0.11,0.96l-0.05,0.02c0,0,0.04-0.03,0.04-0.03c0.17-0.24,0.34-0.47,0.5-0.71c0.54-0.81,1.06-1.63,1.61-2.43
		c0.94-1.36,2-2.63,3.02-3.93c0.4-0.51,0.87-0.96,1.16-1.55c0.11-0.02,0.16-0.09,0.16-0.2c0.02-0.01,0.05-0.03,0.07-0.04
		c0.01-0.01,0-0.03,0-0.05C158.84,59.73,158.82,59.77,158.85,59.84z M163.51,60.02c-0.04,0-0.07,0.03-0.09,0.07
		c-2.81,1.85-5.99,6.43-5.85,8.53c0.13-0.19,0.22-0.31,0.3-0.44c1.17-2,2.57-3.83,4.01-5.64c0.58-0.74,1.15-1.49,1.72-2.24
		c0.07-0.08,0.13-0.17,0.2-0.25c0.07-0.06,0.14-0.12,0.21-0.19c0.02-0.02,0.03-0.09,0.02-0.09c-0.05-0.02-0.11-0.06-0.15-0.04
		C163.73,59.78,163.59,59.86,163.51,60.02z M168.18,60.38c-3.14,2.27-5.65,6.62-5.5,8.31c0.13-0.2,0.25-0.35,0.35-0.52
		c0.94-1.61,2.03-3.11,3.17-4.57c0.76-0.98,1.51-1.95,2.27-2.93c0.52-0.5,0.52-0.5,0.62-0.98
		C168.72,59.86,168.42,60.07,168.18,60.38z" />
		<path class="nl_st3" d="M49.98,139.38c-0.05,0.17-0.18,0.26-0.32,0.35c-2.13,1.35-4.36,2.48-6.7,3.41c-2.1,0.82-4.23,1.51-6.43,2
		c-1.71,0.38-3.44,0.71-5.21,0.73c-0.19,0-0.39,0.06-0.56-0.07c-0.07-0.2,0.09-0.29,0.19-0.41c1.29-1.43,2.62-2.82,3.87-4.28
		c2.73-3.21,5.16-6.64,7.31-10.26c0.77-1.29,1.49-2.6,2.16-3.95c0.65-1.31,1.27-2.64,1.8-4.02c0.4-1.03,0.84-2.05,1.26-3.08
		c0.74-1.82,1.25-3.71,1.63-5.62c0.37-1.89,0.52-3.8,0.66-5.72c0.21-2.84,0.09-5.67,0.14-8.51c0-0.18,0.02-0.36,0.03-0.57
		c0.27,0.18,0.23,0.44,0.28,0.64c0.92,3.63,1.98,7.23,3.08,10.81c0.14,0.44,0.02,0.94,0.28,1.32c0.27,0.4,0.31,0.85,0.44,1.29
		c0.53,1.81,0.96,3.65,1.27,5.52c0.25,1.51,0.56,3.01,0.49,4.55c-0.02,0.45,0.05,0.91,0.12,1.36c0.09,0.55,0.12,1.12,0.03,1.66
		c-0.11,0.72-0.1,1.43-0.14,2.15c-0.03,0.45-0.08,0.89-0.12,1.34c0.26,0.04,0.37-0.16,0.48-0.3c0.66-0.81,1.32-1.61,1.96-2.44
		c1.42-1.83,2.69-3.77,3.84-5.78c0.85-1.5,1.65-3.03,2.38-4.61c1.8-3.89,3.2-7.92,4.61-11.95c0.99-2.83,2-5.66,3.2-8.4
		c1.38-3.14,2.97-6.17,4.93-8.99c0.13-0.19,0.21-0.41,0.46-0.48l-0.01-0.01c-0.02,0.16-0.01,0.33-0.06,0.48
		c-0.89,2.38-1.56,4.83-2.15,7.3c-0.52,2.21-0.99,4.44-1.32,6.69c-0.24,1.61-0.49,3.21-0.72,4.82c-0.06,0.42-0.05,0.84-0.07,1.36
		c0.3-0.2,0.32-0.45,0.38-0.66c0.43-1.53,0.89-3.06,1.39-4.58c1.32-4.04,3-7.92,5-11.66c1.04-1.96,2.25-3.82,3.51-5.64
		c0.18-0.26,0.36-0.54,0.68-0.68l0.04,0.03c0.03,0.38-0.15,0.7-0.27,1.03c-1.07,2.84-1.96,5.74-2.71,8.68
		c-0.3,1.17-0.59,2.34-0.88,3.51c-0.06,0.22-0.11,0.44-0.04,0.68c0.22,0.03,0.24-0.17,0.28-0.29c0.59-1.6,1.34-3.12,2.08-4.64
		c0.9-1.85,1.92-3.63,2.98-5.4c0.08-0.14,0.17-0.28,0.39-0.34c0.26,0.39,0.34,0.87,0.47,1.32c0.58,2.11,1.38,4.15,2.27,6.14
		c1.19,2.65,2.65,5.16,4.32,7.55c2.03,2.91,4.39,5.5,6.99,7.9c0.36,0.33,0.75,0.63,1.13,0.93c0.15,0.12,0.31,0.24,0.6,0.22
		c-0.1-0.62-0.21-1.22-0.3-1.83c-0.21-1.39-0.39-2.78-0.26-4.19c0.08-0.9,0.18-1.82,0.62-2.65c0.17-0.32,0.36-0.62,0.64-0.86
		c0.19-0.16,0.35-0.15,0.48,0.06c0.19,0.31,0.39,0.61,0.55,0.93c0.47,0.94,1.08,1.79,1.65,2.66c0.18,0.28,0.34,0.54,0.33,0.9
		c-0.13,3.41-0.54,6.76-2.24,9.81c-0.84,1.51-1.78,2.96-2.8,4.36c-1.13,1.55-2.29,3.09-3.43,4.64c-1.64,2.23-3.25,4.49-4.53,6.96
		c-0.9,1.75-1.59,3.59-1.8,5.55c-0.23,2.1,0.2,4.09,1.28,5.92c0.97,1.65,2.28,3.01,3.79,4.17c0.1,0.07,0.24,0.09,0.36,0.13
		c0.01,0.03,0.02,0.06,0.04,0.08c0.01,0.01,0.06,0.01,0.06,0.01c0.02-0.06-0.01-0.09-0.09-0.09c0.01-0.39-0.24-0.67-0.4-0.98
		c-0.57-1.11-1.02-2.26-1.25-3.48c-0.04-0.22-0.09-0.45-0.11-0.67c-0.2-2.18,0.2-4.29,0.81-6.36c0.03-0.1,0.1-0.18,0.21-0.16
		c0.05,0.01,0.1,0.08,0.13,0.13c0.15,0.36,0.29,0.73,0.43,1.09c0.92,2.31,2.01,4.53,3.43,6.58c0.77,1.1,1.6,2.14,2.53,3.1
		c1.79,1.86,3.75,3.52,5.79,5.1c2.25,1.73,4.48,3.47,6.68,5.26c1.62,1.32,3.2,2.69,4.62,4.21c2.97,3.18,5.61,6.61,7.5,10.56
		c1.04,2.19,1.82,4.48,2.07,6.89c0.27,2.53-0.01,5.03-1.16,7.34c-0.92,1.86-2.17,3.47-3.8,4.78c-0.64,0.51-1.27,1.02-1.94,1.48
		c-0.11,0.07-0.21,0.15-0.36,0.1c-0.15-0.19,0.01-0.37,0.06-0.54c0.66-2.22,0.77-4.51,0.56-6.79c-0.2-2.15-0.81-4.21-1.66-6.21
		c-1.26-2.93-2.96-5.58-4.95-8.06c-0.86-1.07-1.74-2.11-2.7-3.1c-0.45-0.47-0.85-0.99-1.32-1.44c-1.71-1.61-3.41-3.22-5.21-4.73
		c-3.15-2.65-6.48-5.05-9.85-7.39c-2.3-1.61-4.51-3.33-6.47-5.35c-2.21-2.29-3.62-5-4.22-8.12c-0.26-1.34-0.52-2.68-0.78-4.02
		c-0.02-0.08-0.06-0.16-0.12-0.31c-0.09,0.17-0.18,0.28-0.2,0.39c-0.09,0.68-0.21,1.35-0.24,2.03c-0.04,0.94-0.08,1.9,0,2.84
		c0.14,1.59,0.36,3.17,0.96,4.67c0.05,0.12,0.09,0.24,0.11,0.37c0,0.03-0.08,0.1-0.13,0.1c-0.06,0.01-0.14-0.02-0.18-0.06
		c-0.9-0.85-1.89-1.59-2.69-2.56c-0.68-0.83-1.41-1.62-2.04-2.5c-1.25-1.73-2.21-3.61-3.02-5.58c-0.63-1.55-1.06-3.15-1.37-4.78
		c-0.25-1.34-0.47-2.69-0.51-4.07c-0.03-1.07-0.24-2.14-0.14-3.22c0.14-1.43,0.14-2.86,0.3-4.29c0.14-1.2,0.31-2.39,0.47-3.58
		c0.07-0.55,0.26-1.08,0.17-1.64c0.1-0.02,0.12-0.05,0.05-0.07c0,0-0.03,0.05-0.04,0.08c-0.49,0.28-0.63,0.82-0.89,1.25
		c-1.51,2.5-2.57,5.2-3.38,8c-0.18,0.63-0.44,1.19-0.8,1.75c-0.88,1.38-1.45,2.9-1.79,4.52c-0.5,2.36-0.44,4.73-0.35,7.11
		c0.03,0.81,0.2,1.61,0.31,2.42c0.1,0.66,0.06,0.76-0.53,1.09c-1.79,1-3.59,2-5.38,3c-0.14,0.08-0.3,0.13-0.37,0.31
		c0.02,0.2,0.19,0.11,0.29,0.13c0.09,0.01,0.2,0,0.29-0.02c0.9-0.26,1.81-0.16,2.72-0.17c0.19,0,0.39,0.03,0.58,0.09
		c0.15,0.04,0.34,0.09,0.39,0.26c0.08,0.25-0.14,0.33-0.29,0.45c-1.69,1.31-3.57,2.28-5.52,3.11c-2.83,1.21-5.79,1.95-8.81,2.53
		c-0.25,0.05-0.51,0.09-0.77,0.02c-0.1-0.2,0.05-0.3,0.15-0.41c3.05-3.5,5.43-7.41,7.32-11.63c1.01-2.26,1.89-4.58,2.39-7.02
		c0.12-0.61,0.16-1.22,0.29-1.83c0.32-1.57,0.29-3.18,0.24-4.78c0-0.05-0.05-0.1-0.08-0.15c-0.19,0.04-0.22,0.22-0.3,0.35
		c-1.34,2.07-2.98,3.86-4.87,5.44c-1.58,1.32-3.25,2.51-5.01,3.58c-2.23,1.36-4.56,2.53-6.95,3.58c-0.47,0.21-0.94,0.42-1.45,0.65
		c0.46,0.26,0.9,0.28,1.35,0.28c1.4,0,2.81,0,4.21,0c0.33,0,0.65,0.01,0.98,0.02L49.98,139.38z M72.99,108.45
		c0.02-0.05,0.05-0.1,0.07-0.15c0.01-0.03-0.01-0.07-0.02-0.09c-0.05-0.05-0.09-0.02-0.09,0.07
		C72.94,108.34,72.97,108.4,72.99,108.45z M80.04,98.94c-0.01,0.05-0.01,0.09-0.02,0.14c0.02-0.02,0.04-0.04,0.04-0.07
		C80.07,98.99,80.05,98.96,80.04,98.94z" />
		<path class="nl_st4" d="M180.89,75.32c1.42-2.3,2.99-4.51,4.64-6.66c0.05-0.07,0.16-0.11,0.26-0.17c0.54,1.21,0.96,2.44,1.37,3.68
		c1.46,4.34,2.51,8.78,3.15,13.31c0.55,3.88,0.82,7.79,0.76,11.71c-0.3,21.22-9.08,40.59-24.44,54.73
		c-7.83,7.22-16.79,12.55-26.88,15.95c-0.35,0.12-0.68,0.38-1.09,0.23c-0.09-0.37,0.11-0.69,0.19-1.03c0.5-2,0.86-4.02,1.01-6.07
		c0.01-0.19,0.06-0.38,0.09-0.58c1.02-0.32,1.99-0.76,2.97-1.19c0.44-0.19,0.91-0.33,1.29-0.64c0.82-0.05,1.59,0.26,2.48,0.23
		c-0.17,0.39-0.3,0.68-0.41,0.98c-0.34,0.92,0.11,1.99,0.87,2.5c0.79,0.53,1.79,0.52,2.57-0.05c0.75-0.55,1.08-1.54,0.81-2.44
		c-0.08-0.25-0.19-0.48-0.28-0.71c0.18-0.16,0.39-0.12,0.58-0.14c0.98-0.12,1.93-0.35,2.81-0.79c3.79-1.88,6.34-4.82,7.59-8.88
		c0.22-0.72,0.29-1.47,0.4-2.21c0.23-0.18,0.47-0.35,0.68-0.55c9.04-8.49,15.4-18.66,18.99-30.54c1.55-5.11,2.46-10.34,2.75-15.67
		c0.29-5.42,0.03-10.83-0.95-16.18C182.55,81.15,181.85,78.2,180.89,75.32z M170.58,145.4c0.02-1.23-0.96-2.25-2.19-2.27
		c-1.21-0.02-2.25,0.98-2.27,2.2c-0.02,1.21,0.98,2.25,2.2,2.27C169.54,147.62,170.56,146.62,170.58,145.4z M187.52,102.16
		c1.24,0.01,2.24-0.98,2.24-2.21c0.01-1.22-1-2.24-2.22-2.25c-1.21-0.01-2.24,1.01-2.25,2.23
		C185.29,101.15,186.28,102.16,187.52,102.16z M181.94,122.12c-1.26,0-2.2,0.99-2.21,2.25c0,0.99,0.71,2.16,2.17,2.19
		c1.41,0.03,2.26-1.1,2.25-2.21C184.14,123.09,183.2,122.12,181.94,122.12z M186.66,75.14c0.02-1.26-0.95-2.25-2.2-2.25
		c-1.25,0-2.25,0.99-2.25,2.23c0.01,1.2,0.96,2.17,2.17,2.2C185.65,77.34,186.64,76.39,186.66,75.14z" />
		<path class="nl_st3" d="M130.1,143.91c0.24-0.12,0.28-0.29,0.3-0.44c0.25-1.66,0.79-3.22,1.48-4.74c0.36-0.8,0.82-1.56,1.33-2.28
		c0.06-0.08,0.14-0.15,0.25-0.07c0.05,0.03,0.09,0.1,0.1,0.15c0.21,1.32,0.41,2.64,0.62,3.95c0.21,1.32,0.44,2.63,0.67,3.94
		c0.21,1.22,0.45,2.43,0.67,3.65c0.03,0.16,0.02,0.33,0.02,0.49c0,1.14,0.1,2.3-0.04,3.42c-0.16,1.33-0.04,2.67-0.29,3.99
		c-0.13,0.67-0.11,1.36-0.2,2.04c-0.13,0.93-0.27,1.87-0.42,2.8c-0.44,2.57-1.08,5.1-1.94,7.56c-0.95,2.68-2.16,5.24-3.73,7.62
		c-0.17,0.25-0.16,0.26-0.59,0.51c0.16-0.77,0.33-1.49,0.46-2.22c0.23-1.28,0.41-2.57,0.54-3.86c0.13-1.27,0.15-2.54,0.14-3.81
		c-0.01-1.17-0.19-2.33-0.31-3.5c-0.3-2.66-0.95-5.25-1.63-7.83c-0.48-1.79-1-3.58-1.49-5.37c-0.76-2.73-1.43-5.48-1.86-8.28
		c-0.26-1.67-0.45-3.35-0.61-5.04c-0.18-1.86-0.16-3.71-0.12-5.57c0.03-1.5,0.23-2.98,0.47-4.46c0.25-1.51,0.61-3,1.11-4.45
		c0.75-2.17,1.78-4.2,3.2-6.01c1.61-2.05,3.58-3.68,5.89-4.91c2.66-1.42,5.48-2.43,8.41-3.08c1.08-0.24,2.18-0.37,3.27-0.51
		c1.76-0.23,3.52-0.2,5.27-0.13c1.85,0.08,3.68,0.39,5.48,0.86c1.55,0.4,3.05,0.94,4.48,1.67c0.44,0.22,0.82,0.53,1.22,0.82
		c0.31,0.22,0.5,0.53,0.51,0.91c0.04,1.53,0.13,3.07-0.18,4.58c-0.06,0.29-0.16,0.37-0.48,0.36c-0.26-0.01-0.52-0.03-0.78-0.08
		c-1.71-0.38-3.42-0.8-5.14-1.17c-2.03-0.44-4.07-0.85-6.13-1.15c-1.91-0.27-3.82-0.39-5.74-0.37c-1.02,0.01-2.01,0.16-2.99,0.39
		c-1.36,0.32-2.54,0.96-3.54,1.96c-1.29,1.3-2.52,2.64-3.51,4.19c-1.31,2.08-2.31,4.31-2.99,6.67c-0.33,1.13-0.63,2.26-0.88,3.41
		c-0.28,1.3-0.44,2.63-0.55,3.96c-0.13,1.47-0.19,2.93-0.13,4.39c0.06,1.36,0.11,2.73,0.32,4.08
		C130.07,143.25,130.07,143.55,130.1,143.91z" />
		<path class="nl_st5" d="M118.15,104.89c0-0.34,0.18-0.62,0.3-0.92c1.14-2.85,2.62-5.53,4.24-8.13c1.93-3.1,4.07-6.06,6.31-8.94
		c0.08-0.1,0.17-0.2,0.24-0.31c0.15-0.21,0.35-0.27,0.6-0.25c1.5,0.1,2.98,0.27,4.45,0.58c0.27,0.06,0.34,0.21,0.23,0.52
		c-0.97,2.6-2.4,4.84-4.85,6.3c-0.23,0.04-0.48,0.06-0.54,0.4c0.19,0.01,0.38,0.04,0.54-0.1c2.08-0.44,4.07-1.16,6.02-1.98
		c2.01-0.84,3.97-1.81,5.95-2.74c1.5-0.71,3.02-1.39,4.58-1.95c1.78-0.64,3.6-0.88,5.48-0.7c0.52,0.05,1.03,0.15,1.53,0.3
		c1.99,0.59,3.08,1.98,3.45,3.98c0.12,0.67,0.2,1.35,0.19,2.04c-0.04,1.69,0.51,3.2,1.42,4.6c0.48,0.74,1.05,1.41,1.66,2.05
		c1.24,1.3,1.56,2.89,1.49,4.61c-0.01,0.22-0.07,0.45-0.15,0.66c-0.17,0.42-0.48,0.59-0.93,0.57c-0.1,0-0.2-0.02-0.29-0.03
		c-1.05-0.21-2.11-0.41-3.16-0.62c0-0.27-0.21-0.38-0.4-0.51c-1.55-1.07-3.17-2.02-4.8-2.96c-0.98-0.57-2.01-1.06-3.08-1.45
		c-0.76-0.28-1.56-0.55-2.37-0.45c-1.38,0.18-2.75,0.45-4.01,1.11c-0.26,0.14-0.52,0.26-0.83,0.23c0.02-0.67,0.28-1.27,0.63-1.82
		c0.45-0.73,1.09-1.18,1.95-1.34c1.42-0.27,2.85-0.26,4.28-0.07c0.58,0.08,1.16,0.16,1.74,0.24c0.25,0.12,0.5,0.08,0.9-0.04
		c-0.37-0.12-0.57-0.33-0.88-0.3c-0.18-0.15-0.45-0.17-0.6-0.38c0.19-0.63,0.28-1.27,0.08-1.92c-0.07-0.21-0.04-0.45-0.06-0.68
		c-0.06-0.85-0.29-1.66-0.65-2.44c-0.28-0.59-0.72-0.99-1.31-1.25c-0.66-0.29-1.33-0.26-2.01-0.07c-1.76,0.49-3.28,1.42-4.6,2.67
		c-1.14,1.07-2.13,2.29-3.14,3.48c-0.67,0.79-1.42,1.53-2.23,2.19c-1.06,0.85-2.24,1.43-3.49,1.94c-1.55,0.63-3.17,1-4.82,1.14
		c-1.66,0.15-3.32,0.02-4.93-0.45c-0.12-0.04-0.25-0.07-0.38-0.09c-0.03-0.01-0.08,0.02-0.08,0.04c-0.01,0.05-0.04,0.13-0.01,0.17
		c0.1,0.13,0.2,0.26,0.33,0.35c0.79,0.57,1.61,1.11,2.52,1.49c0.54,0.23,1.08,0.45,1.62,0.67c0.33,0.14,0.64,0.33,0.86,0.62
		c0.17,0.22,0.17,0.42,0,0.62c-0.27,0.34-0.62,0.57-1.04,0.7c-0.75,0.23-1.52,0.33-2.3,0.4c-0.69,0.06-1.36-0.13-2.04-0.17
		c-0.4-0.03-0.78-0.1-1.14-0.26c-0.71-0.31-1.45-0.6-2.04-1.14C118.46,104.97,118.32,104.89,118.15,104.89z M128.68,94.28
		c0.05-0.02,0.1-0.05,0.15-0.07c-0.02-0.02-0.04-0.06-0.06-0.06c-0.05,0-0.1,0.02-0.15,0.03C128.64,94.21,128.66,94.25,128.68,94.28
		z" />
		<path class="nl_st6" d="M149.25,136.59c0.32-0.12,0.49-0.41,0.73-0.63c0.79-0.74,1.65-1.38,2.66-1.79c0.83-0.34,1.29-0.38,2.18-0.21
		c0.11,0.19-0.01,0.37-0.04,0.55c-0.14,0.99-0.01,1.95,0.24,2.9c0.28,1.04,0.71,2.02,1.16,3c0.57,1.24,1.15,2.48,1.6,3.77
		c0.37,1.06,0.6,2.13,0.46,3.26c-0.03,0.26-0.04,0.52-0.21,0.74c-0.22,0.02-0.47,0-0.67,0.08c-0.93,0.4-1.91,0.61-2.9,0.83
		c-1.08,0.24-2.17,0.43-3.27,0.44c-2.27,0.03-4.55,0.19-6.82-0.14c-0.58-0.08-1.15-0.18-1.73-0.26c-0.48-0.06-0.84-0.34-0.98-0.83
		c-0.09-0.31-0.19-0.62-0.27-0.94c-0.34-1.35-0.6-2.72-0.84-4.1c-0.28-1.66-0.51-3.33-0.75-5c-0.1-0.64-0.09-1.3-0.25-1.93
		c-0.24-0.91-0.04-1.75,0.25-2.57c0.29-0.83,0.8-1.55,1.43-2.19c1.19-1.21,2.59-2.17,3.92-3.2c1.01-0.78,1.93-1.64,2.82-2.55
		c0.16-0.16,0.32-0.33,0.26-0.59c0.71-0.72,1.53-1.3,2.4-1.81c0.77-0.44,1.61-0.69,2.49-0.81c1.79-0.26,3.57-0.25,5.32,0.26
		c0.25,0.07,0.49,0.16,0.74,0.25c0.79,0.3,1.29,0.86,1.48,1.68c0.19,0.81,0.25,1.61-0.13,2.38c-0.28-0.03-0.5,0.11-0.74,0.22
		c-1.37,0.61-2.81,0.99-4.29,1.21c-0.68,0.1-1.36,0.09-2.03,0.19c-1.76,0.27-3.39,0.89-4.79,2.03c-0.76,0.62-1.43,1.33-1.88,2.22
		c-0.46,0.91-0.78,1.88-0.68,2.91c0.15,1.56,0.88,2.84,2.1,3.83c0.19,0.15,0.36,0.08,0.4-0.18c0.04-0.22,0.07-0.45,0.12-0.67
		C148.92,138.18,149.09,137.39,149.25,136.59z" />
		<path class="nl_st7" d="M118.15,104.89c0.17,0,0.31,0.08,0.43,0.2c0.59,0.54,1.32,0.83,2.04,1.14c0.35,0.15,0.74,0.23,1.14,0.26
		c0.68,0.04,1.35,0.23,2.04,0.17c0.78-0.07,1.55-0.17,2.3-0.4c0.42-0.13,0.77-0.35,1.04-0.7c0.16-0.21,0.17-0.4,0-0.62
		c-0.22-0.29-0.53-0.48-0.86-0.62c-0.54-0.23-1.08-0.45-1.62-0.67c-0.91-0.38-1.72-0.92-2.52-1.49c-0.13-0.09-0.23-0.23-0.33-0.35
		c-0.03-0.03-0.01-0.11,0.01-0.17c0.01-0.02,0.06-0.04,0.08-0.04c0.13,0.02,0.25,0.05,0.38,0.09c1.62,0.46,3.27,0.59,4.93,0.45
		c1.65-0.15,3.27-0.51,4.82-1.14c1.24-0.5,2.43-1.09,3.49-1.94c0.82-0.66,1.56-1.39,2.23-2.19c1.01-1.19,2-2.41,3.14-3.48
		c1.33-1.25,2.84-2.17,4.6-2.67c0.67-0.19,1.34-0.22,2.01,0.07c0.59,0.26,1.03,0.66,1.31,1.25c0.36,0.78,0.59,1.58,0.65,2.44
		c0.02,0.23-0.01,0.47,0.06,0.68c0.21,0.66,0.12,1.29-0.08,1.92c-0.4-0.06-0.7-0.32-1.04-0.52c-0.53-0.32-1.05-0.66-1.58-0.97
		c-2.24-1.28-4.44-0.98-6.62,0.16c-0.62,0.32-1.08,0.84-1.46,1.42c-0.25,0.38-0.49,0.77-0.7,1.18c-1.03,1.96-2.6,3.32-4.59,4.23
		c-0.29,0.13-0.58,0.28-0.87,0.43c-0.02,0.01-0.03,0.06-0.07,0.13c1.8,0.37,3.57,0.02,5.38-0.08c0.13,0.41,0.05,0.8,0.06,1.18
		c0.01,0.36,0.02,0.72,0.02,1.08c0,0.13-0.07,0.25-0.2,0.31c-0.23,0.11-0.47,0.23-0.7,0.34c-1.99,0.97-3.95,2.01-5.83,3.2
		c-1.55,0.98-3.02,2.05-4.38,3.28c-2.96,2.65-4.88,5.91-5.77,9.78c-0.43,1.85-0.66,3.72-0.82,5.61c-0.18,2.12-0.17,4.24-0.16,6.36
		c0,0.29-0.02,0.58-0.03,0.88c-0.17-0.01-0.31-0.09-0.44-0.19c-1.43-1.09-2.94-2.04-4.55-2.83c-1.44-0.71-2.92-1.27-4.51-1.52
		c-0.21-0.03-0.45-0.07-0.55-0.34c0.1-0.11,0.17-0.22,0.27-0.3c0.83-0.68,1.66-1.36,2.49-2.04c1.13-0.94,2.2-1.93,3.06-3.14
		c0.13-0.18,0.21-0.42,0.48-0.45c0.08,0.06,0.06,0.42,0.27,0.11c0.18-0.26,0.35-0.54,0.37-0.87c1.27-2.75,2.42-5.54,3.21-8.47
		c0.2-0.76,0.34-1.52,0.44-2.3c0.04-0.32,0.05-0.65,0.03-0.97c-0.04-0.75-0.32-1.36-1.02-1.76c-0.82-0.47-1.5-1.14-2.14-1.83
		c-0.16-0.17-0.28-0.35-0.2-0.61C117.51,106.65,117.7,105.73,118.15,104.89z" />
		<path class="nl_st6" d="M116.31,124.28c-0.27,0.03-0.35,0.27-0.48,0.45c-0.86,1.2-1.93,2.2-3.06,3.14c-0.83,0.68-1.66,1.36-2.49,2.04
		c-0.1,0.08-0.17,0.19-0.27,0.3c0.1,0.27,0.34,0.3,0.55,0.34c1.59,0.25,3.07,0.81,4.51,1.52c1.62,0.79,3.13,1.74,4.55,2.83
		c0.13,0.1,0.27,0.18,0.44,0.19c0.04,0.49,0.11,0.97,0.13,1.46c0.14,3.06,0.54,6.09,0.99,9.11c-0.23-0.01-0.46,0.02-0.68-0.03
		c-2.09-0.45-4.19-0.87-6.27-1.37c-2.37-0.57-4.73-1.19-6.99-2.13c-1.05-0.43-2.08-0.92-3.01-1.59c-0.97-0.7-1.22-1.64-1.16-2.73
		c0.03-0.48,0.11-0.97,0.24-1.44c0.4-1.34,0.84-2.67,1.45-3.94c0.78-1.62,1.66-3.17,2.62-4.69c1.21-1.93,2.49-3.81,3.95-5.57
		c1.08-1.3,1.83-2.75,2.12-4.44c0.17-0.99,0.37-1.98,0.36-2.99c0-0.26,0-0.53,0.27-0.68c0.68,0.3,1.39,0.56,2.05,0.91
		c0.76,0.4,1.24,1.01,1.25,1.94c0.01,1.25-0.15,2.47-0.33,3.7c-0.14,0.97-0.31,1.93-0.46,2.89
		C116.48,123.76,116.39,124.02,116.31,124.28z" />
		<path class="nl_st8" d="M150.61,37.32c-0.17-0.19-0.36-0.38-0.52-0.58c-3.16-4.17-6.73-7.96-10.59-11.48
		c-0.23-0.21-0.54-0.36-0.63-0.71l-0.01,0.01c0.26-0.18,0.5-0.01,0.72,0.07c1.79,0.6,3.56,1.26,5.31,2
		c12.66,5.39,23.06,13.65,31.33,24.64c0.19,0.25,0.46,0.48,0.48,0.87c-0.21,0.07-0.42,0.15-0.64,0.2c-0.43,0.09-0.76-0.04-0.98-0.44
		c-0.09-0.17-0.19-0.35-0.31-0.49c-0.64-0.74-1.47-0.98-2.38-0.68c-0.44,0.14-0.8,0.12-1.22-0.03c-2.04-0.77-4.1-1.51-6.14-2.27
		c-0.24-0.09-0.47-0.22-0.7-0.33c-0.08-0.1-0.14-0.22-0.23-0.31c-3.86-3.85-8.11-7.21-12.76-10.06c-0.16-0.1-0.31-0.24-0.53-0.22
		c0,0,0.01,0.01,0.01,0.01C150.8,37.37,150.72,37.32,150.61,37.32z M154.7,33.55c-1.25,0.02-2.19,1.01-2.18,2.28
		c0.01,0.97,0.72,2.15,2.2,2.16c1.36,0.01,2.24-1.05,2.23-2.24C156.94,34.5,155.96,33.53,154.7,33.55z" />
		<path class="nl_st7" d="M114.07,114.05c-0.28,0.15-0.27,0.42-0.27,0.68c0.01,1.01-0.19,2-0.36,2.99c-0.29,1.68-1.03,3.14-2.12,4.44
		c-1.46,1.75-2.74,3.63-3.95,5.57c-0.95,1.52-1.84,3.07-2.62,4.69c-0.61,1.27-1.05,2.59-1.45,3.94c-0.14,0.46-0.22,0.95-0.24,1.44
		c-0.06,1.09,0.19,2.03,1.16,2.73c0.94,0.68,1.96,1.16,3.01,1.59c2.26,0.93,4.62,1.56,6.99,2.13c2.08,0.5,4.18,0.93,6.27,1.37
		c0.22,0.05,0.45,0.02,0.68,0.03c0.36,1.59,0.62,3.2,1.06,4.77c0.14,0.5,0.28,0.99,0.4,1.44c-0.15,0.22-0.28,0.11-0.38,0.07
		c-3.22-1.43-6.58-2.48-9.92-3.59c-1.48-0.49-2.96-1.02-4.37-1.71c-0.94-0.46-1.84-0.99-2.64-1.66c-0.96-0.81-1.71-1.79-2.2-2.96
		c-1.1-2.66-1.99-5.38-2.35-8.25c-0.13-1.07-0.16-2.14,0.03-3.22c0.13-0.76,0.46-1.41,0.88-2.04c2.96-4.4,5.35-9.1,7.03-14.14
		c0.29-0.87,0.52-1.75,0.63-2.66c0.02-0.19,0.08-0.38,0.14-0.64c0.82,0.49,1.48,1.11,2.24,1.58
		C112.52,113.12,113.29,113.58,114.07,114.05z" />
		<path class="nl_st1" d="M103.64,170.73c-0.17,0.17-0.37,0.07-0.55,0.05c-1.81-0.26-3.59-0.64-5.36-1.08
		c-10.53-2.58-20.06-7.21-28.6-13.9c-0.23-0.18-0.46-0.36-0.68-0.56c-0.12-0.11-0.07-0.24,0.06-0.32c0.14-0.09,0.28-0.16,0.43-0.23
		c1.8-0.92,3.55-1.93,5.19-3.11c0.16-0.11,0.34-0.19,0.51-0.28c2.65,2.01,5.46,3.79,8.39,5.37c0.19,0.1,0.37,0.28,0.63,0.18
		c0,0-0.01-0.02-0.01-0.02c0.01,0.2,0.16,0.22,0.31,0.22c3.1,2.22,6.28,4.31,9.57,6.25c1.21,0.71,2.36,1.51,3.54,2.27
		c0.22,0.14,0.33,0.3,0.29,0.56c-0.02,0.13-0.03,0.26-0.03,0.39c-0.04,1.71,1.73,2.65,2.97,2.11c0.12-0.05,0.24-0.1,0.36-0.16
		c0.16-0.09,0.31-0.07,0.45,0.05c0.86,0.7,1.76,1.34,2.53,2.14c0.02,0.02,0,0.06,0,0.1L103.64,170.73z M74.26,156.74
		c-0.02,1.26,0.94,2.24,2.19,2.28c1.11,0.03,2.23-0.82,2.26-2.21c0.03-1.23-1-2.24-2.24-2.23
		C75.27,154.58,74.28,155.54,74.26,156.74z" />
		<path class="nl_st7" d="M148.26,125.26c0.06,0.26-0.1,0.43-0.26,0.59c-0.89,0.91-1.81,1.77-2.82,2.55c-1.34,1.03-2.73,1.99-3.92,3.2
		c-0.63,0.64-1.13,1.36-1.43,2.19c-0.29,0.82-0.49,1.67-0.25,2.57c0.16,0.62,0.15,1.28,0.25,1.93c0.25,1.67,0.47,3.33,0.75,5
		c0.23,1.38,0.49,2.75,0.84,4.1c0.08,0.31,0.18,0.62,0.27,0.94c0.15,0.49,0.5,0.77,0.98,0.83c0.58,0.07,1.15,0.17,1.73,0.26
		c2.27,0.33,4.55,0.16,6.82,0.14c1.09-0.01,2.19-0.2,3.27-0.44c0.98-0.22,1.96-0.43,2.9-0.83c0.2-0.08,0.45-0.06,0.67-0.08
		c0.06,0.2,0,0.39-0.07,0.57c-1.05,2.9-2.96,5.03-5.71,6.41c-0.99,0.5-2.07,0.55-3.15,0.54c-2.06-0.02-4.09-0.35-6.1-0.76
		c-1.05-0.21-2.1-0.47-3.15-0.69c-0.38-0.08-0.53-0.29-0.6-0.66c-0.66-3.69-1.33-7.38-1.99-11.07c-0.36-2.02-0.73-4.05-1.05-6.07
		c-0.18-1.16-0.19-2.34,0.06-3.5c0.29-1.33,1.03-2.3,2.23-2.94c0.67-0.35,1.38-0.59,2.09-0.81c0.72-0.22,1.44-0.43,2.15-0.66
		c1.44-0.47,2.73-1.21,3.93-2.14C147.21,126.02,147.64,125.51,148.26,125.26z" />
		<path class="nl_st9" d="M180.89,75.32c0.96,2.88,1.66,5.83,2.21,8.82c0.98,5.35,1.25,10.76,0.95,16.18
		c-0.29,5.33-1.2,10.56-2.75,15.67c-3.6,11.88-9.95,22.05-18.99,30.54c-0.21,0.2-0.45,0.37-0.68,0.55
		c-0.02-0.62-0.18-1.27-0.03-1.84c0.14-0.54,0.76-0.87,1.17-1.28c7.91-7.88,13.55-17.14,16.88-27.81c1.07-3.43,1.83-6.92,2.34-10.48
		c0.66-4.64,0.79-9.29,0.5-13.96c-0.29-4.73-1.09-9.39-2.45-13.93c-0.21-0.71-0.18-1.25,0.32-1.78
		C180.55,75.79,180.71,75.55,180.89,75.32z" />
		<path class="nl_st3" d="M72.45,87.44c-0.12-1.2-0.23-2.4,0-3.6c0.11-0.57,0.11-1.16,0.19-1.75c0.34-2.77,1.07-5.43,2.01-8.04
		c1.4-3.89,3.36-7.49,5.91-10.75c0.06-0.08,0.12-0.16,0.2-0.21c0.04-0.03,0.12-0.04,0.18-0.03c0.05,0.02,0.12,0.08,0.12,0.13
		c0.09,0.61,0.16,1.22,0.24,1.84c0.16,1.17,0.41,2.31,0.84,3.41c0.36,0.94,0.78,1.87,1.45,2.65c0.17,0.2,0.34,0.39,0.55,0.55
		c0.29,0.22,0.27,0.36-0.06,0.58c-0.49,0.32-1.01,0.6-1.48,0.96c-1.95,1.5-3.64,3.27-5.07,5.26c-1.97,2.74-3.58,5.68-4.92,8.77
		C72.56,87.29,72.5,87.37,72.45,87.44z" />
		<path class="nl_st6" d="M154.69,77.08c0,0.19,0.03,0.39,0.01,0.58c-0.12,1.2-0.22,2.4-0.37,3.59c-0.12,0.9-0.32,1.8-1.03,2.46
		c-0.31-0.05-0.57,0.13-0.83,0.23c-0.8,0.32-1.62,0.43-2.48,0.39c-0.71-0.03-1.31-0.25-1.82-0.78c-1.1-1.15-2.23-2.28-3.37-3.39
		c-0.6-0.59-1.16-1.23-1.87-1.7c-0.2-0.13-0.32-0.32-0.33-0.57c1.07-0.67,2.13-1.36,3.32-1.79c0.17,0.21,0.4,0.17,0.63,0.17
		c0.48,0.01,0.98-0.05,1.45,0.05c1.21,0.24,2.44,0.08,3.65,0.33c0.34,0.07,0.7,0.09,1.05,0.13
		C153.36,76.86,154.01,77.12,154.69,77.08z" />
		<path class="nl_st7" d="M141.41,100.78c0.31,0.04,0.57-0.09,0.83-0.23c1.26-0.66,2.63-0.93,4.01-1.11c0.81-0.1,1.6,0.17,2.37,0.45
		c1.07,0.39,2.1,0.88,3.08,1.45c1.63,0.94,3.25,1.9,4.8,2.96c0.19,0.13,0.4,0.23,0.4,0.51c-0.94-0.07-1.88-0.13-2.82-0.2
		c-1.34-0.1-2.67-0.07-4.01-0.01c-2.22,0.11-4.41,0.44-6.59,0.81c-0.35,0.06-0.71,0.05-1.07,0.08c-0.38,0.03-0.61-0.17-0.75-0.5
		c-0.18-0.39-0.27-0.8-0.33-1.22C141.19,102.77,141.1,101.77,141.41,100.78z" />
		<path class="nl_st7" d="M149.25,136.59c-0.17,0.79-0.33,1.59-0.49,2.38c-0.05,0.22-0.08,0.45-0.12,0.67c-0.05,0.26-0.22,0.33-0.4,0.18
		c-1.22-0.99-1.95-2.27-2.1-3.83c-0.1-1.03,0.22-1.99,0.68-2.91c0.45-0.89,1.12-1.6,1.88-2.22c1.39-1.14,3.02-1.76,4.79-2.03
		c0.67-0.1,1.35-0.09,2.03-0.19c1.49-0.22,2.92-0.6,4.29-1.21c0.24-0.11,0.46-0.25,0.74-0.22c-0.17,0.79-0.71,1.3-1.33,1.73
		c-0.65,0.46-1.39,0.71-2.17,0.84c-0.9,0.15-1.8,0.31-2.67,0.59c-1.06,0.34-2.07,0.8-2.96,1.47c-1.01,0.77-1.76,1.73-2.08,2.99
		C149.2,135.43,149.23,136.01,149.25,136.59z" />
		<path class="nl_st8" d="M142.6,77.89c0.01,0.25,0.13,0.44,0.33,0.57c0.72,0.47,1.27,1.11,1.87,1.7c1.13,1.12,2.26,2.25,3.37,3.39
		c0.51,0.53,1.11,0.75,1.82,0.78c0.86,0.04,1.68-0.07,2.48-0.39c0.26-0.11,0.52-0.28,0.83-0.23c-0.33,0.67-0.95,0.98-1.6,1.18
		c-2.37,0.73-4.69,0.67-6.88-0.65c-0.67-0.41-1.28-0.89-1.87-1.41c-1.05-0.93-2.05-1.91-3.2-2.73c-0.05-0.03-0.07-0.11-0.13-0.22
		C140.58,79.17,141.55,78.47,142.6,77.89z" />
		<path class="nl_st9" d="M150.8,37.48c0.21-0.02,0.37,0.12,0.53,0.22c4.65,2.85,8.9,6.2,12.76,10.06c0.09,0.09,0.15,0.21,0.23,0.31
		c-1.12-0.25-2.15-0.74-3.21-1.14c-0.2-0.08-0.37-0.26-0.54-0.41c-2.32-2.1-4.77-4.04-7.37-5.79c-0.38-0.26-0.7-0.56-0.96-0.96
		c-0.39-0.6-0.81-1.18-1.22-1.77C150.92,37.84,150.76,37.71,150.8,37.48z" />
		<path class="nl_st9" d="M137.5,89.02c-0.12-0.3,0.13-0.49,0.25-0.69c0.7-1.16,1.2-2.39,1.42-3.72c0.09-0.54,0.11-1.1,0.17-1.66
		c0.17-0.1,0.28,0.05,0.4,0.15c0.62,0.53,1.23,1.07,1.86,1.58c0.74,0.59,1.54,1.09,2.42,1.45c0.14,0.06,0.3,0.1,0.4,0.28
		c-0.53,0.33-1.13,0.51-1.72,0.69c-1.71,0.52-3.43,1.04-5.01,1.91C137.64,89.03,137.56,89.02,137.5,89.02L137.5,89.02z" />
		<path class="nl_st3" d="M187.63,63.51c-0.02-1.67-0.39-3.14-0.98-4.56c-0.09-0.21-0.13-0.44-0.22-0.64c-0.18-0.43-0.18-0.88-0.21-1.34
		c-0.04-0.89,0.44-1.46,1.09-1.95c0.18-0.14,0.39-0.09,0.52,0.08c0.8,1.05,1.41,2.19,1.55,3.52c0.19,1.74-0.32,3.27-1.39,4.64
		C187.93,63.32,187.84,63.36,187.63,63.51z" />
		<path class="nl_st1" d="M154.69,77.08c-0.69,0.04-1.33-0.21-2-0.29c-0.35-0.04-0.71-0.06-1.05-0.13c-1.2-0.26-2.44-0.09-3.65-0.33
		c-0.47-0.09-0.97-0.03-1.45-0.05c-0.22-0.01-0.46,0.03-0.63-0.17c1.03-0.7,2.18-1.12,3.38-1.38c1.66-0.36,3.33-0.44,5.02-0.24
		c0.4,0.05,0.47,0.09,0.46,0.46C154.75,75.66,154.83,76.37,154.69,77.08z" />
		<path class="nl_st9" d="M83.65,156.85c-0.25,0.09-0.44-0.08-0.63-0.18c-2.93-1.59-5.73-3.36-8.39-5.37c0.14-0.13,0.28-0.27,0.44-0.38
		c0.92-0.62,0.85-0.53,1.61-0.01c0.97,0.66,1.88,1.39,2.71,2.22c1.17,1.18,2.47,2.22,3.76,3.26
		C83.34,156.53,83.55,156.63,83.65,156.85z" />
		<path class="nl_st1" d="M141.54,122.94c-0.2-0.32-0.09-0.7-0.17-1.04c-0.15-0.65,0.13-1.04,0.68-1.33c0.89-0.46,1.84-0.62,2.81-0.7
		c0.22-0.02,0.36,0.13,0.43,0.33c0.14,0.43,0.31,0.86,0.29,1.32c-0.35,0.02-0.69,0.1-1.03,0.19
		C143.5,122.01,142.52,122.46,141.54,122.94z" />
		<path class="nl_st5" d="M141.54,122.94c0.97-0.48,1.96-0.93,3.01-1.23c0.34-0.1,0.68-0.18,1.03-0.19c0.04,0.15,0.11,0.31,0.12,0.46
		c0.13,1.23,0.13,1.23-1.09,1.56c-0.69,0.18-1.38,0.38-2.07,0.52c-0.63,0.13-0.78,0.01-0.95-0.64
		C141.56,123.26,141.56,123.1,141.54,122.94z" />
		<path class="nl_st10" d="M137.51,128.19c-0.12-0.49,0.08-0.95,0.2-1.41c0.03-0.1,0.16-0.22,0.27-0.25c0.83-0.28,1.66-0.55,2.49-0.8
		c0.32-0.1,0.47,0,0.58,0.34c0.08,0.24,0.15,0.5,0.19,0.75c0.07,0.38,0.03,0.46-0.35,0.54c-1.08,0.23-2.14,0.51-3.18,0.87
		C137.66,128.24,137.6,128.2,137.51,128.19z" />
		<path class="nl_st9" d="M144.22,158.59c-0.38,0.31-0.85,0.45-1.29,0.64c-0.98,0.42-1.95,0.86-2.97,1.19c-0.11-0.45,0.02-0.9,0.04-1.34
		c0.01-0.17,0.1-0.3,0.26-0.38c0.06-0.03,0.12-0.06,0.17-0.08c1.24-0.58,1.25-0.59,2.67-0.29
		C143.48,158.4,143.88,158.36,144.22,158.59z" />
		<path class="nl_st10" d="M142.3,126.83c-0.07-0.13-0.12-0.18-0.13-0.24c-0.22-1.19-0.15-1.3,1.01-1.64c0.72-0.21,1.43-0.4,2.16-0.59
		c0.15-0.04,0.32-0.04,0.48-0.04c0.05,0,0.12,0.05,0.15,0.1c0.07,0.09,0.03,0.2-0.04,0.26C144.8,125.52,143.67,126.33,142.3,126.83z
		" />
		<path class="nl_st1" d="M146.53,121.17c-0.51-1.57-0.08-1.58,1.18-1.49c0.74,0.05,1.47,0.22,2.16,0.49c0.39,0.15,0.43,0.21,0.39,0.65
		c-0.01,0.16-0.02,0.33-0.2,0.41c-0.1-0.08-0.19-0.21-0.29-0.22c-0.67-0.05-1.35-0.11-2.01,0.05
		C147.35,121.15,146.94,121.15,146.53,121.17z" />
		<path class="nl_st10" d="M146.53,121.17c0.41-0.02,0.82-0.02,1.24-0.12c0.66-0.16,1.34-0.1,2.01-0.05c0.1,0.01,0.2,0.14,0.29,0.22
		c-0.49,0.46-0.98,0.92-1.48,1.37c-0.14,0.13-0.3,0.25-0.46,0.35c-0.42,0.28-0.68,0.24-0.98-0.19
		C146.82,122.28,146.55,121.77,146.53,121.17z" />
		<path class="nl_st1" d="M138.31,125.63c-0.09,0.05-0.21,0.05-0.25-0.04c-0.03-0.08-0.01-0.19,0.01-0.28c0.39-1.36,1.12-2.54,1.97-3.66
		c0.08-0.11,0.26-0.07,0.31,0.06c0.21,0.65,0.38,1.3,0.32,2c-0.2-0.01-0.4-0.02-0.56,0.11c-0.53,0.42-1.11,0.78-1.56,1.3
		C138.41,125.26,138.31,125.42,138.31,125.63z" />
		<path class="nl_st9" d="M125.03,164.29c-0.39-0.38-0.72-0.81-1.07-1.31c0.55-0.3,1.09-0.27,1.62-0.28c0.13,0,0.2,0.15,0.23,0.28
		c0.09,0.38,0.15,0.76,0.1,1.15C125.62,164.18,125.32,164.23,125.03,164.29z" />
		<path class="nl_st10" d="M138.31,125.63c0-0.21,0.11-0.36,0.24-0.52c0.45-0.52,1.03-0.88,1.56-1.3c0.16-0.13,0.36-0.12,0.56-0.11
		c0.08,0.22,0.03,0.44-0.01,0.66c-0.03,0.21-0.15,0.36-0.33,0.43C139.64,125.05,139.03,125.47,138.31,125.63z" />
		<path class="nl_st1" d="M125.03,164.29c0.29-0.06,0.59-0.11,0.88-0.17c0.1,0.45,0.17,0.91,0.17,1.39c-0.12-0.03-0.2-0.02-0.23-0.06
		C125.57,165.07,125.3,164.68,125.03,164.29z" />
		<path class="nl_st3" d="M116.31,124.28c0.09-0.26,0.18-0.52,0.27-0.78c0.12,0,0.25,0.01,0.37,0.01c-0.01,0.34-0.19,0.61-0.37,0.87
		C116.36,124.7,116.39,124.34,116.31,124.28z" />
		<path class="nl_st2" d="M150.02,97.45c0.31-0.03,0.51,0.18,0.88,0.3c-0.4,0.12-0.65,0.15-0.9,0.04
		C150.01,97.68,150.02,97.56,150.02,97.45z" />
		<path class="nl_st2" d="M129.67,94.02c-0.16,0.15-0.35,0.11-0.54,0.1c0.07-0.33,0.31-0.35,0.54-0.4
		C129.67,93.83,129.67,93.93,129.67,94.02z" />
		<path class="nl_st3" d="M84.02,84.49c0.01-0.06,0.02-0.13,0.04-0.19c0.01-0.03,0.05-0.07,0.06-0.07c0.08,0.02,0.11,0.08,0.07,0.15
		c-0.03,0.05-0.08,0.09-0.13,0.14C84.06,84.53,84.02,84.49,84.02,84.49z" />
		<path class="nl_st3" d="M77.4,87.07c0.01-0.06,0.01-0.11,0.02-0.17c0-0.03,0.03-0.07,0.04-0.07c0.07,0.01,0.1,0.06,0.06,0.12
		c-0.03,0.04-0.08,0.07-0.13,0.11C77.39,87.06,77.4,87.07,77.4,87.07z" />
		<path class="nl_st3" d="M49.99,139.39c0.02-0.03,0.05-0.06,0.07-0.09c0,0.02,0,0.04-0.01,0.05c-0.02,0.01-0.04,0.02-0.07,0.03
		C49.98,139.38,49.99,139.39,49.99,139.39z" />
		<path class="nl_st9" d="M150.61,37.32c0.11,0,0.19,0.05,0.21,0.17C150.68,37.52,150.64,37.43,150.61,37.32z" />
		<path class="nl_st2" d="M111.48,107.82c0.08,0.02,0.1,0.06,0.08,0.12c-0.04-0.03-0.07-0.06-0.11-0.09
		C111.44,107.85,111.48,107.82,111.48,107.82z" />
		<path class="nl_st9" d="M83.95,157.05c-0.15,0-0.3-0.02-0.31-0.22C83.74,156.9,83.85,156.98,83.95,157.05z" />
		<path class="nl_st2" d="M97.94,97.85c0.03,0.01,0.08,0.03,0.08,0.03c-0.02,0.07-0.04,0.05-0.07-0.05
		C97.95,97.83,97.94,97.85,97.94,97.85z" />
		<path class="nl_st9" d="M137.5,89.02c-0.04,0.04-0.07,0.08-0.11,0.12C137.34,89.02,137.36,88.97,137.5,89.02
		C137.5,89.02,137.5,89.02,137.5,89.02z" />
		<path class="nl_st8" d="M138.87,24.55c-0.05-0.03-0.1-0.05-0.15-0.08c0.04-0.02,0.09-0.05,0.12-0.05c0.07,0.01,0.07,0.07,0.01,0.14
		C138.86,24.56,138.87,24.55,138.87,24.55z" />
		<path class="nl_st1" d="M103.62,170.74c0.08-0.01,0.12,0.02,0.13,0.09c0,0.01-0.06,0.03-0.08,0.02c-0.09-0.03-0.09-0.07-0.02-0.13
		C103.64,170.73,103.62,170.74,103.62,170.74z" />
		<path class="nl_st11" d="M152.39,68.65c-0.07-0.33,0.01-0.64,0.11-0.96c0.35-1.13,0.89-2.17,1.54-3.15c1.08-1.65,2.4-3.08,3.95-4.3
		c0.13-0.1,0.28-0.17,0.42-0.25c0.09,0.01,0.18,0.02,0.26,0.03c-0.29,0.59-0.77,1.04-1.16,1.55c-1.02,1.3-2.08,2.57-3.02,3.93
		c-0.55,0.8-1.07,1.62-1.61,2.43c-0.16,0.24-0.33,0.47-0.5,0.71L152.39,68.65z" />
		<path class="nl_st11" d="M163.61,60.29c-0.57,0.75-1.14,1.5-1.72,2.23c-1.44,1.81-2.83,3.64-4.01,5.64c-0.08,0.13-0.18,0.26-0.3,0.44
		c-0.14-2.1,3.04-6.68,5.85-8.53C163.49,60.15,163.55,60.22,163.61,60.29z" />
		<path class="nl_st11" d="M168.46,60.66c-0.76,0.98-1.51,1.95-2.27,2.93c-1.14,1.47-2.23,2.97-3.17,4.57c-0.1,0.16-0.21,0.32-0.35,0.52
		c-0.15-1.68,2.36-6.03,5.5-8.31C168.27,60.47,168.37,60.57,168.46,60.66z" />
		<path class="nl_st1" d="M168.46,60.66c-0.1-0.1-0.19-0.19-0.29-0.29c0.24-0.3,0.54-0.52,0.9-0.69
		C168.98,60.16,168.98,60.16,168.46,60.66z" />
		<path class="nl_st1" d="M163.51,60.02c0.08-0.16,0.22-0.24,0.37-0.3c0.04-0.02,0.1,0.02,0.15,0.04c0,0,0,0.07-0.02,0.09
		c-0.06,0.07-0.14,0.13-0.21,0.19C163.71,60.03,163.61,60.02,163.51,60.02z" />
		<path class="nl_st1" d="M158.67,60.03c-0.09-0.01-0.18-0.02-0.26-0.03c0.11-0.17,0.24-0.25,0.44-0.16l-0.02-0.01
		C158.83,59.94,158.78,60.01,158.67,60.03z" />
		<path class="nl_st0" d="M104.6,73.93c0.01-0.06,0.01-0.13,0.02-0.19c0.01-0.03,0.04-0.08,0.06-0.07c0.08,0.02,0.11,0.08,0.06,0.15
		C104.72,73.87,104.66,73.9,104.6,73.93C104.61,73.93,104.6,73.93,104.6,73.93z" />
		<path class="nl_st0" d="M138.08,57.67c-0.03,0.03-0.06,0.05-0.08,0.08c0.01-0.02,0.01-0.04,0.02-0.05
		C138.04,57.68,138.06,57.68,138.08,57.67C138.09,57.67,138.08,57.67,138.08,57.67z" />
		<path class="nl_st1" d="M158.85,59.84c-0.03-0.07-0.01-0.1,0.05-0.11c0,0.02,0.01,0.04,0,0.05c-0.02,0.02-0.04,0.03-0.07,0.04
		C158.83,59.82,158.85,59.84,158.85,59.84z" />
		<polygon class="nl_st11" points="152.38,68.64 152.34,68.67 152.39,68.65 	" />
		<path class="nl_st11" d="M163.51,60.02c0.1,0.01,0.2,0.02,0.29,0.02c-0.07,0.08-0.13,0.17-0.2,0.25c-0.06-0.07-0.12-0.14-0.18-0.21
		C163.44,60.04,163.47,60.02,163.51,60.02z" />
		<path class="nl_st0" d="M72.99,108.45c-0.02-0.06-0.05-0.11-0.05-0.17c0-0.09,0.05-0.12,0.09-0.07c0.02,0.02,0.03,0.06,0.02,0.09
		C73.04,108.35,73.01,108.4,72.99,108.45z" />
		<path class="nl_st0" d="M80.04,98.94c0.01,0.03,0.03,0.05,0.03,0.08c0,0.02-0.03,0.04-0.04,0.07C80.03,99.03,80.04,98.98,80.04,98.94z
		" />
		<path class="nl_st0" d="M96,148.39c0.08,0,0.11,0.04,0.09,0.09c0,0-0.05,0-0.06-0.01C96.01,148.46,96,148.43,96,148.39
		C95.99,148.4,96,148.39,96,148.39z" />
		<path class="nl_st0" d="M76.03,115.48c0.01-0.03,0.03-0.08,0.04-0.08c0.07,0.02,0.05,0.05-0.05,0.07
		C76.01,115.47,76.03,115.48,76.03,115.48z" />
		<path class="nl_st12" d="M170.58,145.4c-0.02,1.23-1.04,2.22-2.26,2.2c-1.21-0.02-2.22-1.06-2.2-2.27c0.02-1.22,1.06-2.22,2.27-2.2
		C169.61,143.15,170.6,144.17,170.58,145.4z" />
		<path class="nl_st12" d="M187.52,102.16c-1.23-0.01-2.23-1.01-2.22-2.23c0.01-1.21,1.04-2.23,2.25-2.23c1.21,0.01,2.22,1.03,2.22,2.25
		C189.75,101.19,188.76,102.17,187.52,102.16z" />
		<path class="nl_st12" d="M181.94,122.12c1.26,0,2.2,0.97,2.22,2.24c0.01,1.11-0.84,2.24-2.25,2.21c-1.47-0.03-2.17-1.2-2.17-2.19
		C179.73,123.11,180.68,122.13,181.94,122.12z" />
		<path class="nl_st12" d="M186.66,75.14c-0.02,1.25-1.01,2.2-2.28,2.17c-1.21-0.03-2.16-1-2.17-2.2c-0.01-1.24,0.99-2.23,2.25-2.23
		C185.71,72.89,186.68,73.88,186.66,75.14z" />
		<path class="nl_st1" d="M128.68,94.28c-0.02-0.04-0.04-0.07-0.07-0.11c0.05-0.01,0.1-0.03,0.15-0.03c0.02,0,0.04,0.04,0.06,0.06
		C128.78,94.24,128.73,94.26,128.68,94.28z" />
		<path class="nl_st12" d="M154.7,33.55c1.26-0.02,2.24,0.95,2.25,2.21c0.01,1.19-0.86,2.25-2.23,2.24c-1.48-0.01-2.19-1.19-2.2-2.16
		C152.51,34.56,153.45,33.57,154.7,33.55z" />
		<path class="nl_st12" d="M74.26,156.74c0.02-1.2,1.01-2.16,2.21-2.16c1.24,0,2.27,1,2.24,2.23c-0.03,1.39-1.15,2.24-2.26,2.21
		C75.2,158.98,74.24,158,74.26,156.74z" />
	</g>
</svg>