<?xml version="1.0" encoding="utf-8"?>
<!-- Generator: Adobe Illustrator 28.3.0, SVG Export Plug-In . SVG Version: 6.00 Build 0)  -->
<svg version="1.1"
	 id="svg2" xmlns:inkscape="http://www.inkscape.org/namespaces/inkscape" xmlns:sodipodi="http://sodipodi.sourceforge.net/DTD/sodipodi-0.dtd" xmlns:svg="http://www.w3.org/2000/svg"
	 xmlns="http://www.w3.org/2000/svg" xmlns:xlink="http://www.w3.org/1999/xlink" x="0px" y="0px" viewBox="0 0 1000 1000"
	 style="enable-background:new 0 0 1000 1000;" xml:space="preserve">
<sodipodi:namedview  bordercolor="#000000" borderopacity="0.25" id="namedview4" inkscape:deskcolor="#d1d1d1" inkscape:pagecheckerboard="0" inkscape:pageopacity="0.0" inkscape:showpageshadow="2" pagecolor="#ffffff">
	</sodipodi:namedview>
<g id="g10">
	<g>
		<defs>
			<rect id="SVGID_1_" y="-207.143" width="1000" height="1414.285"/>
		</defs>
		<clipPath id="SVGID_00000036247233993769121560000007232375849704267444_">
			<use xlink:href="#SVGID_1_"  style="overflow:visible;"/>
		</clipPath>
		<g id="g12" style="clip-path:url(#SVGID_00000036247233993769121560000007232375849704267444_);">
			<g id="g18" transform="translate(393.0488,327.2393)">
				<path id="path20" style="fill-rule:evenodd;clip-rule:evenodd;fill:#FFFFFF;" d="M267.231,330.176
					c-45.602,61.036-102.67,111.723-166.099,153.712l-7.314,4.843l-7.995-3.608c-39.983-18.039-78.108-40.2-112.583-67.354
					c-67.219,20.031-134.433,40.076-201.638,60.155l-41.241,12.322V318.323l17.343-5.182c-0.202-8.226-0.823-16.841-3.084-24.13
					c-1.431-1.621-2.799-3.299-4.107-5.018c-2.653,5.54-6.982,10.251-12.566,13.328c-5.001,2.758-10.578,3.983-16.098,3.684
					l-0.973,1.043c-0.178,0.197-0.354,0.396-0.531,0.596l-2.506,2.847c-2.994,3.397-7.235,5.408-11.761,5.574l-3.79,0.138
					c-2.013,0.074-4.018-0.054-5.994-0.373c-14.706,2.663-30.293-1.278-38.061-15.364c-7.746-14.051-2.758-29.38,7.318-40.385
					c0.786-1.843,1.749-3.607,2.886-5.271l2.14-3.131c2.553-3.738,6.52-6.254,10.99-6.972l3.746-0.6
					c0.272-0.044,0.546-0.089,0.805-0.133l1.384-0.262c2.695-4.833,6.709-8.895,11.707-11.65c6.456-3.56,13.898-4.529,20.881-3.02
					l15.143-9.275c1.418-13.078,4.754-25.35,12.302-36.743c8.477-14.751,20.018-27.176,35.93-33.405
					c5.35-4.83,11.66-8.321,18.578-10c5.261-4.821,11.438-8.314,18.175-10.074c-5.56-39.736-6.978-80.049-5.398-120.112l0.294-7.447
					l5.913-4.537c45.784-35.125,95.431-65.907,148.719-88.3c21.535-25.079,50.691-43.242,83.081-50.303
					c9.075-5.471,21.19-7.497,31.337-7.665c11.579-0.19,26.648,1.997,36.47,9.547c9.614,2.642,18.929,6.256,27.853,10.699
					c54.538-0.062,107.721,10.491,158.668,29.662l57.446-32.568c14.192-8.047,29.529-8.801,45.018-4.416l168.579,47.734
					c9.792,2.772,16.735,10.813,18.816,20.663c1.967,9.312-0.852,18.785-7.598,25.497l-0.684,0.68L527.431-2.735
					c-11.245,10.498-27.735,13.162-41.535,6.068L380.037-51.094c1.408,53.945-2.649,108.131-13.8,160.962l14.791,14.444
					c13.458-4.018,26.915-8.038,40.371-12.058l41.241-12.322v171.924l-23.181,6.926
					C382.057,295.935,324.647,313.062,267.231,330.176"/>
			</g>
			<g id="g22" transform="translate(288.9517,243.627)">
				<path id="path24" style="fill-rule:evenodd;clip-rule:evenodd;fill:#001414;" d="M196.456,554.248
					C385.033,429.41,475.308,253.977,468.115,28.385C288.409-71.777,107.298-51.338-75.203,88.673
					C-84.074,313.671,6.761,468.664,196.456,554.248"/>
			</g>
			<g id="g26" transform="translate(285.9043,282.9844)">
				<path id="path28" style="fill-rule:evenodd;clip-rule:evenodd;fill:#832929;" d="M194.384,448.775
					c67.75-49.424,124.897-110.263,163.751-185.756c38.446-74.703,54.867-155.97,56.113-239.014
					C262.23-48.38,120.839-18.528-15.517,78.593c-0.045,88.593,17.664,177.029,69.492,250.848
					C90.337,381.23,139.173,419.808,194.384,448.775"/>
			</g>
			<g id="g30" transform="translate(437.1396,548.3975)">
				<path id="path32" style="fill-rule:evenodd;clip-rule:evenodd;fill:#025D58;" d="M297.208-262.504
					c-175.873-92.742-341.26-58.769-497.93,58.138c-2.532,101.627,16.033,203.381,75.476,288.045
					c43.652,62.173,103.577,107.038,171.418,139.431c79.595-54.644,146.574-123.276,191.133-209.856
					C281.521-72.661,298.599-166.673,297.208-262.504 M274.244-248.366c-159.879-78.953-309.072-47.736-452.13,55.801
					c-0.827,92.851,17.172,185.64,71.493,263.006c38.748,55.191,91.193,95.85,150.515,125.984
					c71.617-51.17,131.974-114.579,172.7-193.712C257.166-75.675,273.824-161.121,274.244-248.366"/>
			</g>
			<g id="g34" transform="translate(144.6074,511.7861)">
				<path id="path36" style="fill-rule:evenodd;clip-rule:evenodd;fill:#001414;" d="M98.318-164.389
					c-1.186,57.805,4.559,116.292,21.558,171.71c11.961,38.987,29.339,75.777,52.797,109.186
					c42.169,60.061,99.937,103.807,165.441,135.624c77.396-53.725,142.483-120.971,185.872-205.278
					c20.347-39.535,35.152-81.46,44.815-124.841c10.508-47.178,14.849-95.598,14.407-143.895
					C410.889-311.168,250.051-276.66,98.318-164.389 M573.358-211.724c-0.427,88.495-17.449,174.976-58.151,254.06
					c-41.055,79.775-102.09,144.158-174.726,196.055c-2.048,1.463-4.564,1.651-6.807,0.511
					c-60.478-30.722-113.71-72.22-152.922-128.068c-55.015-78.359-73.526-172.513-72.686-266.846
					c0.018-2.159,0.974-4.007,2.723-5.273c143.478-103.843,295.502-137.064,458.901-56.37
					C572.002-216.515,573.369-214.301,573.358-211.724"/>
			</g>
			<g id="g38" transform="translate(541.6221,532.4614)">
				<path id="path40" style="fill-rule:evenodd;clip-rule:evenodd;fill:#001414;" d="M368.245-219.797
					c-6.357,6.108-15.699,7.864-23.655,3.773L233.78-272.998c-4.702-2.417-9.76-2.214-14.402,0.247l-0.134,0.071L15.849-173.872
					L-253.93-27.364l-13.241-6.587l-3.585-19.168l484.621-274.757c10.457-5.93,21.491-6.167,32.849-2.95l168.579,47.734
					c4.106,1.163,6.743,4.61,7.596,8.656c0.855,4.042-0.329,8.03-3.259,10.945l-0.242,0.24L368.245-219.797z"/>
			</g>
			<g id="g42" transform="translate(195.8784,403.1553)">
				<path id="path44" style="fill-rule:evenodd;clip-rule:evenodd;fill:#001414;" d="M133.176,126.729
					c-6.877,21.703-25.331,76.314-12.624,96.56l8.042,12.813l-143.972,31.273l11.27-21.745
					c6.526-12.591,12.184-25.513,18.607-38.159c7.603-14.976,16.114-29.732,26.816-43.393
					c18.101-23.102,41.596-41.754,73.581-51.158l24.983-7.346L133.176,126.729z"/>
			</g>
			<g id="g46" transform="translate(188.0928,404.2168)">
				<path id="path48" style="fill-rule:evenodd;clip-rule:evenodd;fill:#023284;" d="M127.883,123.885l-1.534,0.452
					c-27.654,8.129-49.347,24.152-67.011,46.701c-10.009,12.774-18.128,26.821-25.459,41.262
					c-5.947,11.712-11.274,23.722-17.212,35.439l99.036-21.513C103.007,200.355,119.386,150.556,127.883,123.885"/>
			</g>
			<g id="g50" transform="translate(184.5439,403.1221)">
				<path id="path52" style="fill-rule:evenodd;clip-rule:evenodd;fill:#02296B;" d="M125.47,126.818
					c-10.427,3.466-19.981,8.094-28.773,13.81c-10.753,11.227-19.312,24.379-26.085,39.296
					c-6.709,14.775-11.282,30.342-14.998,46.106c-1.243,5.27-2.37,10.567-3.477,15.867l67.115-14.578
					c-9.627-19.619-2.535-52.997,5.162-79.613C124.628,140.281,125.043,133.18,125.47,126.818"/>
			</g>
			<g id="g54" transform="translate(104.1665,429.4517)">
				<path id="path56" style="fill-rule:evenodd;clip-rule:evenodd;fill:#001414;" d="M70.822,56.258l1.574-1.495
					c4.452-4.232,9.9-7.007,15.962-7.504l2.883-2.742c4.996-4.746,11.244-7.66,18.208-7.583c1.45,0.017,2.878,0.158,4.279,0.412
					l0.168-0.126c5.272-3.981,11.432-6.038,18.054-5.209c14.358,1.791,24.683,16.275,31.565,27.824l1.43,2.399l-0.003,2.792
					c-0.013,10.136-1.54,22.124-6.903,30.947l-1.918,3.158c3.98,7.435,4.371,16.171,1.782,25.303l-0.234,0.827l-0.37,0.774
					c-9.365,19.608-25.035,34.651-41.729,48.095c0.255,0.756,0.529,1.507,0.821,2.249c0.952,2.421,2.102,4.789,3.392,7.106
					c19.446,40.354,73.205-1.378,78.266,10.75c0.706,2.572,2.093,5.164,3.153,7.615c1.1,2.552,2.001,5.109,2.53,7.845
					c5.619,28.976,2.659,55.735-20.779,76.193c-16.792,14.655-35.36,25.465-56.628,32.266l-3.506,1.12l-3.405-1.393
					c-0.788-0.323-1.567-0.657-2.342-1.001l2.606,5.836l-25.936-13.74c-10.412-5.515-19.604-12.747-26.514-22.363
					c-4.141-5.765-7.237-12.083-9.436-18.827c-4.865-14.921-5.035-30.762-5.184-46.298c-0.128-13.194-0.092-27.876-4.282-40.502
					l-0.81-2.443c-2.426-2.485-4.583-5.142-6.395-7.625c-4.883-6.684-12.791-17.397-12.438-25.911
					c0.847-20.365-1.225-42.353,11.254-60.827C47.077,71.609,56.824,60.716,70.822,56.258"/>
			</g>
			<g id="g58" transform="translate(135.6826,403.7354)">
				<path id="path60" style="fill-rule:evenodd;clip-rule:evenodd;fill:#171320;" d="M92.25,125.175
					c-0.821-0.403-3.336-0.968-4.159-1.371c7.81,8.127,3.887,12.55-12.226,12.166c-0.089-0.002-0.165,0.064-0.173,0.153
					c-0.01,0.084,0.045,0.165,0.131,0.185C89.913,139.659,99.574,134.266,92.25,125.175 M74.974,125.507
					c0.887-0.457,1.774-0.917,2.661-1.376c-2.278,2.653-3.37,5.913-3.118,9.864c0.007,0.097-0.062,0.181-0.158,0.197
					c-0.096,0.015-0.188-0.044-0.21-0.138C73.366,131.009,73.45,128.123,74.974,125.507"/>
			</g>
			<g id="g62" transform="translate(56.1558,351.7363)">
				<path id="path64" style="fill-rule:evenodd;clip-rule:evenodd;fill:#001414;" d="M38.18,264.527l-2.132,2.286
					c-0.247,0.276-0.492,0.551-0.737,0.828l-2.671,3.034l-4.038,0.148c-1.821,0.066-3.613-0.213-5.344-0.778l-0.556,0.139
					c-8.366,2.115-18.968,1.611-23.656-6.891c-4.689-8.502,0.544-17.736,6.797-23.683l0.417-0.395
					c0.445-1.766,1.166-3.43,2.194-4.936l2.28-3.336l3.99-0.64c0.366-0.059,0.731-0.118,1.095-0.181l3.071-0.583
					c2.589-0.539,5.142-1.201,7.645-2.021c0.45-4.489,2.994-8.692,7.242-11.035c4.836-2.668,10.535-2.177,14.822,0.714l140.385-86
					l-2.238-66.351c-6.866-0.578-13.051-5.181-15.299-12.142c-2.397-7.418,0.398-15.279,6.37-19.645
					c0.442-7.012,5.083-13.379,12.169-15.668c7.418-2.397,15.28,0.4,19.645,6.372c7.012,0.442,13.379,5.083,15.668,12.169
					c2.397,7.42-0.4,15.282-6.374,19.646c-0.156,2.501-0.847,4.946-2.019,7.158l17.619,70.715l50.398,52.643
					c2.498,0.188,4.932,0.909,7.131,2.11c6.879-2.721,15.022-0.89,20.018,5.097c4.769,5.718,5.297,13.58,1.928,19.744
					c2.721,6.879,0.889,15.02-5.097,20.014c-5.718,4.769-13.579,5.298-19.745,1.93c-6.877,2.72-15.018,0.889-20.013-5.097
					c-4.687-5.618-5.278-13.303-2.103-19.42l-54.916-37.304L64.474,245.993c0.156,5.166-2.469,10.246-7.308,12.913
					c-4.248,2.342-9.16,2.249-13.196,0.235C41.94,260.821,40.018,262.625,38.18,264.527"/>
			</g>
			<g id="g66" transform="translate(43.0771,366.5859)">
				<path id="path68" style="fill-rule:evenodd;clip-rule:evenodd;fill:#832929;" d="M29.288,224.732
					c7.237-1.159,14.371-3.031,21.294-6.352l-1.021-1.851c-1.315-2.387-0.492-5.386,1.829-6.667
					c2.323-1.278,5.298-0.375,6.614,2.013l1.542,2.797l52.5-32.163l15.899-8.897c0.781,3.702,1.9,7.544,3.519,11.114
					c1.93,4.259,0.133,9.286-4.062,11.354l-61.407,30.287l1.542,2.797c1.315,2.385,0.492,5.386-1.829,6.664
					c-2.323,1.282-5.298,0.376-6.614-2.009l-1.021-1.85c-6.503,4.08-11.892,9.113-16.735,14.617
					C33.649,246.864,24.949,231.085,29.288,224.732 M197.375,161.569l-35.533,17.526l-0.558-1.297
					c-2.076-4.848,2.973-9.73,6.392-12.376l1.663-1.283l0.081,0.015c3.175,0.64,6.395,0.889,9.622,0.81l-0.002,1.282l7.297-1.777
					l4.255-0.328l0.03-0.714l0.929-0.225C193.512,162.725,195.451,162.172,197.375,161.569 M20.351,243.908
					c1.742,3.16,6.93,3.886,13.128,2.32c-3.931-3.57-7.163-9.429-8.082-14.659C20.764,235.973,18.61,240.748,20.351,243.908"/>
			</g>
			<g id="g70" transform="translate(168.1113,425.0791)">
				<path id="path72" style="fill-rule:evenodd;clip-rule:evenodd;fill:#CFD9D9;" d="M114.298,67.976l5.339,2.656l1.495-0.811
					L385.624-73.819l203.433-98.828c7.15-3.79,15.2-4.012,22.427-0.296l110.811,56.972c4.756,2.446,10.123,1.23,13.851-2.476
					l51.111-43.425c0.853-0.847,1.139-1.831,0.89-3.005c-0.171-0.811-0.591-1.856-1.475-2.108L618.091-214.72
					c-9.107-2.579-17.82-2.636-26.21,2.15L376.497-90.458L114.101,58.31l-1.458,0.827L114.298,67.976z"/>
			</g>
			<g id="g74" transform="translate(151.2847,438.1138)">
				<path id="path76" style="fill-rule:evenodd;clip-rule:evenodd;fill:#CFD9D9;" d="M102.857,33.044l-1.981-58.685
					c-1.122-0.954-2.001-2.222-2.488-3.728c-0.338-1.047-0.454-2.11-0.376-3.141c-0.709,0.531-1.515,0.956-2.406,1.245
					c-4.321,1.394-8.954-0.976-10.35-5.297s0.974-8.956,5.295-10.35c1.045-0.338,2.11-0.455,3.141-0.378
					c-0.531-0.709-0.956-1.515-1.245-2.404c-1.394-4.322,0.976-8.956,5.297-10.351c4.321-1.396,8.954,0.976,10.35,5.295
					c0.338,1.047,0.455,2.11,0.378,3.141c0.709-0.531,1.515-0.956,2.406-1.243c4.321-1.396,8.954,0.974,10.35,5.295
					s-0.974,8.956-5.295,10.351c-1.047,0.336-2.11,0.454-3.141,0.376c0.531,0.709,0.956,1.515,1.243,2.406
					c1.047,3.239-0.024,6.656-2.448,8.751l19.295,77.441l55.191,57.647c3.066-0.931,6.526-0.013,8.709,2.6
					c0.598,0.719,1.053,1.509,1.369,2.337c0.485-0.914,1.152-1.752,1.996-2.456c3.486-2.908,8.672-2.441,11.58,1.047
					c2.91,3.486,2.441,8.67-1.047,11.58c-0.717,0.598-1.509,1.055-2.335,1.369c0.914,0.485,1.75,1.152,2.454,1.996
					c2.91,3.487,2.443,8.672-1.045,11.58c-3.486,2.91-8.672,2.439-11.579-1.047c-0.6-0.717-1.055-1.507-1.371-2.337
					c-0.486,0.916-1.151,1.752-1.996,2.456c-3.486,2.91-8.67,2.441-11.58-1.045c-2.908-3.486-2.439-8.672,1.047-11.58
					c0.719-0.6,1.509-1.053,2.337-1.371c-0.914-0.484-1.752-1.151-2.456-1.994c-1.013-1.215-1.616-2.636-1.824-4.094L121.03,78.173
					c-1.774-1.204-3.83-1.54-5.817-0.976c1.947-6.802,2.602-14.212,2.611-20.834l0.003-2.792l-1.43-2.399
					C112.834,45.193,108.349,38.429,102.857,33.044 M99.708-40.918c-0.63-1.95,0.44-4.047,2.394-4.677
					c1.952-0.632,4.045,0.44,4.677,2.392c0.63,1.954-0.44,4.047-2.392,4.679C102.432-37.894,100.338-38.966,99.708-40.918
					 M97.472-40.196c-0.239-0.737-0.328-1.49-0.284-2.221c-1.334-1.648-3.595-2.392-5.733-1.702
					c-2.777,0.897-4.301,3.877-3.403,6.654s3.877,4.301,6.654,3.403c2.039-0.659,3.402-2.439,3.629-4.438
					C97.967-39.003,97.675-39.571,97.472-40.196 M99.682-46.969c0.504-0.366,1.072-0.659,1.697-0.862
					c0.737-0.239,1.49-0.326,2.221-0.284c1.648-1.336,2.392-3.593,1.702-5.732c-0.897-2.779-3.877-4.302-6.654-3.405
					s-4.301,3.877-3.403,6.654C95.903-48.56,97.683-47.196,99.682-46.969 M108.152-45.62c0.366,0.504,0.659,1.072,0.862,1.697
					c0.239,0.739,0.328,1.49,0.284,2.221c1.336,1.648,3.593,2.394,5.733,1.702c2.777-0.897,4.301-3.877,3.403-6.654
					s-3.877-4.301-6.654-3.403C109.743-49.4,108.379-47.619,108.152-45.62 M106.803-37.15c-0.504,0.366-1.072,0.66-1.697,0.862
					c-0.739,0.239-1.49,0.326-2.221,0.284c-1.648,1.336-2.394,3.593-1.702,5.733c0.897,2.777,3.876,4.301,6.652,3.403
					c2.779-0.897,4.302-3.877,3.405-6.654C110.583-35.561,108.803-36.923,106.803-37.15 M192.626,127.601
					c1.315,1.574,3.657,1.786,5.233,0.47c1.576-1.314,1.787-3.657,0.472-5.231c-1.314-1.577-3.657-1.789-5.231-0.474
					C191.524,123.681,191.312,126.023,192.626,127.601 M190.822,129.102c0.499,0.598,1.085,1.073,1.727,1.428
					c0.68,2.009,0.106,4.316-1.619,5.757c-2.241,1.87-5.576,1.567-7.444-0.674c-1.871-2.241-1.569-5.574,0.672-7.444
					c1.645-1.372,3.879-1.576,5.69-0.701C190.077,128.047,190.402,128.6,190.822,129.102 M197.731,130.85
					c0.578-0.23,1.129-0.554,1.633-0.974c0.596-0.497,1.072-1.085,1.425-1.725c2.011-0.682,4.317-0.108,5.759,1.619
					c1.868,2.241,1.567,5.574-0.674,7.444c-2.241,1.87-5.574,1.569-7.444-0.672C197.057,134.895,196.856,132.66,197.731,130.85
					 M201.111,122.967c-0.23-0.578-0.556-1.129-0.976-1.635c-0.497-0.595-1.085-1.072-1.727-1.425
					c-0.68-2.009-0.106-4.317,1.621-5.757c2.241-1.87,5.574-1.569,7.444,0.672c1.87,2.241,1.567,5.576-0.672,7.445
					C205.156,123.639,202.922,123.843,201.111,122.967 M193.227,119.588c-0.578,0.232-1.129,0.554-1.633,0.974
					c-0.596,0.497-1.073,1.087-1.426,1.727c-2.009,0.682-4.317,0.106-5.757-1.619c-1.87-2.241-1.569-5.576,0.672-7.444
					c2.243-1.87,5.574-1.571,7.444,0.672C193.899,115.542,194.102,117.777,193.227,119.588"/>
			</g>
			<g id="g78" transform="translate(167.3975,423.8311)">
				<path id="path80" style="fill-rule:evenodd;clip-rule:evenodd;fill:#FEFEF8;" d="M113.812,71.321l-2.97-3.104L91.816-8.148
					c-0.874,0.161-1.747,0.195-2.602,0.116l2.034,60.315c3.499,4.269,6.501,8.92,9.036,13.172l1.43,2.401l-0.003,2.792
					c-0.003,2.202-0.077,4.492-0.247,6.817L113.812,71.321z"/>
			</g>
			<g id="g82" transform="translate(279.0576,591.3027)">
				<path id="path84" style="fill-rule:evenodd;clip-rule:evenodd;fill:#171320;" d="M189.729-377.485
					c16.216-0.267,29.067-5.969,28.704-12.737c-0.363-6.765-13.802-12.035-30.018-11.768c-16.216,0.265-29.066,5.969-28.704,12.735
					C160.074-382.488,173.513-377.218,189.729-377.485"/>
			</g>
			<g id="g86" transform="translate(223.6938,522.8701)">
				<path id="path88" style="fill-rule:evenodd;clip-rule:evenodd;fill:#001414;" d="M152.088-194.093
					c13.506,16.653-5.278,48.44-23.933,53.913c-0.213,0.062-0.27,0.336-0.237,0.556c0.806,5.327,2.94,9.244,6.142,12.026
					c0.239,0.207,0.265,0.568,0.06,0.81c-5.802,6.822-13.253,11.583-22.699,13.851c-0.21,0.05-0.366,0.2-0.423,0.408
					c-0.057,0.208,0,0.417,0.155,0.568c6.762,6.589,15.21,9.97,25.069,10.661c0.218,0.015,0.398,0.139,0.487,0.339
					c0.089,0.2,0.064,0.417-0.069,0.59c-3.101,4.008-6.641,7.561-11.917,9.32c-0.25,0.084-0.41,0.319-0.393,0.586
					c0.45,7.015-0.88,13.516-2.883,19.821c-0.052,0.163-0.161,0.282-0.319,0.351C37.36-33.069,33.776,61.867,76.511,109.28
					l434.288-72.635l23.524-44.961l0.643-25.741l-17.211-35.17l-86.474-42.206c-1.401-36.234-50.462-22.768-67.283-41.797
					c-15.08-34.456-30.157-68.911-45.238-103.367c-57.13-2.023-114.261-4.047-171.394-6.069c1.571,22.831,3.141,45.661,4.71,68.491
					C152.078-194.147,152.069-194.117,152.088-194.093"/>
			</g>
			<g id="g90" transform="translate(442.0234,422.3247)">
				<path id="path92" style="fill-rule:evenodd;clip-rule:evenodd;fill:#024A47;" d="M300.529,75.358l17.867-5.614l-0.193-0.848
					c-27.332-13.513-56.359-16.707-85.903-13.024c22.798-0.437,47.951,7.818,67.755,17.412L300.529,75.358z"/>
			</g>
			<g id="g94" transform="translate(311.0781,397.5234)">
				<path id="path96" style="fill-rule:evenodd;clip-rule:evenodd;fill:#023284;" d="M211.5,141.822
					c-10.916,9.962-3.647,9.708-14.109,20.006c-1.394,1.372-2.812,2.71-4.255,4.018l201.79-60.217l-0.499-2.085
					c-24.552-11.296-50.566-12.048-76.882-6.127c-13.17,2.963-26.018,7.484-38.59,12.792c-10.509,4.435-20.727,9.468-31.09,14.287
					l-21.135,9.826L211.5,141.822z"/>
			</g>
			<g id="g98" transform="translate(418.9307,418.6699)">
				<path id="path100" style="fill-rule:evenodd;clip-rule:evenodd;fill:#02296B;" d="M284.828,85.152l2.246-0.669l-0.501-2.086
					c-24.55-11.294-50.566-12.048-76.882-6.127c-13.169,2.965-26.018,7.486-38.589,12.792c-10.509,4.437-20.727,9.47-31.09,14.287
					l-19.937,9.271l16.093-5.47c12.576-4.275,24.988-8.771,37.717-12.656c15.23-4.645,30.752-8.492,46.58-10.768
					C242.424,80.573,264.055,80.623,284.828,85.152"/>
			</g>
			<g id="g102" transform="translate(241.856,488.0957)">
				<path id="path104" style="fill-rule:evenodd;clip-rule:evenodd;fill:#5F1E1E;" d="M164.436-100.902
					c32.138-2.498,37.304,23.057,65.618,17.271c-19.089-11.469-18.071-38.535-57.268-34.406c-1.734,2.676-5.76,9.021-7.492,11.697
					c-1.403-3.415-2.804-6.83-4.206-10.244c-23.293-1.478-24.797,28.39-37.999,34.098
					C143.733-77.234,149.107-99.882,164.436-100.902"/>
			</g>
			<g id="g106" transform="translate(250.2983,481.2637)">
				<path id="path108" style="fill-rule:evenodd;clip-rule:evenodd;fill:#F2B67F;" d="M170.176-82.593l10.884,3.84
					c0.19,0.064,0.744,0.292,0.946,0.343l6.738,0.131c1.221,2.681-6.219,9.55-10.241,9.118c-2.023-0.197,0.316-0.689-3.225-0.798
					c-1.976-0.062-3.199,0.01-4.969-0.267c-1.122-1.267-4.606-1.883-7.65-3.41c-4.398-2.207-3.311-2.696-8.052-0.077
					c-3.516,1.944-12.806,8.604-13.542-0.329c-0.405-4.917,1.618-5.48,5.082-7.138c2.026-0.971,6.224-3.765,7.996-3.392
					c3.518,0.743,3.051,3.553,7.976,1.374C166.502-85.136,166.796-84.489,170.176-82.593"/>
			</g>
			<g id="g110" transform="translate(317.834,464.9907)">
				<path id="path112" style="fill-rule:evenodd;clip-rule:evenodd;fill:#F2B67F;" d="M216.093-38.983
					c-5.355-0.662-10.6-3.529-15.739-8.411c-0.66,11.307-3.419,26.833-9.135,37.22c13.802-9.55,27.495-19.497,41.028-28.394
					l-7.596-25.069c-2.962,0.916-6.15,0.958-9.33,0.496C212.197-56.717,213.32-48.247,216.093-38.983"/>
			</g>
			<g id="g114" transform="translate(325.7646,406.5508)">
				<path id="path116" style="fill-rule:evenodd;clip-rule:evenodd;fill:#001414;" d="M221.485,117.63
					c-9.906,8.633-19.336,17.82-29.254,26.44c-21,18.252-46.444,31.093-73.218,38.419c-20.181,5.522-41.317,7.973-62.225,7.124
					c-20.243-0.825-41.537-4.86-59.839-13.777c-15.925-7.758-30.441-19.819-36.45-36.993c-2.774-7.932-3.511-16.127-2.288-24.431
					c2.968-20.09,16.987-38.533,31.735-52.559c12.724-12.1,26.018-20.987,39.866-23.075L21.454,62.59l-4.877,7.024
					c1.147,1.569,3.22,3.634,4.158,4.474c4.343,3.887,9.584,7.168,14.837,9.895l45.735,3.244
					c18.533,1.314,36.682-4.586,53.167-12.571c18.85-9.129,36.633-21.36,53.763-33.358c9.606-6.726,19.154-13.54,28.876-20.098
					c9.288-6.264,18.774-12.339,28.62-17.689c17.106-9.297,36.709-17.162,56.54-15.816c7.803,0.531,15.28,2.466,22.369,5.76
					l71.639,22.959l2.073,2.024c17.229,16.821,34.458,33.642,51.687,50.462l59.562,58.153l-73.82-38.473
					c-14.398-7.506-29.756-12.24-45.856-14.279c-18.575-2.354-37.453-1.033-55.774,2.607c-15.546,3.089-30.724,7.81-45.564,13.342
					c-12.466,4.648-24.671,9.957-36.976,15.01L221.485,117.63z"/>
			</g>
		</g>
	</g>
</g>
<g id="g118">
	<g id="g120">
		<g id="g126">
			<g id="g128">
				
					<linearGradient id="path138_00000018236206641827158300000014863978719363255951_" gradientUnits="userSpaceOnUse" x1="-460.9123" y1="1052.0154" x2="-459.6523" y2="1052.0154" gradientTransform="matrix(-7.1333 47.56 47.56 7.1333 -52793.7109 14945.2412)">
					<stop  offset="0" style="stop-color:#025D58"/>
					<stop  offset="0.0017" style="stop-color:#025D58"/>
					<stop  offset="1" style="stop-color:#06423F"/>
				</linearGradient>
				<path id="path138" style="fill:url(#path138_00000018236206641827158300000014863978719363255951_);" d="M523.424,456.311
					c-37.428,26.289-76.922,52.576-117.221,49.716l0,0c9.098,4.934,19.635,6.896,31.794,5.51l0,0
					c-51.912,16.723-118.616-23.834-107.349-40.064l0,0c-113.863,98.645,78.671,157.324,179.292,69.879l0,0
					c25.598-22.247,47.709-47.581,81.124-58.338l0,0c-6.493,3.486-15.324,12.115-18.349,17.434l0,0
					c41.337-16.974,119.988-55.052,194.511-16.209l0,0c-17.229-16.821-34.458-33.643-51.687-50.464l0,0l-69.648-22.321
					c-7.301-3.513-14.812-5.075-22.495-5.075l0,0C592.651,406.376,558.973,431.345,523.424,456.311"/>
			</g>
		</g>
	</g>
</g>
<g id="g140">
	<g id="g142">
		<g id="g148">
			<g id="g150">
				
					<linearGradient id="path160_00000176747431916344518180000014394255188050874528_" gradientUnits="userSpaceOnUse" x1="-461.5357" y1="1040.5908" x2="-460.2758" y2="1040.5908" gradientTransform="matrix(-196.1067 75.6933 75.6933 196.1067 -168628.5 -168687.7344)">
					<stop  offset="0" style="stop-color:#023284"/>
					<stop  offset="0.0192" style="stop-color:#023284"/>
					<stop  offset="1" style="stop-color:#02296B"/>
				</linearGradient>
				<path id="path160" style="fill:url(#path160_00000176747431916344518180000014394255188050874528_);" d="M575.224,426.127
					c-8.819,5.045-17.362,10.646-25.758,16.389l0,0l9.355,26.93c-16.381,8.986-32.326,18.961-47.689,29.24l0,0l12.105,25.823
					c13.654-12.519,27.1-24.795,42.862-34.105l0,0l-7.279-20.958c16.014-8.788,32.445-16.631,49.144-22.897l0,0l-6.212-32.726
					C592.344,416.919,583.297,421.509,575.224,426.127 M668.461,432.292c-15.334,1.157-30.855,4.455-46.378,9.369l0,0
					c-4.724,1.495-9.433,3.13-14.118,4.888l0,0l6.332,33.353c13.891-4.957,28.047-9.154,42.526-12.031l0,0
					c5.372-1.068,10.736-1.94,16.083-2.602l0,0L668.461,432.292c11.741-0.885,23.372-0.517,34.811,1.346l0,0l-36.195-11.6
					L668.461,432.292z M729.215,466.97c7.165,1.458,14.259,3.432,21.266,5.97l0,0l-21.308-20.806L729.215,466.97z M452.733,501.732
					l6.881,29.558c-21.909,9.999-45.802,15.075-68.466,15.085l0,0l0.108-29.101c-13.711-2.432-27.155-7.165-38.839-13.49l0,0
					c-2.206-1.193-4.453-2.498-6.669-3.914l0,0l-8.695,35.007c15.712,7.706,34.443,11.507,54.096,11.497l0,0l-0.126,34.057
					c19.023-0.047,38.248-3.046,56.332-8.714l0,0c6.783-2.127,13.441-4.642,19.915-7.544l0,0l-7.655-32.884
					c9.019-4.117,17.701-9.063,25.827-14.839l0,0c8.354-5.938,16.927-11.9,25.692-17.765l0,0l-10.514-22.43
					C485.733,485.965,469.567,495.359,452.733,501.732 M301.265,540.144c4.455,12.732,15.92,21.724,27.633,27.57l0,0l8.154-32.837
					c-13.157-6.454-24.199-15.647-31.898-27.634l0,0C299.755,517.657,297.349,528.95,301.265,540.144"/>
			</g>
		</g>
	</g>
</g>
<g id="g162">
	<g>
		<defs>
			<rect id="SVGID_00000109721945903166698900000009484137200127011229_" y="-207.143" width="1000" height="1414.285"/>
		</defs>
		<clipPath id="SVGID_00000040563711666807821020000013140941773635252670_">
			<use xlink:href="#SVGID_00000109721945903166698900000009484137200127011229_"  style="overflow:visible;"/>
		</clipPath>
		<g id="g164" style="clip-path:url(#SVGID_00000040563711666807821020000013140941773635252670_);">
			<g id="g170" transform="translate(177.3975,363.752)">
				<path id="path172" style="fill-rule:evenodd;clip-rule:evenodd;fill:#001414;" d="M120.611,232.326
					c18.709,9.827,43.294-1.922,54.914-26.238c11.618-24.318,5.871-51.994-12.838-61.82c-18.709-9.827-43.296,1.922-54.914,26.238
					C96.154,194.824,101.902,222.5,120.611,232.326"/>
			</g>
			<g id="g174" transform="translate(180.1641,369.542)">
				<path id="path176" style="fill-rule:evenodd;clip-rule:evenodd;fill:#025D58;" d="M122.492,216.81
					c14.576,7.657,33.731-1.497,42.782-20.443c9.053-18.944,4.574-40.507-10-48.163c-14.576-7.655-33.731,1.497-42.784,20.441
					C103.439,187.591,107.916,209.154,122.492,216.81"/>
			</g>
			<g id="g178" transform="translate(183.8076,383.0605)">
				<path id="path180" style="fill-rule:evenodd;clip-rule:evenodd;fill:#023284;" d="M124.97,180.581
					c8.453,4.44,19.562-0.87,24.812-11.857s2.653-23.492-5.801-27.933c-8.453-4.438-19.562,0.87-24.812,11.857
					C113.919,163.636,116.516,176.141,124.97,180.581"/>
			</g>
			<g id="g182" transform="translate(289.2798,462.2407)">
				<path id="path184" style="fill-rule:evenodd;clip-rule:evenodd;fill:#832929;" d="M196.679-31.613
					c0.071,4.675-1.416,8.858-3.288,12.922c0.025-9.807-2.243-17.998-7.722-23.932c0.24,41.764-16.36,67.347-52.414,74.245
					c36.901-16.871,39.711-37.186,16.056-60.174c2.632,10.187,2.594,20.753-1.91,31.96c-0.83-9.033-3.862-16.859-10.094-22.937
					c6.849,24.454-2.004,37.299-19.42,43.81c8.643-15.475,8.257-30.092,4.052-44.346c-3.39,21.417-6.217,43.776-28.651,52.097
					c-9.241,3.429-20.636,6.573-29.842,16.7c8.991-23.799,43.125-28.987,41.519-59.851c-4.41,6.041-8.818,12.082-13.227,18.121
					c0.324-11.522,2.81-22.425,7.417-32.724C84.499-13.796,86.742,28.334,61.154,28.181c25.323-12.875,9.787-47.553,32.111-65.603
					c6.222-5.031,12.666-6.652,19.124-6.305l3.252,7.57l7.518-5.403c5.95,1.95,11.806,4.91,17.4,7.731l-0.842-6.347
					c6.244,0.781,11.311,3.274,15.312,7.318c5.609-5.945,6.355-13.301,5.638-21.081c12.44,5.907,22.316,5.792,31.288,2.523
					c5.745,4.183,8.494,9.725,10.857,15.443c0.665-15.425-1.727-30.117-7.585-44.116c2.191-2.523,4.383-5.046,6.575-7.57
					c5.046,17.076,30.813,41.109-0.23,84.257C203.431-15.421,202.981-25.712,196.679-31.613"/>
			</g>
			<g id="g186" transform="translate(237.6865,478.2207)">
				<path id="path188" style="fill-rule:evenodd;clip-rule:evenodd;fill:#EEC99D;" d="M161.601-74.438
					c1.818-0.87,5.582-3.375,7.171-3.041c3.153,0.665,2.735,3.185,7.151,1.231c3.931-1.737,4.195-1.157,7.225,0.543l0.222,0.077
					l7.353,2.595l2.186,0.771c0.171,0.057,0.669,0.264,0.848,0.307l6.044,0.118c0.072,0.161,0.111,0.338,0.119,0.527
					c1.21-1.495,1.868-2.975,1.435-3.928l-6.74-0.131c-0.089-0.022-0.252-0.082-0.422-0.144c-0.205-0.079-0.42-0.163-0.524-0.198
					l-6.861-2.421l-4.022-1.42c-3.38-1.897-3.674-2.543-8.058-0.605c-4.924,2.179-4.457-0.632-7.974-1.374
					c-0.22-0.047-0.477-0.044-0.764-0.002c-2.016,0.296-5.458,2.543-7.232,3.393c-3.157,1.51-5.115,2.112-5.134,5.925
					c-0.002,0.373,0.015,0.776,0.052,1.213c0.274,3.326,1.734,4.492,3.64,4.541c-0.131-0.452-0.223-0.974-0.274-1.576
					C156.681-72.445,158.495-72.951,161.601-74.438"/>
			</g>
			<g id="g190" transform="translate(319.4756,590.7783)">
				<path id="path192" style="fill-rule:evenodd;clip-rule:evenodd;fill:#001414;" d="M217.209-376.08
					c6.081,5.199,11.779,13.07,16.307,21.671l22.715,14.444c7.904,5.781,13.102,13.404,15.818,22.64l1.49,5.067
					c3.961,1.688,7.78,3.55,11.322,5.641c1.624,0.958,3.041,2.219,4.169,3.713c5.431,7.18,26.633,21.192,30.12,29.427
					c1.609,3.803,4.959,8.843,3.081,12.525c-0.905,1.777-1.814,3.555-2.72,5.332c-1.463,2.873-5.562,4.784-9.478,5.918
					c-6.415,7.282-14.719,12.839-26.075,15.615c-0.139,0.034-0.228,0.16-0.217,0.299c0.013,0.139,0.126,0.247,0.269,0.255
					c2.812,0.183,5.628,0.368,8.443,0.553c0.097,0.007,0.176,0.054,0.228,0.136c0.05,0.082,0.055,0.175,0.017,0.26
					c-4.457,9.696-16.503,17.313-26.445,21.491c-10.308,5.641-14.862,14.808-25.172,20.451
					c-5.273-22.801-10.546-45.602-15.821-68.404l8.265-2.315c-7.022-0.939-13.528-2.149-20.612-5.807
					c-2.587-1.337-4.623-3.365-5.955-5.757c-15.988-1.052-31.785-6.283-47.039-14.565c-4.482-2.432-7.176-6.908-7.45-11.652
					c-7.59-0.593-15.185-0.959-22.821-0.823c-17.995,0.323-34.46,3.445-50.131,10.105c2.382,5.534,0.954,12.031-3.667,16.105
					c-1.322,1.164-2.671,2.281-4.049,3.355c0.316,3.854-0.979,7.753-3.731,10.716c-7.539,8.119-29.03,14.246-40.101,13.038
					c-8.351-0.909-23.172-6.79-29.163-12.112c-8.74-7.766-15.181-16.483-13.333-28.222l0.21-1.33l0.465-1.267
					c0.234-0.638,0.491-1.267,0.761-1.89c2.466-5.675,2.182-4.697,6.547-8.86c9.646-9.199,24.379-18.101,35.684-25.492
					C63.247-386.85,142.96-421.982,217.209-376.08"/>
			</g>
		</g>
	</g>
</g>
<g id="g194">
	<g id="g196">
		<g id="g202">
			<g id="g204">
				
					<linearGradient id="path214_00000061467215495775815430000015082879479814975900_" gradientUnits="userSpaceOnUse" x1="-457.9586" y1="1048.8048" x2="-456.6986" y2="1048.8048" gradientTransform="matrix(14.2667 58.48 58.48 -14.2667 -54358.0742 41963.5312)">
					<stop  offset="0" style="stop-color:#023284"/>
					<stop  offset="0.0192" style="stop-color:#023284"/>
					<stop  offset="1" style="stop-color:#02296B"/>
				</linearGradient>
				<path id="path214" style="fill:url(#path214_00000061467215495775815430000015082879479814975900_);" d="M367.72,261.852
					c-0.003,0.008-0.007,0.012-0.012,0.02l0,0c-0.625,0.983-1.295,1.927-2.006,2.836l0,0c10.572-6.064,21.242-11.837,32.158-16.908
					l0,0c0.114-0.055,0.178-0.173,0.158-0.297l0,0c-1.668-10.303,18.988-16.967,32.934-22.549l0,0
					c0.139-0.055,0.294,0.003,0.361,0.134l0,0c0.067,0.131,0.02,0.291-0.111,0.365l0,0c-8.127,4.673-15.843,10.414-23.109,17.315
					l0,0c-0.101,0.096-0.114,0.25-0.03,0.365l0,0c0.084,0.113,0.24,0.146,0.366,0.077l0,0c11.05-5.982,22.173-10.409,33.343-13.79
					l0,0c0.134-0.04,0.281,0.022,0.341,0.148l0,0c0.06,0.124,0.018,0.274-0.099,0.351l0,0
					c-13.627,8.959-31.244,15.668-42.925,25.279l0,0c-0.106,0.089-0.133,0.232-0.066,0.349l0,0c0.066,0.119,0.203,0.173,0.336,0.133
					l0,0c23.776-7.402,43.298-25.593,66.05-28.625l0,0c0.143-0.018,0.277,0.069,0.312,0.208l0,0
					c0.037,0.138-0.037,0.281-0.173,0.329l0,0c-10.866,4.017-21.657,8.571-32.293,14.266l0,0c-0.126,0.066-0.181,0.212-0.129,0.343
					l0,0c0.05,0.131,0.19,0.205,0.329,0.173l0,0c10.368-2.375,20.727-4.715,30.9-5.764l0,0c0.108-0.01,0.207,0.035,0.267,0.124l0,0
					c0.059,0.087,0.066,0.193,0.013,0.287l0,0c-1.342,2.438-4.526,3.891-3.412,7.642l0,0c0.044,0.144-0.039,0.297-0.183,0.344l0,0
					c-29.855,9.471-82.906,20.167-88.576,34.759l0,0L322.41,301.41c-0.163,0.378-0.323,0.759-0.465,1.151l0,0
					c-2.977,18.916,25.491,27.547,27.07,27.718l0,0c6.184,0.674,23.651-3.86,28.022-8.569l0,0c0.079-0.086,0.097-0.203,0.047-0.306
					l0,0c-0.049-0.104-0.151-0.166-0.267-0.161l0,0c-4.383,0.163-8.714,0.208-12.703-0.539l0,0c-0.124-0.025-0.215-0.121-0.23-0.244
					l0,0c-0.013-0.123,0.054-0.237,0.17-0.286l0,0c9.129-3.916,16.093-8.515,21.773-13.52l0,0c0.097-0.086,0.123-0.223,0.06-0.338
					l0,0c-0.062-0.114-0.193-0.17-0.321-0.139l0,0c-13.987,3.509-45.24,5.935-54.603,0.267l0,0c-0.007-0.005-0.015-0.01-0.024-0.017
					l0,0c-5.545-4.19,14.069-2.831,23.836-6.572l0,0c10.832-4.144,15.767-1.97,16.843-0.472l0,0c0.091,0.123,0.26,0.155,0.39,0.071
					l0,0c53.904-34.624,104.951-19.362,138.304-18.657l0,0c0.025,0,0.049,0.005,0.072,0.01l0,0
					c15.517,4.316,31.033,8.631,46.55,12.945l0,0c0.124,0.035,0.21,0.146,0.207,0.274l0,0c-0.003,0.129-0.091,0.237-0.22,0.265l0,0
					c-13.019,3.034-27.806,2.639-45.066-2.575l0,0c-0.131-0.039-0.272,0.018-0.336,0.139l0,0c-0.064,0.119-0.032,0.264,0.079,0.348
					l0,0c1.487,1.132,2.972,2.266,4.457,3.398l0,0c0.101,0.077,0.136,0.202,0.094,0.316l0,0c-0.044,0.116-0.153,0.188-0.279,0.183
					l0,0c-9.962-0.38-19.695-2.696-29.366-5.518l0,0c-0.143-0.04-0.289,0.029-0.344,0.16l0,0c-0.057,0.133-0.003,0.284,0.124,0.353
					l0,0c29.511,16.02,55.119,16.463,77.947,5.796l0,0c0.087-0.042,0.178-0.039,0.264,0.007l0,0l27.323,15.116
					c0.074,0.039,0.119,0.102,0.139,0.181l0,0c0.017,0.082,0,0.158-0.049,0.225l0,0c-1.26,1.702-4.247,2.456-9.748,1.833l0,0
					c-0.02-0.002-0.035-0.005-0.054-0.01l0,0c-6.835-2.08-13.673-4.163-20.51-6.242l0,0c-0.052-0.015-0.099-0.017-0.149-0.005l0,0
					c-7.581,1.776-15.003,2.632-22.301,2.758l0,0c-0.129,0.002-0.24,0.087-0.27,0.213l0,0c-0.03,0.124,0.029,0.25,0.144,0.311l0,0
					c9.685,5.004,20.216,4.21,30.305,6.452l0,0c0.01,0.003,0.018,0.005,0.03,0.007l0,0c12.011,1.386,27.528,5.525,36.086,4.201l0,0
					c0.094-0.013,0.168-0.067,0.21-0.151l0,0c0.906-1.777,1.813-3.556,2.72-5.332l0,0c0.039-0.076,0.042-0.155,0.01-0.232l0,0
					c-2.807-6.629-6.179-13.29-11.291-20.048l0,0c-0.022-0.03-0.047-0.052-0.081-0.074l0,0c-8.678-5.12-20.879-9.201-33.687-13.096
					l0,0c-0.091-0.027-0.178-0.012-0.254,0.042l0,0c-0.076,0.057-0.118,0.136-0.116,0.228l0,0c0.025,1.458-0.155,2.787-0.44,4.052
					l0,0c-0.027,0.131-0.138,0.218-0.274,0.22l0,0c-0.134,0.002-0.249-0.087-0.277-0.213l0,0
					c-2.407-9.898-5.54-19.571-11.139-28.484l0,0c-0.072-0.113-0.207-0.161-0.331-0.119l0,0c-0.128,0.04-0.207,0.158-0.195,0.289
					l0,0c0.245,2.847-0.227,5.396-1.199,7.736l0,0c-0.05,0.119-0.17,0.188-0.301,0.171l0,0c-0.131-0.017-0.228-0.114-0.245-0.242
					l0,0c-1.797-14.524-12.082-33.68-21.207-41.482l0,0c-13.275-11.348-29.423-13.936-44.208-17.422l0,0
					c-4.715-0.907-9.765-1.378-15.054-1.378l0,0C436.87,206.403,397.258,222.766,367.72,261.852 M435.239,228.299
					c-0.064-0.118-0.037-0.259,0.067-0.346l0,0c12.369-10.252,25.738-10.513,38.9-14.55l0,0c0.139-0.044,0.289,0.023,0.346,0.155
					l0,0c0.057,0.131,0.007,0.282-0.121,0.353l0,0c-2.096,1.174-4.191,2.35-6.289,3.524l0,0c-0.118,0.067-0.17,0.2-0.129,0.326l0,0
					c0.04,0.128,0.163,0.207,0.297,0.195l0,0c4.418-0.413,8.838-0.827,13.254-1.238l0,0c0.091-0.01,0.163-0.052,0.212-0.126l0,0
					c0.049-0.074,0.062-0.158,0.032-0.24l0,0c-0.153-0.452-0.307-0.905-0.462-1.357l0,0c-0.03-0.091-0.015-0.185,0.047-0.26l0,0
					c0.06-0.076,0.148-0.114,0.247-0.106l0,0c3.214,0.254,7.906,0.544,12.881,1.64l0,0c7.363,1.623,15.347,4.447,20.093,6.688l0,0
					c2.343,1.109,4.395,2.029,6.184,3.318l0,0c4.161,2.995,6.943,6.681,8.949,10.362l0,0c0.062,0.116,0.037,0.252-0.059,0.338l0,0
					c-0.097,0.087-0.239,0.097-0.348,0.027l0,0c-35.834-23.139-53.748-17.696-73.342-13.165l0,0
					c-6.516,1.505-11.929,2.13-20.426,4.6l0,0c-0.029,0.008-0.057,0.013-0.082,0.013l0,0
					C435.385,228.447,435.289,228.392,435.239,228.299 M349.635,284.601c4.072-3.815,8.782-5.755,13.595-8.003l0,0
					c-0.444-0.215-1.047-0.316-1.752-0.316l0,0C357.33,276.282,349.635,279.815,349.635,284.601"/>
			</g>
		</g>
	</g>
</g>
<g id="g216">
	<g>
		<defs>
			<rect id="SVGID_00000128452667019953997770000014021934393633992380_" y="-207.143" width="1000" height="1414.285"/>
		</defs>
		<clipPath id="SVGID_00000166653178290237266070000016224914703119187097_">
			<use xlink:href="#SVGID_00000128452667019953997770000014021934393633992380_"  style="overflow:visible;"/>
		</clipPath>
		<g id="g218" style="clip-path:url(#SVGID_00000166653178290237266070000016224914703119187097_);">
			<g id="g224" transform="translate(302.417,587.4727)">
				<path id="path226" style="fill-rule:evenodd;clip-rule:evenodd;fill:#025D58;" d="M205.611-367.221
					c2.52,0.921,4.786,1.855,6.585,2.705c1.992,0.941,3.773,1.747,5.361,2.76c-0.02-1.95-0.05-3.906-0.091-5.868
					c-3.785-2.268-7.722-4.038-11.727-5.49C205.705-371.144,205.663-369.18,205.611-367.221 M295.984-289.515l-0.146,7.484
					l-0.208,10.565l-0.118,6.033c2.826,0.22,5.384,0.228,7.511-0.101c0.094-0.015,0.168-0.067,0.21-0.151l1.734-3.4l0.986-1.934
					c0.039-0.074,0.042-0.155,0.008-0.232c-1.646-3.891-3.489-7.791-5.762-11.719C298.941-285.144,297.548-287.324,295.984-289.515
					 M243.622-317.975c-0.506,7.403-1.774,14.234-4.089,20.088l14.88,4.138l4.71-0.615c0.2-1.937,0.321-3.928,0.371-5.964
					c-1.1-4.517-2.357-8.984-3.933-13.355c-1.855-5.144-4.149-10.152-7.158-14.941c-0.071-0.111-0.205-0.16-0.333-0.118
					c-0.126,0.04-0.205,0.158-0.193,0.287c0.247,2.849-0.228,5.397-1.199,7.738c-0.05,0.119-0.17,0.186-0.301,0.171
					c-0.131-0.018-0.228-0.116-0.245-0.244c-0.289-2.328-0.796-4.776-1.48-7.276c-0.262-0.097-0.524-0.193-0.79-0.289
					c-8.473-3.062-17.375-5.413-26.697-7.049v-0.002c0.097-2.273,0.176-4.556,0.239-6.852c10.147,2.402,18.973,6.326,26.41,11.779
					c-0.005-0.15-0.01-0.299-0.013-0.449c-3.227-10.032-9.018-20.506-14.899-27.325c-0.806,1.273-2.881,1.713-5.69,1.446
					c1.673,1.913,3.012,3.941,4.116,5.967c0.062,0.114,0.037,0.25-0.059,0.338c-0.097,0.086-0.239,0.097-0.348,0.027
					c-0.141-0.092-0.284-0.183-0.423-0.274c-2.977-0.937-5.949-1.745-8.917-2.431v-0.002l-0.133-0.03l-0.06-0.013l-0.007-0.002
					l-0.385-0.087l-0.081-0.018l-0.113-0.025l-0.193-0.042l-0.195-0.044l-0.03-0.007l-0.165-0.037l-0.195-0.042l-0.171-0.037
					l-0.022-0.005l-0.388-0.082l-0.121-0.025l-0.531-0.109l-0.126-0.027l-0.39-0.077l-0.017-0.003l-0.176-0.035l-0.193-0.039
					l-0.161-0.032l-0.035-0.007l-0.193-0.037l-0.193-0.039l-0.108-0.02l-0.087-0.015l-0.193-0.037l-0.195-0.037l-0.057-0.01
					l-0.138-0.025l-0.193-0.035l-0.193-0.035l-0.005-0.002l-0.192-0.034l-0.193-0.034l-0.148-0.027l-0.045-0.008l-0.195-0.034
					l-0.193-0.034l-0.096-0.015l-0.099-0.017l-0.388-0.066l-0.044-0.007l-0.15-0.025l-0.195-0.032l-0.185-0.029l-0.008-0.002
					l-0.195-0.032l-0.193-0.03l-0.134-0.02l-0.06-0.01l-0.47-0.072l-0.111-0.017l-0.388-0.057l-0.03-0.005l-0.489-0.069
					l-0.042-0.007l-0.018-0.002l-0.195-0.027l-0.193-0.029l-0.123-0.015l-0.072-0.01l-0.388-0.052l-0.071-0.01h-0.012l-0.497-0.066
					l-0.018-0.002l-0.175-0.024l-0.195-0.022l-0.16-0.02l-0.034-0.005h-0.003l-0.58-0.069v0.002
					c-4.206-0.487-8.405-0.729-12.594-0.734c-0.993-0.002-1.986,0.032-2.978,0.091c0.228-3.492,0.386-7.051,0.482-10.667
					c-3.8-0.697-7.363-0.994-10.761-1.006c-0.158,4.521-0.415,8.949-0.788,13.266c-5.517,1.132-11.018,2.582-16.508,3.516
					c0.079,0.01,0.146,0.054,0.193,0.121c0.059,0.087,0.064,0.193,0.013,0.287c-1.342,2.439-4.526,3.892-3.412,7.643
					c0.044,0.144-0.039,0.297-0.183,0.343c-1.191,0.378-2.417,0.758-3.676,1.139c-2.641,0.801-5.424,1.611-8.309,2.431
					c-0.296,1.218-0.595,2.439-0.89,3.659l0,0c-1.505,0.227-3.019,0.464-4.539,0.716c-4.148,0.689-8.315,1.613-12.53,2.668
					c0.101-0.709,0.202-1.418,0.302-2.125c-4.087,1.137-8.21,2.298-12.277,3.486c-0.091,0.642-0.178,1.283-0.267,1.927
					c-7.761,2.16-15.757,4.403-24.147,6.105c-7.864,3.052-14.371,6.29-18.38,9.757c-1.87,1.616-3.193,3.281-3.862,4.999
					l-6.175,2.671l-3.968,1.715l-1.003,13.765c6.345-1.243,9.466,0.312,10.296,1.467c0.072,0.101,0.198,0.139,0.311,0.106
					c0.954-6.434,2.345-12.745,3.486-19.127c13.359-3.353,27.234-8.047,42.256-12.231c-0.497,4.144-0.944,8.322-1.325,12.545
					c4.054-0.929,8.063-1.658,12.023-2.219c0.428-4.549,0.932-9.046,1.49-13.51c5.223-1.262,10.59-2.412,16.127-3.383
					c-1.231,5.618-2.189,10.941-2.448,15.485c4.032-0.188,7.996-0.237,11.882-0.181c0.81-4.754,1.371-10.755,2.196-17.022
					c6.236-0.748,12.687-1.23,19.381-1.364c-1.631,6.819-3.723,13.202-6.357,19.075c4.028,0.289,7.951,0.642,11.753,1.008
					c2.543-6.159,4.531-12.839,6.051-19.964c5.471,0.22,11.101,0.682,16.908,1.436c-0.79,6.921-1.767,13.72-2.95,20.377
					c2.733,0.193,5.374,0.331,7.909,0.385l0.072,0.01l6.654,1.85c0.857-6.664,1.51-13.458,1.981-20.362
					C225.224-323.454,234.215-321.095,243.622-317.975 M203.928-337.217c-5.282-0.531-10.687-0.847-16.218-0.951v-0.002
					c0.344-2.263,0.647-4.563,0.914-6.898c5.552-0.092,10.849,0.126,15.883,0.653c-0.175,2.411-0.366,4.81-0.58,7.195V-337.217z
					 M176.447-338.094c-6.452,0.205-13.065,0.684-19.833,1.435v-0.002c0.331-1.752,0.702-3.486,1.122-5.186
					c6.847-1.235,13.416-2.117,19.698-2.646C177.139-342.327,176.811-340.192,176.447-338.094 M42.027-258.65l22.536-7.716
					c-0.973-0.097-1.929-0.228-2.866-0.405c-0.124-0.024-0.215-0.119-0.23-0.244c-0.013-0.123,0.054-0.235,0.17-0.286
					c2.429-1.042,4.704-2.132,6.844-3.266c-0.015-0.296-0.029-0.591-0.04-0.887c-0.094-2.481-0.055-4.925,0.087-7.341
					c-3.372,0.391-6.919,0.702-10.471,0.9l-0.719,9.863l-5.408,1.666c-4.148-3.699-6.778-7.514-8.067-11.43
					c-3.882-0.203-7.422-0.632-10.316-1.337c1.179,5.473,4.821,10.478,11.398,14.919l-9.092,2.802
					C38.106-260.244,40.251-259.325,42.027-258.65 M33.142-284.302c2.802-0.378,6.342-0.697,9.851-1.191
					c0.37-4.091,1.996-8.277,4.694-12.544l-12.724,5.5C33.894-289.703,33.271-286.956,33.142-284.302 M268.651-302.05l1.24,15.798
					l12.76,7.059l0.052-0.01l0.428-17.683C278.641-298.707,273.748-300.41,268.651-302.05 M279.689-273.231l-10.162-3.091
					l-2.522,6.594c3.84,0.447,8.035,1.171,12.245,1.908l3.18-5.196c-0.821-0.027-1.717-0.094-2.69-0.203L279.689-273.231z
					 M155.537-350.05c1.66-0.249,3.316-0.47,4.967-0.659c0.978-3.032,1.744-6.093,2.424-9.098c-4.25,1.574-8.49,3.23-12.713,5.006
					c-0.395,1.942-0.8,3.901-1.225,5.854C151.178-349.352,153.36-349.724,155.537-350.05 M150.742-357.377
					c4.005-1.418,8.074-2.486,12.251-3.042c0.024-0.003,0.049-0.003,0.072,0c0.427-1.905,0.821-3.785,1.218-5.618
					c-3.592,0.709-7.121,1.569-10.706,2.397c-0.536,0.124-1.065,0.242-1.589,0.356C151.561-361.352,151.151-359.376,150.742-357.377
					 M153.504-369.528c4.075-1.085,8.183-1.92,12.29-2.918c0.842-3.158,1.831-6.058,3.178-8.562
					c-3.644-0.138-7.413-0.047-11.28,0.284C155.954-377.489,154.628-373.679,153.504-369.528 M179.502-379.915
					c0.005,2.385-0.012,4.747-0.055,7.087c2.777,0.217,6.592,0.472,10.719,1.231c0.022-1.96,0.027-3.936,0.017-5.927
					c-3.188-0.744-6.357-1.436-9.463-2.169C180.315-379.769,179.91-379.844,179.502-379.915"/>
			</g>
			<g id="g228" transform="translate(302.417,587.4727)">
				<path id="path230" style="fill-rule:evenodd;clip-rule:evenodd;fill:#023D3A;" d="M205.611-367.221
					c2.52,0.921,4.786,1.855,6.585,2.705c1.992,0.941,3.773,1.747,5.361,2.76c-0.02-1.95-0.05-3.906-0.091-5.868
					c-3.785-2.268-7.722-4.038-11.727-5.49C205.705-371.144,205.663-369.18,205.611-367.221 M98.138-347.118
					c-9.125,3.548-17.483,7.793-25.437,12.408c-2.525,2.881-4.994,5.912-7.397,9.09l-0.013,0.018
					c-0.623,0.984-1.295,1.927-2.006,2.837c10.57-6.064,21.242-11.838,32.157-16.91c0.116-0.054,0.18-0.171,0.16-0.296
					C95.18-342.571,96.181-344.939,98.138-347.118 M255.563-313.683c-1.855-5.144-4.149-10.152-7.158-14.941
					c-0.071-0.111-0.205-0.16-0.333-0.118c-0.126,0.04-0.205,0.158-0.193,0.287c0.247,2.849-0.228,5.397-1.199,7.738
					c-0.05,0.119-0.17,0.186-0.301,0.171c-0.131-0.018-0.228-0.116-0.245-0.244c-0.289-2.328-0.796-4.776-1.48-7.276
					c-0.262-0.097-0.524-0.193-0.79-0.289c0.06,3.553-0.012,7.025-0.242,10.378C247.53-316.679,251.509-315.251,255.563-313.683
					 M295.838-282.031l-0.208,10.565l9.337,2.38l0.986-1.934c0.039-0.074,0.042-0.155,0.008-0.232
					c-1.646-3.891-3.489-7.793-5.762-11.719L295.838-282.031z M72.999-307.112c0.333-1.858,0.642-3.721,0.916-5.596
					c-1.87,1.616-3.193,3.281-3.862,4.999l-6.175,2.671C66.896-305.643,69.933-306.342,72.999-307.112 M116.441-328.569
					c-0.417,3.062-0.815,6.135-1.186,9.226c3.978-1.11,8.037-2.182,12.188-3.183c0.39-3.125,0.806-6.232,1.24-9.33
					C124.652-330.847,120.58-329.72,116.441-328.569 M145.752-335.24c-0.763,3.145-1.512,6.281-2.182,9.33
					c3.797-0.667,7.669-1.248,11.63-1.724c0.393-2.982,0.847-6.026,1.414-9.026C153.037-336.264,149.415-335.791,145.752-335.24
					 M176.447-338.094c-0.539,3.109-1.159,6.145-1.865,9.097c3.736-0.076,7.551-0.04,11.445,0.118
					c0.643-3.019,1.203-6.117,1.683-9.29C184.011-338.238,180.257-338.213,176.447-338.094 M203.928-337.219
					c-0.292,3.286-0.622,6.547-0.993,9.782c4.452,0.576,9.006,1.322,13.666,2.254c0.232-3.38,0.418-6.788,0.566-10.222
					C212.845-336.162,208.432-336.768,203.928-337.219 M213.201-354.102c-0.025-0.003-0.049-0.008-0.071-0.013
					c-0.005,0-0.012-0.002-0.017-0.002L213.201-354.102z M204.507-344.415c4.511,0.47,8.813,1.191,12.898,2.159
					c0.101-3.617,0.158-7.257,0.176-10.923c0.005-0.968,0.007-1.94,0.007-2.913c-4.314-2.396-8.344-4.343-12.142-5.907
					c-0.081,2.231-0.173,4.457-0.284,6.669C204.985-351.664,204.766-348.025,204.507-344.415 M188.624-345.067
					c0.405-3.556,0.726-7.193,0.966-10.904c-3.696,0.223-7.385,0.837-11.067,1.593c-0.292,3.363-0.653,6.661-1.089,9.886
					C181.271-344.817,185.002-345.007,188.624-345.067 M162.928-359.806c-4.25,1.574-8.488,3.23-12.713,5.006
					c-0.395,1.942-0.8,3.901-1.225,5.854c2.187-0.407,4.369-0.778,6.547-1.104c1.66-0.249,3.316-0.47,4.967-0.659
					C161.482-353.74,162.248-356.801,162.928-359.806 M150.743-357.377c4.005-1.418,8.074-2.486,12.251-3.042
					c0.024-0.003,0.049-0.003,0.072,0c0.427-1.905,0.821-3.785,1.218-5.618c-3.592,0.709-7.121,1.569-10.706,2.397
					c-0.531,0.124-1.055,0.24-1.574,0.353l-0.015,0.003C151.561-361.352,151.151-359.376,150.743-357.377 M165.794-372.446
					c0.842-3.158,1.831-6.058,3.178-8.562c-3.644-0.138-7.413-0.047-11.28,0.284c-1.739,3.235-3.064,7.045-4.188,11.197
					C157.58-370.613,161.687-371.448,165.794-372.446 M190.166-371.596c0.022-1.96,0.027-3.936,0.017-5.927
					c-3.188-0.744-6.357-1.436-9.463-2.169c-0.405-0.077-0.81-0.153-1.218-0.223c0.005,2.385-0.012,4.747-0.055,7.087
					C182.224-372.611,186.039-372.355,190.166-371.596"/>
			</g>
			<g id="g232" transform="translate(236.0479,580.103)">
				<path id="path234" style="fill-rule:evenodd;clip-rule:evenodd;fill:#025D58;" d="M160.487-347.471
					c36.15-15.257,60.08-26.989,89.021-24.288c-0.81-0.186-1.618-0.373-2.419-0.561
					C222.892-376.984,189.976-370.093,160.487-347.471"/>
			</g>
			<g id="g236" transform="translate(347.7686,550.7578)">
				<path id="path238" style="fill-rule:evenodd;clip-rule:evenodd;fill:#025D58;" d="M236.445-268.829
					c-1.739-6.031-4.936-11.49-10.837-15.893v10.835C230.381-272.861,233.438-270.86,236.445-268.829"/>
			</g>
			<g id="g240" transform="translate(247.7354,537.9473)">
				<path id="path242" style="fill-rule:evenodd;clip-rule:evenodd;fill:#EEC99D;" d="M168.434-234.499
					c-7.227,3.602-14.454,7.202-21.682,10.803c4.895,3.498,9.792,6.993,14.687,10.491c0.074,0.054,0.161,0.067,0.249,0.042
					c0.089-0.025,0.153-0.086,0.188-0.17c0.783-1.95,1.567-3.899,2.352-5.849c0.05-0.128,0.18-0.2,0.316-0.176
					c0.134,0.022,0.234,0.134,0.24,0.27c0.104,2.174,0.208,4.349,0.314,6.523c0.003,0.074,0.029,0.134,0.081,0.186
					c0.534,0.558,1.072,1.117,1.608,1.677c0.091,0.094,0.108,0.232,0.04,0.346c-4.524,7.761-9.05,15.522-13.575,23.283
					c-1.354,1.446-2.706,2.893-4.06,4.337c-0.951,1.016-1.05,2.525-0.24,3.657c2.049,2.868,4.658,4.863,7.969,5.769
					c6.573-1.129,13.31-2.001,18.077-5.977c0.086-0.071,0.191-0.089,0.294-0.047c0.102,0.042,0.166,0.129,0.178,0.237
					c0.487,4.576,3.876,5.392,6.625,4.742c7.869-1.86,2.192-11.249-0.425-15.544c-0.072-0.116-0.052-0.262,0.045-0.358
					c0.097-0.094,0.244-0.109,0.359-0.035c6.019,3.911,11.05,8.394,14.986,13.52c0.066,0.084,0.079,0.19,0.037,0.289
					c-0.04,0.097-0.126,0.161-0.232,0.175c-2.409,0.282-4.82,0.566-7.227,0.85c-0.138,0.015-0.242,0.121-0.254,0.259
					c-0.013,0.136,0.067,0.26,0.198,0.302c4.82,1.54,8.903,3.644,12.351,6.231c0.077,0.059,0.17,0.074,0.262,0.045
					c0.092-0.03,0.158-0.096,0.186-0.188c0.274-0.879,0.546-1.755,0.82-2.634c0.03-0.096,0.099-0.163,0.195-0.191
					c0.096-0.027,0.191-0.007,0.267,0.057c16.55,13.873,12.404,24.609,31.249,38.181c-2.458-9.001-1.497-14.314-6.404-23.519
					c-0.06-0.111-0.042-0.244,0.045-0.336c10.116-10.55,18.042-22.806,24.55-36.161c0.05-0.101,0.039-0.21-0.027-0.301
					c-2.303-3.101-4.608-6.204-6.913-9.305c-0.079-0.109-0.076-0.254,0.01-0.358c0.087-0.104,0.228-0.134,0.349-0.076
					c4.529,2.206,9.056,4.413,13.584,6.619c0.072,0.034,0.123,0.091,0.148,0.166c0.025,0.074,0.022,0.148-0.015,0.22
					c-3.758,7.667-7.518,15.334-11.277,23.001c-0.067,0.138-0.015,0.304,0.119,0.38c0.133,0.074,0.301,0.032,0.383-0.096
					c4.826-7.444,9.656-14.891,14.482-22.334c0.059-0.089,0.064-0.193,0.015-0.289c-3.529-6.963-7.061-13.928-10.59-20.889
					c-0.057-0.109-0.04-0.235,0.042-0.326c0.082-0.089,0.205-0.119,0.319-0.074c1.127,0.44,2.256,0.88,3.383,1.322
					c0.118,0.045,0.245,0.012,0.328-0.084c0.081-0.097,0.091-0.228,0.025-0.336c-2.565-4.213-4.747-8.64-5.693-13.752
					c-0.027-0.153-0.168-0.255-0.321-0.235c-1.589,0.213-3.178,0.427-4.766,0.64c-0.057,0.008-0.108,0-0.16-0.024
					c-11.89-5.534-21.781-13.377-34.016-14.355c-12.112-0.968-25.104,1.808-38.989,8.383c-0.062,0.03-0.106,0.072-0.136,0.134
					c-0.763,1.551-1.529,3.101-2.293,4.653c-0.049,0.101-0.146,0.161-0.26,0.161c-0.113-0.002-0.21-0.062-0.259-0.163
					c-0.585-1.213-1.171-2.426-1.757-3.639c-0.034-0.072-0.089-0.121-0.166-0.148C168.58-234.539,168.506-234.534,168.434-234.499
					 M191.779-206.71c-7.943-1.965-15.174-7.988-22.408-14.004c-0.131-0.109-0.202-0.252-0.208-0.422s0.052-0.319,0.175-0.438
					c3.944-3.832,8.284-7.02,13.115-9.404c0.213-0.106,0.454-0.074,0.633,0.082c0.18,0.155,0.245,0.388,0.171,0.615
					c-0.501,1.534-1,3.069-1.5,4.603c-0.071,0.217-0.015,0.442,0.151,0.598c0.165,0.158,0.39,0.203,0.603,0.121
					c11.991-4.566,23.539-7.916,34.767-10.385c7.089,2.698,12.51,6.594,17.051,11.126c-6.847-3.23-13.708-5.982-20.758-2.026
					c-5.455,2.747-10.308,5.779-14.56,9.092c-0.222,0.173-0.287,0.472-0.158,0.721c0.129,0.25,0.41,0.37,0.679,0.289
					c6.941-2.081,13.785-2.364,20.69-3.756c3.823,2.345,7.647,4.689,11.47,7.034c-3.607,1.606-7.213,3.212-10.82,4.818
					c-3.504-3.671-15.265-8.03-17.965-2.525c3.664-2.053,10.168,2.066,4.43,4.348c-2.421,0.961-5.377,1.876-6.264,2.135
					c-4.611,1.344-9.758,2.827-10.82,5.942C188.658-202.339,193.793-205.405,191.779-206.71"/>
			</g>
			<g id="g244" transform="translate(267.8584,503.4961)">
				<path id="path246" style="fill-rule:evenodd;clip-rule:evenodd;fill:#F2B67F;" d="M182.115-142.173
					c-2.859-4.618-12.769-18.422-17.231-11.657c4.736,3.417,8.774,7.242,12.053,11.511c0.066,0.084,0.079,0.188,0.037,0.287
					c-0.04,0.099-0.126,0.163-0.232,0.175l-7.227,0.85c-0.138,0.017-0.242,0.123-0.254,0.26c-0.013,0.136,0.067,0.26,0.198,0.302
					c4.82,1.54,8.903,3.644,12.351,6.231c0.077,0.059,0.17,0.074,0.262,0.045c0.092-0.03,0.158-0.096,0.186-0.19l0.299-0.958
					c0.264-1.624,0.365-3.235,0.279-4.835C178.545-140.15,179.086-140.66,182.115-142.173 M170.129-163.696
					c8.851-1.556,12.643-3.739,12.388-6.424c-0.699,0.223-1.258,0.393-1.567,0.482C176.338-168.294,171.191-166.81,170.129-163.696
					c-1.594-4.193,3.541-7.257,1.527-8.562c-7.943-1.965-15.174-7.988-22.408-14.004c-0.131-0.109-0.202-0.254-0.208-0.423
					c-0.007-0.17,0.052-0.317,0.175-0.437c2.868-2.787,5.945-5.233,9.266-7.276l3.405-5.572c10.501-3.02,21.12-4.057,31.804-4.9
					c2.901-0.228,5.45,0.309,8.008,1.693c7.68,4.151,15.363,7.724,23.043,11.877l2.167,5.779l2.167-2.888l5.056,18.781
					l-15.171-5.779l6.503,15.171l-11.306,8.23l7.114-0.571c-3.872,9.792-9.372,17.916-15.326,25.573
					c-0.704,0.905-1.414,1.804-2.13,2.7l1.888,5.901l0.252,0.793l-0.783-0.497l-7.03-4.448l-3.936-2.491
					c0.754,1.188,1.445,2.365,2.107,3.534c1.206,2.13,2.32,4.24,3.565,6.358c1.398,2.379,2.965,4.771,5.021,7.217
					c2.434,2.896,5.554,5.868,9.891,8.991c-1.383-5.062-1.683-8.959-2.555-13.036c-0.563-2.631-1.362-5.335-2.844-8.478
					c-0.304-0.647-0.64-1.314-1.005-2.002c-0.06-0.111-0.042-0.245,0.045-0.336c3.316-3.459,6.397-7.101,9.271-10.906
					c5.888-7.8,10.904-16.278,15.279-25.256c0.05-0.101,0.039-0.212-0.027-0.301l-2.002-2.696l-4.91-6.609
					c-0.079-0.109-0.076-0.254,0.01-0.358c0.087-0.104,0.228-0.134,0.349-0.076l9.018,4.393l4.566,2.226
					c0.072,0.034,0.121,0.089,0.148,0.165c0.025,0.076,0.022,0.15-0.015,0.222l-10.555,21.528l-0.722,1.473
					c-0.067,0.138-0.015,0.304,0.119,0.38c0.097,0.054,0.212,0.045,0.299-0.01c0.032-0.022,0.062-0.05,0.084-0.086l1.678-2.589
					l12.804-19.745c0.059-0.089,0.062-0.195,0.015-0.289l-3.222-6.355l-7.37-14.534c-0.055-0.109-0.039-0.235,0.044-0.326
					c0.082-0.089,0.205-0.119,0.319-0.076l3.383,1.322c0.118,0.045,0.245,0.013,0.328-0.082c0.081-0.097,0.091-0.23,0.025-0.338
					c-2.199-3.607-4.114-7.375-5.213-11.595c-0.183-0.706-0.344-1.425-0.48-2.157c-0.027-0.151-0.168-0.254-0.321-0.234l-4.766,0.64
					c-0.057,0.008-0.109,0-0.16-0.024c-11.89-5.534-21.781-13.377-34.016-14.355c-12.112-0.968-25.104,1.808-38.989,8.383
					c-0.062,0.029-0.106,0.072-0.136,0.133l-2.293,4.653c-0.049,0.102-0.148,0.163-0.26,0.163c-0.113-0.002-0.21-0.062-0.259-0.165
					l-1.757-3.637c-0.034-0.072-0.089-0.121-0.166-0.148c-0.076-0.025-0.15-0.02-0.222,0.015l-21.682,10.802l14.687,10.493
					c0.074,0.052,0.161,0.067,0.249,0.042c0.089-0.027,0.153-0.086,0.188-0.171l2.352-5.848c0.05-0.128,0.18-0.2,0.316-0.176
					c0.134,0.022,0.234,0.134,0.24,0.27l0.314,6.523c0.003,0.072,0.029,0.134,0.079,0.186l1.609,1.677
					c0.091,0.094,0.108,0.232,0.04,0.344c-4.524,7.763-9.05,15.524-13.575,23.285c3.608,0.425,6.417-0.333,8.242-2.557
					c3.372-7.081,8.477-14.16,11.848-21.241c8.28,6.14,6.513,4.198,4.334,14.738l7.022-7.66l0.926,0.435l3.612,7.225
					L170.129-163.696z M155.291-144.789c0.005-1.965-0.761-3.578-2.795-4.61c-4.86,2.873-10.635,4.576-17.026,5.495
					c-2.893-2.142-3.531-5.004-2.696-8.339l-3.706,3.96c-0.951,1.016-1.05,2.525-0.24,3.657c2.049,2.868,4.658,4.863,7.969,5.769
					c6.573-1.129,13.31-2.001,18.077-5.977c0.084-0.071,0.191-0.089,0.294-0.047C155.218-144.861,155.26-144.829,155.291-144.789
					 M200.748-173.595l-7.074,3.247l3.948,3.953l16.282-10.456l-2.347-1.557L200.748-173.595z"/>
			</g>
			<g id="g248" transform="translate(317.1807,508.187)">
				<path id="path250" style="fill-rule:evenodd;clip-rule:evenodd;fill:#EEC99D;" d="M215.649-154.744
					c-4.003-2.851-5.488-8.554-6.988-14.328c0.477,4.238,0.341,8.73-0.469,13.488c3.155,5.308,7.852,7.976-2.207,15.144
					c-5.883,4.191-4.358,14.304,5.901,23.446c18.522,6.202,14.121-7.383,18.564-16.093c3.524-6.911,11.519-11.492,12.036-21.629
					C244.12-186.81,206.981-188.283,215.649-154.744 M215.775-137.035c3.755-4.766,9.041-8.404,6.012-17.187
					c-3.81-11.057,9.046-19.151,13.609-10.936c1.898,3.415,2.485,9.13,1.001,13.725c-2.234-12.97-14.304-13.258-8.394-3.721
					c6.807,11.112,1.404,13.337-3.692,15.783c-6.232,0.766-6.333,5.406-3.066,6.332c8.594,2.434-0.324,9.065-6.503,3.103
					C211.999-132.585,213.598-134.268,215.775-137.035"/>
			</g>
			<g id="g252" transform="translate(328.9365,514.3857)">
				<path id="path254" style="fill-rule:evenodd;clip-rule:evenodd;fill:#F2B67F;" d="M223.642-171.356
					c1.087,1.959,1.744,4.673,1.826,7.501c0.062,2.102-0.193,4.264-0.827,6.222c-0.331-1.91-0.874-3.546-1.54-4.917
					c-3.862-7.922-11.892-6.935-6.854,1.198c0.422,0.687,0.795,1.341,1.127,1.962c5.013,9.426-0.039,11.524-4.82,13.82
					c-6.232,0.766-6.333,5.406-3.066,6.332c8.594,2.432-0.324,9.065-6.503,3.101c-0.682-0.659-1.097-1.258-1.299-1.829
					c-0.653,1.026-1.599,2.023-0.482,4.448c8.678,18.84,14.886,0.124,15.211-6.968c0.094-2.061,1.671-4.455,3.175-5.584
					c1.253-0.942,3.459-3.325,3.383-4.988c-0.255-5.428,3.657-2.367,4.47-4.269c2.723-6.379,1.3-21.446-8.483-19.352
					C221.071-174.449,222.639-173.159,223.642-171.356"/>
			</g>
			<g id="g256" transform="translate(362.6514,519.0244)">
				<path id="path258" style="fill-rule:evenodd;clip-rule:evenodd;fill:#832929;" d="M246.564-183.787
					c-10.788,1.636-27.74,2.352-41.697,0.576c-0.168,0.235-0.339,0.467-0.519,0.695c1.29,2.523,2.167,5.475,2.483,8.843
					C221.436-174.076,238.076-177.567,246.564-183.787"/>
			</g>
			<g id="g260" transform="translate(351.668,502.2217)">
				<path id="path262" style="fill-rule:evenodd;clip-rule:evenodd;fill:#832929;" d="M239.097-138.758
					c-7.768,4.033-15.722,4.895-23.945,1.24c0.319-0.438,0.628-0.885,0.927-1.342C224.676-137.244,232.246-137.387,239.097-138.758"
					/>
			</g>
			<g id="g264" transform="translate(295.9224,501.3833)">
				<path id="path266" style="fill-rule:evenodd;clip-rule:evenodd;fill:#5F1E1E;" d="M201.196-136.511
					c-1.077,1.972-1.863,4.054-2.624,6.145c4.487,15.697,13.862,25.825,26.505,32.177c-11.141-11.454-19.1-23.903-15.611-39.951
					c1.683,4.707,4.096,8.91,7.136,12.68c-0.59-13.861,1.569-26.448,5.735-38.102c-2.503-3.293-4.102-7.581-4.905-12.744
					c3.202,4.974,7.583,6.333,12.233,6.883c-7.512-4.621-12.107-11.699-16.374-19.052c0.25,3.219,0.808,6.295,1.782,9.174
					c-4.332-3.052-7.654-7.496-11.002-11.902c1.099,4.222,3.014,7.988,5.213,11.596c0.066,0.108,0.055,0.239-0.025,0.336
					c-0.082,0.096-0.21,0.129-0.328,0.084l-3.383-1.322c-0.114-0.045-0.237-0.015-0.319,0.076c-0.082,0.089-0.099,0.215-0.044,0.324
					l10.592,20.889c0.047,0.096,0.044,0.2-0.015,0.289l-12.592,19.42l-1.89,2.915C201.258-136.561,201.229-136.533,201.196-136.511"
					/>
			</g>
			<g id="g268" transform="translate(308.8926,479.8853)">
				<path id="path270" style="fill-rule:evenodd;clip-rule:evenodd;fill:#832929;" d="M210.014-78.899
					c-10.017-10.85-16.784-22.721-13.518-37.744c0.778,2.174,1.71,4.238,2.787,6.204c0.118-1.687,0.363-3.414,0.749-5.184
					c0.944,2.642,2.118,5.125,3.506,7.465c-0.035-12.221,2.086-23.441,5.829-33.907c-2.503-3.294-4.102-7.581-4.907-12.744
					c3.032,4.71,6.918,6.254,12.235,6.883c-5.018-3.086-8.734-7.269-11.919-11.894c0.24,1.033,0.526,2.046,0.862,3.036
					c-1.556-1.097-2.983-2.372-4.327-3.763c0.227,0.932,0.489,1.848,0.793,2.743c-1.897-1.336-3.6-2.938-5.196-4.689
					c0.874,1.86,1.873,3.649,2.941,5.403c0.066,0.108,0.055,0.239-0.025,0.336c-0.081,0.096-0.208,0.128-0.328,0.082l-3.145-1.228
					c-0.01,0.045-0.03,0.087-0.062,0.126c-0.082,0.096-0.21,0.129-0.328,0.084l-0.239-0.094c-0.013,0.064-0.005,0.129,0.027,0.19
					l10.592,20.891c0.049,0.094,0.042,0.198-0.013,0.287l-12.592,19.421l-1.892,2.915c-0.024,0.035-0.052,0.064-0.084,0.084
					c-1.078,1.974-1.865,4.054-2.626,6.145C192.928-94.581,200.215-85.292,210.014-78.899"/>
			</g>
			<g id="g272" transform="translate(333.7285,494.3955)">
				<path id="path274" style="fill-rule:evenodd;clip-rule:evenodd;fill:#832929;" d="M226.9-117.784l12.157,17.881l-12.945-4.936
					l-0.959-10.832C225.725-116.375,226.313-117.076,226.9-117.784"/>
			</g>
			<g id="g276" transform="translate(103.6572,423.061)">
				<path id="path278" style="fill-rule:evenodd;clip-rule:evenodd;fill:#EEC99D;" d="M70.476,73.384
					c-12.762,6.609-27.651,26.119-29.522,48.07l21.686-13.285c-0.692-2.721-1.346-4.949-0.897-5.191
					c-5.94-9.725,17.471,0.806,20.819,2.679c-2.112,0.993-4.225,1.987-6.338,2.98c1.934,16.337,7.766,24.064,13.303,24.096
					c-0.013-2.461,0.613-4.959,1.881-7.427c-3.4-7.934-0.281-16.794,9.5-24.358c-0.087-1.198-0.202-2.427-0.343-3.689
					C92.104,86.148,81.865,78.612,70.476,73.384 M120.5,51.682c9.268,6.498,16.891,14.588,22.793,24.489
					c0.768,1.287,1.12,2.572,1.119,4.072c-0.005,3.842-0.228,7.911-0.796,11.947l4.223,3.22c0.722,0.551,1.411,1.119,2.068,1.7
					c3.133-5.159,5.414-13.775,5.431-25.707C147.959,59.025,134.965,40.757,120.5,51.682 M98.718,58.24
					c10.771,5.861,19.966,13.637,27.528,23.572c0.984,1.292,1.52,2.632,1.702,4.245c0.39,3.476,0.633,7.14,0.632,10.842
					c3.326-0.81,6.597-1.871,9.765-2.987l0.267-0.092c0.736-5.107,0.832-11.331,0.015-18.612
					C129.171,62.786,112.954,44.714,98.718,58.24 M79.871,68.484c10.771,5.861,19.966,13.639,27.528,23.574
					c0.984,1.29,1.522,2.632,1.702,4.245c0.042,0.376,0.082,0.754,0.121,1.136l1.618,0.326c3.14,0.635,6.303,0.749,9.453,0.507
					c0.163-3.817,0.018-8.094-0.512-12.819C110.325,73.032,94.107,54.958,79.871,68.484"/>
			</g>
			<g id="g280" transform="translate(148.5796,423.9966)">
				<path id="path282" style="fill-rule:evenodd;clip-rule:evenodd;fill:#F2B67F;" d="M101.018,70.877
					c-1.981-2.325-4.307-4.25-6.814-6.085c-0.066-0.049-0.133-0.096-0.198-0.144c-3.143-2.285-6.562-4.442-9.928-7.066
					c2.726,2.513,5.266,5.211,7.62,8.1c0.543,0.667,1.075,1.344,1.598,2.031c1.233,1.619,2.411,3.298,3.531,5.033
					c0.527,0.816,1.042,1.646,1.544,2.488c0.768,1.288,1.12,2.572,1.119,4.072c-0.007,3.842-0.228,7.912-0.798,11.947l4.225,3.22
					c0.722,0.551,1.411,1.119,2.066,1.7c3.135-5.157,5.414-13.773,5.431-25.707c-0.564-0.949-1.164-1.932-1.794-2.935
					c-1.477-2.354-3.128-4.81-4.925-7.166c-0.638-0.837-1.295-1.66-1.969-2.461c0.517,0.887,0.989,1.787,1.418,2.701
					c1.228,2.616,2.097,5.344,2.592,8.189c0.171,0.984,0.299,1.986,0.38,3c-0.939,1.288-2.174,1.517-3.613,1
					C102.033,72.125,101.537,71.487,101.018,70.877 M8.933,112.616l8.784-5.382c-0.689-2.706-1.341-4.927-0.904-5.186l0.007-0.005
					c-0.072-0.116-0.139-0.228-0.202-0.339c-2.493-4.393,1.51-4.29,6.704-2.794c3.597,1.036,7.764,2.742,10.745,4.084
					c1.663,0.749,2.955,1.386,3.571,1.73l-6.338,2.978c0.316,2.664,0.734,5.1,1.238,7.309c2.589,11.344,7.432,16.762,12.065,16.787
					c0.077,0.062,0.155,0.124,0.228,0.185l4.551-2.886c-7.297-8.986-5.174-19.974,6.602-29.084
					c-0.087-1.198-0.202-2.426-0.343-3.687c-0.788-1.035-1.593-2.041-2.411-3.015c-1.965-2.34-4.017-4.504-6.147-6.511
					c-2.239-2.108-4.564-4.042-6.968-5.817c2.048,2.192,4.035,4.107,5.639,6.479c1.436,2.125,2.565,4.616,3.153,7.998
					c0.134,0.773,0.24,1.594,0.316,2.464c0.045,3.817-1.542,4.492-4.348,3.519c-1.105-0.541-2.312-1.285-3.592-2.144
					c-2.446-1.638-5.159-3.696-7.958-5.562c-8.137-5.428-16.987-9.239-21.998,3.545C8.696,104.003,9.163,106.138,8.933,112.616
					 M70.728,87.046c-0.422,2.06-1.66,2.58-3.355,2.244c-0.632-0.66-1.299-1.299-1.996-1.913c-1.336-1.178-2.787-2.278-4.334-3.311
					c-1.196-0.798-2.449-1.557-3.751-2.285c-2.071-1.157-4.264-2.231-6.538-3.251c1.546,1.356,3.044,2.772,4.497,4.245
					c0.166,0.17,0.334,0.339,0.499,0.511c1.88,1.94,3.681,3.986,5.403,6.137c0.447,0.559,0.889,1.124,1.325,1.698
					c0.984,1.292,1.52,2.634,1.702,4.247c0.042,0.375,0.082,0.754,0.121,1.134l1.618,0.328c3.14,0.635,6.303,0.749,9.451,0.506
					c0.146-3.377,0.049-7.116-0.344-11.205c-0.049-0.533-0.106-1.07-0.166-1.613c-0.306-0.403-0.618-0.808-0.937-1.221
					c-1.703-2.196-3.597-4.524-5.641-6.793c-1.312-1.458-2.684-2.893-4.107-4.252c0.902,1.64,1.777,3.293,2.604,4.967
					c1.262,2.56,2.404,5.176,3.331,7.889c0.035,0.104,0.071,0.208,0.106,0.312C70.394,85.957,70.567,86.5,70.728,87.046
					 M86.694,67.946c1.199,2.574,2.118,5.135,3.056,8.001c0.119,0.366,0.239,0.736,0.359,1.112
					c-0.378,1.115-0.771,2.491-2.846,2.511c-0.637-0.541-1.288-1.07-1.954-1.589c-2.572-2.004-5.342-3.854-8.223-5.616
					c-1.868-1.142-3.783-2.248-5.72-3.336c-0.843-0.474-1.692-0.944-2.542-1.413c0.48,0.41,0.958,0.827,1.43,1.248
					c1.606,1.438,3.162,2.941,4.665,4.512c2.031,2.12,3.968,4.359,5.809,6.726c0.2,0.257,0.398,0.514,0.596,0.774
					c0.983,1.29,1.52,2.632,1.702,4.245c0.082,0.732,0.158,1.473,0.227,2.219c0.255,2.8,0.407,5.702,0.405,8.621
					c3.326-0.808,6.597-1.87,9.765-2.985l0.265-0.094c0.737-5.105,0.833-11.329,0.015-18.612c-0.022-0.03-0.044-0.059-0.067-0.091
					c-0.538-0.706-1.099-1.43-1.678-2.164c-1.213-1.539-2.515-3.125-3.889-4.697c-1.292-1.478-2.649-2.945-4.059-4.349
					C85.066,64.688,85.936,66.319,86.694,67.946"/>
			</g>
			<g id="g284" transform="translate(152.187,294.457)">
				<path id="path286" style="fill-rule:evenodd;clip-rule:evenodd;fill:#EEC99D;" d="M103.471,418.029
					c20.323-48.482-39.422-70.65-47.363-112.744c18.02-14.059,34.673-28.997,44.043-48.616c2.903-10.239,0.931-18.581-6.977-24.612
					c-10.777,3.797-21.635,6.496-32.865,4.227c-12.043,8.262-11.317,15.586,1.455,22.02c7.625,1.954,17.37-2.486,22.166-4.756
					c-3.17,4.586-12.507,11.301-20.627,11.766c-10.84,7.435-16.206,17.642-19.06,29.124c-1.834-8.312-1.964-16.381,1.68-23.918
					l-18.564,3.694l-32.083,15.825c4.794,9.997,14.833,22.284,22.381,23.477l-7.748-0.719c10.837,32.674-3.56,73.574,17.515,102.91
					c5.208,7.249,12.581,13.789,23.035,19.327c-2.661-5.96-1.742-12.576,1.332-19.588c-0.237,12.907,8.376,21.909,23.436,28.069
					c21.313-6.815,38.389-17.449,53.058-30.253C130.89,410.987,204.975,298.209,103.471,418.029"/>
			</g>
			<g id="g288" transform="translate(140.5547,392.3691)">
				<path id="path290" style="fill-rule:evenodd;clip-rule:evenodd;fill:#F2B67F;" d="M95.562,155.635
					c2.928-2.515,5.048-4.475,6.782-6.167c-1.068,0.38-2.459,0.833-4.07,1.302c-5.91,1.724-14.78,3.63-21.466,2.641
					c-5.947-0.88-10.167-4.049-9.043-11.675c-1.851,1.771-3.585,3.936-4.213,6.185c-0.197,0.798-0.254,1.584-0.17,2.36
					c0.287,2.664,2.217,5.208,5.757,7.63c1.226,0.84,2.646,1.668,4.257,2.48c0.84,0.215,1.705,0.353,2.587,0.425
					c1.87,0.151,3.813,0.005,5.739-0.328C87.134,159.549,92.414,157.125,95.562,155.635 M55.875,196.526
					c-1.613-7.311-1.908-14.435,0.526-21.173c0.333-0.922,0.717-1.836,1.154-2.743l-9.347-0.852L7.089,192.035
					c4.715,10.53,14.77,23.152,22.2,23.567l-7.748-0.717c7.277,21.934,3.178,47.578,6.076,70.942
					c1.418,11.437,4.514,22.326,11.44,31.967c5.206,7.249,12.579,13.789,23.033,19.327c-2.661-5.96-1.74-12.576,1.334-19.588
					c-0.237,12.907,8.374,21.909,23.435,28.069c3.576-1.144,7.035-2.396,10.383-3.746c8.104-3.272,15.559-7.131,22.489-11.462
					c-9.253,3.62-18.605,6.397-28.227,6.844c-2.043,0.094-4.099,0.084-6.167-0.045c-5.579-5.25-9.908-10.383-13.034-15.408
					c-6.122-9.836-7.632-19.245-4.877-28.261c-4.67,4.574-8.062,9.928-10.6,15.808c-1.74,4.033-3.081,8.312-4.154,12.754
					c-6.699-8.816-10.866-17.842-13.542-26.994c-7.096-24.279-3.689-49.439-9.191-73.851c4.353,1.332,8.1,1.201,13.083,0.358
					c-30.902-28.404-24.421-36.642,5.759-36.385c1.964,5.789,3.509,15.88,8.292,20.8c4.591-12.584,8.151-23.586,20.123-32.104
					c2.784-1.801,5.177-3.813,7.329-5.954c2.491-2.481,4.658-5.137,6.725-7.848c-2.612,2.15-5.923,4.235-9.386,5.626
					c-2.296,0.922-4.66,1.539-6.93,1.668C64.096,174.837,58.729,185.044,55.875,196.526"/>
			</g>
			<g id="g292" transform="translate(242.3667,491.3325)">
				<path id="path294" style="fill-rule:evenodd;clip-rule:evenodd;fill:#832929;" d="M164.783-109.576l-4.205-10.246
					c-23.295-1.478-24.799,28.392-38.001,34.1c19.591-1.742,18.869-27.028,36.929-27.028L164.783-109.576l9.172-4.618
					c6.273,0.18,11.8,1.942,16.838,4.489c4.603,2.327,8.801,5.308,12.787,8.336c2.6,1.974,5.112,3.966,7.588,5.811
					c1.739,1.294,3.461,2.515,5.184,3.603c1.031,0.652,2.066,1.257,3.104,1.803c3.103,1.628,6.248,2.725,9.545,2.953
					c-2.266-1.425-4.243-3.069-6.044-4.855c-0.753-0.748-1.475-1.52-2.174-2.31c-1.282-1.451-2.486-2.962-3.657-4.499
					c-1.808-2.367-3.541-4.793-5.381-7.136c-2.859-3.644-5.97-7.089-10.005-9.819c-6.498-4.398-15.388-6.938-29.465-5.455
					C170.544-118.599,166.515-112.252,164.783-109.576"/>
			</g>
			<g id="g296" transform="translate(62.8721,369.3428)">
				<path id="path298" style="fill-rule:evenodd;clip-rule:evenodd;fill:#5F1E1E;" d="M42.746,217.343l2.058,3.733l25.432-12.544
					l22.672-11.181l13.422-6.62c2.79-1.376,3.991-4.734,2.706-7.57c-0.072-0.16-0.144-0.321-0.215-0.482
					c-0.192-0.435-0.376-0.874-0.554-1.315l-11.922,6.547l-7.578,4.161L70.08,202.334L42.746,217.343z M10.067,239.276
					c-4.294,0.821-7.953,0.46-10.088-1.134c-0.096,1.1,0.086,2.12,0.576,3.009c1.742,3.16,6.93,3.884,13.128,2.32
					C12.382,242.288,11.158,240.853,10.067,239.276 M36.88,226.677l-2.585-4.692l-21.009,11.536c0.087,0.166,0.17,0.326,0.252,0.472
					c1.171,2.125,4.015,6.034,6.829,6.812c4.865-5.376,10.202-10.168,16.376-14.042L36.88,226.677z M45.212,227.801l-9.533-17.288
					c-0.517-0.939-1.717-1.411-2.688-0.877c-0.969,0.534-1.211,1.801-0.695,2.742l9.533,17.288c0.517,0.939,1.719,1.411,2.69,0.875
					C45.488,230.006,45.73,228.738,45.212,227.801"/>
			</g>
			<g id="g300" transform="translate(276.6406,450.6455)">
				<path id="path302" style="fill-rule:evenodd;clip-rule:evenodd;fill:#5F1E1E;" d="M188.086-0.539
					c-0.963-3.131-1.927-6.261-2.889-9.392c1,18.588-4.848,33.541-21.427,42.8c-4.301,3.289-9.666,6.471-16.14,9.54
					c-0.571,0.27-1.149,0.539-1.735,0.808c2.908-0.556,5.688-1.235,8.342-2.033c30.278-9.097,44.294-33.815,44.072-72.212
					c5.481,5.932,7.748,14.125,7.724,23.932c1.492-7.476,1.161-14.924-1.33-22.341l7.225,6.501
					c-1.094-5.92-3.926-11.465-7.331-16.885c-5.421,1.974-11.171,2.799-17.617,1.838c-4.223-0.628-8.747-2.024-13.673-4.361
					c0.39,4.228,0.348,8.332-0.674,12.152c-0.074,0.277-0.153,0.553-0.237,0.828c-0.895,2.898-2.389,5.621-4.727,8.1
					c7.082,5.861,10.565,13.306,12.472,21.446c0.192-8.193-0.249-16.04-5.508-21.249c1.688-2.747,2.485-5.549,2.206-8.42
					C192.378-30.45,198.174-35.78,188.086-0.539 M95.237-10.358c6.919-10.236,16.443-17.896,29.791-21.775
					c-2.286-0.123-4.573,0-6.847,0.437c-4.148,0.793-8.258,2.619-12.275,5.868c-1.122,0.907-2.149,1.856-3.089,2.842
					C99.23-19.226,96.888-14.926,95.237-10.358 M160.04,15.003c4.504-11.207,4.542-21.773,1.91-31.96
					c-0.642-2.249-1.582-4.213-2.8-5.912c-1.73-2.416-4.018-4.299-6.793-5.712l0.842,6.345c-3.123-1.574-6.33-3.192-9.587-4.655
					c-1.184-0.531-2.375-1.042-3.571-1.52c-1.406-0.566-2.821-1.089-4.242-1.554C154.686-17.766,163.198-2.846,160.04,15.003
					 M111.385,3.071c-2.99,4.551-5.258,9.876-7.009,15.526l13.227-18.121c1.048,20.142-13.127,29.349-25.598,39.931
					c-4.097,3.476-8.011,7.099-11.143,11.307c-0.724,0.976-1.406,1.979-2.039,3.02c-1.062,1.752-1.987,3.608-2.737,5.591
					c1.068-1.771,2.345-3.454,3.781-5.07c0.83-0.932,1.713-1.843,2.641-2.735c9.842-9.456,25.111-15.29,33.332-24.884
					c7.487-8.739,11.732-22.752,2.167-36.845c0.203,0.707,0.413,2.407,0.405,4.317h-0.002
					C115.708-2.673,113.386,0.027,111.385,3.071 M73.793,39.777c25.588,0.151,23.345-41.977,38.001-53.904
					c-0.19,0.425-0.376,0.85-0.559,1.278c1.529-3.005,4.815-6.506,8.22-7.195c-11.279-3.524-19.811,6.888-22.396,22.395
					C94.168,19.69,88.297,36.148,73.793,39.777 M131.013-17.877c1.401,2.834,2.548,5.663,3.325,8.483
					c0.086,0.309,0.166,0.617,0.24,0.924c4.205,14.254,4.591,28.869-4.052,44.346c1.959-0.731,3.807-1.544,5.539-2.443
					c11.045-15.524,11.682-30.977,1.32-44.482C135.591-13.387,133.469-15.667,131.013-17.877 M217.326-54.462
					c4.897,15.186,7.906,35.59-3.02,62.042c-0.03,0.205-0.062,0.41-0.094,0.615c31.043-43.148,5.277-67.181,0.23-84.258
					l-3.734,4.301c0.501,1.277,1.05,2.626,1.628,4.044l1.168,2.874C214.771-61.699,216.107-58.242,217.326-54.462"/>
			</g>
			<g id="g304" transform="translate(277.0093,583.0586)">
				<path id="path306" style="fill-rule:evenodd;clip-rule:evenodd;fill:#025D58;" d="M188.337-355.392
					c-4.252,1.574-8.49,3.23-12.713,5.006c-0.396,1.942-0.8,3.901-1.225,5.856c3.857-0.717,7.697-1.327,11.514-1.764
					C186.89-349.326,187.656-352.387,188.337-355.392 M242.997-351.678c-4.314-2.396-8.344-4.343-12.142-5.907
					c-0.081,2.233-0.173,4.457-0.284,6.671l0.583,0.067l0.032,0.003l0.161,0.022l0.193,0.022l0.176,0.024l0.017,0.002l0.497,0.065
					h0.013l0.071,0.008l0.388,0.054l0.072,0.008l0.123,0.017l0.193,0.027l0.193,0.029l0.02,0.002l0.04,0.005l0.489,0.071
					l0.032,0.005l0.388,0.057l0.111,0.017l0.47,0.072l0.059,0.01l0.134,0.02l0.195,0.03l0.195,0.03l0.008,0.002l0.185,0.03
					l0.193,0.032l0.151,0.025l0.044,0.007l0.388,0.066l0.099,0.015l0.094,0.017l0.193,0.034l0.197,0.035l0.045,0.007l0.148,0.027
					l0.193,0.034l0.19,0.034l0.005,0.002l0.195,0.035l0.193,0.035l0.138,0.025l0.057,0.01l0.193,0.037l0.195,0.037l0.086,0.015
					l0.109,0.02l0.193,0.039l0.195,0.037l0.034,0.007l0.16,0.032l0.195,0.039l0.176,0.035l0.018,0.002l0.386,0.079l0.128,0.025
					l0.531,0.111l0.119,0.027l0.39,0.081l0.02,0.005l0.173,0.037l0.195,0.044l0.165,0.035l0.029,0.007l0.195,0.042l0.195,0.044
					l0.113,0.025l0.081,0.018l0.385,0.087l0.005,0.002l0.062,0.013l0.133,0.03C242.995-349.733,242.997-350.705,242.997-351.678
					 M176.149-352.963c4.007-1.418,8.075-2.486,12.253-3.042c0.024-0.003,0.049-0.003,0.072,0c0.425-1.905,0.82-3.785,1.218-5.618
					c-3.593,0.709-7.121,1.569-10.706,2.397c-0.531,0.124-1.055,0.24-1.574,0.353c-0.005,0.002-0.012,0.003-0.017,0.003
					C176.967-356.938,176.559-354.962,176.149-352.963"/>
			</g>
			<g id="g308" transform="translate(82.9238,244.6543)">
				<path id="path310" style="fill-rule:evenodd;clip-rule:evenodd;fill:#001414;" d="M56.379,551.495V412.748l11.838-3.538
					c222.579-66.515,445.274-132.638,667.857-199.143l20.799-6.212v138.747l-11.838,3.538
					C522.452,412.647,299.759,478.778,77.176,545.281L56.379,551.495z"/>
			</g>
			<g id="g312" transform="translate(86.4224,289.4609)">
				<path id="path314" style="fill-rule:evenodd;clip-rule:evenodd;fill:#001414;" d="M58.758,431.418v-59.1l7.644-2.283
					c222.584-66.509,445.274-132.636,667.858-199.143l13.238-3.954v126.481l-7.643,2.283
					C517.27,362.208,294.58,428.337,71.996,494.844l-13.238,3.954V431.418z"/>
			</g>
			<g id="g316" transform="translate(93.3203,290.8857)">
				<path id="path318" style="fill-rule:evenodd;clip-rule:evenodd;fill:#025D58;" d="M63.448,427.6v-6.486l-6.368,1.902v-48.263
					l3.822-1.142c222.584-66.507,445.274-132.636,667.858-199.143l6.619-1.977v48.263l-6.367,1.903v6.488l6.367-1.903v60.893
					l-3.822,1.142C508.974,355.783,286.282,421.91,63.698,488.419l-6.619,1.977v-60.893L63.448,427.6z"/>
			</g>
			<g id="g320" transform="translate(490.1973,376.2031)">
				<path id="path322" style="fill-rule:evenodd;clip-rule:evenodd;fill:#001414;" d="M333.282,198.959v-50.057l-6.367,1.903V133.48
					l6.367-1.902V94.152c-222.463,66.47-445.966,132.841-667.858,199.141v37.428l6.368-1.903v17.323l-6.368,1.903v50.057
					C-112.113,331.63,111.39,265.259,333.282,198.959"/>
			</g>
			<g id="g324" transform="translate(137.2261,326.1611)">
				<path id="path326" style="fill-rule:evenodd;clip-rule:evenodd;fill:#025D58;" d="M93.299,333.066c0,1.383-0.4,2.703-1.22,3.966
					c-0.818,1.263-1.873,2.27-3.146,3.014V407.5c1.201,0.005,2.238,0.405,3.093,1.203c0.855,0.8,1.273,1.893,1.273,3.277v1.527
					l-3.141,0.937v-0.042v-1.28v-0.249c0-0.539-0.064-1.035-0.192-1.487c-0.18-0.83-0.563-1.52-1.151-2.071
					c-0.838-0.785-1.851-1.184-3.022-1.204V341.19c1.273-0.744,2.327-1.75,3.146-3.014c0.82-1.263,1.218-2.584,1.218-3.966v-0.249
					v-1.389v-0.205l3.141-0.939V333.066z M53.897,390.448v34.831l-3.141,0.937v-0.042v-34.789L53.897,390.448z M50.756,344.138
					l3.141-0.939v34.797l-3.141,0.939v-34.592V344.138z M121.95,324.507c0,1.384-0.418,2.71-1.255,3.976
					c-0.837,1.268-1.873,2.271-3.109,3.004v67.562c1.236-0.005,2.273,0.376,3.109,1.146c0.837,0.768,1.255,1.845,1.255,3.227v1.527
					l-3.14,0.939v-0.044v-1.278v-0.25c0-0.539-0.064-1.031-0.192-1.478c-0.178-0.823-0.558-1.5-1.136-2.033
					c-0.82-0.753-1.833-1.136-3.039-1.142v-67.033c1.236-0.731,2.275-1.732,3.111-3.002c0.837-1.268,1.255-2.594,1.255-3.976v-0.249
					v-1.389v-0.205l3.14-0.937V324.507z M176.931,341.591l3.141-0.937v46.933l-3.141,0.937v-0.044v-46.684V341.591z
					 M176.931,306.444l3.141-0.936v16.371l-1.638,0.489c-0.524,0.158-1.026,0.245-1.504,0.269v-15.986V306.444z M164.768,322.182
					c-2.59,1.095-5.058,2.527-7.4,4.297c-3.346,2.527-6.258,5.49-8.732,8.883c-2.473,3.397-4.438,7.074-5.893,11.039
					c-1.455,3.965-2.184,7.948-2.184,11.949c0,4.003,0.729,7.551,2.184,10.645c1.473,3.089,3.437,5.594,5.93,7.504
					c2.474,1.918,5.403,3.135,8.769,3.657c1.986,0.314,4.055,0.333,6.204,0.059c-3.314,0.835-6.458,1.021-9.416,0.553
					c-3.365-0.522-6.295-1.74-8.769-3.655c-2.491-1.912-4.457-4.418-5.93-7.506c-0.566-1.204-1.021-2.478-1.367-3.818
					c-0.487-1.991-0.736-4.129-0.744-6.417c0.015-3.961,0.743-7.904,2.182-11.826c1.456-3.963,3.42-7.643,5.895-11.039
					c2.473-3.395,5.384-6.357,8.732-8.883C157.5,325.152,161.012,323.339,164.768,322.182 M244.96,287.761
					c0,1.383-0.4,2.703-1.22,3.966c-0.818,1.263-1.873,2.27-3.146,3.014v67.453c1.201,0.005,2.238,0.405,3.093,1.204
					c0.855,0.8,1.273,1.895,1.273,3.276v1.529l-3.14,0.937v-0.044v-1.278v-0.249c0-0.539-0.064-1.035-0.193-1.488
					c-0.181-0.828-0.563-1.52-1.152-2.071c-0.838-0.785-1.851-1.183-3.02-1.204v-66.922c1.272-0.742,2.328-1.75,3.146-3.014
					c0.818-1.263,1.22-2.584,1.22-3.965v-0.25v-1.388v-0.207l3.14-0.936L244.96,287.761z M205.558,345.141v34.833l-3.14,0.937
					v-0.044V346.08L205.558,345.141z M202.418,298.833l3.14-0.939v34.797l-3.14,0.939v-34.592V298.833z M288.128,339.044v16.261
					l-3.141,0.939v-0.044v-16.014v-0.022c0.475-0.264,0.976-0.475,1.504-0.632L288.128,339.044z M267.413,279.415l3.141-0.937v1.636
					c0,1.383-0.418,2.71-1.255,3.978c-0.837,1.268-1.873,2.27-3.111,3.002v62.522l-3.14,0.937v-62.316
					c1.236-0.734,2.273-1.735,3.109-3.004s1.255-2.595,1.255-3.976v-0.249v-1.388V279.415z M318.448,311.417l-10.728,31.705
					c1.673,0.665,2.51,2.018,2.51,4.054v1.529l-3.141,0.937v-0.042v-1.28v-0.249c0-0.575-0.066-1.094-0.198-1.559
					c-0.277-1.26-0.996-2.154-2.164-2.684l10.657-31.495L318.448,311.417z M331.926,260.145l3.081-0.921l30.781,72.884l-3.219,0.961
					l-0.017-0.039l0.092-0.029l-0.113-0.269l0.042-0.013L331.926,260.145z M327.599,284.317l-4.469,13.251l-3.062,0.916
					l6.014-17.832L327.599,284.317z M437.331,230.293c0,1.383-0.418,2.708-1.255,3.976c-0.837,1.268-1.873,2.27-3.109,3.004v67.453
					c1.236-0.005,2.273,0.393,3.109,1.199c0.837,0.805,1.255,1.898,1.255,3.281v1.529l-3.14,0.939v-0.045v-1.278v-0.249
					c0-0.543-0.064-1.042-0.193-1.497c-0.18-0.827-0.558-1.515-1.134-2.068c-0.82-0.79-1.833-1.189-3.037-1.199v-66.922
					c1.236-0.732,2.273-1.734,3.109-3.002c0.837-1.27,1.255-2.595,1.255-3.976v-0.25v-1.388v-0.207l3.14-0.936L437.331,230.293z
					 M389.09,273.737v51.41l-3.14,0.937v-0.044v-56.943L389.09,273.737z M385.832,244.04l3.039-0.907l0.872,1.487l28.115,41.46
					v5.349l-31.325-46.199L385.832,244.04z M470.877,219.016c3.23-0.779,6.274-1.035,9.15-0.769c3.42,0.326,6.422,1.285,8.969,2.888
					c2.547,1.604,4.584,3.744,6.076,6.426c1.49,2.684,2.238,5.807,2.238,9.374v30.126c0,3.565-0.748,7.135-2.238,10.709
					c-1.492,3.575-3.529,6.911-6.076,10s-5.549,5.824-8.969,8.191c-3.264,2.254-6.741,3.965-10.464,5.14
					c2.557-1.057,4.996-2.389,7.323-3.996c3.42-2.367,6.424-5.102,8.969-8.191c2.548-3.089,4.584-6.426,6.074-10
					c1.493-3.575,2.238-7.145,2.238-10.709v-0.25v-29.875v-0.247c0-1.918-0.213-3.708-0.645-5.371
					c-0.373-1.537-0.927-2.965-1.663-4.287c-1.49-2.683-3.528-4.823-6.074-6.427c-2.547-1.604-5.55-2.562-8.969-2.886
					C474.912,218.683,472.935,218.734,470.877,219.016 M462.383,233.603v57.404l-3.143,0.937v-57.402L462.383,233.603z
					 M521.922,215.488v22.697l-3.14,0.936v-22.695L521.922,215.488z M532.915,235.247l0.576-0.171
					c1.383-0.413,2.711-0.536,3.985-0.371c1.273,0.165,2.384,0.561,3.328,1.188c0.947,0.627,1.692,1.497,2.238,2.606
					c0.546,1.11,0.818,2.357,0.818,3.741v1.636l-3.14,0.939v-0.045v-1.388v-0.249c0-0.833-0.099-1.619-0.297-2.355
					c-0.136-0.585-0.334-1.142-0.593-1.668c-0.544-1.11-1.29-1.977-2.238-2.606c-0.944-0.627-2.056-1.023-3.328-1.188
					C533.821,235.257,533.371,235.237,532.915,235.247 M521.922,250.635v22.584l-3.14,0.939v-22.588L521.922,250.635z
					 M549.452,260.535c0.512-0.294,1.052-0.526,1.613-0.694l1.529-0.455v5.019v1.638v10.259l-3.141,0.941v-0.045v-10.01v-0.249
					v-1.388v-0.25V260.535z M549.452,195.162l3.141-0.936v11.895v5.021l-1.529,0.455c-0.561,0.168-1.1,0.259-1.613,0.27v-4.605
					v-0.247v-11.648V195.162z M576.223,234.412v34.833l-3.14,0.936v-0.042v-34.787L576.223,234.412z M593.17,182.122
					c3.338-0.86,6.513-0.996,9.522-0.408c3.311,0.648,6.093,2.127,8.351,4.437c1.527,1.653,2.691,3.561,3.491,5.723
					c0.8,2.162,1.201,4.499,1.201,7.008c0,2.51-0.402,5.104-1.201,7.781c-0.8,2.678-1.964,5.263-3.491,7.756
					c-1.675,2.683-3.676,5.137-6.006,7.36c-2.327,2.224-4.838,4.028-7.531,5.416l19.539,29.853l-3.254,0.973l-0.024-0.037
					l0.136-0.04l-0.166-0.255l0.096-0.029l-19.26-29.43c2.616-1.372,5.056-3.14,7.324-5.307c2.328-2.226,4.329-4.678,6.004-7.36
					c1.529-2.495,2.691-5.08,3.492-7.756c0.8-2.678,1.201-5.271,1.201-7.781v-0.119v-0.012v-0.118c0-1.833-0.213-3.571-0.64-5.216
					c-0.171-0.709-0.383-1.401-0.632-2.076c-0.801-2.162-1.965-4.069-3.492-5.723c-2.256-2.31-5.04-3.79-8.351-4.437
					C597.452,181.927,595.348,181.86,593.17,182.122 M576.223,199.267v22.695l-3.14,0.937v-22.695L576.223,199.267z
					 M647.094,178.121c-1.154,0.571-2.275,1.302-3.363,2.194c-2.184,1.67-3.894,3.709-5.13,6.116s-1.856,4.848-1.856,7.321v3.383
					l37.22,7.546v10.807c0,4.727-1.218,9.423-3.657,14.081c-2.417,4.65-5.749,8.665-9.95,12.031
					c-3.456,2.688-7.072,4.605-10.884,5.76c2.673-1.139,5.251-2.678,7.744-4.618c4.201-3.365,7.529-7.38,9.95-12.031
					c2.438-4.657,3.657-9.352,3.657-14.083v-0.247v-10.556v-0.25l-0.071-0.012v-0.27l-37.151-7.531v-2.866
					c0-2.474,0.62-4.915,1.858-7.321c1.235-2.407,2.947-4.447,5.129-6.118c1.819-1.488,3.729-2.533,5.73-3.13
					C646.58,178.25,646.837,178.181,647.094,178.121 M637.971,221.328l3.14-0.937v1.636c0,1.31-0.381,2.607-1.146,3.891
					c-0.764,1.282-1.764,2.291-3.002,3.025c0.365,1.782,1.129,3.301,2.293,4.554c1.164,1.253,2.656,2.043,4.475,2.374
					c0.879,0.16,1.781,0.212,2.703,0.153l-0.185,0.057c-2.001,0.596-3.911,0.731-5.73,0.401c-1.819-0.329-3.311-1.12-4.475-2.374
					c-1.03-1.109-1.747-2.426-2.15-3.948l-0.024-0.102c1.215-0.732,2.199-1.732,2.953-2.999c0.764-1.282,1.147-2.579,1.147-3.889
					v-0.249v-1.389V221.328z M650.407,165.026c3.471-0.892,6.777-1.013,9.95-0.375c4.201,0.855,7.533,2.879,9.95,6.086
					c2.439,3.2,3.657,7.166,3.657,11.895v4.804l-3.14,0.937v-0.044v-4.554v-0.249c0-2.036-0.227-3.929-0.679-5.681
					c-0.588-2.436-1.604-4.601-3.049-6.498c-2.421-3.207-5.749-5.231-9.952-6.088C654.966,164.824,652.722,164.744,650.407,165.026"
					/>
			</g>
			<g id="g328" transform="translate(133.3369,324.9971)">
				<path id="path330" style="fill-rule:evenodd;clip-rule:evenodd;fill:#FFFFFF;" d="M90.655,336.185c0,1.383-0.4,2.703-1.22,3.966
					c-0.818,1.263-1.873,2.27-3.146,3.014v67.454c1.201,0.005,2.238,0.405,3.093,1.203c0.855,0.801,1.273,1.893,1.273,3.277v1.529
					l-4.366,1.304l-11.897,3.553v-35.036l-23.139,6.913V428.4l-11.897,3.553l-4.366,1.304v-1.529c0-1.381,0.418-2.725,1.255-4.03
					c0.837-1.307,1.875-2.325,3.111-3.059v-67.453c-1.236,0.007-2.275-0.376-3.111-1.144c-0.837-0.769-1.255-1.845-1.255-3.227
					v-1.636l16.263-4.86v35.147l23.139-6.913v-35.145l16.263-4.858V336.185z M119.307,327.626c0,1.384-0.42,2.71-1.257,3.976
					c-0.837,1.268-1.873,2.271-3.109,3.005v67.56c1.236-0.005,2.273,0.376,3.109,1.146c0.837,0.768,1.257,1.845,1.257,3.227v1.527
					l-5.132,1.534l-15.499,4.63v-1.529c0-1.383,0.42-2.708,1.257-3.976c0.837-1.268,1.873-2.27,3.111-3.002v-67.564
					c-1.238,0.007-2.275-0.376-3.111-1.144c-0.837-0.769-1.257-1.846-1.257-3.227v-1.636l20.631-6.164V327.626z M152.324,351.271
					l25.103-7.497v46.933l-11.897,3.553c-5.456,1.631-10.587,2.09-15.39,1.379c-4.803-0.712-8.986-2.39-12.552-5.036
					c-3.565-2.648-6.384-6.153-8.458-10.518c-2.075-4.364-3.111-9.386-3.111-15.06c0-5.676,1.036-11.316,3.111-16.918
					c2.075-5.606,4.894-10.795,8.458-15.571c3.566-4.778,7.749-8.956,12.552-12.537c4.803-3.582,9.933-6.185,15.39-7.817
					l11.897-3.553v16.371l-1.636,0.491c-1.383,0.412-2.602,0.358-3.657-0.165c-1.055-0.521-1.764-1.383-2.128-2.584l-4.475,1.337
					c-3.857,1.152-7.459,2.992-10.805,5.52c-3.346,2.528-6.258,5.49-8.732,8.883c-2.474,3.397-4.438,7.076-5.893,11.039
					c-1.455,3.965-2.184,7.948-2.184,11.951c0,4.001,0.729,7.549,2.184,10.644c1.473,3.089,3.437,5.594,5.93,7.504
					c2.474,1.918,5.403,3.136,8.769,3.657c3.346,0.529,6.93,0.223,10.731-0.914v-23.139l-2.745,0.82
					c-1.475,0.442-2.857,0.581-4.131,0.417c-1.292-0.161-2.382-0.581-3.311-1.25c-0.909-0.674-1.636-1.547-2.201-2.617
					c-0.546-1.072-0.818-2.337-0.818-3.792V351.271z M242.316,290.88c0,1.383-0.4,2.703-1.22,3.966
					c-0.818,1.263-1.873,2.27-3.146,3.014v67.453c1.201,0.005,2.238,0.405,3.093,1.206c0.855,0.798,1.273,1.893,1.273,3.276v1.527
					l-4.366,1.304l-11.897,3.555v-35.036l-23.139,6.911v35.038l-11.897,3.553l-4.366,1.304v-1.527c0-1.383,0.418-2.726,1.255-4.032
					c0.837-1.304,1.873-2.323,3.111-3.056V311.88c-1.238,0.005-2.275-0.375-3.111-1.144c-0.837-0.768-1.255-1.845-1.255-3.227
					v-1.638l16.263-4.858v35.145l23.139-6.911V294.1l16.263-4.857V290.88z M285.484,342.164v16.261l-33.836,10.11v-82.08
					l16.263-4.858v1.636c0,1.384-0.418,2.71-1.255,3.978c-0.837,1.27-1.875,2.27-3.111,3.004v62.868l14.627-4.369
					c0.363-1.346,1.053-2.589,2.073-3.731c1.018-1.139,2.219-1.917,3.602-2.33L285.484,342.164z M345.459,338.98
					c0-2.036,0.837-3.887,2.511-5.552l-10.807-25.477l-21.283,6.358l-10.807,31.933c1.675,0.665,2.511,2.016,2.511,4.052v1.53
					l-17.573,5.248l28.269-84.084c-1.673-0.665-2.51-2.014-2.51-4.052v-1.638l16.591-4.956l30.779,72.884l-17.683,5.282V338.98z
					 M326.577,282.627l-6.221,18.449l12.332-3.686L326.577,282.627z M434.689,233.413c0,1.383-0.418,2.71-1.255,3.976
					c-0.837,1.268-1.873,2.27-3.111,3.004v67.453c1.238-0.005,2.275,0.395,3.111,1.199c0.837,0.805,1.255,1.9,1.255,3.283v1.527
					l-16.046,4.794l-32.197-47.576v57.194l-16.263,4.858v-1.527c0-1.384,0.418-2.726,1.255-4.033
					c0.838-1.304,1.875-2.325,3.109-3.056v-67.453c-1.235,0.003-2.271-0.378-3.109-1.146c-0.837-0.769-1.255-1.845-1.255-3.227
					v-1.638l16.043-4.793l0.875,1.487l31.325,46.197v-57.303l16.263-4.857V233.413z M466.323,222.653
					c3.948-1.179,7.622-1.604,11.06-1.285c3.42,0.324,6.421,1.283,8.969,2.888c2.545,1.603,4.583,3.743,6.074,6.424
					c1.493,2.684,2.238,5.809,2.238,9.374v30.126c0,3.566-0.744,7.136-2.238,10.709c-1.492,3.575-3.529,6.913-6.074,10.002
					c-2.548,3.089-5.549,5.823-8.969,8.189c-3.439,2.374-7.113,4.146-11.06,5.324l-18.482,5.522l-4.366,1.305v-1.529
					c0-1.383,0.418-2.726,1.255-4.032c0.838-1.304,1.875-2.325,3.111-3.057v-67.125c-1.236,0.007-2.273-0.376-3.111-1.146
					c-0.837-0.769-1.255-1.845-1.255-3.227v-1.638L466.323,222.653z M482.767,243.61c0-1.965-0.437-3.655-1.309-5.068
					c-0.855-1.418-2.038-2.538-3.529-3.367c-1.475-0.833-3.22-1.31-5.204-1.446c-1.999-0.129-4.111,0.136-6.367,0.81l-6.62,1.979
					v57.956l6.62-1.977c2.256-0.674,4.368-1.668,6.367-2.994c1.984-1.319,3.729-2.824,5.204-4.502
					c1.492-1.682,2.674-3.509,3.529-5.475c0.872-1.969,1.309-3.902,1.309-5.794V243.61z M519.276,218.403v23.25l11.571-3.457
					c1.383-0.413,2.71-0.536,3.983-0.371c1.273,0.165,2.384,0.561,3.331,1.188c0.944,0.627,1.69,1.497,2.238,2.607
					c0.544,1.109,0.816,2.355,0.816,3.739v1.636l-21.939,6.555v23.139l23.25-6.946c0.218-1.52,0.892-2.921,2.019-4.205
					c1.127-1.282,2.419-2.142,3.874-2.577l1.529-0.455v5.021v1.638v10.259l-46.933,14.02v-1.529c0-1.383,0.418-2.728,1.255-4.032
					c0.837-1.305,1.873-2.325,3.111-3.057v-67.454c-1.238,0.007-2.275-0.375-3.111-1.142c-0.837-0.769-1.255-1.845-1.255-3.227
					v-1.638l46.933-14.019v11.897v5.02l-1.529,0.455c-1.455,0.435-2.747,0.348-3.874-0.26c-1.127-0.608-1.801-1.609-2.019-2.999
					L519.276,218.403z M594.752,264.509c0-2.036,0.837-3.887,2.511-5.552l-15.608-24.043l-8.077,2.412v35.038l-16.263,4.857v-1.527
					c0-1.383,0.418-2.726,1.255-4.032c0.837-1.305,1.873-2.325,3.111-3.057v-67.453c-1.238,0.005-2.275-0.376-3.111-1.144
					c-0.837-0.769-1.255-1.845-1.255-3.227v-1.638l32.198-9.619c3.711-1.109,7.222-1.337,10.533-0.69
					c3.309,0.648,6.093,2.127,8.349,4.437c1.527,1.653,2.693,3.561,3.493,5.723c0.801,2.162,1.201,4.499,1.201,7.008
					c0,2.511-0.4,5.104-1.201,7.781c-0.8,2.678-1.966,5.263-3.493,7.756c-1.673,2.683-3.674,5.137-6.002,7.36
					c-2.33,2.224-4.84,4.028-7.531,5.416l19.535,29.853l-19.646,5.87L594.752,264.509z M598.791,213.205
					c1.529-2.493,2.293-5.033,2.293-7.615c0-2.584-0.764-4.667-2.293-6.248c-1.09-1.129-2.438-1.873-4.038-2.231
					c-1.599-0.359-3.346-0.255-5.238,0.309l-15.935,4.761v23.248l15.935-4.761c1.892-0.564,3.639-1.504,5.238-2.819
					C596.353,216.533,597.7,214.988,598.791,213.205 M655.057,193.886c0-1.31,0.381-2.607,1.146-3.889
					c0.764-1.283,1.766-2.293,3.002-3.025c-0.363-1.856-1.129-3.393-2.293-4.608c-1.162-1.218-2.656-1.991-4.474-2.32
					c-1.747-0.425-3.62-0.338-5.623,0.259c-1.999,0.598-3.911,1.643-5.73,3.131c-2.182,1.67-3.892,3.709-5.13,6.116
					c-1.236,2.407-1.855,4.848-1.855,7.321v3.383l37.22,7.546v10.807c0,4.729-1.218,9.423-3.657,14.081
					c-2.419,4.65-5.747,8.667-9.95,12.031c-3.492,2.716-7.15,4.645-11.005,5.797c-3.839,1.147-7.514,1.408-11.007,0.778
					c-4.201-0.855-7.512-2.886-9.896-6.103c-2.401-3.212-3.602-7.182-3.602-11.914v-4.801l5.24-1.566v-0.109l11.025-3.293v1.636
					c0,1.31-0.383,2.607-1.147,3.891c-0.764,1.282-1.764,2.291-3.002,3.025c0.365,1.782,1.129,3.301,2.293,4.554
					c1.162,1.253,2.654,2.044,4.474,2.374c1.819,0.331,3.731,0.197,5.73-0.401c2.002-0.598,3.875-1.594,5.623-2.989
					c2.182-1.744,3.892-3.818,5.13-6.227c1.236-2.407,1.855-4.81,1.855-7.212v-3.383l-37.22-7.546v-10.803
					c0-4.732,1.201-9.419,3.602-14.067c2.384-4.64,5.695-8.648,9.896-12.015c3.493-2.79,7.168-4.759,11.007-5.907
					c3.855-1.152,7.512-1.371,11.005-0.669c4.203,0.855,7.531,2.879,9.95,6.086c2.439,3.2,3.657,7.168,3.657,11.897v4.803
					l-5.293,1.581l-10.97,3.276L655.057,193.886z"/>
			</g>
			<g id="g332" transform="translate(128.1577,321.7314)">
				<path id="path334" style="fill-rule:evenodd;clip-rule:evenodd;fill:#CFD9D9;" d="M87.134,344.937l-3.227,0.964v35.147
					l-31.809,9.501v-35.147l-3.229,0.966v73.03l3.229-0.964v-35.036l31.809-9.503v35.038l3.227-0.964V344.937z M115.784,336.378
					l-3.227,0.964v73.032l3.227-0.964V336.378z M162.09,357.692c0.024,0.059,0.05,0.118,0.079,0.173
					c0.227,0.435,0.514,0.821,0.91,1.11c0.375,0.276,0.845,0.391,1.299,0.449c0.774,0.099,1.603-0.045,2.343-0.267l8.322-2.488
					v32.19l-3.094,0.922c-4.111,1.23-8.386,1.71-12.645,1.043c-3.933-0.617-7.583-2.07-10.743-4.505
					c-3.135-2.417-5.51-5.512-7.202-9.083c-1.856-3.918-2.6-8.186-2.6-12.5c0-4.611,0.862-9.12,2.449-13.444
					c1.588-4.322,3.748-8.374,6.459-12.097c2.718-3.729,5.94-7.009,9.622-9.79c3.681-2.779,7.756-4.894,12.178-6.214l8.613-2.574
					l0.19,0.63v-3.534l-6.321,1.888c-5.095,1.522-9.779,3.961-14.039,7.138c-4.447,3.316-8.352,7.212-11.669,11.653
					c-3.316,4.442-5.945,9.286-7.869,14.482c-1.836,4.962-2.841,10.116-2.841,15.415c0,4.541,0.732,9.076,2.691,13.202
					c1.673,3.519,3.986,6.563,7.128,8.895c3.145,2.333,6.74,3.655,10.603,4.228c4.547,0.675,9.134,0.066,13.513-1.241l8.803-2.631
					v-37.885L162.09,357.692z M238.794,299.632l-3.229,0.964v35.145l-31.809,9.503v-35.145l-3.227,0.963v73.032l3.227-0.964v-35.036
					l31.809-9.501v35.034l3.229-0.963L238.794,299.632z M286.329,355.613l-21.939,6.555v-70.183l-3.227,0.966v73.03l25.166-7.518
					V355.613z M358.008,337.05l4.438-1.325l-27.387-64.851l-7.647,2.285l1.468,0.583l-26.914,80.05l4.181-1.25l-1.319-0.522
					l12.843-37.957l27.149-8.109L358.008,337.05z M331.341,273.558l12.369,29.877l-24.96,7.455L331.341,273.558z M431.166,242.164
					l-3.225,0.964v68.189l-38.449-56.703l-5.429,1.621v73.032l3.227-0.964v-68.101l38.342,56.648l5.535-1.655V242.164z
					 M457.353,234.669v72.704l12.908-3.855c3.528-1.055,6.805-2.642,9.836-4.737c3.019-2.088,5.752-4.547,8.089-7.381
					c2.228-2.703,4.07-5.68,5.419-8.914c1.204-2.886,1.903-5.906,1.903-9.041V243.32c0-2.532-0.45-5.036-1.692-7.267
					c-1.122-2.021-2.644-3.634-4.596-4.865c-2.133-1.342-4.571-2.004-7.064-2.239c-3.175-0.297-6.375,0.215-9.416,1.124
					L457.353,234.669z M492.28,246.875v30.124c0,2.617-0.625,5.147-1.675,7.536c-1.06,2.416-2.503,4.623-4.247,6.602
					c-1.776,2.011-3.822,3.761-6.056,5.243c-2.33,1.549-4.843,2.735-7.523,3.535l-12.198,3.644v-67.004l9.715-2.903
					c2.56-0.763,5.224-1.161,7.897-0.981c2.463,0.165,4.87,0.779,7.032,1.989c2.113,1.186,3.849,2.822,5.11,4.892
					C491.696,241.775,492.28,244.281,492.28,246.875 M550.792,209.277v-2.847l-33.897,10.125v73.032l33.897-10.128v-2.847
					l-30.67,9.162v-32.188l21.696-6.479c-0.039-0.106-0.082-0.207-0.133-0.309c-0.176-0.361-0.403-0.68-0.741-0.904
					c-0.443-0.294-0.971-0.437-1.493-0.504c-0.736-0.094-1.477,0.015-2.184,0.227l-17.145,5.122v-32.298L550.792,209.277z
					 M607.754,262.444l5.014-1.498l-18.99-29.017l4.277-2.202c2.401-1.235,4.573-2.834,6.523-4.697
					c2.034-1.942,3.828-4.111,5.31-6.505c1.3-2.102,2.318-4.349,3.025-6.716c0.635-2.123,1.02-4.321,1.02-6.541
					c0-1.88-0.277-3.734-0.931-5.503c-0.586-1.581-1.433-2.999-2.572-4.242c-1.682-1.703-3.687-2.71-6.038-3.168
					c-2.841-0.556-5.707-0.234-8.462,0.59l-24.738,7.39v73.032l3.229-0.966v-35.034l14.281-4.267L607.754,262.444z M610.598,208.855
					c0,3.551-1.087,6.867-2.931,9.879c-1.337,2.182-3.005,4.106-4.983,5.73c-2.004,1.646-4.264,2.881-6.752,3.624l-21.509,6.427
					v-32.298l19.03-5.685c2.422-0.722,4.942-0.941,7.427-0.385c2.392,0.534,4.502,1.685,6.207,3.447
					C609.533,202.126,610.598,205.365,610.598,208.855 M669.054,191.522l3.111-0.929v-1.572c0-3.355-0.724-6.573-2.777-9.28
					c-1.868-2.464-4.336-3.844-7.356-4.457c-2.999-0.608-5.989-0.297-8.905,0.575c-3.509,1.048-6.686,2.857-9.537,5.137
					c-3.655,2.925-6.609,6.456-8.751,10.615c-1.949,3.78-3.121,7.812-3.121,12.082v7.26l37.218,7.544v6.928
					c0,3.239-0.858,6.325-2.333,9.194c-1.535,2.985-3.659,5.537-6.279,7.632c-2.118,1.692-4.487,2.978-7.086,3.755
					c-2.518,0.754-5.151,0.984-7.746,0.516c-2.668-0.484-5.028-1.7-6.876-3.689c-1.742-1.875-2.854-4.133-3.363-6.639l-0.438-2.147
					l-3.096,0.926v1.572c0,3.358,0.714,6.595,2.745,9.325c1.824,2.453,4.257,3.818,7.235,4.433c3.002,0.533,6.041,0.195,8.947-0.672
					c3.511-1.05,6.688-2.779,9.559-5.046c3.687-2.915,6.625-6.476,8.796-10.635c1.967-3.771,3.165-7.803,3.165-12.077v-7.262
					l-37.22-7.544v-6.928c0-3.276,0.842-6.399,2.335-9.303c1.527-2.973,3.647-5.497,6.295-7.534c2.137-1.739,4.532-3.094,7.18-3.886
					c2.542-0.758,5.167-0.953,7.759-0.348c2.584,0.491,4.887,1.658,6.711,3.565c1.808,1.89,2.911,4.213,3.414,6.772L669.054,191.522
					z"/>
			</g>
			<g id="g336" transform="translate(457.8154,576.165)">
				<path id="path338" style="fill-rule:evenodd;clip-rule:evenodd;fill:#FFFFFF;" d="M311.266-336.918
					c-4.306-0.205-8.636,0.798-12.676,2.94l-29.314,14.242l-26.803,13.019l-7.817,3.797l-11.885,5.775l-8.032,3.901l-13.871,6.738
					l-31.281,15.196c2.768,2.414,5.352,4.804,7.385,7.03l36.203-17.587l13.501-6.558l7.837-3.808l11.615-5.643l7.652-3.718
					l26.309-12.781l19.265-9.359c3.674-1.947,7.585-2.953,11.499-2.967L311.266-336.918z"/>
			</g>
			<g id="g340" transform="translate(176.0967,426.564)">
				<path id="path342" style="fill-rule:evenodd;clip-rule:evenodd;fill:#FFFFFF;" d="M119.727,63.997
					c1.789-2.375,3.692-4.7,5.71-6.972l-8.027,4.551l-7.817,4.433l-0.615,0.348l0.966,1.008l1.705,1.782l1.497-0.811l5.629-3.059
					C119.09,64.848,119.406,64.422,119.727,63.997"/>
			</g>
			<g id="g344" transform="translate(458.5527,591.3682)">
				<path id="path346" style="fill-rule:evenodd;clip-rule:evenodd;fill:#FFFFFF;" d="M311.767-377.661l166.464,65.291
					l18.583-15.791c0.853-0.847,1.141-1.831,0.892-3.005c-0.171-0.811-0.591-1.856-1.475-2.108L327.65-381.009
					c-5.349-1.515-10.561-2.159-15.653-1.463c-8.613,1.042-16.619,7.706-21.029,9.549
					C297.726-375.166,304.602-376.949,311.767-377.661"/>
			</g>
			<g id="g348" transform="translate(459.2236,569.9873)">
				<path id="path350" style="fill-rule:evenodd;clip-rule:evenodd;fill:#96ACAC;" d="M312.223-320.362
					c2.768,0.326,5.513,1.156,8.149,2.511l108.538,55.804l8.472-24.669l53.758-26.428l-139.791-39.583l-5.423,15.794
					L312.223-320.362z"/>
			</g>
			<g id="g352" transform="translate(475.8682,560.748)">
				<path id="path354" style="fill-rule:evenodd;clip-rule:evenodd;fill:#001414;" d="M323.539-295.602l46.316-22.771l22.628-11.124
					l6.305-3.099l-31.54-8.93l-6.303,3.098l-18.739,9.213l-42.965,21.123l-5.253,2.584l24.296,12.492L323.539-295.602z"/>
			</g>
			<g id="g356" transform="translate(507.9277,572.5425)">
				<path id="path358" style="fill-rule:evenodd;clip-rule:evenodd;fill:#001414;" d="M345.336-327.21l-47.23,23.221l-5.255,2.582
					l24.296,12.492l5.255-2.582l50.582-24.869l27.582-13.56l6.305-3.098l-31.542-8.932l-6.303,3.099L345.336-327.21z"/>
			</g>
			<g id="g360" transform="translate(528.1182,564.623)">
				<path id="path362" style="fill-rule:evenodd;clip-rule:evenodd;fill:#001414;" d="M359.064-305.987l-51.341,25.242l-5.253,2.582
					l24.295,12.493l5.253-2.584l54.696-26.89l32.356-15.907l6.305-3.099l-31.542-8.93l-6.305,3.099L359.064-305.987z"/>
			</g>
			<g id="g364" transform="translate(508.9199,543.7544)">
				<path id="path366" style="fill-rule:evenodd;clip-rule:evenodd;fill:#025D58;" d="M346.011-250.061l-13.886-7.14l81.362-39.998
					l18.024,5.104L346.011-250.061z"/>
			</g>
			<g id="g368" transform="translate(491.1758,552.877)">
				<path id="path370" style="fill-rule:evenodd;clip-rule:evenodd;fill:#025D58;" d="M333.947-274.509l-13.884-7.14l72.474-35.629
					l18.022,5.104L333.947-274.509z"/>
			</g>
			<g id="g372" transform="translate(472.7686,562.3413)">
				<path id="path374" style="fill-rule:evenodd;clip-rule:evenodd;fill:#025D58;" d="M321.432-299.872l-13.884-7.138l63.255-31.098
					l18.024,5.104L321.432-299.872z"/>
			</g>
			<g id="g376" transform="translate(500.3447,568.8145)">
				<path id="path378" style="fill-rule:evenodd;clip-rule:evenodd;fill:#001414;" d="M340.181-317.219l-2.11,6.274l-5.626,16.73
					l-2.11,6.274l-0.102,0.297l-1.562,4.645l-0.002,0.007l19.69,10.335l0.062-0.186l0.049-0.139l1.514-4.505l3.761-11.183
					l2.11-6.274l2.234-6.641l2.11-6.274l3.793-11.279l1.834-5.451l2.108-6.274l2.065-6.449l0.622-1.848l-2.614,1.285l-22.626,11.124
					l-2.513,1.236L340.181-317.219z"/>
			</g>
			<g id="g380" transform="translate(522.292,565.0581)">
				<path id="path382" style="fill-rule:evenodd;clip-rule:evenodd;fill:#001414;" d="M355.103-307.153l-2.288,6.668l-2.164,6.301
					l-5.769,16.799l-2.164,6.301l-1.431,4.166l-1.522,4.435l19.835,10.199l1.522-4.437l9.673-28.167l2.164-6.3l3.652-10.639
					l2.117-6.162l2.162-6.3l2.29-6.668l0.732-2.135l1.493-4.351l-21.267-6.022l-1.495,4.351l16.801,4.757l-22.176,10.902
					l-1.221,3.561L355.103-307.153z"/>
			</g>
			<g id="g384" transform="translate(502.624,566.8184)">
				<path id="path386" style="fill-rule:evenodd;clip-rule:evenodd;fill:#025D58;" d="M341.731-311.87l-5.626,16.73l-2.11,6.274
					l-1.814,5.392l-0.06,0.178l0.88,0.462l10.382,5.45l0.096-0.282l2.048-6.091l2.112-6.273l2.233-6.641l2.11-6.274l5.352-15.917
					l0.274-0.813l2.11-6.273l2.686-7.985l-15.875,7.805l-0.9,2.674l-1.784,5.31L341.731-311.87z"/>
			</g>
			<g id="g388" transform="translate(523.2002,559.0879)">
				<path id="path390" style="fill-rule:evenodd;clip-rule:evenodd;fill:#025D58;" d="M355.72-291.153l-5.77,16.799l-2.162,6.301
					l-3.165,9.221l11.388,5.856l7.897-23.003l2.164-6.3l5.251-15.294l0.517-1.507l2.164-6.3l2.288-6.667l-16.12,7.926l-0.657,1.915
					l-1.633,4.752L355.72-291.153z"/>
			</g>
			<g id="g392" transform="translate(491.9785,568.668)">
				<path id="path394" style="fill-rule:evenodd;clip-rule:evenodd;fill:#001414;" d="M334.493-316.827l2.162-6.3l2.987-8.698
					l2.782-8.102l2.164-6.3l0.06-0.175l1.527-4.452l-19.164-5.426l-3.041,2.569l-0.455,1.325l-4.309,12.545l-2.515,7.328l-2.164,6.3
					l-5.767,16.801l-1.92,5.587l-0.244,0.712l-1.299,3.78l3.503,1.799l16.208,8.332l1.54-4.49l3.027-8.819l2.164-6.3
					L334.493-316.827z"/>
			</g>
			<g id="g396" transform="translate(486.7812,562.146)">
				<path id="path398" style="fill-rule:evenodd;clip-rule:evenodd;fill:#025D58;" d="M330.959-299.349l2.753-8.016l2.162-6.301
					l4.584-13.353l1.184-3.445l2.162-6.301l1.51-4.395l-11.984-3.393l-0.141,0.119l-4.408,12.836l-0.916,2.669l-2.164,6.301
					l-5.767,16.799l-2.165,6.3l-1.509,4.4l11.26,5.791l1.273-3.709L330.959-299.349z"/>
			</g>
			<g id="g400" transform="translate(222.3511,563.6382)">
				<path id="path402" style="fill-rule:evenodd;clip-rule:evenodd;fill:#025D58;" d="M151.175-303.347
					c8.015-4.445,16.103-8.668,24.333-12.493c0.116-0.052,0.18-0.171,0.16-0.294c-0.422-2.602,0.58-4.971,2.537-7.15
					c-9.127,3.548-17.483,7.793-25.437,12.409c-2.525,2.881-4.994,5.91-7.398,9.09l-0.012,0.018
					c-0.623,0.983-1.295,1.927-2.006,2.837c1.814-1.042,3.634-2.075,5.455-3.096C149.596-302.469,150.385-302.909,151.175-303.347"
					/>
			</g>
		</g>
	</g>
</g>
</svg>
