<?xml version="1.0" encoding="utf-8"?>
<!-- Generator: Adobe Illustrator 24.1.2, SVG Export Plug-In . SVG Version: 6.00 Build 0)  -->
<svg version="1.1" id="Layer_1" xmlns="http://www.w3.org/2000/svg" xmlns:xlink="http://www.w3.org/1999/xlink" x="0px" y="0px"
	 viewBox="0 0 200 200" style="enable-background:new 0 0 200 200;" xml:space="preserve">
<g>
	<path style="fill-rule:evenodd;clip-rule:evenodd;fill:#3F0A3A;" d="M115.7,60.6"/>
	<path style="fill:#300038;" d="M108.3,57.1c-1.8,6.8-1.4,13.1,0.3,19.1c-16.9,11.5-27.4,27.2-34,45.4c-1.5,4.2-3.4,8.3-5.6,12.2
		c-3.8,6.7-7.7,12.7-11.7,17.3c-4.8,5.6-12.6,10.6-12.6,10.6s8.1,5.8,14.2,12.2c6.8,7.1,11.1,12.2,15.2,15.9
		c4.3,3.9,11.5,9.1,25.7,9.1c8.4,0,13.9-2.1,17.9-4.1c4.2-2,7.9-4.8,11.5-8.4c4.9-5,6.3-7.9,7.4-11.8c1.3-4.6,1.3-7.2,1.4-8.4v-0.3
		v-0.1h-0.1c-6.5-4.5-5.3-20.6-8.6-31.8c13.3-0.8,16.3,6.7,19.5,5.8c9-2.6,14.5-1.3,14.9-2.7c2-6.4,2.6-12.9,2.7-17.8
		c0-2.5-9.9-9-11.8-19.5c7.9,0.3,13.8-2.6,15.9-11.9c-7.2,6.5-21.3,2.8-26.7-4.5c9.2-3.5,15.5-9,15.4-17.4c-3.3,4.9-11.6,7.3-16,5.8
		c-0.2-0.1-0.4-0.1-0.5-0.2c-1.8-6.1-2.3-12.6-0.3-17.5c2.8,3.8,6.4,6,10.9,5.7c-3.8-2.2-6-8.2-5.1-11.5c0-0.1,0.1-0.3,0.1-0.4
		c7.3-3.2,18.2,1.7,23.2,9.6c2-7.3-6.3-25.2-25-23.8c7.6-10,20-8.7,28.4,1.1c-4-15.5-19.7-20.5-31.1-17.2
		c-10.4,3-16.6,14.6-17.1,27.1c-1.8-2.4-4-4.4-6.7-6.2c-0.9,1.9-3.4,4.9-4.4,6.3c-1.1,1.4-4.8,7.4-4.8,7.4
		C109.6,53.5,108.8,55.3,108.3,57.1z"/>
	
		<linearGradient id="SVGID_1_" gradientUnits="userSpaceOnUse" x1="158.0112" y1="84" x2="57.3369" y2="84" gradientTransform="matrix(1 0 0 -1 0 202)">
		<stop  offset="0" style="stop-color:#FBBC19"/>
		<stop  offset="0.3113" style="stop-color:#FBBC19"/>
		<stop  offset="0.5795" style="stop-color:#F7931E"/>
		<stop  offset="0.9944" style="stop-color:#BA6400"/>
	</linearGradient>
	<path style="fill-rule:evenodd;clip-rule:evenodd;fill:url(#SVGID_1_);" d="M157,123.6c-2.2-1.6-2.6,3.8-2.6,3.8s-3.2-4-2.4-8
		c0.5-2.4,3-2.2,4.9-1.7c-3.5-3.9-8.9-12.9-8.2-16.9c-4-5.5-12.5-14.8-21-22.1c-0.5,0.8-1.2,1.6-2.8,2c2.8-3.9,3.3-9.3,2-20.5
		c-0.5-4.6-2.2-10-5.2-12.8c-1.9,7.3-7.4,7.6-8.8,16.2c-0.9,5.8,2.3,13.6,5.5,16.9c-17.6,7.7-30.3,25.2-36.5,44.1
		c-1.9,4.8-6.6,13.4-9.9,19.5c-5.7,10.3-14.8,16.8-14.8,16.8s6.3,2.5,10.8,8.8c10.1,14.2,28,18.9,28,18.9l-4-20.1
		c0,0.7-0.1,1.5-0.1,2.2l5.2-5.8c0.1-0.4,0.1-0.8,0.2-1.3l1.5-1.3l-1.1-3c0.4-8.8-0.1-20.6,3.3-33.1c2.8-10.6,10.7-28.3,17.4-31.1
		c-2.5,3.1-3.6,6.3-3.7,13.7c0,7.8,2.3,7.3,5.7,8.1c10.7,2.4,25.7,12.6,29.1,15.5c0.6,0,1.2-0.1,1.7-0.2c-1.3-2.6-5.4-5.3-10.5-8
		c2.8-1,4.8,0.8,8.4,2.8c0,0,3.2,2.6,4.7,4.4c1.2-0.2,2.2-0.4,2.8-0.6C157.9,129,158.8,125,157,123.6z"/>
	<path style="fill-rule:evenodd;clip-rule:evenodd;fill:#FFFFFF;" d="M132.6,97.8l3.2,0.8l2.3,2.7c0,0-0.1,1.5-0.3,1.6
		s0.3,1.7,0.3,1.7s-9.3-1.6-8.5-7.1c1.4,0.7,2.4,1.1,2.4,1.1l0.1-0.6L132.6,97.8z"/>
	<path style="fill-rule:evenodd;clip-rule:evenodd;fill:#3F0A3A;" d="M142,104.8c1.7,0.1,2.7-1,2.4-3.3c-0.7,1.1-2,0.9-2.7,0
		c-2.6-3.1-4.1-7.8-8.5-8c-2.1-0.1-3.6,1-3.7,2.8c2-2.1,4.3-1.1,5,0.2c-1.7-0.6-3.8,0-4.9,1c0.8,1.2,2.4,2.4,4.4,3.6
		c-0.7-0.9-0.7-1.8-1-2.6c2.1-0.2,4.1,1.4,4.5,3c-0.8-0.8-1.8-1.5-2.7-1.6c-0.7,2.5,2.3,3.2,3.3,4.8c0,0,4.3,2.3,8.3,5.5
		C145,108.2,143,105.9,142,104.8z"/>
	<g style="opacity:0.45;">
		<path style="fill-rule:evenodd;clip-rule:evenodd;fill:#FFDB4E;" d="M143,95.2l5.1,5.8c0,0-0.7,2.4,0,4.5c0.5,1.4,3.1,4.5,4.7,6.2
			c-2.4-4-4.4-8.4-3.9-11c-4-5.5-12.5-14.8-21-22.1c-0.5,0.8-0.4,0.8-1.4,1.5c0,0,1.7,0.7,5.8,4.1S143,95.2,143,95.2z"/>
	</g>
	<path style="fill-rule:evenodd;clip-rule:evenodd;fill:#3F0A3A;" d="M124.2,67.2c-0.4,2.2-1.6,3.5-2.4,5.3
		c-2-2.9,0.5-11.7,2.1-13.8c-1.9,0.2-2.7,1.5-3.6,2.2c0.7-2.6,2.4-5.2,1.6-7.9c-1.2,4.1-3.9,5.5-5.1,8.7c-2.7,7.3,1.3,14.4,4.3,17.3
		C123.5,81.2,126,69.3,124.2,67.2"/>
	<g>
		<path style="fill-rule:evenodd;clip-rule:evenodd;fill:#BA6400;" d="M154,126.8c0.1,0.1,0.1,0.2,0.2,0.2
			C154.1,127,154.1,126.9,154,126.8z"/>
		<path style="fill-rule:evenodd;clip-rule:evenodd;fill:#BA6400;" d="M154.2,127.1c0,0.1,0.1,0.1,0.1,0.2
			C154.3,127.2,154.3,127.1,154.2,127.1z"/>
		<path style="fill-rule:evenodd;clip-rule:evenodd;fill:#BA6400;" d="M152.1,122.5c0,0.2,0.1,0.4,0.1,0.6
			C152.2,122.9,152.2,122.7,152.1,122.5z"/>
		<path style="fill-rule:evenodd;clip-rule:evenodd;fill:#BA6400;" d="M154.3,127.2C154.4,127.3,154.4,127.3,154.3,127.2
			C154.4,127.3,154.4,127.3,154.3,127.2z"/>
		<path style="fill-rule:evenodd;clip-rule:evenodd;fill:#BA6400;" d="M153.6,126.2c0.1,0.2,0.3,0.5,0.4,0.6
			C153.9,126.6,153.8,126.4,153.6,126.2z"/>
		<path style="fill-rule:evenodd;clip-rule:evenodd;fill:#BA6400;" d="M154.5,126.9c0,0.3-0.1,0.5-0.1,0.5l0,0l0,0
			C154.4,127.4,154.5,127.2,154.5,126.9z"/>
		<path style="fill-rule:evenodd;clip-rule:evenodd;fill:#BA6400;" d="M153.4,125.8c0.1,0.1,0.1,0.3,0.2,0.4
			C153.5,126,153.5,125.9,153.4,125.8z"/>
		<path style="fill-rule:evenodd;clip-rule:evenodd;fill:#BA6400;" d="M152.9,124.8c0.1,0.2,0.1,0.3,0.2,0.5
			C153.1,125.1,153,125,152.9,124.8z"/>
		<path style="fill-rule:evenodd;clip-rule:evenodd;fill:#BA6400;" d="M132.4,121.6c1.3-0.1,2.9-0.1,4.6,0l-8.8-4.7
			c0,0-4.8-2.7-4.1-3.4c0.3-0.3,0.9-0.6,1.4-0.8c0.1,0,0.1-0.3,0-0.3c-1.9,0-5.8-0.4-7.1-1.9c-1.5-1.7-2.5-5-2.1-8.1
			c0.3-2.4,1.8-6.9,1.8-6.9c-2.2,3-3.3,6.2-3.3,13.3c0,7.8,2.3,7.3,5.7,8.1c4,0.9,8.5,2.8,12.8,5.1
			C132.9,121.8,132.7,121.7,132.4,121.6z"/>
		<path style="fill-rule:evenodd;clip-rule:evenodd;fill:#BA6400;" d="M153.2,125.3c0.1,0.1,0.1,0.3,0.2,0.4
			C153.3,125.6,153.2,125.5,153.2,125.3z"/>
		<path style="fill-rule:evenodd;clip-rule:evenodd;fill:#BA6400;" d="M152.3,123.1c0.2,0.6,0.4,1.1,0.6,1.6
			C152.7,124.3,152.5,123.7,152.3,123.1z"/>
		<path style="fill-rule:evenodd;clip-rule:evenodd;fill:#BA6400;" d="M139,125.3c0.1,0.1,0.2,0.1,0.4,0.2
			C139.3,125.4,139.2,125.3,139,125.3z"/>
		<path style="fill-rule:evenodd;clip-rule:evenodd;fill:#BA6400;" d="M141.4,123.9c0.4-0.1,0.8-0.1,1.2-0.1
			C142.2,123.8,141.8,123.8,141.4,123.9z"/>
		<path style="fill-rule:evenodd;clip-rule:evenodd;fill:#BA6400;" d="M137.9,124.6c0.1,0.1,0.3,0.1,0.4,0.2
			C138.1,124.7,138,124.7,137.9,124.6z"/>
		<path style="fill-rule:evenodd;clip-rule:evenodd;fill:#BA6400;" d="M139.9,125.8c0.1,0.1,0.3,0.2,0.4,0.2
			C140.1,125.9,140,125.8,139.9,125.8z"/>
		<path style="fill-rule:evenodd;clip-rule:evenodd;fill:#BA6400;" d="M151.9,120.5L151.9,120.5c0,0.2,0,0.4,0,0.7
			C151.9,121,151.9,120.8,151.9,120.5z"/>
		<path style="fill-rule:evenodd;clip-rule:evenodd;fill:#BA6400;" d="M152,121.2c0,0.2,0,0.4,0.1,0.6
			C152,121.6,152,121.4,152,121.2z"/>
		<path style="fill-rule:evenodd;clip-rule:evenodd;fill:#BA6400;" d="M149.1,126.9c0,0,0.1,0,0.1,0.1
			C149.1,127,149.1,126.9,149.1,126.9z"/>
		<path style="fill-rule:evenodd;clip-rule:evenodd;fill:#BA6400;" d="M152,121.9c0,0.2,0.1,0.4,0.1,0.6
			C152.1,122.3,152,122.1,152,121.9z"/>
		<path style="fill-rule:evenodd;clip-rule:evenodd;fill:#BA6400;" d="M137,124.1c0.1,0.1,0.3,0.1,0.4,0.2
			C137.3,124.2,137.1,124.1,137,124.1z"/>
		<path style="fill-rule:evenodd;clip-rule:evenodd;fill:#BA6400;" d="M157,123.6c1.6,1.2,1,4.6-0.1,6.5
			C158.1,128.2,158.6,124.8,157,123.6c-0.2-0.2-0.4-0.2-0.6-0.3C156.6,123.4,156.8,123.5,157,123.6z"/>
		<path style="fill-rule:evenodd;clip-rule:evenodd;fill:#BA6400;" d="M149,132c-0.1-0.1-0.2-0.2-0.4-0.3
			C148.8,131.8,148.9,131.9,149,132z"/>
		<path style="fill-rule:evenodd;clip-rule:evenodd;fill:#BA6400;" d="M148.6,131.7c-0.1-0.1-0.2-0.2-0.4-0.3
			C148.4,131.5,148.5,131.6,148.6,131.7z"/>
		<path style="fill-rule:evenodd;clip-rule:evenodd;fill:#BA6400;" d="M148.1,131.3c-0.1-0.1-0.3-0.2-0.5-0.3
			C147.8,131.1,148,131.2,148.1,131.3z"/>
		<path style="fill-rule:evenodd;clip-rule:evenodd;fill:#BA6400;" d="M149.4,132.3c-0.1-0.1-0.2-0.2-0.3-0.3
			C149.2,132.2,149.3,132.3,149.4,132.3z"/>
		<path style="fill-rule:evenodd;clip-rule:evenodd;fill:#BA6400;" d="M147.6,130.9c-0.1-0.1-0.3-0.2-0.4-0.3
			C147.3,130.7,147.4,130.8,147.6,130.9z"/>
		<path style="fill-rule:evenodd;clip-rule:evenodd;fill:#BA6400;" d="M135.8,123.4c0.1,0.1,0.3,0.1,0.4,0.2
			C136.1,123.5,135.9,123.5,135.8,123.4z"/>
		<path style="fill-rule:evenodd;clip-rule:evenodd;fill:#BA6400;" d="M153.7,131.4c0.7-0.1,1.4-0.3,1.9-0.4
			C155.1,131.1,154.5,131.3,153.7,131.4z"/>
		<path style="fill-rule:evenodd;clip-rule:evenodd;fill:#BA6400;" d="M150.9,128.5c1,0.9,2.1,2,2.8,2.9
			C153,130.5,151.9,129.4,150.9,128.5z"/>
		<path style="fill-rule:evenodd;clip-rule:evenodd;fill:#BA6400;" d="M147,130.5c-0.2-0.1-0.3-0.2-0.5-0.4
			C146.6,130.2,146.8,130.4,147,130.5z"/>
		<path style="fill-rule:evenodd;clip-rule:evenodd;fill:#BA6400;" d="M145.8,127.2c2.5,1.7,4.4,3.4,5.3,5c-0.3,0.1-0.6,0.1-0.9,0.1
			c0.3,0,0.6-0.1,0.9-0.1C150.3,130.5,148.4,128.8,145.8,127.2z"/>
		<path style="fill-rule:evenodd;clip-rule:evenodd;fill:#BA6400;" d="M149.4,127.2c0.1,0.1,0.2,0.2,0.3,0.3
			C149.6,127.4,149.5,127.3,149.4,127.2z"/>
		<path style="fill-rule:evenodd;clip-rule:evenodd;fill:#BA6400;" d="M142.2,127.2c-0.1-0.1-0.3-0.2-0.4-0.3
			C141.9,127,142,127.1,142.2,127.2z"/>
		<path style="fill-rule:evenodd;clip-rule:evenodd;fill:#BA6400;" d="M141.3,126.7c-0.1-0.1-0.2-0.2-0.4-0.2
			C141.1,126.5,141.2,126.6,141.3,126.7z"/>
		<path style="fill-rule:evenodd;clip-rule:evenodd;fill:#BA6400;" d="M146.3,130c-0.1-0.1-0.3-0.2-0.4-0.3
			C146,129.8,146.1,129.9,146.3,130z"/>
		<path style="fill-rule:evenodd;clip-rule:evenodd;fill:#BA6400;" d="M134.8,122.9c0.2,0.1,0.3,0.2,0.5,0.3
			C135.2,123,135,122.9,134.8,122.9z"/>
		<path style="fill-rule:evenodd;clip-rule:evenodd;fill:#BA6400;" d="M133.7,122.2c0.1,0.1,0.3,0.1,0.4,0.2
			C134,122.4,133.8,122.3,133.7,122.2z"/>
		<path style="fill-rule:evenodd;clip-rule:evenodd;fill:#BA6400;" d="M145.6,129.5c-0.2-0.1-0.4-0.3-0.6-0.4
			C145.2,129.2,145.4,129.4,145.6,129.5z"/>
		<path style="fill-rule:evenodd;clip-rule:evenodd;fill:#BA6400;" d="M143.1,127.8c-0.1-0.1-0.3-0.2-0.4-0.3
			C142.9,127.7,143,127.7,143.1,127.8z"/>
		<path style="fill-rule:evenodd;clip-rule:evenodd;fill:#BA6400;" d="M144.8,128.9c-0.1-0.1-0.3-0.2-0.4-0.3
			C144.5,128.7,144.6,128.8,144.8,128.9z"/>
		<path style="fill-rule:evenodd;clip-rule:evenodd;fill:#BA6400;" d="M144.1,128.5c-0.2-0.1-0.4-0.3-0.6-0.4
			C143.7,128.2,143.9,128.3,144.1,128.5z"/>
	</g>
	<g>
		
			<linearGradient id="SVGID_2_" gradientUnits="userSpaceOnUse" x1="109.2799" y1="93.992" x2="109.4598" y2="94.3035" gradientTransform="matrix(1 0 0 -1 0 202)">
			<stop  offset="0" style="stop-color:#F7931E"/>
			<stop  offset="0.1499" style="stop-color:#FAAB2E"/>
			<stop  offset="0.3592" style="stop-color:#FDC53F"/>
			<stop  offset="0.546" style="stop-color:#FED54A"/>
			<stop  offset="0.6902" style="stop-color:#FFDB4E"/>
		</linearGradient>
		<path style="fill:url(#SVGID_2_);" d="M109.4,107.6c0,0.1,0,0.2-0.1,0.4c0,0,0,0,0.1,0V107.6z"/>
		
			<linearGradient id="SVGID_3_" gradientUnits="userSpaceOnUse" x1="86.3003" y1="18.5188" x2="130.3073" y2="94.7413" gradientTransform="matrix(1 0 0 -1 0 202)">
			<stop  offset="0" style="stop-color:#F7931E"/>
			<stop  offset="0.1499" style="stop-color:#FAAB2E"/>
			<stop  offset="0.3592" style="stop-color:#FDC53F"/>
			<stop  offset="0.546" style="stop-color:#FED54A"/>
			<stop  offset="0.6902" style="stop-color:#FFDB4E"/>
		</linearGradient>
		<path style="fill:url(#SVGID_3_);" d="M129.8,158.6c-0.4-11.7-6.8-20.4-12.6-27.4c3.5,1.2,6.8,3.1,9.5,6.7
			c-0.5-9.4-20-16.4-17.5-29.8c-0.1,0.1-0.2,0.2-0.3,0.2c0.4-1,0.9-2,1.4-2.9c1.4-2.8,2.6-5.3,4.3-7.1l0,0
			c-9.6,4-18.6,14.7-22.8,24.8l4-2.5c0,0-5.5,7.3-9.2,18.8l5.9-2.9c0,0-1.4,1-3.9,4.5c-1,1.4-1.6,2.2-2.7,4.2
			c-0.6,1-1.9,3.4-2.3,4.7c-3.5,10.1-4,15.8-4,15.8c5.8-6.6,6.8-7,12.7-10c-1.8,4.4-3.8,9.8-3.9,15.7c0,0-0.4,5,0,8.4l0.2,2
			c0.2,1.8,1.1,3.5,2.6,4.5c1.1,0.7,3.6,1.9,5.7,2.4c4.4,1,7.1,1.7,11.8,1.4l1.4-2.7l0.2-0.1l0.1-0.1c0.7-0.1,1.1-0.2,1.1-0.2v-0.7
			l6.1-5.4l-0.4-3.8c5.1-7.9,7.5-12.3,6.9-24.3C126.4,154.1,128.3,156.2,129.8,158.6z"/>
	</g>
	<path style="fill-rule:evenodd;clip-rule:evenodd;fill:#BA6400;" d="M99.8,128.8c3.9,12.1,14.2,23.3,14.2,23.3l-7,2.2
		c0,0,8.3,3.3,9,19.6c7.6-16.3-0.3-29.6-0.3-29.6s2.7,0.5,7.3,3.6c-6.5-13.6-15.3-20-15.3-20s1.4-1.1,6.2-0.4
		c-3.4-2.5-7.5-8.2-8.9-9.9c-0.6-0.7-1.4-3-1-4.4c0.7-2.7,2.2-4.6,5.4-6.1c-1.3,13.3,16.9,21,17.4,30.5c-2.7-3.6-6-5.5-9.5-6.7
		c5.7,7,12.2,15.7,12.6,27.4c-1.6-2.3-3.4-4.5-6-5.7c6.9,15.4-1.4,29.4-15.2,37.2c2.4-10.8,4.4-18.5-1.6-27.3
		c-3.7-5.3-6.9-6.9-9.2-11.6c-0.6-1.3-1.1-4.5-1.1-6c0-2-0.1-4.5,0.3-7.2C97.7,134.3,99.8,128.8,99.8,128.8z"/>
	<path style="fill:#300038;" d="M112.1,68.8c-6.4-4.3-12.6-10.7-15.2-17.2c5.7-3.7,9-8.3,8-14c-1.5,3.4-5.9,5.9-9.2,6.3
		c0.1-1.2,0.4-2.4,0.9-3.6c3.9-9.5,19.4-12.3,30.1-7.1c-2.5-8.4-21.7-21-39.3-8.1c1.2-14.7,14.2-21,28.6-16.5
		c-13.5-12.8-32-8.1-41.2,2.1c-4.2,4.7-6,10.8-5.9,17.4c-0.2-0.4-0.4-0.8-0.6-1.2c-2.3-5.5-3.4-14.2,3.4-14.1
		c-4.6-2.3-12.5,0.1-12.2,11c-5.6-7.3-3.7-17.9,4.5-19c-11.3-3.1-18.1,5.8-17.7,12.8c0.3,6.9,8.2,14.5,17.6,18.9
		c2.7,1.3,5,2.4,7.1,3.4c1.3,3.7,3,7.4,5.3,10.8c0.8,1.3,1.7,2.5,2.6,3.7c-5.2,0.6-14.7-3.6-19.5-6.3c-1.2-0.7-3.4-2.3-4.7-3.4
		c1.5-0.3,3.8-0.7,6-2.1c3-1.9,4.2-4,4.2-4s-5.7,1.2-9.7,0.8s-9.2-4-11.5-6.4c-1.3-1.4-3.4-3.8-5.3-10.2c-1.4-5,0.3-10.7,0.3-10.7
		s-2.3,2.5-3.2,9.2c-0.3,1.9-0.2,3.5-0.1,5c-7.5-4-10.2-12.7-10.2-12.7s0.2,8.8,3.4,17.4c3.8,10.1,11,17.6,23.8,24.7c0,0,0,0,0.1,0
		c-2.2,0.8-5.8,0.6-12-1.7c-3.8-1.4-6.7-3.8-6.7-3.8s3.1,7.9,10.6,11c3.8,1.6,7.3,3.6,15.9,1.7c0.8-0.2,1.5-0.4,2.1-0.6
		c14.7,9,25.1,11.8,33.3,10.4c0.2,0,0.4-0.1,0.6-0.1c4.1,3.5,8.4,6.7,12.8,9.6L112.1,68.8z"/>
	
		<linearGradient id="SVGID_4_" gradientUnits="userSpaceOnUse" x1="-743.3795" y1="341.5505" x2="-732.8251" y2="326.397" gradientTransform="matrix(0.9 -0.4359 -0.4359 -0.9 874.8603 2.7433)">
		<stop  offset="0" style="stop-color:#FBBC19"/>
		<stop  offset="0.2618" style="stop-color:#FBBC19"/>
		<stop  offset="0.5881" style="stop-color:#F7931E"/>
		<stop  offset="0.6461" style="stop-color:#ED8C1C"/>
		<stop  offset="0.7452" style="stop-color:#D27915"/>
		<stop  offset="0.8725" style="stop-color:#A55B0B"/>
		<stop  offset="0.9944" style="stop-color:#753A00"/>
	</linearGradient>
	<path style="fill-rule:evenodd;clip-rule:evenodd;fill:url(#SVGID_4_);" d="M77.5,37.3C72.2,36.6,67.2,35,62,31.8
		s-8.4-6.2-10.1-9.9C51,20.1,48.2,13,55.2,8.8c-3.3,4.6-5.8,10.6,8.6,21.9C60,25.1,61.7,20.3,64,18.1c-1.4,2.5-0.8,6.2,0.6,9.5
		c1.5,3.4,7.8,7.4,12.2,8L77.5,37.3z"/>
	
		<linearGradient id="SVGID_5_" gradientUnits="userSpaceOnUse" x1="-540.1102" y1="360.7292" x2="-619.283" y2="363.486" gradientTransform="matrix(0.9343 -0.3565 -0.3565 -0.9343 747.6192 174.6076)">
		<stop  offset="0.7044" style="stop-color:#FBBC19"/>
		<stop  offset="0.8026" style="stop-color:#FAB31A"/>
		<stop  offset="0.9655" style="stop-color:#F8991D"/>
		<stop  offset="1" style="stop-color:#F7931E"/>
	</linearGradient>
	<path style="fill-rule:evenodd;clip-rule:evenodd;fill:url(#SVGID_5_);" d="M84.7,41.2c-8-16.8-2.3-31,8.8-36.2
		C81.7,6.4,73.1,19.9,75.9,33.6c1.4,7,6,14.4,11.2,21c-1,0.9-2.5,2-4.2,2.7c-3.7,1.4-12.2,1.5-20-2.6c-5.2-2.7-12-6.9-15.9-10.4
		c1.2-0.1,4.4-0.5,5.7-0.7c3-0.7,4.4-1.8,4.4-1.8S55.3,42,53.9,42c-2.9-0.1-5.5,0-7-0.8c-2.1-1-4.2-3.4-6.4-5.8
		c-2.3-2.4-2.9-7.9-2.9-7.9s-0.8,1-0.7,3.1c0.1,1,0.5,3.4,1.3,5.3c-1.9-0.2-3.4-2.3-4.1-3.2c-3.2-4.1-5.2-9-5.2-9s0.8,3.6,2.3,6.7
		C37,42,43.4,45.7,48,49.1c2,1.5,6.1,4,10.9,6.6c-0.9,0.8-3.2,2.3-7.3,2.5c-5.5,0.3-9-1.6-9-1.6s6.4,4.4,11.3,4
		c3.9-0.3,8.6-1.6,10.4-2.1c4.6,2.3,9.3,4.4,12.7,5.5c6,1.9,10.6,3.9,16.4,1.2c0.8-0.3,1.3-0.7,1.7-1c2.7,2.7,6.9,3.4,9.1,5.1
		c-5.3-7-13-15.7-14.2-22c-1.9-14.1,11.1-23.2,23.4-21.1C100.9,20.1,84.7,26.2,84.7,41.2z"/>
</g>
</svg>
