<?xml version="1.0" encoding="utf-8"?>
<!-- Generator: Adobe Illustrator 28.3.0, SVG Export Plug-In . SVG Version: 6.00 Build 0)  -->
<svg version="1.1" id="Layer_1" xmlns="http://www.w3.org/2000/svg" xmlns:xlink="http://www.w3.org/1999/xlink" x="0px" y="0px"
	 viewBox="0 0 529.1 540.4" style="enable-background:new 0 0 529.1 540.4;" xml:space="preserve">
<path style="fill-rule:evenodd;clip-rule:evenodd;fill:#FFFFFF;" d="M510.5,328.6h3.5c4.6,0,8.9,2.1,11.8,5.7
	c2.9,3.6,4,8.3,2.9,12.8l-7.3,32c-1.4,6-6.1,10.4-11.9,11.5l-8.4,33.1c1.7,0.9,3.2,2.2,4.5,3.7c3.2,4,4.2,9.2,2.7,14.1l-9.8,31
	c-1.8,5.6-6.6,9.7-12.4,10.4L341,502l-6,14.1c-4.5,11-14.1,17.5-25.8,18.7l-12.1,1.2l-30.5,4.1c-1.4,0.2-2.7,0.2-4.1,0L232,536
	l-12.1-1.2c-11.7-1.2-21.2-7.7-25.7-18.6l-6-14.2L43.1,482.9c-5.9-0.8-10.7-4.8-12.4-10.4l-9.8-31c-1.5-4.9-0.6-10.1,2.7-14.1
	c1.3-1.5,2.8-2.8,4.5-3.7l-8.4-33.1c-5.8-1.1-10.6-5.5-11.9-11.5l-7.3-32c-1-4.5,0-9.2,2.9-12.8c2.9-3.6,7.2-5.7,11.8-5.7h3.5
	c-6.9-23.5-10.4-47.8-10.4-72.3C8.2,114.8,123,0,264.5,0S521,114.8,520.8,256.3c0,23.5-3.5,48.9-10.4,72.3"/>
<path style="fill-rule:evenodd;clip-rule:evenodd;fill:#0D1A26;" d="M496.1,339.1c9.2-25.9,14.3-53.7,14.3-82.8
	c0-135.8-110.1-245.8-245.8-245.8S18.5,120.5,18.7,256.3c0.1,52.5,6.2,55.1,14.3,82.8H15.1c-1.5,0-2.7,0.6-3.6,1.8
	c-0.9,1.1-1.2,2.5-0.9,3.9l7.3,32c0.5,2.1,2.3,3.6,4.5,3.6h5.4l13.3,52.5l-5.4-0.6c-1.6-0.2-3.1,0.4-4.1,1.7c-1,1.3-1.3,2.8-0.8,4.3
	l9.8,31c0.6,1.8,2,3,3.8,3.2l151.1,19.9l8.3,19.7c3,7.4,9.3,11.5,17.2,12.3l12.2,1.3l30.7,4.2c0.4,0,0.8,0,1.3,0l30.7-4.2l12.2-1.3
	c7.9-0.8,14.1-4.9,17.2-12.3l8.3-19.7l151.1-19.9c1.8-0.2,3.3-1.4,3.8-3.2l9.8-31c0.5-1.5,0.2-3.1-0.8-4.3c-1-1.3-2.5-1.9-4.1-1.7
	l-5.4,0.6l13.3-52.5h5.4c2.2,0,4.1-1.5,4.5-3.6l7.3-32c0.3-1.4,0-2.8-0.9-3.9s-2.2-1.8-3.6-1.8L496.1,339.1L496.1,339.1z"/>
<path style="fill-rule:evenodd;clip-rule:evenodd;fill:#0D1A26;" d="M264.5,502.1c135.8,0,245.8-110.1,245.8-245.8
	S400.3,10.5,264.5,10.5S18.7,120.5,18.7,256.3S128.8,502.1,264.5,502.1"/>
<path style="fill-rule:evenodd;clip-rule:evenodd;fill:#EC6618;" d="M249.6,469.9c118,8.2,220.3-80.7,228.5-198.7
	c8.2-118-80.7-220.3-198.7-228.5C161.5,34.5,59.2,123.4,50.9,241.4C42.7,359.4,131.6,461.7,249.6,469.9"/>
<path style="fill-rule:evenodd;clip-rule:evenodd;fill:#FFFFFF;" d="M372.4,176.9c22.7,0,41.1-18.4,41.1-41.1s-18.4-41.1-41.1-41.1
	s-41.1,18.4-41.1,41.1S349.7,176.9,372.4,176.9"/>
<path style="fill-rule:evenodd;clip-rule:evenodd;fill:#0D1A26;" d="M475.1,215.5v-1.4V215.5z M475.1,209.3v6.3H281.8v-17.3h4.5
	v-1.4h8.4v-3.1h1.2v-1.2h3.3v-5.9h0.4v5.9h2v-5.9h0.4v5.9h2v-5.9h0.4v5.9h8.2v1.2h1.1v15.6h1.4v-20.6h2.9v-8.7h4.2v-3.2h3.9v-5.4
	h0.5v5.4h3.8v3.2h3.1v8.7h2.8v20.6h4.2v-47.6c2.1-4.7,4.2-9.5,6.3-14.2c3.9,0.8,7.7,1.5,11.6,2.3c1.8,4,3.7,7.9,5.5,11.9v47.6h4.6
	v-19.6h2.8v-3.2h6v-4.4h0.6v4.4h6v3.2h2.8v0.9c0.6,0,1.1,0.5,1.1,1.2s-0.5,1.1-1.1,1.2v0.4c0.6,0,1.1,0.5,1.1,1.2s-0.5,1.1-1.1,1.2
	v0.4c0.6,0,1.1,0.5,1.1,1.2s-0.5,1.1-1.1,1.2v0.4c0.6,0,1.1,0.5,1.1,1.2s-0.5,1.1-1.1,1.2v0.4c0.6,0,1.1,0.5,1.1,1.2
	s-0.5,1.1-1.1,1.2v0.4c0.6,0,1.1,0.5,1.1,1.2s-0.5,1.1-1.1,1.2v0.4c0.6,0,1.1,0.5,1.1,1.2s-0.5,1.1-1.1,1.2l0,0h6.7
	c0-11.2,0-18.6,0-23.5v-15.6c0-1,0-1.5,0-2.7l0.2-3.1l6.7-25.6l8.5,2.2l10,19.5V210h7.9v-25.9h2.9v-8.7h4.2v-3.2h3.9v-5.4h0.5v5.4
	h3.8v3.2h3.1v8.7h2.8V210h7.5v-19.7h2.8v-3.2h6v-4.4h0.6v4.4h6v3.2h2.8v0.9c0.6,0,1.1,0.5,1.1,1.2c0,0.6-0.5,1.1-1.1,1.2v0.4
	c0.6,0,1.1,0.5,1.1,1.2c0,0.6-0.5,1.1-1.1,1.2v0.4c0.6,0,1.1,0.5,1.1,1.2c0,0.6-0.5,1.1-1.1,1.2v0.4c0.6,0,1.1,0.5,1.1,1.2
	c0,0.6-0.5,1.1-1.1,1.2v0.4c0.6,0,1.1,0.5,1.1,1.2c0,0.6-0.5,1.1-1.1,1.2v0.4c0.6,0,1.1,0.5,1.1,1.2c0,0.6-0.5,1.1-1.1,1.2v0.4
	c0.6,0,1.1,0.5,1.1,1.2c0,0.6-0.5,1.1-1.1,1.2v0.2h1.1L475.1,209.3z"/>
<path style="fill-rule:evenodd;clip-rule:evenodd;fill:#FFFFFF;" d="M151.4,352.1c-1.3,0.9-2.8,1.6-4.3,2.1c0.1,1.1,0,2.2-0.4,3.2
	c-1,2.6-3.4,4.2-6.2,4.2H79.9c-0.4,0-0.8,0-1.2-0.1h-0.6C58.2,326.1,48,284.8,51,241.3c8.2-118,110.5-206.9,228.5-198.7
	c9.3,0.7,18.5,1.9,27.4,3.7c6.1,5.1,11.5,11.1,15.6,18c7.2,12.1,9.8,26.3,6,40c-4.5,16.4-17,28.4-32.5,34.6c-0.5,0.2-1,0.4-1.6,0.6
	c-0.5,2.7-1.7,5.3-3.5,7.4c-0.7,3.1-1.7,6.1-2.9,9c6.5,6,10.9,13.7,11.3,23c0.5,12.1-5.1,25.5-8.7,37.2c3.7,2.8,7.5,6,10.8,9.3
	c10.8-4.3,22.1-7,33.7-8.1c24.4-2.5,48.6,1.4,72.7,4.9c22.6,3.3,45.5,6.1,68.3,3.1h0.5c2.2,14.9,2.8,30.3,1.7,45.9
	c-2.3,33.3-12.2,64.4-27.8,91.5c-3-1.1-5.9-2.2-8.9-3.4l-13.5,3.2c-16.6,4-33.2,7.9-49.8,11.9l-4.7,1.1c-1.9,0.4-3.7,0.1-5.2-1
	l-4-2.7c-9.7-6.6-20-12.4-29.8-18.9l-17.2-1.1c-0.9,1.2-2,2.2-3.2,3.1c0,0.4,0,0.8,0,1.2c-0.5,3.3-3.2,5.6-6.5,5.6H171.2
	c-1.1,0-2-0.2-2.9-0.7l-2.3-1.1C161.1,357.5,156.2,354.9,151.4,352.1"/>
<path style="fill-rule:evenodd;clip-rule:evenodd;fill:#0D1A26;" d="M492.1,214.4h-410v71.1h413.3c0.9-8.2,1.3-16.5,1.3-24.9
	C496.7,244.8,495.1,229.3,492.1,214.4"/>
<path style="fill-rule:evenodd;clip-rule:evenodd;fill:#25B3B5;" d="M248.1,107.5c-20.3,2-36.4,11.8-49.1,28.3c0,0,0.2,0,0.3,0
	c2.9,0,6.1,0,9.4,0C218.5,122.7,231.6,113.3,248.1,107.5 M132.1,277.7C58.8,231.5,78.5,139.6,166.3,90c0.3-0.2,0.6,0,0.8,0.2
	c0.2,0.3,0.2,0.6,0,0.9c-3.7,4.3-7.3,8.7-10.5,13.2c-0.2,0.3-0.2,0.6,0,0.8c0.2,0.2,0.6,0.3,0.8,0c28.8-20,49.4-23,64.4-14.8
	c0.3,0.1,0.4,0.4,0.3,0.7c0,0.3-0.3,0.5-0.6,0.5c-37.9,4.1-58.5,31-66.4,63.2c0,0.3,0,0.6,0.4,0.8c0.3,0.1,0.6,0,0.8-0.2
	c18.3-24.4,41.6-44.6,66.6-52.3c0.3,0,0.5-0.4,0.5-0.7c0-0.3-0.2-0.6-0.5-0.6c-3.9-0.7-7.8-1-11.9-0.7c-0.3,0-0.6-0.2-0.7-0.5
	c0-0.3,0-0.6,0.3-0.8c7.5-4.3,15.9-5.1,24.9-3.3c12.2,1.9,12.1-6,7.7-13.4c-3-4.9-8.4-9.3-13.3-12.7c23.1,0.1,40,8,46.7,28.8
	c0.1,0.3,0.4,0.5,0.7,0.5c0.3,0,0.6-0.3,0.6-0.7c0-4.3,0-8.6,0.2-12.8c0-0.3,0.2-0.5,0.4-0.6c0.3,0,0.5,0,0.7,0.2
	c8.5,10,9.3,21.6,8.8,36.2c0,0.2,0,0.4,0.3,0.6c0.2,0.1,0.4,0.2,0.6,0c31.7-12.8,33.4-52.3-10.2-73.1c-0.3-0.1-0.5,0-0.7,0.1
	c-0.2,0.2-0.3,0.5-0.1,0.7c1.3,2.8,2.1,5.8,2.6,8.8c0,0.3,0,0.6-0.4,0.7c-0.3,0.1-0.6,0-0.8-0.1c-13.1-13.4-21.6-18.4-41-16.1
	C147.5,54.4,74.2,122.2,55,210.2c10.9,7.6,18.5,17.2,23.7,28.2c0.1,0.3,0,0.6-0.2,0.8c-0.3,0.2-0.6,0.2-0.9,0
	c-9.5-9.7-19.2-15.1-25.3-14c-1.5,10.1-2.2,20.4-2.2,31s1.4,28.5,4.1,42.1l9.5-0.4c0.3,0,0.6,0.2,0.7,0.5
	c3.5,16.2,10.4,31.4,20.7,45.6h26.2c-15-13.4-27-29.1-36-47.1c-0.2-0.3,0-0.7,0.2-0.8c0.3-0.2,0.7-0.1,0.9,0.1
	c17,20.7,38.1,35.9,64.3,41.3c0.3,0,0.7-0.1,0.8-0.5c0.1-0.3,0-0.7-0.4-0.8c-33.9-13.4-55.9-37.1-72.6-65.4
	c-0.2-0.3-0.1-0.7,0.2-0.9c0.3-0.2,0.6-0.2,0.9,0c10.5,10.5,23,14,36.7,13.2c0.3,0,0.5,0.1,0.6,0.3c14,26.1,36.8,45.8,66.5,60.3
	h61.3c-35.3-11-67.2-25.6-92.7-47.2c-0.2-0.2-0.3-0.5-0.2-0.8s0.4-0.4,0.7-0.4c11.3,1,37.2,16.7,34.3-4.4c0-0.3,0.1-0.6,0.4-0.7
	c0.3-0.1,0.6,0,0.8,0.2c12.7,18,26.3,32.9,42.5,39.6c0.3,0.1,0.7,0,0.8-0.3c0.2-0.3,0-0.7-0.2-0.9c-10.2-7-18.7-15.9-26-26.4
	c-0.2-0.3-0.2-0.6,0-0.8c0.2-0.2,0.6-0.3,0.8-0.1l14.9,9.3l0,0c12.9,8.6,5.1-18.1-19.9-38.8c-18.7-15.5-41.5-22.7-42.4-1.2
	c0,0.3-0.2,0.5-0.4,0.6c-0.3,0-0.5,0-0.7-0.2c-34-39.3-49.2-79.6-31.8-121.7c0.1-0.3,0-0.7-0.3-0.8c-0.3-0.2-0.6-0.1-0.9,0.2
	c-28.6,35.4-26.5,80.2,18.2,127.4c0.2,0.2,0.2,0.6,0,0.9s-0.6,0.3-0.9,0.1L132.1,277.7z"/>
<path style="fill-rule:evenodd;clip-rule:evenodd;fill:#25B3B5;" d="M123,155.9c5.9-14.2,15.7-25.5,27.3-35.3c0.2-0.2,0.6-0.2,0.8,0
	c0.3,0.2,0.3,0.6,0.2,0.8c-27.9,49.3-12.5,89.2,10.7,127.6c-4.4-0.2-8.7,0.7-12.5,3.1c-1.4,0.9-2.7,2-3.8,3.2
	C123.2,226.1,109.2,192.6,123,155.9"/>
<path style="fill-rule:evenodd;clip-rule:evenodd;fill:#25B3B5;" d="M243.6,311.4c-10.8-4.6-18.9-11.7-25.6-19.9
	c-0.2-0.3-0.6-0.3-0.8-0.2c-0.3,0.2-0.4,0.5-0.3,0.8c10.6,32,44.1,47.7,85.5,48.6c0.3,0,0.6-0.2,0.7-0.6c0-0.3-0.2-0.6-0.5-0.7
	c-13.7-3.8-27-9-37.8-16c-0.3-0.2-0.4-0.6-0.2-0.9c0.2-0.3,0.5-0.4,0.8-0.3c15.4,6.2,31.4,9.3,46.4,10.3c-0.9-0.6-1.7-1.4-2.4-2.3
	l-48.8-44.8c-0.6,2.7-2.6,4.8-5.2,5.7c-0.4,0.1-0.8,0.4-1.2,0.7c0.4,4.4,1.5,8-2.9,10.6c-0.2,0.1-0.3,0.3-0.3,0.5s0,0.4,0.2,0.6
	c6,4.8,12.3,9.2,18.5,13.3c0.3,0.2,0.4,0.6,0.2,0.9c-0.2,0.3-0.5,0.4-0.8,0.3c-8.8-3.4-17.2-7.5-25.4-12.3c-0.2-0.1-0.5-0.1-0.8,0
	c-0.2,0.2-0.3,0.5-0.2,0.7c0.5,1.4,1,2.7,1.5,4.1c0,0.3,0,0.5-0.2,0.7s-0.5,0.2-0.7,0.1"/>
<path style="fill-rule:evenodd;clip-rule:evenodd;fill:#0D1A26;" d="M232.6,331.3c0,0.2,0,0.3,0,0.5c0.4,0.1,0.8,0.3,1.3,0.4
	c-0.4-0.3-0.8-0.6-1.2-0.9 M286,239.1l15.1-6.5c11.1-4.8,22.6-7.6,34.6-8.8c23.7-2.4,47.6,1.5,71.1,4.9c23.3,3.4,46.5,6.3,70.1,3.1
	l11.7-1.6l0.7,11.8c0.3,5.4,0.5,10.7,0.4,16.1v0.2h0.2l-0.2,4.1v9.4h-0.5l0,0c-0.9,12.9-2.9,25.8-6,38.3l-0.5,1.9h0.3l-1.5,4.8
	l-1.1,4.7h-0.3l-0.6,1.9c-3,9.6-6.6,19-10.9,28.1l-4.3,9.2l-9.5-3.6c-4.2-1.6-8.5-3.2-12.7-4.9l-15.5,3.7
	c-16.6,4-33.2,7.9-49.8,11.9l-4.7,1.1l-4-2.7c-10.4-7.1-20.9-12.8-31.3-19.9l-23.1-1.5c-1.6,4.8-6.1,6.9-11.4,6.8
	c-2.1,0-4.2-0.1-6.2-0.2l11.6,3.6H171.2l-2.3-1.1c-6.3-3.1-12.4-6.4-18.3-10.1c-2.6,3.5-7.2,5.4-11.7,4.5c-2.8-0.6-5.5-1.2-8.2-2
	l9.8,8.7H79.9l-15.6-2.8c-9.1-12.6-3.7-28.1-8-42.9l-10.6,0.5l-1.8-9.3c-2.9-14.6-4.3-29.4-4.3-44.2s0.8-21.8,2.3-32.5l1.2-7.9h0.8
	c0-0.1-0.6-0.6-0.6-0.6l1.6-7.2c20-93.2,97.6-163.9,192.4-175.3c15.5-1.9,26,0.4,36,7.1c3.2-1.7,7.1-1.9,10.6-0.2
	c13.1,6.3,25.4,15.4,32.9,28.1c6.3,10.6,8.6,22.9,5.3,34.9c-4,14.4-15,24.8-28.6,30.3c-3.7,1.5-7.8,1-11-1.3s-5.1-6-5-10
	c0.1-3.6,0.2-7.3,0-11c-4.9,0-9.2-2.8-10.7-7.7c-6.1,0.5-7.9,4.5-5.5,12.1l-9.2,3.2c-13.8,4.9-25.6,12.3-34.5,24.1l-3.5,4.6
	c-4.9-0.2-9.6-0.4-14.5-0.3L286,239.1L286,239.1z"/>
<path style="fill-rule:evenodd;clip-rule:evenodd;fill:#25B3B5;" d="M243.6,311.4c-10.8-4.6-18.9-11.7-25.6-19.9
	c-0.2-0.3-0.6-0.3-0.8-0.2c-0.3,0.2-0.4,0.5-0.3,0.8c10.6,32,44.1,47.7,85.5,48.6c0.3,0,0.6-0.2,0.7-0.6c0-0.3-0.2-0.6-0.5-0.7
	c-13.7-3.8-27-9-37.8-16c-0.3-0.2-0.4-0.6-0.2-0.9c0.2-0.3,0.5-0.4,0.8-0.3c15.4,6.2,31.4,9.3,46.4,10.3c-0.9-0.6-1.7-1.4-2.4-2.3
	l-48.8-44.8c4,2.1,0.7,15.4-9.2,17c-0.2,0-0.3,0.3-0.3,0.5s0,0.4,0.2,0.6c6,4.8,12.3,9.2,18.5,13.3c0.3,0.2,0.4,0.6,0.2,0.9
	c-0.2,0.3-0.5,0.4-0.8,0.3c-8.8-3.4-17.2-7.5-25.4-12.3c-0.2-0.1-0.5-0.1-0.8,0c-0.2,0.2-0.3,0.5-0.2,0.7c0.5,1.4,1,2.7,1.5,4.1
	c0,0.3,0,0.5-0.2,0.7s-0.5,0.2-0.7,0.1 M123,155.9c5.9-14.2,15.7-25.5,27.3-35.3c0.2-0.2,0.6-0.2,0.8,0c0.3,0.2,0.3,0.6,0.2,0.8
	c-27.9,49.3-12.5,89.2,10.7,127.6c-4.4-0.2-8.7,0.7-12.5,3.1c-1.4,0.9-2.7,2-3.8,3.2C123.2,226.1,109.2,192.6,123,155.9L123,155.9z
	 M248.1,107.5c-20.3,2-36.4,11.8-49.1,28.3c0,0,0.2,0,0.3,0c2.9,0,6.1,0,9.4,0C218.5,122.7,231.6,113.3,248.1,107.5z M132.1,277.7
	C58.8,231.5,78.5,139.6,166.3,90c0.3-0.2,0.6,0,0.8,0.2c0.2,0.3,0.2,0.6,0,0.9c-3.7,4.3-7.3,8.7-10.5,13.2c-0.2,0.3-0.2,0.6,0,0.8
	c0.2,0.2,0.6,0.3,0.8,0c28.8-20,49.4-23,64.4-14.8c0.3,0.1,0.4,0.4,0.3,0.7c0,0.3-0.3,0.5-0.6,0.5c-37.9,4.1-58.5,31-66.4,63.2
	c0,0.3,0,0.6,0.4,0.8c0.3,0.1,0.6,0,0.8-0.2c18.3-24.4,41.6-44.6,66.6-52.3c0.3,0,0.5-0.4,0.5-0.7c0-0.3-0.2-0.6-0.5-0.6
	c-3.9-0.7-7.8-1-11.9-0.7c-0.3,0-0.6-0.2-0.7-0.5c0-0.3,0-0.6,0.3-0.8c7.5-4.3,15.9-5.1,24.9-3.3c12.2,1.9,12.1-6,7.7-13.4
	c-3-4.9-8.4-9.3-13.3-12.7c23.1,0.1,40,8,46.7,28.8c0.1,0.3,0.4,0.5,0.7,0.5c0.3,0,0.6-0.3,0.6-0.7c0-4.3,0-8.6,0.2-12.8
	c0-0.3,0.2-0.5,0.4-0.6c0.3,0,0.5,0,0.7,0.2c8.5,10,9.3,21.6,8.8,36.2c0,0.2,0,0.4,0.3,0.6c0.2,0.1,0.4,0.2,0.6,0
	c31.7-12.8,33.4-52.3-10.2-73.1c-0.3-0.1-0.5,0-0.7,0.1c-0.2,0.2-0.3,0.5-0.1,0.7c1.3,2.8,2.1,5.8,2.6,8.8c0,0.3,0,0.6-0.4,0.7
	c-0.3,0.1-0.6,0-0.8-0.1c-13.1-13.4-21.6-18.4-41-16.1C147.5,54.4,74.2,122.2,55,210.2c10.9,7.6,18.5,17.2,23.7,28.2
	c0.1,0.3,0,0.6-0.2,0.8c-0.3,0.2-0.6,0.2-0.9,0c-9.5-9.7-19.2-15.1-25.3-14c-1.5,10.1-2.2,20.4-2.2,31s1.4,28.5,4.1,42.1
	c2.8,15.4,8.3,12.1,9.5-0.4c0-0.3,0.6,0.2,0.7,0.5c3.5,16.2,10.4,31.4,20.7,45.6h26.2c-15-13.4-27-29.1-36-47.1
	c-0.2-0.3,0-0.7,0.2-0.8c0.3-0.2,0.7-0.1,0.9,0.1c17,20.7,38.1,35.9,64.3,41.3c0.3,0,0.7-0.1,0.8-0.5c0.1-0.3,0-0.7-0.4-0.8
	c-33.9-13.4-55.9-37.1-72.6-65.4c-0.2-0.3-0.1-0.7,0.2-0.9c0.3-0.2,0.6-0.2,0.9,0c10.5,10.5,23,14,36.7,13.2c0.3,0,0.5,0.1,0.6,0.3
	c14,26.1,36.8,45.8,66.5,60.3h61.3c-35.3-11-67.2-25.6-92.7-47.2c-0.2-0.2-0.3-0.5-0.2-0.8s0.4-0.4,0.7-0.4
	c11.3,1,37.2,16.7,34.3-4.4c0-0.3,0.1-0.6,0.4-0.7c0.3-0.1,0.6,0,0.8,0.2c12.7,18,26.3,32.9,42.5,39.6c0.3,0.1,0.7,0,0.8-0.3
	c0.2-0.3,0-0.7-0.2-0.9c-10.2-7-18.7-15.9-26-26.4c-0.2-0.3-0.2-0.6,0-0.8c0.2-0.2,0.6-0.3,0.8-0.1c5.3,3.3,27.8,21.3,19.2,0.9
	c-3.5-8.2-11.7-20.1-24.2-30.4c-18.7-15.5-41.5-22.7-42.4-1.2c0,0.3-0.2,0.5-0.4,0.6c-0.3,0-0.5,0-0.7-0.2
	c-34-39.3-49.2-79.6-31.8-121.7c0.1-0.3,0-0.7-0.3-0.8c-0.3-0.2-0.6-0.1-0.9,0.2c-28.6,35.4-26.5,80.2,18.2,127.4
	c0.2,0.2,0.2,0.6,0,0.9s-0.6,0.3-0.9,0.1L132.1,277.7z M478.3,242.7c-62.6,8.4-119.3-23.1-172.8,0c2.6,2.6,4.9,5.6,5.7,9.2
	c1.7,0.3,3.2,1.2,4.2,2.6c0,0,0.5,0.8,1.1,1.8c8.8-3.3,18.6-5.6,27.8-3.3c10.2,2.6,18.9,8.1,27,14.3c3.5,2.7,1.7,2.9,8.9,0.8
	c16.4-4,31.7-9.8,47.1-16.5c0.9-0.4,1.9-0.7,2.9-0.8c17.1-1.7,32.3,3.2,48.5,7.1c0-5.2,0-10.3-0.4-15.3L478.3,242.7z M241.2,335.6
	l-9.1-6.5l-0.5,3.4l9.5,3.1H241.2z M72.1,344.1c-0.9-1.5-1.8-2.9-2.7-4.4c-3.2-5.4-6-10.9-8.4-16.6c1.9,5.6,3.9,11.2,6.2,16.6
	c0.6,1.5,1.3,2.9,1.9,4.4H72.1L72.1,344.1z M296.1,296.8c6.6-10.9,13.2-19.8,19.9-30.8c8.9-3.8,18.2-6.4,26.2-4.4
	c17.5,4.4,30.7,19.3,36.2,25.4c0.2,0.2,0.4,0.3,0.6,0.2c2.7-0.5,5.4-1.1,8.1-1.6c0.2,0,0.4-0.2,0.5-0.5c0-0.2,0-0.5-0.2-0.7
	c-2.3-2.2-4.1-4.4-5.5-6.7c-0.1-0.2-0.1-0.4,0-0.6c0-0.2,0.2-0.3,0.5-0.4c18-4.4,33.1-10.3,48.6-17c0,0,0.1,0,0.2,0
	c16.4-1.6,32.1,3.7,47.4,7.3c0,1.4-0.1,2.8-0.2,4.2c-0.2,3.3-0.5,6.5-0.9,9.7l-39.5-6.3c-0.1,0-0.2,0-0.2,0.2c0,0.1,0,0.2,0.1,0.3
	l38.7,12.6c-1,6.8-2.3,13.5-3.9,20c-13.9-4.3-27-10.1-38.9-18.3c-0.2-0.1-0.5-0.2-0.7,0c-0.2,0.1-0.3,0.4-0.3,0.6
	c0.6,4.8-1,7.5-5,8.5c-5.4,1.3-14.9-1-25.6-3.7c-0.3,0-0.7,0-0.8,0.4c-0.1,0.3,0,0.7,0.3,0.8c21.2,10.8,43.8,18.7,67.5,24.3
	c-2.9,9.2-6.3,18.1-10.4,26.7c-43.5-16.3-85.2-35-117.1-66.4c-0.2-0.2-0.6-0.3-0.9,0c-0.3,0.2-0.3,0.6-0.2,0.8
	c15.1,27.6,44,48.4,83.6,64c-16.6,4-33.2,7.9-49.8,11.9c-14.2-9.7-28.5-19.3-42.7-29l0,0c-11.8-10.5-23.5-21-35.3-31.4L296.1,296.8z
	"/>
<path style="fill-rule:evenodd;clip-rule:evenodd;fill:#25B3B5;" d="M478.3,242.7c-62.6,8.4-119.3-23.1-172.8,0
	c2.6,2.6,4.9,5.6,5.7,9.2c1.7,0.3,3.2,1.2,4.2,2.6c0,0,0.5,0.8,1.1,1.8c8.8-3.3,18.6-5.6,27.8-3.3c10.2,2.6,18.9,8.1,27,14.3
	c3.5,2.7,1.7,2.9,8.9,0.8c16.4-4,31.7-9.8,47.1-16.5c0.9-0.4,1.9-0.7,2.9-0.8c17.1-1.7,32.3,3.2,48.5,7.1c0-5.2,0-10.3-0.4-15.3"/>
<path style="fill-rule:evenodd;clip-rule:evenodd;fill:#0F5762;" d="M475.5,257.3c1.1,0.3,2.1,0.5,3.2,0.8c0-0.3,0-0.7,0-1
	C477.6,257.1,476.6,257.3,475.5,257.3 M315.7,255.1c0.2,0.3,0.4,0.8,0.8,1.3c8.8-3.3,18.6-5.6,27.8-3.3c10.2,2.6,18.9,8.1,27,14.3
	c3.5,2.7,1.7,2.9,8.9,0.8c14.3-3.5,27.7-8.3,41-13.9c-36.9-5-71.8-12.6-105.5,0.7L315.7,255.1z"/>
<path style="fill-rule:evenodd;clip-rule:evenodd;fill:#FFFFFF;" d="M312.8,249.1c51.4-21.4,106,5.5,165.7-2.1
	c0-1.5-0.1-2.9-0.2-4.4c-62,8.3-118.1-22.4-171.1-0.7c-0.2,0-0.4,0.2-0.6,0.3c0.7,0.5,1.3,1.1,1.9,1.7
	C310.1,245.5,311.7,247.2,312.8,249.1"/>
<path style="fill-rule:evenodd;clip-rule:evenodd;fill:#FFFFFF;" d="M464.4,283.7l-38.3-12.3c8.9-6.1,35.9,1,51.6,4.9
	c0.2-1.7,0.3-3.4,0.4-5.1c0-1.4,0.2-2.8,0.2-4.2c-15.3-3.6-31-8.9-47.4-7.3c0,0-0.1,0-0.2,0c-15.4,6.8-30.5,12.7-48.6,17
	c-0.2,0-0.4,0.2-0.5,0.4c0,0.2,0,0.4,0,0.6c1.5,2.3,3.3,4.5,5.5,6.7c0,0,0.2,0.2,0.2,0.3c2.2-0.2,4.7,0.1,7.3,0.7
	c12.9,2.7,29.3,11.4,35.2,0c0.7-1.3,1.2-2.9,1.6-4.7l36.6,4.2l-3.8-1.2H464.4z"/>
<path style="fill-rule:evenodd;clip-rule:evenodd;fill:#FFFFFF;" d="M401.4,296c10.1,21,47.6,20.6,63.4,36.1
	c1.5-3.9,2.8-7.8,4.1-11.8C445.2,314.7,422.6,306.8,401.4,296"/>
<path style="fill-rule:evenodd;clip-rule:evenodd;fill:#FFFFFF;" d="M78,239.4c-9.5-9.7-19.2-15.1-25.3-14l0,0
	c-1.1,7.7-1.8,15.5-2.1,23.5c0,0,0,0,0,0.1c0,2.5-0.1,4.9-0.1,7.4c0,5.9,0.2,11.7,0.7,17.5c15.4,1.8,10.7-29.1,21.1-23.9
	c3.7,3.1,7,5.6,10,7.4c7.7,4.7,12.7,5.1,14.5,2.3c-7.5-9.5-12.2-20.2-14.2-32c-0.1-0.2-0.2-0.4-0.3-0.5c-4-6.7-9.4-12.4-15.6-17.5
	c-0.6,2.9-1.2,5.8-1.6,8.8c6,6,10.6,12.8,14.1,20.2c0.1,0.3,0,0.6-0.2,0.8c-0.3,0.2-0.6,0.2-0.9,0"/>
<path style="fill-rule:evenodd;clip-rule:evenodd;fill:#FFFFFF;" d="M243.4,83.1c-3-4.9-8.4-9.3-13.3-12.7c-7.3-0.7-14.6-0.6-21.8,0
	c-0.1,0-0.2,0-0.2-0.2c0-0.1,0-0.2,0.1-0.3c18.9-11.9,43-10.7,66.2,5.8c0,0,0.1,0,0.2,0c0,0,0.1,0,0.1-0.2c0.4-3.6-0.2-7.2-1.6-10.8
	v-0.2c0,0,0.1,0,0.2,0c23.9,5.7,32,34.2,15.1,58.1c0.2,0.1,0.4,0.2,0.6,0c31.7-12.8,33.4-52.3-10.2-73.1c-0.3-0.1-0.5,0-0.7,0.1
	c-0.2,0.2-0.3,0.5-0.1,0.7c1.3,2.8,2.1,5.8,2.6,8.8c0,0.3,0,0.6-0.4,0.7c-0.3,0.1-0.6,0-0.8-0.1c-13.1-13.4-21.6-18.4-41-16.1
	c-13,1.6-25.7,4.3-37.9,8.1c-31.3,9.7-59.5,26.5-82.8,48.4c-22.9,21.5-41.1,48-52.8,77.7c-4.1,10.5-7.4,21.3-9.9,32.5l0,0
	c3.5,2.5,6.7,5.1,9.6,8c8.5-51,34.2-94.7,80-129.6c4.9-3.7,32-26.6,32.4-12.4c0,3.5-3.3,7.8-4.4,13.3c14.3-3.3,13.5-21.2,40.7-9.9
	c7.6,3.2,13.5,8.3,18.7,10.9c8.8,4.6,17.1,2.1,11.1-7.6"/>
<path style="fill-rule:evenodd;clip-rule:evenodd;fill:#FFFFFF;" d="M132.1,277.7c-4.3-2.7-8.3-5.6-12-8.6c-0.3-0.2-0.5-0.4-0.8-0.6
	c-18.2-15.3-28.5-34-31.3-54c-2.2-15.2-0.2-31.1,5.8-46.7c-10.3,21.8-13.9,41-11.7,57.7c3.4,25.5,19.9,46.2,48,60.9
	c0.5,0.3,1,0.6,1.5,0.8c15.7,6,7.6-5.8,1-9.4c-0.2,0-0.4,0-0.6,0"/>
<path style="fill-rule:evenodd;clip-rule:evenodd;fill:#FFFFFF;" d="M142.3,296.9c7.6,9,16.6,17.6,26.8,26c0,0,0.1,0.2,0,0.3
	c0,0-0.2,0.1-0.3,0l-8.2-3c0,0-0.2,0-0.3,0c0,0,0,0.2,0,0.3c8.9,8.3,18.9,14.3,29.5,19.1h31.6c-30-10.4-57.1-24-79.3-42.8"/>
<path style="fill-rule:evenodd;clip-rule:evenodd;fill:#FFFFFF;" d="M281.1,322.1c-8.6-6.9-17.1-13.9-24.8-21.7c-1.4,1-3,1.7-4.9,2
	c-0.2,0-0.3,0.3-0.3,0.5s0,0.4,0.2,0.6c6,4.8,12.3,9.2,18.5,13.3c0.3,0.2,0.4,0.6,0.2,0.9l0,0l10.8,4.8c0.1,0,0.2,0,0.3,0
	C281.1,322.5,281.1,322.3,281.1,322.1 M165.8,285.5c1.5-6.9,1.3-16.5,15.3-3.6c1.2,1.1,2.5,2.4,3.9,3.6c8.2,7.8,17.8,17.6,22.9,20.4
	c3,1.7,8.7,5.1,9,0.7c0,0,0,0,0-0.1c-0.3-1-0.7-2.2-1.3-3.6c-2.1-4.9-5.8-11-11.1-17.4c-3.6-4.4-8-8.8-13.1-13
	c-18.7-15.5-41.5-22.7-42.4-1.2c0,0.3-0.2,0.5-0.4,0.6c-0.3,0-0.5,0-0.7-0.2c-15.4-17.8-27-35.8-33.4-54.1c5.2,22,17,43.4,34.4,64.3
	c1.4,1.4,2.6,2.6,3.8,3.6c10.1,9,12.2,5.3,13.3,0L165.8,285.5z"/>
<path style="fill-rule:evenodd;clip-rule:evenodd;fill:#0F5762;" d="M133.6,214.4c4.4,13.3,10.9,25.1,17.9,36.5
	c3.3-1.5,6.8-2.1,10.4-1.9c-6.8-11.3-13-22.8-17.6-34.6c-3.8-9.9-6.6-20.1-7.6-30.6l-1.6-1.3c-1.7-1.5-2.5-3.6-2-5.9
	c0.5-2.2,1.6-3.7,3.1-4.8c0.4-15.8,4.8-32.5,14.9-50.5c0.2-0.3,0-0.6-0.2-0.8c0,0-0.1,0-0.2-0.1c-18.2,18.6-24.2,45.2-24.2,75.9
	c0,0.1,0,0.2,0.2,0.2c0.1,0,0.2,0,0.2-0.2l1-5.4c0-0.1,0.1-0.2,0.2-0.2c0.1,0,0.2,0,0.2,0.2c0.9,8.4,2.7,16.1,5.1,23.4 M248.1,107.5
	c-15.1,2.9-27.8,10.2-37.1,20.5c1.3,0.1,2.6,0.3,3.9,0.5C223.8,119.2,234.9,112.1,248.1,107.5L248.1,107.5z M223,101.7
	c-3.9-0.7-7.8-1-11.9-0.7c-0.3,0-0.6-0.2-0.7-0.5c0-0.3,0-0.6,0.3-0.8c3.4-1.9,7-3.2,10.7-3.8c-5.3,0.1-15,2.3-25,8.5
	c0,0-0.1,0.2,0,0.2c0,0,0.1,0.2,0.2,0.2h2.7c0.1,0,0.2,0,0.2,0.2c0,0.1,0,0.2-0.1,0.2c-12.2,6.7-21.2,15.3-28.6,26
	c0.5-0.2,1-0.4,1.6-0.6c2.1-0.7,4.5-1,7-1.1c13.4-12.4,28.2-21.9,43.6-26.7c0.3,0,0.5-0.4,0.5-0.7c0-0.3-0.2-0.6-0.5-0.6V101.7z"/>
<path style="fill-rule:evenodd;clip-rule:evenodd;fill:#FFFFFF;" d="M436.6,324.2c24,22.5-39.6-4.7-45.6-7.3
	c15.5,8.6,31.9,16,48.7,22.8h22.1c1.1-2.5,2.1-5,3-7.6c-3.5-3.4-8-6.1-13.1-8.3c9.9,13.5-1.6,5.1-15.2,0.5"/>
<path style="fill-rule:evenodd;clip-rule:evenodd;fill:#FFFFFF;" d="M302.6,226.6c1.8,0,3.2-1.4,3.2-3.2s-1.4-3.2-3.2-3.2
	s-3.2,1.4-3.2,3.2S300.8,226.6,302.6,226.6"/>
<path style="fill-rule:evenodd;clip-rule:evenodd;fill:#FFFFFF;" d="M324.3,226.6c1.8,0,3.2-1.4,3.2-3.2s-1.4-3.2-3.2-3.2
	s-3.2,1.4-3.2,3.2S322.5,226.6,324.3,226.6"/>
<path style="fill-rule:evenodd;clip-rule:evenodd;fill:#FFFFFF;" d="M346,226.6c1.8,0,3.2-1.4,3.2-3.2s-1.4-3.2-3.2-3.2
	s-3.2,1.4-3.2,3.2S344.2,226.6,346,226.6"/>
<path style="fill-rule:evenodd;clip-rule:evenodd;fill:#FFFFFF;" d="M367.6,226.6c1.8,0,3.2-1.4,3.2-3.2s-1.4-3.2-3.2-3.2
	s-3.2,1.4-3.2,3.2S365.8,226.6,367.6,226.6"/>
<path style="fill-rule:evenodd;clip-rule:evenodd;fill:#FFFFFF;" d="M389.3,226.6c1.8,0,3.2-1.4,3.2-3.2s-1.4-3.2-3.2-3.2
	s-3.2,1.4-3.2,3.2S387.5,226.6,389.3,226.6"/>
<path style="fill-rule:evenodd;clip-rule:evenodd;fill:#FFFFFF;" d="M411,226.6c1.8,0,3.2-1.4,3.2-3.2s-1.4-3.2-3.2-3.2
	s-3.2,1.4-3.2,3.2S409.2,226.6,411,226.6"/>
<path style="fill-rule:evenodd;clip-rule:evenodd;fill:#FFFFFF;" d="M432.7,226.6c1.8,0,3.2-1.4,3.2-3.2s-1.4-3.2-3.2-3.2
	s-3.2,1.4-3.2,3.2S430.9,226.6,432.7,226.6"/>
<path style="fill-rule:evenodd;clip-rule:evenodd;fill:#FFFFFF;" d="M454.3,226.6c1.8,0,3.2-1.4,3.2-3.2s-1.4-3.2-3.2-3.2
	s-3.2,1.4-3.2,3.2S452.5,226.6,454.3,226.6"/>
<path style="fill-rule:evenodd;clip-rule:evenodd;fill:#FFFFFF;" d="M412.6,166.7v-1.5l-1.4-0.2v1.5L412.6,166.7z M413.9,172.8
	l-1.4-0.2v1.5l1.4,0.2V172.8z M408.5,174.9v-1.5l-1.4-0.2v1.5L408.5,174.9z M411.2,176.9l-1.4-0.2v1.5l1.4,0.2V176.9z M413.9,178.8
	v1.5l1.4,0.2V179L413.9,178.8z M411.2,182.8l-1.4-0.2v1.5l1.4,0.2l1.4,0.2l1.4,0.2l1.4,0.2v-1.5l-1.4-0.2l-1.4-0.2L411.2,182.8z
	 M409.9,188.6l1.4,0.2v-1.5l-1.4-0.2l-1.4-0.2l-1.4-0.2v1.5l1.4,0.2L409.9,188.6z M412.6,190.5l-1.4-0.2v1.5l1.4,0.2V190.5z
	 M413.9,193.7l-1.4-0.2v1.5l1.4,0.2V193.7z M408.5,195.8v-1.5l-1.4-0.2v1.5L408.5,195.8z M409.9,170.7l1.4,0.2v-1.5l-1.4-0.2
	l-1.4-0.2l-1.4-0.2l-1.4-0.2v1.5l1.4,0.2l1.4,0.2L409.9,170.7z M407.2,167.3v-1.5l-1.4-0.2v1.5L407.2,167.3z M408.5,163l1.4,0.2
	v-1.5l-1.4-0.2l-1.4-0.2l-1.4-0.2v1.5l1.4,0.2L408.5,163z M407.2,180.7l-1.4-0.2v1.5l1.4,0.2V180.7z M415.3,199.9l-1.4-0.2v1.5
	l1.4,0.2V199.9z M411.2,202.2l-1.4-0.2v1.5l1.4,0.2V202.2z M413.9,165.4l1.4,0.2v-1.5l-1.4-0.2V165.4z"/>
<path style="fill-rule:evenodd;clip-rule:evenodd;fill:#FFFFFF;" d="M355.5,198.3v1.4l1.3,0.2v-1.4L355.5,198.3z M354.2,192.4
	l1.3,0.2v-1.4l-1.3-0.2V192.4z M359.3,190.5v1.4l1.3,0.2v-1.4L359.3,190.5z M356.8,188.6l1.3,0.2v-1.4l-1.3-0.2V188.6z M354.2,186.8
	v-1.4l-1.3-0.2v1.4L354.2,186.8z M356.8,183l1.3,0.2v-1.4l-1.3-0.2l-1.3-0.2l-1.3-0.2l-1.3-0.2v1.4l1.3,0.2l1.3,0.2L356.8,183z
	 M358.1,177.5l-1.3-0.2v1.4l1.3,0.2l1.3,0.2l1.3,0.2v-1.4l-1.3-0.2L358.1,177.5z M355.5,175.7l1.3,0.2v-1.4l-1.3-0.2V175.7z
	 M354.2,172.7l1.3,0.2v-1.4l-1.3-0.2V172.7z M359.3,170.7v1.4l1.3,0.2v-1.4L359.3,170.7z M358.1,194.5l-1.3-0.2v1.4l1.3,0.2l1.3,0.2
	l1.3,0.2l1.3,0.2v-1.4l-1.3-0.2l-1.3-0.2L358.1,194.5z M360.6,197.7v1.4l1.3,0.2v-1.4L360.6,197.7z M359.3,201.8l-1.3-0.2v1.4
	l1.3,0.2l1.3,0.2l1.3,0.2v-1.4l-1.3-0.2L359.3,201.8z M360.6,185l1.3,0.2v-1.4l-1.3-0.2V185z M352.9,166.8l1.3,0.2v-1.4l-1.3-0.2
	V166.8z M356.8,164.6l1.3,0.2v-1.4l-1.3-0.2V164.6z M354.2,199.5l-1.3-0.2v1.4l1.3,0.2V199.5z"/>
<path style="fill-rule:evenodd;clip-rule:evenodd;fill:#FFFFFF;" d="M264.5,34c122.8,0,222.3,99.5,222.3,222.3
	s-99.5,222.3-222.3,222.3S42.3,379,42.3,256.3S141.8,34,264.5,34 M264.5,26.3c127,0,230,103,230,230s-103,230-230,230
	s-229.9-103-229.9-230S137.5,26.3,264.5,26.3z"/>
<path style="fill-rule:evenodd;clip-rule:evenodd;fill:#0D1A26;" d="M41.1,432.9l-13.3-52.5h-5.4c-2.2,0-4.1-1.5-4.5-3.6l-7.3-32
	c-0.3-1.4,0-2.8,0.9-3.9s2.2-1.8,3.6-1.8h498.8c1.5,0,2.7,0.6,3.6,1.8c0.9,1.1,1.2,2.5,0.9,3.9l-7.3,32c-0.5,2.1-2.3,3.6-4.5,3.6
	h-5.4l-13.3,52.5l5.4-0.6c1.6-0.2,3.1,0.4,4.1,1.7c1,1.3,1.3,2.8,0.8,4.3l-9.8,31c-0.6,1.8-2,3-3.8,3.2l-151.1,19.9l-8.3,19.7
	c-3.1,7.4-9.3,11.5-17.2,12.3l-12.2,1.3l-30.7,4.2c-0.4,0-0.8,0-1.3,0l-30.7-4.2l-12.2-1.3c-7.9-0.8-14.1-4.9-17.2-12.3l-8.3-19.7
	L44.3,472.5c-1.8-0.2-3.3-1.4-3.8-3.2l-9.8-31c-0.5-1.5-0.2-3.1,0.8-4.3c1-1.3,2.5-1.9,4.1-1.7l5.4,0.6L41.1,432.9z"/>
<polygon style="fill-rule:evenodd;clip-rule:evenodd;fill:#0D1A26;" points="197.6,446.1 264.5,449.2 264.5,449.2 331.4,446.1 
	306,519.7 264.5,525.3 264.5,525.3 223.1,519.7 "/>
<path style="fill-rule:evenodd;clip-rule:evenodd;fill:#0D1A26;" d="M215.9,467.7H54.7l-23.4-92h-9l-7.3-32h498.8l-7.3,32h-9
	l-23.4,92H215.9"/>
<path style="fill-rule:evenodd;clip-rule:evenodd;fill:#EC6618;" d="M360.6,356.8v7.1c0,0.6,0.3,0.9,0.8,0.9h4.6
	c0.6,0,0.9-0.3,0.9-0.8v-7.2c0-0.6-0.2-0.9-0.7-0.9h-4.9C360.8,355.9,360.6,356.2,360.6,356.8 M360,351.4h7.5c1.7,0,3,0.4,3.8,1.2
	c1,0.8,1.5,2.2,1.5,4.1v7.5c0,1.6-0.3,2.8-1,3.6c-0.6,0.7-1.2,1.2-1.8,1.4c-0.7,0.2-1.5,0.4-2.5,0.4h-7.3c-1.9,0-3.1-0.4-3.9-1.3
	c-0.1,0-0.4-0.3-0.8-1s-0.7-1.7-0.7-3v-7.5c0-2,0.6-3.4,1.7-4.2c0.7-0.7,1.9-1.1,3.6-1.1L360,351.4z M333.8,351.4h7.9
	c1.5,0,2.7,0.4,3.5,1.2c1,0.9,1.5,2.1,1.5,3.6v1.4h-6v-0.9c-0.1-0.5-0.4-0.7-0.9-0.7h-4.2c-0.7,0-1,0.2-1,0.7v7.5
	c0,0.3,0.3,0.5,1,0.7h4.2c0.6,0,0.9-0.2,0.9-0.5v-2.2h-1.5v-3.3h7.5v6c0,2.2-1,3.7-3.1,4.5c-0.4,0.2-1.1,0.3-2,0.3h-7.9
	c-1.6,0-2.9-0.4-3.7-1.3c-0.9-0.8-1.4-2.1-1.4-3.9v-7.7c0-2.1,0.7-3.6,2-4.4c0.7-0.6,1.7-0.8,3.1-0.8L333.8,351.4z M302.3,351.4
	h18.4v5.7h-4.3V356h-6v3h5.7v3.3h-5.7v2.6h6v-1.6h4.3v6.2h-18.4v-4.7h2.1v-8.9h-2.1v-4.6V351.4z M284,351.4h10v4.6h-2v8.8h2v4.7h-10
	v-4.7h2V356h-2V351.4z M265.8,356v8.8h3.3c0.3,0,0.5-0.1,0.5-0.4v-8.1c0-0.3-0.1-0.4-0.4-0.4h-3.3L265.8,356z M257.8,351.4h12.9
	c1.9,0,3.3,0.6,4.2,1.7c0.8,0.8,1.2,1.9,1.2,3.4v7.9c0,2.4-1,4-3.1,4.9c-0.5,0.2-1.1,0.3-1.9,0.3h-13.3v-4.7h2.1v-8.8h-2.1
	L257.8,351.4L257.8,351.4z M213.7,351.4h7.2c1.3,0,2.2,0.5,2.7,1.6l6.7,8.8V356h-2.2v-4.6h10.3v4.6h-2.2v13.5h-5
	c-1.3,0-2.2-0.4-2.6-1.1l-7.1-9.3v5.7h2.2v4.6h-10.1v-4.6h1.9V356h-1.9v-4.6L213.7,351.4z M192.6,360.3h3.5l-1.7-3.7L192.6,360.3z
	 M186.9,351.4h8.4c1.4,0,2.2,0.3,2.6,1l6.3,12.5h2.3v4.7h-9.8v-4.7h1.5l-0.7-1.5h-6.3l-0.7,1.5h1.6v4.7h-9.7v-4.7h2.1l5.1-8.8h-2.8
	v-4.6L186.9,351.4z M160.2,351.4H171c1.8,0,2.9,0.5,3.3,1.6c0.4,0.7,0.7,1.9,0.7,3.6v0.9h-5.9v-0.9c0-0.3-0.2-0.5-0.7-0.6h-5.5
	c-0.4,0-0.6,0.2-0.7,0.7v1.3c0,0.3,0.2,0.5,0.7,0.6h8c2,0,3.2,0.4,3.5,1.2c0.4,0.7,0.6,1.7,0.6,2.8v3.2c0,1.9-0.5,3.1-1.6,3.5
	c-0.5,0.2-1.3,0.3-2.4,0.3h-10.7c-1.8,0-2.9-0.5-3.3-1.6c-0.4-0.7-0.6-1.7-0.6-3.3v-1.2h5.9v0.8c0,0.4,0.3,0.6,0.8,0.6h5.3
	c0.5,0,0.8-0.3,0.8-0.6v-1.4c0-0.4-0.3-0.6-0.8-0.6h-8.6c-1.6,0-2.6-0.5-3-1.6c-0.2-0.7-0.4-1.5-0.4-2.4v-3.1c0-1.7,0.4-2.8,1.3-3.3
	c0.5-0.3,1.4-0.5,2.6-0.5H160.2z"/>
<polygon style="fill-rule:evenodd;clip-rule:evenodd;fill:#EC6618;" points="65.8,410.8 53.1,410.8 54.5,417.5 65.8,417.5 
	65.8,413.4 "/>
<polygon style="fill-rule:evenodd;clip-rule:evenodd;fill:#25B3B5;" points="51.6,404.2 65.8,404.2 65.8,398.9 65.8,397.6 
	50.2,397.6 "/>
<polygon style="fill-rule:evenodd;clip-rule:evenodd;fill:#EC6618;" points="48.7,390.9 65.8,390.9 65.8,384.3 47.3,384.3 "/>
<polygon style="fill-rule:evenodd;clip-rule:evenodd;fill:#EC6618;" points="463.3,410.8 476,410.8 474.5,417.5 463.3,417.5 
	463.3,413.4 "/>
<polygon style="fill-rule:evenodd;clip-rule:evenodd;fill:#25B3B5;" points="477.4,404.2 463.3,404.2 463.3,398.9 463.3,397.6 
	478.9,397.6 "/>
<polygon style="fill-rule:evenodd;clip-rule:evenodd;fill:#EC6618;" points="480.3,390.9 463.3,390.9 463.3,384.3 481.8,384.3 "/>
<path style="fill-rule:evenodd;clip-rule:evenodd;fill:#0D1A26;" d="M155.9,449.3l57.8,5.5c6,0.6,11,3.7,14.4,8.6l25.2,36.1
	c2.9,4.2,3.1,9.7,0.7,14.4c-2.1,4.1-6,7-10.6,7.8l-1.8,0.3l-20.1-2.1c-6.2-0.6-11-3.6-13.4-9.5l-9.4-22.2L45,467.9l-9.8-31
	l120.6,12.4L155.9,449.3z"/>
<path style="fill-rule:evenodd;clip-rule:evenodd;fill:#EC6618;" d="M55.3,455.8l149.9,19.8c1.9,0.2,3.4,1.3,4.1,3l11.1,26.3
	c0.5,1.2,1,1.5,2.8,1.6l18.3,1.9c0.3,0,0.5-0.2,0.6-0.5c0-0.2,0.2-0.4,0-0.6l-25.2-36.1c-1.2-1.8-2.8-3-5.1-3.2l-57.8-5.5
	l-99.9-10.2l1.1,3.4L55.3,455.8z"/>
<path style="fill-rule:evenodd;clip-rule:evenodd;fill:#0D1A26;" d="M373.2,449.3l-57.8,5.5c-6,0.6-11,3.7-14.4,8.6l-25.2,36.1
	c-2.9,4.2-3.1,9.7-0.7,14.4c2.1,4.1,6,7,10.6,7.8l1.8,0.3l20.1-2.1c6.2-0.6,11-3.6,13.4-9.5l9.4-22.2l153.7-20.3l9.8-31L373.2,449.3
	L373.2,449.3z"/>
<path style="fill-rule:evenodd;clip-rule:evenodd;fill:#EC6618;" d="M473.8,455.8l-149.9,19.8c-1.9,0.2-3.4,1.3-4.1,3l-11.1,26.3
	c-0.5,1.2-1,1.5-2.8,1.6l-18.3,1.9c-0.3,0-0.5-0.2-0.6-0.5c0-0.2-0.2-0.4,0-0.6l25.2-36.1c1.2-1.8,2.8-3,5.1-3.2l57.8-5.5l99.9-10.2
	l-1.1,3.4L473.8,455.8z"/>
<polygon style="fill-rule:evenodd;clip-rule:evenodd;fill:#FFFFFF;" points="264.5,459 267.4,470.9 276.6,463 272,474.2 
	284.1,473.3 273.7,479.7 284.1,486 272,485.1 276.6,496.3 267.4,488.4 264.5,500.3 261.7,488.4 252.4,496.3 257.1,485.1 244.9,486 
	255.3,479.7 244.9,473.3 257.1,474.2 252.4,463 261.7,470.9 "/>
<path style="fill-rule:evenodd;clip-rule:evenodd;fill:#FFFFFF;" d="M382.4,381.5h35.2v15.9h-7.5V428h21.1v-5.4h15v21.5h-63.8V428
	h7.5v-30.6h-7.5L382.4,381.5L382.4,381.5z M322.4,412.4h12.1l-5.9-12.9L322.4,412.4z M302.5,381.5h29.1c4.7,0,7.7,1.1,8.9,3.4
	l21.8,43.1h7.9v16.1h-33.9V428h5.3l-2.3-5.2h-21.8l-2.3,5.1h5.4V444h-33.4v-16.1h7.3l17.7-30.5h-9.6v-15.9H302.5z M238.4,397.4v30.5
	h11.3c1.1,0,1.6-0.4,1.6-1.2v-27.9c0-1-0.4-1.4-1.3-1.4H238.4z M210.8,381.5h44.6c6.6,0,11.4,1.9,14.5,5.7c2.7,2.7,4.1,6.6,4.1,11.8
	v27.4c0,8.3-3.6,13.9-10.7,16.8c-1.6,0.6-3.9,0.9-6.6,0.9h-45.9v-16.2h7.3v-30.5h-7.3L210.8,381.5L210.8,381.5z M160,381.5h34.6
	v15.9h-6.9v30.5h6.9v16.2H160v-16.2h7v-30.5h-7V381.5z M82.9,381.6h61.7v19.9h-13.1v-4h-7.3v30.4h7.3v16.2H96.1v-16.2h7.5v-30.4
	h-7.3v4H82.9C82.9,401.5,82.9,381.6,82.9,381.6z"/>
<g>
	<defs>
		<path id="SVGID_1_" d="M385.7,384.8v9.3h7.5v37.2h-7.5v9.5h57.2V426h-8.4v5.4h-27.7v-37.2h7.5v-9.3h-28.6V384.8z M317.1,415.7
			l11.6-23.9l10.9,23.9H317.1z M305.8,384.8v9.3h12.1l-21.5,37.1h-5.9v9.5h26.8v-9.5h-7.2l5.4-11.7h26l5.3,11.8h-7.1v9.5H367v-9.5
			h-6.6l-22.7-44.8c-0.9-1.5-4.6-1.7-6-1.7L305.8,384.8L305.8,384.8z M249.9,394.1c2.8,0,4.7,2,4.6,4.8v27.8c0,2.8-2.2,4.5-4.9,4.5
			H235v-37.1L249.9,394.1L249.9,394.1z M214.1,384.8v9.3h7.3v37.1h-7.3v9.6h42.6c1.7,0,3.8-0.1,5.5-0.7c6.1-2.5,8.6-7.2,8.6-13.7
			V399c0-3.4-0.6-7-3.1-9.4h-0.1c0-0.1-0.1-0.3-0.1-0.3c-2.9-3.6-7.5-4.5-11.9-4.5h-41.3H214.1z M163.3,384.8v9.3h7v37.1h-7v9.6h28
			v-9.6h-6.9v-37.1h6.9v-9.3H163.3z M86.2,384.9v13.2H93v-4h13.9v37h-7.5v9.6h28.8v-9.6h-7.3v-37h13.9v4h6.5v-13.2
			C141.3,384.9,86.2,384.9,86.2,384.9z"/>
	</defs>
	<clipPath id="SVGID_00000032629785849664501850000016546270909059057798_">
		<use xlink:href="#SVGID_1_"  style="overflow:visible;"/>
	</clipPath>
	<g style="clip-path:url(#SVGID_00000032629785849664501850000016546270909059057798_);">
		
			<linearGradient id="SVGID_00000102533580525438619800000011177926447959873947_" gradientUnits="userSpaceOnUse" x1="264.55" y1="101.2" x2="264.55" y2="139.7" gradientTransform="matrix(1 0 0 -1 0 542)">
			<stop  offset="0" style="stop-color:#BABAD6"/>
			<stop  offset="1" style="stop-color:#FEFEFE"/>
		</linearGradient>
		
			<rect x="86.2" y="384.8" style="fill:url(#SVGID_00000102533580525438619800000011177926447959873947_);" width="356.7" height="56"/>
	</g>
</g>
<path style="fill-rule:evenodd;clip-rule:evenodd;fill:#0D1A26;" d="M209.3,236.2c0.4,0.6,0.7,1.3,0.9,2c1.4,0.2,2.6,0.8,3.7,1.8
	l4.6,4.2c0,0,0-0.1,0.1-0.2c1.1-1.5,2.3-2.8,3.5-4.1c1.4-1.5,2.8-2.6,4.2-3.2c0.5-0.9,1.2-1.8,2.2-2.4c0.1-0.2,0.3-0.3,0.4-0.5
	c-5.5,1.3-11.2,2.2-16.8,2.6C211.1,236.4,210.3,236.4,209.3,236.2 M284.5,143.2c0,0.4,0,0.7-0.2,1.1c-1.1,4.6-2.6,9-4.8,13.2
	c7.2,5.3,12.6,12.4,13,21.7c0.5,11.3-6,26.6-9.2,37.6c-0.3,0.9-0.6,1.6-1.1,2.3c0.2,0.1,0.3,0.2,0.5,0.3c5.7,4,18.6,14.1,20.5,20.6
	c0.2,0.1,0.4,0.2,0.5,0.3c1.6,1.1,3.2,2.3,4.6,3.6c3,2.9,5.6,6.3,6.6,10.4c1.8,0.3,3.5,1.3,4.7,2.9c0.1,0.2,2.7,4.5,4.9,8.4
	c4.4,7.6,10.2,19.3,11.7,27.5c2.6,4.3,11.7,6.7,12.5,6.9c1,2.7,5.4,9.5,7.5,10.2c0.5,2.1-2.6,5.6-2.9,8.9c-1.1,2.1-2.2,2.4-4.5,2.9
	c-1.1,0.2-2,0.5-2.6,1.5c-1.3,2-3.5,3.3-5.8,3.5c-2.4,0.2-4.7-0.6-6.4-2.3c-3-3-5.7-5.5-9-8.2c-0.4-0.3-0.8-0.7-1.2-1
	c-1.6-1.3-2.7-3.2-2.9-5.3c0-0.4,0-0.8-0.1-1.2c0-0.4,0-0.9,0-1.3c-3-1.4-12.9-7.1-20.2-11.8c-5.6-3.6-20.4-11.7-16.3-20
	c0.4-0.7,0.8-1.3,1.3-1.9c-0.4-0.6-0.8-1.2-1.2-1.9c-1.2-1.9-2.9-3.4-5-4.3c-2.1-0.8-3.8-2.5-4.7-4.6c-0.5-1.1-0.7-2.4-0.7-3.6
	c-0.9,0-1.7-0.3-2.5-0.7c-2.3-1-5.5-2.9-7.9-3.5c-0.3,0-0.5-0.1-0.8-0.2c1.4,3.4,1.7,7.3,0.9,10.6c-0.6,2.3-2,7.4-3.3,9.3
	c-1.3,1.8-3,2.8-5.2,3l0,0l2.5,2.3c1.4,1.3,2.2,3,2.3,4.9c0.1,1.9,0,3.7-0.4,5.5c-0.6,3.1-2.8,5.6-5.8,6.7c-1.3,0.5-2.4,1.7-3.2,2.9
	c-1.2,1.7-2.9,2.8-5,3.1c-2.1,0.3-4-0.2-5.6-1.6l-3.3-2.7c-0.4-0.4-0.8-0.8-1.2-1.2c-0.5-0.2-1-0.6-1.5-0.9l-2.6-2.1
	c-0.4-0.4-0.8-0.8-1.2-1.2c-0.5-0.2-1-0.6-1.5-0.9l-1.1-0.9c-2.5-2.1-3.6-5.3-3.2-8.3c-2,0-3.9-0.5-5.7-1.5
	c-4.7-2.8-9.4-5.5-13.7-8.9c-1-0.8-1.7-1.7-2.2-2.9c-6,1.1-12.1-1.1-17.4-4.4c-2.6-1.6-3.8-4.5-3.3-7.5c0-0.4,0.2-0.8,0.3-1.2
	c-3-1.5-5.8-3.3-8.6-5.3c-1.6-0.1-3.1-0.7-4.5-1.7c-0.3-0.2-0.6-0.5-0.9-0.7c-4.5-4.5-7.9-9.3-9.4-15.5c-0.9-3.6-0.4-6.4,0.4-10
	c1.1-4.8,4.3-7.9,7.8-11c1-0.8,2.1-1.4,3.3-1.6c-0.7-1.3-1.2-2.2-1.2-4.1c0-2.7,1-4,2.4-6c0.7-1,1.7-2.3,2.6-3.7c0-0.1,0-0.3,0-0.5
	v-6.1c-1-2-1.2-4.2-0.5-6.3c0-0.3,0.2-0.5,0.3-0.8c-2,0.3-4-0.2-5.6-1.4c-10.2-7.3-19.6-21.3-16.6-34.2c2.2-9.3,9.7-15,18.4-17.9
	c4.7-1.5,10.7-1.4,15.8-0.6c1.3-1.7,3.3-2.7,5.6-2.8c12.7-0.2,28.7,0.4,40.9,6.7c-0.5-1.4-0.6-3-0.4-4.5c1.6-10,7.3-19.1,17.6-22.1
	c8.5-2.5,17.7,0.3,24.7,5.3c5.7,4.1,6.2,5.6,9.3,11.4c2.6,5,4.1,6.8,3.7,13c-0.2,2.6-1.4,5-3.3,6.7L284.5,143.2z"/>
<path style="fill-rule:evenodd;clip-rule:evenodd;fill:#EC6618;" d="M280.6,136c0.3-4.6-1-5.6-2.9-9.2c-2.5-4.8-2.2-5.4-7.1-8.9
	c-10.8-7.7-28.2-8.4-31.4,11.6c-0.2,1.2,0.5,2.4,1.7,2.7c2.8,0.8,8.4,1,9.6,2.9c-0.6,1.6-1.3,3.2-2,5c-0.1,0.3-0.2,0.7,0,1
	c1.5,1.8,2.6,3.7,3.2,5.7c0,0.1,0,0.2-0.1,0.3c0,0-0.2,0-0.3,0c-0.8-0.7-1.6-1.4-2.8-2.1c-0.3-0.2-0.6-0.3-1-0.2
	c-0.4,0-0.6,0.3-0.8,0.6c-0.2,0.4-0.4,0.8-0.6,1.2c-0.2,0.4-0.2,0.8,0,1.2c1.4,2.1,3.1,3.8,5.1,4.9c0.3,0.2,0.7,0.2,1,0
	c0.4-0.1,0.6-0.4,0.7-0.8c1.6-4.9,2.4-10.1,2.6-15.5c-0.9-0.3-1.8-0.7-2.6-1c-1.2-0.3-0.5-2,1.1-1.5c7.9,1.4,15.8,2.8,23.6,4.2
	c0.7,0.1,1.4,0,1.9-0.5c0.6-0.4,0.9-1,0.9-1.7"/>
<path style="fill-rule:evenodd;clip-rule:evenodd;fill:#FF0000;" d="M269.6,159.9c3.5-5,6.1-10.7,7.6-17.3c0-0.2,0-0.4-0.1-0.6
	c-0.1-0.2-0.3-0.3-0.5-0.3c-5.2-0.8-11.1-2.2-16.6-3.2c-0.2,2.8-1,9.7-2.2,13.6c-0.4,1.2,0.2,2.5,1.4,3c3.3,1.4,6.5,3,9.4,5
	c0.3,0.2,0.7,0.1,0.9-0.2"/>
<path style="fill-rule:evenodd;clip-rule:evenodd;fill:#FFFFFF;" d="M267.1,160.5c-2.6-1.7-5.4-2.9-8.3-4.1c-0.4-0.2-1-0.2-1.2-0.4
	c-0.3-0.3-0.7-0.4-1.1-0.3c-0.4,0.1-0.7,0.4-0.8,0.8c-0.1,0.4,0,0.5,0,1c0.6,0.5,1.2,1,2,1.3c2.5,1,4.9,2.2,7.1,3.6
	c0.6,0.4,1.2,0.4,1.9,0.3c0.8-0.2,1.2-0.6,1.5-1.3c0,0,0-0.1,0-0.2c0,0,0-0.1-0.1-0.1c-0.4-0.2-0.7-0.5-1.1-0.7 M269.6,159.9
	c3.5-5,6.1-10.7,7.6-17.3c0-0.2,0-0.4-0.1-0.6c-0.1-0.2-0.3-0.3-0.5-0.3c-5.2-0.8-11.1-2.2-16.6-3.2c-0.2,2.8-1,9.7-2.2,13.6
	c-0.4,1.2,0.2,2.5,1.4,3c3.3,1.4,6.5,3,9.4,5c0.3,0.2,0.7,0.1,0.9-0.2H269.6z"/>
<path style="fill-rule:evenodd;clip-rule:evenodd;fill:#25B3B5;" d="M192.1,133.9c0.5-2.1,3.9,0,5.9,0c15.1,0.2,29.7,2.3,37.9,9.8
	c2.2,1.7-0.3,10.9,1.1,15.7c1.7,5.9,4.9,11.1,9.7,15.6c0.4,0.4,1,0.4,1.5,0.1c4.8-3.3,9.7-5.5,14.7-7.7c1.6,0.8,3.5,0.9,5.2,0.4
	c2.2-0.6,4.3-2.6,6.2-5.3c5,3.4,10.6,8.8,11,16.8c0.4,9.2-7,28.7-9.4,36.9c-5.4-5.1-12.5-6.8-20.9-7.5c0.3-1.2,1.4-5.5,1.7-6.6
	c1.8-6.9,4.3-13.4,7.8-19.4c-1.1,0.8-2.2,1.7-3.4,2.5c-6.6,10.4-16.1,18.8-23.1,29.2c-9.7-0.9-18-3.5-24.8-7.9v-0.2
	c0-1.3-0.3-2.4-1-3.5c0,0,0-0.1-0.1-0.2c0.5-1.5,1-3,1.4-4.5c1.1-3.9,1.9-6.6-0.8-10.3c-1-1.3-2.1-2.4-3.2-3.4
	c0.5-8.9,1.2-17.9,3.1-26.2c-4.1-0.8-8.6-0.9-13.2-0.6c-1.2,0-2.8,2.1-3.7,0.3c3.7-9.3,1.9-21.6-3.4-24.1"/>
<path style="fill-rule:evenodd;clip-rule:evenodd;fill:#EC6618;" d="M203.3,182.7c-7.1-3.2-14-1.3-21.3,2.5c-0.4,0.2-0.7,0.6-0.8,1
	c-0.1,0.5,0,0.9,0.2,1.3c0.6,1,1.1,1.9,1.7,2.9c0.1,0.2,0.4,0.3,0.6,0.2c7.1-2.5,14.5-3.1,22.2-1.5c0.2,0,0.3,0,0.4-0.2
	c0.1-0.1,0.1-0.3,0.1-0.5c-0.5-1.9-1.7-4.1-2.9-5.7c0,0-0.1-0.1-0.2-0.1"/>
<path style="fill-rule:evenodd;clip-rule:evenodd;fill:#0D1A26;" d="M146.1,172.7l180.3,142.7c0.9,0.4,3,0.4,3.9,0.2
	c0.1,0,0.3,0,0.4,0l38.5-6.2c4.3-1,6.8,0.7,10,3.5l19.5,17.3c0.6,0.5,1,1.1,1.4,1.9c1,2.1,1,4.5,0,6.6c-1.2,2.3-3.4,4-6,4l-64.5,1.2
	c-5.1,0-9.7-1.5-13.2-5.3c-61.2-52-122.4-104-183.6-156c-1.8-1.5-2.5-3.7-2-5.9c1.6-7.3,10.3-8.3,15.3-3.9"/>
<path style="fill-rule:evenodd;clip-rule:evenodd;fill:#EC6618;" d="M142.6,177.5l180.6,142.9c1.9,1.5,6,1.9,8.9,1.2l38.8-6.2
	c2-0.5,2.7,0.2,4.8,2.1l19.5,17.3c0.2,0.4,0.2,0.8,0,1.3c-0.1,0.3-0.4,0.7-0.7,0.7L330,338c-3.4,0-6.5-0.8-8.9-3.6
	c-61.3-52.1-122.6-104.2-183.9-156.2C137.8,175.7,141.1,176.1,142.6,177.5"/>
<path style="fill-rule:evenodd;clip-rule:evenodd;fill:#0D1A26;" d="M206.6,224.7c0.5,1.6,0.3,3.4-0.6,4.9c-1,1.6-3.9,5.2-5.3,6.3
	c-1.3,1-2.9,1.4-4.5,1.2c-3.9-0.6-10.9-2.9-13.8-5.4c-2.2-1.9-2.7-5.1-1.3-7.5c-0.9-1-1.8-2-2.4-2.9c0-0.1-0.2-0.2-0.2-0.3l-5.2-8.4
	l0,0c-0.3-0.5-0.5-0.9-0.8-1.4c-0.8-1.5-1.4-2.2-1.4-4.2c0-2.4,1-3.5,2.2-5.3c0.8-1.1,1.9-2.6,2.9-4.1c0-0.3,0-0.5,0-0.8v-8.4
	c0-1.9,0.8-3.6,2.3-4.8c3.9-3,10.6-4.1,15.4-4c7.2,0.2,14.2,2.8,18.6,8.7c2.7,3.5,1.8,6.2,0.8,9.9c-0.4,1.6-0.9,3.2-1.5,4.7
	c0,0.1,0.2,0.3,0.3,0.4c0.7,1,1,2.1,1,3.3c0,2.4-0.9,5.8-1.5,8.2c-0.7,2.7-1.8,7.1-3.7,9.1c-0.3,0.3-0.6,0.7-1,1"/>
<path style="fill-rule:evenodd;clip-rule:evenodd;fill:#0D1A26;" d="M225,267c-0.8-0.4-1.4-0.9-2.2-1.7c-1.2-1.3-2-2.5-2.4-3.7
	c-1.4-1.2-2.5-2.7-2.9-4.5c-0.9-3.8,1.1-6.9,3.1-9.9c0.9-1.4,1.9-2.6,3-3.8c1.3-1.6,2.5-2.8,4.7-3.3c2.4-0.5,4.2,0.3,6.2,1.4
	c0.6,0.3,1.1,0.7,1.5,1.2c1.6,0.6,3,1.5,4,2.8l1.9,0.7c0.5,0.2,1,0.4,1.4,0.7c1.8,0.2,4,0.9,5.8,1.4c1.5,0.4,3,0.9,4.5,1.3
	c6,1.7,8.5,9.4,7.4,15c-0.4,2-1.5,6.6-2.5,8.2c-1,1.5-2.4,2.4-4.2,2.7c-1.1,0.2-2.1,0-3-0.3c-0.4,0.9-0.9,1.9-1.2,2.8
	c-1,2.7-3.7,4.4-6.5,4c-3.8-0.5-9.5-3.8-11.4-7.3c0-0.1-0.1-0.2-0.2-0.3c-2.4-0.8-4-2.7-5.7-5.3c-0.5-0.7-0.8-1.4-1.1-2"/>
<path style="fill-rule:evenodd;clip-rule:evenodd;fill:#25B3B5;" d="M235,250.5c-0.5,0.9,0.3,0-0.6,0.9c-4.5,4.8-3.9,4.2-6.8,11.2
	c-0.6-0.2-0.6-0.2-1.1-0.7c-1.5-1.6-1.2-1.9-0.5-3.5c0.9-2,4.5-10.3,7.1-9.3c1,0.4,1.5,0.8,1.8,1.5 M238.4,261c0,0.2-3.1,7-3.5,8.4
	c-2,0.1-2.5-0.3-4.4-3.1c-1.5-2.2-1.1-3.1,0-5.6c1.1-2.8,3.4-6.2,5.6-8.2c0.5-0.4,0.4-0.3,0.9-0.9l2.2,0.8c-0.1,1.2-1.2,3.5-1.7,4.6
	c-0.9,2.2,1.1,2.4,1,3.9L238.4,261z M247.4,265.9c0,3.5-2.8,7.9-3.8,10.7c-2.2-0.3-6.1-2.7-6.8-4.1c0-4.3,2.4-7.3,3.8-10.2
	L247.4,265.9z M251.3,266.2c-1.3-0.7-1.4-1.4-2.6-2.3c-2.4-1.8-6.5-3.9-8.8-5.7c0.3-3,0.7-2.8,1.7-4.7c1.5,0.1,7.4,2,9.6,2.6
	c2.6,0.7,3.6,5.5,3.1,8c-0.2,0.9-1.3,5.6-1.6,6.1l-2.1-1.8c-0.9-0.8-1.7-0.9-1.6-2.1c1,0,1.5,0.5,2.3,0L251.3,266.2z M230.8,247.4
	c-0.2,2.4-3.3,1.3-6.5,10.8c-2.6-1.8-2.1-2.9,0.7-7c0.8-1.2,1.7-2.2,2.5-3.3c1.3-1.6,1.2-1.6,3.2-0.5L230.8,247.4z"/>
<path style="fill-rule:evenodd;clip-rule:evenodd;fill:#EC6618;" d="M190.4,252.3c5.9-2.9,9.8-7.3,12.7-12.3l-3.3-3
	c-1.2,0.6-2.4,0.8-3.8,0.6c-4-0.6-11.1-2.9-14.1-5.6c-2.3-2-2.9-5.2-1.6-7.8c-0.1-0.1-0.3-0.3-0.4-0.4l-7.7-5.7
	c-2.7,2.3-4.9,4.4-5.5,7.2c-0.5,2.3-1,4.2-0.4,6.6c1,4,3.1,7.8,7.5,12.1c1,0.7,1.8,0.3,2.3,0c4.4,3.4,9.1,6.4,14.2,8.2"/>
<path style="fill-rule:evenodd;clip-rule:evenodd;fill:#EC6618;" d="M208.9,245.4c-5.2,7.7-11.6,12.5-19.4,14
	c6.2,3.9,11.4,4.7,15.6,2.1c4.4-2.1,7.5-5.5,10.1-9.3c0-0.3,0.1-0.6,0.2-0.9L208.9,245.4L208.9,245.4z"/>
<path style="fill-rule:evenodd;clip-rule:evenodd;fill:#25B3B5;" d="M217.6,259.7l-4.5,5.5c-1.3-0.9-4,0.2-3.3,2
	c4.2,3.3,8.5,5.9,12.8,8.4c2.5,1.5,3.4-0.1,5-2.4c-1.2-1.1-2.2-2.5-3.2-4.2c-0.5-0.8-0.9-1.6-1.2-2.3c-0.9-0.5-1.6-1.1-2.4-2
	c-1.3-1.5-2.1-2.9-2.5-4.3C218.1,260.2,217.8,259.9,217.6,259.7"/>
<path style="fill-rule:evenodd;clip-rule:evenodd;fill:#FFFFFF;" d="M242.6,286.9c0.7-0.6,1.8-0.5,2.4,0.2c0.6,0.7,0.5,1.8-0.2,2.4
	c-1.4,1.1-2.4,2.5-3.3,4l3.3,2.7c1.8-2.6,4-4.6,6.7-5.6c0.6-0.2,1-0.7,1.1-1.3c0.2-1.3,0.3-2.5,0.2-3.7l-3.9-3.6
	c-1.5,1.6-3.7,2.3-5.9,1.9c-2.3-0.4-5.2-1.8-7.7-3.6c-0.9,1.2-2.1,2.2-3,3.4c-0.6,0.7-0.4,1.8,0.3,2.3l1.1,0.9
	c0.9-1.3,2-2.6,3.3-3.7c0.7-0.6,1.8-0.5,2.4,0.2c0.6,0.7,0.5,1.8-0.2,2.4c-1.1,0.9-2,2-2.8,3.2l2.6,2.1c1.1-1.6,2.2-3.1,3.8-4.4"/>
<path style="fill-rule:evenodd;clip-rule:evenodd;fill:#25B3B5;" d="M290.7,268.6c-2-3.4-5-6.1-8.8-7.6c-0.3-0.1-0.5-0.3-0.7-0.7
	c-0.1-0.3-0.2-0.6,0-0.9c3.1-5.6,5.6-11.2,9.2-13.4c2.7-1.6,5.7-1.6,9.4,0.3c1.3,0.8,2.5,1.8,3.6,2.8c2.4,2.3,4.1,4.6,4.6,7
	c1.2,5.7-2.6,11.1-8.7,13.8c-3.1,1.3-6.8,2.5-8.5-1.4"/>
<path style="fill-rule:evenodd;clip-rule:evenodd;fill:#EC6618;" d="M275.8,251.8c3.9-5.8,8.6-10.5,14.4-13.8
	c0.3-0.2,0.5-0.5,0.6-0.8c0-0.4,0-0.7-0.3-1c-3.5-4.1-7.5-7.7-12-10.9c0,0.5-0.2,1-0.3,1.5c-0.9,3.5-2.3,4.5-4.2,7
	c-0.3,0.5-0.5,1.2-0.7,1.8c-1,2.2-2.9,3.8-5.2,4.4c-0.6,2.4-1.7,5.4-3,8.4c3.2,0.7,6.2,2.6,9.2,3.9
	C274.8,252.5,275.5,252.3,275.8,251.8"/>
<path style="fill-rule:evenodd;clip-rule:evenodd;fill:#F45C0E;" d="M290.9,278.9c6.2,0.5,11.3-1.9,15-4.7c3.8-2.9,6.7-6.9,7.5-12.5
	c0,0,0-0.2,0.2-0.2c0,0,0.2,0,0.3,0c5.5,7.3,5.5,14.4-3.8,19.6c-6.7,3.8-13.8,4.5-19.4-1.8c0,0,0-0.2,0-0.3
	C290.7,279,290.8,278.9,290.9,278.9"/>
<path style="fill-rule:evenodd;clip-rule:evenodd;fill:#25B3B5;" d="M329.1,294.5c-1.4-7.2-5.2-13.3-7.8-20
	c-1.6,7.1-7.4,11.9-15.4,15.6c5.7,4.1,11.6,8.1,18,11.1c0.5,0.2,1.1,0.1,1.4-0.3c1.6-1.8,2.8-3.7,3.7-5.7
	C329.1,295,329.1,294.7,329.1,294.5"/>
<path style="fill-rule:evenodd;clip-rule:evenodd;fill:#FFFFFF;" d="M339.3,314c0.3-0.3,0.6-0.5,0.9-0.8c0.8-0.6,0.9-1.8,0.3-2.6
	c-0.6-0.8-1.8-0.9-2.6-0.3c-1.5,1.2-2.9,2.6-4.1,4.2c-0.5-0.5-1-0.9-1.5-1.4c1.1-1.5,2.3-2.8,3.7-3.9c0.8-0.6,0.9-1.8,0.3-2.6
	c-0.6-0.8-1.8-0.9-2.6-0.3c-1.6,1.3-3,2.7-4.2,4.4c-0.4-0.4-0.9-0.7-1.3-1.1c-0.2-0.1-0.2-0.3-0.3-0.5c0-0.4,0-0.8-0.1-1.2
	c0-0.2,0-0.5,0.2-0.6c1.5-1.4,3-2.8,4.5-4.2c0.1-0.1,0.2-0.3,0.2-0.5c0-0.7,0.1-1.4,0.2-2.2c0-0.2,0.1-0.4,0.4-0.6
	c0.2-0.1,0.4-0.1,0.7,0c3.1,1.4,6.3,2.5,9.4,3.4c0.2,0,0.4,0.2,0.5,0.4l3.5,8.9l-8,1.3L339.3,314z"/>
<path style="fill-rule:evenodd;clip-rule:evenodd;fill:#25B3B5;" d="M274.8,150.4c0.8-2,1.5-4.2,2.1-6.4c0.1-0.4,0.2-0.9,0.3-1.4
	c0-0.2,0-0.4-0.1-0.6c-0.1-0.2-0.3-0.3-0.5-0.3c-2.1-0.3-4.3-0.7-6.5-1.2L274.8,150.4z M273.9,152.4c0.2-0.5,0.5-1,0.7-1.5
	l-4.9-10.4c-0.2,0.6-0.4,1.2-0.5,1.8l4.8,10.1L273.9,152.4z M266.7,149.7c-0.9,2.5-1.8,5.1-2.8,7.6c0.3,0.2,0.6,0.3,0.9,0.5
	c1.3,0.7,2.6,1.5,3.9,2.4c0.3,0.2,0.7,0.1,0.9-0.2c0.4-0.5,0.7-1.1,1.1-1.7L266.7,149.7z M268.8,143.4c-0.4,1.2-0.8,2.4-1.2,3.6
	l4.4,9.2c0.5-0.9,1-1.9,1.5-2.9L268.8,143.4L268.8,143.4z"/>
<path style="fill-rule:evenodd;clip-rule:evenodd;fill:#EC6618;" d="M234.9,219.5c-8.3-1.4-14.8-3.2-19.9-5.3
	c-1-0.4-1.9-0.8-2.8-1.2l-0.3,1.2v0.5c-0.5,1.5-1,3.5-1.7,5.3l5,4.3l4.6,3.9l0,0c4.3-0.7,8.4-1.6,12.4-2.7c0.8-2.1,1.8-4.1,2.8-6"/>
<path style="fill-rule:evenodd;clip-rule:evenodd;fill:#FFFFFF;" d="M304.9,266c-0.1-0.8-0.2-1.4-0.5-2.1
	c-1.9-3.8-5.6-10.8-9.1-12.6c-0.6-0.4-1.4-0.3-2,0.3c-2.2,1.9-4.8,3.4-7.8,4.3c-1.3,0.3-1.4-0.9-0.8-2.5c0-0.1,0-0.2,0.1-0.4
	c1.8-3.1,3.5-5.7,5.7-6.9c2.7-1.6,5.7-1.6,9.4,0.3c1.3,0.8,2.5,1.8,3.6,2.8c2.4,2.3,4.1,4.6,4.6,7c0.8,3.6-0.5,7.1-3,9.8"/>
<path style="fill-rule:evenodd;clip-rule:evenodd;fill:#863012;" d="M278.7,240.2l-3.5-5.7l-0.8-1.2c-0.1,0.2-0.3,0.3-0.4,0.5
	c-0.3,0.5-0.5,1.2-0.7,1.8c-1,2.2-2.9,3.8-5.2,4.4c-0.5,1.9-1.3,4.2-2.2,6.6c-0.2,0.6-0.5,1.1-0.7,1.7l0,0c0,0,0.1,0,0.2,0
	c0.3,0,0.7,0.2,1,0.3c2.3,0.7,4.5,1.9,6.7,3c0.3,0.2,0.6,0.3,1,0.4c0.1,0,0.2,0,0.3,0.1c0.5,0.2,1.2,0,1.5-0.4
	c1.7-2.6,3.6-5,5.7-7.1v-0.2c-0.1,0-2.8-4.2-2.8-4.2l0,0L278.7,240.2z"/>
<path style="fill-rule:evenodd;clip-rule:evenodd;fill:#FFFFFF;" d="M319.6,279.9c3.3,6.1,6.2,11.8,8.3,17.2c0,0,0,0,0,0.1
	c0.4-0.7,0.7-1.3,1.1-2c0.1-0.2,0.1-0.5,0-0.7c-0.2-1-0.4-1.9-0.7-2.8c-0.3-1.1-0.7-2.1-1-3.2c-0.9-2.4-1.9-4.7-3-6.9
	c-1.1-2.3-2.2-4.6-3.1-7c0,0.3-0.1,0.5-0.2,0.8c-0.4,1.5-1,2.8-1.8,4.1c0,0.2,0.2,0.3,0.3,0.5"/>
<path style="fill-rule:evenodd;clip-rule:evenodd;fill:#0F5762;" d="M326.3,299.3L312,286.7c-1.8,1.2-3.8,2.3-6,3.3c0,0-0.1,0-0.2,0
	c0,0,0,0,0.1,0c0.9,0.7,1.9,1.4,2.8,2c3.8,2.7,7.7,5.2,11.8,7.4c0.8,0.5,1.7,0.9,2.6,1.3c0.2,0.1,0.4,0.2,0.7,0.3
	c0.5,0.2,1.1,0.1,1.4-0.3c0.4-0.5,0.8-1,1.2-1.4L326.3,299.3L326.3,299.3z"/>
<path style="fill-rule:evenodd;clip-rule:evenodd;fill:#EC6618;" d="M243.6,158.1c1,3.5,2.7,6.7,4.9,9.5c1.7-1,3.5-1.9,5.2-2.7
	c0.5-0.3,1.1-0.5,1.6-0.8c-1.1-0.5-2-1.2-2.9-2l-1.4-1.3l-0.2-1.9c0-0.1,0-0.3,0-0.4c-0.7-0.1-1.4-0.4-2-0.7c-0.9-0.5-1.7-1-2.4-1.6
	c-1-0.8-2-1.7-2.9-2.7c0,0.1,0,0.3,0,0.4c0,1.1-0.2,3.4,0.1,4.5"/>
<path style="fill-rule:evenodd;clip-rule:evenodd;fill:#F45C0E;" d="M203.4,182.8c-7.1-3.2-14-1.3-21.3,2.5c-0.4,0.2-0.7,0.6-0.8,1
	c-0.1,0.5,0,0.9,0.2,1.3c0.6,1,1.1,1.9,1.7,2.9c0.1,0.2,0.4,0.3,0.6,0.2c7.1-2.5,14.5-3.1,22.2-1.5c0.2,0,0.3,0,0.4-0.2
	c0.1-0.1,0.1-0.3,0.1-0.5c-0.5-1.9-1.7-4.1-2.9-5.7c0,0-0.1-0.1-0.2-0.1"/>
<path style="fill-rule:evenodd;clip-rule:evenodd;fill:#25B3B5;" d="M205.6,201.3c-0.9-0.3-2.8-1.4-3.8-1.9
	c-4.2-2.2-9.3-4.1-14.1-4.8l10.6,5.1c2.6,1.4,7.1,4.8,8.4,6.7c0,2.2-2.5,12-3.6,13.2c-1.7,1.8-6.8,6.6-7.6,8.1
	c-3.6-1.5-9.5-6.6-12-10l-5.2-8.4c-0.3-0.5-0.3-0.5-0.6-1c-1-2-1.2-1.1,0.3-3.3c1.8-2.5,4.6-6.5,5.7-9.5l-0.4,0.2
	c-0.7,0.5-0.7,0.6-1.4,0.9v-8.4c3.7-2.9,18.5-5.6,25.4,3.5c1,1.3,0.4,2.1-0.3,4.6c-0.5,1.6-1,3.3-1.5,4.9 M200.8,226.5
	c-0.5,0.8-3.1,4.1-3.8,4.6c-3-0.4-8.9-2.4-10.7-4l1.3-1.8c2.5,1.9,5.1,3.3,8.4,4.6c0.7-0.8,3.5-3.8,4.3-4.2L200.8,226.5L200.8,226.5
	z"/>
<path style="fill-rule:evenodd;clip-rule:evenodd;fill:#FFFFFF;" d="M273.5,267.6c2.2,4.2,5.2,7.7,7.8,11.4c1.5,2.1,1.3,2.3-0.7,0.7
	c-5.6-4.7-11.1-9.4-16.4-14c-0.8-0.8-0.7-1.1,0.4-0.9c2.2,0.3,4.3,0.3,6.5,0.3c1.7,0,1.7,1.4,2.3,2.6"/>
<path style="fill-rule:evenodd;clip-rule:evenodd;fill:#25B3B5;" d="M186.8,234.8c-4.3,1.5-7.9,4.6-10.7,9.2
	c4.4,3.4,9.1,6.4,14.2,8.2c5.9-2.9,9.8-7.3,12.7-12.3l-3.3-3c-1.2,0.6-2.4,0.8-3.8,0.6c-2.5-0.4-6.1-1.4-9.3-2.8"/>
<polygon style="fill-rule:evenodd;clip-rule:evenodd;fill:#FFFFFF;" points="230,180 232.1,186.9 237.3,181.9 234.9,188.7 
	242.1,187.8 236.1,191.9 242.5,195.3 235.3,195.1 238.4,201.6 232.7,197.3 231.4,204.4 229.3,197.5 224.1,202.4 226.5,195.6 
	219.3,196.6 225.3,192.5 218.9,189.1 226.1,189.2 223,182.7 228.7,187.1 "/>
<path style="fill-rule:evenodd;clip-rule:evenodd;fill:#863012;" d="M229.5,218.6l-12.6,7.3l2.8,2.4c4.3-0.7,8.4-1.6,12.4-2.7
	c0.8-2.1,1.8-4.1,2.8-6C233,219.3,231.2,219,229.5,218.6"/>
<path style="fill-rule:evenodd;clip-rule:evenodd;fill:#863012;" d="M307.5,281c-3.1,0.2-6.2-0.6-8.9-2.9c-2.3,0.7-4.9,1.1-7.8,0.9
	c-0.1,0-0.2,0-0.2,0.1c0,0,0,0.2,0,0.3c4.5,5.1,10.1,5.6,15.6,3.6c1.3-0.5,2.5-1.1,3.8-1.8c0.6-0.3,1.1-0.6,1.6-0.9
	c-1.4,0.4-2.7,0.7-4.1,0.8"/>
<polygon style="fill-rule:evenodd;clip-rule:evenodd;fill:#0D1A26;" points="252.8,298.8 255.8,295.2 261.2,301.2 259.8,302.9 "/>
<path style="fill-rule:evenodd;clip-rule:evenodd;fill:#EC6618;" d="M270.1,228.4c0.6-0.9,1.2-1.8,1.3-3c0.6-4.7-4.8-7.8-10.5-9.2
	c-1.5-0.4-3.1-0.6-4.6-0.7c-4.1-0.3-7.7,0.6-9.7,4.6c-0.5,1-1.9,2.1-2.1,3.3v0.2c0,0,0.1,0,0.2,0c0.7-0.2,1.3-0.3,1.9-0.4
	c3.3-0.6,6.3-0.4,9.1,0.3c5,1.3,9,4.7,11.5,9.8c0,0,0.1,0.1,0.2,0.1c0,0,0.2,0,0.2-0.2c0.2-0.6,0.4-1.3,0.6-1.9
	c0.2-0.5,0.3-0.9,0.6-1.3c0.3-0.6,0.7-1.1,1.1-1.6l0,0"/>
<path style="fill-rule:evenodd;clip-rule:evenodd;fill:#863012;" d="M253.7,221.5c1.1-2.2,2.7-3.5,4.6-4.1c0.8-0.3,1.7-0.4,2.6-0.5
	c0.6,0,1.1,0,1.7,0c0.2,0,0.4,0,0.5,0c0,0-0.1,0-0.2,0c-0.6-0.2-1.3-0.4-2-0.6c-0.4,0-0.8-0.2-1.1-0.3c-1.2-0.2-2.3-0.4-3.5-0.5
	c-3.5-0.3-6.7,0.4-8.8,3.1c-0.3,0.4-0.6,0.9-0.9,1.4c-0.4,0.8-2.6,3-2.1,3.5c0,0,0.1,0,0.2,0c2.6-0.6,5.2-0.9,7.7-0.7
	c0.5-0.6,1-1.2,1.1-1.6"/>
<path style="fill-rule:evenodd;clip-rule:evenodd;fill:#EC6618;" d="M183.8,169.6c-0.2,3.2,0.9,6,3.1,8.5c0.1,0.2,0.4,0.2,0.5,0.1
	c3.1-1.3,6.5-1.9,10.1-2c0.2,0,0.3,0,0.4-0.2c0-0.1,0.1-0.3,0-0.4c-1.4-4.1-2.7-8.7-4.9-12.8c-5.3-1.3-18.9,3.1-24.2,6.2
	c-0.6,0.4-1,1-1.1,1.7c0,0.7,0.2,1.4,0.8,1.9c1.3,1.2,2.8,2.3,4.4,3.5c0.1,0,0.3,0.1,0.5,0c0.2,0,0.3-0.2,0.3-0.3
	c1.1-4.7,3.7-7.8,9.6-6.8c0.2,0,0.4,0.3,0.4,0.5"/>
<path style="fill-rule:evenodd;clip-rule:evenodd;fill:#EC6618;" d="M162.2,166c7.4-5,15.4-9.1,24.7-10.7c-0.5-0.3-0.9-0.7-1.4-1
	c-8.9-5.7-14-3.9-21.1-1.6c-0.2,0-0.5-0.1-0.5-0.3s0-0.4,0.3-0.6c6.5-6.5,21.7-8.6,26.5,3.2c1.4-8.8,0.2-19.1-9.4-19.5
	c-6.1-0.2-12.8,1.5-17.6,5.5c-3,2.5-5.1,5.7-5.8,9.4c-0.9,4.6,0.2,9.9,4.4,15.5"/>
<path style="fill-rule:evenodd;clip-rule:evenodd;fill:#FFFFFF;" d="M159.2,160.9c0.8-2.3,2.2-4.1,4.3-5.4c4,4.5,15.4-3.1,19.8,0.6
	c1.2-0.3,2.4-0.6,3.7-0.8c-0.5-0.3-0.9-0.7-1.4-1c-8.9-5.7-14-3.9-21.1-1.6c-0.2,0-0.5-0.1-0.5-0.3c0-0.1,0-0.2,0-0.3
	c1.2-10,18.5-14.6,27-6.2c-0.7-5.6-3.4-10.1-9.7-10.4c-4.2-0.2-8.7,0.6-12.7,2.5c-1.8,0.8-3.4,1.8-4.9,3.1c-3,2.5-5.1,5.7-5.8,9.4
	c-0.7,3.2-0.3,6.7,1.4,10.5"/>
<path style="fill-rule:evenodd;clip-rule:evenodd;fill:#FFFFFF;" d="M188,166.8c1.6,3.3,2.9,6.7,3.9,10.1c1.8-0.4,3.7-0.6,5.6-0.7
	c0.2,0,0.3,0,0.4-0.2c0-0.1,0.1-0.3,0-0.4c-1.4-4.1-2.7-8.7-4.9-12.8c-2.9-0.7-8.1,0.3-13.2,1.8c2.2,0.3,4.4,0.6,6.5,0.9
	C187,165.6,187.6,166,188,166.8"/>
<path style="fill-rule:evenodd;clip-rule:evenodd;fill:#FFFFFF;" d="M201.8,199.4c1,0.5,2.8,1.7,3.8,1.9c0.6-1.6,1.1-3.3,1.5-4.9
	c0.7-2.5,1.2-3.3,0.3-4.6c-0.8-1-1.7-1.9-2.7-2.7l0,0c0,0,0,0-0.1,0c-0.9-0.6-1.8-1.2-2.8-1.6l0,0c-2.4-1.1-5.1-1.7-7.7-1.8
	c2.2,0.6,4.3,1.5,6.1,2.9c0,0,0,0,0.1,0c0.9,0.7,1.8,1.6,2.5,2.6c1,1.3,0.4,2.1-0.3,4.6c-0.3,1.2-0.7,2.3-1.1,3.5c0,0,0.2,0,0.2,0.1
	"/>
<path style="fill-rule:evenodd;clip-rule:evenodd;fill:#FFFFFF;" d="M200.3,225.8c-0.6,0.2-2.4,2-3.5,3.2c-0.4,0.4-0.7,0.7-0.8,0.9
	c-0.7-0.3-1.3-0.5-1.9-0.8c-0.3,0.4-0.7,0.7-1.1,1c1.5,0.5,3,0.8,4.1,1c0.2-0.2,0.6-0.6,1-1.1c1-1.2,2.4-3,2.7-3.5l-0.5-0.8V225.8z"
	/>
<path style="fill-rule:evenodd;clip-rule:evenodd;fill:#FFFFFF;" d="M199.8,222.9c1.3-1.3,2.6-2.5,3.2-3.3c0.2-0.2,0.4-0.7,0.7-1.3
	c0.3-0.9,0.7-2.1,1.1-3.4c0.9-3.3,1.8-7.2,1.8-8.5c-1.3-1.9-5.8-5.3-8.4-6.7l-2.6-1.2c2.5,1.8,5.3,5.6,6.4,7.3c0,1.4-1,5.8-2,9.1
	c0,0.2,0,0.3-0.1,0.4c-0.5,1.8-1.1,3.2-1.5,3.6c-0.4,0.4-0.9,1-1.6,1.6c-1.4,1.4-3.3,3.2-4.6,4.6c-0.1,0.1-0.3,0.3-0.4,0.4
	c1.1,0.8,2.1,1.4,3,1.8c0.1,0,0.3,0.1,0.4,0.2c0.5-0.9,2.5-2.9,4.3-4.8"/>
<path style="fill-rule:evenodd;clip-rule:evenodd;fill:#FFFFFF;" d="M274.3,127.7c1.9,3.6,3.2,4.6,2.9,9.2c0,0.4-0.2,0.8-0.4,1.2
	l0.9,0.2c0.7,0.1,1.4,0,1.9-0.5c0.6-0.4,0.9-1,0.9-1.7c0.3-4.6-1-5.6-2.9-9.2c-2.5-4.8-2.2-5.4-7.1-8.9c-3-2.2-6.6-3.8-10.2-4.6
	c-3.6-0.8-7.2-0.7-10.5,0.6c2.9-0.4,5.9-0.1,8.9,0.7c3,0.9,5.9,2.3,8.5,4.1C272,122.2,271.8,122.9,274.3,127.7"/>
<path style="fill-rule:evenodd;clip-rule:evenodd;fill:#0D1A26;" d="M238.7,120.7l19.2,5.6c1.4,0.4,0.9,2.1-0.6,1.7l-19.3-5.2
	c-0.6-0.2-0.9-0.8-0.8-1.4c0.2-0.6,0.8-0.9,1.4-0.8"/>
<path style="fill-rule:evenodd;clip-rule:evenodd;fill:#0D1A26;" d="M237,125l12.3,3.6c1.4,0.4,0.9,2.1-0.6,1.7l-11.9-3.2V125
	L237,125z"/>
<path style="fill-rule:evenodd;clip-rule:evenodd;fill:#FFFFFF;" d="M252,151.3c-0.4,0.1-0.7,0.1-1,0c-1.9-1.1-3.6-2.6-4.9-4.6
	c-0.2,0.4-0.1,0.8,0,1.1c1.4,2.1,3.1,3.8,5.1,4.9c0.3,0.2,0.7,0.2,1,0c0.4-0.1,0.6-0.4,0.7-0.8c1.6-4.9,2.4-10.1,2.6-15.5l-0.4-0.2
	c-0.2,4.9-1.1,9.6-2.5,14.1c-0.1,0.4-0.4,0.6-0.7,0.8"/>
<path style="fill-rule:evenodd;clip-rule:evenodd;fill:#FFFFFF;" d="M388.2,298.2c-3.6-3.8-7-7.7-10.1-11.7
	c-0.2-0.2-0.4-0.4-0.6-0.6c-6.2-6.9-18.9-20.1-35.3-24.2c-5.8-1.4-12.3-0.5-18.9,1.6c0.2,0.4,0.4,0.8,0.7,1.1c2,3.5,4.4,8,6.5,12.5
	c10.7-7.4,23.6,0.3,36.7,8.9c7.1,4.7,14.1,9.6,20.9,12.7c0,0,0.2,0,0.3,0c0,0,0-0.2,0-0.3"/>
<path style="fill-rule:evenodd;clip-rule:evenodd;fill:#FFFFFF;" d="M241.7,253.6c-0.3,0.6-0.6,1-0.8,1.4c2.3,0.5,6.5,1.8,8.3,2.3
	c2.4,0.7,3.4,4.6,3.2,7.2c0,0.3,0,0.5-0.1,0.8c-0.1,0.5-0.5,2.3-0.9,3.8l1.3,1.2c0.2-0.3,0.9-2.8,1.3-4.5c0.2-0.7,0.3-1.3,0.4-1.6
	c0.5-2.4-0.5-7.2-3.1-8C249.1,255.6,243.3,253.8,241.7,253.6"/>
<path style="fill-rule:evenodd;clip-rule:evenodd;fill:#0F5762;" d="M226,258.3c-0.7,1.6-1,1.9,0.5,3.5c0.5,0.5,0.5,0.5,1.1,0.7
	c0.6-1.5,1.1-2.7,1.5-3.6c-1.3-1.4-1.2-1.8-0.7-3c0-0.1,0.1-0.3,0.2-0.4c0.5-1.1,1.7-4,3.2-6.3c-1.5,0.8-3.2,3.6-4.4,5.9
	c-0.7,1.4-1.2,2.6-1.5,3.3 M230.4,260.8c-0.8,1.8-1.1,2.8-0.7,4.1c0.2,0.4,0.4,0.9,0.8,1.5c1.9,2.8,2.5,3.2,4.4,3.1l0,0
	c0.2-0.5,0.6-1.6,1.2-2.9c-1-0.3-1.6-1-2.9-3c-1.1-1.7-1.2-2.6-0.6-4.1c0.1-0.4,0.3-0.9,0.6-1.4c0.7-1.8,1.9-3.8,3.2-5.6
	c0,0-0.2,0.1-0.3,0.3c-1.6,1.4-3.2,3.7-4.5,5.9c-0.4,0.8-0.8,1.6-1.1,2.3L230.4,260.8z M239.1,264.9c-1,1.8-1.9,3.7-2.3,6
	c0,0.5-0.1,1-0.1,1.6c0.8,1.4,4.6,3.8,6.8,4.1l0,0c0.3-0.9,0.9-2,1.4-3.2c-2.2-0.8-4.9-2.6-5.6-3.8c0-1.4,0.3-2.7,0.7-3.9
	c0.4-1.1,0.8-2.1,1.3-3l-0.9-0.5c-0.4,0.9-0.9,1.8-1.4,2.7L239.1,264.9z M224.3,258.2c0.5-1.5,1-2.8,1.5-3.9
	c-0.3-0.4-0.5-0.7-0.5-1.1c-0.1-1.1,0.7-2.5,2.3-4.9c0.4-0.6,0.8-1.1,1.2-1.6c-0.4,0-0.7,0.5-1.3,1.3c-0.9,1.1-1.7,2-2.5,3.3
	c-0.3,0.4-0.5,0.8-0.8,1.1c-2.1,3.2-2.2,4.3,0,5.9L224.3,258.2z"/>
<path style="fill-rule:evenodd;clip-rule:evenodd;fill:#25B3B5;" d="M186.8,234.8c-4.3,1.5-7.9,4.6-10.7,9.2
	c4.4,3.4,9.1,6.4,14.2,8.2c5.9-2.9,9.8-7.3,12.7-12.3l-3.3-3c-1.2,0.6-2.4,0.8-3.8,0.6c-2.5-0.4-6.1-1.4-9.3-2.8"/>
<path style="fill-rule:evenodd;clip-rule:evenodd;fill:#863012;" d="M176.1,244.1c0.8-1.4,1.8-2.7,2.8-3.8l0,0
	c-0.5,0.2-1.3,0.7-2.3,0c-4.4-4.4-6.5-8.1-7.5-12.1c-0.6-2.4-0.1-4.3,0.4-6.6c0-0.4,0.2-0.7,0.3-1c-1.5,1.5-2.6,3.1-3,4.9
	c-0.6,2.3-1,4.2-0.4,6.6c1,4,3.1,7.8,7.5,12.1c1,0.7,1.8,0.3,2.3,0"/>
<path style="fill-rule:evenodd;clip-rule:evenodd;fill:#0F5762;" d="M178.9,240.2c-1,1.1-1.9,2.4-2.8,3.8c4.4,3.4,9.1,6.4,14.2,8.2
	c5.3-2.6,9-6.5,11.8-10.8c0.2-0.4,0.5-0.7,0.7-1.1c-0.3,0.3-0.5,0.7-0.8,1c-2.4,2.8-5.3,5.2-9,7c-5.1-1.9-9.8-4.8-14.2-8.2"/>
<path style="fill-rule:evenodd;clip-rule:evenodd;fill:#863012;" d="M195.6,257.4c-1.9,0.9-4,1.6-6.1,2c6.2,3.9,11.4,4.7,15.6,2.1
	c4.3-2.1,7.4-5.4,10-9.1c0,0,0-0.1,0.1-0.2c0-0.2,0-0.3,0-0.5c-0.2,0.2-0.3,0.3-0.5,0.5c-2,2.2-4.3,4-7.1,5.4
	c-3.3,2.1-7.4,2-12.1-0.2"/>
<path style="fill-rule:evenodd;clip-rule:evenodd;fill:#0F5762;" d="M213.9,264.3l13,10c0.2-0.3,0.5-0.7,0.7-1
	c-1.2-1.1-2.2-2.5-3.2-4.2c-0.5-0.8-0.9-1.6-1.2-2.3c-0.9-0.5-1.6-1.1-2.4-2c-1.3-1.5-2.1-2.9-2.5-4.3c-0.2-0.2-0.5-0.5-0.7-0.7
	l-3.7,4.6L213.9,264.3z"/>
<path style="fill-rule:evenodd;clip-rule:evenodd;fill:#FFFFFF;" d="M259.6,270.1l30.8,24.4l10.6,8.4l8.4,6.6l13.8,10.9
	c1.1,0.9,3,1.4,4.9,1.5h-0.6c-1.4,0.4-3.1,0.5-4.7,0.3c-1.7-0.2-3.2-0.7-4.2-1.4L276.5,287l-15.7-12.6l-2.2-1.8
	C259,272,259.3,271.1,259.6,270.1 M206.6,228.2l17.8,14.1c-0.3,0.3-0.5,0.6-0.8,0.9c-0.2,0.3-0.5,0.5-0.7,0.8l-2.6-2.1l-7-5.6
	l-7.7-6.2c0.1-0.2,0.2-0.4,0.3-0.5C206.2,229.2,206.4,228.7,206.6,228.2L206.6,228.2z M173,201.6l-1-0.8l-29.5-23.3 M172,203.1
	c0.3-0.5,0.6-0.9,1-1.4l-30.4-24.1l-0.4-0.3l0,0c-1-0.7-2.3-1.1-3.3-0.8c0,0,0.1,0.1,0.2,0.2l32,25.7L172,203.1L172,203.1z"/>
<path style="fill-rule:evenodd;clip-rule:evenodd;fill:#FFFFFF;" d="M194.5,135.8c1.1-0.1,2.9,0.3,5.1,1.2
	c6.1,1.4,12.2,1.8,18.3,2.9c4.7,0.8,9.3,2,13.8,4.5c0.2,0,0.2,0.2,0.2,0.4s-0.1,0.3-0.3,0.4c-2.3,0.8-6.9,2.1-8.4,2.8
	c1.2,0,5.1-0.6,7.4-0.8c0.3,0,0.6,0,0.9,0.3c0.2,0.2,0.4,0.5,0.3,0.9c-1,12.8,3.5,24.5,14.7,31.6c0.3,0.2,0.8,0.3,1.1,0
	c38.5-26.1,32.3-3.7,22.3,32.4c1.5,0.7,2.9,1.6,4.3,2.6c0.6,0.4,1.1,0.9,1.6,1.4c0.1-0.4,0.3-0.9,0.4-1.4c2.7-8.8,9.4-26.7,9-35.4
	c-0.4-8-6-13.4-11-16.8c-1.9,2.7-4,4.8-6.2,5.3c-1.8,0.5-3.6,0.3-5.2-0.4c-4.9,2.1-9.8,4.4-14.7,7.7c-0.5,0.3-1.1,0.3-1.5-0.1
	c-4.8-4.5-8-9.8-9.7-15.6c-1.4-4.8,1-14-1.1-15.7c-3.8-3.5-9-5.8-15-7.3c-4-1-8.4-1.6-12.9-2c-3.1-0.3-6.3-0.4-9.5-0.4
	c-0.1,0-0.3,0-0.4,0c-2,0-5.4-2.1-5.9,0c0.9,0.4,1.6,1.1,2.3,1.9"/>
<path style="fill-rule:evenodd;clip-rule:evenodd;fill:#FFFFFF;" d="M257.2,199.9c8.4,2.1,15.4,4.7,21.4,7.7c1.2-3.7,2.6-7.9,3.8-12
	c-6.7-2.7-13.8-4.8-21.4-6.1C259.5,192.9,258.3,196.3,257.2,199.9"/>
<path style="fill-rule:evenodd;clip-rule:evenodd;fill:#FFFFFF;" d="M211.6,158.1c2.4-5.4,4.1-11,5-16.6c0.3-1.9,0.6-3.9,0.7-5.9
	c-3-0.6-6.1-1-9.4-1.2c-2.6-0.2-5.2-0.3-7.9-0.4c0,0.4,0.2,0.7,0.3,1.1c0.9,3.7,1.4,7.4,1.4,11.2c0,1.3,0,2.5,0,3.8
	c-0.2,2.5-0.5,5-1,7.5c2.8-0.1,5.5-0.1,8.1,0.1C209.7,157.7,210.7,157.9,211.6,158.1"/>
<path style="fill-rule:evenodd;clip-rule:evenodd;fill:#FFFFFF;" d="M269,223.2c-0.1,1.1-0.7,2-1.3,3l0,0c-0.4,0.5-0.8,1.1-1.1,1.7
	c-0.2,0.4-0.4,0.9-0.6,1.3c-0.1,0.4-0.2,0.8-0.4,1.2c0.7,0.9,1.3,1.9,1.8,3c0,0,0.1,0.1,0.2,0.1c0,0,0.2,0,0.2-0.2
	c0.2-0.6,0.4-1.3,0.6-1.9c0.2-0.5,0.3-0.9,0.6-1.3c0.3-0.6,0.7-1.1,1.1-1.6l0,0c0.6-0.9,1.2-1.8,1.3-3c0-0.3,0-0.6,0-0.9
	c0-2.2-1.5-4-3.6-5.5c0.6,0.9,1,1.8,1.1,2.8C268.9,222.3,268.9,222.7,269,223.2"/>
<path style="fill-rule:evenodd;clip-rule:evenodd;fill:#25B3B5;" d="M260,244.4c-4.9-5-13.3-7.7-23.6-7.7c-1.2,1.3-2.3,3.1-3.2,4.1
	c-0.2,0.2-0.3,0.3-0.5,0.5c-0.1,0.1-0.2,0.2-0.3,0.3c0.4,0.2,0.9,0.5,1.3,0.8c0.6,0.3,1,0.8,1.4,1.2c0.5,0.2,1,0.4,1.4,0.7
	c0.7,0.4,1.3,0.9,1.9,1.5c0.2,0.2,0.5,0.5,0.7,0.8l0.7,0.3l1.2,0.5c0.5,0.2,1,0.5,1.4,0.8c1.8,0.3,4,1.1,5.7,1.6
	c1.5,0.5,3,1,4.4,1.5c0.6,0.2,1.2,0.5,1.8,0.8c0.3-0.5,0.7-1.1,1.1-1.7c1.1-1.6,3.3-3.9,4.6-5.9"/>
<path style="fill-rule:evenodd;clip-rule:evenodd;fill:#EC6618;" d="M261.5,239.5c0.2-0.7,0.7-2.9,1-3.4c1.2-1.6-1.8-6.4-8.9-7.8
	c-17.1-3.4-11.3,3.9-13.5,4.3C249.2,232.8,256.8,235.2,261.5,239.5"/>
<path style="fill-rule:evenodd;clip-rule:evenodd;fill:#FFFFFF;" d="M253.8,242.2c-1.2,2-3.5,4.4-4.6,5.9c0,0,0,0,0,0.1
	c-0.4,0.6-0.7,1.1-1,1.5c1.4,0.5,2.9,1,4.3,1.5c0.6,0.2,1.2,0.5,1.8,0.8c0.3-0.5,0.7-1.1,1.1-1.7c1.1-1.6,3.3-3.9,4.6-5.9
	c-2.9-3-7.2-5.2-12.4-6.5C250,239.1,252.1,240.5,253.8,242.2 M257.9,234.4c-0.2,0.3-0.5,1.3-0.7,2.1c1.6,0.8,3,1.8,4.3,2.9
	c0.2-0.7,0.7-2.9,1-3.4c1.2-1.6-1.8-6.3-8.7-7.8C257.4,230.2,258.8,233.1,257.9,234.4L257.9,234.4z"/>
<path style="fill-rule:evenodd;clip-rule:evenodd;fill:#FFFFFF;" d="M278.2,227.1c4.2,3.4,8,7.2,11.2,11.4l0,0c0,0,0.1,0,0.2,0
	c0.2-0.1,0.4-0.3,0.7-0.4c0.3-0.2,0.5-0.5,0.6-0.8c0-0.4,0-0.7-0.3-1c-3.5-4.1-7.5-7.7-12-10.9c0,0.5-0.2,1-0.3,1.5c0,0,0,0.2,0,0.3
	"/>
<path style="fill-rule:evenodd;clip-rule:evenodd;fill:#FFFFFF;" d="M209.2,478.2l13.2,0.8l2.7,3.9l12.4,17.8l1.2,1.8l-19.9-1.2
	l-1.5-3.7l-7.6-17.9l-0.5-1.1c0-0.1,0-0.2-0.2-0.3"/>
<path style="fill-rule:evenodd;clip-rule:evenodd;fill:#FFFFFF;" d="M319.9,478.2l-13.2,0.8l-2.7,3.9l-12.4,17.8l-1.2,1.8l19.9-1.2
	l1.5-3.7l7.6-17.9l0.5-1.1c0-0.1,0-0.2,0.2-0.3"/>
<path style="fill-rule:evenodd;clip-rule:evenodd;fill:#FFFFFF;" d="M327.4,322c-0.8,0.2-1.7,0.3-2.7,0.3c-0.7,0-1.3,0-2,0
	c-1.7-0.2-3.2-0.7-4.2-1.4l-42.1-33.8l-1.9-1.5l-13.8-11.1l0,0l-2.2-1.8c0,0,0,0.1-0.1,0.2c0,0.1-0.2,0.2-0.2,0.3l2.3,1.8l13.3,10.5
	l48.4,38.3c1.3,1,3.6,1.5,5.9,1.5c1,0,2.1-0.1,3-0.3l2.7-0.4l13.7-2.1l26.1-4.1l2.5-0.4l-0.5-0.4c-2.1-1.9-2.8-2.6-4.8-2.1h-0.9
	c0,0.1-16.5,2.8-16.5,2.8l-21.4,3.4c-0.4,0-0.7,0.2-1.1,0.2c-0.9,0.1-1.9,0.1-2.9,0h-0.6L327.4,322z"/>
<path style="fill-rule:evenodd;clip-rule:evenodd;fill:#FFFFFF;" d="M334.1,325.2l8.4,10.7l1.4,1.7h1.2l42.1-0.8l-21.5-20.2
	l-11.9,1.9l-21.9,3.4c0,0-0.2,0-0.3,0L334.1,325.2L334.1,325.2L334.1,325.2z"/>
<path style="fill-rule:evenodd;clip-rule:evenodd;fill:#FFFFFF;" d="M183,184.9c5.7-2.3,11.2-3,16.9-0.5c0,0,0.1,0,0.2,0.1
	c0.6,0.8,1.2,1.8,1.7,2.8c1,0.5,2,1,2.9,1.7c0.4,0,0.8,0.1,1.2,0.2c0.2,0,0.3,0,0.4-0.2c0.1-0.1,0.1-0.3,0.1-0.5
	c-0.5-1.9-1.7-4.1-2.9-5.7c0,0-0.1-0.1-0.2-0.1c-6.8-3.1-13.4-1.4-20.4,2"/>
<polygon style="fill-rule:evenodd;clip-rule:evenodd;fill:#EC6618;" points="34.4,363.5 137.1,363.5 137.1,356.8 32.7,356.8 "/>
<polygon style="fill-rule:evenodd;clip-rule:evenodd;fill:#25B3B5;" points="65.8,424.1 56.1,424.1 57.5,430.7 65.8,430.7 "/>
<polygon style="fill-rule:evenodd;clip-rule:evenodd;fill:#25B3B5;" points="463.3,424.1 473,424.1 471.6,430.7 463.3,430.7 "/>
<polygon style="fill-rule:evenodd;clip-rule:evenodd;fill:#EC6618;" points="494.7,363.5 392,363.5 392,356.8 496.4,356.8 "/>
</svg>
