<svg version="1.1" id="Layer_1" xmlns="http://www.w3.org/2000/svg" x="0" y="0" viewBox="0 0 200 200" xml:space="preserve"><style>.stl_st1{fill:#f7d17d}.stl_st2{fill:#f7ce72}.stl_st3{fill:#010100}.stl_st4{fill:#f4bb41}.stl_st5{fill:#b8a974}.stl_st7{fill:#202020}.stl_st8{fill:#cf0806}.stl_st9{fill:#cf0503}.stl_st10{fill:#d80402}.stl_st11{fill:#c0ac76}.stl_st12{fill:#c3ae6a}.stl_st13{fill:#dcd8ba}</style><path d="M3.8 76.4h.1c.6 0 .8-.5 1-.8h.2c.4 0 .5-.2.7-.4h.1c.4 0 .5-.2.7-.4h.1c.4 0 .5-.2.7-.4h.1c.3.1.4-.2.6-.3.2 0 .4 0 .5-.2.2 0 .4 0 .5-.3h.4c.2.1.3 0 .3-.1.2 0 .4 0 .5-.3h.8c.3.4.7.4 1 .5h.2l1.1.4h.2c.1.3.4.4.6.4h.2c.1.3.3.4.5.4h.2l1.1.4h.2c.1.3.4.4.6.4l.2.2c.4.4 1 .4 1.4.6l.2.2c.1.1.2.3.4.3.1.3.4.3.6.3l.4.4.3.2c0 .2 0 .3.2.3 0 .2.2.3.4.3 0 .2 0 .4.2.5v.1c.3.3.4.3.7 0 .1 0 .4 0 .4-.2h1.9c.3.3.7.3 1.1.4l.2.1c.1.3.4.3.6.3l.2.2c.1.2.2.3.4.3.1.3.4.3.6.3l.2.1c.1.2.3.3.5.3H28.7c.2.3.5.4.8 0h3.2c.2 0 .2 0 .3-.2.2 0 .4 0 .5-.2h1.2c.2 0 .2 0 .3-.2.2 0 .4 0 .5-.2h.8c.2 0 .2 0 .3-.2.2 0 .4 0 .5-.2a115.9 115.9 0 001-.2c.3 0 .5 0 .6-.2h4c.2.3.6.3 1 .4h.2c.3.2.6.4 1 .3h1c.2.3.6.4 1 .4h.2c.3.3.6.5 1 .5H48.7c.3.2.6.3 1 .3H53.5c.2.2.3 0 .4-.2h.2c.8-.2 1-.4 1.2-1.3l.8-.8c.1 0 .2 0 .2-.2.2 0 .2-.1.2-.3.4-.1.3-.4.4-.7l1.8-1.8c.2 0 .2-.1.2-.3.4-.1.3-.4.4-.7v-.2c.4 0 .4-.3.4-.6V74c.5 0 .3-.3.4-.6l.2-.2c.1 0 .2 0 .1-.2v-.2-.6c.3-.3.4-.7.5-1.2l.1-.2c.4 0 .3-.3.3-.6l.1-.1c.4-.1.3-.4.3-.6l1.2-1.2c.2 0 .6 0 .6-.3l.2-.1c.5 0 .9-.2 1.2-.5h.2l.3-.1c.3-.3.3-.8-.2-1.2v-.6c.4-.4.5-.8.5-1.2l.1-.2c.4-.1.3-.4.3-.6l.1-.2c.3 0 .4-.2.3-.4v-.2-.4c.3-.4.4-.8.5-1.2l.1-.2c.2 0 .3-.2.3-.3v-.1c.3-.1.4-.2.3-.4v-.2c.3-.4.4-.8.5-1.2v-.2c.4-.1.3-.4.4-.6v-.2c.4-.1.3-.4.4-.6l.2-.2c.2 0 .2-.2.2-.3v-.1c.3 0 .4-.2.3-.4v-.2c.3-.4.4-.8.5-1.2v-.2c.4 0 .3-.4.4-.6l.2-.2c.2 0 .2-.2.2-.3v-.1c.3 0 .4-.2.3-.4v-.2c.3-.4.4-.8.5-1.2v-.2c.4 0 .3-.4.4-.6l.2-.2s.2 0 .1-.2V50v-.8-.2c0-.4-.2-.7-.4-1v-.2c0-.4-.2-.7-.4-1v-.2c0-.4-.1-.7-.4-1v-.4-.2c0-.4-.1-.7-.4-1v-.2-.2l-.1-.2-.2-.2c0-.4-.1-.7-.4-1H70v-.6c.3-.3.4-.6.5-1l.7-.8c.3 0 .6 0 .7-.3h.1c.3-.1.6 0 .7-.4h.1c.3-.1.6 0 .7-.4h.1c.3-.1.6 0 .7-.4h.1c.3-.1.6 0 .6-.4h.1c.2 0 .3-.1.3-.3l.2-.2c.3 0 .6 0 .6-.3h.2c.3-.1.6 0 .6-.4l.2-.1c.5 0 .9-.2 1.2-.5h.2c.4 0 .7-.2 1-.4h.2c.4 0 .7-.1 1-.4h.2c.4 0 .8-.1 1-.4H82.7a2 2 0 001-.4h.2c.3.2.4 0 .4-.2l.2-.1c.5 0 .9-.2 1.2-.5h1.8c.3 0 .6 0 .8-.3h.1l2.1-.1h.2c.4 0 .8-.1 1-.4a132 132 0 012.2 0c.4 0 .8 0 1-.4h2.6c.4 0 .8-.1 1-.4a259.5 259.5 0 013 0c.4 0 .8-.1 1-.4h8.2c.4.3.8.5 1.2.5h.2c0 .3.2.4.4.3h.2c.3.2.6.4 1 .4H114.3c.3.3.6.4 1 .4h.2c.3.2.6.4 1 .4h.2c.4.3.8.5 1.2.5l.2.1c0 .2.2.4.4.2h.2c.3.3.6.4 1 .4h.2c.3.3.6.4 1 .4h.2c.4.3.8.5 1.2.5l.2.1c0 .2.2.4.4.2h.2c.3.3.6.4 1 .4h.2c.4.3.8.5 1.2.5l.2.1c0 .4.4.3.6.3l.4.4a38.5 38.5 0 01.9.8c0 .2.2.3.3.5 0 .1 0 .3.2.3.2.2 0 .4.3.5v1.7c-.5.5-.5 1 0 1.5v.5c-.3.3-.5.6-.3 1v.2c-.4.3-.5.6-.5 1v1c-.3.3-.4.6-.4 1v.2a2 2 0 00-.5 1l.1.2v.8c-.1.2 0 .3.1.3l.2.3c0 .3 0 .6.3.6v.2c.1.3 0 .6.4.6l.1.2c0 .4.1.7.4 1 0 .2 0 .4.2.4l.2.2c0 .2 0 .6.3.6l.1.2c0 .3 0 .5.3.6 0 .2 0 .2.2.3v.1l.8 1.9c.4.7.8 1.4 1 2.2l.5 1c.3.3.5.8.7 1.2.5.8.6 1.7 1 2.5.4.5.4 1.2.2 2-.3.8-.2.9.6 1.1 2 .6 3.5 1.6 4 3.8l.1.2v.3c0 .1 0 .2.2.2l.1.3v.3l.1.6c.3.7.9 1.3 1.2 2 .2.3.2.6.5.9l1.4 1.5c.7.6 1.3 1.5 1.8 2.3.3.3.4.7.7.8 1 .4 2.1.8 3.3.7h1.5c.4 0 .8 0 1.1-.2l2.3-.6 2.7-.6c1-.4 1.9-.7 3-.6h2.1c.3 0 .7 0 1 .2.4.2 1 .2 1.4.2.4 0 .7 0 1 .2.4.2.9.2 1.3.2.5 0 1 0 1.3.3l.7.1h4.4c.3 0 .5 0 .8-.2l2-1c1.8-.8 3.8-1.2 5.5-2l2.8-1.4 3.4-1.6 1.2-.5c1-.5 2-.7 3-.2l1 .5 2.8 1.4c.6.2 1 .7 1.5 1 .6.2 1 .7 1.6 1 .2 0 .3.2.3.4.2.5.5.8.9 1.2l.3.3c.5 1.1.6 2.3.2 3.5l-.2.8c0 .4 0 .8-.3 1.2l-.8 2.2-.2.4-1 2c-.3.5-.6 1-.5 1.5l-.1.4c-.3.7-.8 1.4-1 2.1-.4 1.1-.9 2.1-1.2 3.2l-1 2c-.2 1-.9 1.9-1.6 2.7-.4.5-.8 1-1.3 1.3-.3.4-.7.9-1.1 1.1-.6.3-1.2.7-1.7 1.2-.7.5-1.6.9-2 1.8l-4 4-.5.3c-1 .3-2 .9-3 .8h-.3c-.6.4-1.1.4-1.7.4-.6 0-1.1.2-1.6.4-.1 0-.3.2-.2.3l.2.2c.5 0 .7.4 1 .6l1.5 1c.4.2.8.5 1 .8.4.4.7 1 .6 1.5-.2.8-.6 1.5-1.6 1.8l-2.7.8-1.6.5a1 1 0 01-.8 0c-.5-.3-1.1-.3-1.6-.6-.1-.1-.3-.1-.4 0v.3c.4.3.4.6.6 1 .2.6-.2 1.8-.7 2-.7.4-1.2 1-1.9 1.2-.6.3-1.3.6-2 .6-.4 0-.8-.3-1.2-.4-1.1-.2-2.3-.5-3.4-.9-.5-.1-1-.2-1.4-.6-.1-.2-.3-.1-.4 0-.1.2 0 .3 0 .4.4.3.9.3 1.1.6.8 1 1.9 1.5 2.8 2.2l2 1.4c.8.5 1.6 1.2 2.5 1.6l1.5 1c1.4.6 2.1 2.4 1.1 3.8-.1.2-.3.4-.5.4-.6.3-1.2.5-2 .5h-.6c-.2 0-.5.1-.3.4.5.5 1 1 1.6 1.3.5.3 1 .7 1.2 1.3.3.6.3 1.1 0 1.7-.4.9-1.7 1.4-2.6 1.1l-3-1.1a104 104 0 01-4.8-1.8l-1.3-.5c-.6-.3-1.3-.4-1.9-.8h-.4c-.1.2 0 .3.1.5.3.2.6.5.7 1 .2.2.4.5.8.6.2 0 .4.2.6.4.6.7 1.5 1 2.2 1.6.4.3 1.2 1.3 1 1.8-.1.9-.5 1.7-1.5 2.1-.7.3-1.5.5-2.1.9-1.7 1-3.6 1-5-.4-.7-.7-1.7-1.1-2.4-1.9l-.4-.2c-.6-.3-1-.8-1.5-1-.2-.1-.2-.3-.4-.2-.2 0-.2.2-.2.4v1.5c0 .8-.2 1.5-.8 2-.5.3-1.1.5-1.8.5-.4 0-.9-.2-1.3 0h-.2l-1.1-.4c-.7-.2-1.3-.3-1.9-.7-.3-.2-.4-.2-.7 0-.6.8-1.4 1.2-2.2 1.6-.4.1-.9.3-1.2.6-.5.5-1.2.6-1.6 1.2l-.3.1c-.3 0-.6.3-.7.6-.2.8-.9 1.2-1.4 1.7l-.2.2c-.1.4-.2.7-.5 1l-4.9 4.8-.2.2c-.1.5-.4 1-.7 1.2l-.8.7c-.6.6-1.1 1.5-2 1.7-.2 0-.3.1-.3.2-.6 1-1.6 1.4-2.4 2-.6.3-1.1.8-1.8 1.1-.8.4-1.7.8-2.5.9-1.3.1-2.3.6-3.5 1h-.2a.8.8 0 00-.9-.1c-1 .5-2 .2-3 .7-.9.5-1.8.8-2.8 1.1-.6.3-1.3.6-2 .6h-7.6c-.9 0-1.7-.4-2.5-.7h-.6-.3c-.2-.3-.5-.2-.7-.4-.7-.2-1.3-.7-2-.6a1 1 0 01-.7 0c-.4-.3-.8-.4-1.3-.4h-.7c-.5-.4-1-.4-1.5-.3-.3 0-.7 0-1-.2a.8.8 0 00-.6-.1h-.3l-1.7-.8c-.4-.2-.7-.7-1.2-.8-.5-.2-.8-.6-1.2-1 0-.1 0-.2-.2-.2a3 3 0 01-1.4-1c0-.1 0-.2-.2-.2-.3 0-.7-.2-.9-.5-1.1-1.3-2.4-2.4-3.5-3.6-.4-.3-.6-.6-.8-1 0-.2 0-.3-.2-.3l-.7-.7-4.5-4.6c-.4-.4-.8-.7-1-1.2 0-.2-.2-.4-.4-.5-.6-.1-1-.6-1.4-1 0-.1 0-.2-.2-.2-.3 0-.6-.3-1-.4-.7-.3-1.4-.7-2-1.4 0 0 0-.2-.2-.1-.1-.4-.4-.2-.6-.3l-.3-.2s0-.2-.2-.1h-.4l-.2.1c-.2 0-.3 0-.4.2l-.5.1-.3.1c-.2 0-.3 0-.4.2l-.2.1a29 29 0 01-3 0c-.2-.4-.5-.5-.9-.5l-.4-.4c0-.1.1-.4-.2-.5 0-.2 0-.3-.2-.4v-.2c-.1-.2-.1-.5 0-.8v-.1c.2-.3.5-.4.3-.8v-.2-.4-.2c.1 0 0-.2 0-.2-.2-.1-.3 0-.4.1v.2l-.1.1c-.4 0-.5.5-.8.6-.2 0-.4 0-.5.2-.2 0-.3.1-.3.2l-.8.8c-.2 0-.4 0-.5.2h-.1l-.2.2-.4.4c-.2 0-.4 0-.5.2h-.1l-.2.2-.8.8c-.4 0-.7.1-1 .4v.1h-1.8-.2c0-.2 0-.3-.2-.2-.2-.2-.4-.2-.6-.2H43c-.3-.1-.5-.4-.8-.3h-.2c-.1-.3-.3-.5-.6-.4h-.2c-.1-.3-.3-.5-.6-.4h-.2c-.1-.3-.3-.5-.6-.4h-.2a1 1 0 00-.5-.6v-.2l-.1-.4s0-.2-.2-.2v-.2-.5-.2c.1 0 .2-.1.2-.3 0 0 .2-.2 0-.3v-.2c.3-.1.5-.3.6-.6h.2c.3.1.5-.1.6-.4h.2c.6 0 .8-.4 1-.8h.2c.2.2.4 0 .5-.1.6-.6 1.3-1.2 1.9-2h.1v-.2-.2c-.3-.4-.5-.2-.7 0l-.2.2h-.2-.2-.1c-.2 0-.3.2-.4.4h-.1c-.2-.1-.3 0-.4 0 0 0-.2 0-.2.2l-.2.1h-.2l-.6.2h-.2l-.2.2H40v.2l-.6.2c-.1 0-.2 0-.3.2h-.3l-.2.2h-.1c-.4 0-.8.2-1 .4h-.7v.2a75.6 75.6 0 00-1.4.6h-.1l-.6.2h-.2c-.1 0-.2 0-.2.2h-1.4c-.3-.1-.5-.4-.8-.3h-.2a1 1 0 00-.5-.6l-.1-.1c.1-.4-.2-.6-.3-.9v-.5c.1-.3.4-.5.3-.8v-.2c.7-.5 1.2-1 1.7-1.6v-.1h.1l.3-.1c0-.3-.2-.4-.4-.3h-1.3c-.3-.2-.5-.5-.8-.4h-.2c-.2-.4-.5-.7-1-1v-.1c.1-.4-.2-.6-.3-.8v-.6c.1-.2.4-.5.3-.8v-.2c.5-.2.8-.5 1-1h.2c.3.2.5 0 .6-.3h.2c.6 0 .7-.5 1-.8h.2c.3 0 .5-.2.6-.4h.2l.4-.1c.3-.4.8-.7 1-1.1h.2c.6 0 .7-.5 1-.8h.2l.4-.1c.3-.4.8-.7 1-1.1h.2c.5 0 .6-.4.9-.7l.3-.1c.6 0 .8-.6 1.3-.9.2 0 .2-.2.4-.4v-.2h-.3l-.2.2c-.6 0-1 .5-1.4.6h-.2c-.2.1-.3.1-.3.3H38c-.3-.1-.5 0-.6.1h-.2l-.2.2-1 .1c-.4 0-.7.1-1 .3h-1.4c-.3 0-.5-.4-.8-.2l-.2-.1c-.2-.1-.3-.5-.6-.3l-.2-.1-1.3-1.4-.1-.1c.1-.4-.1-.6-.3-.8v-1l.2-.2c0-.1.2-.2.1-.4v-.3c-.2-.4-.4 0-.5.1a10.9 10.9 0 00-1 .5h-1c-.2-.2-.5-.5-1-.4h-.5c-.3-.2-.6-.5-1-.4h-.2c-.3-.2-.6-.5-1-.4h-.5c-.3-.1-.6-.4-1-.3a1 1 0 00-.6-.6v-.2c0-.3-.3-.5-.4-.8v-.5c.1-.3.4-.5.3-.9v-.1c.3-.1.5-.3.6-.6h.2c.6 0 .7-.4 1-.8h.2c.5 0 .7-.4 1-.7.2-.1.4 0 .6-.3.1 0 .3 0 .4-.2.1-.1.2-.4-.2-.3h-.4c-.5-.2-.8-.5-1.3-.5h-1c-.2-.2-.5-.4-1-.4h-1c-.2-.1-.4-.4-.7-.3h-.2c0-.2-.2-.4-.3-.5l-.2-.1-.2-.2H19.2 19c-.2-.2-.3-.6-.6-.4h-.2c-.2-.5-.5-.8-1-1v-.2-.3a16 16 0 00-2.3-2.3l-.2-.2v-.1-.1c-.3 0-.4-.4-.7-.2h-.2c0-.2-.2-.4-.3-.5l-.2-.1-.2-.2H13h-.2-.2c-.1-.4-.4-.6-.7-.8l-.2-.2-.2-.1-.1-.1h-.2-.2c-.3-.6-.8-1-1.2-1.4-.6-.5-1-1.2-1.7-1.6v-.1c0-.6-.4-.8-.8-1v-.2c0-.4-.3-.5-.4-.7l-.2-.3c.2-.4-.2-.6-.2-.8v-.2c0-.4-.3-.7-.4-1v-.2c0-.4-.2-.6-.5-.8v-.2c0-.3-.3-.5-.3-.8v-.2c0-.4-.3-.7-.4-1v-.2c0-.4-.2-.6-.5-.8v-.2c.1-.4-.3-.5-.4-.6v-.2c.1-.4-.3-.5-.4-.6v-.2c.1-.4-.3-.5-.4-.6V90c0-.3-.3-.5-.4-.8V89c0-.4-.1-.7-.4-1v-.2c0-.3-.2-.4-.4-.5v-.1c0-.3-.2-.6-.3-.8l-.1-.6c.2-.4-.3-.7-.3-1v-.2c0-.4-.3-.7-.4-1V83c0-.4-.3-.7-.4-1v-1.4c.3 0 0-.4.2-.5l.1-.1v-.2-.2c.2-.2.5-.2.4-.6V79c1-.8 1.8-1.7 2.6-2.6zm27 35.2c0-.3.2-.5.5-.4l.4.1c0 .3 0 .6-.3.8l-.3.2-2.2 1.4c-.7.4-1.6.7-2.2 1.4h-.1l-.6.3c-.4.5-1.2.6-1.6 1.2h-.1c-.2.2-.6 0-.5.4 0 .3.3.1.5.2h1c.2.5.6.3.9.4h.3c.2.4.4.2.6.2.4 0 1-.1 1.2.5 0 .2.3 0 .4 0 .8-.6 1.6-1 2.5-1.2h.3c.6-.3 1.1-.8 1.8-.8l.3-.2 2.1-1c.9-.2 1.6-.6 2.3-1l.4-.1a4 4 0 001.7-.7c.4-.2.8-.1 1.2-.2l.1.1c-.1.3 0 .7-.5.7l-.4.3c-1 .8-1.9 2-3 2.6-.7.4-1 1-1.7 1.3-.7.4-1.1 1.2-2 1.5 0 0 0 .2-.2.2-.3.3-.6.8-1 1-.2 0-.5-.1-.5.2 0 .3.1.4.3.6l1.4 1c.3.1.6.2.8 0 .5-.3 1-.2 1.6-.3l.5-.1c.3-.3.7-.3 1-.3.3 0 .5 0 .8-.2a3 3 0 011.1-.5c.7-.1 1.2-.5 1.9-.6l.8-.4c.9-.4 1.6-1 2.6-1.1l.3-.2c.6-.2 1.2-.7 1.9-.6.2 0 .5 0 .6.3 0 .4-.1.6-.5.6-.1 0-.3 0-.3.2 0 .6-.3 1-.6 1.3-1.3 1.3-2.5 2.8-4 3.8l-2.5 2c-.6.4-1.3.8-1.8 1.4h-.2c-.6.3-1 .8-1.7 1.1-.4.2-.6.7-1 1-.6.2-1.2.3-1.6.8l-.6.4c-.5.3-1 .4-1.3.7-.2.1-.3.3-.1.4.2.2.4.5.8.4h1.3l.5.1c.2.5.5.3.8.3h1.3c.4 0 .6.4.7.7.1.2 0 .4-.1.5l-1 1-2.7 2.6-.2.3c0 .2.3.1.4.2.4 0 .7-.2 1-.3.4-.3 1-.3 1.3-.5.5-.3 1-.3 1.4-.6.6-.3 1.2-.2 1.8-.6.4-.3 1-.5 1.5-.7a49 49 0 002.5-.9c.5-.2 1.1-.7 1.9-.6h.1c.8-.5 1.6-.8 2.4-1 .9-.3 1-.2.9.7 0 .3 0 .6-.2.9-.3.3-.4.7-.6 1.1-.2.4-.6.7-.5 1.1-.7.6-1 1.5-1.7 2.1-.8.8-1.7 1.6-2.7 2.2-.3.3-.7.5-1.2.6-.1 0-.3 0-.3.2l.3.2c.5 0 .8.3 1.2.5l1 .4c.1.3.3.2.5.2s.5 0 .7.2c.4.4 1 .4 1.5 0l1-.9c.9-.5 1.7-1 2.5-1.7l.4-.3.9-.6.5-.5c.6-.2 1-.6 1.4-1.1.5-.5 1.1-.3 1.4.3.1.4.2 1 .4 1.3.2.4.2.7.2 1v1.6l-.1.5c-.2.1-.3.3-.2.5 0 .2.3.2.5.2.8 0 1.6 0 2.5-.3l2-.9c.4-.2.6 0 .8.3.2.3.4.5.7.6.4 0 .9.2 1 .5.7.7 1.5 1 2.3 1.5.4.2 1 .3 1.4.8.2.4.6.7 1 .8.3 0 .5.4.9.4 0 0 .1.1 0 .2-.1.7.4 1 .8 1.4 2 2 4.1 4 6 6.2 1.2 1.6 2.6 3.2 4.4 4.1.5.8 1.4 1 2 1.7.4.5 1 .6 1.5 1 .5.5 1.1.9 2 .8.1 0 .5-.1.6.1.1.4.4.3.7.3h1.3c.2 0 .3 0 .4.2.1.2.3.2.5.2.6.1 1.2-.3 1.7.4h1.2c.3 0 .5.1.8.3.3.2.7.6 1.2.5h1c.4.5 1.2.4 1.7.8h8.4c.8-.7 1.8-.8 2.6-1.2.4-.2.8-.5 1.3-.4h.1c.4-.5.8-.4 1.3-.4.3 0 .7.1 1-.3l.4-.1h1.3c.2 0 .4 0 .5-.2.2-.2.4-.2.6-.2h.5c.3-.4.7-.4 1-.4.5 0 1 0 1.3-.3l.4-.1c.6 0 1.1-.3 1.5-.7l1.7-1.2c.7-.4 1.2-.8 1.7-1.3l.4-.4c.4 0 .7-.3 1-.6l2.2-2.5c1.7-2.1 4-3.8 5.6-6 .3-.5.8-.8 1.2-1.2l.2-.4c0-.5.7-1.2 1.1-1.3.3 0 .5-.1.6-.3.2-.3.4-.5.8-.5.2 0 .4-.2.5-.4.3-.4.8-.6 1.1-.7 1.2-.3 2-1.4 3-1.9.3-.1.6-.3 1-.2.6 0 1.1.5 1.8.6l.7.2.5.1c.2.4.6.3.9.3h1.2c.3.1.4 0 .4-.4-.3-1.2-.2-2.4-.1-3.6v-.2c.5-.2.4-.6.4-1 0-.2 0-.4.3-.4l.8.1 2 1.6.3.2c.9.6 1.8 1.1 2.6 1.9l.2.1c.9.4 1.4 1.2 2.2 1.6.4 0 1.1.2 1.4 0 .9-.4 1.7-1 2.7-1.1.2 0 .4-.2.6-.4 0 0 .2 0 .2-.2l-.3-.1c-.3 0-.5-.1-.7-.4l-.4-.4c-.4 0-.6-.3-.9-.5l-1.1-.8c-.6-.3-.9-1-1.2-1.4-.8-.9-1.5-1.8-2-2.8-.4-.7-.6-1.4-.7-2.1 0-.4 0-.5.4-.5.7 0 1.3.4 2 .6.5.2 1 .7 1.6.6.2 0 .4.1.5.3l.4.2c.6-.1 1 .5 1.7.4l.2.1c.5.3 1 .6 1.5.6.2 0 .3 0 .4.2.5.3 1 .6 1.7.7h.4c.5.4 1 .5 1.6.6.6.3 1.2.4 1.8.9h.3c.3 0 .6.1.9.4.2.2.4.2.6 0 .1-.2-.1-.3-.3-.4-.2-.3-.6-.2-.8-.5l-3.4-3.3c-.5-.6-.4-.7.1-1.2l.5-.1h1.6l.5-.1c.2-.4.6-.3 1-.3h1.2c.2 0 .4 0 .4-.2v-.5l-1.9-1.3c-.5-.3-1.2-.4-1.6-1l-.3-.1-1.9-1.3c-.6-.4-1.3-.6-1.6-1.2-.3-.5-1-.4-1.3-.9-.6-.8-1.7-1.2-2.4-2-.4-.3-.7-.8-1.1-1-1-.4-1.5-1.1-2.1-1.9l-2-2.6c0-.1-.2-.3-.1-.4 0-.2.2-.1.4-.1.5 0 1 .1 1.4.4l1.5.6c1 .4 1.8 1 2.8 1.2h.3c.1.3.3.3.5.3h.5c.5.4 1 .8 1.8.8l.3.1c.2.3.4.3.7.3.3 0 .7-.1 1 .2.1.2.3.2.6.2.4 0 .9 0 1.2.3.1.2.4.3.6.1.4-.4 1.1-.5 1.5-1l.5-.2c.1 0 .2 0 .3-.2l-.2-.2-1.2-.9c-.7-.5-1.2-1.2-2-1.6-.6-.3-1-.8-1.6-1.2-.8-.5-1.4-1.2-2.2-1.8-.7-.5-1.3-1.2-2-1.9l-.4-.5c-.1-.1-.3-.3-.1-.4.1-.1.3 0 .4 0 .7.6 1.6.8 2.4 1 .8.3 1.4 1.1 2.3 1 .7.3 1.2.9 2 .8l1.2.6c.3.2.7.5 1 .5.7 0 1 .5 1.7.6.4.1.8.6 1.3.6.3 0 .5 0 .7.3.2.2.4.3.6 0 .1-.3.4-.4.7-.4.1 0 .3.1.4 0 .3-.4.8-.3 1.2-.3l.4-.1c.2-.3.5-.3.8-.3.2 0 .5.2.5-.1.1-.3-.1-.5-.3-.5-.6-.1-.9-.5-1.2-.8l-.2-.1c-.4 0-.5-.3-.8-.5-.4-.4-1-.6-1.5-.8a.9.9 0 01-.3-.3c-.2-.1-.3-.4-.6-.4s-.6-.3-.8-.5a4 4 0 00-1.5-.8c-.4-.2-.4-.5-.4-.9 0-.3.3-.2.5-.3 1-.1 2 .2 3-.3.7-.4 1.6 0 2.5-.4.4-.2 1-.2 1.6 0 .1 0 .3 0 .3-.2.2-.3.5-.2.7-.3.5 0 1.1.3 1.5-.3h.3c.6 0 .9-.3 1.2-.6l.6-.6 2.8-3c.4-.4.6-1 1.3-1.2.6-.3 1.1-1 1.8-1.4.3 0 .3-.4.6-.4s.6-.3.8-.5c.7-1 1.7-1.5 2.2-2.6.2-.5.9-.7.7-1.4v-.1c.5-1 1.1-1.7 1.2-2.7v-.2c.4-.4.6-.9.7-1.3.1-.6.4-1 .6-1.6.2-.7.8-1.2.7-2 0-.1 0-.3.2-.4l.2-.3.5-1.2c.4-.9 1.1-1.6 1-2.6l.2-.2c.4-.5.6-1.1.7-1.8 0-.4-.2-1 .4-1.2V82c0-.7.2-1.5-.5-2a2 2 0 01-.8-1c0-.1-.1-.2-.3-.2-.2 0-.3-.2-.5-.3-.2-.3-.4-.5-.8-.5l-.2-.2c-.4-.6-1-.7-1.5-1l-2-1c-.4 0-.8-.3-1.1-.6-.3-.2-.7-.3-1 .2l-.3.1c-.5.1-.9.6-1.5.4-.3.6-.9.5-1.2.7l-1.3.7c-.5.1-.9.5-1.4.6-.2 0-.2.1-.3.2 0 .2-.2.2-.3.2-.5 0-.9.4-1.2.6-.4.2-.8.2-1.2.6-.2.2-.7 0-1 .3-.3.3-1 0-1.3.5-.2.2-1-.2-1.2.4-.5-.1-.9.2-1.3.4-.4.1-.7.5-1.2.4v.1c-.2.3-.4.3-.6.3-.1 0-.3 0-.3.2s-.3.2-.5.2h-6l-.3-.1c0-.4-.3-.3-.6-.3h-1.7c-.2-.5-.5-.4-.8-.4h-1.3c-.2 0-.3 0-.4-.2 0-.2-.2-.2-.4-.2h-3.9c-.1.5-.5.4-.8.4h-.4c-.2.5-.5.4-.9.4h-.6c-.3.5-.8.3-1.1.4-.3 0-.5-.1-.6.1-.1.3-.4.3-.6.3h-.9c-.4.4-.8.4-1.2.4H146c-.5 0-1-.5-1.5-.5h-.1c-.1-.3-.3-.3-.5-.3h-.9s-.3 0-.3-.2c0-.3-.2-.5-.3-.8 0-.8-.7-1-1-1.7-.4-.7-1.1-1.2-1.7-1.8-.4-.4-.8-.7-1-1.2-.1-.3-.2-.7-.4-.9a4 4 0 01-1-1.3l-.5-1.3c-.1-.4.2-1-.4-1.3v-.1c.2-.7-.3-1-.7-1.4-.3-.3-.5-.6-.8-.7-.5-.2-1-.7-1.5-.5l-.2-.1c-.1-.3-.4-.3-.7-.3h-.5c-.2-.3-.4-.3-.7-.3-.2 0-.5.1-.6-.2-.1-.3 0-.5.2-.7.4-.3.8-.7.7-1.2V66c.5-.7.5-1-.2-1.5a.8.8 0 01-.3-.5c0-.5-.2-.9-.3-1.3-.2-.7-.8-1-1-1.7-.2-.5-.3-1.1-.6-1.6l-.5-.8c-.3-.2-.4-.4-.4-.8v-.3c-.4-.5-.6-1-.8-1.6l-.5-1c-.8-.5-.7-1.4-1-2l-.7-1.2c-.4-.7-.9-1.4-.7-2.3v-1l.2-.3c.4-.2.3-.6.3-.9l.1-.4c.4 0 .3-.4.3-.6v-1c0-.1 0-.3.2-.4.3 0 .3-.2.3-.4v-.7c.5-.5.5-.7 0-1.2-.2-.3-.3-.6 0-.9.4-.3 0-.8.4-1.2l-.2-.2-1-1c-.4-.3-.9-.5-1.4-.6-.6 0-1-.6-1.7-.5l-.2-.2c-.4-.1-.8-.5-1.2-.5-.7 0-1.1-.6-1.8-.5-.3-.4-.6-.3-1-.3h-.3c-.5-.5-1.1-.8-1.8-.8l-.2-.1c-.5-.5-1.2-.3-1.7-.7-.5 0-1 .1-1.3-.4h-.3c-.3 0-.6-.1-.8-.3-.6-.3-1.2-.6-2-.6h-6.8l-.2.1c-.2.4-.6.3-1 .3h-2.8c-.1 0-.2 0-.3.2 0 .3-.3.2-.5.2h-2.6c-.2 0-.4 0-.5.2 0 .3-.3.2-.4.2H92c-.1 0-.3 0-.4.2 0 .3-.2.2-.4.2h-2.3l-.4.1c-.1.5-.5.3-.7.4-.8.1-1.7-.4-2.4.3-.6.2-1 .6-1.5.4l-.2.1c-.1.4-.5.3-.8.3h-.7c-.3.5-.7.4-1 .4l-.3.1c-.4.6-1.1.2-1.6.7-.2.2-.7.2-1 .4-1 .3-1.7 1-2.6 1.4l-.9.4-2 1c-.3.2-.7.3-.7.6s.4.5.7.6h.1c.2 0 .3.2.3.3 0 .2 0 .3-.2.4-.3.2-.4.6 0 .8.2.2.2.4.2.6-.2.8.7 1.3.4 2.1.4.2.4.5.4.8l.1.5c.3.1.3.4.4.7a38.5 38.5 0 01-.2 2.5c-.3.3-.8.5-.7 1.1l-.1.1c-.4.1-.3.4-.3.7l-.1.5c-.4 0-.3.2-.3.5 0 .2 0 .3-.2.4-.6.3-.5 1-1 1.3v.1c0 .4.2.8-.4 1 .1.6-.3.8-.6 1.1l-.2.3c0 .5-.6.7-.4 1.2-.5.2-.4.5-.4.8v.4c-.5.1-.4.4-.4.6l-.1.3c-.6.3-.7.8-.6 1.4 0 .2 0 .5-.2.5-.4.1-.3.3-.3.6l-.1.2c-.4 0-.3.3-.3.6 0 .1 0 .2-.2.3-.4.2-.3.5 0 .7l.2.7c0 .2 0 .4.2.5.3.3.3.8.2 1.1-.2.4-.6.6-1 .5-.4 0-.8-.1-1 .4h-.3c-.3 0-.8-.2-1 .4h-.3l-.3.1c-.2.5-1 .6-1 1.4v.2c-.4.3-.5.7-.7 1.1-.2.3 0 .8 0 1.2 0 .2 0 .3-.2.5-.3.2-.7.4-.6 1l-.2.2c-.3 0-.2.2-.2.4l-.1.3c-.4 0-.3.3-.3.5l-.1.3-1.4 1.4c-.4.4-1 .6-1 1.3v.1l-1 1c-.4.2-.6.6-.5 1.1 0 .3-.2.5-.4.6-.6.1-1.1 0-1.5.5h-.2l-.2.1c-.1.3-.3.3-.6.3h-4.6c-.2 0-.3 0-.4-.2-.2-.2-.3-.3-.5-.2-.8.2-1.4-.6-2.2-.4l-.1-.2c-.1-.3-.4-.2-.6-.2-.5-.1-1.2.3-1.6-.4-.6.1-1-.4-1.5-.4H39c-.2.5-.5.4-.9.3l-.6.1c-.2.5-.6.4-1 .4-.2 0-.6-.2-.7 0-.2.4-.4.3-.7.4h-1c-.2 0-.3 0-.4.2 0 .2-.2.2-.4.2H30c-.1 0-.3 0-.3.2-.1.4-.5.3-.7.1-.3-.4-.8-.3-1.2-.3-.2 0-.4 0-.6-.2-.3-.3-.7-.4-1.1-.6-.2 0-.4 0-.6-.3-.2-.5-.8-.6-1.3-.9-.4-.2-1 0-1.5 0h-.2c0 .5-.4.4-.6.4h-1c-.9 0-1.1-.2-1.2-1l-.1-.6c-.6-.7-1.5-.9-2.1-1.5L17 78c-.3 0-.6 0-.8-.4a.7.7 0 00-.6-.4c-.2 0-.4 0-.5-.2 0-.2-.2-.2-.4-.2-.6 0-1-.4-1.5-.6l-1.4-.5c-.2 0-.5-.1-.7-.3-.2-.3-.5-.4-.7 0 0 .2-.1.3-.2.3-.6-.2-1 .2-1.5.4l-1 .5-1.4.7c-.5.3-1.1.6-1.5 1-.7.8-1.8 1.3-2.2 2.5-.1.5-.3.8 0 1.2l.2.5c-.1.8.6 1.4.5 2.2.4.3.4.6.4 1v.5c.3.5.9.9.8 1.6l.2.2.2.4c-.2.6.4 1 .5 1.5l.8 1.4.4 1c.4.6.5 1.2.6 1.8l.6 1.4c.3.6.3 1.3.7 1.8l.2.7c.2.5.7.9.9 1.4.3.7.8 1.2 1.4 1.7.5.4.8 1.3 1.7 1.3l.2.3c.4.3.7.8 1.3.9l.4.2c.2.4.5.7 1 .5.2 0 .4.1.5.3.4.6.7 1.2 1.2 1.7.7.6 1.4 1.1 1.8 2 0 .2.2.4.4.4.5 0 .7.5 1.2.5l.2.2c.3.5.6.6 1.1.6.5 0 1.1-.4 1.4.3H25s.3 0 .3.2c.1.3.4.2.6.2h1.7c.3.5.6.4 1 .4H30c.3 0 .6 0 .7.5z" fill="#f0a803"/><path class="stl_st1" d="M143.2 146c.4-.3.9-.1 1.3 0 .7 0 1.3-.3 1.8-.6.6-.4.7-1.2.8-1.9v-1.6c0-.1 0-.3.2-.4l.4.2c.5.3 1 .8 1.5 1 .2 0 .3.2.4.3.7.7 1.7 1.2 2.4 1.9 1.4 1.3 3.3 1.3 5 .3.6-.4 1.4-.6 2.1-.8 1-.4 1.4-1.3 1.6-2.1.1-.5-.7-1.6-1-1.8-.8-.5-1.7-1-2.3-1.6l-.6-.5c-.4 0-.6-.3-.8-.6-.1-.4-.4-.7-.7-1-.1-.1-.2-.2 0-.4h.3c.6.4 1.3.5 2 .7l1.2.6a96 96 0 004.8 1.7l3 1.2c.9.3 2.2-.3 2.6-1.1.3-.6.3-1.2 0-1.8-.3-.5-.7-1-1.2-1.2-.7-.4-1.1-.9-1.6-1.4-.2-.2.1-.3.3-.4h.7c.7 0 1.3-.1 2-.4l.4-.4c1-1.5.3-3.2-1-3.9-.6-.2-1-.7-1.5-1-1-.4-1.8-1-2.6-1.6l-2-1.3c-1-.8-2-1.3-2.8-2.3-.2-.2-.7-.2-1-.6-.1 0-.2-.2 0-.3 0-.2.2-.2.3 0 .4.4 1 .4 1.4.6 1.1.4 2.3.7 3.4.9l1.2.3c.7 0 1.4-.2 2-.5.7-.3 1.2-.9 1.9-1.2.6-.2.9-1.4.7-2-.2-.4-.2-.8-.5-1-.1-.1-.2-.2 0-.4h.3c.5.4 1 .4 1.6.6.2.2.5.2.8 0l1.6-.5 2.7-.7c1-.3 1.4-1 1.6-1.8 0-.6-.2-1.1-.6-1.5-.2-.4-.6-.7-1-.9-.5-.2-1-.7-1.5-1-.3-.2-.5-.5-1-.5l-.2-.2c0-.2 0-.3.2-.3.5-.2 1-.5 1.6-.5.6 0 1.2 0 1.7-.3h.2c1.2 0 2.1-.5 3.1-.8.2 0 .4-.2.5-.3l4-4c.4-1 1.3-1.3 2-1.9.5-.4 1-.8 1.7-1.1l1.1-1.1 1.3-1.3c.7-.8 1.4-1.7 1.7-2.7.2-.8.6-1.3.9-2 .3-1.1.8-2.1 1.2-3.2.2-.8.7-1.4 1-2.1V91c0-.6.3-1 .6-1.5l1-2 .2-.5.8-2.1c.2-.4.4-.8.3-1.3 0-.3 0-.5.2-.8.4-1.2.3-2.3-.2-3.5l-.3-.3a3 3 0 01-.9-1.2c0-.1-.1-.3-.3-.3l-1.6-1.1-1.5-1-2.9-1.4-.9-.4c-1-.6-2-.4-3 .1-.4.3-.8.3-1.2.5l-3.4 1.7-2.7 1.3c-1.8.9-3.8 1.3-5.6 2l-2 1c-.3.2-.5.3-.8.3h-4.3c-.3 0-.5 0-.8-.2-.4-.2-.8-.3-1.3-.2-.4 0-.9 0-1.3-.3-.3-.1-.6-.2-1-.1-.5 0-1 0-1.4-.3-.3-.1-.7-.2-1-.1h-2.2c-1-.1-2 .2-3 .5l-2.6.7-2.3.6a3 3 0 01-1 .2h-1.6c-1.2 0-2.2-.4-3.3-.7-.4-.2-.4-.5-.7-.8-.5-.8-1-1.7-1.8-2.4l-1.4-1.4-.5-1c-.3-.7-1-1.2-1.2-2v-.6c.2.1.2.3.3.5.3 1 1 1.6 1.4 2.5.5 1 1.4 1.6 2.1 2.3.6.6 1 1.3 1.4 2 .4.7 1 .7 1.7 1h.3c1 .7 2.3.2 3.4.3.7-.4 1.6-.2 2.3-.6v-.1c.7 0 1.3-.3 2-.4.8-.1 1.5-.4 2.3-.7l.8-.1h4.1c.4 0 .8 0 1.1.2.2.2.4.2.7.2.6 0 1.2-.1 1.9.3.4.2.9 0 1.4 0 .2 0 .5 0 .7.3l.7.2h3.8c.5 0 .9-.3 1.3-.5l2-1 1.4-.5 2.2-.8c2-.5 3.5-1.6 5.2-2.4.8-.3 1.5-.9 2.3-1 1.2-.4 2.2-1.2 3.5-1 .6 0 1.2.2 1.8.4l3.7 2 1.6 1c.8.5 1.4 1 1.9 1.9l.8 1c.2.3.3.6.3 1v1.8c0 .4 0 .7-.3 1l-.1.5c.1.9-.3 1.6-.6 2.3l-.6 1.5-1 2c-.3.6-.7 1.2-.6 2 0 .3-.3.7-.5 1-.6 1-.9 2.2-1.4 3.3-.4 1-1 1.8-1.2 2.7-.2 1-.9 1.8-1.4 2.7-.3.6-1 1-1.4 1.5-.8 1-1.8 1.6-2.9 2.2-.6.4-1.3.9-1.8 1.5-1 1.3-2.3 2.4-3.5 3.6-.4.5-.8 1-1.5 1.4-.8.3-1.5.7-2.4.6-.4 0-.7 0-1 .3-.4.2-.8.2-1.2.1-.5 0-1 .2-1.5.4-.2 0-.3.1 0 .3l2.3 1.5c1 .6 1.6 2 1.4 3-.2.7-1.1 1.6-1.9 1.6a1 1 0 00-.5.2c-.3.2-.6.3-1 .2l-.7.2a6 6 0 01-3.2.6l-.6-.3h-.3c-.2.1 0 .2 0 .3.3.6.3 1.3 0 2-.4.9-1.3 1-2 1.6-.3.3-.8.5-1.3.7l-.4.1c-.8 0-1.7.2-2.5-.3h-.4c-.3 0-.7-.1-1-.3a.8.8 0 00-.4-.2c-.4 0-.9 0-1.2-.3h-.3c-.1.1 0 .2.1.3 1 .8 2 1.6 3.2 2.3l2.7 1.9c.5.4 1 .5 1.6.9.5.4 1.2.7 1.7 1.2.9.8 1 1.9.8 2.9-.2.9-1 1.6-2.1 1.6h-1.1c-.1 0-.3 0-.3.2v.3l1.2.8c1 .7 1.6 1.5 1.5 2.8-.1 1-1 1.8-1.9 1.9-.7 0-1.3 0-2-.3l-2-.8-1.8-.5c-.5-.2-1.1-.3-1.6-.6-.8-.5-1.6-.5-2.3-1-.6-.3-1.2-.3-1.7-.6h-.3c-.1 0 0 .1 0 .2.2.4.4.6.7.8l1.1 1 2 1.2c.6.3.9.8 1 1.4.3 1.6-1 3-2.4 3.2-.4 0-.7.3-1 .5-.4.2-.9.3-1.2.6l-.5.1h-1.3c-1.2.1-2-.5-3-1.2-.8-.6-1.7-1.4-2.7-2l-1-.7c-.3-.2-.5-.2-.5.2v1.3c.1 1.1-.4 1.9-1.5 2.3l-.1.1h-2.5zM122.5 160.5c1-.3 1.5-1.1 2.1-1.7l.7-.7c.4-.3.6-.7.8-1.2.1 0 .2 0 .2-.2l4.9-4.9c.3-.2.3-.6.5-.9.1 0 .2 0 .2-.2.5-.6 1.2-1 1.4-1.7.1-.4.4-.6.7-.6l.3-.1c.4-.6 1.1-.7 1.6-1.2.3-.3.8-.5 1.2-.7.8-.3 1.6-.8 2.2-1.5h.7l1.9.7 1 .4c-.1.2-.3.1-.5 0l-1.6-.5-.5-.2c-.7-.2-1.1 0-1.6.5s-1.2.7-1.8 1c-.8.4-1.5 1-2.3 1.5-.3.2-.8.3-1 .7-.5 1-1.4 1.6-2 2.6-.5.8-1.3 1.4-2 2l-2.8 3c-.7.6-1.1 1.5-1.8 2.1l-1.4 1.4c-1 .6-1.8 1.4-2.7 2l-2.6 1.8a8 8 0 01-1.5.6c-.6.3-1.3.2-2 .4-.6.2-1.2.3-1.7.6-.3.2-.7.2-1 0 1-.3 2.2-.8 3.4-.9.9 0 1.7-.5 2.5-.9.7-.3 1.3-.7 1.8-1.1.9-.6 1.9-1 2.5-2l.2-.1zM77.7 161.5c.4.4.8.8 1.4 1 0 .1 0 .2.2.2.3.4.7.8 1.2 1 .5 0 .7.6 1.2.8l1.7.7a1 1 0 01-1 0l-2.5-1.6-1.6-1.3c-1-.8-2.2-1.5-3.1-2.6-.8-.9-1.8-1.5-2.5-2.5-1.9-2.6-4.4-4.6-6.6-7-.3-.3-.3-.7-.6-.9-1-.7-2-1.6-3.2-2-.8-.4-1.4-1-2-1.6h.3c.1.2.2.2.3.2.5.6 1.2 1 2 1.3l1 .5c0 .1 0 .2.2.2.4.4.8.8 1.3 1 .2 0 .4.2.5.4.1.6.5.9 1 1.3l4.4 4.5.8.8c0 .1 0 .2.2.2.1.4.4.8.7 1 1.2 1.3 2.5 2.4 3.6 3.7l.9.5c0 .1 0 .2.2.2zM138.5 71.7v-.3c0-.1 0-.2-.2-.2-.4-2.2-2-3.2-3.9-3.8-.8-.2-.9-.3-.6-1.2.2-.7.2-1.4-.2-2l-1-2.4-.7-1.3a2 2 0 01-.5-.9c-.2-.8-.6-1.5-1-2.2a5 5 0 01-.7-1.9c.5.3.5.9.8 1.4l.2.5c.4.7.9 1.3 1 2.2 0 .3.2.6.5.8.5.6.8 1.2 1 1.9.1.8.6 1.3.8 2 .2.7.2 1.5 0 2.2 0 .4 0 .6.4.6.8 0 1.5.5 2.1 1 .8.5 1.6 1.2 1.8 2 .2.8.8 1.3.5 2.1l-.1-.3c0-.1 0-.2-.2-.2zM92.5 167.2l.6.1c.8.3 1.6.6 2.5.6h7.5c.8 0 1.4-.3 2.1-.5l2.8-1.1c1-.5 2-.3 3-.8.3 0 .6-.1.9.1-.9 0-1.6.6-2.6.5-.5 0-1.1.3-1.6.6-.6.2-1.1.5-1.7.6-.4 0-.8.3-1 .5l-1 .3h-9.1c-.4 0-.7 0-1-.3-.4-.2-.9 0-1.2-.4 0 0-.2 0-.2-.2zM83.7 165.2l.6.1c.3.2.6.2 1 .2.5 0 1 0 1.5.3l.7.1c.5 0 .9 0 1.3.3h.6c.8 0 1.4.4 2 .7.3.1.6 0 .8.3-.3.1-.6 0-1-.1-.6-.4-1.2-.7-2-.6a1 1 0 01-.8-.2l-.3-.2c-1.1.2-2-.6-3.2-.4-.5 0-.9 0-1.2-.5zM8 101c.7.5 1.1 1.1 1.7 1.6.4.5 1 .9 1.3 1.4-.2.1-.3 0-.4-.1l-2.4-2.4c-.1-.1-.4-.2-.2-.5zM43.6 136.8l.2-.1.5-.1v.5l-2 2s-.2.2-.4 0c0-.3.4-.3.6-.5l1.2-1.2c.4-.4.4-.4-.1-.6zM3.8 76.4c-.8 1-1.7 1.8-2.6 2.5v-.3l2.2-2.1c.1-.1.2-.2.4-.1zM14.8 106.7a16 16 0 012.3 2.3v.3c-.4-.3-.7-.8-1-1.2l-1.2-1c0-.1-.3-.2 0-.4zM39 123.7c.4-.1.8-.6 1.3-.6l.1.4c-.5.3-.7.9-1.3.9 0-.5.5-.3.6-.6-.3-.2-.5.3-.8.1v-.2zM57.7 145.7h.1l.3-.1.5-.1c.1 0 .3 0 .3-.2h.1c.1 0 .2 0 .2-.2h.4c0 .1 0 .2.2.2l.3.2.2.2c-.2 0-.5 0-.6-.2-.1-.1-.3-.2-.4-.1-.4.4-1 .2-1.4.5-.2.2-.5.3-.7 0h.2c.1 0 .3 0 .3-.2zM58.7 76l-1.8 1.7-.2.2v-.3c.7-.7 1.2-1.4 2-1.9v.2zM36.7 139.2c.1 0 .3-.2.4 0-.4.5-1 .6-1.5.9l-.3-.1c0-.2.1-.2.2-.2.1.1.2 0 .2 0l.9-.5h.1zM32.8 135.3c-.4.7-1 1.2-1.6 1.6v-.3l1.4-1.3h.2zM30.2 120.5l-.1.2c-.2-.5-.3-.7-.8-.3 0 .1-.3.2-.4 0 0-.2.1-.2.2-.2.1.1.2 0 .2-.1l.5-.2.6-.1v.3c-.3 0-.2.3-.2.4zM39.3 138.3l.5-.2h.1c.2 0 .3-.3.4-.1-.4.5-1 .6-1.5.9l-.3-.1c0-.2.1-.2.2-.2.1.1.2 0 .2 0v-.1c.2 0 .4 0 .4-.2zM37.8 125.2l-1.1 1c0 .2-.2.3-.4.1.5-.4.8-1 1.5-1.1zM35 127.2l-1.1 1c0 .2-.2.3-.4.1.5-.4.8-1 1.5-1.1zM30.4 122.7c.5.3 1 .8 1.4 1.3h-.2l-1.3-1.2.1-.1zM11.1 104h.2l.1.1.2.1c0 .1 0 .2.2.2.3.2.6.5.7.8l-1.4-1.1zM62.9 68.1l-1.2 1.2-.2.2c0-.5 1-1.5 1.6-1.6l-.2.2zM49.9 143.5l.8-.8c.1 0 .2 0 .2-.2h.4c-.5.4-.9 1-1.6 1.2l.2-.2zM47.1 145.5a59.2 59.2 0 001-1h.4c-.5.4-.9 1-1.6 1.2l.2-.2zM17.2 109.5c.4.2.7.5 1 .9-.4 0-1-.6-1-1zM21.3 79.1v-.2-.2c.2 0 .4.2.7 0l.4.1c0 .3-.3.2-.4.3h-.7zM30.6 130l-1 1c0-.4.6-1 1-1zM23.8 114.4c-.3.3-.5.8-1 .7.2-.3.5-.6 1-.7zM25 113.6c-.4.4-.5.8-1 .7.1-.3.7-.7 1-.7zM36.1 126.4c-.2.3-.4.8-1 .7.3-.3.6-.6 1-.7zM32.5 128.8c-.2.3-.4.8-1 .7.3-.3.6-.6 1-.7zM5 75.6c-.3.3-.5.8-1 .7.2-.3.5-.6 1-.7zM7.2 99.8c.4.3.8.6.7 1-.3-.2-.6-.5-.7-1zM29.6 133.4l1 1c-.4 0-1-.6-1-1zM41.8 139.2c-.3.4-.5.8-1 .7.2-.3.5-.6 1-.7zM24.1 112.4c.5 0 .8.3 1.2.4-.5.3-.9 0-1.2-.4zM34.9 124.8c.3-.3.6-.5 1-.4-.3.3-.5.7-1 .4zM71.3 39.7l-.8.8-.2.2c0-.5.7-1.1 1.2-1.2l-.2.2zM37.3 139.2c.3-.3.6-.5 1-.4-.3.3-.5.7-1 .3zM19.1 110.9c0-.1.1 0 .2 0h.1l.2.1c0 .1 0 .2.2.2s.3.2.3.4c-.4 0-.7-.4-1-.7z"/><path class="stl_st2" d="M128.4 43c-.5-.6-.5-1 0-1.5v.2c-.3.3-.2.7 0 1v.3z"/><path class="stl_st1" d="M13.4 105.6c.2 0 .3.2.3.4-.4 0-.7-.4-1-.7 0-.1.1 0 .2 0h.1l.2.1c0 .1 0 .2.2.2zM.5 82.1c0 .3.5.6.3 1-.3-.3-.7-.5-.4-1zM56.1 79l-.8.7-.2.2c.1-.6.5-.9 1-1.2v.2zM34.1 140.3l.2-.1c.1.1.2 0 .2 0 .2-.2.4-.3.6-.2-.3.2-.5.7-1 .3zM40.5 138c0-.2.1-.2.2-.2.1.1.2 0 .2 0 .2-.2.4-.3.6-.2-.3.3-.5.7-1 .3zM38.7 79.2c0 .3-.3.2-.5.3-.1 0-.3 0-.3.2l-.2-.1c.3-.3.5-.7 1-.4zM37.1 79.7c0 .2-.3.1-.5.2-.1 0-.3 0-.3.2l-.2-.1c.3-.3.5-.7 1-.3zM9.5 73.7h-.2c.3-.3.5-.8 1-.5 0 .3-.3.2-.5.3-.1 0-.3 0-.3.2zM2.4 88c.3.4.4.7.4 1.1-.3-.3-.6-.6-.4-1zM37.3 124.1c.2 0 .4-.2.6 0-.3.2-.5.6-1 .3 0-.2.1-.2.2-.2.1.1.2 0 .2 0zM1.3 84.9c0 .3.5.6.3 1-.3-.3-.7-.5-.4-1zM.9 83.7c.1.3.4.6.3 1-.3-.3-.7-.5-.3-1zM22.1 112c.4 0 .7.2 1 .4-.5.3-.7-.1-1-.4zM26.9 120c.4 0 .7.2 1 .4-.5.3-.7-.1-1-.4zM24.1 119.2c.4 0 .7.2 1 .3-.5.4-.7 0-1-.3zM49.3 143.7h.4c-.3.3-.6.7-1.2.8l.2-.2.4-.4c.1 0 .2 0 .2-.2zM4.8 93.7c.2.3.5.6.4 1-.3-.3-.7-.5-.4-1zM38.8 124.5c-.2.3-.4.8-.9.6.2-.3.6-.5 1-.6zM35.5 80c-.1.2-.3.2-.5.3l-.3.1h-.2c.3-.3.5-.7 1-.4zM6 96.9c.2.3.5.6.4 1-.3-.3-.7-.5-.4-1zM25.3 119.6c.4 0 .7.2 1 .3-.4.3-.7 0-1-.3zM32.7 80.8h-.2c.3-.3.5-.6 1-.4 0 .3-.3.2-.5.3l-.3.1z"/><path class="stl_st2" d="M18.6 76.5c-.5-.2-1-.2-1.4-.6h.5c.2.3.5.3.8.4l.1.2z"/><path class="stl_st1" d="M51.5 142.3c.3-.2.4-.6.8-.6-.2.5-.5.7-1 .8l.2-.2zM22.7 118.9c.4-.2.6.2.9.3-.4.2-.7 0-.9-.3zM20.2 77.7a1 1 0 01-.4-.4l-.1-.2c.4 0 .7.3.8.6h-.3zM65.1 67.2h-.2c.5-.3.2-.8.3-1.1.3.3.2.7.2 1l-.3.1zM43.3 145.6l.6.1c0 .2.1.2.3.2h.1c-.5.4-.7 0-1-.3zM30 121.7c.2.3.4.5.3.8-.3-.2-.5-.4-.3-.8z"/><path class="stl_st2" d="M65.4 67.1c0-.3.1-.7-.2-1v-.2c.4.4.5.9.2 1.2z"/><path class="stl_st1" d="M1.6 86.5c.2.3.4.5.3.8-.3-.2-.5-.4-.3-.8zM32 140c.3 0 .5.2.7.4-.4.2-.6 0-.8-.3zM31.1 137.1c.1.3-.1.6-.3.8-.2-.4 0-.6.3-.8zM27.6 80.6l-.2-.1v-.2c.3 0 .7.2 1 .5H28c0-.2-.3-.2-.5-.2zM30.7 134.5c.4-.2.6.1.8.3-.4.2-.6 0-.8-.3zM30.9 138.5c0 .2.3.4.2.8-.3-.2-.5-.4-.3-.8zM20.3 111.7c.3-.1.5.1.8.3-.4.2-.6 0-.8-.3zM21.6 117.3c.2.2.4.4.3.8-.3-.2-.5-.4-.3-.8zM22 115.9c0 .3-.2.6-.3.8-.3-.4-.1-.6.2-.8zM.7 80.2c-.2.1 0 .4-.3.5-.2-.4 0-.6.3-.8.1 0 .1.1 0 .2v.1zM14.4 74.6l-.2-.1v-.2c.3 0 .6.2 1 .4v.2h-.3c0-.3-.3-.3-.5-.3zM32.7 124.5c.3-.2.5.1.8.2-.4.3-.6.1-.8-.2zM29.3 132.5c0 .2.3.4.2.8-.3-.2-.5-.4-.3-.8zM29.5 131.1c.1.3-.1.6-.3.8-.2-.4 0-.6.3-.8zM2.9 89.3c0 .2.4.4.2.8-.3-.2-.5-.4-.3-.8zM6.5 98c0 .3.4.5.2.9-.3-.2-.5-.4-.3-.8zM42.1 137.3c.1 0 .2-.2.4 0-.3.4-.4.4-.8.2l.2-.1c.1.1.2 0 .2 0zM9.1 73.7c-.1.2-.3.1-.5.2h-.3c.2-.3.4-.6.8-.3zM5.3 94.9c0 .2.4.4.2.8-.3-.2-.5-.4-.3-.8zM101.5 32s-.2.1-.2 0c.3-.3.6-.6 1-.4-.2.2-.6.1-.8.5z"/><path class="stl_st2" d="M68.1 58.5c0 .4-.2.9-.4 1.2h-.2v-.2c.3-.2.3-.5.4-.8l.2-.2zM65 67.1v.2c-.4.2-.8.4-1.3.4l.2-.2c.3-.1.6-.1.8-.4h.2z"/><path class="stl_st1" d="M12.3 73.7h-.2c-.1-.4-.6-.3-.8-.5.5-.2.7.1 1 .3v.2zM82.7 34.9l-.2-.1c.3-.3.6-.6 1-.4-.2.2-.7.1-.8.5z"/><path class="stl_st2" d="M70.1 54.5c0 .4-.2.9-.4 1.2h-.2v-.2c.3-.2.3-.5.4-.8l.2-.2zM71.7 51.3c0 .5-.2.9-.5 1.2v-.2c.2-.2.2-.5.3-.8l.2-.2zM78.5 36c-.3.3-.8.5-1.2.5l.2-.2c.3 0 .6-.1.8-.3h.2z"/><path class="stl_st1" d="M5.6 95.9c.3.2.5.4.4.8-.3-.2-.5-.4-.4-.8zM90.7 33.3l-.2-.1c.3-.3.6-.6 1-.4-.2.2-.7.1-.8.5zM113.9 32.8c0 .1-.1.1-.2 0-.1-.3-.6-.1-.8-.4.4-.2.7.1 1 .4zM14.6 106.3v.1c-.3.2-.5 0-.7-.3.3-.2.4.2.7.1v.1zM43.9 79.7h-.2c-.1-.4-.6-.3-.8-.5.4-.2.7.1 1 .3v.2zM66.2 63.1v.2c-.2 0-.2.1-.3.2 0-.4.2-.8.5-1v.2l-.2.4zM127.5 38.5l-.6-.6v-.2c.3.1.5.4.7.6v.2zM4.4 92.7c.3.2.5.4.4.8-.3-.2-.5-.4-.4-.8zM21 78.5a.5.5 0 01-.3-.3v-.3c.3.1.5.3.6.6H21zM48.3 80.8h-.2c-.1-.3-.6-.2-.8-.4.5-.2.7 0 1 .4zM126.8 49.1V49c.3-.1.2-.6.5-.8 0 .5-.2.7-.5 1z"/><path class="stl_st2" d="M125.5 37l-1.2-.5v-.2h.2c.2.3.5.3.8.4l.2.2z"/><path class="stl_st1" d="M128.4 42.7c-.2-.3-.3-.7 0-1v1zM126.8 49.9v-.2c.4.2.5.6.5 1l-.2-.2-.2-.3-.1-.3z"/><path class="stl_st2" d="M117.9 34.1c-.4 0-.8-.2-1.2-.4v-.2h.2c.2.3.5.3.8.4l.2.2zM122.3 35.7c-.4 0-.8-.2-1.2-.4V35h.2c.2.3.5.3.8.4l.2.2z"/><path class="stl_st1" d="M42.3 145.3c.3-.1.6.1.8.2-.4.3-.6.1-.8-.2zM52.8 142v.3c-.2.2-.3.4-.3.7v.2c-.4-.5 0-.8.3-1.1zM93.9 32.9l-.2-.1c.3-.3.6-.6 1-.4-.2.2-.7.1-.8.5z"/><path class="stl_st2" d="M15.1 75v-.3h.2c.2.3.5.3.8.4l.1.2c-.4 0-.7-.2-1-.4zM112.9 32.4c.2.2.7.1.8.5a2 2 0 01-1-.4v-.2h.2zM47.3 80.3c.2.3.7.2.8.6a2 2 0 01-1-.5h.2z"/><path class="stl_st1" d="M8.1 74.1c-.2 0-.3.4-.6.2.1-.4.5-.4.8-.4l-.2.2zM53 145c0 .2.2.4.3.5l.2.2c-.5 0-.8-.3-.8-.8l.2.2z"/><path class="stl_st2" d="M12.3 73.7v-.2h.2c.2.3.5.3.8.4l.1.2c-.4 0-.7-.2-1-.4zM127.3 48.1c-.3.2-.2.7-.6.8 0-.4.2-.7.4-1h.2v.2zM127.6 45.7c0-.4.1-.7.4-1v.2c-.2.2-.1.6-.4.8zM82.7 34.9c.1-.4.6-.3.8-.5h.2a2 2 0 01-1 .5zM111.9 32.1c-.5 0-.9-.2-1.2-.5h.2l.8.3.2.2zM72 47.9c.2.3.5.6.4 1-.3-.2-.2-.6-.5-.8v-.2h.1z"/><path class="stl_st1" d="M54.3 80.7l.8-.8c0 .5-.3.7-.8.8zM87.5 33.6h-.2c.3-.3.6-.6 1.1-.4l-.2.1c-.3 0-.5.1-.7.3zM71.3 45l-.1.1c-.3-.3-.6-.6-.4-1 .2.2.1.7.5.8zM115.5 33.3h-.2c-.2-.4-.6-.3-.8-.5.4-.2.7.1 1 .3v.2z"/><path class="stl_st2" d="M120.9 35.2c-.4 0-.7-.1-1-.3v-.2h.2c.2.3.6.2.8.5z"/><path class="stl_st1" d="M81.1 35.2h-.2c.3-.3.6-.6 1-.4-.2.2-.6.1-.8.4zM52.4 144l.1.2c0 .1 0 .3.2.3v.4c-.3-.2-.5-.5-.3-1zM127.3 47.9h-.2v-.2c.4-.2.3-.6.5-.8.2.5-.1.7-.3 1z"/><path class="stl_st2" d="M71.7 46.7c.2.3.3.6.3 1-.3-.2-.2-.6-.4-.8v-.2z"/><path class="stl_st1" d="M71.7 46.7h-.2c-.2-.3-.5-.6-.3-1 .2.2.1.6.4.8v.2zM120.9 35.2c-.2-.3-.6-.2-.8-.4.4-.2.7.1 1 .3v.2h-.2z"/><path class="stl_st2" d="M61 70.9c-.2.4-.3.9-.6 1.2V72l.3-.8.2-.2zM115.5 33.3V33h.2c.2.3.6.2.8.5-.4 0-.7-.1-1-.3z"/><path class="stl_st1" d="M124.3 36.3v.2h-.2c-.2-.4-.6-.3-.8-.5.4-.2.7.1 1 .3z"/><path class="stl_st2" d="M128 44.5c0-.4.1-.7.4-1v.2c-.2.2-.2.5-.3.8z"/><path class="stl_st1" d="M79.9 35.6h-.2c.3-.3.6-.6 1-.5-.2.3-.6.2-.8.5zM119.9 34.7v.2h-.2c-.2-.4-.6-.3-.8-.5.4-.2.7.1 1 .3z"/><path class="stl_st2" d="M118.9 34.4c.2.2.6.1.8.4-.4 0-.7-.1-1-.3v-.2h.2zM79.9 35.6c.2-.3.6-.2.8-.4h.2c-.3.3-.6.4-1 .4z"/><path class="stl_st1" d="M38.9 142.5v.1c0 .2 0 .3.2.3 0 .1.2.2 0 .4-.3-.2-.5-.4-.3-.8zM116.5 33.6c-.2-.3-.6-.2-.8-.4.4-.2.7.1 1 .3v.2h-.2z"/><path class="stl_st2" d="M123.3 36c.2.2.6.1.8.4-.4 0-.7-.1-1-.3v-.2h.2z"/><path class="stl_st1" d="M45.1 80H45c-.2-.3-.6-.2-.8-.5.5 0 .8.2 1 .5z"/><path class="stl_st2" d="M65.7 64.1c0 .5-.2.9-.5 1.2v-.2l.3-.8.2-.2z"/><path class="stl_st1" d="M71.5 47c.3.1.2.5.5.7v.2c-.3-.3-.6-.6-.5-1zM111.9 32.1l-.2-.2c.4 0 .7.2 1 .4v.2h-.2a.5.5 0 00-.4-.3h-.2zM54.1 81H54c-.1 0-.3 0-.4.2h-.2c.3-.4.6-.5 1-.5l-.2.2zM50 81.2h-.3c-.2-.3-.6-.2-.8-.4.5-.2.7 0 1 .4z"/><path class="stl_st2" d="M44.1 79.5c.2.3.6.2.8.5-.4 0-.7-.2-1-.3v-.2h.2z"/><path class="stl_st1" d="M39 141.7l-.2.2c-.2-.4 0-.6.3-.8.2.2 0 .3 0 .4-.2 0-.2.1-.2.2zM47.1 80.3v.2h-.2c-.2-.4-.6-.3-.8-.5.4-.2.7.1 1 .3zM78.5 36c.3-.3.6-.6 1-.4-.2.2-.6.1-.8.4h-.2zM118.7 34.3v.2h-.2a.5.5 0 00-.4-.3h-.2c0-.2-.1-.2-.2-.3.4 0 .7.2 1 .4z"/><path class="stl_st2" d="M67 60.9c-.2.4-.2.9-.6 1.2V62l.3-.8.2-.2zM85.7 33.6c-.3.3-.8.4-1.2.5l.2-.2c.3 0 .5-.2.8-.3h.2z"/><path class="stl_st1" d="M97.5 32.4h-.2c.3-.3.5-.6 1-.4-.2.2-.6.1-.8.4zM84.7 33.9l-.2.2-.2.1c-.2 0-.3 0-.4.2h-.2c.3-.3.6-.5 1-.5zM72 48.1c.2.2.1.6.4.8v.2c-.3-.3-.6-.5-.5-1zM127.6 45.7c.3-.2.2-.6.5-.8 0 .5-.2.7-.5 1v-.2z"/><path class="stl_st2" d="M78.7 36c.2-.3.6-.2.8-.4h.2c-.3.3-.6.4-1 .4z"/><path class="stl_st1" d="M123 36h-.1a.5.5 0 00-.4-.2h-.2c0-.2-.1-.2-.2-.3.4 0 .7.2 1 .4zM40.5 140c-.1.2-.3.4-.6.3.1-.2.3-.5.6-.3zM31.2 139.4l.6.6c-.4 0-.6-.2-.6-.6zM39.8 140.4a1 1 0 01-.6.5c0-.3.2-.5.5-.5zM7.3 74.4c-.1.2-.3.5-.6.3.1-.2.3-.5.6-.3zM6.5 74.8c-.1.2-.3.5-.6.3.1-.2.3-.5.6-.3zM31.4 129.6c-.2.2-.3.5-.7.3.1-.2.3-.5.7-.3z"/><path class="stl_st2" d="M97.5 32.4c.2-.3.6-.2.8-.4h.2c-.3.3-.6.4-1 .4z"/><path class="stl_st1" d="M33.4 128.4c-.2.2-.3.5-.7.3.1-.2.3-.5.6-.3z"/><path class="stl_st2" d="M101.5 32c.1-.3.6-.2.8-.4h.2c-.3.3-.6.4-1 .5z"/><path class="stl_st1" d="M5.8 75.2c-.2.2-.3.5-.7.3.2-.2.3-.5.7-.3zM39.2 143.4l.6.6c-.4 0-.6-.2-.6-.6zM43.1 136.8h.2c-.1.3-.3.6-.6.4 0-.2.1-.3.3-.3h.1zM22.6 115.2a1 1 0 01-.6.5c0-.3.2-.5.6-.5zM22 118.3c.3 0 .4.2.6.5-.4 0-.6-.2-.6-.5z"/><path class="stl_st2" d="M25.4 79.3c-.4-.1-.8-.1-1.1-.5h.2l.8.3.1.2zM71.3 45c-.4-.2-.3-.7-.5-.9v-.2c.3.3.4.6.5 1z"/><path class="stl_st1" d="M25.4 79.3v-.2c.3 0 .5 0 .7.4l-.5-.1-.2-.1z"/><path class="stl_st2" d="M46.1 80c.2.2.6.1.8.4-.4 0-.7 0-1-.4h.2zM71.6 46.5c-.3-.2-.2-.6-.4-.8v-.2c.3.3.4.6.4 1zM93.9 32.9c.1-.4.6-.3.8-.5h.2c-.3.3-.6.4-1 .5zM90.7 33.3c.1-.4.6-.3.8-.5h.2c-.3.3-.6.4-1 .5zM42.9 79.2c.2.2.7.1.8.5-.3-.1-.8-.2-1-.5h.2z"/><path class="stl_st1" d="M6.8 99c.1.3.5.3.3.7-.2-.1-.5-.3-.3-.6z"/><path class="stl_st2" d="M114.5 32.8c.2.2.6.1.8.4-.4 0-.7-.1-1-.4h.2z"/><path class="stl_st1" d="M1.1 79.1c.2.4-.2.5-.3.7-.2-.4 0-.6.3-.7zM32 124c.3-.1.4.3.6.4-.4.2-.6 0-.7-.3z"/><path class="stl_st2" d="M127.6 46.9c-.2.2-.1.6-.4.8 0-.4 0-.7.4-1v.2z"/><path class="stl_st1" d="M40.7 144.5c.3-.1.5 0 .6.3-.3.2-.5 0-.6-.3zM41.5 144.9c.3-.1.5 0 .6.3-.3.2-.5 0-.6-.3z"/><path class="stl_st2" d="M11.3 73.2c.2.2.7.1.8.5-.3-.1-.7-.2-1-.5h.2z"/><path class="stl_st1" d="M54.2 145.9h.2c-.4.3-.7.1-1-.2h.1c.3 0 .5.3.7.2z"/><path class="stl_st2" d="M48.9 80.8c.2.2.6.1.8.4-.4 0-.7-.1-1-.4h.2z"/><path class="stl_st1" d="M13.4 74.1v-.2c.3 0 .5 0 .7.4l-.5-.1-.2-.1zM128.3 53.1l-.2-.8c.4.2.4.6.4 1l-.2-.2zM72.3 50.3l-.2.2-.2.2c0-.4.2-.6.5-.8v.2l-.1.2zM16.2 75.3v-.2c.3 0 .5 0 .7.4l-.5-.1-.2-.1zM126.7 37.7l-.4-.4-.2-.2c.4 0 .6.2.8.6h-.2zM18.3 110.5c.4-.2.4.2.6.3-.3.2-.5 0-.6-.3zM3.2 90.3c.1.2.5.2.3.6-.2-.1-.5-.3-.3-.6zM3.6 91c.1.3.5.3.3.7-.2-.1-.5-.3-.3-.6zM4 91.9c.1.1.5.2.3.6-.2-.1-.5-.3-.3-.6z"/><path class="stl_st2" d="M81.1 35.2c.2-.3.6-.2.8-.4h.2c-.3.3-.6.4-1 .4z"/><path class="stl_st1" d="M40 144c.2 0 .4.2.5.4-.3.2-.5 0-.6-.3zM128.4 39.8c-.3 0-.1-.3-.3-.5v-.2c.3.2.5.3.3.7zM60.3 73.1l-.2.2-.2.2c0-.4.2-.6.5-.8v.2l-.1.2zM129 54.5v-.2l-.1-.4c.3.2.4.5.4.8l-.2-.2zM18.6 76.5v-.2c.2 0 .4 0 .5.4h-.3s-.2 0-.2-.2zM127.9 52.1l-.1-.2-.1-.4c.3.2.4.5.4.8l-.2-.2zM71.5 51.5c0 .3-.1.6-.3.8-.1-.3 0-.6.3-.8zM18.5 76.3c-.3-.1-.6-.1-.8-.4.4 0 .6 0 .8.4zM70.1 54.5l-.2.2c0-.3 0-.6.4-.8l-.1.4v.2zM127.5 51.3l-.1-.2-.1-.4c.3.2.4.5.4.8l-.2-.2zM17.5 75.9h-.3l-.2-.2v-.2c.2 0 .4.1.5.4zM77.5 36.3l-.2.2-.2.1-.4.1c.2-.3.5-.4.8-.4zM71.7 51.3l-.2.2c0-.3 0-.6.4-.8v.4l-.2.2zM76.5 37h-.2l-.4.1c.2-.3.5-.4.8-.4l-.2.2zM68.1 58.5l-.2.2c0-.3 0-.6.4-.8l-.1.4v.2zM128.1 44.5c0-.3.1-.6.3-.8.1.4 0 .6-.3.8zM125.5 37l-.2-.3c.3 0 .6 0 .8.4h-.4l-.2-.2zM67.9 58.7c0 .3-.1.6-.3.8-.1-.4 0-.6.3-.8zM66.7 61c0 .4-.2.7-.3 1-.2-.5 0-.7.3-1zM65.7 64.1l-.2.2c0-.3 0-.6.4-.8v.4l-.2.2zM65.5 64.3c0 .3-.2.6-.3.8-.2-.4 0-.6.3-.8zM70 42l.1.2.2.7c-.3-.2-.6-.4-.3-.8zM78.3 36c-.2.2-.5.2-.8.3.2-.3.5-.4.8-.3zM26.4 79.9s-.2 0-.2-.2l-.1-.2c.3 0 .5.1.6.4h-.3zM16.1 75.1c-.3 0-.6-.1-.8-.3.4-.1.6 0 .8.3zM68.6 57.5v.2c-.2 0-.2.1-.3.2 0-.4 0-.6.4-.8v.4zM59.4 74.7v.2c-.2 0-.2.1-.3.2 0-.3 0-.6.4-.8v.4zM25.8 112.8c.3 0 .2.2.1.4l-.4.2c0-.3.3-.3.3-.6zM69.9 54.7c0 .3-.1.6-.3.8-.1-.4 0-.6.3-.8zM64.7 67.2c-.2.2-.5.2-.8.3.2-.3.4-.4.8-.3zM122.1 35.5c-.3 0-.6-.1-.8-.3.4-.1.6 0 .8.3zM46.1 146v-.1l.8-.2c-.2.3-.4.6-.8.3zM59.8 74v.1c-.2 0-.2.1-.3.2 0-.3 0-.6.4-.8v.4zM13.3 73.9c-.3 0-.6-.1-.8-.3.4-.1.6 0 .8.3zM63.9 67.5l-.2.2-.2.1-.4.1c.2-.3.5-.4.8-.4zM74.5 38.1l-.2.1-.4.1c.2-.3.5-.4.8-.4l-.2.2zM73.7 38.5l-.2.1-.4.1c.2-.3.5-.4.8-.4l-.2.2zM70.1 41.4v.1c-.4-.4 0-.6.2-.8 0 .3-.3.5-.2.7zM85.5 33.6l-.8.3c.2-.3.4-.5.8-.3zM72.9 39h-.2l-.4.1c.2-.3.5-.4.8-.4l-.2.2zM72.1 39.3l-.2.1-.4.1c.2-.3.5-.4.8-.4l-.2.2zM117.7 33.9c-.3 0-.6-.1-.8-.3.3-.1.6 0 .8.3zM25.3 79.1c-.3 0-.5-.2-.8-.3.4-.2.6 0 .8.3zM125.3 36.7c-.3 0-.6-.1-.8-.3.3-.1.6 0 .8.3zM60.7 71c0 .4-.2.7-.3 1-.2-.5 0-.7.3-1zM61 70.9c-.2 0-.2.1-.3.2 0-.3 0-.6.4-.8l-.1.4v.2zM61.4 70v.1c-.2 0-.2.1-.3.2 0-.3 0-.6.4-.8v.4zM69.5 55.7h.2v.2c-.2.1-.3.3-.3.4v.1l-.3.1c0-.3.3-.5.4-.8zM67.5 59.7h.2v.2c-.2.1-.3.3-.3.4v.1l-.3.1c0-.3.3-.5.4-.8zM70.5 43.1l.2.2.1.2v.2c-.3-.2-.5-.4-.5-.8l.2.2zM29.6 80.8l-.2.1c-.2 0-.4.1-.6-.1.3 0 .6-.2.8 0zM71.1 52.5h.2v.2c-.2.1-.3.2-.3.4v.1l-.3.1c0-.3.3-.5.4-.8zM111.7 31.9c-.3 0-.6-.2-.8-.3.4-.2.6 0 .8.3zM129.6 55.4c-.1 0-.2-.1-.2-.3l-.1-.4c.2.2.5.3.3.6zM2 87.5c.2 0 .4.1.3.4-.2 0-.4-.1-.3-.4z"/><path class="stl_st2" d="M28.8 80.8c.2.2.4 0 .7.1-.4.3-.6.2-.8 0l.1-.1z"/><path class="stl_st1" d="M33 135.2l-.2-.4c.2 0 .4 0 .4.3l-.2.1zM75.2 37.7v.1l-.5.1c.1-.2.3-.4.6-.4l-.1.2zM26.8 80c.2 0 .4 0 .5.3l-.5-.1v-.3zM75.7 37.3l-.2.2h-.2c0-.3.3-.4.6-.4l-.2.2zM69.1 56.7l-.2.2-.2.2c0-.3 0-.5.4-.6v.2zM70.7 53.5l-.2.2-.2.2c0-.3 0-.5.4-.6v.2zM128.7 53.7l-.2-.2v-.2c.3 0 .4.3.4.6l-.2-.2zM59 75.5v.1l-.3.1c0-.3.2-.5.4-.6l-.1.4zM67 60.9c-.2 0-.2.1-.3.2 0-.3 0-.5.4-.6v.2l-.2.2zM56.6 78.3v.1l-.3.1c0-.3.2-.5.4-.6l-.1.4zM19.2 76.7c.3 0 .4.2.5.4l-.5-.1v-.3zM128.4 40.5V40c.3.2.2.3 0 .5zM52.3 141.6l.1-.2h.4v.3l-.5-.1z"/><path class="stl_st2" d="M19.2 76.7v.3c-.2 0-.3-.1-.4-.3h.4zM26.8 80v.2c-.2 0-.3-.1-.4-.3h.4zM21 78.5h.3v.4c-.2 0-.2-.2-.2-.4z"/><path class="stl_st1" d="M38.4 124c0-.2.2-.2.3-.2v.1c0 .2-.2.3-.3 0z"/><path class="stl_st2" d="M128.1 39.1v.2c-.2 0-.2-.2-.2-.3l.2.1zM38.7 124v-.2c0-.1.1-.1.2 0v.1h-.2z"/><path class="stl_st1" d="M56.1 78.7c0-.1 0-.2.2-.2v.2h-.2zM20.5 77.7c.1 0 .2 0 .2.2h-.2v-.2z"/><path class="stl_st3" d="M30.7 111.6c0-.4-.3-.5-.7-.5h-1.4c-.3 0-.7.1-1-.3l-.3-.1H26c-.2 0-.5.1-.6-.3H25a6 6 0 00-1.2 0h-.3c-.3-.9-1-.5-1.4-.4-.5 0-.8 0-1-.6 0 0-.1-.2-.3-.2-.4 0-.7-.5-1.2-.5-.2 0-.3-.2-.4-.4-.4-.9-1.1-1.4-1.7-2-.6-.5-.9-1-1.3-1.7-.1-.2-.3-.3-.5-.3-.5.2-.7-.2-1-.5l-.3-.2c-.6 0-1-.6-1.3-1l-.3-.2c-.9 0-1.1-.9-1.7-1.3-.5-.5-1.1-1-1.4-1.7-.2-.5-.6-.9-.9-1.4l-.2-.6v-.1L8 95.5c-.2-.4-.5-.9-.6-1.4-.2-.6-.3-1.2-.7-1.8l-.4-1-.7-1.4c-.2-.5-.8-.9-.6-1.5 0-.1 0-.3-.2-.4l-.1-.2c0-.7-.5-1.1-.8-1.6v-.6c0-.3 0-.6-.4-.8v-.1c0-.8-.7-1.4-.6-2.2l-.1-.5c-.3-.4-.2-.7 0-1.2.4-1.2 1.5-1.7 2.2-2.5.4-.4 1-.7 1.5-1l1.4-.7 1-.5c.5-.2.9-.6 1.5-.4l.2-.2c.2-.4.4-.4.7-.1.2.2.4.2.7.3.5 0 .9.3 1.4.5.5.2.9.7 1.5.6.1 0 .3 0 .4.2 0 .2.3.2.4.2.3 0 .6.2.7.4.2.4.4.4.7.4h.5c.5.7 1.5 1 2 1.6.2.2.2.4.2.6 0 .8.3 1 1 1H22c.3 0 .6.1.7-.3l.1-.1c.6 0 1.2-.2 1.6 0 .4.3 1 .4 1.3.9.1.2.4.2.6.3.4.2.8.3 1.1.6.2.2.4.2.5.2.5 0 1 0 1.3.3.1.2.5.3.6-.1 0-.2.3-.2.4-.2h3.2c.2 0 .4 0 .4-.2s.2-.2.4-.2h1c.2 0 .5 0 .7-.3 0-.3.5-.1.7-.1.4 0 .7.1 1-.4h.6c.3 0 .7.1 1-.3 0-.2.1-.1.2-.1h3.2c.5 0 .9.5 1.5.4.4.7 1 .3 1.5.4.3 0 .6 0 .7.2l.1.2c.8-.2 1.4.6 2.1.4.2 0 .4 0 .5.2.1.2.3.2.5.2H54c.2 0 .4 0 .5-.3l.3-.1h.1c.4-.4 1-.4 1.5-.5.2 0 .5-.3.4-.6 0-.5.1-.9.5-1.2l1-.9h.1c-.1-.8.6-1 1-1.4.3-.5.8-1 1.3-1.4l.1-.3c0-.2 0-.5.4-.5v-.3c0-.2 0-.4.3-.4.1 0 .2-.2.1-.3 0-.5.3-.7.6-1 .3 0 .3-.2.3-.4 0-.4-.2-.9 0-1.2.2-.4.2-.8.6-1.1l.1-.2c0-.8.7-.9 1-1.4h.3l.3-.1c.1-.6.6-.3 1-.4h.2c.2-.5.7-.4 1-.4.5 0 .9-.1 1-.5.2-.3.2-.8-.2-1a.6.6 0 01-.2-.6c0-.3 0-.5-.2-.7-.2-.2-.3-.5 0-.7.2 0 .3-.2.2-.3 0-.3 0-.5.4-.6v-.2c0-.2 0-.5.4-.6.2 0 .1-.3.1-.5 0-.6.1-1 .6-1.4.1 0 .2-.1.2-.3 0-.2-.1-.5.3-.6.1 0 0-.2 0-.4 0-.3 0-.6.4-.7 0-.6.6-.8.5-1.2 0-.2 0-.3.2-.3.3-.3.7-.6.5-1.1V57c.7-.2.4-.6.4-1 .6-.4.5-1.1 1-1.4.2-.1.3-.2.2-.4 0-.2 0-.5.3-.5.2 0 .1-.3.1-.5 0-.3 0-.6.4-.7 0-.6.4-.9.8-1.2l.1-.4v-2.1c0-.3 0-.6-.3-.7-.2-.1-.1-.3-.1-.5 0-.3 0-.6-.3-.7h-.1c.2-.9-.7-1.4-.5-2.2.1-.2 0-.4-.2-.6-.3-.1-.2-.6 0-.8.2 0 .3-.2.3-.4 0-.1-.1-.2-.3-.2h-.1c-.3-.2-.7-.4-.7-.7 0-.3.4-.4.7-.6l2-1 .8-.4c1-.3 1.6-1.1 2.6-1.4.4-.2.9-.2 1-.4.5-.5 1.3 0 1.6-.7h.3c.4 0 .8 0 1-.4.1-.2.5 0 .8 0 .3 0 .6 0 .8-.4h.1c.6.1 1-.3 1.5-.5.7-.7 1.6-.2 2.4-.3.3-.1.6 0 .8-.4H91.2c.2 0 .4 0 .5-.3 0-.2.2-.1.4-.1h2.3c.2 0 .4 0 .5-.3 0-.2.3-.1.4-.1H98c.3 0 .5 0 .6-.3 0-.2.2-.1.3-.1h2.8c.3 0 .7 0 1-.4h7c.7 0 1.4.2 2 .5.2.2.4.3.7.3h.3c.4.5.9.3 1.3.4h.1c.5.4 1.2.2 1.7.7h.1c.7 0 1.3.4 2 .8h.2c.3 0 .7 0 1 .4.6 0 1.1.4 1.7.5.5 0 .8.4 1.2.5l.3.2c.6 0 1.1.4 1.7.5.5.1 1 .3 1.3.7l1 1 .2.1c-.3.4 0 .9-.3 1.2-.3.3-.2.6 0 1 .4.4.4.6 0 1-.2.3-.1.5 0 .8 0 .2 0 .4-.3.4s-.3.3-.3.4v1c0 .2.2.5-.2.6l-.1.4c0 .3 0 .7-.4.9v.3l-.1 1c-.2 1 .3 1.6.7 2.3l.6 1.2c.4.6.3 1.5 1 2 .3.2.3.7.5 1l.8 1.6v.3c0 .4.1.6.4.8.3.2.4.5.5.8.4.5.5 1 .7 1.6.2.6.8 1 1 1.7l.3 1.3c0 .2.1.4.3.5.6.5.7.8.2 1.5v.3c0 .5-.3.9-.7 1.2-.2.2-.3.4-.2.7 0 .3.3.2.6.2.2 0 .5 0 .7.2.1.2.3.1.5.1.3 0 .5 0 .7.3l.1.1c.6-.2 1 .3 1.5.5.4 0 .6.4.8.7.4.4 1 .7.7 1.4v.1c.6.3.3 1 .5 1.3 0 .5.3.8.5 1.3s.5 1 1 1.3l.4.9c.1.6.6.9 1 1.2.6.6 1.3 1.1 1.7 1.8.3.6 1 1 1 1.7 0 .3.3.5.3.9l.3.1h.9c.2 0 .4 0 .4.2l.1.2c.6-.1 1 .4 1.6.4h3.7c.4 0 .8 0 1.2-.3.2-.2.6 0 .9-.1.2 0 .4 0 .5-.3.2-.2.4-.1.6-.1.4 0 .9.2 1.2-.4h.6c.3 0 .7.1.9-.3 0-.2.3-.1.4-.1.3 0 .7.1.8-.3h3.9c.1 0 .3-.1.4.1 0 .2.2.2.3.2h1.3c.3 0 .7-.1.8.3 0 .2.2.1.3.1h1.5c.2 0 .5 0 .6.3 0 .2.2.1.3.1h6c.2 0 .4 0 .5-.2 0-.2.2-.2.3-.2.2 0 .4 0 .5-.3h.1c.5 0 .8-.4 1.2-.5.4-.2.8-.5 1.3-.4.3-.6 1-.2 1.2-.4.4-.5 1-.2 1.2-.4.4-.4.9-.2 1.1-.4l1.1-.6c.4-.2.8-.6 1.3-.6.1 0 .2 0 .3-.2l.3-.2c.5 0 1-.5 1.4-.6l1.2-.6c.4-.3 1-.2 1.2-.7h.1c.6.1 1-.4 1.5-.5h.3c.2-.6.7-.5 1-.2.3.3.7.4 1.1.6l2 1c.5.2 1.1.3 1.4 1h.3c.4.1.6.3.8.6.2.1.3.3.5.3s.3.1.3.2c.1.4.4.7.7 1 .7.6.5 1.3.6 2v.2c-.6.3-.4.8-.4 1.3-.1.6-.3 1.2-.7 1.7l-.1.2c0 1-.7 1.7-1.1 2.6l-.5 1.2c0 .1 0 .3-.2.3-.2.1-.3.3-.2.4.1.8-.5 1.4-.7 2-.2.6-.5 1-.6 1.7-.1.4-.3.9-.6 1.2l-.1.2c-.1 1-.8 1.8-1.2 2.7v.1c.2.7-.5 1-.7 1.4-.5 1.1-1.5 1.7-2.2 2.6-.2.2-.5.5-.8.5-.3 0-.3.3-.6.4-.7.3-1.2 1-1.8 1.4-.7.3-.9.8-1.3 1.3a48.7 48.7 0 01-3.4 3.5c-.4.3-.7.7-1.2.6h-.3c-.4.6-1 .3-1.5.3-.2 0-.5 0-.7.3 0 .2-.2.2-.3.1-.6 0-1.2-.1-1.7.1-.8.4-1.7 0-2.4.4-1 .5-2 .2-3 .3-.2 0-.5 0-.5.4 0 .3 0 .7.4.8.5.2 1 .4 1.5.8.2.3.4.5.8.5.2 0 .4.3.6.5l.3.2c.6.2 1 .5 1.5.8.2.3.4.5.8.5l.2.1c.3.3.6.7 1.2.8.2 0 .4.2.3.5 0 .3-.3.2-.5.1-.3 0-.6 0-.8.3l-.4.1c-.4 0-1 0-1.3.3 0 .2-.2 0-.3 0-.3 0-.6 0-.7.4-.2.3-.4.2-.6 0-.2-.3-.4-.3-.8-.3-.5 0-.8-.5-1.2-.6-.6-.1-1-.6-1.7-.6-.3 0-.7-.3-1-.5l-1.1-.5-.2-.1c-.7 0-1.2-.4-1.8-.7h-.1c-1 0-1.5-.7-2.3-1-.8-.3-1.7-.5-2.4-1-.1-.2-.3-.2-.4 0-.2 0 0 .2 0 .3l.5.6 2 1.8c.8.6 1.4 1.3 2.2 1.8.6.4 1 1 1.5 1.2.9.4 1.4 1.2 2 1.6.5.3 1 .5 1.3.9 0 0 .2.1.2.3l-.3.1c-.2 0-.4 0-.5.3-.4.5-1 .5-1.5 1-.2 0-.5 0-.6-.2-.4-.4-.8-.3-1.2-.3-.3 0-.5 0-.7-.2-.2-.3-.6-.2-1-.2-.2 0-.4 0-.6-.2l-.3-.2c-.7 0-1.3-.3-1.8-.7h-.5l-.6-.3-.2-.1c-1-.1-1.8-.8-2.8-1.2l-1.5-.6-1.4-.4-.5.1.2.4 2 2.7c.6.7 1.1 1.4 2 1.8.5.2.8.7 1.2 1 .7.9 1.8 1.2 2.4 2 .3.5 1 .4 1.2.9.4.6 1.1.8 1.7 1.2.6.4 1.2 1 1.9 1.3l.3.2c.4.5 1.1.6 1.6 1 .6.4 1.3.7 1.8 1.2.1.1.2.3.1.5 0 .2-.2.2-.4.2h-1.2c-.4 0-.8 0-1 .3h-.5l-1.6.1-.5.1c-.5.6-.6.6-.1 1.2l3.4 3.4.8.4c.2.1.4.2.3.4-.2.2-.5.2-.6 0-.3-.3-.6-.4-1-.3l-.2-.1c-.6-.4-1.2-.6-1.8-.8-.5-.2-1.1-.2-1.6-.6a1 1 0 00-.4-.1c-.6 0-1.2-.4-1.7-.7a.7.7 0 00-.4-.2c-.6 0-1-.3-1.5-.6h-.2c-.6 0-1.1-.6-1.7-.5-.2 0-.3 0-.4-.2a.6.6 0 00-.5-.2c-.6 0-1-.5-1.6-.6-.7-.2-1.3-.6-2-.7-.3 0-.5.2-.4.5 0 .7.3 1.5.7 2.1.5 1 1.2 2 2 2.8.3.5.6 1.1 1.1 1.4.5.2.8.5 1.2.9.3.2.5.4.9.5.2 0 .3.2.4.3.2.3.4.5.7.4l.2.1-.1.3-.6.3c-1 .1-1.8.7-2.7 1.2-.3.1-1 0-1.4-.1-.9-.3-1.3-1.2-2.2-1.5l-.2-.2c-.8-.8-1.7-1.3-2.6-1.8l-.3-.3c-.6-.7-1.4-1-2-1.5-.2-.3-.6-.2-.8-.2-.3 0-.3.2-.3.4 0 .4 0 .8-.4 1v.3c-.1 1.2-.2 2.4 0 3.6.1.3 0 .4-.4.4h-1.1c-.3 0-.7 0-1-.4 0 0-.2-.1-.4 0-.3 0-.5-.2-.8-.3-.6-.1-1.1-.6-1.8-.6l-1 .3c-1 .4-1.7 1.5-2.9 1.8-.4.1-.8.3-1.1.7a1 1 0 01-.5.4c-.4 0-.6.2-.8.5-.1.2-.3.3-.6.3-.4.1-1 .9-1.1 1.3l-.2.4-1.3 1.2c-1.6 2.2-3.8 4-5.5 6l-2.2 2.5c-.3.3-.6.6-1 .7l-.4.3c-.5.5-1 1-1.7 1.4l-1.7 1.1c-.4.4-.9.7-1.5.7l-.4.1c-.3.4-.8.3-1.2.3-.4 0-.8 0-1.1.3-.1.2-.3.1-.5.1s-.4 0-.6.2c-.1.2-.3.2-.5.2h-1.3l-.4.1c-.3.4-.7.3-1 .3-.5 0-1 0-1.3.4-.6 0-1 .2-1.4.4-.8.5-1.8.5-2.6 1.1l-.4.1h-8c-.6-.4-1.3-.2-1.8-.7-.2-.2-.6-.2-.9-.1-.5 0-.9-.3-1.2-.5-.3-.2-.5-.3-.8-.3h-1-.2c-.5-.7-1.1-.3-1.7-.4-.2 0-.4 0-.5-.2 0-.2-.2-.2-.4-.2h-1.3c-.3 0-.6.1-.8-.3 0-.2-.4-.1-.6-.1-.8 0-1.4-.3-2-.8-.4-.4-1-.5-1.4-1-.6-.7-1.5-.9-2-1.6-1.9-1-3.2-2.6-4.4-4.2-1.9-2.2-4-4.1-6-6.2-.4-.4-1-.7-.7-1.4l-.1-.2c-.4 0-.6-.3-.8-.4a2 2 0 01-1.1-.8c-.4-.4-1-.5-1.4-.8-.8-.5-1.6-.8-2.2-1.5-.2-.3-.7-.4-1-.5-.4-.1-.6-.3-.8-.6-.2-.3-.4-.5-.8-.3l-2 .9c-.9.4-1.7.3-2.5.3l-.5-.1c-.1-.2 0-.5.2-.6.2-.1.1-.3.1-.4v-1.6c0-.4 0-.7-.2-1l-.4-1.4c-.3-.6-1-.8-1.4-.3-.4.5-.8.9-1.4 1.1-.2 0-.4.3-.5.5-.3.3-.6.5-1 .6l-.3.3c-.8.8-1.6 1.3-2.5 1.8-.4.2-.7.6-1 .9-.5.3-1.1.3-1.5 0-.2-.3-.5-.3-.7-.2-.2 0-.4 0-.5-.2-.3-.3-.7-.3-1-.5-.4-.2-.7-.5-1.2-.5-.1 0-.3 0-.3-.2s.2-.2.3-.2c.5 0 .9-.3 1.2-.5 1-.7 1.9-1.4 2.7-2.3.7-.6 1-1.5 1.7-2 0-.5.3-.8.5-1.2.2-.3.3-.8.6-1.1.3-.2.1-.6.2-.9 0-.8 0-1-.9-.7-.8.2-1.6.5-2.4 1h-.1c-.8 0-1.4.4-2 .6l-2.4 1c-.5.2-1.1.3-1.5.6-.6.4-1.2.3-1.8.6-.4.3-1 .3-1.4.6l-1.3.5c-.3.2-.6.3-1 .3-.1 0-.3 0-.4-.2l.2-.3 2.8-2.6.9-1c.1 0 .2-.3.1-.5-.2-.3-.3-.6-.7-.6H35c-.3 0-.6 0-.8-.4 0-.2-.3-.1-.5-.1h-1.3c-.4 0-.6-.2-.8-.4-.2-.1 0-.2 0-.4l1.4-.7.6-.4c.4-.4 1-.6 1.5-.9l1.1-.9c.6-.3 1-.8 1.7-1l.2-.1c.5-.6 1.1-1 1.8-1.4.9-.6 1.6-1.4 2.4-2 1.6-1 2.8-2.5 4-3.8.4-.3.8-.7.7-1.2 0-.3.2-.2.3-.3.4 0 .5-.2.5-.5 0-.4-.4-.4-.6-.4-.7 0-1.3.4-1.9.7l-.3.1c-1 .2-1.7.7-2.6 1.2l-.8.3c-.7.1-1.2.5-1.9.6a3 3 0 00-1.1.5c-.3.2-.5.2-.8.2-.3 0-.7 0-1 .3-.1.2-.3.1-.5.1-.6 0-1.1 0-1.6.4-.2.1-.5 0-.8-.1l-1.4-1c-.2-.2-.4-.3-.3-.6 0-.3.3-.2.5-.2.5-.2.7-.6 1-1l.3-.2c.8-.2 1.2-1 1.9-1.4.6-.4 1-1 1.6-1.3 1.2-.8 2-1.8 3.1-2.7l.4-.3c.5 0 .4-.4.5-.6l-.1-.2c-.4 0-.8 0-1.2.2a4 4 0 01-1.7.7l-.4.2c-.7.3-1.5.8-2.3 1-.7.2-1.4.6-2 1l-.4.1c-.7 0-1.2.5-1.8.7l-.3.1c-1 .2-1.7.7-2.5 1.2-.1.1-.4.2-.4 0-.2-.6-.7-.4-1.2-.4-.2 0-.4.1-.6-.2l-.3-.1c-.3 0-.7 0-.9-.3l-.4-.1h-.6c-.2 0-.5.1-.5-.2 0-.3.3-.2.5-.3h.1c.4-.7 1.2-.7 1.6-1.3l.6-.3h.1c.6-.7 1.5-1 2.2-1.4l2.2-1.4.3-.2c.2-.2.3-.5.3-.7 0-.2-.2-.2-.4-.2-.4 0-.6 0-.7.4zm104.6 3.5v.1l.2.3h-.1c-.4.1-.2.6-.4.7l-.2-.1c0-.3 0-.7-.5-.6h-1.1-.2l-.2-.1c0-.1-.1-.2-.3-.2-.6 0-1.1-.2-1.7.1 0-.7 0-.7-.7-.6-.7 0-1.4.4-1.8-.3h-1.4c-.3 0-.3 0-.3.3.1.5.4 1 .9 1.3.6 1.1 1.5 2.1 2.3 3.2h-1c-.4 0-.7-.3-1.1-.4-.7 0-1.4-.2-2 0h-.4c0-.6-.4-.4-.7-.4h-.9c-.1-.2 0-.5-.4-.5h-.1c-.6 0-1.3-.2-2 .2-.1 0-.2 0-.3-.2 0-.3-.2-.3-.4-.3h-3.2c-.2 0-.3 0-.2.2.1.4.4.8.8 1 .4 0 .6.3.9.5l.7.6h.4c0 .2.1.4.3.5l1.6 1.7c.2.2.3.4.1.6h-1.4c-.2-.5-.6-.4-1-.3 0 0-.3.1-.3-.1 0-.6-.4-.4-.7-.4-.1 0-.4.2-.4 0-.2-.5-.5-.4-.9-.4h-.6c0-.3-.2-.3-.4-.3h-.2-.6v-.2h-.1c0-.2-.1-.2-.2-.2h-.6c-.4-.1-.8 0-1.2-.2h-.1c-.5-.3-1-.1-1.6-.2v.3c0 .4.7.9 1.1.8l1 1.1c.2.3.6.5.8.9l.3.1c.3 0 .4.1.6.4l.2.3c-.1.1-.3 0-.4 0h-1.4c-.2 0-.5.3-.5-.2 0-.2-.2-.2-.4-.2h-1c0 .1-.2.2-.2 0-.1-.6-.5-.5-.9-.4-.2 0-.4.2-.6 0l-.1-.2-.3-.2c-.2 0-.3-.1-.4 0l-.4.1c0-.5-.4-.5-.8-.5-.3.1-.5 0-.7-.3H106l-.4.1c0 .2 0 .4.2.5l.6.7c.4.3.3 1 .8 1.2 0 .2.1.3.3.3.1 0 .2.1.2.3 0 .2 0 .5-.3.4-.3 0-.7.4-.9-.1 0-.3-.2-.4-.4-.3-.2.2-.4 0-.4-.2l-.3-.2c-.2 0-.5-.1-.7-.3-.1-.1-.4-.2-.6 0l-.4-.2c-.3-.2-.5-.6-.9-.6-.3 0-.8.3-.8-.4-.6.3-.7-.4-1.1-.4h-.2l-.2-.2c-.2-.4-.6-.3-1-.2-.2 0-.3.3-.5.3-.8.2-1.4.7-2 1-1 .3-1.7.8-2.6 1-.4.1-.9.3-1.1.6-.4.3-.7.2-1 .3h-.4c0-.2 0-.3.2-.4.2 0 .4 0 .3-.2 0-.4.2-.6.4-.9.2 0 .5-.2.4-.5-.2-.3 0-.3.2-.5.3 0 .4-.3.6-.4.2-.4 0-.6-.3-.7-.4 0-.9-.2-1.2 0-.4.3-.8.3-1.3.3-.3 0-.6.1-.5.6-.5-.3-.9-.3-1.2.1-.1.2-.3.1-.4.1-.3-.2-.5 0-.7 0-.4 0-.4.5-.8.4-.4 0-.8 0-1 .4h-1.2c-.4 0-.8.2-1 0 0-.3.4-.4.6-.7l.2-.2 1.7-1.5c.5-.2.8-.7 1.2-1 .1-.2.2-.5-.1-.5-.5 0-1-.1-1.6 0 0 .2-.2.3-.4.3-.6 0-1.3-.2-1.8.4H84c-.7 0-1.2.4-1.8.5-.2 0-.2 0-.3.2-.1.2-.3.3-.6.2-.3-.2-.6-.1-.8 0-.2.2-.5.3-.7.3-.3 0-.5.1-.7.3-.3.2-.7.2-1 0-.2 0 0-.5 0-.8 0-.3.3-.1.4-.2.4 0 .4-.3.3-.6v-.2c.5 0 .9-.3 1.2-.6l.4-.4c.2-.2.5-.5.8-.6.7-.3 1-1 1.6-1.4.2-.1.2-.3-.1-.3-1.2.2-2.4 0-3.5 0-.2 0-.4 0-.4.3v.1l-.2.2h-.2c-.3-.2-1.6-.3-2 0-.1.3-.4.3-.6.3h-1.4c0 .6-.4.4-.7.4-.5 0-1.2-.2-1.5 0-.5.5-1 .3-1.5.4-.2 0-.3-.2-.3-.4s0-.3.2-.4l.3-.2c.3-.3.2-.7.4-.9.4-.4.7-.7.9-1.2l1-1v-.3c-.2-.3-.6-.5-1-.5s-.9-.2-1.1.4c0 .2-.1.3-.3.2-.3-.2-.6 0-.9 0-.4-.1-.8-.1-.9.5-.4-.3-1-.2-1.5-.2-.6 0-1 .5-1.5.4-.3 0-.7-.2-.8.3H65c-.1-.3-.4-.3-.5-.6v-.4c.4-.2.5-.5.8-.7.2-.2.4-.5.7-.6.8-.2 1.2-1 1.7-1.5.2-.2.1-.5-.2-.5h-.9c-.6.1-1.4-.4-2 .4H62c-.5 0-1 .7-.6 1 .4.5.2 1.1.6 1.6.2.3.5.8.5 1.3v.1c.4 0 .3.3.4.5.3.4.3 1 .5 1.4l.2.1c0 .6.5 1 .5 1.5.6.1.2 1 .7 1 0 .5.1.9.4 1.3l.6 1.2c0 .3.1.8.3 1 .4.1.3.4.4.7v.4c.5.2.3.5.4.8 0 .5.3 1 .5 1.2l.3.9c0 .1-.1.3.1.4.5 0 .3.2.3.5s-.3.7.4.7c.2 0 .1.1.1.2 0 .6-.1 1.1 0 1.6 0 .1 0 .3-.2.3-.1 0-.2 0-.2-.2 0-.3-.3-.4-.5-.4a1 1 0 01-.5-.3l-1.1-1.1c-.2-.2-.4-.3-.4-.5 0-.4-.3-.6-.6-.8-.3-.5-1-.8-1-1.5l-.2-.2-1-1c-.1-.1-.2-.3-.3-.2l-.1.3c0 .5-.2 1.1 0 1.7 0 .2-.1.3-.3.4-.1 0-.2.1-.1.2v3.2c0 .3 0 .5-.2.7-.3.4-.1.5.2.4a8 8 0 000 2.5c0 .2 0 .4-.2.6-.3.3-.3.6.1.8 0 .6 0 1.1.5 1.5l.8.8c.4.3.6.8 1 .9.5 0 .7.4 1 .7.4.3.7.8 1 .9.5.1.7.4 1 .6.4.4.7.8 1.1 1l.7.4c.2.2.4.3.7.3l.3.2c.1.2.3.1.5.2-.2.2-.2.4 0 .4.3 0 .6.2.7-.2 0-.2 0-.4-.4-.4v-1.3c0-.5 0-.9-.6-1 .4-.8 0-1.7.1-2.5-.5-.6-.5-1 0-1.5.2 0 .2-.2.4-.1v.3l.6 1.2c.2.4.9.5.7 1l.2.2c.2 0 .2.2.2.4s0 .5.3.5c.2 0 .2 0 .2.2-.3.6 0 1 .5 1.3l.2.2c0 .5.1.8.7.7-.4.5-.4.5.1.8.2 0 .1.1 0 .3 0 .4 0 .7.4 1 .4.3.5.6.4 1.1 0 .1 0 .2.2.3.2 0 .2.1.2.3 0 .5.5.7.5 1.2h.2v.2c.1.6.3 1 .9 1.2-.2.5.5.7.4 1 0 .7.3 1 .7 1.4.3.3.6.4.5 1l.2.1c.1 0 .2.1.2.3 0 .4.1.6.6.6-.3.3-.3.6.1.7l.1.3c0 .4.3.7.8 1 .2.2.4.4.7.4.2 0 0 .1 0 .2h-.2c-.1.1 0 .3 0 .4l.8.8c0 .2.3.1.3-.1v-.4-.4c0-.2 0-.6-.2-.6-.5 0-.3-.3-.2-.6v-.3c-.2-.2-.1-.4 0-.5v-.5-6.4c.5.1.8.3.8.9 0 .1 0 .3.2.3.4 0 .2.2.2.4s-.2.5 0 .6c.4.2.3.4.4.6v.3c.6.1.3.5.4.8 0 .2-.1.5.2.4.4 0 .3.2.2.4 0 .3-.2.6.1.7.3.1.3.3.3.5-.2.6.5 1 .4 1.5l.3.1c.4 0 .2.3 0 .4 0 .4 0 .7.5.8l.1.4c.2.3.6.4.9.7-.2 0-.3.2-.2.3 0 .2.2.1.3.1l.5.1c.1.5.8 1 1.3 1.1l.2.1c0 .4.4.4.5.6l.3.2c0 .2.2.4.5.3.2 0 .4 0 .5.3.2.4.5.7 1 .5l.5-.1c0-.2 0-.5-.2-.6H92v-.3l-.1-.5c-.3 0-.5-.1-.4-.4.2-.7.2-.7-.3-.8-.2 0 0-.2 0-.4 0-.3.2-.9-.1-1-.4-.3-.3-.6-.3-1v-2.2c0-.1 0-.3.2-.4.2.6 1 .9 1 1.6l.2.2c.1 0 .2 0 .2.2 0 .7.6 1 1 1.4l.2.4c0 .4.3.4.4.5.2.2-.2.5.2.7 0 0 .2 0 .2.2 0 .4.2.6.4.8l.4.7.5 1h.4c-.1.4 0 .7.3 1l.8.8c.5.3.7 1.1 1.5 1 .2.7.7.3 1 .3.8.4 1.4-.1 1.8-.5.7-.4 1.3-1.2 1.9-1.8.2-.2.3-.4-.1-.4 0-.1 0-.2.2-.3.4 0 .6-.3.8-.6.1-.3-.3-.2-.3-.4.9-.3 1-.4.4-.8.1-.2.3-.1.4-.1.3 0 .4-.3.3-.5-.2-.3 0-.3.2-.4.2-.3.9-.4.5-1l.1-.1c.4-.1.6-.5.8-.7v-.3c0-.4.6-.6.5-1 .2-.4 1-.3.6-1v-.1c.5-.2.6-.8 1.2-.7v.1c.5 1.2-.3 2.3-.3 3.5h-.2c-.2.2-.2.4-.2.6 0 .3.1.8-.2 1-.3.4-.2.6 0 1 0 0 .1.1 0 .2-.3 0-.6 0-.6.4v.8c.4.3.7 0 .9-.2.2-.3.4-.6.9-.6.3 0 .6-.3.7-.7v-.1h.6l1.3-1c.6-.3 1-1 1.5-1.4v-.5c.2-.1.2-.4.4-.4.3-.2.1-.4 0-.5.4 0 .6-.2.5-.7v-.2c.5-.3.5-.3.2-.8v-.4c.8 0 .8-.2.5-.7v-.4c.6-.1.7-.3.4-.8 0-.1-.2-.3 0-.5.6 0 .6 0 .5-.6v-.5c.1 0 .3 0 .4-.2l-.1-.3c-.1-.1-.2-.3 0-.4.3 0 .7.1.5-.4-.1-.8.5-.9.8-1.3.1.7-.3 1.5.5 2-.2.5-.2 1-.1 1.3 0 .3.2.7-.3.8-.1 0 0 .3 0 .4l-.1 3.1c0 .4.2.8-.3 1v1c0 .2-.1.5.3.5.2 0 .5 0 .4-.5-.1-.2 0-.2.2-.3.3-.5.9-.7 1-1.3.2-.3.6-.6.3-1 .5 0 .6-.5.9-.8 0 0 0-.2-.2-.1 0-.3.2-.2.3-.3.3-.2.4-.3.2-.6v-.2c.4-.3.9-.5.9-1 0-.4.5-.5.2-1 .3 0 .5 0 .6-.3 0-.2 0-.3-.2-.2-.1-.3 0-.3.2-.3.4 0 .5-.3.4-.6v-.1c.3-.2.5-.4.4-.7 0-.2.1-.2.2-.3l.2-.3c-.2-.3 0-.4.3-.6.2-.2.7-.4.5-1 0-.1-.2-.2-.1-.4.2 0 .5 0 .5-.3v-.2c0-.2 0-.3.2-.3.4-.3.2-.8.4-1.1h.2l-.1-.2-.1-.2v-.1h.4c.2-.1.2-.2.2-.3 0-.2-.1-.2-.3-.2l.3-.3c.2 0 .3 0 .4-.3 0-.1 0-.3-.3-.2 0-.2.2-.2.2-.3.5 0 .5-.2.4-.6 0 0 0-.2.2-.2.3 0 .3-.3.3-.5s0-.4.2-.6c.2-.1.2-.3 0-.3h-.1l.2-.3c.1 0 .4.2.5-.1 0-.3-.2-.3-.4-.4l.2-.2c.3 0 .5 0 .6-.3 0-.2-.2-.2-.4-.3l.2-.2c.6 0 .7-.5 1-.8.3-.1.5 0 .4.2v2.9c-.6 0-.5.4-.5.7v1.1c0 .4 0 .6-.3.7v1.3c-.1.2-.1.2 0 .2.3 0 .4-.2.5-.4.4 0 .7-.2 1-.5.2-.2.4-.7.7-.7.8 0 1-.7 1.4-1l.1-.3c.4.3.5 0 .7-.2.5-.5 1.1-.8 1.3-1.5.2.2.4.2.6 0l.5-.6c.6-.3 1-.9 1.5-1.3.4-.3.6-.6.3-1 .3 0 .6 0 .6-.4v-3.5c0-.6 0-1.2-.5-1.7v-.2-.2-.3-4.1l-.2-.6c-.2-.5-.2-.4-.6 0-.5.4-.8 1.2-1.3 1.7-.2.2-.3.4-.2.6l-1 .8-1.9 2c-.3.3-.7.2-1 .2-.1 0-.2-1 0-1 .6-.4.2-.8 0-1.2.4-.1 1-.2.6-.8 0-.2-.2-.5.3-.5.2 0 .2-.3.2-.4l-.2-.8c.6 0 .7 0 .4-.5-.1-.3 0-.3.2-.4.4 0 .5-.2.3-.5 0-.2-.1-.5.3-.6.2 0 .1-.2.2-.3 0-.2 0-.4.2-.5.3-.3.2-.8.5-1.1.2-.2 0-.6 0-.9.5 0 .5-.2.4-.6v-.1c.3 0 .5-.2.5-.5l.1-.4.7-1.2v-.2c0-.2-.4-.6.3-.6v-.2c0-.3 0-.6.4-.6v-.2c0-.3.2-.5.3-.7.2-.3.6-.8.5-1-.2-.6.7-1 .4-1.6h.1c.5-.1.4-.6.4-.9 0-.4-.3-.7-.7-.8-.8 0-1.6-.2-2.5.1.2-.5-.1-.5-.4-.5h-2.5c-.2 0-.4 0-.4.2-.1.1 0 .2 0 .4l.3.2c.2.5.9.4 1.2.8.1.3.4.4.6.6l.1.1.1.1.1.1.1.1.1.1.1.1.1.2h.1l.1.2h.1c0 .2.1.2.2.3zM89.2 78.5H89c-.8.2-1.4.7-2.2.8h-.1c-.3.2-.6.2-.9.2-.3 0-.7 0-1 .2-.3.2-.6.2-1 .2-.3 0-.7 0-1 .4 0 .1-.3.3-.1.5.2.3.4.2.7.1l.6-.3c.9 0 1.6-.7 2.6-.6l.1-.1c.3-.2.6-.2.9-.2l2.3-.1v-.1c.5-.3 1 0 1.6-.2H109v.2h.2c.7.3 1.6.2 2.4.2.2 0 .5.1.7.3.3 0 .5.2.7.1.5-.1.9 0 1.2.3l.7.5c.3.2.6.2 1 0 .2-.2.2-.3 0-.5l-1.8-.9c-.5-.2-1-.7-1.7-.6h-.7-.1l-.1-.1c-.3-.2-.7 0-1-.2-.8-.4-1.6-.7-2.4-.8-.2 0-.4-.1-.5-.3-.2-.6-.2-.6.4-.7h1c.2-.5.6-.4 1-.4.3 0 .6.3.9.4 0 .1.2 0 .4 0h3.6c.4 0 .7 0 1 .4 0 0 .1.1.2 0 .2-.2.4 0 .5 0 .5 0 1 .2 1.5.4l2.3.8c1 .6 2.2.7 3.2 1.3.2.2.4 0 .5-.1.1-.2 0-.3 0-.4-.6-.4-1.1-.8-1.8-.9-.9-.2-1.6-.7-2.6-1-.7 0-1.3-.6-2-.8-1-.3-2-.9-3-1.3-.2-.2-.4-.5-.8-.5-.2-.2-.4-.3-.3-.6.1-.2.3-.4.6-.4h4.3l.4.1c.2.2.5.2.7.2l2 .1c.6.3 1.3.5 2 1 .5.3 1 .2 1.7.2.1 0 .2 0 .3-.2 0-.1 0-.3-.2-.3-.5 0-1-.4-1.4-.5-.5-.1-.9-.3-1.2-.6-.6-.4-1.2-.7-2-.6l-.3-.1c-.5-.4-1-.5-1.5-.8-.7-.3-1.4-.6-1.8-1.3-.2-.3-.1-.4.2-.4h2.1c.2 0 .5 0 .6.2.3.2.7.3 1 .2 1.1-.3 2 .6 3.1.4l.3.2 2 1c.2.1.4.1.5-.2.1-.2.3-.4 0-.6a29 29 0 00-2.7-1.4h-.5c-.3 0-.5 0-.7-.3l-.3-.1c-.5-.1-.8-.6-1.4-.4l-.1-.1c-.2-.3-.4-.3-.7-.4-1.1-.6-2.5-.6-3.6-1.4l-.2-.1c-.8 0-1.4-.6-2.1-.5h-.2c-.3-.4-.8-.4-1.2-.4l-1.3-.2c-.6-.2-1.1-.5-1.7-.5l-1-.1c-.8-.4-1.6-.4-2.3-.6-.8-.3-1.7-.2-2.5-.2-3 0-6.2.1-9.3 0h-1.6c-.6 0-1.1 0-1.6.2l-.2.1-.4.1h-.2l-1.1.2-.3.1-.2.1h-.5l-.4.1h-.1l-1.1.3-.2.1-.5.1h-.1l-.2.1-.2.1H86c-.7 0-1.3.3-2 .5a14 14 0 00-3.2 1.1h-.1l-.3.1-.2.1h-.1l-.3.1-.2.1h-.1l-.2.1-.4.1-.2.1h-.1l-.2.1c-1.2.4-2.3 1.1-3.6 1.6-.8.3-1.7.5-2.5 1-.2 0-.7 0-.6.4.1.4.6.2.9.2l.2-.1c.2-.2.4-.3.7-.3.3 0 .7 0 1-.2.2-.2.5-.3.8-.3.6-.1 1.3.1 1.9-.3h.4c.5-.3 1 0 1.5-.1v-.2c.4-.2.8 0 1-.2h1.2c.2 0 .5 0 .6.2 0 .2-.1.4-.3.5 0 .2-.3.3-.5.5l-1 .5-2.2 1.2c-.2.1-.4.2-.7.1-.3-.1-.5 0-.8.2-.4.3-.9.6-1.4.6-.9 0-1.5.4-2.2 1-.1 0-.4.2-.3.4.1.2.4.2.6.2l.4-.2.8-.4c.4-.3 1-.2 1.3-.5.6-.4 1.4 0 2-.7.9.2 1.7 0 2.5 0l.4-.1c0-.3.3-.3.5-.3.3.1.5 0 .8 0 .8.1 1.6-.4 2.4-.4h.2c.5.2.7.5.8 1l-.1.2v.1H85l-.2.2-.5.2h-.1c-.3 0-.6 0-.7.4V75.7l-.2.2h-.1l-.7.1c-.8.6-1.7.8-2.6 1-.9.3-1.7.9-2.6 1-.5.2-.9.4-1.3.3l-.8.1c-.4.2-.7.7-.6 1 .2.1.8 0 1.1-.2.2-.2.4-.3.6-.2.9.1 1.6-.4 2.4-.6.7-.2 1.3-.9 2-.7l.3-.1c.4-.4.9-.4 1.4-.3l.4-.1c.5-.4 1-.3 1.5-.3a83.3 83.3 0 017 0s.2 0 .2.2 0 .2-.2.3l-.8.4-.3.1-.2.1-.1.1-.2.1-.2.1-.2.1h-.1zm-10.2 7l5.7 1.3c.7.3 1.5.4 2.3.8.2.1.5.2.5.6 0 .3-.5.3-.7.4-1.2.2-2.5.1-3.7 0-1.5 0-3-.2-4.4-.3l-1.8-.1-3.4-.4-3-.4c-1.4-.1-2.7-.4-4.2-.2l-6.5.8-4.7.7-1.4.2L50 88l-4-1.2c-.9-.3-1.8-.4-2.6-.8-1-.4-2-.4-2.9-.6-.2 0-2.4-.2-2.6-.1l-4 1c-1.2.3-2.5.5-3.8.6-.9 0-1.7-.3-2.6-.5l-4.7-1a9.3 9.3 0 01-3-1.4l-3.6-2.3-3.6-1.9c-.7-.4-1.6-.7-2.4 0-.7.4-1.5.8-2.2 1.4-.5.4-1 .8-.8 1.6l.2.9A528.8 528.8 0 0113 96a6.7 6.7 0 003.3 3.5c1.4.6 2.4 1.6 3.3 2.8.7 1.2 1.6 2.2 2.7 3l1.2.5-.7-.7a7 7 0 01-2.3-2.7L18.8 99c-.4-.9-1-1.3-2-1.4-.6-.1-1.2-.5-1.5-1-.7-1-1-2-1.5-3a50.3 50.3 0 01-2.8-8.2c0-.4 0-.7.4-.8.4 0 .7-.2 1-.3 1 0 1.9-.2 2.7.4l3.8 2.8c.8.5 1.6 1 2.6 1.3 1.2.2 2.4.6 3.7 1l4.3 1c.9.2 1.7.2 2.5.5.8.2 1.4 0 2-.2 1.7-.8 3.4-1.3 5.1-2a2 2 0 011.2 0l6 1.1 5.4 1.2 4.8.9 4 .3 6.4.4h2.3l6.8 1.3 2.8.8 2.3.6 3 .8 5.6 1.6 3.3 1c1.8.4 3.6.9 5.5 1.1.8.2 1.7.3 2.5.1 1.6-.2 3.1-.7 4.7-1l5-1.5 4.2-1.1c4.3-1.2 8.5-2.4 12.9-3.2a38.6 38.6 0 019.3-.6l1.2-.2 3.5-.3c1.6-.1 3.2-.4 4.8-.7l5-1c2.3-.5 4.6-.8 6.8-1.5.7-.2 1.3-.2 2 0 2 .3 4 1.5 6 2 .4.2.7.3 1.2.1.6-.2 1.2-.4 1.8-.3h.5l5.9-1.6c1-.3 2-.3 2.9-.8a23 23 0 004.2-2.7c1-.7 2-1.5 3.3-1.8 1.3-.2 3 .4 2.2 2.4-.7 2-1.3 4.2-2.2 6.3-.5 1.2-1 2.5-1.7 3.6-.5.6-1.1 1-2 1.2-.5 0-1 .4-1.3.9l-1 2a10 10 0 01-3.1 4.4l-.9.9c1-.4 2.5-1.5 3.3-2.6l1-1.4c.3-.4.5-1 1-1.2 1-.6 1.9-1 2.8-1.7a6 6 0 002-2.3l3.2-6.8 3-7c.1-.4 0-.7-.3-1-1-.9-2.1-1.7-3.4-2.3h-1.1l-2.4 1.2c-1.6.8-3.3 1.7-4.7 2.9-1.4 1-2.8 1.6-4.4 2-1.6.3-3.3.8-5 1-.5 0-1 .3-1.6.3-1.8-.1-3.5-.6-5.2-1-.8-.1-1.7-.5-2.6-.6-.6 0-1.2-.3-1.9-.2l-3.3.9-8 2.2c-1 .3-1.9.6-2.8.6-1.3-.1-2.6-.4-3.8-.6l-3.4-.5-4.2-.6c-1 0-2-.2-3 0l-2.6.3-3.1.3-3.5.4c-1 0-2 0-2.8.2-2 .2-4 .3-6.1.3l-1-.2c-.5 0-.5-.3-.2-.6s.6-.5 1-.6c1.6-.5 3.3-1 5-1.3.6-.2 1.3-.2 2-.6-.1-.2-.3-.2-.4-.2l-1.2-.2c-2-.4-4.1-1-6.2-1.3a67 67 0 00-4.2-.6l-3.2-.3-4.3-.4c-1.7-.1-3.3.1-5 .2l-1.3.1-3.3.4c-1.1.1-2.3.2-3.4.5L80.2 85c-.4.1-.8 0-1.2.3zm2.8-26.3h.5l1.6-.2c1.8-.3 3.5-.6 5.3-.4l4.7.4c.2 0 .5 0 .6.3 0 .3-.3.3-.5.4l-.5.2-4.5.9c-1.5.2-2.8.9-4.1 1.6-.1 0-.3.2-.2.3 0 .2.2.1.3 0 1.4-.1 2.7-.3 4-.6 1.8-.4 3.6-.7 5.5-.6 1.4.1 2.8 0 4.2.2l5.2-.2c1.9-.1 3.8 0 5.6.4 1.2.3 2.5.4 3.7.8l1.2.2.3-.1-.1-.2c-1-.7-2-1.3-3.3-1.6l-2.8-.5c-1.2-.2-2.3-.5-3.5-.9 0 0-.3 0-.3-.2s.3-.2.4-.2c1-.4 2.2-.5 3.3-.6 1-.1 1.9-.3 2.8-.2 1.7.1 3.3.5 5 .7.4.1 1 .3 1.5.1-.1-.2-.3-.2-.4-.2l-1.2-.3c-2.4-1-4.8-1.8-7.3-2.6-.8-.2-1.6-.4-2.3-1-.1 0-.3 0-.2-.2 0-.2.2 0 .3-.2h.2c1.6-.2 3.2-.2 4.8 0 2.1.3 4.2.5 6.3 1l.5-.1-.3-.2-4.3-1.8c-.9-.4-1.8-.6-2.7-1.1-.5-.3-.5-.6 0-.8a7 7 0 014.2-.6c1.2.2 2.3.7 3.4 1.1.3.2.5.3.9.3l-.2-.2-1.8-1c-1-.6-2-1.2-3.1-1.6-1-.3-2.1-.7-3-1.2-.2-.1-.5-.2-.4-.4 0-.2.3-.2.4-.3 1.1-.3 2.2-.3 3.3-.4 1.5 0 3 0 4.5.5.1.1.3.2.4 0 .1-.2 0-.3-.2-.3-.9-.7-1.9-1.2-2.9-1.6-.9-.4-1.8-.7-2.6-1.3l-.3-.3c0-.2.3-.2.4-.3l1.5-.3c1.4-.2 2.7-.5 4-.1 1.1.3 2 0 2.7-.7.1 0 .3 0 .3-.2s-.2-.2-.3-.2c-1.8-.7-3.4-1.7-5.1-2.4-.9-.3-1.8-.7-2.7-.5-2 .4-4 .8-6 1.4-2.8.9-5.6 1.2-8.5 1.4l-2.8-.2c-2 0-3.9-.5-5.8-1l-6.7-1.8H84l-2.3.8c-1.6.6-3 1.5-4.5 2.2-.1 0-.3 0-.3.3 0 .2.1.3.3.3.5.3 1 .6 1.6.7.2.1.5.1.8 0a3 3 0 011.5-.3c1.4 0 2.8.4 4.2.5.3 0 .2.3.1.4-.3.4-.7.6-1 .8-1.1.6-2.3.9-3.4 1.5-.5.2-1 .6-1.5 1 0 0-.2 0-.1.2h.6c1.2-.3 2.4-.6 3.7-.5H86c.7.1 1.4.1 2 .4.2 0 .4 0 .4.2s-.2.2-.3.3l-1.8.8-2.8 1-2.4 1.6c-.3.1-.7.3-.9.6h.4a9.4 9.4 0 015-1.4c1 .2 2 .4 2.9.8.2.1.3.2 0 .5-.2.3-.6.4-1 .6a22 22 0 00-3.3 1.2l-3 1.4c-.1 0-.2 0-.1.2h.2l.6-.1 3.5-.5c2.5-.4 5-.6 7.4-.3h.3c0 .2 0 .3-.2.3l-.9.6c-1.1.6-2.4.7-3.6 1-2.3.8-4.2 2-6.5 2.6zm2.7 51.7h1.4c.2-.1.4-.2.4-.5 0-.2-.1-.3-.3-.4l-1.4-.8c-1.2-.6-2.3-1.5-3.4-2.2a35 35 0 01-4.8-3.4c-.4-.3-.7-.6-1.1-.7-.3 0-.5 0-.5.3l-.1 1c-.4 2.1.8 3.5 2 4.9.3.2.7.3 1 .6.9.9 2.1 1 3.2 1 1.2.2 2.4.1 3.5.2zm40.4-6.5v-1.1c0-.2 0-.3-.3-.3-.5-.1-1 0-1.3.5l-.6.7-3.2 2.2c-1.9 1.3-3.8 2.6-6 3.6l-.2.3c0 .5.1.7.8.7h2.4c1.4 0 2.7-.2 4-.6 2.1-.7 4.7-2.7 4.4-6zm-45-51.9z"/><path class="stl_st2" d="M54.1 81c0-.2.1-.2.2-.3.5 0 .7-.3.8-.8l.2-.2c-.1.9-.3 1.1-1.2 1.2z"/><path class="stl_st4" d="M40.4 123.5v-.4l.1-.2h.3c.1 0 0 .2 0 .2-.1.2-.2.4-.4.4z"/><path class="stl_st2" d="M46.9 145.7c-.3 0-.5.3-.7.2.2-.3.5-.4 1-.4-.2 0-.2.1-.3.2zM54.2 145.9l-.7-.2-.2-.2c.4 0 .7 0 1 .4zM70.1 41.4l.2-.7.2-.2c0 .4-.1.7-.4 1zM127.9 52.1l.2.2c0 .3.3.5.2.7-.3-.2-.4-.5-.4-.9zM70.5 43.1l-.2-.2-.2-.7c.3.2.4.6.4 1zM52.5 143c0-.3.1-.5.3-.7.2.3-.1.5-.3.7z"/><path class="stl_st4" d="M21.3 79.1h.7c-.3.3-.4.3-.7 0z"/><path class="stl_st2" d="M87.5 33.6c.2-.2.4-.3.7-.3-.2.2-.4.4-.7.3z"/><path class="stl_st4" d="M140 144.9h-.7c.3-.3.4-.3.7 0z"/><path class="stl_st2" d="M68.3 58c0-.2.1-.2.2-.3 0 .2 0 .5-.3.6l.1-.4zM76.5 37l.2-.3h.4c0 .3-.4.2-.6.2zM61.4 70l.1-.5.2-.2c0 .2 0 .5-.3.6zM59 75.5l.1-.4.2-.2c0 .2 0 .5-.3.6zM61.1 70.3l.2-.2c0 .2 0 .5-.3.6l.1-.4zM127.3 50.7v.4c-.3 0-.2-.4-.2-.6l.2.2zM75.7 37.3l.2-.2h.4c0 .3-.4.2-.6.2zM129.3 54.7v.4c-.3 0-.2-.4-.2-.6l.2.2zM125.7 37l.4.1.2.2c-.2 0-.5 0-.6-.3zM71.8 51.1l.1-.4.2-.2c0 .2 0 .5-.3.6zM127.5 51.3l.2.2v.4c-.3 0-.2-.4-.2-.6zM65.8 64l.1-.5.2-.2c0 .2 0 .5-.3.6zM30.4 119.8l-.6.1c.2-.2.3-.5.6-.1zM63.1 68l.4-.2c0 .4-.4.3-.6.3l.2-.2zM74.7 38l.4-.2c0 .4-.4.3-.6.3l.2-.2zM59.5 74.3l.2-.2c0 .2 0 .5-.3.6l.1-.4zM73.7 38.5l.2-.2h.4c0 .3-.4.2-.6.2zM72.9 39l.2-.3h.4c0 .3-.4.2-.6.2zM68.7 57.1l.2-.2c0 .2 0 .5-.3.6l.1-.4zM70.3 54c0-.2.2-.2.2-.3 0 .2 0 .5-.3.6l.1-.4zM128.7 53.7l.2.2v.4c-.3 0-.2-.4-.2-.6zM72.1 39.3l.2-.2h.4c0 .3-.4.2-.6.2zM59.8 74l.1-.5.2-.2c0 .2 0 .5-.3.6zM56.6 78.3l.1-.4.2-.2c0 .2 0 .5-.3.6zM71.5 39.5h.4c0 .3-.4.2-.6.2l.2-.2zM26.8 80.2l.5.1.1.2c-.2 0-.5 0-.6-.3zM16.9 75.5l.1.2c-.3 0-.5 0-.6-.3l.5.1zM13.6 74.2l.5.1.1.2c-.2 0-.5 0-.6-.3zM26.1 79.5l.1.2c-.2 0-.5 0-.6-.3l.5.1zM52.8 141.5a.7.7 0 00-.4-.1l.3-.2c.1 0 .2.2.1.3zM19.2 77l.5.1.1.2c-.2 0-.5 0-.6-.3zM118 34.2c.3 0 .4 0 .5.2-.3.2-.3 0-.4-.2zM83.9 34.4l.4-.2c0 .2-.1.4-.4.2zM69.4 56.3c0-.1 0-.3.2-.4.2.3 0 .4-.2.4zM112 32.2c.3 0 .4 0 .5.2-.3.2-.3 0-.4-.2zM122.5 35.8c.2 0 .3 0 .4.2-.3.2-.4 0-.4-.2zM71 53.1c0-.2 0-.3.2-.4.2.3 0 .4-.2.4zM27.6 80.6c.2 0 .4 0 .5.3-.2 0-.4-.1-.5-.3zM53.5 81.2l.4-.2c0 .2-.1.4-.4.2zM66.2 63.1c0-.2 0-.3.3-.4 0 .2 0 .4-.3.4zM14.4 74.6c.2 0 .4 0 .5.3-.2 0-.4 0-.5-.3zM67.4 60.3c0-.1 0-.3.2-.4.2.3 0 .4-.2.4zM44.3 136.6h-.5c.1-.1.3-.3.5 0zM49.7 143.7h-.3c0-.3.3-.1.5-.2l-.2.2zM60.3 145.7l-.2-.2c.2 0 .4 0 .5.2h-.3zM48.7 144.3l-.2.2h-.3c0-.3.3-.2.5-.2zM52.7 144.9v-.3c.3 0 .1.3.2.5l-.2-.2zM51.5 142.3l-.2.2H51c0-.3.3-.2.5-.2zM8.1 74.1l.2-.2h.3c0 .2-.3.2-.5.2zM58.9 145.3c0 .2-.2.2-.3.2 0-.2.1-.2.3-.2zM52.7 144.5c-.2 0-.2-.2-.2-.3.2 0 .2.1.2.3zM57.7 145.7c0 .2-.2.2-.3.2 0-.2.1-.2.3-.2zM58.1 145.6h-.3.3zM128.5 53.3v.2c-.2 0-.2-.2-.2-.4l.2.2zM30.2 120.5c0-.1 0-.3.2-.4 0 .2 0 .3-.2.4zM65.1 67.2h0zM126.8 49.9l.1.3c-.2 0-.2-.1-.1-.3zM32.7 80.8l.3-.1c0 .1-.1.3-.3.1zM67.1 60.7v-.2l.2-.1c0 .1 0 .3-.2.3zM69.1 56.7v-.2l.2-.1c0 .1 0 .3-.2.3zM34.7 80.4l.3-.1c0 .1-.1.3-.3.1zM39.3 138.3c0 .2-.2.2-.3.2 0-.1.1-.2.3-.2zM20.5 77.7v.2c-.1 0-.2 0-.3-.2h.3zM9.5 73.7c0-.2.2-.2.3-.2 0 .1-.1.2-.3.2zM20.5 78h.2v.2l-.2-.3zM56.3 78.7v-.2l.2-.1c0 .1 0 .3-.2.3zM58.7 75.7l.2-.1c0 .1 0 .3-.2.3v-.2zM36.3 80l.3-.1c0 .1-.1.2-.3.2zM70.7 53.5v-.2l.2-.1c0 .1 0 .3-.2.3zM75.3 37.5h.2c0 .2-.1.2-.3.2l.1-.2zM37.9 79.7c0-.2.2-.2.3-.2 0 .1-.1.2-.3.2z"/><path class="stl_st4" d="M138.3 71.2c.2 0 .2 0 .2.2-.2 0-.2 0-.2-.2zM138.5 71.7c.2 0 .2 0 .2.2-.1 0-.2 0-.2-.2z"/><path class="stl_st2" d="M72.3 50.3c0-.1 0-.2.2-.2 0 .1 0 .2-.2.2zM35.7 139.7c0 .1 0 .2-.2 0h.2zM60.3 73.1c0-.1 0-.2.2-.2 0 .1 0 .2-.2.2z"/><path class="stl_st4" d="M72.3 156.1c-.1 0-.2 0-.2-.2.1 0 .2 0 .2.2zM131.9 150.7c0 .1 0 .2-.2.2 0-.1 0-.2.2-.2zM79.3 162.7c-.1 0-.2 0-.2-.2.1 0 .2 0 .2.2z"/><path class="stl_st2" d="M34.5 140.1c0 .1 0 .2-.2 0h.2zM59.8 145.3c-.1 0-.2 0-.2-.2.1 0 .2 0 .2.2zM56.1 78.7h.2c0 .1 0 .2-.2.2v-.2z"/><path class="stl_st4" d="M126.3 156.7c0 .1 0 .2-.2.2 0-.1 0-.2.2-.2z"/><path class="stl_st2" d="M37.3 124.1c0 .1 0 .2-.2 0h.2zM126.7 37.7h.2v.2c-.1 0-.2 0-.2-.2zM39 141.7v-.2c.1.1 0 .2 0 .2zM29.3 120.1c0 .1 0 .2-.2 0h.2z"/><path class="stl_st4" d="M64.1 147.9c-.1 0-.2 0-.2-.2.1 0 .2 0 .2.2z"/><path class="stl_st2" d="M41 137.7c-.1.1-.2.2-.3 0h.2zM48.1 144.5c0 .2 0 .2-.2.2 0-.1 0-.2.2-.2zM44.1 145.9s-.2 0-.2-.2c.1 0 .2 0 .3.2z"/><path class="stl_st4" d="M122.5 160.5c0 .1 0 .2-.2.2 0-.1 0-.2.2-.2z"/><path class="stl_st2" d="M51 142.5c-.1.2-.2.2-.3.2 0-.1 0-.2.2-.2zM60.9 145.9c-.1 0-.2 0-.2-.2.1 0 .2 0 .2.2zM39 142.9v-.3.3zM42.1 137.3c0 .1 0 .2-.2 0h.2zM39 138.5c-.1.1-.2.2-.3 0h.2z"/><path class="stl_st4" d="M44.3 137v-.1h.2c0 .2-.1.2-.2.2z"/><path class="stl_st2" d="M59.2 145.1c0 .2 0 .2-.2.2 0-.1 0-.2.2-.2zM49.3 143.7c0 .2 0 .2-.2.2 0-.1 0-.2.2-.2zM70.8 43.5l-.1-.2c.1 0 .2 0 .1.2z"/><path class="stl_st4" d="M77.7 161.5c-.1 0-.2 0-.2-.2.1 0 .2 0 .2.2z"/><path class="stl_st2" d="M11.8 104.4c-.1 0-.2 0-.2-.2l.2.2zM19.8 111.2c-.1 0-.2 0-.2-.2l.2.2zM13.4 105.6c-.1 0-.2 0-.2-.2l.2.2zM33 135.2l.2-.1-.2.1zM36.7 139.2h-.1.1zM.7 80.2v-.1.1zM39.9 138h-.1.1zM11.4 104.1zM43.1 136.8H43h.1zM13 105.3zM14.6 106.3c.1 0 0 0 0 0zM19.4 110.9z"/><path class="stl_st5" d="M134.8 116.1s.1.1.2 0c-.1.7-.4 1.3 0 1.8.4.4.2.7 0 1.1l-.5.8c-.2.4-.2.8.2 1v.2c-.3.2-1 .1-.4.6 0 .3.1.7 0 .8-.3.4-.3.8-.5 1.1a1 1 0 00-.3.6l-.1.3c-.4 0-.3.4-.3.6-.2 0-.3 0-.4.3l-.5 1 .2.9c0 .1 0 .4-.2.4-.5 0-.4.3-.3.5-.6 0-.4.5-.6.8.2.4.5.8 0 1.1-.2 0-.2 1.1 0 1.1.3 0 .7.1 1-.2a91 91 0 012-2l.9-.8c.6.5 1.2 1 1.4 2 .1.6.2.7.9.7v.4c.6.5.4 1.1.4 1.7v3.5c0 .4-.3.3-.6.3.3.5.1.8-.2 1l-1.5 1.4c-.5 0-.7.5-1.1.6-.2.7-.9 1-1.4 1.5-.1.1-.3.5-.6.2l-.1.2c-.5.4-.7 1-1.5 1l-.7.9c-.3.2-.6.5-1 .4-.2-.1-.2-.4-.1-.6.1-.3-.1-.4-.3-.5.2-.1.3-.3.3-.7V141c0-.3-.1-.7.4-.7v-.3l.1-2.6c0-.3-.1-.3-.4-.3l-.1.1c-.4.2-.7.4-.9.8l-.2.2-.2.6-.2.2-.2.5-.2.3c.4 0 .4.2.2.3l-.3.6c0 .2 0 .4-.2.5-.2 0-.2.1-.2.2-.2.2-.5.3-.4.6l-.2.2c-.2.2-.4.3-.2.6l-.2.3-.3.5v.4c-.3.4-.1.9-.5 1.2l-.2.2c-.3 0-.5.2-.5.6v.5c-.3.3-.6.7-.8 1.2-.3.2-.8.1-.9.6 0 .2-.1.3-.3.5a5 5 0 00-1 1.8c-.4 1-.8 1.5-1.8 1.6-.4.1-.8 0-1-.5-.2-.3-.3-.8-.1-1.2.1-.3 0-.5-.3-.6v-.1c-.8-.5-.4-1.2-.4-2-.4.4-1 .5-.8 1.3-.4-.1-.5.2-.6.4-.2.1 0 .3 0 .4-.3 0-.3.3-.4.5l.1.5c-.4 0-.4.4-.5.6v.5c-.4 0-.2.5-.4.8v.4c-.3.1-.3.4-.4.7v.4c-.2.3-.5.5-.3 1-.4 0-.4.4-.5.7.1.1.3.3 0 .5-.2 0-.2.3-.3.4l-.3.2-1.3 1.4-.3.3c-.6.2-1 .6-1.5 1l-.1.2-.4.1c-.6.2-1 .7-1.5.9 0-.3.3-.5 0-.7v-.3c-.2-.3-.3-.6 0-1 .3-.2.3-.6.2-1 0-.2 0-.4.2-.5l.2-.1c0-1.2.7-2.3.4-3.4l-.1-.2c0-.3-.1-.3-.4-.2-.8.4-1 1.3-1.4 2 .1.4-.4.6-.5 1l-.2.2-1 1.3c-.6 1-1.3 1.8-1.7 3 0 0-.5.1-.3.4l-.2.3c-.7.9-1.4 1.7-2.3 2.3-.4.2-.9.1-1.2.4h-.1c-1.7-.4-2.7-1.8-3.6-3.1h-.4c0-.4-.3-.7-.4-1-.2-.2-.2-.4-.5-.6-.2-.2-.4-.5-.4-.8 0-.2 0-.2-.2-.3-.4-.2 0-.5-.2-.7-.1-.1-.5 0-.4-.4 0-.2 0-.3-.2-.5-.3-.4-1-.7-1-1.4 0-.1 0-.2-.2-.2 0 0-.2 0-.2-.2 0-.7-.8-1-1-1.5-.3 0-.2.2-.2.3v2.3c0 .3 0 .6.3.9.3.2 0 .7 0 1l.1.5c0 .3 0 .5.3.7 0 .3.1.4.4.5-.4 0-.4.3-.6.5l-.1.2c-.4-.2-.8-.5-1.2-.4 0-.1 0-.2-.2-.3l-.1.2c-.2-.2-.5-.3-.5-.6 0-.2-.2-.1-.3-.2-.4 0-1.2-.6-1.3-1-.1-.4-.4-.4-.6-.6-.2-.3-.7-.3-.9-.7 0-.1-.2-.2-.1-.4 0-.3 0-.6-.4-.7.2-.2.4-.4 0-.4-.2 0-.4 0-.4-.2.2-.6-.6-.9-.4-1.5 0-.2 0-.3-.3-.4-.3-.2 0-.5 0-.7 0-.3.1-.5-.2-.4-.4 0-.3-.3-.3-.5s.2-.7-.3-.8l-.1-.2c0-.3 0-.5-.3-.6-.2-.1-.1-.5 0-.7 0-.2 0-.4-.3-.4-.2 0-.2-.2-.2-.3 0-.6-.3-.8-.8-1-.6.2-.9.7-.6 1 .5.6.4 1.3.3 2 0 .8-.4 1.7-.7 2.6-.1.4-.3.8 0 1.2v.4l-.4.1c-.2-.1-.3-.3-.6-.2v-.2c-.5-.2-.4-.4-.1-.7-.5 0-.7-.2-.7-.7 0-.1 0-.2-.2-.2-.1 0-.2-.1-.2-.3.1-.4-.2-.6-.5-.8-.4-.4-.7-.8-.7-1.4 0-.4-.6-.6-.4-1-.6-.2-.8-.7-.8-1.2l-.1-.2H76c0-.5-.5-.8-.5-1.2 0-.2 0-.4-.2-.4-.1 0-.2-.1-.2-.3.1-.4 0-.8-.4-1-.4-.3-.4-.7-.3-1.1v-.3c-.6-.2-.6-.3-.2-.8-.6 0-.8-.2-.7-.6 0-.2 0-.2-.2-.2-.5-.4-.8-.7-.5-1.4l-.1-.2c-.4 0-.4-.2-.4-.5 0-.1 0-.3-.2-.3l-.1-.2c.1-.6-.6-.7-.8-1l-.5-1.3-.1-.3c-.2 0-.2.1-.3.2-.6.5-.6.8-.1 1.4 0 .9.3 1.7 0 2.6l-.3.5c-.2.5-.7 1 0 1.4v.4l-.3-.2a.8.8 0 01-.7-.4l-.7-.4c-.4-.2-.7-.6-1-1l-1-.6c-.4-.1-.7-.5-1-.8-.4-.3-.6-.7-1.1-.8-.4 0-.6-.6-1-.9l-.8-.8c-.5-.3-.5-.9-.5-1.4.1-.3.3-.6 0-.9.2-.1 0-.3 0-.5l.1-2.5c-.3 0-.5 0-.2-.4l.1-.7.1-3c.4.3.9.3 1.3 0 .2-.2.3-.2.6-.2.4 0 .7.3 1 .3.4.1.6.4.7.7 0 .3.2.4.4.5l1.1 1.1c.2.2.3.3.5.3s.5 0 .5.4c0 .1 0 .2.2.2s.2-.1.1-.2l.1-1.6-.1-.3c-.7 0-.4-.4-.4-.7 0-.3.2-.5-.3-.5-.2 0-.1-.3-.2-.4 0-.3 0-.6-.2-.9-.3-.2-.4-.7-.5-1.1 0-.3 0-.7-.4-.9v-.4c0-.2 0-.5-.4-.8-.2-.1-.2-.5-.4-.8l-.5-1.3c-.3-.4-.3-.8-.4-1.2-.5-.1-.1-1-.7-1 0-.6-.6-1-.5-1.5l.1-.6c.2-.3.1-.5-.3-.6-.3-.1-.5-.7-.3-.9.3-.2.4-.4.5-.7 0-.2.2-.3.3-.1.1.3.4.1.6.2 0 .2.4.3.5.5h.2c0-.4.5-.3.7-.3.6.1 1-.4 1.6-.4.5 0 1 0 1.5.2 0 .2 0 .4.3.5.2.1.3 0 .4-.2.4-.3.8-.4 1.3-.1.4.2.7.5 1.2.5-.2.5-.5.9-.9 1.3-.2.1-.1.6-.4.8l-.3.3c-.2 0-.3.2-.2.4 0 .2.1.3.3.3.5 0 1 .1 1.5-.3.3-.2 1-.1 1.5 0 .3 0 .6.2.7-.4 0-.1.3 0 .4 0h1c.2 0 .5 0 .6-.3v-.1c.4-.2 1.7-.2 2 0h.2c.1.6.4 1 .9 1 .6 0 .8.3.9.8l-.5.4c-.5-.1-.7.3-1 .5v.3c-.4 0-.6.2-.8.4l.4.1c-.1.1-.4 0-.4.3s-.2.7 0 .8c.3.2.7.2 1 0 .2-.2.4-.3.7-.3.2 0 .5-.1.7-.3.2-.2.5-.3.8 0 .3 0 .5 0 .6-.3l.2-.2c.7 0 1.2-.5 1.9-.4h.2c.5-.6 1.2-.4 1.8-.4.2 0 .3-.1.4-.3 0 .6.5.3.8.4 0 0 .2 0 .3.2 0 .1-.1.2-.3.2h-.3l-.2.3c0 .2 0 .3.2.4l-1.7 1.4-.3.3c-.3-.1-.5.2-.6.4-.1.3.1.4.3.5.4.3.8.6 1.2.6.6 0 1.4 0 1.8-.3 1-.8 2-.6 3-1l.2.1c.4.2.7.2 1 0 .3-.2.6-.2.6.2 0 .3.2.4.4.4-.2.2-.4.4-.4.8 0 .2-.1.2-.3.3-.1 0-.2.1-.2.3h.3c.4 0 .7 0 1-.3l1.2-.5 2.5-1c.7-.4 1.3-.9 2.1-1 .2 0 .3-.4.6-.4s.7-.1.9.3l.2.1h.2c.4 0 .5.7 1 .4h.1c0 .8.5.4.8.4.4 0 .6.4 1 .7 0 0 .1.2.3 0 .2 0 .5 0 .6.2l.7.3c.1 0 .2 0 .3.2 0 .2.1.3.4.2.2-.1.4 0 .4.2.2.6.6 0 .9.2.3 0 .3-.3.3-.5 0-.1 0-.2-.2-.3-.2 0-.3-.1-.3-.3.3-.8 1-1 1.8-1.1l1.2-.2c.2.2.4 0 .6 0 .4-.1.8-.2.9.3 0 .2.2.2.3.1h1.2c0 .7.4.4.6.4h1.7c.1-.2 0-.3-.1-.4-.2-.2-.3-.4-.7-.4l-.3-.1c-.1-.4-.5-.5-.7-.8l1-.8c.1-.2.3-.3.6-.1.5.2 1 0 1.3-.3.2.2.4 0 .6 0 .3 0 .7 0 .9.4 0 .2.2.1.4 0 .3 0 .7-.1.7.4 0 .3.3.2.4.1.3 0 .6-.1 1 .3h1.3c.2-.2.1-.4 0-.6l-1.8-1.7-.2-.4h-.3l-.1-.1.1-.4c.4-.2.6-.5.9-.8 0-.2.3-.4.5-.3h3.5c.4 0 .7-.1.8.4h2.3c.5.1.8.4 1.3.4h.9c-.9-1-1.7-2-2.3-3.1.3-.3 1-.2 1.2-.7.2-.3.5-.4.9-.3.2 0 .5.1.5-.3.6-.1.7 0 .7.6-.2.7 0 .9.7.9.4 0 .6-.2.9-.4 0-.2.2-.4.4-.4l.2.2c-.2 0-.3.2-.3.4 0 .3.2.4.4.5.7.2 1.3 0 1.8-.5zm-30 23l-.8-.2c0-.2.1-.5-.2-.6-.2 0-.2-.2-.2-.4 0-.1 0-.3-.2-.4-.2 0-.2-.2-.2-.4 0-.3.2-.7-.4-.8v-.2c0-.5-.4-.9-.6-1.3l-.6-1.1c-.3-.5-.4-1.2-.8-1.6-.4-.4-.6-.9-1.2-1-.4 0-1 .7-1.2 1.3-.3.1 0 .3 0 .4-.4.3-.4.8-.6 1.1l-.2.4c0 .3 0 .5-.4.5-.2 0-.1.2 0 .4v.3c0 .3-.5.4-.4.7-.4 0-.4.2-.4.5h-.1c0 .4.3.8-.4 1 .2.5 0 1-.3 1.3-.2 0-.4-.2-.6 0h-.2c-.4-.5-.6-1-.8-1.6l-.2-.3c-.6-.3-.6-1-1-1.5l-1.3-2c-.1-.2-.4-.3-.3-.7v-.1c-.4-.1-.6-.5-.8-.8-.6-.7-1.5-.7-2 0-.1.4 0 .7-.4 1-.3.1-.6.4-.4.8-.4.4-.5.9-.4 1.4v.3c-.6 0-.4.4-.4.6l-.4.3c-.1.3-.3.2-.6 0l-.2-.2v-.1c-.4-.6-1.2-.8-1-1.7h-.3a2 2 0 01-1-1.3c-.1-.3-.7-.5-.4-1l-.2-.1c-.2 0-.3-.2-.4-.3l-1.5-1.9-1.6-1.8c-.3-.2-1-.2-1.1 0-.3.3-.5.7-1 .8v.7c-.5 0-.3.4-.4.7-.2 0-.4-.2-.6 0l-.1-.2c-.5-.2-.4-.6-.4-1v-.2c-.4 0-.4-.3-.4-.5s0-.3-.2-.4c-.4-.2-.6-.6-.6-1v-.4c-.4-.4-.4-1.1-1-1.4l-.1-.2c0-.6-.4-.6-.9-.6-.3 0-.4 0-.4.4 0 .5.1 1-.3 1.3l-.1.3v4.7l.1.4c.4.2.4.6.4.9 0 .2 0 .5.3.4.3 0 .7.3.8-.3.1.2.1.6.5.5h.6c0 .3 0 .6.4.7v.4c.1.2.2.5.5.5 0 .3.6.3.4.7-.1.6.6.9.5 1.5h.1c.2.1.3.3.2.4 0 .3 0 .4.3.5.2 0 .2.2.1.4 0 .3 0 .6.4.8.2 0 .4.3.4.5 0 .3.2.5.4.7.2.1.3.5.6.3.2-.2.6-.3.6-.7 0-.4-.1-.9.4-1v-.2c.1 0 .1.1.2 0 .4-.4.7-1 1.2-1.4.3.2.6.4.6.7.2.9 1 1.3 1.4 2 .3.5.8 1 1.3 1.5.1 0 .2.2.1.3 0 .2 0 .3.2.3l.3.3 3 2.8c.1.2.8.3.9.1.2-.3.6-.5.5-1h.2c0-.1.2-.2.1-.3 0-.4.1-.6.5-.8l.1-.3v-.8c0-.2.3-.4.3-.8s.2-.5.5-.2c1 .4 1 1.5 1.8 2.1v.1c0 .5.7.7.4 1.2h.1c.6.3 1 .8 1.3 1.4.2.4.6.7.9 1 .2 0 .5.2.8 0l.8-.4c.3.2.4.2.5-.2.8-.3 1.4-1 2-1.5.2-.2.4-.4.7-.1.2.2.6.2.9.2.5.2.9.7.7 1.2.5-.1.8 0 1 .4.7.6 1.1.6 1.8 0l.9-1c.1-.1.4-.2.4-.4 0-.6.5-.8.9-1.1l.2-.2 1-1.2c.5-.4 1-.5 1.4-.2.5.2.6.7.5 1.1 0 .4.2.5.2.7.2.6.7.6 1 1 .4.3.6.2.8-.1.5-.7 1.5-.8 1.7-1.7l.2-.1.8-.8c.3-.3.7-.6.8-1 .4-.8 1-1.3 1.6-1.8.2 0 .3.1.5-.1.5-.7 1.3-1 2.2-1.1l.1.2c0 .3.5.5.5 1 0 .4.3.7.6.9.4.1.6-.3.8-.5l.2-.1c.3-.2.3-.7.5-1 .3-.3.4-.8.6-1.3l.2-.3c.4-.3.4-.8.7-1.2.1-.2-.2-.7.3-.9v-.3c0-.1 0-.3.2-.3.3-.2.2-.6.3-.8l.2-.5c.1-.5.5-.8.6-1.2l.1-.4.4.2.8 1h.5c.2 0 .2-.2.2-.3 0-.3 0-.5.3-.5.2 0 .1-.1.2-.2.2 0 .4-.1.4-.3l.2-1.5c.2-1.3 0-2.5-.2-3.8 0-.2-.1-.4-.4-.4l-.1-.2c-.4 0-.4-.2-.4-.4v-.5c0-.1 0-.3-.2-.3h-.6c0 .2-.2.4-.3.5-.1.3-.5.3-.5.6s-.2.5-.4.6l-.1.3-.4 1.2-.7 1.3c-.3.4-.5.8-.4 1.3l-.2.1c-.2.1-.2.4-.2.5-.1-.2-.3-.4-.5-.4s-.1.2-.2.3c-.2-.2 0-.5-.1-.7v-.3c-.5-.1-.4-.4-.4-.7 0-.6-.4-1-1-1s-1 .4-1.4.6c-.4.3-.3.7-.6 1-.4.3-.8.7-1 1.1-.4.4-1 .6-.9 1.2-.7.5-.8 1.3-1.4 1.8-.6.5-.7 1.2-1.2 1.7-.2.1-.5.2-.5.4 0 .4-.2.6-.4.9l-.4-.1-.3-.2c-.2-.2 0-.7-.4-.8v-.3c-.6 0-.5-.4-.5-.7v-.4c-.5-.3-.5-.8-.7-1.2l-.8-1.1c-.2-.3-.4-.2-.7-.3-.4-.2-.5.1-.6.3l-.2.2c-.2.3-.8.4-.7 1l-.3.3c-.1.2-.4.2-.4.5 0 .4-.3.6-.6.9 0 0-.2 0-.2.2 0 .5-.3.9-.8 1-.2.1-.2.2 0 .4-.4 0-.4.2-.4.4 0 .4 0 .7-.4 1-.3.2-.6.5-.4 1-.2.1-.4 0-.4.3z"/><path d="M79 85.4c.4-.3.8-.2 1.2-.3l7.4-1.5c1.1-.3 2.3-.4 3.4-.5l3.3-.4h1.3c1.7-.1 3.3-.4 5-.3l4.3.4 3.2.3 4.2.6 6.1 1.3c.5.1.9.3 1.3.2.1 0 .3 0 .3.2-.6.4-1.3.5-2 .6-1.7.3-3.3.8-4.9 1.3-.4.1-.7.3-1 .7-.3.2-.3.4.1.5l1 .2c2.1 0 4.1 0 6.1-.3l2.9-.2 3.5-.4 3-.3c1 0 1.8-.1 2.7-.3 1-.2 2 0 3 0l4.2.6 3.4.6 3.7.5c1 0 2-.3 2.9-.6l8-2.2 3.3-.9 2 .2c.8 0 1.6.5 2.5.7 1.7.3 3.4.8 5.2 1 .6 0 1-.4 1.6-.4 1.7-.2 3.3-.7 5-1 1.6-.4 3-1 4.3-2 1.5-1.2 3.2-2 4.8-3l2.3-1c.4-.2.7-.2 1.1 0 1.4.5 2.4 1.4 3.5 2.3.3.3.4.5.2 1-.8 2.4-1.8 4.7-3 7l-3 6.7a6 6 0 01-2.2 2.3l-2.7 1.7c-.5.3-.7.8-1 1.2l-1 1.4a7.4 7.4 0 01-3.3 2.6l.8-.9.4-.3c1.4-1 2-2.6 2.8-4.1l1-2c.3-.5.8-.8 1.4-1 .8 0 1.4-.5 1.9-1.1.7-1.1 1.2-2.3 1.7-3.6l2.2-6.3c.7-2-.9-2.6-2.2-2.4-1.3.3-2.3 1-3.3 1.8-1.3 1-2.7 2-4.2 2.7-1 .5-2 .5-3 .8L170 91h-.5a4 4 0 00-1.8.5c-.5.2-.9 0-1.3-.1-2-.6-3.8-1.7-5.9-2.1-.7-.2-1.4-.1-2 0-2.3.7-4.6 1-6.8 1.5l-5 1c-1.6.3-3.2.6-4.8.7-1.2 0-2.4.2-3.6.4h-1.1a38.6 38.6 0 00-9.3.7c-4.4.8-8.7 2-13 3.2l-4 1.1-5.1 1.5c-1.6.4-3.1.8-4.7 1a9 9 0 01-2.5 0c-1.9-.3-3.7-.8-5.5-1.3-1.1-.2-2.2-.6-3.3-1L84 96.8l-3-.9-2.3-.6c-1-.2-1.9-.6-2.8-.7-2.3-.5-4.6-1-6.8-1.3l-2.3-.1a76 76 0 01-6.4-.4l-4-.3-4.8-.8-5.5-1.2-5.9-1.3c-.4 0-.8 0-1.2.2-1.7.7-3.4 1.2-5 2-.7.2-1.4.3-2 0l-2.6-.4-4.4-1c-1.2-.4-2.4-.8-3.7-1-1-.2-1.7-.8-2.5-1.3l-3.8-2.8c-.8-.6-1.8-.4-2.7-.3l-1 .2c-.4.1-.5.4-.4.8a50.3 50.3 0 004.2 11.2c.4.5 1 .9 1.6 1 1 .1 1.6.6 2 1.4.4 1.1 1 2.2 1.6 3.3a7 7 0 002.3 2.7l.7.7c-.6 0-.9-.3-1.2-.6-1.1-.7-2-1.7-2.7-2.8-.9-1.3-2-2.2-3.3-3-1.5-.6-2.6-1.8-3.3-3.4l-3.6-8-1.8-4.2-.2-.8c-.2-.8.3-1.2.8-1.7l2.2-1.5c.8-.6 1.7-.3 2.4.1l3.6 2a33 33 0 013.5 2.2c1 .7 2 1 3.1 1.4 1.6.4 3.1.8 4.7 1 .9.2 1.7.6 2.6.5 1.3 0 2.6-.3 3.8-.6l4-1h2.6l2.8.7 2.7.8 4 1.2c1.2.3 2.3.7 3.6.8l1.4-.2 4.7-.7 6.5-.8c1.5-.2 2.8.1 4.2.3l3 .3 3.4.4 1.8.1 4.4.4h3.7v-.1c.2-.1.6 0 .7-.4 0-.4-.3-.4-.6-.6-.7-.4-1.5-.5-2.3-.8-1.8-.5-3.7-.8-5.6-1.4z" fill="#1e1e1e"/><path class="stl_st7" d="M81.8 59.2c2.3-.6 4.3-1.8 6.5-2.5 1.2-.3 2.5-.5 3.6-1 .3-.3.6-.4 1-.6v-.3c0-.1 0 0-.2 0-2.5-.3-5-.1-7.4.3l-3.5.4-.6.2h-.3c0-.2.1-.2.2-.3l3-1.4c1-.5 2.2-.9 3.3-1.2.4-.1.8-.3 1-.6.3-.2.2-.4 0-.5-1-.3-1.9-.6-2.9-.7-1.8-.2-3.4.5-5 1.3-.1 0-.2.1-.4 0 .2-.3.6-.4.9-.6l2.4-1.5c.9-.5 1.8-.8 2.8-1l1.8-.8c.1-.1.3-.2.3-.4s-.2-.2-.4-.2c-.6-.2-1.3-.2-2-.3h-2.3c-1.3-.2-2.5.2-3.7.5h-.6c-.1-.2 0-.3.1-.3l1.5-1c1-.6 2.2-.9 3.3-1.5l1.1-.7c.1-.2.2-.4 0-.5-1.5 0-2.9-.5-4.3-.5-.5 0-1 0-1.5.3-.3.2-.6.2-.9 0-.5 0-1-.4-1.5-.6-.2 0-.4-.2-.4-.4s.3-.2.4-.3l4.5-2.1 2.3-.8c.3-.1.5 0 .8 0l6.7 1.8c1.9.4 3.8 1 5.8 1 1 0 1.9.2 2.8.1 2.9-.1 5.7-.5 8.5-1.3 2-.7 4-1 6-1.4 1-.2 1.8.1 2.7.5l5 2.3c.2 0 .3 0 .4.3l-.3.2c-.7.6-1.6 1-2.6.6-1.4-.4-2.7 0-4 .2-.6 0-1.1.1-1.6.3-.1 0-.3 0-.4.2 0 .2.2.3.3.4l2.6 1.3c1 .4 2 .8 3 1.5 0 .1.2.2.1.4 0 .1-.3 0-.4 0-1.5-.6-3-.6-4.5-.5-1.1 0-2.2 0-3.3.4-.1 0-.4 0-.4.2s.2.3.3.4c1 .6 2 1 3 1.3 1.2.4 2.2 1 3.2 1.6l1.8 1s.2 0 .2.2c-.4 0-.7-.2-1-.3-1-.5-2.1-1-3.3-1.2a7 7 0 00-4.2.6c-.5.3-.5.6 0 .8a534.2 534.2 0 017 2.9l.3.2c-.2.2-.4.2-.5.1-2-.5-4.2-.6-6.3-1-1.6-.1-3.2-.2-4.8 0l-.2.1-.3.1c0 .2 0 .3.2.3.7.6 1.5.8 2.3 1 2.5.7 5 1.6 7.3 2.5l1.2.3c.1 0 .3 0 .4.3-.6.1-1 0-1.6-.1-1.6-.3-3.3-.6-5-.7-.8-.1-1.8 0-2.7.1l-3.3.6c-.2 0-.3 0-.4.2 0 .3.2.3.3.3l3.5.8 2.8.5c1.2.3 2.3 1 3.3 1.6 0 0 .1.1 0 .2l-.2.1c-.4 0-.8 0-1.2-.2-1.2-.4-2.5-.4-3.7-.7-1.9-.4-3.7-.6-5.6-.5-1.7.1-3.5.3-5.2.2l-4.2-.1c-1.9-.1-3.7.2-5.5.6-1.3.3-2.7.4-4 .6h-.3c0-.2 0-.3.2-.3 1.3-.8 2.6-1.4 4.1-1.7a142.2 142.2 0 005-1c.2-.1.5-.2.4-.5 0-.2-.3-.2-.5-.2-1.6-.3-3.1-.3-4.7-.5-1.8-.2-3.5.2-5.3.4l-1.6.3h-.5z"/><path class="stl_st8" d="M105.9 79.3H91.5c0-.4-.1-.7.2-1 0 0 .1-.4-.1-.3-.5.2-.7-.2-1.1-.2l.8-.4c.1 0 .3-.1.3-.3 0-.2-.2-.2-.3-.2h-1.4a49 49 0 01-4 0v-.2c-.8-.2-.5-.7-.3-1.1.2-.3-.1-1.1-.4-1.4a1 1 0 00-.7-.9h-.3c-.3-.4-1-.5-1.4-.1-.3.2-.5.2-.8 0v-.5c0-.5 0-.6-.5-.4-.4.1-.9 0-1.3-.1l1-.5.5-.5.2-.5c-.1-.3-.4-.2-.6-.2h-1.1c.5-.1 1-.5 1.3-.9.2-.3.4-.5.8-.7.1 0 .3 0 .5-.2.7-.8 1.7-1 2.6-1 1-.2 2-.4 3-.9.4-.2.8-.4 1.3-.3h.3c.2-.6.5-.5 1-.4h.4c.7-.2 1.3-.7 2.1-.7l.2-.3c.5-.1 1 0 1.6 0h9.3c.8 0 1.7-.2 2.5 0 .7.3 1.6.3 2.3.7h1c.6.1 1.2.4 1.7.6l1.3.2c.4 0 .9 0 1.2.4h.2c.7 0 1.4.5 2 .5h.4c1 .9 2.4 1 3.6 1.5l.6.4s0 .1.1 0c.6-.1 1 .4 1.4.5.1 0 .3 0 .3.2.2.3.4.2.7.2h.5c1 .4 1.9.9 2.7 1.4.4.2.1.4 0 .6 0 .3-.3.3-.5.2l-2-1-.3-.2c-1 .2-2-.7-3-.4-.4 0-.8 0-1-.2a1 1 0 00-.6-.2h-2.1c-.4 0-.4.1-.3.4.4.7 1 1 1.8 1.3l1.5.8.4.1c.7-.1 1.3.2 1.9.6.3.3.7.5 1.2.6l1.4.5.2.3c0 .2-.2.2-.3.2-.6 0-1.2.1-1.8-.3-.6-.4-1.3-.6-2-.8-.5-.3-1.2-.1-1.9-.2-.2 0-.5 0-.7-.2a.5.5 0 00-.4-.1h-4.3c-.3 0-.5.2-.6.5-.1.2.1.3.3.5-.1.1 0 .2 0 .4.3.4-.2 1.2-.6 1.3l-2 .2c-.1 0-.3 0-.4.2-.3 0-.6-.3-1-.4-.3 0-.7-.1-.9.3 0 .2-.3.2-.4.2h-.6c-.6 0-.6 0-.4.6-.4.2-.8.5-.9 1 0 .4-.3.5-.7.6 0 0-.2 0-.2.2z"/><path class="stl_st9" d="M84.5 110.9l-3.6-.1c-1-.2-2.3-.2-3.2-1.1-.3-.3-.7-.4-1-.6-1.2-1.4-2.4-2.8-2-4.9l.1-1c0-.3.2-.4.5-.3a35 35 0 005.9 4c1.1.8 2.2 1.7 3.4 2.3l1.4.8c.2 0 .4.2.3.4 0 .3-.2.4-.4.4h-1.5zM124.9 104.4c.3 3.3-2.3 5.3-4.5 6-1.2.4-2.5.6-3.9.5h-2.4c-.7 0-.8 0-.8-.6 0-.1 0-.3.3-.3 2.1-1 4-2.3 6-3.6l3.1-2.2.6-.7c.3-.4.8-.6 1.4-.5.2 0 .2.1.2.3v1z"/><path class="stl_st10" d="M93.7 65c0 .2 0 .4-.2.4-.8 0-1.4.5-2 .6H91c-.4 0-.8-.1-1 .4h-.3c-.5 0-.9.2-1.3.4-1 .5-2 .7-3 .8-1 .1-1.9.3-2.6 1-.1.2-.4.3-.5.3l-.8.7c-.3.4-.8.7-1.3.9-.3.1-.7 0-1 .2l-.1.1c-.5.2-1 0-1.4.1h-.5c-.6.5-1.3.2-1.9.3l-.8.4c-.3.3-.7 0-1 .2-.2 0-.5 0-.7.3h-.2c-.3 0-.8.3-.9-.2 0-.4.4-.3.6-.4l2.6-1c1.2-.4 2.3-1.1 3.6-1.5h.1l.1-.1h.2l.5-.2h.1l.2-.1.1-.1.3-.1h.1l.2-.1.3-.1h.2l.2-.1c1-.5 2-.8 3-1l2-.5c0 .1.1.1.2 0h.1l.2-.1s.1-.1.2 0l.1-.1.5-.1.2-.1 1.1-.3h.5l.3-.1h.2l.2-.1h.3l1.1-.3c0 .1.1 0 .2 0l.4-.1h.2c.5-.3 1-.2 1.6-.2z"/><path class="stl_st11" d="M134.7 120.8c-.3-.3-.4-.6-.2-1l.5-.8c.2-.4.4-.7 0-1.1-.4-.6-.1-1.2 0-1.7.2-.2 0-.6.4-.6v-.1-.3l-.1-.1-.1-.1c0-.1 0-.2-.2-.2l-.1-.1h-.1l-.1-.2-.1-.1-.1-.1-.1-.1-.1-.1-.1-.1-.1-.1-.1-.1-.7-.6c-.3-.5-1-.3-1.2-.8l-.2-.3c0-.1-.1-.2 0-.4 0-.2.2-.1.3-.1h2.5c.3 0 .7 0 .5.5.8-.3 1.6-.1 2.4-.1.4 0 .7.3.7.8 0 .3.2.7-.3.8h-.2c.4.7-.5 1-.3 1.6 0 .3-.3.7-.5 1l-.3.7v.2c-.5 0-.4.4-.4.7v.1c-.7 0-.4.4-.4.7v.1c-.3.4-.4.9-.6 1.3l-.2.4c0 .3-.1.4-.4.4zM64.5 115.3c-.2 0-.5.1-.6-.2-.1-.2-.3 0-.3.1l-.5.7c-.2.2 0 .8.3.9.4 0 .5.3.3.7v.5l-.4-.1c0-.5 0-1-.4-1.5 0-.1 0-.4-.3-.5h-.1c0-.6-.3-1-.5-1.3-.4-.5-.2-1.1-.6-1.6-.3-.3 0-1 .5-1 .9 0 1.8-.2 2.6-.1h.1c.6-.7 1.4-.2 2-.3h.9c.3 0 .4.2.2.4-.5.6-1 1.3-1.7 1.6-.4 0-.5.4-.7.6-.3.2-.5.5-.8.6h-.1v.5zM118 149.8c.3.1.4.3.3.6-.2.5 0 .9.1 1.3.2.4.6.6 1 .5 1-.2 1.4-.6 1.7-1.6a5 5 0 011.1-1.9c.2-.1.3-.3.3-.5.1-.4.6-.4 1-.5 0 .2-.5.3-.1.5-.1.1-.3.2-.2.4 0 .3-.2.5-.4.6-.2 0-.3 0-.3.2-.1.1-.4.3-.2.5 0 .1-.3 0-.2.3-.1.2-.4.2-.2.5h-.1c.3.5-.2.7-.3 1-.4.2-.7.6-.8 1.1v.2c-.5.3-.5.3-.3.5 0 .1-.3 0-.3.3 0 .5-.5.5-.7.9.4.5 0 .7-.3 1.1l-1 1v.2l-.2.4h-.6v-.8s-.1-.2 0-.2c.5-.2.2-.7.2-1v-3.1c0-.2 0-.4.2-.4.5-.2.2-.5.2-.8l.1-1.3z"/><path class="stl_st9" d="M111 76.8c.1-.2.3-.2.5-.2.7 0 1.3 0 2-.2.4 0 .8-.9.6-1.3-.1-.1-.2-.3 0-.4.3 0 .5.3.8.5 1 .4 2 1 3 1.3.7.3 1.3.8 2 .9.9.2 1.6.7 2.6 1 .6 0 1.1.4 1.7.8.1.1.2.2 0 .4-.1.2-.3.3-.4.1-1-.6-2.2-.7-3.3-1.3l-2.2-.8-1.5-.4c-.2 0-.4-.2-.5 0h-.3c-.2-.4-.6-.3-1-.3h-4z"/><path class="stl_st10" d="M85.2 74.2c.3.3.6 1 .4 1.4-.2.4-.5.9.2 1.1v.1h-1.5c-.5.1-1 0-1.4.4h-.5c-.5 0-1 0-1.4.3l-.2.1c-.8-.1-1.4.6-2.1.7-.8.2-1.5.8-2.4.6-.2 0-.4 0-.6.3-.3.2-.9.3-1 0-.2-.1.1-.6.5-.8.3-.2.5-.1.8-.1.5 0 .9-.2 1.3-.3 1-.2 1.7-.7 2.7-1 .8-.2 1.7-.4 2.5-1l.7-.2h.1l.2-.1v-.1-.1-.1c.1-.4.4-.4.7-.4h.1l.6-.2.1-.2h.1v-.4z"/><path class="stl_st9" d="M80.2 72.2c.4.2.8.2 1.3 0 .5-.1.6 0 .5.5v.5c.3.2.5.2.8 0 .3-.4 1-.3 1.4 0-.8.1-1.5.6-2.4.5H81c-.2 0-.4 0-.5.3l-.3.1c-.9-.1-1.7.2-2.5 0h-.1c-.5.6-1.4.3-2 .7-.3.3-.9.2-1.2.5l-.8.4a1 1 0 01-.4.2c-.3 0-.6 0-.7-.2 0-.3.2-.4.3-.5.7-.5 1.4-.9 2.2-1 .5 0 1-.2 1.4-.5.3-.2.5-.3.9-.2.2.1.4 0 .6-.1.8-.4 1.5-1 2.3-1.2zm1.1 1H81l.1.1h.1z"/><path class="stl_st12" d="M92.8 124.5c-.2 0-.4 0-.4-.3 0-.5-.3-.5-.6-.3s-.7.3-1 0h-.3c-1 .3-2 .1-2.9.9-.5.4-1.2.3-1.9.3-.4 0-.8-.3-1.2-.5-.1-.1-.4-.3-.3-.5.2-.3.3-.6.7-.5-.1.3-.6.4-.5.6.2.3.6 0 .9.1.4.2.8.2 1.2 0 .2-.4.7-.4 1-.4.4 0 .5-.4.8-.4.2.1.5.2.7 0h.5c.3-.5.7-.5 1.2-.2-.1-.5.1-.6.5-.6s.8 0 1.2-.3c.4-.2.9 0 1.3 0l-.5.1c0 .4 0 .7.2 1-.2.1-.4.2-.2.5 0 .3-.2.4-.4.5z"/><path class="stl_st10" d="M90.5 77.8c.4 0 .6.4 1.1.2.2 0 .2.2 0 .3-.2.3-.2.6-.1 1-.5.1-1 0-1.5.2h-.1c-.8.2-1.5.1-2.3.2-.3 0-.6 0-.8.2l-.2.1c-1-.1-1.7.7-2.6.6l-.6.3c-.2.1-.5.2-.7 0-.2-.3 0-.5.2-.6.3-.3.6-.4 1-.4s.7 0 1-.2c.2-.2.6-.2 1-.2l.8-.1.1-.1c.8 0 1.5-.6 2.3-.7l.1-.1h.1l.2-.2h.2l.2-.2h.1l.1-.1h.1l.1-.1.2-.1z"/><path class="stl_st11" d="M137.5 130.8c-.7 0-.8-.1-1-.8 0-.8-.7-1.4-1.3-1.9-.1-.3 0-.4.2-.6.5-.6.8-1.3 1.3-1.8.4-.3.4-.4.6 0l.2.7v4.4z"/><path class="stl_st10" d="M105.9 79.3c0-.2.1-.2.2-.2.4 0 .7-.2.8-.7 0-.4.4-.6.8-.9.1.2.3.3.5.3.9 0 1.7.4 2.4.8.3.2.7 0 1 .2l.1.1v.8l-2.4-.1h-.1l-.1-.2h-.1l-3.1-.1z"/><path class="stl_st11" d="M123.7 118.4H121c-.2-.1-.4 0-.6.2-.2.3-.4.7-.8.8l-.1.4c-.3 0-.5-.3-.8-.5l-.8-.6c-.4-.1-.7-.5-.8-1-.1-.1 0-.2.2-.2h3.2c.2 0 .4.1.4.3 0 .2.1.3.3.2.7-.3 1.3 0 2 0 .5-.1.4.2.5.4zM80.3 119.8c0-.5-.3-.8-.9-.8-.4 0-.7-.4-.8-.9l.1-.2v-.1c0-.3.2-.2.4-.3h3.5c.3 0 .3.2.2.3-.6.4-1 1.1-1.7 1.3l-.8.7z"/><path class="stl_st12" d="M65 128.4l-1-.3c-.3 0-.5 0-.7.2a1 1 0 01-1.2 0v-.2s.1-.1 0-.2c.3-.1.3-.3.3-.4-.2-.6 0-1.2 0-1.8 0 0 0-.2.2-.3l.3.2 1 1v.3c0 .7.8 1 1.1 1.5z"/><path class="stl_st11" d="M81 155v-.4c-.3-.4-.1-.8 0-1.2.4-.9.7-1.8.8-2.7 0-.6 0-1.3-.4-1.8-.3-.4 0-.9.6-1v6.9l-1 .2z"/><path class="stl_st12" d="M72.2 116c-.5 0-.9-.3-1.2-.5-.5-.3-1-.2-1.3.1-.1.2-.3.3-.5.2-.2 0-.2-.2-.2-.5 0-.6.4-.6.9-.5h.9c.1.2.2 0 .3-.1.2-.6.7-.4 1-.4.5 0 .8.1 1 .4.1.1.1.3 0 .4l-1 1zM110.2 123.5l-1.2.2c-.8 0-1.5.4-1.8 1.2-.5-.3-.5-.9-.8-1.2.2-.3 0-.4-.2-.5-.1-.2 0-.3.2-.3h.5c.3 0 .6-.1.6-.5.2.3.3.4.7.3.4 0 .8 0 .8.5 0 .1 0 0 0 0l.3-.1h.4c.1 0 .2 0 .3.2v.1l.2.1z"/><path class="stl_st9" d="M111.7 79.7l.1-.8c.3.1.5.1.8 0 .7 0 1.1.4 1.7.7.6.2 1.1.6 1.7.9.2.1.3.2 0 .4s-.6.3-1 0c-.2 0-.4-.2-.6-.4-.4-.4-.7-.5-1.2-.3-.3 0-.5 0-.7-.2-.3-.2-.5-.3-.8-.3z"/><path class="stl_st12" d="M116.6 121.4a1 1 0 01-1.3.3c-.3-.2-.5 0-.7.1l-1 .8-1-1 .1-.2v-.4c.3 0 .6 0 .6-.4.4.2.8 0 1.2.1l.6.1h.1l.1.2.1.1H116c0 .1.1.1.2 0l.4.3zM130 114.7c0 .4-.2.3-.4.3-.4 0-.7 0-1 .4-.2.4-.8.3-1.1.6-.5-.3-.8-.8-.9-1.3 0-.2 0-.3.3-.3h1.3c.5.7 1.2.3 1.8.3zm-2.4 1c0-.3.1-.6-.2-.8h-.2c0 .3 0 .6.3.7h.1zM70 143.6c.1-.1.1-.3 0-.4-.7-.4-.1-1 0-1.3l.3-.6c.6 0 .5.5.5 1v1.3c0 .1 0 .1-.2 0 0 0-.1.1 0 .2-.2 0-.4 0-.5-.2z"/><path class="stl_st13" d="M103.5 161.4c-.1-.3.2-.3.3-.5.4-1 1-2 1.7-2.9l1-1.3.2-.1v.2c-.2.3-.4.6-.8.7 0 0-.1.1 0 .2.3.6-.4.6-.6 1 0 0-.4 0-.2.4.1.2 0 .4-.3.4l-.3.1c.4.5.4.5-.5.8 0 .2.5.1.3.4-.2.3-.4.6-.8.6z"/><path class="stl_st11" d="M134.8 116.1c-.5.5-1 .7-1.7.4-.2 0-.4-.2-.4-.5 0-.2 0-.4.3-.4h1.3c.5-.2.4.2.5.5z"/><path class="stl_st12" d="M81 155c.3 0 .7 0 1-.2 0 .2-.2.4 0 .5v.4c0 .3-.3.5.3.5.2 0 0 .4.1.6-.2.2-.4-.2-.6 0l-.2-.3s.1-.2 0-.2c-.4 0-.6-.2-.8-.4 0-.2.2-.3 0-.5v-.1l-.2-.2.4-.1z"/><path class="stl_st11" d="M132.8 115.4c-.2 0-.3.2-.4.4a1 1 0 01-.9.4c-.8 0-.9-.2-.7-.9.6-.3 1.1 0 1.7-.1.2 0 .3 0 .3.2z"/><path class="stl_st13" d="M96 161.3c1 1.3 2 2.7 3.7 3.2-.3 0-.8.4-.9-.3-.9.1-1-.7-1.6-1l-.8-.8c-.3-.3-.4-.7-.3-1z"/><path class="stl_st2" d="M86.8 122c-.2-.1-.2-.3-.2-.5 0-.1.1-.2.3-.2h.3l.2-.3c0-.2-.2-.2-.3-.2-.3 0-.7.2-.7-.3.5-.3 1-.1 1.5 0 .3 0 .3.2.2.3-.4.4-.7.9-1.3 1.1z"/><path class="stl_st13" d="M110.1 159.8c.5-.4 1-.9 1.5-1.1l.3-.3c.4-.5 1-.8 1.3-1.4l.3-.1-.1.4c-.5.5-1 1.2-1.5 1.5-.5.3-1 .5-1.3 1h-.5z"/><path class="stl_st2" d="M112.7 121.4v.1c-.5 0-1.1-.4-1.2-.8l.1-.3c.5 0 1-.1 1.6 0v.2c.1.4-.2.4-.4.4 0 0 0-.2-.2-.2-.1-.1-.3-.2-.3 0l.2.1c0 .1 0 .3.2.5z"/><path class="stl_st13" d="M99.8 164.5c.3-.4.8-.2 1.2-.5 1-.6 1.7-1.4 2.3-2.2.4 0 .3.2.1.3-.6.7-1.2 1.4-1.9 1.9-.4.3-1 .9-1.7.5z"/><path class="stl_st1" d="M107.5 122.4c0 .4-.3.5-.6.5h-.6c-.2 0-.2 0 0 .3 0 .1.3.2.1.5l-.7-.7a.5.5 0 01-.1-.5c0-.2.3 0 .4-.1h1.5z"/><path class="stl_st13" d="M90 160.2c.4 0 .8.2 1.2.4.3.4.6.5 1 0 .3.2.2.4.2.6 0 .2-.3.2-.4.2-.5.1-.8-.2-1-.5-.2-.3-.3-.4-.6-.3-.3 0-.4-.1-.4-.4zM108.1 160.9c.6-.2 1-.7 1.5-.8l.4-.2c-.1.4-.4.6-.7.6-.4 0-.6.4-.9.7-.2.2-.4.4-.8.2 0-.3.2-.3.3-.4l.2-.1zM107.2 155.5c.4-.7.6-1.5 1.4-2 .3 0 .4-.1.4.2-.6 0-.7.6-1.1.7v.1c.3.8-.5.7-.7 1z"/><path class="stl_st1" d="M93.4 123.5c-.2-.3-.2-.7-.2-1 0-.2.4 0 .5-.1.3 0 .4.3.2.6l-.5.5z"/><path class="stl_st13" d="M81.6 156.5c0 .1 0 .2.2.3 0 .3.5.2.6.4v.4c0 .3-.2.3-.3.1l-.8-.8v-.3l.3-.1zM123.3 148.2c-.3-.2.2-.3 0-.5.3-.5.6-1 1-1.3.3.5-.3.7-.5 1-.2.2-.4.2-.3.6 0 0 0 .2-.2.2zM132.2 126.4l.5-1.1c0-.3.2-.3.4-.3.1.3 0 .5-.3.5-.2 0-.4 0-.2.3.3.5.2.6-.4.6z"/><path class="stl_st1" d="M128.8 142.8c.2 0 .4.1.3.5 0 .2-.1.5.2.6-.1.2-.2.3-.5.4l-.1-.2v-.1-.4c.1 0 0 0 0-.1v-.2-.1-.3-.1z"/><path class="stl_st12" d="M108 161c-.3 0-.4.1-.4.4v-.9c0-.3.2-.3.5-.3.3.2 0 .5 0 .7l-.2.1z"/><path class="stl_st1" d="M80.6 155.1l.1.2.1.1c.2.2 0 .3 0 .5-.4-.2-.7-.5-.8-1 .3-.1.4 0 .6.2z"/><path d="M70.6 143.6h.3c.4 0 .4.2.3.4 0 .3-.4.2-.6.2-.2 0-.3-.2 0-.4h-.1s.2 0 .1-.2z" fill="#fefefe"/><path class="stl_st1" d="M91.3 160.4c.2-.2.2-.5.6-.5l.1.4v.3c-.3 0-.5 0-.7-.2z"/><path class="stl_st13" d="M117.2 157.3h.7c.1.5-.2.6-.4.6-.4 0-.3-.4-.3-.6z"/><path class="stl_st11" d="M131.3 128.9c.2-.3 0-.8.6-.8.3.6-.2.6-.6.8z"/><path class="stl_st13" d="M120.7 152.8c0-.5.3-.9.8-1.1 0 .6-.5.8-.8 1zM134.5 139.7c.4-.2.7-.5 1.1-.6l-.5.6c-.2.2-.4.2-.6 0zM118.1 157v-.3l1-1c-.1.7-.7.9-1 1.3zM114.3 155.2c-.2-.4 0-.6.2-1 .4.6.4.6-.2.8v.2zM78.8 120.8c.3-.3.6-.7 1.1-.6-.3.3-.6.6-1.1.6zM115 152.8c.2-.3 0-.8.4-.8.3.5.3.6-.4.8z"/><path class="stl_st7" d="M91.3 160.4c.2.3.4.2.7.2h.2v.1c-.4.4-.7.3-1-.1l.1-.2z"/><path class="stl_st13" d="M119.4 154.7c.1-.4.7-.4.7-.9.1 0 .3 0 .2.2-.2.3-.3.8-.9.7zM114.6 153.9c0-.3.1-.6.4-.7.3.5.3.6-.4.7zM61.9 135.5c.3.2.2.5.1.8-.4-.2-.5-.5-.1-.8z"/><path class="stl_st11" d="M134.3 121.6c-.5-.5.1-.5.3-.6.2.3.2.6-.3.6z"/><path class="stl_st13" d="M128.2 138c.2-.4.5-.6 1-.8-.4.3-.4.8-1 .8zM127.4 139.5l.2-.5c.2 0 .4 0 .4.3-.1.3-.4.2-.6.2zM113.8 156c.1-.3 0-.7.5-.7.1.4-.1.6-.5.6zM127.8 138.8l.2-.6c.2 0 .4 0 .4.3-.1.3-.4.3-.6.3zM115.8 150.3c.1-.2.1-.4.4-.5.2 0 .2.3.1.4 0 .2-.3.2-.5.1z"/><path class="stl_st1" d="M91.5 159.4c-.2-.1-.3-.4-.3-.7.5 0 .5 0 .3.7z"/><path class="stl_st13" d="M87 157.8c.2.1.5.2.6.5l-.5-.1-.3-.1c0-.2 0-.3.2-.3zM78.4 121.5h-.3c.2-.2.4-.5.7-.5 0 .3 0 .6-.4.5zM116.2 149.5c.1-.3.2-.6.6-.5.1.6-.3.5-.6.5zM115.4 151.5c.1-.2.1-.6.5-.6.1.6.1.6-.5.6zM125.9 142.8c-.2-.3 0-.4.2-.6.2 0 .2.1.2.3 0 .2-.2.3-.4.3zM121.8 150.7c-.2-.3.2-.3.3-.5.2 0 .2 0 .2.2 0 .3-.3.3-.5.3zM122.3 150c-.2-.4 0-.5.2-.6h.2c0 .3 0 .5-.4.5zM85.6 155.9c.4.1.4.4.4.8-.5-.1-.4-.5-.4-.8zM125.4 143.5l.3-.5c.1 0 .2 0 .2.2l-.1.3h-.4zM120.4 153.5c-.3-.2-.3-.2.2-.5.2.3.2.3-.2.5zM124.2 146c0-.4.2-.6.5-.6v.2c0 .3-.2.4-.5.3zM126.3 142c0-.4.2-.5.4-.6 0 .3 0 .6-.4.5z"/><path class="stl_st7" d="M82.4 157.2c-.1-.2-.5-.1-.6-.4.2-.2.4.2.6 0v.4z"/><path class="stl_st5" d="M89 123.5h-.7c.2 0 .5-.2.7 0zM86.5 124.3a2 2 0 01-1.2 0h1.2z"/><path class="stl_st13" d="M125.3 144h.1v-.1h.1l-.2.1zM89.7 160.1s0-.2.1-.1c.2 0 .2 0 .2.2l-.3-.1z"/><path class="stl_st5" d="M133.7 115.5h-.5.5zM122.7 149.3l-.2.1c0-.1 0-.2.2-.2v.2z"/><path class="stl_st7" d="M80 52.5h-.1z"/><path class="stl_st8" d="M77.2 71h.5-.5z"/><path class="stl_st5" d="M64.5 114.9h-.2v-.2l.2.1v.1zM135 114.8c.1 0 .2 0 .2.2-.1 0-.2 0-.2-.2z"/><path class="stl_st11" d="M119.6 120h.3-.3z"/><path class="stl_st5" d="M62.2 127.8l-.1.3v-.3zM134.3 115.5h-.3.3zM109.7 123h-.4.4z"/><path class="stl_st8" d="M86.3 66.6H86h.3zM89.5 65.8h-.3.3z"/><path class="stl_st5" d="M116.2 121.1c0 .1-.2 0-.2 0h.2z"/><path class="stl_st8" d="M90.5 77.8c0 .1-.1.1-.2 0h.2zM89.7 78.2l-.2.1s.1-.1.2 0zM91.5 65.4c0 .1-.1.1-.2 0h.2zM80.1 68.4c0 .1-.1.1-.2 0h.2zM87.6 66.2l-.2.1s.1-.1.2 0z"/><path class="stl_st5" d="M106.7 156.8v-.2c.1 0 .1.1 0 .2z"/><path class="stl_st8" d="M86.6 80l.2-.1-.2.1zM79.1 70.9l.1-.2-.1.2zM80.7 68.2c0 .1-.1.1-.2 0h.2zM81.1 68.1h-.3.3zM85 74.6l-.1.2.1-.2zM90.2 65.6h-.3.3zM84.3 75h-.1.1zM85 74.5h.1z"/><path class="stl_st9" d="M83.5 75.4v.1zM83.5 75.6zM83.3 75.8z"/><path class="stl_st5" d="M124.7 145.6v-.1.1zM128.7 144v0z"/><path class="stl_st13" d="M125.3 143.6z"/><path class="stl_st5" d="M128.7 143.5c.1 0 .1 0 0 0zM128.7 143.2v0zM128.8 142.8v0z"/><path class="stl_st8" d="M90.2 78h-.1.1zM90 78l-.1.1h.1z"/><path class="stl_st9" d="M84.4 73.3z"/><path class="stl_st5" d="M115.7 121.1h-.1.1z"/><path class="stl_st8" d="M89.3 78.4h-.1.1zM89.2 78.5H89h.2z"/><path class="stl_st9" d="M111.7 78.9zM86.8 79.3h-.1z"/><path class="stl_st8" d="M109 79.3h0z"/><path class="stl_st13" d="M127.3 139.8z"/><path class="stl_st8" d="M89.9 79.6v-.1s0 .1 0 0zM109.2 79.5z"/><path class="stl_st13" d="M127.7 138.8zM129.1 137.2l.2-.1-.2.1z"/><path class="stl_st8" d="M78.6 69h-.1.1zM78.9 68.8h-.2.2zM79.5 68.6h-.1.1zM79.8 68.5h-.1.1zM80.4 68.3h-.2.2z"/><path class="stl_st12" d="M81.4 156.6z"/><path class="stl_st5" d="M134 113.8h0zM134.1 113.9h0zM134.2 114h.1zM134.3 114.1h.1z"/><path class="stl_st8" d="M86.6 66.5h-.2.2zM86.9 66.4h-.1.1z"/><path class="stl_st5" d="M134.4 114.2h.1z"/><path class="stl_st8" d="M88.8 66z"/><path class="stl_st11" d="M137.5 131v-.1z"/><path class="stl_st5" d="M134.5 114.3h.1z"/><path class="stl_st8" d="M90 65.7h-.3.2z"/><path class="stl_st5" d="M134.6 114.4v0z"/><path class="stl_st7" d="M92 160.4v-.1z"/><path class="stl_st5" d="M134.7 114.5v0zM134.9 114.7v.1z"/><path class="stl_st8" d="M92.1 65.2H92h.1z"/><path class="stl_st5" d="M135.2 115v.1zM135.3 115.1v.1zM135.5 115.5h-.1.1zM78.7 117.8v0z"/><path class="stl_st11" d="M78.3 118z"/><path class="stl_st5" d="M110.1 123.4zM115.2 120.9h-.1c0-.1.1 0 .1 0zM115.4 121.1h-.1zM123.3 118h-.1.1z"/><path d="M79.6 138.4v.1c-.5.2-.3.7-.4 1 0 .5-.4.6-.7.8-.2.2-.3-.2-.5-.3-.2-.2-.4-.4-.4-.7 0-.2-.2-.4-.4-.5-.4-.2-.4-.5-.4-.8l-.1-.4c-.3 0-.3-.2-.3-.5 0-.1 0-.3-.2-.4h-.1c0-.6-.6-.9-.5-1.5.1-.4-.4-.4-.4-.7 0-.2.1-.4-.2-.5H75h-.2c-.1-.1 0-.3 0-.4 0-.3.3-.7-.2-.9a2 2 0 00-.4-1c-.1-.2-.3-.3-.4 0-.2.2-.5.3-.5.7 0 .6-.5.2-.8.3-.3 0-.4-.2-.4-.4 0-.3 0-.7-.3-.9-.1 0 0-.2 0-.4l-.1-4.7v-.3c.6-.3.5-.8.4-1.3 0-.3.1-.4.4-.4.4 0 .9 0 .9.6l.1.2c.6.3.6 1 1 1.4v.3c0 .5.2.9.6 1l.2.5c0 .2 0 .5.3.5.2 0 .1.2.1.3 0 .4-.1.7.4 1 .1.3 0 .5.3.7.3.1.4 0 .4-.6 0-.3 0-.6.4-.7v-.5-.2c.5 0 .7-.5 1-.8.2-.2.8-.2 1 0l1.7 1.8 1.5 1.9.4.3h.2c-.3.6.3.8.4 1.1.1.5.5 1 1 1.2 0 0 .3 0 .2.1-.1 1 .7 1.2 1 1.7l.1.1c0 .4.4.5.5.9h.2c.2-.3.6-.6.5-1 0-.2-.2-.6.3-.6l.1-.3c0-.5 0-1 .3-1.3 0 0 .1 0 0-.1 0-.4.2-.7.5-.8.3-.3.3-.6.4-1 .5-.7 1.4-.7 2 0 .2.3.4.7.7.8l.1.1c0 .4.2.5.3.7l1.3 2c.3.5.4 1.2 1 1.5l.2.3c.1.5.4 1 .8 1.5l.2.1.1.2c.1.1.2.4.4.3.2 0 0-.3 0-.5.4-.3.6-.7.4-1.3.7-.1.4-.6.4-1 .6 0 .5-.2.5-.5s.4-.3.3-.7v-.3l.1-.4c.4 0 .4-.2.4-.5l.2-.4c.2-.3.2-.8.6-1 0-.2-.3-.4 0-.5.5-.3 1-.7 1.2-1.3.6.1.8.6 1.1 1 .5.4.6 1.1 1 1.6l.5 1.1c.2.4.6.8.6 1.3v.2c.6 0 .3.5.4.8 0 .2 0 .4.2.4.2.1.1.3.2.4 0 .2 0 .4.2.5.3 0 .1.3.2.5 0 .2 0 .6.3.6.2 0 .5 0 .5-.4.2 0 .3-.2.4-.4-.2-.5 0-.7.4-1 .3-.2.4-.6.4-1 .3 0 .5 0 .3-.4v-.3c.6-.2.8-.5.9-1 0-.2.1-.2.2-.3.3-.2.6-.5.6-.9 0-.2.2-.3.3-.4l.4-.4c-.1-.6.4-.7.7-1l.1-.1c.2-.3.3-.6.7-.4.2.1.5 0 .7.3l.8 1.2c.2.3.1.9.6 1.1v.5c0 .3 0 .6.5.6.2 0 0 .2 0 .3-.1.7 0 .8.5.8l.3.2c-.2 0-.4.1-.4.4 0 .2 0 .2.3.2.2 0 .4 0 .4-.3v-.2c.3-.2.5-.5.5-.8 0-.3.3-.3.4-.5.6-.4.7-1.2 1.2-1.6.7-.5.8-1.4 1.5-1.9 0-.6.4-.8.8-1.2l1-1c.4-.3.3-.8.7-1 .4-.3.8-.7 1.3-.7.6 0 1 .4 1 1 0 .3 0 .6.4.7v.3c.1.2 0 .5.2.7l.2.3c0 .1.1.3.3.2.2 0 .1-.2.1-.3.1-.2 0-.5.3-.5l.1-.2c0-.5.2-.9.5-1.3l.6-1.3c.3-.3.3-.8.4-1.2 0-.1 0-.2.2-.3.2-.1.4-.2.4-.6 0-.2.3-.3.5-.5 0-.2.2-.3.3-.5.1-.2.4 0 .5 0 .3 0 .2.1.2.3v.4c0 .3 0 .5.4.4.2 0 .2.1.2.2v6c-.1.1 0 .3-.2.3-.3 0-.3.1-.3.4 0 .1 0 .3-.2.4l-.5-.1-.9-1s-.1-.2-.3-.2c-.2.1-.1.3-.2.4 0 .5-.4.8-.6 1.2l-.2.5c0 .3.1.6-.3.8v.3l-.1.4c-.5.1-.2.6-.4.8-.2.4-.2 1-.6 1.2l-.2.3c-.2.5-.3 1-.6 1.4-.2.3-.2.7-.6 1h-.1c-.3.2-.4.7-.8.5-.4-.1-.6-.5-.7-.9v-.6c.1-.4 0-.5-.4-.4l-.1-.2.1-.4v-1.3c0-.4-.4-.3-.5-.2-.4.5-1.1.6-1 1.4l-.2.2c-.5.4-1 .8-1 1.5-.7.5-1.4 1-1.7 1.8-.2.5-.6.7-.9 1l-.8.8-.1.1c-.2 1-1.3 1-1.7 1.7-.2.3-.5.4-.9 0-.3-.2-.7-.3-.9-.8 0-.3-.3-.4-.2-.7 0-.5 0-1-.5-1.2v-.3c.3-.5 0-1 0-1.4v-.5a.5.5 0 00-.6.1c-.2.2-.6.3-.5.8l-.2.3c-.3.3-.3.8-.6 1.1 0 .1-.1.4-.3.5-.3.3-.7.5-.5 1-.3.3-.8.5-.8 1.1 0 .2-.3.3-.5.4l-.9 1c-.6.6-1 .6-1.7 0-.3-.3-.5-.5-1-.4.1-.5-.2-1-.8-1.2v-.5c0-.4-.5 0-.5-.4 0-.1.3-.4.1-.6-.1-.2-.3-.2-.5-.3v-.4c.1-.3.4-.7 0-.9-.4-.3-.6.2-.9.5v1c-.2.2-.7 0-.5.4.2.6 0 .8-.4 1l-.1.1c-.4.4-.3 1-.8 1.3h-.1c-.2.1-.2.2-.3.4-.3 0-.6.1-.9.4-.2.2-.5 0-.7 0-.4-.3-.8-.6-1-1-.3-.6-.7-1-1.2-1.4h-.1c.2-.6-.4-.7-.4-1.2v-.1c-.8-.6-.8-1.8-1.8-2.1.2-.3.3-.6.1-.8-.2-.2-.5 0-.8.1-.4.5-.2 1.1-.2 1.7v1.1c-.4.1-.6.4-.5.8 0 .1 0 .2-.2.2 0 0-.2 0-.2.2.2.4-.3.6-.4 1-.1 0-.8 0-1-.2l-3-2.8-.2-.3c-.2 0-.3-.1-.2-.3l-.1-.3c-.6-.4-1-1-1.3-1.5-.4-.8-1.2-1.2-1.4-2-.1-.3-.4-.5-.6-.7-.2-.3-.6-.3-.7-.7h-.5c-.2 0-.1.1-.1.3v1.8z" fill="#010101"/><path class="stl_st12" d="M97.5 145.8c.5-.3.4-1 .8-1.2v-.1c.5-.2.7-.5.5-1-.1-.4.3-.3.5-.5.3.2.7.4.9-.2l.5.3c.2.3-.1.5-.1.7 0 .2.5-.1.6.3v.5c-.4 0-.7 0-1-.2-.2-.3-.4-.1-.7.1-.6.6-1.1 1.2-1.9 1.5v-.2z"/><path class="stl_st11" d="M128 131.7v-5.8-.2c.3 0 .5.1.5.4.1 1.3.3 2.5.2 3.8l-.2 1.4c0 .3-.2.4-.5.4z"/><path class="stl_st12" d="M117.1 139.4c.1-.7.6-1.1 1.1-1.6l.2-.1c-.1-.8.7-1 1-1.4.1-.1.5-.2.5.2v1.3l-.1.4c-1 0-1.7.4-2.3 1.1-.1.2-.2 0-.4.1zM106.8 143.7c-.2-.5.2-.7.5-1 .2-.1.2-.4.3-.5.3-.3.4-.8.6-1l.2-.4c-.1-.4.3-.6.5-.8.1-.1.3-.2.5 0 .2 0 .2.2.2.4 0 .4.2 1-.2 1.4l.1.3c-.4-.2-1-.2-1.4.3l-1 1.1s-.1.2-.3.2zm2-2.2c.2 0 .2-.2.2-.3 0-.2.4-.4.1-.6-.3-.1-.2.4-.5.5 0 0-.1.1 0 .2l.2.2z"/><path class="stl_st11" d="M79.6 138.4v-1.8c0-.1 0-.3.2-.4.2 0 .4 0 .5.2.1.3.5.4.7.6-.5.4-.8 1-1.2 1.4-.1.2-.1 0-.2 0z"/><path class="stl_st12" d="M73.2 132.4c0-.4.3-.5.5-.8 0-.2.3-.1.4 0 .3.4.3.7.4 1.1l-.2.2h-.6c-.4.1-.4-.3-.5-.5z"/><path class="stl_st1" d="M90 141.8c0-.6-.1-1.1.4-1.6.2-.3.5-.4.7-.2.2.2.2.6-.1.8-.4-.3-.5-.2-.5.3 0 .3-.2.5-.4.7z"/><path class="stl_st13" d="M86.8 136.1c0 .4-.3.7-.5 1h-.2c0-.4-.5-.5-.5-.9l.2.2c.3.2.5.3.6 0 .1-.2.3-.2.4-.3z"/><path class="stl_st11" d="M99.6 131.1c-.2.6-.7 1-1.2 1.3.1-.6.8-1.2 1.2-1.3z"/><path class="stl_st13" d="M114 136.6v.2c-.1.2-.3.3-.5.3s-.3 0-.3-.2c0-.3.2-.4.4-.4l.4.1zM76.7 130.2c0 .5-.1.7-.4.6-.3-.2-.2-.4-.2-.6.2-.2.4 0 .6 0zM123.5 130.7l-.1.4c-.2 0-.3 0-.3-.2l-.2-.3c0-.1 0-.4.1-.3.3 0 .5.2.5.4zM104.8 139c0 .4-.3.5-.5.5-.4 0-.3-.4-.3-.6l.8.2z"/><path class="stl_st1" d="M74.3 132.9l.2-.2c.5.2.3.6.2.9-.4-.1-.4-.4-.4-.7z"/><path class="stl_st12" d="M119.9 138.4c.3-.1.5 0 .5.4v.6c0-.4-.5-.6-.5-1z"/><path class="stl_st1" d="M113.3 136.3c-.5 0-.6 0-.5-.8.5.1.3.6.5.8z"/><path class="stl_st13" d="M95.6 139c0 .2.1.4-.1.5-.2 0-.3-.2-.4-.3l-.1-.2c.2-.2.4 0 .6 0z"/><path class="stl_st1" d="M75 134c.4 0 .2.3.2.5-.4 0-.4-.3-.5-.5H75z"/><path class="stl_st13" d="M96.8 136.2c0 .3 0 .6-.4.5 0-.3 0-.5.4-.5z"/><path class="stl_st12" d="M97.1 146.2l.3-.3.2.1c-.1.4-.2.4-.5.2z"/><path class="stl_st13" d="M106.3 136.3c.2.3 0 .4-.3.4 0-.2 0-.4.3-.4zM105.2 138.7c0 .2-.2.3-.4.3 0-.3.3-.2.4-.3z"/><path class="stl_st1" d="M90.2 142.6l-.1-.5c.2.1 0 .3.1.5z"/><path class="stl_st8" d="M81.3 73.2v.1H81l.1-.2.1.1z"/><path class="stl_st5" d="M109 123.2s0 .1 0 0z"/><path class="stl_st7" d="M112.6 120.8l.2.2-.1.4c-.2-.2-.1-.4-.2-.5l.1-.1z"/><path class="stl_st5" d="M127.6 115.6h-.1c-.2-.1-.3-.4-.3-.6h.2c.3 0 .1.4.2.6z"/><path class="stl_st3" d="M70.6 143.6c.1.2 0 .2-.1.2l.1-.2z"/><path class="stl_st5" d="M80.8 155.4l-.1-.1h.1z"/><path class="stl_st12" d="M112.6 120.8l-.1.1c-.1 0-.3 0-.2-.1 0-.2.2-.1.3 0z"/><path class="stl_st5" d="M108 161l.1-.1-.2.1z"/><path class="stl_st2" d="M100.2 142.8c-.2.6-.6.4-1 .2v-.3c.2-.2.1-.5.1-.7.3-.3.5-.7 1-.5.3.2 0 .6 0 1v.3z"/><path class="stl_st12" d="M99.3 142v.7-.7z"/><path class="stl_st5" d="M97.6 146h-.2l.1-.2.1.2zM75 134H75h.1zM108.8 141.5l-.2-.2c-.1 0 0-.2 0-.2.3-.1.2-.6.5-.4.3.1-.2.3-.1.5 0 .1 0 .3-.2.3z"/></svg>