<?xml version="1.0" encoding="utf-8"?>
<!-- Generator: Adobe Illustrator 24.1.0, SVG Export Plug-In . SVG Version: 6.00 Build 0)  -->
<svg version="1.1" id="Layer_1" xmlns="http://www.w3.org/2000/svg" xmlns:xlink="http://www.w3.org/1999/xlink" x="0px" y="0px"
	 viewBox="0 0 200 200" style="enable-background:new 0 0 200 200;" xml:space="preserve">
<path style="fill:#F0A701;" d="M61.288,70.158c0.334-0.327,0.427-0.799,0.747-1.155c0.586-0.652,1.324-1.048,2.064-1.459
	c0.331-0.103,0.656-0.232,0.993-0.302c0.404-0.083,0.56-0.308,0.394-0.668c-0.47-1.015-0.054-1.873,0.39-2.761
	c0.28-0.56,0.638-1.09,0.648-1.783c0.007-0.493,0.259-0.964,0.616-1.347c0.286-0.307,0.521-0.645,0.583-1.076
	c0.098-0.687,0.565-1.224,0.76-1.872c0.723-0.928,1.25-1.954,1.639-3.067c0.159-0.455,0.376-0.91,0.743-1.276
	c0.241-0.239,0.369-0.559,0.46-0.912c0.195-0.752,0.531-1.45,0.981-2.098c0.381-0.548,0.256-1.16,0.058-1.746
	c-0.338-1-0.803-1.974-0.996-3.001c-0.135-0.713-0.447-1.376-0.504-2.105c-0.027-0.346-0.364-0.564-0.522-0.874
	c-0.368-0.722-0.191-1.497,0.355-2.225c0.595-0.793,1.545-1.066,2.362-1.532c0.877-0.5,1.828-0.834,2.663-1.455
	c0.814-0.606,1.792-1.007,2.784-1.326c1.019-0.328,2.06-0.594,3.043-1.027c0.484-0.213,1.014-0.189,1.516-0.336
	c0.82-0.24,1.558-0.663,2.356-0.946c0.222-0.079,0.442-0.089,0.666-0.083c0.766,0.021,1.504-0.015,2.238-0.335
	c0.521-0.227,1.134-0.051,1.706-0.073c0.396-0.015,0.781,0.005,1.156-0.21c0.451-0.259,0.974-0.209,1.479-0.205
	c0.654,0.005,1.305,0.054,1.93-0.264c0.352-0.18,0.765-0.155,1.175-0.111c0.76,0.082,1.524,0.078,2.247-0.247
	c0.362-0.162,0.748-0.124,1.13-0.131c1.067-0.019,2.151,0.139,3.173-0.353c0.188-0.091,0.444-0.057,0.668-0.057
	c2.296-0.003,4.592,0.009,6.889-0.008c0.637-0.005,1.241,0.051,1.811,0.366c0.865,0.477,1.835,0.638,2.769,0.92
	c1.3,0.393,2.614,0.759,3.85,1.377c0.777,0.389,1.651,0.626,2.496,0.855c1.093,0.296,2.054,0.909,3.149,1.175
	c0.743,0.181,1.418,0.526,2.109,0.844c1.633,0.752,2.66,3.016,2.078,4.686c-0.066,0.19-0.088,0.368,0.016,0.55
	c0.214,0.374,0.184,0.789,0.087,1.166c-0.155,0.602-0.4,1.181-0.596,1.773c-0.076,0.229-0.181,0.472-0.169,0.702
	c0.048,0.886-0.389,1.639-0.625,2.446c-0.179,0.611-0.201,1.157,0.106,1.785c0.46,0.94,1.001,1.844,1.345,2.845
	c0.204,0.594,0.61,1.105,0.898,1.671c0.303,0.594,0.655,1.176,0.869,1.8c0.185,0.54,0.52,0.973,0.777,1.457
	c0.261,0.492,0.479,0.998,0.607,1.533c0.098,0.408,0.344,0.703,0.577,1.025c0.498,0.69,0.911,1.429,1.047,2.282
	c0.04,0.253,0.132,0.455,0.264,0.662c0.56,0.877,0.806,1.791,0.353,2.805c-0.227,0.507-0.111,0.712,0.458,0.829
	c1.561,0.322,2.733,1.263,3.654,2.472c0.527,0.691,0.754,1.613,0.87,2.474c0.098,0.728,0.437,1.297,0.791,1.869
	c0.224,0.362,0.539,0.678,0.692,1.081c0.375,0.986,1.194,1.602,1.889,2.32c0.338,0.349,0.7,0.673,1.051,1.009
	c0.313,0.756,0.81,1.385,1.361,1.976c0.824,0.433,1.674,0.793,2.619,0.829c0.677,0.026,1.357-0.011,2.035,0.011
	c0.493,0.016,0.94-0.104,1.409-0.252c0.799-0.253,1.645-0.356,2.451-0.592c1.157-0.34,2.351-0.549,3.475-0.994
	c0.267-0.106,0.526-0.158,0.808-0.157c1.165,0.005,2.339-0.084,3.493,0.028c1.052,0.101,2.086,0.386,3.143,0.522
	c0.554,0.071,1.079,0.35,1.671,0.236c0.145-0.028,0.324,0.003,0.459,0.067c0.989,0.463,2.039,0.289,3.069,0.313
	c0.626,0.014,1.257-0.045,1.877,0.014c0.829,0.079,1.484-0.284,2.171-0.652c1.112-0.594,2.308-0.982,3.506-1.376
	c1.208-0.397,2.451-0.714,3.579-1.336c0.719-0.397,1.467-0.738,2.216-1.077c0.889-0.402,1.724-0.921,2.607-1.338
	c1.14-0.538,2.305-1.035,3.513-1.39c0.792-0.233,1.526,0.155,2.228,0.496c1.032,0.501,2.057,1.015,3.081,1.532
	c0.812,0.411,1.542,0.954,2.288,1.469c0.253,0.175,0.47,0.372,0.779,0.485c0.383,0.14,0.525,0.568,0.744,0.895
	c0.105,0.19,0.191,0.394,0.396,0.506c0.22,0.242,0.484,0.445,0.655,0.731c0.002,0.31,0.213,0.546,0.296,0.828
	c0.117,0.762,0.127,1.524-0.007,2.285c-0.264,0.551-0.399,1.127-0.384,1.742c0.011,0.449-0.247,0.826-0.411,1.218
	c-0.501,1.203-1.018,2.402-1.601,3.565c-0.19,0.379-0.3,0.81-0.593,1.137c-0.087,0.097-0.126,0.213-0.115,0.336
	c0.055,0.638-0.218,1.213-0.503,1.721c-0.443,0.791-0.666,1.661-1.052,2.464c-0.564,1.173-0.849,2.467-1.572,3.569
	c-0.154,0.234-0.151,0.526-0.245,0.787c-0.157,0.434-0.437,0.777-0.648,1.165c-0.741,1.359-1.955,2.277-3.011,3.334
	c-0.487,0.487-1.144,0.811-1.746,1.173c-0.284,0.171-0.547,0.36-0.794,0.576c-0.282,0.246-0.484,0.596-0.913,0.649
	c-0.081,0.01-0.195,0.124-0.216,0.209c-0.14,0.57-0.616,0.872-0.987,1.25c-0.998,1.019-2.039,1.997-3.012,3.039
	c-0.502,0.537-1.097,0.814-1.776,1.001c-0.631,0.174-1.303,0.263-1.897,0.452c-1.13,0.36-2.344,0.154-3.426,0.658
	c-0.211,0.098-0.459,0.165-0.423,0.447c0.04,0.312,0.323,0.172,0.507,0.212c0.747,0.613,1.613,1.054,2.384,1.623
	c1.008,0.744,1.714,1.713,1.002,3.183c-0.308,0.635-0.93,0.79-1.505,1.021c-0.366-0.066-0.66,0.163-0.991,0.238
	c-1.045,0.237-2.068,0.535-3.08,0.889c-0.376,0.131-0.811,0.083-1.173-0.095c-0.4-0.197-0.883-0.188-1.225-0.525
	c-0.119-0.117-0.301-0.113-0.426,0.015c-0.14,0.144,0.001,0.244,0.085,0.351c0.658,0.842,0.719,1.809,0.16,2.684
	c-0.082,0.129-0.195,0.271-0.328,0.33c-0.879,0.392-1.56,1.112-2.484,1.439c-0.824,0.292-1.594,0.243-2.435,0.032
	c-0.761-0.19-1.505-0.462-2.293-0.568c-0.624-0.084-1.223-0.319-1.792-0.589c-0.34-0.161-0.798-0.088-1.02-0.509
	c-0.037-0.07-0.199-0.008-0.266,0.086c-0.084,0.117-0.072,0.261,0.045,0.32c0.275,0.139,0.413,0.487,0.771,0.495
	c0.176,0.004,0.26,0.158,0.377,0.257c0.316,0.269,0.544,0.636,0.93,0.826c0.884,0.45,1.502,1.253,2.381,1.743
	c0.542,0.302,1.085,0.689,1.602,1.077c0.62,0.466,1.251,0.929,1.975,1.234c0.97,0.587,2.002,1.104,2.763,1.964
	c0.857,0.969,0.804,2.423-0.079,3.301c-0.394,0.392-0.945,0.554-1.52,0.572c-0.449,0.014-0.902-0.061-1.348,0.066
	c-0.341,0.097-0.399,0.26-0.13,0.498c0.5,0.444,0.919,0.952,1.546,1.286c0.728,0.388,1.175,1.121,1.352,1.949
	c0.124,0.577-0.598,1.642-1.109,1.921c-1.039,0.568-2.008,0.197-2.94-0.193c-1.416-0.592-2.877-1.05-4.309-1.589
	c-1.121-0.422-2.28-0.771-3.329-1.379c-0.233-0.135-0.52-0.187-0.804-0.176c0,0-0.001,0.001-0.001,0.001
	c-0.513-0.203-1.046-0.348-1.605-0.57c0.005,0.323,0.297,0.45,0.337,0.695c0.633,1.181,1.822,1.725,2.824,2.488
	c0.455,0.347,0.959,0.618,1.412,0.955c0.854,0.635,0.923,2.214,0.18,3.021c-0.234,0.254-0.502,0.477-0.754,0.714
	c-0.878,0.245-1.722,0.553-2.535,0.986c-1.115,0.594-2.273,0.85-3.525,0.257c-0.721-0.341-1.337-0.785-1.98-1.243
	c-0.767-0.546-1.426-1.235-2.278-1.684c-0.489-0.258-0.935-0.636-1.42-0.931c-0.111-0.068-0.182-0.237-0.35-0.142
	c-0.147,0.083-0.216,0.22-0.217,0.39c-0.001,0.487,0.006,0.974-0.004,1.46c-0.035,1.707-0.868,2.275-2.459,2.471
	c-1.574,0.194-2.959-0.469-4.379-0.933c-0.601-0.197-1.045-0.146-1.436,0.305c-0.624,0.719-1.517,0.99-2.312,1.423
	c-0.165,0.09-0.349,0.154-0.498,0.27c-0.688,0.539-1.417,1.012-2.182,1.436c-0.219,0.121-0.461,0.329-0.538,0.55
	c-0.202,0.581-0.645,0.948-1.068,1.319c-0.52,0.457-0.679,1.143-1.173,1.621c-1.512,1.462-2.987,2.962-4.479,4.446
	c-0.186,0.185-0.368,0.369-0.467,0.617c-0.824,1.189-1.874,2.183-2.963,3.1c-0.657,0.553-1.27,1.19-1.982,1.641
	c-0.554,0.351-1.028,0.836-1.674,1.071c-0.495,0.18-0.812,0.673-1.325,0.891c-0.326,0.139-0.645,0.313-0.986,0.419
	c-0.887,0.274-1.735,0.648-2.707,0.656c-0.527,0.004-1.065,0.289-1.573,0.505c-0.401,0.17-0.801,0.218-1.219,0.192
	c-0.425-0.026-0.832,0.023-1.213,0.221c-0.318,0.166-0.653,0.21-1.008,0.198c-0.712-0.023-1.351,0.296-1.977,0.551
	c-0.506,0.206-0.995,0.47-1.527,0.609c-0.458,0.119-0.841,0.37-1.237,0.606c-0.466,0.209-0.95,0.302-1.464,0.299
	c-2.223-0.01-4.447-0.007-6.67-0.003c-0.901,0.001-1.791,0.024-2.651-0.371c-0.768-0.352-1.676-0.333-2.433-0.681
	c-1.358-0.624-2.834-0.663-4.224-1.058c-1.086-0.308-2.209-0.22-3.291-0.606c-0.786-0.28-1.661-0.377-2.367-0.854
	c-0.639-0.431-1.37-0.742-1.897-1.326c-0.518-0.575-1.327-0.746-1.817-1.351c-0.21-0.374-0.585-0.493-0.956-0.62
	c-1.524-1.462-3.017-2.955-4.479-4.479c-0.131-0.406-0.4-0.71-0.699-1.006c-1.762-1.749-3.515-3.508-5.269-5.265
	c-0.134-0.134-0.255-0.282-0.382-0.423c-0.03-0.551-0.385-0.872-0.823-1.113c-0.134-0.073-0.302-0.102-0.406-0.219
	c-0.821-0.921-1.968-1.315-3.016-1.868c-0.207-0.109-0.373-0.267-0.506-0.443c-0.441-0.58-1.166-0.716-1.721-1.117
	c-0.101-0.073-0.341-0.07-0.449,0.001c-0.476,0.316-1.033,0.415-1.556,0.559c-1.398,0.385-2.801,0.391-4.172-0.187
	c-0.559-0.235-1.176-1.812-0.855-2.494c0.188-0.399,0.379-0.82,0.331-1.295c-0.019-0.187-0.064-0.352-0.238-0.431
	c-0.171-0.078-0.322,0.037-0.409,0.153c-0.573,0.767-1.469,1.136-2.168,1.754c-0.523,0.463-1.13,0.893-1.795,1.195
	c-0.267,0.121-0.492,0.32-0.701,0.534c-1.016,1.043-2.233,1.21-3.578,0.808c-1.362-0.407-2.585-1.125-3.875-1.689
	c-1.182-0.517-1.519-2.053-0.788-3.144c0.302-0.451,0.813-0.574,1.256-0.785c0.203-0.097,0.392-0.2,0.579-0.322
	c0.998-0.651,1.959-1.346,2.739-2.261c0.101-0.119,0.221-0.225,0.305-0.354c0.128-0.195,0.352-0.402,0.132-0.647
	c-0.207-0.229-0.398-0.004-0.602,0.072c-1.225,0.457-2.472,0.879-3.671,1.38c-1.397,0.583-2.865,0.965-4.24,1.616
	c-0.779,0.369-1.612,0.761-2.53,0.694c-1.595-0.116-2.07-0.604-2.382-1.857c-0.159-0.639,0.177-1.263,0.612-1.749
	c0.427-0.477,0.874-0.942,1.387-1.337c0.137-0.106,0.381-0.214,0.285-0.441c-0.089-0.209-0.326-0.244-0.541-0.238
	c-0.663,0.017-1.329,0.036-1.924-0.32c-1.284-0.77-2.034-2.286-0.76-3.685c0.332-0.365,0.795-0.538,1.109-0.905
	c0.787-0.143,1.269-0.817,1.966-1.122c1.135-0.497,1.958-1.455,3-2.085c1.22-0.738,2.257-1.736,3.52-2.408
	c0.225-0.12,0.408-0.317,0.614-0.474c0.135-0.103,0.25-0.233,0.148-0.393c-0.115-0.18-0.34-0.145-0.465-0.047
	c-0.418,0.328-0.937,0.423-1.391,0.663c-0.486-0.009-0.963,0.006-1.409,0.252c-0.278,0.153-0.593,0.182-0.912,0.172
	c-0.311-0.01-0.596,0.042-0.899,0.18c-0.861,0.392-1.705,0.232-2.553-0.154c-0.989-0.45-1.811-1.06-2.335-2.027
	c-0.38-0.703-0.422-1.414-0.041-2.134c0.08-0.15,0.187-0.322,0.017-0.475c-0.18-0.162-0.298,0.012-0.449,0.093
	c-0.834,0.451-1.65,0.631-2.616,0.234c-0.583-0.239-1.277-0.272-1.887-0.516c-0.772-0.308-1.607-0.371-2.385-0.644
	c-1.042-0.365-1.515-1.482-1.148-2.515c0.205-0.579,0.559-0.902,1.077-1.232c0.631-0.403,1.312-0.757,1.876-1.278
	c0.272-0.251,0.684-0.31,0.968-0.569c0.101-0.092,0.256-0.171,0.228-0.324c-0.034-0.182-0.224-0.175-0.367-0.231
	c-1.079-0.417-2.263-0.349-3.354-0.768c-0.537-0.206-1.244,0.042-1.758-0.331c-0.956-0.694-2.269-0.957-2.934-1.936
	c-0.821-1.209-1.922-2.132-2.818-3.25c-0.054-0.067-0.105-0.174-0.173-0.188c-0.796-0.159-1.251-0.907-1.998-1.147
	c-0.063-0.02-0.128-0.062-0.173-0.11c-0.902-0.959-2.089-1.566-3-2.539c-1.34-1.431-2.467-2.929-3.037-4.849
	c-0.45-1.515-1.171-2.941-1.648-4.459c-0.258-0.822-0.703-1.599-1.153-2.342c-0.523-0.862-0.676-1.853-1.091-2.747
	c-0.237-0.511-0.69-0.922-0.746-1.516c-0.118-1.23-0.763-2.316-0.939-3.535c-0.085-0.59-0.392-1.134-0.343-1.769
	c0.072-0.935,0.447-1.746,1.028-2.43c0.628-0.74,1.313-1.452,2.067-2.059c0.725-0.585,1.497-1.125,2.38-1.497
	c0.837-0.352,1.615-0.84,2.447-1.208c0.63-0.278,1.302-0.462,1.956-0.685c0.29-0.099,0.582-0.095,0.869,0.009
	c1.147,0.413,2.33,0.729,3.375,1.404c0.383,0.247,0.878,0.282,1.315,0.453c0.903,0.353,1.725,0.871,2.568,1.317
	c0.885,0.469,1.805,1.018,2.433,1.879c0.061,0.084,0.127,0.166,0.172,0.258c0.23,0.469,0.489,0.549,0.974,0.407
	c1.21-0.355,2.39-0.26,3.513,0.337c0.771,0.41,1.419,1.023,2.225,1.37c0.449,0.193,0.967,0.25,1.419,0.194
	c1.009-0.124,2.012-0.038,3.017-0.077c0.278-0.011,0.533-0.038,0.798-0.173c0.319-0.162,0.675-0.274,1.055-0.242
	c0.369,0.032,0.706-0.08,1.06-0.189c0.786-0.243,1.621-0.339,2.394-0.614c1.403-0.499,2.845-0.284,4.272-0.374
	c0.999-0.062,1.85,0.367,2.752,0.641c0.129,0.039,0.249,0.124,0.391,0.118c1.055-0.043,1.957,0.532,2.94,0.723
	c0.825,0.16,1.6,0.559,2.467,0.524c0.573-0.023,1.154-0.059,1.72,0.008c0.982,0.117,1.825-0.235,2.669-0.641
	c0.17-0.082,0.287-0.186,0.329-0.371c0.076-0.331,0.26-0.598,0.496-0.836c1.058-1.067,1.811-2.402,2.98-3.373
	c0.527-0.438,0.707-1.098,1.02-1.672c0.247-0.453,0.422-0.944,0.75-1.357c0.1-0.126,0.156-0.322,0.155-0.486
	c-0.002-0.758,0.247-1.421,0.681-2.031C61.275,70.456,61.262,70.293,61.288,70.158z"/>
<path d="M41.378,113.109c-1.536,0.088-2.897,0.926-4.266,1.509c-0.803,0.512-1.782,0.51-2.593,1.031
	c-1.855,0.93-4.067,1.461-5.802,2.609c-0.139,0.13-0.381,0.215-0.443,0.032c-0.644-0.965-2.109-0.19-2.95-1.054
	c-0.288-0.307-2.03,0.253-1.423-0.458c1.08-0.468,1.73-1.331,2.777-1.676c1.467-1.161,3.153-1.986,4.709-3.02
	c0.87-0.63-0.388-1.513-0.636-0.401c-0.612-1.226-2.183-0.138-3.198-0.909c-0.538-0.507-1.711,0.292-2.241-0.307
	c-0.522-0.516-1.546,0.308-2.055-0.473c-0.164-0.26-0.765-0.11-1.148-0.045c-0.802,0.235-0.916-0.647-1.532-0.837
	c-0.613-0.308-1.346-0.434-1.637-1.235c-0.717-1.183-2.161-1.891-2.707-3.247c-0.123-0.263-0.35-0.34-0.607-0.295
	c-0.738,0.171-0.837-0.79-1.57-0.853c-2.164-1.473-4.248-3.225-5.395-5.693c-0.367-1.828-1.296-3.439-1.796-5.249
	c-1.067-1.896-1.706-4.132-2.719-5.979c-0.616-0.438,0.024-1.419-0.71-1.853c-0.274-0.87-0.402-1.875-0.741-2.763
	c-0.666-1.446,1.423-2.594,2.193-3.616c1.494-0.988,3.269-1.958,5.023-2.659c0.656,0.293,0.773-0.91,1.335-0.322
	c0.21,0.242,0.468,0.348,0.783,0.339c0.89,0.151,1.674,0.729,2.421,1.133c1.762,0.276,3.39,1.504,4.862,2.512
	c0.729,0.491,0.208,1.91,1.364,1.883c0.581-0.154,1.624,0.35,1.911-0.316c1.467-0.61,2.457,0.379,3.552,1.122
	c0.601,0.129,1.027,0.645,1.582,0.786c0.493,0.018,0.994-0.07,1.416,0.343c0.138,0.135,0.472,0.188,0.574-0.177
	c1.043-0.467,2.637-0.002,3.819-0.207c0.525-0.965,1.657,0.102,2.163-0.653c0.446-0.503,1.344,0.281,1.799-0.491
	c0.383-0.33,1.17,0.306,1.467-0.319c1.042-0.276,2.33-0.002,3.456-0.089c0.338-0.096,0.439,0.239,0.677,0.36
	c0.793-0.102,1.414,0.649,2.242,0.429c0.296-0.078,0.675-0.117,0.836,0.307c0.728-0.02,1.32,0.598,2.084,0.496
	c0.249-0.058,0.517-0.04,0.685,0.238c1.566,0.384,3.413,0.024,5.07,0.15c0.446,0.123,0.45-0.479,0.872-0.41
	c0.453,0.017,0.401-0.589,1.017-0.406c1.305,0.147,0.513-1.133,1.243-1.664c0.416-0.371,0.884-0.792,1.25-1.213
	c0.127-1.242,1.607-1.755,2.308-2.694c0.284-0.244-0.153-0.74,0.343-0.798c0.128-0.011,0.175-0.111,0.17-0.223
	c-0.012-0.253-0.029-0.493,0.317-0.545c0.04-0.006,0.1-0.155,0.084-0.222c0.12-1.324,1.114-0.331,0.8-2.578
	c-0.116-0.411,0.497-0.325,0.414-0.703c-0.109-0.375,0.203-0.422,0.39-0.671c0.547-1.532,2.851-2.156,4.216-2.277
	c1.244-0.336,0.225-1.563,0.193-2.294c-0.046-0.485-0.869-0.793-0.167-1.228c0.347-0.222-0.074-0.761,0.507-0.873
	c0.113-0.027,0.039-0.22,0.034-0.338c-0.07-0.755,0.744-0.079,0.462-1.201c-0.018-0.371,0.042-0.674,0.351-0.914
	c0.527-0.586,0.645-1.438,0.882-2.055c0.52-0.619,0.566-1.524,1.19-2.026c0.434-0.172,0.237-0.634,0.374-0.927
	c0.642-0.1,0.234-0.677,0.374-1.018c0.548-0.285,0.398-1.075,0.975-1.334c0.164-0.074,0.205-0.222,0.188-0.393
	c-0.025-0.254-0.026-0.495,0.314-0.545c0.035-0.005,0.086-0.076,0.085-0.116c-0.128-1.055,0.993-1.795,1.285-2.674
	c-0.111-0.92,0.366-2.08-0.307-2.816c-0.332-0.302,0.103-0.934-0.416-1.151c-0.017-0.738-0.685-1.486-0.557-2.292
	c0.079-0.533-0.905-0.812-0.148-1.296c0.838-0.715-0.954-0.71-0.914-1.321c0.795-0.944,2.472-1.387,3.595-2.027
	c1.122-0.674,2.322-1.439,3.579-1.777c0.506-0.432,1.27-0.12,1.64-0.735c0.77,0.211,1.303-0.617,2.069-0.466
	c0.24,0.047,0.531,0.077,0.663-0.256c0.501-0.249,1.109,0.094,1.62-0.511c0.975-0.904,2.437,0.2,3.215-0.697
	c0.048-0.156,0.246-0.081,0.377-0.083c0.89-0.202,2.199,0.404,2.814-0.344c0.655-0.166,1.545-0.011,2.268-0.085
	c0.819,0.197,0.717-0.362,1.303-0.364c1.021-0.204,2.417,0.361,3.211-0.325c1.206-0.319,2.932,0.362,3.988-0.398
	c2.291-0.13,4.657,0.011,6.969-0.083c3.495,0.706,6.804,2.198,10.207,3.289c2.177,1.027,5.052,1.31,6.599,3.306
	c0.466,0.732-0.925,1.597-0.137,2.268c0.695,0.618-0.391,0.979-0.176,1.66c0.019,0.253,0.112,0.518-0.297,0.571
	c-0.596,0.434,0.329,1.675-0.44,1.996c-0.412,1.575-1.123,3.307,0.052,4.815c0.848,1.742,1.684,3.381,2.583,5.081
	c0.398,0.449,0.478,1.074,0.582,1.644c0.618,0.357,0.709,1.116,1.087,1.633c0.071,1.466,1.664,2.171,1.614,3.67
	c-0.173,0.933,1.524,1.306,0.533,2.288c-0.176,0.601-0.068,1.197-0.711,1.549c-1.124,1.339,1.73,0.786,2.304,1.538
	c4.221,0.516,2.679,4.465,5.026,6.671c0.918,2.471,3.921,3.63,4.422,6.337c0.075,0.562,1.005,0.05,1.284,0.273
	c0.644,0.383,1.368,0.546,2.029,0.782c1.942,0.044,3.881,0.011,5.688-0.404c0.573,0.134,0.687-0.608,1.273-0.43
	c0.389-0.039,0.817,0.164,1.115-0.322c0.357-0.325,1.235,0.286,1.508-0.357c0.348-0.366,1.016,0.231,1.253-0.445
	c0.014-0.036,0.16-0.029,0.245-0.029c1.282,0.187,3.008-0.402,4.038,0.258c0.057,0.202,0.251,0.145,0.4,0.147
	c0.642,0.139,1.593-0.317,1.998,0.291c0.424,0.284,1.154,0.007,1.677,0.08c0.286-0.004,0.594-0.086,0.711,0.327
	c0.052,0.183,0.267,0.118,0.417,0.118c2.064-0.239,4.576,0.445,6.397-0.298c1.825-0.756,3.823-1.767,5.692-2.132
	c0.222,0.053,0.322-0.294,0.455-0.355c0.926,0.024,1.758-0.553,2.496-0.978c1.265-0.655,2.625-1.219,3.906-1.919
	c0.411-0.092,0.956-0.309,1.241-0.717c0.676,0.089,1.235-0.307,1.794-0.562c0.266-0.44,0.675-0.288,0.955-0.118
	c2.4,1.503,8.89,3.574,7.465,7.082c-0.289,2.453-1.504,4.624-2.546,6.88c-0.984,3.108-2.784,6.069-3.57,9.143
	c-1.393,2.668-4.11,4.184-6.393,5.911c-0.458-0.011-0.648,0.306-0.756,0.661c-1.002,1.624-2.705,2.779-3.954,4.235
	c-0.329,0.555-1.052-0.008-1.352,0.539c-0.304,0.377-0.912,0.068-1.338,0.142c-0.138-0.002-0.337-0.041-0.405,0.032
	c-0.592,0.638-1.363,0.226-2.035,0.369c-0.229,0.049-0.488-0.033-0.628,0.255c-0.427,0.262-1.122,0.033-1.632,0.126
	c-0.299,0.012-0.629-0.074-0.816,0.297c-0.066,0.132-0.255,0.071-0.391,0.075c-0.875,0.101-3.95-0.408-2.31,1.22
	c1.031,0.318,1.756,1.084,2.681,1.553c0.886,0.716,1.962,1.095,2.887,1.788c0.455,0.464,1.472,0.711,1.641,1.323
	c-0.832,0.441-2.051,0.313-2.949,0.842c-0.387,0.118-0.886-0.14-1.112,0.348c-0.401,0.7-0.771-0.597-1.332-0.295
	c-14.027-6-17.343-8.043-2.76,3.173c0.232,0.218,0.322,0.408-0.114,0.451c-0.683,0.312-1.298,0.866-1.998,1.222
	c-0.123,0.112-0.414,0.073-0.539-0.065c-0.488-0.611-1.205-0.142-1.746-0.424c-0.29-0.421-0.721-0.374-1.132-0.336
	c-0.471,0.161-0.596-0.36-0.996-0.407c-2.685-0.823-5.117-1.959-7.691-3.098c-2.296-0.601-1.4,0.197-0.577,1.384
	c1.311,2.111,3.263,3.671,5.155,5.175c2.482,2.034,4.944,3.678,7.645,5.422c0.735,0.151,1.207,0.846,1.835,1.167
	c0.41,0.1,0.908,0.489,0.808,0.935c-0.685,0.572-1.988-0.261-2.637,0.5c-6.125-0.101-1.053,2.546,0.68,4.758
	c0.371,0.349,1.232,0.272,1.084,0.877c-0.155,0.198-0.41,0.154-0.553-0.016c-0.73-0.464-1.714-0.593-2.439-1.138
	c-3.286-0.574-6.109-2.661-9.374-3.234c-0.705-0.153-4.192-2.515-3.522-0.24c0.969,3.212,3.449,5.84,6.225,7.523
	c0.174,0.552,1.341,0.175,0.786,0.741c-1.547,0.391-2.968,1.948-4.589,1.473c-2.508-1.735-4.905-3.587-7.381-5.364
	c-1.519-1.207-1.682,3.376-1.547,4.204c0.4,1.829-0.46,1.2-1.882,1.268c-0.125-0.002-0.249-0.014-0.321-0.132
	c-0.289-0.496-0.889-0.166-1.294-0.442c-2.63-1.713-3.548,0.438-5.783,1.387c-1.139,0.413-1.964,1.503-3.07,1.968
	c-2.008,1.704-3.344,4.444-5.56,6.188c-3.065,3.15-5.704,6.413-9.523,8.685c-0.467,0.494-1.181,0.724-1.883,0.751
	c-0.884,0.676-1.469,0.01-2.771,0.715c-0.138,0.003-0.334-0.03-0.404,0.046c-0.541,0.587-1.235,0.308-1.867,0.355
	c-0.582-0.15-0.812,0.55-1.367,0.421c-2.089-0.017-3.995,1.366-5.976,1.977c-3.477-0.177-7.137,0.566-10.271-0.809
	c-1.677-0.06-1.501-1.047-3.598-0.814c-0.419-0.613-1.041-0.301-1.577-0.355c-0.254-0.025-0.52,0.058-0.65-0.276
	c-0.067-0.173-0.261-0.142-0.416-0.141c-0.632-0.128-1.607,0.339-1.99-0.288c-0.034-0.106-0.154-0.139-0.263-0.132
	c-2.182,0.075-4.14-2.142-5.786-3.419c-1.846-0.966-3.165-2.562-4.42-4.11c-1.857-2.8-5.55-4.636-6.726-7.639
	c-0.319-0.619-1.649-0.674-2.04-1.435c-1.074-0.912-2.525-1.164-3.514-2.235c-0.447-0.546-1.435-0.465-1.785-1.132
	c-1.008-1.018-3.208,1.375-5.415,0.874c-0.401,0.126-0.709-0.384-0.289-0.651c0.46-0.662,0.083-1.687,0.207-2.48
	c0.115-0.419-0.428-0.52-0.357-0.921c-0.091-0.794-0.541-2.231-1.583-1.366c-2.024,2.089-4.73,3.206-6.858,5.19
	c-0.459,0.539-1.234,0.197-1.703-0.193c-1.039,0.019-1.795-0.658-2.654-1.075c-0.248-0.12-0.717,0.068-0.725-0.327
	c-0.007-0.318,0.427-0.175,0.653-0.268c0.747-0.309,1.357-0.848,2.012-1.284c1.334-0.407,7.417-9.218,2.854-7.003
	c-3.408,0.988-6.684,2.614-10.052,3.681c-0.627,0.089-1.142,0.712-1.803,0.761c-0.324-0.077-0.488,0.272-0.728,0.397
	c-0.32,0.006-0.752,0.182-0.924-0.107c-0.154-0.26,0.268-0.417,0.454-0.599c1.02-1.264,6.121-4.663,1.629-4.504
	c-1.64,0.03-0.174-0.736-2.635-0.42c-1.833-0.338-0.567-1.086,0.495-1.554c0.705-0.424,1.319-0.976,2.119-1.244
	c3.943-3.29,9.377-5.777,11.871-10.42c0.023-0.445,0.965-0.142,0.739-0.869c-0.433-1.167-4.316,1.211-5.278,1.6
	c-2.005,0.806-4.033,1.421-5.978,2.129c-0.644,0.039-1.304-0.075-1.89,0.36c-0.197,0.146-0.459,0.046-0.713-0.12
	c-0.898-0.747-2.825-1.266-0.703-2.153C35.554,117.905,39.436,115.876,41.378,113.109z"/>
<path style="fill:#1D1D1D;" d="M23.329,105.854c-0.731-0.344-1.383-0.746-1.963-1.256c-0.879-0.773-1.594-1.704-2.221-2.671
	c-0.773-1.192-1.91-1.85-3.081-2.514c-1.112-0.631-2.126-1.387-2.7-2.576c-0.573-1.187-1.103-2.395-1.654-3.593
	c-0.729-1.587-1.455-3.176-2.192-4.759c-0.708-1.521-1.328-3.077-1.939-4.639C7.18,82.824,7.152,82,8.2,81.278
	c0.87-0.599,1.693-1.258,2.67-1.68c0.287-0.124,0.56-0.184,0.893-0.036c2.846,1.257,5.549,2.77,8.093,4.557
	c0.926,0.651,1.945,1.027,3.019,1.335c1.413,0.405,2.844,0.749,4.284,1.001c1.086,0.19,2.132,0.707,3.25,0.585
	c1.181-0.128,2.366-0.274,3.522-0.588c1.366-0.372,2.744-0.704,4.116-1.055c0.184-0.047,0.375-0.083,0.549-0.156
	c0.474-0.2,0.91-0.177,1.403,0.019c1.096,0.435,2.319,0.428,3.415,0.855c1.587,0.619,3.26,0.91,4.883,1.391
	c1.388,0.411,2.758,0.88,4.182,1.179c0.96,0.202,1.885,0.153,2.832,0.003c1.738-0.276,3.478-0.536,5.219-0.791
	c1.417-0.208,2.833-0.43,4.256-0.588c1.628-0.18,3.248-0.341,4.898,0.004c1.261,0.264,2.559,0.382,3.852,0.487
	c1.634,0.133,3.26,0.396,4.896,0.478c1.402,0.071,2.781,0.347,4.187,0.353c1.04,0.004,2.077,0.16,3.119,0.096
	c0.501-0.031,1.004-0.073,1.467-0.287c0.439-0.202,0.454-0.382,0.061-0.648c-0.882-0.596-1.917-0.781-2.918-1.039
	c-1.691-0.436-3.391-0.838-5.088-1.253c-0.097-0.024-0.215-0.001-0.27-0.193c1.803-0.212,3.531-0.748,5.306-1.071
	c1.512-0.275,3.012-0.615,4.527-0.869c1.054-0.177,2.124-0.262,3.188-0.378c1.27-0.138,2.542-0.262,3.812-0.4
	c0.551-0.06,1.103-0.028,1.659-0.099c1.515-0.193,3.031-0.133,4.556,0.044c1.044,0.121,2.105,0.138,3.155,0.247
	c1.099,0.114,2.194,0.266,3.293,0.369c1.843,0.171,3.655,0.53,5.468,0.885c1.271,0.249,2.532,0.55,3.8,0.819
	c0.77,0.163,1.543,0.311,2.363,0.475c-0.451,0.443-1.012,0.456-1.519,0.551c-1.773,0.331-3.498,0.843-5.228,1.338
	c-0.469,0.134-0.912,0.334-1.251,0.713c-0.321,0.358-0.293,0.521,0.187,0.624c0.453,0.097,0.923,0.165,1.386,0.165
	c2.252,0,4.494-0.154,6.736-0.378c1.271-0.127,2.547-0.225,3.82-0.348c1.168-0.113,2.331-0.275,3.499-0.387
	c2.083-0.2,4.155-0.632,6.259-0.431c1.305,0.125,2.602,0.34,3.899,0.535c1.723,0.259,3.442,0.543,5.164,0.807
	c0.887,0.136,1.777,0.244,2.664,0.387c0.634,0.102,1.263-0.16,1.882-0.307c2.695-0.638,5.319-1.533,8.009-2.199
	c1.488-0.368,2.931-0.904,4.452-1.175c0.631-0.113,1.157,0.128,1.71,0.24c1.57,0.318,3.112,0.769,4.679,1.104
	c1.028,0.22,2.079,0.331,3.12,0.487c0.212,0.032,0.411-0.044,0.613-0.092c1.915-0.457,3.865-0.748,5.776-1.229
	c1.643-0.414,3.182-0.98,4.557-2.023c1.307-0.991,2.742-1.806,4.19-2.583c1.054-0.566,2.088-1.176,3.228-1.568
	c0.145-0.05,0.27-0.14,0.444-0.072c1.577,0.622,2.937,1.555,4.073,2.815c0.153,0.17,0.098,0.341,0.042,0.534
	c-0.318,1.085-0.795,2.108-1.222,3.149c-1.434,3.493-3.171,6.849-4.655,10.319c-0.488,1.14-1.293,1.988-2.311,2.658
	c-0.796,0.524-1.58,1.062-2.435,1.496c-0.482,0.244-0.833,0.659-1.163,1.096c-0.75,0.993-1.363,2.098-2.301,2.941
	c-0.584,0.525-1.193,1.027-2.041,1.361c0.232-0.495,0.569-0.782,0.898-1.018c1.298-0.93,2.013-2.27,2.64-3.663
	c0.431-0.959,0.887-1.898,1.451-2.786c0.184-0.29,0.438-0.505,0.734-0.539c1.714-0.196,2.572-1.382,3.214-2.776
	c1.328-2.883,2.35-5.882,3.227-8.929c0.29-1.007-0.385-1.832-1.434-1.912c-1.526-0.117-2.684,0.635-3.809,1.51
	c-1.49,1.16-3.015,2.263-4.738,3.068c-0.502,0.234-1.033,0.266-1.55,0.395c-1.476,0.369-2.947,0.759-4.425,1.118
	c-0.808,0.196-1.618,0.384-2.398,0.673c-0.586,0.217-1.205,0.067-1.8,0.216c-0.272,0.068-0.517,0.195-0.787,0.257
	c-0.427,0.097-0.815,0.072-1.257-0.062c-2.105-0.636-4.019-1.802-6.205-2.21c-0.501-0.094-0.968-0.007-1.437,0.096
	c-1.368,0.301-2.721,0.672-4.096,0.933c-3.647,0.692-7.262,1.554-10.93,2.135c-0.953,0.151-1.931,0.142-2.894,0.235
	c-1.117,0.108-2.23,0.246-3.345,0.372c-0.086,0.01-0.172,0.042-0.256,0.037c-1.113-0.066-2.216,0.126-3.328,0.112
	c-2.45-0.031-4.854,0.363-7.26,0.775c-2.325,0.398-4.582,1.054-6.86,1.635c-3.69,0.941-7.341,2.022-11.009,3.042
	c-2.615,0.727-5.235,1.444-7.908,1.926c-0.999,0.18-2.01-0.037-2.99-0.238c-3.85-0.788-7.613-1.914-11.392-2.977
	c-2.714-0.763-5.455-1.436-8.166-2.205c-2.302-0.653-4.64-1.08-6.98-1.515c-1.632-0.303-3.285-0.44-4.954-0.465
	c-1.987-0.03-3.974-0.155-5.953-0.383c-1.304-0.151-2.62-0.199-3.926-0.337c-1.529-0.161-3.041-0.452-4.544-0.772
	c-3.057-0.651-6.104-1.347-9.162-1.996c-0.726-0.154-1.459-0.277-2.185-0.437c-0.531-0.117-1.074-0.009-1.583,0.19
	c-1.58,0.618-3.243,1.027-4.752,1.826c-1.033,0.547-2.052,0.193-3.083,0.011c-2.78-0.489-5.487-1.273-8.207-2.005
	c-0.466-0.126-0.945-0.206-1.419-0.303c-1.177-0.24-2.119-0.96-3.047-1.63c-0.95-0.686-1.94-1.321-2.852-2.057
	c-0.723-0.584-1.505-0.925-2.434-0.849c-0.62,0.051-1.233,0.158-1.819,0.394c-0.338,0.136-0.42,0.316-0.346,0.682
	c0.426,2.097,1.144,4.098,1.907,6.089c0.584,1.524,1.18,3.04,1.934,4.49c0.464,0.894,1.122,1.56,2.149,1.698
	c0.904,0.122,1.399,0.669,1.768,1.422c0.602,1.228,1.209,2.454,1.821,3.676c0.554,1.107,1.541,1.814,2.439,2.601
	C23.164,105.513,23.359,105.557,23.329,105.854z"/>
<path style="fill:#202020;" d="M80.97,55.584c0.737-0.391,1.45-0.813,2.195-1.156c1.415-0.652,2.857-1.248,4.379-1.629
	c0.32-0.08,0.619-0.294,0.874-0.543c0.255-0.248,0.207-0.446-0.087-0.549c-0.865-0.302-1.736-0.558-2.66-0.674
	c-2.11-0.265-3.893,0.562-5.649,1.54c-0.042,0.024-0.098,0.023-0.208,0.046c0.054-0.228,0.203-0.325,0.352-0.419
	c2.061-1.306,4.094-2.659,6.507-3.274c0.495-0.126,0.951-0.411,1.419-0.633c0.102-0.048,0.232-0.11,0.195-0.27
	c-0.032-0.139-0.148-0.167-0.267-0.21c-0.629-0.227-1.296-0.233-1.944-0.289c-0.722-0.063-1.453-0.049-2.178-0.123
	c-1.426-0.144-2.78,0.266-4.147,0.571c-0.164,0.036-0.376,0.146-0.459-0.049c-0.068-0.16,0.155-0.232,0.269-0.331
	c0.989-0.862,2.198-1.294,3.389-1.773c0.708-0.284,1.394-0.625,2.037-1.042c0.163-0.106,0.303-0.234,0.396-0.406
	c0.086-0.157,0.134-0.294-0.133-0.315c-1.498-0.12-2.96-0.539-4.474-0.524c-0.368,0.004-0.727,0.065-1.067,0.189
	c-0.812,0.296-2.207-0.04-2.812-0.689c-0.2-0.214-0.176-0.311,0.099-0.449c2.071-1.04,4.111-2.146,6.327-2.87
	c0.571-0.187,1.098-0.25,1.71-0.06c1.286,0.4,2.62,0.641,3.91,1.027c1.609,0.481,3.235,0.885,4.877,1.22
	c1.406,0.287,2.829,0.479,4.269,0.481c0.349,0.001,0.69,0.082,1.032,0.094c1.422,0.052,2.834-0.102,4.246-0.255
	c1.066-0.116,2.126-0.279,3.164-0.543c1.877-0.477,3.742-0.999,5.619-1.476c0.819-0.208,1.649-0.398,2.485-0.514
	c0.847-0.117,1.645,0.178,2.405,0.521c1.751,0.79,3.489,1.61,5.236,2.409c0.281,0.128,0.296,0.245,0.061,0.435
	c-0.759,0.615-1.568,1.016-2.581,0.695c-1.164-0.368-2.329-0.192-3.493,0.013c-0.595,0.105-1.192,0.193-1.787,0.293
	c-0.118,0.02-0.239,0.045-0.349,0.091c-0.488,0.2-0.525,0.346-0.074,0.635c0.799,0.511,1.653,0.92,2.542,1.263
	c1.159,0.447,2.326,0.897,3.195,1.895c-0.25,0.177-0.454,0.036-0.649-0.028c-1.436-0.474-2.893-0.569-4.402-0.443
	c-1.106,0.092-2.208,0.128-3.283,0.433c-0.171,0.049-0.384,0.058-0.416,0.249c-0.034,0.206,0.189,0.264,0.338,0.338
	c1.122,0.551,2.304,0.957,3.468,1.407c0.891,0.344,1.738,0.775,2.509,1.341c0.48,0.353,1.021,0.59,1.546,0.859
	c0.257,0.132,0.516,0.262,0.774,0.393c-0.02,0.049-0.041,0.098-0.061,0.147c-0.41-0.162-0.822-0.319-1.23-0.487
	c-1.56-0.644-3.12-1.255-4.868-1.11c-0.863,0.071-1.645,0.386-2.448,0.646c-0.176,0.057-0.372,0.199-0.373,0.397
	c-0.001,0.224,0.212,0.35,0.401,0.436c0.52,0.238,1.035,0.499,1.575,0.679c1.843,0.614,3.6,1.43,5.371,2.215
	c0.12,0.053,0.325,0.057,0.265,0.241c-0.053,0.162-0.244,0.097-0.368,0.066c-2.116-0.54-4.296-0.683-6.447-0.975
	c-1.548-0.21-3.144-0.264-4.718-0.034c-0.165,0.024-0.396,0.027-0.449,0.193c-0.06,0.186,0.158,0.295,0.286,0.393
	c0.58,0.445,1.319,0.5,1.973,0.771c1.359,0.564,2.829,0.792,4.196,1.341c1.51,0.607,3.001,1.271,4.596,1.643
	c0.079,0.018,0.174,0.027,0.234,0.195c-0.592,0.135-1.166-0.029-1.715-0.117c-1.757-0.28-3.498-0.727-5.289-0.658
	c-1.76,0.068-3.522,0.203-5.241,0.631c-0.229,0.057-0.627,0.039-0.621,0.35c0.006,0.294,0.395,0.283,0.631,0.348
	c2.035,0.56,4.126,0.849,6.188,1.281c1.173,0.246,2.15,0.959,3.231,1.687c-0.666,0.156-1.191,0.053-1.701-0.077
	c-1.676-0.425-3.388-0.659-5.081-0.99c-1.23-0.241-2.483-0.285-3.729-0.204c-1.904,0.123-3.812,0.282-5.715,0.173
	c-1.488-0.085-2.979-0.097-4.466-0.155c-1.551-0.06-3.095,0.202-4.625,0.524c-1.485,0.313-2.99,0.537-4.487,0.791
	c-0.123,0.021-0.319,0.083-0.37-0.08c-0.057-0.181,0.137-0.251,0.266-0.332c1.457-0.912,3.028-1.496,4.73-1.775
	c1.328-0.218,2.638-0.543,3.957-0.82c0.034-0.007,0.074,0.001,0.103-0.015c0.269-0.152,0.781-0.103,0.735-0.515
	c-0.038-0.338-0.488-0.279-0.787-0.322c-1.867-0.271-3.751-0.442-5.63-0.448c-1.846-0.006-3.682,0.307-5.49,0.712
	c-0.233,0.052-0.453,0.101-0.823-0.019c0.763-0.234,1.403-0.406,2.011-0.681c1.722-0.777,3.467-1.504,5.288-2.022
	c0.963-0.274,1.976-0.38,2.877-0.86c0.321-0.17,0.644-0.336,0.958-0.517c0.102-0.059,0.201-0.159,0.172-0.298
	c-0.034-0.164-0.18-0.128-0.296-0.138c-2.481-0.229-4.931-0.01-7.39,0.368C83.87,55.291,82.427,55.446,80.97,55.584z"/>
<path style="fill:#D00806;" d="M99.828,65.053c2.14-0.001,4.279-0.014,6.419,0.008c0.557,0.006,1.132-0.041,1.648,0.334
	c0.193,0.141,0.604-0.023,0.804,0.114c0.856,0.586,1.906,0.226,2.827,0.67c1.161,0.793,2.381,0.107,3.102,0.78
	c1.234,0.259,2.464,0.483,3.567,1.204c0.38,0.234,0.934,0.278,1.405,0.441c0.722,0.193,1.39,0.479,2.004,0.892
	c0.725-0.126,1.2,0.382,1.75,0.692c1.528,0.121,2.528,0.779,3.807,1.5c0.326,0.155,0.085,0.424,0.001,0.634
	c-0.169,0.831-2.333-0.891-2.807-0.993c-1.116,0.179-2.075-0.728-3.208-0.45c-0.301,0.074-0.602-0.009-0.887-0.2
	c-0.811-0.391-1.804-0.107-2.68-0.156c-1.101,0.154,1.009,1.614,1.395,1.68c0.664,0.224,1.267,0.687,1.918,0.878
	c0.897-0.135,1.575,0.314,2.218,0.836c0.253,0.205,0.522,0.332,0.842,0.376c0.532,0.072,0.929,0.535,1.501,0.515
	c0.138-0.005,0.247,0.129,0.225,0.298c-0.019,0.152-0.143,0.187-0.267,0.2c-1.645,0.342-2.868-1.236-4.508-1.249
	c-0.31-0.022-0.643,0.064-0.932-0.017c-1.761-0.492-3.558-0.34-5.347-0.352c-0.618-0.165-1.377,0.632-0.603,0.963
	c2.745,1.397,5.524,2.819,8.48,3.683c0.556,0.103,1.975,0.866,1.73,1.242c-0.119,0.15-0.256,0.339-0.472,0.198
	c-0.97-0.637-2.151-0.732-3.17-1.279c-1.14-0.584-2.446-0.92-3.685-1.282c-0.228-0.055-0.44-0.225-0.667,0.01
	c-0.06,0.062-0.185,0.052-0.238-0.021c-0.201-0.589-3.706-0.185-4.491-0.294c-0.887,0.03-1.581-1.072-2.425-0.14
	c-0.27,0.338-1.322-0.182-1.509,0.246c-0.055,0.356,0.379,0.727,0.697,0.806c0.866,0.065,1.591,0.557,2.385,0.775
	c0.658,0.18,1.324,0.55,2.103,0.377c0.586-0.131,1.056,0.38,1.574,0.608c0.366,0.26,2.521,0.995,1.552,1.368
	c-1.086,0.603-1.58-1.248-2.634-0.831c-0.17,0.056-0.358,0.086-0.506-0.017c-1.137-0.82-2.592,0.021-3.7-0.688
	c-0.15-0.159-0.399-0.087-0.603-0.087c-5.804,0.102-11.682-0.165-17.46,0.066c-1.976,0.385-4.031,0-5.823,1.019
	c-0.541,0.268-1.215,0.027-1.71,0.492c-0.533,0.418-1.17-0.226-0.488-0.673c0.503-0.589,1.34-0.014,1.891-0.533
	c0.077-0.063,0.196-0.128,0.284-0.115c0.838,0.12,1.576-0.26,2.322-0.508c1.354-0.298,2.478-1.121,3.74-1.653
	c0.569-0.093,0.387-0.632-0.104-0.559c-2.451-0.032-4.904,0.048-7.355,0.062c-0.653-0.063-0.755,0.49-1.47,0.317
	c-0.44-0.008-0.873-0.022-1.217,0.327c-0.044,0.045-0.128,0.084-0.188,0.077c-0.862-0.101-1.476,0.541-2.229,0.733
	c-0.75,0.191-1.412,0.752-2.259,0.565c-0.256-0.056-0.455,0.083-0.652,0.252c-0.342,0.294-0.921,0.343-1.036,0.098
	c-0.193-0.414,0.216-0.571,0.413-0.803c0.217-0.255,0.536-0.219,0.83-0.195c1.742-0.04,3.262-1.171,4.937-1.563
	c0.776-0.117,1.364-0.671,2.108-0.85c0.73-0.021,0.305-0.808,1.03-0.835c0.244-0.029,0.483-0.087,0.693-0.216
	c0.774-0.356,0.477-1.561-0.376-1.546c-0.433,0.001-0.82,0.096-1.238,0.279c-0.593,0.259-1.292,0.189-1.949,0.186
	c-0.276-0.001-0.557-0.122-0.687,0.258c-0.049,0.143-0.204,0.115-0.321,0.103c-0.848-0.068-1.705,0.095-2.548,0.006
	c-0.525,0.603-1.397,0.203-1.99,0.714c-0.312,0.269-0.861,0.137-1.251,0.417c-0.248,0.178-0.563,0.263-0.81,0.464
	c-0.3,0.325-1.448,0.121-0.817-0.403c1.361-1.274,2.405-0.66,3.718-1.661c0.616-0.539,0.907,0.171,1.53-0.312
	c0.844-0.482,1.697-0.947,2.585-1.346c0.372-0.091,2.041-1.257,0.998-1.472c-0.699-0.086-1.514-0.168-2.052,0.124
	c-0.808,0.439-1.615,0.117-2.382,0.355c-0.113,0.035-0.237,0.021-0.333,0.115c-0.626,0.541-1.287-0.328-2.105,0.371
	c-0.591,0.484-1.403,0.049-1.957,0.642c-0.146,0.147-0.359,0.103-0.549,0.102c-0.207-0.001-0.402-0.058-0.446-0.279
	c-0.05-0.252,0.161-0.298,0.348-0.367c3.681-1.256,7.149-2.998,10.835-4.218c1.341-0.595,2.855-0.58,4.237-1.043
	C91.272,65.018,95.526,64.93,99.828,65.053z"/>
<path style="fill:#D10704;" d="M83.249,110.823c-0.4,0-0.808-0.054-1.197,0.011c-0.992,0.166-1.89-0.357-2.86-0.341
	c-0.192,0.003-0.393-0.13-0.579-0.222c-1.781-0.877-3.09-2.236-3.818-4.066c-0.398-1.002-0.155-2.093,0.04-3.137
	c0.043-0.232,0.215-0.229,0.407-0.18c0.436,0.112,0.774,0.384,1.106,0.665c1.431,1.218,2.928,2.34,4.576,3.252
	c0.914,0.506,1.674,1.234,2.574,1.768c0.792,0.47,1.608,0.895,2.405,1.353c0.202,0.116,0.49,0.211,0.41,0.523
	c-0.075,0.29-0.338,0.392-0.612,0.395c-0.817,0.011-1.633,0.004-2.45,0.004C83.249,110.84,83.249,110.832,83.249,110.823z"/>
<path style="fill:#D20704;" d="M124.843,104.695c0.1,2.723-1.489,4.292-3.712,5.429c-0.535,0.274-1.148,0.272-1.696,0.445
	c-1.835,0.578-3.708,0.246-5.559,0.37c-0.497,0.033-0.669-0.194-0.61-0.617c0.024-0.171,0.103-0.292,0.26-0.361
	c2.147-0.934,4.041-2.288,5.986-3.564c1.09-0.715,2.081-1.563,3.189-2.249c0.181-0.112,0.309-0.283,0.405-0.469
	c0.284-0.548,0.764-0.708,1.339-0.727c0.294-0.01,0.411,0.088,0.401,0.386C124.832,103.79,124.843,104.243,124.843,104.695z"/>
<path style="fill:#B7A874;" d="M137.96,113.615c0.559-0.095,0.42-0.518,0.387-0.86c-0.186-1.195-1.71-0.691-2.557-0.82
	c-0.224-0.007-0.607,0.375-0.588-0.252c0.004-0.133-0.201-0.097-0.316-0.098c-0.887-0.003-1.774,0.009-2.661-0.004
	c-0.693-0.032-0.307,0.499-0.076,0.795c0.174,0.421,0.666,0.292,0.928,0.554c0.749,0.749,1.498,1.497,2.248,2.245
	c0.099,0.099,0.251,0.251,0.075,0.329c-0.299,0.132-0.268,0.476-0.569,0.702c0.118-0.784-0.332-0.722-0.833-0.701
	c-1.865,0.264-0.47-0.553-2.596-0.352c-1.295,0.261,0.045-0.729-1.498-0.429c-0.567,0.028-1.197,0.375-1.626-0.326
	c-0.363-0.156-0.884-0.025-1.287-0.066c-1.224,0.152,1.016,2.396,1.264,2.828c0.428,0.668,0.847,1.408,1.569,1.958
	c-0.795,0.22-1.47-0.111-2.158-0.318c-0.66-0.077-1.348-0.185-2.024-0.024c-0.148,0.035-0.332,0.091-0.368-0.146
	c-0.26-0.801-1.47,0.345-1.779-0.672c-0.582-0.147-1.297-0.158-1.902-0.049c-0.967,0.403-0.38-0.472-1.178-0.359
	c-0.922-0.008-1.844-0.015-2.766-0.008c-0.663-0.184-0.757,0.255-0.326,0.681c0.163,0.177,0.267,0.462,0.512,0.503
	c0.881,0.145,1.266,0.999,2.033,1.374c0.801,0.391,1.347,1.306,1.996,2c0.162,0.173,0.272,0.496,0.023,0.563
	c-1.005,0.411-1.464-0.475-2.313-0.293c-0.655,0.245-0.013-0.735-1.089-0.433c-0.155,0.022-0.343,0.124-0.409-0.07
	c-0.277-0.824-1.071-0.042-1.472-0.466c-0.196-0.307-0.517-0.317-0.831-0.332c-0.135-0.007-0.312,0.076-0.394-0.054
	c-0.442-0.604-1.466-0.036-1.956-0.389c-0.551-0.467-1.133-0.175-1.691-0.254c-0.656,0.043,0.243,1.196,0.574,1.143
	c0.433,0.054,0.653,0.289,0.854,0.573c0.374,0.528,0.989,0.823,1.314,1.394c0.054,0.096,0.181,0.114,0.284,0.093
	c0.377-0.14,1.215,0.844,0.468,0.743c-0.452-0.003-0.904-0.021-1.356-0.015c-0.276,0.004-0.619,0.221-0.667-0.304
	c-0.154-0.222-0.977-0.093-1.255-0.04c-0.105,0.034-0.271,0.082-0.302-0.091c-0.119-0.657-0.555-0.487-0.959-0.372
	c-0.667,0.327-0.702-0.88-1.46-0.389c-0.469,0.274,0.005-0.681-1.122-0.409c-0.174,0.016-0.379,0.097-0.452-0.114
	c-0.201-0.496-1.099-0.141-1.54-0.21c-0.18,0.011-0.432-0.131-0.523,0.084c-0.115,0.688,0.894,1.061,1.072,1.694
	c0.192,0.44,0.425,0.807,0.844,1.061c0.22,0.133,0.179,0.64-0.033,0.636c-0.327-0.006-0.862,0.381-0.949-0.058
	c-0.162-0.693-0.842,0.143-0.881-0.513c-0.04-0.108-0.133-0.196-0.229-0.19c-0.527,0.034-0.878-0.719-1.491-0.327
	c-0.084,0.053-0.131-0.146-0.208-0.192c-0.336-0.2-0.527-0.646-0.96-0.653c-0.323-0.006-0.757,0.363-0.772-0.334
	c-0.001-0.026-0.097-0.082-0.126-0.07c-0.343,0.139-0.595,0.107-0.71-0.304c-0.013-0.045-0.19-0.055-0.292-0.063
	c-0.533-0.045-0.525-0.707-1.182-0.424c-1.83,0.683-3.432,1.852-5.33,2.374c-0.392,0.107-0.826,0.307-1.085,0.551
	c-0.297,0.306-1.348,0.491-1.361,0.216c-0.078-0.371,0.55-0.205,0.502-0.553c-0.122-0.606,0.595-0.741,0.772-1.119
	c-0.284-0.792,0.946-0.765,0.886-1.553c0.001-0.141-0.033-0.253-0.18-0.267c-1.081-0.323-1.684,0.325-2.667,0.333
	c-0.336,0.026-0.624,0.053-0.528,0.518c-0.238-0.073-0.439-0.268-0.594-0.153c-0.58,0.428-1.277,0.317-1.912,0.476
	c-0.664,0.649-1.244,0.113-1.692,0.742c-0.537-0.158-1.748,0.259-2.076-0.061c0.199-0.446,0.709-0.766,1.036-1.137
	c0.39-0.366,0.739-0.857,1.206-1.04c0.583-0.229,0.861-0.739,1.324-1.061c0.821-0.754-1.123-0.852-1.466-0.577
	c-0.4,0.24-0.774,0.28-1.16,0.256c-0.764-0.047-1.351,0.493-2.097,0.529c-0.824,0.04-1.434,0.921-2.373,0.677
	c-0.36-0.011-2.987,1.475-2.852,0.562c0.058-0.291-0.312-0.775,0.331-0.856c0.171-0.022,0.487,0.003,0.446-0.241
	c-0.086-0.524,0.231-0.586,0.598-0.677c0.66-0.344,1.013-1.187,1.733-1.461c0.694-0.289,1.077-0.913,1.625-1.356
	c0.194-0.154,0.087-0.447-0.194-0.356c-0.713,0.249-3.964-0.373-3.893,0.422c-0.019,0.171-0.184,0.23-0.318,0.127
	c-0.479-0.368-1.007-0.138-1.514-0.145c-0.167-0.002-0.393-0.01-0.465,0.171c-0.305,0.59-1.057,0.215-1.578,0.284
	c-0.152-0.004-0.374-0.058-0.406,0.13c-0.021,0.741-1.655-0.14-2.207,0.36c-0.417,0.261-1.654,0.555-1.828-0.008
	c-0.113-0.404,0.334-0.437,0.497-0.703c0.443-0.274,0.4-0.838,0.771-1.203c0.559-0.551,0.833-1.363,1.51-1.846
	c0.125-0.089,0.098-0.247,0.014-0.379c-0.266-0.415-1.699-0.626-1.953-0.229c-0.227,0.356-0.433,0.332-0.766,0.263
	c-0.369,0.007-1.346-0.215-1.325,0.366c0.017,0.512-1.752-0.455-2.565,0.39c-0.445,0.203-1.115-0.226-1.415,0.357
	c-0.008,0.017-0.076,0.029-0.081,0.02c-0.313-0.282-0.868-0.69-0.37-1.11c0.461-0.352,0.756-0.928,1.292-1.173
	c0.809-0.259,1.239-0.949,1.761-1.53c0.445-0.724-1.343-0.468-1.709-0.485c-0.455,0.061-1.064-0.333-1.362,0.36
	c-0.892-0.051-1.84,0.027-2.74,0.071c-0.561,0.042-0.848,0.695-0.503,1.121c0.146,0.18,0.186,0.36,0.219,0.564
	c0.091,0.569,0.401,1.047,0.661,1.543c0.169,0.322,0.125,0.799,0.622,0.901c-0.195,0.779,0.347,0.462,0.341,1.324
	c0.022,0.151-0.028,0.33,0.105,0.444c0.376,0.321,0.434,0.817,0.609,1.226c0.214,0.396,0.628,0.676,0.553,1.197
	c0.435,0.121,0.288,0.479,0.319,0.768c0.013,0.12,0.005,0.299,0.076,0.345c0.435,0.281,0.366,0.816,0.614,1.2
	c0.16,0.246,0.385,0.504,0.461,0.808c0.13,0.523,0.57,0.946,0.493,1.537c-0.006,0.047,0.066,0.142,0.115,0.153
	c0.27,0.063,0.258,0.289,0.223,0.457c-0.124,0.593,0.554,0.922,0.467,1.493c0.406,0.184,0.341,0.464,0.34,0.808
	c0.013,0.159-0.069,0.407,0.184,0.415c0.79,0.062-0.386,1.236,0.632,1.25c0.181,0.006,0.115,0.185,0.108,0.294
	c-0.032,0.52-0.135,1.036-0.059,1.56c0.015,0.104,0.001,0.222-0.141,0.229c-0.345-0.008-0.131-0.548-0.512-0.556
	c-0.54-0.027-2.017-1.711-2.335-2.246c-0.273-0.529-0.79-1.003-1.322-1.372c-0.114-0.079-0.19-0.14-0.157-0.282
	c-0.011-0.633-0.81-1.034-1.141-1.547c-0.161-0.315-0.511-0.243-0.446,0.132c0.051,0.572-0.211,1.134-0.046,1.71
	c0.033,0.115,0.021,0.246-0.125,0.307c-0.562,0.231,0.006,3.439-0.35,4.05c-0.362,0.442-0.341,0.484,0.2,0.606
	c-0.185,0.822-0.206,1.649-0.117,2.483c0.017,0.161,0.136,0.362-0.059,0.479c-0.831,0.523,0.14,0.744,0.071,1.275
	c-0.105,0.874,0.865,1.308,1.322,1.927c0.657,0.948,1.3,0.777,1.957,1.545c0.342,0.321,0.647,0.764,1.055,0.909
	c0.387,0.138,0.691,0.326,0.903,0.617c0.568,0.783,1.612,0.97,2.153,1.773c0.023,0.034,0.103,0.061,0.14,0.047
	c0.778-0.218,0.764,0.979,1.563,0.108c-0.442-0.311-0.224-1.022-0.306-1.493c-0.013-0.28,0.219-0.697-0.358-0.727
	c-0.144-0.008-0.054-0.163-0.034-0.256c0.154-0.724-0.054-1.453,0.025-2.179c0.008-0.074-0.045-0.167-0.094-0.232
	c-0.863-0.855,0.372-1.941,0.462-1.355c0.406,1.595,1.541,1.806,1.281,2.362c-0.009,0.025,0.05,0.102,0.09,0.115
	c0.444,0.106,0.11,0.656,0.35,0.831c0.603-0.002,0.315,0.404,0.317,0.668c-0.033,0.777,0.767,0.709,0.79,1.199
	c-0.03,0.453,0.141,0.678,0.673,0.592c-0.183,0.264-0.451,0.606-0.162,0.701c0.794,0.215-0.054,0.965,0.538,1.272
	c0.806,0.32,0.319,1.341,0.962,1.749c0.039,0.025,0.002,0.166,0.006,0.252c0.004,0.103-0.009,0.223,0.102,0.276
	c0.452,0.214,0.273,0.791,0.65,1.106c0.151,0.126,0.2,0.602,0.434,0.814c0.89,0.54,0.099,0.887,0.626,0.984
	c0.492-0.046,0.007,0.763,0.463,1.244c0.301,0.463,1.136,0.603,0.932,1.394c-0.011,0.042,0.099,0.152,0.167,0.169
	c0.526,0.206-0.173,0.905,0.877,0.886c-0.485,0.386,0.011,0.546,0.056,0.789c0.083,0.711,1.753,2.359,2.004,1.081
	c0.176-2.476,0.031-5.002,0.084-7.499c-0.073-0.398,0.121-0.529,0.441-0.243c0.489,0.249,0.213,1.023,0.817,1.202
	c0.009,0.003-0.063,0.222-0.067,0.342c-0.189,0.816,0.471,0.323,0.39,1.146c0.044,0.574,0.563-0.045,0.383,1.118
	c-0.076,0.652,0.739,0.102,0.493,0.702c-0.095,0.229-0.188,0.601-0.03,0.688c0.471,0.258,0.24,0.703,0.391,1.018
	c0.168,0.353,0.416,0.659,0.429,1.076c0.132,0.156,0.732,0.06,0.407,0.442c-0.142,0.209-0.192,0.549,0,0.671
	c0.451,0.285,0.569,0.92,1.15,1.043c0.071,0.015,0.131,0.085,0.088,0.154c-0.439,0.74,0.481,0.324,0.71,0.741
	c0.459,0.308,0.622,1.064,1.378,0.929c0.036-0.006,0.11,0.039,0.12,0.073c0.139,0.495,0.643,0.641,0.934,0.988
	c0.456-0.144,0.833,0.171,1.269,0.183c0.61,0.21,0.689,0.154,0.673-0.465c-0.002-0.083,0.013-0.17-0.054-0.239
	c-0.286-0.102-0.517-0.194-0.346-0.604c0.364-0.981-0.621-0.361-0.459-0.928c-0.01-0.486,0.379-1.069-0.323-1.399
	c-0.053-0.953-0.002-1.947-0.022-2.911c0.115-0.898,1.535,1.313,1.536,1.573c0.223,0.66,0.746,0.962,1.1,1.447
	c0.449,0.221-0.134,0.761,0.548,0.862c0.067,0.009,0.067,0.102,0.067,0.175c0.002,0.539,0.403,0.906,0.593,1.363
	c0.116,0.28,0.534,0.291,0.548,0.627c0.01,0.242,0.091,0.367,0.286,0.538c0.237,0.208,0.044,0.768,0.571,0.829
	c-0.039,0.189-0.112,0.44,0.081,0.576c0.106,0.012,0.062-0.288,0.174-0.133c0.48,0.665,1.117,1.192,1.593,1.857
	c0.216,0.756,0.768,0.172,0.903,0.528c0.075,0.399,0.368,0.291,0.608,0.251c0.552-0.187,1.202,0.339,1.536-0.353
	c1.033-0.614,1.762-1.541,2.518-2.441c-0.256-0.29,0.095-0.268,0.193-0.376c0.114-0.324,0.37-0.534,0.608-0.758
	c0.059-0.09-0.483-0.223,0.022-0.285c0.192-0.024,0.368-0.092,0.471-0.282c0.14-0.259-0.207-0.292-0.261-0.477
	c0.311-0.098,0.813-0.037,0.646-0.491c-0.304-0.561,1.14-0.504,0.672-1.517c1.039-0.272,1.07-1.528,1.698-2.271
	c0.155-0.21,0.885-0.266,0.293-0.769c0.195-0.214,0.465-0.322,0.635-0.574c0.169-0.213,0.626-0.167,0.631,0.043
	c0.02,0.804,0.292,1.651-0.332,2.365c0.124,0.603-0.327,1.067-0.395,1.621c-0.038,0.307,0.098,0.692-0.13,0.906
	c-0.424,0.398-0.313,0.775-0.054,1.231c-1.035-0.205-0.753,1.902-0.091,1.253c0.547-0.636,1.497-0.751,1.936-1.44
	c0.041-0.084,0.089-0.172,0.182-0.157c0.644,0.108,0.761-0.488,1.087-0.802c0.942-0.353,1.287-1.43,2.189-1.793
	c0.174-0.132-0.023-0.394,0.176-0.513c0.249-0.15,0.389-0.341,0.296-0.647c-0.024-0.077,0.027-0.134,0.1-0.156
	c0.595-0.151,0.049-0.722,0.399-0.871c0.995-0.224-0.463-0.946,0.326-1.141c0.568-0.088,0.552-0.375,0.284-0.757
	c-0.368-0.573,1.07-0.252,0.389-1.206c-0.414-0.661,0.874-0.081,0.511-1.012c-0.411-0.811,0.776-0.295,0.356-1.047
	c-0.055-0.091-0.239-0.106-0.165-0.274c1.07-0.175,0.331-0.6,0.715-1.223c0.239-0.181,0.476-0.364,0.729-0.557
	c-0.013,0.379-0.24,1.649,0.173,1.74c0.284,0.016,0.221,0.178,0.19,0.36c-0.085,0.497-0.165,0.997-0.008,1.496
	c0.046,0.147,0.046,0.288-0.129,0.34c-0.29,0.086-0.282,0.309-0.283,0.542c-0.004,0.939,0.018,1.88-0.035,2.817
	c-0.025,0.438,0.271,0.986-0.319,1.301c0.049,0.326-0.181,1.625,0.343,1.484c0.254-0.031,0.514-0.133,0.408-0.462
	c-0.067-0.207,0.009-0.273,0.157-0.366c0.689-0.435,0.974-1.199,1.448-1.808c0.035-0.045,0.048-0.165,0.018-0.192
	c-0.322-0.291,0.013-0.278,0.157-0.354c0.499-0.265,0.688-0.727,0.418-1.068c0.363-0.119,0.55-0.248,0.653-0.734
	c0.019-0.619,1.513-1.431,0.923-2.091c0.266-0.067,0.504-0.053,0.627-0.306c0.134-0.275-0.247-0.277-0.27-0.5
	c0.45-0.054,0.786-0.189,0.7-0.713c-0.006-0.039,0.036-0.106,0.074-0.129c0.413-0.246,0.221-0.869,0.68-1.09
	c0.035-0.017,0.057-0.152,0.029-0.19c-0.413-0.457,0.994-0.346,0.694-1.64c-0.023-0.084-0.074-0.197,0.04-0.217
	c0.684-0.121,0.391-0.92,0.849-1.211c0.13-0.083-0.076-0.384,0.154-0.506c0.251-0.133,0.315-0.263,0.188-0.578
	c-0.141-0.38,0.931,0.002,0.275-0.831c0.66-0.242,0.711-0.343,0.439-0.873c0.327-0.046,0.666-0.118,0.559-0.557
	c-0.045-0.492,0.616-0.293,0.393-0.936c0.063-0.43,0.82-0.053,0.212-0.899c0.223-0.11,0.51,0.011,0.617-0.265
	c0.091-0.234-0.17-0.304-0.249-0.463c0.181-0.168,0.466-0.05,0.615-0.254c0.204-0.28-0.152-0.384-0.241-0.626
	c0.613,0.051,0.744-0.487,1.08-0.761c0.218-0.275,0.516-0.191,0.452,0.183c-0.01,0.713-0.031,1.426-0.036,2.139
	c-0.003,0.313,0.151,0.678-0.368,0.746c-0.26,0.139-0.016,0.814-0.105,1.096c-0.047,0.478,0.252,1.051-0.365,1.387
	c-0.096,0.363-0.034,0.847-0.072,1.237c-0.095,0.287,0.173,0.331,0.365,0.181c0.476-0.415,1.108-0.614,1.514-1.13
	c0.483-0.726,0.601-0.268,1.04-0.646c0.5-0.303,0.644-1.088,1.411-1.039c0.51-0.632,1.374-1.262,2.078-1.658
	c0.411-0.787,3.013-2.233,2.285-3.003c0.312-0.036,0.61,0.005,0.589-0.431c-0.069-1.441-0.052-2.884-0.002-4.327
	c0.001-0.643-0.56-0.344-0.396-1.56c-0.104-1.42,0.266-3.682-0.382-4.886c-0.548-0.588-2.04,2.685-2.594,3.035
	c-0.768,0.756-1.52,1.529-2.269,2.304c-0.317,0.329-0.709,0.229-1.077,0.209c-0.142-0.008-0.121-1.055,0.059-1.152
	c0.388-0.21,0.318-0.479,0.185-0.793c-0.048-0.114-0.156-0.31,0.052-0.343c1.021-0.131-0.096-1.135,0.439-1.218
	c0.835-0.036,0.064-0.997,0.363-1.143c0.739-0.107,0.337-0.492,0.215-0.795c0.218-0.171,0.672-0.029,0.618-0.45
	c-0.049-0.383-0.147-0.732,0.326-0.915c0.155-0.635,0.528-1.214,0.822-1.834c0.189-0.278-0.189-0.838,0.413-0.994
	c-0.115-0.494,0.357-0.756,0.474-1.173c0.113-0.875,0.859-1.163,0.711-1.947c-0.144-0.532,0.606-0.11,0.402-0.831
	c-0.021-0.085-0.04-0.205,0.046-0.236c0.567-0.204,0.498-0.817,0.727-1.217c0.241-0.421,0.666-0.894,0.437-1.496
	c-0.01-0.027,0.042-0.109,0.076-0.115C138.295,114.313,137.606,113.714,137.96,113.615z M127.987,128.871
	c-0.011,0.904,0.047,1.813-0.025,2.711c-0.032,0.399-0.436,0.706-0.583,1.116c-0.052,0.144-0.377,0.049-0.538-0.126
	c-0.349-0.273-0.741-1.023-1.156-1.062c-0.12,0.041-0.138,0.147-0.135,0.254c0.011,0.525-0.453,0.837-0.6,1.306
	c-0.307,0.426-0.049,1.074-0.516,1.299c-0.174,0.081-0.026,0.49-0.11,0.585c-0.783,0.369-0.141,0.926-0.418,1.251
	c-0.347,0.112-0.489,0.299-0.283,0.65c0.02,0.034,0.008,0.129-0.015,0.14c-0.652,0.296-0.632,0.981-0.909,1.5
	c-0.401,0.84-1.597,2.839-2.295,1.072c-0.073-0.182-0.047-0.413-0.034-0.62c0.121-0.893-0.475-0.43-0.502-0.761
	c0.26-0.489-0.197-0.985,0.024-1.479c0.211-0.382-0.289-0.695-0.538-0.377c-0.329,0.436-1.008,0.584-1.005,1.32
	c0.001,0.2-0.406,0.383-0.586,0.606c-0.236,0.292-0.65,0.467-0.59,0.969c0.021,0.176-0.27,0.241-0.4,0.376
	c-0.371,0.386-0.884,0.71-1.083,1.171c-0.444,1.03-1.326,1.63-2.048,2.389c-0.103,0.108-0.085,0.217-0.084,0.335
	c0.001,0.132-0.041,0.28-0.167,0.294c-0.826-0.065-1.645,2.046-2.239,1.012c-0.716,0.059-0.651-0.772-1.125-0.989
	c-0.36-0.334,0.424-1.193-0.457-1.696c-0.113-0.069-0.216-0.254-0.138-0.366c0.339-0.488,0.078-1.012,0.124-1.515
	c0.033-0.356-0.194-0.404-0.476-0.328c-0.623,0.261-0.934,1.081-1.024,1.726c-0.024,0.368-0.621,0.17-0.463,0.671
	c-0.024,0.573-0.982,0.594-0.799,1.315c-0.182,0.447-0.886,0.564-0.818,1.211c0.021,0.195-0.301,0.255-0.439,0.409
	c-0.302,0.334-0.601,0.673-0.923,0.988c-1.251,1.325-1.52-0.715-2.78-0.377c0.438-0.743-0.307-0.837-0.485-1.213
	c-0.455-0.35,0.06-0.768-0.69-0.855c0.624-1.02-0.742-0.599-0.4-1.425c0.151-0.317,0.338-0.668-0.096-0.895
	c-0.317-0.165-0.835,0.241-0.922,0.701c-0.095,0.267,0.078,0.707-0.126,0.902c-0.87,0.231,0.182,0.872-0.367,1.134
	c-1.205,0.891-0.354,1.504-2.369,2.268c-1.265,0.975-2.138-1.981-3.18-2.327c0.151-0.414-0.307-0.602-0.343-0.876
	c-0.05-0.383-0.281-0.574-0.477-0.823c-0.399-0.338-0.334-0.961-0.798-1.246c-0.293-0.224-0.549-0.379-0.38-0.861
	c0.131-0.375-0.124-0.544-0.516-0.408c-1.064,0.361-0.578,1.964-0.526,2.804c-0.431,0.274-0.473,0.777-0.719,1.151
	c-0.104,0.158-0.21,0.277-0.208,0.468c0.004,0.419-0.514,0.446-0.598,0.798c-0.274-0.139-0.611,0.014-0.875-0.246
	c-1.584-1.457-3.052-2.979-4.338-4.7c-1.147-0.939-2.142-3.651-3.55-3.975c-0.315,0.086-0.196,0.368-0.209,0.573
	c-0.132,0.49,0.218,1.783-0.329,1.931c-0.455,0.354,0.525,0.829-0.76,1.526c-0.872,0.175-0.873-1.463-1.663-1.666
	c-0.031-0.013-0.085-0.042-0.082-0.051c0.154-0.539-0.211-0.916-0.396-1.355c-0.07-0.167-0.024-0.383-0.242-0.47
	c-0.369-0.183-0.01-0.728-0.452-0.91c-0.041-0.027-0.095-0.076-0.096-0.116c-0.016-0.437-0.083-0.825-0.375-1.209
	c-0.147-0.194-0.033-0.575-0.469-0.575c-0.151,0-0.113-0.137-0.079-0.239c0.132-0.393,0.183-0.719-0.2-1.072
	c-0.195-0.179-0.158-0.616-0.373-0.886c-0.43-0.623-0.812,0.384-0.963,0.761c-0.115,0.461-0.518,0.129-0.785,0.189
	c-0.207,0.046-0.364-0.052-0.356-0.318c0.131-0.976-0.48-0.706-0.427-1.408c0.013-1.619-0.06-3.285,0.009-4.889
	c0.696-0.214,0.35-0.779,0.421-1.204c0.03-0.184-0.192-0.54,0.2-0.504c0.328,0.03,0.843-0.325,0.967,0.34
	c0.025,0.132,0.068,0.295,0.161,0.374c0.694,0.588,0.958,1.376,1.083,2.235c0.022,0.151,0.134,0.225,0.236,0.323
	c0.263,0.255,0.398,0.653,0.593,0.884c0.344,0.409,0.167,0.885,0.378,1.192c0.215,0.312,0.37,0.604,0.467,0.959
	c0.051,0.187,0.254,0.154,0.407,0.128c0.678-0.201-0.288-1.147,0.626-1.263c0.03-0.006,0.073-0.094,0.063-0.13
	c-0.221-0.793,0.6-0.935,0.909-1.385c0.194-0.283,0.702-0.224,0.989,0.052c0.573,0.55,1.092,1.156,1.657,1.716
	c0.706,0.727,1.083,1.861,2.058,2.258c-0.176,0.421,0.249,0.607,0.346,0.913c0.202,0.634,0.611,1.07,1.163,1.397
	c0.057,0.034,0.158,0.034,0.15,0.113c-0.082,0.776,0.627,1.04,0.966,1.545c0.243,0.265,0.527,1.487,0.988,0.927
	c0.711-0.691,0.015-1.309,0.567-1.423c0.276-0.052,0.167-0.296,0.178-0.473c0.019-0.302-0.144-0.669,0.338-0.789
	c0.312-0.309-0.322-0.89,0.453-1.255c0.341-0.174,0.338-0.59,0.495-0.891c0.406-0.776,1.291-0.784,1.878-0.086
	c0.24,0.336,0.49,0.65,0.862,0.851c0.304,0.912,0.983,1.591,1.448,2.392c0.196,0.338,0.627,0.656,0.555,1.172
	c-0.029,0.208,0.255,0.257,0.361,0.417c0.338,0.507,0.598,1.051,0.871,1.594c0.168,0.27,1.104,1.654,1.166,0.867
	c-0.014-0.267-0.014-0.499,0.275-0.656c0.414-0.294-0.327-1.046,0.402-1.122c-0.055-0.472,0.252-0.771,0.48-1.13
	c0.109-0.172-0.033-0.46,0.323-0.576c0.396-0.125-0.184-0.798,0.053-0.928c0.683-0.095,0.317-0.902,0.806-1.162
	c0.099-0.138,0.008-0.513,0.413-0.724c-0.186-0.764,0.582-0.889,0.909-1.299c0.389-0.879,0.638-0.578,1.152,0.037
	c0.817,0.879,1.23,2.055,1.768,3.092c0.24,0.429,0.648,0.816,0.609,1.369c0.559,0.533,0.348,1.43,0.82,1.926
	c0.557,0.401,0.051,1.418,0.764,1.381c0.395-0.055,0.854-0.67,0.769-1.067c-0.051-0.237-0.067-0.372,0.203-0.537
	c0.809-0.414,0.406-0.961,0.8-1.172c0.121-0.041,0.274-0.161,0.213-0.253c-0.313-0.474,0.16-0.471,0.347-0.676
	c0.21-0.23,0.503-0.455,0.461-0.839c0.098-0.419,0.833-0.552,0.81-1.186c0.111-0.503,0.928-0.567,0.723-1.212
	c1.436-1.439,1.84-1.522,2.933,0.36c0.212,0.371,0.195,0.885,0.608,1.169c0.267,0.272-0.158,1.068,0.481,1.085
	c0.469,0.02-0.686,1.111,0.666,1.199c-0.009,0.045-0.003,0.113-0.03,0.13c-0.307,0.157-0.226,0.726,0.148,0.644
	c0.202-0.028,0.349-0.12,0.424-0.33c0.261-0.733,0.651-1.386,1.225-1.921c0.45-0.419,0.524-1.1,1.048-1.476
	c0.579-0.415,0.908-1.103,1.208-1.662c0.455-0.846,1.146-1.399,1.761-2.043c0.388-0.499,0.502-1.27,1.23-1.396
	c0.708-0.249,0.721-0.754,1.597-0.151c0.617,0.381,0.174,0.934,0.453,1.297c0.374,0.095,0.278,0.402,0.286,0.633
	c-0.083,0.395,0.637,1.593,0.781,0.735c0.02-0.265,0.042-0.518,0.323-0.653c0.039-0.019,0.086-0.091,0.078-0.129
	c-0.102-0.509,0.199-0.869,0.426-1.271c0.243-0.43,0.326-0.945,0.682-1.321c0.251-0.214-0.081-0.658,0.317-0.741
	c0.067-0.014,0.146-0.104,0.169-0.175c0.33-0.767,0.946-2.474,1.837-2.235c0.505,0.22-0.281,1.303,0.659,1.2
	C127.926,126.648,128.001,127.761,127.987,128.871z"/>
</svg>
