<svg version="1.1" id="Layer_1" xmlns="http://www.w3.org/2000/svg" x="0" y="0" viewBox="0 0 200 200" xml:space="preserve"><style>.stl_old_st0{fill:#e5a803}.stl_old_st1{fill:#030201}.stl_old_st2{fill:#fefdfc}.stl_old_st3{fill:#f8f8f8}.stl_old_st4{fill:#fefefe}.stl_old_st5{fill:#c80c00}.stl_old_st6{fill:#c70c00}.stl_old_st8{fill:#323232}.stl_old_st9{fill:#c8ab91}.stl_old_st10{fill:#c40c00}.stl_old_st11{fill:#e5a703}.stl_old_st12{fill:#fafafa}.stl_old_st13{fill:#c4a78e}</style><path class="stl_old_st0" d="M50.2 47a5.8 5.8 0 00-3.5-2.6c-1-.3-1.3-.6-1.2-1.2.1-.6.7-1 1.6-1l1 .1c-.2-.5-.2-1 .2-1.4.5-.3 1-.2 1.5-.1 2.2.4 4.2 1 6.2 2a42 42 0 009.8.9l.5-.2c-1-.8-1.6-1.8-2.4-2.7-.5-.6-.5-1.1 0-1.6.3-.4 1-.4 1.6 0 .7.5 1.4 1 1.9 1.8 0 .2.2.3.4.4 1.2.6 2.4.9 3.8 1-.4-.3-.8-.4-1.2-.5-3.3-1.3-5.7-3.4-6.5-7l-.1-.3c.2-.9-.4-1.3-1-1.7L61 32c-.8-.5-1.5-1-2.5-1-1.8-.2-2.9-1.5-4-2.8-1-1.2-1.7-2.6-2.9-3.7-2.2-2-4.6-3.8-7.2-5.5-.9-.6-2-.9-3-1.3A37.3 37.3 0 0134 13c-.2-.2-.4-.3-.6 0-3.4 5.5-6.6 11-8.5 17.3-.3 1-.5 2.1-.6 3.2-.1.9-.7 1.4-1.4 1.1-3.4-1-6.3-2.9-8.4-6-1-1.5-1-3.1-.6-4.8A28.4 28.4 0 0136 0c.5 0 .9 0 1.2.4 1.6 2 3.8 3.5 5.9 5.1 1.5 1.3 3.2 2.4 4.6 3.7.3.3.6.6.7 1 .9 3.4 3 5.9 5.5 8 2 1.8 4.1 3 6.4 4.3.3.1.6.3.8.6 1.1 2.2 3 3.6 5 4.9a30 30 0 005.9 2.8c2.8 1.1 5.3 2.8 7.2 5.3.4.5.7.2 1 0 .6-.1.2-.4.1-.6-.5-1.1-1-2.2-1.2-3.3 0-.4-.2-.5-.5-.6-1.5-.7-3-1.4-4.5-2.3-.6-.4-1.1-.9-1.5-1.5a14.8 14.8 0 00-6-5c-.3-.2-.6-.3-.8-.7-.2-.4-.1-.8.2-1.2.2-.3.6-.4 1-.3 2.4.4 4.4 1.5 6.1 3.2a8 8 0 002.8 1.7c2.7 1 5.6 1.6 8.5 2 .3.1.6 0 .8-.3V27c.8-.8 1.3-1.8 1.5-2.9.3-1.2 1.3-2 2-3 1.3-1.4 2.2-3 2.5-4.9 0-.7-.2-1-1-1l-2.5.2-3.3.1c-1 0-1.8-.3-2.2-1.3-.1-.3-.4-.4-.7-.5a5.4 5.4 0 01-3-2.9c-.5-.9-.2-1.5.8-1.8.2 0 .2-.1.2-.3V6.9c0-.3-.2-.6-.4-.6-.3 0-.3.3-.3.5L78 9.6a4.7 4.7 0 01-2.4 3c-1 .5-1.8.4-2.6-.2-.8-.5-1.5-1.2-2.1-2-.4-.4-.4-1 0-1.4.3-.5.8-.5 1.3-.2l1 .5c.5.4.8.1 1-.4.4-1.7.4-3.4.2-5.2V2.2c0-.8.4-1.2 1.3-1.3 1-.2 2-.1 3.1-.1l4 .1c1.7.1 2.4.8 2.5 2.5v2.3c0 .4 0 .7.3 1l.3.3c.8 1 1.7 1.3 3 .8 2-.8 4-1.2 5.7-2.4a3 3 0 012.7-.5c.4.1.8.3 1 .7.8 2.2 2.1 4 3.5 5.7 2.3 3 4.7 6 7.4 8.6l1 1c.6.5.7 1 .3 1.6a6.2 6.2 0 00-.6 5.6c.2.4 0 .8 0 1.2l-.8 1.8c-.8 2-.5 3.5 1.1 5a18.5 18.5 0 016.4 10c.6 2.4 1.5 4.7 3.1 6.6.6.7 1.2 1.3 2 1.9l.4.4c.4.4.6.8.3 1.4-.2.5-.7.6-1.3.5-1-.2-2-.5-2.9-1 0 .6.2 1 .4 1.4 1.6 3.3 3.9 6 6.8 8.3 1 .7 1.1 1.1.6 2.2-.3.4-.2.7.1 1 1.6 1.7 3.6 2.8 5.5 3.9 1.1.7 2.3 1.4 3.3 2.2.6.4 1 1 1.4 1.4a24 24 0 0012.8 7.4c2.5.5 4.7 1.6 6.7 3 7.4 5.1 15 9.5 23.2 13.2l.5.3c.5.3.7.7.6 1.2 0 .5-.4.7-.9.8-3.1.8-6.2.4-9.2-.6-2.7-.8-5.2-2.2-7.6-3.6-1.4-.8-2.8-1.4-4.2-2-2.8-.9-5.4-2.4-8-4-3.5-2.1-7.2-4-10.9-6a37 37 0 01-6.2-4.4c-.3-.3-.7-.4-1.1-.5-4-1.1-7.7-2.7-11.2-4.9l-.2-.1s-.1-.1-.2 0c.4 1.3-.1 2.3-1 3-2 1.5-3.4 3.7-4.7 5.8-2.7 4.6-5 9.5-6.9 14.6-.6 1.6-1.4 3.2-2.3 4.7-.9 1.4-2 2.3-3.8 2l1.1 4c1.6 5 3.4 9.8 6.3 14.2.9 1.3 1 2.5.9 4a252.3 252.3 0 00-1.1 26.9c.2 3.7.5 7.4 1.6 11 .2.8 0 1.3-.6 1.6-.5.2-1 0-1.5-.7a37.4 37.4 0 01-4-8.6c-.2-.4-.5-.4-.7 0-.6 1-.7 2-.4 3l.5 1.8c.6 2.2-.4 4-1.8 5.5-.4.3-.8.4-1.3.1-.5-.3-.5-.8-.4-1.4.3-1.1.3-2.2.1-3.4l-.3-1c-.1-.5-.3-.4-.7-.1-.8.9-1.4 2-2 3l-.3.8c-.4.4-.8.7-1.4.4-.6-.2-.7-.7-.6-1.3.1-.5.3-1 .3-1.6 0-.5-.2-1-.6-1.4-.2-.3-.4-.3-.6 0l-.3.9a31.9 31.9 0 01-6.6 13.8c-.8 1-1.6 1.7-2.6 2.5-.5.3-1 .3-1.5 0-.3-.4-.4-1.1 0-1.6 1.6-1.8 2.2-4 2.5-6.5.3-2.1.3-4.3 0-6.4v-.6c-1 1-1.5 2-2.1 3-2 3.7-3.5 7.5-4.5 11.6v.2c-.2.6-.6 1-1.2.9-.6 0-1-.5-1-1.1v-3.3-4c-1.5 1.6-3.1 3-3.2 5.6-.2 5-1.1 9.7-3.6 14-.6 1.1-1.3 2-2.2 2.9-.7.6-1.2.7-1.7.3-.4-.4-.4-1 0-1.7 1-1.4 1.1-3 1.3-4.5.2-1.9.1-3.7 0-5.6 0-.1 0-.3-.2-.4-.6 2-1.1 4-1.4 6-.4 2.3-.5 4.6 0 7 0 .5-.2.9-.6 1-.6.3-1.1.2-1.5-.3a37.6 37.6 0 01-5-14.8l-.5 3.4c-.5 3.3-1.6 6.4-3.8 9a13 13 0 01-2.2 2c-1 .7-1.4.6-2-.4a15.8 15.8 0 01-6 3.4c-2.2.7-4.4 1-6.8.4-.6-.2-1-.4-1.1-1.2 0-.7.4-1 1-1.1a16 16 0 008.2-7l.3-.5h-1c-.6-.3-.9-1-.5-1.7.4-.6.8-1.2 1-1.8.1-.4 0-.6-.4-.6-.6 0-1.1.2-1.6.3-.6.2-1.1.2-1.4-.4-.3-.5-.2-1.1.3-1.6a28 28 0 003.5-3.5c.5-.6.9-1.2 1.1-2l-.9.7c-2.8 2.7-5.6 5.3-7.8 8.5-.4.6-1 .7-1.6.4-.4-.2-.6-.8-.3-1.4.8-2.3 1.7-4.5 2.7-6.6.8-1.7 2.2-3 3.4-4.4 1.9-2 3.8-3.9 5.5-6 1-1 1.5-2 1.7-3.4.1-1.2.3-2.4.2-3.7l-3.2 3.4a44.3 44.3 0 01-8.4 7c-.9.6-1.8 1-2.8 1.2-.4.1-.8 0-1.2-.1-.6-.4-.7-1.3-.1-1.6 3-1.9 4.7-4.7 6.5-7.5 3.8-5.7 8-11.2 12-16.7a102 102 0 009.8-16.4v-.3c-.6.2-1.2.4-1.7-.1V134.4c-.1.6-.3 1.1-1 1.2-.7 0-1-.4-1.2-1l-.8-2.9c-.4.5-.8.7-1.3.7-.5-.1-.7-.4-1-.8a15 15 0 01-1.7-2.6c-.1-.3-.2-.4-.6-.2-.6.4-1.2.2-1.5-.4a23.9 23.9 0 01-2.7-10c0-1.2.5-2.2 1-3.2 1-2.2 2.2-4.3 3.5-6.3.3-.4.3-.6.3-1-1-6.3-1.9-12.6-2.4-19 0-.4-.1-.6-.4-.8a11 11 0 01-3.5-3.8c-.3-.5-.4-1-.3-1.6a42.1 42.1 0 00-1-12.5c-.2-.5-.1-1 .2-1.3.4-.4.8-.4 1.3-.2l1.5.9V69c0-.5.2-.9.8-1 .5-.2.8 0 1.1.4a9 9 0 002.2 1.9c.5.3.8.2 1-.2 1-1.4 1.1-3 1.3-4.5.2-2-.3-3.8-.5-5.8v-.8c.1-.4 0-.7-.2-1.1-.3-.5-.1-1.1.3-1.6.9-1.2.6-2.4-.7-3.1-1.4-.8-2.8-1.4-4-2.4a5.4 5.4 0 01-1.8-2c-.2-.5-.3-1 0-1.5.3-.6.9-.5 1.4-.3h.1V47zM52 195.2l.2-.2s.2 0 0-.1c0-.1 0 0-.1 0 0 .1-.2.1-.1.2-.1 0-.2 0 0 .2h-.3.2l.1-.1zM51 73.7v.2l.8.7c.4.4.5.8.1 1.3-.4.4-.8.2-1.2-.1-.8-.8-1.5-1.7-1.4-3 0-1.5-.8-2.7-2-3v-.1c-.2 0-.1 0 0 .1l.7 3c.5 3.3.4 6.7.2 10 0 .4 0 .8.3 1.1a9.2 9.2 0 003 3.2c.7.5 1 1 1 1.9.5 6.4 1.4 12.7 2.3 19 0 .5 0 .9-.3 1.3-1.5 2.3-2.9 4.8-4 7.3-.4 1-.5 1.8-.5 2.7.1 1.1.3 2.2.6 3.2.4 1.7 1 3.4 1.8 5v.1h.1v-.2-.6c-.4-2.1-.4-4.3-.4-6.5l.2.7c.6 3.2 1.5 6.2 3.2 9 .3.3.5.8 1 1v-.4c-1-3.5-1.2-7-1.2-10.6l4.2 14c0-5.2.2-10.3.9-15.6 1.2 1.9 2.1 3.6 3 5.3.5.8.6 1.7.5 2.7-.2 1.5-1 2.8-1.9 4.1v.2h.1c1.4-.8 2.5-1.9 3.4-3h.2l-2.2 4.6a105 105 0 01-11.4 18.9 175 175 0 00-12.4 17.3 17.2 17.2 0 01-4.6 4.8c.5 0 .8-.1 1.1-.3 1.3-.4 2.4-1.1 3.4-2 4-3 7.4-6.5 10.6-10.2.1-.2.2-.6.5-.5.3.1.2.5.3.7.2 1.3 0 2.5 0 3.7-.2 2.6-1 4.9-2.9 6.8l-4.8 5.2c-1 1-2 2-2.7 3.1-1.2 2.2-2.1 4.5-3 6.8v.3A72 72 0 0149.5 175c-.8 4.2-3.2 7.3-6.3 10l2-.3c1.2 0 1.7.6 1.4 1.8-.2.7-.6 1.3-1 2 0 .1 0 0 .1 0 1-.6 2-1.4 2.8-2.2-1.7 5.8-5.2 10-10.9 12.1.2.2.3.2.5.2 3.3.7 6.4-.1 9.2-1.8 4.6-2.8 6.8-7.2 7.6-12.4.2-1.2.3-2.5.3-3.7.6 2.4 1 4.9.4 7.4a17 17 0 01-3.2 6.6h.2l.4-.4c1.8-1.7 3-3.8 3.6-6.1 1-3.4 1.2-6.9 1.1-10.3 0-.5.1-.8.4-1.1l3.3-3.6.6-.4-.8 2.8c-.6 2.5-1.5 5-1 7.7.6 4.2 1.8 8.1 4 11.8l.6.7a38 38 0 013-17.5l.2.7c.5 2.1.7 4.2.8 6.3 0 2.8-.1 5.6-1.3 8.2v.3l.1-.1c1-1 1.7-2.1 2.3-3.4 1.8-3.7 2.7-7.8 2.8-12a8 8 0 011.8-4.9 17 17 0 014-3.4 75.4 75.4 0 00-.1 8.6 42.5 42.5 0 016.8-14.7c.3-.3.6-.8 1-.6.4 0 .4.6.5 1 .5 2.6.5 5.4.1 8-.2 2.2-.8 4.2-2 6 0 .1-.2.2-.1.5l.3-.3 1.6-1.6c3.2-3.8 5.2-8.3 6.3-13.2.1-.5.2-1 .6-1.5.5-.7 1.4-.8 2-.2.5.4.8 1 1 1.6.1.7 0 1.4-.1 2.3l1-1.9a9 9 0 011.2-1.5c1.3-1.4 2.1-1.2 2.7.6.5 1.5.5 3.1 0 4.9 1.5-1.6 2.2-3.1 1.4-5l-.4-1.4c-.3-1.3-.1-2.6.7-3.8.7-1 1.6-1 2.3 0l.7 1.6c.8 2.3 1.8 4.4 3 6.5 0 .2.1.4.4.5v-.3a57.5 57.5 0 01-1.6-14.2c-.1-8 .4-15.8 1.2-23.6 0-1.3.1-2.5-.8-3.5-.2-.1-.3-.4-.4-.6a68 68 0 01-7.2-18.3c-.1-.4-.3-.8-.2-1.3l.6.3c1.5.6 2.4.3 3.4-1 .4-.5.8-1.1 1.1-1.8 1-2 1.7-4 2.5-5.9 2.1-5 4.5-10 7.6-14.5.8-1.3 1.8-2.5 3-3.3.5-.3.7-.8 1-1.3 0-.2 0-.4-.2-.5-.7-.3-.3-.6 0-1l.5-1c.2-.3.3-.2.6 0a37 37 0 0012.3 5.5c.3 0 .5.2.8.4 2 1.7 4 3.3 6.3 4.5 4.4 2.3 8.7 4.7 13 7.2 1.8 1.1 3.8 2.2 6 2.9 1.2.4 2.4 1 3.6 1.6 1.8 1 3.5 2 5.3 2.8 2.8 1.3 5.6 2.1 8.7 2 .9 0 1.7-.1 2.6-.4l-.4-.2c-8.4-3.8-16.3-8.4-23.8-13.6a16.3 16.3 0 00-5.8-2.6 25 25 0 01-13.6-7.8 13 13 0 00-2.9-2.4l-4.8-3c-1-.8-2-1.6-2.9-2.7-.3-.4-.5-.7 0-1.2.6-.7.5-.9-.2-1.3-1.2-.9-2.2-1.9-3.2-3-1.8-2-3.4-4-4.2-6.7-.1-.5-.4-.3-.7-.2-1.6.3-3.1.8-4.6 1.5-.3.2-.6.2-1 0-2.2-1.8-4.4-3.7-6.9-5.1l-1.5-1c.7-.6 1.4-1.1 1.7-2-1 0-2 .2-3 .1-1.4 0-1.4 0-1.6-1.2v-.4l-.8.5c-.4.2-.8.5-1.2.2-.3-.2-.3-.7-.1-1 .2-.7-.2-.7-.6-.6-.6.1-.8-.1-.8-.7l-.1-.3c-.3 0-.8.3-.7-.2 0-.7-.3-1-.7-1.4-.3-.2-.3-.5-.3-.8 0-.8.3-1.4.8-1.8.5-.3.7-.7.8-1.3a2 2 0 011-1.5h.2c-.7 1.3-1.3 2.6-1 4 .5-.2.9-.5 1.3-.2.5.3.5.8.3 1.4v.5h-.1c.7-.2 1.3-.6 2-.6.4 0 .5 0 .4.4l-.6 1.7v.1c.9-.1 1.3-.9 2-1.4.2 1.2-.3 2.2-.6 3.3.7 0 1.2-.2 1.7-.5l1.5-1.3c.1.6-.3 1-.5 1.4v.3l.1-.1c.7-.6 1-1.4 1.5-2.2.2.6.1 1 0 1.5 0 .4-.3.8-.1 1.2h-.1c.8-.7 1-1.6 1.1-2.4.2-.7.5-1.3 1-2 1 2 2.6 3 4.6 3.5l1 .4c1 .4 1.5 1 1.9 2 1 2.4 2.8 4 5.3 5 .5.1 1 .4 1.5.3l-.1-.2c-3-2.3-4.7-5.4-5.5-9-1-3.8-3.1-7-6.1-9.6a6 6 0 01-1.6-2c-.5-1.3-.7-2.5-.1-3.7l.9-2.2v-.9c-.6-2-.4-4.1.7-6 .2-.3.2-.4 0-.6a62.6 62.6 0 01-7.7-8.5c-1.7-2.1-3.4-4.3-4.4-6.8-.2-.3-.4-.4-.7-.4a3 3 0 00-1.9.7c-.7.5-1.5.8-2.3 1.1a71 71 0 01-4.7 1.6l-1-.1c-1-.6-1.7-1.4-2.4-2.2-.2-.3-.3-.6-.2-1V3.4c0-1-.3-1.3-1.3-1.4h-6.6c-.7 0-1 .2-.8.8a17.1 17.1 0 01-.5 6.8c-.4 1.1-.8 1.3-1.9.9-.3-.1-.6-.4-1-.3a9 9 0 001.7 1.5c.4.2.8.2 1.2 0 1-.5 1.7-1.2 2-2.3l1.1-4.1c0-.2 0-.4.3-.5.5 0 2.2 1 2.2 1.6.2 1.5 0 3-.2 4.6l-.8-.6-.1-.1v.2c.5 1.1 1.4 1.9 2.5 2.3.4.2.9.3 1 .7.4 1 1.2 1 2 1 1.8 0 3.5-.2 5.3-.3.8 0 1.4.3 2 .8.3.4 0 1 0 1.4l-.1.6a12 12 0 01-3.3 5.7c-.5.6-1.1 1.3-1.2 2.1 0 1-.6 1.7-1.2 2.4-.4.5-.8 1-.5 1.7-3-.4-5.9-1-8.7-1.8-2-.6-3.8-1.4-5.3-2.9a9 9 0 00-3.8-2.3c-.3 0-.6-.2-1-.1l.6.4c2.2 1.1 4 2.7 5.5 4.7a6 6 0 002 1.8l1.8 1c3.6 1.8 7.3 3.1 11.3 4.2-2 .5-3.9.1-5.8-.4.6 1 1.3 1.7 2.1 2.3-2.2-.6-3-2.7-4.5-4.1l.1.7c.3 1.1.9 2.2 1.3 3.3.3.7.2 1-.5 1.3l-1.4.5c.5.5 1.1.5 1.7.7.4.1.8.3.8.9 0 .6 0 1.2-.3 1.7-1-.6-2-1.5-3-3.2a14 14 0 00-7.3-5.8 31.5 31.5 0 01-8-4.4c-1.3-1-2.4-2-3.2-3.3-.2-.4-.4-.6-.7-.7a33.3 33.3 0 01-6.5-4.3 16.7 16.7 0 01-5.6-8c-.2-.5-.4-.9-.7-1.2l-5-4c-1.8-1.3-3.6-2.5-5-4.2-.5-.5-.8-.6-1.4-.4a27.5 27.5 0 00-20.8 22.5c-.5 2.6.3 4.5 2.1 6.2a16 16 0 005.7 3.5c.1 0 .3.2.5 0a19 19 0 01.9-4.2 83.4 83.4 0 019-17.9c.3-.3.4-.3.7 0A37.8 37.8 0 0045.2 18c1.7 1.1 3.3 2.3 4.9 3.6 1.7 1.4 3.4 2.9 4.6 4.9.6 1 1.5 1.8 2.4 2.5.7.4 1.3 1 2.1.6a50.1 50.1 0 0111 7.7c.1.1.3.2.3.5a9.3 9.3 0 01-5.6-3.5v.7c1 2.9 3 4.7 5.7 5.7l1.2.5c.8.4 1.2 1 1 1.5-.1.6-.7.8-1.7.7-1.1-.2-2.3-.5-3.4-1-.5-.1-1-.5-1.3-1-.3-.4-.7-.8-1.2-1.1 0 0-.1-.1-.2 0 .9 1.3 1.8 2.5 3.3 2.9.4 0 .6.3.9.5l.3.4c0 .2-.3.2-.5.2l-2.8.3c-4.1 0-8.3.2-12.3-1.7-1.4-.7-3-1-4.6-1.2l.4.2c1.1.6 2.2 1.3 3 2.4.1.1.4.4.2.6h-.6c-1-.2-1.8-.6-2.6-1-.8-.5-1.7-.7-2.4-.5l.7.3c1.2.5 2.4 1.3 3 2.6a5.3 5.3 0 003 2.2l.8.5c-1.8.4-3.4.4-4.9-.6l-.2-.1v-.1c-.1 0 0 0 0 .1l.1.3a5 5 0 001.8 1.7c1.1.8 2.3 1.4 3.5 2 .8.4 1.4 1 1.6 2 .2 1 0 1.8-.6 2.6-.2.1-.6.4 0 .5.6.2.7.7.8 1.2 0 .3.2.7-.1.8-.3 0-.4-.3-.5-.5h-.1v1.8c.5 2 .6 4.1.3 6.2-.3 1.6-.6 3-1.7 4.3-.5.5-1 .6-1.6.3-1.1-.5-2-1.3-2.8-2.1v-.2c-.2 0-.1.2 0 .2 0 .3 0 .6.2.9l1.3 2.5c.2.3.4.7 0 1-.2.2-.5 0-.8-.2H51l-.1-.2c-.1.1 0 .2 0 .2zm53.4-22l2.2 1.5c1.7 1 3 2.4 4.7 3.5.1.1.3.3.6.1a20 20 0 015.2-1.5 8.4 8.4 0 01-3.2-3.8A4 4 0 00111 49c-1-.3-2-.7-2.9-1.4l-1-.8c-.3 1-.4 2-1.1 2.6-.8.7-1 1.6-1.7 2.3zm-43.8 78.6c1-1.1 1.7-2.2 2-3.4.2-.8.4-1.5.1-2.2-.4-1-1-2-1.6-3-.3 2.9-.5 5.7-.5 8.6zm-1.8 50.5l.9-4c-.3.4-1 .6-.9 1.2v2.8zM46.9 43.3h.2-.2zm3.8 30zM72.2 10H72zM43 185v.1zm21.8 11z"/><path class="stl_old_st1" d="M97.7 45.2l.1-.6c.1-.5.1-1-.3-1.3-.5-.3-.8 0-1.3.3-.3-1.6.3-2.8 1-4v-.2h-.1A2 2 0 0096 41c-.1.6-.3 1-.8 1.3a2 2 0 00-.8 1.8c0 .2 0 .6.2.8.5.3.8.7.8 1.4 0 .5.4.2.7.2v.3c0 .6.3.8.9.7.4-.1.8-.1.5.6 0 .3-.2.8.2 1 .4.3.8 0 1.1-.2l.8-.5.1.3c.2 1.3.2 1.3 1.5 1.3 1 0 2 0 3-.2-.2 1-1 1.5-1.6 2l1.5 1c2.5 1.5 4.7 3.4 7 5.1.3.3.6.3 1 0 1.4-.6 3-1.2 4.5-1.5.3 0 .6-.2.7.3.8 2.6 2.4 4.7 4.2 6.7 1 1.1 2 2.1 3.2 3 .7.4.8.6.2 1.2-.5.6-.3.9 0 1.3.8 1 1.8 1.9 2.9 2.7l4.8 3c1 .6 2 1.4 2.9 2.4a25 25 0 0013.6 7.8c2.1.5 4 1.3 5.8 2.6 7.5 5.2 15.4 9.7 23.7 13.5.2 0 .3.2.5.3-1 .3-1.8.3-2.6.4-3 .1-6-.7-8.7-2-1.8-.8-3.6-1.8-5.3-2.8-1.2-.6-2.4-1.2-3.7-1.6-2.1-.7-4-1.8-6-3l-12.9-7.1a33 33 0 01-6.3-4.5l-.9-.4a37 37 0 01-12.2-5.5c-.3-.3-.5-.3-.6 0l-.6 1c-.2.4-.6.7.1 1 .3 0 .2.3.1.5-.2.5-.4 1-.9 1.2a12 12 0 00-3 3.4c-3.1 4.5-5.5 9.4-7.6 14.5-.8 2-1.5 4-2.5 5.9a12 12 0 01-1.1 1.9c-1 1.2-2 1.5-3.4.9l-.6-.3a68 68 0 007.4 19.6l.3.6c1 1 1 2.2.9 3.5-.8 7.8-1.3 15.7-1.2 23.6 0 4.8.3 9.5 1.6 14.2v.3c-.3-.1-.3-.3-.4-.5a36 36 0 01-3-6.5l-.7-1.5c-.7-1-1.6-1-2.3 0-.8 1-1 2.4-.7 3.7 0 .5.2 1 .4 1.3.8 2 0 3.5-1.3 5a9 9 0 00-.1-4.8c-.6-1.8-1.5-2-2.7-.6-.5.4-.8 1-1.2 1.5l-1 1.8c0-.8.2-1.5 0-2.2-.2-.6-.4-1.2-.9-1.6-.7-.6-1.5-.6-2 .2-.4.5-.5 1-.6 1.5-1.1 4.9-3 9.4-6.3 13.2l-1.6 1.6-.3.3c-.1-.3 0-.4.1-.5a14 14 0 002-6c.4-2.6.4-5.4-.2-8 0-.4 0-1-.4-1-.4-.2-.7.3-1 .6a42.8 42.8 0 00-7 15.3c-.2-3 0-6 .2-9.2a17 17 0 00-3.9 3.4 8 8 0 00-1.8 5c-.2 4.1-1 8.1-2.8 12-.6 1.1-1.3 2.3-2.3 3.2 1-2.7 1.2-5.5 1.2-8.3a31 31 0 00-.8-6.3l-.2-.7c-2 5.7-3.8 11.4-3 17.5l-.6-.7a33.3 33.3 0 01-4-11.8c-.5-2.7.3-5.2 1-7.7l.8-2.9-.6.5-3.3 3.6c-.3.3-.4.6-.4 1 .1 3.5 0 7-1 10.4-.8 2.3-2 4.4-3.7 6.1l-.4.4h-.3a17 17 0 003.3-6.6c.5-2.5.2-5-.4-7.4 0 1.2-.1 2.5-.3 3.7-.8 5.2-3 9.5-7.6 12.4-2.8 1.7-6 2.5-9.2 1.8-.2 0-.3 0-.5-.2 5.7-2.2 9.2-6.3 10.9-12.1-.9.8-1.7 1.6-2.8 2.2.2-.7.7-1.3.8-2 .4-1.2-.1-1.8-1.3-1.8l-2 .2c3.1-2.6 5.5-5.7 6.3-10a71.6 71.6 0 00-12 11.8v-.2c1-2.3 1.8-4.7 3-6.8.8-1.2 1.8-2.1 2.7-3.2 1.6-1.7 3.2-3.5 4.9-5.1 2-2 2.7-4.2 2.8-6.8.1-1.2.2-2.5 0-3.7 0-.2 0-.6-.2-.7-.3 0-.4.3-.5.5A69.8 69.8 0 0139.6 171c-1 .8-2.2 1.5-3.4 2l-1.1.2c2-1.3 3.3-3 4.6-4.8l3-4.5c3-4.4 6-8.7 9.4-12.8a105 105 0 0011.4-19l2.2-4.4v-.2h-.2c-1 1.2-2 2.3-3.4 3l-.1-.1a9.2 9.2 0 001.9-4.1c0-1 0-1.9-.5-2.7l-3-5.3c-.7 5.3-1 10.4-1 15.6l-4.1-14c0 3.6.2 7.1 1.1 10.6v.5c-.4-.3-.6-.8-1-1.2a24.5 24.5 0 01-3.1-8.9c0-.2 0-.5-.3-.7 0 2.2 0 4.4.4 6.5v.6a20.4 20.4 0 01-2.4-8c0-1 0-1.9.4-2.8 1.2-2.5 2.5-5 4.1-7.3.3-.4.4-.8.3-1.3-1-6.3-1.9-12.7-2.3-19-.1-1-.4-1.4-1.1-1.9a9.2 9.2 0 01-3-3.2 2 2 0 01-.2-1.2 45 45 0 00-.3-9.9c-.1-1-.4-2-.7-3 1.2.3 2 1.5 2 3 0 1.3.7 2.2 1.5 3 .4.3.8.5 1.2 0 .4-.4.3-.8-.1-1.2L51 74l.1-.2c.3.1.5.4.8.2.3-.3.1-.7 0-1l-1.3-2.5-.3-.9c1 .8 1.8 1.6 2.9 2 .6.4 1 .3 1.6-.2 1-1.2 1.4-2.7 1.7-4.3.3-2 .2-4-.2-6.1-.2-.7-.2-1.3-.1-2h.1c.1.3.2.7.5.6.3-.1.1-.5.1-.7-.1-.6-.2-1-.9-1.2-.5-.2 0-.5 0-.6.8-.8.9-1.7.7-2.6-.2-.9-.8-1.6-1.6-2-1.2-.6-2.4-1.2-3.5-2a5 5 0 01-1.8-1.7l.1-.1c1.5 1 3.1 1 4.9.5-.3-.3-.6-.4-.9-.4a5.3 5.3 0 01-2.8-2.3c-.7-1.3-1.9-2-3.1-2.6l-.8-.3c.8-.2 1.6 0 2.4.5.9.4 1.7.8 2.7 1 .2 0 .5.2.6 0 .2-.2 0-.4-.2-.6-.8-1-1.9-1.7-3-2.3-.2 0-.3-.2-.4-.3 1.6.2 3.2.5 4.6 1.2 4 2 8.1 1.8 12.3 1.7 1 0 1.9-.2 2.8-.3l.5-.1c0-.2-.2-.3-.3-.5a2 2 0 00-.9-.5c-1.5-.4-2.4-1.6-3.2-2.8.6.2 1 .6 1.3 1 .3.6.8.9 1.3 1 1.1.5 2.3.9 3.4 1 1 .2 1.6-.1 1.7-.7.2-.5-.2-1.1-1-1.5l-1.2-.4A8.7 8.7 0 0165 35c0-.2-.2-.4 0-.7a9.3 9.3 0 005.5 3.6c0-.4-.2-.5-.3-.6-3.2-3-6.7-5.4-10.5-7.5l-.5-.2c-.8.4-1.4-.1-2-.6-1-.6-1.9-1.5-2.5-2.5-1.2-2-2.9-3.5-4.7-5a64.8 64.8 0 00-5.6-3.9 38 38 0 01-10.7-6.3c-.3-.2-.4-.3-.6 0-3.6 5.7-7 11.5-9.1 18-.5 1.3-.8 2.7-1 4.2-.1.1-.3 0-.4 0a16 16 0 01-5.7-3.6c-1.8-1.7-2.6-3.5-2.1-6.2A27.6 27.6 0 0135.6 1.3c.6-.2.9-.1 1.3.4 1.4 1.7 3.2 3 5 4.3 1.7 1.3 3.4 2.5 5 4 .4.2.6.6.7 1 1 3.3 3 5.9 5.6 8 2 1.8 4.2 3.2 6.5 4.4.4.1.6.3.8.7.7 1.3 1.9 2.4 3.1 3.3 2.5 1.9 5.1 3.3 8 4.4a14 14 0 017.4 5.8c1 1.7 1.9 2.6 3 3.2.2-.5.3-1 .3-1.7 0-.6-.4-.8-.9-1-.5 0-1.1-.1-1.6-.6L81 37c.7-.3.8-.6.6-1.3-.5-1.1-1-2.2-1.3-3.3l-.1-.7c1.5 1.4 2.3 3.5 4.5 4.1-.8-.6-1.5-1.3-2.2-2.3 2 .5 3.8.9 5.8.4-4-1-7.7-2.4-11.2-4.2l-1.9-1c-.8-.4-1.4-1-2-1.8a15 15 0 00-5.4-4.7l-.6-.3v-.1c.3-.1.6 0 1 .1a9 9 0 013.8 2.3c1.5 1.5 3.3 2.3 5.2 3 2.9.8 5.8 1.3 8.8 1.7-.3-.7 0-1.2.5-1.7.6-.7 1.1-1.3 1.2-2.4 0-.8.6-1.5 1.2-2a12 12 0 003.3-5.8v-.6c.1-.5.4-1 0-1.4-.5-.5-1.2-.9-2-.8l-5.2.3c-.9 0-1.7 0-2-1-.1-.4-.6-.5-1-.7-1.2-.4-2-1.2-2.5-2.3v-.1l1 .6c.2-1.6.2-3 .1-4.6 0-.5-1.7-1.7-2.2-1.6-.3 0-.3.3-.3.5l-1.1 4.1c-.3 1.1-1 1.8-2 2.3a1 1 0 01-1.2 0l-1.7-1.5c.4 0 .7.2 1 .3 1 .4 1.5.2 2-.9.3-1 .4-2.2.5-3.3 0-1.1 0-2.3-.2-3.5 0-.6.2-.9.8-.9L83 2c1 .1 1.3.4 1.3 1.4V6c0 .4 0 .7.2 1 .7.8 1.5 1.6 2.5 2.2a71 71 0 008-2.6 3 3 0 011.8-.7c.3 0 .5.1.6.4 1 2.5 2.8 4.7 4.5 6.8 2.3 3 4.8 6 7.6 8.5.3.2.3.3.1.6a7 7 0 00-.7 6v.9l-1 2.2c-.5 1.2-.4 2.5.2 3.7a6 6 0 001.5 2c3 2.6 5.2 5.8 6.1 9.7 1 3.5 2.6 6.6 5.6 9l.1.1c-.6 0-1-.2-1.5-.3a8.8 8.8 0 01-5.4-5c-.3-1-1-1.6-1.8-2l-1-.4c-2-.5-3.6-1.6-4.6-3.4-.5.6-.8 1.2-1 1.9-.2.8-.3 1.7-1 2.4-.2-.4.1-.8.1-1.2.1-.5.2-1 0-1.5-.5.8-.8 1.6-1.5 2.2v-.2c.1-.4.5-.8.4-1.4-.5.4-1 1-1.5 1.3-.5.3-1 .6-1.7.5.3-1 .8-2 .6-3.3-.7.5-1.1 1.3-2 1.4l.6-1.7c0-.4 0-.5-.4-.5-.7 0-1.3.4-2 .6zM46 176l.2-.2c1-.7 2-1.5 3.1-2 .5-.2 1-.4 1.5-.4.3 0 .5 0 .5.4.4 4.5-.1 9-1.7 13.2a22 22 0 01-6.4 9.6l-1.8 1.3c.5 0 1-.2 1.4-.3a15 15 0 0010-9.5c.7-2.2 1-4.5 1.2-6.8.1-1 0-1.9.5-2.7a21 21 0 002-4.7c1.9-6.9 2.8-13.8 2.5-21l.2.5c1.6 4.8 1.9 9.7 1 14.7-.4 1.8-1 3.5-1.5 5.3v.1l.4-.5a68.8 68.8 0 005-7.2c.6 1.8.8 3.6.8 5.4 0 3-.6 6-1 8.8a31 31 0 00-.7 6.4c0 .9.1 1.7.5 2.5v-.6c0-3 .5-6 1.7-8.9.4-1 .9-1.8 1.7-2.5.7-.5.8-.5 1.2.3l.4.9c1 3 1.3 6.1 1.2 9.3l-.1 1.4c.5-.6.7-1.3.8-2 .6-3 .6-6 .9-9 .1-1.9.2-3.7 1-5.5.7-1.2 1.1-2.5 1.5-3.9 1.7-6.1 2.7-12.4 3.7-18.8L79 139c.2.1.2.3.2.5.8 3.7 1 7.4 1 11.1 0 3.7-.2 7.5-.5 11.2l-1 9.2-.4 4.3.3-.4 2-6.1c1.6-6 2.7-12 3.5-18a198.3 198.3 0 001.7-32.1l-.5-13.7c-.1-3 .1-6.2.2-9.2l.2-4.7c0-1.1.1-2.2-.3-3.4l-7-18.5c-.2-.4-.3-.7.1-1 .3-.3.4-.6.5-1 0-.3.1-.6-.1-.8-.3-.1-.5 0-.7.2-.5.2-1 .6-1.7.5 2-1.6 3.6-3.3 4.6-5.6-1.8.6-3.5 1.3-5.5 1.2.8-.8 1.6-1.3 2.2-2.2l-2.2-.1c-.4-.1-.4-.2-.3-.5A27.7 27.7 0 0077 47.5c-.1-.5-.3-.7-.8-.7H74c-1.5-.2-3-.6-4.6-1-2.5-.4-5-.4-7.6-.3-2.7 0-5.3-.4-7.7-1.6-.1-.1-.3-.2-.4-.1l.1.2.6.5a8.9 8.9 0 005.1 1.7c1.3 0 2.5.2 3.4 1.2h-.1c-2.4-.9-5-.8-7.4-.7-1.3 0-2.5-.1-3.8-.6h-.1c.7 1 1.7 1.3 2.7 1.7 1.5.5 3.1.7 4.7 1 .8 0 1.6.2 2.4.6.2 0 .3.2.3.5 0 .2-.2.3-.4.4l-1.4.2c2.5 1 4 2.8 5.8 4.7-1 0-1.7-.5-2.5-1a6 6 0 002.8 3.3c-1.4.1-2.5-.1-3.7-.3 2 2 4.1 3.4 7.1 3.3.8 0 1 0 1 .8 0 1.2-.6 1.9-1.6 2.4a6 6 0 003.9-1.5c-.2 1.6-.6 3-1.5 4.3-.3.5-.3 1 0 1.4.4 1 1 2 1.6 2.8A22 22 0 0176 78l.5 3.2c.2.9.3 1.8.1 2.7a2 2 0 00.6 2.2c1.4 1.4 2.6 2.9 4.3 4 1.8 1.4 2.6 3.5 3 5.7h-.2l-.2-.3a6.3 6.3 0 00-3.3-3.5l-1.2-.7-.8-.4c2.2 6 3.3 12.2 2.3 18.5v-1.7c0-2.6 0-5.3-.7-7.9-.5-2-1.2-3.8-2.6-5.3v-.1a26.2 26.2 0 011.6 10.2 58.8 58.8 0 01-2.5 16.3l.5-5c0-1.7.2-3.3 0-5 0-2-.4-4-1-4.8l.2 1c.2 6-.2 11.9-1.6 17.7-.9 3.5-2 6.9-3.8 10-.3.4-.4.8-.9 1.1a87.7 87.7 0 001-13.5c-1 3.6-2.5 7.1-4.3 10.5-4 7.9-8.8 15.2-14.1 22.2-.2.2-.4.4-.4.8.3 1.5.4 3 .5 4.6.2 3.2 0 6.4-1 9.6-.1.4-.3.6-.7.9a24.6 24.6 0 00-5.3 5s-.1 0 0 0zm5.8-89.7h.1c0-.1-.1-.2-.2 0zM66.4 37s0-.1-.2 0h.1l.1.2c.4.8 1 1.4 1.8 1.9 1.1.8 2.4 1.3 3.7 1.8.6.3 1.1.5 1.5 1 .7.7.5 1.3-.3 1.7-.8.3-1.6.6-2.5.5.7.6 1.5.8 2.3 1 1.7.5 3.4.4 5.2.6 2 .1 3.7.9 4.4 3 0 .2.1.3.3.4 1.2.7 1.4 1.3.9 2.6 0 .1-.2.3 0 .4.6 1.6.9 3.3 1 5.1l.8-2.2c.1-.3.3-.8.7-.7.4 0 .5.5.6 1 .2 1.2 0 2.4.1 3.5 0 .7.2 1.3.7 2a8 8 0 01.7-2.5l.7-1.6c.1-.3.2-.7-.2-1a14.5 14.5 0 01-4-5.7c-.9-2-2.2-3.7-4.2-4.7-.9-.4-1.6-1-2.2-1.7a2.8 2.8 0 00-2-1.3c-1-.2-2-.6-2.8-1.3-.2-.2-.4-.3-.3-.6l.6.3.1.2v-.2c-.3-1.3-.6-1.6-1.8-1.7a11.4 11.4 0 01-5.8-2zM89 43.5h-.1.2c.6-.3 1.2-.7 2-.6.4 0 .7.1 1 .6 0 .3-.1.7-.4 1-.5.5-1.1.8-1.8 1-.5 0-1.1 0-1.7.2a5 5 0 002.7.7c1.1 0 1.6.7 1.2 1.7-.1.4-.5.7-.9 1.1 1.2-.2 2.3-.7 3.3-1.3 0 .4-.2.6-.3.9a8.6 8.6 0 01-2.4 3h-.1l.9-.1 3.7-1c.4 0 .9-.1 1.2.3.3.4 0 .8-.1 1.2-.4.8-1 1.5-1.8 2.2 1.2-.3 2-1.1 3.1-1.6 0 .7-.6 1.1-1 1.8 1.2-.6 1.7-1.5 2.3-2.4.7 2 0 3.7-.5 5.6.6-.5.9-1 1-1.6.5-1.1.7-2.4.8-3.6 0-.4.1-.7.5-1 .4-.3 1-.6 1.4-1.2-1 .1-1.8.3-2.7.2-.5 0-1 0-1.1-.5-.2-.5-.4-.4-.8-.4-1.1.2-1.6-.2-1.7-1.2 0-.4-.1-.4-.4-.3-.4 0-.7 0-.7-.6 0-.2-.2-.4-.5-.5-.4-.2-.6-.6-.7-1.1 0-.3 0-.4-.2-.6-1.2-1.1-1-2.5.2-3.4.5-.3.7-.7.9-1.2.4-1.2 1.3-2 2.7-2.2l-.1.3c-.4.8-.9 1.6-1 2.5 0 .4 0 .9.6 1 .3.1.5.4.6.7.2.7.7.9 1.4.9 1 0 1 .1 1 1l.1.2c.3-.1.6-.6 1-.4.4.3.3.8.2 1.2l-.3 2a4 4 0 001.9-1.7c.4-.6 1-1 1.7-1.2l.7-.2c.5-.2.6-.4.2-.9a30.2 30.2 0 00-6-5.5c-.2 0 0 0 0 .1l.2.2.6.7 2 2.3c.6.6.4 1.5-.2 1.7-.8.2-1.6.2-2.4 0 .1-.3.6-.6.4-1h.1c-.7.2-1 0-1.2-.7-.4-1.2-.6-2.5-.8-3.7 0-.3 0-.7-.4-.9a23 23 0 00-8-4.4c-.5-.1-.9 0-1.2.4-.2.2-.2.3 0 .5.6.2 1 .5 1.5 1 .7.7.5 1.4-.6 1.7-1 .2-2 0-2.8-.5h-.2l.1.1c1 1 2.4 1.2 3.8 1.5 1 .2 2 0 3 .5.4.1 1 .3.9.9 0 .5-.6.6-1 .7a7.8 7.8 0 00-5 3.8s-.2 0 0 .1zm15.6-26.2l-.2-.2c-.7-.9-1.6-1.6-2.4-2.5-2-2.2-3.6-4.7-4.8-7.4-.3-.8-.8-1-1.5-.5l-1.5 1c-3.4 1.9-7 3.4-11 3.1l-.3.1c1.5 1 3.2 1.6 5 1.8 2.7.2 5.3-.4 7.8-1.5l-.6 2.2c-.1.8 0 1.4.7 2a15 15 0 013.5 3.4c.3.5.8 1 .9 1.5-1.3-.7-2.4-1.6-3.7-2.2-.2 0-.4-.3-.6-.1-.2.1 0 .4 0 .6.7 2.6 2.2 4.7 4 6.5.2.2.4.3.7.3 2.2.2 4.4.6 6.6 1.1.3.1.4.1.4-.2 0-1.4.4-2.7 1-4 .1-.2.2-.5-.2-.7a58 58 0 01-5-4c-.7-.7-1.6-1.3-2.3-2.2.3 0 .4.2.6.3 1 .5 1.7 1.1 2.7 1.5 0 0 .1.1.2 0zm-70.2-6.6l.3.1c0 .4.4.7.7.9l2.9 1.8c2 1.1 4.3 2 6.4 3.2 4 2.3 7.4 5 10.1 8.7 1 1.2 2 2.2 3.4 2.9h0v-.4c-1.2-1-1.8-2.2-2.4-3.5a4 4 0 00-1.5-1.5c-1.7-1.1-3-2.6-4.4-4-1.6-2-3.1-4-5.4-5-1.4-.6-2.8-1.4-4.3-1.7l-.1-.1h.1c.6.6 1.4.9 2 1.4.8.6 1.8 1 2.2 1.9l-2-1c-2.6-1.2-5.3-2.2-7.7-3.6l-.3-.1zm106.3 72h.2l.5.6a19 19 0 007 3.5c2.9.8 5.5 2.2 8 4 .2.3.6.5.6 1a27 27 0 00-12-5.2l4 2.6c3.4 2.1 6.8 4 10.6 5 1.7.6 3.4 1 4.9 2 2.2 1.4 4.6 2.4 7.2 3.1 1 .3 1.9.6 2.9.6l-1.3-.7a164 164 0 01-11.4-6.4c-2.8-1.8-5.8-3.5-8.5-5.5-1.4-1-3-1.9-4.7-2-2-.3-4-.9-5.9-1.7-.6-.3-1.2-.7-1.9-.8l-.2-.2h-.1.2zM120 70c.7 0 1.2-.4 1.8-.7a9 9 0 002.6-1.8c0-.1.4-.4 0-.5-.5-.1-.9-1-1.3-.5a31.3 31.3 0 01-3.2 3.6h.1zm-1.7-4.7l-.2-.1a20 20 0 00-4.5-5.2l-1-.6a1 1 0 00-.7-.2c-1.2.2-2.3.5-3.3 1-.3.1-.4.3-.3.6.3 1 0 2-.5 3-.2.3-.5.7-.6 1.2 0 .4 0 .7.4 1 1.6.8 3 1.8 4 3.3l1.3 1.5c.8 1 1.8 1.6 3 1.8 1.2.1 2.4.3 3.8 0l-.6-.1c-2.4-.5-4.1-1.6-4.7-4.1l-.2-1.6c-.2-.9-.3-1-1-.7l-1.8.6-.1-.1c0-.6.5-1.1.8-1.7-1 0-1.7.2-2.7.1 1.6-1 2.1-2.5 2.4-4.2.5.4.8.8 1 1.3.1.3.3.4.5.5 1.7.7 3.3 1.6 4.8 2.7 0 0 0 .1.2 0 0 .3-.3.5-.5.7a228.2 228.2 0 00-2 2.3 24 24 0 016.8-2.6l-1.2-1c-.9-1-.8-.9-2-.1-.3.2-.6.7-1.1.7zm-12.6-10.5v-.1c0 .6.4 1 .4 1.8-1.2-1.6-2.2-3-3.8-4-.1 1-.3 2-.7 3 0 .2-.2.4 0 .6 1.4 1.1 2.7 2.2 4.4 3 .6.3 1.3.3 2-.1.4-.3 1-.5 1.5-.7.7-.2.8-.3.2-.8-1.2-1.1-2.7-1.8-4-2.8zM39.3 8.6h0c-.9-.9-1.9-1.5-2.6-2.4-.5-.5-1-1-1.2-1.7 5.2 4 9.1 6.3 10.8 6l-3.5-2A25.7 25.7 0 0136.2 3c-.3-.3-.5-.3-.9-.3-1.4.3-2.7.7-4 1.3-1 .3-1.8.8-2.6 1.2v.2l3-.5c.9-.2 1.7-.2 2.4.7a8 8 0 002.5 2c.9.4 1.7 1 2.7 1zm-12.8 2.9l3.2 1.1c0 .1.1.2.2 0h-.1l-3-2.2c1.6.4 3 1 4.5 1.7h0a28 28 0 00-4-4.9c-.9-.8-.9-.8-1.8 0-1.2 1-2.3 2.1-3.4 3.4 2.8 1 5 2.5 7.4 4-.7-1.3-2-2.1-3.1-3l.1-.1zm-.3 8c0 .1.1.1.2 0h-.1c-1.6-1.4-3.3-2.4-5-3.5 1.8.4 3.5.9 5.2 1.5.5.1 1 .7 1.6.4.4-.3.6-1 .8-1.6 0-.1 0-.3.2-.4.1-.5 0-.7-.4-1l-6.9-3.3c-.3-.2-.4-.1-.6.1l-2.8 4.4c-.1.3 0 .4.3.4l2 .7c1.9.6 3.7 1.5 5.5 2.3zm82 17.2l-.5-.5c-1-.8-2-1.3-3-2l.1-.1c1.2.4 2.2 1 3.4 1.7-.5-.9-1-1.6-1.2-2.4-.2-.7-.6-1-1.2-1.3A46 46 0 0088 28c-.3 0-.6.1-.7.5-.1.4.2.5.5.6l1.3.3a72 72 0 0116.3 6l2.8 1.4zM59.5 24.5v-.1c.3 1.3 1.1 2.1 1.9 3 1.5 1.6 3.4 2.7 5.2 4 .5.5 1.2.7 1.6 1.4H68c-1.7-1.2-3.6-2-5.4-2.9l-1.5-.6h-.2.2c0 .2 0 .3.2.4l2.6 2c2.6 1.8 5.3 3.3 7.3 5.8l.4.1c2.2 0 4.4 0 6.6.5 0-.4-.2-.6-.3-.8a10.7 10.7 0 00-6-4.6c-3.5-1-6.5-3-9.2-5.3l-3.1-3zM105 60l.2.3c.7 1 .9 1.9.3 3-.3.4-.5 1-.7 1.5-1.4 3.2-2.2 6.6-3.6 9.8-.2.6-.3 1.3-.2 2 .5 3.6 2.5 6.1 5.6 8h.6a10 10 0 002.9-2.7s.1-.1 0-.2v.1c-.7.3-1.3.8-2.2.8.5-.5 1-1 1.1-1.6.2-1 .8-1.5 1.4-2a14 14 0 003.7-5c0-.5 0-.7-.3-1-1.2-.9-2.2-1.9-3-3.1-.6-1-1.3-1.7-2.2-2.3l-1.8-1.2c-.5-.2-.7-.6-.7-1l.1-1.2c.1-1.1.4-2.2.7-3.2 0-.2.2-.4-.1-.5-.7 0-1.2-.4-1.8-.5zm-8.5-1.3l.6.4c.8.4 1.6 1 2.5 1.2 0 0 0 .1.1 0a7.4 7.4 0 01-1.6-4.2c0-.3 0-.4-.3-.4-.8 0-1.6 0-2.3.6-.8.7-1.3 1.4-1.3 2.5 0 6.9 0 13.7.5 20.5.1 2.3.3 4.5.8 6.8l.2-.7a139.8 139.8 0 013-19.2c.2-.6.1-1-.3-1.5-.7-.6-1.3-1.4-1.5-2.4.6.2 1.1.6 1.8.4-.4-.6-.8-1.1-1-1.7-.5-.7-1-1.4-1.2-2.3zm.9 30l-.1-.2c1.4-2 3-3.7 4.9-5.3.4-.3.5-.5.1-.9a8.5 8.5 0 01-2-4.5c-.2-1.2-.4-2.5-.8-3.6-.4-1-.5-1.9-.3-2.8l1 3.2c1.2-4.2 2.7-8.2 4.3-12 .4-.8.4-1.4-.2-2-.7-.7-1.3-1.6-2-2.2.2.9.4 1.8.8 2.7.1.5 0 .8-.2 1.1-.7 1-1.4 1.9-2.2 2.7-.7.7-1.2 1.5-1.4 2.4-.4 1.5-.8 3-1 4.5-.8 4.4-1.5 8.8-2 13.2a5.7 5.7 0 01-1 3.1l-.7 1.3c-.4 1.1-.4 2.2.2 3.3C95.4 94 96 95 97 96c.8 1 .9 1.8.3 2.8-.2.4 0 .6.1 1 .6.8 1.3 1.7 1.8 2.7.6 1.2 1.7 1.6 2.8 1.8.8 0 1.4-.2 2-.8a17 17 0 003-7.4 24.8 24.8 0 01-2.8 4.6l-.8.9c-.5.4-.8.3-1-.3-.2-.4-.3-.8-.3-1.3-.2-2 .2-3.8.7-5.7.8-2.7 2-5.3 3.4-7.8 0-.1.3-.4.1-.5-.3-.4-.8-.5-1.3-.7-.4 0-.4.4-.5.6L99.7 94c0 .2-.1.5-.4.6V94c1.3-3.2 2.7-6.3 4.5-9.1.5-.7 0-1-.3-1.3-.5-.5-.6 0-.9.3l-5.2 4.8zm-32.9 38.5c.7-.5 1-1.2 1.2-1.9.6-2.3.4-4.6-1-6.7-.9-1-1.5-2.3-1.8-3.6-.2-.9-.7-1.4-1.4-1.8l-1.1-.5a3 3 0 01-1.8-2.1c-.7-2.6-1-5.2-1-7.9-.1-3.9.4-7.7 2.6-11 .2-.2.1-.4 0-.5a9.7 9.7 0 00-5.9-3.3c-.4 0-.6 0-.5.6l1.3 9.9 1.2 9.4-.1 1c-1.7 2.4-3 5-4.4 7.4-.7 1.3-1 2.5-.8 4l.1 1.8c.5-1.8.4-3.5 1.4-5.1.4 3 1.1 5.8 2 8.6V123v-2.4-2.5c.1-.9.3-1.7.6-2.6.8 3.9 2 7.5 3.2 11l1.3-11.6 3.5 5c1.4 2.2 1.8 4.6 1.4 7.3zm2.2-2h.2l4.1-9.6c2-4.4 3.9-8.7 5-13.4.4-2.2.9-4.3.5-6.5-.2-1.1-.2-2.2-.1-3.3 0-.3 0-.6.3-.8 1.5-1.8.6-3.4-.5-4.5l-1-1.1c-.3-.7-.9-1.4 0-2.2V83l.2-1.1c.1-.9.2-1.7-.3-2.5-.2-.3-.4-.8-.2-1 .5-.5 0-.7-.1-1a32.1 32.1 0 01-5-11.2c-.2-.7-.4-.9-1-.7H68c-.3-.1-.5 0-.6.3-.2.7-.5 1.4-1 2-1.3 1.2-1.5 2.8-1.4 4.6 0 .9 0 1.9-.4 2.7a6.2 6.2 0 00-.6 4.1c0 .4.2.9.7 1 .4.1.4.3.3.6l-1 5c-.3 1.3-.1 2.5.6 3.6l.2.6c.1 1-1 3-2 3.4-.2-.5-.2-1.1-.6-1.6l-.3.7c-.5 2.2-.8 4.4-1.1 6.5-.3 1.7-.6 3.3-.4 5l.6 6.7c0 1.3.5 2.3 1.8 2.7.6.3 1 .7 1 1.4a6 6 0 001.4 3.3 6.6 6.6 0 011.4 4v3zm-15-47.4a8.7 8.7 0 002.7 3.5c.5.4.6 1 .3 1.6l-.5 1c-.2.4 0 .5.2.6 3.5 1.7 6.5 4 8.5 7.3.2.3.3.2.5 0 .9-1 1-1.6.2-2.7l-.5-1.4c-.2-1-.3-2-.1-3 .2-1.2-.2-2.3-.8-3.3-1.2-1.9-3-3.2-5-4-2-.9-3.5-2.2-4.2-4.3-.1-.4-.2-.8-.5-1.2-.2.7-.1 1.3.2 1.8.4.6.5 1.2.4 1.9-.1 1-.6 1.5-1.6 1.2l-1-.5c-.6-.3-1.1-.8-1.7-1.4.4 2.7.1 5.3 0 8-.1.3 0 .6.2.9.6.8 1.3 1.5 2 2 .2.2.3.4.5.3 0-.3-.2-.4-.4-.6-.5-.6-1-1.2-1.4-2-.1 0-.3-.3-.2-.4.1-.2.4-.1.6 0 .7 0 1.4.3 2 .7.4.2.6.2.8 0 .9-1 1-1.8.3-2.9l-.8-1c-.4-.7-.7-1.3-.7-2.1zm39-46.5l.4.2 4.5 2.2c4.2 2.4 8 5.6 10.8 9.5 1.4 1.8 3 3.3 5 4.2 1.8.7 3.1 2 4.1 3.6.7 1 1.5 2 2.4 2.8.3.3.7.6 1.1.7v-.2c0-.2-.1-.3-.3-.5a17 17 0 01-3.2-5.6c-.7-1.7-1.2-3.4-2.2-4.9a23.2 23.2 0 00-8.8-7.6c-3.8-2-8-3.3-12.1-4.2-.6-.1-1.1-.3-1.7-.3zM119.3 74a10 10 0 01-3.4-.5c-.5-.1-.6 0-.7.4a50 50 0 01-9.1 19.2c-.2.2-.3.5-.7.5 1.7-3.1 3.1-6.2 4.5-9.3-.7.8-1.4 1.6-2.3 2-.4.2-.6.5-.8.8a36.7 36.7 0 00-3.6 10 8.1 8.1 0 00-.1 4c5.8-8.8 10.6-18.1 16.3-27.1zM107 32c.3-1 .6-2 1.2-2.8.2-.5.2-.8 0-1.3-.3-.7-.7-1.1-1.5-1.1l-1.2-.3c-3-.5-5.9-.7-8.8-.9h-3.8v.2c4.5 2.4 9.5 4 14.1 6.2zM22 32l.2-.7c.5-1.9 1.1-3.7 1.9-5.5.2-.5.2-.6-.4-.7-2.1-.4-4.2-.8-6.3-1-.5-.1-1.1-.5-1.4-.2-.3.4-.2 1-.4 1.5-.2.7 0 1.2.4 1.7a21 21 0 006 5zm69.4 29c0 .1-.1.2 0 .2 1.1 5 1.4 10 1 15a8.7 8.7 0 01-1.2 4c-.8 1.1-2 1.2-2.9.2a4 4 0 01-.7-1.5c-.4-1.3-.5-2.6-.5-4 0-5.2 1-10.2 2.4-15.2.3-.8.3-.8-.6-1.1-1 3.5-1.7 7.1-2.4 10.7-.4 2.4-.8 4.8-.8 7.2 0 1.4.2 2.7.8 4 .9 1.6 2.4 2.1 4 1.4.8-.4 1.2-1 1.6-1.8.7-1.7.9-3.5 1-5.3.2-4.4-.1-8.6-1.3-12.9-.1-.3-.1-.6-.4-.8zM25.7 21.2v-.2c-2.4-1.3-5-2.4-7.8-3-.2-.1-.3 0-.4.2l-1.3 3.5c-.1.3 0 .5.3.6l5.2.9c1 .1 2 .3 3.3.2l-3.8-1.9v-.1l4.3.7-3.7-1.6v-.2l4 .9zM132 76.7c1.1.3 2.1.9 3 1.6l2.9 2.2c-.2-.5-.4-.7-.6-.9-2-2.1-4-4-6.6-5.4a18.3 18.3 0 01-6.3-4.9c-.1-.1-.3-.3-.5 0-.5.5-1.2.8-2 1.2l1.6 1.3c1.1 1 2.2 2 3.3 2.8 1.1 1 2.6 1.1 4 1.4 1 .1 1.9.2 2.7.7H132zM89 55c.1-.4 0-.7-.1-1-.2-.9-.9-1.4-1.3-2-1.3-2.5-2-5-2.2-7.7 0-.9.3-1.6 1-2.1.5-.5 1-1 1.6-1.3.1-.1.3-.2.2-.4 0-.2-.2-.2-.4-.2-.7 0-1.4.2-2.1.5a2.6 2.6 0 00-1.7 2.6 19.8 19.8 0 003.5 10.3c.5.5.9 1 1.5 1.3zm7.8-26.8l-2.3-1c-1.8-1-3.7-1.6-5.7-1.8-.4 0-.6 0-.5.4v1c0 .3 0 .5.4.5 2.7.2 5.4.6 8 .9zm-4.3 26c.4-1.5.1-1.9-1.2-2l-1.2-.1c1.2-.5 2-1.2 2.7-2 .3-.3.9-.6.5-1s-.9 0-1.2.4l-1.4 1.3c-.6.6-1.1.6-1.8.2-.8-.5-1.3-1-1.8-1.8.1 1.6 1.3 3 2.9 3.4a4 4 0 012.5 1.5zm-3.2 3.3c.9-.2 1.7-.5 2.4 0 .2 0 .3-.2.4-.3.7-.9.5-2.7-.3-3.4-.1-.1-.2-.3-.4-.1-.6.6-1.3.4-2 0 .3 1.3.3 2.5 0 3.8zm23.7 1.2l2 1.7c.1.2.3.2.5.1.6-.3 1.3-.5 2-.6.4 0 .4-.2.2-.5-.4-.5-.7-1.2-.9-1.8 0-.4-.2-.4-.5-.3-1.1.4-2.2.8-3.3 1.4zm7 4.5c-.3-.6-.7-1-1.1-1.5-.3-.3-.3-1-.8-1s-1 .3-1.4.6l-.4.2c-.2.1-.2.2 0 .4l1.2 1.5c.1.2.2.2.4.2l2.2-.4zM102.5 42l-2.6-3c.1 2 .7 3.3 2.6 3zm10.1 23.5c.9-.5 1.9-.8 3-1.2l-1.2-.6h-.5c-.5.6-1 1.2-1.3 1.8zM39.7 12zm50.6 19.2zm-26.6 158zM63 54zm52.5 14.4h-.1z"/><path class="stl_old_st2" d="M104.4 51.7c.6-.7 1-1.6 1.7-2.3.7-.6.8-1.6 1-2.6l1.1.8c.9.7 1.8 1 2.9 1.4a4 4 0 012.8 2.5 8.5 8.5 0 003.2 3.8 20 20 0 00-5.2 1.6c-.3 0-.5 0-.6-.2-1.6-1.1-3-2.5-4.7-3.5l-2.2-1.5zM60.6 130.3c0-3 .2-5.7.5-8.6.6 1 1.2 2 1.6 3 .3.7.1 1.5 0 2.2-.4 1.2-1 2.3-2 3.4z"/><path class="stl_old_st3" d="M58.8 180.8V178c0-.6.6-.8.9-1.2l-.9 4z"/><path class="stl_old_st1" d="M50.3 69.6v-.3l.1.2zM52.4 127.4c.2 0 .1 0 .1.2v-.2zM47 43.3H47zM56.5 131v.1zM49.7 48.4l.2.2v.1c-.2 0-.2-.2-.2-.3zM51.9 195.3h-.2.2zM105 49zM103.7 48.5h-.1c-.1 0 0 0 0-.2l.1.2zM49.7 48.4s-.1 0 0-.1v.1z"/><path class="stl_old_st4" d="M50.2 47v.2L50 47V47z"/><path class="stl_old_st1" d="M99.5 46.8zM97.7 45.1v.1zM65 40.5v-.2h.2l-.1.2zM47.2 69.8v-.1h.1v.1zM50.7 73.4zM51 73.7c-.2 0-.2 0-.1-.2v.2zM51 73.9v-.2h.1v.2z"/><path class="stl_old_st4" d="M120.5 76.2V76l.1.1z"/><path class="stl_old_st1" d="M79.5 10.4v-.1h.1v.1zM72.2 10H72zM62 130.6v-.1.1zM43 185v.1zM45.7 188.6h-.1v-.1zM67.6 193.7l-.1.1c-.1 0 0-.1 0-.2l.1.1zM52 195l.2-.1c.1 0 0 .1 0 .1H52zM52.2 195l-.2.2v-.2h.2zM52 195.2l-.1.1v-.2h.1zM64.8 196z"/><path class="stl_old_st5" d="M51.7 46c1.2.5 2.4.7 3.7.6 2.5 0 5-.1 7.4.7h.2v.1c-1-1-2.2-1.2-3.4-1.3a8.8 8.8 0 01-5.2-1.6l-.6-.6-.1-.2.4.1c2.4 1.3 5 1.6 7.7 1.6 2.6 0 5.1 0 7.7.4 1.5.3 3 .8 4.5 1h2.3c.5 0 .7.1.8.6a27.7 27.7 0 01-1.7 12.3c-.1.3 0 .4.3.5.7.2 1.4 0 2.2.1-.6 1-1.4 1.4-2.2 2.2 2 .2 3.7-.5 5.5-1.2-1 2.4-2.7 4-4.6 5.6.7.1 1.2-.2 1.7-.5.2 0 .5-.3.7-.1.3.2.1.5.1.7 0 .4-.2.8-.5 1-.4.3-.3.6-.2 1l7.1 18.6c.5 1.1.3 2.2.3 3.4l-.2 4.6c0 3.1-.3 6.2-.2 9.2.3 4.6.4 9.2.5 13.7a239 239 0 01-1.7 32.1 123.6 123.6 0 01-5.5 24.2l-.3.4.4-4.3 1-9.3c.4-3.7.6-7.4.6-11.1 0-3.7-.3-7.4-1-11-.1-.3 0-.5-.3-.7l-1.5 10.8c-1 6.3-2 12.6-3.7 18.8-.3 1.3-.8 2.6-1.4 4-.9 1.6-1 3.5-1.1 5.4-.3 3-.2 6-.9 8.9-.1.7-.3 1.5-.8 2.1l.1-1.4a25.4 25.4 0 00-1.6-10.3c-.3-.7-.5-.8-1.1-.2a6 6 0 00-1.8 2.5 20.8 20.8 0 00-1.6 8.9l-.1.6a7 7 0 01-.5-2.5c0-2.2.3-4.3.6-6.4.5-3 1.2-5.8 1.1-8.8a17 17 0 00-.8-5.4 177.6 177.6 0 01-5 7.2l-.3.4L60 168c.9-5 .6-9.9-1-14.7l-.2-.5c.3 7.1-.6 14-2.5 21-.5 1.6-1.1 3.2-2 4.6-.5.9-.4 1.8-.5 2.7-.2 2.4-.5 4.7-1.3 6.9a15 15 0 01-11.3 9.8l1.8-1.3a22 22 0 006.4-9.7c1.6-4.2 2.1-8.6 1.7-13.1 0-.4-.2-.5-.5-.5-.6 0-1 .3-1.5.5-1.1.5-2 1.3-3.1 2a24 24 0 015.1-5c.4-.2.6-.4.7-.8 1-3.1 1.2-6.4 1-9.6 0-1.6-.2-3-.5-4.6a142 142 0 0014.5-23 61.6 61.6 0 004.6-10.9c0 4.7-.5 9.2-1.3 14 .5-.4.7-.8.9-1.2 1.8-3.1 3-6.5 3.8-10a63.7 63.7 0 001.6-17.7l-.1-1c.5.8.8 2.8 1 4.8l-.1 5-.5 5a58.8 58.8 0 002.5-16.3c0-3.2-.3-6.4-1.4-9.5l-.2-.7c1.4 1.6 2 3.5 2.6 5.4.7 2.6.8 5.3.7 8v1.6c1-6.3-.1-12.4-2.3-18.5.3 0 .6.3.8.4l1.3.7c1.5.8 2.7 1.9 3.3 3.5l.1.3h.2c-.4-2.2-1.2-4.3-3-5.7-1.6-1.1-2.9-2.6-4.2-4-.7-.7-.9-1.3-.7-2.2.3-.9.2-1.8 0-2.7-.3-1-.4-2-.5-3.2l-.4-1.5c-.8-2-1.6-4-2.8-5.8a14 14 0 01-1.7-2.8c-.2-.5-.3-.9 0-1.4a9.3 9.3 0 001.5-4.3 6 6 0 01-3.9 1.5c1-.5 1.6-1.2 1.6-2.4 0-.8-.1-.9-1-.8-3 .1-5.2-1.3-7.1-3.3 1.2.2 2.4.4 3.7.3a6 6 0 01-2.8-3.2c.8.3 1.5.8 2.5.9-1.7-1.9-3.2-3.8-5.7-4.7l1.3-.2c.2 0 .4-.2.4-.4 0-.3-.1-.4-.3-.5-.7-.4-1.6-.5-2.4-.7-1.6-.2-3.2-.4-4.7-1-1-.3-2-.7-2.6-1.5zm18.5 90z"/><path class="stl_old_st6" d="M97.4 88.7l5.2-4.8c.3-.2.4-.8.9-.3.3.3.8.6.3 1.3a42.5 42.5 0 00-4.4 9c0 .3-.2.5-.1.7.3 0 .3-.4.4-.6l4.8-8.1c0-.2.1-.7.5-.6.5.2 1 .3 1.3.7.2.2 0 .4-.1.6-1.4 2.4-2.6 5-3.4 7.8-.5 1.8-.9 3.7-.7 5.6 0 .5 0 1 .2 1.3.3.6.6.7 1.1.3a23.7 23.7 0 003.2-4.9l.4-.6c0 .9-.3 1.7-.6 2.5-.6 1.8-1.3 3.4-2.5 4.9-.5.6-1 .9-1.9.8-1.1-.2-2.2-.6-2.8-1.8-.5-1-1.2-1.9-1.8-2.8-.2-.3-.3-.5 0-1 .5-.9.4-1.8-.4-2.7-.9-1-1.6-2-2.2-3.3a3.8 3.8 0 01-.2-3.3c.2-.5.4-1 .7-1.3.7-1 1-2 1-3.1a176.4 176.4 0 013-17.7c.2-1 .7-1.7 1.4-2.4.8-.8 1.5-1.8 2.2-2.7.3-.3.3-.6.2-1a28 28 0 01-.9-2.8c.8.6 1.3 1.5 2 2.2.7.6.7 1.2.3 2-1.6 3.8-3 7.8-4.3 12l-1-3.2c-.2 1 0 1.9.2 2.8.5 1.1.7 2.4.9 3.6.2 1.7.9 3.2 2 4.5.4.4.2.6-.1 1a26.4 26.4 0 00-5 5.2v.2c-.1 0-.2.1-.1.3H97l.3-.2.1-.1zm1.8 6.2z"/><path d="M64.5 127.2c.4-2.7 0-5-1.4-7.3-1-1.7-2.2-3.3-3.5-5l-1.3 11.7a87.6 87.6 0 01-3.2-11 51.6 51.6 0 00-.6 5v4.9c-.9-2.8-1.6-5.6-2-8.6-1 1.6-1 3.4-1.4 5.1l-.1-1.9c-.2-1.4.1-2.6.8-3.9 1.4-2.4 2.7-5 4.3-7.3.3-.4.3-.7.2-1l-1.2-9.5-1.4-10c0-.5.2-.6.6-.5 2.4.4 4.3 1.5 5.9 3.3.1.1.2.3 0 .5a19 19 0 00-2.7 11c0 2.7.4 5.3 1.1 7.9a3 3 0 001.8 2l1 .6c.8.4 1.3 1 1.5 1.8.2 1.3 1 2.5 1.7 3.6 1.4 2.1 1.7 4.4 1 6.7-.1.7-.4 1.4-1.1 1.9z" fill="#c9ac92"/><path class="stl_old_st8" d="M104.4 17.2c-1-.4-1.8-1-2.7-1.5-.2-.1-.3-.3-.6-.3.7.9 1.5 1.5 2.3 2.2a60 60 0 005 4c.3.2.3.4.2.7-.6 1.3-1 2.6-1 4 0 .3-.1.3-.4.2a38 38 0 00-6.6-1.1 1 1 0 01-.7-.3c-1.8-1.9-3.4-4-4-6.5 0-.3-.2-.5 0-.7.2-.1.4.1.6.2 1.3.6 2.4 1.4 3.7 2.2-.2-.6-.6-1-.9-1.5-1-1.3-2.2-2.5-3.5-3.5-.8-.5-.9-1.1-.7-1.9 0-.7.3-1.4.6-2.3a14.6 14.6 0 01-7.8 1.5c-1.8-.1-3.5-.7-5-1.7 0-.2.2-.1.3-.1 4 .3 7.6-1.2 11-3.2.5-.2 1-.6 1.4-.9.8-.4 1.2-.3 1.6.5 1.2 2.7 2.8 5.1 4.8 7.4.7.9 1.6 1.6 2.4 2.5z"/><path class="stl_old_st0" d="M66.7 125.1v-3c0-1.5-.5-2.9-1.4-4a6 6 0 01-1.4-3.3c0-.7-.4-1.1-1-1.4-1.3-.4-1.8-1.3-1.8-2.7l-.6-6.7c-.2-1.7.1-3.3.3-5l1.2-6.5.2-.7c.4.5.5 1 .7 1.6 1-.4 2.1-2.3 2-3.4l-.3-.6a4.5 4.5 0 01-.5-3.6l1-5c0-.3 0-.5-.3-.6-.5-.1-.7-.6-.7-1-.2-1.4-.2-2.8.6-4.1.4-.8.4-1.8.4-2.7 0-1.8 0-3.4 1.4-4.7.5-.5.7-1.2 1-1.9.1-.3.3-.4.6-.3h.7c.6-.2.8 0 .9.7a32 32 0 005 11.2c.2.3.7.5.2 1-.2.2 0 .7.1 1 .6.8.5 1.6.4 2.5l-.1 1.1c0 .3 0 .6-.2.8-.8.8-.2 1.5.1 2.2.2.4.6.7 1 1 1 1.2 2 2.8.5 4.6-.3.2-.3.5-.4.8 0 1.1 0 2.2.2 3.2.4 2.3-.1 4.4-.6 6.6-1 4.7-3 9-4.9 13.4-1.3 3.2-2.7 6.4-4.2 9.5h-.1zm1-4.4L70 115c1.5-3.7 3.3-7.4 4.3-11.3.6-2.6 1.5-5.2 1-8l-.2-2c0-1-.1-2 .5-2.7.9-1 1.1-2-.4-3.4a5 5 0 01-1.6-2.7c0-.5-.2-1 .2-1.6.6-.8.5-1.9.4-2.8 0-.8-.6-1.7-.5-2.6l-.2-.3A35 35 0 0168.8 67c0-.1 0-.3-.3-.3-.2 0-.2.1-.3.3-.3.4-.4.9-.7 1.2-1.2 1.3-1.4 2.7-1.3 4.3 0 1 0 2.2-.6 3-.6 1.1-.5 2.2-.5 3.4 0 .1 0 .3.3.4.8.4 1 .7.8 1.6l-1 5.2c-.3 1-.2 2 .4 2.9.4.5.5 1 .4 1.6a6.3 6.3 0 01-1.8 3.3c-.3.3-.7.6-1.1.6-.4 0-.5.2-.5.5L62 99c-.3 1.7-.6 3.4-.4 5l.6 7c0 .8.3 1.2 1 1.5 1.2.5 1.8 1.4 1.9 2.7 0 .6.2 1.2.6 1.7.8 1.2 1.6 2.4 2 3.9z"/><path class="stl_old_st9" d="M89 43.3a7.8 7.8 0 015-3.7c.4-.1 1-.2 1-.8 0-.5-.5-.7-1-.9-1-.4-2-.3-3-.4-1.3-.3-2.6-.5-3.7-1.5l.1-.1a4 4 0 002.9.5c1-.3 1.2-1 .5-1.8l-1.4-1c-.3-.1-.3-.2-.1-.5.3-.3.7-.5 1.2-.3a23 23 0 018 4.4c.4.2.4.5.4.9.2 1.2.4 2.4.8 3.7.1.6.5 1 1.1.6.2.5-.3.7-.4 1.1.8.2 1.6.1 2.4 0 .6-.2.8-1 .3-1.7l-2.1-2.4-.6-.7a30 30 0 015.8 5.3c.4.5.3.7-.2.9l-.7.2c-.7.1-1.3.5-1.7 1.2a4 4 0 01-1.9 1.7l.4-2c0-.5.1-1-.3-1.2-.4-.3-.7.2-1 .4-.1 0 0-.1 0-.2 0-.9-.2-1-1-1s-1.3-.2-1.5-1c0-.3-.3-.5-.6-.6-.6-.2-.6-.6-.6-1 .1-1 .6-1.7 1-2.5l.1-.4c-1.4.2-2.3 1-2.7 2.3-.2.5-.4.8-.9 1.1-1.2 1-1.3 2.4-.2 3.4.2.2.3.4.3.7 0 .4.2.9.7 1 .3.1.4.3.4.6 0 .5.3.6.7.5.3 0 .4 0 .4.3.1 1.1.6 1.5 1.7 1.3.4 0 .6-.2.8.3.1.5.7.5 1 .5 1 .1 1.8 0 2.8-.1-.4.5-1 .8-1.4 1.2-.4.2-.5.5-.5 1a10 10 0 01-.7 3.6c-.2.6-.5 1.1-1 1.6.5-1.9 1-3.7.5-5.7-.7 1-1.2 1.8-2.3 2.5.3-.7.9-1.1 1-1.9-1.1.6-2 1.3-3.2 1.7a7 7 0 001.8-2.2c.2-.4.4-.9 0-1.3-.2-.4-.7-.3-1.1-.2l-3.7 1c-.3 0-.5.1-.8 0 1-.8 2-1.7 2.4-3 .2-.2.3-.5.3-.8a9 9 0 01-3.3 1.3c.4-.4.8-.7 1-1.2.3-1-.2-1.7-1.2-1.7-1.2 0-1.8-.1-2.8-.7l1.7-.2a3 3 0 001.8-1c.3-.3.5-.6.3-1s-.5-.6-1-.6c-.7 0-1.3.3-1.9.6H89z"/><path class="stl_old_st6" d="M51.7 77.8c0 .7.3 1.4.7 2l.8 1.1c.7 1 .6 2-.3 2.8-.2.3-.4.4-.8.1a5 5 0 00-2-.8c-.2 0-.5-.1-.6.1l.2.5 1.4 2c.2.1.4.2.4.5-.2.1-.3 0-.4-.2-.8-.6-1.5-1.3-2.1-2-.3-.4-.3-.7-.3-1 .2-2.6.5-5.2 0-8 .7.6 1.1 1 1.8 1.4l1 .5c1 .3 1.5-.1 1.6-1.2 0-.7 0-1.3-.4-2-.3-.4-.4-1-.2-1.6.3.3.4.7.5 1a6.6 6.6 0 004.2 4.4c2 .8 3.8 2.1 5 4 .6 1 1 2.1.8 3.4-.2 1-.1 2 .1 3l.5 1.3c.7 1.1.7 1.7-.2 2.7-.2.2-.3.3-.5 0-2-3.3-5-5.6-8.5-7.3-.3-.1-.4-.2-.2-.5l.5-1c.3-.7.2-1.3-.3-1.7a9 9 0 01-2.7-3.5z"/><path class="stl_old_st8" d="M90.7 31.3c.6-.1 1.1.1 1.7.2 4.2 1 8.3 2.2 12 4.2 3.6 1.9 6.6 4.3 8.9 7.6 1 1.5 1.5 3.2 2.2 5a17 17 0 003.5 6v.2c-.4-.1-.8-.4-1-.7-1-.8-1.8-1.8-2.5-2.8a8.5 8.5 0 00-4-3.6c-2.2-.9-3.7-2.4-5-4.2A34.4 34.4 0 0091 31.5c-.2 0-.3 0-.4-.3z"/><path class="stl_old_st6" d="M99.6 60.3c-1-.1-1.7-.8-2.5-1.2l-.6-.4s0-.2 0 0c.1.9.7 1.6 1.1 2.4l1 1.6c-.6.2-1.1-.1-1.7-.4.1 1 .8 1.8 1.5 2.5.4.5.4.8.3 1.4a148.3 148.3 0 00-3 19.2l-.2.8a48 48 0 01-.9-6.9 241 241 0 01-.4-20.4 3 3 0 011.3-2.5c.7-.6 1.4-.7 2.3-.7.3 0 .3.2.3.4.1 1.6.6 3 1.5 4.2z"/><path class="stl_old_st9" d="M119.3 74c-5.6 9-10.4 18.2-16.2 27.2a8.1 8.1 0 010-4.1c.8-3.5 2-6.8 3.7-10 .2-.3.4-.6.8-.8 1-.4 1.6-1.2 2.3-2-1.4 3.1-2.8 6.2-4.4 9.3.4 0 .5-.3.6-.5a50 50 0 009.1-19.2c.1-.4.3-.5.7-.4 1 .4 2.2.5 3.4.5z"/><path class="stl_old_st8" d="M140.9 82.8c.7 0 1.3.5 2 .8 1.8.8 3.7 1.4 5.8 1.6 1.8.2 3.3 1 4.7 2.1 2.7 2 5.7 3.7 8.5 5.5a156 156 0 0011.4 6.4l1.3.7c-1 0-2-.4-3-.6-2.5-.7-4.9-1.7-7.2-3.1-1.4-1-3.2-1.4-4.8-2-3.8-1-7.3-3-10.6-5l-4-2.6a27 27 0 0112 5.2c0-.5-.4-.7-.7-1-2.4-1.8-5-3.2-8-4-2.5-.7-4.8-1.8-6.9-3.5l-.5-.6zm16.6 9.3l-.1-.1v-.1l.1.2z"/><path class="stl_old_st10" d="M66.5 37.1c1.7 1.2 3.6 1.7 5.7 2 1.2 0 1.5.4 1.7 1.6l-.7-.3c0 .3.2.4.4.6.8.7 1.7 1.1 2.8 1.3.9.2 1.5.5 2 1.3s1.3 1.3 2.1 1.7c2 1 3.4 2.6 4.2 4.7 1 2.2 2.2 4.2 4 5.7.5.3.4.7.3 1l-.7 1.6c-.3.7-.7 1.5-.8 2.5a4 4 0 01-.6-2l-.1-3.4v-.2c-.1-.4-.2-.8-.6-1-.5 0-.6.5-.7.8l-.9 2.2c0-1.8-.3-3.5-1-5v-.5c.6-1.3.4-1.9-.9-2.6l-.3-.3c-.6-2.2-2.3-3-4.3-3.1-1.8-.1-3.5-.1-5.3-.6-.8-.2-1.5-.4-2.2-1 .9.1 1.7-.2 2.5-.5.8-.4 1-1 .3-1.7-.4-.5-1-.7-1.5-1-1.3-.5-2.6-1-3.8-1.8-.6-.5-1.3-1-1.7-1.9h.1zm6.3 3V40l.1.2s.1.3.2.2c.1-.1 0-.2-.1-.3h-.2z"/><path class="stl_old_st9" d="M111.3 66.7l1.7-.6c.8-.2 1-.2 1 .7l.3 1.6c.5 2.5 2.3 3.6 4.7 4l.6.2c-1.4.3-2.6.1-3.8 0a4.7 4.7 0 01-3-1.8c-.5-.5-1-1-1.3-1.5-1-1.5-2.5-2.5-4-3.4-.5-.2-.5-.5-.4-1l.6-1.2c.5-.9.8-1.8.5-2.9-.1-.3 0-.5.3-.6 1-.5 2.1-.8 3.3-1 .2 0 .4 0 .6.2l1 .6c2 1.4 3.4 3.2 4.6 5.1v.2c-1.5-1.1-3-2-4.8-2.7a.8.8 0 01-.5-.5 3 3 0 00-1-1.3c-.3 1.7-.8 3.2-2.4 4.2 1 0 1.8-.2 2.7-.1-.3.6-.7 1-.8 1.7v.1z"/><path class="stl_old_st11" d="M110 81.8c-.7 1.2-1.7 2-2.9 2.7h-.5c-3-1.8-5.1-4.3-5.6-8 0-.6 0-1.3.2-2 1.4-3.1 2.2-6.5 3.6-9.8l.6-1.5c.6-1 .5-2-.2-2.9l-.2-.3c.6 0 1.1.5 1.7.5.3 0 .2.3.1.4a23.8 23.8 0 00-.7 4.4c0 .5.2.9.7 1.1l1.7 1.1c1 .7 1.7 1.4 2.3 2.3.7 1.3 1.7 2.3 3 3.2.3.2.4.5.2 1-.4 1.3-1.2 2.5-2.2 3.5l-1.4 1.4c-.7.6-1.3 1.2-1.4 2.1 0 .7-.6 1.1-1.1 1.6.8 0 1.4-.5 2.1-.8zm-3.1 1.6c-.3-.9 0-1.5.6-2 .4-.3.6-.7.7-1.2 0-.7.4-1.1 1-1.6 1.4-1.2 2.7-2.6 3.6-4.3.1-.4.1-.6-.2-.9a7.7 7.7 0 01-2-2 11.2 11.2 0 00-4.3-4c-.4-.2-.8-.5-1-1-1 2.7-1.7 5.4-2.9 8-.4 1-.4 2.1-.1 3.3a9.7 9.7 0 004.6 5.7z"/><path class="stl_old_st8" d="M68.3 32.8c-.4-.7-1-1-1.6-1.3-1.8-1.4-3.7-2.5-5.2-4.2-.8-.8-1.6-1.6-2-2.8h.1l3 2.9c2.8 2.3 5.8 4.2 9.2 5.3 2.6.8 4.6 2.3 6 4.5.2.3.4.5.4 1-2.2-.7-4.4-.6-6.6-.6-.2 0-.3 0-.4-.2-2-2.5-4.8-4-7.3-5.8l-2.6-1.9-.2-.4c.5 0 1 .4 1.5.6 1.8.9 3.7 1.7 5.4 2.9h.2l.3.2c0 .2.2.4.4.4l.1.1.2.1v.1l-.1-.2-.2-.1c0-.3-.1-.4-.4-.4l-.2-.2z"/><path class="stl_old_st10" d="M104.7 34.3c1 .7 2 1.2 3 2l.5.5-2.9-1.5A71.8 71.8 0 0089 29.4l-1.3-.3c-.3 0-.6-.2-.5-.6 0-.4.4-.5.7-.5l3.6.3a46 46 0 0114.3 4c.6.2 1 .5 1.2 1.2.2.8.7 1.5 1.2 2.4-1.2-.6-2.2-1.3-3.4-1.7 0-.1-.2-.2-.3 0h.2zm-.4-.3h-.1.1z"/><path class="stl_old_st6" d="M107 32.1c-4.7-2.3-9.7-3.8-14.3-6.2l.1-.2h3.8c3 .2 5.9.4 8.8 1l1.2.1c.8 0 1.2.5 1.5 1.2.2.5.2.8 0 1.2-.5 1-1 2-1.2 3z"/><path class="stl_old_st12" d="M26.2 19.6c-1.8-.8-3.6-1.7-5.5-2.4-.6-.2-1.3-.5-2-.6-.3 0-.4 0-.2-.4.8-1.5 1.6-3 2.7-4.4.2-.2.3-.3.6-.2 2.3 1.2 4.7 2.2 6.9 3.5.4.2.6.4.4.9l-.2.4c-.2.6-.3 1.3-.8 1.6-.5.3-1-.3-1.6-.4a40 40 0 00-5.1-1.5c1.6 1.1 3.3 2.1 4.9 3.4l-.1.1z"/><path class="stl_old_st8" d="M22 32a20.8 20.8 0 01-6-5c-.4-.6-.6-1-.4-1.7.2-.5 0-1.1.4-1.5.3-.3.9 0 1.4.1l6.3 1c.6.2.6.3.4.8-.7 1.8-1.4 3.6-1.9 5.5 0 .2 0 .4-.2.7z"/><path class="stl_old_st13" d="M91.4 61l.4.8c1.1 4.3 1.5 8.6 1.2 12.9a16 16 0 01-1 5.3c-.3.7-.7 1.4-1.5 1.8-1.6.8-3.2.2-4-1.4a8.8 8.8 0 01-.8-4c0-2.4.4-4.8.8-7.2.6-3.6 1.4-7.2 2.3-10.7 1 .3 1 .3.7 1.1-1.4 5-2.4 10-2.4 15.2 0 1.4 0 2.7.5 4 .1.5.4 1 .7 1.5.9 1 2.1 1 2.8-.2.8-1.2 1-2.6 1.2-4 .5-5 .2-10-1-15V61z"/><path class="stl_old_st8" d="M40.3 12.2c1.4.3 2.8 1 4.2 1.7 2.3 1 3.8 3 5.4 5 1.4 1.4 2.8 2.9 4.5 4a4 4 0 011.4 1.5C56.4 25.7 57 27 58 28l.2.3a8.9 8.9 0 01-3.5-2.8 32.5 32.5 0 00-10-8.7c-2.2-1.2-4.4-2.1-6.5-3.2l-2.9-1.8c-.3-.2-.6-.5-.7-.9 2.5 1.4 5.2 2.4 7.7 3.5l2 1.1.3.1-.2-.1c-.5-1-1.4-1.4-2.2-2-.6-.5-1.4-.7-2-1.2z"/><path class="stl_old_st3" d="M29.7 12.7l-3.2-1.1c-.1-.1-.2-.2-.3 0h.2c1.1 1 2.4 1.8 3.1 3.1-2.3-1.5-4.6-3-7.4-4 1-1.3 2.2-2.4 3.4-3.4 1-.8 1-.8 1.8 0a28 28 0 013.7 4.3c.2.1.5.3.3.6-1.4-.8-3-1.3-4.5-1.7l3 2.1-.1.1zM25.8 21a38.6 38.6 0 00-4-.6l3.7 1.5v.1l-4.3-.7v.1l3.7 2c-1.2 0-2.2-.2-3.2-.3l-5.2-1c-.4 0-.5-.2-.3-.5l1.3-3.5c0-.2.2-.3.4-.2 2.8.6 5.3 1.7 7.8 3v.2zm-4.5-.8h.4c-.1-.1-.2-.1-.4 0z"/><path class="stl_old_st8" d="M131.9 76.7h1.5c-.8-.5-1.8-.6-2.7-.7-1.4-.3-2.9-.4-4-1.3l-3.3-2.9-1.6-1.3c.8-.4 1.5-.7 2-1.3.2-.2.4 0 .5.1 1.7 2.2 3.9 3.7 6.3 5 2.6 1.2 4.7 3.2 6.6 5.3.2.2.4.4.6 1l-2.9-2.3c-.9-.7-2-1.3-3-1.6zM39.3 8.7c-1-.1-1.8-.7-2.7-1.1-1-.5-1.9-1.1-2.5-2-.7-.9-1.5-.9-2.5-.7l-2.9.5v-.2L31.2 4c1.3-.6 2.7-1 4.1-1.3.3 0 .6 0 .9.3 1.8 2.3 4.2 4 6.6 5.6l3.5 2.1c-1.7.3-5.5-2-10.7-6.1.1.7.6 1.2 1 1.8.8.9 1.8 1.5 2.7 2.2zM105.6 54.8c1.3 1 2.8 1.6 4 2.7.6.5.5.6-.2.8l-1.6.7c-.6.4-1.3.4-2 0-1.5-.7-2.9-1.8-4.2-3-.3-.1-.1-.3 0-.5l.6-3c1.6 1 2.6 2.4 3.8 4 0-.7-.4-1.2-.4-1.7z"/><path class="stl_old_st9" d="M89 55c-.6-.2-1-.7-1.4-1.2A20 20 0 0184 43.5c0-1.2.5-2 1.6-2.6.7-.3 1.4-.5 2.1-.5.2 0 .3 0 .4.2a66.7 66.7 0 01-1.8 1.7c-.7.5-1 1.2-1 2.1.3 2.7 1 5.2 2.2 7.6.4.7 1.1 1.2 1.3 2 0 .4.3.7.1 1z"/><path class="stl_old_st10" d="M96.8 28.3l-8.1-.9c-.4 0-.5-.1-.5-.4v-1.1c0-.5.2-.5.6-.4 2 .2 3.9.8 5.7 1.7l2.3 1z"/><path class="stl_old_st13" d="M92.5 54.2a4 4 0 00-2.5-1.5 3.8 3.8 0 01-3-3.4c.6.7 1.1 1.3 1.8 1.8.8.4 1.3.4 2-.2.4-.4.8-1 1.3-1.3.3-.3.7-.9 1.2-.4.4.4-.3.7-.5 1-.7.8-1.6 1.5-2.7 2l1.2.1c1.3.1 1.6.6 1.2 2z"/><path class="stl_old_st9" d="M89.3 57.5c.4-1.2.4-2.4 0-3.7.8.4 1.5.6 2.1 0 .2-.2.3 0 .4.1.8.7 1 2.5.3 3.4-.1.1-.2.3-.4.2-.8-.4-1.5-.1-2.4 0zM113 58.8c1.1-.6 2.2-1 3.3-1.4.3 0 .4 0 .5.3.2.6.5 1.3 1 1.8.1.3.1.5-.3.5-.7.1-1.4.3-2 .6h-.5c-.6-.7-1.3-1.2-2-1.8zM118.2 65.3c.5 0 .8-.5 1.2-.8 1-.7 1-.7 2 .2l1 1c-2.4.6-4.7 1.3-6.8 2.6l-.1-.1 2.2-2.2.5-.7zM120 63.3l-2 .4c-.3 0-.4 0-.5-.2l-1.2-1.5c-.2-.2-.2-.3 0-.4l.4-.2c.5-.3 1-.6 1.4-.6.5 0 .5.7.8 1l1.2 1.5z"/><path class="stl_old_st13" d="M120 70c1-1 2-2.3 3-3.6.4-.5.8.5 1.3.6.5.1.1.4 0 .5a9 9 0 01-2.5 1.8c-.6.3-1.2.6-1.9.7z"/><path class="stl_old_st10" d="M102.4 42c-1.9.2-2.5-1-2.6-3 1 1 1.7 2 2.6 3z"/><path class="stl_old_st13" d="M112.5 65.5c.3-.6.8-1.2 1.3-1.7.2-.2.3-.2.5-.1l1.1.6c-1 .4-2 .7-2.9 1.3z"/><path class="stl_old_st8" d="M140.8 82.6h-.2.2z"/><path class="stl_old_st9" d="M100.2 38.6s-.2 0 0-.2l.1.1z"/><path class="stl_old_st8" d="M39.7 12z"/><path class="stl_old_st10" d="M74 40.7v.2l-.1-.1v-.1z"/><path class="stl_old_st8" d="M90.3 31.2zM34.4 10.7h.3v.1l-.3-.1zM61 29.3H61h.2zM58.2 28.2l.2.1h-.2zM39.3 8.6l.2.1h-.2z"/><path class="stl_old_st12" d="M26.3 19.5l.1.2h-.2v-.2z"/><path class="stl_old_st8" d="M104.6 17.3l-.2-.1h.2z"/><path class="stl_old_st5" d="M63.7 189.3v-.1z"/><path class="stl_old_st3" d="M29.8 12.6l.1.2h-.2v-.2z"/><path class="stl_old_st8" d="M40.2 12.2l-.1-.1h.2z"/><path class="stl_old_st9" d="M91.8 51.8h-.1z"/><path class="stl_old_st5" d="M63 54z"/><path class="stl_old_st8" d="M105.6 54.8v-.1z"/><path class="stl_old_st11" d="M105 60z"/><path class="stl_old_st6" d="M99.6 60.3h.1c0 .1 0 0 0 0z"/><path class="stl_old_st0" d="M104 46.9h.1z"/><path class="stl_old_st5" d="M51.6 46.1V46v.1z"/><path class="stl_old_st9" d="M118 65.2l.2.1c-.1.1-.2 0-.2 0v-.1zM89 43.5l-.1.1zM89 43.5c-.2 0 0-.1 0-.2l.1.1-.1.1zM100.8 42.5l.1-.1z"/><path class="stl_old_st8" d="M34.4 10.7z"/><path class="stl_old_st9" d="M115.5 68.4h-.1z"/><path class="stl_old_st13" d="M120 70l-.1.1z"/><path class="stl_old_st0" d="M97 39.5l.2-.1v.2l-.2-.1z"/><path class="stl_old_st9" d="M100.3 38.7v-.1h.2l-.2.1z"/><path class="stl_old_st11" d="M110 81.8s0-.1.1 0c.1 0 0 0 0 0z"/><path class="stl_old_st10" d="M66.4 37.2V37l.1.1v.1zM66.3 37c0-.1 0 0 0 0z"/><path class="stl_old_st8" d="M140.9 82.8l-.2-.2.2.2z"/><path class="stl_old_st10" d="M108.2 36.8h-.1z"/><path class="stl_old_st6" d="M51.7 86.3h-.1c0-.2.1-.1.2 0h-.1zM51.8 86.3h-.1z"/><path class="stl_old_st9" d="M87.3 36s-.1 0 0-.2v.2z"/><path class="stl_old_st5" d="M77.7 94.4z"/><path class="stl_old_st0" d="M65.5 127.6h.1v.1z"/><path class="stl_old_st8" d="M59.6 24.5v-.1z"/><path class="stl_old_st5" d="M58.7 173.4h-.1zM46 175.8v.1c-.1 0 0 0 0-.1zM46 176h-.1c-.1 0 0 0 0 0z"/><path class="stl_old_st8" d="M104.6 17.3z"/><path class="stl_old_st3" d="M31.3 12.2h0z"/><path class="stl_old_st1" d="M63 47.3zM70.2 136zM99.2 95v-.2.1zM97 89c0-.2 0-.2.2-.3l-.1.3zM97.2 88.7v-.2l.2.2h-.1-.1zM97 89zM100.2 20.3zM101.1 15.4z"/><path d="M67.7 120.7a11 11 0 00-2-3.9c-.4-.5-.6-1-.7-1.7 0-1.3-.7-2.2-1.8-2.7-.8-.3-1-.8-1-1.5l-.7-7c-.1-1.6.2-3.3.4-5l.7-3.9c0-.3 0-.5.4-.5.5 0 .9-.3 1.2-.6.9-1 1.5-2 1.7-3.3a2 2 0 00-.3-1.6c-.6-1-.7-1.9-.5-3l1-5.1c.2-1 0-1.2-.8-1.6-.2-.1-.2-.3-.2-.4 0-1.2 0-2.3.5-3.3.6-1 .6-2 .6-3.1-.1-1.6.1-3 1.3-4.3.3-.3.4-.8.6-1.2.1-.1.2-.4.4-.3.2 0 .2.2.3.3 1 3.9 2.6 7.4 4.8 10.7l.2.3c-.2 1 .4 1.8.5 2.6.1 1 .2 2-.5 2.8-.3.5-.2 1-.1 1.6.2 1.1.8 2 1.6 2.7 1.5 1.5 1.3 2.4.4 3.4-.7.7-.5 1.8-.5 2.7 0 .7 0 1.4.2 2 .5 2.8-.4 5.4-1 8-1 4-2.8 7.6-4.4 11.3l-2.3 5.6z" fill="#fefefd"/><path class="stl_old_st1" d="M96.5 58.7c0-.2 0 0 0 0zM97 62.3h-.1zM157.4 92v-.1zM157.5 92h-.1.1zM157.5 92v.1zM73 40.1s.2.2.1.3l-.2-.2h.1z"/><path class="stl_old_st1" d="M72.8 40l.2.1v.1l-.2-.2zM72.8 40c0-.1 0 0 0 0zM111.3 66.7h-.1v-.1z"/><path class="stl_old_st2" d="M106.9 83.4a9.5 9.5 0 01-4.6-5.7c-.3-1.2-.3-2.3.1-3.3 1.2-2.6 1.8-5.3 2.8-8 .3.5.7.8 1.1 1 1.9 1 3.3 2.3 4.4 4 .5.8 1.1 1.5 1.9 2 .3.3.3.5.2.8-.9 1.8-2.2 3.2-3.7 4.4-.5.5-.9 1-1 1.6 0 .5-.2.9-.6 1.2-.6.5-1 1.1-.6 2z"/><path class="stl_old_st1" d="M68.5 33c.3 0 .4.1.4.4-.2 0-.4-.2-.4-.4zM68.3 32.8s.2 0 .2.2l-.3-.1zM69.2 33.7zM69 33.5l.2.2-.1-.2zM69 33.5v-.1.1zM104.7 34.3l-.2-.2h.3l-.1.2zM104.3 34h-.1.1zM44.7 15.5l-.3-.1.3.1zM44.7 15.5zM26.4 11.7l-.2-.2h.3l-.1.2zM21.3 20.2c.2-.1.3-.1.4 0v.1h-.4z"/></svg>