<?xml version="1.0" encoding="UTF-8"?>
<!-- Created with Inkscape (http://www.inkscape.org/) -->
<svg width="2587.1" height="2507" version="1.1" viewBox="0 0 2587.1 2507" xmlns="http://www.w3.org/2000/svg">
 <defs>
  <linearGradient id="linearGradient119" x2="1" gradientTransform="matrix(2161 0 0 -2161 3180.4 13363)" gradientUnits="userSpaceOnUse">
   <stop stop-color="#f7b60e" offset="0"/>
   <stop stop-color="#f7b60e" offset=".078495"/>
   <stop stop-color="#f7b60e" offset=".31126"/>
   <stop stop-color="#f68716" offset=".57945"/>
   <stop stop-color="#b7591e" offset=".99438"/>
   <stop stop-color="#b7591e" offset="1"/>
  </linearGradient>
  <clipPath id="clipPath119">
   <path d="m5134 13146c-3.02-3.7-101.96-119.6-166.76-155.9 0 0-1403 249.6-1786.9 747.3 0 0 957.26-429.2 1538.4-326.9 581.1 102.4 622.53 164 622.53 164s-67.36-247.1-200.71-304.1c-133.36-57.1-724.79-1.2-724.79-1.2s567.23-148.8 718.17-123.2z"/>
  </clipPath>
  <linearGradient id="linearGradient122" x2="1" gradientTransform="matrix(834.73 0 0 -834.73 4394.5 12664)" gradientUnits="userSpaceOnUse">
   <stop stop-color="#f68616" offset="0"/>
   <stop stop-color="#fada32" offset=".6902"/>
   <stop stop-color="#fada32" offset="1"/>
  </linearGradient>
  <clipPath id="clipPath122">
   <path d="m5229.2 12543s-58.08-108.1-130.4-104.4c-72.29 3.7-551.05 247.7-704.32 450.9 0 0 632.25-346.1 834.72-346.5z"/>
  </clipPath>
  <linearGradient id="linearGradient140" x2="1" gradientTransform="matrix(282.52 0 0 -282.52 1759 17270)" gradientUnits="userSpaceOnUse">
   <stop stop-color="#f7b60e" offset="0"/>
   <stop stop-color="#f7b60e" offset=".078495"/>
   <stop stop-color="#f7b60e" offset=".31126"/>
   <stop stop-color="#f68716" offset=".57945"/>
   <stop stop-color="#b7591e" offset=".99438"/>
   <stop stop-color="#b7591e" offset="1"/>
  </linearGradient>
  <clipPath id="clipPath140">
   <path d="m2041.5 17193-19.72-23.2-27.63-32.8s-135.27 99.9-235.18 107.4c0 0 54.98 81.9 51.02 99.8-3.96 17.4-17.97 56.4-18.74 58.8 5.7-2.9 187.25-97.4 250.25-210z"/>
  </clipPath>
  <linearGradient id="linearGradient146" x2="1" gradientTransform="matrix(445.82 0 0 -445.82 1848.1 17533)" gradientUnits="userSpaceOnUse">
   <stop stop-color="#f7b60e" offset="0"/>
   <stop stop-color="#f7b60e" offset=".078495"/>
   <stop stop-color="#f7b60e" offset=".31126"/>
   <stop stop-color="#f68716" offset=".57945"/>
   <stop stop-color="#b7591e" offset=".99438"/>
   <stop stop-color="#b7591e" offset="1"/>
  </linearGradient>
  <clipPath id="clipPath146">
   <path d="m2293.9 17386s-22.32-0.3-50.72-13.6c-14.01-6.7-29.57-16.6-44.55-31.1 0 0-239.43 143-350.54 171l82.71 125s-4.16 67.6-8.41 78.8c-4.15 11.4 63.68 7.9 63.68 7.9s255.66-170.4 307.83-338z"/>
  </clipPath>
  <linearGradient id="linearGradient152" x2="1" gradientTransform="matrix(508.91 0 0 -508.91 2086.5 17765)" gradientUnits="userSpaceOnUse">
   <stop stop-color="#f7b60e" offset="0"/>
   <stop stop-color="#f7b60e" offset=".078495"/>
   <stop stop-color="#f7b60e" offset=".31126"/>
   <stop stop-color="#f68716" offset=".57945"/>
   <stop stop-color="#b7591e" offset=".99438"/>
   <stop stop-color="#b7591e" offset="1"/>
  </linearGradient>
  <clipPath id="clipPath152">
   <path d="m2595.4 17576c-13.72-2.3-27.63-6-40.49-10-35.07-11-63.19-25.4-63.19-25.4-81.25 76.7-405.23 255.4-405.23 255.4 96.62 115.7 83.39 186.7 82.42 191.3l-0.1 0.2 63.19 0.2c279.92-157.1 363.4-411.7 363.4-411.7z"/>
  </clipPath>
  <linearGradient id="linearGradient158" x2="1" gradientTransform="matrix(558.18 0 0 -558.19 2379 17942)" gradientUnits="userSpaceOnUse">
   <stop stop-color="#f7b60e" offset="0"/>
   <stop stop-color="#f7b60e" offset=".078495"/>
   <stop stop-color="#f7b60e" offset=".31126"/>
   <stop stop-color="#f68716" offset=".57945"/>
   <stop stop-color="#b7591e" offset=".99438"/>
   <stop stop-color="#b7591e" offset="1"/>
  </linearGradient>
  <clipPath id="clipPath158">
   <path d="m2937.2 17716s-36.43-7.1-76.04-19.4c-15.17-4.7-30.73-10.1-44.93-16.2 0 0-231.6 240.2-437.21 362.3 1.25 0 74.69 0.5 121.93 115.7 5.51 13.6 10.73 28.9 15.46 46 0 0 60.88 2.1 90.34-10.5 29.47-12.7 289.39-258.7 330.45-477.9z"/>
  </clipPath>
  <linearGradient id="linearGradient164" x2="1" gradientTransform="matrix(559.54 0 0 -559.54 2752.7 18075)" gradientUnits="userSpaceOnUse">
   <stop stop-color="#f7b60e" offset="0"/>
   <stop stop-color="#f7b60e" offset=".078495"/>
   <stop stop-color="#f7b60e" offset=".31126"/>
   <stop stop-color="#f68716" offset=".57945"/>
   <stop stop-color="#b7591e" offset=".99438"/>
   <stop stop-color="#b7591e" offset="1"/>
  </linearGradient>
  <clipPath id="clipPath164">
   <path d="m3312.3 17814-71.31-10.9-33.72-5.2s-375.86 391.9-454.51 417.9c4.44-0.6 58.26-6 133.53 92.1 10.15 13.1 20.58 28.1 31.4 45.3 0 0 263.78-110.3 394.61-539.2z"/>
  </clipPath>
  <linearGradient id="linearGradient170" x2="1" gradientTransform="matrix(541.76 0 0 -541.76 3171.1 18113)" gradientUnits="userSpaceOnUse">
   <stop stop-color="#f7b60e" offset="0"/>
   <stop stop-color="#f7b60e" offset=".078495"/>
   <stop stop-color="#f7b60e" offset=".31126"/>
   <stop stop-color="#f68716" offset=".57945"/>
   <stop stop-color="#b7591e" offset=".99438"/>
   <stop stop-color="#b7591e" offset="1"/>
  </linearGradient>
  <clipPath id="clipPath170">
   <path d="m3712.9 17850s-44.83 0-85.41-1.1c-28.89-0.7-55.66-2.1-62.61-4.4 0 0-280.59 396-393.74 448.9 0 0 103-4.7 166.48 59.2 8.7 8.6 16.62 18.6 23.48 30.1 0 0 79.52-37.8 107.25-40.2 0 0 229-290.1 244.55-492.5z"/>
  </clipPath>
  <linearGradient id="linearGradient176" x2="1" gradientTransform="matrix(463.21 0 0 -463.21 3636 18097)" gradientUnits="userSpaceOnUse">
   <stop stop-color="#f7b60e" offset="0"/>
   <stop stop-color="#f7b60e" offset=".078495"/>
   <stop stop-color="#f7b60e" offset=".31126"/>
   <stop stop-color="#f68716" offset=".57945"/>
   <stop stop-color="#b7591e" offset=".99438"/>
   <stop stop-color="#b7591e" offset="1"/>
  </linearGradient>
  <clipPath id="clipPath176">
   <path d="m4097.5 17819s-58.55 42-117.78 79.2c-45.89 28.9-92.27 54.8-111.98 55.7 0 0-91.99 179.6-175.18 287.5-0.19 0.3-0.39 0.7-0.68 1-19.51 25.4-38.64 46.6-55.84 60.6 0 0 83.67-0.9 139.23 32.4 16.42 9.9 30.44 22.8 39.03 39.6 0 0 82.71-53.9 100.3-91.3 17.58-37.4 204.55-363.3 182.9-464.7z"/>
  </clipPath>
  <linearGradient id="linearGradient193" x2="1" gradientTransform="matrix(5857.4 0 0 -5857.4 1466.4 16107)" gradientUnits="userSpaceOnUse">
   <stop stop-color="#f7b60e" offset="0"/>
   <stop stop-color="#f7b60e" offset=".078495"/>
   <stop stop-color="#f7b60e" offset=".31126"/>
   <stop stop-color="#f68716" offset=".57945"/>
   <stop stop-color="#b7591e" offset=".99438"/>
   <stop stop-color="#b7591e" offset="1"/>
  </linearGradient>
  <clipPath id="clipPath193">
   <path d="m4516.3 16316c-108.02 270.4 151.31 425.4 158.07 429.4-386.1-552.1 558.09-839.4 558.09-839.4-275.27 16.5-606.49 136.1-716.16 410zm998.78 876c307.07 239.7 546.01-142.6 818.29-141.1 272.28 1.6 380.5 230.4 380.5 230.4-0.1-375.4-372.86-355-372.86-355s-113.34-228.8-421.66-322.5c-308.42-93.7-295.86 357.4-295.86 357.4-186 16.4-190.92 297-190.92 297 49.47-75.9 82.51-66.2 82.51-66.2zm-2356.4-1619.9c1.06 13.6 37.49 447.5 496.34 740.5-10.82-11.7-359.72-388.5-496.34-740.5zm-210.35 138.3c11.6 26.2 207.64 451.7 689.69 656.6-8.31-5.7-540.5-370.9-689.69-656.6zm539.35 651s-433.35-250.4-568.72-366.9c81.07 84.8 285.03 274.1 568.72 366.9zm2029.4-51.4 0.67 0.1 3.38 0.6c32.08 4.8 243.88 36.9 302.43 40.4h0.68c5.21 0.3 9.17 0.4 11.69 0.1h0.19c2.42 0 4.83 0.1 7.34 0.3 64.74 3.6 174.6 29.2 303.11 69 256.43 79.2 587.07 214.8 781.67 346 311.51 209.5 282.71 79.8 255.37 38.9-27.25-40.9-207.35-180.8-277.4-207.5 0 0 164.93-39.1 289.28 97.8s313.25 503.2-298.17 616.5c-360.11 24.2-720.32 63.9-1077.2 117.3-811.43 121.2-1617.3 105.8-2423.7-42.2-549.3-100.8-1167.1-258.2-1586.6-650.3-320.49-299.6-412.09-711.2-293.63-1129.1 0 0.6-0.1 1.3-0.1 2-93.82 1741 2544.2 1560.3 2544.2 1560.3-131.7-53.4-207.35-109.8-250.35-153.8-46.19-47.2-54.88-80.3-54.88-80.3-23.09 1.7-45.99 3.1-68.7 4.4-407.26 22.9-742.15-16-1014.8-95.2h-0.19c-16.43-4.7-32.56-9.7-48.51-14.7-739.54-234.4-999.07-773.2-996.07-1154.8 0.39-55.9 6.28-108.3 17.29-155.9 115.95-503.7 615.78-815.5 615.78-815.5l-0.2 0.2c-527.55 711.5 250.74 1009.9 250.74 1009.9-41.26 102.7-42.71 297.3-42.71 297.3 14.4 70.2 46.47 172.7 79.42 269.3 47.44 139.4 96.53 266.4 96.53 266.4 75.65-43.8 241.65-64.8 418.85-74 11.31-0.6 22.61-1.2 33.92-1.6 22.32-1 44.73-1.8 67.05-2.5h1.94c22.03-0.6 43.96-1.1 65.7-1.4 53.62-0.9 105.9-1 154.79-0.6 4.44 0.1 8.89 0.1 13.23 0.1 1.45 0.1 2.9 0.1 4.26 0.1 4.83 0 9.56 0.1 14.2 0.1 0.87 0.1 1.64 0.1 2.51 0.1 5.99 0.1 11.88 0.1 17.68 0.2 8.41 0.1 16.62 0.3 24.74 0.5 6.28 0.1 12.37 0.2 18.35 0.3 58.36 1.1 107.45 2.8 141.75 4.1 3.96 0.2 7.83 0.3 11.4 0.5 1.74 0.1 3.38 0.1 5.03 0.2 3.38 0.1 6.47 0.3 9.37 0.4 2.22 0.1 4.25 0.2 6.18 0.3h0.48c3.29 0.2 6.19 0.3 8.7 0.4 0.87 0.1 1.74 0.1 2.51 0.1 5.99 0.3 9.09 0.4 9.09 0.4-2.03-0.7-4.16-1.5-6.28-2.3-157.5-57.8-439.15-121.4-937.24-146.5-6.37-0.2-11.79-4.8-13.04-11-8.41-39.3-37.39-178.5-44.06-238.5-1.16-11.3 10.63-19.4 20.58-14 72.47 39.4 311.99 167.7 448.71 216.1 0 0-448.71-242.9-495.47-285.6-2.42-2.2-3.77-5.2-4.16-8.5-3.28-27.6-21.55-184.8-24.83-227.8-0.29-4.9 1.74-9.4 5.7-12.3 29.56-21.8 160.87-115 268.99-139.8 0 0 22.23-134.2 121.85-169.7 99.51-35.5 261.16-36.2 255.75-28.8-5.41 7.6 280.01 771.2 461.28 910.8 51.11 39.3 83.57 77.8 103.77 112.6 121.93-289.7-117.78-674.1-117.78-674.1 191.89-99.9 337.21-17.3 337.21-17.3-39.43 36.7-91.7 231-93.24 237 298.56-309 967.95-399.6 967.95-399.6-471.22 181.3-1117.3 623.8-941.38 1076.8 1.16 2.9 2.32 5.8 3.57 8.7 135.85 330.8 603.21 410.9 833.17 430.1-168.12-20.2-448.9-99.1-542.72-397.5-51.21-162.6-28.8-340.1 57-487.6 26.57-45.7 60.97-94.4 105.52-143 162.7-177.6 460.69-353.6 1004.8-372.7 0 0 0.19-0.1 0.29 0 277.59 17.5 595.86 88.1 950.08 223.2 0 0 921.67 433 796.84 624.6 0 0-1307.9-384.6-1681.1-228.5z"/>
  </clipPath>
  <linearGradient id="linearGradient214" x2="1" gradientTransform="matrix(3212.2 0 0 -3212.2 2432.3 15556)" gradientUnits="userSpaceOnUse">
   <stop stop-color="#f68616" offset="0"/>
   <stop stop-color="#fada32" offset=".6902"/>
   <stop stop-color="#fada32" offset="1"/>
  </linearGradient>
  <clipPath id="clipPath214">
   <path d="m5637.7 15689c2.27-37.8 4.54-75.7 6.8-113.6-21.17-9.4-42.34-18.9-63.52-28.3 2.48-43.4 4.95-86.9 7.41-130.4-19.95 0.4-39.9 0.8-59.86 1.2-2.34 43.3-4.68 86.7-7.03 130-22.24 10-44.5 19.9-66.74 29.8-0.7 13.7-1.39 27.3-2.09 40.9-0.61 11.9-2.77 23.5-6.5 34.9-3.72 11.4-8.84 22.1-15.38 32.2-1.03 1.6-2.07 3.1-3.11 4.7 26.81-0.1 53.61-0.3 80.41-0.5 1.79-33.2 3.57-66.5 5.36-99.7 12.18-5.5 24.36-10.9 36.54-16.4 11.46 5.2 22.91 10.4 34.36 15.5-1.89 33.3-3.79 66.5-5.69 99.7h59.04zm-355.86-98c-0.65 15.1-1.29 30.2-1.94 45.3-0.27 6.5-3.16 12.1-8.68 16.7-5.51 4.7-12.22 7-20.11 7.1-14.29 0.1-28.59 0.1-42.89 0.2 1.18-33.4 2.36-66.9 3.53-100.4 23.36 10.4 46.73 20.7 70.09 31.1zm67.08-169.8c-19.96 0.3-39.92 0.7-59.88 1-1.84 43.3-3.69 86.6-5.54 129.9-23.27-10.4-46.54-20.7-69.81-31 1.27-32.6 2.55-65.2 3.83-97.8-19.96 0.4-39.92 0.7-59.89 1-2.38 65.8-4.77 131.5-7.16 197.3-0.85 23.5-7.96 45.4-21.26 65.8-1.01 1.6-2.02 3.2-3.03 4.7 54.97-0.2 109.94-0.5 164.91-0.8 15.84-14.7 31.68-29.4 47.53-44.1 2.35-51.5 4.7-103 7.05-154.6 1.1-24.2 8.32-46.5 21.75-67 1.04-1.6 2.08-3.2 3.12-4.8-7.2 0.1-14.41 0.3-21.62 0.4zm-381.56 136.7c-23.44-10.3-46.88-20.6-70.33-30.8 0.51-21.5 1.01-43 1.51-64.5 23.8-0.2 47.61-0.5 71.41-0.8-0.86 32.1-1.73 64.1-2.59 96.1zm-2.7 100c-23.56 0.1-47.13 0.2-70.69 0.3 0.59-30.9 1.17-61.8 1.75-92.7 23.54 10.3 47.07 20.6 70.6 30.9-0.55 20.5-1.1 41-1.66 61.5zm87.76-232.1c-70.99 0.9-141.98 1.8-212.97 2.6l-3.96 195.3c-0.47 23.2-7.22 44.9-20.2 65.1-0.99 1.6-1.97 3.1-2.96 4.7 60.86-0.2 121.71-0.5 182.57-0.7 7.93-0.1 14.64-2.6 20.12-7.7 5.49-5.1 8.35-11.4 8.57-19 0.83-27.6 1.66-55.3 2.49-83-11.95-5.2-23.9-10.4-35.86-15.6 12.27-5.5 24.54-10.9 36.82-16.3 0.55-18.3 1.09-36.7 1.64-55 0.71-23.6 7.59-45.5 20.68-65.7 1.03-1.6 2.04-3.2 3.06-4.7zm-574.41 234c-23.56 0.1-47.13 0.2-70.7 0.2-0.2-30.6-0.41-61.2-0.61-91.8 23.8 10.3 47.61 20.6 71.41 30.9-0.03 20.2-0.06 40.5-0.1 60.7zm81.91-228.9c-27.18 0.2-54.37 0.4-81.54 0.5-0.07 43.2-0.14 86.4-0.21 129.6-23.71-10.3-47.42-20.6-71.14-30.8l-0.21-98.4-59.91 0.3c0.34 64.5 0.68 129 1.03 193.5 0.13 23-6.07 44.5-18.54 64.5-0.95 1.5-1.9 3.1-2.84 4.6 60.86-0.1 121.72-0.2 182.58-0.3 7.95 0 14.57-2.6 19.93-7.6s8.06-11.2 8.09-18.7c0.13-27.3 0.26-54.6 0.39-82l-36.27-15.6 36.42-15.9c0.08-18.1 0.17-36.2 0.25-54.3 0.11-23.3 6.46-44.9 19.03-64.8 0.98-1.5 1.96-3.1 2.94-4.6zm-544.47 259.5c-0.93 1.5-1.85 3-2.77 4.6 70.16-0.1 140.32-0.1 210.48-0.2-0.36-29.9-0.71-59.8-1.07-89.7h-0.41c-13.06 10.3-27.81 16.7-44.26 19-4.11 0.5-7.51 2.3-10.22 5.2-2.69 3-4.02 6.5-3.95 10.6 0.1 6.9 0.2 13.7 0.31 20.5h-70.7l-1.71-90c23.84 10.3 47.68 20.7 71.51 31-0.19-12.8-0.39-25.7-0.58-38.5-23.89-10.3-47.77-20.7-71.66-31-0.25-12.9-0.49-25.9-0.74-38.8-0.13-7.2 2.5-13.3 7.9-18.3 5.41-5 11.98-7.5 19.69-7.5 14.45 0 28.91 0 43.36-0.1 0.24 16 0.48 32 0.72 47.9 19.89 0 39.77 0 59.65-0.1-0.05-4.3-0.1-8.7-0.15-13-0.29-23.3 5.67-44.9 17.94-64.9 0.95-1.5 1.91-3 2.86-4.6-55.76 0.2-111.51 0.3-167.26 0.4-14.94 14.2-29.89 28.3-44.82 42.5 1.1 50.1 2.21 100.1 3.32 150.2 0.5 22.7-5.33 44.3-17.44 64.8zm-161.42-30c-23.56 0-47.13 0-70.7-0.1 0-0.1-0.01-0.2-0.01-0.3-2.28-64.3-4.57-128.6-6.85-192.9 14.59 0 29.18 0.1 43.77 0.1 7.68 0 14.32 2.6 19.86 7.7 5.53 5.1 8.43 11.3 8.63 18.4 1.77 55.7 3.54 111.4 5.3 167.1zm53.91-185-47.4-42.6c-48.4-0.1-96.81-0.2-145.21-0.4 2.5 64.5 4.99 128.9 7.48 193.3 0.46 11.6-0.7 22.7-3.44 33.6-2.73 10.9-6.91 21.1-12.54 30.9-0.9 1.5-1.8 3-2.69 4.6 60.72 0 121.45 0.1 182.17 0.1 7.93 0 14.51-2.5 19.69-7.4 5.19-5 7.69-11.2 7.47-18.6-1.84-64.5-3.68-129-5.53-193.5zm-297.44-43.4c-27.18-0.2-54.37-0.3-81.55-0.5 1.9 39.2 3.8 78.5 5.69 117.7-22.21 28.6-44.42 57.2-66.63 85.9-3.53-68-7.07-136-10.61-204.1-19.97-0.1-39.94-0.2-59.91-0.4 3.57 64.8 7.13 129.5 10.7 194.2 1.28 23.2-3.84 44.7-15.31 64.7-0.87 1.6-1.74 3.1-2.61 4.6 26.93 0.1 53.88 0.2 80.82 0.2-0.15-2.9-0.3-5.9-0.45-8.8 22.14-28.7 44.28-57.3 66.44-86 1.52 31.7 3.06 63.3 4.58 95 19.7 0 39.39 0.1 59.09 0.1-2.92-64.5-5.84-129.1-8.76-193.6-1.05-23.3 4.2-44.8 15.8-64.5 0.9-1.5 1.81-3 2.71-4.5zm-318.26-2.3c-55.74-0.5-111.49-1-167.22-1.7l-42.69 42.6c3.61 50.8 7.22 101.6 10.83 152.3 1.66 23.6-3.08 45.4-14.21 65.5-0.85 1.6-1.7 3.1-2.54 4.7l80.82 0.3c-4.79-70.3-9.58-140.6-14.37-210.9-0.44-6.5 1.93-11.9 7.13-16.4 5.21-4.5 11.64-6.7 19.36-6.6 14.46 0.1 28.91 0.3 43.36 0.4 5.03 78 10.06 155.9 15.09 233.7 19.69 0.1 39.38 0.2 59.08 0.2-3.99-64.9-7.99-129.8-11.99-194.7-1.43-23.4 3.45-45 14.72-64.8 0.88-1.5 1.76-3 2.63-4.6zm-318.2-3.5c-27.17-0.4-54.35-0.7-81.52-1.1 3.46 43.1 6.92 86.3 10.37 129.4-24.55-10.7-49.11-21.4-73.68-32.1-2.74-32.8-5.48-65.5-8.22-98.4-19.96-0.3-39.93-0.6-59.89-0.9 5.71 66 11.41 132 17.11 198 2.03 23.5-2.36 45.5-13.18 65.8-0.82 1.6-1.64 3.1-2.46 4.7 26.94 0.1 53.88 0.3 80.82 0.4-0.01-0.1-0.02-0.2-0.03-0.4-3.63-43.4-7.27-86.9-10.91-130.4 24.53 10.8 49.05 21.6 73.58 32.4 2.63 32.8 5.26 65.6 7.89 98.4 19.69 0.1 39.38 0.2 59.08 0.3-5.06-65.4-10.11-130.8-15.16-196.2-1.82-23.6 2.7-45.4 13.64-65.3 0.86-1.5 1.71-3 2.56-4.6zm-309.96 264.4c-2.83-30.7-5.66-61.5-8.5-92.2-0.12 0.1-0.25 0.2-0.37 0.3-5.83 5.3-12.37 9.4-19.63 12.6-7.25 3.1-14.93 5.3-23.04 6.5-4.07 0.5-7.33 2.3-9.79 5.3-2.45 3-3.48 6.6-3.08 10.9 0.67 7 1.34 14.1 2.01 21.1-5.35 0-10.69-0.1-16.03-0.1-7.49-78.4-14.98-156.8-22.47-235.3-19.96-0.3-39.91-0.7-59.87-1.1 7.73 78.7 15.44 157.4 23.16 235.9-5.61 0-11.23-0.1-16.84-0.1-1.18-11.9-2.36-23.9-3.54-35.8l-59.28-0.6c2.44 23.9-1.62 46.2-12.07 66.8-0.8 1.6-1.59 3.2-2.38 4.8 77.23 0.4 154.48 0.7 231.72 1z"/>
  </clipPath>
 </defs>
 <g transform="matrix(2.688 0 0 2.688 -161.96 42)">
  <path d="m360.98 673.4 28.041 26.547c41.153 38.973 130.88 50.44 131.79 50.56l8.5027 1.0533 5.6853 6.4133c19.561 22.173 40.18 40.693 61.283 55.067 31.267 21.32 63.36 33.693 95.392 36.8 9.6267 0.93333 17.809 0.84 24.151 0.38667-0.0026667-1.1867-0.022667-2.3467-0.053333-3.4667-25.319-17.707-53.055-45.293-54.379-46.613l-24.587-24.533 32.393-12.533c22.585-8.7333 56.492-53.293 68.052-70.987l-77.14 21.747c-5.1907 1.4667-10.549 2.9333-15.925 4.3467-39.675 10.467-89.388 7.68-143.75-8.04l-146.01-42.227 151.98-2.0667c49.449-0.68 99.58 0.57333 149 3.6933l132.1 8.3733-11.051 3.1067c42.771 5.4267 85.685 12.32 127.87 20.547 18.62-8.4 35.745-16.28 51.856-23.867-8.108-74.147-16.581-149.61-25.243-224.84-35.548-0.76-72.645-1.4533-110.56-2.04l-112.75-1.76 104.73-41.813c55.863-22.307 94.032-49.733 94.412-50.013l3.1253-2.2667 3.7187-1.1067c21.637-6.4133 35.555-15.8 41.363-27.88 6.3893-13.293 1.3547-27.44 0.784-28.947l-5.8653-12.507 8.8853-10.427c14.615-18.52 19.537-36.147 14.633-52.4-0.72267-1.76-4.816-7.0667-26.569-16.707-20.556-9.0933-37.964-13.867-54.772-15.04-11.039-0.77333-22.281-1.7867-31.953-2.68-29.96-2.7867-59.447-5.8533-94.505-9.6133-27.675-2.9467-57.835-6.24-92.187-10.08-13.655-1.5333-27.32-3.0667-40.973-4.6267-2.416-0.13333-13.524-0.72-30.523-0.74667l-17.665-0.04-4.2293-17.147c-0.368-1.4933-0.764-2.9067-1.176-4.2267-10.765-34.68-46.968-67.12-69.069-83.44-20.893 8.9067-44.777 5.44-62.788-0.81333-10.051 6.92-25.008 11.707-46.665 7.48-4.2987-0.82667-8.3787-1.9467-12.077-3.1333-15.127 14.6-35.568 18.347-52.777 17.56-6.0507 11.947-14.279 19.08-21.185 23.253-9.032 5.4667-18.537 7.68-26.985 8.2667-5.4493 14.507-16.487 24.56-27.417 30.893-0.90667 9.6133-4.196 16.987-7.4587 22.12-3.82 6.0267-8.504 10.56-13.16 13.96 0.068 10.453-2.9253 19.987-7.636 28.4 3.5573 1.1867 6.9907 2.5333 10.296 4.04 7.6733 3.5067 14.541 7.8133 20.417 12.813l20.069 17.093-19.956 17.227c-10.037 8.6533-19.16 18.013-27.115 27.8-9.8587 12.12-18.22 25.267-24.855 39.08l-2.96 6.16-5.8747 3.48c-6.9507 4.1333-38.644 24.133-57.235 56.173 7.8107 6.1467 17.868 14.387 28.315 23.813l42.32 38.213-63.653 1.2933c-2.5413 0.053333-5.084 0.093333-7.6253 0.14667-11.646 75.507-22.97 151.2-33.736 225.53 15.518 7.56 31.92 15.4 49.644 23.693 42.184-8.2667 85.179-15.213 127.91-20.667l14.593-1.8533 7.604 12.587c11.492 19.027 25.507 32.613 37.927 41.973 1.2213-12.187 3.388-21.227 3.856-23.093zm345.43 222.31c-31.615 0-80.667-7.88-135.59-45.32-22.168-15.107-43.707-34.013-64.112-56.28-20.225-3.24-71.773-13.293-114.4-36.827 0.27467 3.5333 0.796 6.9733 1.6453 10.12l10.849 40.16-39.596-12.773c-2.1667-0.69333-49.881-16.56-85.843-66.88-39.548 5.3333-79.216 11.973-118.12 19.747l-7.2627 1.4533-6.7133-3.12c-26.433-12.32-49.977-23.6-71.975-34.493l-14.675-7.2667 2.3365-16.213c12.369-85.8 25.508-173.61 39.052-260.99l1.8448-11.893c-0.58853-0.42667-0.912-0.66667-0.9364-0.68l-14.277-10.227 6.3744-16.36c18.502-47.427 58.977-77.947 77.737-90.067 7.632-14.787 33.059-48.627 35.984-51.867-7.7453-1.56-67.235-15.747-67.235-15.747s39.369-33.627 45.927-40.52c8.7-9.1333 6.6613-14.453 5.5667-17.307l-9.8667-25.72 25.888-4.4c7.352-2.1467 6.2573-7 5.3747-10.893l-5.0173-22.213 21.588-4.6933c3.9147-1.0933 15.673-5.3333 14.519-16.467l-3.6467-35.187 32.808 11.267c3.4187 0.93333 11.639 1.8667 16.355-1.08 3.3133-2.0533 5.6373-6.6933 6.9067-13.787l4.58-25.56 24.304 7.9467c1.936 0.56 26.071 7.1333 33.493-8.1467l10.38-21.347 20.816 11.427c7.3973 3.9733 27.119 10.853 31.516 4.04l11.328-17.547 18.384 9.92c6.104 3.2133 31.615 13.387 43.268 3.4267l12.628-10.773 14.06 8.8267c3.0453 1.92 71.233 45.293 95.704 105.83 10.863 0.24 17.127 0.64 17.493 0.66667l1.108 0.10667c13.816 1.5733 27.645 3.1333 41.461 4.68 34.276 3.8267 64.36 7.12 91.973 10.053 34.879 3.7467 64.181 6.8 93.863 9.5467 9.8547 0.90667 20.369 1.8533 30.941 2.6 22.191 1.5467 44.408 7.52 69.916 18.8 14.231 6.3067 43.82 19.413 51.537 44.96 5.924 19.627 7.576 49.44-15.321 83.72 2.7333 12.453 4.2173 31.987-5.2133 52.28-10.995 23.68-33.203 40.96-66.037 51.427-3.3693 2.3333-9.26 6.2667-17.328 11.227 13.159 0.26667 26.127 0.54667 38.873 0.82667l19.672 0.45333 2.26 19.547c10.085 87.187 19.935 174.89 29.279 260.68l1.736 15.933-14.464 6.8933c-22.395 10.693-46.545 21.853-73.832 34.12l-6.5867 2.96-7.084-1.4133c-44.036-8.76-88.929-16.04-133.66-21.667-5.3093 7.4933-12.763 17.507-21.455 27.893-11.653 13.933-22.812 25.307-33.403 34.027 11.303 9.9867 24.581 20.853 35.005 27.027l14.017 8.3067-2.72 12.52c0.61067 7.5467 1.4787 24.547-1.4587 38.973l-2.72 13.333-13.069 3.8267c-1.308 0.38667-14.844 4.1733-36.739 4.1733" fill="#885cb2"/>
  <g fill="#371433">
   <path d="m679.84 848.56c-9.6387-0.49333-73.473-33.027-93.909-60.12 0 0 84.3 46.147 111.3 46.2 0 0-7.744 14.413-17.387 13.92zm-255.79-173.13s127.63 57.227 205.13 43.587c77.48-13.653 83.004-21.867 83.004-21.867s-8.9813 32.947-26.761 40.547c-17.781 7.6133-96.639 0.16-96.639 0.16s75.631 19.84 95.756 16.427c-0.40267 0.49333-13.595 15.947-22.235 20.787 0 0-187.06-33.28-238.25-99.64zm313.55 158.75c0.0066667-0.026667 0.0026667-0.066667-8e-3 -0.08v-0.053333c-0.010667-0.013333-8e-3 -0.026667-8e-3 -0.026667-25.312-15.013-60.232-49.853-60.232-49.853 36.227-14.027 80.441-82.013 80.76-82.773l0.0026667-0.013333c-4.9813-23.373-22.968-40.48-23.003-40.507-0.0093333-0.013333-0.054667-0.053333-0.054667-0.053333s-17.953 14.787-96.631 35.533c-91.799 24.2-221.63-36.373-271.45-76.507l-81.5 75.013c32.124 60.853 86.676 78.44 86.676 78.44-6.716-24.867 1.34-56.933 1.34-56.933 47.205 44.693 144.57 56.573 144.57 56.573 22.371 25.347 44.46 44.453 65.5 58.787 85.196 58.067 153.25 38.133 153.25 38.133 2.944-14.44 0.992-33.893 0.79333-35.68"/>
   <path d="m424.05 675.43s127.63 57.227 205.13 43.587c77.48-13.653 83.004-21.867 83.004-21.867s-8.9813 32.947-26.761 40.547c-17.781 7.6133-96.639 0.16-96.639 0.16s75.631 19.84 95.756 16.427c-0.40267 0.49333-13.595 15.947-22.235 20.787 0 0-187.06-33.28-238.25-99.64"/>
   <path d="m697.22 834.64s-7.744 14.413-17.387 13.92c-9.6387-0.49333-73.473-33.027-93.909-60.12 0 0 84.3 46.147 111.3 46.2"/>
  </g>
  <path transform="matrix(.13333 0 0 -.13333 0 2507)" d="m5134 13146c-3.02-3.7-101.96-119.6-166.76-155.9 0 0-1403 249.6-1786.9 747.3 0 0 957.26-429.2 1538.4-326.9 581.1 102.4 622.53 164 622.53 164s-67.36-247.1-200.71-304.1c-133.36-57.1-724.79-1.2-724.79-1.2s567.23-148.8 718.17-123.2" clip-path="url(#clipPath119)" fill="url(#linearGradient119)"/>
  <path transform="matrix(.13333 0 0 -.13333 0 2507)" d="m5229.2 12543s-58.08-108.1-130.4-104.4c-72.29 3.7-551.05 247.7-704.32 450.9 0 0 632.25-346.1 834.72-346.5" clip-path="url(#clipPath122)" fill="url(#linearGradient122)"/>
  <path d="m492.55 73.467c-0.077333 0.46667-0.14267 0.90667-0.20667 1.3733-0.76 5.0133-1.276 10.027-1.572 15.067l-1.752 0.4c0.91467-5.3067 1.984-10.52 3.2333-15.6 0.090667-0.41333 0.19333-0.82667 0.29733-1.24" fill="#17212b"/>
  <g fill="#371433">
   <path d="m959.39 280.96c-16.58 18.253-38.571 13.04-38.571 13.04 9.34-3.56 33.353-22.213 36.987-27.667 3.6453-5.4533 7.4853-22.747-34.049 5.1867-25.947 17.493-70.032 35.573-104.22 46.133-17.135 5.3067-31.783 8.72-40.415 9.2-0.33467 0.026667-0.656 0.04-0.97867 0.04h-0.025333c-0.336-0.04-0.864-0.026667-1.5587 0.013333h-0.090667c-7.8067 0.46667-36.047 4.7467-40.324 5.3867l-0.45067 0.08-0.089333 0.013333c49.765 20.813 224.15-30.467 224.15-30.467 16.644 25.547-106.25 83.28-106.25 83.28-47.229 18.013-89.665 27.427-126.68 29.76-0.013333 0.013333-0.038667 0-0.038667 0-72.544-2.5467-112.28-26.013-133.97-49.693-5.94-6.48-10.527-12.973-14.069-19.067-11.44-19.667-14.428-43.333-7.6-65.013 12.509-39.787 49.947-50.307 72.363-53-30.661 2.56-92.976 13.24-111.09 57.347-0.16667 0.38667-0.32133 0.77333-0.476 1.16-23.46 60.4 62.688 119.4 125.52 143.57 0 0-89.252-12.08-129.06-53.28 0.20533 0.8 7.1747 26.707 12.432 31.6 0 0-19.376 11.013-44.961-2.3067 0 0 31.961-51.253 15.704-89.88-2.6933 4.64-7.0213 9.7733-13.836 15.013-24.169 18.613-62.225 120.43-61.504 121.44 0.72133 0.98667-20.832 0.89333-34.1-3.84-13.283-4.7333-16.247-22.627-16.247-22.627-14.416-3.3067-31.924-15.733-35.865-18.64-0.528-0.38667-0.79867-0.98667-0.76-1.64 0.43733-5.7333 2.8733-26.693 3.3107-30.373 0.052-0.44 0.232-0.84 0.55467-1.1333 6.2347-5.6933 66.063-38.08 66.063-38.08-18.229 6.4533-50.165 23.56-59.828 28.813-1.3267 0.72-2.8987-0.36-2.744-1.8667 0.88933-8 4.7533-26.56 5.8747-31.8 0.16667-0.82667 0.88933-1.44 1.7387-1.4667 66.412-3.3467 103.97-11.827 124.97-19.533 0.28267-0.10667 0.56667-0.21333 0.83733-0.30667 0 0-0.41333 0.013333-1.212 0.053333-0.10267 0-0.21867 0-0.33467 0.013333-0.33467 0.013333-0.72133 0.026667-1.16 0.053333h-0.064c-0.25733 0.013333-0.528 0.026667-0.824 0.04-0.38667 0.013333-0.79867 0.04-1.2493 0.053333-0.22 0.013333-0.43867 0.013333-0.67067 0.026667-0.476 0.026667-0.992 0.04-1.52 0.066667-4.5733 0.17333-11.119 0.4-18.9 0.54667-0.79733 0.013333-1.6093 0.026667-2.4467 0.04-1.0827 0.026667-2.1773 0.053333-3.2987 0.066667-0.77333 0.013333-1.5587 0.013333-2.3573 0.026667-0.116 0-0.21867 0-0.33467 0.013333-0.61867 0-1.2493 0.013333-1.8933 0.013333-0.18133 0-0.37467 0-0.568 0.013333-0.57867 0-1.172 0-1.764 0.013333-6.5187 0.053333-13.489 0.04-20.639-0.08-2.8987-0.04-5.8227-0.10667-8.76-0.18667h-0.25867c-2.976-0.093333-5.964-0.2-8.94-0.33333-1.508-0.053333-3.0147-0.13333-4.5227-0.21333-23.627-1.2267-45.76-4.0267-55.847-9.8667 0 0-6.5453 16.933-12.871 35.52-4.3933 12.88-8.6693 26.547-10.589 35.907 0 0 0.19333 25.947 5.6947 39.64 0 0-103.77 39.787-33.432 134.65l0.026667 0.026667s-66.644-41.573-82.104-108.73c-1.468-6.3467-2.2533-13.333-2.3053-20.787-0.4-50.88 34.204-122.72 132.81-153.97 3.324-1.52 5.656-2.2933 6.468-1.96h0.025333c36.356-10.56 81.008-15.747 135.31-12.693 3.028 0.17333 6.0813 0.36 9.16 0.58667 0 0 1.1587-4.4133 7.3173-10.707 5.7333-5.8667 15.82-13.387 33.38-20.507 0 0-351.74-24.093-339.23 208.04 0 0.093333 0.013333 0.18667 0.013333 0.26667-15.795-55.72-3.5813-110.6 39.151-150.55 55.937-52.28 138.31-73.267 211.55-86.707 107.52-19.733 214.96-21.787 323.15-5.6267 47.589 7.12 95.617 12.413 143.63 15.64 81.523 15.107 56.336 63.947 39.756 82.2zm-724.86-73.213s7.3307-10.92 6.8027-13.307c-0.528-2.32-2.396-7.52-2.4987-7.84 0.76 0.38667 24.967 12.987 33.367 28l-2.6293 3.0933-3.684 4.3733s-18.036-13.32-31.357-14.32zm21.785-62.893c-0.55333-1.52 8.4907-1.0533 8.4907-1.0533s34.088 22.72 41.044 45.067c0 0-2.976 0.04-6.7627 1.8133-1.868 0.89333-3.9427 2.2133-5.94 4.1467 0 0-31.924-19.067-46.739-22.8l11.028-16.667s-0.55467-9.0133-1.1213-10.507zm32.877-36.187-0.013333-0.026667 8.4253-0.026667c37.323 20.947 48.453 54.893 48.453 54.893-1.8293 0.30667-3.684 0.8-5.3987 1.3333-4.676 1.4667-8.4253 3.3867-8.4253 3.3867-10.833-10.227-54.031-34.053-54.031-34.053 12.883-15.427 11.119-24.893 10.989-25.507zm44.265-22.72c0.73467-1.8133 1.4307-3.8533 2.0613-6.1333 0 0 8.1173-0.28 12.045 1.4 3.9293 1.6933 38.585 34.493 44.06 63.72 0 0-4.8573 0.94667-10.139 2.5867-2.0227 0.62667-4.0973 1.3467-5.9907 2.16 0 0-30.88-32.027-58.295-48.307 0.16667 0 9.9587-0.066667 16.257-15.427zm51.377-19.933c1.3533-1.7467 2.744-3.7467 4.1867-6.04 0 0 35.171 14.707 52.615 71.893l-9.508 1.4533-4.496 0.69333s-50.115-52.253-60.601-55.72c0.592 0.08 7.768 0.8 17.804-12.28zm60.176-5.9467c1.16-1.1467 2.216-2.48 3.1307-4.0133 0 0 10.603 5.04 14.3 5.36 0 0 30.533 38.68 32.607 65.667 0 0-5.9773 0-11.388 0.14667-3.852 0.093333-7.4213 0.28-8.348 0.58667 0 0-37.412-52.8-52.499-59.853 0 0 13.733 0.62667 22.197-7.8933zm58.36 2.24c2.1893-1.32 4.0587-3.04 5.204-5.28 0 0 11.028 7.1867 13.373 12.173 2.344 4.9867 27.273 48.44 24.387 61.96 0 0-7.8067-5.6-15.704-10.56-6.1187-3.8533-12.303-7.3067-14.931-7.4267 0 0-12.265-23.947-23.357-38.333-0.76 5.0133-1.276 10.027-1.572 15.067l-1.752 0.4c0.91467-5.3067 1.984-10.52 3.2333-15.6-2.6013-3.3867-5.152-6.2133-7.4453-8.08 0 0 11.156 0.12 18.564-4.32zm72.776 69.4-2.6547 1.24-4.4707-2.6133s-21.347-45.04-30.197-55.307c0 0 27.196 21.96 37.323 56.68zm418.89 83.467c-4.5613-15.093-26.165-25.12-39.049-30.827-19.891-8.8-40.529-15.413-62.352-16.933-10.488-0.73333-20.975-1.6667-31.448-2.64-31.421-2.9067-62.804-6.2-94.173-9.5733-30.701-3.2667-61.4-6.64-92.088-10.067-13.836-1.5467-27.685-3.1067-41.521-4.6933 0 0-12.123-0.78667-32.439-0.82667-0.464-1.88-0.98-3.7467-1.56-5.5867-18.164-58.533-89.755-103.49-89.755-103.49-26.061 22.253-68.665-0.73333-68.665-0.73333-17.728 27.467-61.375 3.5067-61.375 3.5067-16.323 33.587-60.46 19.867-60.46 19.867-8.296 46.307-52.188 32.467-52.188 32.467 3.336 32.187-31.525 40.72-31.525 40.72 7.0987 31.413-22.339 37.92-22.339 37.92 13.515 35.227-32.464 57.307-32.464 57.307 22.956-0.92 39.395 3.0933 50.912 8.3467 6.5453 3 11.505 6.3733 15.151 9.48-10.808 9.32-20.832 19.507-29.888 30.653-10.693 13.16-20.033 27.627-27.685 43.547-9.7267 5.7733-55.512 34.933-74.051 82.467 0 0 51.57 36.867 78.199 72.627 4.148 5.5867 7.6907 11.12 10.345 16.493 3.3107 4.68 6.648 9.08 10.009 13.253 36.729 45.747 74.232 61.88 74.232 61.88 7.2653 13.96 15.511 25.84 24.193 35.96l62.74-91.293c-1.056-0.52-2.0733-1.0267-3.0653-1.5333-55.436-28.427-25.225-67.88-25.225-67.88 1.4173 6.7467 26.295 33.04 26.295 33.04 16.709 27.027 65.291 30.4 65.291 30.4 1.8547-15.987 18.409-46.907 18.409-46.907 19.724-25.587 123.07-9.6 123.07-9.6 164.39 60.333 339.46-66.987 339.46-66.987 83.868-24.88 56.479-87.427 56.479-87.427 21.979-27.853 24.607-52.787 18.527-72.933"/>
   <path d="m234.53 207.75s7.3307-10.92 6.8027-13.307c-0.528-2.32-2.396-7.52-2.4987-7.84 0.76 0.38667 24.967 12.987 33.367 28l-2.6293 3.0933-3.684 4.3733s-18.036-13.32-31.357-14.32"/>
   <path d="m246.41 172.03 11.028-16.667s-0.55467-9.0133-1.1213-10.507c-0.55333-1.52 8.4907-1.0533 8.4907-1.0533s34.088 22.72 41.044 45.067c0 0-2.976 0.04-6.7627 1.8133-1.868 0.89333-3.9427 2.2133-5.94 4.1467 0 0-31.924-19.067-46.739-22.8"/>
   <path d="m278.2 134.17c12.883-15.427 11.119-24.893 10.989-25.507l-0.013333-0.026667 8.4253-0.026667c37.323 20.947 48.453 54.893 48.453 54.893-1.8293 0.30667-3.684 0.8-5.3987 1.3333-4.676 1.4667-8.4253 3.3867-8.4253 3.3867-10.833-10.227-54.031-34.053-54.031-34.053"/>
   <path d="m317.2 101.37c0.16667 0 9.9587-0.066667 16.257-15.427 0.73467-1.8133 1.4307-3.8533 2.0613-6.1333 0 0 8.1173-0.28 12.045 1.4 3.9293 1.6933 38.585 34.493 44.06 63.72 0 0-4.8573 0.94667-10.139 2.5867-2.0227 0.62667-4.0973 1.3467-5.9907 2.16 0 0-30.88-32.027-58.295-48.307"/>
   <path d="m367.03 78.293c0.592 0.08 7.768 0.8 17.804-12.28 1.3533-1.7467 2.744-3.7467 4.1867-6.04 0 0 35.171 14.707 52.615 71.893l-9.508 1.4533-4.496 0.69333s-50.115-52.253-60.601-55.72"/>
   <path d="m422.81 67.96s13.733 0.62667 22.197-7.8933c1.16-1.1467 2.216-2.48 3.1307-4.0133 0 0 10.603 5.04 14.3 5.36 0 0 30.533 38.68 32.607 65.667 0 0-5.9773 0-11.388 0.14667-3.852 0.093333-7.4213 0.28-8.348 0.58667 0 0-37.412-52.8-52.499-59.853"/>
   <path d="m484.81 66.627s11.156 0.12 18.564-4.32c2.1893-1.32 4.0587-3.04 5.204-5.28 0 0 11.028 7.1867 13.373 12.173 2.344 4.9867 27.273 48.44 24.387 61.96 0 0-7.8067-5.6-15.704-10.56-6.1187-3.8533-12.303-7.3067-14.931-7.4267 0 0-12.265-23.947-23.357-38.333-0.76 5.0133-1.276 10.027-1.572 15.067l-1.752 0.4c0.91467-5.3067 1.984-10.52 3.2333-15.6-2.6013-3.3867-5.152-6.2133-7.4453-8.08"/>
   <path d="m569.02 130.33s-21.347-45.04-30.197-55.307c0 0 27.196 21.96 37.323 56.68l-2.6547 1.24-4.4707-2.6133"/>
   <path d="m959.75 301.92c16.644 25.547-106.25 83.28-106.25 83.28-47.229 18.013-89.665 27.427-126.68 29.76-0.013333 0.013333-0.038667 0-0.038667 0-72.544-2.5467-112.28-26.013-133.97-49.693-5.94-6.48-10.527-12.973-14.069-19.067-11.44-19.667-14.428-43.333-7.6-65.013 12.509-39.787 49.947-50.307 72.363-53-30.661 2.56-92.976 13.24-111.09 57.347-0.16667 0.38667-0.32133 0.77333-0.476 1.16-23.46 60.4 62.688 119.4 125.52 143.57 0 0-89.252-12.08-129.06-53.28 0.20533 0.8 7.1747 26.707 12.432 31.6 0 0-19.376 11.013-44.961-2.3067 0 0 31.961-51.253 15.704-89.88-2.6933 4.64-7.0213 9.7733-13.836 15.013-24.169 18.613-62.225 120.43-61.504 121.44 0.72133 0.98667-20.832 0.89333-34.1-3.84-13.283-4.7333-16.247-22.627-16.247-22.627-14.416-3.3067-31.924-15.733-35.865-18.64-0.528-0.38667-0.79867-0.98667-0.76-1.64 0.43733-5.7333 2.8733-26.693 3.3107-30.373 0.052-0.44 0.232-0.84 0.55467-1.1333 6.2347-5.6933 66.063-38.08 66.063-38.08-18.229 6.4533-50.165 23.56-59.828 28.813-1.3267 0.72-2.8987-0.36-2.744-1.8667 0.88933-8 4.7533-26.56 5.8747-31.8 0.16667-0.82667 0.88933-1.44 1.7387-1.4667 66.412-3.3467 103.97-11.827 124.97-19.533 0.28267-0.10667 0.56667-0.21333 0.83733-0.30667 0 0-0.41333 0.013333-1.212 0.053333-0.10267 0-0.21867 0-0.33467 0.013333-0.33467 0.013333-0.72133 0.026667-1.16 0.053333h-0.064c-0.25733 0.013333-0.528 0.026667-0.824 0.04-0.38667 0.013333-0.79867 0.04-1.2493 0.053333-0.22 0.013333-0.43867 0.013333-0.67067 0.026667-0.476 0.026667-0.992 0.04-1.52 0.066667-4.5733 0.17333-11.119 0.4-18.9 0.54667-0.79733 0.013333-1.6093 0.026667-2.4467 0.04-1.0827 0.026667-2.1773 0.053333-3.2987 0.066667-0.77333 0.013333-1.5587 0.013333-2.3573 0.026667-0.116 0-0.21867 0-0.33467 0.013333-0.61867 0-1.2493 0.013333-1.8933 0.013333-0.18133 0-0.37467 0-0.568 0.013333-0.57867 0-1.172 0-1.764 0.013333-6.5187 0.053333-13.489 0.04-20.639-0.08-2.8987-0.04-5.8227-0.10667-8.76-0.18667h-0.25867c-2.976-0.093333-5.964-0.2-8.94-0.33333-1.508-0.053333-3.0147-0.13333-4.5227-0.21333-23.627-1.2267-45.76-4.0267-55.847-9.8667 0 0-6.5453 16.933-12.871 35.52-4.3933 12.88-8.6693 26.547-10.589 35.907 0 0 0.19333 25.947 5.6947 39.64 0 0-103.77 39.787-33.432 134.65l0.026667 0.026667s-66.644-41.573-82.104-108.73c-1.468-6.3467-2.2533-13.333-2.3053-20.787-0.4-50.88 34.204-122.72 132.81-153.97 3.324-1.52 5.656-2.2933 6.468-1.96h0.025333c36.356-10.56 81.008-15.747 135.31-12.693 3.028 0.17333 6.0813 0.36 9.16 0.58667 0 0 1.1587-4.4133 7.3173-10.707 5.7333-5.8667 15.82-13.387 33.38-20.507 0 0-351.74-24.093-339.23 208.04 0 0.093333 0.013333 0.18667 0.013333 0.26667-15.795-55.72-3.5813-110.6 39.151-150.55 55.937-52.28 138.31-73.267 211.55-86.707 107.52-19.733 214.96-21.787 323.15-5.6267 47.589 7.12 95.617 12.413 143.63 15.64 81.523 15.107 56.336 63.947 39.756 82.2-16.58 18.253-38.571 13.04-38.571 13.04 9.34-3.56 33.353-22.213 36.987-27.667 3.6453-5.4533 7.4853-22.747-34.049 5.1867-25.947 17.493-70.032 35.573-104.22 46.133-17.135 5.3067-31.783 8.72-40.415 9.2-0.33467 0.026667-0.656 0.04-0.97867 0.04h-0.025333c-0.336-0.04-0.864-0.026667-1.5587 0.013333h-0.090667c-7.8067 0.46667-36.047 4.7467-40.324 5.3867l-0.45067 0.08-0.089333 0.013333c49.765 20.813 224.15-30.467 224.15-30.467"/>
  </g>
  <path d="m214.63 498.45c-3.3493-2.3733-6.724-6.5867-10.009-13.253 3.3107 4.68 6.648 9.08 10.009 13.253" fill="#17212b"/>
  <path transform="matrix(.13333 0 0 -.13333 0 2507)" d="m2041.5 17193-19.72-23.2-27.63-32.8s-135.27 99.9-235.18 107.4c0 0 54.98 81.9 51.02 99.8-3.96 17.4-17.97 56.4-18.74 58.8 5.7-2.9 187.25-97.4 250.25-210" clip-path="url(#clipPath140)" fill="url(#linearGradient140)"/>
  <path transform="matrix(.13333 0 0 -.13333 0 2507)" d="m2293.9 17386s-22.32-0.3-50.72-13.6c-14.01-6.7-29.57-16.6-44.55-31.1 0 0-239.43 143-350.54 171l82.71 125s-4.16 67.6-8.41 78.8c-4.15 11.4 63.68 7.9 63.68 7.9s255.66-170.4 307.83-338" clip-path="url(#clipPath146)" fill="url(#linearGradient146)"/>
  <path transform="matrix(.13333 0 0 -.13333 0 2507)" d="m2595.4 17576c-13.72-2.3-27.63-6-40.49-10-35.07-11-63.19-25.4-63.19-25.4-81.25 76.7-405.23 255.4-405.23 255.4 96.62 115.7 83.39 186.7 82.42 191.3l-0.1 0.2 63.19 0.2c279.92-157.1 363.4-411.7 363.4-411.7" clip-path="url(#clipPath152)" fill="url(#linearGradient152)"/>
  <path transform="matrix(.13333 0 0 -.13333 0 2507)" d="m2937.2 17716s-36.43-7.1-76.04-19.4c-15.17-4.7-30.73-10.1-44.93-16.2 0 0-231.6 240.2-437.21 362.3 1.25 0 74.69 0.5 121.93 115.7 5.51 13.6 10.73 28.9 15.46 46 0 0 60.88 2.1 90.34-10.5 29.47-12.7 289.39-258.7 330.45-477.9" clip-path="url(#clipPath158)" fill="url(#linearGradient158)"/>
  <path transform="matrix(.13333 0 0 -.13333 0 2507)" d="m3312.3 17814-71.31-10.9-33.72-5.2s-375.86 391.9-454.51 417.9c4.44-0.6 58.26-6 133.53 92.1 10.15 13.1 20.58 28.1 31.4 45.3 0 0 263.78-110.3 394.61-539.2" clip-path="url(#clipPath164)" fill="url(#linearGradient164)"/>
  <path transform="matrix(.13333 0 0 -.13333 0 2507)" d="m3712.9 17850s-44.83 0-85.41-1.1c-28.89-0.7-55.66-2.1-62.61-4.4 0 0-280.59 396-393.74 448.9 0 0 103-4.7 166.48 59.2 8.7 8.6 16.62 18.6 23.48 30.1 0 0 79.52-37.8 107.25-40.2 0 0 229-290.1 244.55-492.5" clip-path="url(#clipPath170)" fill="url(#linearGradient170)"/>
  <path transform="matrix(.13333 0 0 -.13333 0 2507)" d="m4097.5 17819s-58.55 42-117.78 79.2c-45.89 28.9-92.27 54.8-111.98 55.7 0 0-91.99 179.6-175.18 287.5-0.19 0.3-0.39 0.7-0.68 1-19.51 25.4-38.64 46.6-55.84 60.6 0 0 83.67-0.9 139.23 32.4 16.42 9.9 30.44 22.8 39.03 39.6 0 0 82.71-53.9 100.3-91.3 17.58-37.4 204.55-363.3 182.9-464.7" clip-path="url(#clipPath176)" fill="url(#linearGradient176)"/>
  <path d="m576.15 131.71-2.6547 1.24-4.4707-2.6133s-21.347-45.04-30.197-55.307c0 0 27.196 21.96 37.323 56.68" fill="#fbfdfd"/>
  <path d="m204.62 485.2c-3.7747-5.3333-7.228-10.853-10.345-16.493 4.148 5.5867 7.6907 11.12 10.345 16.493" fill="#17212b"/>
  <g fill="#49ab39">
   <path d="m798.65 239.04c-1-3.9733 1.4107-7.9867 5.3653-9 3.9787-1 7.992 1.4133 9.0053 5.36 1 3.9867-1.404 8.0133-5.3653 9.0133-3.9787 1-8.0107-1.4-9.0053-5.3733"/>
   <path d="m825.9 243.91c-0.356 6.3467-4.0307 13.787-7.6573 18.773-9.8573 13.667-30.504 14.893-42.636 3.6-8.148-7.5867-11.328-20.067-7.8133-30.613 1.204-3.6133 3.2373-7.1067 6.4747-9.1067 0.24933-0.16 0.52933-0.29333 0.80933-0.42667 3.1413-1.56 7.2347-1.44 9.7653 0.98667-0.364 12.28-0.74 32.96 17.561 29.92 21.247-3.4133 23.319-11.853 23.496-13.133"/>
   <path d="m643.62 228.17c10.177-0.85333 16.837-0.8 17.211-0.8-1.2107-0.053333-7.9093-0.29333-17.211 0.8"/>
   <path d="m798.65 239.04c-1-3.9733 1.4107-7.9867 5.3653-9 3.9787-1 7.992 1.4133 9.0053 5.36 1 3.9867-1.404 8.0133-5.3653 9.0133-3.9787 1-8.0107-1.4-9.0053-5.3733"/>
   <path d="m825.9 243.91c-0.356 6.3467-4.0307 13.787-7.6573 18.773-9.8573 13.667-30.504 14.893-42.636 3.6-8.148-7.5867-11.328-20.067-7.8133-30.613 1.204-3.6133 3.2373-7.1067 6.4747-9.1067 0.24933-0.16 0.52933-0.29333 0.80933-0.42667 3.1413-1.56 7.2347-1.44 9.7653 0.98667-0.364 12.28-0.74 32.96 17.561 29.92 21.247-3.4133 23.319-11.853 23.496-13.133"/>
  </g>
  <path d="m825.9 243.91c-0.356 6.3467-4.0307 13.787-7.6573 18.773-9.8573 13.667-30.504 14.893-42.636 3.6-8.148-7.5867-11.328-20.067-7.8133-30.613 1.204-3.6133 3.2373-7.1067 6.4747-9.1067 0.24933-0.16 0.52933-0.29333 0.80933-0.42667 3.1413-1.56 7.2347-1.44 9.7653 0.98667-0.364 12.28-0.74 32.96 17.561 29.92 21.247-3.4133 23.319-11.853 23.496-13.133" fill="#fbfdfd"/>
  <path d="m813.02 235.4c1 3.9867-1.404 8.0133-5.3653 9.0133-3.9787 1-8.0107-1.4-9.0053-5.3733-1-3.9733 1.4107-7.9867 5.3653-9 3.9787-1 7.992 1.4133 9.0053 5.36" fill="#fbfdfd"/>
  <path d="m660.83 227.37c-0.37333 0-7.0333-0.053333-17.211 0.8 9.3013-1.0933 16-0.85333 17.211-0.8" fill="#49ab39"/>
  <path d="m541.36 217.69-33.38 20.507c5.7333-5.8667 15.82-13.387 33.38-20.507" fill="#49ab39"/>
  <path transform="matrix(.13333 0 0 -.13333 0 2507)" d="m4516.3 16316c-108.02 270.4 151.31 425.4 158.07 429.4-386.1-552.1 558.09-839.4 558.09-839.4-275.27 16.5-606.49 136.1-716.16 410zm998.78 876c307.07 239.7 546.01-142.6 818.29-141.1 272.28 1.6 380.5 230.4 380.5 230.4-0.1-375.4-372.86-355-372.86-355s-113.34-228.8-421.66-322.5c-308.42-93.7-295.86 357.4-295.86 357.4-186 16.4-190.92 297-190.92 297 49.47-75.9 82.51-66.2 82.51-66.2zm-2356.4-1619.9c1.06 13.6 37.49 447.5 496.34 740.5-10.82-11.7-359.72-388.5-496.34-740.5zm-210.35 138.3c11.6 26.2 207.64 451.7 689.69 656.6-8.31-5.7-540.5-370.9-689.69-656.6zm539.35 651s-433.35-250.4-568.72-366.9c81.07 84.8 285.03 274.1 568.72 366.9zm2029.4-51.4 0.67 0.1 3.38 0.6c32.08 4.8 243.88 36.9 302.43 40.4h0.68c5.21 0.3 9.17 0.4 11.69 0.1h0.19c2.42 0 4.83 0.1 7.34 0.3 64.74 3.6 174.6 29.2 303.11 69 256.43 79.2 587.07 214.8 781.67 346 311.51 209.5 282.71 79.8 255.37 38.9-27.25-40.9-207.35-180.8-277.4-207.5 0 0 164.93-39.1 289.28 97.8s313.25 503.2-298.17 616.5c-360.11 24.2-720.32 63.9-1077.2 117.3-811.43 121.2-1617.3 105.8-2423.7-42.2-549.3-100.8-1167.1-258.2-1586.6-650.3-320.49-299.6-412.09-711.2-293.63-1129.1 0 0.6-0.1 1.3-0.1 2-93.82 1741 2544.2 1560.3 2544.2 1560.3-131.7-53.4-207.35-109.8-250.35-153.8-46.19-47.2-54.88-80.3-54.88-80.3-23.09 1.7-45.99 3.1-68.7 4.4-407.26 22.9-742.15-16-1014.8-95.2h-0.19c-16.43-4.7-32.56-9.7-48.51-14.7-739.54-234.4-999.07-773.2-996.07-1154.8 0.39-55.9 6.28-108.3 17.29-155.9 115.95-503.7 615.78-815.5 615.78-815.5l-0.2 0.2c-527.55 711.5 250.74 1009.9 250.74 1009.9-41.26 102.7-42.71 297.3-42.71 297.3 14.4 70.2 46.47 172.7 79.42 269.3 47.44 139.4 96.53 266.4 96.53 266.4 75.65-43.8 241.65-64.8 418.85-74 11.31-0.6 22.61-1.2 33.92-1.6 22.32-1 44.73-1.8 67.05-2.5h1.94c22.03-0.6 43.96-1.1 65.7-1.4 53.62-0.9 105.9-1 154.79-0.6 4.44 0.1 8.89 0.1 13.23 0.1 1.45 0.1 2.9 0.1 4.26 0.1 4.83 0 9.56 0.1 14.2 0.1 0.87 0.1 1.64 0.1 2.51 0.1 5.99 0.1 11.88 0.1 17.68 0.2 8.41 0.1 16.62 0.3 24.74 0.5 6.28 0.1 12.37 0.2 18.35 0.3 58.36 1.1 107.45 2.8 141.75 4.1 3.96 0.2 7.83 0.3 11.4 0.5 1.74 0.1 3.38 0.1 5.03 0.2 3.38 0.1 6.47 0.3 9.37 0.4 2.22 0.1 4.25 0.2 6.18 0.3h0.48c3.29 0.2 6.19 0.3 8.7 0.4 0.87 0.1 1.74 0.1 2.51 0.1 5.99 0.3 9.09 0.4 9.09 0.4-2.03-0.7-4.16-1.5-6.28-2.3-157.5-57.8-439.15-121.4-937.24-146.5-6.37-0.2-11.79-4.8-13.04-11-8.41-39.3-37.39-178.5-44.06-238.5-1.16-11.3 10.63-19.4 20.58-14 72.47 39.4 311.99 167.7 448.71 216.1 0 0-448.71-242.9-495.47-285.6-2.42-2.2-3.77-5.2-4.16-8.5-3.28-27.6-21.55-184.8-24.83-227.8-0.29-4.9 1.74-9.4 5.7-12.3 29.56-21.8 160.87-115 268.99-139.8 0 0 22.23-134.2 121.85-169.7 99.51-35.5 261.16-36.2 255.75-28.8-5.41 7.6 280.01 771.2 461.28 910.8 51.11 39.3 83.57 77.8 103.77 112.6 121.93-289.7-117.78-674.1-117.78-674.1 191.89-99.9 337.21-17.3 337.21-17.3-39.43 36.7-91.7 231-93.24 237 298.56-309 967.95-399.6 967.95-399.6-471.22 181.3-1117.3 623.8-941.38 1076.8 1.16 2.9 2.32 5.8 3.57 8.7 135.85 330.8 603.21 410.9 833.17 430.1-168.12-20.2-448.9-99.1-542.72-397.5-51.21-162.6-28.8-340.1 57-487.6 26.57-45.7 60.97-94.4 105.52-143 162.7-177.6 460.69-353.6 1004.8-372.7 0 0 0.19-0.1 0.29 0 277.59 17.5 595.86 88.1 950.08 223.2 0 0 921.67 433 796.84 624.6 0 0-1307.9-384.6-1681.1-228.5" clip-path="url(#clipPath193)" fill="url(#linearGradient193)"/>
  <path d="m356.17 261.01c-2.1907 0.62667-4.3413 1.2933-6.468 1.96 3.324-1.52 5.656-2.2933 6.468-1.96" fill="#49ab39"/>
  <g fill="#fbfdfd">
   <path d="m272.2 214.6-2.6293 3.0933c-12.225-12.493-28.239-23.253-28.239-23.253-0.528-2.32-2.396-7.52-2.4987-7.84 0.76 0.38667 24.967 12.987 33.367 28"/>
   <path d="m305.85 188.87s-2.976 0.04-6.7627 1.8133c-13.515-22.733-41.651-35.32-41.651-35.32s-0.55467-9.0133-1.1213-10.507c-0.55333-1.52 8.4907-1.0533 8.4907-1.0533s34.088 22.72 41.044 45.067"/>
   <path d="m346.06 163.51c-1.8293 0.30667-3.684 0.8-5.3987 1.3333-10.512-21.333-50.848-55.653-51.467-56.173l-0.013333-0.026667 8.4253-0.026667c37.323 20.947 48.453 54.893 48.453 54.893"/>
   <path d="m391.62 144.93s-4.8573 0.94667-10.139 2.5867c-5.6813-27.627-37.863-53.88-48.028-61.573 0.73467-1.8133 1.4307-3.8533 2.0613-6.1333 0 0 8.1173-0.28 12.045 1.4 3.9293 1.6933 38.585 34.493 44.06 63.72"/>
   <path d="m441.64 131.87-9.508 1.4533c-9.0947-25.533-35.403-54.88-47.293-67.307 1.3533-1.7467 2.744-3.7467 4.1867-6.04 0 0 35.171 14.707 52.615 71.893"/>
   <path d="m495.05 127.08s-5.9773 0-11.388 0.14667c-5.54-25.213-29.683-56.28-38.649-67.16 1.16-1.1467 2.216-2.48 3.1307-4.0133 0 0 10.603 5.04 14.3 5.36 0 0 30.533 38.68 32.607 65.667"/>
   <path d="m546.33 131.16s-7.8067-5.6-15.704-10.56c-5.9267-21.8-19.349-45.48-27.26-58.293 2.1893-1.32 4.0587-3.04 5.204-5.28 0 0 11.028 7.1867 13.373 12.173 2.344 4.9867 27.273 48.44 24.387 61.96"/>
   <path d="m657.46 430.27c-62.829-24.173-148.98-83.173-125.52-143.57 0.15467-0.38667 0.30933-0.77333 0.476-1.16l-7.7427-11.2s-209.39-17.733-248.55 94.227c-38.688 110.61 23.652 176.33 25.147 177.88-70.34-94.867 33.432-134.65 33.432-134.65-5.5013-13.693-5.6947-39.64-5.6947-39.64 1.92-9.36 6.196-23.027 10.589-35.907 6.3253-18.587 12.871-35.52 12.871-35.52 10.087 5.84 32.22 8.64 55.847 9.8667 1.508 0.08 3.0147 0.16 4.5227 0.21333 2.976 0.13333 5.964 0.24 8.94 0.33333h0.25867c2.9373 0.066667 5.8613 0.13333 8.76 0.18667 7.1493 0.12 14.12 0.13333 20.639 0.08 0.592-0.013333 1.1853-0.013333 1.764-0.013333 0.19333-0.013333 0.38667-0.013333 0.568-0.013333 0.644 0 1.2747-0.013333 1.8933-0.013333 0.116-0.013333 0.21867-0.013333 0.33467-0.013333 0.79867-0.013333 1.584-0.013333 2.3573-0.026667 1.1213-0.013333 2.216-0.04 3.2987-0.066667 0.83733-0.013333 1.6493-0.026667 2.4467-0.04 7.7813-0.14667 14.327-0.37333 18.9-0.54667 0.528-0.026667 1.044-0.04 1.52-0.066667 0.232-0.013333 0.45067-0.013333 0.67067-0.026667 0.45067-0.013333 0.86267-0.04 1.2493-0.053333 0.296-0.013333 0.56667-0.026667 0.824-0.04h0.064c0.43867-0.026667 0.82533-0.04 1.16-0.053333 0.116-0.013333 0.232-0.013333 0.33467-0.013333 0.79867-0.04 1.212-0.053333 1.212-0.053333-0.27067 0.093333-0.55467 0.2-0.83733 0.30667 5.4613 0.50667 21.115 2.3333 22.377 5.7333 16.257 38.627-15.704 89.88-15.704 89.88 25.585 13.32 44.961 2.3067 44.961 2.3067-5.2573-4.8933-12.227-30.8-12.432-31.6 39.808 41.2 129.06 53.28 129.06 53.28zm-55.293-98.68c-14.403-36.053 20.175-56.72 21.076-57.253-51.48 73.613 74.412 111.92 74.412 111.92-36.703-2.2-80.865-18.147-95.488-54.667zm357.58-29.667s-174.38 51.28-224.15 30.467c0 0-75.276 16.787-103.08-71.467 0 0-71.809 5.56-39.704 104.35 21.693 23.68 61.425 47.147 133.97 49.693 0 0 0.025333 0.013333 0.038667 0 37.012-2.3333 79.448-11.747 126.68-29.76 0 0 122.89-57.733 106.25-83.28"/>
  </g>
  <path d="m951.13 430.71c9.848 85.16 19.611 171.95 29.261 260.53-24.421 11.667-48.868 22.893-73.359 33.893-247.64-49.28-502.6-49.16-750.21 0.37333-23.867-11.12-47.691-22.48-71.494-34.267 12.866-89.253 25.889-176.07 39.017-260.75 275.27-6.0933 551.54-6.0267 826.78 0.21333" fill="#371433"/>
  <g fill="#fbfdfd">
   <path d="m229.63 625.84c8e-3 -0.066667 0.018667-0.14667 0.028-0.22667 0.21467-1.7733 0.42933-3.56 0.644-5.3333-7.5747-10.28-15.147-20.653-22.719-31.133-10.492 12.36-20.971 24.96-31.435 37.827-0.24533 1.84-0.488 3.68-0.732 5.52-11.608 1.6-23.204 3.28-34.788 5.0267 5.7253-41.227 11.472-82.013 17.236-122.39 2.06-14.44 0.44533-27.627-4.8147-39.8-0.39733-0.93333-0.79333-1.88-1.1893-2.8133 4.0653-0.18667 8.132-0.37333 12.199-0.56 11.049-0.49333 22.103-0.97333 33.159-1.4267-5.7253 41.307-11.44 83-17.139 125.12 10.465-12.64 20.945-25.027 31.433-37.187 7.488 10.6 14.975 21.093 22.464 31.48 4.9467-40.76 9.8987-81.2 14.855-121.37 11.064-0.38667 22.131-0.74667 33.2-1.08-4.288 37.667-8.576 75.533-12.864 113.63-1.5493 13.76 0.64933 26.173 6.636 37.08 0.468 0.85333 0.936 1.7067 1.4027 2.5467-15.873 1.56-31.733 3.2533-47.576 5.0933"/>
   <path d="m352.44 541.81c0.57733-6.5067 1.156-13.027 1.7347-19.533 0.25067-2.8267-0.71867-5.1867-2.9053-7.08-2.1827-1.8933-5.028-2.7733-8.5373-2.64-6.3547 0.24-12.707 0.50667-19.06 0.77333-1.512 14.653-3.0267 29.333-4.54 44.027 11.1-5.28 22.203-10.467 33.308-15.547zm20.809 71.267c-9.0987 0.56-18.196 1.16-27.289 1.8133 1.6627-18.787 3.3253-37.52 4.9853-56.24-11.107 5.1467-22.212 10.4-33.315 15.76-1.412 14.307-2.8267 28.64-4.24 43-9.084 0.76-18.164 1.5733-27.239 2.4267 3.1267-29.427 6.2533-58.747 9.38-87.947 1.116-10.427-0.64-20-5.232-28.8-0.348-0.68-0.69467-1.36-1.0427-2.04 24.329-1.0667 48.672-1.9733 73.027-2.72 6.224 6.0533 12.452 12.093 18.683 18.107-1.7573 21.987-3.516 44.013-5.2773 66.067-0.82533 10.36 1.2453 19.72 6.248 28.053 0.39067 0.64 0.78 1.2933 1.1707 1.9467-3.2853 0.18667-6.572 0.37333-9.8587 0.57333"/>
   <path d="m393.16 611.95c2.064-28.227 4.1253-56.4 6.184-84.547 0.73333-10.04-1.384-19.333-6.3133-27.907-0.37333-0.66667-0.74533-1.32-1.1187-1.9867 11.939-0.30667 23.879-0.56 35.821-0.78667-4e-3 0.053333-8e-3 0.10667-0.010667 0.16-2.092 32.88-4.188 65.8-6.288 98.747 10.82-0.42667 21.643-0.78667 32.468-1.0933 0.36-6.9067 0.72-13.8 1.0787-20.707 8.992-0.21333 17.987-0.4 26.981-0.54667-0.081333 1.92-0.16267 3.8533-0.244 5.7733-0.42 10.013 2.0253 19.2 7.372 27.573 0.41733 0.65333 0.83467 1.2933 1.2533 1.9467-32.412 0.53333-64.815 1.6533-97.184 3.3733"/>
   <path d="m500.41 608.44c0.96133-27.68 1.9213-55.347 2.8787-83 0.34267-9.88-2.1453-19.093-7.4173-27.613-0.4-0.65333-0.8-1.32-1.1987-1.9733 11.945-0.08 23.893-0.12 35.84-0.13333-0.0013333 0.053333-0.0026667 0.12-4e-3 0.17333-0.79333 32.507-1.588 65.027-2.3853 97.547 10.829-0.026667 21.66 0.026667 32.489 0.13333 0.084-6.8667 0.16667-13.72 0.25067-20.573 8.996 0.08 17.992 0.18667 26.985 0.34667-4e-3 1.9333-8e-3 3.8533-0.010667 5.7733-0.021333 10.013 2.796 19.293 8.4827 27.893 0.444 0.68 0.888 1.3467 1.332 2.0267-32.407-0.8-64.828-1-97.243-0.6"/>
   <path d="m591.45 498.01c-0.424-0.66667-0.848-1.3333-1.2733-2 31.108 0.32 62.209 0.90667 93.295 1.7467 0.448 13.107 0.896 26.213 1.344 39.32h-0.18533c-6.048-4.7333-12.759-7.72-20.145-8.96-1.8453-0.28-3.3987-1.08-4.6573-2.4-1.2587-1.3333-1.9067-2.88-1.9493-4.68-0.073333-2.9733-0.14533-5.9333-0.21867-8.9067-10.484-0.26667-20.972-0.50667-31.459-0.70667 0.164 12.987 0.32933 25.973 0.49467 38.973 10.536-4.2133 21.068-8.3867 31.593-12.56 0.13733 5.5733 0.27333 11.16 0.41067 16.733-10.592 4.1467-21.189 8.3067-31.793 12.493 0.072 5.6 0.14267 11.2 0.21333 16.8 0.04 3.1067 1.3227 5.7733 3.848 8.0267 2.532 2.24 5.5507 3.44 9.0573 3.5733 6.5667 0.25333 13.133 0.52 19.699 0.81333-0.17067-6.96-0.34133-13.92-0.512-20.88 8.9867 0.36 17.972 0.76 26.955 1.2 0.065333 1.9067 0.12933 3.8133 0.19467 5.72 0.35067 10.213 3.5053 19.827 9.4973 28.947 0.468 0.70667 0.93467 1.4133 1.4027 2.12-25.401-1.6-50.825-2.8267-76.263-3.68-6.9787-6.36-13.956-12.667-20.932-18.947-0.056-21.573-0.112-43.16-0.16933-64.733-0.026667-9.8-2.8533-19.147-8.4467-28.013"/>
   <path d="m785.93 501.48c1.1413 16.52 2.2827 33.067 3.4227 49.64-9.472 3.5867-18.948 7.1733-28.427 10.747 1.124 18.827 2.2493 37.693 3.3733 56.573-9.08-0.8-18.165-1.56-27.252-2.2667-0.95067-18.667-1.9013-37.32-2.8507-55.947-9.9507-4.72-19.901-9.36-29.855-13.92-0.23733-5.8-0.47467-11.6-0.71333-17.413-0.208-5.0667-1.112-10.053-2.7107-14.947-1.5973-4.8933-3.812-9.5067-6.644-13.867-0.44933-0.68-0.9-1.3733-1.3493-2.0533 11.876 0.34667 23.749 0.72 35.62 1.1333 0.71467 14.267 1.4293 28.533 2.1453 42.813 5.448 2.5467 10.893 5.12 16.339 7.7067 5.1293-1.9867 10.257-3.9867 15.385-5.9733-0.872-14.413-1.7453-28.8-2.6173-43.187 8.7133 0.30667 17.424 0.62667 26.133 0.96"/>
   <path d="m793.59 470.49c-0.60267-0.92-1.2053-1.84-1.8093-2.76 39.429 1.2533 78.831 2.7867 118.19 4.6 1.9533 18.707 3.904 37.48 5.852 56.307-0.077333 0-0.156-0.013333-0.23333-0.013333-8.1427-7.0933-16.949-11.627-26.429-13.707-2.364-0.48-4.4147-1.68-6.144-3.6133-1.732-1.92-2.712-4.1467-2.9573-6.68-0.40267-4.2-0.804-8.3867-1.2067-12.573-13.291-0.73333-26.588-1.4133-39.891-2.04 1.5387 18.027 3.076 36.107 4.612 54.227 12.924-5.2133 25.843-10.493 38.757-15.853 0.75467 7.9067 1.5093 15.813 2.2627 23.733-13.011 5.2-26.027 10.32-39.049 15.387 0.66133 7.8267 1.324 15.667 1.9853 23.507 0.364 4.3467 2.2693 8.2 5.7107 11.587 3.448 3.3867 7.4107 5.36 11.879 5.88 8.372 0.97333 16.739 1.9733 25.1 3.0267-0.93733-9.9467-1.8747-19.867-2.8133-29.773 11.433 1.2267 22.86 2.52 34.277 3.8533 0.28133 2.76 0.564 5.52 0.84533 8.28 1.5107 14.773 6.5187 28.973 15.049 42.907 0.664 1.08 1.3293 2.1467 1.9933 3.2267-32.311-5.08-64.72-9.56-97.204-13.413-9.5187-9.6267-19.044-19.08-28.577-28.373-2.2307-29.787-4.4627-59.493-6.6947-89.107-1.0133-13.453-5.5307-26.387-13.503-38.613"/>
  </g>
  <path d="m783.87 471.65c-164.52-5.3467-329.56-5.4267-494.1-0.25333 2.8067-25.2 5.612-50.32 8.4173-75.36h480.44c1.7467 25.147 3.4947 50.36 5.2413 75.613" fill="#371433"/>
  <path transform="matrix(.13333 0 0 -.13333 0 2507)" d="m5637.7 15689c2.27-37.8 4.54-75.7 6.8-113.6-21.17-9.4-42.34-18.9-63.52-28.3 2.48-43.4 4.95-86.9 7.41-130.4-19.95 0.4-39.9 0.8-59.86 1.2-2.34 43.3-4.68 86.7-7.03 130-22.24 10-44.5 19.9-66.74 29.8-0.7 13.7-1.39 27.3-2.09 40.9-0.61 11.9-2.77 23.5-6.5 34.9-3.72 11.4-8.84 22.1-15.38 32.2-1.03 1.6-2.07 3.1-3.11 4.7 26.81-0.1 53.61-0.3 80.41-0.5 1.79-33.2 3.57-66.5 5.36-99.7 12.18-5.5 24.36-10.9 36.54-16.4 11.46 5.2 22.91 10.4 34.36 15.5-1.89 33.3-3.79 66.5-5.69 99.7h59.04zm-355.86-98c-0.65 15.1-1.29 30.2-1.94 45.3-0.27 6.5-3.16 12.1-8.68 16.7-5.51 4.7-12.22 7-20.11 7.1-14.29 0.1-28.59 0.1-42.89 0.2 1.18-33.4 2.36-66.9 3.53-100.4 23.36 10.4 46.73 20.7 70.09 31.1zm67.08-169.8c-19.96 0.3-39.92 0.7-59.88 1-1.84 43.3-3.69 86.6-5.54 129.9-23.27-10.4-46.54-20.7-69.81-31 1.27-32.6 2.55-65.2 3.83-97.8-19.96 0.4-39.92 0.7-59.89 1-2.38 65.8-4.77 131.5-7.16 197.3-0.85 23.5-7.96 45.4-21.26 65.8-1.01 1.6-2.02 3.2-3.03 4.7 54.97-0.2 109.94-0.5 164.91-0.8 15.84-14.7 31.68-29.4 47.53-44.1 2.35-51.5 4.7-103 7.05-154.6 1.1-24.2 8.32-46.5 21.75-67 1.04-1.6 2.08-3.2 3.12-4.8-7.2 0.1-14.41 0.3-21.62 0.4zm-381.56 136.7c-23.44-10.3-46.88-20.6-70.33-30.8 0.51-21.5 1.01-43 1.51-64.5 23.8-0.2 47.61-0.5 71.41-0.8-0.86 32.1-1.73 64.1-2.59 96.1zm-2.7 100c-23.56 0.1-47.13 0.2-70.69 0.3 0.59-30.9 1.17-61.8 1.75-92.7 23.54 10.3 47.07 20.6 70.6 30.9-0.55 20.5-1.1 41-1.66 61.5zm87.76-232.1c-70.99 0.9-141.98 1.8-212.97 2.6l-3.96 195.3c-0.47 23.2-7.22 44.9-20.2 65.1-0.99 1.6-1.97 3.1-2.96 4.7 60.86-0.2 121.71-0.5 182.57-0.7 7.93-0.1 14.64-2.6 20.12-7.7 5.49-5.1 8.35-11.4 8.57-19 0.83-27.6 1.66-55.3 2.49-83-11.95-5.2-23.9-10.4-35.86-15.6 12.27-5.5 24.54-10.9 36.82-16.3 0.55-18.3 1.09-36.7 1.64-55 0.71-23.6 7.59-45.5 20.68-65.7 1.03-1.6 2.04-3.2 3.06-4.7zm-574.41 234c-23.56 0.1-47.13 0.2-70.7 0.2-0.2-30.6-0.41-61.2-0.61-91.8 23.8 10.3 47.61 20.6 71.41 30.9-0.03 20.2-0.06 40.5-0.1 60.7zm81.91-228.9c-27.18 0.2-54.37 0.4-81.54 0.5-0.07 43.2-0.14 86.4-0.21 129.6-23.71-10.3-47.42-20.6-71.14-30.8l-0.21-98.4-59.91 0.3c0.34 64.5 0.68 129 1.03 193.5 0.13 23-6.07 44.5-18.54 64.5-0.95 1.5-1.9 3.1-2.84 4.6 60.86-0.1 121.72-0.2 182.58-0.3 7.95 0 14.57-2.6 19.93-7.6s8.06-11.2 8.09-18.7c0.13-27.3 0.26-54.6 0.39-82l-36.27-15.6 36.42-15.9c0.08-18.1 0.17-36.2 0.25-54.3 0.11-23.3 6.46-44.9 19.03-64.8 0.98-1.5 1.96-3.1 2.94-4.6zm-544.47 259.5c-0.93 1.5-1.85 3-2.77 4.6 70.16-0.1 140.32-0.1 210.48-0.2-0.36-29.9-0.71-59.8-1.07-89.7h-0.41c-13.06 10.3-27.81 16.7-44.26 19-4.11 0.5-7.51 2.3-10.22 5.2-2.69 3-4.02 6.5-3.95 10.6 0.1 6.9 0.2 13.7 0.31 20.5h-70.7l-1.71-90c23.84 10.3 47.68 20.7 71.51 31-0.19-12.8-0.39-25.7-0.58-38.5-23.89-10.3-47.77-20.7-71.66-31-0.25-12.9-0.49-25.9-0.74-38.8-0.13-7.2 2.5-13.3 7.9-18.3 5.41-5 11.98-7.5 19.69-7.5 14.45 0 28.91 0 43.36-0.1 0.24 16 0.48 32 0.72 47.9 19.89 0 39.77 0 59.65-0.1-0.05-4.3-0.1-8.7-0.15-13-0.29-23.3 5.67-44.9 17.94-64.9 0.95-1.5 1.91-3 2.86-4.6-55.76 0.2-111.51 0.3-167.26 0.4-14.94 14.2-29.89 28.3-44.82 42.5 1.1 50.1 2.21 100.1 3.32 150.2 0.5 22.7-5.33 44.3-17.44 64.8zm-161.42-30c-23.56 0-47.13 0-70.7-0.1 0-0.1-0.01-0.2-0.01-0.3-2.28-64.3-4.57-128.6-6.85-192.9 14.59 0 29.18 0.1 43.77 0.1 7.68 0 14.32 2.6 19.86 7.7 5.53 5.1 8.43 11.3 8.63 18.4 1.77 55.7 3.54 111.4 5.3 167.1zm53.91-185-47.4-42.6c-48.4-0.1-96.81-0.2-145.21-0.4 2.5 64.5 4.99 128.9 7.48 193.3 0.46 11.6-0.7 22.7-3.44 33.6-2.73 10.9-6.91 21.1-12.54 30.9-0.9 1.5-1.8 3-2.69 4.6 60.72 0 121.45 0.1 182.17 0.1 7.93 0 14.51-2.5 19.69-7.4 5.19-5 7.69-11.2 7.47-18.6-1.84-64.5-3.68-129-5.53-193.5zm-297.44-43.4c-27.18-0.2-54.37-0.3-81.55-0.5 1.9 39.2 3.8 78.5 5.69 117.7-22.21 28.6-44.42 57.2-66.63 85.9-3.53-68-7.07-136-10.61-204.1-19.97-0.1-39.94-0.2-59.91-0.4 3.57 64.8 7.13 129.5 10.7 194.2 1.28 23.2-3.84 44.7-15.31 64.7-0.87 1.6-1.74 3.1-2.61 4.6 26.93 0.1 53.88 0.2 80.82 0.2-0.15-2.9-0.3-5.9-0.45-8.8 22.14-28.7 44.28-57.3 66.44-86 1.52 31.7 3.06 63.3 4.58 95 19.7 0 39.39 0.1 59.09 0.1-2.92-64.5-5.84-129.1-8.76-193.6-1.05-23.3 4.2-44.8 15.8-64.5 0.9-1.5 1.81-3 2.71-4.5zm-318.26-2.3c-55.74-0.5-111.49-1-167.22-1.7l-42.69 42.6c3.61 50.8 7.22 101.6 10.83 152.3 1.66 23.6-3.08 45.4-14.21 65.5-0.85 1.6-1.7 3.1-2.54 4.7l80.82 0.3c-4.79-70.3-9.58-140.6-14.37-210.9-0.44-6.5 1.93-11.9 7.13-16.4 5.21-4.5 11.64-6.7 19.36-6.6 14.46 0.1 28.91 0.3 43.36 0.4 5.03 78 10.06 155.9 15.09 233.7 19.69 0.1 39.38 0.2 59.08 0.2-3.99-64.9-7.99-129.8-11.99-194.7-1.43-23.4 3.45-45 14.72-64.8 0.88-1.5 1.76-3 2.63-4.6zm-318.2-3.5c-27.17-0.4-54.35-0.7-81.52-1.1 3.46 43.1 6.92 86.3 10.37 129.4-24.55-10.7-49.11-21.4-73.68-32.1-2.74-32.8-5.48-65.5-8.22-98.4-19.96-0.3-39.93-0.6-59.89-0.9 5.71 66 11.41 132 17.11 198 2.03 23.5-2.36 45.5-13.18 65.8-0.82 1.6-1.64 3.1-2.46 4.7 26.94 0.1 53.88 0.3 80.82 0.4-0.01-0.1-0.02-0.2-0.03-0.4-3.63-43.4-7.27-86.9-10.91-130.4 24.53 10.8 49.05 21.6 73.58 32.4 2.63 32.8 5.26 65.6 7.89 98.4 19.69 0.1 39.38 0.2 59.08 0.3-5.06-65.4-10.11-130.8-15.16-196.2-1.82-23.6 2.7-45.4 13.64-65.3 0.86-1.5 1.71-3 2.56-4.6zm-309.96 264.4c-2.83-30.7-5.66-61.5-8.5-92.2-0.12 0.1-0.25 0.2-0.37 0.3-5.83 5.3-12.37 9.4-19.63 12.6-7.25 3.1-14.93 5.3-23.04 6.5-4.07 0.5-7.33 2.3-9.79 5.3-2.45 3-3.48 6.6-3.08 10.9 0.67 7 1.34 14.1 2.01 21.1-5.35 0-10.69-0.1-16.03-0.1-7.49-78.4-14.98-156.8-22.47-235.3-19.96-0.3-39.91-0.7-59.87-1.1 7.73 78.7 15.44 157.4 23.16 235.9-5.61 0-11.23-0.1-16.84-0.1-1.18-11.9-2.36-23.9-3.54-35.8l-59.28-0.6c2.44 23.9-1.62 46.2-12.07 66.8-0.8 1.6-1.59 3.2-2.38 4.8 77.23 0.4 154.48 0.7 231.72 1" clip-path="url(#clipPath214)" fill="url(#linearGradient214)"/>
 </g>
</svg>
