<svg version="1.1" id="Layer_1" xmlns="http://www.w3.org/2000/svg" x="0" y="0" viewBox="0 0 200 200" xml:space="preserve"><style>.van_st1{fill:#0d1d3f}.van_st2{fill:#fcfdfd}.van_st4{fill:#048243}.van_st5{fill:#112142}.van_st6{fill:#102041}.van_st7{fill:#018041}.van_st8{fill:#f1f6f3}.van_st9{fill:#f4f8f5}.van_st10{fill:#f8faf9}</style><path d="M179.3 69.3v52.8a44.6 44.6 0 01-4.7 17.8 69 69 0 01-7.3 11.4c-3.2 4.1-6.8 8-10.6 11.6a168 168 0 01-19.6 16 333 333 0 01-30.6 18c-2 1-4 1.9-5.8 3-.5.2-.8.2-1.3 0a674.3 674.3 0 01-33-18.8 144.3 144.3 0 01-28.3-23.4A77.5 77.5 0 0127.3 143a52.5 52.5 0 01-6.4-18.8c-.2-2.5-.1-5-.1-7.5V15.6c0-.7-.1-1 .9-1.2l9.7-1.8 7-1.3 7.4-1.3 7-1.3L60 7.3l10.6-2L79 3.8l8.5-1.6L96.9.6l2.9-.6c.9 0 1.9.3 2.9.5l8.5 1.5 6.9 1.3 7.4 1.4 8.3 1.6 8.4 1.4 8.4 1.6 9.3 1.7 8.5 1.6 10.3 1.8c.4.1.6.2.6.7v54.2zm-3 1.3l.1-52.7c0-.9-.3-1.2-1.2-1.2-.8 0-1.7-.3-2.5-.5l-9.8-1.8-8-1.4-11-2c-4.8-1-9.7-1.9-14.7-2.7l-12.1-2.4-6.6-1-8-1.6a8.4 8.4 0 00-4.7-.1c-1.3.4-2.7.5-4 .8l-5 .8c-2.1.5-4.3.7-6.5 1.3-2 .5-4.2.7-6.3 1.2l-7.7 1.4-7.4 1.3-8.3 1.6c-3.2.6-6.3 1-9.5 1.7l-8.5 1.6-5.6 1-4.4.8c-.7 0-1 .2-1 1V120a39.4 39.4 0 003.6 16.9l2.5 4.9c.7 1.2 1.4 2.6 2.2 3.7 1.3 1.7 2.4 3.5 3.8 5.1.8.9 1.4 1.9 2.2 2.7l3.3 3.6c1.5 1.5 2.9 3.1 4.5 4.5l4.1 3.6c2 1.7 4 3.5 6.2 5.2l5.7 4.3c3.9 2.8 8 5.3 12 7.9 2.3 1.6 4.9 2.8 7.4 4.2 3.9 2.3 7.8 4.5 11.8 6.6l5.5 3c.6.2 1.2 1 2.2.5l7.6-4c1.8-.9 3.7-1.8 5.4-2.8 2.5-1.4 5-2.7 7.3-4.2 3.4-2.1 6.9-4 10.1-6.2l3.8-2.5 3-2.2c1.6-1 3.1-2.3 4.7-3.5l4.5-3.7c2.3-1.8 4.6-3.7 6.8-5.8 2.9-3 6-5.7 8.5-9 1-1.2 2.1-2.3 3-3.6 1.8-2.5 3.6-5 5-7.6 1.8-3.1 3.4-6.4 4.4-9.8 1-3.3 1.7-6.7 1.7-10.2v-51z" fill="#fefefe"/><path class="van_st1" d="M176.4 70.6v51c0 3.5-.7 6.9-1.7 10.2-1 3.4-2.6 6.6-4.4 9.8-1.5 2.7-3.2 5.1-5 7.6-.9 1.3-2 2.4-3 3.7-2.6 3.2-5.6 6-8.6 8.9-2 2-4.4 4-6.7 5.8l-4.5 3.7c-1.6 1.2-3 2.5-4.7 3.5l-3 2.2-3.8 2.5c-3.2 2.2-6.7 4-10 6.2l-7.4 4.2-5.4 2.9c-2.5 1.3-5.1 2.5-7.6 3.9-1 .5-1.6-.3-2.2-.6l-5.6-2.9c-4-2-7.8-4.3-11.7-6.6-2.5-1.4-5-2.6-7.4-4.2-4-2.6-8.1-5.1-12-8a269 269 0 01-5.7-4.2l-6.2-5.2-4.1-3.6c-1.6-1.4-3-3-4.5-4.5l-3.3-3.6c-.8-.8-1.4-1.8-2.2-2.7-1.4-1.6-2.5-3.4-3.8-5.1-.9-1.1-1.6-2.5-2.2-3.7l-2.5-5a41.6 41.6 0 01-3.6-16.8V17.8c0-1 .3-1 1-1.1l4.4-.8 5.7-1 8.4-1.6 9.5-1.7L61 10l7.4-1.3L76 7.3c2.1-.5 4.3-.7 6.4-1.2 2.1-.6 4.3-.8 6.5-1.3 1.6-.3 3.3-.4 5-.8 1.3-.3 2.6-.4 4-.8 1.4-.5 3-.3 4.5 0 2.7.7 5.4 1.2 8.1 1.6l6.6 1.1c4 .8 8.1 1.7 12.2 2.4 5 .8 9.8 1.8 14.7 2.7l11 2 7.9 1.4 9.8 1.9c.8.1 1.7.4 2.6.4.9 0 1.1.3 1.1 1.2v52.7zm-9.7 2.9V26.9c0-2 0-1.9-1.9-2.2L151 22.2l-13-2.4-11.6-2.1-11.7-2.2-10.8-2c-1.7-.3-3.3-.9-5-.5-4.7 1-9.4 1.7-14 2.5l-11.5 2.2-13 2.3-11.6 2.2-14.5 2.6c-1 .2-1 .5-1 1.3v93.6c0 1.7 0 3.5.4 5.2.9 5.2 3 9.9 5.9 14.3 4.4 6.8 10 12.6 16.1 18 4.7 4 9.5 7.9 14.6 11.4 9.3 6.4 19 12 29.1 17.1.5.3.8.2 1.3 0 7.4-3.8 14.7-7.9 21.7-12.3a178 178 0 0021-15.3c4-3.6 7.9-7.3 11.4-11.4 3.7-4.4 7-9 9.3-14.4a30 30 0 002.7-12V73.4z"/><path class="van_st2" d="M166.7 73.5v46.8c0 4.2-1 8.2-2.6 12-2.3 5.3-5.6 10-9.3 14.4-3.5 4-7.4 7.9-11.5 11.4a178 178 0 01-20.9 15.3c-7 4.4-14.3 8.6-21.8 12.3-.4.2-.7.3-1.2 0-10.1-5-19.8-10.7-29.1-17.1-5-3.5-10-7.3-14.6-11.4a87.8 87.8 0 01-16.1-18c-2.9-4.4-5-9-6-14.3-.2-1.7-.4-3.5-.4-5.2v-64-29.6c0-.8.1-1.1 1-1.3l14.6-2.6L60.4 20l13-2.3 11.5-2.2 14-2.5c1.7-.4 3.3.3 5 .5l10.7 2 11.8 2.2 11.6 2 13 2.5 13.8 2.5c2 .3 2 .3 2 2.2v46.6zm-53.6 97.4l.9-.4c9.6-5.8 18.9-12.2 27.2-19.8 6-5.5 11.5-11.3 15.4-18.5 2.2-4 3.5-8 3.5-12.6V69v-1.2l-1.5.5-8.6 1.5-16.5 3-17.9 3.1-19.8 3.5-18 3.3-17.6 3L41 89.3c-.7.1-1 .3-1 1.2v30c0 1 0 2 .2 2.8.7 4.2 2.4 8 4.6 11.4a80.2 80.2 0 0015.8 17.7c7 6.2 14.7 11.5 22.6 16.5.3.1.4.2.8.1 1.3-.3 2.5-.9 3.7-1.5a67.1 67.1 0 0013.5-9.3l3-2.8v-.6c0-.2-.3-.1-.5 0-2.6 1.6-5.4 2.6-8.3 4l1-2 1.7-4 1.3-4.1c.7-1.8.7-3.6.5-5.4-.4-2.8-2.4-4.5-4.5-5.9a15 15 0 00-8-2.4c-1.7 0-3.3-.4-5-.5-1.1 0-2.2-.5-3.3-.7-1.2-.1-2.5-.2-3.7-.5l-4.2-1c-2.5-.8-5.2-1.1-7.7-2-2.5-1-5.2-1.5-7.6-2.6-2.5-1-4.7-2.2-6.7-4-2.9-2.7-4-5.9-4.1-9.6a27.4 27.4 0 013.2-11.7l1.7-3 1.8-2.7c.8-1.3 2-2.3 2.7-3.6.4-.6.8-1.5 1.7-1.8.5 2.7.1 5.4.9 8 .5 1.7 1.3 3.1 2.8 4.1 1.2.7 2.4 1.1 3.6 1.7 1.4.6 3 .7 4.5 1 .7.2 1.6 0 2.5.1 2.2.2 4.4 0 6.6.2 4.2.4 8.5-.3 12.7.4 2.7.4 5.4 0 8.2.2 2.2.3 4.5 0 6.8.8 1.6.5 3.3.8 4.7 1.6.3.1.7.2.8 0 .9-1 2.1-1.3 3.2-1.8l3-1.2 2.3-.4c1.7-.7 3.4-.7 5.1-.8l6.7.1c2.7.1 5.4.7 8 .7h.2c2.4.3 4.8.6 7-.5.6-.3 1.2-.4 1.4-1l1.6-2.9 2.1-4.5c0-.2.2-.3.5-.2l.3 1.6c.8 2.4 2.2 4.6 2.5 7.1.2 1.6.8 3 .7 4.6-.1 1.5.2 3-.3 4.6-.5 1.2-.4 2.6-1.1 3.8-.9 1.3-1.4 2.8-2.6 3.8-1 .8-1.9 1.8-3 2.4a18.1 18.1 0 01-7.2 2.5c-1.5.1-3 .1-4.4.7-1.6.6-3.4.5-5 1-.9.4-2 .3-2.8.6-1.8.6-3.6 1.5-5.5 2.2-.8.2-1 .7-1 1.5-.2 4.6.4 9.2-.3 13.8-.3 2-.7 4.1-1.2 6.1-.6 2.5-1.1 4.9-2 7.2-1 2.5-2 4.9-3.5 7.1l-1.9 3.5zM54.4 97.5a35.3 35.3 0 00-5 8.3c-.8 2-1.4 4-1.7 6-.6 3.9.4 7.1 3 9.9 1.6 1.8 3.7 2.9 6 3.7a121 121 0 0030.6 7c1.2 0 2.4 0 3.6.4 3.4 1 6.6 2.5 9.1 5.3a9.8 9.8 0 012.4 5.4c.3 2.8-.1 5.5-1.3 8-.3.6-.3 1.3-.5 2 6.9-3.2 11.6-8.5 14.3-15.4a25 25 0 00-.4-21 3 3 0 011.6 1.3c1.5 2 1.7 4.3 1.8 6.6.2 2.2 0 4.5 0 6.7.1.5-.3 1 0 1.6 1-.8 1.8-1.6 2.6-2.5a14 14 0 015.4-3.2c2.4-.9 4.9-1.2 7.4-1.7 2.6-.5 5.3-1 8-1.3 3.5-.4 6.2-2.2 8.4-4.7 1.7-1.8 2.5-4.2 2.7-6.6.4-3.5-.1-6.8-1.5-10.1l-1 1.4c-.8 2-2.4 3-4.2 3.6-2.6.8-5.4.4-8 .2-3-.3-5.7-.7-8.6-.8-1.8 0-3.6-.2-5.5 0-2.4.1-4.8.7-7 1.4-2.2.6-4.1 1.6-5.7 3.1-.4.3-.8.4-1.2.1l-1.5-1c-3-1.3-6.3-1.8-9.6-2l-6.9-.1c-5-.3-10.1-.3-15.2-.3-4.8 0-9.6 0-14.2-1.6-2-.7-3.7-1.6-5.2-3-1.8-1.7-2.6-3.9-2.7-6.7zm93.5-69.2v-.1l-10-1.8-17-3.2-17.5-3.1c-1.4-.3-2.9-.8-4.4-.5L91.6 21l-19.3 3.5-18.5 3.4-13.1 2.5c-.5 0-.7.1-.7.6v15.8c0 .3 0 .6.6.5l7.9-1.4 19.2-3.4 18-3.1 18.1-3.3 19-3.3 18-3.2 7.1-1.3zM86.3 170.6c4.3 2.6 8.6 5 13 7.3.4.2.9.3 1.4 0l5-2.7c.9-.5 1.8-.8 2.4-1.7l3-4c.7-1 1.3-2.3 2-3.5 1.3-1.7 1.9-3.7 2.8-5.5 1.2-2.5 1.7-5.3 2.4-8 .8-2.9 1.1-6 1.3-9v-9.6c0-.2.1-.5-.2-.5a61.7 61.7 0 01-33.1 37.2zM58.8 64.9h-.1V54.4c0-.9-.3-1.1-1.1-.9l-1.7.3c-1 0-1.2.6-1.2 1.5l.1 18c0 .8-.1 1.5-.7 2.1-.4.4-.8.7-1.4.5-.6-.2-1-.6-1-1.1l-.1-1-.2-17.6c0-1.6 0-1.6-1.5-1.3l-1.2.2c-.9 0-1.2.4-1.2 1.4l.1 18a3 3 0 01-.5 2c-.4.5-1 1-1.6.7-.7-.3-1-.8-1-1.5v-2l-.2-16.9c0-.7-.2-1-1-.8l-2 .4c-.7 0-1 .4-1 1.2l.2 20.8c0 1.9.9 2.6 2.7 2.2L56 78.4c2-.4 2.8-1.3 2.8-3.4V65zM141 52.2c1-.6 1.5-1.5 1.5-2.5 0-3 0-6-.2-9.1 0-1.2-.9-1.8-2-1.6l-8 1.4c-.7.1-1 .4-1 1.3v8.7l.1 13.6c0 .9.3 1.1 1 1 .6-.2 1.2-.4 1.8-.4 1 0 1.2-.5 1.2-1.5v-7c0-1 .8-2 1.8-2 1 .1 1.3.7 1.3 2v6.8c0 .8.3 1 1 .8l2-.3c.9 0 1-.5 1-1.2v-7.6c0-1-.3-1.9-1.5-2.4zm-58.2 10h.2v10.5c0 .7.2 1 1 .8l2.2-.4c.6 0 .8-.4.8-.9v-3.8c0-2.7-.5-2.2 2.1-2.8.9-.1 1 .1 1 .9v5c0 .8.3 1 1 .8l2-.4c.8 0 1-.4 1-1.3V56l-.1-6.4c-.1-1.6-.9-2.1-2.5-1.8l-5.9 1c-2 .4-2.8 1.2-2.8 3.3v10.2zm-6.5.5h-.1V51.2c0-.7-.2-1-1-.8l-2 .4c-.7.1-1 .4-1 1v5.4c0 1 .3 2.1 0 3.1-.2 1-1 1.8-1.9 1.7-.8-.1-1.2-.8-1.2-2v-5.8c-.1-.9.2-2-.3-2.4-.5-.5-1.5.2-2.4.2-1 0-1.4.5-1.3 1.5l.1 20.8c0 2.4 0 2.4 2.5 2 1.5-.2 1.5-.2 1.5-1.8v-7.4c0-1.2.9-2.2 1.7-2.2 1 0 1.5.8 1.5 2.1v5.5c0 1-.4 2.1.2 2.7.7.6 1.8-.2 2.7-.2.8 0 1-.4 1-1.2V62.7zm83.3-9.3l-.1-4.8c0-1.4-1-2-2.3-1.7l-2.7.4c-1.3.2-2-.4-2-1.7-.2-1.2-.2-2.5-.2-3.7 0-.7.2-1.3.7-1.8.5-.5 1-.8 1.6-.5.6.2 1 .6 1 1.3v1.6c0 .7.3.9 1 .7l2.2-.4c.4 0 .7-.2.7-.7v-4.4c-.2-1.3-1-1.9-2.3-1.7-2 .4-4 .8-5.9 1-2 .5-2.9 1.4-2.9 3.5V46l.1 3.2c.2 1.3 1 1.9 2.3 1.7 1-.2 2.1-.3 3.1-.6 1-.2 1.5.2 1.6 1a17 17 0 010 5.3c-.1 1-1 1.8-1.8 1.7-.8-.2-1.2-.9-1.2-2v-.8c0-.3 0-.7-.2-.8-1-.5-2 .2-3.1.2-.4 0-.6.3-.7.7v.2l.1 4c0 1.5.9 2 2.2 1.9l6-1c2-.4 2.8-1.4 2.8-3.3v-4zm-36.2.3V53c0-1.3 0-1.3-1.2-1-1.1.2-2.3.3-3.4.6-.7.1-.8-.1-.8-.8v-4.1c-.1-.6.1-.9.7-1l3.2-.5c3-.5 2.9-.5 2.7-3.5 0-.8-.2-1-1-.8-2.8.6-5.6 1-8.5 1.5-1 .2-1.2.5-1.2 1.4l.1 22.3c0 1 .4 1 1.2.9l8.2-1.4c1-.2 1.5-.6 1.3-1.7v-1.3c0-1.3 0-1.3-1.2-1l-4.7.8c-.6.1-.8 0-.8-.6v-5.5c0-.4.2-.7.7-.8l2.9-.5c2.1-.4 1.8 0 1.8-2.3zm-23.2 4.6h.2v11.3c0 .8.1 1 1 .9l8.6-1.6c.8 0 1.1-.5 1-1.2v-2c0-.7-.2-.9-.9-.8l-3.7.7c-1.6.3-2.1 0-2.1-1.7l-.2-15.5c0-1 .4-2.3-.2-2.7-.6-.4-1.8.1-2.8.3-.7 0-1 .4-1 1.1l.1 11.2z"/><path d="M113.1 170.9l2-3.5c1.3-2.2 2.3-4.6 3.3-7 1-2.4 1.5-4.8 2.1-7.3.5-2 .9-4 1.2-6.1.7-4.6.1-9.2.3-13.8 0-.8.2-1.2 1-1.5 1.9-.7 3.7-1.6 5.5-2.2.9-.3 2-.2 2.8-.5 1.6-.6 3.4-.5 5-1.1 1.4-.6 3-.6 4.4-.7 2.6-.2 4.9-1.3 7.1-2.5 1.2-.6 2.1-1.5 3.1-2.4 1.2-1 1.7-2.5 2.6-3.8.7-1.1.6-2.5 1-3.8.6-1.5.3-3 .4-4.6.1-1.6-.5-3-.7-4.6-.3-2.5-1.7-4.7-2.5-7.1-.1-.5-.3-1-.3-1.6-.3 0-.4 0-.5.2l-2.1 4.5-1.6 3c-.2.5-.8.6-1.4.9-2.2 1-4.6.8-7 .6h-.2c-2.6-.1-5.3-.7-8-.7-2.2-.1-4.4-.2-6.6-.1-1.8 0-3.5 0-5.1.7-.8.3-1.7.2-2.5.5-1 .3-2 .6-2.9 1.1-1.1.5-2.3.9-3.2 1.8-.1.2-.5.2-.7 0-1.5-.8-3.2-1.1-4.8-1.6-2.3-.8-4.5-.5-6.8-.8-2.7-.2-5.5.2-8.2-.2-4.2-.7-8.5 0-12.7-.4-2.2-.2-4.4 0-6.6-.2H68c-1.5-.3-3-.5-4.5-1.1-1.2-.6-2.4-1-3.6-1.7a6.8 6.8 0 01-2.8-4c-.8-2.6-.4-5.4-.9-8-.9.2-1.3 1.1-1.7 1.7-.8 1.3-2 2.4-2.7 3.7L50 99.3l-1.7 3.1c-1 2-2 4.1-2.5 6.5-.4 1.7-.8 3.4-.7 5.2.1 3.6 1.2 6.9 4 9.5 2 1.8 4.4 3 6.8 4 2.4 1.1 5 1.6 7.6 2.5 2.5 1 5.2 1.3 7.7 2 1.4.5 2.8.7 4.3 1.1 1.1.3 2.4.4 3.6.5 1.1.2 2.2.7 3.3.7 1.7 0 3.3.5 5 .5 3 0 5.6 1 8 2.4 2.1 1.3 4 3.1 4.5 5.9a11 11 0 01-.4 5.4l-1.4 4c-.5 1.5-1.1 2.8-1.8 4.1l-.9 2c2.9-1.4 5.7-2.4 8.3-4 .2-.1.4-.2.5 0 .2.2 0 .4 0 .6l-3 2.9a67.3 67.3 0 01-10 7.3 80.7 80.7 0 01-7.2 3.4c-.3.1-.5 0-.8-.1-8-5-15.6-10.3-22.6-16.5a80.2 80.2 0 01-15.8-17.6 30.7 30.7 0 01-4.8-14.3v-30c0-.9.3-1 1-1.2l19.2-3.4 17.6-3.1 18-3.2 19.8-3.5 18-3.3 16.4-2.9 8.6-1.5c.5 0 1-.3 1.5-.4v51.7a26 26 0 01-3.5 12.6c-3.9 7.2-9.4 13-15.4 18.5a175 175 0 01-27.2 19.8l-.9.4z" fill="#018241"/><path class="van_st1" d="M54.4 97.5c.1 2.8.9 5 2.7 6.7 1.5 1.4 3.3 2.3 5.2 3 4.6 1.7 9.4 1.6 14.2 1.6 5 0 10.2 0 15.2.3l7 .1c3.2.2 6.5.7 9.5 2l1.5 1c.4.4.8.3 1.1 0 1.7-1.5 3.6-2.6 5.7-3.2 2.3-.7 4.7-1.3 7-1.5 2-.1 3.8 0 5.6.1 2.9.1 5.7.5 8.5.8 2.7.3 5.5.6 8.1-.2 1.8-.6 3.4-1.6 4.2-3.6.2-.5.6-.9 1-1.4 1.4 3.3 2 6.7 1.5 10-.2 2.5-1 5-2.7 6.8-2.2 2.4-5 4.2-8.4 4.6-2.7.3-5.4.9-8 1.3-2.5.5-5 .8-7.4 1.7a14 14 0 00-5.4 3.3l-2.6 2.4c-.3-.6.1-1 0-1.6 0-2.2.2-4.4 0-6.6-.1-2.3-.3-4.7-1.8-6.6a3 3 0 00-1.6-1.3c3.5 7 3 14 .4 20.9-2.7 7-7.4 12.2-14.3 15.5.2-.7.2-1.4.5-2 1.2-2.6 1.6-5.3 1.3-8-.3-2-1-3.9-2.4-5.5a19.5 19.5 0 00-9.1-5.3 81 81 0 01-12.9-1.7 139.3 139.3 0 01-21.3-5.7c-2.3-.8-4.4-1.9-6-3.7-2.6-2.8-3.6-6-3-9.8a27.3 27.3 0 014.3-11.1c.6-1.1 1.4-2.1 2.4-3.3zm51 44.8h.3v-3.7c0-4-1.4-7.3-4.6-10a18 18 0 00-5.8-3.2c-5-1.6-10.3-2-15.6-2.3H73a48.5 48.5 0 01-17.6-5.5c-1.6-1-3.2-2-4.6-3.2-.2.5-.1.8 0 1.2 1.2 2.6 2.9 4.7 5.1 6.2 1.9 1.3 3.9 2.2 6 2.9 2.5.9 5 1.5 7.6 1.9 3 .5 6 1 9 1.2l7.8.8c3 .3 5.8 1 8.5 2.1 4 1.7 7 4.5 9.1 8.3l1.6 3.3zm42.3-23.3c-1 .2-2 .3-2.8.6-4 1-7.9 1.5-12 1.7-1.3.1-2.8 0-4.2.2-2.1.3-4.3.2-6.5.1-.8 0-1 0-.8.8.3 1 .5 2 .4 3.1 0 .8.4 1 1 .8L133 124l6-1.5c2.6-.6 5.2-1.6 7.7-2.6.4-.2.8-.3 1-1z"/><path class="van_st4" d="M148 28.3l-7.1 1.3-18.1 3.2-19 3.3-18.2 3.2-17.8 3.1L48.5 46l-8 1.3c-.5.1-.5 0-.5-.5V31c0-.5.2-.6.7-.7L53.8 28l18.5-3.4L91.6 21l7.4-1.4c1.5-.3 3 .2 4.4.4l17.6 3.2 17 3.2 9.9 1.8v.1zm-70.2 3.8v3.8c0 1.2.2 1.4 1.4 1.2l1.9-.3c1 0 1.3-.6 1.3-1.6v-7.7c0-.3.3-1-.5-.9-.6.1-1.3 0-1.2 1v7c0 .5 0 1-.7 1s-.5-.6-.5-1V28c0-.4.1-1-.7-.9-.5.1-1.1 0-1 1v4zm-2.1.7V29c0-.6-.2-1.2-1-1-1 0-2 .2-2.9.4-.6.2-.8.7-.8 1.2v8c0 .6.4 1 1.1.8l2.4-.4c.9-.1 1.2-.6 1.2-1.4v-3.8zm22.6-4V33c0 .3-.3 1 .5.9.5 0 1.3 0 1.2-1v-2.6c0-.5.3-.7.8-.7.4 0 .5.3.5.7v2.2c-.2 1 .3 1 1 .8.4 0 .6-.2.6-.6v-3.2c0-.4-.5-.5-.3-1 .6-1.4.1-3 .2-4.4 0-.6-.3-.9-1-.8l-2.7.5c-.6 0-.8.3-.8 1v4.2zm-43.2 8v-4c0-1.2-.3-1.3-1.5-1.1l-1.8.3c-1 0-1.3.6-1.3 1.6v7.6c0 1.2 0 1.1 1.2.9.4-.1.5-.3.5-.6v-1.8c0-.7.4-.6.8-.7.6-.1.4.4.4.7v1.5c0 .2 0 .4.3.5a1 1 0 001.4-1v-4zm-7-3.2c0-1-.1-1.1-1.1-1-.6.2-.6.6-.7 1l-.3 7.2c0 .3.1.8-.3.8s-.3-.5-.3-.8l-.4-7c0-.3 0-.8-.7-.6-.4.1-1 0-1 .8.3 2.8.5 5.5.6 8.3 0 .9.4 1 1.2.8.5-.2 1-.2 1.6-.3.6 0 .8-.3.8-.9l.5-8.3zm40.5-3.3l.2-3.8c.1-1.1-.1-1.3-1.1-1-.6.2-.5.7-.5 1l-.3 7.2c0 .2 0 .7-.3.7-.5 0-.3-.4-.3-.7l-.5-6.8c0-.4.2-1-.6-.9-.5.1-1.2 0-1 1l.5 7c.1 2.1.1 2.1 2.3 1.7h.6c.6 0 .8-.3.8-.9l.2-4.5zM57.4 36h.1v4.1c0 .3-.3 1 .5.8.5 0 1.2.1 1.1-.9v-4-3.4c0-.4.2-.8.7-.8.5 0 .6.4.6.8v7c0 .4-.2 1 .5.8.5 0 1.2.1 1.2-.8l-.1-8.4c0-.6-.3-1-1-.8l-3 .5c-.5 0-.6.3-.6.7V36zm6.9-1.2v3.8c0 .8.4 1.3 1.3 1l1.5-.3c1.7-.2 1.8-.4 1.8-2.1 0-.4.2-.8-.1-1-.4-.2-1 0-1.3.2-.5.1-.2.6-.3 1 0 .3-.2.7-.6.7-.6 0-.6-.4-.6-.8v-5.9c0-.4.2-.7.6-.8.5 0 .6.4.6.8 0 .3-.1.9.5.7.5-.1 1.3 0 1.2-1v-.8c0-.9-.4-1.3-1.3-1.1-.6 0-1.3.3-2 .3-1 .1-1.3.7-1.3 1.6v3.7zm27-4.7h.1v4.4c0 .4 0 .6.6.5l3.3-.6c.8-.1.4-.8.4-1.3 0-.6-.4-.3-.7-.3-2.1.3-2.1.3-2-1.8 0-.5.2-.7.7-.7l1-.2c.9-.2.5-.9.5-1.3 0-.6-.4-.4-.7-.3-1.5.2-1.5.2-1.5-1.3 0-.6.2-.9.8-1 .5 0 1 0 1.5-.2.8-.1.5-.8.4-1.3 0-.6-.4-.3-.7-.3l-3 .5c-.5 0-.7.3-.7.9V30z"/><path class="van_st1" d="M86.3 170.6a61.7 61.7 0 0033.1-37.2c.3 0 .2.3.2.5v9.6c-.2 3-.5 6.1-1.3 9-.7 2.7-1.2 5.5-2.4 8-1 1.8-1.6 3.8-2.7 5.5l-2.2 3.6-2.9 4c-.6.7-1.5 1.1-2.4 1.6-1.6 1-3.3 1.8-5 2.7-.5.3-1 .2-1.5 0-4.3-2.3-8.6-4.7-13-7.3z"/><path class="van_st5" d="M58.8 64.9V75c0 2-.8 3-2.9 3.4l-12.6 2.2c-1.9.3-2.8-.3-2.8-2.2 0-7 0-13.9-.2-20.8 0-.8.3-1.2 1-1.2l2-.4c.8-.2 1 0 1 .8l.1 16.8v2c0 .8.4 1.3 1 1.6.8.2 1.3-.2 1.8-.8.4-.5.5-1.2.5-1.9 0-6 0-12-.2-18 0-1 .3-1.4 1.3-1.4l1.2-.2c1.4-.3 1.5-.3 1.5 1.3l.1 17.5v1c.2.6.5 1 1.1 1.2.6.2 1 0 1.5-.5.5-.6.7-1.3.7-2l-.2-18.2c0-.9.2-1.4 1.2-1.4.6 0 1.2-.2 1.7-.3.8-.2 1.1 0 1.1.9v10.5z"/><path class="van_st6" d="M141 52.2c1.2.5 1.5 1.3 1.5 2.4V62c0 .8-.1 1.2-1 1.2-.6 0-1.3.2-2 .4-.7.1-1 0-1-.8V56c0-1.3-.4-1.8-1.3-1.9-1 0-1.9 1-1.9 2l.1 7c0 1-.2 1.5-1.2 1.5-.6 0-1.2.1-1.7.3-.8.2-1 0-1-1l-.1-13.5-.1-8.8c0-.8.3-1.1 1-1.2l8-1.4c1.2-.2 2 .3 2 1.5l.2 9.2a3 3 0 01-1.5 2.5zm-2.5-5.6v-2.3c0-1.2-.5-1.8-1.4-1.8-1 0-1.8.8-1.8 1.8v5.5c0 .7.4 1.2 1 1.4.7.2 1.1 0 1.6-.5.4-.5.6-1 .6-1.7v-2.4zM82.8 62.2V52c0-2.1.7-3 2.8-3.3l6-1c1.5-.3 2.3.2 2.4 1.8V56l.1 14.7c0 .9-.2 1.3-1 1.3-.7 0-1.3.2-2 .4-.6.1-1 0-1-.8v-5c0-.8-.1-1-1-.9-2.6.6-2.1 0-2.2 2.8v3.8c0 .5 0 .8-.7 1l-2.3.3c-.7.2-.9-.1-.9-.8V62.2h-.2zm7.3-4.9v-4.7c0-.8-.4-1.3-1.1-1.5-.7-.2-1.2.2-1.6.7-.5.5-.6 1.2-.6 2l.1 7.2c0 2.3 0 2.3 2.3 1.8.7-.1 1-.4 1-1v-4.4z"/><path class="van_st5" d="M76.3 62.7v11.1c0 .8-.2 1.1-1 1.2-1 0-2 .8-2.7.2-.6-.6-.2-1.8-.2-2.7V67c0-1.3-.6-2-1.5-2-.8 0-1.7 1-1.7 2v7.5c0 1.6 0 1.6-1.5 1.8-2.5.4-2.4.4-2.5-2l-.1-20.8c0-1 .3-1.4 1.3-1.5.9 0 1.9-.7 2.4-.2.5.5.2 1.6.2 2.4l.1 5.9c0 1.2.5 1.8 1.3 2 .7 0 1.6-.7 1.8-1.7.3-1 .1-2.1.1-3.2V52c0-.7.2-1 .9-1l2-.4c.8-.2 1 0 1 .8v11.4h.1z"/><path class="van_st6" d="M159.6 53.4v4c0 2-.8 3-2.7 3.2l-6 1c-1.5.3-2.2-.4-2.3-1.8v-4-.2c0-.4.2-.7.6-.7 1 0 2-.7 3.1-.3.3.1.1.6.2.9v.7c0 1.2.4 2 1.2 2 .8.2 1.7-.5 1.9-1.7a17 17 0 000-5.2c-.2-.8-.8-1.2-1.7-1l-3 .5c-1.4.2-2.2-.3-2.4-1.6-.1-1 0-2.1 0-3.2l-.1-5.5c0-2.1.8-3 3-3.4l5.8-1c1.3-.3 2.1.3 2.2 1.5l.1 4.4c0 .5-.3.7-.7.8l-2.3.4c-.6.1-1 0-.9-.7v-1.6c0-.7-.4-1.1-1-1.3-.7-.3-1.1 0-1.6.4-.5.6-.7 1.2-.7 1.9l.1 3.7c0 1.3.8 1.9 2 1.7l2.8-.5c1.3-.2 2.2.4 2.3 1.8v4.8h.1zM123.4 53.7c0 2.2.3 2-1.8 2.3l-3 .5c-.4.1-.6.4-.6.8v5.5c0 .6.2.7.8.6l4.7-.8c1.2-.3 1.2-.3 1.2 1v1.3c.2 1.1-.3 1.5-1.3 1.6l-8.2 1.5c-.8.1-1.2 0-1.2-1l-.1-22.2c0-1 .3-1.3 1.2-1.4 2.9-.4 5.7-1 8.5-1.5.8-.1 1 0 1 .8.2 3 .2 3-2.7 3.4-1 .2-2.1.5-3.2.6-.6.1-.8.4-.8 1v4.1c0 .7.2 1 .9.8 1.1-.3 2.3-.4 3.4-.6 1.2-.3 1.2-.3 1.2 1v.7z"/><path class="van_st5" d="M100.2 58.3V47.1c0-.7.2-1 1-1.1.9-.2 2-.7 2.7-.3.6.4.2 1.7.2 2.7l.2 15.5c0 1.6.6 2 2.1 1.7l3.8-.7c.7-.1.9.1.8.8v2c.1.7-.2 1.1-1 1.2l-8.6 1.5c-.9.2-1 0-1-.9V58.3h-.2z"/><path class="van_st7" d="M105.4 142.3l-1.6-3.3c-2-3.8-5.2-6.5-9.1-8.3a27 27 0 00-8.5-2l-7.9-.8c-3-.3-6-.8-9-1.3-2.5-.4-5-1-7.6-1.9-2-.7-4-1.6-5.9-2.9-2.3-1.5-4-3.6-5-6.2-.2-.3-.3-.7-.2-1.2a37.5 37.5 0 0014 7c2.7.8 5.5 1.4 8.3 1.6 2.3.2 4.6 0 6.8.2 5.3.1 10.6.6 15.6 2.2 2.1.7 4 1.8 5.8 3.3 3.2 2.6 4.5 6 4.6 10v3.5h-.3zM147.7 119c-.2.6-.7.7-1 .9-2.5 1-5 2-7.7 2.6l-6 1.5-10.2 2.3c-.6.1-1 0-1-.8.1-1-.1-2-.4-3-.3-1 0-1 .8-.9 2.2.1 4.3.2 6.5 0 1.4-.2 2.9-.2 4.3-.3 4-.2 8-.7 11.9-1.7.9-.3 1.8-.4 2.8-.6z"/><path class="van_st8" d="M77.8 32v-4c-.1-.8.5-.8 1-.9.8-.1.6.5.6.9l.1 6.6c0 .4-.2 1 .6 1 .6 0 .6-.5.6-1v-7c0-1 .6-.9 1.2-1 .8-.1.5.6.5 1v7.6c0 1-.3 1.5-1.3 1.6-.7 0-1.3.2-2 .3-1.1.2-1.3 0-1.3-1.2v-3.8z"/><path class="van_st9" d="M75.7 32.8v3.8c0 .8-.3 1.3-1.2 1.4-.8 0-1.6.3-2.4.4-.7.2-1-.2-1-.8v-8c0-.5.1-1 .7-1.2l3-.5c.7 0 .8.5.8 1v4zm-1.7.3v-2.7c0-.4 0-1-.6-1s-.7.6-.7 1V36c0 .4 0 1 .6 1 .6-.1.7-.6.7-1v-3z"/><path class="van_st10" d="M98.3 28.9v-4.2c0-.7.2-1 .8-1l2.7-.4c.7-.2 1 0 1 .7 0 1.5.4 3-.2 4.5-.2.4.3.5.3 1v3.1c0 .4-.2.5-.5.6-.8.2-1.3.2-1.2-.8v-2.2c0-.4 0-.7-.5-.7-.4 0-.7.2-.7.7V33c.1 1-.7.8-1.2.9-.8.1-.4-.6-.4-.9v-4h-.1zm2.9-2.5v-.8c0-.4 0-1-.5-1s-.7.5-.7 1v1.9c0 .3 0 .6.5.7.4 0 .6-.2.7-.6v-1.2zM55.1 36.7v4a1 1 0 01-1.4 1c-.3-.1-.3-.3-.3-.5v-1.5c0-.3.3-.8-.4-.7-.4 0-.9 0-.8.7v1.7c0 .4-.1.5-.5.6-1.1.3-1.1.3-1.1-.8l-.1-7.6c0-1 .3-1.5 1.3-1.6l1.8-.3c1.2-.3 1.5 0 1.5 1.2v3.8zm-3 1.2c1.2 0 1.4-.4 1.3-1.3V34c0-.4 0-1-.6-1-.5.1-.6.6-.6 1V38z"/><path class="van_st9" d="M48 33.6l-.5 8.3c0 .6-.2.9-.8 1-.5 0-1 0-1.6.2-.8.3-1.1 0-1.2-.8-.1-2.8-.4-5.5-.6-8.2-.1-1 .6-.8 1-1 .7-.1.6.4.7.8l.4 7c0 .2-.1.7.2.7.5 0 .4-.5.4-.8l.3-7.1c0-.5 0-.9.7-1 1-.2 1-.2 1 .9zM88.6 30.3l-.2 4.5c0 .6-.3.8-.8.9H87c-2.2.5-2.2.5-2.3-1.7-.2-2.3-.3-4.7-.6-7 0-1 .6-.9 1.1-1 .8-.1.6.5.6.9l.4 6.8c0 .3 0 .7.3.7.5 0 .3-.4.4-.7 0-2.4.2-4.8.3-7.1 0-.4 0-.8.5-1 1-.3 1.2-.2 1.1.9 0 1.3 0 2.6-.2 3.8z"/><path class="van_st10" d="M57.4 36v-4.3c0-.5.1-.8.6-.8l3-.5c.7-.1 1 .2 1 .8v8.4c.1 1-.6.7-1.1.8-.7.1-.5-.4-.5-.7v-6.4-.7c0-.4-.1-.8-.6-.8s-.7.4-.7.8V40c0 1-.6.9-1.1 1-.8.1-.5-.6-.5-.9v-4z"/><path class="van_st8" d="M64.3 34.8V31c0-.9.3-1.5 1.3-1.6.7 0 1.4-.2 2-.3 1-.2 1.3.2 1.3 1.1v1c0 .9-.7.7-1.2.8-.6.2-.4-.4-.5-.7 0-.4-.1-.8-.6-.8-.4 0-.6.5-.6.9v5.9c0 .3 0 .8.6.8.4 0 .5-.4.6-.8.1-.4-.2-.9.3-1 .4-.1.9-.4 1.3-.2.3.2.1.7.1 1 0 1.7-.1 2-1.8 2.2l-1.5.2c-1 .3-1.3-.2-1.3-1v-3.8z"/><path class="van_st10" d="M91.3 30v-4.2c0-.6.2-.8.8-.9l2.9-.4c.3 0 .7-.4.7.2 0 .5.4 1.2-.5 1.3-.4.1-.9.3-1.4.3-.6 0-.8.3-.8 1 0 1.4 0 1.4 1.5 1.2.3 0 .7-.3.7.3 0 .4.4 1.1-.4 1.3l-1.1.2c-.5 0-.7.2-.7.7-.1 2.1-.1 2.1 2 1.9.3 0 .8-.4.7.2 0 .5.4 1.2-.4 1.4L92 35c-.6 0-.6-.2-.6-.6V30z"/><path class="van_st2" d="M138.5 46.6V49c0 .6-.1 1.2-.6 1.7-.4.4-1 .7-1.6.5-.6-.2-1-.7-1-1.4v-5.5c0-1 .9-1.9 1.8-1.8.9 0 1.4.6 1.4 1.8v2.3z"/><path class="van_st10" d="M90.1 57.4v4.3c0 .7-.2 1-.9 1.1-2.3.5-2.3.5-2.3-1.8l-.1-7.2c0-.8 0-1.5.6-2 .4-.5.9-.9 1.6-.7.7.2 1 .7 1 1.5v4.8h.1z"/><path d="M74 33v3c0 .4-.1.9-.7 1-.6 0-.6-.6-.6-1v-5.5c0-.5.1-1 .7-1.1.6 0 .6.6.6 1v2.7z" fill="#1f8c53"/><path class="van_st4" d="M101.2 26.4v1.2c0 .3-.4.6-.8.6-.3 0-.4-.4-.4-.7v-2c0-.4.1-.8.7-.8.5 0 .5.5.5.9v.8zM52.2 37.9V34c0-.5 0-1 .6-1s.6.5.6 1v2.5c.1.9-.1 1.4-1.2 1.3z"/></svg>