<?xml version="1.0" encoding="utf-8"?>
<!-- Generator: Adobe Illustrator 24.1.0, SVG Export Plug-In . SVG Version: 6.00 Build 0)  -->
<svg version="1.1" id="Layer_1" xmlns="http://www.w3.org/2000/svg" xmlns:xlink="http://www.w3.org/1999/xlink" x="0px" y="0px"
	 viewBox="0 0 200 200" style="enable-background:new 0 0 200 200;" xml:space="preserve">
<g>
	<path style="fill:#FEFEFE;" d="M179.68,69.239c0,17.6-0.002,35.199,0.001,52.799c0.001,2.982-0.59,5.878-1.312,8.746
		c-0.794,3.153-1.98,6.185-3.431,9.079c-2.008,4.007-4.407,7.792-7.158,11.344c-3.225,4.165-6.798,8.018-10.632,11.616
		c-2.828,2.654-5.776,5.179-8.787,7.633c-3.551,2.894-7.134,5.745-10.885,8.368c-5.149,3.601-10.492,6.905-15.956,10.008
		c-4.798,2.725-9.633,5.381-14.547,7.894c-1.959,1.002-3.932,1.982-5.874,3.017c-0.491,0.262-0.834,0.272-1.334,0.01
		c-5.611-2.949-11.196-5.943-16.717-9.061c-5.437-3.071-10.818-6.229-16.075-9.601c-4.454-2.857-8.744-5.932-12.875-9.241
		c-2.74-2.195-5.412-4.458-8.033-6.795c-2.639-2.353-5.149-4.84-7.536-7.427c-4.117-4.461-7.85-9.23-10.844-14.555
		c-2.346-4.171-4.257-8.508-5.413-13.146c-0.462-1.855-0.747-3.76-0.941-5.684c-0.25-2.476-0.148-4.942-0.149-7.409
		c-0.019-33.769-0.012-67.539-0.019-101.308c0-0.657-0.063-1.065,0.9-1.207c3.264-0.479,6.499-1.149,9.743-1.762
		c2.333-0.441,4.658-0.929,6.994-1.358c2.47-0.454,4.95-0.856,7.423-1.297c2.308-0.411,4.613-0.838,6.919-1.266
		c2.466-0.458,4.934-0.906,7.395-1.391c3.529-0.696,7.084-1.245,10.605-1.993c2.746-0.583,5.532-0.973,8.295-1.48
		c2.823-0.517,5.637-1.088,8.461-1.605c3.12-0.571,6.251-1.084,9.368-1.673c0.969-0.183,1.951-0.414,2.912-0.529
		c0.941-0.113,1.943,0.277,2.917,0.451c2.829,0.506,5.657,1.012,8.485,1.523c2.307,0.417,4.614,0.836,6.92,1.263
		c2.466,0.458,4.931,0.923,7.395,1.392c2.787,0.531,5.569,1.087,8.36,1.601c2.762,0.508,5.535,0.96,8.298,1.466
		c2.823,0.517,5.629,1.139,8.463,1.59c3.102,0.493,6.175,1.126,9.265,1.676c2.859,0.508,5.706,1.094,8.564,1.593
		c3.45,0.602,6.886,1.28,10.34,1.86c0.394,0.066,0.535,0.151,0.499,0.535c-0.022,0.236-0.004,0.476-0.004,0.714
		C179.68,33.498,179.68,51.368,179.68,69.239z"/>
	<path style="fill:#0D1D3F;" d="M176.821,70.533c0,17.328,0.024,34.655-0.021,51.983c-0.009,3.264-0.81,6.42-1.791,9.537
		c-1.047,3.328-2.593,6.404-4.234,9.464c-1.641,3.06-3.711,5.823-5.707,8.631c-0.655,0.921-1.552,1.753-2.275,2.643
		c-2.586,3.18-5.615,5.918-8.498,8.797c-2.136,2.134-4.463,4.073-6.872,5.909c-1.545,1.177-2.984,2.491-4.504,3.703
		c-1.551,1.236-3.128,2.437-4.744,3.594c-1.22,0.872-2.438,1.766-3.635,2.681c-0.926,0.708-1.956,1.279-2.929,1.928
		c-3.391,2.261-6.969,4.214-10.432,6.355c-2.339,1.446-4.759,2.76-7.143,4.115c-1.9,1.08-3.891,2.067-5.86,3.058
		c-2.389,1.201-4.782,2.399-7.122,3.691c-0.971,0.536-1.546-0.217-2.165-0.522c-1.875-0.925-3.713-1.933-5.557-2.923
		c-3.524-1.892-6.96-3.948-10.477-5.856c-2.917-1.582-5.77-3.28-8.634-4.947c-1.416-0.824-2.819-1.755-4.196-2.688
		c-2.133-1.446-4.333-2.798-6.438-4.288c-1.735-1.228-3.451-2.484-5.161-3.748c-2.824-2.088-5.507-4.345-8.157-6.653
		c-1.377-1.199-2.787-2.39-4.097-3.644c-1.554-1.488-3.144-2.956-4.6-4.561c-1.07-1.18-2.071-2.427-3.243-3.528
		c-0.867-0.814-1.444-1.929-2.258-2.81c-1.42-1.537-2.415-3.383-3.712-5.015c-0.885-1.112-1.577-2.486-2.282-3.783
		c-0.87-1.601-1.739-3.211-2.463-4.88c-1.512-3.484-2.632-7.083-3.209-10.864c-0.343-2.253-0.371-4.494-0.371-6.749
		C24.03,85.426,24.036,51.69,24.005,17.954c-0.001-0.999,0.246-1.261,1.229-1.35c1.404-0.127,2.781-0.539,4.176-0.798
		c1.885-0.349,3.779-0.654,5.664-1.004c2.853-0.529,5.693-1.139,8.557-1.6c1.57-0.253,3.127-0.562,4.689-0.851
		c2.855-0.529,5.69-1.187,8.561-1.595c3.611-0.513,7.159-1.357,10.764-1.898c2.94-0.441,5.866-1.006,8.772-1.633
		c2.167-0.467,4.38-0.682,6.527-1.219c2.078-0.52,4.211-0.725,6.3-1.224c1.546-0.369,3.214-0.483,4.793-0.838
		c1.364-0.306,2.757-0.45,4.123-0.758c0.958-0.216,1.988-0.53,3.113-0.27c2.896,0.668,5.837,1.147,8.765,1.67
		c2.455,0.439,4.925,0.792,7.374,1.257c4.082,0.775,8.133,1.734,12.234,2.383c3.993,0.632,7.947,1.462,11.936,2.108
		c3.131,0.507,6.226,1.228,9.346,1.803c3.853,0.71,7.72,1.344,11.574,2.052c4.31,0.792,8.597,1.724,12.926,2.389
		c1.244,0.191,1.415,0.587,1.413,1.666C176.812,35.674,176.821,53.103,176.821,70.533z"/>
	<path style="fill:#FEFEFE;" d="M167.172,73.364c0,15.419-0.009,30.839,0.005,46.258c0.006,6.318-1.938,12.05-5.076,17.449
		c-3.931,6.763-9.109,12.501-14.799,17.783c-7.52,6.981-15.786,12.989-24.451,18.476c-7.054,4.466-14.302,8.574-21.763,12.314
		c-0.514,0.258-0.863,0.219-1.352-0.024c-10.041-5.002-19.695-10.663-28.919-17.044c-5.068-3.506-9.951-7.259-14.581-11.34
		c-2.551-2.248-5.032-4.563-7.37-7.025c-4.936-5.197-9.321-10.798-12.269-17.396c-1.583-3.544-2.648-7.22-2.771-11.147
		c-0.315-10.061-0.09-20.124-0.131-30.186c-0.048-11.845-0.011-23.691-0.011-35.536c0-9.958,0.004-19.917-0.009-29.875
		c-0.001-0.743,0.014-1.142,1.012-1.306c5.652-0.928,11.284-1.98,16.916-3.023c5.697-1.055,11.382-2.171,17.081-3.217
		c5.8-1.064,11.613-2.055,17.413-3.116c4.609-0.843,9.206-1.757,13.813-2.609c1.122-0.207,2.205,0.231,3.291,0.42
		c3.958,0.69,7.902,1.458,11.851,2.199c3.949,0.741,7.895,1.5,11.847,2.222c4.616,0.843,9.24,1.639,13.855,2.482
		c4.284,0.783,8.561,1.61,12.844,2.402c4.182,0.774,8.362,1.571,12.559,2.254c0.865,0.141,1.034,0.423,1.029,1.204
		c-0.028,5.174-0.014,10.348-0.014,15.521C167.172,52.124,167.172,62.744,167.172,73.364z"/>
	<path style="fill:#018141;" d="M113.523,170.874c0.755-1.35,1.346-2.466,1.992-3.551c1.334-2.242,2.369-4.609,3.352-7.028
		c0.954-2.345,1.48-4.773,2.069-7.197c0.492-2.026,0.852-4.08,1.189-6.145c0.749-4.588,0.144-9.182,0.341-13.766
		c0.034-0.786,0.205-1.261,1.002-1.556c1.848-0.685,3.628-1.571,5.504-2.157c0.856-0.267,1.869-0.191,2.732-0.509
		c1.645-0.606,3.42-0.456,5.082-1.124c1.319-0.53,2.864-0.558,4.319-0.674c2.608-0.208,4.899-1.253,7.148-2.468
		c1.174-0.634,2.095-1.579,3.098-2.422c1.216-1.021,1.715-2.534,2.555-3.813c0.749-1.139,0.66-2.54,1.103-3.752
		c0.574-1.57,0.237-3.127,0.358-4.684c0.121-1.559-0.528-3.004-0.718-4.521c-0.319-2.545-1.717-4.735-2.445-7.148
		c-0.161-0.533-0.398-1.043-0.308-1.585c-0.311-0.075-0.455,0.035-0.527,0.187c-0.715,1.515-1.364,3.064-2.146,4.543
		c-0.52,0.983-1.077,1.94-1.538,2.959c-0.249,0.551-0.923,0.688-1.477,0.939c-2.253,1.022-4.576,0.796-6.913,0.528
		c-0.067-0.008-0.134-0.021-0.201-0.022c-2.677-0.035-5.304-0.598-7.99-0.684c-2.266-0.073-4.537-0.159-6.798-0.099
		c-1.669,0.044-3.365,0.029-4.996,0.704c-0.719,0.298-1.629,0.199-2.41,0.485c-0.989,0.361-1.999,0.684-2.943,1.141
		c-1.104,0.535-2.337,0.861-3.194,1.852c-0.152,0.176-0.499,0.108-0.762-0.042c-1.476-0.84-3.137-1.116-4.719-1.627
		c-2.34-0.755-4.655-0.497-6.975-0.741c-2.679-0.283-5.394,0.18-8.016-0.235c-4.257-0.674-8.512-0.023-12.743-0.386
		c-2.206-0.19-4.4-0.058-6.596-0.177c-0.856-0.047-1.792,0.082-2.54-0.075c-1.486-0.314-3.03-0.454-4.473-1.098
		c-1.197-0.535-2.443-0.948-3.559-1.665c-1.508-0.968-2.369-2.349-2.866-4.052c-0.759-2.603-0.414-5.31-0.862-8.021
		c-0.913,0.279-1.305,1.158-1.684,1.778c-0.805,1.316-1.951,2.343-2.752,3.64c-0.552,0.893-1.216,1.698-1.739,2.629
		c-0.582,1.036-1.237,2.048-1.774,3.119c-1.038,2.069-1.983,4.136-2.499,6.453c-0.386,1.737-0.754,3.456-0.695,5.197
		c0.125,3.675,1.239,6.901,4.096,9.538c2.003,1.849,4.281,2.981,6.699,4.048c2.466,1.088,5.122,1.543,7.614,2.485
		c2.526,0.954,5.18,1.307,7.73,2.055c1.406,0.413,2.833,0.656,4.241,1.006c1.188,0.296,2.429,0.38,3.648,0.548
		c1.117,0.153,2.156,0.61,3.318,0.658c1.661,0.069,3.311,0.526,4.968,0.534c2.916,0.014,5.588,0.88,7.972,2.37
		c2.152,1.345,4.098,3.138,4.51,5.858c0.273,1.802,0.234,3.62-0.425,5.431c-0.486,1.334-0.837,2.74-1.323,4.082
		c-0.5,1.379-1.185,2.69-1.793,4.03c-0.28,0.616-0.568,1.228-0.927,2.004c2.871-1.426,5.72-2.452,8.292-4.052
		c0.174-0.108,0.414-0.168,0.541,0.043c0.105,0.175,0.05,0.383-0.118,0.549c-0.977,0.968-1.912,1.982-2.93,2.904
		c-1.322,1.198-2.669,2.376-4.078,3.469c-1.849,1.433-3.848,2.641-5.86,3.843c-1.187,0.709-2.399,1.346-3.615,1.991
		c-1.193,0.633-2.397,1.202-3.73,1.5c-0.392,0.088-0.545-0.118-0.777-0.261c-7.96-4.925-15.593-10.299-22.646-16.472
		c-5.927-5.187-11.412-10.771-15.622-17.487c-2.208-3.522-3.954-7.245-4.613-11.395c-0.154-0.969-0.296-1.954-0.298-2.932
		c-0.022-10.009,0-20.017-0.039-30.026c-0.003-0.802,0.307-1.044,0.969-1.16c9.349-1.644,18.699-3.285,28.047-4.941
		c8.786-1.557,17.568-3.13,26.352-4.697c8.757-1.562,17.514-3.118,26.269-4.691c7.851-1.411,15.696-2.853,23.547-4.257
		c4.421-0.791,8.852-1.528,13.276-2.308c0.556-0.098,1.092-0.306,1.673-0.473c0,0.382,0,0.753,0,1.125
		c0,16.851-0.017,33.703,0.012,50.554c0.008,4.582-1.327,8.759-3.486,12.728c-3.882,7.136-9.345,12.958-15.284,18.382
		c-8.345,7.621-17.63,13.953-27.251,19.82C114.255,170.538,114.019,170.631,113.523,170.874z"/>
	<path style="fill:#0D1D3F;" d="M151.369,103.212c1.176,3.055,1.803,6.139,1.544,9.352c-0.219,2.72-0.981,5.371-2.791,7.376
		c-2.216,2.455-4.964,4.219-8.452,4.582c-2.663,0.277-5.288,0.873-7.926,1.343c-2.508,0.447-5.02,0.8-7.421,1.689
		c-1.972,0.731-3.801,1.678-5.316,3.194c-0.856,0.856-1.67,1.776-2.73,2.442c0.245-2.722,0.206-5.444,0.083-8.15
		c-0.106-2.33-0.385-4.694-1.803-6.708c-0.387-0.549-0.854-0.995-1.619-1.252c3.482,7.011,3.024,14.037,0.358,20.962
		c-2.673,6.943-7.362,12.201-14.275,15.468c0.189-0.741,0.264-1.441,0.541-2.048c1.168-2.555,1.618-5.263,1.258-7.993
		c-0.26-1.972-0.906-3.841-2.378-5.474c-2.518-2.794-5.718-4.209-9.145-5.267c-1.191-0.368-2.505-0.368-3.769-0.466
		c-2.989-0.232-5.943-0.628-8.902-1.156c-4.072-0.728-8.071-1.715-12.064-2.749c-1.46-0.378-2.876-0.927-4.309-1.408
		c-1.71-0.574-3.492-0.898-5.161-1.623c-2.172-0.943-4.334-1.911-5.961-3.682c-2.549-2.774-3.605-6.011-3.041-9.82
		c0.317-2.146,0.913-4.19,1.711-6.164c0.699-1.727,1.632-3.364,2.605-4.969c0.651-1.074,1.402-2.051,2.359-3.251
		c0.171,1.614,0.417,2.902,0.971,4.142c0.694,1.555,1.758,2.742,3.125,3.667c3.047,2.062,6.519,2.907,10.108,3.3
		c4.534,0.497,9.093,0.033,13.633,0.241c3.22,0.148,6.447,0.022,9.654,0.231c2.272,0.148,4.536,0.028,6.798,0.16
		c3.288,0.192,6.527,0.664,9.558,2.052c0.535,0.245,1.009,0.631,1.499,0.968c0.417,0.286,0.81,0.22,1.155-0.086
		c1.553-1.378,3.322-2.377,5.285-3.036c1.686-0.566,3.417-0.954,5.147-1.358c1.292-0.302,2.621-0.291,3.891-0.308
		c1.861-0.024,3.762-0.019,5.627,0.302c0.859,0.148,1.744,0.124,2.608,0.181c3.253,0.213,6.486,0.869,9.757,0.644
		c2.26-0.155,4.363-0.793,5.952-2.597C150.25,105.129,150.379,103.943,151.369,103.212z"/>
	<path style="fill:#018241;" d="M148.346,28.275c-2.689,0.481-5.377,0.969-8.068,1.441c-4.83,0.847-9.662,1.679-14.492,2.525
		c-4.524,0.792-9.048,1.587-13.57,2.392c-6.419,1.142-12.834,2.303-19.253,3.438c-5.889,1.041-11.783,2.05-17.673,3.086
		c-6.492,1.142-12.98,2.307-19.472,3.444c-4.892,0.857-9.792,1.67-14.68,2.551c-0.59,0.106-0.693,0.008-0.692-0.535
		c0.011-5.173,0.013-10.346-0.004-15.518c-0.002-0.549,0.164-0.728,0.722-0.828c5.088-0.91,10.169-1.863,15.251-2.803
		c6.143-1.137,12.285-2.279,18.43-3.409c5.714-1.05,11.43-2.084,17.145-3.13c2.459-0.45,4.921-0.89,7.372-1.38
		c1.527-0.305,2.959,0.185,4.412,0.441c5.885,1.037,11.764,2.116,17.642,3.196c5.678,1.043,11.352,2.11,17.029,3.158
		c3.289,0.607,6.581,1.197,9.871,1.795C148.325,28.183,148.336,28.229,148.346,28.275z"/>
	<path style="fill:#0D1D3F;" d="M119.894,133.222c0.223,0.347,0.136,0.686,0.137,0.996c0.007,2.994,0.128,5.994-0.038,8.979
		c-0.114,2.048-0.238,4.116-0.71,6.146c-0.222,0.957-0.194,1.992-0.485,2.942c-0.858,2.793-1.281,5.742-2.506,8.389
		c-1.19,2.572-2.488,5.106-4.018,7.529c-1.146,1.815-2.503,3.453-3.692,5.222c-0.574,0.854-1.515,1.238-2.362,1.709
		c-1.711,0.951-3.476,1.806-5.195,2.742c-0.452,0.246-0.779,0.206-1.216-0.02c-4.41-2.278-8.742-4.693-13.118-7.314
		C103.291,163.002,113.795,150.125,119.894,133.222z"/>
	<path style="fill:#0D1D3F;" d="M40.78,67.965c0-3.471,0.027-6.942-0.02-10.412c-0.011-0.825,0.279-1.178,1.057-1.259
		c0.54-0.056,1.073-0.169,1.61-0.254c1.264-0.2,1.264-0.2,1.276,1.138c0.054,5.988,0.107,11.976,0.167,17.965
		c0.003,0.336,0.004,0.693,0.112,1.003c0.387,1.109,1.519,1.352,2.348,0.526c0.592-0.589,0.779-1.315,0.771-2.138
		c-0.057-6.022-0.075-12.045-0.166-18.067c-0.015-1.01,0.307-1.423,1.294-1.462c0.857-0.034,1.902-0.752,2.495-0.185
		c0.512,0.49,0.157,1.618,0.166,2.463c0.055,5.512,0.096,11.024,0.142,16.536c0.003,0.406-0.021,0.812,0.169,1.198
		c0.477,0.969,1.487,1.167,2.262,0.427c0.634-0.605,0.824-1.353,0.815-2.218c-0.061-5.954-0.078-11.909-0.159-17.863
		c-0.014-1.011,0.159-1.659,1.33-1.63c0.333,0.008,0.671-0.096,1.003-0.166c1.827-0.384,1.617-0.338,1.63,1.402
		c0.05,6.601,0.078,13.202,0.126,19.803c0.006,0.796-0.056,1.563-0.506,2.248c-0.386,0.588-0.871,1.011-1.606,1.14
		c-4.55,0.797-9.094,1.628-13.646,2.414c-1.631,0.282-2.492-0.477-2.505-2.199c-0.026-3.47-0.008-6.941-0.008-10.411
		C40.885,67.965,40.832,67.965,40.78,67.965z"/>
	<path style="fill:#0D1D3F;" d="M141.466,52.15c1.247,0.479,1.47,1.438,1.458,2.573c-0.027,2.38-0.035,4.761,0.022,7.141
		c0.022,0.896-0.143,1.42-1.17,1.437c-0.602,0.01-1.205,0.191-1.8,0.325c-0.694,0.156-0.976-0.045-0.967-0.808
		c0.029-2.312-0.004-4.625-0.018-6.937c-0.007-1.176-0.445-1.761-1.33-1.801c-0.922-0.042-1.884,0.883-1.887,1.888
		c-0.009,2.448-0.004,4.897,0.042,7.345c0.014,0.745-0.173,1.138-0.99,1.181c-0.638,0.034-1.276,0.193-1.9,0.351
		c-0.878,0.221-1.082-0.11-1.078-0.969c0.02-4.42-0.019-8.841-0.047-13.262c-0.019-2.958-0.023-5.917-0.099-8.874
		c-0.022-0.881,0.241-1.27,1.136-1.41c2.615-0.41,5.217-0.899,7.824-1.362c1.218-0.216,2.037,0.337,2.077,1.578
		c0.098,3.024,0.145,6.05,0.154,9.076C142.896,50.641,142.461,51.522,141.466,52.15z"/>
	<path style="fill:#0D1D3F;" d="M83.268,62.149c0-3.37-0.002-6.739,0.001-10.109c0.002-2.221,0.653-2.999,2.793-3.375
		c2.008-0.353,4.016-0.707,6.022-1.074c1.404-0.258,2.198,0.248,2.272,1.687c0.11,2.14,0.1,4.286,0.113,6.43
		c0.03,4.97,0.031,9.94,0.078,14.91c0.008,0.789-0.182,1.199-1.046,1.235c-0.931,0.038-2.059,0.797-2.713,0.213
		c-0.581-0.518-0.156-1.739-0.181-2.649c-0.029-1.055-0.016-2.111-0.005-3.166c0.007-0.643-0.27-0.835-0.895-0.703
		c-2.824,0.596-2.292,0.003-2.338,2.717c-0.022,1.293-0.013,2.588,0.015,3.881c0.012,0.58-0.181,0.867-0.795,0.928
		c-0.742,0.074-1.483,0.211-2.206,0.392c-0.741,0.185-0.947-0.06-0.944-0.796c0.013-2.927-0.026-5.855-0.044-8.783
		c-0.004-0.579-0.001-1.157-0.001-1.736C83.35,62.149,83.309,62.149,83.268,62.149z"/>
	<path style="fill:#0D1D3F;" d="M76.751,62.596c0,3.709-0.016,7.418,0.013,11.126c0.006,0.744-0.174,1.137-0.99,1.189
		c-0.707,0.045-1.408,0.223-2.105,0.37c-0.639,0.135-0.837-0.103-0.832-0.741c0.018-2.45-0.008-4.9-0.018-7.35
		c-0.006-1.496-0.499-2.296-1.428-2.32c-0.963-0.025-1.818,1.097-1.818,2.431c0,2.552,0,5.104,0.045,7.655
		c0.013,0.731-0.143,1.151-0.967,1.208c-0.707,0.048-1.415,0.195-2.105,0.368c-0.717,0.18-0.868-0.086-0.868-0.763
		c0.001-4.661-0.03-9.323-0.06-13.984c-0.018-2.824-0.025-5.648-0.097-8.471c-0.022-0.855,0.263-1.26,1.113-1.333
		c0.607-0.052,1.231-0.115,1.806-0.302c0.903-0.293,1.011,0.102,1.009,0.871c-0.006,2.483,0.043,4.967,0.076,7.45
		c0.016,1.217,0.479,1.9,1.319,1.975c0.784,0.069,1.638-0.714,1.84-1.743c0.198-1.011,0.042-2.036,0.048-3.054
		c0.009-1.769-0.003-3.539-0.055-5.307c-0.022-0.733,0.276-1.047,0.98-1.126c0.674-0.075,1.347-0.194,2.005-0.356
		c0.703-0.172,0.976,0.009,0.97,0.774c-0.027,3.81-0.012,7.62-0.012,11.431C76.664,62.596,76.707,62.596,76.751,62.596z"/>
	<path style="fill:#0D1D3F;" d="M160.071,53.343c0,1.361,0.016,2.722-0.004,4.083c-0.027,1.828-0.907,2.824-2.688,3.129
		c-1.875,0.321-3.746,0.661-5.618,0.996c-1.942,0.348-2.73-0.285-2.778-2.274c-0.028-1.156-0.007-2.314-0.024-3.471
		c-0.009-0.608,0.213-0.933,0.87-0.998c0.775-0.077,1.542-0.25,2.309-0.394c0.532-0.1,0.76,0.105,0.752,0.645
		c-0.008,0.578-0.006,1.159,0.041,1.734c0.059,0.716,0.455,1.205,1.158,1.382c0.653,0.164,1.102-0.206,1.477-0.678
		c0.126-0.158,0.26-0.336,0.307-0.525c0.488-1.982,0.358-3.981,0.017-5.956c-0.11-0.639-0.709-0.929-1.449-0.775
		c-1.097,0.228-2.205,0.403-3.312,0.578c-1.105,0.174-1.855-0.309-2.107-1.397c-0.114-0.49-0.132-1.01-0.138-1.517
		c-0.027-2.484-0.046-4.968-0.046-7.452c0-2.14,0.809-3.059,2.933-3.423c1.975-0.338,3.945-0.707,5.922-1.037
		c1.246-0.208,2.086,0.377,2.176,1.642c0.104,1.456,0.057,2.923,0.068,4.386c0.003,0.441-0.236,0.677-0.671,0.748
		c-0.805,0.131-1.608,0.268-2.409,0.424c-0.564,0.109-0.835-0.07-0.819-0.673c0.014-0.543-0.014-1.088-0.038-1.632
		c-0.03-0.681-0.371-1.154-1.011-1.386c-0.688-0.249-1.185,0.098-1.608,0.582c-0.418,0.479-0.619,1.058-0.615,1.689
		c0.007,1.259,0.011,2.519,0.068,3.776c0.058,1.288,0.801,1.886,2.105,1.712c0.908-0.121,1.809-0.304,2.712-0.46
		c1.325-0.229,2.193,0.354,2.283,1.748c0.103,1.592,0.024,3.195,0.024,4.793C159.995,53.343,160.033,53.343,160.071,53.343z"/>
	<path style="fill:#0D1D3F;" d="M114.358,55.787c0-3.708,0.018-7.416-0.015-11.123c-0.007-0.785,0.205-1.151,1.033-1.283
		c2.917-0.463,5.829-0.972,8.729-1.531c0.763-0.147,0.941,0.056,0.976,0.775c0.143,2.982,0.16,2.977-2.748,3.47
		c-1.071,0.181-2.135,0.413-3.209,0.57c-0.535,0.078-0.782,0.295-0.77,0.85c0.03,1.462,0.049,2.925,0.041,4.388
		c-0.004,0.66,0.316,0.705,0.85,0.597c1.231-0.248,2.474-0.439,3.705-0.689c0.641-0.13,0.916-0.003,0.94,0.731
		c0.097,3.042,0.108,2.984-2.898,3.58c-3.103,0.616-2.529-0.168-2.573,3.115c-0.014,1.054,0.033,2.11-0.005,3.164
		c-0.029,0.794,0.152,1.107,1.05,0.901c1.587-0.363,3.207-0.58,4.808-0.885c0.631-0.12,0.908-0.007,0.926,0.732
		c0.076,3.044,0.1,3.04-2.975,3.582c-2.207,0.389-4.417,0.765-6.615,1.199c-0.829,0.164-1.136,0.014-1.124-0.917
		c0.049-3.742,0.02-7.484,0.02-11.227C114.456,55.787,114.407,55.787,114.358,55.787z"/>
	<path style="fill:#0D1D3F;" d="M100.643,58.274c0-3.742,0.019-7.485-0.016-11.226c-0.007-0.726,0.231-1.068,0.936-1.151
		c0.573-0.067,1.14-0.183,1.71-0.274c1.265-0.202,1.264-0.201,1.276,1.134c0.054,5.681,0.107,11.362,0.166,17.043
		c0.017,1.643,0.558,2.078,2.144,1.777c1.268-0.24,2.54-0.455,3.807-0.702c0.57-0.111,0.775,0.054,0.804,0.665
		c0.148,3.108,0.163,3.103-2.922,3.642c-2.241,0.391-4.486,0.767-6.717,1.213c-0.837,0.167-1.061-0.055-1.053-0.893
		c0.037-3.742,0.016-7.484,0.016-11.226C100.744,58.274,100.694,58.274,100.643,58.274z"/>
	<path style="fill:#018141;" d="M105.876,142.212c-0.587-1.161-1.171-2.324-1.763-3.482c-1.429-2.794-3.654-4.874-6.207-6.575
		c-3.522-2.345-7.539-3.201-11.698-3.573c-6.72-0.602-13.447-1.246-20.038-2.709c-3.795-0.842-7.547-2.118-10.636-4.591
		c-2.142-1.715-3.979-3.809-4.591-6.659c-0.018-0.085,0.006-0.179,0.021-0.45c1.562,1.552,3.305,2.625,5.088,3.64
		c2.688,1.53,5.525,2.679,8.524,3.459c2.026,0.527,4.061,0.997,6.117,1.378c2.99,0.554,6.017,0.38,9.034,0.449
		c5.42,0.123,10.823,0.572,15.992,2.292c2.111,0.703,4.074,1.823,5.881,3.29c2.689,2.183,3.902,5.031,4.471,8.237
		C106.375,138.628,106.219,140.401,105.876,142.212z"/>
	<path style="fill:#018141;" d="M148.165,118.914c-0.274,0.623-0.704,0.77-1.101,0.932c-2.532,1.036-5.088,1.99-7.769,2.6
		c-2.071,0.471-4.086,1.213-6.168,1.609c-3.28,0.623-6.471,1.647-9.787,2.09c-0.863,0.115-1.188-0.197-1.083-1.051
		c0.119-0.968-0.183-1.881-0.46-2.785c-0.198-0.646-0.045-0.865,0.654-0.806c2.295,0.196,4.587,0.228,6.888-0.035
		c1.442-0.165,2.908-0.118,4.363-0.187c3.916-0.188,7.751-0.817,11.551-1.734C146.178,119.323,147.114,119.14,148.165,118.914z"/>
	<path style="fill:#FDFEFD;" d="M76.094,32.76c0,1.222-0.014,2.445,0.005,3.666c0.013,0.872-0.289,1.421-1.24,1.525
		c-0.773,0.085-1.542,0.238-2.302,0.406c-0.741,0.164-1.043-0.215-1.052-0.852c-0.037-2.681-0.054-5.362-0.043-8.044
		c0.003-0.644,0.37-1.06,1.06-1.157c0.704-0.099,1.402-0.243,2.103-0.366c1.162-0.204,1.409-0.011,1.42,1.157
		c0.012,1.221,0.003,2.443,0.003,3.664C76.063,32.76,76.078,32.76,76.094,32.76z"/>
	<path style="fill:#FDFEFD;" d="M103.285,25.947c-0.107,0.769,0.019,1.655-0.236,2.578c-0.125,0.452,0.229,1.299,0.235,1.987
		c0.006,0.612-0.035,1.226,0.012,1.834c0.045,0.572-0.191,0.758-0.731,0.833c-0.616,0.086-0.975,0.057-0.903-0.723
		c0.066-0.707,0.013-1.426,0.014-2.139c0.001-0.408,0.066-0.905-0.519-0.915c-0.604-0.01-0.777,0.42-0.76,0.972
		c0.024,0.815-0.028,1.634,0.04,2.445c0.087,1.038-0.746,0.813-1.245,0.898c-0.652,0.111-0.383-0.492-0.388-0.778
		c-0.043-2.751-0.035-5.502-0.09-8.252c-0.013-0.668,0.166-0.985,0.862-1.057c0.842-0.087,1.677-0.257,2.508-0.423
		c0.827-0.166,1.241,0.108,1.205,0.987C103.267,24.736,103.285,25.28,103.285,25.947z"/>
	<path style="fill:#FDFEFD;" d="M50.958,32.762c0.139-0.478,0.467-0.717,0.95-0.795c0.729-0.118,1.453-0.264,2.182-0.385
		c1.14-0.19,1.409,0.028,1.414,1.179c0.009,2.104-0.002,4.208,0.006,6.313c0.002,0.575,0.045,1.151,0.068,1.726
		c0.018,0.439-0.166,0.66-0.626,0.754c-0.775,0.159-1.25,0.068-1.106-0.891c0.05-0.332,0.042-0.682-0.003-1.016
		c-0.035-0.266,0.245-0.777-0.391-0.693c-0.422,0.056-0.898,0.066-0.834,0.74c0.051,0.538,0,1.085,0.013,1.628
		c0.009,0.376-0.06,0.59-0.512,0.701c-1.098,0.269-1.136,0.273-1.146-0.847c-0.003-0.339-0.023-0.677-0.035-1.016
		C50.88,37.694,50.839,35.228,50.958,32.762z"/>
	<path style="fill:#FDFEFD;" d="M78.2,32.023c0-1.327,0.063-2.657-0.022-3.978c-0.059-0.913,0.534-0.861,1.088-0.959
		c0.798-0.141,0.58,0.456,0.586,0.841c0.036,2.244,0.048,4.489,0.081,6.733c0.006,0.418-0.113,0.998,0.562,0.972
		c0.561-0.022,0.661-0.516,0.662-0.981c0.004-2.348,0.092-4.702-0.048-7.042c-0.067-1.119,0.657-0.975,1.197-1.041
		c0.789-0.096,0.461,0.6,0.467,0.95c0.044,2.551,0.028,5.103,0.071,7.654c0.016,0.944-0.32,1.474-1.307,1.568
		c-0.708,0.068-1.42,0.182-2.108,0.362c-0.918,0.241-1.188-0.21-1.194-0.995c-0.01-1.361-0.003-2.722-0.003-4.084
		C78.222,32.023,78.211,32.023,78.2,32.023z"/>
	<path style="fill:#FDFEFD;" d="M62.495,35.402c0,1.359-0.039,2.719,0.014,4.076c0.036,0.934-0.63,0.797-1.163,0.879
		c-0.745,0.114-0.511-0.468-0.514-0.81c-0.017-2.176-0.003-4.352-0.014-6.528c-0.002-0.488,0.144-1.193-0.551-1.228
		c-0.738-0.037-0.721,0.652-0.72,1.209c0.001,2.244-0.056,4.491,0.028,6.732c0.034,0.911-0.399,1.071-1.102,1.168
		c-0.412,0.057-0.538-0.064-0.54-0.469c-0.01-2.99-0.028-5.981-0.065-8.971c-0.006-0.463,0.247-0.582,0.608-0.644
		c0.937-0.16,1.876-0.309,2.811-0.476c0.793-0.141,1.151,0.191,1.146,0.982c-0.008,1.36-0.002,2.72-0.002,4.08
		C62.453,35.401,62.474,35.401,62.495,35.402z"/>
	<path style="fill:#FDFEFD;" d="M48.443,33.281c-0.169,2.854-0.34,5.766-0.518,8.677c-0.012,0.197-0.047,0.402-0.122,0.582
		c-0.053,0.128-3.047,0.673-3.174,0.606c-0.224-0.119-0.183-0.349-0.199-0.537c-0.241-2.907-0.471-5.814-0.71-8.721
		c-0.07-0.845,0.62-0.622,1.049-0.765c0.613-0.205,0.601,0.268,0.623,0.622c0.152,2.37,0.28,4.741,0.431,7.111
		c0.015,0.24-0.105,0.647,0.251,0.67c0.454,0.03,0.353-0.416,0.366-0.688c0.12-2.372,0.258-4.744,0.314-7.118
		c0.018-0.776,0.284-1.083,1.039-1.147C48.349,32.526,48.566,32.672,48.443,33.281z"/>
	<path style="fill:#FDFEFD;" d="M89.055,30.279c-0.091,1.489-0.21,2.978-0.258,4.468c-0.018,0.553-0.207,0.814-0.745,0.853
		c-0.236,0.017-0.471,0.061-0.705,0.105c-2.086,0.39-2.074,0.39-2.215-1.702c-0.157-2.336-0.272-4.677-0.539-7.001
		c-0.116-1.009,0.486-0.94,1.068-1.037c0.801-0.133,0.561,0.522,0.586,0.874c0.163,2.301,0.282,4.605,0.432,6.907
		c0.015,0.234-0.108,0.635,0.288,0.638c0.374,0.002,0.313-0.379,0.326-0.634c0.117-2.406,0.22-4.813,0.341-7.219
		c0.019-0.376-0.111-0.809,0.45-0.999c0.989-0.335,1.248-0.155,1.183,0.885c-0.08,1.287-0.135,2.575-0.201,3.863
		C89.062,30.28,89.059,30.279,89.055,30.279z"/>
	<path style="fill:#FDFDFD;" d="M64.704,34.72c0-1.223-0.001-2.446,0-3.669c0.001-0.915,0.384-1.464,1.363-1.56
		c0.707-0.069,1.403-0.245,2.105-0.37c0.731-0.13,1.098,0.199,1.13,0.921c0.015,0.339-0.037,0.686,0.013,1.019
		c0.135,0.888-0.506,0.854-1.068,0.977c-0.77,0.169-0.51-0.407-0.573-0.746c-0.064-0.346-0.134-0.719-0.562-0.733
		c-0.458-0.015-0.69,0.357-0.696,0.735c-0.031,2.039-0.028,4.078-0.008,6.117c0.003,0.333,0.123,0.719,0.584,0.685
		c0.515-0.037,0.626-0.446,0.684-0.87c0.054-0.396-0.169-0.86,0.53-1.007c1.094-0.23,1.143-0.243,1.147,0.881
		c0.006,1.726-0.154,1.918-1.821,2.186c-0.503,0.081-1.016,0.121-1.507,0.25c-0.936,0.246-1.266-0.202-1.273-1.043
		c-0.01-1.258-0.003-2.516-0.003-3.774C64.735,34.72,64.72,34.72,64.704,34.72z"/>
	<path style="fill:#FDFEFD;" d="M96.187,25.07c0.12,0.644-0.159,0.956-0.815,0.961c-0.168,0.001-0.336,0.049-0.503,0.081
		c-1.408,0.269-1.712,0.762-1.419,2.201c0.067,0.329,0.194,0.37,0.475,0.301c0.263-0.064,0.536-0.122,0.805-0.122
		c0.353,0,0.925-0.532,0.968,0.336c0.03,0.606,0.155,1.249-0.814,1.295c-0.472,0.022-1.216-0.065-1.351,0.432
		c-0.19,0.697-0.071,1.483-0.055,2.23c0.006,0.29,0.256,0.261,0.458,0.229c0.369-0.057,0.747-0.213,1.101-0.168
		c0.384,0.049,0.988-0.602,1.14,0.222c0.12,0.654,0.203,1.349-0.888,1.392c-0.907,0.035-1.809,0.284-2.707,0.473
		c-0.481,0.101-0.748,0.095-0.747-0.537c0.007-2.89-0.017-5.781-0.062-8.67c-0.009-0.561,0.199-0.79,0.73-0.863
		c0.975-0.135,1.96-0.248,2.912-0.487C96.132,24.195,96.268,24.456,96.187,25.07z"/>
	<path style="fill:#FDFDFD;" d="M135.689,46.929c0-0.918-0.042-1.839,0.01-2.754c0.067-1.172,1.308-2.069,2.277-1.691
		c0.55,0.215,0.913,0.611,0.92,1.224c0.022,1.87,0.037,3.74,0.021,5.61c-0.005,0.523-0.263,0.972-0.645,1.347
		c-0.446,0.437-0.953,0.686-1.565,0.45c-0.587-0.227-0.928-0.695-0.945-1.33c-0.025-0.951-0.007-1.904-0.007-2.856
		C135.734,46.929,135.712,46.929,135.689,46.929z"/>
	<path style="fill:#FDFDFD;" d="M87.23,57.802c0-1.392,0.007-2.785-0.003-4.177c-0.005-0.735,0.115-1.426,0.635-1.983
		c0.408-0.437,0.886-0.78,1.524-0.582c0.686,0.213,1.074,0.705,1.091,1.432c0.029,1.256,0.038,2.513,0.048,3.769
		c0.014,1.8,0,3.601,0.043,5.401c0.016,0.677-0.255,0.971-0.9,1.099c-2.303,0.458-2.304,0.472-2.333-1.902
		c-0.012-1.019-0.002-2.038-0.002-3.057C87.299,57.802,87.264,57.802,87.23,57.802z"/>
	<path style="fill:#0D8648;" d="M74.428,32.985c0,0.951,0.007,1.902-0.003,2.853c-0.005,0.5-0.095,1.033-0.721,1.025
		c-0.611-0.007-0.588-0.555-0.59-0.995c-0.008-1.8-0.002-3.6-0.004-5.401c-0.001-0.543,0.085-1.125,0.734-1.124
		c0.674,0.001,0.573,0.632,0.58,1.094C74.436,31.287,74.428,32.136,74.428,32.985z"/>
	<path style="fill:#028241;" d="M100.401,26.233c0.122-0.539-0.354-1.61,0.727-1.572c0.922,0.032,0.405,1.024,0.51,1.587
		c0.067,0.358,0.023,0.74,0.004,1.11c-0.021,0.422-0.247,0.727-0.674,0.744c-0.509,0.02-0.563-0.381-0.567-0.774
		C100.399,26.991,100.401,26.653,100.401,26.233z"/>
	<path style="fill:#018241;" d="M53.845,35.605c0,0.509-0.031,1.02,0.008,1.526c0.053,0.691-0.522,0.643-0.881,0.704
		c-0.519,0.089-0.329-0.396-0.334-0.644c-0.021-1.119-0.019-2.239-0.002-3.358c0.005-0.356-0.028-0.836,0.518-0.795
		c0.448,0.034,0.689,0.36,0.682,0.837c-0.008,0.577-0.002,1.153-0.002,1.73C53.837,35.605,53.841,35.605,53.845,35.605z"/>
</g>
</svg>
