<?xml version="1.0" encoding="utf-8"?>
<!-- Generator: Adobe Illustrator 24.1.2, SVG Export Plug-In . SVG Version: 6.00 Build 0)  -->
<svg version="1.1" id="Layer_1" xmlns="http://www.w3.org/2000/svg" xmlns:xlink="http://www.w3.org/1999/xlink" x="0px" y="0px"
	 viewBox="0 0 200 200" style="enable-background:new 0 0 200 200;" xml:space="preserve">
<path style="fill:#FFFFFF;" d="M101.882,198.317c-0.565,0-1.121-0.144-1.655-0.428c-9.634-5.133-18.08-10.15-25.82-15.339
	c-7.452-4.996-13.898-9.907-19.704-15.013c-5.939-5.222-10.83-10.313-14.954-15.565c-3.682-4.689-6.49-9.175-8.584-13.714
	c-1.507-3.268-2.52-6.3-3.098-9.27c-0.287-1.476-0.427-2.844-0.427-4.184c0.004-29.925,0.003-59.85,0.003-89.776V21.107
	c0-2.002,0.908-3.104,2.859-3.471c2.223-0.419,4.446-0.836,6.67-1.253l4.434-0.832C43.924,15.116,73.28,9.59,73.28,9.59
	l10.471-1.967l10.627-2l1.685-0.316c1.399-0.262,2.799-0.524,4.197-0.793c0.298-0.057,0.605-0.086,0.912-0.086
	c0.322,0,0.644,0.031,0.984,0.094l4.532,0.841c2.647,0.492,5.294,0.983,7.942,1.472c2.13,0.393,4.261,0.784,6.392,1.175
	c2.24,0.411,4.481,0.822,6.72,1.235c2.649,0.489,5.297,0.981,7.945,1.472c2.669,0.495,5.337,0.991,8.006,1.483
	c2.418,0.447,4.836,0.89,7.254,1.334c2.321,0.426,4.642,0.852,6.963,1.281c2.743,0.506,5.485,1.016,8.227,1.525l5.257,0.976
	c0.706,0.132,1.373,0.256,2.047,0.366c1.594,0.262,2.637,1.556,2.541,3.15c0,0.03,0.001,0.06,0.001,0.09
	c0.001,0.06,0.002,0.12,0.002,0.18v52.439c0,4.176-0.001,8.351-0.002,12.527c-0.003,12.43-0.005,25.283,0.017,37.923
	c0.005,2.872-0.418,5.664-1.294,8.535c-1.237,4.054-3.128,8.105-5.782,12.384c-3.031,4.887-6.792,9.662-11.497,14.599
	c-5.139,5.392-11.026,10.582-17.996,15.867c-7.832,5.938-16.53,11.624-26.591,17.382c-2.76,1.579-5.7,3.202-9.253,5.106
	C103.022,198.169,102.464,198.317,101.882,198.317z M38.446,27.768c0,32.173,0,64.347,0.001,96.52c0,0.366,0.024,0.736,0.071,1.098
	c0.209,1.612,0.655,3.335,1.364,5.267c1.253,3.415,3.083,6.868,5.595,10.557c3.134,4.601,7.023,9.122,11.891,13.823
	c4.805,4.639,10.23,9.127,16.586,13.719c8.139,5.88,17.283,11.552,27.931,17.326c3.151-1.714,5.926-3.271,8.46-4.748
	c9.031-5.263,16.815-10.433,23.797-15.805c6.521-5.017,11.966-9.923,16.645-15.001c3.757-4.077,6.756-7.997,9.17-11.983
	c2.01-3.32,3.44-6.405,4.37-9.433c0.62-2.018,0.919-3.965,0.916-5.953c-0.021-12.004-0.018-24.207-0.016-36.008
	c0.001-3.871,0.002-7.741,0.002-11.612V27.772c-0.276-0.051-0.542-0.098-0.804-0.138c-1.636-0.252-3.111-0.482-4.603-0.761
	c-2.179-0.407-4.36-0.808-6.541-1.208l-6.438-1.183c-2.605-0.479-5.209-0.957-7.814-1.438c-1.941-0.358-3.882-0.719-5.823-1.079
	c-2.025-0.376-4.049-0.752-6.074-1.125c-2.109-0.389-4.219-0.777-6.329-1.164c-2.244-0.412-4.487-0.824-6.73-1.238
	c-3.169-0.585-6.338-1.174-9.507-1.762l-3.342-0.62c0,0-7.227,1.364-10.804,2.038c-3.701,0.697-7.401,1.394-11.102,2.09
	c-3.718,0.7-7.437,1.399-11.155,2.098c0,0-8.634,1.62-10.576,1.985c-1.233,0.232-2.466,0.465-3.7,0.698
	c-2.276,0.43-4.552,0.86-6.829,1.283l-0.449,0.083c-1.994,0.371-4.056,0.754-6.109,1.083c-0.482,0.077-0.963,0.163-1.444,0.248
	C38.854,27.697,38.651,27.733,38.446,27.768z"/>
<path style="fill:#091E42;" d="M173.303,73.542c0,16.818-0.015,33.637,0.015,50.455c0.005,2.658-0.407,5.224-1.177,7.748
	c-1.274,4.178-3.201,8.053-5.496,11.753c-3.188,5.139-6.995,9.793-11.16,14.162c-5.439,5.706-11.4,10.822-17.675,15.58
	c-8.366,6.344-17.196,11.98-26.303,17.192c-3.036,1.738-6.104,3.418-9.187,5.07c-0.298,0.16-0.518,0.187-0.831,0.02
	c-8.765-4.67-17.336-9.667-25.588-15.2c-6.774-4.541-13.298-9.41-19.427-14.799c-5.298-4.659-10.252-9.65-14.616-15.207
	c-3.22-4.1-6.068-8.435-8.258-13.181c-1.282-2.78-2.315-5.645-2.901-8.658c-0.236-1.211-0.377-2.432-0.377-3.671
	c0.004-34.566,0.003-69.132,0.003-103.698c0-0.701-0.001-0.709,0.673-0.836c3.7-0.697,7.402-1.389,11.102-2.084
	c3.508-0.659,7.015-1.32,10.523-1.98c3.508-0.66,7.015-1.32,10.523-1.98c3.543-0.667,7.085-1.335,10.628-2.001
	c3.49-0.656,6.981-1.311,10.471-1.967c3.543-0.666,7.085-1.334,10.628-2.001c1.964-0.37,3.93-0.734,5.892-1.111
	c0.306-0.059,0.601-0.045,0.9,0.011c4.159,0.771,8.317,1.546,12.476,2.314c4.37,0.807,8.742,1.603,13.112,2.41
	c5.318,0.982,10.633,1.973,15.951,2.956c4.738,0.875,9.479,1.74,14.217,2.615c4.352,0.803,8.703,1.614,13.055,2.421
	c0.842,0.156,1.684,0.317,2.529,0.455c0.225,0.037,0.312,0.127,0.298,0.345c-0.009,0.142-0.002,0.286-0.002,0.429
	C173.303,38.582,173.303,56.062,173.303,73.542z M167.909,75.538c0-16.408,0-32.816,0-49.223c0-0.161,0.002-0.322-0.003-0.483
	c-0.003-0.09-0.017-0.208-0.124-0.206c-0.3,0.007-0.516-0.215-0.797-0.261c-0.72-0.12-1.434-0.272-2.155-0.383
	c-1.509-0.232-3.017-0.466-4.518-0.747c-2.965-0.554-5.932-1.095-8.898-1.641c-3.967-0.73-7.934-1.457-11.9-2.189
	c-3.966-0.732-7.931-1.472-11.897-2.204c-4.352-0.803-8.706-1.599-13.059-2.402c-4.335-0.8-8.668-1.607-13.002-2.411
	c-0.213-0.04-0.425-0.046-0.639-0.006c-3.665,0.692-7.33,1.383-10.995,2.074c-3.7,0.697-7.401,1.394-11.101,2.09
	c-3.718,0.7-7.436,1.399-11.154,2.098c-3.525,0.662-7.051,1.322-10.576,1.985c-3.508,0.66-7.014,1.328-10.523,1.98
	c-2.161,0.401-4.322,0.807-6.492,1.155c-1.103,0.177-2.198,0.395-3.301,0.562c-0.321,0.049-0.559,0.304-0.893,0.299
	c-0.072-0.001-0.105,0.091-0.11,0.163c-0.008,0.125-0.006,0.25-0.006,0.375c0,32.708,0,65.417,0.001,98.125
	c0,0.482,0.031,0.962,0.093,1.443c0.26,2.012,0.809,3.948,1.505,5.846c1.46,3.981,3.517,7.649,5.897,11.143
	c3.547,5.207,7.722,9.876,12.245,14.243c5.268,5.087,10.947,9.678,16.878,13.963c9.28,6.704,19.069,12.582,29.141,18.006
	c0.299,0.161,0.509,0.117,0.779-0.029c3.155-1.707,6.292-3.448,9.392-5.255c8.34-4.861,16.425-10.106,24.082-15.996
	c6.059-4.661,11.795-9.681,16.981-15.309c3.544-3.846,6.779-7.93,9.492-12.411c1.92-3.171,3.547-6.48,4.639-10.035
	c0.675-2.197,1.038-4.429,1.034-6.745C167.896,107.281,167.909,91.41,167.909,75.538z"/>
<path style="fill:#FEFEFE;" d="M167.909,75.538c0,15.872-0.013,31.743,0.014,47.615c0.004,2.316-0.359,4.548-1.034,6.745
	c-1.092,3.554-2.719,6.863-4.639,10.035c-2.713,4.481-5.948,8.565-9.492,12.411c-5.186,5.628-10.923,10.648-16.981,15.309
	c-7.656,5.89-15.742,11.135-24.082,15.996c-3.1,1.807-6.236,3.547-9.392,5.255c-0.27,0.146-0.48,0.19-0.779,0.029
	c-10.071-5.423-19.861-11.302-29.141-18.006c-5.932-4.285-11.611-8.877-16.878-13.963c-4.523-4.367-8.698-9.036-12.245-14.243
	c-2.38-3.494-4.436-7.162-5.897-11.143c-0.696-1.898-1.245-3.835-1.505-5.846c-0.062-0.48-0.093-0.96-0.093-1.443
	c-0.001-32.708-0.001-65.417-0.001-98.125c0-0.125-0.001-0.25,0.006-0.375c0.005-0.072,0.038-0.164,0.11-0.163
	c0.334,0.005,0.573-0.25,0.893-0.299c1.103-0.168,2.198-0.386,3.301-0.562c2.17-0.348,4.331-0.754,6.492-1.155
	c3.509-0.652,7.015-1.321,10.523-1.98c3.525-0.663,7.051-1.323,10.576-1.985c3.718-0.699,7.436-1.398,11.154-2.098
	c3.701-0.696,7.401-1.393,11.101-2.09c3.665-0.691,7.33-1.382,10.995-2.074c0.214-0.04,0.426-0.034,0.639,0.006
	c4.334,0.804,8.668,1.611,13.002,2.411c4.352,0.804,8.706,1.599,13.059,2.402c3.966,0.732,7.931,1.472,11.897,2.204
	c3.966,0.732,7.933,1.459,11.9,2.189c2.966,0.546,5.933,1.087,8.898,1.641c1.501,0.28,3.009,0.515,4.518,0.747
	c0.721,0.111,1.435,0.263,2.155,0.383c0.281,0.047,0.497,0.268,0.797,0.261c0.107-0.002,0.121,0.116,0.124,0.206
	c0.005,0.161,0.003,0.322,0.003,0.483C167.909,42.723,167.909,59.13,167.909,75.538z M102.747,184.221
	c0.2-0.03,0.357-0.155,0.526-0.249c1.46-0.812,2.922-1.622,4.373-2.45c1.157-0.66,2.325-1.303,3.446-2.023
	c0.355-0.202,0.714-0.398,1.065-0.606c0.768-0.454,1.536-0.909,2.295-1.377c0.148-0.092,0.35-0.143,0.319-0.427
	c-0.12-1.1-0.04-2.209-0.129-3.314c-0.073-0.905-0.013-1.822-0.016-2.733c-0.001-0.322,0.075-0.629,0.128-0.977
	c0.721,0.288,1.41,0.572,2.105,0.841c1.736,0.671,3.526,1.135,5.371,1.382c0.256,0.034,0.481-0.015,0.703-0.173
	c0.684-0.485,1.383-0.949,2.078-1.419c2.084-1.41,4.126-2.88,6.145-4.38c2.248-1.67,4.455-3.394,6.609-5.185
	c1.55-1.289,3.085-2.594,4.585-3.942c0.518-0.465,1.002-0.967,1.541-1.408c0.08-0.066,0.188-0.115,0.14-0.272
	c-0.153,0.017-0.309,0.043-0.466,0.051c-1.142,0.057-2.26,0.269-3.375,0.51c-1.683,0.363-3.261,1.033-4.862,1.636
	c-1.208,0.455-2.336,1.048-3.386,1.812c-1.841,1.339-3.916,2.141-6.177,2.351c-2.144,0.198-4.231-0.113-6.21-1.031
	c-1.123-0.521-2.116-1.26-3.208-1.829c-0.247-0.129-0.243-0.301-0.18-0.536c0.599-2.268,1.383-4.465,2.51-6.529
	c0.835-1.529,1.836-2.932,3.098-4.142c0.289-0.277,0.581-0.468,1.002-0.303c0.11,0.043,0.248,0.019,0.372,0.023
	c1.875,0.053,3.738-0.036,5.601-0.289c1.727-0.235,3.383-0.694,4.994-1.334c2.08-0.825,4.052-1.875,5.975-3.007
	c1.9-1.118,3.942-1.728,6.121-1.898c1.949-0.153,3.837,0.167,5.667,0.854c1.124,0.422,2.183,0.972,3.226,1.561
	c0.351,0.198,0.363,0.185,0.605-0.14c1.889-2.538,3.629-5.172,5.108-7.971c1.245-2.357,2.294-4.797,2.997-7.375
	c0.381-1.396,0.623-2.807,0.619-4.269c-0.021-7.488-0.009-14.976-0.012-22.464c0-0.319,0.113-0.691-0.055-0.945
	c-0.174-0.264-0.58-0.222-0.884-0.292c-0.274-0.064-0.423-0.195-0.557-0.431c-1.275-2.249-2.562-4.49-3.845-6.735
	c-0.593-1.038-1.183-2.078-1.778-3.115c-1.367-2.384-2.736-4.767-4.103-7.151c-0.311-0.542-0.618-1.086-0.925-1.63
	c-0.111-0.196-0.202-0.176-0.287,0.017c-0.031,0.043-0.06,0.089-0.094,0.129c-3.907,4.664-7.814,9.327-11.722,13.99
	c-0.091,0.108-0.167,0.232-0.3,0.299c-0.823-0.078-1.635,0.088-2.455,0.113c-1.387,0.042-2.769,0.221-4.156,0.27
	c-0.945,0.034-1.884,0.169-2.831,0.14c-0.071-0.002-0.142,0.01-0.214,0.014c-0.977,0.064-1.955,0.123-2.931,0.195
	c-0.253,0.019-0.383-0.089-0.499-0.303c-1.34-2.481-2.695-4.954-4.026-7.44c-0.218-0.407-0.504-0.728-0.85-1.016
	c-1.028-0.855-2.054-1.713-3.078-2.573c-0.984-0.825-1.964-1.655-2.948-2.48c-1.23-1.031-2.463-2.058-3.693-3.089
	c-0.984-0.825-1.963-1.656-2.947-2.48c-0.984-0.824-1.975-1.641-2.959-2.466c-1.189-0.996-2.374-1.997-3.563-2.995
	c-0.328-0.275-0.661-0.543-0.992-0.815c-0.119-0.098-0.237-0.181-0.35,0.007c-0.067,0.059-0.132,0.12-0.201,0.176
	c-3.045,2.453-6.091,4.905-9.138,7.356c-0.209,0.168-0.406,0.348-0.589,0.544c-2.092,2.248-4.178,4.503-6.283,6.74
	c-1.162,1.234-2.269,2.521-3.534,3.659c-3.053,2.747-6.115,5.487-9.121,8.286c-1.129,1.052-2.348,1.855-3.802,2.387
	c-2.124,0.777-4.205,1.674-6.304,2.52c-0.201,0.008-0.329-0.113-0.446-0.254c-0.126-0.15-0.247-0.304-0.382-0.446
	c-0.996-1.045-2.013-2.071-2.986-3.138c-0.601-0.659-1.228-1.292-1.842-1.937c-0.221-0.232-0.389-0.513-0.645-0.712
	c-0.675-0.524-1.352-1.045-2.028-1.568c-1.986-1.535-3.969-3.074-5.963-4.6c-0.277-0.212-0.513-0.503-0.887-0.566
	c-0.236-0.121-0.304,0.119-0.416,0.217c-2.182,1.925-4.352,3.864-6.538,5.785c-0.27,0.238-0.357,0.482-0.356,0.828
	c0.01,3.089,0.004,6.178,0.003,9.267c0,0.321-0.001,0.642-0.001,0.964c0,6.004,0.004,12.008-0.006,18.012
	c-0.001,0.539,0.057,1.072,0.138,1.596c0.285,1.839,0.836,3.608,1.502,5.343c0.885,2.306,2.001,4.498,3.261,6.619
	c1.323,2.227,2.795,4.353,4.381,6.401c0.258,0.333,0.265,0.328,0.641,0.122c0.078-0.043,0.153-0.091,0.229-0.138
	c0.955-0.596,1.937-1.145,2.962-1.61c1.923-0.873,3.938-1.343,6.055-1.377c0.595-0.01,1.164,0.156,1.748,0.204
	c1.703,0.14,3.267,0.726,4.758,1.511c1.831,0.964,3.616,2.016,5.541,2.797c1.59,0.645,3.208,1.189,4.897,1.508
	c0.997,0.188,1.999,0.335,3.009,0.444c1.137,0.123,2.278,0.257,3.412,0.143c0.521-0.053,0.84,0.078,1.156,0.435
	c0.284,0.321,0.607,0.606,0.898,0.921c1.089,1.175,1.958,2.504,2.635,3.948c0.906,1.93,1.445,3.984,1.933,6.052
	c0.049,0.208,0.035,0.326-0.159,0.438c-0.309,0.178-0.597,0.391-0.901,0.578c-2.223,1.362-4.581,2.181-7.245,1.954
	c-1.413-0.121-2.786-0.385-4.129-0.815c-2.123-0.68-4.037-1.802-5.985-2.851c-1.18-0.635-2.38-1.22-3.662-1.626
	c-2.256-0.713-4.58-0.952-6.935-0.999c-0.004,0.154,0.125,0.213,0.209,0.296c0.394,0.388,0.812,0.752,1.217,1.128
	c1.23,1.141,2.507,2.229,3.787,3.311c1.947,1.647,3.94,3.24,5.972,4.782c3.212,2.438,6.49,4.785,9.851,7.016
	c0.265,0.176,0.526,0.265,0.845,0.264c0.947-0.002,1.883-0.082,2.822-0.215c1.739-0.246,3.418-0.7,5.057-1.319
	c0.245-0.093,0.492-0.184,0.728-0.273c0.136,0.173,0.087,0.34,0.089,0.494c0.012,0.75,0.031,1.501,0.017,2.251
	c-0.028,1.516,0.083,3.036-0.096,4.548c-0.022,0.181,0.045,0.301,0.206,0.395c1.171,0.68,2.339,1.366,3.507,2.05
	c1.679,1.005,3.385,1.961,5.097,2.908c0.777,0.43,1.537,0.89,2.344,1.265c0.322,0.344,0.662,0.323,1.019,0.057
	C102.481,184.385,102.648,184.355,102.747,184.221z M164.066,66.797c0-0.279,0-0.491,0-0.703c0-12.19,0-24.379,0-36.569
	c0-0.107,0.002-0.215,0-0.322c-0.007-0.392-0.007-0.399-0.402-0.473c-1.983-0.368-3.967-0.731-5.95-1.096
	c-3.581-0.658-7.163-1.314-10.743-1.974c-3.616-0.666-7.231-1.337-10.846-2.004c-3.563-0.657-7.127-1.311-10.69-1.969
	c-3.773-0.697-7.546-1.398-11.319-2.095c-4.177-0.771-8.355-1.537-12.532-2.311c-0.252-0.047-0.488-0.044-0.74,0.004
	c-3.7,0.701-7.402,1.394-11.103,2.089c-3.877,0.728-7.753,1.455-11.63,2.185c-3.894,0.733-7.787,1.47-11.68,2.202
	c-3.894,0.732-7.789,1.459-11.683,2.19c-4.122,0.774-8.244,1.551-12.365,2.327c-0.824,0.155-1.648,0.314-2.474,0.463
	c-0.241,0.043-0.404,0.126-0.352,0.412c0.013,0.069,0.002,0.143,0.002,0.214c0,12.279,0,24.558,0.002,36.837
	c0,0.176-0.035,0.358,0.047,0.541c0.067-0.003,0.138,0.002,0.206-0.011c2.263-0.423,4.526-0.845,6.789-1.271
	c6.384-1.201,12.768-2.407,19.153-3.605c5.438-1.021,10.878-2.031,16.316-3.05c6.298-1.18,12.594-2.365,18.89-3.553
	c0.182-0.034,0.346-0.029,0.525,0.004c1.614,0.304,3.229,0.599,4.844,0.896c3.774,0.695,7.548,1.389,11.321,2.085
	c3.581,0.66,7.161,1.324,10.741,1.985c3.616,0.667,7.231,1.334,10.847,1.999c3.581,0.659,7.162,1.317,10.742,1.977
	c3.388,0.624,6.775,1.249,10.162,1.874C161.425,66.31,162.706,66.546,164.066,66.797z M101.261,65.567
	c0.789,0.669,1.561,1.331,2.341,1.984c7.027,5.887,14.054,11.772,21.083,17.656c0.234,0.196,0.435,0.403,0.584,0.683
	c1.092,2.048,2.204,4.084,3.296,6.132c0.147,0.276,0.307,0.365,0.625,0.344c2.638-0.18,5.277-0.347,7.916-0.495
	c0.387-0.022,0.649-0.135,0.903-0.442c4.661-5.652,9.334-11.294,14.008-16.936c0.109-0.132,0.185-0.309,0.391-0.365
	c1.929,3.4,3.855,6.799,5.786,10.195c1.924,3.383,3.852,6.762,5.779,10.143c0.031-0.013,0.061-0.027,0.092-0.04
	c0-0.196,0-0.392,0-0.587c0-7.507,0-15.013,0-22.519c0-0.089-0.01-0.18,0.002-0.268c0.041-0.296-0.095-0.383-0.379-0.434
	c-2.951-0.531-5.899-1.079-8.847-1.625c-3.966-0.734-7.93-1.475-11.896-2.207c-4.159-0.768-8.32-1.526-12.479-2.294
	c-5.124-0.947-10.247-1.902-15.371-2.85c-4.422-0.819-8.845-1.633-13.267-2.449c-0.35-0.065-0.695-0.104-1.057-0.032
	c-1.207,0.241-2.419,0.46-3.629,0.688c-3.718,0.7-7.436,1.401-11.153,2.101c-3.911,0.737-7.821,1.474-11.732,2.209
	c-3.701,0.696-7.402,1.388-11.102,2.084c-3.315,0.623-6.629,1.247-9.944,1.871c-3.332,0.627-6.664,1.253-9.996,1.881
	c-1.105,0.208-2.207,0.431-3.315,0.62c-0.276,0.047-0.371,0.154-0.341,0.413c0.008,0.071,0.001,0.143,0.001,0.214
	c0,6.166,0,12.332,0,18.498c0,0.153,0,0.306,0,0.484c0.24-0.067,0.348-0.215,0.477-0.329c2.007-1.776,4.012-3.556,6.018-5.334
	c0.187-0.166,0.388-0.319,0.558-0.501c0.198-0.213,0.358-0.174,0.525,0.024c0.034,0.041,0.077,0.074,0.117,0.11
	c4.983,4.507,9.969,9.012,14.944,13.528c0.252,0.228,0.449,0.253,0.749,0.13c1.649-0.678,3.304-1.344,4.961-2.001
	c0.338-0.134,0.631-0.31,0.901-0.556c2.443-2.227,4.897-4.443,7.343-6.667c1.177-1.07,2.409-2.088,3.503-3.236
	c2.996-3.143,5.933-6.341,8.89-9.52c0.195-0.21,0.401-0.406,0.624-0.586c3.216-2.587,6.43-5.177,9.646-7.764
	C99.62,66.87,100.432,66.228,101.261,65.567z"/>
<path style="fill:#99C6E4;" d="M46.862,88.853c0.375,0.064,0.611,0.355,0.887,0.566c1.994,1.525,3.977,3.065,5.963,4.6
	c0.676,0.522,1.353,1.044,2.028,1.568c0.256,0.199,0.424,0.48,0.645,0.712c0.614,0.646,1.24,1.279,1.842,1.937
	c0.973,1.066,1.99,2.092,2.986,3.138c0.135,0.141,0.256,0.296,0.382,0.446c0.118,0.141,0.245,0.262,0.447,0.254
	c-0.051,0.119,0.007,0.198,0.088,0.28c0.249,0.256,0.478,0.533,0.741,0.774c0.472,0.433,0.772,0.958,1.011,1.549
	c0.848,2.102,1.726,4.192,2.595,6.286c0.094,0.228,0.173,0.451,0.424,0.589c1.613,0.883,3.218,1.78,4.823,2.677
	c0.181,0.101,0.349,0.121,0.558,0.086c0.88-0.145,1.765-0.266,2.648-0.392c2.264-0.324,4.541-0.533,6.826-0.595
	c1.821-0.05,3.642-0.052,5.463,0.076c2.23,0.156,4.439,0.44,6.615,0.958c0.62,0.148,1.238,0.306,1.918,0.475
	c-0.056-0.631-0.104-1.215-0.16-1.797c-0.162-1.688-0.324-3.377-0.494-5.064c-0.032-0.314,0.029-0.588,0.168-0.874
	c2.034-4.192,4.054-8.39,6.095-12.579c0.185-0.38,0.192-0.645-0.055-1.009c-1.866-2.749-3.7-5.519-5.56-8.271
	c-0.217-0.321-0.234-0.582-0.094-0.931c1.267-3.165,2.518-6.336,3.775-9.504c0.52-1.311,1.046-2.619,1.555-3.934
	c0.053-0.138,0.259-0.298,0.032-0.467c0.113-0.188,0.231-0.105,0.349-0.007c0.331,0.272,0.664,0.54,0.992,0.815
	c1.188,0.997,2.373,1.999,3.563,2.995c0.984,0.824,1.974,1.641,2.959,2.466c0.984,0.824,1.963,1.655,2.947,2.48
	c1.23,1.031,2.463,2.058,3.693,3.089c0.984,0.825,1.964,1.654,2.948,2.48c1.025,0.859,2.05,1.717,3.078,2.573
	c0.346,0.288,0.632,0.609,0.85,1.016c1.331,2.486,2.686,4.958,4.026,7.44c0.116,0.214,0.246,0.322,0.499,0.303
	c0.977-0.072,1.954-0.131,2.931-0.195c0.071-0.005,0.143-0.017,0.214-0.014c0.947,0.028,1.886-0.107,2.831-0.14
	c1.387-0.049,2.769-0.228,4.156-0.27c0.82-0.025,1.632-0.191,2.455-0.113c-0.031,0.128-0.131,0.21-0.21,0.305
	c-1.158,1.384-2.31,2.774-3.48,4.148c-0.983,1.156-1.908,2.36-3.01,3.416c-3.367,3.227-6.716,6.473-10.068,9.715
	c-0.103,0.1-0.284,0.168-0.238,0.383c0.077,0.005,0.146,0.012,0.215,0.012c2.128,0.016,4.246,0.183,6.36,0.419
	c2.823,0.316,5.621,0.782,8.394,1.397c1.546,0.343,3.099,0.497,4.681,0.34c0.366-0.036,0.613-0.162,0.823-0.483
	c1.144-1.75,2.309-3.485,3.475-5.22c0.156-0.233,0.237-0.462,0.218-0.747c-0.042-0.624-0.063-1.249-0.086-1.874
	c-0.055-1.5-0.1-3-0.164-4.499c-0.012-0.273,0.012-0.533,0.078-0.793c1.051-4.171,2.105-8.341,3.154-12.512
	c0.666-2.648,1.326-5.297,1.983-7.947c0.038-0.153,0.204-0.325-0.01-0.479c0.084-0.193,0.176-0.213,0.287-0.017
	c0.307,0.544,0.614,1.088,0.925,1.63c1.367,2.384,2.736,4.767,4.103,7.151c0.595,1.037,1.185,2.077,1.778,3.115
	c1.283,2.244,2.57,4.486,3.845,6.735c0.134,0.236,0.283,0.367,0.557,0.431c0.304,0.071,0.71,0.029,0.884,0.292
	c0.168,0.255,0.055,0.626,0.055,0.945c0.003,7.488-0.009,14.976,0.012,22.464c0.004,1.462-0.238,2.873-0.619,4.269
	c-0.703,2.578-1.752,5.019-2.997,7.375c-1.479,2.799-3.219,5.433-5.108,7.971c-0.242,0.325-0.254,0.338-0.605,0.14
	c-1.043-0.589-2.102-1.139-3.226-1.561c-1.83-0.687-3.718-1.007-5.667-0.854c-2.178,0.17-4.221,0.78-6.121,1.898
	c-1.923,1.132-3.895,2.181-5.975,3.007c-1.612,0.64-3.267,1.099-4.994,1.334c-1.863,0.254-3.727,0.342-5.601,0.289
	c-0.125-0.004-0.262,0.02-0.372-0.023c-0.422-0.164-0.714,0.027-1.002,0.303c-1.262,1.21-2.264,2.613-3.098,4.142
	c-1.127,2.065-1.911,4.261-2.51,6.529c-0.062,0.236-0.066,0.407,0.18,0.536c1.092,0.569,2.085,1.308,3.208,1.829
	c1.979,0.918,4.065,1.229,6.21,1.031c2.261-0.209,4.336-1.012,6.177-2.351c1.05-0.763,2.177-1.357,3.386-1.812
	c1.601-0.603,3.179-1.272,4.862-1.636c1.115-0.241,2.232-0.453,3.375-0.51c0.157-0.008,0.313-0.034,0.466-0.051
	c0.048,0.157-0.06,0.207-0.14,0.272c-0.539,0.441-1.024,0.942-1.541,1.408c-1.5,1.348-3.035,2.653-4.585,3.942
	c-2.154,1.791-4.36,3.515-6.609,5.185c-2.02,1.5-4.061,2.97-6.145,4.38c-0.695,0.47-1.394,0.934-2.078,1.419
	c-0.223,0.158-0.447,0.207-0.703,0.173c-1.845-0.247-3.635-0.711-5.371-1.382c-0.695-0.269-1.384-0.552-2.105-0.841
	c-0.053,0.348-0.129,0.656-0.128,0.977c0.003,0.911-0.057,1.828,0.016,2.733c0.089,1.105,0.01,2.214,0.129,3.314
	c0.031,0.284-0.171,0.335-0.319,0.427c-0.759,0.469-1.527,0.923-2.295,1.377c-0.352,0.208-0.71,0.404-1.065,0.606
	c-0.069-1.159-0.167-2.317-0.203-3.477c-0.132-4.272-0.08-8.538,0.49-12.785c0.366-2.731,0.904-5.422,1.757-8.044
	c0.974-2.993,2.304-5.806,4.264-8.295c1.002-1.272,2.145-2.373,3.533-3.24c2.618-1.634,5.364-2.981,8.288-3.967
	c4.352-1.468,8.835-2.143,13.415-2.248c1.892-0.044,3.726-0.377,5.469-1.139c2.673-1.168,4.628-3.118,6.076-5.609
	c1.474-2.535,2.282-5.301,2.789-8.167c0.34-1.92,0.501-3.858,0.588-5.805c0.098-2.183-0.012-4.357-0.18-6.532
	c-0.008-0.103-0.002-0.216-0.133-0.292c-0.167,0.291-0.324,0.589-0.505,0.872c-0.193,0.3-0.393,0.598-0.617,0.875
	c-2.453,3.035-5.548,5.174-9.19,6.529c-3.08,1.146-6.245,1.465-9.481,0.813c-1.522-0.306-3.039-0.633-4.57-0.897
	c-3.137-0.541-6.294-0.888-9.476-0.995c-2.271-0.076-4.535,0.017-6.794,0.277c-2.456,0.283-4.863,0.782-7.186,1.637
	c-2.453,0.903-4.729,2.106-6.577,4.008c-0.02,0.021-0.063,0.02-0.091,0.028c-0.343-0.316-0.673-0.644-1.028-0.941
	c-1.765-1.474-3.794-2.466-5.949-3.221c-3.405-1.192-6.935-1.661-10.519-1.787c-2.736-0.096-5.463,0.073-8.183,0.376
	c-2.806,0.312-5.585,0.782-8.34,1.393c-2.24,0.497-4.489,0.588-6.758,0.216c-5.984-0.981-11.745-5.333-13.709-9.214
	c-0.068,0.04-0.07,0.113-0.081,0.178c-0.021,0.123-0.04,0.247-0.049,0.372c-0.157,2.157-0.244,4.313-0.15,6.478
	c0.098,2.253,0.325,4.488,0.783,6.696c0.495,2.389,1.231,4.695,2.429,6.835c2.561,4.578,6.48,6.891,11.709,7.015
	c2.074,0.049,4.136,0.219,6.189,0.521c3.479,0.512,6.838,1.437,10.078,2.809c6.145,2.603,10.235,7.08,12.251,13.437
	c1.417,4.466,2.108,9.069,2.477,13.725c0.207,2.62,0.283,5.246,0.204,7.873c-0.044,1.482-0.141,2.962-0.214,4.442
	c-1.169-0.684-2.336-1.37-3.507-2.05c-0.16-0.093-0.227-0.214-0.206-0.395c0.18-1.513,0.068-3.032,0.096-4.548
	c0.014-0.75-0.005-1.501-0.017-2.251c-0.002-0.154,0.047-0.32-0.089-0.494c-0.237,0.089-0.483,0.18-0.728,0.273
	c-1.639,0.62-3.318,1.074-5.057,1.319c-0.939,0.133-1.875,0.212-2.822,0.215c-0.32,0.001-0.581-0.088-0.845-0.264
	c-3.361-2.231-6.638-4.578-9.851-7.016c-2.032-1.542-4.024-3.135-5.972-4.782c-1.28-1.082-2.557-2.17-3.787-3.311
	c-0.405-0.376-0.822-0.74-1.217-1.128c-0.084-0.083-0.213-0.142-0.209-0.296c2.355,0.047,4.678,0.286,6.935,0.999
	c1.282,0.405,2.482,0.991,3.662,1.626c1.948,1.049,3.863,2.171,5.985,2.851c1.344,0.43,2.716,0.694,4.129,0.815
	c2.664,0.228,5.022-0.592,7.245-1.954c0.304-0.186,0.592-0.4,0.901-0.578c0.193-0.112,0.208-0.229,0.159-0.438
	c-0.487-2.068-1.027-4.122-1.933-6.052c-0.677-1.444-1.546-2.773-2.635-3.948c-0.291-0.314-0.614-0.6-0.898-0.921
	c-0.315-0.356-0.635-0.487-1.156-0.435c-1.134,0.115-2.275-0.02-3.412-0.143c-1.01-0.109-2.011-0.256-3.009-0.444
	c-1.69-0.319-3.307-0.863-4.897-1.508c-1.925-0.781-3.71-1.833-5.541-2.797c-1.491-0.785-3.055-1.371-4.758-1.511
	c-0.584-0.048-1.153-0.214-1.748-0.204c-2.117,0.034-4.131,0.505-6.055,1.377c-1.026,0.465-2.007,1.014-2.962,1.61
	c-0.076,0.047-0.151,0.095-0.229,0.138c-0.376,0.206-0.383,0.21-0.641-0.122c-1.586-2.047-3.057-4.174-4.381-6.401
	c-1.26-2.121-2.376-4.314-3.261-6.619c-0.666-1.734-1.217-3.504-1.502-5.343c-0.081-0.524-0.139-1.057-0.138-1.596
	c0.01-6.004,0.006-12.008,0.006-18.012c0-0.321,0-0.642,0-0.964c0.143,0.045,0.238-0.051,0.336-0.122
	c1.789-1.304,3.575-2.612,5.367-3.913c0.187-0.136,0.28-0.285,0.307-0.523c0.106-0.94,0.242-1.876,0.359-2.814
	c0.264-2.124,0.606-4.239,0.729-6.381C46.697,90.416,46.705,89.627,46.862,88.853z"/>
<path style="fill:#018639;" d="M164.066,66.797c-1.36-0.251-2.641-0.486-3.921-0.722c-3.387-0.625-6.775-1.25-10.162-1.874
	c-3.581-0.66-7.162-1.318-10.742-1.977c-3.616-0.666-7.231-1.332-10.847-1.999c-3.58-0.661-7.16-1.324-10.741-1.985
	c-3.774-0.696-7.548-1.39-11.321-2.085c-1.615-0.297-3.23-0.592-4.844-0.896c-0.179-0.034-0.344-0.039-0.525-0.004
	c-6.296,1.188-12.593,2.373-18.89,3.553c-5.438,1.019-10.878,2.03-16.316,3.05c-6.385,1.198-12.768,2.404-19.153,3.605
	c-2.263,0.426-4.526,0.849-6.789,1.271c-0.068,0.013-0.139,0.008-0.206,0.011c-0.082-0.184-0.047-0.365-0.047-0.541
	c-0.002-12.279-0.002-24.558-0.002-36.837c0-0.071,0.011-0.145-0.002-0.214c-0.052-0.285,0.111-0.368,0.352-0.412
	c0.825-0.149,1.649-0.308,2.474-0.463c4.122-0.776,8.243-1.553,12.365-2.327c3.894-0.731,7.789-1.458,11.683-2.19
	c3.894-0.732,7.787-1.469,11.68-2.202c3.876-0.73,7.753-1.457,11.63-2.185c3.701-0.695,7.403-1.388,11.103-2.089
	c0.252-0.048,0.488-0.051,0.74-0.004c4.177,0.774,8.355,1.54,12.532,2.311c3.773,0.696,7.546,1.398,11.319,2.095
	c3.563,0.658,7.127,1.312,10.69,1.969c3.616,0.667,7.231,1.337,10.846,2.004c3.581,0.66,7.162,1.316,10.743,1.974
	c1.984,0.365,3.967,0.728,5.95,1.096c0.395,0.073,0.394,0.081,0.402,0.473c0.002,0.107,0,0.214,0,0.322c0,12.19,0,24.379,0,36.569
	C164.066,66.305,164.066,66.517,164.066,66.797z M144.36,30.093c-0.092,0.205-0.05,0.404-0.05,0.596
	c-0.002,8.434-0.002,16.867-0.002,25.301c0,0.107,0.01,0.215-0.002,0.321c-0.027,0.247,0.081,0.342,0.324,0.381
	c0.828,0.134,1.651,0.295,2.477,0.44c0.415,0.073,0.821,0.212,1.296,0.203c0-3.895,0-7.766,0-11.685
	c1.517,0.32,2.977,0.658,4.449,0.924c0.686,0.124,0.966,0.546,1.106,1.136c0.091,0.382,0.101,0.777,0.101,1.172
	c-0.004,3.02-0.002,6.039-0.002,9.059c0,0.125,0.006,0.251-0.001,0.375c-0.011,0.193,0.068,0.278,0.265,0.319
	c0.785,0.165,1.567,0.349,2.349,0.528c0.466,0.107,0.932,0.217,1.394,0.325c0.114-0.217,0.064-0.416,0.064-0.606
	c0.004-3.02,0.003-6.039,0.002-9.059c-0.001-1.876-0.767-3.379-2.217-4.55c-0.093-0.075-0.216-0.119-0.282-0.263
	c0.279-0.155,0.589-0.246,0.851-0.434c0.963-0.691,1.392-1.665,1.413-2.81c0.031-1.661,0.012-3.323,0.005-4.984
	c-0.001-0.248-0.035-0.5-0.081-0.745c-0.375-1.983-1.999-3.687-3.812-4.061c-2.725-0.563-5.447-1.147-8.183-1.654
	C145.341,30.232,144.859,30.094,144.36,30.093z M49.464,32.017c-1.131,0.261-2.224,0.513-3.318,0.766
	c-0.601,0.139-0.601,0.14-0.601,0.75c0,8.168,0,16.336,0,24.503c0,0.089,0.007,0.179-0.001,0.268
	c-0.024,0.251,0.075,0.451,0.241,0.629c0.347,0.372,0.747,0.493,1.257,0.373c1.876-0.441,3.752-0.883,5.644-1.248
	c0.436-0.084,0.796-0.294,1.116-0.597c0.389-0.369,0.608-0.82,0.755-1.33c2.455-8.484,4.918-16.966,7.374-25.451
	c0.103-0.355,0.248-0.702,0.279-1.069c-0.099-0.065-0.189-0.048-0.275-0.032c-1.072,0.19-2.14,0.407-3.217,0.562
	c-0.424,0.061-0.586,0.242-0.695,0.641c-1.826,6.697-3.668,13.389-5.507,20.083c-0.25,0.912-0.513,1.821-0.744,2.738
	c-0.108,0.428-0.314,0.688-0.777,0.73c-0.264,0.024-0.523,0.112-0.785,0.164c-0.727,0.144-0.698,0.246-0.698-0.552
	c-0.001-7.078,0-14.155-0.002-21.233C49.511,32.501,49.543,32.285,49.464,32.017z M77.22,30.07c0.154,0.091,0.156,0.184,0.172,0.27
	c0.15,0.77,0.298,1.541,0.45,2.311c0.573,2.905,1.147,5.81,1.721,8.715c0.084,0.426,0.086,0.433,0.515,0.397
	c1.032-0.086,2.063-0.177,3.094-0.272c0.548-0.051,0.548-0.057,0.548-0.623c0-4.412,0-8.825,0-13.237
	c0-0.107-0.008-0.215,0.001-0.321c0.02-0.234-0.074-0.317-0.311-0.293c-0.497,0.051-0.997,0.073-1.495,0.123
	c-0.555,0.056-0.555,0.063-0.555,0.628c0,3.626,0,7.253,0,10.879c0,0.157,0,0.313,0,0.47c-0.122-0.115-0.166-0.229-0.189-0.347
	c-0.293-1.506-0.58-3.013-0.875-4.519c-0.425-2.171-0.861-4.34-1.274-6.513c-0.054-0.282-0.161-0.35-0.423-0.321
	c-1.136,0.125-2.272,0.241-3.409,0.355c-0.233,0.023-0.369,0.11-0.333,0.37c0.012,0.088,0.002,0.178,0.002,0.268
	c0,4.412,0,8.825,0,13.237c0,0.107,0.006,0.215-0.001,0.321c-0.014,0.217,0.091,0.28,0.293,0.259
	c0.55-0.057,1.103-0.098,1.652-0.161c0.41-0.047,0.413-0.058,0.414-0.502c0.002-1.376,0.001-2.751,0.001-4.127
	C77.22,34.992,77.22,32.547,77.22,30.07z M98.626,32.617c0,1.572-0.005,3.145,0.002,4.717c0.007,1.5,1.094,2.6,2.599,2.624
	c0.911,0.015,1.822,0.006,2.733,0.002c1.626-0.007,2.645-1.319,2.63-2.657c-0.034-3.126-0.032-6.254-0.002-9.38
	c0.014-1.481-1.226-2.755-2.721-2.691c-0.838,0.036-1.681,0.04-2.518-0.001c-1.591-0.077-2.773,1.268-2.733,2.723
	C98.66,29.508,98.626,31.063,98.626,32.617z M68.812,43.263c0.713-0.099,1.362-0.207,2.014-0.27c0.287-0.028,0.372-0.146,0.34-0.403
	c-0.002-0.018,0-0.036,0-0.054c0-4.357-0.011-8.713,0.015-13.07c0.003-0.526-0.431-0.922-0.912-0.848
	c-1.04,0.159-2.082,0.311-3.127,0.43c-0.74,0.084-1.119,0.479-1.33,1.179c-1.366,4.541-2.758,9.074-4.14,13.61
	c-0.049,0.16-0.082,0.324-0.137,0.541c0.697-0.113,1.325-0.24,1.96-0.308c0.311-0.033,0.419-0.179,0.494-0.447
	c0.238-0.859,0.504-1.71,0.74-2.569c0.066-0.241,0.171-0.354,0.427-0.385c0.584-0.071,1.162-0.191,1.746-0.261
	c0.616-0.075,1.225-0.221,1.911-0.237C68.812,41.207,68.812,42.217,68.812,43.263z M110.092,32.261c0,1.894-0.005,3.788,0.001,5.683
	c0.005,1.463,1.026,2.619,2.473,2.743c1.031,0.088,2.069,0.126,3.104,0.133c1.134,0.008,2.042-0.774,2.293-1.883
	c0.072-0.319,0.072-0.638,0.072-0.959c0.001-3.681,0.001-7.362,0.001-11.044c0-0.107-0.005-0.215,0-0.322
	c0.009-0.173-0.051-0.261-0.24-0.271c-0.624-0.032-1.248-0.071-1.872-0.118c-0.218-0.016-0.284,0.08-0.272,0.279
	c0.009,0.142,0.001,0.286,0.001,0.429c0,3.61,0,7.219,0,10.829c0,0.143-0.001,0.286-0.004,0.429c-0.005,0.197-0.1,0.286-0.304,0.276
	c-0.856-0.044-1.713-0.083-2.569-0.121c-0.222-0.01-0.32-0.123-0.315-0.341c0.003-0.143-0.001-0.286-0.001-0.429
	c0-3.61,0-7.219,0-10.829c0-0.125-0.011-0.251,0.002-0.375c0.028-0.26-0.089-0.344-0.338-0.344c-0.464,0-0.929-0.02-1.393-0.037
	c-0.639-0.024-0.639-0.026-0.639,0.642C110.091,28.508,110.091,30.384,110.092,32.261z M89.744,33.409c0-0.286,0-0.572,0-0.857
	c0-1.233-0.003-2.465,0.002-3.698c0.002-0.438,0.031-0.469,0.44-0.49c0.767-0.039,1.534-0.072,2.301-0.097
	c0.431-0.014,0.456,0.014,0.463,0.445c0.008,0.572,0.008,1.143,0,1.715c-0.003,0.212,0.037,0.332,0.289,0.322
	c0.589-0.025,1.178-0.037,1.767-0.038c0.271,0,0.321-0.136,0.318-0.37c-0.01-0.625,0-1.25-0.004-1.876
	c-0.01-1.53-1.075-2.583-2.616-2.561c-0.875,0.013-1.749,0.064-2.623,0.102c-1.576,0.069-2.707,1.226-2.711,2.803
	c-0.009,3.162-0.003,6.324-0.002,9.485c0,0.214,0.008,0.426,0.062,0.637c0.3,1.164,1.299,1.899,2.551,1.861
	c0.678-0.021,1.356-0.059,2.033-0.085c0.392-0.015,0.785-0.015,1.173-0.093c1.167-0.235,2.086-1.263,2.124-2.44
	c0.029-0.91-0.002-1.822,0.014-2.733c0.005-0.28-0.114-0.324-0.353-0.313c-0.535,0.025-1.071,0.023-1.607,0.042
	c-0.404,0.014-0.41,0.021-0.412,0.429c-0.004,0.75,0.004,1.501-0.004,2.251c-0.004,0.394-0.038,0.429-0.424,0.447
	c-0.749,0.035-1.499,0.058-2.248,0.086c-0.524,0.02-0.531,0.017-0.532-0.526C89.742,36.374,89.744,34.891,89.744,33.409z
	 M120.827,27.077c0.136,0.831,0.256,1.57,0.378,2.309c0.448,2.712,0.896,5.424,1.346,8.136c0.198,1.198,0.39,2.396,0.602,3.591
	c0.103,0.579,0.399,0.823,0.98,0.876c0.267,0.024,0.534,0.043,0.8,0.07c0.782,0.079,1.563,0.166,2.345,0.238
	c0.562,0.052,0.863-0.171,0.958-0.689c0.074-0.404,0.138-0.809,0.207-1.214c0.486-2.869,0.97-5.738,1.457-8.606
	c0.188-1.109,0.383-2.216,0.569-3.325c0.068-0.406,0.056-0.425-0.343-0.476c-0.567-0.071-1.137-0.116-1.704-0.189
	c-0.229-0.03-0.271,0.084-0.296,0.268c-0.077,0.566-0.161,1.131-0.249,1.696c-0.484,3.122-0.972,6.244-1.454,9.367
	c-0.126,0.818-0.118,0.82-0.925,0.737c-0.424-0.044-0.433-0.042-0.496-0.467c-0.285-1.943-0.564-3.887-0.844-5.831
	c-0.288-1.997-0.578-3.993-0.86-5.991c-0.026-0.182-0.073-0.3-0.279-0.316C122.311,27.205,121.603,27.142,120.827,27.077z
	 M140.259,44.084c0-0.755-0.003-1.448,0.002-2.141c0.001-0.232-0.156-0.238-0.322-0.262c-1.218-0.18-2.435-0.367-3.653-0.546
	c-0.465-0.068-0.47-0.062-0.471-0.516c-0.003-1-0.003-2.001,0.002-3.001c0.001-0.134-0.049-0.286,0.091-0.406
	c1.158,0.171,2.322,0.345,3.487,0.514c0.393,0.057,0.398,0.051,0.401-0.359c0.004-0.482,0.002-0.965,0-1.447
	c-0.002-0.494-0.003-0.496-0.477-0.567c-1.023-0.153-2.047-0.303-3.071-0.457c-0.428-0.064-0.432-0.068-0.433-0.495
	c-0.003-0.875-0.003-1.751,0-2.626c0.002-0.433,0.008-0.44,0.457-0.38c0.583,0.079,1.165,0.169,1.748,0.257
	c0.732,0.11,1.463,0.223,2.241,0.341c0-0.677,0.002-1.299-0.001-1.922c-0.002-0.434-0.005-0.439-0.426-0.503
	c-1.623-0.248-3.244-0.504-4.87-0.73c-0.485-0.067-0.971-0.193-1.509-0.146c0,0.163,0,0.303,0,0.443c0,4.483,0,8.967,0,13.45
	c0,0.089,0.005,0.179,0,0.268c-0.008,0.149,0.053,0.236,0.205,0.256c0.124,0.017,0.246,0.042,0.37,0.06
	c1.165,0.169,2.331,0.336,3.496,0.507C138.408,43.807,139.29,43.94,140.259,44.084z M68.062,53.713
	c0.377,0.679,0.895,0.821,1.512,0.724c0.141-0.022,0.283-0.039,0.424-0.063c1.089-0.188,1.581-0.764,1.582-1.861
	c0.002-1.839,0-3.679,0-5.518c0-0.693,0-0.693-0.711-0.609c-0.035,0.004-0.071,0.006-0.107,0.01c-0.442,0.05-0.446,0.05-0.446,0.519
	c-0.002,1.822-0.001,3.643-0.001,5.465c0,0.691,0,0.691-0.681,0.764c-0.036,0.004-0.071,0.008-0.107,0.01
	c-0.464,0.033-0.741-0.182-0.812-0.647c-0.024-0.158-0.017-0.321-0.017-0.481c-0.001-1.482,0.004-2.965-0.005-4.447
	c-0.002-0.278,0.131-0.637-0.081-0.816c-0.188-0.159-0.512,0.03-0.776,0.058c-0.401,0.042-0.407,0.052-0.407,0.445
	c-0.003,1.482-0.001,2.965-0.001,4.447c0,0.286,0.011,0.572-0.004,0.857c-0.027,0.509-0.325,0.907-0.748,0.991
	c-0.259,0.052-0.526,0.066-0.784,0.097c-0.106-0.207-0.061-0.407-0.061-0.6c-0.004-1.714-0.002-3.429-0.002-5.143
	c0-0.825,0-0.825-0.82-0.681c-0.439,0.077-0.443,0.077-0.443,0.529c-0.001,1.929,0,3.858-0.001,5.786
	c0,0.179,0.004,0.355,0.05,0.531c0.132,0.504,0.507,0.881,1.02,0.872C66.594,54.935,67.559,54.873,68.062,53.713z M125.723,49.263
	c0.591-0.496,0.665-0.653,0.668-1.368c0.001-0.304,0.003-0.607,0-0.911c-0.011-0.918-0.463-1.423-1.377-1.523
	c-0.781-0.085-1.563-0.157-2.345-0.228c-0.467-0.042-0.472-0.037-0.472,0.434c-0.002,2.161-0.001,4.323-0.001,6.484
	c0,0.833,0,0.833,0.813,0.883c0.425,0.026,0.428,0.026,0.43-0.42c0.003-0.875,0.005-1.751-0.001-2.626
	c-0.002-0.226,0.065-0.332,0.311-0.296c0.3,0.044,0.604,0.059,0.905,0.1c0.456,0.063,0.511,0.116,0.518,0.571
	c0.011,0.679,0.003,1.358,0.003,2.036c0,0.905,0,0.905,0.919,0.957c0.338,0.019,0.345,0.019,0.347-0.344
	c0.005-0.714-0.02-1.43,0.008-2.143C126.472,50.219,126.328,49.664,125.723,49.263z M94.76,51.792
	c-0.068-0.411-0.132-0.797-0.195-1.183c-0.322-1.969-0.643-3.939-0.967-5.908c-0.077-0.469-0.185-0.559-0.679-0.549
	c-0.481,0.009-0.963,0.029-1.443,0.057c-0.578,0.034-0.666,0.118-0.757,0.683c-0.333,2.076-0.668,4.152-0.995,6.228
	c-0.153,0.97-0.147,0.961,0.834,0.874c0.237-0.021,0.301-0.126,0.326-0.324c0.041-0.336,0.089-0.671,0.138-1.006
	c0.057-0.385,0.059-0.387,0.47-0.399c0.374-0.011,0.749-0.017,1.123-0.026c0.636-0.015,0.636-0.015,0.736,0.627
	c0.051,0.329-0.027,0.773,0.221,0.949c0.265,0.188,0.689,0.043,1.043,0.033C94.648,51.847,94.68,51.824,94.76,51.792z
	 M82.813,44.911c-0.26,0.025-0.508,0.056-0.756,0.073c-0.458,0.031-0.455-0.015-0.454,0.5c0.002,0.697-0.002,1.394,0.002,2.091
	c0.001,0.187-0.043,0.301-0.261,0.314c-0.374,0.022-0.748,0.061-1.12,0.106c-0.217,0.026-0.282-0.063-0.28-0.266
	c0.006-0.608,0.007-1.215,0-1.823c-0.009-0.806,0.125-0.726-0.705-0.68c-0.557,0.031-0.558,0.039-0.558,0.581
	c-0.001,2.234,0,4.467,0,6.701c0,0.107,0.003,0.214,0.001,0.322c-0.004,0.162,0.074,0.224,0.232,0.205
	c0.089-0.011,0.178-0.012,0.267-0.02c0.764-0.07,0.764-0.07,0.764-0.82c0-0.858,0.007-1.716-0.004-2.573
	c-0.003-0.238,0.056-0.366,0.315-0.38c0.436-0.025,0.872-0.07,1.348-0.109c0,0.999,0,1.925,0,2.852c0,0.786,0,0.786,0.786,0.73
	c0.489-0.035,0.492-0.035,0.492-0.523c0.001-2.269,0.001-4.539-0.001-6.808C82.879,45.242,82.912,45.096,82.813,44.911z
	 M133.165,51.739c0,0.461-0.003,0.887,0.001,1.312c0.008,0.878,0.554,1.534,1.415,1.686c0.456,0.081,0.916,0.152,1.376,0.203
	c0.707,0.078,1.262-0.392,1.308-1.098c0.017-0.267,0.004-0.535,0.007-0.803c0.013-1.243-0.525-2.193-1.531-2.899
	c-0.277-0.194-0.55-0.397-0.811-0.612c-0.36-0.295-0.485-0.686-0.449-1.146c0.016-0.2,0.073-0.302,0.289-0.269
	c0.318,0.047,0.636,0.085,0.954,0.132c0.127,0.019,0.287,0.064,0.298,0.19c0.032,0.359,0.31,0.337,0.539,0.383
	c0.24,0.048,0.485,0.07,0.729,0.103c0.071-0.8-0.42-1.642-1.116-1.831c-0.583-0.158-1.188-0.259-1.795-0.264
	c-0.604-0.005-1.041,0.4-1.126,1.007c-0.166,1.176,0.178,2.148,1.167,2.858c0.29,0.208,0.573,0.426,0.852,0.647
	c0.694,0.548,0.813,1.305,0.756,2.122c-0.011,0.155-0.084,0.222-0.245,0.195c-0.352-0.06-0.703-0.129-1.057-0.164
	c-0.235-0.023-0.298-0.135-0.292-0.348c0.009-0.339-0.003-0.679,0.004-1.018c0.003-0.174-0.061-0.254-0.24-0.277
	C133.877,51.805,133.563,51.737,133.165,51.739z M111.642,48.132c0,1.143-0.002,2.287,0.001,3.43
	c0.001,0.423,0.005,0.434,0.438,0.464c0.802,0.055,1.604,0.111,2.407,0.137c1.006,0.032,0.827,0.217,0.841-0.861
	c0.005-0.367-0.011-0.369-0.398-0.391c-0.588-0.035-1.177-0.069-1.765-0.098c-0.166-0.008-0.264-0.057-0.261-0.249
	c0.008-0.536,0.005-1.072,0.002-1.608c-0.001-0.16,0.072-0.224,0.228-0.218c0.339,0.013,0.679,0.039,1.017,0.026
	c0.292-0.011,0.679,0.214,0.849-0.04c0.142-0.213,0.033-0.588,0.053-0.89c0.015-0.22-0.091-0.271-0.284-0.279
	c-0.517-0.02-1.034-0.064-1.552-0.08c-0.223-0.007-0.322-0.077-0.315-0.313c0.013-0.428,0.011-0.858,0.001-1.286
	c-0.005-0.221,0.097-0.272,0.294-0.261c0.428,0.026,0.857,0.032,1.285,0.057c0.861,0.052,0.861,0.055,0.849-0.783
	c-0.006-0.436-0.005-0.452-0.427-0.48c-0.945-0.061-1.89-0.108-2.836-0.151c-0.42-0.019-0.425-0.007-0.426,0.444
	C111.641,45.845,111.642,46.989,111.642,48.132z M101.414,47.628c0,1.161-0.003,2.322,0.001,3.483
	c0.001,0.404,0.009,0.408,0.419,0.413c0.768,0.009,1.536,0.009,2.303,0.019c0.989,0.014,0.977,0.017,0.938-0.953
	c-0.011-0.276-0.125-0.322-0.36-0.319c-0.535,0.008-1.071-0.006-1.607-0.006c-0.463,0-0.431,0.012-0.431-0.441
	c0-1.75,0.008-3.5-0.003-5.251c-0.006-0.984,0.172-0.826-0.846-0.838c-0.406-0.005-0.413,0.006-0.414,0.41
	C101.412,45.307,101.414,46.467,101.414,47.628z"/>
<path style="fill:#081D41;" d="M93.896,180.249c0.073-1.481,0.169-2.961,0.214-4.442c0.079-2.627,0.004-5.253-0.204-7.873
	c-0.369-4.657-1.061-9.26-2.477-13.725c-2.016-6.356-6.106-10.834-12.251-13.437c-3.239-1.372-6.599-2.297-10.078-2.809
	c-2.053-0.302-4.115-0.472-6.189-0.521c-5.229-0.124-9.148-2.437-11.709-7.015c-1.197-2.14-1.934-4.446-2.429-6.835
	c-0.457-2.208-0.685-4.443-0.783-6.696c-0.094-2.165-0.007-4.321,0.15-6.478c0.009-0.124,0.028-0.248,0.049-0.372
	c0.011-0.065,0.014-0.137,0.081-0.178c1.963,3.881,7.725,8.233,13.709,9.214c2.269,0.372,4.517,0.281,6.758-0.216
	c2.755-0.611,5.534-1.081,8.34-1.393c2.721-0.303,5.447-0.472,8.183-0.376c3.584,0.125,7.114,0.594,10.519,1.787
	c2.155,0.755,4.184,1.747,5.949,3.221c0.356,0.297,0.685,0.626,1.028,0.941c0.028-0.008,0.071-0.007,0.091-0.028
	c1.847-1.902,4.124-3.105,6.577-4.008c2.323-0.855,4.73-1.354,7.186-1.637c2.259-0.261,4.524-0.353,6.794-0.277
	c3.181,0.107,6.339,0.454,9.476,0.995c1.53,0.264,3.048,0.591,4.57,0.897c3.236,0.652,6.401,0.333,9.481-0.813
	c3.642-1.355,6.738-3.495,9.19-6.529c0.224-0.277,0.425-0.575,0.617-0.875c0.181-0.282,0.338-0.581,0.505-0.872
	c0.131,0.076,0.125,0.189,0.133,0.292c0.169,2.174,0.278,4.349,0.18,6.532c-0.087,1.947-0.249,3.885-0.588,5.805
	c-0.507,2.866-1.315,5.632-2.789,8.167c-1.448,2.491-3.403,4.441-6.076,5.609c-1.743,0.762-3.577,1.095-5.469,1.139
	c-4.58,0.105-9.063,0.78-13.415,2.248c-2.924,0.986-5.67,2.333-8.288,3.967c-1.389,0.867-2.531,1.967-3.533,3.24
	c-1.959,2.489-3.29,5.302-4.264,8.295c-0.853,2.622-1.39,5.314-1.757,8.044c-0.57,4.247-0.622,8.513-0.49,12.785
	c0.036,1.16,0.134,2.318,0.203,3.477c-1.122,0.721-2.289,1.363-3.446,2.023c-1.451,0.828-2.913,1.638-4.373,2.45
	c-0.169,0.094-0.326,0.219-0.526,0.249c0.019-0.229,0.049-0.459,0.055-0.689c0.053-2.106-0.021-4.211,0.095-6.318
	c0.114-2.066-0.011-4.139,0.107-6.21c0.115-2.03-0.008-4.068,0.107-6.103c0.114-2.013-0.009-4.032,0.108-6.049
	c0.114-1.977,0.017-3.96,0.101-5.942c0.099-2.335,0.023-4.676,0.128-7.014c0.035-0.785,0.01-1.572,0.02-2.359
	c0.001-0.111-0.069-0.251,0.084-0.336c0.044,0.029,0.095,0.051,0.131,0.087c1.427,1.411,1.951,3.238,2.345,5.123
	c0.041,0.198-0.058,0.292-0.267,0.297c-0.219,0.006-0.453-0.069-0.707,0.087c0.786,1.034,1.584,2.009,2.453,3.023
	c0.127-1.288-0.026-2.458-0.214-3.617c-0.294-1.81-0.718-3.596-1.205-5.364c-0.924-3.353-1.985-6.664-3.167-9.934
	c-0.103-0.286-0.175-0.592-0.404-0.903c-0.486,1.378-0.971,2.68-1.403,4c-0.571,1.745-1.123,3.497-1.642,5.258
	c-0.488,1.656-0.918,3.329-1.281,5.019c-0.262,1.219-0.456,2.448-0.602,3.684c-0.069,0.585-0.072,1.186,0.023,1.888
	c0.862-1.091,1.71-2.051,2.522-3.149c-0.182,0-0.252,0-0.323,0c-0.781,0-0.796-0.003-0.631-0.771
	c0.314-1.46,0.813-2.845,1.715-4.058c0.194-0.261,0.389-0.53,0.742-0.684c0,0.247,0.003,0.443,0,0.639
	c-0.051,2.749-0.024,5.498-0.07,8.248c-0.122,7.234,0.035,14.47-0.118,21.704c-0.071,3.358-0.018,6.719-0.027,10.079
	c0,0.19,0.062,0.396-0.085,0.566c-0.807-0.374-1.567-0.835-2.344-1.265C97.281,182.21,95.575,181.254,93.896,180.249z
	 M111.745,150.867c0.103,0.009,0.142-0.049,0.178-0.111c0.277-0.478,0.546-0.962,0.832-1.435c1.23-2.035,2.625-3.952,4.233-5.704
	c1.111-1.21,2.31-2.331,3.624-3.327c2.548-1.932,5.364-3.309,8.448-4.144c1.685-0.457,3.395-0.769,5.13-0.982
	c1.361-0.167,2.726-0.262,4.089-0.378c0.992-0.085,1.988-0.137,2.981-0.221c1.118-0.094,2.227-0.231,3.329-0.441
	c2.057-0.391,3.84-1.302,5.327-2.773c1.307-1.293,2.303-2.802,3.075-4.47c0.813-1.758,1.368-3.59,1.753-5.484
	c0.209-1.03,0.374-2.067,0.477-3.108c0.072-0.72,0.222-1.447,0.113-2.193c-0.022,0.024-0.042,0.035-0.044,0.049
	c-0.199,1.626-0.687,3.152-1.479,4.592c-0.814,1.481-1.936,2.698-3.2,3.78c-1.402,1.2-2.99,2.122-4.662,2.904
	c-1.783,0.834-3.635,1.464-5.529,1.984c-1.614,0.444-3.253,0.771-4.903,1.046c-0.824,0.137-1.654,0.239-2.483,0.341
	c-1.024,0.125-2.059,0.179-3.072,0.36c-2.612,0.465-5.113,1.257-7.43,2.593c-2.225,1.283-4.127,2.935-5.724,4.931
	c-1.435,1.793-2.559,3.776-3.403,5.916C112.603,146.618,112.025,148.702,111.745,150.867z M93.429,150.868
	c0.083-0.092,0.059-0.182,0.047-0.262c-0.215-1.41-0.532-2.796-0.964-4.156c-0.717-2.258-1.706-4.39-3.025-6.356
	c-1.169-1.741-2.559-3.286-4.206-4.602c-1.633-1.304-3.424-2.322-5.363-3.08c-2.39-0.935-4.891-1.388-7.437-1.605
	c-0.941-0.08-1.874-0.217-2.802-0.369c-1.632-0.266-3.253-0.598-4.851-1.034c-1.826-0.498-3.618-1.092-5.336-1.887
	c-1.788-0.827-3.474-1.816-4.977-3.108c-1.766-1.519-3.135-3.306-3.914-5.521c-0.258-0.735-0.437-1.491-0.61-2.253
	c-0.031,0.071-0.042,0.138-0.044,0.206c-0.03,0.931,0.11,1.85,0.245,2.764c0.295,1.993,0.737,3.953,1.459,5.843
	c0.851,2.227,2.024,4.233,3.731,5.93c1.61,1.601,3.553,2.46,5.747,2.846c1.614,0.284,3.249,0.389,4.878,0.522
	c0.957,0.078,1.916,0.148,2.875,0.213c1.28,0.087,2.548,0.25,3.815,0.439c1.517,0.227,3.008,0.563,4.469,1.026
	c2.016,0.64,3.923,1.523,5.717,2.643c1.688,1.054,3.202,2.331,4.603,3.732c0.564,0.564,1.113,1.154,1.62,1.779
	c1.046,1.289,2.051,2.606,2.93,4.016C92.506,149.345,92.963,150.105,93.429,150.868z M49.912,115.761
	c-0.078,0.099-0.052,0.188-0.055,0.271c-0.002,0.063-0.013,0.132,0.047,0.181c0.062-0.075,0.035-0.164,0.036-0.246
	C49.939,115.905,49.924,115.844,49.912,115.761z"/>
<path style="fill:#081D41;" d="M101.261,65.567c-0.829,0.661-1.641,1.303-2.448,1.952c-3.216,2.587-6.43,5.176-9.646,7.764
	c-0.223,0.18-0.429,0.376-0.624,0.586c-2.958,3.179-5.895,6.378-8.89,9.52c-1.095,1.148-2.327,2.167-3.503,3.236
	c-2.446,2.224-4.9,4.44-7.343,6.667c-0.27,0.246-0.563,0.422-0.901,0.556c-1.658,0.657-3.312,1.323-4.961,2.001
	c-0.299,0.123-0.497,0.099-0.749-0.13c-4.975-4.516-9.961-9.021-14.944-13.528c-0.04-0.036-0.083-0.069-0.117-0.11
	c-0.167-0.198-0.326-0.237-0.525-0.024c-0.17,0.182-0.371,0.335-0.558,0.501c-2.005,1.779-4.01,3.558-6.018,5.334
	c-0.128,0.113-0.236,0.261-0.477,0.329c0-0.178,0-0.331,0-0.484c0-6.166,0-12.332,0-18.498c0-0.071,0.007-0.144-0.001-0.214
	c-0.03-0.259,0.065-0.366,0.341-0.413c1.108-0.189,2.21-0.412,3.315-0.62c3.332-0.627,6.664-1.254,9.996-1.881
	c3.315-0.624,6.629-1.248,9.944-1.871c3.701-0.695,7.402-1.388,11.102-2.084c3.911-0.735,7.822-1.472,11.732-2.209
	c3.718-0.7,7.436-1.401,11.153-2.101c1.21-0.228,2.422-0.446,3.629-0.688c0.362-0.072,0.707-0.033,1.057,0.032
	c4.423,0.816,8.845,1.63,13.267,2.449c5.124,0.948,10.247,1.903,15.371,2.85c4.159,0.769,8.32,1.526,12.479,2.294
	c3.966,0.732,7.931,1.472,11.896,2.207c2.948,0.546,5.896,1.094,8.847,1.625c0.285,0.051,0.421,0.138,0.379,0.434
	c-0.012,0.088-0.002,0.178-0.002,0.268c0,7.507,0,15.013,0,22.519c0,0.196,0,0.392,0,0.587c-0.031,0.013-0.061,0.027-0.092,0.04
	c-1.926-3.381-3.855-6.761-5.779-10.143c-1.931-3.396-3.857-6.795-5.786-10.195c-0.207,0.056-0.282,0.233-0.391,0.365
	c-4.673,5.642-9.347,11.284-14.008,16.936c-0.254,0.308-0.516,0.421-0.903,0.442c-2.64,0.149-5.278,0.315-7.916,0.495
	c-0.319,0.022-0.478-0.068-0.625-0.344c-1.092-2.048-2.205-4.084-3.296-6.132c-0.149-0.279-0.35-0.487-0.584-0.683
	c-7.029-5.884-14.056-11.77-21.083-17.656C102.823,66.898,102.051,66.236,101.261,65.567z"/>
<path style="fill:#081D41;" d="M101.013,70.407c0.227,0.169,0.021,0.33-0.032,0.467c-0.509,1.315-1.035,2.623-1.555,3.934
	c-1.257,3.169-2.508,6.34-3.775,9.504c-0.14,0.349-0.123,0.611,0.094,0.931c1.861,2.752,3.695,5.522,5.56,8.271
	c0.247,0.364,0.24,0.629,0.055,1.009c-2.041,4.188-4.061,8.387-6.095,12.579c-0.138,0.285-0.199,0.56-0.168,0.874
	c0.171,1.687,0.332,3.376,0.494,5.064c0.056,0.583,0.104,1.166,0.16,1.797c-0.68-0.169-1.297-0.327-1.918-0.475
	c-2.176-0.518-4.385-0.802-6.615-0.958c-1.821-0.128-3.643-0.126-5.463-0.076c-2.286,0.063-4.562,0.271-6.826,0.595
	c-0.883,0.126-1.768,0.247-2.648,0.392c-0.209,0.034-0.377,0.015-0.558-0.086c-1.605-0.897-3.21-1.794-4.823-2.677
	c-0.251-0.138-0.33-0.361-0.424-0.589c-0.869-2.094-1.747-4.184-2.595-6.286c-0.239-0.591-0.539-1.117-1.011-1.549
	c-0.263-0.241-0.492-0.518-0.741-0.774c-0.08-0.083-0.139-0.162-0.088-0.28c2.099-0.846,4.179-1.742,6.303-2.52
	c1.454-0.532,2.673-1.335,3.802-2.387c3.006-2.799,6.067-5.538,9.121-8.286c1.265-1.138,2.372-2.424,3.534-3.659
	c2.105-2.236,4.191-4.491,6.283-6.74c0.183-0.197,0.38-0.376,0.589-0.544c3.047-2.45,6.092-4.903,9.138-7.356
	C100.881,70.527,100.946,70.466,101.013,70.407z"/>
<path style="fill:#081D41;" d="M151.619,80.904c0.214,0.154,0.048,0.326,0.01,0.479c-0.657,2.65-1.317,5.3-1.983,7.947
	c-1.049,4.171-2.102,8.341-3.154,12.512c-0.066,0.26-0.09,0.52-0.078,0.793c0.064,1.499,0.109,3,0.164,4.499
	c0.023,0.625,0.044,1.25,0.086,1.874c0.019,0.284-0.062,0.514-0.218,0.747c-1.166,1.735-2.331,3.471-3.475,5.22
	c-0.21,0.321-0.457,0.447-0.823,0.483c-1.582,0.157-3.135,0.003-4.681-0.34c-2.773-0.615-5.57-1.081-8.394-1.397
	c-2.114-0.236-4.232-0.403-6.36-0.419c-0.069-0.001-0.138-0.008-0.215-0.012c-0.047-0.215,0.135-0.284,0.238-0.383
	c3.352-3.242,6.701-6.489,10.068-9.715c1.102-1.056,2.026-2.26,3.01-3.416c1.17-1.374,2.322-2.764,3.48-4.148
	c0.079-0.095,0.179-0.177,0.21-0.305c0.132-0.067,0.209-0.191,0.3-0.299c3.908-4.663,7.815-9.326,11.722-13.99
	C151.559,80.993,151.588,80.948,151.619,80.904z"/>
<path style="fill:#018639;" d="M101.336,184.422c0.147-0.17,0.085-0.377,0.085-0.566c0.008-3.36-0.044-6.721,0.027-10.079
	c0.153-7.235-0.004-14.471,0.118-21.704c0.046-2.75,0.019-5.499,0.07-8.248c0.004-0.196,0-0.392,0-0.639
	c-0.353,0.154-0.548,0.424-0.742,0.684c-0.901,1.212-1.401,2.598-1.715,4.058c-0.165,0.768-0.15,0.771,0.631,0.771
	c0.071,0,0.141,0,0.323,0c-0.811,1.098-1.66,2.059-2.522,3.149c-0.095-0.702-0.092-1.303-0.023-1.888
	c0.146-1.235,0.341-2.464,0.602-3.684c0.363-1.69,0.793-3.363,1.281-5.019c0.519-1.761,1.07-3.513,1.642-5.258
	c0.432-1.32,0.917-2.622,1.403-4c0.229,0.311,0.3,0.618,0.404,0.903c1.183,3.271,2.243,6.581,3.167,9.934
	c0.487,1.768,0.911,3.554,1.205,5.364c0.188,1.159,0.341,2.328,0.214,3.617c-0.869-1.014-1.666-1.989-2.453-3.023
	c0.254-0.156,0.488-0.081,0.707-0.087c0.209-0.006,0.309-0.1,0.267-0.297c-0.394-1.884-0.918-3.711-2.345-5.123
	c-0.036-0.036-0.087-0.058-0.131-0.087c-0.153,0.085-0.083,0.225-0.084,0.336c-0.01,0.786,0.016,1.574-0.02,2.359
	c-0.105,2.337-0.029,4.679-0.128,7.014c-0.084,1.982,0.013,3.965-0.101,5.942c-0.116,2.018,0.006,4.037-0.108,6.049
	c-0.115,2.035,0.008,4.073-0.107,6.103c-0.118,2.071,0.008,4.144-0.107,6.21c-0.117,2.107-0.042,4.213-0.095,6.318
	c-0.006,0.23-0.036,0.459-0.055,0.689c-0.099,0.134-0.266,0.164-0.392,0.258C101.998,184.745,101.658,184.766,101.336,184.422z
	 M98.411,148.934c0.819-2.646,1.976-5.119,3.733-7.283c0.123-0.152,0.147-0.311,0.148-0.494c0.005-1.98,0.014-3.961,0.02-5.941
	c0-0.108,0.013-0.224-0.084-0.368c-0.964,2.775-1.859,5.498-2.641,8.257c-0.544,1.92-1.07,3.845-1.37,5.822
	c-0.115,0.344-0.15,0.695-0.089,1.057C98.23,149.634,98.379,149.3,98.411,148.934z"/>
<path style="fill:#091E42;" d="M46.862,88.853c-0.157,0.773-0.165,1.563-0.21,2.344c-0.123,2.142-0.465,4.256-0.729,6.381
	c-0.117,0.938-0.253,1.875-0.359,2.814c-0.027,0.237-0.12,0.387-0.307,0.523c-1.791,1.301-3.578,2.609-5.367,3.913
	c-0.099,0.072-0.193,0.167-0.336,0.122c0.001-3.089,0.007-6.178-0.003-9.267c-0.001-0.346,0.086-0.59,0.356-0.828
	c2.186-1.921,4.356-3.86,6.538-5.785C46.558,88.972,46.626,88.732,46.862,88.853z"/>
<path style="fill:#FEFEFE;" d="M144.36,30.093c0.499,0.001,0.981,0.14,1.467,0.23c2.737,0.507,5.458,1.091,8.183,1.654
	c1.813,0.374,3.437,2.078,3.812,4.061c0.046,0.245,0.08,0.496,0.081,0.745c0.007,1.661,0.027,3.323-0.005,4.984
	c-0.022,1.145-0.45,2.119-1.413,2.81c-0.262,0.188-0.572,0.28-0.851,0.434c0.065,0.144,0.189,0.188,0.282,0.263
	c1.45,1.171,2.216,2.674,2.217,4.55c0.001,3.02,0.001,6.039-0.002,9.059c0,0.19,0.05,0.389-0.064,0.606
	c-0.462-0.108-0.928-0.218-1.394-0.325c-0.782-0.179-1.564-0.363-2.349-0.528c-0.197-0.041-0.277-0.126-0.265-0.319
	c0.007-0.125,0.001-0.25,0.001-0.375c0-3.02-0.002-6.039,0.002-9.059c0.001-0.395-0.01-0.79-0.101-1.172
	c-0.14-0.589-0.42-1.012-1.106-1.136c-1.473-0.266-2.932-0.604-4.449-0.924c0,3.919,0,7.79,0,11.685
	c-0.475,0.009-0.881-0.13-1.296-0.203c-0.826-0.145-1.649-0.306-2.477-0.44c-0.244-0.04-0.351-0.134-0.324-0.381
	c0.011-0.106,0.002-0.214,0.002-0.321c0-8.434,0-16.867,0.002-25.301C144.31,30.496,144.269,30.297,144.36,30.093z M148.427,35.097
	c-0.012,0.159-0.025,0.246-0.025,0.333c-0.001,1.839-0.002,3.678,0,5.517c0,0.402,0.005,0.41,0.386,0.488
	c1.344,0.277,2.689,0.551,4.034,0.823c0.344,0.07,0.586-0.036,0.765-0.33c0.123-0.203,0.172-0.428,0.184-0.663
	c0.075-1.517,0.033-3.034,0.029-4.551c-0.001-0.487-0.044-0.507-0.552-0.617c-0.766-0.167-1.532-0.338-2.3-0.497
	C150.13,35.43,149.309,35.272,148.427,35.097z"/>
<path style="fill:#FEFEFE;" d="M49.464,32.017c0.079,0.268,0.048,0.483,0.048,0.696c0.002,7.078,0.001,14.155,0.002,21.233
	c0,0.798-0.029,0.696,0.698,0.552c0.262-0.052,0.521-0.14,0.785-0.164c0.463-0.042,0.669-0.302,0.777-0.73
	c0.231-0.917,0.493-1.826,0.744-2.738c1.839-6.693,3.681-13.386,5.507-20.083c0.109-0.399,0.271-0.58,0.695-0.641
	c1.077-0.155,2.145-0.372,3.217-0.562c0.086-0.015,0.177-0.033,0.275,0.032c-0.031,0.366-0.176,0.714-0.279,1.069
	c-2.456,8.484-4.919,16.966-7.374,25.451c-0.148,0.51-0.366,0.962-0.755,1.33c-0.32,0.303-0.68,0.513-1.116,0.597
	c-1.893,0.364-3.769,0.806-5.644,1.248c-0.511,0.12-0.911-0.001-1.257-0.373c-0.166-0.178-0.265-0.378-0.241-0.629
	c0.008-0.089,0.001-0.179,0.001-0.268c0-8.168,0-16.336,0-24.503c0-0.611,0-0.611,0.601-0.75
	C47.24,32.531,48.333,32.278,49.464,32.017z"/>
<path style="fill:#FEFEFE;" d="M77.22,30.07c0,2.477,0,4.922,0,7.367c0,1.376,0.001,2.751-0.001,4.127
	c-0.001,0.444-0.003,0.455-0.414,0.502c-0.55,0.063-1.102,0.104-1.652,0.161c-0.202,0.021-0.307-0.042-0.293-0.259
	c0.007-0.107,0.001-0.214,0.001-0.321c0-4.412,0-8.825,0-13.237c0-0.089,0.01-0.18-0.002-0.268c-0.036-0.26,0.1-0.347,0.333-0.37
	c1.137-0.114,2.274-0.229,3.409-0.355c0.262-0.029,0.37,0.039,0.423,0.321c0.413,2.173,0.849,4.342,1.274,6.513
	c0.295,1.506,0.582,3.013,0.875,4.519c0.023,0.118,0.067,0.233,0.189,0.347c0-0.157,0-0.313,0-0.47c0-3.626,0-7.253,0-10.879
	c0-0.564,0-0.572,0.555-0.628c0.497-0.05,0.997-0.072,1.495-0.123c0.237-0.024,0.331,0.059,0.311,0.293
	c-0.009,0.106-0.001,0.214-0.001,0.321c0,4.412,0,8.825,0,13.237c0,0.566,0,0.572-0.548,0.623c-1.031,0.096-2.063,0.186-3.094,0.272
	c-0.429,0.036-0.431,0.029-0.515-0.397c-0.574-2.905-1.148-5.81-1.721-8.715c-0.152-0.77-0.3-1.541-0.45-2.311
	C77.376,30.254,77.374,30.161,77.22,30.07z"/>
<path style="fill:#FEFEFE;" d="M98.626,32.617c0-1.554,0.034-3.11-0.01-4.663c-0.041-1.455,1.142-2.8,2.733-2.723
	c0.838,0.041,1.68,0.037,2.518,0.001c1.495-0.064,2.735,1.21,2.721,2.691c-0.03,3.126-0.032,6.254,0.002,9.38
	c0.015,1.338-1.004,2.65-2.63,2.657c-0.911,0.004-1.822,0.013-2.733-0.002c-1.505-0.024-2.592-1.124-2.599-2.624
	C98.621,35.762,98.626,34.19,98.626,32.617z M100.994,32.616c0,0.947,0,1.893,0,2.84c0,0.589,0.004,1.179-0.001,1.768
	c-0.002,0.228,0.055,0.381,0.325,0.379c0.857-0.005,1.715-0.005,2.572,0c0.229,0.001,0.326-0.104,0.32-0.325
	c-0.003-0.107,0.001-0.214,0.001-0.321c0-2.911,0-5.823,0-8.734c0-0.107-0.004-0.214-0.002-0.321
	c0.003-0.199-0.094-0.293-0.293-0.292c-0.339,0.002-0.679,0-1.018,0c-0.518,0-1.036,0.007-1.554-0.002
	c-0.251-0.005-0.363,0.097-0.35,0.347c0.007,0.125,0,0.25,0,0.375C100.994,29.759,100.994,31.188,100.994,32.616z"/>
<path style="fill:#FEFEFE;" d="M68.812,43.263c0-1.046,0-2.056,0-3.092c-0.686,0.016-1.295,0.162-1.911,0.237
	c-0.584,0.071-1.162,0.191-1.746,0.261c-0.256,0.031-0.361,0.144-0.427,0.385c-0.235,0.859-0.501,1.711-0.74,2.569
	c-0.075,0.269-0.183,0.414-0.494,0.447c-0.634,0.068-1.263,0.195-1.96,0.308c0.055-0.218,0.088-0.382,0.137-0.541
	c1.382-4.536,2.773-9.07,4.14-13.61c0.211-0.701,0.59-1.095,1.33-1.179c1.045-0.119,2.087-0.27,3.127-0.43
	c0.481-0.074,0.915,0.322,0.912,0.848c-0.026,4.357-0.015,8.713-0.015,13.07c0,0.018-0.002,0.036,0,0.054
	c0.032,0.258-0.053,0.375-0.34,0.403C70.174,43.056,69.525,43.165,68.812,43.263z M65.603,38.185
	c0.121,0.073,0.21,0.051,0.296,0.038c0.846-0.128,1.692-0.258,2.538-0.387c0.429-0.066,0.436-0.066,0.436-0.48
	c0.002-1.91,0.002-3.821,0-5.731c0-0.139,0.031-0.289-0.098-0.411c-0.222,0.026-0.451,0.062-0.682,0.079
	c-0.356,0.027-0.549,0.172-0.652,0.553c-0.367,1.359-0.783,2.705-1.179,4.057C66.04,36.665,65.821,37.43,65.603,38.185z"/>
<path style="fill:#FEFEFE;" d="M110.092,32.261c0-1.876,0-3.753,0-5.629c0-0.668,0-0.666,0.639-0.642
	c0.464,0.017,0.929,0.038,1.393,0.037c0.249,0,0.366,0.083,0.338,0.344c-0.013,0.124-0.002,0.25-0.002,0.375
	c0,3.61,0,7.219,0,10.829c0,0.143,0.005,0.286,0.001,0.429c-0.005,0.217,0.092,0.331,0.315,0.341
	c0.857,0.038,1.713,0.077,2.569,0.121c0.204,0.011,0.299-0.079,0.304-0.276c0.004-0.143,0.004-0.286,0.004-0.429
	c0-3.61,0-7.219,0-10.829c0-0.143,0.008-0.286-0.001-0.429c-0.012-0.199,0.054-0.296,0.272-0.279
	c0.623,0.046,1.247,0.086,1.872,0.118c0.188,0.01,0.249,0.098,0.24,0.271c-0.006,0.107,0,0.214,0,0.322
	c0,3.681,0,7.362-0.001,11.044c0,0.321,0,0.64-0.072,0.959c-0.251,1.109-1.159,1.89-2.293,1.883
	c-1.035-0.007-2.073-0.045-3.104-0.133c-1.448-0.124-2.469-1.28-2.473-2.743C110.087,36.049,110.092,34.155,110.092,32.261z"/>
<path style="fill:#FEFEFE;" d="M89.744,33.409c0,1.483-0.001,2.965,0.001,4.448c0.001,0.543,0.008,0.546,0.532,0.526
	c0.749-0.028,1.499-0.051,2.248-0.086c0.386-0.018,0.42-0.053,0.424-0.447c0.008-0.75,0-1.501,0.004-2.251
	c0.002-0.408,0.008-0.415,0.412-0.429c0.535-0.019,1.072-0.017,1.607-0.042c0.239-0.011,0.358,0.033,0.353,0.313
	c-0.016,0.911,0.015,1.823-0.014,2.733c-0.038,1.177-0.957,2.205-2.124,2.44c-0.388,0.078-0.781,0.078-1.173,0.093
	c-0.678,0.026-1.355,0.065-2.033,0.085c-1.253,0.038-2.251-0.698-2.551-1.861c-0.054-0.211-0.062-0.423-0.062-0.637
	c-0.001-3.162-0.007-6.324,0.002-9.485c0.004-1.577,1.135-2.734,2.711-2.803c0.874-0.038,1.748-0.09,2.623-0.102
	c1.541-0.022,2.606,1.031,2.616,2.561c0.004,0.625-0.006,1.251,0.004,1.876c0.004,0.234-0.047,0.369-0.318,0.37
	c-0.589,0.001-1.179,0.013-1.767,0.038c-0.252,0.011-0.293-0.11-0.289-0.322c0.009-0.571,0.009-1.143,0-1.715
	c-0.006-0.431-0.032-0.458-0.463-0.445c-0.767,0.024-1.534,0.058-2.301,0.097c-0.409,0.021-0.438,0.052-0.44,0.49
	c-0.005,1.233-0.002,2.465-0.002,3.698C89.744,32.837,89.744,33.123,89.744,33.409z"/>
<path style="fill:#FEFEFE;" d="M120.827,27.077c0.777,0.066,1.485,0.129,2.193,0.184c0.206,0.016,0.254,0.133,0.279,0.316
	c0.282,1.998,0.572,3.994,0.86,5.991c0.281,1.944,0.56,3.888,0.844,5.831c0.062,0.425,0.072,0.423,0.496,0.467
	c0.807,0.083,0.799,0.082,0.925-0.737c0.482-3.123,0.97-6.245,1.454-9.367c0.088-0.565,0.172-1.13,0.249-1.696
	c0.025-0.184,0.067-0.298,0.296-0.268c0.567,0.073,1.137,0.118,1.704,0.189c0.399,0.05,0.411,0.069,0.343,0.476
	c-0.186,1.109-0.381,2.217-0.569,3.325c-0.487,2.869-0.971,5.737-1.457,8.606c-0.068,0.405-0.133,0.81-0.207,1.214
	c-0.095,0.519-0.396,0.741-0.958,0.689c-0.782-0.072-1.563-0.159-2.345-0.238c-0.266-0.027-0.534-0.046-0.8-0.07
	c-0.581-0.053-0.877-0.297-0.98-0.876c-0.212-1.195-0.404-2.394-0.602-3.591c-0.449-2.712-0.897-5.424-1.346-8.136
	C121.083,28.647,120.963,27.908,120.827,27.077z"/>
<path style="fill:#FEFEFE;" d="M140.259,44.084c-0.969-0.144-1.85-0.277-2.733-0.406c-1.165-0.17-2.331-0.337-3.496-0.507
	c-0.124-0.018-0.246-0.043-0.37-0.06c-0.153-0.02-0.213-0.108-0.205-0.256c0.005-0.089,0-0.179,0-0.268c0-4.483,0-8.967,0-13.45
	c0-0.14,0-0.28,0-0.443c0.538-0.048,1.024,0.078,1.509,0.146c1.626,0.226,3.247,0.483,4.87,0.73
	c0.421,0.064,0.423,0.069,0.426,0.503c0.003,0.623,0.001,1.246,0.001,1.922c-0.778-0.119-1.509-0.231-2.241-0.341
	c-0.582-0.088-1.164-0.178-1.748-0.257c-0.449-0.061-0.455-0.053-0.457,0.38c-0.004,0.875-0.003,1.751,0,2.626
	c0.001,0.427,0.005,0.43,0.433,0.495c1.023,0.154,2.047,0.304,3.071,0.457c0.474,0.071,0.475,0.073,0.477,0.567
	c0.002,0.482,0.003,0.965,0,1.447c-0.003,0.41-0.007,0.416-0.401,0.359c-1.165-0.169-2.329-0.343-3.487-0.514
	c-0.14,0.12-0.09,0.271-0.091,0.406c-0.004,1-0.004,2.001-0.002,3.001c0.001,0.454,0.006,0.447,0.471,0.516
	c1.218,0.179,2.435,0.366,3.653,0.546c0.166,0.024,0.323,0.031,0.322,0.262C140.256,42.635,140.259,43.328,140.259,44.084z"/>
<path style="fill:#FEFEFE;" d="M68.062,53.713c-0.503,1.16-1.469,1.223-2.427,1.24c-0.513,0.009-0.888-0.368-1.02-0.872
	c-0.046-0.176-0.05-0.352-0.05-0.531c0-1.929-0.001-3.858,0.001-5.786c0-0.452,0.004-0.452,0.443-0.529
	c0.82-0.144,0.82-0.144,0.82,0.681c0,1.714-0.002,3.429,0.002,5.143c0,0.193-0.044,0.392,0.061,0.6
	c0.258-0.031,0.525-0.045,0.784-0.097c0.423-0.084,0.721-0.483,0.748-0.991c0.015-0.285,0.004-0.571,0.004-0.857
	c0-1.482-0.002-2.965,0.001-4.447c0.001-0.393,0.007-0.402,0.407-0.445c0.264-0.028,0.587-0.217,0.776-0.058
	c0.211,0.179,0.079,0.537,0.081,0.816c0.009,1.482,0.004,2.965,0.005,4.447c0,0.161-0.007,0.324,0.017,0.481
	c0.071,0.465,0.348,0.679,0.812,0.647c0.036-0.002,0.071-0.006,0.107-0.01c0.681-0.073,0.681-0.073,0.681-0.764
	c0-1.822-0.001-3.643,0.001-5.465c0-0.469,0.004-0.469,0.446-0.519c0.035-0.004,0.071-0.006,0.107-0.01
	c0.711-0.084,0.711-0.084,0.711,0.609c0,1.839,0.001,3.679,0,5.518c-0.001,1.097-0.493,1.674-1.582,1.861
	c-0.141,0.024-0.283,0.041-0.424,0.063C68.958,54.533,68.44,54.392,68.062,53.713z"/>
<path style="fill:#FEFEFE;" d="M125.723,49.263c0.605,0.402,0.749,0.957,0.724,1.607c-0.027,0.713-0.003,1.429-0.008,2.143
	c-0.002,0.363-0.009,0.363-0.347,0.344c-0.919-0.052-0.919-0.052-0.919-0.957c0-0.679,0.008-1.358-0.003-2.036
	c-0.007-0.455-0.062-0.508-0.518-0.571c-0.3-0.041-0.605-0.056-0.905-0.1c-0.246-0.036-0.312,0.07-0.311,0.296
	c0.006,0.875,0.004,1.751,0.001,2.626c-0.001,0.446-0.005,0.446-0.43,0.42c-0.813-0.05-0.813-0.05-0.813-0.883
	c0-2.161-0.001-4.323,0.001-6.484c0-0.471,0.005-0.477,0.472-0.434c0.782,0.071,1.565,0.143,2.345,0.228
	c0.914,0.099,1.366,0.605,1.377,1.523c0.004,0.304,0.002,0.607,0,0.911C126.388,48.61,126.314,48.766,125.723,49.263z
	 M123.438,47.427c0,0.071-0.002,0.142,0,0.213c0.02,0.764-0.169,0.736,0.726,0.795c0.94,0.062,0.949,0.061,0.938-0.899
	c-0.012-0.977,0.168-0.772-0.795-0.901C123.441,46.519,123.438,46.54,123.438,47.427z"/>
<path style="fill:#FEFEFE;" d="M94.76,51.792c-0.08,0.032-0.112,0.055-0.145,0.056c-0.354,0.01-0.778,0.155-1.043-0.033
	c-0.248-0.175-0.17-0.62-0.221-0.949c-0.099-0.642-0.1-0.642-0.736-0.627c-0.374,0.009-0.749,0.015-1.123,0.026
	c-0.411,0.012-0.413,0.014-0.47,0.399c-0.049,0.335-0.097,0.67-0.138,1.006c-0.024,0.199-0.089,0.303-0.326,0.324
	c-0.981,0.087-0.987,0.097-0.834-0.874c0.327-2.077,0.662-4.152,0.995-6.228c0.091-0.566,0.178-0.649,0.757-0.683
	c0.48-0.029,0.962-0.048,1.443-0.057c0.494-0.009,0.602,0.08,0.679,0.549c0.324,1.969,0.645,3.938,0.967,5.908
	C94.628,50.995,94.693,51.38,94.76,51.792z M91.304,48.945c0.532,0,1.027,0.002,1.523-0.001c0.15-0.001,0.222-0.065,0.194-0.235
	c-0.164-1.004-0.332-2.007-0.475-3.014c-0.041-0.292-0.214-0.273-0.416-0.27c-0.193,0.002-0.34,0.02-0.364,0.275
	c-0.037,0.39-0.117,0.776-0.172,1.165C91.496,47.55,91.403,48.236,91.304,48.945z"/>
<path style="fill:#FEFEFE;" d="M82.813,44.911c0.099,0.185,0.066,0.331,0.066,0.471c0.002,2.269,0.002,4.539,0.001,6.808
	c0,0.488-0.003,0.488-0.492,0.523c-0.786,0.056-0.786,0.056-0.786-0.73c0-0.927,0-1.853,0-2.852
	c-0.476,0.04-0.911,0.085-1.348,0.109c-0.259,0.015-0.318,0.142-0.315,0.38c0.012,0.858,0.004,1.715,0.004,2.573
	c0,0.75,0,0.75-0.764,0.82c-0.089,0.008-0.179,0.01-0.267,0.02c-0.157,0.019-0.235-0.043-0.232-0.205
	c0.002-0.107-0.001-0.214-0.001-0.322c0-2.234,0-4.467,0-6.701c0-0.542,0.001-0.55,0.558-0.581c0.83-0.046,0.696-0.126,0.705,0.68
	c0.006,0.608,0.006,1.215,0,1.823c-0.002,0.203,0.063,0.293,0.28,0.266c0.372-0.045,0.746-0.084,1.12-0.106
	c0.218-0.013,0.262-0.127,0.261-0.314c-0.004-0.697,0-1.394-0.002-2.091c-0.002-0.515-0.004-0.469,0.454-0.5
	C82.305,44.967,82.553,44.936,82.813,44.911z"/>
<path style="fill:#FEFEFE;" d="M133.165,51.739c0.398-0.002,0.712,0.066,1.03,0.107c0.179,0.023,0.243,0.104,0.24,0.277
	c-0.007,0.339,0.006,0.679-0.004,1.018c-0.006,0.213,0.057,0.325,0.292,0.348c0.354,0.035,0.705,0.104,1.057,0.164
	c0.161,0.027,0.234-0.04,0.245-0.195c0.056-0.817-0.062-1.574-0.756-2.122c-0.28-0.221-0.563-0.439-0.852-0.647
	c-0.989-0.709-1.332-1.681-1.167-2.858c0.085-0.607,0.523-1.012,1.126-1.007c0.607,0.005,1.212,0.106,1.795,0.264
	c0.696,0.189,1.187,1.031,1.116,1.831c-0.243-0.033-0.489-0.055-0.729-0.103c-0.229-0.046-0.507-0.024-0.539-0.383
	c-0.011-0.126-0.171-0.172-0.298-0.19c-0.318-0.046-0.637-0.084-0.954-0.132c-0.216-0.032-0.273,0.07-0.289,0.269
	c-0.036,0.46,0.09,0.851,0.449,1.146c0.262,0.215,0.534,0.417,0.811,0.612c1.006,0.706,1.545,1.656,1.531,2.899
	c-0.003,0.268,0.011,0.536-0.007,0.803c-0.046,0.706-0.602,1.176-1.308,1.098c-0.461-0.051-0.92-0.122-1.376-0.203
	c-0.861-0.152-1.406-0.808-1.415-1.686C133.162,52.626,133.165,52.2,133.165,51.739z"/>
<path style="fill:#FEFEFE;" d="M111.642,48.132c0-1.143-0.002-2.287,0.001-3.43c0.001-0.451,0.006-0.462,0.426-0.444
	c0.946,0.042,1.891,0.09,2.836,0.151c0.422,0.027,0.421,0.044,0.427,0.48c0.012,0.838,0.012,0.835-0.849,0.783
	c-0.428-0.026-0.857-0.031-1.285-0.057c-0.197-0.012-0.3,0.04-0.294,0.261c0.01,0.429,0.012,0.858-0.001,1.286
	c-0.007,0.237,0.092,0.306,0.315,0.313c0.518,0.016,1.034,0.06,1.552,0.08c0.194,0.008,0.299,0.059,0.284,0.279
	c-0.02,0.302,0.089,0.677-0.053,0.89c-0.17,0.254-0.557,0.029-0.849,0.04c-0.338,0.012-0.678-0.013-1.017-0.026
	c-0.155-0.006-0.229,0.058-0.228,0.218c0.003,0.536,0.006,1.072-0.002,1.608c-0.003,0.193,0.095,0.241,0.261,0.249
	c0.589,0.029,1.177,0.064,1.765,0.098c0.387,0.023,0.403,0.025,0.398,0.391c-0.014,1.078,0.165,0.893-0.841,0.861
	c-0.803-0.025-1.605-0.082-2.407-0.137c-0.433-0.029-0.437-0.041-0.438-0.464C111.641,50.419,111.642,49.275,111.642,48.132z"/>
<path style="fill:#FEFEFE;" d="M101.414,47.628c0-1.161-0.002-2.322,0.001-3.483c0.001-0.404,0.008-0.415,0.414-0.41
	c1.018,0.012,0.84-0.146,0.846,0.838c0.011,1.75,0.003,3.5,0.003,5.251c0,0.453-0.031,0.441,0.431,0.441
	c0.536,0,1.071,0.014,1.607,0.006c0.235-0.004,0.349,0.042,0.36,0.319c0.039,0.97,0.051,0.967-0.938,0.953
	c-0.768-0.011-1.536-0.01-2.303-0.019c-0.411-0.005-0.418-0.009-0.419-0.413C101.412,49.95,101.414,48.789,101.414,47.628z"/>
<path style="fill:#018639;" d="M111.745,150.867c0.281-2.165,0.859-4.249,1.658-6.275c0.844-2.14,1.968-4.123,3.403-5.916
	c1.597-1.996,3.499-3.648,5.724-4.931c2.317-1.336,4.819-2.128,7.43-2.593c1.013-0.181,2.049-0.234,3.072-0.36
	c0.829-0.101,1.659-0.204,2.483-0.341c1.649-0.275,3.289-0.602,4.903-1.046c1.893-0.52,3.746-1.151,5.529-1.984
	c1.673-0.782,3.261-1.704,4.662-2.904c1.264-1.082,2.386-2.3,3.2-3.78c0.792-1.44,1.28-2.966,1.479-4.592
	c0.002-0.013,0.022-0.025,0.044-0.049c0.109,0.746-0.041,1.473-0.113,2.193c-0.104,1.041-0.268,2.078-0.477,3.108
	c-0.385,1.895-0.94,3.727-1.753,5.484c-0.772,1.669-1.768,3.177-3.075,4.47c-1.487,1.471-3.27,2.382-5.327,2.773
	c-1.103,0.21-2.211,0.347-3.329,0.441c-0.994,0.084-1.989,0.136-2.981,0.221c-1.363,0.116-2.729,0.212-4.089,0.378
	c-1.735,0.213-3.445,0.525-5.13,0.982c-3.083,0.836-5.9,2.212-8.448,4.144c-1.314,0.996-2.513,2.117-3.624,3.327
	c-1.608,1.752-3.003,3.669-4.233,5.704c-0.286,0.473-0.555,0.956-0.832,1.435C111.887,150.818,111.848,150.876,111.745,150.867z"/>
<path style="fill:#018639;" d="M93.429,150.868c-0.466-0.763-0.923-1.523-1.392-2.275c-0.879-1.41-1.884-2.727-2.93-4.016
	c-0.507-0.625-1.056-1.215-1.62-1.779c-1.402-1.401-2.916-2.678-4.603-3.732c-1.794-1.12-3.701-2.004-5.717-2.643
	c-1.461-0.463-2.952-0.799-4.469-1.026c-1.267-0.19-2.535-0.353-3.815-0.439c-0.958-0.065-1.917-0.135-2.875-0.213
	c-1.63-0.132-3.264-0.238-4.878-0.522c-2.194-0.386-4.137-1.245-5.747-2.846c-1.707-1.697-2.88-3.703-3.731-5.93
	c-0.722-1.891-1.165-3.85-1.459-5.843c-0.135-0.913-0.275-1.833-0.245-2.764c0.002-0.067,0.013-0.135,0.044-0.206
	c0.173,0.761,0.351,1.517,0.61,2.253c0.778,2.215,2.148,4.002,3.914,5.521c1.503,1.293,3.189,2.281,4.977,3.108
	c1.719,0.795,3.51,1.389,5.336,1.887c1.598,0.436,3.219,0.767,4.851,1.034c0.928,0.151,1.861,0.289,2.802,0.369
	c2.546,0.217,5.047,0.67,7.437,1.605c1.938,0.758,3.729,1.776,5.363,3.08c1.647,1.316,3.037,2.861,4.206,4.602
	c1.32,1.966,2.309,4.098,3.025,6.356c0.432,1.361,0.749,2.746,0.964,4.156C93.488,150.686,93.512,150.776,93.429,150.868z"/>
<path style="fill:#018639;" d="M49.912,115.761c0.011,0.083,0.027,0.144,0.027,0.205c0,0.083,0.026,0.171-0.036,0.246
	c-0.06-0.049-0.049-0.118-0.047-0.181C49.86,115.949,49.834,115.86,49.912,115.761z"/>
<path style="fill:#FEFEFE;" d="M98.217,148.927c0.3-1.978,0.826-3.902,1.37-5.822c0.782-2.759,1.677-5.482,2.641-8.257
	c0.097,0.144,0.085,0.26,0.084,0.368c-0.006,1.98-0.015,3.961-0.02,5.941c0,0.183-0.024,0.343-0.148,0.494
	c-1.757,2.164-2.914,4.637-3.733,7.282C98.346,148.931,98.282,148.929,98.217,148.927z"/>
<path style="fill:#99C6E4;" d="M98.217,148.927c0.065,0.002,0.129,0.004,0.194,0.007c-0.032,0.366-0.181,0.701-0.283,1.05
	C98.067,149.622,98.102,149.271,98.217,148.927z"/>
<path style="fill:#018639;" d="M148.427,35.097c0.882,0.175,1.703,0.332,2.522,0.502c0.768,0.159,1.533,0.331,2.3,0.497
	c0.508,0.11,0.551,0.13,0.552,0.617c0.004,1.517,0.046,3.035-0.029,4.551c-0.012,0.235-0.06,0.461-0.184,0.663
	c-0.179,0.294-0.422,0.4-0.765,0.33c-1.345-0.272-2.69-0.545-4.034-0.823c-0.382-0.079-0.386-0.086-0.386-0.488
	c-0.002-1.839-0.001-3.678,0-5.517C148.402,35.343,148.415,35.256,148.427,35.097z"/>
<path style="fill:#018639;" d="M100.994,32.616c0-1.429,0-2.858,0-4.287c0-0.125,0.006-0.25,0-0.375
	c-0.013-0.251,0.099-0.352,0.35-0.347c0.518,0.009,1.036,0.002,1.554,0.002c0.339,0,0.679,0.003,1.018,0
	c0.199-0.001,0.296,0.092,0.293,0.292c-0.001,0.107,0.002,0.214,0.002,0.321c0,2.911,0,5.823,0,8.734
	c0,0.107-0.004,0.214-0.001,0.321c0.006,0.22-0.091,0.326-0.32,0.325c-0.857-0.005-1.715-0.005-2.572,0
	c-0.27,0.002-0.327-0.151-0.325-0.379c0.004-0.589,0.001-1.179,0.001-1.768C100.994,34.51,100.994,33.563,100.994,32.616z"/>
<path style="fill:#018639;" d="M65.603,38.185c0.218-0.755,0.437-1.52,0.661-2.283c0.395-1.352,0.812-2.697,1.179-4.057
	c0.103-0.381,0.297-0.526,0.652-0.553c0.231-0.017,0.46-0.053,0.682-0.079c0.129,0.122,0.098,0.272,0.098,0.411
	c0.002,1.91,0.003,3.821,0,5.731c-0.001,0.414-0.007,0.414-0.436,0.48c-0.846,0.129-1.692,0.259-2.538,0.387
	C65.813,38.236,65.723,38.258,65.603,38.185z"/>
<path style="fill:#018639;" d="M123.438,47.427c0-0.886,0.003-0.908,0.868-0.792c0.963,0.129,0.783-0.075,0.795,0.901
	c0.012,0.96,0.003,0.96-0.938,0.899c-0.895-0.059-0.706-0.03-0.726-0.795C123.437,47.569,123.438,47.498,123.438,47.427z"/>
<path style="fill:#018639;" d="M91.304,48.945c0.099-0.709,0.192-1.395,0.29-2.081c0.056-0.389,0.136-0.774,0.172-1.165
	c0.024-0.255,0.171-0.273,0.364-0.275c0.202-0.002,0.375-0.022,0.416,0.27c0.143,1.007,0.31,2.01,0.475,3.014
	c0.028,0.17-0.044,0.234-0.194,0.235C92.332,48.947,91.836,48.945,91.304,48.945z"/>
</svg>
