<?xml version="1.0" encoding="utf-8"?>
<!-- Generator: Adobe Illustrator 24.1.0, SVG Export Plug-In . SVG Version: 6.00 Build 0)  -->
<svg version="1.1" id="Layer_1" xmlns="http://www.w3.org/2000/svg" xmlns:xlink="http://www.w3.org/1999/xlink" x="0px" y="0px"
	 viewBox="0 0 200 200" style="enable-background:new 0 0 200 200;" xml:space="preserve">
<path style="fill:#BD1E2D;" d="M181.8,133.7c-5.9,0-11.8,0.1-17.7,0c-6.1-0.2-12,0.6-17.6,3c-0.7,0.3-0.9,0.6-0.6,1.4
	c4,10.5,2,19.9-5,28.4c-6.1,7.4-14.3,11.8-23.5,14.2c-15.2,4.1-30.1,3.3-44.5-3.4c-7.9-3.7-14.4-9.1-18.4-17.1
	c-3.5-7.1-3.8-14.5-1-21.9c0.4-1,0.2-1.4-0.7-1.8c-5.6-2.4-11.4-3.1-17.4-2.9c-5.9,0.2-11.8,0-17.7,0c2.7-3.5,5.5-7.2,8.4-10.9
	c-1.4-0.7-2.8-1.4-4.1-2.1c-5-2.7-9.8-5.8-13.1-10.7c-3.3-5-6.2-10.2-9.4-15.4c4.3,0,8.4,0,12.7,0c-2-2.2-3.8-4.2-5.7-6.2
	C3.7,85,2.7,81.1,3.9,76.7c1-3.7,1.9-7.4,2.9-11.1c0.2-0.6,0.3-1.2,1-1.5c0.4-0.1,0.5-0.6,0.6-0.9c0.3-1.1,0.6-2.3,0.9-3.4
	c0.2-0.6,0.5-1.2-0.2-1.8c-0.4-0.3,0-0.8,0.1-1.2c1.5-5.1,3.1-10.2,4.1-15.4c1.2-6.6,4.4-12.2,6.7-18.3c0.2-0.7,0.2-1.2,0.1-1.9
	c-0.1-1.3-0.2-2.6-0.4-4.1c3.3,1.5,6.5,2.9,9.6,4.4c3.1,1.5,6.5,2.7,9.2,4.9c2.8,2.3,4.9,5.1,6,8.6c0.3,0.8,0.6,1.1,1.4,1
	c1.6-0.1,3.2-0.1,4.9,0c0.9,0,1.3-0.3,1.7-1c1.1-1.9,2.3-3.8,3.3-5.7c0.5-0.9,1-1.2,2-1.2c21.4,0,42.9,0,64.3,0c7.2,0,14.4,0,21.7,0
	c0.9,0,1.4,0.3,1.8,1c1.1,2,2.3,3.9,3.4,5.9c0.4,0.7,0.8,1,1.7,1c2.9,0,5.8-0.3,8.7,0.3c0.5,0.1,0.7-0.2,0.9-0.5
	c3.1-4.8,7.4-8.1,12.7-10.4c4-1.7,7.9-3.6,11.9-5.5c0.1,1.7-0.3,3.2-0.3,4.8c0,0.3-0.1,0.6,0.1,1c1.7,3.8,3.2,7.7,4.9,11.5
	c1.2,2.7,1.7,5.4,1.5,8.3c0,0.7,0.1,1.3,0.4,1.9c1.6,2.9,2.4,6.2,3.2,9.4c1.1,4.2,2.5,8.4,3.1,12.7c0.6,4.8-0.2,9.4-3.4,13.2
	c-2.1,2.5-4.3,4.9-6.4,7.3c-0.4,0.4-0.7,0.8-1,1.3c-1.1,2.1-0.6,2.9,1.7,2.9c3.3,0,6.6,0,9.9-0.1c0.4,0,0.8-0.1,1.1,0.1
	c-0.1,0.5-0.4,0.9-0.7,1.3c-2.1,3.6-4.3,7-6.3,10.7c-2.9,5.3-7.1,9.2-12.2,12.3c-2,1.2-4.1,2.4-6.3,3.4c-0.7,0.3-0.9,0.5-0.3,1.2
	c2.6,3.2,5.1,6.5,7.6,9.8C181.6,133.4,181.8,133.6,181.8,133.7z"/>
<path style="fill:#F16522;" d="M161.7,120.3c2.7,1.4,4.1,4,6.1,6.5c-1.8,0-3.4,0-4.9,0c-9.5-0.3-18.1,2.5-26.3,7.2
	c-0.9,0.5-0.3,0.8,0,1.3c2.2,2.9,3.7,6.2,4.3,9.9c0.8,5-0.3,9.6-2.8,13.8c-2.8,4.7-6.9,8.1-11.6,10.8c-5.5,3.2-11.5,5.1-17.8,6
	c-6.6,0.9-13.1,0.8-19.7-0.4c-6.9-1.3-13.3-3.6-19-7.7c-4.8-3.4-8.5-7.6-10.3-13.3c-2.1-6.7-0.9-12.8,3.1-18.4
	c1.1-1.6,1.1-1.5-0.6-2.5c-5.1-2.7-10.4-4.9-16.1-6c-3.9-0.7-7.9-0.7-11.8-0.6c-0.7,0-1.3,0-2.2,0c1.9-2.5,3.5-4.9,6.2-6.7
	c-2-0.8-3.8-1.5-5.6-2.3c-5.1-2.1-10-4.6-14.3-8.1c-2.7-2.2-4.6-5.1-6.3-8.4c1.3,0,2.4,0,3.5,0c1.7,0.1,2.9-0.8,3.6-2.2
	c1.5-3.3,0.7-6.3-1.3-9c-1.9-2.4-4-4.6-6.1-6.9c-1.3-1.4-1.5-3-1.1-4.6c0.6-2.7,1.4-5.4,2.1-8c0.2-0.8,0.4-1.7,1.3-2.1
	c0.3-0.2,0.3-0.6,0.4-0.9c1-3.5,1.9-7.1,2.9-10.6c0.2-0.7,0.4-1.3-0.2-1.9c-0.3-0.2-0.1-0.6,0-1c0.8-3.2,1.5-6.4,2.6-9.5
	c0.6-1.6,0.8-3,0.9-4.7c0.1-1.8,1.1-3.3,1.7-4.9c0.3-0.7,0.6-0.2,0.8,0c0.9,0.8,1.8,1.6,2.7,2.4c0.8,0.7,1.3,0.5,1.7-0.5
	c0.7-2.1,0.5-4.2,0.4-6.3c0-0.1-0.1-0.2-0.1-0.4c0-0.6-0.3-1.5,0.1-1.8c0.4-0.4,1.1,0.3,1.6,0.5c2.8,1.1,5.2,2.6,7.1,5.1
	c1.6,2.2,2.4,4.6,2.4,7.3c0,1.1,0.4,1.3,1.4,1.3c4.8,0,9.7,0,14.5,0c0.9,0,1.4-0.3,1.8-1.1c1.1-1.9,2.3-3.7,3.3-5.6
	c0.5-0.9,1-1.1,1.9-1.1c10.9,0,21.8,0,32.7,0c15,0,30.1,0,45.1,0c1.2,0,1.9,0.4,2.4,1.4c1.1,1.9,2.3,3.8,3.3,5.7
	c0.4,0.7,0.8,0.9,1.5,0.8c2.8-0.1,5.5,0.1,8.3-0.2c1.5-0.2,3.1,0.1,4.3,1.2c0.2,0.2,0.5,0.4,0.7,0.3c1.6-1.1,3.9-0.7,5-3
	c2.1-4.2,5.4-7.3,9.8-9.1c0.7-0.3,1.5-1.1,2.1-0.8c0.6,0.4-0.1,1.4,0,2.1c0.1,1.6-0.5,3.3,0,4.9c0.1,0.4,0.1,0.9,0.3,1.4
	c0.4,1.2,0.9,1.4,1.9,0.5c0.8-0.7,1.6-1.5,2.4-2.3c0.4-0.3,0.6-0.5,0.9,0.1c1.3,2.9,2.5,5.9,1.4,9.2c-0.1,0.4-0.1,0.8,0.1,1.1
	c2.5,3.3,3.3,7.3,4.3,11.1c0.8,3.2,1.8,6.4,2.5,9.6c0.9,4.2-0.1,7.8-3.1,10.9c-2,2.1-4,4.3-5.8,6.6c-2.9,3.8-2.8,9.4-0.4,13.1
	c0.8,1.3,2.1,1.6,3.6,1.5c0.8-0.1,2-0.4,2.4,0.2c0.3,0.5-0.7,1.3-1,2c-2.7,4.9-7,8-11.7,10.6c-4,2.2-8.2,4-12.5,5.6
	C162.1,119.9,161.8,119.9,161.7,120.3z"/>
<path style="fill:#231F20;" d="M181.7,40c1.3,2.5,1.6,5.1,0.7,7.7c-0.1,0.4-0.3,0.7,0.1,1.1c2.3,2.7,3.2,6.1,4.1,9.4
	c1,4,2.3,7.9,3,11.9c0.6,3.3,0,6.2-2.4,8.7c-2.1,2.2-4,4.5-5.9,6.7c-3.3,3.8-3.7,10.8-0.9,15c1,1.4,2.2,2.4,4,2.2
	c0.8-0.1,1,0.2,0.5,0.9c-1.6,2.8-3.9,4.9-6.5,6.8c-5.8,4-12.2,6.6-18.8,8.9c-0.5,0.2-1,0.4-1.8,0.6c3,1.1,5.5,2.6,7.1,5.3
	c-0.3,0.3-0.6,0.2-0.9,0.2c-9.8-0.6-18.7,2.1-27.2,6.9c-0.7,0.4-1.4,0.8-2.1,1.2c-0.7,0.3-0.8,0.7-0.2,1.3c1.9,2.2,3.4,4.6,4.3,7.3
	c2.4,7.2,0.6,13.7-4.2,19.3c-5,5.8-11.5,9.3-18.8,11.3c-13.8,3.8-27.3,3-40.3-3.4c-4.3-2.1-8-5-11-8.8c-6.2-7.9-6-17.7,0.5-25.4
	c1.1-1.3,1.1-1.1-0.4-1.9c-5.3-2.9-10.7-5.6-16.6-6.8c-3.6-0.8-7.3-1.1-10.9-1c-0.7,0-1.4,0-2.2,0c1.5-2.9,4.1-4.3,7.1-5.4
	c-2.3-0.8-4.5-1.6-6.6-2.4c-5.5-2.1-10.8-4.6-15.4-8.2c-2-1.6-3.8-3.4-5.1-5.7c-0.2-0.4-0.6-0.8,0.3-0.9c4.4-0.4,6.8-3.8,5.9-8.4
	c-0.4-2.3-1.5-4.3-3.1-6.1c-1.7-1.8-3.3-3.7-5-5.5c-1.2-1.2-1.5-2.6-1-4.2c0.7-2.3,1.2-4.7,1.9-7c0.2-0.8,0.3-1.7,1.3-2.1
	c0.2-0.1,0.4-0.6,0.5-0.9c1.1-4.2,2.3-8.3,3.4-12.5c0.1-0.5,0.3-0.9-0.2-1.2c-0.4-0.3-0.2-0.7-0.1-1c0.7-2.8,1.2-5.7,2.3-8.4
	c0.7-1.6,0.9-3.1,1-4.8c0-0.9,0.4-1.7,0.7-2.6c0.3-0.8,0.6-1.1,1.3-0.3c0.4,0.5,1,0.9,1.6,1.3c1.4,0.8,2.4,0.5,3.1-1
	c0.7-1.7,0.9-3.5,0.8-5.3c0-0.7-0.1-1.3-0.1-2c4.2,0.9,7.9,5.2,8.2,9.4c0,0.6,0.1,1.2,0.1,1.8c0,2.3,0,2.3,2.4,2.3
	c5.3,0,10.5,0,15.8,0c0.8,0,1.2-0.2,1.6-0.9c1.1-2,2.4-4,3.5-6c0.4-0.7,0.8-1,1.7-1c25.6,0,51.3,0,76.9,0c0.8,0,1.2,0.2,1.6,0.9
	c1.1,2,2.4,4,3.5,6c0.4,0.7,0.9,1,1.7,1c3.3-0.1,6.7,0,10,0c1.4,0,2.6,0.4,3.2,1.6c0.3,0.7,0.6,0.3,1,0.1c1.3-0.9,2.8-1.5,4.3-1.8
	c0.7-0.1,1-0.5,1.2-1.1c1.8-4.1,4.6-7.1,8.6-9.1c0.8-0.4,1.3-0.7,1.2,0.7c-0.2,1.9-0.2,3.8,0.5,5.7c0.8,2.2,2,2.6,3.9,1.2
	C180.5,41.1,181.1,40.5,181.7,40z"/>
<path style="fill:#FEFEFE;" d="M168.6,44c0.2,0.5,0.2,0.9,0.4,1.2c0.6,0.9,1.4,1.3,2.4,0.9c1.1-0.5,0.8-1.4,0.5-2.2
	c-0.2-0.6-0.6-1.2-0.8-1.9c2.3,1.1,4.7,2.1,6.3,4.3c0.4,0.6,0.8,1.3,0.7,2c-0.2,1.1,0.3,1.7,1,2.4c1.2,1.1,2.1,2.6,2.6,4.2
	c1.6,5.3,3.1,10.7,4.2,16.2c0.7,3.5-1,5.8-4.5,6.3c-3.9,0.6-7.7,0.2-11.4-1c-3.8-1.2-6.2-3.9-7-7.8c-1-4.5-1.9-8.9-2.7-13.4
	c-0.8-4.3,1.1-6.9,5.5-7.6c0.9-0.1,1.8-0.1,1.6-1.5C167.5,45.3,167.9,44.6,168.6,44z"/>
<path style="fill:#BD1E2D;" d="M84.9,120.1c-10.5,3.1-20.6,2.6-30.6-1.9c2.9-0.5,6-0.6,8.4-3c-11.1-0.7-21.2-3.8-31.1-9
	c4.3-0.5,8.3-0.2,12.4-0.7c-5.5-2.3-10.4-5.2-14-10c-1.5-1.9-2.7-4-3.5-6.4c1.3,0.8,2.5,1.5,3.8,2.3c8.4,5.2,17.6,8.3,27.3,10.3
	c3.7,0.8,7.4,1.7,10.9,3.2c4.6,2,8.4,5.1,11.6,8.8C81.8,115.7,83.4,117.7,84.9,120.1z"/>
<path style="fill:#BD1E2D;" d="M173.3,89c-3.5,8.1-9.6,13.3-17.8,16.2c0,0.1,0.1,0.2,0.1,0.4c4,0.1,8.1,0.3,12.1,0.4
	c-9.6,5.2-19.8,8.5-30.9,9.1c2.4,2.4,5.4,2.6,8.4,2.8c0.1,0.4-0.2,0.4-0.3,0.5c-5.3,2.2-10.8,3.6-16.5,3.7
	c-4.4,0.1-8.7-0.7-12.9-1.8c-0.5-0.1-0.9-0.3-0.4-0.9c4.1-5.9,8.7-11.2,15.4-14.2c4.3-2,8.9-3,13.5-3.9c10.2-2.2,19.7-6,28.4-11.8
	C172.6,89.3,172.9,89,173.3,89z"/>
<path style="fill:#FEFEFE;" d="M49.8,59.6c0.2-1.3,0.5-2.7,0.7-4c0.1-0.9,0.4-1.8-0.3-2.7c-0.4-0.6,0.1-1.3,0.2-2
	c0.5-3.1,0.5-3.1,3.7-3.1c2,0,3.9,0,6,0c-0.2,1.5-0.5,2.9-0.7,4.2c0,0.2,0,0.4-0.1,0.5c-2,1.8-1.5,4.4-2,6.7
	c-0.9,5-1.6,10.1-2.4,15.2c-0.1,0.7-0.4,1-1.1,1c-2.5,0.1-5,0.2-7.5,0.3c-0.9,0.1-1.1-0.3-1.3-1c-0.8-3.3-1.7-6.7-2.6-10
	c-0.1-0.3-0.1-0.7-0.4-1c-0.4,1.7-0.7,3.4-1.1,5.1c-0.1,0.7-0.2,1.3,0.3,1.9c0.5,0.5,0.1,1.1,0,1.7c-0.2,1.2,0,2.8-0.9,3.3
	c-0.9,0.6-2.4,0.3-3.6,0.4c-1.7,0.1-3.3,0.2-5,0.3c-0.8,0.1-0.9-0.2-0.7-0.9c0.3-1,0.5-2.1,0.7-3.1c0.1-0.2,0-0.6,0.2-0.7
	c2.4-2.4,2.1-5.8,3-8.8c0.7-2.5,1.1-5.1,1.7-7.6c0.2-0.8,0.3-1.5-0.2-2.3c-0.4-0.6,0.1-1.3,0.2-2c0.2-1.1,0.2-2.5,0.9-3.1
	c0.7-0.6,2.1-0.2,3.2-0.2c1.7,0,3.5,0,5.2,0c0.8,0,1.1,0.3,1.2,1c0.7,3.5,1.4,7,2.2,10.5C49.5,59.3,49.3,60.1,49.8,59.6z"/>
<path style="fill:#FEFEFE;" d="M149.8,59.4c-0.3-1.6-0.5-3.1-0.8-4.7c-0.1-0.4-0.1-0.8-0.4-1.1c-1.6-1.4-1.1-3.5-1.6-5.2
	c-0.1-0.5,0.1-0.6,0.5-0.6c2.6,0,5.2,0,7.8,0c0.6,0,0.7,0.3,0.8,0.8c0.2,1.2,0.5,2.4,0.7,3.6c0,0.1,0.1,0.2,0,0.2
	c-1.3,2.9,0.3,5.7,0.7,8.4c0.7,4.6,1.7,9.2,2.6,13.8c0.2,1-0.1,1.2-1.1,1.1c-2.4-0.2-4.9-0.3-7.3-0.3c-0.7,0-1.1-0.3-1.4-0.9
	c-2.2-3.7-4.4-7.3-6.6-10.9c-0.7-0.1-0.3,0.3-0.3,0.5c0.2,1.4,0.4,2.8,0.6,4.2c0.1,0.4,0.1,0.8,0.4,1.1c1.6,1.4,1.1,3.5,1.6,5.2
	c0.2,0.5-0.2,0.5-0.6,0.5c-2.8-0.1-5.6-0.2-8.4-0.3c-0.5,0-0.7-0.2-0.7-0.7c-0.1-1.2-0.3-2.4-0.4-3.6c0-0.2-0.1-0.4,0-0.5
	c1.4-1.5,0.5-3.2,0.4-4.7c-0.3-3.5-0.8-7-1.2-10.5c-0.1-0.8-0.3-1.5-0.9-2.1c-0.7-0.6-0.5-1.6-0.6-2.4c-0.1-0.8-0.5-2-0.1-2.5
	c0.5-0.6,1.7-0.2,2.6-0.2c2,0,3.9,0,5.9,0c0.8,0,1.1,0.2,1.5,0.9c2,3.7,4.1,7.3,6.1,10.9C149.9,59.8,149.9,59.6,149.8,59.4z"/>
<path style="fill:#FEFEFE;" d="M127,61.3c3,0.6,4.2,2.1,4.4,4.8c0.1,1.4,0.2,2.8,1.4,4.1c0.9,1,0.6,2.8,0.6,4.3
	c0,0.4-0.4,0.3-0.7,0.3c-3-0.1-6-0.2-9-0.2c-0.7,0-0.9-0.3-1-0.9c-0.5-1.7-0.6-3.5-0.7-5.3c0-0.7-0.1-1.4-0.2-2.2
	c-0.2-1.4-1.3-2.2-2.7-2.1c-0.3,0-0.6,0.1-0.5,0.4c0.2,1.4-0.3,3.1,0.5,4.1c1.2,1.6,0.8,3.3,1.1,4.9c0.1,0.6,0,0.9-0.8,0.9
	c-3.4-0.1-6.8-0.1-10.2-0.1c-0.7,0-0.9-0.3-0.9-0.9c0-1.1,0-2.1-0.1-3.2c0-0.2-0.1-0.5,0.1-0.6c1.4-1,0.9-2.5,0.9-3.8
	c0-3.5-0.2-7-0.3-10.5c0-1-0.1-2-0.9-2.8c-0.6-0.7-0.2-1.7-0.3-2.6c-0.1-2.1-0.1-2.1,2.1-2.1c3.8,0,7.5,0,11.3,0
	c0.8,0,1.6,0,2.4,0.1c5.1,0.7,7.7,3.9,7.2,9.1C130.6,59.2,129.4,60.6,127,61.3z"/>
<path style="fill:#FEFEFE;" d="M94.5,74.5c-3.5,0-7.1,0-10.6,0c-0.8,0-1-0.2-0.9-1c0.1-1,0.2-2,0.2-3.1c0-0.2,0-0.4,0.1-0.5
	c1.8-1.4,1.1-3.5,1.3-5.3c0.3-3.3,0.4-6.6,0.6-9.8c0-0.8-0.1-1.4-0.6-2.2c-0.6-0.9-0.2-2-0.1-3c0.1-1.9,0.2-1.9,2.1-1.9
	c6,0,12,0,18.1,0c1.1,0,1.3,0.3,1.3,1.4c-0.1,2.2,0,4.4,0.1,6.5c0,0.9-0.1,1.2-1.1,1.2c-2.1-0.1-4.2-0.1-6.3,0c-0.8,0-1.1-0.2-1.1-1
	c0.1-0.9,0-1.8-1.1-2.2c-1.7-0.5-2-0.3-2,1.4c0,1-0.5,2.3,0.1,2.9c0.6,0.6,1.9,0.2,3,0.2c2.6,0,2.6,0,2.6,2.6c0,2.6,0,2.6-2.7,2.6
	c-1.1,0-2.4-0.5-3.1,0.2c-0.5,0.6-0.2,1.9-0.3,3c0,0.1,0,0.3,0,0.4c0.2,0.6-0.7,1.6,0.5,1.8c1.5,0.2,2.5-0.4,2.8-1.6
	c0-0.1,0-0.3,0.1-0.4c0.2-2,0.2-2,2.3-2c1.9,0,3.8,0,5.6,0c0.6,0,0.8,0.1,0.8,0.8c0,2.7,0,5.4,0.1,8.1c0,0.9-0.5,0.8-1.1,0.8
	c-3.6,0-7.2,0-10.8,0C94.5,74.4,94.5,74.5,94.5,74.5z"/>
<path style="fill:#FEFEFE;" d="M73.1,47.8c3,0,6.1,0.1,9.1,0c1.1,0,1.3,0.3,1.2,1.3c-0.2,2.4-0.4,4.8-0.5,7.1c0,0.7-0.3,0.8-0.9,0.8
	c-2,0-3.9-0.1-5.9,0c-1,0.1-1.2-0.3-1.1-1.2c0.2-1.8-0.4-2.4-2.1-2.4c-0.5,0-0.8,0.1-0.8,0.7c-0.1,1.2-0.2,2.5-0.4,3.7
	c-0.1,0.7,0.2,0.8,0.8,0.8c1.2,0,2.5,0,3.7-0.1c1-0.1,1.5,0.1,1.2,1.3c-0.2,1-0.3,2.1-0.3,3.2c0,0.7-0.3,0.9-0.9,0.9
	c-1.4,0-2.8,0.1-4.2,0c-0.6,0-1,0.1-1,0.8c-0.1,1.1-0.2,2.3-0.3,3.4c0,0.3-0.1,0.7,0.1,0.9c1.4,1.6,0.3,3.2,0.3,4.9
	c0,0.6-0.2,0.9-0.9,0.9c-3.4,0.1-6.8,0.2-10.2,0.4c-0.6,0-0.9-0.1-0.7-0.8c0.2-1.1,0.3-2.3,0.5-3.4c0-0.1,0-0.3,0.1-0.4
	c2.1-2.1,1.5-4.9,2.1-7.4c0.5-2.5,0.8-5.1,1.1-7.7c0.1-1,0.4-2-0.6-2.8c-0.4-0.3,0-1,0.1-1.5c0.1-1.1-0.1-2.6,0.6-3.1
	c0.7-0.5,2.1-0.2,3.2-0.2C68.5,47.8,70.8,47.8,73.1,47.8z"/>
<path style="fill:#FEFEFE;" d="M24.5,42.4c1.2,1.3,3,1.7,4.2,3.1c0.8-3,3.3-5,3.4-8.2c0.8,1.7,0.5,3.3-0.1,4.9
	c-0.2,0.6-0.5,1.2-0.7,1.8c-0.1,0.3-0.2,0.7,0.2,0.9c0.5,0.3,0.7-0.1,0.9-0.4c0.3-0.6,0.5-1.2,0.8-2c0.4,0.9,0.1,1.7-0.2,2.4
	c-0.3,1-0.3,1.8,0.9,2.1c0.6,0.1,0.7,0.5,0.5,1.1c-0.4,1.5-0.4,3.2-1.1,4.4c-3.1,5.2-3.1,11.3-4.9,16.9c-0.2,0.7-0.3,1.4,0.2,2.1
	c0.4,0.4,0.1,0.9,0,1.3c-0.4,1.3-0.2,3-1.1,3.8c-0.9,0.8-2.5,0.3-3.9,0.4c-2.3,0.2-4.6,0.3-6.9,0.5c-0.7,0.1-0.9-0.1-0.7-0.8
	c0.4-1.2,0.7-2.5,1-3.7c0.1-0.2,0.1-0.6,0.3-0.7c1.5-1,1.6-2.6,2-4.2c1.1-4.2,2.2-8.4,3.3-12.6c0.2-0.8,0.4-1.6-0.2-2.3
	c-0.1-0.1-0.1-0.3-0.1-0.3c0.8-2.1,0.7-4.6,2.2-6.5c0.6-0.8,0.9-1.5,0.3-2.5C24.6,43.6,24.5,43.1,24.5,42.4z"/>
<path style="fill:#BD1E2D;" d="M109.8,118.9c1.2,1.7,1.8,3.6,2.1,5.6c0.2,1.6,0.1,3.1-0.1,4.7c-0.1,0.8,0.2,0.9,0.9,1
	c2.1,0.1,3.8-0.8,5.5-1.9c0.3-0.2,0.6-0.4,1-0.6c0.4,0.5,0.1,0.9-0.1,1.2c-2.6,4.8-6.6,7.6-11.9,8.7c-0.1,0-0.3,0-0.4,0
	c-2.2,0.2-2.6-0.3-1.7-2.3c0.6-1.4,1.1-2.8,0.9-4.7c-3.4,4.5-7.5,7.1-13.1,6.5c-3.9-0.4-7.2-2.1-10.2-4.6c1.3,0.2,2.5,0.4,3.8,0.6
	c3.6,0.6,6.2-1.6,6.3-5.3c0-1.4-0.2-2.8-0.7-4.4c2.4,1.1,4.7,1.9,7.3,1.6c-2.1-3.5-2.5-7.3-2.5-11.1c0-3.8,0.4-7.6,2.2-11.2
	c0,0.7,0,1.5,0,2.2c-0.1,3.5,0.2,7,1.6,10.3c0.7,1.8,1.7,3.4,3.3,4.6C106.3,121.6,108,121.3,109.8,118.9z"/>
<path style="fill:#BD1E2D;" d="M108.8,84.7c-1.7-0.1-3.1-1-4.6-1.7c-1.3-0.7-2.7-0.6-4.2,0.3c1.5,0.7,3.1,1,4.1,2.4
	c-0.9,0.5-1.9,0.6-2.7,1.5c0.4,0.1,0.8,0.1,1.1,0.3c1,0.4,1.3,1.3,1.5,2.2c0.1,0.7-0.7,0.8-1.1,1c-2.5,1.7-4,4.1-5.2,6.7
	c-1.9,4.2-2.9,8.6-3.2,13.6c-0.6-1.6-0.6-2.9-0.8-4.2c-0.8-5-1.6-9.9-1.5-15c0-1.4,0.1-2.8,0.6-4.2c0.2-0.6,0-0.8-0.6-0.8
	c-1.4-0.1-2.6-0.8-3.8-1.9c2.6-0.4,4.4-1.9,6.4-3.3c-0.8-0.6-1.7-0.9-2.2-1.7c-0.5-0.7-0.9-1.5-0.7-2.4c4.3,1.5,8.8,1.2,13.2,0.9
	c3.2-0.2,6.3,1.8,6.5,4.5C110.9,83.6,110,84.4,108.8,84.7z"/>
<path style="fill:#BD1E2D;" d="M80,108.7c-6.3-5-13.9-7.1-21.3-9.6c-4-1.3-7.8-3-11-5.9c-2.1-2-3.6-4.3-4.6-7.1
	c1.2,1.1,2.4,2.3,3.8,3.1c3.4,2.2,7.3,3,11.2,3.7c2.5,0.5,4.9,0.8,7.6,1.3c-0.8-2-1.5-3.8-1.6-5.7c-0.1-2.1,0.3-4.1,2.1-5.4
	c0.5,1.4,0.8,2.8,1.6,4.1c2.1,3.3,4.6,6.2,7,9.3c1.4,1.8,2.9,3.5,3.9,5.5c0.3,0.7,0.6,1.5-0.4,2c-0.4,0.2-0.9,0-1.3,0.2
	c1,1,1.9,2.2,2.6,3.4C79.9,107.8,80.3,108.2,80,108.7z"/>
<path style="fill:#BD1E2D;" d="M133.4,83c2.3,1.8,2.3,4.3,1.9,6.9c-0.2,1.4-0.8,2.8-1.4,4.3c3.9-0.6,7.7-1.2,11.5-2.1
	c4.2-1,8-2.6,11-5.9c-0.6,2.1-1.7,3.9-3.1,5.6c-3,3.5-7,5.4-11.2,6.9c-4.4,1.6-8.9,2.8-13.3,4.6c-3,1.3-5.8,2.8-8.4,4.8
	c-0.2,0.2-0.4,0.2-0.7,0.3c-0.3-0.5,0.1-0.9,0.3-1.3c0.7-1,1.4-2,2.2-2.9c-0.3-0.5-0.9-0.1-1.2-0.4c-0.7-0.6-0.4-1.3-0.1-2
	c1-1.9,2.3-3.6,3.6-5.2c2.5-3.2,5.3-6.3,7.4-9.8C132.6,85.6,132.8,84.2,133.4,83z"/>
<path style="fill:#BD1E2D;" d="M91.8,142.2c-0.2,2.6-0.1,5.1,0.3,7.6c0.9,4.9,2.8,9.3,5.9,13.3c1.2,1.5,2.9,1.6,4.5,1.6
	c10.4,0.3,18.4-4.1,24.5-12.3c0.2-0.3,0.4-0.6,0.6-0.8c0-0.1,0.2-0.1,0.4-0.1c-0.7,2.7-1.9,5-3.5,7.1c-4.4,5.6-10.5,8.3-17.3,9.5
	c-2.2,0.4-4.4,0.2-6.6,0.4c-2.9,0.1-4.8-1.2-6.4-3.4c-2.7-3.7-4.2-7.8-4.7-12.4C89.1,148.9,89.7,145.4,91.8,142.2z"/>
<path style="fill:#F16522;" d="M71.5,79.1c-12.4,1-24.7,2.5-36.9,4.3c-2.8,0.4-5.6,0.8-8.4,1c-3.7,0.3-7.1-0.4-9.4-3.6
	c-0.2-0.2-0.3-0.5-0.6-0.9c8.3,1.9,16.5,0.3,24.7-0.2c5.3-0.4,10.5-0.8,15.8-0.9c3.6-0.2,7.2,0,10.9-0.1c1.1,0,2.2,0,3.3,0
	C71.1,78.7,71.5,78.5,71.5,79.1z"/>
<path style="fill:#F16522;" d="M141.1,78.8c6.7,0,13.4,0.7,20,1.2c5.6,0.4,11.1,1.2,16.7,0.6c1.3-0.1,2.7-0.4,4.3-0.6
	c-1.4,2.4-3.4,3.7-5.9,4.2c-2.3,0.5-4.5,0.2-6.7-0.1c-10.9-1.5-21.7-3.1-32.6-4.2c-3.1-0.3-6.3-0.5-9.4-0.8c-0.3,0-0.6,0.1-0.8-0.3
	c1-0.3,1.9-0.1,2.9-0.1C133.5,78.8,137.3,78.6,141.1,78.8z"/>
<path style="fill:#BD1E2D;" d="M80.3,136c2,1.8,4.1,3.1,6.4,4c0.6,0.2,0.4,0.6,0.3,1c-3.1,8.2-1.7,15.9,2.7,23.2
	c0.5,0.9,1.2,1.7,1.8,2.7c-1.9-0.6-3.4-1.8-4.6-3.3c-3.6-4.1-5.1-9.1-5.5-14.4c-0.1-0.7-0.1-1.5,0-2.2c0.1-2.7,0-5.3-0.8-7.9
	C80.2,138.2,80.3,137.2,80.3,136z"/>
<path style="fill:#FEDC00;" d="M108.8,84.7c1-0.7,1.8-1.6,3-1.8c2.6,2.8,4.4,5.9,4.1,9.8c-0.1,1.4-0.5,2.7-1.4,4
	c-0.3-0.7-0.6-1.3-0.9-1.8c-1.4-2.5-3.4-4.3-6.2-5.1c-1.4-0.4-2.6-1.2-3.3-2.7C106,86.9,107.6,86,108.8,84.7z"/>
<path style="fill:#BD1E2D;" d="M76.5,139.7c0,1.7,0.2,3.1,0.7,4.5c0.3,0.8-0.1,1.7-0.2,2.5c-0.2,4.6,0.3,9.1,2.6,13.2
	c0.1,0.1,0.1,0.3,0.2,0.5c-3.2-0.8-5.3-5.5-5.4-11.9c-0.8,0.7-1,1.4-1.6,4.1c-0.3,1.5-0.1,2.9-0.2,4.5
	C69.1,153.6,72,142.9,76.5,139.7z"/>
<path style="fill:#FEDC00;" d="M133.4,83c0.1,1.4-0.4,2.6-1.1,3.8c-2.1,3.6-4.9,6.8-7.5,10c-1.3,1.6-2.6,3.2-3.6,5
	c-0.3,0.6-0.7,1.2-0.2,1.9c0.3,0.3,0.7,0.1,1.1,0.1c0.3,0,0.5,0,0.5,0.4c-1.1,1.3-2.2,2.6-2.9,4.2c-1,1-2.1,2-3.2,3.1
	c-0.2-2,0.1-3.9,0.6-5.7c1.2-4.2,3.8-7.6,6.6-10.8c1.7-2,3.5-3.9,5.1-5.9c1.5-1.9,2.8-3.9,3.1-6.4C132,81.9,132.2,82,133.4,83z"/>
<path style="fill:#FEDC00;" d="M80,108.7c-0.8-1.8-2.1-3.2-3.3-4.7c0.5-0.3,1.1,0,1.6-0.2c0.9-0.6,0.4-1.3,0.1-1.9
	c-1.3-2.5-3.2-4.5-4.9-6.7c-2.1-2.6-4.3-5.2-6-8.1c-0.7-1.3-1.4-2.6-1.2-4.1c0.4-0.3,0.7-0.6,1.3-1c0.3,1.8,0.7,3.4,1.6,4.8
	c1.2,2,2.7,3.7,4.2,5.5c2.4,2.7,4.8,5.3,6.7,8.4c2.1,3.3,3.3,6.9,3.1,10.8c-0.1,0.1-0.2,0.2-0.3,0.3C81.9,110.7,80.9,109.7,80,108.7
	z"/>
<path style="fill:#BD1E2D;" d="M115.6,141.9c0.9,2,1.3,3.9,1.6,5.8c0.3,2.7,0.5,5.4-0.9,7.8c-1.1,1.8-2.7,2.8-4.7,3.3
	C115.3,151.5,115.1,149.9,115.6,141.9z"/>
<path style="fill:#FDDB00;" d="M111.1,44.2c0.2,0.8,0,1.3-1,1.2c-1.1,0-0.9-0.7-0.9-1.4c0.1-1.3,0.1-2.5-0.2-3.8
	c-0.1-0.4-0.4-1,0.3-1.1c0.6-0.1,1.4-0.5,1.8,0.4c0.3,0.5,0.5,1.1,0.9,1.9c0-0.5,0-0.8,0-1c-0.3-1.4-0.2-1.5,1.1-1.4
	c0.6,0,0.8,0.3,0.7,0.8c-0.3,1.5,0.2,3,0.1,4.4c0,0.4,0.4,1-0.4,1.1c-0.6,0-1.3,0.3-1.7-0.5c-0.2-0.4-0.4-0.8-0.5-1.2
	c-0.1-0.1-0.1-0.3-0.3-0.3C111.1,43.7,110.8,44,111.1,44.2z"/>
<path style="fill:#FCDB00;" d="M68.1,39.1c1.2-0.3,1.5,0.3,1.5,1.4c0,1.3-0.1,2.5,0.2,3.8c0.1,0.4,0.1,1-0.4,1.1
	c-0.6,0.1-1.4,0.2-2-0.1c-0.4-0.2-0.1-0.7,0-1c0.1-0.2,0.3-0.5-0.2-0.5c-0.4,0-0.5,0.1-0.5,0.5c-0.1,1.1-0.8,1.5-1.9,1.2
	c-0.6-0.2-0.4-0.6-0.3-0.9c0.6-1.6,1.3-3.2,1.9-4.9C66.8,38.8,67.6,39.3,68.1,39.1z"/>
<path style="fill:#FCDB00;" d="M100.2,39.2c1.2-0.3,1.5,0.2,1.7,1.3c0.2,1.3,0.4,2.6,0.9,3.9c0.1,0.3,0.3,0.9-0.1,1
	c-0.6,0.3-1.4,0.2-2,0c-0.4-0.1-0.3-0.6-0.3-0.9c0-0.3,0.4-0.7-0.2-0.7c-0.6,0-0.3,0.4-0.3,0.7c0,0.4,0.2,0.9-0.4,0.9
	c-0.5,0.1-1.2,0.2-1.6-0.1c-0.3-0.2-0.2-0.7-0.1-1.1c0.3-1.2,0.6-2.5,0.8-3.7C98.8,39.5,99,38.7,100.2,39.2z"/>
<path style="fill:#FDDB00;" d="M135.6,45.4c-0.8,0.1-1.3-0.2-1.2-1.2c0-0.4,0-0.6-0.4-0.5c-0.6,0.1-0.2,0.4-0.1,0.6
	c0.1,0.5,0.5,1.1-0.5,1.1c-0.6,0-1.6,0.4-1.6-0.8c0-1.7,0.1-3.3,0.1-5c0-0.2,0-0.4,0.3-0.5c0.9-0.5,2.5,0.1,2.9,1.1
	c0.5,1.3,1,2.5,1.5,3.8C137.2,45.4,137.2,45.5,135.6,45.4z"/>
<path style="fill:#FDDB00;" d="M77.3,41.2c0,0.7-0.3,0.7-0.9,0.7c-0.6,0-0.5-0.5-0.5-0.8c0.1-2,0.1-2,2.1-2c0.7,0,1.4,0,2,0
	c0.4,0,1.1-0.3,1.2,0.3c0.2,0.8,0.1,1.6-0.2,2.4c-0.1,0.3-0.5,0.1-0.8,0.2c-0.6,0-0.3-0.6-0.6-0.9c-0.2,1.2-0.4,2.3-0.3,3.4
	c0,0.4,0.2,1-0.4,1.1c-0.6,0.1-1.3,0.3-1.9-0.1c-0.3-0.2-0.1-0.8,0.1-1.2c0.3-0.9,0.4-1.7,0.4-2.6c0.1-0.1,0.1-0.2,0-0.3
	C77.4,41,77.3,41.1,77.3,41.2z"/>
<path style="fill:#FCDA00;" d="M121.6,41.2c0,0.5-0.1,0.8-0.7,0.8c-0.6,0-0.7-0.2-0.8-0.7c-0.4-2.1-0.4-2.1,1.7-2.1
	c0.6,0,1.3,0.1,1.9,0c1.3-0.2,1.6,0.4,1.7,1.5c0.1,1.4,0.1,1.5-1.5,1.1c-0.1,0.9,0.1,1.8,0.4,2.6c0.1,0.3,0.3,0.8,0,1
	c-0.6,0.3-1.2,0.2-1.9,0.1c-0.5,0-0.4-0.5-0.4-0.8c0.2-1.2-0.2-2.3-0.3-3.4C121.7,41.1,121.7,41,121.6,41.2z"/>
<path style="fill:#FBDA00;" d="M89.3,44.1c0.7-0.3,0.6-0.8,0.7-1.1c0-0.8,0.6-0.7,1.1-0.7c0.6,0,0.6,0.3,0.6,0.8
	c0.1,2.4,0.1,2.4-2.3,2.4c-2.3,0-2.3,0-2.1-2.2c0.1-1.1,0.4-2.2,0.1-3.3c-0.1-0.3-0.1-0.8,0.4-0.8c0.6-0.1,1.3-0.2,1.9,0.1
	c0.3,0.2,0.1,0.6,0,0.9C89.2,41.4,89.3,42.7,89.3,44.1z"/>
<path style="fill:#BC1E2D;" d="M122.6,145.5c-0.2,2-0.3,4.1-0.6,6.1c-0.3,1.9-1.4,3-3,3.3c1.1-2.1,1.2-4.5,1.7-6.8
	c0.3-1.2,0.6-2.3,1.5-3.2C122.8,144.9,122.7,145.2,122.6,145.5z"/>
<path style="fill:#944521;" d="M71.5,79.1c-0.4-0.4-1-0.2-1.5-0.2c-4.5,0-8.9,0-13.4,0c0.3-0.2,0.6-0.2,1-0.2c4.8,0,9.6,0,14.5,0
	c0.5,0,1,0,1.7,0.4C72.9,79.1,72.2,79.1,71.5,79.1z"/>
<path style="fill:#B71E2C;" d="M124.5,149.7c0.2-1.6,0.9-2.8,1.2-4.2C126.8,147.2,126.4,148.7,124.5,149.7z"/>
<path style="fill:#BC5221;" d="M141.1,78.8c-3.9,0-7.7,0-11.6,0c-0.1-0.1-0.1-0.1-0.1-0.1c0,0,0.1-0.1,0.1-0.1c3.5,0,7.1,0,10.6,0
	C140.5,78.6,140.8,78.6,141.1,78.8z"/>
<path style="fill:#ECEBEB;" d="M28.7,44.1c-0.4-0.3-0.8-0.6-1.2-0.9c-0.5-0.4-0.8-0.7-0.3-1.3c0.7-0.7,0.7,0.2,1,0.4
	C28.8,42.7,29.4,43.2,28.7,44.1z"/>
<path style="fill:#884121;" d="M129.5,78.6c0,0.1,0,0.1,0,0.2c-0.9,0-1.8,0-2.8,0c-0.6,0.3-1.2,0.4-2,0.1
	C126.4,78.4,128,78.6,129.5,78.6z"/>
<path style="fill:#D8BB05;" d="M103.1,83.5c0.8,0,1.3,0.1,1.6,0.5c0.1,0.2-0.1,0.4-0.2,0.4C103.9,84.4,103.6,83.9,103.1,83.5z"/>
<path style="fill:#615417;" d="M111.1,44.2c-0.4-0.4-0.3-0.8-0.2-1.3c0.4,0.2,0.4,0.5,0.5,0.8C111.1,43.8,111.1,44.1,111.1,44.2z"/>
<path style="fill:#777475;" d="M49.8,59.6c0,0.2,0.1,0.6-0.1,0.6c-0.3-0.1-0.4-0.5-0.3-0.8C49.5,59.4,49.6,59.5,49.8,59.6z"/>
<path style="fill:#767374;" d="M143.6,64.3c-0.3-0.3-0.2-0.7-0.2-1.1c0.4,0.1,0.5,0.3,0.5,0.6C143.6,63.8,143.7,64.1,143.6,64.3z"/>
<path style="fill:#7D6D13;" d="M77.3,41.2c-0.1-0.3,0-0.8,0.3-0.7c0.4,0.2,0.2,0.6,0,0.9C77.4,41.4,77.4,41.3,77.3,41.2z"/>
<path style="fill:#9A9899;" d="M149.8,59.4c0.2,0.3,0.4,0.6,0.1,0.8c-0.1,0.1-0.4-0.3-0.4-0.5C149.6,59.5,149.7,59.4,149.8,59.4z"/>
<path style="fill:#4D431A;" d="M121.6,41.2c-0.2-0.2-0.2-0.4-0.1-0.5c0,0,0.1,0,0.2-0.1c0,0.2,0,0.4,0,0.6c0,0-0.1,0-0.1,0
	L121.6,41.2z"/>
<path style="fill:#A31E2B;" d="M122.6,145.5c0-0.2-0.1-0.5-0.3-0.6c0.1-0.2,0.3-0.5,0.4-0.3C123,144.9,122.9,145.3,122.6,145.5z"/>
<path style="fill:#231F20;" d="M170.8,53.6c1.1,0,1.9,0.8,2.3,2.2c0.8,3.2,1.5,6.4,2.3,9.6c0.3,1.2,0.6,2.5,0.9,3.7
	c0.2,0.7,0.3,1.4-0.4,1.9c-0.7,0.5-1.5,0.2-2.2-0.2c-0.7-0.5-1-1.2-1.1-1.9c-1-4.3-2-8.6-3-13C169.3,54.4,169.7,53.6,170.8,53.6z"/>
<path style="fill:#F16422;" d="M37.3,97.5c3,1,5.9,2,9,2.9c4.5,1.2,9,2.5,13.5,3.9c5.5,1.8,10.8,4.1,15.5,7.7
	c0.9,0.7,1.9,1.3,2.6,2.3c0.1,0.3,0,0.4-0.3,0.3c-2.2-1.4-4.3-2.8-6.5-3.9c-5.9-3-12.2-4.9-18.5-6.9c-4.8-1.5-9.7-2.8-14.2-5.2
	c-0.4-0.2-0.8-0.5-1.2-0.7C36.9,97.6,37,97.4,37.3,97.5z"/>
<path style="fill:#F16422;" d="M38.5,107.6c1.8,0,3.6,0.4,5.4,0.5c1.9,0.1,3.8,0.3,5.7,0.4c5,0.5,10,0.5,14.9,2.1
	c0.6,0.2,1.3,0.3,1.8,0.9c-4.4-0.8-8.7-0.9-13-1.3c-4.2-0.4-8.4-0.6-12.5-1.8C40,108.4,39.2,108.2,38.5,107.6z"/>
<path style="fill:#F06322;" d="M78.5,118c-5.8-0.3-11.5,1.9-17.4,1C66.9,117.9,72.5,115.7,78.5,118z"/>
<path style="fill:#E85824;" d="M77.5,114.5c0.1-0.1,0.2-0.2,0.3-0.3c0.5,0.4,0.9,0.8,1.4,1.3c0.1,0.1,0.2,0.3,0.3,0.5
	C78.8,115.6,78,115.2,77.5,114.5z"/>
<path style="fill:#E95A23;" d="M37.3,97.5c-0.1,0.1-0.2,0.2-0.3,0.3c-0.4-0.3-0.8-0.5-1.3-0.8c-0.1-0.2,0-0.4,0.2-0.3
	C36.4,97,36.8,97.3,37.3,97.5z"/>
<path style="fill:#D64028;" d="M36,96.8c-0.1,0.1-0.2,0.2-0.2,0.3c-0.3-0.1-0.5-0.3-0.6-0.6C35.5,96.3,35.7,96.5,36,96.8z"/>
<path style="fill:#F16422;" d="M163.4,97.3c-3.9,2.7-8.4,4-12.8,5.4c-7.3,2.2-14.7,4.2-21.5,7.7c-3,1.5-5.8,3.3-8.5,5.4
	c-0.1,0.1-0.2,0.1-0.3,0c3.5-4.1,8.1-6.8,12.9-9c7.1-3.2,14.6-4.9,22-6.9c2.7-0.8,5.4-1.6,7.9-2.8C163.4,96.9,163.4,97.1,163.4,97.3
	z"/>
<path style="fill:#F16422;" d="M161.1,107.6c-2.5,1.3-5.1,1.7-7.8,2c-5.1,0.7-10.2,0.9-15.2,1.3c-1.6,0.1-3.1,0.4-4.7,0.6
	c1.4-0.9,3-1.3,4.6-1.6c3.1-0.6,6.3-0.8,9.5-1.1c4.3-0.4,8.6-0.4,12.8-1.2C160.5,107.5,160.8,107.6,161.1,107.6z"/>
<path style="fill:#F06322;" d="M121.1,118c5.9-2.2,11.5-0.1,17.5,1c-3.2,0.7-6.1,0-8.9-0.3C126.9,118.4,124,117.9,121.1,118z"/>
<path style="fill:#D53E28;" d="M120.3,115.8c0.1,0,0.2,0,0.3,0c-0.2,0.3-0.4,0.6-0.9,0.7C119.8,116.1,120,115.9,120.3,115.8z"/>
<path style="fill:#E04D26;" d="M163.4,97.3c-0.1-0.1-0.2-0.2-0.3-0.3c0.2-0.3,0.5-0.4,0.8-0.4C163.9,97,163.6,97.2,163.4,97.3z"/>
<path style="fill:#242021;" d="M118,55.1c0.1-0.5-0.4-1.4,0.2-1.6c0.7-0.3,1.5-0.2,2.2,0.2c1,0.5,1.5,2.3,1.1,3.7
	c-0.3,1-1.2,1.5-2.6,1.4c-0.6,0-0.7-0.2-0.7-0.7C118.2,57.1,118.1,56.1,118,55.1z"/>
<path style="fill:#F16422;" d="M92.1,134.5c2.6-0.5,4.1-1.8,4.4-3.7c0.1-0.8-0.2-1.5-0.2-2.3c1.3,0.2,2.2,1,2.7,2.1
	c0.5,1.1,1,0.8,1.7,0.3c2.3-1.9,2.9-3.8,1.9-6.6c-0.1-0.3-0.2-0.6-0.3-1c-0.1-0.3,0-0.3,0.3-0.3c2.8,3.6,1.7,8.3-2.6,10.7
	c-2.6,1.4-5.3,1.8-8.1,1.4C91.7,134.7,92,134.6,92.1,134.5z"/>
<path style="fill:#F06422;" d="M109.4,127.6c0.6,1.5,0.9,2.9,0.5,4.3c-0.3,1,0.2,1.1,1,1c0.7-0.1,1.5-0.3,2.3-0.5
	c-0.6,1.1-4.1,2.9-5.1,2.7c-0.8-0.2-0.6-0.7-0.4-1.2c0.5-1.6,1.3-3.1,1.5-4.7C109.2,128.7,109.3,128.3,109.4,127.6z"/>
<path style="fill:#E65624;" d="M102.6,122.9c-0.1,0.1-0.2,0.2-0.3,0.3c-0.2-0.3-0.5-0.7-0.8-1.1
	C102.2,122.2,102.4,122.6,102.6,122.9z"/>
<path style="fill:#D94327;" d="M92.1,134.5c-0.1,0.2-0.2,0.3-0.2,0.5c-0.2,0-0.5,0-0.4-0.3C91.6,134.4,91.9,134.5,92.1,134.5z"/>
<path style="fill:#F06322;" d="M96.5,87.3c-0.7,4.2-0.4,8.5-1.8,12.6c-0.8-4.5-0.9-9,1.5-13.2C96.7,86.8,96.6,87,96.5,87.3z"/>
<path style="fill:#D94327;" d="M96.5,87.3c0-0.2,0-0.4-0.3-0.5c0.2-0.3,0.2-0.7,0.8-0.9C96.7,86.4,96.9,86.9,96.5,87.3z"/>
<path style="fill:#F16422;" d="M50.6,92.7c3.5,1.7,7.3,2.5,11,3.6c2.7,0.8,5.4,1.7,8,2.9c0.1,0,0.2,0.2,0.4,0.5
	c-7.1-1.3-14-2.3-19.8-6.8C50.3,92.7,50.3,92.6,50.6,92.7z"/>
<path style="fill:#EDB20A;" d="M78.3,103.8c-0.5,0.4-1.1,0.1-1.6,0.2C77.2,103.5,77.7,103.9,78.3,103.8z"/>
<path style="fill:#D64028;" d="M50.6,92.7c-0.1,0.1-0.2,0.2-0.2,0.2c-0.3-0.1-0.5-0.3-0.7-0.6C50.1,92.2,50.3,92.4,50.6,92.7z"/>
<path style="fill:#F16422;" d="M149.3,92.7c-2.1,2-4.6,3.2-7.3,4.1c-4.1,1.5-8.5,2.2-12.9,3c0.5-0.6,1.1-0.8,1.7-1
	c0.6-0.3,1.2-0.5,1.8-0.8c3.8-1.4,7.7-2.4,11.6-3.6c1.7-0.5,3.3-1.2,4.9-1.8C149.1,92.6,149.2,92.6,149.3,92.7z"/>
<path style="fill:#EDB10A;" d="M122.6,104.3c-0.4-0.6-1.2,0-1.6-0.5c0.5,0,1.1-0.1,1.6,0C123.3,103.9,122.8,104.1,122.6,104.3z"/>
<path style="fill:#D43D28;" d="M149.3,92.7c-0.1,0-0.2,0-0.3,0c0.2-0.2,0.5-0.5,0.9-0.4C149.8,92.7,149.5,92.7,149.3,92.7z"/>
<path style="fill:#8E7B10;" d="M67.6,41c0.2,0.5,0.2,0.8,0,1.3C67.1,41.9,67.1,41.5,67.6,41z"/>
<path style="fill:#5B5018;" d="M100.2,41.1c0.1,0.4,0.4,0.9,0.1,1.3c0,0-0.3,0-0.3,0C99.7,41.9,100,41.5,100.2,41.1z"/>
<path style="fill:#483F1A;" d="M133.5,41.2c0.2,0.4,0.6,0.7,0.3,1.2c0,0-0.2,0.1-0.2,0C133.2,42,133.5,41.6,133.5,41.2z"/>
<path style="fill:#5C5117;" d="M123.6,40.4c0.5,0.3,0.6,0.6,0.4,1C123.5,41.3,123.7,40.9,123.6,40.4z"/>
</svg>
