<?xml version="1.0" encoding="utf-8"?>
<!-- Generator: Adobe Illustrator 24.1.0, SVG Export Plug-In . SVG Version: 6.00 Build 0)  -->
<svg version="1.1" id="Layer_1" xmlns="http://www.w3.org/2000/svg" xmlns:xlink="http://www.w3.org/1999/xlink" x="0px" y="0px"
	 viewBox="0 0 200 200" style="enable-background:new 0 0 200 200;" xml:space="preserve">
<path style="fill:#FEFEFE;" d="M98.633,200c-27.386-0.383-51.861-10.682-71.503-31.517C7.721,147.897-1.257,123.081,0.114,94.851
	c1.294-26.639,11.853-49.374,31.264-67.643C52.074,7.73,76.963-1.283,105.305,0.147c26.639,1.344,49.354,11.976,67.574,31.428
	c19.313,20.619,28.285,45.389,26.901,73.579c-1.311,26.719-11.955,49.483-31.447,67.774C149.182,190.899,126.213,199.779,98.633,200
	z"/>
<path style="fill:#08102C;" d="M99.865,195.754C46.667,195.59,3.98,152.644,4.17,99.48c0.188-52.885,43.336-95.494,96.482-95.28
	c52.503,0.211,95.262,43.372,95.072,95.965C195.534,153.103,152.598,195.917,99.865,195.754z"/>
<path style="fill:#FEFEFE;" d="M173.3,99.792c-1.163,29.454-13.666,52.247-39.735,66.912c-8.798,4.949-18.384,7.612-28.473,8.188
	c-23.711,1.354-43.443-7.056-59.31-24.596c-7.211-7.971-12.27-17.22-15.429-27.493c-2.923-9.506-4.026-19.221-3.221-29.143
	C29.753,61.337,52,34.679,81.698,27.127c25.565-6.501,48.321-0.451,67.742,17.344c11.813,10.824,18.983,24.429,22.249,40.086
	C172.732,89.554,173.216,94.623,173.3,99.792z"/>
<path style="fill:#FEFEFE;" d="M114.302,14.941c-1.016,1.612-2.032,3.224-3.116,4.942c-0.576-2.177-1.123-4.243-1.669-6.308
	c-0.053,0.006-0.105,0.012-0.158,0.017c-0.268,2.272-0.565,4.541-0.786,6.818c-0.063,0.65-0.211,0.907-0.903,0.754
	c-0.529-0.117-1.086-0.105-1.709-0.156c0.946-1.653,0.666-3.433,0.886-5.124c0.283-2.179,0.37-4.383,0.605-6.569
	c0.067-0.624-0.136-1.128-0.411-1.631c0.098-0.046,0.13-0.075,0.16-0.073c2.779,0.159,2.783,0.158,3.543,2.807
	c0.392,1.368,0.768,2.74,1.192,4.259c1.083-1.664,2.151-3.172,3.07-4.765c0.542-0.94,1.162-1.2,2.147-0.85
	c0.449,0.16,0.934,0.219,1.454,0.336c-1.153,1.345-1.032,3.052-1.401,4.602c-0.509,2.136-0.875,4.306-1.335,6.455
	c-0.145,0.679-0.268,1.336,0.06,1.962c-0.211,0.217-0.36,0.057-0.51,0.022c-2.048-0.477-2.03-0.474-1.636-2.584
	c0.278-1.483,0.501-2.976,0.749-4.465C114.555,15.188,114.871,14.834,114.302,14.941z"/>
<path style="fill:#FEFEFE;" d="M145.028,168.093c1.668,3.364,4.682,7.71,5.745,8.157c-0.841,0.568-1.628,1.088-2.403,1.625
	c-0.42,0.291-0.713-0.006-1.028-0.19c-1.873-1.094-3.708-2.247-5.493-3.479c-0.299-0.207-0.576-0.526-1.025-0.32
	c1.023,1.971,2.025,3.95,3.079,5.9c0.27,0.499,0.173,0.735-0.304,0.93c-0.775,0.316-1.416,0.963-2.443,0.99
	c0.426-0.591,0.207-1.085-0.029-1.568c-1.469-2.997-2.949-5.989-4.409-8.991c-0.245-0.504-0.594-0.882-1.127-1.099
	c0.105-0.112,0.143-0.176,0.2-0.21c2.125-1.244,2.119-1.235,4.146,0.161c1.603,1.104,3.221,2.186,4.848,3.288
	c0.277-0.482-0.073-0.755-0.247-1.059c-0.941-1.642-1.877-3.287-2.85-4.909c-0.273-0.456-0.369-0.741,0.2-1.041
	c0.602-0.318,1.148-0.743,1.8-1.176c0.073,0.414,0.133,0.757,0.194,1.099C144.401,166.749,144.796,167.371,145.028,168.093z"/>
<path style="fill:#FEFEFE;" d="M51.314,39.262c0.097-0.797-0.207-1.276-0.575-1.752c-1.976-2.559-3.941-5.126-5.898-7.699
	c-0.359-0.472-0.746-0.864-1.563-0.836c1.953-1.776,3.802-3.363,5.802-4.757c1.056-0.736,2.408-0.534,3.257,0.485
	c0.859,1.03,1.64,2.154,1.587,3.592c-0.015,0.408,0.164,0.528,0.46,0.676c1.509,0.754,2.185,2.156,2.619,3.651
	c0.264,0.906,0.127,1.88-0.685,2.556C54.712,36.513,53.083,37.822,51.314,39.262z"/>
<path style="fill:#FEFEFE;" d="M124.789,176.812c0.008-1.468,0.543-2.24,1.89-2.729c0.837-0.304,1.674-0.607,2.512-0.909
	c1.626-0.586,2.973-0.113,3.659,1.474c1.018,2.355,1.962,4.746,2.841,7.157c0.605,1.659-0.103,3.128-1.729,3.78
	c-1.206,0.483-2.437,0.917-3.684,1.283c-1.343,0.396-2.671-0.139-3.143-1.448c-0.963-2.674-1.691-5.427-2.343-8.197
	C124.762,177.094,124.789,176.95,124.789,176.812z"/>
<path style="fill:#FEFEFE;" d="M136.15,30.565c0.661-0.456,0.765-1.132,0.875-1.8c0.112-0.677,0.192-1.359,0.311-2.034
	c0.312-1.779,0.307-1.755-1.305-2.525c-0.436-0.208-0.57-0.125-0.749,0.276c-0.572,1.283-1.19,2.545-1.773,3.823
	c-0.198,0.433-0.369,0.689-0.899,0.342c-0.535-0.35-1.142-0.589-1.838-0.936c0.704-0.286,0.977-0.78,1.21-1.313
	c1.333-3.044,2.659-6.092,4.013-9.126c0.248-0.556,0.287-1.1,0.086-1.796c2.269,1.081,4.382,2.135,6.371,3.411
	c0.947,0.608,1.419,1.84,0.936,3.026c-0.682,1.672-1.209,3.587-3.418,4.008c-0.449,0.086-0.398,0.501-0.457,0.827
	c-0.278,1.518-0.576,3.032-0.816,4.556c-0.089,0.565-0.214,0.752-0.751,0.379C137.383,31.292,136.785,30.956,136.15,30.565z"/>
<path style="fill:#FEFEFE;" d="M82.279,189.798c-1.289-0.309-2.35-0.562-3.518-0.842c0.701-1.344,1.378-2.594,2.009-3.866
	c1.052-2.12,2.071-4.257,3.111-6.383c0.336-0.687,0.641-1.368-0.072-2.199c1.635,0.315,3.037,0.628,4.455,0.841
	c0.654,0.098,0.53,0.568,0.552,0.913c0.226,3.534,0.664,7.044,1.074,10.559c0.085,0.726,0.625,1.672,0.081,2.125
	c-0.383,0.318-1.361-0.075-2.073-0.158c-0.334-0.039-0.689,0.007-1.018-0.244c0.719-0.846,0.339-1.787,0.221-2.703
	c-0.037-0.29-0.309-0.313-0.556-0.357c-1.013-0.18-2.027-0.358-3.031-0.578c-0.484-0.106-0.774-0.019-0.941,0.484
	C82.323,188.134,81.55,188.776,82.279,189.798z"/>
<path style="fill:#FEFEFE;" d="M111.793,180.866c-0.165-2.343,0.619-3.371,2.615-3.751c0.741-0.141,1.485-0.268,2.225-0.417
	c1.688-0.34,2.961,0.312,3.396,1.989c0.654,2.519,1.226,5.065,1.696,7.625c0.352,1.917-0.558,3.063-2.496,3.442
	c-1.177,0.23-2.355,0.501-3.546,0.605c-1.634,0.142-2.783-0.814-3.007-2.434C112.34,185.478,112.061,183.022,111.793,180.866z"/>
<path style="fill:#FEFEFE;" d="M57.131,18.759c1.635-0.876,3.061-1.619,4.463-2.407c0.384-0.216,0.54-0.065,0.749,0.208
	c2.534,3.298,4.97,6.665,7.301,10.11c0.281,0.415,0.158,0.553-0.265,0.72c-0.635,0.25-1.237,0.586-1.887,0.903
	c-0.142-1.12-0.721-1.95-1.578-2.579c-0.156-0.114-3.099,1.6-3.07,1.758c0.171,0.959,0.148,2.01,1.115,2.64
	c-0.04,0.044-0.071,0.103-0.119,0.127c-0.761,0.38-1.55,1.358-2.191,1.124c-0.641-0.234-0.613-1.479-0.829-2.289
	c-0.788-2.948-1.545-5.904-2.266-8.869C58.383,19.503,58.114,18.988,57.131,18.759z"/>
<path style="fill:#FEFEFE;" d="M130.838,15.483c-0.014,0.077-0.025,0.43-0.139,0.746c-0.876,2.418-1.723,4.847-2.676,7.234
	c-0.686,1.719-1.931,2.205-3.654,1.599c-0.582-0.205-1.16-0.421-1.743-0.622c-1.756-0.606-2.477-1.771-2.037-3.575
	c0.609-2.498,1.278-4.983,2-7.452c0.535-1.829,1.868-2.478,3.67-1.894c0.912,0.295,1.816,0.617,2.714,0.954
	C130.324,12.981,130.848,13.769,130.838,15.483z"/>
<path style="fill:#FEFEFE;" d="M149.232,23.337c2.772,1.87,5.281,4.061,7.858,6.392c-1.068,0.451-2.042,0.864-3.079,1.302
	c0.024-0.797-0.382-1.28-0.922-1.694c-0.327-0.251-0.632-0.532-0.949-0.797c-1.88-1.571-1.861-1.558-3.234,0.438
	c-0.316,0.459-0.226,0.658,0.166,0.969c1.159,0.917,2.283,1.877,3.468,2.859c-0.607,0.53-1.337,0.659-1.936,1.024
	c-0.363,0.221-0.565-0.025-0.804-0.225c-0.714-0.595-1.449-1.164-2.148-1.776c-0.341-0.298-0.489-0.259-0.766,0.112
	c-1.474,1.98-1.483,1.963,0.383,3.531c0.866,0.727,1.708,1.484,2.561,2.227c-0.076,0.098-0.105,0.155-0.15,0.19
	c-1.374,1.051-2.509,0.934-3.757-0.385c-1.121-1.184-2.549-2.078-3.715-2.999c2.643-3.183,4.647-6.791,6.865-10.252
	C149.213,23.963,149.024,23.616,149.232,23.337z"/>
<path style="fill:#FEFEFE;" d="M57.921,165.15c1.627,1.019,3.245,2.05,4.883,3.052c1.442,0.882,1.971,2.077,1.422,3.653
	c-0.302,0.866-0.727,1.71-1.22,2.485c-0.834,1.311-2.217,1.627-3.579,0.872c-1.109-0.615-2.186-1.286-3.315-1.954
	c-0.802,1.363-1.614,2.711-2.39,4.081c-0.252,0.444-0.448,0.607-0.926,0.244c-0.705-0.535-1.466-0.995-2.291-1.544
	c0.618-0.175,1.06-0.378,1.349-0.846c1.887-3.065,3.785-6.123,5.679-9.183C57.74,165.757,57.312,165.219,57.921,165.15z"/>
<path style="fill:#FEFEFE;" d="M69.361,171.639c2.689,1.023,2.689,1.023,1.753,3.479c-0.878,2.303-1.712,4.625-2.655,6.902
	c-0.331,0.799-0.098,1.057,0.616,1.303c1.805,0.624,3.589,1.306,5.415,1.977c-0.418,0.692-1.09,1.085-1.587,1.643
	c-0.23,0.259-0.512,0.133-0.765,0.044c-2.635-0.928-5.246-1.919-7.954-3.189c0.941-0.266,1.184-0.941,1.458-1.616
	c1.159-2.856,2.332-5.707,3.517-8.554C69.414,173.014,69.606,172.408,69.361,171.639z"/>
<path style="fill:#FEFEFE;" d="M93.895,7.486c-0.296,0.729-0.507,1.307-0.762,1.864c-0.273,0.595-0.248,1.63-1.446,0.828
	c-0.365-0.244-1.072-0.008-1.616,0.054c-0.617,0.071-0.383,0.568-0.351,0.889c0.217,2.188,0.464,4.374,0.702,6.56
	c0.104,0.956,0.193,1.915,0.323,2.867c0.076,0.561-0.075,0.819-0.689,0.813c-0.57-0.006-1.126,0.282-1.751,0.15
	c0.464-1.058,0.124-2.091-0.008-3.124c-0.294-2.317-0.615-4.632-0.897-6.951c-0.076-0.625-0.242-0.879-0.954-0.694
	c-0.948,0.246-1.935,0.34-3.024,0.519c0.231-0.789,0.428-1.438,0.61-2.091c0.092-0.331,0.276-0.516,0.629-0.573
	C87.678,8.111,90.698,7.653,93.895,7.486z"/>
<path style="fill:#FEFEFE;" d="M106.125,178.171c-0.294,0.754-0.496,1.37-0.771,1.952c-0.257,0.545-0.235,1.594-1.371,0.675
	c-0.372-0.301-1.201-0.12-1.802-0.032c-0.491,0.072-0.264,0.566-0.26,0.863c0.043,2.99,0.083,5.981,0.192,8.969
	c0.03,0.813-0.131,1.204-1.021,1.127c-0.675-0.058-1.358-0.012-2.13-0.012c0.941-1.501,0.444-3.053,0.575-4.522
	c0.168-1.878,0.053-3.78,0.113-5.67c0.02-0.637-0.161-0.841-0.804-0.804c-0.955,0.055-1.916,0.014-2.967,0.014
	c0.206-0.886,0.701-1.468,1.003-2.137c0.154-0.339,0.445-0.27,0.707-0.258C100.373,178.47,103.153,178.396,106.125,178.171z"/>
<path style="fill:#FEFEFE;" d="M185.092,94.066c0.36,1.143,0.762,2.275,1.063,3.434c0.15,0.577,0.393,0.772,0.984,0.749
	c1.165-0.046,2.334-0.014,3.843-0.014c-1.112,0.857-1.973,1.592-2.907,2.217c-0.649,0.434-0.811,0.848-0.524,1.597
	c0.409,1.066,0.679,2.185,1.095,3.57c-1.157-0.878-2.095-1.515-2.94-2.257c-0.569-0.499-0.947-0.429-1.485,0.028
	c-0.88,0.748-1.832,1.413-2.946,2.258c0.449-1.429,0.79-2.627,1.21-3.797c0.212-0.591,0.063-0.923-0.427-1.27
	c-0.972-0.687-1.9-1.436-3.093-2.348c1.474,0,2.657-0.029,3.838,0.012c0.57,0.02,0.85-0.12,1.003-0.723
	c0.299-1.177,0.712-2.325,1.077-3.484C184.953,94.048,185.023,94.057,185.092,94.066z"/>
<path style="fill:#FEFEFE;" d="M18.072,105.403c-0.679-0.521-1.356-1.044-2.036-1.563c-1.327-1.014-1.328-1.013-2.695,0.029
	c-0.704,0.537-1.408,1.075-2.337,1.784c0.434-1.399,0.756-2.55,1.153-3.675c0.222-0.631,0.176-1.044-0.434-1.451
	c-0.965-0.643-1.857-1.395-3.034-2.294c1.19,0,2.094,0,2.998,0c1.595,0,1.592-0.001,2.062-1.489
	c0.278-0.881,0.568-1.759,0.855-2.638c0.006-0.019,0.052-0.026,0.189-0.089c0.297,0.932,0.71,1.835,0.854,2.779
	c0.195,1.274,0.857,1.581,2.024,1.456c0.903-0.096,1.825-0.019,3.054-0.019c-1.208,0.923-2.15,1.692-3.147,2.385
	c-0.484,0.337-0.564,0.658-0.381,1.192c0.395,1.158,0.73,2.337,1.09,3.508C18.215,105.348,18.143,105.375,18.072,105.403z"/>
<path style="fill:#FEFEFE;" d="M175.307,48.812c-0.461,1.314-0.794,2.394-1.223,3.434c-0.277,0.672-0.213,1.101,0.407,1.555
	c0.932,0.68,1.782,1.472,2.911,2.423c-1.451-0.107-2.593-0.145-3.72-0.291c-0.684-0.089-0.989,0.132-1.186,0.773
	c-0.34,1.105-0.763,2.184-1.248,3.547c-0.4-1.394-0.754-2.473-1.011-3.575c-0.172-0.741-0.478-1.089-1.303-1.088
	c-1.113,0.001-2.227-0.165-3.631-0.284c1.256-0.822,2.251-1.485,3.259-2.129c0.343-0.219,0.583-0.401,0.42-0.897
	c-0.384-1.172-0.7-2.365-1.06-3.603c0.437-0.195,0.675,0.225,0.966,0.45c0.866,0.672,1.658,1.799,2.59,1.923
	c0.953,0.127,1.84-1.042,2.786-1.595C174.53,49.302,174.788,49.134,175.307,48.812z"/>
<path style="fill:#FDFEFE;" d="M25.441,141.426c0.924,0.76,1.884,1.482,2.757,2.296c0.457,0.425,0.771,0.394,1.236,0.071
	c0.959-0.666,1.951-1.282,3.197-2.093c-0.477,1.361-0.826,2.485-1.27,3.569c-0.251,0.614-0.159,0.995,0.365,1.396
	c0.921,0.706,1.793,1.476,2.831,2.342c-1.29,0.161-2.391-0.02-3.479-0.152c-0.771-0.094-1.103,0.166-1.314,0.884
	c-0.305,1.04-0.718,2.049-1.297,3.078c-0.295-1.001-0.679-1.987-0.862-3.008c-0.181-1.009-0.681-1.337-1.656-1.329
	c-1.022,0.008-2.046-0.138-3.334-0.238c0.97-0.643,1.736-1.143,2.495-1.653c1.59-1.07,1.371-0.54,0.872-2.412
	c-0.237-0.888-0.492-1.771-0.738-2.656C25.309,141.488,25.375,141.457,25.441,141.426z"/>
<path style="fill:#FEFEFE;" d="M165.695,149.051c0.944-1.053,1.727-1.965,2.556-2.834c0.359-0.377,0.466-0.666,0.153-1.144
	c-0.675-1.032-1.287-2.105-1.965-3.227c0.934,0,1.642,0.563,2.414,0.899c1.801,0.784,1.789,0.808,3.072-0.638
	c0.513-0.578,1.035-1.147,1.731-1.917c-0.104,1.456-0.146,2.647-0.292,3.824c-0.079,0.641,0.155,0.91,0.709,1.141
	c1.104,0.462,2.178,0.997,3.534,1.627c-1.383,0.268-2.502,0.522-3.632,0.689c-0.686,0.101-0.99,0.341-0.991,1.097
	c-0.002,1.13-0.154,2.26-0.269,3.725c-0.758-1.264-1.414-2.274-1.98-3.332c-0.331-0.617-0.668-0.792-1.379-0.601
	C168.231,148.662,167.064,148.803,165.695,149.051z"/>
<path style="fill:#FEFEFE;" d="M28.006,59.1c-0.116-1.504-0.249-2.667-0.278-3.833c-0.016-0.65-0.266-0.872-0.883-0.963
	c-1.147-0.168-2.28-0.428-3.722-0.708c1.314-0.617,2.349-1.152,3.425-1.588c0.632-0.256,0.904-0.557,0.806-1.283
	c-0.155-1.143-0.187-2.302-0.292-3.733c0.786,0.869,1.458,1.494,1.985,2.225c0.69,0.957,1.374,1.205,2.436,0.523
	c0.78-0.5,1.697-0.786,2.704-0.975c-0.605,1.02-1.175,2.062-1.828,3.05c-0.331,0.502-0.281,0.809,0.126,1.228
	c0.835,0.859,1.61,1.776,2.54,2.815c-1.422-0.265-2.659-0.455-3.874-0.739c-0.548-0.128-0.798,0.029-1.055,0.487
	C29.479,56.7,28.81,57.764,28.006,59.1z"/>
<path style="fill:#FEFEFE;" d="M74.078,25.355c-1.32-4.259-2.502-8.484-4.37-12.604c-0.177,0.164-0.135,0.096-0.075,0.074
	c0.833-0.307,1.799-1.016,2.467-0.801c0.72,0.232,0.659,1.515,0.921,2.343c0.763,2.416,1.502,4.839,2.219,7.269
	c0.168,0.57,0.357,0.714,0.971,0.499c1.513-0.53,3.063-0.955,4.733-1.464c-0.136,0.826-0.264,1.515-0.359,2.208
	c-0.052,0.376-0.281,0.48-0.606,0.581C77.925,24.106,75.879,24.775,74.078,25.355z"/>
<path style="fill:#FEFEFE;" d="M98.537,7.33c1.32,0,2.442,0,3.698,0c-0.997,0.949-0.668,2.113-0.715,3.167
	c-0.13,2.88-0.148,5.764-0.225,8.646c-0.014,0.538,0.157,1.003,0.512,1.521c-1.065,0-2.032,0-3.06,0
	c0.434-0.641,0.491-1.363,0.486-2.117c-0.02-2.955-0.008-5.91-0.008-8.865C99.224,8.867,99.33,8.029,98.537,7.33z"/>
<path style="fill:#0C0F28;" d="M145.028,168.093c-0.459-0.584-0.875-1.194-1.146-1.892c0.222-0.144,0.15-0.427,0.354-0.905
	c-0.001,0.868,0.248,1.351,0.566,1.831C144.971,167.382,145.375,167.679,145.028,168.093z"/>
<path style="fill:#B6B8BC;" d="M57.921,165.15c-0.355,0.184-0.037,0.673-0.389,0.859c-0.006-0.259-0.039-0.522-0.012-0.777
	C57.562,164.848,57.732,164.904,57.921,165.15z"/>
<path style="fill:#3B4053;" d="M114.302,14.941c0.046-0.226,0.115-0.434,0.387-0.498c0.104,0.348,0.032,0.656-0.154,0.946
	C114.457,15.239,114.38,15.09,114.302,14.941z"/>
<path style="fill:#B6B8BD;" d="M149.232,23.337c-0.003,0.314,0.154,0.656-0.158,0.917c0.005-0.323,0.01-0.647,0.018-0.97
	c0-0.005,0.047-0.019,0.064-0.011C149.185,23.287,149.207,23.315,149.232,23.337z"/>
<path style="fill:#08102C;" d="M90.796,50.301c-2.129,0.511-4.276,0.96-6.384,1.546c-6.439,1.791-12.527,4.429-18.315,7.762
	c-9.4,5.413-17.627,12.273-24.979,20.223c-3.836,4.148-7.36,8.534-10.48,13.243c-0.519-0.053-0.28-0.401-0.258-0.665
	c0.667-8.006,2.809-15.619,6.123-22.918c0.069-0.153,0.178-0.288,0.269-0.431c1.177-1.56,2.848-2.565,4.325-3.776
	c8.453-6.931,16.941-13.818,25.415-20.723c5.623-4.582,11.238-9.173,16.887-13.723c0.746-0.601,1.428-1.293,2.368-1.608
	c5.974-1.285,12.015-1.691,18.11-1.368c3.842,0.204,7.647,0.7,11.404,1.539c0.3,0.067,0.593,0.163,0.889,0.246
	c0.068,0.52-0.364,0.701-0.668,0.952c-4.695,3.873-9.434,7.691-14.149,11.54c-0.373,0.305-0.738,0.617-1.172,0.988
	c2.343-0.091,4.6,0.074,6.858,0.271c3.254,0.283,6.499,0.634,9.691,1.338c0.946,0.208,1.677,0.106,2.464-0.536
	c3.519-2.868,7.068-5.698,10.629-8.514c0.31-0.245,0.572-0.622,1.058-0.526c4.175,1.972,8.015,4.48,11.628,7.339
	c1.773,1.403,3.542,2.817,5.076,4.493c0.063,0.531-0.407,0.682-0.703,0.925c-2.129,1.746-4.3,3.442-6.439,5.176
	c-1.115,0.904-1.083,0.868,0.065,1.815c2.056,1.697,4.236,3.49,4.952,6.078c0.752,2.718,2.808,3.978,4.673,5.565
	c0.079,0.067,0.166,0.122,0.247,0.187c1.353,1.095,1.348,1.088,2.721,0.068c1.796-1.335,3.6-2.659,5.405-3.982
	c0.37-0.271,0.716-0.676,1.27-0.571c3.543,5.803,6.172,11.993,7.857,18.582c-0.133,0.481-0.571,0.673-0.922,0.931
	c-1.859,1.364-3.701,2.75-5.583,4.081c-0.617,0.436-0.918,0.94-0.896,1.72c0.16,5.646-1.262,10.972-3.377,16.14
	c-0.505,1.234-1.123,2.429-1.757,3.567c4.501-3.246,9.044-6.524,13.609-9.771c0.375-0.267,0.721-0.81,1.321-0.395
	c0.274,5.758-0.215,11.461-1.26,17.121c-0.592,3.205-1.408,6.353-2.583,9.4c-1.491,1.552-3.346,2.631-5.07,3.876
	c-7.614,5.501-15.246,10.978-22.866,16.471c-1.021,0.736-1.053,0.843-0.592,2.069c1.288,3.423,2.745,6.76,4.977,9.701
	c0.219,0.289,0.545,0.553,0.447,0.995c-2.883,2.468-6.041,4.53-9.357,6.36c-0.64,0.011-0.745-0.525-0.934-0.946
	c-1.009-2.257-1.335-4.688-1.772-7.087c-0.895-4.912-1.304-9.872-1.538-14.856c-0.134-2.847-0.285-5.693-0.384-8.541
	c-0.025-0.713,0.08-1.417,0.165-2.122c-0.142,1.028-0.165,2.073-0.361,3.094c-0.062,0.279-0.056,0.57-0.125,0.848
	c-0.154,0.42-0.14,0.858-0.14,1.295c-0.002,0.276-0.02,0.551-0.082,0.821c-0.153,0.429-0.116,0.877-0.128,1.32
	c-0.006,0.24-0.029,0.477-0.093,0.71c-0.134,2.927-0.401,5.849-0.292,8.783c0.015,0.411,0.017,0.819-0.054,1.224
	c-0.173,0.859-0.458,1.708-0.317,2.605c-0.038-0.408-0.092-0.818,0.06-1.223c0.578,0.113,0.502,0.602,0.498,0.976
	c-0.044,4.206,0.423,8.378,0.808,12.556c0.013,0.137,0.016,0.275,0.003,0.413c-0.026,0.276-0.037,0.627-0.318,0.713
	c-0.347,0.105-0.561-0.213-0.707-0.482c-0.69-1.271-1.352-2.555-1.906-3.893c-2.356-5.681-3.983-11.576-5.254-17.585
	c-1.398-6.61-2.332-13.283-2.932-20.099c-1.175,3.551-1.917,7.124-2.653,10.697c-1.187,5.769-1.893,11.614-2.637,17.449
	c-0.505,3.954-0.857,7.931-1.141,11.911c-0.127,1.782-0.336,3.559-0.391,5.347c-0.039,0.479,0.013,0.965-0.096,1.44
	c-0.144,0.292-0.115,0.808-0.524,0.787c-0.431-0.021-0.479-0.527-0.576-0.877c-1.047-3.785-1.738-7.638-2.312-11.522
	c-0.554-3.746-0.886-7.51-1.162-11.278c-0.188-2.569-0.046-5.157-0.262-7.731c-0.001-0.809,0.017-1.618-0.017-2.427
	c0.074-1.437,0.33-2.864,0.223-4.31c0.025-0.802-0.044-1.607,0.062-2.407c0.205-0.572,0.144-1.168,0.151-1.758
	c0.007-0.415-0.009-0.833,0.076-1.243c0.243-1.723,0.242-3.475,0.595-5.185c0.091-0.395,0.249-0.777,0.245-1.185
	c-0.002-0.055,0.014-0.113,0.045-0.166c-0.119,0.017-0.028,0.115-0.063,0.17c-0.006,0.148-0.021,0.289-0.065,0.428
	c-2.142,5.141-4.103,10.343-5.409,15.766c-0.837,3.474-1.409,6.993-1.697,10.559c-0.119,1.471-0.329,2.931-0.061,4.404
	c0.047,0.174,0.069,0.351,0.085,0.53c0.022,0.74,0.039,1.479,0.002,2.219c-0.48,2.371-0.571,4.766-0.622,7.181
	c-0.054,2.507,0.126,5.014-0.05,7.517c-0.303,1.227-0.121,2.472-0.131,3.71c0.001,0.123-0.038,0.232-0.115,0.328
	c-2.408,0.009-4.805-0.167-7.197-0.432c-0.518-0.183-0.675-0.665-0.879-1.094c-3.247-6.838-5.764-13.923-7.293-21.35
	c-0.791-3.843-1.336-7.719-1.666-11.801c-1.221,1.243-2.229,2.483-3.26,3.693c-3.238,3.802-6.278,7.761-9.236,11.784
	c-0.308,0.419-0.583,1.179-1.174,0.959c-0.573-0.213-0.206-0.928-0.142-1.404c0.782-5.816,2.07-11.513,4.078-17.037
	c1.447-3.983,3.095-7.881,4.996-11.668c2.709-5.397,5.943-10.475,9.524-15.466c-0.316,0.036-0.514,0.312-0.774,0.201
	c-1.979,0.564-3.987,0.99-6.05,1.036c-2.692,0.061-5.342-0.427-7.997-0.76c-5.082-0.636-10.013-0.626-14.461,2.453
	c-2.383,1.649-4.602,3.48-6.626,5.553c-0.24,0.246-0.394,0.69-0.902,0.562c1.088-2.911,2.409-5.684,4.164-8.257
	c2.514-3.684,5.648-6.717,9.303-9.24c6.009-4.148,12.785-6.548,19.688-8.661c3.896-1.193,7.809-2.335,11.447-4.23
	c1.219-0.635,2.43-1.273,3.464-2.196c0.034-0.146,0.261-0.276,0.166-0.383c-0.062-0.07-0.298,0.07-0.463,0.085
	c-2.334,1.5-4.947,2.199-7.66,2.434c-3.586,0.311-7.134-0.09-10.622-0.981c-0.185-0.047-0.352-0.164-0.722-0.342
	c2.755-0.079,5.27-0.437,7.707-1.212c1.204-0.383,2.374-0.874,3.558-1.318c0.023-0.009,0.055-0.056,0.049-0.067
	c-0.027-0.049-0.066-0.092-0.1-0.138c-6.257-0.692-9.804-6.098-9.592-11.328c0.064-1.578-0.079-1.652-1.649-1.797
	c-0.803-0.074-1.655,0.228-2.405-0.287c-0.792-0.618-1.67-0.424-2.542-0.266c-0.903,0.164-1.7,0.625-2.633,1.015
	c0.023-0.732,0.391-1.237,0.627-1.785c1.279-2.266,3.505-2.59,5.772-2.76c2.931-0.22,5.738,0.552,8.551,1.206
	c2.348,0.546,4.646,1.285,6.908,2.107c2.67,0.97,5.414,0.884,8.164,0.74c1.226-0.064,2.468,0.031,3.681-0.248
	c6.312-0.562,12.329-2.215,18.076-4.872c1.611-0.745,1.739-1.492,0.391-2.736c-1.522-1.404-3.281-2.483-5.054-3.535
	c-0.074-0.104-0.067-0.202,0.023-0.294c3.972,1.208,7.606,3.134,11.147,5.255c2.013,1.206,4.111,2.208,6.446,2.607
	c0.708,0.121,1.648,0.33,2.026-0.287c0.304-0.496-0.385-1.166-0.783-1.662c-1.971-2.46-4.562-4.143-7.256-5.685
	c-5.023-2.875-10.364-5.007-15.896-6.664c-1.997-0.598-4.043-1.032-6.067-1.541c-0.507-0.27-1.029-0.441-1.608-0.25
	c-2.778-0.191-5.564-0.35-8.341-0.157c-2.462,0.171-4.911,0.529-7.366,0.805c-0.131-0.044,0.052-0.013-0.073-0.066
	c-0.155-0.064-0.317-0.015-0.469-0.064C90.534,50.226,90.71,50.147,90.796,50.301z"/>
<path style="fill:#9E9E9E;" d="M86.398,108.366c0.347-0.439,0.8-0.684,1.601-0.886c-10.214,13.975-17.306,28.997-19.235,46.167
	c4.398-5.77,8.8-11.515,13.83-17.001c0.912,12.379,4.084,23.973,9.629,34.902c-13.067-1.434-24.638-6.468-34.935-14.545
	c-3.802-2.982-7.206-6.38-10.332-10.062c-0.418-0.492-0.457-0.878-0.213-1.472c3.282-7.992,7.65-15.377,12.511-22.487
	c0.62-0.907,1.289-1.779,1.936-2.668c0.197-0.043,0.293,0.014,0.229,0.23c-1.564,3.998-2.711,8.108-3.333,12.36
	c-0.024,0.163-0.115,0.316-0.175,0.473c-0.206,0.252-0.144,0.518-0.04,0.786c-0.253,2.284-0.636,4.562-0.726,6.852
	c-0.121,3.089-0.4,6.179-0.082,9.332c0.39-1.091,0.775-2.183,1.17-3.272c2.399-6.617,5.541-12.854,9.448-18.716
	c4.436-6.657,9.706-12.55,15.854-17.661C84.482,109.911,85.444,109.142,86.398,108.366z"/>
<path style="fill:#5C5C5C;" d="M100.032,150.535c-0.356-1.109-0.234-2.256-0.139-3.367c0.464-5.44,1.407-10.792,3.027-16.021
	c1.229-3.968,2.671-7.852,4.362-11.644c0.552,0.155,0.289,0.515,0.209,0.829c-0.2,1.806-0.4,3.611-0.599,5.417
	c-0.264-0.515-0.068-1.071-0.154-1.674c0.103,2.907-0.305,5.718-0.411,8.544c0.003,0.138,0.213,0.026,0.076,0.034
	c-0.045,0.003-0.074-0.009-0.066-0.027c0.219-0.491-0.344-1.137,0.307-1.541c0.094,1.453-0.061,2.895-0.197,4.338
	c-0.145,0.826-0.18,1.652,0.017,2.476c0.057,0.987,0.157,1.974,0.163,2.962c0.034,5.154,0.524,10.264,1.21,15.373
	c0.585,4.353,1.407,8.64,2.602,12.983c0.144-0.323,0.244-0.545,0.343-0.767c0.215-0.464,0.139-0.934,0.035-1.406
	c-0.011-2.236,0.313-4.45,0.466-6.675c0.127-1.846,0.383-3.683,0.542-5.527c0.282-3.283,0.723-6.545,1.143-9.811
	c0.45-3.503,0.933-7.001,1.577-10.472c0.469-2.528,1.042-5.037,1.58-7.552c0.431-2.014,0.995-3.991,1.681-5.934
	c0.054-0.154,0.06-0.347,0.315-0.356c1.241,13.352,3.322,26.523,8.477,39.02c0.547,1.326,1.269,2.581,2.15,3.824
	c-0.073-1.192-0.092-2.39-0.231-3.574c-0.388-3.315-0.574-6.639-0.599-9.974c-0.003-0.337,0.078-0.694-0.156-0.997
	c-0.197-0.4-0.179-0.803-0.012-1.207c-0.03-3.092,0.063-6.181,0.221-9.268c0.019-0.372-0.068-0.761,0.163-1.103
	c0.215,1.789,0.22,3.575-0.078,5.356c-0.042,1.058,0.045,2.121-0.025,3.179c0.027-1.009,0.02-2.019,0.025-3.028
	c0.428-2.031,0.1-4.099,0.288-6.145c0.097-1.055,0.262-2.105,0.296-3.166c0.01-0.305,0.106-0.61-0.063-0.901
	c0.202-1.309,0.336-2.63,0.824-3.901c0,0.33-0.001,0.661,0,0.991c0.014,5.839,0.339,11.666,0.868,17.476
	c0.425,4.674,1.049,9.333,2.459,13.837c0.216,0.689,0.293,1.501,0.997,1.965c-4.443,2.547-9.101,4.594-14.026,6.017
	c-0.54,0.068-0.662-0.392-0.876-0.715c-0.415-0.626-0.641-1.357-1.093-1.977c-0.209,1.106,0.217,2.259-0.282,3.331
	c-2.766,0.863-5.613,1.309-8.482,1.648c-0.616,0.211-1.05-0.029-1.409-0.531c-3.491-4.876-6.333-10.048-7.433-16.037
	c-0.102-0.555,0.161-1.088-0.044-1.62c-0.011-0.766-0.022-1.532-0.033-2.298"/>
<path style="fill:#6C1616;" d="M143.079,156.741c-2.704-3.368-4.48-7.217-5.885-11.266c-0.222-0.639-0.098-0.998,0.441-1.385
	c7.871-5.641,15.729-11.301,23.593-16.951c1.644-1.181,3.303-2.34,4.955-3.509c-1.37,4.369-3.315,8.483-5.544,12.468
	c-4.444,7.945-10.291,14.709-17.295,20.495C143.267,156.656,143.168,156.693,143.079,156.741z"/>
<path style="fill:#6C1616;" d="M85.764,29.231c-6.573,5.36-13.14,10.726-19.72,16.077c-4.583,3.727-9.191,7.421-13.771,11.151
	c-5.086,4.143-10.152,8.31-15.23,12.464c-0.077,0.063-0.182,0.092-0.273,0.137c1.427-3.513,3.339-6.768,5.446-9.898
	c7.401-10.991,17.013-19.446,29.054-25.061C75.915,31.936,80.718,30.215,85.764,29.231z"/>
<path style="fill:#6C1616;" d="M130.879,35.16c-4.019,3.22-8.041,6.437-12.052,9.667c-0.404,0.325-0.768,0.439-1.308,0.329
	c-4.844-0.985-9.733-1.569-14.679-1.766c-1.074-0.043-2.15,0.164-3.445,0.01c2.129-1.729,4.092-3.319,6.051-4.915
	c3.515-2.862,7.027-5.726,10.539-8.592c0.077-0.063,0.124-0.162,0.185-0.245C121.302,30.871,126.217,32.676,130.879,35.16z"/>
<path style="fill:#6C1616;" d="M159.772,62.254c-2.411,1.759-4.852,3.479-7.217,5.298c-0.761,0.585-1.158,0.534-1.834-0.126
	c-1.173-1.145-2.379-2.31-3.876-3.03c-0.923-0.444-0.796-1.333-1.01-2.016c-0.938-2.992-2.963-5.159-5.262-7.094
	c-1.569-1.321-1.657-1.26-0.104-2.537c2.356-1.937,4.74-3.84,7.113-5.757C152.412,51.468,156.494,56.54,159.772,62.254z"/>
<path style="fill:#6C1616;" d="M170.026,97.11c-1.06,0.199-1.74,1.025-2.556,1.603c-4.116,2.914-8.196,5.879-12.289,8.824
	c-0.138,0.099-0.288,0.182-0.641,0.404c0.557-1.189,1.001-2.197,1.495-3.181c1.816-3.619,2.837-7.477,3.535-11.443
	c0.371-2.107,0.49-4.222,0.403-6.353c-0.015-0.376,0.095-0.64,0.414-0.87c2.42-1.744,4.83-3.503,7.242-5.258
	c0.986,2.964,1.402,6.045,1.834,9.119C169.796,92.326,169.983,94.714,170.026,97.11z"/>
<path style="fill:#5C5C5C;" d="M41.538,122.148c0.245-2.815,0.984-5.525,1.727-8.238c1.557-5.686,3.82-11.09,6.685-16.221
	c3.531-6.325,7.867-12.07,13.056-17.148c1.104-1.08,2.246-2.121,3.37-3.18c0.19-0.057,0.282-0.012,0.212,0.202
	c-2.348,3.662-4.585,7.388-6.643,11.501c2.157-1.244,4.342-1.817,6.633-1.995c0.167,0.151,0.373,0.085,0.564,0.097
	c0.096,0.006,0.195,0.016,0.285-0.037c-0.12,0.044-0.212,0.006-0.282-0.097c0.622-0.218,1.269-0.163,1.91-0.176
	c0.269,0.215,0.594,0.038,0.88,0.128c0.045-0.076,0.044-0.102,0-0.083c-0.196,0.084-0.38,0.1-0.532-0.086
	c0.84-0.247,1.695-0.193,2.764-0.149c-16.018,7.256-25.861,19.48-30.422,36.123C41.259,122.71,41.534,122.385,41.538,122.148z"/>
<path style="fill:#08102C;" d="M48.417,91.306c-6.391,8.206-11.94,16.88-16.21,26.514c-0.436-0.919-0.491-1.791-0.689-2.617
	c-0.208-0.867-0.355-1.752-0.476-2.636c-0.275-2.009-0.496-4.027-0.784-6.034c-0.136-0.948,0.066-1.697,0.741-2.424
	c4.096-4.404,8.582-8.317,13.859-11.263C45.982,92.219,47.065,91.511,48.417,91.306z"/>
<path style="fill:#9E9E9E;" d="M100.076,153.217c0.466,1.948,0.734,3.939,1.405,5.844c1.491,4.233,3.706,8.065,6.301,11.7
	c0.307,0.43,0.658,0.665,1.18,0.644c-2.04,0.369-4.112,0.405-6.172,0.547c-1.119,0.077-2.247,0.024-3.37,0.029
	c0.052-0.053,0.065-0.114,0.039-0.183c-0.238-1.242-0.17-2.487-0.031-3.732c-0.09-3.493-0.077-6.985,0.052-10.477
	C99.536,156.11,99.713,154.651,100.076,153.217z"/>
<path style="fill:#5C5C5C;" d="M105.221,69.301c-1.194,0.503-2.486,0.435-3.729,0.553c-3.247,0.308-6.412-0.063-9.531-1.162
	c-4.436-1.563-8.944-2.917-13.725-2.916c-2.368,0-4.465,0.661-6.09,2.481c0.822-2.682,3.504-4.592,6.407-4.562
	c0.692,0.255,1.385,0.079,2.079,0.008c1.845-0.056,3.543,0.595,5.276,1.083c0.23,0.065,0.529,0.393,0.704,0.035
	c0.147-0.3-0.222-0.457-0.425-0.613c-1.22-0.941-2.634-1.558-3.953-2.336c0.367-0.457,0.87-0.004,1.277-0.19
	c3.823,1.097,7.253,3.073,10.716,4.935c3.302,1.775,6.734,2.773,10.487,2.627C104.882,69.237,105.052,69.28,105.221,69.301z"/>
<path style="fill:#5C5C5C;" d="M76.694,69.292c1.202-0.051,2.393,0.003,3.591,0.155c0.633,0.08,0.804,0.287,0.781,0.891
	c-0.061,1.608-0.039,3.199,0.474,4.772c1.258,3.854,3.89,6.182,7.743,7.232c0.359,0.098,0.705,0.24,1.057,0.362
	c-3.95-0.104-7.492-1.214-10.237-4.221c-2.243-2.457-3.176-5.462-3.513-8.696C76.574,69.627,76.657,69.457,76.694,69.292z"/>
<path style="fill:#9C9C9D;" d="M117.444,169.757c0-1.33,0-2.66,0-4.148c1.058,1.098,1.237,2.577,2.252,3.508
	C118.962,169.39,118.228,169.661,117.444,169.757z"/>
<path style="fill:#57585B;" d="M83.511,61.681c-0.387,0.324-0.856,0.098-1.277,0.19c-0.274-0.025-0.52-0.1-0.738-0.441
	C82.237,61.316,82.878,61.448,83.511,61.681z"/>
<path style="fill:#C0C2C9;" d="M98.13,84.326c0.276-0.277,0.524-0.614,1.066-0.482c-0.17,0.404-0.381,0.676-0.769,0.78
	C98.328,84.525,98.229,84.426,98.13,84.326z"/>
<path style="fill:#080A23;" d="M106.666,49.636c0.649-0.425,1.245-0.061,1.853,0.125c-0.017,0.024-0.029,0.061-0.052,0.071
	c-0.062,0.025-0.128,0.037-0.193,0.055C107.738,49.802,107.202,49.719,106.666,49.636z"/>
<path style="fill:#494B4F;" d="M80.63,63.701c-0.694,0.332-1.387,0.353-2.079-0.007C79.245,63.597,79.938,63.542,80.63,63.701z"/>
<path style="fill:#BEBEBF;" d="M41.543,123.812c0.024,0.287-0.023,0.538-0.377,0.698c0.006-0.539-0.117-1.046,0.162-1.522
	C41.619,123.206,41.344,123.571,41.543,123.812z"/>
<path style="fill:#848486;" d="M41.543,123.812c-0.278-0.22-0.128-0.553-0.215-0.823c0.07-0.28,0.14-0.561,0.21-0.841
	c0.089,0.207-0.024,0.48,0.207,0.641C41.678,123.13,41.61,123.471,41.543,123.812z"/>
<path style="fill:#7A7E8B;" d="M30.379,92.41c0.14,0.201-0.101,0.549,0.258,0.665c-0.016,0.214-0.094,0.383-0.381,0.47
	C30.156,93.14,30.17,92.77,30.379,92.41z"/>
<path style="fill:#C8C8C8;" d="M61.419,120.544c-0.076-0.077-0.152-0.153-0.229-0.23c0.121-0.214,0.172-0.497,0.518-0.521
	C61.814,120.128,61.621,120.338,61.419,120.544z"/>
<path style="fill:#454A5C;" d="M118.656,57.863c-0.008,0.098-0.015,0.196-0.023,0.294c-0.247-0.088-0.494-0.176-0.885-0.315
	C118.162,57.704,118.413,57.609,118.656,57.863z"/>
<path style="fill:#44464D;" d="M69.403,86.815c0.224,0.033,0.448,0.065,0.872,0.127c-0.555,0.14-0.902,0.228-1.219-0.086
	C69.171,86.843,69.287,86.829,69.403,86.815z"/>
<path style="fill:#8F9092;" d="M57.872,134.163c-0.295-0.282-0.242-0.667-0.133-0.956c0.068-0.179,0.113,0.1,0.172,0.17
	C57.898,133.639,57.885,133.901,57.872,134.163z"/>
<path style="fill:#00011B;" d="M90.796,50.301c-0.223-0.024-0.446-0.048-0.812-0.088c0.442-0.183,0.725-0.22,0.976,0.071
	c0,0-0.078,0.045-0.078,0.045L90.796,50.301z"/>
<path style="fill:#B6B6B7;" d="M66.588,77.564c-0.071-0.067-0.142-0.135-0.212-0.202c0.111-0.184,0.219-0.51,0.462-0.323
	C66.986,77.152,66.801,77.44,66.588,77.564z"/>
<path style="fill:#40434B;" d="M67.146,87.032c0.061,0.021,0.131,0.03,0.182,0.066c0.104,0.073,0.087,0.152-0.038,0.157
	c-0.253,0.012-0.528,0.078-0.712-0.186C66.768,87.057,66.957,87.045,67.146,87.032z"/>
<path style="fill:#09112D;" d="M49.077,31.004c-0.279,0.069-0.322-0.145-0.423-0.258c-1.679-1.886-1.673-1.948,0.305-3.491
	c1.289-1.005,2.306-0.636,2.687,0.982c0.038,0.162,0.041,0.342,0.014,0.506C51.627,28.942,49.222,30.985,49.077,31.004z"/>
<path style="fill:#09112D;" d="M52.06,35.546c-0.079-0.146-0.134-0.318-0.244-0.442c-1.729-1.938-1.719-1.921,0.285-3.505
	c0.664-0.525,1.22-0.876,1.878,0.003c0.88,1.178,0.885,1.718-0.085,2.488C53.332,34.536,52.77,34.982,52.06,35.546z"/>
<path style="fill:#08102C;" d="M133.187,182.66c-0.386,1.374-1.804,1.172-2.759,1.673c-0.576,0.302-1.033-0.108-1.204-0.632
	c-0.68-2.083-1.315-4.182-1.952-6.279c-0.193-0.636,0.074-1.069,0.697-1.269c2.473-0.794,2.433-1.452,3.494,1.503
	c0.474,1.321,0.968,2.635,1.442,3.956C133.02,181.933,133.195,182.242,133.187,182.66z"/>
<path style="fill:#09112C;" d="M140.965,21.295c-0.004,1.509-1.199,2.239-2.493,1.522c-1.944-1.077-1.909-1.061-1-3.071
	c0.302-0.667,0.584-0.674,1.12-0.337c0.578,0.363,1.194,0.666,1.79,1.001C140.727,20.603,140.992,20.855,140.965,21.295z"/>
<path style="fill:#0A122D;" d="M86.455,179.305c0.138,1.932,0.277,3.864,0.423,5.903c-0.875-0.149-1.667-0.274-2.453-0.423
	c-0.255-0.048-0.571-0.077-0.371-0.515c0.758-1.663,1.497-3.334,2.243-5.002C86.349,179.281,86.402,179.293,86.455,179.305z"/>
<path style="fill:#08102C;" d="M119.186,186.411c0.003,0.034,0.016,0.07,0.009,0.102c-0.347,1.62-1.829,0.95-2.776,1.342
	c-0.649,0.269-1.173-0.099-1.289-0.789c-0.365-2.164-0.712-4.333-1.004-6.508c-0.078-0.578,0.191-1.066,0.901-1.146
	c0.544-0.062,1.093-0.145,1.619-0.293c0.707-0.199,1.083,0.135,1.216,0.743c0.476,2.176,0.911,4.36,1.361,6.541
	C119.21,186.406,119.198,186.409,119.186,186.411z"/>
<path style="fill:#0A122D;" d="M61.086,19.127c1.11,1.427,2.428,2.746,3.244,4.325c0.429,0.829-1.093,0.779-1.601,1.301
	c-0.237,0.244-0.563,0.327-0.671-0.161c-0.396-1.791-0.784-3.583-1.174-5.375C60.95,19.186,61.018,19.157,61.086,19.127z"/>
<path style="fill:#08102C;" d="M122.777,21.071c0.641-2.143,1.306-4.373,1.977-6.601c0.028-0.095,0.09-0.196,0.166-0.257
	c1.074-0.855,1.909,0.222,2.848,0.396c0.59,0.11,0.734,0.698,0.547,1.254c-0.697,2.076-1.409,4.147-2.133,6.214
	c-0.232,0.661-0.659,0.915-1.363,0.58c-0.43-0.205-0.9-0.329-1.358-0.471C122.952,22.028,122.773,21.667,122.777,21.071z"/>
<path style="fill:#09112D;" d="M61.857,170.985c-0.017,1.55-1.187,2.22-2.511,1.438c-0.089-0.052-0.178-0.104-0.266-0.158
	c-1.776-1.074-1.745-1.057-0.728-2.892c0.369-0.666,0.662-0.819,1.29-0.318c0.506,0.404,1.098,0.701,1.66,1.032
	C61.651,170.292,61.908,170.538,61.857,170.985z"/>
<path style="fill:#884444;" d="M111.209,75.914c2.921-4.689,7.046-7.803,12.471-8.829c7.065-1.336,13.62,0.11,19.486,4.37
	c0.109,0.079,0.193,0.192,0.289,0.289c2.427,2.031,3.965,4.631,4.857,7.636c0.757,2.551,1.058,5.16,1.256,7.819
	c0.259,3.474-0.249,6.854-0.683,10.258c-0.07,0.548-0.171,1.09-0.403,1.595c-0.08,0.174-0.159,0.42-0.415,0.372
	c-0.24-0.045-0.259-0.293-0.309-0.488c-0.043-0.167-0.052-0.341-0.048-0.513c0.078-3.516-0.218-7.003-0.723-9.741
	c0.406,4.006-0.621,8.559-1.825,13.068c-1.278,4.783-3.622,9.054-6.648,12.956c-0.675,0.871-1.513,1.59-2.295,2.36
	c-2.239,2.058-4.572,3.988-7.495,5.474c1.786-2.682,3.426-5.212,4.788-7.897c1.99-3.922,3.934-7.879,3.506-12.489
	c-0.665-4.464-1.561-8.864-3.625-12.935c-1.423-2.807-3.217-5.36-5.312-7.705c-0.184-0.205-0.338-0.434-0.524-0.635
	c-0.083-0.051-0.099-0.176-0.211-0.199c0.069,0.067,0.131,0.141,0.2,0.216c1.322,2.205,2.43,4.5,3.074,6.999
	c-0.032,0.22-0.101,0.413-0.355,0.463c-0.789-0.484-1.167-1.327-1.716-2.014c-3.072-3.843-6.892-6.686-11.438-8.518
	c-1.649-0.664-3.36-1.213-5.143-1.463C111.678,76.323,111.226,76.459,111.209,75.914z"/>
<path style="fill:#6C1616;" d="M130.438,87.882c-0.778-2.454-1.91-4.751-3.115-7.016c-0.075-0.214,0.015-0.262,0.208-0.207
	c1.879,1.825,3.447,3.885,4.798,6.132c2.771,4.612,4.344,9.588,4.704,14.951c0.009,0.137-0.009,0.275-0.014,0.412
	c-0.838-2.736-2.834-4.488-5.174-5.863c-3.944-2.318-8.214-3.735-12.763-4.287c-0.345-0.183-0.703-0.051-1.057-0.044
	c-3.464,0.065-6.904-0.721-10.38-0.279c-5.326,0.678-10.24,2.377-14.457,5.813c-0.133,0.109-0.259,0.227-0.412,0.309
	c-0.158,0.085-0.341,0.15-0.486,0.038c-0.218-0.17-0.089-0.385,0.028-0.544c0.451-0.613,0.988-1.161,1.58-1.626
	c2.166-1.701,4.351-3.383,6.969-4.367c0.119-0.045,0.267-0.084,0.299-0.247c0.114-0.078-0.124-0.082-0.008-0.008
	c0.04,0.025,0.023,0.053-0.043,0.092c-0.571,0.342-1.212,0.491-1.851,0.619c-4.541,0.909-8.962,2.222-13.168,4.161
	c-3.964,1.827-7.743,3.949-10.131,7.841c-0.158,0.257-0.321,0.552-0.717,0.459c-1.107-0.463-2.242-0.851-3.273-1.498
	c-0.727-0.456-0.758-0.766-0.008-1.213c1.829-1.09,3.599-2.284,5.46-3.314c4.996-2.764,10.16-5.177,15.557-7.06
	c2.525-0.882,5.125-1.549,7.587-2.616c1.488-0.645,2.926-1.374,4.191-2.401c0.345-0.28,0.793-0.572,0.926-0.952
	c0.505-1.446,1.66-1.372,2.843-1.42c1.646-0.067,3.286-0.207,4.938-0.195c2.434,0.018,4.858,0.112,7.31,0.58
	c-1.395-1.38-8.561-3.747-11.943-3.945c0.596-1.565,1.418-2.954,2.374-4.273c1.557,0.345,3.105,0.705,4.63,1.194
	c3.346,1.072,6.287,2.825,8.968,5.06c2.118,1.766,3.955,3.777,5.423,6.118C130.803,88.409,130.479,88.073,130.438,87.882z"/>
<path style="fill:#501010;" d="M75.248,104.221c0.627-0.469,0.831-1.237,1.294-1.828c1.95-2.488,4.504-4.195,7.25-5.64
	c4.983-2.624,10.322-4.214,15.812-5.35c0.569-0.118,1.131-0.272,1.698-0.402c0.059-0.013,0.13,0.027,0.384,0.086
	c-3.562,1.711-6.771,3.691-9.37,6.515c0.127,0.221,0.247,0.121,0.338,0.04c3.48-3.092,7.619-4.817,12.108-5.774
	c3.574-0.762,7.175-0.755,10.777-0.159c0.83,0.137,1.681-0.417,2.497,0.082c-0.403,0.429-0.857-0.021-1.206,0.115
	c0.423,0.081,0.968-0.005,1.419,0.309c3.882,0.825,7.435,2.383,10.59,4.802c1.189,0.911,2.214,1.983,2.977,3.361
	c-16.188-4.565-29.16,0.912-40.292,12.353c0.647-3.658,5.787-9.565,13.605-14.215c-1.033-0.18-1.964-0.136-2.872-0.055
	c-4.33,0.384-8.502,1.441-12.489,3.171c-1.443,0.626-2.799,1.451-4.238,2.087C82.179,105.2,78.742,105.402,75.248,104.221z"/>
<path style="fill:#6C1616;" d="M136.218,117.067c1.152-1.618,2.562-3.029,3.678-4.684c3.3-4.892,5.228-10.299,6.239-16.074
	c0.498-2.848,0.717-5.713,0.703-8.61c1.182,3.763,1.17,7.65,1.158,11.687c0.652-0.983,0.591-1.998,0.747-2.938
	c0.375-2.263,0.708-4.558,0.647-6.841c-0.096-3.624-0.292-7.257-1.538-10.738c-0.893-2.497-2.159-4.742-4.026-6.637
	c-0.142-0.144-0.248-0.324-0.371-0.487c1.22,0.638,2.05,1.718,2.925,2.712c2.471,2.806,4.089,6.097,5.13,9.668
	c0.666,2.285,0.532,4.647,0.303,6.963c-0.368,3.716-1.493,7.249-3.106,10.615c-1.521,3.175-3.414,6.12-5.687,8.809
	c-1.823,2.156-3.783,4.183-5.959,5.992C136.799,116.721,136.59,117.015,136.218,117.067z"/>
<path style="fill:#6B1616;" d="M100.663,75.087c-3.235,2.157-6.851,2.733-10.63,2.429c-1.747-0.14-3.109-1.603-3.527-3.567
	c-0.129-0.609-0.621-1.372-0.117-1.849c0.366-0.347,0.976,0.282,1.504,0.402c3.376,0.769,6.775,1.393,10.22,1.751
	c0.98,0.102,1.955,0.246,2.932,0.371c-0.274,0.343-0.732,0.17-1.055,0.376c-2.152,0.326-4.291,0.177-6.641-0.236
	c1.75,0.821,3.357,0.933,5.014,0.579c0.671-0.143,1.348-0.259,2.019-0.407C100.495,74.952,100.588,75.003,100.663,75.087z"/>
<path style="fill:#5C5C5E;" d="M127.962,142.867c0.224-1.804,0.23-3.615,0.171-5.429c0.009-0.193,0.018-0.387,0.028-0.58
	c0.244-0.399-0.035-0.873,0.184-1.275c0.007-0.263,0.013-0.526,0.02-0.79c0.25-0.399-0.034-0.875,0.186-1.278
	c0.008-0.261,0.016-0.522,0.024-0.783c0.4,0.525,0.247,1.149,0.175,1.689c-0.345,2.576-0.362,5.162-0.4,7.75
	c-0.003,0.229-0.128,0.456-0.196,0.683C128.094,142.943,128.031,142.951,127.962,142.867z"/>
<path style="fill:#5C5D5F;" d="M106.642,131.085c-0.415,0.549-0.027,1.209-0.314,1.782c-0.164-2.943,0.344-5.857,0.563-8.794
	c0,0.558,0,1.117,0,1.675c-0.011,0.4-0.021,0.8-0.032,1.2c-0.253,0.54,0.055,1.141-0.183,1.683
	C106.665,129.449,106.654,130.267,106.642,131.085z"/>
<path style="fill:#020520;" d="M99.429,168.065c0.101,1.243,0.112,2.487,0.031,3.732C99.06,170.557,99.103,169.312,99.429,168.065z"
	/>
<path style="fill:#231125;" d="M118.249,92.215c-0.552-0.077-1.104-0.154-1.656-0.23c0.002-0.064,0.004-0.128,0.006-0.193
	c0.479,0,0.958,0,1.437,0c0.35,0.062,0.741-0.078,1.044,0.213C118.802,92.067,118.468,91.915,118.249,92.215z"/>
<path style="fill:#010622;" d="M127.749,147.808c0.004,0.402,0.008,0.805,0.012,1.207c-0.022,0.491-0.045,0.983-0.067,1.475
	C127.646,149.591,127.28,148.678,127.749,147.808z"/>
<path style="fill:#676664;" d="M106.462,137.899c-0.345-0.823-0.322-1.649-0.017-2.476
	C106.451,136.249,106.456,137.074,106.462,137.899z"/>
<path style="fill:#5C5C5C;" d="M100.032,150.535c0-0.558,0-1.116,0-1.675c0.147,0.692,0.445,1.397,0.011,2.058
	C100.039,150.791,100.036,150.663,100.032,150.535z"/>
<path style="fill:#676664;" d="M110.816,167.044c0.379,0.586,0.109,1.216,0.185,1.886c-0.103-0.099-0.168-0.132-0.182-0.18
	c-0.027-0.096-0.027-0.2-0.038-0.3C110.792,167.981,110.804,167.512,110.816,167.044z"/>
<path style="fill:#5C5C5C;" d="M106.676,128.631c0.066-0.56-0.21-1.158,0.183-1.683C106.83,127.513,106.98,128.096,106.676,128.631z
	"/>
<path style="fill:#42444E;" d="M107.49,120.332c-0.047-0.282,0.098-0.612-0.208-0.829c0.004-0.13,0.008-0.261,0.013-0.391
	c0.128-0.141,0.264-0.15,0.407-0.023C107.632,119.504,107.827,119.963,107.49,120.332z"/>
<path style="fill:#D0B8B9;" d="M100.663,75.087c-0.072-0.012-0.143-0.023-0.215-0.035c-0.115-0.13-0.351-0.012-0.434-0.21
	c0.309-0.237,0.676-0.201,1.032-0.219C101.091,74.919,100.782,74.925,100.663,75.087z"/>
<path style="fill:#5C5C5C;" d="M128.345,135.583c-0.042,0.428,0.18,0.894-0.184,1.275
	C128.178,136.427,128.073,135.978,128.345,135.583z"/>
<path style="fill:#191F37;" d="M107.701,119.089c-0.136,0.007-0.271,0.015-0.407,0.023c0.11-0.18,0.08-0.541,0.388-0.472
	C107.903,118.689,107.927,118.926,107.701,119.089z"/>
<path style="fill:#5C5C5C;" d="M128.551,133.516c-0.042,0.429,0.182,0.896-0.186,1.278
	C128.385,134.361,128.269,133.909,128.551,133.516z"/>
<path style="fill:#676664;" d="M127.962,142.867c0.063-0.008,0.127-0.012,0.191-0.011c0,1.085,0,2.17,0,3.254
	c-0.064,0.001-0.127,0.003-0.191,0.004C127.962,145.031,127.962,143.949,127.962,142.867z"/>
<path style="fill:#ADADAC;" d="M99.793,167.463c0,0.599,0,1.199,0,1.798c-0.028,0.001-0.056,0.001-0.084,0.002
	c0-0.599,0-1.198,0-1.797C99.737,167.465,99.765,167.464,99.793,167.463z"/>
<path style="fill:#7B2F2F;" d="M130.438,87.882c0.229,0.244,0.436,0.496,0.346,0.88c-0.347,0.012-0.438-0.246-0.553-0.476
	C130.401,88.203,130.422,88.044,130.438,87.882z"/>
<path style="fill:#762626;" d="M127.531,80.659c-0.069,0.069-0.139,0.138-0.208,0.207c-0.214-0.206-0.399-0.429-0.471-0.755
	C127.248,80.123,127.377,80.406,127.531,80.659z"/>
<path style="fill:#F9F7F7;" d="M100.015,74.842c0.145,0.07,0.289,0.14,0.434,0.21c-1.965,0.681-3.95,1.066-6.018,0.475
	c-0.66-0.189-1.244-0.483-1.713-1.064C95.147,74.897,97.577,74.96,100.015,74.842z"/>
</svg>
