<?xml version="1.0" encoding="utf-8"?>
<!-- Generator: Adobe Illustrator 24.1.0, SVG Export Plug-In . SVG Version: 6.00 Build 0)  -->
<svg version="1.1" id="Layer_1" xmlns="http://www.w3.org/2000/svg" xmlns:xlink="http://www.w3.org/1999/xlink" x="0px" y="0px"
	 viewBox="0 0 200 200" style="enable-background:new 0 0 200 200;" xml:space="preserve">
<g>
	<path style="fill:#F8BA13;" d="M200.1,103.1c-0.2,1.1-0.1,2.1-0.2,3.2c-0.8,12.3-3.7,24.2-9,35.4c-9,19.4-22.9,34.4-41.4,45.1
		c-9.6,5.5-19.9,9.3-30.8,11.3c-6.9,1.3-13.9,1.9-21,1.7c-23.9-0.7-44.9-8.8-63-24.4c-10.7-9.2-19.1-20.3-25.1-33
		c-4-8.5-6.8-17.5-8.2-26.8c-1-6.3-1.4-12.6-1.2-18.9c0.9-24.2,9.3-45.4,25.4-63.4C39.5,17.7,56.7,7.5,76.9,2.6
		c4.8-1.2,9.7-1.9,14.7-2.3C93,0.1,94.4,0,95.8,0c0.2,0,0.4,0,0.5-0.1c2.5,0,5,0,7.5,0c0.9,0.2,1.9,0.1,2.8,0.1
		c3.8,0.1,7.5,0.6,11.2,1.3c7.9,1.4,15.4,3.7,22.7,6.9c7,3.1,13.5,6.9,19.6,11.5c2.9,2.2,5.7,4.6,8.4,7.1c4.3,4,8.1,8.3,11.6,12.9
		c2.9,3.9,5.6,8,7.9,12.3c2.3,4.2,4.2,8.5,5.9,12.9c2.3,6.3,4,12.7,5,19.3c0.4,2.7,0.8,5.4,0.9,8.1c0.1,1.3,0.1,2.7,0.1,4
		c0,0.1,0,0.3,0.1,0.4C200.1,98.8,200.1,101,200.1,103.1z"/>
	<path style="fill:#164833;" d="M100.1,5.5c52,0,94.3,42.3,94.3,94.3s-42.1,94.3-94.3,94.4c-52.3,0-94.5-42.4-94.3-94.6
		C5.9,47.6,48.1,5.6,100.1,5.5z"/>
	<path style="fill:#F8BA13;" d="M9.2,99.9C9.2,49.6,50.1,8.7,100.6,9c49.8,0.3,90.4,40.7,90.4,91.1c-0.1,50.1-40.8,90.7-91.2,90.7
		C49.8,190.7,9.2,150,9.2,99.9z"/>
	<path style="fill:#164732;" d="M100.1,11.3c49,0,89,39.9,88.6,89.5c-0.4,48.7-40.2,88.2-89.5,87.8c-48.6-0.4-87.8-40-87.8-88.6
		C11.6,50.8,51.3,11.1,100.1,11.3z"/>
	<path style="fill:#F8BA13;" d="M85.6,41.3c-0.9,0.9-1.8,1.8-2.7,2.7c-1,1-2,2.2-2.8,3.3c-0.3,0.4-0.6,0.6-1,0.8
		c-13.3,5.5-23,14.8-29.4,27.7c-2.7,5.6-4.4,11.6-5.1,17.8c-1.2,11.3,0.6,22,6,32c8.3,15.6,21.2,25.3,38.5,29c4.6,1,9.2,1.3,13.9,1
		c-0.5,1-0.9,1.9-1.4,2.8c-0.3,0.6-0.4,1.4-1,1.7c-0.5,0.3-1.3,0.1-1.9,0.1c-17.6-0.6-32.3-7.5-44-20.6c-7.4-8.3-12-18-14-29
		c-1-5.4-1.2-10.8-0.7-16.3c1.5-15,7.6-27.7,18.4-38.2C66,48.9,75,44,85.2,41.3C85.3,41.3,85.4,41.2,85.6,41.3z"/>
	<path style="fill:#F8BA13;" d="M101.6,163.4c2.1-4,4.2-8.1,6.3-12.3c-4.7,0.9-9.2,1.8-13.8,2.7l-0.1-0.1c2.1-2.4,4.3-4.7,6.6-7.2
		c-1.9,0.2-3.6,0.4-5.3,0.7c0.8-1.6,1.6-3,2.4-4.6c-0.6,0-1.1,0-1.6,0c-0.3,0-0.7,0-1,0.1c-3,0.5-5.7-0.5-8.4-1.6
		c-1.3-0.6-2.7-1.1-4-1.5c-2-0.7-3.8-1.6-5.4-2.9c-2.5-1.8-5-3.5-7.5-5.2c-0.2-0.1-0.4-0.3-0.6-0.5c2.6-0.7,5.1-1.4,7.8-2.2
		c-0.4-0.3-0.8-0.5-1.2-0.7c-2.8-1.7-5.7-3.4-8.5-5.1c-0.4-0.3-0.5-0.5-0.3-0.9c0.6-1.3,1.2-2.7,1.8-4.1c0.1-0.2,0.2-0.3,0.1-0.6
		c-3.2,0.4-6.3,0.9-9.6,1.3c1.1-2,2.1-3.9,3.2-6c-2.7,0.7-5.4,1.3-8.1,2c1.3-2.4,2.5-4.7,3.8-7.1c-2.1,0.6-4.1,1.1-6.2,1.6
		c0.1-0.3,0.2-0.5,0.3-0.7c1.1-1.8,2.1-3.7,3.2-5.5c0.4-0.7,0.4-0.7-0.4-0.7c-2-0.1-4.1-0.4-6.1-0.7c-0.1,0-0.2,0-0.4-0.1
		c1.1-0.7,2-1.3,3-1.9c1.7-1.1,3.5-2.2,5.2-3.3c0.4-0.2,0.4-0.4,0.1-0.7c-1.8-2-3.5-3.9-5.3-5.9c-0.2-0.3-0.3-0.4,0.1-0.6
		c2.8-1.5,5.6-3,8.3-4.5c0,0,0.1,0,0.3,0c-0.7,0.5-1.4,0.9-2,1.4c-1.6,1.1-3.2,2.2-4.9,3.3C53,89.5,53,89.7,53.3,90
		c2.1,1.9,4.2,3.9,6.3,5.8c0.4,0.4,0.4,0.5,0,0.9c-1.3,1-2.6,2-3.9,3c-0.1,0-0.1,0.1-0.2,0.2c1.3,0.1,2.5,0.3,3.7,0.4
		c0.9,0.1,0.9,0.1,0.4,0.9c-0.8,1.4-1.5,2.7-2.4,4.2c2-0.5,3.9-1,6-1.6c-1.3,2.5-2.5,4.8-3.8,7.3c2.7-0.7,5.4-1.3,8.1-2
		c-1.2,2.2-2.3,4.4-3.5,6.6c3.1-0.4,6.1-0.8,9.2-1.3c-0.4,1-0.8,1.9-1.2,2.8c-0.6,1.3-1.1,2.7-1.7,3.9c-0.2,0.5-0.1,0.7,0.3,1
		c4,2.4,8,4.8,12,7.3c0.2,0.1,0.3,0.2,0.6,0.4c-2.8,0.8-5.4,1.5-8.2,2.3c0.9,0.6,1.8,1.2,2.6,1.8c2.3,1.9,5,3.1,7.8,4.1
		c2,0.7,3.9,1.4,5.8,2.2c0.4,0.2,0.8,0.2,1.2,0.2c3-0.1,6.1-0.1,9.1-0.2c0.5,0,0.5,0.1,0.3,0.5c-0.5,1-1.1,1.9-1.6,2.9
		c-0.1,0.2-0.2,0.4-0.4,0.7c2.4-0.3,4.8-0.6,7.2-0.9c-2.1,2.3-4.1,4.5-6,6.7c0,0,0,0.1,0.1,0.1c3.8-0.7,7.6-1.5,11.5-2.2
		c-1.6,3.2-3.2,6.2-4.8,9.3c4.2-2.5,8.5-4.6,13-7c-0.6,1.8-1.2,3.4-1.7,5c0,0,0.1,0,0.1,0.1c2.8-2.3,5.6-4.6,8.4-6.9l0.1,0.1
		c-4,3.8-7.9,7.7-11.6,11.3c0.4-1.4,0.8-3.2,1.3-5.2C112.1,157.7,106.9,160.4,101.6,163.4z"/>
	<path style="fill:#F8BA13;" d="M123.6,155.2c1.5-1.4,3-2.8,4.5-4.3c4.3-4.3,8.7-8.6,12.9-13c7.8-8.2,12.5-18,14.3-29.2
		c1.8-11,0.3-21.7-4.2-31.9c-0.1-0.2-0.2-0.4-0.2-0.7c0.4-3.2,0.1-6.4-0.4-9.6c9.2,14.3,12.3,29.9,8.5,46.5
		c-4.6,20-16.7,33.9-35.1,42.5C123.8,155.4,123.7,155.3,123.6,155.2z"/>
	<path style="fill:#F8BA13;" d="M134.5,70c0.5-1.1,0.9-2.1,1.3-3.1c0.1,0.1,0.2,0.1,0.2,0.2c4.6,6.3,7,13.3,6.6,21.1
		c-0.2,4.5-1.5,8.7-3.7,12.6c-1.2,2.1-2.5,4-4.3,5.6c-0.2,0.2-0.3,0.3-0.3,0.6c-0.6,4.3-1.2,8.6-1.9,12.9c-0.1,0.9-0.3,1.8-0.4,2.7
		c-0.2-0.2-0.2-0.5-0.2-0.7c-0.1-5.2-0.3-10.5-0.3-15.7c0-0.5,0.1-0.8,0.4-1.2c1.7-2.3,3.4-4.6,4.7-7.1c2.4-4.8,3.2-9.9,2.3-15.2
		c-0.5-3-1.5-6.2-2.5-8.1c-0.4,0.9-0.7,1.8-1.1,2.7c-0.4,0.9-0.7,1.8-1.1,2.8c-0.4-1.3-0.8-2.5-1.2-3.7c-1.1-3.5-2.3-6.9-4.2-10.1
		c-3.1-5.4-7.3-9.8-12.9-12.7c-0.3-0.2-0.7-0.3-1.2-0.6c0.5,1.6,1,3.1,1.5,4.7c-0.3,0-0.4-0.1-0.5-0.2c-1.8-1.3-3.6-2.7-5.5-3.8
		c-3.5-2-7.2-3-11.2-3.4c-1.8-0.2-3.6-0.2-5.5-0.1c0.9,1.2,1.7,2.4,2.5,3.7c-1.6-0.2-3.1-0.4-4.5-0.6c-0.7-0.1-1.4-0.2-2-0.2
		c-0.3,0-0.5,0-0.3-0.4c1-1.9,2-3.7,3.1-5.5c0.2-0.3,0.5-0.3,0.8-0.3c5.8-0.3,11.5,0.3,16.8,2.8c0,0,0.1,0,0.2,0
		c0-0.3-0.1-0.6-0.2-0.9c-0.1-0.3-0.2-0.6-0.3-1c1.1,0.3,2.1,0.5,3.1,0.8c4.2,1.2,7.8,3.4,11,6.2c4.7,4,8,9,10.4,14.6
		C134.2,69.4,134.3,69.6,134.5,70z"/>
	<path style="fill:#F8BA13;" d="M96.4,37.1c-2.3,2.8-4.3,5.6-6.1,8.5c-2.4,3.8-4.6,7.8-5.9,12.1c-0.7,2.3-1.2,4.7-0.8,7.2
		c0.5,3.2,2.3,5.2,5.2,6.4c0.8,0.3,1.7,0.6,2.6,0.8c0.2,0,0.5,0.1,0.6,0.4c0.5,1.6,0.8,3.1,0.5,4.8c-0.4,2-1.8,3.2-4.1,3.4
		c-2.8,0.3-5.5,0-8.1-1.1c-3.2-1.4-4.9-4-5.5-7.3c-0.9-4.9-0.3-9.7,1.6-14.3c3.5-8.4,9.2-15,17.1-19.7
		C94.4,37.8,95.3,37.4,96.4,37.1z"/>
	<path style="fill:#F8BA13;" d="M23.9,98.3c0.3-17.9,6.8-35,19.8-49.6c0.1-0.1,0.2-0.2,0.3-0.4c0.2-0.2,0.3-0.3,0.5,0
		c0.4,0.4,1.1,0.7,1.2,1.2c0.1,0.5-0.6,0.9-1,1.3c-9.1,10.4-15,22.3-17.5,35.9c-1,5.7-1.4,11.4-1.1,17.2c0.9,15.9,6.4,30,16.3,42.5
		c0.6,0.8,0.6,0.8-0.1,1.4c-1,0.8-1,0.8-1.8-0.2c-7.7-9.7-12.9-20.6-15.3-32.8C24.4,109.8,23.9,104.8,23.9,98.3z"/>
	<path style="fill:#F8BA13;" d="M176.3,99.9c-0.1,16.9-5.1,32.2-15.2,45.7c-0.3,0.4-0.5,0.6-0.9,0.1c-0.4-0.4-1-0.6-1.1-1
		s0.5-0.8,0.8-1.3c6.7-9.2,11.1-19.4,13.1-30.5c1.1-6.2,1.4-12.4,0.9-18.7c-1.3-15.8-7-29.8-17.2-41.9c-0.4-0.5-0.4-0.7,0.1-1
		c0.4-0.3,0.8-0.9,1.2-0.9s0.7,0.7,1,1c8.4,10.2,13.7,21.8,16.1,34.7c0.8,4.1,1.2,8.2,1.2,12.4C176.3,99,176.3,99.4,176.3,99.9z"/>
	<path style="fill:#F8BA13;" d="M94,44.3c1-1.6,2.1-3.1,3.3-4.5c0.2-0.2,0.4-0.2,0.6-0.2c15.3-0.4,28.9,4.2,40.9,13.9
		c1.1,0.9,1.7,1.9,1.8,3.3c0.1,1.5,0.3,2.9,0.5,4.3c0,0.2,0.1,0.4,0,0.6C128,48.5,112.4,42.7,94,44.3z"/>
	<path style="fill:#F8BA13;" d="M115.4,120.6c-1.8-3.4-3.7-6.8-5.5-10.3c-0.6-1.1-1.2-2.3-1.8-3.4c-0.2-0.3-0.4-0.5-0.8-0.5
		c-1.3,0.1-2.5,0.1-3.8,0.1c-0.4,0-0.5,0.1-0.6,0.5c-0.6,2-1.2,4.1-1.9,6.1c-0.1,0.4-0.1,0.6,0.3,0.7c1.3,0.8,2.6,1.6,3.9,2.4
		c0.2,0.1,0.4,0.2,0.5,0.4c-2-0.5-4-1-6-1.6c-0.9-0.2-1.8-0.4-2.7-0.7c-0.5-0.1-0.6,0-0.6,0.4c-0.3,1.5-0.6,3.1-1,4.6
		c-0.3-1.5-0.7-2.9-1-4.4c-0.4-1.5-0.7-3.1-1.1-4.6c-0.1-0.4-0.2-0.5-0.6-0.5c-1.3,0-1.3,0-1.6-1.2c-0.9-3.3-1.8-6.7-2.8-10
		c0-0.1,0-0.2,0-0.4c1.6,2,3.1,4.1,4.7,6.1h0.1c0-0.8,0-1.6,0-2.4c0-1.1,0-1.1,1.1-0.9c1.3,0.2,2.5,0.5,3.9,0.7
		c-0.7-1-1.3-1.8-2-2.8c1.5,0.3,2.9,0.6,4.3,0.8c2.9,0.4,5.5,1.5,8.3,2.3c0.2,0,0.3,0.1,0.4,0.3c0.4,0.8,0.9,1.5,1.2,2.3
		c1.7,5.2,3.4,10.4,5.1,15.6C115.4,120.4,115.4,120.5,115.4,120.6L115.4,120.6z"/>
	<path style="fill:#F8BA13;" d="M108.6,129.8c2.1-1.1,4.1-2.1,6-3.3c1.4-0.9,2.7-1.1,4.2-0.4c0.6,0.3,0.9,0.6,1.1,1.1
		c0.4,0.8,1,1.3,1.9,1.5c1.1,0.2,2.3,0.6,3.4,0.9c0.7,0.2,1.4,0.3,2-0.2c0.5-0.3,1-0.3,1.5-0.1c0.1,0.1,0.2,0.1,0.4,0.1
		c1.4,0.1,1.9,1,2,2.3s0.4,2.6,0.6,3.9c0.1,0.3,0,0.4-0.3,0.5c-1.5,0.4-3,0.8-4.5,1.2c-0.6,0.2-1.1-0.3-1.7-0.3
		c-0.7-0.1-1-0.5-1.2-1c-0.2-0.6-0.5-0.7-1-0.3c-0.6,0.4-1.2,0.4-1.9,0.2c-0.3-0.1-0.7-0.3-1.1-0.3c-1-0.2-1.9-0.6-2.2-1.6
		c-0.1-0.3-0.3-0.3-0.5-0.2c-0.9,0.7-1.9,0.5-2.9,0.1c-0.4-0.2-0.8-0.3-1.2-0.6C111.8,132,110.3,130.9,108.6,129.8z"/>
	<path style="fill:#F8BA13;" d="M97,173c-0.3,1.2-0.7,2.3-1,3.5c-0.4,1.4-0.8,2.8-1.2,4.2c-0.1,0.3-0.2,0.4-0.6,0.4
		c-1.6,0-1.6,0-1.8-1.8c-0.3-2.4-0.6-4.7-0.9-7.3c-0.2,1.4-0.2,2.5-0.3,3.7c-0.2,2.6-0.3,5.2-0.4,7.7c0,0.9,0,0.9-0.9,0.8
		c-0.2,0-0.3,0-0.5,0c-1.6-0.1-1.3,0.1-1.2-1.4c0.3-4.2,0.6-8.3,1-12.4c0.1-1.7,0.3-3.4,0.4-5.1c0-0.4,0.2-0.6,0.6-0.5
		c0.6,0.1,1.2,0.1,1.9,0.2c0.4,0,0.5,0.2,0.5,0.5c0.5,3.6,0.9,7.2,1.4,10.8c0.2,0,0.2-0.2,0.2-0.3c1-3.3,2-6.7,2.9-10
		c0.1-0.5,0.4-0.6,0.8-0.6c0.6,0.1,1.2,0.1,1.7,0.1c0.3,0,0.5,0.1,0.5,0.5c-0.2,2.2-0.4,4.4-0.5,6.6c-0.2,2.9-0.5,5.9-0.7,8.8
		c-0.1,1-0.2,2.1-0.2,3.1c0,0.2,0,0.4-0.3,0.4c-0.6-0.1-1.3-0.1-1.9-0.2c-0.3,0-0.4-0.1-0.3-0.4c0.4-3.4,0.7-6.8,1-10.2
		c0-0.4,0.1-0.8,0.1-1.2C97.1,173,97.1,173,97,173z"/>
	<path style="fill:#F8BA13;" d="M61.9,35.4c0.5-0.1,0.8-0.2,1.1-0.2c0.8-0.1,1.6,0.2,2,0.9c0.9,1.4,1.8,2.8,2.7,4.2
		c0.9,1.5,0.6,2.8-0.8,3.8c-1.4,0.9-2.9,1.8-4.3,2.7c-0.5,0.3-0.5-0.1-0.7-0.3c-2.5-3.9-4.9-7.9-7.4-11.8c-0.8-1.2-1.5-2.5-2.3-3.7
		c-0.3-0.4-0.2-0.6,0.2-0.8c1.1-0.7,2.2-1.4,3.3-2c2-1.2,3.5-0.9,4.8,1.1c0.6,0.9,1,1.8,1.6,2.6C62.9,33.1,63.2,34.2,61.9,35.4z"/>
	<path style="fill:#F8BA13;" d="M84.5,165.7c0,0.5-0.1,1-0.3,1.5c-1.4,4.8-2.9,9.7-4.3,14.5c-0.2,0.6-0.4,0.8-1,0.5
		c-0.4-0.2-0.8-0.3-1.3-0.4c-0.4-0.1-0.5-0.3-0.4-0.7c0.6-1.9,1.1-3.8,1.7-5.7c0.2-0.5,0-0.7-0.4-0.8c-0.6-0.1-1.2-0.3-1.8-0.5
		c-0.4-0.1-0.5,0-0.6,0.3c-0.6,1.9-1.2,3.9-1.7,5.8c-0.1,0.4-0.3,0.6-0.7,0.4c-0.5-0.2-1-0.3-1.5-0.4c-0.4-0.1-0.4-0.3-0.3-0.6
		c1.5-5,3-10.1,4.5-15.1c0.3-1.1,0.9-2.1,2.2-2.3c0.3-0.1,0.7-0.1,1,0c1.1,0.2,2.1,0.5,3.1,0.9C83.9,163.6,84.5,164.4,84.5,165.7z"
		/>
	<path style="fill:#F8BA13;" d="M120.3,20.7c-0.1,1.3-0.5,2.8-0.8,4.4c-0.8,3.8-1.6,7.7-2.3,11.5c-0.1,0.5-0.3,0.6-0.7,0.5
		c-0.4-0.1-0.9-0.2-1.3-0.3c-0.5-0.1-0.6-0.2-0.5-0.7c0.4-1.9,0.8-3.9,1.2-5.9c0.1-0.4,0-0.6-0.4-0.7c-0.6-0.1-1.3-0.2-1.9-0.4
		c-0.3-0.1-0.5,0-0.6,0.4c-0.4,2-0.8,4-1.2,6c-0.1,0.4-0.2,0.5-0.6,0.4c-0.5-0.1-1.1-0.2-1.7-0.3c-0.3-0.1-0.4-0.1-0.3-0.5
		c1.1-5.2,2.1-10.4,3.1-15.5c0.1-0.6,0.3-1.1,0.7-1.6c0.7-1,1.7-1.1,2.8-1c0.8,0.1,1.6,0.3,2.4,0.5
		C119.6,17.9,120.3,18.9,120.3,20.7z"/>
	<path style="fill:#F8BA13;" d="M142.6,172c0,0.9-0.5,1.6-1.2,2.1c-1.6,1-3.3,1.8-4.9,2.7c-0.3,0.2-0.3-0.1-0.4-0.3
		c-0.8-1.5-1.6-2.9-2.3-4.4c-2.1-4-4.2-7.9-6.3-11.9c-0.2-0.4-0.2-0.5,0.2-0.8c1.2-0.6,2.4-1.3,3.6-1.9c2.1-1.1,3.7-0.6,4.8,1.4
		c2.1,3.9,4.1,7.8,6.2,11.7C142.5,171.1,142.6,171.6,142.6,172z"/>
	<path style="fill:#F8BA13;" d="M142.8,27.7c0.7,0,1.2,0.2,1.8,0.6c0.7,0.5,1.5,0.9,2.2,1.4c1.6,1.1,2,2.5,0.9,4.2
		c-1,1.6-2,3.2-3.1,4.8c-1.4,2.1-2.7,4.2-4.1,6.3c-0.7,1-1.4,1.8-2.8,1.7c-0.6,0-1.1-0.3-1.6-0.6c-0.7-0.4-1.4-0.9-2.1-1.4
		c-1.8-1.2-2.1-2.6-1-4.4c1.2-2,2.5-3.9,3.8-5.9c1.1-1.7,2.2-3.4,3.3-5.1C141.1,28.2,141.9,27.7,142.8,27.7z"/>
	<path style="fill:#F8BA13;" d="M142.4,53.9c1.1,1.3,1.9,2.6,2.6,4.1c2.6,5.4,4,11,3.7,17.1c-0.2,3.4-1.3,6.5-3.3,9.3
		c-0.1,0.1-0.2,0.2-0.4,0.5c-0.1-1.6-0.2-3.1-0.5-4.7c-0.4-2.1-0.9-4.2-1.7-6.2c-0.2-0.5-0.2-1-0.1-1.5c0.7-2.9,0.8-5.8,0.7-8.7
		c-0.1-3.2-0.5-6.4-1-9.6C142.4,54.1,142.4,54.1,142.4,53.9z"/>
	<path style="fill:#F8BA13;" d="M80.8,36c0,1.1-0.4,1.9-1.3,2.4c-1.1,0.6-2.3,1-3.5,1.3c-1.1,0.3-2-0.2-2.7-1
		c-0.4-0.5-0.7-1.1-0.9-1.7c-1.7-4.7-3.4-9.4-5.2-14c-0.2-0.4-0.2-0.6,0.3-0.7s1-0.3,1.5-0.5c0.4-0.2,0.5-0.1,0.7,0.3
		c1.5,4.2,3.1,8.3,4.6,12.5c0.2,0.7,0.5,1.3,0.7,2c0.3,0.8,0.8,0.9,1.5,0.7c1.8-0.6,1.9-0.8,1.2-2.6c-1.7-4.5-3.3-9.1-5-13.6
		c-0.2-0.5-0.1-0.6,0.3-0.7c0.5-0.1,0.9-0.3,1.4-0.5c0.4-0.2,0.6-0.1,0.7,0.3c0.9,2.5,1.8,5,2.7,7.4c0.8,2.2,1.6,4.4,2.4,6.6
		C80.6,34.6,80.8,35.3,80.8,36z"/>
	<path style="fill:#F8BA13;" d="M113.8,173.8c0,1.9-0.9,2.9-2.5,3.2c-0.6,0.1-1.3,0.2-1.9,0.2c-0.3,0-0.4,0.1-0.4,0.5
		c0.3,2,0.5,4,0.8,6.1c0.1,0.4,0,0.6-0.4,0.6c-0.6,0-1.2,0.1-1.7,0.2c-0.3,0.1-0.4-0.1-0.4-0.3c-0.4-3.5-0.9-7-1.4-10.6
		c-0.3-2.5-0.6-4.9-1-7.4c-0.1-0.9-0.1-0.9,0.7-1c1.4-0.2,2.8-0.4,4.1-0.5c1.6-0.2,2.8,0.6,3.1,2.2
		C113.4,169.3,113.5,171.7,113.8,173.8z"/>
	<path style="fill:#F8BA13;" d="M62.8,155.1c0,0.6-0.2,1.2-0.5,1.7c-0.4,0.6-0.9,1.2-1.3,1.8c-0.2,0.2-0.3,0.3-0.5,0.1
		c-0.5-0.4-1-0.8-1.5-1.2c-0.2-0.2-0.2-0.3,0-0.5c0.3-0.4,0.6-0.8,0.9-1.1c0.4-0.6,0.3-1.1-0.4-1.6c-0.7-0.6-1.2-0.6-1.7,0
		c-0.7,0.9-1.4,1.9-2.1,2.8c-0.2,0.3-0.2,0.7-0.1,1c0.4,0.9,0.8,1.9,1.2,2.8c0.1,0.3,0.3,0.7,0.4,1c0.3,0.8,0.3,1.5-0.2,2.2
		c-1,1.3-1.9,2.6-2.9,3.8c-1.3,1.6-2.7,1.7-4.3,0.6c-0.5-0.4-1-0.7-1.5-1.1c-1.2-0.9-1.4-2.1-0.8-3.5c0.3-0.6,0.6-1.4,1.2-1.7
		c0.7-0.3,1.1,0.6,1.6,0.9c0.5,0.3,0.6,0.6,0.2,1c-1.1,1.1-0.3,1.8,0.8,2.3c0.4,0.2,0.7-0.1,1-0.4c0.7-1,1.5-1.9,2.2-2.9
		c0.3-0.4,0.2-0.7,0-1.1c-0.5-1.1-0.9-2.2-1.4-3.2c-0.6-1.1-0.5-2.1,0.3-3.1s1.6-2.1,2.4-3.2c1.3-1.7,2.8-1.9,4.5-0.6
		c0.5,0.4,1.1,0.8,1.6,1.2C62.4,153.6,62.8,154.2,62.8,155.1z"/>
	<path style="fill:#F8BA13;" d="M149.6,157.8c-0.1,0.1-0.2,0.2-0.3,0.3c-0.7,0.5-1.3,1-2,1.5c-0.3,0.2-0.3,0.3-0.1,0.6
		c1.2,1.4,2.3,2.9,3.4,4.4c0.2,0.3,0.4,0.3,0.7,0.1c0.8-0.6,1.5-1.2,2.3-1.8c0.2-0.2,0.4-0.2,0.6,0.1c0.3,0.4,0.7,0.9,1,1.3
		c0.2,0.2,0.1,0.3-0.1,0.5c-1.5,1.2-3,2.4-4.5,3.6c-0.4,0.3-0.5,0-0.6-0.2c-1.4-1.8-2.9-3.7-4.3-5.5c-2.3-3-4.7-6-7-8.9
		c-0.3-0.4-0.3-0.5,0.1-0.8c1.4-1.1,2.8-2.2,4.2-3.3c0.3-0.3,0.6-0.4,0.8,0.1c0.3,0.5,1.1,0.9,1,1.4c-0.1,0.4-0.8,0.8-1.3,1.1
		c-0.4,0.3-0.8,0.7-1.3,1c-0.3,0.2-0.3,0.3-0.1,0.6c1.1,1.3,2.1,2.6,3.1,4c0.2,0.3,0.3,0.3,0.6,0.1c0.7-0.5,1.3-1,2-1.6
		c0.3-0.2,0.4-0.2,0.6,0.1c0.3,0.4,0.6,0.8,0.9,1.2C149.4,157.6,149.5,157.7,149.6,157.8z"/>
	<path style="fill:#F8BA13;" d="M125.9,171.3c0.1,0.4-0.2,0.3-0.3,0.4c-0.8,0.3-1.6,0.5-2.4,0.7c-0.4,0.1-0.5,0.2-0.3,0.6
		c0.6,1.8,1.1,3.5,1.7,5.3c0.1,0.3,0.2,0.4,0.6,0.3c0.9-0.3,1.9-0.6,2.8-0.9c0.4-0.1,0.5,0,0.6,0.3c0.1,0.6,0.6,1.3,0.4,1.7
		c-0.2,0.5-1,0.4-1.6,0.6c-1.3,0.4-2.5,0.8-3.8,1.2c-0.5,0.2-0.7,0.1-0.8-0.4c-1.7-5.4-3.4-10.7-5.1-16.1c-0.2-0.5-0.3-1-0.5-1.5
		c-0.1-0.3,0-0.4,0.3-0.5c1.8-0.6,3.6-1.1,5.4-1.7c0.3-0.1,0.5,0,0.5,0.3c0.2,0.6,0.6,1.3,0.4,1.8s-1,0.4-1.6,0.6
		c-0.4,0.2-0.9,0.3-1.4,0.4c-0.4,0.1-0.6,0.3-0.4,0.7c0.5,1.5,1,3.1,1.5,4.6c0.1,0.4,0.3,0.4,0.6,0.3c0.8-0.3,1.6-0.5,2.4-0.8
		c0.3-0.1,0.5-0.1,0.5,0.3C125.5,170.3,125.7,170.8,125.9,171.3z"/>
	<path style="fill:#F8BA13;" d="M89.8,16.2c0.3-0.1,0.3,0.1,0.4,0.3c0.1,0.6,0.2,1.1,0.3,1.7c0.1,0.3-0.1,0.3-0.3,0.4
		c-1,0.2-2,0.3-3,0.5c-0.3,0-0.5,0.1-0.4,0.5c0.3,1.6,0.6,3.3,0.8,4.9c0.1,0.4,0.2,0.5,0.6,0.4c0.8-0.2,1.6-0.3,2.4-0.4
		c0.4-0.1,0.5,0,0.6,0.4c0,0.3,0.1,0.7,0.1,1c0.1,0.9,0.1,0.9-0.8,1c-0.6,0.1-1.1,0.2-1.7,0.3c-0.6,0-0.7,0.3-0.6,0.9
		c0.4,2.4,0.8,4.8,1.2,7.3c0.1,0.5,0.1,0.8-0.6,0.8c-0.5,0-1,0.1-1.4,0.2c-0.5,0.1-0.5-0.1-0.6-0.4c-0.4-2.5-0.8-5.1-1.2-7.6
		c-0.6-3.5-1.1-7.1-1.7-10.6c0-0.2-0.2-0.4,0.2-0.5C86,16.8,87.9,16.5,89.8,16.2z"/>
	<path style="fill:#F8BA13;" d="M101.5,15.7c0.9,0,1.8,0,2.7,0c0.3,0,0.5,0.1,0.5,0.5c0,0.5,0,1,0,1.4s-0.1,0.5-0.5,0.5
		c-1,0-1.9,0-2.9,0c-0.4,0-0.5,0.1-0.5,0.5c0,1.6,0,3.3-0.1,4.9c0,0.4,0.2,0.5,0.5,0.5c0.8,0,1.6,0,2.4,0c0.4,0,0.5,0.1,0.5,0.5
		c-0.1,0.6,0.2,1.4-0.1,1.8c-0.3,0.4-1.1,0.1-1.7,0.1c-0.5,0-1.2-0.2-1.5,0.1c-0.3,0.3-0.1,0.9-0.1,1.4c0,2.2-0.1,4.5-0.1,6.7
		c0,0.4-0.1,0.6-0.6,0.6s-1,0-1.5,0s-0.6-0.1-0.6-0.6C98,32,98,29.4,98,26.8c0.1-3.5,0.1-6.9,0.1-10.4c0-0.5,0.1-0.7,0.7-0.7
		C99.8,15.6,100.6,15.6,101.5,15.7C101.5,15.6,101.5,15.6,101.5,15.7z"/>
	<path style="fill:#F8BA13;" d="M62.7,176.2c-0.7-0.3-1.4-0.7-2-1.1c-0.2-0.1,0-0.3,0.1-0.5c1.5-2.9,2.9-5.7,4.4-8.6
		c1-1.9,1.9-3.8,2.9-5.7c0.2-0.4,0.2-0.6-0.3-0.8s-0.9-0.5-1.4-0.7c-0.2-0.1-0.3-0.2-0.2-0.5c0.3-0.5,0.5-1,0.7-1.4
		c0.1-0.3,0.3-0.3,0.6-0.2c2,1,4,2.1,6,3.1c0.3,0.2,0.4,0.3,0.2,0.6c-0.3,0.4-0.5,0.9-0.7,1.3c-0.1,0.3-0.3,0.4-0.6,0.2
		c-0.4-0.3-0.9-0.4-1.3-0.7c-0.4-0.2-0.6-0.2-0.8,0.2c-2,3.9-4,7.8-6,11.7c-0.4,0.9-0.9,1.7-1.3,2.6C62.9,176,62.9,176.2,62.7,176.2
		z"/>
	<path style="fill:#F8BA13;" d="M127.5,41c-0.1-0.1-0.3-0.1-0.4-0.2c-1.6-0.6-3.1-1.3-4.7-1.9c-0.4-0.2-0.5-0.3-0.3-0.7
		c2.3-5.7,4.6-11.3,6.9-17c0.2-0.4,0.4-0.5,0.8-0.3c0.4,0.2,0.9,0.4,1.4,0.6c0.4,0.1,0.5,0.3,0.3,0.7c-1.1,2.7-2.2,5.4-3.3,8
		c-0.9,2.3-1.8,4.6-2.8,6.8c-0.1,0.4-0.1,0.5,0.3,0.7c0.8,0.3,1.6,0.7,2.4,1c0.3,0.1,0.4,0.3,0.3,0.6c-0.2,0.5-0.4,1-0.6,1.4
		C127.7,40.9,127.7,41,127.5,41z"/>
	<path style="fill:#F8BA13;" d="M61.4,74.7c3.5-0.3,6.9-0.5,10.3-0.4c-2.1,0.6-4.2,1.1-6.3,1.5c0,0.3,0.3,0.3,0.4,0.4
		c3.4,2.5,6.7,5,10,7.7c0.3,0.3,0.6,0.4,1.1,0.2c1.4-0.4,2.9-0.8,4.3-1.2c0.8-0.2,1.6-0.3,2.4-0.1C84.3,83,85,83,85.7,83
		c-0.1,0.2-0.3,0.2-0.4,0.3c-3,1.2-5.9,2.2-9,3.3c-0.3,0.1-0.6,0.1-0.9-0.1C70.8,82.9,66.1,79,61.7,75C61.6,75,61.6,74.9,61.4,74.7z
		"/>
	<path style="fill:#F8BA13;" d="M91.6,82.8c1.3,0.7,2.7,1.4,4,2.2c2.1,1.3,3.3,3.4,4.3,5.7c0.4,1,0.8,2,1.2,3c0.9,2.3,2.6,4,4.4,5.5
		c0.6,0.5,1.2,0.9,1.8,1.4c0.1,0.1,0.4,0.1,0.4,0.4c-0.1,0.2-0.2,0.1-0.3,0c-2.9-1.3-5.4-3.1-7.3-5.7c-0.6-0.9-1-1.8-1.5-2.8
		c-0.7-1.6-1.8-3-3.1-4.2c-0.2,0.4-0.3,0.8-0.4,1.1c-0.2,0.4-0.4,0.8-0.8,1.1c-0.3,0.2-0.6,0.7-0.9,0.5s0.2-0.6,0.2-0.8
		c0.5-1.6,0.1-3.1-0.6-4.5c-0.5-0.9-1-1.8-1.5-2.7C91.5,82.9,91.6,82.8,91.6,82.8z"/>
	<path style="fill:#F8BA13;" d="M76.8,51.8c0,0.4-0.1,0.6-0.3,0.7c-0.6,1.1-1.3,2.3-1.7,3.5c-0.2,0.5-0.5,0.8-1,1.1
		c-4.3,2.5-8,5.6-11.2,9.3c-0.1,0.2-0.3,0.3-0.5,0.4C65.7,60.6,70.4,55.4,76.8,51.8z"/>
	<path style="fill:#F8BA13;" d="M127.1,141.4c-1,0-2,0.1-3-0.2c-3.7-1.1-7.4-2.2-11-3.3c-1-0.3-1.8-1-2.6-1.5c1,0,2.1-0.1,3.1,0.2
		c3.6,1.1,7.2,2.2,10.8,3.3C125.4,140.1,126.2,140.8,127.1,141.4z"/>
	<path style="fill:#F8BA13;" d="M101,98.6c-2.8-0.2-4.9-1.5-6.6-3.6c-0.1-0.2-0.2-0.4-0.1-0.6c0.3-1,0.8-1.9,1.7-2.6
		c0.4-0.3,0.5-0.2,0.7,0.2c0.2,0.4,0.4,0.8,0.5,1.3c0.8,2,1.9,3.6,3.6,5C100.8,98.3,101,98.4,101,98.6z"/>
	<path style="fill:#F7BA13;" d="M150.6,93c-2.3,0.5-4.4,1-6.7,1.3c0.1-0.5,0.2-0.9,0.3-1.4c0.1-0.3,0.4-0.2,0.6-0.3
		c0.9-0.1,1.8-0.2,2.8-0.4c-0.8-0.7-1.6-1.4-2.3-2c-0.2-0.1-0.3-0.3-0.5-0.4c-0.1-0.1-0.2-0.3-0.1-0.4c0.1-0.2,0.3,0,0.4,0.1
		C146.9,90.6,148.7,91.7,150.6,93z"/>
	<path style="fill:#164833;" d="M61.9,37.1c0.6,0,0.9,0.2,1.1,0.6c0.8,1.2,1.6,2.5,2.4,3.7c0.3,0.4,0.2,0.8-0.2,1.1
		c-0.5,0.4-1.1,0.7-1.6,1.1c-0.2,0.2-0.3,0-0.4-0.2c-1-1.6-2.1-3.3-3.1-4.9c-0.1-0.1-0.2-0.3,0-0.4C60.6,37.7,61.2,37.2,61.9,37.1z"
		/>
	<path style="fill:#164833;" d="M57.3,30.2c0.4,0,0.7,0.2,0.9,0.5c0.7,1,1.3,2,2,3.1c0.4,0.6,0.2,1.1-0.5,1.6
		c-1.1,0.9-1.1,0.9-1.9-0.3c-0.7-1.2-1.4-2.3-2.2-3.5c-0.2-0.3-0.2-0.5,0.1-0.6C56.3,30.7,56.7,30.3,57.3,30.2z"/>
	<path style="fill:#164833;" d="M80,164.7c0.3,0,0.8,0.2,1.3,0.4c0.5,0.3,0.5,0.7,0.4,1.2c-0.6,2-1.2,3.9-1.8,5.9
		c-0.1,0.3-0.2,0.3-0.5,0.2c-0.7-0.2-1.4-0.4-2.2-0.6c-0.3-0.1-0.3-0.2-0.2-0.5c0.6-1.9,1.2-3.9,1.8-5.9C79,165,79.3,164.7,80,164.7
		z"/>
	<path style="fill:#164833;" d="M117.6,20.8c-0.1,0.7-0.3,1.6-0.5,2.4c-0.2,1.2-0.5,2.4-0.7,3.7c-0.1,0.3-0.2,0.4-0.5,0.3
		c-0.7-0.2-1.4-0.3-2.1-0.4c-0.3,0-0.3-0.1-0.3-0.4c0.4-2,0.8-4.1,1.2-6.1c0.1-0.6,0.5-0.9,1.1-0.8c0.4,0,0.8,0.1,1.2,0.2
		C117.4,19.9,117.6,20.2,117.6,20.8z"/>
	<path style="fill:#164833;" d="M132.7,159.5c0.6,0.1,0.9,0.5,1.2,0.9c1,2,2.1,3.9,3.1,5.9c0.9,1.6,1.7,3.2,2.6,4.8
		c0.4,0.7,0.3,1-0.4,1.4c-0.5,0.3-1.1,0.9-1.6,0.8c-0.5-0.1-0.6-1-0.9-1.5c-1.9-3.6-3.9-7.3-5.8-10.9c-0.2-0.4-0.2-0.6,0.2-0.7
		C131.6,160.1,132.1,159.7,132.7,159.5z"/>
	<path style="fill:#164833;" d="M137.6,44c-0.7-0.4-1.6-0.7-2.1-1.5c-0.3-0.4,0.1-0.8,0.3-1.2c2-3.2,4.1-6.4,6.1-9.5
		c1.1-1.6,1.1-1.6,2.8-0.6c1.1,0.7,1.1,1,0.5,2.1c-2.2,3.3-4.3,6.7-6.5,10C138.4,43.6,138.1,43.9,137.6,44z"/>
	<path style="fill:#164833;" d="M109.2,167.1c0.8,0,1.2,0.3,1.3,0.9c0.2,1.8,0.5,3.7,0.7,5.5c0.1,0.6-0.2,1-0.9,1.2
		c-1.7,0.3-1.7,0.3-1.9-1.4c-0.2-1.8-0.5-3.6-0.7-5.4c-0.1-0.5,0-0.7,0.6-0.7C108.7,167.2,109,167.2,109.2,167.1z"/>
</g>
</svg>
