<svg version="1.1" id="Layer_1" xmlns="http://www.w3.org/2000/svg" x="0" y="0" viewBox="0 0 200 200" xml:space="preserve"><style>.buf_oHNBIkHb{fill:#f6b913}.buf_kOv3mLW9{fill:#174833}</style><path class="buf_oHNBIkHb" d="M200 104.3c-.3.7-.2 1.4-.2 2.1-.5 8.5-2.1 16.7-4.8 24.8-4.4 13.3-11.3 25.2-20.6 35.6a99 99 0 01-42.8 28c-6.7 2.2-13.6 3.7-20.6 4.5-5.5.6-11 .8-16.5.4-22.3-1.4-42-9.2-59.1-23.6a99.11 99.11 0 01-30.8-46.5C2.7 123.5 1.4 117.3.7 111c-.6-5.6-.8-11.2-.4-16.9 1.4-22.2 9.2-41.8 23.6-58.8a98.83 98.83 0 0131.8-24.9c9.1-4.5 18.6-7.6 28.6-9.1C87.9.7 91.6.4 95.2.2c.1 0 .3 0 .4-.1h9c.1.1.2.1.3.1 1.2.1 2.4.2 3.7.2 5.1.4 10.2 1.2 15.2 2.5A99.34 99.34 0 01165 24a98.9 98.9 0 0126.5 35.5c4.8 10.9 7.6 22.3 8.4 34.2 0 .7-.1 1.4.2 2.1-.1 2.7-.1 5.6-.1 8.5zM100 5.6c-52 .1-94.1 42-94.2 93.9a94.15 94.15 0 0094.2 94.7c52.2 0 94.3-42.3 94.3-94.3.1-52-42.2-94.3-94.3-94.3z"/><path class="buf_kOv3mLW9" d="M100 5.6c52.1 0 94.3 42.2 94.3 94.3 0 52-42.1 94.3-94.3 94.3-52.3 0-94.4-42.3-94.2-94.7C5.9 47.6 48.1 5.7 100 5.6zM9.2 99.9c0 50.1 40.6 90.8 90.5 90.9 50.3.1 91-40.5 91.1-90.5.2-50.3-40.5-90.8-90.2-91.2C50.2 8.8 9.2 49.7 9.2 99.9z"/><path class="buf_oHNBIkHb" d="M9.2 99.9c0-50.2 41-91.1 91.5-90.8 49.7.3 90.3 40.8 90.2 91.2-.2 50-40.9 90.6-91.2 90.5-49.9-.2-90.5-40.8-90.5-90.9zm2.3 0c0 49 39.8 88.8 89.1 88.6 48.7-.3 88.3-40.1 88-89.3-.4-48.8-40.4-88.4-89.6-87.8-48.2.5-87.5 39.8-87.5 88.5z"/><path class="buf_kOv3mLW9" d="M11.5 99.9c0-48.7 39.3-88 87.5-88.6 49.2-.6 89.2 39 89.6 87.8.4 49.2-39.2 89-88 89.3-49.3.4-89.1-39.5-89.1-88.5zm115.9 48.4c-.1-.1-.1 0-.2.1-.1 0-.1.1-.1.1l-.2.2c-.2.1-.3.2-.4.3l-6.9 5.7c-.2.1-.3.3-.6.4.3-.9.7-1.8.9-2.7.2-.7.6-1.4.7-2.2h-.2c-3.2 1.7-6.4 3.3-9.5 5.1-1 .6-2 1.2-3 1.7-.1-.2.1-.4.2-.6 1.4-2.7 2.8-5.4 4.1-8.1.1-.2.3-.4.2-.7-3.8.7-7.6 1.5-11.3 2.2 0 0 0-.1-.1-.1l6-6.6c-2.5.3-4.8.6-7.2.9.8-1.4 1.5-2.7 2.2-4.1h-.6c-3.1.1-6.1.1-9.2.2-.3 0-.7 0-1-.2-3.3-1.2-6.6-2.5-9.9-3.7-.2-.1-.5-.2-.7-.4-1.8-1.2-3.5-2.4-5.2-3.6-.2-.1-.4-.2-.5-.4a238 238 0 018-2.2c-.2-.3-.4-.3-.6-.4-4-2.4-8.1-4.9-12.1-7.3-.4-.2-.4-.4-.2-.8.9-2.1 1.8-4.2 2.7-6.2.2-.4.2-.6-.3-.5-1.3.2-2.6.4-3.8.6-1.6.2-3.1.4-4.8.7 1.2-2.2 2.3-4.4 3.5-6.6-.4.1-.6.2-.9.2-2.3.6-4.7 1.1-7 1.7l-.1-.1c1.2-2.3 2.4-4.7 3.7-7.1-2 .5-3.9 1-5.9 1.6l2.5-4.4c.3-.6.3-.6-.4-.7-1.2-.1-2.5-.2-3.9-.4 1.5-1.1 2.8-2.2 4.2-3.2.4-.3.4-.5 0-.8-2.1-1.9-4.1-3.9-6.2-5.8-.4-.4-.3-.6.1-.8 2-1.3 3.9-2.6 5.8-3.9.2-.1.3-.2.6-.5-.3 0-.3 0-.4.1-2.6 1.4-5.3 2.9-7.9 4.3-.5.2-.2.4 0 .6l5.2 5.8c.4.4.3.6-.1.8l-7.5 4.8c-.2.1-.4.2-.5.4 2.2.3 4.4.7 6.5.8.5 0 .6.1.3.6l-3.3 5.7c-.1.2-.2.3-.2.5 2-.5 3.9-1.1 6-1.6-1.3 2.5-2.5 4.7-3.8 7.1 2.7-.7 5.3-1.3 8.1-2-1.1 2.1-2.1 4-3.2 6 3.3-.5 6.4-.9 9.7-1.3-.1.3-.2.5-.3.7-.6 1.4-1.2 2.7-1.8 4.1-.2.4-.1.6.2.8l5.4 3.3c1.4.8 2.8 1.7 4.3 2.6-2.6.7-5.2 1.5-7.8 2.2.2.1.3.2.3.2 3.4 2.3 6.7 4.7 10.1 7 .2.2.5.3.7.4 3.5 1.3 7 2.6 10.4 3.9.3.1.6.2 1 .2 1.6-.1 3.1-.1 4.7-.1h1.3c-.8 1.6-1.6 3-2.4 4.6 1.8-.2 3.5-.4 5.1-.6 0 .1 0 .1.1.1-2.1 2.4-4.3 4.7-6.4 7l.1.1c4.6-.9 9.1-1.8 13.8-2.6-.1.3-.2.4-.3.6-1 2-2.1 4-3.1 6-.9 1.9-2 3.7-2.8 5.6l-.1.1c.1.1.1 0 .1 0 .1-.1.2-.1.3-.1 4.9-2.9 9.9-5.6 14.7-8.6.1-.1.2-.1.5-.3-.5 1.9-1 3.7-1.5 5.7.3-.2.4-.4.5-.5 1.6-1.6 3.2-3.1 4.7-4.7 2-2 4-4.1 6-6.1l.2-.2.1-.1c.6-.4.6-.4.6-.5 0 0 .1-.1 0 0 .1-.1 0-.1 0 0 0-.1 0-.1 0 0zM62.3 66.9l.4-.4c2.9-3.3 6.1-6.2 9.9-8.4 1.4-.8 2.4-1.8 2.9-3.3.3-.8.8-1.5 1.2-2.3.1-.2.2-.3.2-.5h.1c-.4 0-.8.3-1.2.5-4.7 2.8-8.4 6.7-11.5 11.1-.9 1.1-1.6 2.1-2 3.3-.2 0-.2.1-.1.1 0 .1 0-.1.1-.1zm29.3 16s-.1 0 0 0c-.1 0-.1 0 0 0-.1 0 0 0 0 0-.1.2.1.4.2.5.4.8.9 1.5 1.3 2.3.7 1.5 1.1 3 .4 4.6-.1.2-.4.4-.2.6.2.2.4-.1.6-.3.4-.3.7-.7 1-1.1.2-.4.3-.9.6-1.4 1.1 1 2 2.1 2.6 3.3.5.9.8 1.8 1.3 2.7 1.8 3.2 4.7 5.2 8 6.7.1 0 .2.1.3 0 0-.3-.3-.3-.5-.4-3.3-2.2-5.8-5.1-7-9-1.4-4.2-4.5-6.9-8.6-8.5zM62.2 35.4l-.1-.1c.9-1.3.9-1.7.1-3-.6-1-1.2-2-1.8-2.9-1.2-1.9-2.8-2.2-4.7-1-1.1.7-2.2 1.4-3.4 2.1-.4.2-.4.4-.2.7.8 1.2 1.6 2.5 2.4 3.7 2.5 3.9 4.9 7.8 7.4 11.8.2.2.2.6.7.3 1.4-.9 2.9-1.8 4.3-2.7 1.5-1 1.7-2.2.8-3.8L65 36.3c-.5-.8-1.2-1-2-1-.2 0-.5.1-.8.1zm43.2 81.3l.1.1.1-.1h-.2c-.1-.2-.3-.3-.5-.4-1.3-.8-2.5-1.6-3.8-2.3-.3-.2-.4-.4-.3-.8.7-2 1.3-4 1.9-6 .1-.4.3-.5.7-.5 1.2 0 2.4-.1 3.6-.1.5 0 .7.2 1 .6 2.2 4.2 4.5 8.3 6.8 12.5.1.2.1.4.4.5.1-.2 0-.4-.1-.5-1.6-5-3.2-9.9-4.8-14.9-.5-1.5-1.3-2.5-3-3-3.6-1.1-7.3-1.9-11.1-2.5.7.9 1.3 1.8 2 2.7h-.5c-1.3-.2-2.7-.5-4-.8-.5-.1-.6.1-.6.5v2c0 .3.1.6-.1.9-1.6-2.1-3.1-4.1-4.7-6.1-.1.2-.1.3 0 .4.9 3.4 1.9 6.8 2.8 10.2.3 1.1.3 1.1 1.5 1.1.5 0 .7.2.8.6.4 2.1.9 4.1 1.4 6.1l.6 2.7c.4-1.6.7-3.1 1-4.7.1-.4.2-.5.6-.4l4.5 1.2c1.3.4 2.6.8 3.9 1zm9.4-63.8c2.6 1.1 4.9 2.7 7 4.6 5.2 4.7 8.5 10.5 10.6 17.1.5 1.7 1.1 3.4 1.7 5.3.8-1.9 1.5-3.7 2.2-5.5.8 1.6 1.3 3.2 1.8 4.8 1.8 6.7 1.3 13.1-2 19.3-1.2 2.3-2.9 4.4-4.4 6.6-.2.3-.3.6-.3.9 0 5.4.2 10.7.3 16.1 0 .2 0 .3.1.7.1-.2.1-.2.1-.3.8-5.1 1.5-10.2 2.2-15.2.1-.4.2-.7.4-.9 1.3-1.2 2.4-2.6 3.3-4 2.7-4.2 4.4-8.8 4.6-13.9.4-7.9-2-14.9-6.6-21.2 0-.1-.1-.1-.2-.1-.4 1-.8 1.9-1.2 3-.4-.9-.8-1.7-1.1-2.5-3.2-6.8-7.8-12.3-14.2-16.2-2.8-1.8-5.9-2.9-9.2-3.6-.4-.1-.4 0-.3.4.1.4.3.8.4 1.3-.2.1-.3 0-.4-.1-5.3-2.4-10.9-3-16.7-2.7-.3 0-.6 0-.7.4-1.1 1.8-2.1 3.6-3.1 5.4-.2.3-.1.4.3.4 1 0 2 .2 3 .3 1.1.2 2.2.3 3.5.5-.9-1.3-1.7-2.4-2.5-3.7 2.6-.1 5.1 0 7.5.3 4 .6 7.7 1.9 11 4.3 1.2.9 2.4 1.7 3.6 2.6.2.1.3.3.5.3-.4-1.5-.9-3-1.3-4.4.1-.2.1-.2.1-.3zm8.9 102.5c.2.1.4-.1.6-.1 8.9-3.9 16.4-9.6 22.5-17.1 10.6-13.1 15-28.1 13.3-44.9-.8-8.2-3.4-15.8-7.4-23-.7-1.2-1.4-2.5-2.2-3.6 0 0 0-.2-.1 0h.1c-.1.2 0 .5 0 .7.5 2.9.7 5.8.4 8.8 0 .3.1.5.2.8a55.3 55.3 0 014.3 31.1c-1.3 9.1-4.8 17.4-10.2 24.9-2.5 3.4-5.4 6.3-8.4 9.2-4.5 4.3-8.8 8.8-13.1 13.2zm-38-114.1c-.3 0-.4 0-.5.1-12.1 3.2-22.4 9.4-30.6 18.8A59.89 59.89 0 0040 94.4c-.6 6.3-.2 12.6 1.2 18.8a59.45 59.45 0 0021.1 33.7c11 8.8 23.7 13.2 37.8 13.3.4 0 .6-.1.8-.5.4-.9.9-1.7 1.3-2.6.2-.5.6-.9.7-1.5h-.2c-4.5.2-9-.1-13.4-1a54.44 54.44 0 01-29.7-16.3c-9.6-10.1-14.7-22.2-15.4-36.2-.2-6.5.6-13.1 2.8-19.4C52.5 66.5 63.2 55 79 48.2c.4-.2.8-.4 1.1-.8.9-1.2 1.8-2.2 2.8-3.3.8-.9 1.7-1.8 2.8-2.8zm10.5-4.1c-.2.1-.4.2-.6.2-.8.3-1.5.6-2.2 1a40.37 40.37 0 00-16.6 19c-2.1 4.8-2.8 9.8-1.9 14.9.6 3.3 2.3 5.8 5.4 7.2 2.6 1.2 5.3 1.4 8.1 1.2 2.3-.2 3.7-1.4 4.1-3.4.3-1.6 0-3.2-.5-4.8-.1-.3-.3-.3-.5-.3-.9-.2-1.8-.4-2.6-.8-3.1-1.3-5-3.5-5.3-7-.2-2.4.3-4.7 1-7 1.6-4.9 4.2-9.3 7-13.6 1.4-2.2 3-4.4 4.6-6.6zM23.9 97.9c0 6.7.4 11.3 1.3 15.9 2.4 12.6 7.5 23.9 15.5 33.8.8 1 .8 1 1.7.2.8-.7.8-.7.2-1.5a73.33 73.33 0 01-16.3-42.5 73.6 73.6 0 0118.8-53.3c.9-1 .9-1-.1-1.9-.7-.6-.7-.6-1.3.1-13.1 14.6-19.6 31.7-19.8 49.2zm152.3 2.1c0-4.6-.4-9.2-1.2-13.7a76.4 76.4 0 00-16.1-34.7c-.3-.4-.6-1.1-1-1.1s-.8.6-1.2.9c-.5.3-.4.5-.1 1a73.32 73.32 0 0117.2 42c.5 6.3.2 12.7-1 19a73.36 73.36 0 01-13.1 30.3c-.3.4-.9.8-.8 1.2.1.4.7.6 1.1 1 .4.5.7.3 1-.2 10-13.7 15.1-28.9 15.2-45.7zm-35.3-38.2v-.7c-.1-1.6-.4-3.2-.6-4.8-.1-1.1-.6-1.9-1.5-2.6-11.9-9.8-25.6-14.5-41-14.1-.4 0-.6.1-.8.4-.9 1.3-1.9 2.6-2.8 3.9-.1.1-.2.3-.2.4 18.3-1.5 33.9 4.3 46.9 17.5zm-32.3 68c1.8 1.3 3.5 2.5 5.2 3.7.1.1.1.1.2.1 1.1.3 2.3.9 3.4 0 .2-.2.4-.1.5.2.3 1.1 1.2 1.4 2.2 1.6l1.1.3c.7.3 1.3.3 1.9-.2.5-.4.8-.2 1 .3.1.3.2.8.7.9.7.2 1.4.7 2.2.5 1.5-.3 3-.8 4.5-1.2.3-.1.3-.2.3-.5-.2-1.3-.6-2.6-.6-3.9-.1-1.4-.6-2.2-2-2.3-.1 0-.2-.1-.4-.1-.5-.2-1-.2-1.5.1-.6.4-1.2.4-1.9.2-1.1-.4-2.2-.7-3.3-.9-1-.2-1.8-.7-2.2-1.7-.2-.4-.5-.7-1-.9-1.5-.8-2.9-.5-4.3.4-1.9 1.3-3.9 2.3-6 3.4zM97 173h.1c0 .4-.1.8-.1 1.2-.3 3.4-.7 6.8-1 10.2 0 .4.1.4.4.5.6 0 1.1.1 1.7.1.4.1.5-.1.5-.5.2-2.8.4-5.6.7-8.5.3-3.3.5-6.6.8-9.9 0-.4-.1-.5-.5-.5-.6 0-1.2-.1-1.9-.1-.4-.1-.6.1-.7.5l-2.1 7.2-.9 3.1c-.2-.1-.2-.3-.2-.4-.4-3.4-.9-6.8-1.3-10.3-.1-.4-.2-.5-.5-.5-.6 0-1.2-.1-1.7-.1-.6-.1-.7.1-.8.6-.4 5.8-.9 11.6-1.3 17.4-.1 1.5-.4 1.3 1.2 1.4.2 0 .4 0 .6.1.6.2.8-.1.8-.7.1-2.6.2-5.2.4-7.9.1-1.1.1-2.3.3-3.4.2 1.2.3 2.4.5 3.5.2 1.2.3 2.4.5 3.5.2 1.7.2 1.7 1.8 1.7.3 0 .5-.1.6-.4l.9-3c.2-1.7.7-3.2 1.2-4.8zm-12.6-7.4c0-.7-.1-1.4-.7-1.8a7.94 7.94 0 00-5.1-1.6c-1.4.1-1.9 1.3-2.3 2.4-1.4 4.5-2.7 9-4.1 13.6-.2.6-.7 1.3-.4 1.8.3.5 1.2.4 1.7.7.5.2.7.1.8-.4.5-1.9 1.1-3.7 1.6-5.6.1-.5.3-.7.8-.5.5.2 1.1.4 1.6.5.5.1.6.3.4.8l-1.8 5.8c-.1.4-.1.5.3.6.5.1 1 .2 1.5.4.4.2.6.1.7-.4 1.5-5 3-9.9 4.4-14.9.6-.5.7-.9.6-1.4zm35.8-144.8c.1-1.7-.7-2.7-2.2-3.1-.8-.2-1.6-.4-2.4-.5-1.1-.2-2.2 0-2.9 1-.3.5-.5 1-.6 1.5-1 5.2-2.1 10.4-3.1 15.5-.1.4.1.4.4.5l1.6.3c.4.1.6 0 .7-.4.4-2 .8-4 1.2-5.9.1-.5.3-.5.7-.4.6.1 1.1.3 1.7.3.6.1.7.3.5.8l-1.2 5.8c-.1.4 0 .6.4.6.5.1 1 .1 1.5.3.5.2.6 0 .7-.5.7-3.6 1.5-7.2 2.2-10.9.2-1.7.6-3.4.8-4.9zM133 157c-.5 0-1.2.2-1.8.6-1.2.6-2.4 1.3-3.5 1.9-.4.2-.5.4-.3.8.8 1.5 1.6 3.1 2.4 4.6 2 3.9 4.1 7.7 6.1 11.6.2.4.4.5.8.2 1.4-.8 2.8-1.4 4.1-2.2 1.8-1 2.1-2.2 1.2-4.1-1.7-3.3-3.5-6.5-5.2-9.8-.4-.8-.8-1.7-1.4-2.4-.6-.8-1.3-1.2-2.4-1.2zm-.5-114.7c0 .9.4 1.6 1.1 2.1 1 .7 1.9 1.3 3 1.9 1.3.7 2.5.4 3.5-.7.2-.3.4-.5.6-.8 1.4-2.2 2.8-4.3 4.2-6.5.9-1.4 1.9-2.8 2.8-4.3 1.1-1.7.7-3.1-.9-4.2-.7-.5-1.4-.9-2.1-1.3-1.8-1.1-3.2-.9-4.4.9-2.4 3.7-4.8 7.4-7.1 11.1-.4.5-.7 1.1-.7 1.8zM144.9 85c1.5-2 2.5-4 3.1-6.2.9-3.5.9-7 .2-10.6-.8-4.5-2.2-8.7-4.7-12.6-.4-.5-.7-1.1-1.2-1.6v.3c.6 3.2.9 6.5 1 9.8.1 3 0 6-.8 8.9-.1.2-.1.4 0 .7 1.4 3.5 2.3 7.2 2.4 11.3zM80.7 36c0-.7-.2-1.3-.4-2-1.7-4.5-3.3-9-5-13.5-.4-1-.4-1-1.5-.6l-.9.3c-.4.1-.5.3-.3.7.9 2.5 1.8 5 2.8 7.5.8 2.2 1.6 4.5 2.4 6.7.4 1.1.2 1.4-.8 1.8-.1 0-.2.1-.3.1-1.1.4-1.5.3-1.9-.8-.8-2-1.5-4.1-2.3-6.1-1-2.7-2-5.3-2.9-8-.2-.4-.3-.5-.7-.3-.5.2-.9.4-1.4.5-.4.1-.5.3-.3.7 1.8 4.7 3.5 9.4 5.2 14.1.2.6.5 1.1.8 1.6.7.9 1.6 1.3 2.7 1 1.2-.3 2.3-.7 3.4-1.3 1-.4 1.5-1.3 1.4-2.4zm33.1 137.7c-.3-2-.5-4.4-.9-6.8-.3-1.7-1.6-2.4-3.3-2.2-1.4.2-2.8.4-4.2.5-.6.1-.7.3-.6.8l.6 4.6c.6 4.5 1.2 9 1.7 13.6 0 .3.1.4.4.4.6-.1 1.2-.2 1.7-.2.4 0 .5-.2.4-.6-.3-2-.5-4-.8-6.1-.1-.4.1-.5.4-.5.6-.1 1.2-.1 1.9-.2 1.8-.2 2.7-1.3 2.7-3.3zM47.1 165c0 .8.3 1.4.8 1.9s1.1.9 1.6 1.3c1.8 1.4 3.3 1.2 4.7-.6.8-1 1.5-2.1 2.3-3.1.9-1.1 1-2.1.4-3.3-.5-1-1-2.1-1.4-3.1-.2-.4-.2-.7.1-1.1l2.1-2.7c.5-.6.9-.6 1.7-.1s.8 1 .4 1.6c-.3.5-1.1 1-.9 1.5.2.5.9.8 1.4 1.2.1.1.1.1.2.1.2.2.3.2.5-.1.5-.6 1-1.3 1.4-1.9.8-1.4.6-2.6-.6-3.6l-1.5-1.2c-1.7-1.2-3.1-1.1-4.4.6-.8 1.1-1.6 2.2-2.5 3.3-.8 1-.9 1.9-.3 3.1.5 1.1 1 2.2 1.4 3.2.1.3.2.6 0 .9-.8 1-1.5 2-2.3 3-.3.4-.8.5-1.2.2-1.2-.7-1.3-1.2-.4-2.3 0-.1.1-.1.2-.2.2-.2.2-.3 0-.5l-1.5-1.2c-.1-.1-.3-.2-.4 0-1.1 1-1.8 1.9-1.8 3.1zm96.1-15.7c-.1.1-.2.1-.3.2-1.5 1.1-2.9 2.3-4.4 3.4-.3.3-.2.4 0 .7 3.8 4.8 7.6 9.6 11.4 14.5.3.4.5.3.8.1 1.1-.9 2.1-1.7 3.2-2.5.5-.4 1.3-.7 1.3-1.2s-.7-1-1-1.5c-.2-.3-.4-.3-.6-.1-.8.6-1.5 1.2-2.3 1.8-.3.2-.4.2-.6-.1-1.1-1.5-2.3-2.9-3.4-4.4-.2-.3-.2-.4.1-.6.7-.5 1.3-1.1 2-1.6.3-.2.3-.3.1-.6l-.9-1.2c-.2-.3-.4-.3-.7-.1-.6.5-1.3 1-1.9 1.5-.3.2-.4.2-.7-.1-1-1.3-2-2.6-3.1-3.9-.2-.3-.3-.4.1-.7.4-.3.8-.6 1.2-1 .4-.4 1.3-.7 1.3-1.2s-.7-1-1.1-1.5c-.3.2-.3.1-.5.1zm-20.3 12.1s-.1 0-.2.1c-1.8.6-3.5 1.1-5.3 1.7-.3.1-.4.3-.3.6l.9 3c1.5 4.9 3.1 9.7 4.6 14.6.1.3.1.5.6.4 1.8-.6 3.6-1.1 5.3-1.7.3-.1.4-.2.3-.5-.2-.5-.3-.9-.4-1.4-.1-.4-.3-.4-.6-.3l-2.7.9c-.3.1-.5.1-.6-.3-.5-1.8-1.1-3.5-1.7-5.3-.1-.3-.1-.5.3-.6.8-.2 1.6-.5 2.4-.8.3-.1.4-.2.3-.5-.2-.5-.3-.9-.4-1.4-.1-.4-.3-.4-.6-.3-.8.3-1.6.5-2.3.7-.3.1-.5.1-.6-.3l-1.5-4.8c-.1-.3-.1-.5.3-.6.5-.1 1-.3 1.5-.5.6-.2 1.4-.2 1.6-.6.2-.5-.3-1.2-.4-1.8 0-.1-.1-.1-.1-.2-.1-.1-.2-.1-.4-.1zM90.4 18.2c-.1-.5-.2-1-.2-1.6 0-.3-.2-.3-.4-.3l-5.5.9c-.4.1-.5.1-.4.5.6 3.5 1.1 7.1 1.7 10.6.4 2.5.8 5 1.2 7.6.1.3.1.7.6.5.4-.1.9-.2 1.4-.2.6 0 .7-.3.6-.8l-1.2-7.3c-.1-.5.1-.7.6-.8.8-.1 1.5-.2 2.3-.4.3 0 .4-.2.3-.5-.1-.5-.2-1-.2-1.5 0-.4-.2-.5-.5-.4-.8.1-1.6.3-2.5.4-.3.1-.5 0-.5-.4-.2-1.7-.5-3.3-.8-5-.1-.3 0-.4.4-.5 1-.1 2-.3 2.9-.5 0 .1.3.1.2-.3zm7.8 7.2h-.3v9.1c0 .6.2.7.7.7h1.3c.5 0 .6-.1.6-.6 0-2.2.1-4.5.1-6.7 0-1.5 0-1.5 1.5-1.5.6 0 1.4.3 1.8-.1.3-.4.1-1.2.2-1.8 0-.4-.1-.4-.4-.4h-2.5c-.4 0-.5-.1-.5-.5.1-1.6.1-3.2.1-4.9 0-.4.1-.5.5-.5h1.6c.6 0 1.4.2 1.7-.1.4-.4.1-1.2.2-1.8 0-.4-.1-.5-.5-.5-1.8 0-3.6 0-5.4-.1-.5 0-.6.2-.6.6-.1 3-.1 6-.1 9.1zM68.1 160l-.6 1.2c-2.3 4.4-4.5 8.9-6.8 13.3-.2.4-.2.6.2.8.4.2.9.4 1.3.6.4.3.6.2.9-.3l7.2-14.1c.2-.4.4-.5.8-.3.5.3 1.2.9 1.6.7.5-.2.6-1.1.9-1.6.2-.3.1-.4-.2-.5-2-1-4.1-2.1-6.1-3.1-.2-.1-.4-.1-.5.1-.2.5-.5 1-.7 1.4-.2.3-.1.4.2.6.5.2 1 .5 1.4.7.2.2.4.3.4.5zm59.3-118.9c.2.1.3-.2.3-.3.2-.5.4-1 .6-1.4.1-.3.1-.4-.2-.5-.7-.3-1.4-.6-2.2-.9-.6-.2-.7-.4-.4-1 1.8-4.4 3.6-8.9 5.4-13.3.2-.6.7-1.3.6-1.7-.2-.5-1.1-.5-1.6-.8-.1 0-.1 0-.2-.1-.4-.2-.6-.1-.7.3-2.3 5.7-4.6 11.4-6.9 17-.2.4-.1.5.3.7 1.6.6 3.2 1.3 4.8 1.9 0 0 .1.1.2.1zM65.3 75.9c2.2-.5 4.3-.9 6.4-1.5-3.4 0-6.8.1-10.2.5 0 .1.1.2.2.2 4.5 4 9.1 7.8 13.8 11.5.3.2.6.2.8.1 2.7-.9 5.4-1.9 8.1-2.9.4-.2.9-.4 1.5-.6-.9-.1-1.6-.1-2.3-.3-.9-.2-1.7-.1-2.5.1l-4.3 1.2c-.4.1-.7.1-1-.2-2.3-1.9-4.7-3.8-7.1-5.6-1-.7-2.2-1.6-3.4-2.5zm44.9 60.4c1.1.6 2 1.3 3.1 1.6 2.8.8 5.6 1.7 8.4 2.6 1.8.6 3.5 1.1 5.5.9-1-.5-1.8-1.2-2.8-1.5l-8-2.4c-1.9-.6-3.8-1.4-6.2-1.2zm-9.1-37.6c-.2-.2-.3-.3-.5-.4-1.4-1.2-2.6-2.6-3.3-4.3-.3-.7-.6-1.3-.8-1.9-.1-.3-.3-.4-.6-.2-.9.7-1.4 1.6-1.7 2.7-.1.2 0 .4.2.6 1.7 2 3.8 3.2 6.7 3.5zm49.3-5.6c-.2-.2-.4-.3-.5-.4l-4.2-2.7c-.3-.2-.6-.6-.8-.3-.3.3.3.6.5.8.7.7 1.4 1.3 2.3 2-.9.1-1.6.2-2.4.3-1.1.1-1.1.2-1.3 1.3 0 .3.1.4.3.3 2-.5 4-.9 6.1-1.3z"/><path class="buf_oHNBIkHb" d="M85.7 41.3c-1.1 1-2 1.9-2.8 2.8-1 1.1-1.9 2.1-2.8 3.3-.3.4-.6.6-1.1.8C63.2 55 52.5 66.4 47 82.7c-2.2 6.3-3 12.9-2.7 19.6.7 13.9 5.8 26 15.4 36.2 8.1 8.6 18.1 14 29.7 16.3 4.4.9 8.9 1.2 13.4 1h.2c-.1.6-.5 1-.7 1.5-.4.9-.9 1.7-1.3 2.6-.2.4-.4.5-.8.5-14.1-.1-26.8-4.4-37.8-13.3-10.9-8.8-18-20.1-21.1-33.7-1.4-6.2-1.8-12.5-1.2-18.8 1.2-13 6.1-24.4 14.6-34.2 8.2-9.4 18.5-15.7 30.6-18.8 0-.2.1-.2.4-.3z"/><path class="buf_oHNBIkHb" d="M59.4 110.8c2.3-.6 4.7-1.1 7-1.7.2-.1.5-.1.9-.2-1.2 2.2-2.3 4.4-3.5 6.6 1.7-.2 3.2-.4 4.8-.7 1.3-.2 2.6-.3 3.8-.6.6-.1.5.1.3.5-.9 2.1-1.8 4.2-2.7 6.2-.2.4-.1.6.2.8 4.1 2.4 8.1 4.9 12.1 7.3.2.1.4.2.6.4a238 238 0 01-8 2.2c.1.3.3.3.5.4 1.7 1.2 3.5 2.4 5.2 3.6.2.1.4.3.7.4 3.3 1.2 6.6 2.5 9.9 3.7.3.1.6.2 1 .2 3.1-.1 6.1-.1 9.2-.2h.6c-.7 1.4-1.4 2.7-2.2 4.1l7.2-.9-6 6.6s0 .1.1.1c3.8-.7 7.6-1.4 11.3-2.2 0 .3-.1.5-.2.7-1.4 2.7-2.8 5.4-4.1 8.1-.1.2-.3.3-.2.6h-.1v.1s0-.1.1-.1c1.1-.5 2-1.1 3-1.7 3.1-1.8 6.4-3.4 9.5-5.1h.2c-.1.8-.4 1.5-.7 2.2l-.9 2.7c.3-.1.4-.2.6-.4l6.9-5.7c.1-.1.3-.2.4-.3l.1.1c-2 2.1-4 4.1-6 6.1l-4.7 4.7c-.1.1-.3.2-.5.5.5-2 1-3.8 1.5-5.7-.2.1-.3.2-.5.3-4.8 3.1-9.8 5.7-14.7 8.6-.1.1-.2.1-.3.1l-.1-.1c.8-1.9 1.9-3.8 2.8-5.6 1-2 2.1-4 3.1-6 .1-.2.2-.3.3-.6-4.6.9-9.2 1.8-13.8 2.6l-.1-.1c2.1-2.4 4.3-4.7 6.4-7 0-.1 0-.1-.1-.1-1.7.2-3.3.4-5.1.6.8-1.6 1.6-3 2.4-4.6h-1.3c-1.6 0-3.1.1-4.7.1-.3 0-.7-.1-1-.2-3.5-1.3-7-2.6-10.4-3.9-.2-.1-.5-.2-.7-.4-3.4-2.3-6.7-4.7-10.1-7-.1-.1-.2-.1-.3-.2 2.6-.7 5.1-1.4 7.8-2.2-1.5-.9-2.9-1.8-4.3-2.6l-5.4-3.3c-.4-.2-.4-.4-.2-.8.6-1.3 1.2-2.7 1.8-4.1.1-.2.2-.4.3-.7-3.2.4-6.4.9-9.7 1.3 1.1-2 2.1-3.9 3.2-6-2.8.7-5.4 1.3-8.1 2 1.3-2.4 2.5-4.7 3.8-7.1-2.1.6-4.1 1.1-6 1.6-.1-.2.1-.4.2-.5l3.3-5.7c.3-.5.2-.6-.3-.6-2.2-.1-4.3-.5-6.5-.8.1-.3.3-.3.5-.4L57 96c.4-.3.5-.4.1-.8-1.8-1.9-3.5-3.8-5.2-5.8-.2-.2-.5-.4 0-.6 2.6-1.4 5.3-2.8 7.9-4.3 0 0 .1 0 .4-.1-.3.2-.5.3-.6.5-1.9 1.3-3.9 2.6-5.8 3.9-.4.3-.5.4-.1.8 2.1 1.9 4.1 3.9 6.2 5.8.4.3.4.5 0 .8-1.4 1-2.7 2.1-4.2 3.2 1.4.1 2.7.3 3.9.4.7.1.7.1.4.7l-2.5 4.4c2-.6 3.9-1.1 5.9-1.6-1.3 2.4-2.5 4.8-3.7 7.1 0 .1-.1.1 0 .1l-.3.3z"/><path class="buf_oHNBIkHb" d="M150.4 66.7c.9 1.1 1.6 2.3 2.2 3.6 4 7.2 6.6 14.8 7.4 23 1.7 16.8-2.7 31.8-13.3 44.9a59.23 59.23 0 01-22.5 17.1c-.2.1-.4.2-.6.1 4.3-4.4 8.7-8.9 13.1-13.2 3-2.9 5.9-5.9 8.4-9.2 5.4-7.5 8.9-15.7 10.2-24.9 1.6-10.8.1-21.1-4.3-31.1-.1-.2-.2-.5-.2-.8.4-2.9.2-5.8-.4-8.8 0-.2-.1-.5 0-.7zM116.1 57.5c-.2.1-.4-.2-.5-.3-1.2-.8-2.4-1.7-3.6-2.6-3.3-2.4-7-3.7-11-4.3-2.5-.3-5-.4-7.6-.3.8 1.2 1.6 2.4 2.5 3.7-1.3-.2-2.4-.3-3.5-.5-1-.1-2-.3-3-.3-.3 0-.4-.1-.3-.4.9-1.8 2-3.7 3.1-5.4.2-.3.4-.3.7-.4 5.7-.3 11.3.3 16.7 2.7.1 0 .2.2.4.1 0-.4-.2-.9-.4-1.3-.1-.3 0-.5.3-.4 3.3.7 6.3 1.8 9.2 3.6 6.4 3.9 11 9.5 14.2 16.2.4.8.7 1.6 1.1 2.5.4-1.1.9-2.1 1.2-3 .1-.1.2 0 .2.1 4.6 6.3 7 13.4 6.6 21.2-.2 5-1.9 9.6-4.6 13.9-.9 1.5-2 2.8-3.3 4-.3.3-.4.5-.4.9-.7 5.1-1.5 10.2-2.2 15.2 0 .1 0 .1-.1.3 0-.3-.1-.5-.1-.7-.1-5.4-.3-10.7-.3-16.1 0-.4.1-.6.3-.9 1.5-2.1 3.2-4.2 4.4-6.6 3.3-6.2 3.8-12.6 2-19.3-.4-1.6-1-3.2-1.8-4.8a90 90 0 00-2.2 5.5c-.6-1.8-1.1-3.6-1.7-5.3-2.1-6.6-5.4-12.5-10.6-17.1-2.1-1.9-4.4-3.5-7-4.6l-.1-.1c-.1 0-.1.1 0 .2.5 1.6.9 3.1 1.4 4.6z"/><path class="buf_oHNBIkHb" d="M96.2 37.2c-1.6 2.2-3.2 4.4-4.7 6.6-2.8 4.3-5.4 8.7-7 13.6-.7 2.3-1.2 4.6-1 7 .3 3.4 2.2 5.7 5.3 7 .8.3 1.7.6 2.6.8.2 0 .4.1.5.3.5 1.6.8 3.2.5 4.8-.4 2-1.7 3.2-4.1 3.4-2.8.3-5.5 0-8.1-1.2-3.1-1.4-4.8-3.9-5.4-7.2-.9-5.2-.2-10.2 1.9-15 3.5-8.1 9.1-14.4 16.6-19 .7-.4 1.4-.8 2.2-1 .3.1.5 0 .7-.1zM23.9 97.9c.2-17.5 6.8-34.5 19.8-49.1.6-.7.7-.7 1.3-.1 1 .9 1 .9.1 1.9-9.1 10.2-15 22-17.6 35.5-1.1 5.9-1.5 11.8-1.2 17.8.9 15.9 6.3 30 16.3 42.5.7.8.7.8-.2 1.5-1 .8-.9.8-1.7-.2-8-10-13.2-21.3-15.5-33.8-.9-4.7-1.3-9.3-1.3-16zM176.2 100c-.1 16.8-5.2 32-15.2 45.6-.3.5-.6.6-1 .2-.4-.4-1-.6-1.1-1-.1-.4.5-.8.8-1.2 6.6-9.1 11-19.2 13.1-30.3 1.2-6.3 1.5-12.6 1-19-1.3-15.8-7-29.8-17.2-42-.4-.4-.4-.6.1-1 .4-.3.8-.9 1.2-.9.4 0 .7.7 1 1.1A76.4 76.4 0 01175 86.2c.8 4.6 1.2 9.2 1.2 13.8z"/><path class="buf_oHNBIkHb" d="M140.9 61.8c-13-13.2-28.6-19-46.9-17.5-.1-.2.1-.3.2-.4.9-1.3 1.9-2.6 2.8-3.9.2-.3.4-.4.8-.4 15.4-.4 29.1 4.3 41 14.1.9.7 1.4 1.4 1.5 2.6.1 1.6.4 3.2.6 4.8v.7zM105.4 116.7c-1.3-.2-2.6-.6-3.9-.9l-4.5-1.2c-.4-.1-.6 0-.6.4-.3 1.6-.6 3.1-1 4.7l-.6-2.7c-.5-2.1-.9-4.1-1.4-6.1-.1-.4-.3-.7-.8-.6-1.2 0-1.2 0-1.5-1.1-.9-3.4-1.9-6.8-2.8-10.2 0-.1-.1-.2 0-.4 1.6 2 3.1 4 4.7 6.1.2-.3.1-.6.1-.9v-2c0-.4 0-.6.6-.5 1.3.3 2.7.5 4 .8h.5c-.7-.9-1.3-1.8-2-2.7 3.8.6 7.5 1.4 11.1 2.5 1.7.5 2.5 1.6 3 3 1.7 4.9 3.2 9.9 4.8 14.9.1.2.1.3.1.5-.2-.1-.3-.3-.4-.5-2.2-4.2-4.5-8.3-6.8-12.5-.2-.4-.5-.6-1-.6-1.2.1-2.4.1-3.6.1-.4 0-.6.2-.7.5-.6 2-1.2 4-1.9 6-.1.4 0 .6.3.8 1.3.8 2.5 1.5 3.8 2.3.2 0 .5.1.5.3zM108.6 129.8c2.1-1.1 4.1-2.1 5.9-3.3 1.4-.9 2.7-1.2 4.3-.4.4.2.8.5 1 .9.4 1 1.2 1.5 2.2 1.7 1.1.2 2.2.6 3.3.9.7.2 1.3.2 1.9-.2.5-.3 1-.3 1.5-.1.1.1.2.1.4.1 1.4.1 1.9.9 2 2.3.1 1.3.4 2.6.6 3.9.1.3 0 .4-.3.5l-4.5 1.2c-.8.2-1.4-.3-2.2-.5-.4-.1-.5-.6-.7-.9-.2-.5-.5-.7-1-.3-.6.4-1.2.4-1.9.2-.3-.1-.7-.2-1.1-.3-1-.2-1.9-.5-2.2-1.6-.1-.3-.3-.4-.5-.2-1.2.9-2.3.3-3.4 0-.1 0-.2-.1-.2-.1-1.6-1.3-3.3-2.5-5.1-3.8zM97 173c-.5 1.6-.9 3.2-1.4 4.8l-.9 3c-.1.3-.2.4-.6.4-1.6-.1-1.6 0-1.8-1.7-.1-1.2-.3-2.4-.5-3.5-.2-1.2-.3-2.4-.5-3.5-.2 1.1-.2 2.3-.3 3.4-.2 2.6-.3 5.2-.4 7.9 0 .6-.2.8-.8.7-.2-.1-.4 0-.6-.1-1.6-.1-1.3.1-1.2-1.4.4-5.8.9-11.6 1.3-17.4 0-.6.2-.7.8-.6.6.1 1.2.1 1.7.1.4 0 .5.2.5.5.4 3.4.9 6.9 1.3 10.3 0 .1 0 .3.2.4l.9-3.1 2.1-7.2c.1-.4.2-.6.7-.5.6.1 1.2.1 1.9.1.3 0 .5.1.5.5-.3 3.3-.5 6.6-.8 9.9-.2 2.8-.5 5.6-.7 8.5 0 .4-.1.6-.5.5-.6-.1-1.1-.1-1.7-.1-.3 0-.4-.1-.4-.5.4-3.4.7-6.8 1-10.2 0-.4.1-.8.1-1.2h.1zM62.2 35.4c.3 0 .5-.1.8-.1.8 0 1.6.2 2 1l2.7 4.2c.9 1.5.6 2.8-.8 3.8-1.4.9-2.8 1.8-4.3 2.7-.4.3-.5 0-.7-.3-2.5-3.9-4.9-7.8-7.4-11.8-.8-1.2-1.6-2.5-2.4-3.7-.2-.3-.2-.5.2-.7 1.1-.7 2.2-1.4 3.4-2.1 1.9-1.2 3.5-.9 4.7 1 .6 1 1.2 1.9 1.8 2.9.8 1.3.8 1.8-.1 3 0 0-.1.1 0 .2.1 0 .1-.1.1-.1zm-.4 1.8c-.7.1-1.3.6-1.9 1-.2.1 0 .3 0 .4 1 1.6 2 3.3 3.1 4.9.1.2.2.3.4.2.5-.4 1.1-.7 1.6-1.1.4-.3.5-.7.2-1.1-.8-1.2-1.5-2.5-2.3-3.7-.2-.4-.5-.6-1.1-.6zm-1.5-2.7c0-.3-.2-.6-.3-.9l-1.5-2.4c-.6-1-1.1-1.1-2.1-.5-.2.1-.4.3-.6.4-.4.2-.3.4-.2.7.7 1.2 1.5 2.3 2.2 3.5.7 1.1.7 1.1 1.8.3.4-.3.7-.7.7-1.1zM84.4 165.6c0 .5-.1.9-.2 1.4-1.5 5-3 9.9-4.4 14.9-.1.4-.3.6-.7.4-.5-.2-1-.3-1.5-.4-.4-.1-.4-.2-.3-.6l1.8-5.8c.2-.5 0-.7-.4-.8-.6-.1-1.1-.3-1.6-.5s-.7 0-.8.5c-.5 1.9-1.1 3.7-1.6 5.6-.1.5-.3.6-.8.4-.6-.2-1.5-.2-1.7-.7-.2-.5.2-1.2.4-1.8 1.3-4.5 2.7-9 4.1-13.6.3-1.2.9-2.4 2.3-2.4 1.9-.1 3.6.4 5.1 1.6.2.4.4 1.1.3 1.8zm-2.7.5c0-.5-.1-.8-.6-1l-.9-.3c-.8-.2-1.2 0-1.4.8-.6 1.9-1.1 3.8-1.7 5.7-.1.4 0 .5.3.6.6.2 1.3.4 1.9.6.3.1.5.1.6-.3.6-1.9 1.1-3.8 1.7-5.7.1-.2.1-.3.1-.4zM120.2 20.8c-.2 1.5-.6 3.3-1 5-.7 3.6-1.5 7.2-2.2 10.9-.1.5-.2.6-.7.5-.5-.2-1-.2-1.5-.3-.4-.1-.5-.2-.4-.6l1.2-5.8c.1-.5 0-.7-.5-.8l-1.7-.3c-.4-.1-.6 0-.7.4-.4 2-.8 4-1.2 5.9-.1.5-.2.5-.7.4l-1.6-.3c-.3 0-.4-.1-.4-.5 1.1-5.2 2.1-10.4 3.1-15.5.1-.5.3-1.1.6-1.5.7-1 1.8-1.2 2.9-1 .8.1 1.6.3 2.4.5 1.8.2 2.5 1.2 2.4 3zm-4.3-1.2c-.8-.1-1.2.2-1.3.8l-1.2 5.9c-.1.4.1.5.4.6.7.1 1.3.2 1.9.4.3.1.5 0 .6-.4l1.2-5.9c.2-.7-.1-1.1-.9-1.3-.3 0-.6-.1-.7-.1zM133 157c1.1 0 1.9.4 2.4 1.1.6.7 1 1.6 1.4 2.4 1.7 3.3 3.5 6.5 5.2 9.8 1 1.8.6 3.1-1.2 4.1-1.4.8-2.8 1.4-4.1 2.2-.4.2-.6.1-.8-.2-2-3.9-4.1-7.7-6.1-11.6-.8-1.5-1.6-3.1-2.4-4.6-.3-.5-.1-.6.3-.8 1.2-.6 2.4-1.2 3.5-1.9.6-.3 1.2-.5 1.8-.5zm-.3 2.6c-.6.1-1.1.5-1.7.8-.4.2-.5.3-.2.7l3.3 6.3c1 1.9 2.1 3.9 3.1 5.8.2.4.4.5.8.2.4-.2.8-.4 1.2-.7.7-.4.8-.7.4-1.4-.9-1.7-1.8-3.4-2.7-5.2-1-1.9-2-3.7-3-5.6-.3-.5-.6-.9-1.2-.9zM132.5 42.3c0-.7.3-1.3.6-1.9 2.4-3.7 4.7-7.4 7.1-11.1 1.2-1.8 2.6-2 4.4-.9.7.4 1.4.9 2.1 1.3 1.7 1.1 2 2.5.9 4.2-.9 1.5-1.8 2.9-2.8 4.3-1.4 2.2-2.8 4.3-4.2 6.5-.2.3-.4.6-.6.8-1 1.2-2.2 1.5-3.5.7-1-.6-2-1.2-3-1.9-.6-.3-1-1.1-1-2zm12.9-10c0-.3-.2-.6-.5-.8-.3-.2-.7-.4-1-.6-.9-.5-1.2-.5-1.8.4-.9 1.5-1.9 2.9-2.8 4.4-1.2 1.9-2.5 3.8-3.7 5.8-.5.8-.4 1.2.4 1.8.3.2.5.3.8.5.8.5 1.2.5 1.7-.3 2.2-3.4 4.4-6.9 6.6-10.3.2-.4.3-.6.3-.9zM144.9 85c-.2-4-1-7.7-2.4-11.3-.1-.2-.1-.4 0-.7.8-2.9.9-5.9.8-8.9-.1-3.3-.5-6.5-1-9.8V54c.5.5.9 1.1 1.2 1.6 2.5 3.8 3.9 8.1 4.7 12.6.6 3.5.7 7.1-.2 10.6-.6 2.2-1.6 4.2-3.1 6.2zM80.7 36c0 1.1-.4 1.9-1.3 2.4-1.1.6-2.2 1-3.4 1.3-1.1.3-2-.2-2.7-1-.4-.5-.6-1-.8-1.6-1.7-4.7-3.5-9.4-5.2-14.1-.2-.5-.1-.6.3-.7.5-.1.9-.3 1.4-.5.4-.2.6-.1.7.3 1 2.7 2 5.4 2.9 8 .8 2.1 1.5 4.1 2.3 6.1.4 1.1.8 1.3 1.9.8.1 0 .2-.1.3-.1 1.1-.4 1.2-.7.8-1.8-.8-2.2-1.6-4.5-2.4-6.7-.9-2.5-1.8-5-2.8-7.5-.2-.4-.1-.6.3-.7l.9-.3c1.1-.4 1.1-.4 1.5.6 1.7 4.5 3.3 9 5 13.5.1.7.4 1.4.3 2zM113.8 173.7c0 2.1-.9 3.1-2.6 3.3-.6.1-1.2.2-1.9.2-.3 0-.5.1-.4.5.3 2 .5 4 .8 6.1.1.4 0 .5-.4.6-.6.1-1.2.1-1.7.2-.3.1-.4-.1-.4-.4-.6-4.5-1.2-9-1.7-13.6l-.6-4.6c-.1-.5 0-.7.6-.8 1.4-.1 2.8-.3 4.2-.5 1.7-.2 3 .5 3.3 2.2.3 2.4.5 4.8.8 6.8zm-4.6-6.6c-.3 0-.7.1-1 .1-.4 0-.5.2-.5.6l.9 6.7c0 .2 0 .4.3.3.6-.1 1.3-.1 1.8-.3.4-.2.5-.6.5-1-.2-1.8-.5-3.7-.7-5.5-.2-.6-.5-.9-1.3-.9zM47.1 165c0-1.2.7-2.1 1.4-3 .2-.2.3-.1.4 0l1.5 1.2c.2.2.2.3 0 .5l-.2.2c-.8 1.1-.7 1.6.4 2.3.5.3.9.2 1.2-.2.8-1 1.5-2 2.3-3 .2-.3.1-.6 0-.9-.5-1.1-.9-2.2-1.4-3.2-.6-1.1-.4-2.1.3-3.1.9-1.1 1.6-2.2 2.5-3.3 1.3-1.7 2.7-1.9 4.4-.6l1.5 1.2c1.2 1 1.4 2.3.6 3.6-.4.7-.9 1.3-1.4 1.9-.2.2-.3.2-.5.1-.1-.1-.1-.1-.2-.1-.5-.4-1.2-.7-1.4-1.2-.2-.5.6-1 .9-1.5.4-.7.3-1.1-.4-1.6s-1.2-.6-1.7.1l-2.1 2.7c-.3.4-.2.7-.1 1.1.5 1 .9 2.1 1.4 3.1.6 1.2.5 2.3-.4 3.3-.8 1-1.6 2.1-2.3 3.1-1.4 1.8-2.8 2-4.7.6-.5-.4-1.1-.8-1.6-1.3-.1-.6-.4-1.2-.4-2zM143.2 149.3c.2 0 .2.1.3.2.4.5 1.1 1 1.1 1.5.1.6-.8.8-1.3 1.2-.4.4-.8.7-1.2 1-.3.2-.3.4-.1.7 1 1.3 2.1 2.6 3.1 3.9.2.3.4.3.7.1.6-.5 1.3-1 1.9-1.5.3-.2.5-.3.7.1l.9 1.2c.2.2.2.4-.1.6-.7.5-1.3 1.1-2 1.6-.3.2-.3.4-.1.6 1.2 1.4 2.3 2.9 3.4 4.4.2.3.4.3.6.1.8-.6 1.5-1.2 2.3-1.8.3-.2.4-.2.6.1.4.5 1 1 1 1.5s-.8.8-1.3 1.2c-1.1.9-2.1 1.7-3.2 2.5-.3.3-.5.3-.8-.1-3.8-4.8-7.6-9.6-11.4-14.5-.2-.3-.3-.4 0-.7 1.5-1.1 2.9-2.3 4.4-3.4.3-.4.4-.5.5-.5zM122.9 161.4c.2 0 .3 0 .3.2 0 .1.1.1.1.2.2.6.7 1.3.4 1.8-.2.5-1.1.4-1.6.6-.5.2-1 .3-1.5.5-.4.1-.4.3-.3.6l1.5 4.8c.1.4.3.4.6.3.8-.3 1.6-.5 2.3-.7.3-.1.5-.1.6.3.1.5.3 1 .4 1.4.1.3 0 .4-.3.5-.8.2-1.6.5-2.4.8-.4.1-.4.2-.3.6.6 1.8 1.1 3.5 1.7 5.3.1.4.3.4.6.3l2.7-.9c.3-.1.5-.1.6.3.1.5.3 1 .4 1.4.1.3 0 .4-.3.5-1.8.6-3.6 1.1-5.3 1.7-.4.1-.5-.1-.6-.4-1.5-4.9-3.1-9.7-4.6-14.6l-.9-3c-.1-.3-.1-.5.3-.6 1.8-.5 3.5-1.1 5.3-1.7.2-.2.2-.2.3-.2zM90.4 18.2c.1.5-.2.4-.3.5-1 .2-2 .3-2.9.5-.3 0-.4.2-.4.5.3 1.7.6 3.3.8 5 .1.4.2.4.5.4.8-.2 1.6-.3 2.5-.4.3-.1.5 0 .5.4.1.5.1 1 .2 1.5.1.3 0 .5-.3.5-.8.1-1.5.3-2.3.4-.5 0-.7.2-.6.8l1.2 7.3c.1.5.1.8-.6.8-.5 0-1 .1-1.4.2-.5.2-.5-.2-.6-.5-.4-2.5-.8-5-1.2-7.6-.6-3.5-1.1-7.1-1.7-10.6-.1-.4 0-.5.4-.5l5.5-.9c.3 0 .4 0 .4.3.1.4.2.9.3 1.4zM98.2 25.4v-9.2c0-.4.1-.6.6-.6 1.8.1 3.6.1 5.4.1.4 0 .5.1.5.5-.1.6.2 1.4-.2 1.8-.3.3-1.1.1-1.7.1h-1.6c-.4 0-.5.1-.5.5 0 1.6 0 3.2-.1 4.9 0 .4.1.5.5.5h2.5c.3 0 .4.1.4.4-.1.6.2 1.4-.2 1.8-.3.4-1.2.1-1.8.1-1.5 0-1.5 0-1.5 1.5 0 2.2-.1 4.5-.1 6.7 0 .5-.2.7-.6.6h-1.3c-.5 0-.7-.1-.7-.7v-9h.4zM68.1 160c0-.3-.2-.3-.3-.4-.5-.2-.9-.5-1.4-.7-.3-.1-.4-.2-.2-.6.3-.5.5-1 .7-1.4.1-.2.2-.3.5-.1 2 1 4.1 2.1 6.1 3.1.2.1.3.2.2.5-.3.6-.5 1.4-.9 1.6-.4.2-1.1-.4-1.6-.7-.4-.2-.6-.1-.8.3l-7.2 14.1c-.2.5-.4.6-.9.3-.4-.3-.8-.5-1.3-.6-.5-.2-.4-.4-.2-.8 2.3-4.4 4.5-8.9 6.8-13.3.1-.5.3-.9.5-1.3zM127.4 41.1c-.1 0-.2-.1-.3-.1-1.6-.7-3.2-1.3-4.8-1.9-.4-.2-.4-.3-.3-.7 2.3-5.7 4.6-11.4 6.9-17 .2-.4.3-.5.7-.3.1 0 .1 0 .2.1.6.3 1.5.3 1.6.8.1.5-.4 1.1-.6 1.7-1.8 4.5-3.6 8.9-5.4 13.3-.2.6-.1.8.4 1 .8.2 1.5.6 2.2.9.3.1.4.2.2.5-.2.5-.4 1-.6 1.4.1.1.1.4-.2.3zM65.3 75.9a194.1 194.1 0 0110.6 8.2c.3.2.6.3 1 .2l4.3-1.2c.8-.2 1.6-.3 2.5-.1.7.2 1.4.2 2.3.3-.6.2-1 .4-1.5.6-2.7 1.1-5.4 2-8.1 2.9-.3.1-.5.2-.8-.1-4.8-3.7-9.4-7.5-13.8-11.5l-.2-.2c3.4-.4 6.8-.6 10.2-.5-2.2.5-4.3.9-6.5 1.4zM91.6 82.9c4.1 1.6 7.3 4.2 8.6 8.6 1.2 3.9 3.7 6.8 7 9 .2.1.4.2.5.4-.1.1-.2.1-.3 0-3.3-1.5-6.1-3.5-8-6.7-.5-.9-.8-1.8-1.3-2.7-.7-1.3-1.6-2.3-2.6-3.3-.2.5-.3.9-.6 1.4-.2.4-.5.8-1 1.1-.2.1-.4.4-.6.3-.3-.2.1-.4.2-.6.6-1.6.2-3.1-.4-4.6-.4-.8-.8-1.5-1.3-2.3-.1-.2-.3-.3-.2-.6zM76.8 52c.1.2-.1.3-.2.5-.4.8-.9 1.5-1.2 2.3-.5 1.5-1.5 2.5-2.9 3.3-3.8 2.2-7 5.2-9.9 8.4l-.4.4-.1-.1c.5-1.2 1.2-2.2 1.9-3.2 3.1-4.5 6.8-8.3 11.5-11.1.6-.2.9-.5 1.3-.5zM110.2 136.3c2.3-.2 4.3.5 6.2 1.1l8 2.4c1 .3 1.8 1 2.8 1.5-2 .2-3.8-.4-5.5-.9-2.8-.9-5.6-1.7-8.4-2.6-1.1-.2-2-.9-3.1-1.5z"/><path class="buf_oHNBIkHb" d="M101.1 98.7c-2.9-.2-5.1-1.5-6.8-3.6-.1-.2-.2-.3-.2-.6.3-1.1.8-2 1.7-2.7.3-.2.5-.1.6.2.3.7.6 1.3.8 1.9.7 1.7 1.8 3.1 3.3 4.3.3.2.4.3.6.5zM150.4 93.1c-2.1.4-4.2.8-6.2 1.2-.3.1-.4 0-.3-.3.1-1.1.2-1.2 1.3-1.3.8-.1 1.5-.2 2.4-.3-.8-.7-1.6-1.3-2.3-2-.2-.2-.8-.4-.5-.8.2-.3.6.2.8.3l4.2 2.7c.3.2.4.3.6.5zM62.3 66.9c0 .1 0 .2-.1.1-.1 0-.1-.1.1-.1-.1-.1-.1 0 0 0zM105.4 116.7c.1 0 .1 0 .2.1l-.1.1c0-.1 0-.2-.1-.2zM127.2 148.5l-.2.2-.1-.1c.1 0 .1-.1.3-.1-.1 0 0 0 0 0zM123.7 155.4zM120.6 150.1h-.1zM76.8 52c0-.1.1-.1 0 0 .1-.1 0 0 0 0zM127.3 148.4l-.1.1-.1-.1h.2zM127.4 148.3c0 .1 0 .1-.1.1l-.1-.1c.1 0 .1-.1.2 0zM101.7 163.4c0 .1-.1.1-.1 0h.1z"/><path class="buf_oHNBIkHb" d="M127.4 148.3v-.1s.1 0 0 .1c.1-.1 0-.1 0 0zM116.1 57.5zM150.4 66.7c0-.1 0 0 0 0zM91.6 82.9s-.1 0 0 0c-.1 0-.1 0 0 0-.1 0 0 0 0 0z"/><path class="buf_kOv3mLW9" d="M107.8 157s0 .1 0 0c-.1.1-.1 0 0 0zM59.4 110.8c0 .1-.1.1 0 0-.2 0-.2 0 0 0-.1 0-.1 0 0 0zM114.7 53s-.1-.1 0-.2c.1.1.1.1 0 .2.1 0 .1 0 0 0zM61.8 37.2c.5 0 .9.3 1.1.6.8 1.2 1.6 2.5 2.3 3.7.3.4.2.8-.2 1.1-.5.4-1.1.7-1.6 1.1-.2.2-.3 0-.4-.2-1-1.6-2.1-3.3-3.1-4.9-.1-.1-.2-.3 0-.4.6-.4 1.2-.9 1.9-1zM60.3 34.5c0 .5-.3.8-.7 1.1-1.1.8-1.1.8-1.8-.3-.7-1.2-1.5-2.3-2.2-3.5-.2-.3-.2-.5.2-.7.2-.1.4-.2.6-.4 1-.6 1.5-.5 2.1.5l1.5 2.4c.2.2.3.5.3.9zM62.2 35.4s0 .1 0 0c-.2 0-.1 0-.1-.1.1 0 .1.1.1.1zM81.7 166.1c0 .1 0 .2-.1.4-.6 1.9-1.2 3.8-1.7 5.7-.1.4-.3.4-.6.3-.6-.2-1.3-.4-1.9-.6-.4-.1-.5-.2-.3-.6.6-1.9 1.1-3.8 1.7-5.7.2-.8.7-1 1.4-.8l.9.3c.5.2.6.5.6 1zM115.9 19.6c.1 0 .4.1.7.1.7.2 1 .6.9 1.3l-1.2 5.9c-.1.4-.2.4-.6.4-.7-.1-1.3-.3-1.9-.4-.3-.1-.5-.2-.4-.6l1.2-5.9c.2-.5.5-.9 1.3-.8zM132.7 159.6c.6.1.9.4 1.1.9 1 1.9 2 3.7 3 5.6.9 1.7 1.8 3.4 2.7 5.2.4.7.3 1-.4 1.4-.4.2-.8.4-1.2.7-.4.2-.5.2-.8-.2-1-1.9-2-3.9-3.1-5.8l-3.3-6.3c-.2-.4-.1-.6.2-.7.7-.3 1.2-.7 1.8-.8zM145.4 32.3c0 .3-.1.6-.3.8-2.2 3.4-4.4 6.9-6.6 10.3-.5.8-.9.8-1.7.3-.3-.2-.5-.3-.8-.5-.8-.6-.9-1-.4-1.8 1.2-1.9 2.5-3.8 3.7-5.8.9-1.5 1.9-2.9 2.8-4.4.6-.9.9-.9 1.8-.4.3.2.7.4 1 .6.3.3.6.6.5.9zM109.2 167.1c.8 0 1.1.3 1.2 1 .2 1.8.5 3.7.7 5.5.1.4-.1.8-.5 1-.6.2-1.2.2-1.8.3-.2 0-.2-.2-.3-.3l-.9-6.7c-.1-.4.1-.6.5-.6.4-.1.8-.1 1.1-.2z"/></svg>