<?xml version="1.0" encoding="utf-8"?>
<!-- Generator: Adobe Illustrator 24.1.0, SVG Export Plug-In . SVG Version: 6.00 Build 0)  -->
<!DOCTYPE svg PUBLIC "-//W3C//DTD SVG 1.1//EN" "http://www.w3.org/Graphics/SVG/1.1/DTD/svg11.dtd" [
	<!ENTITY st0 "fill:#989A9C;">
	<!ENTITY st1 "fill:#626162;">
	<!ENTITY st2 "fill:#FEFEFD;">
	<!ENTITY st3 "fill:#FEFEFE;">
	<!ENTITY st4 "fill:#FDFEFD;">
	<!ENTITY st5 "fill:#989B9E;">
	<!ENTITY st6 "fill:#E63029;">
	<!ENTITY st7 "fill:#9C9D9F;">
	<!ENTITY st8 "fill:#B91C25;">
	<!ENTITY st9 "fill:#9D9C9D;">
	<!ENTITY st10 "fill:#B01A27;">
	<!ENTITY st11 "fill:#E73227;">
	<!ENTITY st12 "fill:#D72D2C;">
	<!ENTITY st13 "fill:#FDFDFD;">
	<!ENTITY st14 "fill:#9E9E9F;">
	<!ENTITY st15 "fill:#AB1D22;">
	<!ENTITY st16 "fill:#CB282A;">
	<!ENTITY st17 "fill:#A5202A;">
	<!ENTITY st18 "fill:#AE2122;">
	<!ENTITY st19 "fill:#FCFCFC;">
	<!ENTITY st20 "fill:#8E252D;">
	<!ENTITY st21 "fill:#FAF6F2;">
	<!ENTITY st22 "fill:#9B9B9B;">
	<!ENTITY st23 "fill:#912829;">
	<!ENTITY st24 "fill:#838281;">
	<!ENTITY st25 "fill:#B21D24;">
	<!ENTITY st26 "fill:#9FA0A0;">
	<!ENTITY st27 "fill:#B01E2B;">
	<!ENTITY st28 "fill:#9D9D97;">
	<!ENTITY st29 "fill:#C01D1C;">
	<!ENTITY st30 "fill:#B81A2D;">
	<!ENTITY st31 "fill:#7B7B7D;">
	<!ENTITY st32 "fill:#93999F;">
	<!ENTITY st33 "fill:#F8F9F9;">
	<!ENTITY st34 "fill:#E63228;">
	<!ENTITY st35 "fill:#E6302B;">
	<!ENTITY st36 "fill:#010000;">
	<!ENTITY st37 "fill:#E33130;">
	<!ENTITY st38 "fill:#E2332F;">
	<!ENTITY st39 "fill:#DD3031;">
	<!ENTITY st40 "fill:#E9312A;">
	<!ENTITY st41 "fill:#E42F2E;">
	<!ENTITY st42 "fill:#030101;">
	<!ENTITY st43 "fill:#DC2E2F;">
	<!ENTITY st44 "fill:#E6312E;">
	<!ENTITY st45 "fill:#E7312C;">
	<!ENTITY st46 "fill:#B9B9BC;">
	<!ENTITY st47 "fill:#A6A7A8;">
	<!ENTITY st48 "fill:#A09FA0;">
	<!ENTITY st49 "fill:#A4A3A4;">
	<!ENTITY st50 "fill:#4B4C4F;">
	<!ENTITY st51 "fill:#606162;">
	<!ENTITY st52 "fill:#DF302E;">
	<!ENTITY st53 "fill:#B61B2C;">
	<!ENTITY st54 "fill:#FAFAFA;">
	<!ENTITY st55 "fill:#91A8A7;">
	<!ENTITY st56 "fill:#DC312C;">
	<!ENTITY st57 "fill:#CF2C2B;">
	<!ENTITY st58 "fill:none;">
	<!ENTITY st59 "fill:#EB3327;">
	<!ENTITY st60 "fill:#E6322E;">
	<!ENTITY st61 "fill:#E63328;">
]>
<svg version="1.1" id="Layer_1" xmlns="http://www.w3.org/2000/svg" xmlns:xlink="http://www.w3.org/1999/xlink" x="0px" y="0px"
	 viewBox="0 0 200 200" style="enable-background:new 0 0 200 200;" xml:space="preserve">
<path style="&st0;" d="M77.8,7.4"/>
<path d="M127.2,2.7c2.5,1.4,4.8,3.2,6.7,5.4c0.9,1.4,1.7,2.8,2.1,4.4c0.8,2.7,0.3,5.3-0.8,7.8c-0.6,1.3-1.2,2.6-1.8,3.9
	c-1,2.4-0.8,4.7,0.4,6.9c0.5,0.9,1,1.8,1.5,2.7c1,1.7,1.3,3.6,1.2,5.6c0,0.2-0.1,0.4,0.1,0.5c0.2,0.1,0.3-0.1,0.5-0.2
	c1.4-1,2.1-2.5,2.1-4.2c0-0.5,0-1,0-1.6c0.3,0.2,0.5,0.5,0.7,0.7c2.2,2.5,3.3,5.5,3.9,8.8c0.1,0.7,0,1.1-0.3,1.7
	c-0.9,1.3-1.3,2.7-1.7,4.2c-0.3,1-0.5,2-0.6,3c-0.1,0.5-0.3,0.6-0.7,0.7c-1.6,0.2-3,0.8-4.2,1.8c-1.7,1.3-2,3.1-1.5,5
	c0.3,1,0.8,1.9,1.5,2.7c0.3,0.3,0.3,0.5,0.1,0.8c-0.5,1.1-0.8,2.2-0.6,3.4c0.2,0.9,0.8,1.5,1.5,1.9c0.3,0.2,0.3-0.1,0.4-0.3
	c0.4-1.9,0.6-3.8,0.5-5.7c-0.1-1.5-0.2-3-0.7-4.5c-0.1-0.2-0.1-0.4-0.1-0.7c0.7,0.3,1.1,0.8,1.5,1.2c3.3,2.7,5.9,6,7.1,10.2
	c0.2,0.6,0.3,1.1,0.4,1.7c0.1,0.4-0.2,0.5-0.3,0.8c-1.1,1.1-1.2,2.4-0.6,3.8c0.3,0.6,0.6,0.9,1.3,0.8c0.4,0,0.8-0.1,1.1-0.3
	c0.4-0.2,0.6-0.1,0.7,0.3c1.1,2.3,1.5,4.8,1,7.3c0,0.3-0.2,0.4-0.4,0.5c-1.6,0.9-2,2.3-2.2,4c-0.1,0.7-0.1,1.4,0,2.1
	c0.1,0.5-0.2,0.9-0.5,1.4c-0.2,0.3-0.6,0.7-0.5,1.1c0.1,0.2,0.7,0.1,1.1,0.1c9.3,0,18.6,0,27.8,0.1c2.6,0,5.1,0,7.7-0.1
	c0,0.3-0.2,0.4-0.3,0.6c-4.7,5.6-9.4,11.1-14.1,16.7c-4.9,5.9-9.9,11.8-14.8,17.7c-2.2,2.7-4.4,5.4-6.7,8c-0.1,0.1-0.3,0.3-0.2,0.5
	c0.1,0.2,0.3,0.1,0.4,0.1c1.5,0.1,2.9,0.2,4.4,0.3c0.4,0,0.5,0.1,0.5,0.6c0,1.1,0,2.3,0,3.4c0,0.4,0.1,0.5,0.5,0.6
	c1.8,0.1,3.6,0.2,5.4,0.3c3.2,0.2,6.4,0.5,9.6,0.8c2.9,0.3,9,0.6,9,0.8c0.1,0.2-0.1,0.4-0.3,0.5c-1,0.8-2.1,1.7-3.1,2.5
	c-1.2,0.9-2.3,1.9-3.5,2.9c-0.3,0.2-0.2,0.5-0.2,0.8c0,4.6,0,9.3,0,13.9c0,5.4,0,10.8,0,16.3c0,2.3,0.1,4.6-0.4,6.9
	c-0.7,3.1-2,5-5.1,5.7c-1.5,0.4-3.1,0.1-4.6-0.3c-2.1-0.5-3.8-1.4-5.5-2.4c-1.2-0.7-2.5-1.1-3.9-1.6c-3.1-1.1-6.3-2.2-9.5-3.2
	c-3.4-1-6.8-1.9-10.2-2.6c-2.8-0.6-5.6-1-8.4-1.3c-3.8-0.5-7.7-0.8-11.5-0.9c-0.6,0-1,0.1-1.4,0.7c-2,2.5-4.1,4.9-6.2,7.4
	c-0.3,0.3-0.6,0.7-0.8,1c-0.2,0.3-0.4,0.3-0.6,0c-0.8-0.4-3-3.3-4.4-5c-1-1.2-2.1-2.3-3-3.6c-0.3-0.3-0.3-0.4-0.5-0.4
	c-2.2,0.1-4.3,0.3-6.4,0.5c-2.6,0.2-5.2,0.6-7.8,1c-3.4,0.6-6.7,1.2-10.1,2c-2.2,0.5-4.4,1-6.5,1.6c-3.8,1-7.5,2.2-11.1,3.5
	c-3.1,1.1-6.2,2.3-9.3,3.6c-1.9,0.8-3.7,1.7-5.6,2.6c-0.8,0.4-0.8,0.4-0.8-0.4c0-6,0-11.9,0-17.9c0-6.9,0-13.9,0-20.8
	c0-2,0.1-4.4,0.1-5.9c0-0.3-0.2-0.5-0.4-1c-2.1-1.7-4.2-3.4-6.3-5.1c-0.2-0.2-0.4-0.3-0.5-0.6c2.6-0.3,5.1-0.5,7.7-0.8
	c3.8-0.4,7.6-0.7,11.5-1c1.2-0.1,2.4-0.2,3.6-0.2c0.6,0,0.7-0.2,0.7-0.7c0-1.2,0-2.5-0.1-3.7c0-0.4,0.1-0.5,0.5-0.6
	c1.2-0.1,2.4-0.2,3.7-0.2c0.1,0,0.3,0.1,0.4-0.1c0.1-0.2-0.1-0.3-0.2-0.4c-4.5-5.3-8.9-10.6-13.4-15.9c-3.9-4.7-7.9-9.4-11.8-14
	c-3.5-4.2-10.9-12.9-10.9-13.1c0.3,0,21,0,31,0c0.5,0,0.5-0.2,0.5-0.6c0.1-3.2,0.4-6.3,0.8-9.4c0.5-3.7,1.4-7.3,2.6-10.8
	c0.6-1.6,1.2-3.2,1.8-4.7c0-0.1,0-0.2,0.1-0.3c-0.1-0.1-0.1-0.3,0-0.4c0.4-0.8,0.8-1.7,1.3-2.4c-0.4,0.4-0.7,0.9-1.2,1.3
	c-0.2,0.1-0.3,0.3-0.4,0.5c-0.1,0.3-0.2,0.6-0.6,0.6c-1.8,2.3-3.2,4.9-4.4,7.6c-1.3,2.8-2.3,5.6-3.1,8.5c0,0.1-0.1,0.3-0.3,0.4
	c0-0.4-0.1-0.7-0.1-1c-0.5-4.3,0.3-8.4,1.3-12.5c0.9-3.5,2.1-6.9,3.6-10.2c0.8-1.8,2.5-5.3,2.5-5.4c-0.3,0-0.2,0-0.4,0.1
	c-2.1,1.3-3.8,3-5.6,4.5c-2.7,2.2-5.7,3.9-9.1,4.5c-0.5,0-0.8,0.2-0.7,0c2.4-2.7,5.5-5.6,7.6-8.7c1.4-2.2,2.7-4.4,4.2-6.5
	c2.2-3,4.8-5.5,7.9-7.4c0.1-0.1,0.2-0.1,0.2-0.3c-0.1-0.2-0.1-0.1-0.3-0.1c-2.9,0.2-5.7,0-8.6-0.5c-2.4-0.4-4.8-1.1-7-2.5
	c-0.3-0.2-0.3-0.2-0.5-0.6c1,0,2.1,0,3.1,0c2.9-0.1,5.7-0.7,8.3-1.8c2.6-1,4.9-2.4,7.4-3.6c2.6-1.3,5.2-2.4,8-3
	c1.3-0.3,2.6-0.6,3.9-0.5c0.2,0,0-0.1,0.2-0.3c-0.6-0.3-0.8-0.3-1.4-0.4c-3.4-1.1-6.8-1.8-10.2-2.6c-3.4-0.8-6.7-1.8-9.8-3.5
	c-4.6-2.4-7.8-6-10.1-10.7c-0.5-1.1-1.1-2.3-1.6-3.4C41,6,40.9,5.8,41,5.5c1.7,1.7,3.5,3.3,5.6,4.5c0.6,0.1,1,0.5,1.5,0.8
	c1.5,0.9,2.9,1.7,4.5,2.4c0.2,0.1,0.5,0.2,0.6,0.4c1.7,0.8,3.5,1.3,5.4,1.5c3.7,0.5,7.4,0.1,11.1-0.1c4.1-0.2,8.2-0.1,12.2,1.1
	c3.3,0.9,6.2,2.6,8.9,4.6c0.2,0.1-0.1-1.6-0.6-2.5c-1.6-3.1-3.8-5.8-6.5-8.2c-0.4-0.4-0.8-0.7-1.3-1.1c0.1-0.2,0.2-0.4,0.5-0.4
	c4,1.4,7.8,3.2,11.3,5.6c2.7,1.9,5.3,4,7.6,6.4c0.8,0.8,1.5,1.8,2.3,2.6c0.1,0.1,0.2,0.3,0.4,0.2c0.2-0.1,0.1-0.2,0.1-0.4
	c0-1.4,0-2.8-0.2-4.3c-0.1-0.4,0.1-0.4,0.4-0.3c1.9,0.8,3.7,1.8,5.4,2.9c1,0.6,1.7,1.2,2.6,2c-1-2.1-1.9-4-3.1-5.9
	c-1.2-1.9-2.7-3.7-4.2-5.4c0.9,0.1,1.6,0.6,2.3,0.9c4.9,1.9,9,4.8,12.6,8.5c0.3,0.3,0.6,0.6,0.8,0.9c0.2,0.2,0.3,0.2,0.4-0.1
	c0.9-2,2.3-3.6,4-4.9c1.5-1.2,2.8-2.6,3.7-4.3c1.5-2.9,1.1-5.6-0.6-8.2C128.2,4.2,127.6,3.6,127.2,2.7z"/>
<path style="&st1;" d="M84.9,13.7c-1.6-1.2-2.9-2.7-4.3-4.1C82.2,10.7,83.5,12.2,84.9,13.7z"/>
<path style="&st0;" d="M188.1,89.7c-0.5-0.1-0.9-0.1-1.4-0.1c-3.3,0-6.6,0-10,0c-0.7,0-1.4,0-2.1,0c-6.4,0.1-12.8-0.2-19.2-0.1
	c-1.8,0-3.6,0-5.3,0c-0.3,0-0.6,0-0.8,0c-0.2-0.1-0.2-0.3-0.2-0.5c0-0.6,0.1-1.3,0.2-1.9c0.2-0.7,0.5-1.4,1.3-1.6
	c0.7-0.2,0.8-0.5,1.2-1.1c0.3-0.4,0.1-1.8,0.2-2c0-1-0.2-3.6-0.2-3.9c-0.2-1.2-0.6-2.3-1.1-3.4c-0.4-0.8-0.9-1.4-1.4-2.1
	c-0.2-0.2-0.4-0.5-0.4-0.8c-0.1-0.8-0.3-1.6-0.4-2.4c-0.3-2.4-1.1-4.6-2.5-6.6c-0.9-1.3-1.8-2.5-2.8-3.6c-1.2-1.3-2.6-2.5-4-3.6
	c-0.2-0.1-0.4-0.2-0.5-0.4c1-0.7,2.2-0.9,3.4-1c0.3,0,0.5-0.2,0.7-0.4c0.2-0.4,0.4-1.3,0.5-1.5c0.2-0.5,0.3-1.1,0.4-1.6
	c0.4-2,0.8-4,2.1-5.6c0.2-0.2,0.2-0.4,0.3-0.7c0.1-0.4,0.1-1,0.2-1.3c0.1-1.1-0.1-2.2-0.5-3.3c-0.1-0.7-0.4-1.4-0.7-2
	c-0.6-1.4-2.9-5-3.3-5.5c-0.9-0.9-3.4-2.7-3.7-2.8c-0.7-0.2-0.8-0.2-0.7,0.6c0,0.2,0,0.5,0,0.8c0,0.1,0,0.6-0.1,1
	c-0.8-1.1-1.5-2.2-1.9-3.4c-0.4-1-0.3-2-0.1-3c0.4-1.5,1.2-2.8,1.9-4.2c0.8-1.5,1.3-3.2,1.3-4.9c0,0.3,0-3.6,0-3.7
	c0-1.5-0.6-2.8-1.3-4.1c-0.4-0.8-1.7-2.4-1.8-2.5c-0.4-0.5-0.8-1-1.3-1.4c-1.3-1.1-2.7-2.1-4.3-2.8c-1.4-0.7-3.4-1.2-4.4-1.3
	c0.2,0.8,0.6,1.8,1.1,2.6c0,0,0,0,0,0c0.4,0.4,0.7,0.9,0.9,1.4c0.1,0.3,0.5,1.3,0.7,1.5c0.3,0.6,0.5,1.8,0.6,2.1
	c0.1,0.4,0.1,1.6,0.1,1.7c0,0.3-0.1,0.7-0.3,1.2c-0.1,0.4-0.3,0.6-0.3,0.5c-0.2,0.4-0.5,0.8-0.8,1.2c-1.1,1.7-2.8,2.9-4.3,4.2
	c-0.2,0.2-1.1,1.2-1.3,1.5c-0.2,0.3-0.4,0.2-0.6,0c-0.2-0.2-0.3-0.3-0.5-0.5c-1.4-1.4-3-2.6-4.6-3.7c-1.4-0.9-2.9-1.7-4.4-2.3
	l-6.3-2.2c-0.6-0.1-1.7-0.3-2.3-0.3c-0.3,0-0.7-0.1-1.1,0.2c-0.3,0.2,0.7,1.6,0.6,1.5c0.5,0.5,2.8,3.3,3.6,4.1
	c0.4,0.4,1.2,1.6,1.5,1.9c-1.5-0.9-4.9-2.1-5.3-2.1c-0.2,0.2-0.3,0.3-0.3,0.6c0,0.3,0.2,1.6,0.4,2c-0.2-0.3-1.7-1.7-2.2-2.1
	c-2-1.8-4.1-3.5-6.5-4.7c-4.2-2.3-8.6-4-13.4-4.5c-0.5-0.1-2.1-0.3-2.5,0c-0.1,0.1,0.1,0.4,0.3,0.8c0.5,0.6,2.6,2.4,2.9,2.7
	c1.4,1.3,2.7,2.7,4.1,4c0.3,0.3,0.9,1.2,1.2,1.4c-0.8-0.2-1.5-0.6-2.2-0.8c-0.7-0.3-4.4-1.1-5.6-1.2c-1.5-0.2-3-0.2-4.4-0.2
	c-2,0-4,0-6.1,0c-0.4,0-0.9,0.1-1.3,0.1c-1,0-6.8,0.1-7.1,0c-1.6-0.2-3.2-0.7-4.8-1.2c-3.7-1.3-6.9-3.5-9.9-6
	c-2.2-1.9-4.3-3.9-6.1-6.1c-0.1,0-0.1,0.1-0.2,0.1c-0.2,0.3-0.2,0.5-0.1,0.8c0.3,1.5,0.5,3,0.8,4.4c0.4,1.8,1.1,3.5,1.8,5.2
	c1.1,2.3,2.6,4.3,4.3,6.1c1.4,1.5,3,2.9,4.7,4c1.8,1.2,3.8,2.2,5.9,3c0.2,0.1,0.4,0.2,0.7,0.2c0.9,0.3,4.2,1.4,4.9,1.5
	c0.7,0.2,4.4,1.1,4.8,1.3c-0.7,0.2-1.2,0.6-1.8,0.9c-2,0.8-3.9,1.8-5.8,2.8c-1.6,0.8-3.1,1.6-4.8,2.2c-1.4,0.5-2.8,0.9-4.2,1.3
	c-0.3,0.1-3.5,0.5-3.8,0.5c-1,0.1-5.5,0.6-5.7,0.7c0,0.1,0.1,0.5,0.2,0.6c0.7,0.9,1.5,1.8,2.5,2.5c1.9,1.2,7.3,3,7.9,3.1
	c0.6,0.1,3.5,0.5,3.6,0.4c-0.8,0.7-1.5,1.6-2.3,2.3c-0.9,0.9-1.6,1.9-2.3,2.9c-2.1,3.1-4,6.4-6.4,9.3c-1.3,1.5-2.6,3-4,4.4
	c-1,1-2.1,2-3.1,3c-0.2,0.2-0.5,0.4-0.4,0.7c0.3,0.5,0.9,0.5,1.4,0.6c1.1,0.2,5.5-0.2,6.1-0.5c0.8-0.3,4.4-1.9,5.2-2.4
	c0.3-0.2,1.5-1.1,1.8-1.4c-0.4,0.7-0.6,1.4-0.8,2.1c-0.5,1.4-1.1,2.8-1.5,4.3c-0.1,0.3-0.2,0.6-0.3,1c0-0.1-1.2,5.2-1.3,6
	c0,0.4-0.3,5.4,0.1,7.1c0.1,0.1,0.9,5.9,1.1,6.3c0.2,0.3,0.1,0.6,0.5,0.6c0.4,0,2.3-5,2.5-5.4c-0.2,0.6-0.4,1.2-0.4,1.8
	c-0.1,0.9-0.1,1.9-0.2,2.8c0,0.4,0,0.7-0.1,1.1c0,0.1-0.3,1.4-1.1,1.4c-3.1,0-12.2,0-16.3,0c-2.1,0-4.2,0-6.2,0c-3.7,0-7.4,0-11.2,0
	c-0.3,0-0.6,0-0.8,0.3c0.1,0.4,0.4,0.6,0.6,0.8c0.2,0.3,8.5,10.1,8.6,10.3c0.4,0.6,1,1.1,1.4,1.7c0.7,0.8,1.4,1.6,2.1,2.4
	c0.9,1.1,1.9,2.1,2.7,3.3c1,1.2,2.1,2.5,3.1,3.7c1.6,2,3.3,3.8,4.9,5.8c1.6,1.9,3.2,3.8,4.8,5.7c0.8,1,7,8.3,7.9,9.4
	c-0.4,0-1.7,0.1-1.9,0.1c-0.2,0.1-0.3,0.2-0.2,0.5c0.1,0.3,0.3,3.1,0.2,4.3c0,0.2,0,0.4-0.2,0.4c-0.7,0-11.2,1-12.1,1.1
	c-0.2,0-14.5,1-14.7,1.1c-0.3,0.1,1,1.5,1.3,1.8c1.6,1.4,3.1,2.6,4.7,4c1.5,1.3,3,2.6,4.6,3.8c0.3,0.2,0.4,0.5,0.4,0.9
	c0,1.1,0,2.3,0,3.4c-0.1,2.9,0.1,5.8,0.1,8.7c0.1,11.7,0,23.4,0,35.1c0,0.3,0,0.6,0.1,0.9c0.3,0.3,0.5,0,0.8,0
	c3.1-1.3,6.1-2.7,9.3-4c2-0.8,4-1.6,6.1-2.4c2.5-0.9,5.1-1.8,7.6-2.6c3.6-1.3,7.3-2.2,11-3.2c1.7-0.5,3.5-0.8,5.3-1.2
	c1.6-0.3,3.2-0.7,4.9-1c1.7-0.3,3.3-0.6,5-0.8c0.8-0.1,4-0.5,4.7-0.6c0.6-0.1,3.3-0.4,3.7-0.4c1.1-0.1,1.5,0.3,2.4,1.2
	c0.8,0.8,1.5,1.7,2.2,2.6c1.3,1.4,2.4,2.9,3.7,4.3c0.5,0.6,1.1,1.3,1.6,1.9c0.4,0.5,0.8,0.5,1.2,0.1c1.6-1.9,6.9-8.2,7.9-9.4
	c0.4-0.5,0.7-0.9,1.5-0.9c1.3,0,12.2,1.3,14.1,1.6c1.1,0.1,9.2,1.8,9.9,2c1.9,0.5,3.7,1,5.6,1.6c1.4,0.4,2.7,0.9,4.1,1.3
	c1.7,0.5,3.3,1.2,4.9,1.8c0.9,0.3,1.8,0.5,2.6,1.1c1.3,0.9,2.7,1.6,4.2,2.2c1.3,0.5,2.6,0.8,4,1c1.3,0.1,2.6,0,3.9-0.2
	c1.1-0.2,2.2-0.8,3.1-1.4c1.3-0.9,2.4-2,3-3.5c0.2-0.5,0.5-1.4,0.6-1.6c0.4-0.8,0.4-1.8,0.6-2.7c0.2-0.7,0.1-1.5,0.1-2.2
	c0-3.8,0-7.7,0-11.5c0-3.3,0.1-11.7,0.1-12.3c0-2.9,0-5.8,0-8.7c0-0.5,0.1-0.8,0.5-1.1c1.5-1.3,3-2.5,4.5-3.8c1.9-1.5,3.8-3,5.6-4.6
	c0.2-0.2,0.5-0.4,0.5-0.8c-0.1-0.3-0.3-0.3-0.5-0.3c-1.2-0.1-4.7-0.5-5.2-0.6c-1.1-0.1-20.8-2.1-21.6-2.2c-0.4,0.1-0.6-0.1-0.6-0.5
	c0-1,0-2,0-3c0-0.2,0-0.4-0.1-0.6l0,0c-0.1-0.3-0.3-0.3-0.6-0.3c-0.4,0-0.6,0-0.9-0.1c-0.4,0-0.4,0-0.7,0c-0.2,0-0.5,0.1-0.6-0.1
	c-0.1-0.3,0.2-0.4,0.3-0.6c0.6-0.7,1.2-1.3,1.7-2c1.1-1.5,2.4-2.9,3.6-4.3c1.3-1.6,2.7-3.2,4-4.8c1.9-2.2,3.7-4.4,5.5-6.7
	c1.7-2,3.3-4,5-5.9c1.9-2.2,3.7-4.4,5.5-6.5c1.5-1.8,3-3.5,4.5-5.3c1.4-1.4,2.6-3,3.9-4.5c0.5-0.6,1.1-1.3,1.6-1.9
	C188.7,90,188.6,89.8,188.1,89.7z M181.9,93.4c-2.1,2.4-4.1,4.9-6.2,7.4c-1.9,2.3-3.9,4.6-5.8,6.9c-2.5,2.9-4.9,5.9-7.4,8.8
	c-5.2,6.2-10.3,12.5-15.6,18.7c-0.2,0.2-0.4,0.4-0.3,0.7c0.1,0.3,0.4,0.3,0.7,0.3c1.3,0.1,2.6,0.2,3.9,0.2c0.4,0,0.6,0.2,0.6,0.6
	c0,0.8,0,1.5,0,2.3c0,1.6,0.1,1.7,1.7,1.7c1.2,0,2.4,0.1,3.6,0.2c1.8,0.1,3.7,0.3,5.5,0.4c2,0.1,4,0.4,6,0.6
	c1.6,0.1,3.1,0.3,4.7,0.4c1,0.1,2,0.2,2.9,0.3c0,0.2,0,0.2-0.1,0.3c-0.7,0.5-1.4,1.1-2,1.6c-1.4,1.1-2.8,2.3-4.2,3.4
	c-0.4,0.3-0.6,0.7-0.6,1.3c0,1.2,0,2.5,0,3.7c0.1,3.3,0,6.6,0,9.9c0,0.8-0.2,1.5-0.1,2.3c0.1,0.9,0.1,1.9,0.1,2.8
	c0,4.9,0.1,9.9-0.1,14.8c-0.1,1.6-0.2,3.2-0.8,4.7c-1.1,3.2-3.5,4.4-6.4,4.3c-1.8,0-3.5-0.6-5.2-1.4c-1.7-0.8-3.3-1.9-5.2-2.5
	c-2.4-0.8-4.7-1.7-7.1-2.5c-4.8-1.6-9.6-3-14.5-4c-2-0.4-4.1-0.7-6.1-1c-2.4-0.3-4.9-0.6-7.3-0.8c-2.2-0.2-4.4-0.3-6.6-0.4
	c-0.6,0-1,0.2-1.3,0.6c-0.6,0.8-1.2,1.5-1.9,2.3c-1.5,1.9-3.1,3.7-4.7,5.5c-0.7,0.8-0.7,0.8-1.4,0c-2.2-2.7-4.6-5.3-6.8-8
	c-0.2-0.3-0.5-0.3-0.8-0.4c-0.6,0-1.1,0.1-1.7,0.1c-2,0.1-4,0.3-6,0.5c-2.6,0.3-5.3,0.7-7.9,1.1c-3.6,0.6-7.2,1.4-10.8,2.2
	c-5.6,1.3-11.1,3-16.5,5c-4.7,1.7-9.3,3.5-13.7,5.7c-1,0.5-1,0.5-1-0.6c0.1-14.5-0.1-29,0.1-43.5c0-0.9-0.3-1.5-1-2
	c-1.9-1.5-3.8-3-5.6-4.6c-0.2-0.1-0.4-0.2-0.4-0.5c2.1-0.2,4.2-0.4,6.3-0.6c2.7-0.3,5.4-0.5,8.1-0.8c2.6-0.2,5.2-0.5,7.9-0.6
	c0.7,0,0.8-0.2,0.9-0.8c0.1-0.4,0.1-0.8,0-1.2c-0.1-0.7-0.1-1.3-0.1-2c0-0.8,0-0.8,0.9-0.9c1-0.1,2.1-0.1,3.1-0.2
	c0.5-0.1,0.6-0.3,0.3-0.8c-0.1-0.1-0.1-0.2-0.2-0.2c-2.1-2.6-4.3-5.1-6.4-7.6c-2.5-3-5-6-7.6-9c-2.3-2.7-4.6-5.5-6.9-8.2
	c-2.7-3.2-5.4-6.4-8.1-9.6c-1.6-1.9-3.2-3.7-4.7-5.6c-0.7-0.8-1.4-1.6-2-2.4c0.2-0.1,0.4-0.1,0.6-0.1c9.8,0,19.6,0,29.3,0
	c0.3,0,0.5,0,0.8,0c0.5,0,0.7-0.3,0.7-0.7c0-1.8,0.2-3.7,0.3-5.5c0.2-2.5,0.6-5.1,1.1-7.6c0.7-3.5,1.8-6.9,3.1-10.2
	c0.2-0.6,2.1-4.8,2.3-5.2c0,0-0.1,0-0.1-0.1c-0.8,1-2.9,3.5-3.1,3.8c-2.4,3.5-4.2,7.4-5.7,11.4c-0.5,1.3-0.9,2.6-1.3,3.9l0-6.3
	c0.3-2.4,0.7-4.7,1.3-7c0.9-3.6,2.1-7.1,3.7-10.4c0.7-1.6,1.5-3.1,2.3-4.6c0.1-0.2,0.2-0.4,0-0.5c-0.2-0.1-0.3,0-0.5,0.1
	c-0.1,0.1-0.3,0.2-0.4,0.3c-1.5,1-2.9,2.2-4.3,3.4c-2.9,2.7-6.2,4.6-10.1,5.4c-0.2,0-0.4,0.2-0.6,0.2c0.1-0.2,0.3-0.3,0.5-0.5
	c1.5-1.2,2.8-2.5,4-4c2.2-2.7,4.1-5.7,5.9-8.7c1.5-2.4,3.2-4.6,5.3-6.4c1.2-1.1,2.5-2.1,3.9-2.9c0.2-0.1,0.4-0.2,0.4-0.5
	c-0.1-0.3-1.5-0.2-2-0.2c-2-0.1-4.1-0.1-6.1-0.4c-2.5-0.4-5-1-7.3-2.2c-0.3-0.2-0.6-0.4-0.9-0.7c0.9,0,1.8,0,2.6,0
	c2.4-0.1,4.6-0.5,6.9-1.2c2.8-0.9,5.4-2.3,8-3.6c1.9-1,3.8-1.9,5.8-2.6c2.3-0.8,4.6-1.3,7-1.5c0.3,0,0.7,0.1,0.7-0.3
	c0-0.3-0.4-0.3-0.6-0.4c-3.4-1.1-6.8-1.9-10.3-2.7c-3.2-0.8-6.4-1.6-9.4-3c-2.4-1.1-4.6-2.6-6.5-4.4c-2.4-2.3-4.1-5.1-5.5-8.1
	c-0.3-0.7-0.8-1.4-1-2.3c0.9,0.9,1.8,1.7,2.7,2.4c0.8,0.7,1.6,1.4,2.6,1.8c0.1,0,7.1,3.9,7.4,4c1.7,0.6,3.5,1.1,5.3,1.3
	c1.9,0.2,3.8,0.2,5.6,0.1c1.8-0.1,3.6-0.2,5.4-0.3c2-0.1,4-0.1,5.9,0.1c2.1,0.2,4.1,0.6,6.1,1.2c2.9,0.8,5.4,2.3,7.9,4.1
	c0.3,0.2,0.5,0.4,0.8,0.6c0.3,0.2,0.4,0.1,0.4-0.3c0-0.1-0.1-0.3-0.1-0.4c-1.9-4.6-4.8-8.4-8.8-11.4c0,0,0,0,0,0
	C82.9,9.1,83,9,83,8.9c0,0,0.1,0,0.1,0c4.2,1.6,8.2,3.4,11.9,6c3.2,2.4,6.2,4.9,8.8,8c0.2,0.2,0.3,0.4,0.6,0.6
	c0.2,0.2,0.4,0.2,0.5-0.2c0-0.2,0-0.4,0-0.5c0-1.2,0-2.4-0.1-3.6c0-0.4,0.1-0.4,0.4-0.3c2.5,1.1,4.8,2.4,7,4.1
	c0.3,0.2,0.5,0.4,0.7,0.6c0.1,0.1,0.3,0.2,0.4,0.1c0.1-0.1,0.1-0.3,0-0.4c-0.3-0.5-0.5-1-0.8-1.5c-1.7-3.2-3.7-6.3-6.2-8.9
	c-0.1-0.1-0.3-0.2-0.3-0.5c0.6,0.2,1.1,0.5,1.7,0.7c2.2,0.8,4.3,1.9,6.3,3.2c2.7,1.7,5,3.8,7.1,6.1c0.5,0.6,0.6,0.6,0.9-0.1
	c0.9-1.7,2.1-3.3,3.7-4.5c1.4-1.1,2.7-2.4,3.6-3.9c1.3-2.1,1.6-4.4,0.8-6.8c-0.5-1.4-1.3-2.5-2.2-3.7c-0.1-0.2-0.2-0.3-0.3-0.5
	c0.4,0.3,0.9,0.6,1.4,0.9c1.6,1.2,3.3,2.3,4.5,3.9c0.1,0.1,0.9,1.3,1.1,1.7c1.8,3.1,2.3,6.3,1,9.7c-0.6,1.5-1.2,2.9-1.9,4.3
	c-1.4,2.8-1.3,5.5,0.3,8.2c0.4,0.7,0.9,1.5,1.3,2.3c0.4,0.7,0.7,1.4,0.9,2.2c0.3,1.1,0.3,2.2,0.3,3.4c0,0.2,0,0.5,0.2,0.6
	c0.3,0.1,0.5,0,0.7-0.2c0.5-0.4,0.9-0.8,1.3-1.4c0.5-0.9,0.9-1.8,0.8-2.9c0-0.4-0.1-0.8,0.1-1.2c0.9,1,1.7,2,2.3,3.2
	c1,1.9,1.5,3.9,1.9,5.9c0.1,0.6,0.1,1-0.3,1.5c-0.6,0.8-1,1.8-1.3,2.8c-0.4,1.4-0.8,2.9-1.1,4.4c-0.1,0.4-0.3,0.6-0.7,0.7
	c-1.7,0.3-3.1,0.9-4.4,2c-1,0.8-1.5,1.8-1.5,3.1c-0.1,1.7,0.5,3.2,1.6,4.5c0.3,0.3,0.4,0.6,0.1,1c-0.3,0.5-0.4,1-0.5,1.6
	c-0.2,1.3-0.1,2.6,1.1,3.5c0.7,0.5,1,0.5,1.2-0.4c0.2-0.9,0.3-1.7,0.4-2.6c0.1-0.9,0.2-1.8,0.1-2.7c-0.2-1.6-0.3-3.2-0.7-4.8
	c0,0,0-0.1,0.1-0.1c0.4,0.3,0.7,0.6,1,0.9c1.8,1.5,3.4,3.2,4.8,5.2c1.2,1.7,1.9,3.6,2.5,5.6c0.2,0.8,0.2,1.5-0.4,2.1
	c-0.8,0.9-0.8,1.9-0.5,3c0.4,1.3,1.1,1.6,2.4,1.3c0.1,0,0.1,0,0.2-0.1c0.4-0.2,0.7-0.1,0.9,0.3c1,2.1,1.3,4.3,1,6.7
	c-0.1,0.4-0.3,0.7-0.6,0.9c-0.5,0.3-0.9,0.8-1.2,1.3c-0.8,1.3-0.9,2.8-0.8,4.2c0.1,0.8-0.1,1.4-0.5,2c-0.6,1.1-0.5,1.2,0.7,1.2
	c9.2,0,18.3,0,27.5,0c0.4,0,0.7,0,1.1,0c1.3,0.1,2.6,0.1,3.9,0c0.9-0.1,1.9,0,2.9-0.1C182.2,92.9,182.1,93.1,181.9,93.4z"/>
<path style="&st2;" d="M142.5,144c1.6,0.1,3.2,0.2,4.7,0.3c0.4,0,0.5,0.2,0.3,0.5c-0.7,1.1-0.8,2.4-0.8,3.7c0.1,3.3,0.1,6.6,0.1,9.9
	c0.2,6.5,0.1,13,0.1,19.5c0,0.9,0.2,1.8,0.4,2.7c0.2,0.8,0.1,1-0.7,0.7c-0.9-0.3-1.9-0.6-2.8-0.8c-0.9-0.2-1.4-0.6-1.3-1.5
	c-0.2-2.3-1-4.4-1.6-6.5c-1.3-4.3-2.7-8.6-4.2-12.8c-0.1-0.2-0.1-0.4-0.1-0.5c-0.4-1.3-0.8-2.7-1.2-3.9c0,0.6,0.1,1.4,0.1,2.1
	c0,2.1,0.2,4.1,0.1,6.2c-0.1,3.2,0.2,6.4,0.1,9.5c0,1.4,0,2.8,0,4.2c0,0.7-0.2,0.9-0.9,0.8c-0.8-0.1-1.6-0.3-2.4-0.5
	c-0.2,0-0.4-0.1-0.6-0.3c-0.1-0.2-0.1-0.4-0.1-0.6c0-4.3,0.1-8.5,0-12.8c-0.1-5,0-10.1-0.1-15.1c0-0.9-0.1-1.8-0.2-2.7
	c0-0.7-0.3-1.4-0.7-2c-0.1-0.2-0.3-0.3-0.1-0.6c1.7,0,3.4,0.1,5.1,0.3c-0.1,1.5,0.5,2.9,0.9,4.3c0.4,1.5,0.8,3.1,1.3,4.6
	c1,3.5,1.9,7,3.1,10.5c0.7,2.4,1.3,4.8,1.8,7.2c0,0.1,0.1-0.1,0,0c-0.3-0.6-0.2-1.3-0.2-1.9c0-1.1,0.1-2.3-0.1-3.4
	c0-0.1,0-0.2,0-0.3c0.1-0.8,0-1.6,0-2.4c0-4.3,0-8.5,0-12.8c0-1.2-0.1-2.3-0.3-3.5c-0.1-0.4-0.2-0.8-0.4-1.2
	C141.8,144.1,141.8,144,142.5,144z"/>
<path style="&st2;" d="M157.2,158.9c0.2,0.6,0.7,1,1.1,1.4c2,2,3.9,4.1,5.6,6.4c0.1,0.1,0.1,0.2,0.2,0.4c0.2,0.5,0.2,1.1,0.5,1.7
	c0.2,0.9,0.3,1.8,0.3,2.7c0.2,3.3,0.2,6.5,0.1,9.8c0,1.1-0.1,2.2-0.3,3.4c-0.1,0.6-0.3,1.3-0.7,1.8c-0.6,0.7-1.4,0.8-2.3,0.8
	c-1.4-0.2-2.8-0.7-4-1.4c-0.9-0.5-1.7-1-2.4-1.7c-1.5-1.2-2.6-2.7-3-4.6c-0.2-1.1-0.2-2.2-0.2-3.3c-0.1-1.7,0-3.4,0-5.2
	c0-1.7-0.1-3.3-0.2-5c0-0.2,0-0.4,0.1-0.5c1.5,1.3,2.9,2.6,4.4,3.9c-0.2,0.8-0.2,1.6-0.2,2.5c0,1.9,0,3.8,0,5.6c0,0.9,0.2,3,0.3,3.2
	c0.1,0.4,0.5,1,0.8,1.3c0.4,0.5,0.8,0.8,1.4,1c0.6,0.2,1.1,0.1,1.4-0.4c0.8-0.9,0.9-2,0.9-3.1c0-2.2,0-4.3,0-6.5
	c0-2-0.4-3.9-1.3-5.7c-0.6-1.1-1.4-2.1-2.3-3c-0.8-0.9-1.7-1.7-2.6-2.5c-1.6-1.3-2.6-2.9-2.9-4.9c-0.2-2.1-0.1-4.3-0.1-6.4
	c0-1.3,0.2-2.5,0.4-3.8c1.6-1.8,3.8-2.4,6.1-2.2c2.4,0.2,4.7,0.4,7.1,0.6c0.3,0.1,0.3,0.4,0.2,0.7c-0.5,1.3-0.5,2.7-0.5,4.1
	c0,2.1,0.1,4.1,0,6.2c-0.2,0.9-0.1,1.8-0.1,2.7c0,0.3,0.1,0.7-0.2,0.9c-0.4,0.2-0.6-0.2-0.9-0.5c-0.8-0.7-1.5-1.5-2.3-2.2
	c-0.9-0.8-0.8-1.8-0.7-2.8c0.2-1.4,0-2.9-0.2-4.3c-0.2-0.9-0.6-1.6-1.4-2.1c-1.2-0.6-2.4-0.2-2.9,1.1c-0.2,0.4-0.2,0.8-0.2,1.3
	c0,1.8,0,3.6,0,5.4c0,0.9,0,1.7,0.5,2.5C156.9,158.4,157.2,158.5,157.2,158.9z"/>
<path style="&st3;" d="M58,144.2c2.9-0.1,5.8-0.5,8.8-0.5c0.5,0,1,0,1.5,0.1c1.1,0.1,1.9,0.6,2.4,1.6c0.2,0.4,0.1,0.8,0.2,1.3
	c0.3,2.6,0.1,5.2,0.1,7.8c-0.2,1.7-0.6,3.3-2.1,4.3c-0.8,0.5-1.5,1.1-2.5,1.4c1.1,0,2,0.2,2.9,0.5c0.5,0.2,1,0.2,1.4,0.6
	c0.1,0.4,0,0.9,0.1,1.3c0,0.3,0,0.6,0.1,0.9c0,1.7,0.1,3.5,0,5.2c-0.1,0.3-0.1,0.6-0.1,0.9c0,2.5-0.1,5,0.1,7.5
	c0,0.3-0.2,0.5-0.4,0.5c-1,0.2-2,0.5-3.1,0.7c-0.6,0.1-0.8-0.1-0.8-0.7c-0.1-1,0.1-2.1,0.1-3.1c0-1.9,0-3.8,0-5.8
	c0-1.4,0.2-2.8,0.1-4.3c0-0.7-0.1-1.4-0.8-1.9c-1.2-0.7-2.4-0.5-3.5-0.1c-0.2,0.4-0.1,0.8-0.1,1.3c0,2.7,0.1,5.4,0,8.1
	c-0.1,1.8-0.1,3.6-0.1,5.3c0,0.6,0,1.2,0.1,1.8c0,0.2,0.1,0.5-0.2,0.7c-1.2,0.4-2.5,0.7-3.7,1.1c-0.1,0-0.2,0-0.3,0
	c-0.3-0.2-0.2-0.4-0.2-0.7c0-0.9,0.2-1.8,0.2-2.7c0-0.3,0-0.6,0-0.9c0.1-6.2,0-12.3,0.1-18.5c0-2.2,0-4.4,0.1-6.6
	c0.1-1.6,0.2-3.3,0-4.9c-0.1-0.6-0.1-1.1-0.4-1.6C57.8,144.6,57.7,144.3,58,144.2z"/>
<path style="&st2;" d="M101.8,159.6c1.3-0.5,2.7-0.8,4-1.2c0.9-0.3,1.8-0.5,2.7-0.7c0.3,0,0.2,0.2,0.2,0.4c-0.4,1.2-0.4,2.4-0.3,3.6
	c0,0.3,0.1,0.7,0.1,1c0,3.5,0,7,0,10.5c0,0.1,0,0.2,0,0.2c0,0.9-0.1,1-1,1c-0.7,0-1.3-0.1-2-0.1c-1.4,0-2.8,0-4.3,0
	c-1.2,0-2.3-0.2-3.5-0.5c-1.5-0.4-2.2-1.4-2.4-2.9c-0.1-0.7-0.2-1.5-0.2-2.2c0-4.4,0-8.9,0-13.3c0-2.9,0.1-5.9,0.1-8.8
	c0-0.5,0.2-0.9,0.2-1.4c0-0.3,0.3-0.4,0.5-0.6c1.1-1,2.4-1.5,3.9-1.7c1.9-0.3,3.9-0.2,5.7,0.4c1,0.3,1.8,0.8,2.4,1.7
	c0.2,0.9,0.4,1.8,0.4,2.7c0,1.1,0,2.3,0,3.4c0,0.8-0.1,0.9-0.9,1.1c-0.7,0.1-1.5,0.3-2.2,0.5c-0.7,0.2-0.9,0-0.9-0.7
	c0-1.3,0-2.7,0-4c0-0.5-0.1-1.1-0.2-1.6c-0.2-1-0.9-1.6-1.9-1.8c-1-0.2-1.9,0.3-2.4,1.1c-0.3,0.5-0.4,1-0.4,1.6c0,2.5-0.1,4.9,0,7.4
	c0.1,2,0.2,3.9,0.1,5.9c-0.1,2.7,0,5.4-0.1,8.1c0,0.9,0,1.9,0.7,2.6c0.1,0.1,0.1,0.2,0.2,0.3c0.3,0.4,0.6,0.6,1.1,0.6
	c0.8,0.1,1.7,0.1,2.5,0c0.4-0.1,0.5-0.2,0.5-0.6c-0.1-2.3,0.1-4.7-0.1-7c-0.1-0.8-0.1-1.6,0-2.4c0.1-0.7,0-0.7-0.7-0.6
	c-0.3,0.1-0.6,0.1-0.9,0.2c-0.4,0.1-0.7-0.1-0.7-0.5C101.9,160.8,101.7,160.2,101.8,159.6z"/>
<path style="&st4;" d="M146.4,126.5c0.6-0.9,1.2-1.7,1.8-2.6c3.5-5.2,7-10.4,10.6-15.6c1.6-2.4,3.2-4.7,4.8-7.1
	c0.1-0.2,0.3-0.4,0.2-0.6c-0.1-0.2-0.4-0.1-0.6-0.1c-6.5,0-12.9,0-19.4-0.1c-1.5,0-3-0.1-4.5,0.1c-0.1,0-0.4,0.1-0.4-0.1
	c-0.1-0.2,0.2-0.3,0.3-0.4c0.8-0.6,1.6-1.3,2.4-2.1c0.2-0.2,0.4-0.3,0.7-0.3c8.7,0,17.3,0,26,0c0.5,0,0.9,0,1.4,0.1
	c0.1,0,0.3-0.1,0.4,0.1c0.1,0.2-0.1,0.3-0.2,0.5c-0.6,0.6-1.1,1.2-1.7,1.9c-2.1,2.5-4.2,4.9-6.2,7.5c-3.4,4.1-6.8,8.2-10.1,12.3
	c-1.7,2.1-3.4,4.1-5,6.2C146.8,126.3,146.6,126.5,146.4,126.5C146.5,126.6,146.4,126.6,146.4,126.5z"/>
<path style="&st5;" d="M91.9,85.9c1.1,0.5,2.1,0.7,3.1,0.8c0.4,0,0.8,0.2,1-0.1c0.2-0.2-0.3-0.6-0.5-0.8c-1.2-1.9-2-3.9-2-6.2
	c0-1.5,0.4-2.7,1.9-3.4c0.8-0.4,1.7-0.7,2.6-0.9c0.1,0,0.3-0.1,0.4,0.1c0.1,0.1-0.1,0.2-0.1,0.3c-0.4,0.6-1,1.1-1.5,1.6
	c-0.3,0.3-0.4,0.4,0.1,0.7c1.7,0.9,3.2,2.1,4.6,3.4c2.2,2,4.2,4.2,5.7,6.7c0.7,1.1,1.3,2.3,1.8,3.5c0.2,0.4,0.2,0.6-0.4,0.7
	c-2.5,0.3-5,0.1-7.5,0.2c-0.3,0-0.7,0-1,0c-1.1,0.2-2-0.2-2.8-0.9c-1.2-0.9-2.5-1.8-3.6-2.9C93,87.8,92.4,87,91.9,85.9z"/>
<path style="&st3;" d="M56.2,126c-2.3-2.6-4.5-5.4-6.7-8c-3.1-3.7-6.2-7.4-9.3-11.1c-2.2-2.6-4.4-5.3-6.7-7.9
	c-0.2-0.3-0.5-0.5-0.7-0.8c-0.2-0.3-0.2-0.5,0.2-0.5c6.2,0,12.4,0,18.6,0c0.3,0,0.5,0.1,0.5,0.4c0,0.5,0.1,1.1,0.2,1.6
	c0,0.3,0,0.4-0.4,0.4c-4.3-0.2-8.6,0.1-12.9-0.1c-0.3,0-0.5,0-0.8-0.1c0.1,0.5,0.4,0.9,0.7,1.3c3.2,4.6,6.4,9.1,9.6,13.7
	c2.2,3.2,4.4,6.4,6.6,9.5c0.4,0.5,0.7,1,1,1.5C56.3,126,56.3,126,56.2,126z"/>
<path style="&st6;" d="M116.9,134.3c-0.1-0.1-0.3-0.1-0.4-0.1c-0.8,0-0.7,0-0.4-0.7c0.7-1.8,1.6-3.5,2.6-5.1c0.9-1.4,1.9-2.8,3-4.1
	c1.1-1.2,2.3-2.4,3.6-3.6c0.9-0.8,1.9-1.6,2.8-2.3c2.7-2,5.6-3.7,8.6-5.1c1.3-0.6,2.6-1.1,3.9-1.5c0.6,0.1,0.8,0.4,0.4,1
	c-0.3,0.5-0.8,0.9-1.2,1.3c-1,0.8-2,1.5-2.8,2.4c-1.4,1.5-2.7,3.1-3.9,4.8c-0.2,0.3-0.5,0.6-0.8,0.8c-0.8,0.2-1.1,0-1.2-0.8
	c0-0.2,0-0.4,0-0.6c0.2-0.6,0.5-1.1,0.7-1.6c0.4-0.9,1-1.7,1.7-2.6c-0.9,0.8-1.8,1.5-2.6,2.1c-1.5,0.7-2.7,1.7-3.9,2.8
	c-2.8,2.7-4.9,5.8-6.8,9.1c-0.6,1.1-1.2,2.3-1.6,3.6c-0.1,0.4-0.4,0.2-0.7,0.2C117.6,134.3,117.2,134.3,116.9,134.3z"/>
<path style="&st7;" d="M95.9,144.6c-0.4,0.6-0.4,1.3-0.4,2c-0.1,1.1,0,2.3,0,3.4c-0.1,6.4-0.1,12.7-0.1,19.1c0,0.6,0,1.3,0.1,1.9
	c0.3,1.7,1.2,2.5,3.2,2.8c1.1,0.2,2.2,0.2,3.3,0.3c1.9,0,3.8-0.1,5.7,0.1c0.4,0,0.5-0.1,0.5-0.5c0-3.8,0-7.6-0.1-11.4
	c0-1.1-0.1-2.2,0-3.3c0-0.4-0.1-0.8,0.3-1.1c0.1-0.1,0-0.2-0.1-0.2c0.6-0.3,0.7-0.3,0.7,0.4c0,4.1,0.1,8.2,0.1,12.2
	c0,1,0.1,2.1,0,3.1c-0.1,1.2,0.5,2.1,1.4,2.7c0.1,0.1,0.3,0.1,0.2,0.3c-0.1,0.2-0.2,0.1-0.4,0.1c-3.5-0.3-7-0.3-10.5-0.4
	c-1,0-2-0.3-2.9-0.6c-1.8-0.7-2.6-2.1-2.9-3.9c-0.1-0.6-0.1-1.2-0.1-1.8c0.1-6.6,0.2-13.1,0.2-19.7c0-1,0-2.1,0.1-3.1
	C94.7,146,95.1,145.2,95.9,144.6z"/>
<path style="&st8;" d="M54.6,37c3.2-0.8,6-2.6,9-4.1c2.8-1.4,5.7-2.5,8.8-3.1c2.1-0.4,4.3-0.4,6.4-0.3c0.6,0,1.1,0.3,1.5,0.7
	c0.5,0.4,0.9,0.8,1.3,1.2c0.1,0.1,0.3,0.2,0.2,0.4c-0.1,0.1-0.2,0.1-0.4,0.1c-1.3,0.3-2.7,0.4-4,0.5c-2.3,0.3-4.6,0.9-6.8,1.6
	c-0.6,0.2-1.3,0.4-1.9,0.7c-0.5,0.2-1,0.1-1.4-0.1c-0.9-0.3-1.9-0.4-2.8-0.8c-0.1-0.1-0.2-0.1-0.3,0c-0.1,0.1,0,0.2,0.1,0.3
	c0.4,0.5,0.7,0.9,1.1,1.4c0.2,0.3,0.2,0.4-0.2,0.6c-3.2,1-6.5,1.1-9.9,1C55,37.2,54.7,37.2,54.6,37z"/>
<path style="&st8;" d="M50.4,54.1c2.1-3.5,4.3-6.7,7.5-9.3c2.8-2.3,5.8-4.1,9.1-5.6c0.3-0.1,0.4-0.1,0.5,0.2
	c0.3,1.3,0.7,2.5,0.8,3.8c0,0.5-0.2,0.7-0.6,0.9c-1.8,0.6-3.6,1.2-5.3,2c-4.3,2.1-8.2,4.7-11.8,7.9C50.5,54.1,50.5,54.1,50.4,54.1z"
	/>
<path style="&st9;" d="M100.2,171.7c-0.9-0.6-1.1-1.4-1.1-2.4c0-4.3,0.1-8.5,0.1-12.8c0-3-0.1-6.1-0.1-9.1c0-0.8,0.3-1.6,0.9-2.2
	c1.3-1.3,3.7-0.7,4.2,1.1c0.2,0.6,0.2,1.2,0.2,1.9c0,1.3,0,2.7,0,4c0,0.4,0.1,0.6,0.6,0.4c0.9-0.3,1.8-0.4,2.7-0.6
	c0.3,0,0.4-0.1,0.4-0.4c-0.1-2,0.2-4-0.3-5.9c-0.1-0.2,0-0.5,0.1-0.7c0.6,0.4,0.8,1,0.9,1.6c0.2,0.8,0.3,1.6,0.3,2.5
	c0,1.5,0,3,0,4.5c0,0.4-0.1,0.5-0.5,0.5c-1.8,0-3.4,0.4-5,1.4c-0.4,0.2-0.4,0-0.4-0.3c0-2.1,0.1-4.3,0-6.4c0-0.5-0.1-1.1-0.4-1.5
	c-0.4-0.6-0.9-0.6-1.5-0.5c-0.6,0.1-0.9,0.3-1.1,0.9c-0.2,0.5-0.2,1.1-0.2,1.6C100.2,156.7,100.2,164.2,100.2,171.7z"/>
<path style="&st10;" d="M56.2,77.2c0.2-0.9,0.4-1.6,0.6-2.3c1-3.7,2.5-7.2,4.4-10.5c1.6-2.6,3.6-4.9,5.8-7c0.4-0.3,0.6-0.4,1,0
	c0.3,0.3,0.6,0.5,0.9,0.7c0.2,0.2,0.2,0.3,0,0.5c-2.9,2.7-5.5,5.6-7.5,9c-1.3,2.2-2.1,4.5-2.1,7.1c0,0.8,0.1,1.6,0.3,2.5
	c-0.5-0.3-0.6-0.8-0.9-1.3c-0.4-0.7-0.4-0.7-0.9-0.1C57.3,76.2,56.8,76.6,56.2,77.2z"/>
<path style="&st8;" d="M75.2,45.6c0.2,0,0.4,0,0.6,0c-1.4-0.2-2.1-1.6-3.2-2.2c1.9,0.5,3.8,0.9,5.7,1.7c0-0.4-0.2-0.6-0.4-0.8
	c-1.9-1.4-3.9-2.7-5.9-4c-0.1-0.1-0.2-0.1-0.3-0.2c0.1-0.1,0.2-0.1,0.3,0c3,1.5,6.1,2.7,8.7,4.7c0.9,0.7,1.8,1.3,2.4,2.3
	c0.5,0.9,0.4,1.5-0.5,2c-1,0.6-2.1,0.7-3.2,0.9c-2.8,0.4-5.5,0.5-8.3,0.8c-0.9,0.1-1.8,0.2-2.7,0.3c-0.1,0-0.3,0.1-0.4-0.1
	c-0.1-0.2,0.1-0.2,0.2-0.3c1.2-1,2-2.3,2.6-3.7c0.2-0.6,0.3-1.1,0.5-1.7c0.2-0.7,0.2-0.7,0.9-0.5c-0.2,0.2-0.4,0-0.5,0
	c0.6,0.1,0.8,0.4,0.6,1c-0.3,1-0.5,2.1-1.1,3c-0.1,0.2-0.3,0.5-0.2,0.8c0.2,0.3,0.5,0.3,0.8,0.2c1-0.2,2.1-0.3,3.2-0.4
	c1.5-0.1,3-0.4,4.5-0.6c0.9-0.1,1.8-0.4,2.6-0.8c0.4-0.2,0.4-0.4,0-0.7c-1.2-0.7-2.5-1.1-3.8-1.1c-0.9,0-1.8-0.3-2.7-0.4
	C75.3,45.8,75.1,45.8,75.2,45.6z"/>
<path style="&st8;" d="M64.2,55.2c-4.7,3.1-8.5,7.2-11.6,12c0,0-0.1,0-0.1-0.1c0.2-0.6,0.4-1.2,0.6-1.9c0.9-2.6,1.9-5.2,3.4-7.6
	c0.9-1.4,1.8-2.8,2.9-4.1c0.1-0.2,0.3-0.3,0.6-0.2c1.4,0.7,2.8,1.2,4.3,1.7C64.2,55.1,64.2,55.2,64.2,55.2z"/>
<path style="&st11;" d="M75.2,45.6c0.9,0.3,1.8,0.4,2.7,0.5c1.5,0.1,2.9,0.5,4.2,1.1c0.3,0.1,0.6,0.3,0.6,0.6c0,0.3-0.4,0.4-0.7,0.5
	c-1.5,0.6-3.1,0.7-4.7,1c-1.5,0.2-3,0.3-4.6,0.5c-0.4,0-0.8,0.3-1.2,0.2c-0.9,0-1.1-0.3-0.7-1c0.6-1,0.8-2.1,1.2-3.2
	c0.2-0.5,0.1-0.8-0.7-1c0.4,0,0.6,0,0.8,0c0.4,0.3,0.9,0,1.3,0.2C74,45.1,74.5,45.5,75.2,45.6L75.2,45.6z"/>
<path style="&st12;" d="M98.7,54c0.4,0.3,1,0.4,1.5,0.6c1.5,0.5,2.7,1.4,3.6,2.7c0.5,0.8,1.1,1.5,1.7,2.3c0.2,0.3,0.4,0.6,0.4,1
	c0,0.1,0,0.3-0.1,0.3c-0.2,0.1-0.2-0.1-0.3-0.2c-0.7-0.7-1.5-1.5-2.3-2.1c-0.6-0.5-1.3-1-2-1.4c-1.4-0.8-2.8-1.4-4.4-1.6
	c-0.8-0.1-1.4,0.1-1.8,0.9c-0.3,0.6-0.6,1.2-0.8,1.9C94.1,58.7,94,59,93.7,59c-0.3,0-0.4-0.2-0.6-0.5c-0.3-0.6-0.4-1.2-0.2-1.8
	c0.2-0.6,0-1.1-0.1-1.6c0.3-0.5,0.2-1.2,0.8-1.6c1.4-0.1,2.9-0.1,4.3,0.3C98.1,53.9,98.4,54,98.7,54z"/>
<path style="&st8;" d="M115.3,20.3c4.7,3.2,8,7.3,9.9,12.7c-0.2,0.1-0.2,0.1-0.3,0c-1.6-2.1-3.7-3.6-5.7-5.3
	c-0.1-0.1-0.2-0.2-0.3-0.2c-1-0.6-1.5-1.6-1.8-2.7c-0.4-1.4-1.1-2.6-1.7-3.8c-0.1-0.2-0.2-0.4-0.3-0.6
	C115.2,20.4,115.2,20.3,115.3,20.3z"/>
<path style="&st4;" d="M121.2,100.5c0.7-0.7,1.6-0.9,2.4-1.2c0.8-0.3,1.5-0.4,2.4-0.2c0.8,0.2,1.6,0.1,2.4,0c0.4,0,0.6-0.2,0.6-0.5
	c0-0.6,0.3-0.8,1-0.8c1.6,0,3.2,0,4.7,0c0.4,0,0.7,0.1,0.9,0.5c0.3,0.6,0.6,1.2,0.9,1.7c0.2,0.4,0.1,0.5-0.3,0.5
	c-3.9-0.2-7.8,0-11.7-0.1C123.4,100.4,122.3,100.5,121.2,100.5z"/>
<path style="&st13;" d="M115.9,100.4c-0.7,0-1.3,0-2,0c-1.9-0.1-3.8-0.1-5.8-0.1c-0.4,0-0.8,0.1-1.2,0.2c-0.1,0-0.2,0.1-0.3,0
	c-0.1-0.1,0-0.2,0.1-0.3c0.3-0.2,0.5-0.5,0.8-0.7c0.1-0.1,0.2-0.2,0.1-0.3c0-0.1-0.2-0.1-0.3-0.1c-1.8-0.1-3.6-0.5-5.3-0.9
	c-0.3-0.1-0.6-0.2-0.9-0.5c0.5,0,0.9,0,1.2,0c2,0,4,0,6,0c0.7,0,1.4,0.1,2.1,0.5c1.5,0.9,3.2,1.4,4.9,2
	C115.6,100.2,115.8,100.2,115.9,100.4z"/>
<path style="&st14;" d="M101.8,159.6c0.3,0.5,0.3,1.1,0.3,1.7c0,0.4,0.2,0.5,0.5,0.4c0.4-0.1,0.9-0.2,1.3-0.3c0.3-0.1,0.5,0,0.5,0.4
	c-0.1,3.4,0.1,6.8,0,10.1c0,0.4-0.1,0.5-0.5,0.5c-0.9-0.1-1.8,0.1-2.7-0.1c0.7,0,1.3,0,2,0c0.2,0,0.4,0,0.3-0.3
	c-0.1-0.2,0-0.4,0-0.6c0-2.4,0-4.8,0-7.2c0-0.5-0.2-0.6-0.6-0.5c-0.5,0.1-1,0.2-1.4,0.3c-0.3,0.1-0.4,0-0.4-0.3
	c0-1.2,0.1-2.4,0.1-3.7C101.2,159.7,101.4,159.6,101.8,159.6z"/>
<path style="&st15;" d="M126.2,103.1c-0.1,0.3-0.1,0.4-0.2,0.4c-0.7,0.8-1.5,1.5-2.3,2.2c-0.5,0.4-1.1,0.6-1.7,0.5
	c-2.1-0.2-4.3-0.2-6.4-0.6c-0.8-0.2-1.7-0.3-2.5-0.4c-0.3,0-0.6-0.1-0.9-0.3C116.8,104.7,121.5,104.4,126.2,103.1z"/>
<path style="&st16;" d="M117.1,93c0-0.5-0.4-0.8-0.5-1.3c-0.2-0.6-0.3-1.2-0.3-1.8c0-0.4,0.1-0.7,0.5-0.8c0.3-0.1,0.6,0.1,0.8,0.4
	c0.6,0.8,1.2,1.7,1.7,2.5c0.3,0.5,0.7,0.9,1.3,1.2c0.4,0.2,1,0.4,0.9,1c-0.1,0.6-0.7,0.6-1.1,0.7c-0.5,0.1-1,0.1-1.6,0
	c-0.5-0.1-0.8-0.3-1-0.7C117.6,93.9,117.3,93.4,117.1,93z"/>
<path style="&st4;" d="M80.4,134.5c-0.2,0-0.4,0-0.6,0c-0.2,0-0.4,0.1-0.5-0.1c-0.1-0.2,0.1-0.4,0.2-0.5c0.5-0.8,1.3-1.4,2-2.1
	c1.5-1.6,3.2-2.9,4.9-4.1c0,0,0.1,0,0.2-0.1c-0.2,0.4-0.4,0.8-0.7,1.1c-1.3,1.4-2.5,2.9-3.1,4.8c-0.1,0.4-0.1,0.8-0.4,1.1
	C81.8,134.4,81.1,134.4,80.4,134.5z"/>
<path style="&st9;" d="M157.3,182c-0.2-0.1-0.1-0.1-0.2-0.2c0,0-0.5-0.5-0.6-0.7c-0.4-0.9-0.3-1.9-0.4-2.9c-0.1-2.7,0-5.5,0-8.2
	c0-0.3,0.1-0.6,0.3-0.8c0.6,0.3,0.9,0.7,0.8,1.4c-0.1,1.2,0,2.5,0,3.7C157.3,177,157.1,179.5,157.3,182z"/>
<path style="&st17;" d="M96.3,97.1c0.3-0.1,0.5,0.1,0.8,0.2c2.2,1.2,4.5,1.8,6.9,2.3c0.2,0,0.5,0,0.5,0.3c0,0.2-0.2,0.3-0.4,0.3
	c-0.1,0.1-0.3,0.1-0.4,0.2c-1.2,0.8-2.4,0.7-3.5-0.2C98.8,99.3,97.4,98.4,96.3,97.1z"/>
<path style="&st18;" d="M76.2,36.5c0.4-0.2,0.9-0.2,1.3-0.3c2-0.5,4-0.8,6.1-0.8c0.6,0,1,0.5,0.9,1.1c0,0.2-0.2,0.3-0.4,0.3
	c-1.5,0.3-3,0.3-4.5,0.2c-0.9-0.1-1.7-0.1-2.6-0.2C76.7,36.7,76.5,36.7,76.2,36.5z"/>
<path style="&st19;" d="M65.6,135.3c-0.5-0.1-1.2,0.2-1.5-0.1c-0.3-0.3-0.2-1-0.3-1.5c-0.1-0.6-0.3-1.2-0.3-1.8
	c0.1-0.1,0.2,0,0.3,0.1c1.1,1,2.4,1.7,3.7,2.4c0.4,0.2,0.8,0.4,1.1,0.7C67.6,135.3,66.6,135.2,65.6,135.3z"/>
<path style="&st20;" d="M93.2,85.1c-0.5-0.1-1.1-0.4-1.6-0.8c-0.6-0.4-0.5-1.1-0.5-1.7c-0.1-1.1,0.2-2.1,0.6-3.2
	c0-0.1,0.1-0.3,0.3-0.3c0.2,0,0.2,0.3,0.2,0.4c0.2,1.6,0.4,3.1,1.2,4.6c0.1,0.2,0.3,0.4,0.4,0.6C93.7,85,93.7,85.2,93.2,85.1z"/>
<path style="&st21;" d="M141,41.6c-0.1,0.2-0.2,0.4-0.3,0.6c-0.8,1.4-2,1.6-3.4,0.5c1.8-0.7,2.5-2.2,3.2-3.9
	c0.4,0.6,0.5,1.2,0.7,1.9C141.1,40.9,141.3,41.3,141,41.6z"/>
<path style="&st22;" d="M167.3,145.4c-0.7-0.1-1.5-0.1-1.9-0.2c0.2,0.2,0.1,0.4,0,0.6c-0.3,0.9-0.5,1.9-0.5,2.9c0,2.5,0,5,0,7.5v0
	c0,0,0,0,0,0c-0.2,1-0.1,2-0.1,3c0,0.1,0.1,0.3-0.1,0.4c-0.2,0.1-0.3-0.1-0.4-0.2c-0.9-0.9-1.9-1.9-2.8-2.8
	c-0.3-0.3-0.4-0.7-0.4-1.1c0-1,0.1-2.1,0.1-3.1c0-1.1,0-2.3-0.5-3.4c-0.5-1-1.3-1.6-2.4-1.6c-0.8,0-1.4,0.5-1.8,1.2
	c-0.3,0.4-0.3,0.9-0.3,1.4c0,2,0,4,0,5.9c0,1.1,0.1,2.3,1.1,3c-0.2-2.7-0.2-5.4-0.1-8.2c0-0.8,0.3-1.3,0.9-1.3
	c0.7-0.1,1.3,0.2,1.6,0.9c0.2,0.6,0.3,1.2,0.4,1.8c0.1,1.5,0.1,3.1,0,4.6c0,0.5,0.1,0.8,0.4,1.2c1.7,1.8,3.5,3.5,5.1,5.5
	c0.1,0.1,0.1,0.2,0.3,0.2c0.1,0,0.1-0.2,0.1-0.3c0-1.2-0.1-2.4-0.1-3.7c0-0.4,0-0.8,0-1.2c0-3.1,0.1-6.1,0.1-9.2
	c0-1.4,0.4-2.6,1.6-3.4c0.1-0.1,0.3-0.2,0.3-0.4C167.7,145.3,167.5,145.4,167.3,145.4z M165.4,155.7
	C165.4,155.7,165.4,155.7,165.4,155.7C165.4,155.7,165.4,155.7,165.4,155.7C165.4,155.7,165.4,155.7,165.4,155.7z"/>
<path style="&st8;" d="M66.7,47.9c-1.5,2.2-3.4,3.7-6,4.5C61.2,51.3,65.1,48.4,66.7,47.9z"/>
<path style="&st23;" d="M91.1,87.7c0.6,0.5,0.9,1.1,1.3,1.5c0.9,0.9,1.7,1.9,2.9,2.5c0.1,0.1,0.2,0.1,0.2,0.2c0,0.2-0.2,0.2-0.3,0.2
	c-1.5,0.4-2.3,0-3-1.4C91.6,89.9,91.2,88.9,91.1,87.7z"/>
<path style="&st8;" d="M141,41.6c0-0.3,0.1-0.6,0.1-0.9c0.1,0.3,0.3,0.5,0.5,0.7c0.8,0.6,1,2.5,0.4,3.3c-0.3,0.4-0.5,0.8-0.6,1.2
	c0,0.1-0.1,0.3-0.2,0.2c-0.1,0-0.2-0.1-0.2-0.2c-0.3-0.6-0.5-1.1-0.2-1.8C141.2,43.3,141.1,42.4,141,41.6z"/>
<path style="&st22;" d="M71.8,148.5c0-1.1-0.3-2.2-1.1-3.1c0,0.3-0.1,0.6,0,0.9c0.1,1.2,0.3,2.4,0.2,3.6c0,1.6,0,3.2-0.1,4.7
	c-0.1,3.1-2.3,4.5-4.9,5.6c1.1,0.1,2.2,0.4,3.3,0.5c-0.3-0.1-0.3-0.2,0-0.3c1.3-0.7,1.9-1.9,2.2-3.2
	C72.1,154.2,71.9,151.3,71.8,148.5z M71,154.1C71,154.1,71,154.1,71,154.1C71,154.2,71,154.2,71,154.1C71,154.2,71,154.1,71,154.1z"
	/>
<path style="&st24;" d="M131.3,135.4c-0.7,0-1.4,0-2,0c1,0.5,0.3,1.1,0.1,1.6c-0.2,0.4-0.5,0.8-0.6,1.3c0,0,0,0,0,0
	c-0.2,0.2-0.4,0.3-0.5,0c-0.2-0.6-0.4-1.1-0.7-1.6c-0.2-0.4-0.3-0.7,0.1-1c0.1-0.1,0.2-0.2,0.1-0.3c0-0.1-0.2-0.1-0.3-0.1
	c-0.7,0-1.4,0-2.1,0c-0.1,0-0.2,0-0.2,0.1c0,0.1,0.1,0.1,0.1,0.2c1.1,1.4,1.9,3,2,4.8c0,0.4,0.1,0.9-0.5,1.1c-0.1,0-0.2,0.1-0.1,0.3
	c0,0.1,0.2,0.1,0.2,0.1c0.7-0.2,1.5-0.1,2.2,0c0.1,0,0.3,0,0.3-0.1c0.1-0.2-0.1-0.2-0.2-0.2c-0.4-0.1-0.5-0.4-0.5-0.8
	c0-0.8,0.1-1.6,0.4-2.3C129.9,137.5,130.3,136.3,131.3,135.4z"/>
<path style="&st25;" d="M81.9,58.8c-0.6-0.7-1.3-1.3-2.2-1.4c0,0.2-0.1,0.5,0,0.6c0.2,0.6-0.1,1-0.5,1.4c0.1,0,0.3-0.1,0.4,0.1
	c0.1,0.1-0.1,0.3-0.2,0.4c-0.5,0.4-0.9,0.7-1.5,0.9c0,0,0,0,0,0c-0.6,0.3-1.2,0.6-1.8,1c-0.1,0.1-0.4,0.2-0.3,0.4
	c0.1,0.2,0.3,0.1,0.5,0.1c1.3-0.4,2.7-0.8,4-1.4c0.6-0.3,1.2-0.6,1.6-1.2C82,59.4,82.1,59.1,81.9,58.8z"/>
<path style="&st24;" d="M104.4,139.2c-0.1-0.2-0.2-0.1-0.4-0.1c-0.5,0.1-1,0.1-1.5,0.1c-0.2,0-0.4-0.1-0.5,0.1
	c-0.1,0.2,0.2,0.3,0.3,0.4c0.4,0.4,0.3,1.5-0.2,1.7c-0.6,0.3-1.3,0.1-1.6-0.6c-0.5-1.7-0.4-3.3,0.5-4.9c1-0.4,1.4-0.3,2,0.6
	c0.1,0.2,0.3,0.2,0.4,0.2c0.2-0.1,0.2-0.2,0.2-0.4c-0.1-0.4-0.4-0.8-0.8-0.8c-0.7-0.1-1.5-0.2-2.2,0.1c0,0,0,0,0,0c0,0,0,0,0,0
	c-1.1,0.4-1.8,1.1-2,2.3c-0.1,0.5-0.1,1,0,1.5c0.1,1.6,1.3,2.6,2.9,2.5c0.5,0,0.9-0.3,1.5-0.1c0.8,0.2,0.8,0.2,0.8-0.7
	c0-0.3,0-0.6,0-0.9c0-0.3,0-0.5,0.3-0.7C104.3,139.4,104.4,139.3,104.4,139.2z"/>
<path style="&st22;" d="M39.1,151.1C39.1,151.1,39.2,151.1,39.1,151.1c0.1,3.6,0.1,7.2,0.1,10.8c0,0.2,0,0.4-0.1,0.5
	c0-1.5,0-3,0-4.6C39.1,155.6,39.1,153.3,39.1,151.1z"/>
<path style="&st26;" d="M57.5,158.7c0,2.2,0,4.4,0,6.5c0,0.1-0.1,0.2-0.1,0.3C57.4,163.3,57.3,161,57.5,158.7z"/>
<path style="&st8;" d="M97.9,53.8c-1.4-0.1-2.8-0.3-4.3-0.3C95,53.4,96.4,53.3,97.9,53.8z"/>
<path style="&st27;" d="M92.5,57.5c0,1,0,2.1,0,3.1C92.4,59.5,92.4,58.5,92.5,57.5z"/>
<path style="&st28;" d="M56.2,126c0.1,0,0.1-0.1,0.2-0.1c0.3,0.3,0.5,0.7,0.7,1.2C56.6,126.8,56.4,126.3,56.2,126z"/>
<path style="&st29;" d="M75.2,45.6c-0.7,0.1-1.2-0.3-1.8-0.6C74.1,45,74.6,45.4,75.2,45.6z"/>
<path style="&st24;" d="M95.2,140.1c-0.3,0-0.4,0.1-0.5,0.3c-0.1,0.3-0.1,0.7-0.3,1c0,0,0,0,0,0c-0.5,0.1-1,0-1.5,0
	c-0.3,0-0.4-0.1-0.4-0.4c0.1-1.5,0.1-2.9,0.1-4.4c0-0.3,0-0.7,0.3-0.9c0.1-0.1,0.2-0.2,0.1-0.4c-0.1-0.2-0.2-0.1-0.4-0.1
	c-0.5,0-1.1,0-1.6,0c-0.4,0-0.6,0.1-0.3,0.5c0.2,0.2,0.2,0.4,0.2,0.7c0,1.5,0,3,0,4.4c0,0.3,0,0.5-0.3,0.7c-0.1,0.1-0.2,0.1-0.1,0.3
	c0.1,0.1,0.2,0.1,0.3,0.1c0.5-0.2,1,0,1.5-0.1c0,0,0,0,0,0c0.8,0.1,1.5,0.1,2.3,0c0,0,0,0,0,0c0.6,0.1,0.8-0.1,0.7-0.7
	c0-0.2,0-0.4,0-0.6C95.4,140.3,95.5,140.1,95.2,140.1z"/>
<path style="&st27;" d="M101.7,73.2c0,0,0.1,0,0.1,0c-0.1,0.5,0.1,1-0.1,1.5C101.7,74.2,101.7,73.7,101.7,73.2z"/>
<path style="&st30;" d="M120.7,108.3c-0.5,0-1.1,0.1-1.6-0.1C119.7,108.2,120.2,108.2,120.7,108.3z"/>
<path style="&st31;" d="M78.1,140.1c-0.3-0.1-0.3,0.1-0.4,0.3c-0.3,1.1-1,1.4-2,0.9c-0.1-0.2-0.3-0.4-0.3-0.6
	c-0.3-1.7-0.5-3.3,0.5-4.9c0.9-0.3,1.4-0.2,1.9,0.6c0.1,0.2,0.3,0.3,0.4,0.2c0.2-0.1,0.1-0.3,0.1-0.5c-0.2-0.4-0.4-0.8-0.9-0.8
	c0,0,0,0,0,0c0,0,0,0,0,0c-0.5-0.2-1-0.2-1.4,0h0l0,0c-0.1,0-0.2,0.1-0.3,0.1c0,0,0,0,0,0l0,0c-0.6,0.1-1.1,0.5-1.5,1
	c-0.8,1.2-0.7,2.4-0.3,3.7c0.2,0.7,0.8,1.3,1.5,1.5c0.4,0.2,0.9,0.2,1.4,0.2c1,0,1.4-0.3,1.6-1.3C78.3,140.4,78.4,140.2,78.1,140.1z
	"/>
<path style="&st32;" d="M55,105c0.2,0.4,0.1,0.9,0.1,1.3C55,105.9,55,105.4,55,105z"/>
<path style="&st13;" d="M56.5,96.9c-0.1-1-0.3-2-0.4-3c-0.3-3.1-0.1-6.2,0.8-9.2c0.4-1.2,0.9-2.4,1.3-3.7c0.2,0,0.3,0.1,0.5,0.2
	c1,1,2.1,1.8,3.2,2.7c0.1,0.1,0.2,0.2,0.2,0.3c0.2,0.2,0.3,0.5,0,0.8c-1.8,1.9-2.6,4.3-3,6.8c-0.4,2.7,0,5.4,0.5,8.1
	c0.5,2.3,1.1,4.5,1.9,6.7c-0.5-0.3-0.8-0.6-1.1-0.9c-0.4-0.2-0.6-0.5-0.8-0.9c-0.7-1.6-1.7-3-2.3-4.6c-0.4-0.9-0.6-1.9-0.9-2.9
	C56.5,97.2,56.5,97.1,56.5,96.9z"/>
<path style="&st13;" d="M56.3,109.6c0-1-0.3-1.9-0.3-2.9c0-0.3-0.2-0.8,0.1-0.9c0.2-0.1,0.4,0.4,0.6,0.6c1.3,1.8,2.6,3.6,4.2,5.1
	c0.3,0.3,0.4,0.6,0.4,0.9c0.1,4.9,1.6,9.4,3.7,13.7c0.5,1,1.1,2,1.5,3.1c0,0.1,0,0.1,0.1,0.3c-0.4-0.1-0.6-0.4-0.9-0.6
	c-0.5-0.1-0.7-0.6-0.9-0.9c-1.8-2.4-3.7-4.7-5.2-7.3c-1.3-2.3-2.2-4.7-2.7-7.3c-0.2-0.8-0.6-1.6-0.5-2.5c0-0.4-0.1-0.8-0.1-1.2
	C56.2,109.7,56.3,109.7,56.3,109.6z"/>
<path style="&st13;" d="M71.2,64.5c-0.2,1.1-0.7,2-1.3,2.9c0.2,0.2,0.3,0,0.4,0c0.2,0.1,0.6-0.1,0.6,0.1c0.1,0.3-0.3,0.5-0.5,0.6
	c-2.2,1.5-3.9,3.4-5,5.8c-0.8,1.8-0.9,3.6-0.6,5.6c0,0.2,0.2,0.6-0.3,0.4c-0.4-0.1-0.5-0.5-0.6-0.7c-0.9-1.7-1.5-3.5-1.2-5.5
	c0.1-0.4,0.2-0.7,0.3-1c0.5-1.4,1.3-2.6,2.2-3.8c1.3-1.7,2.7-3.2,4.2-4.7c0.4-0.4,0.8-0.8,1.4-0.9c0.2,0,0.4-0.1,0.4,0.3
	C71.1,63.9,71.2,64.2,71.2,64.5z"/>
<path d="M87.4,75.6c-0.5,0.9-1.3,1.7-1.9,2.5c-0.8,1.1-1.9,1.4-3.2,1.2c-0.8-0.1-0.8,0-0.8-0.8c0-0.7,0-1.5,0-2.2
	c0.3-0.1,0.4,0.1,0.4,0.2c0.4,0.6,0.9,0.7,1.6,0.4c1.8-0.7,3.3-1.8,4.7-3.2c0.1-0.1,0.2-0.3,0.4-0.3C88.3,74.2,87.8,74.9,87.4,75.6z
	"/>
<path style="&st33;" d="M91.2,74.2c0.1,0,0.1,0.1,0.2,0.1c0.8,0.5,0.9,0.6,0.1,1.1c-1.2,0.8-2.4,1.6-3.9,2.1c0,0-0.1,0-0.2,0
	c0.1-0.2,0.2-0.4,0.4-0.6c1-0.7,1.9-1.5,2.5-2.5C90.6,74.1,90.8,74,91.2,74.2z"/>
<path style="&st13;" d="M96.5,71c0.1,0.3,0.5,0.5,0.4,0.7c-0.1,0.3-0.5,0.1-0.8,0.1c-1.1,0-2.2,0-3.3,0.1c-0.2,0-0.5,0.2-0.5-0.2
	c0.9-0.5,1.9-1,2.8-1.5c0.3-0.2,0.7,0,0.9,0.2C96.1,70.6,96.3,70.8,96.5,71z"/>
<path style="&st34;" d="M141.2,88c0,2.8-0.7,5.3-1.9,7.8c-0.1,0.1-0.1,0.3-0.2,0.4c-0.4,0.6-0.8,0.6-1.2,0c-1-1.3-2.2-2.5-3.5-3.5
	c-0.9-0.7-2-1-3.1-1.5c-1.7-0.7-3.4-1.3-4.9-2.3c-0.2-0.1-0.4-0.3-0.5-0.5c-0.1-0.2-0.3-0.4-0.1-0.6c0.2-0.2,0.4-0.1,0.6-0.1
	c1.1,0.3,2.1,0.7,3.2,1c2,0.5,3.9,1.1,5.7,2c0.4,0.2,0.5-0.1,0.4-0.4c-0.2-0.7-0.2-1.4-0.3-2.1c0-0.2,0-0.4,0-0.7
	c0-0.2,0.1-0.3,0.2-0.4c0.2,0,0.3,0,0.4,0.1c0.9,1.1,1.7,2.2,2.6,3.3c0.1,0.1,0.1,0.4,0.4,0.3c0.2-0.1,0.1-0.3,0.1-0.5
	c0-0.8,0.3-1.5,0.4-2.3c0.2-0.8,0.5-0.9,1.2-0.5C140.9,87.8,141.1,87.9,141.2,88L141.2,88z"/>
<path style="&st8;" d="M147.8,79.8c-0.1-1-0.2-1.1-1.2-1c-0.3,0-0.6,0-0.9,0c-0.3,0-0.5,0.1-0.6,0.4c-0.4,1-0.7,2-1.2,2.9
	c-0.4,0.7-0.6,1.5-0.6,2.4c0.1,1.8-0.5,3.4-1.4,4.9c-0.1,0.1-0.2,0.4-0.4,0.4c-0.2,0-0.1-0.3-0.2-0.5c-0.1-0.4,0-0.9-0.2-1.3
	c-0.2,0.3-0.2,0.6-0.1,0.9c0,0.4,0,0.9-0.2,1.3c-0.2,0.7-0.3,1.4-0.4,2.1c-0.3,1.3-0.8,2.5-1.4,3.7c-0.4,0.7-0.7,0.7-1.2,0.1
	c-0.6-0.8-1.3-1.6-2-2.2c-0.7-0.6-1.3-1.4-2.2-1.8c-1.2-0.5-2.4-1.1-3.7-1.6c-1.1-0.4-2.1-0.9-3.1-1.5c-0.3-0.2-0.6-0.4-0.8-0.6
	c-0.1-0.1-0.2-0.2-0.1-0.4c0.1-0.2,0.2-0.1,0.4-0.1c0.4,0.1,0.7,0.3,1.1,0.4c2.6,0.7,5.2,1.3,7.6,2.5c0.5,0.2,0.8,0,0.7-0.6
	c-0.1-0.7-0.2-1.5-0.3-2.2c0-0.2-0.1-0.4,0.2-0.5c0.2-0.1,0.3,0.1,0.4,0.3c0.9,0.9,1.6,2,2.4,3c0.2,0.2,0.3,0.4,0.6,0.4
	c0.3-0.1,0.2-0.4,0.3-0.6c0-0.7,0.2-1.4,0.4-2.2c0.2-0.6,0.4-0.8,1-0.5c0.2,0.1,0.3,0.2,0.5,0.2c-0.2-1.4-0.7-2.7-1.4-3.9
	c-0.4-0.8-0.9-1.5-1.6-2.1c-0.1-0.1-0.3-0.3-0.5-0.3c-0.3,0.1-0.2,0.3-0.2,0.5c-0.2,1.5,0,2.9,0.4,4.3c0.1,0.4,0.2,0.8,0.3,1.1
	c0.1,0.4,0.3,0.7,0.2,1.2c-1.7-1.6-2.2-3.7-2.3-5.8c-0.1-1.5-0.8-2.5-1.9-3.3h0c-0.2-0.3-0.5-0.4-0.8-0.6c-1.2-0.8-2.6-1.4-4-2
	c-0.5-0.2-0.7-0.1-0.8,0.4c-0.2,0.8-0.3,1.6-0.7,2.3c-0.1,0.2-0.4,0.4-0.4,0.7h0c-0.4,0.3-0.5,1-1.1,1.1c-0.1-0.2,0-0.4,0-0.5
	c0.4-1.3,0.7-2.6,0.6-4c0-0.7,0-1.5-0.1-2.2c-0.1-0.5,0.1-0.6,0.6-0.5c0.6,0.2,1.3,0.3,1.9,0.5c1.9,0.6,3.8,1.3,5.3,2.7
	c0.6,0.6,1.3,1,2.1,1.3c0.9,0.3,1.8,0.7,2.5,1.5c0.6,0.7,1.2,1.4,1.7,2.1c0.2,0.3,0.4,0.4,0.6,0c0.4-0.7,0.8-1.4,1.1-2.1
	c0.5-1.2,1.3-2.4,0.6-3.8c-0.1-0.1-0.1-0.3-0.1-0.4c-0.5-1.9-0.4-3.7,0.7-5.3c0.2-0.3,0.2-0.5,0.1-0.8c-0.4-2.1-1.2-4-2.5-5.7
	c-0.5-0.6-0.9-1.3-1.6-1.7c0.1,1.3,0,2.6,0.1,3.8v0c0,0,0,0,0,0c-0.3,2-0.9,3.8-2,5.4c-1.2,1.6-2.9,2.5-4.8,3.1c0,0,0,0,0,0
	c-0.4,0-0.8,0-1.2,0c-0.1,0-0.3,0-0.3-0.1c0-0.2,0.1-0.2,0.2-0.2c0.4-0.2,0.9-0.5,1.3-0.7c0.1-0.1,0.4-0.1,0.2-0.4
	c-0.8-0.9-1.3-2-1.7-3.2c-0.1-0.3-0.3-0.5-0.6-0.6c-0.9-0.1-1.8-0.3-2.8,0.1c-0.2,0.1-0.3,0.2-0.6,0.1c0.2-0.4,0.5-0.5,0.9-0.6
	c0.6-0.2,0.9-0.5,1-1.2c0.2-1.3,0.1-2.6-0.4-3.8c0.3-0.5,0.4,0,0.5,0.1c0.7,1.2,1.3,2.3,1.7,3.7c0.1,0.5,0.4,0.8,0.9,0.7
	c0.5-0.1,0.7,0.1,0.9,0.6c0.4,0.8,0.9,1.5,1.6,2.1c0.3,0.3,0.6,0.4,0.9,0c0.3-0.3,0.8-0.6,0.2-1.2c-0.7-0.6-1.4-1.3-1.7-2.2
	c-0.6-1.6-0.8-3.3-0.4-5.1c0.1-0.4,0.1-0.7-0.2-1c-0.4-0.4-0.7-0.9-1.1-1.4c-0.3-0.4-0.5-1.2-0.9-1.2c-0.4,0-0.7,0.7-1.1,1.1
	c-0.4,0.4-0.7,1-1.3,1.3c0.3-0.7,0.6-1.3,0.8-1.9c0.5-1.4,0.7-2.7-0.4-3.9c-0.2-0.2-0.4-0.3-0.6-0.1c-0.6,0.4-1.1,0.8-1.6,1.3
	c-0.1,0.1-0.3,0.4-0.5,0.1c-0.7-0.9-1.6-1.7-2.6-2.3c-0.1-0.1-0.3-0.2-0.2-0.3c0.1-0.1,0.3-0.1,0.4-0.1c0.6,0.1,1.2,0.3,1.7,0.4
	c0.6,0.2,1.1-0.1,1.4-0.6c0.4-0.5,0.7-1.1,0.9-1.7c0.4-1.3,0.7-2.5-0.1-3.8c-0.4-0.7-0.8-1.4-1.3-2.1c-0.9-1.3-1.7-2.5-2.7-3.7
	c0.3-0.1,0.3,0.1,0.5,0.2c1.4,1,2.6,2.1,3.8,3.3c0.4,0.4,0.6,0.4,0.8-0.2c0.2-0.5,0.4-1,0.5-1.6c0-0.2,0-0.4,0.2-0.4
	c0.2,0,0.3,0.2,0.3,0.4c0.1,1,0.3,2,0.1,2.9c-0.1,0.7-0.1,1.4,0.3,2c0.2,0.9,0.3,1.7,0.3,2.6c0,0.7,0,0.7,0.6,0.4
	c2.1-0.8,4.3-1.4,6.6-1.7c0.2,0,0.4-0.1,0.4-0.3c0.2-1.6,0.4-3.1,0-4.7c-0.1-0.5-0.4-0.9-0.9-1c-1.4-0.4-2.7-1.1-3.9-1.9
	c0,0,0,0,0,0c-1.1-0.8-2.3-1.4-3.3-2.2c-0.3-0.2-0.4-0.1-0.4,0.2c0,0.3,0,0.6-0.1,0.9c0,0.1,0,0.4-0.2,0.4c-0.2,0-0.2-0.2-0.3-0.3
	c-0.7-1.4-1.6-2.6-2.6-3.8c-1.5-2-3.3-3.7-5.1-5.4c-2.5-2.4-5.2-4.6-8-6.6c-1.7-1.2-3.5-2.3-5.3-3.5c-0.6-0.4-1.1-0.8-1.8-1.1
	c0.1,3.1,0.1,6.2-0.7,9.3c-1.5-3.1-3.4-5.9-5.6-8.4c-2.2-2.5-4.9-4.5-7.7-6.4c0,0.1,0,0.2,0.1,0.3c0.1,0.1,0.1,0.2,0.2,0.3
	c1.7,2.6,3.1,5.4,4,8.5c0.3,0.9,0.7,1.7,1.3,2.4c2,2.3,3.9,4.6,5.9,6.9c0.1,0.1,0.2,0.3,0.3,0.6c-0.4-0.2-0.8-0.4-1.1-0.6
	c-2.9-1.4-5.7-3.1-7.8-5.6c-0.3-0.4-0.7-0.8-1.1-1.1c-2.1-2-4.3-3.9-6.8-5.4c-1.8-1.1-3.7-2.1-5.8-2.8c-3.8-1.3-7.7-1.8-11.7-1.8
	c-3.5,0-6.9,0.2-10.4,0c-1.6-0.1-3.3-0.2-4.9-0.6c-1.2-0.3-2.3-0.7-3.4-1.2c2.6,1.9,5.5,3.2,8.6,3.9c0.2,0.2,0.5,0.1,0.7,0.1
	c0.6,0,1.2,0,1.9,0.2c0.8,0.2,1.7,0.5,2.6,0.5c0.7,0.1,1.3,0.2,2,0.4c1.7,0.3,3.4,0.6,5,1.1c2.8,0.8,5.4,1.9,7.8,3.5h0c0,0,0,0,0,0
	c2.3,1.6,4.1,3.7,5.8,6c1.1,1.5,1.9,3.2,2.9,4.8c0.5,0.8,0.5,0.7,1.3,0.3c0.3-0.2,0.6-0.6,1-0.5v0c0,0.1-0.1,0.2-0.1,0.3
	c-0.2,1.1-0.7,2-1.4,2.7c-0.7,0.7-1.6,1.2-2.4,1.8c0,0,0,0,0,0c-0.6,0.2-1.1,0.4-1.7,0.6c-0.3,0.1-0.5,0.1-0.5-0.3c0-0.5,0-1,0-1.5
	c0-0.3-0.1-0.5-0.4-0.5c-0.6,0-1.3,0-1.9-0.1c-2.3-0.1-4.5-0.4-6.8-0.7c-0.5-0.1-1-0.4-1.5-0.4c0.1,0.1,0.2,0.2,0.4,0.3
	c1.3,0.7,2.6,1.5,3.8,2.2c1.7,1,3.4,2.1,5.1,3.2c1.2,0.8,2.3,1.7,2.9,3c0.6,1.2,0.4,2.4-0.7,3.2c-0.7,0.5-1.6,0.8-2.4,1
	c-2.6,0.6-5.3,0.7-8,0.9c-3.2,0.2-6.3,0.1-9.6,0.7c0.3,0.3,0.5,0.3,0.7,0.3c2.2,0.2,4.3,0.4,6.5,0.7c1.4,0.2,2.8,0.4,4.2,0.6
	c0,0,0,0,0,0c0.1,0,0.1,0.1,0.2,0.1c1.9,0.2,3.7,0.9,5.3,1.9c1,0.5,2,2,1.1,3.5c-0.2,0.4-0.6,0.7-1,1c-1,0.8-2,1.4-3.2,1.9
	c-0.2,0.1-0.4,0.1-0.5,0.4c1.4-0.2,2.7-0.3,4.1-0.5c1.7-0.2,3.3-0.4,5-0.6c0.3,0,0.6-0.1,0.5-0.6c-0.3-1.5-0.3-3.1-0.2-4.6
	c0.1-1.9,0.3-3.9,1-5.7c0.1-0.4,0.2-0.9,0.5-1.1c0.3-0.3,0.8,0.2,1.2,0.2c0,0,0.1,0,0.1,0c2.1,0.4,4,1.2,5.8,2.2
	c0.4,0.2,0.7,0.4,1,0.8c0.3,0.3-0.1,0.2-0.2,0.2c0,0.3,0.3,0.3,0.4,0.4c0.4,0.2,0.8,0.3,1.2,0.4c0.9,0.3,1.7,0.7,2.4,1.5
	c1,1.2,1.8,2.4,2.7,3.7c0.1,0.2,0.2,0.4,0.1,0.7c-0.8-0.8-1.5-1.5-2.4-2.1c-1.9-1.5-4-2.7-6.5-3c-1-0.1-1.5,0.1-2,1
	c-0.3,0.5-0.5,1.1-0.7,1.7c-0.1,0.2-0.1,0.5-0.4,0.5c-0.3,0-0.4-0.3-0.4-0.5c-0.2-0.5-0.2-1.1-0.1-1.6c0.1-0.5,0.2-1.1-0.3-1.5
	c-0.2,0.8-0.3,1.6-0.3,2.4c-0.1,1-0.1,2.1,0,3.1c0,1.2,0.2,2.5,0.4,3.7c0,0.7,0.4,1,1,1.2c1.5,0.4,2.8,1.1,4.1,2
	c1.6,1.2,2.7,2.8,3.4,4.7c0,0.4,0.1,0.7,0.3,1.1c0,0,0.1,0,0.1,0c0,0,0,0,0,0.1c0,0.5,0.1,1,0,1.4c-0.1,0.7-0.3,1.3-0.8,1.8
	c-0.5,0.5-0.1,0.8,0.3,1.1c1,0.6,1.9,1.4,2.7,2.2c1.2,1.1,2.4,2.4,3.4,3.7c2.2,2.7,3.9,5.6,5.1,8.9c0.3,0.8,0.5,1.7,1.1,2.4
	c0,0,0,0,0,0c0.1,0.4-0.1,0.3-0.3,0.2c-0.4-0.1-0.7-0.6-1.2-0.5c-0.9,0.2-1.8,0.4-2.8,0.6c0.3,0.2,0.4,0.3,0.6,0.4
	c2.3,1.5,4.9,2.4,7.6,3.1c0.3,0.1,0.7,0.1,1.1,0.1c0.2,0,0.5,0.1,0.6-0.2c0.1-0.3-0.3-0.3-0.5-0.4c-0.5-0.2-1-0.3-1.4-0.5
	c-0.7-0.3-1.5-0.7-1.9-1.5c0.6-0.1,1,0.4,1.5,0.5c0,0,0,0,0,0c0.8,0.3,1.7,0.6,2.6,0.7c0.1,0,0.3,0,0.4-0.1c0.1-0.2-0.1-0.2-0.2-0.3
	c-0.4-0.3-0.8-0.4-1.3-0.6c-0.4-0.1-0.8-0.4-1-0.8c-0.6-1.2-0.8-2.5-1-3.8c0.6,0.3,0.7,0.9,1.1,1.2c0.2-0.2,0-0.4-0.1-0.6
	c-0.3-0.7-0.7-1.5-0.6-2.3c0-0.3,0-0.6,0.3-0.7c0.3-0.1,0.6,0.1,0.7,0.4c0.5,0.7,1,1.3,1.4,2c0.4,0.7,0.9,1.4,1.7,1.7
	c0.2,0.1,0.3,0.2,0.4,0.3c0.3,0.3,0.3,0.7-0.1,0.8c-0.5,0.2-1,0.3-1.6,0.3c-0.2,0-0.4-0.1-0.6,0.1c0.4,0.1,0.7,0.4,1.2,0.4
	c1,0.4,1.9,0.8,2.9,1.1c1.3,0.4,2.7,0.7,4.1,0.8c0.4,0,0.6-0.1,0.6-0.5c0-0.6,0-1.3,0-1.9c0-0.6-0.2-1.1-0.6-1.7
	c-0.2,0.6-0.4,1.2-0.4,1.7c-0.1,0.6-0.3,0.6-0.8,0.5c-0.8-0.2-1.6-0.7-2.3-0.9c0,0,0,0,0,0c0,0,0,0,0,0c-3.1-2-5.4-4.5-6-8.4
	c-0.6,0.8-1.3,1.4-1.5,2.3c0,0.2,0,0.4-0.2,0.4c-0.2,0-0.3-0.2-0.4-0.4c-0.4-0.9-0.7-1.9-0.9-2.9c-0.2-1-0.1-2-0.1-3
	c-1,0.5-1.3,1.5-2.1,2.2c-0.2-0.6-0.1-1.2-0.5-1.7c0-0.1-0.1-0.1-0.1-0.2c-0.8-2-2-3.7-3.5-5.2c-0.8-0.8-1.6-1.6-2.4-2.3
	c0-0.2-0.2-0.3-0.3-0.5c-0.5-0.6-1-1.2-1.3-1.9c0,0,0,0,0,0h0c-0.2-0.9-0.5-1.8-0.7-2.7c-0.7-2.7-2-5-4.1-6.8
	c-0.3-0.3-0.6-0.7-0.9-1c-0.1-0.2-0.2-0.4-0.5-0.5c-0.3,1.1,0.5,2,0.5,3c-1-0.9-1.7-2.1-2.2-3.3c-0.5-1.3-0.5-2.6-0.5-3.9
	c0-0.3,0.1-0.6,0.1-0.9c0-0.2,0.2-0.3,0.4-0.3c0.8,0.1,1.6,0.2,2.4,0.5c2,1,3.8,2.4,5.3,4.1c0.2,0.3,0.5,0.6,0.6,0.9
	c-0.3,0.1-0.4-0.1-0.6-0.2c-1.5-1.2-3.1-2-4.8-2.7c-0.4-0.2-0.8-0.3-1.2-0.4c-0.3-0.1-0.5,0-0.3,0.4c0.4,0.9,1,1.6,1.7,2.2
	c1.4,1.2,3.1,1.9,4.5,3c0,0,0,0,0,0c0.2,0.1,0.4,0.3,0.5,0.4c0.8,0.9,1.6,1.7,2.3,2.7c0.2,0.4,0.5,0.6,0.9,0.1
	c0.2-0.2,0.4-0.5,0.7-0.6c0.1,0.5-0.1,0.8-0.3,1.2c-0.6,0.8-1.2,1.4-1.9,2c-0.2,0.2-0.2,0.4,0.1,0.5c0.4,0.1,0.8,0.3,1.2,0.4
	c1.8,0.7,3.5,1.5,5.1,2.4c1.5,0.8,3,1.5,4.4,2.3c1.5,0.9,3,1.7,4.4,2.7c0.4,0.3,0.7,0.2,0.8-0.3c0.1-0.3,0.1-0.6,0.4-0.8
	c0.3,0.4,0.3,0.9,0.3,1.3c0,1.4-0.3,2.8-0.7,4.1c-0.1,0.4-0.1,0.6,0.4,0.6c0.7,0.1,1.3-0.1,2,0c0.2,0,0.4-0.1,0.5,0.1
	c0.1,0.2-0.2,0.3-0.3,0.4c-0.7,0.6-1.4,1.2-2.1,1.7c-0.2,0.2-0.4,0.3-0.1,0.6c1.1,1.3,2.3,2.4,3.7,3.3c1.6,1,3.4,1.6,5.1,2.2
	c2.8,1.1,5,3,6.7,5.5c0.2,0.3,0.2,0.8,0.5,0.9c0.4,0.1,0.5-0.5,0.8-0.7c0,0,0.1-0.1,0.1-0.1c1.6-1.4,3.1-2.8,4.3-4.6
	c1.1-1.6,1.9-3.2,1.7-5.2c0-0.2,0-0.4,0-0.6c0.3-1.9,1.1-3.5,2.4-4.9c0.2-0.2,0.3-0.3,0.3-0.6C147.9,81.1,147.9,80.4,147.8,79.8z
	 M129.4,82.8c0.3-0.5,0.6-1.1,0.8-1.7c0.1-0.2,0.1-0.4,0-0.6c0.1,0,0.2-0.1,0.2-0.1c0.1-0.5,0.3-0.4,0.6-0.2
	c0.2,0.1,0.4,0.3,0.7,0.2c0,0,0,0,0,0c0,0.4,0.4,0.5,0.6,0.7c0.7,0.6,1.4,1.2,1.5,2.2c0.2,1.7-0.3,3.3-0.8,5
	c-0.4-1.4-0.9-2.7-1.8-3.8c0.2-0.1,0.4,0,0.5,0c0.2,0,0.4,0,0.5-0.2c0.1-0.2-0.1-0.3-0.2-0.4c-0.1-0.1-0.3-0.2-0.4-0.3
	c-0.6-0.4-1.2-0.3-1.9-0.3c-0.2,0-0.3,0.1-0.4-0.1C129.1,83.1,129.3,83,129.4,82.8z M134.7,75.9c0.2,0.1,0.4,0,0.6-0.1
	c2.8-1.1,4.3-3.2,5.3-5.9c0.1-0.2,0.1-0.5,0-0.7c0,0,0,0,0,0c0.2,0,0.2-0.2,0.3-0.3c0.1-0.3,0.1-0.6,0.2-0.9
	c0.2,1.3,0.2,2.5,0.2,3.8c0,2.4-0.9,4.5-1.9,6.6c-0.1,0.3-0.3,0.4-0.6,0.2c-1.2-0.7-2.6-1.2-3.7-2C134.7,76.4,134.6,76.2,134.7,75.9
	z M133.6,50.4c0.4-0.7,0.8-1.5,1.1-2.3c0.1-0.1,0.1-0.3,0.1-0.4c0,0,0-0.1,0.1-0.1c0.4-0.8,0.6-1.6,0.7-2.5c0.4,0.4,1,0.6,1.6,0.7
	c0.8,0.2,1,0.7,0.7,1.4c-0.1,0.2-0.2,0.4-0.4,0.6c-1.1,1.4-2.5,2.3-4,3.2c0,0-0.1,0-0.1-0.1C133.3,50.7,133.5,50.5,133.6,50.4z
	 M102.5,75.4c0,0,0-0.1,0-0.1c0.1-0.3,0-0.8,0.4-0.9c0.4-0.1,0.6,0.3,0.9,0.6c0.7,0.8,1.3,1.6,2.1,2.3c1.7,1.3,2.9,2.9,3.9,4.8
	c0.5,0.9,0.9,1.8,1.5,2.6c0.1,0.1,0.2,0.5,0.5,0.3c0,0,0,0,0,0c-0.2,0.4,0,0.8,0.2,1.1c0.6,1,1.3,2,2.2,2.8c0.2,0.2,0.5,0.4,0.5,0.8
	c0.1,0.7,0.3,1.4,0.4,2.1c0.1,0.9,0.4,1.8,0.8,2.6c0.5,0.9,0.5,1-0.2,1.7c0,0,0,0,0,0.1c0,0,0,0,0,0c-0.6-0.2-1.1-0.6-1.6-1
	c-0.1-0.1-0.2-0.1-0.3-0.1c0.1-0.1,0.1-0.3,0.1-0.5c0.1-1.5-0.5-2.9-1.1-4.3c-0.3-0.7-0.7-1.4-1-2.1c-0.6-1.2-1.2-2.4-2.1-3.5
	c-1.9-2.4-3.9-4.8-6.3-6.7C102.6,77.3,102,76.6,102.5,75.4z M70.3,21.5C70.3,21.5,70.3,21.5,70.3,21.5
	C70.3,21.5,70.3,21.5,70.3,21.5C70.3,21.5,70.3,21.5,70.3,21.5z M90.8,35.7c-0.1,0.2-0.2,0.4-0.4,0.4c-0.2,0-0.3-0.3-0.3-0.4
	c-1.1-2.2-2.2-4.3-3.8-6.2c-1.4-1.8-3-3.4-5-4.6c-3-1.7-6.3-2.9-9.7-3.7c-0.2,0-0.4-0.1-0.6,0c0,0,0,0,0,0c-0.2-0.2-0.4-0.2-0.6-0.3
	c-2-0.4-4-0.7-6-0.8c-0.6,0-1.2,0.1-1.8-0.1c-0.2,0-0.4-0.1-0.6,0.1c0-0.6,0-0.7,0.7-0.7c0.8,0,1.7,0.1,2.5,0.2
	c2.8,0.2,5.6,0.2,8.3,0.6c2.4,0.4,4.8,0.8,7.1,1.6c2.1,0.8,4,1.9,5.9,3.2c2.2,1.5,4,3.4,5.8,5.3c0.2,0.3,0.2,0.4-0.1,0.5
	c-0.5,0.1-1,0.3-1.5,0.5c-0.4,0.2-0.5,0.4-0.2,0.8c0.4,0.6,0.9,1.1,1.4,1.6c0,0,0,0,0,0C91.5,34.5,91.1,35.1,90.8,35.7z M122.5,72
	c-1.9-1.5-4-2.5-6.3-3.2c-1.3-0.4-2.6-0.8-3.9-0.9c-0.2,0-0.4-0.1-0.4-0.3c0-1.7-1.1-2.8-2.4-3.8c-0.3-0.2-0.6-0.3-0.8-0.8
	c1.2,0.2,2.2,0.6,3.2,1.1c1.1,0.6,2,1.4,2.6,2.6c0.2,0.5,0.7,0.7,1.2,0.8c1.6,0.5,3.2,0.9,4.8,0.9c0.3,0,0.6,0.1,0.8,0.3
	c1.2,1.1,2.2,2.3,2.8,3.8c0.2,0.6,0.3,1.2,0.3,2C123.9,73.5,123.3,72.7,122.5,72z M124.8,62.7c-0.3,0.1-0.4,0-0.5-0.2
	c-0.4-0.7-1-1.3-1.6-1.8c-0.3-0.3-0.6-0.4-0.9,0c-1.4,1.3-3.2,1.9-5.1,2.4c0,0-0.1,0-0.1-0.1c0.2-0.4,0.6-0.7,0.9-1
	c1-0.8,1.9-1.7,2-3.1c0-0.4,0-0.7-0.5-0.5c-0.7,0.2-1.4,0.3-2.1,0.3c-0.5,0-0.9,0.3-1.3,0.6c-0.6,0.4-1.2,0.8-2,0.9
	c0.1-0.6,0.6-0.9,0.9-1.4c0,0,0,0,0,0c-1,0.2-1.9,0.4-2.8,0.6c-0.3,0.1-0.2,0.3-0.2,0.5c0.2,0.6,0.5,1.3,0.6,1.9
	c0,0.1,0.1,0.2-0.1,0.4c-1.5-2-3-4-5.3-5.3c0,0,0,0-0.1,0c0,0,0,0,0,0c-0.1,0.6,0.2,1.1,0.1,1.5c0,0.1,0,0.3-0.2,0.4
	c-0.2,0-0.2-0.1-0.3-0.3c-1.5-2.9-4-4.8-6.7-6.5c-1.1-0.7-2.3-1.3-3.5-1.7c-0.1,0-0.2-0.1-0.3-0.1c-0.1-0.1-0.3-0.1-0.3-0.3
	c0-0.2,0.2-0.2,0.3-0.2c0.5,0,0.9,0.1,1.3,0.2c0.1,0,0.3,0.1,0.3,0c0.1-0.1,0-0.3,0-0.4c-1.4-2.5-3-4.7-5.5-6.2
	c-0.5-0.3-1.1-0.3-1.6-0.6c0.1-0.1,0.1-0.1,0.2-0.2c0.2-0.2,0.4-0.3,0.6-0.4c0.8-0.7,1.7-1.1,2.6-0.7c0.1,0,0.1,0,0.2,0
	c0.8-0.1,0.8-0.1,0.9-0.9c0.1-2.7-0.3-5.2-1.9-7.5c-0.1-0.1-0.2-0.2-0.1-0.3c0,0,0.1,0,0.2,0c2.1,0.3,4.2,0.7,6.1,1.7
	c1.7,0.9,3.3,2,4.4,3.6c0.1,0.2,0.2,0.4,0.4,0.6c-0.3,0-0.5-0.2-0.6-0.3c-1.8-1.5-4-2.2-6.2-2.7c-0.3-0.1-0.4,0.1-0.3,0.4
	c0.1,0.2,0.2,0.5,0.3,0.7c0.1,0.1,0.1,0.2,0.1,0.3c0.1,0.1,0.2,0.3,0.2,0.4c0.1,0.1,0.1,0.4,0.4,0.2c0.1-0.1,0.1-0.2,0-0.4
	c0.8,0.6,1.1,1.4,1.3,2.3c0.2,1,0.3,2,0.6,3c0.1,0.2,0.1,0.5,0.4,0.5c0.1-0.1,0.1-0.3,0.1-0.5c0-0.8-0.1-1.5-0.4-2.2
	c-0.1-0.2-0.1-0.4,0.1-0.5c0.2-0.1,0.4,0,0.5,0.2c0.9,1.1,1.6,2.4,2.6,3.4c0.2,0.2,0.3,0.4,0.6,0.3c0.2-0.1,0.2-0.4,0.2-0.6
	c-0.1-0.9,0-1.8,0-2.7c0-0.6,0.1-0.6,0.7-0.4c1.1,0.4,2.1,1,2.9,1.9c0.1,0.1,0.2,0.2,0.2,0.4c-0.6-0.3-1.2-0.5-1.8-0.7
	c-0.5-0.2-0.8,0-0.8,0.6c0,0.8,0.2,1.7,0.4,2.4c0.1,0.3,0.2,0.6,0.5,0.7c0.3-0.3,0.3-0.6,0.2-1c-0.1-0.4-0.1-0.9-0.1-1.3
	c0-0.2,0-0.3,0.2-0.4c0.1-0.1,0.3,0,0.4,0.1c0.4,0.5,1,0.7,1.4,1c2.1,1.4,3.9,3.1,5.9,4.6c0.2,0.2,0.4,0.4,0.5,0.6
	c0.5,0.5,1,0.8,1.7,0.8c-0.4-0.7-1-1.2-1.5-1.7c-1-1-1.9-2.1-3-2.9c-0.1-0.1-0.2-0.3-0.4-0.4c0.5,0,1.2,0.4,2.2,1
	c2.3,1.5,4.6,3,6.8,4.8c0.4,0.3,0.6,0.3,1.1,0.1c1.4-0.6,1.8-1.6,1.7-3c-0.1-1.3-0.1-2.7-0.4-4c0-0.1-0.1-0.2,0-0.3
	c0.3,0,0.3,0.3,0.4,0.5c1,1.8,1.6,3.8,2,5.9c0.2,1.3-0.6,2-1.3,2.8c-0.3,0.3-0.6,0.5-0.8,0.7c-0.3,0.3-0.6,0.6-0.7,0.9
	c-0.2,0.7-0.4,1.3-0.7,1.9c-0.2,0.4-0.1,0.6,0.3,0.8c1.1,0.8,1.9,1.7,2.5,2.9c0.3,0.7,0.8,1.3,1.6,1.6c0.9,0.4,1.7,0.7,2.4,1.5
	c-0.3,0.2-0.6,0-0.9-0.1C126.6,62.3,125.7,62.2,124.8,62.7z"/>
<path style="&st4;" d="M134.7,75.9c3.2-1.1,5.1-3.4,5.8-6.6c0.1-0.6,0.2-1.1,0.4-1.7c0.3,0.1,0.3,0.3,0.3,0.5
	c0.3,2.6,0.4,5.2-0.6,7.7c-0.4,1-0.8,2-1.3,3c-0.1,0.2-0.2,0.3-0.5,0.2c-1.4-0.9-3-1.4-4.3-2.4C134.2,76.2,134.4,76.1,134.7,75.9z"
	/>
<path style="&st35;" d="M88.4,51.4c-0.5,2.1-0.6,4-0.7,6.1c-0.4-0.3-0.7-0.6-1-0.8c-1.4-1-3-1.4-4.6-1.9c-0.7-0.2-1.4-0.4-2-0.6
	c-0.2-0.1-0.4-0.1-0.4-0.4c0.1-0.2,0.3-0.3,0.5-0.3c1.9-0.3,3.8-0.5,5.6-0.9C86.6,52.3,87.4,51.9,88.4,51.4z"/>
<path style="&st36;" d="M130.2,80.5c0.2-0.9,0.2-0.9,1-0.3c0.1,0.1,0.3,0.2,0.5,0.2c0.4,0.3,0.8,0.7,1.2,1c0.9,0.7,1.2,1.7,1.1,2.8
	c-0.1,1.5-0.5,2.9-1,4.3c0,0.1-0.1,0.1-0.1,0.3c-0.2-0.8-0.4-1.4-0.6-2c-0.3-0.8-0.7-1.5-1.2-2.1c-0.1-0.1-0.3-0.3-0.2-0.4
	c0.1-0.2,0.3,0,0.4,0c0.3,0.1,0.6,0.4,0.8,0c0.1-0.3-0.3-0.4-0.6-0.5c-0.7-0.5-1.5-0.4-2.2-0.4c-0.1,0-0.3,0.1-0.4-0.1
	c-0.1-0.2,0.1-0.3,0.2-0.4C129.7,82.3,130,81.4,130.2,80.5z"/>
<path style="&st37;" d="M89.9,48.3c-0.3,0-0.4-0.3-0.6-0.5c-0.6-1-1.2-2-2.1-2.8c-0.3-0.2-0.5-0.4-0.8-0.7c-0.2-0.2-0.4-0.3-0.3-0.6
	c0.2-0.2,0.4-0.2,0.7-0.1c0.7,0.2,1.5,0.3,2.1,0.7c0.9,0.5,1.9,0.9,2.8,1.4c0.6,0.4,1,0.9,1.5,1.3c0.2,0.2,0.1,0.4-0.1,0.6
	c-0.4,0.2-0.8,0.3-1.2,0.3C91.2,48.1,90.6,48.2,89.9,48.3z"/>
<path style="&st38;" d="M130.5,73.5c-0.7,0-1.2-0.2-1.7-0.3c-0.8-0.3-1.5-0.6-2.3-0.8c-0.3-0.1-0.7-0.3-0.7-0.7
	c0-0.5,0.3-0.6,0.7-0.8c1.2-0.5,2.4-0.1,3.6,0.2c0.2,0,0.4,0.2,0.5,0.4c0.2,0.4,0.3,0.8,0.4,1.3C131.3,73.4,131.1,73.5,130.5,73.5z"
	/>
<path style="&st39;" d="M107.6,67c0,0-0.2-0.1-0.4-0.2c-0.8-1-1.8-1.8-2.7-2.7c-0.2-0.1-0.3-0.3-0.4-0.5c-0.2-0.3-0.1-0.5,0.1-0.7
	c0.1-0.2,0.3-0.3,0.5-0.2c1.6,0.8,3.1,1.6,4.5,2.7c0.4,0.3,0.4,0.6-0.1,0.8c-0.3,0.2-0.6,0.4-0.8,0.6C108.1,66.9,107.9,67,107.6,67z
	"/>
<path style="&st40;" d="M109.1,39.5c3.4,1.4,6.9,2.7,10.1,4.8c-0.1-1.5-0.6-2.7-1-4c-0.8-2.5-2-4.9-3.2-7.3c-0.9-1.7-2-3.2-3.1-4.7
	c-0.3-0.4-0.5-0.7-0.8-1.1c-0.2-0.2-0.1-0.5,0.1-0.6c0.2-0.2,0.4-0.2,0.6,0c0,0,0.1,0.1,0.1,0.1c1.6,1.7,3.5,3.2,5.1,4.9
	c1.5,1.6,2.8,3.3,3.9,5.2c0.7,1.1,1.3,2.2,1.7,3.5c-0.9-0.9-1.8-1.7-3.1-2.2c0.2,1,0.7,1.8,1,2.7c0.7,2,1.2,4.1,1.1,6.3
	c0,0.4,0,0.9-0.4,1c-0.6,0.2-1.1-0.2-1.5-0.5c-1.2-1-2.4-2-3.7-2.9c-1.3-1-2.7-2-4.1-3C111,40.9,110.1,40.2,109.1,39.5z"/>
<path style="&st41;" d="M116.4,49.5c0.3,0.2,0.5,0.5,0.7,0.7c-0.1,0.5,0,0.9,0.4,1.2c0.2,0.2,0.3,0.5,0.4,0.9c0.1,0.3,0,0.5-0.2,0.7
	c-0.2,0.1-0.5,0-0.6-0.1c-0.6-0.5-1.2-1-1.8-1.6c-1.5-1.4-3.2-2.5-4.9-3.6c-1.1-0.7-2.2-1.3-3.2-2.1c-0.3-0.2-0.7-0.2-0.9-0.4
	c0,0,0-0.1,0-0.1c0.1-0.7,0-1.4-0.1-2.1c-0.1-0.3,0-0.6,0.3-0.8c0.3-0.2,0.5,0.1,0.7,0.3c0.2,0.3,0.5,0.4,0.8,0.5
	c1.2,0.7,2.3,1.6,3.4,2.5c1,0.8,2,1.7,3,2.4c0.2,0.1,0.4,0.3,0.5,0.5C115.1,49.1,115.8,49.2,116.4,49.5z"/>
<path style="&st42;" d="M100.7,39.7c0.9,1.1,1.6,2.4,2.6,3.4c0.1,0.1,0.2,0.4,0.5,0.3c0.2-0.1,0.1-0.3,0.1-0.5c0-1,0-2,0-3
	c0-0.3,0.1-0.5,0.5-0.4c1.4,0.4,2.6,1.2,3.6,2.3c0.1,0.1,0.3,0.3,0.2,0.5c-0.1,0.2-0.3,0-0.5-0.1c-0.6-0.2-1.1-0.5-1.7-0.7
	c-0.4-0.2-0.7-0.1-0.6,0.4c0.2,1.1,0.2,2.2,0.9,3.2c0,0,0,0,0,0c0.1,0.1,0.3,0.3,0.1,0.5c-0.1,0.2-0.3,0.2-0.5,0.1
	c-0.7-0.1-1.4-0.2-2.2-0.2c-0.8,0-1.6,0.1-2.5,0.3c-0.2,0-0.4,0.1-0.5-0.1c-0.1-0.2,0.1-0.4,0.2-0.5c0.1-0.1,0.1-0.3,0.3-0.4
	c0.8-0.5,0.5-1.2,0.3-1.8c-0.3-0.8-0.7-1.6-0.8-2.5C100.5,40.2,100.3,39.8,100.7,39.7z"/>
<path style="&st43;" d="M98.4,22.2c0.3,0.1,0.4,0.2,0.5,0.4c2.1,2.5,3.5,5.5,4.9,8.4c0.1,0.2,0.4,0.6,0.1,0.7
	c-0.2,0.2-0.5-0.2-0.7-0.4c-1.2-1.5-2.5-2.9-3.7-4.4c-0.7-0.9-0.9-2.1-1.3-3.2c-0.1-0.3-0.2-0.5-0.3-0.8
	C97.9,22.6,98.1,22.4,98.4,22.2z"/>
<path style="&st44;" d="M135.4,44.9c0.7,0.3,1.3,0.6,2.1,0.8c0.7,0.2,0.9,0.9,0.5,1.6c-0.5,0.9-1.3,1.6-2.1,2.3
	c-0.6,0.5-1.4,0.9-2,1.4c-0.2,0.1-0.5,0.4-0.7,0.2c-0.2-0.2,0.1-0.5,0.2-0.6c0.6-0.9,0.9-1.8,1.3-2.7c0-0.1,0-0.2,0-0.3
	C135.1,46.7,135.3,45.8,135.4,44.9z"/>
<path style="&st13;" d="M97.9,37.5c0-0.2,0-0.4-0.1-0.6c0.6,0.1,0.8,0.6,1.1,1c0.4,0.7,0.5,1.5,0.7,2.2c0.2,0.9,0.3,1.9,0.7,2.7
	c0.2,0.2,0.3,0.4,0.4,0.7c0.2,0.4,0.1,0.7-0.3,1c-0.4,0.3-0.8,0.6-1.2,0.9c-0.3,0.2-0.6,0-0.7-0.3c-0.6-0.9-0.6-1.8-0.4-2.8
	c0.2-1.4,0.1-2.8-0.1-4.2C97.9,37.9,97.8,37.7,97.9,37.5z"/>
<path style="&st8;" d="M94.1,41.3c-1.2,0.2-2.3,0.6-3.4,1.1c0-0.4,0.3-0.5,0.6-0.7c0.6-0.4,1.1-0.9,1.9-0.8
	C93.5,41,93.8,41,94.1,41.3z"/>
<path style="&st13;" d="M92.5,30.5c-0.2-0.2-0.4-0.4-0.6-0.6c-2.8-3.3-6.2-5.8-10.2-7.6c-2.4-1.1-4.9-1.5-7.4-2
	c-3-0.5-6.1-0.6-9.2-0.7c-1-0.2-2.1-0.2-3.1-0.2c-0.2,0-0.3,0.1-0.3,0.3c0,0.2-0.1,0.5,0.2,0.6c0.2,0,0.4,0,0.6,0
	c0.2,0,0.4,0.1,0.6,0c0,0,0,0,0,0c0.4,0.1,0.7,0,1.1,0.1c2.2,0.1,4.5,0.4,6.6,1c0.8,0.1,1.6,0.4,2.4,0.6c2.9,0.8,5.8,1.9,8.4,3.6
	c2,1.3,3.5,3.1,4.9,5c1.3,1.7,2.3,3.6,3.3,5.6c0.1,0.2,0.1,0.4,0.3,0.5c0.2,0,0.3-0.3,0.4-0.4c0.4-0.6,0.7-1.2,1.1-1.8
	c0.1-0.1,0.2-0.3,0.1-0.4c-0.5-0.5-0.9-1.1-1.4-1.6c-0.3-0.3-0.2-0.5,0.1-0.6c0.6-0.2,1.2-0.4,1.8-0.5C92.8,31,92.8,30.8,92.5,30.5z
	"/>
<path style="&st45;" d="M93.6,108.9c0-1.2,0-2.4,0-3.6c0-2.1,0-4.1,0-6.2c0-0.6,0-0.7,0.6-0.3c0.9,0.5,1.6,1.3,2.3,1.9
	c2.1,1.8,4.3,3.4,6.9,4.5c1.9,0.8,3.8,1.5,5.8,2.1c1.6,0.5,3.3,0.8,5,0.9c0.7,0.1,1.3,0.3,2,0.2c0.4,0,0.7,0,1.1-0.1
	c0.9-0.4,1.5,0.3,2.3,0.5c0.5,0.1,0.9,0.4,1.4,0.6c-0.3,0.8-1.1,0.5-1.7,0.6c-2.4,0.1-4.7,0-7.1-0.3c-2.1-0.3-4.3-0.6-6.4-1.2
	c-1.4-0.4-2.8-0.9-4.1-1.5c-1.3-0.5-2.6-1.2-3.9-1.9c-0.5-0.3-1-0.6-1.6-0.9c-0.6-0.3-0.6-0.3-0.8,0.3c-0.4,1.4-0.9,2.9-1.6,4.2
	C93.8,108.8,93.8,109,93.6,108.9z"/>
<path style="&st22;" d="M149.4,183.8c-1.2-1.7-1.6-3.6-1.6-5.6c-0.1-9.7-0.1-19.4-0.2-29.1c0-0.5,0-0.9,0.1-1.4
	c0.2-1.1,0.6-2,1.3-2.9c0.1-0.1,0.2-0.2,0.1-0.4c-0.1-0.2-0.2-0.1-0.4-0.1c-0.5,0-1,0-1.5-0.1c0,0.2,0.4,0,0.2,0.3
	c-0.1,0.1-0.1,0.1-0.2,0.2c-0.7,1-0.7,2.2-0.8,3.4c0,2.4,0.1,4.7,0.1,7.1c0,1,0,2.1,0,3.1c0,0,0,0,0,0c0,1.6,0.1,3.2,0.1,4.9
	c0,4.9,0,9.7,0,14.6c0,1,0.2,2,0.5,3c0,0.1,0.2,0.3,0,0.4c-0.1,0.1-0.3,0-0.4-0.1c-1-0.3-2-0.6-2.9-0.9c-0.8-0.2-1.5-0.4-1.3-1.4
	c0,0,0-0.1-0.1-0.1c0,0,0,0,0,0v0c-0.1-1-0.3-1.9-0.6-2.8c-1.4-4.9-3-9.8-4.6-14.7c-0.2-0.7-0.5-1.5-0.7-2.2
	c-0.4-1.6-0.9-3.1-1.5-4.6c0,0.4-0.1,0.8,0,1.2c0.2,2.9,0.2,5.8,0.2,8.8c0,2.8,0.1,5.7,0.2,8.5c0,0.2,0,0.4,0,0.7c0,1.3,0,2.5,0,3.8
	c0,0.3,0,0.5-0.4,0.4c-1.1-0.2-2.2-0.3-3.2-0.7c0-0.2,0-0.3,0-0.5c0,0,0,0,0,0c0,0,0,0,0,0c0-0.7,0.1-1.4,0.1-2.1
	c0-5.2-0.1-10.4-0.1-15.7c0-4.1-0.1-8.2-0.1-12.3c0-1.1-0.2-2.1-1-3c-0.1-0.1-0.1-0.1,0-0.2c-0.7-0.2-1.3-0.2-2-0.2
	c-0.1,0-0.4-0.1-0.4,0.1c0,0.2,0.1,0.3,0.3,0.4c0.3,0.2,0.7,0.5,0.9,0.8c0.7,0.9,1.1,1.9,1.1,3.1c0,2.1,0.1,4.3,0.2,6.4
	c0,3.6,0.1,7.3,0.1,10.9c0,0.2,0,0.4,0,0.6c0,3.5,0,7,0,10.6c0,1.1-0.2,2.1-1.4,2.5c-0.1,0-0.2,0.1-0.2,0.2c0,0.1,0.2,0.1,0.2,0.1
	c2.7,0.4,5.4,0.9,7.9,1.8c0.2,0.1,0.4,0.2,0.5,0c0.1-0.2-0.1-0.3-0.2-0.4c-1-0.9-1.4-1.9-1.4-3.2c0-1-0.1-2.1-0.1-3.1l0,0
	c-0.1-3.1-0.1-6.2-0.2-9.2c0-0.7,0-1.4,0-2.1c0-0.2,0-0.4,0.2-0.2c0.2,0.7,0.5,1.3,0.7,2c0.7,2.3,1.4,4.6,2.1,6.9
	c0.7,2.2,1.3,4.4,2,6.6c0.3,1.2,0.7,2.4-0.3,3.4c0,0,0,0.1,0,0.1c2.8,0.7,5.6,1.4,8.2,2.6c0.1,0,0.2,0.1,0.3,0
	C149.6,184,149.5,183.9,149.4,183.8z M136.2,163C136.2,163,136.2,163,136.2,163C136.1,163.1,136.1,163,136.2,163
	C136.1,163.1,136.1,163,136.2,163z M136,169.5C136,169.5,136,169.5,136,169.5C136,169.5,136,169.5,136,169.5
	C136,169.5,136,169.5,136,169.5z"/>
<path style="&st22;" d="M143,168.4c0-0.1,0-0.3,0-0.4C142.9,168.2,143,168.3,143,168.4c0-1.2,0.1-2.4-0.1-3.6c0,0,0,0,0,0
	c0-0.1,0-0.1,0-0.2c0.1-0.2,0.1-0.4,0.1-0.6c0.1-4.8,0-9.6,0-14.5c0-1.8,0-3.7-1-5.4c0.2,0,0.4-0.1,0.6-0.1c-0.7-0.2-1.5,0-2.2-0.2
	c-0.1,0-0.3-0.1-0.4,0.1c-0.1,0.2,0.1,0.2,0.2,0.3c0.9,0.9,1.5,1.9,1.6,3.1c0.1,0.8,0.2,1.7,0.2,2.5c0,3.3,0.1,6.6,0.1,10
	c-0.1,1,0.1,2.1,0,3.1c-0.4-0.2-0.3-0.6-0.6-0.9c-0.3-1.2-0.6-2.3-0.9-3.5c-1.4-4.9-2.9-9.7-4.3-14.6c0-0.1,0-0.3-0.2-0.3
	c-0.3,0.3-0.2,0.7-0.2,1.1c0.3,1.4,0.8,2.8,1.2,4.2c0.4,1.5,0.8,2.9,1.2,4.4c0.5,1.8,1,3.6,1.5,5.4c0.4,1.5,0.8,2.9,1.4,4.3
	c0.6,2.5,1.3,5,1.9,7.4c0,0,0.1,0,0.1,0C143.1,169.8,143,169.1,143,168.4z"/>
<path style="&st2;" d="M53,152.3c0-0.3,0-0.5,0-0.8c0-1.4,0-2.8-0.4-4.2c0-0.1-0.1-0.2-0.2-0.3c0.1,0,0.2,0.1,0.3,0.1
	c0.1,0,0.2-0.1,0.1-0.2c-0.6-1-1.4-1.7-2.6-1.9c-0.9-0.2-1.9-0.2-2.8-0.1c-1.8,0.1-3.5,0.3-5.3,0.5c-1,0.1-2.1,0.1-3.1,0.3
	c-0.1,0.1,0,0.2,0,0.4c0.4,0.7,0.5,1.4,0.7,2.1c0.1,0.2,0.1,0.4,0,0.6c0,1.6,0,3.2-0.1,4.8c-0.1,1.4,0,2.8,0,4.1
	c0,0.3,0,0.6-0.1,0.9c0,0.3,0,0.5,0,0.8c0,4.1,0,8.3,0,12.4c0,0.3,0,0.5,0,0.8c0.1,0.2,0.1,0.4,0.1,0.6c0,1.9,0,3.8,0,5.7
	c0,2.5,0,5.1,0,7.6c0.3,1.1,0.3,1.1,1.3,0.6c1.9-0.9,3.9-1.7,5.9-2.6c1.4-0.6,2.8-1.3,4-2.4c0.8-0.9,1.3-1.9,1.5-3.2
	c0.3-1.5,0.3-2.9,0.3-4.4c0-2.7,0-5.3,0-8c0-0.3,0-0.6,0.1-0.9c0.1-3.6,0-7.3,0.1-10.9C53.1,153.9,53,153.1,53,152.3z M48.1,156.2
	c0,0.3,0,0.6,0,0.8c0,2.1,0,4.2,0,6.3c0.1,5.2-0.2,10.4-0.1,15.7c0,0.7,0,1.4-0.3,2c-0.3,0.5-0.9,0.8-1.4,1
	c-0.6,0.2-1.2,0.5-1.8,0.7c-0.2,0-0.2-0.1-0.2-0.2c0.1-0.8,0.1-1.5,0.1-2.3c0-6.6-0.1-13.2,0-19.8c0-3,0-6,0.1-9.1
	c0-0.2,0-0.4,0-0.6c0-0.2,0.1-0.3,0.1-0.5c0-0.4,0.3-0.6,0.7-0.7c0.8-0.1,1.6-0.4,2.3,0.1c0.3,0.3,0.4,0.7,0.4,1.2
	C48.1,152.6,48.3,154.4,48.1,156.2z"/>
<path style="&st46;" d="M43.8,163.9c0,0.6,0,1.1,0,1.7c0,4,0,8.1,0,12.1c0,0.3,0.1,0.6-0.1,0.9c0-0.1,0-0.3,0-0.4
	c0-4.5,0-9.1,0-13.6C43.7,164.3,43.7,164.1,43.8,163.9z"/>
<path style="&st22;" d="M161.1,172.9c0-1.8-0.4-3.7-1.2-5.3c-1.2-2.4-3.2-4-5.1-5.8c-1.4-1.3-2.4-2.7-2.7-4.6c0-0.5,0-1-0.1-1.5
	c0-2.1-0.1-4.1,0-6.2c0-0.9,0.4-1.8,0.2-2.7c-0.5,0.7-1,1.4-1.1,2.3c-0.3,2.8-0.1,5.6-0.1,8.4c0,1.3,0.4,2.5,1.1,3.6
	c0.9,1.4,2.1,2.5,3.3,3.6c1.2,1.1,2.3,2.3,3.2,3.7c1.1,1.9,1.4,4.1,1.4,6.2c0.1,2.7,0,5.4,0,8.1c0.4-0.2,0.7-0.5,0.8-1
	c0.2-0.6,0.3-1.2,0.3-1.8C161.2,177.6,161.2,175.2,161.1,172.9z"/>
<path style="&st22;" d="M62.9,159c-0.6,0.2-0.7,0.2-0.7-0.4c0-1.1,0-2.3,0.1-3.4c0.1-2.8-0.1-5.6-0.1-8.5c0-0.5,0.1-0.7,0.6-0.7
	c0.6,0,1.2-0.1,1.8-0.1c1.5,0,2.5,0.8,2.4,2.4c-0.1,2.8,0,5.6-0.2,8.4c0,0.5-0.2,1-0.8,1.2c-0.3-0.2-0.3-0.5-0.3-0.9
	c-0.1-1.8,0.1-3.7,0.1-5.5c0-0.8,0-1.5,0-2.3c-0.1-0.8-0.2-0.9-1-1c-1.3-0.1-1.3-0.1-1.3,1.2c0,2.2,0,4.5,0,6.7
	c0,0.8-0.1,1.5-0.1,2.2C63.3,158.7,63.2,158.9,62.9,159z"/>
<path d="M62.9,159c0.3-0.2,0.3-0.5,0.3-0.8c0.1-3.2,0.1-6.4,0.1-9.5c0-0.5,0.2-0.7,0.7-0.7c2.1,0,2,0,2,2c0,2.3,0,4.6-0.1,6.9
	c0,0.3,0,0.7,0.1,1c-0.5,0.7-1.3,0.8-2.1,1C63.6,158.9,63.3,159,62.9,159z"/>
<path style="&st2;" d="M90.8,173.1c-0.1-0.6-0.1-1.3-0.1-2c0-3,0-6,0.1-9c0.1-5.3,0-10.5,0-15.8c0-0.9,0.1-1.7,0.2-2.6
	c-0.1-0.3,0.4-0.6,0-0.9c-3,0-5.9-0.1-8.9,0.2c-1.4,0.1-2.7,0.6-3.7,1.5c-0.2,0.2-0.5,0.3-0.5,0.7c0,0.4-0.1,0.7-0.2,1
	c-0.4,2.5-0.4,5-0.4,7.5c0,0.4,0,0.7-0.1,1.1c-0.1,2.1-0.1,4.2-0.1,6.3c-0.1,3.4,0,6.8,0,10.2c0,0.6,0,1.3,0,1.9c0,0.2,0,0.5,0,0.7
	c0,0.7-0.1,1.4,0.1,2c0.3,0.2,0.6,0.1,0.8,0.1c0.7-0.1,1.5-0.3,2.2-0.4c1.1-0.1,1.2-0.2,1.2-1.4c0-2.2,0-4.4,0-6.5
	c0-0.5,0.2-0.8,0.6-1c1.2-0.6,2.4-1,3.6-1.6c0.6-0.3,0.7-0.2,0.7,0.4c0,2.2,0,4.4,0,6.5c0,0.7-0.2,1.4-0.1,2.1
	c0,0.6,0.2,0.7,0.8,0.7c1-0.1,2.1-0.2,3.1-0.3c0.1,0,0.3-0.1,0.4-0.1c0.6-0.1,0.6-0.1,0.4-0.7C90.8,173.7,90.8,173.4,90.8,173.1z
	 M85.8,154.3c-0.1,2.5-0.1,5-0.1,7.5c0,0.3,0,0.5,0.1,0.8c0,0.2,0,0.3-0.1,0.4c-1.2,0.5-2.4,1-3.6,1.5c-0.2,0.1-0.3,0.1-0.2-0.1
	c0-0.2,0.2-0.3,0.2-0.5c0.1-0.2,0.1-0.3,0.1-0.5c0-4.1,0.2-8.2,0.1-12.3c0-1.1,0-2.3,0.3-3.4c0.2-0.5,0.6-0.8,1.2-0.8
	c0.1,0,0.2,0,0.4,0c1.5-0.1,1.7,0.1,1.7,1.6C85.8,150.3,85.9,152.3,85.8,154.3z"/>
<path style="&st22;" d="M91.9,174.8c-0.1-0.2-0.2-0.3-0.3-0.5c0-0.3-0.1-0.6-0.1-1c0-1.8,0-3.5,0-5.3c0-6.8,0.1-13.6,0.1-20.5
	c0-0.7,0-1.3,0.1-2c0.1-0.9,0.5-1.8,1.3-2.3c0.2-0.1,0.4-0.2,0.3-0.4c-0.1-0.3-0.3-0.1-0.5-0.1c-0.6,0-1.3,0.1-1.9,0.1
	c0.3,0.3-0.2,0.5-0.1,0.7c-0.2,0.6-0.2,1.2-0.2,1.8c0,8.6,0,17.2-0.1,25.7c0,0.7,0,1.5,0.1,2.2c0.1,0.6,0.2,0.8,0.3,1.2
	c-0.3,0.1-2.9,0.3-4,0.5c-0.5,0.1-0.6,0-0.6-0.5c0.1-1.1,0.1-2.1,0.1-3.2c0-1.9,0-3.8,0-5.8c0-0.5-0.1-0.6-0.6-0.4
	c-1.4,0.6-2.8,1.3-4.2,1.9c-0.4,0.2-0.5,0.3-0.5,0.7c0,2.5,0,5,0,7.5c0,0.3,0,0.5-0.4,0.5c-1.2,0.2-2.5,0.4-3.7,0.5
	c-0.1-0.9-0.1-1.8,0-2.7c0-0.6,0-1.3,0-1.9h0c0.1-5.5,0.1-11.1,0.2-16.6l0,0l0,0c0.1-0.2,0.1-0.5,0.1-0.7c0-2.4,0-4.8,0.4-7.2
	c0.1-0.8,0.1-1.6,0.6-2.3c-0.8,0.5-1.1,1.3-1.4,2.1c-0.6,2.1-0.6,4.2-0.6,6.3c-0.1,4.3-0.1,8.6-0.1,12.9c0,0.9,0,1.9,0,2.8
	c0,0.2-0.1,0.4-0.1,0.6c0,2-0.1,4-0.1,6.1c0,1.1-0.3,1.9-1.1,2.6c-0.2,0.2-0.4,0.4-0.5,0.7c3-0.6,6-1.2,9.1-1.4
	c-0.1-0.3-0.3-0.4-0.5-0.5c-0.5-0.2-0.7-0.6-0.7-1.1c0-2.3,0-4.5,0-6.8c0-0.2,0.1-0.4,0.3-0.5c0.9-0.3,1.7-0.6,2.5-1
	c0.3-0.1,0.4,0,0.4,0.3c0,1.7-0.1,3.4-0.1,5.2c0,1.3-0.2,2.6-1.3,3.5c0,0-0.1,0.1-0.1,0.1c-0.2,0.3-0.1,0.4,0.3,0.4
	c0.5,0,1-0.1,1.5-0.1c2.4-0.2,4.7-0.5,7.1-0.5c0.1,0,0.3,0,0.4-0.2C92.9,175.8,92.3,175.4,91.9,174.8z"/>
<path style="&st47;" d="M77.2,176.1c-0.2-0.9-0.2-1.8,0-2.7C77.2,174.3,77.2,175.2,77.2,176.1z"/>
<path style="&st2;" d="M126.3,167.6c-0.1-0.3-0.1-0.6-0.1-0.9c0-3.1,0-6.1-0.1-9.2c-0.1-2.6-0.2-5.3-0.2-7.9c0-1,0-2-0.2-3
	c-0.1-0.5,0-1.1-0.3-1.6c-0.4-0.5-0.9-0.9-1.5-1.3c-2.2-1.2-4.5-1.5-6.9-1.1c-1.6,0.2-3,0.7-4.1,2c-0.3,1-0.4,2-0.4,3
	c0,4.4,0,8.7,0,13.1c0,3.5,0,6.9,0.3,10.4c0.1,1.4,0.8,2.5,2,3.2c0.9,0.5,1.9,0.9,2.9,1.2c2,0.5,3.9,0.8,6,0.3
	c1-0.2,1.8-0.9,2.1-1.9c0.2-0.5,0.3-1,0.3-1.6c0-0.7-0.1-1.3,0.1-2C126.3,169.4,126.3,168.5,126.3,167.6z M121.1,173
	c-0.8,0.9-2.3,0.8-3.1-0.2c-0.3-0.6-0.3-1.3-0.3-2c-0.2-7.3-0.1-14.5-0.1-21.8c0-0.5,0.1-1,0.2-1.5c0.1-0.8,0.6-1.2,1.4-1.2
	c0.7-0.1,1.3,0.3,1.6,0.9c0.2,0.6,0.3,1.2,0.3,1.8c0,2.9,0.1,5.8,0.2,8.7c0.1,4.2,0.1,8.4,0.1,12.6
	C121.3,171.3,121.2,172.2,121.1,173z"/>
<path style="&st48;" d="M121.1,173c-0.1-0.6,0-1.3,0-1.9c0-7.4,0-14.9-0.2-22.3c0-0.6-0.1-1.1-0.3-1.7c-0.3-0.6-0.7-0.7-1.6-0.6
	c-0.6,0.1-0.9,0.4-1,1.1c0,0.4-0.1,0.8-0.1,1.2c-0.1,7.4-0.1,14.8,0.1,22.1c0,0.6,0.1,1.2,0.1,1.8c-1.1-0.6-1-1.7-1-2.7
	c-0.1-2.4-0.1-4.8,0-7.2c0-3.3-0.1-6.7-0.2-10c0-1.9-0.1-3.9-0.1-5.8c0-0.9,0.3-1.8,1.2-2.3c1.7-0.9,3.5,0,3.9,2
	c0.1,0.7,0.1,1.5,0.1,2.2c0,3.7,0,7.4,0,11c0.1,3.3,0.1,6.7,0.1,10c0,0.6,0,1.1-0.1,1.7C122,172.4,121.7,172.8,121.1,173z"/>
<path style="&st49;" d="M126.8,164.5c0-0.1,0-0.1,0-0.2c0-5.2,0-10.3,0-15.5c0-0.9-0.2-1.8-0.5-2.6c-0.2-0.5-0.4-0.9-0.8-1.2
	c0.1,0.3-0.2,0.5-0.1,0.8c0.3,0.7,0.3,1.5,0.3,2.2c0,3.7,0.2,7.4,0.2,11.1c0.1,2.6,0,5.1,0,7.7c0,0.2-0.1,0.5,0.1,0.7
	c0,0.9,0,1.9,0,2.8c-0.2,0.7-0.1,1.4-0.1,2c0,0,0,0,0,0c0,0.2-0.1,0.5-0.1,0.7c-0.3,1.5-1.1,2.4-2.5,2.6c-3,0.4-5.8-0.1-8.5-1.6
	c-1.1-0.6-1.7-1.6-1.9-2.9c0,0,0,0,0,0c-0.1-2.3-0.2-4.5-0.2-6.8c0-5.1,0-10.3,0-15.4c0-1.1,0-2.3,0.2-3.4c0.1-0.3,0.1-0.6,0-0.9
	c-0.5,0.4-0.8,1-1,1.7c-0.3,1-0.4,2.1-0.4,3.1c0,5.7,0.1,11.4,0.1,17.2c0,1.6,0,3.1,0,4.7c0,2,0.8,3.6,2.6,4.7
	c1.7,1,3.5,1.6,5.4,1.8c1.6,0.2,3.1,0.3,4.6-0.4c0.7-0.2,1.2-0.6,1.6-1.2c0.6-0.9,0.9-1.9,0.9-2.9
	C127.1,170.3,126.9,167.4,126.8,164.5z M126.4,173.9C126.4,173.9,126.4,173.9,126.4,173.9C126.4,173.9,126.4,173.9,126.4,173.9
	C126.4,173.9,126.4,173.9,126.4,173.9z M126.5,173.1C126.5,173.1,126.5,173.1,126.5,173.1C126.5,173.2,126.5,173.2,126.5,173.1
	C126.5,173.2,126.5,173.2,126.5,173.1z"/>
<path style="&st50;" d="M97.5,85.3c-1.4-1.8-2.1-3.8-2.2-6.1c0.4,0,0.7,0.3,0.9,0.5c3.9,2.6,7.2,5.7,9.7,9.6
	c0.1,0.1,0.2,0.2,0.1,0.4c-0.1,0.2-0.2,0.1-0.4,0.1c-0.4,0-0.8,0-1.2,0c-0.7,0.1-1.1-0.3-1.5-1c-0.8-1.3-2-2.4-3.3-3.1
	C99,85.2,98.2,85.3,97.5,85.3z"/>
<path style="&st51;" d="M97.5,85.3c0.8-0.4,1.6-0.1,2.3,0.2c1.3,0.7,2.4,1.7,3.3,2.9c0,0,0.1,0.1,0.1,0.2c0.2,0.7,0.6,1.1,1.4,1.1
	c-0.9,0-1.8-0.1-2.7-0.1c-1.1,0-2.2,0-3.2,0.1c-0.8,0-1.4-0.5-1.9-1c-0.1-0.1-0.2-0.2-0.1-0.2c0.1-0.1,0.2-0.1,0.3-0.1
	c0.9,0.1,1.7-0.2,2.5-0.3c0.4,0,0.4-0.2,0.1-0.5C98.8,86.8,98.1,86.1,97.5,85.3z"/>
<path style="&st2;" d="M127.4,29.4c-0.7-1.5-1.6-2.9-2.7-4.1c-0.1-0.1-0.2-0.2-0.1-0.4c0.1-0.3,0.3-0.5,0.4-0.8c0.6-1,1.2-2.1,1.9-3
	c0.3-0.6,0.9-1,1.4-1.4c1-0.8,2.1-1.7,2.9-2.7c0.3-0.4,0.5-1,1-1.3c0.1,0,0.1-0.1,0.1-0.2c0.2-0.1,0.2-0.4,0.4-0.5
	c0,0.9-0.2,1.7-0.6,2.5c-0.8,1.5-1.8,2.7-2.8,4c-1.6,2.2-1.9,4.7-1.7,7.3C127.7,29.2,127.7,29.2,127.4,29.4z"/>
<path style="&st8;" d="M145,108.9c-2.1,0.3-4.1,0.8-6.1,1.3c-4.9,1.2-9.5,3.1-13.8,5.7c-3.1,2-6,4.3-8.5,7.1
	c-0.2,0.2-0.3,0.5-0.8,0.5c2.1-6.1,5.6-11,10.5-15.1c0,0-0.1-0.1-0.1-0.1c-1.7,0-3.4,0-5,0v0c-0.1,0-0.3,0-0.4,0
	c-0.5-0.1-1.1,0-1.6-0.1c-4.3-0.5-8.5-1.3-12.6-3c-2.6-1.1-5.2-2.2-7.5-3.8c-2.2-1.5-4-3.3-5.5-5.5c-0.6-0.9-1.2-1.9-1.8-2.9
	c0.1,1.2,0.3,2.3,0.4,3.5c0.3,3.2,0.4,6.3,0.1,9.5c-0.1,1.1-0.3,2.1-0.4,3.2c0,0-0.1,0.1-0.1,0.1c-0.8,3.6-2,7-3.5,10.3
	c-0.3,0.6-0.6,1.3-0.9,1.9c3.1-2.4,5.1-5.5,6-9.5c0.1,0.2,0.2,0.2,0.2,0.3c0.3,0.5,0.5,1,0.8,1.4c2.7,4.2,4,8.8,3.9,13.8
	c-0.1,2-0.2,4-0.5,6c-0.1,0.5,0.1,0.7,0.6,0.7c0.7,0,1.4,0,2.1-0.1c0.3,0,0.4-0.2,0.5-0.5c0.5-2,0.7-3.9,0.7-5.9
	c0-0.3-0.2-0.6,0-0.9c0.1,0,0.1,0,0.2,0.1c2.1,2,3.8,4.3,4.9,7c0.1,0.3,0.2,0.5,0.5,0.4c1-0.2,2.1-0.1,3.1-0.1
	c2.2,0,4.3,0.2,6.5,0.1c-0.1-0.3-0.4-0.2-0.6-0.2c-0.2,0-0.4-0.1-0.2-0.3c0.3-0.6,0.5-1.3,0.8-1.9c2.1-4.6,5.3-8.3,9.2-11.6
	c1.9-1.6,3.9-3,6-4.3c2.7-1.6,5.6-2.9,8.6-4c0,0,0,0,0.1,0c0.4,0.3,0.5,0.5,0.1,0.9c-0.1,0.1-0.2,0.2-0.3,0.3c-1,1-2.2,1.8-3.2,2.8
	c-1.9,1.8-3.4,4-5,6l0,0c-0.8,0.3-1.1,0.1-1.1-0.7c0-0.2,0-0.4,0-0.6l0,0c0.4-0.5,0.5-1,0.7-1.5c0.4-1,1.2-1.7,1.7-2.7
	c0,0-0.1-0.1-0.1-0.1c-0.9,0.7-1.8,1.5-2.7,2.2v0c0,0,0,0,0,0c-0.1,0.1-0.3,0.1-0.4,0.2c-2.3,1.1-3.9,3-5.6,4.8
	c-1.6,1.8-2.9,3.9-4.2,5.9c-0.8,1.4-1.6,2.9-2.1,4.4c-0.1,0.4-0.3,0.4-0.6,0.4c1.1,0.2,1.5,0.1,1.8-0.7c1.6-3.4,3.4-6.5,5.8-9.4
	c1.2-1.4,2.5-2.6,3.8-3.9c0.6-0.3,0.9-0.9,1.5-1.3c0.1,0.7-0.4,1.3-0.5,2c-1.3,3.1-2.1,6.3-2.4,9.7c0,0.1,0,0.2,0.1,0.3
	c0.3-0.1,0.3-0.4,0.4-0.7c0.6-1.4,1.3-2.8,2.1-4.1c0.5-0.9,1.1-1.8,1.6-2.7c0.9-1.3,1.9-2.5,2.9-3.7c2.4-2.8,5-5.5,8.1-7.6
	c0.1,0,0.2-0.1,0.3-0.1c1.8-1.1,3.5-2.3,5.5-3.2c0.2-0.1,0.4-0.2,0.5-0.4C148,108.6,146.5,108.7,145,108.9z M112,109.5
	c-4.8-0.6-9.3-1.9-13.5-4.2c-0.8-0.4-1.5-0.9-2.3-1.3c-0.5-0.3-0.7-0.2-0.9,0.4c-0.2,0.7-0.4,1.4-0.7,2.1c-0.2,0.7-0.5,1.4-0.9,2
	c0.1-0.4,0-0.8,0-1.2c0-1.8,0-3.6,0-5.5c0-0.9,0-1.7,0-2.6c0-0.4,0.1-0.5,0.5-0.3c0.1,0.1,0.2,0.1,0.3,0.2c0.6,0.7,1.3,1.2,2,1.7
	c1.1,0.9,2,1.9,3.2,2.5c4.4,2.5,9.1,4.1,14.1,4.8c1.3,0.2,2.6,0.4,3.9,0.1c0.1,0,0.3,0,0.4,0c0.6,0.3,1.3,0.4,1.9,0.8
	c0.2,0.1,0.4,0.2,0.6,0.2c-0.1,0.2-0.3,0.3-0.5,0.3c-0.5,0-1,0.1-1.5,0.1C116.5,109.8,114.3,109.7,112,109.5z"/>
<path d="M63.1,164.9c0.1-0.8,0.5-1,1.6-1c0.8,0.1,1.1,0.3,1.1,1.2c-0.2,4.2,0,8.5-0.2,12.7c0,0.7-0.1,1.4-0.5,2
	c-0.2,0.4-0.4,0.7-1,0.6c-0.6-0.1-1.1-0.6-1.1-1.1c-0.1-0.8-0.1-1.6-0.1-2.4c-0.3-0.5-0.2-1-0.2-1.6c0.1-1.3,0.1-2.6,0.1-4
	c0-1.9,0-3.8,0-5.7C62.9,165.5,62.8,165.1,63.1,164.9z"/>
<path style="&st22;" d="M72.7,178.5c-0.4-0.3-1-0.5-1.2-1h0c0-3.9,0.1-7.9,0.1-11.8c0-1,0-2.1-0.1-3.1c-0.1-0.6-0.3-1.1-0.8-1.3
	c-0.2,0.7-0.2,1.4,0,2.1c0,1.8,0,3.5,0,5.3l0,0c0,0.1-0.1,0.1-0.1,0.2c0,2.7-0.1,5.4,0,8.1c0,0.3,0,0.4-0.3,0.4
	c-1,0.2-2,0.4-3.1,0.7c-0.5,0.1-0.7,0-0.6-0.5c0.1-2.1,0.1-4.1,0.1-6.2c0-2.4,0.1-4.7,0.1-7.1c0-0.7,0-1.6-0.9-1.9
	c-1.2-0.7-2.5-0.4-3.7,0c-0.2,0.4-0.1,0.9-0.1,1.3c0,0,0,0,0,0c0,0,0,0,0,0c0,0.2,0,0.4,0,0.6c0,3,0,6.1-0.1,9.1
	c0,1.9-0.2,3.8,0.1,5.7c0,0.2,0.1,0.3,0,0.5c-1.3,0.3-2.6,0.6-3.9,1.1l0,0c-0.3-0.1-0.2-0.3-0.2-0.5c0.1-0.9,0.2-1.9,0.2-2.9
	c0-2.3,0.1-4.7,0.1-7c0-3.2,0-6.4,0.1-9.6c0-4.4,0.1-8.8,0.2-13.2c0-1.1,0-2.1-0.6-3.1c-0.1-0.1,0-0.2,0.1-0.3c-0.4,0-0.8,0-1.2,0.1
	c-0.2,0-0.3,0-0.5,0c-0.2,0-0.5-0.1-0.6,0.1c-0.1,0.3,0.2,0.3,0.4,0.4c0.7,0.6,1.2,1.1,1.3,2.1c0.1,1.2,0.1,2.5,0.1,3.7
	c0,2.7,0,5.4,0,8.1c-0.1,2,0,4,0,5.9c0,0.3,0.1,0.6-0.1,0.9c0,0.6,0,1.2,0,1.9v0l0,0c0,0.2-0.1,0.3-0.1,0.5c0,3.4-0.2,6.8-0.1,10.3
	c0,2-0.4,3.7-1.9,5.1c-0.1,0.1-0.3,0.2-0.2,0.3c0.1,0.2,0.3,0.1,0.4,0c1-0.4,2-0.7,3-1c2.5-0.8,5.1-1.6,7.7-2.2
	c2.1-0.5,4.3-1,6.4-1.4c0.1,0,0.3,0,0.4-0.2C73,178.6,72.8,178.6,72.7,178.5z M58.1,178C58.1,178,58.1,178,58.1,178
	C58.1,178,58.1,178,58.1,178C58.1,178,58.1,178,58.1,178z M58,159.9C58,159.9,58,159.9,58,159.9C57.9,159.9,57.9,159.9,58,159.9
	C57.9,159.9,57.9,159.9,58,159.9z M62.6,172.3C62.6,172.3,62.6,172.3,62.6,172.3C62.6,172.3,62.6,172.3,62.6,172.3
	C62.6,172.3,62.6,172.3,62.6,172.3L62.6,172.3C62.6,172.3,62.6,172.3,62.6,172.3z M62.6,167C62.6,167,62.6,167,62.6,167L62.6,167
	C62.6,167,62.6,167,62.6,167C62.6,167,62.6,167,62.6,167C62.6,167,62.6,167,62.6,167z M65.5,175.2c0,1-0.1,1.9-0.2,2.8
	c0,0.5-0.1,1-0.3,1.4c-0.2,0.4-0.4,0.7-0.9,0.6c-0.5-0.1-0.8-0.4-0.9-0.8c-0.1-0.5-0.1-1-0.1-1.5c0-0.3,0.1-0.6-0.2-0.8
	c0.1-4,0.1-8.1,0.1-12.1c0,0,0,0,0,0c0,0,0,0,0.1,0c0.3-0.1,0.2-0.5,0.5-0.6c1-0.5,1.9,0,2,1.2c0.1,1.3-0.1,2.6-0.1,3.9
	C65.5,171.3,65.5,173.3,65.5,175.2z"/>
<path style="&st22;" d="M165.8,172.8c0-0.4,0.1-0.9-0.1-1.3c0-0.1,0-0.2,0-0.2c0-0.3,0.1-0.6-0.1-0.9c-0.2-1.2-0.6-2.4-1.4-3.3
	c0,0.5,0,1.1,0.3,1.5c0.2,0.5,0.2,1.1,0.2,1.6c0.3,3.1,0.2,6.2,0.2,9.4c0,1.6-0.1,3.3-0.3,4.9c-0.2,1-0.5,2-1.7,2.3
	c-0.4,0.1-0.9,0.1-1.3,0.1c-2.3-0.4-4.4-1.4-6.2-3c-0.1-0.1-0.3-0.3-0.4-0.4c-1.7-1.5-2.7-3.3-2.7-5.6c0-2.5-0.1-5-0.1-7.5
	c0-1.7,0-3.3-0.2-5c-0.1-0.1-0.2-0.3-0.4-0.4c-0.1-0.1-0.2-0.4-0.5-0.3c-0.2,0.1-0.1,0.4-0.1,0.5c0,3.7,0.1,7.3,0.1,11
	c0,1.3,0.1,2.6,0.2,4c0.2,1.5,0.9,2.6,1.8,3.7c1.4,1.7,3.2,2.9,5.2,3.8c0.5,0.2,2.5,1,3,1.1c2.3,0.4,4-1,4.2-3.3
	c0.1-0.6,0.1-1,0.2-1.5C165.9,180.3,165.8,176.5,165.8,172.8z"/>
<path style="&st52;" d="M115.7,96.1c-0.8,0-1.3-0.7-1.9-1.1c0.2-2.1-0.7-4-1.7-5.8c-0.4-0.9-0.8-1.8-1.3-2.6
	c-0.7-1.3-1.7-2.4-2.6-3.6c-1-1.2-2-2.4-3.2-3.4c-0.5-0.4-0.9-0.8-1.4-1.2c-1.1-0.9-1.9-1.9-1.2-3.4c0.1-0.3-0.1-0.8,0.4-0.9
	c0.4-0.1,0.7,0.3,0.9,0.5c1.1,1.3,2.3,2.4,3.5,3.6c1.3,1.2,2.2,2.8,3,4.4c0.4,0.8,0.8,1.7,1.5,2.4c0,0.7,0.4,1.3,0.8,1.8
	c0.6,0.7,1.1,1.5,1.8,2c0.7,0.5,0.5,1.4,0.7,2c0.2,0.6,0.1,1.3,0.3,1.9c0.2,0.6,0.4,1.1,0.7,1.6C116.6,95.2,116.5,95.7,115.7,96.1z"
	/>
<path style="&st24;" d="M122.7,141.6c-0.4-0.3-0.5-0.6-0.7-1c-0.3-0.6-0.6-1.2-1.2-1.6c-0.2-0.1-0.2-0.3,0-0.4
	c0.1-0.1,0.3-0.1,0.4-0.2c0.5-0.3,1-1.4,0.8-1.8c-0.4-0.7-0.9-1.2-1.7-1.3c-0.6-0.1-1.2-0.1-1.6-0.1c-0.6,0-1,0-1.4,0
	c-0.1,0-0.3-0.1-0.4,0.1c-0.1,0.2,0,0.3,0.1,0.5c0.2,0.2,0.2,0.5,0.2,0.7c0,1.4,0,2.8,0,4.2c0,0.3,0,0.7-0.4,0.9
	c-0.1,0-0.1,0.1-0.1,0.3c0,0.1,0.2,0.1,0.2,0.1c0.6-0.2,1.3-0.1,1.9,0c0.1,0,0.3,0,0.3-0.1c0-0.1,0-0.2-0.1-0.2
	c-0.3-0.1-0.3-0.4-0.3-0.7c0-0.5,0-0.9,0-1.4c0-0.4,0.2-0.4,0.5-0.4c0.3,0,0.4,0.3,0.6,0.5c0.3,0.5,0.5,1,0.8,1.5
	c0.1,0.3,0.3,0.6,0.6,0.7c0.5,0.1,1,0.1,1.5,0.2c0.1,0,0.2,0,0.2-0.1C122.8,141.7,122.7,141.7,122.7,141.6z M120.4,138
	c-0.2,0.5-1.1,0.8-1.6,0.5c-0.2-0.1-0.1-0.2-0.1-0.4c0-0.3,0-0.6,0-0.8c0,0,0,0,0,0c0-0.3-0.1-0.6,0-0.9c0.1-0.3-0.2-0.7,0.3-0.8
	c0.6-0.1,1.1,0.1,1.3,0.6C120.6,136.9,120.6,137.5,120.4,138z"/>
<path style="&st24;" d="M113.6,141.6c-0.6-0.2-0.7-0.8-0.8-1.2c-0.5-1.5-0.9-3.1-1.4-4.6c-0.1-0.4-0.4-0.5-0.8-0.5
	c-0.4,0-0.6,0.1-0.8,0.5c-0.4,1.2-0.8,2.3-1.3,3.4c-0.3,0.8-0.5,1.6-1,2.2c-0.2,0.1-0.3,0.2-0.3,0.4c0.1,0.2,0.3,0.1,0.4,0
	c0.4-0.1,0.7-0.1,1.1,0c0.2,0,0.4,0.1,0.4-0.1c0.1-0.3-0.2-0.2-0.3-0.3c-0.3-0.1-0.4-0.3-0.2-0.6c0.2-0.3,0-0.9,0.6-0.9
	c0.6,0,1.3,0,1.9,0c0.1,0,0.3,0,0.3,0.2c0,0.5,0.3,1-0.3,1.4c-0.1,0-0.1,0.1-0.1,0.2c0,0.1,0.1,0.2,0.2,0.1c0.7-0.2,1.5,0,2.2,0
	c0.1,0,0.2,0,0.2-0.1C113.8,141.7,113.7,141.6,113.6,141.6z M109.2,138.9c0.3-0.5,0.5-1,0.6-1.6c0.1-0.2,0.1-0.4,0.3-0.6
	c0.3,0.9,0.7,1.7,1,2.6c0.1,0.2-0.1,0.2-0.3,0.2c-0.2,0-0.4,0.1-0.6,0.1c-0.3,0-0.5,0-0.8,0C109,139.6,108.9,139.4,109.2,138.9z"/>
<path style="&st22;" d="M53.6,149c-0.1-0.7-0.2-1.5-0.7-2.1c-0.1,0.3-0.2,0-0.2,0c-0.1,0-0.1-0.2-0.2,0c-0.1,0.1,0,0.2,0.1,0.2
	c0,0.3,0.1,0.5,0.1,0.8c0.2,1.4,0.2,2.9,0.2,4.3c0,4.5-0.2,8.9-0.2,13.4c0,0.2-0.1,0.4-0.1,0.6c-0.1,3.5,0,7-0.2,10.6
	c-0.1,1.9-0.4,3.7-1.8,5.2c0,0,0,0,0,0c-0.9,0.7-1.8,1.3-2.9,1.8c-2.4,1.1-4.7,2.1-7.1,3.2c-0.6,0.3-0.6,0.3-0.8-0.4
	c0-4.5,0-9-0.1-13.4c0-0.2,0-0.5-0.1-0.7l0,0c0-0.9,0-1.8,0-2.7c0-3.8,0-7.5,0-11.3c0.1-0.1,0.1-0.2,0.1-0.3c0-3.3,0-10.2,0-10.2
	c-0.1-0.7-0.4-1.4-0.7-2c0-0.1-0.1-0.2-0.1-0.2c-0.7,0-1.3,0.1-2,0.1c0,0.1,0,0.1-0.1,0.2c0.1,0,0.1,0.1,0.2,0.1
	c1.1,0.7,1.7,1.7,1.8,3c0,0.6,0.1,1.3,0.1,2c0,0,0,0,0,0c0,3.5,0,7.1,0,10.6c0,0.2,0,0.4,0,0.6c0,0.7,0,1.3,0,2c0,0.2,0,0.4,0,0.6
	c0,6.6,0,13.2,0,19.7c0,0.9,0,1.8,0,2.7c0,0.4,0,0.7,0,1.1c0,0.3,0,0.7-0.1,1c-0.1,0.4,0.1,0.4,0.4,0.3c2.5-1.2,5-2.2,7.6-3.3
	c1.6-0.7,3.2-1.4,4.4-2.6c0.8-0.9,1.5-1.9,1.6-3.1c0.2-1.4,0.4-2.8,0.4-4.2c0-0.9,0-1.9,0-2.8c0-5,0.1-9.9,0.1-14.9
	c0.1-0.8,0.1-1.6,0.1-2.4C53.7,154,53.9,151.5,53.6,149z M39.5,163.5C39.5,163.5,39.5,163.5,39.5,163.5
	C39.5,163.6,39.5,163.6,39.5,163.5C39.5,163.5,39.5,163.5,39.5,163.5z M52.7,179.2C52.7,179.2,52.7,179.2,52.7,179.2
	C52.7,179.2,52.7,179.2,52.7,179.2C52.7,179.2,52.7,179.2,52.7,179.2z"/>
<path style="&st8;" d="M131,31.2c-1-2.2-1-4.4-0.3-6.7c0.5-1.6,1.4-3,2.1-4.4c0.9-1.7,1.5-3.6,1.3-5.6c-0.1-1.1-0.4-2.1-0.9-3
	c-0.1-0.1-0.1-0.3-0.3-0.3c-0.2,0-0.1,0.2-0.2,0.3c-0.3,1-0.6,2-0.9,3.1c-0.9,1.4-2,2.6-3.2,3.6c-2,1.7-3.7,3.7-4.7,6.1
	c-0.1,0.3-0.1,0.4,0.1,0.6c0.8,1.7,1.9,3.2,2.8,4.9c0,0,0,0,0,0c0.8,1.7,1.5,3.4,1.9,5.3c0.1,0.5,0.3,1,0.5,1.4
	c1,1.5,2.3,2.5,3.9,3.3c0.4,0.2,0.4,0,0.5-0.3c0.3-1.7,0.2-3.3-0.7-4.8C132.3,33.5,131.6,32.4,131,31.2z M127.5,28.8
	c0,0.1,0,0.2,0,0.3c0-0.1-0.1-0.3-0.2-0.4c-0.5-1-1.1-2-1.8-2.9c-0.5-0.6-0.8-1.1-0.4-1.8c0,0,0,0,0,0c0,0,0,0,0.1,0
	c0.7-0.9,1.2-2,1.8-2.9c0-0.1,0.1-0.2,0.1-0.3c0.4-0.4,0.9-0.8,1.3-1.2c1.5-1.1,2.8-2.3,3.7-4.1c0,0,0.1,0,0.1,0
	c0.1-0.1,0.1-0.1,0.1-0.3c0,0,0,0,0,0c0.1,0,0.2-0.2,0.2,0.1c-0.1,0.6-0.3,1.2-0.5,1.7c-0.5,1.1-1.2,2-2,3
	C128,22.6,127.1,25.5,127.5,28.8z"/>
<g>
	<path style="&st24;" d="M87.6,141.6c-0.6-0.4-0.7-1.1-0.9-1.7c-0.5-1.5-0.9-3-1.5-4.5c-0.6-0.4-1.1-0.3-1.4,0.3
		c-0.4,0.9-0.6,1.8-1.1,2.6c-0.5,1.1-0.5,2.4-1.6,3.2c-0.2,0.1,0,0.3,0.2,0.3c0.5-0.1,1-0.1,1.5,0c0.1,0,0.2,0,0.3-0.1
		c0.1-0.1,0-0.2-0.1-0.2c-0.7-0.2-0.4-0.7-0.4-1.1c0-0.4,0.2-0.5,0.6-0.5c0.7,0,1.4,0.1,2.1-0.1c0.1,0.6,0.4,1.2-0.3,1.7
		c-0.2,0.1-0.1,0.3,0.1,0.3c0.8-0.1,1.5,0,2.2,0C87.6,141.9,87.8,141.8,87.6,141.6z M85,139.5c-0.1,0-0.2,0-0.3,0
		c-0.5,0.1-1,0-1.5,0c-0.3,0-0.4-0.1-0.2-0.4c0.5-0.5,0.6-1.2,0.9-1.9c0.1-0.2,0.1-0.4,0.3-0.6c0.1,0,0.2-0.1,0.2,0
		c0.1,0.9,0.5,1.7,0.8,2.6C85.2,139.4,85.1,139.5,85,139.5z"/>
</g>
<path style="&st53;" d="M62.6,20.2c0.2,0,0.5,0,0.7,0c0.4,0,0.7,0.1,1.1,0.1C63.8,20.3,63.2,20.4,62.6,20.2z"/>
<path style="&st8;" d="M119.6,53.6c-0.4-0.6-0.8-1.2-1.2-1.8c-0.4-0.5-0.8-1.1-1.3-1.5c-0.3,0.4-0.2,0.8,0.2,1.1
	c0.3,0.3,0.4,0.7,0.5,1c0.1,0.2,0,0.4-0.2,0.5c-0.2,0.1-0.3,0-0.5-0.1c-0.3-0.3-0.6-0.5-0.9-0.8c-1.3-1.3-2.8-2.4-4.3-3.4
	c-0.8-0.5-1.5-1.1-2.4-1.6c-1.1-0.7-2.2-1.6-3.5-1.9c0.2,0.5-0.1,0.5-0.4,0.4c-1.6-0.3-3.1-0.3-4.7,0.2c-0.1,0-0.3,0.1-0.4-0.1
	c0.4-0.3,0.5-1,1.1-1.2c0.2-0.1,0.2-0.3,0.1-0.5c-0.3-0.9-0.7-1.8-1-2.8c-0.1-0.5-0.4-0.9-0.1-1.5c-0.1-0.3-0.4-0.4-0.7-0.3
	c-0.3,0.1-0.3,0.5-0.2,0.8c0.3,0.9,0.3,1.8,0.4,2.7c0.1,0.2,0.2,0.4,0.3,0.7c0.2,0.4,0.2,0.7-0.3,0.9c-0.4,0.2-0.7,0.5-1.1,0.8
	c-0.2,0.2-0.4,0.2-0.6-0.1c-0.4-0.8-0.6-1.7-0.4-2.7c0.2-0.8,0.1-1.7,0.1-2.5c-0.1-0.8,0-1.6-0.4-2.4c-0.3-0.2-0.2-0.8-0.7-0.9
	c0.1,0.3-0.1,0.6-0.1,0.9c0.2,1.8,0.1,3.6-0.1,5.4c0,0.3-0.1,0.7,0.1,1c0.3,0.6,0.6,1.3,1,1.9l0,0c0.5,1.1,1.3,2,2.1,2.9
	c0.2,0.2,0.4,0.4,0.6,0.4c1.9,0.7,3.9,0.8,5.8,0.9c0.5,0,0.6-0.2,0.3-0.7c-0.3-0.5-0.6-1.1-1.1-1.6c0,0,0,0,0,0c0,0,0,0,0,0
	c0.2-0.4,0.4-0.1,0.5,0c2,1.2,3.8,2.5,5.4,4.2c1.1,1.1,1.9,2.4,2.8,3.6c0.9,1.3,2.5,1.5,3.7,0.5c0.4-0.3,0.8-0.8,1.1-1.2
	C119.9,54.4,119.9,54,119.6,53.6z M102.6,48.1c-0.6-0.1-1.2-0.3-1.7-0.5c-0.3-0.1-0.8,0.1-1.1-0.4c-0.2-0.5,0.2-0.7,0.4-1
	c0,0,0,0,0,0c0.3,0,0.6-0.1,0.8-0.3c0,0,0,0,0,0c0.2,0.1,0.4,0,0.5,0.1c1,0.1,2,0.2,2.9,0.8c0.5,0.3,0.8,0.8,1.3,1.1
	C104.8,48,103.7,48.2,102.6,48.1z"/>
<path style="&st54;" d="M109,55.8c-0.7,0-1.4-0.7-1.6-1.6c-0.1-0.6,0.4-1.5,1-1.7c0.2-0.1,0.4-0.1,0.6,0c0.2,0.2,0,0.4-0.1,0.5
	c-0.3,0.5-0.4,1.1-0.4,1.7c0,0.5,0.2,0.5,0.5,0.3c0.4-0.2,0.5-0.7,0.8-1c0.1-0.2,0.1-0.7,0.5-0.5c0.5,0.2,0.7,0.9,0.6,1.2
	C110.5,55.3,109.7,55.8,109,55.8z"/>
<path style="&st55;" d="M110.4,57.6c-0.2-0.1-0.6,0-0.6-0.2c-0.1-0.2,0.2-0.4,0.4-0.4c0.6-0.3,1-0.7,1.4-1.1
	c0.3-0.3,0.5-0.3,0.7,0.1c0.4,1,0.4,1.1-0.7,1.5C111.2,57.5,110.8,57.5,110.4,57.6z"/>
<path style="&st55;" d="M105.8,53.9c-0.2-0.8,0.1-1.6,0.5-2.2c0.1-0.2,0.3-0.2,0.5-0.1c0.2,0.1,0.2,0.2,0.1,0.3
	C106.5,52.5,106.2,53.2,105.8,53.9z"/>
<path style="&st56;" d="M105.9,47.8c-0.1,0.2-0.3,0.3-0.5,0.3c-0.9,0-1.8,0.3-2.7,0.2c-0.5-0.1-1-0.2-1.5-0.4
	c-0.3-0.1-0.6-0.2-1-0.2c-0.2,0-0.6,0.1-0.6-0.2c0-0.3-0.2-0.8,0.2-1c0.1-0.1,0.3-0.2,0.4-0.3c0.3-0.1,0.6-0.2,0.8-0.2
	C103,45.6,104.7,46.2,105.9,47.8z"/>
<path style="&st22;" d="M48.9,151.2c0-0.9-0.1-1.9-0.5-2.7c-0.3-0.7-0.9-1-1.7-1c-0.8,0-1.6,0.2-2.4,0.3c-0.4,0-0.5,0.2-0.5,0.6
	c0,4.2,0,8.5,0,12.7c0,0.2,0,0.4,0,0.5c0,0.7,0,1.5,0,2.2c-0.1,0.2,0,0.4,0,0.6c0,4.4,0,8.9,0,13.3c0,0.2,0,0.4,0,0.6
	c0,0.7,0,1.4,0,2.1c-0.2,0.4-0.2,0.8,0,1.2c0,0.2,0,0.3,0,0.5c0,0.2-0.1,0.6,0.1,0.7c0.2,0.1,0.4-0.2,0.6-0.3c0,0-0.1-0.1-0.1-0.1
	c0.2-0.2,0.2-0.5,0.2-0.7c0-0.6,0-1.2,0-1.8c0.1-9.8,0-19.6,0.1-29.4c0.2-0.3-0.1-0.8,0.4-0.9c0.8-0.1,1.6-0.3,2.4,0
	c0.4,0.7,0.4,1.6,0.4,2.4c0,0.5,0,0.9,0,1.4c-0.1,7.4-0.1,14.8-0.2,22.3c0,1.8,0,3.6-0.1,5.3c0.8-0.4,1.1-1.1,1.1-1.9
	c0-1.2,0.1-2.5,0.1-3.7c0-4.4,0-8.7,0-13.1C48.8,158.6,48.9,154.9,48.9,151.2z M44.1,161.7C44.1,161.7,44.1,161.7,44.1,161.7
	L44.1,161.7L44.1,161.7C44.1,161.7,44.1,161.7,44.1,161.7C44.1,161.7,44.1,161.7,44.1,161.7z"/>
<path style="&st22;" d="M86.7,145C86.7,145,86.7,145,86.7,145c0-0.2-0.2-0.2-0.3-0.2c-1,0-2,0-3,0.1c-0.6,0.1-1.1,0.4-1.4,1
	c-0.4,0.8-0.4,1.6-0.4,2.5c0,3.2,0,6.3,0,9.5c0,1.4,0,2.8-0.1,4.1c-0.1,0.9,0,1.8,0,2.8c0.3-0.1,0.5-0.2,0.7-0.4
	c0.1-0.2,0.1-0.2,0.1-0.3c0.1-0.3,0.1-0.6,0.1-0.9c0.1-4.1,0.1-8.1,0.2-12.2c0-1.1,0-2.3,0.2-3.4c0.2-0.5,0.6-0.6,1.1-0.7
	c0.3,0,0.7,0,1,0c0.9,0,0.9,0,0.9,0.9c0,4.7-0.1,9.4-0.1,14.1c0,0.3-0.1,0.5,0.1,0.8c0,0.1,0,0.2,0,0.3c0.7-0.1,0.9-0.5,0.9-1.2
	c0-2.5,0.1-5,0.1-7.5C86.7,151.2,86.7,148.1,86.7,145C86.7,145,86.7,145,86.7,145z"/>
<path style="&st57;" d="M75.3,60.7c0.4-0.3,0.9-0.4,1.4-0.5c0.9-0.2,1.7-0.4,2.5-0.7c0.1,0,0.1,0,0.2,0c0.6-0.6,0.7-1.1,0.3-2
	c-0.4-0.1-0.9-0.3-1.3-0.3c-1.4-0.2-2.8-0.5-4.3-0.7c-0.8-0.1-1.6-0.3-2.5-0.2c0.7,0.8,1.4,1.3,1.9,2c0.6,0.7,1,1.5,1.3,2.4
	C74.9,60.9,75.1,60.7,75.3,60.7C75.3,60.7,75.3,60.7,75.3,60.7z"/>
<line style="&st58;" x1="179" y1="140.2" x2="179" y2="140.2"/>
<line style="&st58;" x1="179.2" y1="140.1" x2="179.2" y2="140.1"/>
<path style="&st32;" d="M98.4,71.9c-0.7-1.2-1.9-2-3-2.8c-1.3-0.9-2.8-1.4-4.3-1.7c-0.4-0.1-0.6-0.2-0.7-0.6
	c-0.1-0.2-0.1-0.4-0.2-0.6c-0.1-0.7-0.6-0.8-1.1-0.9c-0.3,0-0.4,0.1-0.4,0.4c0.1,0.7,0.4,1.4,0.5,2.2c0.1,1,0.1,2,0,3.1
	c-0.3-0.3-0.3-0.3-0.4-0.5c-0.4-1.1-0.9-2.2-1.6-3.2c-0.9-1.3-1.9-2.2-3.8-2c-1.8,0.2-3.6,0.5-5.4,0.4c-0.3,0-0.3,0.2-0.3,0.4
	c0,1.4,0.4,2.8,1.3,3.9c0.7,0.9,1.4,1.8,1.8,2.9c0.3,0.7,0.5,1.6,0.5,2c-0.1-0.1-0.1-0.1-0.2-0.2c-1-1.7-2.3-3-3.9-4.1
	c-1.4-1-2.5-2.4-2.8-4.2c-0.1-0.3-0.2-0.4-0.5-0.4c-0.7,0.1-1.4,0.2-2.2,0.4c0,0,0,0,0,0c0,0,0,0,0,0c-0.1,0-0.2,0-0.2-0.1
	c0.6-1.4,0.6-2.8,0.3-4.3c-0.1-0.4-0.3-0.4-0.6-0.2c-0.5,0.4-0.9,0.8-1.4,1.2c0,0,0,0,0,0c-0.2,0.1-0.4,0.3-0.6,0.4
	c-1.8,1.5-3.2,3.3-4.7,5.1c-0.9,1.2-1.8,2.3-2.2,3.7c0,0,0,0.1,0,0.1c-0.7,1.9-0.5,3.7,0.3,5.5c0.4,1.2,1.1,2.3,1.9,3.3
	c0.6,1,1.4,1.8,2,2.8c1,1.4,1.6,2.9,2.3,4.6c-1.1-0.8-1.9-1.8-2.8-2.6c-1.2-1-2.3-2.1-3.7-2.9c-1.5-1.3-3.2-2.4-4.3-4
	c-0.4,0.8-0.7,1.5-1.1,2.3c-1,2.3-1.8,4.6-2,7.1v0l0,0c-0.3,1.6-0.2,3.3-0.1,4.9c0.1,1.4,0.1,2.8,0.6,4.1c0,0.3,0.1,0.6,0.2,0.8
	c0.8,2.2,1.7,4.2,3,6.1c0,0.1,0.2,0.3,0.1,0.4c-0.2,0.1-0.3,0-0.4-0.1c-0.3-0.1-0.5-0.3-0.8-0.5c-0.8-0.6-1.6-1.1-2.3-1.7
	c-0.1-0.1-0.3-0.2-0.4-0.2c-0.1,0.1-0.1,0.3-0.1,0.4c0.1,0.6,0,1.2,0.2,1.8c0,0.2,0,0.3,0,0.5c0.1,0.4,0,0.9,0.1,1.3
	c0.1,0.6,0.1,1.3,0.2,1.9c0.1,1.2,0.3,2.5,0.5,3.7c0.6,3.4,1.5,6.6,3.3,9.6c1.9,3.2,4.2,6.2,6.8,8.9c1,1,2,1.9,3,2.9
	c0,0-0.1,0.1-0.1,0.1c-2-1.1-4-1.9-5.8-3.2c-0.3-0.2-0.6-0.6-0.8-0.5c-0.2,0.1,0,0.6,0.1,0.9c0.3,1.4,0.6,2.9,1,4.3
	c0.1,0.2,0.1,0.6,0.3,0.5c0.7-0.2,1.3,0.1,2-0.2c-0.2-0.3-0.6-0.2-0.8-0.2c-0.4,0-0.6-0.2-0.7-0.6c0-0.7-0.2-1.3-0.3-2
	c0-0.1-0.1-0.3,0-0.4c0.4,0.3,0.8,0.6,1.3,0.9c1.1,0.8,2.3,1.4,3.6,2c0.4,0,0.7,0,1.1,0c0.2,0,0.5,0.1,0.6-0.1
	c0.1-0.2-0.2-0.3-0.3-0.5c-0.2-0.3-0.6-0.5-0.1-0.8c0.2-0.1,0.2-0.3,0.2-0.5c0-0.4,0-0.9-0.2-1.3c-0.4-1.3-0.9-2.6-1.2-3.9
	c-0.6-2-0.9-4.1-1-6.2c-0.1-0.9,0-1.7,0.2-2.5c0.1,0.3,0.2,0.5,0.2,0.8c0.3,1.2,0.5,2.4,0.8,3.5c1.2,3.9,2.9,7.6,5.7,10.6
	c0.3,0.3,0.6,0.5,1.1,0.3c0.5-0.2,1-0.4,1.5-0.6c0.4-0.2,0.8-0.5,1.3-0.5c-0.1,0.4-0.5,0.6-0.5,0.9c0,0.2-0.1,0.4,0.2,0.4
	c0.7-0.2,1.5,0.1,2.2-0.1c-0.1-0.2-0.3-0.1-0.5-0.2c-0.6-0.1-0.6-0.1-0.3-0.6c0.3-0.5,0.9-0.9,1.3-1.4c1.5-1.8,3.3-3.2,5.3-4.5
	c-0.5,0.8-1.2,1.5-1.8,2.2c-1,1.3-1.7,2.7-2,4.4c0.3,0,0.7,0,1,0c3.3-0.1,6.6-0.2,9.8-0.2c0.6,0,1.2,0.2,1.6-0.1
	c0.4-0.3,0.3-1,0.4-1.6c0.5-2.9,0.7-5.7,0.3-8.6c-0.3-1.8-0.8-3.6-1.6-5.4c-0.4,0.6-0.8,1.1-1.2,1.7c-1.6,2.1-3.7,3.7-5.9,5.2
	c-2.3,1.6-4.5,3.4-6.5,5.4c-0.3,0.3-0.6,0.7-1,1c-0.1-0.2,0-0.3,0-0.5c0.6-2.1,1.3-4.1,2.3-6.1c1-2.1,2.2-4.1,3.4-6.1
	c1.7-3,2.9-6.1,3.6-9.4c0.7-3.7,0.8-7.4,0.5-11.1c-0.1-0.8,0-1.5-0.2-2.4c-0.7,0.8-1.3,1.5-2,2.2c-2.3,2.3-5.1,4-7.9,5.6
	c-2.1,1.3-4.1,2.6-5.8,4.5c-0.4,0.4-0.8,0.9-1.3,1.3c0.1-0.5,0.3-0.8,0.5-1.1c1-1.8,2.2-3.4,3.7-4.9c1.6-1.6,3.4-2.9,5.2-4.2
	c2.8-2.1,4.9-4.8,6.3-8c0.9-2,1.3-4.2,1.5-6.4c0-0.2,0.1-0.5-0.1-0.8c-1.4,1.4-2.8,2.9-4.5,4c0.9-1.4,1.7-2.7,2.5-4.1
	c0.7-1.3,1.4-2.7,1.8-4.2c0.1-0.5,0-0.6-0.5-0.6c-0.7,0.1-1.4,0.2-2.1,0.1c-0.1,0-0.3,0-0.3-0.1c0-0.1,0.1-0.2,0.2-0.3
	c0.2-0.1,0.4-0.2,0.6-0.3c2.8-0.7,5.1-2.3,7.3-4c0.3-0.2,0.2-0.4-0.1-0.5c-0.6-0.2-1.2-0.4-1.7-0.5c-0.3-0.2-0.7-0.4-1-0.6
	c-0.1-0.1-0.2-0.2-0.2-0.3c0.1-0.2,0.2-0.1,0.4-0.1c0.3,0,0.7,0,1,0c1.3,0.1,2.6,0,3.9-0.1c0.7,0,1.3-0.1,2-0.1
	C98.7,72.5,98.7,72.4,98.4,71.9z M63.2,78C63.2,78,63.2,78,63.2,78C63.2,78,63.2,78,63.2,78C63.2,78,63.2,78,63.2,78
	C63.2,78,63.2,78,63.2,78C63.2,78,63.2,78,63.2,78z M68.6,69.4c-2.8,2.6-4.6,5.6-3.9,9.7c0,0.2,0.2,0.5-0.1,0.7c0,0,0,0-0.1,0
	c-0.1-0.1-0.1-0.2-0.2-0.4c-1.2-2.2-2-4.4-1.2-6.9c1.8-3.7,4.5-6.7,7.6-9.3c0,0,0,0,0,0.1C71,63.5,71,63.7,71,64
	c0,0.2,0,0.4,0.2,0.5c0,0,0,0,0,0c-0.5,0.9-0.8,1.9-1.3,2.7c-0.1,0.1-0.1,0.3,0,0.4c0.2,0.1,0.3,0,0.4-0.1c0,0,0.1,0,0.1,0
	c0,0,0,0.1-0.1,0.1c0.3,0.1,0.5,0.3,0.1,0.5C69.7,68.4,69.2,68.9,68.6,69.4z M59.4,81.7C59.4,81.7,59.4,81.7,59.4,81.7
	C59.4,81.7,59.4,81.7,59.4,81.7C59.4,81.7,59.4,81.7,59.4,81.7z M56.6,99C56.6,99,56.6,99,56.6,99C56.7,99,56.7,99,56.6,99
	C56.6,99,56.6,99,56.6,99z M58,101.3c-0.6-1.3-1.1-2.7-1.4-4.1c0-0.1,0-0.2,0.1-0.4c0-0.2,0-0.4,0-0.5c-0.4-2.1-0.5-4.3-0.4-6.4
	c0.1-1.7,0.4-3.4,0.8-5c0.3-1.2,0.9-2.4,1.2-3.6c0,0,0-0.1,0-0.1c1.1,1.2,2.5,2.1,3.7,3.1c0,0.1,0,0.1,0,0.2
	c0.1,0.3-0.1,0.5-0.3,0.7c-1.1,1.4-1.9,2.9-2.3,4.6c-0.8,2.9-0.8,5.8-0.2,8.7c0.5,2.7,1.1,5.3,2,7.9c-0.3-0.2-0.4-0.4-0.6-0.5
	c-0.1-0.1-0.2-0.1-0.3-0.2C59.4,104.3,58.7,102.8,58,101.3z M56.2,111.2C56.2,111.2,56.2,111.2,56.2,111.2
	C56.2,111.2,56.2,111.2,56.2,111.2C56.2,111.2,56.2,111.2,56.2,111.2C56.2,111.2,56.2,111.2,56.2,111.2
	C56.2,111.2,56.2,111.2,56.2,111.2z M65,128.9C65,128.9,65,128.9,65,128.9C65,128.9,65,128.9,65,128.9C65,128.9,65,128.9,65,128.9z
	 M65.7,129.1c0,0-3.4-4.3-4.9-6.6c-2.4-3.5-3.6-7.4-4.2-11.5c-0.1-0.3-0.1-0.7-0.2-1.1c0-0.1-0.3-3.2-0.2-3.9c0.2,0,0.2,0.1,0.3,0.2
	c1.4,1.8,2.7,3.7,4.3,5.3c0.2,0.2,0.4,0.5,0.4,0.8c0,0.6,0.1,1.1,0.1,1.7c0.1,1.8,0.4,3.6,0.9,5.3c0.9,3.1,2.2,6.1,3.7,8.9
	c0.2,0.3,0.3,0.6,0.4,1C66.1,129.3,65.7,129.1,65.7,129.1z M68,108.5c0.2,1.7,1,2.4,2.7,2.6c0,0.2-0.1,0.2-0.2,0.3
	c-1.1,1.1-2.2,2.2-2.9,3.7c-0.1,0.3-0.3,0.2-0.5,0.1c-2.9-1.9-5.5-4.1-7.2-7.3c-0.1-0.2-0.2-0.4-0.2-0.5c0-0.1-0.1-0.1,0-0.3
	c0.8,0.9,1.7,1.6,2.8,2.2c0.7,0.4,1.5,0.8,2.2,1.2c0.3,0.1,0.3,0,0.3-0.2c0.1-1.9,0.4-3.7,1.2-5.5c0.7-1.6,1.6-3,2.6-4.4
	c0.6-0.9,1.2-1.9,1.7-2.8c0.1-0.2,0.1-0.4,0.4-0.4c-0.3,1.4-0.7,2.8-1.3,4.1c-0.7,1.7-1.4,3.5-1.7,5.3
	C67.9,107.3,67.9,107.9,68,108.5z M78.7,92.4c-1,0.3-1.9,0.4-2.9,0.5c-1.5,0.1-2.8,0.6-4.1,1.4c-0.3,0.2-0.5,0.3-0.6-0.2
	c-0.1-1.3-0.7-2.4-1.3-3.5c-0.1-0.1-0.2-0.3-0.2-0.4c-0.1-0.2-0.1-0.4,0.2-0.4c2,0.1,3.1-1.1,4-2.6c1.2-2,2.7-3.8,4.6-5.2
	c0.4-0.3,0.5-0.4,1-0.5c-2,2.3-2.9,5-3.7,7.8c-0.2,0.6-0.4,1.1-0.7,1.6c-0.2,0.3-0.2,0.5,0.3,0.5c2.1,0,4.1-0.3,6-1.1
	c0,0,0.1,0,0.3,0C80.9,91.4,79.9,92.1,78.7,92.4z M87.1,75.8c-0.4,0.6-0.9,1.2-1.4,1.7c-0.1,0.1-0.7,0.8-0.9,1
	c-0.3,0.3-0.6,0.6-1.1,0.6c-0.5,0-1.1,0-1.6,0c-0.2,0-0.4,0-0.4-0.2c-0.1-0.8,0-1.5,0-2.4c0.7,1,1.4,0.6,2.2,0.3
	c0.1,0,0.2-0.1,0.3-0.1c0.8-0.4,1.5-0.8,2.1-1.3c0.7-0.5,1.3-1,1.9-1.6C88,74.5,87.2,75.7,87.1,75.8z M91.2,74.4
	c0,0.1,0.2,0.2,0.3,0.2c0.4,0.2,0.4,0.4,0.1,0.7c-0.2,0.1-0.3,0.3-0.5,0.4c-1,0.5-1.9,1.1-2.8,1.6c-0.1,0.1-0.3,0.2-0.4,0.1
	c0-0.1,0.4-0.5,0.6-0.7c0.7-0.6,1.4-1.2,1.9-1.9C90.5,74.4,90.8,74.2,91.2,74.4z M96.1,71.7c-0.4,0-0.8,0-1.2,0
	c-0.8-0.1-1.6,0.1-2.5,0.1c0.6-0.4,1.4-0.6,2-1c0.9-0.5,1-0.5,1.7,0.2c0.1,0.1,0.1,0.1,0.2,0.1c0,0,0,0,0,0c0,0.1,0,0.1,0,0.2
	C96.7,71.7,96.4,71.7,96.1,71.7z"/>
<path style="&st13;" d="M78.8,67c0-0.3,0.1-0.4,0.4-0.4c1-0.1,2.1-0.1,3.1-0.2c0.8-0.1,1.7-0.1,2.5-0.1c0.2,0,0.4,0,0.6,0.2
	c0.3,0.3,0.4,0.5,0,0.7c-0.4,0.2-0.8,0.3-1.1,0.5c-1.4,0.7-2.4,1.6-3,3.1c-0.1,0.2-0.2,0.6-0.4,0.2c-0.7-1.1-1.7-2-2-3.3
	C78.9,67.3,78.9,67.2,78.8,67z"/>
<path style="&st13;" d="M84.6,80.4c0,0.2-0.2,0.3-0.3,0.3c-1.7,1-2.4,2.7-3.2,4.4c-0.6,1.5-1.3,3.1-2.5,4.2
	c-0.4,0.3-0.7,0.6-1.1,0.9c-0.2,0.1-0.4,0.3-0.6,0.2c-0.2-0.2,0-0.4,0.1-0.6c0.4-0.8,0.8-1.7,1.1-2.5c0.7-1.8,1.3-3.7,2.4-5.3
	c0.9-1.3,2.2-1.7,3.7-1.8C84.5,80.2,84.6,80.3,84.6,80.4z"/>
<path style="&st13;" d="M81.8,92.4c-0.6,0.9-1.5,1.6-2.3,2.1c-3.1,1.9-5.2,4.7-6.9,7.8c-1.1,2-2,4-2.4,6.2c0,0.2-0.1,0.5-0.1,0.7
	c0,0.1-0.1,0.2-0.2,0.2c-0.1,0-0.2-0.1-0.2-0.2c-0.1-0.3-0.1-0.5-0.1-0.8c0-1.7,0.4-3.4,0.9-5.1c0.5-1.9,1.2-3.8,2-5.6
	c0.8-2,2.4-3.2,4.4-3.8c1.3-0.4,2.6-0.8,3.9-1.3C81,92.6,81.4,92.5,81.8,92.4z"/>
<path style="&st13;" d="M80.1,106.6c-0.4,0.4-0.8,0.8-1.3,1.1c-2.6,2-4.5,4.4-5.6,7.5c-0.7,1.9-0.8,3.9-0.7,5.9
	c0.3,3.2,1.2,6.3,2.6,9.2c0.3,0.6,0.5,1.1,0.8,1.6c0,0.1,0,0.1,0.1,0.3c-0.7-0.3-1.1-0.9-1.6-1.4c-2.5-2.7-4-5.8-4.6-9.4
	c-0.7-4.7,0.8-8.5,4.4-11.5c1.6-1.3,3.4-2.3,5.2-3.3C79.7,106.7,79.9,106.6,80.1,106.6C80.1,106.6,80.1,106.6,80.1,106.6z"/>
<path style="&st59;" d="M124.8,65.5c0.1-0.2,0-0.4,0-0.6c-0.2-0.7,0-0.9,0.7-0.9c1.2,0,1.7,0.2,1.9,1.3c0.1,0.6,0.2,1.2,0.3,1.8
	c0,0.2,0,0.3-0.2,0.3c-1,0.1-2,0.2-3,0.5c-0.5,0.1-0.9-0.2-1.2-0.5c-0.5-0.4-1.1-0.6-1.8-0.6c-1.5,0-2.9-0.2-4.3-0.7
	c-0.7-0.3-1.1-1-1.4-1.7c-0.1-0.3,0-0.5,0.4-0.6c0.9-0.2,1.8,0,2.7-0.2c1-0.3,2-0.4,2.9-0.8c0.5-0.2,0.8-0.2,1.3,0.1
	c0.7,0.6,1.3,1.2,1.5,2.2C124.5,65.3,124.6,65.4,124.8,65.5z"/>
<path style="&st60;" d="M108.3,70.2c0.9-1.5,1.8-1.8,3.5-1.4c2.5,0.6,5,1.4,7.3,2.6c1.3,0.7,2.6,1.4,3.7,2.4
	c0.3,0.3,0.8,0.4,1.1,0.8c0.5,0.7,0.8,1.5,0.8,2.4c0.1,0.9,0.1,1.9-0.1,2.8c0,0.1,0,0.3-0.2,0.3c-0.1,0-0.2-0.1-0.2-0.3
	c-0.3-1.9-1.5-3.2-2.8-4.4c-2.8-2.6-6.3-3.5-9.8-4.4c-1-0.3-2-0.6-3.1-0.7C108.4,70.3,108.4,70.2,108.3,70.2z"/>
<path style="&st61;" d="M115.6,116.7c-0.2,0.5-0.6,0.8-0.9,1.2c-1.1,1.4-1.7,3-2.4,4.6c-0.5,1.2-1.1,2.4-1.4,3.6
	c-0.5,2.2-1,4.4-1.4,6.6c0,0.2,0,0.3,0,0.5c0,0.7-0.4,1-1.1,0.8c-0.1,0-0.2-0.1-0.2-0.2c-0.1-1.3-1-2.2-1.5-3.2
	c-0.6-1.3-1.6-2.3-2.5-3.4c-0.1-0.1-0.4-0.2-0.2-0.5c0.2-0.2,0.4-0.2,0.6-0.1c0.5,0.2,1.1,0.4,1.6,0.6c0.4,0.2,0.6,0.1,0.9-0.3
	c0.6-1,1.1-2,1.8-3c0.9-1.3,1.9-2.5,3-3.6c0.7-0.8,1.4-1.5,2.1-2.3C114.5,117.6,115.1,117.2,115.6,116.7z"/>
</svg>
