<?xml version="1.0" encoding="utf-8"?>
<!-- Generator: Adobe Illustrator 24.1.0, SVG Export Plug-In . SVG Version: 6.00 Build 0)  -->
<svg version="1.1" id="Layer_1" xmlns="http://www.w3.org/2000/svg" xmlns:xlink="http://www.w3.org/1999/xlink" x="0px" y="0px"
	 viewBox="0 0 200 200" style="enable-background:new 0 0 200 200;" xml:space="preserve">
<g>
	<path style="fill:#FEFEFE;" d="M57.686,125.574c-5.472-5.476-10.909-10.92-16.35-16.361c-7.926-7.925-15.855-15.846-23.78-23.772
		c-1.673-1.674-1.68-2.915-0.025-4.571c26.556-26.555,53.113-53.11,79.671-79.664c1.535-1.535,2.847-1.549,4.367-0.03
		c20.683,20.681,41.363,41.365,62.046,62.046c5.87,5.87,11.746,11.735,17.618,17.603c1.704,1.702,1.7,2.932-0.01,4.641
		c-13.008,13.002-26.015,26.004-39.023,39.006c-0.793,0.793-0.792,0.79,0.165,1.436c6.257,4.226,12.042,9.015,17.2,14.539
		c1.086,1.163,2.059,2.43,3.137,3.601c1.209,1.314,1.26,2.847,1.018,4.477c-0.677,4.573-2.273,8.861-4.052,13.09
		c-1.444,3.433-3.052,6.79-4.864,10.045c-0.341,0.612-0.395,1.072-0.014,1.721c3.022,5.144,4.55,10.8,5.822,16.58
		c0.643,2.921,0.068,5.604-0.641,8.339c-0.299,1.152-1.367,1.764-2.873,1.743c-5.17-0.073-10.34-0.164-15.511-0.228
		c-25.098-0.313-50.196-0.247-75.294-0.115c-8.682,0.046-17.363,0.224-26.044,0.344c-2.03,0.028-2.868-0.645-3.195-2.617
		c-0.223-1.35-0.454-2.7-0.615-4.058c-0.171-1.441,0.068-2.854,0.462-4.244c1.587-5.588,3.935-10.883,6.223-16.201
		c0.1-0.233,0.141-0.511,0.294-0.699c1.267-1.555,0.678-2.888-0.237-4.412c-2.339-3.898-3.824-8.172-5.048-12.534
		c-0.749-2.67-1.293-5.382-1.663-8.131c-0.151-1.122,0.022-2.129,0.708-3.068c4.121-5.639,9.151-10.353,14.751-14.479
		C53.8,128.225,55.735,126.936,57.686,125.574z"/>
	<path d="M137.763,125.635c4.721,3.055,9.287,6.32,13.516,10.038c3.386,2.976,6.553,6.161,9.444,9.628
		c0.739,0.887,0.889,1.754,0.731,2.809c-0.599,4.009-1.938,7.794-3.469,11.52c-1.736,4.226-3.748,8.32-5.963,12.314
		c-0.247,0.445-0.371,0.783-0.045,1.293c3.573,5.586,5.353,11.807,6.533,18.264c0.377,2.066-0.325,3.901-0.671,5.826
		c-0.094,0.524-0.491,0.401-0.821,0.395c-4.276-0.066-8.552-0.15-12.828-0.204c-6.256-0.078-12.513-0.17-18.769-0.194
		c-13.218-0.05-26.437-0.121-39.655-0.07c-13.79,0.053-27.58,0.237-41.37,0.369c-1.404,0.013-2.808,0.043-4.21,0.115
		c-0.559,0.029-0.73-0.153-0.868-0.697c-0.934-3.697-0.478-7.224,0.874-10.768c1.821-4.774,3.801-9.474,5.83-14.159
		c0.454-1.048,1.293-0.49,2.016-0.774c-0.542-0.842-1.082-1.651-1.592-2.479c-4.201-6.824-6.592-14.277-7.706-22.176
		c-0.074-0.522,0.095-0.908,0.394-1.316c4.66-6.365,10.508-11.46,16.973-15.891c1.736-1.19,3.529-2.297,5.296-3.441
		c0.238-0.552,0.785-0.733,1.248-0.989c3.21-1.783,6.439-3.531,9.836-4.939c0.69-0.286,0.912-0.641,0.644-1.388
		c-1.606-4.487-2.776-9.098-3.788-13.749c-0.193-0.886-0.632-1.467-1.413-1.911c-3.622-2.063-5.345-5.259-5.484-9.371
		c-0.01-0.29,0.052-0.571,0.087-0.856c0.174-1.41-0.072-1.844-1.471-2.218c-2.374-0.635-4.822-0.958-7.181-1.671
		c-4.426-1.337-8.597-3.166-11.817-6.605c-2.236-2.387-3.797-5.151-3.605-8.589c0.176-3.139,1.718-5.659,3.828-7.834
		c2.747-2.832,6.094-4.829,9.642-6.489c4.002-1.872,8.161-3.319,12.442-4.405c0.63-0.16,0.875-0.494,0.957-1.116
		c0.502-3.833,1.172-7.637,2.144-11.381c0.594-2.287,1.285-4.541,2.152-6.748c1.245-3.17,3.321-5.518,6.303-7.174
		c4.287-2.381,8.917-3.589,13.71-4.335c4.342-0.676,8.719-0.708,13.085-0.553c5.867,0.208,11.627,1.126,17.094,3.399
		c1.739,0.723,3.402,1.603,5.024,2.574c2.558,1.53,4.19,3.764,5.299,6.472c1.557,3.804,2.511,7.771,3.271,11.793
		c0.379,2.008,0.753,4.018,0.97,6.051c0.072,0.678,0.496,0.905,1.055,1.054c2.561,0.685,5.1,1.448,7.596,2.34
		c3.889,1.39,7.669,3.007,11.064,5.414c1.887,1.338,3.62,2.819,4.911,4.778c3.36,5.099,2.812,10.849-1.467,15.224
		c-3.461,3.538-7.655,5.529-12.56,6.159c-2.878,0.37-5.733,0.929-8.63,1.165c-0.727,0.059-1.071,0.318-1.028,1.136
		c0.103,1.948-0.062,3.895-0.391,5.814c-0.462,2.697-1.84,4.676-4.635,5.38c-0.637,0.16-0.873,0.541-0.943,1.146
		c-0.394,3.424-0.815,6.843-1.476,10.229c-0.288,1.473-0.554,2.951-0.882,4.415c-0.179,0.798,0.061,1.25,0.791,1.594
		c3.123,1.471,6.127,3.164,9.063,4.978C137.198,125.045,137.592,125.213,137.763,125.635z"/>
	<path style="fill:#D8AC00;" d="M137.763,125.635c-3.509-2.092-7.032-4.16-10.732-5.9c-0.66-0.31-0.454-0.739-0.362-1.185
		c0.76-3.688,1.472-7.384,1.994-11.115c0.203-1.453,0.176-2.931,0.501-4.372c0.094-0.416,0.22-0.655,0.696-0.748
		c2.795-0.547,4.29-2.407,4.794-5.077c0.397-2.103,0.524-4.253,0.366-6.39c-0.053-0.72,0.175-0.825,0.773-0.889
		c3.808-0.403,7.588-0.989,11.359-1.664c4.218-0.755,7.591-2.937,10.458-5.966c4.599-4.859,4.395-11.66-0.423-16.584
		c-3.031-3.097-6.776-5.072-10.707-6.738c-3.651-1.548-7.423-2.742-11.264-3.711c-0.735-0.185-1.003-0.498-1.104-1.264
		c-0.749-5.672-1.852-11.261-3.757-16.684c-1.365-3.885-3.805-6.669-7.473-8.545c-4.701-2.404-9.677-3.829-14.884-4.396
		c-7.492-0.816-14.977-0.781-22.383,0.867c-3.667,0.816-7.16,2.074-10.389,4.048c-2.352,1.438-4.001,3.41-5.082,5.924
		c-1.931,4.492-2.97,9.225-3.836,14.005c-0.295,1.631-0.553,3.273-0.742,4.919c-0.075,0.655-0.317,0.91-0.946,1.069
		c-5.497,1.395-10.807,3.288-15.764,6.084c-2.655,1.498-5.136,3.235-7.125,5.581c-4.166,4.911-4.037,10.362,0.342,15.084
		c3.097,3.34,7.06,5.187,11.312,6.526c2.073,0.653,4.194,1.107,6.331,1.495c0.344,0.063,0.689,0.135,1.025,0.232
		c2.172,0.626,2.092,0.626,2.013,2.88c-0.156,4.466,1.715,7.834,5.707,9.931c0.564,0.296,0.845,0.634,0.985,1.263
		c1.121,5.049,2.366,10.067,4.137,14.936c0.146,0.403,0.13,0.606-0.316,0.791c-4.104,1.699-7.999,3.816-11.863,5.993
		c-0.37-0.396-0.73-0.802-1.113-1.185c-13.593-13.59-27.188-27.178-40.782-40.766c-0.942-0.941-0.943-0.944-0.039-1.848
		C45.885,55.825,72.304,29.414,98.706,2.986c0.583-0.584,0.869-0.511,1.407,0.028c24.979,25,49.973,49.986,74.964,74.974
		c1.49,1.49,2.951,3.011,4.484,4.455c0.593,0.559,0.546,0.852-0.011,1.408c-13.697,13.664-27.375,27.349-41.055,41.03
		C138.247,125.128,138.007,125.383,137.763,125.635z"/>
	<path style="fill:#333530;" d="M125.71,89.888c-1.592,0.246-3.18,0.516-4.776,0.734c-3.464,0.473-6.938,0.812-10.432,1.015
		c-1.817,0.106-3.632,0.039-5.443,0.159c-3.598,0.238-7.194,0.002-10.787-0.062c-3.3-0.059-6.596-0.355-9.889-0.672
		c-4.208-0.405-8.396-0.929-12.531-1.789c-7.22-1.502-14.336-3.322-20.55-7.567c-1.379-0.942-2.589-2.062-3.545-3.443
		c-1.665-2.403-1.561-4.832-0.063-7.251c1.379-2.227,3.388-3.778,5.618-5.069c0.909-0.527,1.819-1.062,2.769-1.508
		c2.131-0.999,4.315-1.87,6.79-2.545c-0.649,1.349-0.95,2.652-1.178,3.978c-0.407,2.368-0.406,4.754-0.39,7.143
		c0.008,1.341,0.035,2.682,0.011,4.022c-0.01,0.58,0.197,0.939,0.704,1.231c2.508,1.443,5.245,2.309,7.989,3.129
		c4.914,1.47,9.966,2.3,15.05,2.862c3.061,0.338,6.144,0.515,9.227,0.675c4.084,0.211,8.164,0.156,12.242,0.107
		c3.398-0.041,6.788-0.333,10.175-0.691c4.277-0.453,8.492-1.17,12.626-2.345c2.706-0.769,5.288-1.822,7.729-3.251
		c1.158-0.678,1.576-1.608,1.677-2.858c0.224-2.769,0.292-5.544,0.158-8.313c-0.095-1.96-0.312-3.94-1.579-5.604
		c0.263-0.196,0.472-0.147,0.649,0.104c1.202,0.767,2.44,1.474,3.524,2.42c1.4,1.223,2.704,2.521,3.732,4.085
		c2.377,3.614,2.044,7.49-0.857,10.73c-2.339,2.612-5.18,4.536-8.235,6.162c-3.017,1.606-6.15,2.965-9.418,3.991
		c-0.471,0.026-0.889,0.368-1.379,0.253C125.413,89.838,125.634,89.71,125.71,89.888z"/>
	<path style="fill:#333530;" d="M128.552,63.002c-1.71,0.771-3.549,1.107-5.353,1.548c-4.045,0.989-8.145,1.707-12.269,2.257
		c-2.297,0.306-4.616,0.52-6.932,0.599c-2.228,0.076-4.452,0.3-6.688,0.218c-7.782-0.285-15.468-1.152-22.897-3.645
		c-0.745-0.25-1.473-0.549-2.194-0.908c11.114,2.421,22.307,3.058,33.622,1.596c-0.882-0.097-1.765-0.179-2.644-0.294
		c-4.647-0.606-9.254-1.355-13.503-3.512c-1.107-0.562-2.023-1.337-2.82-2.257c-1.37-1.581-1.112-3.802,0.521-5.173
		c2.116-1.776,4.671-2.55,7.263-3.238c1.128-0.299,2.272-0.535,3.406-0.953c-0.54,0-1.08,0.005-1.62-0.001
		c-5.734-0.06-11.437-0.422-17.046-1.723c-0.31-0.072-0.617-0.157-0.921-0.251c-1.745-0.543-1.324-0.768-2.297,0.779
		c-2.523,4.01-4.178,8.358-4.91,13.048c-0.044,0.28-0.096,0.554-0.31,0.826c-0.523-3.423,0.014-6.742,0.562-10.049
		c0.472-2.854,1.166-5.663,2.008-8.436c0.175-0.577,0.238-0.95,0.943-0.521c0.478,0.29,1.134,0.162,1.598,0.555
		c0.055,0.441,0.458,0.379,0.73,0.488c3.909,1.56,8.01,2.348,12.142,3.012c4.157,0.668,8.333,1.16,12.533,1.459
		c0.889,0.063,1.775,0.166,2.668,0.202c0.608,0.025,1.197,0.194,1.727,0.515c7.312,4.432,14.653,8.816,21.981,13.222
		C128.131,62.533,128.396,62.707,128.552,63.002z"/>
	<path style="fill:#D8AD00;" d="M80.288,70.679c1.088,0.388,2.243,0.386,3.367,0.532c11.449,1.481,22.9,1.788,34.33-0.17
		c5.177-0.887,10.212-2.287,14.946-4.619c0.733-0.361,0.933-0.235,1.042,0.559c0.305,2.221,0.418,4.443,0.364,6.683
		c-0.015,0.641-0.241,0.957-0.819,1.209c-6.633,2.894-13.53,4.756-20.748,5.404c-6.175,0.555-12.354,0.783-18.549,0.401
		c-3.738-0.23-7.422-0.774-11.036-1.764c-1.183-0.201-2.256-0.691-3.222-1.372c-2.626-1.851-2.519-4.243-0.862-6.544
		C79.402,70.579,79.818,70.513,80.288,70.679z"/>
	<path style="fill:#E0D4DA;" d="M100.533,127.958c0.734-0.555,1.598-0.554,2.456-0.573c1.306-0.029,2.617,0.091,3.914-0.166
		c1.916-0.38,3.136-1.537,3.863-3.417c-5.29,0.668-10.467,1.228-15.194-1.776c5.656,0.694,11.111-0.185,16.622-1.885
		c-0.688-0.619-1.406-0.874-2.113-1.095c-1.337-0.419-2.693-0.784-4.05-1.135c-0.999-0.258-1.915-0.403-2.997,0.112
		c-1.796,0.854-4.096,0.15-5.306-1.324c0.869,0.151,1.713,0.273,2.546,0.449c1.374,0.291,2.567-0.063,3.695-0.859
		c2.08-1.466,3.804-3.298,5.425-5.231c0.403-0.481,0.624-0.55,1.036-0.023c0.45,0.576,1.071,0.981,1.709,1.4
		c0.161-2.346-1.682-5.558-3.688-6.471c0,0.324,0,0.637,0,0.951c-0.138,0.045-0.329-0.111-0.335-0.093
		c-0.367,1.085-1.428,1.286-2.253,1.78c-0.464,0.278-0.898,0.603-1.37,0.866c-0.707,0.394-0.934,0.282-1.086-0.534
		c-0.128-0.688-0.218-1.379-0.203-2.084c0.015-0.73,0.019-1.46-0.115-2.186c-0.068-0.368-0.133-0.765,0.217-1.061
		c0.066,0.139,0.133,0.277,0.289,0.604c0.439-3.408,2.916-4.195,5.586-4.611c4.328-0.675,8.648-0.508,12.932,0.417
		c0.524,0.113,1.061,0.227,1.505,0.567c-0.053,0.08-0.11,0.163-0.197,0.204c-2.84,1.333-4.207,3.786-4.993,6.647
		c-0.469,1.707-0.853,3.44-0.779,5.234c0,0.185,0,0.371,0,0.68c1.048-1.075,1.909-2.208,3.036-3.069
		c0.249,2.115-0.084,4.172-0.659,6.196c-0.307,1.08-0.858,2.043-1.477,2.985c-1.702,2.59-3.533,5.083-5.634,7.36
		c-1.786,1.935-3.837,3.545-6.256,4.648c-0.972,0.443-1.996,0.68-3.046,0.771c-2.131,0.183-3.462-1.209-3.235-3.331
		C100.411,128.583,100.501,128.276,100.533,127.958z"/>
	<path style="fill:#E0D4DA;" d="M129.332,124.866c1.704,1.013,3.212,2.295,4.747,3.532c6.871,5.539,13.168,11.671,18.926,18.361
		c0.503,0.584,0.6,1.105,0.434,1.807c-0.455,1.923-0.887,3.852-1.283,5.789c-0.119,0.584-0.382,0.926-0.915,1.209
		c-5.111,2.719-10.002,5.766-14.22,9.782c-0.689,0.656-1.304,1.388-1.954,2.085c-0.663-0.383-0.163-0.846-0.006-1.182
		c0.633-1.362,1.237-2.733,1.735-4.149c1.181-3.353,1.99-6.777,2.274-10.341c0.372-4.667-0.661-9.06-2.324-13.348
		c-1.648-4.25-3.918-8.161-6.618-11.83C129.759,126.079,129.129,125.652,129.332,124.866z"/>
	<path style="fill:#333530;" d="M65.385,167.438c-1.133-1.012-2.13-2.158-3.28-3.162c-3.204-2.797-6.725-5.122-10.391-7.246
		c-0.909-0.527-1.829-1.042-2.78-1.484c-0.592-0.275-0.87-0.705-0.996-1.294c-0.41-1.925-0.774-3.861-1.252-5.77
		c-0.188-0.751-0.027-1.257,0.453-1.817c4.214-4.919,8.737-9.537,13.532-13.886c2.946-2.671,6.013-5.202,9.222-7.555
		c0.254-0.187,0.543-0.326,0.816-0.487c0.086,0.634-0.348,1.051-0.67,1.489c-2.968,4.035-5.39,8.361-7.113,13.076
		c-2.011,5.504-2.541,11.104-1.247,16.847c0.768,3.407,1.848,6.705,3.39,9.846C65.289,166.44,65.603,166.888,65.385,167.438z"/>
	<path style="fill:#333530;" d="M122.248,39.082c-3.677,1.2-7.376,2.267-11.245,2.719c-3.956,0.462-7.909,0.785-11.908,0.657
		c1.595-0.448,3.294-0.535,4.99-1.428c-2.988-0.278-5.77-0.466-8.505-1.003c-2.341-0.459-4.703-0.906-6.753-2.231
		c-2.139-1.383-2.112-3.319,0.041-4.695c1.808-1.155,3.881-1.585,5.93-2.043c1.113-0.248,2.253-0.383,3.387-0.523
		c1.102-0.136,2.211-0.214,3.316-0.416c-4.708-0.365-9.417-0.372-14.159-0.093c1.51-0.302,3.013-0.646,4.532-0.896
		c3.691-0.61,7.418-0.732,11.143-0.558c2.076,0.097,4.157,0.3,6.203,0.72c1.714,1.09,3.476,2.107,5.13,3.29
		c2.408,1.721,4.818,3.447,6.687,5.788C121.368,38.785,121.897,38.76,122.248,39.082z"/>
	<path style="fill:#333530;" d="M129.332,124.866c-0.046,0.412,0.297,0.611,0.497,0.879c4.387,5.867,7.798,12.194,9.15,19.483
		c1.075,5.796,0.031,11.36-1.896,16.82c-0.552,1.565-1.216,3.085-1.911,4.592c-0.104,0.226-0.47,0.479-0.106,0.79
		c-0.121,0.273-0.242,0.546-0.363,0.819c-0.519,0.673-0.731,1.567-1.492,2.065c-1.829-0.242-3.669-0.187-5.506-0.171
		c-0.757,0.007-1.518-0.073-2.42,0.195c0.622-1.385,1.22-2.597,1.72-3.848c2.084-5.211,3.501-10.607,4.439-16.136
		c0.646-3.807,1.001-7.646,0.722-11.49c-0.357-4.925-1.136-9.785-3.461-14.25c-0.024-0.047-0.003-0.117-0.003-0.235
		C129.066,124.361,129.308,124.454,129.332,124.866z"/>
	<path style="fill:#E0D4DA;" d="M65.385,167.438c-0.775-1.847-1.591-3.678-2.32-5.543c-3.884-9.94-2.739-19.485,2.29-28.722
		c1.465-2.692,3.077-5.285,4.943-7.72c0.165-0.215,0.447-0.379,0.412-0.716c0.11-0.135,0.315-0.233,0.297,0.006
		c-0.026,0.332-0.207,0.655-0.334,0.976c-2.558,6.451-3.275,13.157-2.593,20.012c0.743,7.471,2.592,14.679,5.529,21.597
		c0.383,0.903,0.847,1.772,1.332,2.781c-2.748-0.229-5.403-0.253-8.054-0.013c-0.723-0.497-0.95-1.274-1.163-2.059
		C65.611,167.838,65.498,167.638,65.385,167.438z"/>
	<path style="fill:#E0D4DA;" d="M128.552,63.002c-2.168-1.087-4.181-2.441-6.26-3.679c-5.289-3.149-10.566-6.319-15.814-9.535
		c-0.993-0.609-1.99-0.873-3.132-0.953c-6.749-0.474-13.47-1.198-20.086-2.675c-2.635-0.588-5.26-1.233-7.764-2.622
		c0.276-0.033,0.427-0.051,0.578-0.069c2.271,0.738,4.604,1.229,6.937,1.71c6.264,1.291,12.594,2.047,18.992,2.049
		c8.075,0.002,15.969-1.054,23.397-4.468c0.634-0.291,0.755,0.022,0.923,0.474c1.025,2.775,1.5,5.67,1.817,8.589
		C128.543,55.537,128.667,59.267,128.552,63.002z"/>
	<path style="fill:#D1A900;" d="M77.725,185.096c0-1.394-0.008-2.789,0.005-4.183c0.003-0.357-0.144-0.595-0.405-0.816
		c-0.236-0.199-0.463-0.391-0.507-0.765c-0.169-1.445-0.088-1.554,1.387-1.554c1.022,0,2.044,0.024,3.065-0.009
		c0.543-0.018,0.827,0.081,0.784,0.721c-0.045,0.666,0.066,1.341-0.643,1.766c-0.291,0.174-0.203,0.515-0.204,0.794
		c-0.005,3.225,0.002,6.451-0.012,9.676c-0.002,0.417,0.091,0.75,0.436,0.996c0.243,0.173,0.381,0.38,0.413,0.706
		c0.148,1.496,0.095,1.394-1.381,1.584c-1.894,0.245-2.874-0.431-3.497-2.224c-0.643-1.85-1.618-3.584-2.635-5.335
		c0,1.538,0.001,3.077-0.001,4.615c0,0.336,0.249,0.506,0.466,0.684c0.238,0.196,0.345,0.418,0.37,0.733
		c0.12,1.476,0.117,1.489-1.355,1.489c-0.926,0-1.853,0.019-2.778-0.01c-0.356-0.011-0.93,0.217-1.022-0.222
		c-0.122-0.585-0.372-1.376,0.179-1.804c0.683-0.531,0.663-1.159,0.661-1.864c-0.009-2.906-0.014-5.812,0.002-8.718
		c0.003-0.567-0.064-1.028-0.564-1.418c-0.673-0.525-0.269-1.302-0.301-1.972c-0.003-0.055,0.191-0.143,0.305-0.173
		c0.12-0.032,0.254-0.01,0.381-0.015c3.185-0.111,3.18-0.109,4.505,2.786c0.701,1.532,1.422,3.055,2.135,4.582
		C77.586,185.129,77.656,185.112,77.725,185.096z"/>
	<path style="fill:#E0D4DA;" d="M126.661,89.292c4.306-1.525,8.492-3.312,12.346-5.795c2.344-1.511,4.515-3.221,6.087-5.58
		c1.887-2.831,1.95-5.721,0.248-8.645c-1.595-2.74-3.961-4.707-6.544-6.456c-0.299-0.202-0.808-0.216-0.84-0.738
		c3.895,1.448,7.684,3.107,11.038,5.617c1.127,0.844,2.165,1.783,2.995,2.933c1.722,2.385,1.783,4.934,0.145,7.392
		c-1.304,1.957-3.132,3.34-5.114,4.529c-4.389,2.631-9.189,4.242-14.093,5.57c-1.936,0.525-3.903,0.934-5.856,1.395
		C126.878,89.549,126.634,89.672,126.661,89.292z"/>
	<path style="fill:#D5AB00;" d="M125.435,185.613c-0.001,1.691,0.007,3.383-0.007,5.074c-0.004,0.439,0.048,0.818,0.456,1.077
		c0.25,0.159,0.376,0.388,0.409,0.709c0.145,1.433,0.1,1.496-1.344,1.496c-0.894,0-1.787,0-2.681,0
		c-1.197,0-1.902-1.021-1.134-1.908c0.784-0.906,0.596-1.811,0.605-2.756c0.004-0.45,0.271-1.158-0.203-1.309
		c-0.636-0.203-1.385-0.078-2.083-0.04c-0.3,0.016-0.241,0.329-0.243,0.541c-0.007,0.798,0.012,1.596-0.01,2.393
		c-0.01,0.365,0.149,0.617,0.421,0.805c0.3,0.206,0.36,0.48,0.374,0.821c0.06,1.453,0.07,1.453-1.387,1.453
		c-0.925,0-1.851,0.019-2.776-0.01c-0.353-0.011-0.928,0.213-1.014-0.212c-0.119-0.586-0.354-1.359,0.171-1.812
		c0.576-0.497,0.614-1.045,0.612-1.695c-0.013-3.191-0.009-6.382-0.006-9.574c0.001-1.203,1.688-2.883,2.89-2.887
		c0.957-0.004,1.925,0.09,2.869-0.022c1.429-0.17,2.495,0.275,3.403,1.391c0.427,0.525,0.716,0.975,0.694,1.678
		C125.402,182.421,125.436,184.018,125.435,185.613z"/>
	<path style="fill:#ECE5E8;" d="M100.533,127.958c0.344,0.207,0.172,0.474,0.115,0.754c-0.561,2.751,1.684,3.512,3.383,3.218
		c3.888-0.674,6.633-3.081,9.177-5.874c2.127-2.334,3.927-4.896,5.627-7.538c0.927-1.44,1.327-3.065,1.496-4.754
		c0.116-1.163,0.235-2.326,0.353-3.489c0.997-1.068,2.224-1.756,3.706-2.32c-0.089,1.666-0.493,3.14-0.693,4.642
		c-0.832,6.244-4.197,11.114-8.345,15.578c-2.443,2.629-5.044,5.058-8.232,6.778c-1.686,0.91-3.438,1.491-5.399,1.285
		c-2.044-0.215-3.214-1.231-3.34-3.257C98.258,130.991,98.796,129.195,100.533,127.958z"/>
	<path style="fill:#D3AA00;" d="M94.416,185.922c0,1.788,0.007,3.576-0.003,5.364c-0.006,0.959-1.727,2.678-2.687,2.682
		c-2.299,0.01-4.598,0.015-6.896-0.008c-0.371-0.004-0.976,0.255-1.073-0.265c-0.109-0.583-0.35-1.337,0.225-1.8
		c0.532-0.429,0.585-0.919,0.582-1.513c-0.014-3.065-0.014-6.13-0.002-9.195c0.002-0.471-0.068-0.846-0.476-1.167
		c-0.708-0.557-0.355-1.355-0.334-2.054c0.007-0.249,0.365-0.182,0.576-0.183c2.522-0.004,5.045,0.009,7.567-0.013
		c0.496-0.004,0.71,0.346,1.037,0.585c1.25,0.914,1.668,2.106,1.514,3.643c-0.129,1.296-0.027,2.615-0.027,3.924
		C94.418,185.922,94.417,185.922,94.416,185.922z"/>
	<path style="fill:#D5AB00;" d="M145.558,193.97c-1.308,0-2.617,0.02-3.924-0.012c-0.371-0.009-0.974,0.268-1.071-0.274
		c-0.104-0.584-0.343-1.329,0.247-1.796c0.528-0.418,0.596-0.904,0.593-1.504c-0.018-2.999-0.016-5.998-0.004-8.997
		c0.002-0.559-0.038-1.03-0.545-1.424c-0.673-0.522-0.301-1.303-0.301-1.971c0-0.261,0.349-0.21,0.563-0.211
		c2.967-0.003,5.934,0.009,8.901-0.011c0.537-0.004,0.633,0.229,0.623,0.69c-0.023,1.02-0.028,2.042,0.001,3.063
		c0.013,0.468-0.149,0.691-0.61,0.788c-0.716,0.15-1.433,0.319-2.127,0.55c-0.545,0.181-0.703,0-0.666-0.51
		c0.005-0.063,0.001-0.128,0-0.191c-0.031-1.479-0.439-1.769-1.958-1.471c-0.407,0.08-0.413,0.317-0.413,0.613
		c0,0.798,0.026,1.596-0.01,2.392c-0.023,0.51,0.166,0.665,0.66,0.651c1.02-0.029,2.043,0.024,3.062-0.02
		c0.604-0.026,0.824,0.127,0.828,0.78c0.015,2.316,0.041,2.316-2.261,2.316c-2.282,0-2.297,0-2.269,2.282
		c0.005,0.442-0.29,1.115,0.222,1.291c0.571,0.196,1.264,0.108,1.892,0.039c0.389-0.043,0.27-0.476,0.234-0.72
		c-0.115-0.779,0.251-1.083,0.967-1.196c0.781-0.124,1.736-0.8,2.254-0.438c0.544,0.38,0.14,1.48,0.176,2.263
		c0.035,0.764-0.029,1.533,0.018,2.296c0.038,0.611-0.215,0.754-0.776,0.742C148.43,193.95,146.994,193.97,145.558,193.97z"/>
	<path style="fill:#333530;" d="M118.425,136.634c1.949-2.385,3.761-4.871,5.59-7.56c0.596,1.624,0.889,3.194,1.101,4.775
		c0.706,5.257,0.118,10.436-0.896,15.605c-1.011,5.152-2.672,10.068-4.972,14.777c-0.264,0.54-0.582,1.053-0.916,1.653
		c-0.362-0.393-0.394-0.73-0.113-1.102c0.386-1.361,0.438-2.778,0.694-4.162c0.281-1.524,0.357-3.082,0.746-4.589
		c0.146-0.183,0.337-0.124,0.524-0.098c1.125,0.158,1.795-0.172,2.149-1.199c0.392-1.138,0.377-2.317,0.006-3.461
		c-0.215-0.665-0.698-1.124-1.389-1.333c-0.269-0.081-0.571-0.099-0.746-0.374c-0.119-0.236-0.144-0.491-0.144-0.747
		C120.068,144.684,119.693,140.599,118.425,136.634z"/>
	<path style="fill:#D1A900;" d="M51.147,177.777c0.255,0,0.521,0.046,0.764-0.007c1.732-0.383,2.812,0.605,3.788,1.791
		c0.573,0.696,0.279,1.537,0.246,2.301c-0.025,0.579-0.693,0.43-1.084,0.559c-0.604,0.201-1.235,0.317-1.845,0.5
		c-0.49,0.146-0.741,0.04-0.676-0.514c0.004-0.031,0.001-0.064,0-0.096c-0.047-1.403-0.541-1.75-1.982-1.425
		c-0.221,0.05-0.349,0.123-0.358,0.354c-0.004,0.096-0.001,0.192-0.006,0.287c-0.149,2.775-0.149,2.775,2.634,2.775
		c1.858,0,3.358,1.508,3.358,3.376c0,0.862-0.08,1.733,0.018,2.583c0.141,1.228-0.301,2.099-1.205,2.906
		c-0.609,0.544-1.165,0.892-2.007,0.821c-0.824-0.07-1.687-0.153-2.482,0.013c-1.765,0.368-2.725-0.734-3.683-1.837
		c-0.555-0.639-0.239-1.475-0.222-2.212c0.013-0.604,0.694-0.414,1.062-0.601c0.222-0.113,0.488-0.145,0.736-0.201
		c0.556-0.125,1.231-0.489,1.637-0.295c0.398,0.191,0.125,0.984,0.145,1.51c0.013,0.364,0.137,0.472,0.5,0.509
		c1.858,0.189,1.857,0.202,1.857-1.641c0-1.8-0.002-1.854-1.798-1.782c-1.36,0.054-2.532-0.071-3.451-1.287
		c-0.446-0.59-0.795-1.077-0.739-1.846c0.064-0.889,0.093-1.795-0.004-2.678c-0.141-1.285,0.244-2.247,1.259-3.073
		C48.492,177.848,48.434,177.777,51.147,177.777z"/>
	<path style="fill:#E0D4DA;" d="M119.769,155.965c-0.269,2.978-0.703,5.931-1.353,8.851c-0.007,0.031-0.001,0.08-0.02,0.091
		c-0.149,0.091-0.106-0.099-0.178-0.125c-0.002-0.318-0.003-0.637-0.005-0.955c-0.232-0.962,0.058-1.952-0.154-2.915
		c-0.608-6.618-2.907-12.354-8.547-16.359c3.4-2.174,6.206-4.991,8.913-7.919c0.444,0.253,0.455,0.741,0.584,1.145
		c1.138,3.583,1.303,7.283,1.292,11.003c-0.001,0.285,0.009,0.569,0.013,0.854c-0.015,0.13-0.066,0.243-0.151,0.342
		c-1.621,1.883-1.768,3.363-0.548,5.541C119.693,155.659,119.762,155.801,119.769,155.965z"/>
	<path style="fill:#463907;" d="M80.288,70.679c-0.538-0.055-0.862,0.214-1.153,0.649c-1.695,2.53-1.176,4.827,1.491,6.334
		c0.825,0.466,1.704,0.837,2.559,1.252c-2.269-0.058-4.45-0.654-6.648-1.126c-3.484-0.748-6.916-1.679-10.255-2.945
		c-0.579-0.22-0.782-0.497-0.779-1.103c0.009-2.165,0.07-4.32,0.39-6.47c0.112-0.755,0.374-0.8,0.994-0.578
		c3.775,1.35,7.622,2.466,11.478,3.557C79.004,70.431,79.688,70.361,80.288,70.679z"/>
	<path style="fill:#333530;" d="M81.404,162.638c0,1.065,0,2.13,0,3.304c-4.864-5.78-8.382-29.783-5.484-37.084
		c1.583,2.795,3.511,5.303,5.512,7.759c-0.406,1.929-0.917,3.833-1.1,5.811c-0.188,2.032-0.21,4.07-0.345,6.102
		c-0.023,0.349,0.009,0.703-0.147,1.032c-0.068,0.111-0.164,0.19-0.286,0.24c-2.067,0.845-2.843,3.601-1.541,5.45
		c0.374,0.532,0.844,0.855,1.523,0.819c0.245-0.013,0.52-0.074,0.694,0.197c0.516,1.689,0.415,3.461,0.71,5.18
		c0.192,1.115,0.083,2.258,0.257,3.377c0.041,0.123,0.219-0.016,0.1,0.031c-0.047,0.018-0.086,0.002-0.082-0.046
		C81.28,164.087,80.666,163.303,81.404,162.638z"/>
	<path style="fill:#D5AB00;" d="M103.235,185.919c0-1.819-0.006-3.638,0.003-5.456c0.005-0.976,1.698-2.673,2.673-2.68
		c1.34-0.01,2.682,0.042,4.02-0.02c0.772-0.035,1.247,0.33,1.842,0.749c1.781,1.254,1.179,3.046,1.257,4.694
		c0.014,0.3-0.234,0.331-0.455,0.384c-0.867,0.211-1.739,0.41-2.598,0.652c-0.432,0.122-0.575,0.011-0.564-0.431
		c0.019-0.765-0.015-1.532,0.01-2.297c0.014-0.442-0.124-0.596-0.59-0.623c-2.058-0.12-2.056-0.137-2.057,1.937
		c0,2.393,0.017,4.787-0.014,7.179c-0.008,0.628,0.108,0.901,0.824,0.893c1.819-0.018,1.852,0.018,1.816-1.771
		c-0.013-0.657,0.144-0.989,0.833-1.093c0.721-0.109,1.432-0.316,2.134-0.523c0.487-0.143,0.697-0.07,0.681,0.495
		c-0.032,1.148-0.036,2.298-0.003,3.446c0.023,0.784-0.673,1.024-1.035,1.515c-0.597,0.809-1.37,1.128-2.394,1.019
		c-0.852-0.091-1.747-0.152-2.577,0.009c-1.726,0.334-2.618-0.783-3.603-1.816c-0.258-0.271-0.197-0.592-0.197-0.903
		c-0.005-1.787-0.003-3.574-0.003-5.361C103.237,185.919,103.236,185.919,103.235,185.919z"/>
	<path style="fill:#E0D4DA;" d="M79.737,149.63c0.064-3.375,0.062-6.756,0.747-10.082c0.207-1.005,0.261-2.074,0.948-2.93
		c2.732,2.911,5.624,5.637,9.095,7.766c-6.411,4.422-8.701,10.875-9.123,18.255c-0.043,0.375-0.104,0.75-0.126,1.126
		c-0.022,0.379-0.005,0.76-0.075,1.145c-0.568-2.896-0.781-5.833-1.13-8.753c-0.04-0.175,0.056-0.301,0.148-0.432
		c1.46-2.09,1.375-3.809-0.279-5.677C79.834,149.926,79.745,149.798,79.737,149.63z"/>
	<path style="fill:#D6AB00;" d="M133.47,177.78c1.563,0,3.127,0.017,4.69-0.009c0.537-0.009,0.814,0.085,0.795,0.72
		c-0.043,1.434-0.033,2.871-0.004,4.307c0.01,0.533-0.152,0.787-0.704,0.713c-0.031-0.004-0.064-0.001-0.096,0
		c-2.113,0.054-2.108,0.054-2.172-2.016c-0.01-0.313,0.158-0.783-0.412-0.785c-0.571-0.002-0.414,0.467-0.415,0.78
		c-0.011,3.063-0.002,6.126-0.014,9.189c-0.002,0.447,0.082,0.815,0.484,1.067c0.251,0.157,0.394,0.362,0.428,0.692
		c0.15,1.481,0.115,1.534-1.392,1.534c-0.893,0-1.788,0.023-2.68-0.011c-0.379-0.015-0.982,0.243-1.09-0.244
		c-0.128-0.58-0.363-1.353,0.19-1.803c0.6-0.487,0.609-1.045,0.607-1.692c-0.013-2.903,0-5.807-0.016-8.71
		c-0.002-0.297,0.205-0.777-0.377-0.801c-0.591-0.025-0.416,0.452-0.426,0.761c-0.068,2.079-0.063,2.052-2.157,2.055
		c-0.669,0.001-0.888-0.196-0.864-0.868c0.046-1.338,0.044-2.681,0-4.019c-0.022-0.649,0.146-0.896,0.84-0.875
		C130.279,177.813,131.875,177.78,133.47,177.78z"/>
	<path style="fill:#D5AB00;" d="M63.136,184.542c0.507-1.337,0.936-2.469,1.367-3.601c0.107-0.282,0.184-0.563-0.138-0.76
		c-0.808-0.493-0.508-1.29-0.548-1.99c-0.026-0.437,0.301-0.41,0.59-0.411c1.341-0.002,2.682,0.01,4.023-0.007
		c0.408-0.005,0.559,0.127,0.556,0.548c-0.004,0.765,0.101,1.528-0.726,2.017c-0.21,0.124-0.307,0.47-0.414,0.731
		c-0.723,1.773-1.388,3.571-2.164,5.32c-0.532,1.198-0.78,2.404-0.707,3.708c0.04,0.703-0.006,1.331,0.666,1.865
		c0.503,0.4,0.282,1.164,0.168,1.722c-0.11,0.541-0.703,0.26-1.075,0.273c-1.085,0.036-2.171,0.031-3.256,0.002
		c-0.353-0.009-0.912,0.226-1.017-0.23c-0.13-0.559-0.324-1.305,0.124-1.743c1.29-1.264,0.865-2.796,0.479-4.093
		c-0.707-2.377-1.774-4.646-2.685-6.962c-0.132-0.335-0.311-0.616-0.609-0.831c-0.259-0.186-0.443-0.406-0.476-0.777
		c-0.137-1.517-0.127-1.545,1.383-1.545c0.894,0,1.79-0.028,2.682,0.013c0.37,0.017,0.974-0.274,1.069,0.253
		c0.106,0.588,0.349,1.372-0.193,1.813c-0.63,0.513-0.514,0.963-0.268,1.564C62.363,182.394,62.706,183.388,63.136,184.542z"/>
	<path style="fill:#333530;" d="M85.654,127.521c-1.187-1.506-2.392-2.999-3.556-4.522c-2.535-3.314-5.002-6.67-6.868-10.431
		c-1.177-2.373-1.795-4.898-2.181-7.476c-0.452-3.019-0.66-6.068-0.615-9.128c0.002-0.114,0.016-0.227,0.145-0.359
		c0.252,1.001,0.521,1.999,0.753,3.005c0.304,1.319,0.851,2.53,1.577,3.664c0.366,0.571,0.86,1.003,1.455,1.347
		c3.483,2.011,5.651,5.026,6.688,8.902c-1.089-1.533-2.403-2.828-3.977-3.842c-0.694-0.447-1.427-0.836-2.154-1.231
		c-0.544-0.296-0.683-0.047-0.608,0.483c0.362,2.587,1.183,4.975,2.683,7.161c2.255,3.288,4.014,6.867,5.813,10.418
		c0.324,0.64,0.663,1.274,0.995,1.91C85.753,127.455,85.703,127.488,85.654,127.521z"/>
	<path style="fill:#D1A900;" d="M98.538,177.778c0.542,0,1.087-0.034,1.626,0.011c0.377,0.032,0.981-0.267,1.082,0.254
		c0.112,0.582,0.358,1.354-0.214,1.8c-0.602,0.469-0.648,1.01-0.644,1.666c0.017,2.998,0.016,5.997-0.002,8.995
		c-0.003,0.544,0.083,0.969,0.559,1.323c0.663,0.493,0.398,1.258,0.3,1.867c-0.086,0.533-0.7,0.255-1.073,0.267
		c-1.083,0.035-2.169,0.036-3.252,0c-0.366-0.012-0.969,0.267-1.047-0.303c-0.079-0.587-0.35-1.327,0.251-1.792
		c0.531-0.41,0.615-0.89,0.611-1.494c-0.019-2.998-0.017-5.996-0.003-8.995c0.003-0.563-0.046-1.039-0.551-1.425
		c-0.686-0.524-0.311-1.299-0.31-1.965c0-0.255,0.351-0.205,0.565-0.206C97.134,177.775,97.836,177.778,98.538,177.778z"/>
	<path style="fill:#463907;" d="M108.081,168.994c0.332,0.417,0.117,0.595-0.3,0.577c-2.19-0.095-4.381,0.143-6.574-0.113
		c-1.162-0.135-2.351-0.051-3.528-0.055c-1.591-0.006-3.182-0.015-4.773,0.006c-0.512,0.007-0.796-0.129-0.728-0.696
		c0.272-2.286,0.731-4.511,2.1-6.439c0.379-0.534,0.802-0.999,1.546-0.922c0.473,0.397,1.035,0.069,1.557,0.198
		c2.434,0.6,3.934,2.107,4.561,4.512c0.185,0.711,0.294,1.435,0.262,2.173c-0.026,0.583,0.198,0.902,0.827,0.882
		C104.712,169.065,106.402,169.237,108.081,168.994z"/>
	<path style="fill:#E0D4DA;" d="M100.368,113.696c-0.642-0.504-0.904-1.243-1.06-1.979c-0.831-3.917-1.084-7.877-0.63-11.86
		c0.15-1.314,0.634-2.54,1.697-3.43c0.785-0.657,1.364-0.603,2.125,0.143c0.173,2.477,0.172,4.951-0.015,7.43
		c-0.168,2.223-0.02,4.456-0.068,6.683C102.383,112.194,101.708,113.171,100.368,113.696z"/>
	<path style="fill:#D8AC00;" d="M108.081,168.994c-0.021,0.507-0.405,0.389-0.698,0.39c-1.56,0.009-3.12-0.015-4.679,0.023
		c-0.587,0.015-0.793-0.168-0.753-0.756c0.054-0.796-0.051-1.588-0.219-2.369c-0.599-2.773-2.633-4.448-5.566-4.61
		c-0.093-0.005-0.754,0.322-0.343-0.321c2.491-0.462,4.974-0.673,7.48-0.043c1.641,0.413,2.805,1.254,3.289,2.951
		C107.047,165.85,107.581,167.417,108.081,168.994z"/>
	<path style="fill:#E0D4DA;" d="M122.248,39.082c-0.628,0.126-1.022-0.129-1.44-0.628c-2.363-2.823-5.36-4.893-8.404-6.894
		c-0.933-0.613-1.904-1.167-2.842-1.772c-0.156-0.101-0.569-0.1-0.341-0.494c1.606,0.379,3.232,0.67,4.804,1.19
		c3.295,1.091,6.441,2.44,8.884,5.033c0.066,0.07,0.141,0.132,0.198,0.208C125.085,38.371,125.06,38.036,122.248,39.082z"/>
	<path style="fill:#333530;" d="M65.723,168.038c0.388,0.686,0.775,1.373,1.163,2.059c-0.289,0.378-0.706,0.204-1.068,0.233
		c-3.007,0.245-6.016,0.47-9.022,0.728c-0.432,0.037-0.746-0.041-0.985-0.404c-0.752-1.144-1.501-2.289-2.265-3.425
		c-0.417-0.621-0.15-0.741,0.461-0.728c3.222,0.067,6.386,0.558,9.534,1.209C64.258,167.857,64.948,168.261,65.723,168.038z"/>
	<path style="fill:#E0D4DA;" d="M133.212,170.315c0.508-0.68,0.621-1.647,1.492-2.065c3.611-0.83,7.242-1.53,10.958-1.674
		c0.407-0.016,0.814-0.002,1.413-0.002c-0.97,1.516-1.867,2.928-2.775,4.333c-0.248,0.384-0.644,0.2-0.968,0.177
		C139.959,170.838,136.585,170.574,133.212,170.315z"/>
	<path style="fill:#D8AC00;" d="M99.684,148.539c0.635-0.012,1.277,0.032,1.902-0.049c1.399-0.182,2.206,0.585,2.817,1.673
		c1.001,1.784,0.927,3.721,0.761,5.667c-0.031,0.361-0.229,0.407-0.523,0.312c-1.565-0.538-3.128-1.082-4.816-1.062
		c-0.646,0.008-1.033-0.325-1.103-0.952c-0.151-1.358-0.279-2.721-0.281-4.086C98.439,149.25,98.936,148.765,99.684,148.539z"/>
	<path style="fill:#ECE5E8;" d="M100.368,113.696c0.095-0.305,0.386-0.401,0.604-0.579c0.75-0.612,1.24-1.358,1.158-2.383
		c-0.02-0.253-0.006-0.51-0.003-0.764c0.063-4.23,0.127-8.459,0.192-12.689c0.004-0.249-0.053-0.517,0.179-0.71
		c0.351,0.239,0.454,0.624,0.583,0.994c0.222,1.629,0.028,3.266,0.101,4.897c0.015,0.336-0.12,0.694,0.115,1.006
		c0.049,0.043,0.052,0.088,0.008,0.136c0.119,1.857,0.238,3.713,0.358,5.57c0.024,0.374,0.19,0.439,0.488,0.221
		c0.977-0.713,2.055-1.252,3.117-1.822c0.458-0.246,0.699-0.721,0.845-1.249c0.245,0.139,0.066,0.498,0.337,0.592
		c0.306,1.167-0.005,2.047-1.004,2.814c-1.588,1.22-3.061,2.587-4.614,3.854C101.896,114.346,101.193,114.342,100.368,113.696z"/>
	<path style="fill:#463907;" d="M99.684,148.539c-1.031,0.769-1.133,1.787-0.904,2.97c0.156,0.807,0.141,1.651,0.167,2.48
		c0.021,0.666,0.254,0.919,0.985,0.882c1.689-0.085,3.287,0.298,4.708,1.272c-3.197-0.465-6.387-0.257-9.572,0.117
		c-0.332,0.039-0.599,0.082-0.586-0.347c0.067-2.368,0.239-4.69,1.92-6.614C97.354,148.211,98.534,148.537,99.684,148.539z"/>
	<path style="fill:#EBE4E7;" d="M117.649,112.663c-0.429-0.958-0.157-1.92,0.004-2.874c0.487-2.881,1.285-5.637,3.458-7.758
		c0.701-0.684,1.51-1.248,2.507-1.453c1.381,0.629,1.522,1.464,0.286,2.376c-1.318,0.971-2.55,1.989-3.523,3.33
		c-1.216,1.675-1.801,3.609-2.472,5.515C117.809,112.082,117.735,112.374,117.649,112.663z"/>
	<path style="fill:#F5F8F1;" d="M89.414,176.094c-0.497,0.038-0.938,0.008-0.536-0.757c0.107-0.203,0.067-0.498,0.05-0.748
		c-0.024-0.348-0.323-0.275-0.512-0.236c-0.539,0.109-0.371,0.624-0.265,0.831c0.528,1.035-0.153,0.91-0.785,0.917
		c-0.557,0.006-0.574-0.171-0.459-0.69c0.254-1.144,0.23-2.319-0.002-3.475c-0.042-0.212-0.223-0.483,0.028-0.578
		c0.413-0.156,0.889-0.162,1.299,0.004c0.226,0.092,0.092,0.373,0.012,0.582c-0.183,0.478-0.273,0.973,0.059,1.418
		c0.057,0.076,0.387,0.077,0.448,0c0.348-0.441,0.238-0.937,0.073-1.416c-0.072-0.21-0.211-0.493,0.017-0.585
		c0.41-0.166,0.896-0.168,1.298-0.008c0.293,0.117,0.038,0.411-0.011,0.646c-0.23,1.094-0.2,2.214-0.04,3.304
		C90.206,176.112,90.303,176.098,89.414,176.094z"/>
	<path style="fill:#F6F9F3;" d="M103.896,173.746c0.077,0.56-0.164,1.243,0.191,1.879c0.064,0.114,0.096,0.384-0.088,0.405
		c-0.437,0.049-0.888,0.065-1.322,0.008c-0.223-0.029-0.173-0.309-0.097-0.479c0.185-0.415,0.352-0.829-0.002-1.226
		c-0.054-0.061-0.305-0.054-0.358,0.01c-0.331,0.402-0.202,0.814,0.011,1.23c0.086,0.169,0.119,0.445-0.111,0.474
		c-0.437,0.054-0.887,0.026-1.329-0.002c-0.157-0.01-0.164-0.21-0.116-0.309c0.536-1.093,0.18-2.254,0.264-3.38
		c0.077-1.031,0.757-1.079,1.552-1.083c0.809-0.003,1.385,0.201,1.403,1.133C103.903,172.821,103.896,173.236,103.896,173.746z"/>
	<path style="fill:#32342F;" d="M93.22,106.115c-0.279,0.499-0.587,0.984-0.832,1.499c-0.572,1.2-0.34,2.283,0.551,3.242
		c0.889,0.956,1.84,1.844,2.9,2.636c-1.702-0.419-3.419-0.749-4.787-1.996c-0.671-0.611-0.74-1.299-0.521-2.079
		C90.944,107.942,91.954,106.917,93.22,106.115z"/>
	<path style="fill:#F6F8F2;" d="M107.279,173.73c-0.001,0.318-0.006,0.637,0.001,0.955c0.005,0.211-0.056,0.481,0.3,0.465
		c0.18-0.008,0.426,0.069,0.501-0.146c0.056-0.161,0.05-0.487-0.035-0.531c-0.432-0.221-0.566-0.622-0.336-0.928
		c0.263-0.35,0.775-0.103,1.175-0.145c0.083-0.009,0.234,0.03,0.251,0.081c0.217,0.647,0.177,1.327,0.044,1.963
		c-0.077,0.369-0.439,0.689-0.941,0.655c-0.349-0.024-0.701,0.008-1.05-0.007c-0.634-0.029-1.004-0.366-1.02-1.004
		c-0.023-0.923-0.016-1.847-0.005-2.77c0.008-0.642,0.363-0.992,0.995-1.026c0.444-0.024,0.906-0.069,1.332,0.024
		c0.452,0.099,0.752,0.433,0.763,0.958c0.007,0.333-0.088,0.494-0.445,0.594c-0.476,0.133-0.706,0.1-0.732-0.46
		c-0.011-0.243-0.299-0.158-0.476-0.171c-0.25-0.02-0.326,0.123-0.323,0.349C107.284,172.965,107.28,173.348,107.279,173.73z"/>
	<path style="fill:#F6F9F2;" d="M111.249,173.624c0-0.223,0-0.445,0-0.668c0-1.555,0.538-2,2.061-1.658
		c0.512,0.115,0.809,0.46,0.806,1.019c-0.005,0.923,0.032,1.847-0.013,2.767c-0.051,1.033-0.817,1.012-1.583,1.019
		c-0.747,0.007-1.247-0.217-1.265-1.048c-0.01-0.477-0.002-0.954-0.002-1.431C111.252,173.624,111.251,173.624,111.249,173.624z"/>
	<path style="fill:#F6F8F2;" d="M83.97,173.202c-0.017-0.207-0.053-0.396-0.043-0.582c0.015-0.282-0.088-0.395-0.378-0.395
		c-0.275-0.001-0.404,0.074-0.399,0.372c0.013,0.731,0.005,1.462,0.002,2.193c-0.001,0.21,0.037,0.386,0.304,0.358
		c0.17-0.018,0.47,0.077,0.444-0.193c-0.064-0.66,0.382-0.742,0.825-0.754c0.405-0.011,0.24,0.364,0.268,0.584
		c0.077,0.597-0.103,1.1-0.711,1.286c-1.514,0.462-2.243-0.097-2.244-1.674c-0.001-0.699-0.028-1.4,0.006-2.098
		c0.04-0.838,0.507-1.063,1.867-1.023c0.755,0.022,1.059,0.391,1.099,1.123C85.054,173.21,84.474,173.106,83.97,173.202z"/>
	<path style="fill:#F6F8F2;" d="M95.903,173.67c0-0.223,0-0.446,0-0.669c-0.001-1.606,0.684-2.13,2.224-1.702
		c0.571,0.159,0.975,1.07,0.685,1.565c-0.169,0.289-0.497,0.277-0.765,0.303c-0.443,0.044-0.278-0.335-0.286-0.543
		c-0.011-0.277-0.085-0.407-0.384-0.398c-0.275,0.008-0.404,0.1-0.399,0.391c0.011,0.733,0.006,1.466,0.002,2.199
		c-0.001,0.242,0.116,0.342,0.348,0.332c0.184-0.008,0.438,0.034,0.412-0.245c-0.057-0.621,0.398-0.624,0.795-0.71
		c0.137-0.03,0.29,0.009,0.287,0.152c-0.011,0.461,0.185,0.952-0.189,1.37c-0.598,0.669-1.386,0.41-2.061,0.314
		c-0.532-0.076-0.722-0.639-0.672-1.213c0.033-0.38,0.006-0.765,0.006-1.147C95.905,173.67,95.904,173.67,95.903,173.67z"/>
	<path style="fill:#32342F;" d="M69.135,99.957c-3.258,0.147-4.571-2.635-3.202-6.666C66.586,95.744,66.858,98.265,69.135,99.957z"
		/>
	<path style="fill:#F3F6EF;" d="M93.067,176.085c-0.764,0.103-0.813-0.06-0.642-0.868c0.221-1.048,0.268-2.202-0.073-3.291
		c-0.064-0.205-0.233-0.497,0.031-0.578c0.449-0.139,0.954-0.151,1.399,0.007c0.235,0.084,0.085,0.381,0.022,0.59
		c-0.328,1.089-0.308,2.244-0.062,3.288C93.944,176.087,93.774,176.177,93.067,176.085z"/>
	<path style="fill:#30322D;" d="M132.762,93.607c0.574,2.968-0.591,6.47-3.515,6.714C131.631,98.593,132.071,96.044,132.762,93.607z
		"/>
	<path style="fill:#E0D4DA;" d="M103.298,103.466c-0.339-0.265-0.205-0.641-0.208-0.971c-0.014-1.644-0.007-3.288-0.008-4.931
		c0.282,0.24,0.219,0.58,0.221,0.88C103.313,100.118,103.302,101.792,103.298,103.466z"/>
	<path style="fill:#333530;" d="M118.059,160.913c0.251,0.961,0.231,1.936,0.154,2.915
		C117.89,162.87,118.033,161.888,118.059,160.913z"/>
	<path style="fill:#938C8F;" d="M126.661,89.292c0.07,0.2,0.279,0.142,0.414,0.223c-0.418,0.261-0.912,0.242-1.365,0.373
		c-0.125-0.017-0.251-0.034-0.534-0.072C125.716,89.51,126.166,89.346,126.661,89.292z"/>
	<path style="fill:#080700;" d="M119.203,182.993c0-0.095,0-0.191,0-0.286c0-1.882,0-1.862,1.875-1.821
		c0.532,0.011,0.737,0.163,0.72,0.705c-0.03,0.921-0.025,1.843-0.001,2.764c0.013,0.478-0.139,0.661-0.646,0.689
		C119.202,185.152,119.203,185.171,119.203,182.993z"/>
	<path style="fill:#010100;" d="M90.789,186.01c0.001,1.403-0.015,2.807,0.009,4.209c0.009,0.486-0.136,0.653-0.644,0.675
		c-2.081,0.094-2.08,0.113-2.08-1.909c0-2.392,0.025-4.784-0.013-7.175c-0.011-0.691,0.143-0.942,0.89-0.927
		c1.836,0.038,1.837-0.002,1.837,1.873C90.789,183.841,90.789,184.925,90.789,186.01z"/>
	<path d="M119.769,155.965c-1.836-1.887-1.587-4.791,0.545-6.329c1.321,0.05,2.006,0.513,2.348,1.795
		c0.322,1.209,0.366,2.457-0.176,3.632C121.92,156.29,120.963,156.585,119.769,155.965z"/>
	<path d="M79.737,149.63c2.262,1.153,2.285,5.15,0.336,6.527c-1.288,0.425-2.258-0.121-2.702-1.615
		c-0.303-1.02-0.293-2.084,0.003-3.108C77.74,150.166,78.403,149.694,79.737,149.63z"/>
	<path d="M102.767,172.801c-0.044,0.282,0.121,0.639-0.363,0.637c-0.476-0.002-0.353-0.35-0.352-0.604
		c0.001-0.254-0.123-0.601,0.353-0.605C102.896,172.225,102.706,172.595,102.767,172.801z"/>
	<path style="fill:#1A1A1A;" d="M113.042,173.721c0.001,0.349,0.002,0.698,0,1.047c-0.001,0.197-0.008,0.387-0.283,0.393
		c-0.249,0.005-0.441-0.049-0.441-0.353c0.001-0.73,0.004-1.46-0.001-2.19c-0.002-0.281,0.127-0.397,0.403-0.397
		c0.333,0,0.321,0.226,0.321,0.452C113.041,173.022,113.041,173.372,113.042,173.721z"/>
</g>
</svg>
