<svg version="1.1" id="Layer_1" xmlns="http://www.w3.org/2000/svg" x="0" y="0" viewBox="0 0 200 200" xml:space="preserve"><style>.chi_st0{fill:#020201}.chi_st2{fill:#333530}.chi_st3{fill:#d7ab00}.chi_st4{fill:#dfd3d9}.chi_st5{fill:#ded3d9}.chi_st6{fill:#ded2d8}.chi_st7{fill:#d1a800}.chi_st8{fill:#eae4e7}.chi_st9{fill:#d0a700}.chi_st10{fill:#453907}.chi_st11{fill:#d2a900}.chi_st12{fill:#edefe9}</style><path class="chi_st0" d="M133.61 124.91a111.3 111.3 0 0110.96 6.9c6.47 4.64 12.42 9.84 17.5 16.02.77.94.84 1.86.65 2.93-1.21 6.72-3.98 12.86-6.97 18.92-.81 1.64-1.68 3.24-2.54 4.85-.16.3-.26.5-.04.85 3.31 5.13 5.14 10.82 6.29 16.76.16.83.27 1.68.44 2.51.27 1.37-.27 2.61-.56 3.89-.33 1.45-.34 1.46-1.84 1.44-11.35-.11-22.7-.28-34.05-.38-12.71-.11-25.42-.08-38.12-.07a3623.4 3623.4 0 00-43.36.48c-.76.01-.99-.22-1.06-.92-.13-1.29-.38-2.57-.51-3.86-.19-1.87.43-3.62 1.01-5.35a172.5 172.5 0 016.35-15.65c.16-.36.37-.54.78-.5.34.04.68.01 1.04.01.01-.36-.26-.53-.41-.76-4.81-7.14-7.52-15.06-8.75-23.54-.1-.69.05-1.26.48-1.84 4.66-6.27 10.46-11.31 16.86-15.71 3.06-2.1 6.24-4 9.51-5.76l.8-.44c-.29-.24-.53-.41-.74-.62C52.16 109.9 37 94.73 21.82 79.59c-.52-.52-.49-.76.01-1.26C47.81 52.37 73.78 26.4 99.73.41c.54-.54.78-.54 1.32 0 25.96 25.99 51.93 51.97 77.92 77.93.53.53.47.77-.02 1.26a93938.18 93938.18 0 00-44.65 44.63l-.69.68zm-38.95-16.33l-.17.15-.17.15a5.37 5.37 0 00-2.34 3.17c-.33 1.1 0 1.76.99 2.4 1.3.84 2.77 1.25 4.31 1.62-.08-.32-.32-.37-.48-.48a15.28 15.28 0 01-2.28-1.97c-1.19-1.28-1.32-2.46-.43-3.96.14-.23.27-.46.27-.74l.15-.17a.8.8 0 00.15-.17l.16-.16.04-.06-.04.07-.16.15zm10.83 49.67c1.05.44 1.05.44 1.14-.73l.05-.47c.05-1.91-.13-3.76-1.44-5.29-.34-.4-.72-.81-1.3-.82-.95-.01-1.9.03-2.84.05-1.4-.16-2.73-.21-3.66 1.2-1.22 1.86-1.48 3.93-1.48 6.07 0 .38.22.46.59.41 2.78-.36 5.57-.62 8.37-.27.2.03.43.08.57-.15zm-3.83-42.17c.73.81 1.56.86 2.57.06 1.42-1.14 2.73-2.45 4.21-3.5 1.46-1.03 1.8-2.29 1.33-3.9-.01-.29.09-.41.35-.18.44.38.91.74 1.29 1.17a8.37 8.37 0 012.22 5.34 10.01 10.01 0 01-2.32-2.03 51.5 51.5 0 01-4.81 4.98 6.18 6.18 0 01-6.16 1.46c-.4-.11-.8-.38-1.26-.2l.06-.09-.1-.03.06.11c1.8 1.75 4.11 2.1 6.17.93.17-.1.32-.16.51-.12 2.36.51 4.72.99 6.93 2 .29.13.65.22.79.62-5.42 1.68-10.88 2.53-16.54 1.8 2.18 1.65 4.73 2.1 7.36 2.29 2.62.19 5.21-.12 7.86-.5-.77 2.04-2.14 3.21-4.23 3.49-1.19.16-2.38.08-3.57.1-.77.02-1.54.03-2.22.45-1.42.84-2.04 2.18-2.26 3.73-.43 3.03.85 4.54 3.86 4.68 2.03.09 3.78-.71 5.46-1.7 3.59-2.11 6.47-5.04 9.11-8.2 2.68-3.2 5.14-6.53 6.05-10.75.5-2.3 1.02-4.6 1.34-6.94.07-.5-.04-.64-.52-.43a9.44 9.44 0 00-3.48 2.44c-.73.49-1.24 1.21-1.85 1.81-.27.27-.38.72-.84.79-.04-.12-.14-.27-.1-.36.74-1.63 1.2-3.37 1.98-4.99.9-1.86 2.15-3.39 3.89-4.52.35-.23.69-.5.97-.82.52-.59.44-1.16-.2-1.63a4.08 4.08 0 00-1.75-.71c-.25-.08-.5-.18-.75-.23a37.08 37.08 0 00-12.3-.36c-1.16.16-2.27.47-3.33.99a3.74 3.74 0 00-2.08 2.37c-.15.5-.32.99-.48 1.49-.21-1.92-.13-3.85-.14-5.77-.01-.88-.1-1.76-.97-2.28-.88-.53-1.28-.5-2.05.19a5.35 5.35 0 00-1.61 3.54c-.37 3.84-.15 7.67.63 11.45.12.71.35 1.42.92 1.96zm-4.89 47.77c-.57 0-.83.47-1.07.84a12.76 12.76 0 00-2 6.26c-.05.65.15.86.82.86 2.96-.04 5.93-.02 8.9-.02 1.86 0 3.71-.02 5.57 0 .5.01.58-.15.45-.59-.44-1.53-.94-3.04-1.41-4.56-.53-1.72-1.7-2.59-3.38-2.99-2.65-.62-5.27-.37-7.88.2zm-13.92 3.75a30.3 30.3 0 01.37-5.94c.75-4.65 2.41-8.88 5.72-12.33.91-.95 1.95-1.75 3.14-2.48a38.94 38.94 0 01-6.97-5.52c-.81-.76-1.48-1.66-2.39-2.31-.29-.7-.85-1.21-1.29-1.8-1.43-1.92-2.9-3.8-4.04-6.05a40.04 40.04 0 00-.86 7.5c-.2 5.11.21 10.19 1.24 15.21.93 4.5 2.35 8.83 4.26 13.01.1.22.2.44.5.44l.04.29c-.04.22-.08.45.19.62.05-.08.12-.14.12-.2.01-.14-.02-.29-.03-.44zm37.12-28.55c-1.67 1.58-3.22 3.29-4.95 4.81a29.5 29.5 0 01-4.16 3.15 17.02 17.02 0 015.8 6.42c2.37 4.45 3.07 9.26 2.96 14.23-.19.23-.12.45-.01.79l.26-.42a58.3 58.3 0 005.22-13.86 66.25 66.25 0 001.72-12.14c.1-1.91-.08-3.81-.33-5.7a25.14 25.14 0 00-.87-4.1c-.05-.17-.04-.43-.24-.47-.25-.05-.32.22-.44.39-.25.37-.48.76-.74 1.13l-4.22 5.77zm19.29-74.1c.01-.25-.17-.09-.26-.12-.07-.02-.1.02-.06.08.03.04.09.05.13.07.02.13.01.27.06.39 1.1 2.4 1.13 4.99 1.18 7.54.04 1.87-.2 3.75-.29 5.62-.06 1.18-.36 2.17-1.52 2.8a34.89 34.89 0 01-5.02 2.38 66.82 66.82 0 01-15.08 3.24c-3.52.39-7.05.66-10.59.73-5.67.11-11.33.07-16.99-.41-2.74-.23-5.47-.48-8.19-.88a78.52 78.52 0 01-10.84-2.29 43.07 43.07 0 01-8.07-3.09c-.45-.24-.71-.49-.78-1.07-.21-1.62-.1-3.23-.12-4.84-.03-3.5.18-6.98 1.43-10.31l.06-.08-.08.06c-.41-.05-.79.08-1.16.21a42.58 42.58 0 00-7.77 3.4 18.2 18.2 0 00-5.47 4.52c-2.23 2.91-2.2 5.86.09 8.71 1.61 2 3.73 3.35 5.96 4.54 4.73 2.54 9.83 4.04 15.03 5.21 4.84 1.1 9.75 1.78 14.7 2.27 3.71.37 7.43.65 11.14.72 6.88.13 13.77.21 20.63-.57 2.88-.33 5.77-.65 8.61-1.22.31-.04.63-.05.94-.11 5.58-1.15 11.1-2.55 16.37-4.77 3.11-1.31 6.13-2.82 8.56-5.23 3.7-3.65 3.62-7.43-.23-10.91-3.44-3.12-7.62-4.94-11.89-6.57-.16-.06-.35-.03-.52-.05l.04.03zm-4.59 107.76c3.35.24 6.7.49 10.06.72.27.02.61.18.81-.13l2.8-4.37h-1.23c-3.8.14-7.52.82-11.2 1.72.02-.37.48-.52.48-.91.62-.66 1.21-1.34 1.86-1.96 4.26-4.06 9.2-7.14 14.37-9.89.44-.24.66-.51.76-1 .44-2.13.91-4.25 1.4-6.37.09-.41.02-.69-.25-1a139.97 139.97 0 00-23.28-21.83c-.22-.16-.41-.44-.76-.35 0-.12-.04-.22-.15-.24-.04-.01-.15.1-.14.13.06.2.12.41.22.59.56 1.06.97 2.18 1.3 3.32a45.34 45.34 0 011.67 16.55 65.67 65.67 0 01-1.32 8.84c-1.16 5.26-2.62 10.42-5.06 15.25-.11.22-.4.47-.22.71.16.21.51.11.76.07 1.77-.28 3.54-.07 5.31-.15.63-.02 1.14.61 1.81.3zm-66.27-.31c1.74-.04 3.48-.22 5.23-.12l2.85.16-.66-1.28c-.2-.4-.4-.81-.58-1.22a74.21 74.21 0 01-5.44-20.26c-.93-7.51-.31-14.85 2.6-21.92.06-.14.15-.33.11-.44-.08-.2-.2.02-.3.04-.26-.04-.45.1-.64.25a130.76 130.76 0 00-12.39 10.51c-2.37 2.27-4.7 4.6-6.9 7.04-1.27 1.42-2.52 2.85-3.78 4.28a1.1 1.1 0 00-.29 1.03c.49 2.14.97 4.27 1.44 6.41.11.51.41.8.87 1.04 5.68 2.96 11.06 6.36 15.56 10.99.16.17.31.37.6.31l.73 1.36a88.15 88.15 0 00-6.67-1.28 35.62 35.62 0 00-5.36-.4c-.51.01-.53.16-.27.55.48.7.98 1.39 1.36 2.14.68 1.34 1.48 2 3.19 1.7 2.3-.41 4.67-.35 7.01-.59.56-.06 1.21.09 1.73-.3zm54.34-130.43c.93-.1 1.8-.4 2.64-.8.52-.25.53-.5.27-.96a12.05 12.05 0 00-4.5-4.38 30.57 30.57 0 00-10.89-3.73 50.55 50.55 0 00-21.48.89 69.3 69.3 0 0114.47.01c-2.06.17-4.11.39-6.13.76-2.26.41-4.53.84-6.54 2.05-.97.58-1.79 1.29-1.78 2.53.01 1.25.88 1.92 1.85 2.48l.28.14c3.41 1.69 7.13 2.02 10.82 2.53 1.21.17 2.45.01 3.8.41-1.83.85-3.69.95-5.45 1.43 1.22.01 2.43-.02 3.63-.06a80.9 80.9 0 0010.88-1.01 33.05 33.05 0 008.13-2.29zM80.98 73.41c-.2-.35-.58-.36-.89-.44a149.75 149.75 0 01-11.51-3.53c-.91-.33-.97-.29-1.11.66-.32 2.14-.38 4.31-.49 6.47-.02.44.13.66.55.82 4.83 1.84 9.84 3 14.91 3.93.66.12 1.34.49 2.05.18 5.45 1.59 11.06 1.97 16.69 2.02 4.78.05 9.54-.23 14.29-.74a65.36 65.36 0 0019.49-5.31c.48-.21.65-.48.68-1.01a33.46 33.46 0 00-.55-7.69c-.15.06-.26.08-.35.13a56.78 56.78 0 01-16.3 4.97 99.31 99.31 0 01-18.39 1.17c-5.63-.12-11.23-.58-16.79-1.42-.76-.11-1.5-.41-2.28-.21zm48.71-7.65c.33-.11.2-.4.21-.61.08-4.19-.08-8.37-.67-12.53a32.37 32.37 0 00-1.59-6.72c-.19-.52-.4-.6-.91-.36-1.01.47-2.04.89-3.08 1.27-8.5 3.05-17.28 3.57-26.19 2.94-7-.5-13.87-1.75-20.62-3.68-.27-.41-.83-.1-1.13-.48-.27-.34-.42-.14-.51.18-.24.87-.52 1.72-.74 2.59a67.95 67.95 0 00-1.96 10.58c-.16 1.78-.08 3.55-.1 5.32 0 .15 0 .33.2.39.03-.04.08-.07.09-.11a34.9 34.9 0 014.95-13.63c.81-1.31.79-1.33 2.24-.94 4.83 1.31 9.77 1.73 14.74 1.9 1.66.06 3.33.01 4.99.01l.01.25-1.06.23c-2.98.64-5.95 1.35-8.57 2.99-1.41.88-2.62 1.94-2.49 3.84.09 1.38.88 2.36 1.89 3.18 2.11 1.7 4.63 2.52 7.2 3.2 3.6.95 7.27 1.48 10.97 1.88-2.8.31-5.59.68-8.41.66-2.84-.02-5.67.09-8.51-.09-2.82-.18-5.63-.43-8.43-.8-2.77-.37-5.5-.91-8.25-1.43.24.19.5.32.77.41 2.02.72 4.06 1.34 6.15 1.85a74.8 74.8 0 0014.88 2.07c3.96.16 7.94.1 11.91-.23 3.27-.27 6.51-.68 9.74-1.21 3.62-.59 7.2-1.42 10.74-2.4.51-.1 1.1-.12 1.54-.52zm-27.98-39.04a53.4 53.4 0 017.69.51 42.95 42.95 0 0115.49 4.76 13.4 13.4 0 016.52 7.5c.21.6.45 1.19.66 1.79a80.77 80.77 0 013.37 15.52c.09.69.3 1.03 1.04 1.21 5.09 1.31 10.08 2.92 14.78 5.34 3.06 1.58 5.91 3.45 8.11 6.17 3.15 3.89 3.75 8.87 1.32 12.92a17.92 17.92 0 01-10.18 7.95c-1.79.58-3.66.85-5.52 1.15-2.72.44-5.46.78-8.2 1.1-.22.03-.55-.1-.49.39.23 2.04.02 4.08-.21 6.11-.36 3.31-2.41 5.48-5.09 5.8-.48.06-.41.41-.48.69-.38 1.58-.33 3.21-.57 4.81-.53 3.59-1.21 7.16-1.96 10.72-.14.64 0 .94.61 1.2.92.39 1.83.86 2.69 1.37.61.36.97.3 1.48-.21a30290.1 30290.1 0 0143.9-43.91c.52-.52.51-.78 0-1.29-9.72-9.69-19.41-19.39-29.11-29.09-15.5-15.5-31-31-46.48-46.51-.55-.56-.82-.53-1.35.01-1.71 1.78-3.48 3.5-5.22 5.25-23.43 23.41-46.84 46.83-70.26 70.25-.73.73-.73.73.02 1.49l10.75 10.75c11.29 11.3 22.59 22.59 33.87 33.9.45.46.79.58 1.41.26a76.55 76.55 0 014.41-2.03c.46-.2.57-.37.39-.87a119.99 119.99 0 01-4.15-15.01 1.3 1.3 0 00-.76-1c-4.1-2.07-6-5.47-5.88-10 .06-2.27.13-2.27-2.08-2.89a8.64 8.64 0 00-.85-.19A46.73 46.73 0 0153 90.46c-3.52-1.31-6.76-3.07-9.33-5.89-4.34-4.76-4.4-10.25-.17-15.11a26 26 0 017.15-5.52 63.54 63.54 0 0115.62-5.99c.53-.13.79-.34.86-.92.17-1.45.38-2.89.63-4.33.85-4.89 1.89-9.73 3.8-14.35 1.14-2.75 2.9-4.9 5.49-6.39a31.72 31.72 0 015.77-2.66c5.76-1.91 11.72-2.61 18.89-2.58zM80.38 186.37l-.19.02c-.74-1.58-1.62-3.11-2.17-4.76-.6-1.82-1.59-2.53-3.52-2.27-1.4.19-1.4.04-1.34 1.45a.8.8 0 00.4.72c.3.21.46.46.45.86-.02 3.16-.01 6.32 0 9.47 0 .35-.09.6-.37.82-.39.3-.65 1.63-.45 2.03.07.14.19.16.32.16h4.3c.26 0 .4-.09.39-.37-.03-.72.22-1.51-.62-1.98-.2-.11-.25-.32-.25-.55v-4.46c.32.18.36.46.46.69.95 2.04 1.91 4.08 2.84 6.13.18.39.36.57.82.55.87-.04 1.75-.01 2.63-.01.24 0 .51.03.49-.34-.03-.71.24-1.51-.6-1.98-.27-.15-.27-.42-.27-.7v-9.47c0-.25-.01-.51.24-.63.79-.41.62-1.13.65-1.81.02-.41-.13-.56-.55-.55-1.06.02-2.12.01-3.18.01-1.37 0-1.36 0-1.32 1.36.01.36.15.59.42.8.21.16.42.31.42.63v4.18zm45.78.58c0-1.14-.11-2.29.03-3.42a3.74 3.74 0 00-1.56-3.7c-.36-.28-.66-.46-1.12-.44-.95.03-1.92.11-2.86-.01a3.37 3.37 0 00-3.3 1.38c-.35.44-.58.8-.58 1.39.03 3.18.02 6.36.01 9.55 0 .28.12.64-.19.81-.8.44-.63 1.19-.66 1.89-.01.38.12.51.5.5 1.35-.02 2.7 0 4.06-.01.17 0 .43.08.44-.2.02-.58.28-1.37-.09-1.69-.76-.65-.58-1.41-.59-2.17-.02-1.87-.01-1.85 1.86-1.78.47.02.58.18.57.61-.03.74-.02 1.49 0 2.23a.89.89 0 01-.33.76c-.36.32-.6 1.64-.42 2.05.08.19.23.19.39.19h4.3c.22 0 .37-.06.35-.31-.06-.7.3-1.51-.57-1.98-.32-.17-.24-.5-.24-.79v-4.86zm-29.85.29c0-1.33-.1-2.66.03-3.97.13-1.4-.25-2.47-1.39-3.28-.31-.22-.49-.6-.98-.59-2.47.02-4.93.01-7.4.01-.24 0-.52-.02-.49.34.06.7-.29 1.51.58 1.98.28.15.25.44.25.71v9.47c0 .24.05.52-.2.64-.78.38-.59 1.08-.64 1.73-.04.49.13.63.62.62 1.91-.03 3.82-.11 5.72.02 1.42.09 2.48-.29 3.36-1.41.33-.42.55-.78.54-1.33-.03-1.65-.01-3.3 0-4.94zm53.75 2.38c-.86.23-1.64.48-2.44.63-.65.12-.91.41-.8 1.07.1.58-.08.85-.76.83-1.51-.04-1.51 0-1.51-1.51 0-2 0-1.98 2.03-2.01.73-.01 1.71.34 2.13-.16.43-.51.08-1.48.13-2.24.03-.45-.13-.6-.58-.59-1.06.03-2.12 0-3.18.01-.35 0-.54-.06-.53-.47.02-.85.01-1.7 0-2.55 0-.33.11-.45.46-.48 1.77-.16 1.77-.17 1.81 1.59v.16c-.04.42.14.49.52.38.76-.22 1.53-.41 2.3-.6.3-.07.43-.23.42-.55a88.57 88.57 0 010-3.26c0-.33-.08-.48-.44-.48l-8.75.01c-.24 0-.51-.01-.49.35.04.71-.26 1.51.59 1.99.31.17.27.49.27.78v9.31c0 .26.05.57-.22.72-.82.43-.62 1.19-.65 1.89-.01.34.11.46.46.46h8.75c.31 0 .48-.06.48-.43v-4.85zm-96 .2l-3.07.8c-.12.03-.27.09-.34.18-.19.23-.01 2.11.2 2.37.97 1.19 2.05 2.06 3.77 1.74.85-.15 1.75-.04 2.62-.02.4.01.67-.13.99-.37a3.64 3.64 0 001.58-3.76c-.06-.34-.06-.7 0-1.03.26-1.5-.26-2.65-1.44-3.58-.39-.31-.73-.54-1.25-.51-.85.04-1.7 0-2.54.02-.36.01-.53-.08-.51-.48.03-.74.03-1.49 0-2.23-.01-.41.12-.54.54-.55 1.63-.06 1.65-.08 1.71 1.52.02.47.18.54.57.43l2.46-.64c.26-.07.46-.15.48-.51.05-1.08-.01-2.01-.96-2.83-.75-.64-1.42-1.08-2.43-.97-.68.08-1.39.09-2.06 0a3.1 3.1 0 00-3.03 1.24c-.47.56-.8 1.04-.74 1.8.07.98.08 1.97 0 2.94-.08.93.29 1.55.9 2.22.77.84 1.58 1.23 2.7 1.08.55-.07 1.11 0 1.67-.02.33-.01.48.09.47.45-.02.8 0 1.59-.01 2.39 0 .15.02.37-.18.38-.63.02-1.31.14-1.89-.04-.39-.12-.12-.76-.17-1.16-.06-.28-.04-.54-.04-.86zm50.68-2.67c0 1.25.1 2.5-.03 3.74-.14 1.45.25 2.55 1.41 3.44.44.34.8.59 1.39.57 1.27-.05 2.55-.05 3.82 0 .64.02 1.04-.23 1.53-.62a3.3 3.3 0 001.34-3.31c-.05-.34-.01-.69-.01-1.03 0-1.41 0-1.41-1.4-1.06-.64.16-1.43.15-1.88.54-.53.45-.12 1.29-.21 1.96v.16c-.02.53-.45.4-.71.36-.59-.1-1.29.36-1.78-.3-.03-.03-.01-.1-.01-.16 0-2.84.01-5.68-.01-8.51 0-.39.14-.48.51-.5 2-.1 2-.11 2 1.88 0 1.41 0 1.42 1.34 1.07.69-.18 1.6-.1 2.01-.6.43-.54.09-1.43.14-2.16a2.4 2.4 0 00-.64-1.92c-.91-1.03-1.9-1.49-3.25-1.29a5.1 5.1 0 01-1.51 0 3.53 3.53 0 00-3.57 1.48c-.31.41-.5.75-.49 1.26.02 1.65 0 3.33.01 5zm28.98-7.75c-1.49 0-2.97.03-4.45-.01-.63-.02-.89.12-.85.81.06 1.3.04 2.6 0 3.9-.02.57.09.84.73.76.68-.08 1.55.27 1.99-.14.42-.39.08-1.26.13-1.91.02-.29-.11-.66.43-.65.49.01.38.35.38.61v9.07c0 .23.08.52-.18.65-.82.42-.65 1.17-.67 1.87-.01.35.07.53.48.52 1.35-.02 2.7-.01 4.06-.01.17 0 .45.07.43-.21-.07-.69.38-1.51-.46-2.02-.33-.2-.33-.5-.33-.83l.01-8.99c0-.27-.16-.69.39-.67.48.02.35.37.37.64.05.65-.28 1.52.13 1.91.45.42 1.31.09 2 .13h.16c.47.07.58-.16.57-.59-.02-1.41-.03-2.81.01-4.22.01-.55-.2-.66-.7-.65-1.55.05-3.09.03-4.63.03zm-67.13 6.45l-1.32-3.53c-.08-.21-.15-.44.09-.56.75-.39.6-1.08.63-1.73.02-.48-.13-.65-.62-.64-1.01.03-2.02-.01-3.02.01-1.52.03-1.29-.33-1.33 1.34-.01.39.13.66.43.87.3.2.47.48.6.82.85 2.17 1.72 4.33 2.55 6.51.41 1.07.14 2.2.17 3.31.01.23-.24.33-.39.47-.33.3-.58 1.59-.4 1.98.09.19.24.18.4.18h4.38c.22 0 .45-.01.42-.32-.06-.7.3-1.51-.56-2-.28-.16-.23-.45-.24-.71a9.1 9.1 0 01.83-4.7c.71-1.5 1.27-3.08 1.9-4.63.1-.24.13-.56.37-.68.85-.43.72-1.2.73-1.93 0-.37-.11-.52-.5-.52-1.33.02-2.65 0-3.98.01-.17 0-.36-.05-.46.2-.18.48.06 1.68.45 2.04.18.16.36.27.24.59-.46 1.16-.88 2.32-1.37 3.62zm20.22-56.25l.16-.11c-.01-.07-.01-.16-.04-.22-1.89-3.8-3.75-7.62-6.1-11.15-1.57-2.37-2.73-4.83-2.93-7.69-.01-.18-.16-.38.02-.52.17-.13.35.02.52.09 1.54.73 2.96 1.64 4.2 2.83a9.9 9.9 0 011.93 2.47c.04-.23.07-.28.06-.33a14.8 14.8 0 00-6.73-8.81 4.95 4.95 0 01-1.62-1.6 14.3 14.3 0 01-1.65-4.28l-.51-2.22a48.9 48.9 0 00.54 9.83 24.34 24.34 0 002.87 8.69 72.5 72.5 0 005.47 8.08c1.25 1.66 2.53 3.3 3.81 4.94zm13.67 65.28h2.15c.26 0 .48-.02.46-.37-.05-.71.25-1.51-.61-1.97-.28-.15-.21-.46-.21-.72v-9.39c0-.23-.07-.52.18-.65.82-.43.62-1.19.65-1.88.02-.4-.15-.5-.52-.49l-4.22.01c-.2 0-.49-.05-.47.26.05.7-.33 1.51.52 2 .3.17.29.47.29.77v9.39c0 .23.08.53-.17.66-.84.45-.64 1.23-.67 1.95-.01.36.14.46.47.45.71-.03 1.43-.02 2.15-.02zm-10.63-17.04c.52.02.87.12.61-.7a6.05 6.05 0 010-2.9c.05-.23.23-.53-.02-.61-.33-.1-.74-.08-1.09.01-.22.06-.12.35-.02.55.16.3.06.63.08.94.02.23-.06.34-.31.34s-.41-.05-.38-.35c.03-.36-.08-.73.16-1.07.07-.11.09-.37-.09-.41a1.91 1.91 0 00-1.16.02c-.15.06-.12.28-.06.43.39 1.09.37 2.18.02 3.27-.11.33-.03.47.35.49.91.06.96.03.8-.83-.03-.15 0-.32-.01-.48-.02-.26.13-.3.34-.3.2 0 .38.01.35.29-.02.21.03.45-.05.62-.32.64-.04.76.48.69zm21.95-2.16c0 .34.02.69-.01 1.03-.05.54.13 1.05.66 1.09.66.05 1.45.34 1.96-.42.07-.1.1-.24.1-.36l.01-1.11c0-.22.02-.46-.3-.43-.36.03-.78-.17-1.05.13-.1.12-.24.54.23.68.28.09.17.43.11.63-.06.21-.32.13-.49.11-.35-.03-.21-.31-.22-.49-.02-.56 0-1.11 0-1.67 0-.21-.03-.44.31-.42.22.01.44 0 .43.31 0 .27.08.41.38.29.27-.11.64-.06.61-.56-.02-.47-.25-.77-.65-.89-1.41-.43-2.1.08-2.09 1.52l.01.56zm-3.76.04v-.95c0-.94-.26-1.18-1.24-1.18-1.07 0-1.29.22-1.32 1.18-.02.81.14 1.64-.1 2.43-.07.22-.3.5-.03.58.36.11.8.11 1.17.01.28-.07.13-.37.01-.59a.93.93 0 01-.01-.9c.04-.07.36-.11.43-.04.26.28.17.62.05.94-.02.05-.07.08-.09.13-.09.3-.08.52.34.5.26-.02.53-.01.8 0 .27 0 .36-.21.25-.36-.43-.57-.18-1.21-.26-1.75zm12.58-.01v-1.11c-.01-.78-.28-1.01-1.15-1.01-1.04-.01-1.34.2-1.36.98v2.22c-.01.72.32 1.05 1.05 1.06 1.31.01 1.46-.12 1.46-1.42v-.72zm-37.39-.4c.44-.1.95.02.92-.7-.03-.67-.29-1.02-.99-1.03-1.21-.02-1.6.19-1.61.98-.02.79.01 1.59-.01 2.38-.01.47.24.77.64.89 1.43.42 2.11-.19 1.88-1.71-.37.15-.96-.02-.87.72.03.24-.18.2-.33.21-.18.01-.31-.03-.31-.25v-2.06c0-.19.08-.28.28-.28s.37 0 .36.28c0 .18.03.36.04.57zm17.51 0c.44-.1.95.02.92-.7-.03-.67-.29-1.02-.99-1.03-1.21-.02-1.6.19-1.62.98-.02.79.01 1.59-.01 2.38-.01.47.24.77.64.89 1.43.43 2.11-.19 1.88-1.71-.37.15-.96-.02-.87.72.03.24-.18.2-.33.21-.18.01-.31-.03-.31-.25v-2.06c0-.19.08-.28.28-.28s.37 0 .36.28l.05.57zm-30.06-72.83a5.57 5.57 0 01-2.22-3c-.44-1.14-.69-2.33-.99-3.52a7.83 7.83 0 00-.46 3.73c.34 1.99 1.53 2.92 3.67 2.79zm63.4-6.69a32.67 32.67 0 01-1.03 3.87c-.39 1.21-1.3 2.09-2.17 3.15 2.51-.4 3.68-2.99 3.2-7.02zm-39.24 82.05c.24-.09.9.25.62-.52-.34-.95-.19-1.92-.13-2.87.06-.92.14-.92-.81-.87-.47.03-.53.2-.37.6.4.96.37 2.04.08 2.92-.27.85.01.76.61.74zM73.55 65.67l-.03-.05c-.02-.01-.04 0-.06.01l.04.07.05-.03z"/><path d="M101.71 26.72c-7.18-.02-13.13.67-18.9 2.59a31.06 31.06 0 00-5.77 2.66 12.68 12.68 0 00-5.49 6.39c-1.91 4.62-2.95 9.46-3.8 14.35a70.53 70.53 0 00-.63 4.33c-.07.58-.32.79-.86.92a63.78 63.78 0 00-15.62 5.99 26.3 26.3 0 00-7.15 5.52c-4.23 4.86-4.17 10.35.17 15.11 2.57 2.82 5.81 4.58 9.33 5.89a47.36 47.36 0 008.38 2.18c.29.05.57.11.85.19 2.21.62 2.14.62 2.08 2.89-.12 4.53 1.78 7.94 5.88 10 .45.23.65.51.76 1a119.51 119.51 0 004.15 15.01c.18.5.07.67-.39.87a73.06 73.06 0 00-4.41 2.03c-.62.31-.95.19-1.41-.26-11.28-11.31-22.58-22.6-33.87-33.9L24.26 79.73c-.75-.75-.75-.75-.02-1.49L94.5 7.97c1.74-1.75 3.51-3.47 5.22-5.25.52-.55.79-.57 1.35-.01 15.48 15.52 30.98 31.01 46.48 46.51 9.7 9.7 19.4 19.41 29.11 29.09.51.51.52.77 0 1.29a30290.1 30290.1 0 00-43.9 43.91c-.51.51-.87.58-1.48.21a20.6 20.6 0 00-2.69-1.37c-.61-.26-.74-.56-.61-1.2.76-3.55 1.43-7.12 1.96-10.72.24-1.6.19-3.23.57-4.81.07-.28.01-.64.48-.69 2.68-.32 4.73-2.48 5.09-5.8.22-2.03.44-4.06.21-6.11-.06-.49.27-.36.49-.39 2.74-.32 5.48-.66 8.2-1.1 1.86-.3 3.74-.57 5.52-1.15a17.89 17.89 0 0010.18-7.95c2.42-4.05 1.83-9.03-1.32-12.92-2.2-2.72-5.05-4.59-8.11-6.17-4.69-2.42-9.68-4.03-14.78-5.34-.73-.19-.95-.52-1.04-1.21a80.02 80.02 0 00-3.37-15.52c-.2-.6-.44-1.19-.66-1.79a13.44 13.44 0 00-6.52-7.5 42.95 42.95 0 00-15.49-4.76 54.35 54.35 0 00-7.68-.5z" fill="#d8ac00"/><path class="chi_st2" d="M64.26 64.79c-1.25 3.33-1.47 6.8-1.43 10.31.02 1.61-.09 3.23.12 4.84.07.57.33.83.78 1.07a43.07 43.07 0 008.07 3.09 77.38 77.38 0 0010.84 2.29c2.71.4 5.45.64 8.19.88 5.66.48 11.32.52 16.99.41 3.54-.07 7.07-.34 10.59-.73a66.5 66.5 0 0015.08-3.24c1.75-.62 3.38-1.5 5.02-2.38 1.16-.63 1.46-1.62 1.52-2.8.1-1.87.33-3.75.29-5.62-.05-2.56-.08-5.14-1.18-7.54-.05-.11-.04-.26-.06-.39l.18-.03-.02-.01.64.46c2.68 1.76 5.13 3.77 6.77 6.6a7.62 7.62 0 01-.33 8.68 17.58 17.58 0 01-4.39 4.34c-4.84 3.5-10.3 5.7-15.92 7.56-2.85.57-5.73.89-8.61 1.22-6.86.77-13.75.69-20.63.57-3.72-.07-7.44-.35-11.14-.72-4.94-.5-9.85-1.18-14.7-2.27-5.2-1.18-10.3-2.67-15.03-5.21-2.22-1.2-4.34-2.54-5.96-4.54-2.3-2.85-2.32-5.79-.09-8.71a18.06 18.06 0 015.47-4.52 43.27 43.27 0 017.77-3.4c.38-.13.75-.26 1.16-.21h.01z"/><path class="chi_st2" d="M129.69 65.76c-.44.4-1.03.41-1.55.56-3.54.98-7.12 1.81-10.74 2.4-3.23.53-6.47.94-9.74 1.21-3.97.33-7.94.39-11.91.23a74.8 74.8 0 01-14.88-2.07 63 63 0 01-6.15-1.85c-.27-.1-.53-.22-.77-.41 2.75.52 5.48 1.06 8.25 1.43 2.8.37 5.61.62 8.43.8 2.84.18 5.67.07 8.51.09 2.82.02 5.61-.35 8.41-.66-3.71-.4-7.38-.93-10.97-1.88-2.57-.68-5.09-1.5-7.2-3.2-1.01-.82-1.8-1.8-1.89-3.18-.13-1.9 1.08-2.96 2.49-3.84 2.63-1.64 5.59-2.35 8.57-2.99l1.06-.23-.01-.25c-1.66 0-3.33.05-4.99-.01-4.97-.17-9.91-.59-14.74-1.9-1.45-.39-1.44-.37-2.24.94a34.84 34.84 0 00-4.95 13.63c-.01.04-.06.07-.09.11-.2-.06-.2-.24-.2-.39.02-1.77-.06-3.54.1-5.32a68.7 68.7 0 011.96-10.58c.22-.87.5-1.73.74-2.59.09-.33.24-.52.51-.18.3.37.86.07 1.13.48.04.34.37.34.58.46a24.7 24.7 0 005.84 2.04c7.42 1.82 15 2.56 22.59 3.12.47.03.87.16 1.26.39l20.17 12.16c.83.45 1.7.85 2.42 1.48z"/><path class="chi_st3" d="M80.98 73.41c.78-.2 1.52.1 2.27.22 5.57.84 11.17 1.29 16.79 1.42 6.16.14 12.3-.18 18.39-1.17 5.65-.92 11.14-2.41 16.3-4.97.09-.05.19-.07.35-.13a33.46 33.46 0 01.55 7.69c-.03.53-.19.8-.68 1.01a65.44 65.44 0 01-19.49 5.31c-4.75.5-9.52.78-14.29.74-5.63-.06-11.24-.43-16.69-2.02-1.03-.57-2.16-.95-3.12-1.68-1.72-1.31-2.15-3.02-1.19-4.96.24-.52.54-.98.81-1.46z"/><path class="chi_st4" d="M99.08 119.27c.46-.19.86.09 1.26.2 2.33.63 4.34.19 6.16-1.46a51.5 51.5 0 004.81-4.98c.64.78 1.39 1.39 2.32 2.03a8.4 8.4 0 00-2.22-5.34c-.39-.43-.86-.78-1.29-1.17-.26-.23-.36-.11-.35.18-.38.02-.31.38-.43.59-.18.29-.27.67-.61.8a16.47 16.47 0 00-3.68 2.22c-.11-1.86.11-3.62-.19-5.37.16-.5.34-.99.48-1.49a3.74 3.74 0 012.08-2.37c1.06-.51 2.17-.82 3.33-.99 4.12-.58 8.22-.44 12.3.36.26.05.5.15.75.23.02.39.47.32.65.54a7.59 7.59 0 00-3.66 3.52 17.1 17.1 0 00-1.89 6.25c-.11.88-.49 1.8-.04 2.71.04.08-.05.24.09.23.11-.01.21-.12.06-.24v.02c.46-.07.57-.52.84-.79.61-.61 1.13-1.32 1.85-1.81.38.83.09 1.66.03 2.49a11.55 11.55 0 01-2.01 6.15c-.59.81-1.12 1.66-1.71 2.48-2 2.76-4.12 5.42-6.85 7.52-2 1.54-4.15 2.64-6.8 2.61a2.42 2.42 0 01-2.33-2.9c.08-.4.11-.78.12-1.18a4.15 4.15 0 012.22-.45c1.19-.02 2.38.06 3.57-.1a4.99 4.99 0 004.23-3.49c-2.65.38-5.24.69-7.86.5-2.63-.19-5.17-.65-7.36-2.29 5.66.73 11.12-.12 16.54-1.8-.14-.4-.5-.49-.79-.62-2.21-1.01-4.58-1.49-6.93-2-.2-.04-.34.02-.51.12-2.07 1.18-4.37.83-6.17-.93l-.01.02zM130.48 127.35c.35-.09.54.19.76.35a139.14 139.14 0 0123.28 21.83 1 1 0 01.25 1c-.49 2.12-.96 4.24-1.4 6.37-.1.49-.32.76-.76 1-5.16 2.75-10.11 5.82-14.37 9.89-.65.62-1.24 1.31-1.86 1.96-.07-.07-.39.12-.2-.22.81-1.46 1.41-3.02 2.02-4.58 3.33-8.56 3.37-17.06-.42-25.52a58.44 58.44 0 00-7.3-12.08z"/><path class="chi_st2" d="M66.67 169.23c-.29.06-.44-.14-.6-.31-4.5-4.64-9.87-8.03-15.56-10.99-.46-.24-.76-.53-.87-1.04-.47-2.14-.96-4.28-1.44-6.41-.09-.4.03-.73.29-1.03 1.26-1.43 2.51-2.86 3.78-4.28a130.9 130.9 0 016.9-7.04c3.92-3.75 8.04-7.27 12.39-10.51.2-.15.38-.28.64-.25-.12.2-.23.41-.37.6a53.68 53.68 0 00-5.1 8.06c-2.26 4.4-3.95 8.99-4.36 13.96-.43 5.15.66 10.08 2.48 14.86.57 1.46 1.21 2.92 1.82 4.38zM122.74 41.97a31.66 31.66 0 01-8.15 2.27c-3.6.59-7.22.91-10.88 1.01-1.21.03-2.42.07-3.63.06 1.76-.47 3.62-.58 5.45-1.43-1.35-.4-2.59-.25-3.8-.41-3.69-.51-7.41-.84-10.82-2.53l-.28-.14c-.97-.56-1.84-1.23-1.85-2.48-.01-1.24.82-1.95 1.78-2.53 2.02-1.21 4.28-1.64 6.54-2.05 2.03-.37 4.07-.59 6.13-.76a69.3 69.3 0 00-14.47-.01 50.39 50.39 0 0121.48-.89c.1.24.35.31.55.43a65.5 65.5 0 015.34 3.44c2.43 1.76 4.83 3.55 6.61 6.02z"/><path class="chi_st4" d="M66.67 169.23c-.61-1.47-1.25-2.92-1.82-4.4-1.82-4.79-2.9-9.71-2.48-14.86.41-4.97 2.1-9.56 4.36-13.96a54.5 54.5 0 015.1-8.06c.14-.19.25-.4.37-.6.11-.02.22-.25.3-.04.05.11-.05.3-.11.44-2.91 7.06-3.53 14.4-2.6 21.92.87 7 2.65 13.77 5.44 20.26a57.04 57.04 0 001.24 2.5l-2.85-.16c-1.75-.11-3.49.07-5.23.12l-1-1.81-.72-1.35z"/><path class="chi_st2" d="M130.48 127.35a58.4 58.4 0 017.29 12.08c3.8 8.46 3.75 16.95.42 25.52-.61 1.56-1.2 3.11-2.02 4.58-.18.33.14.14.2.22 0 .39-.45.53-.48.91a3.4 3.4 0 00-1.23 2.06c-.67.31-1.19-.32-1.82-.29-1.77.07-3.55-.13-5.31.15-.25.04-.6.14-.76-.07-.18-.24.11-.49.22-.71 2.44-4.83 3.91-9.99 5.06-15.25a65.67 65.67 0 001.32-8.84 45.36 45.36 0 00-1.67-16.55 18.15 18.15 0 00-1.3-3.32c-.1-.18-.16-.39-.22-.59-.01-.03.1-.14.14-.13.13.01.17.12.16.23z"/><path class="chi_st5" d="M129.69 65.76c-.72-.63-1.59-1.03-2.4-1.52l-20.17-12.16a2.7 2.7 0 00-1.26-.39c-7.6-.56-15.17-1.3-22.59-3.12a24.7 24.7 0 01-5.84-2.04c-.22-.12-.54-.11-.58-.46a101.01 101.01 0 0020.62 3.68c8.91.64 17.69.12 26.19-2.94a36.2 36.2 0 003.08-1.27c.51-.24.72-.16.91.36a32.37 32.37 0 011.59 6.72c.59 4.16.75 8.34.67 12.53-.02.22.11.5-.22.61z"/><path class="chi_st6" d="M126 92.58c5.62-1.86 11.08-4.06 15.92-7.56a17.75 17.75 0 004.39-4.34 7.62 7.62 0 00.33-8.68c-1.64-2.83-4.08-4.84-6.77-6.6-.22-.14-.42-.3-.64-.46.18.01.37-.01.52.05 4.27 1.63 8.45 3.45 11.89 6.57 3.85 3.48 3.92 7.26.23 10.91-2.44 2.41-5.45 3.91-8.56 5.23-5.27 2.22-10.78 3.62-16.37 4.77-.31.06-.63.07-.94.11z"/><path class="chi_st7" d="M80.38 186.37v-4.18c0-.32-.21-.47-.42-.63a.94.94 0 01-.42-.8c-.04-1.36-.05-1.36 1.32-1.36 1.06 0 2.12.01 3.18-.01.42-.01.56.14.55.55-.03.68.14 1.4-.65 1.81-.24.12-.24.39-.24.63v9.47c0 .28 0 .55.27.7.85.47.57 1.27.6 1.98.02.37-.25.34-.49.34-.88 0-1.75-.03-2.63.01-.45.02-.64-.16-.82-.55-.93-2.05-1.89-4.09-2.84-6.13-.11-.23-.14-.51-.46-.69v4.46c0 .23.04.44.25.55.84.46.6 1.26.62 1.98.01.28-.12.37-.39.37h-4.3c-.13 0-.25-.02-.32-.16-.2-.4.06-1.73.45-2.03a.9.9 0 00.37-.82v-9.47c0-.4-.15-.65-.45-.86a.86.86 0 01-.4-.72c-.06-1.41-.05-1.26 1.34-1.45 1.93-.27 2.91.45 3.52 2.27.55 1.65 1.43 3.18 2.17 4.76l.19-.02z"/><path class="chi_st8" d="M102.15 130.33c-.01.4-.04.78-.12 1.18-.3 1.46.8 2.89 2.33 2.9 2.65.03 4.8-1.07 6.8-2.61 2.72-2.1 4.85-4.76 6.85-7.52.59-.81 1.12-1.66 1.71-2.48a11.57 11.57 0 002.01-6.15c.06-.83.36-1.66-.03-2.49a9.55 9.55 0 013.48-2.44c.49-.21.59-.07.52.43-.32 2.34-.84 4.63-1.34 6.94-.91 4.23-3.38 7.55-6.05 10.75-2.64 3.16-5.52 6.09-9.11 8.2-1.68.99-3.43 1.79-5.46 1.7-3.01-.14-4.29-1.65-3.86-4.68.23-1.55.85-2.9 2.27-3.73z"/><path class="chi_st7" d="M126.15 186.95v4.85c0 .28-.08.62.24.79.87.47.51 1.29.57 1.98.02.25-.14.31-.35.31h-4.3c-.15 0-.31.01-.39-.19-.18-.42.05-1.74.42-2.05a.89.89 0 00.33-.76c-.02-.74-.03-1.49 0-2.23.02-.43-.1-.6-.57-.61-1.87-.07-1.88-.09-1.86 1.78.01.76-.17 1.52.59 2.17.37.32.11 1.11.09 1.69-.01.28-.27.2-.44.2-1.35.01-2.7-.01-4.06.01-.38.01-.51-.12-.5-.5.02-.7-.14-1.44.66-1.89.31-.17.19-.53.19-.81 0-3.18.02-6.37-.01-9.55-.01-.59.23-.95.58-1.39a3.37 3.37 0 013.3-1.38c.94.12 1.91.04 2.86.01.46-.01.76.16 1.12.44a3.72 3.72 0 011.56 3.7c-.14 1.13-.02 2.29-.03 3.43zm-3.48-2.55v-.24c0-1.79 0-1.77-1.79-1.75-.47.01-.67.11-.64.62.04.69.01 1.37.01 2.06 0 1.21 0 1.21 1.21 1.21 1.22 0 1.22 0 1.22-1.19l-.01-.71z"/><path class="chi_st9" d="M96.3 187.24c0 1.64-.02 3.29.01 4.93.01.55-.21.91-.54 1.33-.88 1.12-1.94 1.51-3.36 1.41-1.9-.13-3.82-.05-5.72-.02-.49.01-.66-.13-.62-.62.05-.64-.14-1.35.64-1.73.25-.12.2-.41.2-.64v-9.47c0-.27.03-.56-.25-.71-.87-.47-.52-1.28-.58-1.98-.03-.36.25-.34.49-.34 2.47 0 4.93.01 7.4-.01.48 0 .67.37.98.59 1.13.82 1.52 1.89 1.39 3.28-.13 1.32-.03 2.66-.04 3.98zm-3.48-.06v-2.94c0-1.85 0-1.83-1.88-1.83-.57 0-.71.18-.7.72.03 2.3.01 4.61.01 6.91 0 1.95 0 1.94 2 1.87.46-.02.59-.16.58-.6-.03-1.38-.01-2.75-.01-4.13z"/><path class="chi_st2" d="M119.97 139.05l4.21-5.76c.26-.36.49-.75.74-1.13.11-.17.19-.43.44-.39.2.04.19.29.24.47.42 1.34.69 2.72.87 4.1.25 1.89.43 3.79.33 5.7a67.38 67.38 0 01-1.72 12.14 58.73 58.73 0 01-5.22 13.86 6.5 6.5 0 01-.26.42c-.12-.34-.18-.56.01-.79.45-.9.48-1.9.65-2.86.35-2.07.65-4.16.96-6.24 1.54.28 2.25-.11 2.8-1.55.32-.84.36-1.72.2-2.57-.29-1.61-1.18-2.39-2.58-2.37l-.01-.79c.05-4.17-.14-8.3-1.66-12.24z"/><path class="chi_st5" d="M119.97 139.05c1.52 3.95 1.71 8.07 1.67 12.23l.01.79a3.26 3.26 0 00-1.61 2.33 4.46 4.46 0 001.19 4.16c-.32 2.08-.61 4.17-.96 6.24-.16.96-.2 1.96-.65 2.86.11-4.97-.59-9.78-2.96-14.23a16.94 16.94 0 00-5.8-6.42c1.51-.91 2.86-2 4.16-3.15 1.73-1.52 3.27-3.23 4.95-4.81z"/><path class="chi_st10" d="M80.98 73.41c-.27.48-.57.95-.81 1.44-.96 1.94-.53 3.65 1.19 4.96.95.73 2.09 1.11 3.12 1.68-.71.31-1.39-.06-2.05-.18a83.53 83.53 0 01-14.91-3.93c-.42-.16-.57-.38-.55-.82.12-2.16.17-4.33.49-6.47.14-.95.2-.99 1.11-.66 3.78 1.37 7.63 2.48 11.51 3.53.32.09.7.1.9.45z"/><path class="chi_st11" d="M150.06 189.62c0 1.66-.01 3.25.01 4.84 0 .37-.17.43-.48.43h-8.75c-.34 0-.47-.12-.46-.46.03-.7-.18-1.45.65-1.89.28-.15.22-.46.22-.72v-9.31c0-.29.03-.61-.27-.78-.85-.47-.55-1.28-.59-1.99-.02-.36.25-.35.49-.35l8.75-.01c.36 0 .44.15.44.48-.01 1.09-.02 2.18 0 3.26.01.33-.12.48-.42.55-.77.19-1.54.38-2.3.6-.38.11-.56.04-.52-.38v-.16c-.04-1.76-.04-1.75-1.81-1.59-.35.03-.46.15-.46.48.01.85.02 1.7 0 2.55-.01.41.18.48.53.47 1.06-.01 2.12.01 3.18-.01.45-.01.62.13.58.59-.06.76.3 1.73-.13 2.24-.42.5-1.4.15-2.13.16-2.03.03-2.03.01-2.03 2.01 0 1.51 0 1.47 1.51 1.51.68.02.86-.25.76-.83-.11-.66.16-.95.8-1.07.8-.14 1.58-.39 2.43-.62z"/><path class="chi_st2" d="M82.54 167.34c-.3 0-.4-.22-.5-.44a60.79 60.79 0 01-4.26-13.01 63.18 63.18 0 01-1.24-15.21c.1-2.47.27-4.94.86-7.5 1.14 2.25 2.61 4.13 4.04 6.05.44.59 1 1.1 1.29 1.8-.23.87-.49 1.73-.67 2.61-.72 3.44-.78 6.93-.79 10.42-.7-.06-1.33.1-1.79.65a4.78 4.78 0 00-.39 4.8c.65 1.1 1.32 1.39 2.5 1.06l.26 2.45.69 6.32z"/><path class="chi_st6" d="M82.54 167.34l-.68-6.32-.26-2.45c1.86-1.35 1.99-5.21-.32-6.52.01-3.49.06-6.98.79-10.42.18-.88.45-1.74.67-2.61.91.65 1.58 1.55 2.39 2.31a38.94 38.94 0 006.97 5.52c-1.2.72-2.23 1.53-3.14 2.48-3.32 3.46-4.97 7.69-5.72 12.33a28.76 28.76 0 00-.37 5.94l-.27.03a.94.94 0 01-.06-.29z"/><path class="chi_st7" d="M54.06 189.82c0 .32-.02.58.01.84.05.4-.23 1.03.17 1.16.58.18 1.26.06 1.89.04.21-.01.18-.22.18-.38 0-.8-.01-1.59.01-2.39.01-.36-.14-.46-.47-.45-.56.02-1.12-.06-1.67.02-1.12.15-1.93-.24-2.7-1.08-.61-.67-.98-1.29-.9-2.22.08-.97.07-1.96 0-2.94-.06-.76.28-1.24.74-1.8a3.1 3.1 0 013.03-1.24c.68.09 1.38.08 2.06 0 1.01-.11 1.68.32 2.43.97.96.82 1.01 1.76.96 2.83-.02.36-.21.44-.48.51l-2.46.64c-.39.11-.56.04-.57-.43-.06-1.6-.07-1.58-1.71-1.52-.42.02-.55.14-.54.55.03.74.03 1.49 0 2.23-.01.4.15.49.51.48.85-.02 1.7.02 2.54-.02.52-.03.86.2 1.25.51 1.18.93 1.7 2.08 1.44 3.58-.06.33-.06.7 0 1.03a3.62 3.62 0 01-1.58 3.76c-.32.24-.59.38-.99.37-.87-.02-1.77-.14-2.62.02-1.72.31-2.79-.55-3.77-1.74-.21-.26-.4-2.14-.2-2.37a.7.7 0 01.34-.18l3.1-.78z"/><path class="chi_st9" d="M104.74 187.15c0-1.67.01-3.34-.01-5.01-.01-.51.17-.86.49-1.26.93-1.19 2.06-1.72 3.57-1.48a5.1 5.1 0 001.51 0c1.35-.2 2.34.27 3.25 1.29.55.62.69 1.19.64 1.92-.05.73.29 1.62-.14 2.16-.4.5-1.32.43-2.01.6-1.34.34-1.34.34-1.34-1.07 0-2 0-1.98-2-1.88-.37.02-.51.11-.51.5l.01 8.51c0 .05-.02.12.01.16.49.66 1.19.2 1.78.3.26.04.69.18.71-.36v-.16c.09-.67-.32-1.51.21-1.96.45-.38 1.24-.38 1.88-.54 1.4-.34 1.4-.34 1.4 1.06 0 .34-.04.7.01 1.03a3.25 3.25 0 01-1.34 3.31c-.49.38-.89.64-1.53.62a48.66 48.66 0 00-3.82 0c-.59.02-.95-.23-1.39-.57-1.16-.9-1.56-2-1.41-3.44.12-1.23.03-2.49.03-3.73z"/><path class="chi_st11" d="M133.72 179.4c1.54 0 3.08.02 4.61-.01.49-.01.71.1.7.65a98.9 98.9 0 00-.01 4.22c.01.43-.1.66-.57.59h-.16c-.68-.04-1.55.28-2-.13-.42-.39-.08-1.26-.13-1.91-.02-.26.11-.62-.37-.64-.56-.02-.39.39-.39.67l-.01 8.99c0 .33 0 .63.33.83.84.51.4 1.33.46 2.02.03.28-.26.2-.43.21-1.35.01-2.71-.01-4.06.01-.41.01-.49-.17-.48-.52.02-.7-.15-1.45.67-1.87.26-.13.18-.42.18-.65v-9.07c0-.26.12-.6-.38-.61-.54-.01-.41.35-.43.65-.05.65.29 1.52-.13 1.91-.45.41-1.32.06-1.99.14-.63.08-.74-.2-.73-.76.04-1.3.05-2.6 0-3.9-.03-.69.22-.83.85-.81 1.5.02 2.99-.01 4.47-.01z"/><path class="chi_st7" d="M66.59 185.85c.49-1.3.91-2.47 1.36-3.62.12-.31-.07-.42-.24-.59-.39-.36-.63-1.56-.45-2.04.09-.25.28-.2.46-.2 1.33-.01 2.65.01 3.98-.01.39 0 .5.15.5.52-.01.74.12 1.5-.73 1.93-.24.12-.27.44-.37.68-.63 1.54-1.18 3.12-1.9 4.63a9.1 9.1 0 00-.83 4.7c.02.26-.03.55.24.71.86.48.49 1.3.56 2 .03.31-.2.32-.42.32h-4.38c-.15 0-.31.01-.4-.18-.18-.4.06-1.68.4-1.98.15-.14.4-.24.39-.47-.03-1.1.24-2.23-.17-3.31-.83-2.18-1.71-4.33-2.55-6.51a1.7 1.7 0 00-.6-.82c-.31-.21-.44-.48-.43-.87.04-1.67-.19-1.31 1.33-1.34 1.01-.02 2.02.02 3.02-.01.5-.02.65.16.62.64-.03.65.12 1.34-.63 1.73-.24.13-.17.36-.09.56l1.33 3.53z"/><path class="chi_st2" d="M86.81 129.6l-3.83-4.92a72.06 72.06 0 01-5.47-8.08 24.6 24.6 0 01-2.87-8.69 48.86 48.86 0 01-.54-9.83c.17.74.32 1.48.51 2.22a14.4 14.4 0 001.65 4.28c.42.66.95 1.19 1.62 1.6a14.8 14.8 0 016.73 8.81c.01.04-.02.1-.06.33-.55-1-1.2-1.77-1.93-2.47a15.52 15.52 0 00-4.2-2.83c-.16-.08-.34-.23-.52-.09s-.03.34-.02.52c.21 2.86 1.36 5.32 2.93 7.69 2.35 3.53 4.21 7.35 6.1 11.15.03.06.03.15.04.22-.04.01-.09.05-.14.09z"/><path class="chi_st9" d="M100.48 194.88h-2.15c-.33.01-.48-.09-.47-.45.03-.72-.18-1.5.67-1.95.24-.13.17-.43.17-.66v-9.39c0-.3.01-.6-.29-.77-.86-.49-.48-1.31-.52-2-.02-.31.28-.26.47-.26 1.41 0 2.81.01 4.22-.01.36 0 .54.1.52.49-.03.7.17 1.45-.65 1.88-.25.13-.18.42-.18.65v9.39c0 .26-.07.57.21.72.86.46.56 1.27.61 1.97.02.35-.19.38-.46.37-.72.02-1.44.02-2.15.02z"/><path class="chi_st10" d="M103.42 171.8c-2.97 0-5.93-.02-8.9.02-.68.01-.87-.2-.82-.86.17-2.25.74-4.37 2-6.26.25-.37.5-.83 1.07-.84.2.25.49.15.74.17 2.92.21 4.85 1.67 5.56 4.24.31 1.15.36 2.34.35 3.53z"/><path class="chi_st4" d="M101.66 116.08a3.52 3.52 0 01-.95-1.96c-.78-3.78-1-7.61-.63-11.45a5.3 5.3 0 011.61-3.54c.76-.7 1.17-.72 2.05-.19.06 2.51-.09 5.01-.15 7.51-.05 2.09-.03 4.18-.01 6.26.02 1.51-.41 2.74-1.92 3.37z"/><path class="chi_st3" d="M103.42 171.8c.01-1.19-.03-2.38-.35-3.53-.71-2.57-2.63-4.03-5.56-4.24-.25-.02-.54.08-.74-.17 2.61-.57 5.23-.82 7.88-.19 1.68.4 2.85 1.26 3.38 2.99.47 1.52.97 3.03 1.41 4.56.13.44.05.6-.45.59-1.86-.04-3.72-.02-5.57-.01z"/><path class="chi_st6" d="M122.74 41.97c-1.78-2.47-4.18-4.25-6.6-6.01a64.73 64.73 0 00-5.34-3.44c-.2-.12-.44-.19-.55-.43a30.5 30.5 0 0110.89 3.73 12.12 12.12 0 014.5 4.38c.26.46.26.72-.27.96-.83.41-1.7.71-2.63.81zM134.67 172.71c.18-.83.55-1.54 1.23-2.06a56.5 56.5 0 0111.2-1.72h1.23l-2.8 4.37c-.2.31-.54.15-.81.13l-10.05-.72z"/><path class="chi_st2" d="M67.4 170.59l1 1.81c-.53.39-1.17.24-1.74.3-2.33.24-4.71.18-7.01.59-1.71.3-2.51-.36-3.19-1.7-.38-.75-.88-1.44-1.36-2.14-.27-.39-.24-.54.27-.55 1.8-.02 3.58.15 5.36.4 2.25.33 4.46.8 6.67 1.29z"/><path class="chi_st3" d="M101.1 150.99c.95-.02 1.9-.06 2.84-.05.58 0 .96.42 1.3.82 1.31 1.53 1.49 3.38 1.44 5.29 0 .16-.03.31-.05.47-.09 1.17-.09 1.17-1.14.73-1.34-.89-2.86-1.03-4.4-.95-.46.02-.66-.07-.69-.58-.07-1.37-.18-2.75-.3-4.12-.03-.38.08-.66.36-.91.23-.21.43-.46.64-.7z"/><path class="chi_st8" d="M101.66 116.08c1.51-.63 1.94-1.86 1.92-3.37-.02-2.09-.04-4.18.01-6.26.06-2.5.21-5.01.15-7.51.88.52.97 1.39.97 2.28.01 1.93-.07 3.85.14 5.77.3 1.74.08 3.51.19 5.37a16.7 16.7 0 013.68-2.22c.34-.14.44-.51.61-.8.12-.21.06-.57.43-.59.47 1.61.14 2.86-1.33 3.9-1.49 1.05-2.79 2.36-4.21 3.5-.99.79-1.83.73-2.56-.07z"/><path class="chi_st10" d="M101.1 150.99c-.21.24-.4.49-.63.7-.28.25-.39.53-.36.91.12 1.37.23 2.74.3 4.12.03.51.22.6.69.58 1.55-.07 3.06.06 4.4.95-.14.23-.37.18-.57.15a33.03 33.03 0 00-8.37.27c-.37.05-.59-.03-.59-.41.01-2.14.27-4.21 1.48-6.07.91-1.41 2.24-1.36 3.65-1.2z"/><path class="chi_st8" d="M118.87 115.74c-.45-.9-.08-1.83.04-2.71a16.8 16.8 0 011.89-6.25 7.63 7.63 0 013.66-3.52c-.18-.22-.62-.15-.65-.54.63.11 1.23.33 1.75.71.64.47.72 1.04.2 1.63-.27.31-.61.59-.97.82a10.86 10.86 0 00-3.89 4.52c-.78 1.62-1.24 3.36-1.98 4.99-.04.09.06.24.1.36v-.02l-.15.01z"/><path class="chi_st2" d="M94.38 108.92c0 .28-.14.51-.27.74-.89 1.5-.76 2.68.43 3.96.69.74 1.46 1.38 2.28 1.97.16.11.39.17.48.48a13.57 13.57 0 01-4.31-1.62c-.99-.64-1.32-1.31-.99-2.4a5.31 5.31 0 012.34-3.17l.04.04z"/><path class="chi_st12" d="M89.85 177.84c-.53.07-.8-.06-.48-.68.09-.17.04-.41.05-.62.02-.27-.15-.28-.35-.29-.22 0-.36.04-.34.3.01.16-.02.32.01.48.16.86.11.89-.8.83-.38-.03-.46-.17-.35-.49a4.9 4.9 0 00-.02-3.27c-.05-.15-.09-.37.06-.43.37-.15.78-.11 1.16-.02.18.04.16.31.09.41-.24.34-.13.71-.16 1.07-.03.3.13.35.38.35s.33-.11.31-.34c-.03-.31.07-.64-.08-.94-.1-.2-.2-.49.02-.55.34-.09.75-.12 1.09-.01.25.08.07.37.02.61a6.05 6.05 0 000 2.9c.26.81-.08.71-.61.69zM111.8 175.68v-.56c0-1.44.69-1.95 2.09-1.52.39.12.62.42.65.89.02.49-.34.45-.61.56-.3.12-.38-.03-.38-.29 0-.31-.21-.3-.43-.31-.33-.02-.31.2-.31.42v1.67c.01.18-.13.46.22.49.17.01.42.1.49-.11.06-.2.17-.55-.11-.63-.47-.14-.33-.56-.23-.68.26-.3.69-.1 1.05-.13.32-.03.3.22.3.43 0 .37.01.74-.01 1.11 0 .12-.04.26-.1.36-.51.76-1.3.47-1.96.42-.53-.04-.71-.55-.66-1.09.02-.34 0-.68 0-1.03zM108.04 175.72c.07.53-.18 1.18.24 1.76.11.15.02.36-.25.36h-.8c-.41.03-.43-.2-.34-.5.01-.05.07-.08.09-.13.12-.32.2-.66-.05-.94-.06-.07-.39-.03-.43.04a.96.96 0 00.01.9c.12.22.27.51-.01.59-.37.1-.81.1-1.17-.01-.27-.09-.04-.37.03-.58.24-.8.08-1.62.1-2.43.03-.97.25-1.19 1.32-1.18.98 0 1.24.24 1.24 1.18.02.28.02.57.02.94zm-.96-.77c-.05-.18.14-.51-.34-.5-.39.01-.32.27-.31.48.01.23-.13.55.33.54.41 0 .3-.26.32-.52zM120.62 175.71v.72c0 1.3-.15 1.43-1.46 1.42-.72-.01-1.06-.34-1.05-1.06v-2.22c.01-.78.31-.98 1.36-.98.87 0 1.14.24 1.15 1.01v1.11zm-.93.08v-1.03c0-.17-.04-.31-.25-.32-.21-.01-.37.05-.37.29v2.06c0 .2.13.26.31.27.24.02.33-.09.32-.32l-.01-.95zM83.23 175.31c-.01-.21-.04-.4-.03-.58.01-.28-.17-.28-.36-.28-.2 0-.28.09-.28.28v2.06c0 .22.13.26.31.25.15-.01.36.03.33-.21-.09-.73.5-.57.87-.72.23 1.51-.45 2.13-1.88 1.71a.85.85 0 01-.64-.89c.01-.79-.01-1.59.01-2.38.02-.79.41-1 1.61-.98.7.01.96.36.99 1.03.02.73-.49.61-.93.71zM100.74 175.31c-.01-.22-.04-.4-.03-.58.01-.28-.17-.28-.36-.28-.2 0-.28.09-.28.28v2.06c0 .22.13.26.31.25.15-.01.36.03.33-.21-.09-.73.5-.57.87-.72.23 1.51-.45 2.13-1.88 1.71a.85.85 0 01-.64-.89c.01-.79-.01-1.59.01-2.38.02-.79.41-1 1.62-.98.7.01.96.36.99 1.03.02.73-.5.61-.94.71z"/><path class="chi_st2" d="M70.68 102.48c-2.14.13-3.33-.8-3.67-2.8-.21-1.26.07-2.5.46-3.73.3 1.19.55 2.38.99 3.52.45 1.15.98 2.23 2.22 3.01zM134.08 95.79c.48 4.03-.69 6.62-3.2 7.03.88-1.06 1.78-1.94 2.17-3.15.39-1.2.74-2.42 1.03-3.88z"/><path class="chi_st12" d="M94.84 177.84c-.6.01-.88.1-.6-.75.28-.88.32-1.96-.08-2.92-.17-.4-.1-.57.37-.6.95-.05.87-.05.81.87-.06.95-.22 1.92.13 2.87.27.79-.39.45-.63.53z"/><path class="chi_st2" d="M82.58 167.63l.27-.03c.01.15.04.3.04.46 0 .06-.07.11-.12.2-.27-.18-.23-.4-.19-.63z"/><path class="chi_st6" d="M139.26 64.95l-.18.03c-.05-.02-.11-.04-.13-.07-.04-.06-.01-.1.06-.08.08.02.26-.13.25.12z"/><path class="chi_st2" d="M73.55 65.67l-.05.03-.04-.07.06-.01.03.05zM94.83 108.42l.04-.07a.16.16 0 00-.04.07zM64.25 64.78l.08-.06-.06.08-.02-.02z"/><path class="chi_st4" d="M99.1 119.26l-.06-.11.1.03-.06.09.02-.01z"/><path class="chi_st2" d="M94.33 108.87l.17-.15.03.03-.15.17-.05-.05z"/><path class="chi_st2" d="M94.67 108.58l-.14.18-.03-.03a.8.8 0 01.17-.15c-.01 0 0 0 0 0zM94.82 108.41l-.15.16.15-.16c.01.01 0 0 0 0z"/><path class="chi_st0" d="M118.87 115.74l.15-.01c.16.12.05.23-.06.24-.14.01-.05-.15-.09-.23zM122.67 184.4v.71c0 1.19 0 1.19-1.22 1.19-1.21 0-1.21 0-1.21-1.21 0-.69.03-1.38-.01-2.06-.03-.51.17-.61.64-.62 1.79-.02 1.79-.04 1.79 1.75l.01.24zM92.82 187.18c0 1.38-.01 2.75.01 4.13.01.44-.12.59-.58.6-2 .07-2 .08-2-1.87 0-2.3.02-4.61-.01-6.91-.01-.54.13-.72.7-.72 1.88 0 1.88-.02 1.88 1.83v2.94zM121.22 158.56a4.48 4.48 0 01-1.19-4.16 3.26 3.26 0 011.61-2.33c1.4-.03 2.29.75 2.58 2.37a4.9 4.9 0 01-.2 2.57c-.54 1.44-1.26 1.83-2.8 1.55zM81.28 152.05c2.31 1.31 2.18 5.17.32 6.52-1.18.32-1.85.04-2.5-1.06a4.78 4.78 0 01.39-4.8c.46-.55 1.09-.72 1.79-.66zM107.08 174.95c-.02.25.08.52-.31.52-.46.01-.32-.31-.33-.54-.01-.22-.08-.48.31-.48.47-.01.28.33.33.5z"/><path class="chi_st2" d="M119.69 175.79v.95c.01.23-.08.34-.32.32-.18-.01-.31-.07-.31-.27v-2.06c0-.25.16-.3.37-.29.21.01.25.15.25.32l.01 1.03z"/></svg>