<?xml version="1.0" encoding="utf-8"?>
<!-- Generator: Adobe Illustrator 24.1.0, SVG Export Plug-In . SVG Version: 6.00 Build 0)  -->
<svg version="1.1" id="Layer_1" xmlns="http://www.w3.org/2000/svg" xmlns:xlink="http://www.w3.org/1999/xlink" x="0px"
	y="0px" viewBox="0 0 200 200" style="enable-background:new 0 0 200 200;" xml:space="preserve">
	<style type="text/css">
		.edm_st0 {
			fill: #D5D8D9;
		}

		.edm_st1 {
			fill: #0A1F40;
		}

		.edm_st2 {
			fill: #34C0ED;
		}

		.edm_st3 {
			fill: #0E2346;
		}

		.edm_st4 {
			fill: #3CC1ED;
		}

		.edm_st5 {
			fill: #A5DBE8;
		}

		.edm_st6 {
			fill: #1F91B7;
		}

		.edm_st7 {
			fill: #F9FBFB;
		}

		.edm_st8 {
			fill: #F7F9FB;
		}

		.edm_st9 {
			fill: #14779A;
		}

		.edm_st10 {
			fill: #3AB6E5;
		}

		.edm_st11 {
			fill: #EED009;
		}

		.edm_st12 {
			fill: #4DA6D8;
		}

		.edm_st13 {
			fill: #4AA3D5;
		}

		.edm_st14 {
			fill: #081E3E;
		}
	</style>
	<g>
		<path class="edm_st0" d="M99.56,0.01c0.47,0.51,1.09,0.81,1.67,1.15c1.46,0.83,2.95,1.6,4.45,2.35c4.24,2.11,8.27,4.57,11.94,7.56
		c1.57,1.29,3.18,2.57,4.56,4.08c3.09,3.4,6,6.94,8.18,11.02c2.52,4.72,4.91,9.49,6.98,14.42c0.92,2.18,1.85,4.36,2.55,6.63
		c0.24,0.76,0.8,1.26,1.29,1.81c3.1,3.4,5.88,7.04,8.42,10.86c1.74,2.63,3.41,5.31,4.74,8.18c1.1,2.37,2.05,4.79,2.79,7.29
		c0.23,0.78,0.63,1.46,1.21,2.05c7.28,7.27,14.55,14.54,21.82,21.82c0.27,0.27,0.54,0.5,0.95,0.45c0,1.32,0,2.63,0,3.95
		c-0.35-0.03-0.65,0.06-0.65,0.47c0,1.23-0.56,2.25-1.21,3.22c-1.07,1.61-2.17,3.19-3.58,4.54c-1.85,1.76-3.96,3.08-6.35,3.97
		c-0.36,0.13-0.71,0.28-1.08,0.4c-0.35,0.11-0.32,0.37-0.28,0.62c0.05,0.31,0.31,0.3,0.52,0.24c0.36-0.1,0.73-0.09,1.09-0.07
		c1.75,0.06,3.5-0.15,5.25-0.11c0.14,0,0.32-0.07,0.41,0.08c0.09,0.15-0.05,0.27-0.13,0.38c-0.95,1.34-1.85,2.71-2.87,3.99
		c-0.72,0.9-1.28,1.9-2.04,2.76c-0.66,0.74-1.46,1.32-2.34,1.77c-1.06,0.54-2.14,1.02-3.2,1.55c-1.34,0.67-2.66,1.38-4,2.04
		c-0.33,0.16-0.46,0.41-0.47,0.73c-0.02,0.64,0.01,1.28-0.01,1.92c-0.01,0.31,0.19,0.37,0.4,0.42c1.21,0.32,2.45,0.52,3.69,0.69
		c1.04,0.14,2.08,0.31,3.1,0.59c0.16,0.05,0.43,0.04,0.34,0.37c-0.53,1.86-1.14,3.69-2.21,5.33c-0.16,0.25-0.42,0.34-0.64,0.49
		c-1.8,1.21-3.61,2.41-5.41,3.62c-0.61,0.4-0.94,0.88-0.93,1.7c0.05,3.8-1.4,7.06-3.84,9.9c-2.3,2.67-5.23,4.37-8.68,5.02
		c-3.55,0.66-7.08,1.43-10.62,2.15c-3.66,0.74-7.33,1.51-10.99,2.26c-2.05,0.42-4.07,0.96-6.08,1.53c-0.95,0.27-1.56,0.78-2.06,1.61
		c-2.07,3.41-4.24,6.76-6.8,9.83c-1.23,1.46-2.44,2.94-3.75,4.34c-3.29,3.54-6.99,6.6-11.02,9.24c-2.94,1.92-6.12,3.38-9.29,4.87
		c-2.67,1.26-5.42,2.35-8.04,3.73c-0.09,0.05-0.18,0.12-0.26,0.19c-0.04,0-0.07,0-0.11,0c0.02-0.34,0-0.69,0.06-1.03
		c0.22-1.18,0.64-2.31,0.92-3.48c0.61-2.47,1.1-4.96,1.53-7.47c0.31-1.81,0.59-3.62,0.86-5.43c0.04-0.26,0.17-0.61-0.15-0.8
		c-0.3-0.18-0.64-0.14-0.94,0.02c-0.14,0.07-0.28,0.16-0.41,0.26c-2.06,1.54-4.11,3.07-6.17,4.61c-0.45,0.34-0.6,0.28-0.63-0.3
		c-0.11-2.15,0.09-4.3,0.24-6.44c0.09-1.24,0.13-2.47-0.02-3.71c-0.06-0.49-0.35-0.64-0.77-0.68c-0.43-0.04-0.82,0.13-1.23,0.23
		c-3.97,0.98-7.98,1.75-11.99,2.58c-4.25,0.88-8.51,1.7-12.76,2.58c-0.86,0.18-1.79,0.11-2.55,0.46c-0.72,0.33-1.01,0.05-1.38-0.39
		c-0.13-0.15-0.25-0.31-0.39-0.46c-0.69-0.72-1.19-1.62-2.04-2.2c-0.23-0.16-0.36-0.37-0.36-0.69c0.01-1.79,0.03-3.57-0.09-5.36
		c-0.05-0.84-0.19-1.66-0.28-2.49c-0.05-0.5-0.31-0.66-0.75-0.75c-1.74-0.36-3.52-0.51-5.25-0.97c-0.35-0.09-0.56-0.25-0.72-0.58
		c-0.63-1.3-1.28-2.58-1.93-3.88c-0.44-0.89-0.43-0.87,0.44-1.41c2.37-1.44,4.88-2.63,7.25-4.07c0.89-0.54,1.73-1.15,2.59-1.73
		c0.25-0.17,0.32-0.39,0.26-0.66c-0.07-0.29-0.32-0.18-0.5-0.19c-1.24-0.01-2.48-0.07-3.72-0.09c-3.53-0.05-7.05-0.02-10.58-0.02
		c-0.23,0-0.47,0.03-0.66-0.18c-1.69-1.87-3.76-3.35-5.5-5.17c-0.15-0.15-0.26-0.37-0.52-0.36c0-0.07,0-0.15,0-0.22
		c0.87-0.13,1.65-0.54,2.46-0.86c5.82-2.26,11.63-4.56,17.46-6.8c0.61-0.23,0.81-1.15,0.63-1.84c-0.32-1.27-0.7-2.52-0.98-3.8
		c-0.33-1.56-0.58-3.14-0.74-4.73c-0.23-2.21-0.37-4.43-0.3-6.65c0.11-3.72,0.21-7.46,1.33-11.06c0.1-0.31-0.05-0.4-0.27-0.48
		c-0.43-0.17-0.79,0.05-1.13,0.25c-1.51,0.88-3,1.8-4.52,2.66c-0.98,0.56-1.91,1.21-2.97,1.63c-0.28,0.11-0.39,0.06-0.34-0.23
		c0.23-1.47,0.22-2.97,0.54-4.43c0.52-2.38,0.6-4.82,1.08-7.21c0.73-3.58,1.74-7.06,3.01-10.48c0.72-1.92,1.52-3.79,2.44-5.61
		c1.38-2.72,3.07-5.25,5.04-7.58c1.89-2.24,4.02-4.21,6.23-6.13c2.39-2.08,4.8-4.13,7.39-5.97c0.64-0.45,0.71-0.91,0.38-1.64
		c-0.9-1.97-1.81-3.94-2.34-6.06c-0.42-1.69-0.73-3.41-0.98-5.13c-0.37-2.53,0.09-5,0.48-7.48c0.36-2.31,0.79-4.61,1.16-6.93
		c0.54-3.48,1.1-6.96,1.81-10.4c0.84-4.05,0.4-7.95-1.24-11.75c-1.24-2.88-2.41-5.79-3.62-8.67c-0.63-1.51-1.3-3.01-1.94-4.52
		c-0.06-0.14-0.23-0.29-0.07-0.44c0.14-0.13,0.31-0.01,0.46,0.03c0.39,0.1,0.64,0.4,0.96,0.61c2.53,1.69,5.06,3.38,7.58,5.1
		c3.11,2.13,6.26,4.21,9.46,6.21c3.59,2.25,7.32,4.23,11.22,5.9c2.58,1.1,5.12,2.31,7.73,3.34c1.96,0.78,3.97,1.45,6.03,1.9
		c0.33,0.07,0.65-0.05,0.97-0.04c0.32,0.01,0.31-0.33,0.39-0.53c0.69-1.71,1.38-3.41,2.02-5.14c0.93-2.51,1.88-5.02,2.7-7.57
		c0.53-1.66,1.04-3.34,1.56-5.01c0.58-1.83,0.4-3.66,0-5.5c-0.39-1.85-0.77-3.7-1.16-5.55c-0.07-0.34,0.09-0.64,0.09-0.97
		C99.12,0.01,99.34,0.01,99.56,0.01z M154.58,152.6l0,0.01c0.29,0,0.38-0.16,0.36-0.43l-0.01,0.01c0.41,0.01,0.36-0.31,0.4-0.56
		c0.96-1.49,1.64-3.07,1.82-4.86c0.12-1.18,0.05-2.37,0.11-3.55c0.16-0.09,0.33-0.16,0.48-0.26c1.99-1.33,3.95-2.7,6.02-3.89
		c1.35-0.77,1.87-2.03,1.81-3.56l-0.01,0.01c0.22-0.05,0.41-0.11,0.28-0.41c-0.34-0.31-0.78-0.39-1.21-0.46
		c-1.79-0.3-3.59-0.6-5.39-0.86c-0.42-0.06-0.55-0.22-0.56-0.61c-0.05-1.46-0.09-2.91,0.05-4.37c0.22-0.08,0.46-0.13,0.67-0.23
		c2.81-1.39,5.62-2.79,8.44-4.18c0.61-0.3,1.09-0.71,1.47-1.27c0.5-0.74,0.99-1.5,1.59-2.16c0.59-0.65,0.73-1.58,1.43-2.14
		c0.04-0.03,0.01-0.13,0.01-0.2c-0.17-0.31-0.46-0.31-0.76-0.29c-0.24,0.02-0.47,0.06-0.71,0.07c-4.89,0.12-9.79,0.25-14.68,0.48
		c-1.09,0.05-2.19,0.06-3.28,0.14c-1.92,0.13-3.77,0.66-5.65,1.03c-2.09,0.4-4.19,0.82-6.28,1.23c-0.67,0.13-1.28,0.36-1.48,1.11
		c-0.08,0.3-0.27,0.17-0.43,0.12c-1.13-0.3-2.27-0.33-3.42-0.09c-3.43,0.71-6.86,1.42-10.29,2.12c-1.17,0.24-1.17,0.24-1.34,1.41
		c-0.01,0.04-0.01,0.07-0.02,0.11c-0.08,0.3-0.18,0.5-0.56,0.27c-0.45-0.27-0.95-0.45-1.47-0.59c-0.96-0.26-1.89-0.01-2.82,0.12
		c-2.17,0.31-4.33,0.66-6.37,1.52c-0.53,0.23-1.03,0.41-1.61,0.17c-0.22-0.09-0.47-0.02-0.7,0.03c-3.28,0.69-6.57,1.38-9.85,2.06
		c-7.79,1.6-15.57,3.2-23.37,4.78c-3.22,0.65-6.38,1.41-9.1,3.39c-0.09,0.06-0.19,0.11-0.29,0.16c-0.89,0.45-0.89,0.44-0.97-0.55
		c-0.06-0.69-0.18-0.78-0.85-0.64c-2.54,0.53-5.07,1.07-7.61,1.56c-0.56,0.11-0.84,0.31-0.87,0.89c-0.02,0.38-0.21,0.53-0.63,0.36
		c-0.97-0.39-2-0.46-3.02-0.28c-1.56,0.28-3.11,0.64-4.67,0.92c-2.87,0.53-5.7,1.14-8.43,2.24c-6.12,2.47-12.29,4.8-18.44,7.19
		c-0.26,0.1-0.56,0.2-0.56,0.57c0.04,0.3,0.26,0.48,0.45,0.66c1.02,0.97,2.05,1.92,3.07,2.89c0.13,0.13,0.28,0.16,0.45,0.15
		c3.58-0.08,7.15,0.1,10.73,0.2c1.71,0.05,3.43,0.17,5.14,0.04c0,0.91,0,1.82,0.02,2.73c0.01,0.25-0.09,0.4-0.3,0.52
		c-3.11,1.74-6.22,3.49-9.34,5.23c-0.33,0.19-0.62,0.38-0.63,0.81c0.09,0.98,0.7,1.74,1.08,2.6c0.2,0.47,0.5,0.7,0.99,0.81
		c2.18,0.52,4.43,0.65,6.61,1.2c0.02,2.88,0.04,5.76,0.06,8.63c0,0.41,0.07,0.76,0.52,0.92c0.32,0.58,0.75,1.07,1.15,1.6
		c0.54,0.72,1.19,0.98,2.04,0.57c0.13-0.06,0.28-0.08,0.42-0.1c2.53-0.44,5.04-0.96,7.55-1.51c5.69-1.24,11.41-2.38,17.12-3.54
		c5.3-1.08,10.6-2.16,15.89-3.26c5.15-1.08,10.29-2.2,15.46-3.2c5.81-1.13,11.6-2.34,17.39-3.58c4.95-1.06,9.91-2.09,14.87-3.11
		c4.39-0.9,8.79-1.74,13.18-2.64c2.95-0.61,5.53-1.94,7.61-4.16c0.47-0.5,0.94-1.02,0.91-1.79l0,0.01
		C154.47,152.95,154.64,152.89,154.58,152.6z M81.67,173.92c-1.61,0.1-3.18,0.38-4.68,1c-0.53-0.12-1,0.1-1.5,0.22
		c-0.38,0.09-0.52,0.28-0.51,0.69c0.03,1.04,0.01,2.08,0.01,3.12c0,0.85,0,1.7,0,2.66c0.31-0.21,0.53-0.35,0.75-0.51
		c2.01-1.45,4.03-2.9,6.03-4.37c0.38-0.28,0.56-0.33,0.74,0.19c0.93,2.63,0.98,5.33,0.66,8.05c-0.27,2.32-0.96,4.56-1.52,6.82
		c-0.28,1.11-0.56,2.21-0.85,3.38c0.22-0.08,0.36-0.12,0.49-0.18c2.99-1.28,5.94-2.64,8.78-4.22c4.58-2.56,8.85-5.52,12.44-9.4
		c2.98-3.22,5.82-6.55,8.39-10.1c0.78-1.08,1.52-2.19,2.07-3.41c0.14-0.3,0.14-0.43-0.27-0.35c-0.82,0.16-1.65,0.28-2.48,0.42
		c-1.87,0.38-3.73,0.76-5.6,1.12c-0.75,0.15-1.49,0.3-2.15,0.73c-0.36-0.02-0.72-0.04-1.08,0.04c-1.36,0.29-2.73,0.55-4.09,0.83
		c-1.22,0.25-2.44,0.51-3.66,0.76c-0.25,0.04-0.5,0.06-0.75,0.11c-1.22,0.24-2.48,0.33-3.62,0.89c-0.63-0.13-1.17,0.26-1.76,0.33
		c-1.39,0.13-2.78,0.29-4.07,0.88C82.82,173.61,82.18,173.42,81.67,173.92z M45.78,136.9c0.04,0.29,0.07,0.58,0.11,0.87
		c0.22,1.43,0.22,1.42,1.64,1.13c11.03-2.29,22.06-4.58,33.09-6.86c10.19-2.11,20.39-4.2,30.59-6.3c9.34-1.92,18.68-3.83,28.01-5.78
		c3.14-0.65,6.31-1.16,9.42-1.96c0.94-0.24,0.93-0.25,0.76-1.19c-0.3-1.63-0.73-3.24-1.11-4.85c2.41,0.39,4.82,0.78,7.23,1.16
		c3.06,0.48,6.13,0.91,9.25,0.82c1.72-0.05,3.36-0.45,4.92-1.14c3.36-1.49,5.62-4.1,7.39-7.21c0.71-1.24,0.98-2.58,0.87-4
		c-0.06-0.8-0.32-1.47-0.98-1.99c-0.65-0.5-1.29-1.03-1.87-1.61c-6.35-6.31-12.69-12.63-19.03-18.95c-0.64-0.64-1.16-1.36-1.38-2.26
		c-0.78-3.23-2.02-6.28-3.6-9.2c-3.33-6.19-7.32-11.91-12.14-17.03c-0.84-0.89-1.45-1.91-1.8-3.09c-0.21-0.72-0.42-1.44-0.7-2.13
		c-2.25-5.59-4.9-11-7.61-16.38c-3.55-7.05-8.68-12.72-14.94-17.43c-2.99-2.25-6.27-4-9.59-5.71c-0.39-0.2-0.78-0.4-1.17-0.6
		c-0.21-0.11-0.47-0.28-0.66-0.12c-0.19,0.15-0.08,0.45-0.04,0.68c0.07,0.36,0.16,0.71,0.25,1.07c0.45,1.76,0.46,3.5-0.01,5.29
		c-1.9,7.08-4.92,13.77-7.16,20.73c-0.1,0.32-0.28,0.4-0.6,0.4c-1.52-0.02-3.01-0.25-4.49-0.62c-2.56-0.64-4.97-1.7-7.4-2.69
		c-6.89-2.82-13.53-6.14-19.77-10.21c-2.66-1.73-5.29-3.52-7.93-5.28c-0.17-0.11-0.33-0.28-0.53-0.1c-0.19,0.16-0.04,0.34,0.02,0.5
		c0.22,0.54,0.45,1.08,0.66,1.62c0.9,2.27,2.05,4.44,2.66,6.83c0.49,1.94,0.75,3.89,0.66,5.9c-0.08,1.9-0.51,3.75-0.8,5.62
		c-0.61,3.9-1.28,7.8-2.03,11.68c-0.5,2.63-1.01,5.27-1.11,7.95c-0.11,2.85,0.34,5.63,1.21,8.35c0.75,2.35,1.95,4.48,3.15,6.61
		c0.33,0.59,0.29,0.83-0.26,1.24c-0.9,0.66-1.82,1.29-2.71,1.96c-2.7,2.03-5.43,4.02-7.9,6.34c-3.47,3.26-6.16,7.11-8.32,11.34
		c-2.85,5.56-4.78,11.43-5.92,17.56c-0.24,1.32-0.6,2.63-0.46,4c0.05,0.47,0.17,0.46,0.51,0.26c1.65-0.94,3.31-1.86,4.96-2.79
		c1.18-0.66,2.35-1.34,3.52-2c0.18-0.1,0.42-0.28,0.6-0.12c0.17,0.15,0.1,0.42,0.03,0.63c-0.15,0.45-0.35,0.88-0.51,1.33
		c-1.72,5.08-2.65,10.3-2.73,15.67c-0.03,2.19,0.07,4.38,0.29,6.56c0.25,2.55,0.68,5.06,1.47,7.5c0.36,1.12,0.37,1.12,1.49,0.85
		c0.04-0.01,0.07-0.01,0.11-0.02c0.93-0.14,1.51-0.62,1.7-1.58C45.2,137.65,45.34,137.18,45.78,136.9z" />
		<path class="edm_st1" d="M148.29,111.96c0.38,1.61,0.8,3.22,1.11,4.85c0.17,0.94,0.18,0.95-0.76,1.19c-3.11,0.79-6.28,1.3-9.42,1.96
		c-9.33,1.95-18.67,3.86-28.01,5.78c-10.2,2.1-20.39,4.19-30.59,6.3c-11.03,2.28-22.06,4.57-33.09,6.86
		c-1.42,0.3-1.42,0.3-1.64-1.13c-0.04-0.29-0.07-0.58-0.11-0.87c-0.12-1.68-0.22-3.36-0.01-5.07c-0.96,1.28-1.57,2.76-2.37,4.23
		c-0.1-0.28-0.16-0.45-0.22-0.62c-0.47-1.47-0.58-3.01-0.75-4.53c-0.25-2.17-0.12-4.34-0.14-6.52c-0.04-5.13,0.96-10.08,2.68-14.89
		c0.81-2.27,1.83-4.45,2.87-6.62c0.18-0.38,0.34-0.79,0.36-1.27c-0.18,0.08-0.31,0.13-0.44,0.19c-3.12,1.46-6.24,2.93-9.36,4.39
		c-0.43,0.2-0.58,0.1-0.56-0.38c0.01-0.11,0.04-0.21,0.06-0.32c0.65-3.15,1.52-6.23,2.67-9.24c2.89-7.62,7.31-14.13,13.7-19.27
		c2.55-2.05,5.18-3.98,7.8-5.95c0.61-0.46,0.62-0.46,0.19-1.06c-1.22-1.74-2.34-3.53-3.2-5.47c-1.52-3.43-2.24-7-1.96-10.76
		c0.13-1.77,0.49-3.5,0.79-5.25c0.86-5.05,1.68-10.11,2.58-15.15c0.63-3.51,0.77-6.99-0.26-10.46c-0.27-0.91-0.44-1.85-0.68-2.86
		c0.43,0.24,0.8,0.43,1.14,0.65c7.82,5.24,16.24,9.29,24.98,12.69c3.53,1.37,7.19,2.18,10.99,2.23c0.39,0.01,0.57-0.09,0.66-0.51
		c0.55-2.72,1.45-5.34,2.47-7.92c0.89-2.25,1.74-4.53,2.56-6.81c1.27-3.54,2.36-7.13,3.03-10.84c0.08-0.42,0.25-0.53,0.63-0.33
		c0.33,0.19,0.67,0.37,1.01,0.56c7.36,4.05,13.34,9.6,17.9,16.66c1.78,2.75,3.11,5.74,4.54,8.68c2.05,4.2,4.1,8.4,5.48,12.88
		c0.48,1.55,1.24,2.91,2.3,4.13c3.17,3.64,6.24,7.35,8.89,11.4c2.99,4.57,5.38,9.4,6.62,14.75c0.12,0.51,0.4,0.94,0.7,1.35
		c1.18,1.59,2.51,3.04,3.94,4.41c3.67,3.53,7.35,7.06,11.03,10.59c2.24,2.15,4.47,4.31,6.74,6.43c0.61,0.57,0.62,1.2,0.43,1.89
		c-0.23,0.85-0.62,1.64-1.05,2.4c-2.48,4.39-6.28,6.52-11.28,6.52c-1.24,0-2.47-0.25-3.7-0.41c-5.18-0.67-10.3-1.65-15.36-2.92
		c-2.9-0.73-5.81-1.26-8.81-1.14c-2.3,0.09-4.11,0.95-5.09,3.14c-0.47,1.05-0.67,2.19-0.99,3.3c-0.07,0.24-0.02,0.33,0.27,0.27
		c0.71-0.15,1.43-0.27,2.15-0.4c0.05,0,0.11,0,0.16-0.01c4.31-0.78,8.59-1.69,12.87-2.64c0.59-0.09,1.19-0.22,1.78-0.27
		c1.34-0.13,1.35-0.12,1.74,1.16C148.27,111.93,148.28,111.95,148.29,111.96z M53.1,129.69c0.59-0.12,1.18-0.25,1.77-0.35
		c0.36-0.06,0.49-0.17,0.32-0.57c-0.35-0.86-0.58-1.76-0.8-2.66c-0.23-0.95-0.46-1.89-0.71-2.9c-3.06,2.1-5.45,4.73-7.49,7.84
		c1.12-0.16,2.14-0.34,3.15-0.58C50.58,130.2,51.84,129.95,53.1,129.69z M122.01,38.28c0.36,0.73,1.1,0.98,1.71,1.44
		c0.03-0.1,0.04-0.12,0.04-0.13c-1.72-4.98-4.01-9.67-7.43-13.73c-0.95-1.13-1.89-2.27-3.33-2.85c-0.92-0.37-0.9-0.42-1.24,0.55
		c-0.13,0.28-0.24,0.57-0.39,0.84c-1.42,2.42-2.62,4.97-4.12,7.34c-0.32,0.5-0.55,1.03-0.7,1.72c1.46-0.74,2.84-0.69,4.25-0.25
		c0.57,0.18,1.15,0.36,1.71,0.55c0.26,0.09,0.47,0.04,0.49-0.23c0.06-0.65,0.5-0.56,0.91-0.5c0.25,0.04,0.5,0.12,0.73,0.22
		c1.56,0.66,2.87,1.71,4.19,2.74C119.86,36.8,120.84,37.67,122.01,38.28z M130.37,68.06c0.03-0.13,0.07-0.26,0.1-0.39
		c0.09,0.01,0.18,0.01,0.27,0.03c3.22,0.78,6.11,2.26,8.76,4.21c3.25,2.39,6.36,4.96,9.53,7.45c0.23,0.18,0.45,0.36,0.73,0.48
		c0.35,0.15,0.5,0.11,0.43-0.32c-0.18-1.02-0.39-2.04-0.69-3.04c-0.51-1.68-1.44-3.14-2.32-4.63c-0.03-0.47-0.23-0.87-0.44-1.28
		c-1.24-2.34-2.55-4.63-3.99-6.86c-1.8-2.79-3.63-5.56-5.94-7.98c-2.73-2.86-5.92-5.18-9.06-7.54c-2.09-1.56-4.28-2.98-6.56-4.24
		c-3.44-1.91-7.01-3.51-10.86-4.41c-0.71-0.17-1.42-0.23-2.14-0.06c3.51,1.48,7.04,2.9,10.16,5.35c-0.45,0.02-0.76,0.02-1.08-0.05
		c-3.19-0.77-6.37-1.65-9.59-2.29c-1.71-0.34-3.42-0.69-5.16-0.82c-1.64-0.28-3.29-0.4-4.95-0.44c-1.81-0.04-3.61-0.04-5.41-0.13
		c-1.84-0.09-3.67-0.24-5.48-0.59c-5.44-1.05-10.58-2.96-15.41-5.68c-0.27-0.15-0.54-0.42-0.81-0.42c-0.32,0-0.34,0.48-0.59,0.67
		c-0.23,0.22-0.35,0.51-0.5,0.77c-1.11,2.03-1.74,4.24-2.33,6.46c-0.57,2.14-0.94,4.33-1.19,6.54c-0.16,1.41-0.3,2.83-0.21,4.26
		c0.07,1.2,0.18,2.4,0.31,3.59c0.09,0.84,0.24,1.68,0.39,2.65c1.17-2.5,2.63-4.44,5.63-4.68c-0.13,0.23-0.18,0.34-0.25,0.45
		c-1.45,2.21-1.87,4.64-1.48,7.22c0.34,2.22,1.14,4.29,2.13,6.28c1.79,3.61,4.22,6.77,6.83,9.81c0.65,0.75,1.34,1.48,1.93,2.32
		c-0.49,0.15-0.9-0.07-1.33-0.06c-1.37,0.02-2.74,0.02-4.1,0.1c-1.69,0.09-3.39,0.14-5.05,0.47c-3.77,0.75-7.34,2.02-10.44,4.38
		c-1.73,1.32-3.38,2.73-4.49,4.66c-0.2,0.35-0.26,0.77-0.57,1.04c-0.58,0.51-0.82,1.22-1.13,1.94c0.55,0.04,1.01-0.15,1.48-0.27
		c2.05-0.49,4.06-1.17,6.14-1.57c0.31-0.06,0.75-0.32,0.92-0.05c0.18,0.28-0.08,0.68-0.27,1c-2.07,3.53-3.98,7.14-5.68,10.86
		c-1.05,2.29-2.04,4.6-2.58,7.08c-0.16,0.72-0.43,1.45-0.2,2.2c0.18,0.58,0.26,0.62,0.8,0.36c1.63-0.77,3.26-1.56,4.9-2.32
		c0.92-0.43,1.86-0.82,2.87-1.13c0,0.16,0.01,0.27,0,0.38c-0.31,2.81-0.49,5.62-0.35,8.46c0.13,2.65,0.47,5.26,1.06,7.84
		c0.35,1.54,0.36,1.53,1.95,1.2c2.76-0.57,5.53-1.12,8.29-1.7c2.1-0.44,4.23-0.72,6.28-1.39c0.2-0.01,0.4-0.02,0.6-0.02
		c0.5,0,0.82-0.15,0.86-0.74c0.05-0.78,0.18-1.56,0.28-2.34c0.27-2.19,0.53-4.38,1.07-6.52c0.78-3.11,2.08-6.03,3.39-8.93
		c0.08-0.17,0.14-0.34,0.23-0.59c-4.67,1.37-8.95,3.26-12.59,6.55c-0.39-1.54-0.42-3-0.14-4.47c0.4-2.08,1.14-4.07,1.82-6.07
		c0.24-0.47,0.46-0.95,0.73-1.4c3.03-5,7.47-8.36,12.64-10.86c0.13-0.06,0.27-0.22,0.45-0.06c-0.22,0.24-0.44,0.48-0.68,0.72
		c-1.4,1.42-2.8,2.83-4.06,4.38c-1.64,2.01-2.63,4.31-3.06,6.86c-0.12,0.71-0.11,0.72,0.62,0.66c1.27-0.12,2.54-0.26,3.81-0.37
		c2.35-0.21,4.7-0.32,7.06-0.31c0.42,0,0.46,0.21,0.37,0.51c-0.09,0.31-0.21,0.62-0.33,0.92c-2.05,4.94-3.69,10.02-4.81,15.25
		c-0.31,1.46-0.71,2.91-0.74,4.42c-0.01,0.86,0.01,0.86,0.85,0.78c0.24-0.02,0.47-0.06,0.7-0.1c3.68-0.66,7.32-1.49,10.98-2.25
		c1.57-0.33,3.14-0.65,4.71-0.97c0.07,0,0.15,0.01,0.22,0c5.62-1.16,11.25-2.32,16.87-3.47c0.33-0.07,0.45-0.17,0.46-0.52
		c0.07-2.21-0.51-4.22-1.76-6.04c-1.14-1.66-2.57-3.03-4.17-4.23c-2.02-1.5-4.07-2.97-6.14-4.4c-1.2-0.82-2.06-1.9-2.47-3.31
		c-0.11-0.38-0.17-0.78-0.26-1.17c0.03-0.47,0.04-0.95,0.1-1.42c0.2-1.6,0.96-2.9,2.18-4.08c0.01,0.26,0.02,0.41,0.03,0.57
		c0.13,1.14,0.2,2.29,0.85,3.29c0.44,1.37,1.29,2.43,2.38,3.34c1.12,0.94,2.43,1.53,3.73,2.16c5.19,2.52,10.59,3.27,16.24,1.96
		c2.41-0.56,4.85-0.82,7.39-0.51c-0.24,0.5-0.48,0.99-0.71,1.48c-0.27,0.59-0.47,1.19-0.37,1.85c0.11,0.72,0.23,0.76,0.85,0.37
		c3.14-1.97,6.5-2.81,10.19-1.99c1.46,0.33,2.83,0.94,4.25,1.41c2.99,1,6.09,1.62,9.12,2.47c0.39,0.11,0.79,0.12,1.2,0.09
		c1.8-0.14,2.99-1.91,2.45-3.62c-0.22-0.68-0.57-1.3-0.86-1.95c-0.28-0.62-0.5-1.25-0.51-1.94c0-0.35,0.08-0.57,0.44-0.7
		c0.55-0.22,1.07-0.49,1.64-0.76c-0.17-0.19-0.28-0.33-0.4-0.46c-1.9-1.98-3.88-3.87-5.84-5.78c-2.58-2.51-5.17-5.01-7.75-7.51
		c-0.99-1-1.98-1.99-2.97-2.99c-0.09-0.09-0.19-0.17-0.33-0.16c-1.47,0.02-2.91-0.29-4.37-0.31c-0.34-0.01-0.83-0.11-0.96,0.16
		c-0.16,0.33,0.23,0.64,0.46,0.93c0.28,0.35,0.66,0.64,0.73,1.16c-0.62-0.01-1.15-0.22-1.68-0.46c-4.94-2.19-10.1-3.2-15.51-2.91
		c-0.15,0.01-0.31,0.07-0.47-0.04c0.03-0.07,0.04-0.12,0.07-0.16c0.07-0.1,0.16-0.2,0.24-0.3c1.22-1.5,2.82-2.39,4.66-2.9
		c0.79-0.22,1.58-0.45,2.28-0.9c1.19-0.75,1.39-1.71,0.61-2.87c-0.43-0.64-0.95-1.21-1.56-1.68
		C133.49,69.88,131.92,68.97,130.37,68.06z M76.32,131.65c0.58,0.04,0.82-0.13,0.79-0.74c-0.06-0.96,0.01-1.93-0.03-2.9
		c-0.02-0.43,0.23-0.47,0.53-0.5c0.41-0.04,0.25,0.28,0.25,0.45c0.02,1,0,2.01,0.01,3.01c0,0.13-0.11,0.39,0.18,0.35
		c0.32-0.04,0.68-0.02,0.66-0.56c-0.04-1.06,0-2.12-0.02-3.18c-0.01-0.39,0.28-0.38,0.52-0.4c0.32-0.03,0.21,0.24,0.21,0.39
		c0.01,1,0,2.01,0.01,3.01c0,0.16-0.13,0.48,0.23,0.41c0.22-0.04,0.58,0.05,0.58-0.4c-0.01-1.2,0.01-2.41-0.01-3.61
		c-0.01-0.49-0.33-0.73-0.81-0.64c-0.94,0.18-1.87,0.39-2.8,0.58c-0.17,0.04-0.3,0.07-0.3,0.3
		C76.32,128.7,76.32,130.18,76.32,131.65z M144.92,77.79c-0.22-0.11-0.42-0.01-0.62,0.07c-0.33,0.13-0.56,0.4-0.84,0.6
		c-0.45,0.32-0.61,0.25-0.73-0.29c-0.08-0.37,0.02-0.73,0.02-1.09c0-0.33,0.03-0.71-0.23-0.93c-0.67-0.56-1.31-1.16-2.11-1.54
		c-0.27-0.13-0.41-0.06-0.56,0.19c-0.93,1.52-0.28,3.41,1.41,4.12C142.51,79.44,144.29,78.89,144.92,77.79z M129.71,118.25
		c0,0.49-0.01,0.98,0,1.48c0.01,0.6,0.29,0.83,0.87,0.72c0.16-0.03,0.32-0.06,0.48-0.09c0.71-0.16,0.99-0.49,1-1.21
		c0.01-0.73-0.03-1.46,0.01-2.19c0.09-1.68-0.48-1.47-1.61-1.18c-0.48,0.12-0.73,0.45-0.74,0.95
		C129.7,117.23,129.71,117.74,129.71,118.25z M65.76,131.54c0-0.51,0.01-1.02,0-1.53c-0.02-0.53-0.3-0.79-0.8-0.71
		c-0.45,0.07-0.89,0.19-1.33,0.27c-0.17,0.03-0.24,0.11-0.24,0.29c0.01,1.4,0,2.8,0,4.21c0,0.18,0.05,0.27,0.25,0.22
		c0.44-0.1,0.89-0.18,1.33-0.3c0.53-0.13,0.78-0.5,0.79-1.03C65.77,132.48,65.76,132.01,65.76,131.54z M90.9,126.26
		c0,0.47,0,0.95,0,1.42c0.01,0.67,0.28,0.89,0.92,0.76c0.12-0.03,0.25-0.04,0.38-0.07c0.78-0.16,1.05-0.48,1.05-1.28
		c0.01-0.71-0.03-1.42,0.01-2.13c0.08-1.65-0.45-1.48-1.61-1.19c-0.48,0.12-0.73,0.45-0.74,0.95
		C90.89,125.24,90.9,125.75,90.9,126.26z M103.84,123.61c0,0.68-0.01,1.35,0.01,2.03c0,0.12-0.09,0.36,0.15,0.32
		c0.29-0.04,0.65,0.01,0.63-0.52c-0.04-1.04,0.01-2.08-0.02-3.12c-0.01-0.43,0.23-0.47,0.53-0.5c0.41-0.04,0.25,0.28,0.25,0.45
		c0.02,0.99,0,1.97,0.01,2.96c0,0.15-0.15,0.47,0.23,0.4c0.23-0.04,0.58,0.03,0.57-0.41c-0.02-1.19,0.01-2.37-0.01-3.56
		c-0.01-0.53-0.31-0.77-0.82-0.68c-0.39,0.06-0.78,0.17-1.17,0.24c-0.25,0.04-0.36,0.15-0.35,0.43
		C103.85,122.29,103.84,122.95,103.84,123.61z M142.65,115.48c0,0.64,0.03,1.28-0.01,1.92c-0.03,0.49,0.15,0.48,0.53,0.38
		c0.3-0.07,0.25-0.26,0.25-0.45c0-1.08,0.01-2.15,0-3.23c0-0.44,0.33-0.36,0.57-0.4c0.33-0.04,0.2,0.24,0.2,0.38
		c0.01,1,0,2.01,0.01,3.01c0,0.15-0.16,0.47,0.22,0.41c0.23-0.04,0.58,0.04,0.58-0.41c-0.01-1.2,0.01-2.41-0.01-3.61
		c-0.01-0.49-0.32-0.72-0.81-0.63c-0.39,0.06-0.78,0.17-1.17,0.23c-0.29,0.05-0.37,0.19-0.36,0.48
		C142.66,114.21,142.65,114.84,142.65,115.48z M50.99,134.56c0,0.51-0.01,1.02,0,1.53c0.01,0.58,0.31,0.81,0.89,0.69
		c0.16-0.03,0.32-0.09,0.48-0.09c0.49-0.02,0.57-0.35,0.47-0.7c-0.1-0.35-0.38-0.06-0.58-0.07c-0.16-0.02-0.35,0.19-0.48-0.04
		c-0.23-0.44,0.07-1.02,0.54-1.13c0.19-0.04,0.45,0.01,0.53-0.28c0.13-0.51,0-0.64-0.52-0.55c-0.18,0.03-0.43,0.27-0.55-0.05
		c-0.21-0.56,0.04-0.96,0.64-1.1c0.05-0.01,0.1-0.03,0.16-0.04c0.43-0.07,0.28-0.42,0.26-0.65c-0.03-0.3-0.27-0.12-0.43-0.11
		c-0.16,0.01-0.32,0.06-0.48,0.09c-0.67,0.15-0.92,0.46-0.93,1.14C50.99,133.65,50.99,134.1,50.99,134.56z M117.55,119.19
		c0,1.14-0.01,2.25,0.01,3.36c0,0.15-0.22,0.49,0.19,0.48c0.34-0.01,0.63-0.04,0.61-0.54c-0.05-0.93,0-1.86-0.02-2.79
		c-0.01-0.43-0.03-0.79,0.56-0.82c0.37-0.02,0.21-0.35,0.24-0.56c0.02-0.21-0.1-0.25-0.27-0.21c-0.62,0.13-1.25,0.26-1.87,0.4
		c-0.39,0.09-0.21,0.42-0.2,0.64c0.01,0.28,0.24,0.11,0.38,0.11C117.29,119.25,117.4,119.22,117.55,119.19z" />
		<path class="edm_st2" d="M148.29,111.96c-0.01-0.02-0.02-0.03-0.03-0.05c-0.4-1.28-0.4-1.29-1.74-1.16c-0.6,0.06-1.19,0.18-1.78,0.27
		c-3-1.09-6.09-1.72-9.29-1.57c-2.19,0.11-3.81,2.04-3.74,4.22c-0.72,0.13-1.44,0.24-2.15,0.4c-0.28,0.06-0.33-0.03-0.27-0.27
		c0.32-1.1,0.52-2.24,0.99-3.3c0.98-2.19,2.79-3.05,5.09-3.14c3.01-0.12,5.92,0.41,8.81,1.14c5.06,1.27,10.18,2.25,15.36,2.92
		c1.23,0.16,2.46,0.41,3.7,0.41c5.01,0.01,8.81-2.13,11.28-6.52c0.43-0.76,0.82-1.55,1.05-2.4c0.19-0.69,0.18-1.32-0.43-1.89
		c-2.27-2.12-4.5-4.28-6.74-6.43c-3.68-3.53-7.36-7.05-11.03-10.59c-1.42-1.37-2.76-2.82-3.94-4.41c-0.31-0.41-0.58-0.84-0.7-1.35
		c-1.24-5.35-3.63-10.18-6.62-14.75c-2.65-4.05-5.72-7.76-8.89-11.4c-1.06-1.21-1.82-2.58-2.3-4.13c-1.38-4.48-3.43-8.68-5.48-12.88
		c-1.43-2.93-2.77-5.92-4.54-8.68c-4.56-7.06-10.54-12.61-17.9-16.66c-0.34-0.18-0.67-0.37-1.01-0.56c-0.38-0.21-0.55-0.1-0.63,0.33
		c-0.67,3.71-1.77,7.3-3.03,10.84c-0.82,2.28-1.66,4.56-2.56,6.81c-1.02,2.58-1.92,5.2-2.47,7.92c-0.08,0.42-0.26,0.51-0.66,0.51
		c-3.81-0.05-7.47-0.86-10.99-2.23c-8.75-3.4-17.17-7.45-24.98-12.69c-0.34-0.23-0.71-0.41-1.14-0.65c0.24,1.01,0.41,1.95,0.68,2.86
		c1.02,3.47,0.89,6.94,0.26,10.46c-0.9,5.04-1.73,10.1-2.58,15.15c-0.3,1.74-0.66,3.47-0.79,5.25c-0.28,3.76,0.44,7.33,1.96,10.76
		c0.86,1.95,1.98,3.74,3.2,5.47c0.42,0.6,0.41,0.6-0.19,1.06c-2.61,1.96-5.25,3.9-7.8,5.95c-6.39,5.14-10.81,11.65-13.7,19.27
		c-1.14,3.01-2.02,6.09-2.67,9.24c-0.02,0.11-0.06,0.21-0.06,0.32c-0.02,0.48,0.12,0.58,0.56,0.38c3.12-1.46,6.24-2.93,9.36-4.39
		c0.13-0.06,0.27-0.11,0.44-0.19c-0.02,0.48-0.17,0.88-0.36,1.27c-1.04,2.17-2.06,4.35-2.87,6.62c-1.72,4.82-2.72,9.76-2.68,14.89
		c0.02,2.17-0.11,4.35,0.14,6.52c0.17,1.52,0.28,3.05,0.75,4.53c0.05,0.17,0.12,0.34,0.22,0.62c0.8-1.48,1.41-2.95,2.37-4.23
		c-0.22,1.7-0.11,3.38,0.01,5.07c-0.44,0.28-0.59,0.76-0.67,1.21c-0.18,0.97-0.77,1.45-1.7,1.58c-0.04,0.01-0.07,0.01-0.11,0.02
		c-1.12,0.27-1.12,0.27-1.49-0.85c-0.79-2.44-1.22-4.95-1.47-7.5c-0.22-2.18-0.33-4.37-0.29-6.56c0.08-5.36,1-10.59,2.73-15.67
		c0.15-0.45,0.36-0.88,0.51-1.33c0.07-0.2,0.14-0.48-0.03-0.63c-0.19-0.16-0.42,0.01-0.6,0.12c-1.18,0.66-2.35,1.34-3.52,2
		c-1.65,0.93-3.31,1.85-4.96,2.79c-0.35,0.2-0.47,0.21-0.51-0.26c-0.14-1.37,0.22-2.68,0.46-4c1.13-6.14,3.07-12.01,5.92-17.56
		c2.16-4.22,4.86-8.07,8.32-11.34c2.46-2.32,5.2-4.31,7.9-6.34c0.89-0.67,1.81-1.3,2.71-1.96c0.55-0.41,0.6-0.65,0.26-1.24
		c-1.2-2.13-2.4-4.26-3.15-6.61c-0.86-2.72-1.31-5.5-1.21-8.35c0.1-2.68,0.61-5.32,1.11-7.95c0.74-3.88,1.41-7.78,2.03-11.68
		c0.29-1.87,0.72-3.72,0.8-5.62c0.09-2.01-0.17-3.96-0.66-5.9c-0.6-2.39-1.75-4.56-2.66-6.83c-0.22-0.54-0.45-1.08-0.66-1.62
		c-0.06-0.16-0.22-0.34-0.02-0.5c0.21-0.17,0.37-0.01,0.53,0.1c2.64,1.76,5.27,3.55,7.93,5.28c6.25,4.07,12.88,7.39,19.77,10.21
		c2.43,0.99,4.84,2.05,7.4,2.69c1.47,0.37,2.96,0.6,4.49,0.62c0.32,0,0.5-0.08,0.6-0.4c2.23-6.96,5.26-13.65,7.16-20.73
		c0.48-1.79,0.46-3.52,0.01-5.29c-0.09-0.35-0.17-0.71-0.25-1.07c-0.05-0.23-0.15-0.52,0.04-0.68c0.19-0.16,0.45,0.01,0.66,0.12
		c0.39,0.2,0.78,0.4,1.17,0.6c3.31,1.71,6.6,3.46,9.59,5.71c6.26,4.71,11.39,10.37,14.94,17.43c2.71,5.38,5.37,10.78,7.61,16.38
		c0.28,0.69,0.49,1.41,0.7,2.13c0.35,1.18,0.96,2.2,1.8,3.09c4.82,5.12,8.81,10.84,12.14,17.03c1.57,2.92,2.82,5.97,3.6,9.2
		c0.22,0.9,0.74,1.63,1.38,2.26c6.34,6.32,12.68,12.64,19.03,18.95c0.58,0.58,1.22,1.1,1.87,1.61c0.66,0.51,0.91,1.18,0.98,1.99
		c0.11,1.43-0.17,2.76-0.87,4c-1.77,3.11-4.04,5.73-7.39,7.21c-1.57,0.69-3.2,1.1-4.92,1.14c-3.12,0.09-6.19-0.34-9.25-0.82
		C153.11,112.74,150.7,112.35,148.29,111.96z" />
		<path class="edm_st3"
			d="M31.4,163.48c0-0.43,0.29-0.62,0.63-0.81c3.12-1.74,6.23-3.49,9.34-5.23c0.21-0.12,0.31-0.26,0.3-0.52
		c-0.02-0.91-0.01-1.82-0.02-2.73c0.13-1.42,0.15-2.84,0.04-4.26c-0.04-0.47-0.2-0.59-0.62-0.6c-1.5-0.04-2.99,0.1-4.48,0.16
		c-2.79,0.1-5.57,0.25-8.35,0.4c-2.14,0.12-4.3,0.03-6.43,0.35c0-0.37,0.3-0.47,0.56-0.57c6.15-2.39,12.32-4.72,18.44-7.19
		c2.73-1.1,5.56-1.71,8.43-2.24c1.56-0.29,3.11-0.65,4.67-0.92c1.02-0.18,2.05-0.12,3.02,0.28c0.42,0.17,0.61,0.03,0.63-0.36
		c0.03-0.58,0.31-0.78,0.87-0.89c2.54-0.49,5.07-1.03,7.61-1.56c0.67-0.14,0.79-0.05,0.85,0.64c0.08,0.99,0.09,1,0.97,0.55
		c0.1-0.05,0.2-0.09,0.29-0.16c2.72-1.98,5.88-2.74,9.1-3.39c7.79-1.57,15.58-3.18,23.37-4.78c3.29-0.68,6.57-1.37,9.85-2.06
		c0.24-0.05,0.49-0.12,0.7-0.03c0.58,0.24,1.08,0.06,1.61-0.17c2.03-0.87,4.2-1.21,6.37-1.52c0.93-0.13,1.86-0.39,2.82-0.12
		c0.51,0.14,1.01,0.32,1.47,0.59c0.38,0.23,0.47,0.03,0.56-0.27c0.01-0.03,0.01-0.07,0.02-0.11c0.17-1.17,0.17-1.17,1.34-1.41
		c3.43-0.71,6.86-1.41,10.29-2.12c1.15-0.24,2.28-0.21,3.42,0.09c0.17,0.04,0.35,0.17,0.43-0.12c0.21-0.75,0.81-0.98,1.48-1.11
		c2.09-0.41,4.19-0.83,6.28-1.23c1.88-0.36,3.73-0.9,5.65-1.03c1.09-0.07,2.19-0.08,3.28-0.14c4.89-0.23,9.78-0.37,14.68-0.48
		c0.24-0.01,0.47-0.05,0.71-0.07c0.3-0.02,0.59-0.02,0.76,0.29c-0.54,0.22-1.1,0.41-1.63,0.65c-2.34,1.03-4.68,2.07-7.01,3.12
		c-1.59,0.72-3.23,1.31-4.76,2.15c-0.17,0.09-0.37,0.15-0.36,0.41c0.06,1.29-0.14,2.58,0.17,3.86c-0.13,1.46-0.1,2.91-0.05,4.37
		c0.01,0.39,0.14,0.55,0.56,0.61c1.8,0.26,3.6,0.56,5.39,0.86c0.43,0.07,0.86,0.16,1.2,0.46c-0.15,0.1-0.28,0.21-0.28,0.41
		c0,0,0.01-0.01,0.01-0.01c-0.19,0.06-0.38,0.11-0.57,0.18c-2.61,1.02-5,2.51-7.53,3.7c-0.16,0.08-0.25,0.18-0.24,0.37
		c0.02,1.15,0.02,2.3,0.03,3.45c-0.06,1.18,0.01,2.37-0.11,3.55c-0.17,1.79-0.86,3.37-1.82,4.86c-0.3,0.07-0.41,0.27-0.4,0.56
		c0,0,0.01-0.01,0.01-0.01c-0.18,0.09-0.34,0.2-0.36,0.43c0,0,0-0.01,0-0.01c-0.22,0-0.29,0.16-0.34,0.33c0,0,0-0.01,0-0.01
		c-0.24-0.03-0.41,0.1-0.58,0.25c-0.97,0.86-2.09,1.47-3.35,1.76c-2.16,0.49-4.33,0.92-6.5,1.36c-4.57,0.94-9.14,1.87-13.7,2.81
		c-4.53,0.93-9.07,1.85-13.6,2.79c-4.99,1.04-9.98,2.09-14.97,3.13c-4.69,0.98-9.38,1.96-14.07,2.92c-4.55,0.94-9.1,1.85-13.65,2.78
		c-4.21,0.86-8.43,1.72-12.64,2.59c-1.39,0.28-2.77,0.58-4.15,0.88c-0.35,0.07-0.65,0.07-0.78-0.36c-0.18-0.62-0.26-0.65-0.79-0.26
		c-0.96,0.72-1.98,1.29-3.16,1.54c-2.22,0.47-4.44,0.94-6.65,1.43c-1.67,0.36-3.33,0.74-4.99,1.11c-0.44-0.15-0.51-0.51-0.52-0.92
		c-0.02-2.88-0.04-5.76-0.06-8.63c0.09-1.29,0.01-2.58,0.04-3.87c0.01-0.25-0.12-0.29-0.34-0.31C37,163.77,34.2,163.62,31.4,163.48z
		 M77.42,136.5c-1.51,0.07-2.99,0.38-4.42,0.82c-2.44,0.75-4.81,1.7-7.05,2.95c-0.12,0.07-0.24,0.07-0.36,0.1
		c-0.37-0.16-0.34-0.54-0.42-0.84c-0.1-0.4-0.33-0.56-0.71-0.48c-1.51,0.32-3.04,0.54-4.52,0.97c-0.36,0.1-0.51,0.25-0.51,0.66
		c0.02,4.68,0.01,9.35,0.01,14.03c0,0.75,0,0.74-0.73,0.82c-0.37,0.04-0.5-0.05-0.37-0.44c0.41-1.18,0.55-2.4,0.55-3.65
		c-0.01-1.94,0.01-3.87-0.01-5.81c-0.03-2.48-1.95-4.9-5.19-4.36c-3.13,0.52-6.22,1.23-9.3,1.99c-4.65,1.14-9.02,3.1-13.58,4.53
		c-0.14,0.04-0.32,0.06-0.26,0.27c0.05,0.19,0.21,0.13,0.36,0.12c1.6-0.13,3.19-0.25,4.79-0.38c0.98-0.08,1.96-0.16,2.94-0.25
		c1.49-0.13,2.97-0.26,4.46-0.4c0.36-0.03,0.46,0.09,0.46,0.45c-0.01,3.54-0.01,7.09,0,10.63c0,0.33-0.12,0.44-0.39,0.53
		c-2.44,0.8-4.78,1.85-7.14,2.85c-0.12,0.05-0.26,0.07-0.31,0.26c1.86,0,3.68,0,5.51,0c0.93,0,0.8-0.11,0.8,0.83
		c0,3.96,0,7.93,0,11.89c0,0.58,0.15,0.72,0.72,0.6c3.16-0.66,6.35-1.18,9.48-1.96c2.32-0.58,4.02-1.86,4.76-4.2
		c0.34-1.08,0.4-2.21,0.51-3.33c0.25-2.66,0.02-5.27-0.66-7.84c-0.21-0.79-0.21-0.79,0.58-1.13c0.13-0.05,0.21-0.21,0.4-0.17
		c-0.05,2.35,0.03,4.71,0.1,7.06c0.05,1.84,0.06,3.69,0.14,5.53c0.04,0.78,0.1,1.57,0.08,2.35c-0.01,0.45,0.16,0.51,0.55,0.42
		c0.64-0.15,1.28-0.27,1.92-0.4c2.08-0.42,4.16-0.84,6.23-1.27c1.13-0.24,2.3-0.37,3.36-0.88c0.18,0,0.37-0.01,0.55-0.01
		c1.63-0.32,3.26-0.66,4.9-0.95c0.45-0.08,0.62-0.23,0.62-0.73c-0.02-4.4,0.02-8.79-0.04-13.19c-0.02-1.06,0.15-1.79,1.31-1.97
		c0.19-0.03,0.34-0.12,0.33-0.36c-0.03-1.04,0.07-2.08-0.05-3.11c-0.08-0.69-0.11-1.38,0.18-2.04c0.07,0,0.15,0,0.22,0.01
		c-0.03,0.2,0.15,0.24,0.26,0.3c0.68,0.36,1.38,0.19,2.08,0.09c0.97-0.14,1.94-0.31,2.93-0.21c0.25,0.03,0.34,0.09,0.24,0.38
		c-0.22,0.65-0.43,1.31-0.55,1.99c-0.12,0.69-0.44,1.09-1.14,1.24c-0.55,0.11-0.86,0.47-1.01,1.07c-0.48,1.86-1.04,3.7-1.56,5.55
		c-0.94,3.33-1.87,6.67-2.83,9.99c-0.13,0.45,0,0.62,0.42,0.65c0.16,0.01,0.33,0.01,0.49-0.02c5.34-1.11,10.68-2.22,16.02-3.33
		c2.57-0.53,5.15-1.06,7.72-1.59c1.95-0.4,3.9-0.81,5.85-1.22c0.24-0.05,0.46-0.09,0.46-0.47c-0.03-1.88-0.02-3.76-0.03-5.64
		c0.07,0,0.14-0.01,0.2-0.01c0.01,0.18,0.03,0.36,0.03,0.55c0.08,1.64-0.07,3.29,0.11,4.92c0.03,0.23-0.03,0.52,0.36,0.43
		c1.61-0.35,3.22-0.72,4.83-1.05c0.26-0.05,0.33-0.16,0.32-0.39c-0.01-0.57,0-1.13,0-1.7c0-3.34,0.01-6.69-0.01-10.03
		c0-0.5,0.15-0.7,0.63-0.81c0.96-0.22,1.9-0.45,2.88-0.55c0.38-0.04,0.55,0.03,0.55,0.48c-0.02,1.81-0.04,3.62,0,5.42
		c0.04,2.04-0.07,4.08,0.08,6.12c0.03,0.38,0.03,0.6,0.56,0.47c1.46-0.35,2.94-0.62,4.42-0.91c0.41-0.08,0.54-0.25,0.53-0.68
		c-0.02-4.64-0.01-9.28-0.01-13.92c0-0.15-0.01-0.29,0.01-0.44c0.05-0.34,0.59-0.67,1.03-0.63c0.49,0.04,0.26,0.42,0.27,0.63
		c0.02,4.6,0.01,9.21,0.01,13.81c0,0.13,0.01,0.26,0,0.38c-0.01,0.24,0.09,0.33,0.33,0.3c1.67-0.26,3.33-0.51,4.96-1
		c0.45-0.14,0.62-0.35,0.62-0.84c-0.02-3.36-0.01-6.72-0.01-10.08c0-0.53,0-1.06,0-1.59c0-0.16-0.03-0.35,0.2-0.39
		c0.96-0.19,1.92-0.38,2.88-0.56c0.28-0.05,0.45,0.07,0.47,0.38c0.06,0.85,0.19,1.71,0.19,2.56c0.03,2.7,0.01,5.41,0.01,8.11
		c0,0.4,0.04,0.8,0.09,1.2c0.03,0.23,0.14,0.26,0.33,0.24c1.72-0.24,3.42-0.59,5.1-1.07c0.24-0.01,0.42-0.15,0.62-0.26
		c0.44,0.01,0.87,0.05,1.31-0.04c2.92-0.58,5.81-1.26,8.73-1.82c2.77-0.53,5.24-3.59,5.19-6.41c-0.04-2.63,0-5.26,0-7.89
		c0-0.37,0.07-0.58,0.47-0.72c0.88-0.29,1.73-0.65,2.6-0.99c0.9-0.35,1.81-0.71,2.84-1.12c-1.38-0.29-2.62-0.4-3.86-0.49
		c-0.25-0.02-0.39-0.04-0.4-0.35c-0.03-0.84-0.1-1.67-0.11-2.52c-0.03-2.84,0.21-5.7-0.23-8.53c-0.1-0.63,0.14-0.78,0.64-0.95
		c2.74-0.96,5.47-1.95,8.21-2.94c0.16-0.06,0.39-0.04,0.48-0.28c-0.78,0.07-1.54,0.14-2.3,0.19c-2.11,0.15-4.22,0.26-6.32,0.46
		c-2.53,0.25-5.06,0.54-7.57,0.95c-2.65,0.44-5.27,1-7.87,1.69c-0.39,0.1-0.51,0.28-0.5,0.68c0.02,1.52,0,3.03-0.01,4.55
		c-0.09,0-0.18-0.01-0.28-0.01c-0.05-0.27-0.09-0.54-0.16-0.8c-0.65-2.43-2.42-3.63-4.85-3.25c-2.15,0.33-4.28,0.78-6.4,1.25
		c-1.17,0.26-2.37,0.36-3.49,0.8c-0.28,0.11-0.4,0.25-0.39,0.56c0.02,0.82,0.01,1.64,0.01,2.47c0,3.91,0,7.82,0,11.73
		c0,0.49-0.26,0.76-0.71,0.75c-0.53-0.01-0.48-0.37-0.48-0.73c0-2.01,0.02-4.02,0-6.03c-0.01-1.24,0.1-2.48-0.1-3.72
		c-0.44-2.62-2.42-3.97-4.92-3.71c-1.47,0.15-2.89,0.52-4.33,0.82c-1.33,0.27-2.59,0.69-3.64,1.62c-1.82,1.61-2.41,3.71-2.46,6.03
		c-0.02,1.24-0.01,2.48,0,3.73c0,0.32-0.08,0.47-0.43,0.45c-0.57-0.02-1.13,0.02-1.7-0.01c-0.85-0.05-0.85-0.06-0.63-0.87
		c0.07-0.25,0.13-0.49,0.2-0.74c0.73-2.77,1.69-5.48,2.25-8.3c0.12-0.6,0.13-0.58-0.5-0.45c-1.49,0.32-2.98,0.62-4.47,0.93
		c-3.27,0.67-6.53,1.34-9.8,2c-0.39,0.08-0.56,0.22-0.5,0.64c0.04,0.29,0.02,0.58-0.01,0.87c-0.02,0.21-0.03,0.46-0.3,0.53
		c-0.08,0.02-0.24,0-0.25-0.04c-0.06-0.2,0.05-0.38,0.12-0.56c0.13-0.32,0.31-0.69,0.07-0.98c-0.26-0.31-0.68-0.14-1.04-0.13
		c-0.05,0-0.1,0.04-0.15,0.06c-3.21,0.67-6.42,1.33-9.64,2c-1.47,0.31-2.98,0.45-4.36,1.11C77.85,136.41,77.62,136.35,77.42,136.5z" />
		<path class="edm_st4" d="M40.66,177.65c1.66-0.37,3.33-0.75,4.99-1.11c2.22-0.48,4.43-0.96,6.65-1.43c1.18-0.25,2.21-0.82,3.16-1.54
		c0.53-0.4,0.61-0.36,0.79,0.26c0.12,0.43,0.43,0.44,0.78,0.36c1.38-0.29,2.77-0.59,4.15-0.88c4.21-0.87,8.42-1.73,12.64-2.59
		c4.55-0.93,9.1-1.85,13.65-2.78c4.69-0.97,9.38-1.94,14.07-2.92c4.99-1.04,9.98-2.1,14.97-3.13c4.53-0.94,9.06-1.86,13.6-2.79
		c4.57-0.94,9.14-1.87,13.7-2.81c2.17-0.45,4.34-0.87,6.5-1.36c1.26-0.29,2.38-0.89,3.35-1.76c0.17-0.15,0.34-0.28,0.58-0.25
		c0.03,0.77-0.44,1.29-0.91,1.79c-2.08,2.22-4.65,3.56-7.61,4.16c-4.39,0.9-8.79,1.74-13.18,2.64c-4.96,1.02-9.92,2.05-14.87,3.11
		c-5.79,1.24-11.58,2.45-17.39,3.58c-5.17,1-10.31,2.12-15.46,3.2c-5.29,1.11-10.59,2.18-15.89,3.26
		c-5.71,1.16-11.42,2.3-17.12,3.54c-2.51,0.55-5.02,1.07-7.55,1.51c-0.14,0.02-0.29,0.04-0.42,0.1c-0.85,0.41-1.5,0.16-2.04-0.57
		C41.41,178.72,40.98,178.23,40.66,177.65z" />
		<path class="edm_st1" d="M102.46,169.76c0.65-0.43,1.39-0.58,2.15-0.73c1.87-0.36,3.73-0.75,5.6-1.12c-0.14,0.58-0.44,1.08-0.78,1.55
		c-0.57,0.8-1.17,1.58-1.75,2.38c-4.02,5.51-8.64,10.42-14.27,14.3c-2.56,1.77-5.19,3.44-8.13,4.52c-0.28,0.11-0.66,0.42-0.89,0.16
		c-0.2-0.23-0.07-0.66,0.02-1c0.64-2.3,1.05-4.64,1.05-7.04c0-3.21-0.24-6.37-2.02-9.19c1.29-0.59,2.68-0.75,4.07-0.88
		c0.27,1.11,0.53,2.21,0.81,3.38c0.52-0.77,0.95-2.52,0.95-3.71c1.14-0.56,2.4-0.65,3.62-0.89c0.25-0.05,0.5-0.07,0.75-0.11
		c-0.27,2.1-1.38,3.94-1.88,6.04c2.48-0.89,4.58-2.25,6.58-3.78C99.83,172.48,101.26,171.24,102.46,169.76z" />
		<path class="edm_st2" d="M83.43,173.59c1.78,2.82,2.02,5.98,2.02,9.19c0,2.4-0.41,4.74-1.05,7.04c-0.09,0.34-0.22,0.77-0.02,1
		c0.23,0.26,0.6-0.06,0.89-0.16c2.94-1.09,5.57-2.76,8.13-4.52c5.64-3.89,10.26-8.79,14.27-14.3c0.58-0.8,1.18-1.57,1.75-2.38
		c0.34-0.47,0.64-0.97,0.78-1.55c0.83-0.14,1.66-0.25,2.48-0.42c0.41-0.08,0.4,0.05,0.27,0.35c-0.55,1.22-1.29,2.33-2.07,3.41
		c-2.56,3.56-5.41,6.88-8.39,10.1c-3.59,3.88-7.86,6.84-12.44,9.4c-2.84,1.58-5.79,2.95-8.78,4.22c-0.13,0.06-0.27,0.1-0.49,0.18
		c0.29-1.17,0.57-2.27,0.85-3.38c0.57-2.26,1.25-4.5,1.52-6.82c0.32-2.72,0.27-5.42-0.66-8.05c-0.19-0.52-0.36-0.47-0.74-0.19
		c-2,1.47-4.01,2.92-6.03,4.37c-0.22,0.16-0.44,0.3-0.75,0.51c0-0.95,0-1.8,0-2.66c0-1.04,0.02-2.08-0.01-3.12
		c-0.01-0.41,0.12-0.59,0.51-0.69c0.49-0.12,0.97-0.34,1.5-0.22c0.03,0.6-0.06,1.2,0.04,1.8c0.06,0.37,0.14,0.51,0.52,0.25
		c1.43-0.94,2.84-1.91,4.12-3.05C82.18,173.42,82.82,173.61,83.43,173.59z" />
		<path class="edm_st4" d="M21.81,150.24c2.13-0.32,4.29-0.24,6.43-0.35c2.78-0.15,5.57-0.3,8.35-0.4c1.49-0.05,2.98-0.19,4.48-0.16
		c0.42,0.01,0.58,0.13,0.62,0.6c0.11,1.42,0.09,2.84-0.04,4.26c-1.72,0.13-3.43,0.01-5.14-0.04c-3.58-0.1-7.15-0.29-10.73-0.2
		c-0.17,0-0.31-0.03-0.45-0.15c-1.02-0.97-2.05-1.92-3.07-2.89C22.07,150.72,21.85,150.54,21.81,150.24z" />
		<path class="edm_st4" d="M158.72,128.82c-0.31-1.28-0.11-2.57-0.17-3.86c-0.01-0.27,0.19-0.32,0.36-0.41c1.53-0.84,3.17-1.43,4.76-2.15
		c2.33-1.05,4.67-2.09,7.01-3.12c0.54-0.24,1.09-0.43,1.63-0.65c0,0.07,0.03,0.18-0.01,0.2c-0.7,0.56-0.84,1.49-1.43,2.14
		c-0.59,0.66-1.09,1.42-1.59,2.16c-0.38,0.56-0.86,0.97-1.47,1.27c-2.82,1.39-5.62,2.79-8.44,4.18
		C159.18,128.69,158.94,128.74,158.72,128.82z" />
		<path class="edm_st5" d="M102.46,169.76c-1.2,1.49-2.63,2.73-4.14,3.89c-2,1.53-4.1,2.89-6.58,3.78c0.5-2.1,1.62-3.95,1.88-6.04
		c1.22-0.25,2.44-0.51,3.66-0.76c1.36-0.28,2.73-0.54,4.09-0.83C101.75,169.72,102.1,169.73,102.46,169.76z" />
		<path class="edm_st4" d="M31.4,163.48c2.8,0.15,5.59,0.3,8.39,0.44c0.22,0.01,0.34,0.06,0.34,0.31c-0.03,1.29,0.05,2.58-0.04,3.87
		c-2.17-0.55-4.42-0.68-6.61-1.2c-0.49-0.12-0.79-0.35-0.99-0.81C32.11,165.22,31.49,164.46,31.4,163.48z" />
		<path class="edm_st4" d="M157.26,143.23c-0.01-1.15-0.01-2.3-0.03-3.45c0-0.2,0.08-0.3,0.24-0.37c2.53-1.19,4.91-2.68,7.53-3.7
		c0.18-0.07,0.38-0.12,0.57-0.18c0.06,1.53-0.46,2.79-1.81,3.56c-2.08,1.19-4.04,2.56-6.02,3.89
		C157.58,143.07,157.42,143.14,157.26,143.23z" />
		<path class="edm_st3" d="M81.67,173.92c-1.28,1.14-2.69,2.11-4.12,3.05c-0.39,0.25-0.46,0.12-0.52-0.25c-0.1-0.6-0.01-1.2-0.04-1.8
		C78.49,174.3,80.06,174.02,81.67,173.92z" />
		<path class="edm_st6" d="M89.26,172.38c0,1.18-0.43,2.94-0.95,3.71c-0.28-1.17-0.55-2.28-0.81-3.38
		C88.09,172.64,88.63,172.25,89.26,172.38z" />
		<path class="edm_st4" d="M154.93,152.2c-0.01-0.29,0.1-0.49,0.4-0.56C155.29,151.89,155.34,152.21,154.93,152.2z" />
		<path class="edm_st4" d="M154.58,152.62c0.01-0.23,0.17-0.34,0.36-0.43C154.96,152.45,154.87,152.61,154.58,152.62z" />
		<path class="edm_st4" d="M165.56,135.53c0-0.2,0.13-0.31,0.28-0.41C165.97,135.41,165.78,135.48,165.56,135.53z" />
		<path class="edm_st4" d="M154.24,152.93c0.06-0.17,0.12-0.33,0.34-0.33C154.64,152.89,154.47,152.95,154.24,152.93z" />
		<path class="edm_st6" d="M88.96,88.8c-0.17-0.16-0.32,0-0.45,0.06c-5.17,2.51-9.61,5.87-12.64,10.86c-0.27,0.45-0.49,0.93-0.73,1.4
		c-0.23,0.12-0.25,0.14-0.41,0.5c-0.86,2.01-1.61,4.06-2.2,6.17c-0.48,1.72-0.93,3.44-0.84,5.25c0.02,0.39,0.12,0.75,0.28,1.1
		c0.14,0.3,0.29,0.38,0.56,0.11c0.36-0.36,0.74-0.7,1.14-1.02c1.95-1.58,3.99-3.04,6.17-4.3c0.58-0.34,1.17-0.68,1.84-0.8
		c0.63-0.12,0.94,0.18,0.75,0.71c-0.71,1.97-1.31,3.97-1.82,6c-0.48,1.92-0.86,3.85-1.05,5.83c-0.08,0.81-0.02,1.63-0.16,2.45
		c-0.06,0.35-0.28,0.84,0.2,1.14c-2.05,0.67-4.18,0.95-6.28,1.39c-2.76,0.58-5.53,1.13-8.29,1.7c-1.59,0.33-1.6,0.34-1.95-1.2
		c-0.59-2.58-0.93-5.19-1.06-7.84c-0.14-2.84,0.03-5.65,0.35-8.46c0.01-0.11,0-0.21,0-0.38c-1.02,0.31-1.95,0.7-2.87,1.13
		c-1.64,0.76-3.26,1.55-4.9,2.32c-0.54,0.26-0.62,0.23-0.8-0.36c-0.23-0.76,0.04-1.48,0.2-2.2c0.53-2.47,1.53-4.79,2.58-7.08
		c1.7-3.72,3.61-7.33,5.68-10.86c0.19-0.32,0.45-0.72,0.27-1c-0.18-0.27-0.61-0.01-0.92,0.05c-2.08,0.4-4.08,1.09-6.14,1.57
		c-0.47,0.11-0.93,0.3-1.48,0.27c0.31-0.72,0.55-1.42,1.13-1.94c0.31-0.28,0.37-0.7,0.57-1.04c1.11-1.93,2.75-3.34,4.49-4.66
		c3.1-2.36,6.66-3.63,10.44-4.38c1.66-0.33,3.36-0.38,5.05-0.47c1.37-0.07,2.74-0.08,4.1-0.1c0.43,0,0.85,0.21,1.33,0.06
		c-0.59-0.84-1.28-1.57-1.93-2.32c-2.62-3.03-5.04-6.2-6.83-9.81c-0.99-2-1.8-4.07-2.13-6.28c-0.39-2.58,0.03-5.01,1.48-7.22
		c0.07-0.1,0.12-0.22,0.25-0.45c-3,0.24-4.46,2.18-5.63,4.68c-0.15-0.98-0.3-1.81-0.39-2.65c-0.13-1.19-0.23-2.39-0.31-3.59
		c-0.09-1.42,0.05-2.85,0.21-4.26c0.25-2.2,0.62-4.39,1.19-6.54c0.59-2.22,1.23-4.43,2.33-6.46c0.15-0.27,0.27-0.56,0.5-0.77
		c0.05,0.25,0.29,0.31,0.46,0.43c0.51,0.33,1.02,0.64,1.53,0.95c2.56,1.56,5.16,3.01,7.95,4.13c2.44,0.99,4.96,1.65,7.56,2.05
		c1.22,0.19,2.42,0.31,3.63,0.09c0.79-0.14,1.59-0.17,2.39-0.24c0.67-0.06,1.35-0.04,2.02-0.1c1.52-0.14,3.04-0.26,4.55-0.43
		c0.86-0.09,1.73-0.1,2.58-0.3c1.74,0.13,3.45,0.48,5.16,0.82c3.23,0.64,6.4,1.51,9.59,2.29c0.32,0.08,0.63,0.07,1.08,0.05
		c-3.13-2.46-6.66-3.87-10.16-5.35c0.73-0.18,1.43-0.11,2.14,0.06c3.85,0.91,7.41,2.5,10.86,4.41c2.29,1.27,4.48,2.68,6.56,4.24
		c3.14,2.36,6.33,4.68,9.06,7.54c2.31,2.41,4.14,5.19,5.94,7.98c1.44,2.22,2.75,4.52,3.99,6.86c0.21,0.4,0.41,0.81,0.44,1.28
		c-0.71-0.2-1.07-0.78-1.45-1.33c-1.5-2.14-3.28-4-5.31-5.64c-2.38-1.92-5.12-3.21-7.88-4.46c-1.68-0.76-3.36-1.51-5.1-2.12
		c-0.51-0.18-1.03-0.37-1.7-0.39c1.19,1.29,2.14,2.6,2.84,4.07c0.07,0.14,0.22,0.3,0.08,0.45c-0.11,0.13-0.31,0.1-0.47,0.07
		c-0.11-0.02-0.21-0.06-0.31-0.09c-1.51-0.53-3.05-0.96-4.62-1.28c-3.05-0.62-6.09-0.77-9.13,0.06c-0.68,0.19-1.39,0.32-1.97,0.77
		c-0.29,0.23-0.44,0.45,0.03,0.72c3.79,2.17,7.39,4.62,10.74,7.42c1.12,0.94,2.21,1.91,3.07,3.11c0.27,0.37,0.13,0.48-0.22,0.57
		c-1.18,0.3-2.38,0.55-3.59,0.64c-1.51,0.11-3.01,0.23-4.53,0.08c-1.16-0.11-2.33-0.13-3.48-0.27c-0.39-0.05-0.51,0.12-0.49,0.49
		c0.04,0.64,0.1,1.27,0.3,1.88c0.58,1.71,1.93,2.75,3.33,3.72c0.98,0.68,2.08,1.12,3.19,1.54c0.21,0.08,0.52,0.2,0.51,0.44
		c-0.01,0.23-0.33,0.21-0.53,0.27c-3.65,1.14-7.42,1.55-11.21,1.85c-1.85,0.15-3.71,0.26-5.56,0.32c-2.32,0.07-4.6,0.4-6.86,0.89
		c-2.6,0.57-5.1,1.39-7.43,2.68C89.22,88.44,89.05,88.57,88.96,88.8z" />
		<path class="edm_st5" d="M88.96,88.8c0.09-0.23,0.26-0.36,0.47-0.48c2.33-1.29,4.84-2.12,7.43-2.68c2.26-0.49,4.54-0.83,6.86-0.89
		c1.86-0.05,3.71-0.17,5.56-0.32c3.79-0.3,7.56-0.7,11.21-1.85c0.19-0.06,0.52-0.04,0.53-0.27c0.01-0.24-0.3-0.35-0.51-0.44
		c-1.11-0.43-2.21-0.86-3.19-1.54c-1.4-0.98-2.75-2.01-3.33-3.72c-0.21-0.61-0.27-1.24-0.3-1.88c-0.02-0.38,0.09-0.54,0.49-0.49
		c1.16,0.14,2.33,0.16,3.48,0.27c1.52,0.14,3.03,0.02,4.53-0.08c1.21-0.09,2.41-0.34,3.59-0.64c0.35-0.09,0.49-0.19,0.22-0.57
		c-0.86-1.2-1.95-2.17-3.07-3.11c-3.35-2.8-6.95-5.25-10.74-7.42c-0.47-0.27-0.32-0.49-0.03-0.72c0.57-0.45,1.29-0.59,1.97-0.77
		c3.04-0.83,6.08-0.68,9.13-0.06c1.57,0.32,3.11,0.75,4.62,1.28c0.1,0.04,0.21,0.07,0.31,0.09c0.16,0.03,0.35,0.06,0.47-0.07
		c0.13-0.15-0.02-0.31-0.08-0.45c-0.71-1.47-1.65-2.78-2.84-4.07c0.67,0.03,1.19,0.21,1.7,0.39c1.74,0.61,3.42,1.37,5.1,2.12
		c2.76,1.24,5.5,2.53,7.88,4.46c2.03,1.64,3.81,3.5,5.31,5.64c0.39,0.55,0.74,1.14,1.45,1.33c0.88,1.49,1.81,2.95,2.32,4.63
		c0.3,1,0.52,2.01,0.69,3.04c0.07,0.43-0.08,0.47-0.43,0.32c-0.27-0.12-0.5-0.3-0.73-0.48c-3.17-2.49-6.28-5.06-9.53-7.45
		c-2.65-1.95-5.54-3.43-8.76-4.21c-0.09-0.02-0.18-0.02-0.27-0.03c-0.19-0.25-0.43-0.3-0.71-0.19c-0.05,0.02-0.13,0.11-0.12,0.15
		c0.09,0.27,0.34,0.34,0.57,0.43c0.05,0.02,0.1,0.01,0.16,0.01c1.56,0.91,3.12,1.82,4.55,2.93c0.61,0.47,1.13,1.04,1.56,1.68
		c0.78,1.17,0.58,2.12-0.61,2.87c-0.7,0.44-1.49,0.68-2.28,0.9c-1.84,0.51-3.44,1.4-4.66,2.9c-0.08,0.1-0.16,0.2-0.24,0.3
		c-0.03,0.04-0.04,0.09-0.07,0.16c0.16,0.11,0.32,0.05,0.47,0.04c5.41-0.29,10.57,0.72,15.51,2.91c0.53,0.23,1.07,0.45,1.68,0.46
		c-0.07-0.53-0.46-0.81-0.73-1.16c-0.22-0.28-0.62-0.6-0.46-0.93c0.13-0.27,0.63-0.16,0.96-0.16c1.46,0.02,2.9,0.33,4.37,0.31
		c0.14,0,0.24,0.07,0.33,0.16c0.99,1,1.98,1.99,2.97,2.99c-0.27,0.48-0.03,0.87,0.22,1.26c0.77,1.18,1.54,2.35,2.31,3.52
		c0.35,0.54,0.21,0.82-0.44,0.81c-1.44-0.02-2.88,0.03-4.32-0.07c-2.39-0.17-4.77-0.47-7.12-0.91c-3.47-0.64-6.81-1.67-10-3.2
		c-1.5-0.72-3.01-1.4-4.51-2.09c-0.33-0.15-0.66-0.27-1.04-0.08c-0.36,0.18-0.42,0.3-0.1,0.6c1.35,1.25,2.79,2.4,4.2,3.57
		c1.07,0.89,2.15,1.77,3.29,2.71c-0.41,0.06-0.71,0.13-1.02,0.13c-2.04,0.04-4.07,0.16-6.1,0.32c-2.59,0.2-5.18,0.37-7.74,0.8
		c-2.09,0.35-4.18,0.73-6.24,1.26c-1.62,0.42-3.19,1-4.8,1.48c-0.65-1-0.72-2.15-0.85-3.29c-0.02-0.15-0.02-0.31-0.03-0.57
		c-1.22,1.18-1.98,2.48-2.18,4.08c-0.06,0.47-0.07,0.94-0.1,1.42c-1.65,0.53-3.09,1.45-4.48,2.46c-0.92,0.66-1.75,1.42-2.44,2.34
		c-0.13,0.18-0.36,0.4-0.25,0.62c0.09,0.17,0.37,0.07,0.56,0.07c1.71,0.03,3.42-0.05,5.12,0.21c2.27,0.34,4.24,1.22,5.84,2.9
		c2.36,2.47,2.37,6.14-0.07,8.52c-1.08,1.05-2.44,1.76-3.53,2.83c-1.13,1.11-2.34,2.13-3.51,3.19c-1.57,0.32-3.14,0.65-4.71,0.97
		c-3.66,0.76-7.3,1.59-10.98,2.25c-0.23,0.04-0.47,0.08-0.7,0.1c-0.83,0.09-0.86,0.08-0.85-0.78c0.02-1.51,0.43-2.96,0.74-4.42
		c1.12-5.24,2.76-10.31,4.81-15.25c0.13-0.3,0.25-0.61,0.33-0.92c0.09-0.3,0.05-0.51-0.37-0.51c-2.36-0.01-4.71,0.1-7.06,0.31
		c-1.27,0.11-2.54,0.26-3.81,0.37c-0.74,0.07-0.74,0.06-0.62-0.66c0.43-2.55,1.42-4.85,3.06-6.86c1.26-1.55,2.66-2.96,4.06-4.38
		C88.52,89.28,88.74,89.04,88.96,88.8z" />
		<path class="edm_st7" d="M110.29,94.52c1.6-0.48,3.17-1.06,4.8-1.48c2.06-0.53,4.15-0.91,6.24-1.26c2.56-0.43,5.15-0.6,7.74-0.8
		c2.03-0.15,4.06-0.28,6.1-0.32c0.3-0.01,0.61-0.08,1.02-0.13c-1.14-0.94-2.22-1.82-3.29-2.71c-1.41-1.17-2.85-2.33-4.2-3.57
		c-0.32-0.3-0.27-0.42,0.1-0.6c0.38-0.18,0.71-0.07,1.04,0.08c1.51,0.69,3.02,1.38,4.51,2.09c3.19,1.52,6.53,2.56,10,3.2
		c2.36,0.43,4.73,0.74,7.12,0.91c1.44,0.1,2.88,0.05,4.32,0.07c0.65,0.01,0.79-0.27,0.44-0.81c-0.77-1.18-1.54-2.35-2.31-3.52
		c-0.25-0.39-0.49-0.78-0.22-1.26c2.58,2.5,5.17,5,7.75,7.51c1.97,1.91,3.95,3.8,5.84,5.78c0.12,0.13,0.24,0.27,0.4,0.46
		c-0.57,0.27-1.09,0.54-1.64,0.76c-0.35,0.14-0.44,0.36-0.44,0.7c0.01,0.69,0.23,1.32,0.51,1.94c0.29,0.65,0.65,1.27,0.86,1.95
		c0.55,1.71-0.65,3.48-2.45,3.62c-0.4,0.03-0.81,0.02-1.2-0.09c-3.03-0.86-6.13-1.47-9.12-2.47c-1.42-0.47-2.79-1.08-4.25-1.41
		c-3.69-0.83-7.05,0.02-10.19,1.99c-0.62,0.39-0.75,0.35-0.85-0.37c-0.1-0.66,0.1-1.27,0.37-1.85c0.23-0.49,0.47-0.98,0.71-1.48
		c-2.53-0.3-4.97-0.04-7.39,0.51c-5.65,1.3-11.05,0.56-16.24-1.96c-1.3-0.63-2.61-1.22-3.73-2.16
		C111.59,96.96,110.73,95.89,110.29,94.52z" />
		<path class="edm_st8" d="M104.39,119.29c1.17-1.06,2.38-2.08,3.51-3.19c1.08-1.07,2.45-1.78,3.53-2.83c2.45-2.38,2.43-6.05,0.07-8.52
		c-1.61-1.68-3.57-2.56-5.84-2.9c-1.71-0.26-3.42-0.17-5.12-0.21c-0.19,0-0.48,0.1-0.56-0.07c-0.11-0.22,0.11-0.44,0.25-0.62
		c0.68-0.91,1.52-1.67,2.44-2.34c1.39-1.01,2.83-1.93,4.48-2.46c0.09,0.39,0.15,0.79,0.26,1.17c0.4,1.41,1.27,2.49,2.47,3.31
		c2.08,1.43,4.12,2.89,6.14,4.4c1.61,1.2,3.03,2.57,4.17,4.23c1.25,1.82,1.84,3.83,1.76,6.04c-0.01,0.34-0.12,0.45-0.46,0.52
		c-5.63,1.15-11.25,2.31-16.87,3.47C104.54,119.3,104.46,119.29,104.39,119.29z" />
		<path class="edm_st9" d="M122.01,38.28c-1.17-0.61-2.15-1.49-3.18-2.29c-1.32-1.03-2.63-2.08-4.19-2.74c-0.23-0.1-0.48-0.18-0.73-0.22
		c-0.41-0.06-0.86-0.15-0.91,0.5c-0.02,0.27-0.24,0.32-0.49,0.23c-0.57-0.19-1.14-0.37-1.71-0.55c-1.4-0.44-2.79-0.49-4.25,0.25
		c0.14-0.68,0.38-1.22,0.7-1.72c1.51-2.37,2.71-4.92,4.12-7.34c0.16-0.27,0.26-0.56,0.39-0.84c0.16,0.08,0.33,0.15,0.48,0.24
		c1.04,0.65,1.82,1.57,2.57,2.51c2.71,3.4,5.05,7.03,6.99,10.92C121.97,37.57,122.1,37.9,122.01,38.28z" />
		<path class="edm_st10" d="M79.62,124.25c-0.48-0.3-0.26-0.79-0.2-1.14c0.14-0.81,0.08-1.63,0.16-2.45c0.2-1.97,0.58-3.91,1.05-5.83
		c0.5-2.03,1.11-4.03,1.82-6c0.19-0.53-0.12-0.83-0.75-0.71c-0.67,0.12-1.26,0.47-1.84,0.8c-2.18,1.26-4.22,2.72-6.17,4.3
		c-0.4,0.32-0.78,0.66-1.14,1.02c-0.27,0.27-0.42,0.19-0.56-0.11c-0.17-0.35-0.26-0.7-0.28-1.1c-0.09-1.81,0.35-3.54,0.84-5.25
		c0.59-2.11,1.34-4.16,2.2-6.17c0.16-0.36,0.17-0.39,0.41-0.5c-0.68,2-1.43,3.98-1.82,6.07c-0.28,1.46-0.25,2.93,0.14,4.47
		c3.63-3.29,7.92-5.18,12.59-6.55c-0.1,0.25-0.16,0.42-0.23,0.59c-1.32,2.91-2.61,5.82-3.39,8.93c-0.54,2.15-0.8,4.34-1.07,6.52
		c-0.1,0.78-0.23,1.55-0.28,2.34c-0.04,0.59-0.36,0.74-0.86,0.74C80.02,124.24,79.82,124.25,79.62,124.25z" />
		<path class="edm_st10" d="M102.51,41.69c-0.85,0.2-1.72,0.21-2.58,0.3c-1.52,0.16-3.03,0.29-4.55,0.43c-0.67,0.06-1.34,0.04-2.02,0.1
		c-0.8,0.07-1.59,0.1-2.39,0.24c-1.22,0.22-2.42,0.1-3.63-0.09c-2.6-0.4-5.12-1.07-7.56-2.05c-2.78-1.12-5.39-2.58-7.95-4.13
		c-0.51-0.31-1.03-0.63-1.53-0.95c-0.18-0.11-0.41-0.17-0.46-0.43c0.25-0.18,0.27-0.67,0.59-0.67c0.27,0,0.54,0.27,0.81,0.42
		c4.83,2.72,9.97,4.62,15.41,5.68c1.81,0.35,3.65,0.49,5.48,0.59c1.8,0.09,3.61,0.09,5.41,0.13
		C99.22,41.29,100.88,41.4,102.51,41.69z" />
		<path class="edm_st0" d="M131.71,113.67c-0.07-2.18,1.55-4.11,3.74-4.22c3.19-0.16,6.29,0.48,9.29,1.57
		c-4.28,0.94-8.56,1.86-12.87,2.64C131.82,113.67,131.76,113.67,131.71,113.67z" />
		<path class="edm_st2" d="M49.33,130.46c-1.01,0.24-2.02,0.42-3.15,0.58c2.04-3.11,4.43-5.74,7.49-7.84c0.25,1.01,0.48,1.96,0.71,2.9
		c0.22,0.9,0.45,1.81,0.8,2.66c0.16,0.4,0.04,0.5-0.32,0.57c-0.59,0.1-1.18,0.23-1.77,0.35c-0.1-0.7-0.2-1.4-0.56-2.03
		c-0.18-0.31-0.34-0.35-0.63-0.13C50.86,128.35,50.05,129.37,49.33,130.46z" />
		<path class="edm_st10" d="M122.01,38.28c0.08-0.38-0.05-0.71-0.21-1.04c-1.94-3.89-4.28-7.53-6.99-10.92
		c-0.75-0.94-1.53-1.86-2.57-2.51c-0.15-0.09-0.32-0.16-0.48-0.24c0.34-0.97,0.32-0.93,1.24-0.55c1.44,0.59,2.38,1.73,3.33,2.85
		c3.42,4.06,5.7,8.75,7.43,13.73c0,0.01-0.01,0.03-0.04,0.13C123.11,39.26,122.37,39.01,122.01,38.28z" />
		<path class="edm_st11" d="M76.32,131.65c0-1.47,0-2.95,0-4.42c0-0.23,0.13-0.27,0.3-0.3c0.93-0.2,1.87-0.4,2.8-0.58
		c0.48-0.09,0.8,0.15,0.81,0.64c0.02,1.2,0,2.41,0.01,3.61c0.01,0.45-0.35,0.36-0.58,0.4c-0.36,0.07-0.23-0.25-0.23-0.41
		c-0.01-1,0-2.01-0.01-3.01c0-0.15,0.11-0.42-0.21-0.39c-0.24,0.02-0.52,0.01-0.52,0.4c0.01,1.06-0.03,2.12,0.02,3.18
		c0.02,0.55-0.34,0.52-0.66,0.56c-0.29,0.03-0.18-0.22-0.18-0.35c-0.01-1,0-2.01-0.01-3.01c0-0.17,0.17-0.49-0.25-0.45
		c-0.3,0.03-0.55,0.06-0.53,0.5c0.03,0.97-0.03,1.94,0.03,2.9C77.14,131.52,76.89,131.69,76.32,131.65z" />
		<path class="edm_st11" d="M144.92,77.79c-0.63,1.1-2.42,1.65-3.66,1.13c-1.7-0.71-2.34-2.6-1.41-4.12c0.15-0.25,0.29-0.32,0.56-0.19
		c0.8,0.38,1.44,0.98,2.11,1.54c0.26,0.22,0.24,0.59,0.23,0.93c-0.01,0.36-0.1,0.72-0.02,1.09c0.12,0.54,0.29,0.61,0.73,0.29
		c0.28-0.2,0.51-0.47,0.84-0.6C144.5,77.77,144.7,77.68,144.92,77.79z" />
		<path class="edm_st11" d="M129.71,118.25c0-0.51-0.01-1.02,0-1.53c0.01-0.5,0.26-0.83,0.74-0.95c1.13-0.28,1.69-0.49,1.61,1.18
		c-0.04,0.73,0,1.46-0.01,2.19c-0.01,0.73-0.28,1.06-1,1.21c-0.16,0.04-0.32,0.06-0.48,0.09c-0.57,0.11-0.86-0.12-0.87-0.72
		C129.7,119.24,129.71,118.75,129.71,118.25z" />
		<path class="edm_st11" d="M65.76,131.54c0,0.47,0.01,0.95,0,1.42c-0.01,0.53-0.27,0.9-0.79,1.03c-0.44,0.11-0.89,0.19-1.33,0.3
		c-0.2,0.05-0.25-0.04-0.25-0.22c0-1.4,0-2.8,0-4.21c0-0.18,0.07-0.25,0.24-0.29c0.45-0.09,0.89-0.21,1.33-0.27
		c0.5-0.08,0.79,0.18,0.8,0.71C65.77,130.52,65.76,131.03,65.76,131.54z M64.93,131.7c0-0.4,0-0.8,0-1.2c0-0.16,0.07-0.41-0.24-0.35
		c-0.22,0.05-0.54-0.03-0.53,0.37c0.01,0.86,0.01,1.71,0,2.57c0,0.23,0.1,0.27,0.3,0.23c0.31-0.05,0.54-0.13,0.49-0.54
		C64.89,132.43,64.93,132.06,64.93,131.7z" />
		<path class="edm_st11" d="M90.9,126.26c0-0.51-0.01-1.02,0-1.53c0.01-0.5,0.26-0.83,0.74-0.95c1.16-0.29,1.69-0.46,1.61,1.19
		c-0.04,0.71,0,1.42-0.01,2.13c-0.01,0.79-0.27,1.12-1.05,1.28c-0.12,0.03-0.25,0.04-0.38,0.07c-0.64,0.13-0.91-0.09-0.92-0.76
		C90.89,127.2,90.9,126.73,90.9,126.26z M91.67,126.09c0,0.36-0.02,0.73,0.01,1.09c0.01,0.16-0.15,0.46,0.19,0.43
		c0.25-0.02,0.6,0.04,0.59-0.44c-0.03-0.8-0.02-1.6,0-2.4c0.01-0.37-0.16-0.37-0.43-0.31c-0.24,0.05-0.38,0.13-0.36,0.43
		C91.69,125.29,91.67,125.69,91.67,126.09z" />
		<path class="edm_st11" d="M103.84,123.61c0-0.66,0.02-1.31-0.01-1.97c-0.01-0.28,0.1-0.38,0.35-0.43c0.39-0.07,0.78-0.17,1.17-0.24
		c0.52-0.09,0.82,0.15,0.82,0.68c0.02,1.19,0,2.37,0.01,3.56c0.01,0.44-0.34,0.37-0.57,0.41c-0.37,0.07-0.22-0.25-0.23-0.4
		c-0.01-0.99,0-1.97-0.01-2.96c0-0.17,0.17-0.49-0.25-0.45c-0.3,0.03-0.55,0.07-0.53,0.5c0.03,1.04-0.02,2.08,0.02,3.12
		c0.02,0.53-0.34,0.48-0.63,0.52c-0.24,0.03-0.14-0.21-0.15-0.32C103.83,124.96,103.84,124.28,103.84,123.61z" />
		<path class="edm_st11" d="M142.65,115.48c0-0.64,0.02-1.28-0.01-1.92c-0.01-0.29,0.07-0.43,0.36-0.48c0.39-0.06,0.78-0.17,1.17-0.23
		c0.49-0.08,0.8,0.14,0.81,0.63c0.02,1.2,0,2.41,0.01,3.61c0,0.44-0.35,0.37-0.58,0.41c-0.37,0.06-0.22-0.26-0.22-0.41
		c-0.01-1,0-2.01-0.01-3.01c0-0.14,0.13-0.43-0.2-0.38c-0.24,0.03-0.58-0.04-0.57,0.4c0.01,1.08,0.01,2.15,0,3.23
		c0,0.19,0.06,0.38-0.25,0.45c-0.38,0.09-0.56,0.1-0.53-0.38C142.68,116.76,142.65,116.12,142.65,115.48z" />
		<path class="edm_st11" d="M50.99,134.56c0-0.46,0-0.91,0-1.37c0.01-0.68,0.26-0.99,0.93-1.14c0.16-0.04,0.32-0.08,0.48-0.09
		c0.15-0.01,0.4-0.19,0.43,0.11c0.02,0.23,0.17,0.57-0.26,0.65c-0.05,0.01-0.11,0.03-0.16,0.04c-0.59,0.13-0.85,0.54-0.64,1.1
		c0.12,0.32,0.37,0.08,0.55,0.05c0.53-0.09,0.66,0.04,0.52,0.55c-0.07,0.29-0.33,0.24-0.53,0.28c-0.48,0.11-0.77,0.68-0.54,1.13
		c0.12,0.23,0.32,0.03,0.48,0.04c0.2,0.02,0.48-0.28,0.58,0.07c0.1,0.36,0.03,0.69-0.47,0.7c-0.16,0.01-0.32,0.06-0.48,0.09
		c-0.58,0.12-0.88-0.11-0.89-0.69C50.98,135.58,50.99,135.07,50.99,134.56z" />
		<path class="edm_st0" d="M49.33,130.46c0.72-1.1,1.53-2.11,2.58-2.93c0.29-0.22,0.45-0.19,0.63,0.13c0.37,0.63,0.46,1.33,0.56,2.03
		C51.84,129.95,50.58,130.2,49.33,130.46z" />
		<path class="edm_st11" d="M117.55,119.19c-0.15,0.03-0.26,0.06-0.36,0.06c-0.14,0-0.37,0.17-0.38-0.11c-0.01-0.21-0.19-0.54,0.2-0.64
		c0.62-0.15,1.25-0.27,1.87-0.4c0.17-0.04,0.3,0.01,0.27,0.21c-0.03,0.21,0.13,0.54-0.24,0.56c-0.59,0.03-0.57,0.39-0.56,0.82
		c0.02,0.93-0.03,1.86,0.02,2.79c0.02,0.51-0.27,0.54-0.61,0.54c-0.41,0.01-0.19-0.33-0.19-0.48
		C117.54,121.44,117.55,120.33,117.55,119.19z" />
		<path class="edm_st9" d="M130.37,68.06c-0.05,0-0.11,0.01-0.16-0.01c-0.23-0.09-0.48-0.16-0.57-0.43c-0.01-0.03,0.07-0.13,0.12-0.15
		c0.28-0.11,0.52-0.05,0.71,0.19C130.43,67.8,130.4,67.93,130.37,68.06z" />
		<path class="edm_st12" d="M141.42,128.39c0.01-1.52,0.03-3.03,0.01-4.55c-0.01-0.4,0.11-0.57,0.5-0.68c2.59-0.69,5.21-1.26,7.87-1.69
		c2.51-0.41,5.04-0.7,7.57-0.95c2.1-0.21,4.21-0.31,6.32-0.46c0.76-0.06,1.52-0.13,2.3-0.19c-0.09,0.24-0.32,0.22-0.48,0.28
		c-2.73,0.99-5.46,1.98-8.21,2.94c-0.5,0.18-0.74,0.32-0.64,0.95c0.44,2.83,0.2,5.68,0.23,8.53c0.01,0.84,0.08,1.68,0.11,2.52
		c0.01,0.31,0.15,0.34,0.4,0.35c1.24,0.09,2.48,0.2,3.86,0.49c-1.03,0.41-1.94,0.77-2.84,1.12c-0.86,0.34-1.72,0.7-2.6,0.99
		c-0.4,0.13-0.47,0.34-0.47,0.72c0,2.63-0.04,5.26,0,7.89c0.05,2.82-2.42,5.88-5.19,6.41c-2.92,0.56-5.82,1.24-8.73,1.82
		c-0.44,0.09-0.87,0.05-1.31,0.04c-0.05-4.23,0.15-8.46-0.12-12.68c0.06-0.39,0.03-0.79,0.06-1.19c0.02-0.31,0.05-0.69-0.14-1
		c-0.29-0.49-0.63-0.15-0.94-0.05c-0.32,0.11-0.28,0.32-0.1,0.55c0.38,0.5,0.57,1.09,0.71,1.69c-0.01,3.02,0.01,6.04-0.04,9.06
		c-0.02,1.29-0.11,2.58-0.05,3.87c-1.67,0.48-3.37,0.82-5.1,1.07c-0.19,0.03-0.3-0.01-0.33-0.24c-0.06-0.4-0.09-0.8-0.09-1.2
		c0-2.7,0.02-5.41-0.01-8.11c-0.01-0.85-0.13-1.71-0.19-2.56c-0.02-0.31-0.19-0.43-0.47-0.38c-0.96,0.18-1.92,0.37-2.88,0.56
		c-0.23,0.04-0.19,0.23-0.2,0.39c0,0.53,0,1.06,0,1.59c0,3.36-0.01,6.72,0.01,10.08c0,0.5-0.17,0.71-0.62,0.84
		c-1.62,0.49-3.29,0.74-4.96,1c-0.24,0.04-0.34-0.06-0.33-0.3c0.01-0.13,0-0.26,0-0.38c0-4.6,0-9.21-0.01-13.81
		c0-0.21,0.23-0.59-0.27-0.63c-0.43-0.04-0.98,0.29-1.03,0.63c-0.02,0.14-0.01,0.29-0.01,0.44c0,4.64-0.01,9.28,0.01,13.92
		c0,0.43-0.13,0.61-0.53,0.68c-1.48,0.29-2.96,0.56-4.42,0.91c-0.53,0.13-0.53-0.09-0.56-0.47c-0.15-2.04-0.04-4.08-0.08-6.12
		c-0.04-1.81-0.02-3.62,0-5.42c0.01-0.45-0.17-0.52-0.55-0.48c-0.98,0.1-1.93,0.33-2.88,0.55c-0.48,0.11-0.63,0.31-0.63,0.81
		c0.02,3.34,0.01,6.68,0.01,10.03c0,0.57-0.01,1.13,0,1.7c0,0.24-0.07,0.34-0.32,0.39c-1.61,0.34-3.22,0.7-4.83,1.05
		c-0.39,0.09-0.34-0.2-0.36-0.43c-0.18-1.64-0.03-3.28-0.11-4.92c-0.01-0.18-0.02-0.36-0.03-0.55c0.01-0.2,0.03-0.4,0.03-0.6
		c0-2.92,0.02-5.85-0.01-8.77c-0.01-0.54,0.21-0.86,0.65-1c0.74-0.23,1.13-0.57,0.92-1.44c-0.14-0.61,0.06-1.27-0.09-1.9
		c-0.09-0.38-0.27-0.5-0.65-0.46c-0.76,0.09-1.42,0.47-2.14,0.64c-0.71,0.17-1.03,0.6-1.2,1.25c-0.24,0.95-0.54,1.89-0.8,2.84
		c-0.12,0.45-0.33,0.77-0.85,0.86c-0.44,0.07-0.9,0.2-1.06,0.73c-0.81,2.63-1.5,5.29-2.3,7.92c-0.44,1.44-0.19,1.39,1.08,1.19
		c2.08-0.33,4.14-0.83,6.21-1.26c0.01,1.88,0,3.76,0.03,5.64c0.01,0.37-0.22,0.42-0.46,0.47c-1.95,0.41-3.9,0.81-5.85,1.22
		c-2.57,0.53-5.15,1.06-7.72,1.59c-5.34,1.11-10.68,2.23-16.02,3.33c-0.16,0.03-0.33,0.03-0.49,0.02c-0.42-0.03-0.55-0.2-0.42-0.65
		c0.96-3.33,1.89-6.66,2.83-9.99c0.52-1.85,1.08-3.69,1.56-5.55c0.15-0.6,0.46-0.95,1.01-1.07c0.7-0.15,1.02-0.55,1.14-1.24
		c0.12-0.68,0.33-1.34,0.55-1.99c0.09-0.29,0.01-0.35-0.24-0.38c-0.99-0.1-1.96,0.07-2.93,0.21c-0.7,0.1-1.4,0.27-2.08-0.09
		c-0.12-0.06-0.29-0.1-0.26-0.3c2.05-0.84,4.11-1.68,6.16-2.52c0.12-0.05,0.24-0.11,0.28-0.24c0.3-1.07,0.74-2.09,0.84-3.21
		c0.03-0.31-0.12-0.29-0.32-0.25c-0.43,0.08-0.86,0.17-1.28,0.25c-1.68,0.33-3.32,0.83-5.03,0.95c-0.55,0.08-0.68-0.16-0.68-0.7
		c0.01-1.63-0.06-3.26-0.09-4.88c1.38-0.66,2.89-0.81,4.36-1.11c3.21-0.67,6.42-1.34,9.64-2c0.05-0.01,0.1-0.05,0.15-0.06
		c0.36-0.01,0.78-0.19,1.04,0.13c0.24,0.29,0.05,0.66-0.07,0.98c-0.07,0.18-0.18,0.36-0.12,0.56c0.01,0.04,0.17,0.06,0.25,0.04
		c0.27-0.07,0.28-0.32,0.3-0.53c0.03-0.29,0.05-0.59,0.01-0.87c-0.06-0.42,0.12-0.56,0.5-0.64c3.27-0.66,6.54-1.33,9.8-2
		c1.49-0.31,2.98-0.61,4.47-0.93c0.63-0.13,0.62-0.15,0.5,0.45c-0.55,2.82-1.51,5.53-2.25,8.3c-0.06,0.25-0.13,0.49-0.2,0.74
		c-0.21,0.81-0.22,0.82,0.63,0.87c0.56,0.03,1.13-0.01,1.7,0.01c0.34,0.01,0.43-0.13,0.43-0.45c-0.01-1.24-0.03-2.48,0-3.73
		c0.05-2.32,0.64-4.42,2.46-6.03c1.05-0.93,2.31-1.35,3.64-1.62c1.44-0.29,2.86-0.66,4.33-0.82c2.5-0.26,4.47,1.09,4.92,3.71
		c0.21,1.23,0.09,2.48,0.1,3.72c0.02,2.01,0.01,4.02,0,6.03c0,0.36-0.05,0.72,0.48,0.73c0.45,0,0.71-0.26,0.71-0.75
		c0-3.91,0-7.82,0-11.73c0-0.82,0.01-1.64-0.01-2.47c-0.01-0.31,0.11-0.45,0.39-0.56c1.13-0.44,2.33-0.54,3.49-0.8
		c2.13-0.46,4.25-0.92,6.4-1.25c2.43-0.38,4.2,0.82,4.85,3.25c0.07,0.26,0.11,0.53,0.16,0.8c-0.01,2.67-0.01,5.34-0.02,8.01
		c-0.08,0.68-0.46,1.25-0.68,1.88c-0.04,0.12-0.18,0.25,0.01,0.38c0.26,0.18,0.95-0.02,0.96-0.33c0.04-0.76,0.33-1.49,0.21-2.26
		C141.87,133.5,141.82,130.94,141.42,128.39z M156.95,136.6c-1.03-0.33-0.95-1.04-0.95-1.74c0.01-2.83,0.02-5.66,0-8.49
		c-0.01-1.04-0.11-2.08-0.61-3.02c-0.22-0.41-0.07-0.52,0.29-0.64c1.04-0.36,2.07-0.75,3.1-1.12c-1.84-0.14-3.65,0.04-5.45,0.26
		c-3.52,0.43-6.99,1.18-10.44,1.98c-0.44,0.1-0.56,0.29-0.56,0.73c0.02,4.64,0,9.28,0.02,13.92c0,0.56-0.15,0.82-0.71,0.92
		c-0.67,0.12-0.86,0.44-0.85,1.12c0,0.2,0,0.4,0.01,0.6c0.05,3.47-0.12,6.94,0.09,10.41c0.04,0.71,0.1,1.42,0.2,2.12
		c0.03,0.23,0.1,0.31,0.35,0.26c2.87-0.57,5.76-1.05,8.61-1.73c2.36-0.56,4.45-2.94,4.37-5.6c-0.08-2.81-0.02-5.63-0.04-8.44
		c0-0.34,0.09-0.53,0.42-0.65C155.46,137.24,156.1,136.95,156.95,136.6z M112.71,153.44c0-1.86,0-3.73,0-5.59
		c0-0.81,0-0.8,0.82-0.94c0.25-0.04,0.5-0.11,0.75-0.16c1.14-0.24,2.26-0.56,3.44-0.59c0.38-0.01,0.5,0.11,0.5,0.5
		c-0.02,1.81-0.01,3.62,0,5.43c0,1.95,0.02,3.91,0.01,5.86c0,0.38,0.12,0.52,0.5,0.5c0.58-0.02,1.17-0.06,1.73-0.19
		c2.15-0.51,1.85-0.18,1.91-2.32c0-0.05,0-0.11,0-0.16c0.11-4.02-0.27-8.03-0.22-12.05c0.01-1.05,0.02-1.09,1.04-1.41
		c0.35-0.11,0.53-0.28,0.52-0.69c-0.02-3.2,0-6.39-0.02-9.59c-0.01-2.12-1.39-3.51-3.49-3.38c-2.03,0.12-4.05,0.48-5.99,1.11
		c-1.74,0.57-2.95,1.76-3.62,3.49c-0.35,0.91-0.47,1.87-0.48,2.84c-0.01,3.01-0.01,6.03,0.01,9.04c0,0.53-0.17,0.85-0.71,1
		c-0.78,0.21-0.84,0.34-0.85,1.15c-0.07,3.42,0.23,6.82,0.23,10.24c0,0.9,0.02,1.79-0.01,2.69c-0.01,0.43,0.14,0.48,0.51,0.39
		c0.96-0.22,1.92-0.43,2.88-0.61c0.4-0.08,0.57-0.22,0.56-0.67C112.69,157.35,112.71,155.4,112.71,153.44z M125.34,149.94
		c0,2.14,0,4.27,0,6.41c0,0.79,0.15,0.92,0.94,0.72c0.51-0.13,1.02-0.24,1.55-0.31c1.25-0.17,1.44-0.41,1.44-1.64
		c0-3.65,0-7.31,0.01-10.96c0-0.18-0.14-0.46,0.2-0.53c1.22-0.28,2.42-0.67,3.69-0.73c1.08-0.04,1.64,0.48,1.7,1.57
		c0.02,0.27,0.02,0.55,0.02,0.82c0,1.44,0.02,2.89,0,4.33c-0.03,1.59,0.15,3.17,0.02,4.76c-0.03,0.32-0.02,0.84,0.54,0.75
		c1.04-0.17,2.09-0.31,3.09-0.66c0.21-0.07,0.31-0.2,0.31-0.44c-0.01-3.63,0-7.27-0.02-10.9c-0.01-1.19-0.55-2.17-1.47-2.93
		c-0.2-0.17-0.56-0.31-0.47-0.61c0.07-0.23,0.44-0.18,0.67-0.22c1.25-0.22,2.1-0.86,2.43-2.13c0.25-0.97,0.41-1.96,0.47-2.96
		c0.11-2.01,0.02-4.01-0.21-6.01c-0.12-1.05-0.45-1.93-1.4-2.51c-1.06-0.65-2.18-0.75-3.37-0.49c-1.67,0.36-3.34,0.71-5.01,1.07
		c-1.12,0.24-2.26,0.37-3.35,0.75c-0.27,0.09-0.48,0.18-0.47,0.55c0.03,1.37-0.01,2.74,0.04,4.11c0.12,3.3,0.3,6.6,0.11,9.91
		c-0.03,0.59-0.23,0.87-0.77,0.96c-0.53,0.09-0.7,0.39-0.69,0.92C125.35,145.67,125.34,147.81,125.34,149.94z M83.11,146.06
		c0.53,0.17,0.91,0.06,1.28,0.12c0.37,0.06,0.61,0.19,0.46,0.65c-0.38,1.21-0.65,2.46-1.03,3.68c-0.2,0.64-0.53,1.01-1.18,1.11
		c-0.51,0.08-0.75,0.4-0.89,0.9c-1.29,4.64-2.61,9.28-3.91,13.92c-0.17,0.6-0.14,0.63,0.47,0.5c1.91-0.39,3.81-0.77,5.72-1.16
		c2.17-0.44,4.35-0.88,6.52-1.33c0.21-0.04,0.44-0.05,0.48-0.4c0.13-1.15,0.1-2.29-0.01-3.44c-0.02-0.24-0.13-0.3-0.35-0.3
		c-0.5-0.01-0.98,0.1-1.46,0.18c-1.85,0.31-3.64,0.87-5.5,1.11c-0.6,0.08-0.65,0.05-0.48-0.53c0.96-3.41,1.94-6.82,2.88-10.24
		c0.17-0.62,0.47-1,1.12-1.07c0.56-0.06,0.81-0.39,0.96-0.94c0.74-2.72,1.52-5.43,2.3-8.14c0.54-1.89,1.17-3.75,1.52-5.69
		c0.11-0.61,0.07-0.64-0.55-0.53c-1.52,0.28-3.04,0.55-4.55,0.86c-2.51,0.51-5.02,1.04-7.53,1.56c-0.28,0.06-0.39,0.19-0.44,0.5
		c-0.13,0.84-0.12,1.68-0.07,2.51c0.09,1.42,0.01,1.18,1.22,1.03c0.18-0.02,0.36-0.04,0.54-0.08c1.91-0.35,3.79-0.87,5.73-1.12
		c0.36-0.05,0.54-0.06,0.4,0.41c-0.45,1.48-0.85,2.97-1.27,4.46c-0.07,0.25-0.2,0.4-0.43,0.51
		C84.44,145.38,83.84,145.69,83.11,146.06z M105.79,141.46c-0.71-0.41-0.71-0.41-0.46-1.27c0.82-2.92,1.64-5.85,2.47-8.77
		c0.09-0.33,0.07-0.43-0.3-0.36c-4.16,0.87-8.32,1.74-12.49,2.59c-0.31,0.06-0.38,0.21-0.37,0.48c0.01,0.8,0,1.61,0,2.41
		c0.01,1.43,0.01,1.41,1.41,1.13c1.77-0.35,3.5-0.84,5.29-1.08c1.14-0.15,1.14-0.18,0.84,0.91c-0.9,3.24-1.82,6.48-2.72,9.72
		c-0.18,0.65-0.54,1.04-1.22,1.16c-0.43,0.07-0.86,0.18-1.27,0.32c-0.69,0.23-1.38,0.47-1.98,0.92c0.52,0.07,1.03,0.03,1.53,0.08
		c0.62,0.05,0.66,0.16,0.5,0.76c-1.16,4.43-2.64,8.79-3.67,13.44c0.58-0.45,1.13-0.25,1.64-0.36c2.5-0.55,5.02-1.05,7.52-1.6
		c1.19-0.26,2.41-0.37,3.57-0.76c0.36-0.12,0.54-0.29,0.49-0.71c-0.04-0.41,0-0.84,0.04-1.26c0.06-0.61-0.06-1.2-0.1-1.8
		c-0.02-0.28-0.13-0.44-0.5-0.36c-2.28,0.46-4.57,0.87-6.85,1.33c-0.46,0.09-0.54,0.04-0.41-0.42c0.99-3.44,1.98-6.88,2.92-10.34
		c0.18-0.68,0.49-1.05,1.17-1.13c0.47-0.06,0.73-0.31,0.85-0.79c0.23-0.86,0.53-1.7,0.75-2.57c0.18-0.71,0.38-1.38,1.22-1.56
		C105.74,141.57,105.76,141.5,105.79,141.46z M88.63,151.16c3.05-1.3,6.08-2.63,9.24-3.65c0.46-0.15,0.71-0.35,0.84-0.84
		c0.57-2.15,1.19-4.28,1.79-6.42c0.23-0.83,0.46-1.66,0.71-2.54c-0.83,0.03-1.57,0.14-2.3,0.28c-1.52,0.3-3.04,0.6-4.55,0.91
		c-0.39,0.08-0.66,0.05-0.68-0.45c-0.02-0.73-0.08-1.46-0.14-2.19c-0.03-0.34,0.01-0.81-0.42-0.84c-0.37-0.03-0.37,0.44-0.44,0.72
		c-1.21,4.28-2.45,8.54-3.59,12.84c-0.25,0.94-0.62,1.53-1.6,1.68c-0.23,0.04-0.45,0.13-0.52,0.41c-0.82,3.14-1.94,6.2-2.53,9.46
		c0.49-0.22,0.95-0.17,1.39-0.26c1.88-0.37,3.75-0.72,5.63-1.1c0.38-0.08,0.56-0.05,0.55,0.42c-0.03,1.28-0.01,2.56-0.01,3.83
		c0,0.16,0,0.33,0.03,0.49c0.02,0.1,0.11,0.21,0.22,0.22c0.14,0.01,0.16-0.12,0.18-0.23c0.58-2.92,1.61-5.71,2.33-8.59
		c0.38-1.53,0.84-3.05,1.28-4.62C93.52,150.66,91.1,151.25,88.63,151.16z" />
		<path class="edm_st13" d="M70.17,169.39c-1.06,0.51-2.23,0.64-3.36,0.88c-2.08,0.43-4.16,0.84-6.23,1.27c-0.64,0.13-1.28,0.25-1.92,0.4
		c-0.38,0.09-0.56,0.03-0.55-0.42c0.02-0.78-0.04-1.57-0.08-2.35c-0.08-1.84-0.09-3.69-0.14-5.53c-0.06-2.35-0.15-4.71-0.1-7.06
		c-0.2-0.05-0.28,0.11-0.4,0.17c-0.79,0.34-0.79,0.34-0.58,1.13c0.68,2.58,0.92,5.18,0.66,7.84c-0.11,1.12-0.17,2.26-0.51,3.33
		c-0.74,2.34-2.44,3.63-4.76,4.2c-3.13,0.78-6.32,1.3-9.48,1.96c-0.57,0.12-0.72-0.02-0.72-0.6c0-3.96,0-7.93,0-11.89
		c0-0.93,0.13-0.82-0.8-0.83c-1.83-0.01-3.65,0-5.51,0c0.05-0.19,0.2-0.21,0.31-0.26c2.36-1,4.7-2.06,7.14-2.85
		c0.27-0.09,0.4-0.21,0.39-0.53c-0.02-3.54-0.01-7.09,0-10.63c0-0.36-0.1-0.48-0.46-0.45c-1.49,0.14-2.97,0.27-4.46,0.4
		c-0.98,0.09-1.96,0.17-2.94,0.25c-1.6,0.13-3.19,0.25-4.79,0.38c-0.15,0.01-0.31,0.07-0.36-0.12c-0.05-0.2,0.12-0.22,0.26-0.27
		c4.55-1.43,8.93-3.39,13.58-4.53c3.08-0.75,6.18-1.47,9.3-1.99c3.25-0.54,5.17,1.88,5.19,4.36c0.02,1.94,0.01,3.87,0.01,5.81
		c0.01,1.25-0.14,2.47-0.55,3.65c-0.14,0.39-0.01,0.48,0.37,0.44c0.73-0.08,0.73-0.07,0.73-0.82c0-4.68,0.01-9.35-0.01-14.03
		c0-0.41,0.15-0.56,0.51-0.66c1.48-0.43,3.01-0.65,4.52-0.97c0.38-0.08,0.61,0.08,0.71,0.48c0.08,0.3,0.04,0.68,0.42,0.84
		c0.11,0.06,0.22,0.13,0.32,0.19c-0.6,0.16-0.75,0.56-0.75,1.16c0.02,4.16,0.01,8.32,0.01,12.48c0,0.92,0,0.93-0.87,1.2
		c-0.4,0.12-0.59,0.32-0.58,0.77c0.03,1.15,0.01,2.3,0.01,3.45c0,1.59,0.01,3.18-0.01,4.76c0,0.31,0.06,0.42,0.39,0.34
		c0.51-0.13,1.04-0.2,1.55-0.3c1.46-0.3,2.91-0.69,4.4-0.8c0.11,0.16,0.1,0.34,0.1,0.53C70.17,165.89,70.17,167.64,70.17,169.39z
		 M38.17,146.17c-0.53,0.13-1.08,0.2-1.63,0.49c0.59,0.17,1.1,0.27,1.62,0.03c1.82-0.07,3.62-0.31,5.43-0.49
		c0.52-0.05,0.66,0.11,0.7,0.53c0.02,0.2,0.01,0.4,0.01,0.6c0,2.06-0.01,4.12,0.01,6.18c0.01,1.02,0.1,2.04,0.18,3.05
		c0.07,0.88,0.18,1.79-0.2,2.64c-0.1,0.22-0.18,0.44-0.49,0.43c-0.88-0.01-1.67,0.31-2.44,0.68c-0.37-0.05-0.65,0.14-0.94,0.34
		c-0.26,0.18-0.13,0.28,0.08,0.36c0.32,0.11,0.64,0.02,0.95-0.06c0.22,0.01,0.44,0,0.66,0.02c0.75,0.05,0.86,0.17,0.86,0.92
		c0,3.84,0,7.67,0,11.51c0,0.81,0.09,0.89,0.88,0.7c1.93-0.46,3.87-0.83,5.82-1.2c0.77-0.15,1.54-0.28,2.29-0.49
		c2.83-0.78,4.55-3.07,4.6-6.12c0.03-1.77,0.01-3.54,0-5.31c0-0.45-0.07-0.91-0.14-1.36c-0.21-1.29-0.88-2.29-2.08-3.01
		c0.6-0.16,1.1-0.34,1.62-0.43c0.56-0.1,0.9-0.42,1.18-0.87c0.67-1.05,0.95-2.2,0.97-3.42c0.05-2.25-0.1-4.49-0.22-6.73
		c-0.07-1.33-0.96-2.43-2.21-2.84c-0.75-0.25-1.51-0.21-2.27-0.07c-2.45,0.45-4.89,0.92-7.32,1.5
		C43.4,144.39,40.74,145.11,38.17,146.17z M58.89,163.73c0,2.25,0,4.49,0,6.74c0,0.23-0.11,0.52,0.37,0.41
		c3.29-0.7,6.58-1.36,9.88-2.04c0.22-0.04,0.37-0.12,0.36-0.39c-0.03-1.15,0.06-2.3-0.09-3.45c-0.04-0.32-0.14-0.42-0.49-0.34
		c-1.85,0.4-3.71,0.73-5.55,1.14c-0.54,0.12-0.55-0.06-0.55-0.49c0.01-3.21,0.01-6.43,0.01-9.64c0-0.89,0-0.89,0.9-1.1
		c0.26-0.06,0.54-0.12,0.54-0.5c0.01-0.42,0.08-0.84,0.08-1.26c0.03-3.69,0.09-7.38-0.11-11.06c-0.03-0.47-0.12-0.94-0.17-1.41
		c-0.03-0.29-0.13-0.35-0.43-0.27c-0.9,0.23-1.8,0.44-2.71,0.6c-0.46,0.09-0.6,0.28-0.6,0.76c0.02,4.53,0.01,9.06,0.01,13.59
		c0,1,0.01,1.03-0.95,1.37c-0.4,0.14-0.52,0.33-0.51,0.74C58.9,159.35,58.89,161.54,58.89,163.73z" />
		<path class="edm_st1"
			d="M107.55,155.82c-2.07,0.43-4.12,0.94-6.21,1.26c-1.28,0.2-1.52,0.26-1.08-1.19c0.8-2.63,1.49-5.29,2.3-7.92
		c0.16-0.53,0.62-0.66,1.06-0.73c0.52-0.09,0.73-0.4,0.85-0.86c0.26-0.95,0.55-1.89,0.8-2.84c0.17-0.66,0.49-1.09,1.2-1.25
		c0.72-0.17,1.38-0.56,2.14-0.64c0.38-0.04,0.56,0.08,0.65,0.46c0.15,0.64-0.05,1.3,0.09,1.9c0.21,0.87-0.18,1.21-0.92,1.44
		c-0.45,0.14-0.66,0.46-0.65,1c0.03,2.92,0.01,5.84,0.01,8.77c0,0.2-0.02,0.4-0.03,0.6C107.68,155.81,107.61,155.81,107.55,155.82z" />
		<path class="edm_st12" d="M65.9,140.55c-0.11-0.06-0.22-0.13-0.32-0.19c0.12-0.03,0.24-0.03,0.36-0.1c2.24-1.25,4.61-2.2,7.05-2.95
		c1.44-0.44,2.91-0.75,4.42-0.82c0.17,0.16,0.1,0.38,0.1,0.57c0.04,1.76-0.09,3.52,0.13,5.27c-0.08,1.58,0.08,3.15,0.32,4.7
		c-0.29,0.66-0.26,1.34-0.18,2.04c0.12,1.04,0.02,2.08,0.05,3.11c0.01,0.24-0.14,0.33-0.33,0.36c-1.16,0.18-1.32,0.91-1.31,1.97
		c0.06,4.39,0.02,8.79,0.04,13.19c0,0.5-0.17,0.64-0.62,0.73c-1.64,0.3-3.27,0.63-4.9,0.95c0-1.7,0-3.4,0-5.09
		c0-0.29-0.02-0.55-0.32-0.69c0-3.12,0.02-6.24-0.01-9.36c-0.01-0.89,0.21-1.08,1.02-1.25c0.41-0.08,0.52-0.27,0.52-0.67
		c-0.01-3.83-0.01-7.66,0-11.5c0-0.39-0.11-0.5-0.49-0.48c-1.37,0.06-2.73,0.09-4.1,0.13c-0.41,0.02-0.82-0.1-1.22,0.07
		C66.05,140.54,65.98,140.55,65.9,140.55z M70.61,139.31c0.56,0.15,1.05,0.04,1.54,0.07c0.7,0.04,0.78,0.13,0.78,0.81
		c0,4.11,0,8.22,0,12.33c0,1.01,0,1.02-0.97,1.32c-0.32,0.1-0.48,0.23-0.48,0.6c0.01,4.4,0.01,8.8,0,13.2c0,0.39,0.13,0.5,0.5,0.5
		c0.96,0.01,1.87-0.25,2.79-0.46c0.42-0.1,0.58-0.24,0.58-0.71c-0.02-4.58-0.01-9.17-0.01-13.75c0-0.94,0.04-1.03,0.94-1.21
		c0.39-0.08,0.49-0.25,0.49-0.62c-0.01-4.47-0.01-8.95,0-13.42c0-0.39-0.11-0.51-0.49-0.44c-1.65,0.3-3.28,0.65-4.86,1.22
		C71.11,138.83,70.79,138.93,70.61,139.31z" />
		<path class="edm_st1" d="M77.97,147.03c-0.24-1.56-0.4-3.12-0.32-4.7c0.39-0.11,0.79-0.21,1.18-0.32c1.71-0.12,3.36-0.62,5.03-0.95
		c0.43-0.08,0.86-0.17,1.28-0.25c0.2-0.04,0.34-0.06,0.32,0.25c-0.1,1.12-0.54,2.15-0.84,3.21c-0.04,0.13-0.16,0.19-0.28,0.24
		c-2.05,0.84-4.11,1.68-6.16,2.52C78.12,147.04,78.05,147.04,77.97,147.03z" />
		<path class="edm_st9" d="M139.51,155.16c-0.06-1.29,0.02-2.58,0.05-3.87c0.05-3.02,0.03-6.04,0.04-9.06c0.14,0,0.28-0.01,0.41-0.01
		c0.27,4.22,0.07,8.45,0.12,12.68C139.93,155.01,139.74,155.15,139.51,155.16z" />
		<path class="edm_st9" d="M141.42,128.39c0.4,2.55,0.45,5.11,0.21,7.68c-0.58-0.53-0.32,0.24-0.51,0.33c0.01-2.67,0.01-5.34,0.02-8.01
		C141.24,128.39,141.33,128.39,141.42,128.39z" />
		<path class="edm_st9" d="M78.83,142.01c-0.39,0.11-0.79,0.21-1.18,0.32c-0.23-1.75-0.1-3.51-0.13-5.27c0-0.19,0.07-0.4-0.1-0.57
		c0.2-0.14,0.43-0.09,0.65-0.07c0.04,1.63,0.1,3.26,0.09,4.88C78.16,141.84,78.29,142.08,78.83,142.01z" />
		<path class="edm_st9" d="M70.41,163.59c0.3,0.14,0.32,0.4,0.32,0.69c-0.01,1.7,0,3.4,0,5.09c-0.18,0-0.37,0.01-0.55,0.01
		c0-1.75,0-3.5,0-5.25c0-0.18,0.01-0.37-0.1-0.53C70.18,163.6,70.3,163.6,70.41,163.59z" />
		<path class="edm_st1"
			d="M64.93,131.7c0,0.36-0.03,0.73,0.01,1.09c0.05,0.41-0.18,0.49-0.49,0.54c-0.2,0.03-0.3,0-0.3-0.23
		c0.01-0.86,0.01-1.71,0-2.57c-0.01-0.41,0.31-0.33,0.53-0.37c0.31-0.07,0.24,0.18,0.24,0.35C64.93,130.9,64.93,131.3,64.93,131.7z" />
		<path class="edm_st1" d="M91.67,126.09c0-0.4,0.02-0.8-0.01-1.2c-0.02-0.29,0.12-0.38,0.36-0.43c0.27-0.06,0.44-0.06,0.43,0.31
		c-0.02,0.8-0.03,1.6,0,2.4c0.02,0.48-0.34,0.42-0.59,0.44c-0.34,0.03-0.18-0.28-0.19-0.43C91.65,126.82,91.67,126.46,91.67,126.09z
		" />
		<path class="edm_st8" d="M156.95,136.6c-0.84,0.35-1.49,0.64-2.15,0.89c-0.33,0.12-0.42,0.31-0.42,0.65c0.02,2.81-0.04,5.63,0.04,8.44
		c0.08,2.66-2.01,5.04-4.37,5.6c-2.85,0.68-5.74,1.16-8.61,1.73c-0.25,0.05-0.32-0.03-0.35-0.26c-0.1-0.7-0.16-1.41-0.2-2.12
		c-0.21-3.47-0.04-6.94-0.09-10.41c0-0.2,0-0.4-0.01-0.6c0-0.68,0.19-1,0.85-1.12c0.57-0.11,0.72-0.37,0.71-0.92
		c-0.02-4.64-0.01-9.28-0.02-13.92c0-0.45,0.12-0.63,0.56-0.73c3.46-0.79,6.92-1.55,10.44-1.98c1.8-0.22,3.61-0.4,5.45-0.26
		c-1.03,0.38-2.06,0.76-3.1,1.12c-0.36,0.12-0.5,0.23-0.29,0.64c0.5,0.94,0.6,1.98,0.61,3.02c0.02,2.83,0.01,5.66,0,8.49
		C156,135.57,155.92,136.27,156.95,136.6z M151.97,131.71c0-1.7-0.01-3.4,0.01-5.09c0-0.38-0.06-0.5-0.47-0.42
		c-1.59,0.32-3.18,0.6-4.76,1c-0.41,0.1-0.53,0.29-0.53,0.71c0.02,2.88,0.01,5.77,0.01,8.65c0,0.85-0.08,0.96-0.9,1.16
		c-0.34,0.08-0.53,0.23-0.53,0.63c0.01,3.41,0.01,6.83,0,10.24c0,0.33,0.05,0.45,0.43,0.37c1.6-0.34,3.21-0.64,4.82-0.95
		c0.34-0.06,0.47-0.2,0.47-0.57c-0.02-2.94-0.01-5.88-0.01-8.82c0-0.92,0-0.94,0.92-1.15c0.42-0.09,0.54-0.31,0.54-0.72
		C151.96,135.06,151.97,133.38,151.97,131.71z" />
		<path class="edm_st8" d="M112.71,153.44c0,1.95-0.02,3.91,0.01,5.86c0.01,0.45-0.17,0.59-0.56,0.67c-0.96,0.18-1.93,0.39-2.88,0.61
		c-0.38,0.09-0.53,0.04-0.51-0.39c0.03-0.89,0.01-1.79,0.01-2.69c0-3.42-0.3-6.82-0.23-10.24c0.02-0.82,0.07-0.94,0.85-1.15
		c0.54-0.15,0.71-0.46,0.71-1c-0.02-3.01-0.02-6.03-0.01-9.04c0-0.97,0.13-1.93,0.48-2.84c0.66-1.72,1.88-2.92,3.62-3.49
		c1.94-0.63,3.96-0.99,5.99-1.11c2.1-0.13,3.48,1.26,3.49,3.38c0.02,3.2,0,6.39,0.02,9.59c0,0.42-0.17,0.58-0.52,0.69
		c-1.02,0.33-1.03,0.36-1.04,1.41c-0.04,4.02,0.34,8.03,0.22,12.05c0,0.05,0,0.11,0,0.16c-0.07,2.14,0.23,1.81-1.91,2.32
		c-0.57,0.13-1.15,0.17-1.73,0.19c-0.39,0.02-0.5-0.12-0.5-0.5c0.01-1.95-0.01-3.91-0.01-5.86c0-1.81-0.01-3.62,0-5.43
		c0-0.39-0.12-0.51-0.5-0.5c-1.18,0.04-2.3,0.35-3.44,0.59c-0.25,0.05-0.5,0.12-0.75,0.16c-0.82,0.14-0.82,0.14-0.82,0.94
		C112.71,149.72,112.71,151.58,112.71,153.44z M119.75,137.11c0-1.26-0.01-2.52,0.01-3.78c0-0.35-0.08-0.51-0.46-0.43
		c-1.57,0.29-3.16,0.52-4.71,0.97c-0.36,0.1-0.49,0.25-0.48,0.64c0.02,2.1,0.01,4.2,0.01,6.3c0,1.3,0.12,1.42,1.44,1.4
		c0.15,0,0.29-0.02,0.44-0.04c1.11-0.13,2.15-0.58,3.24-0.76c0.46-0.08,0.53-0.26,0.53-0.67
		C119.73,139.52,119.75,138.31,119.75,137.11z" />
		<path class="edm_st8" d="M125.34,149.94c0-2.14,0.02-4.27-0.01-6.41c-0.01-0.53,0.16-0.84,0.69-0.92c0.54-0.09,0.73-0.36,0.77-0.96
		c0.19-3.31,0.01-6.6-0.11-9.91c-0.05-1.37-0.01-2.74-0.04-4.11c-0.01-0.37,0.2-0.46,0.47-0.55c1.09-0.38,2.23-0.51,3.35-0.75
		c1.67-0.36,3.34-0.71,5.01-1.07c1.18-0.25,2.31-0.16,3.37,0.49c0.95,0.58,1.29,1.46,1.4,2.51c0.22,2,0.32,4,0.21,6.01
		c-0.06,1-0.22,1.99-0.47,2.96c-0.32,1.27-1.18,1.91-2.43,2.13c-0.24,0.04-0.6-0.01-0.67,0.22c-0.09,0.3,0.26,0.44,0.47,0.61
		c0.92,0.76,1.46,1.74,1.47,2.93c0.03,3.63,0.01,7.27,0.02,10.9c0,0.24-0.1,0.37-0.31,0.44c-1,0.35-2.05,0.5-3.09,0.66
		c-0.55,0.09-0.56-0.43-0.54-0.75c0.13-1.59-0.05-3.17-0.02-4.76c0.03-1.44,0.01-2.89,0-4.33c0-0.27,0-0.55-0.02-0.82
		c-0.06-1.09-0.62-1.61-1.7-1.57c-1.27,0.05-2.47,0.45-3.69,0.73c-0.34,0.08-0.2,0.35-0.2,0.53c-0.01,3.65-0.01,7.31-0.01,10.96
		c0,1.23-0.19,1.48-1.44,1.64c-0.53,0.07-1.04,0.18-1.55,0.31c-0.79,0.19-0.94,0.07-0.94-0.72
		C125.34,154.22,125.34,152.08,125.34,149.94z M130.8,134.73c0,1.3,0.01,2.59-0.01,3.89c-0.01,0.38,0.12,0.47,0.47,0.39
		c1.51-0.33,3.02-0.65,4.54-0.96c0.28-0.06,0.41-0.16,0.41-0.46c-0.01-2.61-0.01-5.22,0-7.83c0-0.33-0.1-0.39-0.42-0.32
		c-1.53,0.33-3.07,0.64-4.6,0.94c-0.32,0.06-0.4,0.21-0.4,0.52C130.81,132.17,130.8,133.45,130.8,134.73z" />
		<path class="edm_st8" d="M83.11,146.06c0.74-0.37,1.33-0.67,1.94-0.95c0.24-0.11,0.36-0.26,0.43-0.51c0.41-1.49,0.82-2.98,1.27-4.46
		c0.14-0.47-0.04-0.45-0.4-0.41c-1.93,0.25-3.81,0.77-5.73,1.12c-0.18,0.03-0.36,0.05-0.54,0.08c-1.21,0.15-1.13,0.38-1.22-1.03
		c-0.06-0.83-0.06-1.67,0.07-2.51c0.05-0.31,0.15-0.44,0.44-0.5c2.51-0.52,5.02-1.05,7.53-1.56c1.51-0.31,3.04-0.58,4.55-0.86
		c0.62-0.12,0.66-0.09,0.55,0.53c-0.35,1.94-0.98,3.8-1.52,5.69c-0.78,2.71-1.56,5.42-2.3,8.14c-0.15,0.55-0.4,0.88-0.96,0.94
		c-0.65,0.07-0.95,0.45-1.12,1.07c-0.94,3.42-1.92,6.83-2.88,10.24c-0.16,0.58-0.12,0.61,0.48,0.53c1.86-0.24,3.66-0.8,5.5-1.11
		c0.48-0.08,0.97-0.18,1.46-0.18c0.22,0,0.32,0.06,0.35,0.3c0.12,1.15,0.14,2.29,0.01,3.44c-0.04,0.35-0.27,0.36-0.48,0.4
		c-2.17,0.45-4.35,0.89-6.52,1.33c-1.91,0.39-3.81,0.77-5.72,1.16c-0.61,0.12-0.64,0.1-0.47-0.5c1.31-4.64,2.62-9.28,3.91-13.92
		c0.14-0.5,0.38-0.81,0.89-0.9c0.65-0.11,0.98-0.48,1.18-1.11c0.38-1.22,0.65-2.46,1.03-3.68c0.14-0.46-0.09-0.59-0.46-0.65
		C84.02,146.12,83.63,146.22,83.11,146.06z" />
		<path class="edm_st8" d="M105.79,141.46c-0.03,0.04-0.05,0.11-0.09,0.12c-0.84,0.18-1.04,0.84-1.22,1.56c-0.22,0.86-0.52,1.7-0.75,2.57
		c-0.12,0.47-0.39,0.73-0.85,0.79c-0.69,0.08-0.99,0.45-1.17,1.13c-0.94,3.46-1.93,6.9-2.92,10.34c-0.13,0.46-0.05,0.52,0.41,0.42
		c2.28-0.46,4.57-0.88,6.85-1.33c0.37-0.07,0.48,0.08,0.5,0.36c0.04,0.6,0.16,1.19,0.1,1.8c-0.04,0.42-0.08,0.84-0.04,1.26
		c0.04,0.42-0.13,0.59-0.49,0.71c-1.16,0.39-2.38,0.49-3.57,0.76c-2.5,0.55-5.02,1.05-7.52,1.6c-0.51,0.11-1.06-0.08-1.64,0.36
		c1.03-4.65,2.5-9,3.67-13.44c0.16-0.6,0.12-0.71-0.5-0.76c-0.5-0.04-1.01-0.01-1.53-0.08c0.6-0.45,1.29-0.69,1.98-0.92
		c0.41-0.14,0.84-0.25,1.27-0.32c0.68-0.12,1.04-0.51,1.22-1.16c0.9-3.24,1.81-6.48,2.72-9.72c0.3-1.09,0.3-1.06-0.84-0.91
		c-1.79,0.24-3.53,0.72-5.29,1.08c-1.41,0.28-1.4,0.3-1.41-1.13c0-0.8,0-1.61,0-2.41c0-0.27,0.06-0.41,0.37-0.48
		c4.17-0.85,8.33-1.72,12.49-2.59c0.37-0.08,0.39,0.03,0.3,0.36c-0.83,2.92-1.65,5.84-2.47,8.77
		C105.08,141.05,105.08,141.05,105.79,141.46z" />
		<path class="edm_st1" d="M88.63,151.16c2.48,0.09,4.9-0.5,7.41-0.49c-0.44,1.57-0.9,3.08-1.28,4.62c-0.72,2.88-1.75,5.68-2.33,8.59
		c-0.02,0.1-0.03,0.24-0.18,0.23c-0.12-0.01-0.2-0.11-0.22-0.22c-0.03-0.16-0.03-0.32-0.03-0.49c0-1.28-0.02-2.56,0.01-3.83
		c0.01-0.47-0.16-0.49-0.55-0.42c-1.87,0.38-3.75,0.74-5.63,1.1c-0.44,0.09-0.91,0.04-1.39,0.26c0.58-3.26,1.71-6.32,2.53-9.46
		c0.07-0.28,0.28-0.38,0.52-0.41c0.97-0.15,1.35-0.74,1.6-1.68c1.14-4.29,2.38-8.56,3.59-12.84c0.08-0.28,0.07-0.74,0.44-0.72
		c0.44,0.03,0.4,0.5,0.42,0.84c0.06,0.73,0.11,1.46,0.14,2.19c0.02,0.51,0.29,0.53,0.68,0.45c1.52-0.31,3.03-0.61,4.55-0.91
		c0.73-0.14,1.47-0.25,2.3-0.28c-0.25,0.89-0.48,1.72-0.71,2.54c-0.6,2.14-1.22,4.27-1.79,6.42c-0.13,0.49-0.38,0.7-0.84,0.84
		C94.71,148.53,91.68,149.86,88.63,151.16z" />
		<path class="edm_st3" d="M140,142.22c-0.14,0-0.28,0.01-0.41,0.01c-0.14-0.61-0.34-1.19-0.71-1.69c-0.17-0.23-0.21-0.44,0.1-0.55
		c0.31-0.11,0.64-0.44,0.94,0.05c0.19,0.32,0.16,0.69,0.14,1C140.03,141.43,140.07,141.83,140,142.22z" />
		<path class="edm_st3" d="M141.13,136.4c0.19-0.08-0.07-0.85,0.51-0.33c0.12,0.77-0.17,1.5-0.21,2.26c-0.02,0.3-0.7,0.51-0.96,0.33
		c-0.19-0.13-0.05-0.26-0.01-0.38C140.67,137.65,141.05,137.08,141.13,136.4z" />
		<path class="edm_st8" d="M41.36,160.33c0.77-0.38,1.56-0.7,2.44-0.68c0.31,0,0.4-0.22,0.49-0.43c0.38-0.86,0.27-1.76,0.2-2.64
		c-0.08-1.02-0.17-2.03-0.18-3.05c-0.01-2.06-0.01-4.12-0.01-6.18c0-0.2,0.01-0.4-0.01-0.6c-0.04-0.42-0.18-0.58-0.7-0.53
		c-1.81,0.19-3.61,0.43-5.43,0.49c0-0.17,0-0.35,0.01-0.52c2.56-1.06,5.23-1.78,7.92-2.42c2.42-0.57,4.87-1.05,7.32-1.5
		c0.75-0.14,1.51-0.17,2.27,0.07c1.26,0.41,2.15,1.51,2.21,2.84c0.12,2.24,0.27,4.48,0.22,6.73c-0.03,1.22-0.3,2.38-0.97,3.42
		c-0.29,0.45-0.63,0.77-1.18,0.87c-0.51,0.09-1.01,0.27-1.62,0.43c1.2,0.72,1.87,1.72,2.08,3.01c0.07,0.45,0.14,0.9,0.14,1.36
		c0.02,1.77,0.03,3.54,0,5.31c-0.05,3.06-1.77,5.34-4.6,6.12c-0.75,0.21-1.53,0.34-2.29,0.49c-1.95,0.37-3.89,0.74-5.82,1.2
		c-0.79,0.19-0.88,0.11-0.88-0.7c0-3.84,0-7.67,0-11.51c0-0.75-0.11-0.87-0.86-0.92c-0.22-0.01-0.44-0.01-0.66-0.02
		C41.43,160.74,41.39,160.54,41.36,160.33z M46.94,164.77c0,1.24,0.03,2.49-0.02,3.73c-0.02,0.57,0.21,0.63,0.66,0.56
		c1.55-0.22,3.08-0.57,4.6-0.97c0.29-0.08,0.37-0.22,0.37-0.5c-0.01-2.5-0.01-5.01,0-7.51c0-0.38-0.14-0.48-0.48-0.43
		c-0.14,0.02-0.29,0.03-0.44,0.05c-1.46,0.14-2.86,0.56-4.3,0.81c-0.33,0.06-0.42,0.17-0.41,0.49
		C46.95,162.25,46.94,163.51,46.94,164.77z M53.93,150.62c0-1.26-0.01-2.52,0-3.78c0-0.32-0.04-0.44-0.42-0.38
		c-1.55,0.22-3.08,0.55-4.6,0.94c-0.28,0.07-0.43,0.17-0.42,0.51c0.02,2.52,0.01,5.04,0,7.56c0,0.33,0.08,0.44,0.43,0.41
		c1.55-0.14,3.06-0.47,4.56-0.87c0.34-0.09,0.46-0.25,0.46-0.6C53.92,153.14,53.93,151.88,53.93,150.62z" />
		<path class="edm_st14" d="M70.41,163.59c-0.11,0.01-0.23,0.01-0.34,0.02c-1.49,0.11-2.94,0.5-4.4,0.8c-0.52,0.11-1.04,0.18-1.55,0.3
		c-0.33,0.08-0.4-0.03-0.39-0.34c0.01-1.59,0.01-3.18,0.01-4.76c0-1.15,0.02-2.3-0.01-3.45c-0.01-0.46,0.17-0.65,0.58-0.77
		c0.88-0.26,0.87-0.28,0.87-1.2c0-4.16,0.01-8.32-0.01-12.48c0-0.59,0.15-0.99,0.75-1.16c0.08,0,0.15-0.01,0.23-0.01
		c0.41,0.01,0.82,0.06,1.22-0.07c1.37-0.04,2.73-0.07,4.1-0.13c0.38-0.02,0.49,0.09,0.49,0.48c-0.01,3.83-0.01,7.66,0,11.5
		c0,0.4-0.11,0.58-0.52,0.67c-0.81,0.17-1.03,0.35-1.02,1.25C70.43,157.35,70.41,160.47,70.41,163.59z" />
		<path class="edm_st8" d="M58.89,163.73c0-2.19,0.01-4.38-0.01-6.58c0-0.41,0.12-0.6,0.51-0.74c0.96-0.34,0.95-0.36,0.95-1.37
		c0-4.53,0.01-9.06-0.01-13.59c0-0.48,0.14-0.67,0.6-0.76c0.91-0.17,1.82-0.37,2.71-0.6c0.3-0.08,0.4-0.02,0.43,0.27
		c0.05,0.47,0.14,0.94,0.17,1.41c0.2,3.69,0.14,7.37,0.11,11.06c0,0.42-0.08,0.84-0.08,1.26c-0.01,0.38-0.28,0.44-0.54,0.5
		c-0.9,0.21-0.9,0.2-0.9,1.1c0,3.21,0.01,6.43-0.01,9.64c0,0.42,0.01,0.61,0.55,0.49c1.84-0.42,3.7-0.75,5.55-1.14
		c0.36-0.08,0.45,0.03,0.49,0.34c0.15,1.15,0.06,2.3,0.09,3.45c0.01,0.27-0.14,0.34-0.36,0.39c-3.29,0.67-6.59,1.34-9.88,2.04
		c-0.48,0.1-0.37-0.18-0.37-0.41C58.88,168.22,58.89,165.98,58.89,163.73z" />
		<path class="edm_st5" d="M38.17,146.17c0,0.17,0,0.35-0.01,0.52c-0.52,0.24-1.04,0.14-1.62-0.03C37.09,146.37,37.64,146.3,38.17,146.17
		z" />
		<path class="edm_st5" d="M41.36,160.33c0.03,0.21,0.06,0.42,0.1,0.63c-0.31,0.09-0.63,0.18-0.95,0.06c-0.21-0.07-0.34-0.18-0.08-0.36
		C40.71,160.47,40.99,160.27,41.36,160.33z" />
		<path class="edm_st7" d="M70.61,139.31c0.19-0.38,0.51-0.48,0.81-0.58c1.58-0.56,3.21-0.91,4.86-1.22c0.38-0.07,0.49,0.05,0.49,0.44
		c-0.01,4.47-0.01,8.95,0,13.42c0,0.38-0.1,0.54-0.49,0.62c-0.9,0.18-0.94,0.27-0.94,1.21c0,4.58-0.01,9.17,0.01,13.75
		c0,0.47-0.16,0.61-0.58,0.71c-0.92,0.21-1.83,0.47-2.79,0.46c-0.37,0-0.5-0.11-0.5-0.5c0.01-4.4,0.01-8.8,0-13.2
		c0-0.37,0.15-0.5,0.48-0.6c0.97-0.3,0.97-0.31,0.97-1.32c0-4.11,0-8.22,0-12.33c0-0.68-0.08-0.76-0.78-0.81
		C71.65,139.34,71.16,139.46,70.61,139.31z" />
		<path class="edm_st13" d="M67.35,140.47c-0.4,0.14-0.81,0.09-1.22,0.07C66.53,140.36,66.94,140.49,67.35,140.47z" />
		<path class="edm_st12"
			d="M151.97,131.71c0,1.68-0.01,3.36,0.01,5.04c0.01,0.42-0.12,0.63-0.54,0.72c-0.92,0.21-0.92,0.22-0.92,1.15
		c0,2.94-0.01,5.88,0.01,8.82c0,0.37-0.13,0.51-0.47,0.57c-1.61,0.3-3.22,0.61-4.82,0.95c-0.38,0.08-0.43-0.04-0.43-0.37
		c0.01-3.41,0.01-6.83,0-10.24c0-0.4,0.18-0.54,0.53-0.63c0.82-0.2,0.9-0.31,0.9-1.16c0-2.88,0.01-5.77-0.01-8.65
		c0-0.42,0.12-0.61,0.53-0.71c1.57-0.4,3.17-0.69,4.76-1c0.42-0.08,0.48,0.04,0.47,0.42C151.96,128.31,151.97,130.01,151.97,131.71z
		 M145.74,143.22c0,1.39,0,2.78,0,4.16c0,0.27,0.01,0.47,0.38,0.41c0.97-0.16,1.95-0.26,2.88-0.61c0.43-0.16,0.57-0.36,0.57-0.83
		c-0.02-2.96,0-5.92-0.02-8.88c0-0.4,0.12-0.61,0.51-0.68c0.21-0.04,0.42-0.12,0.62-0.2c0.26-0.11,0.39-0.29,0.39-0.59
		c-0.01-2.79-0.01-5.59,0-8.38c0-0.26-0.08-0.38-0.35-0.32c-0.98,0.22-1.98,0.32-2.93,0.64c-0.4,0.14-0.56,0.33-0.56,0.78
		c0.02,2.85,0.01,5.7,0.01,8.55c0,0.95,0,0.97-0.9,1.15c-0.47,0.1-0.62,0.33-0.61,0.79C145.75,140.55,145.74,141.88,145.74,143.22z" />
		<path class="edm_st12" d="M119.75,137.11c0,1.2-0.02,2.41,0.01,3.61c0.01,0.41-0.07,0.6-0.53,0.67c-1.09,0.18-2.13,0.63-3.24,0.76
		c-0.14,0.02-0.29,0.04-0.44,0.04c-1.32,0.02-1.44-0.1-1.44-1.4c0-2.1,0.01-4.2-0.01-6.3c0-0.38,0.12-0.53,0.48-0.64
		c1.54-0.45,3.13-0.68,4.71-0.97c0.38-0.07,0.46,0.08,0.46,0.43C119.74,134.59,119.75,135.85,119.75,137.11z M118.83,137.26
		c0-1,0-2.01,0-3.01c0-0.17,0.06-0.41-0.26-0.34c-1.05,0.25-2.12,0.34-3.15,0.69c-0.23,0.08-0.38,0.17-0.38,0.45
		c0.01,1.97,0.01,3.95,0,5.92c0,0.27,0.09,0.34,0.36,0.31c1.02-0.1,2.01-0.31,3-0.6c0.34-0.1,0.44-0.27,0.44-0.62
		C118.81,139.12,118.83,138.19,118.83,137.26z" />
		<path class="edm_st12" d="M130.8,134.73c0-1.28,0.01-2.55-0.01-3.83c0-0.31,0.08-0.46,0.4-0.52c1.54-0.3,3.07-0.61,4.6-0.94
		c0.32-0.07,0.42-0.01,0.42,0.32c-0.01,2.61-0.01,5.22,0,7.83c0,0.3-0.12,0.4-0.41,0.46c-1.52,0.31-3.03,0.63-4.54,0.96
		c-0.36,0.08-0.48-0.01-0.47-0.39C130.82,137.32,130.8,136.02,130.8,134.73z M131.58,134.59c0,0.99,0.02,1.97-0.01,2.96
		c-0.01,0.39,0.12,0.46,0.46,0.38c1.01-0.22,2.03-0.44,3.05-0.63c0.32-0.06,0.42-0.18,0.42-0.5c-0.01-2.01-0.01-4.02,0-6.03
		c0-0.37-0.14-0.37-0.42-0.31c-1.05,0.23-2.1,0.46-3.15,0.66c-0.31,0.06-0.36,0.23-0.36,0.5
		C131.59,132.62,131.58,133.61,131.58,134.59z" />
		<path class="edm_st12" d="M46.94,164.77c0-1.26,0.01-2.52-0.01-3.78c0-0.31,0.08-0.43,0.41-0.49c1.44-0.24,2.84-0.67,4.3-0.81
		c0.15-0.01,0.29-0.02,0.44-0.05c0.34-0.05,0.48,0.05,0.48,0.43c-0.02,2.5-0.01,5.01,0,7.51c0,0.28-0.08,0.42-0.37,0.5
		c-1.52,0.4-3.04,0.75-4.6,0.97c-0.45,0.06-0.69,0.01-0.66-0.56C46.97,167.26,46.94,166.01,46.94,164.77z M51.62,164.02
		c0-0.95-0.01-1.9,0.01-2.85c0.01-0.37-0.11-0.48-0.47-0.45c-1.03,0.07-2,0.38-2.99,0.6c-0.23,0.05-0.26,0.2-0.26,0.41
		c0,2.01,0,4.01,0,6.02c0,0.25,0.04,0.37,0.34,0.29c0.99-0.24,1.98-0.46,2.98-0.67c0.31-0.06,0.41-0.2,0.4-0.51
		C51.61,165.92,51.62,164.97,51.62,164.02z" />
		<path class="edm_st12" d="M53.93,150.62c0,1.26-0.01,2.52,0.01,3.78c0.01,0.36-0.11,0.51-0.46,0.6c-1.5,0.4-3.01,0.73-4.56,0.87
		c-0.36,0.03-0.44-0.08-0.43-0.41c0.01-2.52,0.01-5.04,0-7.56c0-0.34,0.15-0.44,0.42-0.51c1.52-0.39,3.05-0.72,4.6-0.94
		c0.39-0.05,0.43,0.06,0.42,0.38C53.92,148.1,53.93,149.36,53.93,150.62z M53.19,150.88c0-0.93-0.03-1.86,0.01-2.79
		c0.02-0.49-0.17-0.57-0.6-0.55c-1.09,0.05-2.1,0.41-3.13,0.69c-0.29,0.08-0.24,0.28-0.24,0.47c0,1.9,0.01,3.79-0.01,5.69
		c0,0.38,0.13,0.45,0.47,0.45c1.1,0.02,2.11-0.34,3.14-0.63c0.29-0.08,0.36-0.21,0.36-0.49C53.19,152.77,53.19,151.82,53.19,150.88z
		" />
		<path class="edm_st14" d="M145.74,143.22c0-1.33,0.01-2.67-0.01-4c-0.01-0.46,0.14-0.7,0.61-0.79c0.9-0.18,0.9-0.21,0.9-1.15
		c0-2.85,0.01-5.7-0.01-8.55c0-0.45,0.15-0.64,0.56-0.78c0.96-0.32,1.96-0.43,2.93-0.64c0.27-0.06,0.35,0.06,0.35,0.32
		c-0.01,2.79-0.01,5.59,0,8.38c0,0.3-0.14,0.49-0.39,0.59c-0.2,0.08-0.41,0.16-0.62,0.2c-0.39,0.08-0.51,0.28-0.51,0.68
		c0.02,2.96,0,5.92,0.02,8.88c0,0.46-0.14,0.67-0.57,0.83c-0.94,0.35-1.91,0.44-2.88,0.61c-0.37,0.06-0.38-0.14-0.38-0.41
		C145.74,145.99,145.74,144.61,145.74,143.22z" />
		<path class="edm_st3" d="M118.83,137.26c0,0.93-0.02,1.86,0.01,2.79c0.01,0.35-0.09,0.52-0.44,0.62c-0.98,0.29-1.98,0.5-3,0.6
		c-0.27,0.03-0.36-0.04-0.36-0.31c0.01-1.97,0.01-3.95,0-5.92c0-0.28,0.15-0.37,0.38-0.45c1.02-0.35,2.1-0.45,3.15-0.69
		c0.32-0.08,0.26,0.17,0.26,0.34C118.83,135.25,118.83,136.26,118.83,137.26z" />
		<path class="edm_st3" d="M131.58,134.59c0-0.99,0.01-1.97,0-2.96c0-0.27,0.04-0.44,0.36-0.5c1.05-0.21,2.1-0.43,3.15-0.66
		c0.28-0.06,0.42-0.06,0.42,0.31c-0.02,2.01-0.01,4.02,0,6.03c0,0.32-0.1,0.44-0.42,0.5c-1.02,0.19-2.04,0.41-3.05,0.63
		c-0.34,0.08-0.47,0.01-0.46-0.38C131.6,136.57,131.58,135.58,131.58,134.59z" />
		<path class="edm_st1" d="M51.62,164.02c0,0.95-0.01,1.9,0.01,2.85c0.01,0.31-0.09,0.45-0.4,0.51c-1,0.2-1.99,0.43-2.98,0.67
		c-0.3,0.07-0.34-0.04-0.34-0.29c0-2.01,0-4.01,0-6.02c0-0.2,0.03-0.36,0.26-0.41c0.99-0.22,1.97-0.53,2.99-0.6
		c0.36-0.02,0.48,0.09,0.47,0.45C51.6,162.13,51.62,163.07,51.62,164.02z" />
		<path class="edm_st3" d="M53.19,150.88c0,0.95-0.01,1.9,0.01,2.84c0,0.28-0.07,0.41-0.36,0.49c-1.03,0.29-2.05,0.64-3.14,0.63
		c-0.34-0.01-0.48-0.08-0.47-0.45c0.02-1.9,0.01-3.79,0.01-5.69c0-0.19-0.05-0.39,0.24-0.47c1.03-0.28,2.05-0.64,3.13-0.69
		c0.43-0.02,0.62,0.06,0.6,0.55C53.17,149.02,53.19,149.95,53.19,150.88z" />
	</g>
	<path class="edm_st1" d="M130.51,118.09c0-0.4,0.02-0.8-0.01-1.2c-0.02-0.29,0.12-0.38,0.36-0.43c0.27-0.06,0.44-0.06,0.43,0.31
	c-0.02,0.8-0.03,1.6,0,2.4c0.02,0.48-0.34,0.42-0.59,0.44c-0.34,0.03-0.18-0.28-0.19-0.43
	C130.49,118.82,130.51,118.46,130.51,118.09z" />
</svg>