<?xml version="1.0" encoding="utf-8"?>
<!-- Generator: Adobe Illustrator 24.1.0, SVG Export Plug-In . SVG Version: 6.00 Build 0)  -->
<svg version="1.1" id="Layer_1" xmlns="http://www.w3.org/2000/svg" xmlns:xlink="http://www.w3.org/1999/xlink" x="0px" y="0px"
	 viewBox="0 0 200 200" style="enable-background:new 0 0 200 200;" xml:space="preserve">
<g>
	<path style="fill:#D6D8D9;" d="M97.222,0c1.803,0.867,3.469,1.985,5.282,2.837c1.056,0.496,2.061,1.098,3.102,1.625
		c3.494,1.768,6.744,3.919,9.801,6.351c1.679,1.335,3.362,2.698,4.817,4.275c3.179,3.445,6.127,7.069,8.334,11.251
		c1.491,2.826,2.979,5.655,4.34,8.544c1.887,4.006,3.7,8.05,5.085,12.265c0.234,0.712,0.713,1.231,1.189,1.745
		c3.5,3.782,6.534,7.916,9.353,12.219c2.713,4.14,4.888,8.537,6.427,13.245c0.13,0.398,0.233,0.805,0.373,1.199
		c0.246,0.695,0.608,1.314,1.139,1.844c7.279,7.27,14.552,14.546,21.823,21.823c0.267,0.267,0.301,4.456,0.301,4.868
		c0.001,1.378-0.716,2.47-1.43,3.546c-0.976,1.472-2.003,2.91-3.287,4.145c-1.922,1.849-4.146,3.2-6.642,4.118
		c-0.274,0.101-0.538,0.235-0.818,0.306c-0.343,0.087-0.358,0.321-0.327,0.59c0.04,0.345,0.315,0.342,0.541,0.291
		c0.688-0.155,1.384-0.102,2.073-0.083c1.388,0.038,2.768-0.153,4.155-0.113c0.175,0.005,0.408-0.073,0.493,0.132
		c0.065,0.158-0.107,0.289-0.202,0.422c-0.967,1.345-1.88,2.734-2.912,4.026c-0.638,0.798-1.143,1.685-1.804,2.464
		c-0.71,0.837-1.566,1.474-2.525,1.963c-1.69,0.863-3.409,1.672-5.11,2.514c-0.654,0.324-1.28,0.705-1.943,1.008
		c-0.416,0.19-0.557,0.485-0.556,0.901c0.001,0.457,0.056,0.923-0.015,1.368c-0.106,0.666,0.264,0.854,0.792,0.967
		c1.333,0.285,2.684,0.456,4.027,0.678c0.788,0.13,1.568,0.305,2.352,0.461c0.324,0.064,0.432,0.196,0.323,0.566
		c-0.501,1.7-1.086,3.362-1.994,4.895c-0.162,0.273-0.382,0.477-0.646,0.652c-1.794,1.186-3.584,2.379-5.374,3.572
		c-0.166,0.111-0.323,0.237-0.484,0.356c-0.473,0.351-0.65,0.791-0.639,1.406c0.064,3.56-1.211,6.666-3.389,9.414
		c-2.609,3.293-6.063,5.104-10.194,5.783c-2.668,0.439-5.303,1.079-7.956,1.61c-3.473,0.694-6.933,1.45-10.411,2.118
		c-2.803,0.538-5.581,1.204-8.318,2.023c-0.804,0.241-1.42,0.626-1.893,1.414c-1.621,2.702-3.334,5.352-5.23,7.873
		c-0.962,1.279-1.995,2.506-3.033,3.724c-1.205,1.413-2.364,2.873-3.711,4.157c-4.089,3.897-8.443,7.433-13.51,10.028
		c-3.265,1.672-6.593,3.202-9.943,4.691c-1.314,0.584-2.63,1.171-3.864,1.92c-0.037,0-0.073,0-0.11,0
		c-0.059-1.251,0.413-2.393,0.737-3.564c0.661-2.385,1.128-4.812,1.564-7.244c0.333-1.858,0.64-3.72,0.946-5.583
		c0.076-0.465,0.101-0.939,0.153-1.408c0.04-0.362-0.161-0.483-0.481-0.514c-0.414-0.039-0.737,0.142-1.052,0.378
		c-2.197,1.646-4.398,3.288-6.618,4.947c-0.167-0.37-0.177-0.723-0.187-1.082c-0.055-2.08,0.14-4.145,0.302-6.215
		c0.091-1.156,0.122-2.332-0.052-3.496c-0.075-0.501-0.392-0.668-0.841-0.674c-0.593-0.008-1.141,0.222-1.705,0.356
		c-3.554,0.843-7.135,1.554-10.713,2.281c-3.862,0.785-7.719,1.601-11.588,2.353c-1.369,0.266-2.709,0.72-4.127,0.728
		c-0.208,0.001-0.463,0.069-0.614,0.2c-0.361,0.314-0.572,0.124-0.805-0.146c-0.57-0.662-1.161-1.307-1.714-1.984
		c-0.198-0.242-0.376-0.532-0.633-0.673c-0.743-0.407-0.754-1.052-0.742-1.771c0.027-1.714,0.053-3.431-0.107-5.14
		c-0.069-0.74-0.229-1.471-0.314-2.209c-0.041-0.36-0.315-0.391-0.543-0.435c-1.088-0.207-2.178-0.4-3.273-0.568
		c-0.774-0.119-1.533-0.299-2.292-0.486c-0.225-0.056-0.374-0.176-0.482-0.395c-0.742-1.508-1.486-3.014-2.259-4.506
		c-0.171-0.329-0.032-0.449,0.202-0.598c1.279-0.81,2.612-1.527,3.939-2.253c2.157-1.181,4.356-2.295,6.311-3.81
		c0.1-0.078,0.221-0.144,0.289-0.244c0.222-0.324,0.054-0.656-0.337-0.654c-1.733,0.009-3.462-0.132-5.196-0.114
		c-3.069,0.033-6.139,0.009-9.209,0.009c-0.235,0-0.468,0.029-0.658-0.18c-1.708-1.883-3.778-3.38-5.536-5.211
		c-0.425-0.443-0.434-0.449,0.142-0.674c4.564-1.784,9.13-3.564,13.695-5.346c1.901-0.742,3.792-1.509,5.707-2.213
		c0.554-0.203,0.698-1.16,0.531-1.838c-0.266-1.077-0.586-2.141-0.839-3.221c-0.406-1.734-0.698-3.486-0.869-5.262
		c-0.212-2.214-0.377-4.432-0.298-6.652c0.121-3.413,0.173-6.84,1.076-10.172c0.062-0.228,0.167-0.45,0.192-0.682
		c0.021-0.197,0.243-0.417-0.002-0.604c-0.232-0.177-0.511-0.228-0.779-0.125c-0.305,0.118-0.601,0.269-0.884,0.434
		c-2.155,1.26-4.303,2.534-6.463,3.785c-0.304,0.176-0.665,0.493-0.976,0.353c-0.223-0.1,0.033-0.529,0.046-0.815
		c0.08-1.744,0.347-3.465,0.674-5.181c0.197-1.032,0.275-2.086,0.406-3.13c0.229-1.823,0.586-3.622,1.026-5.404
		c1.051-4.255,2.463-8.381,4.343-12.349c1.484-3.132,3.326-6.021,5.555-8.672c1.896-2.254,4.043-4.245,6.264-6.171
		c2.05-1.777,4.121-3.526,6.282-5.167c0.532-0.404,1.157-0.692,1.534-1.293c0.185-0.295,0.213-0.527,0.061-0.853
		c-1.119-2.395-2.204-4.804-2.738-7.416c-0.492-2.408-1.001-4.818-0.818-7.295c0.084-1.138,0.281-2.269,0.457-3.399
		c0.307-1.972,0.602-3.947,0.965-5.91c0.613-3.32,1.01-6.676,1.683-9.987c0.415-2.043,0.861-4.08,0.858-6.199
		c-0.004-2.636-0.553-5.132-1.55-7.542c-1.58-3.822-3.189-7.632-4.791-11.446c-0.282-0.672-0.591-1.333-0.88-2.003
		c-0.061-0.141-0.23-0.29-0.088-0.446c0.14-0.155,0.303,0.037,0.461,0.032c0.201-0.005,0.34,0.134,0.483,0.238
		c2.51,1.818,5.14,3.458,7.694,5.21c3.217,2.206,6.468,4.36,9.775,6.429c3.391,2.121,6.901,4.018,10.569,5.62
		c2.989,1.306,5.943,2.697,8.987,3.871c1.766,0.681,3.567,1.276,5.42,1.688c0.865,0.193,1.231,0.003,1.54-0.781
		c1.659-4.204,3.268-8.426,4.68-12.721c0.523-1.592,1.004-3.197,1.498-4.798c0.566-1.833,0.393-3.663-0.011-5.499
		c-0.402-1.827-0.763-3.663-1.141-5.495C96.841,0.636,96.925,0.308,97.112,0C97.149,0,97.186,0,97.222,0z"/>
	<path style="fill:#091E40;" d="M146.399,112.013c0.419,1.755,0.9,3.496,1.175,5.284c0.056,0.366-0.035,0.497-0.399,0.598
		c-2.535,0.702-5.136,1.089-7.706,1.622c-9.872,2.047-19.749,4.075-29.623,6.109c-10.179,2.097-20.358,4.19-30.536,6.291
		c-9.463,1.954-18.925,3.916-28.387,5.875c-1.928,0.399-3.856,0.8-5.784,1.2c-0.018,0.004-0.035,0.009-0.053,0.012
		c-0.923,0.172-0.961,0.137-1.044-0.802c-0.038-0.435-0.109-0.868-0.165-1.302c-0.13-0.12-0.175-0.278-0.181-0.445
		c-0.057-1.401-0.237-2.804,0.094-4.326c-0.733,1.072-1.178,2.148-1.723,3.171c-0.139,0.262-0.192,0.7-0.546,0.677
		c-0.358-0.024-0.359-0.466-0.441-0.746c-0.393-1.339-0.547-2.724-0.669-4.104c-0.28-3.154-0.262-6.328-0.076-9.473
		c0.259-4.373,1.207-8.642,2.82-12.74c0.73-1.854,1.469-3.702,2.401-5.467c0.237-0.449,0.428-0.924,0.544-1.452
		c-0.244-0.076-0.417,0.045-0.583,0.126c-2.632,1.271-5.295,2.476-7.929,3.742c-0.363,0.174-0.729,0.34-1.104,0.483
		c-0.406,0.154-0.635,0.004-0.665-0.427c-0.022-0.314,0.079-0.615,0.142-0.918c1.09-5.221,2.861-10.2,5.375-14.903
		c1.808-3.382,3.991-6.494,6.68-9.256c3.074-3.158,6.54-5.832,10.076-8.428c0.663-0.487,1.321-0.979,1.979-1.473
		c0.468-0.352,0.486-0.415,0.163-0.885c-0.891-1.295-1.756-2.604-2.484-4.001c-1.27-2.435-2.153-4.997-2.541-7.718
		c-0.131-0.92-0.228-1.847-0.234-2.78c-0.014-2.112,0.356-4.178,0.714-6.249c1.051-6.085,2.169-12.159,3.076-18.268
		c0.388-2.614,0.193-5.211-0.499-7.766c-0.249-0.917-0.425-1.852-0.663-2.771c-0.037-0.143-0.085-0.296,0.038-0.414
		c0.153-0.146,0.309-0.036,0.452,0.035c0.31,0.156,0.611,0.328,0.9,0.523c4.492,3.035,9.223,5.652,14.117,7.966
		c4.178,1.975,8.365,3.943,12.785,5.34c2.568,0.812,5.182,1.404,7.895,1.435c0.091,0.001,0.183,0.006,0.273,0.016
		c1.084,0.119,1.096,0.122,1.338-0.975c0.563-2.542,1.436-4.982,2.39-7.399c1.65-4.182,3.231-8.389,4.436-12.726
		c0.416-1.497,0.775-3.008,1.067-4.534c0.16-0.837,0.423-0.94,1.164-0.542c3.293,1.772,6.401,3.822,9.23,6.271
		c2.965,2.567,5.62,5.425,7.93,8.604c2.237,3.078,3.932,6.452,5.537,9.881c0.651,1.39,1.355,2.754,2.015,4.14
		c1.478,3.104,2.896,6.235,3.898,9.528c0.59,1.94,1.642,3.559,2.963,5.06c2.912,3.307,5.683,6.727,8.117,10.408
		c2.327,3.518,4.295,7.221,5.713,11.203c0.386,1.085,0.706,2.192,0.96,3.315c0.181,0.8,0.532,1.502,1.037,2.15
		c1.77,2.272,3.838,4.257,5.938,6.211c0.802,0.746,1.587,1.512,2.372,2.275c1.31,1.273,2.643,2.521,3.947,3.8
		c2.711,2.66,5.462,5.28,8.221,7.89c0.304,0.288,0.625,0.557,0.928,0.849c0.796,0.767,0.774,1.654,0.421,2.574
		c-0.486,1.265-1.095,2.473-1.916,3.561c-2.711,3.596-6.381,5.241-10.812,5.005c-2.968-0.158-5.907-0.719-8.842-1.222
		c-4.001-0.686-7.947-1.619-11.893-2.561c-2.213-0.528-4.464-0.764-6.74-0.667c-1.578,0.067-3.025,0.472-4.12,1.73
		c-0.391,0.449-0.703,0.935-0.917,1.482c-0.354,0.904-0.556,1.854-0.815,2.787c-0.092,0.333,0.013,0.441,0.35,0.368
		c0.607-0.132,1.218-0.241,1.834-0.323c2.214-0.45,4.439-0.84,6.651-1.295c1.714-0.352,3.413-0.763,5.123-1.132
		c0.392-0.085,0.782-0.176,1.183-0.211c0.767-0.173,1.54-0.297,2.329-0.325C146.118,110.544,146.524,110.986,146.399,112.013z"/>
	<path style="fill:#33C1EE;" d="M146.399,112.013c-0.415-1.444-0.416-1.45-1.94-1.254c-0.542,0.07-1.079,0.175-1.618,0.264
		c-1.226-0.191-2.375-0.69-3.603-0.879c-1.743-0.269-3.471-0.663-5.254-0.57c-2.127,0.111-3.344,1.093-3.915,3.159
		c-0.087,0.313-0.068,0.656-0.259,0.94c-0.718,0.129-1.439,0.244-2.153,0.395c-0.285,0.06-0.333-0.033-0.265-0.267
		c0.319-1.103,0.521-2.245,0.991-3.297c0.979-2.192,2.793-3.051,5.092-3.143c2.987-0.12,5.884,0.399,8.763,1.125
		c5.079,1.281,10.217,2.265,15.413,2.938c1.285,0.166,2.565,0.426,3.862,0.414c4.776-0.046,8.462-2.059,10.933-6.19
		c0.45-0.753,0.821-1.547,1.128-2.369c0.336-0.899,0.324-1.682-0.469-2.419c-2.475-2.302-4.909-4.648-7.345-6.991
		c-3.845-3.698-7.686-7.4-11.515-11.116c-0.997-0.968-1.868-2.053-2.708-3.16c-0.358-0.471-0.623-0.981-0.759-1.562
		c-1.123-4.797-3.199-9.182-5.795-13.34c-2.64-4.227-5.727-8.116-9.024-11.84c-1.439-1.626-2.502-3.41-3.145-5.506
		c-1.143-3.723-2.814-7.238-4.527-10.728c-1.56-3.177-2.963-6.437-4.823-9.457c-4.574-7.425-10.728-13.198-18.357-17.408
		c-0.335-0.185-0.671-0.37-1.006-0.556c-0.376-0.21-0.549-0.096-0.625,0.326c-0.678,3.725-1.792,7.328-3.048,10.892
		c-1.043,2.959-2.191,5.878-3.326,8.802c-0.742,1.911-1.252,3.886-1.69,5.882c-0.091,0.416-0.267,0.512-0.66,0.506
		c-3.806-0.05-7.466-0.859-10.992-2.23c-8.746-3.403-17.168-7.456-24.987-12.691c-0.34-0.228-0.711-0.409-1.14-0.653
		c0.237,1.007,0.412,1.947,0.682,2.859c1.026,3.468,0.888,6.945,0.256,10.46c-0.868,4.828-1.655,9.671-2.473,14.508
		c-0.264,1.564-0.584,3.119-0.786,4.694c-0.546,4.246,0.177,8.285,1.937,12.162c0.849,1.87,1.935,3.598,3.113,5.273
		c0.423,0.602,0.414,0.603-0.193,1.059c-2.613,1.964-5.248,3.898-7.797,5.949c-6.387,5.139-10.805,11.656-13.7,19.274
		c-1.144,3.009-2.02,6.089-2.667,9.238c-0.022,0.107-0.058,0.213-0.063,0.321c-0.024,0.477,0.126,0.58,0.558,0.378
		c3.122-1.463,6.243-2.928,9.365-4.392c0.13-0.061,0.265-0.114,0.444-0.191c-0.024,0.499-0.188,0.917-0.381,1.316
		c-1.036,2.154-2.047,4.319-2.851,6.573c-1.719,4.816-2.718,9.765-2.68,14.896c0.016,2.173-0.109,4.35,0.138,6.517
		c0.173,1.521,0.285,3.053,0.752,4.526c0.054,0.17,0.117,0.337,0.217,0.622c0.797-1.477,1.405-2.95,2.366-4.234
		c-0.219,1.701-0.11,3.383,0.008,5.065c-0.436,0.285-0.585,0.756-0.671,1.211c-0.184,0.967-0.769,1.445-1.699,1.583
		c-0.036,0.005-0.072,0.011-0.108,0.019c-1.12,0.273-1.124,0.274-1.487-0.846c-0.791-2.44-1.215-4.951-1.47-7.497
		c-0.218-2.182-0.325-4.37-0.292-6.56c0.081-5.365,1-10.59,2.727-15.671c0.152-0.449,0.358-0.879,0.506-1.329
		c0.066-0.201,0.136-0.48-0.037-0.624c-0.185-0.155-0.421,0.016-0.606,0.12c-1.178,0.662-2.348,1.337-3.524,2.001
		c-1.653,0.933-3.314,1.854-4.963,2.796c-0.359,0.205-0.466,0.182-0.511-0.268c-0.138-1.391,0.224-2.716,0.474-4.055
		c1.152-6.191,3.114-12.11,6.012-17.708c2.14-4.133,4.791-7.9,8.187-11.103c2.475-2.334,5.226-4.334,7.94-6.374
		c0.876-0.658,1.779-1.279,2.663-1.926c0.594-0.435,0.642-0.661,0.297-1.276c-1.198-2.134-2.4-4.263-3.146-6.614
		c-0.863-2.72-1.311-5.504-1.202-8.353c0.101-2.665,0.597-5.285,1.1-7.9c0.75-3.901,1.419-7.816,2.039-11.74
		c0.29-1.835,0.699-3.651,0.796-5.516c0.106-2.043-0.163-4.033-0.663-6.006c-0.6-2.369-1.738-4.526-2.64-6.776
		c-0.224-0.559-0.464-1.111-0.68-1.673c-0.057-0.148-0.26-0.311-0.043-0.482c0.204-0.16,0.368-0.026,0.54,0.09
		c2.353,1.573,4.707,3.144,7.062,4.713c6.498,4.329,13.431,7.827,20.646,10.782c2.429,0.995,4.84,2.05,7.398,2.695
		c1.437,0.362,2.893,0.574,4.376,0.628c0.447,0.016,0.671-0.119,0.791-0.535c1.197-4.163,3.004-8.106,4.406-12.195
		c0.994-2.899,1.95-5.807,2.774-8.761c0.469-1.681,0.32-3.318-0.079-4.969c-0.107-0.442-0.194-0.89-0.273-1.338
		c-0.072-0.405,0.135-0.482,0.475-0.366c0.069,0.024,0.136,0.054,0.201,0.087c4.05,2.071,8.085,4.168,11.684,6.992
		c5.851,4.591,10.676,10.029,14.051,16.719c2.731,5.413,5.398,10.852,7.662,16.48c0.265,0.658,0.471,1.343,0.666,2.026
		c0.349,1.223,0.985,2.272,1.849,3.19c4.747,5.044,8.679,10.67,11.982,16.748c1.638,3.013,2.944,6.151,3.74,9.495
		c0.214,0.898,0.758,1.616,1.398,2.254c6.301,6.284,12.603,12.566,18.916,18.838c0.607,0.603,1.273,1.153,1.946,1.683
		c0.655,0.516,0.91,1.181,0.983,1.984c0.162,1.779-0.397,3.345-1.331,4.814c-1.747,2.746-3.883,5.072-6.931,6.409
		c-1.569,0.688-3.203,1.098-4.924,1.144c-3.134,0.084-6.222-0.341-9.305-0.833c-2.339-0.373-4.677-0.749-7.016-1.122
		C146.51,111.978,146.453,112.004,146.399,112.013z"/>
	<path style="fill:#0D2245;" d="M29.499,163.482c0.003-0.43,0.293-0.621,0.627-0.808c3.117-1.738,6.227-3.486,9.342-5.226
		c0.215-0.12,0.304-0.265,0.299-0.519c-0.02-0.911-0.015-1.823-0.019-2.735c-0.168-0.244-0.162-0.519-0.127-0.792
		c0.135-1.073,0.12-2.144-0.012-3.217c-0.073-0.587-0.118-0.644-0.697-0.667c-1.405-0.055-2.805,0.076-4.204,0.157
		c-0.999,0.058-2.003,0.091-3.001,0.133c-2.019,0.086-4.04,0.172-6.058,0.276c-1.709,0.088-3.427,0.003-5.129,0.246
		c-0.238,0.034-0.475,0.053-0.666-0.142c0.122-0.267,0.342-0.413,0.607-0.516c5.964-2.313,11.955-4.561,17.881-6.971
		c3.089-1.256,6.286-1.971,9.533-2.573c1.38-0.256,2.751-0.567,4.133-0.809c1.021-0.179,2.047-0.117,3.018,0.274
		c0.418,0.169,0.607,0.033,0.629-0.353c0.032-0.572,0.308-0.783,0.867-0.892c2.56-0.496,5.11-1.044,7.663-1.575
		c0.604-0.126,0.724-0.038,0.793,0.599c0.114,1.053,0.187,1.134,1.114,0.519c1.921-1.274,3.958-2.264,6.204-2.786
		c1.723-0.4,3.458-0.748,5.19-1.104c7.235-1.485,14.473-2.96,21.708-4.448c3.126-0.643,6.248-1.305,9.37-1.964
		c0.237-0.05,0.486-0.117,0.702-0.025c0.578,0.246,1.077,0.06,1.609-0.167c2.034-0.865,4.197-1.213,6.366-1.522
		c0.934-0.133,1.864-0.387,2.821-0.121c0.513,0.143,1.016,0.317,1.465,0.593c0.376,0.231,0.471,0.038,0.554-0.262
		c0.01-0.035,0.013-0.072,0.018-0.108c0.178-1.185,0.178-1.182,1.331-1.419c3.429-0.706,6.859-1.413,10.287-2.124
		c1.129-0.234,2.252-0.216,3.363,0.079c0.298,0.079,0.438,0.081,0.553-0.256c0.242-0.706,0.884-0.857,1.524-0.985
		c2.165-0.43,4.326-0.875,6.494-1.288c1.791-0.341,3.552-0.853,5.383-0.96c1.057-0.062,2.117-0.077,3.175-0.127
		c4.909-0.235,9.822-0.368,14.735-0.484c0.236-0.006,0.471-0.045,0.707-0.068c0.3-0.029,0.587-0.019,0.771,0.277
		c-0.281,0.337-0.671,0.467-1.077,0.567c-1.7,0.717-3.389,1.461-5.059,2.242c-2.251,1.053-4.57,1.948-6.81,3.026
		c-0.525,0.253-0.733,0.561-0.691,1.137c0.068,0.927-0.074,1.864,0.101,2.788c0.046,0.244-0.1,0.463-0.076,0.703
		c-0.123,1.399-0.084,2.799-0.023,4.2c0.014,0.328,0.14,0.453,0.483,0.504c1.815,0.269,3.626,0.569,5.437,0.868
		c0.429,0.071,0.861,0.156,1.212,0.447c-0.019,0.199-0.154,0.335-0.263,0.486c-0.638,0.36-1.347,0.554-2.004,0.873
		c-1.904,0.925-3.747,1.966-5.653,2.887c-0.181,0.087-0.365,0.172-0.462,0.368c-0.122,0.909-0.025,1.82-0.05,2.728
		c-0.008,0.293-0.006,0.583-0.128,0.857c-0.058,1.161,0.005,2.324-0.108,3.485c-0.174,1.781-0.866,3.357-1.808,4.845
		c-0.146,0.191-0.272,0.395-0.404,0.597c-0.131,0.208-0.353,0.332-0.491,0.535c-1.685,1.547-3.702,2.304-5.928,2.745
		c-7.42,1.472-14.828,3-22.238,4.518c-9.003,1.844-17.997,3.734-26.992,5.615c-6.921,1.447-13.848,2.868-20.774,4.289
		c-6.193,1.27-12.392,2.509-18.58,3.801c-0.912,0.19-1.807,0.455-2.73,0.596c-0.503,0.077-0.912,0.027-1.113-0.519
		c-0.095-0.259-0.279-0.251-0.486-0.138c-0.048,0.026-0.097,0.053-0.139,0.088c-1.297,1.082-2.864,1.486-4.471,1.808
		c-3.242,0.65-6.468,1.381-9.702,2.071c-0.212,0.045-0.424,0.132-0.64,0.016c-0.499-0.178-0.509-0.587-0.512-1.025
		c-0.013-2.437-0.038-4.874-0.06-7.31c-0.109-1.546-0.152-3.093-0.118-4.642c0.009-0.424-0.181-0.549-0.58-0.601
		c-0.998-0.13-2.004-0.112-3.004-0.176c-1.473-0.094-2.95-0.152-4.424-0.245C29.858,163.642,29.652,163.648,29.499,163.482z"/>
	<path style="fill:#3BC1EE;" d="M38.755,177.655c1.664-0.372,3.327-0.751,4.993-1.115c2.18-0.477,4.359-0.957,6.545-1.407
		c1.226-0.252,2.285-0.816,3.27-1.562c0.52-0.393,0.614-0.353,0.793,0.264c0.125,0.433,0.43,0.433,0.78,0.359
		c1.384-0.293,2.768-0.592,4.154-0.877c4.39-0.902,8.782-1.8,13.173-2.697c4.374-0.893,8.749-1.776,13.122-2.677
		c5.047-1.04,10.092-2.091,15.136-3.143c4.618-0.963,9.234-1.941,13.853-2.898c4.726-0.979,9.456-1.944,14.184-2.912
		c4.356-0.891,8.713-1.773,13.068-2.668c2.186-0.449,4.372-0.896,6.549-1.386c1.281-0.288,2.419-0.898,3.4-1.779
		c0.245-0.22,0.597-0.264,0.811-0.526c0.052-0.05,0.1-0.046,0.142,0.012c-1.841,3.699-5.119,5.391-8.924,6.225
		c-4.18,0.916-8.395,1.679-12.588,2.538c-5.14,1.053-10.278,2.113-15.407,3.215c-5.967,1.281-11.942,2.52-17.932,3.686
		c-4.989,0.971-9.954,2.057-14.93,3.094c-5.314,1.108-10.634,2.185-15.952,3.274c-5.711,1.17-11.429,2.299-17.124,3.546
		c-2.491,0.545-4.989,1.059-7.502,1.496c-0.143,0.025-0.295,0.043-0.423,0.104c-0.852,0.41-1.504,0.154-2.045-0.569
		C39.508,178.727,39.074,178.233,38.755,177.655z"/>
	<path style="fill:#091F40;" d="M87.353,172.384c1.145-0.555,2.404-0.652,3.627-0.888c0.247-0.048,0.499-0.073,0.749-0.109
		c0.214,0.238,0.06,0.493,0.01,0.726c-0.284,1.327-0.835,2.565-1.305,3.83c-0.139,0.374-0.278,0.747-0.367,1.208
		c0.867-0.214,1.6-0.601,2.323-1.005c2.726-1.523,5.191-3.387,7.342-5.659c0.263-0.277,0.524-0.559,0.86-0.754
		c0.842-0.526,1.806-0.625,2.75-0.811c1.656-0.326,3.295-0.742,4.963-1.013c0.152,0.201,0.032,0.384-0.047,0.563
		c-0.215,0.487-0.498,0.935-0.817,1.359c-1.756,2.335-3.462,4.707-5.378,6.918c-2.99,3.45-6.307,6.54-10.03,9.188
		c-2.206,1.569-4.51,2.979-6.945,4.166c-0.674,0.329-1.368,0.613-2.084,0.833c-0.534,0.164-0.709,0.02-0.723-0.532
		c-0.007-0.296,0.054-0.583,0.139-0.862c0.883-2.922,1.095-5.921,0.938-8.945c-0.103-1.974-0.432-3.921-1.281-5.74
		c-0.116-0.249-0.252-0.485-0.397-0.719c-0.101-0.164-0.266-0.318-0.157-0.545c1.293-0.595,2.68-0.752,4.073-0.884
		c0.161,0.139,0.216,0.331,0.265,0.527c0.183,0.723,0.362,1.448,0.538,2.173c0.036,0.149,0.123,0.305,0.06,0.39
		c0.363-0.863,0.566-1.852,0.72-2.853C87.211,172.751,87.198,172.542,87.353,172.384z"/>
	<path style="fill:#34C1ED;" d="M81.524,173.594c1.788,2.821,2.019,5.984,2.022,9.199c0.003,2.385-0.408,4.707-1.041,6.995
		c-0.099,0.359-0.247,0.817-0.021,1.045c0.233,0.235,0.641-0.08,0.949-0.196c2.923-1.098,5.538-2.757,8.089-4.517
		c5.625-3.883,10.236-8.785,14.247-14.282c0.581-0.796,1.183-1.576,1.755-2.378c0.337-0.474,0.641-0.973,0.782-1.55
		c0.827-0.136,1.657-0.253,2.478-0.416c0.411-0.081,0.404,0.052,0.269,0.353c-0.548,1.224-1.291,2.332-2.069,3.413
		c-2.554,3.544-5.387,6.856-8.349,10.066c-3.598,3.899-7.88,6.876-12.478,9.44c-2.839,1.584-5.787,2.948-8.776,4.223
		c-0.133,0.057-0.272,0.101-0.49,0.182c0.292-1.165,0.569-2.272,0.847-3.378c0.57-2.26,1.247-4.5,1.523-6.822
		c0.323-2.722,0.274-5.42-0.654-8.049c-0.183-0.52-0.357-0.478-0.74-0.196c-1.999,1.471-4.014,2.92-6.025,4.375
		c-0.216,0.156-0.44,0.302-0.749,0.512c0-0.882,0-1.659,0-2.436c0-1.114,0.019-2.229-0.01-3.343
		c-0.011-0.405,0.124-0.592,0.508-0.686c0.494-0.121,0.967-0.343,1.495-0.223c0.234,0.369,0.082,0.779,0.122,1.169
		c0.015,0.144,0.008,0.29,0.022,0.435c0.033,0.361,0.165,0.424,0.488,0.225c1.209-0.745,2.344-1.59,3.442-2.488
		c0.186-0.152,0.37-0.29,0.608-0.34C80.279,173.424,80.921,173.614,81.524,173.594z"/>
	<path style="fill:#3BC1EE;" d="M19.854,150.188c0.723-0.055,1.446-0.131,2.17-0.16c2.312-0.092,4.626-0.15,6.937-0.252
		c2.711-0.119,5.421-0.276,8.132-0.404c0.728-0.034,1.458-0.023,2.187-0.029c0.321-0.003,0.47,0.119,0.5,0.483
		c0.12,1.458,0.106,2.912-0.032,4.367c-1.257,0.087-2.512,0.02-3.77-0.004c-4.03-0.076-8.057-0.361-12.091-0.239
		c-0.167,0.005-0.316-0.012-0.451-0.141c-1.046-0.991-2.103-1.97-3.144-2.966C20.104,150.664,19.881,150.485,19.854,150.188z"/>
	<path style="fill:#3EBDEA;" d="M156.811,129.086c-0.24-1.337-0.124-2.688-0.164-4.034c-0.009-0.307,0.162-0.399,0.379-0.516
		c1.473-0.794,3.043-1.372,4.566-2.053c2.419-1.082,4.838-2.163,7.259-3.242c0.164-0.073,0.318-0.184,0.512-0.163
		c0.196-0.065,0.392-0.133,0.527,0.105c0.087,0.359-0.091,0.64-0.285,0.907c-0.854,1.18-1.716,2.354-2.571,3.534
		c-0.235,0.324-0.574,0.509-0.913,0.678c-3.001,1.488-6.006,2.968-9.016,4.437C156.933,128.823,156.87,128.937,156.811,129.086z"/>
	<path style="fill:#A5DBE8;" d="M100.593,169.734c-1.505,1.831-3.31,3.332-5.228,4.7c-1.69,1.205-3.457,2.276-5.518,2.988
		c0.502-2.094,1.616-3.937,1.883-6.036c1.223-0.254,2.446-0.511,3.67-0.761c1.368-0.279,2.739-0.543,4.105-0.834
		C99.87,169.715,100.231,169.763,100.593,169.734z"/>
	<path style="fill:#3BC1EE;" d="M29.499,163.482c2.8,0.148,5.6,0.3,8.4,0.438c0.281,0.014,0.327,0.139,0.325,0.375
		c-0.017,1.676-0.028,3.352-0.04,5.026c-0.009-0.017-0.024-0.033-0.025-0.049c-0.066-1.177-0.06-1.212-1.237-1.435
		c-1.604-0.304-3.218-0.564-4.832-0.812c-0.813-0.125-1.374-0.46-1.697-1.282C30.097,164.989,29.576,164.325,29.499,163.482z"/>
	<path style="fill:#3BC1EE;" d="M155.446,139.5c2.652-1.298,5.179-2.85,7.948-3.908c0.084-0.032,0.173-0.052,0.259-0.077
		c0.079,0.073,0.072,0.155,0.024,0.241c-0.011,1.432-0.549,2.609-1.812,3.328c-2.073,1.18-4.021,2.548-6.001,3.869
		c-0.135,0.09-0.28,0.166-0.421,0.248C155.355,141.967,155.351,140.733,155.446,139.5z"/>
	<path style="fill:#0D2547;" d="M79.769,173.927c-1.283,1.139-2.686,2.113-4.121,3.049c-0.389,0.254-0.463,0.117-0.524-0.252
		c-0.101-0.6-0.007-1.2-0.037-1.799C76.586,174.306,78.158,174.024,79.769,173.927z"/>
	<path style="fill:#259BC3;" d="M87.353,172.384c-0.063,1.272-0.308,2.497-0.926,3.792c-0.301-1.257-0.566-2.362-0.831-3.466
		C86.19,172.642,86.723,172.249,87.353,172.384z"/>
	<path style="fill:#59BEE2;" d="M155.446,139.5c-0.001,1.234-0.002,2.467-0.003,3.701c-0.027,0.034-0.055,0.068-0.082,0.102
		c-0.009-1.194-0.019-2.388-0.027-3.582C155.334,139.63,155.341,139.539,155.446,139.5z"/>
	<path style="fill:#47B8E2;" d="M169.89,119.183c-0.16-0.113-0.344-0.106-0.527-0.105c0.396-0.052,0.658-0.416,1.059-0.454
		C170.526,119.078,170.075,119.004,169.89,119.183z"/>
	<path style="fill:#59C1E6;" d="M153.027,152.186c0.004-0.287,0.121-0.488,0.418-0.554c0.052,0.34-0.124,0.546-0.404,0.693
		C152.983,152.285,152.978,152.238,153.027,152.186z"/>
	<path style="fill:#51B6DB;" d="M163.677,135.755c-0.008-0.08-0.016-0.16-0.024-0.241c0.004-0.192,0.154-0.289,0.268-0.41
		C164.163,135.443,163.7,135.516,163.677,135.755z"/>
	<path style="fill:#51BBE1;" d="M153.027,152.186c0.005,0.046,0.01,0.093,0.015,0.139c-0.003,0.206-0.141,0.279-0.313,0.317
		c-0.047-0.004-0.095-0.008-0.142-0.012C152.714,152.463,152.819,152.274,153.027,152.186z"/>
	<path style="fill:#249BC3;" d="M87.068,88.792c-0.218-0.154-0.377,0.036-0.545,0.108c-2.736,1.181-5.127,2.902-7.403,4.791
		c-2.208,1.832-4.023,4.004-5.43,6.509c-0.168,0.299-0.303,0.617-0.453,0.926c-0.377,0.539-0.535,1.175-0.769,1.775
		c-0.856,2.195-1.612,4.423-2.144,6.722c-0.26,1.125-0.428,2.258-0.367,3.417c0.007,0.128,0,0.257,0.032,0.381
		c0.067,0.263,0.088,0.591,0.369,0.694c0.264,0.097,0.397-0.206,0.569-0.351c2.357-2.002,4.865-3.789,7.559-5.312
		c0.435-0.246,0.9-0.414,1.397-0.449c0.772-0.055,1.025,0.265,0.769,0.985c-0.482,1.359-0.909,2.736-1.302,4.123
		c-0.712,2.514-1.299,5.055-1.523,7.666c-0.011,0.127-0.038,0.253-0.068,0.377c-0.022,0.332-0.015,0.664-0.005,0.996
		c-0.026,0.7-0.206,1.396-0.039,2.099c-2.068,0.666-4.223,0.937-6.336,1.401c-2.737,0.601-5.484,1.153-8.234,1.694
		c-1.574,0.31-1.576,0.333-1.938-1.206c-0.615-2.614-0.944-5.262-1.072-7.946c-0.132-2.762,0.039-5.503,0.342-8.242
		c0.016-0.142,0.002-0.287,0.002-0.484c-1.272,0.391-2.449,0.915-3.616,1.458c-1.422,0.661-2.841,1.328-4.244,2.028
		c-0.405,0.202-0.551,0.061-0.676-0.287c-0.278-0.777,0.011-1.518,0.167-2.255c0.543-2.567,1.59-4.956,2.677-7.326
		c1.666-3.634,3.534-7.164,5.56-10.61c0.193-0.328,0.498-0.742,0.298-1.052c-0.19-0.295-0.65-0.02-0.972,0.043
		c-2.199,0.433-4.323,1.16-6.505,1.663c-0.332,0.077-0.66,0.198-1.087,0.178c0.357-0.779,0.613-1.555,1.298-2.075
		c1.127-0.394,1.968-1.234,2.925-1.89c4.169-2.858,8.741-4.66,13.752-5.336c0.668-0.09,1.336-0.196,2.016-0.163
		c0.438-0.013,0.879,0.051,1.309-0.085c0.984-0.068,1.967-0.072,2.951-0.001c0.508,0.151,1.029,0.064,1.544,0.082
		c0.189-0.01,0.376,0.007,0.562,0.042c0.259,0.089,0.527,0.078,0.794,0.069c1.343,0.022,2.646,0.279,3.929,0.661
		c0.648,0.193,1.301,0.376,1.977,0.429c0.605,0.047,0.724-0.123,0.427-0.65c-0.682-1.211-1.277-2.464-1.893-3.708
		c-1.949-3.933-3.416-8.027-4.075-12.385c-0.106-0.703-0.215-1.408-0.183-2.125c-0.023-0.595,0.066-1.194-0.064-1.785
		c-0.039-0.193-0.039-0.386-0.003-0.578c0.133-0.531,0.047-1.07,0.064-1.606c0.028-1.144,0.281-2.241,0.672-3.311
		c0.106-0.289,0.306-0.471,0.565-0.637c1.134-0.725,2.378-1.08,3.705-1.23c1.612-0.183,3.201-0.558,4.831-0.601
		c0.268,0.008,0.537,0.038,0.795-0.067c0.505-0.158,1.033-0.208,1.537-0.389c1.077-0.388,1.862-1.609,1.457-2.863
		c-0.349-1.08-0.872-2.042-1.557-2.932c-0.424-0.549-0.873-1.08-1.269-1.649c-0.313-0.45-0.243-0.631,0.28-0.786
		c1.093-0.325,2.227-0.402,3.351-0.504c1.253-0.113,2.514-0.097,3.771-0.14c2.173-0.074,4.299,0.242,6.416,0.636
		c4.508,0.84,8.964,1.905,13.374,3.164c1.065,0.304,1.836-0.037,2.343-1.034c0.159-0.347,0.045-0.722,0.105-1.079
		c0.034-0.167,0.11-0.306,0.265-0.392c0.416-0.137,0.846-0.042,1.268-0.081c1.408-0.054,2.749,0.367,4.12,0.579
		c0.308,0.117,0.622,0.11,0.938,0.044c0.09-0.007,0.173,0.019,0.251,0.062c1.299,0.685,2.448,1.585,3.56,2.53
		c1.474,1.252,2.99,2.456,4.348,3.839c2.301,2.344,4.147,5.034,5.929,7.777c1.502,2.312,2.891,4.688,4.198,7.113
		c0.286,0.53,0.56,1.063,0.657,1.667c-0.288,0.077-0.492-0.091-0.689-0.251c-0.269-0.219-0.519-0.464-0.712-0.755
		c-0.752-1.128-1.633-2.148-2.538-3.155c-1.564-1.739-3.355-3.203-5.338-4.421c-2.606-1.602-5.432-2.766-8.228-3.983
		c-1.137-0.495-2.276-0.989-3.583-1.254c0.69,0.812,1.295,1.601,1.829,2.442c0.285,0.449,0.531,0.917,0.744,1.402
		c0.221,0.502,0.052,0.723-0.497,0.689c-0.203-0.013-0.395-0.073-0.584-0.14c-2.44-0.86-4.944-1.458-7.522-1.666
		c-2.502-0.202-4.962,0.057-7.327,0.962c-0.085,0.033-0.168,0.072-0.246,0.119c-0.476,0.287-0.481,0.493-0.013,0.767
		c3.678,2.156,7.209,4.525,10.473,7.274c1.004,0.845,2.013,1.695,2.813,2.753c0.088,0.117,0.182,0.229,0.26,0.353
		c0.326,0.514,0.267,0.706-0.306,0.865c-1.288,0.358-2.604,0.578-3.935,0.673c-0.982,0.07-1.964,0.17-2.952,0.121
		c-1.439-0.071-2.879-0.123-4.31-0.296c-0.625-0.076-0.738,0.002-0.702,0.614c0.076,1.281,0.507,2.408,1.405,3.361
		c1.37,1.453,2.996,2.492,4.873,3.153c0.242,0.085,0.475,0.191,0.685,0.341c0.149,0.106,0.311,0.213,0.29,0.43
		c-0.021,0.224-0.21,0.286-0.38,0.346c-0.983,0.351-2,0.581-3.017,0.799c-2.485,0.531-5.001,0.836-7.536,1.025
		c-2.473,0.185-4.954,0.249-7.425,0.439c-4.362,0.337-8.605,1.199-12.57,3.151C87.857,88.281,87.492,88.583,87.068,88.792z"/>
	<path style="fill:#A5DBE8;" d="M87.068,88.792c0.081-0.208,0.227-0.336,0.426-0.449c2.473-1.397,5.148-2.23,7.908-2.807
		c2.121-0.444,4.261-0.735,6.436-0.796c1.857-0.052,3.713-0.172,5.565-0.318c3.789-0.299,7.563-0.707,11.213-1.85
		c0.183-0.057,0.482-0.046,0.506-0.237c0.033-0.266-0.269-0.365-0.476-0.452c-0.939-0.397-1.892-0.757-2.777-1.279
		c-1.13-0.667-2.124-1.494-2.956-2.497c-0.837-1.009-1.121-2.223-1.115-3.521c0.002-0.362,0.2-0.381,0.456-0.353
		c1.177,0.131,2.361,0.166,3.539,0.27c1.501,0.133,2.991,0.025,4.48-0.089c1.213-0.093,2.407-0.342,3.591-0.631
		c0.41-0.1,0.495-0.226,0.227-0.601c-0.849-1.187-1.928-2.146-3.032-3.071c-3.349-2.808-6.951-5.257-10.743-7.425
		c-0.432-0.247-0.376-0.463-0.061-0.718c0.557-0.449,1.253-0.585,1.914-0.764c2.662-0.723,5.349-0.726,8.06-0.271
		c1.961,0.329,3.871,0.83,5.746,1.477c0.086,0.03,0.17,0.071,0.258,0.084c0.18,0.027,0.391,0.085,0.524-0.059
		c0.158-0.171-0.021-0.343-0.095-0.496c-0.698-1.459-1.643-2.751-2.772-3.981c0.282-0.116,0.494,0.028,0.705,0.06
		c0.214,0.033,0.423,0.11,0.63,0.178c1.86,0.605,3.63,1.432,5.41,2.23c2.766,1.24,5.5,2.532,7.883,4.457
		c2.03,1.639,3.815,3.5,5.304,5.642c0.399,0.574,0.806,1.133,1.497,1.39c0.855,1.463,1.769,2.892,2.269,4.537
		c0.308,1.016,0.536,2.045,0.699,3.091c0.019,0.12,0.003,0.246,0.003,0.378c-0.484-0.017-0.806-0.289-1.136-0.549
		c-3.184-2.509-6.316-5.086-9.584-7.488c-2.642-1.942-5.518-3.411-8.722-4.19c-0.087-0.021-0.179-0.023-0.269-0.033
		c-0.188,0.095-0.362-0.149-0.584-0.008c0.146,0.218,0.384,0.299,0.581,0.431c1.158,0.727,2.319,1.45,3.474,2.182
		c0.981,0.623,1.829,1.394,2.498,2.347c0.841,1.199,0.631,2.167-0.617,2.944c-0.69,0.43-1.459,0.656-2.232,0.872
		c-1.836,0.512-3.441,1.393-4.663,2.893c-0.081,0.099-0.162,0.197-0.238,0.3c-0.03,0.041-0.047,0.093-0.116,0.233
		c3.073-0.139,6.071,0.008,9.044,0.613c2.971,0.604,5.737,1.831,8.657,2.878c-0.038-0.534-0.285-0.777-0.501-1.036
		c-0.221-0.266-0.47-0.508-0.635-0.82c-0.163-0.306-0.184-0.473,0.258-0.506c1.157-0.085,2.293,0.115,3.437,0.204
		c0.164,0.013,0.331,0.07,0.489,0.049c0.937-0.126,1.602,0.26,2.203,0.969c0.669,0.79,1.452,1.483,2.185,2.219
		c0.016,0.61,0.287,1.113,0.625,1.605c0.683,0.993,1.349,1.999,1.987,3.023c0.426,0.684,0.258,1.072-0.549,1.101
		c-1.241,0.045-2.488,0.075-3.726-0.005c-2.406-0.156-4.801-0.437-7.175-0.865c-3.667-0.661-7.213-1.701-10.584-3.318
		c-1.465-0.703-2.949-1.368-4.424-2.052c-0.216-0.1-0.438-0.19-0.684-0.172c-0.147,0.011-0.307,0.032-0.378,0.179
		c-0.081,0.168,0.06,0.275,0.162,0.37c0.652,0.614,1.346,1.18,2.028,1.759c1.574,1.336,3.201,2.609,4.769,3.951
		c0.17,0.145,0.471,0.276,0.375,0.54c-0.087,0.239-0.402,0.228-0.629,0.248c-0.982,0.084-1.969,0.093-2.952,0.128
		c-2.482,0.089-4.95,0.34-7.422,0.545c-3.14,0.26-6.222,0.867-9.291,1.546c-1.643,0.364-3.232,0.919-4.83,1.442
		c-0.234,0.077-0.47,0.234-0.731,0.069c-0.653-1.002-0.723-2.154-0.849-3.292c-0.017-0.155-0.018-0.311-0.032-0.565
		c-1.222,1.174-1.984,2.477-2.181,4.077c-0.058,0.469-0.068,0.944-0.1,1.417c-0.123,0.177-0.324,0.226-0.506,0.309
		c-2.023,0.923-3.897,2.072-5.493,3.641c-0.275,0.27-0.515,0.569-0.733,0.883c-0.088,0.127-0.267,0.251-0.164,0.427
		c0.083,0.141,0.267,0.082,0.407,0.082c1.004,0.004,2.009-0.03,3.012,0.009c1.948,0.075,3.853,0.377,5.598,1.318
		c1.656,0.893,2.918,2.167,3.695,3.902c1.052,2.35,0.318,5.467-1.866,7.031c-2.147,1.537-4.026,3.365-5.998,5.094
		c-0.21,0.184-0.453,0.303-0.691,0.437c-1.57,0.324-3.14,0.645-4.71,0.971c-3.66,0.759-7.305,1.592-10.985,2.253
		c-0.215,0.039-0.432,0.072-0.649,0.095c-0.896,0.097-0.922,0.094-0.899-0.83c0.038-1.487,0.43-2.92,0.74-4.363
		c1.124-5.237,2.765-10.312,4.815-15.258c0.591-1.426,0.581-1.43-0.926-1.425c-3.237,0.012-6.454,0.313-9.671,0.643
		c-1.147,0.118-1.083,0.305-0.883-0.896c0.514-3.095,2.018-5.678,4.148-7.929C84.664,91.294,85.869,90.046,87.068,88.792z"/>
	<path style="fill:#13789A;" d="M79.569,66.228c0.048,2.121,0.531,4.167,1.068,6.204c1.049,3.975,2.849,7.636,4.711,11.27
		c0.166,0.324,0.372,0.629,0.52,0.96c0.152,0.342,0.071,0.542-0.369,0.542c-1.039,0-1.997-0.365-2.98-0.617
		c-1.075-0.276-2.159-0.484-3.274-0.488c-0.242-0.142-0.527,0.03-0.771-0.105c-0.182-0.001-0.364-0.003-0.546-0.004
		c-0.503-0.154-1.03,0.038-1.534-0.104c-1.025-0.001-2.051-0.001-3.076-0.002c-0.429,0.142-0.886-0.047-1.314,0.106
		c-2.151,0.056-4.239,0.495-6.302,1.068c-4.048,1.124-7.682,3.06-10.992,5.631c-0.384,0.298-0.787,0.606-1.329,0.54
		c0.407-1.181,1.143-2.155,1.992-3.037c3.171-3.295,7.022-5.391,11.443-6.51c2.274-0.575,4.578-0.787,6.91-0.885
		c1.35-0.057,2.698-0.106,4.048-0.086c0.452,0.007,0.903,0.07,1.433,0.115c-0.37-0.62-0.819-1.086-1.244-1.569
		c-2.896-3.297-5.61-6.724-7.567-10.682c-0.972-1.965-1.758-4.007-2.091-6.186c-0.381-2.492-0.03-4.864,1.339-7.033
		c0.115-0.182,0.214-0.375,0.327-0.574c-1.931-0.215-3.622,1.164-5.565,4.552c-0.138-0.84-0.304-1.596-0.38-2.362
		c-0.142-1.43-0.316-2.865-0.326-4.299c-0.021-3.086,0.445-6.126,1.121-9.13c0.532-2.364,1.189-4.694,2.229-6.895
		c0.255-0.54,0.493-1.095,0.894-1.553c1.103,0.642,2.174,1.338,3.27,1.992c3.289,1.962,6.708,3.633,10.416,4.654
		c1.904,0.524,3.848,0.849,5.808,1.069c0.506,0.057,1.019-0.065,1.519-0.165c1.276-0.254,2.573-0.271,3.863-0.355
		c1.255-0.081,2.506-0.207,3.757-0.335c0.304,0.003,0.609,0.027,0.905-0.074c1.073-0.104,2.146-0.224,3.227-0.187
		c1.167,0.031,2.303,0.282,3.445,0.483c3.779,0.667,7.475,1.69,11.199,2.595c0.321,0.078,0.63,0.082,1.06,0.058
		c-3.111-2.437-6.642-3.843-10.141-5.34c0.542-0.163,1.08-0.171,1.611-0.061c4.079,0.842,7.817,2.536,11.439,4.54
		c2.175,1.203,4.217,2.606,6.266,4.003c0.408,0.278,0.806,0.568,1.042,1.021c-0.083,0.01-0.165,0.019-0.248,0.029
		c-0.29,0.075-0.579,0.077-0.868-0.001c-0.976-0.161-1.956-0.302-2.926-0.493c-0.418-0.082-0.83-0.031-1.243-0.063
		c-0.438-0.087-0.877-0.094-1.315,0.004c-0.037,0.11-0.075,0.219-0.112,0.329c-0.15,0.353,0.032,0.737-0.104,1.091
		c-0.328,0.934-1.298,1.476-2.232,1.217c-3.099-0.857-6.21-1.664-9.352-2.348c-2.303-0.501-4.615-0.94-6.946-1.301
		c-2.003-0.311-4.006-0.221-6.003-0.162c-1.606,0.047-3.224,0.171-4.804,0.573c-0.565,0.144-0.416,0.325-0.189,0.622
		c0.585,0.766,1.175,1.528,1.751,2.301c0.621,0.832,0.981,1.781,1.203,2.787c0.163,0.739-0.397,1.844-1.13,2.269
		c-0.66,0.383-1.389,0.524-2.129,0.63c-0.243,0.133-0.527-0.037-0.77,0.104c-1.363,0.016-2.692,0.309-4.034,0.489
		c-0.626,0.084-1.248,0.205-1.875,0.275c-0.781,0.087-1.43,0.5-2.134,0.782c-0.731,0.293-1.015,0.843-1.183,1.541
		c-0.2,0.828-0.416,1.65-0.416,2.509c-0.158,0.538,0.04,1.099-0.105,1.638c0,0.186,0,0.371,0,0.557
		C79.607,64.983,79.414,65.615,79.569,66.228z"/>
	<path style="fill:#FAFBFB;" d="M108.393,94.521c1.603-0.484,3.177-1.059,4.802-1.477c2.06-0.531,4.151-0.909,6.246-1.258
		c2.565-0.427,5.158-0.602,7.75-0.797c2.016-0.152,4.031-0.28,6.053-0.315c0.318-0.006,0.636-0.078,1.064-0.134
		c-1.385-1.134-2.696-2.193-3.991-3.274c-1.189-0.992-2.387-1.974-3.526-3.025c-0.299-0.276-0.253-0.394,0.088-0.569
		c0.444-0.228,0.815-0.051,1.196,0.124c1.889,0.868,3.767,1.76,5.666,2.607c2.789,1.245,5.711,2.074,8.709,2.626
		c2.358,0.435,4.733,0.74,7.13,0.91c1.444,0.102,2.882,0.033,4.321,0.081c0.271,0.009,0.534-0.061,0.668-0.297
		c0.119-0.21-0.119-0.358-0.219-0.513c-0.773-1.194-1.562-2.378-2.338-3.57c-0.241-0.371-0.452-0.758-0.19-1.214
		c1.282,1.248,2.564,2.496,3.846,3.743c2.986,2.905,5.973,5.808,8.955,8.717c0.403,0.393,0.776,0.817,1.217,1.283
		c-0.591,0.277-1.114,0.554-1.662,0.769c-0.354,0.139-0.44,0.358-0.436,0.706c0.008,0.694,0.231,1.324,0.511,1.942
		c0.278,0.614,0.6,1.212,0.826,1.845c0.642,1.798-0.611,3.633-2.521,3.731c-0.366,0.019-0.735,0.008-1.088-0.092
		c-3.033-0.857-6.132-1.467-9.125-2.472c-1.415-0.475-2.787-1.083-4.25-1.411c-3.687-0.825-7.05,0.019-10.19,1.99
		c-0.62,0.389-0.745,0.347-0.854-0.373c-0.1-0.658,0.098-1.266,0.367-1.852c0.225-0.492,0.466-0.977,0.707-1.48
		c-2.533-0.301-4.972-0.041-7.386,0.514c-5.632,1.296-11.013,0.562-16.189-1.942c-1.314-0.636-2.647-1.233-3.778-2.181
		C109.687,96.957,108.83,95.887,108.393,94.521z"/>
	<path style="fill:#F9F9FA;" d="M102.491,119.292c1.134-1.023,2.305-2.008,3.39-3.08c1.122-1.108,2.528-1.855,3.647-2.941
		c2.457-2.384,2.435-6.038,0.08-8.522c-1.836-1.937-4.123-2.756-6.708-3.009c-1.495-0.146-2.987-0.065-4.479-0.088
		c-0.43-0.007-0.472-0.121-0.251-0.46c0.668-1.024,1.569-1.815,2.537-2.535c1.394-1.037,2.868-1.934,4.524-2.498
		c0.161,0.728,0.287,1.462,0.633,2.139c0.503,0.986,1.238,1.75,2.141,2.371c2.06,1.417,4.092,2.874,6.097,4.367
		c1.609,1.198,3.032,2.572,4.175,4.23c1.254,1.82,1.836,3.827,1.761,6.036c-0.012,0.345-0.122,0.449-0.457,0.517
		c-5.626,1.146-11.248,2.31-16.872,3.468C102.639,119.302,102.564,119.291,102.491,119.292z"/>
	<path style="fill:#13789A;" d="M120.116,38.275c-1.182-0.596-2.151-1.488-3.186-2.288c-1.312-1.014-2.604-2.06-4.145-2.722
		c-0.232-0.1-0.479-0.184-0.728-0.226c-0.429-0.072-0.895-0.199-0.963,0.494c-0.027,0.278-0.245,0.313-0.495,0.224
		c-0.498-0.176-0.997-0.35-1.501-0.504c-1.467-0.446-2.928-0.58-4.45,0.207c0.128-0.671,0.368-1.198,0.673-1.68
		c1.505-2.376,2.709-4.921,4.123-7.348c0.198-0.341,0.329-0.721,0.491-1.083c1.468,0.857,2.532,2.138,3.55,3.451
		c2.512,3.241,4.717,6.68,6.526,10.366C120.18,37.515,120.444,37.872,120.116,38.275z"/>
	<path style="fill:#39B7E7;" d="M77.607,121.061c0.19-0.941,0.244-1.9,0.408-2.846c0.337-1.954,0.813-3.871,1.372-5.768
		c0.344-1.168,0.75-2.317,1.116-3.479c0.067-0.214,0.296-0.49,0.09-0.655c-0.225-0.18-0.547-0.227-0.878-0.165
		c-0.89,0.166-1.595,0.699-2.342,1.141c-2.418,1.431-4.669,3.093-6.747,4.985c-0.244,0.222-0.353,0.146-0.495-0.078
		c-0.21-0.332-0.305-0.686-0.327-1.08c-0.101-1.869,0.373-3.643,0.867-5.413c0.574-2.054,1.325-4.047,2.141-6.016
		c0.148-0.358,0.204-0.435,0.427-0.56c-0.622,1.828-1.271,3.648-1.715,5.532c-0.37,1.572-0.365,3.146-0.047,4.723
		c0.014,0.068,0.057,0.13,0.114,0.254c3.602-3.266,7.89-5.148,12.572-6.526c-0.175,0.406-0.307,0.728-0.451,1.045
		c-1.261,2.774-2.47,5.566-3.209,8.536c-0.525,2.111-0.783,4.265-1.049,6.418c-0.101,0.814-0.237,1.626-0.29,2.444
		c-0.033,0.516-0.314,0.648-0.736,0.677c-0.237,0.016-0.475,0.014-0.712,0.021c-0.482-0.389-0.179-0.902-0.184-1.353
		c-0.002-0.24,0.054-0.5,0.069-0.753C77.689,121.782,77.678,121.422,77.607,121.061z"/>
	<path style="fill:#39B7E7;" d="M100.708,41.692c-1.081,0.173-2.168,0.288-3.264,0.305c-0.28,0.137-0.596-0.034-0.877,0.101
		c-1.967,0.234-3.942,0.364-5.921,0.464c-0.722,0.036-1.441,0.184-2.155,0.317c-1.179,0.219-2.315-0.078-3.459-0.256
		c-3.886-0.603-7.517-1.954-10.984-3.778c-1.968-1.036-3.87-2.185-5.747-3.376c-0.143-0.091-0.35-0.147-0.357-0.377
		c0.267-0.172,0.276-0.668,0.6-0.662c0.274,0.005,0.543,0.27,0.813,0.422c4.836,2.726,9.978,4.628,15.428,5.682
		c1.776,0.344,3.577,0.49,5.382,0.576c1.769,0.085,3.54,0.104,5.311,0.13C97.23,41.268,98.977,41.401,100.708,41.692z"/>
	<path style="fill:#D6D8D9;" d="M129.81,113.673c-0.067-2.181,1.551-4.113,3.742-4.216c3.194-0.151,6.289,0.472,9.289,1.567
		c-4.276,0.945-8.557,1.863-12.868,2.64C129.92,113.673,129.865,113.67,129.81,113.673z"/>
	<path style="fill:#33C1EE;" d="M47.351,130.471c-0.971,0.252-1.959,0.405-3.073,0.584c2.042-3.119,4.436-5.739,7.492-7.848
		c0.292,1.199,0.552,2.345,0.853,3.479c0.191,0.722,0.421,1.435,0.674,2.137c0.12,0.331,0.061,0.444-0.284,0.499
		c-0.611,0.099-1.215,0.241-1.822,0.365c-0.26-0.292-0.206-0.681-0.312-1.02c-0.45-1.435-0.57-1.276-1.491-0.433
		c-0.66,0.604-1.134,1.366-1.721,2.033C47.58,130.366,47.451,130.395,47.351,130.471z"/>
	<path style="fill:#39B7E7;" d="M120.116,38.275c0.059-0.337-0.018-0.639-0.171-0.947c-2.083-4.201-4.612-8.112-7.612-11.713
		c-0.605-0.726-1.284-1.399-2.095-1.915c-0.132-0.084-0.31-0.14-0.305-0.349c0.278-0.765,0.262-0.724,1.025-0.419
		c1.749,0.7,2.836,2.136,3.955,3.521c3.17,3.923,5.303,8.402,6.944,13.137c0.005,0.013-0.008,0.032-0.038,0.133
		C121.215,39.252,120.474,39.007,120.116,38.275z"/>
	<path style="fill:#F3D406;" d="M74.417,131.646c0-1.466,0.005-2.941-0.005-4.417c-0.001-0.231,0.132-0.263,0.298-0.298
		c0.935-0.196,1.868-0.406,2.806-0.585c0.483-0.092,0.793,0.149,0.802,0.649c0.022,1.204,0.001,2.409,0.012,3.613
		c0.004,0.446-0.361,0.343-0.584,0.393c-0.315,0.071-0.218-0.215-0.22-0.367c-0.008-1.004,0.003-2.007-0.012-3.011
		c-0.002-0.157,0.146-0.455-0.218-0.433c-0.278,0.017-0.524,0.059-0.514,0.465c0.026,1.04-0.022,2.081,0.021,3.12
		c0.022,0.549-0.347,0.52-0.667,0.555c-0.285,0.031-0.166-0.229-0.167-0.358c-0.011-0.985,0.005-1.971-0.016-2.956
		c-0.004-0.175,0.196-0.522-0.25-0.501c-0.351,0.017-0.551,0.119-0.532,0.555c0.041,0.929-0.023,1.863,0.025,2.791
		C75.227,131.44,75.064,131.721,74.417,131.646z"/>
	<path style="fill:#F4D506;" d="M143.053,77.767c-0.836,1.283-2.803,1.725-4.056,0.955c-1.448-0.89-1.881-2.458-1.079-3.862
		c0.157-0.276,0.298-0.398,0.635-0.233c0.781,0.383,1.41,0.968,2.064,1.514c0.278,0.232,0.247,0.626,0.24,0.977
		c-0.007,0.362-0.117,0.72-0.015,1.086c0.139,0.505,0.289,0.571,0.705,0.271c0.177-0.128,0.333-0.284,0.51-0.412
		C142.34,77.858,142.64,77.687,143.053,77.767z"/>
	<path style="fill:#F3D406;" d="M61.478,131.977c0-0.676,0.012-1.352-0.006-2.028c-0.007-0.254,0.077-0.355,0.32-0.396
		c0.413-0.07,0.819-0.185,1.233-0.25c0.513-0.081,0.815,0.165,0.823,0.689c0.016,1.005,0.017,2.01-0.001,3.015
		c-0.009,0.512-0.284,0.86-0.79,0.986c-0.424,0.106-0.858,0.173-1.281,0.285c-0.274,0.072-0.304-0.049-0.302-0.271
		C61.483,133.329,61.478,132.653,61.478,131.977z"/>
	<path style="fill:#F3D506;" d="M127.813,118.249c0-0.491,0.001-0.983,0-1.474c-0.001-0.55,0.272-0.892,0.8-1.019
		c1.112-0.267,1.618-0.426,1.543,1.154c-0.036,0.763,0.001,1.529-0.009,2.293c-0.008,0.649-0.264,0.962-0.889,1.121
		c-0.193,0.049-0.389,0.088-0.585,0.126c-0.547,0.107-0.844-0.119-0.857-0.672C127.803,119.268,127.813,118.758,127.813,118.249z"/>
	<path style="fill:#F3D506;" d="M91.335,125.783c0,0.491,0.006,0.983-0.002,1.474c-0.008,0.56-0.274,0.916-0.833,1.056
		c-1.151,0.29-1.576,0.343-1.508-1.129c0.037-0.799,0.008-1.601,0.006-2.402c-0.001-0.55,0.268-0.894,0.796-1.021
		c1.112-0.268,1.633-0.429,1.543,1.148C91.321,125.2,91.335,125.492,91.335,125.783z"/>
	<path style="fill:#F3D506;" d="M140.751,117.827c0-1.46,0.002-2.934-0.003-4.409c-0.001-0.177,0.061-0.256,0.238-0.289
		c0.462-0.086,0.917-0.217,1.382-0.277c0.438-0.057,0.708,0.18,0.713,0.627c0.013,1.204-0.006,2.408,0.012,3.612
		c0.006,0.44-0.328,0.377-0.563,0.418c-0.375,0.065-0.222-0.254-0.224-0.406c-0.014-0.985,0.001-1.97-0.015-2.955
		c-0.003-0.167,0.164-0.491-0.25-0.448c-0.298,0.031-0.549,0.063-0.533,0.498c0.035,0.947-0.022,1.898,0.023,2.845
		C141.557,117.612,141.409,117.91,140.751,117.827z"/>
	<path style="fill:#F3D506;" d="M101.937,123.589c0-0.639,0.017-1.278-0.008-1.915c-0.011-0.295,0.084-0.423,0.37-0.468
		c0.392-0.062,0.776-0.171,1.168-0.235c0.493-0.08,0.791,0.147,0.798,0.645c0.017,1.204,0.001,2.408,0.009,3.612
		c0.003,0.439-0.352,0.355-0.582,0.396c-0.335,0.06-0.2-0.236-0.201-0.375c-0.013-1.003,0-2.007-0.013-3.01
		c-0.002-0.157,0.143-0.453-0.219-0.423c-0.277,0.023-0.577,0.006-0.564,0.464c0.03,1.057,0.01,2.116,0.009,3.174
		c0,0.193,0.038,0.368-0.257,0.446c-0.401,0.106-0.549,0.066-0.52-0.395C101.966,124.868,101.937,124.228,101.937,123.589z"/>
	<path style="fill:#F3D406;" d="M49.088,134.578c0-0.456-0.003-0.911,0.001-1.367c0.005-0.687,0.252-0.996,0.916-1.151
		c0.142-0.033,0.286-0.077,0.429-0.076c0.173,0.002,0.448-0.285,0.499,0.128c0.035,0.285,0.07,0.613-0.368,0.629
		c-0.51,0.018-0.769,0.18-0.732,0.781c0.03,0.488,0.162,0.522,0.572,0.408c0.503-0.141,0.674,0.056,0.529,0.542
		c-0.082,0.275-0.341,0.226-0.535,0.27c-0.461,0.105-0.766,0.721-0.528,1.136c0.127,0.221,0.321,0.019,0.482,0.033
		c0.196,0.016,0.48-0.274,0.574,0.105c0.086,0.345,0.03,0.654-0.447,0.668c-0.179,0.005-0.356,0.07-0.534,0.104
		c-0.547,0.104-0.844-0.125-0.856-0.679C49.08,135.599,49.089,135.088,49.088,134.578z"/>
	<path style="fill:#D6D8D9;" d="M47.544,130.257c0.731-0.979,1.455-1.962,2.445-2.712c0.283-0.214,0.44-0.214,0.63,0.112
		c0.369,0.633,0.474,1.329,0.571,2.032c-1.139,0.232-2.278,0.464-3.417,0.695C47.645,130.436,47.534,130.455,47.544,130.257z"/>
	<path style="fill:#F2D407;" d="M115.655,119.191c-0.158,0.027-0.264,0.058-0.371,0.061c-0.139,0.004-0.371,0.17-0.379-0.111
		c-0.006-0.214-0.195-0.541,0.202-0.631c0.621-0.141,1.246-0.268,1.869-0.4c0.177-0.038,0.297,0.011,0.271,0.215
		c-0.026,0.209,0.133,0.541-0.241,0.557c-0.576,0.025-0.58,0.373-0.569,0.808c0.022,0.911-0.015,1.824,0.016,2.734
		c0.014,0.417-0.11,0.609-0.534,0.609c-0.488,0.001-0.249-0.363-0.253-0.546C115.643,121.396,115.655,120.305,115.655,119.191z"/>
	<path style="fill:#306286;" d="M128.579,68.086c-0.121-0.025-0.247-0.035-0.361-0.078c-0.215-0.081-0.538-0.233-0.448-0.428
		c0.128-0.275,0.449-0.204,0.691-0.022c0.043,0.032,0.081,0.07,0.121,0.105C128.574,67.804,128.449,67.944,128.579,68.086z"/>
	<path style="fill:#97C9DA;" d="M47.544,130.257c0.046,0.097,0.143,0.103,0.23,0.127c-0.125,0.105-0.272,0.106-0.423,0.087
		C47.415,130.4,47.48,130.328,47.544,130.257z"/>
	<path style="fill:#4BA7DA;" d="M107.361,135.436c0.096-1.497,0.482-2.894,1.365-4.136c1.148-1.614,2.766-2.42,4.658-2.775
		c1.442-0.271,2.862-0.656,4.327-0.814c2.629-0.284,4.543,1.199,4.949,3.727c0.026,0.161,0.046,0.324,0.068,0.485
		c-0.036,3.204-0.006,6.409-0.015,9.613c0,0.09-0.014,0.184,0.088,0.235c0.839,0.27,1.162,0.041,1.162-0.825
		c0-4.601,0.009-9.202-0.012-13.803c-0.002-0.49,0.165-0.693,0.61-0.845c1.278-0.439,2.621-0.56,3.93-0.846
		c1.982-0.434,3.972-0.854,5.977-1.156c1.557-0.234,2.92,0.257,3.862,1.615c0.496,0.714,0.784,1.511,0.897,2.373
		c0.182,0.296,0.169,0.627,0.167,0.955c-0.012,2.333,0.028,4.666-0.022,6.997c0.028,0.627-0.312,1.141-0.512,1.701
		c-0.065,0.182-0.349,0.463,0.043,0.572c0.298,0.083,0.454-0.161,0.493-0.447c0.091-0.663,0.245-1.32,0.216-1.998
		c0.037-0.802,0.105-1.6,0.099-2.405c-0.01-1.533-0.089-3.061-0.249-4.585c-0.025-0.234-0.088-0.472,0.068-0.688
		c0.005-1.534,0.016-3.068,0.011-4.602c-0.001-0.306,0.047-0.478,0.401-0.577c2.605-0.731,5.245-1.284,7.913-1.726
		c2.134-0.353,4.28-0.607,6.428-0.84c1.501-0.163,3.012-0.241,4.518-0.359c1.741-0.136,3.483-0.273,5.259-0.413
		c-0.099,0.255-0.328,0.24-0.49,0.299c-2.731,0.99-5.46,1.987-8.205,2.937c-0.515,0.178-0.688,0.337-0.598,0.927
		c0.436,2.846,0.2,5.718,0.231,8.58c0.009,0.823,0.08,1.64,0.105,2.461c0.009,0.299,0.129,0.347,0.392,0.366
		c1.245,0.089,2.488,0.204,3.784,0.466c-0.438,0.304-0.898,0.413-1.324,0.583c-1.35,0.538-2.707,1.059-4.069,1.565
		c-0.323,0.12-0.428,0.285-0.428,0.633c0.004,2.647-0.049,5.293,0,7.94c0.053,2.825-2.399,5.887-5.174,6.423
		c-2.92,0.563-5.817,1.238-8.733,1.818c-0.437,0.087-0.872,0.043-1.309,0.048c-0.252-0.252-0.187-0.578-0.188-0.88
		c-0.006-3.208-0.012-6.416,0.003-9.624c0.003-0.677-0.103-1.344-0.107-2.017c0.014-0.379,0.062-0.756,0.114-1.133
		c0.048-0.347-0.008-0.69-0.147-1.011c-0.131-0.305-0.371-0.312-0.633-0.185c-0.273,0.132-0.232,0.332-0.102,0.542
		c0.339,0.546,0.567,1.132,0.65,1.774c0.048,3.01,0.057,6.02-0.003,9.028c-0.021,1.036-0.07,2.075-0.084,3.114
		c-0.004,0.256-0.001,0.515-0.196,0.719c-1.349,0.28-2.698,0.563-4.048,0.839c-0.177,0.036-0.36,0.045-0.541,0.061
		c-0.809,0.073-0.839,0.073-0.854-0.779c-0.023-1.388-0.003-2.776-0.002-4.164c0.066-1.495,0.066-2.989,0-4.484
		c-0.073-0.853-0.153-1.705-0.214-2.559c-0.027-0.378-0.241-0.466-0.557-0.405c-0.926,0.178-1.85,0.368-2.775,0.551
		c-0.336,0.067-0.222,0.336-0.222,0.529c-0.008,1.754-0.005,3.508-0.005,5.262c0,2.119-0.011,4.239,0.01,6.358
		c0.004,0.425-0.147,0.599-0.541,0.728c-1.632,0.532-3.322,0.759-5.005,1.032c-0.328,0.053-0.355-0.127-0.353-0.381
		c0.007-1.078,0.003-2.156,0.003-3.234c0-3.618,0.005-7.235-0.012-10.853c-0.001-0.223,0.238-0.632-0.299-0.652
		c-0.491-0.018-0.968,0.317-0.996,0.722c-0.009,0.127-0.002,0.256-0.002,0.384c0,4.641-0.007,9.282,0.012,13.923
		c0.002,0.421-0.15,0.568-0.517,0.64c-1.476,0.292-2.957,0.57-4.422,0.912c-0.486,0.114-0.558-0.031-0.574-0.452
		c-0.107-2.736-0.081-5.473-0.089-8.209c-0.003-1.133-0.015-2.266,0.008-3.398c0.008-0.379-0.132-0.471-0.479-0.443
		c-1.111,0.089-2.18,0.374-3.254,0.643c-0.355,0.089-0.31,0.348-0.31,0.602c0,2.467,0,4.933,0,7.4c0,1.407-0.021,2.814,0.012,4.22
		c0.01,0.431-0.121,0.605-0.533,0.688c-1.529,0.308-3.054,0.635-4.575,0.976c-0.41,0.092-0.4-0.132-0.426-0.413
		c-0.173-1.895-0.078-3.796-0.1-5.693c-0.037-3.215-0.018-6.431-0.022-9.647c-0.01-0.378,0.297-0.503,0.555-0.59
		c0.721-0.242,0.992-0.682,0.861-1.444c-0.083-0.48,0.02-0.986-0.04-1.476c-0.064-0.529-0.248-0.687-0.768-0.593
		c-0.831,0.15-1.606,0.492-2.378,0.817c-0.404,0.17-0.507,0.606-0.605,0.997c-0.24,0.958-0.546,1.896-0.82,2.843
		c-0.135,0.464-0.38,0.764-0.88,0.855c-0.643,0.117-0.976,0.526-1.15,1.164c-0.539,1.973-1.143,3.929-1.659,5.909
		c-0.161,0.619-0.476,1.189-0.582,1.825c-0.101,0.607-0.005,0.734,0.598,0.72c0.791-0.018,1.551-0.239,2.318-0.402
		c1.215-0.259,2.435-0.493,3.648-0.76c0.221-0.049,0.459-0.16,0.683,0.011c0.008,0.035,0.005,0.07-0.007,0.104
		c-0.075,1.768-0.01,3.536-0.035,5.304c-0.003,0.197,0.052,0.401-0.051,0.59c-1.769,0.374-3.538,0.751-5.308,1.121
		c-2.868,0.601-5.737,1.194-8.604,1.8c-0.326,0.069-0.65,0.058-0.976,0.07c-0.058,0.04-0.113,0.037-0.167-0.008
		c-0.12-0.159-0.105-0.348-0.114-0.531c-0.003-0.06-0.003-0.121-0.003-0.181c0.126-1.318,0.528-2.573,0.907-3.829
		c0.89-2.956,1.627-5.955,2.5-8.915c0.146-0.495,0.074-0.576-0.465-0.528c-1.617,0.147-3.234,0.301-4.847,0.487
		c-0.511,0.059-1.02,0.06-1.531,0.032c-0.135-0.007-0.326-0.005-0.345-0.193c-0.015-0.148,0.147-0.194,0.258-0.244
		c0.549-0.248,1.11-0.47,1.667-0.698c2.451-1.002,4.885-2.05,7.416-2.841c0.361-0.113,0.589-0.307,0.693-0.69
		c0.732-2.697,1.517-5.379,2.259-8.073c0.208-0.753,0.197-0.739-0.554-0.659c-1.894,0.201-3.724,0.745-5.599,1.046
		c-0.925,0.148-1.131,0.004-1.143-0.928c-0.008-0.623-0.16-1.234-0.125-1.856c0.023-0.397-0.269-0.62-0.458-0.902
		c-0.037-0.129-0.034-0.25,0.076-0.347c0.405,0.105,0.589-0.095,0.615-0.47c0.022-0.309,0.051-0.626,0.007-0.929
		c-0.062-0.428,0.136-0.559,0.512-0.635c4.333-0.88,8.663-1.771,12.994-2.661c0.479-0.098,0.955-0.21,1.434-0.314
		c0.331-0.072,0.475-0.053,0.383,0.389c-0.537,2.578-1.355,5.078-2.069,7.606c-0.163,0.576-0.319,1.153-0.481,1.73
		c-0.095,0.339-0.151,0.643,0.374,0.614c0.122-0.007,0.247,0.054,0.371,0.084c0.508,0.065,1.016,0.067,1.524-0.001
		c0.17-0.007,0.34-0.015,0.511-0.022c0.042-0.03,0.095-0.045,0.094-0.115c-0.013-1.127,0.049-2.255-0.034-3.382
		c0-0.041,0-0.081,0-0.122C107.409,136.298,107.35,135.866,107.361,135.436z"/>
	<path style="fill:#48A3D6;" d="M55.903,156.695c-0.067-0.058-0.825,0.125-1.03,0.235c-0.163,0.087-0.159,0.186-0.114,0.355
		c0.173,0.646,0.325,1.299,0.471,1.952c0.211,0.94,0.33,1.893,0.368,2.856c0.021,1.077,0.017,2.154,0.002,3.232
		c-0.046,1.11-0.146,2.22-0.414,3.295c-0.637,2.562-2.372,4.004-4.871,4.625c-3.135,0.778-6.322,1.298-9.482,1.956
		c-0.571,0.119-0.724-0.017-0.724-0.597c-0.001-4.038-0.011-8.075,0.012-12.113c0.003-0.521-0.157-0.633-0.644-0.625
		c-1.717,0.028-3.434,0.013-5.152,0.008c-0.172,0-0.354,0.052-0.6-0.094c1.015-0.434,1.973-0.849,2.935-1.254
		c1.524-0.642,3.052-1.274,4.628-1.782c0.265-0.085,0.35-0.221,0.349-0.506c-0.011-3.544-0.015-7.089,0.002-10.633
		c0.002-0.416-0.157-0.491-0.51-0.457c-1.503,0.145-3.007,0.286-4.512,0.418c-1.415,0.124-2.83,0.236-4.246,0.349
		c-1.125,0.09-2.251,0.168-3.376,0.262c-0.15,0.013-0.308,0.076-0.366-0.112c-0.063-0.204,0.114-0.223,0.253-0.271
		c6.365-2.18,12.621-4.718,19.313-5.814c1.144-0.187,2.277-0.451,3.411-0.692c2.325-0.495,4.589,0.864,5.216,3.148
		c0.052,0.189,0.04,0.396,0.058,0.594c0.09,0.266,0.04,0.541,0.041,0.811c0.005,2.11,0.004,4.22,0,6.33
		c0,0.197,0.044,0.4-0.044,0.592c0.018,0.793-0.173,1.55-0.429,2.29c-0.129,0.373-0.078,0.507,0.365,0.479
		c0.535-0.034,0.734-0.195,0.73-0.783c-0.028-4.674-0.006-9.349-0.03-14.024c-0.002-0.468,0.167-0.607,0.567-0.725
		c1.465-0.432,2.977-0.637,4.464-0.958c0.385-0.083,0.608,0.083,0.712,0.481c0.078,0.3,0.045,0.679,0.417,0.841
		c0.308,0.117,0.59-0.098,0.892-0.07c0.296,0.027,0.612-0.061,0.871,0.161c-0.032,0.252-0.242,0.236-0.413,0.266
		c-0.162,0.028-0.328,0.014-0.492,0.018c-0.91,0.024-1.13,0.237-1.131,1.147c-0.005,3.923-0.002,7.846-0.002,11.769
		c0,0.219-0.014,0.439,0.002,0.657c0.046,0.633-0.197,1.06-0.833,1.225c-0.44,0.114-0.597,0.409-0.596,0.852
		c0.005,2.536-0.001,5.072,0.007,7.609c0.002,0.509,0.082,0.57,0.598,0.48c1.492-0.261,2.951-0.688,4.453-0.893
		c0.389-0.053,0.784-0.214,1.182-0.025c0.238,0.201,0.234,0.482,0.236,0.753c0.009,1.472,0.007,2.944,0.001,4.415
		c-0.001,0.235,0.008,0.477-0.176,0.666c-1.064,0.508-2.227,0.642-3.361,0.877c-2.077,0.431-4.158,0.846-6.237,1.267
		c-0.658,0.133-1.322,0.24-1.972,0.403c-0.374,0.094-0.49-0.003-0.484-0.375c0.013-0.858-0.062-1.715-0.093-2.571
		c-0.076-2.117-0.096-4.236-0.141-6.354c-0.01-0.455-0.031-0.91-0.046-1.366C55.923,159.748,55.991,158.221,55.903,156.695z"/>
	<path style="fill:#4AA6D8;" d="M90.51,164.103c0.008,0.051,0.016,0.102,0.023,0.153c-0.089,0.175-0.084,0.351-0.007,0.528
		c0.047,0.01,0.094,0.02,0.142,0.029c-2.21,0.657-4.482,1.039-6.734,1.511c-2.732,0.573-5.464,1.146-8.197,1.716
		c-0.159,0.033-0.324,0.054-0.487,0.054c-0.568,0-0.672-0.137-0.515-0.693c1.473-5.237,2.955-10.472,4.417-15.712
		c0.167-0.597,0.619-0.787,1.112-0.911c0.538-0.135,0.829-0.415,0.945-0.969c0.156-0.744,0.368-1.479,0.596-2.205
		c0.09-0.285,0.014-0.353-0.243-0.381c-0.971-0.107-1.922,0.076-2.876,0.194c-0.592,0.073-1.179,0.274-1.776,0.056
		c-0.24-0.087-0.548-0.094-0.62-0.43c0.105-0.198,0.31-0.243,0.492-0.32c1.713-0.726,3.426-1.452,5.154-2.141
		c0.43-0.171,0.679-0.423,0.808-0.87c0.212-0.736,0.494-1.452,0.607-2.214c0.074-0.501,0.017-0.549-0.478-0.46
		c-1.67,0.299-3.304,0.77-4.984,1.025c-0.362,0.055-0.723,0.097-1.09,0.084c-0.494,0.026-0.677-0.234-0.692-0.699
		c-0.046-1.419-0.163-2.836-0.11-4.258c0.01-0.27-0.03-0.553,0.186-0.774c1.384-0.65,2.895-0.798,4.366-1.106
		c3.23-0.675,6.46-1.351,9.689-2.027c0.053-0.011,0.105-0.048,0.156-0.046c0.32,0.012,0.703-0.152,0.942,0.12
		c0.258,0.293,0.081,0.652-0.039,0.977c-0.076,0.204-0.136,0.413-0.203,0.62c0.002,0.133,0.003,0.266,0.005,0.399
		c-0.174,1.045-0.528,2.044-0.812,3.06c-1.036,3.709-2.096,7.412-3.117,11.125c-0.162,0.591-0.464,0.983-1.072,1.096
		c-0.638,0.118-0.919,0.516-1.089,1.127c-0.62,2.233-1.239,4.466-1.91,6.684c-0.138,0.456-0.176,0.932-0.267,1.397
		c-0.067,0.34,0.032,0.396,0.365,0.356c1.726-0.207,3.407-0.64,5.107-0.975c0.43-0.085,0.861-0.163,1.297-0.208
		c0.512-0.054,0.634,0.05,0.642,0.613c0.017,1.186,0.002,2.373,0.007,3.559C90.251,163.515,90.235,163.851,90.51,164.103z"/>
	<path style="fill:#091F41;" d="M105.648,155.823c-2.049,0.426-4.097,0.853-6.146,1.276c-0.142,0.029-0.29,0.032-0.435,0.037
		c-0.933,0.035-1.045-0.063-0.794-0.968c0.549-1.981,1.143-3.95,1.719-5.923c0.168-0.576,0.402-1.142,0.494-1.73
		c0.129-0.817,0.614-1.21,1.359-1.332c0.394-0.064,0.551-0.279,0.649-0.624c0.277-0.981,0.598-1.95,0.845-2.938
		c0.174-0.7,0.487-1.171,1.244-1.338c0.6-0.132,1.162-0.427,1.759-0.585c0.776-0.205,1.024-0.011,1.073,0.798
		c0.031,0.509-0.082,1.04,0.022,1.528c0.172,0.807-0.119,1.211-0.879,1.408c-0.277,0.072-0.52,0.262-0.69,0.514
		c-0.165,0.19-0.089,0.419-0.09,0.63c-0.005,2.878-0.002,5.755-0.007,8.633C105.77,155.417,105.854,155.652,105.648,155.823z"/>
	<path style="fill:#4BA7DA;" d="M65.445,140.473c-0.587-0.083-1.19,0.113-1.768-0.107c0.123-0.026,0.261-0.025,0.366-0.083
		c2.577-1.428,5.286-2.526,8.145-3.245c1.091-0.274,2.193-0.485,3.32-0.541c0.35,0.091,0.274,0.393,0.28,0.624
		c0.023,0.852,0.032,1.706,0.003,2.557c-0.03,0.873,0.103,1.736,0.102,2.606c-0.026,1.286,0.088,2.563,0.214,3.841
		c0.03,0.301,0.08,0.613-0.035,0.913c-0.287,0.66-0.225,1.341-0.182,2.038c0.064,1.037,0.037,2.08,0.053,3.12
		c0.004,0.239-0.153,0.323-0.342,0.352c-1.172,0.181-1.312,0.922-1.298,1.977c0.061,4.42,0.02,8.841,0.036,13.262
		c0.001,0.388-0.115,0.547-0.482,0.618c-1.478,0.283-2.952,0.587-4.43,0.876c-0.159,0.031-0.327,0.013-0.491,0.018
		c-0.209-0.205-0.147-0.471-0.154-0.717c-0.034-1.118,0.059-2.238-0.054-3.354c-0.049-0.214-0.059-0.429-0.022-0.646
		c0.045-0.208,0.145-0.418-0.02-0.621c-0.122-0.171-0.279-0.32-0.323-0.538c-0.043-0.199-0.041-0.4-0.041-0.601
		c-0.002-2.832-0.003-5.664,0-8.497c0.001-0.928,0.141-1.155,1.008-1.461c0.399-0.141,0.529-0.375,0.528-0.773
		c-0.006-3.636,0-7.272-0.007-10.909c-0.001-0.598-0.062-0.633-0.669-0.659c-1.007-0.044-2.003,0.175-3.009,0.11
		C65.923,140.618,65.657,140.665,65.445,140.473z"/>
	<path style="fill:#091F41;" d="M76.071,147.039c-0.243-1.557-0.391-3.12-0.317-4.697c0.322-0.385,0.791-0.235,1.193-0.327
		c1.713-0.128,3.357-0.62,5.031-0.953c0.41-0.081,0.821-0.157,1.23-0.243c0.269-0.057,0.387-0.036,0.353,0.313
		c-0.104,1.083-0.536,2.073-0.815,3.106c-0.037,0.136-0.124,0.218-0.248,0.269c-2.069,0.846-4.139,1.692-6.208,2.538
		C76.217,147.042,76.144,147.04,76.071,147.039z"/>
	<path style="fill:#2C6085;" d="M137.55,155.243c0.01-0.237,0.023-0.473,0.03-0.71c0.123-4.105,0.076-8.212,0.1-12.318
		c0.144-0.129,0.289-0.111,0.434-0.003c0.246,3.959,0.06,7.923,0.116,11.884c0.004,0.274,0.008,0.548,0.012,0.822
		C138.012,155.026,137.781,155.135,137.55,155.243z"/>
	<path style="fill:#306388;" d="M139.23,136.411c-0.002-2.709-0.003-5.418-0.005-8.128c0.092,0.062,0.184,0.122,0.303,0.103
		c0.366,2.193,0.336,4.406,0.331,6.617c-0.001,0.396-0.07,0.792-0.108,1.187C139.478,136.027,139.423,136.383,139.23,136.411z"/>
	<path style="fill:#2D6185;" d="M76.947,142.014c-0.398,0.109-0.795,0.218-1.193,0.327c-0.215-1.738-0.105-3.484-0.135-5.226
		c-0.004-0.208,0.081-0.441-0.112-0.618c0.209-0.158,0.446-0.088,0.675-0.081c-0.044,1.728,0.058,3.454,0.078,5.182
		C76.268,142.193,76.689,141.928,76.947,142.014z"/>
	<path style="fill:#13789A;" d="M68.507,163.598c0.148,0.072,0.251,0.189,0.328,0.332c0.067,0.179,0.064,0.359,0.002,0.539
		c0,0.223,0,0.445,0,0.668c0.06,1.416,0.086,2.833-0.012,4.249c-0.184,0.003-0.367,0.006-0.551,0.009
		c-0.002-1.732-0.004-3.464-0.006-5.196c0-0.2,0.022-0.403-0.101-0.582C68.274,163.496,68.388,163.511,68.507,163.598z"/>
	<path style="fill:#5CACD9;" d="M122.801,141.771c-0.191-0.099-0.14-0.28-0.14-0.437c-0.002-3.033-0.003-6.066,0.001-9.099
		c0-0.104,0.043-0.209,0.066-0.313c0.014,0.674,0.036,1.348,0.04,2.022C122.782,136.553,122.79,139.162,122.801,141.771z"/>
	<path style="fill:#61A5CE;" d="M56.88,152.764c0.001-2.578,0.002-5.156,0.003-7.734c0.121,0.16,0.089,0.349,0.09,0.528
		c0.005,2.19,0.009,4.379,0.007,6.569C56.979,152.343,57.019,152.569,56.88,152.764z"/>
	<path style="fill:#61ADD8;" d="M105.554,161.822c0-1.772-0.002-3.543,0.003-5.315c0.001-0.194-0.064-0.404,0.083-0.58
		c0.008,1.892,0.016,3.784,0.022,5.676C105.663,161.691,105.668,161.787,105.554,161.822z"/>
	<path style="fill:#62A6CF;" d="M55.903,156.695c0.029,0.064,0.085,0.128,0.085,0.191c-0.022,1.463,0.082,2.928-0.049,4.389
		C55.851,159.749,55.885,158.222,55.903,156.695z"/>
	<path style="fill:#62ABD5;" d="M132.106,146.716c0.147,0.153,0.089,0.345,0.09,0.521c0.005,1.148,0.005,2.295,0,3.443
		c-0.001,0.176,0.058,0.368-0.09,0.521C132.106,149.706,132.106,148.211,132.106,146.716z"/>
	<path style="fill:#56A7CD;" d="M68.824,169.386c0.004-1.416,0.008-2.833,0.012-4.249c0.164,0.168,0.094,0.379,0.095,0.57
		c0.007,1.198,0.005,2.395,0.006,3.593C68.899,169.329,68.861,169.357,68.824,169.386z"/>
	<path style="fill:#5BABD8;" d="M107.328,136.848c0.203,0.855,0.06,1.722,0.08,2.583c0.007,0.3,0.163,0.651-0.14,0.914
		C107.287,139.179,107.308,138.014,107.328,136.848z"/>
	<path style="fill:#62A6CF;" d="M55.601,165.324c-0.072-1.077-0.07-2.155-0.002-3.232C55.713,163.169,55.707,164.246,55.601,165.324
		z"/>
	<path style="fill:#63A8D1;" d="M106.756,140.367c-0.508,0.15-1.016,0.149-1.524,0.001
		C105.741,140.367,106.249,140.367,106.756,140.367z"/>
	<path style="fill:#5BABD8;" d="M107.361,135.436c0.071,0.432,0.137,0.865-0.033,1.291
		C107.307,136.295,107.275,135.864,107.361,135.436z"/>
	<path style="fill:#3F9CBC;" d="M79.569,66.228c-0.239-0.608-0.055-1.24-0.104-1.859C79.689,64.978,79.514,65.61,79.569,66.228z"/>
	<path style="fill:#3F9CBC;" d="M79.465,63.812c0.053-0.545-0.138-1.105,0.105-1.638C79.513,62.718,79.692,63.278,79.465,63.812z"/>
	<path style="fill:#3F9CBC;" d="M76.394,83.887c0.511,0.042,1.036-0.123,1.534,0.104C77.418,83.943,76.893,84.105,76.394,83.887z"/>
	<path style="fill:#3B91AF;" d="M120.03,48.467c0.438-0.185,0.876-0.17,1.315-0.004C120.906,48.464,120.468,48.465,120.03,48.467z"
		/>
	<path style="fill:#3F99B8;" d="M72.004,83.991c0.423-0.223,0.877-0.063,1.314-0.106C72.895,84.107,72.44,83.938,72.004,83.991z"/>
	<path style="fill:#56BEE4;" d="M77.607,121.061c0.158,0.361,0.164,0.722-0.006,1.081C77.603,121.782,77.605,121.421,77.607,121.061
		z"/>
	<path style="fill:#469FBD;" d="M119.814,49.886c0.039-0.363-0.118-0.745,0.104-1.091C119.872,49.158,120.027,49.539,119.814,49.886
		z"/>
	<path style="fill:#3FA0C1;" d="M125.514,49.019c0.29,0,0.579,0.001,0.868,0.001C126.093,49.18,125.803,49.181,125.514,49.019z"/>
	<path style="fill:#3F98B7;" d="M89.213,56.577c0.234-0.203,0.512-0.075,0.77-0.104C89.749,56.678,89.469,56.539,89.213,56.577z"/>
	<path style="fill:#3E99B8;" d="M78.475,83.994c0.258,0.03,0.537-0.099,0.771,0.105C78.989,84.061,78.708,84.2,78.475,83.994z"/>
	<path style="fill:#4FB2D7;" d="M96.567,42.098c0.273-0.205,0.586-0.059,0.877-0.101C97.17,42.194,96.861,42.081,96.567,42.098z"/>
	<path style="fill:#091E40;" d="M62.246,131.793c0-0.383,0.031-0.769-0.008-1.148c-0.045-0.436,0.232-0.466,0.53-0.498
		c0.414-0.043,0.246,0.28,0.25,0.447c0.018,0.747-0.023,1.497,0.019,2.242c0.027,0.495-0.315,0.476-0.595,0.491
		c-0.341,0.018-0.177-0.284-0.188-0.441C62.229,132.523,62.246,132.157,62.246,131.793z"/>
	<path style="fill:#091E40;" d="M129.36,117.987c0,0.401-0.017,0.803,0.006,1.203c0.015,0.259-0.096,0.335-0.325,0.398
		c-0.349,0.097-0.486,0.046-0.47-0.359c0.03-0.783,0.029-1.569,0.001-2.352c-0.016-0.432,0.282-0.395,0.536-0.435
		c0.366-0.058,0.241,0.232,0.247,0.396C129.371,117.221,129.36,117.604,129.36,117.987z"/>
	<path style="fill:#091E40;" d="M90.547,126.023c0,0.383-0.02,0.767,0.007,1.148c0.02,0.285-0.11,0.366-0.356,0.43
		c-0.328,0.084-0.453,0.033-0.44-0.343c0.028-0.783,0.032-1.569-0.001-2.352c-0.02-0.464,0.293-0.438,0.568-0.459
		c0.358-0.027,0.206,0.268,0.215,0.427C90.561,125.256,90.547,125.64,90.547,126.023z"/>
	<path style="fill:#F9FAFB;" d="M156.887,121.589c-1.036,0.375-2.069,0.764-3.112,1.12c-0.376,0.128-0.477,0.258-0.273,0.648
		c0.503,0.96,0.602,2.02,0.607,3.08c0.014,2.795,0.012,5.59-0.005,8.384c-0.005,0.72-0.094,1.441,0.933,1.786
		c-0.769,0.321-1.373,0.598-1.995,0.824c-0.413,0.15-0.569,0.363-0.563,0.827c0.031,2.813-0.016,5.627,0.039,8.439
		c0.049,2.492-1.909,4.875-4.328,5.468c-2.861,0.7-5.771,1.17-8.659,1.746c-0.264,0.053-0.318-0.054-0.34-0.269
		c-0.057-0.543-0.147-1.084-0.18-1.628c-0.241-3.905-0.055-7.815-0.12-11.722c-0.009-0.547,0.366-0.806,0.814-0.874
		c0.63-0.096,0.76-0.414,0.757-1.006c-0.024-4.621-0.005-9.243-0.025-13.865c-0.002-0.459,0.145-0.627,0.574-0.726
		c3.173-0.727,6.351-1.431,9.579-1.865C152.666,121.678,154.751,121.449,156.887,121.589z"/>
	<path style="fill:#F7F9FB;" d="M110.81,153.472c0,1.955-0.015,3.91,0.012,5.865c0.006,0.428-0.155,0.568-0.533,0.639
		c-0.947,0.178-1.899,0.345-2.828,0.594c-0.543,0.146-0.616-0.028-0.598-0.505c0.032-0.858,0.013-1.717,0.012-2.576
		c-0.001-3.452-0.288-6.897-0.232-10.351c0.009-0.581,0.241-0.863,0.777-1.004c0.702-0.186,0.788-0.327,0.788-1.09
		c0-3.015-0.013-6.029,0-9.044c0.005-1.138,0.189-2.251,0.699-3.286c0.723-1.467,1.873-2.484,3.415-2.976
		c1.928-0.615,3.927-0.939,5.939-1.117c2.374-0.21,3.558,1.771,3.541,3.414c-0.032,3.197-0.012,6.395,0.008,9.592
		c0.002,0.391-0.154,0.549-0.49,0.66c-1.073,0.356-1.062,0.363-1.074,1.503c-0.04,3.982,0.335,7.956,0.222,11.94
		c-0.006,0.201,0.003,0.402-0.004,0.603c-0.058,1.691,0.097,1.388-1.447,1.832c-0.682,0.196-1.397,0.235-2.108,0.281
		c-0.449,0.029-0.602-0.11-0.598-0.575c0.018-1.9-0.003-3.8-0.006-5.7c-0.003-1.791-0.028-3.582,0.011-5.371
		c0.012-0.565-0.188-0.677-0.688-0.642c-1.078,0.076-2.115,0.355-3.167,0.566c-0.392,0.078-0.784,0.16-1.179,0.214
		c-0.341,0.047-0.485,0.176-0.481,0.558C110.821,149.488,110.81,151.48,110.81,153.472z"/>
	<path style="fill:#F8FAFB;" d="M123.438,149.992c0-2.156,0.017-4.311-0.012-6.467c-0.007-0.542,0.184-0.84,0.698-0.919
		c0.567-0.087,0.725-0.378,0.76-0.96c0.196-3.307,0.005-6.605-0.113-9.907c-0.049-1.369-0.011-2.74-0.039-4.11
		c-0.007-0.339,0.177-0.439,0.431-0.527c1.105-0.385,2.266-0.521,3.403-0.765c1.653-0.354,3.309-0.693,4.96-1.057
		c1.308-0.289,2.532-0.175,3.638,0.65c0.614,0.458,0.962,1.04,1.081,1.819c0.333,2.175,0.406,4.359,0.296,6.549
		c-0.05,0.998-0.216,1.988-0.469,2.961c-0.329,1.268-1.184,1.906-2.435,2.117c-0.232,0.039-0.6-0.025-0.666,0.226
		c-0.077,0.293,0.276,0.434,0.479,0.603c0.905,0.752,1.447,1.711,1.457,2.884c0.032,3.635,0.016,7.269,0.027,10.904
		c0.001,0.258-0.077,0.403-0.323,0.487c-1.004,0.345-2.055,0.468-3.089,0.671c-0.241,0.047-0.363-0.069-0.45-0.288
		c-0.144-0.362-0.027-0.72-0.029-1.081c-0.017-3.104-0.046-6.209-0.075-9.313c-0.004-0.413-0.17-0.778-0.384-1.123
		c-0.338-0.544-0.908-0.423-1.385-0.416c-1.228,0.02-2.392,0.433-3.581,0.693c-0.31,0.068-0.247,0.264-0.247,0.449
		c-0.004,1.187-0.002,2.375-0.002,3.562c0,2.685-0.014,5.371,0.013,8.056c0.005,0.472-0.163,0.676-0.576,0.829
		c-0.878,0.325-1.814,0.363-2.71,0.595c-0.452,0.117-0.68-0.053-0.672-0.602C123.458,154.34,123.438,152.166,123.438,149.992z"/>
	<path style="fill:#F8FAFB;" d="M103.961,141.527c-1.209,0.161-1.227,1.145-1.478,1.96c-0.225,0.73-0.462,1.458-0.649,2.198
		c-0.118,0.468-0.368,0.751-0.841,0.8c-0.722,0.075-1.018,0.484-1.205,1.174c-0.934,3.441-1.92,6.867-2.903,10.294
		c-0.121,0.422-0.11,0.543,0.391,0.44c2.298-0.469,4.605-0.893,6.906-1.348c0.493-0.097,0.448,0.277,0.477,0.526
		c0.09,0.779,0.081,1.562,0.045,2.348c-0.054,1.191-0.017,1.24-1.168,1.455c-3.539,0.663-7.047,1.473-10.574,2.196
		c-0.452,0.093-0.937-0.038-1.434,0.249c0.728-3.854,2.065-7.456,3-11.165c0.196-0.776,0.405-1.551,0.66-2.308
		c0.146-0.434-0.03-0.591-0.398-0.622c-0.555-0.046-1.113-0.055-1.681-0.128c0.861-0.551,1.795-0.948,2.783-1.102
		c1.024-0.159,1.535-0.643,1.8-1.654c0.845-3.219,1.775-6.416,2.678-9.62c0.21-0.744,0.162-0.801-0.621-0.687
		c-1.352,0.196-2.683,0.491-4.015,0.789c-0.817,0.183-1.643,0.32-2.464,0.485c-0.392,0.079-0.55-0.02-0.535-0.467
		c0.035-1.04,0.017-2.083,0.001-3.124c-0.005-0.338,0.06-0.498,0.453-0.578c4.134-0.837,8.263-1.701,12.391-2.568
		c0.406-0.085,0.42,0.025,0.318,0.378c-0.845,2.937-1.671,5.879-2.506,8.819C103.166,141.072,103.162,141.071,103.961,141.527z"/>
	<path style="fill:#091F40;" d="M90.51,164.103c-0.474,0.055-0.421-0.29-0.422-0.573c-0.004-1.297-0.011-2.593,0.01-3.89
		c0.007-0.412-0.041-0.584-0.535-0.48c-1.87,0.393-3.751,0.735-5.627,1.102c-0.444,0.087-0.915,0.021-1.336,0.255
		c0.104-1.836,0.797-3.507,1.267-5.232c0.364-1.335,0.769-2.66,1.125-3.997c0.096-0.359,0.245-0.592,0.62-0.65
		c0.947-0.147,1.312-0.737,1.555-1.648c1.158-4.328,2.403-8.633,3.617-12.946c0.069-0.247,0.157-0.485,0.315-0.691
		c0.433,0.084,0.51,0.412,0.532,0.778c0.043,0.711,0.081,1.421,0.133,2.131c0.052,0.713,0.087,0.738,0.783,0.6
		c1.465-0.29,2.928-0.595,4.395-0.872c0.765-0.145,1.534-0.29,2.367-0.269c-0.645,2.294-1.275,4.537-1.907,6.781
		c-0.202,0.719-0.437,1.431-0.598,2.159c-0.102,0.464-0.319,0.691-0.779,0.838c-3.177,1.015-6.225,2.364-9.301,3.663
		c2.475,0.091,4.904-0.505,7.412-0.487c-0.449,1.616-0.915,3.186-1.319,4.773c-0.684,2.684-1.609,5.3-2.201,8.009
		C90.568,163.669,90.544,163.887,90.51,164.103z"/>
	<path style="fill:#0F2748;" d="M138.115,142.212c-0.145,0.001-0.289,0.002-0.434,0.003c-0.14-0.587-0.323-1.158-0.691-1.647
		c-0.188-0.25-0.239-0.471,0.109-0.589c0.309-0.105,0.673-0.449,0.922,0.082c0.197,0.422,0.224,0.878,0.18,1.337
		C138.174,141.67,138.143,141.941,138.115,142.212z"/>
	<path style="fill:#0E2648;" d="M139.23,136.411c0.156-0.117,0.028-0.904,0.522-0.22c0.066,0.717-0.183,1.401-0.221,2.109
		c-0.018,0.34-0.732,0.562-0.987,0.34c-0.163-0.143-0.021-0.273,0.021-0.392C138.78,137.633,139.152,137.076,139.23,136.411z"/>
	<path style="fill:#70B9E1;" d="M90.526,164.784c-0.155-0.178-0.149-0.354,0.007-0.528
		C90.531,164.432,90.528,164.608,90.526,164.784z"/>
	<path style="fill:#F8FAFB;" d="M39.457,160.332c0.773-0.379,1.564-0.696,2.444-0.685c0.309,0.004,0.394-0.216,0.491-0.432
		c0.375-0.837,0.275-1.723,0.205-2.588c-0.101-1.236-0.191-2.469-0.191-3.709c0-1.861,0.001-3.722-0.001-5.583
		c0-0.237-0.002-0.475-0.03-0.709c-0.045-0.369-0.213-0.468-0.625-0.427c-1.827,0.184-3.65,0.426-5.487,0.498
		c-0.16-0.177-0.14-0.351,0.005-0.525c2.699-1.115,5.506-1.881,8.347-2.517c2.27-0.508,4.556-0.942,6.839-1.39
		c0.772-0.151,1.55-0.192,2.321,0.06c1.258,0.412,2.144,1.513,2.213,2.84c0.116,2.242,0.268,4.483,0.219,6.73
		c-0.027,1.22-0.3,2.379-0.975,3.424c-0.289,0.448-0.628,0.77-1.186,0.866c-0.514,0.088-1.013,0.266-1.617,0.431
		c1.191,0.703,1.862,1.684,2.075,2.956c0.09,0.537,0.151,1.085,0.158,1.629c0.021,1.644,0.038,3.288,0.002,4.932
		c-0.047,2.164-0.743,4.038-2.573,5.357c-1.115,0.804-2.423,1.054-3.731,1.305c-2.142,0.41-4.287,0.806-6.41,1.311
		c-0.796,0.189-0.883,0.115-0.883-0.7c0-3.836,0-7.672,0-11.508c0-0.76-0.09-0.859-0.859-0.919
		c-0.218-0.017-0.438-0.012-0.656-0.018C39.362,160.775,39.231,160.581,39.457,160.332z"/>
	<path style="fill:#071D3D;" d="M68.507,163.598c-0.113,0.006-0.227,0.013-0.34,0.019c-1.496,0.112-2.942,0.495-4.403,0.798
		c-0.499,0.103-1.008,0.168-1.499,0.3c-0.402,0.108-0.448-0.052-0.445-0.394c0.012-1.863,0.006-3.726,0.006-5.589
		c0-0.877,0.016-1.754-0.007-2.63c-0.01-0.376,0.13-0.565,0.484-0.672c1.196-0.361,0.957-0.305,0.959-1.355
		c0.01-4.128,0.004-8.256,0.004-12.384c0-0.858,0.24-1.095,1.098-1.128c0.361-0.014,0.731,0.05,1.083-0.088
		c1.367-0.042,2.735-0.073,4.101-0.132c0.375-0.016,0.495,0.084,0.494,0.477c-0.015,3.851-0.014,7.703-0.001,11.554
		c0.001,0.394-0.148,0.533-0.515,0.615c-0.923,0.207-1.027,0.412-1.021,1.302C68.525,157.392,68.508,160.495,68.507,163.598z"/>
	<path style="fill:#F9FAFB;" d="M56.983,163.761c0-2.21,0.01-4.421-0.01-6.631c-0.004-0.393,0.117-0.568,0.488-0.701
		c0.983-0.353,0.975-0.374,0.975-1.407c0-4.512,0.01-9.025-0.014-13.537c-0.003-0.511,0.164-0.7,0.634-0.79
		c0.91-0.175,1.815-0.381,2.714-0.607c0.277-0.07,0.362-0.005,0.39,0.254c0.053,0.488,0.148,0.974,0.174,1.463
		c0.199,3.686,0.139,7.376,0.109,11.065c-0.001,0.127-0.032,0.255-0.028,0.382c0.027,0.789-0.104,1.434-1.107,1.469
		c-0.281,0.01-0.4,0.26-0.399,0.561c0.006,3.416,0.006,6.832-0.001,10.249c-0.001,0.333,0.092,0.383,0.42,0.313
		c1.885-0.401,3.778-0.76,5.662-1.163c0.373-0.08,0.466,0.028,0.519,0.369c0.179,1.145,0.011,2.296,0.081,3.442
		c0.017,0.28-0.177,0.32-0.383,0.362c-2.867,0.587-5.734,1.175-8.6,1.763c-0.392,0.08-0.796,0.122-1.173,0.248
		c-0.398,0.134-0.459,0-0.458-0.363C56.989,168.255,56.983,166.008,56.983,163.761z"/>
	<path style="fill:#A4DAE8;" d="M36.268,146.172c-0.002,0.175-0.004,0.35-0.005,0.525c-0.521,0.248-1.036,0.144-1.627-0.03
		C35.189,146.372,35.737,146.3,36.268,146.172z"/>
	<path style="fill:#A2D8E8;" d="M39.457,160.332c-0.044,0.221,0.048,0.422,0.095,0.63c-0.313,0.09-0.628,0.176-0.954,0.064
		c-0.213-0.073-0.335-0.181-0.08-0.357C38.801,160.473,39.086,160.279,39.457,160.332z"/>
	<path style="fill:#F8FAFB;" d="M81.246,146.042c0.679-0.337,1.276-0.629,1.869-0.928c0.172-0.087,0.354-0.139,0.421-0.382
		c0.458-1.662,0.935-3.318,1.423-5.039c-1.074,0.074-2.066,0.283-3.059,0.48c-1.319,0.262-2.634,0.546-3.954,0.804
		c-0.79,0.155-0.932,0.073-0.979-0.724c-0.059-1-0.072-2.004,0.066-3.006c0.044-0.321,0.251-0.334,0.442-0.373
		c2.901-0.602,5.802-1.199,8.706-1.786c1.122-0.227,2.25-0.426,3.376-0.634c0.587-0.108,0.633-0.072,0.536,0.486
		c-0.338,1.941-0.968,3.804-1.511,5.691c-0.784,2.726-1.568,5.453-2.31,8.19c-0.151,0.555-0.411,0.869-0.965,0.933
		c-0.624,0.072-0.925,0.419-1.092,1.025c-0.949,3.436-1.932,6.861-2.903,10.291c-0.162,0.571-0.114,0.601,0.491,0.523
		c1.862-0.24,3.657-0.803,5.504-1.114c0.484-0.081,0.966-0.181,1.462-0.175c0.225,0.003,0.316,0.073,0.341,0.31
		c0.121,1.147,0.141,2.29,0.013,3.44c-0.035,0.316-0.225,0.348-0.424,0.389c-2.208,0.454-4.418,0.896-6.626,1.345
		c-1.906,0.388-3.81,0.779-5.715,1.172c-0.573,0.118-0.594,0.099-0.433-0.472c1.311-4.656,2.63-9.309,3.926-13.969
		c0.139-0.5,0.379-0.82,0.891-0.897c0.686-0.103,1.024-0.517,1.191-1.169c0.322-1.25,0.681-2.49,1.04-3.73
		c0.088-0.304-0.016-0.408-0.296-0.499C82.243,146.084,81.777,146.278,81.246,146.042z"/>
	<path style="fill:#F9FAFB;" d="M74.855,144.684c0,2.21-0.009,4.42,0.008,6.629c0.003,0.411-0.087,0.613-0.535,0.697
		c-0.84,0.156-0.898,0.274-0.898,1.132c0,4.62-0.006,9.241,0.011,13.861c0.001,0.409-0.127,0.569-0.511,0.652
		c-0.923,0.201-1.829,0.48-2.79,0.476c-0.398-0.002-0.57-0.085-0.568-0.545c0.019-4.365,0.017-8.73,0.001-13.094
		c-0.001-0.41,0.142-0.569,0.517-0.683c0.934-0.285,0.928-0.305,0.928-1.289c0-4.109,0-8.218,0-12.327
		c0-0.696-0.054-0.766-0.767-0.813c-0.399-0.026-0.802,0.004-1.203-0.005c-0.098-0.002-0.245,0.036-0.286-0.094
		c-0.049-0.154,0.099-0.224,0.198-0.288c0.576-0.371,1.252-0.49,1.888-0.697c1.159-0.377,2.37-0.551,3.563-0.794
		c0.353-0.072,0.456,0.014,0.453,0.389C74.846,140.155,74.855,142.42,74.855,144.684z"/>
	<path style="fill:#56A7CD;" d="M68.836,164.469c-0.001-0.18-0.001-0.359-0.002-0.539C68.983,164.109,68.981,164.289,68.836,164.469
		z"/>
	<path style="fill:#4FA6D6;" d="M150.08,131.737c0,1.662-0.016,3.323,0.011,4.984c0.007,0.448-0.128,0.661-0.567,0.757
		c-0.897,0.198-0.893,0.214-0.893,1.117c0,2.94-0.01,5.879,0.011,8.819c0.003,0.405-0.147,0.534-0.503,0.602
		c-1.593,0.303-3.184,0.613-4.771,0.944c-0.335,0.07-0.459,0.025-0.458-0.344c0.009-3.433,0.01-6.865-0.001-10.298
		c-0.001-0.379,0.185-0.508,0.502-0.59c0.863-0.222,0.925-0.309,0.925-1.197c0-2.885,0.008-5.77-0.009-8.655
		c-0.002-0.4,0.117-0.576,0.506-0.675c1.591-0.404,3.204-0.695,4.812-1.013c0.422-0.083,0.443,0.07,0.441,0.399
		C150.075,128.304,150.08,130.021,150.08,131.737z"/>
	<path style="fill:#4BA7DA;" d="M117.853,137.129c0,1.241-0.01,2.482,0.007,3.723c0.004,0.333-0.079,0.46-0.435,0.522
		c-1.111,0.193-2.163,0.649-3.293,0.777c-0.181,0.02-0.362,0.046-0.544,0.046c-1.271-0.002-1.368-0.101-1.368-1.36
		c0-2.117,0.007-4.234-0.007-6.351c-0.002-0.348,0.096-0.511,0.445-0.612c1.563-0.449,3.166-0.687,4.76-0.976
		c0.34-0.062,0.445,0.056,0.441,0.398C117.843,134.574,117.853,135.852,117.853,137.129z"/>
	<path style="fill:#4BA7DA;" d="M128.906,134.73c0-1.277,0.01-2.555-0.007-3.832c-0.004-0.311,0.085-0.458,0.399-0.52
		c1.537-0.3,3.072-0.607,4.602-0.936c0.325-0.07,0.42-0.007,0.419,0.323c-0.008,2.609-0.008,5.219,0,7.828
		c0.001,0.303-0.128,0.404-0.407,0.46c-1.516,0.308-3.03,0.628-4.542,0.958c-0.36,0.079-0.478-0.016-0.472-0.396
		C128.918,137.322,128.906,136.026,128.906,134.73z"/>
	<path style="fill:#4FA6D6;" d="M45.035,164.783c0-1.259-0.001-2.517,0.001-3.776c0-0.212-0.049-0.428,0.284-0.482
		c1.509-0.243,2.98-0.688,4.506-0.84c0.109-0.011,0.219-0.01,0.327-0.028c0.366-0.061,0.51,0.055,0.508,0.46
		c-0.017,2.481-0.014,4.961-0.002,7.442c0.002,0.335-0.11,0.468-0.438,0.555c-1.479,0.393-2.969,0.73-4.485,0.944
		c-0.696,0.098-0.7,0.092-0.7-0.609C45.034,167.227,45.035,166.005,45.035,164.783z"/>
	<path style="fill:#4BA7DA;" d="M52.025,150.672c0,1.241-0.011,2.482,0.007,3.723c0.005,0.35-0.093,0.52-0.45,0.607
		c-1.504,0.37-2.999,0.762-4.558,0.856c-0.364,0.022-0.44-0.075-0.439-0.402c0.008-2.5,0.009-5.001-0.002-7.501
		c-0.001-0.304,0.087-0.457,0.392-0.54c1.514-0.411,3.047-0.717,4.599-0.945c0.403-0.059,0.459,0.081,0.455,0.423
		C52.017,148.153,52.025,149.412,52.025,150.672z"/>
	<path style="fill:#071D3D;" d="M143.845,143.257c0-1.352,0.017-2.704-0.009-4.055c-0.009-0.479,0.175-0.684,0.632-0.776
		c0.882-0.177,0.878-0.198,0.878-1.106c0-2.886,0.008-5.773-0.01-8.659c-0.002-0.379,0.121-0.553,0.463-0.676
		c0.986-0.353,2.023-0.459,3.037-0.679c0.349-0.076,0.334,0.161,0.334,0.392c-0.002,1.315-0.001,2.631-0.001,3.946
		c0,1.37-0.028,2.741,0.014,4.11c0.018,0.574-0.21,0.881-0.729,0.961c-0.641,0.099-0.824,0.406-0.814,1.064
		c0.044,2.886,0.011,5.772,0.028,8.659c0.002,0.39-0.113,0.582-0.481,0.723c-0.966,0.369-1.98,0.479-2.987,0.637
		c-0.386,0.061-0.356-0.184-0.355-0.431C143.846,145.997,143.845,144.627,143.845,143.257z"/>
	<path style="fill:#091E40;" d="M116.927,137.244c0,0.948-0.008,1.896,0.005,2.844c0.004,0.287-0.052,0.479-0.363,0.568
		c-0.998,0.286-2,0.537-3.043,0.609c-0.303,0.021-0.38-0.065-0.379-0.348c0.008-1.95,0.006-3.901,0.002-5.852
		c0-0.204,0.05-0.344,0.261-0.42c1.068-0.386,2.2-0.482,3.298-0.73c0.318-0.072,0.213,0.227,0.214,0.375
		C116.932,135.275,116.927,136.26,116.927,137.244z"/>
	<path style="fill:#0D2547;" d="M129.681,134.618c0-0.987,0.014-1.974-0.008-2.96c-0.008-0.347,0.109-0.47,0.447-0.534
		c1.02-0.193,2.034-0.42,3.047-0.65c0.313-0.071,0.447-0.05,0.443,0.339c-0.02,1.992-0.013,3.984-0.006,5.976
		c0.001,0.296-0.058,0.454-0.4,0.515c-1.022,0.183-2.036,0.407-3.05,0.633c-0.375,0.083-0.497-0.004-0.484-0.412
		C129.703,136.556,129.681,135.586,129.681,134.618z"/>
	<path style="fill:#091F41;" d="M46.003,164.763c0-0.984,0.001-1.969-0.001-2.953c0-0.201-0.029-0.411,0.243-0.474
		c0.991-0.228,1.965-0.531,2.989-0.605c0.393-0.028,0.491,0.114,0.488,0.489c-0.017,1.859-0.021,3.719,0.003,5.579
		c0.005,0.395-0.136,0.542-0.496,0.614c-0.944,0.19-1.888,0.388-2.823,0.621c-0.338,0.084-0.412,0.003-0.408-0.318
		C46.012,166.732,46.003,165.747,46.003,164.763z"/>
	<path style="fill:#0D2547;" d="M51.29,150.86c0,0.932-0.02,1.864,0.01,2.795c0.012,0.367-0.121,0.504-0.457,0.592
		c-1.003,0.265-1.985,0.615-3.048,0.593c-0.331-0.007-0.484-0.061-0.48-0.447c0.019-1.9,0.013-3.801,0.004-5.701
		c-0.001-0.276,0.062-0.424,0.356-0.502c0.968-0.258,1.917-0.581,2.928-0.657c0.686-0.052,0.685-0.076,0.686,0.585
		C51.291,149.033,51.29,149.947,51.29,150.86z"/>
</g>
</svg>
