<?xml version="1.0" encoding="utf-8"?>
<!-- Generator: Adobe Illustrator 24.1.2, SVG Export Plug-In . SVG Version: 6.00 Build 0)  -->
<svg version="1.1" id="Layer_4" xmlns="http://www.w3.org/2000/svg" xmlns:xlink="http://www.w3.org/1999/xlink" x="0px" y="0px"
	 viewBox="0 0 720 720" style="enable-background:new 0 0 720 720;" xml:space="preserve">
<path style="fill-rule:evenodd;clip-rule:evenodd;fill:#EEDCCD;" d="M178.094,527.896l5.16,0.836l3.275-2.817l15.924-28.489
	l-1.724-3.244c-1.596-0.071-3.191-0.152-4.785-0.249l-13.11,8.683L178.094,527.896z M226.145,338.581L483.49,39.303l-17.324,128.579
	l140.152-99.417l-79.511,205.11l-5.917-2.382l-6.001,13.528l137.093-37.159l-137.81,107.541l141.432-6.941l-114.133,51.31
	l62.996,2.641l-116.201,36.911l131.578,7.996l-127.186,47.473l39.858,12.848l-72.731,20.599l38.698,25.15l-129.867,7.069
	l2.906,48.605l-52.037-56.381l-38.844,7.53l-47.229,31.263l-5.351,21.103l-26.238,13.464l-7.661,45.675l-37.085-45.557
	l-52.228,32.349l25.861-106.6l19.036-14.766l-46.059-40.68l2.166-19.213c-17.796-23.84-0.897-60.814,17.477-80.28
	c7.024-7.441,14.951-14.049,24.139-18.654L226.145,338.581z"/>
<path style="fill-rule:evenodd;clip-rule:evenodd;fill:#EEDCCD;" d="M491.1,684.114c-85.848,34.659-181.281,33.797-266.479-2.394
	C139.379,645.512,72.563,577.492,37.886,491.6C3.227,405.753,4.089,310.319,40.28,225.121
	C76.488,139.879,144.508,73.063,230.4,38.386c85.848-34.66,181.281-33.797,266.479,2.393
	c85.242,36.209,152.058,104.228,186.735,190.12c34.659,85.847,33.797,181.281-2.393,266.479
	C645.011,582.621,576.992,649.437,491.1,684.114"/>
<path style="fill-rule:evenodd;clip-rule:evenodd;fill:#002252;" d="M484.498,667.76c-81.512,32.909-172.086,32.091-252.982-2.272
	c-80.938-34.381-144.35-98.936-177.276-180.49c-32.909-81.512-32.091-172.086,2.272-252.982
	c34.381-80.938,98.936-144.35,180.49-177.276c81.512-32.909,172.086-32.091,252.982,2.272
	c80.938,34.381,144.35,98.935,177.276,180.49c32.909,81.512,32.091,172.086-2.272,252.982
	C630.607,571.421,566.052,634.834,484.498,667.76"/>
<path style="fill-rule:evenodd;clip-rule:evenodd;fill:#FFFFFF;" d="M477.895,651.406c160.249-64.697,237.708-247.052,173.011-407.3
	C586.208,83.856,403.854,6.397,243.605,71.094C83.356,135.792,5.897,318.146,70.594,478.395
	C135.292,638.644,317.646,716.103,477.895,651.406"/>
<path style="fill-rule:evenodd;clip-rule:evenodd;fill:#002252;" d="M348.769,590.076c-60.884-3.188-117.5-30.189-158.296-75.495
	c-40.514-44.992-61.714-104.849-58.549-165.312c3.188-60.884,30.189-117.5,75.495-158.296
	c44.992-40.514,104.849-61.714,165.312-58.549c60.884,3.188,117.5,30.189,158.296,75.495
	c40.514,44.992,61.714,104.849,58.549,165.312c-3.188,60.884-30.189,117.5-75.495,158.296
	C469.089,572.042,409.232,593.241,348.769,590.076"/>
<path style="fill-rule:evenodd;clip-rule:evenodd;fill:#FFFFFF;" d="M349.691,572.463c56.051,2.935,110.883-16.487,152.588-54.042
	c41.829-37.666,66.74-89.891,69.683-146.112c2.935-56.051-16.487-110.883-54.042-152.588
	c-37.666-41.829-89.891-66.74-146.112-69.683c-56.051-2.935-110.883,16.487-152.588,54.042
	c-41.829,37.666-66.74,89.891-69.683,146.112c-2.935,56.051,16.487,110.883,54.042,152.588
	C241.246,544.608,293.47,569.519,349.691,572.463"/>
<path style="fill-rule:evenodd;clip-rule:evenodd;fill:#88D7FF;" d="M350.336,560.134c52.789,2.764,104.403-15.518,143.681-50.887
	c39.397-35.476,62.844-84.633,65.616-137.583c2.764-52.789-15.518-104.403-50.887-143.681
	c-35.476-39.397-84.633-62.844-137.583-65.616c-52.789-2.764-104.403,15.518-143.681,50.887
	c-39.397,35.476-62.844,84.633-65.616,137.583c-2.764,52.789,15.518,104.403,50.887,143.681
	C248.229,533.914,297.386,557.361,350.336,560.134"/>
<path style="fill-rule:evenodd;clip-rule:evenodd;fill:#88D7FF;" d="M417.853,381.65l-71.706-26.098l6.731-4.67l121.546,23.606
	l-59.372,16.25L417.853,381.65z M454.703,332.324l-88.32-3.002l3.883-7.913l136.532-6.62l-50.681,26.542L454.703,332.324z
	 M465.996,281.709l-86.663,21.221l5.178-10.553l120.073-47.837l-28.713,45.254L465.996,281.709z M359.091,415.526l-44.943-42.039
	l7.155-2.113l81.554,50.817l-50.39-0.346L359.091,415.526z"/>
<path style="fill-rule:evenodd;clip-rule:evenodd;fill:#002252;" d="M169.015,421.03c14.41-19.84-0.886-11.034,32.273-33.033
	l5.03-0.979L459.637,92.42l-16.445,122.051l-4.602-0.681l-1.252,6.814l-82.322,67.67l80.363-57.006l-6.628,36.093l-5.957,56.486
	l10.742,31.546L169.015,421.03z"/>
<polygon style="fill-rule:evenodd;clip-rule:evenodd;fill:#88D7FF;" points="440.151,135.37 431.574,199.029 419.021,190.476 
	233.282,397.962 218.87,398.517 "/>
<path style="fill-rule:evenodd;clip-rule:evenodd;fill:#002252;" d="M191.524,477.014l-23.663,15.672l-6.126,32.671l-40.644-35.897
	l2.058-18.253c-19.23-15.597-0.939-49.248,12.211-63.18c5.94-6.292,12.355-11.628,19.521-15.219l126.648-63.479l25.204-28.067
	l264.261-187.454l-53.558,138.159l-5.193-2.09l-26.573,59.905l91.442-24.785l-114.295,89.191l106.122-5.208l-98.076,44.091
	l39.264,1.646l-81.947,26.03l-0.983,6.154l-28.615,3.247l142.377,8.653l-98.685,36.835l33.133,10.68l-55.201,15.634l26.731,17.373
	l-95.832,5.216l1.132,18.933l-26.849-29.091l-24.363,4.723l10.89-19.739l-90.283,59.762l-3.301,4.197l-4.473,17.642l-26.98,13.846
	l-2.983,17.783l-23.168-28.461l-30.285,18.758l14.982-61.758l23.216-18.008l19.569,3.169l11.334-9.749l21.755-38.92l-10.437-19.641
	C204.402,477.786,197.941,477.588,191.524,477.014"/>
<polygon style="fill-rule:evenodd;clip-rule:evenodd;fill:#EEDCCD;" points="174.28,412.116 161.554,419.061 167.981,411.805 
	205.493,392.935 189.984,410.88 221.007,414.105 202.419,417.739 235.075,438.294 222.34,443.002 210.488,444.101 220.72,453.071 
	196.643,451.436 192.312,435.321 177.873,442.935 184.864,422.217 176.678,423.817 181.347,410.906 "/>
<path style="fill-rule:evenodd;clip-rule:evenodd;fill:#FFFFFF;" d="M154.955,433.713c1.996,5.982,0.344,10.475-5.479,13.265l0,0
	l0,0c6.081-2.171,10.435-0.182,13.279,5.447c-1.996-5.982-0.343-10.475,5.479-13.265l0,0h0
	C162.154,441.331,157.8,439.341,154.955,433.713"/>
<path style="fill-rule:evenodd;clip-rule:evenodd;fill:#88D7FF;" d="M136.042,449.638c-0.174,4.196,0.772,8.111,2.817,11.753
	c-22.739-7.672-2.124-39.402,23.53-58.587l-3.446,7.301l104.208-54.231l-58.441,48.637l38.926,4.517l-19.44,11.872l29.983,19.296
	L226.31,450.27l5.538,12.442c-10.841-0.993-28.315-1.003-39.156-1.995l-27.57-9.883l6.495-19.466l-5.71,3.788l-2.23-3.712
	L162.81,430l9.642-11.682l-16.688,9.516l-7.601,24.277C143.811,456.993,139.56,460.035,136.042,449.638"/>
<path style="fill-rule:evenodd;clip-rule:evenodd;fill:#FFC62E;" d="M144.7,469.127c2.275-2.412,5.049-4.021,8.026-5.306
	c-1.14,1.651-2.281,3.303-3.421,4.954c-1.021,2.397-2.043,4.794-3.064,7.191C145.726,473.686,145.213,471.406,144.7,469.127
	 M139.838,468.999c5.258-6.206,12.22-9.631,20.325-11.195l20.819,6.648l-20.62,14.423l14.028-14.514l-20.082,11.996l-1.693,23.815
	l-14.471-16.158L139.838,468.999z"/>
<polygon style="fill-rule:evenodd;clip-rule:evenodd;fill:#88D7FF;" points="311.502,332.377 316.304,340.131 321.622,310.728 
	536.121,158.574 508.187,230.635 492.343,224.258 343.872,321.764 325.772,370.168 308.756,351.791 220.271,407.604 
	203.255,404.201 "/>
<path style="fill-rule:evenodd;clip-rule:evenodd;fill:#88D7FF;" d="M425.255,405.445l-97.765-2.803l6.125-5.757l147.968-7.262
	l-57.797,25.468L425.255,405.445z M448.216,353.753l-104.154,19.211l2.743-8.617l156.393-42.39l-52.186,40.724L448.216,353.753z
	 M460.869,293.349l-107.656,50.873l3.66-11.493l137.538-82.936l-22.298,50.267L460.869,293.349z M364.9,438.129l-67.173-12.447
	l6.942-3.226l112.318,4.708l-57.855,18.377L364.9,438.129z"/>
<polygon style="fill-rule:evenodd;clip-rule:evenodd;fill:#FFC62E;" points="221.633,557.808 214.276,547.537 193.887,562.797 
	172.373,558.633 159.187,567.656 171.679,564.185 175.843,568.349 155.596,578.495 150.859,596.109 161.269,584.311 
	173.761,580.841 170.291,590.557 180.007,603.049 180.007,591.945 191.111,582.924 194.581,587.781 189.029,598.192 
	204.297,591.251 207.073,581.535 204.297,575.289 "/>
<polygon style="fill-rule:evenodd;clip-rule:evenodd;fill:#88D7FF;" points="240.691,497.45 209.793,545.908 222.044,561.563 
	278.127,525.357 297.185,492.685 248.859,519.911 286.294,466.82 248.859,489.282 231.866,481.902 "/>
<path style="fill-rule:evenodd;clip-rule:evenodd;fill:#88D7FF;" d="M419.025,504.629l-107.234-37.197l67.666,43.305
	L419.025,504.629z M404.644,491.289l57.262-21.374l-150.247-8.082L404.644,491.289z M393.161,525.729L312.023,477.3l41.347,49.6
	L393.161,525.729z"/>
<polygon style="fill-rule:evenodd;clip-rule:evenodd;fill:#EEDCCD;" points="166.476,414.008 206.267,397.024 192.304,411.212 
	218.113,415.598 202.347,417.632 228.584,436.621 207.675,440.151 215.523,451.983 194.715,452.815 177.402,444.492 
	186.734,420.431 179.791,421.327 185.068,410.766 "/>
<polygon style="fill-rule:evenodd;clip-rule:evenodd;fill:#EEDCCD;" points="253.809,531.885 217.549,552.107 215.527,553.235 
	220.22,559.233 222.044,561.563 278.127,525.356 297.185,492.685 276.282,513.574 239.66,531.885 "/>
<path style="fill-rule:evenodd;clip-rule:evenodd;fill:#EEDCCD;" d="M313.037,467.811l86.204,39.872l19.785-3.054L313.037,467.811z
	 M312.611,461.885l120.664,18.717l28.631-10.686L312.611,461.885z M393.161,525.729L312.023,477.3l61.243,49.014L393.161,525.729z"
	/>
<path style="fill-rule:evenodd;clip-rule:evenodd;fill:#EEDCCD;" d="M330.552,399.764l110.53-1.05l40.501-9.091l-147.968,7.262
	L330.552,399.764z M345.433,368.656l86.168-18.947l26.96-5.928l44.637-21.823l-74.199,20.111l-82.194,22.279L345.433,368.656z
	 M355.043,338.476l70.101-36.9l38.411-20.219l30.856-31.563l-68.139,41.088l-69.399,41.847L355.043,338.476z M416.988,427.164
	l-112.318-4.708l-3.471,1.613l81.621,7.938L416.988,427.164z"/>
<polygon style="fill-rule:evenodd;clip-rule:evenodd;fill:#EEDCCD;" points="320.229,354.268 329.052,314.983 491.853,210.609 
	536.121,158.573 365.976,279.266 321.622,310.728 316.304,340.13 311.502,332.377 263.451,364.26 227.766,387.938 222.342,391.537 
	227.026,388.818 257.092,371.364 308.909,341.284 "/>
<polygon style="fill-rule:evenodd;clip-rule:evenodd;fill:#EEDCCD;" points="419.559,177.484 440.151,135.37 273.786,333.21 
	281.53,329.329 302.149,306.368 306.734,301.262 306.921,301.128 "/>
<path style="fill-rule:evenodd;clip-rule:evenodd;fill:#002252;" d="M625.609,438.161l1.715-6.119l-26.911-5.86l-0.52,1.797
	L625.609,438.161z M563.49,217.394l4.786,6.998l12.826-8.772l-7.725-11.294l1.451-8.087l22.345-15.283l8.474,1.612l10.796,15.932
	l-1.54,7.972l-6.955,4.756l-6.244-9.13l2.267-1.55l-4.786-6.997l-13.539,9.26l7.934,11.6l-1.124,7.414l-21.841,14.938l-8.428-1.538
	l-11.137-16.284l1.513-7.473l6.948-4.752l6.244,9.13L563.49,217.394z M627.706,275.974l5.916,0.55l16.307-4.994l3.405,10.929
	l-62.402,19.445l-3.407-10.935l17.57-5.475l-19.811-1.713l-3.684-11.824l28.282,2.424l34.056-22.863l3.515,11.279L627.706,275.974z
	 M643.008,355.95l20.886,4.565l0.104,9.088l-65.529,6.321l-0.128-11.285l21.517-2.423l-24.665-5.446l24.613-6.736l-21.646-1.409
	l-0.131-11.558l65.659,5.076l0.108,9.515L643.008,355.95z M638.298,433.87l-2.492,8.612l15.09,6.329l-3.11,10.367l-61.03-24.744
	l6.058-20.935l64.45,12.931l-3.024,10.827L638.298,433.87z M582.048,505.123l4.416-6.866l-22.241-14.305l5.983-9.303l55.171,35.483
	l-6.153,9.567l-23.297-14.984l-4.246,6.602l23.297,14.983l-6.281,9.765l-55.171-35.483l6.28-9.766L582.048,505.123z
	 M552.797,581.099l14.326-13.17l7.645,8.316l-22.932,21.08l-44.392-48.294l8.606-7.91L552.797,581.099z M465.364,586.809
	l7.068,14.015l9.879-4.982l5.087,10.086l-9.879,4.983l7.315,14.505L502,616.759l5.087,10.086l-27.322,13.779l-29.502-58.495
	l27.213-13.822l4.983,9.88L465.364,586.809z M398.833,607.145l3.161,15.375l10.837-2.229l2.276,11.065l-10.837,2.229l3.272,15.913
	l18.831-3.872l2.275,11.065l-29.973,6.164l-13.195-64.171l29.878-6.233l2.229,10.838L398.833,607.145z M339.558,609.222
	l-5.339,53.879l-11.163-1.106l5.339-53.879l-9.683-0.959l1.13-11.397l30.841,3.056l-1.129,11.397L339.558,609.222z M269.034,592.308
	l-7.967-2.896l-5.31,14.604l12.86,4.675l3.533,7.417l-9.25,25.442l-7.826,3.629l-18.058-6.654l-3.395-7.376l2.879-7.919
	l10.396,3.779l-0.938,2.581l7.967,2.897l5.605-15.415l-13.208-4.802l-3.408-6.68l9.041-24.868l7.746-3.662l18.541,6.741l3.126,6.955
	l-2.876,7.911l-10.395-3.779L269.034,592.308z"/>
<path style="fill-rule:evenodd;clip-rule:evenodd;fill:#002252;" d="M299.681,118.257l7.785-1.359l-7.328-41.963l-7.785,1.359
	L299.681,118.257z M98.412,320.378l0.971-6.327l-27.57-2.582l-0.303,1.869L98.412,320.378z M364.456,94.64l-2.733,27.043
	l-11.516-1.163l6.627-65.571l11.134,1.125l5.72,26.599l2.603-25.758l11.045,1.116l-6.626,65.571l-10.679-1.079L364.456,94.64z
	 M303.788,62.468l6.572,5.094l9.296,53.235l-4.647,6.613l-18.778,3.279l-6.878-4.754l-9.286-53.17l4.477-6.937L303.788,62.468z
	 M228.688,99.703l25.982,47.805l-9.892,5.377l-25.982-47.805l-8.591,4.67l-5.49-10.1l27.352-14.866l5.49,10.1L228.688,99.703z
	 M199.122,171.093l15.992-11.255l6.525,9.272l-25.587,18.007l-37.931-53.895l9.594-6.752L199.122,171.093z M116.079,180.025
	l6.932-9.368l52.978,39.202l-6.932,9.367L116.079,180.025z M119.203,242.812l13.391,12.39l-18.321-1.015l27.343,11.644
	l-4.504,10.577l-60.636-25.821l4.343-10.2l20.11,1.347l-14.933-13.501l4.376-10.276l60.636,25.821l-4.535,10.649L119.203,242.812z
	 M110.538,314.541l-1.443,8.906l15.822,4.482l-1.842,10.705l-63.87-17.274l3.501-21.607l65.847,5.079l-1.701,11.153L110.538,314.541
	z M83.998,390.578l-0.521-8.201l-26.52,1.687l-0.705-11.079l65.772-4.183l0.725,11.394l-27.779,1.767l0.502,7.886l27.779-1.767
	l0.74,11.63l-65.772,4.183l-0.74-11.63L83.998,390.578z"/>
</svg>
