<svg version="1.1" id="Layer_1" xmlns="http://www.w3.org/2000/svg" x="0" y="0" viewBox="0 0 200 200" xml:space="preserve"><style>.ham_st0{fill:#fcfcfc}.ham_st1{fill:#263c51}.ham_st2{fill:#d0d2d3}.ham_st4{fill:#cecece}.ham_st5{fill:#3e7097}.ham_st6{fill:#b5b6b6}.ham_st7{fill:#fcfcfd}.ham_st8{fill:#fdfdfd}.ham_st9{fill:#ced0d2}.ham_st11{fill:#b5b5b5}</style><path class="ham_st0" d="M.8 116.1h38.5c.3 0 .6.2.7-.1.2-.4 0-.6-.1-.9a278 278 0 01-23-50.8c0-.3-.1-.5.3-.7 4-2 8-4.3 12-6.2a186.6 186.6 0 0144-14.7 150.3 150.3 0 0123-2.6c1 0 2-.6 3.1-.9 5.3-1.7 10.6-3 16.1-3.6.6 0 .9-.2 1-.9.4-4.1 1.7-8 3.8-11.7l2.9-5.3 2 4.8c.7 2 1.4 3.8 2.5 5.6a14 14 0 005.5 4.7c3.2 1.7 6.6 3 9.9 4.3 8.2 3.5 16.4 7.2 24 12 5 3.3 9.8 7.1 13.4 12a28.9 28.9 0 015.6 17.3c0 .4 0 .7.4 1a33.1 33.1 0 019.8 17c.7 3.1.9 6.3.4 9.5a22.2 22.2 0 01-5.3 9.3c-.3.2-.5.4-.3.7 0 .4.4.2.7.2h7.8l-.6.7-13.3 13.5c-.3.3-.4.6-.4 1v18.5c0 .4-.1.7-.5 1l-7.1 6.6a1 1 0 01-.9.2 1084.5 1084.5 0 00-25.5-3l-11-1-5.3-.4c-.6 0-1 .1-1.3.5-8 8.7-16.6 16.8-26 23.9-2.1 1.6-4.4 3-6.6 4.5-.3.2-.4.1-.6 0a171.7 171.7 0 01-32.9-28.6 1 1 0 00-.8-.3l-16 1.2-14 1.6-12.1 1.6a1 1 0 01-.9-.2l-7.3-6.8c-.3-.3-.4-.6-.4-1v-18.1c0-.5-.1-.8-.5-1.2L1.5 117l-.7-.9zm121.8-89.8l-.3.5a27.5 27.5 0 00-2.6 11.5c0 .5-.2.6-.6.6-1.5 0-3 .2-4.6.4A77.5 77.5 0 0097 43.7a142.2 142.2 0 00-36.6 5.7 182.7 182.7 0 00-38.8 16c-.4.2-.4.3-.3.7l2.2 6.3a267.8 267.8 0 0023.1 47c.1.2.1.3-.2.3H10c2.6 2.7 5.4 5 7.7 7.6l1.5 1.3c.3.2.4.6.4 1V148c0 .4.1.7.4 1l4.7 4.3c.4.4.8.5 1.3.4l10.4-1.4a735.2 735.2 0 0131.8-3c.3 0 .6.1.8.4l3 3.3c8.6 9.3 18 17.5 28.3 24.6.3.2.5.2.9 0l6-4.3c9-7 17.3-15 25-23.5.2-.3.5-.5 1-.4l11.3.8a530 530 0 0121.5 2.2l9.5 1.3c.4 0 .7 0 1-.3l4.5-4.1c.4-.4.6-.8.6-1.4v-18.5c0-.2 0-.5.2-.7l6.5-6.7 2.3-2.4h-12.8l.5-.3c1.4-.6 2.8-1.2 4.2-2a23 23 0 009.4-9.2c.5-1 1-1.9 1.1-3a24 24 0 00-.8-10 30.6 30.6 0 00-9.7-14.4c-.3-.2-.4-.4-.3-.8a24.1 24.1 0 00-4.4-16.2 43.7 43.7 0 00-12.5-11.4c-7.1-4.5-14.7-8-22.4-11.4-3.7-1.5-7.4-3-11-4.7a17.6 17.6 0 01-9.3-10z"/><path class="ham_st1" d="M122.6 26.4l.7 1.3c1.8 4 4.8 6.7 8.7 8.6 3.6 1.7 7.2 3.2 10.9 4.7 7.7 3.3 15.3 6.8 22.4 11.4 4.8 3 9.1 6.6 12.5 11.3 2.4 3.5 4 7.3 4.5 11.5.2 1.6.2 3.2 0 4.7-.2.4 0 .6.2.9 4.6 4 8 8.6 9.7 14.4 1 3.3 1.3 6.6.9 10-.2 1-.6 2-1.1 3a23 23 0 01-9.5 9.2l-4.2 2c-.2 0-.3.1-.5.3h12.8l-2.2 2.4-6.6 6.6c-.2.3-.2.5-.2.8V148c0 .6-.2 1-.6 1.3l-4.5 4.2a1 1 0 01-1 .3 508 508 0 00-31-3.5l-11.3-.9c-.5 0-.7.2-1 .5a198.4 198.4 0 01-31 27.7c-.3.3-.6.2-.9 0A164.3 164.3 0 0169 149.7c-.2-.2-.4-.3-.8-.3a507.6 507.6 0 00-31.8 3c-3.5.3-7 .9-10.4 1.3-.5.1-.9 0-1.3-.3-1.5-1.5-3-3-4.7-4.4-.3-.3-.4-.6-.4-1v-18.5c0-.4 0-.7-.4-1l-1.4-1.2c-2.4-2.7-5.2-5-7.7-7.6h36.4c.2 0 .2-.1.1-.3l-.2-.4a267.8 267.8 0 01-22.9-46.7L21.3 66c0-.3 0-.5.3-.7a182.7 182.7 0 0138.8-16A160 160 0 0198 43.5a76.7 76.7 0 0121.1-4.7c.5 0 .6 0 .6-.6 0-4 1-7.8 2.6-11.4l.3-.4zm52.6 72.3s0 .2.2 0h-.2c0-.2-.2-.3-.3-.3a1 1 0 00-.5-.3 64.5 64.5 0 00-16.7-7.5c-.7-.3-1.6-.6-2.4-.6.1.3.1.5-.3.3l-1-.4c-3-1-6.2-1.2-9.4-1v-.2l1-1.2c1.5-1.6 3.2-2.9 5-4h.1v-.1h-.1c-.2 0-.3.1-.4 0 0-.2.1-.3.3-.3 1.7-.7 3.4-1 5.2-.8 2.2.3 4 1.4 5.8 2.5 5 3.3 9.3 7.4 13.2 11.9.6.6 1 1.4 1.3 2.2h-.2c0 .2 0 .1.2.2l.4.5a26.6 26.6 0 012 16 21.9 21.9 0 009.2-6.9 10 10 0 002.2-6.7c-.1-3.3-.8-6.5-2.3-9.5-1.9-4-4.7-7.1-8-9.8-.2-.4-.6-.1-.7-.4-.2-.4-.6-.5-1-.6l-2.4-.4-11.2-2c-.7-.2-.7-.2-.5.6l1.1 3.3c-.3 0-.5-.2-.7-.3-2-1.2-4-2.3-6.1-3a9.1 9.1 0 00-7.7.5 28.8 28.8 0 00-11 10.8l2.8-.3 4.8.2a78.3 78.3 0 0123.7 5.5l4.2 1.9.4.2zm-25.8-29.5c-.4-.5-1-.6-1.4-.3-.3.3-.2.6 0 1-1.4.2-2.7-1-2-2.4.5-1.2 0-1.9-.8-2.7l-2.3-2.5c-.2 1.7-.3 3.3 0 4.8a5.2 5.2 0 002.8 4 8 8 0 004.7.6c.8-.1 1.6-.2 2.4-.6-1-.6-2-1.1-2.8-1.8-.2-.2-.4 0-.6 0zm-34.2 84v.1a27.4 27.4 0 01-14.8 8.3 27.6 27.6 0 01-14-8c0-.2-.1-.4-.3-.3v.1a47.4 47.4 0 0014.2 13.7c.3.2.5.1.8 0a51 51 0 0014.3-13.8h-.2zm19.5-33.5h3.6c.4 0 .5 0 .4-.5-1.3-5-1.2-10-.8-15.1 0-1.2.2-2.4.3-3.5h-.2a24.9 24.9 0 00-6.3 13.5l-.1-.3a23.3 23.3 0 01.1-17.7c.1 0 0 0 0 0-.4 0-.7.5-1 .8a20 20 0 00-4.4 7c-.1.2-.1.4-.4.7-.3-8.2 2-15 8.8-20.2h-.6c-2 .5-3.9 1-5.7 1.7-.3.1-.5.3-.7.2v-.2c3-4 6.4-7.4 10.8-9.7 3-1.6 6-2.6 9.5-2.2h.6l-.5-.3c-2.4-1-5-1.7-7.5-2.2-2.7-.6-5.5-.8-8.3-.5l-2.7.5c1.5-1.2 3.2-1.8 5-2.3 1.7-.5 3.5-.7 5.3-.7l-.1-.3c-2.1-2.8-2.6-6-2-9.3.1-.4 0-.7-.3-1a13.3 13.3 0 00-8.4-3.5v-.1h4.8c2.8.4 5.4 1 7.8 2.4 2.8 1.7 5.1 3.9 7.4 6.2 1.9 2 3.8 3.9 5.8 5.6 1.2 1 2.5 1.5 4 1.6 1.5 0 2-.5 2.3-1.8.2-.5.1-1 .2-1.5 1 1.6 1.3 3.2.9 4.9-.1.4 0 .7.2 1 1.7 1.8 3.7 3 6 4 1.2.4 2.3.9 3.6.7 1.2-.1 2-.7 2.5-1.8h.1a4 4 0 01-1.4 2.6h.4c1 .3 2 .5 3.1.6 1.6.3 1.8 0 1.9-1.6v-.1c0-2.2-.4-4.3-1.2-6.3a28.1 28.1 0 00-8-11c-3.5-3-7.5-5.4-11.5-7.7-2-1.1-4-2.2-6.2-3.2l-.5-.2c-6.2-3-12.6-5.6-18.9-8.5-3.2-1.4-6.5-3-8.6-6.4 0 .9-.3 1.6-.3 2.4-.1 2.2-.3 4.3 1.4 6.2a61 61 0 00-14.3 1.2 81 81 0 00-24.4 9.4C80 56.7 74.4 61 69 65.8L67.8 67l.1.1 10-.7-.3.3a75.4 75.4 0 00-12.4 11.8A57.8 57.8 0 0051.4 108c-.1 1-.1 2 .6 3 .8 1 1.4 2.1 2.1 3.2.1.1.1.3.4.3a51 51 0 018.8-14.5c3.8-4.3 8.2-7.8 13.4-10.2L75.3 92a62.6 62.6 0 00-10.4 27.3c0 .4 0 .6.5.6.3 0 .5-.2.7-.5 1.5-2.6 3.2-5 5.2-7.2 1.8-2 3.8-4 6-5.3a52 52 0 00-4.4 12.5c0 .4.1.5.5.5h14.4c.2 0 .4 0 .6-.3 0 .2.1.2.3.2H130a298 298 0 014.7 0zm-56.5-66h-.7a165.5 165.5 0 00-46 15.5c-.4.2-.5.4-.3.9a265 265 0 0016.4 35c0 .2.1.5.4.5A65.1 65.1 0 0167 71l-9.4.6c.1-.3.3-.4.4-.5l6.4-6c4.2-4 8.7-7.8 13.6-11 0-.2.2-.2.2-.3h.2v-.1h-.2zm58.2 75.5c.2.3.1.5.2.7 0 1.2.1 2.5.3 3.7l1.5 11.5c0 .4.2.5.6.5l4.4.4c.5 0 .7 0 .7-.6l1.6-12.5 1-8.4c0-.5 0-.6-.5-.6h-3c-.4 0-.5.2-.6.6 0 .6 0 1.2-.2 1.8l-1 10.1-.3 4.5v-.3l-1-9.5-1-6.7c0-.3-.1-.5-.5-.5h-4.2c-.4 0-.5 0-.6.5 0 1-.3 1.9-.4 2.9-.4 3-1 5.9-1.2 8.8l-.3 4.2c-.2-2.4-.3-4.8-.7-7.2l-1-8.6c0-.4-.2-.6-.6-.6h-4.3c-.2 0-.5-.1-.6.2 0 .3 0 .6.3.9l1.2 1c.2 0 .3.2.3.5l1.3 9.7 1 8.3c.1.3.1.5.5.5l4.8.2c.4 0 .5 0 .5-.4l.2-1.6L136 133c.2-1.2.2-2.4.3-3.7zm18.8-9.5h18.2c.4 0 .6 0 .7-.5 0-.8.3-1.5.5-2.2 1.3-5 1-10-.9-14.7 0-.4-.3-.6-.6-.7a111 111 0 00-5.5-2.4c-.5-.2-.7-.1-1 .4-2.4 5-5.2 10-8 14.8l-3.3 5.3zM181 124H168c-.3 0-.4 0-.6.2-.5.7-1 1.4-1.7 2-.2.3-.3.6-.3 1v6c-.2 1.7.2 3 1.5 4l.6.7c.2.3.4.4.8.5l4.3.3c.3 0 .5 0 .4.5v4.6c0 .4-.1.4-.4.4l-2.6-.3c-.3 0-.4-.2-.4-.5V142c0-.4-.1-.5-.4-.5l-3.3-.3c-.4 0-.5 0-.5.4v3.4a178.4 178.4 0 013 3.6l5.7.8c.4 0 .6 0 .9-.3l2-1.8c.2-.2.2-.5.2-.8v-9.1c0-.3 0-.5-.2-.8l-2-2.2a1 1 0 00-.8-.4l-4.1-.2c-.5 0-.5-.2-.5-.6v-2.3c0-.7-.2-1.1-.9-1.3l-2-1h4.6c.6 0 1.3-.1 1.6.2.4.3.1 1 .1 1.5s.2.5.5.6h3.3c.3.1.5 0 .4-.4v-3.1c0-.4.1-.6.4-.8l3.3-2.6zM25 129v-.3h4.7c.5 0 1.2-.2 1.6 0 .3.4 0 1 .1 1.6 0 .4.1.5.4.5l3.4-.2c.3 0 .4 0 .4-.4v-2.3a2 2 0 00-.7-1.9c-.6-.4-1-1-1.6-1.5-.2-.3-.5-.5-1-.5H20l3.4 2.6c.3.2.5.5.5 1v6c0 1-.3 2 0 2.9.4.8 1.3 1.4 2 2v.2c.3.2.5.3.8.2l4.3-.3c.3 0 .5 0 .5.4v4.6c0 .2 0 .4-.4.4-.9 0-1.8.2-2.6.3-.4 0-.5-.1-.5-.5v-1.4c0-.3 0-.5-.4-.4l-3.3.3c-.3 0-.5.2-.4.5v3.8c0 .3 0 .4.2.6l2 1.9c.4.3.7.4 1.1.3l5.3-.7c.4 0 .6-.2.9-.5l2-2.2c.2-.3.3-.5.3-.8v-8.5c0-.4 0-.6-.3-.8a53 53 0 01-2-1.8c-.2-.2-.5-.3-.9-.3-1.3 0-2.6 0-3.8.2-.6 0-.7-.2-.7-.7v-2.5c0-.5 0-.7-.4-.8l-2.5-1zm129.6 7.2l.2.4 3.3 10.4c.1.3.2.5.6.5l4 .5c.7 0 .7 0 .7-.7 0-.4-.3-.5-.5-.6-.8-.5-1.2-1.2-1.4-2l-3.4-9.4v-1l4-9.6v-.6h-4c-.4 0-.5.1-.5.4l-2.8 8c0 .1 0 .3-.3.4v-8.3c0-.4 0-.5-.5-.5h-4.6c-.2 0-.6-.2-.7.1 0 .4-.1.8.3 1l.8.8c.5.3.7.7.7 1.3V146c0 .4 0 .6.6.6l3 .3c.5.1.5 0 .5-.5V136zm-48-2v-9.5c0-.5 0-.7-.6-.7h-3c-.5 0-.7.2-.7.6v6.2c0 .4 0 .6-.5.6h-2.2c-.5 0-.6-.2-.6-.6v-6.2c0-.5 0-.6-.5-.6h-4.8c-.2 0-.5 0-.6.2 0 .3-.1.7.3 1l1 .6c.4.3.4.6.4 1v17c0 .5 0 .6.5.6h3.2c.5 0 .6-.2.6-.7v-7.5c0-.4 0-.6.5-.5h2.1c.5 0 .7 0 .7.6v7.5c0 .5 0 .6.5.6h3.1c.5 0 .6-.2.6-.6V134zm-53.5-5.5l.3-.1 8-.1c.2 0 .5 0 .6-.2l1.8-3.3c.4-.6.1-1-.6-1H52.4c-.5 0-.6.2-.6.7v21c0 .8 0 .8.8.8l10.6-.9c.8 0 .8-.1.7-.8l-.2-.6-1.4-2.5c-.2-.4-.4-.5-.8-.4-1.7 0-3.3.2-5 .3-.3 0-.4 0-.4-.4V137c0-.5.1-.5.5-.5l4.3-.2c.4 0 .5-.1.5-.5V133c0-.4 0-.5-.5-.5l-4.4.1c-.3 0-.4 0-.4-.4v-2.2c0-.3-.1-.5-.5-.6l-2.4-.7zm61.4-4.6h-3.8c-.2 0-.5-.2-.5.1 0 .3-.2.6.2.9l.8.6c.7.3.8.9.6 1.6l-3 16.5c-.2.6 0 .7.5.7h3.4c.5 0 .6-.1.6-.5l.5-3.1c0-.4.2-.5.5-.5h2.5c.4 0 .5.2.5.6l.6 3.2c0 .3 0 .5.4.5l3.9.1c.4 0 .5-.1.4-.5l-3.8-19.8c0-.3-.2-.4-.5-.4h-3.8zm-47.3 4.4v-.1h.5l8-.1c.1 0 .4 0 .5-.2l1.8-3c.3-.7 0-1-.7-1H66.6c-.5 0-.6 0-.6.5v20.2c0 .5 0 .6.6.6l10.9-.6c.7 0 .7 0 .7-.7l-.2-.5-1.5-2.6c-.2-.3-.4-.4-.7-.4l-5 .2c-.4 0-.5 0-.5-.5v-3.7c0-.4 0-.6.6-.6H75c.4-.1.6-.2.5-.6v-2.7c0-.5-.1-.6-.6-.6l-4.2.1c-.4 0-.5 0-.5-.4v-2c0-.4-.1-.6-.4-.7l-2.6-.6zm-21.5 8.5v-7.7c0-.4.2-.5.6-.6 1-.2 1.8.1 2.1 1.2l.4.7c.2.4.4.3.7.3.3 0 .2-.3.2-.5v-6c0-.3-.1-.4-.5-.4H38.2c-.3 0-.5.1-.5.5v6.4s0 .3.2.3.5.1.6-.1l.4-1c.3-1 1-1.4 2-1.3.6 0 .7.1.7.6V144c0 1 0 1.8-.9 2.4l-.1.1c-.1.3-.2.7 0 1 0 .2.4 0 .6 0l5-.5c.6 0 1-.6.6-1.1a1 1 0 00-.3-.3c-.6-.3-.7-.8-.7-1.4v-7.3zm36-1.6v8.7c0 .3 0 .6.4.6l8.6-.2c.3 0 .4-.2.4-.5v-3.3c0-.4-.1-.5-.5-.5l-4.1.1c-.6 0-.7-.1-.7-.7v-14.8c0-.6 0-.8-.6-.8h-4.5c-.2 0-.5-.1-.6.2 0 .4-.1.7.3 1l.9.6c.4.3.5.6.5 1v8.6zM158.5 98l-.5.1c-2 .7-4 1.8-5.5 3.3-.6.5-1.2 1-1.6 1.6l-2.6 5a66.1 66.1 0 00-4.4 11.2c0 .2-.2.3 0 .5.4.2 1.8 0 2-.5 4-5.8 7.7-12 11-18.2l1.6-3zm9-5.6c-.2-.3-.4-.4-.6-.5l-9-6c-.7-.3-1.2-.4-1.8 0-.7.3-1.4.6-2 1.2 0 0-.2.2-.1.4 0 .2.2.1.4.2h.7c2.2.5 4.2 1.3 6.2 2l6.1 2.7zM86 153.2v-.1h-.1v.1h.1zm48.8-68.8z"/><path class="ham_st2" d="M130 119.7a8 8 0 01-.5 0H99.3v-.2c-2-2-3.9-4.3-5.6-6.6-.2-.3-.3-.1-.4.1-.3 1-.5 2.1-.5 3.2-.1 1.2-.3 2.3 0 3.5h-1.9l-1-4.3c-.4-2.4-.7-4.8-.7-7.2v-3.8c-2 2.1-3.5 4.5-4.8 7.1a42.8 42.8 0 00-2.8 8c-.3-5.2.3-10.4 1.4-15.6A122 122 0 0187 88.7c-3.9 3.8-6.8 8.3-10 12.9v-.4c.6-2.2 1.1-4.5 1.8-6.7 1.8-5.6 4-11 6.6-16.3 0-.2.2-.3.1-.5-.1-.1-.3 0-.4 0-3.3 1.4-6.6 2.8-9.9 4l-3.5 1.4a57.8 57.8 0 0111.1-14 100 100 0 0113-10l2.7-1.8-7.8 1.2c0-.3.1-.4.2-.5 2.5-2.6 5.6-4.5 8.8-6.1 2.3-1.3 4.8-2.3 7.2-3.4 4.5-1.9 9-3.2 14-3.3 2.8 0 5.8-.1 8.7.1l2 .1c-1-.7-2-1.4-2.7-2.3-.7-1-1.4-1.9-1.9-3.2 1.2.8 2.4 1.4 3.5 1.9l8.1 2.7c4.3 1.5 8.5 3 12.7 4.7.1 0 .3.2.4 0 2.1 1 4.1 2 6.2 3.2 4 2.3 8 4.7 11.4 7.7 3.5 3.1 6.4 6.6 8 11 .8 2 1.2 4 1.3 6.2v.2c0 1.6-.3 1.9-1.9 1.6l-3.2-.5-.3-.1a4 4 0 001.4-2.7c.1 0 .1-.1 0-.1v.1h-.5c-1.4 1-3 1-4.5.6-2-.5-3.5-1.5-5-2.9-.2-.2-.3-.5-.3-.9 0-1-.2-2.1-.5-3.1-.4-1.5-1.1-2.8-2.2-3.8-.2-.3-.4-.4-.6 0l-.5.9c-.7.9-2 1.7-3.4 1-.8-.3-1.5-.7-2.2-1.4-2.1-2-4-4.2-6.4-6a30 30 0 00-8.5-4.8c-3-1-6-1.4-9-1.2-.5 0-1-.1-1.5.3h-.6c-.1-.1-.2-.1-.4 0 .1.2.3.1.4.1 3.2.3 6.2 1.3 8.5 3.5.3.3.4.6.3 1-.6 3.4-.1 6.6 2 9.4l.1.3c-1.8 0-3.6.1-5.3.6-1.8.5-3.5 1.2-5 2.4h-.2c0 .3.1.2.2.2a24.8 24.8 0 018.3 2c.1 0 .4 0 .3.2 0 .2-.2.2-.3.2a29.4 29.4 0 00-16.1 16c-.2.5-.5 1-.6 1.7 1.5-1.2 2.9-2.3 4.8-3a31.4 31.4 0 00-.9 27.2c.2-3.1.3-6.3 1.6-9.3l.2 1.9a32 32 0 001.4 6.7l1.7 4.1z"/><path d="M71.8 83.1c1.2-.3 2.4-.9 3.5-1.3l9.9-4c.1 0 .3-.2.4 0l-.1.4a119.2 119.2 0 00-8.3 23v.4c3-4.6 6-9 10-12.9-1.8 5-3.2 10-4.2 15.2-1 5.2-1.7 10.4-1.4 15.6.7-2.7 1.6-5.4 2.8-8 1.3-2.6 2.8-5 4.7-7.1v3.8c0 2.4.4 4.8.8 7.2l1 4.3h-2.2c-.2 0-.3 0-.3-.2-.2.2-.4.2-.6.2H73.4c-.3 0-.5 0-.4-.5 1-4 2.3-8 4.1-11.8.1-.2.3-.4.3-.7a27.5 27.5 0 00-6.1 5.3c-2 2.3-3.7 4.7-5.2 7.3-.2.3-.4.4-.7.4-.5 0-.6-.2-.5-.5a62.9 62.9 0 0110.4-27.3l1.4-2.1A38.6 38.6 0 0063.3 100a50.9 50.9 0 00-8.8 14.5c-.3 0-.3-.2-.4-.3-.7-1.1-1.3-2.2-2.1-3.2-.7-1-.8-2-.6-3a57.7 57.7 0 0113.8-29.5C68.9 74 73 70 77.6 66.7l.3-.2-10 .6V67l1.2-1.2c5.3-4.8 11-9 17-12.6a80.5 80.5 0 0133.6-10.6c1.7-.1 3.4-.2 5.2 0-1.7-1.8-1.5-4-1.4-6.2l.3-2.3c2.1 3.3 5.3 4.9 8.6 6.4 6.3 2.8 12.7 5.4 19 8.4l.4.3c-.1.1-.3 0-.4 0-4.2-1.7-8.4-3.2-12.7-4.7-2.7-1-5.4-1.7-8-2.8-1.2-.5-2.3-1-3.6-1.8a12 12 0 002 3.2c.7.9 1.6 1.5 2.6 2.3l-2-.1c-3-.3-5.8-.2-8.7 0-4.9 0-9.5 1.3-14 3.2-2.4 1-4.9 2-7.2 3.3A33.5 33.5 0 0091 58a1 1 0 00-.2.5l7.8-1.2-2.8 1.8a86.7 86.7 0 00-22.3 21c-.7 1-1.3 2-1.7 3z" fill="#b6b6b6"/><path class="ham_st4" d="M78.3 53.8l-.3.2c-4.8 3.3-9.3 7-13.6 11.1l-6.4 6c-.1.1-.3.2-.4.5L67 71a65.1 65.1 0 00-19 34.6c-.3 0-.3-.3-.4-.4-6.3-11.3-11.8-23-16.4-35.1-.2-.5 0-.7.4-.9a167 167 0 0146-15.4h.6z"/><path class="ham_st5" d="M179.4 115c-.3.3-.6.4-1 .5a26.6 26.6 0 00-2-16l-.4-.4v-.2c-.2-.8-.7-1.6-1.3-2.2-4-4.5-8.1-8.6-13.1-11.9a15.6 15.6 0 00-5.9-2.5c-1.8-.3-3.5 0-5.2.8-.1 0-.3 0-.3.3 0 .1.3 0 .4 0a27.7 27.7 0 00-5 4l-1 1.4h-.1c0 .1 0 0 .1 0 3.2 0 6.4 0 9.4 1.1l1 .4c.4.2.4 0 .3-.3a64.5 64.5 0 0114.2 5.2l5 2.9.3.3-4.2-1.8a75 75 0 00-23.7-5.5c-1.6 0-3.2-.3-4.8-.2-1 0-1.8.2-2.8.3.5-1.2 1.2-2 1.9-3 2.4-3.3 5.5-5.8 9-7.8 2.5-1.4 5.1-1.4 7.8-.6 2.2.8 4.2 1.8 6.1 3l.7.4-1-3.3c-.3-.8-.3-.8.5-.7l11.1 2.1 2.4.4c.4.1.8.2 1 .6.1.3.6 0 .6.4 0 .3 0 .3.7 1 2.7 3 4.8 6.3 6.2 10.1l.2.7-2.6-2.4-.1-.1c-.1 0 0 .1 0 .2 1.7 2.7 2.8 5.6 3.2 8.8-.4-.7-.6-1.4-1.1-2l-.1.1.1.6c.7 2.6.7 5.2-.3 7.7-1.1 3-3.2 5.3-5.7 7.1-.2.2-.5.3-.5.6zm-23.8-24.5l.2.1h-.2zm21.6.2v0c-.3-1.7-1-3.1-2-4.4-.3-.5-.9-.8-1.6-1l-.4.2c-.1.2 0 .3.2.4l1.6 1.7c.8.9 1.4 2 2.2 3zm-28-7l.2.1c.1 0 .3 0 .2-.2-.1 0-.3 0-.3.2z"/><path class="ham_st6" d="M130 119.7l-1.7-4.2c-.6-2.2-1.2-4.4-1.4-6.7 0-.6 0-1.2-.2-1.8-1.3 3-1.4 6.1-1.6 9.3A31.5 31.5 0 01126 89c-2 .6-3.3 1.7-4.8 3 0-.8.4-1.3.6-1.8a29.2 29.2 0 0116.1-16l.3-.1c0-.2-.1-.3-.3-.3a24.8 24.8 0 00-8.3-2s-.3.1-.2 0l.2-.2 2.7-.5c2.8-.3 5.5 0 8.3.5a45.6 45.6 0 018 2.5h-.6c-3.5-.4-6.6.6-9.5 2.2a31.8 31.8 0 00-10.7 9.7l-.1.2s-.2 0 0 .1l.7-.2c1.8-.7 3.8-1.2 5.7-1.7h.6c-6.8 5-9 12-8.8 20 .3-.1.3-.4.4-.6 1-2.6 2.4-5 4.4-7 .3-.3.6-.7 1-.8-.6 1.6-1.2 3.2-1.5 4.9-.8 4.4-.2 8.7 1.4 12.8l.1.3c.9-5.2 2.7-9.8 6.3-13.6l.2.1-.3 3.5c-.4 5-.5 10.1.8 15 .1.6 0 .7-.4.7h-3.6l-.6-4a8 8 0 00-1.1 4l-3-.1z"/><path class="ham_st7" d="M136.4 129.2l-.3 3.7-1.3 10.3-.2 1.6c0 .4-.2.5-.5.5l-4.9-.3c-.3 0-.3-.2-.3-.4l-1.1-8.3-1.3-9.8c0-.2-.1-.4-.3-.5l-1.3-1c-.3-.2-.2-.6-.2-.9 0-.3.4-.1.6-.1h4.3c.4 0 .5 0 .6.5l1 8.6.7 7.3.3-4.2c.2-3 .8-6 1.2-9l.4-2.8c0-.4.2-.4.5-.4h4.2c.5 0 .6.1.6.5l1 6.6 1 9.6v.2l.2-4.4 1.1-10.1.2-1.9c0-.4.2-.5.6-.5h3c.5 0 .6 0 .5.6l-1 8.4-1.6 12.4c0 .6-.2.6-.7.6l-4.4-.3c-.4 0-.5-.2-.6-.6l-1.6-11.5-.3-3.7c0-.2.1-.4-.1-.7z"/><path class="ham_st8" d="M155.3 119.7l3.2-5.3c3-4.8 5.7-9.8 8.2-14.8.2-.5.4-.6.9-.4 1.8.8 3.7 1.5 5.5 2.4.3.1.5.3.6.7 1.8 4.8 2.1 9.7.8 14.7l-.5 2.2c0 .4-.2.5-.7.5h-18zM181 124l-3.3 2.6c-.3.2-.4.4-.4.8v3.1c0 .4 0 .5-.5.5l-3.2-.1c-.3 0-.5-.1-.5-.6s.3-1.2-.1-1.5c-.4-.3-1-.1-1.6-.1h-4.6l2 .9c.7.2 1 .6.9 1.3v2.3c0 .4 0 .5.5.6l4.1.2c.3 0 .5.1.7.4l2 2.2c.3.2.3.5.3.8v9c0 .4 0 .7-.3.9l-2 1.8c-.2.2-.4.3-.8.3l-5.6-.8c-.3 0-.4-.2-.6-.3-.7-1-1.5-1.8-2.2-2.6a.9.9 0 01-.3-.7v-3.4c0-.3 0-.5.5-.4l3.2.3c.4 0 .5.1.5.5v1.4c0 .3 0 .5.4.5l2.6.3c.3 0 .4 0 .4-.4V139c0-.3-.1-.4-.4-.4l-4.3-.3a1 1 0 01-.8-.5l-.6-.6c-1.3-1-1.7-2.4-1.6-4 .2-2 0-4 0-6 0-.5.2-.8.4-1l1.7-2c.2-.2.3-.4.6-.4h12.7l.2.1zM25.1 128.9l2.5 1c.4.1.5.3.5.7v2.6c-.1.5 0 .7.6.7l3.8-.2c.4 0 .7 0 1 .3a53 53 0 001.9 1.8c.2.2.3.4.3.7v8.6c0 .3 0 .5-.3.7l-2 2.3c-.3.3-.5.4-.9.5l-5.3.7c-.4 0-.7 0-1-.3l-2-2c-.2 0-.3-.2-.3-.5v-3.8c0-.4 0-.5.4-.5l3.3-.3c.4 0 .4 0 .4.4v1.4c0 .4 0 .5.5.5.9-.2 1.7-.3 2.6-.3.3 0 .4-.2.4-.5V139c0-.4-.2-.5-.5-.4l-4.3.3c-.3 0-.5 0-.7-.2l-.1-.1c-.7-.7-1.6-1.3-2-2.2-.3-.8 0-1.9 0-2.8v-6.1a1 1 0 00-.5-1L20 124h12.4c.5 0 .8.1 1 .5l1.6 1.5c.6.5.8 1 .7 1.9v2.3c0 .3 0 .4-.4.4l-3.4.1c-.3 0-.4 0-.4-.4 0-.5.2-1.3-.1-1.5-.4-.3-1 0-1.6 0h-4.7v.2zM154.7 136v10.3c0 .5 0 .7-.6.6l-3-.3c-.4 0-.6-.2-.6-.6V127c0-.5 0-1-.6-1.3l-.8-.7c-.4-.2-.3-.6-.3-1 0-.3.4-.1.6-.1h4.7c.5 0 .6 0 .5.5v8.3c.3-.1.2-.3.3-.5 1-2.6 1.8-5.3 2.7-8 .1-.2.2-.4.6-.4h4a2718.6 2718.6 0 01-4 10.1v1.2l3.3 9.3c.3.9.7 1.6 1.5 2 .2.2.5.3.5.6 0 .8 0 .8-.7.7l-4-.4c-.4 0-.5-.2-.6-.5l-3.3-10.5-.2-.3zM106.7 134.1v9.6c0 .4 0 .6-.6.6H103c-.4 0-.6-.1-.6-.6v-7.5c0-.5 0-.7-.6-.6h-2c-.5 0-.6 0-.6.5v7.5c0 .5-.1.7-.6.7h-3.2c-.4 0-.5-.1-.5-.5v-17c0-.5 0-.8-.5-1l-1-.8c-.3-.2-.2-.6-.2-.9.1-.3.4-.1.6-.1h4.8c.4 0 .6 0 .6.5v6.2c0 .4 0 .6.5.6h2.2c.5 0 .6-.2.6-.6v-6.2c0-.4 0-.6.6-.6h3c.5 0 .6.2.6.7v9.5z"/><path class="ham_st7" d="M53.2 128.6l2.4.7c.4 0 .5.2.5.6v2.2c0 .3 0 .4.4.4l4.4-.1c.4 0 .5 0 .5.5v2.9c0 .4-.1.5-.5.5l-4.3.2c-.4 0-.5 0-.5.5v4c0 .4 0 .5.4.4 1.7 0 3.3-.1 5-.3.4 0 .6.1.8.5l1.4 2.5.2.5c.1.8 0 .8-.7 1l-10.6.7c-.8.1-.8.1-.8-.7v-21c0-.5.1-.7.6-.7h10.9c.7 0 1 .3.6 1-.5 1.1-1.2 2.2-1.8 3.2-.1.3-.4.2-.6.2l-8 .2h-.3v.1z"/><path class="ham_st8" d="M114.6 124h3.7c.4 0 .5 0 .6.4l3.8 19.8c0 .4 0 .5-.4.5l-3.9-.2c-.3 0-.4-.1-.5-.4l-.5-3.3c0-.3-.1-.5-.5-.5h-2.5c-.3 0-.4.1-.5.4l-.5 3.1c0 .4-.2.6-.6.6h-3.4c-.5 0-.7-.2-.6-.8l3-16.4c.2-.8.2-1.3-.6-1.7l-.8-.6c-.3-.2-.2-.5-.1-.8 0-.3.3-.2.5-.2h3.8zm1.1 12.5h1c.4 0 .5 0 .4-.4l-.3-2.2-.9-5.6c0-.4-.2-.4-.5-.4s-.3.1-.4.4l-.7 6.7c0 .5-.3 1 0 1.4.2.3.9 0 1.4 0zM67.3 128.4l2.5.6c.4.1.5.2.5.6v2c0 .5 0 .5.5.5H75c.5 0 .7 0 .6.5v2.7c0 .4 0 .5-.5.5l-4.2.1c-.5 0-.6.2-.6.6v3.7c0 .4.1.5.5.5l5-.2c.3 0 .5 0 .7.4.4.9 1 1.7 1.5 2.6l.1.5c.1.7 0 .7-.7.7l-10.8.6c-.6 0-.6-.1-.6-.6v-20.2c0-.5 0-.6.5-.6h11c.6 0 1 .4.6 1l-1.8 3.1c-.1.3-.4.2-.6.2h-8-.4v.2zM45.8 137v7.2c0 .6.1 1 .7 1.4l.3.3c.3.5 0 1-.5 1l-5.1.6c-.2 0-.5.2-.6 0-.2-.3-.2-.7 0-1l.1-.1c1-.6 1-1.5.9-2.4v-14.7c0-.5-.1-.5-.6-.6-1.1-.1-1.8.3-2 1.4l-.5.9c-.2.2-.4.2-.6.2-.3 0-.2-.3-.2-.4v-6.4c0-.4.2-.4.5-.4h11.1c.4 0 .5 0 .5.4v6s0 .3-.2.4c-.3 0-.6 0-.7-.3l-.4-.7c-.3-1-1-1.4-2.1-1.2-.4 0-.5.2-.5.6v7.7z"/><path class="ham_st7" d="M81.9 135.3v-8.6c0-.4-.1-.7-.5-1l-1-.6c-.3-.3-.3-.6-.2-1 0-.3.4-.1.6-.2h4.5c.6 0 .7.2.7.8v14.8c0 .5 0 .7.6.7h4c.5-.1.6 0 .6.4v3.3c0 .3 0 .4-.4.5-2.9 0-5.7 0-8.5.2-.5 0-.4-.3-.4-.6v-8.7z"/><path class="ham_st9" d="M115.3 153.4a52 52 0 01-14.2 13.7c-.3.2-.5.2-.8 0a47.3 47.3 0 01-14.2-13.7v-.1c.2 0 .2.1.3.3 3.8 4.1 8.6 6.7 14 8 .3.1.5 0 .8 0a27.4 27.4 0 0014-8.3h.1z"/><path d="M158.4 98l-1.6 3c-3.3 6.3-7 12.4-11 18.2-.2.4-1.6.7-2 .5-.2-.2 0-.3 0-.5a65.8 65.8 0 017-16.2 16.4 16.4 0 017-5h.6z" fill="#adadad"/><path class="ham_st11" d="M129.6 54.4c.5-.4 1-.2 1.5-.3 3-.1 6.1.2 9 1.2 3.1 1.1 5.9 2.8 8.5 4.8 2.3 1.9 4.3 4 6.4 6 .7.7 1.4 1.2 2.2 1.5 1.5.6 2.7-.2 3.4-1l.5-1c.2-.3.4-.3.6 0 1.1 1.1 1.8 2.4 2.2 3.8.3 1 .6 2.1.5 3.2 0 .3.1.6.4.9 1.4 1.3 3 2.4 5 2.9 1.5.4 3 .3 4.4-.6h.4c-.4 1.1-1.3 1.7-2.5 1.8-1.3.2-2.5-.3-3.6-.7-2.3-1-4.3-2.2-6-4-.3-.3-.4-.5-.2-1 .4-1.7.1-3.3-1-5v1.6c-.4 1.4-1 1.8-2.5 1.8s-2.8-.7-3.9-1.6c-2-1.7-4-3.7-5.8-5.6a34.4 34.4 0 00-7.4-6.1c-2.4-1.4-5-2.1-7.8-2.4-1.4-.1-2.8 0-4.3-.2z"/><path class="ham_st0" d="M179.4 115c0-.2.3-.3.5-.5 2.5-1.8 4.6-4 5.7-7a12.6 12.6 0 00.2-8.3V99c.6.6.8 1.3 1.1 2-.3-3.3-1.4-6.2-3.1-8.9h.1l2.6 2.3-.2-.7c-1.4-3.7-3.5-7-6.2-10-.7-.8-.7-.8-.7-1 3.4 2.6 6.2 5.8 8.1 9.7a24 24 0 012.3 9.5 10 10 0 01-2.2 6.7 22 22 0 01-8.2 6.4zm7.1-20.2z"/><path class="ham_st5" d="M149.4 69.3c.2 0 .4-.2.6 0a20 20 0 002.8 1.8c-.8.4-1.6.5-2.4.6a8 8 0 01-4.7-.7 5.2 5.2 0 01-2.8-3.9c-.3-1.5-.2-3.1 0-4.8.8 1 1.5 1.8 2.3 2.5.8.8 1.3 1.5.7 2.7-.6 1.3.7 2.6 2 2.3 1 .5 1.5.3 1.5-.5z"/><path class="ham_st11" d="M92.7 119.7c-.2-1.2 0-2.3 0-3.5.1-1 .2-2.1.6-3.2.1-.2.2-.4.4 0a66 66 0 005.5 6.5l.1.2h-6.6z"/><path class="ham_st0" d="M167.3 92.4c-2-1-4-1.8-6.1-2.7-2-.7-4-1.5-6.1-2h-.8c-.2 0-.3 0-.4-.2 0-.2 0-.3.2-.4.5-.6 1.2-.9 1.9-1.2.6-.4 1.2-.4 1.8 0l9 6c.2.1.4.2.5.5z"/><path class="ham_st2" d="M133 119.7a8 8 0 011-4l.7 4H133z"/><path class="ham_st0" d="M149.4 69.3c0 .8-.5 1-1.4.6-.2-.4-.4-.7 0-1 .4-.3 1-.2 1.4.3z"/><path class="ham_st11" d="M129 54.6h-.4v-.2h.4v.2z"/><path class="ham_st5" d="M175.2 98.7c-.2 0-.3 0-.4-.2.2 0 .4 0 .4.2z"/><path class="ham_st1" d="M176 99h-.2.2zM150.6 83.5l.1-.1h-.1z"/><path class="ham_st9" d="M86 153.2h-.1v-.1h.1z"/><path class="ham_st4" d="M78.2 53.7h.1z"/><path class="ham_st1" d="M175.2 98.7h.2c-.1.2-.2 0-.2 0z"/><path class="ham_st6" d="M134.8 84.4z"/><path class="ham_st5" d="M155.3 90z"/><path class="ham_st6" d="M131.8 96.1z"/><path class="ham_st9" d="M115.2 153.3h0z"/><path class="ham_st1" d="M174.7 75.8v-.1c.1 0 .1 0 0 .1zM77.4 106.8z"/><path class="ham_st11" d="M88.4 119.5z"/><path class="ham_st2" d="M71.8 83.1z"/><path class="ham_st1" d="M177.2 90.7c-.7-1-1.4-2.2-2.2-3.1l-1.6-1.7c-.1-.1-.3-.2-.2-.4l.4-.1c.7 0 1.2.4 1.6 1 1 1.2 1.7 2.6 2 4.3zM149.3 83.8c0-.2.2-.3.2-.2.2.2 0 .2 0 .2h-.2zM177.2 90.7v0zM144.6 88.8s0 .1-.2 0h.2zM155.6 90.5h.2v.1h-.2z"/><path class="ham_st0" d="M183.8 92.2s-.1-.1 0-.2l.1.1-.1.1z"/><path class="ham_st1" d="M155.6 90.5zM127.7 86.3c-.2 0 0 0 0 0zM115.7 136.5c-.6 0-1.2.2-1.5-.1-.3-.3 0-1 0-1.4l.8-6.8c0-.2.1-.3.4-.3.2 0 .5 0 .5.3l.9 5.7.3 2.2c0 .3 0 .4-.4.4h-1z"/><path class="ham_st5" d="M186.5 94.8z"/></svg>