<?xml version="1.0" encoding="utf-8"?>
<!-- Generator: Adobe Illustrator 24.1.0, SVG Export Plug-In . SVG Version: 6.00 Build 0)  -->
<svg version="1.1" id="Layer_1" xmlns="http://www.w3.org/2000/svg" xmlns:xlink="http://www.w3.org/1999/xlink" x="0px" y="0px"
	 viewBox="0 0 200 200" style="enable-background:new 0 0 200 200;" xml:space="preserve">
<g>
	<path style="fill:#FEFEFE;" d="M123.1,17.4c1.2,2.8,2.2,5.7,3.5,8.4c1.4,3,3.7,5.2,6.6,6.7c2.9,1.5,6,2.7,9.1,4
		c8.6,3.6,17.2,7.5,25.1,12.5c5.2,3.3,9.9,7.1,13.5,12.1c2.9,4,4.9,8.5,5.5,13.5c0.2,1.3,0.2,2.6,0.1,3.9c0,0.4,0.1,0.7,0.4,1
		c4.9,4.7,8.4,10.3,9.9,17c0.7,3.2,0.9,6.4,0.4,9.6c-0.4,2.3-1.5,4.2-2.8,6.1c-0.8,1.2-1.6,2.2-2.6,3.2c-0.2,0.2-0.4,0.4-0.3,0.8
		c0.1,0.3,0.5,0.2,0.7,0.2c2.4,0,4.7,0,7.1,0c0.2,0,0.4,0,0.7,0c-0.3,0.3-0.4,0.5-0.6,0.6c-4.4,4.5-8.9,9-13.3,13.5
		c-0.3,0.3-0.5,0.7-0.5,1.1c0,6.2,0,12.3,0,18.5c0,0.4-0.1,0.7-0.4,1c-2.4,2.2-4.8,4.4-7.2,6.6c-0.3,0.3-0.5,0.3-0.9,0.3
		c-3.5-0.5-7-1-10.5-1.5c-5.1-0.7-10.1-1.2-15.2-1.7c-3.7-0.3-7.4-0.6-11-0.9c-1.8-0.1-3.6-0.2-5.3-0.4c-0.5,0-0.9,0.1-1.3,0.5
		c-8,8.7-16.7,16.9-26.2,24c-2.2,1.6-4.4,3-6.7,4.6c-0.3,0.2-0.4,0.1-0.6-0.1c-9.1-6.1-17.6-12.9-25.4-20.6c-2.6-2.6-5.2-5.2-7.6-8
		c-0.3-0.3-0.6-0.5-1-0.4c-5.7,0.4-11.5,0.8-17.2,1.4c-4.3,0.5-8.6,0.9-12.9,1.4c-4.1,0.5-8.1,1.1-12.2,1.7c-0.4,0.1-0.6,0-0.9-0.3
		c-2.5-2.3-4.9-4.6-7.4-6.9c-0.3-0.3-0.3-0.5-0.3-0.9c0-6.1,0-12.2,0-18.3c0-0.5-0.1-0.8-0.5-1.2c-4.7-4.5-9.4-8.9-14.1-13.4
		c-0.2-0.2-0.5-0.5-0.7-0.7c0.2-0.2,0.5-0.1,0.7-0.1c12.7,0,25.3,0,38,0c0.3,0,0.6,0.2,0.8-0.2c0.2-0.3-0.1-0.6-0.2-0.9
		c-6.6-11.4-12.4-23.1-17.4-35.3c-2.1-5.2-4-10.5-5.7-15.8c-0.1-0.3-0.1-0.5,0.2-0.7c4.8-2.5,9.5-5.1,14.4-7.4
		c5.6-2.6,11.3-4.9,17-7c5.8-2.1,11.7-3.8,17.8-5.2c5.1-1.2,10.3-2.1,15.5-2.8C86.1,40.6,91,40.1,96,40c1.2,0,2.2-0.6,3.3-1
		c5.2-1.7,10.6-3,16.1-3.6c0.6-0.1,0.8-0.3,0.9-0.9c0.5-4.2,1.8-8.1,3.9-11.7c0.9-1.6,1.8-3.3,2.7-4.9
		C122.9,17.7,123,17.6,123.1,17.4z"/>
	<path style="fill:#253B4F;" d="M191,120.2c-1.5,1.5-3,3.1-4.5,4.6c-1.4,1.5-2.9,3-4.3,4.4c-0.3,0.2-0.2,0.5-0.2,0.8
		c0,6.2,0,12.3,0,18.5c0,0.6-0.2,1.1-0.7,1.5c-1.5,1.4-3,2.7-4.5,4.1c-0.3,0.3-0.6,0.3-0.9,0.3c-3.5-0.5-7.1-1-10.6-1.4
		c-4-0.5-7.9-0.9-11.9-1.3c-4-0.4-8-0.8-12-1.1c-2.7-0.2-5.4-0.4-8.1-0.6c-0.4,0-0.7,0.1-1,0.4c-6.9,7.6-14.2,14.7-22.2,21.2
		c-2.9,2.4-5.9,4.7-9,6.7c-0.4,0.2-0.6,0.2-0.9,0c-11.7-8-22.1-17.4-31.4-28c-0.3-0.3-0.5-0.4-1-0.4c-5.7,0.4-11.3,0.7-17,1.3
		c-8.5,0.8-17.1,1.8-25.5,3.1c-0.5,0.1-0.8,0-1.2-0.4c-1.5-1.5-3.1-2.9-4.7-4.4c-0.3-0.3-0.4-0.6-0.4-1c0-6.2,0-12.4,0-18.6
		c0-0.4-0.1-0.7-0.4-1c-3.1-2.9-6.1-5.9-9.2-8.9c12.4,0,24.6,0,36.9,0c0-0.4-0.2-0.6-0.3-0.8c-9.2-15-17-30.8-23.2-47.3
		c-0.7-2-1.4-4-2.1-6c-0.1-0.4-0.1-0.5,0.3-0.7C34,58.2,47.8,52.4,62.3,48.7c6.8-1.8,13.6-3.1,20.6-4c4.7-0.6,9.3-1,14-1.1
		c0.3,0,0.6-0.1,0.9-0.2c5.4-2,11-3.5,16.7-4.2c1.5-0.2,3.1-0.4,4.6-0.4c0.5,0,0.6-0.1,0.6-0.6c0-4,1-7.9,2.6-11.6
		c0.1-0.1,0.1-0.3,0.3-0.4c0.2,0.4,0.4,0.9,0.6,1.3c1.8,4,4.9,6.8,8.9,8.7c3.6,1.7,7.3,3.2,10.9,4.7c7.8,3.3,15.5,6.9,22.6,11.5
		c4.8,3.1,9.2,6.7,12.5,11.4c2.5,3.5,4.1,7.3,4.6,11.6c0.2,1.6,0.2,3.2-0.1,4.7c-0.1,0.5,0.1,0.7,0.4,0.9c4,3.4,7.1,7.5,9,12.4
		c1.5,3.9,2.1,8,1.6,12.2c-0.1,1.1-0.7,2.1-1.2,3.1c-2.2,4-5.5,6.9-9.5,9.1c-1.5,0.8-3,1.5-4.6,2.1c0.1,0.3,0.4,0.2,0.6,0.2
		c3.8,0,7.6,0,11.5,0C190.6,120.1,190.8,120,191,120.2z"/>
	<path style="fill:#969DA3;" d="M191,120.2c-4.3,0-8.6,0-13,0c0.1-0.2,0.2-0.3,0.3-0.3c0.2,0.3,0.5,0.1,0.7,0.1c3.8,0,7.6,0,11.4,0
		C190.6,120.1,190.8,119.9,191,120.2z"/>
	<path style="fill:#CDCFD0;" d="M129.1,54.5c3.2,0.3,6.1,1.2,8.5,3.5c0.3,0.3,0.4,0.6,0.3,1.1c-0.6,3.4-0.2,6.5,1.9,9.3
		c0,0.1,0.1,0.1,0.2,0.3c-1.7,0-3.2,0.2-4.8,0.5c-1.8,0.4-3.5,1.1-5.1,2.1c-0.2,0.1-0.4,0.2-0.5,0.4c0.5,0.2,1,0.1,1.6,0.2
		c2,0.3,4,0.6,5.9,1.4c0.3,0.1,0.7,0.3,1,0.5c0.2,0.1,0.4,0.2,0.3,0.4c0,0.2-0.2,0.3-0.4,0.4c-0.1,0-0.2,0.1-0.2,0.1
		c-2.9,1.1-5.5,2.7-7.9,4.7c-4,3.3-6.8,7.4-8.6,12.4c1.1-1,2.2-1.7,3.4-2.3c0.2-0.1,0.3-0.2,0.5-0.2c0.2-0.1,0.5-0.2,0.6,0
		c0.1,0.2,0,0.4-0.1,0.6c-0.8,1.5-1.4,3.1-1.9,4.7c-0.7,2.6-1.2,5.2-1.3,7.8c-0.2,3.8,0.4,7.4,1.4,11.1c0.3,0.9,0.6,1.7,0.9,2.5
		c0-1.7,0.2-3.5,0.5-5.2c0.1-0.9,0.3-1.8,0.6-2.6c0.1-0.3,0.2-0.6,0.3-0.9c0.1-0.1,0.2-0.3,0.3-0.2s0.2,0.2,0.2,0.4
		c0,0.5,0.1,1,0.1,1.4c0.3,3.4,1.3,6.7,2.6,9.9c0.1,0.3,0.2,0.5,0.3,0.8c0,0.1,0.2,0.3-0.1,0.4c-10.1,0-20.1,0-30.2,0
		c-0.5,0-1-0.2-1.3-0.6c-1.6-1.7-3.1-3.5-4.5-5.3c-0.1-0.1-0.1-0.2-0.2-0.3c-0.1-0.1-0.2-0.3-0.4-0.3c-0.2,0-0.2,0.3-0.2,0.4
		c-0.3,1-0.4,2-0.4,3c0,0.8,0,1.6,0,2.4c0,0.6-0.1,0.7-0.7,0.7c-0.4,0-0.7,0-1.1,0c-0.4,0-0.4-0.3-0.5-0.5c-0.6-2.1-1-4.2-1.3-6.3
		c-0.4-2.7-0.4-5.4-0.4-8.3c-1,1.1-1.8,2.2-2.5,3.4c-2.1,3.4-3.6,7-4.6,10.9c-0.1,0.3-0.1,0.8-0.4,0.7c-0.3,0-0.2-0.5-0.2-0.8
		c-0.1-6.1,0.8-12,2.1-18c0.9-4,2.1-8,3.5-11.9c-2.1,2-3.7,4.3-5.4,6.5c-1.3,1.8-2.5,3.6-3.8,5.4c0,0,0,0.1-0.1,0.1
		c-0.2,0.2-0.3,0.5-0.5,0.4c-0.3-0.1-0.1-0.4-0.1-0.7c0.7-3.2,1.6-6.4,2.7-9.5c1.2-3.3,2.5-6.6,3.9-9.8c0.5-1,0.9-2,1.4-3
		c0.1-0.2,0.3-0.4,0.2-0.7c-0.6,0.2-1.1,0.4-1.7,0.7c-3.6,1.5-7.3,3-11,4.5c-0.3,0.1-0.7,0.5-1,0.2c-0.2-0.3,0.1-0.7,0.3-1
		c1.5-2.7,3.3-5.1,5.3-7.5c1.8-2.1,3.7-4.1,5.8-6c3-2.8,6.2-5.3,9.5-7.7c1.5-1,2.9-2,4.4-3c0.4-0.3,0.9-0.6,1.4-0.8c0,0,0.1,0,0.1,0
		c0-0.1,0.1,0,0,0c0,0,0,0-0.1,0c-0.2,0-0.3,0.1-0.5,0.2c-2.2,0.4-4.5,0.7-6.8,1c-0.2,0-0.3,0-0.5-0.2c-0.1-0.4,0.2-0.6,0.4-0.8
		c1.7-1.6,3.6-3,5.7-4.3c4.3-2.6,8.9-4.6,13.6-6.4c2.5-0.9,5-1.5,7.6-1.8c0.2,0,0.5,0,0.7,0c0.2,0,0.5,0,0.7-0.1
		c0.3-0.1,0.5-0.1,0.8-0.1c0.3,0,0.6,0,0.9-0.1c0.5-0.1,1-0.1,1.5,0c1.6,0,3.2,0,4.8,0c0.6,0,1.2,0,1.8,0c0.3,0.1,0.7,0.1,1.1,0.1
		c0.3,0,0.6,0,0.9,0c0.2,0,0.3,0.1,0.4,0.1c0.1,0,0.1,0,0.1,0c0,0,0,0-0.1-0.1c-1.8-1.1-3-2.6-4-4.4c0-0.1-0.1-0.1-0.1-0.2
		c-0.1-0.2-0.2-0.4,0-0.6c0.2-0.2,0.4,0,0.6,0.1c2.3,1.4,4.9,2.2,7.4,3c4.9,1.6,9.8,3.4,14.7,5.2c0.7,0.3,1.4,0.6,2.1,0.9
		c0.2,0.2,0.4,0.2,0.7,0.3c1.9,0.9,3.8,1.9,5.7,3c4,2.2,7.8,4.6,11.3,7.6c3.5,3.1,6.5,6.6,8.2,11.1c0.8,2,1.2,4.1,1.2,6.3
		c0,0.1,0,0.1,0,0.2c0,1.6-0.3,1.8-1.8,1.6c-0.6-0.1-1.2-0.2-1.7-0.3c-0.6-0.1-1.2-0.2-1.9-0.4c0.8-0.7,1.3-1.5,1.5-2.4
		c-0.2-0.2-0.3-0.1-0.5,0c-1.6,1-3.4,1-5.1,0.4c-1.7-0.6-3.2-1.6-4.5-2.8c-0.4-0.3-0.4-0.8-0.5-1.2c-0.2-1.9-0.6-3.7-1.6-5.4
		c-0.2-0.4-0.5-0.7-0.8-1.1c-0.3-0.4-0.5-0.4-0.7,0c-0.1,0.2-0.2,0.3-0.3,0.5c-1,1.4-2.6,2-4.3,1c-0.6-0.4-1.2-0.7-1.7-1.3
		c-2.1-2.1-4.1-4.3-6.5-6.1c-3.8-3-7.9-5.1-12.7-5.7c-1.7-0.2-3.3-0.3-5-0.1c-0.6,0-1.2,0.1-1.8,0.1
		C129.1,54.4,129.1,54.4,129.1,54.5C129,54.5,129.1,54.5,129.1,54.5z"/>
	<path style="fill:#B6B6B6;" d="M122.3,45.1c-0.5,0-1,0-1.5,0c-0.3,0.2-0.6,0-0.9,0.1c-0.3,0-0.6,0-0.9,0c-0.2,0.1-0.4,0-0.6,0.1
		c-2.6,0.2-5.2,0.7-7.7,1.6c-2.4,0.9-4.8,1.8-7.1,2.9c-2.7,1.2-5.3,2.5-7.8,4.1c-1.8,1.1-3.5,2.4-5.1,3.9c-0.1,0.1-0.3,0.3-0.4,0.5
		c0,0.3,0.2,0.2,0.4,0.1c1.5-0.2,3.1-0.5,4.6-0.7c0.8-0.1,1.6-0.2,2.4-0.3c0.1-0.1,0.3-0.1,0.4,0c-3,1.9-6,3.9-8.8,6.1
		c-1.6,1.3-3.2,2.6-4.7,3.9c-1.9,1.6-3.7,3.4-5.4,5.2c-2.9,3-5.4,6.2-7.4,9.9c-0.2,0.3-0.3,0.6-0.5,1c1.3-0.5,2.6-1,3.8-1.5
		c3.3-1.3,6.6-2.7,9.8-4c0.1-0.1,0.3-0.2,0.4-0.1c0.1,0.1,0,0.3-0.1,0.4c-1.5,2.9-2.8,5.9-3.9,8.9c-1.9,4.7-3.4,9.5-4.5,14.4
		c0,0.1,0,0.1,0,0.3c3.1-4.6,6.1-9.1,10-12.9c-3.4,10.1-5.9,20.3-5.6,31c1.4-5.6,3.8-10.8,7.5-15.3c0.2,0.1,0.1,0.3,0.1,0.5
		c0,1.1,0,2.2,0,3.4c0,2.9,0.4,5.7,1,8.5c0.2,1,0.4,2.1,0.8,3c0,0,0.1,0,0,0.1c0,0,0,0,0,0c-3.2,0-6.4,0-9.6,0c-2.7,0-5.4,0-8,0
		c-0.4,0-0.5,0-0.4-0.5c0.9-4.1,2.3-8,4.1-11.8c0.1-0.2,0.3-0.4,0.3-0.8c-0.9,0.5-1.7,1.2-2.5,1.8c-3.6,3-6.4,6.7-8.8,10.7
		c-0.1,0.1-0.1,0.2-0.2,0.3c-0.3,0.3-0.6,0.2-0.9,0.1c-0.3,0-0.2-0.3-0.1-0.5c0.6-4.2,1.5-8.3,2.9-12.4c2.1-6.1,5-11.8,8.9-17
		c0-0.1,0.1-0.1,0-0.3c-10.9,5.2-17.8,14.1-22.4,25c-0.8-1.2-1.4-2.3-2.2-3.4c-0.9-1.1-0.9-2.2-0.7-3.5c1.3-9.2,4.9-17.3,10.2-24.8
		c4.4-6.3,9.8-11.7,15.9-16.3c0.1-0.1,0.3-0.2,0.5-0.4c-3.5,0.2-6.8,0.5-10.2,0.7c0,0,0-0.1-0.1-0.1c0.9-0.8,1.7-1.6,2.6-2.4
		c5.7-5,11.8-9.4,18.4-12.9c7.3-3.9,15-6.8,23.1-8.3c3.8-0.7,7.6-1.1,11.5-1.1c0.6,0,1.2,0.1,1.9,0.1c-1-1-1.4-2.2-1.5-3.4
		c-0.1-1.5,0-3.1,0.3-4.6c0-0.2,0.1-0.3,0.1-0.6c0.2,0.4,0.4,0.7,0.7,1c1.3,1.7,3,2.8,4.8,3.8c2.9,1.6,5.9,2.8,8.9,4.1
		c4.4,2,8.9,3.8,13.2,5.9c0.3,0.1,0.5,0.3,0.8,0.4c0,0.1-0.1,0.1-0.1,0c-1.2-0.3-2.2-0.8-3.3-1.2c-2.7-1-5.4-1.9-8.1-2.9
		c-3.3-1.2-6.8-2.2-10.1-3.5c-1.1-0.4-2.2-1.1-3.3-1.6c0.9,2.2,2.2,3.9,4.3,5.1c-0.1,0.3-0.3,0.2-0.5,0.1c-0.3,0-0.7,0-1,0
		c-0.3-0.2-0.7,0-1-0.1c-0.6,0-1.2,0-1.9,0C125.6,45,124,45,122.3,45.1z"/>
	<path style="fill:#CECECE;" d="M78.1,53.6c-7.7,5.1-14.2,11.6-21.1,18c3.2-0.2,6.3-0.4,9.5-0.6c-9.7,9.9-16.7,21.2-19.1,35.1
		c-2.7-4.8-5.1-9.5-7.5-14.3c-3.4-7.1-6.6-14.3-9.4-21.7c-0.2-0.5-0.1-0.7,0.4-0.9C42.8,63.3,55,58.7,67.9,55.6
		C71.3,54.8,74.7,54.1,78.1,53.6z"/>
	<path style="fill:#3E7097;" d="M179.8,115.4c0,0.1-0.1,0.1-0.2,0.1c-0.2,0-0.4,0.1-0.5,0.3c-0.3,0.2-0.2-0.1-0.2-0.2
		c0.4-1.9,0.4-3.7,0.3-5.6c-0.2-3.5-0.9-6.9-2.4-10.1c-0.1-0.2-0.3-0.4-0.5-0.6c0,0,0-0.1,0-0.1c-0.6-1.4-1.5-2.5-2.6-3.6
		c-1.3-1.3-2.5-2.7-3.9-4c-2.7-2.5-5.5-5-8.8-6.9c-1.1-0.7-2.3-1.2-3.5-1.7c-2.3-0.9-4.5-0.6-6.7,0.2c-0.4,0.1-0.8,0.3-1.2,0.5
		c-0.2,0.1-0.4,0.2-0.7,0.4c0.3-0.2,0.6-0.3,0.8-0.4c0.3-0.1,0.7-0.5,0.9-0.1c0.2,0.3-0.4,0.5-0.6,0.6c-1.6,1-4.1,3.2-5.1,4.6
		c3.7-0.2,7.3,0.1,10.7,1.6c-0.2-0.1-0.4-0.2-0.3-0.4c0.1-0.2,0.3-0.1,0.5-0.1c0.8,0.2,1.6,0.4,2.4,0.6c3.1,0.9,6.1,2.1,9,3.4
		c2.6,1.2,5.1,2.6,7.6,4c0.2,0.1,0.5,0.3,0.7,0.5c0,0.1,0,0.2-0.1,0.2c-3.4-1.7-7-3.1-10.6-4.2c-3.6-1.1-7.3-2-11-2.6
		c-2.8-0.4-5.6-0.7-8.4-0.9c-1.7-0.1-3.5-0.1-5.2,0.1c-0.2,0-0.4,0-0.6,0c0.5-1.1,1.2-2,1.9-3c2.5-3.3,5.6-5.9,9.2-7.9
		c2.5-1.4,5.2-1.4,7.9-0.5c2.1,0.7,4,1.7,5.9,2.9c0.2,0.1,0.4,0.3,0.8,0.4c-0.4-1.1-0.7-2.2-1.1-3.3c-0.2-0.8-0.2-0.8,0.5-0.6
		c3.8,0.7,7.5,1.4,11.3,2.1c0.8,0.1,1.6,0.3,2.4,0.4c0.3,0,0.6,0.1,0.7,0.4c0.2,0.1,0.3,0.3,0.5,0.3c0.2,0,0.3,0.2,0.4,0.3
		c0.4,0.7,1.1,1.2,1.6,1.8c2.4,2.9,4.3,6,5.5,9.5c0,0,0,0.1,0,0.1c0,0.2,0.2,0.5,0,0.7c-0.2,0.1-0.4-0.1-0.6-0.3
		c-0.6-0.6-1.2-1.3-1.8-1.9c1.3,2.2,2.2,4.6,2.8,7.2c0,0.2,0.1,0.5,0,0.7c0,0.1-0.1,0.2-0.2,0.2c-0.2-0.1-0.3-0.3-0.4-0.5
		c-0.1-0.2-0.2-0.4-0.2-0.5c1.2,4.8,0,9-3.4,12.7C182.2,113.7,181.1,114.6,179.8,115.4z"/>
	<path style="fill:#B6B6B6;" d="M130.1,120c-1.9-4-3.1-8.3-3.3-12.7c-0.7,1.4-1,3-1.2,4.6c-0.2,1.6-0.4,3.2-0.4,4.8
		c-3.7-9.2-3.5-18.2,0.8-27.3c-1,0.3-1.7,0.7-2.5,1.2c-0.8,0.5-1.4,1-2.3,1.7c1.3-4.3,3.6-7.9,6.6-11c3-3.1,6.6-5.4,10.8-7
		c-2.9-1.6-6-2-9.2-2.3c0-0.1,0.2-0.1,0.3-0.2c0.9-0.2,1.7-0.4,2.6-0.5c3.2-0.4,6.3,0,9.4,0.7c2.4,0.5,4.7,1.3,7,2.2
		c0,0.1,0,0.2-0.1,0.1c-4.3-0.5-8,0.9-11.6,3c-3.8,2.4-6.9,5.6-9.6,9.3c2.5-0.9,4.9-1.6,7.4-2.1c-6.9,5.1-9.3,12.1-8.9,20.3
		c0.7-1.6,1.4-3.2,2.4-4.7c0.9-1.5,2-2.8,3.5-4c-2.7,6.1-2.5,12.1-0.2,18.2c0.9-5.2,2.8-9.9,6.7-13.8c-0.5,3.8-0.7,7.5-0.6,11.3
		c0.1,2.7,0.4,5.3,1.1,7.9c0,0.1,0,0.2,0,0.4c-1.3,0.1-2.7,0-4,0.1c-0.2,0-0.3-0.1-0.3-0.3c-0.3-1.2-0.5-2.4-0.5-3.5
		c-0.3,1-0.7,2.1-0.9,3.3c0,0.2-0.1,0.5-0.4,0.5C131.9,120,131,120.2,130.1,120z"/>
	<path style="fill:#FEFEFE;" d="M132,140.2c0.2-5.2,1.2-10.3,1.9-15.4c0-0.3,0.2-0.4,0.5-0.4c1.4,0,2.9,0,4.3,0
		c0.4,0,0.5,0.1,0.6,0.5c0.3,2.2,0.6,4.5,0.9,6.7c0.5,3.2,0.8,6.4,1.1,9.6c0.1-1.4,0.1-2.9,0.3-4.3c0.3-3.4,0.7-6.7,1.1-10.1
		c0.1-0.7,0.2-1.3,0.2-2c0-0.4,0.1-0.5,0.6-0.5c1,0,2,0,3.1,0c0.5,0,0.5,0.1,0.5,0.6c-0.3,2.5-0.6,5-0.9,7.5
		c-0.5,4.2-1,8.4-1.6,12.5c-0.1,0.5,0,1.1-0.3,1.4c-0.3,0.3-0.9,0-1.4,0c-1.2-0.1-2.4-0.2-3.7-0.2c-0.3,0-0.5-0.1-0.5-0.5
		c-0.6-4.8-1.5-9.6-1.8-14.5c0-0.4,0-0.9-0.1-1.3c-0.2-0.2-0.1,0.1-0.2,0.1c-0.1,3-0.5,6-0.9,9c-0.3,2.1-0.6,4.2-0.8,6.2
		c-0.1,0.4-0.2,0.6-0.6,0.6c-1.6-0.1-3.1-0.2-4.7-0.3c-0.4,0-0.4-0.2-0.5-0.5c-0.4-3.4-0.9-6.8-1.3-10.3c-0.3-2.6-0.7-5.3-1-7.9
		c0-0.2-0.1-0.4-0.3-0.6c-0.4-0.3-0.8-0.7-1.2-0.9c-0.4-0.2-0.3-0.6-0.2-0.9c0.1-0.3,0.4-0.2,0.6-0.2c1.5,0,2.9,0,4.4,0
		c0.4,0,0.5,0.1,0.6,0.5c0.3,2.9,0.7,5.8,1.1,8.7C131.6,135.8,131.7,138,132,140.2c0,0.2,0,0.4-0.1,0.5
		C132,140.6,132,140.4,132,140.2z"/>
	<path style="fill:#FEFEFE;" d="M155.5,120.1c1.6-2.5,3.1-5,4.5-7.4c2.5-4.2,4.8-8.5,7-12.9c0.2-0.4,0.4-0.5,0.9-0.4
		c1.9,0.7,3.7,1.5,5.5,2.4c0.4,0.2,0.6,0.4,0.7,0.8c1.7,4.6,2.1,9.3,0.9,14.1c-0.2,0.9-0.4,1.9-0.6,2.8c-0.1,0.5-0.3,0.6-0.7,0.6
		c-5.5,0-11,0-16.5,0C156.7,120.1,156.1,120.1,155.5,120.1z"/>
	<path style="fill:#FEFEFE;" d="M167.1,129.1c0.8,0.4,1.7,0.8,2.5,1.1c0.3,0.1,0.4,0.3,0.4,0.7c0,1,0,1.9,0,2.9
		c0,0.4,0.1,0.5,0.5,0.5c1.4,0.1,2.8,0.2,4.2,0.2c0.3,0,0.6,0.1,0.8,0.4c0.7,0.9,1.8,1.6,2.2,2.6c0.4,1,0.1,2.2,0.1,3.3
		c0,2.1,0,4.2,0,6.2c0,0.4-0.1,0.7-0.5,1c-0.6,0.6-1.3,1.1-1.9,1.7c-0.2,0.2-0.4,0.3-0.7,0.3c-1.9-0.3-3.9-0.5-5.8-0.8
		c-0.3,0-0.4-0.2-0.6-0.4c-0.7-0.8-1.5-1.7-2.2-2.5c-0.2-0.2-0.3-0.4-0.3-0.7c0-1.1,0-2.2,0-3.4c0-0.4,0.1-0.6,0.5-0.5
		c1.1,0.1,2.2,0.2,3.3,0.3c0.3,0,0.5,0.1,0.4,0.5c0,0.2,0,0.4,0,0.6c0,1.3,0,1.3,1.3,1.5c0.6,0.1,1.2,0.1,1.8,0.2
		c0.2,0,0.4,0,0.4-0.3c0-1.6,0-3.2,0-4.9c0-0.4-0.2-0.4-0.5-0.4c-1.4-0.1-2.9-0.2-4.3-0.3c-0.3,0-0.5-0.1-0.7-0.3c0,0,0,0,0,0
		c-0.7-0.8-1.7-1.5-2-2.4c-0.4-0.9-0.1-2.1-0.1-3.1c0-1.8,0-3.6,0-5.4c0-0.3,0.1-0.6,0.3-0.8c0.6-0.7,1.2-1.3,1.7-2
		c0.2-0.2,0.4-0.3,0.7-0.3c4.2,0,8.4,0,12.5,0c0.1,0,0.2,0,0.4,0c-1.2,0.9-2.2,1.8-3.3,2.6c-0.3,0.2-0.4,0.5-0.4,0.9c0,1,0,2,0,3.1
		c0,0.4-0.1,0.5-0.5,0.5c-1.1-0.1-2.2-0.1-3.3-0.1c-0.3,0-0.5-0.1-0.4-0.5c0,0,0-0.1,0-0.1c0-0.5,0.2-1.2-0.1-1.5
		c-0.3-0.3-1-0.1-1.5-0.1C170.3,129.1,168.7,129.1,167.1,129.1z"/>
	<path style="fill:#FEFEFE;" d="M19.3,124.4c4.1,0,8,0,11.9,0c0.8,0,1.5,0.2,2,0.9c0.3,0.4,0.7,0.8,1.2,1.2c0.6,0.5,0.8,1,0.7,1.8
		c-0.1,0.8,0,1.6,0,2.4c0,0.3-0.1,0.4-0.4,0.4c-1.1,0-2.3,0.1-3.4,0.1c-0.3,0-0.5-0.1-0.4-0.4c0,0,0,0,0-0.1c0-0.5,0.2-1.3-0.1-1.5
		c-0.3-0.3-1,0-1.6,0c-1.6,0-3.2,0-4.7,0c0,0.1,0,0.2,0,0.2c0.8,0.3,1.6,0.7,2.5,1c0.4,0.1,0.5,0.4,0.5,0.8c0,0.9,0,1.7,0,2.6
		c0,0.5,0.1,0.7,0.6,0.6c1.3-0.1,2.7-0.1,4-0.2c0.3,0,0.6,0,0.8,0.3c0.6,0.6,1.3,1.3,2,1.9c0.2,0.2,0.3,0.4,0.3,0.6
		c0,2.9,0,5.8,0,8.7c0,0.3-0.1,0.5-0.3,0.7c-0.7,0.8-1.4,1.6-2.1,2.4c-0.2,0.3-0.5,0.4-0.8,0.4c-1.8,0.2-3.6,0.5-5.4,0.7
		c-0.4,0.1-0.7,0-0.9-0.3c-0.7-0.7-1.4-1.3-2.1-1.9c-0.2-0.2-0.3-0.4-0.3-0.8c0-1.2,0-2.5,0-3.7c0-0.4,0.1-0.5,0.5-0.5
		c1.1-0.1,2.2-0.2,3.2-0.3c0.5-0.1,0.5,0.1,0.5,0.5c0,0.3,0,0.6,0,0.9c0,1,0,1,0.9,0.9c0.7-0.1,1.4-0.2,2.2-0.2
		c0.3,0,0.4-0.2,0.4-0.4c0-1.5,0-3.1,0-4.6c0-0.4-0.1-0.4-0.5-0.4c-1.4,0.1-2.9,0.2-4.3,0.4c-0.4,0-0.6-0.1-0.9-0.3c0,0,0,0,0,0
		c-0.7-0.7-1.6-1.3-1.9-2.1c-0.3-0.8-0.1-1.9-0.1-2.9c0-2.1,0-4.2,0-6.2c0-0.3-0.1-0.6-0.4-0.8C21.7,126.2,20.6,125.3,19.3,124.4z"
		/>
	<path style="fill:#FEFEFE;" d="M155.1,132.9c0.9-2.6,1.9-5.3,2.8-7.9c0.1-0.4,0.3-0.6,0.8-0.6c1.3,0,2.6,0,3.9,0
		c0,0.3-0.1,0.5-0.2,0.8c-1.3,3.2-2.6,6.3-3.8,9.4c-0.2,0.4-0.2,0.7,0,1.1c1.2,3.3,2.4,6.7,3.6,10c0.2,0.7,0.7,1,1.2,1.4
		c0.2,0.1,0.4,0.3,0.5,0.4c0.1,0.3,0.1,0.6,0,0.9c-0.1,0.2-0.4,0.1-0.6,0c-1.4-0.1-2.8-0.3-4.1-0.5c-0.4,0-0.4-0.3-0.5-0.6
		c-1.1-3.3-2.1-6.6-3.2-9.9c0-0.1-0.1-0.3-0.2-0.4c-0.3,0.1-0.2,0.4-0.2,0.6c0,3.1,0,6.2,0,9.3c0,0.2,0.1,0.5-0.1,0.6
		c-1.1-0.1-2.3-0.3-3.4-0.3c-0.5,0-0.7-0.1-0.7-0.7c0-6.3,0-12.7,0-19c0-0.5-0.1-0.9-0.6-1.2c-0.3-0.2-0.6-0.5-0.9-0.7
		c-0.4-0.3-0.3-0.7-0.3-1.1c0-0.2,0.2-0.2,0.3-0.2c1.7,0,3.4,0,5.2,0c0.3,0,0.4,0.1,0.4,0.4c0,0.8,0,1.6,0,2.4c0.1,1.7,0,3.5,0,5.2
		C155,132.5,154.8,132.8,155.1,132.9z"/>
	<path style="fill:#FEFEFE;" d="M106.6,134.6c0,3.2,0,6.4,0,9.7c0,0.4-0.1,0.6-0.5,0.6c-1.1,0-2.2,0-3.2,0c-0.4,0-0.5-0.1-0.5-0.5
		c0-2.5,0-5.1,0-7.6c0-0.5-0.1-0.7-0.7-0.6c-0.7,0-1.4,0-2.1,0c-0.4,0-0.6,0.1-0.6,0.5c0,2.5,0,5.1,0,7.6c0,0.5-0.1,0.7-0.6,0.6
		c-1,0-2.1,0-3.1,0c-0.5,0-0.6-0.1-0.6-0.6c0-5.7,0-11.4,0-17.1c0-0.5-0.1-0.8-0.5-1.1c-0.3-0.2-0.6-0.5-0.9-0.7
		c-0.4-0.2-0.3-0.6-0.3-0.9c0.1-0.3,0.4-0.2,0.6-0.2c1.6,0,3.2,0,4.8,0c0.4,0,0.6,0.1,0.6,0.5c0,2.1,0,4.2,0,6.3
		c0,0.4,0.1,0.6,0.5,0.6c0.7,0,1.5,0,2.2,0c0.5,0,0.5-0.1,0.5-0.6c0-2.1,0-4.2,0-6.2c0-0.4,0.1-0.6,0.6-0.6c1.1,0,2.1,0,3.2,0
		c0.4,0,0.5,0.1,0.5,0.6C106.6,128.2,106.6,131.4,106.6,134.6C106.6,134.6,106.6,134.6,106.6,134.6z"/>
	<path style="fill:#FEFEFE;" d="M52.5,129c1,0.3,1.8,0.5,2.6,0.7c0.4,0.1,0.6,0.3,0.5,0.7c0,0.7,0,1.4,0,2.1c0,0.4,0.1,0.5,0.5,0.4
		c1.5-0.1,2.9-0.1,4.4-0.1c0.5,0,0.6,0.1,0.6,0.6c0,1,0,1.9,0,2.9c0,0.4-0.1,0.5-0.5,0.5c-1.4,0-2.9,0.1-4.3,0.2
		c-0.4,0-0.6,0.1-0.6,0.6c0,1.3,0,2.7,0,4c0,0.4,0.1,0.5,0.5,0.5c1.7-0.1,3.3-0.2,5-0.3c0.4,0,0.6,0.1,0.8,0.4
		c0.5,0.9,0.9,1.7,1.4,2.6c0.1,0.2,0.2,0.3,0.2,0.6c0.1,0.8,0.1,0.8-0.7,0.8c-3.5,0.3-7,0.5-10.6,0.8c-0.2,0-0.3,0-0.5,0
		c-0.4,0.1-0.5-0.1-0.5-0.5c0-5.4,0-10.8,0-16.2c0-1.8,0-3.6,0-5.4c0-0.4,0.1-0.5,0.6-0.5c3.7,0,7.4,0,11,0c0.7,0,1,0.3,0.7,0.9
		c-0.5,1.1-1.2,2.2-1.8,3.3c-0.2,0.3-0.4,0.2-0.7,0.2c-2.7,0.1-5.5,0.1-8.2,0.1C52.8,129,52.7,129,52.5,129z"/>
	<path style="fill:#FEFEFE;" d="M114.5,124.4c1.3,0,2.5,0,3.8,0c0.4,0,0.5,0.1,0.5,0.5c1.3,6.6,2.5,13.3,3.8,19.9
		c0.1,0.4,0,0.5-0.4,0.5c-1.3-0.1-2.5-0.1-3.8-0.1c-0.4,0-0.5-0.2-0.6-0.5c-0.2-1.1-0.4-2.1-0.5-3.2c0-0.4-0.2-0.5-0.5-0.5
		c-0.8,0-1.7,0-2.5-0.1c-0.4,0-0.5,0.1-0.5,0.5c-0.2,1-0.3,2.1-0.5,3.1c-0.1,0.4-0.2,0.6-0.6,0.5c-1.1-0.1-2.3-0.1-3.4-0.1
		c-0.5,0-0.7-0.1-0.6-0.7c1-5.3,1.9-10.6,3-15.8c0.3-1.4,0.1-2.2-1.1-2.9c-0.2-0.1-0.4-0.2-0.4-0.5c0-0.4,0-0.7,0.6-0.7
		C112,124.4,113.3,124.4,114.5,124.4z"/>
	<path style="fill:#FEFEFE;" d="M67,128.8c0.8,0.2,1.6,0.5,2.4,0.7c0.3,0.1,0.5,0.2,0.5,0.6c0,0.7,0,1.4,0,2.1
		c0,0.4,0.1,0.5,0.5,0.5c1.4,0,2.9,0,4.3-0.1c0.4,0,0.6,0.1,0.6,0.6c0,0.9,0,1.8,0,2.7c0,0.4-0.1,0.5-0.5,0.5
		c-1.4,0-2.9,0.1-4.3,0.1c-0.5,0-0.6,0.2-0.6,0.6c0,1.2,0,2.5,0,3.7c0,0.4,0.1,0.5,0.5,0.5c1.7-0.1,3.3-0.1,5-0.2
		c0.4,0,0.6,0.1,0.7,0.4c0.5,0.9,1,1.7,1.5,2.6c0.1,0.2,0.2,0.3,0.2,0.5c0.1,0.7,0,0.8-0.7,0.8c-3.7,0.2-7.3,0.3-11,0.5
		c-0.5,0-0.6-0.1-0.6-0.6c0-6.8,0-13.5,0-20.3c0-0.5,0.1-0.6,0.6-0.6c3.7,0,7.3,0,11,0c0.7,0,1,0.3,0.7,1c-0.5,1.1-1.2,2.1-1.8,3.1
		c-0.1,0.3-0.4,0.2-0.6,0.2c-2.8,0-5.6,0-8.4,0C67,128.7,67,128.8,67,128.8z"/>
	<path style="fill:#FEFEFE;" d="M45.3,137.4c0,2.5,0,5.1,0,7.6c0,0.4,0.1,0.7,0.5,1c0.2,0.1,0.4,0.3,0.6,0.5c0.3,0.5,0,1-0.6,1.1
		c-1.7,0.2-3.4,0.4-5.1,0.5c-0.2,0-0.5,0.2-0.6,0c-0.1-0.3-0.1-0.7,0-1c0-0.1,0.1-0.1,0.1-0.1c0.9-0.6,0.9-1.4,0.9-2.3
		c0-4.9,0-9.9,0-14.8c0-0.5-0.2-0.6-0.7-0.6c-1.1-0.1-1.8,0.3-2.1,1.3c-0.1,0.3-0.3,0.6-0.4,0.9c-0.1,0.3-0.4,0.2-0.6,0.2
		c-0.3,0-0.2-0.3-0.2-0.4c0-2.1,0-4.3,0-6.4c0-0.3,0.1-0.4,0.4-0.4c3.8,0,7.5,0,11.3,0c0.4,0,0.4,0.1,0.4,0.5c0,2,0,4,0,6
		c0,0.2,0.1,0.4-0.2,0.4c-0.2,0-0.5,0.1-0.6-0.2c-0.3-0.5-0.6-1.1-0.8-1.6c-0.2-0.3-0.4-0.4-0.7-0.4c-1.5,0-1.5,0-1.5,1.6
		C45.4,132.9,45.4,135.2,45.3,137.4C45.3,137.4,45.3,137.4,45.3,137.4z"/>
	<path style="fill:#FEFEFE;" d="M81.6,135.8c0-2.9,0-5.7,0-8.6c0-0.4-0.1-0.7-0.5-1c-0.3-0.2-0.6-0.5-0.9-0.7
		c-0.4-0.2-0.3-0.6-0.3-0.9c0.1-0.4,0.4-0.2,0.6-0.2c1.5,0,3.1,0,4.6,0c0.5,0,0.6,0.1,0.6,0.6c0,5,0,10.1,0,15.1
		c0,0.6,0.1,0.7,0.7,0.7c1.4-0.1,2.7,0,4.1-0.1c0.4,0,0.5,0.1,0.5,0.5c0,1.1,0,2.2,0,3.3c0,0.3-0.1,0.5-0.4,0.5
		c-2.9,0.1-5.7,0.1-8.6,0.2c-0.5,0-0.4-0.3-0.4-0.6C81.6,141.6,81.6,138.7,81.6,135.8C81.6,135.8,81.6,135.8,81.6,135.8z"/>
	<path style="fill:#D0D2D3;" d="M85.9,153.9c2.5,2.8,5.4,4.9,8.8,6.4c1.8,0.8,3.6,1.4,5.4,1.9c0.2,0.1,0.4,0.1,0.7,0
		c5.4-1.4,10.1-3.8,13.9-7.9c0.2-0.2,0.4-0.5,0.6-0.7c0.1,0,0.1,0,0.2,0c-1.4,2.4-3.2,4.6-5.2,6.6c-2.8,2.9-5.9,5.4-9.3,7.5
		c-0.3,0.2-0.5,0.2-0.8,0c-5.5-3.6-10.4-7.9-14.1-13.4c-0.1-0.2-0.2-0.4-0.3-0.5C85.8,153.9,85.9,153.9,85.9,153.9z"/>
	<path style="fill:#AEAEAE;" d="M158.7,98.2c-0.6,1.1-1.1,2.1-1.7,3.1c-3.4,6.3-7.1,12.4-11,18.3c-0.3,0.4-1.7,0.7-2,0.4
		c-0.2-0.1-0.1-0.3,0-0.4c1.5-4.9,3.2-9.6,5.8-14c0.1-0.2,0.2-0.4,0.3-0.5c1.5-3.4,4.3-5.1,7.5-6.5c0.2-0.1,0.5-0.2,0.8-0.3
		C158.4,98.3,158.5,98.3,158.7,98.2z"/>
	<path style="fill:#B6B6B6;" d="M129.1,54.5c-0.1,0-0.2,0.1-0.3-0.1c-0.1-0.1,0.1-0.2,0.2-0.2c2-0.2,3.9-0.4,5.9-0.2
		c1.5,0.2,3,0.5,4.5,0.9c2.7,0.8,5.1,2.1,7.4,3.6c2.4,1.6,4.5,3.6,6.6,5.7c1,1,1.9,2.1,3,2.8c2.1,1.3,3.7,0.7,4.8-1.2
		c0.3-0.6,0.5-0.6,1-0.1c1.2,1.4,1.9,3,2.2,4.8c0.1,0.7,0.3,1.4,0.3,2.1c0,0.5,0.3,0.8,0.6,1.1c1.6,1.3,3.2,2.4,5.3,2.8
		c1.5,0.3,2.8,0,4-0.8c0.1-0.1,0.2-0.1,0.3-0.2c0,0,0,0,0.1,0c0.2,0.2,0,0.3,0,0.5c-0.1,0-0.2,0.1-0.3,0.2c-1,1.4-2.4,1.7-4,1.3
		c-3.1-0.8-5.8-2.3-8-4.6c-0.3-0.3-0.4-0.6-0.2-0.9c0.5-1.8,0.2-3.4-0.9-5c-0.1,0.5,0,1-0.1,1.5c-0.3,1.4-0.8,1.8-2.4,1.8
		c-1.5,0-2.8-0.6-3.9-1.6c-2.6-2.2-4.9-4.7-7.3-7.1c-1.3-1.3-2.6-2.4-4.1-3.5c-3.3-2.4-7-3.5-11-3.7c-1.1-0.1-2.1,0-3.2,0
		C129.4,54.4,129.2,54.4,129.1,54.5z"/>
	<path style="fill:#FEFEFE;" d="M179.8,115.4c0.4-0.6,1.1-0.9,1.6-1.4c2.6-2.2,4.5-4.8,5.1-8.1c0.4-2,0.3-4-0.2-5.9
		c-0.1-0.2-0.1-0.4-0.1-0.6c0.5,0.4,0.7,1,1,1.6c0.1,0,0.1,0.1,0.1,0.2c0-0.1,0.1-0.3-0.1-0.4c-0.3-2.7-1.3-5.2-2.6-7.5
		c-0.2-0.3-0.3-0.6-0.4-1c0.9,0.9,1.7,1.8,2.7,2.8c0.1-0.3,0-0.5-0.1-0.7c-1.3-3.9-3.5-7.3-6.3-10.4c-0.7-0.8-0.7-0.8-0.7-1.1
		c3.2,2.6,6,5.6,7.9,9.3c1.6,3.2,2.5,6.5,2.6,10.1c0.1,2.4-0.7,4.5-2.1,6.4C186,111.7,183.2,113.9,179.8,115.4z"/>
	<path style="fill:#3E7097;" d="M149.7,69.4c0.2-0.1,0.3-0.3,0.5-0.1c0.8,0.7,1.8,1.3,2.8,1.9c-0.8,0.3-1.6,0.4-2.4,0.5
		c-1.6,0.2-3.2,0.1-4.7-0.6c-1.6-0.8-2.5-2.2-2.8-4c-0.3-1.6-0.2-3.2,0-4.8c0.3,0.4,0.6,0.7,0.9,1c0.8,0.8,1.5,1.7,2.3,2.5
		c0.3,0.3,0.3,0.5,0.1,0.9c-0.3,0.5-0.4,1.1-0.4,1.7c0.1,1.1,0.8,1.6,2.2,1.6c0.1,0,0.1,0,0.2,0C148.9,70.1,149.4,70,149.7,69.4z"/>
	<path style="fill:#B6B6B6;" d="M130.1,120c1,0,1.9,0,2.9,0c0.6-0.3,1.2-0.3,1.8,0c1.4,0,2.7,0,4.1,0c-0.2,0.2-0.5,0.1-0.7,0.1
		c-14.7,0-29.4,0-44,0c-1.1,0-2.2,0-3.4,0c0,0,0-0.1,0-0.1c0.4,0,0.8,0,1.2,0c0.4,0,0.5-0.1,0.5-0.5c0-0.9,0-1.8,0-2.7
		c0-1.1,0.2-2.2,0.5-3.3c0-0.1,0.1-0.4,0.3-0.4c0.2,0,0.2,0.2,0.3,0.3c1.3,1.7,2.6,3.4,4.1,5c0,0,0,0,0,0c0.8,1.5,2.1,1.6,3.6,1.6
		C110.9,120,120.5,120,130.1,120z"/>
	<path style="fill:#FCFCFC;" d="M149.7,69.4c-0.1,0.8-0.6,1-1.5,0.5c-0.2-0.4-0.3-0.7,0.1-1C148.7,68.6,149.2,68.8,149.7,69.4z"/>
	<path style="fill:#384047;" d="M154.8,147.6c0.1-0.2,0.1-0.4,0.1-0.6c0-3.4,0-6.8,0-10.3c0.2,0.1,0.2,0.2,0.2,0.4
		c-0.2,0.2-0.1,0.4-0.1,0.7c0,3,0,6.1,0,9.1C155,147.1,155.1,147.4,154.8,147.6z"/>
	<path style="fill:#363D45;" d="M155.1,132.9c0,0.2-0.1,0.3-0.2,0.5c0-2.1,0-4.2,0-6.2c0.2,0.2,0.1,0.4,0.1,0.7c0,1.5,0,2.9,0,4.4
		C155,132.4,154.9,132.7,155.1,132.9z"/>
	<path style="fill:#355C7D;" d="M175.3,98.8c0,0,0.1-0.1,0.1-0.1c0.4,0,0.8,0.1,0.9,0.6c0,0,0,0,0,0C176,99.2,175.6,99.1,175.3,98.8
		z"/>
	<path style="fill:#868E96;" d="M115.5,153.7c-0.1,0-0.1,0-0.2,0c0.1-0.2,0.3-0.4,0.4-0.6C115.8,153.4,115.7,153.6,115.5,153.7z"/>
	<path style="fill:#576673;" d="M148.6,74.3c0,0,0.1-0.1,0.1-0.1c0.2,0,0.3,0.1,0.4,0.2C149,74.4,148.8,74.4,148.6,74.3z"/>
	<path style="fill:#949A9F;" d="M136.4,130c0-0.2-0.1-0.4,0.1-0.4c0.2,0,0.1,0.2,0.1,0.3C136.6,129.9,136.5,130,136.4,130z"/>
	<path style="fill:#C0C1C1;" d="M152.1,49.2c0,0,0.1,0,0.1,0c0.2,0,0.4,0.1,0.5,0.2C152.5,49.5,152.3,49.4,152.1,49.2z"/>
	<path style="fill:#96A8B6;" d="M179.4,82.5c-0.3,0.2-0.4-0.1-0.5-0.3C179.2,82.2,179.3,82.4,179.4,82.5z"/>
	<path style="fill:#909FAB;" d="M179.1,115.8c0.1-0.2,0.3-0.4,0.5-0.3C179.5,115.7,179.3,115.8,179.1,115.8z"/>
	<path style="fill:#3F4D5B;" d="M132,140.2c0,0.2,0.1,0.4,0,0.6C131.9,140.6,131.9,140.4,132,140.2C132,140.2,132,140.2,132,140.2z"
		/>
	<path style="fill:#4C5D6D;" d="M85.2,153.1c-0.2-0.2-0.3-0.3-0.2-0.4C85.2,152.7,85.2,152.8,85.2,153.1z"/>
	<path style="fill:#7D8791;" d="M85.5,153.6c-0.1-0.1-0.2-0.2-0.2-0.3c0.2,0.1,0.3,0.2,0.3,0.3C85.6,153.6,85.6,153.6,85.5,153.6z"
		/>
	<path style="fill:#CCCED0;" d="M85.5,153.6c0,0,0.1,0,0.1,0c0.1,0.1,0.2,0.2,0.3,0.4c-0.1,0-0.1,0-0.2,0
		C85.7,153.8,85.6,153.7,85.5,153.6z"/>
	<path style="fill:#C0C1C1;" d="M122.3,45.1c0.1-0.1,0.2-0.1,0.3-0.1c1.4,0,2.8,0,4.2,0c0.1,0,0.2,0,0.3,0.1
		C125.6,45.1,124,45.1,122.3,45.1z"/>
	<path style="fill:#C0C1C1;" d="M129.1,45.1c0.3,0,0.7-0.1,1,0.1C129.7,45.2,129.4,45.3,129.1,45.1z"/>
	<path style="fill:#C0C1C1;" d="M131.1,45.2c0.2,0,0.4,0.1,0.5-0.1c0.1,0.1,0.3,0.1,0.1,0.2C131.5,45.4,131.2,45.4,131.1,45.2z"/>
	<path style="fill:#C0C1C1;" d="M120,45.2c0.3-0.2,0.6-0.1,0.9-0.1C120.6,45.3,120.3,45.2,120,45.2z"/>
	<path style="fill:#C0C1C1;" d="M118.5,45.3c0.2-0.2,0.4-0.1,0.6-0.1C118.9,45.4,118.7,45.3,118.5,45.3z"/>
	<path style="fill:#C0C1C1;" d="M90.8,58.4c-0.1,0.1-0.3,0.2-0.4,0.1c-0.1-0.1,0-0.1,0-0.2C90.5,58.4,90.7,58.4,90.8,58.4z"/>
	<path style="fill:#C0C1C1;" d="M98.2,57.4c-0.1,0-0.3,0-0.4,0C97.9,57.3,98.1,57.3,98.2,57.4C98.4,57.4,98.2,57.4,98.2,57.4z"/>
	<path style="fill:#253B50;" d="M176.3,99.3c-0.2-0.3-0.6-0.4-0.9-0.6c-2.2-1.4-4.5-2.7-6.9-3.8c-4.2-2.1-9.1-3.9-13.1-4.7
		c0.1,0.3,0.5,0.3,0.6,0.7c-3.7-1.7-7.5-2.1-11.5-1.8c1.8-2.2,3.8-4,6.1-5.5c-0.3,0.1-0.6,0.2-0.9,0.3c-0.1,0-0.2,0-0.1-0.1
		c1.8-1.1,3.9-1.4,6-1.4c1,0,1.9,0.5,2.8,0.8c2.8,1.2,5.2,2.9,7.5,4.8c2.2,1.8,4.3,3.7,6.3,5.8c1.3,1.4,2.7,2.6,3.6,4.2
		C176.1,98.5,176.5,98.8,176.3,99.3z"/>
	<path style="fill:#253B50;" d="M177.5,90.8c-0.9-1.7-2.1-3.2-3.5-4.5c-0.2-0.2-0.5-0.3-0.4-0.6c0.1-0.3,0.5-0.1,0.7-0.1
		c0.7,0.1,1.1,0.6,1.5,1.1c0.9,1.2,1.4,2.5,1.8,3.9C177.7,90.7,177.7,90.8,177.5,90.8z"/>
	<path style="fill:#2D4D68;" d="M149.7,83.7c0,0,0.1,0.1,0.1,0.1c-0.3,0.2-0.6,0.3-0.9,0.4C149.1,84.1,149.3,83.9,149.7,83.7z"/>
	<path style="fill:#305371;" d="M177.5,90.8c0.1,0,0.1-0.1,0.1-0.2c0.2,0.2,0.1,0.5,0.1,0.8C177.6,91.2,177.6,91,177.5,90.8z"/>
	<path style="fill:#5F7180;" d="M187.3,100.7c0.1,0.2,0.1,0.4,0.1,0.7c-0.2-0.1-0.2-0.3-0.2-0.4
		C187.3,100.9,187.3,100.8,187.3,100.7z"/>
	<path style="fill:#5881A2;" d="M183.7,91.5c-0.2-0.1-0.3-0.2-0.3-0.3C183.6,91.2,183.6,91.3,183.7,91.5z"/>
	<path style="fill:#181A1C;" d="M183.8,91.8c0.2,0.1,0.3,0.1,0.2,0.3c0,0-0.1,0-0.1,0C183.9,92,183.8,91.9,183.8,91.8z"/>
	<path style="fill:#D0D2D3;" d="M134.8,120c-0.6,0-1.2,0-1.8,0c0.2-1.4,0.5-2.7,1.2-4C134.4,117.4,134.6,118.7,134.8,120z"/>
	<path style="fill:#253B50;" d="M115.6,137c-0.4,0-1.1,0.1-1.4-0.1c-0.3-0.3,0-0.9,0-1.4c0.2-2.2,0.5-4.5,0.7-6.7
		c0-0.2,0.1-0.4,0.4-0.4c0.2,0,0.5,0,0.5,0.3c0.4,2.6,0.8,5.3,1.2,7.9c0.1,0.3-0.1,0.4-0.4,0.4C116.4,137,116,137,115.6,137z"/>
	<path style="fill:#FEFEFE;" d="M167.6,92.6c-2.6-1.2-5.1-2.4-7.7-3.3c-1.7-0.6-3.5-1.3-5.4-1.5c-0.1,0-0.3,0-0.4-0.2
		c-0.1-0.2,0.1-0.3,0.2-0.4c0.8-0.7,1.7-1.1,2.7-1.5c0.2-0.1,0.4,0,0.5,0.1c3.3,2.2,6.6,4.3,9.9,6.5
		C167.5,92.3,167.6,92.4,167.6,92.6z"/>
</g>
</svg>
