<?xml version="1.0" encoding="utf-8"?>
<!-- Generator: Adobe Illustrator 24.1.0, SVG Export Plug-In . SVG Version: 6.00 Build 0)  -->
<svg version="1.1" id="Layer_1" xmlns="http://www.w3.org/2000/svg" xmlns:xlink="http://www.w3.org/1999/xlink" x="0px"
	y="0px" viewBox="0 0 200 200" style="enable-background:new 0 0 200 200;" xml:space="preserve">
	<style type="text/css">
		.lap_st0 {
			fill: #E97C0B;
		}

		.lap_st1 {
			fill: #040200;
		}

		.lap_st2 {
			fill: #020100;
		}

		.lap_st3 {
			fill: #006B79;
		}

		.lap_st4 {
			fill: #E97C0C;
		}

		.lap_st5 {
			fill: #FCFCFC;
		}

		.lap_st6 {
			fill: #E87C0B;
		}

		.lap_st7 {
			fill: #FBFBFB;
		}

		.lap_st8 {
			fill: #E87C0C;
		}

		.lap_st9 {
			fill: #E47C0D;
		}
	</style>
	<g>
		<path class="lap_st0" d="M46.13,19c1.86,3.75,3.73,7.49,5.59,11.24c0.88,1.76,1.76,3.53,2.62,5.29c0.12,0.25,0.28,0.33,0.55,0.4
		c1.42,0.37,2.6-0.06,3.87-0.75c4.98-2.71,10.32-4.45,15.83-5.71c5.16-1.18,10.39-1.84,15.68-2.03c11.22-0.4,22.21,0.84,32.88,4.46
		c8.18,2.78,15.69,6.84,22.64,11.95c3.92,2.88,7.65,6,11.11,9.42c5.53,5.46,10.1,11.64,13.91,18.4c3.19,5.66,5.79,11.57,7.65,17.84
		c0.27-0.16,0.42-0.42,0.61-0.63c1.6-1.89,3.37-3.58,5.8-4.34c2.46-0.76,4.98-1.22,7.51-0.35c4.21,1.43,7.34,6.04,7.32,10.23
		c-0.02,3.41-1.46,6.1-3.84,8.38c-2.96,2.84-6.55,4.67-10.31,6.17c-1.03,0.41-2.08,0.76-3.13,1.1c-0.34,0.11-0.41,0.25-0.41,0.59
		c0.04,2.29,0.19,4.58,0.09,6.87c-0.18,4.23-0.91,8.39-1.77,12.53c-0.9,4.38-1.84,8.75-3.03,13.05c-1.57,5.68-4.17,10.89-7.27,15.87
		c-3.99,6.41-8.72,12.24-13.96,17.67c-1.42,1.47-2.87,2.91-4.38,4.29c-0.26,0.24-0.52,0.35-0.89,0.35
		c-4.88-0.01-9.76-0.01-14.65-0.01c-32.36,0-64.72,0-97.08,0.01c-0.43,0-0.75-0.11-1.08-0.4c-2.95-2.62-5.54-5.56-8.03-8.61
		c-4.96-6.08-9.49-12.47-13.5-19.22c-2.22-3.73-3.64-7.8-4.82-11.96c-1.36-4.8-2.33-9.68-2.96-14.62c-0.02-0.12-0.02-0.25-0.12-0.34
		c-0.6-0.54-1.08-1.19-1.79-1.63c-1.84-1.12-3.22-2.72-4.52-4.4c-1.01-1.31-1.89-2.7-2.46-4.27c0-0.28,0-0.56,0-0.85
		c0.15-0.17,0.17-0.38,0.21-0.58c0.77-3.36,1.06-6.78,1.24-10.2c0.17-3.21,1.42-5.87,3.67-8.11c0.25-0.25,0.3-0.44,0.21-0.78
		c-0.82-3.04,0.02-5.51,2.44-7.28c0.8-0.58,1.44-1.34,1.86-2.19c0.05-0.09,0.1-0.19,0.15-0.28c0.88-1.47,2.2-2.28,3.84-2.63
		c0.26-0.06,0.52-0.05,0.65-0.41c2.29-6.17,5.44-11.89,9.13-17.32c2.71-4,5.65-7.82,8.99-11.32c0.6-0.63,0.92-1.4,1.09-2.25
		c0.06-0.31,0.01-0.53-0.22-0.75c-0.78-0.73-1.55-1.49-2.32-2.23c-2.79-2.69-5.58-5.38-8.35-8.08c-0.69-0.67-1.32-1.39-1.97-2.09
		c-0.01,0.01,0.03-0.03,0.07-0.03c2.2-0.36,4.41-0.72,6.61-1.07c3.56-0.58,7.12-1.16,10.68-1.72c0.38-0.06,0.6-0.2,0.77-0.58
		c2.22-4.76,4.46-9.52,6.68-14.28c0.28-0.6,0.66-1.16,0.78-1.83C46.06,19,46.09,19,46.13,19z M95.29,169.76c19.33,0,38.67,0,58,0
		c0.14,0,0.28,0,0.42,0c0.19,0.01,0.32-0.07,0.45-0.22c1.13-1.3,2.22-2.63,3.27-4c3.36-4.36,6.4-8.92,9.02-13.77
		c2.84-5.26,5.23-10.71,6.51-16.57c1.28-5.84,2.08-11.76,2.39-17.74c0.2-3.82,0.27-7.63-0.3-11.42c-0.04-0.3,0.06-0.39,0.34-0.46
		c0.92-0.23,1.84-0.47,2.75-0.74c2.5-0.73,4.99-1.46,7.35-2.58c1.12-0.53,2.01-1.41,3.05-2.07c1.28-0.82,2.59-1.64,3.53-2.88
		c0.69-0.92,1.17-1.92,1.1-3.1c-0.12-2.03-2.31-3.43-3.9-3.65c-1.09-0.15-1.89,0.41-2.7,0.97c-2.21,1.52-4.35,3.15-6.73,4.41
		c-1.69,0.89-3.42,1.64-5.33,1.94c-0.34,0.05-0.45-0.05-0.54-0.35c-0.32-1.1-0.65-2.19-1.01-3.28c-2.31-6.88-5.21-13.49-8.77-19.82
		c-3.39-6.03-7.33-11.65-12.09-16.67c-2.24-2.37-4.68-4.51-7.28-6.48c-5.71-4.31-11.72-8.1-18.26-11.02
		c-6.08-2.71-12.43-4.46-19.03-5.3c-3.26-0.41-6.54-0.61-9.83-0.72c-2.69-0.09-5.39-0.11-8.08,0.05c-2.99,0.17-5.95,0.5-8.9,1.01
		c-7.6,1.32-14.89,3.62-21.84,6.97c-0.17,0.08-0.34,0.14-0.55,0.11c-2.56-0.37-5.11-0.73-7.67-1.08c-0.24-0.03-0.31-0.2-0.4-0.37
		c-1.24-2.34-2.47-4.69-3.72-7.03c-0.12-0.22-0.16-0.62-0.42-0.61c-0.29,0.01-0.32,0.41-0.44,0.65c-1.1,2.3-2.18,4.61-3.26,6.91
		c-0.1,0.22-0.18,0.42-0.5,0.46c-2.73,0.37-5.46,0.77-8.19,1.17c-0.17,0.03-0.44-0.03-0.5,0.18c-0.05,0.18,0.17,0.29,0.29,0.41
		c1.9,1.91,3.81,3.82,5.72,5.72c0.23,0.23,0.34,0.44,0.28,0.78c-0.36,2.27-0.7,4.55-1.02,6.82c-0.05,0.37-0.17,0.65-0.45,0.92
		c-3.23,3.11-6.04,6.57-8.6,10.24c-4.64,6.65-8.27,13.82-10.84,21.52c-0.12,0.37-0.25,0.46-0.63,0.33c-1.02-0.33-2.08-0.5-3.16-0.56
		c-0.4-0.02-0.55,0.04-0.35,0.48c0.4,0.86,0.69,1.77,0.89,2.7c0.18,0.85,0.27,1.7,0.06,2.56c-0.1,0.43-0.25,0.49-0.63,0.24
		c-0.97-0.64-1.99-1.19-3.11-1.51c-0.31-0.09-0.49-0.16-0.43,0.35c0.17,1.52,0.22,3.06,0.14,4.59c-0.02,0.48-0.03,0.97-0.44,1.36
		c-0.75,0.71-1.49,1.44-2.2,2.21c-0.46,0.5-0.92,1-0.95,1.76c-0.13,2.51-0.25,5.02-0.63,7.51c-0.18,1.16-0.33,2.36-0.96,3.37
		c-0.33,0.54-0.19,0.82,0.17,1.19c1.21,1.25,2.44,2.49,3.84,3.53c1.39,1.03,2.81,2.04,4.68,1.84c0.47-0.05,0.56,0.14,0.52,0.56
		c-0.17,1.93-0.07,3.86,0.08,5.79c0.27,3.36,0.93,6.65,1.95,9.86c0.86,2.72,2.05,5.31,3.13,7.95c1.96,4.81,4.3,9.42,7.3,13.69
		c2.57,3.66,5.4,7.1,8.3,10.49c0.27,0.31,0.56,0.41,0.96,0.41C56.55,169.76,75.92,169.76,95.29,169.76z M56.41,175.37
		c0-2.39-1.79-4.21-4.15-4.21c-2.31,0-4.12,1.84-4.12,4.19c0,2.44,1.77,4.26,4.15,4.26C54.64,179.61,56.41,177.79,56.41,175.37z
		 M99.08,179.75c0-2.93,0-5.75,0-8.64c-0.81,0.41-1.23,1.01-1.25,1.85c-0.02,0.9,0,1.8-0.01,2.69c0,0.18,0.07,0.37-0.09,0.57
		c-1.51-1.67-2.99-3.32-4.56-5.05c0,2.75,0,5.36,0,7.97c0,0.12-0.05,0.31,0.09,0.33c0.37,0.04,0.75,0.08,1.1-0.01
		c0.21-0.05,0.09-0.38,0.09-0.57c0.01-1.38,0-2.77,0-4.27C96.03,176.37,97.52,178.02,99.08,179.75z M110.53,172.83
		c0-0.31-0.03-0.6,0.01-0.87c0.07-0.46-0.14-0.62-0.56-0.67c-1.67-0.2-3.09,0.26-4.08,1.67c-1.02,1.45-1.11,3.03-0.24,4.58
		c0.84,1.52,2.22,2.16,3.93,2.06c1.35-0.08,2.29-1.29,2.23-2.78c-0.05-1.3-1.1-2.3-2.41-2.3c-0.28,0-0.56-0.01-0.85,0
		c-0.15,0.01-0.35-0.08-0.43,0.08c-0.08,0.15,0.09,0.28,0.18,0.41c0.33,0.48,0.83,0.67,1.36,0.85c0.61,0.21,0.95,0.83,0.83,1.42
		c-0.12,0.61-0.65,1.05-1.23,1.04c-1.58-0.02-2.86-1.3-2.86-2.87c-0.01-1.52,1.27-2.84,2.8-2.89
		C109.66,172.55,110.08,172.69,110.53,172.83z M84.7,171.1c-1.19,2.91-2.34,5.71-3.5,8.54c0.89,0.07,1.6-0.38,1.94-1.29
		c0.16-0.44,0.38-0.6,0.84-0.55c0.47,0.05,0.95,0.05,1.42,0c0.47-0.05,0.67,0.13,0.83,0.57c0.45,1.24,0.48,1.23,1.89,1.1
		C86.99,176.7,85.86,173.94,84.7,171.1z M140.99,179.5c-0.27-0.6-0.6-0.95-1.06-1.15c-0.35-0.15-0.72-0.14-1.09-0.14
		c-0.79-0.01-0.68,0.1-0.69-0.71c0-0.49,0.01-0.99-0.01-1.48c-0.01-0.31,0.07-0.45,0.41-0.43c0.4,0.03,0.81,0.01,1.21,0
		c0.13,0,0.33,0.05,0.34-0.14c0.02-0.35,0.08-0.73-0.03-1.04c-0.08-0.22-0.45-0.09-0.68-0.09c-1.31-0.01-1.31-0.01-1.25-1.32
		c0.01-0.27,0.09-0.38,0.36-0.36c0.42,0.02,0.84,0,1.27,0c0.97,0,0.96,0,0.92-0.96c-0.01-0.25-0.08-0.33-0.33-0.33
		c-1.06,0.01-2.11,0.01-3.17,0c-0.25,0-0.33,0.07-0.33,0.33c0.01,2.5,0.01,5,0,7.5c0,0.26,0.09,0.33,0.34,0.32
		C138.44,179.5,139.69,179.5,140.99,179.5z M121.55,179.5c-0.21-0.54-0.55-0.87-0.99-1.11c-0.46-0.25-0.96-0.19-1.45-0.17
		c-0.32,0.01-0.44-0.08-0.42-0.42c0.03-0.37,0.01-0.74,0.01-1.11c0-1.09,0-1.09,1.1-1.09c0.9,0,0.89,0,0.88-0.9
		c0-0.29-0.08-0.41-0.38-0.39c-0.42,0.02-0.85-0.01-1.27,0.01c-0.42,0.03-0.38-0.28-0.32-0.48c0.13-0.39-0.38-1,0.31-1.18
		c0.41-0.1,0.88-0.02,1.32-0.02c0.97,0,0.97,0,0.9-0.97c-0.01-0.21-0.05-0.32-0.29-0.32c-1.09,0.01-2.18,0.01-3.27,0
		c-0.22,0-0.26,0.1-0.26,0.29c0,2.52,0,5.03,0,7.55c0,0.22,0.06,0.31,0.29,0.31C118.96,179.5,120.22,179.5,121.55,179.5z
		 M150.82,171.25c-0.69,0-1.29,0-1.89,0c-1.27,0-2.24,0.78-2.35,1.88c-0.13,1.3,0.61,2.28,1.91,2.55c0.81,0.16,1.26,0.67,1.22,1.34
		c-0.05,0.72-0.56,1.16-1.42,1.19c-0.47,0.02-0.95,0.01-1.43,0c-0.3-0.01-0.34,0.1-0.19,0.34c0.34,0.51,0.79,0.85,1.4,0.94
		c2.03,0.29,3.54-1.64,2.77-3.55c-0.38-0.96-1.13-1.44-2.12-1.61c-0.53-0.09-0.87-0.47-0.86-0.9c0.01-0.45,0.37-0.8,0.91-0.87
		c0.12-0.02,0.25-0.01,0.37-0.02C149.92,172.43,150.47,172.04,150.82,171.25z M66.33,171.25c-0.69,0-1.31,0-1.92,0
		c-1.23,0-2.2,0.78-2.32,1.86c-0.14,1.3,0.6,2.3,1.89,2.57c0.84,0.17,1.3,0.68,1.24,1.37c-0.07,0.72-0.58,1.13-1.45,1.16
		c-0.46,0.01-0.92,0.01-1.37,0c-0.34-0.01-0.36,0.12-0.19,0.37c0.33,0.49,0.78,0.82,1.37,0.91c1.89,0.3,3.39-1.37,2.89-3.23
		c-0.31-1.15-1.11-1.74-2.25-1.93c-0.49-0.08-0.83-0.46-0.83-0.88c0-0.43,0.33-0.78,0.83-0.88c0.12-0.02,0.24-0.02,0.37-0.03
		C65.38,172.46,65.95,172.06,66.33,171.25z M40.42,171.01c-0.82,0.4-1.27,0.96-1.28,1.77c-0.03,2.11,0,4.23-0.02,6.34
		c0,0.31,0.1,0.39,0.39,0.38c0.88-0.02,1.76-0.01,2.64-0.01c0.9,0,0.89,0,0.86-0.91c-0.01-0.31-0.12-0.39-0.41-0.38
		c-0.53,0.02-1.06-0.03-1.58,0.02c-0.53,0.05-0.63-0.14-0.63-0.64C40.44,175.43,40.42,173.26,40.42,171.01z M128.72,171.02
		c-0.83,0.4-1.27,0.98-1.28,1.81c-0.02,2.1,0,4.19-0.01,6.29c0,0.3,0.08,0.39,0.38,0.39c0.88-0.02,1.76-0.01,2.64-0.01
		c0.9,0,0.89,0,0.87-0.91c-0.01-0.31-0.11-0.39-0.4-0.38c-0.56,0.02-1.13-0.02-1.69,0.01c-0.42,0.03-0.53-0.1-0.53-0.52
		C128.73,175.5,128.72,173.3,128.72,171.02z" />
		<path d="M95.29,169.76c-19.37,0-38.74,0-58.11,0.01c-0.4,0-0.69-0.1-0.96-0.41c-2.9-3.39-5.73-6.84-8.3-10.49
		c-3-4.27-5.34-8.88-7.3-13.69c-1.07-2.64-2.26-5.23-3.13-7.95c-1.02-3.21-1.68-6.49-1.95-9.86c-0.15-1.93-0.25-3.86-0.08-5.79
		c0.04-0.42-0.05-0.61-0.52-0.56c-1.87,0.2-3.29-0.81-4.68-1.84c-1.4-1.04-2.63-2.28-3.84-3.53c-0.36-0.37-0.5-0.65-0.17-1.19
		c0.63-1.01,0.78-2.21,0.96-3.37c0.39-2.49,0.5-5,0.63-7.51c0.04-0.76,0.5-1.26,0.95-1.76c0.7-0.76,1.44-1.49,2.2-2.21
		c0.41-0.39,0.42-0.89,0.44-1.36c0.08-1.53,0.03-3.07-0.14-4.59c-0.06-0.51,0.12-0.43,0.43-0.35c1.13,0.32,2.14,0.87,3.11,1.51
		c0.38,0.25,0.52,0.18,0.63-0.24c0.21-0.86,0.12-1.71-0.06-2.56c-0.2-0.93-0.49-1.84-0.89-2.7c-0.2-0.44-0.05-0.5,0.35-0.48
		c1.08,0.05,2.13,0.22,3.16,0.56c0.37,0.12,0.5,0.03,0.63-0.33c2.56-7.7,6.2-14.87,10.84-21.52c2.56-3.67,5.37-7.13,8.6-10.24
		c0.27-0.26,0.39-0.55,0.45-0.92c0.33-2.28,0.67-4.55,1.02-6.82c0.05-0.34-0.05-0.55-0.28-0.78c-1.91-1.9-3.82-3.81-5.72-5.72
		c-0.12-0.12-0.35-0.22-0.29-0.41c0.06-0.21,0.33-0.16,0.5-0.18c2.73-0.4,5.46-0.8,8.19-1.17c0.32-0.04,0.4-0.24,0.5-0.46
		c1.09-2.3,2.17-4.61,3.26-6.91c0.11-0.24,0.14-0.64,0.44-0.65c0.26-0.01,0.3,0.39,0.42,0.61c1.25,2.34,2.48,4.68,3.72,7.03
		c0.09,0.17,0.16,0.34,0.4,0.37c2.56,0.35,5.12,0.71,7.67,1.08c0.21,0.03,0.38-0.03,0.55-0.11c6.95-3.35,14.24-5.64,21.84-6.97
		c2.94-0.51,5.91-0.84,8.9-1.01c2.69-0.15,5.39-0.14,8.08-0.05c3.28,0.11,6.56,0.31,9.83,0.72c6.6,0.84,12.95,2.58,19.03,5.3
		c6.54,2.92,12.56,6.71,18.26,11.02c2.6,1.97,5.04,4.11,7.28,6.48c4.76,5.03,8.71,10.65,12.09,16.67
		c3.56,6.33,6.46,12.94,8.77,19.82c0.36,1.08,0.69,2.18,1.01,3.28c0.09,0.3,0.2,0.4,0.54,0.35c1.91-0.3,3.64-1.05,5.33-1.94
		c2.38-1.26,4.53-2.88,6.73-4.41c0.81-0.56,1.6-1.12,2.7-0.97c1.6,0.22,3.78,1.62,3.9,3.65c0.07,1.18-0.41,2.18-1.1,3.1
		c-0.94,1.25-2.25,2.06-3.53,2.88c-1.03,0.66-1.92,1.53-3.05,2.07c-2.36,1.12-4.86,1.85-7.35,2.58c-0.91,0.27-1.83,0.51-2.75,0.74
		c-0.27,0.07-0.38,0.16-0.34,0.46c0.57,3.8,0.5,7.61,0.3,11.42c-0.32,5.98-1.11,11.9-2.39,17.74c-1.28,5.86-3.67,11.31-6.51,16.57
		c-2.62,4.84-5.67,9.41-9.02,13.77c-1.05,1.36-2.14,2.7-3.27,4c-0.13,0.15-0.26,0.22-0.45,0.22c-0.14,0-0.28,0-0.42,0
		C133.96,169.76,114.62,169.76,95.29,169.76z M64.94,118.48c-1.11,0.57-2.22,1.13-3.32,1.72c-4.29,2.29-8.53,4.66-12.28,7.81
		c-0.92,0.77-1.77,1.61-2.38,2.66c-0.13,0.22-0.14,0.38,0.03,0.6c1.4,1.76,2.76,3.55,4.41,5.1c0.39,0.36,0.83,0.56,1.38,0.54
		c0.88-0.03,1.68-0.33,2.49-0.64c0.22-0.08,0.27-0.24,0.27-0.46c0-0.55-0.05-1.1,0.02-1.64c0.25-2.14,0.12-2.06,2.11-2.64
		c1.64-0.48,3.33-0.67,5.1-0.8c-0.29-0.59-0.54-1.14-0.82-1.68c-0.59-1.12-1.15-2.26-2.01-3.2c-0.28-0.31-0.26-0.49-0.05-0.8
		c1.27-1.77,2.53-3.54,3.92-5.22C64.18,119.38,64.7,119.05,64.94,118.48c0.02-0.01,0.05-0.02,0.09-0.03
		C65,118.46,64.97,118.47,64.94,118.48z M43.47,137.03c-0.01-0.07-0.01-0.15-0.04-0.2c-0.68-0.91-1.37-1.83-1.95-2.81
		c-0.07-0.11-0.16-0.19-0.29-0.21c-0.55-1.03-1.11-2.06-1.66-3.08c-0.14-0.26-0.21-0.52-0.09-0.8c0.18-0.45,0.4-0.89,0.57-1.35
		c0.4-1.06,1.03-2.02,1.49-3.05c0.24-0.03,0.33-0.22,0.43-0.4c1-1.69,2.1-3.3,3.47-4.71c0.52-0.54,1.07-1.05,1.6-1.57
		c0.22-0.36-0.04-0.64-0.2-0.9c-0.69-1.14-1.64-2.03-2.68-2.85c-1.16-0.91-2.37-1.74-3.66-2.44c-1.57-0.85-3.14-1.72-4.89-2.15
		c-0.37-0.09-0.75-0.27-1.17-0.07c-3.16,1.5-6.33,3-9.51,4.48c-0.36,0.17-0.46,0.38-0.45,0.77c0.03,2.21,0.22,4.41,0.41,6.61
		c0.16,1.78,0.4,3.54,0.69,5.3c0.37,2.18,0.84,4.35,1.42,6.49c0.9,3.32,2.02,6.55,3.58,9.62c0.36,0.72,0.36,0.71,1.05,0.37
		c3.72-1.81,7.63-3.15,11.52-4.53c0.68-0.24,1.36-0.49,2.09-0.75C44.53,138.23,43.89,137.73,43.47,137.03z M145.31,123.9
		c0.15,0.25,0.42,0.36,0.62,0.56c1.53,1.49,3.29,2.65,5.21,3.56c0.14,0.06,0.3,0.09,0.31,0.31c0.04,0.91,0.08,1.83-0.47,2.63
		c-0.76,1.09-0.97,2.34-1.12,3.61c-0.19,0.13-0.17,0.34-0.19,0.52c-0.03,0.31-0.07,0.63-0.07,0.93c0,0.64-0.24,1.27-0.05,1.91
		c0,0.55,0.03,1.09-0.01,1.64c-0.03,0.35,0.12,0.5,0.42,0.6c0.7,0.24,1.39,0.49,2.08,0.74c2.17,0.81,4.33,1.61,6.38,2.69
		c0.63,0.33,0.63,0.33,0.98-0.25c1.38-2.27,2.44-4.69,3.29-7.2c1.18-3.48,2-7.05,2.44-10.71c0.27-2.18,0.48-4.35,0.51-6.54
		c0.02-1.06-0.02-2.12,0.01-3.17c0.04-1.27-0.05-2.53-0.14-3.79c-0.12-1.6-0.27-3.2-0.47-4.8c-0.06-0.52-0.19-0.63-0.68-0.62
		c-3.34,0.07-6.67-0.01-9.98-0.52c-2.02-0.31-4.03-0.7-5.98-1.32c-2.96-0.94-5.82-2.12-8.67-3.35c0.03-0.11-0.04-0.15-0.12-0.19
		c-2.71-1.37-5.57-2.23-8.62-2.4c-0.47-0.03-0.61,0.06-0.46,0.56c0.62,2.07,1.36,4.1,2.2,6.09c0.06,0.14,0.08,0.32,0.3,0.31
		c0.08,0.24,0.15,0.49,0.23,0.73c0,0.05-0.02,0.1-0.01,0.14c1.24,2.7,2.59,5.34,4.21,7.84c0.11,0.17,0.23,0.32,0.45,0.32
		c0.26,0.61,0.79,1.03,1.06,1.63c-0.08,0.14,0.04,0.23,0.11,0.32c1.79,2.39,3.69,4.69,5.71,6.89
		C144.93,123.73,145.07,123.9,145.31,123.9z M59.73,80.95c0.12,0.07,0.17,0.2,0.34,0.22c1.31,0.1,2.61,0.21,3.92,0.31
		c1.25,0.1,2.5,0.22,3.76,0.28c0.62,0.03,1.23,0.17,1.86,0.05c0.91-0.06,1.81,0.19,2.72,0.09c0.18,0.18,0.41,0.17,0.64,0.18
		c2.37,0.11,4.73,0.26,7.1,0.33c1.79,0.05,3.58,0.15,5.37,0.21c1.6,0.06,3.2,0.13,4.79,0.19c3.42,0.15,6.85,0.28,10.27,0.43
		c2.46,0.1,4.91,0.23,7.37,0.32c1.97,0.08,3.93,0.25,5.88,0.46c3.94,0.43,7.82,1.19,11.64,2.23c0.18,0.05,0.33,0.11,0.49-0.02
		c0.19,0.12,0.42,0.16,0.63,0.21c0.85,0.22,1.7,0.45,2.54,0.68c0.02,0.11,0.1,0.12,0.19,0.14c2.55,0.73,5.01,1.68,7.45,2.71
		c0.18,0.08,0.36,0.13,0.55,0.04c1.22,0.67,2.51,1.19,3.7,1.91c0.69,0.42,1.47,0.71,2.07,1.27c1.89,1.07,3.87,1.94,5.89,2.74
		c0.18,0.07,0.34,0.02,0.51,0.01c1.47,0.63,3.01,1,4.56,1.37c1.85,0.44,3.72,0.78,5.62,0.98c1.15,0.12,2.3,0.2,3.45,0.29
		c0.62,0.05,0.64,0.01,0.44-0.59c-0.42-1.26-0.85-2.52-1.32-3.76c-1.5-3.97-3.23-7.83-5.22-11.58c-2-3.77-4.23-7.4-6.71-10.88
		c-2.13-2.98-4.44-5.8-6.94-8.47c-1.96-2.09-4.06-4.04-6.27-5.85c-2.19-1.79-4.49-3.43-6.9-4.92c-3.48-2.15-7.15-3.92-11.01-5.28
		c-2.36-0.83-4.77-1.48-7.22-2c-3.21-0.68-6.45-1.11-9.72-1.21c-3.49-0.11-6.99-0.07-10.48,0.27c-1.27,0.12-2.55,0.21-3.81,0.37
		c-1.71,0.21-3.42,0.49-5.12,0.8c-3.27,0.59-6.49,1.41-9.65,2.41c-2.39,0.75-4.73,1.64-7.02,2.65c-2.74,1.21-5.41,2.56-7.99,4.1
		c-2.52,1.5-4.93,3.18-7.24,4.99c-1.74,1.36-3.4,2.8-5,4.31c-1.71,1.61-3.31,3.34-4.84,5.13c-1.56,1.82-3.03,3.7-4.4,5.66
		c-2.75,3.91-5.07,8.05-6.96,12.44c-0.35,0.81-0.71,1.62-0.94,2.48c0.12,0.08,0.19,0.02,0.27-0.01c1.03-0.37,1.97-0.93,2.9-1.47
		c2.76-1.61,5.42-3.38,8.02-5.24c0.96-0.69,1.95-1.34,2.88-2.08c0.12,0.04,0.22,0.06,0.34-0.03c0.52-0.39,1.04-0.77,1.56-1.15
		c0.08-0.06,0.11-0.13,0.08-0.23c0.41-0.3,0.84-0.57,1.21-0.91c0.26-0.24,0.47-0.24,0.75-0.09c1.36,0.72,2.85,1.03,4.33,1.35
		c1.67,0.36,3.36,0.63,5.05,0.82C57.3,80.75,58.5,81.03,59.73,80.95z M97.41,98.89c-0.49,0.3-0.85,0.64-1.17,1.03
		c-1.29,1.58-2.15,3.41-2.92,5.28c-1.01,2.48-1.81,5.03-2.46,7.62c-0.06,0.24-0.06,0.49-0.46,0.5c-2.55,0.08-5.09,0.27-7.61,0.61
		c-3.31,0.45-6.59,1.08-9.78,2.1c-0.5,0.16-0.78,0.42-0.99,0.89c-1.54,3.48-2.12,7.16-2.4,10.91c-0.08,1.02-0.09,2.04-0.15,3.05
		c-0.05,0.86-0.05,1.72,0.03,2.58c0.02,0.19,0.08,0.24,0.26,0.2c1.36-0.26,2.75-0.38,4.13-0.53c2.78-0.28,5.57-0.44,8.36-0.59
		c0.8-0.04,0.8-0.02,0.89-0.81c0.19-1.77,1.2-2.68,2.96-2.68c3.81,0,7.61,0,11.42,0c0.19,0,0.38,0,0.61,0
		C95.55,119.06,95.36,109.03,97.41,98.89z M132.42,135.57c0-0.31-0.01-0.57,0-0.83c0.07-1.35,0.9-2.4,2.38-2.3
		c0.57,0.04,1.1,0.19,1.63,0.38c1.87,0.67,3.79,1.15,5.79,1.65c-0.11-0.18-0.17-0.3-0.24-0.41c-2.1-3.03-4.78-5.48-7.71-7.66
		c-4.88-3.64-10.21-6.5-15.82-8.84c-0.78-0.33-0.75-0.19-0.38-0.98c1.45-3.04,2.92-6.07,4.38-9.11c0.33-0.68,0.66-1.36,1.03-2.15
		c-1.45,0.78-4.4,3.12-6.15,4.89c-1.4,1.41-2.73,2.89-3.96,4.45c-4.14,5.25-7.37,11.02-9.9,17.19c-0.16,0.39-0.07,0.46,0.32,0.47
		c2.18,0.07,4.36,0.11,6.54,0.25c3.05,0.2,6.09,0.45,9.13,0.81c2.83,0.33,5.64,0.73,8.44,1.23
		C129.41,134.89,130.9,135.21,132.42,135.57z M73.5,151.82c3.64,4.04,7.17,7.97,10.78,11.98c0-6.71,0-13.29,0-19.88
		c-1.49,0.52-2.77,2.21-2.83,3.81c-0.06,1.46-0.07,2.92-0.09,4.38c-0.01,1.15,0,2.29-0.01,3.44c0,0.12,0.08,0.28-0.11,0.4
		c-3.54-3.93-7.08-7.86-10.69-11.87c0,2.88,0,5.63,0,8.38c0,3.45,0.01,6.91-0.01,10.36c0,0.43,0.12,0.53,0.53,0.51
		c0.65-0.03,1.31-0.04,1.95,0c0.4,0.02,0.49-0.1,0.49-0.49c-0.02-2.73-0.01-5.46-0.01-8.19C73.5,153.74,73.5,152.85,73.5,151.82z
		 M131.99,156.05c0.17-0.06,0.26-0.1,0.36-0.12c3.05-0.61,5.06-3.58,4.63-6.59c-0.41-2.9-2.74-5.07-5.8-5.13
		c-1.58-0.03-3.17,0-4.76-0.03c-0.4-0.01-0.49,0.09-0.49,0.49c0.01,4.88,0.01,9.76,0.01,14.64c0,0.98,0.3,1.87,0.86,2.65
		c0.53,0.73,1.18,1.32,2.1,1.63c-0.01-2.16,0.04-4.28-0.09-6.41c0.29,0.05,0.38,0.23,0.48,0.35c1.21,1.49,2.46,2.94,3.58,4.48
		c0.66,0.9,1.34,1.41,2.5,1.24c0.73-0.1,1.48-0.02,2.3-0.02C135.76,160.78,133.89,158.44,131.99,156.05z M102.18,163.64
		c0-0.24,0-0.43,0-0.63c0-2.75,0.01-5.5-0.01-8.24c0-0.37,0.08-0.47,0.46-0.46c1.97,0.02,3.95,0.02,5.92,0
		c0.42-0.01,0.51,0.11,0.51,0.52c-0.02,2.66,0,5.32-0.02,7.98c0,0.43,0.13,0.53,0.53,0.51c0.69-0.03,1.37-0.02,2.06,0
		c0.3,0.01,0.38-0.08,0.38-0.38c-0.01-6.06-0.01-12.12,0-18.18c0-0.28-0.08-0.35-0.35-0.35c-0.7,0.02-1.41,0.03-2.11,0
		c-0.39-0.02-0.5,0.09-0.5,0.49c0.02,2.01,0,4.02,0.02,6.02c0,0.37-0.09,0.47-0.47,0.47c-1.96-0.02-3.91-0.02-5.87,0
		c-0.36,0-0.47-0.07-0.47-0.45c0.02-2.01-0.01-4.02,0.02-6.02c0.01-0.44-0.15-0.52-0.53-0.51c-0.65,0.02-1.31,0.04-1.95-0.01
		c-0.46-0.03-0.58,0.09-0.58,0.57c0.02,4.81-0.01,9.62,0.03,14.43C99.26,161.17,100.31,162.87,102.18,163.64z M69.07,163.52
		c-2.64-6.47-5.25-12.88-7.89-19.36c-2.71,6.63-5.39,13.18-8.09,19.79c1.59-0.13,2.89-0.66,3.81-1.94c0.44-0.62,0.69-1.33,0.97-2.03
		c0.12-0.29,0.26-0.39,0.58-0.39c1.81,0.02,3.63,0.02,5.44,0c0.33,0,0.45,0.13,0.55,0.4c0.41,1.06,0.85,2.11,1.25,3.17
		c0.11,0.28,0.23,0.36,0.52,0.36C67.15,163.51,68.08,163.52,69.07,163.52z M44,156.06c0.65,0.2,1.28,0.37,1.93,0.37
		c3.47,0.03,6.07-2.75,6.03-5.94c-0.03-3.09-2.39-5.79-5.85-5.86c-1.53-0.03-3.07,0-4.6-0.03c-0.42-0.01-0.48,0.13-0.48,0.5
		c0.01,4.86,0.01,9.72,0,14.59c0,0.34,0.04,0.67,0.12,0.99c0.41,1.53,1.31,2.64,2.83,3.27C44,161.29,44,158.68,44,156.06z
		 M124.33,163.31c-0.65-1.51-1.7-2.43-3.19-2.82c-0.98-0.26-2-0.09-3-0.11c-0.32-0.01-0.42-0.08-0.42-0.41
		c0.02-1.73,0.02-3.45,0-5.18c-0.01-0.39,0.14-0.46,0.48-0.45c1.23,0.02,2.47,0,3.7,0.01c0.3,0,0.39-0.08,0.38-0.38
		c-0.02-0.72-0.02-1.45,0-2.17c0.01-0.32-0.07-0.42-0.4-0.41c-1.25,0.02-2.5,0-3.75,0.02c-0.34,0.01-0.41-0.09-0.4-0.41
		c0.02-1.06,0.02-2.11,0-3.17c-0.01-0.37,0.1-0.47,0.47-0.47c1.66,0.02,3.31,0,4.97,0.02c0.34,0,0.51-0.04,0.48-0.44
		c-0.04-0.7-0.03-1.41,0-2.11c0.01-0.33-0.08-0.41-0.41-0.41c-2.68,0.01-5.36,0.02-8.04,0c-0.36,0-0.42,0.12-0.42,0.44
		c0.01,2.54,0.01,5.07,0.01,7.61c0,3.47,0,6.94,0,10.41c0,0.26-0.02,0.45,0.37,0.44C118.17,163.3,121.2,163.31,124.33,163.31z
		 M148.27,144.08c-1.87,0.07-3.66-0.11-5.44,0.1c-2,0.24-3.79,1.85-4.26,3.8c-0.49,2.01,0.36,4.16,2.07,5.35
		c0.86,0.6,1.84,0.8,2.84,1.01c1.62,0.34,2.63,1.95,2.27,3.53c-0.31,1.34-1.49,2.26-2.97,2.27c-1.45,0.01-2.91,0-4.39,0
		c0.03,0.11,0.04,0.18,0.07,0.24c0.92,2,3.08,3.03,5.44,2.62c2.8-0.48,4.82-2.8,4.88-5.69c0.07-3.21-2.25-5.74-5.45-6.05
		c-1.02-0.1-1.87-0.95-1.93-1.91c-0.07-1.07,0.58-1.95,1.62-2.23c0.64-0.17,1.29-0.02,1.93-0.2
		C146.47,146.49,147.57,145.59,148.27,144.08z M93.39,163.97c0-0.13,0-0.21,0-0.3c0-5.21,0-10.43-0.01-15.64
		c0-0.37,0.08-0.47,0.46-0.46c1.14,0.03,2.29,0,3.44,0.01c0.25,0,0.38-0.02,0.37-0.33c-0.02-0.76-0.02-1.51,0-2.27
		c0.01-0.28-0.08-0.35-0.36-0.35c-3.61,0.01-7.22,0.01-10.84,0c-0.31,0-0.33,0.13-0.33,0.37c0.01,0.72,0.03,1.45-0.01,2.17
		c-0.02,0.37,0.12,0.43,0.45,0.42c1.09-0.02,2.19,0.02,3.28-0.02c0.46-0.01,0.62,0.08,0.61,0.59c-0.02,3.84-0.02,7.68-0.01,11.52
		C90.45,161.55,91.65,163.3,93.39,163.97z M49.33,50.08c-0.15-0.85-0.23-1.63-0.43-2.39c-0.2-0.78-0.06-1.33,0.66-1.8
		c0.66-0.44,1.23-1.02,1.9-1.6c-1.09-0.15-2.07-0.31-3.05-0.41c-0.34-0.03-0.48-0.18-0.62-0.46c-0.48-0.96-0.99-1.91-1.52-2.92
		c-0.39,0.82-0.83,1.57-1.12,2.37c-0.29,0.79-0.78,1.12-1.6,1.21c-0.76,0.08-1.51,0.31-2.36,0.49c0.8,0.73,1.51,1.38,2.23,2.02
		c0.22,0.19,0.3,0.36,0.21,0.68c-0.26,0.91-0.46,1.84-0.69,2.81c1-0.44,1.93-0.83,2.85-1.26c0.33-0.15,0.6-0.16,0.93,0.01
		C47.56,49.26,48.4,49.64,49.33,50.08z" />
		<path class="lap_st1" d="M56.41,175.37c0,2.42-1.76,4.23-4.11,4.24c-2.38,0-4.16-1.82-4.15-4.26c0-2.35,1.81-4.19,4.12-4.19
		C54.62,171.16,56.41,172.98,56.41,175.37z M52.3,172.51c-1.55-0.01-2.84,1.29-2.86,2.86c-0.02,1.55,1.29,2.9,2.82,2.91
		c1.54,0.01,2.84-1.29,2.85-2.87C55.13,173.84,53.84,172.51,52.3,172.51z" />
		<path class="lap_st2"
			d="M99.08,179.75c-1.56-1.73-3.05-3.39-4.62-5.13c0,1.5,0,2.89,0,4.27c0,0.2,0.12,0.52-0.09,0.57
		c-0.35,0.08-0.73,0.04-1.1,0.01c-0.13-0.01-0.09-0.21-0.09-0.33c0-2.61,0-5.21,0-7.97c1.57,1.74,3.05,3.38,4.56,5.05
		c0.16-0.2,0.09-0.4,0.09-0.57c0.01-0.9-0.01-1.8,0.01-2.69c0.02-0.84,0.44-1.44,1.25-1.85C99.08,174,99.08,176.82,99.08,179.75z" />
		<path class="lap_st1" d="M110.53,172.83c-0.46-0.15-0.88-0.28-1.32-0.27c-1.53,0.04-2.81,1.36-2.8,2.89c0.01,1.57,1.28,2.84,2.86,2.87
		c0.58,0.01,1.1-0.43,1.23-1.04c0.12-0.59-0.22-1.21-0.83-1.42c-0.53-0.18-1.03-0.38-1.36-0.85c-0.09-0.13-0.25-0.26-0.18-0.41
		c0.08-0.16,0.28-0.07,0.43-0.08c0.28-0.01,0.56,0,0.85,0c1.31,0,2.35,1.01,2.41,2.3c0.06,1.49-0.88,2.7-2.23,2.78
		c-1.71,0.11-3.08-0.54-3.93-2.06c-0.86-1.55-0.78-3.13,0.24-4.58c0.98-1.4,2.4-1.87,4.08-1.67c0.43,0.05,0.63,0.21,0.56,0.67
		C110.5,172.23,110.53,172.52,110.53,172.83z" />
		<path class="lap_st1" d="M84.7,171.1c1.16,2.84,2.29,5.6,3.42,8.37c-1.41,0.13-1.43,0.13-1.89-1.1c-0.16-0.43-0.36-0.61-0.83-0.57
		c-0.47,0.05-0.95,0.05-1.42,0c-0.46-0.04-0.68,0.12-0.84,0.55c-0.34,0.91-1.05,1.35-1.94,1.29
		C82.36,176.82,83.51,174.01,84.7,171.1z M83.9,176.49c0.55,0,1.04,0,1.59,0c-0.26-0.68-0.51-1.31-0.79-2.03
		C84.41,175.19,84.16,175.83,83.9,176.49z" />
		<path d="M140.99,179.5c-1.3,0-2.55-0.01-3.79,0c-0.25,0-0.34-0.06-0.34-0.32c0.01-2.5,0.01-5,0-7.5c0-0.25,0.08-0.33,0.33-0.33
		c1.06,0.01,2.11,0.01,3.17,0c0.25,0,0.32,0.08,0.33,0.33c0.04,0.96,0.06,0.96-0.92,0.96c-0.42,0-0.85,0.01-1.27,0
		c-0.28-0.01-0.35,0.09-0.36,0.36c-0.05,1.32-0.06,1.31,1.25,1.32c0.24,0,0.6-0.13,0.68,0.09c0.11,0.31,0.05,0.69,0.03,1.04
		c-0.01,0.2-0.21,0.14-0.34,0.14c-0.4,0.01-0.81,0.02-1.21,0c-0.34-0.02-0.42,0.11-0.41,0.43c0.02,0.49,0,0.99,0.01,1.48
		c0.01,0.81-0.1,0.7,0.69,0.71c0.37,0,0.74-0.02,1.09,0.14C140.39,178.55,140.73,178.9,140.99,179.5z" />
		<path d="M121.55,179.5c-1.32,0-2.59-0.01-3.85,0c-0.24,0-0.3-0.09-0.29-0.31c0.01-2.52,0-5.03,0-7.55c0-0.19,0.05-0.29,0.26-0.29
		c1.09,0.01,2.18,0.01,3.27,0c0.24,0,0.28,0.1,0.29,0.32c0.06,0.97,0.07,0.97-0.9,0.97c-0.44,0-0.9-0.08-1.32,0.02
		c-0.69,0.18-0.18,0.78-0.31,1.18c-0.07,0.2-0.1,0.51,0.32,0.48c0.42-0.03,0.85,0.01,1.27-0.01c0.31-0.02,0.38,0.1,0.38,0.39
		c0.01,0.9,0.02,0.9-0.88,0.9c-1.1,0-1.1,0-1.1,1.09c0,0.37,0.02,0.74-0.01,1.11c-0.02,0.33,0.1,0.43,0.42,0.42
		c0.49-0.01,0.99-0.07,1.45,0.17C121,178.63,121.34,178.96,121.55,179.5z" />
		<path class="lap_st1" d="M150.82,171.25c-0.35,0.78-0.91,1.17-1.67,1.28c-0.12,0.02-0.25,0-0.37,0.02c-0.53,0.08-0.89,0.43-0.91,0.87
		c-0.01,0.43,0.34,0.81,0.86,0.9c0.99,0.17,1.73,0.65,2.12,1.61c0.77,1.91-0.74,3.84-2.77,3.55c-0.61-0.09-1.07-0.43-1.4-0.94
		c-0.16-0.24-0.11-0.34,0.19-0.34c0.48,0.01,0.95,0.02,1.43,0c0.86-0.03,1.37-0.47,1.42-1.19c0.05-0.67-0.41-1.17-1.22-1.34
		c-1.3-0.26-2.04-1.25-1.91-2.55c0.11-1.1,1.09-1.88,2.35-1.88C149.54,171.25,150.13,171.25,150.82,171.25z" />
		<path class="lap_st1" d="M66.33,171.25c-0.39,0.81-0.95,1.21-1.75,1.29c-0.12,0.01-0.25,0.01-0.37,0.03c-0.5,0.09-0.83,0.45-0.83,0.88
		c0,0.42,0.34,0.8,0.83,0.88c1.15,0.19,1.95,0.78,2.25,1.93c0.49,1.85-1,3.52-2.89,3.23c-0.59-0.09-1.03-0.42-1.37-0.91
		c-0.17-0.25-0.15-0.38,0.19-0.37c0.46,0.01,0.92,0.01,1.37,0c0.87-0.02,1.38-0.44,1.45-1.16c0.06-0.69-0.39-1.2-1.24-1.37
		c-1.29-0.27-2.03-1.27-1.89-2.57c0.12-1.08,1.09-1.86,2.32-1.86C65.03,171.25,65.64,171.25,66.33,171.25z" />
		<path class="lap_st2" d="M40.42,171.01c0,2.25,0.02,4.41-0.01,6.57c-0.01,0.5,0.1,0.69,0.63,0.64c0.52-0.05,1.06,0,1.58-0.02
		c0.28-0.01,0.4,0.06,0.41,0.38c0.02,0.91,0.04,0.91-0.86,0.91c-0.88,0-1.76-0.01-2.64,0.01c-0.29,0.01-0.39-0.07-0.39-0.38
		c0.01-2.11-0.01-4.23,0.02-6.34C39.15,171.98,39.6,171.41,40.42,171.01z" />
		<path class="lap_st2" d="M128.72,171.02c0,2.29,0.01,4.49-0.01,6.69c0,0.42,0.11,0.55,0.53,0.52c0.56-0.04,1.13,0,1.69-0.01
		c0.29-0.01,0.39,0.08,0.4,0.38c0.02,0.91,0.03,0.91-0.87,0.91c-0.88,0-1.76-0.01-2.64,0.01c-0.3,0.01-0.39-0.09-0.38-0.39
		c0.01-2.1-0.01-4.19,0.01-6.29C127.45,172,127.89,171.42,128.72,171.02z" />
		<path class="lap_st3"
			d="M129.05,87.15c-0.85-0.23-1.69-0.46-2.54-0.68c-0.22-0.06-0.44-0.09-0.63-0.21
		c3.33-5.52,6.66-11.03,9.98-16.55c1.09-1.81,2.16-3.62,3.24-5.44c0.09-0.06,0.13-0.14,0.07-0.24c0.02,0,0.04-0.01,0.07-0.01
		c-0.01,0-0.02,0-0.02,0c-0.01,0.01-0.02,0.02-0.04,0.02c-0.05,0.05-0.11,0.11-0.16,0.16c-0.08,0.06-0.17,0.12-0.25,0.19
		c-6.01,5.06-12.01,10.13-18.02,15.19c-0.92,0.77-1.84,1.55-2.76,2.32c-0.03-0.02-0.06-0.04-0.09-0.06
		c2.95-8.73,5.9-17.46,8.84-26.19c-0.19,0.06-0.28,0.16-0.37,0.26c-4.93,6.47-9.86,12.95-14.79,19.42c-1.19,1.57-2.4,3.12-3.61,4.68
		l0.01,0.01c-0.09-0.11-0.05-0.24-0.04-0.36c0.23-3.16,0.46-6.32,0.7-9.48c0.27-3.56,0.54-7.13,0.82-10.69
		c0.2-2.56,0.4-5.12,0.59-7.69c0.08-1.1,0.16-2.19,0.24-3.29c-0.02-0.01-0.05-0.01-0.07-0.02c-3.54,8.93-7.09,17.86-10.63,26.79
		c-0.03-0.01-0.07-0.01-0.1-0.02c-1.52-9.52-3.04-19.05-4.56-28.57c-0.04,0-0.07,0-0.11-0.01c-1.62,10.44-3.23,20.89-4.85,31.33
		c-0.03,0.01-0.06,0.01-0.09,0.02c-4.13-9.4-8.25-18.81-12.38-28.21c-0.03,0.01-0.07,0.02-0.1,0.03c0.94,9.25,1.87,18.5,2.81,27.74
		c-0.04,0.01-0.08,0.02-0.13,0.02c-5.76-7.58-11.52-15.15-17.31-22.76c-0.11,0.27,0.01,0.42,0.07,0.58
		c1.38,3.87,2.78,7.75,4.16,11.62c1.77,4.95,3.54,9.9,5.31,14.85c-0.91,0.1-1.81-0.15-2.72-0.09c-7.06-5.69-14.13-11.38-21.19-17.07
		c0,0.21,0.08,0.35,0.16,0.47c1.24,1.75,2.49,3.5,3.73,5.26c2.47,3.49,4.95,6.98,7.42,10.48c-1.23,0.08-2.44-0.2-3.65-0.34
		c-1.69-0.19-3.38-0.45-5.05-0.82c-1.48-0.32-2.97-0.63-4.33-1.35c-0.28-0.15-0.49-0.15-0.75,0.09c-0.37,0.34-0.8,0.61-1.21,0.91
		c-1.88-0.88-3.77-1.76-5.65-2.64c-0.02,0.03-0.05,0.07-0.07,0.1c1.25,1.32,2.49,2.64,3.74,3.96c-0.93,0.74-1.92,1.39-2.88,2.08
		c-2.6,1.86-5.26,3.63-8.02,5.24c-0.94,0.55-1.87,1.1-2.9,1.47c-0.08,0.03-0.15,0.09-0.27,0.01c0.23-0.86,0.59-1.67,0.94-2.48
		c1.89-4.39,4.21-8.53,6.96-12.44c1.38-1.96,2.84-3.85,4.4-5.66c1.54-1.79,3.13-3.52,4.84-5.13c1.6-1.51,3.27-2.95,5-4.31
		c2.31-1.81,4.72-3.49,7.24-4.99c2.57-1.54,5.24-2.89,7.99-4.1c2.29-1.01,4.64-1.89,7.02-2.65c3.17-1,6.38-1.82,9.65-2.41
		c1.7-0.31,3.41-0.59,5.12-0.8c1.27-0.16,2.54-0.25,3.81-0.37c3.49-0.33,6.99-0.37,10.48-0.27c3.27,0.1,6.51,0.53,9.72,1.21
		c2.45,0.52,4.86,1.17,7.22,2c3.86,1.36,7.53,3.12,11.01,5.28c2.41,1.49,4.71,3.13,6.9,4.92c2.22,1.82,4.32,3.76,6.27,5.85
		c2.5,2.67,4.81,5.49,6.94,8.47c2.48,3.48,4.71,7.11,6.71,10.88c1.99,3.75,3.72,7.61,5.22,11.58c0.47,1.25,0.91,2.5,1.32,3.76
		c0.2,0.6,0.17,0.64-0.44,0.59c-1.15-0.1-2.3-0.17-3.45-0.29c-1.9-0.21-3.77-0.54-5.62-0.98c-1.54-0.37-3.09-0.74-4.56-1.37
		c0.12-0.08,0.23-0.16,0.35-0.23c2.82-1.65,5.64-3.3,8.47-4.95c0,0,0-0.02,0-0.02l0,0.02c-0.23-0.06-0.45,0-0.68,0.04
		c-2.94,0.48-5.89,0.95-8.83,1.43c-1.9,0.31-3.81,0.63-5.71,0.95c-0.6-0.57-1.38-0.85-2.08-1.27c-1.19-0.72-2.48-1.24-3.7-1.91
		c0.84-0.82,1.68-1.64,2.53-2.46c2.27-2.17,4.55-4.34,6.82-6.51c1.5-1.43,2.98-2.88,4.47-4.32c0.03-0.03,0.08-0.08,0.08-0.09
		c-0.05-0.06-0.1-0.03-0.15,0.01c-2.63,1.25-5.27,2.5-7.9,3.76C138.41,82.67,133.73,84.91,129.05,87.15z M62.68,54.76
		c-0.01,0.01-0.03,0.02-0.04,0.03c0,0.01,0.02,0.03,0.03,0.04c0.01-0.01,0.03-0.02,0.03-0.04C62.71,54.78,62.69,54.77,62.68,54.76z" />
		<path class="lap_st4" d="M72.33,81.91c-1.77-4.95-3.54-9.9-5.31-14.85c-1.39-3.87-2.78-7.75-4.16-11.62c-0.06-0.16-0.18-0.31-0.07-0.58
		c5.79,7.61,11.55,15.19,17.31,22.76c0.04-0.01,0.08-0.02,0.13-0.02c-0.94-9.25-1.87-18.5-2.81-27.74c0.03-0.01,0.07-0.02,0.1-0.03
		c4.13,9.4,8.25,18.81,12.38,28.21c0.03-0.01,0.06-0.01,0.09-0.02c1.62-10.44,3.23-20.89,4.85-31.33c0.04,0,0.07,0,0.11,0.01
		c1.52,9.52,3.04,19.05,4.56,28.57c0.03,0.01,0.07,0.01,0.1,0.02c3.54-8.93,7.09-17.86,10.63-26.79c0.02,0.01,0.05,0.01,0.07,0.02
		c-0.08,1.1-0.16,2.19-0.24,3.29c-0.2,2.56-0.4,5.12-0.59,7.69c-0.27,3.56-0.55,7.12-0.82,10.69c-0.24,3.16-0.47,6.32-0.7,9.48
		c-0.01,0.12-0.05,0.25,0.04,0.35c-0.02,0-0.05,0-0.07,0c0,0.01,0,0.03,0,0.04c0.02-0.02,0.04-0.04,0.06-0.05
		c1.2-1.56,2.41-3.11,3.61-4.68c4.93-6.47,9.86-12.95,14.79-19.42c0.08-0.11,0.18-0.21,0.37-0.26c-2.95,8.73-5.9,17.46-8.84,26.19
		c0.03,0.02,0.06,0.04,0.09,0.06c0.92-0.77,1.84-1.55,2.76-2.32c6.01-5.06,12.01-10.13,18.02-15.19c0.08-0.07,0.17-0.13,0.25-0.19
		c0.03,0.02,0.05,0.05,0.08,0.07c-1.08,1.81-2.16,3.63-3.24,5.44c-3.32,5.52-6.65,11.03-9.98,16.55c-0.16,0.14-0.31,0.07-0.49,0.02
		c-3.82-1.04-7.7-1.8-11.64-2.23c-1.95-0.21-3.91-0.39-5.88-0.46c-2.46-0.1-4.91-0.22-7.37-0.32c-3.42-0.15-6.85-0.28-10.27-0.43
		c-1.6-0.07-3.2-0.14-4.79-0.19c-1.79-0.06-3.58-0.16-5.37-0.21c-2.37-0.07-4.73-0.22-7.1-0.33C72.73,82.08,72.5,82.09,72.33,81.91z
		" />
		<path class="lap_st3" d="M139.74,101.33c2.84,1.23,5.71,2.41,8.67,3.35c1.95,0.62,3.96,1.01,5.98,1.32c3.31,0.51,6.64,0.58,9.98,0.52
		c0.49-0.01,0.61,0.1,0.68,0.62c0.2,1.6,0.35,3.2,0.47,4.8c0.09,1.26,0.18,2.52,0.14,3.79c-0.03,1.06,0.01,2.11-0.01,3.17
		c-0.03,2.19-0.24,4.37-0.51,6.54c-0.45,3.66-1.26,7.23-2.44,10.71c-0.85,2.51-1.91,4.93-3.29,7.2c-0.35,0.58-0.35,0.58-0.98,0.25
		c-2.05-1.08-4.22-1.88-6.38-2.69c-0.69-0.26-1.38-0.51-2.08-0.74c-0.3-0.1-0.45-0.25-0.42-0.6c0.04-0.54,0.01-1.09,0.01-1.64
		c1.75,0.3,3.49,0.61,5.24,0.91c1.46,0.26,2.91,0.52,4.37,0.77c0.01-0.02,0.01-0.05,0.02-0.07c-3.11-1.66-6.22-3.33-9.32-4.99
		c0.15-1.27,0.37-2.52,1.12-3.61c0.55-0.8,0.51-1.72,0.47-2.63c-0.01-0.21-0.17-0.24-0.31-0.31c-1.92-0.92-3.68-2.07-5.21-3.56
		c-0.2-0.19-0.47-0.3-0.62-0.56c5.93-0.21,11.84-0.76,17.75-1.4c-8.03-2.04-16.06-4.09-24.08-6.13c-0.28-0.59-0.81-1.02-1.06-1.63
		c8.39-2.52,16.78-5.04,25.17-7.56c-0.01-0.06-0.01-0.11-0.02-0.17c-1.28,0-2.56,0.02-3.83,0c-5.77-0.1-11.54-0.2-17.32-0.32
		c-2.89-0.06-5.77-0.1-8.65-0.26c-0.08-0.24-0.15-0.49-0.23-0.73C135.27,104.25,137.5,102.79,139.74,101.33z" />
		<path class="lap_st0" d="M97.41,98.89c-2.06,10.14-1.86,20.17,0.7,30.19c-0.23,0-0.42,0-0.61,0c-3.81,0-7.61,0-11.42,0
		c-1.76,0-2.77,0.91-2.96,2.68c-0.09,0.79-0.09,0.76-0.89,0.81c-2.79,0.15-5.58,0.31-8.36,0.59c-1.38,0.14-2.76,0.26-4.13,0.53
		c-0.18,0.03-0.24-0.01-0.26-0.2c-0.08-0.86-0.08-1.72-0.03-2.58c0.06-1.02,0.07-2.04,0.15-3.05c0.29-3.75,0.86-7.43,2.4-10.91
		c0.21-0.47,0.49-0.73,0.99-0.89c3.19-1.03,6.46-1.66,9.78-2.1c2.53-0.34,5.07-0.54,7.61-0.61c0.4-0.01,0.4-0.26,0.46-0.5
		c0.65-2.59,1.45-5.14,2.46-7.62c0.77-1.87,1.62-3.7,2.92-5.28C96.56,99.53,96.93,99.19,97.41,98.89z" />
		<path class="lap_st0" d="M132.42,135.57c-1.53-0.36-3.02-0.68-4.52-0.95c-2.8-0.51-5.62-0.9-8.44-1.23c-3.04-0.36-6.08-0.61-9.13-0.81
		c-2.18-0.14-4.36-0.18-6.54-0.25c-0.39-0.01-0.48-0.08-0.32-0.47c2.53-6.17,5.77-11.94,9.9-17.19c1.23-1.56,2.56-3.04,3.96-4.45
		c1.75-1.77,4.71-4.12,6.15-4.89c-0.37,0.78-0.7,1.46-1.03,2.15c-1.46,3.04-2.93,6.07-4.38,9.11c-0.37,0.78-0.41,0.65,0.38,0.98
		c5.61,2.34,10.94,5.2,15.82,8.84c2.93,2.18,5.61,4.63,7.71,7.66c0.08,0.11,0.14,0.23,0.24,0.41c-2-0.49-3.92-0.98-5.79-1.65
		c-0.53-0.19-1.06-0.34-1.63-0.38c-1.48-0.09-2.31,0.95-2.38,2.3C132.41,135,132.42,135.26,132.42,135.57z" />
		<path class="lap_st3"
			d="M41.48,125.53c-0.46,1.03-1.09,1.99-1.49,3.05c-0.17,0.46-0.38,0.9-0.57,1.35c-0.11,0.28-0.05,0.55,0.09,0.8
		c0.56,1.03,1.11,2.06,1.66,3.08c-0.16,0.1-0.32,0.21-0.49,0.31c-3.29,1.89-6.57,3.79-9.86,5.68c0.06,0.11,0.12,0.09,0.22,0.07
		c1.2-0.23,2.42-0.42,3.62-0.67c2.96-0.6,5.94-1.13,8.79-2.18c0.42,0.7,1.06,1.2,1.74,1.76c-0.73,0.26-1.41,0.51-2.09,0.75
		c-3.89,1.38-7.8,2.72-11.52,4.53c-0.69,0.34-0.69,0.34-1.05-0.37c-1.56-3.07-2.68-6.3-3.58-9.62c-0.58-2.14-1.06-4.31-1.42-6.49
		c-0.29-1.75-0.53-3.52-0.69-5.3c-0.2-2.2-0.39-4.4-0.41-6.61c0-0.38,0.09-0.6,0.45-0.77c3.17-1.48,6.34-2.98,9.51-4.48
		c0.42-0.2,0.8-0.02,1.17,0.07c1.75,0.43,3.32,1.3,4.89,2.15c1.29,0.7,2.5,1.53,3.66,2.44c1.04,0.82,1.99,1.71,2.68,2.85
		c0.16,0.26,0.41,0.54,0.2,0.9c-6.78,1.87-13.55,3.73-20.33,5.6c0,0.03,0.01,0.06,0.01,0.1C31.61,124.87,36.55,125.2,41.48,125.53z" />
		<path class="lap_st5" d="M73.5,151.82c0,1.03,0,1.92,0,2.82c0,2.73-0.01,5.46,0.01,8.19c0,0.39-0.09,0.51-0.49,0.49
		c-0.65-0.04-1.3-0.03-1.95,0c-0.4,0.02-0.53-0.08-0.53-0.51c0.02-3.45,0.01-6.91,0.01-10.36c0-2.75,0-5.5,0-8.38
		c3.61,4.01,7.15,7.94,10.69,11.87c0.19-0.12,0.11-0.27,0.11-0.4c0.01-1.15-0.01-2.29,0.01-3.44c0.02-1.46,0.03-2.92,0.09-4.38
		c0.07-1.6,1.34-3.29,2.83-3.81c0,6.59,0,13.17,0,19.88C80.68,159.79,77.14,155.86,73.5,151.82z" />
		<path class="lap_st5" d="M131.99,156.05c1.9,2.39,3.77,4.73,5.71,7.17c-0.82,0-1.58-0.09-2.3,0.02c-1.16,0.17-1.85-0.34-2.5-1.24
		c-1.12-1.55-2.38-3-3.58-4.48c-0.1-0.13-0.19-0.3-0.48-0.35c0.13,2.14,0.08,4.25,0.09,6.41c-0.92-0.31-1.58-0.9-2.1-1.63
		c-0.56-0.78-0.87-1.66-0.86-2.65c0.01-4.88,0.01-9.76-0.01-14.64c0-0.39,0.09-0.5,0.49-0.49c1.58,0.03,3.17,0,4.76,0.03
		c3.05,0.06,5.38,2.23,5.8,5.13c0.43,3.01-1.59,5.98-4.63,6.59C132.25,155.95,132.16,155.99,131.99,156.05z M128.93,149.68
		c0,0.72,0,1.44,0,2.16c0,0.2,0.03,0.36,0.2,0.51c0.92,0.81,2.37,0.95,3.45,0.32c1.12-0.66,1.68-1.91,1.41-3.14
		c-0.27-1.23-1.33-2.2-2.58-2.28c-0.72-0.05-1.44-0.02-2.16-0.05c-0.26-0.01-0.33,0.07-0.32,0.32
		C128.95,148.24,128.93,148.96,128.93,149.68z" />
		<path class="lap_st6" d="M64.93,118.47c-0.23,0.57-0.75,0.91-1.13,1.36c-1.38,1.68-2.65,3.45-3.92,5.22c-0.22,0.3-0.24,0.49,0.05,0.8
		c0.86,0.94,1.42,2.08,2.01,3.2c0.28,0.54,0.54,1.1,0.82,1.68c-1.77,0.13-3.46,0.32-5.1,0.8c-1.99,0.58-1.86,0.5-2.11,2.64
		c-0.06,0.54-0.02,1.09-0.02,1.64c0,0.21-0.04,0.37-0.27,0.46c-0.81,0.3-1.61,0.61-2.49,0.64c-0.55,0.02-0.99-0.18-1.38-0.54
		c-1.65-1.55-3.01-3.33-4.41-5.1c-0.17-0.22-0.16-0.38-0.03-0.6c0.61-1.05,1.46-1.89,2.38-2.66c3.75-3.14,7.99-5.51,12.28-7.81
		C62.72,119.61,63.83,119.05,64.93,118.47L64.93,118.47z" />
		<path class="lap_st7" d="M102.18,163.64c-1.87-0.77-2.92-2.47-2.93-4.27c-0.04-4.81-0.01-9.62-0.03-14.43c0-0.47,0.11-0.6,0.58-0.57
		c0.65,0.04,1.3,0.03,1.95,0.01c0.38-0.01,0.53,0.07,0.53,0.51c-0.03,2.01,0,4.02-0.02,6.02c0,0.38,0.11,0.46,0.47,0.45
		c1.96-0.02,3.91-0.02,5.87,0c0.37,0,0.47-0.1,0.47-0.47c-0.02-2.01,0-4.02-0.02-6.02c0-0.4,0.1-0.51,0.5-0.49
		c0.7,0.03,1.41,0.02,2.11,0c0.27-0.01,0.35,0.07,0.35,0.35c-0.01,6.06-0.01,12.12,0,18.18c0,0.3-0.08,0.39-0.38,0.38
		c-0.69-0.02-1.38-0.03-2.06,0c-0.4,0.02-0.53-0.08-0.53-0.51c0.02-2.66,0-5.32,0.02-7.98c0-0.41-0.09-0.52-0.51-0.52
		c-1.97,0.02-3.95,0.02-5.92,0c-0.37,0-0.46,0.1-0.46,0.46c0.02,2.75,0.01,5.5,0.01,8.24C102.18,163.21,102.18,163.4,102.18,163.64z
		" />
		<path class="lap_st8" d="M133.26,106.43c2.88,0.16,5.77,0.2,8.65,0.26c5.77,0.11,11.54,0.22,17.32,0.32c1.28,0.02,2.55,0,3.83,0
		c0.01,0.06,0.01,0.11,0.02,0.17c-8.39,2.52-16.78,5.04-25.17,7.56c-0.22-0.01-0.34-0.16-0.45-0.32c-1.62-2.5-2.97-5.14-4.21-7.84
		C133.24,106.54,133.26,106.48,133.26,106.43z" />
		<path class="lap_st7"
			d="M69.07,163.52c-0.99,0-1.93-0.01-2.86,0.01c-0.29,0.01-0.41-0.07-0.52-0.36c-0.4-1.06-0.84-2.11-1.25-3.17
		c-0.1-0.27-0.22-0.4-0.55-0.4c-1.81,0.02-3.63,0.02-5.44,0c-0.32,0-0.46,0.1-0.58,0.39c-0.28,0.69-0.53,1.41-0.97,2.03
		c-0.92,1.28-2.21,1.81-3.81,1.94c2.7-6.61,5.38-13.16,8.09-19.79C63.82,150.64,66.44,157.05,69.07,163.52z M61.18,151.73
		c-0.63,1.6-1.22,3.09-1.81,4.59c-0.08,0.2-0.03,0.29,0.2,0.29c1.14,0,2.28,0,3.49,0C62.43,154.98,61.83,153.42,61.18,151.73z" />
		<path class="lap_st5" d="M44,156.06c0,2.62,0,5.23,0,7.88c-1.53-0.63-2.42-1.74-2.83-3.27c-0.09-0.32-0.12-0.65-0.12-0.99
		c0.01-4.86,0.01-9.72,0-14.59c0-0.37,0.06-0.51,0.48-0.5c1.53,0.04,3.07,0,4.6,0.03c3.46,0.07,5.82,2.77,5.85,5.86
		c0.03,3.2-2.56,5.97-6.03,5.94C45.28,156.42,44.65,156.26,44,156.06z M44.02,150.09c0,0.72,0.01,1.44,0,2.16
		c0,0.23,0.07,0.39,0.25,0.54c0.94,0.76,2.31,0.84,3.35,0.19c1.07-0.67,1.56-1.89,1.27-3.15c-0.27-1.18-1.28-2.08-2.48-2.17
		c-0.66-0.05-1.34-0.01-2-0.05c-0.35-0.02-0.4,0.12-0.39,0.42C44.03,148.72,44.02,149.41,44.02,150.09z" />
		<path class="lap_st7"
			d="M124.33,163.31c-3.12,0-6.16-0.01-9.19,0.01c-0.39,0-0.37-0.18-0.37-0.44c0-3.47,0-6.94,0-10.41
		c0-2.54,0.01-5.08-0.01-7.61c0-0.33,0.06-0.45,0.42-0.44c2.68,0.02,5.36,0.02,8.04,0c0.32,0,0.42,0.07,0.41,0.41
		c-0.03,0.7-0.03,1.41,0,2.11c0.02,0.4-0.14,0.45-0.48,0.44c-1.66-0.02-3.31,0-4.97-0.02c-0.37,0-0.48,0.09-0.47,0.47
		c0.03,1.06,0.02,2.11,0,3.17c-0.01,0.32,0.06,0.42,0.4,0.41c1.25-0.02,2.5,0,3.75-0.02c0.34-0.01,0.41,0.1,0.4,0.41
		c-0.02,0.72-0.02,1.45,0,2.17c0.01,0.3-0.08,0.38-0.38,0.38c-1.23-0.02-2.47,0-3.7-0.01c-0.35-0.01-0.49,0.06-0.48,0.45
		c0.02,1.73,0.02,3.45,0,5.18c0,0.33,0.1,0.4,0.42,0.41c1,0.02,2.01-0.14,3,0.11C122.63,160.88,123.68,161.8,124.33,163.31z" />
		<path class="lap_st7" d="M148.27,144.08c-0.7,1.51-1.8,2.41-3.32,2.85c-0.64,0.19-1.3,0.03-1.93,0.2c-1.03,0.28-1.69,1.16-1.62,2.23
		c0.06,0.96,0.92,1.81,1.93,1.91c3.21,0.32,5.52,2.85,5.45,6.05c-0.06,2.89-2.09,5.21-4.88,5.69c-2.36,0.4-4.52-0.63-5.44-2.62
		c-0.03-0.06-0.04-0.13-0.07-0.24c1.48,0,2.93,0.01,4.39,0c1.48-0.01,2.66-0.93,2.97-2.27c0.36-1.58-0.65-3.19-2.27-3.53
		c-1-0.21-1.98-0.41-2.84-1.01c-1.71-1.19-2.56-3.34-2.07-5.35c0.47-1.95,2.26-3.56,4.26-3.8
		C144.61,143.97,146.4,144.16,148.27,144.08z" />
		<path class="lap_st7" d="M93.39,163.97c-1.74-0.67-2.94-2.42-2.94-4.3c-0.01-3.84-0.02-7.68,0.01-11.52c0-0.51-0.15-0.6-0.61-0.59
		c-1.09,0.03-2.18,0-3.28,0.02c-0.33,0.01-0.47-0.05-0.45-0.42c0.03-0.72,0.02-1.44,0.01-2.17c0-0.24,0.02-0.37,0.33-0.37
		c3.61,0.01,7.22,0.01,10.84,0c0.28,0,0.36,0.07,0.36,0.35c-0.02,0.76-0.02,1.52,0,2.27c0.01,0.31-0.12,0.33-0.37,0.33
		c-1.15-0.01-2.29,0.01-3.44-0.01c-0.38-0.01-0.46,0.1-0.46,0.46c0.01,5.21,0.01,10.43,0.01,15.64
		C93.39,163.76,93.39,163.84,93.39,163.97z" />
		<path class="lap_st8" d="M59.73,80.95c-2.47-3.49-4.95-6.98-7.42-10.48c-1.24-1.75-2.49-3.5-3.73-5.26c-0.09-0.12-0.16-0.26-0.16-0.47
		c7.06,5.69,14.13,11.38,21.19,17.07c-0.62,0.12-1.24-0.02-1.86-0.05c-1.25-0.06-2.51-0.18-3.76-0.28c-1.31-0.1-2.61-0.22-3.92-0.31
		C59.9,81.16,59.85,81.02,59.73,80.95z" />
		<path class="lap_st8" d="M129.05,87.15c4.68-2.24,9.35-4.48,14.03-6.71c2.63-1.26,5.27-2.51,7.9-3.76c0.02,0.03,0.05,0.05,0.07,0.08
		c-1.49,1.44-2.97,2.89-4.47,4.32c-2.27,2.18-4.55,4.34-6.82,6.51c-0.85,0.81-1.69,1.64-2.53,2.46c-0.19,0.09-0.37,0.03-0.55-0.04
		c-2.44-1.03-4.9-1.98-7.45-2.71C129.16,87.26,129.08,87.25,129.05,87.15z" />
		<path class="lap_st8" d="M138.98,116.37c8.03,2.04,16.06,4.09,24.08,6.13c-5.91,0.64-11.82,1.2-17.75,1.4c-0.24,0-0.38-0.17-0.52-0.33
		c-2.02-2.2-3.92-4.5-5.71-6.89C139.02,116.6,138.9,116.51,138.98,116.37z" />
		<path class="lap_st8" d="M41.48,125.53c-4.93-0.33-9.87-0.66-14.8-0.99c0-0.03-0.01-0.06-0.01-0.1c6.78-1.87,13.55-3.73,20.33-5.6
		c-0.53,0.52-1.08,1.04-1.6,1.57c-1.37,1.41-2.47,3.02-3.47,4.71C41.81,125.31,41.72,125.5,41.48,125.53z" />
		<path class="lap_st7"
			d="M49.33,50.08c-0.92-0.44-1.77-0.82-2.59-1.25c-0.33-0.17-0.61-0.16-0.93-0.01c-0.92,0.42-1.86,0.82-2.85,1.26
		c0.24-0.97,0.44-1.9,0.69-2.81c0.09-0.31,0.01-0.48-0.21-0.68c-0.72-0.64-1.43-1.29-2.23-2.02c0.85-0.18,1.6-0.41,2.36-0.49
		c0.82-0.09,1.31-0.42,1.6-1.21c0.29-0.8,0.72-1.55,1.12-2.37c0.52,1,1.03,1.95,1.52,2.92c0.14,0.27,0.28,0.42,0.62,0.46
		c0.99,0.1,1.97,0.26,3.05,0.41c-0.67,0.58-1.24,1.17-1.9,1.6c-0.72,0.47-0.86,1.02-0.66,1.8C49.09,48.45,49.18,49.23,49.33,50.08z" />
		<path class="lap_st6" d="M139.74,101.33c-2.23,1.46-4.47,2.92-6.7,4.37c-0.22,0.01-0.24-0.17-0.3-0.31c-0.84-1.99-1.58-4.02-2.2-6.09
		c-0.15-0.5-0.01-0.59,0.46-0.56c3.05,0.17,5.91,1.02,8.62,2.4C139.7,101.18,139.77,101.22,139.74,101.33z" />
		<path class="lap_st8" d="M158.24,90.8c-2.82,1.65-5.65,3.3-8.47,4.95c-0.12,0.07-0.23,0.15-0.35,0.23c-0.17,0.01-0.33,0.06-0.51-0.01
		c-2.02-0.8-4-1.67-5.89-2.74c1.9-0.32,3.81-0.64,5.71-0.95c2.94-0.48,5.89-0.95,8.83-1.43C157.79,90.81,158.01,90.75,158.24,90.8
		L158.24,90.8z" />
		<path class="lap_st9" d="M43.47,137.03c-2.85,1.04-5.83,1.57-8.79,2.18c-1.2,0.24-2.41,0.44-3.62,0.67c-0.1,0.02-0.16,0.04-0.22-0.07
		c3.29-1.89,6.57-3.79,9.86-5.68c0.17-0.1,0.33-0.2,0.49-0.31c0.13,0.02,0.22,0.1,0.29,0.21c0.59,0.98,1.27,1.89,1.95,2.81
		C43.46,136.88,43.45,136.97,43.47,137.03z" />
		<path class="lap_st9" d="M149.85,134.57c3.11,1.66,6.22,3.33,9.32,4.99c-0.01,0.02-0.01,0.05-0.02,0.07c-1.46-0.26-2.91-0.52-4.37-0.77
		c-1.75-0.31-3.49-0.61-5.24-0.91c-0.19-0.64,0.05-1.27,0.05-1.91c0-0.3,0.04-0.62,0.07-0.93
		C149.69,134.91,149.66,134.7,149.85,134.57z" />
		<path class="lap_st9" d="M42.77,80.86c-1.25-1.32-2.49-2.64-3.74-3.96c0.02-0.03,0.05-0.07,0.07-0.1c1.88,0.88,3.77,1.76,5.65,2.64
		c0.03,0.1,0,0.17-0.08,0.23c-0.52,0.38-1.05,0.76-1.56,1.15C42.99,80.92,42.88,80.91,42.77,80.86z" />
		<path class="lap_st6" d="M64.94,118.48c0.03-0.01,0.06-0.02,0.09-0.03C64.99,118.45,64.96,118.46,64.94,118.48
		C64.93,118.47,64.94,118.48,64.94,118.48z" />
		<path class="lap_st6" d="M52.3,172.51c1.55,0.01,2.83,1.33,2.82,2.9c-0.02,1.58-1.31,2.88-2.85,2.87c-1.54-0.01-2.84-1.35-2.82-2.91
		C49.45,173.8,50.75,172.5,52.3,172.51z" />
		<path class="lap_st9" d="M83.9,176.49c0.26-0.66,0.51-1.29,0.8-2.03c0.28,0.72,0.53,1.35,0.79,2.03
		C84.94,176.49,84.45,176.49,83.9,176.49z" />
		<path class="lap_st4" d="M139.02,64.19c0.05-0.05,0.11-0.11,0.16-0.16l-0.01-0.01c0.05,0.1,0.02,0.18-0.07,0.24
		C139.08,64.24,139.05,64.22,139.02,64.19z" />
		<path class="lap_st4" d="M62.68,54.76c0.01,0.01,0.03,0.02,0.03,0.04c0,0.01-0.02,0.02-0.03,0.04c-0.01-0.01-0.03-0.03-0.03-0.04
		C62.65,54.78,62.67,54.77,62.68,54.76z" />
		<polygon class="lap_st8" points="158.24,90.81 158.24,90.78 158.24,90.8 	" />
		<path class="lap_st8"
			d="M150.99,76.68c0.05-0.04,0.1-0.07,0.15-0.01c0,0-0.05,0.06-0.08,0.09C151.04,76.73,151.01,76.7,150.99,76.68z" />
		<path class="lap_st4" d="M139.18,64.03c0.01-0.01,0.02-0.02,0.04-0.02c0.01,0,0.01,0,0.02,0C139.22,64.01,139.2,64.02,139.18,64.03
		C139.18,64.02,139.18,64.03,139.18,64.03z" />
		<path class="lap_st3" d="M107.99,80c-0.02,0.02-0.04,0.04-0.06,0.05c0-0.01,0-0.03,0-0.04c0.02,0,0.05,0,0.07,0
		C108,80.01,107.99,80,107.99,80z" />
		<path class="lap_st2" d="M128.93,149.68c0-0.72,0.01-1.44-0.01-2.16c-0.01-0.26,0.07-0.33,0.32-0.32c0.72,0.03,1.44,0,2.16,0.05
		c1.25,0.09,2.31,1.05,2.58,2.28c0.27,1.24-0.3,2.49-1.41,3.14c-1.08,0.63-2.53,0.49-3.45-0.32c-0.17-0.15-0.2-0.3-0.2-0.51
		C128.94,151.13,128.93,150.4,128.93,149.68z" />
		<path class="lap_st1" d="M61.18,151.73c0.65,1.68,1.25,3.25,1.88,4.87c-1.21,0-2.35,0-3.49,0c-0.23,0-0.28-0.09-0.2-0.29
		C59.96,154.83,60.55,153.33,61.18,151.73z" />
		<path class="lap_st2" d="M44.02,150.09c0-0.69,0.01-1.37-0.01-2.06c-0.01-0.3,0.04-0.44,0.39-0.42c0.67,0.04,1.34,0,2,0.05
		c1.2,0.09,2.21,0.99,2.48,2.17c0.29,1.25-0.2,2.47-1.27,3.15c-1.04,0.65-2.41,0.57-3.35-0.19c-0.18-0.15-0.26-0.3-0.25-0.54
		C44.02,151.53,44.02,150.81,44.02,150.09z" />
	</g>
</svg>