<svg version="1.1" id="Layer_1" xmlns="http://www.w3.org/2000/svg" x="0" y="0" viewBox="0 0 200 200" xml:space="preserve"><style>.lap_st0{fill:#e97c0b}.lap_st1{fill:#040200}.lap_st2{fill:#020100}.lap_st3{fill:#006b79}.lap_st4{fill:#e97c0c}.lap_st5{fill:#fcfcfc}.lap_st6{fill:#e87c0b}.lap_st7{fill:#fbfbfb}.lap_st8{fill:#e87c0c}.lap_st9{fill:#e47c0d}</style><path class="lap_st0" d="M46.1 19l5.6 11.2 2.6 5.3c.2.3.3.4.6.4 1.4.4 2.6 0 3.9-.7 5-2.7 10.3-4.5 15.8-5.7a91.2 91.2 0 0148.6 2.4 83.4 83.4 0 0122.6 12 82.7 82.7 0 0125 27.8 86.1 86.1 0 017.7 17.8l.6-.6a12.7 12.7 0 0113.3-4.7c4.2 1.4 7.3 6 7.3 10.2 0 3.4-1.5 6.1-3.8 8.4a31.1 31.1 0 01-13.5 7.3c-.3 0-.4.2-.4.6 0 2.2.2 4.5.1 6.8a78 78 0 01-1.8 12.6c-.9 4.3-1.8 8.7-3 13A60.7 60.7 0 01170 159a106.7 106.7 0 01-18.3 22c-.3.2-.5.3-.9.3H39.1c-.5 0-.8-.1-1.1-.4-3-2.6-5.6-5.6-8-8.6-5-6.1-9.5-12.5-13.5-19.2a49.5 49.5 0 01-4.9-12 100 100 0 01-3-14.6v-.4l-1.8-1.6a17.2 17.2 0 01-4.6-4.4 16 16 0 01-2.4-4.3v-.8l.2-.6c.8-3.3 1-6.8 1.2-10.2A12 12 0 015 96.1c.3-.2.3-.4.2-.8-.8-3 0-5.5 2.5-7.3A6 6 0 009.4 86l.2-.3a5.6 5.6 0 013.8-2.7c.3 0 .5 0 .7-.4A86.8 86.8 0 0132.2 54c.6-.6.9-1.4 1-2.3.1-.3 0-.5-.2-.7l-2.3-2.2-8.3-8.1-2-2.1a1514 1514 0 0117.4-2.8c.3 0 .6-.2.7-.6l6.7-14.3c.3-.6.7-1.1.8-1.8h.1zm49.2 150.8h58.4c.2 0 .3-.1.5-.3l3.2-4c3.4-4.3 6.4-8.9 9-13.7a63.5 63.5 0 006.6-16.6c1.2-5.8 2-11.8 2.4-17.7.1-3.9.2-7.7-.4-11.5 0-.3.1-.4.4-.4a65.6 65.6 0 0010-3.3c1.2-.6 2.1-1.4 3.1-2.1 1.3-.8 2.6-1.6 3.6-2.9.7-1 1.1-2 1-3 0-2.1-2.2-3.5-3.8-3.7-1.1-.2-2 .4-2.7 1-2.2 1.5-4.4 3-6.8 4.3-1.7 1-3.4 1.7-5.3 2-.3 0-.4 0-.5-.4l-1-3.2a115 115 0 00-8.8-19.9c-3.4-6-7.3-11.6-12.1-16.6a94 94 0 00-25.5-17.5 67.4 67.4 0 00-28.9-6 87.1 87.1 0 00-17 1 82.6 82.6 0 00-22.4 7l-7.6-1c-.3 0-.4-.2-.4-.4l-3.8-7c0-.2-.1-.6-.4-.6-.3 0-.3.4-.4.6l-3.3 7c0 .2-.2.4-.5.4l-8.2 1.2c-.1 0-.4 0-.5.2l.3.4 5.7 5.7c.3.2.4.4.3.8l-1 6.8c0 .4-.2.6-.5 1a83.8 83.8 0 00-19.4 31.8c-.1.2-.2.3-.6.2-1-.3-2.1-.5-3.2-.6-.4 0-.5 0-.3.5l.9 2.7c.1.9.2 1.7 0 2.6 0 .4-.2.5-.6.2-1-.6-2-1.2-3.1-1.5-.3 0-.5-.1-.5.4.2 1.5.3 3 .2 4.5 0 .5 0 1-.5 1.4l-2.2 2.2c-.4.5-.9 1-.9 1.8l-.6 7.5c-.2 1.2-.4 2.4-1 3.4-.3.5-.2.8.2 1.2a32 32 0 003.8 3.5c1.4 1 2.8 2 4.7 1.8.5 0 .6.2.5.6-.2 2 0 3.8.1 5.8.3 3.3 1 6.6 2 9.8.8 2.8 2 5.3 3 8 2 4.8 4.4 9.4 7.4 13.7a140 140 0 008.3 10.5c.2.3.5.4 1 .4h58zm-38.9 5.6a4.1 4.1 0 10-8.3 0c0 2.4 1.8 4.2 4.2 4.2a4 4 0 004.1-4.2zm42.7 4.3v-8.6c-.8.4-1.2 1-1.3 1.9v3.2l-4.6-5v8.3h1.2c.2 0 0-.4 0-.6v-4.3l4.7 5.2zm11.4-6.9v-.8c.1-.5-.1-.7-.5-.7-1.7-.2-3.1.3-4.1 1.7a4 4 0 00-.2 4.5c.8 1.6 2.2 2.2 3.9 2.1 1.3 0 2.3-1.3 2.2-2.8 0-1.3-1-2.3-2.4-2.3h-.8l-.5.1.2.4c.3.5.8.7 1.4.9.6.2 1 .8.8 1.4-.1.6-.6 1-1.2 1a2.9 2.9 0 01-2.9-2.9 3 3 0 012.8-2.8c.5 0 .9 0 1.3.2zm-25.8-1.7l-3.5 8.5c.9.1 1.6-.3 2-1.3.1-.4.3-.6.8-.5h1.4c.5 0 .7.1.8.6.5 1.2.5 1.2 2 1l-3.5-8.3zm56.3 8.4c-.3-.6-.6-1-1-1.1-.4-.2-.8-.2-1.2-.2-.8 0-.6.1-.7-.7V176c0-.3.1-.4.5-.4h1.2l.3-.1v-1c-.1-.3-.5-.2-.7-.2-1.3 0-1.3 0-1.3-1.3 0-.3.1-.4.4-.4h1.3c1 0 1 0 .9-1 0-.2 0-.2-.3-.2h-3.2c-.3 0-.3 0-.3.3v7.5c0 .2 0 .3.3.3h3.8zm-19.5 0a2 2 0 00-1-1.1c-.4-.3-.9-.2-1.4-.2-.3 0-.4 0-.4-.4v-1.1c0-1.1 0-1.1 1.1-1.1.9 0 .9 0 .9-.9 0-.3-.1-.4-.4-.4H119c-.4 0-.3-.3-.3-.5.1-.4-.4-1 .3-1.1h1.3c1 0 1 0 1-1 0-.2-.1-.4-.3-.4h-3.3c-.2 0-.3.1-.3.3v7.6c0 .2 0 .3.3.3h3.8zm29.3-8.3H149c-1.2 0-2.2.8-2.3 2-.1 1.2.6 2.2 1.9 2.5.8.1 1.3.7 1.2 1.3 0 .7-.5 1.2-1.4 1.2h-1.4c-.3 0-.4.1-.2.4.3.5.8.8 1.4.9 2 .3 3.5-1.6 2.7-3.6-.3-1-1-1.4-2-1.6-.6 0-1-.4-1-.9 0-.4.4-.8 1-.8h.3a2 2 0 001.7-1.3zm-84.5 0h-1.9c-1.2 0-2.2.8-2.3 2-.2 1.2.6 2.2 1.9 2.5.8.2 1.3.7 1.2 1.4 0 .7-.6 1-1.4 1.1h-1.4c-.3 0-.4.1-.2.4.3.5.8.8 1.4.9 1.9.3 3.4-1.4 2.9-3.2-.3-1.2-1.1-1.8-2.3-2-.5 0-.8-.4-.8-.8 0-.5.3-.8.8-1h.4c.8 0 1.4-.4 1.7-1.3zm-25.9-.2c-.8.4-1.2 1-1.3 1.8v6.3c0 .3.1.4.4.4h2.6c1 0 1 0 1-1-.1-.2-.2-.3-.5-.3H41c-.5 0-.6-.1-.6-.6V171zm88.3 0c-.8.4-1.2 1-1.3 1.8v6.3c0 .3.1.4.4.4h2.6c1 0 1 0 1-1 0-.2-.2-.3-.5-.3h-1.7c-.4 0-.5 0-.5-.5V171z"/><path d="M95.3 169.8H37.2c-.4 0-.7-.1-1-.4a142 142 0 01-8.3-10.5c-3-4.3-5.3-9-7.3-13.7-1-2.7-2.2-5.3-3.1-8a44 44 0 01-2-15.6c0-.4 0-.6-.6-.6-1.8.2-3.2-.8-4.6-1.8a32 32 0 01-3.9-3.6c-.3-.3-.5-.6-.1-1.1.6-1 .7-2.3 1-3.4.3-2.5.4-5 .5-7.5 0-.8.5-1.3 1-1.8l2.2-2.2c.4-.4.4-.9.4-1.4.1-1.5 0-3-.1-4.5 0-.6.1-.5.4-.4 1.2.3 2.2.9 3.1 1.5.4.3.6.2.7-.2.2-.9 0-1.7-.1-2.6-.2-1-.5-1.8-.9-2.7-.2-.4 0-.5.4-.5 1 0 2 .3 3.1.6.4.1.5 0 .7-.3a83.5 83.5 0 0119.8-32.7l1-6.8c.1-.4 0-.6-.2-.8L33.6 43c-.2-.2-.4-.3-.3-.4 0-.3.3-.2.5-.2l8.2-1.2c.3 0 .4-.2.5-.5l3.2-6.9c.1-.2.2-.6.5-.6.2 0 .3.4.4.6l3.7 7c0 .2.2.4.4.4a943.4 943.4 0 018.2 1 83 83 0 0148.7-7.3 67 67 0 0119 5.3 93.7 93.7 0 0125.5 17.5c4.8 5 8.8 10.6 12.1 16.6a115 115 0 019.8 23.1c.1.3.2.4.6.4 1.9-.3 3.6-1 5.3-2 2.4-1.2 4.5-2.8 6.7-4.4.8-.5 1.6-1 2.7-1 1.6.3 3.8 1.7 4 3.7 0 1.2-.5 2.2-1.2 3.1-1 1.3-2.2 2-3.5 2.9-1 .6-2 1.5-3 2a65.6 65.6 0 01-10.1 3.3c-.3.1-.4.2-.4.5.6 3.8.5 7.6.3 11.5-.3 6-1.1 11.9-2.4 17.7a63.5 63.5 0 01-6.5 16.6 103.5 103.5 0 01-12.7 18H95.3zm-30.4-51.3l-3.3 1.7a69.7 69.7 0 00-12.3 7.8c-.9.8-1.7 1.6-2.3 2.7-.2.2-.2.3 0 .6 1.4 1.7 2.7 3.5 4.4 5 .4.4.8.6 1.4.6.9 0 1.7-.3 2.5-.6.2-.1.2-.3.2-.5v-1.6c.3-2.2.2-2 2.2-2.7 1.6-.4 3.3-.6 5-.8l-.7-1.6c-.6-1.2-1.2-2.3-2-3.3-.3-.3-.3-.4-.1-.8 1.3-1.7 2.5-3.5 4-5.2.3-.4.8-.8 1-1.3h.1zM43.5 137v-.2c-.8-.9-1.4-1.8-2-2.8l-.3-.2-1.7-3c-.1-.3-.2-.6 0-.9l.5-1.3 1.5-3 .4-.5c1-1.7 2.1-3.3 3.5-4.7l1.6-1.6c.2-.3 0-.6-.2-.9-.7-1-1.6-2-2.7-2.8-1.1-1-2.4-1.7-3.6-2.4-1.6-.9-3.2-1.8-5-2.2-.3 0-.7-.3-1.1 0l-9.5 4.4c-.4.2-.5.4-.5.8A91.2 91.2 0 0027 134c.9 3.3 2 6.5 3.5 9.6.4.7.4.7 1 .4 3.8-1.8 7.7-3.2 11.6-4.5l2.1-.8c-.7-.6-1.3-1-1.7-1.8zM145.3 124l.6.6c1.6 1.5 3.3 2.6 5.2 3.5.2 0 .3.1.4.3 0 1 0 1.9-.5 2.7-.8 1-1 2.3-1.1 3.6-.2.1-.2.3-.2.5l-.1 1c0 .6-.2 1.2 0 1.8v1.7c0 .3 0 .5.4.6l2 .7c2.2.8 4.4 1.6 6.4 2.7.7.3.7.3 1-.2a53 53 0 006.2-24.5v-3.2-3.8l-.6-4.8c0-.5-.2-.6-.6-.6a57.4 57.4 0 01-16-1.8 93 93 0 01-8.8-3.6 21.6 21.6 0 00-8.6-2.4c-.5 0-.6.1-.5.6l2.2 6c0 .2.1.4.3.4l.3.7v.2a61.6 61.6 0 004.6 8.1c.3.6.8 1 1 1.7l.2.3c1.8 2.4 3.7 4.7 5.7 6.9.1.1.3.3.5.3zm-85.6-43l.4.3 3.9.3 3.7.3h2c.8 0 1.7.2 2.6.1.2.2.4.2.7.2l7 .3 5.4.2 4.8.2 10.3.4 7.4.4a88.4 88.4 0 0117.5 2.7h.5l.6.1 2.5.7.2.2a65.6 65.6 0 018 2.7c1.3.7 2.5 1.2 3.7 2 .7.3 1.5.6 2.1 1.2 1.9 1 3.9 2 5.9 2.7h.5c1.5.7 3 1 4.6 1.4 1.8.5 3.7.8 5.6 1l3.4.3c.7 0 .7 0 .5-.6a98.4 98.4 0 00-20.2-34.7 65.4 65.4 0 00-24.2-16 58 58 0 00-17-3.3c-3.4 0-7 0-10.4.3l-3.8.4A89.2 89.2 0 0066 50.5 73.4 73.4 0 0045.9 64a65.2 65.2 0 00-9.3 10.8c-2.7 4-5 8-7 12.5l-.9 2.4h.3c1-.3 2-.9 2.9-1.4 2.7-1.6 5.4-3.4 8-5.3l2.9-2h.3a155.5 155.5 0 011.7-1.5l1.2-.9c.2-.2.4-.2.7 0a51 51 0 009.4 2.2l3.6.3zm37.7 18l-1.2 1a20.5 20.5 0 00-2.9 5.3c-1 2.5-1.8 5-2.4 7.6-.1.3-.1.5-.5.5A74.3 74.3 0 0073 116c-.5.2-.8.5-1 1a32.5 32.5 0 00-2.4 10.8l-.1 3v2.7c0 .2 0 .2.3.2 1.3-.3 2.7-.4 4-.6l8.5-.6c.8 0 .8 0 .8-.8.2-1.7 1.2-2.6 3-2.6h12c-2.5-10-2.7-20-.7-30.2zm35 36.7v-.9c0-1.3 1-2.4 2.4-2.3a60.7 60.7 0 007.4 2l-.2-.3c-2.1-3-4.8-5.5-7.7-7.7a73.7 73.7 0 00-15.9-8.8c-.7-.4-.7-.2-.3-1l4.3-9.1 1-2.2a34.9 34.9 0 00-10 9.4 71 71 0 00-10 17.1c0 .4 0 .5.4.5a174.8 174.8 0 0128.6 3.3zm-58.9 16.2l10.8 12v-19.9a4.5 4.5 0 00-2.8 3.8l-.1 4.4v3.4c0 .2 0 .3-.2.4l-10.7-11.8V162.8c0 .4.2.5.6.5h2c.3 0 .4 0 .4-.5v-8.2-2.8zm58.5 4.3l.4-.2a6 6 0 004.6-6.6c-.4-2.9-2.8-5-5.8-5l-4.8-.1c-.4 0-.5 0-.5.5v14.6c0 1 .3 1.9.9 2.7.5.7 1.2 1.3 2.1 1.6v-6.4c.2 0 .3.2.4.3l3.6 4.5c.6 1 1.3 1.4 2.5 1.2h2.3l-5.7-7.1zm-29.8 7.5v-.6-8.2c0-.4 0-.5.4-.5h6c.4 0 .5.1.5.5v8c0 .4 0 .5.5.5h2c.3 0 .4 0 .4-.4v-18.1c0-.3 0-.4-.3-.4h-2.1c-.4 0-.5.1-.5.5v6c0 .4-.1.5-.5.5h-5.9c-.3 0-.4 0-.4-.5v-6c0-.4-.2-.5-.5-.5h-2c-.5 0-.6 0-.6.6v14.4c0 1.8 1.1 3.5 3 4.2zm-33.1 0l-8-19.4-8 19.8c1.6-.2 2.9-.7 3.8-2l1-2c0-.3.2-.4.5-.4H64c.3 0 .4.1.5.4l1.3 3.2c.1.2.2.3.5.3h2.9zM44 156c.7.2 1.3.3 2 .3a6 6 0 10.1-11.8h-4.6c-.4 0-.5.1-.5.5a3547.8 3547.8 0 01.1 15.6A4.6 4.6 0 0044 164v-8zm80.3 7.2a4.6 4.6 0 00-3.2-2.8c-1-.3-2-.1-3-.1-.3 0-.4-.1-.4-.4v-5.2c0-.4.2-.5.5-.5h3.7c.3 0 .4 0 .4-.3v-2.2c0-.3 0-.4-.4-.4H118c-.3 0-.4 0-.4-.4v-3.2c0-.3.1-.4.5-.4h5c.3 0 .5 0 .4-.5v-2c0-.4 0-.5-.4-.5h-8c-.4 0-.4.1-.4.5v18c0 .2 0 .4.4.4h9.1zm24-19.2h-5.5c-2 .3-3.8 2-4.2 3.9-.5 2 .3 4.1 2 5.3.9.6 1.9.8 2.9 1a3 3 0 012.3 3.6 3 3 0 01-3 2.2h-4.4v.3c1 2 3.1 3 5.5 2.6a5.8 5.8 0 004.9-5.7c0-3.2-2.3-5.7-5.5-6-1-.1-1.8-1-1.9-2 0-1 .6-1.9 1.6-2.2.7-.1 1.3 0 2-.2a5 5 0 003.3-2.8zm-55 19.9v-.3V148c0-.3.2-.4.5-.4h3.5c.2 0 .4 0 .3-.4V145c0-.3 0-.4-.3-.4H86.4c-.3 0-.3.2-.3.4v2.2c0 .3.1.4.5.4h3.2c.5 0 .7 0 .6.6v11.5c0 1.9 1.3 3.6 3 4.3zm-44-114l-.4-2.3c-.2-.8 0-1.3.7-1.8l1.9-1.6-3-.4c-.4 0-.6-.2-.7-.5l-1.5-2.9-1.2 2.4c-.2.8-.7 1-1.6 1.2-.7 0-1.5.3-2.3.5l2.2 2c.2.2.3.4.2.7L43 50l2.9-1.3a1 1 0 011 0l2.5 1.3z"/><path class="lap_st1" d="M56.4 175.4a4 4 0 01-4.1 4.2 4 4 0 01-4.2-4.2c0-2.4 1.9-4.2 4.2-4.2 2.3 0 4.1 1.8 4.1 4.2zm-4.1-2.9a2.9 2.9 0 00-2.9 2.9 3 3 0 002.9 2.9 2.9 2.9 0 000-5.8z"/><path class="lap_st2" d="M99 179.8l-4.5-5.2v4.3l-.1.6h-1.1c-.2 0-.1-.2-.1-.4v-8l4.5 5.1c.2-.2.1-.4.1-.5V173c0-.9.5-1.5 1.3-1.9v8.7z"/><path class="lap_st1" d="M110.5 172.8a4 4 0 00-1.3-.2 3 3 0 00-2.8 2.9c0 1.5 1.3 2.8 2.9 2.8.6 0 1-.4 1.2-1 .1-.6-.2-1.2-.8-1.4-.6-.2-1-.4-1.4-.9l-.2-.4c.1-.2.3 0 .5 0h.8c1.3 0 2.4 1 2.4 2.2 0 1.5-.9 2.7-2.2 2.8a4 4 0 01-4-2 4 4 0 01.3-4.6c1-1.4 2.4-2 4-1.7.5 0 .7.2.6.7v.8zM84.7 171.1l3.4 8.4c-1.4.1-1.4.1-1.9-1.1-.1-.5-.3-.6-.8-.6H84c-.5 0-.7.1-.9.6-.3.9-1 1.3-1.9 1.2l3.5-8.5zm-.8 5.4h1.6l-.8-2-.8 2z"/><path d="M141 179.5h-3.8c-.2 0-.3 0-.3-.3v-7.5c0-.3 0-.3.3-.3h3.2c.2 0 .3 0 .3.3 0 1 0 1-1 1h-1.2c-.3 0-.3 0-.4.3 0 1.3 0 1.3 1.3 1.3.2 0 .6-.1.7.1v1c0 .3-.2.2-.3.2h-1.2c-.4 0-.5.1-.5.4v1.5c0 .8 0 .7.7.7.4 0 .8 0 1.1.2.5.2.8.5 1 1.1zM121.5 179.5h-3.8c-.2 0-.3 0-.3-.3v-7.6c0-.2 0-.3.3-.3h3.2c.3 0 .3.1.3.4 0 1 .1 1-.9 1H119c-.7.1-.2.7-.3 1.1 0 .2-.1.5.3.5h1.3c.3 0 .4.1.4.4 0 .9 0 .9-1 .9s-1 0-1 1v1.2c0 .3 0 .4.4.4.5 0 1 0 1.4.2.5.2.8.6 1 1.1z"/><path class="lap_st1" d="M150.8 171.3a2 2 0 01-1.7 1.2h-.3c-.6.1-1 .5-1 1 0 .4.4.7 1 .8 1 .2 1.7.7 2 1.6.8 2-.7 3.9-2.7 3.6a2 2 0 01-1.4-1c-.2-.2-.1-.3.2-.3h1.4c.9 0 1.4-.5 1.4-1.2s-.4-1.2-1.2-1.3c-1.3-.3-2-1.3-2-2.6.2-1 1.2-1.9 2.4-1.9h2zM66.3 171.3c-.4.8-1 1.2-1.7 1.2h-.4c-.5.2-.8.5-.8 1 0 .4.3.7.8.8 1.2.2 2 .8 2.3 2 .4 1.8-1 3.5-3 3.2a2 2 0 01-1.3-1c-.2-.2-.2-.3.2-.3h1.4c.8 0 1.3-.4 1.4-1.2 0-.6-.4-1.2-1.2-1.3-1.3-.3-2-1.3-2-2.6.2-1 1.2-1.9 2.4-1.9h2z"/><path class="lap_st2" d="M40.4 171v6.6c0 .5.1.7.6.6h1.6c.3 0 .4 0 .4.4 0 .9 0 .9-.8.9h-2.7c-.3 0-.4 0-.4-.4v-6.3c0-.8.5-1.4 1.3-1.8zM128.7 171v6.7c0 .4.1.6.5.5h1.7c.3 0 .4.1.4.4 0 1 0 1-.8 1h-2.7c-.3 0-.4-.2-.4-.5v-6.3c0-.8.5-1.4 1.3-1.8z"/><path class="lap_st3" d="M129 87.2l-2.5-.7-.6-.2 10-16.6 3.2-5.4V64h.1l-.2.2-.2.2-18 15.2-2.8 2.3h-.1l8.8-26.3-.3.3-14.8 19.4L108 80v-.3l.6-9.5.9-10.7.6-7.7.2-3.3-10.7 26.8h-.1l-4.6-28.6-5 31.3-12.4-28.2h-.1l2.8 27.8h-.1L62.8 55v.5L67 67 72.3 82c-.9.1-1.8-.2-2.7 0L48.4 64.6c0 .2 0 .4.2.5l3.7 5.3 7.4 10.4c-1.2.1-2.4-.2-3.6-.3-1.7-.2-3.4-.4-5-.8-1.6-.3-3-.6-4.4-1.4-.3-.1-.5-.1-.8.1-.3.4-.8.6-1.2 1l-5.6-2.7-.1.1 3.7 4-2.8 2c-2.6 1.9-5.3 3.7-8 5.3l-3 1.4s-.1.1-.2 0a69 69 0 0122.1-30 68.9 68.9 0 0132-14.1l5-.8 3.8-.4c3.5-.3 7-.4 10.5-.3a55 55 0 0128 8.5 64.4 64.4 0 0120 19.3A97.2 97.2 0 01163.5 98c.2.6.2.6-.4.6l-3.5-.3c-1.9-.2-3.7-.5-5.6-1-1.5-.4-3-.7-4.5-1.4l.3-.2 8.5-5-.7.1-8.8 1.4-5.7 1c-.6-.6-1.4-.9-2.1-1.3l-3.7-1.9 2.5-2.5 6.8-6.5 4.5-4.3c0-.1 0-.1 0 0l-8 3.7-14 6.8zM62.8 54.8z"/><path class="lap_st4" d="M72.3 82L67 67 63 55.5c-.1-.1-.2-.3-.1-.5L80 77.6h.1l-2.8-27.7h.1L90 78l5-31.3 4.6 28.6h.1l10.6-26.8h.1l-.2 3.3-.6 7.7-.8 10.7-.7 9.5v.3l3.6-4.7L126.4 56l.4-.2-8.9 26.1.1.1 2.8-2.3 18-15.2.2-.2h.1l-3.2 5.5-10 16.6h-.5a75.4 75.4 0 00-17.5-2.7l-7.4-.3-10.3-.5-4.7-.1-5.4-.3c-2.4 0-4.7-.2-7.1-.3-.3 0-.5 0-.7-.2z"/><path class="lap_st3" d="M139.7 101.3c2.9 1.3 5.8 2.4 8.7 3.4a58.4 58.4 0 0016 1.8c.5 0 .6.1.6.6a97.4 97.4 0 01.7 8.6v3.2a59.6 59.6 0 01-3 17.3c-.8 2.5-2 4.9-3.3 7.2-.3.5-.3.5-1 .2a51.4 51.4 0 00-8.5-3.4c-.2-.1-.4-.3-.4-.6v-1.7l5.3 1 4.4.7-9.3-5c.1-1.3.3-2.6 1-3.7.6-.8.6-1.7.6-2.6 0-.2-.2-.2-.3-.3-2-1-3.7-2-5.3-3.6l-.6-.5c6-.2 11.9-.8 17.8-1.4l-24.1-6.2c-.3-.5-.8-1-1-1.6l25.1-7.5v-.2h-3.8l-17.4-.3c-2.9 0-5.7-.1-8.6-.3l-.3-.7 6.7-4.4z"/><path class="lap_st0" d="M97.4 98.9c-2 10.1-1.9 20.2.7 30.2h-12c-1.8 0-2.8.9-3 2.7 0 .8 0 .7-.9.8-2.8.1-5.5.3-8.3.6-1.4.1-2.8.2-4.2.5-.1 0-.2 0-.2-.2v-2.6l.1-3c.3-3.8.9-7.5 2.4-11 .2-.4.5-.7 1-.8a55.3 55.3 0 0117.4-2.7c.4 0 .4-.3.4-.5.7-2.6 1.5-5.2 2.5-7.7.8-1.8 1.6-3.7 3-5.2.3-.5.6-.8 1.1-1.1zM132.4 135.6a86.8 86.8 0 00-13-2.2c-3-.4-6-.6-9-.8l-6.6-.3c-.4 0-.5 0-.3-.4a71.4 71.4 0 0113.8-21.7c1.8-1.7 4.7-4.1 6.2-4.9l-1 2.2-4.4 9c-.4.9-.4.7.4 1 5.6 2.4 10.9 5.3 15.8 9 2.9 2 5.6 4.5 7.7 7.6l.2.4a58 58 0 01-7.4-2c-1.5-.1-2.3.9-2.4 2.3v.8z"/><path class="lap_st3" d="M41.5 125.5l-1.5 3-.6 1.4.1.8 1.7 3.1-.5.3-9.9 5.7c0 .1.1 0 .2 0 1.2-.2 2.5-.3 3.7-.6 3-.6 5.9-1.1 8.7-2.2.5.7 1.1 1.2 1.8 1.8l-2.1.7c-3.9 1.4-7.8 2.8-11.5 4.6-.7.3-.7.3-1-.4a49.9 49.9 0 01-5-16.1 71.7 71.7 0 01-1.2-12c0-.3.1-.5.5-.7l9.5-4.5c.4-.2.8 0 1.2 0 1.7.5 3.3 1.4 4.8 2.2 1.3.7 2.5 1.6 3.7 2.5 1 .8 2 1.7 2.7 2.8.2.3.4.6.2 1l-20.3 5.5v.1l14.8 1z"/><path class="lap_st5" d="M73.5 151.8v11c0 .4 0 .5-.5.5h-2c-.3 0-.5 0-.5-.5v-10.4-8.3l10.7 11.8c.2 0 .2-.2.2-.4v-3.4-4.4c.1-1.6 1.4-3.3 2.9-3.8v19.9l-10.8-12zM132 156l5.7 7.2h-2.3c-1.2.2-1.9-.3-2.5-1.2-1.1-1.6-2.4-3-3.6-4.5 0-.1-.2-.3-.5-.3.2 2.1.1 4.2.1 6.4-.9-.3-1.5-1-2-1.6-.6-.8-1-1.7-1-2.7v-14.6c0-.4.2-.5.6-.5h4.7a6 6 0 011.2 11.7l-.4.2zm-3-6.3v2.1l.1.5a3 3 0 003.5.4 3 3 0 00-1.2-5.4l-2.2-.1c-.2 0-.3 0-.3.3v2.2z"/><path class="lap_st6" d="M65 118.5c-.3.5-.8.9-1.2 1.3a100 100 0 00-4 5.3c-.1.3-.2.4.1.8.9.9 1.5 2 2 3.1l.9 1.7c-1.8.2-3.5.4-5.1.8-2 .6-1.9.5-2.2 2.7v1.6c0 .2 0 .4-.2.5-.9.3-1.7.6-2.5.6-.6 0-1-.2-1.4-.5-1.7-1.6-3-3.4-4.4-5.1-.2-.3-.2-.4 0-.6.6-1 1.4-2 2.3-2.7 3.8-3.1 8-5.5 12.3-7.8l3.3-1.7z"/><path class="lap_st7" d="M102.2 163.6c-1.9-.7-3-2.4-3-4.2v-14.5c0-.4.1-.6.6-.5h2c.3 0 .5 0 .5.5v6c0 .4 0 .5.4.5h5.9c.4 0 .5-.1.5-.5v-6c0-.4 0-.5.5-.5h2c.3 0 .4 0 .4.3V163c0 .3 0 .4-.4.4h-2c-.4 0-.6 0-.6-.5v-8c0-.4 0-.5-.4-.5h-6c-.3 0-.4 0-.4.4v8.9z"/><path class="lap_st8" d="M133.3 106.4c2.8.2 5.7.2 8.6.3l17.3.3h3.9v.2l-25.2 7.5a61.6 61.6 0 01-4.7-8.2z"/><path class="lap_st7" d="M69 163.5h-2.8c-.3 0-.4 0-.5-.3l-1.3-3.2c0-.3-.2-.4-.5-.4h-5.4c-.4 0-.5.1-.6.4l-1 2c-1 1.3-2.2 1.8-3.8 2l8-19.8 8 19.3zm-7.8-11.8l-1.8 4.6c-.1.2 0 .3.2.3H63l-2-4.9z"/><path class="lap_st5" d="M44 156v8a4.6 4.6 0 01-3-4.3V145c0-.4.1-.5.5-.5h4.6c3.5 0 5.9 2.8 5.9 5.9a6 6 0 01-8 5.6zm0-6v2.3c0 .2 0 .3.3.5a3 3 0 003.3.2c1-.7 1.6-2 1.3-3.2-.3-1.2-1.3-2-2.5-2.1h-2c-.3-.1-.4 0-.4.3v2z"/><path class="lap_st7" d="M124.3 163.3h-9.2c-.3 0-.3-.2-.3-.4v-10.4-7.6c0-.4 0-.5.4-.5h8c.3 0 .4 0 .4.4v2.1c0 .4-.1.5-.4.5h-5c-.4 0-.5 0-.5.4v3.2c0 .3 0 .4.4.4h3.8c.3 0 .4 0 .4.4v2.2c0 .3-.1.3-.4.3h-3.7c-.4 0-.5.1-.5.5v5.2c0 .3.1.4.4.4 1 0 2-.2 3 0 1.5.5 2.6 1.4 3.2 3zM148.3 144a5 5 0 01-3.4 3l-1.9.1c-1 .3-1.7 1.2-1.6 2.3 0 1 1 1.8 2 1.9 3.1.3 5.5 2.8 5.4 6 0 3-2.1 5.2-4.9 5.7-2.4.4-4.5-.6-5.4-2.6l-.1-.3h4.4a3 3 0 003-2.2 3 3 0 00-2.3-3.6c-1-.2-2-.4-2.9-1a5.1 5.1 0 01-2-5.3c.4-2 2.2-3.6 4.2-3.8 1.8-.2 3.6 0 5.5-.1zM93.4 164c-1.8-.7-3-2.5-3-4.3V148c0-.5 0-.6-.5-.5h-3.3c-.4 0-.5 0-.5-.4V145c0-.2 0-.4.4-.4h10.8c.3 0 .4 0 .4.4v2.2c0 .4-.2.4-.4.4h-3.4c-.4 0-.5 0-.5.4v16z"/><path class="lap_st8" d="M59.7 81l-7.4-10.5-3.7-5.3-.2-.5 21.2 17.1h-1.8l-3.8-.3-4-.3-.3-.3zM129 87.2l14-6.8 8-3.7-4.4 4.4-6.8 6.5-2.6 2.5h-.5c-2.5-1.1-5-2-7.5-2.8l-.1-.1zM139 116.4l24 6.1c-5.8.6-11.8 1.2-17.7 1.4-.2 0-.4-.2-.5-.3-2-2.2-4-4.5-5.7-7 0 0-.2 0-.1-.2zM41.5 125.5l-14.8-1c6.7-2 13.5-3.8 20.3-5.7l-1.6 1.6c-1.4 1.4-2.5 3-3.5 4.7 0 .2-.2.4-.4.4z"/><path class="lap_st7" d="M49.3 50l-2.6-1.2a1 1 0 00-.9 0L43 50.1l.6-2.8c.1-.3 0-.5-.2-.7l-2.2-2 2.4-.5c.8-.1 1.3-.4 1.6-1.2l1-2.4 1.6 3c.1.2.3.3.6.4 1 0 2 .2 3 .4l-1.8 1.6c-.7.5-.9 1-.7 1.8l.4 2.4z"/><path class="lap_st6" d="M139.7 101.3l-6.7 4.4c-.2 0-.2-.2-.3-.3l-2.2-6.1c-.1-.5 0-.6.5-.6 3 .2 6 1 8.6 2.4.1 0 .2.1.1.2z"/><path class="lap_st8" d="M158.2 90.8l-8.4 5-.4.2h-.5c-2-.8-4-1.7-5.9-2.8l5.7-1 8.9-1.4h.6z"/><path class="lap_st9" d="M43.5 137c-2.9 1-5.9 1.6-8.8 2.2l-3.6.7h-.3l9.9-5.8c.2 0 .3-.2.5-.3l.3.2c.6 1 1.3 2 2 2.8v.2zM149.8 134.6l9.4 5-4.4-.7a957 957 0 00-5.3-1c-.2-.6 0-1.2 0-1.9l.2-.9c0-.2 0-.4.2-.5zM42.8 80.9l-3.8-4 .1-.1 5.7 2.6-.1.3-1.6 1.1h-.3z"/><path class="lap_st6" d="M65 118.5zM52.3 172.5a2.9 2.9 0 010 5.8 2.9 2.9 0 01-2.9-3c0-1.5 1.4-2.8 2.9-2.8z"/><path class="lap_st9" d="M83.9 176.5l.8-2 .8 2h-1.6z"/><path class="lap_st4" d="M139 64.2l.2-.2-.1.3v-.1zM62.7 54.8z"/><path class="lap_st8" d="M158.2 90.8zM151 76.7h0z"/><path class="lap_st4" d="M139.2 64z"/><path class="lap_st3" d="M108 80z"/><path class="lap_st2" d="M129 149.7v-2.2c0-.2 0-.3.2-.3h2.2a3 3 0 011.2 5.5 3 3 0 01-3.5-.3l-.2-.6v-2.1z"/><path class="lap_st1" d="M61.2 151.7l1.9 4.9h-3.5c-.3 0-.3 0-.2-.3l1.8-4.6z"/><path class="lap_st2" d="M44 150v-2c0-.3 0-.4.4-.4h2c1.2.2 2.2 1 2.5 2.2a3 3 0 01-4.6 3c-.2-.2-.3-.3-.3-.5V150z"/></svg>