<?xml version="1.0" encoding="utf-8"?>
<!-- Generator: Adobe Illustrator 24.1.0, SVG Export Plug-In . SVG Version: 6.00 Build 0)  -->
<svg version="1.1" id="Layer_1" xmlns="http://www.w3.org/2000/svg" xmlns:xlink="http://www.w3.org/1999/xlink" x="0px" y="0px"
	 viewBox="0 0 200 200" style="enable-background:new 0 0 200 200;" xml:space="preserve">
<g>
	<path style="fill:#EA7C0B;" d="M38.553,181.488c-2.026-1.657-3.816-3.557-5.534-5.519c-6.287-7.181-11.843-14.896-16.68-23.12
		c-2.093-3.558-3.413-7.45-4.538-11.403c-1.371-4.818-2.342-9.719-2.981-14.686c-0.018-0.14-0.013-0.286-0.13-0.389
		c-0.616-0.547-1.117-1.205-1.842-1.65c-1.816-1.116-3.187-2.71-4.471-4.378c-0.84-1.091-1.596-2.236-2.147-3.507
		c-0.289-0.667-0.342-1.309-0.136-2.042c0.506-1.801,0.707-3.664,0.886-5.522c0.188-1.946,0.306-3.899,0.502-5.844
		c0.282-2.802,1.579-5.117,3.547-7.079c0.259-0.258,0.327-0.458,0.231-0.819c-0.922-3.448,0.327-6.254,3.502-7.903
		c0.224-0.116,0.334-0.252,0.405-0.497c0.637-2.219,2.162-3.478,4.371-3.96c0.37-0.081,0.59-0.207,0.737-0.599
		c2.764-7.32,6.679-14.004,11.291-20.295c2.107-2.874,4.331-5.653,6.804-8.226c0.632-0.657,0.935-1.477,1.094-2.363
		c0.053-0.296-0.105-0.454-0.286-0.629c-2.473-2.388-4.942-4.779-7.415-7.168c-1.674-1.617-3.351-3.23-5.023-4.848
		c-0.095-0.092-0.235-0.161-0.246-0.372c1.171-0.194,2.345-0.39,3.519-0.581c4.641-0.753,9.282-1.51,13.926-2.245
		c0.447-0.071,0.643-0.3,0.819-0.676c2.409-5.168,4.83-10.33,7.25-15.493c0.072-0.153,0.159-0.298,0.247-0.461
		c0.211,0.158,0.26,0.371,0.35,0.552c2.615,5.266,5.228,10.533,7.831,15.805c0.164,0.332,0.367,0.446,0.735,0.538
		c1.337,0.332,2.436-0.049,3.626-0.699c5.025-2.744,10.422-4.512,15.987-5.787c5.409-1.24,10.891-1.903,16.437-2.059
		c10.976-0.309,21.731,0.951,32.166,4.496c8.19,2.782,15.703,6.852,22.659,11.968c4.239,3.118,8.256,6.498,11.945,10.256
		c5.269,5.367,9.649,11.397,13.299,17.961c3.037,5.462,5.563,11.146,7.331,17.153c0.03,0.1,0.07,0.197,0.129,0.359
		c0.365-0.42,0.714-0.807,1.048-1.208c2.553-3.07,5.858-4.483,9.816-4.59c3.307-0.089,5.761,1.461,7.803,3.854
		c1.27,1.488,2.065,3.223,2.433,5.149c0.018,0.095-0.022,0.22,0.118,0.262c0,1.058,0,2.117,0,3.175
		c-0.521,3.538-2.663,6.017-5.349,8.12c-2.931,2.296-6.247,3.884-9.717,5.178c-0.611,0.228-1.216,0.483-1.848,0.641
		c-0.477,0.12-0.646,0.353-0.635,0.852c0.024,1.092,0.077,2.182,0.107,3.273c0.108,3.942-0.316,7.844-1,11.722
		c-0.735,4.168-1.651,8.299-2.631,12.415c-0.584,2.452-1.144,4.91-1.963,7.3c-1.107,3.229-2.529,6.313-4.144,9.314
		c-3.217,5.975-7.213,11.405-11.584,16.573c-2.667,3.153-5.576,6.076-8.53,8.956c-0.351,0.342-0.673,0.796-1.262,0.79
		c-37.395,0-74.788,0-112.182-0.002C39.006,181.533,38.774,181.582,38.553,181.488z"/>
	<path style="fill:#EF9C47;" d="M151.612,181.491c-0.009,0.032-0.013,0.065-0.012,0.099c-37.68,0-75.36,0-113.04,0
		c0.001-0.034-0.001-0.068-0.007-0.101c0.123-0.001,0.247-0.004,0.37-0.004c37.422,0,74.844,0,112.266,0
		C151.33,181.484,151.471,181.489,151.612,181.491z"/>
	<path d="M14.521,89.097c1.308-0.001,2.499,0.229,3.66,0.593c0.381,0.119,0.491,0.034,0.612-0.325
		c3.221-9.559,7.976-18.282,14.304-26.141c1.648-2.047,3.386-4.016,5.311-5.812c0.131-0.122,0.231-0.246,0.259-0.44
		c0.35-2.423,0.703-4.846,1.074-7.266c0.049-0.318-0.035-0.518-0.257-0.737c-1.904-1.887-3.795-3.788-5.696-5.679
		c-0.135-0.135-0.319-0.22-0.481-0.328c0.033-0.057,0.066-0.114,0.1-0.171c1.05-0.155,2.101-0.312,3.151-0.463
		c1.795-0.259,3.59-0.523,5.388-0.767c0.369-0.05,0.576-0.206,0.735-0.549c1.088-2.347,2.198-4.684,3.302-7.024
		c0.081-0.173,0.171-0.341,0.3-0.597c0.328,0.608,0.628,1.154,0.918,1.705c1.051,1.994,2.106,3.985,3.139,5.988
		c0.158,0.306,0.366,0.425,0.684,0.469c2.494,0.35,4.987,0.708,7.479,1.071c0.247,0.036,0.442-0.059,0.65-0.159
		c7.227-3.461,14.801-5.819,22.708-7.099c5.024-0.813,10.083-1.126,15.172-0.936c4.986,0.186,9.957,0.499,14.875,1.419
		c5.71,1.069,11.181,2.865,16.418,5.361c7.18,3.422,13.807,7.72,19.864,12.867c4.596,3.906,8.421,8.515,11.813,13.486
		c5.555,8.141,9.748,16.958,12.959,26.255c0.453,1.313,0.864,2.641,1.254,3.974c0.105,0.359,0.236,0.423,0.584,0.366
		c2.611-0.425,4.901-1.61,7.121-2.964c1.837-1.121,3.568-2.399,5.321-3.643c1.052-0.747,2.118-0.971,3.324-0.449
		c1.317,0.57,2.403,1.382,2.764,2.844c0.359,1.455-0.293,2.646-1.165,3.738c-0.229,0.288-0.483,0.573-0.777,0.79
		c-2.613,1.932-5.106,4.054-8.286,5.077c-1.743,0.561-3.48,1.135-5.243,1.628c-0.746,0.208-1.491,0.418-2.243,0.602
		c-0.263,0.064-0.374,0.12-0.328,0.445c0.708,5.007,0.494,10.018,0.041,15.03c-0.423,4.687-1.081,9.342-2.081,13.94
		c-1.145,5.262-3.158,10.215-5.617,14.989c-3.565,6.923-7.926,13.314-12.959,19.253c-0.321,0.379-0.643,0.541-1.157,0.541
		c-38.666-0.014-77.332-0.014-115.998-0.001c-0.541,0-0.897-0.142-1.255-0.56c-3.773-4.411-7.433-8.904-10.46-13.876
		c-2.326-3.82-4.077-7.912-5.776-12.032c-1.175-2.849-2.364-5.689-3.103-8.693c-1.068-4.341-1.559-8.734-1.261-13.203
		c0.016-0.235,0.011-0.388-0.274-0.359c-2.03,0.203-3.583-0.827-5.085-1.976c-1.448-1.107-2.723-2.4-3.964-3.728
		c-0.115-0.123-0.265-0.21-0.116-0.437c0.829-1.264,1-2.731,1.215-4.173c0.327-2.198,0.447-4.417,0.541-6.634
		c0.033-0.78,0.273-1.424,0.794-2.005c0.718-0.803,1.467-1.575,2.257-2.304c0.34-0.313,0.497-0.656,0.544-1.093
		c0.151-1.427,0.043-2.849-0.05-4.273c-0.085-1.307-0.296-1.273,1.065-0.767c0.877,0.326,1.692,0.793,2.465,1.318
		c0.333,0.226,0.454,0.122,0.542-0.202c0.307-1.13,0.128-2.237-0.158-3.337C15.213,90.79,14.891,89.974,14.521,89.097z"/>
	<path d="M56.57,175.732c-0.008,2.383-1.806,4.17-4.19,4.164c-2.344-0.006-4.093-1.862-4.082-4.333
		c0.01-2.316,1.855-4.125,4.198-4.117C54.823,171.455,56.579,173.302,56.57,175.732z"/>
	<path d="M93.371,171.457c1.582,1.757,3.063,3.4,4.657,5.17c0-0.685,0-1.219,0-1.752c0.001-0.564-0.013-1.129,0.007-1.692
		c0.029-0.808,0.512-1.463,1.255-1.724c0,2.832,0,5.655,0,8.591c-1.556-1.728-3.046-3.382-4.539-5.041
		c-0.171,0.099-0.088,0.255-0.089,0.376c-0.007,1.322-0.015,2.644,0.002,3.966c0.004,0.331-0.067,0.456-0.429,0.45
		c-0.864-0.014-0.865,0.007-0.865-0.857c0-2.274,0-4.548,0-6.822C93.371,171.949,93.371,171.776,93.371,171.457z"/>
	<path d="M110.745,173.103c-1.704-0.483-2.91-0.116-3.667,1.109c-0.586,0.947-0.614,1.932-0.082,2.91
		c0.537,0.987,1.413,1.441,2.512,1.481c0.577,0.021,1.102-0.459,1.212-1.059c0.107-0.589-0.241-1.2-0.858-1.408
		c-0.529-0.178-1.024-0.384-1.35-0.863c-0.085-0.125-0.252-0.254-0.16-0.412c0.074-0.128,0.258-0.054,0.393-0.058
		c0.282-0.008,0.567,0.023,0.846-0.007c1.283-0.136,2.386,1.122,2.441,2.277c0.071,1.492-0.842,2.708-2.198,2.809
		c-1.688,0.127-3.063-0.503-3.922-1.983c-0.902-1.554-0.838-3.15,0.187-4.631c0.989-1.43,2.419-1.903,4.115-1.685
		c0.401,0.051,0.598,0.199,0.54,0.635C110.715,172.494,110.745,172.779,110.745,173.103z"/>
	<path d="M88.315,179.762c-1.42,0.098-1.444,0.106-1.891-1.122c-0.162-0.444-0.381-0.592-0.84-0.553
		c-0.525,0.045-1.057,0.032-1.584,0.003c-0.338-0.019-0.501,0.097-0.608,0.417c-0.265,0.798-0.813,1.298-1.654,1.456
		c-0.265,0.05-0.367-0.002-0.246-0.296c1.123-2.725,2.238-5.452,3.396-8.28C86.049,174.224,87.171,176.967,88.315,179.762z"/>
	<path d="M121.775,179.79c-1.33,0-2.581-0.006-3.831,0.005c-0.261,0.002-0.323-0.093-0.323-0.337
		c0.007-2.502,0.006-5.004,0.001-7.506c0-0.214,0.045-0.318,0.289-0.315c1.075,0.01,2.15,0.012,3.225-0.001
		c0.268-0.003,0.312,0.106,0.321,0.343c0.038,0.949,0.046,0.948-0.879,0.948c-0.176,0-0.353-0.011-0.529,0.002
		c-0.363,0.027-0.885-0.174-1.054,0.089c-0.243,0.378-0.066,0.92-0.079,1.392c-0.006,0.213,0.162,0.192,0.301,0.193
		c0.423,0.002,0.847,0.022,1.268-0.006c0.334-0.022,0.42,0.099,0.41,0.42c-0.034,1.068,0.121,0.858-0.853,0.87
		c-1.131,0.014-1.131,0.003-1.131,1.123c0,0.018,0,0.035,0,0.053c0.006,0.44-0.14,0.975,0.059,1.295
		c0.227,0.365,0.808,0.082,1.229,0.152C120.934,178.634,121.435,179.041,121.775,179.79z"/>
	<path d="M141.256,179.79c-1.329,0-2.579-0.006-3.828,0.005c-0.25,0.002-0.333-0.072-0.332-0.327c0.008-2.502,0.008-5.004,0-7.506
		c-0.001-0.259,0.089-0.327,0.335-0.324c1.04,0.011,2.08,0.015,3.119-0.002c0.303-0.005,0.381,0.094,0.385,0.389
		c0.011,0.904,0.024,0.904-0.872,0.904c-0.441,0-0.891-0.057-1.32,0.013c-0.748,0.123-0.231,0.727-0.337,1.097
		c-0.059,0.206-0.181,0.602,0.332,0.572c0.404-0.024,0.812,0.014,1.215-0.011c0.32-0.02,0.431,0.076,0.42,0.41
		c-0.035,1.081,0.117,0.867-0.845,0.879c-1.14,0.014-1.141,0.003-1.139,1.167c0.001,0.44-0.14,0.97,0.055,1.296
		c0.226,0.377,0.804,0.088,1.223,0.157C140.403,178.63,140.903,179.038,141.256,179.79z"/>
	<path d="M66.508,171.536c-0.39,0.811-0.959,1.212-1.761,1.285c-0.122,0.011-0.247,0.01-0.367,0.033
		c-0.503,0.097-0.833,0.453-0.829,0.883c0.004,0.423,0.341,0.797,0.832,0.878c1.171,0.193,1.974,0.807,2.268,1.986
		c0.458,1.835-1.051,3.475-2.914,3.174c-0.608-0.098-1.063-0.443-1.392-0.959c-0.138-0.216-0.091-0.318,0.176-0.314
		c0.458,0.006,0.916,0.007,1.374,0c0.893-0.014,1.427-0.432,1.503-1.165c0.069-0.666-0.416-1.199-1.247-1.371
		c-1.293-0.267-2.032-1.271-1.889-2.568c0.119-1.079,1.095-1.862,2.324-1.863C65.201,171.535,65.815,171.536,66.508,171.536z"/>
	<path d="M151.069,171.536c-0.358,0.788-0.915,1.177-1.684,1.282c-0.208,0.029-0.426,0.026-0.624,0.088
		c-0.412,0.13-0.659,0.43-0.633,0.866c0.025,0.427,0.289,0.709,0.701,0.828c0.252,0.073,0.522,0.093,0.769,0.179
		c1.265,0.444,1.965,1.802,1.615,3.11c-0.356,1.333-1.597,2.13-2.943,1.88c-0.546-0.101-0.97-0.403-1.289-0.851
		c-0.068-0.096-0.182-0.198-0.127-0.328c0.061-0.145,0.212-0.083,0.325-0.084c0.44-0.007,0.881,0.005,1.321-0.005
		c0.878-0.019,1.422-0.467,1.473-1.2c0.045-0.648-0.44-1.171-1.235-1.333c-1.303-0.265-2.04-1.251-1.908-2.553
		c0.111-1.098,1.092-1.88,2.361-1.88C149.789,171.536,150.387,171.536,151.069,171.536z"/>
	<path d="M40.572,171.306c0,0.233,0,0.402,0,0.57c0,2.063,0.008,4.127-0.008,6.19c-0.003,0.343,0.086,0.463,0.439,0.446
		c0.581-0.028,1.164,0.008,1.746-0.014c0.312-0.012,0.431,0.068,0.433,0.407c0.005,0.886,0.023,0.886-0.842,0.886
		c-0.9,0-1.799-0.009-2.698,0.005c-0.274,0.005-0.364-0.075-0.363-0.356c0.01-2.134-0.016-4.268,0.018-6.401
		C39.31,172.24,39.765,171.673,40.572,171.306z"/>
	<path d="M128.95,171.332c0,2.253,0.012,4.456-0.01,6.659c-0.004,0.42,0.11,0.549,0.527,0.522c0.562-0.036,1.129,0.004,1.692-0.014
		c0.294-0.01,0.394,0.079,0.401,0.385c0.019,0.907,0.033,0.907-0.872,0.907c-0.882,0-1.764-0.012-2.645,0.006
		c-0.302,0.006-0.386-0.092-0.384-0.388c0.011-2.098-0.001-4.197,0.009-6.295C127.671,172.314,128.11,171.707,128.95,171.332z"/>
	<path style="fill:#006A79;" d="M129.17,87.478c-1.065-0.278-2.13-0.556-3.195-0.834c-0.053-0.279,0.143-0.464,0.266-0.668
		c3.538-5.897,7.109-11.775,10.659-17.665c0.772-1.281,1.544-2.563,2.271-3.725c-2.445,2.078-5.003,4.223-7.552,6.379
		c-2.436,2.06-4.877,4.114-7.312,6.175c-1.843,1.56-3.693,3.112-5.541,4.666c-0.17,0.143-0.371,0.443-0.618,0.256
		c-0.202-0.153-0.022-0.431,0.048-0.64c2.191-6.519,4.398-13.032,6.597-19.548c0.642-1.902,1.269-3.809,1.946-5.751
		c-3.222,4.256-6.431,8.454-9.628,12.661c-2.187,2.878-4.382,5.751-6.567,8.63c-0.597,0.787-1.205,1.564-1.798,2.354
		c-0.127,0.169-0.223,0.427-0.526,0.354c-0.132-0.105-0.148-0.256-0.168-0.406c-0.005-1.288,0.167-2.565,0.254-3.847
		c0.11-1.616,0.253-3.231,0.368-4.847c0.115-1.616,0.247-3.231,0.367-4.847c0.123-1.651,0.261-3.301,0.376-4.952
		c0.11-1.582,0.235-3.162,0.36-4.742c0.13-1.651,0.253-3.302,0.374-4.953c0.045-0.615,0.127-1.227,0.143-1.843
		c0.051-0.217,0.109-0.435,0.132-0.66c0.005-0.051,0.007-0.103,0.018-0.154c-0.034,0.065-0.014,0.139-0.035,0.208
		c-0.784,2.173-1.675,4.303-2.525,6.45c-2.53,6.391-5.064,12.78-7.605,19.167c-0.052,0.131-0.093,0.268-0.161,0.391
		c-0.094,0.171-0.112,0.477-0.371,0.427c-0.228-0.044-0.228-0.325-0.262-0.533c-0.987-6.177-1.976-12.355-2.957-18.533
		c-0.481-3.028-0.991-6.051-1.433-9.085c-0.01-0.07-0.016-0.14-0.008-0.201c0,0.01-0.029,0.008-0.029,0.008s0.024,0.017,0.024,0.026
		c-0.122,1.396-0.392,2.763-0.603,4.138c-1.049,6.847-2.115,13.692-3.172,20.538c-0.296,1.916-0.593,3.832-0.893,5.748
		c-0.036,0.232,0.011,0.6-0.24,0.649c-0.325,0.064-0.363-0.327-0.461-0.551c-2.08-4.747-4.167-9.491-6.247-14.238
		c-1.847-4.214-3.686-8.431-5.553-12.636c-0.057-0.128-0.114-0.256-0.135-0.343c0.241,2.358,0.495,4.767,0.73,7.177
		c0.219,2.243,0.47,4.484,0.689,6.727c0.221,2.261,0.458,4.52,0.684,6.781c0.195,1.945,0.379,3.89,0.591,5.833
		c0.032,0.29,0.163,0.697-0.132,0.824c-0.291,0.125-0.436-0.28-0.597-0.492c-4.997-6.589-10.014-13.162-15.012-19.75
		c-0.522-0.688-1.05-1.372-1.603-2.109c1.945,5.43,3.877,10.807,5.802,16.187c1.199,3.353,2.406,6.703,3.603,10.057
		c0.064,0.18,0.147,0.365,0.037,0.559c-0.92-0.048-1.844-0.049-2.759-0.174c-1.089-0.663-2.009-1.542-3.001-2.33
		c-3.007-2.39-5.985-4.815-8.976-7.224c-2.84-2.287-5.68-4.575-8.514-6.87c-0.164-0.133-0.336-0.253-0.52-0.413
		c1.722,2.419,3.422,4.81,5.117,7.204c1.883,2.66,3.782,5.309,5.654,7.978c0.195,0.278,0.492,0.513,0.476,0.906
		c-1.67-0.078-3.322-0.324-4.975-0.549c-2.246-0.306-4.483-0.677-6.653-1.356c-0.519-0.162-1.042-0.335-1.526-0.578
		c-0.33-0.166-0.544-0.103-0.799,0.102c-0.342,0.275-0.704,0.526-1.058,0.788c-0.641-0.097-1.171-0.472-1.743-0.731
		c-1.283-0.581-2.549-1.201-3.938-1.845c1.255,1.127,2.242,2.354,3.367,3.449c0.159,0.155,0.371,0.284,0.376,0.549
		c-4.649,3.321-9.256,6.711-14.517,9.068c0.203-1.012,0.587-1.913,0.969-2.812c2.751-6.472,6.455-12.354,10.969-17.738
		c4.355-5.195,9.357-9.665,15.012-13.401c6.465-4.272,13.474-7.327,20.948-9.348c3.914-1.058,7.888-1.8,11.909-2.283
		c1.886-0.227,3.781-0.384,5.682-0.478c2.394-0.118,4.788-0.228,7.185-0.163c7.484,0.205,14.706,1.649,21.607,4.598
		c6.118,2.615,11.604,6.21,16.56,10.638c6.249,5.582,11.324,12.109,15.58,19.295c3.702,6.251,6.722,12.816,8.931,19.744
		c0.201,0.631,0.201,0.642-0.439,0.63c-4.237-0.077-8.361-0.836-12.406-2.064c-0.553-0.168-1.12-0.302-1.637-0.576
		c0.081-0.293,0.351-0.382,0.573-0.512c2.66-1.558,5.33-3.097,7.955-4.631c-1.374,0.225-2.784,0.47-4.198,0.693
		c-3.22,0.507-6.435,1.048-9.654,1.558c-0.33,0.052-0.658,0.133-0.995,0.047c-1.91-1.098-3.87-2.101-5.847-3.073
		c-0.037-0.099,0.016-0.169,0.08-0.231c1.573-1.539,3.152-3.072,4.773-4.56c0.856-0.786,1.675-1.612,2.511-2.417
		c1.256-1.209,2.527-2.402,3.779-3.615c0.859-0.832,1.72-1.663,2.526-2.438c-1.954,0.915-3.958,1.917-5.99,2.858
		c-1.039,0.481-2.065,0.99-3.095,1.487c-3.092,1.494-6.196,2.965-9.292,4.452C131.456,86.466,130.377,87.119,129.17,87.478z"/>
	<path style="fill:#EA7C0B;" d="M108.312,80.103c3.046-3.994,6.095-7.987,9.139-11.984c3.066-4.025,6.127-8.053,9.191-12.078
		c0.072-0.095,0.158-0.18,0.338-0.223c-2.951,8.737-5.901,17.474-8.852,26.21c0.03,0.023,0.06,0.046,0.089,0.07
		c7.075-5.968,14.151-11.935,21.226-17.903c0.021,0.014,0.043,0.029,0.064,0.043c-4.511,7.468-9.022,14.937-13.533,22.405
		c-0.659-0.186-1.311-0.403-1.999-0.465c-0.103-0.187-0.303-0.046-0.437-0.129c-0.303-0.131-0.632-0.152-0.948-0.224
		c-0.095-0.008-0.19-0.016-0.285-0.025c-0.344-0.186-0.733-0.198-1.103-0.286c-0.164-0.14-0.391-0.009-0.559-0.132
		c-1.551-0.407-3.139-0.61-4.723-0.831c-3.859-0.538-7.743-0.751-11.633-0.896c-3.307-0.124-6.614-0.279-9.921-0.417
		c-3.413-0.142-6.827-0.273-10.24-0.421c-3.852-0.167-7.702-0.348-11.554-0.523c-1.961-5.484-3.919-10.969-5.882-16.452
		c-1.216-3.396-2.437-6.79-3.657-10.185c-0.058-0.163-0.125-0.322-0.19-0.489c0.001-0.001,0.013-0.015,0.029-0.023
		c0.015-0.008,0.033-0.014,0.049-0.012c0.034,0.004,0.077,0.002,0.1,0.021c0.053,0.045,0.1,0.098,0.143,0.153
		c5.707,7.504,11.414,15.009,17.25,22.491c-0.937-9.257-1.874-18.514-2.81-27.771c0.033-0.01,0.067-0.02,0.1-0.03
		c4.128,9.412,8.257,18.825,12.385,28.237c0.031-0.005,0.062-0.009,0.093-0.014c0.257-1.656,0.515-3.312,0.772-4.968
		c0.621-4.001,1.243-8.002,1.862-12.004c0.651-4.21,1.299-8.421,1.948-12.632c0.083-0.539,0.157-1.08,0.235-1.62
		c0.032-0.072,0.039-0.187,0.167-0.099c0.377,2.4,0.749,4.801,1.131,7.2c0.686,4.312,1.378,8.622,2.065,12.933
		c0.435,2.73,0.865,5.46,1.299,8.19c0.013,0.085,0.048,0.166,0.107,0.365c0.476-1.193,0.915-2.287,1.349-3.383
		c3.05-7.688,6.098-15.377,9.148-23.065c0.019-0.049,0.045-0.096,0.068-0.143c0.271,0.131,0.122,0.346,0.107,0.535
		c-0.195,2.704-0.386,5.408-0.588,8.111c-0.19,2.545-0.392,5.09-0.588,7.634c-0.274,3.563-0.55,7.125-0.819,10.688
		c-0.095,1.264-0.174,2.529-0.26,3.794C108.179,79.892,108.031,80.077,108.312,80.103z"/>
	<path style="fill:#006B79;" d="M139.05,116.614c-0.397-0.509-0.795-1.017-1.118-1.578c0.144-0.237,0.401-0.277,0.632-0.346
		c7.934-2.371,15.86-4.766,23.795-7.134c0.186-0.055,0.37-0.115,0.562-0.143c0.08-0.008,0.163-0.001,0.243-0.021
		c-0.151,0.021-0.307,0.007-0.457,0.055c-1.076,0.021-2.15,0.082-3.221-0.059c-0.21-0.028-0.422-0.027-0.633-0.023
		c-3.399,0.072-6.796-0.1-10.194-0.137c-1.759-0.019-3.521-0.013-5.279-0.085c-2.709-0.111-5.418-0.152-8.128-0.216
		c-0.622-0.015-1.268,0.012-1.867-0.245c-0.16-0.199-0.218-0.443-0.302-0.676c0.063-0.178,0.21-0.277,0.358-0.372
		c2.112-1.356,4.22-2.72,6.314-4.105c0.105-0.069,0.214-0.119,0.341-0.124c3.642,1.557,7.276,3.136,11.158,4.026
		c2.352,0.539,4.733,0.884,7.143,1.043c1.582,0.104,3.163,0.19,4.748,0.176c0.58-0.005,1.161-0.041,1.739-0.086
		c0.316-0.025,0.456,0.04,0.506,0.402c0.211,1.516,0.365,3.039,0.476,4.564c0.183,2.512,0.288,5.028,0.206,7.548
		c-0.227,6.963-1.349,13.75-4.039,20.219c-0.69,1.66-1.499,3.264-2.469,4.783c-0.2,0.313-0.329,0.379-0.681,0.159
		c-1.682-1.053-3.55-1.706-5.387-2.421c-1.148-0.447-2.308-0.861-3.472-1.264c-0.296-0.103-0.436-0.232-0.421-0.557
		c0.028-0.612-0.062-1.229,0.086-1.835c0.142-0.092,0.299-0.101,0.459-0.072c2.931,0.537,5.875,0.999,8.796,1.59
		c0.065,0.014,0.128,0.036,0.189,0.067c0.045,0.023,0.092,0.041,0.14,0.058c-0.035-0.048-0.101-0.039-0.144-0.077
		c-0.838-0.294-1.577-0.783-2.354-1.191c-2.119-1.113-4.221-2.259-6.344-3.367c-0.187-0.097-0.388-0.175-0.503-0.37
		c0.194-1.342,0.394-2.67,1.207-3.832c0.41-0.586,0.495-1.308,0.459-2.028c-0.012-0.245-0.083-0.433-0.333-0.545
		c-2.279-1.022-4.232-2.507-5.993-4.26c0.112-0.141,0.275-0.159,0.432-0.155c0.883,0.023,1.76-0.076,2.64-0.111
		c1.936-0.077,3.866-0.248,5.798-0.39c1.827-0.135,3.652-0.293,5.477-0.456c0.913-0.081,1.824-0.179,2.736-0.268
		c0.274-0.027,0.542-0.062,0.714,0.027c-0.753-0.143-1.581-0.371-2.414-0.577c-5.6-1.382-11.18-2.837-16.772-4.25
		c-1.368-0.346-2.735-0.694-4.102-1.046C139.521,116.845,139.276,116.757,139.05,116.614z"/>
	<path style="fill:#EA7C0B;" d="M97.735,98.959c-0.306,1.395-0.564,2.739-0.765,4.095c-0.361,2.425-0.573,4.862-0.662,7.312
		c-0.221,6.093,0.371,12.102,1.842,18.021c0.252,1.013,0.249,1.014-0.816,1.014c-3.669,0-7.338,0-11.007,0
		c-1.858,0-2.88,0.943-2.984,2.807c-0.025,0.44-0.102,0.611-0.607,0.637c-2.85,0.148-5.701,0.31-8.542,0.59
		c-1.35,0.133-2.702,0.252-4.035,0.508c-0.419,0.081-0.58,0.026-0.584-0.464c-0.045-4.867,0.296-9.683,1.795-14.356
		c0.253-0.789,0.573-1.551,0.923-2.302c0.122-0.262,0.294-0.407,0.564-0.497c2.9-0.962,5.876-1.592,8.894-2.038
		c2.879-0.426,5.771-0.712,8.682-0.753c0.465-0.007,0.523-0.294,0.608-0.626c0.829-3.246,1.846-6.428,3.289-9.459
		c0.645-1.356,1.383-2.658,2.443-3.746C97.042,99.426,97.328,99.166,97.735,98.959z"/>
	<path style="fill:#EA7C0B;" d="M142.64,134.808c-2.152-0.532-4.184-1.032-6.155-1.75c-0.382-0.139-0.769-0.248-1.172-0.31
		c-1.314-0.201-2.34,0.532-2.553,1.847c-0.053,0.329-0.078,0.665-0.084,0.998c-0.004,0.248-0.077,0.291-0.315,0.232
		c-3.27-0.809-6.589-1.349-9.923-1.801c-2.846-0.386-5.703-0.677-8.566-0.905c-3.443-0.275-6.893-0.423-10.371-0.535
		c0.039-0.406,0.232-0.744,0.378-1.091c2.834-6.733,6.458-12.991,11.251-18.534c2.328-2.692,4.928-5.09,7.888-7.081
		c0.214-0.144,0.41-0.332,0.785-0.397c-0.151,0.331-0.27,0.608-0.401,0.878c-1.698,3.519-3.389,7.042-5.107,10.551
		c-0.225,0.459-0.156,0.599,0.321,0.798c6.075,2.532,11.828,5.636,17.014,9.722c2.489,1.961,4.756,4.148,6.588,6.753
		C142.339,134.355,142.453,134.531,142.64,134.808z"/>
	<path style="fill:#006B79;" d="M41.854,125.81c-0.735,1.38-1.46,2.763-2.03,4.222c-0.127,0.324-0.134,0.601,0.03,0.903
		c0.555,1.018,1.101,2.041,1.65,3.062c-0.079,0.247-0.307,0.325-0.503,0.438c-3.063,1.773-6.124,3.547-9.197,5.302
		c-0.106,0.061-0.211,0.125-0.344,0.216c2.981-0.537,5.916-1.101,8.82-1.809c0.974-0.238,1.946-0.493,2.891-0.836
		c0.179-0.065,0.354-0.172,0.558-0.092c0.591,0.678,1.219,1.315,2.004,1.82c-0.162,0.23-0.407,0.233-0.605,0.3
		c-3.831,1.314-7.647,2.664-11.374,4.254c-0.761,0.325-1.536,0.632-2.234,1.078c-0.398,0.254-0.576,0.203-0.796-0.217
		c-1.379-2.632-2.409-5.4-3.27-8.235c-1.071-3.525-1.802-7.126-2.303-10.772c-0.27-1.969-0.483-3.947-0.573-5.935
		c-0.057-1.266-0.123-2.531-0.193-3.795c-0.016-0.292,0.053-0.481,0.349-0.619c3.126-1.465,6.248-2.938,9.364-4.425
		c0.512-0.245,1.014-0.255,1.539-0.123c2.126,0.535,4.038,1.55,5.901,2.663c1.562,0.933,3.043,1.983,4.329,3.279
		c0.633,0.638,1.218,1.324,1.515,2.202c0.04,0.119,0.085,0.232,0.041,0.358c-0.153,0.077-0.327,0.101-0.473,0.194
		c-0.871,0.346-1.785,0.547-2.685,0.793c-5.526,1.515-11.047,3.046-16.574,4.556c-0.226,0.062-0.451,0.149-0.608,0.113
		c1.585,0.001,3.247,0.187,4.914,0.286c1.265,0.075,2.529,0.166,3.794,0.251c1.405,0.095,2.812,0.164,4.214,0.292
		c0.317,0.029,0.634,0.013,0.951,0.032C41.271,125.585,41.595,125.584,41.854,125.81z"/>
	<path style="fill:#FEFEFE;" d="M70.683,144.194c3.656,4.062,7.209,8.01,10.85,12.055c0-0.288,0-0.455,0-0.623
		c0.006-2.381-0.019-4.762,0.027-7.142c0.036-1.892,0.907-3.324,2.577-4.253c0.289-0.16,0.42-0.176,0.419,0.234
		c-0.009,6.49-0.007,12.981-0.008,19.471c0,0.048-0.018,0.097-0.047,0.238c-3.602-4.001-7.158-7.952-10.801-11.999
		c0,0.289,0,0.456,0,0.624c0,3.439-0.007,6.878,0.01,10.317c0.002,0.387-0.077,0.513-0.483,0.492
		c-0.721-0.038-1.446-0.026-2.169-0.004c-0.306,0.009-0.384-0.089-0.381-0.385c0.014-1.393,0.006-2.787,0.006-4.18
		c0-4.727,0-9.453,0-14.18C70.683,144.689,70.683,144.517,70.683,144.194z"/>
	<path style="fill:#FEFEFE;" d="M129.15,157.378c0,2.266,0,4.378,0,6.546c-1.622-0.696-2.585-1.878-2.949-3.557
		c-0.075-0.345-0.094-0.696-0.094-1.05c0.005-4.796,0.009-9.593-0.007-14.389c-0.001-0.438,0.098-0.554,0.552-0.539
		c1.585,0.05,3.172,0.045,4.759,0.055c3.062,0.02,5.529,2.229,5.882,5.272c0.346,2.985-1.569,5.753-4.481,6.479
		c-0.153,0.038-0.306,0.08-0.518,0.135c1.902,2.389,3.785,4.753,5.747,7.217c-0.813,0-1.538-0.088-2.233,0.019
		c-1.274,0.196-2.059-0.328-2.789-1.34C131.84,160.59,130.509,159.064,129.15,157.378z"/>
	<path style="fill:#EA7D0B;" d="M65.344,118.652c-1.983,2.087-3.607,4.39-5.242,6.685c-0.215,0.301-0.198,0.454,0.055,0.738
		c1.103,1.236,1.78,2.739,2.513,4.201c0.388,0.774,0.369,0.766-0.479,0.828c-1.743,0.129-3.455,0.43-5.127,0.959
		c-0.694,0.22-1.1,0.613-1.18,1.369c-0.093,0.877-0.173,1.752-0.154,2.633c0.006,0.285-0.057,0.474-0.353,0.545
		c-0.119,0.029-0.229,0.089-0.346,0.129c-2.765,0.94-2.956,0.552-4.464-1.028c-1.254-1.314-2.361-2.756-3.485-4.181
		c-0.195-0.247-0.145-0.428-0.006-0.661c0.841-1.405,2.057-2.454,3.323-3.441c3.556-2.773,7.47-4.975,11.433-7.094
		c0.978-0.523,1.971-1.016,2.961-1.517C64.945,118.743,65.081,118.612,65.344,118.652z"/>
	<path style="fill:#FEFEFE;" d="M112.227,154.171c0,2.981-0.007,5.962,0.009,8.942c0.002,0.377-0.061,0.522-0.478,0.497
		c-0.685-0.041-1.377-0.037-2.063-0.001c-0.396,0.02-0.499-0.089-0.496-0.489c0.02-2.663-0.002-5.327,0.022-7.99
		c0.004-0.45-0.117-0.543-0.549-0.537c-1.905,0.026-3.81,0.029-5.715-0.002c-0.46-0.007-0.534,0.134-0.531,0.555
		c0.02,2.769,0.01,5.538,0.01,8.307c0,0.596-0.013,0.612-0.517,0.318c-1.604-0.933-2.487-2.321-2.494-4.19
		c-0.017-4.815,0-9.63-0.016-14.445c-0.002-0.439,0.081-0.556,0.541-0.515c0.7,0.062,1.41,0.031,2.115,0.01
		c0.344-0.01,0.435,0.104,0.432,0.447c-0.017,2.011,0.004,4.021-0.019,6.032c-0.005,0.401,0.099,0.491,0.491,0.486
		c1.905-0.022,3.81-0.021,5.715-0.001c0.402,0.004,0.541-0.083,0.535-0.516c-0.025-1.957,0.009-3.916-0.025-5.873
		c-0.008-0.488,0.141-0.588,0.587-0.561c0.633,0.039,1.271,0.038,1.904,0c0.425-0.026,0.557,0.071,0.553,0.53
		C112.215,148.174,112.227,151.173,112.227,154.171z"/>
	<path style="fill:#EA7D0B;" d="M163.024,107.497c-8.229,2.472-16.458,4.943-24.688,7.415c-0.135,0.04-0.269,0.082-0.404,0.123
		c-0.451-0.5-0.766-1.091-1.108-1.662c-1.247-2.081-2.32-4.254-3.357-6.445c-0.037-0.078-0.055-0.165-0.082-0.248
		c3.557,0.097,7.113,0.203,10.67,0.287c2.942,0.069,5.884,0.111,8.826,0.164c3.347,0.06,6.695,0.12,10.042,0.18
		C162.985,107.358,163.088,107.382,163.024,107.497z"/>
	<path style="fill:#FEFEFE;" d="M61.349,144.294c2.672,6.555,5.303,13.007,7.956,19.516c-1.09,0-2.108-0.006-3.125,0.004
		c-0.246,0.002-0.271-0.166-0.336-0.329c-0.427-1.077-0.867-2.149-1.282-3.231c-0.103-0.268-0.227-0.371-0.53-0.368
		c-1.799,0.017-3.598,0.017-5.396,0c-0.299-0.003-0.434,0.091-0.535,0.363c-0.177,0.477-0.382,0.945-0.603,1.404
		c-0.777,1.611-2.558,2.68-4.286,2.545C55.914,157.587,58.61,150.993,61.349,144.294z"/>
	<path style="fill:#FEFEFE;" d="M44.171,156.368c0,2.647,0,5.245,0,7.855c-1.682-0.488-3.005-2.339-3.012-4.269
		c-0.018-4.903-0.004-9.805-0.011-14.708c0-0.293,0.029-0.447,0.39-0.439c1.586,0.037,3.172,0.049,4.758,0.06
		c3.181,0.022,5.696,2.4,5.865,5.553c0.173,3.235-2.121,5.967-5.29,6.283C45.97,156.793,45.08,156.695,44.171,156.368z"/>
	<path style="fill:#FEFEFE;" d="M124.6,163.583c-0.155,0.007-0.256,0.015-0.358,0.015c-2.944,0.001-5.888-0.005-8.832,0.008
		c-0.331,0.001-0.441-0.065-0.44-0.424c0.012-6.046,0.012-12.092,0-18.138c-0.001-0.343,0.105-0.397,0.415-0.396
		c2.697,0.012,5.395,0.014,8.092-0.002c0.335-0.002,0.412,0.091,0.401,0.411c-0.025,0.739-0.027,1.481,0.001,2.22
		c0.013,0.342-0.107,0.404-0.42,0.401c-1.657-0.015-3.314,0.006-4.971-0.016c-0.392-0.005-0.513,0.094-0.501,0.496
		c0.03,1.021,0.028,2.045,0,3.066c-0.01,0.366,0.12,0.426,0.445,0.422c1.234-0.017,2.468,0.002,3.702-0.013
		c0.29-0.003,0.394,0.064,0.385,0.373c-0.023,0.757-0.021,1.516-0.001,2.273c0.008,0.305-0.092,0.387-0.388,0.383
		c-1.234-0.015-2.468,0.006-3.702-0.014c-0.352-0.006-0.442,0.107-0.439,0.447c0.016,1.692,0.015,3.384,0,5.076
		c-0.003,0.326,0.093,0.412,0.417,0.418c1.035,0.019,2.085-0.143,3.102,0.159C122.977,161.187,124.001,162.121,124.6,163.583z"/>
	<path style="fill:#FEFEFE;" d="M148.527,144.339c-0.71,1.79-2.448,2.981-4.333,3.016c-0.334,0.006-0.668,0.009-0.992,0.11
		c-0.953,0.296-1.609,1.189-1.536,2.091c0.081,0.999,0.895,1.827,1.976,1.956c0.617,0.074,1.211,0.213,1.784,0.446
		c2.646,1.078,4.073,3.794,3.532,6.714c-0.496,2.677-2.883,4.712-5.633,4.751c-2.048,0.029-3.645-0.78-4.625-2.648
		c-0.154-0.294-0.155-0.417,0.246-0.413c1.41,0.017,2.822,0.052,4.229-0.017c1.654-0.081,2.769-1.216,2.842-2.759
		c0.069-1.447-1.022-2.745-2.581-2.987c-1.566-0.243-2.899-0.872-3.829-2.186c-1.155-1.632-1.344-3.406-0.454-5.189
		c0.912-1.827,2.459-2.818,4.521-2.876C145.276,144.303,146.881,144.339,148.527,144.339z"/>
	<path style="fill:#FEFEFE;" d="M93.599,164.357c-1.853-0.876-2.924-2.255-2.962-4.224c-0.076-3.878-0.055-7.758-0.041-11.637
		c0.002-0.528-0.15-0.641-0.646-0.623c-1.092,0.039-2.187,0.007-3.281,0.016c-0.244,0.002-0.39-0.016-0.381-0.33
		c0.022-0.793,0.019-1.587,0.001-2.381c-0.006-0.267,0.091-0.315,0.333-0.315c3.634,0.007,7.268,0.009,10.901-0.003
		c0.322-0.001,0.374,0.119,0.368,0.398c-0.016,0.74-0.022,1.482,0.002,2.222c0.011,0.334-0.1,0.417-0.421,0.412
		c-1.111-0.018-2.223,0.014-3.333-0.018c-0.425-0.012-0.554,0.077-0.553,0.533c0.019,5.115,0.012,10.229,0.012,15.344
		C93.599,163.927,93.599,164.103,93.599,164.357z"/>
	<path style="fill:#EA7D0B;" d="M60.051,81.371c-2.33-3.293-4.659-6.587-6.991-9.878c-1.436-2.027-2.878-4.051-4.316-6.077
		c-0.089-0.125-0.167-0.258-0.266-0.413c0.202-0.053,0.283,0.083,0.38,0.161c6.876,5.54,13.751,11.082,20.624,16.626
		c0.121,0.098,0.222,0.22,0.332,0.331c-2.294-0.161-4.588-0.317-6.881-0.487C61.971,81.563,61.011,81.46,60.051,81.371z"/>
	<path style="fill:#EA7D0B;" d="M129.17,87.478c1.121-0.666,2.325-1.165,3.497-1.729c6.106-2.938,12.22-5.86,18.332-8.787
		c0.107-0.051,0.217-0.095,0.398-0.045c-4.703,4.491-9.406,8.982-14.109,13.474c-1.803-0.686-3.57-1.467-5.406-2.064
		C130.98,88.034,130.074,87.76,129.17,87.478z"/>
	<path style="fill:#EA7D0B;" d="M139.05,116.614c1.372,0.23,2.701,0.642,4.047,0.981c6.636,1.67,13.267,3.36,19.9,5.043
		c0.113,0.029,0.254,0.002,0.325,0.183c-6.018,0.554-12.019,1.158-18.053,1.314C143.003,121.789,140.952,119.263,139.05,116.614z"/>
	<path style="fill:#EA7D0B;" d="M41.854,125.81c-1.932-0.138-3.863-0.283-5.796-0.413c-2.899-0.196-5.799-0.382-8.698-0.575
		c-0.191-0.013-0.38-0.049-0.702-0.093c2.17-0.601,4.215-1.169,6.261-1.732c4.63-1.275,9.261-2.549,13.891-3.822
		c0.067-0.019,0.139-0.022,0.209-0.033c0.115-0.029,0.146,0.012,0.097,0.118c-0.557,0.441-1.106,0.891-1.568,1.435
		c-0.162,0.322-0.449,0.533-0.693,0.783C43.69,122.808,42.785,124.318,41.854,125.81z"/>
	<path style="fill:#FEFEFE;" d="M51.755,44.423c-0.9,0.759-1.689,1.435-2.491,2.093c-0.225,0.184-0.32,0.342-0.257,0.663
		c0.198,1.013,0.341,2.037,0.519,3.149c-0.969-0.461-1.86-0.868-2.734-1.31c-0.268-0.135-0.482-0.125-0.741-0.009
		c-0.959,0.432-1.925,0.849-2.948,1.297c-0.004-0.524,0.186-0.953,0.285-1.398c0.134-0.599,0.492-1.244,0.368-1.779
		c-0.126-0.542-0.831-0.861-1.274-1.286c-0.378-0.363-0.77-0.711-1.221-1.126c1.119-0.239,2.155-0.473,3.197-0.674
		c0.258-0.05,0.386-0.154,0.494-0.388c0.472-1.016,0.968-2.022,1.479-3.081c0.537,1.027,1.052,1.987,1.539,2.961
		c0.155,0.309,0.32,0.471,0.698,0.504C49.666,44.127,50.656,44.282,51.755,44.423z"/>
	<path style="fill:#EA7C0B;" d="M140.097,101.404c-0.672,0.573-1.447,0.995-2.181,1.475c-1.606,1.05-3.221,2.085-4.832,3.126
		c-0.971-2.171-1.765-4.405-2.431-6.686c-0.111-0.379,0.065-0.386,0.356-0.384c2.635,0.015,5.108,0.725,7.511,1.733
		C139.054,100.892,139.571,101.158,140.097,101.404z"/>
	<path style="fill:#EA7D0B;" d="M143.134,93.464c2.361-0.393,4.721-0.791,7.083-1.179c2.588-0.425,5.177-0.842,7.766-1.259
		c0.133-0.021,0.269-0.019,0.433,0.044c-1.043,0.608-2.086,1.215-3.128,1.825c-1.945,1.138-3.889,2.277-5.834,3.415
		c-1.161-0.301-2.215-0.865-3.303-1.345C145.122,94.511,144.101,94.041,143.134,93.464z"/>
	<path style="fill:#EA7D0B;" d="M43.729,137.216c-1.842,0.776-3.793,1.17-5.732,1.589c-2.147,0.463-4.309,0.857-6.466,1.276
		c-0.142,0.028-0.295,0.083-0.513-0.036c3.524-2.032,7.005-4.04,10.486-6.047C42.192,135.108,42.969,136.156,43.729,137.216z"/>
	<path style="fill:#EA7C0B;" d="M149.93,134.801c1.21,0.528,2.341,1.207,3.507,1.82c1.93,1.014,3.851,2.047,5.776,3.073
		c0.026,0.099-0.002,0.148-0.112,0.116c-2.356-0.413-4.713-0.827-7.069-1.24c-0.78-0.137-1.56-0.272-2.34-0.407
		C149.678,137.035,149.855,135.921,149.93,134.801z"/>
	<path style="fill:#EA7C0B;" d="M43.101,81.199c-1.327-1.373-2.655-2.746-3.989-4.127c0.154-0.068,0.263-0.008,0.375,0.045
		c1.827,0.862,3.655,1.722,5.482,2.585c0.029,0.014,0.047,0.049,0.07,0.075C44.393,80.251,43.747,80.725,43.101,81.199z"/>
	<path style="fill:#0E5B60;" d="M121.254,85.487c0.364,0.06,0.763,0.005,1.052,0.315c-0.405-0.074-0.818-0.111-1.197-0.292
		C121.15,85.455,121.198,85.447,121.254,85.487z"/>
	<path style="fill:#195E5E;" d="M44.855,121.478c0.183-0.303,0.422-0.557,0.693-0.782C45.454,121.078,45.198,121.316,44.855,121.478
		z"/>
	<path style="fill:#126266;" d="M122.591,85.826c0.355-0.068,0.671,0.065,0.989,0.188c-0.039,0.061-0.086,0.068-0.142,0.022
		C123.141,86.028,122.854,85.975,122.591,85.826z"/>
	<path style="fill:#9E762E;" d="M47.116,119.261c-0.032-0.039-0.065-0.079-0.097-0.118c0.113-0.125,0.26-0.105,0.405-0.092
		C47.349,119.162,47.247,119.231,47.116,119.261z"/>
	<path style="fill:#0A6169;" d="M123.439,86.035c0.047-0.007,0.095-0.014,0.142-0.022c0.143,0.027,0.329-0.047,0.396,0.165
		C123.803,86.108,123.59,86.186,123.439,86.035z"/>
	<path style="fill:#136466;" d="M121.254,85.487c-0.048,0.008-0.096,0.015-0.145,0.023c-0.165-0.004-0.33-0.009-0.465-0.126
		C120.856,85.368,121.065,85.368,121.254,85.487z"/>
	<path style="fill:#EA7C0B;" d="M55.279,175.682c-0.012,1.578-1.306,2.886-2.848,2.882c-1.538-0.004-2.841-1.337-2.836-2.9
		c0.006-1.565,1.31-2.878,2.854-2.874C54.001,172.793,55.291,174.112,55.279,175.682z"/>
	<path style="fill:#E4790B;" d="M84.076,176.812c0.27-0.692,0.516-1.321,0.811-2.076c0.268,0.69,0.497,1.279,0.726,1.867
		c0.07,0.18-0.03,0.21-0.176,0.21C85.005,176.811,84.573,176.812,84.076,176.812z"/>
	<path style="fill:#A5772B;" d="M110.439,49.532c-0.068-0.172,0.064-0.384-0.107-0.535c-0.001-0.138,0.055-0.248,0.2-0.41
		C110.527,48.955,110.58,49.25,110.439,49.532z"/>
	<path style="fill:#3B6F5E;" d="M108.312,80.103c-0.041,0.052-0.076,0.139-0.124,0.147c-0.1,0.016-0.087-0.082-0.078-0.143
		c0.018-0.117,0.049-0.231,0.075-0.347C108.232,79.873,108.181,80.021,108.312,80.103z"/>
	<path style="fill:#587250;" d="M95.165,46.9c-0.056,0.033-0.111,0.066-0.167,0.099c-0.011-0.107-0.073-0.253,0.086-0.28
		C95.194,46.701,95.173,46.822,95.165,46.9z"/>
	<path style="fill:#A1772D;" d="M163.024,107.497c-0.034-0.062-0.067-0.124-0.101-0.186c0.149,0,0.297,0,0.473,0
		C163.29,107.467,163.164,107.498,163.024,107.497z"/>
	<path style="fill:#907635;" d="M159.1,139.809c0.037-0.039,0.075-0.077,0.112-0.116c0.103,0.019,0.196,0.055,0.256,0.157
		C159.331,139.935,159.212,139.909,159.1,139.809z"/>
	<path d="M129.162,149.996c0-0.739,0.011-1.479-0.006-2.218c-0.006-0.261,0.078-0.33,0.329-0.321
		c0.721,0.026,1.444-0.002,2.163,0.049c1.247,0.088,2.313,1.056,2.576,2.288c0.265,1.24-0.299,2.49-1.418,3.145
		c-1.079,0.632-2.536,0.488-3.449-0.323c-0.167-0.149-0.199-0.307-0.197-0.508C129.166,151.404,129.162,150.7,129.162,149.996z"/>
	<path style="fill:#010101;" d="M61.349,152.003c0.611,1.58,1.182,3.064,1.762,4.544c0.092,0.234,0.098,0.341-0.21,0.337
		c-1.039-0.014-2.079-0.005-3.119-0.006c-0.163,0-0.356,0.011-0.256-0.244C60.119,155.118,60.719,153.604,61.349,152.003z"/>
	<path d="M44.17,150.348c0-0.704,0.011-1.408-0.006-2.112c-0.006-0.267,0.058-0.371,0.345-0.358
		c0.685,0.031,1.373,0.001,2.056,0.051c1.2,0.086,2.209,0.992,2.48,2.174c0.288,1.255-0.208,2.473-1.282,3.146
		c-1.036,0.649-2.417,0.56-3.35-0.198c-0.184-0.15-0.251-0.307-0.247-0.539C44.178,151.791,44.17,151.069,44.17,150.348z"/>
</g>
</svg>
