<?xml version="1.0" encoding="utf-8"?>
<!-- Generator: Adobe Illustrator 24.1.0, SVG Export Plug-In . SVG Version: 6.00 Build 0)  -->
<svg version="1.1" id="Layer_1" xmlns="http://www.w3.org/2000/svg" xmlns:xlink="http://www.w3.org/1999/xlink" x="0px" y="0px"
	 viewBox="0 0 200 200" style="enable-background:new 0 0 200 200;" xml:space="preserve">
<g>
	<path style="fill:#EA7C0B;" d="M38.6,181.5c-2-1.7-3.8-3.6-5.5-5.5c-6.3-7.2-11.8-14.9-16.7-23.1c-2.1-3.6-3.4-7.4-4.5-11.4
		c-1.4-4.8-2.3-9.7-3-14.7c0-0.1,0-0.3-0.1-0.4c-0.6-0.5-1.1-1.2-1.8-1.6c-1.8-1.1-3.2-2.7-4.5-4.4c-0.8-1.1-1.6-2.2-2.1-3.5
		c-0.3-0.7-0.3-1.3-0.1-2c0.5-1.8,0.7-3.7,0.9-5.5c0.2-1.9,0.3-3.9,0.5-5.8c0.3-2.8,1.6-5.1,3.5-7.1c0.3-0.3,0.3-0.5,0.2-0.8
		c-0.9-3.4,0.3-6.3,3.5-7.9c0.2-0.1,0.3-0.3,0.4-0.5c0.6-2.2,2.2-3.5,4.4-4c0.4-0.1,0.6-0.2,0.7-0.6c2.8-7.3,6.7-14,11.3-20.3
		c2.1-2.9,4.3-5.7,6.8-8.2c0.6-0.7,0.9-1.5,1.1-2.4c0.1-0.3-0.1-0.5-0.3-0.6c-2.5-2.4-4.9-4.8-7.4-7.2c-1.7-1.6-3.4-3.2-5-4.8
		c-0.1-0.1-0.2-0.2-0.2-0.4c1.2-0.2,2.3-0.4,3.5-0.6c4.6-0.8,9.3-1.5,13.9-2.2c0.4-0.1,0.6-0.3,0.8-0.7c2.4-5.2,4.8-10.3,7.3-15.5
		c0.1-0.2,0.2-0.3,0.2-0.5c0.2,0.2,0.3,0.4,0.3,0.6c2.6,5.3,5.2,10.5,7.8,15.8c0.2,0.3,0.4,0.4,0.7,0.5c1.3,0.3,2.4,0,3.6-0.7
		c5-2.7,10.4-4.5,16-5.8c5.4-1.2,10.9-1.9,16.4-2.1c11-0.3,21.7,1,32.2,4.5c8.2,2.8,15.7,6.9,22.7,12c4.2,3.1,8.3,6.5,11.9,10.3
		c5.3,5.4,9.6,11.4,13.3,18c3,5.5,5.6,11.1,7.3,17.2c0,0.1,0.1,0.2,0.1,0.4c0.4-0.4,0.7-0.8,1-1.2c2.6-3.1,5.9-4.5,9.8-4.6
		c3.3-0.1,5.8,1.5,7.8,3.9c1.3,1.5,2.1,3.2,2.4,5.1c0,0.1,0,0.2,0.1,0.3c0,1.1,0,2.1,0,3.2c-0.5,3.5-2.7,6-5.3,8.1
		c-2.9,2.3-6.2,3.9-9.7,5.2c-0.6,0.2-1.2,0.5-1.8,0.6c-0.5,0.1-0.6,0.4-0.6,0.9c0,1.1,0.1,2.2,0.1,3.3c0.1,3.9-0.3,7.8-1,11.7
		c-0.7,4.2-1.7,8.3-2.6,12.4c-0.6,2.5-1.1,4.9-2,7.3c-1.1,3.2-2.5,6.3-4.1,9.3c-3.2,6-7.2,11.4-11.6,16.6c-2.7,3.2-5.6,6.1-8.5,9
		c-0.4,0.3-0.7,0.8-1.3,0.8c-37.4,0-74.8,0-112.2,0C39,181.5,38.8,181.6,38.6,181.5z"/>
	<path style="fill:#EF9C47;" d="M151.6,181.5C151.6,181.5,151.6,181.6,151.6,181.5c-37.7,0.1-75.4,0.1-113.1,0.1c0,0,0-0.1,0-0.1
		c0.1,0,0.2,0,0.4,0c37.4,0,74.8,0,112.3,0C151.3,181.5,151.5,181.5,151.6,181.5z"/>
	<path d="M14.5,89.1c1.3,0,2.5,0.2,3.7,0.6c0.4,0.1,0.5,0,0.6-0.3c3.2-9.6,8-18.3,14.3-26.1c1.6-2,3.4-4,5.3-5.8
		c0.1-0.1,0.2-0.2,0.3-0.4c0.4-2.4,0.7-4.8,1.1-7.3c0-0.3,0-0.5-0.3-0.7c-1.9-1.9-3.8-3.8-5.7-5.7c-0.1-0.1-0.3-0.2-0.5-0.3
		c0-0.1,0.1-0.1,0.1-0.2c1.1-0.2,2.1-0.3,3.2-0.5c1.8-0.3,3.6-0.5,5.4-0.8c0.4,0,0.6-0.2,0.7-0.5c1.1-2.3,2.2-4.7,3.3-7
		c0.1-0.2,0.2-0.3,0.3-0.6c0.3,0.6,0.6,1.2,0.9,1.7c1.1,2,2.1,4,3.1,6c0.2,0.3,0.4,0.4,0.7,0.5c2.5,0.4,5,0.7,7.5,1.1
		c0.2,0,0.4-0.1,0.7-0.2c7.2-3.5,14.8-5.8,22.7-7.1c5-0.8,10.1-1.1,15.2-0.9c5,0.2,10,0.5,14.9,1.4c5.7,1.1,11.2,2.9,16.4,5.4
		c7.2,3.4,13.8,7.7,19.9,12.9c4.6,3.9,8.4,8.5,11.8,13.5c5.6,8.1,9.7,17,13,26.3c0.5,1.3,0.9,2.6,1.3,4c0.1,0.4,0.2,0.4,0.6,0.4
		c2.6-0.4,4.9-1.6,7.1-3c1.8-1.1,3.6-2.4,5.3-3.6c1.1-0.7,2.1-1,3.3-0.4c1.3,0.6,2.4,1.4,2.8,2.8c0.4,1.5-0.3,2.6-1.2,3.7
		c-0.2,0.3-0.5,0.6-0.8,0.8c-2.6,1.9-5.1,4.1-8.3,5.1c-1.7,0.6-3.5,1.1-5.2,1.6c-0.7,0.2-1.5,0.4-2.2,0.6c-0.3,0.1-0.4,0.1-0.3,0.4
		c0.7,5,0.5,10,0,15c-0.4,4.7-1.1,9.3-2.1,13.9c-1.1,5.3-3.2,10.2-5.6,15c-3.6,6.9-7.9,13.3-13,19.3c-0.3,0.4-0.6,0.5-1.2,0.5
		c-38.7,0-77.3,0-116,0c-0.5,0-0.9-0.1-1.3-0.6c-3.8-4.4-7.4-8.9-10.5-13.9c-2.3-3.8-4.1-7.9-5.8-12c-1.2-2.8-2.4-5.7-3.1-8.7
		c-1.1-4.3-1.6-8.7-1.3-13.2c0-0.2,0-0.4-0.3-0.4c-2,0.2-3.6-0.8-5.1-2c-1.4-1.1-2.7-2.4-4-3.7c-0.1-0.1-0.3-0.2-0.1-0.4
		c0.8-1.3,1-2.7,1.2-4.2c0.3-2.2,0.4-4.4,0.5-6.6c0-0.8,0.3-1.4,0.8-2c0.7-0.8,1.5-1.6,2.3-2.3c0.3-0.3,0.5-0.7,0.5-1.1
		c0.2-1.4,0-2.8,0-4.3c-0.1-1.3-0.3-1.3,1.1-0.8c0.9,0.3,1.7,0.8,2.5,1.3c0.3,0.2,0.5,0.1,0.5-0.2c0.3-1.1,0.1-2.2-0.2-3.3
		C15.2,90.8,14.9,90,14.5,89.1z"/>
	<path d="M56.6,175.7c0,2.4-1.8,4.2-4.2,4.2c-2.3,0-4.1-1.9-4.1-4.3c0-2.3,1.9-4.1,4.2-4.1C54.8,171.5,56.6,173.3,56.6,175.7z"/>
	<path d="M93.4,171.5c1.6,1.8,3.1,3.4,4.7,5.2c0-0.7,0-1.2,0-1.8c0-0.6,0-1.1,0-1.7c0-0.8,0.5-1.5,1.3-1.7c0,2.8,0,5.7,0,8.6
		c-1.6-1.7-3-3.4-4.5-5c-0.2,0.1-0.1,0.3-0.1,0.4c0,1.3,0,2.6,0,4c0,0.3-0.1,0.5-0.4,0.4c-0.9,0-0.9,0-0.9-0.9c0-2.3,0-4.5,0-6.8
		C93.4,171.9,93.4,171.8,93.4,171.5z"/>
	<path d="M110.7,173.1c-1.7-0.5-2.9-0.1-3.7,1.1c-0.6,0.9-0.6,1.9-0.1,2.9c0.5,1,1.4,1.4,2.5,1.5c0.6,0,1.1-0.5,1.2-1.1
		c0.1-0.6-0.2-1.2-0.9-1.4c-0.5-0.2-1-0.4-1.3-0.9c-0.1-0.1-0.3-0.3-0.2-0.4c0.1-0.1,0.3-0.1,0.4-0.1c0.3,0,0.6,0,0.8,0
		c1.3-0.1,2.4,1.1,2.4,2.3c0.1,1.5-0.8,2.7-2.2,2.8c-1.7,0.1-3.1-0.5-3.9-2c-0.9-1.6-0.8-3.1,0.2-4.6c1-1.4,2.4-1.9,4.1-1.7
		c0.4,0.1,0.6,0.2,0.5,0.6C110.7,172.5,110.7,172.8,110.7,173.1z"/>
	<path d="M88.3,179.8c-1.4,0.1-1.4,0.1-1.9-1.1c-0.2-0.4-0.4-0.6-0.8-0.6c-0.5,0-1.1,0-1.6,0c-0.3,0-0.5,0.1-0.6,0.4
		c-0.3,0.8-0.8,1.3-1.7,1.5c-0.3,0-0.4,0-0.2-0.3c1.1-2.7,2.2-5.5,3.4-8.3C86,174.2,87.2,177,88.3,179.8z"/>
	<path d="M121.8,179.8c-1.3,0-2.6,0-3.8,0c-0.3,0-0.3-0.1-0.3-0.3c0-2.5,0-5,0-7.5c0-0.2,0-0.3,0.3-0.3c1.1,0,2.1,0,3.2,0
		c0.3,0,0.3,0.1,0.3,0.3c0,0.9,0,0.9-0.9,0.9c-0.2,0-0.4,0-0.5,0c-0.4,0-0.9-0.2-1.1,0.1c-0.2,0.4-0.1,0.9-0.1,1.4
		c0,0.2,0.2,0.2,0.3,0.2c0.4,0,0.8,0,1.3,0c0.3,0,0.4,0.1,0.4,0.4c0,1.1,0.1,0.9-0.9,0.9c-1.1,0-1.1,0-1.1,1.1c0,0,0,0,0,0.1
		c0,0.4-0.1,1,0.1,1.3c0.2,0.4,0.8,0.1,1.2,0.2C120.9,178.6,121.4,179,121.8,179.8z"/>
	<path d="M141.3,179.8c-1.3,0-2.6,0-3.8,0c-0.2,0-0.3-0.1-0.3-0.3c0-2.5,0-5,0-7.5c0-0.3,0.1-0.3,0.3-0.3c1,0,2.1,0,3.1,0
		c0.3,0,0.4,0.1,0.4,0.4c0,0.9,0,0.9-0.9,0.9c-0.4,0-0.9-0.1-1.3,0c-0.7,0.1-0.2,0.7-0.3,1.1c-0.1,0.2-0.2,0.6,0.3,0.6
		c0.4,0,0.8,0,1.2,0c0.3,0,0.4,0.1,0.4,0.4c0,1.1,0.1,0.9-0.8,0.9c-1.1,0-1.1,0-1.1,1.2c0,0.4-0.1,1,0.1,1.3
		c0.2,0.4,0.8,0.1,1.2,0.2C140.4,178.6,140.9,179,141.3,179.8z"/>
	<path d="M66.5,171.5c-0.4,0.8-1,1.2-1.8,1.3c-0.1,0-0.2,0-0.4,0c-0.5,0.1-0.8,0.5-0.8,0.9c0,0.4,0.3,0.8,0.8,0.9
		c1.2,0.2,2,0.8,2.3,2c0.5,1.8-1.1,3.5-2.9,3.2c-0.6-0.1-1.1-0.4-1.4-1c-0.1-0.2-0.1-0.3,0.2-0.3c0.5,0,0.9,0,1.4,0
		c0.9,0,1.4-0.4,1.5-1.2c0.1-0.7-0.4-1.2-1.2-1.4c-1.3-0.3-2-1.3-1.9-2.6c0.1-1.1,1.1-1.9,2.3-1.9C65.2,171.5,65.8,171.5,66.5,171.5
		z"/>
	<path d="M151.1,171.5c-0.4,0.8-0.9,1.2-1.7,1.3c-0.2,0-0.4,0-0.6,0.1c-0.4,0.1-0.7,0.4-0.6,0.9c0,0.4,0.3,0.7,0.7,0.8
		c0.3,0.1,0.5,0.1,0.8,0.2c1.3,0.4,2,1.8,1.6,3.1c-0.4,1.3-1.6,2.1-2.9,1.9c-0.5-0.1-1-0.4-1.3-0.9c-0.1-0.1-0.2-0.2-0.1-0.3
		c0.1-0.1,0.2-0.1,0.3-0.1c0.4,0,0.9,0,1.3,0c0.9,0,1.4-0.5,1.5-1.2c0-0.6-0.4-1.2-1.2-1.3c-1.3-0.3-2-1.3-1.9-2.6
		c0.1-1.1,1.1-1.9,2.4-1.9C149.8,171.5,150.4,171.5,151.1,171.5z"/>
	<path d="M40.6,171.3c0,0.2,0,0.4,0,0.6c0,2.1,0,4.1,0,6.2c0,0.3,0.1,0.5,0.4,0.4c0.6,0,1.2,0,1.7,0c0.3,0,0.4,0.1,0.4,0.4
		c0,0.9,0,0.9-0.8,0.9c-0.9,0-1.8,0-2.7,0c-0.3,0-0.4-0.1-0.4-0.4c0-2.1,0-4.3,0-6.4C39.3,172.2,39.8,171.7,40.6,171.3z"/>
	<path d="M129,171.3c0,2.3,0,4.5,0,6.7c0,0.4,0.1,0.5,0.5,0.5c0.6,0,1.1,0,1.7,0c0.3,0,0.4,0.1,0.4,0.4c0,0.9,0,0.9-0.9,0.9
		c-0.9,0-1.8,0-2.6,0c-0.3,0-0.4-0.1-0.4-0.4c0-2.1,0-4.2,0-6.3C127.7,172.3,128.1,171.7,129,171.3z"/>
	<path style="fill:#006A79;" d="M129.2,87.5c-1.1-0.3-2.1-0.6-3.2-0.8c-0.1-0.3,0.1-0.5,0.3-0.7c3.5-5.9,7.1-11.8,10.7-17.7
		c0.8-1.3,1.5-2.6,2.3-3.7c-2.4,2.1-5,4.2-7.6,6.4c-2.4,2.1-4.9,4.1-7.3,6.2c-1.8,1.6-3.7,3.1-5.5,4.7c-0.2,0.1-0.4,0.4-0.6,0.3
		c-0.2-0.2,0-0.4,0-0.6c2.2-6.5,4.4-13,6.6-19.5c0.6-1.9,1.3-3.8,1.9-5.8c-3.2,4.3-6.4,8.5-9.6,12.7c-2.2,2.9-4.4,5.8-6.6,8.6
		c-0.6,0.8-1.2,1.6-1.8,2.4c-0.1,0.2-0.2,0.4-0.5,0.4c-0.1-0.1-0.1-0.3-0.2-0.4c0-1.3,0.2-2.6,0.3-3.8c0.1-1.6,0.3-3.2,0.4-4.8
		c0.1-1.6,0.2-3.2,0.4-4.8c0.1-1.7,0.3-3.3,0.4-5c0.1-1.6,0.2-3.2,0.4-4.7c0.1-1.7,0.3-3.3,0.4-5c0-0.6,0.1-1.2,0.1-1.8
		c0.1-0.2,0.1-0.4,0.1-0.7c0-0.1,0-0.1,0-0.2c0,0.1,0,0.1,0,0.2c-0.8,2.2-1.7,4.3-2.5,6.4c-2.5,6.4-5.1,12.8-7.6,19.2
		c-0.1,0.1-0.1,0.3-0.2,0.4c-0.1,0.2-0.1,0.5-0.4,0.4c-0.2,0-0.2-0.3-0.3-0.5c-1-6.2-2-12.4-3-18.5c-0.5-3-1-6.1-1.4-9.1
		c0-0.1,0-0.1,0-0.2c0,0,0,0,0,0s0,0,0,0c-0.1,1.4-0.4,2.8-0.6,4.1c-1,6.8-2.1,13.7-3.2,20.5c-0.3,1.9-0.6,3.8-0.9,5.7
		c0,0.2,0,0.6-0.2,0.6c-0.3,0.1-0.4-0.3-0.5-0.6c-2.1-4.7-4.2-9.5-6.2-14.2c-1.8-4.2-3.7-8.4-5.6-12.6c-0.1-0.1-0.1-0.3-0.1-0.3
		c0.2,2.4,0.5,4.8,0.7,7.2c0.2,2.2,0.5,4.5,0.7,6.7c0.2,2.3,0.5,4.5,0.7,6.8c0.2,1.9,0.4,3.9,0.6,5.8c0,0.3,0.2,0.7-0.1,0.8
		c-0.3,0.1-0.4-0.3-0.6-0.5c-5-6.6-10-13.2-15-19.8c-0.5-0.7-1.1-1.4-1.6-2.1c1.9,5.4,3.9,10.8,5.8,16.2c1.2,3.4,2.4,6.7,3.6,10.1
		c0.1,0.2,0.1,0.4,0,0.6c-0.9,0-1.8,0-2.8-0.2c-1.1-0.7-2-1.5-3-2.3c-3-2.4-6-4.8-9-7.2c-2.8-2.3-5.7-4.6-8.5-6.9
		c-0.2-0.1-0.3-0.3-0.5-0.4c1.7,2.4,3.4,4.8,5.1,7.2c1.9,2.7,3.8,5.3,5.7,8c0.2,0.3,0.5,0.5,0.5,0.9c-1.7-0.1-3.3-0.3-5-0.5
		c-2.2-0.3-4.5-0.7-6.7-1.4c-0.5-0.2-1-0.3-1.5-0.6c-0.3-0.2-0.5-0.1-0.8,0.1c-0.3,0.3-0.7,0.5-1.1,0.8c-0.6-0.1-1.2-0.5-1.7-0.7
		c-1.3-0.6-2.5-1.2-3.9-1.8c1.3,1.1,2.2,2.4,3.4,3.4c0.2,0.2,0.4,0.3,0.4,0.5c-4.6,3.3-9.3,6.7-14.5,9.1c0.2-1,0.6-1.9,1-2.8
		c2.8-6.5,6.5-12.4,11-17.7c4.4-5.2,9.4-9.7,15-13.4C62,52,69,49,76.5,47c3.9-1.1,7.9-1.8,11.9-2.3c1.9-0.2,3.8-0.4,5.7-0.5
		c2.4-0.1,4.8-0.2,7.2-0.2c7.5,0.2,14.7,1.6,21.6,4.6c6.1,2.6,11.6,6.2,16.6,10.6c6.2,5.6,11.3,12.1,15.6,19.3
		c3.7,6.3,6.7,12.8,8.9,19.7c0.2,0.6,0.2,0.6-0.4,0.6c-4.2-0.1-8.4-0.8-12.4-2.1c-0.6-0.2-1.1-0.3-1.6-0.6c0.1-0.3,0.4-0.4,0.6-0.5
		c2.7-1.6,5.3-3.1,8-4.6c-1.4,0.2-2.8,0.5-4.2,0.7c-3.2,0.5-6.4,1-9.7,1.6c-0.3,0.1-0.7,0.1-1,0c-1.9-1.1-3.9-2.1-5.8-3.1
		c0-0.1,0-0.2,0.1-0.2c1.6-1.5,3.2-3.1,4.8-4.6c0.9-0.8,1.7-1.6,2.5-2.4c1.3-1.2,2.5-2.4,3.8-3.6c0.9-0.8,1.7-1.7,2.5-2.4
		c-2,0.9-4,1.9-6,2.9c-1,0.5-2.1,1-3.1,1.5c-3.1,1.5-6.2,3-9.3,4.5C131.5,86.5,130.4,87.1,129.2,87.5z"/>
	<path style="fill:#EA7C0B;" d="M108.3,80.1c3-4,6.1-8,9.1-12c3.1-4,6.1-8.1,9.2-12.1c0.1-0.1,0.2-0.2,0.3-0.2
		c-3,8.7-5.9,17.5-8.9,26.2c0,0,0.1,0,0.1,0.1c7.1-6,14.2-11.9,21.2-17.9c0,0,0,0,0.1,0c-4.5,7.5-9,14.9-13.5,22.4
		c-0.7-0.2-1.3-0.4-2-0.5c-0.1-0.2-0.3,0-0.4-0.1c-0.3-0.1-0.6-0.2-0.9-0.2c-0.1,0-0.2,0-0.3,0c-0.3-0.2-0.7-0.2-1.1-0.3
		c-0.2-0.1-0.4,0-0.6-0.1c-1.6-0.4-3.1-0.6-4.7-0.8c-3.9-0.5-7.7-0.8-11.6-0.9c-3.3-0.1-6.6-0.3-9.9-0.4c-3.4-0.1-6.8-0.3-10.2-0.4
		c-3.9-0.2-7.7-0.3-11.6-0.5c-2-5.5-3.9-11-5.9-16.5c-1.2-3.4-2.4-6.8-3.7-10.2c-0.1-0.2-0.1-0.3-0.2-0.5c0,0,0,0,0,0c0,0,0,0,0,0
		c0,0,0.1,0,0.1,0c0.1,0,0.1,0.1,0.1,0.2c5.7,7.5,11.4,15,17.2,22.5c-0.9-9.3-1.9-18.5-2.8-27.8c0,0,0.1,0,0.1,0
		c4.1,9.4,8.3,18.8,12.4,28.2c0,0,0.1,0,0.1,0c0.3-1.7,0.5-3.3,0.8-5c0.6-4,1.2-8,1.9-12c0.7-4.2,1.3-8.4,1.9-12.6
		c0.1-0.5,0.2-1.1,0.2-1.6c0-0.1,0-0.2,0.2-0.1c0.4,2.4,0.7,4.8,1.1,7.2c0.7,4.3,1.4,8.6,2.1,12.9c0.4,2.7,0.9,5.5,1.3,8.2
		c0,0.1,0,0.2,0.1,0.4c0.5-1.2,0.9-2.3,1.3-3.4c3-7.7,6.1-15.4,9.1-23.1c0,0,0-0.1,0.1-0.1c0.3,0.1,0.1,0.3,0.1,0.5
		c-0.2,2.7-0.4,5.4-0.6,8.1c-0.2,2.5-0.4,5.1-0.6,7.6c-0.3,3.6-0.5,7.1-0.8,10.7c-0.1,1.3-0.2,2.5-0.3,3.8
		C108.2,79.9,108,80.1,108.3,80.1z"/>
	<path style="fill:#006B79;" d="M139.1,116.6c-0.4-0.5-0.8-1-1.1-1.6c0.1-0.2,0.4-0.3,0.6-0.3c7.9-2.4,15.9-4.8,23.8-7.1
		c0.2-0.1,0.4-0.1,0.6-0.1c0.1,0,0.2,0,0.2,0c-0.2,0-0.3,0-0.5,0.1c-1.1,0-2.1,0.1-3.2-0.1c-0.2,0-0.4,0-0.6,0
		c-3.4,0.1-6.8-0.1-10.2-0.1c-1.8,0-3.5,0-5.3-0.1c-2.7-0.1-5.4-0.2-8.1-0.2c-0.6,0-1.3,0-1.9-0.2c-0.2-0.2-0.2-0.4-0.3-0.7
		c0.1-0.2,0.2-0.3,0.4-0.4c2.1-1.4,4.2-2.7,6.3-4.1c0.1-0.1,0.2-0.1,0.3-0.1c3.6,1.6,7.3,3.1,11.2,4c2.4,0.5,4.7,0.9,7.1,1
		c1.6,0.1,3.2,0.2,4.7,0.2c0.6,0,1.2,0,1.7-0.1c0.3,0,0.5,0,0.5,0.4c0.2,1.5,0.4,3,0.5,4.6c0.2,2.5,0.3,5,0.2,7.5
		c-0.2,7-1.3,13.7-4,20.2c-0.7,1.7-1.5,3.3-2.5,4.8c-0.2,0.3-0.3,0.4-0.7,0.2c-1.7-1.1-3.6-1.7-5.4-2.4c-1.1-0.4-2.3-0.9-3.5-1.3
		c-0.3-0.1-0.4-0.2-0.4-0.6c0-0.6-0.1-1.2,0.1-1.8c0.1-0.1,0.3-0.1,0.5-0.1c2.9,0.5,5.9,1,8.8,1.6c0.1,0,0.1,0,0.2,0.1
		c0,0,0.1,0,0.1,0.1c0,0-0.1,0-0.1-0.1c-0.8-0.3-1.6-0.8-2.4-1.2c-2.1-1.1-4.2-2.3-6.3-3.4c-0.2-0.1-0.4-0.2-0.5-0.4
		c0.2-1.3,0.4-2.7,1.2-3.8c0.4-0.6,0.5-1.3,0.5-2c0-0.2-0.1-0.4-0.3-0.5c-2.3-1-4.2-2.5-6-4.3c0.1-0.1,0.3-0.2,0.4-0.2
		c0.9,0,1.8-0.1,2.6-0.1c1.9-0.1,3.9-0.2,5.8-0.4c1.8-0.1,3.7-0.3,5.5-0.5c0.9-0.1,1.8-0.2,2.7-0.3c0.3,0,0.5-0.1,0.7,0
		c-0.8-0.1-1.6-0.4-2.4-0.6c-5.6-1.4-11.2-2.8-16.8-4.2c-1.4-0.3-2.7-0.7-4.1-1C139.5,116.8,139.3,116.8,139.1,116.6z"/>
	<path style="fill:#EA7C0B;" d="M97.7,99c-0.3,1.4-0.6,2.7-0.8,4.1c-0.4,2.4-0.6,4.9-0.7,7.3c-0.2,6.1,0.4,12.1,1.8,18
		c0.3,1,0.2,1-0.8,1c-3.7,0-7.3,0-11,0c-1.9,0-2.9,0.9-3,2.8c0,0.4-0.1,0.6-0.6,0.6c-2.9,0.1-5.7,0.3-8.5,0.6
		c-1.3,0.1-2.7,0.3-4,0.5c-0.4,0.1-0.6,0-0.6-0.5c0-4.9,0.3-9.7,1.8-14.4c0.3-0.8,0.6-1.6,0.9-2.3c0.1-0.3,0.3-0.4,0.6-0.5
		c2.9-1,5.9-1.6,8.9-2c2.9-0.4,5.8-0.7,8.7-0.8c0.5,0,0.5-0.3,0.6-0.6c0.8-3.2,1.8-6.4,3.3-9.5c0.6-1.4,1.4-2.7,2.4-3.7
		C97,99.4,97.3,99.2,97.7,99z"/>
	<path style="fill:#EA7C0B;" d="M142.6,134.8c-2.2-0.5-4.2-1-6.2-1.8c-0.4-0.1-0.8-0.2-1.2-0.3c-1.3-0.2-2.3,0.5-2.6,1.8
		c-0.1,0.3-0.1,0.7-0.1,1c0,0.2-0.1,0.3-0.3,0.2c-3.3-0.8-6.6-1.3-9.9-1.8c-2.8-0.4-5.7-0.7-8.6-0.9c-3.4-0.3-6.9-0.4-10.4-0.5
		c0-0.4,0.2-0.7,0.4-1.1c2.8-6.7,6.5-13,11.3-18.5c2.3-2.7,4.9-5.1,7.9-7.1c0.2-0.1,0.4-0.3,0.8-0.4c-0.2,0.3-0.3,0.6-0.4,0.9
		c-1.7,3.5-3.4,7-5.1,10.6c-0.2,0.5-0.2,0.6,0.3,0.8c6.1,2.5,11.8,5.6,17,9.7c2.5,2,4.8,4.1,6.6,6.8
		C142.3,134.4,142.5,134.5,142.6,134.8z"/>
	<path style="fill:#006B79;" d="M41.9,125.8c-0.7,1.4-1.5,2.8-2,4.2c-0.1,0.3-0.1,0.6,0,0.9c0.6,1,1.1,2,1.7,3.1
		c-0.1,0.2-0.3,0.3-0.5,0.4c-3.1,1.8-6.1,3.5-9.2,5.3c-0.1,0.1-0.2,0.1-0.3,0.2c3-0.5,5.9-1.1,8.8-1.8c1-0.2,1.9-0.5,2.9-0.8
		c0.2-0.1,0.4-0.2,0.6-0.1c0.6,0.7,1.2,1.3,2,1.8c-0.2,0.2-0.4,0.2-0.6,0.3c-3.8,1.3-7.6,2.7-11.4,4.3c-0.8,0.3-1.5,0.6-2.2,1.1
		c-0.4,0.3-0.6,0.2-0.8-0.2c-1.4-2.6-2.4-5.4-3.3-8.2c-1.1-3.5-1.8-7.1-2.3-10.8c-0.3-2-0.5-3.9-0.6-5.9c-0.1-1.3-0.1-2.5-0.2-3.8
		c0-0.3,0.1-0.5,0.3-0.6c3.1-1.5,6.2-2.9,9.4-4.4c0.5-0.2,1-0.3,1.5-0.1c2.1,0.5,4,1.5,5.9,2.7c1.6,0.9,3,2,4.3,3.3
		c0.6,0.6,1.2,1.3,1.5,2.2c0,0.1,0.1,0.2,0,0.4c-0.2,0.1-0.3,0.1-0.5,0.2c-0.9,0.3-1.8,0.5-2.7,0.8c-5.5,1.5-11,3-16.6,4.6
		c-0.2,0.1-0.5,0.1-0.6,0.1c1.6,0,3.2,0.2,4.9,0.3c1.3,0.1,2.5,0.2,3.8,0.3c1.4,0.1,2.8,0.2,4.2,0.3c0.3,0,0.6,0,1,0
		C41.3,125.6,41.6,125.6,41.9,125.8z"/>
	<path style="fill:#FEFEFE;" d="M70.7,144.2c3.7,4.1,7.2,8,10.8,12.1c0-0.3,0-0.5,0-0.6c0-2.4,0-4.8,0-7.1c0-1.9,0.9-3.3,2.6-4.3
		c0.3-0.2,0.4-0.2,0.4,0.2c0,6.5,0,13,0,19.5c0,0,0,0.1,0,0.2c-3.6-4-7.2-8-10.8-12c0,0.3,0,0.5,0,0.6c0,3.4,0,6.9,0,10.3
		c0,0.4-0.1,0.5-0.5,0.5c-0.7,0-1.4,0-2.2,0c-0.3,0-0.4-0.1-0.4-0.4c0-1.4,0-2.8,0-4.2c0-4.7,0-9.5,0-14.2
		C70.7,144.7,70.7,144.5,70.7,144.2z"/>
	<path style="fill:#FEFEFE;" d="M129.1,157.4c0,2.3,0,4.4,0,6.5c-1.6-0.7-2.6-1.9-2.9-3.6c-0.1-0.3-0.1-0.7-0.1-1.1
		c0-4.8,0-9.6,0-14.4c0-0.4,0.1-0.6,0.6-0.5c1.6,0,3.2,0,4.8,0.1c3.1,0,5.5,2.2,5.9,5.3c0.3,3-1.6,5.8-4.5,6.5
		c-0.2,0-0.3,0.1-0.5,0.1c1.9,2.4,3.8,4.8,5.7,7.2c-0.8,0-1.5-0.1-2.2,0c-1.3,0.2-2.1-0.3-2.8-1.3
		C131.8,160.6,130.5,159.1,129.1,157.4z"/>
	<path style="fill:#EA7D0B;" d="M65.3,118.7c-2,2.1-3.6,4.4-5.2,6.7c-0.2,0.3-0.2,0.5,0.1,0.7c1.1,1.2,1.8,2.7,2.5,4.2
		c0.4,0.8,0.4,0.8-0.5,0.8c-1.7,0.1-3.5,0.4-5.1,1c-0.7,0.2-1.1,0.6-1.2,1.4c-0.1,0.9-0.2,1.8-0.2,2.6c0,0.3-0.1,0.5-0.4,0.5
		c-0.1,0-0.2,0.1-0.3,0.1c-2.8,0.9-3,0.6-4.5-1c-1.3-1.3-2.4-2.8-3.5-4.2c-0.2-0.2-0.1-0.4,0-0.7c0.8-1.4,2.1-2.5,3.3-3.4
		c3.6-2.8,7.5-5,11.4-7.1c1-0.5,2-1,3-1.5C64.9,118.7,65.1,118.6,65.3,118.7z"/>
	<path style="fill:#FEFEFE;" d="M112.2,154.2c0,3,0,6,0,8.9c0,0.4-0.1,0.5-0.5,0.5c-0.7,0-1.4,0-2.1,0c-0.4,0-0.5-0.1-0.5-0.5
		c0-2.7,0-5.3,0-8c0-0.5-0.1-0.5-0.5-0.5c-1.9,0-3.8,0-5.7,0c-0.5,0-0.5,0.1-0.5,0.6c0,2.8,0,5.5,0,8.3c0,0.6,0,0.6-0.5,0.3
		c-1.6-0.9-2.5-2.3-2.5-4.2c0-4.8,0-9.6,0-14.4c0-0.4,0.1-0.6,0.5-0.5c0.7,0.1,1.4,0,2.1,0c0.3,0,0.4,0.1,0.4,0.4c0,2,0,4,0,6
		c0,0.4,0.1,0.5,0.5,0.5c1.9,0,3.8,0,5.7,0c0.4,0,0.5-0.1,0.5-0.5c0-2,0-3.9,0-5.9c0-0.5,0.1-0.6,0.6-0.6c0.6,0,1.3,0,1.9,0
		c0.4,0,0.6,0.1,0.6,0.5C112.2,148.2,112.2,151.2,112.2,154.2z"/>
	<path style="fill:#EA7D0B;" d="M163,107.5c-8.2,2.5-16.5,4.9-24.7,7.4c-0.1,0-0.3,0.1-0.4,0.1c-0.5-0.5-0.8-1.1-1.1-1.7
		c-1.2-2.1-2.3-4.3-3.4-6.4c0-0.1-0.1-0.2-0.1-0.2c3.6,0.1,7.1,0.2,10.7,0.3c2.9,0.1,5.9,0.1,8.8,0.2c3.3,0.1,6.7,0.1,10,0.2
		C163,107.4,163.1,107.4,163,107.5z"/>
	<path style="fill:#FEFEFE;" d="M61.3,144.3c2.7,6.6,5.3,13,8,19.5c-1.1,0-2.1,0-3.1,0c-0.2,0-0.3-0.2-0.3-0.3
		c-0.4-1.1-0.9-2.1-1.3-3.2c-0.1-0.3-0.2-0.4-0.5-0.4c-1.8,0-3.6,0-5.4,0c-0.3,0-0.4,0.1-0.5,0.4c-0.2,0.5-0.4,0.9-0.6,1.4
		c-0.8,1.6-2.6,2.7-4.3,2.5C55.9,157.6,58.6,151,61.3,144.3z"/>
	<path style="fill:#FEFEFE;" d="M44.2,156.4c0,2.6,0,5.2,0,7.9c-1.7-0.5-3-2.3-3-4.3c0-4.9,0-9.8,0-14.7c0-0.3,0-0.4,0.4-0.4
		c1.6,0,3.2,0,4.8,0.1c3.2,0,5.7,2.4,5.9,5.6c0.2,3.2-2.1,6-5.3,6.3C46,156.8,45.1,156.7,44.2,156.4z"/>
	<path style="fill:#FEFEFE;" d="M124.6,163.6c-0.2,0-0.3,0-0.4,0c-2.9,0-5.9,0-8.8,0c-0.3,0-0.4-0.1-0.4-0.4c0-6,0-12.1,0-18.1
		c0-0.3,0.1-0.4,0.4-0.4c2.7,0,5.4,0,8.1,0c0.3,0,0.4,0.1,0.4,0.4c0,0.7,0,1.5,0,2.2c0,0.3-0.1,0.4-0.4,0.4c-1.7,0-3.3,0-5,0
		c-0.4,0-0.5,0.1-0.5,0.5c0,1,0,2,0,3.1c0,0.4,0.1,0.4,0.4,0.4c1.2,0,2.5,0,3.7,0c0.3,0,0.4,0.1,0.4,0.4c0,0.8,0,1.5,0,2.3
		c0,0.3-0.1,0.4-0.4,0.4c-1.2,0-2.5,0-3.7,0c-0.4,0-0.4,0.1-0.4,0.4c0,1.7,0,3.4,0,5.1c0,0.3,0.1,0.4,0.4,0.4c1,0,2.1-0.1,3.1,0.2
		C123,161.2,124,162.1,124.6,163.6z"/>
	<path style="fill:#FEFEFE;" d="M148.5,144.3c-0.7,1.8-2.4,3-4.3,3c-0.3,0-0.7,0-1,0.1c-1,0.3-1.6,1.2-1.5,2.1c0.1,1,0.9,1.8,2,2
		c0.6,0.1,1.2,0.2,1.8,0.4c2.6,1.1,4.1,3.8,3.5,6.7c-0.5,2.7-2.9,4.7-5.6,4.8c-2,0-3.6-0.8-4.6-2.6c-0.2-0.3-0.2-0.4,0.2-0.4
		c1.4,0,2.8,0.1,4.2,0c1.7-0.1,2.8-1.2,2.8-2.8c0.1-1.4-1-2.7-2.6-3c-1.6-0.2-2.9-0.9-3.8-2.2c-1.2-1.6-1.3-3.4-0.5-5.2
		c0.9-1.8,2.5-2.8,4.5-2.9C145.3,144.3,146.9,144.3,148.5,144.3z"/>
	<path style="fill:#FEFEFE;" d="M93.6,164.4c-1.9-0.9-2.9-2.3-3-4.2c-0.1-3.9-0.1-7.8,0-11.6c0-0.5-0.1-0.6-0.6-0.6
		c-1.1,0-2.2,0-3.3,0c-0.2,0-0.4,0-0.4-0.3c0-0.8,0-1.6,0-2.4c0-0.3,0.1-0.3,0.3-0.3c3.6,0,7.3,0,10.9,0c0.3,0,0.4,0.1,0.4,0.4
		c0,0.7,0,1.5,0,2.2c0,0.3-0.1,0.4-0.4,0.4c-1.1,0-2.2,0-3.3,0c-0.4,0-0.6,0.1-0.6,0.5c0,5.1,0,10.2,0,15.3
		C93.6,163.9,93.6,164.1,93.6,164.4z"/>
	<path style="fill:#EA7D0B;" d="M60.1,81.4c-2.3-3.3-4.7-6.6-7-9.9c-1.4-2-2.9-4.1-4.3-6.1c-0.1-0.1-0.2-0.3-0.3-0.4
		c0.2-0.1,0.3,0.1,0.4,0.2c6.9,5.5,13.8,11.1,20.6,16.6c0.1,0.1,0.2,0.2,0.3,0.3c-2.3-0.2-4.6-0.3-6.9-0.5
		C62,81.6,61,81.5,60.1,81.4z"/>
	<path style="fill:#EA7D0B;" d="M129.2,87.5c1.1-0.7,2.3-1.2,3.5-1.7c6.1-2.9,12.2-5.9,18.3-8.8c0.1-0.1,0.2-0.1,0.4,0
		c-4.7,4.5-9.4,9-14.1,13.5c-1.8-0.7-3.6-1.5-5.4-2.1C131,88,130.1,87.8,129.2,87.5z"/>
	<path style="fill:#EA7D0B;" d="M139.1,116.6c1.4,0.2,2.7,0.6,4,1c6.6,1.7,13.3,3.4,19.9,5c0.1,0,0.3,0,0.3,0.2
		c-6,0.6-12,1.2-18.1,1.3C143,121.8,141,119.3,139.1,116.6z"/>
	<path style="fill:#EA7D0B;" d="M41.9,125.8c-1.9-0.1-3.9-0.3-5.8-0.4c-2.9-0.2-5.8-0.4-8.7-0.6c-0.2,0-0.4,0-0.7-0.1
		c2.2-0.6,4.2-1.2,6.3-1.7c4.6-1.3,9.3-2.5,13.9-3.8c0.1,0,0.1,0,0.2,0c0.1,0,0.1,0,0.1,0.1c-0.6,0.4-1.1,0.9-1.6,1.4
		c-0.2,0.3-0.4,0.5-0.7,0.8C43.7,122.8,42.8,124.3,41.9,125.8z"/>
	<path style="fill:#FEFEFE;" d="M51.8,44.4c-0.9,0.8-1.7,1.4-2.5,2.1c-0.2,0.2-0.3,0.3-0.3,0.7c0.2,1,0.3,2,0.5,3.1
		c-1-0.5-1.9-0.9-2.7-1.3c-0.3-0.1-0.5-0.1-0.7,0c-1,0.4-1.9,0.8-2.9,1.3c0-0.5,0.2-1,0.3-1.4c0.1-0.6,0.5-1.2,0.4-1.8
		c-0.1-0.5-0.8-0.9-1.3-1.3c-0.4-0.4-0.8-0.7-1.2-1.1c1.1-0.2,2.2-0.5,3.2-0.7c0.3,0,0.4-0.2,0.5-0.4c0.5-1,1-2,1.5-3.1
		c0.5,1,1.1,2,1.5,3c0.2,0.3,0.3,0.5,0.7,0.5C49.7,44.1,50.7,44.3,51.8,44.4z"/>
	<path style="fill:#EA7C0B;" d="M140.1,101.4c-0.7,0.6-1.4,1-2.2,1.5c-1.6,1-3.2,2.1-4.8,3.1c-1-2.2-1.8-4.4-2.4-6.7
		c-0.1-0.4,0.1-0.4,0.4-0.4c2.6,0,5.1,0.7,7.5,1.7C139.1,100.9,139.6,101.2,140.1,101.4z"/>
	<path style="fill:#EA7D0B;" d="M143.1,93.5c2.4-0.4,4.7-0.8,7.1-1.2c2.6-0.4,5.2-0.8,7.8-1.3c0.1,0,0.3,0,0.4,0
		c-1,0.6-2.1,1.2-3.1,1.8c-1.9,1.1-3.9,2.3-5.8,3.4c-1.2-0.3-2.2-0.9-3.3-1.3C145.1,94.5,144.1,94,143.1,93.5z"/>
	<path style="fill:#EA7D0B;" d="M43.7,137.2c-1.8,0.8-3.8,1.2-5.7,1.6c-2.1,0.5-4.3,0.9-6.5,1.3c-0.1,0-0.3,0.1-0.5,0
		c3.5-2,7-4,10.5-6C42.2,135.1,43,136.2,43.7,137.2z"/>
	<path style="fill:#EA7C0B;" d="M149.9,134.8c1.2,0.5,2.3,1.2,3.5,1.8c1.9,1,3.9,2,5.8,3.1c0,0.1,0,0.1-0.1,0.1
		c-2.4-0.4-4.7-0.8-7.1-1.2c-0.8-0.1-1.6-0.3-2.3-0.4C149.7,137,149.9,135.9,149.9,134.8z"/>
	<path style="fill:#EA7C0B;" d="M43.1,81.2c-1.3-1.4-2.7-2.7-4-4.1c0.2-0.1,0.3,0,0.4,0c1.8,0.9,3.7,1.7,5.5,2.6c0,0,0,0,0.1,0.1
		C44.4,80.3,43.7,80.7,43.1,81.2z"/>
	<path style="fill:#0E5B60;" d="M121.3,85.5c0.4,0.1,0.8,0,1.1,0.3c-0.4-0.1-0.8-0.1-1.2-0.3C121.1,85.5,121.2,85.4,121.3,85.5z"/>
	<path style="fill:#195E5E;" d="M44.9,121.5c0.2-0.3,0.4-0.6,0.7-0.8C45.5,121.1,45.2,121.3,44.9,121.5z"/>
	<path style="fill:#126266;" d="M122.6,85.8c0.4-0.1,0.7,0.1,1,0.2c0,0.1-0.1,0.1-0.1,0C123.1,86,122.9,86,122.6,85.8z"/>
	<path style="fill:#9E762E;" d="M47.1,119.3c0,0-0.1-0.1-0.1-0.1c0.1-0.1,0.3-0.1,0.4-0.1C47.3,119.2,47.2,119.2,47.1,119.3z"/>
	<path style="fill:#0A6169;" d="M123.4,86c0,0,0.1,0,0.1,0c0.1,0,0.3,0,0.4,0.2C123.8,86.1,123.6,86.2,123.4,86z"/>
	<path style="fill:#136466;" d="M121.3,85.5c0,0-0.1,0-0.1,0c-0.2,0-0.3,0-0.5-0.1C120.9,85.4,121.1,85.4,121.3,85.5z"/>
	<path style="fill:#EA7C0B;" d="M55.3,175.7c0,1.6-1.3,2.9-2.8,2.9c-1.5,0-2.8-1.3-2.8-2.9c0-1.6,1.3-2.9,2.9-2.9
		C54,172.8,55.3,174.1,55.3,175.7z"/>
	<path style="fill:#E4790B;" d="M84.1,176.8c0.3-0.7,0.5-1.3,0.8-2.1c0.3,0.7,0.5,1.3,0.7,1.9c0.1,0.2,0,0.2-0.2,0.2
		C85,176.8,84.6,176.8,84.1,176.8z"/>
	<path style="fill:#A5772B;" d="M110.4,49.5c-0.1-0.2,0.1-0.4-0.1-0.5c0-0.1,0.1-0.2,0.2-0.4C110.5,49,110.6,49.2,110.4,49.5z"/>
	<path style="fill:#3B6F5E;" d="M108.3,80.1c0,0.1-0.1,0.1-0.1,0.1c-0.1,0-0.1-0.1-0.1-0.1c0-0.1,0-0.2,0.1-0.3
		C108.2,79.9,108.2,80,108.3,80.1z"/>
	<path style="fill:#587250;" d="M95.2,46.9c-0.1,0-0.1,0.1-0.2,0.1c0-0.1-0.1-0.3,0.1-0.3C95.2,46.7,95.2,46.8,95.2,46.9z"/>
	<path style="fill:#A1772D;" d="M163,107.5c0-0.1-0.1-0.1-0.1-0.2c0.1,0,0.3,0,0.5,0C163.3,107.5,163.2,107.5,163,107.5z"/>
	<path style="fill:#907635;" d="M159.1,139.8c0,0,0.1-0.1,0.1-0.1c0.1,0,0.2,0.1,0.3,0.2C159.3,139.9,159.2,139.9,159.1,139.8z"/>
	<path d="M129.2,150c0-0.7,0-1.5,0-2.2c0-0.3,0.1-0.3,0.3-0.3c0.7,0,1.4,0,2.2,0c1.2,0.1,2.3,1.1,2.6,2.3c0.3,1.2-0.3,2.5-1.4,3.1
		c-1.1,0.6-2.5,0.5-3.4-0.3c-0.2-0.1-0.2-0.3-0.2-0.5C129.2,151.4,129.2,150.7,129.2,150z"/>
	<path style="fill:#010101;" d="M61.3,152c0.6,1.6,1.2,3.1,1.8,4.5c0.1,0.2,0.1,0.3-0.2,0.3c-1,0-2.1,0-3.1,0c-0.2,0-0.4,0-0.3-0.2
		C60.1,155.1,60.7,153.6,61.3,152z"/>
	<path d="M44.2,150.3c0-0.7,0-1.4,0-2.1c0-0.3,0.1-0.4,0.3-0.4c0.7,0,1.4,0,2.1,0.1c1.2,0.1,2.2,1,2.5,2.2c0.3,1.3-0.2,2.5-1.3,3.1
		c-1,0.6-2.4,0.6-3.4-0.2c-0.2-0.1-0.3-0.3-0.2-0.5C44.2,151.8,44.2,151.1,44.2,150.3z"/>
</g>
</svg>
