<svg version="1.1" id="Layer_1" xmlns="http://www.w3.org/2000/svg" x="0" y="0" viewBox="0 0 200 200" xml:space="preserve"><style>.man_st0{fill:silver}.man_st1{fill:#fff}.man_st2{fill:#f3f0f1}.man_st3{fill:#050202}.man_st4{fill:#96181b}.man_st5{fill:#020101}.man_st7{fill:#fdfdfd}.man_st8{fill:#94181a}.man_st9{fill:#dc0916}.man_st12{fill:#0d0202}</style><path class="man_st0" d="M74.85.24c-.04.38-.34.58-.6.78-.43.34-.81.72-1.19 1.1-3.06 3.04-6.19 6.01-9.27 9.04-1.4 1.38-2.83 2.73-4.19 4.14-2.48 2.56-4.9 5.18-6.74 8.26a16.33 16.33 0 00-2.08 4.48c-.39 1.59.18 1.91 1.17 2.4.93.45 1.95.67 2.97.84 1.5.24 3.02.32 4.54.31 4.21 0 8.43.02 12.64-.02 1-.01 2.01-.06 2.99-.29.79-.19 1.48-.6 2.21-.92a49.62 49.62 0 0110.1-3.12 66.19 66.19 0 0110.18-1.26c1.21-.05 2.42-.11 3.63-.11a60.1 60.1 0 017.09.44c2.59.3 5.14.74 7.65 1.44 2.29.63 4.51 1.47 6.76 2.21 1.13.37 2.26.73 3.37 1.14.96.36 1.96.46 2.96.47 4.26.03 8.53.06 12.79-.01 2.18-.04 4.39-.11 6.48-.9l.36-.13c1.19-.44 1.6-1.17 1.33-2.41-.16-.76-.45-1.48-.77-2.19a24.8 24.8 0 00-3.91-6.02 54.43 54.43 0 00-2.56-2.69c-3.5-3.52-7.01-7.03-10.54-10.52-1.3-1.3-2.43-2.74-3.59-4.15l-1.41-1.7c.38-.22.7-.12 1.02-.07 1.73.28 3.44.66 5.18.84 3.05.32 6.07.8 9.07 1.43a89.48 89.48 0 0119.36 6.59 47.2 47.2 0 0110.68 6.8 34.42 34.42 0 016.6 7.24 22.86 22.86 0 013.33 8.44c.08.43.2.86.18 1.3-.01.2.05.36.3.36v.31c-.17.09-.16.25-.16.4v4.17c0 .15-.01.31.16.4v.31c-.31 0-.28.23-.31.43a24.6 24.6 0 01-10.08 17.1 41.2 41.2 0 01-12.58 6.18c-1.4.43-2.81.85-4.26 1.13-.23.04-.46.1-.67.17-.19.07-.21.22-.08.36.14.15.31.27.46.41a37.65 37.65 0 017.13 9.4 40.77 40.77 0 013.64 9.59c.26 1.02.59 2.02.88 3.04-2.52.48-6.94 1.11-15.65-1.1.04.67.32 1.24.53 1.82 1.06 2.88 1.85 5.85 2.74 8.79.45 1.48.9 2.96 1.28 4.46.46 1.82.67 3.69.81 5.57.1 1.33.01 2.63-.09 3.93a28.22 28.22 0 01-1.03 5.53 41.2 41.2 0 01-2.84 7.19 216.8 216.8 0 01-7.07 13.08c-2.14 3.65-4.41 7.22-6.64 10.82a497.98 497.98 0 01-12.1 18.73 318.93 318.93 0 01-9.21 12.73 502.95 502.95 0 01-6.29 8.14c-1.95 2.47-3.93 4.91-5.91 7.36-1.03 1.29-2.06 2.58-3.12 3.85-.46.55-1.01 1.04-1.51 1.56-.17.18-.43.31-.4.63h-.31c.02-.21-.12-.33-.25-.46-1.84-1.83-3.29-3.97-4.84-6.03a1626.77 1626.77 0 01-16.66-22.43c-2.59-3.54-5.19-7.07-7.74-10.64-1.83-2.56-3.6-5.17-5.4-7.75a252.6 252.6 0 01-10.87-17.21 199.78 199.78 0 01-5.52-10.31c-1.12-2.24-2.03-4.58-3.01-6.88a23.89 23.89 0 01-2.19-8.57 22.58 22.58 0 01.75-7.33 396 396 0 013.8-12.59c.38-1.2.75-2.41 1.11-3.62.15-.51.06-.62-.46-.48a43.96 43.96 0 01-9.17 1.69c-1.19.1-2.36-.02-3.54-.05-.67-.02-1.33-.1-2-.16-.52-.04-.59-.1-.53-.61.1-.79.2-1.58.34-2.37.3-1.78.74-3.53 1.37-5.23a40.79 40.79 0 013.35-6.71 36.51 36.51 0 016.37-7.75c.12-.11.36-.17.27-.41-.06-.16-.24-.16-.39-.2-1.37-.35-2.75-.66-4.11-1.07a43.55 43.55 0 01-8.84-3.68 33.93 33.93 0 01-5.66-3.91 24.85 24.85 0 01-5.2-6.21 24.55 24.55 0 01-2.87-8.12c-.16-.91-.33-1.83-.34-2.76 0-.25.13-.56-.29-.62v-3.1c.13 0 .26-.03.24-.2-.02-.11-.13-.13-.24-.11v-.62c.19.02.28-.08.31-.26.07-.48.11-.97.2-1.45a23.69 23.69 0 013.66-8.87 35.08 35.08 0 015.01-5.67 37.28 37.28 0 015.36-4.18 62.96 62.96 0 0110.57-5.47 87.32 87.32 0 0119.79-5.61l5.4-.9c1.75-.28 3.51-.54 5.26-.8.18-.03.29-.1.27-.3h.31c.21.26.41.2.62 0 .14-.02.25-.02.35-.02zm39.12 179.66c.06-.05.12-.09.17-.15 2.44-3.19 4.84-6.4 7.2-9.65.09-.12.2-.24.21-.4.24-.14.35-.38.49-.59.97-1.37 1.94-2.74 2.89-4.13 5.38-7.81 10.35-15.9 15.38-23.93a218.4 218.4 0 009.54-16.86 54.87 54.87 0 002.94-6.49c1.86-5.24 2.35-10.58.97-16.01-.75-2.92-1.68-5.8-2.54-8.7-.93-3.12-2.05-6.17-3.13-9.24-.09-.27-.3-.54-.15-.89l.78.17 4.44 1.08c2.69.63 5.4 1.17 8.18 1.23.9.02 1.79.01 2.69-.1 0-.12.02-.21 0-.28-.5-1.82-.92-3.66-1.64-5.41-2.3-5.63-5.62-10.51-10.38-14.35-.76-.61-1.42-1.33-2.21-2.07.37-.09.62-.16.87-.21a87.1 87.1 0 008.59-2.03 38.7 38.7 0 0012.89-6.58 22.89 22.89 0 007.6-23.86 22.7 22.7 0 00-5.89-9.7 45.34 45.34 0 00-13.86-9.5 87.26 87.26 0 00-22.15-6.79 77.45 77.45 0 00-5.08-.65c.03.35.3.5.5.69l7.21 7.16c2.09 2.08 4.2 4.14 6.19 6.32a25.64 25.64 0 014.86 7.51c.35.84.64 1.69.79 2.59.3 1.8-.35 3.21-1.92 4.13a7.4 7.4 0 01-1.41.63c-1.83.6-3.71.89-5.63.93-4.99.1-9.97.11-14.96.01a8.8 8.8 0 01-2.74-.46c-1.81-.61-3.64-1.17-5.43-1.84a53.19 53.19 0 00-17.19-3.31c-3.7-.11-7.38.1-11.06.59a49.9 49.9 0 00-14.86 4.14 8.78 8.78 0 01-3.67.86c-5.4.11-10.8.08-16.2 0a18.24 18.24 0 01-5.03-.81 7.27 7.27 0 01-2.42-1.18 3.43 3.43 0 01-1.37-2.34c-.12-.87.05-1.7.29-2.52a17.6 17.6 0 011.55-3.46 42.73 42.73 0 017.03-9.03c3.33-3.39 6.73-6.72 10.15-10.03.22-.21.5-.37.6-.69-.06-.01-.11-.03-.16-.02-2.65.45-5.31.82-7.94 1.34a82.04 82.04 0 00-22.29 7.79 41.31 41.31 0 00-10.54 7.69 24.12 24.12 0 00-5.59 8.39 22.28 22.28 0 00-.98 11.3 21.55 21.55 0 007.77 13.87 37.2 37.2 0 0012.75 6.68c2.94.92 5.96 1.5 8.95 2.18.21.05.41.13.61.19-.04.09-.04.12-.06.13l-1.39 1.12a36.36 36.36 0 00-10.87 13.91 26.89 26.89 0 00-1.9 6.13c-.16.89-.14.93.81.97 2.13.1 4.23-.12 6.32-.5 2.92-.54 5.77-1.4 8.63-2.18.31-.09.62-.25 1.03-.19-.3.81-.61 1.57-.85 2.35-1.88 6.01-3.81 12.01-5.53 18.07a19.84 19.84 0 00.37 12.42 86.51 86.51 0 003.39 8.07A193.85 193.85 0 0061.7 143.2c5.06 8 10.56 15.69 16.14 23.33.64.87 1.23 1.78 1.95 2.6 1.07 1.61 2.26 3.14 3.41 4.69 1.38 1.87 2.71 3.77 4.17 5.58.63 1.01 1.38 1.93 2.09 2.88l10.37 13.81c.19.26.35.57.68.73a740.3 740.3 0 0010.63-13.25c.96-1.2 1.96-2.38 2.83-3.67z"/><path class="man_st1" d="M182.94 39.03c-.17-.09-.16-.25-.16-.4v-4.17c0-.15-.01-.31.16-.4v4.97z"/><path class="man_st2" d="M17.78 37.79c.41.06.28.37.29.62l-.29-.31v-.31zM17.78 34.38c.11-.02.22.01.24.11.03.17-.1.19-.24.2v-.31z"/><path class="man_st1" d="M74.54.24c-.21.2-.41.26-.62 0h.62z"/><path class="man_st3" d="M79.81 169.15c-.71-.82-1.31-1.73-1.95-2.6a428.13 428.13 0 01-16.14-23.33 193.85 193.85 0 01-11.12-19.79 86.51 86.51 0 01-3.39-8.07 19.77 19.77 0 01-.37-12.42c1.73-6.06 3.65-12.06 5.53-18.07.24-.78.56-1.54.85-2.35-.41-.06-.72.1-1.03.19-2.86.78-5.71 1.64-8.63 2.18-2.09.38-4.19.6-6.32.5-.95-.04-.97-.07-.81-.97a26.4 26.4 0 011.9-6.13A36.12 36.12 0 0149.2 64.38l1.39-1.12c.02-.01.02-.05.06-.13-.2-.06-.4-.14-.61-.19-2.99-.69-6.01-1.27-8.95-2.18a36.86 36.86 0 01-12.75-6.68 21.55 21.55 0 01-7.77-13.87c-.58-3.85-.39-7.63.98-11.3a23.85 23.85 0 015.59-8.39 41.73 41.73 0 0110.54-7.69 82.04 82.04 0 0122.29-7.79c2.63-.52 5.29-.9 7.94-1.34.05-.01.1.01.16.02-.1.32-.38.48-.6.69a564.87 564.87 0 00-10.15 10.03 42.73 42.73 0 00-7.03 9.03 17.03 17.03 0 00-1.55 3.46 5.82 5.82 0 00-.29 2.52c.14.98.6 1.74 1.37 2.34.73.56 1.56.92 2.42 1.18 1.64.49 3.32.78 5.03.81 5.4.08 10.8.11 16.2 0a9.1 9.1 0 003.67-.86A49.9 49.9 0 0192 28.78c3.67-.49 7.36-.7 11.06-.59a53.45 53.45 0 0117.19 3.31c1.79.67 3.62 1.22 5.43 1.84.89.3 1.79.44 2.74.46 4.99.1 9.98.09 14.96-.01 1.93-.04 3.8-.33 5.63-.93a6.6 6.6 0 001.41-.63 3.73 3.73 0 001.92-4.13c-.15-.9-.44-1.75-.79-2.59a25.64 25.64 0 00-4.86-7.51c-1.99-2.18-4.09-4.24-6.19-6.32l-7.21-7.16c-.19-.19-.46-.34-.5-.69 1.71.16 3.4.37 5.08.65a87.26 87.26 0 0122.15 6.79 45.16 45.16 0 0113.86 9.5 22.9 22.9 0 015.89 9.7 22.88 22.88 0 01-7.6 23.86 38.51 38.51 0 01-12.89 6.58 87.1 87.1 0 01-8.59 2.03c-.25.05-.49.12-.87.21.78.74 1.45 1.46 2.21 2.07 4.77 3.84 8.08 8.73 10.38 14.35.72 1.75 1.14 3.59 1.64 5.41.02.07 0 .15 0 .28-.9.11-1.8.12-2.69.1a38.97 38.97 0 01-8.18-1.23l-4.44-1.08-.78-.17c-.16.35.05.62.15.89 1.08 3.07 2.2 6.12 3.13 9.24.86 2.9 1.79 5.77 2.54 8.7 1.39 5.42.89 10.76-.97 16.01a54.87 54.87 0 01-2.94 6.49 218.4 218.4 0 01-9.54 16.86c-5.03 8.04-10 16.12-15.38 23.93-.95 1.38-1.92 2.75-2.89 4.13-.15.21-.26.45-.49.59-.1-1.54-.25-3.09-.29-4.63-.04-1.57-.24-3.14-.21-4.72 0-.18-.06-.36-.07-.54-.04-1-.17-2 .07-3 .46-1.9.89-3.81 1.32-5.73.1-.43.29-.86.21-1.42-.56.5-1.07.94-1.56 1.39l-3.4 3.17c-1.94 1.78-3.89 3.54-5.55 5.61-3.6 4.49-7.28 8.92-10.93 13.37-.42.52-.47.51-.91-.02l-3.78-4.61-6.92-8.44a35.25 35.25 0 00-3.49-3.84c-2.1-1.91-4.17-3.86-6.27-5.77-.3-.28-.58-.6-1.04-.79.01.18.01.28.03.38.38 1.63.73 3.27 1.16 4.89.42 1.61.62 3.23.5 4.9a330.4 330.4 0 00-.43 7.02c-.07.72-.06 1.47-.2 2.21zm20.76-25.54l1.3-.02c.15 0 .31.01.4-.15.23-.4-.18-1.19-.65-1.22-.36-.02-.71-.01-1.07-.01l-.11.01.02-1c0-.15.01-.34-.18-.38-.46-.1-.37-.45-.31-.73.28-1.28.3-2.59.32-3.89.01-.4.02-.81.29-1.15l-.02 5.02c0 .15 0 .31.02.46.02.2.18.23.34.23.19-.01.27-.13.26-.31-.01-.1-.01-.21-.04-.31a10.2 10.2 0 01-.29-2.52c-.02-.77-.09-1.54-.14-2.31-.01-.11-.05-.2-.14-.26-.01-.23-.03-.47-.01-.7.03-.41-.14-.55-.54-.54-.9.02-1.8-.09-2.7-.15a16.95 16.95 0 01-5.61-1.35 15 15 0 01-7.18-6.58 22.72 22.72 0 00-4.27-5.48c-.76-.7-1.55-1.37-2.25-2.13-1.72-1.83-2.4-3.94-1.72-6.41a.9.9 0 00-.11-.8c-.41-.69-.8-1.39-1.23-2.06-2.07-3.27-4.14-6.55-6.24-9.81-2.18-3.39-4.37-6.77-6.58-10.14a9.03 9.03 0 01-1.3-6.67c.19-1.14.47-2.27.72-3.41.06-.27.15-.54 0-.87-.56.33-1.03.72-1.28 1.3-.94 2.15-1.9 4.3-2.8 6.47-2.14 5.15-4 10.41-5.35 15.83a28.98 28.98 0 00-1.06 7.17c.03 2.61.61 5.06 1.83 7.36.61 1.14 1.24 2.26 1.85 3.41 1.91 3.62 4.1 7.06 6.42 10.42 3.43 4.98 7.13 9.76 10.82 14.54.49.63.94 1.3 1.59 1.79.22.17.41.38.77.38-.23-5.57.23-11.02 2.07-16.29.2 1.04.32 2.07.44 3.11.19 1.69.39 3.38.72 5.05.63 3.2 1.62 6.29 2.78 9.33.19.5.46.91.85 1.26 2.02 1.85 4 3.74 6.04 5.57 2 1.79 3.57 3.94 5.28 5.97l1.7 2.06c.14-.29.14-.53.14-.78v-5.27c0-.63.02-.65.66-.65h2.09c.66.01.67.01.67.71-.01 3.26.08 6.51.14 9.77.02.95.55 1.46 1.15 2.05.15-.29.1-.52.1-.75v-18.85-.39c-.05-.59-.23-.77-.82-.81l-.7-.01c-.35 0-.52-.16-.51-.52v-1.55c.01-.69.01-.69.69-.7H100c.33 0 .47-.13.46-.46-.01-.31.01-.62.02-.93.04.04.07.05.09.05zm56.01-67.35l.02.06.04.01c-.02-.02-.05-.04-.06-.07a5.72 5.72 0 00-1-2.63 27.84 27.84 0 00-3.23-3.95 47.83 47.83 0 00-5.48-4.66 10.83 10.83 0 00-3.53-1.88c-1.49-.42-3.02-.7-4.56-.8-1.57-.1-1.4-.23-1.41 1.44 0 .3.13.47.42.56 1.65.53 3.19 1.33 4.75 2.07 1.98.94 3.97 1.86 5.81 3.07 1.97 1.3 3.7 2.89 5.47 4.42.92.79 1.73 1.71 2.76 2.36zm-88.59-8.65c.41.95.8 1.9 1.24 2.83.22.46.23.85.01 1.32a76.76 76.76 0 00-4.13 10.74c-.13.44-.15.82.04 1.26 1.05 2.42 2.6 4.5 4.43 6.38.05.09.08.19.15.26l5.43 5.95c1.29 1.41 2.56 2.84 3.84 4.25.82.9 1.63 1.8 2.47 2.67.45.47.7.42.99-.16l.88-1.81c.06-.12.05-.33.29-.28.32 1.15.19 2.3-.06 3.44-.26 1.22-.74 2.36-1.21 3.51a18.2 18.2 0 00-1.5 4.78c-.07.58.08.91.46 1.27 1.78 1.69 3.54 3.4 5.29 5.12.3.3.62.4 1.03.42 1.31.06 2.63.1 3.94.19 1.76.12 3.5.13 5.25-.06a6.1 6.1 0 002.81-1.02c.17-.11.39-.23.35-.47-.04-.24-.29-.27-.48-.34-.17-.06-.34-.12-.52-.15-.72-.11-1.41-.29-2.11-.49a8.73 8.73 0 01-5.18-3.69 2.25 2.25 0 00-1.12-.89 5.08 5.08 0 01-3.06-3.47 8.47 8.47 0 01-.29-2.45c.01-.48-.13-.88-.66-1-.64-.15-.89-.56-.86-1.18.82-.32 1.57-.12 2.29.3.48.28.86.67 1.15 1.13.56.9 1.14 1.79 1.65 2.72.67 1.22 1.3 2.47 1.93 3.71a3.5 3.5 0 001.83 1.7 13.46 13.46 0 008.19.76c1.68.13 3.13-.49 4.51-1.36.38-.24.65-.55.86-.96.73-1.45 1.48-2.9 2.25-4.33a10.8 10.8 0 012.09-2.96c.66-.61 1.39-.87 2.25-.37.3.18.63.33 1.03.34.15-1.01-.29-1.72-1.02-2.3-.42-.34-.87-.64-1.33-.94-.41-.27-.54-.59-.42-1.1.35-1.51.63-3.03.97-4.54.07-.33.05-.61-.07-.9a27.66 27.66 0 01-2.06-7.67c-.16-1.4-.36-2.82-.1-4.24a1.2 1.2 0 00-.32-1.06 18.19 18.19 0 01-2.65-4.17 9.5 9.5 0 01-.87-3.51c-.07-1.8.52-3.4 1.49-4.88.1-.16.21-.35.5-.4v.8c.01 1.65-.02 3.31.02 4.96.05 1.75 1.05 2.78 2.35 3.05.39.08.63.01.89-.26.5-.52 1.05-1 1.58-1.48a34.6 34.6 0 0110.95-6.74c1.23-.47 2.5-.82 3.78-1.13.18-.04.4-.11.43.15.11 1 .42 1.99.28 2.99-.17 1.27-.07 2.52.18 3.77.29 1.48.9 2.85 1.45 4.24 1.1 2.79 1.33 5.61.1 8.43-.14.32-.17.64-.11.98l-.07.06.04-.01.02-.06c.09-.05.18-.1.26-.17a14.12 14.12 0 003.6-5.16c.3-.74.33-1.37.03-2.14-1.33-3.39-2.58-6.8-3.88-10.2a1.6 1.6 0 01.06-1.4c.48-.92.94-1.84 1.38-2.77.45-.94.71-1.93.73-2.98 0-.35-.1-.57-.41-.75-.54-.3-1.08-.62-1.57-.99-1.9-1.42-3.73-2.94-5.56-4.45-.89-.74-1.72-1.56-2.71-2.18a9.28 9.28 0 01-1.7-2.23c.19-.11.29 0 .41.04 1.66.72 3.28 1.53 4.89 2.34.39.2.76.45 1.13.68.23.14.42.17.55-.13.35-.77.51-1.56.42-2.41a3.16 3.16 0 00-1.1-2.12c-2.63-2.41-5.2-4.88-7.79-7.33-.16-.15-.38-.26-.42-.58.18-.03.35-.08.52-.08 1.02-.01 1.51-.52 1.74-1.53.25-1.1.71-2.15.8-3.3.04-.6.07-.62-.51-.86-.66-.29-1.33-.56-2.01-.81a41.35 41.35 0 00-12.51-2.3c-.88-.04-1.76-.04-2.63-.08-.74-.04-.74-.06-1.05.58-1.23 2.53-2.45 5.07-3.69 7.6-.11.23-.19.5-.39.69-.22-.14-.26-.33-.34-.49-1.25-2.58-2.51-5.16-3.73-7.75-.21-.45-.46-.59-.94-.56-1.93.12-3.86.25-5.78.45-2.44.26-4.86.64-7.23 1.29-1.55.43-3.06.95-4.41 1.85-.52.34-.53.36-.33.94.4 1.2.82 2.39 1.21 3.6.12.38.31.55.71.57.44.02.88.12 1.36.19-.22.37-.47.56-.69.77a2897.4 2897.4 0 01-8.06 7.61c-.32.3-.49.61-.48 1.07.03.93.01 1.86.01 2.79 0 .76.18.9.94.75.31-.06.58-.22.85-.36.34-.18.68-.38 1.03-.54.36-.17.74-.22 1.13-.1.41.13.46.25.18.58-.47.55-.97 1.08-1.42 1.64a8.78 8.78 0 01-1.87 1.73c-1.68 1.16-3.34 2.35-5.03 3.49-.45.31-.6.64-.5 1.16.15.8.43 1.54.86 2.22.03.18.03.35.18.47zm81.71-26.12l-.01-.23c.69-.74 1.24-1.58 1.86-2.38.38-.49.71-1.02.95-1.59.23-.56.46-1.14.4-1.81l-.77.24c-1.48.45-2.99.79-4.53 1.01-2.82.41-5.66.47-8.5.43-2.64-.03-5.27-.18-7.91-.11-1.19.03-2.37.13-3.56.18-.42.02-.65.2-.79.59-.26.7-.54 1.4-.74 2.12a9.74 9.74 0 00.05 5.43c.12.39.27.55.68.53.98-.03 1.96 0 2.95-.01 5.37-.02 10.75.14 16.12-.15a45.03 45.03 0 0020.65-6.14 14.24 14.24 0 004.06-3.43 27.48 27.48 0 002.89-4.49c.11-.2.15-.47.42-.59.92 4.4 1.38 8.76-.36 13.05-.23.33-.37.7-.52 1.24.31-.5.63-.81.73-1.24a9.33 9.33 0 001.34-2.92c.99-3.04 1.34-6.14.71-9.31a17.42 17.42 0 00-3.48-7.43 29.88 29.88 0 00-9.48-8.09 98.82 98.82 0 00-15.4-6.44c-.17-.06-.33-.15-.59-.02l1.75 1.75a35.55 35.55 0 016.76 9.2c2.1 4.2 2.7 8.59 1.49 13.16-.86 3.23-2.74 5.63-5.87 6.95-.43.18-.87.33-1.3.5zM27.56 44.15l.05.12c.01-.03.04-.06.04-.09-.01-.05-.05-.06-.1-.01.1-.15.03-.3 0-.45-.18-.96-.39-1.92-.54-2.89a31.9 31.9 0 01-.39-7.11c.08-1.07.22-1.65.6-2.25.06.1.12.18.16.27 2.21 4.65 5.79 7.86 10.43 9.92 6.12 2.73 12.58 3.95 19.24 4.15 3.9.12 7.8.06 11.7.01 1.89-.03 3.77-.09 5.65-.15.56-.02.57-.03.58-.57.01-1.11.05-2.22 0-3.33a9.72 9.72 0 00-.99-3.95c-.26-.53-.56-.74-1.18-.73-4.29.07-8.58.09-12.86.02-1.75-.03-3.51-.1-5.25-.4-1.7-.3-3.41-.59-5.11-.87-.69-.12-1.38-.19-2.23-.21 1.13 1.73 2.16 3.33 3.21 4.92.17.25.43.44.4.79-.44.05-.76-.26-1.12-.41a9.23 9.23 0 01-5.43-5.71 17.42 17.42 0 01.27-12.57 30.13 30.13 0 015.03-8.23 98.07 98.07 0 003.38-4.24c.11-.15.29-.27.28-.53-.12.02-.22.02-.32.05-2.4.8-4.8 1.57-7.14 2.53a51.3 51.3 0 00-11.46 6.23 27.75 27.75 0 00-6.84 7 17.33 17.33 0 00-2.87 8.33c-.17 2.32.1 4.6.7 6.83a7.3 7.3 0 002.11 3.53zM87.7 121c.8 1.05 1.55 1.97 2.23 2.94.32.46.68.6 1.22.6 6.17-.02 12.34-.01 18.51-.01h.31a.9.9 0 00.7-.26c.6-.58 1.14-1.2 1.54-1.93.22-.4.44-.81.43-1.34H87.7zM62.93 63.14v-.39c-.01-.56-.01-.56-.59-.67-.69-.13-1.39-.06-2.08-.1a6.57 6.57 0 00-3.89 1.07 43.9 43.9 0 00-6.16 4.4 35.15 35.15 0 00-6.43 7.39c-.1.15-.22.29-.24.48-.02.25.02.47.26.6.2.1.4.06.57-.1l.38-.39c.69-.7 1.34-1.43 2.05-2.1a37.45 37.45 0 019.27-6.39c1.93-.95 3.96-1.63 5.94-2.42.92-.37.92-.37.92-1.38zm37.78 107.43c.59-.85 1.31-1.33 1.3-2.45-.06-6.35-.03-12.71-.03-19.07l.01-.7c.01-.37.22-.57.58-.58l.93-.01c.35 0 .52-.16.51-.52v-1.78c.01-.39-.19-.48-.53-.48h-1.94c-1.05 0-.96-.08-.96.96v23.64c0 .27-.04.53.13.99zm2.46-3.29c.25.05.32-.11.41-.22l3.01-3.64c.16-.19.2-.41.2-.65v-6.12c0-.55-.07-.61-.64-.62h-2.17c-.59.01-.59.02-.6.62l-.13 6.58c-.02 1.01-.04 2.02-.03 3.02 0 .35-.18.7-.05 1.03zm13.01-74.13c.03-1.38.06-2.74.28-4.09.42-2.66 1.2-5.21 2.2-7.71.1-.25.27-.49.2-.76-.2-.13-.34.01-.48.02-.88.1-1.42.55-1.74 1.4a18.16 18.16 0 00-1.1 8.87c.1.77.24 1.56.64 2.27zm-10.77 58.83v-1.39c-.04-1.62.37-1.41-1.59-1.43-.33 0-.46.15-.45.47.01.75 0 1.49 0 2.24v2.32c0 .33.13.47.46.46h1.08c.36.01.51-.14.51-.5-.02-.73-.01-1.45-.01-2.17zm18.54-79.43l-5.78 4.31a5.6 5.6 0 005.78-4.31z"/><path class="man_st4" d="M79.81 169.15c.14-.74.13-1.49.17-2.24.13-2.34.26-4.68.43-7.02.12-1.67-.07-3.29-.5-4.9-.42-1.62-.78-3.26-1.16-4.89-.02-.1-.02-.2-.03-.38.46.18.74.51 1.04.79 2.1 1.92 4.17 3.86 6.27 5.77a35.25 35.25 0 013.49 3.84l6.92 8.44 3.78 4.61c.44.54.49.54.91.02 3.65-4.45 7.33-8.88 10.93-13.37 1.66-2.07 3.61-3.83 5.55-5.61l3.4-3.17c.49-.45.99-.88 1.56-1.39.07.56-.12.99-.21 1.42-.42 1.91-.85 3.82-1.32 5.73-.24 1-.11 2-.07 3 .01.18.07.36.07.54-.03 1.58.17 3.14.21 4.72.04 1.55.19 3.09.29 4.63-.01.17-.12.28-.21.4a447.37 447.37 0 01-7.2 9.65c-.05.06-.11.1-.17.15-.09-2.02.18-4.02.13-6.04-.02-1-.03-2.01.1-3.02.06-.49.01-1 .01-1.63l-.31.34-3.83 4.67-6.87 8.39-2.11 2.58c-.37.45-.43.44-.81-.02l-1.24-1.49-11.48-14.02c-.09-.11-.16-.28-.36-.2-.12.19-.08.4-.05.6.16 1.13.12 2.27.1 3.41-.02 1.99.22 3.97.14 5.96-1.46-1.81-2.79-3.71-4.17-5.58-1.14-1.55-2.33-3.08-3.4-4.69z"/><path class="man_st5" d="M87.38 179.42c.08-1.99-.16-3.97-.14-5.96.01-1.13.05-2.27-.1-3.41-.03-.19-.06-.41.05-.6.2-.08.27.09.36.2l11.48 14.02 1.24 1.49c.38.46.45.46.81.02l2.11-2.58 6.87-8.39 3.83-4.67.31-.34c0 .63.05 1.14-.01 1.63a21.78 21.78 0 00-.1 3.02c.05 2.02-.22 4.02-.13 6.04-.87 1.28-1.86 2.47-2.82 3.69a740.3 740.3 0 01-10.21 12.76l-.42.49c-.33-.16-.49-.47-.68-.73l-10.37-13.81c-.7-.94-1.45-1.86-2.08-2.87z"/><path d="M67.82 67.15a6.08 6.08 0 01-.86-2.22c-.1-.52.05-.86.5-1.16 1.69-1.14 3.35-2.34 5.03-3.49a8.78 8.78 0 001.87-1.73c.45-.56.95-1.09 1.42-1.64.28-.33.24-.45-.18-.58a1.53 1.53 0 00-1.13.1c-.35.16-.68.36-1.03.54-.27.14-.54.3-.85.36-.75.14-.93 0-.94-.75-.01-.93.02-1.86-.01-2.79-.02-.46.15-.77.48-1.07l8.06-7.61c.22-.21.48-.39.69-.77-.48-.07-.92-.16-1.36-.19-.4-.02-.59-.19-.71-.57-.38-1.21-.81-2.4-1.21-3.6-.19-.58-.19-.59.33-.94a15.41 15.41 0 014.41-1.85 45.45 45.45 0 017.23-1.29c1.92-.2 3.85-.33 5.78-.45.48-.03.73.12.94.56 1.22 2.59 2.48 5.17 3.73 7.75.08.16.12.35.34.49.2-.18.27-.45.39-.69l3.69-7.6c.31-.65.32-.62 1.05-.58.88.05 1.76.05 2.63.08 4.28.17 8.47.84 12.51 2.3.68.25 1.35.52 2.01.81.57.25.55.26.51.86-.09 1.15-.55 2.2-.8 3.3-.23 1.01-.72 1.51-1.74 1.53-.17 0-.34.05-.52.08.04.31.26.43.42.58 2.59 2.45 5.16 4.92 7.79 7.33.66.6 1.01 1.26 1.1 2.12.09.85-.07 1.64-.42 2.41-.14.3-.32.28-.55.13-.37-.23-.74-.48-1.13-.68-1.62-.81-3.23-1.62-4.89-2.34-.11-.05-.22-.15-.41-.04a9.03 9.03 0 001.7 2.23c.1.76.62 1.3 1.06 1.85 1.61 2.04 3.2 4.11 5.01 5.98.21.22.29.46.31.76.03.5-.22.96-.16 1.46.05.39-.18.55-.51.65l-5.65 1.56c-2.18.6-4.22 1.52-6.16 2.65-1.65.96-3.27 1.97-4.9 2.95-.67.4-.75.37-1.07-.32a1.78 1.78 0 01-.16-.51 55.67 55.67 0 01-.46-4.44c-.05-.79-.13-.86-.95-.7-.51.1-1.02.1-1.53-.01a6.54 6.54 0 01-3.6-2.41 35.34 35.34 0 01-3.55-5.14c-.2-.36-.39-.76-.91-1.1v9.48c-.03.04-.09.08-.09.12-.19 1.3-.51 2.58-.82 3.86a37.76 37.76 0 01-3.57 9.71.8.8 0 00-.03.8c.4.87.77 1.75 1.18 2.61a36.94 36.94 0 013.2 9.59c.11.5.15 1.01.13 1.53-.01.44.03.88-.01 1.31-.04.49.12.85.49 1.14l.47.4c.77.69 1.54 1.37 2.16 2.2.91 1.2 1.55 2.56 1.91 4.02a7.88 7.88 0 01-.38 5.28 15.63 15.63 0 01-2.34 3.52c-2.81.57-5.54.37-8.19-.76a3.5 3.5 0 01-1.83-1.7c-.63-1.24-1.25-2.49-1.93-3.71-.51-.93-1.09-1.82-1.65-2.72a3.2 3.2 0 00-1.15-1.13c-.72-.41-1.47-.62-2.29-.3-.16-1.01.14-1.81 1.07-2.32.15-.08.27-.23.39-.36.88-.93.78-.53.24-1.7-.1-.84-.22-1.69-.29-2.53-.13-1.54.17-3.03.63-4.49.37-1.18.69-2.38.9-3.6.36-2.06.44-4.15.6-6.24.03-.4.13-.73.4-1.05.75-.89 1.41-1.84 1.97-2.87a9.62 9.62 0 001.34-4.48c.04-2.49-.95-4.61-2.47-6.51-.05-.22-.17-.42-.4-.39-.21.03-.21.27-.2.45.09 1.14-.19 2.26-.16 3.39.02.74-.18 1.43-.63 2.03-.49.65-.65.67-1.33.2-1.68-1.15-3.29-2.4-5.07-3.39a28.4 28.4 0 00-10.72-3.46 30.6 30.6 0 00-4.17-.09zm6.1-7.11c.33.48.73.7 1.26.72.31.01.62 0 .93-.01 3.46-.11 6.7.66 9.68 2.47.45.28.95.46 1.51.45-.03-.1-.03-.15-.06-.19a9.7 9.7 0 00-7.46-3.97 16.82 16.82 0 00-4.01.21c-.6.1-1.23.03-1.85.32zm51.78.46c-.41-.33-.78-.67-1.32-.75-1.84-.28-3.67-.5-5.53-.08a10 10 0 00-4.63 2.2 6.08 6.08 0 00-1.64 2.2 22.46 22.46 0 0113.12-3.57z" fill="#de0916"/><path class="man_st4" d="M100.6 135.07c-.27.34-.28.75-.29 1.15-.03 1.3-.05 2.61-.32 3.89-.06.28-.16.63.31.73.18.04.18.23.18.38l-.02 1-1-.01c-.3-.01-.49.12-.55.42l-.13.52c-.07.28.03.45.34.45l1.38.01c-.01.31-.03.62-.02.93.01.33-.13.47-.46.46h-2.17c-.68.01-.68.01-.69.7v1.55c-.01.36.16.52.51.52.23 0 .47-.01.7.01.59.04.76.21.82.81V167.83c0 .22.05.46-.1.75-.59-.6-1.13-1.1-1.15-2.05-.07-3.25-.16-6.51-.14-9.77 0-.7-.01-.7-.67-.71h-2.09c-.63.01-.66.02-.66.65v5.27c0 .25 0 .49-.14.78l-1.7-2.06c-1.71-2.03-3.28-4.18-5.28-5.97-2.04-1.82-4.02-3.72-6.04-5.57a3.2 3.2 0 01-.85-1.26 56.2 56.2 0 01-2.78-9.33 61.36 61.36 0 01-.72-5.05c-.12-1.03-.24-2.07-.44-3.11-1.84 5.27-2.3 10.72-2.07 16.29-.36 0-.55-.22-.77-.38-.65-.49-1.1-1.16-1.59-1.79-3.7-4.78-7.4-9.56-10.82-14.54-2.31-3.36-4.51-6.8-6.42-10.42-.6-1.14-1.24-2.26-1.85-3.41a15.7 15.7 0 01-1.83-7.36c-.03-2.46.47-4.82 1.06-7.17a111.64 111.64 0 015.35-15.83c.9-2.17 1.86-4.32 2.8-6.47.25-.58.72-.97 1.28-1.3.16.33.07.59 0 .87-.25 1.13-.53 2.26-.72 3.41a9.07 9.07 0 001.3 6.67c2.21 3.37 4.4 6.75 6.58 10.14 2.09 3.26 4.16 6.53 6.24 9.81.43.68.82 1.38 1.23 2.06.15.26.19.49.11.8-.68 2.47 0 4.58 1.72 6.41.71.75 1.5 1.42 2.25 2.13a22.72 22.72 0 014.27 5.48 15.05 15.05 0 007.18 6.58 17.2 17.2 0 005.61 1.35c.9.06 1.8.17 2.7.15.4-.01.57.13.54.54-.02.19.01.42.02.65zm-2.8 16.81v-2.09c-.01-.61-.02-.62-.59-.63h-.85c-.58.02-.59.03-.6.63-.01 1.13-.02 2.27 0 3.4.02 1.67-.29 1.42 1.49 1.44.52 0 .54-.03.55-.59v-2.16z"/><path class="man_st7" d="M50.97 41.36c.03-.35-.23-.54-.4-.79-1.05-1.59-2.08-3.19-3.21-4.92.84.01 1.54.09 2.23.21l5.11.87c1.74.3 3.49.37 5.25.4 4.29.07 8.58.05 12.86-.02.62-.01.92.2 1.18.73.62 1.25.94 2.57.99 3.95.04 1.11.01 2.22 0 3.33-.01.53-.02.55-.58.57-1.88.06-3.77.12-5.65.15-3.9.05-7.8.11-11.7-.01-6.66-.21-13.12-1.43-19.24-4.15-4.64-2.07-8.23-5.28-10.43-9.92-.04-.09-.1-.17-.16-.27a4.45 4.45 0 00-.6 2.25c-.17 2.38.03 4.75.39 7.11.15.97.36 1.93.54 2.89.03.15.1.3 0 .45l.01-.02a7.62 7.62 0 01-2.13-3.5 20.68 20.68 0 01-.7-6.83 17.4 17.4 0 012.87-8.33 27.92 27.92 0 016.84-7 51.11 51.11 0 0111.46-6.23c2.34-.96 4.75-1.73 7.14-2.53.09-.03.2-.03.32-.05.01.26-.17.38-.28.53a98.07 98.07 0 01-3.38 4.24 29.98 29.98 0 00-5.03 8.23 17.37 17.37 0 00-.27 12.57 9.23 9.23 0 005.43 5.71c.38.12.7.43 1.14.38-.05.06-.04.09.04.1.02 0 .06-.02.06-.04 0-.07-.04-.09-.1-.06zM173.55 44.14c1.74-4.29 1.28-8.65.36-13.05-.26.12-.31.39-.42.59a27.91 27.91 0 01-2.89 4.49 14.24 14.24 0 01-4.06 3.43 45.03 45.03 0 01-20.65 6.14c-5.37.3-10.75.13-16.12.15-.98 0-1.96-.02-2.95.01-.42.01-.57-.15-.68-.53a9.74 9.74 0 01-.05-5.43c.2-.72.48-1.42.74-2.12.15-.39.38-.57.79-.59 1.19-.05 2.37-.14 3.56-.18 2.64-.08 5.27.08 7.91.11 2.84.03 5.68-.03 8.5-.43a30.55 30.55 0 005.3-1.25c.06.68-.16 1.25-.4 1.81a6.9 6.9 0 01-.95 1.59c-.62.8-1.17 1.64-1.86 2.38l-.29.22.01.07.01-.02-.03-.06c.1.09.2.11.31.03.43-.16.87-.31 1.3-.49a9.83 9.83 0 005.87-6.95c1.22-4.57.61-8.96-1.49-13.16a35.55 35.55 0 00-6.76-9.2l-1.75-1.75c.25-.13.42-.03.59.02a97.87 97.87 0 0115.4 6.44c3.75 2 6.87 4.76 9.48 8.09a17.42 17.42 0 013.48 7.43c.63 3.17.28 6.27-.71 9.31a9.33 9.33 0 01-1.34 2.92c-.07-.02-.14-.02-.21-.02z"/><path class="man_st4" d="M100.43 68.8v-9.48c.52.34.71.74.91 1.1a35.84 35.84 0 003.55 5.14 6.6 6.6 0 003.6 2.41c.51.11 1.02.11 1.53.01.82-.17.91-.09.95.7.09 1.49.25 2.97.46 4.44.03.18.08.35.16.51.32.69.4.72 1.07.32 1.64-.98 3.25-1.99 4.9-2.95a26.23 26.23 0 016.16-2.65l5.65-1.56c.34-.09.56-.26.51-.65-.06-.5.18-.96.16-1.46-.02-.3-.09-.54-.31-.76-1.81-1.87-3.39-3.94-5.01-5.98-.43-.55-.95-1.09-1.06-1.85.99.61 1.81 1.44 2.71 2.18a159.2 159.2 0 005.56 4.45c.49.37 1.03.69 1.57.99.32.18.42.4.41.75a7 7 0 01-.73 2.98c-.44.93-.9 1.86-1.38 2.77-.25.47-.26.9-.06 1.4 1.3 3.4 2.55 6.82 3.88 10.2.3.77.27 1.4-.03 2.14-.81 2-2.02 3.71-3.6 5.16-.07.07-.17.11-.26.17l.01.01c-.06-.34-.03-.66.11-.98 1.23-2.82 1-5.64-.1-8.43-.55-1.39-1.16-2.76-1.45-4.24a11.63 11.63 0 01-.18-3.77c.14-1.01-.17-2-.28-2.99-.03-.26-.25-.2-.43-.15-1.28.31-2.55.66-3.78 1.13a34.42 34.42 0 00-10.95 6.74c-.54.48-1.08.96-1.58 1.48-.26.27-.5.34-.89.26-1.31-.26-2.3-1.3-2.35-3.05-.04-1.65-.02-3.31-.02-4.96v-.8c-.29.05-.39.24-.5.4a8.18 8.18 0 00-.62 8.39c.68 1.52 1.59 2.9 2.65 4.17.27.33.39.65.32 1.06-.26 1.42-.06 2.84.1 4.24a27.66 27.66 0 002.06 7.67c.12.29.15.57.07.9-.34 1.51-.61 3.03-.97 4.54-.12.51.01.83.42 1.1.45.3.9.6 1.33.94.72.58 1.17 1.29 1.02 2.3-.4-.01-.73-.17-1.03-.34-.86-.5-1.59-.24-2.25.37-.91.84-1.51 1.89-2.09 2.96-.77 1.43-1.52 2.88-2.25 4.33-.21.41-.48.72-.86.96-1.38.87-2.83 1.49-4.51 1.36a15.2 15.2 0 002.34-3.52 8 8 0 00.38-5.28c-.37-1.45-1-2.81-1.91-4.02-.63-.82-1.4-1.51-2.16-2.2l-.47-.4a1.18 1.18 0 01-.49-1.14c.04-.44 0-.88.01-1.31a6.05 6.05 0 00-.13-1.53c.2 0 .25-.13.28-.3l.47-1.87c.87-3.41 1.95-6.74 3.99-9.67.22-.32.2-.59.02-.92-.47-.92-.94-1.84-1.36-2.78a43.14 43.14 0 01-2.86-9.45c-.1-.56-.05-1.18-.41-1.69zM87.41 100.16c.54 1.17.64.78-.24 1.7-.12.13-.24.28-.39.36-.93.51-1.23 1.31-1.07 2.32-.03.62.22 1.04.86 1.18.52.12.66.52.66 1-.01.83.07 1.64.29 2.45a5.08 5.08 0 003.06 3.47c.48.2.84.46 1.12.89a8.7 8.7 0 005.18 3.69c.69.2 1.39.38 2.11.49.18.03.35.08.52.15.19.07.44.11.48.34.04.24-.18.36-.35.47a6.1 6.1 0 01-2.81 1.02c-1.75.19-3.49.18-5.25.06-1.31-.09-2.63-.13-3.94-.19a1.43 1.43 0 01-1.03-.42 425.89 425.89 0 00-5.29-5.12c-.38-.36-.54-.69-.46-1.27.21-1.7.85-3.24 1.5-4.78.48-1.14.95-2.29 1.21-3.51.24-1.14.38-2.28.06-3.44-.24-.05-.23.15-.29.28l-.88 1.81c-.29.58-.54.63-.99.16-.84-.88-1.66-1.77-2.47-2.67-1.29-1.41-2.56-2.84-3.84-4.25l-5.43-5.95c-.07-.07-.1-.18-.15-.26.04-.3-.09-.56-.17-.83a21.2 21.2 0 01-.91-7.25c.01-.18.04-.36.08-.53.36-1.43.98-2.77 1.46-4.16.45-1.3.78-2.61.78-4v-3.41c0-.31-.03-.62.09-.92.37.24.71.54 1.11.7.8.32 1.02.91 1.16 1.7.42 2.36 1.4 4.46 3.2 6.1a11.81 11.81 0 005.77 2.76c.14 1.23.46 2.42.76 3.61.67 2.67 1.55 5.28 1.87 8.03.02.2.1.34.28.43-.03.53-.17 1.06-.11 1.6.2 1.7.64 3.32 1.51 4.8.28.5.49 1.04.95 1.39zM87.7 121h24.94c.01.53-.21.94-.43 1.34a8.44 8.44 0 01-1.54 1.93.87.87 0 01-.7.26h-.31c-6.17 0-12.34-.01-18.51.01-.54 0-.9-.14-1.22-.6-.67-.98-1.42-1.89-2.23-2.94z"/><path class="man_st4" d="M67.82 67.15a32.1 32.1 0 014.16.07 28.4 28.4 0 0110.72 3.46c1.78.99 3.39 2.24 5.07 3.39.68.47.84.45 1.33-.2.45-.59.65-1.29.63-2.03-.03-1.14.25-2.26.16-3.39-.01-.18-.02-.42.2-.45.23-.03.35.16.4.39-.03.04-.09.08-.08.12l.32 2.92c.14 1.28.3 2.56.24 3.86a3.26 3.26 0 01-2.19 3c-.34.13-.64.15-.92-.12-.43-.41-.94-.73-1.35-1.17a32.54 32.54 0 00-10.52-6.81 16.76 16.76 0 00-3.68-1.16c-.48-.08-.99.03-1.45-.19-.74-.23-1.39-.62-2.06-1-.23-.13-.45-.46-.8-.23-.16-.12-.16-.29-.18-.46z"/><path class="man_st8" d="M62.93 63.14c0 1.01 0 1.02-.92 1.38-1.99.79-4.02 1.48-5.94 2.42a36.92 36.92 0 00-9.27 6.39c-.71.68-1.37 1.4-2.05 2.1l-.38.39c-.16.16-.36.21-.57.1-.24-.12-.28-.35-.26-.6.02-.19.14-.33.24-.48a35.15 35.15 0 016.43-7.39 43.67 43.67 0 016.16-4.4 6.55 6.55 0 013.89-1.07c.69.04 1.39-.03 2.08.1.58.11.58.11.59.67v.39zM156.58 76.26c-1.03-.65-1.84-1.57-2.75-2.36-1.77-1.54-3.51-3.12-5.47-4.42-1.84-1.22-3.83-2.14-5.81-3.07-1.56-.74-3.1-1.54-4.75-2.07-.29-.09-.42-.25-.42-.56.01-1.67-.16-1.54 1.41-1.44 1.54.1 3.07.38 4.56.8 1.31.37 2.44 1.07 3.53 1.88a46.84 46.84 0 015.48 4.66 27.84 27.84 0 013.23 3.95c.52.8.89 1.67.99 2.63z"/><path class="man_st9" d="M67.99 67.61c.35-.23.57.1.8.23.67.37 1.33.77 2.06 1l.06.22c-.12.3-.09.61-.09.92v3.41c0 1.38-.33 2.7-.78 4-.48 1.39-1.1 2.73-1.46 4.16-.04.17-.07.35-.08.53a21.2 21.2 0 00.91 7.25c.08.27.21.53.17.83a21.88 21.88 0 01-4.43-6.38 1.67 1.67 0 01-.04-1.26 77.53 77.53 0 014.13-10.74 1.4 1.4 0 00-.01-1.32c-.44-.95-.83-1.9-1.24-2.85z"/><path class="man_st8" d="M100.71 170.57c-.16-.47-.12-.73-.12-.98v-23.64c0-1.04-.09-.96.96-.96h1.94c.34-.01.54.09.53.48v1.78c.01.36-.16.52-.51.52l-.93.01c-.37.01-.57.21-.58.58l-.01.7c0 6.36-.03 12.71.03 19.07 0 1.11-.73 1.6-1.31 2.44zM103.17 167.28c-.13-.34.05-.68.05-1.03-.01-1.01.01-2.02.03-3.02l.13-6.58c.01-.6.02-.61.6-.62h2.17c.57.01.64.06.64.62v6.12c0 .24-.04.45-.2.65l-3.01 3.64c-.09.11-.17.27-.41.22zM116.18 93.15a5.97 5.97 0 01-.65-2.27c-.39-3.04.01-6 1.1-8.87.32-.85.87-1.31 1.74-1.4.15-.02.28-.15.48-.02.07.27-.1.52-.2.76a36.3 36.3 0 00-2.2 7.71c-.2 1.35-.24 2.71-.27 4.09z"/><path class="man_st4" d="M105.41 151.98v2.16c.01.36-.15.51-.51.5h-1.08c-.33.01-.47-.13-.46-.46v-2.32c0-.75.01-1.49 0-2.24 0-.32.12-.47.45-.47 1.95.02 1.54-.19 1.59 1.43.02.47.01.93.01 1.4z"/><path class="man_st2" d="M123.95 72.55a5.6 5.6 0 01-5.78 4.31l5.78-4.31z"/><path class="man_st5" d="M100.49 143.6l-1.38-.01c-.31 0-.41-.16-.34-.45l.13-.52c.06-.3.25-.43.55-.42l1 .01.11-.01.02 1.41-.09-.01z"/><path class="man_st8" d="M100.57 143.61l-.02-1.41c.36 0 .71-.01 1.07.01.47.03.88.82.65 1.22-.09.16-.25.15-.4.15-.43.02-.86.03-1.3.03zM100.59 135.07c.09.07.13.15.14.26.05.77.12 1.54.14 2.31.02.85.06 1.7.29 2.52.03.1.03.2.04.31.01.18-.06.3-.26.31-.16.01-.32-.02-.34-.23-.02-.15-.02-.31-.02-.46l.01-5.02c.01 0 0 0 0 0z"/><path class="man_st0" d="M173.55 44.14h.22c-.1.44-.42.75-.73 1.24.14-.53.28-.9.51-1.24z"/><path class="man_st8" d="M149.39 41.47l.29-.22.01.23c-.11.09-.22.06-.31-.03l.01.02zM156.57 76.27l.07.06-.04-.01-.03-.05c.01-.01 0 0 0 0z"/><path class="man_st4" d="M131.76 89.3l-.02.06-.04.01.07-.06-.01-.01z"/><path class="man_st7" d="M27.54 44.16c.05-.04.09-.04.1.01 0 .03-.02.06-.04.09l-.05-.12c.01.01-.01.02-.01.02z"/><path d="M70.91 69.05l-.06-.22c.46.22.97.12 1.45.19 1.29.21 2.49.67 3.68 1.16a32.83 32.83 0 018.39 4.9c.74.6 1.48 1.21 2.13 1.91.41.44.91.76 1.35 1.17.29.27.58.25.92.12a3.26 3.26 0 002.19-3c.06-1.29-.1-2.58-.24-3.86l-.32-2.92c0-.04.05-.08.08-.12 1.53 1.9 2.52 4.02 2.47 6.51a9.62 9.62 0 01-1.34 4.48 17.59 17.59 0 01-1.97 2.87c-.27.32-.36.65-.4 1.05-.16 2.08-.24 4.17-.6 6.24a29.6 29.6 0 01-.9 3.6 11.62 11.62 0 00-.63 4.49c.07.85.19 1.69.29 2.53-.46-.36-.67-.89-.95-1.37a12.1 12.1 0 01-1.51-4.8c-.06-.54.08-1.07.11-1.6.4-2.42.33-4.83-.13-7.24a19.26 19.26 0 00-1.06-3.72c-.37-.9-.77-1.14-1.72-1.12a11.9 11.9 0 01-5.77-2.76 10.4 10.4 0 01-3.2-6.1c-.14-.79-.36-1.39-1.16-1.7-.39-.15-.73-.45-1.1-.69zm11.39 7.97c-1.42-1.72-2.97-3.2-5.35-3.68 1.24 2.17 2.96 3.43 5.35 3.68z" fill="#070202"/><path d="M100.43 68.8c.36.51.31 1.13.42 1.7a43.47 43.47 0 002.86 9.45c.41.94.89 1.86 1.36 2.78.17.33.2.6-.02.92-2.04 2.93-3.12 6.26-3.99 9.67l-.47 1.87c-.04.17-.09.3-.28.3a36.82 36.82 0 00-3.2-9.59c-.41-.86-.78-1.75-1.18-2.61a.8.8 0 01.03-.8 37.63 37.63 0 003.57-9.71c.31-1.28.62-2.56.82-3.86-.01-.05.05-.08.08-.12z" fill="#060101"/><path class="man_st12" d="M73.92 60.04c.62-.29 1.25-.22 1.84-.33 1.32-.24 2.67-.29 4.01-.21a9.7 9.7 0 017.46 3.97c.03.04.03.1.06.19a2.73 2.73 0 01-1.51-.45 17.16 17.16 0 00-9.68-2.47c-.31.01-.62.02-.93.01a1.49 1.49 0 01-1.25-.71zM125.7 60.5a22.56 22.56 0 00-13.11 3.57c.37-.88.96-1.58 1.64-2.2a9.96 9.96 0 014.63-2.2c1.86-.42 3.69-.2 5.53.08.53.08.9.42 1.31.75z"/><path class="man_st5" d="M97.8 151.88v2.16c-.01.56-.03.59-.55.59-1.77-.01-1.46.23-1.49-1.44-.02-1.13-.01-2.27 0-3.4.01-.6.02-.61.6-.63h.85c.57.02.58.02.59.63v2.09z"/><path class="man_st3" d="M50.97 41.36c.06-.03.1-.01.09.06 0 .01-.04.04-.06.04-.07-.01-.08-.05-.03-.1z"/><path class="man_st8" d="M149.38 41.46l.03.06-.01.02-.01-.07-.01-.01z"/><path class="man_st9" d="M82.15 80.32c.95-.02 1.35.22 1.72 1.12.49 1.2.82 2.45 1.06 3.72.46 2.4.53 4.82.13 7.24-.18-.09-.26-.23-.28-.43-.32-2.75-1.2-5.36-1.87-8.03-.3-1.2-.62-2.39-.76-3.62z"/><path class="man_st2" d="M82.3 77.02c-2.39-.25-4.11-1.5-5.35-3.68 2.38.48 3.93 1.96 5.35 3.68z"/></svg>