<?xml version="1.0" encoding="utf-8"?>
<!-- Generator: Adobe Illustrator 24.1.0, SVG Export Plug-In . SVG Version: 6.00 Build 0)  -->
<svg version="1.1" id="Layer_1" xmlns="http://www.w3.org/2000/svg" xmlns:xlink="http://www.w3.org/1999/xlink" x="0px" y="0px"
	 viewBox="0 0 200 200" style="enable-background:new 0 0 200 200;" xml:space="preserve">
<path style="fill:#C1C1C1;" d="M99.7,200c-0.8-1-1.7-1.9-2.5-3c-1.5-2.1-3.1-4.2-4.7-6.2c-2.2-3-4.5-6-6.7-9
	c-2.7-3.6-5.3-7.2-8-10.9c-2.6-3.5-5.2-7.1-7.7-10.6c-1.2-1.7-2.4-3.4-3.6-5.1c-2.1-3-4.2-6.1-6.2-9.2c-2.3-3.6-4.6-7.3-6.7-11.1
	c-2.1-3.6-4-7.3-5.8-11.1c-1.3-2.8-2.6-5.7-3.6-8.7c-0.6-1.9-1-3.9-1.1-5.9c-0.1-2.8,0.3-5.6,1.1-8.3c1.3-4.4,2.7-8.8,4.1-13.3
	c0.2-0.7,0.4-1.4,0.7-2.2c-1,0.2-1.9,0.4-2.8,0.7c-2,0.5-4.1,0.9-6.2,1.1c-1.3,0.1-2.6,0.2-3.9,0.1c-0.9,0-1.7-0.1-2.6-0.2
	c-0.4-0.1-0.5-0.2-0.5-0.5c0.5-4.1,1.5-8,3.5-11.6c1.2-2.2,2.6-4.4,4.2-6.4c1.1-1.4,2.4-2.6,3.6-3.8c0.2-0.2,0.4-0.4,0.6-0.6
	c-1.5-0.4-2.9-0.8-4.4-1.2c-2-0.6-4-1.3-5.9-2.1c-2.8-1.2-5.3-2.7-7.7-4.6c-3.9-3-6.7-6.7-8.3-11.3c-0.6-1.7-1-3.5-1.2-5.3
	c0-0.4-0.2-0.7-0.1-1.1c-0.3-1.7-0.3-3.4,0-5.1c0.2-2.2,0.8-4.3,1.6-6.3c1.1-2.6,2.7-4.9,4.5-7.1c2-2.3,4.2-4.2,6.6-5.9
	c2.5-1.8,5.1-3.3,7.9-4.6c2.8-1.3,5.7-2.5,8.6-3.6c2.7-1,5.5-1.8,8.3-2.5c2.5-0.6,5.1-1.1,7.7-1.5c2.1-0.3,4.1-0.7,6.2-1
	C70.5,0.6,72.2,0.3,74,0c0,0,0.1,0,0.2,0c0,0.2-0.2,0.3-0.3,0.4c-2.1,2.1-4.2,4.2-6.4,6.2c-3.5,3.3-7,6.8-10.3,10.3
	c-2.4,2.5-4.4,5.2-6,8.2c-0.4,0.9-0.8,1.8-1,2.8c-0.2,0.9,0,1.5,0.9,2c0.9,0.5,1.8,0.7,2.8,0.9c1.4,0.3,2.9,0.3,4.4,0.3
	c4.8,0,9.6,0,14.4,0c1,0,2-0.2,2.9-0.6c3.9-1.8,7.9-3,12.1-3.8c1.6-0.3,3.2-0.5,4.7-0.7c3.8-0.5,7.7-0.5,11.5-0.4
	c1.8,0.1,3.5,0.3,5.3,0.5c1.7,0.3,3.4,0.5,5,0.9c2.5,0.6,4.8,1.5,7.2,2.3c1.5,0.5,2.9,1,4.4,1.5c0.7,0.2,1.3,0.3,2.1,0.3
	c2.1,0,4.1,0,6.2,0c2.9,0,5.8,0,8.7,0c1.7,0,3.4-0.3,5.1-0.9c1.6-0.6,2-1.2,1.5-3c-0.7-2.3-1.9-4.3-3.3-6.2c-1-1.3-2.1-2.5-3.2-3.7
	c-2.5-2.5-4.9-5-7.4-7.4c-0.8-0.8-1.7-1.6-2.5-2.4c-1.8-1.9-3.6-3.9-5.3-6c-0.3-0.4-0.7-0.9-1.1-1.3c0.1-0.1,0.1-0.1,0.1-0.1
	c1.4,0.2,2.9,0.5,4.3,0.7c1,0.1,2.1,0.3,3.1,0.4c2,0.2,4,0.5,6,0.9c3.9,0.8,7.8,1.8,11.6,3.1c4.3,1.5,8.5,3.2,12.4,5.3
	c2.6,1.4,5.1,3.1,7.4,5c1.4,1.2,2.8,2.4,4,3.8c1.7,1.8,3.1,3.7,4.2,5.9c1.2,2.4,1.9,4.9,2.3,7.5c0.2,1.9,0.2,3.7,0.1,5.6
	c-0.2,2.5-0.8,4.9-1.8,7.3c-1.4,3.4-3.4,6.3-6,8.8c-1.8,1.7-3.8,3.1-6,4.3c-3.5,2-7.2,3.4-11.1,4.5c-1,0.3-2.1,0.5-3.1,0.8
	c0.1,0.3,0.3,0.5,0.5,0.6c2.5,2.3,4.6,5,6.4,7.9c1.8,3,3.2,6.1,4,9.4c0.4,1.4,0.8,2.8,1.2,4.2c0.2,0.6,0.1,0.6-0.5,0.7
	c-1.3,0.1-2.7,0.3-4,0.3c-2.6,0-5.1-0.3-7.6-0.8c-1.2-0.2-2.3-0.5-3.5-0.8c0.2,0.9,0.5,1.6,0.8,2.4c1.2,3.5,2.1,7,3.2,10.5
	c0.5,1.6,0.9,3.3,1.2,5c0.1,0.7,0.2,1.4,0.2,2.2c0,0.6,0.1,1.3,0.1,1.9c-0.1,0.9,0,1.8-0.1,2.7c-0.2,1.8-0.5,3.6-1,5.4
	c-0.5,1.9-1.2,3.7-2,5.4c-1.4,3-2.9,6-4.5,8.9c-2.5,4.5-5.1,9-7.9,13.3c-2.5,3.9-4.9,7.8-7.4,11.7c-2.1,3.3-4.2,6.5-6.4,9.7
	c-3.2,4.7-6.6,9.3-10,13.9c-2.5,3.3-5,6.5-7.6,9.8c-2,2.5-4,5-6,7.5c-1,1.2-2,2.5-3.2,3.6c-0.1,0.1-0.1,0.2-0.2,0.3
	C99.9,200,99.8,200,99.7,200z"/>
<path style="fill:#EBEBEB;" d="M17.4,33.4c0,1.1-0.2,2.1-0.2,3.2c0,0.6,0.3,1.3,0.2,1.9c-0.3-0.2,0-0.6-0.3-0.8c0-1.2,0-2.4,0-3.6
	C17.4,34,17.1,33.6,17.4,33.4z"/>
<path style="fill:#ECECEC;" d="M166.1,68C166.1,68.1,166,68.1,166.1,68c-0.2,0-0.3-0.1-0.3-0.2c0,0,0.1,0,0.1,0
	C166,67.8,166.1,67.9,166.1,68z"/>
<path style="fill:#040101;" d="M77.5,166.7c-0.1-0.1-0.2-0.2-0.3-0.3c-6.4-8.8-12.7-17.6-18.3-26.8c-3.2-5.3-6.3-10.7-9-16.3
	c-1.2-2.6-2.4-5.3-3.4-8c-1.5-4.1-1.6-8.3-0.4-12.5c1.7-6.1,3.7-12.1,5.5-18.1c0.2-0.8,0.6-1.5,0.9-2.4c-0.9,0.2-1.7,0.4-2.5,0.7
	c-2.5,0.7-5,1.4-7.6,1.9c-2.1,0.4-4.2,0.5-6.3,0.4c-0.6,0-0.7,0-0.6-0.7c0.3-2.1,0.9-4.1,1.8-6.1c2.4-5.5,6-10.2,10.7-14
	c0.6-0.5,1.2-1,1.9-1.5c-1.4-0.3-2.6-0.6-3.9-0.9c-3.8-0.8-7.6-1.9-11.2-3.6c-2.9-1.4-5.6-3-8-5.1c-3.7-3.3-6.1-7.4-7-12.3
	c-0.6-3.1-0.7-6.2-0.1-9.3c0.7-3.6,2.4-6.8,4.8-9.6c2.8-3.3,6.2-6,9.9-8.2c5.3-3.1,10.9-5.4,16.7-7.1c4.2-1.3,8.5-2.2,12.9-2.8
	c0.8-0.1,1.6-0.3,2.4-0.4c0.2,0,0.5-0.1,0.8,0c-0.2,0.2-0.4,0.4-0.6,0.6c-3.2,3.1-6.4,6.2-9.5,9.4c-2.5,2.5-4.9,5.2-6.8,8.2
	c-0.9,1.4-1.7,2.9-2.3,4.5c-0.2,0.6-0.4,1.3-0.5,2c-0.2,1.5,0.4,2.7,1.6,3.6c1.1,0.8,2.4,1.1,3.7,1.4c1.4,0.3,2.9,0.5,4.3,0.5
	c4.7,0,9.4,0,14.1,0c2,0,3.9-0.4,5.8-1.2c3.9-1.8,8-2.9,12.2-3.5c3.5-0.6,6.9-0.9,10.4-0.9c6.8-0.1,13.5,1,19.9,3.4
	c1.7,0.6,3.4,1.2,5.1,1.7c1,0.3,1.9,0.5,3,0.5c4.8,0.1,9.6,0.1,14.4,0c2,0,3.9-0.3,5.8-0.9c0.6-0.2,1.1-0.4,1.6-0.7
	c1.6-0.9,2.2-2.3,1.9-4.1c-0.2-0.9-0.4-1.8-0.8-2.6c-1.3-3-3.1-5.7-5.3-8c-2.9-3.1-5.9-6-8.9-8.9c-1.4-1.3-2.7-2.7-4.1-4.1
	c-0.2-0.2-0.3-0.4-0.6-0.6c0.9-0.1,1.7,0.1,2.5,0.2c8.4,1.1,16.4,3.4,24.1,6.8c4.7,2.1,9.2,4.7,13,8.2c1.4,1.3,2.7,2.7,3.9,4.2
	c2.6,3.3,4.1,7.1,4.4,11.3c0.6,8.5-2.5,15.4-9.3,20.5c-3.8,2.9-8.2,4.8-12.7,6.1c-2.7,0.8-5.4,1.3-8.2,1.9c-0.1,0-0.3,0-0.3,0.1
	c0,0.2,0.2,0.3,0.3,0.4c0.9,0.9,1.8,1.7,2.7,2.4c4,3.5,6.9,7.8,9.1,12.6c0.9,2,1.4,4.1,2,6.2c0.1,0.4,0.1,0.5-0.4,0.5
	c-1.2,0.1-2.4,0.1-3.6,0c-3.5-0.3-6.9-1.2-10.3-2c-0.6-0.1-1.1-0.3-1.8-0.4c0.1,0.3,0.1,0.5,0.2,0.6c2.1,5.6,3.8,11.2,5.4,16.9
	c1.8,6.2,1.4,12.3-0.9,18.2c-1.1,2.8-2.5,5.4-3.9,8.1c-3.2,6.2-6.9,12.2-10.6,18.1c-4.6,7.3-9.1,14.6-14,21.6
	c-0.2,0.3-0.4,0.7-0.7,0.9c-0.3-0.2-0.1-0.5-0.1-0.7c0.1-0.3,0.1-0.6-0.1-0.9c-0.1-0.3-0.2-0.5-0.2-0.8c0.1-1.9,0-3.8-0.2-5.7
	c-0.1-1.4,0.3-2.8,0.6-4.2c0.8-3.2,1.5-6.5,2.3-9.7c0.1-0.3,0.2-0.5,0.1-0.9c-0.6,0.5-1.2,1-1.7,1.5c-2.3,2.2-4.7,4.4-7.1,6.6
	c-1.1,1-2.1,2-3.2,2.9c-1.4,1.3-2.5,2.8-3.8,4.3c-0.9,1.1-1.8,2.2-2.7,3.3c-0.1,0.2-0.3,0.5-0.5,0.1c-0.2-0.9-0.1-1.8-0.1-2.6
	c0-1.1,0-2.2,0-3.3c0-0.6-0.3-0.9-0.9-0.9c-0.4,0-0.9,0-1.3,0c-0.5,0-0.8,0.2-0.7,0.7c0.1,1.5-0.2,3-0.2,4.6c0,1.9,0,3.8,0,5.6
	c-0.1,0.8-0.8,1.2-1.3,1.7c-0.1,0.1-0.2-0.1-0.3-0.2c-0.1-0.4-0.1-0.7-0.1-1.1c0-6.1,0-12.3,0-18.4c0-0.2,0-0.5,0-0.7
	c0.1-0.8,0.3-1.1,1.1-1.1c0.7,0,1-0.4,0.9-1c0-0.1,0-0.1,0-0.2c0-1.1-0.1-1.1-1.1-1.2c-0.7,0-1.3,0.1-2-0.1c-0.5-1-0.3-1.5,0.7-1.5
	c0.2,0,0.4,0,0.5-0.1c0.3-0.3,0.1-0.6-0.1-0.9c-0.1-0.1-0.3-0.1-0.4-0.1c-0.3,0-0.8,0-0.9-0.4c-0.1-0.5-0.1-0.9,0.3-1.2
	c0.1,0,0.1-0.1,0.1-0.2c-0.1-1.5-0.3-3-0.3-4.5c0-0.3,0-0.6,0-0.9c0-0.1-0.1-0.2-0.1-0.4c0-0.5-0.3-0.7-0.8-0.8
	c-1-0.1-2-0.1-2.9-0.2c-5.3-0.6-9.4-3-12.2-7.7c-1.5-2.6-3.5-4.9-5.8-6.9c-1-0.8-1.7-1.8-2.3-2.9c-0.7-1.3-0.7-2.6-0.5-4
	c0.1-0.7,0-1.3-0.3-1.9c-2-3.3-4.2-6.6-6.2-9.9c-2.4-3.8-4.8-7.6-7.3-11.3c-1.7-2.5-1.9-5.2-1.3-8c0.2-0.9,0.4-1.8,0.7-3
	c-0.6,0.4-0.9,0.7-1.1,1.2c-3.6,8.1-6.9,16.3-8.7,25.1c-0.8,3.8-0.6,7.5,1.1,11c1.6,3.2,3.4,6.4,5.3,9.5c4.5,7.1,9.7,13.8,14.8,20.4
	c0.3,0.4,0.6,1.1,1.1,0.9c0.3-0.1,0.1-0.8,0-1.3c-0.2-1.5,0.1-3,0.2-4.6c0.2-3.1,0.7-6.2,1.7-9.2c0.1-0.4,0.1-0.9,0.6-0.9
	c0.4,0,0.3,0.6,0.3,0.9c0.5,3.8,0.8,7.7,2,11.4c0.5,1.7,1,3.3,1.7,4.9c0.1,0.3,0.4,0.6,0.1,1c-0.4,0-0.6-0.3-0.9-0.5
	c-1.3-1.2-2.6-2.5-4.1-3.7c0.1,1.1,0.4,2,0.6,3c0.8,3.2,1.5,6.5,2.2,9.7c0.1,0.4,0.1,0.9,0.1,1.3c0,1.6-0.2,3.2-0.2,4.9
	c-0.1,0.3-0.1,0.6,0,0.9C77.9,164.9,77.9,165.8,77.5,166.7z"/>
<path style="fill:#97181B;" d="M86.8,179.2c-0.9-1-1.6-2-2.3-3.1c-1.7-2.2-3.3-4.5-5-6.7c-0.1-0.1-0.2-0.3-0.3-0.5
	c-0.2-1-0.1-2.1,0-3.1c0.1-1.2,0.1-2.4,0.2-3.6c0.1-1,0.1-2.1,0.2-3.1c0.2-1.9-0.4-3.7-0.8-5.6c-0.3-1.2-0.6-2.3-0.8-3.5
	c0-0.2-0.1-0.5,0.1-0.6c0.2-0.1,0.4,0.1,0.6,0.2c2,1.9,4,3.8,6.1,5.6c2.6,2.3,4.6,5,6.8,7.6c2.7,3.2,5.3,6.5,8,9.8
	c0.4,0.5,0.6,0.5,1,0c3-3.6,6-7.3,9-10.9c0-0.1,0.1-0.1,0.1-0.2c0,0,0,0,0.1-0.1c0,0,0.1-0.1,0.1-0.1c0,0,0,0,0.1-0.1
	c0.1-0.1,0.1-0.1,0.1-0.2c0,0,0.1-0.1,0.1-0.1c0,0,0.1-0.1,0.1-0.1c0,0,0,0,0.1-0.1c0,0,0.1-0.1,0.1-0.1c0,0,0.1-0.1,0.1-0.1
	c0,0,0.1-0.1,0.1-0.1c0,0,0.1-0.1,0.1-0.1c0,0,0.1-0.1,0.1-0.1c0,0,0-0.1,0-0.1c0,0,0.1-0.1,0.1-0.1c0,0,0.1-0.1,0.1-0.1
	c0,0,0.1-0.1,0.1-0.1c0,0,0.1-0.1,0.1-0.1c0,0,0.1-0.1,0.1-0.1c0,0,0.1-0.1,0.1-0.1c0,0,0.1-0.1,0.1-0.1c0,0,0-0.1,0-0.1
	c0,0,0-0.1,0.1-0.1c0,0,0-0.1,0.1-0.1c0,0,0.1-0.1,0.1-0.1c0,0,0.1-0.1,0.1-0.1c0,0,0.1-0.1,0.1-0.1c0,0,0.1-0.1,0.1-0.1
	c0,0,0.1-0.1,0.1-0.1c0,0,0.1-0.1,0.1-0.1c0,0,0.1-0.1,0.1-0.1c0,0,0-0.1,0-0.1c0,0,0.1-0.1,0.1-0.1c0,0,0.1-0.1,0.1-0.1
	c0,0,0.1-0.1,0.1-0.1c0,0,0.1-0.1,0.1-0.1c0,0,0.1-0.1,0.1-0.1c0,0,0.1-0.1,0.1-0.1c0,0,0.1-0.1,0.1-0.1c0,0,0.1-0.1,0.1-0.1
	c0,0,0.1-0.1,0.1-0.1c0,0,0-0.1,0-0.1c0,0,0-0.1,0.1-0.1c0,0,0.1-0.1,0.1-0.1c0,0,0.1-0.1,0.1-0.1c0,0,0.1-0.1,0.1-0.1
	c0,0,0.1-0.1,0.1-0.1c0,0,0.1-0.1,0.1-0.1c0,0,0.1-0.1,0.1-0.1c0,0,0.1-0.1,0.1-0.1c0,0,0.1,0,0.1-0.1c0,0,0.1-0.1,0.1-0.1
	c0,0,0.1-0.1,0.1-0.1c0,0,0.1,0,0.1,0c0,0,0.1-0.1,0.1-0.1c0,0,0.1,0,0.1-0.1c0,0,0.1-0.1,0.1-0.1c0,0,0.1-0.1,0.1-0.1
	c0,0,0.1-0.1,0.1-0.1c0,0,0.1-0.1,0.1-0.1c0,0,0.1-0.1,0.1-0.1c0,0,0.1-0.1,0.1-0.1c0,0,0.1-0.1,0.1-0.1c0,0,0.1-0.1,0.1-0.1
	c0,0,0.1-0.1,0.1-0.1c0,0,0.1-0.1,0.1-0.1c0,0,0.1-0.1,0.1-0.1c0,0,0.1-0.1,0.1-0.1c0,0,0.1-0.1,0.1-0.1c0,0,0.1-0.1,0.1-0.1
	c0,0,0.1-0.1,0.1-0.1c0,0,0,0,0.1-0.1c0,0,0.1-0.1,0.1-0.1c0,0,0.1-0.1,0.1-0.1c0.1,0,0.1-0.1,0.2-0.1c0,0,0.1-0.1,0.1-0.1
	c0,0,0.1-0.1,0.1-0.1c0,0,0.1-0.1,0.1-0.1c0,0,0.1-0.1,0.1-0.1c0,0,0.1-0.1,0.1-0.1c0,0,0.1-0.1,0.1-0.1c0,0,0.1-0.1,0.1-0.1
	c0,0,0.1-0.1,0.1-0.1c0,0,0.1-0.1,0.1-0.1c0,0,0.1-0.1,0.1-0.1c0,0,0.1-0.1,0.1-0.1c0,0,0.1-0.1,0.1-0.1c0,0,0.1-0.1,0.1-0.1
	c0,0,0.1-0.1,0.1-0.1c0,0,0.1-0.1,0.1-0.1c0,0,0.1-0.1,0.1-0.1c0,0,0.1-0.1,0.1-0.1c0,0,0.1-0.1,0.1-0.1c0,0,0.1-0.1,0.1-0.1
	c0,0,0.1-0.1,0.1-0.1c0,0,0,0,0.1-0.1c0,0,0.1-0.1,0.1-0.1c0,0,0.1-0.1,0.1-0.1c0.1,0,0.1-0.1,0.2-0.1c0,0,0.1-0.1,0.1-0.1
	c0,0,0.1-0.1,0.1-0.1c0,0,0.1-0.1,0.1-0.1c0,0,0.1-0.1,0.1-0.1c0,0,0.1-0.1,0.1-0.1c0,0,0.1-0.1,0.1-0.1c0,0,0.1-0.1,0.1-0.1
	c0,0,0.1-0.1,0.1-0.1c0,0,0.1-0.1,0.1-0.1c0,0,0.1-0.1,0.1-0.1c0,0,0.1-0.1,0.1-0.1c0,0,0.1-0.1,0.1-0.1c0,0,0.1-0.1,0.1-0.1
	c0,0,0.1-0.1,0.1-0.1c0,0,0.1-0.1,0.1-0.1c0,0,0.1-0.1,0.1-0.1c0,0,0.1-0.1,0.1-0.1c0,0,0.1-0.1,0.1-0.1c0,0,0,0,0.1-0.1
	c0,0,0.1-0.1,0.1-0.1c0,0,0.1-0.1,0.1-0.1c0.1,0,0.1-0.1,0.2-0.1c0,0,0.1-0.1,0.1-0.1c0,0,0.1-0.1,0.1-0.1c0,0,0.1-0.1,0.1-0.1
	c0,0,0.1-0.1,0.1-0.1c0,0,0.1-0.1,0.1-0.1c0,0,0.1-0.1,0.1-0.1c0,0,0.1-0.1,0.1-0.1c0,0,0.1-0.1,0.1-0.1c0,0,0.1-0.1,0.1-0.1
	c0,0,0.1-0.1,0.1-0.1c0,0,0.1-0.1,0.1-0.1c0,0,0.1-0.1,0.1-0.1c0,0,0.1-0.1,0.1-0.1c0,0,0.1-0.1,0.1-0.1c0,0,0,0,0.1-0.1
	c0,0,0.1-0.1,0.1-0.1c0,0,0,0,0.1-0.1c0,0,0.1-0.1,0.1-0.1c0,0,0.1,0,0.1-0.1c0.1,0,0.1,0,0.2,0c0,0,0.1,0,0.1,0
	c0.2,0.2,0.1,0.4,0.1,0.6c0,0.1,0,0.1,0,0.2c-0.1,0.2-0.1,0.3-0.1,0.5c0,0.1,0,0.1,0,0.2c-0.1,0.1-0.1,0.3-0.1,0.5
	c0,0.1,0,0.2-0.1,0.3c-0.1,0.1-0.1,0.3-0.1,0.5c0,0.1,0,0.1,0,0.2c-0.1,0.1-0.1,0.3-0.1,0.5c0,0.1,0,0.1,0,0.2
	c-0.1,0.1-0.1,0.3-0.1,0.5c0,0.1,0,0.2-0.1,0.3c-0.1,0.1-0.1,0.3-0.1,0.5c0,0.1,0,0.1,0,0.2c-0.1,0.1-0.1,0.3-0.1,0.5
	c0,0.1,0,0.1,0,0.2c-0.1,0.1-0.1,0.3-0.1,0.5c0,0.1,0,0.1,0,0.2c-0.1,0.2-0.1,0.4-0.1,0.6c0,0.1,0,0.1,0,0.2
	c-0.1,0.2-0.1,0.3-0.1,0.5c0,0.1,0,0.1,0,0.2c-0.1,0.2-0.1,0.3-0.1,0.5c0,0.1,0,0.2,0,0.3c0,0.6-0.1,1.3,0.1,1.9
	c0.1,0.3,0.1,0.5,0.1,0.8c0,0.7-0.1,1.4,0.1,2.1c0.1,0.3,0.1,0.5,0.1,0.8c0,0.7-0.1,1.4,0.1,2.1c0,0.2,0.1,0.3,0.1,0.5
	c0,0.6-0.1,1.3,0.1,1.9c0.1,0.3,0.1,0.6,0.1,0.9c0,0.2-0.1,0.4-0.1,0.6c-2.5,3.5-5,6.9-7.7,10.3c-0.4-0.7-0.3-1.4-0.2-2.1
	c0.2-1.5,0.1-2.9,0.1-4.4c0-1.2,0.1-2.4,0.1-3.6c-1.1,1.2-2.1,2.5-3.1,3.7c-3.1,3.9-6.3,7.7-9.4,11.5c-0.6,0.8-0.9,0.8-1.6-0.1
	c-4.1-5-8.2-10-12.3-15c0,0-0.1-0.1-0.2-0.1c-0.1,0.5,0.1,1,0.1,1.5c0,2.4,0,4.7,0.1,7.1C87,178.6,87.1,179,86.8,179.2z"/>
<path d="M120.9,154.8c0,0,0-0.1,0-0.1c0.1-0.1,0-0.3,0.1-0.5c0,0,0-0.1,0-0.1c0.1-0.1,0-0.4,0.1-0.5c0-0.1,0-0.2,0-0.3
	c0.1-0.1,0-0.3,0.1-0.5c0,0,0-0.1,0-0.1c0.1-0.1,0-0.3,0.1-0.5c0,0,0-0.1,0-0.1c0.1-0.1,0-0.4,0.1-0.5c0-0.1,0-0.2,0-0.3
	c0.1-0.1,0-0.3,0.1-0.5c0,0,0-0.1,0-0.1c0.1-0.1,0-0.3,0.1-0.5c0,0,0-0.1,0-0.1c0.1-0.5,0.1-0.5-0.2-0.6l0,0c-0.1,0-0.1,0.1-0.2,0.2
	l0,0c-0.1,0-0.1,0.1-0.2,0.2l0,0c-0.1,0-0.1,0.1-0.2,0.2l0,0c-0.1,0-0.1,0.1-0.2,0.2l0,0c-0.1,0-0.1,0.1-0.2,0.2l0,0
	c-0.1,0-0.1,0.1-0.2,0.2l0,0c-0.1,0-0.1,0.1-0.2,0.2l0,0c-0.1,0.1-0.1,0.1-0.2,0.1l0,0c0,0.1-0.1,0.1-0.2,0.1l0,0
	c0,0.1-0.1,0.1-0.1,0.1l0,0c-0.1,0.1-0.3,0.2-0.4,0.3l0,0c-0.1,0-0.1,0.1-0.2,0.2l0,0c-0.1,0-0.1,0.1-0.2,0.2l0,0
	c-0.1,0-0.1,0.1-0.2,0.2l0,0c-0.1,0-0.1,0.1-0.2,0.2l0,0c-0.1,0-0.1,0.1-0.2,0.2l0,0c-0.1,0-0.1,0.1-0.2,0.2l0,0
	c-0.1,0-0.1,0.1-0.2,0.2l0,0c-0.1,0-0.1,0.1-0.2,0.2l0,0c0,0.1-0.1,0.1-0.2,0.1l0,0c0,0.1-0.1,0.1-0.1,0.1l0,0
	c-0.1,0.1-0.3,0.2-0.4,0.3l0,0c-0.1,0-0.1,0.1-0.2,0.2l0,0c-0.1,0-0.1,0.1-0.2,0.2l0,0c-0.1,0-0.1,0.1-0.2,0.2l0,0
	c-0.1,0-0.1,0.1-0.2,0.2l0,0c-0.1,0-0.1,0.1-0.2,0.2l0,0c-0.1,0-0.1,0.1-0.2,0.2l0,0c-0.1,0-0.1,0.1-0.2,0.2l0,0
	c-0.1,0-0.1,0.1-0.2,0.2l0,0c0,0.1-0.1,0.1-0.2,0.1l0,0c0,0.1-0.1,0.1-0.1,0.1l0,0c0,0.1-0.1,0.1-0.1,0.1l0,0
	c-0.1,0.1-0.3,0.2-0.4,0.3l0,0c-0.1,0-0.1,0.1-0.2,0.2l0,0c-0.1,0-0.1,0.1-0.2,0.2l0,0c-0.1,0-0.1,0.1-0.2,0.2l0,0
	c-0.1,0-0.1,0.1-0.2,0.2l0,0c-0.1,0-0.1,0.1-0.2,0.2l0,0c-0.1,0-0.1,0.1-0.2,0.2l0,0c-0.1,0-0.1,0.1-0.2,0.2l0,0
	c-0.1,0.1-0.1,0.1-0.2,0.1l0,0c0,0.1-0.1,0.1-0.2,0.1l0,0c0,0.1-0.1,0.1-0.1,0.1l0,0c0,0.1-0.1,0.1-0.1,0.1l0,0
	c-0.1,0.1-0.2,0.1-0.3,0.2l0,0c-0.1,0-0.1,0.1-0.2,0.2l0,0c-0.1,0-0.1,0.1-0.2,0.2l0,0c-0.1,0-0.1,0.1-0.2,0.2l0,0
	c-0.1,0.1-0.1,0.2-0.2,0.3l0,0c0,0.1-0.1,0.1-0.1,0.2l0,0c0,0.1-0.1,0.1-0.1,0.2l0,0c-0.1,0-0.1,0.1-0.2,0.2l0,0
	c-0.1,0-0.1,0.1-0.2,0.2l0,0c-0.1,0.1-0.1,0.2-0.2,0.3l0,0c0,0.1-0.1,0.1-0.1,0.2l0,0c-0.1,0.1-0.1,0.1-0.1,0.2l0,0
	c-0.1,0-0.1,0.1-0.2,0.2l0,0c-0.1,0-0.1,0.1-0.2,0.2c0,0,0,0.1,0,0.1c0,0.1-0.1,0.1-0.1,0.1l0,0c0,0.1-0.1,0.1-0.1,0.2l0,0
	c-0.1,0-0.1,0.1-0.2,0.2l0,0c-0.1,0-0.1,0.1-0.2,0.2l0,0c-0.1,0.1-0.1,0.2-0.2,0.3l0,0c0,0.1-0.1,0.1-0.1,0.2l0,0
	c-0.1,0.1-0.1,0.1-0.1,0.2l0,0c-0.1,0-0.1,0.1-0.2,0.2l0,0c-0.1,0-0.1,0.1-0.2,0.2l0,0c-0.1,0.1-0.1,0.2-0.2,0.3l0,0
	c0,0.1-0.1,0.1-0.1,0.2l0,0c-0.1,0.1-0.1,0.1-0.2,0.2c-0.5,0.8-1.2,1.5-1.8,2.2c-2.5,3.1-5.1,6.2-7.7,9.3c0,0.1-0.1,0.1-0.2,0.2
	c-0.6-0.4-1-1.1-1.4-1.6c-2.3-2.8-4.7-5.7-7-8.5c-1.5-1.8-3-3.7-4.5-5.5c-0.3-0.4-0.7-0.8-1.1-1.1c-1.9-1.7-3.7-3.4-5.6-5.2
	c-0.8-0.7-1.5-1.4-2.3-2.1c-0.1,0.2-0.1,0.4,0,0.5c0.5,2.2,1,4.5,1.5,6.7c0.2,1.1,0.1,2.2,0,3.2c0,0.2-0.1,0.4-0.1,0.5
	c-0.1,1.5-0.1,3.1-0.2,4.6c-0.1,1.3,0,2.6-0.3,3.9c-0.6-0.7-1.2-1.5-1.7-2.3c0-0.9,0.2-1.9,0.2-2.8c-0.1-0.3-0.1-0.5,0-0.8
	c-0.1-1.3,0.1-2.6,0.2-3.9c0.1-1.3-0.2-2.6-0.5-3.9c-0.7-3.2-1.5-6.3-2.2-9.5c-0.1-0.6-0.3-1.2-0.4-1.8c0-0.1,0-0.2,0.1-0.3
	c1.7,1.5,3.4,3.1,5.1,4.6c0.6,0.2,1,0.6,1.4,1c2.3,2.2,4.7,4.2,6.9,6.4c1.5,1.5,2.8,3.3,4.2,5c0.3,0.4,0.7,0.8,1,1.2
	c0.2-0.2,0.1-0.4,0.1-0.6c0-1.5,0-3.1,0-4.6c0-0.9,0.2-1.1,1.1-1.1c0.5,0,1.1,0,1.6,0c1,0,1.1,0.1,1.1,1.1c0,1.7,0,3.5,0,5.2
	c0,1.5,0.2,3,0.2,4.5c0,0.5,0.3,1,0.7,1.3c0.1-0.3,0.1-0.5,0.1-0.8c0-5.9,0-11.8,0-17.8c0-1.3,0-1.3-1.3-1.5c-0.3,0-0.6-0.1-0.6-0.4
	c-0.1-0.9-0.4-1.8,0.2-2.6c0.9-0.2,1.8-0.1,2.7-0.1c0.4,0,0.6,0.3,0.7,0.7c0,0.3,0,0.7,0,1c0,7.8,0,15.6,0,23.3
	c0.3,0.3,0.4-0.1,0.6-0.2c0.3-0.2,0.4-0.6,0.8-0.7c0.5-0.5,0.9-1.1,1.4-1.6c-0.1-0.3,0.1-0.5,0.3-0.7c0.9-1,1.7-2.1,2.5-3.1
	c0.2-0.2,0.3-0.4,0.6-0.4c0.5-0.8,1.2-1.5,1.8-2.3c1.1-1.4,2.3-2.9,3.5-4.2c0.6-0.7,1.3-1.5,2.1-2c0.1-0.1,0.2-0.1,0.2-0.2
	c0.9-1,1.9-1.8,2.9-2.7c1.5-1.5,3.1-2.8,4.6-4.3c1.2-1.1,2.4-2.2,3.6-3.3c0.1-0.1,0.1-0.1,0.2-0.2c0.1-0.1,0.2-0.1,0.3-0.1
	c0.1,0.1,0.1,0.2,0.1,0.3c-0.1,0.5-0.2,0.9-0.3,1.4c-0.7,2.9-1.3,5.8-2,8.6c-0.2,1-0.5,2-0.7,3c-0.2,0.9-0.1,1.9,0,2.9
	c0,0.3,0.1,0.6,0.1,0.9c0,1.2,0.1,2.4,0,3.5c0,0.4,0,0.8,0.2,1.2c0.1,0.3,0.1,0.6,0,0.9c0.2,0.2,0,0.4,0,0.6c0,0,0,0,0,0
	c-0.1,0-0.1,0.2-0.2,0.3l0,0c0,0.1-0.1,0.1-0.1,0.2l0,0c-0.1,0.1-0.1,0.2-0.2,0.3l0,0c0,0.1-0.1,0.1-0.1,0.2l0,0
	c-0.1,0-0.1,0.1-0.1,0.2l0,0c-0.2,0-0.1,0.2-0.2,0.3l0,0c-0.1,0.1-0.1,0.1-0.1,0.2l0,0c-0.1,0-0.1,0.2-0.2,0.3l0,0
	c0,0.1-0.1,0.1-0.1,0.2l0,0c-0.2,0.1-0.2-0.1-0.3-0.2c0-0.3,0-0.6,0-0.9c-0.2-0.7,0.1-1.4-0.1-2c0-0.1,0-0.3,0-0.4
	c-0.2-0.7,0.1-1.5-0.1-2.2c0-0.3,0-0.5,0-0.8c-0.2-0.7,0.1-1.5-0.1-2.2c0-0.3,0-0.5,0-0.8c-0.2-0.7,0.1-1.4-0.1-2c0-0.1,0-0.2,0-0.3
	c0.1-0.1,0-0.3,0.1-0.5c0,0,0-0.1,0-0.1c0.1-0.1,0-0.3,0.1-0.5c0,0,0-0.1,0-0.1c0.2-0.2,0-0.4,0.2-0.6c0-0.1,0-0.1,0-0.2
	C120.9,155.2,120.8,155,120.9,154.8z"/>
<path d="M86.8,179.2c0.1-1.1,0-2.3-0.1-3.4c-0.1-1.6-0.1-3.2-0.1-4.8c0-0.6-0.2-1.2-0.1-1.9c0.6,0.5,1,1.1,1.4,1.6
	c2.1,2.5,4.1,5,6.2,7.5c1.8,2.2,3.5,4.3,5.3,6.5c0.6,0.8,0.6,0.8,1.2,0c2.7-3.3,5.4-6.6,8.1-9.9c1.4-1.7,2.8-3.5,4.3-5.2
	c0.1-0.2,0.2-0.3,0.5-0.5c0.1,0.4,0.1,0.8,0,1.2c-0.2,1.4-0.1,2.8-0.1,4.3c0,1.7-0.2,3.4-0.1,5.1c-0.5,0.8-1.1,1.5-1.7,2.2
	c-0.6-0.2-0.3-0.7-0.5-1.1c-1.1,1.3-2.1,2.5-3.1,3.8c-0.9,1-1.7,2.1-2.6,3.1c-0.2,0.2-0.3,0.5-0.6,0.3c-0.1-0.2-0.1-0.4-0.1-0.6
	c0,0,0,0,0-0.1c0-0.2-0.1,0-0.1,0c-1,1.2-1.9,2.4-2.9,3.6c-0.5,0.6-1,1.3-1.6,1.9c-0.4,0.5-0.6,0.5-1.1,0c-1.2-1.4-2.3-2.8-3.6-4.1
	c-2.1-2-3.7-4.4-5.7-6.5c-0.1-0.1-0.2-0.2-0.3-0.4c-0.4-0.6-0.4-0.6-1-0.3C87.8,180.8,87.3,180.1,86.8,179.2z"/>
<path style="fill:#040101;" d="M88.5,181.6c0.3-0.2,0.1-0.5,0.3-0.7c0.3,0,0.5,0.2,0.6,0.5c0.2,0.6,0.7,1,1.2,1.5
	c1.2,1.4,2.5,2.9,3.6,4.4c0.1,0.2,0.3,0.3,0.4,0.5c0.6,0.5,1.1,1,1.6,1.6c1,1.2,2.1,2.3,3.1,3.6c0.3,0.3,0.4,0.3,0.7,0
	c0.7-0.9,1.5-1.8,2.2-2.8c0.8-0.9,1.5-1.9,2.3-2.8c0.1-0.1,0.2-0.3,0.4-0.3c0.1,0.1,0.1,0.2,0.1,0.4c-0.1,0.3-0.1,0.5,0,0.8
	c0.6-0.6,1.1-1.3,1.7-1.9c0.7-0.8,1.4-1.7,2.1-2.5c0.7-0.9,1.4-1.8,2.2-2.7c0,0,0,0,0-0.1c0.1-0.2,0.2-0.4,0.5-0.3
	c0.2,0.1,0.2,0.4,0.1,0.5c-0.1,0.4,0,0.6,0.2,0.9c-1.2,1.6-2.4,3.2-3.7,4.8c-2.5,3.2-5.1,6.3-7.6,9.5c-0.1,0.1-0.2,0.3-0.3,0.4
	c-0.2,0-0.3-0.2-0.5-0.4c-3.6-4.8-7.3-9.7-10.9-14.5C88.5,181.7,88.5,181.6,88.5,181.6z"/>
<path style="fill:#040101;" d="M121,169c0.1,0.1,0.2,0.1,0.3,0.2c0,0.1-0.1,0.2-0.2,0.3C120.9,169.3,120.9,169.2,121,169z"/>
<path style="fill:#040101;" d="M122.5,167.4c0-0.1,0-0.3,0.2-0.3C122.7,167.3,122.6,167.4,122.5,167.4z"/>
<path style="fill:#040101;" d="M121.7,168.5c0-0.1,0-0.3,0.2-0.3C121.9,168.3,121.9,168.5,121.7,168.5z"/>
<path style="fill:#040101;" d="M121.4,169c0-0.1,0-0.2,0.2-0.3C121.6,168.8,121.5,168.9,121.4,169z"/>
<path style="fill:#040101;" d="M122.2,167.9c0-0.1,0.1-0.2,0.2-0.3C122.4,167.7,122.3,167.8,122.2,167.9z"/>
<path style="fill:#040101;" d="M122.4,167.6c0-0.1,0.1-0.1,0.1-0.2C122.5,167.5,122.5,167.6,122.4,167.6z"/>
<path style="fill:#040101;" d="M122,168.1c0-0.1,0.1-0.1,0.1-0.2C122.2,168,122.1,168,122,168.1z"/>
<path style="fill:#040101;" d="M121.9,168.2c0-0.1,0.1-0.2,0.1-0.2C122,168.1,122,168.2,121.9,168.2z"/>
<path style="fill:#040101;" d="M121.6,168.7c0-0.1,0.1-0.1,0.1-0.2C121.7,168.6,121.7,168.7,121.6,168.7z"/>
<path style="fill:#040101;" d="M121.3,169.1c0-0.1,0.1-0.1,0.1-0.2C121.4,169.1,121.4,169.1,121.3,169.1z"/>
<path style="fill:#DF0916;" d="M67.1,66.8c-0.4-0.7-0.7-1.4-0.8-2.2c-0.1-0.5,0-0.8,0.4-1c1.7-1.1,3.3-2.3,5-3.5
	c0.8-0.5,1.4-1.2,2-1.9c0.5-0.6,1-1.2,1.6-1.9c-0.6-0.4-1.1-0.3-1.6-0.1c-0.4,0.1-0.7,0.4-1,0.5c-0.2,0.1-0.5,0.2-0.7,0.3
	c-0.8,0.3-1,0.1-1-0.7c0-0.9,0-1.8,0-2.7c0-0.4,0.1-0.8,0.5-1.1c2.7-2.6,5.5-5.1,8.2-7.7c0.2-0.2,0.5-0.3,0.6-0.7
	c-0.5-0.2-1-0.1-1.4-0.2c-0.3-0.1-0.5-0.2-0.6-0.5c-0.4-1.3-0.8-2.5-1.3-3.7c-0.1-0.4,0-0.6,0.3-0.8c1.2-0.8,2.4-1.3,3.7-1.7
	c2.4-0.7,4.9-1.2,7.4-1.4c2.1-0.2,4.1-0.4,6.2-0.5c0.3,0,0.6-0.1,0.8-0.1c0,0,0.1,0,0.1,0c0.1,0,0.1,0.1,0.2,0.1
	c1.5,2.7,2.7,5.6,4.1,8.4c1.3-2.7,2.6-5.5,3.9-8.2c0.1-0.1,0.1-0.3,0.3-0.3c0,0,0.1,0,0.1,0c1.8-0.1,3.7,0.1,5.5,0.2
	c2.9,0.2,5.7,0.7,8.5,1.5c1.4,0.4,2.8,0.9,4.1,1.5c0.6,0.3,0.5,0.3,0.5,0.9c-0.1,1.5-0.7,2.8-1.1,4.3c-0.1,0.2-0.2,0.3-0.4,0.4
	c-0.5,0.1-1,0.1-1.5,0.3c0.2,0.3,0.5,0.6,0.7,0.8c2.5,2.4,5,4.8,7.6,7.1c1,0.9,1.1,2,1,3.2c0,0.4-0.2,0.8-0.3,1.2
	c-0.2,0.5-0.2,0.5-0.7,0.2c-1.2-0.8-2.5-1.3-3.7-1.9c-0.9-0.4-1.8-0.8-2.7-1.2c0.4,0.7,0.8,1.3,1.3,1.9c1.1,1.2,1.9,2.6,3,3.8
	c1.2,1.4,2.3,2.8,3.5,4.1c0.6,0.6,0.7,2.4,0.2,3.1c-0.2,0.3-0.6,0.4-0.9,0.5c-1.7,0.5-3.4,0.9-5.2,1.4c-3.2,0.9-6.1,2.5-8.9,4.2
	c-0.7,0.5-1.4,0.9-2.2,1.4c-0.8,0.5-1.2,0.4-1.5-0.6c-0.3-0.9-0.3-1.8-0.4-2.7c-0.1-0.7-0.2-1.4-0.2-2.1c0-0.4-0.2-0.6-0.6-0.6
	c-2.8,0.4-4.4-1.3-6-3.2c-1-1.2-1.9-2.6-2.7-4c-0.2-0.4-0.5-0.8-0.8-1.3c0,2.7,0,5.3,0,7.8c0,0.5,0,1-0.1,1.5
	c-0.8,4.4-1.9,8.7-4,12.8c-0.4,0.7-0.4,1.3-0.1,2.1c1,2.3,2.1,4.5,2.9,6.8c0.5,1.6,0.8,3.1,1.2,4.7c0.2,0.8,0.1,1.6,0.1,2.4
	c0,0.6,0.2,1.1,0.6,1.6c0.8,0.7,1.5,1.4,2.2,2.2c2.2,2.8,3.2,5.9,2,9.4c-0.4,1.2-1.2,2.3-2,3.3c-0.3,0.4-0.7,0.5-1.1,0.6
	c-2.5,0.4-5,0.2-7.5-0.7c-1.1-0.4-1.8-1.1-2.3-2.2c-0.9-2-2-3.9-3.2-5.8c-0.3-0.5-0.7-1-1.2-1.3c-0.7-0.5-1.5-0.7-2.3-0.5
	c-0.4,0-0.3-0.3-0.3-0.6c0-0.6,0.2-1.1,0.6-1.4c0.2-0.1,0.3-0.3,0.5-0.4c0.7-0.5,1.1-1.1,0.6-2c-0.1-0.3-0.1-0.6-0.2-1
	c-0.5-2.1-0.2-4.2,0.5-6.2c0.9-2.6,1.2-5.3,1.3-8.1c0.1-1.4,0.3-2.6,1.3-3.7c1-1.1,1.6-2.4,2.1-3.8c0.7-2.2,0.5-4.3-0.4-6.3
	c-0.4-0.9-0.9-1.7-1.5-2.5c-0.3-0.2-0.3,0.2-0.2,0.3c0.1,1-0.2,2.1-0.2,3.1c0,0.7-0.2,1.4-0.6,2c-0.5,0.8-0.9,0.9-1.7,0.3
	c-1.5-1.1-3-2.2-4.7-3.2c-3.6-2.1-7.5-3.3-11.6-3.7c-0.9-0.1-1.9-0.1-2.8-0.1C67.6,67,67.3,67,67.1,66.8z"/>
<path style="fill:#97181B;" d="M96.6,144.9c-0.1,0.7,0,1.4,0,2.2c0,0.3,0.1,0.5,0.5,0.5c0.2,0,0.5,0,0.7,0c0.6,0,0.8,0.3,0.9,0.9
	c0,0.1,0,0.2,0,0.3c0,6.4,0,12.8,0,19.2c0,0.2,0.1,0.4-0.1,0.6c-0.6-0.6-1.1-1.1-1.1-2.1c-0.1-3.2-0.1-6.5-0.1-9.7
	c0-0.7,0-0.7-0.7-0.7c-0.6,0-1.2,0-1.8,0c-0.9,0-0.9,0-0.9,0.9c0,1.6,0,3.3,0,4.9c0,0.3,0.1,0.5-0.1,0.8c-0.6-0.4-0.9-1-1.4-1.6
	c-1.3-1.5-2.5-3.2-3.8-4.7c-0.9-1-2-1.9-3-2.9c-1.2-1.1-2.5-2.3-3.7-3.4c-0.6-0.6-1.3-1-1.8-1.7c-0.6-1.7-1.2-3.4-1.8-5.1
	c-0.8-2.5-1.4-5-1.7-7.6c-0.2-1.8-0.4-3.7-0.7-5.5c-1.8,5.3-2.3,10.8-2.1,16.5c-0.6-0.4-1.1-0.7-1.5-1.2c-2.6-3.3-5.2-6.7-7.7-10.1
	c-2.2-2.9-4.3-5.9-6.3-9c-1.6-2.5-3.2-5.1-4.5-7.8c-0.7-1.3-1.5-2.6-2.1-4.1c-0.7-1.6-1-3.3-1.2-5c-0.2-3,0.5-5.9,1.2-8.8
	c1.4-5.5,3.3-10.8,5.5-16c0.7-1.8,1.5-3.5,2.3-5.3c0.3-0.7,0.7-1.4,1.5-1.8c0.1,0.3,0,0.6,0,0.9c-0.2,1.1-0.5,2.2-0.7,3.3
	c-0.4,2.5,0,4.8,1.4,6.9c3,4.5,6,9.1,8.9,13.7c1.6,2.5,3.2,4.9,4.7,7.5c0.1,0.2,0.2,0.4,0.3,0.6c0.2,0.3,0.2,0.6,0.1,0.9
	c-0.6,2.2-0.1,4.2,1.4,5.9c0.6,0.7,1.2,1.3,1.9,1.9c2,1.8,3.7,3.9,5,6.2c1.9,3.2,4.5,5.5,8,6.8c1.3,0.5,2.6,0.7,4,0.9
	c1.1,0.1,2.2,0,3.3,0.2c0.6,0.1,0.6,0.1,0.6,0.7c0,0.1,0,0.2,0,0.3c0,0.8-0.1,1.6-0.1,2.5c0,0.9-0.1,1.7-0.3,2.6
	c-0.1,0.4,0,0.7,0.3,0.9c0,0.1,0,0.2,0,0.3c0,1.1,0,1.1-1.1,1.4c-0.3,0.2-0.4,0.4-0.3,0.7c0.1,0.3,0.4,0.2,0.6,0.2
	c0.3,0,0.7-0.1,0.8,0.4c0,1.3,0,1.3-1.4,1.3C97.9,144.8,97.2,144.7,96.6,144.9z"/>
<path style="fill:#FFFFFF;" d="M26.7,43.8c-0.1-0.1-0.1-0.2-0.2-0.2c-1-1.3-1.7-2.7-2.1-4.4c-0.8-4-0.6-8,1.2-11.7
	c1-2.1,2.3-3.9,3.9-5.6c2.8-2.9,6.1-5.2,9.6-7.1c4-2.1,8.2-3.8,12.5-5.1c0.3-0.1,0.7-0.3,1.1-0.3c-0.9,1.2-1.8,2.5-2.8,3.6
	c-1.3,1.6-2.6,3.2-3.7,5c-1.5,2.4-2.7,4.8-3.2,7.6c-0.7,3.2-0.5,6.4,0.7,9.5c1,2.7,2.8,4.6,5.4,5.7c0.4,0.2,0.7,0.3,1.2,0.5
	c-0.2-0.8-0.8-1.3-1.2-1.9c-0.4-0.7-0.8-1.3-1.2-2c-0.4-0.6-0.8-1.2-1.2-1.9c1.2-0.1,2.3,0.1,3.3,0.4c4.2,0.9,8.4,1.1,12.6,1.1
	c3.2,0,6.4,0,9.5-0.1c0.5,0,0.8,0.2,1,0.6c0.6,1.2,1,2.5,1.1,3.9c0.1,1.2,0,2.4,0,3.6c0,0.3-0.1,0.5-0.5,0.5c-0.6,0-1.2,0.1-1.9,0.1
	c-5.7,0.1-11.5,0.3-17.2,0c-6.2-0.3-12.2-1.6-17.9-4.2c-4.6-2.1-8.1-5.3-10.3-9.8c-0.1-0.1-0.1-0.2-0.2-0.4
	c-0.4,0.8-0.5,1.6-0.5,2.4c-0.2,2.4,0,4.8,0.4,7.1c0.2,1,0.4,2,0.6,3C27,43.8,26.9,43.8,26.7,43.8z"/>
<path style="fill:#FFFFFF;" d="M146.7,9.6c2.2,0.6,4.4,1.5,6.5,2.3c3.1,1.2,6.2,2.6,9.1,4.2c3.8,2.1,6.9,4.9,9.5,8.3
	c2,2.6,3.3,5.6,3.6,8.9c0.3,2.8-0.2,5.5-1.1,8.1c-0.3,0.8-0.5,1.6-1,2.2c-0.1,0-0.2,0-0.1-0.2c1.4-4.2,1.1-8.4,0.1-12.6
	c-0.3,0.1-0.3,0.4-0.4,0.6c-1,1.8-2.1,3.6-3.5,5.1c-0.9,1-2,1.9-3.2,2.6c-4.5,2.6-9.3,4.6-14.5,5.5c-2.6,0.5-5.3,0.8-8,0.9
	c-5.8,0.2-11.6,0.1-17.5,0.1c-0.7,0-0.7,0-0.9-0.7c-0.7-2.3-0.4-4.5,0.4-6.7c0.3-0.9,0.7-1.4,1.8-1.4c2.2-0.1,4.5-0.1,6.7-0.1
	c2.6,0,5.2,0.1,7.8,0c3.3-0.1,6.5-0.5,9.7-1.5c0.1,0,0.3-0.1,0.5,0c-0.1,1.1-0.5,2-1.1,2.9c-0.7,1-1.5,2-2.2,3c0,0.1,0,0.1-0.1,0.1
	c0,0,0.1,0,0.1,0s0.1,0,0.1-0.1c0.1,0,0.1,0,0.2-0.1c0.1,0,0.1,0,0.1,0c0.1,0,0.1-0.1,0.2-0.1c3.6-1.2,5.8-3.7,6.8-7.3
	c1.2-4.5,0.6-8.9-1.5-13.1c-1.7-3.4-4-6.4-6.6-9.1c-0.6-0.6-1.2-1.3-1.8-1.9C146.5,9.6,146.6,9.6,146.7,9.6z"/>
<path style="fill:#97181B;" d="M99.7,68.8c0.1-0.5,0.1-1.1,0.1-1.6c0-2.4,0-4.9,0-7.3c0-0.3,0-0.5,0-0.8c0.3,0,0.3,0.2,0.4,0.4
	c0.7,1.1,1.4,2.3,2.2,3.4c0.8,1.3,1.8,2.5,3,3.5c1.2,1.1,2.7,1.5,4.3,1.2c0.4-0.1,0.6,0,0.6,0.4c0,0.6,0.1,1.3,0.2,1.9
	c0,1,0.2,1.9,0.3,2.9c0,0.2,0.1,0.4,0.2,0.6c0.3,0.5,0.3,0.5,0.9,0.2c2.4-1.5,4.7-3,7.3-4.2c2-1,4.1-1.6,6.3-2.1
	c1-0.3,2.1-0.6,3.1-0.9c0.4-0.1,0.6-0.3,0.7-0.8c0.4-1.4-0.2-2.2-1.1-3.2c-1.2-1.2-2.2-2.6-3.3-3.9c-0.9-1-1.6-2.1-2.3-3.3
	c0.6,0.4,1.1,0.9,1.7,1.4c2.2,1.8,4.4,3.6,6.6,5.4c0.6,0.4,1.2,0.9,1.8,1.2c0.5,0.3,0.6,0.6,0.6,1.1c-0.1,1.4-0.6,2.6-1.2,3.7
	c-0.3,0.6-0.7,1.3-1,1.9c-0.2,0.4-0.2,0.8,0,1.2c0.8,2,1.6,4.1,2.3,6.2c0.6,1.5,1.2,3.1,1.8,4.6c0.1,0.3,0.1,0.6,0,0.9
	c-0.8,2.3-2.1,4.4-4.2,6.2c0-0.4,0.1-0.8,0.3-1.2c0.9-2.2,1-4.5,0.4-6.8c-0.3-1-0.7-2-1.1-2.9c-0.8-1.9-1.3-3.9-1.1-6
	c0.1-1.1,0-2.2-0.2-3.2c-0.1-0.6-0.1-0.6-0.7-0.5c-1.2,0.3-2.4,0.7-3.6,1.1c-3.8,1.5-7.2,3.5-10.3,6.2c-0.7,0.6-1.4,1.2-2,1.9
	c-0.4,0.4-0.7,0.4-1.2,0.3c-1.2-0.3-2.1-1-2.2-3c-0.1-1.5,0-3,0-4.5c0-0.4,0-0.8,0-1.2c-0.3-0.1-0.3,0.2-0.4,0.3
	c-1.1,1.5-1.7,3.2-1.6,5.2c0.1,1.6,0.6,3,1.3,4.3c0.6,1.1,1.3,2.1,2.1,3.1c0.4,0.4,0.5,0.9,0.4,1.4c-0.1,0.6-0.1,1.1-0.1,1.7
	c0.1,1.5,0.2,2.9,0.5,4.4c0.4,1.9,1,3.7,1.7,5.5c0.1,0.4,0.2,0.7,0.1,1c-0.3,1.4-0.6,2.8-0.9,4.2c-0.2,0.6,0,1.1,0.5,1.4
	c0.4,0.3,0.9,0.6,1.3,0.9c0.7,0.6,1,1.4,0.9,2.3c-0.4-0.2-0.8-0.3-1.2-0.5c-0.5-0.3-0.9-0.2-1.4,0c-0.5,0.2-0.8,0.6-1.2,1
	c-0.8,1-1.4,2.2-2,3.3c-0.6,1.2-1.2,2.4-1.9,3.6c-0.2,0.3-0.4,0.6-0.7,0.8c-1.5,1-3.2,1.5-5,1.5c0.3-0.2,0.6-0.3,0.8-0.6
	c1.1-1.3,2-2.6,2.4-4.3c0.4-1.7,0.3-3.4-0.4-5.1c-0.3-0.9-0.8-1.8-1.3-2.6c-0.1-0.2-0.3-0.4-0.5-0.6c-0.8-0.8-1.6-1.7-2.5-2.5
	c-0.4-0.3-0.5-0.7-0.5-1.2c0-0.9,0.1-1.8-0.1-2.7c0.4-2.1,1-4.2,1.7-6.3c0.7-1.9,1.5-3.7,2.6-5.4c0.3-0.5,0.4-0.9,0.1-1.4
	c-2.1-4-3.5-8.3-4.2-12.8C99.9,69.3,99.9,69,99.7,68.8z"/>
<path style="fill:#97181B;" d="M86.8,99.9c0,0.1,0.1,0.1,0.1,0.2c-0.1,0.3,0.4,0.6,0.2,0.8c-0.3,0.4-0.5,0.8-0.9,1
	c-0.4,0.3-0.9,0.6-1.1,1.2c-0.1,0.4-0.3,0.8,0.1,1.2c-0.2,0.6,0,1,0.5,1.2c0.7,0.3,0.8,0.4,0.8,1.2c0,0.9,0.1,1.9,0.4,2.7
	c0.5,1.5,1.5,2.5,2.9,3c0.4,0.2,0.8,0.4,1.1,0.8c1.4,2.3,3.6,3.4,6.1,4c0.5,0.1,0.9,0.2,1.4,0.3c0.2,0,0.4,0.1,0.5,0.1
	c0.2,0.1,0.4,0.1,0.4,0.3c0.1,0.3-0.2,0.3-0.4,0.4c-1.1,0.8-2.3,1.1-3.6,1.1c-2.1,0.1-4.2,0.1-6.3-0.1c-0.6-0.1-1.2,0-1.8-0.1
	c-0.7,0-1.3-0.2-1.9-0.8c-0.9-0.9-1.8-1.8-2.7-2.7c-0.8-0.8-1.6-1.5-2.4-2.2c-0.3-0.3-0.4-0.5-0.3-0.9c0.2-1.9,1-3.7,1.7-5.4
	c0.6-1.4,1-2.8,1.2-4.3c0.1-0.8-0.1-1.5-0.1-2.2c-0.3,0-0.3,0.2-0.4,0.3c-0.3,0.6-0.5,1.2-0.8,1.8c-0.3,0.6-0.6,0.6-1.1,0.2
	c-2.6-2.8-5.2-5.6-7.7-8.5c-1.4-1.6-2.9-3.2-4.3-4.8c-0.9-2.6-1.3-5.2-1.1-7.9c0-0.7,0.3-1.4,0.5-2c0.4-1,0.7-2,1.1-3.1
	c0.5-1.3,0.7-2.7,0.7-4.1c0-1.3-0.1-2.5,0.1-3.8c0-0.1,0.1-0.1,0.2-0.2c1.3,0.2,2.3,1.2,2.5,2.4c0.6,3,2,5.5,4.6,7.1
	c1.3,0.8,2.7,1.4,4.3,1.6c0.2,0,0.6,0,0.5,0.4c-0.4,0.3-0.3,0.7-0.2,1.1c0.5,2.5,1.3,4.9,1.9,7.4c0.3,1.1,0.3,2.2,0.7,3.3
	c-0.1,1.6,0.1,3.1,0.6,4.6c0.3,1,0.9,1.8,1.3,2.7C86.7,99.5,86.6,99.8,86.8,99.9z"/>
<path style="fill:#97181B;" d="M87.2,120.8c0.2-0.2,0.5-0.1,0.7-0.1c7.8,0,15.6,0,23.3,0c0.1,0,0.3,0,0.4,0c0.4,0,0.4,0.1,0.3,0.5
	c-0.4,1.3-1.2,2.2-2.2,3c-0.2,0.2-0.5,0.1-0.8,0.1c-2.7,0-5.4,0-8.1,0c-3.4,0-6.8,0-10.2,0c-0.6,0-1-0.2-1.4-0.7
	c-0.6-0.9-1.3-1.7-1.9-2.5C87.3,121.1,87.2,121,87.2,120.8z"/>
<path d="M103.9,35.5c-0.3,0.9-0.8,1.6-1.1,2.5c-0.9,1.9-1.8,3.8-2.8,5.7c-0.1,0.1-0.1,0.3-0.2,0.4c-0.2-0.1-0.2-0.2-0.3-0.3
	c-1.3-2.7-2.6-5.3-3.9-8c-0.1-0.1-0.1-0.3-0.2-0.4c-0.1-0.1-0.1-0.1-0.2-0.2c0,0,0,0,0,0c-0.5-1.1-1.1-2.2-1.5-3.3
	c0.2-0.2,0.4-0.2,0.6-0.3c1.5-0.4,3.1-0.7,4.6-1.2c0.4-0.1,0.8-0.1,1.1,0c1.6,0.4,3.2,0.8,4.8,1.2c0.7,0.2,0.7,0.3,0.4,0.9
	c-0.5,0.9-0.9,1.8-1.4,2.7c0,0,0,0,0,0C103.9,35.2,104,35.4,103.9,35.5z"/>
<path style="fill:#97181B;" d="M70.3,68.8c0,0-0.1,0-0.1,0c-1-0.3-1.9-1-2.8-1.4c-0.2-0.2-0.3-0.4-0.3-0.6c0.5,0,1,0,1.5,0
	c3.6,0.1,7,0.8,10.4,2.2c2.5,1,4.8,2.4,6.9,4c0.5,0.4,1,0.7,1.5,1.1c0.3,0.2,0.6,0.2,0.8-0.1c0.6-0.6,0.9-1.4,0.9-2.2
	c0-1.2,0.2-2.4,0.2-3.5c0-0.2,0-0.4,0.2-0.4c0.2,0,0.3,0.1,0.4,0.3c0.4,2.3,0.7,4.6,0.7,6.9c0,1.3-0.5,2.3-1.7,2.9
	c-1,0.5-1.4,0.5-2.2-0.2c-1-0.8-1.9-1.8-2.9-2.6c-3.2-2.6-6.7-4.5-10.6-5.7C72.3,69.1,71.3,69,70.3,68.8z"/>
<path style="fill:#97181B;" d="M62.3,62.9c0,0.1,0,0.2,0,0.2c0,0.7,0,0.7-0.7,1c-1.5,0.6-3,1.1-4.4,1.7c-3.6,1.6-7,3.6-10,6.2
	c-1.2,1.1-2.4,2.2-3.5,3.4c-0.2,0.2-0.4,0.4-0.7,0.2c-0.3-0.2-0.4-0.5-0.2-0.7c0.2-0.4,0.5-0.8,0.7-1.2c1.3-1.8,2.6-3.5,4.2-5
	c2.5-2.5,5.4-4.5,8.4-6.3c1.3-0.7,2.7-0.9,4.1-0.7c0.4,0,0.8,0.1,1.2,0.1c0.6,0,0.6,0,0.6,0.6C62.3,62.6,62.3,62.8,62.3,62.9z"/>
<path style="fill:#97181B;" d="M156.1,76.2c-0.7-0.6-1.3-1.1-1.8-1.6c-1.6-1.5-3.3-3-5-4.3c-2.3-1.8-4.9-3-7.6-4.2
	c-1.4-0.7-2.8-1.4-4.3-1.9c-0.4-0.1-0.6-0.4-0.5-0.8c0-1.3-0.1-1.3,1.2-1.2c1.9,0.1,3.8,0.4,5.7,1.1c1.1,0.4,2,1.1,3,1.8
	c1.8,1.4,3.6,2.8,5.2,4.4c1.2,1.2,2.2,2.5,3.2,3.9C155.5,74,155.9,75.1,156.1,76.2z"/>
<path style="fill:#DF0916;" d="M67.4,67.4c0.1-0.1,0.2-0.2,0.3-0.1c0.7,0.5,1.5,0.8,2.3,1.2c0.1,0,0.1,0.2,0.2,0.2c0,1.3,0,2.7,0,4
	c0,1.6-0.3,3.1-0.9,4.5c-0.4,1.2-0.9,2.4-1.3,3.6c-0.1,0.3-0.2,0.6-0.2,1c-0.1,2.4,0.2,4.7,0.9,7c0.1,0.3,0.3,0.6,0.1,0.9
	c-1.7-1.8-3.2-3.8-4.2-6.1c-0.2-0.5-0.3-0.9-0.1-1.5c1.1-3.6,2.5-7.2,4.1-10.6c0.2-0.5,0.2-0.9,0-1.4C68.2,69.3,67.8,68.4,67.4,67.4
	z"/>
<path style="fill:#97181B;" d="M101.4,168.8c-0.4,0.5-0.8,1.2-1.4,1.5c-0.2-0.2-0.1-0.4-0.1-0.6c0-8.2,0-16.3,0-24.5
	c0-0.2,0-0.4,0.1-0.5c0.9,0,1.7,0,2.6,0c0.8,0,0.8,0,0.9,0.9c0,0.5,0,1,0,1.5c0,0.3-0.1,0.4-0.4,0.4c-0.3,0-0.6,0-0.9,0
	c-0.4,0-0.6,0.2-0.7,0.7c0,0.1,0,0.3,0,0.4c0,6.6,0,13.2,0,19.8C101.4,168.6,101.4,168.7,101.4,168.8z"/>
<path style="fill:#97181B;" d="M106.2,163.1c-1.2,1.4-2.3,2.7-3.4,4.2c-0.2,0-0.3-0.1-0.3-0.3c0.2-1.2,0.1-2.3,0.1-3.5
	c0-2.3,0.2-4.6,0.1-6.9c0-0.6,0-0.6,0.6-0.7c0.7,0,1.4,0,2.1,0c0.7,0,0.7,0,0.7,0.6C106.2,158.7,106.2,160.9,106.2,163.1z"/>
<path style="fill:#96181B;" d="M115.6,92.9c-0.5-0.8-0.6-1.6-0.7-2.5c-0.3-2.7,0-5.3,0.9-7.9c0.1-0.2,0.2-0.4,0.2-0.7
	c0.2-1,1-1.3,1.8-1.5c0.4-0.1,0.5,0,0.3,0.4c-0.5,1.1-0.9,2.3-1.2,3.4c-0.5,1.4-0.8,2.8-1,4.3C115.7,89.9,115.6,91.4,115.6,92.9z"/>
<path style="fill:#96181B;" d="M102.8,151.7c0-0.7,0-1.5,0-2.2c0-0.3,0.1-0.5,0.5-0.5c0.4,0,0.7,0,1.1,0c0.3,0,0.5,0.2,0.5,0.5
	c0,1.5,0,3,0,4.6c0,0.4-0.2,0.5-0.5,0.5c-0.4,0-0.7,0-1.1,0c-0.3,0-0.4-0.2-0.4-0.5C102.8,153.3,102.8,152.5,102.8,151.7
	C102.8,151.7,102.8,151.7,102.8,151.7z"/>
<path style="fill:#210506;" d="M100,144.8c0,8.4,0,16.8,0,25.1c0,0.2,0,0.3,0,0.5c-0.3-0.2-0.2-0.6-0.2-0.9c0-7.7,0-15.5,0-23.2
	c0-0.3,0-0.5,0-0.8c0-0.6,0-0.6-0.6-0.6c-0.9,0-1.8,0-2.6,0c0.2-0.3,0.5-0.1,0.7-0.2c0.7,0,1.4,0,2.1,0c0.3,0,0.5-0.1,0.5-0.5
	c0-0.3,0-0.6,0-0.9c-0.1-0.7-0.6-1.1-1.3-1.3c0.3-0.2,0.6-0.1,0.9-0.1c0.3,0,0.4-0.1,0.4-0.4c0-0.3,0-0.7,0-1
	c-0.4-0.6-0.1-1.3-0.1-1.9c0-0.5,0.1-1,0-1.5c0-0.8-0.1-1.7,0.3-2.5c0.1,0,0.1,0.1,0.1,0.2c-0.1,0.3,0,0.7-0.1,1
	c0.1,1.3,0.1,2.5,0.1,3.8c0,0.4,0.1,0.7,0.4,0.9c-0.1,0.3-0.6,0.1-0.6,0.5c-0.1,0.7,0,0.9,0.8,0.9c0.3,0,0.6-0.1,0.8,0.2
	c-0.2,0.2-0.5,0.2-0.7,0.2c-0.3,0-0.5,0-0.6,0.4c0,0.4,0.3,0.4,0.6,0.4c0.3,0,0.6,0,0.9,0.2c-0.3,0.3-0.7,0.1-1.1,0.1
	c-0.6,0-0.6,0-0.6,0.6C100,144.3,100,144.6,100,144.8z"/>
<path style="fill:#FDFCFC;" d="M123.3,72.7c-1,2.6-3,4-5.7,3.9c1.9-1.4,3.7-2.8,5.5-4.1C123.3,72.5,123.3,72.5,123.3,72.7z"/>
<path style="fill:#96181B;" d="M101.7,143.4c-0.4,0-0.8,0-1.2,0c-0.4,0-0.5-0.2-0.5-0.5c0-0.7,0-0.8,0.7-0.8c0.3,0,0.6,0,0.8,0
	C101.6,142.5,101.8,142.9,101.7,143.4z"/>
<path style="fill:#8B1619;" d="M100.6,140.5c-0.6,0-0.6,0-0.6-0.6c0-1.4,0-2.8,0-4.2c0-0.1,0.1-0.1,0.1,0
	C100.3,137.4,100.3,139,100.6,140.5z"/>
<path style="fill:#781315;" d="M100.1,135.7L100.1,135.7c-0.1,0-0.1,0-0.1,0c0-0.3-0.1-0.6,0.1-0.9
	C100.1,135.2,100.1,135.4,100.1,135.7z"/>
<path style="fill:#131111;" d="M122.7,166.5c0-0.3,0-0.6,0-0.9C122.9,165.9,122.9,166.2,122.7,166.5z"/>
<path style="fill:#141313;" d="M77.6,163.1c0,0.3,0,0.5,0,0.8C77.4,163.6,77.4,163.3,77.6,163.1z"/>
<path style="fill:#AEAEAE;" d="M172.8,44.3c0-0.2,0.1-0.4,0.3-0.5c0.1,0,0.1,0.1,0.2,0.2c0,0.1-0.1,0.3-0.2,0.3
	C173,44.4,172.9,44.4,172.8,44.3z"/>
<path style="fill:#EDECEC;" d="M173.2,44c-0.1-0.1-0.1-0.1-0.2-0.2c0-0.1,0-0.2,0.2-0.3c0,0.1,0.1,0.1,0.1,0.2
	C173.3,43.8,173.3,43.9,173.2,44z"/>
<path style="fill:#959393;" d="M26.7,43.8c0.1,0,0.1-0.1,0.2-0.2c0,0,0,0,0.1,0.1c0.1,0.1,0.2,0.3,0,0.4
	C26.9,44.1,26.8,44,26.7,43.8z"/>
<path style="fill:#8E7D7D;" d="M123.3,72.7c0-0.1-0.1-0.2-0.2-0.2c0-0.1,0.2-0.2,0.3-0.2C123.5,72.5,123.4,72.6,123.3,72.7z"/>
<path style="fill:#B9B6B6;" d="M146.7,9.6c-0.1,0-0.2,0-0.4,0c-0.1,0-0.2-0.1,0-0.2C146.5,9.5,146.6,9.5,146.7,9.6z"/>
<path style="fill:#3E3C3C;" d="M172.6,45c0,0.1-0.1,0.3-0.2,0.2c-0.1,0,0-0.2,0.1-0.2C172.5,45,172.6,45,172.6,45z"/>
<path style="fill:#6E6D6D;" d="M172.6,45c-0.1,0-0.1,0-0.2,0c0-0.1,0-0.2,0.2-0.3c0.1-0.1,0.1-0.1,0.2,0
	C172.7,44.8,172.7,44.9,172.6,45z"/>
<path style="fill:#989797;" d="M172.8,44.7c-0.1,0-0.1,0-0.2,0c0-0.1,0-0.3,0.2-0.3c0.1-0.1,0.1-0.1,0.2,0
	C173,44.6,172.8,44.6,172.8,44.7z"/>
<path style="fill:#3B3B3B;" d="M148.9,41.2c0,0,0.1,0,0.1,0c0.1,0,0.1,0,0.2,0c-0.1,0.1-0.2,0.2-0.3,0.1
	C148.9,41.3,148.8,41.3,148.9,41.2C148.9,41.2,148.9,41.2,148.9,41.2z"/>
<path style="fill:#D4D4D4;" d="M172.9,44.4c-0.1,0-0.1,0-0.2,0c0,0,0-0.1,0-0.1c0.1,0,0.1,0,0.2,0C173,44.3,173,44.4,172.9,44.4z"/>
<path style="fill:#3B3B3B;" d="M149.5,41c0,0.1-0.1,0.1-0.2,0.1C149.4,41,149.5,41,149.5,41z"/>
<path style="fill:#040101;" d="M120.5,160.4c0.3,0.3,0.1,0.6,0.1,0.9c0,0.4,0,0.9,0,1.3C120.4,161.9,120.5,161.2,120.5,160.4z"/>
<path style="fill:#040101;" d="M120.7,163.4c0.3,0.3,0.1,0.6,0.1,0.9c0,0.4,0,0.9,0,1.3C120.5,164.9,120.7,164.1,120.7,163.4z"/>
<path style="fill:#040101;" d="M120.8,166c0.3,0.3,0.1,0.7,0.1,1c0,0.3,0,0.7,0,1C120.7,167.4,120.8,166.7,120.8,166z"/>
<path style="fill:#040101;" d="M120.3,157.6c0.3,0.3,0.1,0.7,0.1,1.1c0,0.3,0,0.6,0,0.9C120.2,159,120.4,158.3,120.3,157.6z"/>
<path style="fill:#040101;" d="M121.9,149.4c0.1-0.1,0.2-0.2,0.3,0c0.1,0.2,0.1,0.4-0.1,0.6C122,149.8,122.2,149.6,121.9,149.4z"/>
<path style="fill:#040101;" d="M120.8,155.5c0,0.2,0.1,0.5-0.2,0.6C120.6,155.9,120.6,155.6,120.8,155.5z"/>
<path style="fill:#040101;" d="M115.7,155.2c0.1-0.2,0.2-0.3,0.4-0.3C116,155,115.9,155.1,115.7,155.2z"/>
<path style="fill:#040101;" d="M117.9,153.2c0.1-0.2,0.2-0.3,0.4-0.3C118.2,153,118.1,153.1,117.9,153.2z"/>
<path style="fill:#040101;" d="M119.9,151.3c0.1-0.2,0.2-0.3,0.4-0.3C120.2,151.1,120.1,151.3,119.9,151.3z"/>
<path style="fill:#040101;" d="M121.2,153.6c0,0.2,0.1,0.4-0.1,0.5C121.1,153.9,121.1,153.7,121.2,153.6z"/>
<path style="fill:#040101;" d="M122,150.2c0,0.2,0,0.4-0.1,0.5C121.9,150.5,121.9,150.3,122,150.2z"/>
<path style="fill:#040101;" d="M121.9,150.8c0,0.2,0,0.4-0.1,0.5C121.7,151.1,121.7,150.9,121.9,150.8z"/>
<path style="fill:#040101;" d="M121.7,151.5c0,0.2,0.1,0.4-0.1,0.5C121.6,151.9,121.6,151.7,121.7,151.5z"/>
<path style="fill:#040101;" d="M120.5,156.8c0,0.2,0,0.4-0.1,0.5C120.3,157.1,120.3,157,120.5,156.8z"/>
<path style="fill:#040101;" d="M120.6,156.2c0,0.2,0,0.4-0.1,0.5C120.5,156.5,120.5,156.3,120.6,156.2z"/>
<path style="fill:#040101;" d="M121.6,152.2c0,0.2,0,0.4-0.1,0.5C121.4,152.5,121.4,152.3,121.6,152.2z"/>
<path style="fill:#040101;" d="M120.9,154.8c0,0.2,0,0.4-0.1,0.5C120.8,155.1,120.8,155,120.9,154.8z"/>
<path style="fill:#040101;" d="M121.4,152.8c0,0.2,0,0.4-0.1,0.5C121.3,153.1,121.3,152.9,121.4,152.8z"/>
<path style="fill:#040101;" d="M121.1,154.2c0,0.2,0,0.4-0.1,0.5C120.9,154.5,120.9,154.3,121.1,154.2z"/>
<path style="fill:#040101;" d="M110.1,161.4c0-0.1,0-0.2,0.2-0.3C110.3,161.2,110.2,161.3,110.1,161.4z"/>
<path style="fill:#040101;" d="M112.3,158.7c0-0.1,0-0.2,0.2-0.3C112.4,158.6,112.4,158.7,112.3,158.7z"/>
<path style="fill:#040101;" d="M113,157.8c0-0.1,0.1-0.2,0.2-0.3C113.2,157.6,113.1,157.7,113,157.8z"/>
<path style="fill:#040101;" d="M113.7,157c0-0.1,0.2-0.2,0.3-0.2C113.9,157,113.8,157,113.7,157z"/>
<path style="fill:#040101;" d="M110.9,160.4c0-0.1,0-0.2,0.2-0.3C111,160.3,111,160.4,110.9,160.4z"/>
<path style="fill:#040101;" d="M117.2,153.8c0.1-0.1,0.1-0.1,0.2-0.2C117.4,153.7,117.3,153.7,117.2,153.8z"/>
<path style="fill:#040101;" d="M117.4,153.6c0-0.1,0.1-0.1,0.2-0.2C117.5,153.5,117.5,153.6,117.4,153.6z"/>
<path style="fill:#040101;" d="M117.1,153.9c0.1-0.1,0.1-0.1,0.2-0.2C117.2,153.8,117.2,153.9,117.1,153.9z"/>
<path style="fill:#040101;" d="M116.9,154.1c0.1-0.1,0.1-0.1,0.2-0.2C117,154,117,154,116.9,154.1z"/>
<path style="fill:#040101;" d="M116.8,154.2c0.1-0.1,0.1-0.1,0.2-0.2C116.9,154.1,116.8,154.2,116.8,154.2z"/>
<path style="fill:#040101;" d="M116.6,154.4c0.1-0.1,0.1-0.1,0.2-0.2C116.7,154.3,116.7,154.4,116.6,154.4z"/>
<path style="fill:#040101;" d="M117.5,153.5c0-0.1,0.1-0.1,0.2-0.2C117.7,153.4,117.6,153.4,117.5,153.5z"/>
<path style="fill:#040101;" d="M116.4,154.5c0.1,0,0.1-0.1,0.2-0.1C116.6,154.5,116.5,154.5,116.4,154.5z"/>
<path style="fill:#040101;" d="M116.3,154.7c0,0,0.1-0.1,0.1-0.1C116.4,154.6,116.4,154.7,116.3,154.7z"/>
<path style="fill:#040101;" d="M116.1,154.8c0,0,0.1-0.1,0.1-0.1C116.3,154.8,116.2,154.8,116.1,154.8z"/>
<path style="fill:#040101;" d="M117.7,153.3c0-0.1,0.1-0.1,0.2-0.2C117.8,153.2,117.8,153.3,117.7,153.3z"/>
<path style="fill:#040101;" d="M118.3,152.8c0,0,0.1-0.1,0.1-0.1C118.4,152.7,118.4,152.8,118.3,152.8z"/>
<path style="fill:#040101;" d="M115.5,155.3c0-0.1,0.1-0.1,0.2-0.2C115.7,155.3,115.6,155.3,115.5,155.3z"/>
<path style="fill:#040101;" d="M115.4,155.5c0-0.1,0.1-0.1,0.2-0.2C115.5,155.4,115.5,155.5,115.4,155.5z"/>
<path style="fill:#040101;" d="M115.2,155.6c0-0.1,0.1-0.1,0.2-0.2C115.4,155.6,115.3,155.6,115.2,155.6z"/>
<path style="fill:#040101;" d="M115.1,155.8c0.1-0.1,0.1-0.1,0.2-0.2C115.2,155.7,115.1,155.8,115.1,155.8z"/>
<path style="fill:#040101;" d="M114.9,155.9c0.1-0.1,0.1-0.1,0.2-0.2C115,155.8,115,155.9,114.9,155.9z"/>
<path style="fill:#040101;" d="M118.6,152.5c0.1-0.1,0.1-0.1,0.2-0.2C118.8,152.4,118.7,152.5,118.6,152.5z"/>
<path style="fill:#040101;" d="M114.7,156.1c0.1-0.1,0.1-0.1,0.2-0.2C114.9,156,114.8,156,114.7,156.1z"/>
<path style="fill:#040101;" d="M114.6,156.2c0.1-0.1,0.1-0.1,0.2-0.2C114.7,156.1,114.6,156.2,114.6,156.2z"/>
<path style="fill:#040101;" d="M114.4,156.4c0.1,0,0.1-0.1,0.2-0.1C114.6,156.3,114.5,156.4,114.4,156.4z"/>
<path style="fill:#040101;" d="M118.8,152.4c0.1-0.1,0.1-0.1,0.2-0.2C118.9,152.3,118.8,152.3,118.8,152.4z"/>
<path style="fill:#040101;" d="M114.3,156.5c0.1,0,0.1-0.1,0.2-0.1C114.4,156.5,114.4,156.5,114.3,156.5z"/>
<path style="fill:#040101;" d="M114.1,156.7c0,0,0.1-0.1,0.1-0.1C114.2,156.6,114.2,156.7,114.1,156.7z"/>
<path style="fill:#040101;" d="M114,156.8c0,0,0.1-0.1,0.1-0.1C114.1,156.8,114,156.8,114,156.8z"/>
<path style="fill:#040101;" d="M118.9,152.2c0.1-0.1,0.1-0.1,0.2-0.2C119,152.1,119,152.2,118.9,152.2z"/>
<path style="fill:#040101;" d="M119.1,152.1c0.1-0.1,0.1-0.1,0.2-0.2C119.2,152,119.2,152,119.1,152.1z"/>
<path style="fill:#040101;" d="M113.5,157.2c0-0.1,0.1-0.1,0.2-0.2C113.7,157.1,113.6,157.2,113.5,157.2z"/>
<path style="fill:#040101;" d="M113.4,157.3c0-0.1,0.1-0.1,0.2-0.2C113.5,157.3,113.4,157.3,113.4,157.3z"/>
<path style="fill:#040101;" d="M113.2,157.5c0-0.1,0.1-0.1,0.2-0.2C113.3,157.4,113.3,157.5,113.2,157.5z"/>
<path style="fill:#040101;" d="M119.3,151.9c0.1-0.1,0.1-0.1,0.2-0.2C119.4,151.8,119.3,151.9,119.3,151.9z"/>
<path style="fill:#040101;" d="M119.4,151.8c0-0.1,0.1-0.1,0.2-0.2C119.6,151.7,119.5,151.7,119.4,151.8z"/>
<path style="fill:#040101;" d="M112.9,157.9c0-0.1,0.1-0.1,0.1-0.2C113,157.9,113,157.9,112.9,157.9z"/>
<path style="fill:#040101;" d="M112.7,158.1c0-0.1,0.1-0.1,0.1-0.2C112.9,158,112.8,158.1,112.7,158.1z"/>
<path style="fill:#040101;" d="M112.6,158.3c0.1-0.1,0.1-0.1,0.2-0.2C112.7,158.2,112.7,158.2,112.6,158.3z"/>
<path style="fill:#040101;" d="M112.4,158.4c0-0.1,0.1-0.1,0.2-0.2C112.6,158.4,112.5,158.4,112.4,158.4z"/>
<path style="fill:#040101;" d="M119.6,151.6c0-0.1,0.1-0.1,0.2-0.2C119.7,151.5,119.7,151.6,119.6,151.6z"/>
<path style="fill:#040101;" d="M112.1,158.9c0-0.1,0.1-0.1,0.1-0.2C112.2,158.8,112.2,158.9,112.1,158.9z"/>
<path style="fill:#040101;" d="M112,159c0-0.1,0.1-0.1,0.1-0.2C112.1,158.9,112,159,112,159z"/>
<path style="fill:#040101;" d="M111.8,159.2c0.1-0.1,0.1-0.1,0.2-0.2C111.9,159.1,111.9,159.2,111.8,159.2z"/>
<path style="fill:#040101;" d="M111.7,159.4c0-0.1,0.1-0.2,0.2-0.2C111.8,159.3,111.7,159.3,111.7,159.4z"/>
<path style="fill:#040101;" d="M111.5,159.6c0,0,0.1-0.1,0.1-0.1C111.6,159.6,111.5,159.6,111.5,159.6z"/>
<path style="fill:#040101;" d="M111.3,159.8c0-0.1,0.1-0.1,0.1-0.2C111.5,159.7,111.4,159.8,111.3,159.8z"/>
<path style="fill:#040101;" d="M111.2,160c0.1-0.1,0.1-0.1,0.2-0.2C111.3,159.9,111.2,159.9,111.2,160z"/>
<path style="fill:#040101;" d="M111,160.1c0-0.1,0.1-0.1,0.2-0.2C111.2,160.1,111.1,160.1,111,160.1z"/>
<path style="fill:#040101;" d="M119.7,151.4c0-0.1,0.1-0.1,0.2-0.2C119.9,151.4,119.8,151.4,119.7,151.4z"/>
<path style="fill:#040101;" d="M110.7,160.6c0-0.1,0.1-0.1,0.1-0.2C110.8,160.5,110.8,160.6,110.7,160.6z"/>
<path style="fill:#040101;" d="M120.3,150.9c0,0,0.1-0.1,0.1-0.1C120.5,150.9,120.4,150.9,120.3,150.9z"/>
<path style="fill:#040101;" d="M110.6,160.8c0-0.1,0.1-0.1,0.1-0.2C110.7,160.6,110.6,160.7,110.6,160.8z"/>
<path style="fill:#040101;" d="M110.4,160.9c0.1-0.1,0.1-0.1,0.2-0.2C110.5,160.8,110.5,160.9,110.4,160.9z"/>
<path style="fill:#040101;" d="M110.3,161.1c0-0.1,0.1-0.1,0.2-0.2C110.4,161,110.3,161.1,110.3,161.1z"/>
<path style="fill:#040101;" d="M120.5,150.8c0.1,0,0.1-0.1,0.2-0.1C120.6,150.7,120.6,150.8,120.5,150.8z"/>
<path style="fill:#040101;" d="M109.9,161.5c0-0.1,0.1-0.1,0.1-0.2C110.1,161.4,110,161.5,109.9,161.5z"/>
<path style="fill:#040101;" d="M109.8,161.7c0.1-0.1,0.1-0.1,0.2-0.2C109.9,161.6,109.8,161.6,109.8,161.7z"/>
<path style="fill:#040101;" d="M120.6,150.6c0.1,0,0.1-0.1,0.2-0.1C120.8,150.6,120.7,150.6,120.6,150.6z"/>
<path style="fill:#040101;" d="M120.8,150.5c0.1-0.1,0.1-0.1,0.2-0.2C120.9,150.4,120.9,150.4,120.8,150.5z"/>
<path style="fill:#040101;" d="M121,150.3c0.1-0.1,0.1-0.1,0.2-0.2C121.1,150.2,121,150.3,121,150.3z"/>
<path style="fill:#040101;" d="M121.1,150.2c0.1-0.1,0.1-0.1,0.2-0.2C121.2,150.1,121.2,150.1,121.1,150.2z"/>
<path style="fill:#040101;" d="M121.3,150c0.1-0.1,0.1-0.1,0.2-0.2C121.4,150,121.4,150,121.3,150z"/>
<path style="fill:#040101;" d="M121.4,149.9c0-0.1,0.1-0.1,0.2-0.2C121.6,149.8,121.5,149.9,121.4,149.9z"/>
<path style="fill:#040101;" d="M121.6,149.7c0-0.1,0.1-0.1,0.2-0.2C121.7,149.7,121.7,149.7,121.6,149.7z"/>
<path style="fill:#040101;" d="M121.7,149.6c0-0.1,0.1-0.1,0.2-0.2C121.9,149.5,121.8,149.6,121.7,149.6z"/>
<path style="fill:#040101;" d="M118.5,152.7c0.1,0,0.1-0.1,0.2-0.1C118.6,152.6,118.5,152.6,118.5,152.7z"/>
<path style="fill:#141212;" d="M105,188.1c0,0.1-0.1,0.2-0.1,0.2c-0.1-0.3-0.2-0.6,0.1-0.9C105,187.6,105,187.8,105,188.1z"/>
<path style="fill:#040101;" d="M70.3,68.8c0.2-0.2,0.4-0.1,0.6-0.1c1.7,0.2,3.2,0.8,4.7,1.4c3.1,1.3,6,3,8.5,5.1
	c0.8,0.6,1.5,1.3,2.2,2c0.1,0.1,0.2,0.2,0.3,0.3c1,0.9,1.5,0.9,2.5,0c0.8-0.6,1.1-1.5,1.2-2.4c0.1-1.3-0.1-2.5-0.2-3.8
	c-0.1-1-0.2-2-0.3-3.1c0,0,0.1-0.1,0.1-0.1c0.6,0.8,1.1,1.7,1.6,2.6c1.2,2.5,1.2,4.9,0.1,7.4c-0.6,1.4-1.4,2.6-2.4,3.8
	c-0.4,0.4-0.5,0.9-0.5,1.4c-0.2,2.3-0.3,4.6-0.7,6.8c-0.2,1-0.5,2.1-0.8,3.1c-0.5,1.7-0.7,3.4-0.4,5.2c0,0.2,0,0.4,0,0.5
	c0,0.2,0.2,0.5-0.2,0.7c-1.2-1.7-1.9-3.6-2.1-5.7c-0.1-0.6,0-1.2,0.1-1.8c-0.2-0.7-0.1-1.4,0-2.1c0.1-1.8-0.1-3.6-0.4-5.4
	c-0.2-0.9-0.5-1.8-0.7-2.7c-0.2-0.7-0.7-1.3-1.1-1.8C82.1,80.1,82,80,82,80c-5.2-0.5-8.5-4.2-9.3-8.4c-0.1-0.4-0.2-0.8-0.3-1.2
	c0-0.3-0.2-0.4-0.4-0.6C71.4,69.5,70.9,69.2,70.3,68.8z"/>
<path style="fill:#040101;" d="M99.7,68.8c0.1-0.1,0.2-0.2,0.3,0c0.1,0.5,0.2,1,0.3,1.5c0.8,4.3,2.1,8.3,4.2,12.2
	c0.2,0.3,0.2,0.5,0,0.8c-2.2,3.1-3.3,6.7-4.2,10.3c-0.1,0.4-0.2,0.9-0.3,1.4c0,0.2-0.1,0.3-0.3,0.3c-0.5-3-1.5-5.9-2.8-8.7
	c-0.6-1.2-1.1-2.4-1.6-3.5c-0.1-0.3-0.2-0.6,0-0.9c2-3.6,3.1-7.6,4-11.6C99.5,70.1,99.6,69.4,99.7,68.8z"/>
<path style="fill:#050101;" d="M73.3,59.7c1.9-0.2,3.6-0.6,5.3-0.5c3,0.1,5.5,1.2,7.5,3.4c0.1,0.2,0.3,0.3,0.4,0.5
	c0,0.1,0.1,0.1,0.1,0.3c-0.6,0.1-1.1-0.2-1.6-0.5c-1.7-1-3.4-1.7-5.3-2c-1.6-0.3-3.1-0.5-4.7-0.3C74.3,60.6,73.7,60.4,73.3,59.7z"/>
<path style="fill:#050101;" d="M112,63.8c0.9-1.7,2.2-2.9,4-3.6c2.3-1,4.7-1.2,7.1-0.7c0.7,0.1,1.4,0.2,2,0.9
	C120.3,60.1,116,61.3,112,63.8z"/>
<path style="fill:#310709;" d="M86.5,99.6c0.2-0.2,0.1-0.4,0.2-0.7c0.2,0.3,0.1,0.6,0.2,0.9C86.5,100,86.6,99.7,86.5,99.6z"/>
<path style="fill:#040101;" d="M103.9,35.5c0-0.1,0-0.3,0.2-0.3C104,35.3,104,35.4,103.9,35.5z"/>
<path style="fill:#040101;" d="M95.3,35.1c0.1,0.1,0.1,0.1,0.2,0.2C95.4,35.2,95.4,35.2,95.3,35.1z"/>
<path style="fill:#010000;" d="M95.2,151.7c0-0.7,0-1.5,0-2.2c0-0.4,0.1-0.6,0.5-0.6c1.9,0,1.5-0.2,1.5,1.4c0,1.1,0,2.3,0,3.4
	c0,0.7,0,0.8-0.7,0.8c-1.5,0-1.3,0.2-1.3-1.3C95.2,152.7,95.2,152.2,95.2,151.7C95.2,151.7,95.2,151.7,95.2,151.7z"/>
<path style="fill:#020000;" d="M98.6,142.1C98.6,142.1,98.6,142.1,98.6,142.1c1.3,0,1.3,0,1.3,1.3c-0.5,0-0.9,0-1.4,0
	c-0.2,0-0.3-0.1-0.3-0.2C98.3,142.8,98.2,142.3,98.6,142.1z"/>
<path style="fill:#070101;" d="M99.7,137.2c0.2,0.2,0.1,0.4,0.1,0.7c0,0.9,0,1.8,0,2.8c-0.3,0-0.6,0-0.5-0.5
	C99.6,139.1,99.7,138.1,99.7,137.2z"/>
<path style="fill:#B2B2B2;" d="M148.9,41.2c0,0.1,0,0.1,0,0.2c0,0.1-0.1,0.1-0.1,0.1C148.7,41.3,148.8,41.2,148.9,41.2z"/>
<path style="fill:#DF0916;" d="M82.2,80.1c0.7,0.1,1,0.7,1.2,1.2c0.5,1.4,0.9,2.9,1.1,4.3c0.3,2.1,0.4,4.3,0,6.4
	c-0.2-0.1-0.3-0.2-0.3-0.4c-0.2-2.2-0.9-4.4-1.5-6.5c-0.4-1.4-0.8-2.9-1-4.3C81.6,80.2,81.5,80.2,82.2,80.1z"/>
<path style="fill:#FDFDFD;" d="M81.2,76.8c-2.2-0.4-3.7-1.7-4.9-3.6c2.3,0.5,3.8,1.8,5.2,3.4C81.6,76.8,81.4,76.8,81.2,76.8z"/>
<path style="fill:#B4ADAD;" d="M81.2,76.8c0.1-0.1,0.3,0,0.4-0.2c0.1,0,0.2,0.1,0.2,0.3c0,0.1-0.2,0.1-0.3,0.1
	C81.4,76.9,81.3,76.8,81.2,76.8z"/>
</svg>
