<?xml version="1.0" encoding="utf-8"?>
<!-- Generator: Adobe Illustrator 24.1.0, SVG Export Plug-In . SVG Version: 6.00 Build 0)  -->
<svg version="1.1" id="Layer_1" xmlns="http://www.w3.org/2000/svg" xmlns:xlink="http://www.w3.org/1999/xlink" x="0px" y="0px"
	 viewBox="0 0 200 200" style="enable-background:new 0 0 200 200;" xml:space="preserve">
<g>
	<path style="fill:#C0C0C0;" d="M74.467,0c0.039,0.208,0.276,0.105,0.361,0.224c-0.84,0.869-1.635,1.786-2.53,2.591
		c-1.077,0.969-2.076,2.015-3.124,3.011c-3.54,3.366-6.997,6.816-10.427,10.293c-2.126,2.155-4.07,4.463-5.661,7.048
		c-0.934,1.517-1.813,3.061-2.252,4.821c-0.285,1.145,0.142,1.779,1.041,2.206c1.175,0.558,2.443,0.797,3.719,0.995
		c1.488,0.231,2.987,0.159,4.482,0.161c4.419,0.005,8.838-0.005,13.258-0.004c0.998,0,1.954-0.205,2.846-0.631
		c3.866-1.848,7.942-3.039,12.135-3.829c2.07-0.39,4.168-0.625,6.266-0.857c3.402-0.376,6.806-0.336,10.207-0.231
		c2.308,0.071,4.604,0.427,6.892,0.797c4.074,0.658,7.911,2.103,11.788,3.426c1.22,0.416,2.455,0.788,3.681,1.187
		c0.325,0.106,0.653,0.136,0.991,0.135c5.272-0.005,10.544,0.019,15.816-0.024c1.653-0.013,3.271-0.383,4.83-0.953
		c0.286-0.105,0.547-0.289,0.805-0.458c0.371-0.243,0.533-0.596,0.57-1.043c0.07-0.86-0.234-1.635-0.535-2.398
		c-0.859-2.179-2.082-4.149-3.56-5.96c-1.013-1.241-2.106-2.41-3.238-3.542c-2.048-2.047-4.074-4.116-6.158-6.125
		c-0.966-0.932-1.937-1.86-2.893-2.803c-2.006-1.978-3.832-4.116-5.587-6.316c-0.302-0.378-0.701-0.684-0.894-1.187
		c0.453-0.18,0.866,0.058,1.272,0.115c1.807,0.253,3.601,0.61,5.41,0.845c1.3,0.169,2.604,0.307,3.902,0.506
		c1.985,0.305,3.955,0.685,5.912,1.133c3.042,0.698,6.037,1.563,8.984,2.59c3.169,1.104,6.28,2.348,9.309,3.8
		c2.496,1.196,4.895,2.554,7.176,4.119c2.607,1.789,4.965,3.876,7.111,6.193c1.671,1.805,3.135,3.773,4.195,6.01
		c1.089,2.298,1.839,4.702,2.146,7.235c0.025,0.204,0.148,1.144,0.148,1.297c-0.001,1.337-0.001,2.673-0.001,4.01
		c0,0.153-0.123,1.021-0.144,1.215c-0.189,1.803-0.633,3.548-1.239,5.251c-1.012,2.848-2.473,5.436-4.423,7.756
		c-2.242,2.667-4.99,4.686-7.976,6.42c-2.713,1.576-5.585,2.786-8.571,3.725c-1.646,0.517-3.302,1.004-4.999,1.335
		c-0.201,0.039-0.395,0.114-0.625,0.183c0.081,0.308,0.333,0.459,0.527,0.642c2.192,2.062,4.12,4.341,5.725,6.89
		c2.271,3.609,3.996,7.449,4.979,11.612c0.236,1.002,0.57,1.981,0.844,2.975c0.196,0.712,0.149,0.75-0.549,0.801
		c-1.231,0.09-2.46,0.257-3.692,0.287c-2.611,0.063-5.185-0.301-7.737-0.823c-0.958-0.196-1.913-0.41-2.859-0.653
		c-0.44-0.113-0.673-0.001-0.483,0.549c0.701,2.022,1.389,4.052,1.987,6.107c0.879,3.019,1.918,5.993,2.603,9.066
		c0.335,1.506,0.615,3.03,0.589,4.586c-0.01,0.596,0.18,1.171,0.133,1.772c-0.168,2.129-0.293,4.261-0.805,6.349
		c-0.647,2.639-1.538,5.184-2.714,7.638c-1.697,3.541-3.55,6.997-5.448,10.432c-2.46,4.452-5.151,8.763-7.843,13.076
		c-4.112,6.59-8.241,13.169-12.606,19.596c-3.059,4.504-6.268,8.9-9.562,13.234c-2.216,2.915-4.444,5.822-6.71,8.698
		c-2.203,2.795-4.465,5.543-6.695,8.316c-1.131,1.407-2.202,2.864-3.522,4.109c-0.131,0.124-0.266,0.254-0.214,0.466
		c-0.207,0-0.414,0-0.62,0c-0.082-0.592-0.598-0.89-0.941-1.274c-0.966-1.082-1.811-2.253-2.684-3.402
		c-2.372-3.121-4.731-6.253-7.073-9.397c-2.697-3.621-5.377-7.255-8.052-10.891c-2.813-3.824-5.631-7.644-8.413-11.491
		c-1.95-2.697-3.843-5.436-5.759-8.158c-1.708-2.428-3.383-4.879-5-7.369c-2.769-4.265-5.475-8.568-7.978-12.998
		c-1.448-2.564-2.836-5.158-4.197-7.769c-1.925-3.692-3.523-7.524-5.021-11.4c-0.538-1.393-0.803-2.87-1.045-4.35
		c-0.151-0.923-0.147-1.85-0.224-2.77c-0.08-0.963,0.08-1.951,0.183-2.923c0.305-2.866,1.273-5.57,2.097-8.306
		c1.115-3.704,2.28-7.394,3.423-11.09c0.046-0.147,0.101-0.295,0.12-0.446c0.023-0.184-0.054-0.298-0.267-0.25
		c-0.176,0.04-0.356,0.068-0.528,0.122c-1.923,0.594-3.893,0.986-5.872,1.319c-2.065,0.347-4.158,0.48-6.243,0.31
		c-0.84-0.069-1.7-0.022-2.534-0.243c-0.3-0.079-0.383-0.215-0.348-0.481c0.347-2.607,0.781-5.19,1.708-7.673
		c1.294-3.464,3.147-6.614,5.298-9.597c1.166-1.617,2.57-3.032,4.008-4.408c0.279-0.267,0.572-0.518,0.977-0.884
		c-0.862-0.216-1.566-0.398-2.271-0.569c-3.624-0.879-7.124-2.101-10.423-3.851c-2.421-1.284-4.701-2.779-6.774-4.594
		c-3.345-2.93-5.736-6.475-7.059-10.721c-0.637-2.046-1.055-4.142-1.182-6.289c0-0.243-0.019-3.592-0.045-3.751
		c-0.017-0.104,0.051-0.823,0.077-1c0.049-0.33,0.105-0.66,0.153-0.99c0.462-3.161,1.583-6.079,3.294-8.765
		c2.046-3.212,4.69-5.882,7.658-8.235c3.622-2.871,7.637-5.085,11.855-6.94c3.353-1.475,6.774-2.771,10.29-3.809
		c2.247-0.664,4.511-1.258,6.807-1.735c2.04-0.423,4.083-0.819,6.147-1.106c1.552-0.216,3.095-0.496,4.643-0.746
		c1.624-0.262,3.248-0.522,4.872-0.78c0.177-0.028,0.286-0.104,0.269-0.3C74.261,0,74.364,0,74.467,0z M114.064,179.711
		c0.056-0.052,0.122-0.097,0.167-0.157c2.542-3.322,5.072-6.652,7.481-10.073c0.321-0.437,0.649-0.869,0.963-1.312
		c5.208-7.337,9.989-14.953,14.775-22.568c3.933-6.258,7.802-12.552,11.208-19.117c1.45-2.796,2.958-5.567,4.059-8.53
		c2.153-5.794,2.559-11.676,0.812-17.644c-1.64-5.6-3.29-11.198-5.34-16.667c-0.105-0.28-0.267-0.556-0.228-0.969
		c0.811,0.191,1.607,0.37,2.398,0.566c3.208,0.793,6.412,1.605,9.722,1.871c1.214,0.097,2.427,0.083,3.641,0.033
		c0.323-0.013,0.477-0.128,0.373-0.481c-0.54-1.832-0.961-3.698-1.698-5.47c-2.292-5.512-5.561-10.306-10.23-14.092
		c-0.681-0.552-1.293-1.19-1.93-1.795c-0.1-0.095-0.279-0.174-0.17-0.398c0.083-0.02,0.18-0.045,0.278-0.065
		c2.554-0.521,5.115-1.007,7.629-1.71c4.585-1.282,8.93-3.093,12.808-5.897c7.116-5.145,10.359-12.143,9.768-20.883
		c-0.304-4.495-2.015-8.462-4.928-11.897c-3.213-3.788-7.011-6.879-11.371-9.236c-9.541-5.155-19.736-8.243-30.501-9.476
		c-0.267-0.031-0.54-0.004-0.856-0.004c0.081,0.305,0.306,0.451,0.479,0.625c1.182,1.194,2.364,2.389,3.559,3.57
		c3.126,3.089,6.298,6.131,9.314,9.33c2.254,2.391,4.115,5.039,5.379,8.087c0.347,0.837,0.639,1.69,0.788,2.588
		c0.297,1.785-0.372,3.213-1.94,4.122c-0.516,0.299-1.068,0.512-1.637,0.693c-1.863,0.593-3.78,0.836-5.725,0.868
		c-4.832,0.081-9.665,0.063-14.498,0.013c-1.019-0.011-2.003-0.174-2.965-0.5c-1.735-0.588-3.49-1.126-5.204-1.771
		c-6.39-2.405-13.01-3.444-19.814-3.388c-3.492,0.029-6.965,0.334-10.414,0.89c-4.222,0.68-8.346,1.729-12.231,3.547
		c-1.823,0.853-3.693,1.249-5.692,1.237c-4.729-0.027-9.459-0.006-14.188-0.012c-1.451-0.002-2.89-0.152-4.307-0.458
		c-1.29-0.279-2.559-0.633-3.67-1.392c-1.275-0.871-1.793-2.083-1.618-3.61c0.077-0.672,0.244-1.318,0.474-1.952
		c0.567-1.564,1.375-3.005,2.256-4.406c1.826-2.906,4.078-5.463,6.478-7.899c3.23-3.277,6.528-6.486,9.826-9.695
		c0.194-0.189,0.443-0.342,0.566-0.67c-0.233,0.013-0.411,0.006-0.583,0.035c-3.386,0.562-6.785,1.053-10.132,1.834
		c-7.1,1.659-13.902,4.12-20.322,7.595c-4.402,2.383-8.341,5.36-11.584,9.209c-2.059,2.443-3.595,5.166-4.44,8.262
		c-0.874,3.198-0.901,6.427-0.391,9.684c0.832,5.311,3.194,9.779,7.267,13.315c3.302,2.866,7.088,4.887,11.167,6.395
		c3.012,1.114,6.14,1.792,9.264,2.488c0.789,0.176,1.592,0.306,2.457,0.599c-0.677,0.549-1.271,1.037-1.873,1.515
		c-4.728,3.76-8.251,8.442-10.67,13.966c-0.843,1.925-1.437,3.927-1.78,6.001c-0.115,0.697-0.099,0.701,0.568,0.734
		c2.361,0.119,4.696-0.089,7.012-0.546c2.84-0.561,5.607-1.402,8.397-2.155c0.243-0.066,0.48-0.146,0.752-0.145
		c0.051,0.265-0.061,0.442-0.13,0.629c-0.216,0.581-0.457,1.154-0.641,1.745c-1.878,6.013-3.806,12.011-5.531,18.071
		c-1.097,3.853-1.114,7.712,0.097,11.535c0.976,3.082,2.293,6.036,3.681,8.949c3.305,6.937,7.164,13.567,11.282,20.048
		c4.992,7.858,10.391,15.433,15.883,22.944c0.669,0.915,1.282,1.873,2.038,2.723c0.092,0.152,0.172,0.313,0.277,0.456
		c1.647,2.239,3.29,4.481,4.95,6.711c0.767,1.03,1.471,2.108,2.327,3.07c0.077,0.133,0.141,0.276,0.232,0.398
		c4.112,5.531,8.223,11.063,12.409,16.539c0.139,0.181,0.25,0.396,0.51,0.503c0.111-0.123,0.234-0.248,0.345-0.384
		c3.691-4.519,7.349-9.064,10.929-13.671C112.619,181.656,113.409,180.734,114.064,179.711z"/>
	<path style="fill:#050202;" d="M79.897,168.99c-0.756-0.85-1.369-1.808-2.038-2.723c-5.492-7.511-10.892-15.086-15.883-22.944
		c-4.117-6.482-7.976-13.112-11.282-20.048c-1.388-2.913-2.705-5.867-3.681-8.949c-1.211-3.823-1.194-7.682-0.097-11.535
		c1.725-6.06,3.653-12.058,5.531-18.071c0.184-0.591,0.426-1.164,0.641-1.745c0.069-0.187,0.181-0.364,0.13-0.629
		c-0.272-0.001-0.508,0.079-0.752,0.145c-2.79,0.753-5.557,1.594-8.397,2.155c-2.317,0.457-4.652,0.665-7.012,0.546
		c-0.667-0.034-0.683-0.037-0.568-0.734c0.342-2.074,0.937-4.076,1.78-6.001c2.419-5.524,5.942-10.206,10.67-13.966
		c0.601-0.478,1.195-0.967,1.873-1.515c-0.865-0.293-1.668-0.423-2.457-0.599c-3.124-0.696-6.252-1.374-9.264-2.488
		c-4.079-1.509-7.865-3.529-11.167-6.395c-4.073-3.536-6.435-8.004-7.267-13.315c-0.51-3.257-0.483-6.486,0.391-9.684
		c0.845-3.096,2.382-5.819,4.44-8.262c3.243-3.848,7.182-6.826,11.584-9.209c6.419-3.475,13.221-5.937,20.322-7.595
		c3.347-0.782,6.746-1.273,10.132-1.834c0.172-0.029,0.351-0.022,0.583-0.035c-0.123,0.327-0.372,0.481-0.566,0.67
		c-3.298,3.209-6.596,6.418-9.826,9.695c-2.4,2.435-4.653,4.993-6.478,7.899c-0.881,1.401-1.688,2.843-2.256,4.406
		c-0.23,0.634-0.397,1.28-0.474,1.952c-0.176,1.527,0.343,2.738,1.618,3.61c1.11,0.759,2.379,1.113,3.67,1.392
		c1.418,0.307,2.857,0.457,4.307,0.458c4.729,0.006,9.459-0.016,14.188,0.012c2,0.012,3.87-0.384,5.692-1.237
		c3.885-1.818,8.009-2.867,12.231-3.547c3.449-0.556,6.922-0.861,10.414-0.89c6.804-0.056,13.424,0.983,19.814,3.388
		c1.714,0.645,3.468,1.182,5.204,1.771c0.962,0.326,1.946,0.489,2.965,0.5c4.833,0.05,9.665,0.068,14.498-0.013
		c1.945-0.033,3.862-0.275,5.725-0.868c0.568-0.181,1.121-0.394,1.637-0.693c1.568-0.908,2.237-2.337,1.94-4.122
		c-0.149-0.897-0.441-1.751-0.788-2.588c-1.264-3.048-3.126-5.697-5.379-8.087c-3.016-3.199-6.188-6.241-9.314-9.33
		c-1.195-1.181-2.376-2.376-3.559-3.57c-0.173-0.175-0.398-0.32-0.479-0.625c0.316,0,0.589-0.027,0.856,0.004
		c10.764,1.233,20.96,4.321,30.501,9.476c4.361,2.356,8.159,5.448,11.371,9.236c2.913,3.435,4.624,7.403,4.928,11.897
		c0.59,8.74-2.652,15.738-9.768,20.883c-3.878,2.804-8.223,4.615-12.808,5.897c-2.514,0.703-5.075,1.189-7.629,1.71
		c-0.098,0.02-0.195,0.045-0.278,0.065c-0.109,0.224,0.07,0.302,0.17,0.398c0.637,0.605,1.249,1.243,1.93,1.795
		c4.669,3.786,7.938,8.58,10.23,14.092c0.737,1.772,1.159,3.639,1.698,5.47c0.104,0.353-0.05,0.468-0.373,0.481
		c-1.214,0.049-2.427,0.064-3.641-0.033c-3.31-0.266-6.514-1.078-9.722-1.871c-0.792-0.196-1.587-0.375-2.398-0.566
		c-0.039,0.413,0.123,0.688,0.228,0.969c2.05,5.469,3.7,11.067,5.34,16.667c1.748,5.968,1.341,11.85-0.812,17.644
		c-1.101,2.963-2.608,5.734-4.059,8.53c-3.406,6.566-7.275,12.86-11.208,19.117c-4.786,7.614-9.567,15.231-14.775,22.568
		c-0.314,0.442-0.642,0.875-0.962,1.311c-0.201-0.363-0.096-0.761-0.13-1.142c-0.228-2.57-0.335-5.147-0.45-7.724
		c-0.016-0.361-0.059-0.72-0.081-1.078c-0.062-1.026-0.157-2.051,0.099-3.08c0.516-2.076,0.976-4.166,1.46-6.251
		c0.045-0.192,0.156-0.383,0.005-0.575c-0.195-0.037-0.285,0.112-0.393,0.212c-0.965,0.896-1.923,1.8-2.891,2.694
		c-1.005,0.929-2.022,1.845-3.027,2.773c-0.797,0.736-1.652,1.422-2.36,2.236c-1.49,1.714-2.902,3.496-4.343,5.253
		c-2.751,3.354-5.497,6.711-8.25,10.063c-0.595,0.724-0.598,0.713-1.2-0.027c-1.32-1.622-2.642-3.242-3.968-4.859
		c-2.079-2.536-4.15-5.078-6.248-7.598c-1.007-1.209-1.913-2.505-3.079-3.578c-2.548-2.342-5.09-4.69-7.636-7.032
		c-0.105-0.096-0.181-0.26-0.372-0.213c-0.063,0.128-0.027,0.255,0.002,0.379c0.485,2.084,0.971,4.167,1.46,6.25
		c0.172,0.732,0.265,1.468,0.216,2.224c-0.111,1.698-0.22,3.397-0.297,5.097C80.144,165.337,80.075,167.167,79.897,168.99z
		 M68.108,67.35l-0.012-0.004c-0.041,0.279,0.13,0.493,0.23,0.726c0.315,0.736,0.616,1.48,0.972,2.196
		c0.24,0.483,0.232,0.898-0.001,1.388c-1.632,3.435-2.992,6.975-4.091,10.618c-0.161,0.535-0.13,0.979,0.09,1.475
		c1.017,2.3,2.507,4.268,4.205,6.095c0.182,0.353,0.511,0.576,0.768,0.862c1.937,2.148,3.882,4.288,5.823,6.431
		c1.317,1.455,2.631,2.912,3.948,4.366c0.503,0.555,1.001,1.115,1.52,1.654c0.333,0.346,0.717,0.293,0.95-0.117
		c0.14-0.246,0.233-0.518,0.355-0.774c0.238-0.497,0.482-0.991,0.789-1.619c0.331,1.296,0.256,2.406,0.027,3.521
		c-0.289,1.402-0.854,2.703-1.4,4.013c-0.616,1.478-1.198,2.96-1.359,4.582c-0.045,0.451,0.048,0.721,0.35,1.011
		c1.697,1.627,3.405,3.243,5.058,4.913c0.519,0.524,1.084,0.737,1.774,0.764c2.373,0.092,4.743,0.253,7.12,0.195
		c0.724-0.018,1.444-0.045,2.156-0.181c0.953-0.182,1.824-0.554,2.6-1.141c0.229-0.173,0.222-0.331-0.036-0.464
		c-0.253-0.131-0.518-0.216-0.803-0.268c-0.965-0.174-1.912-0.413-2.841-0.736c-1.869-0.649-3.379-1.755-4.464-3.419
		c-0.278-0.426-0.63-0.718-1.109-0.912c-1.823-0.737-2.87-2.11-3.25-4.031c-0.127-0.64-0.142-1.28-0.163-1.924
		c-0.02-0.629-0.19-0.856-0.796-1.057c-0.564-0.187-0.737-0.594-0.707-1.139c1.393-0.329,2.51,0.11,3.388,1.395
		c0.523,0.765,1.002,1.562,1.466,2.365c0.748,1.295,1.43,2.626,2.074,3.977c0.431,0.904,1.114,1.52,2.04,1.902
		c2.608,1.077,5.291,1.23,8.036,0.697c0.126,0.023,0.253,0.072,0.377,0.065c1.528-0.098,2.92-0.588,4.197-1.436
		c0.337-0.224,0.572-0.495,0.753-0.853c0.604-1.2,1.213-2.397,1.853-3.578c0.615-1.134,1.231-2.271,2.034-3.291
		c0.377-0.478,0.838-0.832,1.397-1.073c0.331-0.143,0.636-0.161,0.966,0c0.347,0.169,0.71,0.309,1.069,0.454
		c0.314,0.126,0.43-0.019,0.417-0.323c-0.032-0.746-0.387-1.334-0.939-1.797c-0.395-0.331-0.824-0.624-1.257-0.903
		c-0.55-0.353-0.719-0.807-0.57-1.449c0.326-1.406,0.596-2.825,0.916-4.233c0.084-0.369,0.069-0.682-0.077-1.04
		c-0.733-1.794-1.311-3.637-1.716-5.537c-0.308-1.445-0.408-2.909-0.517-4.373c-0.042-0.563-0.076-1.142,0.053-1.7
		c0.127-0.549,0.012-0.998-0.361-1.425c-0.835-0.957-1.52-2.026-2.121-3.14c-0.716-1.328-1.223-2.735-1.312-4.258
		c-0.112-1.909,0.485-3.612,1.583-5.152c0.091-0.127,0.12-0.367,0.401-0.299c0,0.282-0.001,0.565,0,0.847
		c0.005,1.629-0.049,3.26,0.03,4.885c0.094,1.94,0.943,2.681,2.158,3.032c0.462,0.133,0.831,0.091,1.188-0.286
		c0.657-0.693,1.372-1.327,2.094-1.956c2.83-2.465,5.977-4.412,9.445-5.838c1.409-0.579,2.857-1.05,4.34-1.403
		c0.671-0.16,0.698-0.154,0.796,0.496c0.157,1.042,0.264,2.074,0.174,3.147c-0.174,2.092,0.293,4.105,1.107,6.034
		c0.402,0.952,0.796,1.903,1.073,2.902c0.649,2.343,0.571,4.643-0.373,6.895c-0.151,0.361-0.23,0.727-0.272,1.128
		c0.087-0.031,0.145-0.035,0.179-0.066c1.868-1.67,3.202-3.699,4.055-6.051c0.112-0.308,0.104-0.598-0.014-0.904
		c-0.439-1.131-0.867-2.266-1.297-3.401c-0.932-2.462-1.854-4.928-2.8-7.386c-0.17-0.442-0.173-0.827,0.027-1.261
		c0.303-0.657,0.626-1.302,0.963-1.942c0.604-1.146,1.092-2.332,1.194-3.652c0.043-0.558-0.117-0.917-0.624-1.186
		c-0.568-0.302-1.118-0.651-1.631-1.04c-1.975-1.498-3.881-3.082-5.788-4.666c-0.79-0.656-1.524-1.383-2.388-1.948
		c-0.599-0.621-1.153-1.275-1.515-2.07l-0.013,0.012c0.13-0.048,0.256-0.02,0.375,0.034c1.789,0.808,3.581,1.615,5.292,2.579
		c1.304,0.735,1.348,0.742,1.677-0.756c0.011-0.05,0.034-0.099,0.038-0.15c0.101-1.211,0.017-2.302-1.006-3.229
		c-2.566-2.325-5.057-4.734-7.573-7.114c-0.256-0.242-0.559-0.449-0.755-0.83c0.548-0.109,1.05-0.221,1.557-0.306
		c0.23-0.039,0.366-0.124,0.43-0.364c0.378-1.418,1.027-2.764,1.114-4.261c0.036-0.611,0.064-0.619-0.487-0.868
		c-1.509-0.681-3.066-1.227-4.664-1.663c-3.786-1.033-7.654-1.43-11.562-1.521c-0.564-0.013-1.221-0.232-1.67,0.066
		c-0.443,0.294-0.554,0.964-0.801,1.474c-1.082,2.232-2.153,4.469-3.237,6.701c-0.105,0.216-0.16,0.475-0.429,0.657
		c-0.777-1.605-1.542-3.182-2.306-4.759c-0.597-1.233-1.197-2.464-1.785-3.7c-0.136-0.285-0.288-0.426-0.646-0.402
		c-2.214,0.148-4.428,0.28-6.634,0.541c-2.491,0.295-4.956,0.716-7.358,1.446c-1.313,0.399-2.578,0.914-3.73,1.682
		c-0.31,0.207-0.4,0.412-0.273,0.771c0.437,1.243,0.858,2.491,1.263,3.744c0.101,0.312,0.263,0.43,0.587,0.499
		c0.47,0.101,0.981,0.012,1.426,0.262c-0.046,0.192-0.177,0.284-0.288,0.389c-1.072,1.011-2.147,2.018-3.218,3.03
		c-1.766,1.669-3.528,3.342-5.293,5.011c-0.211,0.199-0.391,0.396-0.388,0.721c0.011,1.112,0.011,2.224,0,3.336
		c-0.004,0.379,0.206,0.505,0.529,0.512c0.371,0.008,0.709-0.128,1.032-0.294c0.367-0.189,0.726-0.396,1.091-0.589
		c0.431-0.227,0.891-0.262,1.356-0.147c0.325,0.08,0.377,0.23,0.16,0.489c-0.432,0.515-0.906,0.995-1.319,1.524
		c-0.627,0.803-1.357,1.475-2.201,2.049c-1.645,1.118-3.254,2.291-4.902,3.406c-0.41,0.277-0.515,0.579-0.441,1.032
		c0.127,0.776,0.391,1.497,0.782,2.174c-0.005,0.134,0.036,0.245,0.157,0.316C67.977,67.272,68.001,67.345,68.108,67.35z
		 M156.655,76.029c0.005,0.021,0.005,0.046,0.017,0.062c0.007,0.01,0.031,0.009,0.048,0.013c-0.021-0.026-0.042-0.052-0.063-0.078
		c-0.183-1.204-0.736-2.239-1.443-3.208c-2.024-2.779-4.504-5.101-7.229-7.169c-0.943-0.716-1.834-1.519-2.92-2.025
		c-2.139-0.996-4.42-1.356-6.756-1.432c-0.85-0.027-0.851-0.016-0.855,0.837c0,0.077-0.001,0.155,0,0.232
		c0.007,0.733,0.001,0.749,0.691,1.01c2.879,1.086,5.603,2.503,8.346,3.879c0.923,0.463,1.784,1.032,2.629,1.628
		c2.052,1.447,3.86,3.181,5.749,4.82C155.445,75.098,155.915,75.736,156.655,76.029z M174.186,43.449
		c0.421-0.601,0.62-1.302,0.858-1.98c0.921-2.614,1.367-5.305,1.103-8.074c-0.312-3.27-1.537-6.202-3.52-8.805
		c-2.65-3.479-5.859-6.328-9.727-8.392c-4.932-2.631-10.111-4.678-15.413-6.425c-0.167-0.055-0.342-0.176-0.571-0.093
		c0.684,0.7,1.329,1.367,1.981,2.027c2.653,2.684,4.903,5.663,6.587,9.05c2.081,4.183,2.679,8.546,1.473,13.095
		c-0.931,3.511-3.041,5.987-6.512,7.213c-0.246,0.087-0.475,0.298-0.815,0.197c0.741-0.813,1.33-1.69,1.973-2.528
		c0.458-0.597,0.85-1.237,1.1-1.95c0.158-0.45,0.328-0.907,0.262-1.44c-0.169,0.032-0.296,0.043-0.414,0.081
		c-3.195,1.05-6.489,1.448-9.835,1.527c-2.533,0.06-5.065-0.021-7.598-0.041c-2.248-0.018-4.494-0.002-6.742,0.078
		c-1.049,0.037-1.453,0.491-1.771,1.383c-0.783,2.199-1.094,4.403-0.426,6.684c0.2,0.683,0.196,0.693,0.87,0.689
		c5.866-0.031,11.734,0.119,17.599-0.101c2.636-0.099,5.248-0.404,7.842-0.879c5.164-0.945,9.939-2.904,14.46-5.53
		c1.194-0.693,2.245-1.563,3.171-2.587c1.397-1.546,2.47-3.307,3.452-5.132c0.108-0.2,0.141-0.479,0.417-0.577
		c0.374,1.807,0.673,3.586,0.787,5.396c0.148,2.35-0.162,4.639-0.807,6.892c-0.265,0.399-0.434,0.837-0.54,1.306
		C173.8,44.247,174.025,43.87,174.186,43.449z M61.637,77.908c-0.216,0.021-0.373,0.145-0.537,0.268
		c-0.499,0.374-0.745,0.914-0.981,1.462c-0.746,1.731-1.502,3.458-2.236,5.194c-2.293,5.429-4.27,10.966-5.697,16.693
		c-0.639,2.564-1.138,5.132-1.014,7.8c0.089,1.91,0.505,3.724,1.256,5.473c0.48,1.118,1.127,2.149,1.686,3.225
		c1.837,3.534,3.884,6.941,6.107,10.245c3.996,5.941,8.391,11.586,12.776,17.237c0.363,0.468,0.848,0.786,1.521,1.198
		c-0.304-2.03-0.13-3.878-0.056-5.726c0.074-1.858,0.328-3.696,0.619-5.532c0.304-1.915,1.085-4.778,1.501-5.289
		c0.121,1.033,0.235,2.053,0.36,3.072c0.17,1.382,0.303,2.77,0.531,4.141c0.536,3.218,1.521,6.316,2.595,9.388
		c0.39,1.115,0.856,2.153,1.896,2.825c0.192,0.124,0.335,0.321,0.506,0.479c1.896,1.754,3.796,3.504,5.688,5.263
		c0.434,0.404,0.865,0.808,1.242,1.275c1.493,1.848,3.007,3.679,4.521,5.511c0.122,0.148,0.217,0.354,0.533,0.378
		c0-0.205,0-0.402,0-0.599c-0.001-1.784-0.006-3.568,0.001-5.352c0.003-0.603,0.019-0.614,0.608-0.622
		c0.698-0.01,1.395-0.004,2.093,0.001c0.711,0.005,0.725,0.009,0.718,0.737c-0.032,3.309,0.077,6.615,0.17,9.921
		c0.019,0.683,0.535,1.444,1.224,1.777c0-0.14,0-0.269,0-0.397c-0.002-6.257-0.003-12.514-0.005-18.771c0-1.535,0-1.549-1.505-1.616
		c-0.411-0.018-0.543-0.177-0.529-0.561c0.017-0.491,0.001-0.982,0.005-1.474c0.007-0.74,0.01-0.743,0.722-0.75
		c0.698-0.007,1.396-0.015,2.093-0.002c0.36,0.007,0.533-0.127,0.502-0.496c-0.009-0.103,0.002-0.207,0-0.31
		c-0.014-0.561-0.02-0.57-0.557-0.589c-0.284-0.01-0.568-0.002-0.853-0.008c-0.171-0.004-0.292-0.064-0.3-0.268
		c-0.026-0.719,0.312-1.086,1.038-1.117c0.129-0.006,0.259-0.002,0.387-0.014c0.14-0.013,0.257-0.082,0.263-0.232
		c0.012-0.309,0.024-0.62-0.002-0.927c-0.027-0.318-0.414-0.146-0.545-0.368c0.08-0.521,0.148-1.058,0.247-1.589
		c0.27-1.449-0.037-2.951,0.412-4.383c0.022-0.072,0.007-0.154,0.014-0.231c0.034-0.345-0.091-0.482-0.466-0.534
		c-1.127-0.159-2.264-0.106-3.394-0.242c-1.418-0.17-2.797-0.462-4.134-0.951c-3.494-1.277-6.112-3.585-7.955-6.8
		c-1.347-2.35-3.004-4.454-5.054-6.231c-0.725-0.628-1.404-1.291-2.014-2.032c-1.376-1.674-1.828-3.562-1.291-5.657
		c0.114-0.446,0.086-0.798-0.163-1.161c-0.102-0.148-0.177-0.315-0.268-0.471c-1.498-2.566-3.137-5.044-4.733-7.55
		c-2.955-4.641-5.914-9.28-8.96-13.862c-1.345-2.023-1.646-4.243-1.309-6.601c0.165-1.153,0.474-2.272,0.726-3.404
		C61.701,78.479,61.807,78.215,61.637,77.908z M27.515,43.958c0.049-0.022,0.098-0.044,0.147-0.065
		c-0.191-1.064-0.404-2.125-0.568-3.193c-0.363-2.355-0.567-4.721-0.392-7.106c0.058-0.79,0.175-1.569,0.516-2.302
		c0.054,0.028,0.086,0.035,0.098,0.054c0.056,0.086,0.114,0.172,0.158,0.265c2.193,4.587,5.73,7.772,10.312,9.845
		c5.011,2.267,10.3,3.454,15.752,3.994c1.828,0.181,3.662,0.198,5.494,0.238c4.961,0.11,9.92-0.03,14.879-0.157
		c0.207-0.005,0.414-0.042,0.619-0.032c0.384,0.02,0.552-0.104,0.543-0.529c-0.025-1.111,0.034-2.224-0.009-3.334
		c-0.053-1.379-0.37-2.7-0.986-3.953c-0.27-0.55-0.589-0.77-1.236-0.762c-4.495,0.057-8.991,0.091-13.486,0.019
		c-1.656-0.027-3.3-0.155-4.933-0.435c-1.754-0.301-3.508-0.606-5.265-0.896c-0.513-0.085-1.035-0.134-1.666-0.064
		c1.262,1.957,2.452,3.803,3.644,5.651c-0.079,0.044-0.108,0.073-0.123,0.067c-0.38-0.159-0.756-0.325-1.136-0.482
		c-2.576-1.07-4.357-2.928-5.323-5.526c-1.47-3.951-1.453-7.941-0.089-11.915c1.103-3.214,2.896-6.046,5.023-8.67
		c1.253-1.546,2.543-3.061,3.721-4.666c0.11-0.15,0.258-0.284,0.306-0.563c-1.486,0.493-2.911,0.936-4.315,1.438
		c-4.679,1.673-9.205,3.669-13.326,6.487c-2.832,1.936-5.412,4.151-7.468,6.926c-2.159,2.914-3.442,6.151-3.615,9.806
		c-0.105,2.217,0.185,4.384,0.758,6.515C25.899,41.904,26.705,42.938,27.515,43.958z M87.802,120.862
		c0.771,1.012,1.53,1.955,2.224,2.944c0.339,0.482,0.724,0.616,1.293,0.614c6.093-0.02,12.187-0.012,18.28-0.012
		c0.155,0,0.31-0.005,0.465,0c0.219,0.008,0.397-0.068,0.558-0.218c0.779-0.727,1.483-1.505,1.906-2.508
		c0.372-0.882,0.35-0.934-0.616-0.934c-7.746-0.001-15.492-0.001-23.237,0.003C88.424,120.75,88.163,120.691,87.802,120.862z
		 M63.006,63.043c0-0.207-0.012-0.414,0.003-0.62c0.026-0.359-0.119-0.515-0.489-0.514c-0.411,0.001-0.825-0.03-1.234-0.075
		c-1.495-0.164-2.933-0.013-4.269,0.737c-3.053,1.714-5.862,3.762-8.369,6.209c-1.61,1.571-3.041,3.302-4.307,5.164
		c-0.232,0.341-0.474,0.68-0.663,1.045c-0.166,0.321-0.042,0.655,0.237,0.804c0.304,0.163,0.486-0.039,0.656-0.238
		c1.044-1.218,2.194-2.326,3.402-3.381c2.109-1.842,4.407-3.401,6.87-4.731c2.325-1.255,4.805-2.135,7.252-3.099
		C63.198,63.909,62.98,64.173,63.006,63.043z M100.772,170.354c0.212-0.224,0.367-0.394,0.53-0.557
		c0.554-0.553,0.782-1.175,0.777-1.999c-0.04-6.281-0.022-12.561-0.022-18.842c0-0.233-0.013-0.467,0.008-0.698
		c0.04-0.455,0.224-0.648,0.676-0.688c0.308-0.027,0.62-0.015,0.929-0.012c0.291,0.002,0.421-0.139,0.419-0.426
		c-0.004-0.569,0.009-1.137-0.003-1.706c-0.012-0.571-0.064-0.629-0.619-0.639c-0.749-0.014-1.498-0.011-2.247,0.002
		c-0.534,0.009-0.535,0.022-0.553,0.589c-0.003,0.103-0.001,0.207-0.001,0.31c0,7.935-0.001,15.87,0.003,23.805
		C100.669,169.743,100.61,170.002,100.772,170.354z M103.241,167.231c0.132-0.056,0.193-0.062,0.22-0.096
		c1.048-1.278,2.091-2.56,3.141-3.836c0.152-0.185,0.27-0.365,0.269-0.62c-0.004-2.094-0.006-4.189,0.003-6.283
		c0.002-0.383-0.185-0.486-0.529-0.481c-0.801,0.012-1.602,0.017-2.403,0.002c-0.369-0.007-0.508,0.141-0.493,0.503
		c0.072,1.758-0.129,3.51-0.123,5.267c0.004,1.396-0.036,2.792-0.026,4.188C103.303,166.307,103.135,166.732,103.241,167.231z
		 M116.266,92.92c0.028-1.355,0.06-2.698,0.267-4.028c0.367-2.355,1.028-4.63,1.89-6.849c0.168-0.433,0.336-0.866,0.497-1.302
		c0.075-0.203,0.046-0.403-0.218-0.35c-0.787,0.159-1.6,0.302-1.891,1.234c-0.031,0.098-0.086,0.188-0.122,0.285
		c-1.062,2.8-1.436,5.692-1.093,8.664C115.689,91.377,115.821,92.194,116.266,92.92z M103.45,151.668c-0.001,0-0.002,0-0.003,0
		c0,0.516-0.004,1.033,0.001,1.549c0.016,1.503-0.209,1.288,1.32,1.3c0.664,0.005,0.714-0.05,0.719-0.696
		c0.009-1.136,0.014-2.272-0.001-3.407c-0.021-1.606,0.306-1.454-1.59-1.46c-0.338-0.001-0.452,0.152-0.448,0.47
		C103.456,150.171,103.45,150.92,103.45,151.668z M118.239,76.711c2.859,0.055,5.347-1.824,5.752-4.286
		C122.078,73.85,120.208,75.244,118.239,76.711z M101.579,143.381c0.856-0.001,1.013-0.242,0.668-0.993
		c-0.088-0.191-0.205-0.288-0.406-0.289c-0.284-0.002-0.568-0.004-0.852,0.002c-0.174,0.004-0.271,0.093-0.314,0.274
		c-0.173,0.737,0.017,0.999,0.749,1.006C101.475,143.381,101.527,143.38,101.579,143.381z M100.776,135.141
		c-0.037,0.006-0.074,0.013-0.111,0.019c0,1.415-0.001,2.83,0.001,4.245c0,0.309,0.003,0.618,0.017,0.927
		c0.009,0.202,0.162,0.24,0.328,0.237c0.193-0.004,0.272-0.117,0.262-0.3c-0.004-0.077-0.016-0.154-0.034-0.229
		c-0.206-0.855-0.265-1.724-0.29-2.602C100.928,136.672,100.837,135.907,100.776,135.141z M173.178,45.022
		c-0.015,0.014-0.04,0.027-0.041,0.043c-0.002,0.016,0.02,0.034,0.031,0.051c0.014-0.015,0.039-0.028,0.04-0.044
		C173.21,45.056,173.189,45.037,173.178,45.022z M173.306,44.723c-0.009,0.018-0.028,0.039-0.023,0.052
		c0.007,0.021,0.039,0.055,0.045,0.053c0.06-0.03,0.07-0.069,0.027-0.103C173.344,44.717,173.323,44.723,173.306,44.723z
		 M27.739,44.125L27.7,44.098l-0.003,0.05L27.739,44.125z"/>
	<path style="fill:#96181B;" d="M79.897,168.99c0.178-1.824,0.247-3.654,0.33-5.483c0.077-1.7,0.186-3.399,0.297-5.097
		c0.049-0.756-0.044-1.492-0.216-2.224c-0.489-2.083-0.974-4.167-1.46-6.25c-0.029-0.124-0.065-0.252-0.002-0.379
		c0.191-0.047,0.267,0.117,0.372,0.213c2.547,2.343,5.089,4.69,7.636,7.032c1.167,1.073,2.073,2.369,3.079,3.578
		c2.098,2.519,4.169,5.062,6.248,7.598c1.326,1.617,2.649,3.237,3.968,4.859c0.602,0.741,0.606,0.751,1.2,0.027
		c2.753-3.352,5.499-6.709,8.25-10.063c1.441-1.757,2.853-3.539,4.343-5.253c0.708-0.814,1.564-1.5,2.36-2.236
		c1.005-0.929,2.022-1.845,3.027-2.773c0.968-0.894,1.926-1.798,2.891-2.694c0.108-0.1,0.198-0.249,0.393-0.212
		c0.152,0.192,0.04,0.383-0.005,0.575c-0.484,2.084-0.945,4.174-1.46,6.251c-0.256,1.029-0.161,2.054-0.099,3.08
		c0.022,0.358,0.065,0.717,0.081,1.078c0.115,2.577,0.222,5.154,0.45,7.724c0.034,0.381-0.07,0.779,0.13,1.142
		c-2.409,3.421-4.94,6.752-7.482,10.074c-0.046,0.06-0.111,0.105-0.168,0.157c-0.136-1.267,0.075-2.526,0.096-3.789
		c0.029-1.807-0.05-3.616,0.128-5.421c0.041-0.418,0.006-0.843,0.006-1.265c-0.052-0.015-0.103-0.03-0.155-0.045
		c-4.44,5.414-8.88,10.828-13.376,16.311c-1.569-1.916-3.055-3.731-4.543-5.544c-1.474-1.796-2.952-3.588-4.427-5.383
		c-1.479-1.799-2.922-3.628-4.515-5.463c-0.165,0.741,0.044,1.319,0.043,1.907c-0.005,1.628-0.008,3.257,0.056,4.884
		c0.044,1.109,0.141,2.214,0.075,3.325c-0.856-0.962-1.56-2.04-2.327-3.07c-1.66-2.229-3.303-4.472-4.95-6.711
		C80.069,169.304,79.989,169.143,79.897,168.99z"/>
	<path style="fill:#050202;" d="M87.451,179.227c0.066-1.111-0.031-2.216-0.075-3.325c-0.064-1.626-0.062-3.256-0.056-4.884
		c0.002-0.588-0.208-1.166-0.043-1.907c1.593,1.835,3.036,3.664,4.515,5.463c1.475,1.795,2.953,3.587,4.427,5.383
		c1.488,1.813,2.974,3.629,4.543,5.544c4.496-5.482,8.936-10.897,13.376-16.311c0.052,0.015,0.103,0.03,0.155,0.045
		c0,0.422,0.035,0.847-0.006,1.265c-0.178,1.804-0.099,3.614-0.128,5.421c-0.021,1.264-0.232,2.522-0.096,3.789
		c-0.655,1.023-1.444,1.945-2.187,2.901c-3.58,4.607-7.239,9.152-10.929,13.671c-0.111,0.136-0.234,0.261-0.345,0.384
		c-0.26-0.107-0.371-0.321-0.51-0.503c-4.186-5.476-8.296-11.008-12.409-16.539C87.592,179.502,87.528,179.36,87.451,179.227z"/>
	<path style="fill:#DE0916;" d="M67.811,66.869c-0.392-0.677-0.656-1.398-0.782-2.174c-0.074-0.453,0.031-0.755,0.441-1.032
		c1.648-1.115,3.256-2.288,4.902-3.406c0.844-0.574,1.574-1.246,2.201-2.049c0.413-0.529,0.888-1.009,1.319-1.524
		c0.217-0.259,0.166-0.408-0.16-0.489c-0.466-0.115-0.925-0.081-1.356,0.147c-0.366,0.193-0.724,0.4-1.091,0.589
		c-0.323,0.166-0.661,0.302-1.032,0.294c-0.323-0.007-0.533-0.132-0.529-0.512c0.011-1.112,0.01-2.224,0-3.336
		c-0.003-0.325,0.177-0.521,0.388-0.721c1.766-1.669,3.528-3.342,5.293-5.011c1.071-1.012,2.146-2.019,3.218-3.03
		c0.111-0.104,0.242-0.196,0.288-0.389c-0.445-0.25-0.956-0.161-1.426-0.262c-0.324-0.07-0.486-0.187-0.587-0.499
		c-0.406-1.253-0.827-2.501-1.263-3.744c-0.126-0.359-0.037-0.564,0.273-0.771c1.152-0.768,2.417-1.283,3.73-1.682
		c2.403-0.73,4.867-1.152,7.358-1.446c2.206-0.261,4.42-0.393,6.634-0.541c0.358-0.024,0.511,0.118,0.646,0.402
		c0.589,1.237,1.189,2.468,1.785,3.7c0.764,1.578,1.528,3.155,2.306,4.759c0.269-0.182,0.325-0.441,0.429-0.657
		c1.083-2.231,2.155-4.469,3.237-6.701c0.247-0.509,0.357-1.179,0.801-1.474c0.449-0.298,1.106-0.079,1.67-0.066
		c3.908,0.091,7.777,0.487,11.562,1.521c1.598,0.436,3.155,0.982,4.664,1.663c0.551,0.249,0.523,0.257,0.487,0.868
		c-0.088,1.497-0.736,2.843-1.114,4.261c-0.064,0.24-0.199,0.325-0.43,0.364c-0.507,0.085-1.009,0.197-1.557,0.306
		c0.195,0.38,0.498,0.587,0.755,0.83c2.516,2.38,5.006,4.789,7.573,7.114c1.023,0.927,1.108,2.018,1.006,3.229
		c-0.004,0.051-0.027,0.1-0.038,0.15c-0.329,1.497-0.372,1.491-1.677,0.756c-1.711-0.964-3.503-1.771-5.292-2.579
		c-0.119-0.054-0.245-0.082-0.375-0.034c-0.017-0.025-0.033-0.05-0.05-0.075c0.002,0.014-0.001,0.034,0.007,0.04
		c0.015,0.012,0.037,0.016,0.056,0.024c0.362,0.794,0.917,1.448,1.515,2.07c-0.003,0.37,0.257,0.617,0.445,0.884
		c1.709,2.425,3.555,4.741,5.616,6.877c0.355,0.368,0.545,0.73,0.477,1.23c-0.051,0.382-0.144,0.765-0.134,1.146
		c0.012,0.458-0.202,0.64-0.605,0.745c-1.071,0.278-2.137,0.575-3.202,0.872c-2.234,0.623-4.46,1.26-6.558,2.288
		c-2.393,1.172-4.601,2.652-6.878,4.016c-0.672,0.402-0.739,0.392-1.085-0.294c-0.082-0.163-0.125-0.332-0.151-0.515
		c-0.139-0.967-0.245-1.936-0.312-2.912c-0.042-0.615-0.156-1.222-0.168-1.844c-0.008-0.465-0.135-0.522-0.633-0.457
		c-1.779,0.234-3.286-0.261-4.58-1.543c-1.127-1.117-2.092-2.348-2.953-3.669c-0.648-0.993-1.265-2.007-1.899-3.009
		c-0.092-0.145-0.163-0.328-0.469-0.316c0,3.147,0,6.291,0,9.434c-0.231,0.633-0.3,1.304-0.444,1.956
		c-0.891,4.045-1.988,8.019-4.022,11.667c-0.173,0.309-0.158,0.559-0.014,0.868c0.503,1.076,0.963,2.171,1.472,3.244
		c1.357,2.861,2.342,5.839,2.901,8.958c0.225,0.837,0.113,1.693,0.102,2.538c-0.008,0.583,0.137,1.02,0.579,1.425
		c0.817,0.748,1.581,1.554,2.364,2.339c0.199,0.2,0.384,0.409,0.535,0.656c0.485,0.793,0.913,1.613,1.233,2.487
		c0.98,2.674,0.841,5.239-0.72,7.682c-0.501,0.783-1.097,1.487-1.677,2.207c-2.745,0.533-5.428,0.38-8.036-0.697
		c-0.926-0.382-1.608-0.998-2.04-1.902c-0.644-1.35-1.326-2.681-2.074-3.977c-0.464-0.803-0.943-1.6-1.466-2.365
		c-0.878-1.284-1.994-1.723-3.388-1.395c-0.141-0.967,0.09-1.765,0.985-2.296c0.214-0.127,0.373-0.346,0.553-0.527
		c0.621-0.624,0.621-0.625,0.232-1.385c-0.021-0.041-0.074-0.066-0.112-0.099c0.042-0.311-0.001-0.616-0.057-0.922
		c-0.368-2.015-0.289-3.996,0.364-5.956c0.325-0.976,0.569-1.983,0.796-2.987c0.514-2.274,0.581-4.601,0.759-6.913
		c0.039-0.511,0.153-0.934,0.502-1.329c0.598-0.677,1.101-1.431,1.57-2.205c0.922-1.521,1.568-3.142,1.644-4.94
		c0.087-2.038-0.628-3.847-1.701-5.532c-0.258-0.406-0.455-0.873-0.898-1.138c-0.017-0.166-0.067-0.319-0.269-0.302
		c-0.154,0.013-0.195,0.149-0.201,0.284c-0.007,0.155-0.016,0.311-0.006,0.465c0.069,1.164-0.195,2.31-0.171,3.474
		c0.01,0.487-0.198,0.959-0.441,1.386c-0.566,0.993-0.782,1.018-1.7,0.34c-2.408-1.78-4.872-3.452-7.654-4.631
		c-3.313-1.404-6.754-2.142-10.335-2.281C69.052,66.857,68.431,66.872,67.811,66.869z M87.427,63.463
		c-1.559-2.045-3.425-3.32-5.78-3.881c-2.551-0.607-5.058-0.13-7.653,0.23c0.362,0.669,0.926,0.787,1.523,0.8
		c0.437,0.009,0.876-0.072,1.313-0.063c3.205,0.066,6.236,0.775,8.991,2.482C86.263,63.305,86.736,63.489,87.427,63.463z
		 M112.692,63.861c3.985-2.498,8.317-3.644,13.081-3.496c-0.565-0.685-1.249-0.741-1.928-0.868c-2.311-0.431-4.569-0.272-6.77,0.552
		C115.153,60.77,113.657,62.004,112.692,63.861z"/>
	<path style="fill:#96181B;" d="M61.637,77.908c0.17,0.307,0.064,0.57,0.003,0.844c-0.251,1.132-0.561,2.251-0.726,3.404
		c-0.337,2.358-0.036,4.577,1.309,6.601c3.046,4.582,6.005,9.221,8.96,13.862c1.595,2.505,3.234,4.983,4.733,7.55
		c0.091,0.156,0.166,0.323,0.268,0.471c0.25,0.363,0.278,0.715,0.163,1.161c-0.537,2.095-0.084,3.983,1.291,5.657
		c0.609,0.741,1.288,1.404,2.014,2.032c2.051,1.776,3.707,3.881,5.054,6.231c1.843,3.215,4.461,5.524,7.955,6.8
		c1.337,0.488,2.716,0.78,4.134,0.951c1.13,0.136,2.267,0.083,3.394,0.242c0.375,0.053,0.499,0.19,0.466,0.534
		c-0.007,0.077,0.008,0.16-0.014,0.231c-0.45,1.432-0.142,2.934-0.412,4.383c-0.099,0.531-0.167,1.068-0.247,1.589
		c0.13,0.222,0.518,0.05,0.545,0.368c0.026,0.307,0.014,0.618,0.002,0.927c-0.006,0.15-0.123,0.219-0.263,0.232
		c-0.128,0.012-0.258,0.009-0.387,0.014c-0.726,0.031-1.064,0.399-1.038,1.117c0.007,0.203,0.129,0.264,0.3,0.268
		c0.284,0.006,0.569-0.002,0.853,0.008c0.537,0.019,0.543,0.029,0.557,0.589c0.003,0.103-0.008,0.207,0,0.31
		c0.031,0.369-0.142,0.503-0.502,0.496c-0.697-0.014-1.395-0.005-2.093,0.002c-0.712,0.007-0.715,0.011-0.722,0.75
		c-0.005,0.491,0.012,0.983-0.005,1.474c-0.014,0.384,0.118,0.543,0.529,0.561c1.505,0.067,1.504,0.081,1.505,1.616
		c0.002,6.257,0.003,12.514,0.005,18.771c0,0.129,0,0.257,0,0.397c-0.69-0.333-1.205-1.094-1.224-1.777
		c-0.093-3.306-0.202-6.612-0.17-9.921c0.007-0.728-0.008-0.731-0.718-0.737c-0.698-0.005-1.396-0.011-2.093-0.001
		c-0.59,0.008-0.606,0.019-0.608,0.622c-0.007,1.784-0.002,3.568-0.001,5.352c0,0.197,0,0.394,0,0.599
		c-0.316-0.024-0.411-0.23-0.533-0.378c-1.513-1.832-3.027-3.663-4.521-5.511c-0.377-0.467-0.808-0.871-1.242-1.275
		c-1.892-1.759-3.792-3.509-5.688-5.263c-0.171-0.158-0.314-0.355-0.506-0.479c-1.04-0.673-1.507-1.711-1.896-2.825
		c-1.074-3.073-2.059-6.17-2.595-9.388c-0.229-1.372-0.361-2.76-0.531-4.141c-0.125-1.019-0.239-2.039-0.36-3.072
		c-0.417,0.511-1.197,3.374-1.501,5.289c-0.291,1.836-0.545,3.674-0.619,5.532c-0.074,1.848-0.247,3.696,0.056,5.726
		c-0.673-0.412-1.158-0.73-1.521-1.198c-4.385-5.652-8.78-11.297-12.776-17.237c-2.222-3.304-4.27-6.711-6.107-10.245
		c-0.559-1.076-1.205-2.107-1.686-3.225c-0.751-1.749-1.167-3.563-1.256-5.473c-0.124-2.667,0.376-5.236,1.014-7.8
		c1.427-5.727,3.404-11.263,5.697-16.693c0.733-1.736,1.49-3.463,2.236-5.194c0.236-0.548,0.482-1.088,0.981-1.462
		C61.264,78.053,61.421,77.929,61.637,77.908z M97.877,151.668c0-0.749-0.007-1.499,0.003-2.248c0.004-0.323-0.115-0.48-0.451-0.467
		c-0.335,0.013-0.673,0.023-1.007-0.002c-0.434-0.032-0.619,0.149-0.601,0.577c0.005,0.126-0.066,0.258-0.052,0.382
		c0.137,1.212,0.034,2.421-0.014,3.632c-0.038,0.961,0.011,0.98,1.005,0.98c0.207,0,0.413-0.004,0.62,0
		c0.363,0.008,0.504-0.177,0.5-0.527C97.872,153.218,97.878,152.443,97.877,151.668z"/>
	<path style="fill:#FDFDFD;" d="M27.515,43.958c-0.811-1.02-1.616-2.054-1.964-3.346c-0.574-2.131-0.863-4.297-0.758-6.515
		c0.173-3.655,1.456-6.892,3.615-9.806c2.055-2.774,4.636-4.99,7.468-6.926c4.122-2.818,8.648-4.813,13.326-6.487
		c1.404-0.502,2.829-0.945,4.315-1.438c-0.048,0.279-0.196,0.413-0.306,0.563c-1.178,1.605-2.468,3.12-3.721,4.666
		c-2.127,2.624-3.919,5.456-5.023,8.67c-1.364,3.974-1.381,7.964,0.089,11.915c0.967,2.598,2.747,4.457,5.323,5.526
		c0.38,0.158,0.756,0.324,1.136,0.482c0.015,0.006,0.044-0.023,0.123-0.067c-1.192-1.848-2.382-3.694-3.644-5.651
		c0.631-0.07,1.152-0.02,1.666,0.064c1.756,0.289,3.51,0.595,5.265,0.896c1.632,0.28,3.277,0.408,4.933,0.435
		c4.496,0.072,8.991,0.038,13.486-0.019c0.647-0.008,0.966,0.212,1.236,0.762c0.616,1.252,0.932,2.574,0.986,3.953
		c0.043,1.11-0.016,2.223,0.009,3.334c0.009,0.425-0.159,0.549-0.543,0.529c-0.205-0.01-0.412,0.027-0.619,0.032
		c-4.959,0.127-9.918,0.267-14.879,0.157c-1.833-0.041-3.667-0.058-5.494-0.238c-5.452-0.54-10.741-1.726-15.752-3.994
		c-4.583-2.073-8.12-5.258-10.312-9.845c-0.044-0.092-0.102-0.179-0.158-0.265c-0.012-0.019-0.044-0.025-0.098-0.054
		c-0.341,0.733-0.458,1.512-0.516,2.302c-0.175,2.385,0.029,4.752,0.392,7.106c0.164,1.068,0.377,2.129,0.568,3.193
		C27.613,43.915,27.564,43.936,27.515,43.958z"/>
	<path style="fill:#FDFDFD;" d="M173.969,43.226c0.645-2.253,0.955-4.542,0.807-6.892c-0.114-1.809-0.412-3.588-0.787-5.396
		c-0.276,0.098-0.309,0.377-0.417,0.577c-0.981,1.825-2.055,3.587-3.452,5.132c-0.926,1.024-1.977,1.894-3.171,2.587
		c-4.521,2.625-9.296,4.585-14.46,5.53c-2.594,0.475-5.206,0.78-7.842,0.879c-5.865,0.22-11.732,0.07-17.599,0.101
		c-0.675,0.004-0.67-0.006-0.87-0.689c-0.668-2.281-0.357-4.485,0.426-6.684c0.318-0.893,0.722-1.346,1.771-1.383
		c2.248-0.08,4.494-0.096,6.742-0.078c2.532,0.02,5.064,0.1,7.598,0.041c3.346-0.079,6.64-0.477,9.835-1.527
		c0.117-0.039,0.244-0.049,0.414-0.081c0.066,0.534-0.104,0.99-0.262,1.44c-0.25,0.713-0.643,1.353-1.1,1.95
		c-0.642,0.837-1.232,1.715-1.973,2.528c0.34,0.102,0.569-0.11,0.815-0.197c3.471-1.226,5.581-3.703,6.512-7.213
		c1.206-4.549,0.608-8.912-1.473-13.095c-1.685-3.387-3.934-6.366-6.587-9.05c-0.652-0.66-1.298-1.327-1.981-2.027
		c0.229-0.084,0.403,0.038,0.571,0.093c5.302,1.747,10.481,3.794,15.413,6.425c3.868,2.064,7.078,4.914,9.727,8.392
		c1.983,2.603,3.208,5.535,3.52,8.805c0.264,2.769-0.181,5.461-1.103,8.074c-0.239,0.678-0.437,1.379-0.858,1.98
		C174.114,43.375,174.041,43.301,173.969,43.226z"/>
	<path style="fill:#96181B;" d="M100.507,68.684c0-3.144,0-6.287,0-9.434c0.306-0.012,0.377,0.171,0.469,0.316
		c0.634,1.002,1.251,2.016,1.899,3.009c0.861,1.32,1.826,2.552,2.953,3.669c1.294,1.282,2.801,1.777,4.58,1.543
		c0.498-0.066,0.624-0.008,0.633,0.457c0.011,0.622,0.125,1.229,0.168,1.844c0.067,0.975,0.173,1.945,0.312,2.912
		c0.026,0.183,0.069,0.352,0.151,0.515c0.346,0.686,0.413,0.696,1.085,0.294c2.278-1.364,4.486-2.844,6.878-4.016
		c2.098-1.028,4.324-1.665,6.558-2.288c1.066-0.297,2.132-0.595,3.202-0.872c0.404-0.105,0.618-0.286,0.605-0.745
		c-0.01-0.38,0.082-0.764,0.134-1.146c0.067-0.5-0.122-0.862-0.477-1.23c-2.061-2.136-3.907-4.452-5.616-6.877
		c-0.188-0.266-0.448-0.514-0.445-0.884c0.864,0.565,1.598,1.292,2.388,1.948c1.906,1.584,3.812,3.168,5.788,4.666
		c0.513,0.389,1.063,0.738,1.631,1.04c0.507,0.269,0.667,0.628,0.624,1.186c-0.102,1.32-0.59,2.506-1.194,3.652
		c-0.337,0.64-0.66,1.285-0.963,1.942c-0.2,0.434-0.197,0.819-0.027,1.261c0.945,2.457,1.868,4.923,2.8,7.386
		c0.429,1.135,0.858,2.27,1.297,3.401c0.119,0.306,0.126,0.596,0.014,0.904c-0.853,2.352-2.187,4.381-4.055,6.051
		c-0.035,0.031-0.093,0.035-0.179,0.066c0.042-0.401,0.121-0.767,0.272-1.128c0.943-2.252,1.022-4.552,0.373-6.895
		c-0.277-0.999-0.671-1.95-1.073-2.902c-0.814-1.929-1.281-3.941-1.107-6.034c0.089-1.074-0.017-2.105-0.174-3.147
		c-0.098-0.65-0.125-0.656-0.796-0.496c-1.484,0.354-2.931,0.824-4.34,1.403c-3.467,1.426-6.615,3.373-9.445,5.838
		c-0.722,0.629-1.437,1.263-2.094,1.956c-0.357,0.377-0.726,0.419-1.188,0.286c-1.215-0.351-2.063-1.092-2.158-3.032
		c-0.079-1.625-0.025-3.256-0.03-4.885c-0.001-0.283,0-0.565,0-0.847c-0.28-0.068-0.31,0.172-0.401,0.299
		c-1.099,1.54-1.695,3.243-1.583,5.152c0.089,1.522,0.595,2.93,1.312,4.258c0.601,1.114,1.286,2.183,2.121,3.14
		c0.373,0.428,0.488,0.876,0.361,1.425c-0.129,0.558-0.095,1.136-0.053,1.7c0.109,1.464,0.209,2.929,0.517,4.373
		c0.405,1.9,0.984,3.743,1.716,5.537c0.146,0.358,0.161,0.671,0.077,1.04c-0.319,1.408-0.59,2.826-0.916,4.233
		c-0.149,0.642,0.02,1.096,0.57,1.449c0.434,0.279,0.863,0.572,1.257,0.903c0.552,0.463,0.907,1.051,0.939,1.797
		c0.013,0.304-0.103,0.449-0.417,0.323c-0.359-0.144-0.721-0.284-1.069-0.454c-0.33-0.161-0.635-0.143-0.966,0
		c-0.559,0.241-1.02,0.595-1.397,1.073c-0.804,1.02-1.419,2.157-2.034,3.291c-0.64,1.181-1.249,2.378-1.853,3.578
		c-0.18,0.358-0.416,0.629-0.753,0.853c-1.276,0.848-2.668,1.338-4.197,1.436c-0.124,0.008-0.251-0.042-0.377-0.065
		c0.58-0.72,1.176-1.424,1.677-2.207c1.561-2.442,1.701-5.008,0.72-7.682c-0.32-0.873-0.748-1.693-1.233-2.487
		c-0.151-0.247-0.335-0.456-0.535-0.656c-0.783-0.785-1.547-1.591-2.364-2.339c-0.442-0.405-0.586-0.841-0.579-1.425
		c0.011-0.845,0.123-1.7-0.102-2.538c0.16-0.062,0.229-0.186,0.266-0.35c0.102-0.453,0.213-0.903,0.327-1.353
		c0.918-3.618,2.021-7.161,4.181-10.272c0.194-0.28,0.155-0.501,0.003-0.78c-2.07-3.796-3.39-7.853-4.218-12.086
		C100.837,69.917,100.886,69.245,100.507,68.684z"/>
	<path style="fill:#96181B;" d="M87.47,100.068c0.038,0.033,0.091,0.058,0.112,0.099c0.388,0.76,0.388,0.761-0.232,1.385
		c-0.18,0.181-0.34,0.4-0.553,0.527c-0.896,0.531-1.126,1.329-0.985,2.296c-0.031,0.545,0.143,0.953,0.707,1.14
		c0.606,0.2,0.775,0.427,0.796,1.057c0.021,0.645,0.036,1.284,0.163,1.924c0.38,1.921,1.427,3.294,3.25,4.031
		c0.479,0.194,0.832,0.485,1.109,0.912c1.084,1.664,2.595,2.77,4.464,3.419c0.929,0.322,1.877,0.562,2.841,0.736
		c0.285,0.051,0.549,0.137,0.803,0.268c0.258,0.133,0.265,0.291,0.036,0.464c-0.776,0.587-1.647,0.959-2.6,1.141
		c-0.712,0.136-1.432,0.164-2.156,0.181c-2.377,0.058-4.748-0.103-7.12-0.195c-0.69-0.027-1.255-0.24-1.774-0.764
		c-1.653-1.671-3.362-3.286-5.058-4.913c-0.302-0.29-0.395-0.56-0.35-1.011c0.161-1.622,0.743-3.105,1.359-4.582
		c0.546-1.31,1.112-2.611,1.4-4.013c0.23-1.115,0.305-2.225-0.027-3.521c-0.306,0.628-0.551,1.122-0.789,1.619
		c-0.123,0.256-0.216,0.528-0.355,0.774c-0.233,0.41-0.617,0.463-0.95,0.117c-0.519-0.539-1.017-1.099-1.52-1.654
		c-1.317-1.454-2.631-2.912-3.948-4.366c-1.941-2.144-3.886-4.284-5.823-6.431c-0.258-0.286-0.586-0.509-0.768-0.862
		c0.259-0.333-0.006-0.637-0.083-0.93c-0.558-2.122-0.965-4.257-0.858-6.47c0.029-0.598,0.095-1.178,0.296-1.739
		c0.33-0.92,0.661-1.84,1.002-2.756c0.476-1.279,0.958-2.57,1.022-3.94c0.074-1.596,0.021-3.199,0.025-4.798
		c0.001-0.24-0.011-0.491-0.264-0.596c-0.878-0.365-1.614-1.012-2.544-1.27c0,0,0.012,0.004,0.012,0.004
		c-0.046-0.055-0.093-0.11-0.139-0.165c-0.121-0.071-0.162-0.182-0.157-0.316c0.62,0.003,1.241-0.012,1.86,0.012
		c3.581,0.139,7.022,0.877,10.335,2.281c2.782,1.179,5.246,2.852,7.654,4.631c0.918,0.678,1.134,0.653,1.7-0.34
		c0.243-0.427,0.452-0.899,0.441-1.386c-0.024-1.164,0.24-2.31,0.171-3.474c-0.009-0.154-0.001-0.31,0.006-0.465
		c0.007-0.135,0.048-0.271,0.201-0.284c0.202-0.017,0.251,0.136,0.268,0.302c0.146,1.202,0.333,2.402,0.428,3.609
		c0.084,1.079,0.261,2.158,0.181,3.246c-0.101,1.388-0.658,2.478-2.01,3.054c-0.444,0.189-0.802,0.215-1.199-0.146
		c-1.107-1.008-2.223-2.009-3.38-2.957c-3.257-2.668-6.933-4.569-10.94-5.83c-0.763-0.24-1.562-0.345-2.515-0.358
		c0.543,0.53,1.052,0.829,1.567,1.106c0.329,0.177,0.484,0.396,0.541,0.768c0.145,0.944,0.373,1.87,0.711,2.768
		c0.554,1.473,1.341,2.808,2.497,3.874c1.674,1.545,3.682,2.45,5.917,2.859c-0.004,0.155-0.041,0.317-0.006,0.462
		c0.399,1.649,0.808,3.296,1.217,4.943c0.52,2.093,1.24,4.141,1.405,6.313c0.015,0.198,0.096,0.343,0.267,0.44
		c-0.101,0.531-0.147,1.067-0.089,1.605C85.284,96.18,86.104,98.232,87.47,100.068z"/>
	<path style="fill:#96181B;" d="M87.802,120.862c0.362-0.171,0.622-0.112,0.873-0.112c7.746-0.004,15.492-0.003,23.237-0.003
		c0.966,0,0.988,0.053,0.616,0.934c-0.423,1.003-1.127,1.781-1.906,2.508c-0.161,0.15-0.339,0.226-0.558,0.218
		c-0.155-0.005-0.31,0-0.465,0c-6.093,0-12.187-0.007-18.28,0.012c-0.569,0.002-0.954-0.132-1.293-0.614
		C89.332,122.817,88.572,121.874,87.802,120.862z"/>
	<path style="fill:#96181B;" d="M63.007,63.043c-0.026,1.13,0.191,0.867-0.911,1.301c-2.447,0.964-4.927,1.844-7.252,3.099
		c-2.463,1.329-4.761,2.888-6.87,4.731c-1.207,1.055-2.358,2.163-3.402,3.381c-0.171,0.199-0.352,0.401-0.656,0.238
		c-0.278-0.149-0.403-0.483-0.237-0.804c0.189-0.365,0.431-0.704,0.663-1.045c1.267-1.862,2.697-3.593,4.307-5.164
		c2.507-2.446,5.316-4.495,8.369-6.209c1.336-0.75,2.774-0.901,4.269-0.737c0.409,0.045,0.823,0.076,1.234,0.075
		c0.37-0.001,0.515,0.155,0.489,0.514C62.994,62.628,63.006,62.836,63.007,63.043z"/>
	<path style="fill:#96181B;" d="M156.655,76.029c-0.74-0.294-1.21-0.931-1.784-1.43c-1.889-1.639-3.697-3.373-5.749-4.82
		c-0.845-0.596-1.707-1.165-2.629-1.628c-2.743-1.377-5.467-2.793-8.346-3.879c-0.69-0.26-0.684-0.276-0.691-1.01
		c-0.001-0.077,0-0.155,0-0.232c0.004-0.853,0.004-0.864,0.855-0.837c2.336,0.076,4.617,0.436,6.756,1.432
		c1.086,0.506,1.977,1.309,2.92,2.025c2.725,2.069,5.205,4.39,7.229,7.169c0.706,0.97,1.26,2.005,1.443,3.208L156.655,76.029z"/>
	<path style="fill:#DE0916;" d="M68.096,67.345c0.93,0.258,1.667,0.905,2.544,1.27c0.253,0.105,0.265,0.356,0.264,0.596
		c-0.004,1.6,0.049,3.202-0.025,4.798c-0.064,1.37-0.546,2.661-1.022,3.94c-0.341,0.916-0.672,1.836-1.002,2.756
		c-0.201,0.561-0.267,1.141-0.296,1.739c-0.108,2.212,0.3,4.348,0.858,6.47c0.077,0.293,0.342,0.597,0.083,0.93
		c-1.698-1.827-3.188-3.795-4.205-6.095c-0.22-0.497-0.251-0.941-0.09-1.475c1.099-3.643,2.459-7.183,4.091-10.618
		c0.233-0.491,0.241-0.905,0.001-1.388c-0.356-0.716-0.657-1.46-0.972-2.196C68.226,67.838,68.055,67.624,68.096,67.345z"/>
	<path style="fill:#96181B;" d="M100.772,170.354c-0.162-0.352-0.103-0.611-0.103-0.86c-0.004-7.935-0.003-15.87-0.003-23.805
		c0-0.103-0.003-0.207,0.001-0.31c0.018-0.567,0.018-0.58,0.553-0.589c0.749-0.013,1.498-0.015,2.247-0.002
		c0.556,0.01,0.607,0.068,0.619,0.639c0.012,0.568,0,1.137,0.003,1.706c0.002,0.287-0.127,0.428-0.419,0.426
		c-0.31-0.003-0.622-0.015-0.929,0.012c-0.452,0.04-0.636,0.233-0.676,0.688c-0.02,0.231-0.007,0.465-0.008,0.698
		c0,6.281-0.018,12.562,0.022,18.842c0.005,0.824-0.222,1.446-0.777,1.999C101.139,169.959,100.984,170.13,100.772,170.354z"/>
	<path style="fill:#96181B;" d="M103.241,167.231c-0.106-0.498,0.061-0.923,0.058-1.356c-0.01-1.396,0.031-2.792,0.026-4.188
		c-0.006-1.757,0.196-3.509,0.123-5.267c-0.015-0.362,0.125-0.51,0.493-0.503c0.801,0.015,1.602,0.01,2.403-0.002
		c0.344-0.005,0.53,0.098,0.529,0.481c-0.009,2.094-0.008,4.189-0.003,6.283c0.001,0.255-0.117,0.435-0.269,0.62
		c-1.049,1.277-2.093,2.558-3.141,3.836C103.434,167.168,103.373,167.175,103.241,167.231z"/>
	<path style="fill:#96181B;" d="M116.266,92.92c-0.444-0.725-0.577-1.542-0.67-2.347c-0.344-2.972,0.031-5.864,1.093-8.664
		c0.037-0.097,0.092-0.187,0.122-0.285c0.291-0.932,1.104-1.075,1.891-1.234c0.264-0.053,0.293,0.147,0.218,0.35
		c-0.161,0.436-0.329,0.869-0.497,1.302c-0.862,2.219-1.523,4.495-1.89,6.849C116.325,90.221,116.294,91.564,116.266,92.92z"/>
	<path style="fill:#96181B;" d="M103.45,151.668c0-0.749,0.006-1.497-0.003-2.246c-0.004-0.318,0.11-0.471,0.448-0.47
		c1.896,0.007,1.57-0.146,1.59,1.46c0.015,1.136,0.01,2.271,0.001,3.407c-0.005,0.647-0.055,0.701-0.719,0.696
		c-1.528-0.012-1.304,0.203-1.32-1.3c-0.005-0.516-0.001-1.032-0.001-1.549C103.447,151.668,103.449,151.668,103.45,151.668z"/>
	<path style="fill:#FDFDFD;" d="M118.239,76.711c1.97-1.468,3.84-2.861,5.752-4.286C123.585,74.887,121.098,76.766,118.239,76.711z"
		/>
	<path style="fill:#96181B;" d="M101.579,143.381c-0.052,0-0.103,0-0.155,0c-0.732-0.007-0.922-0.269-0.749-1.006
		c0.043-0.181,0.14-0.27,0.314-0.274c0.284-0.007,0.568-0.004,0.852-0.002c0.202,0.001,0.319,0.098,0.406,0.289
		C102.591,143.139,102.435,143.379,101.579,143.381z"/>
	<path style="fill:#96181B;" d="M100.776,135.141c0.06,0.766,0.152,1.531,0.173,2.298c0.025,0.878,0.084,1.747,0.29,2.602
		c0.018,0.075,0.03,0.152,0.034,0.229c0.01,0.183-0.069,0.296-0.262,0.3c-0.165,0.003-0.318-0.035-0.328-0.237
		c-0.014-0.309-0.017-0.618-0.017-0.927c-0.002-1.415-0.001-2.83-0.001-4.245C100.702,135.154,100.739,135.147,100.776,135.141z"/>
	<path style="fill:#C0C0C0;" d="M173.969,43.226c0.072,0.074,0.145,0.148,0.217,0.222c-0.161,0.421-0.386,0.798-0.757,1.083
		C173.535,44.064,173.704,43.626,173.969,43.226z"/>
	<path style="fill:#DE0916;" d="M67.969,67.185c0.046,0.055,0.093,0.11,0.139,0.165C68.001,67.345,67.977,67.272,67.969,67.185z"/>
	<path style="fill:#96181B;" d="M156.657,76.027c0.021,0.026,0.042,0.052,0.063,0.078c-0.017-0.004-0.041-0.003-0.048-0.013
		c-0.012-0.017-0.012-0.041-0.017-0.062C156.655,76.029,156.657,76.027,156.657,76.027z"/>
	<polygon style="fill:#FDFDFD;" points="27.739,44.125 27.697,44.147 27.7,44.098 	"/>
	<path style="fill:#050202;" d="M87.47,100.068c-1.366-1.836-2.186-3.888-2.429-6.165c-0.057-0.538-0.011-1.074,0.089-1.605
		c0.41-2.442,0.348-4.877-0.119-7.305c-0.234-1.217-0.555-2.413-0.989-3.573c-0.369-0.987-0.793-1.271-1.776-1.28
		c-2.235-0.409-4.243-1.314-5.917-2.859c-1.156-1.067-1.943-2.401-2.497-3.874c-0.338-0.898-0.566-1.824-0.711-2.768
		c-0.057-0.372-0.213-0.591-0.541-0.768c-0.514-0.277-1.024-0.576-1.567-1.106c0.953,0.013,1.752,0.118,2.515,0.358
		c4.007,1.261,7.683,3.162,10.94,5.83c1.158,0.948,2.273,1.949,3.38,2.957c0.396,0.361,0.754,0.335,1.199,0.146
		c1.352-0.576,1.908-1.666,2.01-3.054c0.08-1.088-0.097-2.166-0.181-3.246c-0.094-1.207-0.281-2.406-0.428-3.609
		c0.443,0.265,0.64,0.732,0.898,1.138c1.073,1.685,1.788,3.494,1.701,5.532c-0.076,1.797-0.723,3.418-1.644,4.94
		c-0.469,0.774-0.972,1.528-1.57,2.205c-0.349,0.395-0.463,0.818-0.502,1.329c-0.178,2.312-0.245,4.639-0.759,6.913
		c-0.227,1.005-0.471,2.011-0.796,2.987c-0.653,1.961-0.732,3.942-0.364,5.956C87.469,99.452,87.512,99.757,87.47,100.068z
		 M82.237,76.625c-1.375-1.61-2.915-2.968-5.112-3.428c0.025,0.126,0.026,0.179,0.047,0.223c0.033,0.07,0.078,0.134,0.12,0.199
		c1.155,1.827,2.782,2.945,4.926,3.288c0.089,0.06,0.214,0.088,0.233-0.029C82.47,76.766,82.373,76.656,82.237,76.625z"/>
	<path style="fill:#050202;" d="M100.507,68.684c0.379,0.561,0.33,1.233,0.452,1.853c0.828,4.233,2.148,8.29,4.218,12.086
		c0.152,0.279,0.191,0.5-0.003,0.78c-2.159,3.111-3.263,6.654-4.181,10.272c-0.114,0.45-0.225,0.901-0.327,1.353
		c-0.037,0.164-0.106,0.288-0.266,0.35c-0.558-3.118-1.544-6.097-2.9-8.958c-0.509-1.073-0.969-2.168-1.472-3.244
		c-0.144-0.308-0.158-0.558,0.014-0.868c2.034-3.649,3.131-7.622,4.022-11.667C100.207,69.988,100.276,69.318,100.507,68.684z"/>
	<path style="fill:#050202;" d="M87.427,63.463c-0.691,0.027-1.163-0.158-1.606-0.432c-2.755-1.706-5.786-2.415-8.991-2.482
		c-0.437-0.009-0.876,0.072-1.313,0.063c-0.597-0.013-1.161-0.131-1.523-0.8c2.595-0.36,5.101-0.838,7.653-0.23
		C84.002,60.142,85.867,61.417,87.427,63.463z"/>
	<path style="fill:#050202;" d="M112.692,63.861c0.965-1.857,2.461-3.091,4.383-3.811c2.201-0.825,4.458-0.983,6.77-0.552
		c0.679,0.127,1.363,0.183,1.928,0.868C121.009,60.217,116.677,61.363,112.692,63.861z"/>
	<path style="fill:#050202;" d="M122.081,53.681c-0.019-0.007-0.041-0.012-0.056-0.024c-0.008-0.006-0.005-0.026-0.007-0.04
		c0.017,0.025,0.033,0.05,0.05,0.075C122.068,53.693,122.081,53.681,122.081,53.681z"/>
	<path style="fill:#050202;" d="M97.877,151.668c0.001,0.775-0.005,1.55,0.003,2.326c0.004,0.351-0.138,0.535-0.5,0.527
		c-0.207-0.004-0.413,0-0.62,0c-0.993,0-1.043-0.019-1.005-0.98c0.048-1.211,0.15-2.42,0.014-3.632
		c-0.014-0.124,0.057-0.255,0.052-0.382c-0.018-0.429,0.167-0.61,0.601-0.577c0.334,0.025,0.671,0.015,1.007,0.002
		c0.336-0.013,0.456,0.145,0.451,0.467C97.87,150.169,97.877,150.919,97.877,151.668z"/>
	<path style="fill:#DE0916;" d="M82.247,80.14c0.983,0.009,1.407,0.292,1.776,1.28c0.433,1.161,0.755,2.356,0.989,3.573
		c0.467,2.428,0.529,4.863,0.119,7.305c-0.172-0.097-0.252-0.242-0.267-0.44c-0.164-2.172-0.885-4.22-1.405-6.313
		c-0.409-1.647-0.818-3.293-1.217-4.943C82.206,80.457,82.243,80.295,82.247,80.14z"/>
	<path style="fill:#FDFDFD;" d="M82.218,76.907c-2.144-0.343-3.772-1.461-4.926-3.288c-0.041-0.066-0.087-0.129-0.12-0.199
		c-0.021-0.044-0.022-0.097-0.047-0.223c2.197,0.46,3.737,1.818,5.112,3.428C82.23,76.719,82.224,76.813,82.218,76.907z"/>
	<path style="fill:#C0C0C0;" d="M82.218,76.907c0.006-0.094,0.012-0.188,0.019-0.282c0.137,0.031,0.233,0.14,0.215,0.253
		C82.432,76.996,82.307,76.968,82.218,76.907z"/>
</g>
</svg>
