<?xml version="1.0" encoding="utf-8"?>
<!-- Generator: Adobe Illustrator 24.1.0, SVG Export Plug-In . SVG Version: 6.00 Build 0)  -->
<svg version="1.1" id="Layer_1" xmlns="http://www.w3.org/2000/svg" xmlns:xlink="http://www.w3.org/1999/xlink" x="0px" y="0px"
	 viewBox="0 0 200 200" style="enable-background:new 0 0 200 200;" xml:space="preserve">
<g>
	<path style="fill:#003300;" d="M112.1,1.1c9,1,17.7,3.3,25.7,7.6c8.5,4.6,15.1,11.2,20.1,19.5c1.1,1.8,1.7,1.6,2.9,0.3
		c3.2-3.3,3.2-3.2,7-0.4c4.9,3.6,7.9,8.4,9.9,13.9c0.5,1.5,1.2,1.7,2.5,1.3c0.9-0.3,1.7-0.9,2.3,0.6c2.6,6.8,5.1,13.6,7.5,20.5
		c0.7,2,0.3,3.7-1.2,5.1c-1,0.9-1,1.8-0.5,3c2.5,5,1.8,9.8-1.7,14.1c-1,1.2-0.8,2.1-0.2,3.4c2,4.1,3.7,8.5,5.2,12.8
		c1.1,3.2,0.6,6.1-2,8.1c-2.8,2.2-3.7,5-3.8,8.3c0,0.4,0,1-0.2,1.2c-2,1.8-2.1,4.6-3.3,6.8c-0.8,1.6-0.8,3.1-0.2,4.6
		c2.1,4.6,0.9,9.1-0.3,13.6c-0.2,0.9-0.7,1.8-1.1,2.7c-2,4.7-6.4,4.6-10.4,5c-7.5,0.7-14.7-0.2-21.5-4c-4.5-2.6-9.3-2.3-14.1-0.6
		c-2.5,0.9-6.3,6.5-5.9,9.3c1.2,8.1-2.1,14.9-6.4,21.3c-5.5,8.2-12.4,15-20.2,20.9c-0.2,0.2-0.5,0.3-0.9,0.5
		c0.9-3.5,1.9-6.9,2.7-10.3c1.7-7.2,2.5-14.5,0.1-21.7c-2.6-7.7-8.5-12.7-15.3-16.5c-6-3.4-12.6-4.9-19.4-5.7
		c-4.2-0.4-8.3-0.8-12.5-0.7c-2.6,0-3.2-0.5-3.6-3c-0.1-0.4,0-0.8,0-1.3c-0.1-2.6-0.1-2.7-2.6-1.6c-2.3,1-4.9,1-7.3,1.5
		c-10.6,2.2-19.8,6.9-27.3,14.8c-0.1,0.1-0.3,0.2-0.7,0.5c0.6-5.5,1.1-10.7,2.2-15.9c2.8-12.8,7.5-24.7,14.9-35.5
		c0.7-1.1,0.5-1.6-0.6-1.9c-5.7-1.7-11.5-3.1-17.3-0.6c-1,0.4-1.4-0.2-1.9-0.7c-0.4-0.4-0.8-0.6-0.4-1.4C16,94.8,19.3,88.8,23,83.1
		c2.7-4.2,6.8-7.2,10.6-10.4c0.6-0.5,1.7-0.8,1.4-1.6c-0.3-0.9-1.5-0.5-2.3-0.5c-7.7,0.8-15.2,2.3-22.7,4.3
		c-0.7,0.2-1.4,0.3-2.4,0.6c8.7-15.7,19.8-28.1,37.5-33.2c0.6-0.2,1.5-0.2,1.5-0.9c0-0.9-1-0.7-1.6-0.9c-6-1.4-12-2.8-18.3-4.3
		c11.1-10.6,24.8-14.5,39.4-16.5c0-0.2,0-0.5,0-0.7c-5-1.6-10.1-3.1-15.1-4.7C62.8,5.6,76.2,2.7,90.5,3.3C94.8,3.5,98.9,4.6,103,6
		c0.5,0.2,1.1,0.8,1.5,0.2c0.5-0.7-0.4-1-0.8-1.4c-0.8-0.9-1.8-1.7-2.8-2.7c1.2-0.6,2.3-1,3.3-1.1c1.3-0.4,1.8-0.2,3.2-0.4
		c0.1,0,0.3,0,0.4,0C110,0.9,110.6,0.8,112.1,1.1z"/>
	<path d="M126.8,162c1,2.4-0.1,4.7-1,6.7c-2.5,5.5-5.6,10.6-10,14.8c-2.6,2.5-4.7,5.5-7.4,8.1c-0.6,0.6-1.1,1.3-2.1,1.4
		c1.1-5.1,2.1-10.3,2-15.5c-0.1-9-3.5-16.2-10.3-22.2c-8-7.1-17.5-10-27.7-11.3c-4.2-0.5-8.3-0.9-12.5-0.8c-1.5,0-1.8-0.7-1.7-2
		c0-3-1-5.6-2.6-8c-0.8,0.2-0.9,0.8-1,1.2c-0.6,2.5-2.6,3.3-4.7,3.6c-6.1,0.8-12,2.3-17.5,4.8c-3.6,1.6-6.9,3.7-10.1,6.1
		c-0.3,0.2-0.5,0.5-1.1,0.4c0.5-3.6,1.1-7.2,2-10.8c3-11.8,7.5-22.9,14.7-32.7c0.7-0.9,1.5-1.7,2.2-2.5c0.7-0.7,0.7-1.2-0.4-1.4
		c-5.8-0.9-11.4-3.6-17.5-3c-1,0.1-2,0.2-2.9,0.3c5.1-13,14-22.7,26-29.9c-10.1-2.5-19.7,0.2-29.6,2.2c1.1-2.7,2.8-4.7,4.4-6.7
		c5.8-7.1,12.4-13.4,20.9-17.2c5-2.2,10.2-3.9,15.8-3.9c1.6,0,1.9-0.8,2.1-2c0.2-1.4-0.9-1.3-1.8-1.5c-7.3-1.7-14.6-3.4-22.1-5.2
		c1.8-2.2,4.1-3.3,6.4-4.5c8.7-4.8,18.2-7.2,28-8.1c2.2-0.2,4.3-0.3,6.5-0.3c0.9,0,1.7,0.1,1.7-1.2c0-1,0.3-1.8-1.1-2.2
		c-4.8-1.4-9.7-2.9-14.5-4.4c-0.6-0.2-1.4-0.3-2-1c4.6-3,9.7-4.7,14.9-6c6.4-1.5,13-1.7,19.4-1.2c6.9,0.6,13.3,3,18.9,7.5
		c0.3,0.3,0.7,0.5,1,0.8c0.8,0.7,1.6,1,2.5,0c0.9-1,0.3-1.6-0.4-2.3c-1.9-2-3.8-4.1-5.7-6.2c-0.5-0.6-1.3-1.2-1-1.9
		c0.4-1,1.3-0.1,2-0.1c5.3-0.1,10.4,1.1,15.5,2.5c7.3,2.1,13.9,5.4,19.7,10.4c5.3,4.5,9.5,9.7,12.6,15.9c0.8,1.5,1.6,1.3,2.6,0.5
		c1.1-0.9,2.3-1.8,3.3-2.9c0.9-1,1.7-0.9,2.7-0.2c5.1,3.7,8.3,8.7,10,14.7c0.5,1.8,1.1,2.8,3,1.8c1.3-0.6,1.9-0.2,2.4,1.2
		c1.9,5.5,3.9,11,6,16.4c0.8,2.1,0.4,3.5-1.4,4.6c-1.3,0.8-1.3,1.6-0.7,2.8c0.4,0.7,0.5,1.4,0.9,2.1c2.6,4.8,1.1,9-2.2,12.7
		c-1.4,1.5-1.1,2.5-0.3,4c2.4,4.2,4.1,8.7,5.7,13.3c1,2.6,0.1,4.7-1.9,6.1c-2.7,1.9-3.7,4.3-3.7,7.5c0,1.3-0.2,3-1.8,3.8
		c-0.5,0.2-0.6,0.8-0.6,1.3c0.1,1.4-0.4,2.7-1,3.8c-1.3,2.5-1.1,4.8-0.2,7.3c1.9,5.5,0.4,10.4-2.5,15.2c-0.5,0.8-1.2,1-1.9,1.2
		c-4.4,1.2-8.9,0.7-13.3,1c-5.4,0.3-9.7-2.2-14.2-4.3c-3.7-1.7-7.6-1.4-11.4-1c-2.5,0.3-4.1,2.4-6.1,3.6c-4.3,2.6-5.3,4.7-4.3,9.6
		C126.6,159.7,126.4,160.9,126.8,162z"/>
	<path style="fill:#020302;" d="M126.8,162c-0.8-2.5-1.5-5-1.3-7.7c0.3-2.4,1.6-5.3,5.1-5.4c-0.4,1.4-1.7,2.3-2.4,3.7
		C126.9,155.6,126.7,158.8,126.8,162z"/>
	<path style="fill:#E4B252;" d="M165.1,122.1c4.1,0.5,8.1-0.4,12.3,0.8c-2.9,1.9-3.9,4.4-3.2,7.5c0.2,1.2,0.5,2.3,0.8,3.5
		c1.8,6.5-3,8.3-7.9,7.8c-2.3-0.2-4.3-1.4-6-3.1c-2.7-2.9-5.5-5.9-9.3-7.3c-2.2-0.9-4.5-1.5-6.9-0.9c-0.9,0.2-1.5-0.1-1.4-1.2
		c0.1-1.1,0-2.2,0.1-3.4c0.3-3.8-0.5-5.1-4.5-6.7c3-2.5,3.9-5.9,4.1-9.6c0.1-1,0.9-0.7,1.4-0.7c3.4,0,6.7,0,10.4,0
		c-1.3-1.7-2.7-3-4-4.2c-7-6.6-5.1-12.9-1.1-19.9c4-7,10.9-10.5,18.4-13c2.8-0.9,5.8-1.5,8.8-1.8c1.5-0.2,2.4,0.4,2.9,1.8
		c2.1,6,2,10.2-3.1,14.1c-1.3,1-1.2,2.2-0.4,3.3c3.2,4.9,4.6,10.6,6.1,16.1c0.4,1.5-1.3,3.5-3.2,3.7c-0.8,0.1-1.5,0-2.3,0
		c-2.2,0.1-4.5,0.4-4.5-3c0-0.6-0.3-1.8-1.3-1.6c-0.8,0.1-0.6,1.1-0.8,1.8c-0.7,3.1,0.7,5.2,3.7,5.6c1.5,0.2,3.1,0.2,4.6,0.4
		c1,0.2,1,0.5,0.9,1.4c-1.1,5.5-1,5.5-6.7,5.4C170.1,118.9,167.2,119,165.1,122.1z"/>
	<path style="fill:#FEFEFE;" d="M106.8,50.5c0,0-0.3,0.1,0.1,0.3c0.1,0.1,0.4,0.2,0.5,0.2c3.9,1.1,8,1.8,11.8,3.4
		c1.4,0.6,2.8,1.3,4,2.3c0.9,0.8,1.1,1.6,0.1,2.8c-2.4,2.9-4.5,4.4-8.4,2.1c-3.2-1.9-7.2-2.2-10.9-2.3C96.7,59,89.3,58.6,82,60
		c-1.8,0.4-3.6,0.9-5.4,1.4c-0.2-1.5,0.9-2.5,1-3.8c0-0.3,0.2-0.8,0.1-0.9c-0.3-0.3-0.7-0.1-1.1,0.2c-0.9,0.7-1.8,1.3-2.2,2.5
		c-0.9,2.4-2.4,3.9-5.1,4.1c-0.9,0.1-1.7,0.4-2.7,0.7c0-0.7,0-1.3,0-1.9c0-0.7,0.8-1.6-0.6-1.8c-2,3.8-5.5,5.1-9.6,5.7
		c-1.1,0.1-2.1,0.9-3.3,0.6c3.3-6.4,7.3-11.9,14.6-14c0.6-0.2,1.2-0.5,1.7-0.7c0.3-0.4,0.8-0.3,1.1-0.5c-1.5,0.2-3-0.3-4.6,0.1
		c-2,0.2-4,0.3-6.1,0.5c1.2-4.1-2.3-4.1-4.8-5.4c3.4-1.3,6.5-1.9,9.7-2.6c6.4-1.3,12.9-1.6,19.4-1.9c12.6-0.6,24.5,2.2,36.5,5.2
		c3.7,0.9,7.1,2.7,10.5,5.2c-1.3,1-2.5,2-3.8,3c-0.9,0.7-1.6-0.2-2.3-0.5c-4-1.9-8.2-3.1-12.5-4.2c-0.7-0.2-1.4-0.1-2.1-0.2
		c-1-0.4-2-0.1-2.9-0.2"/>
	<path style="fill:#FEFEFE;" d="M66.5,75.5c-1,0.2-2.1,0.1-2.8,0.6c-2.6,1.5-4.4,0.4-6.2-1.4c-1.7-1.6-3.6-2.8-5.9-4.1
		c3.9-1.4,7.7-2.3,11.4-3.1c9.1-2.1,18.4-3.4,27.7-3.9c7.9-0.5,15.6-0.2,23.2,2.2c0.4,0.1,0.8,0.2,1.1,0.6
		c-3.3,3.6-6.8,7.2-9.7,11.2c-0.7,1-1.5,1.9-2,3c-0.8,2-2.4,2.4-4.3,2.5c-6,0.4-12.1,1.2-18.1,2c-1.4,0.2-2.4,0.1-2.7-1.6
		c-0.1-0.7,0-1.7-1.1-2.6c0.3,4.7-3.1,5.4-6.3,6.4c-0.7,0.2-1.4,0.6-2.4,1c0.4-2.3,0.8-4.4,1.2-6.9c-1.7,2.1-2.4,4.1-3.3,6.1
		c-0.2,0.5-0.2,1.1-0.9,1.3c-4.7,1.5-9.1,3.8-13.7,6c1.2-1.9,2.5-3.9,3.7-5.8c0.8-1.2,1.8-2.4,2.3-3.8c1.3-4.2,4.7-6.2,8.2-8
		c0.7-0.4,1.3-0.8,1.9-1.2C67.8,74.8,67,75.4,66.5,75.5z"/>
	<path style="fill:#FEFEFE;" d="M69.7,114.8c-0.4-1.3-0.8-2.5-1.4-4.2c-0.6,3.4-1.8,6-4.1,8.2c-0.3-1.2-0.5-2.3-0.7-3.3
		c-0.6,0.6-0.6,1.4-0.6,2.2c-0.1,0.8-0.3,1.7-0.9,2.3c-0.8,0.9-1.5,2.5-2.8,2.3c-1.3-0.2-0.3-1.8-0.7-2.6c-0.3-0.6-0.3-1.2-0.5-1.9
		c-0.1,0.2-0.4,0.4-0.4,0.6c0.3,5-3.4,8.1-5.9,11.7c-0.8,1.1-1.7,2.1-2.8,3.5c0.2-6.2,0.7-12,3.3-17.3c2.7-5.3,7.5-8.7,12.1-12.7
		c-1.7-0.2-2.6,0.8-3.6,1.4c-2.8,1.7-5.4,3.6-7.6,5.9c-0.8,0.9-1.5,0.9-2.6,0.5c-2.6-1.2-5.3-2.3-7.9-3.3c-1.6-0.6-1.3-1.2-0.3-2.2
		c2.4-2.5,5.5-4.1,8.6-5.6c11.2-5.2,22.6-9.5,34.8-11.5c4.3-0.7,8.7-1.2,13.3-1c-1.6,3.1-4,5.6-4.6,8.9c-0.7,4-3.2,5.6-6.7,7.1
		C81.1,106.3,74.9,109.8,69.7,114.8z"/>
	<path style="fill:#980000;" d="M124.6,97c-1.1-0.1-1.8,1.1-3.2,0.8c2.8-4.4,5.7-8.7,8.9-12.7c10.9-13.9,24.1-24.8,40.6-31.4
		c6-2.4,6-2.3,7.7,3.8c0.6,2.4,1.3,4.7,2,7.1c0.2,0.8,0.5,1.5-0.8,1.6c-6,0.6-11.5,3-17,5.2c-13.5,5.3-22.2,15.8-29.7,27.6
		c-2.5,4-5.5,7.1-10.4,7.6c-1.4,0.2-3.3,0.4-4.1-0.8c-0.6-1,0.9-2.2,1.6-3.2c1.3-2,3.1-3.6,5-5.1c0.4-0.7,1-1,1.7-1.2
		c0.2-0.1,0.2,0.2,0.1,0c-0.1-0.2-0.2,0.1-0.3,0C126,96.7,125.3,97,124.6,97z"/>
	<path style="fill:#FEFEFE;" d="M79.3,24.2c5.1,0.2,10.1,1.2,15.1,2.2c15.3,3,29.9,8.5,44,15c4.8,2.2,3.6,1.7,0.7,4.4
		c-2.8,2.6-5.2,2.9-8.9,1.1c-7.8-3.9-16.4-5.5-24.9-6.7c-4.3-0.6-8.7-1.1-13.1-1.4c-3-0.2,0.3-1.8-0.5-2.6c-0.6-0.6-1.2,0.1-1.7,0.4
		c-3.1,1.7-6.5,2.5-10.1,2.3c-4-0.2-7.7,0.9-11.5,1.8c-0.5,0.1-1,0.4-1.9,0.2c3.1-3.4,6.7-5.7,10.6-7.5c2.2-1,4.4-1.8,6.8-1.8
		c1.5,0,1.2-0.5,0.6-1.5C83.1,27.9,81.4,25.9,79.3,24.2z"/>
	<path style="fill:#FEFEFE;" d="M124,137.5c0.5,2.1,1.1,4.3,1.6,6.4c0.1,0.6,0.1,1.3-0.1,1.9c-0.4,1.4-0.9,2.2-2.7,1.5
		c-2.3-0.9-2.2-0.8-2.3,1.7c-0.1,3.9,0.3,7.7,1.2,11.6c0.4,1.5-0.2,3.1-0.7,4.5c-2,5-4.7,9.7-8,14c-0.2,0.3-0.3,0.9-0.8,0.7
		c-0.6-0.2-0.4-0.9-0.4-1.3c1.1-5.6,0.9-11.2,0.8-16.9c0-2.8-0.9-5.5-2-8c-2-4.6-1.8-8.9,1-13.1c0.6-1,0.8-1.6-0.6-2.1
		c-1.4-0.6-2.9-1.2-4.1-2.4c4.5-2.2,8.1-5.5,11.8-9.4c-0.2,3.4-1.3,6.1-1.3,8.9c-0.7,1.9,0.1,3.9-0.2,5.7c0.4-0.3,0-1.1,0.6-1.5
		c1-3,2.2-6,3.7-8.9c0.3-0.7,0.6-1.7,1.4-1.6c0.8,0.1,1.4,0.8,1.8,1.6c0.8,1.8,1.2,3.7,1.6,5.6c0,0.2,0,0.4,0,0.6
		c-0.1,0.8,1.1,1.9,0.1,2.3c-1.1,0.4-1.3-1.2-1.9-1.8C124.5,137.3,124.3,137,124,137.5z"/>
	<path style="fill:#FEFEFE;" d="M119.5,27.6c-1.5,0.2-2.6,1.3-4.2,1.1c0.4-0.9,0.8-1.6,1.2-2.4c-0.4,0-0.9-0.2-1.1,0
		c-3.2,1.8-6.4,0.9-9.7,0C101.3,25.1,97,24,93,22c-1-0.5-2.1-0.9-2.8-2.3c4.4,1.2,8.6,1.5,13,1.8c-0.5-1.4-0.9-2.7-1.4-4
		c-0.4-0.9-0.1-1.1,0.8-1c12.5,1.4,24.4,4.3,34.1,13.2c3,2.8,5.9,5.7,8.5,9c0.4,0.5,0.9,0.9,0.7,1.9c-4.3-1.9-8.6-3.8-12.8-5.7
		c-4.2-1.9-8.5-3.6-13-4.5C117.8,29.9,119.2,28.8,119.5,27.6z"/>
	<path style="fill:#003300;" d="M107.8,157.9c-2-1.9-3.1-4.3-4.8-6.3c-2.7-3.3-5.9-5.6-9.7-7.4c-9.8-4.5-20.2-5.2-30.7-4.8
		c-1.1,0-1.1-0.4-0.9-1c0.4-1.3,1.3-2.2,2.4-2.9c2.1-1.3,4.5-2.1,6.9-2.1c7.1-0.1,14.3-0.5,21.2,1.6c4.6,1.4,9,3.5,13.4,5.4
		c0.7,0.3,1.3,0.8,0.9,1.6c-2.2,4.5-0.6,8.7,0.6,13.1C107.3,156,107.5,157,107.8,157.9z"/>
	<path style="fill:#FEFEFE;" d="M91.9,111.1c1.9-1,3.2-2.6,5.4-3.5c0,2.2-0.7,4.1-1.2,6c-1,3.7-1.9,7.4-3.6,10.9
		c-0.3,0.6-0.6,1.3-1.1,1.8c-1.3,1.5-2.3,1.3-3-0.6c-0.2-0.6-0.5-1.2-0.4-1.8c0.4-2.6-1.2-2.7-3-2.5c-2.3,0.3-4.4,1.2-6.6,2
		c-0.7,0.2-1.6,0.8-2.1,0.3c-0.6-0.6,0-1.4,0.3-2.1c2.2-5.5,6.3-9.5,10.8-13.2c1.5-1.2,3.1-2.3,4.7-3.5c0.5-0.3,1.1-0.8,1.6,0.1
		c0.3,0.7,1.6,1.1,0.7,2.3C93.5,108.6,92.7,109.9,91.9,111.1z"/>
	<path style="fill:#980000;" d="M139.1,107.2c0.2,4.2-0.9,8.2-2.7,12c-3,6.5-9.8,8-16.6,5.7c-3.8-1.3-6.6-4.1-8.9-7.4
		c-0.3-0.5-0.9-1.1-0.3-1.7c0.6-0.6,1.2,0,1.7,0.4c2.1,1.4,4.1,3,6.3,4.2c8,4.6,14.6,0.4,15.9-8.4c0.6-4.3,0-8.7,2-12.8
		c0.2-0.5,0.2-1.3,0.8-1.3c0.7,0,0.9,0.8,1,1.4C138.8,101.9,139.2,104.5,139.1,107.2z"/>
	<path style="fill:#FEFEFE;" d="M120.8,15.7c12.7-0.7,29.8,6.3,31.7,21.6c-5.2-4.1-10.1-8.2-15.3-11.8
		C132.1,21.9,126.7,18.4,120.8,15.7z"/>
	<path style="fill:#003300;" d="M141,62.4c0.5-0.9,2.2-0.4,1.8-1.5c-0.3-1-1.6-0.4-2.5-0.5c-1-0.2-2,0.7-3.1,0.3
		c-0.2-0.8,0.7-1.4,0.5-2.3c-1.8-0.2-3.5,0.4-5.3,0.7c-0.6,0.1-1.4,0.4-1.7-0.3c-0.3-0.6,0.5-0.9,0.8-1.3c4.5-6.1,11-4.7,17.6-2.4
		c1.4,0.5,2.8,1.2,3.9,2.4c0.9,1,0.8,1.9-0.2,2.7c-1.7,1.3-3.4,2.7-5.2,3.9C146.4,65.1,142.8,64.1,141,62.4z"/>
	<path style="fill:#003300;" d="M130.6,70.2c-1.2-0.1-2.1-0.2-2.9,0.1c-1.9,0.7-2.3,0-1.4-1.9c-1.5,0.3-2.8,0.6-4.1,0.8
		c-0.9,0.1-1.4-0.1-0.9-1.2c0.9-2,2.4-3.5,4.5-4.1c5.2-1.5,10.3-1.6,15.3,0.8c2,0.9,2.1,1.4,0.6,3c-1.3,1.3-2.8,2.6-4,4
		c-1.3,1.5-2.6,1.9-4.3,1.1c-0.8-0.3-1.6-0.5-2.4-0.6C129.5,72,129.5,71.3,130.6,70.2z"/>
	<path style="fill:#003300;" d="M109.5,100.4c-1.9,0.3-3.5,1.4-5.1,2.3c-0.1-0.2-0.2-0.3-0.2-0.4c0.1-0.7,1.1-1.4,0.4-2.1
		c-0.7-0.7-1.6-0.1-2.4,0.2c-1.6,0.4-2.8,1.4-4.1,2.4c0.7-2.6,2.3-4.4,4.4-5.9c5-3.3,10.7-4.3,16.6-4.6c1.4-0.1,1.6,0.5,1,1.7
		c-0.4,0.7-0.9,1.5-1.1,2.3c-1.3,4.9-5.2,5.8-9.5,6.1c-0.1-0.7,0.8-1,0.9-1.6C110.6,99.7,110,100.3,109.5,100.4z"/>
	<path style="fill:#003300;" d="M151.2,53.2c1.1-2.5,1.1-2.4-1.5-2.5c-1.5-0.1-3-0.3-4.6-0.6c-1.5-0.2-1.5-1-0.6-2
		c2.5-2.8,5.6-3.8,9.3-2.9c3.9,0.9,7.4,2.6,9.9,5.8c1,1.2,1,2-0.6,2.5c-2,0.6-3.7,1.6-5.5,2.6c-1.4,0.8-2.5,0.5-2.3-1
		c0.3-2.2-1-1.9-2.3-1.9C152.3,53.2,151.8,53.2,151.2,53.2z"/>
	<path style="fill:#003300;" d="M111.6,89.4c0-0.6,0.1-1.2,0.1-2c-2.7,0.8-5.3,1.9-8.1,3.6c1-3.5,2.9-5.3,5.5-6.6
		c1.9-1,4-1.4,6.1-1.5c3.7-0.2,7.3-1.2,11-0.4c1.2,0.3,1.7,0.4,0.7,1.6c-1.5,1.7-2.8,3.6-4.3,5.4c-0.9,1.1-3.9,1.5-5.2,0.7
		c-1.1-0.7,0.8-1,0-1.7c-1.7,0.1-3.3,0.8-4.9,1.2C112,90.1,111.6,90.2,111.6,89.4z"/>
	<path style="fill:#003300;" d="M110,80c1.9-4.3,4.8-6.4,8.9-6.5c3.8,0,7.7-0.4,11.5,0.4c2.8,0.6,3.1,1.2,1.4,3.3
		c-0.9,1.2-2,2.2-3,3.2c-0.7,0.7-1.5,0.8-2.3,0.4c-1.6-0.7-3.8,0.3-5.1-1.8c-0.2-0.3-1.9,0.3-3,0.5c-0.7,0.1-2,1.1-1.4-1
		c0.2-0.7-0.8-0.4-1.2-0.2C114,78.8,112.2,79.3,110,80z"/>
	<path style="fill:#003300;" d="M167.2,46c-0.6,0-1,0-1.3,0.1c-2.4,0.8-2.4,0.8-2.4-1.8c0-1.6,0-2.5-2-1.3c-1.5,0.9-2.6-0.8-3.4-1.6
		c-0.7-0.7,0.6-1.2,1.2-1.7c0.7-0.6,1.6-1,2.2-1.6c1.5-1.9,2.9-1.2,4.3,0c3.2,2.7,5.1,6.3,7.1,9.8c0.4,0.8,0,1.1-0.6,1.4
		c-1.2,0.5-2.3,1-3.5,1.5c-0.6,0.2-1.2,1-1.9,0.4c-0.7-0.6-1-1.6-0.8-2.5C166.3,47.9,166.7,47.1,167.2,46z"/>
	<path style="fill:#515151;" d="M116.8,142.8"/>
	<path style="fill:#515151;" d="M117.6,135.5"/>
	<path style="fill:#212121;" d="M66.5,75.5c0.7-0.6,1.5-0.4,2.4-0.5c-0.1,0.7-0.6,0.9-1.1,1C67.5,75.5,67,75.7,66.5,75.5z"/>
	<path d="M174,87.2c-2,1.4-3.9,2.7-5.3,4.5c-0.7,0.9-1.2,0.8-1.8,0c-0.3-0.3-0.6-0.6-0.9-0.9c-4.2-3.4-6.5-3.5-11.7-0.3
		c0-1.9,0-1.9,3-5.4c-1.5,0.1-2.8,0.1-4.2,0.2C156.9,78.5,166.9,79.4,174,87.2z"/>
	<path style="fill:#9A0201;" d="M150.9,96.2c1.4,1.5,2.5,3.2,4.3,4.2c0.4,0.2,0.2,0.8,0.2,1.2c0,0.7,0.3,1.1,1,1
		c1.7-0.4,2.7,0.6,3.8,1.6c1.4,1.2,3.1,2.1,4.7,3.1C158.1,109,152,104.3,150.9,96.2z"/>
	<path style="fill:#0C0A04;" d="M171.5,129c-1.7-2.3-4-2.2-6.8-1.9c2.1-2.3,4.7-2.2,7.8-2.7C170.2,125.9,171.2,127.4,171.5,129z"/>
</g>
<line style="fill:none;" x1="139.5" y1="142.8" x2="139.6" y2="143.1"/>
</svg>
