<?xml version="1.0" encoding="utf-8"?>
<!-- Generator: Adobe Illustrator 24.1.2, SVG Export Plug-In . SVG Version: 6.00 Build 0)  -->
<svg version="1.1" id="Layer_1" xmlns="http://www.w3.org/2000/svg" xmlns:xlink="http://www.w3.org/1999/xlink" x="0px" y="0px"
	 viewBox="0 0 200 200" enable-background="new 0 0 200 200" xml:space="preserve">
<g id="Layer_1-2">
	<g>
		<g>
			<g>
				<g>
					<path fill="#B0BAC4" d="M188.108,46.271c-0.135-1.401-0.852-2.684-1.978-3.53c-3.758-2.828-7.979-5.457-12.639-7.877
						c5.769-2.119,9.339-6.711,9.676-12.863c0.457-8.34-5.528-15.877-13.923-17.531c-1.489-0.294-2.949-0.442-4.341-0.442
						c-6.12,0-10.967,2.728-13.974,7.771c-2.963-0.569-6.996-1.101-11.737-1.101c-10.883,0-21.126,2.694-30.487,8.008
						c-1.96-0.069-3.921-0.106-5.887-0.106c-16.762,0-33.357,2.551-49.321,7.584c-13.691,4.315-25.126,9.886-33.993,16.558
						c-1.126,0.846-1.843,2.127-1.978,3.53c-0.096,1.003-2.259,24.914,6.813,55.571c1.056,3.569,2.225,7.082,3.499,10.536
						c-5.428,1.091-10.528,5.744-12.902,8.64c-1.519,1.854-3.46,4.702-2.804,8.032c0.018,0.096,0.039,0.19,0.063,0.283
						c0.334,1.364,3.35,12.602,12.732,16.772c2.455,1.091,4.849,1.621,7.319,1.621c4.225,0,7.841-1.568,11.413-3.597
						c1.55,2.402,3.165,4.759,4.843,7.07c13.373,18.42,30.799,33.938,51.795,46.124c0.779,0.453,1.65,0.677,2.518,0.677
						s1.739-0.226,2.518-0.677c20.997-12.186,38.424-27.704,51.795-46.124c10.704-14.743,18.832-31.35,24.164-49.36
						c9.074-30.657,6.911-54.568,6.813-55.571L188.108,46.271z"/>
					<g>
						<path fill="#101820" d="M183.112,46.752c-9.456-7.115-21.062-12.18-32.484-15.781c-31.097-9.802-64.527-9.802-95.624,0
							c-11.421,3.599-23.028,8.666-32.484,15.781c0,0-9.084,94.362,80.296,146.232C192.197,141.114,183.112,46.752,183.112,46.752
							L183.112,46.752z"/>
						<g>
							<path fill="#FFB612" d="M149.489,36.678c-14.79-4.662-30.165-7.027-45.697-7.027s-30.907,2.363-45.697,7.027
								c-11.04,3.481-20.361,7.788-27.759,12.824c0.194,0.057,4.003,77.129,73.456,127.826
								c69.452-50.697,73.263-127.769,73.456-127.826C169.85,44.466,160.531,40.159,149.489,36.678z"/>
							<g>
								<defs>
									<path id="SVGID_1_" d="M149.489,36.678c-14.79-4.662-30.165-7.027-45.697-7.027s-30.907,2.363-45.697,7.027
										c-11.04,3.481-20.361,7.788-27.759,12.824c0.194,0.057,4.003,77.129,73.456,127.826
										c69.452-50.697,73.263-127.769,73.456-127.826C169.85,44.466,160.531,40.159,149.489,36.678z"/>
								</defs>
								<clipPath id="SVGID_2_">
									<use xlink:href="#SVGID_1_"  overflow="visible"/>
								</clipPath>
								<g clip-path="url(#SVGID_2_)">
									<path fill="#773141" d="M102.717,181.56c-12.739-11.054-23.95-23.948-33.375-38.391
										c-8.495-13.018-15.602-27.378-21.122-42.675c-7.286-20.188-10.188-37.272-11.342-47.525
										c6.195-4.113,13.675-7.722,22.298-10.755c14.093-4.959,28.742-7.474,43.542-7.474s29.449,2.514,43.542,7.473
										c8.624,3.034,16.101,6.644,22.298,10.755c-1.154,10.253-4.058,27.337-11.342,47.525
										c-5.52,15.298-12.626,29.655-21.122,42.675c-9.425,14.443-20.636,27.337-33.375,38.391H102.717z"/>
								</g>
							</g>
						</g>
						<path fill="#773141" d="M102.717,181.491c-12.739-11.054-23.95-23.948-33.375-38.391
							c-8.495-13.018-15.602-27.378-21.122-42.675C40.934,80.237,38.033,63.153,36.879,52.9c6.195-4.113,13.675-7.722,22.298-10.755
							c14.093-4.959,28.742-7.474,43.542-7.474s29.449,2.514,43.542,7.474c8.624,3.034,16.101,6.644,22.298,10.755
							c-1.154,10.253-4.058,27.337-11.342,47.525c-5.52,15.298-12.626,29.655-21.122,42.675
							c-9.425,14.443-20.636,27.337-33.375,38.391H102.717z"/>
						<path fill="#101820" d="M179.966,49.201c0-5.033-15.504-6.187-15.504-6.187l-16.833,73.271
							c-20.85,4.859-61.935,14.653-79.517,20.392c-11.472,32.266,24.378,35.85,34.776,43.379
							c20.159-12.449,38.934-37.947,56.052-64.635l0.765-0.173c0,0,20.263-42.743,20.263-66.046H179.966z"/>
						<path fill="#B0BAC4" d="M137.25,151.214c-10.469,11.209-21.142,19.967-34.507,27.418
							c-13.363-7.451-24.038-16.209-34.507-27.418c-15.361-16.476-27.82-36.427-34.955-57.849
							c5.363,19.821,15.171,38.352,27.522,54.708c5.167,6.739,10.93,13.144,17.1,18.978c7.119,6.688,16.544,12.763,24.839,18.028
							c8.295-5.265,17.72-11.34,24.839-18.028c6.17-5.834,11.933-12.239,17.1-18.978c12.349-16.356,22.16-34.888,27.522-54.708
							C165.07,114.784,152.611,134.737,137.25,151.214L137.25,151.214z"/>
					</g>
				</g>
				<g>
					<path fill="#101820" d="M168.384,8.852c-1.205-0.237-2.376-0.357-3.479-0.357c-3.931,0-8.974,1.517-11.476,8.458
						c-2.49-0.677-7.592-1.786-14.235-1.786c-10.81,0-20.932,2.859-30.104,8.499c-0.697-0.055-1.97-0.131-3.662-0.131
						c-9.611,0-32.541,2.449-39.788,24.908c-2.372,0.848-8.77,3.603-11.173,9.325c-1.554,3.701-1.14,7.851,1.23,12.339
						c0.194,1.117,0.944,5.251,1.733,7.227c0.461,1.152,0.459,3.832,0.341,5.53c-0.991,1.495-4.352,6.947-5.489,13.77
						c-0.987,5.928-1.723,11.142-0.706,14.888c0.638,2.351,2.796,3.993,5.247,3.993c0.781,0,1.54-0.165,2.255-0.489
						c1.03-0.467,2.141-0.956,3.32-1.46c0.171,0.934,0.334,2.027,0.414,3.063c-3.883,2.239-9.233,5.402-13.165,8.022
						c-0.993,0.661-2.147,1.011-3.342,1.011c-1.419,0-2.798-0.502-3.887-1.411c-4.498-3.764-7.894-6.181-10.09-7.18
						c-0.671-0.306-1.419-0.459-2.225-0.459c-4.241,0-9.329,4.331-11.717,7.241c-1.976,2.41-2.017,3.632-1.876,4.341
						c0.004,0.022,0.01,0.045,0.014,0.067c0.102,0.422,2.608,10.387,10.212,13.766c1.872,0.832,3.675,1.238,5.506,1.238
						c4.382,0,8.228-2.361,12.682-5.098c1.482-0.909,3.016-1.852,4.696-2.794c0.075-0.041,3.764-2.131,8.295-4.933
						c2.423,3.185,7.404,9.847,7.404,9.847c1.097,1.829,2.896,2.977,5.202,3.324c1.646,0.247,3.407,0.371,5.237,0.371
						c5.469,0,10.186-1.099,11.962-1.513c0.22-0.051,0.383-0.09,0.485-0.11c0.118-0.01,0.241-0.035,0.373-0.067
						c1.715-0.438,3.46-0.663,5.188-0.663c3.328,0,6.556,0.84,9.339,2.429c4.678,2.671,8.632,6.254,11.752,10.648
						c0.259,0.365,0.655,0.612,1.097,0.685c0.092,0.016,0.186,0.022,0.277,0.022c0.351,0,0.695-0.11,0.983-0.316
						c1.113-0.801,44.912-34.14,47.906-74.967c0.357-2.796,1.515-14.178-2.033-22.029c1.103-3.136,5.367-16.152,3.968-26.45
						c5.606-0.355,11.279-3.091,11.65-9.892c0.336-6.132-4.103-11.678-10.326-12.904L168.384,8.852z"/>
					<path fill="#773141" d="M132.319,75.565c-11.758-4.223-76.191-42.751-71.65-8.96c2.52,0.133,20.538,2.111,29.486,5.553
						c4.839,1.862,18.607,11.538,27.168,10.793c3.958-0.345,14.144-7.062,14.996-7.384V75.565z"/>
					<path fill="#773141" d="M158.32,35.351c1.069-2.257,1.666-5.332,1.24-9.521c-0.93-1.148-2.086-2.121-3.43-2.836
						c-6.454-3.442-18.893-6.566-39.339,1.246c0,0,3.86,1.119,5.893,3.15c0,0-42.71-5.714-49.382,20.971
						c0,0,42.419,6.882,63.54,24.515c0.073-0.006,0.145-0.014,0.218-0.016c15.243-0.677,9.543-33.607,9.543-33.607l0.01,0.006
						c4.319,2.155,9.639,0.459,11.705-3.903L158.32,35.351z"/>
					<g>
						<path fill="#FFFFFF" d="M120.882,110.398c-4.097-0.414-6.568-7.873-4.227-13.489c2.922,11.47,5.824,9.39,8.607,5.339
							c1.162-1.69,1.242-3.905,0.226-5.687l0,0c-8.699-2.71-15.524-8.699-18.936-10.593c-3.789-2.104-18.01-10.471-24.833-12.626
							c-7.998-2.524-20.624-2.524-20.624-2.524c0.64,3.063,1.303,4.604,4.058,4.686c9.8-1.976,16.919,1.941,19.933,7.52
							c0.037-0.145-13.238-3.465-13.208-3.189l8.762,5.257c-4.509,2.231-9.113,3.711-13.85,4.127
							c-1.446,0.126-2.861-0.455-3.795-1.566c-3.781-4.494-6.252,9.978-6.949,13.471c0.396-1.976-2.386,9.651,1.992,9.456
							c0.546-0.024,1.032-0.369,1.281-0.856c6.572-12.906,11.011,1.232,11.038-10.281c3.878,2.8,2.904,5.712,1.028,7.885
							c11.715,0.642,19.168,11.016,25.595,2.902c-3.956,15.09-10.932,9.696-19.362,7.457c0.918,0.883,1.513,2.09,1.584,3.444
							c0.02,0.381-0.006,0.618-0.006,0.618l-0.112-0.055c-2.251-1.126-4.706-1.811-7.223-1.919
							c-2.186-0.094-4.541,0.184-5.714,1.554c-2.524,2.947,1.262,3.367,1.262,3.367c6.733-0.42,5.471,2.947,5.471,2.524
							c0-0.422-4.633-0.997-4.04,0.035c1.994,3.465-0.591,4.174-0.169,8.383c0.669,6.684,13.469,3.367,16.835,2.524
							c10.285-2.571,27.19-11.958,34.976-16.476c0.801-0.736,2.084-3.232,3.358-6.099c1.015-2.286-0.471-4.933-2.961-5.184V110.398z
							"/>
						<g>
							<defs>
								<path id="SVGID_3_" d="M120.882,110.398c-4.097-0.414-6.568-7.873-4.227-13.489c2.922,11.47,5.824,9.39,8.607,5.339
									c1.162-1.69,1.242-3.905,0.226-5.687l0,0c-8.699-2.71-15.524-8.699-18.936-10.593c-3.789-2.104-18.01-10.471-24.833-12.626
									c-7.998-2.524-20.624-2.524-20.624-2.524c0.64,3.063,1.303,4.604,4.058,4.686c9.8-1.976,16.919,1.941,19.933,7.52
									c0.037-0.145-13.238-3.465-13.208-3.189l8.762,5.257c-4.509,2.231-9.113,3.711-13.85,4.127
									c-1.446,0.126-2.861-0.455-3.795-1.566c-3.781-4.494-6.252,9.978-6.949,13.471c0.396-1.976-2.386,9.651,1.992,9.456
									c0.546-0.024,1.032-0.369,1.281-0.856c6.572-12.906,11.011,1.232,11.038-10.281c3.878,2.8,2.904,5.712,1.028,7.885
									c11.715,0.642,19.168,11.016,25.595,2.902c-3.956,15.09-10.932,9.696-19.362,7.457c0.918,0.883,1.513,2.09,1.584,3.444
									c0.02,0.381-0.006,0.618-0.006,0.618l-0.112-0.055c-2.251-1.126-4.706-1.811-7.223-1.919
									c-2.186-0.094-4.541,0.184-5.714,1.554c-2.524,2.947,1.262,3.367,1.262,3.367c6.733-0.42,5.471,2.947,5.471,2.524
									c0-0.422-4.633-0.997-4.04,0.035c1.994,3.465-0.591,4.174-0.169,8.383c0.669,6.684,13.469,3.367,16.835,2.524
									c10.285-2.571,27.19-11.958,34.976-16.476c0.801-0.736,2.084-3.232,3.358-6.099c1.015-2.286-0.471-4.933-2.961-5.184
									V110.398z"/>
							</defs>
							<clipPath id="SVGID_4_">
								<use xlink:href="#SVGID_3_"  overflow="visible"/>
							</clipPath>
							<g clip-path="url(#SVGID_4_)">
								<path fill="#B0BAC4" d="M57.407,86.016c0,0,5.243,5.593,15.73,5.243c10.487-0.349,10.836-5.942,18.879-0.856
									c0,0-8.742-13.475-23.073-14.523C61.985,75.369,57.407,86.016,57.407,86.016L57.407,86.016z"/>
								<path fill="#B0BAC4" d="M108.392,82.949c12.653,30.516-1.525,45.895-30.016,56.764c0,0,62.765-11.735,54.578-35.924
									C124.766,79.599,109.795,76.322,108.392,82.949L108.392,82.949z"/>
								<path fill="#B0BAC4" d="M70.355,99.435c0,0,12.673,6.013,8.793,9.649c-3.878,3.638-7.749,0.608-7.749,0.608L70.355,99.435z"
									/>
							</g>
						</g>
					</g>
					<path fill="#FFB612" d="M77.323,46.368c0,0,8.481-21.018,48.306-16.962c0,0-32.571,1.175-39.517,18.84L77.323,46.368
						L77.323,46.368z"/>
					<path fill="#FFB612" d="M104.24,66.65c-0.369,0-15.118-9.588-29.001-11.362c-11.262-1.44-11.562,6.568-11.193,9.15l9.984,1.105
						c0,0-5.192-4.794,0.71-6.268C80.639,57.8,104.24,66.65,104.24,66.65L104.24,66.65z"/>
					<path fill="#FFB612" d="M161.846,19.368c0.565-7.274,8.866-3.844,12.663-1.878c-1.04-3.583-5.457-4.502-9.307-4.853
						c-0.118-0.01-0.235-0.018-0.353-0.02c-5.118-0.149-7.421,6.366-3.532,9.696c0.114,0.098,0.23,0.2,0.345,0.304
						c0.027-0.914,0.084-1.982,0.181-3.248H161.846z"/>
					<path fill="#FFB612" d="M127.472,23.138c0,0,8.85-4.425,26.181,0.738C153.653,23.877,139.64,24.246,127.472,23.138z"/>
					<path fill="#B0BAC4" d="M63.392,119.038c0,0-4.431,1.782-13.736,7.859c-0.885,0.577-1.338,1.633-1.126,2.667
						c0.179,0.879,0.296,1.964,0.071,2.857c0,0,0.357-0.918,0.942-2.151c0.653-1.383,1.66-2.571,2.91-3.452
						c3.923-2.759,7.594-5.367,10.94-7.779H63.392z"/>
					<path fill="#B0BAC4" d="M30.284,120.218c0.275-0.752-0.52-1.45-1.23-1.079c-3.073,1.607-9.541,5.404-9.743,8.962
						c-0.263,4.674,8.281,11.291,10.575,11.768c0,0-7.857-9.086-7.957-10.916c-0.09-1.619,6.69-4.19,8.352-8.736H30.284z"/>
				</g>
			</g>
			<g>
				<path fill="#FFB612" d="M102.733,140.824h0.108c-0.049,0.075,0.018,0.126,0.049,0.184c0.922,1.707,1.841,3.416,2.767,5.12
					c0.214,0.394,0.508,0.477,0.918,0.257c0.583-0.312,1.162-0.626,1.737-0.948c0.332-0.186,0.689-0.334,0.993-0.565l0,0
					c0.082,0.098,0.018,0.2,0,0.294c-0.475,2.325-0.956,4.649-1.438,6.974c-0.094,0.451-0.19,0.903-0.279,1.354
					c-0.057,0.283,0.055,0.518,0.288,0.632c0.241,0.118,0.489,0.071,0.714-0.139c0.045-0.043,0.088-0.088,0.131-0.131
					c1.119-1.13,2.241-2.255,3.352-3.389c0.173-0.177,0.22-0.133,0.302,0.059c0.249,0.575,0.512,1.146,0.777,1.715
					c0.169,0.363,0.369,0.453,0.779,0.369c0.93-0.188,1.858-0.375,2.788-0.563c0.606-0.122,1.213-0.241,1.85-0.367
					c-0.037,0.116-0.059,0.198-0.086,0.277c-0.498,1.442-0.997,2.881-1.493,4.323c-0.145,0.418-0.041,0.636,0.383,0.824
					c0.491,0.218,0.979,0.442,1.476,0.648c0.21,0.088,0.241,0.141,0.045,0.288c-0.704,0.522-1.397,1.058-2.094,1.591
					c-1.943,1.48-3.887,2.963-5.828,4.445c-0.371,0.283-0.402,0.4-0.245,0.818c0.102,0.273,0.21,0.544,0.314,0.816
					c0.212,0.551,0.422,1.101,0.64,1.67c-0.073,0-0.118,0.006-0.161,0c-2.406-0.398-5.035,2.074-7.441,1.672
					c-0.72-0.12-0.932-2.618-0.891-1.925c0.106,1.788,0.133,2.161,0.224,3.952c0.027,0.536,0.175-0.783,0.139-0.245h-1.523
					c-0.006-0.051-0.018,0.958-0.014,0.909c0.124-2.274,0.247-2.341,0.377-4.615c0.039-0.671-0.6,1.805-1.279,1.917
					c-1.898,0.312-3.577-2.239-5.475-1.925c-0.567,0.094-1.136,0.184-1.703,0.275c-0.024-0.088,0.01-0.139,0.031-0.194
					c0.292-0.752,0.581-1.503,0.871-2.255c0.175-0.459,0.143-0.585-0.251-0.883c-1.364-1.042-2.73-2.084-4.097-3.124
					c-1.266-0.967-2.531-1.935-3.803-2.896c-0.192-0.145-0.173-0.198,0.043-0.288c0.481-0.198,0.952-0.416,1.427-0.624
					c0.485-0.214,0.583-0.42,0.418-0.895c-0.491-1.425-0.987-2.849-1.478-4.274c-0.029-0.084-0.088-0.165-0.053-0.273
					c1.531,0.308,3.053,0.614,4.574,0.92c0.453,0.092,0.642,0,0.83-0.41c0.251-0.546,0.496-1.097,0.744-1.644
					c0.12-0.267,0.122-0.267,0.326-0.063c1.138,1.148,2.274,2.296,3.412,3.442c0.263,0.265,0.508,0.324,0.769,0.196
					c0.257-0.126,0.343-0.355,0.269-0.706c-0.565-2.743-1.13-5.485-1.692-8.228c-0.02-0.102-0.088-0.212-0.002-0.32l0,0
					c0.033,0.069,0.108,0.088,0.169,0.12c0.838,0.457,1.674,0.914,2.514,1.368c0.467,0.253,0.746,0.173,0.991-0.277
					c0.907-1.676,1.813-3.352,2.716-5.031c0.037-0.069,0.122-0.133,0.071-0.228L102.733,140.824z"/>
				<path fill="#FFB612" d="M102.056,171.646c-0.442-0.442-0.879-1.739-1.207-2.938c-0.965-0.137-1.562-0.516-1.639-0.569
					l0.275-1.591c0.216-0.077,0.967-0.6,1.646-1.117v-1.124h-4.188l-0.883-0.883v-1.75l0.883-0.883h1.33
					c-0.065-0.72-0.263-1.642-0.759-2.166c-0.273-0.29-0.612-0.424-1.06-0.424c-0.799,0-1.044,0.304-1.126,0.404
					c-0.42,0.518-0.324,1.529-0.257,1.841l-0.836,1.069c-0.033,0-0.065,0-0.098,0c-2.357,0-3.815-2.351-3.815-4.529
					c0-2.062,1.368-4.142,4.427-4.142c0.098,0,0.198,0.002,0.3,0.006c1.597,0.067,2.91,0.667,3.905,1.78
					c1.662,1.862,1.958,4.692,1.992,6.156h0.251c-0.043-0.65-0.128-1.417-0.259-2.286c-0.271-1.835-0.81-3.685-1.597-5.502
					c-3.277-7.547,3.279-14.229,3.338-14.282l0,0c0.061,0.053,6.615,6.735,3.338,14.282c-0.789,1.817-1.325,3.668-1.597,5.502
					c-0.128,0.871-0.214,1.635-0.259,2.286h0.251c0.035-1.464,0.33-4.294,1.992-6.156c0.995-1.115,2.31-1.715,3.907-1.78
					c0.102-0.004,0.202-0.006,0.3-0.006c1.764,0,3.138,0.701,3.874,1.974c0.777,1.348,0.726,3.248-0.131,4.731
					c-0.722,1.248-1.862,1.964-3.13,1.964c0,0-0.065,0-0.098,0l-0.836-1.073c0.065-0.31,0.163-1.319-0.257-1.839
					c-0.082-0.1-0.326-0.404-1.126-0.404c-0.451,0-0.789,0.135-1.062,0.426c-0.491,0.522-0.689,1.448-0.754,2.164h1.327l0.883,0.883
					v1.75l-0.883,0.883h-4.188v1.124c0.679,0.518,1.431,1.04,1.666,1.124l0.255,1.584c-0.077,0.051-0.675,0.432-1.639,0.569
					c-0.328,1.199-0.765,2.496-1.207,2.938h-1.248L102.056,171.646z"/>
				<path fill="#101820" d="M110.019,154.026c-5.359,0.224-4.829,7.604-4.829,7.604h-1.972c0-0.922,0.124-2.066,0.288-3.159
					c0.279-1.89,0.83-3.73,1.591-5.483c2.93-6.748-2.423-11.442-2.423-11.442s-5.353,4.694-2.423,11.442
					c0.761,1.754,1.311,3.593,1.591,5.483c0.161,1.093,0.288,2.237,0.288,3.159h-1.972c0,0,0.528-7.38-4.829-7.604
					c-5.359-0.224-4.107,6.707-0.771,6.609c0,0-0.706-3.177,2.149-3.177c2.855,0,2.61,4.17,2.61,4.17h-2.139v1.676h4.857v2.335
					c0,0-1.703,1.348-2.217,1.476c0,0,0.673,0.449,1.764,0.449c0,0,0.653,2.577,1.091,3.016c0.438-0.438,1.091-3.016,1.091-3.016
					c1.091,0,1.764-0.449,1.764-0.449c-0.514-0.128-2.217-1.476-2.217-1.476v-2.335h4.857v-1.676h-2.139c0,0-0.247-4.17,2.61-4.17
					s2.149,3.177,2.149,3.177C114.126,160.73,115.378,153.801,110.019,154.026z"/>
			</g>
			<path fill="#FFB612" d="M161.324,47.767c0,0,2.51-2.151,2.265-5.781c0,0,7.712,3.516,13.658,7.516
				c0,0-6.962,48.813-37.435,91.118c0,0,25.096-41.228,30.726-88.281C170.539,52.339,164.542,49.036,161.324,47.767L161.324,47.767z
				"/>
		</g>
		<path fill="#B0BAC4" d="M41.897,140.008l9.551-5.669c0,0,3.966,1.668,3.358,2.204c-1.784,1.574-6.089,4.199-8.187,5.773
			C45.372,143.253,41.897,140.008,41.897,140.008L41.897,140.008z"/>
	</g>
</g>
</svg>
