<?xml version="1.0" encoding="utf-8"?>
<!-- Generator: Adobe Illustrator 24.1.0, SVG Export Plug-In . SVG Version: 6.00 Build 0)  -->
<svg version="1.1" id="Layer_1" xmlns="http://www.w3.org/2000/svg" xmlns:xlink="http://www.w3.org/1999/xlink" x="0px" y="0px"
	 viewBox="0 0 200 200" style="enable-background:new 0 0 200 200;" xml:space="preserve">
<g>
	<path style="fill:#840FFC;" d="M85.158,167.954c-0.47-0.103-0.764,0.266-1.112,0.449c-6.888,3.611-15.634,2.399-20.786-2.901
		c-1.547-1.591-2.677-3.448-3.361-5.553c-0.202-0.62-0.503-0.777-1.111-0.764c-1.767,0.038-3.518-0.062-5.276-0.367
		c-1.064-0.185-2.042,0.058-2.75,1.262c-2.903,4.936-8.957,7.685-14.496,6.745c-6.23-1.057-10.974-5.406-12.205-11.257
		c-0.533-2.534-0.207-5.116-0.272-7.676c-0.022-0.872,0.748-0.328,1.161-0.647c-0.738-1.702-1.249-3.501-1.193-5.427
		c0.097-3.322,1.046-6.343,3.145-8.945c0.425-0.527,0.411-0.757-0.125-1.2c-8.617-7.117-11.942-16.405-10.947-27.342
		c0.898-9.877,5.269-17.855,13.601-23.417c6.162-4.113,13.036-5.585,20.39-5.007c3.794,0.298,7.452,1.163,10.978,2.568
		c0.747,0.298,0.973,0.131,1.223-0.589c1.708-4.907,2.814-9.993,4.433-14.922c2.227-6.779,5.089-13.269,9.761-18.775
		c1.16-1.367,2.054-2.826,2.813-4.434c5.926-12.562,12.618-24.73,19.114-36.999c0.534-1.008,1.072-2.013,1.673-3.142
		c0.724,1.416,1.398,2.726,2.064,4.039c6.579,12.965,13.419,25.799,19.633,38.948c0.147,0.31,0.306,0.631,0.527,0.888
		c4.956,5.748,8.078,12.467,10.315,19.632c1.526,4.887,2.937,9.811,4.358,14.73c0.222,0.767,0.46,0.833,1.192,0.554
		c8.705-3.31,17.575-3.788,26.304-0.476c8.697,3.299,14.192,9.968,17.265,18.59c4.007,11.245,2.391,21.678-5.062,31.098
		c-1.403,1.773-3.058,3.315-4.859,4.679c-0.559,0.424-0.544,0.675-0.155,1.207c1.75,2.392,2.626,5.084,2.607,8.059
		c-0.01,1.56,0.004,3.121-0.003,4.681c-0.002,0.388,0.128,0.788-0.543,0.887c-0.661,0.097-0.167,0.598-0.088,0.873
		c1.311,4.527,0.78,8.805-1.874,12.713c-5.833,8.59-18.988,8.236-24.509-0.646c-0.397-0.639-0.78-0.91-1.538-0.886
		c-1.801,0.057-3.606,0.029-5.409,0.003c-0.487-0.007-0.716,0.131-0.884,0.625c-2.388,7.036-8.928,11.475-18.042,10.327
		c-2.674-0.337-5.206-1.111-7.782-2.671c0.994,2.702,2.126,5.021,3.6,7.181c1.48,2.169,3.495,3.829,5.43,5.714
		c-0.979,0.416-1.951,0.285-2.873,0.365c-3.291,0.287-6.577,0.421-9.722-0.94c-0.583-0.252-1.189-1.004-1.713-0.688
		c-0.474,0.286-0.374,1.194-0.496,1.834c-0.789,4.155-2.278,8.042-4.359,11.721c-1.294,2.288-2.493,4.63-3.738,6.956
		c-0.062-0.022-0.139-0.026-0.156-0.059c-2.082-4.227-4.755-8.132-6.765-12.396c-1.13-2.397-1.913-4.901-2.042-7.573
		c-0.029-0.607-0.071-1.034-0.868-0.57c-2.121,1.234-4.448,1.68-6.883,1.666c-2.276-0.014-4.553-0.003-6.83-0.003
		c-0.033-0.084-0.066-0.169-0.099-0.253c0.625-0.564,1.218-1.167,1.879-1.685c3.524-2.76,5.688-6.473,7.415-10.497
		c0.038-0.089,0.016-0.203,0.022-0.305c0.045-0.032,0.09-0.064,0.135-0.095c-0.028-0.012-0.056-0.025-0.084-0.037
		C85.18,167.856,85.169,167.905,85.158,167.954z M42.722,134.242l-0.019-0.03c0.652,2.151,1.876,4.084,2.547,6.383
		c-1.113-0.36-2.059-0.666-3.004-0.971c-1.627-0.766-3.355-1.25-5.051-1.825c-1.697-0.81-3.394-1.619-5.091-2.429
		c-0.4-0.268-0.814-0.519-1.196-0.81c-0.356-0.272-0.587-0.167-0.883,0.12c-3.691,3.582-3.592,10.057,0.213,13.507
		c0.934,0.847,1.853,1.709,2.958,2.729c-1.889,0-3.511,0.013-5.132-0.008c-0.497-0.006-0.764,0.083-0.753,0.674
		c0.024,1.248,0.002,2.492,0.318,3.716c1.107,4.281,5.034,7.636,9.45,8.059c4.924,0.472,9.346-1.95,11.276-6.287
		c0.438-0.984,0.858-1.593,2.059-1.493c0.738,0.061,1.513-0.147,2.226-0.442c0.333-0.138,0.663-0.184,1.007-0.048
		c1.317,0.521,2.701,0.519,4.088,0.589c0.867,0.044,1.015-0.277,1-1.052c-0.046-2.426-0.023-4.853-0.009-7.279
		c0.002-0.307-0.173-0.695,0.315-0.871c1.26-0.457,2.51-0.942,3.884-1.462c0,0.415,0,0.718,0,1.021c0,2.912,0.017,5.824-0.013,8.736
		c-0.007,0.657,0.147,0.9,0.858,0.893c3.709-0.036,7.419,0.007,11.127-0.029c1.949-0.019,3.643-0.736,5.033-2.131
		c1.375-1.38,1.378-1.377,2.812-0.111c4.223,3.727,10.945,2.714,13.539-2.277c0.895-1.722,1.854-2.211,3.549-1.877
		c0.067,0.013,0.139,0.014,0.207,0.007c0.661-0.066,0.916,0.195,0.89,0.889c-0.05,1.35-0.015,2.703-0.015,4.055
		c0,1.479,0.025,1.645,1.488,1.426c2.737-0.411,5.436-0.082,8.163-0.023c7.761,0.169,15.529,0.056,23.294,0.055
		c0.977,0,1.943-0.119,2.86-0.449c0.521-0.188,0.97-0.178,1.497-0.003c1.949,0.646,3.966,0.684,5.941,0.246
		c1.205-0.267,2.301-0.405,3.522-0.025c0.759,0.236,1.218,0.485,1.545,1.248c2.275,5.317,8.199,8.024,13.693,6.233
		c7.972-2.599,9.574-12.095,5.287-16.965c-0.619-0.703-1.266-1.418-1.728-2.376c1.197,0,2.27-0.009,3.342,0.004
		c0.398,0.005,0.636-0.054,0.654-0.551c0.082-2.248-0.132-4.424-1.284-6.428c-1.152-2.005-1.209-2.029-3.116-0.774
		c-1.588,0.734-3.176,1.469-4.764,2.203c-1.997,0.613-3.966,1.307-5.903,2.09c-0.049,0.063-0.099,0.125-0.148,0.188l0.025-0.017
		c-0.529-0.183-0.95,0.437-1.486,0.198l0.021,0.015c-0.056-0.374,0.182-0.657,0.313-0.968c0.853-2.037,1.719-4.068,2.58-6.102
		c0.147-0.349,0.317-0.691,0.434-1.05c0.103-0.316,0.403-0.695,0.156-0.962c-0.243-0.263-0.641-0.015-0.969,0.068
		c-2.421,0.607-4.287,2.05-5.855,3.921c-0.44,0.525-0.714,0.586-1.133-0.041c-0.774-1.158-1.699-2.182-2.947-2.877
		c-1.9-1.057-3.938-1.411-6.095-1.41c-30.469,0.015-60.938,0.01-91.407,0.01c-0.173,0-0.349,0.02-0.519-0.003
		c-0.561-0.076-0.711,0.178-0.692,0.71c0.036,1.019,0.01,2.039,0.01,3.208c-2.058-1.241-3.691-2.858-6.009-3.416
		c0.16,0.924,0.503,1.702,0.863,2.475C42.605,134.11,42.663,134.176,42.722,134.242z M115.125,37.677
		c0.006,0.049,0.012,0.099,0.018,0.148c0.031-0.008,0.061-0.016,0.092-0.024c-0.044-0.036-0.088-0.072-0.132-0.107
		c0.012-0.444-0.273-0.776-0.452-1.14c-4.706-9.566-9.657-19.008-14.513-28.498c-0.099-0.194-0.13-0.462-0.494-0.553
		C94.356,17.421,89.027,27.32,83.991,37.58c4.205-1.795,8.091-3.684,11.955-5.627c2.266-1.14,4.623-1.103,6.916-0.005
		c1.81,0.867,3.574,1.83,5.38,2.705C110.498,35.746,112.777,36.79,115.125,37.677z M84.505,176.88
		c0.527,0.197,1.013-0.015,1.504-0.155c1.483-0.423,2.752-1.285,4.093-2c1.504-0.802,3.012-1.594,4.519-2.391
		c0.107,0.022,0.215,0.045,0.322,0.067c-2.567,7.532,0.477,13.704,4.392,19.617c4.347-5.989,4.798-13.243,6.585-20.171
		c1.328,1.274,2.287,2.702,3.642,3.734c1.409,1.073,3.425,1.74,4.779,1.571c-1.062-1.52-2.094-3.052-2.766-4.757
		c-1.77-4.493-4.06-8.705-6.623-12.785c-0.269-0.428-0.492-0.505-0.972-0.488c-1.974,0.07-3.95,0.045-5.925,0.097
		c-0.572,0.015-0.706-0.201-0.687-0.721c0.033-0.883,0.009-1.767,0.009-2.795c-1.426,1.092-2.809,1.868-3.354,3.655
		c-0.553,1.816-1.704,3.392-2.915,4.878c-0.262,0.321-0.559,0.637-0.728,1.006c-1.813,3.953-3.486,7.976-5.851,11.653
		c-0.038,0.034-0.076,0.068-0.114,0.102c0.028,0.005,0.056,0.01,0.084,0.015C84.5,176.968,84.502,176.924,84.505,176.88z
		 M103.772,127.508c0.219,0.011,0.344,0.023,0.468,0.023c9.363,0.001,18.726-0.004,28.089,0.012
		c0.642,0.001,1.122-0.261,1.611-0.602c3.302-2.299,6.503-4.731,9.58-7.322c2.255-1.899,4.446-3.87,6.547-5.94
		c1.297-1.278,2.066-2.776,1.803-4.659c-0.211-1.511-0.527-3.001-1.003-4.453c-1.085-3.309-2.996-5.94-6.292-7.322
		c-1.484-0.622-2.367-1.61-2.631-3.19c-0.163-0.976-0.727-1.614-1.708-1.876c-1.211-0.323-2.311-0.923-3.448-1.428
		c-0.895-0.397-1.395-1.081-1.547-2.056c-0.208-1.333-0.34-2.694-0.71-3.983c-1.978-6.882-3.988-13.756-6.052-20.613
		c-1.311-4.356-3.104-8.514-5.448-12.426c-2.89-4.821-6.459-8.956-11.733-11.253c-3.304-1.439-6.538-3.012-9.73-4.674
		c-1.485-0.773-2.867-0.759-4.348,0.005c-3.136,1.619-6.306,3.169-9.552,4.566c-3.136,1.349-5.768,3.42-8.026,5.974
		c-3.138,3.548-5.272,7.694-7.182,11.981c-2.153,4.83-3.33,9.965-4.806,15.01c-1.368,4.678-3.24,9.218-3.879,14.092
		c-0.263,2.005-1.354,3.274-3.184,3.99c-0.837,0.328-1.677,0.649-2.512,0.982c-0.622,0.249-1.042,0.69-1.151,1.364
		c-0.273,1.688-1.314,2.768-2.748,3.564c-1.212,0.673-2.4,1.387-3.46,2.294c-1.3,1.112-2.285,2.443-2.59,4.15
		c-0.281,1.57-0.625,3.119-1.076,4.648c-0.586,1.986-0.119,3.694,1.404,5.103c5.247,4.853,10.619,9.552,16.532,13.595
		c0.312,0.213,0.609,0.465,1.022,0.465c2.788-0.001,5.576-0.001,8.363-0.001c-0.245-0.392-0.551-0.59-0.863-0.778
		c-3.262-1.97-6.516-3.955-9.665-6.103c-3.896-2.658-7.755-5.373-11.135-8.689c-1.996-1.958-2.001-5.428-0.093-7.432
		c0.044,0.586,0.035,1.171,0.181,1.753c0.509,2.027,1.914,3.327,3.552,4.436c5.79,3.919,12.005,7.025,18.496,9.591
		c0.549,0.217,1.256,0.888,1.729,0.045c0.456-0.812-0.437-1.131-0.909-1.508c-4.802-3.839-9.406-7.886-13.408-12.577
		c-1.152-1.35-2.228-2.751-2.769-4.476c-0.871-2.778,0.333-5.236,3.001-5.963c-0.513,2.027,0.536,3.4,1.86,4.67
		c0.776,0.744,1.516,1.525,2.274,2.287c8.696,8.74,18.189,16.462,28.93,22.577c3.684,2.098,2.426,2.133,6.154,0.023
		c1.778-1.007,3.57-1.988,5.517-3.071C106.713,124.606,104.851,125.73,103.772,127.508z M160.208,134.568
		c4.367-1.786,8.222-3.998,11.47-7.131c8.196-7.905,10.575-19.526,6.161-30.559c-3.319-8.296-8.927-14.374-17.835-16.596
		c-6.986-1.742-13.95-1.211-20.729,1.366c-1.026,0.39-1.339,0.848-0.915,1.877c0.233,0.567,0.416,1.215,0.392,1.818
		c-0.078,1.967,1.12,2.641,2.757,3.084c2.219,0.601,3.616,2.101,4.203,4.321c0.137,0.519,0.41,0.799,0.886,1.036
		c6.295,3.144,10.235,10.977,9.056,18.007c-0.078,0.466-0.013,0.745,0.341,1.073c3.976,3.689,5.633,8.344,5.712,13.678
		C161.748,129.241,161.066,131.791,160.208,134.568z M38.746,134.484c-0.315-1.178-0.638-2.222-0.871-3.285
		c-1.494-6.815-0.06-12.839,4.927-17.861c0.414-0.416,0.461-0.737,0.316-1.254c-0.382-1.359-0.351-2.739-0.061-4.115
		c0.307-1.455,0.849-2.853,1.042-4.337c0.349-2.695,1.632-4.896,3.61-6.719c1.334-1.23,2.854-2.193,4.436-3.063
		c0.469-0.258,0.839-0.548,0.95-1.139c0.371-1.977,1.643-3.232,3.409-4.031c0.818-0.37,1.665-0.682,2.514-0.975
		c0.523-0.18,0.759-0.491,0.846-1.038c0.196-1.229,0.434-2.453,0.704-3.668c0.13-0.586-0.008-0.886-0.602-1.071
		c-1.253-0.391-2.469-0.911-3.731-1.265c-7.541-2.117-14.954-1.921-22.062,1.598c-11.626,5.756-16.316,18.126-14.673,29.907
		c1.112,7.976,5.222,14.023,11.861,18.445C33.654,132.141,36.039,133.489,38.746,134.484z M88.362,159.213
		c-2.472-0.193-4.684-0.801-6.642-2.141c-0.332-0.227-0.509,0.014-0.723,0.162c-2.037,1.414-4.308,1.978-6.769,1.956
		c-3.328-0.031-6.657,0.006-9.986-0.018c-0.683-0.005-0.892,0.132-0.537,0.799c0.375,0.704,0.749,1.404,1.233,2.041
		c3.139,4.136,9.152,5.926,14.655,4.361C83.499,165.261,86.317,162.83,88.362,159.213z M110.704,159.182
		c1.791,3.555,4.402,5.813,8.025,6.874c2.289,0.67,4.639,0.875,6.993,0.616c4.383-0.483,7.635-2.671,9.575-6.693
		c0.241-0.5,0.441-0.842-0.458-0.837c-6.546,0.042-13.092,0.034-19.639,0.04C113.754,159.183,112.308,159.182,110.704,159.182z
		 M140.038,127.538c3.745-0.092,6.93,0.734,9.678,2.927c0.324,0.259,0.527,0.177,0.804-0.035c2.051-1.576,4.39-2.462,6.935-2.804
		c0.539-0.072,0.701-0.296,0.702-0.79c0.012-4.018-1.053-7.642-3.83-10.661c-0.397-0.432-0.628-0.55-1.119-0.039
		c-2.352,2.448-4.901,4.688-7.513,6.853C143.897,124.479,142.056,125.919,140.038,127.538z M44.181,128.586
		c-0.249-1.041,0.312-1.068,1.02-1.064c4.12,0.022,8.241,0.011,12.361,0.011c0.324,0,0.648,0,0.999,0
		c-0.045-0.156-0.043-0.202-0.064-0.217c-4.527-3.436-8.74-7.237-12.907-11.092c-0.333-0.308-0.504-0.202-0.75,0.06
		c-2.824,3.011-4.054,6.614-3.972,10.701c0.009,0.437,0.135,0.754,0.682,0.861C42.394,128.01,43.21,128.305,44.181,128.586z
		 M88.793,127.532c0.017-0.06,0.035-0.119,0.052-0.179c-1.895-0.986-3.787-1.977-5.689-2.949c-0.205-0.105-0.464-0.125-0.701-0.142
		c-0.279-0.02-0.602,0.001-0.772,0.223c-0.223,0.291,0.115,0.494,0.251,0.698c0.383,0.576,0.827,1.112,1.203,1.692
		c0.34,0.525,0.78,0.688,1.397,0.67C85.952,127.504,87.373,127.532,88.793,127.532z"/>
	<path style="fill:#010001;" d="M103.772,127.508c1.079-1.778,2.941-2.902,3.457-5.195c-1.947,1.082-3.739,2.064-5.517,3.071
		c-3.728,2.11-2.469,2.075-6.154-0.023c-10.741-6.116-20.234-13.838-28.93-22.577c-0.758-0.762-1.498-1.543-2.274-2.287
		c-1.324-1.269-2.373-2.642-1.86-4.67c-2.668,0.727-3.872,3.186-3.001,5.963c0.541,1.725,1.617,3.126,2.769,4.476
		c4.002,4.69,8.606,8.738,13.408,12.577c0.472,0.377,1.365,0.696,0.909,1.508c-0.473,0.843-1.18,0.172-1.729-0.045
		c-6.492-2.565-12.706-5.671-18.496-9.591c-1.638-1.109-3.043-2.408-3.552-4.436c-0.146-0.582-0.137-1.167-0.181-1.753
		c-1.908,2.004-1.904,5.473,0.093,7.432c3.38,3.315,7.239,6.031,11.135,8.689c3.149,2.148,6.403,4.133,9.665,6.103
		c0.312,0.188,0.618,0.386,0.863,0.778c-2.788,0-5.576-0.001-8.363,0.001c-0.413,0-0.711-0.252-1.022-0.465
		c-5.913-4.042-11.286-8.742-16.532-13.595c-1.523-1.409-1.991-3.117-1.404-5.103c0.452-1.529,0.795-3.078,1.076-4.648
		c0.305-1.706,1.291-3.038,2.59-4.15c1.059-0.906,2.247-1.62,3.46-2.294c1.433-0.796,2.474-1.876,2.748-3.564
		c0.109-0.674,0.529-1.116,1.151-1.364c0.835-0.334,1.675-0.655,2.512-0.982c1.83-0.716,2.921-1.985,3.184-3.99
		c0.639-4.874,2.511-9.414,3.879-14.092c1.475-5.045,2.653-10.18,4.806-15.01c1.911-4.287,4.045-8.433,7.182-11.981
		c2.258-2.553,4.89-4.625,8.026-5.974c3.247-1.396,6.416-2.947,9.552-4.566c1.48-0.764,2.862-0.778,4.348-0.005
		c3.192,1.662,6.426,3.234,9.73,4.674c5.274,2.297,8.843,6.432,11.733,11.253c2.345,3.912,4.137,8.07,5.448,12.426
		c2.064,6.857,4.074,13.731,6.052,20.613c0.371,1.289,0.502,2.65,0.71,3.983c0.152,0.974,0.652,1.659,1.547,2.056
		c1.138,0.505,2.237,1.105,3.448,1.428c0.981,0.262,1.546,0.9,1.708,1.876c0.264,1.581,1.147,2.569,2.631,3.19
		c3.297,1.381,5.207,4.013,6.292,7.322c0.476,1.451,0.792,2.942,1.003,4.453c0.262,1.883-0.506,3.381-1.803,4.659
		c-2.101,2.07-4.291,4.041-6.547,5.94c-3.078,2.591-6.279,5.023-9.58,7.322c-0.49,0.341-0.969,0.603-1.611,0.602
		c-9.363-0.017-18.726-0.011-28.089-0.012C104.116,127.531,103.992,127.519,103.772,127.508z M139.641,116.121
		c0.166,0.201,0.316,0.037,0.438-0.043c2.355-1.558,4.433-3.43,6.262-5.579c0.201-0.236,0.406-0.495,0.415-0.821
		c0.075-2.544-0.574-4.868-2.086-6.94c0.064,3.719-1.179,7.012-3.03,10.123c-0.652,1.096-1.316,2.184-1.975,3.276
		c-0.037,0.038-0.074,0.075-0.111,0.113c0.041,0.002,0.081,0.005,0.122,0.007C139.665,116.211,139.653,116.166,139.641,116.121z
		 M109.099,112.415c0.336-0.173,0.685-0.323,1.005-0.522c2.722-1.694,5.16-3.749,7.414-6.014c4.323-4.345,8.183-9.036,10.776-14.663
		c0.564-1.224,0.673-2.439,0.455-3.74c-1.143-6.807-3.699-13.093-7.03-19.092c-0.129-0.233-0.212-0.553-0.603-0.651
		c0.024,0.228,0.025,0.402,0.061,0.568c1.188,5.34,2.312,10.69,2.995,16.125c0.31,2.465,0.478,4.897-0.64,7.234
		c-1.888,3.946-4.072,7.712-6.637,11.26c-2.404,3.325-5.285,6.238-7.956,9.333c-0.07,0.092-0.14,0.184-0.21,0.276
		C108.901,112.65,109.008,112.559,109.099,112.415z M75.308,61.079c1.215-0.402,1.882-1.221,2.697-1.818
		c0.578-0.423,1.267-1.141,1.895-0.744c0.65,0.411,0.123,1.277-0.063,1.915c-0.751,2.569-1.99,4.937-3.095,7.359
		c-2.613,5.73-5.224,11.463-7.043,17.51c-0.992,3.297-0.721,6.479,1.298,9.331c2.704,3.819,5.509,7.568,8.789,10.926
		c1.207,1.236,2.494,2.389,4.026,3.245c0.324-0.609-0.156-0.87-0.433-1.186c-3.699-4.216-6.781-8.855-9.316-13.844
		c-1.69-3.326-2.073-6.838-0.591-10.347c1.951-4.62,4.003-9.198,6.052-13.776c0.773-1.727,1.876-3.236,3.4-4.398
		c4.324-3.297,9.019-5.919,14.114-7.837c1.153-0.434,2.208-0.432,3.312,0.055c1.836,0.811,3.674,1.616,5.524,2.392
		c1.009,0.424,1.997,0.925,3.127,1.147c-0.082-0.434-0.404-0.609-0.63-0.843c-2.504-2.581-5.341-4.722-8.502-6.438
		c-1.62-0.88-1.749-1.277-1.053-2.986c1.332-3.272,1.282-6.541,0.022-9.822c-0.217-0.566-0.404-0.854-1.104-0.525
		c-2.191,1.031-4.451,1.917-6.622,2.987c-3.684,1.816-7.201,3.89-9.795,7.203C78.847,53.74,77.309,57.417,75.308,61.079z
		 M112.97,71.517c-3.272-2.398-6.61-4.606-10.278-6.334c-0.248,0.782,0.178,1.135,0.621,1.495c0.617,0.501,1.264,0.977,1.818,1.542
		c0.719,0.734,0.719,1.373-0.04,2.06c-0.792,0.717-1.676,1.334-2.531,1.982c-1.071,0.811-1.661,0.787-2.662-0.083
		c-0.979-0.852-1.564-0.865-2.544-0.058c-1.156,0.952-1.637,0.97-2.804-0.01c-1.116-0.937-2.245-1.85-3.556-2.504
		c-1.851-0.924-3.771-1.126-5.731-0.419c-1.194,0.43-1.715,1.431-2.182,2.834c3.67-1.619,6.556-0.373,9.277,1.698
		c0.549,0.418,1.16,0.753,1.745,1.123c1.96,1.238,2.964,1.088,4.492-0.686c0.263,0.223,0.524,0.447,0.789,0.668
		c1.281,1.074,1.712,1.136,3.163,0.346c0.788-0.429,1.601-0.844,2.305-1.393C107.243,71.914,109.78,70.678,112.97,71.517z
		 M122.603,118.146c0.519,0.074,0.733-0.251,0.988-0.444c1.463-1.109,2.929-2.215,4.354-3.37c3.272-2.65,6.182-5.658,8.695-9.04
		c1.574-2.118,2.415-4.43,1.761-7.103c-0.514-2.101-2.275-3.356-4.411-3.088c0.555,0.908,1.042,1.812,1.115,2.879
		c0.113,1.648-0.539,3.028-1.405,4.358C130.206,107.711,126.373,112.845,122.603,118.146z M88.252,96.124
		c-0.586,0.097-1.085-0.729-1.469-0.257c-0.372,0.458,0.11,1.098,0.265,1.649c0.028,0.099,0.081,0.191,0.127,0.283
		c1.806,3.587,4.298,6.6,7.546,8.971c0.52,0.379,1.079,0.722,1.867,0.78c-3.862-4.742-5.494-10.097-5.068-16.138
		c-0.586,0.174-0.823,0.601-1.117,0.968c-0.55,0.687-1.244,0.632-1.609-0.161c-0.698-1.515-0.902-3.044-0.009-4.573
		c0.324-0.555,0.618-1.128,0.985-1.802c-1.607,0.242-3.048,0.057-4.448-0.347c-1.423-0.41-2.817-0.926-4.276-1.414
		c-0.063,1.222,0.406,2.077,1.413,2.709c2.428,1.524,4.141,3.651,5.117,6.347C87.925,94.101,88.275,95.077,88.252,96.124z
		 M123.147,61.92c-0.448-3.337-5.794-12.244-7.988-13.309C116.569,55.512,119.018,60.077,123.147,61.92z M111.64,93.556
		c0.483-0.949,0.998-1.845,1.55-2.723c0.737-1.172,1.537-2.312,2.079-3.593c0.52-1.232,0.876-2.499,0.564-3.989
		C113.116,86.262,111.511,89.566,111.64,93.556z M92.036,76.73c-0.949-0.904-1.958-1.551-3.149-1.887
		c-0.613-0.173-1.128,0.038-1.391,0.604c-0.248,0.534,0.098,0.921,0.509,1.23C89.235,77.6,90.608,77.634,92.036,76.73z
		 M107.24,77.231c0.673,0.008,1.331-0.092,1.832-0.566c0.333-0.315,0.789-0.677,0.494-1.231c-0.292-0.548-0.817-0.752-1.409-0.576
		c-0.49,0.146-0.985,0.336-1.417,0.604c-0.527,0.327-1.513,0.596-1.345,1.174C105.563,77.221,106.546,77.212,107.24,77.231z"/>
	<path style="fill:#010001;" d="M155.406,140.098c1.937-0.783,3.906-1.476,5.903-2.09c0.837,0.482,1.94,0.911,2.094,1.873
		c0.276,1.729,1.419,1.453,2.535,1.445c0.553-0.004,1.114-0.056,1.658,0.013c0.769,0.097,0.858-0.278,0.766-0.89
		c-0.27-1.793-0.961-3.374-2.289-4.643c1.907-1.255,1.964-1.23,3.116,0.774c1.151,2.004,1.366,4.179,1.284,6.428
		c-0.018,0.497-0.256,0.556-0.654,0.551c-1.073-0.013-2.145-0.004-3.342-0.004c0.462,0.958,1.109,1.673,1.728,2.376
		c4.287,4.87,2.685,14.366-5.287,16.965c-5.495,1.791-11.418-0.916-13.693-6.233c-0.326-0.763-0.786-1.012-1.545-1.248
		c-1.22-0.38-2.317-0.242-3.522,0.025c-1.975,0.438-3.992,0.4-5.941-0.246c-0.528-0.175-0.976-0.185-1.497,0.003
		c-0.917,0.33-1.882,0.449-2.86,0.449c-7.765,0.001-15.532,0.115-23.294-0.055c-2.727-0.06-5.425-0.389-8.163,0.023
		c-1.463,0.22-1.488,0.053-1.488-1.426c0-1.352-0.036-2.705,0.015-4.055c0.026-0.694-0.229-0.956-0.89-0.889
		c-0.068,0.007-0.14,0.006-0.207-0.007c-1.695-0.334-2.654,0.155-3.549,1.877c-2.594,4.991-9.316,6.004-13.539,2.277
		c-1.435-1.266-1.438-1.269-2.812,0.111c-1.39,1.395-3.084,2.112-5.033,2.131c-3.709,0.036-7.419-0.007-11.127,0.029
		c-0.711,0.007-0.865-0.236-0.858-0.893c0.03-2.912,0.013-5.824,0.013-8.736c0-0.303,0-0.605,0-1.021
		c-1.374,0.52-2.624,1.005-3.884,1.462c-0.488,0.177-0.313,0.565-0.315,0.871c-0.014,2.427-0.037,4.854,0.009,7.279
		c0.015,0.775-0.133,1.096-1,1.052c-1.387-0.07-2.771-0.068-4.088-0.589c-0.345-0.136-0.675-0.09-1.007,0.048
		c-0.713,0.295-1.487,0.503-2.226,0.442c-1.201-0.1-1.621,0.509-2.059,1.493c-1.93,4.338-6.351,6.759-11.276,6.287
		c-4.416-0.423-8.343-3.778-9.45-8.059c-0.316-1.224-0.295-2.468-0.318-3.716c-0.011-0.591,0.256-0.68,0.753-0.674
		c1.621,0.02,3.242,0.008,5.132,0.008c-1.105-1.02-2.024-1.883-2.958-2.729c-3.806-3.45-3.904-9.925-0.213-13.507
		c0.296-0.287,0.526-0.391,0.883-0.12c0.382,0.292,0.796,0.542,1.196,0.81c-1.192,1.119-1.965,2.485-2.396,4.055
		c-1.063,3.869,0.318,6.761,4.006,8.321c0.633,0.268,1.3,0.472,1.97,0.629c0.443,0.104,0.721,0.312,0.959,0.693
		c1.034,1.657,1.045,1.65,2.645,0.552c1.127-0.773,2.426-0.525,2.978,0.718c0.885,1.993,0.758,4.398-1.634,5.62
		c-2.273,1.161-5.491,0.458-6.183-1.673c-0.464-1.43-1.21-1.454-2.309-1.379c-0.586,0.04-1.183,0.059-1.765-0.005
		c-0.853-0.093-1.054,0.191-0.906,1.035c0.702,3.99,4.046,6.953,8.318,7.301c4.029,0.328,7.816-2.182,9.075-6.015
		c1.489-4.534-0.461-8.799-4.629-9.915c-1.021-0.273-1.753-0.68-2.137-1.657c-0.313-0.798-0.707-0.908-1.415-0.335
		c-0.512,0.415-1.039,1.078-1.759,0.948c-1.148-0.207-2.209-0.739-2.677-1.905c-0.469-1.166-0.136-2.236,0.678-3.171
		c0.612-0.704,1.456-1.02,2.271-1.387c1.696,0.575,3.424,1.06,5.051,1.825c0.152,0.419,0.364,0.828,0.436,1.261
		c0.06,0.362,0.201,0.447,0.527,0.444c1.21-0.011,2.42-0.015,3.63,0.002c0.387,0.006,0.425-0.173,0.44-0.501
		c0.114-2.401-2.204-5.768-4.577-6.618c0,0,0.019,0.03,0.019,0.03c0.077-0.187-0.086-0.16-0.176-0.198
		c-0.36-0.773-0.703-1.551-0.863-2.475c2.318,0.557,3.951,2.174,6.009,3.416c0-1.169,0.026-2.189-0.01-3.208
		c-0.019-0.532,0.131-0.786,0.692-0.71c0.17,0.023,0.346,0.003,0.519,0.003c30.469,0,60.938,0.005,91.407-0.01
		c2.156-0.001,4.194,0.353,6.095,1.41c1.248,0.694,2.173,1.718,2.947,2.877c0.419,0.627,0.693,0.566,1.133,0.041
		c1.568-1.871,3.434-3.314,5.855-3.921c0.328-0.082,0.726-0.331,0.969-0.068c0.246,0.267-0.054,0.646-0.156,0.962
		c-0.117,0.359-0.287,0.701-0.433,1.05c-0.197,0.058-0.399,0.104-0.592,0.176c-3.629,1.357-5.838,4.819-5.625,8.812
		c0.152,2.855,2.413,5.015,6.298,5.977c0.441,0.109,0.722,0.308,0.96,0.689c1.035,1.657,1.046,1.65,2.648,0.551
		c1.155-0.792,2.505-0.494,3.022,0.819c0.883,2.242,0.561,4.363-1.691,5.525c-2.22,1.146-5.489,0.492-6.124-1.596
		c-0.508-1.669-1.454-1.453-2.577-1.453c-0.555,0-1.114,0.047-1.663-0.011c-0.787-0.083-0.916,0.223-0.8,0.947
		c0.644,4.022,4.051,7.058,8.353,7.39c4.044,0.312,7.801-2.197,9.055-6.048c1.535-4.716-0.562-8.909-5.068-10.004
		c-0.727-0.177-1.118-0.526-1.461-1.123c-0.754-1.313-0.774-1.301-2.016-0.474c-1.42,0.947-3.131,0.514-3.968-0.988
		c-0.422-0.757-0.28-1.542-0.181-2.332c0,0-0.025,0.017-0.024,0.017C155.307,140.223,155.356,140.16,155.406,140.098z
		 M145.969,152.058c0.717,1.087,1.819,1.222,2.928,1.335c0.241,0.025,0.558,0.047,0.498-0.322c-0.201-1.248,0.697-2.781-0.996-3.662
		c-0.358-0.186-0.582-0.674-0.812-1.057c-0.802-1.333-1.558-2.693-2.377-4.016c-0.326-0.527-0.419-0.825,0.249-1.182
		c0.928-0.497,1.691-1.235,1.987-2.297c1.029-3.695-0.011-6.429-3.894-7.452c-2.998-0.789-6.07-0.264-9.105-0.404
		c-0.232-0.011-0.406,0.047-0.405,0.329c0.003,0.936,0,1.871,0.003,2.807c0.001,0.183,0.049,0.324,0.271,0.366
		c1.351,0.257,1.415,1.247,1.447,2.366c0.05,1.73,0.116,3.412-2.035,4.463c2.213,0.909,2.164,2.585,2.041,4.29
		c-0.01,0.138-0.01,0.278,0,0.416c0.072,0.949-0.291,1.618-1.236,1.898c-0.325,0.096-0.526,0.215-0.506,0.626
		c0.04,0.795,0.025,1.594,0.006,2.39c-0.008,0.364,0.123,0.484,0.482,0.448c1.148-0.115,2.261-0.292,2.953-1.346
		c0.193,0.215,0.346,0.463,0.566,0.616c0.796,0.551,1.787,0.95,2.632,0.65c0.599-0.213,0.128-1.228,0.24-1.873
		c0.018-0.101-0.01-0.209,0.005-0.311c0.098-0.679-0.031-1.14-0.823-1.358c-0.598-0.165-0.884-0.731-0.875-1.394
		c0.01-0.832-0.039-1.666,0.018-2.494c0.026-0.387-0.335-1.095,0.315-1.113c0.79-0.022,1.772-0.684,2.385,0.477
		c0.532,1.008,1.095,2.01,1.754,2.937c0.609,0.857,0.324,1.366-0.506,1.647c-0.595,0.201-0.696,0.533-0.663,1.072
		c0.038,0.621,0.036,1.249,0,1.87c-0.029,0.5,0.126,0.678,0.643,0.613C144.245,153.256,145.276,153.029,145.969,152.058z
		 M70.515,153.429c0-0.009,0-0.018,0-0.027c1.594,0,3.191,0.058,4.781-0.014c2.343-0.106,4.33-2.048,4.586-4.348
		c0.048-0.428-0.009-0.651-0.511-0.63c-0.727,0.031-1.456,0.03-2.183-0.001c-0.407-0.017-0.628,0.094-0.747,0.509
		c-0.245,0.854-0.885,1.186-1.734,1.187c-1.317,0.001-2.635-0.023-3.951,0.014c-0.55,0.015-0.713-0.164-0.699-0.705
		c0.035-1.316,0.057-2.636-0.007-3.95c-0.036-0.735,0.261-0.874,0.895-0.828c0.621,0.045,1.247,0.01,1.871,0.01
		c1.993,0,1.963,0,1.948-2.029c-0.005-0.626-0.223-0.739-0.777-0.718c-1.073,0.039-2.149-0.016-3.222,0.022
		c-0.554,0.02-0.717-0.178-0.706-0.713c0.029-1.386,0.02-2.773,0.004-4.159c-0.005-0.421,0.099-0.633,0.574-0.625
		c1.42,0.025,2.842,0.005,4.262,0.024c0.589,0.008,1.205,0.225,1.347,0.793c0.242,0.971,0.87,0.975,1.627,0.922
		c0.483-0.034,0.973-0.041,1.454,0.003c0.569,0.052,0.705-0.192,0.692-0.716c-0.03-1.247-0.045-2.497,0.005-3.742
		c0.026-0.639-0.245-0.744-0.787-0.712c-1.024,0.06-2.085,0.197-3.069,0.122c-2.842-0.217-5.677-0.035-8.513-0.102
		c-0.854-0.02-1.969-0.38-2.499,0.152c-0.53,0.532-0.099,1.645-0.164,2.5c-0.039,0.514-0.014,0.935,0.646,1.057
		c0.468,0.087,0.906,0.484,0.912,0.904c0.024,1.744,0.864,3.682-0.991,5.054c-0.542,0.401-0.447,0.685-0.004,1.125
		c0.443,0.44,1.137,0.732,1.129,1.525c-0.011,1.109-0.001,2.218-0.016,3.327c-0.008,0.605-0.287,1.178-0.835,1.324
		c-0.858,0.228-0.9,0.761-0.846,1.45c0.033,0.413,0.04,0.835-0.002,1.246c-0.059,0.584,0.146,0.78,0.746,0.765
		C67.326,153.404,68.921,153.429,70.515,153.429z M123.067,153.429c0-0.01,0-0.02,0-0.03c1.63,0,3.262,0.061,4.888-0.015
		c2.102-0.098,3.95-1.76,4.417-3.794c0.186-0.81,0.188-1.358-0.912-1.187c-0.542,0.085-1.108,0.024-1.662,0.012
		c-0.369-0.008-0.629,0.015-0.754,0.484c-0.239,0.899-0.934,1.225-1.825,1.21c-0.624-0.01-1.248,0.007-1.872-0.004
		c-0.863-0.015-2.013,0.283-2.513-0.155c-0.587-0.514-0.165-1.694-0.188-2.584c-0.023-0.86-0.29-1.998,0.144-2.511
		c0.51-0.603,1.688-0.186,2.573-0.199c2.165-0.031,2.147-0.009,2.022-2.175c-0.026-0.458-0.157-0.589-0.6-0.579
		c-1.144,0.025-2.289-0.013-3.433,0.018c-0.525,0.014-0.742-0.126-0.728-0.693c0.035-1.386,0.03-2.774,0.002-4.161
		c-0.011-0.52,0.203-0.649,0.676-0.641c1.352,0.021,2.705,0.004,4.057,0.011c0.667,0.004,1.363,0.211,1.516,0.866
		c0.229,0.98,0.864,0.883,1.554,0.858c0.416-0.015,0.837-0.043,1.247,0.006c0.693,0.083,0.992-0.102,0.943-0.879
		c-0.071-1.14-0.055-2.289-0.004-3.431c0.029-0.656-0.129-0.89-0.838-0.871c-2.025,0.052-4.051,0.018-6.077,0.018
		c-1.942,0-3.884,0-5.826,0c-2.261,0-2.26,0-2.261,2.221c0,0.703-0.182,1.466,0.887,1.637c0.368,0.059,0.686,0.496,0.685,0.851
		c-0.006,1.746,0.83,3.691-1.085,5.034c-0.389,0.273-0.552,0.597-0.044,0.941c1.13,0.765,1.417,1.851,1.249,3.148
		c-0.075,0.58-0.009,1.178-0.022,1.767c-0.015,0.644-0.3,1.245-0.893,1.395c-0.787,0.2-0.822,0.664-0.783,1.284
		c0.028,0.449,0.046,0.906-0.004,1.351c-0.07,0.625,0.117,0.839,0.783,0.816C119.945,153.393,121.507,153.429,123.067,153.429z
		 M106.446,133.002c-2.461,0-4.922-0.005-7.383,0.003c-0.792,0.002-1.838-0.265-2.309,0.134c-0.558,0.472-0.171,1.556-0.179,2.371
		c-0.027,2.766-0.01,2.767,2.743,2.587c0.069-0.005,0.139-0.005,0.208-0.002c0.315,0.015,0.47-0.162,0.41-0.445
		c-0.311-1.478,0.667-1.328,1.584-1.285c0.45,0.021,0.907-0.035,1.35,0.022c0.79,0.101,1.692,0.394,1.721,1.236
		c0.06,1.77,0.831,3.77-1.138,5.115c-0.434,0.296-0.497,0.628-0.015,0.953c1.17,0.788,1.436,1.921,1.268,3.24
		c-0.048,0.375-0.025,0.763-0.004,1.143c0.049,0.905-0.302,1.541-1.182,1.845c-0.296,0.102-0.562,0.185-0.541,0.617
		c0.039,0.795,0.022,1.594,0.007,2.391c-0.006,0.345,0.087,0.51,0.47,0.475c0.941-0.087,1.903-0.19,2.577-0.915
		c0.369-0.397,0.453-0.321,0.792,0.019c0.755,0.755,1.849,1.106,2.767,0.812c0.688-0.221,0.18-1.28,0.272-1.958
		c0.1-0.73,0.114-1.43-0.903-1.603c-0.355-0.06-0.714-0.418-0.727-0.812c-0.06-1.819-0.897-3.817,1.082-5.212
		c0.517-0.364,0.405-0.652-0.006-1.045c-0.44-0.421-1.055-0.741-1.208-1.38c-0.899-3.755,0.243-5.13,4.069-4.939
		c0.069,0.003,0.139,0.006,0.208,0c0.379-0.033,0.517,0.185,0.451,0.507c-0.262,1.272,0.491,1.324,1.416,1.227
		c0.377-0.04,0.766-0.042,1.142,0.001c0.666,0.077,0.93-0.136,0.892-0.85c-0.059-1.106-0.077-2.222,0.004-3.325
		c0.061-0.832-0.262-0.953-0.998-0.943C112.339,133.026,109.393,133.002,106.446,133.002z M53.21,152.035
		c0.093,0.121,0.168,0.238,0.261,0.338c0.801,0.861,1.927,1.212,2.923,0.938c0.619-0.171,0.13-1.282,0.25-1.958
		c0.012-0.067-0.007-0.139,0.003-0.207c0.094-0.673-0.01-1.149-0.816-1.364c-0.6-0.16-0.89-0.725-0.886-1.387
		c0.006-0.97,0.031-1.942-0.015-2.91c-0.027-0.581,0.156-0.787,0.746-0.787c1.575-0.002,3.087-0.344,4.529-0.983
		c2.786-1.236,3.942-3.251,3.069-6.935c-0.56-2.367-2.642-3.171-4.792-3.558c-2.71-0.488-5.462-0.128-8.194-0.218
		c-0.104-0.003-0.221-0.024-0.309,0.015c-0.349,0.154-0.224,0.489-0.192,0.724c0.124,0.917-0.518,2.253,0.301,2.671
		c1.177,0.601,1.379,1.33,1.401,2.452c0.034,1.722,0.153,3.426-1.958,4.428c2.121,0.997,2.077,2.699,1.965,4.428
		c-0.011,0.173-0.009,0.347-0.001,0.52c0.038,0.836-0.343,1.381-1.128,1.659c-0.311,0.11-0.643,0.153-0.608,0.658
		c0.055,0.793,0.027,1.593,0.009,2.39c-0.008,0.356,0.106,0.491,0.474,0.454C51.391,153.285,52.508,153.116,53.21,152.035z
		 M93.141,138.156c0.47,0,0.713,0,0.956,0c1.248-0.001,1.266-0.028,0.76-1.146c-1.463-3.24-4.235-4.555-7.972-3.781
		c-3.108,0.644-5.069,3.051-5.045,6.442c0.009,1.312-0.232,2.358-1.349,3.112c-0.411,0.277-0.456,0.579-0.008,0.877
		c1.161,0.773,1.358,1.873,1.365,3.213c0.018,3.562,2.944,6.426,6.49,6.539c3.704,0.118,6.791-2.554,7.107-6.155
		c0.02-0.228,0.148-0.611-0.146-0.627c-1.033-0.057-2.073-0.043-3.108-0.003c-0.25,0.01-0.149,0.342-0.188,0.53
		c-0.18,0.881-0.587,1.622-1.315,2.169c-1.454,1.095-3.398,0.906-4.596-0.446c-1.202-1.355-1.225-3.678,0.05-4.824
		c0.698-0.627,0.815-1.085-0.003-1.631c-1.264-0.843-1.021-2.091-0.806-3.273c0.464-2.552,3.631-3.68,5.476-1.871
		C91.609,138.067,92.372,138.281,93.141,138.156z"/>
	<path style="fill:#010001;" d="M160.208,134.568c0.858-2.776,1.539-5.327,1.499-8.026c-0.08-5.333-1.737-9.989-5.712-13.678
		c-0.353-0.328-0.419-0.606-0.341-1.073c1.179-7.029-2.761-14.863-9.056-18.007c-0.475-0.237-0.749-0.517-0.886-1.036
		c-0.586-2.22-1.984-3.72-4.203-4.321c-1.637-0.443-2.835-1.117-2.757-3.084c0.024-0.603-0.158-1.251-0.392-1.818
		c-0.423-1.029-0.11-1.487,0.915-1.877c6.779-2.577,13.742-3.108,20.729-1.366c8.908,2.222,14.516,8.3,17.835,16.596
		c4.414,11.032,2.035,22.653-6.161,30.559C168.431,130.569,164.575,132.781,160.208,134.568z"/>
	<path style="fill:#010001;" d="M38.746,134.484c-2.707-0.995-5.092-2.343-7.385-3.87c-6.639-4.421-10.749-10.469-11.861-18.445
		c-1.643-11.782,3.048-24.151,14.673-29.907c7.107-3.519,14.521-3.715,22.062-1.598c1.262,0.354,2.478,0.874,3.731,1.265
		c0.594,0.185,0.733,0.485,0.602,1.071c-0.271,1.215-0.508,2.439-0.704,3.668c-0.087,0.547-0.323,0.858-0.846,1.038
		c-0.85,0.293-1.696,0.605-2.514,0.975c-1.767,0.799-3.038,2.054-3.409,4.031c-0.111,0.591-0.481,0.881-0.95,1.139
		c-1.582,0.87-3.102,1.833-4.436,3.063c-1.977,1.823-3.26,4.023-3.61,6.719c-0.192,1.484-0.734,2.882-1.042,4.337
		c-0.291,1.376-0.322,2.756,0.061,4.115c0.145,0.517,0.098,0.837-0.316,1.254c-4.987,5.021-6.421,11.046-4.927,17.861
		C38.107,132.262,38.431,133.306,38.746,134.484z"/>
	<path style="fill:#010001;" d="M84.528,176.896c2.365-3.676,4.038-7.699,5.852-11.652c0.169-0.369,0.467-0.685,0.728-1.006
		c1.211-1.486,2.362-3.062,2.915-4.878c0.545-1.787,1.928-2.564,3.354-3.655c0,1.028,0.024,1.913-0.009,2.795
		c-0.019,0.52,0.115,0.736,0.687,0.721c1.974-0.053,3.951-0.027,5.925-0.097c0.48-0.017,0.703,0.06,0.972,0.488
		c2.563,4.079,4.853,8.291,6.623,12.785c0.671,1.705,1.704,3.237,2.766,4.757c-1.354,0.17-3.37-0.497-4.779-1.571
		c-1.355-1.033-2.314-2.461-3.642-3.734c-1.788,6.928-2.238,14.183-6.585,20.171c-3.915-5.913-6.958-12.085-4.392-19.617
		c-0.107-0.022-0.215-0.045-0.322-0.067c-1.506,0.796-3.015,1.589-4.519,2.391c-1.341,0.715-2.61,1.577-4.093,2
		c-0.491,0.14-0.977,0.352-1.504,0.155L84.528,176.896z"/>
	<path style="fill:#010001;" d="M115.125,37.676c-2.348-0.887-4.627-1.93-6.883-3.023c-1.806-0.875-3.57-1.838-5.38-2.705
		c-2.293-1.098-4.651-1.135-6.916,0.005c-3.863,1.943-7.75,3.831-11.955,5.627c5.036-10.26,10.365-20.159,15.652-30.078
		c0.364,0.092,0.394,0.36,0.494,0.553c4.856,9.49,9.807,18.931,14.513,28.498c0.179,0.364,0.464,0.697,0.452,1.14L115.125,37.676z"
		/>
	<path style="fill:#FEFEFE;" d="M37.195,137.798c-0.815,0.367-1.659,0.684-2.271,1.387c-0.814,0.935-1.147,2.005-0.678,3.171
		c0.468,1.165,1.529,1.697,2.677,1.905c0.72,0.13,1.247-0.534,1.759-0.948c0.708-0.574,1.101-0.463,1.415,0.335
		c0.384,0.977,1.116,1.384,2.137,1.657c4.168,1.116,6.118,5.381,4.629,9.915c-1.259,3.833-5.046,6.343-9.075,6.015
		c-4.272-0.348-7.616-3.311-8.318-7.301c-0.149-0.844,0.053-1.128,0.906-1.035c0.582,0.064,1.179,0.045,1.765,0.005
		c1.099-0.075,1.845-0.05,2.309,1.379c0.691,2.132,3.91,2.834,6.183,1.673c2.392-1.222,2.519-3.627,1.634-5.62
		c-0.552-1.243-1.851-1.491-2.978-0.718c-1.601,1.098-1.611,1.105-2.645-0.552c-0.238-0.381-0.515-0.589-0.959-0.693
		c-0.669-0.157-1.337-0.361-1.97-0.629c-3.688-1.56-5.07-4.451-4.006-8.321c0.431-1.57,1.204-2.936,2.396-4.055
		C33.801,136.179,35.498,136.989,37.195,137.798z"/>
	<path style="fill:#FEFEFE;" d="M155.282,140.269c-0.1,0.789-0.241,1.575,0.181,2.332c0.837,1.503,2.548,1.936,3.968,0.988
		c1.241-0.828,1.262-0.84,2.016,0.474c0.343,0.597,0.734,0.947,1.461,1.123c4.506,1.095,6.602,5.289,5.068,10.004
		c-1.253,3.85-5.01,6.36-9.055,6.048c-4.302-0.332-7.709-3.367-8.353-7.39c-0.116-0.724,0.013-1.03,0.8-0.947
		c0.549,0.058,1.108,0.011,1.663,0.011c1.123-0.001,2.069-0.216,2.577,1.453c0.635,2.088,3.904,2.742,6.124,1.596
		c2.252-1.162,2.574-3.283,1.691-5.525c-0.517-1.312-1.867-1.611-3.022-0.819c-1.603,1.099-1.613,1.106-2.648-0.551
		c-0.238-0.381-0.519-0.58-0.96-0.689c-3.886-0.962-6.146-3.122-6.298-5.977c-0.213-3.993,1.995-7.455,5.625-8.812
		c0.192-0.072,0.394-0.118,0.592-0.176c-0.861,2.033-1.727,4.065-2.58,6.102c-0.13,0.311-0.368,0.594-0.313,0.968
		c-0.037,0.033-0.073,0.066-0.11,0.099c0.027,0.005,0.054,0.011,0.08,0.016c0.003-0.043,0.006-0.087,0.009-0.13
		C154.332,140.706,154.753,140.086,155.282,140.269z"/>
	<path style="fill:#010001;" d="M88.362,159.213c-2.044,3.617-4.863,6.049-8.769,7.16c-5.503,1.565-11.516-0.225-14.655-4.361
		c-0.484-0.638-0.858-1.337-1.233-2.041c-0.355-0.666-0.147-0.804,0.537-0.799c3.329,0.024,6.658-0.012,9.986,0.018
		c2.461,0.023,4.732-0.542,6.769-1.956c0.214-0.148,0.391-0.389,0.723-0.162C83.678,158.411,85.89,159.02,88.362,159.213z"/>
	<path style="fill:#010001;" d="M110.704,159.182c1.604,0,3.05,0.001,4.496,0c6.546-0.007,13.093,0.002,19.639-0.04
		c0.898-0.006,0.699,0.336,0.458,0.837c-1.94,4.023-5.191,6.211-9.575,6.693c-2.354,0.259-4.704,0.055-6.993-0.616
		C115.106,164.995,112.494,162.737,110.704,159.182z"/>
	<path style="fill:#FEFEFE;" d="M166.073,135.805c1.328,1.269,2.019,2.85,2.289,4.643c0.092,0.612,0.003,0.987-0.766,0.89
		c-0.545-0.069-1.105-0.017-1.658-0.013c-1.117,0.008-2.259,0.284-2.535-1.445c-0.154-0.961-1.257-1.39-2.094-1.873
		C162.897,137.274,164.485,136.539,166.073,135.805z"/>
	<path style="fill:#FEFEFE;" d="M42.703,134.212c2.373,0.85,4.691,4.217,4.577,6.618c-0.016,0.328-0.054,0.506-0.44,0.501
		c-1.21-0.017-2.42-0.013-3.63-0.002c-0.326,0.003-0.467-0.082-0.527-0.444c-0.072-0.432-0.284-0.842-0.436-1.261
		c0.946,0.306,1.891,0.611,3.004,0.971C44.579,138.296,43.355,136.363,42.703,134.212z"/>
	<path style="fill:#010001;" d="M88.793,127.532c-1.42,0-2.841-0.028-4.26,0.013c-0.616,0.018-1.056-0.145-1.397-0.67
		c-0.376-0.58-0.819-1.117-1.203-1.692c-0.136-0.204-0.475-0.408-0.251-0.698c0.17-0.222,0.494-0.243,0.772-0.223
		c0.237,0.017,0.496,0.037,0.701,0.142c1.902,0.972,3.794,1.963,5.689,2.949C88.828,127.412,88.81,127.472,88.793,127.532z"/>
	<path style="fill:#FEFEFE;" d="M42.546,134.044c0.09,0.038,0.253,0.011,0.176,0.198C42.663,134.176,42.605,134.11,42.546,134.044z"
		/>
	<path style="fill:#FEFEFE;" d="M155.406,140.098c-0.049,0.063-0.099,0.125-0.148,0.188
		C155.307,140.223,155.356,140.16,155.406,140.098z"/>
	<path style="fill:#FEFEFE;" d="M85.158,167.954c0.011-0.049,0.022-0.098,0.033-0.148c0.028,0.012,0.056,0.025,0.084,0.037
		c-0.045,0.032-0.09,0.064-0.135,0.095C85.14,167.939,85.158,167.954,85.158,167.954z"/>
	<path style="fill:#010001;" d="M84.505,176.88c-0.002,0.044-0.005,0.089-0.007,0.133c-0.028-0.005-0.056-0.01-0.084-0.015
		c0.038-0.034,0.076-0.068,0.114-0.102C84.528,176.896,84.505,176.88,84.505,176.88z"/>
	<path style="fill:#010001;" d="M115.102,37.693c0.044,0.036,0.088,0.072,0.132,0.107c-0.031,0.008-0.061,0.016-0.092,0.024
		c-0.006-0.049-0.012-0.099-0.018-0.148C115.125,37.676,115.102,37.693,115.102,37.693z"/>
	<path style="fill:#840FFC;" d="M75.308,61.079c2.001-3.662,3.539-7.339,6.007-10.492c2.593-3.313,6.111-5.387,9.795-7.203
		c2.171-1.07,4.431-1.956,6.622-2.987c0.7-0.329,0.886-0.041,1.104,0.525c1.26,3.28,1.31,6.55-0.022,9.822
		c-0.696,1.709-0.567,2.106,1.053,2.986c3.161,1.717,5.999,3.858,8.502,6.438c0.227,0.234,0.549,0.409,0.63,0.843
		c-1.13-0.223-2.117-0.724-3.127-1.147c-1.85-0.777-3.689-1.581-5.524-2.392c-1.103-0.487-2.159-0.489-3.312-0.055
		c-5.095,1.918-9.79,4.54-14.114,7.837c-1.524,1.162-2.627,2.671-3.4,4.398c-2.049,4.578-4.101,9.156-6.052,13.776
		c-1.482,3.509-1.099,7.021,0.591,10.347c2.535,4.989,5.617,9.628,9.316,13.844c0.277,0.316,0.757,0.578,0.433,1.186
		c-1.532-0.857-2.819-2.01-4.026-3.245c-3.28-3.358-6.085-7.107-8.789-10.926c-2.019-2.852-2.289-6.034-1.298-9.331
		c1.819-6.048,4.431-11.78,7.043-17.51c1.105-2.423,2.344-4.79,3.095-7.359c0.186-0.638,0.713-1.504,0.063-1.915
		c-0.628-0.397-1.318,0.32-1.895,0.744C77.19,59.859,76.523,60.678,75.308,61.079z"/>
	<path style="fill:#840FFC;" d="M108.938,112.253c2.671-3.095,5.552-6.008,7.956-9.332c2.565-3.548,4.749-7.314,6.637-11.26
		c1.118-2.337,0.95-4.768,0.64-7.234c-0.683-5.435-1.807-10.785-2.995-16.125c-0.037-0.166-0.038-0.34-0.061-0.568
		c0.391,0.098,0.474,0.418,0.603,0.651c3.331,5.999,5.887,12.285,7.03,19.092c0.218,1.301,0.109,2.516-0.455,3.74
		c-2.593,5.627-6.453,10.318-10.776,14.663c-2.254,2.265-4.691,4.32-7.414,6.014c-0.319,0.199-0.669,0.349-1.005,0.522
		C109.045,112.361,108.991,112.307,108.938,112.253z"/>
	<path style="fill:#840FFC;" d="M112.97,71.517c-3.19-0.839-5.727,0.397-8.119,2.261c-0.703,0.548-1.516,0.964-2.305,1.393
		c-1.451,0.789-1.882,0.728-3.163-0.346c-0.264-0.221-0.526-0.446-0.789-0.668c-1.528,1.774-2.532,1.923-4.492,0.686
		c-0.585-0.369-1.196-0.705-1.745-1.123c-2.721-2.072-5.607-3.317-9.277-1.698c0.466-1.403,0.988-2.404,2.182-2.834
		c1.96-0.707,3.88-0.504,5.731,0.419c1.311,0.654,2.44,1.568,3.556,2.504c1.167,0.979,1.648,0.962,2.804,0.01
		c0.981-0.807,1.565-0.794,2.544,0.058c1.001,0.87,1.591,0.895,2.662,0.083c0.854-0.647,1.738-1.264,2.531-1.982
		c0.759-0.687,0.759-1.327,0.04-2.06c-0.554-0.565-1.2-1.041-1.818-1.542c-0.443-0.359-0.868-0.712-0.621-1.495
		C106.36,66.911,109.698,69.119,112.97,71.517z"/>
	<path style="fill:#840FFC;" d="M122.603,118.146c3.77-5.301,7.603-10.435,11.097-15.806c0.866-1.331,1.518-2.711,1.405-4.358
		c-0.073-1.067-0.561-1.971-1.115-2.879c2.137-0.269,3.897,0.987,4.411,3.088c0.654,2.673-0.187,4.985-1.761,7.103
		c-2.513,3.382-5.422,6.389-8.695,9.04c-1.426,1.155-2.892,2.261-4.354,3.37C123.336,117.895,123.122,118.22,122.603,118.146z"/>
	<path style="fill:#840FFC;" d="M88.252,96.124c0.023-1.047-0.327-2.023-0.675-2.983c-0.975-2.695-2.689-4.822-5.117-6.347
		c-1.007-0.632-1.477-1.487-1.413-2.709c1.459,0.487,2.852,1.003,4.276,1.414c1.4,0.404,2.841,0.589,4.448,0.347
		c-0.367,0.674-0.661,1.247-0.985,1.802c-0.894,1.529-0.689,3.058,0.009,4.573c0.365,0.793,1.059,0.848,1.609,0.161
		c0.294-0.368,0.531-0.795,1.117-0.968c-0.425,6.04,1.206,11.396,5.068,16.138c-0.788-0.058-1.347-0.401-1.867-0.78
		c-3.249-2.371-5.74-5.384-7.546-8.971c-0.047-0.093-0.099-0.185-0.127-0.283c-0.156-0.551-0.638-1.191-0.265-1.649
		C87.167,95.395,87.666,96.221,88.252,96.124z"/>
	<path style="fill:#840FFC;" d="M123.147,61.92c-4.129-1.843-6.578-6.408-7.988-13.309C117.353,49.675,122.699,58.583,123.147,61.92
		z"/>
	<path style="fill:#840FFC;" d="M139.666,116.136c0.659-1.092,1.323-2.18,1.975-3.276c1.851-3.111,3.094-6.404,3.03-10.123
		c1.512,2.073,2.161,4.397,2.086,6.94c-0.01,0.326-0.214,0.584-0.415,0.821c-1.829,2.149-3.907,4.021-6.262,5.579
		c-0.121,0.08-0.272,0.245-0.438,0.043L139.666,116.136z"/>
	<path style="fill:#840FFC;" d="M111.64,93.556c-0.128-3.989,1.476-7.294,4.193-10.305c0.311,1.49-0.044,2.757-0.564,3.989
		c-0.541,1.282-1.341,2.422-2.079,3.593C112.637,91.711,112.122,92.606,111.64,93.556z"/>
	<path style="fill:#FEFEFE;" d="M92.036,76.73c-1.428,0.904-2.801,0.87-4.03-0.053c-0.411-0.309-0.758-0.696-0.509-1.23
		c0.263-0.566,0.778-0.777,1.391-0.604C90.077,75.179,91.087,75.826,92.036,76.73z"/>
	<path style="fill:#FEFEFE;" d="M107.24,77.231c-0.695-0.018-1.677-0.01-1.846-0.594c-0.168-0.578,0.819-0.847,1.345-1.174
		c0.432-0.268,0.927-0.459,1.417-0.604c0.592-0.176,1.117,0.028,1.409,0.576c0.296,0.554-0.161,0.916-0.494,1.231
		C108.571,77.138,107.914,77.239,107.24,77.231z"/>
	<path style="fill:#840FFC;" d="M109.099,112.415c-0.091,0.143-0.198,0.235-0.37,0.114c0.07-0.092,0.14-0.184,0.21-0.276
		C108.991,112.307,109.045,112.361,109.099,112.415z"/>
	<path style="fill:#840FFC;" d="M139.641,116.121c0.012,0.045,0.024,0.09,0.036,0.135c-0.041-0.002-0.081-0.005-0.122-0.007
		c0.037-0.038,0.074-0.075,0.111-0.113C139.666,116.136,139.641,116.121,139.641,116.121z"/>
	<path style="fill:#FEFEFE;" d="M145.969,152.058c-0.693,0.971-1.724,1.198-2.811,1.335c-0.517,0.065-0.672-0.113-0.643-0.613
		c0.036-0.622,0.038-1.249,0-1.87c-0.033-0.539,0.068-0.871,0.663-1.072c0.83-0.28,1.116-0.79,0.506-1.647
		c-0.659-0.927-1.222-1.929-1.754-2.937c-0.613-1.161-1.595-0.499-2.385-0.477c-0.65,0.018-0.289,0.726-0.315,1.113
		c-0.057,0.828-0.007,1.662-0.018,2.494c-0.008,0.663,0.278,1.229,0.875,1.394c0.792,0.218,0.921,0.678,0.823,1.358
		c-0.015,0.102,0.013,0.21-0.005,0.311c-0.112,0.646,0.358,1.661-0.24,1.873c-0.845,0.3-1.836-0.099-2.632-0.65
		c-0.22-0.152-0.373-0.401-0.566-0.616c-0.692,1.054-1.805,1.231-2.953,1.346c-0.359,0.036-0.491-0.084-0.482-0.448
		c0.018-0.797,0.034-1.595-0.006-2.39c-0.021-0.411,0.181-0.53,0.506-0.626c0.945-0.28,1.308-0.949,1.236-1.898
		c-0.01-0.138-0.01-0.278,0-0.416c0.123-1.705,0.172-3.381-2.041-4.29c2.151-1.05,2.085-2.733,2.035-4.463
		c-0.032-1.118-0.097-2.108-1.447-2.366c-0.222-0.042-0.27-0.183-0.271-0.366c-0.003-0.936-0.001-1.871-0.003-2.807
		c-0.001-0.282,0.173-0.34,0.405-0.329c3.036,0.14,6.107-0.385,9.105,0.404c3.883,1.022,4.923,3.757,3.894,7.452
		c-0.296,1.063-1.059,1.801-1.987,2.297c-0.667,0.357-0.575,0.655-0.249,1.182c0.819,1.322,1.575,2.683,2.377,4.016
		c0.23,0.382,0.454,0.87,0.812,1.057c1.693,0.881,0.795,2.414,0.996,3.662c0.059,0.369-0.257,0.346-0.498,0.322
		C147.789,153.28,146.687,153.145,145.969,152.058z M139.213,138.908c0,0.658,0.017,1.317-0.006,1.975
		c-0.015,0.432,0.118,0.639,0.584,0.615c1.076-0.056,2.144-0.139,3.131-0.624c0.774-0.381,1.256-0.998,1.272-1.873
		c0.016-0.871-0.426-1.509-1.189-1.925c-0.586-0.319-1.216-0.488-1.875-0.561c-1.917-0.213-1.917-0.212-1.917,1.666
		C139.212,138.423,139.212,138.666,139.213,138.908z"/>
	<path style="fill:#FEFEFE;" d="M70.515,153.429c-1.594,0-3.189-0.025-4.782,0.013c-0.6,0.014-0.805-0.181-0.746-0.765
		c0.042-0.412,0.035-0.833,0.002-1.246c-0.054-0.689-0.012-1.222,0.846-1.45c0.548-0.145,0.826-0.719,0.835-1.324
		c0.015-1.109,0.005-2.218,0.016-3.327c0.008-0.793-0.686-1.085-1.129-1.525c-0.444-0.44-0.538-0.724,0.004-1.125
		c1.855-1.372,1.015-3.31,0.991-5.054c-0.006-0.419-0.444-0.817-0.912-0.904c-0.66-0.122-0.685-0.543-0.646-1.057
		c0.065-0.855-0.366-1.968,0.164-2.5c0.531-0.532,1.646-0.172,2.499-0.152c2.836,0.067,5.671-0.115,8.513,0.102
		c0.985,0.075,2.045-0.062,3.069-0.122c0.542-0.032,0.812,0.073,0.787,0.712c-0.05,1.246-0.035,2.495-0.005,3.742
		c0.012,0.524-0.124,0.768-0.692,0.716c-0.481-0.044-0.972-0.037-1.454-0.003c-0.756,0.053-1.384,0.049-1.627-0.922
		c-0.142-0.568-0.758-0.785-1.347-0.793c-1.421-0.019-2.842,0.001-4.262-0.024c-0.475-0.008-0.579,0.203-0.574,0.625
		c0.016,1.386,0.025,2.773-0.004,4.159c-0.011,0.535,0.152,0.733,0.706,0.713c1.073-0.038,2.149,0.017,3.222-0.022
		c0.554-0.02,0.773,0.092,0.777,0.718c0.015,2.029,0.045,2.029-1.948,2.029c-0.624,0-1.25,0.035-1.871-0.01
		c-0.634-0.046-0.931,0.093-0.895,0.828c0.064,1.314,0.042,2.634,0.007,3.95c-0.014,0.542,0.148,0.721,0.699,0.705
		c1.316-0.037,2.634-0.013,3.951-0.014c0.848-0.001,1.489-0.333,1.734-1.187c0.119-0.415,0.34-0.526,0.747-0.509
		c0.727,0.031,1.456,0.032,2.183,0.001c0.502-0.021,0.559,0.202,0.511,0.63c-0.257,2.3-2.243,4.243-4.586,4.348
		c-1.591,0.072-3.187,0.014-4.781,0.014C70.515,153.412,70.515,153.421,70.515,153.429z"/>
	<path style="fill:#FEFEFE;" d="M123.067,153.429c-1.56,0-3.122-0.037-4.681,0.017c-0.666,0.023-0.853-0.191-0.783-0.816
		c0.05-0.445,0.032-0.902,0.004-1.351c-0.039-0.621-0.004-1.084,0.783-1.284c0.593-0.151,0.878-0.751,0.893-1.395
		c0.014-0.589-0.053-1.187,0.022-1.767c0.168-1.298-0.119-2.384-1.249-3.148c-0.508-0.343-0.345-0.668,0.044-0.941
		c1.915-1.343,1.079-3.288,1.085-5.034c0.001-0.355-0.317-0.792-0.685-0.851c-1.069-0.171-0.888-0.934-0.887-1.637
		c0.001-2.221,0-2.221,2.261-2.221c1.942,0,3.884,0,5.826,0c2.026,0,4.053,0.034,6.077-0.018c0.71-0.018,0.868,0.215,0.838,0.871
		c-0.051,1.142-0.067,2.291,0.004,3.431c0.049,0.777-0.25,0.962-0.943,0.879c-0.41-0.049-0.832-0.022-1.247-0.006
		c-0.691,0.025-1.325,0.122-1.554-0.858c-0.153-0.655-0.849-0.862-1.516-0.866c-1.352-0.008-2.705,0.009-4.057-0.011
		c-0.473-0.007-0.686,0.122-0.676,0.641c0.029,1.386,0.033,2.775-0.002,4.161c-0.014,0.568,0.203,0.708,0.728,0.693
		c1.144-0.031,2.289,0.008,3.433-0.018c0.442-0.01,0.573,0.121,0.6,0.579c0.125,2.166,0.143,2.144-2.022,2.175
		c-0.885,0.013-2.062-0.404-2.573,0.199c-0.434,0.513-0.166,1.651-0.144,2.511c0.023,0.89-0.399,2.07,0.188,2.584
		c0.5,0.438,1.65,0.14,2.513,0.155c0.624,0.011,1.248-0.007,1.872,0.004c0.891,0.015,1.585-0.311,1.825-1.21
		c0.125-0.469,0.385-0.492,0.754-0.484c0.555,0.012,1.12,0.073,1.662-0.012c1.1-0.172,1.098,0.377,0.912,1.187
		c-0.467,2.033-2.316,3.696-4.417,3.794c-1.626,0.076-3.258,0.015-4.888,0.015C123.068,153.409,123.068,153.419,123.067,153.429z"/>
	<path style="fill:#FEFEFE;" d="M106.446,133.002c2.946,0,5.893,0.024,8.839-0.017c0.736-0.01,1.059,0.111,0.998,0.943
		c-0.081,1.103-0.063,2.219-0.004,3.325c0.038,0.714-0.227,0.927-0.892,0.85c-0.376-0.044-0.765-0.041-1.142-0.001
		c-0.925,0.098-1.678,0.045-1.416-1.227c0.066-0.322-0.072-0.54-0.451-0.507c-0.069,0.006-0.139,0.003-0.208,0
		c-3.827-0.191-4.969,1.184-4.069,4.939c0.153,0.639,0.768,0.959,1.208,1.38c0.411,0.393,0.523,0.681,0.006,1.045
		c-1.978,1.395-1.142,3.393-1.082,5.212c0.013,0.394,0.372,0.751,0.727,0.812c1.017,0.173,1.003,0.874,0.903,1.603
		c-0.092,0.678,0.416,1.737-0.272,1.958c-0.918,0.294-2.011-0.057-2.767-0.812c-0.34-0.34-0.423-0.416-0.792-0.019
		c-0.673,0.725-1.635,0.828-2.577,0.915c-0.383,0.035-0.476-0.13-0.47-0.475c0.015-0.797,0.032-1.596-0.007-2.391
		c-0.021-0.432,0.245-0.515,0.541-0.617c0.88-0.305,1.231-0.941,1.182-1.845c-0.021-0.38-0.044-0.768,0.004-1.143
		c0.168-1.318-0.098-2.452-1.268-3.24c-0.482-0.325-0.419-0.656,0.015-0.953c1.969-1.344,1.198-3.344,1.138-5.115
		c-0.028-0.842-0.931-1.135-1.721-1.236c-0.444-0.057-0.901,0-1.35-0.022c-0.917-0.044-1.895-0.193-1.584,1.285
		c0.06,0.283-0.095,0.46-0.41,0.445c-0.069-0.003-0.139-0.003-0.208,0.002c-2.753,0.18-2.77,0.18-2.743-2.587
		c0.008-0.815-0.379-1.898,0.179-2.371c0.471-0.398,1.517-0.131,2.309-0.134C101.524,132.997,103.985,133.002,106.446,133.002z"/>
	<path style="fill:#FEFEFE;" d="M53.21,152.035c-0.703,1.081-1.819,1.25-2.967,1.367c-0.368,0.037-0.482-0.098-0.474-0.454
		c0.018-0.797,0.046-1.597-0.009-2.39c-0.035-0.505,0.297-0.548,0.608-0.658c0.785-0.278,1.166-0.823,1.128-1.659
		c-0.008-0.173-0.01-0.347,0.001-0.52c0.112-1.729,0.156-3.431-1.965-4.428c2.111-1.002,1.992-2.706,1.958-4.428
		c-0.022-1.121-0.225-1.85-1.401-2.452c-0.819-0.418-0.177-1.755-0.301-2.671c-0.032-0.236-0.157-0.57,0.192-0.724
		c0.088-0.039,0.206-0.019,0.309-0.015c2.732,0.09,5.484-0.269,8.194,0.218c2.15,0.387,4.231,1.191,4.792,3.558
		c0.872,3.684-0.283,5.7-3.069,6.935c-1.442,0.64-2.954,0.981-4.529,0.983c-0.589,0.001-0.773,0.207-0.746,0.787
		c0.046,0.968,0.02,1.94,0.015,2.91c-0.004,0.661,0.287,1.227,0.886,1.387c0.806,0.214,0.91,0.69,0.816,1.364
		c-0.009,0.068,0.009,0.14-0.003,0.207c-0.12,0.677,0.37,1.788-0.25,1.958c-0.996,0.274-2.122-0.077-2.923-0.938
		C53.378,152.273,53.303,152.156,53.21,152.035z M54.942,139.016c0,2.788,0.148,2.907,2.748,2.222
		c1.436-0.378,2.226-1.166,2.248-2.241c0.023-1.126-0.752-1.924-2.267-2.319c-0.267-0.07-0.539-0.129-0.813-0.16
		c-1.915-0.217-1.915-0.214-1.915,1.667C54.942,138.461,54.942,138.739,54.942,139.016z"/>
	<path style="fill:#FEFEFE;" d="M93.141,138.156c-0.769,0.125-1.532-0.089-2.334-0.875c-1.845-1.81-5.012-0.681-5.476,1.871
		c-0.215,1.182-0.458,2.43,0.806,3.273c0.818,0.546,0.701,1.003,0.003,1.631c-1.274,1.146-1.252,3.468-0.05,4.824
		c1.199,1.352,3.142,1.541,4.596,0.446c0.727-0.548,1.134-1.289,1.315-2.169c0.039-0.189-0.062-0.521,0.188-0.53
		c1.035-0.04,2.074-0.053,3.108,0.003c0.294,0.016,0.166,0.399,0.146,0.627c-0.316,3.601-3.403,6.274-7.107,6.155
		c-3.546-0.113-6.472-2.977-6.49-6.539c-0.007-1.339-0.203-2.439-1.365-3.213c-0.448-0.298-0.403-0.6,0.008-0.877
		c1.117-0.753,1.359-1.8,1.349-3.112c-0.024-3.391,1.937-5.798,5.045-6.442c3.737-0.774,6.509,0.541,7.972,3.781
		c0.505,1.118,0.487,1.146-0.76,1.146C93.854,138.156,93.611,138.156,93.141,138.156z"/>
	<path style="fill:#840FFC;" d="M153.796,140.467c-0.003,0.043-0.006,0.087-0.009,0.13c-0.027-0.005-0.053-0.011-0.08-0.016
		c0.037-0.033,0.073-0.066,0.11-0.099C153.817,140.482,153.796,140.467,153.796,140.467z"/>
	<path style="fill:#010001;" d="M139.213,138.908c0-0.243,0-0.485,0-0.728c0-1.878,0-1.879,1.917-1.666
		c0.659,0.073,1.289,0.243,1.875,0.561c0.763,0.416,1.206,1.054,1.189,1.925c-0.016,0.875-0.498,1.492-1.272,1.873
		c-0.986,0.485-2.055,0.568-3.131,0.624c-0.467,0.024-0.6-0.183-0.584-0.615C139.23,140.226,139.213,139.567,139.213,138.908z"/>
	<path style="fill:#010001;" d="M54.942,139.016c0-0.277,0-0.555,0-0.832c0-1.881,0-1.883,1.915-1.667
		c0.274,0.031,0.546,0.091,0.813,0.16c1.515,0.395,2.29,1.193,2.267,2.319c-0.022,1.076-0.812,1.863-2.248,2.241
		C55.089,141.923,54.942,141.804,54.942,139.016z"/>
</g>
</svg>
