<?xml version="1.0" encoding="utf-8"?>
<!-- Generator: Adobe Illustrator 24.1.0, SVG Export Plug-In . SVG Version: 6.00 Build 0)  -->
<svg version="1.1" id="Layer_1" xmlns="http://www.w3.org/2000/svg" xmlns:xlink="http://www.w3.org/1999/xlink" x="0px" y="0px"
	 viewBox="0 0 200 200" style="enable-background:new 0 0 200 200;" xml:space="preserve">
<path style="fill:#006A36;" d="M170.3,82.6c1,0.7,1.9,1.4,2.8,2c2,1.5,4,3.1,6,4.7c2.1,1.7,4,3.5,5.9,5.4c0.8,0.8,1.6,1.6,2.3,2.5
	c0.3,0.4,0.7,0.5,1.3,0.5c1.9-0.1,3.8,0.1,5.6,0.9c2.4,1,3.8,2.9,4.7,5.3c0.6,1.6,0.8,3.3,1,5c0.3,3.3,0.2,6.7,0.2,10
	c0,2.7,0,5.4,0,8.1c-0.1,3.4-0.4,6.7-1.4,10c-0.7,2.3-1.9,4.3-3.9,5.7c-1.2,0.8-2.4,1.2-3.8,1.5c-3.4,0.7-6.8,1.4-10.2,2
	c-3.2,0.6-6.4,1.2-9.6,1.9c-0.6,0.1-1.2,0.2-1.8,0.3c-0.3,0-0.5,0.1-0.4,0.5c0.1,2.7,0.1,5.4,0.2,8.2c0,1.1,0,2.2,0.1,3.3
	c0.1,1.5,0,2.9,0.1,4.4c0,0.2,0,0.4,0,0.6c-0.1,0.8-0.5,1.2-1.3,1.4s-1.6,0.3-2.4,0.5c-2.4,0.5-4.8,1-7.3,1.5
	c-3.1,0.7-6.2,1.3-9.4,2c-3.1,0.6-6.2,1.3-9.2,1.9c-3.2,0.7-6.3,1.3-9.5,2c-3.1,0.6-6.1,1.3-9.2,1.9c-3.2,0.7-6.3,1.4-9.5,2
	c-1.5,0.3-3.1,0.7-4.6,1c-3.1,0.7-6.3,1.3-9.4,2s-6.2,1.3-9.3,2c-3.1,0.7-6.2,1.3-9.4,2c-3.1,0.7-6.2,1.3-9.3,1.9
	c-1.8,0.4-3.6,0.8-5.4,1.1c-0.3,0.1-0.7,0.2-1,0.3c-1.2,0.3-1.9-0.3-2.1-1.4c-0.1-0.5-0.1-0.9-0.1-1.4c-0.1-3.5-0.1-7-0.2-10.4
	c0-1.9-0.1-3.7-0.1-5.6V170c0-0.8,0-0.8-0.7-0.6c-2.8,0.5-5.5,1.1-8.3,1.6c-1.9,0.3-3.9,0.7-5.8,1.1c-3.2,0.6-6.5,1.2-9.7,1.8
	c-1.8,0.3-3.6,0.6-5.4,1c-0.5,0.1-0.9,0-1.3-0.2c-0.6-0.3-0.8-0.9-0.8-1.5c0-0.4,0-0.8,0-1.2c0-2.3-0.1-4.6-0.1-6.9
	c-0.1-2.3-0.1-4.6-0.1-6.9c-0.1-1.9-0.1-3.8-0.1-5.6c-0.1-1.9-0.1-3.7-0.1-5.6c-0.1-4.2-0.2-8.5-0.3-12.7c0-0.6-0.1-1.2,0-1.8
	c0-0.6,0.2-1.2,0.7-1.5c0.2-0.1,0.5-0.2,0.7-0.2c1.6-0.3,3.2-0.6,4.8-1c2.6-0.5,5.3-1,7.9-1.5c1.3-0.3,2.7-0.5,4-0.8
	c0.1,0,0.3,0,0.4-0.2c-0.3-0.6-0.6-1.2-0.9-1.8c-1.2-2.3-2.3-4.7-3.4-7.1c-0.2-0.5-0.2-0.5-0.7-0.3c-1.2,0.5-2.4,0.9-3.5,1.4
	c-0.3,0.1-0.7,0.3-1.1,0.2c-1.4-0.2-1.6-1.7-1.1-2.5c0.8-1.2,1.6-2.4,2.3-3.6c0.1-0.2,0.2-0.4,0.4-0.6c-0.1-0.2-0.3,0-0.4,0
	c-2.7,0.9-5.5,1.8-8.2,2.7c-0.9,0.3-1.8,0.5-2.6,0.8c-0.3,0.1-0.6,0.1-1,0c-0.7-0.1-1.2-0.8-1.1-1.7c0.1-1.2,0.5-2.3,0.7-3.5
	c0.5-2.3,1.1-4.6,1.8-6.8c0.5-1.5,0.9-2.9,1.5-4.4c0-0.1,0.1-0.2,0.1-0.3c0.2-0.7,0.2-0.7-0.3-1.2c-2.4-2-4.5-4.3-6.2-7
	c-1.2-1.8-2.1-3.7-2.8-5.7c-0.2-0.7-0.2-0.7-0.9-0.5c-0.8,0.2-1.5,0.4-2.3,0.5c-0.6,0.1-1.1,0-1.5-0.4c-0.4-0.3-0.7-0.7-1-1
	c-0.5-0.5-0.6-1.2-0.2-1.8c0.4-0.6,0.5-1.2,0.6-1.8c0.1-0.4,0.2-0.8,0.6-1.1c0.2-0.2,0.5-0.3,0.8-0.4c0.5-0.1,0.9-0.2,1.4-0.2
	c0.1-0.2,0-0.3-0.1-0.4c-1.7-2.6-3.2-5.5-4.5-8.3c-1.4-2.8-2.7-5.7-3.9-8.7c-0.8-1.8-1.5-3.5-2.2-5.3c-1-2.4-1.9-4.8-2.8-7.3
	c-0.6-0.1-0.8-0.2-1-0.3c-0.7-0.3-1.2-0.7-1.8-1.2c-0.4-0.4-0.7-0.8-0.9-1.4C0.1,45.6,0,44.8,0,44c0-1.7,0.3-3.3,0.5-4.9
	c0.1-0.8,0.6-1.4,1.5-1.5c0.5-0.1,0.9-0.2,1.4-0.2c2.5-0.2,4.9,0.1,7.2,1.1c0.8,0.3,1.3,0.9,1.6,1.6c0.5,1,0.9,2.1,1.1,3.2
	c0.1,0.3,0.1,0.7,0,1c0,0.2-0.1,0.5-0.2,0.7c-0.3,0.8-0.2,1.6,0,2.4c0.5,1.6,1,3.2,1.6,4.8c1.1,3.2,2.3,6.3,3.5,9.5
	c1.1,2.7,2.2,5.4,3.2,8.2c0.1,0.1,0.1,0.3,0.2,0.4c0.1,0.2,0.2,0.3,0.4,0.2c2.6-1.3,5.3-1.8,8.1-2.4c0.4-0.1,0.8,0,1-0.3
	s0.1-0.7,0.1-1.1c0-2.2,0-4.4,0-6.6c0-0.8,0.2-1.5,0.9-2.1c2.2-2,4.4-4,6.6-5.9c2.4-2.2,4.9-4.3,7.4-6.4c2.6-2.2,5.3-4.3,8-6.4
	c2-1.5,4.1-3,6.2-4.5c2.3-1.5,4.5-3,6.9-4.3c0.3-0.2,0.3-0.4,0.3-0.6c0-1.9,0-3.9,0-5.8c0-0.2,0-0.5,0.1-0.7
	c0.1-1.2,1.7-1.6,2.6-0.9c0.7,0.6,1.3,1.2,2,1.8c0.8,0.7,1.6,1.4,2.3,2.1c0.3,0.3,0.5,0.3,0.9,0.1c2-1,4.1-1.8,6.2-2.7
	c1.3-0.6,2.6-1.1,4-1.6c0.3-0.1,0.5-0.3,0.5-0.6c0.3-1.9,0.6-3.8,0.9-5.6c0.1-0.3,0.1-0.7,0.3-1c0.4-0.5,0.9-0.7,1.5-0.7
	c0.5,0,1.1,0.1,1.5,0.5c1.5,1.3,3,2.7,4.5,4c0.1,0.1,0.2,0.2,0.3,0.3c0.2,0.2,0.4,0.2,0.7,0.1c1.9-0.5,3.8-0.9,5.7-1.3
	c2.5-0.5,5-0.9,7.5-1.2c2.4-0.3,4.7-0.5,7.1-0.7c2.3-0.2,4.7-0.2,7.1-0.2c1.3,0,2.7,0,4,0.1c1.9,0.1,3.9,0.2,5.8,0.4
	c1.7,0.2,3.4,0.3,5.1,0.6c1.4,0.2,2.7,0.4,4.1,0.6c4.3,0.7,8.5,1.7,12.7,2.8c3.7,1,7.4,2.2,11,3.7c0.5,0.2,1,0.5,1.5,0.6
	c0.9,0.3,1.3,1,1.3,1.9c0.1,1.7,0.1,3.5,0.2,5.2c0.1,3.9,0.1,7.8,0.1,11.7c0,2.6-0.1,5.2-0.3,7.9c-0.1,1.8-0.2,3.6-0.3,5.3
	c-0.1,1.5-0.3,3.1-0.5,4.6c-0.2,1.7-0.4,3.3-0.7,5c-0.1,0.3-0.1,0.6-0.2,0.8c-0.1,0.4,0,0.5,0.3,0.7c1.8,1.1,3.5,2.4,5.1,3.7
	c2,1.6,3.9,3.2,5.9,4.9c0.4,0.3,0.8,0.7,1,1.2c0.2,0.7-0.3,1.7-1,1.9c-2.2,0.7-4.3,1.6-6.4,2.5C171.2,82.2,170.8,82.4,170.3,82.6z"
	/>
<path d="M36.8,118c0-0.3,0.2-0.4,0.3-0.6c1-1.6,2.1-3.2,3.1-4.9c0.2-0.3,0.3-0.7,0.1-1c0-0.1,0-0.1-0.1-0.2
	c-0.2-0.7-0.2-0.7-0.9-0.5c-2.5,0.8-5.1,1.6-7.6,2.4c-1.7,0.5-3.4,1.1-5.1,1.6c-0.1,0-0.2,0-0.3,0.1c0-0.6,0.1-1.1,0.2-1.6
	c0.8-3.9,1.8-7.6,3.1-11.3c0.4-1,0.8-2.1,1.2-3.1c0.1-0.3,0.1-0.5-0.2-0.7c-1.2-0.9-2.3-1.9-3.3-2.9c-3.3-3.4-5.7-7.3-6.8-12
	c0-0.1-0.1-0.2-0.2-0.4c-1.2,0.8-2.6,1.1-3.9,1.4c-0.2,0-0.4,0-0.6-0.2c-0.1-0.1-0.2-0.2-0.3-0.3c-0.4-0.4-0.4-0.4-0.2-1
	c0.2-0.5,0.3-0.9,0.4-1.4c0-0.4,0.3-0.6,0.7-0.7c0.6-0.1,1.1,0,1.7,0.2c0.5,0.1,1.1,0.3,1.6,0.6c0.1,0.1,0.2,0.2,0.4,0.1
	c0-0.7-0.2-1.3-0.6-1.9c-1.1-1.4-2-3-2.9-4.5c-0.8-1.4-1.6-2.8-2.3-4.3c-1.5-3.1-2.9-6.2-4.3-9.3c-1.4-3.3-2.7-6.6-4-9.9
	c-0.5-1.2-0.9-2.4-1.4-3.6c-0.1-0.3-0.2-0.4-0.5-0.5c-0.6-0.1-1-0.5-1.5-0.8c-0.6-0.4-0.9-1.1-1-1.8c-0.2-1.4,0-2.8,0.2-4.3
	C1.9,40.4,1.9,40,2,39.6c0-0.3,0.1-0.5,0.4-0.5c2.3-0.2,4.6-0.2,6.9,0.6c0.8,0.3,1.4,0.8,1.6,1.6c0.1,0.3,0.2,0.6,0.3,0.9
	c0.6,1.2,0.5,2.4,0,3.6c-0.1,0.3-0.1,0.5,0,0.8c0.6,2.2,1.3,4.3,2,6.4c1.2,3.4,2.5,6.7,3.8,10c1.2,3.1,2.4,6.2,3.7,9.2
	c0.1,0.3,0.2,0.5,0.4,0.8c1.9-1.6,4.3-2.2,6.6-2.8c1.4-0.4,2.9-0.7,4.4-0.9c0.1,0,0.3-0.1,0.4-0.1c0.2,0,0.2-0.1,0.2-0.3
	c0-0.2,0-0.3,0-0.5c0-2.7,0-5.5,0-8.2c0-0.4,0.1-0.7,0.4-1c1.8-1.7,3.7-3.4,5.5-5c1.2-1.1,2.4-2.1,3.6-3.2c1.5-1.3,3-2.5,4.5-3.8
	c1.9-1.7,4-3.2,6-4.8c2-1.5,4-3,6-4.5c2.5-1.8,5-3.5,7.6-5c0.7-0.4,1.5-0.9,2.3-1.2c0.4-0.2,0.5-0.4,0.5-0.9c0-2.1,0-4.1,0-6.2
	c0-0.2,0-0.4,0-0.7c0.2-0.1,0.2,0,0.3,0.1c1,0.9,2,1.9,3,2.8c0.6,0.5,1.1,1.1,1.7,1.6c0.4,0.3,0.4,0.3,0.8,0.1
	c1.2-0.7,2.5-1.2,3.8-1.7c2.7-1.1,5.3-2.2,8-3.3c0.3-0.1,0.5-0.3,0.5-0.7c0.1-0.9,0.3-1.9,0.4-2.8c0.2-1.2,0.3-2.3,0.5-3.5
	c0.1-0.6,0.4-0.7,0.8-0.3c1.3,1.2,2.6,2.4,3.9,3.5c0.4,0.4,0.9,0.8,1.3,1.2C94.7,21,95,21,95.3,21c2.2-0.6,4.5-1.1,6.7-1.6
	c1.9-0.4,3.7-0.7,5.6-0.9c1.6-0.2,3.1-0.4,4.7-0.6c0.7-0.1,1.4-0.1,2.1-0.2c1.8-0.2,3.6-0.2,5.4-0.3c1.6-0.1,3.3-0.1,4.9,0
	c1.1,0,2.2,0,3.4,0.1c1.7,0.1,3.4,0.2,5.1,0.4c2.2,0.2,4.3,0.5,6.5,0.8c4.5,0.7,8.9,1.6,13.3,2.8c4.3,1.1,8.5,2.5,12.6,4.2
	c0.3,0.1,0.5,0.3,0.8,0.4c0.4,0.1,0.6,0.4,0.5,0.8c0,0.2,0,0.4,0,0.6c0.2,6.1,0.2,12.1,0.1,18.2c0,1.3-0.1,2.6-0.1,3.9
	c-0.1,1.3-0.1,2.7-0.2,4c-0.1,1.7-0.3,3.5-0.4,5.2c-0.2,2.3-0.5,4.7-0.9,7c-0.1,0.7-0.3,1.4-0.4,2.1c-0.1,0.3,0,0.4,0.3,0.6
	c2.5,1.5,4.9,3.3,7.2,5.2c1.7,1.3,3.3,2.7,4.9,4.1c0.1,0.1,0.1,0.1,0.2,0.2c-3.5,1.3-6.9,2.7-10.4,4.2c0.4,0.4,0.8,0.6,1.2,0.9
	c2.9,2,5.8,4.2,8.5,6.4c1.4,1.1,2.7,2.3,4.1,3.5c1.4,1.3,2.7,2.6,4,3.9c0.7,0.7,1.3,1.4,1.9,2.1c0.3,0.3,0.5,0.4,0.9,0.3
	c2.1-0.2,4.2-0.1,6.2,0.9c1.3,0.6,2.2,1.6,2.9,2.8c0.6,1.2,1,2.4,1.2,3.7c0.2,1.2,0.3,2.4,0.4,3.6c0.2,3.6,0.1,7.2,0.1,10.8
	c0,0.8-0.1,1.6-0.1,2.4c0,0.5,0.1,1,0.1,1.5c0,1.3,0,2.6-0.1,3.9c-0.2,2.8-0.5,5.5-1.4,8.2c-0.5,1.3-1.1,2.5-2,3.5
	c-1.1,1.1-2.4,1.8-3.8,2.1c-2.4,0.5-4.8,1-7.1,1.5c-3.3,0.6-6.6,1.3-9.9,1.9c-2.1,0.4-4.2,0.8-6.3,1.2c-0.4,0.1-0.5,0.1-0.5,0.6
	c0,1.4,0,2.7,0.1,4.1c0.1,1.5,0,3,0.1,4.5c0.1,2.2,0.1,4.3,0.1,6.5c0,0.6,0.1,1.2,0.1,1.8c0,0.3-0.1,0.5-0.4,0.5
	c-1.7,0.3-3.4,0.7-5,1.1c-2.3,0.5-4.5,0.9-6.8,1.4c-3.5,0.7-7,1.5-10.4,2.2c-3,0.6-5.9,1.3-8.9,1.9c-3.3,0.7-6.6,1.4-9.8,2.1
	c-3.2,0.7-6.4,1.4-9.6,2c-3.8,0.8-7.6,1.6-11.4,2.4c-3.6,0.8-7.1,1.5-10.7,2.3s-7.3,1.5-10.9,2.3c-3.4,0.7-6.7,1.4-10.1,2.1
	c-3.6,0.8-7.2,1.5-10.8,2.3c-0.1,0-0.2,0-0.3,0c-0.1-0.1-0.1-0.2-0.1-0.3c-0.1-2.7-0.1-5.5-0.2-8.2c-0.1-2.1,0-4.3-0.1-6.4
	c-0.1-1.5,0-3-0.1-4.5c0-0.1,0-0.2,0-0.2c0-0.3-0.1-0.4-0.4-0.3c-0.8,0.2-1.7,0.3-2.5,0.5c-2.3,0.4-4.7,0.9-7,1.3
	c-2.5,0.5-5.1,1-7.6,1.5c-2.2,0.4-4.5,0.8-6.7,1.3c-2.3,0.4-4.7,0.9-7,1.3c-0.2,0-0.4,0-0.6,0.1c0-0.6-0.1-1.2-0.1-1.8
	c0-1.3,0-2.6,0-3.9c-0.1-2.3,0-4.5-0.1-6.8c-0.1-2,0-3.9-0.1-5.9s0-4-0.1-6c-0.1-1.9,0-3.9-0.1-5.8c-0.1-1.9,0-3.7-0.1-5.6
	c-0.1-1.6-0.1-3.3-0.1-4.9c0-0.5,0-0.5,0.4-0.6c2.5-0.5,5-1,7.5-1.5c2.9-0.6,5.7-1.1,8.6-1.7c0.7-0.1,1.5-0.3,2.2-0.4
	c0.2,0,0.4-0.1,0.7-0.2c-0.3-0.5-0.5-0.9-0.8-1.3c-1.2-2-2.2-4.1-3.2-6.2c-0.7-1.5-1.3-2.9-2-4.4c-0.2-0.5-0.2-0.5-0.8-0.3
	c-1.4,0.6-2.9,1.1-4.3,1.7C37.3,117.9,37.1,118,36.8,118z"/>
<path style="fill:#717276;" d="M90.1,45.4c0.1-2.4,0.2-4.8,0.3-7.2c0.1-2.3,0.2-4.6,0.4-6.9c0.2-2.6,0.3-5.2,0.5-7.8
	c0-0.1,0-0.1,0-0.2c0.1-0.1,0.2,0,0.2,0c2,1.7,4.1,3.3,6.1,5c2.8,2.4,5.4,5,7.9,7.7c2.6,2.8,4.9,5.8,7.3,8.8
	c2.1,2.5,4.3,4.9,6.8,6.9c1.1,0.9,2.3,1.7,3.7,2.3c0.4,0.1,0.7,0.3,1.3,0.3c-1.2-1.4-2.2-2.7-3.4-4.1c0.6,0,1,0.1,1.5,0.1
	c1.3,0.2,2.6,0.4,3.9,0.6c0.1,0,0.1,0.1,0.2,0.1c-0.1,0.1-0.1,0.1-0.2,0.1c0,0.1,0.1,0,0.1,0c2.1,0.5,4.1,1.4,6.2,2.1
	c2.3,0.8,4.6,1.6,6.8,2.6c0.3,0.1,0.6,0.2,0.8,0.4c0.5,0.3,0.6,0.6,0,0.9c-0.5,0.3-1,0.5-1.6,0.7c-2.3,1-4.7,1.9-7.1,2.7
	c-0.3,0.1-0.5,0.1-0.8,0.2c-0.1,0,0,0.1,0,0c0,0,0,0,0.1,0s0.1,0,0.2,0.1c-0.7,0.2-1.4,0.2-2,0.3c-0.3,0.1-0.7,0.1-1,0.2
	c-0.1,0.2,0,0.2,0.1,0.3c2.8,2.7,5.9,4.8,9.6,6c2.1,0.7,4.2,0.9,6.4,0.8c0.2,0,0.3,0,0.5-0.2c-2.9-1.2-5.6-2.7-8.3-4.6
	c0.8-0.1,1.6-0.3,2.3-0.4c1.4-0.3,2.8-0.6,4.2-1c0.3-0.1,0.5-0.1,0.8,0c3.3,1.2,6.5,2.7,9.5,4.5c0.4,0.2,0.9,0.4,1.2,0.7
	c2,1.4,3.9,2.9,5.8,4.4c1.1,0.9,2.1,1.8,3.1,2.8c0.5,0.5,0.5,0.8-0.2,1.1c-1.8,0.9-3.7,1.5-5.6,1.9c-3.6,0.9-7.3,1.4-11,1.7
	c-1.7,0.2-3.4,0.3-5.1,0.3c-1.2-0.1-2.4-0.1-3.5-0.1c-0.1,0.1,0,0.2,0.1,0.3c3.6,3.1,7.1,6.2,10.7,9.3c1.3,1.1,2.5,2.2,3.8,3.3
	c0.2,0.2,0.5,0.4,0.7,0.7c-0.2,0.2-0.4,0.1-0.6,0c-3.7-1.5-7.5-2.3-11.3-3c-3.9-0.8-7.9-1.2-11.9-1.7c-0.1,0-0.2,0-0.2,0
	c-0.2,0-0.4,0-0.4-0.2s0.1-0.3,0.3-0.4c0.2-0.2,0.4-0.3,0.6-0.4c1.7-1.1,3.1-2.4,4.3-4c0.1-0.2,0.3-0.3,0.2-0.5s-0.3-0.2-0.5-0.2
	c-2.4-0.1-4.8-0.3-7.2-0.4c-2.6-0.1-5.2-0.1-7.9,0c-0.1,0-0.2,0-0.3-0.1c1.5-2.1,2.9-4.3,4.3-6.6c-2.6-0.4-5.2-0.3-7.7-0.4
	c4.7-3.8,8.9-7.9,12.5-12.8c-0.4-0.2-0.7-0.2-1.1-0.3c-2.6-0.5-5.3-0.4-7.9,0c-2.4,0.4-4.7,1.1-7,2c-0.1,0-0.2,0.1-0.3,0.2
	c1.1,0,2.2,0,3.2,0.1c1.1,0,2.1,0.1,3.2,0.2s2.1,0.2,3.3,0.3c-0.1,0.4-0.4,0.6-0.6,0.8c-1.4,1.4-2.9,2.8-4.3,4.1
	c-1.8,1.6-3.7,3.2-5.6,4.7c-0.7,0.5-1.4,1.1-2.2,1.5c-0.2,0.1-0.4,0.3-0.7,0.2c-1.9,0.2-3.8,0.2-5.7,0.2c-3.1-0.1-6.2-0.2-9.3-0.4
	c-3-0.3-5.9-0.6-8.9-1c-0.8-0.1-0.8-0.1-0.7,0.7c0.1,0.9,0.1,1.8,0.1,2.8c0.1,3.5,0.3,7,0.1,10.5c-0.1,1.5,0,3.1-0.2,4.6
	c-0.1,0.7-0.2,0.9-0.9,0.5c-1.7-1-3.4-2.1-5.1-3c-8-4.5-16.3-8.6-25-11.5c-0.3-0.1-0.7-0.2-1-0.3c-0.5-0.1-0.6-0.1-0.5,0.4
	c0.2,0.8,0.4,1.6,0.5,2.3c0.1,0.9-0.1,1.1-0.9,0.9c-2.6-0.5-5.3-0.8-8-1c-3.1-0.2-6.1,0-9.2,0.4c-0.3,0-0.5,0.1-0.8,0
	c0-0.2-0.1-0.4-0.2-0.6c-1.1-1.8-3.7-2-5-0.3c-0.5,0.6-0.9,1.3-1.2,2.1c-0.1,0.2-0.1,0.4-0.3,0.6c-0.1-0.5-0.3-0.9-0.4-1.3
	c-0.1-1,0-2,0.3-3c0.4-1.3,1.2-2.1,2.4-2.5c1.3-0.4,2.7-0.8,4-1.2c5.3-1.4,10.6-2.7,16.1-3.5c0.7-0.1,1.5-0.2,2.3-0.3
	c1.4-0.2,2.6,0.3,3.7,1.1c1.5,1,2.9,2.1,4.2,3.4c0,0,0.1,0.1,0.2,0.1c2.7,3.2,6.1,5.6,9.8,7.4c0.1,0,0.2,0.1,0.2,0.1l0.1,0.1h0.1
	c0.2,0.1,0.5,0.1,0.7,0.3c-0.1-0.2-0.4-0.2-0.5-0.4l0,0l-0.1-0.1c-1.7-1.2-3.3-2.5-4.7-4.1c-1.3-1.5-2.5-3.1-3.3-4.9
	c-0.1-0.2-0.2-0.4-0.2-0.7c0.5,0.2,0.9,0.4,1.3,0.5c0.8,0.3,1.6,0.5,2.5,0.6c1.9,0.1,3.4-0.5,4.8-1.8c1.1-1,2-2.2,2.9-3.3
	c0.9-1.3,1.9-2.6,3-3.7s2.4-2,3.9-2.3c0.1,0,0.1,0,0.2,0c0.6-0.1,0.8,0,1,0.7s0,1.3-0.1,1.9c0,0.2-0.1,0.3,0,0.5
	c0.1,0,0.2,0,0.2-0.1c0.9-0.9,1.7-1.9,2.3-3c0.2-0.3,0.3-0.6,0.3-0.9c0-0.5-0.1-0.8-0.5-1C81.2,62,80.1,62,79,62
	c-3.6,0.2-7,1.2-10.2,2.6c-2.6,1.1-5.1,2.4-7.6,3.6c-0.8,0.4-1.6,0.7-2.4,1c-0.8,0.3-1.5,0.2-2.1-0.4c-0.7-0.7-1.2-1.5-1-2.5
	c0-0.2,0.2-0.4,0.1-0.6c0.5-1.2,1.2-2.3,2.1-3.3c1.6-2,3.7-3.4,5.9-4.7c3.7-2.1,7.6-3.5,11.7-4.6c3.5-1,7-1.7,10.6-2.3
	c0.5-0.1,1-0.1,1.5-0.3c2.6,0.1,5.1,0.4,7.7,0.8c1,0.2,2.1,0.4,3,0.8c1,0.5,1,1,0.2,1.7c-0.7,0.6-1.6,1-2.4,1.3
	c-1.3,0.5-2.5,1-3.8,1.4c2.1,0,4.3,0.1,6.5,0c3.6-0.1,7.3-0.3,10.9-1.1c0.5-0.1,1-0.3,1.5-0.5c0.7-0.3,0.8-0.3,0.3-1
	c-1.2-1.7-2.4-3.3-3.5-4.9c-3.1-4.3-6.3-8.6-9.6-12.8c-1-1.3-2.1-2.6-3.3-3.8c-0.6-0.6-1-0.5-1.3,0.3c-0.5,1.3-0.8,2.6-1,4
	c-0.5,2.6-1,5.1-1.7,7.7C90.5,44.7,90.6,45.2,90.1,45.4z"/>
<path style="fill:#FFFFFF;" d="M32,82.4c0.8-0.2,1.7-0.3,2.5-0.4c2-0.2,4-0.3,6-0.2c3.3,0.1,6.5,0.4,9.7,1.1
	c0.5,0.1,0.6,0.1,0.6-0.5c-0.1-1-0.3-2-0.6-2.9c0-0.2-0.1-0.3-0.1-0.5c0.4,0.1,0.7,0.2,1,0.3c4.6,1.4,9.1,3.3,13.4,5.3
	c6.1,2.8,12,6,17.7,9.5c0.1,0.1,0.3,0.2,0.5,0.2c0-0.5,0.1-1,0.1-1.5c0.1-3.7,0.2-7.3,0.1-11c-0.1-1.6-0.1-3.2-0.2-4.9
	c0-0.5-0.1-1-0.1-1.5s0-0.5,0.4-0.4c1.2,0.2,2.3,0.3,3.5,0.5c1.7,0.2,3.4,0.4,5.1,0.6c4,0.3,8,0.5,12,0.5c1.1,0,2.1-0.1,3.2-0.1
	c0.2,0,0.4-0.1,0.6,0.1c-1.2,0.3-2.3,0.8-3.4,1.4c-2.5,1.3-4.8,3-6.9,4.8c0,0.1-0.1,0.1-0.1,0.2c-0.1,0-0.1,0,0,0s0,0,0.1,0
	s0.2,0,0.3,0c2-0.6,4-1.2,6-1.7c3.7-0.9,7.4-1.6,11.3-1.9c0.6,0,1.3,0,1.9,0c0,0.2-0.2,0.4-0.3,0.5c-0.9,1.2-1.9,2.4-2.9,3.5
	c-2.8,3.2-5.7,6.4-8.8,9.4c-0.8,0.8-1.7,1.6-2.6,2.3c-0.5,0.4-1.1,0.7-1.7,0.9c-2.7,0.9-4.9,2.5-6.7,4.8c-0.2,0.2-0.3,0.4-0.4,0.7
	c-0.1,0.1-0.1,0.2-0.2,0.4c0.2,0.1,0.4-0.1,0.6-0.1c3.1-1.2,6.2-2.2,9.5-2.7c1.7-0.3,3.3-0.4,5-0.4c0.3,0,0.6,0,0.9,0.1
	c-0.3,0.4-0.5,0.7-0.8,1c-1.8,2.2-3.8,4.1-6.1,5.9c-1.4,1.1-2.9,2.2-4.5,3.2c-0.5,0.3-0.4,0.4-0.8-0.1c-2.2-2.8-4.6-5.4-7.1-8
	c-0.3-0.3-0.6-0.5-1.1-0.5c-3.8-0.2-7.7-0.6-11.5-0.9c-3.4-0.3-6.9-0.7-10.3-1.1c-0.2,0-0.4-0.1-0.6-0.3c-1.6-2.1-3.7-3.7-6-5
	c-2.9-1.6-5.9-2.9-9.1-3.6c-1.6-0.3-3.2-0.5-4.9-0.4c-0.1,0.1-0.2,0-0.3,0c0.1,0,0.2,0,0.3,0.1c1.3,0.3,2.7,0.6,4,1.1
	c0.6,0.2,1.2,0.5,1.7,0.8c0.1,0.1,0.2,0.1,0.3,0.3c-0.8,0-1.6,0.1-2.4,0.2c-2.6,0.5-5.2,1.2-7.7,2c-2.2,0.7-4.4,1.4-6.6,2.2
	c-0.4,0.1-0.6,0.1-0.9-0.1c-1.2-0.8-2.3-1.9-3.3-2.9c-1.1-1.2-2.2-2.4-3.3-3.7c-0.4-0.5-0.8-1-1-1.6c-0.4-1.2,0-2,1.1-2.4
	c1-0.4,1.9-0.8,2.8-1.4C31.3,83.1,31.7,82.8,32,82.4z"/>
<path style="fill:#FFFFFF;" d="M118.4,82.4c0.3-0.1,0.6-0.1,0.9-0.1c3.1-0.1,6.2,0,9.3,0.2c1.6,0.1,3.2,0.2,4.8,0.3
	c0.4,0,0.9,0,1.4,0.2c-1.5,2.3-3.6,4-6,5.6c1,0.1,1.8,0.2,2.6,0.3c5.9,0.7,11.8,1.6,17.5,3.2c1.4,0.4,2.7,0.8,4,1.4
	c0.1,0.1,0.3,0.1,0.4,0.1c0.1,0.1,0.3,0.1,0.4,0.3c-0.8,0.2-1.6,0.4-2.4,0.5c-4.2,0.8-8.4,0.9-12.7,0.9c-4.9-0.1-9.7-0.5-14.5-1.1
	c-0.3,0-0.6-0.1-0.9-0.1c-0.1,0-0.3-0.2-0.4,0.1c3.6,2.2,7.4,3.7,11.6,4.1c1.1,0.1,2.2,0.2,3.4,0.4c1.1,0.2,2.1,0.8,3.1,1.2
	c4,1.8,8,3.7,12,5.5c0.3,0.2,0.8,0.2,0.9,0.7c-2.6,0.5-5.2,1.1-7.8,1.7c-12,2.8-24,6.1-35.9,9.5c-0.7,0.2-0.7,0.2-1.1-0.4
	c-1.1-1.8-2.6-3.3-4.3-4.5c-0.1,0-0.1,0,0,0.1v0.1c0.9,1.9,1.5,3.9,2.2,6c-0.7,0.2-1.5,0.3-2.2,0.4c-0.2,0-0.3,0-0.4-0.2
	c-1.6-2.2-3.3-4.3-4.9-6.5c6.4-4.2,11.7-9.4,15.5-16.1c-0.4-0.3-0.9-0.4-1.3-0.4c-1.8-0.3-3.7-0.4-5.6-0.4c-0.3,0-0.5,0-0.8-0.1
	C111.3,91.1,115,86.9,118.4,82.4z"/>
<path style="fill:#221E1E;" d="M155.5,64.1c-2.3-1.5-4.7-2.6-7.1-3.8c0.7-0.4,1.3-0.7,1.9-1c1-0.6,2-1.3,2.8-2.1
	c0.4-0.4,0.8-0.9,1.1-1.4c0.3-0.4,0.2-0.5-0.2-0.7c-3.1-1.3-6.3-2.5-9.5-3.5c-2.9-0.9-5.8-1.7-8.7-2.4c-2.1-0.5-4.3-1-6.5-1.4
	c-1.6-0.3-3.2-0.6-4.8-0.8c-1.3-0.2-2.6-0.4-3.9-0.6c-0.8-0.1-1.6-0.2-2.4-0.3c-0.2,0-0.4-0.1-0.6-0.3c-0.7-0.9-1.5-1.8-2.3-2.6
	c-1.7-1.8-3.4-3.6-5.1-5.4c-0.9-1-1.9-1.9-2.9-3c-1.2-1.3-2.5-2.5-3.7-3.8c-0.1-0.1-0.2-0.2-0.2-0.4c0.7-0.1,1.5-0.3,2.2-0.4
	c1.2-0.2,2.4-0.4,3.7-0.6c0.8-0.1,1.7-0.2,2.5-0.3c0.6-0.1,1.3-0.1,1.9-0.2c0.5-0.1,1-0.1,1.5-0.1c0.8,0,1.6-0.1,2.4-0.2
	c3.1-0.2,6.2-0.1,9.3-0.1c1.2,0,2.4,0.1,3.7,0.2c0.6,0.1,1.3,0,2,0.1s1.4,0.1,2.1,0.2c0.8,0.1,1.5,0.2,2.3,0.3
	c1.4,0.2,2.8,0.4,4.2,0.6c1.8,0.3,3.7,0.7,5.5,1.1c2.5,0.6,5,1.3,7.4,2.1c0.8,0.3,1.5,0.6,2.2,0.8c0.3,0.1,0.4,0.2,0.4,0.5
	c0.1,1.2,0.1,2.5,0.1,3.7c0.1,1.6,0.2,3.2,0.1,4.8c-0.1,1.5,0,3.1-0.1,4.6c-0.1,1.4-0.1,2.9-0.3,4.3c-0.1,1.3-0.2,2.6-0.3,3.8
	c-0.1,0.7-0.1,1.3-0.2,2c0,0.9-0.2,1.8-0.3,2.7c-0.1,0.8-0.2,1.5-0.3,2.2C155.6,63.4,155.6,63.7,155.5,64.1z"/>
<path style="fill:#717276;" d="M153.8,106c-0.1-0.3-0.3-0.3-0.5-0.4c-4.5-2.1-9-4.2-13.5-6.2c-0.6-0.3-1.3-0.6-1.9-0.9
	c1.2,0.1,2.4,0.2,3.6,0.2c2.1,0,4.1-0.1,6.2-0.3c4.1-0.4,8.1-1.2,12.1-2.4c0.3-0.1,0.6-0.1,0.8-0.3c-0.1-0.4-0.4-0.6-0.6-0.9
	c-1.3-1.5-2.8-2.9-4.3-4.2c-1.9-1.8-3.9-3.5-5.8-5.2c-0.5-0.4-1-0.9-1.5-1.3c-0.1-0.1-0.3-0.2-0.4-0.4c0.2-0.1,0.3-0.1,0.5,0
	c3,0.1,6-0.2,8.9-0.6c0.6-0.1,1.1-0.2,1.7-0.3c0.3,0,0.5,0.1,0.7,0.2c2.3,1.3,4.6,2.8,6.8,4.4c5.2,3.7,10.1,7.9,14.5,12.5
	c0.3,0.3,0.5,0.5,0.8,0.8c0,0,0.1,0.1,0.1,0.2c-0.7,0.2-1.4,0.3-2.1,0.4c-2.6,0.5-5.2,0.9-7.8,1.4c-3.4,0.6-6.8,1.3-10.2,1.9
	c-2.3,0.4-4.5,0.8-6.7,1.3C154.6,106,154.2,106,153.8,106z"/>
<path style="fill:#221E1E;" d="M59.5,111.4c0.7,0,1.4,0,2,0c1.2,0.1,2.4,0.1,3.5,0.2c0.6,0.1,1.3,0.1,2,0.1c0.7,0.1,1.4,0.1,2.1,0.2
	c0.8,0.1,1.6,0.2,2.4,0.3c1,0.1,1.9,0.3,2.9,0.4c1.8,0.3,3.6,0.7,5.3,1.3c0.8,0.3,1.6,0.6,2.4,0.9c1.1,0.4,2.1,1,3.2,1.6
	c1,0.6,1.9,1.3,2.7,2.1c0.2,0.2,0.4,0.5,0.5,0.8c0.4,0.6,0.7,1.2,1.1,1.9c0.2,0.4,0.2,0.5-0.2,0.6c-1.2,0.3-2.4,0.5-3.6,0.7
	c-1.3,0.3-2.7,0.5-4,0.8c-2.1,0.4-4.1,0.8-6.2,1.2c-1.9,0.4-3.8,0.8-5.7,1.1c-1.8,0.4-3.7,0.7-5.5,1.1c-1.1,0.2-2.2,0.4-3.4,0.7
	c-0.5,0.1-0.5,0.1-0.8-0.3c-0.9-1.4-1.8-2.9-2.6-4.4c-1.2-2.1-2.3-4.3-3.5-6.5c-0.6-1.2-1.3-2.4-1.8-3.7c-0.1-0.4-0.1-0.4,0.2-0.5
	c0.8-0.3,1.5-0.4,2.3-0.5C56.4,111.4,58,111.4,59.5,111.4z"/>
<path style="fill:#FFFFFF;" d="M98.4,25.8c1.3-0.3,2.5-0.6,3.7-0.9c4.4-0.9,8.7-1.5,13.2-1.9c4.8-0.4,9.6-0.4,14.4-0.1
	c10.7,0.7,21.1,2.7,31.1,6.5c0.4,0.1,0.8,0.3,1.1,0.5c0.3,0.1,0.4,0.3,0.4,0.6c0,1.4,0.1,2.8,0.1,4.2c0,4.4,0,8.8-0.2,13.3
	c-0.2,3.8-0.4,7.5-0.7,11.3c-0.2,2.5-0.5,5-0.9,7.5c-0.1,0.1-0.2,0.1-0.2,0c-0.9-0.6-1.9-1.1-2.8-1.7c-0.2-0.1-0.3-0.2-0.2-0.4
	c0.8-5,1-10,1.2-15c0.2-5.4,0.1-10.7,0.1-16.1c0-0.5-0.2-0.7-0.6-0.9c-4.8-1.9-9.7-3.3-14.8-4.2c-5.7-1.1-11.4-1.6-17.2-1.6
	c-4.5,0-8.9,0.2-13.4,0.6c-3.6,0.4-7.2,0.9-10.7,1.6c-0.3,0.1-0.5,0-0.8-0.3c-0.7-0.9-1.5-1.7-2.4-2.5C98.7,26.1,98.6,26,98.4,25.8z
	"/>
<path style="fill:#A2AAAC;" d="M90.1,45.4c0.3-0.8,0.5-1.7,0.7-2.5c0.6-2.5,1.1-5,1.6-7.5c0.2-0.9,0.4-1.8,0.7-2.7
	c0.6-1.4,0.9-1.1,1.6-0.4c1.5,1.5,2.8,3.1,4.1,4.7c1.9,2.4,3.8,4.9,5.6,7.4c1.3,1.7,2.5,3.5,3.8,5.2c1,1.4,2.1,2.9,3.1,4.3
	c0.1,0.2,0.3,0.4,0.4,0.6c-0.3,0.2-0.5,0.3-0.8,0.4c-1.4,0.5-2.9,0.8-4.3,1s-2.8,0.3-4.1,0.4c-0.8,0.1-1.7,0-2.5,0.1
	c-2.7,0.2-5.5,0.1-8.2,0.1c-0.1,0-0.2,0-0.3,0c0-0.2,0.2-0.2,0.3-0.2c1.7-0.5,3.3-1.1,4.9-1.9c0.6-0.3,1.3-0.6,1.8-1.2
	c0.3-0.4,0.3-0.7-0.1-1c-0.3-0.2-0.5-0.3-0.8-0.4c-1.1-0.4-2.2-0.6-3.4-0.8c-0.8-0.1-1.5-0.2-2.3-0.3c-0.5-0.1-1-0.1-1.5-0.1
	c-0.8-0.1-1.5-0.2-2.3-0.2c-0.2,0-0.5,0-0.7-0.2c0.6-0.3,1-0.9,1.4-1.4C89.4,47.9,89.8,46.6,90.1,45.4z"/>
<path style="fill:#FFFFFF;" d="M52.3,102.3c-1.6,0.4-3.2,0.8-4.8,1.3c-4.7,1.3-9.3,2.7-14,4.1c-0.2,0.1-0.4,0.1-0.5,0.1
	c-0.1-0.2,0-0.4,0-0.5c0.7-2.5,1.6-5,2.4-7.5c0.1-0.2,0.1-0.4,0.5-0.3c1.8,0.3,3.7,0.3,5.5,0.4c1.8,0,3.7,0,5.5,0
	c0.4,0,0.7,0.1,1.1,0.2c8.2,2.3,16.5,4.3,24.9,5.9c2.1,0.4,4.3,0.8,6.4,1c0.4,0,0.7,0.2,0.9,0.5c1,1.3,2,2.6,2.9,3.9
	c0.1,0.1,0.1,0.2,0.2,0.3c0,0-0.1,0.1-0.1,0c-4.2-1.6-8.6-2.8-13.1-3.4c-4.2-0.6-8.4-0.8-12.7-0.6c-3,0.2-6,0.5-8.9,1.2
	c-0.1,0-0.1,0-0.2-0.1c0.9-2.4,2.4-4.4,3.9-6.5C52.3,102.4,52.4,102.3,52.3,102.3z"/>
<path style="fill:#A2AAAC;" d="M43.4,97.2c0.3-0.2,0.6-0.4,0.8-0.5c0.4-0.2,0.6-0.6,0.6-1.1c0-0.2,0-0.3,0-0.5
	c0.4,0.1,0.8,0.2,1.2,0.2c0.2,0,0.4,0.1,0.6,0c0.8-0.1,1.5,0.1,2.2,0.3c4.6,1.3,9.3,2.2,14,3c3.4,0.6,6.7,1,10.1,1.4
	c2.6,0.3,5.3,0.6,7.9,0.8c2.6,0.2,5.2,0.4,7.8,0.6c0.3,0,0.5,0.1,0.7,0.2c1.5,1.3,2.8,2.8,4.1,4.3v0.1c-1.1-0.1-2.3-0.2-3.4-0.3
	c-2-0.1-4-0.1-5.9,0.3c-0.3,0.1-0.7,0.2-1,0.3c-0.3,0.1-0.5,0.1-0.6-0.2c-0.5-0.6-1.1-0.9-1.9-1c-5-0.7-10-1.7-14.9-2.7
	c-7.3-1.5-14.5-3.3-21.7-5.2C43.7,97.3,43.6,97.3,43.4,97.2z"/>
<path style="fill:#221E1E;" d="M72.1,50.1c-1.1,0.4-2.1,0.7-3.1,1c-2.2,0.8-4.4,1.8-6.4,2.9c-1.1,0.6-2.1,1.2-3.1,1.9
	c-1.4,1-2.8,2.1-3.9,3.4c-1.6,1.8-2.9,3.8-3.6,6.1c-0.1,0.4-0.3,0.5-0.6,0.6c-2.5,0.5-5,1.1-7.6,1.7C43,67.9,43,67.9,43,67.1
	c0-0.4,0-0.9,0-1.3s0.1-0.7,0.4-1c1.1-1.1,2.2-2.1,3.3-3.2c1.2-1.2,2.4-2.3,3.7-3.4c1.2-1.1,2.4-2.1,3.7-3.2
	c1.4-1.2,2.8-2.3,4.3-3.5c2.4-1.9,4.9-3.7,7.5-5.4c1.6-1,3.2-2,4.8-2.9c0.1,0,0.1-0.1,0.3-0.1c0.1,0.3,0.2,0.6,0.2,1
	c0,1.1,0.2,2.1,0.3,3.2c0.1,0.5,0.2,1.1,0.2,1.6C71.8,49.4,72,49.7,72.1,50.1z"/>
<path style="fill:#FFFFFF;" d="M37.8,69.2c-0.1-0.2-0.1-0.3-0.1-0.5c0-2,0-3.9,0-5.9c0-0.3,0.1-0.6,0.3-0.8c7.5-7.1,15.3-14,23.7-20
	c2.6-1.9,5.3-3.6,8.2-5.1c0.2-0.1,0.4-0.3,0.7-0.3c0.1,0.1,0.1,0.3,0.1,0.4c0.1,1.2,0.1,2.4,0.2,3.6c0,0.3,0,0.4-0.3,0.5
	c-5.7,3.1-10.8,7-15.8,11c-4.5,3.7-8.8,7.6-13.1,11.7c-0.3,0.3-0.4,0.5-0.4,0.9c0,1.1,0,2.2,0,3.3c0,0.3-0.1,0.5-0.4,0.5
	c-1,0.2-2,0.5-3,0.7C37.9,69.2,37.8,69.2,37.8,69.2z"/>
<path style="fill:#A2AAAC;" d="M20.8,79.2c-1-1.4-1.8-2.9-2.6-4.4C15.3,69,12.7,63.1,10.4,57c-1.5-4.1-3.1-8.1-4.6-12.2
	c-0.1-0.2-0.2-0.3-0.1-0.6c1.3,0,2.5,0.1,3.7,0.7c0.3,0.2,0.5,0.5,0.6,0.8c1.3,3.7,2.6,7.4,3.9,11.2c2.4,7,5.2,13.9,8.4,20.5
	c0,0.1,0.1,0.2,0.1,0.3c0,0.2,0,0.2-0.2,0.2c-0.4-0.4-0.9-0.8-1.3-1.2c-0.2,0.2,0.1,0.7-0.4,0.8c-0.1,0,0,0.2,0,0.3
	c0.1,0.4,0.3,0.8,0.4,1.3C21,79.2,20.9,79.2,20.8,79.2z"/>
<path style="fill:#FFFFFF;" d="M95.7,121.2c2.8,0.2,5.6,0.8,8.3,1.4c0.4,0.1,0.8,0.2,1.3,0.3c0-0.4-0.2-0.6-0.6-0.7
	c-2.9-0.7-5.8-1.4-8.8-1.7c-1-0.1-2-0.1-2.9,0c-0.2,0-0.3,0-0.4-0.2c-1-1.6-2-3.2-3-4.8c0.1-0.2,0.3-0.1,0.4-0.1
	c2.8,0.2,5.6,0.7,8.3,1.3c1.4,0.3,2.8,0.7,4.2,1c0.4,0.1,0.7,0.3,1,0.7c1.3,2,2.5,4,3.7,6.1c-4.5-1.4-9-2.4-13.5-3.4
	c0-0.1,0.1-0.2,0.2-0.2C94.4,121.2,95,121.1,95.7,121.2z"/>
<path style="fill:#A2AAAC;" d="M113.9,137.2c-1-0.2-2-0.4-3-0.6c-4.1-0.8-8.3-1.6-12.4-2.4c-0.4-0.1-0.5-0.2-0.6-0.6
	c-0.3-1-0.6-2.1-0.9-3.1c0-0.2-0.1-0.3-0.1-0.5c0.5-0.1,1.1,0.1,1.6,0.1c4.2,0.4,8.4,1.1,12.5,2.4c0.9,0.3,1.5,0.7,1.8,1.6
	c0.3,0.9,0.7,1.7,1.1,2.5C113.8,136.8,113.9,137,113.9,137.2z"/>
<path style="fill:#FFFFFF;" d="M46.4,113.3c1.1-0.3,2.2-0.6,3.2-0.9c0.3-0.1,0.5,0,0.6,0.3c0.9,2.3,2,4.5,3.2,6.6
	c1.4,2.7,3,5.3,4.6,7.8c0.1,0.2,0.2,0.3,0.3,0.6c-1.2,0.3-2.4,0.6-3.5,0.9c-0.2,0.1-0.3-0.1-0.4-0.2c-0.4-0.6-0.8-1.2-1.2-1.9
	c-1.9-3.1-3.5-6.3-5.1-9.5c-0.5-1-1-2.1-1.5-3.2C46.5,113.6,46.4,113.5,46.4,113.3z"/>
<path style="fill:#A2AAAC;" d="M57.9,76.7c-0.1,0.1-0.2,0-0.2,0c-0.9-0.7-1.7-1.5-2.6-2.2c-1-0.8-2.1-1.5-3.3-2
	c-0.7-0.3-1.4-0.2-2.1-0.2c-0.9,0.1-1.8,0.2-2.7,0.4c-1.8,0.3-3.6,0.7-5.5,1.1c-2.6,0.5-5.2,1.2-7.7,1.8c-2,0.5-4,1.1-6,1.6
	c-1.6,0.5-2.5,1.5-2.8,3.1c-0.1,0.7-0.2,1.3-0.2,2c0,0.2,0,0.3-0.1,0.5c-0.4-1.1-0.6-2.3-0.7-3.5c0-0.5,0-1,0.1-1.5
	c0.1-0.7,0.5-1.2,1.3-1.5c2.2-0.7,4.4-1.3,6.7-1.9c5.7-1.5,11.3-2.9,17-4.2c1.3-0.3,2.6-0.3,3.8,0.1c1,0.3,1.7,0.9,2.2,1.8
	c0.5,1.2,1.2,2.2,1.9,3.3C57.4,75.9,57.7,76.3,57.9,76.7z"/>
<path style="fill:#FFFFFF;" d="M102.3,117.2c-2-0.7-4.1-1.1-6.1-1.5c-2.2-0.4-4.5-0.7-6.7-0.9c-0.2,0-0.4,0-0.5-0.2
	c-0.8-1.1-1.6-2.2-2.4-3.3c0.7-0.4,1.5-0.5,2.3-0.6c2.1-0.2,4.3,0,6.4,0.2c0.8,0.1,1.6,0.2,2.4,0.3c0.4,0,0.6,0.2,0.9,0.5
	c1.3,1.8,2.6,3.5,4,5.3C102.5,117.2,102.4,117.2,102.3,117.2z"/>
<path style="fill:#A2AAAC;" d="M141.6,79.9c0.5-0.2,1-0.2,1.4-0.2c0.5-0.1,1-0.1,1.5-0.1c1.1-0.1,2.2-0.2,3.2-0.3
	c1.2-0.1,2.4-0.3,3.6-0.5c2.2-0.3,4.5-0.7,6.7-1.3c1.8-0.4,3.6-1,5.3-1.8c0.1-0.1,0.2-0.1,0.3-0.2c0.3-0.1,0.2-0.3,0-0.5
	c-0.5-0.4-0.9-0.9-1.4-1.3c-1.1-0.9-2.2-1.9-3.3-2.7c-1.3-1-2.6-2-3.9-3c-0.2-0.1-0.4-0.2-0.4-0.5c1.7,0.8,3.3,1.8,4.9,2.7
	c2.9,1.7,5.6,3.6,8.3,5.6c0.2,0.2,0.5,0.3,0.7,0.6c-0.7,0.2-1.4,0.5-2.1,0.7c-4,1.2-8.2,2.1-12.4,2.6c-3.2,0.4-6.4,0.5-9.6,0.4
	C143.6,80.1,142.6,80,141.6,79.9z"/>
<path style="fill:#FFFFFF;" d="M111.3,131.9c-1.9-0.6-3.7-1-5.6-1.4c-2.7-0.5-5.4-0.9-8.2-1.2c-1-0.1-1-0.1-1.3-1
	c-0.2-0.5-0.4-1-0.6-1.5c-0.1-0.3,0-0.4,0.2-0.4c0.7-0.1,1.5-0.2,2.3-0.2c2.7-0.1,5.4,0.3,8.1,0.8c0.7,0.1,1.3,0.3,2,0.4
	c0.1,0,0.3,0.1,0.4,0c0.2-0.2,0.3,0,0.3,0.1c0.3,0.6,0.7,1.2,1,1.8C110.3,130.2,110.8,131,111.3,131.9z"/>
<path style="fill:#A2AAAC;" d="M131.5,60.9c-0.1,0-0.3,0-0.5-0.1c3.4-1.2,6.7-2.3,9.9-3.9c0.1,0,0.1-0.1,0.1-0.2
	c-0.6-0.4-1.3-0.7-2-1c-2.3-0.9-4.7-1.8-7-2.6c-1.8-0.6-3.6-1.3-5.4-1.9c0.1-0.1,0.3,0,0.4-0.1c1.8,0.3,3.7,0.6,5.5,1
	c4.5,0.9,8.9,2.1,13.2,3.6c0.8,0.3,1.5,0.5,2.3,0.9c-0.4,0.3-0.7,0.4-1.1,0.6c-2.1,1-4.3,1.6-6.6,2.1c-2.7,0.7-5.5,1.1-8.3,1.5
	C131.8,60.9,131.6,60.9,131.5,60.9z"/>
<path style="fill:#FFFFFF;" d="M83.3,107c1.1-0.3,2.2-0.4,3.3-0.5c2.3-0.1,4.6,0,6.9,0.2c0.3,0,0.6,0.2,0.8,0.4
	c0.9,1,1.8,2.1,2.8,3.1c0.1,0.1,0.2,0.2,0.3,0.4c-0.7-0.1-1.2-0.1-1.8-0.2c-2.2-0.3-4.5-0.4-6.7-0.3c-0.9,0-1.7,0.1-2.5,0.3
	c-0.2,0.1-0.3,0.1-0.5-0.1C85,109.3,84.2,108.2,83.3,107z"/>
<path style="fill:#A2AAAC;" d="M55.6,65.7c0.2,0.2,0.1,0.4,0.1,0.6c-0.2,1.1,0.6,2.5,1.6,2.9c0.3,0.1,0.6,0.1,0.9,0
	c0.8-0.2,1.6-0.6,2.3-0.9c1.6-0.8,3.1-1.6,4.7-2.3c2.3-1.1,4.6-2.1,7-2.9c1.5-0.5,3-0.8,4.6-1c0.9-0.1,1.8-0.2,2.7-0.2
	c0.6,0,1.1,0.1,1.7,0.3c0.3,0.1,0.6,0.2,0.6,0.6h-0.1h-0.1c-0.8-0.1-1.6-0.1-2.3,0c-2.2,0.3-4.2,1-6.2,1.8
	c-4.3,1.6-8.5,3.5-12.7,5.3c-1,0.4-1.9,0.6-2.9,0.4c-1.5-0.2-2.7-1.1-2.4-3.1c0.1-0.3,0.1-0.6,0.3-0.9C55.5,66,55.5,65.9,55.6,65.7
	L55.6,65.7z"/>
<path style="fill:#FFFFFF;" d="M87.9,28.8c0,0.4-0.1,0.8-0.1,1.2c-0.1,1-0.1,1.9-0.2,2.9c0,0.3-0.1,0.4-0.4,0.5
	c-2.1,0.7-4.2,1.5-6.1,2.5c-0.2,0.1-0.3,0-0.4-0.1c-0.9-0.9-1.9-1.8-2.9-2.8C81.1,31.3,84.4,30,87.9,28.8z"/>
<path style="fill:#FFFFFF;" d="M107.9,126.8c-2.3-0.5-4.7-0.8-7.1-1c-1.8-0.1-3.6-0.2-5.3-0.2c-0.4,0-0.5-0.1-0.7-0.4
	c-0.4-0.9-0.8-1.8-1.1-2.7c-0.1-0.1-0.2-0.3-0.1-0.5c1,0.1,1.9,0.3,2.9,0.5c3.6,0.8,7.1,1.8,10.7,2.9c0.3,0.1,0.5,0.2,0.7,0.5
	s0.4,0.6,0.6,0.9C108.3,127,108.1,126.8,107.9,126.8z"/>
<path style="fill:#006A36;" d="M70.4,68.2c0.1,0.2,0,0.3-0.1,0.4c-1,1.6-2.2,3.1-3.7,4.3c-1.4,1.1-3.9,1-4.9,0.1
	c-0.2-0.2-0.4-0.3-0.5-0.5c-0.2-0.3-0.1-0.4,0.2-0.6c0.8-0.4,1.6-0.8,2.4-1.2c1.4-0.6,2.8-1.3,4.3-1.8
	C68.8,68.7,69.6,68.4,70.4,68.2z"/>
<path style="fill:#221E1E;" d="M82.4,37.3c1.6-0.8,3.2-1.6,4.9-2.1c0.1,0.4,0.1,0.8,0,1.1c-0.1,0.4-0.1,0.8-0.1,1.2
	c-0.1,1.4-0.1,2.8-0.3,4.3C86.6,41.6,82.9,38,82.4,37.3z"/>
<path style="fill:#A2AAAC;" d="M10.2,43.3c-0.5-0.1-0.9-0.3-1.3-0.4c-1.3-0.3-2.6-0.5-3.9-0.6c-0.5,0-0.9-0.2-1.1-0.7
	c-0.2-0.4-0.4-0.8-0.6-1.2c0.4-0.2,0.9-0.1,1.2-0.1c1.5,0.1,2.9,0.4,4.3,0.9c0.5,0.2,0.8,0.4,0.9,0.9C9.8,42.4,10,42.8,10.2,43.3z"
	/>
<path style="fill:#FDFDFD;" d="M48.6,94.2c2.1-0.5,4.1-0.5,6.3-0.2c-0.1,0.6-0.3,1.2-0.5,1.8c0,0.2-0.2,0.1-0.3,0.1
	c-0.5-0.1-1-0.2-1.4-0.6c-0.2-0.2-0.4-0.3-0.6-0.4c-0.2-0.1-0.2,0-0.2,0.2c0,0.1,0.1,0.2,0.2,0.4c-1.1-0.3-2.2-0.6-3.2-0.9
	c-0.1-0.1-0.2-0.1-0.3-0.1l0,0C48.5,94.3,48.5,94.3,48.6,94.2L48.6,94.2z"/>
<path style="fill:#FDFDFD;" d="M36.8,96.6c1.9-0.9,3.8-1.4,5.7-1.9c0.1,0.4-0.1,0.8-0.2,1.1C42.2,96,42.1,96,41.9,96
	c-0.3-0.1-0.6-0.2-0.9-0.1c-0.3,0.1-0.2,0.5-0.4,0.8c-0.2,0.4-0.4,0.9-0.8,1.3c-0.4-0.6-0.8-1.2-1.1-1.7c-0.1,0-0.1,0.1-0.1,0.1
	C37.8,97.6,38.1,97.4,36.8,96.6z"/>
<path style="fill:#FCFCFC;" d="M83.1,107.8c0.8,1.1,1.7,2.2,2.5,3.2c0.1,0.1,0.1,0.2,0.1,0.4c-0.1,0.3-0.2,0.7-0.4,1
	c-0.2-0.1-0.3-0.3-0.4-0.5c-0.5-0.7-0.9-1.4-1.5-2.1c-0.3-0.5-0.5-1-0.4-1.5C83.1,108.2,83,108,83.1,107.8z"/>
<path style="fill:#FCFCFC;" d="M88.4,116.6c-0.6-0.8-1.1-1.5-1.7-2.2c-0.2-0.3-0.4-0.6-0.6-0.8c-0.5-0.6-0.5-0.8,0-1.6
	c0.3,0.4,0.6,0.8,0.9,1.3c0.5,0.7,0.9,1.4,1.5,2c0.3,0.4,0.3,0.7,0.1,1.2C88.5,116.4,88.5,116.5,88.4,116.6z"/>
<path style="fill:#FBFBFB;" d="M91.9,121.8c-1-1.5-2-2.9-2.9-4.3c-0.2-0.4,0.1-0.6,0.1-0.8c0.2,0.1,0.3,0.3,0.4,0.4
	c0.8,1.2,1.6,2.4,2.5,3.5C92.2,121.1,92.2,121.4,91.9,121.8z"/>
<path style="fill:#FBFBFB;" d="M92.5,122c0.2,0.1,0.2,0.3,0.3,0.4c0.6,1.2,1.1,2.4,1.7,3.5c0.2,0.4,0.2,0.8-0.1,1.1
	c-0.2-0.1-0.2-0.4-0.3-0.5c-0.5-1-1-2-1.5-2.9C92.2,123,92.2,122.5,92.5,122z"/>
<path style="fill:#A0A8AA;" d="M16.1,83c0-0.4,0.1-0.7,0.2-1c0.2-0.6,0.2-0.6,0.8-0.6c0.8,0.1,1.6,0.3,2.3,0.8
	C18.3,82.5,17.2,82.7,16.1,83z"/>
<linearGradient id="SVGID_1_" gradientUnits="userSpaceOnUse" x1="112.7588" y1="26.824" x2="110.8329" y2="35.7199" gradientTransform="matrix(1 0 0 -1 0 200)">
	<stop  offset="0" style="stop-color:#00904A"/>
	<stop  offset="0.2076" style="stop-color:#008B47"/>
	<stop  offset="0.4673" style="stop-color:#007B3F"/>
	<stop  offset="0.5215" style="stop-color:#00773D"/>
	<stop  offset="0.8237" style="stop-color:#00773D"/>
	<stop  offset="0.8628" style="stop-color:#00773D"/>
	<stop  offset="0.8875" style="stop-color:#007F41"/>
	<stop  offset="0.9269" style="stop-color:#00974D"/>
	<stop  offset="0.9758" style="stop-color:#00BC60"/>
	<stop  offset="0.9815" style="stop-color:#00C162"/>
</linearGradient>
<path style="fill:url(#SVGID_1_);" d="M115.4,151.3c-0.1-0.1-0.2,0-0.4,0c-1.1,0.2-2.2,0.5-3.4,0.7c-1.6,0.3-3.2,0.7-4.8,1
	c-0.6,0.1-0.6,0.1-0.6,0.7c0,0.5,0,1,0,1.5c-0.1,0.5,0.1,0.8,0.4,1.1s0.4,0.6,0.4,1c0,0.8,0,1.6,0,2.4c0,0.1-0.1,0.2-0.1,0.3
	c0,2,0,3.9,0,5.9c0,0.1,0,0.2,0,0.4c0,0.1,0,0.2,0,0.4l0,0l0,0c-0.2,1.8-0.1,3.5-0.1,5.3l0,0v0.1l0,0l0,0l0,0l0,0
	c-0.1,0.1,0,0.2-0.2,0.2c-0.5,0.5-0.8,1.1-0.7,1.9c0,0.4,0,0.7,0,1.1c0,0.1,0,0.1,0,0.2c0,0.4,0,0.4,0.5,0.3
	c0.7-0.1,1.5-0.3,2.2-0.5s1.4-0.2,2-0.5c0.2-0.1,0.1-0.3,0.1-0.4c0-0.5,0-1,0-1.5c0.1-0.6-0.2-1.1-0.6-1.4l-0.1-0.1l0,0
	c0-1.4,0-2.9,0-4.3c0-0.7,0-0.7,0.7-0.8c0.9-0.2,1.8-0.4,2.6-0.5c0.7-0.1,0.7-0.1,0.7-0.9v-0.1c0-0.1,0-0.2,0-0.4c0-0.4,0-0.8,0-1.2
	c0-0.5,0-0.9,0-1.4c0-0.4,0-0.4-0.4-0.3c-0.9,0.2-1.9,0.4-2.8,0.6c-0.2,0-0.4,0.1-0.7,0c0-0.6,0-1.3,0-1.9c0.1-1.1,0.1-2.2,0.1-3.2
	c0-0.3,0.1-0.5,0.4-0.5s0.7-0.1,1-0.2c0.6-0.1,0.6-0.1,0.6,0.4c0,0.7,0,1.4,0,2.1c0,0.3-0.1,0.5,0.1,0.8c1-0.6,1.9-1.1,2.8-1.7
	c0.2-0.1,0.2-0.4,0.2-0.6c0.1-1.8,0.1-3.6,0.1-5.3C115.5,151.6,115.5,151.5,115.4,151.3z M107.1,161.1L107.1,161.1
	c0-0.1,0-0.2,0-0.3C107.1,160.9,107.1,161,107.1,161.1z M109.9,171.3L109.9,171.3L109.9,171.3L109.9,171.3z"/>
<linearGradient id="SVGID_2_" gradientUnits="userSpaceOnUse" x1="159.3317" y1="35.5279" x2="156.9946" y2="46.0407" gradientTransform="matrix(1 0 0 -1 0 200)">
	<stop  offset="0" style="stop-color:#00904A"/>
	<stop  offset="0.2076" style="stop-color:#008B47"/>
	<stop  offset="0.4673" style="stop-color:#007B3F"/>
	<stop  offset="0.5215" style="stop-color:#00773D"/>
	<stop  offset="0.8237" style="stop-color:#00773D"/>
	<stop  offset="0.8628" style="stop-color:#00773D"/>
	<stop  offset="0.8875" style="stop-color:#007F41"/>
	<stop  offset="0.9269" style="stop-color:#00974D"/>
	<stop  offset="0.9758" style="stop-color:#00BC60"/>
	<stop  offset="0.9815" style="stop-color:#00C162"/>
</linearGradient>
<path style="fill:url(#SVGID_2_);" d="M162,161.1L162,161.1c-0.3-0.4-0.7-0.9-0.8-1.4c0-0.2-0.1-0.3-0.2-0.4l0,0
	c-0.2-0.6-0.4-1.2-0.7-1.7c-0.1-0.1-0.1-0.2-0.1-0.2l0,0l0,0l0,0l0,0c-0.3-1-0.8-2-1.2-3l0,0c0-0.1,0-0.2-0.1-0.3l0,0
	c0-0.1,0-0.3-0.1-0.3l0,0c-0.5-0.7-0.3-1.5,0.1-2.2c0.1-0.2,0.2-0.3,0.2-0.5c0.4-0.9,0.8-1.8,1.2-2.7c0.1-0.1,0.2-0.3,0.3-0.5
	c0.6-1.2,0.9-2.4,1.8-3.5c0.1-0.1,0.1-0.2,0.1-0.3c0-0.8,0-1.6,0-2.4c-0.1,0-0.1,0-0.1,0c-1.5,0.3-2.9,0.6-4.4,0.9
	c-0.3,0.1-0.3,0.2-0.3,0.4c0,0.5,0,1.1,0,1.6s0.1,0.8,0.4,1.1c0.3,0.2,0.3,0.5,0.2,0.9c-0.3,0.6-0.6,1.2-0.8,1.9
	c0,0.1,0,0.2-0.1,0.3l0,0c-0.2,0.2-0.2,0.4-0.3,0.6c-0.4,0.9-0.8,1.9-1.2,2.8c0,0.1-0.1,0.3-0.3,0.3c0-0.8,0-1.6,0-2.4
	c0.1-0.8,0.1-1.5,0.1-2.3c0-0.7,0.1-1.4,0.6-1.9c0.1-0.1,0.3-0.3,0.3-0.5c0-0.8,0-1.6,0-2.5c-1.5,0.3-3,0.6-4.5,0.9
	c-0.3,0.1-0.3,0.2-0.3,0.4c0,0.5,0,1.1,0,1.6c-0.1,0.5,0.1,0.8,0.4,1.1c0.3,0.2,0.4,0.5,0.4,0.9c0,0.8,0,1.6,0,2.5l0,0
	c0,0.1-0.1,0.2-0.1,0.3c0,1.6,0,3.2,0,4.8c0,0.2,0,0.3,0,0.5c0,0.1,0,0.2,0,0.4l0,0c0,0.6-0.1,1.3-0.1,1.9c-0.1,1.4,0,2.9,0,4.3
	c-0.1,0.2-0.2,0.3-0.3,0.5l0,0c-0.4,0.4-0.7,0.9-0.6,1.5c0,0.4,0,0.9,0,1.3c0,0.2-0.1,0.4,0.1,0.6c0.5-0.1,1.1-0.2,1.6-0.3
	c0.9-0.2,1.9-0.3,2.8-0.6l0,0c0.3,0,0.2-0.2,0.3-0.4c0-0.6,0-1.2,0-1.8c0-0.5-0.1-0.8-0.5-1c-0.1,0-0.1-0.1-0.1-0.1l0,0l0,0
	l-0.1-0.1l0,0c0-1.1,0-2.1,0-3.2c0.1-0.1,0-0.2,0.1-0.3v-0.1l0,0c0.4-0.5,0.4-1.1,0.8-1.6c0.3,0.5,0.4,1.1,0.7,1.5
	c0.2,0.7,0.5,1.4,0.9,2c0,0.1,0,0.3,0.1,0.4c0.2,0.4,0.2,0.7,0,1l0,0c-0.4,0.4-0.6,0.9-0.6,1.5c0,0.5,0,1,0,1.5c0,0.1,0,0.3,0.1,0.4
	c1-0.1,1.9-0.4,2.8-0.6c0.7-0.1,1.3-0.2,2-0.4c0.1,0,0.1-0.1,0.1-0.2c0-0.7,0-1.5,0-2.2C162.3,161.3,162.2,161.2,162,161.1z"/>
<linearGradient id="SVGID_3_" gradientUnits="userSpaceOnUse" x1="123.8857" y1="28.7318" x2="121.7698" y2="37.9676" gradientTransform="matrix(1 0 0 -1 0 200)">
	<stop  offset="0" style="stop-color:#00904A"/>
	<stop  offset="0.2076" style="stop-color:#008B47"/>
	<stop  offset="0.4673" style="stop-color:#007B3F"/>
	<stop  offset="0.5215" style="stop-color:#00773D"/>
	<stop  offset="0.8237" style="stop-color:#00773D"/>
	<stop  offset="0.8628" style="stop-color:#00773D"/>
	<stop  offset="0.8875" style="stop-color:#007F41"/>
	<stop  offset="0.9269" style="stop-color:#00974D"/>
	<stop  offset="0.9758" style="stop-color:#00BC60"/>
	<stop  offset="0.9815" style="stop-color:#00C162"/>
</linearGradient>
<path style="fill:url(#SVGID_3_);" d="M126.6,151.3c-0.4-0.6-0.9-1.1-1.3-1.7c-0.2-0.3-0.5-0.4-0.8-0.3c-0.7,0.2-1.5,0.3-2.2,0.5
	c-1.6,0.3-3.2,0.7-4.9,1c-0.3,0.1-0.5,0.2-0.4,0.5c0,0.5,0,1,0,1.5s0.1,0.9,0.5,1.2c0.1,0.1,0.2,0.1,0.2,0.2
	c0.1,0.2,0.1,0.5,0.1,0.7c0,1.8,0,3.7,0,5.5l0,0c-0.1,0.1-0.1,0.3-0.1,0.4c0,2.2,0,4.5,0,6.7c0,0.7,0,1.5-0.2,2.2l0,0
	c-0.5,0.5-0.8,1-0.7,1.7c0,0.1,0,0.2,0,0.2c0,0.5-0.2,1.1,0.1,1.6c0.2,0.1,0.4,0,0.5,0c1.2-0.2,2.5-0.5,3.7-0.8
	c0.7-0.2,0.7-0.2,0.7-0.9v-0.1l0,0l0,0c0.2-0.3,0-0.7,0.1-1.1c0.1-0.6-0.1-1-0.6-1.3l-0.1-0.1l0,0c-0.1-0.2-0.1-0.4-0.1-0.6
	c0-0.5,0-1,0-1.4l0,0c0.2-0.5,0.1-0.9,0.1-1.4s0-0.5,0.5-0.6c0.9-0.2,1.9-0.4,2.8-0.6c0.2,0,0.4-0.1,0.6-0.3
	c0.4-0.6,0.8-1.2,1.1-1.9l0,0c0.1,0,0.1-0.1,0.1-0.1l0,0l0,0l0,0c0.1-0.1,0.1-0.2,0.1-0.2c0.1-0.1,0.1-0.1,0.1-0.2l0,0
	c0.1-0.1,0.1-0.1,0.1-0.2l0,0c0.2-0.2,0.2-0.4,0.2-0.7c0-0.4,0-0.8,0-1.2c0.1-2.1,0.1-4.1,0.1-6.2c0-0.4,0-0.7,0.1-1.1
	C126.9,151.9,126.8,151.6,126.6,151.3z M121.3,158.4c0-1.2,0-2.3,0-3.5c0-0.5,0.2-0.8,0.7-0.9c0.4,0,0.7-0.1,1.1-0.2h0.1
	c0.1,0.2,0.1,0.3,0.1,0.5c0,1.8,0.1,3.6-0.1,5.4c0,0.4-0.1,0.8-0.6,0.9c-0.4,0.1-0.8,0.2-1.2,0.2c-0.2,0-0.2-0.3-0.2-0.5
	c0-0.3,0.1-0.7-0.2-1C121.3,159,121.3,158.7,121.3,158.4z M117.7,163.3L117.7,163.3L117.7,163.3L117.7,163.3z"/>
<path style="fill:#F7F7F7;" d="M95.1,127.2c0.3,0.7,0.5,1.3,0.8,1.9c0.1,0.2,0,0.3,0,0.5c-0.1,0.2-0.1,0.5-0.2,0.7
	c-0.2,0-0.2-0.2-0.2-0.3c-0.2-0.4-0.3-0.9-0.5-1.3C94.7,128.2,94.8,127.7,95.1,127.2z"/>
<linearGradient id="SVGID_4_" gradientUnits="userSpaceOnUse" x1="91.7488" y1="22.435" x2="89.8997" y2="31.4524" gradientTransform="matrix(1 0 0 -1 0 200)">
	<stop  offset="0" style="stop-color:#00904A"/>
	<stop  offset="0.2076" style="stop-color:#008B47"/>
	<stop  offset="0.4673" style="stop-color:#007B3F"/>
	<stop  offset="0.5215" style="stop-color:#00773D"/>
	<stop  offset="0.8237" style="stop-color:#00773D"/>
	<stop  offset="0.8628" style="stop-color:#00773D"/>
	<stop  offset="0.8875" style="stop-color:#007F41"/>
	<stop  offset="0.9269" style="stop-color:#00974D"/>
	<stop  offset="0.9758" style="stop-color:#00BC60"/>
	<stop  offset="0.9815" style="stop-color:#00C162"/>
</linearGradient>
<path style="fill:url(#SVGID_4_);" d="M94.3,158.8c0-0.2,0-0.4-0.2-0.6c-0.5-0.6-1-1.2-1.4-1.9c-0.2-0.3-0.5-0.3-0.8-0.3
	c-1.4,0.3-2.8,0.6-4.2,0.9c-0.2,0-0.4,0.1-0.5,0.4c-0.5,0.9-1.1,1.9-1.7,2.8c-0.1,0.2-0.1,0.3-0.1,0.5c0,1.9,0,3.8,0,5.6
	c0,0.1-0.1,0.3-0.1,0.4c0,1.4,0,2.8,0,4.1c0,0.2,0,0.4,0,0.6l0,0c0,1.7-0.2,3.4-0.1,5.2c0,0.2-0.1,0.5,0.1,0.6l0,0l0.1,0.1v0.1
	l0.1,0.1l0,0l0.1,0.1c0.2,0.4,0.4,0.7,0.7,1c0.1,0.2,0.3,0.4,0.4,0.6c0.2,0.3,0.3,0.3,0.7,0.3c1.4-0.3,2.9-0.6,4.3-0.9
	c0.2,0,0.3-0.1,0.4-0.3c0.1-0.3,0.4-0.5,0.4-0.8c0.1-0.1,0-0.2,0.1-0.2l0,0c0-0.1,0.1-0.1,0.1-0.1l0,0l0,0c0.3-0.4,0.5-0.8,0.7-1.2
	c0.1-0.1,0.1-0.2,0.1-0.2l0,0l0.1-0.1v-0.1c0-0.1,0.1-0.1,0.1-0.1v-0.1l0,0l0,0c0.1-0.1,0.1-0.2,0.1-0.3c0-1.8,0-3.5,0-5.3
	c0-0.2,0-0.3,0-0.5C94.2,165.6,94.1,162.2,94.3,158.8z M90,160.9c0.6-0.1,0.7-0.1,0.7,0.5c0,1.2,0,2.3,0,3.5l0,0
	c-0.2,0.1-0.1,0.4-0.1,0.6c0,1.3,0,2.6,0,3.9c0,0.2,0,0.5,0.2,0.6l0,0h-0.1c0,0,0,0.1-0.1,0.1c-0.2,0.9,0,1.7-0.1,2.6
	c0,0.2,0,0.4,0.2,0.5l-0.1,0.1c0,0.8-0.5,1-1.3,1.1c-0.5,0.1-0.9,0.2-0.9-0.5l0,0c0.4-0.5,0.4-3,0.1-3.8c0-0.1,0.1-0.2,0.1-0.3
	c0.1-2.8,0.2-5.6,0.2-8.5c0-0.1,0-0.2,0-0.3c0,0,0,0,0-0.1C89.2,161,89.6,161,90,160.9z"/>
<linearGradient id="SVGID_5_" gradientUnits="userSpaceOnUse" x1="147.1005" y1="34.0559" x2="145.2761" y2="43.3404" gradientTransform="matrix(1 0 0 -1 0 200)">
	<stop  offset="0" style="stop-color:#00904A"/>
	<stop  offset="0.2076" style="stop-color:#008B47"/>
	<stop  offset="0.4673" style="stop-color:#007B3F"/>
	<stop  offset="0.5215" style="stop-color:#00773D"/>
	<stop  offset="0.8237" style="stop-color:#00773D"/>
	<stop  offset="0.8628" style="stop-color:#00773D"/>
	<stop  offset="0.8875" style="stop-color:#007F41"/>
	<stop  offset="0.9269" style="stop-color:#00974D"/>
	<stop  offset="0.9758" style="stop-color:#00BC60"/>
	<stop  offset="0.9815" style="stop-color:#00C162"/>
</linearGradient>
<path style="fill:url(#SVGID_5_);" d="M146.4,153.2c0,0.2-0.1,0.4,0.1,0.6c0.2,0.1,0.3-0.1,0.4-0.1c0.8-0.5,1.6-1,2.5-1.4
	c0.3-0.2,0.4-0.4,0.4-0.8c0-1.4,0-2.7,0.1-4.1c0-0.3-0.1-0.5-0.2-0.7c-0.5-0.6-1-1.3-1.4-1.9c-0.2-0.2-0.3-0.3-0.6-0.2
	c-1.5,0.3-3,0.6-4.5,0.9c-0.3,0.1-0.5,0.2-0.6,0.5c-0.5,0.8-1,1.7-1.5,2.5c-0.2,0.3-0.3,0.6-0.3,1c0,1.6,0,3.3,0,4.9l0,0
	c-0.1,0.1-0.1,0.3-0.1,0.4c0,2.4,0,4.9,0,7.3c0,0.8-0.1,1.5-0.1,2.3c0,0.2,0,0.4,0,0.7c0,0.1,0,0.1,0,0.2c0,0.2-0.1,0.4,0.1,0.6l0,0
	l0.1,0.1l0,0c0.1,0,0.1,0.2,0.1,0.2c0.2,0.4,0.4,0.7,0.7,1c0.2,0.2,0.3,0.4,0.4,0.7c0.2,0.4,0.5,0.4,0.9,0.3
	c1.2-0.3,2.4-0.5,3.6-0.8c1.2-0.3,1.2-0.3,1.8-1.4c0.1-0.1,0-0.2,0.1-0.2l0,0c0.1-0.1,0-0.2,0.1-0.2l0,0c0.3-0.3,0.4-0.6,0.6-1
	c0.1-0.1,0-0.2,0.1-0.3l0,0c0-0.1,0.1-0.1,0.1-0.1l0,0c0.3-0.3,0.1-0.7,0.1-1.1c0.1-0.1,0.1-0.3,0.1-0.5c0-1.5,0-3,0-4.5
	c0-0.1,0-0.2-0.1-0.3h-0.1c-1,0.5-1.9,1.1-2.9,1.6c-0.2,0.1-0.3,0.3-0.3,0.6c0.1,0.9-0.1,1.9-0.1,2.8c0,0.2-0.1,0.4-0.3,0.6l0,0
	c-0.6,0.1-1.2,0.2-1.8,0.4c-0.4,0-0.3-0.3-0.3-0.5c0-1.7,0-3.4,0-5.1c0-0.1,0-0.2,0-0.4c0-1.2,0.1-2.4,0.1-3.6c0-1.2,0-2.5,0-3.7
	c0-0.5,0-0.5,0.5-0.6c0.4-0.1,0.9-0.2,1.3-0.3c0.6-0.1,0.6-0.1,0.6,0.5C146.4,150.9,146.4,152,146.4,153.2z M140.6,164
	C140.6,164,140.5,164,140.6,164C140.5,164,140.5,164,140.6,164L140.6,164z M149.5,161.5L149.5,161.5L149.5,161.5L149.5,161.5z"/>
<path style="fill:#A7A7A7;" d="M131.9,144.8L131.9,144.8L131.9,144.8z"/>
<path style="fill:#A7A7A7;" d="M133.2,142.8L133.2,142.8L133.2,142.8z"/>
<linearGradient id="SVGID_6_" gradientUnits="userSpaceOnUse" x1="100.6535" y1="24.5815" x2="98.8225" y2="33.1982" gradientTransform="matrix(1 0 0 -1 0 200)">
	<stop  offset="0" style="stop-color:#00904A"/>
	<stop  offset="0.2076" style="stop-color:#008B47"/>
	<stop  offset="0.4673" style="stop-color:#007B3F"/>
	<stop  offset="0.5215" style="stop-color:#00773D"/>
	<stop  offset="0.8237" style="stop-color:#00773D"/>
	<stop  offset="0.8628" style="stop-color:#00773D"/>
	<stop  offset="0.8875" style="stop-color:#007F41"/>
	<stop  offset="0.9269" style="stop-color:#00974D"/>
	<stop  offset="0.9758" style="stop-color:#00BC60"/>
	<stop  offset="0.9815" style="stop-color:#00C162"/>
</linearGradient>
<path style="fill:url(#SVGID_6_);" d="M104.5,166.8c-0.1,0-0.1,0-0.1,0c-0.9,0.5-1.8,1.1-2.7,1.6c-0.3,0.1-0.3,0.3-0.3,0.6
	c0,0.6,0,1.3,0,1.9l0,0c0,0.4,0,0.8-0.1,1.2c-0.1,0.5-0.1,0.5-0.6,0.6c-0.1,0-0.1,0-0.2,0c-0.8,0.2-0.8,0.2-0.8-0.6
	c0.1-0.1,0.1-0.3,0.1-0.4c0-1.2,0-2.4,0-3.7l0,0c0-0.1,0-0.2,0-0.4c0-0.3,0-0.6,0-0.9c0.1-2.6,0.1-5.2,0.1-7.7
	c0-0.7,0.1-1.3,0.6-1.8c0.3-0.3,0.3-0.6,0.3-1c0-0.6,0-1.1,0-1.7c0-0.4,0-0.4-0.4-0.3c-1.4,0.3-2.8,0.6-4.3,0.9
	c-0.2,0-0.3,0.2-0.3,0.4c0,0.6,0,1.1-0.1,1.7c0,0.5,0.1,0.8,0.4,1.1c0.3,0.2,0.4,0.6,0.4,1c-0.1,2.5-0.1,4.9-0.1,7.4l0,0
	c-0.1,0.1-0.1,0.2-0.1,0.3c0,2.2,0,4.4,0,6.5c0,0.4-0.3,0.6-0.4,1l0,0c-0.4,0.3-0.5,0.7-0.5,1.2c0,0.3,0,0.7,0,1c0,0.1,0,0.3,0,0.4
	c0,0.6,0,0.6,0.6,0.5c0.9-0.2,1.8-0.4,2.7-0.6c1.7-0.4,3.5-0.7,5.2-1.1c0.3-0.1,0.4-0.2,0.4-0.5l0,0c0.1-0.2,0.1-0.4,0.1-0.7
	c0-2.3,0-4.7,0-7C104.4,167.5,104.5,167.2,104.5,166.8z"/>
<path style="fill:#A3A3A3;" d="M42.3,145.6L42.3,145.6L42.3,145.6z"/>
<path style="fill:#00BE61;" d="M138.1,154c0-1.6,0-3.1,0-4.7c0.1,0.1,0.1,0.2,0.1,0.4c0,1.3,0,2.7,0,4
	C138.2,153.8,138.1,153.9,138.1,154z"/>
<path style="fill:#00150A;" d="M72.7,175.9c0.1,0.6-0.2,1.1-0.1,1.7l0,0c0,0.1-0.1,0.1-0.1,0v-0.1c0-0.5,0-1,0-1.5
	C72.5,176,72.6,176,72.7,175.9z"/>
<path style="fill:#717276;" d="M79.4,62.6c0.8-0.2,1.6-0.2,2.3,0C81,62.6,80.2,62.6,79.4,62.6z"/>
<path style="fill:#00AB57;" d="M138.1,158.6H138c0-0.6,0-1.2,0-1.8c0-0.2-0.1-0.4,0.1-0.5C138.1,157,138.1,157.8,138.1,158.6z"/>
<path style="fill:#9B9B9B;" d="M135.6,143.2c0,0.2,0.1,0.5-0.1,0.7c0-0.5,0-1.1,0-1.6c0-0.1,0-0.2,0.1-0.3l0.1,0.1
	C135.8,142.6,135.8,142.9,135.6,143.2z"/>
<path style="fill:#959595;" d="M50.7,159.8c0,0.5,0,0.9,0,1.4c0,0.2,0,0.3-0.1,0.5c0-0.5,0-1.1,0-1.6
	C50.5,160,50.6,159.9,50.7,159.8z"/>
<path style="fill:#1F1F20;" d="M68.5,84.2c0.3,0.1,0.5,0.3,0.8,0.5c-0.4,0-0.7-0.2-1-0.4C68.3,84.3,68.4,84.3,68.5,84.2z"/>
<path style="fill:#272727;" d="M74.5,137.3c0,0.2,0.1,0.4,0,0.6c-0.2,0.2,0,0.6-0.2,0.9c-0.1-0.5,0.1-1,0.1-1.5H74.5z"/>
<path style="fill:#919191;" d="M99.5,146.9c0,0.3,0,0.6,0,0.9c0,0.3-0.1,0.4-0.4,0.4c0.2-0.1,0.3-0.2,0.3-0.5
	C99.4,147.4,99.3,147.1,99.5,146.9z"/>
<path style="fill:#00160B;" d="M75.8,167.1c0-0.2,0-0.4,0-0.6c0.1-0.2,0-0.5,0.1-0.7l0,0c0-0.1,0.1,0,0.1,0c0,0.3,0,0.6,0,0.9
	C75.8,166.7,75.9,167,75.8,167.1z"/>
<path style="fill:#E5E5E5;" d="M71.4,139c0,0.3,0,0.7,0,1c0,0.1,0,0.3-0.1,0.4C71.3,139.9,71.3,139.5,71.4,139z"/>
<path style="fill:#E2E2E2;" d="M71.1,143.2c0,0.4,0.1,0.9-0.1,1.3C70.9,144,70.9,143.6,71.1,143.2z"/>
<path style="fill:#00773D;" d="M81.9,176.6c0-0.3-0.1-0.7,0.1-1C82,175.9,82.1,176.3,81.9,176.6z"/>
<path style="fill:#D8D8D8;" d="M55.7,151.6h-0.1c0.1-0.3-0.2-0.7,0.1-1C55.7,150.9,55.7,151.3,55.7,151.6z"/>
<path style="fill:#555555;" d="M122.8,94c-0.1,0-0.2-0.1-0.3-0.2c0.2,0,0.4,0,0.6,0.1C123.1,94,122.9,93.9,122.8,94z"/>
<path style="fill:#3F3F3F;" d="M51.9,94.9c-0.1-0.1-0.2-0.2-0.2-0.4c0.2,0,0.3,0.1,0.4,0.2C52,94.8,51.9,94.9,51.9,94.9z"/>
<path style="fill:#6B7072;" d="M20.8,79.2l0.1-0.1c0.1,0.1,0.2,0.3,0.2,0.4C20.9,79.4,20.8,79.3,20.8,79.2z"/>
<path style="fill:#848B8C;" d="M22.1,78c0.1-0.1,0.1-0.1,0.2-0.2c0.1,0.1,0.2,0.3,0.2,0.5C22.3,78.2,22.2,78.1,22.1,78z"/>
<path style="fill:#242424;" d="M70.1,152.9c0-0.2-0.1-0.5,0-0.7h0.1c0,0.2,0,0.5,0,0.7C70.2,153,70.2,152.9,70.1,152.9
	C70.2,153,70.1,153,70.1,152.9z"/>
<path style="fill:#505050;" d="M173.2,122.7c0,0.1,0,0.2,0,0.3c-0.1-0.1-0.2-0.3-0.2-0.5C173.1,122.6,173.1,122.7,173.2,122.7z"/>
<path style="fill:#414141;" d="M97.4,82.8c-0.1,0.1-0.2,0.1-0.4,0.1c-0.1,0-0.1,0-0.2,0c0.1-0.1,0.1-0.2,0.3-0.2
	C97.2,82.7,97.3,82.7,97.4,82.8z"/>
<linearGradient id="SVGID_7_" gradientUnits="userSpaceOnUse" x1="130.6072" y1="53.919" x2="128.2663" y2="64.7197" gradientTransform="matrix(1 0 0 -1 0 200)">
	<stop  offset="0" style="stop-color:#A2A2A2"/>
	<stop  offset="0.2337" style="stop-color:#9E9E9E"/>
	<stop  offset="0.4434" style="stop-color:#949494"/>
	<stop  offset="0.4901" style="stop-color:#909090"/>
	<stop  offset="0.6552" style="stop-color:#929292"/>
	<stop  offset="0.7511" style="stop-color:#9B9B9B"/>
	<stop  offset="0.8293" style="stop-color:#A9A9A9"/>
	<stop  offset="0.898" style="stop-color:#BDBDBD"/>
	<stop  offset="0.9597" style="stop-color:#D6D6D6"/>
	<stop  offset="0.9866" style="stop-color:#E4E4E4"/>
</linearGradient>
<path style="fill:url(#SVGID_7_);" d="M129.7,128.4c1.2-0.7,2.5-1.4,3.7-2.1c0.2-0.1,0.3-0.3,0.3-0.6c0-1.4,0-2.8,0.1-4.2
	c0-0.3-0.1-0.5-0.2-0.7c-0.6-0.8-1.2-1.6-1.8-2.5c-0.2-0.3-0.4-0.4-0.7-0.3c-2.1,0.5-4.2,0.9-6.2,1.3c-0.4,0.1-0.6,0.2-0.7,0.5
	c-0.6,1-1.1,2-1.7,2.9c-0.5,0.7-0.5,2.6-0.5,2.8c0,1.5-0.1,3.1-0.1,4.6c0,0.7-0.2,8.8-0.2,9.7c0,1.5-0.1,3.1,0,4.6h0.1
	c-0.1,0.1-0.1,0.2,0,0.2l0,0v0.1c0.1,0.2,0.2,0.4,0.4,0.5c0.3,0.5,0.6,0.9,1,1.3c0.2,0.3,0.4,0.6,0.6,0.9c0.2,0.3,0.4,0.3,0.7,0.3
	c2.1-0.5,4.3-0.9,6.4-1.3c0.2,0,0.3-0.1,0.4-0.3c0.2-0.4,0.5-0.8,0.7-1.3c0-0.1,0.1-0.1,0.1-0.2c0.1-0.1,0-0.2,0.1-0.2l0,0
	c0.3-0.4,1.2-1.9,1.2-2c0.2-0.3,0.2-1.2,0.2-1.2c0-2.1,0.2-9.6,0.2-10.9c-0.3,0-0.5,0-0.7,0.1c-0.7,0-1.3,0.2-1.9,0.4
	c-1.1,0.2-2.1,0.4-3.2,0.6c-0.2,0.1-0.5,0.1-0.4,0.4c-0.1,1.3-0.1,2.6-0.1,3.8c0,0.3-0.1,0.6,0,1c0.6-0.1,1.1-0.2,1.7-0.4
	c0.3,0,0.2,0.3,0.2,0.4c0,1.2,0,2.3,0,3.5c0,0.2-0.1,0.4-0.1,0.7c0,0.6,0,0.6-0.6,0.7c-0.9,0.2-1.9,0.3-2.8,0.6
	c-0.1,0.1-0.2,0.1-0.2,0c0-0.4,0-0.8,0-1.2l0,0l0,0c0.1-1.6,0.2-12.9,0.2-13.5c0-0.2,0-2.5,0.2-2.7c0.2-0.3,0.6-0.2,0.9-0.3
	c0.9-0.2,1.7-0.4,2.6-0.5c0,1.6,0,3.1,0,4.5C129.6,128.4,129.7,128.4,129.7,128.4z M133.4,139.2L133.4,139.2L133.4,139.2
	L133.4,139.2z"/>
<path style="fill:#008644;" d="M134,167.1c0,0.2,0.1,0.4-0.1,0.5C133.9,167.4,133.8,167.2,134,167.1z"/>
<path style="fill:#9D9D9D;" d="M172.5,134c0.2,0.1,0.1,0.3,0.1,0.4C172.5,134.3,172.5,134.2,172.5,134z"/>
<path style="fill:#C0C0C0;" d="M75,147c0.1,0.1,0.1,0.2,0.1,0.4H75C75,147.3,75,147.2,75,147z"/>
<path style="fill:#606060;" d="M46.1,89c-0.1,0-0.2,0-0.3-0.1c0.1-0.1,0.2-0.1,0.3,0V89z"/>
<path style="fill:#939393;" d="M136.7,139.2c0,0.1,0,0.3-0.1,0.4c0-0.1,0-0.2,0-0.4C136.6,139.2,136.7,139.2,136.7,139.2z"/>
<path style="fill:#E3E3E3;" d="M113.4,132.1c-0.1-0.1-0.1-0.2-0.1-0.4C113.3,131.8,113.4,131.9,113.4,132.1z"/>
<path style="fill:#E3E3E3;" d="M113.2,131.7c-0.2-0.1-0.1-0.2-0.1-0.4C113.2,131.4,113.3,131.5,113.2,131.7z"/>
<path style="fill:#E3E3E3;" d="M113.1,131.3c-0.2-0.1-0.1-0.2-0.1-0.4C113.1,131,113.1,131.2,113.1,131.3z"/>
<path style="fill:#008745;" d="M149.1,164.4c0-0.1,0-0.2,0.1-0.3C149.3,164.2,149.2,164.3,149.1,164.4z"/>
<path style="fill:#9C9C9C;" d="M133,142.7h0.1c0,0.1,0,0.2-0.1,0.2C133,142.9,133,142.8,133,142.7z"/>
<path style="fill:#999999;" d="M118.3,138.2c0-0.1,0-0.2,0.1-0.2c0,0.1,0,0.2,0,0.2H118.3z"/>
<path style="fill:#008845;" d="M92.6,177.5c0-0.1,0-0.2,0.1-0.2C92.7,177.4,92.7,177.5,92.6,177.5z"/>
<path style="fill:#008D48;" d="M148.4,165.6c0-0.1,0-0.2,0.1-0.2C148.5,165.5,148.5,165.6,148.4,165.6z"/>
<path style="fill:#9C9C9C;" d="M192.2,130.3h0.1c0,0.1,0,0.2-0.1,0.2C192.2,130.5,192.2,130.4,192.2,130.3z"/>
<path style="fill:#008D48;" d="M148.3,165.9c0-0.1,0-0.2,0.1-0.2C148.4,165.7,148.4,165.8,148.3,165.9z"/>
<path style="fill:#696969;" d="M83.2,111.8h0.1c0.1,0,0.1,0,0,0.1C83.3,111.9,83.3,111.9,83.2,111.8z"/>
<path style="fill:#008041;" d="M93.6,175.9c0-0.1,0-0.2,0.1-0.2C93.7,175.8,93.7,175.9,93.6,175.9z"/>
<path style="fill:#008745;" d="M140.6,165.9c0.1,0,0.1,0.1,0.1,0.2C140.7,166,140.6,166,140.6,165.9z"/>
<path style="fill:#00773D;" d="M160.2,157.5c-0.1-0.1-0.1-0.1-0.1-0.3C160.2,157.3,160.2,157.4,160.2,157.5z"/>
<path style="fill:#9F9F9F;" d="M131.9,144.8c0-0.1,0-0.2,0.1-0.2C132.1,144.7,132,144.8,131.9,144.8z"/>
<path style="fill:#00BE61;" d="M157.2,148.4c0,0.1,0,0.2-0.1,0.3C157.1,148.5,157.1,148.4,157.2,148.4z"/>
<path style="fill:#008443;" d="M126,162c0-0.1,0-0.2,0.1-0.2C126.1,161.9,126.1,162,126,162z"/>
<path style="fill:#979797;" d="M102.9,152.3c0.1-0.1,0.2-0.1,0.3-0.1C103.1,152.3,103,152.3,102.9,152.3z"/>
<path style="fill:#767676;" d="M52.3,102.3c0-0.1,0.1-0.1,0.1,0s0,0.1-0.1,0.2C52.3,102.4,52.3,102.3,52.3,102.3z"/>
<path style="fill:#484848;" d="M40,151.6c0-0.1,0-0.2,0-0.2c0.1,0,0.1,0.1,0.1,0.2H40L40,151.6z"/>
<path style="fill:#ABABAB;" d="M48.6,94.2v0.1c-0.1,0-0.1,0-0.1-0.1C48.4,94.2,48.5,94.2,48.6,94.2z"/>
<path style="fill:#ABABAB;" d="M48.6,94.3c0.1-0.1,0.2,0,0.3,0.1C48.7,94.5,48.6,94.5,48.6,94.3z"/>
<path style="fill:#939393;" d="M125.9,142.1c-0.1,0.1-0.2,0.1-0.2,0C125.7,142.1,125.8,142.1,125.9,142.1z"/>
<path style="fill:#A4A4A4;" d="M191.3,132c0-0.1,0-0.2,0.1-0.2C191.4,131.9,191.4,132,191.3,132z"/>
<path style="fill:#A9A9A9;" d="M190.6,133.3c0-0.1,0-0.2,0.1-0.2C190.7,133.1,190.6,133.2,190.6,133.3z"/>
<path style="fill:#4D4D4D;" d="M169.4,124.8c0-0.1,0-0.2,0.1-0.2c0,0.1,0,0.2,0,0.2S169.5,124.8,169.4,124.8z"/>
<path style="fill:#959595;" d="M62,160.8c0.1-0.1,0.2-0.1,0.3-0.1C62.2,160.8,62.1,160.8,62,160.8z"/>
<path style="fill:#717276;" d="M55.6,65.8c0,0.1,0,0.2-0.1,0.3C55.4,65.9,55.5,65.8,55.6,65.8z"/>
<path style="fill:#E3E3E3;" d="M113.5,132.4c-0.1-0.1-0.1-0.2-0.1-0.3C113.5,132.2,113.5,132.3,113.5,132.4z"/>
<path style="fill:#A4A4A4;" d="M191.1,132.4c0-0.1,0-0.2,0.1-0.2C191.2,132.3,191.2,132.4,191.1,132.4z"/>
<path style="fill:#00773D;" d="M155.2,158.7c0-0.1,0-0.2,0.1-0.3C155.3,158.6,155.2,158.7,155.2,158.7z"/>
<path style="fill:#8F8F8F;" d="M43.7,150c0-0.1,0-0.2,0-0.2h0.1C43.8,149.8,43.8,149.9,43.7,150z"/>
<path style="fill:#939393;" d="M170.9,128.9c0,0,0.1-0.1,0.1,0C171,128.9,170.9,129,170.9,128.9C170.9,129,170.9,128.9,170.9,128.9z
	"/>
<path style="fill:#007F40;" d="M106.8,171.9c0,0.1,0,0.2-0.2,0.2C106.7,172,106.7,171.9,106.8,171.9z"/>
<path style="fill:#9C9C9C;" d="M132.9,143.2c0-0.1,0-0.1,0.1-0.2C133,143.1,133,143.1,132.9,143.2z"/>
<path style="fill:#959595;" d="M50.8,159.7c0,0.1,0,0.1-0.1,0.1C50.7,159.8,50.7,159.7,50.8,159.7z"/>
<path style="fill:#007F40;" d="M110.2,171.4l-0.1-0.1C110.1,171.3,110.1,171.4,110.2,171.4z"/>
<path style="fill:#A4A4A4;" d="M191.2,132.2l0.1-0.1C191.3,132.1,191.3,132.2,191.2,132.2z"/>
<path style="fill:#008041;" d="M121.1,169.2l-0.1-0.1C121,169.1,121.1,169.1,121.1,169.2z"/>
<path style="fill:#979797;" d="M110.9,146.7c-0.1,0-0.1-0.1-0.1-0.1C110.9,146.6,110.9,146.6,110.9,146.7z"/>
<path style="fill:#1F1F20;" d="M68.4,84.1c0.1,0,0.1,0,0.1,0.1C68.4,84.2,68.4,84.2,68.4,84.1z"/>
<path style="fill:#9B9B9B;" d="M135.6,142.1c0-0.1,0-0.1,0.1-0.1l0,0C135.8,142.1,135.7,142.2,135.6,142.1L135.6,142.1z"/>
<path style="fill:#1F1F20;" d="M68.1,84.3c-0.1,0-0.1,0-0.1-0.1C68,84.2,68.1,84.3,68.1,84.3z"/>
<path style="fill:#979797;" d="M111,146.8c-0.1,0-0.1-0.1-0.1-0.1C111,146.7,111,146.7,111,146.8z"/>
<path style="fill:#939393;" d="M106.6,146.9l-0.1,0.1v-0.1H106.6z"/>
<path style="fill:#008544;" d="M155.4,162.2c-0.1,0-0.1-0.1-0.1-0.1C155.3,162.1,155.4,162.1,155.4,162.2z"/>
<path style="fill:#9F9F9F;" d="M131.8,145c0-0.1,0-0.1,0.1-0.2C131.9,144.9,131.9,145,131.8,145z"/>
<path style="fill:#008041;" d="M93.8,175.5l0.1-0.1C93.9,175.4,93.9,175.4,93.8,175.5z"/>
<path style="fill:#008041;" d="M93.7,175.7l0.1-0.1C93.8,175.6,93.7,175.7,93.7,175.7z"/>
<path style="fill:#979797;" d="M111.2,146.9c-0.1,0-0.1-0.1-0.1-0.1C111.1,146.8,111.1,146.8,111.2,146.9z"/>
<path style="fill:#979797;" d="M39.7,156.6l0.1-0.1v0.1H39.7C39.8,156.6,39.7,156.6,39.7,156.6z"/>
<path style="fill:#999999;" d="M149.6,138.5c0,0.1,0,0.1-0.1,0.1"/>
<path style="fill:#008845;" d="M92.7,177.3l0.1-0.1C92.8,177.2,92.8,177.3,92.7,177.3z"/>
<path style="fill:#9C9C9C;" d="M192.3,130.4c0-0.1,0-0.1,0.1-0.1C192.4,130.3,192.4,130.3,192.3,130.4z"/>
<path style="fill:#008041;" d="M85.4,177.4l0.1,0.1C85.4,177.5,85.4,177.5,85.4,177.4z"/>
<path style="fill:#008041;" d="M85.5,177.5l0.1,0.1C85.5,177.6,85.5,177.6,85.5,177.5z"/>
<path style="fill:#989898;" d="M118.9,145.2l-0.1-0.1C118.8,145.1,118.9,145.1,118.9,145.2z"/>
<path style="fill:#008745;" d="M149.3,164.1l0.1-0.1C149.4,164.1,149.3,164.1,149.3,164.1z"/>
<path style="fill:#989898;" d="M119,145.3l-0.1-0.1C119,145.2,119,145.3,119,145.3z"/>
<path style="fill:#B9B9B9;" d="M177.2,124.3h-0.1l0.1-0.1C177.2,124.2,177.2,124.3,177.2,124.3z"/>
<path style="fill:#858585;" d="M96.9,82.9c0.1,0,0.1,0,0.2,0C97,83,96.9,83,96.9,82.9C96.8,82.9,96.8,82.9,96.9,82.9z"/>
<path d="M90.8,164.9c0,0.1-0.1,0.2-0.1,0.3c0,1.6,0,3.3,0,4.9c0,1.1,0,2.2,0,3.3c-0.1,1.1-0.1,1.1-1.2,1.4c-0.4,0.1-0.7,0.2-1.1,0.2
	c0-0.3,0-0.6,0-0.9c0.1-0.4,0.1-0.7,0.1-1.1c0-1,0-1.9,0-2.9c0-3,0.2-6.1,0.1-9.1c0.7-0.2,1.4-0.3,2.2-0.5
	C90.8,162,90.8,163.4,90.8,164.9z"/>
<linearGradient id="SVGID_8_" gradientUnits="userSpaceOnUse" x1="157.6248" y1="59.586" x2="154.9968" y2="70.5461" gradientTransform="matrix(1 0 0 -1 0 200)">
	<stop  offset="1.508763e-03" style="stop-color:#A2A2A2"/>
	<stop  offset="0.2345" style="stop-color:#9E9E9E"/>
	<stop  offset="0.4435" style="stop-color:#949494"/>
	<stop  offset="0.4901" style="stop-color:#909090"/>
	<stop  offset="0.6596" style="stop-color:#929292"/>
	<stop  offset="0.7582" style="stop-color:#9B9B9B"/>
	<stop  offset="0.8385" style="stop-color:#A9A9A9"/>
	<stop  offset="0.909" style="stop-color:#BDBDBD"/>
	<stop  offset="0.9724" style="stop-color:#D6D6D6"/>
	<stop  offset="1" style="stop-color:#E4E4E4"/>
</linearGradient>
<path style="fill:url(#SVGID_8_);" d="M154.2,135.6c0-1.4,0-2.7,0-4.1c0-0.4,0.1-0.5,0.5-0.6c0.4,0,0.8-0.2,1.2-0.2
	c0.4-0.1,0.9-0.2,1.3-0.2c0.1,0.7,0,1.3,0,2c0,0.2,0,0.3,0,0.5c-0.1,1.2-0.1,2.5-0.1,3.7c-0.3,0.3-0.5,0.6-0.7,1
	c-0.3,0.2-0.3,0.6-0.2,0.9c-0.1,0.9-0.1,1.9-0.1,2.8c0.2,0,0.4,0,0.6-0.1c1-0.1,1.9-0.4,2.9-0.6c0.8-0.2,1.7-0.3,2.5-0.6
	c0.1,0,0.1-0.1,0.1-0.2c0-1,0.1-2,0-3c0-0.2-0.1-0.3-0.3-0.4l-0.1-0.1l0,0c-0.1-0.2-0.3-0.4-0.5-0.5c-0.1,0-0.1-0.2-0.2-0.3
	c0-0.2,0-0.5,0-0.7l0,0l0,0c0-0.1,0-0.1,0-0.2c0-2,0.1-4.1,0.1-6.1c0-0.1,0-0.2,0-0.4c0-0.1,0.1-4.8,0.1-6.8c0-0.1,0-0.2,0-0.4
	c0-0.5,0.1-4.3,0-5.8c-0.6-0.9-1.3-1.8-2-2.7c-0.2-0.3-0.4-0.3-0.7-0.3c-1.9,0.4-3.8,0.8-5.8,1.2c-0.3,0.1-0.5,0.2-0.6,0.4
	c-0.7,1.2-1.4,2.3-2.1,3.5c-0.1,0.2-0.2,0.5-0.2,0.8c0,1.4-0.1,4.9-0.1,5.1c0,1.9-0.2,6-0.2,6.2c0,1.1,0,2.1,0,3.2c0,1,0,2,0,3
	c0,0.3,0,1.4,0,1.7c0,0.4,0,0.7-0.2,1.1l0,0c-0.1,0.1-0.1,0.2-0.2,0.2l0,0c0,0.1-0.1,0.1-0.1,0.1c-0.3,0.3-0.6,0.6-0.6,1.1
	c0,0.4,0,0.7,0,1.1c0,0,0.1,0,0,0c0,0.3-0.1,0.6,0,0.9c0,0.3-0.1,0.7,0,1.1c0.3,0,0.5-0.1,0.7-0.1c1.5-0.3,2.9-0.6,4.4-0.9
	c1-0.2,1-0.2,0.9-1.2c0.1-0.6,0-1.2,0.1-1.8c0.1-0.5-0.1-0.9-0.6-1.2 M157.5,121.6L157.5,121.6L157.5,121.6L157.5,121.6L157.5,121.6
	z M154.6,121.5c0-0.7,0-1.3,0-2c0-0.3,0.1-0.6,0.5-0.7c0.6-0.2,1.2-0.3,1.9-0.4c0.3,0,0.3,0.8,0.3,1c0,1.7,0,3.4,0,5
	c0,0.5-0.2,0.8-0.7,0.9c-0.4,0.1-0.7,0.1-1.1,0.2c-0.9,0.2-0.9,0.2-0.9-0.7C154.6,124.2,154.6,121.8,154.6,121.5z"/>
<linearGradient id="SVGID_9_" gradientUnits="userSpaceOnUse" x1="79.3312" y1="19.5406" x2="77.3688" y2="28.7976" gradientTransform="matrix(1 0 0 -1 0 200)">
	<stop  offset="0" style="stop-color:#00904A"/>
	<stop  offset="0.2076" style="stop-color:#008B47"/>
	<stop  offset="0.4673" style="stop-color:#007B3F"/>
	<stop  offset="0.5215" style="stop-color:#00773D"/>
	<stop  offset="0.8237" style="stop-color:#00773D"/>
	<stop  offset="0.8628" style="stop-color:#00773D"/>
	<stop  offset="0.8875" style="stop-color:#007F41"/>
	<stop  offset="0.9269" style="stop-color:#00974D"/>
	<stop  offset="0.9758" style="stop-color:#00BC60"/>
	<stop  offset="0.9815" style="stop-color:#00C162"/>
</linearGradient>
<path style="fill:url(#SVGID_9_);" d="M83.8,157.8c-1.4,0.3-2.8,0.6-4.1,0.9c-0.2,0-0.3,0.2-0.3,0.4c0,0.5,0,0.9,0,1.4
	c-0.1,0.6,0.1,1.2,0.6,1.6c0.1,0.1,0.2,0.3,0.2,0.5c-0.1,1.3-0.2,2.6-0.2,3.9c-0.1,1.9-0.3,3.8-0.3,5.6l0,0
	c-0.1,0.1-0.1,0.2-0.1,0.3c0,0.9-0.1,1.8-0.1,2.7c-0.1,0.1-0.1,0.1-0.1,0.2c0-0.4-0.1-0.7-0.1-1.1c-0.1-0.4,0.1-0.8-0.1-1.1l0,0
	c0-0.2,0-0.3,0-0.5c0-0.5,0-1.1-0.1-1.6c0-0.1,0-0.2-0.1-0.3c0-0.1,0-0.2,0-0.3c-0.1-2.6-0.3-5.2-0.4-7.8c-0.1-1.1-0.1-2.2-0.2-3.3
	c0-0.4,0-0.4-0.4-0.3c-1.1,0.2-2.2,0.5-3.3,0.7c-0.3,0.1-0.4,0.2-0.4,0.5c-0.1,1.6-0.3,3.1-0.4,4.7c-0.1,1.1-0.2,2.3-0.3,3.4
	c-0.1,1.3-0.3,2.7-0.3,4c-0.2,0.3-0.1,0.7-0.1,1l0,0l0,0v0.1l0,0c-0.1,0.1-0.1,0.2-0.1,0.3c0,0.7,0,1.4-0.2,2.1
	c0,0.1-0.1,0.3-0.1,0.4c0-0.1-0.1-0.2-0.1-0.3c0-0.6,0-1.2,0-1.8c0-0.3,0.1-0.6-0.1-0.8l0,0c0-0.1,0-0.2,0-0.4
	c-0.1-2.8-0.2-5.7-0.3-8.5c0-0.5,0.1-1,0.4-1.4c0.2-0.2,0.4-0.4,0.4-0.7c0-0.8,0-1.6,0-2.4c-0.1,0-0.2,0-0.2,0
	c-1.5,0.3-2.9,0.6-4.4,0.9c-0.3,0.1-0.3,0.2-0.3,0.4c0,0.5,0,1-0.1,1.5c-0.1,0.6,0.1,1,0.5,1.4c0.2,0.2,0.3,0.4,0.3,0.7
	c0.1,1.9,0.2,3.9,0.4,5.8c0.1,0.9,0.1,1.8,0.2,2.7l0,0l0,0c0,0.5,0,0.9,0.1,1.4c0,0.1,0,0.2,0,0.4c-0.1,1,0.2,2,0.2,3.1
	c0,0.1,0.1,0.1,0.1,0.2l0,0c0,0.6-0.1,1.2,0.1,1.7c0,0.1,0,0.2,0,0.4l0,0l0,0c0,0.5-0.1,0.9,0.1,1.4v0.1c0,0.2,0,0.4,0,0.7
	c0,0.4,0.1,0.5,0.5,0.4c0.8-0.2,1.6-0.3,2.4-0.5c0.5-0.1,1-0.1,1.5-0.4l0,0c0.2-0.4,0.1-0.9,0.1-1.3l0,0c0-0.1,0.1-0.1,0.1-0.2
	c0-0.9,0.2-1.8,0.2-2.7c0.1-0.2,0.1-0.4,0.1-0.6c0-0.3,0-0.6,0.1-0.8c0.1-0.9,0.1-1.8,0.2-2.6c0-0.1,0-0.2,0-0.2
	c0.1-0.4,0.1-0.7,0.1-1.1l0,0l0,0c0.1-0.5,0.1-1,0.1-1.5c0.1-1.3,0.2-2.6,0.4-4c0.1-0.2,0-0.4,0.1-0.6c0-0.1,0-0.2,0-0.3l0,0
	c0,0.1,0,0.3,0.1,0.4c0.1,0.7,0.1,1.3,0.1,2c0.1,1.4,0.1,2.8,0.2,4.1c0,0.1,0,0.2,0,0.2c0,0.1,0,0.2,0,0.2c0,1.1,0.2,2.2,0.1,3.4
	c0,0.1,0.1,0.1,0.1,0.2l0,0c0,0.5,0,0.9,0,1.4c0,0.3-0.1,0.6,0.1,0.9c0,0.3,0,0.7,0,1c0,0.4-0.1,0.9,0.1,1.3c0,0.3,0.2,0.2,0.4,0.2
	c1.3-0.3,2.5-0.5,3.8-0.8c0.4-0.1,0.4-0.1,0.5-0.6l0,0l0,0c0.2-0.8,0.3-1.6,0.2-2.5l0,0c0.2-0.4,0.1-0.8,0.1-1.2
	c0.1-0.3,0-0.7,0.1-1c0-0.1,0-0.2,0-0.4c0.2-0.4,0.1-0.9,0.2-1.3c0.1-0.6,0.1-1.3,0.2-1.9c0-0.1,0-0.2,0-0.2c0-0.1,0-0.2,0-0.2
	c0.2-0.7,0.2-1.5,0.3-2.2c0.2-2.2,0.5-4.5,0.7-6.7c0.1-0.7,0.2-1.4,0.7-1.9c0.1-0.2,0.2-0.4,0.2-0.6c0-0.6,0-1.2,0.1-1.8
	C84.3,157.7,84.3,157.7,83.8,157.8z M75.9,165.9C75.9,165.8,75.9,165.8,75.9,165.9c0-0.1,0-0.1,0-0.1l0,0
	C75.9,165.8,75.9,165.8,75.9,165.9z"/>
<path style="fill:#6B6B6B;" d="M74.5,137.3h-0.1c0-0.2,0-0.3,0.1-0.5C74.5,137,74.5,137.2,74.5,137.3z"/>
<path d="M123.1,153.6c0.3-0.1,0.4,0.1,0.4,0.4c0,1.4,0,2.7,0,4.1c0,0.7-0.1,1.4-0.1,2.1c0,0.3-0.1,0.4-0.4,0.5
	c-0.5,0.1-1.1,0.2-1.6,0.3c-0.3,0.1-0.4,0-0.4-0.3c0-0.5,0-0.9,0-1.4c0.1-0.3,0.1-0.7,0.1-1c0-1.2,0-2.4,0-3.6c0-0.6,0-0.6,0.7-0.8
	C122.2,153.8,122.7,153.7,123.1,153.6z"/>
<path d="M134.9,152.8c-0.1,0.3-0.1,0.6-0.1,1c0,1,0,2,0,3.1c0,0.5,0,0.5-0.5,0.6s-1.1,0.2-1.6,0.3c-0.2,0-0.3,0-0.3-0.2
	c0-1.8,0.1-3.7,0.1-5.5c0.6-0.1,1.3-0.3,1.9-0.4c0.4-0.1,0.4,0,0.5,0.4C134.8,152.3,134.9,152.5,134.9,152.8z"/>
<linearGradient id="SVGID_10_" gradientUnits="userSpaceOnUse" x1="135.078" y1="31.2924" x2="132.9827" y2="40.4761" gradientTransform="matrix(1 0 0 -1 0 200)">
	<stop  offset="0" style="stop-color:#00904A"/>
	<stop  offset="0.2076" style="stop-color:#008B47"/>
	<stop  offset="0.4673" style="stop-color:#007B3F"/>
	<stop  offset="0.5215" style="stop-color:#00773D"/>
	<stop  offset="0.8237" style="stop-color:#00773D"/>
	<stop  offset="0.8628" style="stop-color:#00773D"/>
	<stop  offset="0.8875" style="stop-color:#007F41"/>
	<stop  offset="0.9269" style="stop-color:#00974D"/>
	<stop  offset="0.9758" style="stop-color:#00BC60"/>
	<stop  offset="0.9815" style="stop-color:#00C162"/>
</linearGradient>
<path style="fill:url(#SVGID_10_);" d="M138.7,166.4c-0.1-0.4-0.4-0.6-0.7-0.9l0,0c0-1.4,0-2.7,0-4.1l0,0c0.2-0.9,0.1-1.9,0.1-2.8
	H138v-0.1c0-0.7-0.1-1.5,0.1-2.2c0-0.5,0-0.9,0-1.4c0-0.3,0.1-0.6,0-0.9c0.1-1.6,0.1-3.1,0-4.7c-0.4-0.7-1-1.3-1.4-2
	c-0.2-0.3-0.5-0.4-0.8-0.3c-1.2,0.3-2.5,0.6-3.7,0.8c-0.7,0.1-1.2,0.4-1.5,1.1c-0.4,0.8-1,1.5-1.4,2.4c-0.1,0.1-0.1,0.3-0.1,0.4
	c0,1.5,0,3,0,4.5l0,0c0,0.1-0.1,0.2-0.1,0.3c0,1.6,0,3.2,0,4.8l0,0l0,0c0,1,0,2,0,3.1c-0.1,1-0.1,2-0.1,3.1c-0.2,0.3-0.5,0.6-0.6,1
	l0,0c-0.1,0.1-0.1,0.1-0.2,0.2c-0.1,0.8-0.1,1.7,0,2.5c0,0.1,0.1,0.1,0.2,0c0.5,0,1-0.2,1.4-0.3c1-0.2,1.9-0.3,2.9-0.6l0,0
	c0.3,0,0.4-0.2,0.4-0.4c0-0.7,0-1.4,0-2.1c0-0.1,0-0.2-0.1-0.3l0,0c-0.5-0.5-0.7-1.1-0.6-1.8c0,0,0,0,0-0.1c0-0.2,0-0.5,0-0.7l0,0
	c0.1-0.2,0.1-0.4,0.1-0.6c0-0.7,0-1.4,0-2.1c0-0.3,0.1-0.4,0.4-0.4c0.5-0.1,1-0.2,1.4-0.3c0.5-0.1,0.6-0.1,0.6,0.5c0,1,0,2,0,3.1
	c0,0.2,0,0.5,0,0.7c0,0.3-0.1,0.6-0.3,0.9c-0.1,0.2-0.3,0.3-0.3,0.6l0,0l0,0l0,0l0,0l0,0c-0.1,0.2,0,0.4-0.1,0.5c0,0.4,0,0.7,0,1.1
	c0,0.3,0,0.6-0.1,0.9c0,0.3,0,0.4,0.3,0.3c0.3-0.1,0.6-0.1,0.9-0.2c1.1-0.3,2.3-0.4,3.4-0.7c0.3,0,0.3-0.2,0.3-0.4
	C138.7,167.8,138.7,167.1,138.7,166.4z M134.7,152.9L134.7,152.9c-0.1,0.2-0.1,0.4-0.1,0.6c0,0.8,0,1.5,0,2.3c0,1.5,0.2,1.3-1.4,1.7
	c-0.5,0.1-0.6-0.1-0.6-0.5c0-1.4,0-2.7,0-4.1c0-0.2,0-0.4,0-0.6c0.3-0.3,0.7-0.2,1-0.3C134.7,151.7,134.7,151.7,134.7,152.9z
	 M129.1,160.7L129.1,160.7L129.1,160.7L129.1,160.7z"/>
<linearGradient id="SVGID_11_" gradientUnits="userSpaceOnUse" x1="59.1719" y1="39.4851" x2="57.2756" y2="48.9924" gradientTransform="matrix(1 0 0 -1 0 200)">
	<stop  offset="1.508763e-03" style="stop-color:#A2A2A2"/>
	<stop  offset="0.2345" style="stop-color:#9E9E9E"/>
	<stop  offset="0.4435" style="stop-color:#949494"/>
	<stop  offset="0.4901" style="stop-color:#909090"/>
	<stop  offset="0.6596" style="stop-color:#929292"/>
	<stop  offset="0.7582" style="stop-color:#9B9B9B"/>
	<stop  offset="0.8385" style="stop-color:#A9A9A9"/>
	<stop  offset="0.909" style="stop-color:#BDBDBD"/>
	<stop  offset="0.9724" style="stop-color:#D6D6D6"/>
	<stop  offset="1" style="stop-color:#E4E4E4"/>
</linearGradient>
<path style="fill:url(#SVGID_11_);" d="M59.1,142.1c1-0.6,2.1-1.3,3.1-1.8c0.3-0.2,0.5-0.4,0.5-0.8c0-2.2,0.1-4.5,0.1-6.7
	c0-0.1,0-0.2-0.1-0.4c-1.1,0.2-2.3,0.5-3.5,0.7c-2.6,0.5-5.2,1.1-7.8,1.6c-0.3,0.1-0.5,0.2-0.5,0.5c0,0.9,0,1.8,0,2.6
	c0,0.2,0.1,0.4,0.2,0.5c0.7,0.5,0.8,1.3,0.8,2.1c-0.1,0.8,0,1.6,0,2.4c0,0.4-0.1,0.9,0,1.3l0,0l0,0c-0.1,0.2-0.1,0.4-0.1,0.5
	c0,1.9,0,3.8-0.1,5.6c-0.1,0.2-0.1,0.4-0.1,0.7c0,1.8,0,3.7,0,5.5c0,0.5,0,1.1,0,1.6c0,0.2-0.2,0.4-0.3,0.6
	c-0.2,0.3-0.4,0.6-0.6,0.9l0,0c0,0.1-0.1,0.1-0.1,0.1c-0.1,0.6,0,1.2-0.1,1.9c0,0.3-0.1,0.6,0,0.9c-0.1,0.8,0,0.7,0.6,0.5
	c2.5-0.5,4.9-1,7.4-1.5c1.1-0.2,2.3-0.4,3.4-0.7c0.1-0.1,0.2-0.1,0.3-0.1l0,0l0,0l0,0l0,0c0.1-0.2,0.1-0.4,0.1-0.6c0-1.5,0-3,0-4.5
	c0-0.6,0.1-1.2,0-1.8c0-0.1,0.1-0.2,0-0.3c0.1-0.8,0-1.6,0.1-2.4c-0.1,0-0.2,0-0.2,0c-1.2,0.7-2.3,1.4-3.5,2.1
	c-0.2,0.1-0.3,0.3-0.3,0.6c0,0.7,0,1.5-0.1,2.2c0,0.2,0,0.4-0.3,0.5l0,0c-0.5,0-1,0.2-1.5,0.3c-0.3,0-0.7,0.3-0.9,0.1
	c-0.3-0.2-0.1-0.6-0.1-0.9c0,0,0,0,0-0.1c0-0.2,0.1-0.3,0-0.5c0.1-1,0-2,0.1-3c0-0.2,0-0.3,0-0.5s0-0.3,0-0.5c0,0,0,0-0.1,0
	c0-0.3-0.1-0.6,0.1-0.9c0.4-0.1,0.8-0.2,1.1-0.3c1.2-0.3,2.4-0.5,3.7-0.8c0.3-0.1,0.5-0.1,0.5-0.5c0-0.9,0-1.7,0-2.6
	c0.1-0.7,0.1-1.4,0.1-2.1c0-0.2-0.1-0.3-0.3-0.2c-0.1,0-0.2,0-0.4,0.1c-1.4,0.3-2.8,0.6-4.2,0.9c-0.1,0-0.3,0.1-0.4,0
	c0-0.7,0-1.4,0-2.1c0-0.1,0-0.3,0-0.4c0-1.1,0.1-2.2,0.1-3.3c0-0.5,0-0.5,0.5-0.6c0.6-0.1,1.3-0.3,1.9-0.4c0.1,0,0.3-0.1,0.4,0
	c0,1.3,0,2.6,0,3.9C58.9,142.2,59,142.1,59.1,142.1z"/>
<linearGradient id="SVGID_12_" gradientUnits="userSpaceOnUse" x1="50.7" y1="40.2" x2="50.7" y2="40.2" gradientTransform="matrix(1 0 0 -1 0 200)">
	<stop  offset="1.508763e-03" style="stop-color:#A2A2A2"/>
	<stop  offset="0.2345" style="stop-color:#9E9E9E"/>
	<stop  offset="0.4435" style="stop-color:#949494"/>
	<stop  offset="0.4901" style="stop-color:#909090"/>
	<stop  offset="0.6596" style="stop-color:#929292"/>
	<stop  offset="0.7582" style="stop-color:#9B9B9B"/>
	<stop  offset="0.8385" style="stop-color:#A9A9A9"/>
	<stop  offset="0.909" style="stop-color:#BDBDBD"/>
	<stop  offset="0.9724" style="stop-color:#D6D6D6"/>
	<stop  offset="1" style="stop-color:#E4E4E4"/>
</linearGradient>
<path style="fill:url(#SVGID_12_);" d="M50.7,159.8L50.7,159.8L50.7,159.8z"/>
<path style="fill:#E7E7E7;" d="M171.8,118.8c0,0.1,0,0.1-0.1,0.2C171.6,118.8,171.7,118.8,171.8,118.8L171.8,118.8z"/>
<linearGradient id="SVGID_13_" gradientUnits="userSpaceOnUse" x1="98.2327" y1="46.6398" x2="96.0502" y2="57.5812" gradientTransform="matrix(1 0 0 -1 0 200)">
	<stop  offset="1.508763e-03" style="stop-color:#A2A2A2"/>
	<stop  offset="0.2507" style="stop-color:#9E9E9E"/>
	<stop  offset="0.4741" style="stop-color:#949494"/>
	<stop  offset="0.5239" style="stop-color:#909090"/>
	<stop  offset="0.6822" style="stop-color:#929292"/>
	<stop  offset="0.7742" style="stop-color:#9B9B9B"/>
	<stop  offset="0.8492" style="stop-color:#A9A9A9"/>
	<stop  offset="0.915" style="stop-color:#BDBDBD"/>
	<stop  offset="0.9742" style="stop-color:#D6D6D6"/>
	<stop  offset="1" style="stop-color:#E4E4E4"/>
</linearGradient>
<path style="fill:url(#SVGID_13_);" d="M103.3,142.7c-0.9,0.6-1.8,1.1-2.8,1.7c-1.1,0.7-1.1,0.7-1.1,2.1c0,0.2,0,0.3,0,0.5
	c-0.1,0.3-0.1,0.6,0,0.8c0,0.3-0.1,0.4-0.4,0.4c-0.6,0.1-1.2,0.2-1.8,0.4c-0.1,0-0.2,0-0.2,0c-0.4,0-0.4,0-0.4-0.4
	c0-0.1,0-0.3,0-0.4c0-1.4,0-2.8,0-4.2c0-0.1,0-0.2,0-0.2c0-0.1,0-0.2,0-0.2c0-0.2,0.1-0.3,0-0.5c0-0.3,0.2-0.4,0.5-0.5
	c1.4-0.3,2.9-0.6,4.3-0.9c0.3-0.1,0.5-0.1,0.5-0.5s0-0.9,0-1.3c0-0.4,0-0.4-0.4-0.4c-1,0-2,0-3-0.4l0,0c-0.1,0-0.1-0.1-0.1-0.1l0,0
	c-0.2-0.1-0.3-0.2-0.4-0.4c-0.5-0.7-1.2-1.2-1.6-2c0-0.3-0.2-0.6-0.4-0.8c-0.3-0.5-0.6-1-0.7-1.6c-0.3-1.1-0.8-2.1-1.3-3.1
	c-0.6-1.2-1.1-2.5-1.8-3.6c-0.1-0.1-0.1-0.3-0.4-0.3c0,0.7,0.1,1.4,0,2.1c-0.1,0.8,0.1,1.4,0.7,1.8c0.2,0.2,0.3,0.4,0.3,0.8
	c0,0.9,0,1.8,0,2.7s0,1.8,0,2.8c-0.1,0.2-0.1,0.3-0.1,0.5c0,1.9,0,3.7-0.1,5.6c-0.1,0.3-0.1,0.5-0.1,0.8c0,1.3,0,2.6,0,3.9
	c0,0.8,0,1.5,0,2.3l0,0l0,0c0,0.2-0.1,0.4-0.3,0.6c-0.2,0.2-0.4,0.5-0.5,0.8c-0.2,0.2-0.4,0.4-0.4,0.7c0,0.9,0,1.8,0,2.8
	c0,0.1,0,0.2,0.1,0.2s0.2,0,0.4,0c2.1-0.4,4.3-0.9,6.4-1.3c1.5-0.3,3-0.6,4.6-1c0.1-0.1,0.2,0,0.3-0.1l0,0c0-0.1,0.1-0.1,0.1-0.2
	c0-1.8,0-3.6,0-5.4c0.1-0.2,0.1-0.4,0.1-0.5c0-1,0-2,0-3.1C103.4,143,103.5,142.8,103.3,142.7z M96.4,146.5L96.4,146.5L96.4,146.5
	L96.4,146.5z M103.2,145.4C103.3,145.4,103.3,145.4,103.2,145.4c0.1,0.1,0.1,0.2,0.1,0.3C103.3,145.7,103.3,145.5,103.2,145.4z"/>
<path style="fill:#E2E2E2;" d="M185.3,114.7c0,1.8,0,3.6-0.1,5.4v0.1c0-1.7,0-3.3,0-5C185.2,115,185.1,114.8,185.3,114.7z"/>
<path style="fill:#5C5C5C;" d="M70.1,152.9C70.1,152.9,70.2,152.9,70.1,152.9c0.1,0.1,0.1,0.2,0.1,0.4
	C70.1,153.2,70.1,153.1,70.1,152.9z"/>
<linearGradient id="SVGID_14_" gradientUnits="userSpaceOnUse" x1="189.0939" y1="65.5527" x2="186.2591" y2="78.1255" gradientTransform="matrix(1 0 0 -1 0 200)">
	<stop  offset="1.508763e-03" style="stop-color:#A2A2A2"/>
	<stop  offset="0.2345" style="stop-color:#9E9E9E"/>
	<stop  offset="0.4435" style="stop-color:#949494"/>
	<stop  offset="0.4901" style="stop-color:#909090"/>
	<stop  offset="0.6596" style="stop-color:#929292"/>
	<stop  offset="0.7582" style="stop-color:#9B9B9B"/>
	<stop  offset="0.8385" style="stop-color:#A9A9A9"/>
	<stop  offset="0.909" style="stop-color:#BDBDBD"/>
	<stop  offset="0.9724" style="stop-color:#D6D6D6"/>
	<stop  offset="1" style="stop-color:#E4E4E4"/>
</linearGradient>
<path style="fill:url(#SVGID_14_);" d="M192.7,108.8c-0.6-1-1.4-1.8-2-2.8c-0.2-0.2-0.3-0.2-0.5-0.2c-0.7,0.2-1.5,0.3-2.2,0.5
	c-2.4,0.5-4.7,1-7.1,1.5c-0.3,0.1-0.4,0.2-0.4,0.5c0,0.6,0,1.2,0,1.8c0,1.3,0,1.3,1,2.2c0,0.5,0,0.9,0,1.4c0,0.7-0.1,2.6-0.1,2.8
	c0,1.8-0.2,6-0.2,6.3c0,1.1,0,2.2,0,3.2s0,2,0,3c0,0,0,2.3-0.1,2.7c-0.3,0.4-0.6,0.8-0.9,1.2l0,0c-0.2,0.3-0.1,1.3-0.1,1.5
	c0,0.3-0.1,1.6,0,2c0.1,0,0.3,0,0.4,0c2.9-0.6,5.8-1.2,8.6-1.8c1.1-0.2,1.1-0.2,1.6-1.2l1.7-2.9c0.1-0.1,0.1-1,0.1-1.2
	c0.1-2.8,0-5.5,0.1-8.3c0-0.6,0.1-6.1,0.1-6.2c0-1.8,0.1-3.5,0.1-5.3C192.8,109,192.8,108.9,192.7,108.8z M185.3,120.1
	c0-1.8,0-3.5,0-5.3c0-0.1,0.04-1.09,0.1-1.5c0.15-0.7,0.1-0.8,0.8-1c0.5-0.1,1-0.2,1.6-0.3c0.5-0.1,0.6,0.1,0.6,0.5
	c0,0.4-0.1,1.8-0.1,2c0,1.6,0,3.3,0,4.9c0,0.1,0,8.7,0,9.3v0.1c-0.1,0.1-0.2,0.1-0.3,0.2c-0.8,0.2-1.6,0.3-2.4,0.6h-0.1
	c-0.2-0.2-0.3-0.5-0.3-0.8 M188.6,115.1L188.6,115.1L188.6,115.1L188.6,115.1z"/>
<linearGradient id="SVGID_15_" gradientUnits="userSpaceOnUse" x1="192.3" y1="69.65" x2="192.3" y2="69.65" gradientTransform="matrix(1 0 0 -1 0 200)">
	<stop  offset="1.508763e-03" style="stop-color:#A2A2A2"/>
	<stop  offset="0.2345" style="stop-color:#9E9E9E"/>
	<stop  offset="0.4435" style="stop-color:#949494"/>
	<stop  offset="0.4901" style="stop-color:#909090"/>
	<stop  offset="0.6596" style="stop-color:#929292"/>
	<stop  offset="0.7582" style="stop-color:#9B9B9B"/>
	<stop  offset="0.8385" style="stop-color:#A9A9A9"/>
	<stop  offset="0.909" style="stop-color:#BDBDBD"/>
	<stop  offset="0.9724" style="stop-color:#D6D6D6"/>
	<stop  offset="1" style="stop-color:#E4E4E4"/>
</linearGradient>
<polygon style="fill:url(#SVGID_15_);" points="192.3,130.3 192.3,130.3 192.3,130.4 "/>
<linearGradient id="SVGID_16_" gradientUnits="userSpaceOnUse" x1="44.5601" y1="36.1312" x2="42.4984" y2="45.7641" gradientTransform="matrix(1 0 0 -1 0 200)">
	<stop  offset="1.508763e-03" style="stop-color:#A2A2A2"/>
	<stop  offset="0.2345" style="stop-color:#9E9E9E"/>
	<stop  offset="0.4435" style="stop-color:#949494"/>
	<stop  offset="0.4901" style="stop-color:#909090"/>
	<stop  offset="0.6596" style="stop-color:#929292"/>
	<stop  offset="0.7582" style="stop-color:#9B9B9B"/>
	<stop  offset="0.8385" style="stop-color:#A9A9A9"/>
	<stop  offset="0.909" style="stop-color:#BDBDBD"/>
	<stop  offset="0.9724" style="stop-color:#D6D6D6"/>
	<stop  offset="1" style="stop-color:#E4E4E4"/>
</linearGradient>
<path style="fill:url(#SVGID_16_);" d="M49,135.1c-1.9,0.4-3.8,0.8-5.8,1.2c-0.2,0-0.3,0.2-0.3,0.4c0,0.9,0,1.8,0,2.7
	c0,0.2,0,0.4,0.2,0.5c0.1,0.1,0.2,0.3,0.4,0.4c0.3,0.3,0.5,0.6,0.4,1.1c0,1.1,0,2.2,0,3.3l0,0l0,0c-0.1,0.2-0.1,0.4-0.1,0.7
	c0,1.5,0,2.9-0.1,4.4c0,0,0,0.1-0.1,0.1c0,0,0,0,0-0.1c-0.3-0.9-0.5-1.8-0.9-2.6v-0.1c0-0.1,0-0.2-0.1-0.3l0,0l0,0l0,0
	c0-0.1,0-0.3-0.1-0.4c0-0.1,0-0.3-0.1-0.4c0-0.1,0-0.3-0.1-0.4c0-0.1,0-0.3-0.1-0.4l0,0c-0.1-0.6-0.3-1.1-0.5-1.7
	c-0.6-2-1.2-4-1.9-6c-0.1-0.4-0.1-0.4-0.5-0.4c-1.2,0.3-2.5,0.5-3.7,0.8c-0.3,0.1-0.4,0.2-0.4,0.5c0,0.8,0,1.6-0.1,2.5
	c0,0.3,0.1,0.5,0.3,0.8c0.3,0.3,0.6,0.6,0.8,0.9c-0.1,0.2-0.1,0.4-0.1,0.7c0,1.5,0,3.1-0.1,4.6c0,0.7-0.1,1.3,0,2
	c-0.1,0.2-0.1,0.4-0.1,0.5c0,1.8,0,3.7-0.1,5.5c-0.1,0.3-0.1,0.5-0.1,0.8c0,1.7,0,3.3-0.1,5c-0.4,0.5-0.7,0.9-1,1.5
	c-0.2,0.9-0.1,1.9-0.1,2.8c0,0.1,0,0.3,0,0.4c0.1,0.1,0.2,0.1,0.2,0c0.8-0.1,1.6-0.3,2.4-0.5c1-0.2,2-0.4,3-0.6
	c0.3-0.1,0.4-0.2,0.4-0.4c0-0.1,0-0.2,0-0.3c0.1-0.5,0.1-1,0.1-1.5c0-1.2,0-1.2-0.8-2.1c0,0,0,0-0.1,0l0,0c-0.1-0.2-0.1-0.5-0.1-0.7
	c0-1.2,0-2.4,0-3.6h-0.1l0.1-0.1c0-0.1,0-0.2,0-0.4c0-0.1,0.1-0.2,0-0.4c0-0.2,0-0.4,0-0.7c0-1.2,0.1-2.3,0.1-3.5
	c0.1-0.1,0-0.1,0.1-0.2c0,0.1,0,0.2,0.1,0.2c0,0.1,0.1,0.3,0.1,0.4c0.3,1,0.7,2,1,3c0,0.1,0,0.3,0.1,0.4c0,0.1,0,0.3,0.1,0.4
	c0,0.1,0,0.3,0.1,0.4c0.3,1.1,0.6,2.1,1,3.1c0.1,0.7,0.3,1.3,0.6,2l0,0c0.1,0.5,0.3,1.1,0.5,1.6c0.1,0.5,0.3,1,0.4,1.5
	c0,0.2,0.1,0.2,0.3,0.2c1.3-0.3,2.6-0.5,3.8-0.8c0.3,0,0.4-0.1,0.4-0.4c0-0.8,0-1.6,0-2.4c0-0.5-0.1-0.9-0.5-1.1
	c-0.1-0.2-0.3-0.4-0.5-0.5l0,0c0-1,0-1.9,0-2.9c0-0.9,0-1.7,0-2.6c0-0.7,0.1-1.4,0-2.1c0-0.5,0.1-1,0-1.5c0-0.4,0.1-0.8,0-1.2V149
	c0.1-1.8,0.1-3.6,0.1-5.4c0-1.1,0.1-2.2,0.1-3.2c0-0.3,0-0.5,0.2-0.7c0.7-0.8,0.9-1.7,0.9-2.7c0-0.3,0-0.7,0-1
	C49,135.7,49.1,135.4,49,135.1z"/>
<path style="fill:#444444;" d="M78.6,150.9h0.1c0,0.2,0,0.4,0,0.6C78.5,151.3,78.6,151.1,78.6,150.9z"/>
<linearGradient id="SVGID_17_" gradientUnits="userSpaceOnUse" x1="109.1821" y1="48.958" x2="106.9166" y2="59.5435" gradientTransform="matrix(1 0 0 -1 0 200)">
	<stop  offset="1.508763e-03" style="stop-color:#A2A2A2"/>
	<stop  offset="0.2345" style="stop-color:#9E9E9E"/>
	<stop  offset="0.4435" style="stop-color:#949494"/>
	<stop  offset="0.4901" style="stop-color:#909090"/>
	<stop  offset="0.6596" style="stop-color:#929292"/>
	<stop  offset="0.7582" style="stop-color:#9B9B9B"/>
	<stop  offset="0.8385" style="stop-color:#A9A9A9"/>
	<stop  offset="0.909" style="stop-color:#BDBDBD"/>
	<stop  offset="0.9724" style="stop-color:#D6D6D6"/>
	<stop  offset="1" style="stop-color:#E4E4E4"/>
</linearGradient>
<path style="fill:url(#SVGID_17_);" d="M111.2,146.9c-0.1,0-0.1-0.1-0.1-0.1l0,0c-0.1,0-0.1-0.1-0.1-0.1l0,0c-0.1,0-0.1-0.1-0.1-0.1
	l0,0c-0.1-0.2-0.2-0.2-0.3-0.4c0-0.3,0-0.7,0-1c0-1.5,0-3.1,0-4.6c0-0.1,0-0.2,0-0.2c0-0.1,0-0.2,0-0.4c0.1-0.2,0-0.3-0.2-0.3
	c-0.3,0-0.5,0-0.8,0c-0.4-0.1-0.9-0.1-1.4-0.1c-0.2-0.1-0.5-0.1-0.8-0.2c-1-0.1-0.9-0.1-0.8,0.8c0,0.1,0,0.2,0,0.4
	c0,0.1,0,0.2,0,0.2c0,0.1,0,0.2,0,0.4c0,0.1,0,0.2,0,0.2c-0.1,1.9-0.1,3.8-0.1,5.7h0.1l-0.1,0.1c-0.2,0.1-0.3,0.3-0.3,0.5
	c-0.5,0.5-0.8,1.1-0.7,1.9c0,0.6,0,1.2,0,1.8c0,0.1,0,0.3,0,0.4c0,0.2,0.1,0.2,0.3,0.1c0.2,0,0.3,0,0.5-0.1c1.5-0.3,2.9-0.6,4.4-0.9
	c1-0.2,1-0.2,0.9-1.2c0.1-0.7,0.1-1.4,0.1-2.2C111.5,147.2,111.3,147,111.2,146.9z"/>
<linearGradient id="SVGID_18_" gradientUnits="userSpaceOnUse" x1="111.4371" y1="51.7269" x2="111.3628" y2="52.074" gradientTransform="matrix(1 0 0 -1 0 200)">
	<stop  offset="1.508763e-03" style="stop-color:#A2A2A2"/>
	<stop  offset="0.2345" style="stop-color:#9E9E9E"/>
	<stop  offset="0.4435" style="stop-color:#949494"/>
	<stop  offset="0.4901" style="stop-color:#909090"/>
	<stop  offset="0.6596" style="stop-color:#929292"/>
	<stop  offset="0.7582" style="stop-color:#9B9B9B"/>
	<stop  offset="0.8385" style="stop-color:#A9A9A9"/>
	<stop  offset="0.909" style="stop-color:#BDBDBD"/>
	<stop  offset="0.9724" style="stop-color:#D6D6D6"/>
	<stop  offset="1" style="stop-color:#E4E4E4"/>
</linearGradient>
<path style="fill:url(#SVGID_18_);" d="M111.4,148.3c0-0.1,0-0.2,0-0.3c0,0,0,0,0-0.1C111.4,148,111.4,148.2,111.4,148.3z"/>
<linearGradient id="SVGID_19_" gradientUnits="userSpaceOnUse" x1="119.7026" y1="51.1383" x2="117.277" y2="62.4715" gradientTransform="matrix(1 0 0 -1 0 200)">
	<stop  offset="1.508763e-03" style="stop-color:#A2A2A2"/>
	<stop  offset="0.2345" style="stop-color:#9E9E9E"/>
	<stop  offset="0.4435" style="stop-color:#949494"/>
	<stop  offset="0.4901" style="stop-color:#909090"/>
	<stop  offset="0.6596" style="stop-color:#929292"/>
	<stop  offset="0.7582" style="stop-color:#9B9B9B"/>
	<stop  offset="0.8385" style="stop-color:#A9A9A9"/>
	<stop  offset="0.909" style="stop-color:#BDBDBD"/>
	<stop  offset="0.9724" style="stop-color:#D6D6D6"/>
	<stop  offset="1" style="stop-color:#E4E4E4"/>
</linearGradient>
<path style="fill:url(#SVGID_19_);" d="M119,145.3l-0.1-0.1l0,0l-0.1-0.1l0,0c-0.1-0.2-0.3-0.4-0.5-0.5l0,0c0-0.2,0-0.4,0-0.7
	c0-0.8,0-1.6,0-2.4l0,0l0,0c0.1-1.1,0.1-2.2,0.1-3.4h-0.1c0.1-0.1,0-0.2,0.1-0.2c0-0.2,0.1-0.4,0-0.6c0-1.4,0.1-2.8,0.1-4.3
	c0-1.4,0-2.9,0-4.3c0-1,0.1-2,0.1-3c0-0.3,0-0.6,0.3-0.8c0.7-0.7,0.9-1.5,0.8-2.5c-0.1-0.6,0-1.3,0-1.9c-0.1,0-0.1,0-0.1,0
	c-1.8,0.4-3.7,0.8-5.5,1.1c-0.3,0.1-0.4,0.2-0.4,0.5c0,0.7,0,1.3,0,2c-0.1,0.6,0.1,1.2,0.6,1.6c0.3,0.3,0.4,0.6,0.4,1
	c0,1-0.1,2,0,3.1c-0.1,0.5-0.1,1-0.1,1.5c0,1.3,0,2.5,0,3.9c-0.3-0.2-0.3-0.5-0.3-0.7c-0.2-0.6-0.4-1.3-0.7-2v-0.1
	c-0.1-0.1-0.1-0.2-0.1-0.3l0,0l0,0c-0.1-0.1,0-0.3-0.1-0.4l0,0c-0.1-0.1,0-0.3-0.1-0.4l0,0c-0.1-0.1,0-0.3-0.1-0.4
	c0-0.1,0-0.3-0.1-0.4c-0.4-1.4-0.8-2.7-1.3-4.1c-0.4-1.2-0.7-2.4-1.1-3.6c-0.1-0.2-0.1-0.4-0.3-0.3c-0.8,0.2-1.6,0.3-2.3,0.5
	c1.2,2,2.3,4.1,3.4,6.1c0.3,0.6,0.7,1.3,1,2c0.3,0.8,0.7,1.5,0.9,2.3c0.5,1.4,1.4,2.7,1.7,4.3v0.1l0,0c0,0.5,0.1,1.1-0.1,1.6
	c-0.3,0.6-0.8,0.8-1.4,0.6c-0.2,0-0.4-0.1-0.5-0.1c-0.3,0-0.7-0.1-1,0c0.4,1.1,0.6,2.2,1.1,3.2v0.1c0.1,0.1,0,0.3,0.1,0.4
	c0.1,0.4,0.2,0.8,0.4,1.1c0.1,0.7,0.3,1.3,0.6,2l0,0c0.1,0.5,0.3,1.1,0.5,1.6l0,0c0.1,0.5,0.3,0.9,0.4,1.4c0,0.2,0.1,0.3,0.3,0.2
	c1.3-0.3,2.5-0.5,3.8-0.8c0.3,0,0.4-0.1,0.4-0.3c0-0.9,0-1.9,0-2.8C119.3,145.6,119.2,145.4,119,145.3z"/>
<linearGradient id="SVGID_20_" gradientUnits="userSpaceOnUse" x1="118.2" y1="59.6" x2="118.2" y2="59.6" gradientTransform="matrix(1 0 0 -1 0 200)">
	<stop  offset="1.508763e-03" style="stop-color:#A2A2A2"/>
	<stop  offset="0.2345" style="stop-color:#9E9E9E"/>
	<stop  offset="0.4435" style="stop-color:#949494"/>
	<stop  offset="0.4901" style="stop-color:#909090"/>
	<stop  offset="0.6596" style="stop-color:#929292"/>
	<stop  offset="0.7582" style="stop-color:#9B9B9B"/>
	<stop  offset="0.8385" style="stop-color:#A9A9A9"/>
	<stop  offset="0.909" style="stop-color:#BDBDBD"/>
	<stop  offset="0.9724" style="stop-color:#D6D6D6"/>
	<stop  offset="1" style="stop-color:#E4E4E4"/>
</linearGradient>
<path style="fill:url(#SVGID_20_);" d="M118.2,140.4L118.2,140.4L118.2,140.4L118.2,140.4z"/>
<linearGradient id="SVGID_21_" gradientUnits="userSpaceOnUse" x1="142.2614" y1="56.4979" x2="139.7261" y2="67.2542" gradientTransform="matrix(1 0 0 -1 0 200)">
	<stop  offset="1.508763e-03" style="stop-color:#A2A2A2"/>
	<stop  offset="0.2345" style="stop-color:#9E9E9E"/>
	<stop  offset="0.4435" style="stop-color:#949494"/>
	<stop  offset="0.4901" style="stop-color:#909090"/>
	<stop  offset="0.6596" style="stop-color:#929292"/>
	<stop  offset="0.7582" style="stop-color:#9B9B9B"/>
	<stop  offset="0.8385" style="stop-color:#A9A9A9"/>
	<stop  offset="0.909" style="stop-color:#BDBDBD"/>
	<stop  offset="0.9724" style="stop-color:#D6D6D6"/>
	<stop  offset="1" style="stop-color:#E4E4E4"/>
</linearGradient>
<path style="fill:url(#SVGID_21_);" d="M146.8,131.7c-0.1,0-0.1,0-0.1,0c-1.2,0.7-2.4,1.4-3.5,2.1c-0.2,0.1-0.3,0.3-0.3,0.6
	c0,1.5,0,3.1,0,4.6l0,0c-0.3,0.2-1.7,0.4-1.9,0.5c-0.2,0-0.2-0.1-0.2-0.3c0-0.3,0-0.7,0-1l0,0l0,0c0-0.1,0-0.1,0-0.2
	c0-1.6,0-3.2,0-4.8c0-0.1,0-0.2,0-0.2c0-0.1,0-0.2,0-0.4c0-0.1,0-0.2,0-0.4c0-0.6,0.2-7.4,0.2-7.6c0-1.1,0.1-2.2,0.1-3.3
	c0-0.4,0.1-0.8,0.4-1.2c0.6-0.6,0.8-1.3,0.7-2.1c0-0.7,0-1.4,0-2.1h-0.1c-2,0.4-4,0.8-6,1.2c-0.2,0-0.3,0.2-0.3,0.4
	c0,0.6,0,1.1,0,1.7c0,1.3,0,1.3,0.9,2.3c0,0,0,0,0.1,0c0,1.2-0.1,5.1-0.1,5.2c0,1.9,0,3.8-0.1,5.7c-0.1,0.3-0.1,0.5-0.1,0.8
	c0,1.2,0,2.4,0,3.5c0,0.9,0,1.7,0,2.6c0,0-0.04,0.9,0,1.1c0,0.3-0.1,0.6-0.3,0.8c-0.2,0.3-0.6,0.9-0.6,0.9l-0.1,0.1
	c0,0.4-0.2,3.1-0.1,3.5c0.1,0,0.2,0,0.3,0c2.5-0.5,5.1-1,7.6-1.6c1.1-0.2,2.1-0.4,3.2-0.7c0.1,0,0.1-0.1,0.1-0.2c0-0.6,0-1.3,0-1.9
	l0,0c0.1-0.2,0.1-6.4,0.2-9.2C146.9,131.8,146.9,131.7,146.8,131.7z M146.7,139.9L146.7,139.9L146.7,139.9
	C146.7,140,146.6,140,146.7,139.9C146.6,139.9,146.7,139.9,146.7,139.9z"/>
<linearGradient id="SVGID_22_" gradientUnits="userSpaceOnUse" x1="78.7163" y1="42.541" x2="76.5352" y2="53.4756" gradientTransform="matrix(1 0 0 -1 0 200)">
	<stop  offset="1.508763e-03" style="stop-color:#A2A2A2"/>
	<stop  offset="0.2345" style="stop-color:#9E9E9E"/>
	<stop  offset="0.4435" style="stop-color:#949494"/>
	<stop  offset="0.4901" style="stop-color:#909090"/>
	<stop  offset="0.6596" style="stop-color:#929292"/>
	<stop  offset="0.7582" style="stop-color:#9B9B9B"/>
	<stop  offset="0.8385" style="stop-color:#A9A9A9"/>
	<stop  offset="0.909" style="stop-color:#BDBDBD"/>
	<stop  offset="0.9724" style="stop-color:#D6D6D6"/>
	<stop  offset="1" style="stop-color:#E4E4E4"/>
</linearGradient>
<path style="fill:url(#SVGID_22_);" d="M85,127.8c-0.1,0-0.1,0-0.1,0c-1.9,0.4-3.8,0.8-5.8,1.2c-0.2,0-0.3,0.2-0.3,0.4
	c0,0.6,0,1.2,0,1.8c-0.1,0.8,0,1.5,0.7,2c0.2,0.2,0.3,0.4,0.2,0.6c-0.1,0.8-0.1,1.6-0.2,2.3c0,1.2-0.2,2.4-0.2,3.6
	c0,0.1-0.1,0.2-0.1,0.3c-0.1,1.7-0.2,3.4-0.3,5.2c-0.1,0.4-0.1,0.7-0.1,1.1c0,0.3,0,0.6,0,0.9c-0.1,0.2-0.1,0.4-0.1,0.6
	c-0.1,0.9-0.1,1.8-0.2,2.7c-0.1,0.1-0.1,0.2-0.1,0.2c-0.1-0.5,0-1-0.1-1.5c0-0.7-0.1-1.4-0.1-2.1c0-0.2,0-0.3,0-0.5
	c0-0.3,0-0.7-0.1-1c0-0.5,0-1-0.1-1.5c0-0.1,0-0.2-0.1-0.3c0.1-0.4,0-0.8,0-1.2c-0.1-0.9-0.1-1.8-0.2-2.7c0-0.1,0-0.3,0-0.4l0,0l0,0
	l0,0c0-0.1,0-0.2,0-0.2c-0.1-2.7-0.3-5.3-0.4-8c0-0.6-0.1-1.1-0.1-1.7c0-0.2-0.1-0.3-0.3-0.3c-0.1,0-0.2,0-0.3,0.1
	c-1.3,0.3-2.6,0.5-4,0.8c-0.7,0.1-0.6,0-0.7,0.7c-0.1,1.4-0.3,2.8-0.4,4.2c-0.1,1.3-0.3,2.6-0.3,3.9c-0.1,0.5,0.1,0.9-0.1,1.4l0,0
	l0,0c-0.2,0.9-0.2,1.8-0.2,2.7c-0.1,0.4,0.1,0.9-0.1,1.3c0,0.1,0,0.1,0,0.2c-0.2,0.9-0.2,1.8-0.2,2.7c-0.1,0.5-0.1,0.9-0.1,1.4l0,0
	c-0.1,0.2-0.1,0.4-0.1,0.5c-0.1,1-0.1,2-0.3,2.9c0,0,0,0.1-0.1,0.1v-0.1c-0.1-0.5,0-1-0.1-1.5l0,0c0-0.3,0-0.6,0-1
	c0-0.1,0-0.2,0-0.2c0-0.1,0-0.2,0-0.4c0-1,0-1.9-0.1-2.9c-0.1-2.4-0.1-4.8-0.2-7.2c0-0.1,0-0.2-0.1-0.3l0,0l0,0c0-0.7,0-1.3,0-2
	c-0.1-0.9,0.1-1.7,0.7-2.4c0.1-0.1,0.3-0.3,0.3-0.5c0-1,0-2.1,0-3.1c-0.4,0-0.9,0.1-1.3,0.2c-1.5,0.3-2.9,0.6-4.4,0.9
	c-0.6,0.1-0.5,0-0.5,0.6s0,1.2,0,1.8c-0.1,0.7,0.1,1.3,0.7,1.7c0.3,0.2,0.4,0.5,0.4,0.9c0.1,1.4,0.2,2.9,0.3,4.3
	c0.1,0.8,0,1.6,0.2,2.4c0,1.1,0.1,2.2,0.2,3.2c0,0.7,0,1.4,0.2,2.1c0,0.1,0,0.2,0,0.4c0,0.1,0,0.2,0,0.4c0,0.3,0,0.7,0.1,1
	c0,0.4,0,0.8,0,1.2c0.1,0.7,0,1.4,0.2,2c0,0.1,0,0.2,0,0.3c0,0.6,0,1.2,0.1,1.7c0,0.6,0,1.2,0.1,1.8c0,0.6,0,1.2,0.1,1.8
	c0,0.1,0,0.2,0.1,0.2s0.3,0,0.4,0c1.3-0.3,2.5-0.5,3.8-0.8c0.4-0.1,0.8-0.1,1.2-0.3c0.2-0.5,0.1-0.9,0.1-1.4l0,0c0.1-1,0.2-2,0.2-3
	l0,0c0.1-0.5,0.1-1,0.1-1.5c0.1-0.1,0.1-0.3,0-0.4c0.2-1.2,0.2-2.3,0.3-3.5v-0.1c0-0.1,0-0.2,0-0.2c0.1-0.3,0.1-0.7,0.1-1
	c0,0,0,0-0.1,0c0-0.1,0-0.1,0.1-0.2c0.1-1.1,0.3-2.1,0.3-3.2l0,0l0,0c0.1-0.4-0.1-0.9,0.1-1.3c0.1-1,0.2-2,0.2-3
	c0-0.3,0.1-0.6,0.1-0.9c0-0.5,0.1-0.9,0.2-1.4v-0.1v0.1c0,0.2-0.1,0.4,0,0.6c0,0.1,0,0.2,0,0.4c0.1,1.1,0.1,2.2,0.2,3.3
	c0,0.8,0,1.6,0.1,2.5c0,1,0.1,2,0.1,2.9c0.1,0.1,0,0.2,0.1,0.4h-0.1c0.1,1.9,0.2,3.7,0.3,5.6v0.1l0,0c0,0.8,0,1.6,0.1,2.3l0,0l0,0
	c0,0.8,0,1.6,0.1,2.3c0,0.4,0.3,0.2,0.4,0.1c1.7-0.3,3.3-0.7,5-1c0.5-0.1,0.5-0.1,0.6-0.7l0,0l0,0c0.2-0.8,0.2-1.6,0.2-2.5l0,0
	c0.1-0.4,0.1-0.8,0.1-1.2l0,0l0,0c0.1-0.4,0.1-0.8,0.1-1.2c0.1-0.3,0-0.7,0.1-1c0-0.1,0-0.2,0-0.4c0.2-1.2,0.3-2.4,0.4-3.6l0,0
	c0.1-0.2,0-0.4,0.1-0.6c0-0.2,0-0.4,0-0.6c0.2-0.9,0.2-1.8,0.3-2.7c0.1-1.1,0.3-2.2,0.3-3.3c0-0.2,0.1-0.4,0.1-0.6
	c0.2-1.7,0.4-3.3,0.5-5c0-0.7,0.2-1.2,0.7-1.7c0.4-0.5,0.5-1,0.5-1.6C85,129.3,85,128.5,85,127.8z"/>
<linearGradient id="SVGID_23_" gradientUnits="userSpaceOnUse" x1="74.3671" y1="63.0922" x2="74.4303" y2="63.0922" gradientTransform="matrix(1 0 0 -1 0 200)">
	<stop  offset="1.508763e-03" style="stop-color:#A2A2A2"/>
	<stop  offset="0.2345" style="stop-color:#9E9E9E"/>
	<stop  offset="0.4435" style="stop-color:#949494"/>
	<stop  offset="0.4901" style="stop-color:#909090"/>
	<stop  offset="0.6596" style="stop-color:#929292"/>
	<stop  offset="0.7582" style="stop-color:#9B9B9B"/>
	<stop  offset="0.8385" style="stop-color:#A9A9A9"/>
	<stop  offset="0.909" style="stop-color:#BDBDBD"/>
	<stop  offset="0.9724" style="stop-color:#D6D6D6"/>
	<stop  offset="1" style="stop-color:#E4E4E4"/>
</linearGradient>
<path style="fill:url(#SVGID_23_);" d="M74.4,136.9C74.3,137,74.4,136.8,74.4,136.9C74.4,136.9,74.4,137,74.4,136.9
	C74.4,137,74.4,136.9,74.4,136.9z"/>
<path style="fill:#B9B9B9;" d="M173.2,123C173.3,122.9,173.2,123,173.2,123C173.2,122.9,173.2,122.9,173.2,123
	C173.2,122.9,173.2,123,173.2,123z"/>
<linearGradient id="SVGID_24_" gradientUnits="userSpaceOnUse" x1="174.3932" y1="63.0819" x2="171.5364" y2="74.6264" gradientTransform="matrix(1 0 0 -1 0 200)">
	<stop  offset="1.508763e-03" style="stop-color:#A2A2A2"/>
	<stop  offset="0.2345" style="stop-color:#9E9E9E"/>
	<stop  offset="0.4435" style="stop-color:#949494"/>
	<stop  offset="0.4901" style="stop-color:#909090"/>
	<stop  offset="0.6596" style="stop-color:#929292"/>
	<stop  offset="0.7582" style="stop-color:#9B9B9B"/>
	<stop  offset="0.8385" style="stop-color:#A9A9A9"/>
	<stop  offset="0.909" style="stop-color:#BDBDBD"/>
	<stop  offset="0.9724" style="stop-color:#D6D6D6"/>
	<stop  offset="1" style="stop-color:#E4E4E4"/>
</linearGradient>
<path style="fill:url(#SVGID_24_);" d="M178.4,108.4c-0.4,0.1-0.8,0.1-1.1,0.2c-1.5,0.3-3,0.6-4.5,0.9c-0.3,0.1-0.4,0.2-0.4,0.4
	c0,0.6,0,1.2,0,1.8c0,1.2,0,1.2,0.8,2.1c0,0,0.1,0,0.1,0.1c0.1,0.2,0,0.5,0,0.7c0,1.1,0,2.3,0,3.4c-0.1,0.2-0.1,0.4-0.1,0.7
	c0,1.3,0,2.7-0.1,4c0,0,0,0.1,0,0.2c0,0,0,0,0,0.1c-0.1-0.1-0.1-0.2-0.2-0.3c-0.2-0.5-0.3-1-0.5-1.5c-0.2-0.8-0.4-1.6-0.7-2.3l0,0
	c-0.1-0.4-0.2-0.8-0.4-1.2c0,0,0,0,0-0.1c-0.7-2.3-1.4-4.6-2.1-6.9c-0.1-0.3-0.2-0.3-0.5-0.2c-1.3,0.3-2.6,0.6-3.8,0.8
	c-0.3,0.1-0.4,0.2-0.4,0.4c0,0.8,0,1.6-0.1,2.4c0,0.4,0.1,0.7,0.3,0.9c0.3,0.3,0.6,0.5,0.7,0.9c0,0.1,0,0.2,0,0.2
	c0,2.1-0.1,4.3-0.1,6.4c-0.1,1.6-0.1,3.1-0.1,4.7c0,1.1,0,2.3,0,3.4c-0.1,0.2-0.1,0.4-0.1,0.7c0,1.2,0,2.4-0.1,3.6
	c-0.1,0.1-0.1,0.1-0.2,0.2l0,0c-0.3,0.4-0.6,0.8-0.8,1.2v0.1c0,0.1,0,0.1,0,0.1c0,0.5,0,1.1,0,1.6l-0.1,0.1c0,0.3,0,0.6,0,1
	c0,0.2,0,0.4,0.3,0.3c1.8-0.3,3.6-0.7,5.4-1.1c0.3-0.1,0.3-0.3,0.3-0.5c0.1-0.6,0.1-1.2,0.1-1.8c0-1.2,0-1.2-0.9-2.1c0,0,0,0-0.1,0
	l0,0c0,0,0-0.1-0.1-0.1c0.1-2.7,0-5.5,0.2-8.2c0-0.1,0-0.2,0-0.4c0-0.2,0-0.4,0-0.6c0,0,0,0,0-0.1c0,0,0.1,0,0.1,0.1
	c0.1,0.2,0.2,0.4,0.2,0.6s0.1,0.3,0.1,0.5c0,0.1,0,0.2,0.1,0.3v0.1c0,0.1,0,0.2,0.1,0.3c0.2,0.8,0.4,1.6,0.7,2.4c0.1,0,0-0.1,0,0
	c0.1,0,0,0.1,0,0.1c0,0.1,0,0.3,0.1,0.4c0.1,0.7,0.4,1.3,0.6,2c0.1,0.5,0.2,1,0.5,1.5l0,0c0.1,0.4,0.2,0.8,0.4,1.2l0,0
	c0.1,0.1,0,0.3,0.1,0.4c0,0.3,0.1,0.6,0.3,0.8c0.1,0.5,0.3,1,0.5,1.5c0,0.2,0.1,0.4,0.2,0.7c0,0.2,0.2,0.3,0.4,0.3
	c1.3-0.3,2.6-0.6,3.9-0.8c0.1,0,0.2,0,0.2-0.2c0-1.1,0-2.1,0-3.2c0,0,0-0.1-0.1-0.1c-0.2-0.1-0.3-0.3-0.4-0.5l0,0l-0.1-0.1l0,0
	l-0.1-0.1l0,0c0-0.1-0.1-0.2-0.2-0.3c0-0.8,0-1.5,0-2.3l0,0l0,0c0-0.1,0-0.1,0-0.2c0-1.7,0-3.4,0.1-5.1c0-0.1,0-0.2,0-0.2
	c0-0.1,0-0.2,0-0.2s0,0-0.1,0c0,0,0-0.1,0.1-0.1c0-0.1,0.1-0.2,0-0.4c0-0.5,0.1-1.1,0.1-1.6c0-1.8,0.1-3.6,0.1-5.4
	c0-0.1,0-0.2,0-0.4c0-0.7,0.1-1.4,0.1-2c-0.1-0.9,0.2-1.7,0.8-2.4c0.2-0.3,0.3-0.6,0.3-0.9c0-0.8,0-1.6,0-2.3
	C178.5,108.7,178.5,108.5,178.4,108.4z"/>
<path style="fill:#B9B9B9;" d="M165.5,126.5L165.5,126.5L165.5,126.5z"/>
</svg>
