<?xml version="1.0" encoding="utf-8"?>
<!-- Generator: Adobe Illunola_strator 24.1.0, SVG Export Plug-In . SVG Version: 6.00 Build 0)  -->
<svg version="1.1" id="Layer_1" xmlns="http://www.w3.org/2000/svg" xmlns:xlink="http://www.w3.org/1999/xlink" x="0px"
	y="0px" viewBox="0 0 200 200" nola_style="enable-background:new 0 0 200 200;" xml:space="preserve">
	<style type="text/css">
		.nola_st0 {
			fill: #840FFC;
		}

		.nola_st1 {
			fill: #010001;
		}

		.nola_st2 {
			fill: #030203;
		}

		.nola_st3 {
			fill: #000001;
		}

		.nola_st4 {
			fill: #8423E7;
		}

		.nola_st5 {
			fill: #010002;
		}

		.nola_st6 {
			fill: #EAEAEA;
		}

		.nola_st7 {
			fill: #FDFCFE;
		}

		.nola_st8 {
			fill: #FCFAFE;
		}

		.nola_st9 {
			fill: #E8E8E8;
		}

		.nola_st10 {
			fill: #FEFEFE;
		}

		.nola_st11 {
			fill: #820EF9;
		}

		.nola_st12 {
			fill: #820EF8;
		}

		.nola_st13 {
			fill: #8322E4;
		}
	</style>
	<g>
		<path class="nola_st0" d="M86.01,165.6c-0.45-0.1-0.73,0.26-1.07,0.43c-6.62,3.47-15.02,2.31-19.98-2.79c-1.49-1.53-2.57-3.31-3.23-5.34
		c-0.19-0.6-0.48-0.75-1.07-0.73c-1.7,0.04-3.38-0.06-5.07-0.35c-1.02-0.18-1.96,0.06-2.64,1.21c-2.79,4.74-8.61,7.39-13.93,6.48
		c-5.99-1.02-10.55-5.19-11.73-10.82c-0.51-2.44-0.2-4.92-0.26-7.38c-0.02-0.84,0.72-0.32,1.12-0.62c-0.71-1.64-1.2-3.36-1.15-5.22
		c0.09-3.19,1.01-6.1,3.02-8.6c0.41-0.51,0.39-0.73-0.12-1.15c-8.28-6.84-11.48-15.77-10.52-26.28c0.86-9.49,5.06-17.16,13.07-22.5
		c5.92-3.95,12.53-5.37,19.59-4.81c3.65,0.29,7.16,1.12,10.55,2.47c0.72,0.29,0.93,0.13,1.18-0.57c1.64-4.72,2.7-9.6,4.26-14.34
		c2.14-6.51,4.89-12.75,9.38-18.04c1.12-1.31,1.97-2.72,2.7-4.26C85.82,30.33,92.25,18.63,98.5,6.84c0.51-0.97,1.03-1.93,1.61-3.02
		c0.7,1.36,1.34,2.62,1.98,3.88c6.32,12.46,12.9,24.79,18.87,37.43c0.14,0.3,0.29,0.61,0.51,0.85c4.76,5.52,7.76,11.98,9.91,18.87
		c1.47,4.7,2.82,9.43,4.19,14.16c0.21,0.74,0.44,0.8,1.15,0.53c8.37-3.18,16.89-3.64,25.28-0.46c8.36,3.17,13.64,9.58,16.59,17.87
		c3.85,10.81,2.3,20.83-4.87,29.89c-1.35,1.7-2.94,3.19-4.67,4.5c-0.54,0.41-0.52,0.65-0.15,1.16c1.68,2.3,2.52,4.89,2.51,7.75
		c-0.01,1.5,0,3,0,4.5c0,0.37,0.12,0.76-0.52,0.85c-0.63,0.09-0.16,0.58-0.08,0.84c1.26,4.35,0.75,8.46-1.8,12.22
		c-5.61,8.25-18.25,7.91-23.55-0.62c-0.38-0.61-0.75-0.87-1.48-0.85c-1.73,0.05-3.47,0.03-5.2,0c-0.47-0.01-0.69,0.13-0.85,0.6
		c-2.29,6.76-8.58,11.03-17.34,9.92c-2.57-0.32-5-1.07-7.48-2.57c0.96,2.6,2.04,4.83,3.46,6.9c1.42,2.08,3.36,3.68,5.22,5.49
		c-0.94,0.4-1.87,0.27-2.76,0.35c-3.16,0.28-6.32,0.4-9.34-0.9c-0.56-0.24-1.14-0.96-1.65-0.66c-0.46,0.27-0.36,1.15-0.48,1.76
		c-0.76,3.99-2.19,7.73-4.19,11.26c-1.24,2.2-2.4,4.45-3.59,6.68c-0.06-0.02-0.13-0.02-0.15-0.06c-2-4.06-4.57-7.81-6.5-11.91
		c-1.09-2.3-1.84-4.71-1.96-7.28c-0.03-0.58-0.07-0.99-0.83-0.55c-2.04,1.19-4.27,1.61-6.61,1.6c-2.19-0.01-4.38,0-6.56,0
		c-0.03-0.08-0.06-0.16-0.09-0.24c0.6-0.54,1.17-1.12,1.81-1.62c3.39-2.65,5.47-6.22,7.13-10.09c0.04-0.09,0.02-0.19,0.02-0.29
		c0.04-0.03,0.09-0.06,0.13-0.09c-0.03-0.01-0.05-0.02-0.08-0.04C86.04,165.5,86.02,165.55,86.01,165.6z M45.23,133.19l-0.02-0.02
		c0.58,2.08,1.79,3.91,2.42,6.11c-1.06-0.33-1.97-0.62-2.88-0.91c-1.55-0.74-3.19-1.2-4.81-1.74c-1.64-0.78-3.28-1.56-4.93-2.34
		c-0.38-0.26-0.78-0.5-1.15-0.78c-0.34-0.26-0.56-0.16-0.85,0.12c-3.55,3.44-3.45,9.67,0.2,12.98c0.9,0.81,1.78,1.64,2.84,2.62
		c-1.55,0-2.84,0-4.13,0c-1.51,0-1.51,0-1.51,1.54c0.01,4.97,3.36,9.15,8.2,10.21c5.02,1.1,9.98-1.27,12.02-5.83
		c0.42-0.94,0.82-1.54,1.98-1.44c0.71,0.06,1.45-0.14,2.14-0.42c0.32-0.13,0.64-0.18,0.97-0.05c1.3,0.51,2.66,0.51,4.03,0.56
		c0.73,0.03,0.87-0.23,0.86-0.9c-0.04-2.36-0.02-4.73-0.01-7.1c0-0.29-0.17-0.67,0.3-0.84c1.21-0.44,2.41-0.91,3.73-1.41
		c0,0.4,0,0.69,0,0.98c0,2.8,0.02,5.6-0.01,8.39c-0.01,0.63,0.14,0.87,0.82,0.86c3.56-0.03,7.13,0.01,10.69-0.03
		c1.87-0.02,3.5-0.71,4.84-2.05c1.32-1.33,1.33-1.32,2.7-0.11c4.06,3.58,10.52,2.61,13.01-2.18c0.86-1.65,1.78-2.13,3.41-1.81
		c0.06,0.01,0.13,0.01,0.2,0.01c0.63-0.06,0.88,0.18,0.86,0.85c-0.05,1.26-0.01,2.53-0.01,3.8c0,1.52,0.03,1.69,1.53,1.46
		c2.6-0.39,5.16-0.07,7.74-0.01c7.46,0.16,14.92,0.05,22.39,0.05c0.94,0,1.87-0.11,2.75-0.43c0.5-0.18,0.93-0.17,1.44,0
		c1.87,0.62,3.81,0.66,5.71,0.24c1.16-0.25,2.21-0.39,3.38-0.03c0.73,0.23,1.17,0.46,1.49,1.2c2.19,5.11,7.88,7.71,13.16,5.99
		c7.67-2.5,9.2-11.62,5.09-16.3c-0.59-0.68-1.22-1.36-1.66-2.29c1.14,0,2.17-0.01,3.2,0c0.38,0,0.61-0.05,0.63-0.53
		c0.08-2.16-0.13-4.25-1.23-6.18c-1.11-1.94-1.16-1.96-2.99-0.75c-1.53,0.71-3.07,1.42-4.6,2.13c-1.91,0.59-3.8,1.25-5.65,2
		c-0.05,0.06-0.1,0.12-0.14,0.18l0.02-0.01c-0.51-0.2-0.92,0.39-1.43,0.19l0.02,0.01c-0.03-0.35,0.19-0.63,0.31-0.93
		c0.82-1.96,1.64-3.91,2.47-5.87c0.14-0.34,0.31-0.66,0.42-1.01c0.1-0.3,0.39-0.67,0.14-0.92c-0.24-0.25-0.62-0.01-0.93,0.07
		c-2.33,0.58-4.12,1.97-5.62,3.77c-0.43,0.51-0.69,0.54-1.09-0.05c-0.88-1.32-1.98-2.4-3.45-3.09c-1.7-0.79-3.48-1.03-5.34-1.03
		c-29.21,0.01-58.42,0.01-87.63,0.01c-0.2,0-0.4,0.02-0.6,0c-0.53-0.07-0.69,0.15-0.67,0.68c0.04,0.98,0.01,1.96,0.01,3.09
		c-1.99-1.17-3.55-2.78-5.89-3.28c0.36,0.9,0.65,1.63,0.95,2.37C45.12,133.06,45.18,133.13,45.23,133.19z M114.81,40.4
		c0.01,0.05,0.01,0.09,0.02,0.14c0.03-0.01,0.06-0.02,0.09-0.02c-0.04-0.03-0.08-0.07-0.13-0.1c0.01-0.43-0.26-0.75-0.43-1.1
		c-4.52-9.19-9.28-18.27-13.95-27.39c-0.1-0.19-0.12-0.44-0.47-0.53c-5.09,9.53-10.2,19.05-15.04,28.9
		c4.04-1.71,7.77-3.54,11.49-5.4c2.18-1.09,4.44-1.06,6.65,0c1.74,0.83,3.43,1.76,5.17,2.6C110.37,38.54,112.56,39.55,114.81,40.4z
		 M85.39,174.17c0.51,0.19,0.97-0.01,1.45-0.15c1.43-0.41,2.64-1.23,3.93-1.92c1.45-0.77,2.89-1.53,4.34-2.3
		c0.12,0.02,0.23,0.04,0.35,0.05c-2.57,7.26,0.45,13.17,4.18,18.88c4.15-5.78,4.62-12.74,6.32-19.41c1.28,1.23,2.2,2.6,3.5,3.59
		c1.35,1.03,3.29,1.67,4.59,1.51c-1.02-1.46-2.01-2.93-2.66-4.57c-1.7-4.32-3.9-8.37-6.36-12.29c-0.26-0.41-0.47-0.49-0.93-0.47
		c-1.9,0.07-3.8,0.04-5.69,0.09c-0.55,0.01-0.68-0.19-0.66-0.69c0.03-0.85,0.01-1.7,0.01-2.69c-1.37,1.05-2.76,1.77-3.21,3.52
		c-0.3,1.18-1.04,2.23-1.75,3.24c-0.57,0.82-1.33,1.54-1.75,2.42c-1.79,3.78-3.37,7.66-5.64,11.19c-0.04,0.03-0.07,0.07-0.11,0.1
		c0.03,0,0.05,0.01,0.08,0.01C85.38,174.26,85.38,174.22,85.39,174.17z M89.71,126.75c4.72,0,9.45,0.01,14.17,0.01
		c9.06,0,18.13-0.01,27.19,0c0.7,0,1.28-0.18,1.85-0.58c4.95-3.46,9.53-7.37,14.09-11.31c3.01-2.6,3.67-5.4,2.53-9.06
		c-1.12-3.59-2.8-6.63-6.42-8.17c-1.42-0.6-2.27-1.55-2.52-3.07c-0.16-0.94-0.7-1.54-1.65-1.8c-1.13-0.3-2.16-0.87-3.22-1.33
		c-0.9-0.39-1.42-1.04-1.57-2.02c-0.2-1.28-0.33-2.59-0.68-3.83c-1.9-6.61-3.83-13.22-5.81-19.8c-1.26-4.18-2.98-8.18-5.23-11.94
		c-2.78-4.63-6.2-8.61-11.27-10.81c-3.2-1.4-6.34-2.93-9.44-4.53c-1.36-0.7-2.64-0.69-4,0c-2.88,1.46-5.74,2.94-8.72,4.18
		c-2.77,1.15-5.19,2.83-7.3,4.97c-3.54,3.6-5.83,7.98-7.86,12.53c-2.07,4.64-3.2,9.57-4.62,14.42c-1.33,4.56-3.14,8.98-3.77,13.74
		c-0.22,1.67-1.12,2.82-2.64,3.48c-0.85,0.37-1.74,0.67-2.6,1.02c-0.64,0.26-1.18,0.64-1.3,1.39c-0.26,1.66-1.3,2.71-2.71,3.49
		c-1.14,0.63-2.25,1.3-3.24,2.15c-1.28,1.09-2.23,2.39-2.52,4.08c-0.25,1.48-0.59,2.93-1.01,4.37c-0.57,1.9-0.14,3.55,1.32,4.91
		c5.04,4.66,10.2,9.18,15.87,13.07c0.49,0.34,0.99,0.47,1.58,0.47c2.53-0.01,5.06,0.01,7.6,0.02c2.96,0,5.91-0.01,8.87-0.01
		C86.33,126.76,88.02,126.75,89.71,126.75z M158.18,133.43c3.43-1.15,8.44-4.15,11-6.79c8.1-8.34,10-18.08,6.05-28.9
		c-2.72-7.44-7.61-13.02-15.22-15.79c-4.56-1.66-9.32-1.78-14.1-1.25c-2.89,0.32-5.68,1.08-8.38,2.17c-0.54,0.22-0.7,0.48-0.54,1.04
		c0.21,0.7,0.48,1.42,0.48,2.14c-0.01,1.96,1.1,2.72,2.82,3.17c2.02,0.53,3.3,1.95,3.87,3.94c0.17,0.6,0.45,0.95,1.01,1.22
		c5.83,2.88,9.77,10.69,8.61,17.07c-0.11,0.61,0.04,0.95,0.47,1.36c4.33,4.17,5.72,9.36,5.2,15.2
		C159.28,129.84,158.7,131.56,158.18,133.43z M41.44,133.52c-0.32-1.2-0.62-2.18-0.84-3.17c-1.47-6.58-0.09-12.4,4.72-17.26
		c0.34-0.35,0.46-0.61,0.32-1.11c-0.44-1.58-0.36-3.16,0.08-4.73c0.32-1.15,0.68-2.3,0.84-3.49c0.38-2.82,1.79-5.04,3.93-6.85
		c1.17-0.99,2.47-1.8,3.81-2.55c0.42-0.23,0.79-0.47,0.88-1c0.37-2.03,1.67-3.27,3.49-4.04c0.64-0.27,1.29-0.55,1.96-0.74
		c0.75-0.21,1.05-0.67,1.14-1.42c0.12-0.99,0.27-1.98,0.54-2.94c0.22-0.77,0.06-1.12-0.7-1.4c-3.23-1.21-6.53-2.07-9.98-2.31
		c-8.2-0.55-15.56,1.58-21.29,7.58c-7.92,8.28-9.55,18.23-6.16,28.92C26.86,125.44,33.53,130.05,41.44,133.52z M89.01,157.18
		c-2.29-0.16-4.35-0.74-6.19-1.97c-0.26-0.17-0.45-0.18-0.71,0.01c-2.2,1.62-4.71,2.02-7.37,1.97c-3.16-0.06-6.32-0.01-9.49-0.01
		c0.65,3.52,5.11,6.77,10.06,7.38C80.85,165.23,86.85,162.04,89.01,157.18z M110.59,157.17c0.63,1.36,1.36,2.46,2.31,3.39
		c3.88,3.82,8.65,4.47,13.71,3.5c3.55-0.68,6.06-2.89,7.61-6.17c0.29-0.61,0.23-0.84-0.5-0.76c-0.63,0.07-1.26,0.03-1.9,0.03
		C124.79,157.17,117.77,157.17,110.59,157.17z M138.89,126.61c0.14,0.08,0.19,0.14,0.24,0.14c3.3-0.06,6.32,0.74,8.93,2.83
		c0.32,0.25,0.51,0.16,0.77-0.04c1.97-1.51,4.22-2.36,6.67-2.69c0.44-0.06,0.66-0.2,0.66-0.66c0.04-3.94-1.01-7.48-3.75-10.42
		c-0.34-0.36-0.54-0.43-0.94-0.02c-3.31,3.38-6.9,6.44-10.63,9.35C140.2,125.58,139.56,126.09,138.89,126.61z M60.45,126.75
		c-0.03-0.14-0.03-0.19-0.05-0.2c-4.35-3.31-8.4-6.96-12.4-10.66c-0.31-0.29-0.48-0.21-0.72,0.05c-2.72,2.89-3.9,6.36-3.82,10.28
		c0.01,0.31,0,0.67,0.45,0.78c0.88,0.22,1.76,0.48,2.72,0.75c-0.21-0.95,0.28-1.01,0.98-1.01
		C51.87,126.77,56.13,126.75,60.45,126.75z" />
		<path class="nola_st1" d="M75.78,126.78c-2.53-0.01-5.06-0.03-7.6-0.02c-0.59,0-1.09-0.13-1.58-0.47c-5.67-3.9-10.84-8.41-15.87-13.07
		c-1.47-1.36-1.89-3.01-1.32-4.91c0.43-1.44,0.76-2.89,1.01-4.37c0.29-1.68,1.25-2.99,2.52-4.08c0.99-0.85,2.1-1.52,3.24-2.15
		c1.41-0.78,2.45-1.82,2.71-3.49c0.12-0.75,0.66-1.13,1.3-1.39c0.86-0.35,1.74-0.65,2.6-1.02c1.53-0.66,2.42-1.81,2.64-3.48
		c0.63-4.75,2.43-9.18,3.77-13.74c1.42-4.85,2.55-9.78,4.62-14.42c2.03-4.55,4.32-8.93,7.86-12.53c2.1-2.14,4.53-3.82,7.3-4.97
		c2.99-1.23,5.85-2.72,8.72-4.18c1.36-0.69,2.64-0.7,4,0c3.1,1.6,6.23,3.14,9.44,4.53c5.07,2.21,8.49,6.18,11.27,10.81
		c2.25,3.76,3.97,7.75,5.23,11.94c1.98,6.59,3.91,13.19,5.81,19.8c0.36,1.24,0.48,2.55,0.68,3.83c0.15,0.98,0.67,1.63,1.57,2.02
		c1.07,0.46,2.09,1.03,3.22,1.33c0.94,0.25,1.49,0.86,1.65,1.8c0.25,1.52,1.1,2.47,2.52,3.07c3.62,1.53,5.3,4.57,6.42,8.17
		c1.14,3.65,0.48,6.46-2.53,9.06c-4.57,3.95-9.14,7.85-14.09,11.31c-0.57,0.4-1.14,0.59-1.85,0.58c-9.06-0.01-18.12,0-27.19,0
		c0.99-1.69,2.87-2.79,3.36-5.08c-2.48,1.41-4.8,2.7-7.09,4.05c-0.8,0.47-1.49,0.53-2.31,0.02c-2.26-1.4-4.6-2.69-6.84-4.12
		c-9.04-5.81-17.12-12.77-24.59-20.47c-1.34-1.38-2.75-2.67-2.15-4.92c-2.31,0.74-3.44,2.54-3.14,4.73
		c0.29,2.12,1.52,3.73,2.84,5.29c3.94,4.65,8.51,8.62,13.26,12.4c0.39,0.31,0.88,0.62,0.56,1.22c-0.32,0.58-0.81,0.28-1.23,0.11
		c-6.17-2.45-12.1-5.36-17.65-9.02c-2.32-1.53-4.26-3.28-4.21-6.41c-0.5,0.81-0.81,1.64-1.07,2.5c-0.57,1.82-0.24,3.42,1.2,4.73
		c0.71,0.65,1.41,1.32,2.15,1.95c5.54,4.67,11.66,8.52,17.83,12.27C75.14,126.21,75.61,126.32,75.78,126.78z M138.37,115.79
		c0.16,0.19,0.3,0.04,0.42-0.04c2.26-1.5,4.26-3.3,6.02-5.36c0.19-0.23,0.39-0.48,0.4-0.79c0.07-2.45-0.55-4.68-2.01-6.67
		c0.06,3.61-1.15,6.8-2.97,9.81c-0.62,1.02-1.23,2.04-1.84,3.07c-0.04,0.04-0.07,0.07-0.11,0.11c0.04,0,0.08,0.01,0.12,0.01
		C138.4,115.87,138.39,115.83,138.37,115.79z M109.02,112.23c0.32-0.17,0.66-0.31,0.97-0.5c2.62-1.63,4.96-3.6,7.12-5.78
		c4.16-4.18,7.86-8.68,10.36-14.09c0.54-1.18,0.65-2.34,0.44-3.59c-1.09-6.51-3.53-12.52-6.71-18.26c-0.14-0.25-0.23-0.59-0.63-0.73
		c0.02,0.24,0.02,0.41,0.06,0.57c1.14,5.13,2.22,10.27,2.88,15.5c0.3,2.37,0.46,4.71-0.61,6.95c-1.81,3.79-3.91,7.41-6.38,10.82
		c-2.31,3.2-5.08,5.99-7.65,8.97c-0.07,0.09-0.13,0.18-0.2,0.27C108.83,112.45,108.93,112.36,109.02,112.23z M84.73,108.78
		c0.28-0.65-0.18-0.89-0.45-1.2c-3.55-4.06-6.52-8.51-8.94-13.31c-1.62-3.2-2.02-6.61-0.52-9.94c1.97-4.36,3.72-8.82,5.76-13.16
		c0.79-1.68,1.84-3.16,3.34-4.3c4.08-3.1,8.51-5.57,13.29-7.42c1.23-0.48,2.36-0.5,3.56,0.04c2.15,0.97,4.33,1.88,6.51,2.79
		c0.52,0.22,1.03,0.53,1.77,0.48c-2.65-2.88-5.6-5.17-8.94-6.98c-1.49-0.81-1.62-1.22-0.97-2.8c1.29-3.14,1.25-6.28,0.05-9.44
		c-0.22-0.59-0.44-0.85-1.13-0.53c-2.04,0.97-4.1,1.9-6.19,2.77c-7.78,3.23-12.1,9.52-15.09,17.04c1.06-0.38,1.75-1.28,2.64-1.88
		c0.48-0.33,1.06-0.88,1.59-0.5c0.5,0.36,0.13,1.07-0.03,1.59c-0.74,2.53-1.94,4.88-3.03,7.27c-2.52,5.51-5.02,11.02-6.78,16.83
		c-0.98,3.25-0.68,6.36,1.32,9.14c2.53,3.52,5.11,6.99,8.13,10.12C81.83,106.67,83.14,107.85,84.73,108.78z M102.87,66.82
		c-0.24,0.76,0.16,1.1,0.59,1.45c0.59,0.48,1.22,0.94,1.75,1.48c0.69,0.7,0.69,1.32-0.04,1.98c-0.76,0.69-1.61,1.28-2.43,1.9
		c-1.03,0.78-1.59,0.76-2.56-0.08c-0.94-0.82-1.5-0.83-2.45-0.05c-1.11,0.91-1.57,0.93-2.69-0.01c-1.07-0.9-2.16-1.78-3.42-2.41
		c-1.78-0.89-3.62-1.08-5.51-0.4c-1.15,0.41-1.65,1.38-2.03,2.52c0.23,0,0.34,0.03,0.42,0c2.67-1.06,5.08-0.43,7.37,1.1
		c0.91,0.61,1.81,1.23,2.74,1.82c1.88,1.2,2.85,1.05,4.32-0.66c0.25,0.21,0.5,0.43,0.76,0.64c1.23,1.03,1.64,1.08,3.04,0.34
		c0.94-0.5,1.86-1.03,2.7-1.69c2.12-1.65,4.45-2.49,7.17-1.76c0.03,0.01,0.09-0.06,0.23-0.17
		C109.61,70.62,106.41,68.51,102.87,66.82z M121.92,117.85c0.32-0.1,0.43-0.1,0.5-0.15c4.96-3.54,9.54-7.47,13.16-12.42
		c0.87-1.2,1.51-2.5,1.76-3.98c0.56-3.41-1.22-5.81-4.29-5.78c0,0.06-0.04,0.15-0.01,0.19c1.68,2.52,1.05,4.85-0.55,7.12
		c-1.64,2.34-3.23,4.73-4.87,7.07C125.77,112.5,123.89,115.08,121.92,117.85z M90.48,86.67c-3.11,0.45-5.7-0.82-8.43-1.69
		c-0.07,1.25,0.45,2.05,1.44,2.68c2.7,1.73,4.42,4.19,5.22,7.29c0.13,0.52,0.4,1.05,0.23,1.61c-0.54,0.06-1.01-0.72-1.4-0.23
		c-0.33,0.41,0.1,1,0.25,1.5c0.03,0.1,0.07,0.19,0.11,0.28c1.74,3.49,4.15,6.41,7.31,8.71c0.5,0.36,1.03,0.68,1.8,0.74
		c-3.73-4.57-5.29-9.72-4.88-15.53c-0.58,0.17-0.81,0.58-1.09,0.93c-0.53,0.66-1.19,0.61-1.54-0.16c-0.67-1.46-0.85-2.93,0.01-4.4
		C89.83,87.89,90.1,87.36,90.48,86.67z M114.81,50.84c1.22,6.65,4.24,11.62,7.73,12.83C121.9,60.21,117.12,52.23,114.81,50.84z
		 M115.56,84.12c-2.67,2.96-4.22,6.12-4.09,9.97C112.82,90.85,115.96,88.35,115.56,84.12z M92.62,77.92
		c-0.91-0.86-1.87-1.48-3.01-1.8c-0.58-0.17-1.08,0.02-1.34,0.55c-0.27,0.55,0.1,0.94,0.52,1.24C90.01,78.78,91.31,78.8,92.62,77.92
		z M107.04,78.41c0.84,0.01,1.5-0.08,2-0.58c0.31-0.31,0.74-0.66,0.4-1.2c-0.29-0.47-0.77-0.66-1.29-0.51
		c-0.5,0.15-1,0.36-1.45,0.62c-0.5,0.28-1.4,0.6-1.26,1.06C105.63,78.41,106.53,78.38,107.04,78.41z" />
		<path class="nola_st2" d="M39.95,136.63c1.62,0.55,3.26,1,4.81,1.74c0.14,0.37,0.38,0.73,0.41,1.11c0.04,0.54,0.32,0.54,0.72,0.54
		c1.07-0.01,2.13-0.01,3.2,0c0.35,0,0.52-0.05,0.54-0.48c0.11-2.3-2.15-5.6-4.41-6.37c0,0,0.02,0.02,0.02,0.02
		c0.07-0.18-0.08-0.16-0.17-0.19c-0.29-0.74-0.59-1.48-0.95-2.37c2.35,0.5,3.9,2.11,5.89,3.28c0-1.12,0.03-2.11-0.01-3.09
		c-0.02-0.52,0.15-0.74,0.67-0.68c0.2,0.02,0.4,0,0.6,0c29.21,0,58.42,0,87.63-0.01c1.86,0,3.64,0.24,5.34,1.03
		c1.47,0.68,2.58,1.76,3.45,3.09c0.39,0.59,0.66,0.56,1.09,0.05c1.51-1.8,3.3-3.19,5.62-3.77c0.32-0.08,0.7-0.32,0.93-0.07
		c0.25,0.26-0.05,0.62-0.14,0.92c-0.11,0.34-0.28,0.67-0.42,1.01c-0.31,0.1-0.64,0.18-0.94,0.31c-3.3,1.4-5.28,4.73-5.04,8.43
		c0.18,2.69,2.36,4.75,6.03,5.66c0.42,0.1,0.7,0.28,0.93,0.65c1.01,1.61,1.02,1.6,2.54,0.56c1.12-0.77,2.41-0.5,2.91,0.76
		c0.85,2.15,0.54,4.19-1.63,5.31c-2.14,1.1-5.21,0.44-5.89-1.56c-0.48-1.42-1.24-1.48-2.37-1.39c-0.56,0.05-1.14,0.05-1.7,0
		c-0.77-0.08-0.87,0.24-0.76,0.92c0.62,3.93,4.09,6.95,8.23,7.12c4.1,0.17,7.75-2.5,8.69-6.38c1.07-4.4-0.86-8.02-4.93-9.03
		c-0.81-0.2-1.24-0.6-1.62-1.27c-0.63-1.12-0.66-1.11-1.74-0.38c-0.14,0.09-0.3,0.16-0.41,0.28c-0.59,0.59-1.22,0.5-1.91,0.18
		c-1.55-0.7-1.98-1.55-1.77-3.57c0,0-0.02,0.01-0.02,0.01c0.05-0.06,0.1-0.12,0.14-0.18c1.85-0.76,3.74-1.41,5.65-2
		c0.81,0.46,1.87,0.88,2.02,1.8c0.27,1.67,1.37,1.4,2.45,1.39c0.53,0,1.07-0.05,1.6,0.01c0.74,0.09,0.83-0.27,0.74-0.86
		c-0.25-1.73-0.92-3.25-2.2-4.47c1.84-1.21,1.88-1.18,2.99,0.75c1.11,1.93,1.31,4.02,1.23,6.18c-0.02,0.48-0.25,0.53-0.63,0.53
		c-1.03-0.01-2.06,0-3.2,0c0.44,0.93,1.06,1.61,1.66,2.29c4.11,4.68,2.58,13.81-5.09,16.3c-5.28,1.72-10.97-0.88-13.16-5.99
		c-0.31-0.74-0.76-0.97-1.49-1.2c-1.17-0.37-2.23-0.23-3.38,0.03c-1.9,0.42-3.84,0.38-5.71-0.24c-0.51-0.17-0.94-0.17-1.44,0
		c-0.88,0.32-1.81,0.43-2.75,0.43c-7.46,0-14.93,0.11-22.39-0.05c-2.59-0.05-5.14-0.38-7.74,0.01c-1.5,0.23-1.53,0.06-1.53-1.46
		c0-1.27-0.03-2.53,0.01-3.8c0.03-0.67-0.22-0.92-0.86-0.85c-0.07,0.01-0.13,0.01-0.2-0.01c-1.63-0.32-2.55,0.16-3.41,1.81
		c-2.5,4.8-8.95,5.77-13.01,2.18c-1.38-1.21-1.38-1.22-2.7,0.11c-1.34,1.34-2.96,2.03-4.84,2.05c-3.56,0.03-7.13-0.01-10.69,0.03
		c-0.68,0.01-0.83-0.23-0.82-0.86c0.03-2.8,0.01-5.6,0.01-8.39c0-0.29,0-0.58,0-0.98c-1.32,0.5-2.52,0.97-3.73,1.41
		c-0.47,0.17-0.3,0.54-0.3,0.84c-0.01,2.37-0.03,4.73,0.01,7.1c0.01,0.67-0.13,0.93-0.86,0.9c-1.37-0.05-2.73-0.05-4.03-0.56
		c-0.33-0.13-0.65-0.08-0.97,0.05c-0.69,0.28-1.43,0.48-2.14,0.42c-1.16-0.1-1.55,0.5-1.98,1.44c-2.04,4.56-7,6.93-12.02,5.83
		c-4.83-1.06-8.19-5.24-8.2-10.21c0-1.54,0-1.54,1.51-1.54c1.29,0,2.58,0,4.13,0c-1.06-0.98-1.94-1.81-2.84-2.62
		c-3.66-3.31-3.75-9.54-0.2-12.98c0.28-0.28,0.51-0.38,0.85-0.12c0.37,0.28,0.76,0.52,1.15,0.78c-1.16,1.07-1.89,2.39-2.31,3.89
		c-1.02,3.72,0.3,6.5,3.85,8c0.61,0.26,1.25,0.45,1.89,0.61c0.42,0.1,0.7,0.29,0.93,0.66c1,1.6,1.01,1.59,2.54,0.54
		c1.12-0.77,2.4-0.49,2.9,0.77c0.85,2.15,0.54,4.19-1.63,5.3c-2.14,1.1-5.2,0.45-5.89-1.55c-0.48-1.41-1.24-1.5-2.37-1.39
		c-0.53,0.05-1.07,0.06-1.6,0c-0.86-0.1-0.99,0.25-0.85,1.02c0.67,3.83,3.92,6.7,8,7.01c3.89,0.3,7.51-2.1,8.73-5.78
		c1.48-4.48-0.49-8.54-4.72-9.62c-0.79-0.2-1.26-0.56-1.63-1.25c-0.63-1.15-0.65-1.12-1.82-0.38c-0.43,0.28-0.8,0.83-1.37,0.7
		c-1.1-0.24-2.12-0.72-2.57-1.84c-0.42-1.04-0.16-2.02,0.53-2.9C38.23,137.34,39.09,136.98,39.95,136.63z M144.45,150.34
		c0.71,1.02,1.75,1.18,2.82,1.28c0.23,0.02,0.54,0.05,0.49-0.3c-0.2-1.2,0.69-2.67-0.94-3.53c-0.37-0.19-0.59-0.7-0.83-1.1
		c-0.73-1.19-1.39-2.42-2.15-3.59c-0.42-0.65-0.45-0.99,0.3-1.43c2.02-1.19,2.23-3.19,2.04-5.25c-0.17-1.8-1.29-2.93-2.89-3.63
		c-0.64-0.28-1.31-0.48-2-0.6c-1.89-0.34-3.79-0.15-5.68-0.17c-2.8-0.03-2.8-0.01-2.62,2.78c0.01,0.1,0,0.2,0.01,0.3
		c0.01,0.14,0.06,0.25,0.22,0.28c1.43,0.26,1.37,1.33,1.43,2.45c0.09,1.63,0,3.13-1.91,4.09c2.23,1,1.94,2.81,1.91,4.52
		c0,0.03,0,0.07,0,0.1c0.06,0.88-0.31,1.47-1.16,1.74c-0.3,0.09-0.53,0.18-0.51,0.59c0.04,0.76,0.02,1.53,0.01,2.3
		c0,0.31,0.04,0.51,0.43,0.47c1.11-0.11,2.19-0.26,2.89-1.32c0.48,0.85,1.32,1.04,2.16,1.26c0.87,0.22,1.29,0.01,1.15-0.99
		c-0.08-0.56-0.01-1.13-0.01-1.7c0-0.23,0.04-0.46-0.29-0.53c-1.24-0.3-1.43-1.22-1.35-2.31c0.04-0.56-0.04-1.14,0.02-1.7
		c0.04-0.36-0.32-1.03,0.38-1.01c0.71,0.02,1.58-0.63,2.14,0.38c0.55,0.98,1.09,1.99,1.74,2.91c0.58,0.83,0.31,1.31-0.49,1.58
		c-0.58,0.19-0.66,0.52-0.63,1.04c0.03,0.56,0.06,1.14,0,1.7c-0.08,0.7,0.26,0.77,0.82,0.68
		C142.91,151.45,143.83,151.22,144.45,150.34z M71.88,151.65c0-0.01,0-0.02,0-0.02c1.53,0,3.07,0.05,4.6-0.01
		c1.96-0.08,3.64-1.41,4.25-3.25c0.49-1.48,0.44-1.55-1.09-1.55c-0.43,0-0.87,0.02-1.3-0.01c-0.39-0.03-0.6,0.09-0.72,0.49
		c-0.23,0.82-0.85,1.14-1.67,1.14c-0.6,0-1.2,0.02-1.8,0c-0.85-0.04-1.99,0.38-2.48-0.18c-0.42-0.47-0.16-1.58-0.14-2.41
		c0.02-0.85-0.37-1.95,0.17-2.49c0.5-0.5,1.58-0.13,2.41-0.14c2.06-0.02,2.05-0.01,1.91-2.12c-0.03-0.45-0.18-0.55-0.59-0.54
		c-1.07,0.02-2.13-0.01-3.2,0.01c-0.47,0.01-0.74-0.06-0.73-0.64c0.03-1.33,0.03-2.67,0-4c-0.01-0.48,0.16-0.63,0.63-0.62
		c1.3,0.03,2.6,0,3.9,0.01c0.6,0,1.24,0.18,1.39,0.77c0.24,0.92,0.83,0.94,1.56,0.89c0.46-0.03,0.93-0.04,1.4,0
		c0.52,0.04,0.7-0.14,0.69-0.67c-0.03-1.2-0.04-2.4,0-3.6c0.02-0.57-0.15-0.74-0.72-0.73c-1.65,0.04-3.29,0.01-4.94,0.01
		c-2.3,0-4.6,0-6.9,0c-1.91,0-1.9,0-1.91,1.91c-0.01,0.78-0.18,1.6,0.92,1.84c0.33,0.07,0.6,0.45,0.6,0.75
		c-0.02,1.68,0.81,3.55-1.01,4.85c-0.48,0.34-0.45,0.68,0.01,0.99c0.99,0.68,1.24,1.63,1.12,2.77c-0.07,0.63-0.01,1.26-0.02,1.9
		c-0.01,0.62-0.28,1.19-0.86,1.34c-0.76,0.19-0.8,0.63-0.76,1.23c0.03,0.43,0.04,0.87,0,1.3c-0.07,0.61,0.13,0.81,0.76,0.79
		C68.88,151.62,70.38,151.65,71.88,151.65z M122.44,151.65c0-0.01,0-0.03,0-0.04c1.6,0,3.2,0.07,4.79-0.02
		c2.16-0.12,3.98-1.97,4.23-4.12c0.05-0.45,0.04-0.7-0.51-0.67c-0.73,0.03-1.47,0.02-2.2,0c-0.31,0-0.47,0.08-0.56,0.41
		c-0.24,0.92-0.92,1.24-1.81,1.22c-0.57-0.01-1.13,0.02-1.7-0.01c-0.85-0.04-1.97,0.37-2.49-0.18c-0.52-0.54-0.15-1.65-0.14-2.51
		c0.01-0.82-0.38-1.89,0.16-2.4c0.53-0.49,1.59-0.13,2.41-0.14c2.07-0.02,2.05-0.01,1.97-2.06c-0.02-0.49-0.17-0.62-0.63-0.6
		c-1.1,0.03-2.2-0.01-3.3,0.02c-0.47,0.01-0.65-0.13-0.64-0.62c0.03-1.33,0.03-2.66,0-4c-0.01-0.47,0.14-0.65,0.62-0.64
		c1.33,0.02,2.66,0,4,0.02c0.61,0.01,1.23,0.23,1.36,0.81c0.21,0.92,0.81,0.87,1.48,0.84c0.5-0.02,1-0.03,1.5,0
		c0.48,0.03,0.64-0.13,0.63-0.61c-0.03-1.26-0.03-2.53,0-3.8c0.02-0.53-0.23-0.59-0.66-0.57c-1.02,0.05-2.07,0.18-3.05,0.11
		c-2.76-0.2-5.52-0.03-8.28-0.1c-0.79-0.02-1.86-0.35-2.29,0.15c-0.4,0.48-0.12,1.51-0.16,2.3c-0.03,0.56-0.03,1.02,0.7,1.17
		c0.44,0.09,0.82,0.51,0.82,0.92c0,1.64,0.79,3.48-0.99,4.75c-0.59,0.42-0.36,0.72,0.04,1.14c0.41,0.43,1.08,0.7,1.06,1.47
		c-0.03,1-0.01,2-0.01,3c0,0.62-0.24,1.23-0.8,1.38c-0.9,0.24-0.86,0.82-0.82,1.5c0.02,0.4,0.04,0.8,0,1.2
		c-0.05,0.52,0.13,0.69,0.66,0.67C119.38,151.63,120.91,151.65,122.44,151.65z M106.46,150.34c0.16,0.2,0.25,0.35,0.37,0.45
		c0.78,0.67,1.8,1.04,2.68,0.75c0.64-0.21,0.17-1.23,0.25-1.89c0.09-0.7,0.12-1.38-0.87-1.54c-0.34-0.06-0.69-0.4-0.7-0.78
		c-0.05-1.75-0.86-3.67,1.04-5.01c0.5-0.35,0.38-0.63-0.01-1.01c-0.42-0.41-1.01-0.71-1.16-1.33c-0.86-3.6,0.26-4.94,3.92-4.73
		c0.03,0,0.07,0,0.1,0c0.39-0.05,0.59,0.13,0.51,0.51c-0.25,1.16,0.42,1.23,1.29,1.16c0.43-0.04,0.87-0.04,1.3,0
		c0.56,0.05,0.77-0.14,0.75-0.72c-0.04-1.1-0.06-2.2,0.01-3.29c0.05-0.77-0.21-0.93-0.95-0.92c-5.16,0.03-10.32,0.01-15.48,0.03
		c-0.82,0-1.9-0.36-2.4,0.15c-0.49,0.51-0.13,1.58-0.14,2.4c-0.02,2.38-0.01,2.35,2.38,2.37c0.67,0,0.98-0.14,0.9-0.87
		c-0.04-0.31-0.2-0.81,0.42-0.8c0.9,0.02,1.8-0.11,2.69,0.07c0.62,0.13,1.29,0.42,1.31,1.06c0.05,1.71,0.83,3.61-1.04,4.92
		c-0.56,0.39-0.42,0.74,0.05,1.06c0.97,0.68,1.27,1.61,1.13,2.75c-0.07,0.56-0.01,1.13-0.02,1.7c-0.01,0.58-0.28,1.14-0.81,1.27
		c-0.92,0.22-0.87,0.82-0.84,1.5c0.02,0.5,0.03,1,0,1.5c-0.03,0.46,0.16,0.57,0.59,0.52C104.76,151.5,105.76,151.29,106.46,150.34z
		 M55.31,150.31c0.69,1.05,1.77,1.2,2.88,1.31c0.28,0.03,0.44-0.04,0.43-0.36c-0.01-0.83-0.01-1.67,0-2.5
		c0-0.23-0.07-0.36-0.31-0.42c-1.18-0.3-1.42-1.15-1.34-2.23c0.05-0.63,0.06-1.27-0.01-1.9c-0.08-0.75,0.18-0.96,0.92-0.98
		c1.89-0.03,3.67-0.54,5.29-1.56c1.95-1.23,2.17-3.15,2.02-5.18c-0.13-1.81-1.23-2.96-2.82-3.69c-0.67-0.31-1.37-0.51-2.09-0.64
		c-1.89-0.34-3.79-0.15-5.68-0.17c-2.8-0.03-2.8-0.01-2.61,2.79c0.01,0.1,0.01,0.2,0.01,0.3c0.01,0.14,0.07,0.25,0.22,0.28
		c1.37,0.25,1.36,1.26,1.42,2.35c0.08,1.66,0.04,3.2-1.88,4.18c2.11,0.96,1.97,2.66,1.88,4.34c-0.01,0.13-0.01,0.27,0,0.4
		c0.04,0.8-0.32,1.33-1.08,1.6c-0.3,0.11-0.62,0.15-0.59,0.64c0.05,0.76,0.02,1.53,0.01,2.3c-0.01,0.33,0.08,0.49,0.44,0.45
		C53.55,151.51,54.63,151.36,55.31,150.31z M93.67,136.97c0.51,0,0.74,0,0.98,0c1.17,0,1.19-0.03,0.69-1.13
		c-1.41-3.11-4.07-4.36-7.67-3.62c-2.99,0.62-4.87,2.92-4.85,6.18c0.01,1.25-0.21,2.27-1.29,2.99c-0.37,0.25-0.48,0.55-0.03,0.84
		c1.18,0.76,1.31,1.88,1.33,3.18c0.04,3.24,2.72,5.98,5.91,6.2c3.54,0.24,6.53-2.02,7.09-5.36c0.21-1.22,0.21-1.22-1.07-1.22
		c-0.47,0-0.94,0.03-1.4-0.01c-0.53-0.05-0.7,0.13-0.81,0.68c-0.38,1.86-2.14,2.99-3.86,2.58c-1.24-0.29-2.13-1.04-2.42-2.26
		c-0.3-1.25-0.57-2.58,0.79-3.51c0.61-0.41,0.77-0.87,0.05-1.34c-1.28-0.83-1.13-2.07-0.9-3.29c0.45-2.39,3.48-3.5,5.2-1.78
		C92.21,136.92,92.98,137.02,93.67,136.97z" />
		<path class="nola_st3" d="M158.18,133.43c0.51-1.87,1.1-3.59,1.26-5.41c0.53-5.84-0.86-11.03-5.2-15.2c-0.43-0.41-0.58-0.75-0.47-1.36
		c1.16-6.39-2.78-14.19-8.61-17.07c-0.56-0.28-0.84-0.63-1.01-1.22c-0.57-2-1.86-3.42-3.87-3.94c-1.72-0.45-2.83-1.21-2.82-3.17
		c0-0.71-0.27-1.43-0.48-2.14c-0.17-0.56,0-0.82,0.54-1.04c2.7-1.09,5.48-1.86,8.38-2.17c4.78-0.52,9.55-0.41,14.1,1.25
		c7.61,2.77,12.5,8.34,15.22,15.79c3.95,10.82,2.05,20.56-6.05,28.9C166.62,129.27,161.61,132.28,158.18,133.43z" />
		<path class="nola_st3" d="M41.44,133.52c-7.91-3.47-14.58-8.08-17.25-16.5c-3.39-10.69-1.77-20.64,6.16-28.92
		c5.73-5.99,13.1-8.13,21.29-7.58c3.45,0.23,6.75,1.1,9.98,2.31c0.76,0.28,0.92,0.64,0.7,1.4c-0.27,0.96-0.42,1.95-0.54,2.94
		c-0.09,0.75-0.39,1.21-1.14,1.42c-0.67,0.19-1.32,0.46-1.96,0.74c-1.82,0.78-3.12,2.01-3.49,4.04c-0.1,0.53-0.47,0.77-0.88,1
		c-1.34,0.74-2.64,1.55-3.81,2.55c-2.14,1.81-3.55,4.03-3.93,6.85c-0.16,1.19-0.51,2.34-0.84,3.49c-0.44,1.57-0.53,3.16-0.08,4.73
		c0.14,0.49,0.03,0.76-0.32,1.11c-4.81,4.86-6.19,10.68-4.72,17.26C40.82,131.35,41.12,132.32,41.44,133.52z" />
		<path class="nola_st4" d="M75.78,126.78c-0.17-0.46-0.63-0.57-0.99-0.78c-6.18-3.75-12.29-7.59-17.83-12.27
		c-0.74-0.62-1.43-1.3-2.15-1.95c-1.44-1.31-1.76-2.91-1.2-4.73c0.26-0.85,0.57-1.68,1.07-2.5c-0.05,3.13,1.89,4.88,4.21,6.41
		c5.55,3.66,11.48,6.58,17.65,9.02c0.42,0.17,0.91,0.47,1.23-0.11c0.33-0.6-0.16-0.91-0.56-1.22c-4.75-3.78-9.32-7.75-13.26-12.4
		c-1.32-1.56-2.55-3.17-2.84-5.29c-0.3-2.19,0.83-3.99,3.14-4.73c-0.59,2.25,0.82,3.54,2.15,4.92c7.47,7.7,15.56,14.66,24.59,20.47
		c2.24,1.44,4.57,2.72,6.84,4.12c0.82,0.51,1.51,0.45,2.31-0.02c2.28-1.34,4.6-2.63,7.09-4.05c-0.49,2.29-2.37,3.39-3.36,5.08
		c-4.72,0-9.45-0.01-14.17-0.01c-1.83-0.99-3.66-1.98-5.5-2.96c-0.3-0.16-0.62-0.21-0.96-0.17c-0.52,0.07-0.86,0.21-0.4,0.79
		c0.61,0.78,1.2,1.58,1.8,2.37C81.69,126.77,78.73,126.78,75.78,126.78z" />
		<path class="nola_st5" d="M85.41,174.19c2.27-3.53,3.85-7.41,5.64-11.19c0.42-0.88,1.18-1.61,1.75-2.42c0.71-1.01,1.44-2.06,1.75-3.24
		c0.45-1.75,1.84-2.47,3.21-3.52c0,0.99,0.02,1.84-0.01,2.69c-0.02,0.5,0.11,0.71,0.66,0.69c1.9-0.05,3.8-0.03,5.69-0.09
		c0.46-0.02,0.68,0.06,0.93,0.47c2.46,3.92,4.66,7.97,6.36,12.29c0.65,1.64,1.64,3.11,2.66,4.57c-1.3,0.16-3.24-0.48-4.59-1.51
		c-1.3-0.99-2.22-2.36-3.5-3.59c-1.7,6.66-2.17,13.63-6.32,19.41c-3.74-5.71-6.75-11.62-4.18-18.88c-0.12-0.02-0.23-0.04-0.35-0.05
		c-1.45,0.77-2.9,1.53-4.34,2.3c-1.29,0.69-2.51,1.52-3.93,1.92c-0.47,0.13-0.94,0.34-1.45,0.15L85.41,174.19z" />
		<path class="nola_st5" d="M114.81,40.4c-2.26-0.85-4.45-1.86-6.62-2.91c-1.74-0.84-3.43-1.77-5.17-2.6c-2.2-1.06-4.47-1.09-6.65,0
		c-3.71,1.86-7.44,3.69-11.49,5.4c4.84-9.86,9.96-19.37,15.04-28.9c0.35,0.09,0.38,0.34,0.47,0.53c4.67,9.12,9.42,18.19,13.95,27.39
		c0.17,0.35,0.45,0.67,0.43,1.1L114.81,40.4z" />
		<path class="nola_st6" d="M39.95,136.63c-0.86,0.36-1.72,0.71-2.32,1.47c-0.69,0.87-0.95,1.86-0.53,2.9c0.45,1.12,1.48,1.59,2.57,1.84
		c0.58,0.13,0.94-0.42,1.37-0.7c1.16-0.74,1.18-0.78,1.82,0.38c0.38,0.68,0.85,1.05,1.63,1.25c4.23,1.08,6.2,5.14,4.72,9.62
		c-1.21,3.68-4.84,6.08-8.73,5.78c-4.08-0.32-7.33-3.19-8-7.01c-0.13-0.77-0.01-1.12,0.85-1.02c0.53,0.06,1.07,0.05,1.6,0
		c1.14-0.11,1.89-0.02,2.37,1.39c0.69,2,3.75,2.65,5.89,1.55c2.17-1.11,2.48-3.15,1.63-5.3c-0.5-1.26-1.78-1.54-2.9-0.77
		c-1.53,1.05-1.54,1.06-2.54-0.54c-0.23-0.37-0.5-0.56-0.93-0.66c-0.64-0.15-1.28-0.35-1.89-0.61c-3.54-1.5-4.87-4.28-3.85-8
		c0.41-1.51,1.15-2.83,2.31-3.89C36.67,135.07,38.31,135.85,39.95,136.63z" />
		<path class="nola_st6" d="M153.4,139c-0.21,2.02,0.22,2.86,1.77,3.57c0.69,0.31,1.32,0.41,1.91-0.18c0.11-0.12,0.27-0.19,0.41-0.28
		c1.09-0.73,1.11-0.74,1.74,0.38c0.37,0.67,0.81,1.07,1.62,1.27c4.06,1.02,6,4.63,4.93,9.03c-0.94,3.88-4.59,6.56-8.69,6.38
		c-4.14-0.18-7.61-3.2-8.23-7.12c-0.11-0.68-0.01-1,0.76-0.92c0.56,0.06,1.14,0.05,1.7,0c1.13-0.1,1.89-0.04,2.37,1.39
		c0.68,2,3.75,2.66,5.89,1.56c2.17-1.11,2.48-3.15,1.63-5.31c-0.5-1.26-1.78-1.54-2.91-0.76c-1.52,1.04-1.53,1.05-2.54-0.56
		c-0.23-0.37-0.51-0.55-0.93-0.65c-3.67-0.91-5.85-2.97-6.03-5.66c-0.25-3.69,1.74-7.03,5.04-8.43c0.3-0.13,0.63-0.21,0.94-0.31
		c-0.82,1.96-1.65,3.91-2.47,5.87c-0.13,0.3-0.34,0.58-0.31,0.93c-0.02,0.01-0.05,0.02-0.07,0.04c-0.01,0.01,0,0.03,0,0.05
		c0.01-0.03,0.03-0.07,0.04-0.1C152.49,139.38,152.89,138.8,153.4,139z" />
		<path class="nola_st5" d="M89.01,157.18c-2.16,4.87-8.16,8.05-13.71,7.37c-4.95-0.61-9.41-3.85-10.06-7.38c3.17,0,6.33-0.05,9.49,0.01
		c2.66,0.05,5.18-0.34,7.37-1.97c0.25-0.19,0.45-0.18,0.71-0.01C84.66,156.44,86.72,157.02,89.01,157.18z" />
		<path class="nola_st1" d="M110.59,157.17c7.19,0,14.21,0,21.23,0c0.63,0,1.27,0.04,1.9-0.03c0.73-0.08,0.79,0.15,0.5,0.76
		c-1.56,3.28-4.06,5.49-7.61,6.17c-5.06,0.96-9.82,0.31-13.71-3.5C111.95,159.63,111.21,158.53,110.59,157.17z" />
		<path class="nola_st7" d="M138.89,126.61c0.67-0.52,1.31-1.03,1.95-1.53c3.73-2.91,7.32-5.97,10.63-9.35c0.4-0.4,0.6-0.34,0.94,0.02
		c2.74,2.94,3.79,6.48,3.75,10.42c0,0.46-0.22,0.6-0.66,0.66c-2.45,0.34-4.7,1.18-6.67,2.69c-0.26,0.2-0.46,0.3-0.77,0.04
		c-2.61-2.09-5.63-2.89-8.93-2.83C139.08,126.75,139.03,126.69,138.89,126.61z" />
		<path class="nola_st8" d="M60.45,126.75c-4.32,0-8.58,0.01-12.84-0.01c-0.7,0-1.2,0.06-0.98,1.01c-0.96-0.27-1.84-0.52-2.72-0.75
		c-0.45-0.11-0.44-0.48-0.45-0.78c-0.08-3.93,1.1-7.39,3.82-10.28c0.24-0.26,0.41-0.34,0.72-0.05c4,3.71,8.06,7.35,12.4,10.66
		C60.42,126.57,60.42,126.61,60.45,126.75z" />
		<path class="nola_st6" d="M163.78,134.7c1.28,1.22,1.95,2.74,2.2,4.47c0.09,0.59,0,0.95-0.74,0.86c-0.52-0.07-1.06-0.01-1.6-0.01
		c-1.07,0-2.18,0.28-2.45-1.39c-0.15-0.93-1.21-1.34-2.02-1.8C160.71,136.11,162.25,135.41,163.78,134.7z" />
		<path class="nola_st9" d="M45.22,133.17c2.26,0.78,4.52,4.08,4.41,6.37c-0.02,0.43-0.19,0.48-0.54,0.48c-1.07-0.01-2.13-0.01-3.2,0
		c-0.4,0.01-0.68,0-0.72-0.54c-0.03-0.38-0.27-0.74-0.41-1.11c0.91,0.29,1.82,0.57,2.88,0.91C47.01,137.08,45.8,135.25,45.22,133.17
		z" />
		<path class="nola_st2" d="M84.64,126.77c-0.6-0.79-1.19-1.59-1.8-2.37c-0.45-0.58-0.12-0.72,0.4-0.79c0.34-0.04,0.67,0.01,0.96,0.17
		c1.83,0.98,3.66,1.97,5.5,2.96C88.02,126.75,86.33,126.76,84.64,126.77z" />
		<path class="nola_st9" d="M45.06,133c0.09,0.04,0.25,0.01,0.17,0.19C45.18,133.13,45.12,133.06,45.06,133z" />
		<path class="nola_st6"
			d="M153.53,138.83c-0.05,0.06-0.1,0.12-0.14,0.18C153.44,138.95,153.49,138.89,153.53,138.83z" />
		<path class="nola_st10" d="M86.01,165.6c0.01-0.05,0.02-0.09,0.03-0.14c0.03,0.01,0.05,0.02,0.08,0.04c-0.04,0.03-0.09,0.06-0.13,0.09
		C86,165.58,86.01,165.6,86.01,165.6z" />
		<path class="nola_st5" d="M85.39,174.17c0,0.04,0,0.09-0.01,0.13c-0.03,0-0.05-0.01-0.08-0.01c0.04-0.03,0.07-0.07,0.11-0.1
		C85.41,174.19,85.39,174.17,85.39,174.17z" />
		<path class="nola_st5" d="M114.79,40.42c0.04,0.03,0.08,0.07,0.13,0.1c-0.03,0.01-0.06,0.02-0.09,0.02c-0.01-0.05-0.01-0.09-0.02-0.14
		C114.81,40.4,114.79,40.42,114.79,40.42z" />
		<path class="nola_st4" d="M84.73,108.78c-1.59-0.93-2.9-2.11-4.12-3.38c-3.01-3.13-5.6-6.61-8.13-10.12c-2-2.79-2.3-5.9-1.32-9.14
		c1.76-5.81,4.26-11.32,6.78-16.83c1.09-2.39,2.3-4.73,3.03-7.27c0.15-0.52,0.53-1.23,0.03-1.59c-0.53-0.38-1.11,0.17-1.59,0.5
		c-0.89,0.61-1.58,1.5-2.64,1.88c2.99-7.51,7.31-13.81,15.09-17.04c2.09-0.87,4.15-1.8,6.19-2.77c0.7-0.33,0.91-0.07,1.13,0.53
		c1.2,3.16,1.24,6.3-0.05,9.44c-0.65,1.58-0.52,2,0.97,2.8c3.34,1.81,6.29,4.09,8.94,6.98c-0.73,0.05-1.25-0.27-1.77-0.48
		c-2.18-0.91-4.36-1.83-6.51-2.79c-1.2-0.54-2.33-0.52-3.56-0.04c-4.78,1.85-9.21,4.32-13.29,7.42c-1.49,1.14-2.55,2.62-3.34,4.3
		c-2.04,4.33-3.79,8.79-5.76,13.16c-1.51,3.33-1.1,6.74,0.52,9.94c2.43,4.8,5.4,9.26,8.94,13.31
		C84.55,107.89,85.01,108.13,84.73,108.78z" />
		<path class="nola_st11" d="M108.86,112.07c2.57-2.97,5.34-5.77,7.65-8.97c2.47-3.41,4.56-7.03,6.38-10.82c1.07-2.25,0.91-4.58,0.61-6.95
		c-0.66-5.22-1.74-10.37-2.88-15.5c-0.04-0.16-0.04-0.33-0.06-0.57c0.4,0.14,0.49,0.48,0.63,0.73c3.18,5.74,5.62,11.75,6.71,18.26
		c0.21,1.25,0.11,2.42-0.44,3.59c-2.49,5.41-6.2,9.92-10.36,14.09c-2.17,2.18-4.51,4.15-7.12,5.78c-0.31,0.19-0.64,0.34-0.97,0.5
		C108.97,112.17,108.92,112.12,108.86,112.07z" />
		<path class="nola_st12" d="M102.87,66.82c3.54,1.69,6.74,3.8,9.96,6c-0.14,0.11-0.2,0.18-0.23,0.17c-2.71-0.73-5.05,0.11-7.17,1.76
		c-0.84,0.66-1.76,1.19-2.7,1.69c-1.4,0.74-1.81,0.69-3.04-0.34c-0.25-0.21-0.51-0.43-0.76-0.64c-1.47,1.7-2.44,1.85-4.32,0.66
		c-0.92-0.59-1.83-1.22-2.74-1.82c-2.28-1.53-4.7-2.16-7.37-1.1c-0.08,0.03-0.19,0-0.42,0c0.38-1.14,0.88-2.1,2.03-2.52
		c1.88-0.68,3.73-0.49,5.51,0.4c1.26,0.63,2.35,1.51,3.42,2.41c1.12,0.94,1.58,0.93,2.69,0.01c0.94-0.78,1.51-0.77,2.45,0.05
		c0.96,0.84,1.53,0.86,2.56,0.08c0.82-0.62,1.67-1.22,2.43-1.9c0.73-0.66,0.73-1.28,0.04-1.98c-0.53-0.54-1.15-1-1.75-1.48
		C103.03,67.92,102.62,67.58,102.87,66.82z" />
		<path class="nola_st11" d="M121.92,117.85c1.98-2.76,3.86-5.34,5.69-7.95c1.65-2.34,3.23-4.72,4.87-7.07c1.59-2.28,2.22-4.6,0.55-7.12
		c-0.03-0.04,0.01-0.13,0.01-0.19c3.08-0.03,4.85,2.37,4.29,5.78c-0.24,1.48-0.88,2.78-1.76,3.98c-3.62,4.95-8.2,8.89-13.16,12.42
		C122.34,117.74,122.24,117.75,121.92,117.85z" />
		<path class="nola_st13" d="M90.48,86.67c-0.38,0.69-0.66,1.22-0.96,1.73c-0.87,1.47-0.68,2.94-0.01,4.4c0.35,0.77,1.01,0.83,1.54,0.16
		c0.28-0.35,0.51-0.77,1.09-0.93c-0.41,5.8,1.15,10.96,4.88,15.53c-0.77-0.05-1.3-0.38-1.8-0.74c-3.16-2.3-5.57-5.22-7.31-8.71
		c-0.04-0.09-0.08-0.18-0.11-0.28c-0.14-0.5-0.58-1.09-0.25-1.5c0.39-0.49,0.86,0.3,1.4,0.23c0.17-0.56-0.1-1.09-0.23-1.61
		c-0.8-3.1-2.51-5.56-5.22-7.29c-0.99-0.63-1.51-1.44-1.44-2.68C84.78,85.85,87.37,87.13,90.48,86.67z" />
		<path class="nola_st12" d="M114.81,50.84c2.31,1.39,7.09,9.38,7.73,12.83C119.05,62.46,116.04,57.48,114.81,50.84z" />
		<path class="nola_st12" d="M138.4,115.8c0.61-1.02,1.23-2.04,1.84-3.07c1.82-3.01,3.02-6.2,2.97-9.81c1.46,1.99,2.08,4.23,2.01,6.67
		c-0.01,0.31-0.2,0.56-0.4,0.79c-1.76,2.07-3.76,3.87-6.02,5.36c-0.12,0.08-0.26,0.23-0.42,0.04
		C138.37,115.79,138.4,115.8,138.4,115.8z" />
		<path class="nola_st12" d="M115.56,84.12c0.4,4.23-2.74,6.73-4.09,9.97C111.34,90.24,112.89,87.08,115.56,84.12z" />
		<path class="nola_st8" d="M92.62,77.92c-1.31,0.87-2.61,0.86-3.82-0.01c-0.43-0.3-0.79-0.69-0.52-1.24c0.26-0.53,0.76-0.72,1.34-0.55
		C90.75,76.45,91.71,77.06,92.62,77.92z" />
		<path class="nola_st8" d="M107.04,78.41c-0.5-0.03-1.41,0-1.59-0.61c-0.14-0.46,0.76-0.78,1.26-1.06c0.46-0.26,0.95-0.48,1.45-0.62
		c0.52-0.15,1,0.04,1.29,0.51c0.33,0.53-0.09,0.88-0.4,1.2C108.54,78.33,107.88,78.42,107.04,78.41z" />
		<path class="nola_st11" d="M109.02,112.23c-0.09,0.14-0.19,0.23-0.36,0.11c0.07-0.09,0.13-0.18,0.2-0.27
		C108.92,112.12,108.97,112.17,109.02,112.23z" />
		<path class="nola_st12" d="M138.37,115.79c0.01,0.04,0.02,0.09,0.03,0.13c-0.04,0-0.08-0.01-0.12-0.01c0.04-0.04,0.07-0.07,0.11-0.11
		L138.37,115.79z" />
		<path class="nola_st6" d="M144.45,150.34c-0.61,0.88-1.54,1.11-2.51,1.26c-0.56,0.09-0.89,0.02-0.82-0.68c0.06-0.56,0.04-1.13,0-1.7
		c-0.03-0.51,0.05-0.84,0.63-1.04c0.8-0.27,1.08-0.75,0.49-1.58c-0.65-0.92-1.19-1.92-1.74-2.91c-0.56-1-1.43-0.36-2.14-0.38
		c-0.7-0.02-0.34,0.65-0.38,1.01c-0.06,0.56,0.02,1.13-0.02,1.7c-0.08,1.09,0.1,2.01,1.35,2.31c0.33,0.08,0.29,0.31,0.29,0.53
		c0,0.57-0.06,1.14,0.01,1.7c0.14,0.99-0.29,1.2-1.15,0.99c-0.84-0.21-1.69-0.41-2.16-1.26c-0.7,1.06-1.78,1.21-2.89,1.32
		c-0.39,0.04-0.44-0.16-0.43-0.47c0.01-0.77,0.03-1.53-0.01-2.3c-0.02-0.41,0.21-0.5,0.51-0.59c0.86-0.26,1.23-0.86,1.16-1.74
		c0-0.03,0-0.07,0-0.1c0.03-1.72,0.32-3.52-1.91-4.52c1.9-0.96,1.99-2.46,1.91-4.09c-0.06-1.11,0-2.18-1.43-2.45
		c-0.16-0.03-0.21-0.14-0.22-0.28c-0.01-0.1,0-0.2-0.01-0.3c-0.18-2.79-0.18-2.81,2.62-2.78c1.89,0.02,3.8-0.17,5.68,0.17
		c0.69,0.13,1.35,0.32,2,0.6c1.6,0.7,2.73,1.83,2.89,3.63c0.19,2.06-0.02,4.06-2.04,5.25c-0.75,0.44-0.72,0.78-0.3,1.43
		c0.76,1.17,1.43,2.4,2.15,3.59c0.24,0.39,0.46,0.9,0.83,1.1c1.63,0.86,0.74,2.33,0.94,3.53c0.06,0.35-0.26,0.32-0.49,0.3
		C146.2,151.52,145.15,151.36,144.45,150.34z M137.97,137.7c0,0.63,0.01,1.26,0,1.89c-0.01,0.34,0.04,0.59,0.47,0.57
		c1.13-0.05,2.26-0.1,3.26-0.71c1.38-0.83,1.4-2.56,0.05-3.43c-0.65-0.42-1.4-0.59-2.16-0.65c-1.62-0.14-1.62-0.14-1.62,1.43
		C137.97,137.1,137.97,137.4,137.97,137.7z" />
		<path class="nola_st9" d="M71.88,151.65c-1.5,0-3-0.03-4.5,0.01c-0.63,0.02-0.83-0.19-0.76-0.79c0.05-0.43,0.03-0.87,0-1.3
		c-0.04-0.6,0-1.05,0.76-1.23c0.58-0.14,0.85-0.72,0.86-1.34c0.01-0.63-0.05-1.27,0.02-1.9c0.12-1.14-0.12-2.09-1.12-2.77
		c-0.47-0.32-0.49-0.65-0.01-0.99c1.82-1.3,0.99-3.17,1.01-4.85c0-0.3-0.27-0.68-0.6-0.75c-1.11-0.24-0.93-1.06-0.92-1.84
		c0.01-1.91,0-1.91,1.91-1.91c2.3,0,4.6,0,6.9,0c1.65,0,3.29,0.02,4.94-0.01c0.57-0.01,0.74,0.16,0.72,0.73
		c-0.04,1.2-0.03,2.4,0,3.6c0.01,0.53-0.17,0.71-0.69,0.67c-0.46-0.04-0.93-0.04-1.4,0c-0.73,0.05-1.32,0.04-1.56-0.89
		c-0.16-0.59-0.79-0.76-1.39-0.77c-1.3-0.01-2.6,0.01-3.9-0.01c-0.47-0.01-0.64,0.14-0.63,0.62c0.03,1.33,0.03,2.67,0,4
		c-0.02,0.58,0.25,0.65,0.73,0.64c1.07-0.02,2.13,0.01,3.2-0.01c0.41-0.01,0.56,0.09,0.59,0.54c0.14,2.11,0.15,2.1-1.91,2.12
		c-0.83,0.01-1.91-0.36-2.41,0.14c-0.55,0.54-0.15,1.64-0.17,2.49c-0.02,0.83-0.28,1.93,0.14,2.41c0.5,0.56,1.63,0.14,2.48,0.18
		c0.6,0.03,1.2,0,1.8,0c0.82,0,1.43-0.31,1.67-1.14c0.11-0.4,0.33-0.52,0.72-0.49c0.43,0.03,0.87,0.01,1.3,0.01
		c1.53,0,1.58,0.08,1.09,1.55c-0.61,1.84-2.3,3.17-4.25,3.25c-1.53,0.06-3.06,0.01-4.6,0.01C71.88,151.64,71.88,151.64,71.88,151.65
		z" />
		<path class="nola_st6" d="M122.44,151.65c-1.53,0-3.06-0.02-4.6,0.01c-0.53,0.01-0.71-0.15-0.66-0.67c0.04-0.4,0.03-0.8,0-1.2
		c-0.04-0.67-0.08-1.25,0.82-1.5c0.56-0.15,0.8-0.76,0.8-1.38c0-1-0.02-2,0.01-3c0.02-0.77-0.64-1.04-1.06-1.47
		c-0.4-0.42-0.64-0.72-0.04-1.14c1.78-1.27,0.99-3.11,0.99-4.75c0-0.42-0.38-0.83-0.82-0.92c-0.73-0.15-0.73-0.61-0.7-1.17
		c0.04-0.79-0.24-1.83,0.16-2.3c0.42-0.5,1.5-0.17,2.29-0.15c2.76,0.06,5.52-0.1,8.28,0.1c0.98,0.07,2.03-0.06,3.05-0.11
		c0.43-0.02,0.67,0.04,0.66,0.57c-0.04,1.26-0.03,2.53,0,3.8c0.01,0.48-0.15,0.65-0.63,0.61c-0.5-0.04-1-0.03-1.5,0
		c-0.68,0.03-1.27,0.09-1.48-0.84c-0.14-0.58-0.76-0.81-1.36-0.81c-1.33-0.01-2.66,0.01-4-0.02c-0.48-0.01-0.63,0.17-0.62,0.64
		c0.03,1.33,0.03,2.66,0,4c-0.01,0.49,0.17,0.63,0.64,0.62c1.1-0.03,2.2,0.01,3.3-0.02c0.46-0.01,0.61,0.11,0.63,0.6
		c0.08,2.05,0.1,2.04-1.97,2.06c-0.83,0.01-1.88-0.35-2.41,0.14c-0.54,0.5-0.16,1.58-0.16,2.4c-0.01,0.86-0.37,1.96,0.14,2.51
		c0.52,0.55,1.64,0.13,2.49,0.18c0.56,0.03,1.13-0.01,1.7,0.01c0.9,0.02,1.57-0.3,1.81-1.22c0.09-0.33,0.26-0.42,0.56-0.41
		c0.73,0.01,1.47,0.03,2.2,0c0.55-0.02,0.56,0.22,0.51,0.67c-0.26,2.14-2.07,3.99-4.23,4.12c-1.59,0.09-3.2,0.02-4.79,0.02
		C122.44,151.62,122.44,151.64,122.44,151.65z" />
		<path class="nola_st6" d="M106.46,150.34c-0.7,0.96-1.7,1.16-2.74,1.28c-0.42,0.05-0.61-0.07-0.59-0.52c0.03-0.5,0.02-1,0-1.5
		c-0.03-0.68-0.08-1.28,0.84-1.5c0.53-0.12,0.79-0.68,0.81-1.27c0.01-0.57-0.05-1.14,0.02-1.7c0.14-1.14-0.16-2.08-1.13-2.75
		c-0.47-0.33-0.61-0.67-0.05-1.06c1.87-1.31,1.09-3.21,1.04-4.92c-0.02-0.64-0.69-0.94-1.31-1.06c-0.89-0.18-1.79-0.06-2.69-0.07
		c-0.62-0.01-0.46,0.49-0.42,0.8c0.08,0.73-0.22,0.87-0.9,0.87c-2.38-0.02-2.39,0.01-2.38-2.37c0.01-0.82-0.35-1.89,0.14-2.4
		c0.5-0.52,1.58-0.15,2.4-0.15c5.16-0.02,10.32,0.01,15.48-0.03c0.73,0,1,0.15,0.95,0.92c-0.07,1.09-0.05,2.2-0.01,3.29
		c0.02,0.58-0.2,0.77-0.75,0.72c-0.43-0.04-0.87-0.04-1.3,0c-0.86,0.08-1.54,0-1.29-1.16c0.08-0.38-0.12-0.56-0.51-0.51
		c-0.03,0-0.07,0-0.1,0c-3.66-0.21-4.77,1.13-3.92,4.73c0.15,0.62,0.74,0.92,1.16,1.33c0.39,0.37,0.51,0.65,0.01,1.01
		c-1.91,1.34-1.09,3.26-1.04,5.01c0.01,0.38,0.36,0.72,0.7,0.78c0.99,0.16,0.95,0.85,0.87,1.54c-0.08,0.65,0.39,1.68-0.25,1.89
		c-0.88,0.29-1.9-0.08-2.68-0.75C106.71,150.68,106.62,150.54,106.46,150.34z" />
		<path class="nola_st6" d="M55.31,150.31c-0.68,1.04-1.76,1.2-2.87,1.31c-0.37,0.04-0.45-0.12-0.44-0.45c0.01-0.77,0.04-1.53-0.01-2.3
		c-0.03-0.48,0.28-0.53,0.59-0.64c0.76-0.27,1.12-0.79,1.08-1.6c-0.01-0.13-0.01-0.27,0-0.4c0.09-1.68,0.22-3.38-1.88-4.34
		c1.92-0.97,1.97-2.52,1.88-4.18c-0.05-1.1-0.05-2.1-1.42-2.35c-0.15-0.03-0.21-0.13-0.22-0.28c-0.01-0.1,0-0.2-0.01-0.3
		c-0.19-2.8-0.19-2.82,2.61-2.79c1.89,0.02,3.8-0.17,5.68,0.17c0.72,0.13,1.42,0.33,2.09,0.64c1.59,0.73,2.68,1.88,2.82,3.69
		c0.15,2.03-0.07,3.94-2.02,5.18c-1.62,1.02-3.39,1.53-5.29,1.56c-0.74,0.01-1,0.23-0.92,0.98c0.07,0.63,0.05,1.27,0.01,1.9
		c-0.08,1.07,0.16,1.93,1.34,2.23c0.24,0.06,0.31,0.19,0.31,0.42c-0.01,0.83-0.01,1.67,0,2.5c0,0.32-0.15,0.39-0.43,0.36
		C57.08,151.52,56,151.36,55.31,150.31z M56.99,137.74c0,0.17,0,0.33,0,0.5c0,2.08,0,2.08,2.1,1.76c1.71-0.26,2.7-1.1,2.68-2.29
		c-0.01-1.18-1.01-2.03-2.71-2.3c-2.08-0.33-2.08-0.33-2.08,1.73C56.99,137.35,56.99,137.55,56.99,137.74z" />
		<path class="nola_st6" d="M93.67,136.97c-0.69,0.05-1.46-0.05-2.28-0.87c-1.71-1.72-4.75-0.61-5.2,1.78c-0.23,1.22-0.38,2.46,0.9,3.29
		c0.73,0.47,0.56,0.93-0.05,1.34c-1.36,0.92-1.09,2.26-0.79,3.51c0.29,1.22,1.18,1.97,2.42,2.26c1.73,0.41,3.48-0.72,3.86-2.58
		c0.11-0.55,0.28-0.73,0.81-0.68c0.46,0.04,0.93,0.01,1.4,0.01c1.28,0,1.28,0,1.07,1.22c-0.56,3.34-3.55,5.6-7.09,5.36
		c-3.18-0.22-5.87-2.95-5.91-6.2c-0.02-1.3-0.15-2.42-1.33-3.18c-0.45-0.29-0.34-0.59,0.03-0.84c1.08-0.73,1.29-1.74,1.29-2.99
		c-0.01-3.26,1.87-5.57,4.85-6.18c3.6-0.74,6.25,0.51,7.67,3.62c0.5,1.1,0.48,1.13-0.69,1.13
		C94.41,136.97,94.18,136.97,93.67,136.97z" />
		<path class="nola_st0" d="M151.98,139.18c-0.01,0.03-0.03,0.07-0.04,0.1c0-0.02-0.01-0.04,0-0.05c0.02-0.02,0.04-0.03,0.07-0.04
		C152,139.2,151.98,139.18,151.98,139.18z" />
		<path class="nola_st2" d="M137.97,137.7c0-0.3,0-0.6,0-0.9c0-1.57,0-1.57,1.62-1.43c0.77,0.07,1.51,0.23,2.16,0.65
		c1.35,0.87,1.32,2.6-0.05,3.43c-1,0.6-2.13,0.66-3.26,0.71c-0.43,0.02-0.48-0.23-0.47-0.57
		C137.98,138.96,137.97,138.33,137.97,137.7z" />
		<path class="nola_st2" d="M56.99,137.74c0-0.2,0-0.4,0-0.6c0-2.06,0-2.06,2.08-1.73c1.69,0.27,2.69,1.12,2.71,2.3
		c0.01,1.19-0.97,2.03-2.68,2.29c-2.1,0.32-2.1,0.32-2.1-1.76C56.99,138.08,56.99,137.91,56.99,137.74z" />
	</g>
</svg>