<svg version="1.1" id="Layer_1" xmlns="http://www.w3.org/2000/svg" x="0" y="0" viewBox="0 0 200 200" xml:space="preserve"><style>.new_st0{fill:#036a38}.new_st1{fill:#010202}.new_st2{fill:#717276}.new_st3{fill:#fefefe}.new_st4{fill:#221e1e}.new_st5{fill:#fcfcfc}.new_st6{fill:#a0a8aa}.new_st7{fill:#e6e6e6}.new_st8{fill:#e4e4e4}.new_st9{fill:#00bd60}.new_st10{fill:#e1e1e1}.new_st11{fill:#9b9b9b}.new_st12{fill:#909090}.new_st13{fill:#008b47}.new_st14{fill:#007a3e}</style><path class="new_st0" d="M17 76.8c.1-.2 0-.3 0-.4A186.8 186.8 0 015.8 53.1C5 51 4.1 49 3.4 47c-.1-.3-.2-.4-.5-.5-.7-.3-1.3-.8-1.8-1.3-.8-.7-1-1.7-1.1-2.7-.2-1.5 0-3 .2-4.5l.3-1.7c.2-.6.6-1 1.1-1a15.4 15.4 0 018.8.9 3 3 0 011.7 1.5c.5 1 .8 2 1 3.2.2.4.1.7 0 1v.5c-.5 1.1-.2 2.2.1 3.2A155 155 0 0016 53l2.1 5.8a141.2 141.2 0 003.9 9.5h.1c2.5-1.2 5.1-1.8 7.8-2.4l1-.2c.5-.2.6-.2.6-.7v-7.2-.8l.5-1 4.6-4.1 3.8-3.4 4-3.4A209.7 209.7 0 0162 31.4a69 69 0 015.2-3c.3-.3.4-.5.4-.8v-5.8-.7c.2-1.3 1.8-1.7 2.6-.9l2 1.8 2.3 2c.3.3.5.3.8.2 2-1 4.1-1.8 6.2-2.7l4-1.7c.3-.1.5-.3.5-.6l.9-5.6c0-.4 0-.7.2-1 .4-.6 1-.7 1.6-.7.5 0 1 .1 1.5.5l4.4 4c.4.4.8.5 1.3.4a106.8 106.8 0 0117.8-3l3.8-.3c2.7-.2 5.3-.1 7.9 0 2.5 0 5 .1 7.6.4l5 .5 4 .6a114.5 114.5 0 0123.7 6.5l1.4.7c1 .3 1.3 1 1.4 1.9l.1 5.3a239 239 0 01-.2 19.5l-.3 5.2-.7 5.7-.7 5c-.1.2 0 .3.2.5l3 2a80.4 80.4 0 018.1 6.6c.4.3.8.7 1 1.2.2.7-.3 1.7-1.1 2-2.2.7-4.4 1.6-6.5 2.5l-1.2.5 1.4 1.1A132.8 132.8 0 01185 92.4l2.3 2.5c.3.4.7.5 1.2.5a12 12 0 015.3.7 8 8 0 014.6 4.5c.7 1.7 1 3.4 1.3 5.1.4 3.7.3 7.4.3 11v8.3a35 35 0 01-1.5 9.8 11 11 0 01-3.3 5.2 9.5 9.5 0 01-4.4 1.9l-10.3 2c-3.2.7-6.3 1.2-9.5 2l-1.9.2c-.2 0-.3.2-.3.4v5.5l.1 3 .2 7.4v.7c-.2.7-.5 1.1-1.3 1.3l-9.8 2-4.5 1-9.3 2-4.7 1-9.4 2-9.3 1.9-9.4 2-9.4 2-9.3 1.9-9.3 2-9.3 2-9.4 1.9-1.7.4h-1c-.6-.2-1-.5-1.1-1l-.1-1.7-.2-10.2-.1-6c0-.9 0-.9-.8-.7l-8.3 1.5-10.3 2-10.5 2a2 2 0 01-1.3-.2c-.6-.3-.8-.9-.9-1.5v-1.2l-.1-7-.2-6.6-.1-6-.1-5.4-.3-12v-2.3-.4c0-.9.4-1.4 1.5-1.7l3-.5 6.4-1.3 7.1-1.3c.2 0 .4 0 .5-.2l-1-1.7-3.3-7.2c-.2-.5-.2-.5-.7-.3l-3.5 1.5a2 2 0 01-1 .2c-1.5-.2-1.7-1.7-1.2-2.5l2-3 .7-1.2h-.5l-8.1 2.7-2.6.8c-1.3.3-2.3-.5-2-1.9a83.6 83.6 0 014-14.8l.1-.3c.2-.3.1-.5-.1-.7a29.5 29.5 0 01-9.1-12.6l-.2-.6c-.1-.3-.2-.3-.5-.3l-2.7.7c-.5 0-1-.1-1.4-.5l-1-1c-.6-.5-.6-1.3-.2-2l.4-.8c0-.4 0-.7.2-1 .1-.7.5-1 1.2-1.2a4 4 0 011.5-.3zm31.6 49l-.7.2-2.2.5L37 128l-7.4 1.5c-.5 0-.6 0-.5.6v4.8c.2 2 0 3.8.2 5.8l.1 5.6.1 6c.2 2.1 0 4.1.2 6.2v7l.1 3.4.1 1.5c0 .3.2.3.3.3h.4l5-1 8.7-1.6 7.6-1.5 9.5-1.7c.5-.1.5-.1.5.4v4.8c.1 3.2.3 6.4.2 9.6l.2 4.7c0 .4 0 .5.5.4l2-.4a3394.2 3394.2 0 0016.5-3.5l8.5-1.8 7.8-1.6 7-1.5 7-1.5 6.8-1.4 7.7-1.6 8.6-1.8 10-2.2 10.5-2.1 6.8-1.5 4.8-1c.6-.1.6-.1.6-.8v-1.6c0-2.3 0-4.6-.2-7v-4.2l-.1-3.9c0-.5 0-.5.5-.6l5-1 11.1-2.1 7.1-1.5c1.5-.3 2.8-1 3.8-2s1.6-2.2 2.1-3.5c1-2.7 1.3-5.4 1.5-8.2v-3.9-1.5l.1-4.4c0-3.8.2-7.7-.4-11.5a13 13 0 00-1.4-4.6 6.6 6.6 0 00-2.8-2.8c-2-1-4-1-6.2-1-.3.1-.6 0-.8-.2a30 30 0 00-2.2-2.4l-3.8-3.8a109.7 109.7 0 00-12.6-9.9c-.3-.2-.7-.4-1-.8 3.4-1.5 6.8-3 10.3-4.2 0-.2-.1-.3-.2-.3l-5-4.1a62.8 62.8 0 00-7-5.1c-.3-.2-.3-.4-.3-.7l1-5.3.3-3.7.5-5 .2-4.2.1-4v-5.4-13.4-.2c0-.3-.2-.4-.5-.5l-.9-.4a99.2 99.2 0 00-26-7 158 158 0 00-11.5-1.2l-4-.1h-4.4c-1.1.1-2.3 0-3.4.2l-4.2.3a107.6 107.6 0 00-17 3c-.3.1-.5.1-.7-.1L93 17.1l-3.9-3.4c-.4-.4-.7-.3-.8.3l-.5 3.5-.5 2.8c0 .3-.2.5-.5.7l-7 2.9c-1.7.7-3.3 1.4-4.9 2.3l-.5-.1-2-1.7-3-2.7c0-.1-.1-.2-.3-.1v7c0 .3-.1.5-.4.7a151.8 151.8 0 00-24.3 17.6L40 50.6l-2.5 2.2a158 158 0 00-4.5 4.2 1 1 0 00-.3.8V66c0 .7 0 .7-.7.8l-3.9.8c-2.5.7-5 1.2-7.1 3l-.3-.7-4.6-11.5-4-11-1-3.4v-.6c.3-.6.4-1.2.5-1.8v-.5l-.8-2.4c-.3-.8-.9-1.2-1.6-1.5-2.2-.8-4.4-.8-6.7-.6-.6 0-.6.1-.7.7l-.4 3.4v2.1c.1.6.4 1 .9 1.4.5.4 1 .8 1.6 1 .3 0 .5.2.6.5l1.3 3.6a425.8 425.8 0 008 18.5 80.5 80.5 0 005.5 9.5c.5.6.6 1.2.6 2l-1.9-.8c-.6-.1-1.2-.3-1.8-.1-.4 0-.5.3-.6.6 0 .5-.1 1-.4 1.4-.4.6 0 .9.3 1.2l.2.2c.1.2.3.2.5.2 1.3-.3 2.6-.5 3.8-1.3.2-.1.3 0 .3.1l.1.3a26.6 26.6 0 0010 14.7c.5.3.5.3.3.8-.4 1-.8 1.9-1 2.9-1.2 3.2-2.2 6.4-2.9 9.7l-.6 3c0 .2 0 .3.3.2h.3l4.5-1.5 8-2.5c.6-.2.6-.2 1 .5 0 .4 0 .8-.2 1.2l-3 4.8c-.2.2-.4.3-.3.6l.6-.2 4.3-1.7c.5-.2.6-.2.8.3l2 4.5 2.2 4.5 1.8 2.9z"/><path class="new_st1" d="M48.6 125.9a51.4 51.4 0 01-4-7.4l-2-4.6c-.2-.5-.2-.5-.7-.2l-4.4 1.7-.5.2c-.1-.3 0-.5.2-.7l3-4.8c.3-.4.3-.7.2-1.1-.3-.8-.3-.8-1-.6l-7.9 2.6-4.6 1.4h-.2c-.3.1-.4 0-.3-.2l.6-2.9a88 88 0 012.8-9.8l1-2.9c.2-.4.2-.4-.2-.8-1.1-.9-2.2-1.8-3.3-2.9a26.8 26.8 0 01-6.7-11.7v-.3c-.2-.2-.3-.2-.5-.1-1.1.7-2.4 1-3.7 1.2l-.5-.1-.2-.2c-.4-.4-.7-.7-.3-1.3.3-.4.3-.9.4-1.3 0-.4.2-.6.6-.7.6-.1 1.2 0 1.8.2.7.1 1.3.4 2 .7-.1-.7-.2-1.4-.7-2-1.1-1.3-2-2.9-3-4.5l-2.5-5-4-8.6-4-9.9-1.4-3.5c0-.3-.2-.5-.5-.6-.6-.2-1.2-.5-1.7-1a2 2 0 01-.8-1.3v-2.2c0-1.1.2-2.2.4-3.4 0-.6 0-.6.7-.7 2.2-.2 4.4-.1 6.6.6.8.3 1.3.7 1.6 1.5a23.2 23.2 0 01.8 3c0 .5-.2 1.1-.4 1.7v.7l1 3.4c1.2 3.7 2.6 7.3 4 11l4.5 11.4.3.7c2.2-1.7 4.7-2.3 7.2-3l3.9-.7c.6-.2.6-.2.6-.8v-4.6-3.8c0-.3.1-.6.4-.8l4.5-4.1 2.4-2.2 4.4-3.8 3.9-3.3a257.6 257.6 0 0114.9-11c1.8-1.2 3.6-2.3 5.5-3.3.3-.2.4-.4.4-.7v-6.3-.7l.4.1 3 2.8 2 1.6c0 .2.2.2.5.1a611.6 611.6 0 0112-5.2c.2-.1.4-.3.4-.6l.4-2.9.5-3.5c.1-.6.4-.7.9-.3l3.8 3.5 1.4 1.2c.2.3.4.3.7.2a109.3 109.3 0 0117-3.1l4.2-.3 3.5-.1c1.4-.2 2.9-.1 4.3-.1l4 .1a85.8 85.8 0 0111.6 1.2 119.8 119.8 0 0126 7l.9.4c.2.1.4.3.4.5v.2c.1 4.5.2 9 .1 13.5V43l-.1 4-.3 4.2-.4 5-.4 3.8c-.2 1.7-.5 3.5-1 5.2 0 .4 0 .5.4.7a62 62 0 017 5.1l5 4.1s0 .2.2.3c-3.5 1.3-7 2.7-10.4 4.2l1 .9a136.6 136.6 0 0112.6 9.8c1.4 1.2 2.6 2.5 3.9 3.8a32 32 0 012.1 2.4c.3.3.5.4.9.3 2.1-.1 4.2 0 6.2.9 1.2.6 2.1 1.6 2.8 2.8.8 1.4 1.2 3 1.4 4.6.5 3.8.3 7.7.4 11.5l-.2 4.4c0 .5.2 1 .1 1.6v3.8c-.3 2.8-.5 5.6-1.5 8.2a9.8 9.8 0 01-2.1 3.5c-1 1.1-2.4 1.7-3.8 2l-7.1 1.5-11.2 2.1-5 1c-.5.1-.5.1-.5.6l.1 4v4.2c.2 2.3.2 4.6.2 6.9v1.6c0 .7 0 .7-.6.9l-4.8 1-6.7 1.4-10.5 2.2-10 2.1-8.6 1.8-7.7 1.6-6.8 1.4-7.1 1.5-7 1.5-7.7 1.6-8.6 1.8-6.7 1.4-9.8 2.1-2 .4c-.4.1-.5 0-.5-.4l-.1-4.6-.2-9.7v-4.8c-.1-.5-.1-.5-.6-.4l-9.4 1.8-7.6 1.4-8.8 1.6a717.9 717.9 0 00-5.3 1c-.2 0-.3 0-.3-.2l-.1-1.6v-3.5c-.2-2.3-.1-4.6-.2-6.9l-.1-6-.1-6.2c-.2-1.8 0-3.7-.2-5.6l-.1-5.7-.1-4.9c0-.5 0-.5.5-.6l7.5-1.4 8.5-1.7 2.3-.4.6-.1zm61.7 11.3h-.3l-2.6-.4h-.5c-.2 0-.3 0-.3.2v6a3.5 3.5 0 01-1 2.9c-.2.2-.2.3-.2.6v2.8c.6 0 1.1-.2 1.6-.3l4.1-.8c.2 0 .3-.1.3-.4v-2.6c.2-.4 0-.6-.3-.8-.5-.4-.7-.9-.6-1.5v-.7-4.3-.5c0-.2 0-.2-.2-.2zm71-16.2a78.7 78.7 0 00-.1 6l-.2 1.8c0 .2 0 .4-.2.6l-.8 1.1v3c-.1.4 0 .4.4.3l9.1-1.9c.4 0 .6-.2.7-.4l1.4-2.5c.2-.3.5-.6.6-1 .2-.1.2-.3.2-.5v-3.3l.1-.7V120c0-.3.2-.7 0-1.1.1-.1.1-.3 0-.4v-.6l.1-.7.1-4.8V107v-.7l-2-2.6c-.2-.2-.4-.2-.6-.2l-1.6.4-7.7 1.5c-.4.1-.4.1-.4.6v2.5c0 .3 0 .5.2.7l.3.4c.3.2.4.5.4 1l-.1 9.2V121zm-66.4 15.2l-.2.7c-.3.5-.8.7-1.4.6l-1.5-.2v.5l1.2 3.6 1 3.1c.1 1 .5 1.7.7 2.6.1.2.2.3.4.2l3.8-.7c.3 0 .4-.2.4-.4v-2.8l-.1-.4-.5-.5c-.3-.3-.4-.6-.4-1v-1.6-3.8-.6-.4l.1-.7.2-11c0-.4 0-.6.2-.9.8-.7 1-1.6.9-2.7v-1.2-.6l-1.2.3-4.4.9c-.5 0-.5 0-.5.6v1.8c0 .7 0 1.3.6 1.7.3.2.4.5.4.9l-.1 5.2v3.2c-.3-.2-.3-.5-.4-.7l-1.8-6-1.8-5.5c-.1-.5-.1-.5-.6-.4l-1.6.4c-.2 0-.3 0-.4.2l2 3.6c1.2 2.2 2.3 4.4 3.2 6.7.7 1.6 1.6 3 1.8 4.8v.5zm-39.8 9.1v.8l.3 5.3.1 3.8c0 .4.1.4.5.3l5.1-1c.3-.1.4-.2.5-.5 0-1.4.3-2.8.3-4.3.2-.7.2-1.5.3-2.3l.3-3v-.5-.7l.2-1 1-10.5c.1-1 .3-2 1-2.9.2-.1.3-.4.3-.6v-2.6c0-.3 0-.4-.4-.3l-5.4 1.1c-.3 0-.4.2-.4.5v1.8c-.1.8 0 1.4.7 1.9.2.2.3.4.2.8l-.6 10.4c0 .7-.2 1.4-.1 2.2v.6l-.1.5c-.1.2 0 .5 0 .8l-.3 2.7-.2-1.8v-1.5l-.1-.6v-.5L78 141l-.8-13.6c0-.5 0-.5-.5-.4l-4.2.9c-.5 0-.5 0-.5.6l-.7 7.5-.5 6.5-.3 3.5-.1 1-.3 3.5a315.6 315.6 0 01-.3-4.2v-.7c0-3.7-.2-7.4-.3-11 0-1 0-1.9.7-2.6.2-.2.3-.3.3-.5v-3.1h-.2l-5.7 1.1c-.2 0-.3.2-.3.4v1.8c-.1.8 0 1.5.7 2 .2.2.3.4.3.7l.5 7.7.4 5v1c0 1.6.2 3.2.4 4.8l.2 4c0 .5 0 .6.6.4l4.7-.9c.3 0 .4-.2.4-.5l.4-4.4v-1.2l.4-3.7v-1.2c.3-2 .4-4.2.6-6.3l.3-3.7h.2l.3 5.5a280.4 280.4 0 00.3 4.5zm-23-53l.5.5c.4.4 1 .5 1.4.6l.4-.1.5-1.8c-2.2-.3-4.3-.2-6.6.3 1.3.5 2.5.8 3.8 1.1l-.2-.4.1-.2zm84.6 38.8v.6 5.3a3 3 0 01-1 2.5v.1c-.2.2-.2.4-.2.6v2.9h.3l5.8-1.2 4.6-1c.3 0 .5 0 .5-.4v-2.9-3c.2-1.5.2-5 .1-5.4h-.1l-3.5 2.1c-.2.1-.3.3-.3.5v4.4c0 .3 0 .4-.2.4l-1.5.3c-.2.1-.4 0-.4-.3v-1c.2-1.6.1-3.2.1-4.8v-.6-2-.7l.2-8c0-1 .2-1.7.8-2.4.1-.1.3-.3.3-.6v-3.1h-.2l-5.7 1.2c-.3 0-.4.2-.4.5v2c-.1.6 0 1.2.6 1.6.3.2.4.5.4.8l-.1 4.4v4.3 2.9zm-15 3.2c-.1.3-.1.5 0 .8l-.2 2.6v3.9c-.1.7.1 1.2.6 1.6l1.5 2c.2.3.4.3.6.2l6.5-1.3c.2 0 .3-.1.4-.3l1.8-3.1c.3-.3.5-.6.5-1v-2.1a98.9 98.9 0 00.1-5.6c.2-1.4.1-2.8.1-4.3l-5.8 1.2c-.3 0-.3.2-.3.4v4 .5c-.2.3 0 .4.3.3l1.5-.3v4.8c0 .1 0 .3-.3.4l-3 .6c-.2 0-.3 0-.3-.2a56.5 56.5 0 000-6c.1-1 .2-1.8.1-2.7v-.6l.2-7c0-1 0-1 .9-1.2l2.6-.5v4.5h.3l3.6-2.1c.3-.2.3-.3.3-.6V119c.1-.3 0-.5-.1-.7a75 75 0 01-1.9-2.4c-.2-.3-.4-.4-.7-.3l-6.3 1.3a1 1 0 00-.7.5 138.3 138.3 0 01-2.2 4.2l-.2 9.4v3.3zm-25.3 32l-.1.4v4c0 .6-.2 1-.5 1.5-.2.2-.4.4-.4.8v2c0 .3 0 .4.4.3l1.7-.3 6.4-1.4c.2 0 .4 0 .4-.4v-4.6c.1-1.4 0-2.9.2-4.4l-3 1.8c-.2.1-.2.3-.2.5v2.8c-.2 1-.2 1-1.2 1.1-.4 0-.4 0-.4-.4v-.6-.3-3.5-.5c0-2.8.2-5.6.1-8.4 0-.7.1-1.3.6-1.8.3-.3.3-.6.3-1v-1.7c0-.4 0-.4-.4-.4l-4.3 1c-.2 0-.3 0-.3.3v1.9c0 .3 0 .6.3.8.4.3.5.7.5 1.2l-.1 8.9v.5zm-60.5-11.9v.5.6l-.1 3.2c0 .2 0 .5-.2.7a55.4 55.4 0 00-.9 1.4v3.2l5.8-1.2c.2 0 .3-.2.3-.4v-2c0-1 0-1-.7-1.8-.3-.2-.3-.5-.3-.8a478.8 478.8 0 00.1-7.3c.1-.5 0-1 .2-1.5l.2.6a43.4 43.4 0 001.3 4c.4 1.6.8 3 1.4 4.5l1 3.6c.1.2.2.3.5.3l3.7-.8c.3 0 .4-.2.4-.4v-2c0-1.1 0-1.1-.8-1.9-.2-.3-.2-.5-.2-.7v-3.9-.6c.1-1.2.2-2.5.1-3.7v-.6l.2-8.7c0-.9.2-1.6.8-2.3.1-.2.3-.3.3-.6v-3.1c-.6 0-1.1.2-1.7.3l-3.8.8c-.5.1-.5.1-.5.7v1.9c-.1.6 0 1 .5 1.4.4.3.4.7.4 1.1l-.1 8.4h-.1l-.8-2.4c-.4-1.5-1-2.9-1.3-4.4l-1.8-5.6c0-.2-.2-.3-.4-.3l-3.9.8c-.3 0-.3.2-.3.4v1.9c-.2.8 0 1.4.6 1.9.3.2.3.4.3.7l-.1 7.8v2.9 3.4zm128.4-17.3c.8 0 1.5-.2 2.2-.4l3.1-.6c.5-.1.6-.2.6-.5v-2.3c.2-.4 0-.8-.3-1l-.3-.4c-.3-.2-.3-.5-.3-.9v-2.4-3-1.3-.9l.1-1.2h.1l.5 1.5.1.4.3 1 1.1 3.4 1 3c.2 1.2.7 2.3 1 3.5 0 .2.2.3.4.2l3.7-.8c.4 0 .4-.2.4-.5v-2.1c.1-.6 0-1.1-.6-1.5-.3-.3-.4-.7-.3-1V127v-4.5-.5c.1-.7.2-1.3 0-2 .2-.2.1-.5.2-.7v-8.1c0-.3 0-.6.3-.8.7-.8 1-1.7.9-2.7v-1.3-.5l-1.2.2-4.3.9c-.6.1-.6.1-.6.7v1.7c-.1.7 0 1.3.6 1.7.3.3.4.6.4 1l-.1 3.8v3.6l-.1 1c-.3-.5-.4-1.1-.6-1.6l-.2-.6-1-3.1-.9-3-1.2-4c0-.3-.2-.4-.5-.4l-3.9.8c-.2.1-.3.2-.3.4v2.2c-.1.6 0 1 .5 1.4.4.3.5.7.4 1.2a118.3 118.3 0 000 6.4c-.2 1.3-.1 2.6-.1 4v3.6c-.1.4-.2.8 0 1.3-.2.6-.2 1.3-.2 1.9.1 1-.1 1.8-.8 2.5a1 1 0 00-.2 1v2.6c0 .2 0 .1.1 0zm-23.7 19v4.6c-.2.7-.1 1.3-.2 2 0 .4.1.7.4 1l1.2 1.6c.2.3.4.4.8.3l4-.8c.6-.1 1-.4 1.2-.9l1-1.7c.2-.3.5-.6.5-1 0-.8.2-1.6 0-2.4.2-1.2.2-2.5.1-3.8l-3 1.8c-.2 0-.3.2-.3.3v2.4.7c0 .3-.2.5-.5.5l-1.2.3c-.8.1-.8.1-.8-.8v-.5-4.3-.3l.1-3.5v-3.9c.1-.5.1-.5.6-.6l1.3-.3c.6-.1.6-.1.6.5v4h.3l2.7-1.5c.3-.2.3-.4.3-.7l.1-4.2c0-.2 0-.4-.2-.6l-1.4-2c-.2-.2-.4-.2-.6-.2l-4.5 1c-.3 0-.5.2-.7.4l-1.4 2.4c-.2.4-.3.7-.3 1.1v6.4c-.1.8-.2 1.5-.1 2.3v.5zm-88.9-4.9v4.6l-1 1.4a77.5 77.5 0 01-.3 3.2c0 .2.2.4.5.3h.2l8.2-1.8 2.4-.5c.5 0 .6-.2.6-.6v-4.2l.1-4.8h-.2l-3.5 2.1-.2.4v2.5c0 .3-.3.3-.5.4l-2.3.4c-.2-.4 0-.8 0-1.3v-2.8-.7-.5c0-.4-.2-.9 0-1.1.3-.3.8-.2 1.2-.3l3.6-.8c.3 0 .5 0 .5-.4v-2.5-2.5l-5.1 1v-.2-5.9-.2l.2-.2 2.6-.5v4l.6-.3 2.9-1.7c.3-.2.4-.4.4-.8l.1-6.7v-.4l-1 .3-10.3 2c-.4.2-.4.2-.5.6v2c0 .6.1 1.2.7 1.6.2.2.3.5.3.8v4.9c-.1 1.6-.2 3.1-.1 4.7l-.1 4v.5zm45-10.2v-.5c0-.9 0-.9 1-1l3.8-.8c.3-.1.5-.2.5-.6v-1.3c0-.3 0-.5-.4-.4l-2-.1a2 2 0 01-1.4-.7l-.9-1-.5-.5c-.5-1-1.2-2-1.5-3-.3-1.2-.7-2.2-1.2-3.2l-1.7-3.5c-.1-.1-.2-.4-.5-.5v2.8c0 .3 0 .5.3.7l.3.4c.3.3.4.6.4 1l-.2 9.1v8.4c0 .9-.3 1.6-.8 2.2l-.2.3-.2.3v3c.2.2.4 0 .5 0l7.6-1.5 3.2-.7c.3 0 .5-.1.5-.5v-5.7c.2-.7.2-3 0-3.5l-3.6 2.2c-.2.1-.2.3-.2.4a90.8 90.8 0 000 2.3c0 .4-.2.5-.5.6l-1.6.3c-1 .2-.8 0-.8-.6v-.2-4.2zm52.2-3.7v2.6c0 .5 0 .5.4.4l5.3-1c.2-.1.4-.2.4-.5V136c.1-.4-.3-.6-.5-.8-.3-.3-.4-.6-.4-1v-1.6-.7-2.9c0-.3.2-.5.5-.5l2.2-.5c.4 0 .4 0 .4.4v4.3c0 .9-.1 1.7-.7 2.4l-.3.6v3.1h.1l5.7-1.1c.2 0 .3-.2.3-.4v-2.7c0-.2 0-.4-.3-.5 0-.2-.1-.3-.3-.4-.3-.3-.4-.6-.4-1V131c.2-1.6.1-3.3.1-5v-.6l.1-3.9.2-8.3c0-.3-.1-.4-.3-.6l-1.8-2.5c-.2-.3-.4-.3-.7-.3l-5.8 1.2c-.3.1-.4.2-.6.5l-2 3.3c-.2.3-.3.6-.3 1v8.2l-.1 3.8v.7l-.1 5v.5c0 1-.2 2-.9 2.7-.1.1-.3.3-.2.5zm-42 32.1c-1 1.1-1 1.1-1 2.5l.1 1.4 4.5-1c.2 0 .3-.2.3-.4v-1c.1-.8-.1-1.6-.8-2.2v-4c0-1 0-.8.9-1l2.9-.6c.2 0 .3-.2.3-.4v-.4-.4-1.6-1.5l-.9.1-2.5.6c-.5 0-.5 0-.5-.4v-5c0-.1.1-.2.4-.3l1.7-.3v3.4h.2l2.6-1.6c.2-.1.3-.3.3-.5v-5.6s.1-.2 0-.4h-.3l-4.7 1-3.6.8c-.3 0-.5.2-.5.5v1.4c0 .6 0 1 .5 1.3.2.2.3.5.3.8v2.5l-.1 6.3v.5c-.2 1.8-.1 3.7-.2 5.5zm-31.8 2v-.5l.1-.2.4-5c.1-1 .1-1.9.3-2.8l.5 7.6v.5l.1 2.3.1 2.3.2 3.1v.2c0 .4 0 .4.5.3l3.8-.8c.3 0 .4-.1.5-.4l.3-3.4.2-2 .3-3v-.4l.1-1.1.8-7.3c0-1 0-2 .8-2.7l.2-.5v-1.8c0-.5 0-.6-.5-.5l-4 .9c-.4 0-.5.1-.5.4v1.5c0 .5.1 1 .5 1.3.2.2.3.3.3.6l-.2 3.7-.4 6.1v.5l-.2 3.2c-.2-.7-.2-1.4-.2-2l-.1-1v-.6-.8l-.4-5.2-.3-5.4v-1.6c-.1-.4-.1-.4-.5-.3l-3.3.7c-.3 0-.4.1-.4.4l-.6 6c0 1.2-.2 2.3-.3 3.5 0 1.4-.3 2.7-.3 4v.6l-.4 3.3v-1l-.1-2v-.6-1l-.3-8c0-.8 0-1.4.5-1.9.2-.2.3-.4.3-.7v-2c0-.3 0-.3-.4-.2l-4.2.8c-.2 0-.3.2-.3.4a68.1 68.1 0 01.1 2.6c.6.4.7 1 .7 1.6v.5l.5 6.5.1 2 .1.6.3 4.4.2 3c0 .6 0 .6.5.5l3.6-.7c.3 0 .4-.2.4-.5l.1-1 .2-2.3.2-2.1.1-2.6zm42.5-10l-.1 5.3c0 .5-.2.8-.5 1.1-.2.2-.3.4-.3.7l-.1 1.9c0 .5 0 .6.5.5l4.2-.9c.2 0 .3 0 .3-.3l.1-2c0-.4-.1-.6-.4-.8a1 1 0 01-.4-.7v-3c0-.6 0-.6.5-.7l2.8-.6c.4 0 .6-.1.7-.4l1.1-1.9c.1-.2.3-.3.3-.5.2-.2.4-.5.4-.9v-2.7l.1-6c0-.2 0-.4-.2-.6-.5-.6-1-1.1-1.3-1.8-.2-.3-.5-.3-.9-.3l-2.8.6-4.2.9c-.4 0-.4.1-.5.6v1.5c0 .4 0 .8.4 1 .4.3.4.6.4 1v6.3c0 .8-.2 1.5-.1 2.2v.5zm17 1.8c0 .3 0 .6-.3.9-.2.2-.4.4-.4.8l-.1 2.3c0 .2 0 .3.3.2l4.2-.9c.3 0 .4-.2.4-.4v-1.8c0-.4 0-.7-.4-1a1 1 0 01-.4-.9v-1.6-2.2c.1-.6.2-1.1.1-1.7v-.5l.2-9.2c0-.2 0-.4-.2-.6l-1.4-1.9c-.2-.2-.4-.3-.7-.2l-4.4.9c-.3 0-.5.2-.7.5l-1.4 2.4a2 2 0 00-.3 1 160.4 160.4 0 01-.1 9.5v1.2l-.1 2.5v1.5c-.1.4 0 .9-.3 1.2-.6.6-.7 1.3-.6 2v1l.1.5 4.4-1c.3 0 .4-.1.4-.4a72.1 72.1 0 01-.2-2.6c-.5-.3-.6-.8-.5-1.3V160v-.4l.3-.3 1.8-.3c.2 0 .3 0 .3.3v4zm-49.5 11c0 .3 0 .6.2.8l1.4 1.8c.2.2.3.3.7.3l4.3-1c.3 0 .4-.2.6-.4l1.1-2c.3-.5.7-1 .6-1.6v-.2-5.2c.2-3.4.1-6.9.3-10.4 0-.2 0-.4-.3-.6l-1.3-1.8c-.2-.4-.5-.4-.9-.3l-4 .8a1 1 0 00-.7.5l-1.5 2.5c-.2.3-.3.6-.3 1v5a113.3 113.3 0 000 6l-.1 2v2.8zm76-17l-.1-.3-2-5-.2-.3-.4-1a.9.9 0 010-.8l2.6-5.9 1-1.9c.2-.2.3-.3.3-.6v-2c0-.3-.1-.4-.3-.3l-4.2.9c-.2 0-.3.1-.3.4v1.5c0 .5 0 1 .4 1.3.3.2.3.4.2.7l-2.6 5.8s0 .2-.2.2a497.1 497.1 0 00.3-6.1c.6-.6.7-1.3.7-2v-.8l-.1-.7-.6.1-3.7.8c-.5 0-.5 0-.5.5v1.5c0 .5 0 .9.4 1.2.2.2.4.4.4.7v2.3l-.1 5.5v2.3c-.2 1.4-.1 2.7-.1 4 0 .6-.2 1-.6 1.5l-.3.6v2.6l4.5-1c.2 0 .3-.2.3-.4v-2c0-.2 0-.4-.2-.6-.5-.3-.6-.8-.6-1.3v-1.8c0-1 .6-1.7 1-2.5l.2.3c.5 1.1.9 2.3 1.5 3.4v.3c.3.3.2.6 0 .8l-.4.6-.2.5v2c0 .3 0 .4.4.3l4.3-.8c.2-.1.4-.2.4-.5v-2c0-.3-.1-.4-.3-.6a7 7 0 01-1-1.3zm-58.7-42.5s.1 0 0 0v-.1l-4-5.5a.7.7 0 00-.6-.3l-2.5-.3c-2.1-.2-4.3-.4-6.4-.2-.8 0-1.6.2-2.3.6l2.4 3.3.4.2 3.3.4c2.5.3 5 .7 7.4 1.3l2.3.6zM57.8 74.2c0-.3-.2-.4-.3-.6-.8-1.2-1.6-2.5-2.2-3.8-.5-1-1.3-1.6-2.3-2a7.6 7.6 0 00-3.8 0 617.2 617.2 0 00-23.7 6c-.7.3-1 .8-1.2 1.4-.1.6-.2 1-.1 1.6 0 1.2.3 2.4.7 3.5l.4 1.3c.2 0 .2-.2.2-.4l1.1-2c1.4-1.9 3.4-1.5 4.6-.6.4.4.8.8.8 1.4l-1 .9c-1 .6-2 1-3 1.4-1.1.5-1.5 1.3-1 2.5.1.6.4 1 .8 1.5l3.5 3.8 3 2.8c.4.2.8.3 1.2.1a124 124 0 0110.3-3.2c2-.5 4-1 6.1-1l.1-.2c-1.8-1.1-4-1.6-6-2.1 1.7-.1 3.4 0 5 .4 3.5.7 6.7 2 9.7 3.9 2 1.2 4 2.7 5.4 4.7a328.2 328.2 0 0022.4 2.3c.4 0 .7.2 1 .5 2.6 2.5 5 5.2 7.2 8 .4.4.3.4.8 0l4.4-3.1c2.3-1.8 4.4-3.7 6.1-6l.8-1h-.4l-.6-.1a46.8 46.8 0 00-14.4 3c-.2.1-.3.3-.6.2l.7-1c1.8-2.4 4-4 6.8-5 .5 0 .9-.3 1.3-.6a30.3 30.3 0 005.6-5.1c3-3.2 6-6.5 8.8-10l.7-.9c-3.5 0-6.8.6-10 1.2a109.7 109.7 0 00-9.6 2.3c1.5-1.2 3-2.4 4.6-3.4a20 20 0 015.7-2.8c.3.1.4 0 .6-.1.5-.2 1-.6 1.4-.9a85.2 85.2 0 0010.8-9.3l.7-.9c-3.3-.4-6.4-.6-9.7-.6 1-.8 5.5-2 9-2.5 2.4-.3 4.8-.2 7.3.5a47.6 47.6 0 01-8 9L115 73c2.6 0 5.1 0 7.7.4 0 .3-.2.5-.3.6l-3.5 5.2-.3.6-.4.5a89.7 89.7 0 01-11 12v.3h2.8c1.4 0 2.7.2 4 .5.8.2.8.2.5.9a42.7 42.7 0 01-14.9 15.3c-.3.2-.3.2 0 .6l4.6 6c0 .3.2.4.4.3l2.2-.4-2.1-6c1.7 1.2 3.2 2.6 4.3 4.5.4.6.3.6 1 .4a869 869 0 0143.8-11.2h1.3l4-.8 11-2 9-1.7 2.7-.5-.8-1a103.8 103.8 0 00-21.2-17c-.4-.1-.7-.2-1.1-.1l-1 .2-5 .5c-1.3 0-2.5.2-3.8.1h-1.1l.2.3 6 5.3c1.8 1.5 3.6 3.1 5.2 4.8.5.5 1 1 1.3 1.7l-.5.2a54.4 54.4 0 01-13.7 2.6l-2.5.1h-5.6c-1-.3-2-.3-2.9-.4-4.4-.3-8.5-1.7-12.3-4l-.4-.4h.2a111 111 0 0021.7 1.2c3-.1 5.8-.5 8.6-1.1l.6-.2-.6-.4c0-.3-.2-.3-.3-.5l-5-4.3-9.5-8.4c-.1 0-.3-.1-.2-.3h3.5l1 .2a59.9 59.9 0 0022.7-2.5 43 43 0 003.3-1l-.7-.6a90.1 90.1 0 00-13.3-8.3l-1.4-.9a65.6 65.6 0 00-10-4.3l-3.6.8-3 .5c2.8 1.8 5.4 3.4 8.4 4.6l-.4.1h-2c-2 0-4-.5-5.8-1.2-3-1.2-5.6-3-7.9-5.1l-.5-.7a21.7 21.7 0 013.2-.6c3.3-.4 6.6-1 9.9-1.8 1.9-.5 3.8-1.1 5.6-2l.8-.4-2.3-1c-6.3-2-12.7-3.5-19.2-4.6-1.6-.3-3.3-.7-5.1-.8 1.1 1.5 2.3 2.7 3.2 4-.6 0-1.1-.2-1.6-.4-1.4-.7-2.7-1.6-3.9-2.6-2.7-2.3-5-5-7.2-7.7a126.5 126.5 0 00-13.3-14.4c-2.2-2-4.6-3.8-6.9-5.7h-.3L91 23l-.2 5.1-.5 7.8-.2 6v.4c-.2 1.1-.5 2.2-1 3.2-.4 1-1 1.9-2 2.5l-4.9.8c-4.3.9-8.5 2-12.6 3.5-3 1.1-5.9 2.5-8.5 4.4a16.9 16.9 0 00-5.4 6s-.2.2 0 .3c-.2 0-.3.2-.3.3l-.3 1.5c-.1 1.1.4 2 1.5 2.5 1 .4 2.1.5 3.2 0l3-1.2c3.9-1.7 7.9-3.4 12-4.9 2.2-.8 4.5-1.5 7-1.2.4.2.5.6.5 1s-.2.7-.3 1l-1.2 1.7c-.4.4-.8 1-1.3 1.3v-.5c.1-.6.3-1.3 0-2 0-.6-.2-.7-.8-.6-.5.1-1 .2-1.5.5-1.6.7-2.8 1.8-3.8 3.1l-2.7 3.5c-.9 1.2-1.9 2.3-3.2 3.2-1 .6-2 .9-3 .9a9 9 0 01-3.7-.9l-.7-.2v.4L61 74c2 3.3 4.7 5.8 7.8 8H68.2l-2.6-1.4a28.8 28.8 0 01-7.8-6.4zm45.8-46c0 .3.1.4.2.5l3.9 3.9c1 1.2 2.2 2.2 3.3 3.4l2 2.3 4.8 5.1c.1.2.2.3.4.3h1l2.5.4 4.6.7a124.6 124.6 0 0126 7l1.8.8c.3.2.4.3.2.6l-.2.2c-1 1.4-2.2 2.3-3.6 3.2-.6.5-1.4.8-2.1 1.2 2.4 1.3 4.8 2.3 7 3.8.3-1 .4-1.9.5-2.8l.2-1.7.2-1.8.1-1.7.2-2.7.2-2.5.2-4c0-4 .1-8-.1-11.8 0-.6 0-.6-.6-.8a74.9 74.9 0 00-20.4-4.7l-4.3-.5-4.3-.2c-2.7 0-5.5-.2-8.2 0-.8.1-1.6 0-2.4.2l-3.1.2-3.3.4-4.4.6-2.3.4zM59.3 109a30 30 0 00-6.9.7c-.3 0-.3.2-.2.5l.1.2 3.3 6.5 2.8 5 1.7 2.8c.2.3.4.4.8.3l1.7-.3 8.2-1.6 5.7-1.1 6.9-1.4 5.9-1.2c.4 0 .4-.1.2-.5l-1.1-2-1.4-1.6a22 22 0 00-6.4-3.4 36.7 36.7 0 00-8-2l-2.5-.2-3.1-.4-2-.1-3.7-.2h-2zm101.4-44.6l.2-2a198.4 198.4 0 001.5-28.4V28c0-.4-.2-.6-.5-.7l-2.4-1a103.3 103.3 0 00-36-6.1A103.9 103.9 0 0099 23.2c-.1 0-.3 0-.5.2l.6.5c.8.8 1.6 1.5 2.3 2.4.2.3.4.3.7.3a98.6 98.6 0 0124-2.3c5.9.1 11.6.6 17.3 1.7 5 .9 10 2.3 14.8 4.2.5.2.6.4.6.9a360 360 0 01-.6 25c-.1 2-.3 4-.7 6 0 .3 0 .4.3.6l1.9 1 1 .7zm-77.3 45l-.2-.4-3-4c-.2-.3-.5-.4-.8-.5-2.4-.3-4.8-.6-7.1-1.1a321 321 0 01-25.4-6H41c-1.7 0-3.4 0-5.1-.4-.4 0-.4.2-.5.4l-2.3 7-.2 1 19.4-5.6c-.2.5-.6.9-.8 1.2-1 1.5-2.1 3-2.9 4.7 0 .3-.3.5-.3.8 12-2.4 23.6-1.4 35.1 2.9zm-40-14.7l.5.2a385.2 385.2 0 0036.6 8c.8 0 1.4.3 2 .9 0 .2.3.3.5.1l1-.3c2-.4 4-.4 6-.2l3.4.2v-.1c-1.4-1.5-2.7-3-4.2-4.3a1 1 0 00-.7-.3l-6.2-.4a226.8 226.8 0 01-21.8-2.7 127.5 127.5 0 01-13.7-3c-.6.1-1 0-1.6-.1-.1 0-.3-.1-.4 0v.4c0 .5-.2.9-.7 1.1l-.7.5zm27.1-60.6l-.7.3a71.6 71.6 0 00-8 5.1c-8.5 6-16.3 12.9-23.8 20a1 1 0 00-.3.8v6.4h.2l3-.7c.4 0 .5-.3.5-.6v-3.3c0-.3 0-.6.3-.8A208 208 0 0156 48.7c4.6-3.7 9.3-7.3 14.6-10.1.2-.1.3-.3.2-.5l-.2-3.6v-.4zm.5 6.7l-1.2.6a91.2 91.2 0 00-16.6 12l-2.5 2.2-3.6 3.3-2.8 2.8c-1.4 1.4-1.2.8-1.2 3.1 0 .5 0 .6.6.5l2-.5 5.6-1.2c.4-.1.7-.3.8-.8.3-1 .8-1.9 1.3-2.8a20 20 0 015.4-5.9A45 45 0 0171.5 48c.6-.2.6-.2.4-.8l-.6-3.6c-.1-.9 0-1.8-.3-2.7zm-65.4 1l.1.6 3.5 9.2a223 223 0 0011 24.4l.8 1-.2-1-.3-.6c-.2-.3.2-.4.2-.6l.1-.6.8.8c.3.2.4.5.8.7l-.2-.7c-2.9-5.9-5.5-11.9-7.6-18L9.9 43.2c-.2-.4-.5-.7-.9-1a7.9 7.9 0 00-3.4-.5zm83.8 71.3l3.1 4.9c.1.1.2.2.4.1h3c3 .3 5.9 1 8.8 1.7.4 0 .5.3.6.7-4-.9-7.9-1.9-12-1.7 4.6 1 9.2 2 13.8 3.5-1.2-2.2-2.4-4.3-3.8-6.3-.2-.3-.5-.4-.8-.5a80.8 80.8 0 00-13-2.4zm24.4 21.6v-.3l-1.5-3.6a33 33 0 00-4.7-1.7c-3-.7-6.2-1.2-9.4-1.5h-1.4l1 3.5c.1.4.3.6.7.7l13.5 2.6 1.8.3zm-67.4-23.9l.1.5 2.8 5.6c1.3 2.6 2.6 5.2 4.2 7.7l.8 1.3c.1.1.2.3.4.2l3.5-.8v-.2l-.2-.4a106.7 106.7 0 01-8.3-14.8l-3.3 1zm64.8 18.7l-.2-.5-1.9-3.4c-.3-.6-.3-.6-1-.7l-2.6-.5a38 38 0 00-9.7-.5c-.3 0-.3.2-.2.4l.7 2c.1.3.3.5.8.5a64 64 0 0112.4 2.2l1.7.5zm-14-21.3c0-.2 0-.3-.2-.4l-2-2.2c-.3-.4-.6-.9-1-1.2-.5-.2-1-.1-1.6-.2a35.3 35.3 0 00-9 .4l2.5 3.4c.1.2.3.1.4 0l2.1-.3a41.4 41.4 0 018.9.5zM88 26.3a85.4 85.4 0 00-10.1 4.2l2.9 2.8c.1.1.3.2.5 0a43.4 43.4 0 016-2.4c.3 0 .4-.2.4-.4l.3-4.2zm20.6 98.2l-.8-1.2c-.1-.3-.3-.4-.6-.5a119.8 119.8 0 00-13.5-3.4l.1.6 1.1 2.6c.2.5.2.5.8.5 3.2 0 6.3.2 9.5.7l3.4.7zm-38-58.7c-.8.1-1.4.4-2 .6l-5 2-2.1 1.1c-.3.2-.4.3-.2.6.2.4.5.6.9.8 1.6.7 3.1.7 4.5-.4 1.4-1 2.5-2.3 3.4-3.8.2-.2.4-.5.4-.9zM87 39.3l.2-1.5v-1.4c.2-1 0-2 .2-3 .1-.5 0-.6-.6-.4-1.3.4-2.6 1-3.9 1.6-.5.3-.5.3-.1.7l3.8 3.8.4.2zM3.2 37.8l.8 1.5c.1.4.4.5.8.5 1.2.1 2.4.3 3.5.6l2 .5-.7-1.6a.8.8 0 00-.5-.5 13.4 13.4 0 00-5.9-1zM40 95.6l.8-1.3c0-.3 0-.7.3-.8.3-.2.6 0 1 0l.3-.1.2-1c-1.5 0-5 1.3-5.6 1.8l.8.5c.2.1.3.1.4 0l.6-.9 1.2 1.8zm43.2 9.7c-.2 1 0 1.6.5 2.3l1 1.3.7 1.1c.2-.2.2-.5.3-.7.2-.3.1-.6 0-.9l-1.8-2.2-.7-.9zm3 4.2c-.2.1-.1.3-.2.4-.2.5 0 .8.2 1.2l2 2.7c.1.1.2.3.4.3v-.2c.3-.4.3-.7 0-1l-1.7-2.4-.7-1zm3 4.7c-.3.4-.3.8 0 1.2l2.5 3.5c0 .2.2.4.3.4.3-.3.3-.7 0-1.1l-2.3-3.3-.5-.7zm3.4 5.3c-.3.5-.3 1 0 1.6l1.6 3c0 .1.1.4.3.5.3-.3.4-.6.2-1l-1.8-3.7-.3-.4zm-76.4-39l3.3-.7c-.8-.6-1.8-.9-2.5-.8l-.4.1c-.2.5-.4.9-.4 1.4zM95.6 128h.2l.1-.6v-.6l-.8-2c-.3.7-.4.9-.3 1.1l.8 2.1zm-73-52.1h-.1z"/><path class="new_st2" d="M141.7 77.5c-1.2-.2-2.4-.1-3.6-.1 0 .2 0 .2.2.3l9.6 8.4 4.9 4.3c.1.2.4.2.3.5h-.4c-1.4-.6-2.8-1.1-4.3-1.5-5.6-1.5-11.3-2.4-17-3l-2.6-.3a19 19 0 006-5.6l-1-.2-2.7-.1c-4-.3-8-.5-12-.3h-.5c0-.3.2-.5.3-.7l3.5-5.2.3-.6c-2.5-.4-5-.3-7.7-.4l4.5-3.9a68.5 68.5 0 008-9c-2.4-.6-4.9-.7-7.3-.4-3.5.4-8 1.7-9 2.5 3.3 0 6.5.2 9.7.6l-.7.9A96.9 96.9 0 01108 73.9c-.1 0-.3.2-.5.1H103.7c-4 0-8-.1-12-.5-1.3 0-2.7-.3-4-.4l-4.6-.6c-.4 0-.5 0-.4.4.2 2.4.2 5 .3 7.4l-.1 9.6-.2 2c-.2 0-.3-.2-.5-.3-5.7-3.5-11.5-6.7-17.6-9.5A112 112 0 0051 76.8l-1-.3.1.8.6 2.7c0 .5 0 .6-.6.5a51.2 51.2 0 00-15.8-.9c-.8.1-1.6.1-2.4.4 0-.6-.4-1-.8-1.3-1.2-1-3.2-1.4-4.6.5-.4.6-.8 1.3-1 2l-.3.4-.4-1.3.1-.3c0-.8 0-1.5.3-2.3.2-1 .7-2 1.8-2.5l1.4-.5A201.1 201.1 0 0150 69.9a4 4 0 011.8.1c1 .4 1.8.8 2.6 1.4l3 2.5c0 .1.3.3.5.3v.1h.2c2.1 2.6 4.7 4.6 7.6 6.3l2.7 1.4h.3c.2.3.4.4.7.4a25.5 25.5 0 01-9-10l-.1-.3c.3 0 .5.2.7.3 1.1.5 2.4.8 3.7.8 1 0 2-.3 3-1 1.3-.7 2.3-1.9 3.2-3l2.7-3.6c1-1.3 2.3-2.4 3.8-3.1l1.5-.5c.6 0 .8 0 1 .6l-.1 2c0 .2-.2.4 0 .6.5-.4.8-1 1.2-1.4.5-.5.9-1 1.2-1.7.2-.3.3-.6.3-1s0-.8-.5-1c0-.3-.3-.4-.6-.5-.4-.2-1-.3-1.5-.3l-2.6.1a52.1 52.1 0 00-11.8 4L61 65.6c-1 .4-1.9 1-3 1.1h-.6c-1.1-.3-2-1.7-1.7-2.8v-.7l.1-.4c1.3-2.5 3.2-4.4 5.4-6 2.6-1.9 5.5-3.3 8.5-4.4 4.1-1.5 8.3-2.6 12.6-3.4l5-.9.6.1 3 .3c1.7 0 3.2.3 4.8.6.9.2 1.8.4 2.5.8.6.4.6.6.2 1-.5.6-1 1-1.7 1.2-1.6.8-3.2 1.4-4.9 2l-.3.1h.3c2.8 0 5.5.2 8.2 0l2.5-.2c1.4 0 2.8-.2 4.2-.4 1.4-.1 2.9-.4 4.3-.9 1-.4 1-.4.4-1.2l-3-4.2-3.8-5.2-5.6-7.5c-1.4-1.6-2.6-3.3-4.2-4.7l-.4-.4c-.4-.3-.5-.2-.8 0l-.4.9-1 3.7c-.5 2.6-1 5.2-1.7 7.8 0 .2 0 .4-.2.6-.2-.2-.1-.4-.1-.5l.2-6 .5-7.7.2-5.1.2-2.2h.3l6.9 5.7a102.5 102.5 0 0113.3 14.4 52 52 0 007.2 7.7c1.2 1 2.5 1.9 3.9 2.6l1.6.5-3.2-4c1.8 0 3.5.4 5.1.7a553.1 553.1 0 0012.8 4.8c.6.3 1.3.5 1.8.9l-.5.4c-2 1-4 1.7-6.2 2.5l-3 1c-.1.1-.3.1-.3.3l-2.6.5c0 .3.3.5.5.7 2.3 2.1 5 4 7.9 5.1 1.8.7 3.8 1.2 5.8 1.3h2c.2 0 .3 0 .4-.2-3-1.2-5.6-2.7-8.3-4.5l3-.6 3.5-.8h.7c3.2 1.2 6.3 2.7 9.3 4.3l1.5.9c0 .1 0 .2.2.3l4.4 3.4c1.4 1.1 2.8 2.2 4.1 3.5.6.6.6.6-.2 1a56 56 0 01-10 2.7l-2.8.4-2.3.3-3 .3-2.3.2c-.4 0-.8 0-1.2.2z"/><path class="new_st3" d="M32 80c.8-.3 1.6-.3 2.4-.4a47.8 47.8 0 0115.8.9c.5 0 .6 0 .6-.5-.1-1-.3-1.9-.6-2.7 0-.3-.2-.5-.1-.8l1 .3c4.6 1.5 9 3.3 13.5 5.3 6 2.8 12 6 17.6 9.5l.5.2.1-1.9c.2-3.2.3-6.4.2-9.6l-.3-7.5c0-.4 0-.4.4-.3l4.5.6 4.2.4c4 .4 7.9.5 11.9.5h3.7c-2 .6-3.9 1.6-5.7 2.7a41.2 41.2 0 00-4.8 3.7c3.3-1 6.5-1.8 9.8-2.5 3.2-.6 6.5-1.1 10-1.2l-.7 1a145.5 145.5 0 01-14.4 15l-1.3.7a13.6 13.6 0 00-7.5 5.9l.6-.2a46.8 46.8 0 0114.4-3h1l-.8 1.1a35.8 35.8 0 01-6 6c-1.5 1.1-3 2.2-4.5 3.1-.5.4-.5.4-.8 0-2.3-2.8-4.6-5.5-7.2-8-.3-.3-.6-.5-1-.5A402.4 402.4 0 0166 95.5c-1.5-2-3.3-3.5-5.4-4.7-3-1.9-6.2-3.3-9.7-4-1.6-.3-3.3-.4-5-.3 2 .5 4.2 1 6 2v.2c-2.2 0-4.2.6-6.2 1.1-3.5 1-6.9 2-10.3 3.2-.4.2-.8.1-1.1-.2-1.2-.8-2.2-1.7-3.1-2.8l-3.5-3.7-.9-1.5c-.4-1.2 0-2 1.1-2.5a11.3 11.3 0 004-2.3z"/><path class="new_st3" d="M118.6 79.8h.4c4-.1 8 0 12 .4l2.9.1c.2 0 .5 0 .9.2-1.5 2.3-3.6 4-6 5.5l2.5.3a116.2 116.2 0 0121.4 4.5c.1 0 .3.2.4.1l.6.4-.6.2a92.7 92.7 0 01-30.3 0l-.2-.1c0 .2.3.2.4.3 3.8 2.3 7.9 3.7 12.3 4.1 1 0 2 .1 2.8.3l.2.2 3.5 1.6 11.6 5.3c.1 0 .3 0 .4.3a842.4 842.4 0 00-43.7 11.2c-.8.2-.8.2-1.2-.5a15.2 15.2 0 00-4.3-4.5l2.2 6c-.7.3-1.5.3-2.2.5-.2 0-.3 0-.5-.2-1.4-2.1-3-4.1-4.6-6.1-.2-.4-.2-.4.1-.6A47.6 47.6 0 00114.4 94c.4-.7.4-.7-.3-1a20 20 0 00-4.1-.4H107a90.3 90.3 0 0011-12.3l.5-.5z"/><path class="new_st4" d="M103.6 28.2l2.3-.4 4.4-.6 3.3-.4 3-.2c.9-.1 1.7 0 2.5-.2 2.7-.2 5.5 0 8.2 0 1.4 0 2.9 0 4.3.2l4.3.4a129.3 129.3 0 0113.4 2.6c2.4.6 4.7 1.3 7 2.2.5.2.5.2.6.8.2 3.9 0 7.8 0 11.7l-.1 4-.2 2.6c0 .9 0 1.8-.2 2.7l-.1 1.7-.2 1.8-.2 1.7-.4 2.8c-2.3-1.5-4.7-2.6-7.1-3.8l2.1-1.2c1.4-.9 2.7-1.8 3.6-3.2l.2-.2c.1-.4.1-.4-.2-.6l-1.9-.8a93 93 0 00-14.7-4.7l-6-1.4-5.2-1-4.6-.7-2.4-.2-1.1-.2c-.2 0-.3 0-.4-.2l-4.7-5.2c-.7-.7-1.5-1.4-2.1-2.2l-3.4-3.4-3.8-4s-.2-.1-.2-.4z"/><path class="new_st2" d="M153.8 103.5c0-.2-.3-.2-.4-.3l-11.6-5.3-3.5-1.6-.2-.2 2.1.1h3.6l2.5-.1a63.6 63.6 0 0013.7-2.6c.2 0 .4-.1.5-.3-.3-.6-.8-1-1.3-1.6A234 234 0 00148 81.4l-.2-.2h1.1l3.8-.1c1.7-.1 3.3-.3 5-.6l1-.1c.4-.2.8 0 1.1.2A91.5 91.5 0 01181 97.4l.8 1-2.7.6-9 1.6-11 2-4 .9h-1.3z"/><path class="new_st4" d="M59.3 109h2a108.6 108.6 0 015.7.3l3 .4 2.5.2a51 51 0 018.1 2c2.3.8 4.5 1.9 6.4 3.4.5.5 1 1 1.4 1.7l1.1 1.9c.2.3.2.4-.2.5l-6 1.2-6.8 1.3-5.7 1.2-8.2 1.6c-.6 0-1.2.1-1.7.3-.4 0-.6 0-.8-.3l-1.7-2.8-2.8-5-3.3-6.5-.1-.3c-.1-.2 0-.4.2-.5l2.1-.4a29 29 0 014.8-.3z"/><path class="new_st5" d="M160.7 64.4l-1.1-.6-1.9-1.1c-.2-.2-.3-.3-.2-.7a181 181 0 001.2-14.9v-16c0-.5-.1-.7-.6-1a78.3 78.3 0 00-14.8-4.1 99.4 99.4 0 00-30.6-1c-3.6.3-7.1.8-10.7 1.6-.3 0-.5 0-.7-.3-.7-.9-1.5-1.6-2.3-2.4l-.5-.5c0-.2.3-.2.4-.2a100 100 0 0140.8-1.7 103 103 0 0119.8 5l2.4.9c.3.1.4.3.5.7V34a240.8 240.8 0 01-1.8 30.4z"/><path class="new_st6" d="M90.2 42.5l.3-.6c.7-2.6 1.2-5.2 1.7-7.8l1-3.7.4-.8c.3-.3.4-.4.8-.1l.4.4c1.5 1.4 2.8 3 4.1 4.7 2 2.5 3.8 5 5.6 7.5l3.8 5.2 3 4.2c.6.8.6.8-.3 1.2-1.4.5-2.9.8-4.3 1l-4.2.3-2.5.1c-2.7.3-5.5.1-8.2.1h-.3c0-.2.2-.2.3-.2 1.7-.5 3.3-1.1 4.9-1.9.6-.3 1.2-.6 1.7-1.1.4-.5.4-.7-.2-1a8 8 0 00-2.5-.9l-4.8-.6-3-.3-.7-.1c1-.6 1.5-1.5 2-2.5s.8-2 1-3.1z"/><path class="new_st5" d="M83.4 109.4a62.8 62.8 0 00-35-2.9 28 28 0 013.1-5.5l.9-1.2c-6.6 1.7-13 3.7-19.4 5.6a107.8 107.8 0 012.5-8c0-.2 0-.5.4-.4 1.7.3 3.4.3 5.1.4h6l1 .1a321 321 0 0032.3 7.5 128.9 128.9 0 013.1 4.4z"/><path class="new_st6" d="M43.4 94.8l.7-.6c.5-.2.7-.6.7-1.1v-.4c.1-.1.3 0 .4 0 .5 0 1 .2 1.6.1a124.6 124.6 0 0013.7 3 199.9 199.9 0 0021.8 2.7l6.2.4c.3 0 .5 0 .7.3 1.5 1.3 2.8 2.8 4.1 4.3l-3.3-.2a22.7 22.7 0 00-7 .6c-.3.2-.4.1-.6-.1-.5-.6-1.1-.9-1.9-1a299 299 0 01-36.6-8h-.5z"/><path class="new_st5" d="M70.5 34c.2.2.1.4.1.5.1 1.2 0 2.4.2 3.6 0 .3 0 .4-.2.5-5.3 2.8-10 6.4-14.6 10-5 4-9.7 8.3-14.3 12.7a1 1 0 00-.4.9v3.2c0 .4 0 .5-.4.6l-3 .7h-.1v-.5-5.9c0-.3 0-.5.2-.8 7.5-7.1 15.3-14 23.7-20a70.2 70.2 0 018.8-5.4z"/><path class="new_st4" d="M71 40.8c.3.9.2 1.8.3 2.7L72 47c.2.6.2.6-.4.8A44.6 44.6 0 0058.8 54c-2.1 1.6-4 3.5-5.4 5.9-.5.9-1 1.8-1.3 2.8-.1.5-.4.7-.8.8l-5.6 1.2-2 .5c-.5 0-.6 0-.6-.5 0-2.3-.2-1.7 1.2-3.2l2.8-2.7 3.6-3.3 2.5-2.2A94 94 0 0164 45l5.8-3.7 1.2-.5z"/><path class="new_st7" d="M40.3 149.7l-.3-.7v1.5c-.2 0-.3 0-.4-.2-.3-.4-.4-.5-.9-.4l-1.7.4c-.3 0-.6.2-.7.6l-.3.1v-2.9l.1-7.7c0-.4 0-.6-.3-.8-.6-.5-.8-1.1-.7-1.9V136c0-.3.1-.4.4-.4l3.9-.8c.2-.1.3 0 .4.2l1.7 5.6L43 145l.8 2.4.1.2c.1 0 0-.1 0-.2l.1-8.3c0-.5 0-.9-.4-1.2-.5-.3-.6-.8-.6-1.4v-2c0-.5 0-.5.6-.6l3.8-.8 1.7-.3v3.2c0 .2-.2.4-.3.5-.6.7-.8 1.5-.8 2.3l-.1 8.7v.7h-1.2c-2 .6-4.2.9-6.3 1.6z"/><path class="new_st8" d="M181.2 120.4v-.7l.1-9.3c0-.4 0-.7-.3-1-.2 0-.3-.2-.4-.3-.2-.2-.3-.4-.3-.7v-2.5c0-.4 0-.4.5-.5l7.7-1.6 1.6-.4c.3 0 .4 0 .6.2.6 1 1.3 1.8 2 2.6l.1.7v5.5l-.2 4.8v.7l-1.9.4-2.2.5v-.6-8.3-.7l-2.6.5c-.6.2-.6.2-.6.7v6l-.2 3.2h-.4l-2.4.6-1 .2z"/><path class="new_st7" d="M51.8 146.7V142l.1-4.8c0-.4 0-.6-.3-.8-.6-.5-.7-1-.7-1.8v-1.8c0-.5 0-.5.5-.6l10.3-2.1 1-.2v7c0 .4-.2.7-.5.9l-3 1.7-.5.2v-4a295 295 0 01-2.8.8v6.3l5.2-1.1-.1 2.5-.3.2c0 .3-.3.4-.5.4l-2.4.5-3.6.8-2.4.6zM150.2 124v-2.6-5.6l.3-.9 2-3.4.6-.4 5.8-1.2c.3 0 .5 0 .7.3l1.9 2.4.2.7-.2 8.3h-.5l-2 .6c-.6.1-1.1.2-1.6 0v-5.8-.7l-2.7.6c-.2 0-.3.1-.3.3v.4l-.1 6.5c-.4 0-.8-.2-1.2 0l-1.7.4-1.3.2zM121.7 131.4v-.4l.1-9.4c0-.3 0-.6.3-.9l2-3.3c.1-.3.3-.4.7-.5l6.2-1.3c.3 0 .5 0 .7.3a112.4 112.4 0 002 3.1v4.2c0 .3 0 .5-.3.6l-3.6 2c0 .1-.2.2-.3.1v-4.5l-2.6.5c-.9.2-.9.2-1 1.1v7.7c-.4 0-.6-.2-1 0l-1.4.2-1.8.5z"/><path class="new_st6" d="M5.6 41.8c1.2 0 2.3 0 3.4.6.4.2.7.5.9 1l4.7 13.5c2.1 6.2 4.7 12.2 7.6 18.1l.2.7c-.4-.2-.6-.4-.8-.7l-.8-.7v.5c-.1.2-.5.3-.3.6.2.2.2.5.3.7l.2.9-.7-1c-1.2-1.7-2-3.6-3-5.4-3-6.2-5.6-12.6-8-19l-3.6-9.2-.1-.6z"/><path class="new_st8" d="M74.4 135.3L74 139l-.5 6.3-1.3.4c-.5 0-1 .3-1.6.3l.3-3.6.5-6.5.7-7.5c0-.5 0-.5.5-.6l4.2-.9c.5 0 .5 0 .5.4a6213.2 6213.2 0 011 17l-1.6.2c-.6.2-1.1.3-1.7.3l-.2-4a963.2 963.2 0 01-.4-6.4v.9z"/><path class="new_st9" d="M117.6 161v-2.3l.1-6.3c0-.4 0-.7-.3-1-.4-.2-.5-.6-.5-1v-1.6c0-.4 0-.4.5-.5l4.2-.9 2.9-.6c.3 0 .6 0 .8.3l1.3 1.8.2.7v5.9l-.1 2.7c0 .4-.2.6-.4.9h-.6l-6 1.4c-.8.2-1.4.5-2.1.4zm3.5-6v3.1c0 .4 0 .5.3.4l1.6-.3c.3 0 .4-.2.4-.5v-2-4.2c0-.4 0-.4-.4-.3l-1.2.2c-.7.1-.7.1-.7.8v2.8zM85.2 168.7v-5.2l.2-5.1c0-.4 0-.7.2-1l1.5-2.5c.2-.2.4-.4.7-.4l4-.9c.4 0 .7 0 1 .3.3.6.8 1.2 1.3 1.8l.2.7c-.2 3.4 0 6.9-.2 10.3l-1 .2c-.8.2-1.6.5-2.3.4v-1.7-6.8-.4c0-.2 0-.3-.2-.3l-1.7.4c-.1 0-.2.1-.2.3v.4l-.2 8.2v.6l-1.3.2-2 .5z"/><path class="new_st8" d="M115 135.8c-.3-1.8-1.2-3.3-1.8-5-1-2.2-2-4.4-3.3-6.5l-2-3.7c0-.2.2-.2.4-.2l1.6-.3c.5-.1.5-.2.6.4l1.8 5.5 1.8 6c0 .2 0 .4.4.7v-3.2-5.3c.1-.4 0-.7-.2-.9-.6-.4-.8-1-.7-1.7v-1.8c0-.5 0-.5.5-.6l4.4-.9 1.1-.2c.2.2.1.4.1.5v1.3c0 1-.1 1.9-.9 2.7-.2.2-.2.5-.2.8l-.2 11v.7c-.9 0-1.6.3-2.4.5l-1 .2z"/><path class="new_st9" d="M129 158.4v-4l.1-5c0-.4.1-.8.3-1.1l1.5-2.4c.1-.2.3-.4.6-.5l4.4-.9c.3 0 .5 0 .7.3a60.6 60.6 0 001.6 2.4l-.2 9.2a4 4 0 00-.9.1l-3.1.8-3 .6-2 .5zm3.4-6v2.5c0 .4 0 .4.3.4l1.6-.4c.4 0 .4 0 .4-.5v-3.1l.1-1.8c0-.4 0-.4-.4-.3l-1.6.3c-.3 0-.4.2-.4.4v2.5zM107 163.4V157v-2.4c.1-.3 0-.6-.2-.8-.4-.3-.6-.7-.5-1.3v-1.4c0-.4.2-.5.5-.6l3.6-.7 4.7-1h.3c.1.1 0 .3 0 .4v5.5c0 .3 0 .5-.3.6l-2.6 1.5h-.2v-1.6-1.8l-1.7.4c-.3 0-.3.1-.3.4l-.1 4.9c0 .4 0 .4.5.3l2.5-.5.9-.2c.1.6 0 1 0 1.6v1.6h-.6l-4 1-2.5.5zM152 153c0-1.9 0-3.7.2-5.6v-2.3c0-.3-.1-.5-.3-.7-.4-.3-.6-.7-.5-1.2v-1.5c0-.4 0-.4.5-.5l3.7-.8h.6V141.6c.1.8 0 1.5-.6 2.1l-.2.6-.1 5.5c.2 0 .2-.2.2-.2l2.6-5.8c.1-.3 0-.5-.2-.7-.4-.3-.5-.8-.4-1.3v-1.5c0-.3 0-.4.3-.4l4.2-.9c.2 0 .3 0 .3.3v2l-.2.6c-.5.6-.8 1.3-1.1 2l-2.6 5.8c-.1.3-.1.5 0 .8l.4 1h-.6L153 153h-1z"/><path class="new_st8" d="M66.3 147l-.4-5-.5-7.7c0-.3 0-.5-.3-.7-.7-.5-.8-1.2-.7-2v-1.8c0-.2 0-.3.3-.4l5.8-1.2h.1v3.2l-.2.5c-.7.7-.8 1.5-.8 2.5l.4 11v.8c-1 0-1.8.3-2.7.5-.4.1-.7.3-1 .2zM79 144v-2.2l.7-10.4c0-.3 0-.6-.2-.8-.7-.5-.8-1.1-.7-1.9V127c0-.3.1-.4.4-.5l5.5-1c.3-.1.3-.1.3.2v2.6c0 .3 0 .5-.2.6-.8.8-1 1.8-1 2.9l-1 10.6-.2 1h-.5l-1.5.4c-.6 0-1 .3-1.6.3z"/><path class="new_st9" d="M140.6 155.7v-2.3-6.4a86 86 0 001.8-3.5c.2-.3.4-.4.7-.5l4.5-1c.2 0 .4 0 .6.3l1.4 2c.2.1.3.3.3.6-.2 1.4-.1 2.8-.1 4.2 0 .3 0 .5-.4.6l-2.7 1.6h-.2c-.2-.2-.1-.4-.1-.6v-3.4c0-.6 0-.6-.6-.5l-1.3.2c-.5.2-.5.2-.5.7v3.9l-.1 3.4-1.2.2-2.1.5z"/><path class="new_st5" d="M89.4 113l3.4.4c3.3.5 6.5 1.2 9.7 2 .3.2.6.3.8.6 1.4 2 2.6 4.1 3.8 6.3-4.5-1.5-9.2-2.4-13.7-3.5 4-.2 8 .8 11.9 1.7 0-.4-.2-.6-.6-.7-3-.8-5.8-1.4-8.8-1.7h-3c-.2 0-.3 0-.4-.2l-3-4.8z"/><path class="new_st7" d="M136.7 128.3v-4.4l.2-4.4c0-.3-.1-.6-.4-.8-.5-.4-.7-1-.6-1.7v-1.9c0-.3 0-.5.4-.5l5.7-1.2h.2v3.1c0 .3-.2.5-.3.6-.6.7-.8 1.5-.8 2.4l-.1 8v.6c-.3 0-.4 0-.5-.2 0-.5-.3-.4-.6-.4l-1.2.3c-.6.2-1.3.5-2 .5zM165.5 120.3v-.3c.1 0 .2 0 .2-.2s0-.3-.2-.3V114c0-.5 0-1-.4-1.3-.5-.3-.6-.8-.6-1.4l.1-2.1c0-.3 0-.4.3-.4l3.9-.8c.3-.1.4 0 .5.3l1.2 4 .9 3 1 3.1.2.6-2.6.6-3 .7c-.4.1-1 .3-1.5 0z"/><path class="new_st6" d="M113.8 134.7l-1.8-.3-13.5-2.6c-.4-.1-.6-.3-.7-.8l-1-3.5 1.4.1a62.8 62.8 0 0113.5 2.8c.3 0 .5.1.6.4l1.5 3.5v.4z"/><path class="new_st9" d="M76.4 170.5l-.5-7.6-.3 2.7-.4 5v.3h-.8c-.5.2-1 .4-1.5.4 0-1.4.2-2.8.3-4.1l.3-3.5.5-6c0-.3.2-.4.5-.5l3.3-.7c.4 0 .4 0 .4.3l.1 1.6.3 5.4.3 5.2v.9c-.8.3-1.7.5-2.5.6z"/><path class="new_st5" d="M46.4 110.8l3.3-.9c.3 0 .4 0 .4.2l1.2 2.9c2 4 4.2 7.9 6.7 11.7l.3.4v.1l-3.6 1c-.2 0-.3-.2-.4-.3l-.8-1.3a94 94 0 01-4.2-7.7l-2.8-5.6-.1-.5z"/><path class="new_st6" d="M57.8 74.2c-.3 0-.4-.2-.6-.4l-3-2.4c-.8-.6-1.6-1-2.6-1.4a4 4 0 00-1.7-.1 137.4 137.4 0 00-21.4 4.8c-.5 0-1 .2-1.4.4-1.1.5-1.6 1.5-1.9 2.6-.1.7-.3 1.5-.2 2.3l-.1.3c-.4-1.1-.7-2.3-.8-3.5 0-.5 0-1 .2-1.6.1-.6.5-1 1.2-1.3l6.8-2a583 583 0 0117-4c1.2-.4 2.4-.4 3.7 0 1 .2 1.8.8 2.2 1.9.6 1.3 1.5 2.6 2.3 3.8.1.2.3.3.3.6z"/><path class="new_st10" d="M92.7 141.3a380.8 380.8 0 01.2-12.5c0-.4-.1-.8-.4-1l-.4-.4a.8.8 0 01-.2-.7V124c.3.1.4.4.5.5L94 128c.5 1 1 2 1.3 3.1.3 1.1 1 2 1.5 3.1 0 .2.3.4.5.5l.9 1c.4.5.9.6 1.5.7h1.9c.3 0 .4.2.4.5v1.3c0 .4-.2.5-.5.5l-3.8.8h-.1c-1 .2-1 .2-1 1.1-.8 0-1.5.3-2.2.5-.5 0-1.1.3-1.7.3z"/><path class="new_st11" d="M103.3 143.7v5.7c0 .4-.3.5-.5.5l-3.3.7-7.5 1.6h-.5v-3l.1-.4.2-.3c.6-.6.9-1.3.8-2.2h.5a37 37 0 011.8-.5c.5 0 1-.1 1.5-.6h.1v.2c0 .7 0 .8.8.6l1.6-.3c.4 0 .5-.2.5-.6v-.6c.3 0 .5.3.9.2l1.6-.4c.5 0 1-.4 1.4-.6z"/><path class="new_st7" d="M173.3 119.5V116v-4c0-.3 0-.6-.3-.8-.5-.5-.7-1-.6-1.8v-1.7c0-.6 0-.6.6-.7l4.4-.9 1-.2v1.8c.1 1 0 2-.8 2.7-.2.2-.2.5-.2.8l-.2 8.1v.7c-.2-.2-.1-.4-.1-.7-.1-.3-.3-.5-.6-.5h-.5l-2.7.7z"/><path class="new_st11" d="M62.3 153.6v4.2c0 .4 0 .5-.6.6l-2.4.6-8.2 1.6-.2.1c-.3 0-.4 0-.4-.3v-2.7c0-.2.2-.3.3-.5l.9-1.4 3.9-.9.1-.2 2.3-.5c.2 0 .5 0 .5-.4.4.1.8.2 1.2 0l1.3-.3c.5-.1 1-.2 1.3 0z"/><path class="new_st5" d="M102.4 114.7l-2.3-.6c-2.4-.6-4.9-1-7.4-1.3l-3.3-.4c-.2 0-.3 0-.4-.2l-2.4-3.3c.7-.4 1.5-.5 2.3-.6 2.1-.2 4.3 0 6.4.2l2.5.3a1970.1 1970.1 0 004.6 6z"/><path class="new_st6" d="M141.7 77.5c.3-.2.7-.2 1-.2l2.3-.2 3.1-.3a85.5 85.5 0 015.2-.7 55.5 55.5 0 009.9-2.7c.8-.4.8-.4.2-1-1.3-1.3-2.7-2.4-4-3.5l-4.5-3.4-.3-.3 3.8 2c3.3 1.9 6.5 4 9.5 6.3l.7.6-3.3 1a69.6 69.6 0 01-22.6 2.5l-1-.1zM131 58.5c0-.2.1-.2.3-.2l3-1.1c2.1-.8 4.2-1.5 6.2-2.5l.5-.4-1.8-.9-8-3-4.4-1.5c-.2 0-.4 0-.4-.3a115 115 0 0121.5 5.6l-.9.5a31 31 0 01-5.6 1.9c-3.2.8-6.5 1.4-9.8 1.9h-.7z"/><path class="new_st5" d="M111.2 129.5l-1.7-.5a59.4 59.4 0 00-12.4-2.2c-.5 0-.7-.2-.8-.6l-.7-1.9c-.1-.2 0-.3.2-.4l2.3-.2c2.5 0 5 .3 7.4.7l2.7.5c.6.1.6.1 1 .7l1.8 3.4.2.5z"/><path class="new_st9" d="M96.4 165.9l.1-8.9c0-.5 0-.9-.5-1.2-.2-.2-.3-.5-.3-.8v-2c0-.1.1-.2.4-.3l4.2-.9c.5 0 .5 0 .5.4v1.7c0 .4-.1.7-.4 1-.5.5-.5 1-.5 1.8l-.2 8.4-3.3.8zM69.4 172.1l-.2-2c0-2.2-.2-4.3-.4-6.5v-.6c0-.6-.2-1.2-.7-1.6-.2-.1-.2-.3-.2-.5v-2c0-.3.2-.4.4-.4l4.2-.9c.4 0 .4 0 .4.3v2c0 .3-.1.5-.3.7-.5.5-.6 1-.6 1.8l.3 8v1.1H72c-.8.3-1.6.4-2.5.6zM79.5 169.8c0-2 .3-4 .4-6.1l.2-3.7c0-.3 0-.4-.3-.6-.4-.3-.5-.8-.5-1.3v-1.5c0-.3.1-.4.4-.5l4.1-.8c.5 0 .5 0 .5.5v1.8c0 .2 0 .3-.2.5-.8.7-.7 1.7-.8 2.7l-.8 7.2-.1 1.2c-1 .2-1.9.5-2.9.6z"/><path class="new_st12" d="M157.2 131.8V130v-1.5c0-.4 0-.5-.4-.4l-2.2.5c-.3 0-.4.2-.4.5v3.5c-1.4.5-2.9.6-4.2 1.2v-5l.8-.2 4.2-1 5.9-1.3h.5v4.9l-2.6.7c-.6.1-1 .2-1.6 0z"/><path class="new_st10" d="M173.3 119.5l2.7-.7h.5c.3 0 .5.2.5.5s0 .5.2.7v2l-1.5.3-4.1 1c-.5 0-1.1 0-1.6.4l-.5-1.5v-.2h-.1v1.4l-3.1.7h-1c0-1.2 0-2.5.2-3.8.5.2 1 0 1.6-.1l3-.7 2.5-.6.6 1.7v-1zM150.2 124c.4.1.8 0 1.2-.1l1.7-.4c.4-.2.8 0 1.2 0h.3l1.9-.4c.8-.1.8-.1.9-1 .5.3 1 .2 1.5 0l2-.5h.6v3.8c-1 0-2 .4-2.9.6l-2.6.6-5 1.1-.9.2V124z"/><path class="new_st5" d="M97.3 108.2l-1.8-.2a41.4 41.4 0 00-9.2 0c-.2.1-.3.2-.4 0l-2.6-3.4a35.3 35.3 0 019-.4c.6 0 1.2 0 1.6.2.5.3.8.8 1.1 1.2l2 2.2c.1.1.3.2.3.4z"/><path class="new_st13" d="M104.4 168.6l-.1 4.6c0 .3-.2.4-.4.4l-6.4 1.4c-.6 0-1.1.2-1.7.3-.3 0-.4 0-.4-.4v-2c0-.3.2-.5.4-.7.4-.4.5-.9.5-1.4.4-.5 1-.6 1.6-.7.6-.1 1.1-.2 1.6-.6h.1v.5c.1.4.1.4.5.4 1 0 1-.2 1.2-1.1v-.4c.5.2 1 0 1.5 0 .5-.1 1-.3 1.6-.3zM149.6 158.7l-.1 2.6c0 .3-.3.6-.5 1-.4.4-.7 1-1 1.6-.2.5-.6.8-1.2.9a72 72 0 00-4 .8c-.4.1-.6 0-.8-.3a33 33 0 00-1.3-1.7c-.2-.2-.3-.6-.3-1l.1-2c.4.2.7.2 1 .1l2.2-.5c0 .9 0 .9 1 .7l1.1-.2c.3 0 .4-.2.4-.5v-.7c.7 0 1.3-.3 2-.4.5 0 .9-.3 1.4-.4z"/><path class="new_st14" d="M157.8 158c-.6-1-1-2.3-1.5-3.4 0 0 0-.2-.2-.3-.4.8-1 1.6-1 2.5v1.8l-1.4.3c-.6.1-1.1.4-1.7.3v-4-1.8c.7 0 1.3-.2 1.9-.3l5-1.1a140.8 140.8 0 012.2 5.3l-3.3.7zM90.8 167.3c.8 0 1.5-.2 2.2-.4l1-.2v5.4c-.3 0-.5.2-.8.3l-3 .7-5 1.1v-2.8-2-.7c.7 0 1.3-.3 2-.4l1.3-.2v4.1c0 .2 0 .3.3.3l1.3-.3c.5-.1.5-.1.6-.7v-.8-3.4z"/><path class="new_st6" d="M55.7 63.1v.8c-.2 1.1.6 2.4 1.6 2.8h.8c1-.2 2-.7 2.9-1.1l4.4-2.2c2.2-1.1 4.4-2 6.7-2.8 1.7-.6 3.4-1 5-1.2 1 0 1.8-.2 2.7-.1.5 0 1 0 1.5.3.3 0 .6.2.6.5-2.5-.2-4.8.4-7 1.2a222.4 222.4 0 00-15 6.1c-1 .5-2.2.4-3.2 0S55 66 55.2 64.9l.3-1.5.2-.3z"/><path class="new_st14" d="M138 156.9v5.5c-1.2 0-2.3.3-3.4.7v-3.5-.4c0-.3 0-.4-.3-.4l-1.8.4c-.2 0-.2.2-.2.3v.3l-.1 3.6c-1.1.2-2.1.7-3.3.6v-1.5-2.5l.1-1.2h.3l6.1-1.4 2.6-.5z"/><path class="new_st6" d="M192.3 128l-.7 1-1.4 2.5c-.1.2-.3.4-.6.5l-9.2 1.9c-.5 0-.5 0-.5-.4v-2.7l.2-.2c.7 0 1.3-.2 2-.4l8-1.8c.7-.2 1.4-.4 2.2-.4z"/><path class="new_st5" d="M87.9 26.3l-.3 4.2c0 .2-.1.3-.4.4a48 48 0 00-6 2.4h-.5l-2.9-2.8c3.3-1.6 6.6-3 10-4.2z"/><path class="new_st12" d="M78.3 145.3c.2.5.1 1 .2 1.6 0 .5 0 1.1.2 1.7l.1-2.7.1-.8 3-.7h.6l-.3 3c0 .8 0 1.6-.3 2.4h-.5l-2 .6c-1.4.3-2.7.5-4 1l-.3-5.3c1-.4 2.2-.5 3.2-.8z"/><path class="new_st11" d="M192.3 128c-.8 0-1.5.2-2.2.4l-8 1.8c-.7.2-1.3.5-2 .4l.7-1.1.2-.7.1-1.8h.3c.3-.3.7-.3 1.2-.4l1.5-.3c.4 0 .6-.5 1-.5 0 .5-.1 1 0 1.6h.2l2.7-.5c.3 0 .3-.2.3-.4V125c.4.2.8 0 1.2 0l3-.8a46.2 46.2 0 01-.3 3.8z"/><path class="new_st6" d="M146.7 137.6v2.9c0 .3-.2.4-.5.4l-4.6 1-5.8 1.2h-.3v-1.5-1.4h.5l6.7-1.6 4-1z"/><path class="new_st12" d="M66.7 152.8l-.3-4.8 1.1-.2c.8-.2 1.6-.5 2.5-.5l.1 3 .4-3.4c.7 0 1.3-.1 1.9-.3l1-.2-.3 3.8-.1 1.2c-.4 0-.6.3-1 .3l-2.5.6c-.9.2-1.8.5-2.8.5z"/><path class="new_st5" d="M108.5 124.5l-3.4-.7c-3.2-.5-6.3-.8-9.5-.7-.6 0-.6 0-.8-.5l-1-2.6c-.1-.2-.3-.3-.2-.6l2.9.5a119.8 119.8 0 0111.2 3.4l.8 1.2z"/><path class="new_st11" d="M125.7 139.4c0 .2 0 .3.2.3l3-.7c.4 0 .4-.2.4-.4l4.2-1v2.2c0 .3-.3.6-.6 1 0-.3-.3-.2-.5-.2l-1.2.3c-2 .3-3.9 1-5.9 1.3l-2.9.7c-.1 0-.3.1-.3.3-.5-.4-.7-1-.6-1.5v-1.5l1.7-.3c.8-.2 1.6-.6 2.5-.5zM146.7 137.6l-4 1-6.7 1.6h-.5l.1-.6.1-.1c.6-.7 1-1.5.9-2.5.4 0 .6-.3 1-.4 1-.3 2.2-.3 3.1-1l.1 1c0 .3.1.5.4.4l1.4-.4c.2 0 .3-.1.3-.3v-1c.5 0 1-.3 1.6-.4.7-.1 1.5-.4 2.3-.4v3.1z"/><path class="new_st12" d="M171.5 128.5l-1-3.4c-.2-.4-.4-.7-.4-1l1.6-.4c1.8-.4 3.6-.9 5.5-1.2l-.1 4.5c-.4.1-.7.5-1.1.5l-.6.1-3.9.9z"/><path class="new_st10" d="M51.8 146.7l2.4-.6 3.6-.8 2.4-.5c.2 0 .4-.1.5-.4l.3-.2v2.5c0 .4-.2.4-.5.5l-3.6.7c-.3 0-.8 0-1 .3-.3.3-.1.7-.2 1.1v.6c-.5 0-1 .2-1.4.3l-2.6.5v-4z"/><path class="new_st6" d="M122 143.2c.1-.2.3-.3.4-.3l3-.7c2-.3 3.8-1 5.8-1.3l1.3-.3.4.1-1.8 3.1a1490.4 1490.4 0 00-7 1.6c-.1.1-.3.1-.5-.1l-1.5-2.1z"/><path class="new_st11" d="M75.4 151.4c1.3-.5 2.6-.7 4-1l2-.5.5-.2c0 1.5-.2 2.9-.3 4.3 0 .3-.2.4-.5.4l-5.1 1c-.4.2-.4.2-.4-.2l-.2-3.8zM66.7 152.8c1 0 1.9-.3 2.9-.5l2.5-.6c.3 0 .5-.4.9-.3l-.3 4.4c0 .3-.2.4-.5.5l-4.6 1c-.6 0-.6 0-.7-.6l-.2-3.9z"/><path class="new_st10" d="M127.4 133.3v-4c0-.2.1-.3.4-.4l5.8-1.2v4.4h-.6l-4 .9c-.5 0-1 .3-1.6.3z"/><path class="new_st14" d="M117.5 166.7v-5.3h.4l6.5-1.5c.5-.1 1-.3 1.6-.3l-1 1.9c-.2.3-.4.4-.7.4l-2.9.6c-.4.1-.4.1-.4.6l-.1 3.1h-1.4c-.7.3-1.3.4-2 .5z"/><path class="new_st10" d="M40.3 149.7c2-.7 4.2-1 6.3-1.6h1.1v3.6l-4.6 1-1.7.5c-.4-1.1-.8-2.3-1-3.5z"/><path class="new_st12" d="M47.7 152.3v4.6c-.3 0-.5.2-.8.3-1.3.3-2.6.5-4 1-.5-1.5-1-3-1.3-4.5l.7-.2 4.5-1 .9-.2z"/><path class="new_st11" d="M40 158.6c.8.8.8.8.8 1.8v2c0 .2 0 .4-.3.4l-5.8 1.2v-3.2l.2-.4.7-1c.5.1 1 0 1.5-.1l3-.7z"/><path class="new_st14" d="M82.4 169.7l-.3 3-.2 1.9c-.3 0-.5-.1-.8 0l-2.5.5-2 .5-.1-2.3c0-.8-.2-1.5-.1-2.3l.6-.1c.7 0 1.3-.4 2-.4v1c0 .6 0 1.3.3 2l.2-3.2h.3c.8-.3 1.7-.5 2.6-.6z"/><path class="new_st13" d="M85.1 174.2l5.1-1.1 3-.7c.3 0 .5-.3.8-.3.1.7-.3 1.1-.6 1.7l-1.1 2-.6.4-4.3.9c-.3 0-.5 0-.7-.3l-1.4-1.8c-.1-.2-.3-.5-.2-.8z"/><path class="new_st12" d="M113 141.4l-1.2-3.5v-.6c.5 0 1 0 1.5.2.6 0 1 0 1.4-.7h.5l3.2-.7-.1 3.8c-.3.2-.6.5-1 .5l-4.3 1z"/><path class="new_st14" d="M72.4 172v2.1l.1 1 .3-3.4h.9c.4-.2 1-.3 1.4-.3l-.2 2.5c0 .7 0 1.4-.2 2.2-.6-.1-1.3.1-2 .3l-3 .6-.2-4.4h.3l2.6-.6z"/><path class="new_st0" d="M70.4 65.8c0 .4-.3.7-.4 1-1 1.4-2 2.7-3.4 3.7s-3 1.1-4.5.4c-.4-.2-.7-.4-.9-.8-.2-.3-.1-.4.2-.5l2.1-1.1c1.6-.8 3.3-1.5 5-2.1.6-.2 1.2-.5 2-.6z"/><path class="new_st11" d="M169.3 128.6v2.5c0 .3 0 .6.3.8l.3.3c.3.3.5.7.3 1.1-.3 0-.5.2-.8.3l-3.5.8c-.6 0-1.1.3-1.7.1-.1-.3 0-.7.2-1 .7-.7 1-1.5.9-2.5v-1.9c.6.3.6.3 1.4 0l2.6-.5z"/><path class="new_st12" d="M133.5 137.6l-4.2 1v-.7-3.8-.3l-1.6.3c-.3 0-.4 0-.3-.3l4.5-1c.5-.2 1-.4 1.6-.4v5.2zM192.5 124.2l-3 .8c-.4 0-.8.2-1.2 0v-2l.1-3.2 1.2-.2 3-.7v4.6l-.1.7zM185 125.8c-.3 0-.5.4-1 .5l-1.5.3c-.4 0-.8.2-1.2.4h-.2v-5.5l2.5-.6 1.5-.3v5.2zM140.8 135.6c-1 .7-2.2.7-3.2 1-.4 0-.6.3-1 .4l.1-5.3.5-.1 2.7-.6 1-.2-.1 4.8z"/><path class="new_st11" d="M43 158.1l4-1 .7-.2c1 .8 1 .8.9 2v1.9c0 .2-.1.4-.4.4l-3.7.8c-.3 0-.4 0-.5-.3l-1-3.6z"/><path class="new_st6" d="M162 134c.3.1.4.3.3.6v2.7c0 .2 0 .3-.3.4l-5.7 1.1h-.1v-1.3-1.8c0-.2 0-.4.3-.6 0 .2.1.3.3.2l1.6-.3c1.2-.3 2.5-.5 3.7-1z"/><path class="new_st12" d="M125.7 139.4c-1 0-1.7.3-2.5.4l-1.7.4v-2.5l.1-2.6 1.9-.3c.7-.1 1.5-.5 2.3-.4l-.1 5z"/><path class="new_st13" d="M157.8 158l3.3-.7c.2.5.6 1 1 1.3l.2.6v2c0 .3-.1.4-.4.5l-4.2.8c-.4.1-.4 0-.4-.3v-2l.1-.5.5-.6c.1-.2.2-.4 0-.7v-.4z"/><path class="new_st6" d="M177.4 130.3c.5.4.7.9.7 1.5v2c0 .4-.1.6-.5.7l-3.7.7c-.2 0-.3 0-.4-.2l-1-3.4.7-.3 1.5-.3 2.7-.7z"/><path class="new_st14" d="M114 162.3l.1.4c0 .2-.1.3-.3.4l-2.9.6c-.9.2-.8 0-.8 1v4h-.5l-2.8.7c0-1.8 0-3.7.2-5.5h.6a119.7 119.7 0 016.5-1.6z"/><path class="new_st13" d="M128.9 164c1.1 0 2.2-.4 3.3-.6 0 .5 0 1 .5 1.3.2.1.2.3.2.5v2.1c0 .3-.1.4-.4.4l-4.4 1c-.2-.2-.1-.3-.1-.5v-1c0-.7 0-1.4.6-2 .4-.3.2-.8.3-1.2zM152 159.2c.6 0 1.1-.2 1.7-.3.5 0 1-.2 1.4-.3 0 .6.1 1 .6 1.4.2 0 .2.3.2.5v2c0 .3 0 .4-.3.5l-4.5.9v-2.6c0-.2.2-.4.4-.6.3-.4.6-.9.5-1.5zM117.5 166.7l2-.4c.5-.1.9-.2 1.4 0 0 .2.1.4.4.6.3.2.4.4.4.7v2.1c0 .2-.2.3-.4.3l-4.2.9c-.5 0-.5 0-.5-.5v-1.9c0-.3.2-.5.4-.7.3-.3.5-.6.5-1zM134.6 163.2c1-.5 2.2-.8 3.3-.8 0 .4.1.7.4 1 .3.2.4.5.4.9v1.8c0 .2 0 .4-.4.4l-4.2 1c-.2 0-.3-.1-.3-.3l.1-2.3c0-.4.3-.6.4-.8.2-.3.3-.6.3-1z"/><path class="new_st6" d="M155 136v2.8c0 .3-.1.3-.4.4l-5.3 1c-.5.2-.5.2-.5-.3l.1-2.6h.1l4.5-1c.5-.1 1-.4 1.5-.3z"/><path class="new_st13" d="M76.6 175.6c.7 0 1.4-.3 2-.4l2.5-.6c.3-.1.5 0 .8 0l-.3 3.4c0 .2-.2.4-.5.4l-3.8.8c-.4 0-.4 0-.5-.3v-.2l-.2-3.1z"/><path class="new_st12" d="M40 158.6l-3 .7c-.4 0-.9.2-1.4.1.2-.2.2-.4.2-.7v-3.2-.6l1.8-.3 2.2-.5v3.8c0 .2 0 .5.2.7zM146.8 134.5c-.8 0-1.5.3-2.3.4l-1.6.4v-3.5c0-.2 0-.4.3-.5l3.4-2h.2v5.2zM96.6 145.2h-.2c-.4.5-1 .5-1.5.6a37 37 0 00-2.3.5v-4.5h.9c.6-.3 1.4-.4 2-.6l1.1-.2v4.2zM55.7 154.7s0 .2-.2.2l-3.8.9v-4.6c1 0 2-.3 3-.5l1-.2v2.9c0 .4-.2.8 0 1.3zM110.5 137.8v4.3c-.4 0-.7.3-1.1.4-1 .1-1.9.5-2.9.5l.1-4.4c.8 0 1.6-.3 2.4-.5l1.5-.3z"/><path class="new_st13" d="M69.8 177l3-.6c.6-.1 1.3-.4 2-.3l-.2 2.2v1c0 .3-.2.5-.5.5l-3.6.8c-.4 0-.5 0-.5-.5l-.2-3z"/><path class="new_st4" d="M87 39.3c-.2 0-.3 0-.4-.2l-3.8-3.8c-.4-.4-.4-.4.1-.7 1.3-.6 2.6-1.2 4-1.6.5-.2.6-.1.5.4-.2 1 0 2-.2 3v1.4l-.2 1.5z"/><path class="new_st12" d="M169.3 128.6l-2.6.6c-.8.2-.8.2-1.4 0v-1.4-2.6l1.7-.4 2.3-.5v4.3z"/><path class="new_st13" d="M106.8 169.4l2.8-.7h.4c.7.6 1 1.4.8 2.3v1c0 .2 0 .3-.3.3l-4.5 1v-1.4c0-1.4 0-1.4.8-2.5z"/><path class="new_st6" d="M111.5 145.2v2.6c0 .2-.2.3-.4.4l-4 .8c-.6.1-1.1.3-1.7.3v-2.9c.3 0 .5.2.8.1a77.7 77.7 0 015.3-1.3z"/><path class="new_st11" d="M177.4 130.3l-2.7.7-1.5.3c-.3 0-.5.2-.7.3l-1-3.1 3.9-1h.6c.4 0 .7-.4 1-.5v2.2c0 .5 0 .8.4 1.1zM155 136l-1.5.3-4.5 1c-.2-.2 0-.4.1-.6.7-.7 1-1.6.9-2.6v-.4c1.3-.6 2.8-.7 4.1-1.1v1.5c0 .5.1.8.4 1 .2.3.6.5.5.9zM113 141.4l4.2-1c.4 0 .7-.3 1-.5 0 .6.1 1 0 1.6 0 .4.2.7.5 1l.4.5.2.4c-.3 0-.5-.2-.8-.1-1.3.3-2.7.8-4.1 1-.2 0-.4 0-.4.2l-1-3.1z"/><path class="new_st6" d="M114 144.5l.4-.3c1.4-.2 2.8-.6 4.1-1l.8.2v2.8c0 .2-.2.3-.4.4l-3.8.7c-.2.1-.3 0-.4-.2-.2-.8-.6-1.7-.7-2.6z"/><path class="new_st11" d="M111.5 145.2c-.8.3-1.5.5-2.3.6l-3 .7c-.3.1-.5 0-.8 0l.1-.6c.8-.9 1.1-1.8 1-2.9 1 0 2-.4 2.9-.5l1-.4c0 .3.1.5 0 .8 0 .6.2 1 .7 1.4.3.3.5.5.4 1z"/><path class="new_st14" d="M143.8 160.2l-2.2.5h-1V156h.3l3-.7v4.3c0 .2 0 .3-.2.5z"/><path class="new_st6" d="M164.2 134.5c.6.2 1.1 0 1.7-.1l3.5-.9.8-.2v2.3c0 .3-.1.4-.6.5l-3.1.6-2.2.5-.2-.1.1-2.6z"/><path class="new_st12" d="M62.3 153.6c-.4-.3-.8-.2-1.3-.1l-1.3.3a2 2 0 01-1.2 0v-2.5c0-.2 0-.3.2-.4l3.6-2.1h.2c0 1.6 0 3.2-.2 4.8z"/><path class="new_st10" d="M36 151l.3-.1c0-.4.4-.5.7-.6l1.7-.4c.5-.1.6 0 .9.4l.3.2v3h-.4l-3.6 1V151z"/><path class="new_st11" d="M162 134c-1.1.5-2.4.7-3.6 1l-1.6.3c-.2 0-.3 0-.3-.2.6-.7.7-1.5.7-2.4v-.9c.6.2 1 .1 1.6 0l2.6-.7v1.5c0 .4 0 .8.4 1 0 .2.2.3.3.4z"/><path class="new_st14" d="M99.6 169.4h-.1c-.5.5-1 .6-1.6.7-.6.1-1.2.2-1.6.7v-4-.4l3.4-.8v3.8z"/><path class="new_st10" d="M121.7 131.4l1.8-.5 1.5-.3.8.1v2.7l-2.4.5-1.8.4v-2.9z"/><path class="new_st6" d="M3.2 37.8a12 12 0 015.9 1c.2 0 .4.2.5.5l.6 1.6-1.9-.5c-1.1-.3-2.3-.5-3.5-.6-.4 0-.7-.1-.8-.5l-.8-1.5z"/><path class="new_st10" d="M136.7 128.3c.7 0 1.4-.3 2-.5.5 0 .8-.2 1.2-.3.3 0 .6 0 .6.4l.4.2v2.1l-2.3.6c-.6.1-1.2.3-2 .3l.1-2.8z"/><path class="new_st12" d="M103.3 143.7c-.4.2-.8.5-1.4.6-.5 0-1 .2-1.6.4-.4.1-.6-.2-.8-.2v-1.7l.1-.4 3.7-2.2v3.5z"/><path class="new_st14" d="M104.4 168.6c-.6 0-1 .2-1.6.3a3 3 0 01-1.5 0v-2.4c0-.2 0-.4.2-.5l3-1.8c-.2 1.5 0 3-.1 4.4zM149.6 158.7l-1.4.5c-.7 0-1.3.3-2 .3l.1-2.4c0-.2.1-.3.2-.3l3.1-1.8v3.7z"/><path class="new_st6" d="M150.1 127.9c.3 0 .7 0 1-.2l4.9-1 2.6-.7c1-.2 1.9-.6 2.8-.6.1.3 0 .5 0 .8h-.5l-5.9 1.4-4.2 1a3 3 0 01-.7 0v-.7z"/><path class="new_st5" d="M51.9 92.5l.2.4a33 33 0 01-3.8-1c2.3-.6 4.4-.6 6.6-.4l-.5 1.8c0 .2-.2.2-.4.1-.5-.1-1-.2-1.4-.6l-.6-.5-.4-.2c0 .2.1.3.3.4zM39.9 95.6l-1.2-1.8-.6.9c-.1.1-.2.1-.4 0l-.8-.5c.5-.5 4.2-1.8 5.6-1.9 0 .4 0 .8-.2 1 0 .3-.2.3-.4.2-.3 0-.6-.2-.9 0-.2 0-.2.5-.3.8l-.8 1.3z"/><path class="new_st13" d="M138 156.9c-.9 0-1.7.3-2.6.5l-6.1 1.4h-.3v-.5c.7 0 1.4-.3 2-.4l3-.6 3.1-.8 1-.1v.5z"/><path class="new_st7" d="M83.1 105.3l.7 1 1.7 2.1c.2.3.3.6.1.9 0 .2-.1.5-.3.7l-.8-1c-.3-.6-.5-1-1-1.5-.4-.6-.6-1.3-.4-2.2z"/><path class="new_st5" d="M86.1 109.5l.7 1 1.7 2.3c.3.4.3.7 0 1v.3c-.2 0-.3-.2-.4-.3-.6-1-1.3-1.8-2-2.7-.3-.4-.4-.8-.2-1.2 0-.1 0-.3.2-.4z"/><path class="new_st13" d="M126 159.6l-1.6.3-6.5 1.5h-.3v-.5c.7 0 1.3-.2 2-.3l6.1-1.5h.6c0 .2-.2.3-.3.5z"/><path class="new_st7" d="M89.1 114.2l.5.7 2.3 3.3c.4.4.3.8 0 1.1l-.3-.4-2.5-3.5c-.3-.4-.3-.8 0-1.2z"/><path class="new_st6" d="M121.6 134.3l1.8-.4 2.4-.5v1c-.8 0-1.6.3-2.3.4-.6.2-1.2.3-1.9.3v-.8zM169.3 124.3l-2.3.5-1.6.4v-1l.9-.1 3-.7v1z"/><path class="new_st7" d="M92.5 119.5c.2.1.2.3.3.4.6 1.2 1.1 2.5 1.8 3.7.2.4.1.7-.2 1-.2-.1-.3-.4-.3-.5l-1.6-3c-.3-.6-.3-1 0-1.6z"/><path class="new_st6" d="M177.2 122.5c-1.9.3-3.7.8-5.5 1.2l-1.6.4c0-.1-.1-.3 0-.4.4-.3 1-.3 1.5-.5l4-1 1.6-.2v.5zM47.7 152.3a4 4 0 00-.9.1l-4.5 1-.7.3a.8.8 0 01-.2-.5l1.7-.4 4.6-1.1v.6z"/><path class="new_st13" d="M114 162.3l-3.7.9-2.7.6-.6.1v-.5c.8 0 1.7-.3 2.5-.5l4-1h.6v.4z"/><path class="new_st11" d="M16.1 80.5c0-.5.2-1 .4-1.4l.4-.1c.7 0 1.7.2 2.6.8l-3.4.7z"/><path class="new_st13" d="M158.9 152l-5 1.1c-.6.1-1.2.4-1.8.3v-.4l.8-.1 5.3-1.3h.6l.1.4z"/><path class="new_st6" d="M73.4 146.4a3 3 0 00-1 .2c-.6.2-1.3.4-1.9.3v-1l1.7-.2 1.3-.4-.1 1.1z"/><path class="new_st10" d="M106.6 138v-1c0-.2 0-.3.3-.2h.5l2.6.3c0 .3-.1.3-.3.4a38.7 38.7 0 00-3 .6z"/><path class="new_st6" d="M133.5 132.4c-.5 0-1 .3-1.6.4l-4.5 1v-.5c.6 0 1.1-.2 1.7-.3l3.9-1h.5v.4zM70 147.3c-.9 0-1.7.3-2.5.5l-1.1.2v-.7l1.4-.2c.7-.1 1.4-.5 2.1-.4v.6z"/><path class="new_st10" d="M188.5 118.8l2.3-.5 1.8-.4v.6c-1 0-2 .4-2.9.6l-1.3.2v-.5z"/><path class="new_st6" d="M136.7 131c.7.1 1.3-.1 2-.2l2.2-.6v.6c-.3 0-.7 0-1 .2l-2.7.6-.5.1v-.6zM55.7 150.5c-.4 0-.7 0-1 .2-1 .2-2 .6-3 .5v-.5l2.6-.5c.5 0 1-.2 1.4-.3v.6z"/><path class="new_st10" d="M79 144c.5 0 1-.3 1.6-.4l1.5-.3h.5v.6H82l-3 .7v-.6z"/><path class="new_st6" d="M78.3 145.3c-1 .3-2.1.4-3.2.8v-.8h.4l2.8-.6v.6zM36 154.4l3.5-.8h.3v.5l-2.3.5-1.6.3v-.5zM118.4 136.1l-3.2.7h-.5l.2-.6h.4l3-.7v.6z"/><path class="new_st10" d="M181.2 120.4l1-.2 2.5-.5h.4v.4h-.2l-3.7.9v-.6z"/><path class="new_st7" d="M95.6 127.9l-.8-2c0-.4 0-.5.3-1.2l.9 2v.5l-.3.7z"/><path class="new_st6" d="M106.6 138h1a41 41 0 012-.5c.3 0 .4-.1.4-.4l.3.1.2.2c.1.1 0 .3 0 .4l-1.5.3c-.8.2-1.6.5-2.4.5v-.5zM181.2 121l3.7-.9h.2v.5l-1.5.3-2.4.6v-.5zM96.6 141l-1 .2-2.1.5c-.3.1-.6 0-.8 0v-.4c.6 0 1.2-.2 1.7-.3l2.2-.5v.5zM188.4 119.3l1.3-.2c1-.2 1.9-.6 2.8-.6.1.1.1.3 0 .4l-2.9.7-1.2.2v-.5z"/><path class="new_st10" d="M70 146.7c-.8 0-1.5.3-2.2.4l-1.5.2v-.4c.4 0 .7 0 1-.2l2.6-.5v.5z"/><path class="new_st6" d="M79 144.6l3-.7h.5v.4a3 3 0 00-.7.1l-2.9.7v-.5z"/><path class="new_st13" d="M99.7 165.6l-3.3.8v-.5l3.3-.8v.5zM143.8 155.4l-3 .7h-.2v-.5c.7 0 1.4-.2 2-.4l1.2-.2v.4z"/><path class="new_st10" d="M118.4 135.5l-3.1.7h-.4v-.4l1-.2c.9-.2 1.6-.5 2.5-.5v.4zM78.3 144.7c-1 0-1.8.4-2.8.6h-.4v-.5l1.6-.3 1.6-.3v.5z"/><path class="new_st13" d="M72.4 172c-.9.1-1.7.3-2.6.6h-.3c0-.1-.2-.3 0-.5l2.5-.5h.3s.1.2 0 .4zM82.4 169.7c-1 0-1.8.3-2.6.5h-.3v-.4c1-.1 2-.5 2.9-.6v.5zM79 170.5c-.7 0-1.3.3-2 .4-.2 0-.4.2-.6.1v-.5a25 25 0 002.5-.6v.6zM75.1 171.4c-.5 0-1 .1-1.4.3a3 3 0 01-.9 0l.1-.4 1.5-.3h.8v.4z"/><path class="new_st4" d="M68.8 82c.2 0 .4.2.5.4-.3 0-.5-.2-.7-.3h.2z"/><path class="new_st2" d="M74.4 135.3v-.9c.1.3.2.6.1.9h-.1z"/><path class="new_st10" d="M165.5 119.5c.2 0 .2.1.2.3 0 .1 0 .2-.2.2v-.5z"/><path class="new_st2" d="M51.9 92.5c-.2 0-.2-.2-.3-.4.2 0 .4 0 .4.2l-.1.2z"/><path class="new_st10" d="M43.8 147.3s.1.1 0 .2l-.1-.2zM110.5 137.3l-.2-.1.2.1z"/><path class="new_st6" d="M169.4 122.2v-.2l.1.2zM58 74.3h-.2v-.2l.1.2zM22.5 75.8z"/><path class="new_st11" d="M164.2 137.1h.2c-.1.1-.2.2-.2 0z"/><path class="new_st5" d="M102.4 114.7h.1v.1z"/><path class="new_st1" d="M188.4 119.3v5.7l-.1 1.5c0 .2 0 .3-.3.4l-2.7.5h-.2c-.1-.6 0-1 0-1.6v-5.2-.5-.5l.2-3.2v-6c0-.5 0-.5.6-.6l2.6-.6v9.6.5zM157.4 122.1c-.1.8-.1.9-1 1l-1.8.4h-.3l.1-6.5v-.4c0-.2 0-.3.3-.3l2.7-.6v6.4zM121.1 155v-2.8c0-.6 0-.6.7-.8l1.2-.3c.4 0 .5 0 .5.4v4.2l-.1 2c0 .3-.1.4-.4.5l-1.6.3c-.4 0-.4 0-.4-.4v-3h.1zM90.8 167.3v3.4l-.1.8c-.1.5-.1.6-.6.7l-1.3.2c-.3.1-.4 0-.4-.2v-1.3c.1-1 .2-1.9.1-2.8v-.6l.2-8.3v-.4c0-.2 0-.3.2-.3l1.7-.3c.2 0 .3 0 .3.2v.4l-.1 6.8v1.7zM132.4 152.4v-2.5c0-.2 0-.4.4-.4l1.6-.4c.4 0 .4 0 .4.4v4.8c0 .5 0 .5-.5.6l-1.6.3c-.3.1-.4 0-.4-.3l.1-2.5z"/></svg>