<svg version="1.1" id="Layer_1" xmlns="http://www.w3.org/2000/svg" x="0" y="0" viewBox="0 0 200 200" xml:space="preserve"><style>.nola_st0{fill:#840ffc}.nola_st1{fill:#010001}.nola_st2{fill:#030203}.nola_st3{fill:#000001}.nola_st4{fill:#8423e7}.nola_st5{fill:#010002}.nola_st6{fill:#eaeaea}.nola_st8{fill:#fcfafe}.nola_st9{fill:#e8e8e8}.nola_st11{fill:#820ef9}.nola_st12{fill:#820ef8}</style><path class="nola_st0" d="M86 165.6c-.4-.1-.7.3-1 .4-6.7 3.5-15 2.3-20-2.8a13.6 13.6 0 01-3.3-5.3c-.2-.6-.4-.8-1-.7-1.7 0-3.4 0-5.1-.4-1-.2-2 0-2.6 1.2a13.9 13.9 0 01-14 6.5 14 14 0 01-11.7-10.8c-.5-2.4-.2-5-.3-7.4 0-.8.8-.3 1.2-.6-.8-1.6-1.2-3.4-1.2-5.2 0-3.2 1-6.1 3-8.6.4-.5.4-.8-.1-1.2a28.7 28.7 0 01-10.5-26.3c.8-9.4 5-17.1 13-22.5A30 30 0 0152 77.1a36 36 0 0110.6 2.5c.7.3 1 .1 1.2-.6 1.6-4.7 2.7-9.6 4.2-14.3a52.5 52.5 0 019.4-18c1.1-1.4 2-2.8 2.7-4.3 5.7-12 12.2-23.8 18.4-35.6l1.6-3 2 3.9c6.3 12.5 12.9 24.8 18.9 37.4l.5.9a52 52 0 019.9 18.9l4.2 14.1c.2.8.4.8 1.1.5a34.7 34.7 0 0125.3-.4A28 28 0 01178.6 97a29.5 29.5 0 01-9.5 34.3c-.6.5-.6.7-.2 1.2 1.7 2.3 2.5 4.9 2.5 7.8v4.5c0 .3.1.7-.5.8-.6 0-.2.6 0 .8a14 14 0 01-1.9 12.3c-5.6 8.2-18.2 7.9-23.5-.7-.4-.6-.8-.8-1.5-.8h-5.2c-.5 0-.7.1-.9.6-2.3 6.8-8.5 11-17.3 10-2.6-.4-5-1.2-7.5-2.7 1 2.6 2 4.9 3.5 7 1.4 2 3.3 3.6 5.2 5.4-1 .4-1.9.3-2.8.4-3.1.3-6.3.4-9.3-1-.6-.2-1.2-.9-1.7-.6-.4.3-.3 1.2-.4 1.8-.8 4-2.2 7.7-4.2 11.2-1.3 2.2-2.4 4.5-3.6 6.7h-.2c-2-4.1-4.5-7.8-6.5-12a19 19 0 01-2-7.2c0-.6 0-1-.8-.6-2 1.2-4.2 1.6-6.6 1.6h-6.5l-.1-.2 1.8-1.6c3.4-2.7 5.5-6.3 7.1-10.1v-.3l.2-.1H86v.1zm-40.8-32.4c.6 2 1.8 3.9 2.4 6l-2.9-.8c-1.5-.8-3.1-1.2-4.8-1.8l-4.9-2.3-1.1-.8c-.4-.3-.6-.2-.9.1a9.2 9.2 0 00.2 13l2.8 2.6h-4c-1.6 0-1.6 0-1.6 1.6 0 5 3.4 9.1 8.2 10.2 5 1 10-1.3 12-5.9.4-.9.8-1.5 2-1.4.7 0 1.5-.1 2.1-.4.4-.1.7-.2 1 0 1.3.4 2.7.4 4 .5.8 0 1-.2 1-.9l-.1-7.1c0-.3-.2-.7.3-.8l3.7-1.5v9.4c0 .6.2.9.8.9h10.7c1.9 0 3.5-.8 4.9-2.1 1.3-1.3 1.3-1.3 2.7-.1 4 3.6 10.5 2.6 13-2.2.8-1.6 1.8-2.1 3.4-1.8h.2c.6 0 .9.2.8.9v3.8c0 1.5 0 1.6 1.6 1.4 2.6-.4 5.1 0 7.7 0 7.5.2 15 0 22.4 0a8 8 0 002.7-.4 2 2 0 011.5 0c1.9.6 3.8.7 5.7.3 1.2-.3 2.2-.4 3.4 0 .7.2 1.1.4 1.5 1.1 2.2 5.1 7.8 7.7 13.1 6 7.7-2.5 9.2-11.6 5.1-16.3-.6-.7-1.2-1.3-1.6-2.3h3.2c.3 0 .6 0 .6-.5 0-2.2-.1-4.2-1.2-6.2-1.2-2-1.2-2-3-.7l-4.6 2.1-5.7 2-.1.2c-.5-.2-1 .4-1.4.2 0-.4.2-.7.3-1l2.5-5.8.4-1c0-.3.4-.7.1-1-.2-.2-.6 0-.9.1-2.3.6-4.1 2-5.6 3.8-.5.5-.7.5-1.1 0-.9-1.4-2-2.5-3.5-3.2-1.7-.7-3.4-1-5.3-1H50.7c-.6 0-.7.2-.7.7v3.1c-2-1.2-3.5-2.8-5.9-3.3l1 2.4.1.2zm69.6-92.8v.1h0c0-.5-.3-.8-.4-1.2l-14-27.4c0-.2-.1-.4-.5-.5-5 9.5-10.2 19-15 28.9 4-1.7 7.8-3.5 11.5-5.4 2.2-1 4.4-1 6.6 0l5.2 2.6 6.6 2.9zM85.4 174.2c.5.2 1 0 1.4-.2 1.5-.4 2.7-1.2 4-1.9l4.3-2.3h.4c-2.6 7.3.4 13.2 4.1 19 4.2-5.9 4.7-12.8 6.4-19.5 1.2 1.2 2.2 2.6 3.5 3.6 1.3 1 3.3 1.7 4.6 1.5-1-1.4-2-3-2.7-4.6a74.5 74.5 0 00-6.4-12.2c-.2-.4-.4-.5-.9-.5h-5.7c-.5 0-.7-.1-.6-.6v-2.7c-1.4 1-2.8 1.8-3.2 3.5-.3 1.2-1 2.3-1.8 3.3-.6.8-1.3 1.5-1.7 2.4-1.8 3.8-3.4 7.6-5.7 11.2h-.1zm4.3-47.4h41.4a3 3 0 001.8-.6c5-3.5 9.5-7.4 14.1-11.3 3-2.6 3.7-5.4 2.5-9-1-3.7-2.8-6.7-6.4-8.3-1.4-.6-2.2-1.5-2.5-3-.2-1-.7-1.6-1.6-1.8-1.2-.3-2.2-.9-3.3-1.4-.9-.3-1.4-1-1.5-2l-.7-3.8-5.8-19.8c-1.3-4.2-3-8.2-5.3-12A25 25 0 00111.2 43c-3.2-1.4-6.4-2.9-9.5-4.5a4.1 4.1 0 00-4 0c-2.9 1.5-5.7 3-8.7 4.2a22 22 0 00-7.3 5c-3.5 3.6-5.8 8-7.9 12.5-2 4.6-3.2 9.6-4.6 14.4-1.3 4.6-3.1 9-3.7 13.8a4.2 4.2 0 01-2.7 3.4l-2.6 1c-.6.3-1.2.7-1.3 1.4-.2 1.7-1.3 2.8-2.7 3.5A19 19 0 0053 100a6.8 6.8 0 00-2.6 4c-.2 1.5-.5 3-1 4.4a4.5 4.5 0 001.4 5c5 4.6 10.2 9.1 15.8 13 .5.4 1 .5 1.6.5h21.5zm68.5 6.6c3.4-1.1 8.4-4.1 11-6.8a26 26 0 006-28.9A25 25 0 00160 82a30.8 30.8 0 00-14-1.3c-3 .3-5.8 1-8.5 2.2-.5.2-.7.5-.5 1 .2.7.5 1.4.5 2.2 0 2 1 2.7 2.8 3.1 2 .6 3.3 2 3.9 4 .1.6.4 1 1 1.2a17 17 0 018.6 17c-.1.7 0 1 .5 1.4 4.3 4.2 5.7 9.4 5.2 15.2-.2 1.8-.8 3.6-1.3 5.4zm-116.8.1l-.8-3.1c-1.5-6.6 0-12.4 4.7-17.3.4-.4.5-.6.3-1.1a8.6 8.6 0 01.1-4.7c.3-1.2.7-2.3.9-3.5.3-2.9 1.7-5 3.9-6.9 1.2-1 2.5-1.8 3.8-2.5.4-.3.8-.5.9-1 .3-2 1.6-3.3 3.5-4l2-.8c.7-.2 1-.7 1-1.4l.6-3c.2-.7 0-1.1-.7-1.4-3.2-1.2-6.5-2-10-2.3a25.6 25.6 0 00-21.3 7.6c-7.9 8.3-9.5 18.2-6.1 29 2.7 8.3 9.3 13 17.2 16.4zM89 157.2c-2.3-.2-4.3-.8-6.2-2-.2-.2-.4-.2-.7 0-2.2 1.6-4.7 2-7.4 2h-9.4c.6 3.5 5 6.8 10 7.4 5.5.6 11.5-2.6 13.7-7.4zm21.6 0c.6 1.3 1.4 2.4 2.3 3.4 3.9 3.8 8.7 4.4 13.7 3.5 3.6-.7 6-3 7.6-6.2.3-.6.3-.9-.5-.8H110.6zm28.3-30.6l.2.2c3.3-.1 6.4.7 9 2.8.3.2.5.1.7 0 2-1.6 4.3-2.4 6.7-2.7.4-.1.7-.2.7-.7 0-4-1-7.5-3.8-10.4-.3-.4-.5-.5-1 0-3.2 3.3-6.8 6.4-10.6 9.3l-2 1.5zm-78.5.2v-.2c-4.3-3.4-8.4-7-12.4-10.7-.3-.3-.5-.2-.7 0a14 14 0 00-3.8 10.3c0 .3 0 .7.4.8l2.7.8c-.2-1 .3-1 1-1h12.9z"/><path class="nola_st1" d="M75.8 126.8h-7.6c-.6 0-1.1-.2-1.6-.5a142 142 0 01-15.9-13 4.5 4.5 0 01-1.3-5c.4-1.4.8-2.9 1-4.4a7 7 0 012.5-4 19 19 0 013.3-2.2c1.4-.8 2.4-1.8 2.7-3.5.1-.7.7-1.1 1.3-1.4l2.6-1a4.2 4.2 0 002.6-3.5c.7-4.7 2.5-9.1 3.8-13.7 1.4-4.9 2.5-9.8 4.6-14.4 2-4.6 4.3-9 7.9-12.6a22 22 0 017.3-5c3-1.2 5.8-2.6 8.7-4.1 1.4-.7 2.6-.7 4 0 3.1 1.6 6.2 3.1 9.4 4.5a25 25 0 0111.3 10.8c2.3 3.8 4 7.8 5.2 12l5.9 19.8c.3 1.2.4 2.5.6 3.8.2 1 .7 1.6 1.6 2 1 .5 2 1 3.2 1.3 1 .3 1.5 1 1.7 1.8.2 1.6 1 2.5 2.5 3.1 3.6 1.5 5.3 4.6 6.4 8.2 1.1 3.6.5 6.4-2.5 9-4.6 4-9.2 7.9-14.1 11.4a3 3 0 01-1.9.5h-27.2c1-1.7 3-2.8 3.4-5l-7 4c-.9.5-1.6.5-2.4 0l-6.8-4c-9-5.9-17.2-12.9-24.6-20.6-1.4-1.3-2.8-2.6-2.2-4.9-2.3.8-3.4 2.6-3.1 4.7.3 2.2 1.5 3.8 2.8 5.3 4 4.7 8.5 8.7 13.3 12.4.4.4.9.7.5 1.3-.3.5-.8.2-1.2 0a96.6 96.6 0 01-17.6-9c-2.4-1.5-4.3-3.2-4.2-6.4-.5.9-.9 1.7-1.1 2.5-.6 1.9-.3 3.5 1.2 4.8l2.1 2c5.6 4.6 11.7 8.4 17.9 12.2.3.2.8.3 1 .8zm62.6-11c.1.2.3 0 .4 0a29 29 0 006-5.4c.2-.2.4-.5.4-.8 0-2.5-.5-4.7-2-6.7 0 3.6-1.1 6.8-3 9.8l-1.8 3.1-.1.1h.1v-.1zm-29.4-3.6l1-.5a49.7 49.7 0 0017.5-19.9 6 6 0 00.4-3.5 57 57 0 00-6.7-18.3c-.1-.2-.2-.6-.6-.7v.5c1.2 5.2 2.3 10.3 3 15.5a12 12 0 01-.7 7c-1.8 3.8-4 7.4-6.4 10.8-2.3 3.2-5 6-7.6 9l-.2.3c.1 0 .2 0 .3-.2zm-24.3-3.4c.3-.7-.1-1-.4-1.2-3.6-4-6.5-8.5-9-13.3-1.6-3.2-2-6.6-.5-10 2-4.3 3.7-8.8 5.8-13.1.8-1.7 1.8-3.2 3.3-4.3 4.1-3.1 8.5-5.6 13.3-7.5 1.2-.4 2.4-.4 3.6 0l6.5 2.9c.5.2 1 .5 1.8.5a34 34 0 00-9-7c-1.5-.8-1.6-1.2-1-2.8 1.3-3.2 1.3-6.3 0-9.5-.1-.5-.3-.8-1-.5-2 1-4.1 2-6.2 2.8-7.8 3.2-12.1 9.5-15.1 17 1-.4 1.7-1.3 2.6-1.9.5-.3 1-.8 1.6-.5.5.4.1 1.1 0 1.6-.8 2.6-2 5-3 7.3-2.6 5.5-5 11-6.8 16.8a10 10 0 001.3 9.2c2.5 3.5 5.1 7 8.1 10 1.2 1.4 2.5 2.5 4.1 3.5zm18.2-42c-.3.8.1 1.1.6 1.5l1.7 1.4c.7.7.7 1.4 0 2l-2.5 2c-1 .7-1.6.7-2.5-.1-1-.9-1.5-.9-2.5-.1-1 1-1.5 1-2.7 0-1-1-2.1-1.8-3.4-2.4-1.8-1-3.6-1.1-5.5-.4-1.1.4-1.6 1.4-2 2.5h.4c2.7-1 5-.4 7.4 1.1l2.7 1.8c1.9 1.2 2.9 1 4.3-.6l.8.6c1.2 1 1.6 1 3 .3 1-.5 1.9-1 2.7-1.7 2.1-1.6 4.5-2.4 7.2-1.7l.2-.2a75 75 0 00-10-6zm19 51l.5-.1c5-3.5 9.6-7.5 13.2-12.4a9.4 9.4 0 001.7-4c.6-3.4-1.2-5.8-4.3-5.8v.2c1.7 2.5 1 4.9-.5 7.1l-4.9 7.1-5.7 8zM90.5 86.8c-3.1.4-5.7-.9-8.4-1.7-.1 1.2.4 2 1.4 2.7 2.7 1.7 4.4 4.2 5.2 7.3.1.5.4 1 .2 1.6-.5 0-1-.8-1.4-.3-.3.4.1 1 .3 1.5l.1.3c1.7 3.5 4.2 6.4 7.3 8.7.5.4 1 .7 1.8.8A21.3 21.3 0 0192.1 92c-.5.2-.8.6-1 1-.6.6-1.2.6-1.6-.2-.7-1.5-.8-3 0-4.4l1-1.7zm24.3-35.9c1.2 6.7 4.3 11.7 7.7 12.9a30.3 30.3 0 00-7.7-12.9zm.8 33.3c-2.7 3-4.3 6.1-4.1 10 1.3-3.3 4.5-5.8 4-10zm-23-6.2c-.9-.8-1.8-1.5-3-1.8-.6-.1-1 0-1.3.6-.3.5 0 1 .5 1.2 1.2.9 2.5.9 3.8 0zm14.4.5c.9 0 1.5 0 2-.6.4-.3.8-.6.4-1.2a1 1 0 00-1.2-.5l-1.5.6c-.5.3-1.4.6-1.3 1.1.2.6 1.1.6 1.6.6z"/><path class="nola_st2" d="M40 136.6c1.6.6 3.2 1 4.8 1.8l.4 1c0 .6.3.6.7.6H49c.3 0 .5 0 .5-.5.1-2.3-2.1-5.6-4.4-6.3.1-.2 0-.2-.1-.2l-1-2.4c2.4.5 4 2.1 6 3.3l-.1-3c0-.6.1-.8.7-.8H138.9c1.9 0 3.6.3 5.3 1 1.5.7 2.6 1.8 3.5 3.2.4.5.7.5 1 0 1.6-1.8 3.4-3.2 5.7-3.8.3 0 .7-.3 1 0 .2.2-.1.6-.2.9l-.4 1-1 .3a8.4 8.4 0 00-5 8.4c.2 2.7 2.4 4.8 6 5.7.4 0 .7.3 1 .6 1 1.7 1 1.6 2.5.6 1.1-.8 2.4-.5 2.9.8.9 2.1.5 4.2-1.6 5.3-2.2 1-5.2.4-6-1.6-.4-1.4-1.2-1.5-2.3-1.4h-1.7c-.8 0-.9.3-.7 1 .6 3.9 4 6.9 8.2 7 4 .2 7.7-2.4 8.7-6.3 1-4.4-.9-8-5-9-.8-.2-1.2-.6-1.6-1.3-.6-1.1-.6-1.1-1.7-.4-.2 0-.3.2-.4.3-.6.6-1.2.5-2 .2-1.5-.7-2-1.6-1.7-3.6l.1-.2 5.7-2c.8.5 1.8.9 2 1.8.3 1.7 1.4 1.4 2.4 1.4h1.6c.8.1.9-.2.8-.8-.3-1.8-1-3.3-2.2-4.5 1.8-1.2 1.9-1.2 3 .7 1 2 1.3 4 1.2 6.2 0 .5-.3.6-.6.6h-3.2c.4.9 1 1.6 1.6 2.2 4.1 4.7 2.6 13.8-5 16.3-5.3 1.8-11-.8-13.2-6-.3-.7-.8-1-1.5-1.1a6.2 6.2 0 00-3.4 0c-1.9.4-3.8.4-5.7-.3h-1.4a8 8 0 01-2.8.5h-22.4c-2.6-.1-5.1-.5-7.7 0-1.5.2-1.6 0-1.6-1.5v-3.8c0-.7-.2-1-.8-.9h-.2c-1.6-.3-2.6.2-3.4 1.8a8.4 8.4 0 01-13 2.2c-1.4-1.2-1.4-1.2-2.7.1-1.4 1.4-3 2-4.9 2H65.4c-.6.1-.8-.1-.8-.8v-8.4-1L61 145c-.5.1-.3.5-.3.8v7.1c0 .7-.1 1-.8 1-1.4-.1-2.8-.1-4-.6-.4-.2-.7-.1-1 0-.7.3-1.5.5-2.2.4-1.1 0-1.5.5-2 1.5-2 4.5-7 6.9-12 5.8-4.8-1-8.2-5.2-8.2-10.2 0-1.6 0-1.6 1.5-1.6h4.2l-2.9-2.6a9.1 9.1 0 01-.2-13c.3-.2.5-.3.9 0l1.1.7a8.1 8.1 0 00-2.3 3.9c-1 3.7.3 6.5 3.9 8l1.8.6c.5.1.7.3 1 .7 1 1.6 1 1.6 2.5.5 1.1-.8 2.4-.5 3 .8.8 2.1.5 4.2-1.7 5.3-2.2 1-5.2.4-6-1.6-.4-1.4-1.1-1.5-2.3-1.4h-1.6c-.8 0-1 .3-.8 1 .6 3.9 3.9 6.8 8 7 3.9.4 7.5-2 8.7-5.7 1.5-4.5-.5-8.6-4.7-9.6-.8-.2-1.3-.6-1.6-1.3-.7-1.1-.7-1.1-1.9-.4-.4.3-.8.9-1.3.7-1.1-.2-2.2-.7-2.6-1.8-.4-1-.2-2 .5-3 .6-.7 1.5-1 2.4-1.4zm104.4 13.7c.8 1 1.8 1.2 2.9 1.3.2 0 .5 0 .5-.3-.2-1.2.6-2.7-1-3.5-.4-.2-.6-.7-.8-1.1l-2.2-3.6c-.4-.7-.4-1 .3-1.4 2-1.2 2.3-3.2 2-5.3 0-1.8-1.2-3-2.8-3.6-.7-.3-1.3-.5-2-.6-1.9-.3-3.8-.2-5.7-.2-2.8 0-2.8 0-2.6 2.8v.3c0 .1 0 .3.2.3 1.4.2 1.4 1.3 1.4 2.4.1 1.7 0 3.2-1.9 4.1 2.3 1 2 2.8 2 4.5v.1c0 1-.4 1.5-1.2 1.8-.3 0-.5.2-.5.6v2.3c0 .3 0 .5.4.4 1.1 0 2.2-.2 3-1.3.4.9 1.2 1 2 1.3 1 .2 1.4 0 1.2-1v-1.7c0-.2 0-.5-.3-.5-1.2-.3-1.4-1.3-1.3-2.3v-1.7c0-.4-.3-1 .4-1s1.5-.7 2.1.3l1.7 3c.6.8.4 1.2-.4 1.5-.6.2-.7.5-.7 1v1.8c0 .7.3.7.9.6 1-.2 1.8-.4 2.4-1.3zM72 151.6h4.6c2 0 3.6-1.4 4.2-3.2.5-1.5.5-1.6-1-1.6h-1.4c-.4 0-.6.1-.7.5-.2.8-.8 1.1-1.7 1.1h-1.8c-.8 0-2 .4-2.4-.1-.5-.5-.2-1.6-.2-2.5 0-.8-.3-1.9.2-2.4s1.6-.2 2.4-.2c2 0 2 0 2-2.1-.1-.5-.3-.6-.7-.5h-3.2c-.4 0-.7 0-.7-.7v-4c0-.4.2-.6.6-.6h4c.5 0 1.2.2 1.3.8.3 1 .8 1 1.6.9h1.4c.5 0 .7-.2.7-.7v-3.6c0-.6-.2-.7-.8-.7H68.5c-1.9 0-1.9 0-1.9 1.9 0 .8-.2 1.6 1 1.8.2.1.5.5.5.8 0 1.7.8 3.5-1 4.8-.5.4-.4.7 0 1 1 .7 1.3 1.7 1.1 2.8v1.9c0 .6-.3 1.2-.8 1.3-.8.2-.8.7-.8 1.3v1.3c0 .6.1.8.8.8h4.5zm50.5 0h4.8c2.2-.1 4-2 4.3-4.1 0-.5 0-.7-.5-.7h-2.2c-.4 0-.5 0-.6.4-.2 1-1 1.3-1.8 1.2h-1.7c-.9 0-2 .4-2.5-.2-.5-.5-.2-1.6-.1-2.5 0-.8-.4-1.9.1-2.4s1.6-.1 2.4-.1c2 0 2 0 2-2 0-.6-.2-.7-.6-.7h-3.3c-.5 0-.7 0-.7-.6v-4c0-.4.2-.6.6-.6h4c.7 0 1.3.2 1.4.8.2 1 .8.9 1.5.9h1.5c.5 0 .6-.2.6-.6v-3.8c0-.6-.2-.6-.6-.6-1 0-2.1.2-3.1 0h-8.3c-.8 0-1.8-.4-2.3.1-.4.5 0 1.6-.1 2.3 0 .6 0 1 .7 1.2.4.1.8.5.8 1 0 1.6.8 3.4-1 4.7-.6.4-.4.7 0 1.1.5.5 1.1.7 1.1 1.5v3c0 .6-.2 1.2-.8 1.4-1 .2-.9.8-.8 1.5v1.2c0 .5.1.7.6.6h4.6zm-16-1.3l.4.5c.8.7 1.8 1 2.7.7.7-.2.2-1.2.3-1.9 0-.6 0-1.3-1-1.5-.2 0-.6-.4-.6-.8 0-1.7-.9-3.6 1-5 .5-.3.4-.6 0-1s-1-.7-1.1-1.3c-.9-3.6.2-5 3.9-4.7.5-.1.7 0 .6.5-.3 1.1.4 1.2 1.3 1.1h1.3c.5 0 .8-.1.7-.7v-3.3c0-.8-.2-1-1-1l-15.4.1c-.8 0-1.9-.3-2.4.2s-.1 1.6-.1 2.4c0 2.4 0 2.3 2.3 2.3.7 0 1-.1 1-.8 0-.3-.2-.8.4-.8h2.7c.6.2 1.2.5 1.3 1.1 0 1.7.8 3.6-1 5-.6.3-.5.7 0 1 1 .7 1.2 1.6 1.1 2.7v1.7c0 .6-.3 1.2-.8 1.3-1 .2-.9.8-.9 1.5v1.5c0 .5.2.6.6.5 1-.1 2-.3 2.8-1.3zm-51 0c.6 1 1.7 1.2 2.8 1.3.3 0 .4 0 .4-.3v-2.5c0-.3 0-.4-.3-.5-1.2-.3-1.4-1.1-1.3-2.2v-1.9c-.1-.7.1-1 .9-1a10 10 0 005.3-1.5c2-1.3 2.1-3.2 2-5.2-.1-1.8-1.2-3-2.8-3.7l-2.1-.6c-2-.4-3.8-.2-5.7-.2-2.8 0-2.8 0-2.6 2.8v.3c0 .1 0 .2.2.3 1.4.2 1.4 1.2 1.4 2.3.1 1.7 0 3.2-1.8 4.2 2 1 2 2.7 1.8 4.3v.4c0 .8-.3 1.4-1 1.6-.3.1-.7.2-.6.7v2.3c0 .3 0 .5.4.4 1.1 0 2.2-.2 3-1.3zM93.6 137h1c1.1 0 1.1 0 .6-1.2-1.4-3-4-4.3-7.6-3.6-3 .6-4.9 3-4.9 6.2 0 1.3-.2 2.3-1.3 3-.3.2-.4.5 0 .8 1.2.8 1.3 2 1.3 3.2 0 3.3 2.8 6 6 6.2 3.5.3 6.5-2 7-5.3.2-1.3.2-1.3-1-1.3h-1.4c-.6 0-.7.2-.9.7-.3 1.9-2 3-3.8 2.6-1.3-.3-2.1-1-2.4-2.3-.3-1.2-.6-2.6.8-3.5.6-.4.7-.9 0-1.3-1.3-.9-1.1-2.1-.9-3.3.5-2.4 3.5-3.5 5.2-1.8.8.8 1.6 1 2.3.9z"/><path class="nola_st3" d="M158.2 133.4c.5-1.8 1-3.6 1.2-5.4.6-5.8-.8-11-5.2-15.2-.4-.4-.5-.7-.4-1.3a17 17 0 00-8.6-17.1c-.6-.3-.9-.6-1-1.2-.6-2-2-3.4-4-4-1.6-.4-2.7-1.2-2.7-3.1 0-.7-.3-1.5-.5-2.2-.2-.5 0-.8.5-1 2.7-1.1 5.5-1.9 8.4-2.2 4.8-.5 9.6-.4 14.1 1.3a25 25 0 0115.2 15.8 26 26 0 01-6 28.9 32.8 32.8 0 01-11 6.7zM41.4 133.5c-7.9-3.4-14.5-8-17.2-16.5a27.4 27.4 0 016.1-28.9c5.8-6 13.1-8.1 21.3-7.6a35 35 0 0110 2.3c.8.3 1 .7.7 1.4l-.5 3c-.1.7-.4 1.2-1.2 1.4l-2 .7c-1.7.8-3 2-3.4 4-.1.6-.5.8-.9 1-1.3.8-2.6 1.6-3.8 2.6-2.1 1.8-3.5 4-4 6.9 0 1.2-.4 2.3-.8 3.5a8.5 8.5 0 000 4.7c0 .5 0 .8-.4 1.1a17.6 17.6 0 00-4.7 17.3l.8 3.1z"/><path class="nola_st4" d="M75.8 126.8c-.2-.5-.6-.6-1-.8-6.2-3.8-12.3-7.6-17.8-12.3l-2.2-2c-1.4-1.2-1.7-2.8-1.2-4.7l1-2.5c0 3.2 2 5 4.3 6.5a96 96 0 0017.6 9c.5.1 1 .4 1.3-.1.3-.6-.2-1-.6-1.3A92.6 92.6 0 0164 106.2 10.5 10.5 0 0161 101c-.3-2.2.8-4 3.2-4.8-.6 2.3.8 3.6 2.1 5 7.5 7.6 15.6 14.6 24.6 20.4 2.2 1.5 4.6 2.7 6.8 4.1.9.5 1.5.5 2.3 0l7.1-4c-.5 2.3-2.3 3.4-3.3 5H89.7l-5.5-3h-1c-.5 0-.8.1-.4.7l1.8 2.4h-8.8z"/><path class="nola_st5" d="M85.4 174.2c2.3-3.5 3.9-7.4 5.6-11.2.5-.9 1.2-1.6 1.8-2.4.7-1 1.4-2 1.8-3.3.4-1.7 1.8-2.4 3.2-3.5v2.7c0 .5 0 .7.6.7h5.7c.5-.1.7 0 1 .4 2.4 3.9 4.6 8 6.3 12.3.6 1.6 1.6 3 2.6 4.5-1.3.2-3.2-.4-4.5-1.5-1.3-1-2.3-2.3-3.5-3.6-1.7 6.7-2.2 13.7-6.4 19.4C96 183 93 177.1 95.5 170H95l-4.3 2.2c-1.3.7-2.5 1.5-4 2-.4 0-.9.3-1.4 0zM114.8 40.4c-2.2-.8-4.4-1.9-6.6-3L103 35c-2.2-1-4.5-1.1-6.6 0-3.7 1.8-7.5 3.7-11.5 5.4 4.8-9.9 10-19.4 15-29 .4.2.4.4.5.6l14 27.4c.1.4.4.7.4 1.1z"/><path class="nola_st6" d="M40 136.6c-1 .4-1.8.7-2.4 1.5-.7.9-1 1.9-.5 2.9.5 1.1 1.5 1.6 2.6 1.8.5.2 1-.4 1.3-.7 1.2-.7 1.2-.7 1.9.4.3.7.8 1 1.6 1.3 4.2 1 6.2 5.1 4.7 9.6a8.5 8.5 0 01-8.7 5.8c-4.1-.3-7.3-3.2-8-7-.1-.8 0-1.2.8-1H35c1.2-.2 2 0 2.4 1.3.7 2 3.8 2.7 5.9 1.6 2.2-1.1 2.5-3.2 1.6-5.3-.5-1.3-1.8-1.6-2.9-.8-1.5 1-1.5 1-2.5-.5-.2-.4-.5-.6-1-.7l-1.8-.6c-3.6-1.5-5-4.3-3.9-8a8 8 0 012.3-3.9l5 2.3zM153.4 139c-.2 2 .2 2.9 1.8 3.6.7.3 1.3.4 1.9-.2l.4-.3c1-.7 1.1-.7 1.7.4.4.7.8 1 1.7 1.3 4 1 6 4.6 4.9 9a8.5 8.5 0 01-8.7 6.4 8.7 8.7 0 01-8.2-7.2c-.1-.6 0-1 .7-.9h1.7c1.2 0 2 0 2.4 1.4.7 2 3.7 2.7 5.9 1.6s2.5-3.2 1.6-5.3c-.5-1.3-1.8-1.6-2.9-.8-1.5 1-1.5 1-2.5-.6-.3-.3-.5-.5-1-.6-3.6-1-5.8-3-6-5.7-.3-3.7 1.7-7 5-8.4l1-.3-2.5 5.9c-.1.3-.3.5-.3.9.5.2.9-.4 1.4-.2z"/><path class="nola_st5" d="M89 157.2c-2.1 4.9-8.1 8-13.7 7.4-5-.7-9.4-3.9-10-7.4h9.4c2.7 0 5.2-.4 7.4-2 .3-.2.5-.2.7 0 1.9 1.2 4 1.8 6.2 2z"/><path class="nola_st1" d="M110.6 157.2h23.2c.6-.1.7 0 .4.7-1.5 3.3-4 5.5-7.6 6.2-5 1-9.8.3-13.7-3.5-1-1-1.7-2-2.3-3.4z"/><path d="M138.9 126.6l2-1.5c3.7-3 7.3-6 10.6-9.4.4-.4.6-.3 1 0 2.6 3 3.7 6.5 3.7 10.5 0 .4-.3.6-.7.6-2.5.4-4.7 1.2-6.7 2.7-.2.2-.4.3-.7 0-2.7-2-5.7-2.8-9-2.8h-.2z" fill="#fdfcfe"/><path class="nola_st8" d="M60.5 126.8H47.6c-.7 0-1.2 0-1 1L44 127c-.4-.1-.4-.5-.4-.8-.1-4 1-7.4 3.8-10.3.2-.2.4-.3.7 0 4 3.7 8 7.3 12.4 10.6v.3z"/><path class="nola_st6" d="M163.8 134.7c1.3 1.2 2 2.7 2.2 4.5 0 .6 0 1-.8.8h-1.6c-1 0-2.1.3-2.4-1.4-.2-.9-1.2-1.3-2-1.8l4.6-2.1z"/><path class="nola_st9" d="M45.2 133.2c2.3.7 4.5 4 4.4 6.3 0 .5-.2.5-.5.5h-3.2c-.4 0-.7 0-.7-.5 0-.4-.3-.8-.4-1.1l2.8.9c-.6-2.2-1.8-4-2.4-6.1z"/><path class="nola_st2" d="M84.6 126.8l-1.8-2.4c-.4-.6 0-.7.4-.8.4 0 .7 0 1 .2l5.5 3h-5z"/><path class="nola_st9" d="M45 133c.2 0 .3 0 .2.2l-.1-.2z"/><path class="nola_st6" d="M153.5 138.8l-.1.2.1-.2z"/><path d="M86 165.6v-.1h0v.1z" fill="#fefefe"/><path class="nola_st5" d="M85.4 174.2v.1h-.1l.1-.1zM114.8 40.4l.1.1v-.1h-.1z"/><path class="nola_st4" d="M84.7 108.8c-1.6-1-2.9-2.1-4-3.4-3.1-3.1-5.7-6.6-8.2-10.1a10 10 0 01-1.3-9.2c1.7-5.8 4.2-11.3 6.7-16.8 1.1-2.4 2.3-4.7 3-7.3.2-.5.6-1.2.1-1.5-.5-.4-1.1.1-1.6.5-.9.6-1.6 1.5-2.6 1.8 3-7.5 7.3-13.8 15-17l6.3-2.8c.7-.3.9 0 1 .6 1.3 3.1 1.3 6.3 0 9.4-.6 1.6-.5 2 1 2.8 3.3 1.8 6.3 4 9 7-.8 0-1.3-.3-1.8-.5l-6.5-2.8a4.3 4.3 0 00-3.6 0 54.2 54.2 0 00-13.3 7.4 11.3 11.3 0 00-3.3 4.3l-5.8 13.1c-1.5 3.4-1 6.8.5 10 2.5 4.8 5.4 9.2 9 13.3.3.3.7.5.4 1.2z"/><path class="nola_st11" d="M108.9 112c2.5-2.9 5.3-5.7 7.6-8.9a70 70 0 006.4-10.8c1-2.3.9-4.6.6-7-.7-5.2-1.7-10.3-2.9-15.5v-.5a57 57 0 017.3 19c.2 1.2.1 2.4-.4 3.5a49.4 49.4 0 01-17.5 20l-1 .4-.1-.1z"/><path class="nola_st12" d="M102.9 66.8a75 75 0 0110 6l-.3.2c-2.7-.7-5 .1-7.2 1.7a18 18 0 01-2.7 1.7c-1.4.8-1.8.7-3-.3l-.8-.6c-1.4 1.7-2.4 1.8-4.3.6L92 74.3c-2.3-1.5-4.7-2.2-7.4-1.1h-.4c.4-1.1.9-2.1 2-2.5 1.9-.7 3.7-.5 5.5.4 1.3.6 2.4 1.5 3.4 2.4 1.2 1 1.6 1 2.7 0 1-.8 1.5-.8 2.5 0 1 .9 1.5 1 2.5.1l2.5-1.9c.7-.6.7-1.2 0-2l-1.7-1.4c-.5-.4-.9-.7-.6-1.5z"/><path class="nola_st11" d="M122 117.8l5.6-7.9 4.9-7c1.6-2.4 2.2-4.7.5-7.2v-.2c3.1 0 4.9 2.4 4.3 5.8a9.2 9.2 0 01-1.7 4c-3.7 5-8.2 8.9-13.2 12.4l-.5.1z"/><path d="M90.5 86.7l-1 1.7c-.8 1.5-.7 3 0 4.4.4.8 1 .8 1.6.2.2-.4.5-.8 1-1-.4 5.8 1.2 11 5 15.6-.8 0-1.4-.4-1.9-.8a23.6 23.6 0 01-7.4-9c-.1-.5-.6-1-.2-1.5.3-.5.8.3 1.4.3.1-.6-.1-1.1-.3-1.6-.8-3.1-2.5-5.6-5.2-7.3-1-.7-1.5-1.5-1.4-2.7 2.7.8 5.3 2.1 8.4 1.7z" fill="#8322e4"/><path class="nola_st12" d="M114.8 50.8c2.3 1.4 7.1 9.4 7.7 12.9-3.5-1.2-6.5-6.2-7.7-12.9zM138.4 115.8l1.8-3c1.9-3 3-6.3 3-9.9 1.5 2 2 4.2 2 6.7 0 .3-.2.6-.4.8-1.7 2-3.7 3.9-6 5.3-.1.1-.3.3-.4 0v.1zM115.6 84.1c.4 4.3-2.8 6.8-4.1 10-.2-3.9 1.4-7 4-10z"/><path class="nola_st8" d="M92.6 78c-1.3.8-2.6.8-3.8 0-.4-.4-.8-.8-.5-1.3.2-.6.7-.8 1.3-.6 1.2.4 2.1 1 3 1.8zM107 78.4c-.5 0-1.4 0-1.5-.6-.2-.5.7-.8 1.2-1l1.5-.7c.5-.1 1 0 1.3.5.3.6-.1 1-.4 1.2-.6.5-1.2.6-2 .6z"/><path class="nola_st11" d="M109 112.2c0 .2-.2.3-.3.1l.2-.2.1.1z"/><path class="nola_st12" d="M138.4 115.8v.1h-.1v-.1z"/><path class="nola_st6" d="M144.4 150.3c-.6 1-1.5 1.1-2.5 1.3-.5 0-.9 0-.8-.7v-1.7c0-.5 0-.8.7-1 .7-.3 1-.8.4-1.6l-1.7-3c-.6-1-1.4-.3-2.1-.3-.7 0-.4.7-.4 1v1.7c-.1 1.1 0 2 1.3 2.3.3.1.3.3.3.6v1.7c.1 1-.3 1.2-1.1 1-.9-.3-1.7-.5-2.2-1.3-.7 1-1.8 1.2-2.9 1.3-.4 0-.4-.2-.4-.5v-2.3c0-.4.2-.5.5-.6.8-.2 1.2-.8 1.1-1.7 0-1.8.4-3.6-1.9-4.6 2-1 2-2.5 2-4.1-.1-1.1 0-2.2-1.5-2.5-.2 0-.2 0-.2-.2v-.3c-.2-2.8-.2-2.8 2.6-2.8 1.9 0 3.8-.2 5.7.2.7 0 1.3.3 2 .6 1.6.7 2.7 1.8 2.9 3.6.2 2 0 4-2 5.2-.8.5-.8.8-.4 1.5.8 1.1 1.5 2.4 2.2 3.6.2.3.4.9.8 1 1.6 1 .7 2.4 1 3.6 0 .3-.3.3-.5.3-1.1 0-2.2-.2-2.9-1.3zm-6.4-12.6v1.9c0 .3 0 .6.4.6 1.2 0 2.3-.1 3.3-.8 1.4-.8 1.4-2.5 0-3.4-.6-.4-1.3-.6-2.1-.6-1.6-.2-1.6-.2-1.6 1.4v.9z"/><path class="nola_st9" d="M71.9 151.7h-4.5c-.7 0-.9-.2-.8-.8v-1.3c0-.6 0-1 .8-1.3.6-.1.8-.7.8-1.3v-1.9c.2-1.1 0-2-1-2.8-.5-.3-.6-.6 0-1 1.7-1.3 1-3.1 1-4.8 0-.3-.3-.7-.7-.8-1-.2-.9-1-.9-1.8 0-2 0-2 2-2h11.8c.5 0 .7.2.7.8v3.6c0 .5-.2.7-.7.7H79c-.7 0-1.3 0-1.6-1-.1-.5-.8-.7-1.4-.7h-3.9c-.4 0-.6.1-.6.6v4c0 .6.3.7.7.7h3.2c.5 0 .6 0 .6.5.2 2.1.2 2.1-1.9 2.1-.8 0-1.9-.3-2.4.2s-.1 1.6-.2 2.4c0 .9-.2 2 .2 2.5.5.5 1.6.1 2.5.1H76c.8 0 1.4-.3 1.6-1.1.2-.4.4-.5.8-.5h1.3c1.5 0 1.5.1 1 1.6a4.7 4.7 0 01-4.2 3.2h-4.6z"/><path class="nola_st6" d="M122.4 151.7h-4.6c-.5 0-.7-.2-.6-.7v-1.2c0-.7-.1-1.3.8-1.5.6-.2.8-.8.8-1.4v-3c0-.8-.6-1-1-1.5-.4-.4-.7-.7 0-1.1 1.7-1.3.9-3.1.9-4.7 0-.5-.4-.9-.8-1-.8-.1-.8-.6-.7-1.1 0-.8-.3-1.9.1-2.3.5-.5 1.5-.2 2.3-.2l8.3.1 3-.1c.5 0 .7 0 .7.6v3.8c0 .5-.1.6-.6.6h-1.5c-.7 0-1.3 0-1.5-.9-.1-.5-.7-.8-1.3-.8h-4c-.5 0-.7.2-.7.7v4c0 .4.2.6.7.6h3.3c.4 0 .6 0 .6.6 0 2 .1 2-2 2-.8 0-1.8-.3-2.4.2-.5.4-.1 1.5-.1 2.3 0 1-.4 2 .1 2.6.5.5 1.6 0 2.5.1h1.7c.9 0 1.6-.3 1.8-1.2 0-.3.3-.4.6-.4h2.2c.5 0 .5.2.5.7-.3 2.1-2.1 4-4.3 4.1h-4.8zM106.5 150.3c-.7 1-1.7 1.2-2.8 1.3-.4 0-.6 0-.6-.5v-1.5c0-.7 0-1.3.9-1.5.5-.1.8-.7.8-1.3v-1.7c.1-1.1-.2-2-1.1-2.7-.5-.4-.6-.7 0-1 1.8-1.4 1-3.3 1-5 0-.6-.7-1-1.3-1-1-.2-1.8-.1-2.7-.1-.7 0-.5.5-.5.8.1.7-.2.8-.9.8-2.3 0-2.3 0-2.3-2.3 0-.8-.4-2 .1-2.4.5-.5 1.6-.2 2.4-.2H115c.7 0 1 .1 1 1-.1 1-.1 2.1 0 3.2 0 .6-.3.8-.8.7a7 7 0 00-1.3 0c-.9.1-1.6 0-1.3-1.1 0-.4-.1-.6-.5-.6h-.1c-3.7-.2-4.8 1.2-4 4.8.2.6.8.9 1.2 1.3.4.4.5.7 0 1-1.9 1.4-1 3.3-1 5 0 .4.3.7.7.8 1 .2 1 .9.9 1.5-.1.7.3 1.7-.3 2-.9.2-1.9-.1-2.7-.8l-.3-.5zM55.3 150.3c-.7 1-1.7 1.2-2.9 1.3-.3 0-.4-.1-.4-.4v-2.3c0-.5.3-.6.6-.7.7-.2 1.1-.8 1-1.6v-.4c.2-1.6.3-3.3-1.8-4.3 1.9-1 2-2.5 1.9-4.2 0-1 0-2-1.5-2.3l-.2-.3v-.3c-.2-2.8-.2-2.8 2.6-2.8 2 0 3.8-.2 5.7.2.7 0 1.4.3 2 .6 1.7.7 2.8 1.9 3 3.7 0 2-.2 4-2.1 5.2a10 10 0 01-5.3 1.5c-.7 0-1 .3-1 1 .2.6.1 1.3 0 2 0 1 .3 1.8 1.4 2.1.3.1.3.2.3.5v2.5c0 .3-.1.3-.4.3-1.1 0-2.2-.2-2.9-1.3zm1.7-12.6v.5c0 2.1 0 2.1 2 1.8 1.8-.3 2.8-1.1 2.8-2.3 0-1.2-1-2-2.7-2.3-2.1-.3-2.1-.3-2.1 1.7v.6zM93.7 137c-.7 0-1.5 0-2.3-.9-1.7-1.7-4.8-.6-5.2 1.8-.2 1.2-.4 2.4.9 3.3.7.4.6.9 0 1.3-1.4 1-1.1 2.3-.8 3.5.2 1.2 1.1 2 2.4 2.3 1.7.4 3.4-.7 3.8-2.6.1-.6.3-.7.8-.7h1.4c1.3 0 1.3 0 1.1 1.2a6.5 6.5 0 01-7 5.4c-3.3-.2-6-3-6-6.2 0-1.3-.1-2.4-1.3-3.2-.5-.3-.4-.6 0-.8 1-.7 1.3-1.8 1.3-3 0-3.3 1.9-5.6 4.9-6.2 3.6-.7 6.2.5 7.6 3.6.5 1.1.5 1.2-.7 1.2h-1z"/><path class="nola_st0" d="M152 139.2z"/><path class="nola_st2" d="M138 137.7v-.9c0-1.6 0-1.6 1.6-1.4.8 0 1.5.2 2.2.6 1.3.9 1.3 2.6-.1 3.4-1 .6-2.1.7-3.3.8-.4 0-.4-.3-.4-.6v-1.9zM57 137.7v-.6c0-2 0-2 2-1.7 1.8.3 2.8 1.1 2.8 2.3 0 1.2-1 2-2.7 2.3-2.1.3-2.1.3-2.1-1.8v-.5z"/></svg>