<svg id="e75d5bcd-65aa-4a0e-97ff-95b8dfa37916" data-name="Layer 1" xmlns="http://www.w3.org/2000/svg" xmlns:xlink="http://www.w3.org/1999/xlink" viewBox="0 0 1000 766.9"><defs><linearGradient id="e2f79512-d7f5-4b04-8b05-73e418469f44" x1="366.91" y1="756.722" x2="366.91" y2="437.88" gradientUnits="userSpaceOnUse"><stop offset="0.33" stop-color="#e88900"/><stop offset="0.465" stop-color="#e68600"/><stop offset="0.578" stop-color="#df7b00"/><stop offset="0.683" stop-color="#d46a00"/><stop offset="0.784" stop-color="#c55100"/><stop offset="0.882" stop-color="#b13200"/><stop offset="0.975" stop-color="#980b00"/><stop offset="1" stop-color="#910000"/></linearGradient><linearGradient id="b068eeae-09a5-42fc-9224-f645955c2b81" x1="302.024" y1="772.521" x2="302.024" y2="734.385" xlink:href="#e2f79512-d7f5-4b04-8b05-73e418469f44"/><linearGradient id="e75d1faa-44a7-46b7-87de-a16cafca9567" x1="281.045" y1="736.709" x2="281.045" y2="730.431" xlink:href="#e2f79512-d7f5-4b04-8b05-73e418469f44"/><linearGradient id="ebc72859-995c-4f7c-b496-2a8beb208ba2" x1="286.571" y1="731.364" x2="286.571" y2="722.666" xlink:href="#e2f79512-d7f5-4b04-8b05-73e418469f44"/><linearGradient id="b865a127-5da2-40eb-96c9-46fd7541d7c5" x1="331.454" y1="732.966" x2="331.454" y2="727.697" xlink:href="#e2f79512-d7f5-4b04-8b05-73e418469f44"/></defs><path d="M22.117,838.259c8.018-55.5,16.28-111.773,24.56-167.246l.059-.395-.2-.349c-6.509-11.518-13.061-23.227-19.475-34.8L.63,587.757h267.5l-1.407-1.863c-29.838-39.5-63.175-92.088-89.175-140.674-25.25-47.18-30.893-101.274-15.48-148.415C177.245,249.7,211.1,205.26,257.4,171.663c47.339-34.347,104.951-55,162.225-58.152,5.863-.323,11.75-.487,17.5-.487,7.648,0,15.291.292,22.717.866,61.39,4.747,113.263,29.194,158.581,74.739,15.07,15.145,33.57,49.439,40.824,63.48,2.83,5.479,69.422,134.724,78.172,181.435a280.834,280.834,0,0,1,7.074,82.772l-.087,1.248,224.821-.726,31.4,85.231-2.575,5.077c-.01.02-.78,1.546-2.017,3.661l-13.652,24.654c-7.569,13.663-15.267,27.4-22.881,40.831l-.2.347,3.082,20.852q3.509,23.783,7.015,47.738l2.059,14.089,3.862.371,3.615,24.8q3.9,26.769,7.806,53.769l6.024,41.663L951.882,874.7c-40.065-5.109-80.718-9.587-120.83-13.312l-25.305-2.346c-.622-5.4-4.361-37.819-4.361-37.819l-1.723,1.928c-20.312,22.713-49.032,34.23-85.362,34.23-3.488,0-7.1-.108-10.724-.32-19.835-1.149-38.158-5.424-54.46-12.705-.718-.32-1.43-.646-2.143-.98l-3.745-1.75,4.663,7.036-60.7-1.424c-20.358-.479-40.885-.782-61.01-.9l-17.955-.111-.005-.009-.708-.052-26.789.184c-16.93.115-33.954.351-50.6.7l-32.825.693.977-37.712-2.465,2.547a159.722,159.722,0,0,1-45.05,31.808,143.512,143.512,0,0,1-52.636,13.694c-2.786.164-5.55.248-8.215.248a121.766,121.766,0,0,1-45.238-8.494,112.374,112.374,0,0,1-43.864-31.146,119.452,119.452,0,0,1-24.35-42.606l-.282-.861-.9.063c-9.624.536-19.267,1.1-28.842,1.678l-.954.058-.127.947q-4.2,31.335-8.4,62.94l-3.292,24.781-24.319,2.732c-17.5,1.969-35.114,4.082-52.356,6.282L16.1,879.924Z" transform="translate(-0.63 -113.024)" style="fill:#efefef"/><polygon points="673.353 8.043 284.924 8.043 90.708 344.434 284.924 680.824 673.353 680.824 867.57 344.434 673.353 8.043" style="fill:#efefef"/><path d="M663.833,619.373,313.418,144.11l-35.11,17.46-.561-.557L106.594,457.458,293.182,780.636H666.356l52.555-91.029Z" transform="translate(-0.63 -113.024)" style="fill:#212020"/><polygon points="665.726 21.255 305.54 21.255 663.203 506.349 718.281 576.583 852.313 344.434 665.726 21.255" style="fill:#141414"/><path d="M277.747,161.013l.561.557,35.11-17.46-7.248-9.831H293.182Z" transform="translate(-0.63 -113.024)" style="fill:#141414"/><path d="M248.1,178.732c3.387-2.669,6.44-4.988,9.307-7.069a312.366,312.366,0,0,1,109.363-50.312l43.985,43.8L283.988,224Z" transform="translate(-0.63 -113.024)" style="fill:#efefef"/><polygon points="530.651 358.556 536.971 352.555 556.094 334.402 556.094 334.402 536.971 352.555 530.651 358.556" style="fill:#292929"/><path d="M508.063,713.384c-64.207,0-125.873-24.4-178.328-70.554-50.2-44.17-108.983-136.4-144.067-201.953C161.6,395.9,156.186,344.431,170.821,299.666c14.587-45.284,47.256-88.093,91.99-120.551,45.923-33.322,101.8-53.356,157.323-56.413,5.7-.314,11.423-.473,16.993-.473,7.421,0,14.825.283,22.007.839,59.1,4.571,109.069,28.14,152.766,72.054,12.563,12.627,27.525,39.347,39.156,61.216.678,1.277,68.872,133.038,77.357,179.109,17.874,73.137,3.347,142.717-40.877,196.041-2.569,3.1-5.018,5.9-7.482,8.568a219.481,219.481,0,0,1-27.508,25.109c-5.236,4.024-10.979,8.011-17.07,11.854A238.3,238.3,0,0,1,526.6,712.685c-6.133.464-12.366.7-18.529.7Z" transform="translate(-0.63 -113.024)" style="fill:#efefef"/><path d="M724.365,436.371C716.587,393.54,653.2,269.207,647.4,258.285c-9.813-18.449-25.609-47.348-38.435-60.238C568.588,157.472,520.5,131.974,458.814,127.2a290.733,290.733,0,0,0-38.452-.359c-115.217,6.341-216.56,83.962-245.6,174.112-14.849,45.422-8.332,95.186,14.562,137.965,31.182,58.265,91.313,155.188,143.15,200.8,60.638,53.354,130.053,73.653,193.816,68.831a233.553,233.553,0,0,0,106.973-35.039c5.766-3.638,11.373-7.5,16.757-11.635a215.079,215.079,0,0,0,26.986-24.63q3.783-4.1,7.337-8.406C724.487,580.438,743.235,513.352,724.365,436.371Z" transform="translate(-0.63 -113.024)" style="fill:#212020"/><path d="M724.365,442.591C716.587,399.76,653.2,275.427,647.4,264.506c-9.813-18.45-25.609-47.348-38.435-60.239-40.372-40.574-88.461-66.073-150.146-70.844a290.733,290.733,0,0,0-38.452-.359c-115.217,6.34-216.56,83.962-245.6,174.112-14.849,45.422-8.332,95.185,14.562,137.965,31.182,58.265,91.313,155.188,143.15,200.8,60.638,53.355,130.053,73.654,193.816,68.831a233.552,233.552,0,0,0,106.973-35.038c5.766-3.638,11.373-7.5,16.757-11.636a215.071,215.071,0,0,0,26.986-24.629q3.783-4.1,7.337-8.407C724.487,586.659,743.235,519.573,724.365,442.591Z" transform="translate(-0.63 -113.024)" style="fill:#212020"/><path d="M724.365,436.371C716.587,393.54,653.2,269.207,647.4,258.285c-9.813-18.449-25.609-47.348-38.435-60.238C568.588,157.472,520.5,131.974,458.814,127.2l-9.478,12.084,72.26,9.474,72.638,59.553L623.968,264.5l-9.347,94.712-26.706,58.605-31.191,29.611L545.9,459.359,677.006,637.246q3.783-4.1,7.337-8.406C724.487,580.438,743.235,513.352,724.365,436.371Z" transform="translate(-0.63 -113.024)" style="fill:#292929"/><path d="M965.728,786.416l-2.1-14.44-14.006-1.346c-17.778-1.709,9.946-.413,9.946-.413l-3.371-23.056q-3.5-23.949-7.012-47.718l-2.234-15.126-7.169-.335,5.323-9.361c8.6-15.124,17.212-30.476,25.6-45.628l13.726-24.785c1.047-1.782,1.717-3.1,1.717-3.1l-26.38-70.887s-405.584,1.309-530.281,1.707c-22.38.072-37.712,66.209-37.988,69.015-.016.059-.026.108-.042.165H23.292L38.744,629C45.95,642,53.293,655.109,60.62,668.042c-8.562,57.319-17.064,115.191-25.288,172.127l-3.507,24.286,23.471-3c17.381-2.22,35.064-4.34,52.556-6.308l13.948-1.567,1.918-14.436q4.992-37.581,9.993-74.779c13.591-.853,27.251-1.661,40.778-2.414l11.745-.654q.684,3.029,1.517,6a107.128,107.128,0,0,0,23.157,42.642,99.145,99.145,0,0,0,38.708,27.48,108.5,108.5,0,0,0,40.3,7.549c2.439,0,4.934-.077,7.414-.225A130.226,130.226,0,0,0,345.085,832.3,145.855,145.855,0,0,0,386.3,803.212a138.226,138.226,0,0,0,26.492-37.673L411.016,834.1l18.835-.4c16.752-.352,33.84-.589,50.788-.7l17.728-.122.208-30.833c4.1,7.235,17.478,30.88,17.478,30.88l10.215.063c20.321.123,40.925.429,61.242.907l35.123.824-19.913-30.06c-12.863-19.412-26.584-39.979-42.441-63.61a63.031,63.031,0,0,0,17.04-15.062,137.187,137.187,0,0,0,36.749,77.392,129.2,129.2,0,0,0,40.493,28.79c14.815,6.618,31.574,10.512,49.8,11.567,3.375.2,6.719.3,9.94.3,34.134,0,60.479-11.165,78.291-33.165a96.739,96.739,0,0,0,17.223-32.99q3.141,27.086,6.225,53.852l1.732,15.023,14.512,1.346c40.271,3.738,81.079,8.234,121.287,13.363l23.472,2.994-3.509-24.286Q969.631,813.175,965.728,786.416Z" transform="translate(-0.63 -113.024)" style="fill:#212020"/><path d="M638.6,280.931l-13.533-4.46,13.349,2.434c-7.826-72.3-63.888-126.535-141.091-145.32l-7.357,4.229,4.657-4.854a265.132,265.132,0,0,0-74.26-6.117,285.185,285.185,0,0,0-66.383,11.747l6.722,4.441-10.85-3.175A297.588,297.588,0,0,0,285.787,168.9v5.17L284.78,169.5c-38.635,23.576-70.537,55.147-91.432,90.512l2.543,3.948h-4.77a201.316,201.316,0,0,0-16.359,36.992,177.6,177.6,0,0,0-7.909,39.166l4.22,5.657h-4.619c-2.675,50.232,17.06,98.459,56.072,132.945l2.87-2.862V481.2c18.466,15.631,41,28.287,67.353,36.75,7.493,2.4,17.173,23.058,24.9,24.718,8.178,1.758,14.412-15.52,22.774-14.577,53.684,6.049,110.367-4.52,159.857-29.059v-9.261l3.473,7.517c33.143-16.99,62.895-40.317,86.145-69.16l-4.622-4.1,6.5,1.754a228.042,228.042,0,0,0,37.335-69.046C638.007,329.974,640.846,304.513,638.6,280.931Zm-33.111,69.357a204.259,204.259,0,0,1-14.295,32.931c1.878,3.6,3.043,5.956,3.043,5.956l-3.807-4.557c-17.657,31.974-43.948,59.564-77.473,80.975-.583.373-1.185.719-1.771,1.087l-2.756,6.973.369-5.51c-41.371,25.331-90.294,39.27-138.368,39.27a226.84,226.84,0,0,1-69.438-10.525c-38.127-12.242-68.063-34.407-87.377-64.439l-3.581,1.437,1.8-4.277c-1.658-2.714-3.261-5.467-4.748-8.3-14.871-28.38-19.588-60.747-13.876-92.98-4.362-4.868-8.018-9.782-8.018-9.782l8.539,7.119a159.824,159.824,0,0,1,4.716-18.446c12.6-39.127,39.941-74.676,75.571-102.152v-6.383s3.586-.085,8.85-.183c39.926-28.238,88.951-46.594,138.993-49.348,4.706-.259,9.454-.39,14.109-.39a228.886,228.886,0,0,1,66.619,9.56l5.841-2.447-4.181,2.967c32.646,10.247,60.392,28.02,80.1,52.042a133.6,133.6,0,0,1,17.278,27.088c3.044-3.4,5.2-5.872,5.2-5.872l-3.787,8.907C617.509,273.359,618.525,311.079,605.486,350.288Z" transform="translate(-0.63 -113.024)" style="fill:#910000"/><path d="M217.616,342.6c27.253-84.6,123.3-152.557,223.415-158.066,4.7-.26,9.453-.39,14.109-.39,61.91,0,115.99,22.642,148.377,62.122,1.136,1.385,2.231,2.791,3.3,4.207a132.16,132.16,0,0,0-22.477-39.59C551.958,171.4,497.877,148.76,435.967,148.76c-4.655,0-9.4.131-14.109.39C321.744,154.66,225.7,222.613,198.444,307.216c-12.557,38.978-9.488,79.5,8.639,114.089a144.908,144.908,0,0,0,11.926,19.022C207.6,409.659,206.99,375.585,217.616,342.6Z" transform="translate(-0.63 -113.024)" style="fill:#292929"/><path d="M535.751,663.62q-7.452-5.957-24.914-5.945l-10.668.011-.354,50.083q5.033-.015,10.066-.023,17.547-.03,25.6-5.825,8.02-5.787,7.893-18.078Q543.23,669.575,535.751,663.62Z" transform="translate(-0.63 -113.024)" style="fill:none"/><path d="M460.055,218.076c-100.115,5.51-196.162,73.463-223.415,158.066-8.629,26.788-9.849,54.293-3.891,80.109,17.993,18.1,41.026,31.9,68.241,40.637a226.84,226.84,0,0,0,69.438,10.525,268.092,268.092,0,0,0,142.526-41.82c45.01-28.747,77.007-68.619,92.532-115.3,9.55-28.719,11.55-56.634,6.252-82.231-32.927-32.181-82.1-50.371-137.574-50.371C469.508,217.686,464.76,217.817,460.055,218.076Z" transform="translate(-0.63 -113.024)" style="fill:#141414"/><path d="M603.517,246.265c-32.387-39.48-86.467-62.122-148.377-62.122-4.656,0-9.4.13-14.109.39C340.916,190.042,244.869,258,217.616,342.6a152.96,152.96,0,0,0-7.042,59.758,142.48,142.48,0,0,0,9.456,39.289,145.369,145.369,0,0,0,12.719,14.6c-5.958-25.816-4.738-53.321,3.891-80.109,27.253-84.6,123.3-152.556,223.415-158.066,4.7-.259,9.453-.39,14.109-.39,55.473,0,104.647,18.19,137.574,50.371a132.1,132.1,0,0,0-4.917-17.585C605.748,249.056,604.653,247.65,603.517,246.265Z" transform="translate(-0.63 -113.024)" style="fill:#212020"/><path d="M320.879,658.56c-14.755.165-27.429,5.69-38.09,16.784q-16.126,16.773-18.62,42.448c-1.695,17.6,1.81,32.07,10.591,43.149,8.852,11.186,21.154,16.355,36.853,15.667,15.418-.675,28.567-6.973,39.374-18.758Q367.059,740.321,368.542,715c.985-16.5-3.144-30.023-12.316-40.734Q342.578,658.343,320.879,658.56Z" transform="translate(-0.63 -113.024)" style="fill:none"/><path d="M797.6,737.744A190.055,190.055,0,0,0,796.438,715q-.541-4.939-.882-7.47t-.7-4.633q-51.1-1.74-102.228-2.866Q694.2,721.1,695.782,742.2q26.3.88,52.595,2c-.417,11.731-4.812,21-13.22,27.7a41.19,41.19,0,0,1-17.554,7.992l12,9.538-21.186-8.417c-2.07.091-4.183.122-6.388.022-16.041-.726-29.054-6.936-38.973-18.531q-14.759-17.254-16.376-45.757c-1.071-18.552,2.548-32.916,10.794-43.307q12.268-15.452,35.221-15.222a48.278,48.278,0,0,1,22.73,5.739q10.442,5.636,19.473,17.2,21.2-10.632,42.4-21.5c-11.2-15.133-24.135-26.291-38.846-33.682-14.632-7.35-30.961-10.935-49.052-10.935a104.378,104.378,0,0,0-38.389,6.9,88.168,88.168,0,0,0-29.81,19.3l22.866,11.284-28.452-5.222a88.236,88.236,0,0,0-15.572,26.733q-6.538,17.9-5.725,39.713a115.467,115.467,0,0,0,9.22,41.028,119.11,119.11,0,0,0,9.99,18.78l19.2-4.5-15.829,9.363a114.344,114.344,0,0,0,9.878,11.782,110.89,110.89,0,0,0,34.873,24.829q19.383,8.657,43.712,10.077c32.958,1.93,57.5-6.532,73.481-26.266,11.546-14.22,17.709-33.265,18.635-56.635l-29.754-11.046Z" transform="translate(-0.63 -113.024)" style="fill:#a00400"/><path d="M860.3,832.076q47.783,4.792,95.465,10.861-3.9-26.982-7.8-53.724-33.912-3.261-67.865-6.02c-.674-5.183-1.348-10.34-2.022-15.512L857.39,751.97s10.295,4.423,19.633,7.645c-.605-4.644-1.21-9.3-1.816-13.939q31.622,1.976,63.218,4.288-3.5-23.939-7.007-47.693-31.119-1.453-62.255-2.695-2.376-18.066-4.754-36.051,32.613.738,65.217,1.609c1.892-3.328,3.785-6.7,5.677-10.052l-29.48-7.65h33.8q7.747-13.767,15.5-27.742-72.865-.189-145.738-.317c1.064,9.021,2.126,18.085,3.189,27.129l21.111-11.718-20.573,16.291q10.392,88.462,20.768,178.436c6.014.558,12.024,1.163,18.036,1.751l22.474-16.028Z" transform="translate(-0.63 -113.024)" style="fill:#a00400"/><path d="M407.245,707.593l-29.038-16.786,28.5,7.908a94.767,94.767,0,0,0-5.586-23.649,91.02,91.02,0,0,0-20.217-31.677,92.133,92.133,0,0,0-31.185-21,97.426,97.426,0,0,0-37.477-7.358,102.537,102.537,0,0,0-38.6,7.508,108.445,108.445,0,0,0-34.163,21.942,116.014,116.014,0,0,0-25.5,33.758,121.936,121.936,0,0,0-12.1,41.571,115.361,115.361,0,0,0,.545,30.241A101.935,101.935,0,0,0,205,762.076c.756,2.69,1.648,5.3,2.617,7.861l16.552-13.686L208.92,773.2a87.253,87.253,0,0,0,11.193,19.237c63.723-3.848,122.588-13.712,172.959-28.123q2.676-4.76,4.884-9.743c.892-2.022,1.7-4.068,2.462-6.124A109.811,109.811,0,0,0,407.21,714.1C407.293,711.906,407.29,709.742,407.245,707.593ZM300.024,776.608c-15.117.688-26.962-4.481-35.487-15.667-.363-.476-.7-.967-1.049-1.455-7.674-10.882-10.71-24.851-9.148-41.694q2.378-25.645,17.929-42.448c10.265-11.094,22.47-16.619,36.677-16.784q20.922-.241,34.036,15.707C351.814,684.978,355.79,698.5,354.841,715q-1.457,25.346-16.9,42.849c-.425.48-.859.938-1.291,1.4C326.489,770.125,314.264,775.961,300.024,776.608Z" transform="translate(-0.63 -113.024)" style="fill:#910000"/><path d="M500.675,454.078c-2.39,0-4.305,1.094-6.336,2.252a21.582,21.582,0,0,1-11.846,3.452,42.337,42.337,0,0,1-12.728-2.312c-10.947-3.525-15.942-5.134-20.023-5.134-4,0-6.5,1.525-9.972,3.635a97.967,97.967,0,0,1-12.48,6.563c-6.53,2.885-10.718,4.172-13.575,4.172-2.768,0-4.6-1.161-8.828-4.023a98.38,98.38,0,0,0-15.509-8.871c-7.184-3.268-12.718-4.791-17.416-4.791-6.356,0-10.523,2.719-14.938,5.6a58.078,58.078,0,0,1-10.463,5.733,18.689,18.689,0,0,1-7.129,1.421c-3.883,0-7.871-1.154-12.489-2.49-6.4-1.851-13.647-3.95-23.33-3.95a71.367,71.367,0,0,0-12.132,1.065,72.075,72.075,0,0,1-11.685,1.233c-6.541,0-7.845-1.628-10.994-5.56a42.274,42.274,0,0,0-11.563-10.628c-7.806-4.874-15.379-7.557-21.324-7.557a13.056,13.056,0,0,0-6.378,1.429,144.4,144.4,0,0,0,2.218,16.261,136.164,136.164,0,0,0,26.769,23.3l.223.149.24.12c4.932,2.447,9.167,5.733,15.035,14.533,9.451,14.174,15.444,50.222,17.413,62.068l.215,1.3c.229,1.371.485,2.818.754,4.329,1.973,11.145,4.676,26.407,1.1,40.694-2.619,10.469-2.3,26.61-2.052,39.58.165,8.471.321,16.471-.436,19.5-1.609,6.427-1.455,37.849-1.136,72.263.072,7.727.129,13.956.108,17.2a11.912,11.912,0,0,0,3.506,9.006c2.819,2.732,7.1,4.117,12.721,4.119h0a45.366,45.366,0,0,0,10.44-1.336l2.186-.581.671-2.087c.291-.9,7.282-23,21.084-96.684,12.027-64.208,26.662-86.55,39.575-106.262,2.181-3.33,4.242-6.476,6.3-9.814,15.884-25.749,43.641-41.941,58.771-49.3,6.494-3.159,15.78-6.763,24.762-10.249,25.982-10.085,36.716-14.8,38.239-20.891a5.777,5.777,0,0,0-1.406-5.406A8.2,8.2,0,0,0,500.675,454.078Z" transform="translate(-0.63 -113.024)" style="fill:#141414"/><path d="M515.591,701.921q5.881-4.407,7.2-12.6a263.366,263.366,0,0,1-25.216,18.14C505.477,706.813,511.505,704.983,515.591,701.921Z" transform="translate(-0.63 -113.024)" style="fill:none"/><path d="M118.351,721.216q3.788,1.767,7.593,3.452l-11.546-7.5Z" transform="translate(-0.63 -113.024)" style="fill:#720604"/><path d="M224.187,797.375A81,81,0,0,0,256.042,820a92.571,92.571,0,0,0,40.251,6.119,112.473,112.473,0,0,0,41.376-10.814A126.354,126.354,0,0,0,360.5,801.439l-8.444-19.588L365.5,797.445q4.239-3.578,8.219-7.561a121.046,121.046,0,0,0,19.35-25.571c-50.371,14.411-109.236,24.275-172.959,28.123C221.407,794.122,222.758,795.773,224.187,797.375Z" transform="translate(-0.63 -113.024)" style="fill:#a00400"/><path d="M573.5,688.354a77.587,77.587,0,0,0,.47-11.327,63.9,63.9,0,0,0-6.227-26.378,55.339,55.339,0,0,0-3.363-5.94c-.733,1.07-1.511,2.117-2.268,3.174a85.391,85.391,0,0,1-13.094,27.472Z" transform="translate(-0.63 -113.024)" style="fill:#a00400"/><path d="M532.389,732.152q21.067-4.625,31.711-18.792a47.357,47.357,0,0,0,7.867-16.685l-23.394-20.709c-21.131,29.659-62.406,55.859-117.452,76.013q-.817,31.529-1.635,63.065c1.415-.03,2.83-.046,4.245-.074l13.519-33.119-6.735,33q20-.359,40.006-.515.272-39.952.544-79.9,22.637,39.861,45.309,79.892,30.773.191,61.541.911Q560.134,773.3,532.389,732.152Z" transform="translate(-0.63 -113.024)" style="fill:#a00400"/><path d="M58.5,805.766l26.46-14.345Q72.8,790.5,60.9,789.288,59.7,797.523,58.5,805.766Z" transform="translate(-0.63 -113.024)" style="fill:#a00400"/><path d="M56.09,822.348c-1,6.865-1.992,13.7-2.987,20.589q26.389-3.367,52.814-6.339,2.9-21.826,5.8-43.519-12.712-.612-25.177-1.535Z" transform="translate(-0.63 -113.024)" style="fill:#a00400"/><path d="M548.573,675.966c.145-.2.305-.406.448-.611l-2.843-1.509Z" transform="translate(-0.63 -113.024)" style="fill:#720604"/><path d="M84.956,791.421c.529.041,1.056.084,1.586.123l2.093-2.117Z" transform="translate(-0.63 -113.024)" style="fill:#720604"/><path d="M562.115,647.883c.757-1.057,1.535-2.1,2.268-3.174a51.043,51.043,0,0,0-12.608-13.394A56.785,56.785,0,0,0,530.5,621.9q-12.243-2.792-43.212-2.789-26.361,0-52.722.013-.369,14.254-.739,28.522l27.852-2.69-28.071,11.138q-1.075,41.5-2.152,83.021l-.333,12.869c55.046-20.154,96.321-46.354,117.452-76.013l-2.395-2.12,2.843,1.509A85.391,85.391,0,0,0,562.115,647.883Zm-4.205,5.652.067-.086ZM548.53,664.8c.194-.218.392-.433.586-.651C548.923,664.371,548.724,664.586,548.53,664.8Zm4.858-5.629.265-.317Zm-37.8,42.746c-4.086,3.062-10.114,4.892-18.015,5.541-2.089.172-4.281.279-6.636.284q-4.848.008-9.693.023.17-25.041.34-50.083l10.273-.011q16.821-.01,23.99,5.945,7.2,5.973,7.341,20.223a32.065,32.065,0,0,1-.4,5.479q2.951-2.4,5.795-4.881-2.847,2.474-5.795,4.881Q521.461,697.5,515.591,701.921Zm15.69-19.893c.942-.845,1.9-1.684,2.82-2.54C533.177,680.345,532.223,681.183,531.281,682.028Zm6.321-5.881c.583-.565,1.178-1.122,1.754-1.691C538.78,675.025,538.185,675.582,537.6,676.147Zm6.755-6.8c-.353.373-.718.739-1.075,1.111C543.639,670.086,544,669.719,544.357,669.346Z" transform="translate(-0.63 -113.024)" style="fill:#910000"/><path d="M199.477,619.373q-72.582.127-145.158.316,12.529,22.619,25.043,44.625c-.76,5.083-1.519,10.208-2.279,15.3l11.552-5.772L75.2,692.278c-.251,1.692-.5,3.394-.755,5.088q-6.78,45.622-13.542,91.922,11.892,1.212,24.056,2.133l3.679-1.994-2.093,2.117q12.459.925,25.177,1.535,3.113-23.271,6.229-46.4,11.91-.776,23.824-1.5l-23.421-23.967L114.4,717.17l11.546,7.5,30.269,19.658q8.657-.509,17.312-1c-.024-.323-.028-.653-.05-.977a122.37,122.37,0,0,1,.47-21.307,128.527,128.527,0,0,1,4.6-22.926q-27.16.966-54.309,2.1,2.47-18.209,4.944-36.328,32.61-.768,65.231-1.4,1.451-12.357,2.9-24.662l-29.324,7.139L198.2,630.239C198.625,626.62,199.051,622.987,199.477,619.373Z" transform="translate(-0.63 -113.024)" style="fill:#910000"/><path d="M657.791,328.215c-1.647,3.214,75.586,157.251,75.586,157.251.443-1.211-.283-6.529-.631-8.045C732.245,475.236,659.463,324.951,657.791,328.215Z" transform="translate(-0.63 -113.024)" style="fill:#efefef"/><polygon points="615.006 466.454 625.874 466.467 621.975 442.779 615.006 466.454" style="fill:none"/><path d="M675.44,551.068l-6.11-.018-1.649,40.789,6.242,0q6.188,0,6.322-3.932l1.123-33.009Q681.5,551.084,675.44,551.068Z" transform="translate(-0.63 -113.024)" style="fill:none"/><path d="M815.986,551.478l-4.847-.014.543,15.989,3.177.006a22.275,22.275,0,0,0,3.949-.221q3.723-.882,3.617-3.569l-.332-8.389Q821.941,551.493,815.986,551.478Z" transform="translate(-0.63 -113.024)" style="fill:none"/><polygon points="939.818 466.861 950.278 466.874 942.656 443.624 939.818 466.861" style="fill:none"/><polygon points="581.665 487.125 590.326 487.125 590.99 478.774 584.643 478.771 581.665 487.125" style="fill:#e88900"/><path d="M633.053,543.023l-19.148-.065-12.634,36.589-6.236,20.6h14.522l3.7-12.41,14.6.011,2.038,12.4H644.41l-3.541-20.643Zm-17.416,36.455,6.968-23.675,3.9,23.688Z" transform="translate(-0.63 -113.024)" style="fill:#e88900"/><path d="M677.157,543.172l-21.41-.072-2.724,57.052H674.17q19.944-.029,20.262-12.232l.882-32.982Q695.628,543.241,677.157,543.172Zm3.088,44.738q-.135,3.933-6.322,3.932l-6.242,0,1.649-40.789,6.11.018q6.057.016,5.928,3.833Z" transform="translate(-0.63 -113.024)" style="fill:#e88900"/><polygon points="705.563 487.131 742.432 487.133 742.446 478.855 719.906 478.843 720.125 462.358 739.356 462.387 739.383 454.287 720.233 454.249 720.446 438.177 742.515 438.241 742.529 430.371 706.732 430.25 705.563 487.131" style="fill:#e88900"/><polygon points="767.014 478.868 766.486 430.452 752.742 430.406 752.95 487.133 789.615 487.135 789.43 478.88 767.014 478.868" style="fill:#e88900"/><path d="M817.1,543.645l-19.9-.067,1.514,56.581h14.079l-.837-24.641,2.258,0a52.735,52.735,0,0,0,9.247-.593q13.159-2.519,12.742-11.231l-.392-8.381Q835.267,543.713,817.1,543.645Zm1.709,23.593a22.275,22.275,0,0,1-3.949.221l-3.177-.006-.543-15.989,4.847.014q5.958.017,6.107,3.8l.332,8.389Q822.532,566.356,818.808,567.238Z" transform="translate(-0.63 -113.024)" style="fill:#e88900"/><polygon points="870.186 430.803 871.742 454.549 859.744 454.525 858.335 430.763 844.739 430.717 847.679 487.138 861.677 487.138 860.22 462.569 872.268 462.587 873.876 487.139 887.83 487.14 883.742 430.849 870.186 430.803" style="fill:#e88900"/><polygon points="896.415 430.892 900.876 487.14 914.786 487.141 909.928 430.937 896.415 430.892" style="fill:#e88900"/><path d="M964.735,579.915,951.255,544.1l-18.443-.062-6.176,35.916-2.631,20.212h13.971l1.533-12.174,14.051.01,3.985,12.165h13.964Zm-24.287-.031,2.838-23.236,7.622,23.25Z" transform="translate(-0.63 -113.024)" style="fill:#e88900"/><path d="M448.341,542.4l-20.776-.07-9.711,57.813h14.718l4.041-25.186,2.359,0a58.449,58.449,0,0,0,9.781-.6q14.253-2.572,15.552-11.473l1.259-8.562Q467.307,542.468,448.341,542.4Zm2.9,11.883-1.324,8.568q-.425,2.745-4.491,3.646a24.685,24.685,0,0,1-4.17.226l-3.319-.007,2.62-16.332,5.061.015Q451.839,550.415,451.24,554.281Z" transform="translate(-0.63 -113.024)" style="fill:#d87600"/><polygon points="500.695 453.816 488.165 453.791 491.416 429.522 477.223 429.474 469.068 487.12 483.699 487.12 487.063 462.009 499.648 462.028 496.45 487.121 511.034 487.122 517.936 429.612 503.787 429.564 500.695 453.816" style="fill:#d87600"/><polygon points="524.668 487.122 539.205 487.123 545.269 429.704 531.164 429.657 524.668 487.122" style="fill:#d87600"/><polygon points="568.047 478.762 572.515 429.797 558.455 429.749 552.795 487.124 581.665 487.125 584.643 478.771 568.047 478.762" style="fill:#d87600"/><path d="M503.709,459.74c-6.175-6.851-8.361,10.182-35.26,1.519s-16.554-5.2-39.429,4.9-18.673,1.606-41.413-8.74-22.808-.12-39.441,6.61-26.9-8.664-55.961-3.7-20.7-5.223-37.221-15.536c-14.869-9.283-25.88-8.356-25.428-2.311A129.136,129.136,0,0,0,260.888,471.6c5.3,2.629,10.157,6.229,16.623,15.925,10.266,15.394,16.239,52.945,18.234,64.887S301.8,581.982,297.537,599s-.359,50.568-2.489,59.079-.822,76.911-.912,90.546,21.416,5.918,21.416,5.918,7.049-21.918,20.965-96.212c14.125-75.409,31.72-93.622,46.392-117.407s39.665-40.709,60.467-50.826S509.884,466.59,503.709,459.74Z" transform="translate(-0.63 -113.024)" style="fill:url(#e2f79512-d7f5-4b04-8b05-73e418469f44)"/><path d="M342.273,738.97c-1.532-.448-3.05-.86-4.192-1.09-3.542-.712-8.894-3.7-9.658,0-.327,1.579-2.2,1.836-4.432,1.389a17.276,17.276,0,0,1-3.288-1.043,19.043,19.043,0,0,1-2.828-1.479,9.61,9.61,0,0,1-2.014-1.645,2.393,2.393,0,0,0-.479-.427c-2.06-1.379-4.751,2.478-8.437,4.927a12.033,12.033,0,0,1-2.739,1.4,6.9,6.9,0,0,1-3.645.224c-3.642-.71-6.437-3.772-8.4-2.264-2.576,1.977-7.213,3.374-10.82,0s-7.213-1.977-10.305-.371a5.942,5.942,0,0,1-3.66.178c-1.044-.185-2.141-.469-3.2-.7-2.11-.464-4.045-.709-4.994.523l-.042.051a46.74,46.74,0,0,0,8.526,19.721c7.092,9.308,16.558,13.908,28.875,14.116.289,0,.56.04.853.04q1.212,0,2.455-.057a50.218,50.218,0,0,0,5.865-.62,47.262,47.262,0,0,0,5.809-1.326,46.206,46.206,0,0,0,5.3-1.922A51.85,51.85,0,0,0,335,755.046a61.568,61.568,0,0,0,9.912-15.28C344.071,739.5,343.17,739.233,342.273,738.97Z" transform="translate(-0.63 -113.024)" style="fill:url(#b068eeae-09a5-42fc-9224-f645955c2b81)"/><path d="M286.16,736.709s1.521-4.18-7.6-6S286.16,736.709,286.16,736.709Z" transform="translate(-0.63 -113.024)" style="fill:url(#e75d1faa-44a7-46b7-87de-a16cafca9567)"/><path d="M287.924,731.364s1.385-5.6-1.949-8.3C282.789,720.477,287.924,731.364,287.924,731.364Z" transform="translate(-0.63 -113.024)" style="fill:url(#ebc72859-995c-4f7c-b496-2a8beb208ba2)"/><path d="M328.48,732.966s-1.27-3.208,4.43-4.991C338.356,726.271,328.48,732.966,328.48,732.966Z" transform="translate(-0.63 -113.024)" style="fill:url(#b865a127-5da2-40eb-96c9-46fd7541d7c5)"/></svg>