<?xml version="1.0" encoding="utf-8"?>
<!-- Generator: Adobe Illustrator 24.1.2, SVG Export Plug-In . SVG Version: 6.00 Build 0)  -->
<svg version="1.1" id="Layer_1" xmlns="http://www.w3.org/2000/svg" xmlns:xlink="http://www.w3.org/1999/xlink" x="0px" y="0px"
	 viewBox="0 0 1000 1000" style="enable-background:new 0 0 1000 1000;" xml:space="preserve">
<path style="fill:#EFEFEF;" d="M69.56,654.596l78.127-601.529l10.235-1.611C169.466,49.642,441.387,7,507.502,7
	c66.221,0,314.735,42.673,325.283,44.49l9.896,1.705l87.339,601.102L510.608,993L69.56,654.596z"/>
<path style="fill:#141414;" d="M830.338,64.61c0,0-257.086-44.284-322.835-44.284S160.163,64.61,160.163,64.61l-75.88,584.229
	l34.431,26.418l44.717,34.311l346.951,266.208l340.838-275.248l20.392-16.468l43.613-35.22L830.338,64.61z"/>
<path style="fill:#A00400;" d="M505.757,57.078c-40.725,0.235-191.195,22.34-304.185,40.511l-46.236,435.247l56.306-16.918
	L245.82,129.52c116.396-18.505,230.428-34.404,260.271-34.577c28.527-0.165,132.707,14.19,236.564,30.802l44.764,387.407
	l56.924,17.417L786.081,93.743C683.013,76.943,545.937,56.846,505.757,57.078z"/>
<polygon style="fill:#A00400;" points="508.269,814.946 289.65,654.785 288.151,654.832 226.817,681.75 509.301,893.485 
	791.281,671.139 732.413,642.276 "/>
<g>
	<path style="fill:#E88900;" d="M706.208,344.702l-5.502-35.663c-0.934-6.055-2.648-11.903-4.995-17.498
		c-13.053-31.116-46.623-54.444-84.668-59.102c-4.687-0.574-9.454-0.873-14.279-0.87l-101.405,0.077
		c-2.945-5.65-9.842-9.652-17.879-9.714c-8.164-0.063-15.165,3.952-18.036,9.7l-0.006,0.396l-130.22,0.099
		c-25.627,0.019-25.627,0.019-27.794,20.871c-2.229,21.442-2.229,21.442,24.124,21.426l137.31-1.112l-0.314,76.296l-70.6,0.034
		c-24.872,0.013-24.872,0.013-26.117,21.272l0,0c-1.28,21.843-1.28,21.843,24.276,21.834l70.706-0.024l0.139,53.432l76.191-0.458
		l0.003-11.21l58.011,0.342l20.438-0.002c9.12-0.001,18.089-1.089,26.639-3.229c0.003-0.001,0.003-0.001,0.005-0.001
		c35.991-9.011,60.031-35.061,64.2-65.928C707.352,358.86,707.308,351.83,706.208,344.702z M610.704,382.101l-76.661,0.042
		l-4.919-107.137l71.655-0.063c22.278-0.014,42.316,15.157,44.573,34.125l4.244,35.656
		C652.017,365.061,634.539,382.094,610.704,382.101z"/>
	<path style="fill:#E88900;" d="M701.031,345.503l-5.502-35.667c-0.84-5.445-2.403-10.918-4.647-16.27
		c-12.379-29.505-43.967-51.46-80.475-55.929c-4.529-0.554-9.119-0.835-13.64-0.831l-104.584,0.081l-1.469-2.82
		c-2.127-4.079-7.463-6.851-13.536-6.898c-5.335,0.031-10.209,2.355-12.518,5.88l-0.059,4.212c0,0-138.983,0.108-140.589,0.117
		c-6.775,0.039-12.984,0.2-14.542,1.728c-1.493,1.464-2.057,6.904-2.841,14.434c-0.643,6.192-1.374,13.211-0.403,14.287
		c1.237,1.371,10.427,1.364,19.315,1.359l138.526-0.085l-0.178,10.865l1.493-0.009l1.256,41.868l24.43,17.809l35.818,0.81
		l-3.244-70.67l77.134-0.07c24.903-0.016,47.234,17.366,49.776,38.745l4.152,34.884l31.162,0.704l0.318,55.071
		c8.064-9.774,13.335-21.39,15.057-34.142C702.108,358.564,702.037,352.015,701.031,345.503z"/>
	<path style="fill:#141414;" d="M665.249,193.971l-356.134-1.319l-2.888,75.176c3.863,3.182,160.775,0.1,160.775,0.1l1.242,53.181
		l-97.903,0.566l-0.691,58.518l0.022,3.775c0.083,1.589,0.28,2.751,0.675,3.17c0.387,0.411,1.386,0.699,2.807,0.906l88.83,0.516
		l0.005,54.279l76.092-0.449l-0.01-13.144l57.079,0.349l21.082-0.004c8.293-0.048,16.451-1.041,24.258-2.953l0.471-0.12
		c18.913-4.733,62.655-24.969,66.15-65.535l2.065-61.594L665.249,193.971z"/>
	<polygon style="fill:#141414;" points="530.888,612.043 470.425,612.393 479.765,401.624 519.312,401.396 	"/>
	<g>
		<polygon style="fill:#E88900;" points="482.28,588.468 501.083,556.487 520.362,587.985 		"/>
		<polygon style="fill:#E88900;" points="513.96,547.971 500.78,528.524 487.879,548.302 479.905,560.525 478.889,577.286 
			496.935,548.187 500.9,541.794 504.956,548.085 524.005,577.629 522.539,560.631 		"/>
		<polygon style="fill:#E88900;" points="512.396,521.568 500.489,505.549 488.794,521.867 481.645,531.844 480.824,545.379 
			496.99,521.763 500.584,516.513 504.248,521.671 521.244,545.601 520.061,531.881 		"/>
		<polygon style="fill:#E88900;" points="511.103,499.75 500.245,486.327 489.551,500.023 483.072,508.321 482.395,519.479 
			497.035,499.928 500.323,495.538 503.663,499.844 519.004,519.617 518.03,508.312 		"/>
		<polygon style="fill:#E88900;" points="510.017,481.417 500.039,470.009 490.187,481.669 484.263,488.679 483.695,498.036 
			497.073,481.581 500.102,477.856 503.172,481.504 517.151,498.115 516.334,488.638 		"/>
		<polygon style="fill:#E88900;" points="509.092,465.797 499.861,455.983 490.729,466.03 485.273,472.032 484.79,479.991 
			497.105,465.949 499.913,462.748 502.753,465.877 515.592,480.027 514.897,471.969 		"/>
		<polygon style="fill:#E88900;" points="499.75,449.689 514.262,464.599 513.664,457.663 499.707,443.797 486.139,457.743 
			485.724,464.595 		"/>
		<polygon style="fill:#E88900;" points="513.114,451.286 512.594,445.253 510.881,443.656 505.258,443.727 		"/>
		<polygon style="fill:#E88900;" points="486.891,445.344 486.53,451.305 494.001,443.87 488.345,443.941 		"/>
	</g>
	<polygon style="fill:#E88900;" points="541.95,664.786 523.214,594.035 480.683,594.574 464.51,663.828 503.146,674.924 	"/>
	<polygon style="fill:#E88900;" points="504.484,702.119 545.576,690.161 545.16,686.113 503.489,696.875 461.699,685.415 
		461.389,689.669 	"/>
	<path style="fill:#E88900;" d="M709.889,277.954l-5.502-35.663c-0.934-6.055-2.648-11.903-4.995-17.498
		c-13.053-31.116-46.623-54.444-84.668-59.102c-4.687-0.574-9.454-0.873-14.28-0.87l-267.548,0.559
		c-25.627,0.019-25.627,0.019-27.794,20.871c-2.229,21.442-2.229,21.442,24.124,21.426l133.199-0.083l-0.272,83.5l-67.512,0.04
		c-24.872,0.013-24.872,0.013-26.117,21.272c-1.279,21.843-1.28,21.843,24.276,21.834l68.648-0.03l0.591,48.752l74.733-0.432
		l-0.086-14.814l62.145,0.367l20.438-0.002c9.12-0.001,18.089-1.089,26.639-3.229c0.003-0.001,0.003-0.001,0.005-0.001
		c35.991-9.011,60.031-35.061,64.2-65.928C711.033,292.113,710.989,285.083,709.889,277.954z M614.385,315.353l-76.661,0.042
		l-4.919-107.137l71.655-0.063c22.278-0.014,42.316,15.157,44.573,34.125l4.244,35.656
		C655.698,298.313,638.22,315.347,614.385,315.353z"/>
	<path style="fill:#E88900;" d="M523.028,170.99l0-0.006l-8.242-0.001c-2.945-5.65-9.842-9.651-17.879-9.714
		c-8.164-0.063-15.165,3.952-18.036,9.7l-7.63,0.031l0.002,0.29L523.028,170.99z"/>
	<polygon style="fill:#E88900;" points="486.901,439.526 512.34,439.285 510.083,409.828 487.962,409.828 	"/>
</g>
</svg>
