<?xml version="1.0" encoding="utf-8"?>
<!-- Generator: Adobe Illustrator 24.1.0, SVG Export Plug-In . SVG Version: 6.00 Build 0)  -->
<svg version="1.1" id="Layer_1" xmlns="http://www.w3.org/2000/svg" xmlns:xlink="http://www.w3.org/1999/xlink" x="0px" y="0px"
	 viewBox="0 0 200 200" style="enable-background:new 0 0 200 200;" xml:space="preserve">
<g>
	<path style="fill:#FEFEFE;" d="M192.923,82.117c-2.504-4.511-5.336-8.739-9.431-11.986c-0.286-0.227-0.275-0.528-0.228-0.813
		c0.311-1.896,0.319-3.816,0.344-5.722c0.047-3.538-0.196-7.065-0.52-10.593c-0.249-2.715-0.61-5.409-1.109-8.078
		c-0.541-2.894-1.237-5.764-2.316-8.521c-0.135-0.345-0.162-0.655,0.212-0.928c0.634-0.462,1.234-0.972,1.843-1.468
		c2.214-1.803,4.429-3.604,6.634-5.418c0.2-0.164,0.529-0.321,0.016-0.637c-3.065-1.891-5.943-4.076-9.123-5.788
		c-4.184-2.205-8.663-3.246-13.37-3.387c-0.83-0.123-1.659-0.124-2.489,0c-0.674-0.052-1.367,0.145-1.992-0.341
		c-2.264-1.76-4.746-3.175-7.286-4.486c-1.9-0.98-3.846-1.864-5.863-2.588c-0.322-0.116-0.768-0.173-0.468-0.802
		c0.851-1.78,1.627-3.597,2.42-5.404c0.753-1.715,1.49-3.437,2.234-5.156c-0.467,0-0.933,0-1.4,0
		c-3.099,0.343-6.209,0.55-9.306,0.953c-4.117,0.536-8.012,1.648-11.622,3.705c-0.495,0.282-0.959,0.375-1.519,0.208
		c-0.828-0.247-1.662-0.478-2.508-0.668c-3.773-0.845-7.581-1.386-11.445-1.651c-4.893-0.335-9.707-0.142-14.41,1.374
		c-0.451,0.145-0.887,0.196-1.364,0.039c-5.326-1.756-10.801-1.808-16.302-1.319C78.472,3.005,74.433,3.67,70.49,4.825
		c-0.579,0.17-1.085,0.117-1.629-0.161c-1.185-0.606-2.365-1.222-3.602-1.729c-4.003-1.638-8.258-2.004-12.482-2.527
		c-1.644-0.203-3.313-0.101-4.949-0.406c-0.4,0-0.8,0-1.2,0c0.302,1.3,0.997,2.437,1.521,3.644c1.076,2.48,2.2,4.94,3.3,7.4
		c-1.812,0.761-3.62,1.336-5.255,2.305c0,0,0,0,0,0c0,0,0,0,0,0c-2.449,1.02-4.697,2.395-6.915,3.837
		c-1.159,0.753-2.16,1.971-3.806,1.594c-0.83-0.128-1.661-0.128-2.491,0c-0.793-0.019-1.574,0.092-2.362,0.168
		c-3.814,0.367-7.418,1.433-10.828,3.144c-3.2,1.606-5.964,3.918-9.06,5.698c-0.455,0.262-0.339,0.576,0.005,0.861
		c0.956,0.791,1.908,1.586,2.868,2.372c1.818,1.489,3.715,2.883,5.419,4.509c0.307,0.293,0.406,0.497,0.23,0.99
		c-1.74,4.88-2.616,9.958-3.229,15.077c-0.293,2.445-0.492,4.912-0.45,7.386c-0.105,0.678-0.022,1.36-0.048,2.04
		c0,1.054,0,2.108,0,3.162c0.032,0.676-0.067,1.356,0.057,2.029c0.098,0.981-0.107,1.981,0.172,2.951
		c0.117,0.407-0.068,0.682-0.369,0.936c-1.356,1.148-2.627,2.373-3.777,3.742c-1.595,1.9-2.996,3.921-4.243,6.058
		c-2.51,4.301-5.027,8.598-7.541,12.896c0,0.133,0,0.267,0,0.4c0.412,0.028,0.732-0.242,1.103-0.343
		c4.679-1.27,9.36-2.531,14.036-3.811c0.743-0.203,0.969,0.137,1.06,0.791c0.683,4.925,2.053,9.68,3.57,14.4
		c1.919,5.97,4.267,11.771,6.863,17.476c0.122,0.268,0.361,0.596,0.294,0.82c-0.403,1.328-0.659,2.71-1.471,3.895
		c-0.816,1.19-2.029,2.005-2.899,3.12c-1.285,1.647-2.927,2.953-4.215,4.589c-0.18,0.228-0.58,0.417-0.43,0.703
		c0.12,0.229,0.513,0.278,0.835,0.342c2.27,0.449,4.529,0.947,6.794,1.42c1.809,0.377,3.58,0.949,5.443,1.045
		c0.745,0.09,1.491,0.074,2.236,0.009c1.537-0.029,3.019-0.371,4.451-0.894c0.414-0.151,0.663-0.142,0.941,0.175
		c0.825,0.94,1.811,1.706,2.756,2.516l0,0c5.013,4.899,10.49,9.214,16.394,12.989c0.265,0.281,0.119,0.627,0.135,0.941
		c0.056,1.148-0.078,2.3,0.074,3.447c0.033,3.148,0.684,6.198,1.386,9.25c1.376,5.975,3.474,11.693,6.209,17.158
		c2.15,4.296,4.528,8.479,6.835,12.697c0.675,1.235,1.186,2.574,2.133,3.739c0.257-0.915,0.479-1.724,0.711-2.531
		c1.297-4.525,2.612-9.045,3.879-13.579c0.26-0.932,0.639-0.774,1.192-0.314c1.3,1.081,2.728,1.992,3.99,3.132
		c1.595,1.441,3.32,2.738,4.935,4.158c1.263,1.112,2.398,2.37,3.67,3.47c2.128,1.842,4.136,3.79,5.893,5.992c0.133,0,0.267,0,0.4,0
		c0.056-0.08,0.101-0.171,0.168-0.24c4.503-4.625,9.195-9.049,14.178-13.156c1.676-1.381,3.36-2.76,5.348-4.068
		c1.546,5.428,3.05,10.711,4.608,16.18c0.833-1.374,1.58-2.584,2.306-3.807c3.427-5.774,7.193-11.354,9.889-17.545
		c3.143-7.217,5.591-14.62,5.777-22.565c0.043-1.856,0.682-2.809,2.192-3.8c6.023-3.949,11.52-8.569,16.543-13.737
		c0.558-0.574,1.044-0.725,1.802-0.459c2.353,0.825,4.822,1.143,7.254,0.711c3.84-0.682,7.631-1.638,11.452-2.436
		c0.865-0.181,0.816-0.411,0.282-0.974c-1.958-2.067-3.8-4.252-5.851-6.22c-1.446-1.388-2.122-3.039-2.558-4.895
		c-0.099-0.42-0.084-0.778,0.094-1.142c1.028-2.098,1.906-4.262,2.814-6.413c1.795-4.254,3.342-8.598,4.717-13.003
		c1.327-4.248,2.394-8.562,3.056-12.969c0.083-0.55,0.242-0.654,0.807-0.494c3.728,1.055,7.464,2.082,11.209,3.071
		c1.365,0.36,2.671,1.003,4.132,0.95C197.136,89.371,194.958,85.784,192.923,82.117z M190.112,86.223
		c-0.413,0.028-0.786-0.142-1.168-0.243c-2.704-0.712-5.367-1.6-8.154-1.968c-1.169-0.155-1.458,0.08-1.539,1.225
		c-0.158,2.23-0.496,4.436-0.939,6.622c-1.873,9.225-5.105,18.001-8.942,26.563c-1.709,3.812-1.766,3.771-0.462,7.773
		c0.496,1.521,1.189,2.883,2.403,3.962c0.547,0.486,0.947,1.117,1.452,1.649c0.288,0.304,0.244,0.526-0.19,0.621
		c-2.595,0.571-5.16,1.391-7.878,0.774c-1.272-0.289-2.507-0.689-3.718-1.157c-0.821-0.317-1.472-0.172-2.085,0.445
		c-1.385,1.395-2.822,2.734-4.253,4.081c-5.039,4.74-10.426,9.023-16.294,12.694c-1.418,0.887-1.491,1.037-1.221,2.674
		c0.304,1.1,0.294,2.203,0.019,3.308c-1.142,11.984-5.798,22.627-12.397,32.755c-0.585-1.722-0.93-3.281-1.38-4.809
		c-0.542-1.841-1.354-3.545-2.532-5.064c-0.823-1.062-1.291-1.174-2.466-0.482c-1.55,0.914-3.024,1.943-4.456,3.038
		c-4.956,3.788-9.518,8.027-14.072,12.276c-0.914,0.853-0.916,0.841-1.84-0.019c-3.706-3.448-7.397-6.912-11.333-10.102
		c-2.279-1.847-4.59-3.652-7.114-5.157c-1.24-0.74-1.683-0.643-2.519,0.502c-1.048,1.436-1.846,3.009-2.363,4.712
		c-0.549,1.808-1.012,3.642-1.626,5.581c-0.793-1.393-1.474-2.677-2.172-3.953c-3.604-6.587-6.276-13.522-7.876-20.868
		c-0.864-3.965-1.153-7.973-0.968-12.013c0.05-1.082-0.3-1.792-1.244-2.258c-0.208-0.103-0.392-0.251-0.59-0.375
		c-4.526-2.84-8.727-6.107-12.771-9.593c-1.1-0.949-1.981-2.177-3.364-2.784c0.061-0.418-0.246-0.693-0.528-0.928
		c-1.257-1.049-2.376-2.239-3.523-3.399c-0.51-0.515-1.063-0.622-1.729-0.381c-0.783,0.283-1.57,0.561-2.373,0.782
		c-1.609,0.441-3.227,0.851-4.918,0.62c-1.354-0.185-2.676-0.541-4.014-0.809c-0.28-0.056-0.675-0.025-0.783-0.345
		c-0.113-0.334,0.24-0.526,0.451-0.708c2.347-2.025,3.593-4.63,4.26-7.619c0.302-1.356,0.186-2.534-0.393-3.763
		c-2.645-5.612-4.919-11.373-6.826-17.277c-1.856-5.749-3.319-11.586-3.867-17.624c-0.099-1.087-0.487-1.408-1.573-1.268
		c-1.755,0.227-3.461,0.683-5.167,1.141c-1.358,0.365-2.698,0.818-4.182,1.074c0.384-0.86,0.812-1.537,1.188-2.24
		c2.363-4.422,5.24-8.428,9.343-11.428c0.711-0.519,0.844-1.241,0.726-2.047c-0.169-1.154-0.275-2.322-0.3-3.478
		c-0.128-5.729-0.054-11.452,0.776-17.141c0.665-4.559,1.56-9.059,3.335-13.339c0.648-1.563,0.559-1.913-0.704-3.019
		c-1.629-1.427-3.259-2.851-4.956-4.196c-0.594-0.471-0.532-0.774,0.063-1.197c5.469-3.888,11.556-5.454,18.213-4.888
		c1.039,0.088,1.96-0.061,2.815-0.724c2.695-2.09,5.606-3.835,8.679-5.313c0.385-0.185,0.811-0.33,1.018-0.76
		c-0.023-0.061-0.049-0.12-0.075-0.18c0.024,0.019,0.048,0.038,0.073,0.056c0.442,0.278,0.842,0.032,1.231-0.127
		c1.758-0.721,3.543-1.363,5.361-1.916c1.396-0.425,1.623-0.889,0.977-2.19c-0.86-1.732-1.605-3.514-2.405-5.272
		c-0.187-0.411-0.467-0.809-0.395-1.292c0.109-0.069,0.209-0.09,0.308-0.08c4.784,0.445,9.45,1.287,13.487,4.146
		c0.841,0.596,1.684,0.692,2.638,0.334c0.935-0.35,1.896-0.626,2.868-0.863c4.086-0.995,8.229-1.601,12.422-1.864
		c1.591-0.316,3.182-0.342,4.771,0.024c2.844,0.277,5.667,0.643,8.317,1.813c0.579,0.256,1.165,0.165,1.743-0.062
		c0.864-0.339,1.73-0.669,2.63-0.91c2.161-0.578,4.37-0.751,6.591-0.843c0.909-0.296,1.82-0.311,2.733-0.017
		c0.961,0.154,1.935,0.009,2.895,0.108c4.611,0.478,9.189,1.145,13.599,2.647c0.9,0.306,1.672,0.209,2.444-0.353
		c0.942-0.686,1.949-1.271,3.011-1.769c3.098-1.452,6.419-1.953,9.767-2.345c0.371-0.043,0.766-0.188,1.218,0.04
		c-0.833,2.124-1.79,4.136-2.729,6.153c-0.896,1.924-0.854,2.132,1.145,2.752c5.165,1.602,10.015,3.878,14.393,7.044
		c1.671,1.209,3.226,1.842,5.378,1.679c4.057-0.308,8.021,0.491,11.816,2.019c0.383,0.154,0.782,0.364,1.2,0.156
		c0.013,0.034,0.028,0.067,0.046,0.1c0.183,0.296,0.468,0.473,0.765,0.625c1.162,0.593,2.18,1.417,3.309,2.059
		c0.671,0.382,0.655,0.75,0.089,1.197c-0.157,0.124-0.314,0.247-0.47,0.373c-1.685,1.361-3.349,2.746-4.916,4.245
		c-0.612,0.586-0.846,1.221-0.481,2.062c1.968,4.536,2.91,9.337,3.583,14.2c0.48,3.464,0.784,6.945,0.895,10.44
		c0.31,1.428,0.313,2.857,0.008,4.289c-0.115,1.928-0.181,3.857-0.456,5.772c-0.126,0.882,0.281,1.514,0.992,2.034
		c1.894,1.384,3.516,3.054,4.997,4.868c2.057,2.519,3.56,5.387,5.182,8.181C190.137,85.842,190.314,86.018,190.112,86.223z"/>
	<path style="fill:#360854;" d="M49.091,16.236c2.296-1.002,4.633-1.901,7.051-2.553c0.704-0.19,0.75-0.401,0.47-0.994
		c-1.213-2.564-2.392-5.143-3.604-7.763c0.732-0.306,1.365,0.056,1.972,0.127c3.191,0.373,6.362,0.868,9.351,2.169
		c1.474,0.642,2.823,1.478,4.141,2.371c0.353,0.239,0.617,0.269,0.992,0.134c3.706-1.332,7.545-2.044,11.444-2.52
		c1.502-0.183,3.001-0.356,4.512-0.422c1.674-0.142,3.348-0.126,5.022-0.005c2.925,0.247,5.825,0.614,8.51,1.912
		c0.294,0.142,0.57,0.214,0.842,0.081c3.105-1.526,6.428-1.945,9.832-1.972c0.936-0.157,1.871-0.165,2.806,0.004
		c5.877,0.092,11.605,1.056,17.177,2.932c0.334,0.112,0.611,0.151,0.921-0.089c3.272-2.526,7.019-3.775,11.094-4.26
		c1.219-0.145,2.459-0.272,3.668-0.548c0.211-0.048,0.442-0.007,0.785-0.007c-1.236,2.68-2.419,5.262-3.62,7.835
		c-0.25,0.535-0.428,0.787,0.424,1.038c6.045,1.784,11.686,4.452,16.707,8.279c1.077,0.821,1.995,0.753,3.165,0.687
		c3.283-0.185,6.532,0.147,9.722,1.022c1.427,0.392,2.753,1.037,4.156,1.482c1.727,0.901,3.309,2.039,4.972,3.044
		c0.487,0.294,0.415,0.341,0.015,0.69c-2.101,1.832-4.346,3.498-6.328,5.47c-0.407,0.405-0.467,0.684-0.198,1.237
		c1.334,2.732,2.077,5.668,2.702,8.622c0.497,2.346,0.929,4.716,1.195,7.097c0.337,3.009,0.651,6.028,0.677,9.063
		c0.101,1.536,0.113,3.072-0.006,4.607c0.01,2.052-0.298,4.081-0.441,6.122c-0.026,0.377,0.016,0.667,0.391,0.926
		c3.63,2.501,6.317,5.843,8.512,9.618c0.969,1.666,1.939,3.332,2.959,5.083c-1.198,0.091-2.167-0.39-3.141-0.667
		c-2.571-0.731-5.144-1.414-7.783-1.857c-0.52-0.087-0.542,0.109-0.561,0.5c-0.25,5.006-1.397,9.839-2.778,14.634
		c-2.182,7.573-5.045,14.884-8.405,22.005c-0.161,0.34-0.265,0.699-0.184,1.052c0.206,0.89,0.517,1.759,0.686,2.655
		c0.485,2.56,2.099,4.402,3.828,6.181c0.365,0.375,0.732,0.747,1.225,1.249c-2.783,0.527-5.325,1.508-8.054,1.252
		c-1.798-0.169-3.519-0.722-5.174-1.429c-0.599-0.256-0.968-0.217-1.439,0.252c-1.904,1.894-3.8,3.801-5.795,5.597
		c-4.389,3.95-9.027,7.588-13.969,10.832c-0.354,0.232-0.742,0.499-1.092,0.623c-1.154,0.408-1.381,1.116-1.001,2.168
		c0.138,1.201,0.138,2.403,0,3.604c-0.496,6.699-2.422,13.009-4.992,19.184c-2.04,4.904-4.816,9.382-7.497,13.924
		c-0.064,0.108-0.174,0.188-0.371,0.396c-0.531-1.885-1.054-3.659-1.528-5.445c-0.553-2.085-1.577-3.919-2.859-5.631
		c-0.308-0.412-0.591-0.499-1.067-0.219c-2.02,1.188-3.961,2.486-5.771,3.974c-2.419,1.989-4.863,3.951-7.226,6.005
		c-1.597,1.389-3.069,2.921-4.607,4.379c-0.693,0.657-1.427,1.271-2.112,1.936c-0.381,0.37-0.644,0.299-1.004-0.038
		c-2.595-2.425-5.151-4.898-7.827-7.231c-3.677-3.204-7.365-6.407-11.606-8.886c-0.692-0.404-0.973-0.285-1.475,0.358
		c-2.09,2.679-2.742,5.912-3.688,9.037c-0.214,0.708-0.41,1.421-0.653,2.267c-1.836-3.316-3.668-6.49-5.175-9.833
		c-1.972-4.374-3.657-8.855-4.789-13.529c-0.616-2.545-1.086-5.109-1.373-7.72c-0.274-2.494-0.135-4.979-0.14-7.467
		c-0.001-0.386-0.029-0.548-0.366-0.753c-4.52-2.751-8.769-5.87-12.791-9.314c-1.527-1.307-2.971-2.704-4.512-3.993
		c-1.527-1.524-3.071-3.032-4.569-4.583c-0.362-0.375-0.612-0.097-0.88,0.001c-2.274,0.832-4.557,1.673-7.026,1.527
		c-2.138-0.127-4.18-0.805-6.413-1.256c0.643-0.68,1.136-1.31,1.734-1.815c2.008-1.698,2.887-3.979,3.58-6.42
		c0.432-1.521,0.285-2.826-0.386-4.265c-3.952-8.48-7.202-17.218-9.291-26.356c-0.642-2.811-1.172-5.652-1.29-8.539
		c-0.036-0.877-0.343-0.966-1.083-0.845c-3.252,0.533-6.379,1.556-9.555,2.39c-0.223,0.059-0.43,0.181-0.777,0.076
		c1.053-1.859,2.075-3.707,3.138-5.532c1.674-2.875,3.797-5.392,6.242-7.638c0.504-0.463,1.063-0.889,1.653-1.233
		c0.695-0.405,0.88-0.92,0.763-1.696c-0.558-3.691-0.402-7.41-0.386-11.123c0.012-2.844,0.242-5.683,0.62-8.492
		c0.712-5.287,1.626-10.544,3.891-15.448c0.209-0.453,0.225-0.801-0.214-1.185c-2.015-1.761-3.994-3.567-6.133-5.175
		c-0.672-0.505-0.609-0.676,0.041-1.151c3.384-2.474,7.101-4.148,11.235-4.87c2.53-0.441,5.065-0.862,7.639-0.343
		c1.334,0.269,2.274-0.431,3.268-1.181C42.692,19.485,45.827,17.745,49.091,16.236z"/>
	<path style="fill:#D3AE37;" d="M141.498,8.297c-1.163,2.381-2.169,4.515-3.251,6.61c-0.353,0.684-0.294,0.815,0.491,0.911
		c3.777,0.463,7.27,1.871,10.693,3.441c3.646,1.673,7.075,3.715,10.094,6.385c0.351,0.311,0.649,0.315,1.075,0.25
		c5.564-0.854,10.869-0.055,15.905,2.501c0.689,0.35,0.834,0.564,0.156,1.113c-1.682,1.364-3.262,2.846-4.791,4.381
		c-0.31,0.311-0.602,0.549-0.294,1.093c2.473,4.364,3.484,9.184,4.235,14.064c0.992,6.44,1.305,12.918,0.815,19.423
		c-0.102,1.36-0.219,2.726-0.458,4.066c-0.121,0.676,0.107,0.918,0.637,1.209c3.579,1.965,6.048,5.026,8.388,8.546
		c-1.624-0.287-3.03-0.566-4.446-0.776c-1.019-0.151-2.053-0.207-3.079-0.311c-0.481-0.049-0.728,0.079-0.73,0.641
		c-0.034,8.596-2.529,16.666-5.352,24.654c-1.752,4.958-3.793,9.803-6.082,14.541c-0.198,0.409-0.253,0.78-0.161,1.238
		c0.303,1.503,0.652,2.992,1.106,4.455c0.443,1.427,1.01,2.803,1.933,4.113c-1.288,0.336-2.455,0.101-3.609-0.156
		c-1.598-0.356-3.134-0.917-4.571-1.697c-0.662-0.36-1.042-0.323-1.589,0.257c-6.288,6.662-13.145,12.658-20.888,17.596
		c-0.982,0.626-1.994,1.206-3,1.794c-0.306,0.179-0.532,0.346-0.462,0.771c0.926,5.593-0.046,11.009-1.61,16.353
		c-1.547,5.289-3.737,10.315-6.408,15.132c-0.16,0.289-0.335,0.569-0.504,0.855c-0.428-0.077-0.379-0.457-0.474-0.697
		c-0.931-2.354-2.298-4.419-4.011-6.275c-0.549-0.595-1.049-0.739-1.823-0.388c-2.788,1.262-5.225,3.06-7.623,4.912
		c-4.196,3.241-8.16,6.755-11.955,10.451c-0.791,0.77-1.136,0.567-1.797-0.062c-4.825-4.599-9.786-9.043-15.272-12.857
		c-1.423-0.989-2.911-1.868-4.515-2.543c-0.522-0.22-0.877-0.156-1.305,0.27c-1.846,1.839-3.236,3.964-4.198,6.378
		c-0.098,0.247-0.195,0.495-0.3,0.739c-0.024,0.055-0.079,0.097-0.165,0.198c-1.824-3.459-3.304-7.014-4.559-10.663
		c-1.937-5.633-3.28-11.384-3.281-17.383c0-1.332,0.101-2.663,0.339-3.976c0.112-0.62,0.001-1-0.623-1.359
		c-8.819-5.086-16.445-11.657-23.427-19.006c-0.693-0.73-1.14-0.851-2.056-0.388c-2.175,1.101-4.465,1.914-6.963,1.904
		c-0.725-0.003-1.05-0.041-0.527-0.9c1.513-2.487,2.06-5.315,2.632-8.122c0.088-0.431-0.144-0.769-0.312-1.129
		c-4.06-8.701-7.573-17.601-9.786-26.97c-0.92-3.896-1.605-7.832-1.53-11.856c0.014-0.77-0.303-0.863-0.948-0.825
		c-2.396,0.141-4.747,0.574-7.089,1.102c-0.138-0.358,0.124-0.529,0.256-0.723c2.187-3.23,4.664-6.17,8.21-8.002
		c0.558-0.288,0.361-0.702,0.31-1.113c-1.346-10.699-0.675-21.262,2.181-31.669c0.556-2.024,1.303-3.991,2.417-5.784
		c0.328-0.528,0.067-0.751-0.247-1.072c-1.723-1.762-3.569-3.39-5.514-5.045c2.81-1.67,5.77-2.611,8.885-3.074
		c2.651-0.394,5.313-0.393,7.955,0.109c0.509,0.097,0.801-0.141,1.143-0.425c5.796-4.811,12.415-7.929,19.738-9.614
		c0.549-0.126,1.384,0.214,1.579-0.373c0.127-0.382-0.429-0.99-0.674-1.498c-0.88-1.822-1.758-3.646-2.643-5.483
		c0.57-0.285,1.007-0.02,1.434,0.08c3.25,0.758,6.306,1.928,8.715,4.363c0.321,0.324,0.582,0.294,0.963,0.148
		c7.847-3.026,15.957-4.078,24.309-3.115c2.196,0.253,4.326,0.82,6.057,2.338c0.208,0.182,0.342,0.235,0.579,0.031
		c2.048-1.765,4.578-2.296,7.136-2.518c7.7-0.667,15.221,0.285,22.488,2.947c0.984,0.36,1.54,0.377,2.371-0.376
		C134.465,10.04,137.749,8.997,141.498,8.297z"/>
	<path style="fill:#360854;" d="M134.064,15.915c-1.116,1.66-2.126,3.097-2.714,4.896c1.28-0.116,2.432-0.245,3.588-0.321
		c3.716-0.246,7.393-0.052,10.952,1.16c2.052,0.699,3.866,1.773,5.229,3.518c0.378,0.484,0.538,0.726-0.258,0.982
		c-5.143,1.65-9.872,4.139-14.27,7.256c-1.575,1.117-3.068,2.341-4.086,4.081c5.537-2.723,11.263-4.878,17.329-6.02
		c6.093-1.147,12.2-1.263,18.321-0.067c-1.837,0.861-3.792,1.376-5.669,2.312c1.07,1.437,2.09,2.869,2.985,4.384
		c4.881,8.26,7.337,17.147,6.924,26.774c-0.04,0.93,0.18,2.224-0.327,2.69c-0.613,0.563-1.584-0.473-2.432-0.727
		c-4.406-1.322-8.922-1.436-13.462-1.297c-2.193,0.067-4.384,0.184-6.825,0.544c9.522,1.779,18.211,4.81,25.601,11.211
		c-0.985,0-1.763,0.023-2.539-0.007c-0.731-0.028-1.079,0.149-0.984,1.01c0.436,3.953,0.392,7.914,0.002,11.868
		c-0.816,8.277-3.064,16.065-7.948,22.935c-0.112,0.157-0.239,0.303-0.398,0.505c-3.364-7.666-9.239-12.787-16.375-16.644
		c-1.559-0.842-3.197-1.54-4.932-1.783c1.498,1.571,2.904,3.216,4.484,4.672c7.172,6.609,12.064,14.642,15.159,23.992
		c-0.976-0.408-1.872-0.768-2.755-1.156c-0.961-0.422-1.552-0.244-2.168,0.738c-3.01,4.796-6.718,9.019-10.881,12.851
		c-0.572,0.526-0.905,0.576-1.353-0.124c-0.574-0.898-1.072-1.831-1.692-2.801c-0.102,1.22-0.343,2.449-0.271,3.659
		c0.097,1.641-0.569,2.645-1.94,3.46c-1.481,0.88-2.882,1.896-4.584,2.767c-0.111-4.993-1.042-9.728-2.562-14.348
		c-1.521-4.624-3.493-9.046-6.06-13.222c0.262,2.308,0.553,4.613,0.78,6.924c1.003,10.232,1.365,20.471,0.058,30.705
		c-0.638,5-1.711,9.902-3.891,14.497c-0.114,0.24-0.228,0.481-0.355,0.715c-0.046,0.085-0.129,0.15-0.267,0.307
		c-2.662-4.058-4.318-8.541-6.112-13.258c-0.401,1.776-0.523,3.309-0.485,4.842c0.055,2.232,0.272,4.457,0.807,6.63
		c0.149,0.605,0.01,0.991-0.37,1.432c-2.801,3.243-6.072,5.977-9.384,8.663c-2.432,1.972-4.92,3.872-7.585,5.53
		c-0.575,0.358-1.032,0.406-1.646,0.056c-1.884-1.077-3.65-2.325-5.433-3.552c-0.417-0.287-0.401-0.572-0.3-1.013
		c0.481-2.108,0.92-4.225,1.357-6.343c0.085-0.412,0.091-0.84,0.038-1.308c-0.835,1.457-1.862,2.723-3.085,3.84
		c-2.037,1.862-2.03,1.877-4.113,0.16c-2.134-1.759-4.235-3.553-6.123-5.586c-0.631-0.68-0.905-1.297-0.679-2.299
		c0.738-3.268,0.941-6.587,0.477-9.925c-0.04-0.291-0.008-0.604-0.3-0.93c-1.714,4.491-3.359,8.964-5.999,12.996
		c-0.465-0.256-0.543-0.711-0.716-1.081c-2.039-4.363-3.034-9.008-3.582-13.754c-1.142-9.887-0.624-19.75,0.533-29.6
		c0.34-2.897,0.772-5.78,1.149-8.681c-4.821,8.526-8.253,17.481-8.569,27.472c-0.53,0.003-0.912-0.34-1.318-0.581
		c-8.128-4.828-14.466-11.477-19.579-19.35c-0.453-0.697-0.847-0.854-1.607-0.606c-1.049,0.343-2.027,0.832-3.208,1.381
		c2.005-5.713,4.456-11.007,7.884-15.829c3.419-4.809,7.869-8.65,12.079-12.812c-5.515-0.585-17.725,9.841-21.473,18.256
		c-0.448-0.215-0.63-0.66-0.879-1.024c-3.802-5.539-5.933-11.726-7.025-18.301c-0.894-5.384-1.072-10.798-0.509-16.229
		c0.051-0.492-0.087-0.682-0.554-0.682c-0.93,0-1.86,0-3.013,0c7.398-6.435,16.12-9.477,25.422-11.26
		c-6.181-0.646-12.35-1.027-18.485,0.346c-1.205,0.27-2.379,0.65-3.463,1.247c-0.449,0.247-0.652,0.212-0.699-0.322
		c-0.234-2.623-0.391-5.247-0.122-7.879c0.049-0.476,0.431-0.557,0.74-0.713c2.311-1.166,4.781-1.597,7.348-1.561
		c0.264,0.004,0.528,0,0.903,0c-0.351-0.623-0.933-0.79-1.441-1.021c-1.9-0.861-3.933-1.252-5.978-1.516
		c-0.855-0.11-0.931-0.376-0.77-1.127c1.496-6.966,4.278-13.355,8.531-19.079c0.492-0.662,0.432-0.865-0.304-1.123
		c-1.646-0.578-3.271-1.217-4.883-1.923c12.618-2.274,24.383,0.459,35.844,6.262c-0.82-1.435-1.823-2.348-2.886-3.187
		c-4.62-3.644-9.777-6.301-15.314-8.244c-1.164-0.408-1.179-0.387-0.343-1.35c1.928-2.22,4.488-3.274,7.275-3.861
		c3.689-0.777,7.406-0.774,11.132-0.292c0.327,0.042,0.657,0.062,1.1,0.103c-0.512-1.821-1.619-3.228-2.594-4.807
		c1.082-0.005,1.926,0.383,2.755,0.79c3.811,1.869,7.017,4.578,10.135,7.395c2.895,2.616,5.629,5.392,8.072,8.445
		c0.118,0.148,0.198,0.358,0.591,0.387c-1.573-6.773-5.015-12.444-9.658-17.536c3.199-1.516,6.494-2.106,9.944-1.815
		c4.292,0.361,8.249,1.756,11.904,4.005c0.575,0.354,0.941,0.208,1.431-0.082c4.447-2.632,9.208-4.166,14.429-3.961
		c2.279,0.09,4.473,0.615,6.582,1.511c0.65,0.276,0.712,0.431,0.21,0.978c-4.111,4.485-7.137,9.596-8.788,15.483
		c-0.115,0.409-0.246,0.816-0.084,1.391c1.493-1.811,2.965-3.514,4.548-5.114c3.663-3.701,7.497-7.2,11.931-9.978
		C130.606,17.014,132.098,16.225,134.064,15.915z"/>
	<path style="fill:#D3AE37;" d="M70.348,42.39c3.235,0.29,6.263,0.71,9.28,1.217c3.014,0.506,5.992,1.181,8.985,1.901
		c-2.133-2.199-4.729-3.693-7.506-4.988c3.564-1.702,9.325-2.434,14.067,1.055c0.012-0.797-0.383-1.405-0.669-2.03
		c-0.599-1.311-1.365-2.535-2.415-3.523c-0.634-0.597-0.416-0.849,0.174-1.236c4.127-2.704,8.432-2.755,12.854-0.868
		c2.345,1.001,2.331,1.032,0.873,2.994c-1.389,1.869-2.062,3.259-2.227,4.625c5.198-3.623,10.403-2.282,15.744-0.167
		c-0.638,0.753-1.213,1.353-1.57,2.116c-0.228,0.486-0.452,0.976-0.485,1.51c-0.023,0.377-0.208,0.876,0.177,1.108
		c0.299,0.18,0.575-0.232,0.858-0.381c4.59-2.427,9.321-2.899,14.126-0.79c3.873,1.7,4.831,4.94,2.728,8.612
		c-0.483,0.844-1.074,1.61-1.743,2.307c-2.574,2.684-5.695,4.566-9.212,6.217c0.513-2.215,1.024-4.287,0.833-6.462
		c-0.102,0.055-0.178,0.069-0.199,0.11c-2.329,4.815-6.472,6.838-11.511,7.479c-2.836,0.361-5.69,0.443-8.61,0.446
		c0.054,0.168,0.054,0.281,0.11,0.33c5.046,4.381,7.841,10.08,9.6,16.386c0.707,2.535,0.691,2.497-1.831,3.322
		c-8.62,2.817-17.237,2.5-25.862,0.046c-0.736-0.209-1.462-0.464-2.209-0.616c-0.661-0.135-0.847-0.415-0.744-1.099
		c0.435-2.875,1.562-5.498,2.892-8.037c1.864-3.559,4.104-6.854,7.11-9.573c0.09-0.081,0.233-0.149,0.13-0.428
		c-1.875,0.144-3.786,0.312-5.702,0.201c-3.123-0.182-6.147-0.744-8.884-2.366c-2.439-1.446-4.184-3.471-5.086-6.186
		c-0.069-0.208-0.149-0.412-0.293-0.602c-0.234,2.329-0.197,4.623,0.641,6.829c-0.244,0.268-0.45,0.044-0.64-0.03
		c-3.342-1.307-6.519-2.898-9.009-5.57c-1.768-1.897-2.905-4.059-2.503-6.772c0.039-0.262,0.107-0.52,0.172-0.778
		c0.156-0.62,0.354-1.291,0.817-1.683c0.555-0.47,1.053,0.243,1.578,0.402c1.486,0.451,2.989,0.663,4.532,0.541
		c1.324-0.105,1.755-0.606,1.741-1.922C71.446,44.772,70.855,43.675,70.348,42.39z"/>
	<path style="fill:#D3AE37;" d="M114.843,71.12c4.314,2.398,8.799,3.428,13.52,3.472c0.778,0.007,1.579,0.087,2.465-0.236
		c-1.132-0.706-2.246-1.236-3.241-2.082c4.528-2.711,9.337-4.986,12.405-9.496c4.951,6.889,5.183,14.145-3.118,20.761
		c1.977,1.611,4.289,1.799,6.922,1.647c-3.654,6.125-9.028,6.733-15.333,5.346c1.401,1.653,2.868,2.829,4.394,3.941
		c1.144,0.834,1.152,0.848-0.101,1.528c-2.187,1.187-4.496,1.812-7.007,1.439c-0.164-0.024-0.332-0.031-0.498-0.03
		c-0.057,0-0.114,0.047-0.223,0.096c0.426,1.168,1.31,1.978,2.185,2.777c1.085,0.991,2.273,1.866,3.574,2.543
		c0.919,0.479,0.656,0.768,0.029,1.25c-4.521,3.477-9.544,4.604-15.058,3.112c-3.829-1.036-7.221-2.898-9.851-5.956
		c-2.605-3.029-2.46-5.866,0.457-8.594c2.348-2.196,5.209-3.561,8.121-4.807c1.711-0.732,3.446-1.43,5.22-1.984
		c0.973-0.304,1.026-0.78,0.833-1.601c-0.631-2.674-1.693-5.181-2.889-7.636C116.779,74.827,115.846,73.076,114.843,71.12z"/>
	<path style="fill:#D3AE37;" d="M67.299,103.292c2.502-1.536,5.014-3.05,6.629-5.899c-1.362,0.077-2.558,0.24-3.761,0.036
		c-1.669-0.282-3.195-0.874-4.642-1.734c-0.643-0.382-0.484-0.599,0.023-0.949c1.51-1.042,2.947-2.176,4.195-3.531
		c0.152-0.165,0.373-0.292,0.366-0.637c-1.843,0.346-3.669,0.717-5.543,0.595c-3.703-0.242-6.738-1.699-8.844-4.845
		c-0.197-0.294-0.578-0.624-0.43-0.954c0.177-0.395,0.657-0.133,0.993-0.129c1.695,0.019,3.303-0.278,4.811-1.09
		c0.737-0.397,0.905-0.694,0.135-1.295c-1.369-1.068-2.541-2.346-3.551-3.766c-2.293-3.226-2.867-6.748-1.778-10.536
		c0.546-1.899,1.433-3.65,2.49-5.314c0.159-0.25,0.307-0.836,0.713-0.15c1.238,2.094,3.155,3.494,5.076,4.875
		c1.949,1.4,4.019,2.609,6.13,3.749c0.288,0.156,0.57,0.324,0.924,0.526c-0.98,0.859-2.078,1.393-3.145,2.034
		c2.15,0.813,10.123,0.176,15.907-3.172c-0.722,1.369-1.376,2.568-1.993,3.785c-1.49,2.94-2.893,5.918-3.675,9.143
		c-0.333,1.374-0.325,1.377,1.03,1.862c3.48,1.244,6.915,2.591,10.091,4.512c1.401,0.847,2.709,1.809,3.793,3.059
		c1.762,2.033,1.997,4.227,0.558,6.515c-1.57,2.496-3.855,4.205-6.447,5.518c-6.674,3.38-13.113,3.223-19.237-1.342
		c-0.239-0.178-0.458-0.386-0.674-0.593C67.377,103.502,67.352,103.396,67.299,103.292z"/>
	<path style="fill:#D3AE37;" d="M76.266,135.761c1.018,2.444,2.161,4.54,3.621,6.449c2.674,3.495,5.962,6.084,10.415,6.869
		c2.674,0.471,5.305,0.194,7.888-0.626c0.524-0.166,1.022-0.353,1.639-0.143c9.925,3.382,17.555-1.11,21.831-9.278
		c0.135-0.257,0.278-0.51,0.536-0.984c1.024,5.342,1.056,10.271-2.119,14.757c-0.516,0.728-0.911,0.852-1.434,0.032
		c-0.285-0.446-0.716-0.802-0.984-1.255c-0.397-0.671-0.751-0.529-1.229-0.1c-1.79,1.61-3.031,3.615-4.158,5.703
		c-1.033,1.915-3.953,2.477-5.655,1.08c-0.072-0.059-0.17-0.086-0.295-0.147c-0.911,2.537-2.051,4.926-3.808,6.976
		c-0.72,0.84-1.55,1.546-2.434,2.209c-0.688,0.516-1.251,0.513-1.964,0.021c-2.533-1.751-4.131-4.206-5.374-6.941
		c-0.342-0.752-0.636-1.525-0.982-2.359c-1.016,1.336-2.323,1.932-3.918,1.991c-0.635,0.024-0.946-0.216-1.204-0.779
		c-1.07-2.335-2.28-4.596-3.901-6.604c-1.534-1.9-1.553-1.885-2.999-0.023c-1.325,1.706-1.341,1.713-2.169-0.249
		C75.33,147.056,75.118,141.591,76.266,135.761z"/>
	<path style="fill:#FEFEFE;" d="M80.625,124.211c2.439,5.371,5.426,10.048,10.718,13.188c-0.627-1.955-1.281-3.646-1.759-5.71
		c1.11,1.473,2.091,2.68,3.272,3.708c1.797,1.564,3.784,2.802,5.989,3.708c0.539,0.221,0.981,0.187,1.503-0.03
		c3.651-1.514,6.65-3.849,9.012-7.047c-0.282,1.782-0.979,3.432-1.586,5.358c5.339-3.119,8.306-7.875,10.801-13.33
		c1.503,5.867,0.947,11.16-2.303,16.063c-1.544,2.329-3.87,2.604-6.363,2.352c-4.34-0.437-8.678-0.812-13.05-0.649
		c-2.994,0.112-5.955,0.582-8.951,0.706c-2.441,0.101-4.156-0.936-5.413-2.899c-2.098-3.277-2.831-6.917-2.738-10.751
		C79.793,127.359,79.989,125.852,80.625,124.211z"/>
	<path style="fill:#D3AE37;" d="M99.364,127.025c1.074-1.437,2.304-2.519,3.957-3.02c1.64-0.497,3.034-0.189,3.837,0.836
		c0.987,1.26,1.03,2.752,0.041,4.263c-1.266,1.935-3.053,3.344-4.991,4.518c-3.567,2.161-2.191,2.235-5.81-0.105
		c-1.541-0.997-2.887-2.247-3.906-3.803c-0.752-1.148-1.139-2.388-0.913-3.779c0.383-2.354,2.587-3.491,4.722-2.423
		C97.745,124.236,98.568,125.517,99.364,127.025z"/>
	<path style="fill:#D3AE37;" d="M55.74,127.563c-2.596-2.499-4.973-5.181-6.953-8.203c-0.294-0.448-0.354-0.882-0.227-1.415
		c0.324-1.355,0.97-2.547,1.742-3.677c2.979-4.354,6.808-7.917,10.681-11.438c0.517-0.47,1.032-0.943,1.552-1.411
		c0.266-0.239,0.322-0.127,0.256,0.164c-2.468,5.427-4.682,10.941-5.644,16.868c-0.426,2.621-0.934,5.236-0.927,7.911
		C56.222,126.807,56.289,127.32,55.74,127.563z"/>
	<path style="fill:#D3AE37;" d="M137.173,101.6c1.294,0.71,2.263,1.815,3.323,2.798c3.201,2.97,6.321,6.021,8.754,9.687
		c2.174,3.276,2.174,4.002-0.228,7.042c-1.585,2.006-3.21,3.988-5.146,5.682c-0.387-0.203-0.415-0.581-0.439-0.944
		c-0.517-7.918-2.284-15.513-5.797-22.667C137.4,102.706,137.108,102.197,137.173,101.6z"/>
	<path style="fill:#FEFEFE;" d="M106.577,118.181c0.152-2.662-0.432-5.078-2.071-7.207c-0.437-0.568-0.905-0.847-1.67-0.826
		c-2.198,0.06-4.399,0.054-6.598,0.002c-0.725-0.017-1.172,0.257-1.585,0.795c-1.641,2.138-2.259,4.556-1.98,7.474
		c-1.307-1.767-1.91-3.564-2.398-5.405c-0.333-1.256-0.45-2.552-0.607-3.841c-0.064-0.526,0.09-0.765,0.616-0.905
		c2.02-0.537,3.991-1.127,5.73-2.428c0.912-0.683,2.224-0.644,3.392-0.627c1.662,0.023,3.262,0.147,4.697,1.272
		c1.233,0.966,2.819,1.337,4.341,1.677c0.862,0.192,1.088,0.558,0.994,1.398C109.096,112.629,108.387,115.567,106.577,118.181z"/>
	<path style="fill:#D3AE37;" d="M35.133,91.756c-1.381-2.526-2.311-5.146-1.701-8.091c0.219-1.057,0.774-1.716,1.868-2.075
		c5.438-1.78,10.939-3.114,16.724-2.73c0.202,0.013,0.54-0.228,0.609,0.21c0.003,0.022-0.031,0.057-0.056,0.074
		c-0.026,0.018-0.062,0.022-0.094,0.032c-4.094,1.951-7.677,4.659-11.139,7.541c-1.767,1.47-3.529,2.948-5.18,4.552
		C35.881,91.544,35.602,91.861,35.133,91.756z"/>
	<path style="fill:#D3AE37;" d="M146.626,77.209c0.109-0.491,0.483-0.183,0.687-0.176c4.21,0.146,8.181,1.33,12.057,2.874
		c1.418,0.565,2.771,1.293,4.193,1.845c1.076,0.418,1.402,1.208,1.483,2.237c0.233,2.954-0.938,5.435-2.589,7.758
		c-0.605,0.041-0.852-0.443-1.173-0.809c-3.473-3.947-7.01-7.832-11.088-11.178C149.065,78.832,147.803,78.078,146.626,77.209z"/>
	<path style="fill:#FEFEFE;" d="M87.962,127.981c-1.307-0.826-2.23-1.916-3.046-3.091c-2.833-4.076-4.626-8.644-6.222-13.3
		c-0.092-0.269-0.253-0.563,0.289-0.597c2.738-0.173,5.374-0.777,7.969-2.082C87.178,115.314,87.158,121.617,87.962,127.981z"/>
	<path style="fill:#FEFEFE;" d="M111.18,127.987c0.754-6.032,0.755-11.917,0.951-17.793c0.01-0.299-0.127-0.753,0.495-0.445
		c2.236,1.108,4.64,1.587,7.104,1.799c0.425,0.037,0.597,0.106,0.431,0.582c-1.6,4.583-3.355,9.093-6.196,13.085
		C113.235,126.239,112.398,127.178,111.18,127.987z"/>
	<path style="fill:#D3AE37;" d="M140.15,43.333c-0.32-0.065-0.639-0.13-1.126-0.23c2.739-0.876,5.396-1.359,8.079-1.68
		c4.468-0.535,8.952-0.713,13.452-0.45c0.674,0.039,1.022,0.274,1.288,0.841c0.893,1.904,1.759,3.807,1.214,5.999
		c-0.413,0.306-0.828,0.134-1.233-0.009c-4.681-1.648-9.516-2.688-14.396-3.482C145.015,43.93,142.601,43.469,140.15,43.333z"/>
	<path style="fill:#D3AE37;" d="M36.877,46.899c-0.244-2.193,0.69-4.016,1.809-5.784c0.278-0.439,0.7-0.32,1.078-0.306
		c6.345,0.232,12.606,0.973,18.629,3.13c0.155,0.056,0.322,0.08,0.512,0.125c-0.222,0.277-0.526,0.235-0.804,0.267
		c-1.694-0.013-3.372,0.239-5.059,0.336c-2.812,0.161-5.619,0.456-8.404,0.924c-2.13,0.357-4.246,0.767-6.329,1.341
		C37.833,47.062,37.345,47.258,36.877,46.899z"/>
	<path style="fill:#FEFEFE;" d="M140.15,43.333c1.528-0.398,3.038-0.019,4.533,0.181c6.261,0.836,12.425,2.117,18.374,4.299
		c-0.104,1.616-0.643,3.113-1.243,4.595c-0.19,0.468-0.366,0.557-0.843,0.252c-6.019-3.851-12.507-6.697-19.284-8.909
		C141.182,43.587,140.662,43.471,140.15,43.333z"/>
	<path style="fill:#FEFEFE;" d="M55.74,127.563c0.381-8.567,2.127-16.793,6.111-24.459c0.274-0.527,0.626-1.014,0.941-1.52
		c-1.373,7.178-2.878,14.334-3.849,21.583c-0.243,1.813-0.429,3.634-0.597,5.455c-0.053,0.577-0.188,0.709-0.711,0.397
		C56.942,128.607,56.322,128.112,55.74,127.563z"/>
	<path style="fill:#FEFEFE;" d="M137.173,101.6c1.294,2.508,2.555,5.03,3.461,7.715c1.917,5.678,2.979,11.512,3.243,17.495
		c-0.019,0.027-0.033,0.06-0.057,0.082c-0.693,0.612-1.445,1.631-2.248,1.427c-0.618-0.157-0.29-1.469-0.384-2.264
		c-0.927-7.915-2.479-15.723-4.037-23.529C137.09,102.217,136.876,101.902,137.173,101.6z"/>
	<path style="fill:#FEFEFE;" d="M36.877,46.899c6.323-1.83,12.802-2.586,19.36-2.764c0.618-0.017,1.265-0.076,1.863,0.196
		c-6.719,1.362-13.101,3.69-19.176,6.842c-0.905,0.47-1.118,0.298-1.35-0.579C37.251,49.375,36.94,48.163,36.877,46.899z"/>
	<path style="fill:#FEFEFE;" d="M146.626,77.209c1.366,0.344,2.434,1.213,3.499,2.055c3.723,2.943,6.935,6.413,10.099,9.927
		c0.757,0.841,1.49,1.703,2.234,2.555c-0.825,1.002-1.665,1.99-2.661,2.832c-0.351,0.298-0.591,0.442-0.881-0.126
		C155.666,88.103,151.327,82.526,146.626,77.209z"/>
	<path style="fill:#FEFEFE;" d="M35.133,91.756c4.487-4.21,9.111-8.249,14.419-11.421c0.907-0.542,1.83-1.086,2.931-1.159
		c-4.662,4.13-9.023,8.543-12.74,13.56c-0.474,0.64-0.972,1.27-1.372,1.956c-0.385,0.66-0.656,0.533-1.073,0.042
		C36.499,93.795,35.763,92.816,35.133,91.756z"/>
	<path style="fill:#D3AE37;" d="M136.629,25.792c-2.445,3.562-8.021,6.055-11.045,4.915
		C127.554,27.407,132.817,25.164,136.629,25.792z"/>
	<path style="fill:#FEFEFE;" d="M64.58,26.479c3.856-0.667,9.27,1.727,11.073,4.896C72.723,32.529,66.819,29.919,64.58,26.479z"/>
	<path style="fill:#FDFDFD;" d="M124.237,64.852c0.518,0.697,0.811,1.464,0.942,2.278c0.196,1.214-0.445,2.126-1.796,2.465
		c-1.976,0.496-3.964,0.237-5.94-0.066c-0.524-0.08-1.042-0.205-1.56-0.321c-0.305-0.068-0.757-0.008-0.82-0.366
		c-0.038-0.213,0.258-0.507,0.442-0.733c0.322-0.394,0.737-0.671,1.234-0.802c0.567-0.149,1.08-0.316,1.164,0.616
		c0.076,0.846,0.708,1.048,1.474,0.843c0.191-0.051,0.426-0.094,0.547-0.226C121.198,67.14,123.183,66.58,124.237,64.852z"/>
	<path style="fill:#FEFDFE;" d="M75.518,64.792c0.499,1.071,1.323,1.733,2.386,2.104c0.311,0.109,0.448,0.371,0.632,0.603
		c0.418,0.529,0.923,0.942,1.571,1.175c1.046,0.377,1.522,0.172,1.702-0.902c0.097-0.578,0.384-0.625,0.819-0.55
		c0.995,0.172,1.644,0.784,2.16,1.742c-2.703,0.702-5.365,1.199-8.083,0.71c-2.022-0.364-2.619-1.589-1.906-3.515
		C74.97,65.694,75.153,65.233,75.518,64.792z"/>
	<path style="fill:#FDFDFD;" d="M111.033,18.732c-0.892,2.498-1.788,4.942-4.765,5.745c-1.118,0.302-2.038,1.069-2.762,2.073
		c-0.683-2.23,0.109-3.844,2.176-4.584C107.679,21.251,109.372,20.044,111.033,18.732z"/>
	<path style="fill:#D3AE37;" d="M86.794,18.583c1.896,1.69,3.804,2.9,6.005,3.688c1.58,0.566,2.157,2.228,1.617,4.371
		c-1.074-1.494-2.652-1.985-4.157-2.651c-1.337-0.592-2.013-1.889-2.645-3.147C87.29,20.199,86.974,19.543,86.794,18.583z"/>
	<path style="fill:#2E0854;" d="M112.819,50.379c-0.783,2.39-1.69,4.421-3.473,5.93c-0.346,0.293-0.778,0.537-1.211,0.666
		c-1.664,0.494-3.107,1.31-4.195,2.711c-0.871-1.729-0.072-4.122,1.679-4.909c1.269-0.57,2.591-1.012,3.774-1.774
		C110.537,52.267,111.597,51.424,112.819,50.379z"/>
	<path style="fill:#2E0854;" d="M104.083,53.276c-0.763-2.093,0.021-4.336,1.879-5.001c2.454-0.879,4.598-2.214,6.548-3.907
		c0.069-0.06,0.17-0.083,0.516-0.246c-1.218,2.817-2.05,5.592-5.217,6.586C106.322,51.175,105.085,52.039,104.083,53.276z"/>
</g>
</svg>
