<?xml version="1.0" encoding="utf-8"?>
<!-- Generator: Adobe Illustrator 24.1.0, SVG Export Plug-In . SVG Version: 6.00 Build 0)  -->
<svg version="1.1" id="Layer_1" xmlns="http://www.w3.org/2000/svg" xmlns:xlink="http://www.w3.org/1999/xlink" x="0px" y="0px"
	 viewBox="0 0 200 200" style="enable-background:new 0 0 200 200;" xml:space="preserve">
<g>
	<path style="fill:#A1A9AC;" d="M193.224,107.451c-2.529-6.699-6.965-12.053-11.962-17.183c-0.136,0.938-0.26,1.747-0.37,2.557
		c-0.553,4.074-1.366,8.094-2.474,12.053c-0.865,3.093-1.916,6.117-3.352,8.998c-0.258,0.518-0.251,0.528,0.328,0.529
		c2.412,0.004,4.825-0.019,7.236,0.013c2.465,0.033,4.514,1.086,6.264,2.75c1.943,1.846,3.244,4.111,4.175,6.605
		c0.079,0.212,0.084,0.424,0.084,0.641c0,9.214,0.038,18.428-0.019,27.641c-0.022,3.601-1.857,6.233-4.882,8.082
		c-2.168,1.326-4.527,1.602-7.011,1.342c-2.357-0.247-4.703-0.563-7.046-0.91c-2.379-0.352-4.757-0.712-7.139-1.039
		c-2.634-0.361-5.267-0.719-7.93-0.855c-2.11-0.108-4.213-0.379-6.317-0.596c-2.068-0.214-4.135-0.441-6.201-0.681
		c-2.262-0.262-4.522-0.542-6.782-0.821c-1.22-0.151-2.434-0.398-3.657-0.459c-3.238-0.161-5.458,1.388-6.567,4.437
		c-0.835,2.295-0.912,4.675-0.855,7.073c0.11,4.608,0.998,9.084,2.27,13.498c1.441,4.998,3.44,9.769,5.809,14.39
		c0.768,1.497,1.634,2.941,2.602,4.482c-1.042-0.254-1.966-0.468-2.884-0.704c-4.911-1.263-9.665-2.947-14.16-5.313
		c-3.559-1.874-6.853-4.127-9.813-6.867c-3.419-3.166-6.159-6.829-8.15-11.038c-1.543-3.261-2.576-6.679-2.998-10.273
		c-0.108-0.918-0.235-1.835-0.197-2.759c0.018-0.435-0.123-0.547-0.549-0.547c-3.762,0.004-7.476-0.414-11.111-1.404
		c-3.557-0.969-6.922-2.368-9.89-4.608c-0.134-0.101-0.263-0.185-0.44-0.179c-1.953,0.067-3.906,0.12-5.859,0.2
		c-0.868,0.035-1.736,0.065-2.603,0.114c-3.432,0.195-6.86,0.43-10.282,0.762c-2.754,0.267-5.512,0.491-8.262,0.795
		c-3.145,0.348-6.284,0.747-9.421,1.155c-3.013,0.392-6.025,0.798-9.03,1.244c-2.753,0.408-5.497,0.871-8.243,1.324
		c-1.266,0.209-2.529,0.436-3.787,0.687c-0.473,0.094-0.41-0.197-0.414-0.464c-0.038-2.519-0.045-5.038-0.117-7.556
		c-0.094-3.317-0.035-6.635-0.13-9.95c-0.068-2.392-0.011-4.786-0.106-7.175c-0.052-1.303-0.033-2.607-0.085-3.946
		c-0.394,0.087-0.599,0.411-0.875,0.614c-0.773,0.571-1.538,1.147-2.417,1.557c-1.023,0.477-1.989,0.431-2.937-0.197
		c-1.752-1.161-2.971-2.793-4.056-4.544c-0.382-0.617-0.679-1.275-0.939-1.956c-0.625-1.638-0.224-3.059,0.871-4.335
		c0.776-0.905,1.739-1.582,2.77-2.168c0.219-0.124,0.448-0.121,0.685-0.119c0.852,0.006,1.705,0.001,2.557,0.014
		c0.249,0.004,0.441-0.057,0.633-0.235c2.298-2.131,4.588-4.272,6.92-6.366c0.642-0.576,1.026-1.176,1.229-2.045
		c0.49-2.097,1.802-3.724,3.372-5.15c0.214-0.195,0.438-0.38,0.667-0.558c0.172-0.134,0.393-0.244,0.327-0.509
		c-0.072-0.289-0.367-0.225-0.547-0.233c-0.941-0.042-1.876-0.142-2.811-0.248c-3.733-0.423-7.425-1.029-10.899-2.547
		c-1.149-0.502-2.22-1.149-3.11-2.059c-1.558-1.593-1.928-3.435-1.119-5.497c2.79-7.105,6.653-13.59,11.356-19.588
		c2.903-3.703,6.102-7.134,9.52-10.361c4.384-4.138,9.108-7.857,14.088-11.249c6.123-4.17,12.564-7.792,19.265-10.944
		c4.806-2.261,9.708-4.289,14.766-5.926c0.269-0.087,0.413-0.223,0.494-0.5c1.479-5.056,3.942-9.564,7.533-13.434
		c4.446-4.791,9.797-8.102,16.128-9.794c0.436-0.116,0.882-0.198,1.323-0.293c0.05-0.011,0.103-0.011,0.293-0.028
		c-0.924,1.622-2.036,3.136-1.481,5.17c1.018-1.153,2.108-2.125,3.253-3.04c2.556-2.044,5.322-3.769,8.173-5.359
		c7.915-4.416,16.203-8.006,24.703-11.124c0.471-0.173,0.938-0.355,1.474-0.448c-0.226,0.261-0.432,0.542-0.68,0.781
		c-4.982,4.82-8.194,10.737-10.629,17.135c-0.961,2.523-1.767,5.089-2.279,7.748c-0.451,2.344-0.145,4.612,0.537,6.855
		c0.226,0.744,0.518,1.467,0.772,2.203c0.088,0.254,0.236,0.347,0.515,0.374c7.269,0.71,14.219,2.627,20.896,5.563
		c4.575,2.012,8.933,4.406,13.01,7.311c0.752,0.536,1.703,0.696,2.555,1.049c5.14,2.133,9.917,4.859,14.109,8.555
		c3.751,3.307,6.808,7.154,9.138,11.586c2.392,4.549,3.884,9.388,4.772,14.431c0.464,2.636,0.84,5.286,1.05,7.953
		c0.125,1.59-0.03,3.185-0.221,4.766c-0.437,3.616-1.187,7.171-2.16,10.68c-0.038,0.139-0.085,0.275-0.127,0.413
		C193.315,107.419,193.269,107.435,193.224,107.451z"/>
	<path style="fill:#081F2C;" d="M22.986,156.857c-0.031-2.973-0.055-5.945-0.093-8.918c-0.043-3.372-0.1-6.743-0.149-10.114
		c-0.038-2.665-0.072-5.329-0.109-7.994c-0.002-0.14-0.015-0.28-0.029-0.525c-0.737,0.713-1.397,1.368-2.075,2.004
		c-1.033,0.969-2.126,1.86-3.346,2.594c-0.665,0.4-1.243,0.375-1.837-0.114c-1.814-1.495-3.179-3.315-4.032-5.51
		c-0.303-0.779-0.166-1.488,0.324-2.153c0.593-0.805,1.375-1.384,2.212-1.904c0.182-0.113,0.38-0.102,0.579-0.103
		c0.979-0.006,1.958-0.018,2.937-0.016c0.231,0,0.408-0.057,0.581-0.223c2.793-2.694,5.68-5.286,8.552-7.894
		c0.163-0.148,0.318-0.282,0.333-0.531c0.137-2.365,1.45-4.08,3.118-5.589c0.389-0.351,0.816-0.663,1.246-0.963
		c0.203-0.142,0.285-0.29,0.281-0.535c-0.013-0.762-0.027-1.524,0.004-2.285c0.016-0.388-0.126-0.496-0.489-0.504
		c-2.341-0.05-4.668-0.285-6.98-0.645c-2.888-0.45-5.737-1.047-8.385-2.357c-0.67-0.332-1.298-0.729-1.847-1.236
		c-1.221-1.128-1.501-2.286-0.89-3.828c1.472-3.713,3.244-7.28,5.3-10.705c4.738-7.892,10.722-14.73,17.61-20.798
		c8.518-7.505,18.008-13.543,28.174-18.544c5.729-2.818,11.599-5.301,17.702-7.203c0.391-0.122,0.427-0.39,0.507-0.678
		c1.148-4.151,2.958-7.981,5.603-11.39c3.821-4.924,8.705-8.408,14.523-10.603c0.113-0.043,0.234-0.066,0.398-0.112
		c-0.158,0.994-0.176,1.942,0.023,2.891c0.217,1.036,0.725,1.924,1.328,2.772c0.278,0.39,0.35,0,0.43-0.13
		c1.252-2.024,2.967-3.6,4.825-5.044c2.009-1.561,4.147-2.926,6.346-4.199c6.366-3.684,13.057-6.693,19.858-9.467
		c0.121-0.049,0.243-0.172,0.411-0.082c-0.005,0.26-0.208,0.41-0.335,0.595c-4.325,6.314-7.308,13.202-8.847,20.704
		c-0.594,2.899-0.015,5.694,0.895,8.439c0.256,0.773,0.617,1.51,0.898,2.276c0.146,0.397,0.387,0.54,0.802,0.57
		c3.952,0.287,7.83,1.003,11.64,2.077c8.044,2.269,15.505,5.771,22.32,10.624c0.411,0.293,0.881,0.417,1.334,0.589
		c5.31,2.019,10.249,4.683,14.596,8.378c6.438,5.472,10.542,12.399,12.743,20.505c1.105,4.07,1.767,8.222,2.074,12.42
		c0.235,3.206-0.327,6.362-0.933,9.5c-0.081,0.419-0.177,0.835-0.288,1.353c-3.412-6.024-7.834-11.068-12.974-15.706
		c-0.1,0.903-0.183,1.679-0.271,2.455c-0.813,7.188-2.12,14.264-4.762,21.037c-0.785,2.013-1.673,3.977-2.963,5.731
		c-0.071,0.097-0.182,0.181-0.164,0.339c0.159,0.108,0.344,0.049,0.514,0.049c3.065,0.004,6.133,0.082,9.194-0.018
		c3.236-0.106,5.654,1.264,7.55,3.757c1.004,1.321,1.811,2.752,2.353,4.325c-0.066,0.176-0.035,0.359-0.035,0.538
		c-0.002,9.07-0.002,18.14,0,27.21c0,0.179-0.036,0.363,0.041,0.536c-0.1,2.036-1.012,3.682-2.497,5.016
		c-1.981,1.78-4.304,2.507-6.971,2.241c-4.131-0.411-8.225-1.075-12.33-1.671c-3.691-0.536-7.385-1.018-11.114-1.261
		c-4.284-0.28-8.547-0.828-12.812-1.333c-2.555-0.302-5.113-0.583-7.659-0.945c-1.356-0.193-2.698-0.337-4.048-0.054
		c-2.213,0.463-3.914,1.673-5.072,3.61c-1.231,2.059-1.691,4.335-1.787,6.702c0.064,1.194,0.066,2.388-0.002,3.582
		c0.043,2.161,0.32,4.297,0.695,6.421c1.362,7.704,4.096,14.926,7.701,21.84c0.067,0.129,0.137,0.256,0.202,0.385
		c0.015,0.031,0.016,0.069,0.041,0.184c-0.528-0.151-1.021-0.287-1.51-0.434c-5.742-1.722-11.198-4.063-16.119-7.536
		c-5.823-4.11-10.281-9.334-12.902-16.02c-1.401-3.574-2.187-7.278-2.158-11.133c0.003-0.361,0.04-0.723,0.085-1.082
		c0.033-0.263-0.063-0.372-0.32-0.358c-1.339-0.075-2.678-0.069-4.017-0.005c-2.838-0.066-5.628-0.483-8.373-1.192
		c-3.287-0.849-6.42-2.081-9.168-4.107c-0.826-0.609-1.604-0.843-2.616-0.817c-6.088,0.157-12.16,0.538-18.226,1.058
		c-3.845,0.33-7.684,0.726-11.517,1.178c-4.945,0.582-9.881,1.239-14.805,1.981c-3.493,0.526-6.986,1.06-10.462,1.694
		c-0.379,0.069-0.513-0.021-0.506-0.425c0.009-0.484,0.087-0.976-0.055-1.456C22.867,157.999,22.899,157.428,22.986,156.857z"/>
	<path style="fill:#001422;" d="M191.313,152.503c-0.161-0.169-0.093-0.379-0.093-0.571c-0.003-9.047-0.003-18.093,0-27.14
		c0-0.192-0.066-0.402,0.087-0.574c0.009,0.162,0.027,0.325,0.027,0.487c0.001,9.103,0.001,18.206,0,27.309
		C191.334,152.178,191.321,152.341,191.313,152.503z"/>
	<path style="fill:#001522;" d="M98.724,160.654c0.207-0.171,0.453-0.086,0.68-0.089c0.941-0.01,1.882-0.007,2.823-0.002
		c0.174,0.001,0.366-0.059,0.514,0.095C101.402,160.713,100.063,160.729,98.724,160.654z"/>
	<path style="fill:#AEB5B7;" d="M127.024,168.392c-0.067-1.194-0.078-2.388,0.002-3.582c0.209,0.689,0.076,1.394,0.084,2.09
		C127.114,167.395,127.238,167.907,127.024,168.392z"/>
	<path style="fill:#AEB5B7;" d="M22.986,156.857c0.004,0.57,0.008,1.14,0.011,1.71c0,0.589,0,1.179,0,1.768
		c-0.04,0-0.08,0-0.12-0.001c0-1.099-0.002-2.199,0.005-3.298C22.882,156.977,22.949,156.917,22.986,156.857z"/>
	<path style="fill:#008299;" d="M85.442,74.806c-2.518-0.44-5.045-0.317-7.577-0.145c-2.482,0.169-4.932,0.529-7.34,1.138
		c-4.405,1.113-8.494,2.907-12.071,5.758c-1.364,1.087-2.603,2.303-3.71,3.789c0.512-0.121,0.862-0.365,1.228-0.557
		c4.669-2.448,9.502-4.468,14.661-5.644c2.245-0.512,4.519-0.825,6.816-0.987c1.464-0.103,2.929-0.195,4.394-0.163
		c1.355,0.029,2.713,0.109,3.984,0.69c1.81,0.828,1.866,2.482,1.152,3.934c-0.127,0.258-0.318,0.251-0.545,0.217
		c-2.404-0.368-4.823-0.553-7.252-0.499c-6.219,0.137-12.044,1.718-17.468,4.792c-2.471,1.401-4.643,3.216-6.959,4.832
		c-3.539,2.469-7.368,4.398-11.388,5.952c-1.572,0.608-3.17,1.127-4.834,1.442c-1.255,0.238-2.241-0.134-3.023-1.122
		c-1.073-1.356-1.737-2.919-2.303-4.532c-0.06-0.17-0.122-0.339-0.186-0.507c-0.005-0.012-0.031-0.016-0.083-0.042
		c-0.986,1.128-1.528,2.47-1.788,3.929c-0.168,0.943-0.305,1.896-0.141,2.861c0.036,0.212-0.03,0.328-0.281,0.351
		c-1.92,0.176-3.837,0.042-5.75-0.079c-1.479-0.093-2.953-0.284-4.383-0.704c-0.89-0.262-1.755-0.585-2.487-1.18
		c-0.566-0.46-0.613-0.681-0.295-1.332c2.669-5.464,6.004-10.499,9.793-15.245c2.934-3.675,6.134-7.104,9.528-10.353
		c1.294-1.239,2.596-2.476,3.999-3.596c0.305,0.171,0.335-0.195,0.516-0.266c0.199-0.167,0.41-0.318,0.605-0.489
		c3.143-2.196,6.509-4.018,9.849-5.883c2.042-1.141,4.133-2.191,6.19-3.303c0.245-0.132,0.548-0.413,0.784-0.207
		c0.235,0.205-0.082,0.489-0.167,0.73c-0.38,1.065-0.552,2.162-0.627,3.341c0.33-0.112,0.515-0.314,0.714-0.483
		c4.238-3.587,8.796-6.708,13.721-9.269c3.821-1.986,7.775-3.661,11.966-4.721c0.422-0.107,0.85-0.189,1.275-0.28
		c0.16-0.034,0.367-0.064,0.439,0.107c0.077,0.182-0.115,0.283-0.247,0.373c-1.532,1.048-2.52,2.529-3.318,4.162
		c-0.032,0.065-0.069,0.128-0.075,0.202c-0.001,0.015,0.009,0.03,0.026,0.08c1.056-0.473,2.118-0.927,3.187-1.364
		c5.505-2.246,11.225-3.696,17.095-4.562c2.238-0.33,4.492-0.566,6.762-0.604c0.703-0.012,1.408-0.111,2.115-0.093
		c0.163,0.004,0.327-0.005,0.486,0.041c0.086,0.025,0.186,0.05,0.201,0.156c0.015,0.102-0.071,0.158-0.14,0.213
		c-0.1,0.08-0.219,0.127-0.334,0.18c-2.164,0.973-3.973,2.257-5.699,4.066c1.338-0.231,2.604-0.471,3.875-0.68
		c3.471-0.571,6.95-1.073,10.457-1.375c2.201-0.19,4.404-0.331,6.61-0.45c2.104-0.113,4.209-0.136,6.305-0.06
		c4.644,0.168,9.261,0.611,13.711,2.088c1.102,0.366,2.178,0.803,3.201,1.36c0.08,0.043,0.161,0.086,0.232,0.142
		c0.138,0.109,0.369,0.21,0.291,0.406c-0.083,0.209-0.318,0.105-0.481,0.065c-1.997-0.494-4.032-0.467-6.06-0.396
		c-1.277,0.045-2.555,0.202-3.832,0.48c4.403,1.095,8.505,2.834,12.267,5.331c3.134,2.08,5.879,4.597,8.171,7.591
		c0.127,0.166,0.32,0.316,0.214,0.573c-0.267,0.092-0.403-0.117-0.547-0.262c-3.987-4.009-8.935-6.237-14.294-7.687
		c-3.036-0.821-6.133-1.278-9.271-1.494c-2.017-0.139-4.033-0.244-6.001-0.182c1.468,0.506,2.878,1.238,4.233,2.082
		c2.765,1.721,5.279,3.761,7.681,5.954c1.233,1.126,2.379,2.336,3.58,3.493c0.065,0.063,0.133,0.125,0.19,0.195
		c0.122,0.15,0.363,0.32,0.224,0.498c-0.148,0.189-0.368-0.009-0.528-0.111c-1.697-1.086-3.447-2.074-5.264-2.948
		c-3.681-1.77-7.539-3-11.527-3.845c-2.486-0.527-5.001-0.868-7.531-1.065c-2.567-0.199-5.144-0.203-7.715-0.112
		c-2.551,0.09-5.095,0.332-7.613,0.788c-0.142,0.026-0.285,0.045-0.335,0.031c2.868,0.42,5.764,1.126,8.593,2.113
		c4.985,1.739,9.507,4.285,13.523,7.718c0.551,0.471,1.038,1.012,1.546,1.53c0.123,0.126,0.306,0.27,0.227,0.457
		c-0.075,0.178-0.292,0.073-0.445,0.083c-0.141,0.01-0.29,0.035-0.427-0.037c-2.961-0.065-5.856-0.596-8.735-1.238
		c-0.476-0.106-0.962-0.179-1.43-0.314c-1.211-0.349-2.073,0.153-2.768,1.09c-1.166,1.572-1.737,3.405-2.291,5.244
		c-0.196,0.65-0.352,1.312-0.552,2.067c-1.392-5.923-5.025-10.202-9.462-13.932c-0.147-0.076-0.178-0.029-0.122,0.113
		c0.148,0.216,0.296,0.433,0.444,0.649c0.305,0.936,0.341,1.918,0.463,2.882c0.214,1.686,0.375,3.378,0.529,5.07
		c0.041,0.452,0.032,0.904,0.016,1.357c-0.005,0.14-0.001,0.321-0.171,0.363c-0.167,0.041-0.249-0.124-0.327-0.237
		c-0.626-0.911-1.276-1.802-1.988-2.649c-2.333-2.775-5.081-5.039-8.267-6.771c-0.571-0.31-1.157-0.6-1.671-1.007
		c-0.915-0.774-1.898-1.438-2.967-1.989c-0.921-0.475-1.711-0.292-2.468,0.307c-1.62,1.283-2.905,2.869-4.144,4.595
		c0.421,0.096,0.786,0.061,1.146-0.011c1.47-0.294,2.755-0.992,3.939-1.879c0.281-0.21,0.459-0.217,0.753-0.03
		c2.248,1.427,3.997,3.34,5.411,5.568c2.456,3.87,3.823,8.137,4.512,12.64c0.747,4.883-0.134,9.545-1.924,14.084
		c-0.519,1.316-1.078,2.612-1.712,3.877c-0.159,0.316-0.263,0.408-0.636,0.231c-1.725-0.818-3.577-1.275-5.407-1.786
		c-0.486-0.136-0.677-0.238-0.489-0.82c0.551-1.708,0.885-3.468,0.946-5.271c0.264-2.763,1.314-5.246,2.73-7.593
		c0.765-1.269,1.361-2.576,1.515-4.085c0.215-2.111-0.472-3.811-2.114-5.121c-1.325-1.056-2.872-1.667-4.482-2.14
		C87.154,75.218,86.3,75.003,85.442,74.806z"/>
	<path style="fill:#006174;" d="M129.722,72.204c0.264,0,0.527,0,0.791,0c0.014-0.056,0.029-0.113,0.043-0.169
		c-6.743-6.695-15.03-10.193-24.299-11.637c1.597-1.132,15.124-1.283,21.119-0.312c5.981,0.969,13.178,3.135,19.763,7.502
		c-0.364-0.703-4.438-4.619-7.451-7.015c-2.677-2.128-5.483-4.071-8.797-5.196c0.358-0.132,0.691-0.151,1.033-0.165
		c1.595-0.062,3.189,0.026,4.774,0.13c4.756,0.313,9.418,1.14,13.898,2.822c3.132,1.177,6.061,2.733,8.65,4.875
		c0.751,0.621,1.445,1.31,2.165,1.968c0.335-0.003,0.445,0.285,0.598,0.491c1.636,2.21,2.966,4.6,4.089,7.103
		c1.853,4.129,3.032,8.459,3.678,12.931c0.387,2.675,0.597,5.37,0.465,8.072c-0.185,3.786-0.701,7.537-1.34,11.272
		c-0.33,1.93-0.679,3.856-1.054,5.778c-0.048,0.246-0.063,0.508-0.247,0.708c-3.661,0-7.322-0.001-10.983-0.001
		c-0.274-0.219-0.339-0.553-0.451-0.853c-1.008-2.714-2.311-5.276-3.929-7.676c-3.05-4.522-6.941-8.147-11.642-10.908
		c-0.198-0.116-0.476-0.19-0.454-0.479c0.019-0.25,0.276-0.317,0.466-0.411c2.314-1.142,4.381-2.636,6.17-4.486
		c2.327-2.407,3.984-5.2,4.615-8.532c0.368-1.94,0.399-3.886,0.033-5.832c-0.04-0.214-0.085-0.425-0.035-0.643
		c0.774-1.636,1.549-3.272,2.323-4.908c-0.043-0.03-0.086-0.059-0.13-0.088c-1.012,0.725-2.088,1.337-3.19,1.907
		c-3.455,1.787-7.125,2.916-10.958,3.508c-2.072,0.32-4.168,0.516-6.264,0.419C132.023,72.326,130.863,72.414,129.722,72.204z"/>
	<path style="fill:#66B4C1;" d="M167.602,111.364c0.231-1.316,0.455-2.632,0.693-3.946c0.552-3.04,1.045-6.089,1.391-9.161
		c0.272-2.413,0.481-4.828,0.403-7.256c-0.141-4.377-0.844-8.663-2.106-12.861c-1.26-4.193-3.062-8.126-5.523-11.751
		c-0.324-0.477-0.698-0.921-1.048-1.38c-0.432-0.76-1.028-1.397-1.599-2.044c-2.771-3.14-6-5.703-9.693-7.693
		c-3-1.617-6.157-2.804-9.454-3.638c-0.102-0.026-0.22-0.01-0.288-0.118c1.445-0.577,7.072-1.104,10.703-0.189
		c-0.513-0.435-1.123-0.715-1.733-0.974c-2.953-1.255-6.056-1.92-9.227-2.332c-3.908-0.508-7.833-0.627-11.763-0.502
		c-2.818,0.09-5.631,0.306-8.439,0.59c-4.516,0.456-8.994,1.156-13.453,1.986c-0.086,0.016-0.178,0.002-0.391,0.002
		c1.902-2.004,3.987-3.567,6.462-4.616c-5.186-0.035-10.286,0.6-15.334,1.726c-5.071,1.131-9.961,2.793-14.826,5.047
		c0.957-2.131,2.092-3.92,3.955-5.188c-10.704,2.483-19.799,7.98-28.196,15.081c0.042-1.625,0.253-3.077,0.987-4.551
		c-5.789,3.061-11.507,6.021-16.873,9.603c-0.16-0.094-0.16-0.094,0.089-0.375c2.381-2.153,4.89-4.149,7.468-6.059
		c7.199-5.333,14.981-9.639,23.206-13.163c2.02-0.774,4.005-1.637,6.06-2.324c3.406-1.139,6.863-2.078,10.393-2.751
		c0.222-0.042,0.46-0.057,0.672-0.158c3.113-0.6,6.246-1.064,9.398-1.401c5.422-0.578,10.861-0.482,16.298-0.41
		c3.387,0.045,6.771,0.221,10.145,0.531c8.113,0.747,16.034,2.35,23.621,5.399c5.631,2.263,10.721,5.378,15.006,9.71
		c5.719,5.783,9.363,12.6,10.327,20.772c0.747,6.324,0.37,12.589-0.743,18.829c-0.926,5.189-2.381,10.225-4.408,15.095
		c-0.146,0.352-0.314,0.516-0.711,0.484C168.583,111.341,168.091,111.366,167.602,111.364z"/>
	<path style="fill:#00424D;" d="M85,153.178c1.403-0.078,2.805-0.171,4.209-0.23c2.095-0.089,4.189-0.192,6.285-0.253
		c0.883-0.026,1.77-0.041,2.654-0.077c4.402-0.177,8.806-0.103,13.21-0.101c1.622,0.001,3.245,0.083,4.867,0.12
		c1.893,0.042,3.784,0.194,5.675,0.314c0.773,0.049,1.542,0.151,2.315,0.207c0.377,0.027,0.242,0.213,0.153,0.394
		c-0.833,1.697-1.422,3.482-1.843,5.32c-0.463,2.022-0.779,4.065-0.869,6.147c-0.042,0.958-0.112,1.916-0.075,2.872
		c0.137,3.561,0.64,7.068,1.6,10.507c0.947,3.392,2.185,6.667,3.773,9.81c0.058,0.115,0.223,0.253,0.075,0.382
		c-0.131,0.114-0.271-0.032-0.397-0.087c-2.473-1.078-4.691-2.554-6.737-4.305c-2.925-2.505-5.347-5.426-7.257-8.764
		c-1.944-3.397-3.355-7.009-4.234-10.826c-0.518-2.251-0.924-4.518-1.097-6.825c-0.05-0.664-0.156-1.324-0.202-1.988
		c-0.021-0.302-0.148-0.373-0.413-0.334c-1.322,0.195-2.656,0.244-3.987,0.34c-1.577,0.113-3.151,0.107-4.723,0.067
		c-3.637-0.092-7.23-0.533-10.711-1.65c-0.784-0.251-1.535-0.605-2.301-0.911C84.981,153.263,84.99,153.22,85,153.178z"/>
	<path style="fill:#00424D;" d="M151.392,71.542c0.42,1.568,0.494,3.154,0.36,4.771c-0.136,1.656-0.493,3.248-1.137,4.772
		c-0.723,1.711-1.71,3.26-2.929,4.668c-2.018,2.332-4.435,4.13-7.189,5.494c-0.105,0.052-0.272,0.071-0.269,0.23
		c0.003,0.15,0.158,0.18,0.265,0.241c3.241,1.831,6.112,4.136,8.609,6.884c2.781,3.061,5.001,6.495,6.579,10.333
		c0.33,0.803,0.658,1.605,0.938,2.427c-6.345,0.003-12.689,0.003-19.034,0.014c-0.334,0.001-0.445-0.059-0.351-0.422
		c0.421-1.623,0.717-3.274,0.952-4.931c0.172-1.21,0.352-2.426,0.364-3.656c0.004-0.45,0.16-0.887,0.112-1.333
		c0.188-0.066,0.303,0.047,0.427,0.107c2.773,1.339,5.485,2.797,8.216,4.217c0.062,0.032,0.115,0.085,0.172,0.127
		c0.454,0.355,0.987,0.58,1.477,0.877c0.096,0.058-0.031-0.091,0.041-0.105c-0.053-0.374-0.358-0.584-0.576-0.84
		c-2.497-2.932-5.471-5.301-8.745-7.3c-3.079-1.88-6.304-3.469-9.682-4.745c-1.822-0.688-3.659-1.328-5.661-1.897
		c0.941-0.331,1.764-0.613,2.582-0.909c5.072-1.835,9.735-4.401,14.003-7.71c2.197-1.703,4.215-3.591,6.101-5.615
		C148.653,75.488,150.137,73.598,151.392,71.542z"/>
	<path style="fill:#FEFEFE;" d="M42.438,138.056c-0.006,0.027,0.002,0.051,0.021,0.071c0.272,0.336,0.271,0.739,0.271,1.138
		c0.003,2.626,0.001,5.252,0.001,7.879c0,0.344,0.013,0.686,0.059,1.029c0.248,1.838-0.791,3.465-2.569,4.036
		c-0.923,0.297-1.893,0.303-2.842,0.431c-1.848,0.25-3.701,0.464-5.55,0.702c-0.228,0.029-0.466,0.112-0.679-0.06
		c-1.024,0.094-1.016,0.094-1.025-0.947c-0.033-3.732-0.07-7.464-0.108-11.196c-0.034-3.352-0.071-6.703-0.109-10.055
		c-0.023-2.083-0.044-4.166-0.082-6.249c-0.006-0.34,0.043-0.491,0.442-0.539c3.001-0.36,5.996-0.765,8.996-1.133
		c1.365-0.168,2.406,0.462,3.092,1.804c0.248,0.323,0.263,0.7,0.263,1.086c-0.003,2.358-0.002,4.716-0.001,7.073
		c0,0.417,0.018,0.832,0.054,1.249c0.064,0.735-0.124,1.412-0.645,1.953c-0.284,0.295-0.305,0.517-0.007,0.819
		C42.258,137.387,42.483,137.67,42.438,138.056z"/>
	<path style="fill:#FEFEFE;" d="M78.379,136.006l0.002,0.006c0.247,0.323,0.269,0.707,0.27,1.087
		c0.009,3.712,0.009,7.424,0.001,11.136c-0.002,0.794-0.169,0.952-0.962,0.964c-0.923,0.014-1.839,0.162-2.765,0.122
		c-0.196-0.008-0.4,0.053-0.577-0.083c-1.06-0.039-1.057-0.039-1.061-1.118c-0.013-3.145-0.028-6.29-0.043-9.436
		c-0.142-0.162-0.15-0.362-0.161-0.562c-0.007-0.127,0.019-0.284-0.065-0.368c-0.39-0.393-0.849-0.102-1.279-0.098
		c-0.255,0.002-0.462,0.09-0.477,0.401c-0.009,0.181-0.01,0.362-0.01,0.543c0,3.222,0,6.445-0.001,9.667
		c0,0.217,0,0.434-0.013,0.651c-0.023,0.404-0.23,0.662-0.633,0.681c-1.12,0.054-2.237,0.15-3.357,0.202
		c-0.11,0.005-0.213-0.038-0.296-0.116c-1.021-0.038-1.019-0.038-1.022-1.087c-0.025-9.029-0.051-18.059-0.076-27.088
		c-0.002-0.839,0-0.841,0.835-0.895c2.709-0.176,5.419-0.346,8.128-0.526c1.051-0.07,2.021,0.094,2.82,0.855
		c0.322,0.306,0.506,0.698,0.726,1.069c0.22,0.309,0.279,0.66,0.279,1.031c0.001,3.098,0.003,6.197-0.002,9.295
		c-0.001,0.677-0.188,1.297-0.645,1.801c-0.288,0.318-0.291,0.578,0.001,0.886C78.25,135.296,78.379,135.63,78.379,136.006z"/>
	<path style="fill:#FEFEFE;" d="M83.706,148.804c-1.082-0.07-1.082-0.07-1.081-1.172c0.007-9.104,0.018-18.208,0.009-27.313
		c0-0.479,0.121-0.602,0.595-0.614c2.969-0.071,5.937-0.193,8.906-0.263c1.406-0.033,2.503,0.748,3.028,2.051
		c0.233,0.2,0.243,0.474,0.243,0.748c0.003,3.21,0.003,6.419,0.001,9.629c0,0.645-0.191,1.223-0.64,1.685
		c-0.295,0.304-0.305,0.533-0.038,0.881c0.434,0.567,0.66,1.252,0.668,1.962c0.028,2.647,0.061,5.296-0.012,7.942
		c-0.032,1.176-0.064,2.354-0.09,3.531c-0.014,0.637-0.14,0.78-0.776,0.771c-1.192-0.017-2.388,0.107-3.576-0.091
		c-0.929,0.012-0.93,0.012-0.928-0.933c0.003-3.028,0.008-6.056,0.01-9.084c0-0.199-0.015-0.398-0.022-0.596
		c-0.131-0.166-0.166-0.363-0.157-0.564c0.021-0.444-0.192-0.535-0.604-0.504c-1.228,0.091-1.23,0.075-1.23,1.312
		c0,3.076,0,6.153,0,9.229c0,0.217-0.006,0.434-0.006,0.651c0.001,0.434-0.207,0.655-0.638,0.726
		c-0.883,0.145-1.77,0.066-2.655,0.076C84.378,148.87,84.028,149.02,83.706,148.804z"/>
	<path style="fill:#FEFEFE;" d="M152.818,150.435c-0.088-0.02-0.175-0.046-0.264-0.059c-0.829-0.129-0.824-0.128-0.807-0.954
		c0.039-1.92,0.078-3.84,0.109-5.759c0.076-4.764,0.142-9.529,0.22-14.293c0.042-2.554,0.108-5.107,0.141-7.661
		c0.005-0.358,0.09-0.465,0.451-0.43c2.559,0.246,5.12,0.476,7.68,0.71c0.234,0.021,0.469,0.05,0.703,0.061
		c1.569,0.073,2.775,0.734,3.51,2.161c0.586,0.796,0.374,1.706,0.341,2.58c-0.016,0.433-0.074,0.866-0.066,1.302
		c0.06,3.227-0.102,6.452-0.144,9.679c-0.024,1.865,0.021,3.736-0.093,5.598c-0.101,1.65-0.058,3.298-0.094,4.947
		c-0.042,1.947-1.451,3.221-3.393,3.034c-2.598-0.25-5.196-0.491-7.794-0.741C153.138,150.591,152.956,150.577,152.818,150.435z"/>
	<path style="fill:#FEFEFE;" d="M136.272,149.252c-1.023-0.102-1.031-0.103-1.02-1.151c0.055-5.45,0.113-10.899,0.174-16.348
		c0.032-2.824,0.068-5.648,0.11-8.472c0.014-0.941,0.067-1.881,0.064-2.821c-0.001-0.345,0.138-0.372,0.413-0.353
		c1.461,0.101,2.923,0.206,4.386,0.274c0.368,0.017,0.461,0.143,0.428,0.477c-0.024,0.25-0.001,0.504,0.002,0.757
		c0.29,0.368,0.205,0.806,0.167,1.205c-0.182,1.917-0.041,3.838-0.097,5.756c-0.096,3.312-0.062,6.627-0.135,9.939
		c-0.037,1.683-0.056,3.366-0.078,5.049c-0.01,0.765,0,0.764,0.705,0.993c0.07,0.023,0.128,0.067,0.176,0.122
		c0.883,0.181,0.892,0.181,0.904-0.674c0.049-3.389,0.089-6.778,0.137-10.167c0.061-4.258,0.133-8.516,0.179-12.775
		c0.005-0.474,0.143-0.539,0.588-0.496c1.351,0.131,2.708,0.216,4.064,0.28c0.458,0.022,0.664,0.147,0.578,0.633
		c-0.037,0.209,0.005,0.433,0.01,0.65c0.157,0.2,0.168,0.438,0.158,0.674c-0.134,2.933-0.044,5.869-0.136,8.801
		c-0.044,1.394-0.069,2.788-0.074,4.181c-0.011,3.297-0.182,6.591-0.122,9.889c0.011,0.614-0.073,1.23-0.139,1.84
		c-0.085,0.788-0.561,1.364-1.198,1.799c-0.713,0.487-1.499,0.668-2.371,0.593c-1.352-0.116-2.707-0.195-4.062-0.279
		c-1.138-0.071-2.278-0.106-3.413-0.224C136.523,149.389,136.383,149.358,136.272,149.252z"/>
	<path style="fill:#FEFEFE;" d="M100.567,148.39c-0.253-0.006-0.509-0.036-0.76-0.012c-0.353,0.034-0.465-0.067-0.418-0.442
		c0.576-4.561,1.141-9.124,1.703-13.687c0.489-3.97,0.969-7.942,1.454-11.912c0.11-0.899,0.229-1.796,0.328-2.696
		c0.03-0.269,0.131-0.366,0.411-0.364c2.519,0.02,5.038,0.032,7.557,0.031c0.273,0,0.335,0.114,0.363,0.343
		c0.038,0.321-0.016,0.656,0.136,0.96c0.337,0.69,0.285,1.45,0.366,2.18c0.47,4.252,0.938,8.504,1.4,12.757
		c0.438,4.037,0.868,8.074,1.311,12.11c0.088,0.803-0.043,0.93-0.824,0.897c-0.906-0.038-1.813-0.006-2.72-0.016
		c-0.252-0.003-0.512,0.024-0.73-0.149c-0.918-0.047-0.93-0.046-1.04-0.972c-0.131-1.093-0.181-2.195-0.376-3.281
		c-0.053-0.074-0.118-0.147-0.126-0.238c-0.076-0.869-0.343-0.798-1.048-0.801c-0.507-0.002-1.014-0.005-1.521,0.001
		c-0.658,0.007-0.739,0.071-0.809,0.739c-0.131,1.261-0.313,2.515-0.455,3.775c-0.089,0.791-0.219,0.916-1.028,0.924
		c-0.833,0.008-1.666,0.004-2.499,0C101.007,148.537,100.767,148.551,100.567,148.39z"/>
	<path style="fill:#FEFEFE;" d="M48.012,151.312c-0.054-0.004-0.109-0.006-0.162-0.014c-0.336-0.051-0.765,0.256-0.97,0
		c-0.147-0.183,0.013-0.618,0.048-0.94c0.304-2.806,0.611-5.612,0.918-8.419c0.311-2.842,0.621-5.685,0.934-8.527
		c0.305-2.77,0.613-5.54,0.919-8.31c0.097-0.881,0.205-1.762,0.279-2.645c0.029-0.351,0.147-0.494,0.518-0.525
		c2.308-0.194,4.612-0.431,6.92-0.619c0.92-0.075,0.803-0.238,0.926,0.754c0.022,0.178,0.068,0.352,0.103,0.528
		c0.263,0.341,0.216,0.759,0.265,1.146c0.479,3.774,0.932,7.551,1.391,11.328c0.579,4.766,1.157,9.531,1.729,14.297
		c0.071,0.593-0.078,0.851-0.597,0.884c-1.03,0.064-2.055,0.18-3.085,0.244c-0.219,0.014-0.432-0.03-0.644-0.078
		c-0.877,0.01-0.877,0.01-0.983-0.886c-0.123-1.042-0.246-2.083-0.369-3.125c-0.182-0.2-0.218-0.455-0.243-0.706
		c-0.028-0.284-0.169-0.436-0.455-0.421c-0.813,0.044-1.625,0.109-2.43,0.233c-0.321,0.05-0.359,0.312-0.388,0.573
		c-0.154,1.367-0.282,2.736-0.44,4.103c-0.073,0.635-0.217,0.846-0.797,0.91c-1.025,0.112-2.049,0.24-3.08,0.293
		C48.21,151.396,48.103,151.386,48.012,151.312z"/>
	<path style="fill:#FEFEFE;" d="M179.16,153.31c-0.924-0.147-0.928-0.147-1.018-1.065c-0.112-1.151-0.217-2.302-0.324-3.453
		c-0.087-0.098-0.128-0.216-0.163-0.34c-0.199-0.709-0.2-0.706-0.942-0.792c-0.576-0.066-1.153-0.133-1.726-0.219
		c-0.414-0.062-0.586,0.094-0.642,0.505c-0.173,1.257-0.33,2.517-0.517,3.772c-0.138,0.928-0.27,1.015-1.211,0.902
		c-0.81-0.097-1.619-0.203-2.43-0.283c-0.22-0.022-0.435-0.045-0.59-0.229c-0.383-0.096-0.93,0.061-1.121-0.236
		c-0.156-0.243,0.056-0.725,0.109-1.1c0.46-3.298,0.922-6.595,1.382-9.893c0.485-3.478,0.966-6.956,1.453-10.433
		c0.311-2.223,0.639-4.443,0.933-6.668c0.049-0.373,0.165-0.477,0.533-0.427c1.847,0.252,3.697,0.483,5.546,0.722
		c0.538,0.07,1.075,0.176,1.615,0.201c0.468,0.021,0.637,0.219,0.607,0.665c-0.012,0.177,0.036,0.357,0.057,0.536
		c0.363,0.572,0.252,1.233,0.317,1.852c0.317,3.046,0.57,6.098,0.855,9.146c0.279,2.977,0.543,5.955,0.807,8.933
		c0.226,2.545,0.453,5.09,0.7,7.633c0.078,0.807-0.094,1-0.892,0.886c-0.898-0.128-1.796-0.248-2.695-0.369
		C179.569,153.526,179.335,153.496,179.16,153.31z"/>
	<path style="fill:#008299;" d="M108.402,35.835c-2.769,0.08-5.535,0.224-8.295,0.464c-3.083,0.268-6.15,0.664-9.186,1.28
		c-0.052,0.011-0.108,0.002-0.163,0.003c-0.19-0.229-0.1-0.481-0.054-0.725c0.285-1.52,1.008-2.864,1.75-4.187
		c1.323-2.359,2.967-4.492,4.75-6.52c0.201,0.058,0.196,0.058,0.216,0.295c0.166,2.059,0.61,4.043,1.607,5.872
		c0.216,0.397,0.488,0.763,0.71,1.156c0.221,0.392,0.381,0.331,0.597-0.01c1.497-2.366,3.276-4.511,5.19-6.547
		c4.385-4.667,9.412-8.479,15.15-11.336c1.437-0.715,2.901-1.371,4.418-1.912c0.079,0.215-0.113,0.28-0.147,0.412
		c-1.128,1.984-2.418,3.869-3.545,5.853c-2.158,3.799-4.229,7.639-5.552,11.83c-0.349,1.107-0.621,2.232-0.813,3.378
		c-0.114,0.686-0.148,0.706-0.836,0.702c-1.755-0.01-3.511,0.039-5.266-0.05C108.759,35.783,108.573,35.744,108.402,35.835z"/>
	<path style="fill:#FEFEFE;" d="M124.729,144.001c1.202,0.098,1.196,0.098,1.209-1.081c0.012-1.101,0.054-2.201,0.055-3.302
		c0-0.323,0.112-0.395,0.408-0.379c1.477,0.078,2.954,0.148,4.431,0.202c0.276,0.01,0.332,0.118,0.32,0.36
		c-0.014,0.288,0.001,0.577,0.004,0.865c0.195,0.21,0.151,0.473,0.16,0.723c0.06,1.65-0.052,3.297-0.121,4.944
		c-0.057,1.364-1.387,2.548-2.937,2.627c-0.759,0.038-1.523,0.066-2.28-0.06c-0.143-0.024-0.289-0.035-0.434-0.03
		c-1.741,0.062-3.475-0.178-5.216-0.115c-0.252,0.009-0.512,0.015-0.724-0.167c-1.079-0.126-1.086-0.126-1.078-1.221
		c0.045-6.324,0.091-12.647,0.142-18.971c0.016-1.92,0.119-3.842,0.054-5.758c-0.064-1.864,1.709-3.164,3.155-3.107
		c1.917,0.075,3.835,0.132,5.752,0.203c1.103,0.04,2.206,0.112,3.309,0.125c0.377,0.004,0.461,0.129,0.434,0.466
		c-0.022,0.269,0.007,0.542,0.014,0.814c0.18,0.255,0.148,0.55,0.158,0.838c0.076,2.242-0.117,4.48-0.116,6.721
		c0,0.66-0.144,0.794-0.804,0.802c-1.012,0.012-2.018-0.152-3.032-0.118c-0.162,0.005-0.325-0.033-0.441-0.17
		c-0.334-0.045-0.823,0.025-0.962-0.164c-0.175-0.239-0.076-0.687-0.076-1.045c-0.002-0.794,0.008-1.588,0.013-2.382
		c-0.157-0.18-0.158-0.403-0.155-0.619c0.005-0.379-0.193-0.504-0.543-0.506c-1.616-0.008-1.385-0.081-1.394,1.292
		c-0.032,5.004-0.169,10.007-0.118,15.012c0.008,0.741-0.134,1.479-0.105,2.226c0.026,0.681,0.012,0.682,0.679,0.855
		C124.577,143.904,124.656,143.947,124.729,144.001z"/>
	<path style="fill:#008299;" d="M144.1,74.583c-0.768,0.866-1.609,1.608-2.442,2.349c-2.615,2.33-5.4,4.435-8.39,6.266
		c-4.108,2.516-8.457,4.444-13.184,5.459c-0.653,0.14-1.314,0.244-1.97,0.37c-0.255,0.049-0.409-0.006-0.458-0.3
		c-0.722-4.338-0.462-8.551,1.6-12.531c0.249-0.481,0.565-0.928,0.838-1.398c0.14-0.241,0.249-0.314,0.546-0.157
		c2.031,1.073,4.234,1.548,6.497,1.804c1.478,0.167,2.959,0.252,4.444,0.191c4.031-0.165,7.974-0.883,11.857-1.954
		C143.638,74.628,143.829,74.518,144.1,74.583z"/>
	<path style="fill:#006174;" d="M72.82,112.885c-1.172,0.002-2.345-0.025-3.516,0.013c-2.184,0.072-4.362,0.235-6.541,0.408
		c-3.242,0.257-6.452,0.713-9.644,1.327c-3.488,0.671-6.858,1.752-10.202,2.928c-0.714,0.251-1.432,0.494-2.196,0.569
		c-1.465,0.143-2.651-0.468-3.701-1.386c-1.014-0.886-1.837-1.94-2.528-3.1c-0.179-0.3-0.152-0.404,0.156-0.551
		c2.623-1.251,5.356-2.179,8.191-2.801c1.41-0.309,2.831-0.564,4.248-0.839c0.159-0.031,0.324-0.027,0.486-0.039
		c0.49,0.042,0.974-0.003,1.455-0.101c2.479-0.085,4.955-0.103,7.435,0.025c2.757,0.143,5.477,0.517,8.177,1.068
		c2.276,0.465,4.506,1.089,6.66,1.969c0.337,0.138,0.678,0.244,1.048,0.259C72.53,112.642,72.768,112.607,72.82,112.885z"/>
	<path style="fill:#A1A9AC;" d="M69.776,97.531c0.79,0.057,1.541,0.266,2.282,0.511c5.865,1.937,11.821,3.57,17.723,5.385
		c3.184,0.979,6.407,1.83,9.556,2.926c1.117,0.389,2.27,0.636,3.467,0.357c0.341-0.08,0.679-0.198,0.902-0.468
		c0.243-0.295,0.441-0.297,0.774-0.123c2.345,1.224,4.698,2.432,7.061,3.62c0.428,0.215,0.411,0.384,0.111,0.687
		c-1.051,1.064-2.264,1.921-3.483,2.773c-0.234,0.163-0.455,0.076-0.677,0.027c-2.109-0.468-4.141-1.188-6.17-1.915
		c-8.084-2.897-16.036-6.132-23.982-9.384c-2.548-1.043-5.087-2.107-7.629-3.161c-0.05-0.021-0.099-0.046-0.151-0.061
		c-0.395-0.12-0.648-0.377-0.574-0.797C69.065,97.466,69.469,97.566,69.776,97.531z"/>
	<path style="fill:#FEFEFE;" d="M65.286,90.859c-1.243,3.133-1.25,6.397-1.642,9.62c-0.29-0.013-0.509-0.219-0.757-0.34
		c-2.214-1.076-4.419-2.17-6.635-3.239c-0.351-0.169-0.367-0.266-0.082-0.53c5.467-5.077,11.759-8.506,19.205-9.633
		c0.376-0.057,0.756-0.083,1.135-0.12c0.174-0.017,0.307-0.05,0.245,0.242c-0.468,2.208-0.484,4.459-0.595,6.7
		c-0.053,1.066-0.076,2.135-0.107,3.202c-0.006,0.218,0.015,0.41-0.317,0.294c-1.401-0.49-2.858-0.78-4.283-1.184
		c-0.611-0.174-1.11-0.519-1.591-0.903c-1.39-1.108-2.682-2.326-3.972-3.546C65.718,91.26,65.546,91.102,65.286,90.859z"/>
	<path style="fill:#008299;" d="M72.82,112.885c-3.316-0.889-6.523-2.183-9.946-2.67c-1.569-0.223-3.137-0.442-4.716-0.6
		c-3.054-0.305-6.113-0.172-9.17-0.201c-0.262,0.037-0.539,0.184-0.758-0.103c1.983-0.329,3.976-0.548,5.982-0.691
		c2.188-0.156,4.377-0.236,6.568-0.171c3.241,0.096,6.462,0.405,9.666,0.909c1.841,0.289,3.681,0.602,5.546,0.691
		c3.057,0.146,5.778-0.839,8.249-2.568c0.44-0.308,0.74-0.307,1.195-0.049c1.589,0.902,3.197,1.775,5.025,2.36
		c-0.656,0.642-1.383,1.077-2.125,1.477c-2.187,1.18-4.546,1.744-7.009,1.961C78.474,113.48,75.651,113.115,72.82,112.885z"/>
	<path style="fill:#006174;" d="M108.402,35.835c0.169-0.159,0.379-0.093,0.57-0.093c1.775-0.006,3.549-0.01,5.324,0.001
		c0.334,0.002,0.497-0.045,0.562-0.444c0.698-4.286,2.498-8.167,4.491-11.966c1.611-3.072,3.391-6.048,5.317-8.934
		c0.079-0.119,0.128-0.264,0.28-0.318c-0.1,0.632-0.422,1.187-0.631,1.781c-0.89,2.533-1.504,5.12-1.783,7.798
		c-0.468,4.489,0.093,8.827,1.716,13.032c0.005,0.014-0.007,0.034-0.016,0.073c-1.733-0.184-3.467-0.377-5.204-0.549
		c-1.365-0.135-2.733-0.244-4.099-0.365c-0.821,0.105-1.646,0.041-2.469,0.042c-0.95,0.001-1.901,0.054-2.85-0.032
		C109.208,35.851,108.805,35.843,108.402,35.835z"/>
	<path style="fill:#006174;" d="M183.056,81.765c-1.064-0.9-2.175-1.738-3.356-2.479c-0.221-0.139-0.309-0.306-0.348-0.565
		c-0.752-5.058-1.885-10.011-4.011-14.697c-0.751-1.656-1.63-3.228-2.74-4.669c-0.024-0.104,0.016-0.145,0.121-0.123
		c3.462,2.487,6.402,5.495,8.905,8.938c0.801,3.143,1.291,6.34,1.568,9.567c0.101,1.169,0.025,2.351,0.018,3.527
		C183.213,81.443,183.205,81.628,183.056,81.765z"/>
	<path style="fill:#00424D;" d="M93.393,64.89c2.232,1.017,4.287,2.316,6.186,3.866c2.356,1.924,4.349,4.175,6.099,6.855
		c0-0.613,0.037-1.088-0.006-1.554c-0.229-2.477-0.461-4.954-0.831-7.416c-0.037-0.249-0.023-0.506-0.033-0.759
		c1.383,1.794,2.207,3.843,2.71,6.028c0.413,1.795,0.565,3.621,0.699,5.459c0.105,1.434-0.009,2.85-0.05,4.271
		c-0.033,1.175-0.214,2.345-0.433,3.535c-0.21-0.564-0.415-1.129-0.63-1.691c-1.192-3.124-2.769-6.039-4.702-8.769
		c-1.917-2.706-4.093-5.186-6.45-7.509c-0.732-0.721-1.505-1.402-2.321-2.03C93.535,65.102,93.472,64.986,93.393,64.89z"/>
	<path style="fill:#A1A9AC;" d="M20.239,127.382c-0.116-0.009-1.283-0.965-1.283-1.037c-0.002-0.207,0.175-0.306,0.295-0.429
		c0.965-0.983,1.936-1.958,2.906-2.936c2.64-2.663,5.284-5.322,7.916-7.993c0.22-0.224,0.325-0.258,0.526,0.01
		c0.718,0.956,1.444,1.906,2.196,2.836c0.234,0.289,0.138,0.4-0.111,0.58c-4.053,2.926-8.101,5.861-12.15,8.792
		C20.433,127.277,20.32,127.333,20.239,127.382z"/>
	<path style="fill:#66B4C1;" d="M183.056,81.765c0.222-4.333-0.495-8.565-1.369-12.782c-0.054-0.259-0.269-0.528-0.06-0.813
		c5.008,6.932,6.65,15.476,6.596,19.727C186.799,85.528,184.997,83.587,183.056,81.765z"/>
	<path style="fill:#008299;" d="M136.272,149.252c2.114,0.122,4.227,0.255,6.342,0.362c0.864,0.044,1.726,0.229,2.597,0.078
		c1.459-0.254,2.381-1.358,2.402-2.839c0.067-4.818,0.143-9.636,0.216-14.455c0.035-2.282,0.068-4.565,0.11-6.847
		c0.021-1.14,0.059-2.28,0.089-3.42c1.183,0.066,1.104-0.181,1.045,1.1c-0.113,2.445-0.009,4.892-0.11,7.334
		c-0.096,2.3-0.009,4.601-0.107,6.899c-0.103,2.427-0.021,4.855-0.113,7.279c-0.045,1.176-0.051,2.352-0.074,3.528
		c-0.026,1.388-1.216,2.632-2.604,2.717c-1.107,0.068-2.205-0.099-3.308-0.145c-1.462-0.061-2.921-0.193-4.382-0.292
		c-0.541-0.037-1.083-0.087-1.624-0.091c-0.365-0.003-0.534-0.112-0.486-0.5C136.294,149.726,136.271,149.488,136.272,149.252z"/>
	<path style="fill:#A1A9AC;" d="M123.5,94.639c-0.046,0.069-0.095,0.144-0.147,0.218c-0.562,0.801-1.132,1.596-1.682,2.405
		c-0.159,0.234-0.305,0.285-0.582,0.197c-2.913-0.929-5.83-1.846-8.749-2.755c-0.324-0.101-0.384-0.216-0.237-0.532
		c0.504-1.084,0.98-2.181,1.461-3.275c0.087-0.198,0.168-0.342,0.435-0.274c3.239,0.831,6.403,1.847,9.233,3.697
		C123.343,94.394,123.502,94.444,123.5,94.639z"/>
	<path style="fill:#008299;" d="M152.818,150.435c1.9,0.078,3.786,0.324,5.68,0.482c0.884,0.074,1.764,0.198,2.648,0.267
		c1.574,0.122,3.184-0.83,3.181-2.82c-0.004-2.572,0.074-5.145,0.121-7.717c0.081-4.491,0.16-8.983,0.252-13.474
		c0.02-0.992,0.157-1.986-0.138-2.962c0.794,0.588,1.219,1.364,1.206,2.363c-0.047,3.566-0.052,7.133-0.161,10.697
		c-0.052,1.701-0.044,3.401-0.089,5.102c-0.068,2.567-0.119,5.135-0.194,7.702c-0.033,1.145-1.004,2.131-2.217,2.325
		c-1.018,0.162-2.014-0.085-3.017-0.152c-1.368-0.091-2.731-0.266-4.097-0.392c-0.953-0.088-1.908-0.163-2.864-0.225
		c-0.272-0.018-0.333-0.142-0.32-0.38C152.823,150.979,152.816,150.707,152.818,150.435z"/>
	<path style="fill:#FEFEFE;" d="M78.495,93.886c0.115-1.124,0.229-2.247,0.355-3.48c1.206,1.307,2.489,2.361,3.794,3.387
		c0.926,0.729,1.838,1.481,2.81,2.144c0.56,0.382,0.791,0.862,0.844,1.484c0.065,0.748-0.032,1.482-0.195,2.211
		c-0.048,0.216-0.109,0.294-0.359,0.205c-2.032-0.723-4.129-1.221-6.224-1.713c-0.543-0.128-0.827-0.343-0.869-0.899
		c-0.055-0.356-0.157-0.689-0.16-1.011C78.368,95.445,78.445,94.706,78.495,93.886z"/>
	<path style="fill:#A1A9AC;" d="M117.617,113.751c1.226-1.592,2.47-3.171,3.675-4.779c1.413-1.883,2.798-3.787,4.18-5.693
		c0.19-0.262,0.381-0.379,0.71-0.37c0.851,0.023,1.703,0.018,2.554,0.003c0.332-0.006,0.417,0.103,0.321,0.416
		c-0.997,3.271-1.908,6.57-3.059,9.793c-0.083,0.234-0.152,0.487-0.363,0.656c-0.179,0.115-0.381,0.096-0.579,0.096
		c-2.293,0.001-4.586,0.002-6.879-0.002C117.987,113.871,117.776,113.922,117.617,113.751z"/>
	<path style="fill:#00424D;" d="M85.442,74.806c2.906,0.429,5.682,1.205,7.836,3.346c1.251,1.243,1.618,2.808,1.468,4.58
		c-0.156,1.837-1.04,3.328-1.933,4.835c-0.941,1.588-1.573,3.292-2.036,5.067c-0.153,0.587-0.284,1.181-0.425,1.771
		c-0.077-1.044,0.025-2.089-0.1-3.138c-0.166-1.384-0.402-2.744-0.882-4.051c-0.167-0.454-0.053-0.705,0.32-1.002
		c0.952-0.758,1.779-1.654,2.346-2.739c0.956-1.827,0.528-3.57-0.551-5.159c-1.126-1.659-2.842-2.512-4.717-3.076
		C86.321,75.107,85.883,74.951,85.442,74.806z"/>
	<path style="fill:#008399;" d="M90.941,148.553c1.243-0.11,2.489-0.067,3.734-0.089c0.363-0.006,0.491-0.103,0.491-0.491
		c0.007-3.821,0.035-7.643,0.058-11.464c0.005-0.887-0.219-1.688-0.908-2.295c-0.194-0.171-0.168-0.26,0.017-0.408
		c0.69-0.554,0.908-1.284,0.903-2.16c-0.017-2.934,0.016-5.868,0.031-8.802c0.002-0.453,0-0.905-0.104-1.349
		c0.673,0.279,0.802,0.939,1.057,1.511c0.073,0.116,0.049,0.246,0.049,0.371c0.001,3.278,0.001,6.556,0,9.834
		c0,0.125,0.024,0.255-0.049,0.371c-0.094,0.553-0.345,1.018-0.785,1.371c-0.239,0.192-0.308,0.339-0.028,0.587
		c0.603,0.534,0.835,1.226,0.831,2.038c-0.02,3.857-0.022,7.714-0.013,11.571c0.001,0.414-0.1,0.529-0.534,0.562
		c-1.356,0.105-2.714,0.018-4.067,0.097c-0.439,0.026-0.577-0.122-0.547-0.547C91.093,149.026,91.194,148.747,90.941,148.553z"/>
	<path style="fill:#008299;" d="M179.16,153.31c1.2,0.162,2.401,0.316,3.599,0.49c0.372,0.054,0.552,0.031,0.506-0.441
		c-0.329-3.349-0.634-6.7-0.941-10.05c-0.308-3.369-0.609-6.739-0.914-10.109c-0.233-2.575-0.466-5.15-0.699-7.724
		c0.993,0.193,0.955,0.196,1.04,1.231c0.183,2.215,0.412,4.426,0.616,6.64c0.159,1.728,0.305,3.457,0.464,5.185
		c0.205,2.232,0.421,4.462,0.626,6.694c0.16,1.746,0.308,3.493,0.463,5.24c0.125,1.404,0.239,2.81,0.389,4.211
		c0.036,0.337,0.01,0.477-0.367,0.42c-1.393-0.21-2.785-0.432-4.184-0.591c-0.441-0.05-0.545-0.222-0.529-0.607
		C179.238,153.704,179.185,153.506,179.16,153.31z"/>
	<path style="fill:#008299;" d="M110.143,148.39c1.249,0.011,2.498-0.002,3.745,0.048c0.382,0.015,0.425-0.103,0.391-0.415
		c-0.204-1.852-0.399-3.705-0.6-5.558c-0.308-2.842-0.618-5.683-0.928-8.525c-0.345-3.165-0.702-6.33-1.033-9.497
		c-0.133-1.276-0.342-2.545-0.377-3.831c0.906-0.014,0.882-0.012,0.977,0.889c0.272,2.587,0.57,5.172,0.849,7.759
		c0.233,2.156,0.447,4.314,0.682,6.469c0.235,2.155,0.493,4.308,0.727,6.463c0.236,2.174,0.469,4.348,0.678,6.525
		c0.092,0.958,0.064,0.963-0.913,0.96c-1.142-0.004-2.285-0.05-3.425-0.001c-0.526,0.023-0.714-0.163-0.737-0.635
		C110.168,148.824,110.155,148.607,110.143,148.39z"/>
	<path style="fill:#008299;" d="M57.505,150.417c1.223-0.109,2.445-0.237,3.67-0.317c0.441-0.029,0.577-0.145,0.519-0.611
		c-0.628-5.046-1.231-10.096-1.847-15.144c-0.454-3.718-0.918-7.436-1.374-11.154c-0.024-0.196-0.019-0.397-0.027-0.595
		c0.835-0.048,0.856-0.051,0.957,0.755c0.275,2.204,0.526,4.41,0.794,6.614c0.272,2.24,0.556,4.479,0.831,6.718
		c0.231,1.882,0.455,3.764,0.684,5.646c0.279,2.294,0.561,4.588,0.841,6.881c0.074,0.609,0.135,1.221,0.219,1.829
		c0.042,0.302-0.162,0.264-0.336,0.28c-1.205,0.105-2.409,0.233-3.617,0.299c-0.362,0.02-0.808,0.288-1.077-0.001
		c-0.226-0.242-0.15-0.689-0.179-1.049C57.558,150.516,57.525,150.467,57.505,150.417z"/>
	<path style="fill:#008299;" d="M31.151,153.283c2.818-0.364,5.641-0.698,8.453-1.101c1.926-0.276,3.069-1.733,3.041-3.681
		c-0.042-2.935-0.066-5.87-0.087-8.806c-0.004-0.526-0.021-1.048-0.099-1.568c0.7,0.377,1.008,0.996,1.095,1.758
		c0.165,1.445,0.064,2.895,0.086,4.342c0.03,1.921-0.063,3.846,0.036,5.762c0.096,1.866-1.505,3.287-3.131,3.494
		c-2.992,0.382-5.985,0.755-8.976,1.151c-0.35,0.046-0.415-0.087-0.412-0.373C31.161,153.935,31.154,153.609,31.151,153.283z"/>
	<path style="fill:#66B4C1;" d="M97.206,26.149c0.062,0.304-0.203,0.43-0.351,0.606c-2.035,2.415-3.909,4.936-5.229,7.827
		c-0.436,0.955-0.827,1.928-0.867,3c-1.225,0.311-2.449,0.628-3.677,0.928c-0.361,0.088-0.229-0.174-0.17-0.316
		c0.347-0.835,0.671-1.683,1.069-2.493c1.412-2.876,3.197-5.476,5.717-7.512C94.762,27.33,95.917,26.624,97.206,26.149z"/>
	<path style="fill:#FEFEFE;" d="M77.584,105.291c-3.04-0.243-6.079-0.491-9.119-0.727c-1.043-0.081-2.088-0.135-3.132-0.199
		c-0.087-0.005-0.181,0.027-0.233-0.077l-0.01,0.012c0.366,0.046,0.286-0.242,0.312-0.433c0.218-1.597,0.403-3.197,0.463-4.899
		c3.845,2.802,8.01,4.839,12.504,6.202C78.147,105.472,77.853,105.302,77.584,105.291z"/>
	<path style="fill:#FEFEFE;" d="M78.209,86.613c1.206-0.269,2.339-0.3,3.472-0.264c0.886,0.028,1.769,0.142,2.655,0.183
		c0.415,0.019,0.654,0.215,0.857,0.55c0.827,1.366,1.155,2.879,1.332,4.437c0.106,0.936,0.14,1.876,0.091,2.911
		C83.981,91.625,81.079,89.2,78.209,86.613z"/>
	<path style="fill:#FEFEFE;" d="M41.786,107.101c-2.027,0.265-3.929,0.745-5.814,1.291c-0.332,0.096-0.456-0.074-0.604-0.293
		c-0.715-1.066-1.14-2.259-1.493-3.478c-0.397-1.372-0.677-2.771-0.88-4.321C35.338,103.404,38.435,105.358,41.786,107.101z"/>
	<path style="fill:#008299;" d="M141.566,144.679c-1.072,0.025-1.082,0.025-1.07-1.012c0.046-4.039,0.097-8.077,0.15-12.116
		c0.033-2.517,0.069-5.034,0.11-7.551c0.013-0.795,0.047-1.59,0.072-2.385c0.999,0.003,1.002,0.003,0.998,0.956
		c-0.009,2.247,0.034,4.495-0.047,6.739c-0.096,2.643-0.003,5.288-0.109,7.929C141.57,139.72,141.634,142.2,141.566,144.679z"/>
	<path style="fill:#008299;" d="M119.603,148.589c1.664-0.072,3.323,0.078,4.985,0.107c1.12,0.02,2.24,0.098,3.36,0.106
		c1.917,0.013,3.11-1.197,3.124-3.093c0.013-1.681,0.054-3.362,0.083-5.043c1.062,0.046,1.093,0.047,1.055,1.059
		c-0.067,1.755-0.137,3.512-0.068,5.265c0.075,1.903-1.385,3.11-3.046,3.094c-2.566-0.025-5.131-0.18-7.696-0.275
		c-0.489-0.018-0.978-0.024-1.467-0.02c-0.277,0.002-0.457-0.02-0.367-0.39C119.629,149.142,119.594,148.86,119.603,148.589z"/>
	<path style="fill:#FEFEFE;" d="M65.099,104.288c-1.231,0.079-2.455-0.082-3.683-0.122c-1.702-0.056-3.404-0.113-5.107-0.102
		c-0.391,0.003-0.471-0.118-0.474-0.488c-0.011-1.234,0.002-2.464,0.222-3.683c0.055-0.303,0.107-0.606,0.263-0.919
		c0.924,0.609,1.834,1.223,2.758,1.815c1.892,1.21,3.818,2.363,5.842,3.344c0.069,0.033,0.188,0.036,0.168,0.167
		C65.089,104.299,65.099,104.288,65.099,104.288z"/>
	<path style="fill:#008299;" d="M124.729,144.001c-1.06,0.054-1.067,0.053-1.058-0.995c0.033-4,0.069-8.001,0.109-12.001
		c0.021-2.081,0.059-4.163,0.07-6.244c0.002-0.338,0.066-0.501,0.441-0.457c0.286,0.033,0.579,0.009,0.868,0.019
		c0.992,0.033,0.993,0.035,0.983,1.028c-0.001,0.09-0.011,0.18-0.016,0.27c-1.199-0.03-1.168-0.029-1.204,1.168
		c-0.121,3.946-0.034,7.894-0.121,11.839C124.759,140.42,124.753,142.21,124.729,144.001z"/>
	<path style="fill:#008299;" d="M66.952,149.687c1.154-0.083,2.307-0.192,3.462-0.236c0.498-0.019,0.669-0.142,0.665-0.679
		c-0.027-3.588-0.007-7.175-0.023-10.763c-0.002-0.415,0.094-0.572,0.528-0.554c0.431,0.018,0.868-0.031,1.298-0.083
		c0.328-0.04,0.412,0.092,0.388,0.391c-0.025,0.306-0.019,0.615-0.026,0.922c-1.172,0.035-1.172,0.035-1.172,1.182
		c0,1.667-0.062,3.338,0.017,5.001c0.084,1.757,0.009,3.513,0.065,5.267c0.013,0.393-0.092,0.525-0.504,0.546
		c-1.389,0.071-2.777,0.179-4.163,0.3c-0.436,0.038-0.594-0.102-0.542-0.534C66.975,150.198,66.951,149.941,66.952,149.687z"/>
	<path style="fill:#008299;" d="M83.706,148.804c1.202-0.186,2.417-0.088,3.625-0.164c0.445-0.028,0.48-0.196,0.479-0.555
		c-0.01-3.222-0.007-6.444-0.005-9.666c0-0.307,0.009-0.615,0.019-0.922c0.024-0.766,0.025-0.766,0.812-0.798
		c0.307-0.012,0.616-0.007,0.92-0.044c0.334-0.04,0.519,0.028,0.474,0.418c-0.033,0.286-0.021,0.577-0.028,0.866
		c-1.171,0.002-1.169,0.002-1.171,1.17c-0.004,3.408-0.018,6.816-0.004,10.225c0.002,0.453-0.122,0.567-0.572,0.575
		c-1.392,0.023-2.783,0.097-4.174,0.172c-0.294,0.016-0.396-0.067-0.382-0.353C83.713,149.421,83.704,149.112,83.706,148.804z"/>
	<path style="fill:#008299;" d="M74.347,149.24c1.186-0.159,2.382-0.166,3.574-0.214c0.388-0.016,0.534-0.091,0.533-0.514
		c-0.016-3.879-0.008-7.758-0.012-11.637c0-0.287-0.04-0.575-0.061-0.862c0.74,0.288,0.903,0.962,1.065,1.625
		c0.046,0.19,0.024,0.397,0.024,0.597c0.001,3.809-0.01,7.618,0.013,11.426c0.003,0.52-0.184,0.644-0.653,0.661
		c-1.356,0.048-2.711,0.126-4.065,0.213c-0.343,0.022-0.455-0.093-0.428-0.424C74.361,149.821,74.346,149.53,74.347,149.24z"/>
	<path style="fill:#A0A8AB;" d="M89.418,116.065c0.643-0.31,1.283-0.627,1.93-0.927c1.216-0.564,2.438-1.115,3.655-1.678
		c0.238-0.11,0.441-0.175,0.712-0.041c1.95,0.962,3.912,1.899,5.973,2.606c0.043,0.015,0.119,0.018,0.09,0.128
		c-4.104,0-8.217,0-12.33,0C89.438,116.124,89.428,116.095,89.418,116.065z"/>
	<path style="fill:#008299;" d="M48.012,151.312c1.05-0.188,2.115-0.246,3.175-0.342c0.783-0.071,0.769-0.063,0.846-0.834
		c0.144-1.438,0.313-2.873,0.458-4.311c0.034-0.336,0.136-0.5,0.52-0.517c0.865-0.039,1.729-0.128,2.591-0.221
		c0.335-0.036,0.458,0.077,0.464,0.404c0.006,0.305,0.056,0.61,0.086,0.915c-0.737,0.071-1.472,0.167-2.211,0.203
		c-0.38,0.019-0.366,0.23-0.394,0.497c-0.162,1.543-0.349,3.084-0.501,4.629c-0.034,0.347-0.163,0.433-0.498,0.461
		c-1.367,0.117-2.732,0.256-4.093,0.424c-0.545,0.067-0.614-0.177-0.537-0.611C47.96,151.779,47.982,151.545,48.012,151.312z"/>
	<path style="fill:#008299;" d="M100.567,148.39c1.159-0.01,2.318-0.035,3.477-0.02c0.366,0.005,0.498-0.101,0.537-0.47
		c0.166-1.547,0.372-3.089,0.542-4.636c0.03-0.277,0.117-0.374,0.394-0.37c0.924,0.012,1.848,0.011,2.772,0
		c0.245-0.003,0.356,0.065,0.375,0.326c0.022,0.306,0.102,0.607,0.063,0.917c-0.652,0.002-1.307,0.033-1.957-0.006
		c-0.418-0.025-0.58,0.128-0.624,0.523c-0.146,1.311-0.328,2.618-0.459,3.931c-0.106,1.071-0.082,1.073-1.161,1.074
		c-1.142,0.001-2.284-0.001-3.426,0.007c-0.695,0.005-0.698,0.012-0.628-0.688C100.492,148.781,100.535,148.586,100.567,148.39z"/>
	<path style="fill:#008299;" d="M169.596,152.109c1.166,0.133,2.333,0.256,3.496,0.407c0.334,0.043,0.466,0.001,0.512-0.383
		c0.184-1.524,0.427-3.04,0.622-4.562c0.04-0.309,0.114-0.385,0.431-0.334c0.873,0.139,1.752,0.252,2.632,0.336
		c0.326,0.031,0.488,0.112,0.471,0.467c-0.012,0.249,0.036,0.501,0.057,0.752c-0.714-0.1-1.43-0.192-2.142-0.304
		c-0.32-0.051-0.354,0.141-0.386,0.373c-0.166,1.197-0.362,2.391-0.5,3.591c-0.163,1.409-0.142,1.412-1.547,1.239
		c-1.128-0.139-2.254-0.291-3.384-0.413c-0.29-0.032-0.441-0.068-0.34-0.415C169.588,152.623,169.573,152.36,169.596,152.109z"/>
	<path style="fill:#008299;" d="M127.149,129.211c1.173-0.056,2.341,0.074,3.512,0.117c0.441,0.016,0.61-0.038,0.611-0.556
		c0.007-2.545,0.07-5.089,0.113-7.634c1.051,0.039,1.059,0.039,1.048,1.121c-0.028,2.64-0.07,5.279-0.089,7.919
		c-0.003,0.363-0.114,0.466-0.47,0.446c-1.46-0.083-2.921-0.148-4.382-0.204c-0.288-0.011-0.383-0.122-0.364-0.395
		C127.148,129.755,127.143,129.483,127.149,129.211z"/>
	<path style="fill:#65B4C1;" d="M145.118,115.121c0.256-0.793,0.496-1.422,0.656-2.069c0.119-0.482,0.452-0.369,0.759-0.373
		c0.415-0.005,0.265,0.318,0.266,0.513c0.011,1.523-0.007,3.047,0.015,4.569c0.006,0.396-0.13,0.476-0.495,0.479
		c-0.366,0.003-0.473-0.114-0.455-0.466c0.025-0.502,0.006-1.007,0.006-1.554c-0.371,0.256-0.112,0.943-0.801,0.9
		c-0.561-0.035-0.347-0.557-0.68-0.833c0,0.534-0.026,1.007,0.008,1.476c0.029,0.402-0.139,0.477-0.5,0.476
		c-0.342-0.001-0.468-0.077-0.463-0.448c0.021-1.559,0.005-3.119,0.014-4.678c0.001-0.168-0.115-0.455,0.231-0.428
		c0.272,0.021,0.623-0.173,0.754,0.296C144.623,113.657,144.859,114.32,145.118,115.121z"/>
	<path style="fill:#008299;" d="M42.438,138.056c-0.26-0.476-0.516-0.954-1.066-1.26c1.019-0.765,1.176-1.765,1.137-2.923
		c-0.084-2.48-0.05-4.964-0.063-7.447c-0.002-0.488,0.014-0.977-0.089-1.459c0.892,0.484,1.15,1.324,1.16,2.238
		c0.031,2.965,0.028,5.931,0.024,8.897C43.541,136.949,43.076,137.557,42.438,138.056z"/>
	<path style="fill:#008299;" d="M78.379,136.006c-0.243-0.459-0.454-0.942-0.887-1.267c-0.188-0.142-0.073-0.237,0.043-0.332
		c0.718-0.587,0.93-1.353,0.92-2.26c-0.029-2.656-0.01-5.313-0.011-7.97c0-0.721,0.035-1.444-0.082-2.16
		c0.722,0.42,1.089,1.083,1.094,1.883c0.024,3.391,0.012,6.782,0.007,10.173c-0.001,0.559-0.281,0.998-0.65,1.393
		C78.657,135.634,78.431,135.751,78.379,136.006z"/>
	<path style="fill:#FEFEFE;" d="M54.317,97.55c-0.239,2.012-0.358,3.944-0.491,5.946c-1.494-1.117-3.101-1.965-4.75-2.887
		C50.973,99.853,52.58,98.69,54.317,97.55z"/>
	<path style="fill:#65B4C1;" d="M158.68,115.427c0-0.796,0.011-1.593-0.006-2.389c-0.006-0.289,0.09-0.38,0.372-0.366
		c0.415,0.02,0.832,0.008,1.248,0.005c0.476-0.003,0.7,0.248,0.694,0.707c-0.01,0.663-0.106,1.338-0.086,1.983
		c0.021,0.659,0.033,1.327,0.056,1.991c0.027,0.757-0.108,0.879-0.878,0.866c-0.448-0.007-1.023,0.194-1.308-0.081
		c-0.288-0.278-0.072-0.857-0.089-1.304C158.666,116.368,158.679,115.897,158.68,115.427z"/>
	<path style="fill:#65B4C1;" d="M141.538,118.217c-0.42,0.105-0.486-0.14-0.49-0.481c-0.003-0.237,0.056-0.524-0.356-0.527
		c-0.399-0.003-0.356,0.282-0.391,0.518c-0.064,0.436-0.447,0.656-0.855,0.495c-0.177-0.069-0.127-0.201-0.115-0.313
		c0.183-1.654,0.373-3.307,0.557-4.96c0.022-0.2,0.119-0.28,0.32-0.274c0.307,0.01,0.616,0.01,0.923-0.001
		c0.221-0.008,0.321,0.067,0.346,0.301c0.171,1.6,0.344,3.2,0.539,4.797C142.068,118.188,141.909,118.295,141.538,118.217z"/>
	<path style="fill:#65B4C1;" d="M154.064,118.211c-0.418,0.096-0.49-0.12-0.501-0.444c-0.008-0.224,0.092-0.532-0.324-0.557
		c-0.43-0.026-0.39,0.283-0.426,0.539c-0.057,0.401-0.517,0.648-0.874,0.467c-0.16-0.081-0.103-0.217-0.091-0.33
		c0.181-1.636,0.369-3.27,0.55-4.906c0.025-0.222,0.119-0.33,0.348-0.303c0.018,0.002,0.036,0.001,0.054,0
		c1.152-0.057,1.153-0.057,1.28,1.076c0.147,1.312,0.286,2.624,0.44,3.935C154.566,118.075,154.554,118.372,154.064,118.211z"/>
	<path style="fill:#65B4C1;" d="M164.521,118.216c-0.398,0.097-0.51-0.099-0.512-0.462c-0.001-0.227,0.08-0.529-0.337-0.544
		c-0.436-0.015-0.375,0.304-0.413,0.553c-0.059,0.388-0.553,0.647-0.886,0.451c-0.146-0.086-0.09-0.225-0.077-0.34
		c0.179-1.618,0.367-3.234,0.544-4.852c0.026-0.236,0.104-0.335,0.365-0.351c1.194-0.073,1.193-0.083,1.323,1.097
		c0.145,1.312,0.285,2.624,0.441,3.935C165.012,118.062,165.001,118.333,164.521,118.216z"/>
	<path style="fill:#FDFDFD;" d="M49.75,105.067c-0.801-0.02-1.582,0.127-2.357,0.297c-0.287,0.063-0.433,0.007-0.522-0.276
		c-0.35-1.116-0.266-2.229-0.055-3.42c1.533,1.091,3.002,2.136,4.467,3.186c0.045,0.032,0.047,0.125,0.07,0.189
		C50.821,105.172,50.286,105.125,49.75,105.067z"/>
	<path style="fill:#65B4C1;" d="M148.124,115.414c0-0.778,0.011-1.557-0.006-2.335c-0.006-0.293,0.06-0.43,0.386-0.408
		c0.396,0.026,0.796,0.006,1.194,0.007c0.462,0.001,0.705,0.219,0.7,0.697c-0.006,0.561,0.003,1.122-0.002,1.683
		c-0.005,0.562-0.19,0.793-0.738,0.749c-0.522-0.042-0.608,0.172-0.574,0.616c0.034,0.45-0.021,0.907,0.016,1.356
		c0.035,0.422-0.169,0.46-0.51,0.458c-0.323-0.002-0.49-0.043-0.475-0.434C148.146,117.007,148.124,116.21,148.124,115.414z"/>
	<path style="fill:#65B4C1;" d="M167.799,114.453c0.063-0.336,0.122-0.672,0.191-1.006c0.175-0.861,0.177-0.86,1.127-0.713
		c-0.149,0.634-0.278,1.271-0.45,1.896c-0.295,1.071-0.518,2.148-0.42,3.266c0.029,0.331-0.167,0.365-0.405,0.326
		c-0.209-0.034-0.586,0.166-0.547-0.285c0.145-1.669-0.463-3.21-0.776-4.801c-0.028-0.142-0.28-0.437,0.093-0.438
		c0.284-0.001,0.73-0.269,0.847,0.278c0.104,0.49,0.187,0.984,0.279,1.476C167.758,114.452,167.778,114.452,167.799,114.453z"/>
	<path style="fill:#65B3C0;" d="M136.345,115.889c0-0.634,0.002-1.267-0.002-1.901c-0.001-0.172,0.045-0.415-0.227-0.402
		c-0.583,0.028-0.387-0.394-0.389-0.667c-0.002-0.415,0.341-0.221,0.53-0.233c0.451-0.029,0.905,0,1.357-0.012
		c0.24-0.006,0.344,0.097,0.302,0.32c-0.04,0.218,0.168,0.59-0.22,0.611c-0.437,0.023-0.379,0.278-0.378,0.547
		c0.001,1.213-0.019,2.426,0.01,3.638c0.01,0.436-0.198,0.441-0.525,0.448c-0.341,0.007-0.483-0.076-0.466-0.448
		C136.366,117.157,136.345,116.522,136.345,115.889z"/>
	<path style="fill:#FDFDFD;" d="M41.126,103.156c1.227-0.345,2.352-0.62,3.465-1.089c0,0.976,0,1.918,0,2.919
		C43.394,104.49,42.239,103.969,41.126,103.156z"/>
	<path style="fill:#038299;" d="M90.136,42.37c-1.134,0.283-2.266,0.576-3.403,0.848c-3.432,0.822-6.802,1.846-10.11,3.075
		c-1.017,0.378-2.023,0.785-3.037,1.169c-0.182,0.069-0.363,0.175-0.574,0.139c1.195-0.641,2.464-1.115,3.719-1.614
		c4.193-1.667,8.545-2.773,12.973-3.597C89.845,42.366,89.992,42.377,90.136,42.37z"/>
	<path style="fill:#A9B0B3;" d="M117.617,113.751c2.673,0.009,5.346,0.017,8.019,0.026c-0.079,0.238-0.28,0.189-0.454,0.189
		c-2.444,0.002-4.888,0.003-7.331-0.01C117.791,113.955,117.381,114.163,117.617,113.751z"/>
	<path style="fill:#001825;" d="M89.397,116.286c4.183,0,8.365,0,12.548,0c0,0.018,0,0.035,0,0.053c-4.189,0-8.379,0-12.569,0
		C89.383,116.321,89.39,116.303,89.397,116.286z"/>
	<path style="fill:#008299;" d="M96.219,133.581c0-3.525,0-7.05,0-10.575c0.133,0.154,0.096,0.342,0.096,0.519
		c-0.002,3.197-0.005,6.394-0.011,9.591C96.304,133.274,96.342,133.443,96.219,133.581z"/>
	<path style="fill:#091521;" d="M109.61,35.859c1.773-0.003,3.546-0.006,5.319-0.009c-0.077,0.096-0.184,0.103-0.294,0.103
		c-1.593,0-3.187,0.001-4.78-0.004C109.773,35.949,109.692,35.891,109.61,35.859z"/>
	<path style="fill:#024E5D;" d="M148.994,106.259c0.063,0.131,0.268,0.125,0.301,0.405c-0.634-0.431-1.344-0.606-1.818-1.177
		C148.031,105.65,148.467,106.044,148.994,106.259z"/>
	<path style="fill:#1E90A5;" d="M41.701,67.634c-0.178,0.09-0.231,0.596-0.565,0.17c0.208-0.196,0.384-0.433,0.666-0.539
		C41.919,67.429,41.695,67.501,41.701,67.634z"/>
	<path style="fill:#007288;" d="M48.23,109.311c0.23,0.197,0.507,0.058,0.758,0.103c-0.472,0.169-0.943,0.179-1.415-0.001
		C47.79,109.368,48,109.275,48.23,109.311z"/>
	<path style="fill:#47A6B6;" d="M41.701,67.634c-0.152-0.173,0.134-0.228,0.1-0.369c0.156-0.176,0.312-0.35,0.536-0.442
		c0.045,0.142-0.248,0.205-0.089,0.375C42.066,67.344,41.884,67.489,41.701,67.634z"/>
	<path style="fill:#000C1A;" d="M49.75,105.067c0.534-0.057,1.067-0.094,1.603-0.024c-0.063,0.261-0.275,0.12-0.395,0.113
		C50.556,105.132,50.137,105.284,49.75,105.067z"/>
	<path style="fill:#CACFD2;" d="M77.584,105.291c0.25-0.111,0.55,0.098,0.783-0.122c0.179,0.039,0.357,0.078,0.536,0.118
		c-0.082,0.282-0.286,0.117-0.444,0.122C78.169,105.36,77.865,105.41,77.584,105.291z"/>
	<path style="fill:#043F4F;" d="M172.723,59.231c-0.04,0.041-0.08,0.082-0.121,0.123c-0.141-0.127-0.281-0.255-0.422-0.382
		C172.454,58.912,172.603,59.046,172.723,59.231z"/>
	<path style="fill:#7C888F;" d="M78.459,105.409c0.143-0.059,0.332,0.052,0.444-0.122c0.107-0.005,0.262-0.027,0.275,0.094
		c0.017,0.154-0.151,0.12-0.243,0.113C78.775,105.481,78.618,105.439,78.459,105.409z"/>
	<path style="fill:#035668;" d="M104.364,65.234c-0.123-0.078-0.235-0.167-0.294-0.366c0.209,0.005,0.333,0.088,0.416,0.253
		C104.445,65.158,104.404,65.196,104.364,65.234z"/>
	<path style="fill:#081F2C;" d="M32.975,83.415c1.004,1.262,2.313,1.129,3.608,0.902c3.244-0.569,5.998-2.161,8.543-4.176
		c3.085-2.442,5.56-5.43,7.791-8.641c0.101-0.145,0.206-0.287,0.406-0.565c-0.012,0.952-0.095,1.746-0.213,2.535
		c-0.234,1.564-0.601,3.09-1.439,4.461c-0.123,0.2-0.231,0.43-0.406,0.574c-0.853,0.703-0.84,1.704-0.976,2.664
		c-0.155,1.096-0.009,2.208-0.214,3.302c-0.498,2.66-1.847,4.653-4.436,5.66c-1.19,0.463-2.394,0.228-3.577-0.071
		c-1.557-0.394-3.013-1.032-4.357-1.912c-0.234-0.153-0.456-0.186-0.717-0.145c-0.865,0.135-1.73,0.134-2.592-0.029
		c-1.038-0.196-1.479-0.704-1.637-1.741C32.616,85.285,32.734,84.375,32.975,83.415z"/>
	<path style="fill:#66B4C1;" d="M74.021,68.779c-0.006,1.213-1.296,2.188-2.612,1.976c-1.286-0.208-2.092-1.079-1.991-2.151
		c0.113-1.193,1.394-2.062,2.679-1.819C73.313,67.016,74.026,67.755,74.021,68.779z"/>
	<path style="fill:#65B4C1;" d="M74.891,64.85c0.006-0.679,0.536-1.24,1.177-1.247c0.609-0.006,1.208,0.655,1.192,1.315
		c-0.015,0.638-0.594,1.246-1.202,1.263C75.47,66.197,74.885,65.53,74.891,64.85z"/>
	<path style="fill:#65B4C1;" d="M71.876,62.383c0.668,0.008,1.163,0.53,1.164,1.228c0.001,0.758-0.525,1.311-1.223,1.286
		c-0.609-0.022-1.131-0.635-1.109-1.302C70.733,62.857,71.198,62.375,71.876,62.383z"/>
	<path style="fill:#008299;" d="M36.249,147.915c-1.052,0.132-1.048,0.132-1.053-0.94c-0.011-2.132-0.018-4.265-0.05-6.397
		c-0.005-0.357,0.075-0.519,0.449-0.543c0.504-0.032,1.005-0.107,1.506-0.174c0.237-0.032,0.327,0.053,0.323,0.293
		c-0.013,0.758-0.012,1.516-0.017,2.274c-0.276-0.1-0.206-0.35-0.221-0.549c-0.019-0.247-0.073-0.428-0.375-0.408
		c-0.292,0.019-0.491,0.128-0.48,0.458c0.01,0.29,0.085,0.573,0.086,0.864c0.004,1.504,0.004,3.007-0.001,4.511
		C36.415,147.521,36.423,147.744,36.249,147.915z"/>
	<path style="fill:#008299;" d="M36.337,135.244c-0.032,0.015-0.064,0.039-0.097,0.044c-1.103,0.149-1.128,0.149-1.148-0.96
		c-0.034-1.847-0.026-3.695-0.052-5.542c-0.005-0.324,0.086-0.443,0.421-0.459c0.468-0.023,0.937-0.091,1.398-0.181
		c0.373-0.072,0.48,0.048,0.461,0.413c-0.029,0.559-0.016,1.121-0.021,1.681c-0.142,0.001-0.173-0.117-0.204-0.213
		c-0.085-0.269-0.275-0.299-0.513-0.252c-0.25,0.049-0.368,0.197-0.378,0.45c-0.016,0.435,0.105,0.856,0.106,1.291
		C36.312,132.759,36.276,134.002,36.337,135.244z"/>
	<path style="fill:#081F2C;" d="M36.249,147.915c-0.004-1.646-0.004-3.292-0.017-4.938c-0.003-0.396-0.061-0.791-0.069-1.187
		c-0.014-0.717,0.565-0.433,0.912-0.508c0.458-0.098,0.233,0.282,0.274,0.458c0.053,0.223-0.054,0.466,0.057,0.688
		c0.019,1.701,0.035,3.403,0.059,5.105c0.003,0.225-0.123,0.274-0.3,0.292C36.86,147.856,36.555,147.885,36.249,147.915z"/>
	<path style="fill:#081F2C;" d="M36.337,135.244c-0.238-0.072-0.196-0.269-0.199-0.446c-0.034-1.518,0.032-3.038-0.079-4.556
		c-0.043-0.592,0.106-0.673,0.839-0.7c0.535-0.02,0.286,0.376,0.354,0.606c0.01,0.033,0.031,0.062,0.047,0.093
		c0.019,1.535,0.033,3.072,0.061,4.607c0.004,0.244-0.114,0.315-0.319,0.332C36.805,135.2,36.571,135.223,36.337,135.244z"/>
	<path style="fill:#008399;" d="M72.556,132.73c-0.031,0.017-0.061,0.046-0.094,0.05c-1.417,0.156-1.417,0.156-1.417-1.269
		c0-2.027,0.007-4.054-0.007-6.081c-0.002-0.336,0.066-0.488,0.438-0.476c0.395,0.013,0.795-0.028,1.188-0.08
		c0.431-0.057,0.702,0.003,0.608,0.539c-0.043,0.246-0.021,0.505-0.028,0.757c-0.068,0.061-0.141,0.125-0.231,0.135
		c-0.872,0.099-0.786,0.314-0.787,1.11c-0.003,1.463,0.007,2.925-0.007,4.388C72.215,132.167,72.29,132.476,72.556,132.73z"/>
	<path style="fill:#081F2C;" d="M72.556,132.73c-0.415,0.04-0.497-0.168-0.493-0.55c0.015-1.74,0.024-3.482-0.02-5.221
		c-0.014-0.531,0.135-0.764,0.659-0.759c0.181,0.002,0.362-0.019,0.543-0.029c0.007,2.074,0.017,4.147,0.02,6.221
		C73.265,132.981,72.799,132.63,72.556,132.73z"/>
	<path style="fill:#008299;" d="M88.908,132.032c-1.083,0.075-1.084,0.075-1.083-0.97c0.003-2.138,0.016-4.277,0.003-6.415
		c-0.002-0.355,0.094-0.475,0.452-0.454c0.433,0.025,0.874,0.03,1.302-0.024c0.405-0.051,0.563,0.042,0.514,0.47
		c-0.061,0.537,0.074,1.082-0.036,1.621c-0.163-0.061-0.176-0.218-0.217-0.351c-0.06-0.196-0.197-0.24-0.376-0.22
		c-0.201,0.023-0.335,0.118-0.359,0.334c-0.017,0.162-0.016,0.324-0.016,0.486c-0.001,1.587,0.003,3.174-0.003,4.761
		C89.088,131.534,89.134,131.818,88.908,132.032z"/>
	<path style="fill:#081F2C;" d="M88.908,132.032c-0.001-1.971-0.002-3.943-0.002-5.914c0-0.65,0.012-0.663,0.833-0.671
		c0.501-0.005,0.203,0.394,0.286,0.6c0.026,0.065,0.025,0.141,0.036,0.212c-0.005,1.677-0.01,3.354-0.014,5.032
		c-0.002,0.748,0,0.749-0.761,0.756C89.16,132.048,89.034,132.038,88.908,132.032z"/>
	<path style="fill:#008299;" d="M158.028,146.178c-1.082-0.083-1.053-0.082-1.022-1.209c0.047-1.719,0.045-3.438,0.073-5.157
		c0.07-4.341,0.147-8.683,0.21-13.024c0.005-0.33,0.103-0.394,0.414-0.343c0.463,0.075,0.935,0.133,1.403,0.132
		c0.4-0.001,0.493,0.163,0.449,0.517c-0.029,0.232-0.016,0.469-0.021,0.704c-0.114,0.111-0.259,0.141-0.403,0.115
		c-0.526-0.094-0.608,0.208-0.603,0.63c0.03,2.658-0.103,5.315-0.132,7.973c-0.027,2.386-0.065,4.772-0.095,7.159
		c-0.008,0.667-0.123,1.332-0.107,2.003C158.197,145.857,158.171,146.04,158.028,146.178z"/>
	<path style="fill:#081F2C;" d="M158.028,146.178c0.041-2.587,0.033-5.175,0.137-7.759c0.084-2.08,0.006-4.162,0.107-6.239
		c0.064-1.32,0.073-2.64,0.067-3.959c-0.002-0.501,0.186-0.591,0.605-0.508c0.194,0.039,0.393,0.057,0.589,0.085
		c-0.041,2.318-0.084,4.636-0.124,6.954c-0.063,3.713-0.128,7.425-0.178,11.138c-0.005,0.356-0.115,0.444-0.447,0.37
		C158.538,146.205,158.281,146.203,158.028,146.178z"/>
	<path style="fill:#008399;" d="M106.981,138.146c-1.196,0.102-1.214,0.1-1.074-1.064c0.327-2.728,0.673-5.453,1.122-8.195
		c0.192,1.663,0.384,3.326,0.576,4.989c-0.059,1.163-0.198,2.318-0.351,3.472C107.215,137.633,107.199,137.923,106.981,138.146z"/>
	<path style="fill:#09202D;" d="M106.981,138.146c0.152-1.272,0.299-2.544,0.46-3.815c0.02-0.156,0.107-0.303,0.163-0.454
		c0.151,1.257,0.286,2.517,0.462,3.77c0.061,0.437-0.052,0.598-0.491,0.532C107.38,138.15,107.179,138.156,106.981,138.146z"/>
	<path style="fill:#018399;" d="M54.408,140.466c-1.278,0.217-1.305,0.214-1.179-1.007c0.282-2.735,0.594-5.467,0.925-8.204
		c0.356,1.516,0.472,3.067,0.681,4.604c0.029,1.207-0.111,2.402-0.247,3.598C54.55,139.799,54.513,140.138,54.408,140.466z"/>
	<path style="fill:#09202D;" d="M54.408,140.466c-0.228-0.351-0.004-0.702,0.026-1.043c0.104-1.19,0.262-2.376,0.4-3.563
		c0.17,1.308,0.315,2.621,0.521,3.923c0.075,0.476,0.047,0.734-0.515,0.661C54.7,140.426,54.553,140.457,54.408,140.466z"/>
	<path style="fill:#018399;" d="M176.188,142.7c-1.246-0.088-1.249-0.088-1.07-1.354c0.35-2.48,0.703-4.96,1.053-7.44
		c0.02-0.143,0.024-0.288,0.036-0.431c0.299-0.025,0.065,0.26,0.194,0.333c0.138,1.48,0.276,2.96,0.414,4.44
		c0.021,1.247-0.209,2.469-0.383,3.696C176.396,142.206,176.398,142.49,176.188,142.7z"/>
	<path style="fill:#09202D;" d="M176.188,142.7c0.209-1.484,0.418-2.968,0.627-4.452c0.145,1.431,0.284,2.863,0.441,4.293
		c0.027,0.244-0.027,0.327-0.269,0.284C176.722,142.778,176.455,142.741,176.188,142.7z"/>
	<path style="fill:#B1CFD7;" d="M176.401,133.808c-0.102-0.089-0.026-0.283-0.194-0.333c-0.021-0.155-0.043-0.31,0.05-0.468
		C176.473,133.251,176.434,133.53,176.401,133.808z"/>
	<path style="fill:#FEFEFE;" d="M120.272,112.672c0.143-0.504,0.534-0.845,0.837-1.24c1.719-2.239,3.41-4.5,5.039-6.804
		c0.289-0.408,0.628-0.365,0.994-0.334c0.319,0.027,0.158,0.258,0.111,0.411c-0.607,1.988-1.213,3.977-1.834,5.96
		c-0.21,0.672-0.461,1.331-0.693,1.995c-0.235,0.14-0.493,0.068-0.737,0.064C122.749,112.699,121.509,112.805,120.272,112.672z"/>
	<path style="fill:#97A0A3;" d="M120.272,112.672c1.485-0.004,2.969-0.008,4.454-0.011c-0.053,0.083-0.131,0.122-0.227,0.122
		c-1.392,0.001-2.785,0.002-4.177,0.001c-0.015,0-0.041-0.01-0.044-0.02C120.27,112.734,120.273,112.703,120.272,112.672z"/>
	<path style="fill:#081F2C;" d="M160.016,116.664c-0.086,0.18,0.179,0.616-0.186,0.623c-0.38,0.008-0.147-0.423-0.197-0.654
		c-0.037-0.171-0.008-0.357-0.005-0.537c0.002-0.129,0.007-0.259,0.186-0.266c0.176-0.006,0.202,0.112,0.202,0.249
		C160.017,116.259,160.016,116.438,160.016,116.664z"/>
	<path style="fill:#081F2C;" d="M160.019,114.279c-0.094,0.18,0.183,0.623-0.205,0.614c-0.36-0.008-0.115-0.441-0.186-0.675
		c-0.015-0.05-0.012-0.11,0-0.161c0.038-0.17-0.113-0.47,0.204-0.458c0.301,0.011,0.149,0.305,0.186,0.477
		C160.028,114.127,160.019,114.183,160.019,114.279z"/>
	<path style="fill:#13303D;" d="M140.71,114.72c0.047,0.41,0.098,0.82,0.14,1.231c0.014,0.137,0.058,0.315-0.167,0.323
		c-0.23,0.008-0.193-0.174-0.18-0.311c0.042-0.413,0.095-0.825,0.143-1.238C140.667,114.723,140.689,114.721,140.71,114.72z"/>
	<path style="fill:#13313D;" d="M153.232,114.752c0.045,0.412,0.092,0.824,0.135,1.236c0.013,0.127,0.031,0.269-0.153,0.284
		c-0.228,0.018-0.212-0.147-0.197-0.293c0.043-0.413,0.093-0.826,0.141-1.239C153.182,114.744,153.207,114.748,153.232,114.752z"/>
	<path style="fill:#13313D;" d="M163.672,114.739c0.046,0.375,0.105,0.749,0.132,1.126c0.011,0.15,0.13,0.423-0.182,0.399
		c-0.287-0.022-0.155-0.281-0.144-0.433c0.024-0.36,0.083-0.718,0.128-1.076C163.628,114.749,163.65,114.744,163.672,114.739z"/>
	<path style="fill:#081F2C;" d="M149.118,113.662c0.099,0,0.198,0,0.297,0c0.107,0.395,0.107,0.791,0,1.186
		c-0.11,0.043-0.218,0.221-0.333,0.006C149.051,114.455,148.986,114.055,149.118,113.662z"/>
	<path style="fill:#51939F;" d="M149.415,114.848c0-0.395,0-0.791,0-1.186C149.614,114.057,149.614,114.452,149.415,114.848z"/>
	<path style="fill:#51939F;" d="M149.118,113.662c-0.012,0.397-0.024,0.795-0.035,1.192
		C148.962,114.452,148.898,114.053,149.118,113.662z"/>
	<path style="fill:#8A8A8A;" d="M48.479,80.647c-0.342,2.172-0.763,4.17-1.928,5.916c-0.908,1.361-2.002,1.77-3.61,1.442
		c-0.786-0.16-1.542-0.408-2.271-0.729c-0.694-0.305-1.367-0.656-2.183-1.051C42.588,85.66,45.523,83.28,48.479,80.647z"/>
</g>
</svg>
