<?xml version="1.0" encoding="utf-8"?>
<!-- Generator: Adobe Illustrator 24.1.0, SVG Export Plug-In . SVG Version: 6.00 Build 0)  -->
<svg version="1.1" id="Layer_1" xmlns="http://www.w3.org/2000/svg" xmlns:xlink="http://www.w3.org/1999/xlink" x="0px" y="0px"
	 viewBox="0 0 200 200" style="enable-background:new 0 0 200 200;" xml:space="preserve">
<g>
	<path style="fill:#A1A9AC;" d="M193.2,107.5c-2.5-6.7-7-12.1-12-17.2c-0.1,0.9-0.3,1.7-0.4,2.6c-0.6,4.1-1.4,8.1-2.5,12.1
		c-0.9,3.1-1.9,6.1-3.4,9c-0.3,0.5-0.3,0.5,0.3,0.5c2.4,0,4.8,0,7.2,0c2.5,0,4.5,1.1,6.3,2.7c1.9,1.8,3.2,4.1,4.2,6.6
		c0.1,0.2,0.1,0.4,0.1,0.6c0,9.2,0,18.4,0,27.6c0,3.6-1.9,6.2-4.9,8.1c-2.2,1.3-4.5,1.6-7,1.3c-2.4-0.2-4.7-0.6-7-0.9
		c-2.4-0.4-4.8-0.7-7.1-1c-2.6-0.4-5.3-0.7-7.9-0.9c-2.1-0.1-4.2-0.4-6.3-0.6c-2.1-0.2-4.1-0.4-6.2-0.7c-2.3-0.3-4.5-0.5-6.8-0.8
		c-1.2-0.2-2.4-0.4-3.7-0.5c-3.2-0.2-5.5,1.4-6.6,4.4c-0.8,2.3-0.9,4.7-0.9,7.1c0.1,4.6,1,9.1,2.3,13.5c1.4,5,3.4,9.8,5.8,14.4
		c0.8,1.5,1.6,2.9,2.6,4.5c-1-0.3-2-0.5-2.9-0.7c-4.9-1.3-9.7-2.9-14.2-5.3c-3.6-1.9-6.9-4.1-9.8-6.9c-3.4-3.2-6.2-6.8-8.2-11
		c-1.5-3.3-2.6-6.7-3-10.3c-0.1-0.9-0.2-1.8-0.2-2.8c0-0.4-0.1-0.5-0.5-0.5c-3.8,0-7.5-0.4-11.1-1.4c-3.6-1-6.9-2.4-9.9-4.6
		c-0.1-0.1-0.3-0.2-0.4-0.2c-2,0.1-3.9,0.1-5.9,0.2c-0.9,0-1.7,0.1-2.6,0.1c-3.4,0.2-6.9,0.4-10.3,0.8c-2.8,0.3-5.5,0.5-8.3,0.8
		c-3.1,0.3-6.3,0.7-9.4,1.2c-3,0.4-6,0.8-9,1.2c-2.8,0.4-5.5,0.9-8.2,1.3c-1.3,0.2-2.5,0.4-3.8,0.7c-0.5,0.1-0.4-0.2-0.4-0.5
		c0-2.5,0-5-0.1-7.6c-0.1-3.3,0-6.6-0.1-9.9c-0.1-2.4,0-4.8-0.1-7.2c-0.1-1.3,0-2.6-0.1-3.9c-0.4,0.1-0.6,0.4-0.9,0.6
		c-0.8,0.6-1.5,1.1-2.4,1.6c-1,0.5-2,0.4-2.9-0.2c-1.8-1.2-3-2.8-4.1-4.5c-0.4-0.6-0.7-1.3-0.9-2c-0.6-1.6-0.2-3.1,0.9-4.3
		c0.8-0.9,1.7-1.6,2.8-2.2c0.2-0.1,0.4-0.1,0.7-0.1c0.9,0,1.7,0,2.6,0c0.2,0,0.4-0.1,0.6-0.2c2.3-2.1,4.6-4.3,6.9-6.4
		c0.6-0.6,1-1.2,1.2-2c0.5-2.1,1.8-3.7,3.4-5.1c0.2-0.2,0.4-0.4,0.7-0.6c0.2-0.1,0.4-0.2,0.3-0.5c-0.1-0.3-0.4-0.2-0.5-0.2
		c-0.9,0-1.9-0.1-2.8-0.2c-3.7-0.4-7.4-1-10.9-2.5c-1.1-0.5-2.2-1.1-3.1-2.1c-1.6-1.6-1.9-3.4-1.1-5.5c2.8-7.1,6.7-13.6,11.4-19.6
		c2.9-3.7,6.1-7.1,9.5-10.4c4.4-4.1,9.1-7.9,14.1-11.2c6.1-4.2,12.6-7.8,19.3-10.9c4.8-2.3,9.7-4.3,14.8-5.9
		c0.3-0.1,0.4-0.2,0.5-0.5c1.5-5.1,3.9-9.6,7.5-13.4c4.4-4.8,9.8-8.1,16.1-9.8c0.4-0.1,0.9-0.2,1.3-0.3c0.1,0,0.1,0,0.3,0
		c-0.9,1.6-2,3.1-1.5,5.2c1-1.2,2.1-2.1,3.3-3c2.6-2,5.3-3.8,8.2-5.4c7.9-4.4,16.2-8,24.7-11.1c0.5-0.2,0.9-0.4,1.5-0.4
		c-0.2,0.3-0.4,0.5-0.7,0.8c-5,4.8-8.2,10.7-10.6,17.1c-1,2.5-1.8,5.1-2.3,7.7c-0.5,2.3-0.1,4.6,0.5,6.9c0.2,0.7,0.5,1.5,0.8,2.2
		c0.1,0.3,0.2,0.3,0.5,0.4c7.3,0.7,14.2,2.6,20.9,5.6c4.6,2,8.9,4.4,13,7.3c0.8,0.5,1.7,0.7,2.6,1c5.1,2.1,9.9,4.9,14.1,8.6
		c3.8,3.3,6.8,7.2,9.1,11.6c2.4,4.5,3.9,9.4,4.8,14.4c0.5,2.6,0.8,5.3,1.1,8c0.1,1.6,0,3.2-0.2,4.8c-0.4,3.6-1.2,7.2-2.2,10.7
		c0,0.1-0.1,0.3-0.1,0.4C193.3,107.4,193.3,107.4,193.2,107.5z"/>
	<path style="fill:#081F2C;" d="M23,156.9c0-3-0.1-5.9-0.1-8.9c0-3.4-0.1-6.7-0.1-10.1c0-2.7-0.1-5.3-0.1-8c0-0.1,0-0.3,0-0.5
		c-0.7,0.7-1.4,1.4-2.1,2c-1,1-2.1,1.9-3.3,2.6c-0.7,0.4-1.2,0.4-1.8-0.1c-1.8-1.5-3.2-3.3-4-5.5c-0.3-0.8-0.2-1.5,0.3-2.2
		c0.6-0.8,1.4-1.4,2.2-1.9c0.2-0.1,0.4-0.1,0.6-0.1c1,0,2,0,2.9,0c0.2,0,0.4-0.1,0.6-0.2c2.8-2.7,5.7-5.3,8.6-7.9
		c0.2-0.1,0.3-0.3,0.3-0.5c0.1-2.4,1.5-4.1,3.1-5.6c0.4-0.4,0.8-0.7,1.2-1c0.2-0.1,0.3-0.3,0.3-0.5c0-0.8,0-1.5,0-2.3
		c0-0.4-0.1-0.5-0.5-0.5c-2.3,0-4.7-0.3-7-0.6c-2.9-0.4-5.7-1-8.4-2.4c-0.7-0.3-1.3-0.7-1.8-1.2c-1.2-1.1-1.5-2.3-0.9-3.8
		c1.5-3.7,3.2-7.3,5.3-10.7c4.7-7.9,10.7-14.7,17.6-20.8c8.5-7.5,18-13.5,28.2-18.5c5.7-2.8,11.6-5.3,17.7-7.2
		c0.4-0.1,0.4-0.4,0.5-0.7c1.1-4.2,3-8,5.6-11.4c3.8-4.9,8.7-8.4,14.5-10.6c0.1,0,0.2-0.1,0.4-0.1c-0.2,1-0.2,1.9,0,2.9
		c0.2,1,0.7,1.9,1.3,2.8c0.3,0.4,0.3,0,0.4-0.1c1.3-2,3-3.6,4.8-5c2-1.6,4.1-2.9,6.3-4.2c6.4-3.7,13.1-6.7,19.9-9.5
		c0.1,0,0.2-0.2,0.4-0.1c0,0.3-0.2,0.4-0.3,0.6c-4.3,6.3-7.3,13.2-8.8,20.7c-0.6,2.9,0,5.7,0.9,8.4c0.3,0.8,0.6,1.5,0.9,2.3
		c0.1,0.4,0.4,0.5,0.8,0.6c4,0.3,7.8,1,11.6,2.1c8,2.3,15.5,5.8,22.3,10.6c0.4,0.3,0.9,0.4,1.3,0.6c5.3,2,10.2,4.7,14.6,8.4
		c6.4,5.5,10.5,12.4,12.7,20.5c1.1,4.1,1.8,8.2,2.1,12.4c0.2,3.2-0.3,6.4-0.9,9.5c-0.1,0.4-0.2,0.8-0.3,1.4c-3.4-6-7.8-11.1-13-15.7
		c-0.1,0.9-0.2,1.7-0.3,2.5c-0.8,7.2-2.1,14.3-4.8,21c-0.8,2-1.7,4-3,5.7c-0.1,0.1-0.2,0.2-0.2,0.3c0.2,0.1,0.3,0,0.5,0
		c3.1,0,6.1,0.1,9.2,0c3.2-0.1,5.7,1.3,7.5,3.8c1,1.3,1.8,2.8,2.4,4.3c-0.1,0.2,0,0.4,0,0.5c0,9.1,0,18.1,0,27.2c0,0.2,0,0.4,0,0.5
		c-0.1,2-1,3.7-2.5,5c-2,1.8-4.3,2.5-7,2.2c-4.1-0.4-8.2-1.1-12.3-1.7c-3.7-0.5-7.4-1-11.1-1.3c-4.3-0.3-8.5-0.8-12.8-1.3
		c-2.6-0.3-5.1-0.6-7.7-0.9c-1.4-0.2-2.7-0.3-4-0.1c-2.2,0.5-3.9,1.7-5.1,3.6c-1.2,2.1-1.7,4.3-1.8,6.7c0.1,1.2,0.1,2.4,0,3.6
		c0,2.2,0.3,4.3,0.7,6.4c1.4,7.7,4.1,14.9,7.7,21.8c0.1,0.1,0.1,0.3,0.2,0.4c0,0,0,0.1,0,0.2c-0.5-0.2-1-0.3-1.5-0.4
		c-5.7-1.7-11.2-4.1-16.1-7.5c-5.8-4.1-10.3-9.3-12.9-16c-1.4-3.6-2.2-7.3-2.2-11.1c0-0.4,0-0.7,0.1-1.1c0-0.3-0.1-0.4-0.3-0.4
		c-1.3-0.1-2.7-0.1-4,0c-2.8-0.1-5.6-0.5-8.4-1.2c-3.3-0.8-6.4-2.1-9.2-4.1c-0.8-0.6-1.6-0.8-2.6-0.8c-6.1,0.2-12.2,0.5-18.2,1.1
		c-3.8,0.3-7.7,0.7-11.5,1.2c-4.9,0.6-9.9,1.2-14.8,2c-3.5,0.5-7,1.1-10.5,1.7c-0.4,0.1-0.5,0-0.5-0.4c0-0.5,0.1-1-0.1-1.5
		C22.9,158,22.9,157.4,23,156.9z"/>
	<path style="fill:#001422;" d="M191.3,152.5c-0.2-0.2-0.1-0.4-0.1-0.6c0-9,0-18.1,0-27.1c0-0.2-0.1-0.4,0.1-0.6c0,0.2,0,0.3,0,0.5
		c0,9.1,0,18.2,0,27.3C191.3,152.2,191.3,152.3,191.3,152.5z"/>
	<path style="fill:#001522;" d="M98.7,160.7c0.2-0.2,0.5-0.1,0.7-0.1c0.9,0,1.9,0,2.8,0c0.2,0,0.4-0.1,0.5,0.1
		C101.4,160.7,100.1,160.7,98.7,160.7z"/>
	<path style="fill:#AEB5B7;" d="M127,168.4c-0.1-1.2-0.1-2.4,0-3.6c0.2,0.7,0.1,1.4,0.1,2.1C127.1,167.4,127.2,167.9,127,168.4z"/>
	<path style="fill:#AEB5B7;" d="M23,156.9c0,0.6,0,1.1,0,1.7c0,0.6,0,1.2,0,1.8c0,0-0.1,0-0.1,0c0-1.1,0-2.2,0-3.3
		C22.9,157,22.9,156.9,23,156.9z"/>
	<path style="fill:#008299;" d="M85.4,74.8c-2.5-0.4-5-0.3-7.6-0.1c-2.5,0.2-4.9,0.5-7.3,1.1c-4.4,1.1-8.5,2.9-12.1,5.8
		c-1.4,1.1-2.6,2.3-3.7,3.8c0.5-0.1,0.9-0.4,1.2-0.6c4.7-2.4,9.5-4.5,14.7-5.6c2.2-0.5,4.5-0.8,6.8-1c1.5-0.1,2.9-0.2,4.4-0.2
		c1.4,0,2.7,0.1,4,0.7c1.8,0.8,1.9,2.5,1.2,3.9c-0.1,0.3-0.3,0.3-0.5,0.2c-2.4-0.4-4.8-0.6-7.3-0.5c-6.2,0.1-12,1.7-17.5,4.8
		c-2.5,1.4-4.6,3.2-7,4.8c-3.5,2.5-7.4,4.4-11.4,6c-1.6,0.6-3.2,1.1-4.8,1.4c-1.3,0.2-2.2-0.1-3-1.1c-1.1-1.4-1.7-2.9-2.3-4.5
		c-0.1-0.2-0.1-0.3-0.2-0.5c0,0,0,0-0.1,0c-1,1.1-1.5,2.5-1.8,3.9C31,98,30.8,99,31,99.9c0,0.2,0,0.3-0.3,0.4
		c-1.9,0.2-3.8,0-5.8-0.1c-1.5-0.1-3-0.3-4.4-0.7c-0.9-0.3-1.8-0.6-2.5-1.2c-0.6-0.5-0.6-0.7-0.3-1.3c2.7-5.5,6-10.5,9.8-15.2
		c2.9-3.7,6.1-7.1,9.5-10.4c1.3-1.2,2.6-2.5,4-3.6c0.3,0.2,0.3-0.2,0.5-0.3c0.2-0.2,0.4-0.3,0.6-0.5c3.1-2.2,6.5-4,9.8-5.9
		c2-1.1,4.1-2.2,6.2-3.3c0.2-0.1,0.5-0.4,0.8-0.2c0.2,0.2-0.1,0.5-0.2,0.7c-0.4,1.1-0.6,2.2-0.6,3.3c0.3-0.1,0.5-0.3,0.7-0.5
		c4.2-3.6,8.8-6.7,13.7-9.3c3.8-2,7.8-3.7,12-4.7c0.4-0.1,0.8-0.2,1.3-0.3c0.2,0,0.4-0.1,0.4,0.1c0.1,0.2-0.1,0.3-0.2,0.4
		c-1.5,1-2.5,2.5-3.3,4.2c0,0.1-0.1,0.1-0.1,0.2c0,0,0,0,0,0.1c1.1-0.5,2.1-0.9,3.2-1.4c5.5-2.2,11.2-3.7,17.1-4.6
		c2.2-0.3,4.5-0.6,6.8-0.6c0.7,0,1.4-0.1,2.1-0.1c0.2,0,0.3,0,0.5,0c0.1,0,0.2,0.1,0.2,0.2c0,0.1-0.1,0.2-0.1,0.2
		c-0.1,0.1-0.2,0.1-0.3,0.2c-2.2,1-4,2.3-5.7,4.1c1.3-0.2,2.6-0.5,3.9-0.7c3.5-0.6,7-1.1,10.5-1.4c2.2-0.2,4.4-0.3,6.6-0.5
		c2.1-0.1,4.2-0.1,6.3-0.1c4.6,0.2,9.3,0.6,13.7,2.1c1.1,0.4,2.2,0.8,3.2,1.4c0.1,0,0.2,0.1,0.2,0.1c0.1,0.1,0.4,0.2,0.3,0.4
		c-0.1,0.2-0.3,0.1-0.5,0.1c-2-0.5-4-0.5-6.1-0.4c-1.3,0-2.6,0.2-3.8,0.5c4.4,1.1,8.5,2.8,12.3,5.3c3.1,2.1,5.9,4.6,8.2,7.6
		c0.1,0.2,0.3,0.3,0.2,0.6c-0.3,0.1-0.4-0.1-0.5-0.3c-4-4-8.9-6.2-14.3-7.7c-3-0.8-6.1-1.3-9.3-1.5c-2-0.1-4-0.2-6-0.2
		c1.5,0.5,2.9,1.2,4.2,2.1c2.8,1.7,5.3,3.8,7.7,6c1.2,1.1,2.4,2.3,3.6,3.5c0.1,0.1,0.1,0.1,0.2,0.2c0.1,0.1,0.4,0.3,0.2,0.5
		c-0.1,0.2-0.4,0-0.5-0.1c-1.7-1.1-3.4-2.1-5.3-2.9c-3.7-1.8-7.5-3-11.5-3.8c-2.5-0.5-5-0.9-7.5-1.1c-2.6-0.2-5.1-0.2-7.7-0.1
		c-2.6,0.1-5.1,0.3-7.6,0.8c-0.1,0-0.3,0-0.3,0c2.9,0.4,5.8,1.1,8.6,2.1c5,1.7,9.5,4.3,13.5,7.7c0.6,0.5,1,1,1.5,1.5
		c0.1,0.1,0.3,0.3,0.2,0.5c-0.1,0.2-0.3,0.1-0.4,0.1c-0.1,0-0.3,0-0.4,0c-3-0.1-5.9-0.6-8.7-1.2c-0.5-0.1-1-0.2-1.4-0.3
		c-1.2-0.3-2.1,0.2-2.8,1.1c-1.2,1.6-1.7,3.4-2.3,5.2c-0.2,0.7-0.4,1.3-0.6,2.1c-1.4-5.9-5-10.2-9.5-13.9c-0.1-0.1-0.2,0-0.1,0.1
		c0.1,0.2,0.3,0.4,0.4,0.6c0.3,0.9,0.3,1.9,0.5,2.9c0.2,1.7,0.4,3.4,0.5,5.1c0,0.5,0,0.9,0,1.4c0,0.1,0,0.3-0.2,0.4
		c-0.2,0-0.2-0.1-0.3-0.2c-0.6-0.9-1.3-1.8-2-2.6c-2.3-2.8-5.1-5-8.3-6.8c-0.6-0.3-1.2-0.6-1.7-1c-0.9-0.8-1.9-1.4-3-2
		c-0.9-0.5-1.7-0.3-2.5,0.3c-1.6,1.3-2.9,2.9-4.1,4.6c0.4,0.1,0.8,0.1,1.1,0c1.5-0.3,2.8-1,3.9-1.9c0.3-0.2,0.5-0.2,0.8,0
		c2.2,1.4,4,3.3,5.4,5.6c2.5,3.9,3.8,8.1,4.5,12.6c0.7,4.9-0.1,9.5-1.9,14.1c-0.5,1.3-1.1,2.6-1.7,3.9c-0.2,0.3-0.3,0.4-0.6,0.2
		c-1.7-0.8-3.6-1.3-5.4-1.8c-0.5-0.1-0.7-0.2-0.5-0.8c0.6-1.7,0.9-3.5,0.9-5.3c0.3-2.8,1.3-5.2,2.7-7.6c0.8-1.3,1.4-2.6,1.5-4.1
		c0.2-2.1-0.5-3.8-2.1-5.1c-1.3-1.1-2.9-1.7-4.5-2.1C87.2,75.2,86.3,75,85.4,74.8z"/>
	<path style="fill:#006174;" d="M129.7,72.2c0.3,0,0.5,0,0.8,0c0-0.1,0-0.1,0-0.2c-6.7-6.7-15-10.2-24.3-11.6
		c1.6-1.1,15.1-1.3,21.1-0.3c6,1,13.2,3.1,19.8,7.5c-0.4-0.7-4.4-4.6-7.5-7c-2.7-2.1-5.5-4.1-8.8-5.2c0.4-0.1,0.7-0.2,1-0.2
		c1.6-0.1,3.2,0,4.8,0.1c4.8,0.3,9.4,1.1,13.9,2.8c3.1,1.2,6.1,2.7,8.6,4.9c0.8,0.6,1.4,1.3,2.2,2c0.3,0,0.4,0.3,0.6,0.5
		c1.6,2.2,3,4.6,4.1,7.1c1.9,4.1,3,8.5,3.7,12.9c0.4,2.7,0.6,5.4,0.5,8.1c-0.2,3.8-0.7,7.5-1.3,11.3c-0.3,1.9-0.7,3.9-1.1,5.8
		c0,0.2-0.1,0.5-0.2,0.7c-3.7,0-7.3,0-11,0c-0.3-0.2-0.3-0.6-0.5-0.9c-1-2.7-2.3-5.3-3.9-7.7c-3-4.5-6.9-8.1-11.6-10.9
		c-0.2-0.1-0.5-0.2-0.5-0.5c0-0.2,0.3-0.3,0.5-0.4c2.3-1.1,4.4-2.6,6.2-4.5c2.3-2.4,4-5.2,4.6-8.5c0.4-1.9,0.4-3.9,0-5.8
		c0-0.2-0.1-0.4,0-0.6c0.8-1.6,1.5-3.3,2.3-4.9c0,0-0.1-0.1-0.1-0.1c-1,0.7-2.1,1.3-3.2,1.9c-3.5,1.8-7.1,2.9-11,3.5
		c-2.1,0.3-4.2,0.5-6.3,0.4C132,72.3,130.9,72.4,129.7,72.2z"/>
	<path style="fill:#66B4C1;" d="M167.6,111.4c0.2-1.3,0.5-2.6,0.7-3.9c0.6-3,1-6.1,1.4-9.2c0.3-2.4,0.5-4.8,0.4-7.3
		c-0.1-4.4-0.8-8.7-2.1-12.9c-1.3-4.2-3.1-8.1-5.5-11.8c-0.3-0.5-0.7-0.9-1-1.4c-0.4-0.8-1-1.4-1.6-2c-2.8-3.1-6-5.7-9.7-7.7
		c-3-1.6-6.2-2.8-9.5-3.6c-0.1,0-0.2,0-0.3-0.1c1.4-0.6,7.1-1.1,10.7-0.2c-0.5-0.4-1.1-0.7-1.7-1c-3-1.3-6.1-1.9-9.2-2.3
		c-3.9-0.5-7.8-0.6-11.8-0.5c-2.8,0.1-5.6,0.3-8.4,0.6c-4.5,0.5-9,1.2-13.5,2c-0.1,0-0.2,0-0.4,0c1.9-2,4-3.6,6.5-4.6
		c-5.2,0-10.3,0.6-15.3,1.7c-5.1,1.1-10,2.8-14.8,5c1-2.1,2.1-3.9,4-5.2c-10.7,2.5-19.8,8-28.2,15.1c0-1.6,0.3-3.1,1-4.6
		c-5.8,3.1-11.5,6-16.9,9.6c-0.2-0.1-0.2-0.1,0.1-0.4c2.4-2.2,4.9-4.1,7.5-6.1c7.2-5.3,15-9.6,23.2-13.2c2-0.8,4-1.6,6.1-2.3
		c3.4-1.1,6.9-2.1,10.4-2.8c0.2,0,0.5-0.1,0.7-0.2c3.1-0.6,6.2-1.1,9.4-1.4c5.4-0.6,10.9-0.5,16.3-0.4c3.4,0,6.8,0.2,10.1,0.5
		c8.1,0.7,16,2.3,23.6,5.4c5.6,2.3,10.7,5.4,15,9.7c5.7,5.8,9.4,12.6,10.3,20.8c0.7,6.3,0.4,12.6-0.7,18.8
		c-0.9,5.2-2.4,10.2-4.4,15.1c-0.1,0.4-0.3,0.5-0.7,0.5C168.6,111.3,168.1,111.4,167.6,111.4z"/>
	<path style="fill:#00424D;" d="M85,153.2c1.4-0.1,2.8-0.2,4.2-0.2c2.1-0.1,4.2-0.2,6.3-0.3c0.9,0,1.8,0,2.7-0.1
		c4.4-0.2,8.8-0.1,13.2-0.1c1.6,0,3.2,0.1,4.9,0.1c1.9,0,3.8,0.2,5.7,0.3c0.8,0,1.5,0.2,2.3,0.2c0.4,0,0.2,0.2,0.2,0.4
		c-0.8,1.7-1.4,3.5-1.8,5.3c-0.5,2-0.8,4.1-0.9,6.1c0,1-0.1,1.9-0.1,2.9c0.1,3.6,0.6,7.1,1.6,10.5c0.9,3.4,2.2,6.7,3.8,9.8
		c0.1,0.1,0.2,0.3,0.1,0.4c-0.1,0.1-0.3,0-0.4-0.1c-2.5-1.1-4.7-2.6-6.7-4.3c-2.9-2.5-5.3-5.4-7.3-8.8c-1.9-3.4-3.4-7-4.2-10.8
		c-0.5-2.3-0.9-4.5-1.1-6.8c0-0.7-0.2-1.3-0.2-2c0-0.3-0.1-0.4-0.4-0.3c-1.3,0.2-2.7,0.2-4,0.3c-1.6,0.1-3.2,0.1-4.7,0.1
		c-3.6-0.1-7.2-0.5-10.7-1.7c-0.8-0.3-1.5-0.6-2.3-0.9C85,153.3,85,153.2,85,153.2z"/>
	<path style="fill:#00424D;" d="M151.4,71.5c0.4,1.6,0.5,3.2,0.4,4.8c-0.1,1.7-0.5,3.2-1.1,4.8c-0.7,1.7-1.7,3.3-2.9,4.7
		c-2,2.3-4.4,4.1-7.2,5.5c-0.1,0.1-0.3,0.1-0.3,0.2c0,0.2,0.2,0.2,0.3,0.2c3.2,1.8,6.1,4.1,8.6,6.9c2.8,3.1,5,6.5,6.6,10.3
		c0.3,0.8,0.7,1.6,0.9,2.4c-6.3,0-12.7,0-19,0c-0.3,0-0.4-0.1-0.4-0.4c0.4-1.6,0.7-3.3,1-4.9c0.2-1.2,0.4-2.4,0.4-3.7
		c0-0.5,0.2-0.9,0.1-1.3c0.2-0.1,0.3,0,0.4,0.1c2.8,1.3,5.5,2.8,8.2,4.2c0.1,0,0.1,0.1,0.2,0.1c0.5,0.4,1,0.6,1.5,0.9
		c0.1,0.1,0-0.1,0-0.1c-0.1-0.4-0.4-0.6-0.6-0.8c-2.5-2.9-5.5-5.3-8.7-7.3c-3.1-1.9-6.3-3.5-9.7-4.7c-1.8-0.7-3.7-1.3-5.7-1.9
		c0.9-0.3,1.8-0.6,2.6-0.9c5.1-1.8,9.7-4.4,14-7.7c2.2-1.7,4.2-3.6,6.1-5.6C148.7,75.5,150.1,73.6,151.4,71.5z"/>
	<path style="fill:#FEFEFE;" d="M42.4,138.1C42.4,138.1,42.4,138.1,42.4,138.1c0.3,0.4,0.3,0.8,0.3,1.2c0,2.6,0,5.3,0,7.9
		c0,0.3,0,0.7,0.1,1c0.2,1.8-0.8,3.5-2.6,4c-0.9,0.3-1.9,0.3-2.8,0.4c-1.8,0.3-3.7,0.5-5.6,0.7c-0.2,0-0.5,0.1-0.7-0.1
		c-1,0.1-1,0.1-1-0.9c0-3.7-0.1-7.5-0.1-11.2c0-3.4-0.1-6.7-0.1-10.1c0-2.1,0-4.2-0.1-6.2c0-0.3,0-0.5,0.4-0.5c3-0.4,6-0.8,9-1.1
		c1.4-0.2,2.4,0.5,3.1,1.8c0.2,0.3,0.3,0.7,0.3,1.1c0,2.4,0,4.7,0,7.1c0,0.4,0,0.8,0.1,1.2c0.1,0.7-0.1,1.4-0.6,2
		c-0.3,0.3-0.3,0.5,0,0.8C42.3,137.4,42.5,137.7,42.4,138.1z"/>
	<path style="fill:#FEFEFE;" d="M78.4,136L78.4,136c0.2,0.3,0.3,0.7,0.3,1.1c0,3.7,0,7.4,0,11.1c0,0.8-0.2,1-1,1
		c-0.9,0-1.8,0.2-2.8,0.1c-0.2,0-0.4,0.1-0.6-0.1c-1.1,0-1.1,0-1.1-1.1c0-3.1,0-6.3,0-9.4c-0.1-0.2-0.2-0.4-0.2-0.6
		c0-0.1,0-0.3-0.1-0.4c-0.4-0.4-0.8-0.1-1.3-0.1c-0.3,0-0.5,0.1-0.5,0.4c0,0.2,0,0.4,0,0.5c0,3.2,0,6.4,0,9.7c0,0.2,0,0.4,0,0.7
		c0,0.4-0.2,0.7-0.6,0.7c-1.1,0.1-2.2,0.1-3.4,0.2c-0.1,0-0.2,0-0.3-0.1c-1,0-1,0-1-1.1c0-9-0.1-18.1-0.1-27.1c0-0.8,0-0.8,0.8-0.9
		c2.7-0.2,5.4-0.3,8.1-0.5c1.1-0.1,2,0.1,2.8,0.9c0.3,0.3,0.5,0.7,0.7,1.1c0.2,0.3,0.3,0.7,0.3,1c0,3.1,0,6.2,0,9.3
		c0,0.7-0.2,1.3-0.6,1.8c-0.3,0.3-0.3,0.6,0,0.9C78.2,135.3,78.4,135.6,78.4,136z"/>
	<path style="fill:#FEFEFE;" d="M83.7,148.8c-1.1-0.1-1.1-0.1-1.1-1.2c0-9.1,0-18.2,0-27.3c0-0.5,0.1-0.6,0.6-0.6
		c3-0.1,5.9-0.2,8.9-0.3c1.4,0,2.5,0.7,3,2.1c0.2,0.2,0.2,0.5,0.2,0.7c0,3.2,0,6.4,0,9.6c0,0.6-0.2,1.2-0.6,1.7
		c-0.3,0.3-0.3,0.5,0,0.9c0.4,0.6,0.7,1.3,0.7,2c0,2.6,0.1,5.3,0,7.9c0,1.2-0.1,2.4-0.1,3.5c0,0.6-0.1,0.8-0.8,0.8
		c-1.2,0-2.4,0.1-3.6-0.1c-0.9,0-0.9,0-0.9-0.9c0-3,0-6.1,0-9.1c0-0.2,0-0.4,0-0.6c-0.1-0.2-0.2-0.4-0.2-0.6c0-0.4-0.2-0.5-0.6-0.5
		c-1.2,0.1-1.2,0.1-1.2,1.3c0,3.1,0,6.2,0,9.2c0,0.2,0,0.4,0,0.7c0,0.4-0.2,0.7-0.6,0.7c-0.9,0.1-1.8,0.1-2.7,0.1
		C84.4,148.9,84,149,83.7,148.8z"/>
	<path style="fill:#FEFEFE;" d="M152.8,150.4c-0.1,0-0.2,0-0.3-0.1c-0.8-0.1-0.8-0.1-0.8-1c0-1.9,0.1-3.8,0.1-5.8
		c0.1-4.8,0.1-9.5,0.2-14.3c0-2.6,0.1-5.1,0.1-7.7c0-0.4,0.1-0.5,0.5-0.4c2.6,0.2,5.1,0.5,7.7,0.7c0.2,0,0.5,0,0.7,0.1
		c1.6,0.1,2.8,0.7,3.5,2.2c0.6,0.8,0.4,1.7,0.3,2.6c0,0.4-0.1,0.9-0.1,1.3c0.1,3.2-0.1,6.5-0.1,9.7c0,1.9,0,3.7-0.1,5.6
		c-0.1,1.7-0.1,3.3-0.1,4.9c0,1.9-1.5,3.2-3.4,3c-2.6-0.2-5.2-0.5-7.8-0.7C153.1,150.6,153,150.6,152.8,150.4z"/>
	<path style="fill:#FEFEFE;" d="M136.3,149.3c-1-0.1-1-0.1-1-1.2c0.1-5.4,0.1-10.9,0.2-16.3c0-2.8,0.1-5.6,0.1-8.5
		c0-0.9,0.1-1.9,0.1-2.8c0-0.3,0.1-0.4,0.4-0.4c1.5,0.1,2.9,0.2,4.4,0.3c0.4,0,0.5,0.1,0.4,0.5c0,0.2,0,0.5,0,0.8
		c0.3,0.4,0.2,0.8,0.2,1.2c-0.2,1.9,0,3.8-0.1,5.8c-0.1,3.3-0.1,6.6-0.1,9.9c0,1.7-0.1,3.4-0.1,5c0,0.8,0,0.8,0.7,1
		c0.1,0,0.1,0.1,0.2,0.1c0.9,0.2,0.9,0.2,0.9-0.7c0-3.4,0.1-6.8,0.1-10.2c0.1-4.3,0.1-8.5,0.2-12.8c0-0.5,0.1-0.5,0.6-0.5
		c1.4,0.1,2.7,0.2,4.1,0.3c0.5,0,0.7,0.1,0.6,0.6c0,0.2,0,0.4,0,0.6c0.2,0.2,0.2,0.4,0.2,0.7c-0.1,2.9,0,5.9-0.1,8.8
		c0,1.4-0.1,2.8-0.1,4.2c0,3.3-0.2,6.6-0.1,9.9c0,0.6-0.1,1.2-0.1,1.8c-0.1,0.8-0.6,1.4-1.2,1.8c-0.7,0.5-1.5,0.7-2.4,0.6
		c-1.4-0.1-2.7-0.2-4.1-0.3c-1.1-0.1-2.3-0.1-3.4-0.2C136.5,149.4,136.4,149.4,136.3,149.3z"/>
	<path style="fill:#FEFEFE;" d="M100.6,148.4c-0.3,0-0.5,0-0.8,0c-0.4,0-0.5-0.1-0.4-0.4c0.6-4.6,1.1-9.1,1.7-13.7
		c0.5-4,1-7.9,1.5-11.9c0.1-0.9,0.2-1.8,0.3-2.7c0-0.3,0.1-0.4,0.4-0.4c2.5,0,5,0,7.6,0c0.3,0,0.3,0.1,0.4,0.3c0,0.3,0,0.7,0.1,1
		c0.3,0.7,0.3,1.5,0.4,2.2c0.5,4.3,0.9,8.5,1.4,12.8c0.4,4,0.9,8.1,1.3,12.1c0.1,0.8,0,0.9-0.8,0.9c-0.9,0-1.8,0-2.7,0
		c-0.3,0-0.5,0-0.7-0.1c-0.9,0-0.9,0-1-1c-0.1-1.1-0.2-2.2-0.4-3.3c-0.1-0.1-0.1-0.1-0.1-0.2c-0.1-0.9-0.3-0.8-1-0.8
		c-0.5,0-1,0-1.5,0c-0.7,0-0.7,0.1-0.8,0.7c-0.1,1.3-0.3,2.5-0.5,3.8c-0.1,0.8-0.2,0.9-1,0.9c-0.8,0-1.7,0-2.5,0
		C101,148.5,100.8,148.6,100.6,148.4z"/>
	<path style="fill:#FEFEFE;" d="M48,151.3c-0.1,0-0.1,0-0.2,0c-0.3-0.1-0.8,0.3-1,0c-0.1-0.2,0-0.6,0-0.9c0.3-2.8,0.6-5.6,0.9-8.4
		c0.3-2.8,0.6-5.7,0.9-8.5c0.3-2.8,0.6-5.5,0.9-8.3c0.1-0.9,0.2-1.8,0.3-2.6c0-0.4,0.1-0.5,0.5-0.5c2.3-0.2,4.6-0.4,6.9-0.6
		c0.9-0.1,0.8-0.2,0.9,0.8c0,0.2,0.1,0.4,0.1,0.5c0.3,0.3,0.2,0.8,0.3,1.1c0.5,3.8,0.9,7.6,1.4,11.3c0.6,4.8,1.2,9.5,1.7,14.3
		c0.1,0.6-0.1,0.9-0.6,0.9c-1,0.1-2.1,0.2-3.1,0.2c-0.2,0-0.4,0-0.6-0.1c-0.9,0-0.9,0-1-0.9c-0.1-1-0.2-2.1-0.4-3.1
		c-0.2-0.2-0.2-0.5-0.2-0.7c0-0.3-0.2-0.4-0.5-0.4c-0.8,0-1.6,0.1-2.4,0.2c-0.3,0-0.4,0.3-0.4,0.6c-0.2,1.4-0.3,2.7-0.4,4.1
		c-0.1,0.6-0.2,0.8-0.8,0.9c-1,0.1-2,0.2-3.1,0.3C48.2,151.4,48.1,151.4,48,151.3z"/>
	<path style="fill:#FEFEFE;" d="M179.2,153.3c-0.9-0.1-0.9-0.1-1-1.1c-0.1-1.2-0.2-2.3-0.3-3.5c-0.1-0.1-0.1-0.2-0.2-0.3
		c-0.2-0.7-0.2-0.7-0.9-0.8c-0.6-0.1-1.2-0.1-1.7-0.2c-0.4-0.1-0.6,0.1-0.6,0.5c-0.2,1.3-0.3,2.5-0.5,3.8c-0.1,0.9-0.3,1-1.2,0.9
		c-0.8-0.1-1.6-0.2-2.4-0.3c-0.2,0-0.4,0-0.6-0.2c-0.4-0.1-0.9,0.1-1.1-0.2c-0.2-0.2,0.1-0.7,0.1-1.1c0.5-3.3,0.9-6.6,1.4-9.9
		c0.5-3.5,1-7,1.5-10.4c0.3-2.2,0.6-4.4,0.9-6.7c0-0.4,0.2-0.5,0.5-0.4c1.8,0.3,3.7,0.5,5.5,0.7c0.5,0.1,1.1,0.2,1.6,0.2
		c0.5,0,0.6,0.2,0.6,0.7c0,0.2,0,0.4,0.1,0.5c0.4,0.6,0.3,1.2,0.3,1.9c0.3,3,0.6,6.1,0.9,9.1c0.3,3,0.5,6,0.8,8.9
		c0.2,2.5,0.5,5.1,0.7,7.6c0.1,0.8-0.1,1-0.9,0.9c-0.9-0.1-1.8-0.2-2.7-0.4C179.6,153.5,179.3,153.5,179.2,153.3z"/>
	<path style="fill:#008299;" d="M108.4,35.8c-2.8,0.1-5.5,0.2-8.3,0.5C97,36.6,94,37,90.9,37.6c-0.1,0-0.1,0-0.2,0
		c-0.2-0.2-0.1-0.5-0.1-0.7c0.3-1.5,1-2.9,1.7-4.2c1.3-2.4,3-4.5,4.8-6.5c0.2,0.1,0.2,0.1,0.2,0.3c0.2,2.1,0.6,4,1.6,5.9
		c0.2,0.4,0.5,0.8,0.7,1.2c0.2,0.4,0.4,0.3,0.6,0c1.5-2.4,3.3-4.5,5.2-6.5c4.4-4.7,9.4-8.5,15.2-11.3c1.4-0.7,2.9-1.4,4.4-1.9
		c0.1,0.2-0.1,0.3-0.1,0.4c-1.1,2-2.4,3.9-3.5,5.9c-2.2,3.8-4.2,7.6-5.6,11.8c-0.3,1.1-0.6,2.2-0.8,3.4c-0.1,0.7-0.1,0.7-0.8,0.7
		c-1.8,0-3.5,0-5.3-0.1C108.8,35.8,108.6,35.7,108.4,35.8z"/>
	<path style="fill:#FEFEFE;" d="M124.7,144c1.2,0.1,1.2,0.1,1.2-1.1c0-1.1,0.1-2.2,0.1-3.3c0-0.3,0.1-0.4,0.4-0.4
		c1.5,0.1,3,0.1,4.4,0.2c0.3,0,0.3,0.1,0.3,0.4c0,0.3,0,0.6,0,0.9c0.2,0.2,0.2,0.5,0.2,0.7c0.1,1.7-0.1,3.3-0.1,4.9
		c-0.1,1.4-1.4,2.5-2.9,2.6c-0.8,0-1.5,0.1-2.3-0.1c-0.1,0-0.3,0-0.4,0c-1.7,0.1-3.5-0.2-5.2-0.1c-0.3,0-0.5,0-0.7-0.2
		c-1.1-0.1-1.1-0.1-1.1-1.2c0-6.3,0.1-12.6,0.1-19c0-1.9,0.1-3.8,0.1-5.8c-0.1-1.9,1.7-3.2,3.2-3.1c1.9,0.1,3.8,0.1,5.8,0.2
		c1.1,0,2.2,0.1,3.3,0.1c0.4,0,0.5,0.1,0.4,0.5c0,0.3,0,0.5,0,0.8c0.2,0.3,0.1,0.6,0.2,0.8c0.1,2.2-0.1,4.5-0.1,6.7
		c0,0.7-0.1,0.8-0.8,0.8c-1,0-2-0.2-3-0.1c-0.2,0-0.3,0-0.4-0.2c-0.3,0-0.8,0-1-0.2c-0.2-0.2-0.1-0.7-0.1-1c0-0.8,0-1.6,0-2.4
		c-0.2-0.2-0.2-0.4-0.2-0.6c0-0.4-0.2-0.5-0.5-0.5c-1.6,0-1.4-0.1-1.4,1.3c0,5-0.2,10-0.1,15c0,0.7-0.1,1.5-0.1,2.2
		c0,0.7,0,0.7,0.7,0.9C124.6,143.9,124.7,143.9,124.7,144z"/>
	<path style="fill:#008299;" d="M144.1,74.6c-0.8,0.9-1.6,1.6-2.4,2.3c-2.6,2.3-5.4,4.4-8.4,6.3c-4.1,2.5-8.5,4.4-13.2,5.5
		c-0.7,0.1-1.3,0.2-2,0.4c-0.3,0-0.4,0-0.5-0.3c-0.7-4.3-0.5-8.6,1.6-12.5c0.2-0.5,0.6-0.9,0.8-1.4c0.1-0.2,0.2-0.3,0.5-0.2
		c2,1.1,4.2,1.5,6.5,1.8c1.5,0.2,3,0.3,4.4,0.2c4-0.2,8-0.9,11.9-2C143.6,74.6,143.8,74.5,144.1,74.6z"/>
	<path style="fill:#006174;" d="M72.8,112.9c-1.2,0-2.3,0-3.5,0c-2.2,0.1-4.4,0.2-6.5,0.4c-3.2,0.3-6.5,0.7-9.6,1.3
		c-3.5,0.7-6.9,1.8-10.2,2.9c-0.7,0.3-1.4,0.5-2.2,0.6c-1.5,0.1-2.7-0.5-3.7-1.4c-1-0.9-1.8-1.9-2.5-3.1c-0.2-0.3-0.2-0.4,0.2-0.6
		c2.6-1.3,5.4-2.2,8.2-2.8c1.4-0.3,2.8-0.6,4.2-0.8c0.2,0,0.3,0,0.5,0c0.5,0,1,0,1.5-0.1c2.5-0.1,5-0.1,7.4,0
		c2.8,0.1,5.5,0.5,8.2,1.1c2.3,0.5,4.5,1.1,6.7,2c0.3,0.1,0.7,0.2,1,0.3C72.5,112.6,72.8,112.6,72.8,112.9z"/>
	<path style="fill:#A1A9AC;" d="M69.8,97.5c0.8,0.1,1.5,0.3,2.3,0.5c5.9,1.9,11.8,3.6,17.7,5.4c3.2,1,6.4,1.8,9.6,2.9
		c1.1,0.4,2.3,0.6,3.5,0.4c0.3-0.1,0.7-0.2,0.9-0.5c0.2-0.3,0.4-0.3,0.8-0.1c2.3,1.2,4.7,2.4,7.1,3.6c0.4,0.2,0.4,0.4,0.1,0.7
		c-1.1,1.1-2.3,1.9-3.5,2.8c-0.2,0.2-0.5,0.1-0.7,0c-2.1-0.5-4.1-1.2-6.2-1.9c-8.1-2.9-16-6.1-24-9.4c-2.5-1-5.1-2.1-7.6-3.2
		c-0.1,0-0.1,0-0.2-0.1c-0.4-0.1-0.6-0.4-0.6-0.8C69.1,97.5,69.5,97.6,69.8,97.5z"/>
	<path style="fill:#FEFEFE;" d="M65.3,90.9c-1.2,3.1-1.3,6.4-1.6,9.6c-0.3,0-0.5-0.2-0.8-0.3c-2.2-1.1-4.4-2.2-6.6-3.2
		c-0.4-0.2-0.4-0.3-0.1-0.5c5.5-5.1,11.8-8.5,19.2-9.6c0.4-0.1,0.8-0.1,1.1-0.1c0.2,0,0.3,0,0.2,0.2c-0.5,2.2-0.5,4.5-0.6,6.7
		c-0.1,1.1-0.1,2.1-0.1,3.2c0,0.2,0,0.4-0.3,0.3c-1.4-0.5-2.9-0.8-4.3-1.2c-0.6-0.2-1.1-0.5-1.6-0.9c-1.4-1.1-2.7-2.3-4-3.5
		C65.7,91.3,65.5,91.1,65.3,90.9z"/>
	<path style="fill:#008299;" d="M72.8,112.9c-3.3-0.9-6.5-2.2-9.9-2.7c-1.6-0.2-3.1-0.4-4.7-0.6c-3.1-0.3-6.1-0.2-9.2-0.2
		c-0.3,0-0.5,0.2-0.8-0.1c2-0.3,4-0.5,6-0.7c2.2-0.2,4.4-0.2,6.6-0.2c3.2,0.1,6.5,0.4,9.7,0.9c1.8,0.3,3.7,0.6,5.5,0.7
		c3.1,0.1,5.8-0.8,8.2-2.6c0.4-0.3,0.7-0.3,1.2,0c1.6,0.9,3.2,1.8,5,2.4c-0.7,0.6-1.4,1.1-2.1,1.5c-2.2,1.2-4.5,1.7-7,2
		C78.5,113.5,75.7,113.1,72.8,112.9z"/>
	<path style="fill:#006174;" d="M108.4,35.8c0.2-0.2,0.4-0.1,0.6-0.1c1.8,0,3.5,0,5.3,0c0.3,0,0.5,0,0.6-0.4c0.7-4.3,2.5-8.2,4.5-12
		c1.6-3.1,3.4-6,5.3-8.9c0.1-0.1,0.1-0.3,0.3-0.3c-0.1,0.6-0.4,1.2-0.6,1.8c-0.9,2.5-1.5,5.1-1.8,7.8c-0.5,4.5,0.1,8.8,1.7,13
		c0,0,0,0,0,0.1c-1.7-0.2-3.5-0.4-5.2-0.5c-1.4-0.1-2.7-0.2-4.1-0.4c-0.8,0.1-1.6,0-2.5,0c-0.9,0-1.9,0.1-2.8,0
		C109.2,35.9,108.8,35.8,108.4,35.8z"/>
	<path style="fill:#006174;" d="M183.1,81.8c-1.1-0.9-2.2-1.7-3.4-2.5c-0.2-0.1-0.3-0.3-0.3-0.6c-0.8-5.1-1.9-10-4-14.7
		c-0.8-1.7-1.6-3.2-2.7-4.7c0-0.1,0-0.1,0.1-0.1c3.5,2.5,6.4,5.5,8.9,8.9c0.8,3.1,1.3,6.3,1.6,9.6c0.1,1.2,0,2.4,0,3.5
		C183.2,81.4,183.2,81.6,183.1,81.8z"/>
	<path style="fill:#00424D;" d="M93.4,64.9c2.2,1,4.3,2.3,6.2,3.9c2.4,1.9,4.3,4.2,6.1,6.9c0-0.6,0-1.1,0-1.6
		c-0.2-2.5-0.5-5-0.8-7.4c0-0.2,0-0.5,0-0.8c1.4,1.8,2.2,3.8,2.7,6c0.4,1.8,0.6,3.6,0.7,5.5c0.1,1.4,0,2.8,0,4.3
		c0,1.2-0.2,2.3-0.4,3.5c-0.2-0.6-0.4-1.1-0.6-1.7c-1.2-3.1-2.8-6-4.7-8.8c-1.9-2.7-4.1-5.2-6.4-7.5c-0.7-0.7-1.5-1.4-2.3-2
		C93.5,65.1,93.5,65,93.4,64.9z"/>
	<path style="fill:#A1A9AC;" d="M20.2,127.4c-0.1,0-1.3-1-1.3-1c0-0.2,0.2-0.3,0.3-0.4c1-1,1.9-2,2.9-2.9c2.6-2.7,5.3-5.3,7.9-8
		c0.2-0.2,0.3-0.3,0.5,0c0.7,1,1.4,1.9,2.2,2.8c0.2,0.3,0.1,0.4-0.1,0.6c-4.1,2.9-8.1,5.9-12.2,8.8
		C20.4,127.3,20.3,127.3,20.2,127.4z"/>
	<path style="fill:#66B4C1;" d="M183.1,81.8c0.2-4.3-0.5-8.6-1.4-12.8c-0.1-0.3-0.3-0.5-0.1-0.8c5,6.9,6.7,15.5,6.6,19.7
		C186.8,85.5,185,83.6,183.1,81.8z"/>
	<path style="fill:#008299;" d="M136.3,149.3c2.1,0.1,4.2,0.3,6.3,0.4c0.9,0,1.7,0.2,2.6,0.1c1.5-0.3,2.4-1.4,2.4-2.8
		c0.1-4.8,0.1-9.6,0.2-14.5c0-2.3,0.1-4.6,0.1-6.8c0-1.1,0.1-2.3,0.1-3.4c1.2,0.1,1.1-0.2,1,1.1c-0.1,2.4,0,4.9-0.1,7.3
		c-0.1,2.3,0,4.6-0.1,6.9c-0.1,2.4,0,4.9-0.1,7.3c0,1.2-0.1,2.4-0.1,3.5c0,1.4-1.2,2.6-2.6,2.7c-1.1,0.1-2.2-0.1-3.3-0.1
		c-1.5-0.1-2.9-0.2-4.4-0.3c-0.5,0-1.1-0.1-1.6-0.1c-0.4,0-0.5-0.1-0.5-0.5C136.3,149.7,136.3,149.5,136.3,149.3z"/>
	<path style="fill:#A1A9AC;" d="M123.5,94.6c0,0.1-0.1,0.1-0.1,0.2c-0.6,0.8-1.1,1.6-1.7,2.4c-0.2,0.2-0.3,0.3-0.6,0.2
		c-2.9-0.9-5.8-1.8-8.7-2.8c-0.3-0.1-0.4-0.2-0.2-0.5c0.5-1.1,1-2.2,1.5-3.3c0.1-0.2,0.2-0.3,0.4-0.3c3.2,0.8,6.4,1.8,9.2,3.7
		C123.3,94.4,123.5,94.4,123.5,94.6z"/>
	<path style="fill:#008299;" d="M152.8,150.4c1.9,0.1,3.8,0.3,5.7,0.5c0.9,0.1,1.8,0.2,2.6,0.3c1.6,0.1,3.2-0.8,3.2-2.8
		c0-2.6,0.1-5.1,0.1-7.7c0.1-4.5,0.2-9,0.3-13.5c0-1,0.2-2-0.1-3c0.8,0.6,1.2,1.4,1.2,2.4c0,3.6-0.1,7.1-0.2,10.7
		c-0.1,1.7,0,3.4-0.1,5.1c-0.1,2.6-0.1,5.1-0.2,7.7c0,1.1-1,2.1-2.2,2.3c-1,0.2-2-0.1-3-0.2c-1.4-0.1-2.7-0.3-4.1-0.4
		c-1-0.1-1.9-0.2-2.9-0.2c-0.3,0-0.3-0.1-0.3-0.4C152.8,151,152.8,150.7,152.8,150.4z"/>
	<path style="fill:#FEFEFE;" d="M78.5,93.9c0.1-1.1,0.2-2.2,0.4-3.5c1.2,1.3,2.5,2.4,3.8,3.4c0.9,0.7,1.8,1.5,2.8,2.1
		c0.6,0.4,0.8,0.9,0.8,1.5c0.1,0.7,0,1.5-0.2,2.2c0,0.2-0.1,0.3-0.4,0.2c-2-0.7-4.1-1.2-6.2-1.7c-0.5-0.1-0.8-0.3-0.9-0.9
		c-0.1-0.4-0.2-0.7-0.2-1C78.4,95.4,78.4,94.7,78.5,93.9z"/>
	<path style="fill:#A1A9AC;" d="M117.6,113.8c1.2-1.6,2.5-3.2,3.7-4.8c1.4-1.9,2.8-3.8,4.2-5.7c0.2-0.3,0.4-0.4,0.7-0.4
		c0.9,0,1.7,0,2.6,0c0.3,0,0.4,0.1,0.3,0.4c-1,3.3-1.9,6.6-3.1,9.8c-0.1,0.2-0.2,0.5-0.4,0.7c-0.2,0.1-0.4,0.1-0.6,0.1
		c-2.3,0-4.6,0-6.9,0C118,113.9,117.8,113.9,117.6,113.8z"/>
	<path style="fill:#00424D;" d="M85.4,74.8c2.9,0.4,5.7,1.2,7.8,3.3c1.3,1.2,1.6,2.8,1.5,4.6c-0.2,1.8-1,3.3-1.9,4.8
		c-0.9,1.6-1.6,3.3-2,5.1c-0.2,0.6-0.3,1.2-0.4,1.8c-0.1-1,0-2.1-0.1-3.1c-0.2-1.4-0.4-2.7-0.9-4.1c-0.2-0.5-0.1-0.7,0.3-1
		c1-0.8,1.8-1.7,2.3-2.7c1-1.8,0.5-3.6-0.6-5.2c-1.1-1.7-2.8-2.5-4.7-3.1C86.3,75.1,85.9,75,85.4,74.8z"/>
	<path style="fill:#008399;" d="M90.9,148.6c1.2-0.1,2.5-0.1,3.7-0.1c0.4,0,0.5-0.1,0.5-0.5c0-3.8,0-7.6,0.1-11.5
		c0-0.9-0.2-1.7-0.9-2.3c-0.2-0.2-0.2-0.3,0-0.4c0.7-0.6,0.9-1.3,0.9-2.2c0-2.9,0-5.9,0-8.8c0-0.5,0-0.9-0.1-1.3
		c0.7,0.3,0.8,0.9,1.1,1.5c0.1,0.1,0,0.2,0,0.4c0,3.3,0,6.6,0,9.8c0,0.1,0,0.3,0,0.4c-0.1,0.6-0.3,1-0.8,1.4c-0.2,0.2-0.3,0.3,0,0.6
		c0.6,0.5,0.8,1.2,0.8,2c0,3.9,0,7.7,0,11.6c0,0.4-0.1,0.5-0.5,0.6c-1.4,0.1-2.7,0-4.1,0.1c-0.4,0-0.6-0.1-0.5-0.5
		C91.1,149,91.2,148.7,90.9,148.6z"/>
	<path style="fill:#008299;" d="M179.2,153.3c1.2,0.2,2.4,0.3,3.6,0.5c0.4,0.1,0.6,0,0.5-0.4c-0.3-3.3-0.6-6.7-0.9-10.1
		c-0.3-3.4-0.6-6.7-0.9-10.1c-0.2-2.6-0.5-5.2-0.7-7.7c1,0.2,1,0.2,1,1.2c0.2,2.2,0.4,4.4,0.6,6.6c0.2,1.7,0.3,3.5,0.5,5.2
		c0.2,2.2,0.4,4.5,0.6,6.7c0.2,1.7,0.3,3.5,0.5,5.2c0.1,1.4,0.2,2.8,0.4,4.2c0,0.3,0,0.5-0.4,0.4c-1.4-0.2-2.8-0.4-4.2-0.6
		c-0.4-0.1-0.5-0.2-0.5-0.6C179.2,153.7,179.2,153.5,179.2,153.3z"/>
	<path style="fill:#008299;" d="M110.1,148.4c1.2,0,2.5,0,3.7,0c0.4,0,0.4-0.1,0.4-0.4c-0.2-1.9-0.4-3.7-0.6-5.6
		c-0.3-2.8-0.6-5.7-0.9-8.5c-0.3-3.2-0.7-6.3-1-9.5c-0.1-1.3-0.3-2.5-0.4-3.8c0.9,0,0.9,0,1,0.9c0.3,2.6,0.6,5.2,0.8,7.8
		c0.2,2.2,0.4,4.3,0.7,6.5c0.2,2.2,0.5,4.3,0.7,6.5c0.2,2.2,0.5,4.3,0.7,6.5c0.1,1,0.1,1-0.9,1c-1.1,0-2.3-0.1-3.4,0
		c-0.5,0-0.7-0.2-0.7-0.6C110.2,148.8,110.2,148.6,110.1,148.4z"/>
	<path style="fill:#008299;" d="M57.5,150.4c1.2-0.1,2.4-0.2,3.7-0.3c0.4,0,0.6-0.1,0.5-0.6c-0.6-5-1.2-10.1-1.8-15.1
		c-0.5-3.7-0.9-7.4-1.4-11.2c0-0.2,0-0.4,0-0.6c0.8,0,0.9-0.1,1,0.8c0.3,2.2,0.5,4.4,0.8,6.6c0.3,2.2,0.6,4.5,0.8,6.7
		c0.2,1.9,0.5,3.8,0.7,5.6c0.3,2.3,0.6,4.6,0.8,6.9c0.1,0.6,0.1,1.2,0.2,1.8c0,0.3-0.2,0.3-0.3,0.3c-1.2,0.1-2.4,0.2-3.6,0.3
		c-0.4,0-0.8,0.3-1.1,0c-0.2-0.2-0.1-0.7-0.2-1C57.6,150.5,57.5,150.5,57.5,150.4z"/>
	<path style="fill:#008299;" d="M31.2,153.3c2.8-0.4,5.6-0.7,8.5-1.1c1.9-0.3,3.1-1.7,3-3.7c0-2.9-0.1-5.9-0.1-8.8
		c0-0.5,0-1-0.1-1.6c0.7,0.4,1,1,1.1,1.8c0.2,1.4,0.1,2.9,0.1,4.3c0,1.9-0.1,3.8,0,5.8c0.1,1.9-1.5,3.3-3.1,3.5c-3,0.4-6,0.8-9,1.2
		c-0.3,0-0.4-0.1-0.4-0.4C31.2,153.9,31.2,153.6,31.2,153.3z"/>
	<path style="fill:#66B4C1;" d="M97.2,26.1c0.1,0.3-0.2,0.4-0.4,0.6c-2,2.4-3.9,4.9-5.2,7.8c-0.4,1-0.8,1.9-0.9,3
		c-1.2,0.3-2.4,0.6-3.7,0.9c-0.4,0.1-0.2-0.2-0.2-0.3c0.3-0.8,0.7-1.7,1.1-2.5c1.4-2.9,3.2-5.5,5.7-7.5
		C94.8,27.3,95.9,26.6,97.2,26.1z"/>
	<path style="fill:#FEFEFE;" d="M77.6,105.3c-3-0.2-6.1-0.5-9.1-0.7c-1-0.1-2.1-0.1-3.1-0.2c-0.1,0-0.2,0-0.2-0.1l0,0
		c0.4,0,0.3-0.2,0.3-0.4c0.2-1.6,0.4-3.2,0.5-4.9c3.8,2.8,8,4.8,12.5,6.2C78.1,105.5,77.9,105.3,77.6,105.3z"/>
	<path style="fill:#FEFEFE;" d="M78.2,86.6c1.2-0.3,2.3-0.3,3.5-0.3c0.9,0,1.8,0.1,2.7,0.2c0.4,0,0.7,0.2,0.9,0.6
		c0.8,1.4,1.2,2.9,1.3,4.4c0.1,0.9,0.1,1.9,0.1,2.9C84,91.6,81.1,89.2,78.2,86.6z"/>
	<path style="fill:#FEFEFE;" d="M41.8,107.1c-2,0.3-3.9,0.7-5.8,1.3c-0.3,0.1-0.5-0.1-0.6-0.3c-0.7-1.1-1.1-2.3-1.5-3.5
		c-0.4-1.4-0.7-2.8-0.9-4.3C35.3,103.4,38.4,105.4,41.8,107.1z"/>
	<path style="fill:#008299;" d="M141.6,144.7c-1.1,0-1.1,0-1.1-1c0-4,0.1-8.1,0.2-12.1c0-2.5,0.1-5,0.1-7.6c0-0.8,0-1.6,0.1-2.4
		c1,0,1,0,1,1c0,2.2,0,4.5,0,6.7c-0.1,2.6,0,5.3-0.1,7.9C141.6,139.7,141.6,142.2,141.6,144.7z"/>
	<path style="fill:#008299;" d="M119.6,148.6c1.7-0.1,3.3,0.1,5,0.1c1.1,0,2.2,0.1,3.4,0.1c1.9,0,3.1-1.2,3.1-3.1
		c0-1.7,0.1-3.4,0.1-5c1.1,0,1.1,0,1.1,1.1c-0.1,1.8-0.1,3.5-0.1,5.3c0.1,1.9-1.4,3.1-3,3.1c-2.6,0-5.1-0.2-7.7-0.3
		c-0.5,0-1,0-1.5,0c-0.3,0-0.5,0-0.4-0.4C119.6,149.1,119.6,148.9,119.6,148.6z"/>
	<path style="fill:#FEFEFE;" d="M65.1,104.3c-1.2,0.1-2.5-0.1-3.7-0.1c-1.7-0.1-3.4-0.1-5.1-0.1c-0.4,0-0.5-0.1-0.5-0.5
		c0-1.2,0-2.5,0.2-3.7c0.1-0.3,0.1-0.6,0.3-0.9c0.9,0.6,1.8,1.2,2.8,1.8c1.9,1.2,3.8,2.4,5.8,3.3C65,104.2,65.1,104.2,65.1,104.3
		C65.1,104.3,65.1,104.3,65.1,104.3z"/>
	<path style="fill:#008299;" d="M124.7,144c-1.1,0.1-1.1,0.1-1.1-1c0-4,0.1-8,0.1-12c0-2.1,0.1-4.2,0.1-6.2c0-0.3,0.1-0.5,0.4-0.5
		c0.3,0,0.6,0,0.9,0c1,0,1,0,1,1c0,0.1,0,0.2,0,0.3c-1.2,0-1.2,0-1.2,1.2c-0.1,3.9,0,7.9-0.1,11.8
		C124.8,140.4,124.8,142.2,124.7,144z"/>
	<path style="fill:#008299;" d="M67,149.7c1.2-0.1,2.3-0.2,3.5-0.2c0.5,0,0.7-0.1,0.7-0.7c0-3.6,0-7.2,0-10.8c0-0.4,0.1-0.6,0.5-0.6
		c0.4,0,0.9,0,1.3-0.1c0.3,0,0.4,0.1,0.4,0.4c0,0.3,0,0.6,0,0.9c-1.2,0-1.2,0-1.2,1.2c0,1.7-0.1,3.3,0,5c0.1,1.8,0,3.5,0.1,5.3
		c0,0.4-0.1,0.5-0.5,0.5c-1.4,0.1-2.8,0.2-4.2,0.3c-0.4,0-0.6-0.1-0.5-0.5C67,150.2,67,149.9,67,149.7z"/>
	<path style="fill:#008299;" d="M83.7,148.8c1.2-0.2,2.4-0.1,3.6-0.2c0.4,0,0.5-0.2,0.5-0.6c0-3.2,0-6.4,0-9.7c0-0.3,0-0.6,0-0.9
		c0-0.8,0-0.8,0.8-0.8c0.3,0,0.6,0,0.9,0c0.3,0,0.5,0,0.5,0.4c0,0.3,0,0.6,0,0.9c-1.2,0-1.2,0-1.2,1.2c0,3.4,0,6.8,0,10.2
		c0,0.5-0.1,0.6-0.6,0.6c-1.4,0-2.8,0.1-4.2,0.2c-0.3,0-0.4-0.1-0.4-0.4C83.7,149.4,83.7,149.1,83.7,148.8z"/>
	<path style="fill:#008299;" d="M74.3,149.2c1.2-0.2,2.4-0.2,3.6-0.2c0.4,0,0.5-0.1,0.5-0.5c0-3.9,0-7.8,0-11.6c0-0.3,0-0.6-0.1-0.9
		c0.7,0.3,0.9,1,1.1,1.6c0,0.2,0,0.4,0,0.6c0,3.8,0,7.6,0,11.4c0,0.5-0.2,0.6-0.7,0.7c-1.4,0-2.7,0.1-4.1,0.2
		c-0.3,0-0.5-0.1-0.4-0.4C74.4,149.8,74.3,149.5,74.3,149.2z"/>
	<path style="fill:#A0A8AB;" d="M89.4,116.1c0.6-0.3,1.3-0.6,1.9-0.9c1.2-0.6,2.4-1.1,3.7-1.7c0.2-0.1,0.4-0.2,0.7,0
		c1.9,1,3.9,1.9,6,2.6c0,0,0.1,0,0.1,0.1C97.7,116.2,93.6,116.2,89.4,116.1C89.4,116.1,89.4,116.1,89.4,116.1z"/>
	<path style="fill:#008299;" d="M48,151.3c1.1-0.2,2.1-0.2,3.2-0.3c0.8-0.1,0.8-0.1,0.8-0.8c0.1-1.4,0.3-2.9,0.5-4.3
		c0-0.3,0.1-0.5,0.5-0.5c0.9,0,1.7-0.1,2.6-0.2c0.3,0,0.5,0.1,0.5,0.4c0,0.3,0.1,0.6,0.1,0.9c-0.7,0.1-1.5,0.2-2.2,0.2
		c-0.4,0-0.4,0.2-0.4,0.5c-0.2,1.5-0.3,3.1-0.5,4.6c0,0.3-0.2,0.4-0.5,0.5c-1.4,0.1-2.7,0.3-4.1,0.4c-0.5,0.1-0.6-0.2-0.5-0.6
		C48,151.8,48,151.5,48,151.3z"/>
	<path style="fill:#008299;" d="M100.6,148.4c1.2,0,2.3,0,3.5,0c0.4,0,0.5-0.1,0.5-0.5c0.2-1.5,0.4-3.1,0.5-4.6
		c0-0.3,0.1-0.4,0.4-0.4c0.9,0,1.8,0,2.8,0c0.2,0,0.4,0.1,0.4,0.3c0,0.3,0.1,0.6,0.1,0.9c-0.7,0-1.3,0-2,0c-0.4,0-0.6,0.1-0.6,0.5
		c-0.1,1.3-0.3,2.6-0.5,3.9c-0.1,1.1-0.1,1.1-1.2,1.1c-1.1,0-2.3,0-3.4,0c-0.7,0-0.7,0-0.6-0.7C100.5,148.8,100.5,148.6,100.6,148.4
		z"/>
	<path style="fill:#008299;" d="M169.6,152.1c1.2,0.1,2.3,0.3,3.5,0.4c0.3,0,0.5,0,0.5-0.4c0.2-1.5,0.4-3,0.6-4.6
		c0-0.3,0.1-0.4,0.4-0.3c0.9,0.1,1.8,0.3,2.6,0.3c0.3,0,0.5,0.1,0.5,0.5c0,0.2,0,0.5,0.1,0.8c-0.7-0.1-1.4-0.2-2.1-0.3
		c-0.3-0.1-0.4,0.1-0.4,0.4c-0.2,1.2-0.4,2.4-0.5,3.6c-0.2,1.4-0.1,1.4-1.5,1.2c-1.1-0.1-2.3-0.3-3.4-0.4c-0.3,0-0.4-0.1-0.3-0.4
		C169.6,152.6,169.6,152.4,169.6,152.1z"/>
	<path style="fill:#008299;" d="M127.1,129.2c1.2-0.1,2.3,0.1,3.5,0.1c0.4,0,0.6,0,0.6-0.6c0-2.5,0.1-5.1,0.1-7.6c1.1,0,1.1,0,1,1.1
		c0,2.6-0.1,5.3-0.1,7.9c0,0.4-0.1,0.5-0.5,0.4c-1.5-0.1-2.9-0.1-4.4-0.2c-0.3,0-0.4-0.1-0.4-0.4
		C127.1,129.8,127.1,129.5,127.1,129.2z"/>
	<path style="fill:#65B4C1;" d="M145.1,115.1c0.3-0.8,0.5-1.4,0.7-2.1c0.1-0.5,0.5-0.4,0.8-0.4c0.4,0,0.3,0.3,0.3,0.5
		c0,1.5,0,3,0,4.6c0,0.4-0.1,0.5-0.5,0.5c-0.4,0-0.5-0.1-0.5-0.5c0-0.5,0-1,0-1.6c-0.4,0.3-0.1,0.9-0.8,0.9c-0.6,0-0.3-0.6-0.7-0.8
		c0,0.5,0,1,0,1.5c0,0.4-0.1,0.5-0.5,0.5c-0.3,0-0.5-0.1-0.5-0.4c0-1.6,0-3.1,0-4.7c0-0.2-0.1-0.5,0.2-0.4c0.3,0,0.6-0.2,0.8,0.3
		C144.6,113.7,144.9,114.3,145.1,115.1z"/>
	<path style="fill:#008299;" d="M42.4,138.1c-0.3-0.5-0.5-1-1.1-1.3c1-0.8,1.2-1.8,1.1-2.9c-0.1-2.5-0.1-5-0.1-7.4
		c0-0.5,0-1-0.1-1.5c0.9,0.5,1.2,1.3,1.2,2.2c0,3,0,5.9,0,8.9C43.5,136.9,43.1,137.6,42.4,138.1z"/>
	<path style="fill:#008299;" d="M78.4,136c-0.2-0.5-0.5-0.9-0.9-1.3c-0.2-0.1-0.1-0.2,0-0.3c0.7-0.6,0.9-1.4,0.9-2.3
		c0-2.7,0-5.3,0-8c0-0.7,0-1.4-0.1-2.2c0.7,0.4,1.1,1.1,1.1,1.9c0,3.4,0,6.8,0,10.2c0,0.6-0.3,1-0.6,1.4
		C78.7,135.6,78.4,135.8,78.4,136z"/>
	<path style="fill:#FEFEFE;" d="M54.3,97.5c-0.2,2-0.4,3.9-0.5,5.9c-1.5-1.1-3.1-2-4.8-2.9C51,99.9,52.6,98.7,54.3,97.5z"/>
	<path style="fill:#65B4C1;" d="M158.7,115.4c0-0.8,0-1.6,0-2.4c0-0.3,0.1-0.4,0.4-0.4c0.4,0,0.8,0,1.2,0c0.5,0,0.7,0.2,0.7,0.7
		c0,0.7-0.1,1.3-0.1,2c0,0.7,0,1.3,0.1,2c0,0.8-0.1,0.9-0.9,0.9c-0.4,0-1,0.2-1.3-0.1c-0.3-0.3-0.1-0.9-0.1-1.3
		C158.7,116.4,158.7,115.9,158.7,115.4z"/>
	<path style="fill:#65B4C1;" d="M141.5,118.2c-0.4,0.1-0.5-0.1-0.5-0.5c0-0.2,0.1-0.5-0.4-0.5c-0.4,0-0.4,0.3-0.4,0.5
		c-0.1,0.4-0.4,0.7-0.9,0.5c-0.2-0.1-0.1-0.2-0.1-0.3c0.2-1.7,0.4-3.3,0.6-5c0-0.2,0.1-0.3,0.3-0.3c0.3,0,0.6,0,0.9,0
		c0.2,0,0.3,0.1,0.3,0.3c0.2,1.6,0.3,3.2,0.5,4.8C142.1,118.2,141.9,118.3,141.5,118.2z"/>
	<path style="fill:#65B4C1;" d="M154.1,118.2c-0.4,0.1-0.5-0.1-0.5-0.4c0-0.2,0.1-0.5-0.3-0.6c-0.4,0-0.4,0.3-0.4,0.5
		c-0.1,0.4-0.5,0.6-0.9,0.5c-0.2-0.1-0.1-0.2-0.1-0.3c0.2-1.6,0.4-3.3,0.6-4.9c0-0.2,0.1-0.3,0.3-0.3c0,0,0,0,0.1,0
		c1.2-0.1,1.2-0.1,1.3,1.1c0.1,1.3,0.3,2.6,0.4,3.9C154.6,118.1,154.6,118.4,154.1,118.2z"/>
	<path style="fill:#65B4C1;" d="M164.5,118.2c-0.4,0.1-0.5-0.1-0.5-0.5c0-0.2,0.1-0.5-0.3-0.5c-0.4,0-0.4,0.3-0.4,0.6
		c-0.1,0.4-0.6,0.6-0.9,0.5c-0.1-0.1-0.1-0.2-0.1-0.3c0.2-1.6,0.4-3.2,0.5-4.9c0-0.2,0.1-0.3,0.4-0.4c1.2-0.1,1.2-0.1,1.3,1.1
		c0.1,1.3,0.3,2.6,0.4,3.9C165,118.1,165,118.3,164.5,118.2z"/>
	<path style="fill:#FDFDFD;" d="M49.8,105.1c-0.8,0-1.6,0.1-2.4,0.3c-0.3,0.1-0.4,0-0.5-0.3c-0.4-1.1-0.3-2.2-0.1-3.4
		c1.5,1.1,3,2.1,4.5,3.2c0,0,0,0.1,0.1,0.2C50.8,105.2,50.3,105.1,49.8,105.1z"/>
	<path style="fill:#65B4C1;" d="M148.1,115.4c0-0.8,0-1.6,0-2.3c0-0.3,0.1-0.4,0.4-0.4c0.4,0,0.8,0,1.2,0c0.5,0,0.7,0.2,0.7,0.7
		c0,0.6,0,1.1,0,1.7c0,0.6-0.2,0.8-0.7,0.7c-0.5,0-0.6,0.2-0.6,0.6c0,0.4,0,0.9,0,1.4c0,0.4-0.2,0.5-0.5,0.5c-0.3,0-0.5,0-0.5-0.4
		C148.1,117,148.1,116.2,148.1,115.4z"/>
	<path style="fill:#65B4C1;" d="M167.8,114.5c0.1-0.3,0.1-0.7,0.2-1c0.2-0.9,0.2-0.9,1.1-0.7c-0.1,0.6-0.3,1.3-0.5,1.9
		c-0.3,1.1-0.5,2.1-0.4,3.3c0,0.3-0.2,0.4-0.4,0.3c-0.2,0-0.6,0.2-0.5-0.3c0.1-1.7-0.5-3.2-0.8-4.8c0-0.1-0.3-0.4,0.1-0.4
		c0.3,0,0.7-0.3,0.8,0.3C167.6,113.5,167.6,114,167.8,114.5C167.8,114.5,167.8,114.5,167.8,114.5z"/>
	<path style="fill:#65B3C0;" d="M136.3,115.9c0-0.6,0-1.3,0-1.9c0-0.2,0-0.4-0.2-0.4c-0.6,0-0.4-0.4-0.4-0.7c0-0.4,0.3-0.2,0.5-0.2
		c0.5,0,0.9,0,1.4,0c0.2,0,0.3,0.1,0.3,0.3c0,0.2,0.2,0.6-0.2,0.6c-0.4,0-0.4,0.3-0.4,0.5c0,1.2,0,2.4,0,3.6c0,0.4-0.2,0.4-0.5,0.4
		c-0.3,0-0.5-0.1-0.5-0.4C136.4,117.2,136.3,116.5,136.3,115.9z"/>
	<path style="fill:#FDFDFD;" d="M41.1,103.2c1.2-0.3,2.4-0.6,3.5-1.1c0,1,0,1.9,0,2.9C43.4,104.5,42.2,104,41.1,103.2z"/>
	<path style="fill:#038299;" d="M90.1,42.4c-1.1,0.3-2.3,0.6-3.4,0.8c-3.4,0.8-6.8,1.8-10.1,3.1c-1,0.4-2,0.8-3,1.2
		c-0.2,0.1-0.4,0.2-0.6,0.1c1.2-0.6,2.5-1.1,3.7-1.6c4.2-1.7,8.5-2.8,13-3.6C89.8,42.4,90,42.4,90.1,42.4z"/>
	<path style="fill:#A9B0B3;" d="M117.6,113.8c2.7,0,5.3,0,8,0c-0.1,0.2-0.3,0.2-0.5,0.2c-2.4,0-4.9,0-7.3,0
		C117.8,114,117.4,114.2,117.6,113.8z"/>
	<path style="fill:#001825;" d="M89.4,116.3c4.2,0,8.4,0,12.5,0c0,0,0,0,0,0.1C97.8,116.3,93.6,116.3,89.4,116.3
		C89.4,116.3,89.4,116.3,89.4,116.3z"/>
	<path style="fill:#008299;" d="M96.2,133.6c0-3.5,0-7.1,0-10.6c0.1,0.2,0.1,0.3,0.1,0.5c0,3.2,0,6.4,0,9.6
		C96.3,133.3,96.3,133.4,96.2,133.6z"/>
	<path style="fill:#091521;" d="M109.6,35.9c1.8,0,3.5,0,5.3,0c-0.1,0.1-0.2,0.1-0.3,0.1c-1.6,0-3.2,0-4.8,0
		C109.8,35.9,109.7,35.9,109.6,35.9z"/>
	<path style="fill:#024E5D;" d="M149,106.3c0.1,0.1,0.3,0.1,0.3,0.4c-0.6-0.4-1.3-0.6-1.8-1.2C148,105.6,148.5,106,149,106.3z"/>
	<path style="fill:#1E90A5;" d="M41.7,67.6c-0.2,0.1-0.2,0.6-0.6,0.2c0.2-0.2,0.4-0.4,0.7-0.5C41.9,67.4,41.7,67.5,41.7,67.6z"/>
	<path style="fill:#007288;" d="M48.2,109.3c0.2,0.2,0.5,0.1,0.8,0.1c-0.5,0.2-0.9,0.2-1.4,0C47.8,109.4,48,109.3,48.2,109.3z"/>
	<path style="fill:#47A6B6;" d="M41.7,67.6c-0.2-0.2,0.1-0.2,0.1-0.4c0.2-0.2,0.3-0.4,0.5-0.4c0,0.1-0.2,0.2-0.1,0.4
		C42.1,67.3,41.9,67.5,41.7,67.6z"/>
	<path style="fill:#000C1A;" d="M49.8,105.1c0.5-0.1,1.1-0.1,1.6,0c-0.1,0.3-0.3,0.1-0.4,0.1C50.6,105.1,50.1,105.3,49.8,105.1z"/>
	<path style="fill:#CACFD2;" d="M77.6,105.3c0.3-0.1,0.6,0.1,0.8-0.1c0.2,0,0.4,0.1,0.5,0.1c-0.1,0.3-0.3,0.1-0.4,0.1
		C78.2,105.4,77.9,105.4,77.6,105.3z"/>
	<path style="fill:#043F4F;" d="M172.7,59.2c0,0-0.1,0.1-0.1,0.1c-0.1-0.1-0.3-0.3-0.4-0.4C172.5,58.9,172.6,59,172.7,59.2z"/>
	<path style="fill:#7C888F;" d="M78.5,105.4c0.1-0.1,0.3,0.1,0.4-0.1c0.1,0,0.3,0,0.3,0.1c0,0.2-0.2,0.1-0.2,0.1
		C78.8,105.5,78.6,105.4,78.5,105.4z"/>
	<path style="fill:#035668;" d="M104.4,65.2c-0.1-0.1-0.2-0.2-0.3-0.4c0.2,0,0.3,0.1,0.4,0.3C104.4,65.2,104.4,65.2,104.4,65.2z"/>
	<path style="fill:#081F2C;" d="M33,83.4c1,1.3,2.3,1.1,3.6,0.9c3.2-0.6,6-2.2,8.5-4.2c3.1-2.4,5.6-5.4,7.8-8.6
		c0.1-0.1,0.2-0.3,0.4-0.6c0,1-0.1,1.7-0.2,2.5c-0.2,1.6-0.6,3.1-1.4,4.5c-0.1,0.2-0.2,0.4-0.4,0.6c-0.9,0.7-0.8,1.7-1,2.7
		c-0.2,1.1,0,2.2-0.2,3.3c-0.5,2.7-1.8,4.7-4.4,5.7c-1.2,0.5-2.4,0.2-3.6-0.1c-1.6-0.4-3-1-4.4-1.9C37.5,88,37.3,88,37,88
		c-0.9,0.1-1.7,0.1-2.6,0c-1-0.2-1.5-0.7-1.6-1.7C32.6,85.3,32.7,84.4,33,83.4z"/>
	<path style="fill:#66B4C1;" d="M74,68.8c0,1.2-1.3,2.2-2.6,2c-1.3-0.2-2.1-1.1-2-2.2c0.1-1.2,1.4-2.1,2.7-1.8
		C73.3,67,74,67.8,74,68.8z"/>
	<path style="fill:#65B4C1;" d="M74.9,64.8c0-0.7,0.5-1.2,1.2-1.2c0.6,0,1.2,0.7,1.2,1.3c0,0.6-0.6,1.2-1.2,1.3
		C75.5,66.2,74.9,65.5,74.9,64.8z"/>
	<path style="fill:#65B4C1;" d="M71.9,62.4c0.7,0,1.2,0.5,1.2,1.2c0,0.8-0.5,1.3-1.2,1.3c-0.6,0-1.1-0.6-1.1-1.3
		C70.7,62.9,71.2,62.4,71.9,62.4z"/>
	<path style="fill:#008299;" d="M36.2,147.9c-1.1,0.1-1,0.1-1.1-0.9c0-2.1,0-4.3-0.1-6.4c0-0.4,0.1-0.5,0.4-0.5c0.5,0,1-0.1,1.5-0.2
		c0.2,0,0.3,0.1,0.3,0.3c0,0.8,0,1.5,0,2.3c-0.3-0.1-0.2-0.3-0.2-0.5c0-0.2-0.1-0.4-0.4-0.4c-0.3,0-0.5,0.1-0.5,0.5
		c0,0.3,0.1,0.6,0.1,0.9c0,1.5,0,3,0,4.5C36.4,147.5,36.4,147.7,36.2,147.9z"/>
	<path style="fill:#008299;" d="M36.3,135.2C36.3,135.3,36.3,135.3,36.3,135.2c-1.2,0.2-1.2,0.2-1.2-0.9c0-1.8,0-3.7-0.1-5.5
		c0-0.3,0.1-0.4,0.4-0.5c0.5,0,0.9-0.1,1.4-0.2c0.4-0.1,0.5,0,0.5,0.4c0,0.6,0,1.1,0,1.7c-0.1,0-0.2-0.1-0.2-0.2
		c-0.1-0.3-0.3-0.3-0.5-0.3c-0.2,0-0.4,0.2-0.4,0.4c0,0.4,0.1,0.9,0.1,1.3C36.3,132.8,36.3,134,36.3,135.2z"/>
	<path style="fill:#081F2C;" d="M36.2,147.9c0-1.6,0-3.3,0-4.9c0-0.4-0.1-0.8-0.1-1.2c0-0.7,0.6-0.4,0.9-0.5
		c0.5-0.1,0.2,0.3,0.3,0.5c0.1,0.2-0.1,0.5,0.1,0.7c0,1.7,0,3.4,0.1,5.1c0,0.2-0.1,0.3-0.3,0.3C36.9,147.9,36.6,147.9,36.2,147.9z"
		/>
	<path style="fill:#081F2C;" d="M36.3,135.2c-0.2-0.1-0.2-0.3-0.2-0.4c0-1.5,0-3-0.1-4.6c0-0.6,0.1-0.7,0.8-0.7
		c0.5,0,0.3,0.4,0.4,0.6c0,0,0,0.1,0,0.1c0,1.5,0,3.1,0.1,4.6c0,0.2-0.1,0.3-0.3,0.3C36.8,135.2,36.6,135.2,36.3,135.2z"/>
	<path style="fill:#008399;" d="M72.6,132.7C72.5,132.7,72.5,132.8,72.6,132.7c-1.5,0.2-1.5,0.2-1.5-1.2c0-2,0-4.1,0-6.1
		c0-0.3,0.1-0.5,0.4-0.5c0.4,0,0.8,0,1.2-0.1c0.4-0.1,0.7,0,0.6,0.5c0,0.2,0,0.5,0,0.8c-0.1,0.1-0.1,0.1-0.2,0.1
		c-0.9,0.1-0.8,0.3-0.8,1.1c0,1.5,0,2.9,0,4.4C72.2,132.2,72.3,132.5,72.6,132.7z"/>
	<path style="fill:#081F2C;" d="M72.6,132.7c-0.4,0-0.5-0.2-0.5-0.5c0-1.7,0-3.5,0-5.2c0-0.5,0.1-0.8,0.7-0.8c0.2,0,0.4,0,0.5,0
		c0,2.1,0,4.1,0,6.2C73.3,133,72.8,132.6,72.6,132.7z"/>
	<path style="fill:#008299;" d="M88.9,132c-1.1,0.1-1.1,0.1-1.1-1c0-2.1,0-4.3,0-6.4c0-0.4,0.1-0.5,0.5-0.5c0.4,0,0.9,0,1.3,0
		c0.4-0.1,0.6,0,0.5,0.5c-0.1,0.5,0.1,1.1,0,1.6c-0.2-0.1-0.2-0.2-0.2-0.4c-0.1-0.2-0.2-0.2-0.4-0.2c-0.2,0-0.3,0.1-0.4,0.3
		c0,0.2,0,0.3,0,0.5c0,1.6,0,3.2,0,4.8C89.1,131.5,89.1,131.8,88.9,132z"/>
	<path style="fill:#081F2C;" d="M88.9,132c0-2,0-3.9,0-5.9c0-0.6,0-0.7,0.8-0.7c0.5,0,0.2,0.4,0.3,0.6c0,0.1,0,0.1,0,0.2
		c0,1.7,0,3.4,0,5c0,0.7,0,0.7-0.8,0.8C89.2,132,89,132,88.9,132z"/>
	<path style="fill:#008299;" d="M158,146.2c-1.1-0.1-1.1-0.1-1-1.2c0-1.7,0-3.4,0.1-5.2c0.1-4.3,0.1-8.7,0.2-13
		c0-0.3,0.1-0.4,0.4-0.3c0.5,0.1,0.9,0.1,1.4,0.1c0.4,0,0.5,0.2,0.4,0.5c0,0.2,0,0.5,0,0.7c-0.1,0.1-0.3,0.1-0.4,0.1
		c-0.5-0.1-0.6,0.2-0.6,0.6c0,2.7-0.1,5.3-0.1,8c0,2.4-0.1,4.8-0.1,7.2c0,0.7-0.1,1.3-0.1,2C158.2,145.9,158.2,146,158,146.2z"/>
	<path style="fill:#081F2C;" d="M158,146.2c0-2.6,0-5.2,0.1-7.8c0.1-2.1,0-4.2,0.1-6.2c0.1-1.3,0.1-2.6,0.1-4c0-0.5,0.2-0.6,0.6-0.5
		c0.2,0,0.4,0.1,0.6,0.1c0,2.3-0.1,4.6-0.1,7c-0.1,3.7-0.1,7.4-0.2,11.1c0,0.4-0.1,0.4-0.4,0.4C158.5,146.2,158.3,146.2,158,146.2z"
		/>
	<path style="fill:#008399;" d="M107,138.1c-1.2,0.1-1.2,0.1-1.1-1.1c0.3-2.7,0.7-5.5,1.1-8.2c0.2,1.7,0.4,3.3,0.6,5
		c-0.1,1.2-0.2,2.3-0.4,3.5C107.2,137.6,107.2,137.9,107,138.1z"/>
	<path style="fill:#09202D;" d="M107,138.1c0.2-1.3,0.3-2.5,0.5-3.8c0-0.2,0.1-0.3,0.2-0.5c0.2,1.3,0.3,2.5,0.5,3.8
		c0.1,0.4-0.1,0.6-0.5,0.5C107.4,138.1,107.2,138.2,107,138.1z"/>
	<path style="fill:#018399;" d="M54.4,140.5c-1.3,0.2-1.3,0.2-1.2-1c0.3-2.7,0.6-5.5,0.9-8.2c0.4,1.5,0.5,3.1,0.7,4.6
		c0,1.2-0.1,2.4-0.2,3.6C54.5,139.8,54.5,140.1,54.4,140.5z"/>
	<path style="fill:#09202D;" d="M54.4,140.5c-0.2-0.4,0-0.7,0-1c0.1-1.2,0.3-2.4,0.4-3.6c0.2,1.3,0.3,2.6,0.5,3.9
		c0.1,0.5,0,0.7-0.5,0.7C54.7,140.4,54.6,140.5,54.4,140.5z"/>
	<path style="fill:#018399;" d="M176.2,142.7c-1.2-0.1-1.2-0.1-1.1-1.4c0.3-2.5,0.7-5,1.1-7.4c0-0.1,0-0.3,0-0.4
		c0.3,0,0.1,0.3,0.2,0.3c0.1,1.5,0.3,3,0.4,4.4c0,1.2-0.2,2.5-0.4,3.7C176.4,142.2,176.4,142.5,176.2,142.7z"/>
	<path style="fill:#09202D;" d="M176.2,142.7c0.2-1.5,0.4-3,0.6-4.5c0.1,1.4,0.3,2.9,0.4,4.3c0,0.2,0,0.3-0.3,0.3
		C176.7,142.8,176.5,142.7,176.2,142.7z"/>
	<path style="fill:#B1CFD7;" d="M176.4,133.8c-0.1-0.1,0-0.3-0.2-0.3c0-0.2,0-0.3,0-0.5C176.5,133.3,176.4,133.5,176.4,133.8z"/>
	<path style="fill:#FEFEFE;" d="M120.3,112.7c0.1-0.5,0.5-0.8,0.8-1.2c1.7-2.2,3.4-4.5,5-6.8c0.3-0.4,0.6-0.4,1-0.3
		c0.3,0,0.2,0.3,0.1,0.4c-0.6,2-1.2,4-1.8,6c-0.2,0.7-0.5,1.3-0.7,2c-0.2,0.1-0.5,0.1-0.7,0.1C122.7,112.7,121.5,112.8,120.3,112.7z
		"/>
	<path style="fill:#97A0A3;" d="M120.3,112.7c1.5,0,3,0,4.5,0c-0.1,0.1-0.1,0.1-0.2,0.1c-1.4,0-2.8,0-4.2,0
		C120.3,112.8,120.3,112.8,120.3,112.7C120.3,112.7,120.3,112.7,120.3,112.7z"/>
	<path style="fill:#081F2C;" d="M160,116.7c-0.1,0.2,0.2,0.6-0.2,0.6c-0.4,0-0.1-0.4-0.2-0.7c0-0.2,0-0.4,0-0.5c0-0.1,0-0.3,0.2-0.3
		c0.2,0,0.2,0.1,0.2,0.2C160,116.3,160,116.4,160,116.7z"/>
	<path style="fill:#081F2C;" d="M160,114.3c-0.1,0.2,0.2,0.6-0.2,0.6c-0.4,0-0.1-0.4-0.2-0.7c0,0,0-0.1,0-0.2c0-0.2-0.1-0.5,0.2-0.5
		c0.3,0,0.1,0.3,0.2,0.5C160,114.1,160,114.2,160,114.3z"/>
	<path style="fill:#13303D;" d="M140.7,114.7c0,0.4,0.1,0.8,0.1,1.2c0,0.1,0.1,0.3-0.2,0.3c-0.2,0-0.2-0.2-0.2-0.3
		C140.5,115.5,140.6,115.1,140.7,114.7C140.7,114.7,140.7,114.7,140.7,114.7z"/>
	<path style="fill:#13313D;" d="M153.2,114.8c0,0.4,0.1,0.8,0.1,1.2c0,0.1,0,0.3-0.2,0.3c-0.2,0-0.2-0.1-0.2-0.3
		C153.1,115.6,153.1,115.2,153.2,114.8C153.2,114.7,153.2,114.7,153.2,114.8z"/>
	<path style="fill:#13313D;" d="M163.7,114.7c0,0.4,0.1,0.7,0.1,1.1c0,0.2,0.1,0.4-0.2,0.4c-0.3,0-0.2-0.3-0.1-0.4
		C163.5,115.5,163.6,115.1,163.7,114.7C163.6,114.7,163.6,114.7,163.7,114.7z"/>
	<path style="fill:#081F2C;" d="M149.1,113.7c0.1,0,0.2,0,0.3,0c0.1,0.4,0.1,0.8,0,1.2c-0.1,0-0.2,0.2-0.3,0
		C149.1,114.5,149,114.1,149.1,113.7z"/>
	<path style="fill:#51939F;" d="M149.4,114.8c0-0.4,0-0.8,0-1.2C149.6,114.1,149.6,114.5,149.4,114.8z"/>
	<path style="fill:#51939F;" d="M149.1,113.7c0,0.4,0,0.8,0,1.2C149,114.5,148.9,114.1,149.1,113.7z"/>
	<path style="fill:#8A8A8A;" d="M48.5,80.6c-0.3,2.2-0.8,4.2-1.9,5.9c-0.9,1.4-2,1.8-3.6,1.4c-0.8-0.2-1.5-0.4-2.3-0.7
		c-0.7-0.3-1.4-0.7-2.2-1.1C42.6,85.7,45.5,83.3,48.5,80.6z"/>
</g>
</svg>
