<?xml version="1.0" encoding="utf-8"?>
<!-- Generator: Adobe Illustrator 24.1.0, SVG Export Plug-In . SVG Version: 6.00 Build 0)  -->
<svg version="1.1" id="Layer_1" xmlns="http://www.w3.org/2000/svg" xmlns:xlink="http://www.w3.org/1999/xlink" x="0px" y="0px"
	 viewBox="0 0 200 200" style="enable-background:new 0 0 200 200;" xml:space="preserve">
<path style="fill:#FEFFFF;" d="M91.683,177.981c0,1.217,0,2.435,0,3.618c-0.186,0.151-0.267,0.035-0.349-0.072
	c-5.715-7.476-10.814-15.424-15.017-24.054c-1.948-3.999-3.642-8.123-4.881-12.466c-0.628-2.202-1.025-4.464-1.468-6.714
	c-0.858-4.361-1.72-8.722-2.58-13.083c-0.007-0.035-0.015-0.07-0.023-0.105c-0.186-0.842-0.187-0.832-0.94-0.921
	c-6.262-0.739-12.288-2.449-17.998-5.424c-3.77-1.965-7.207-4.477-10.161-7.754c-4.318-4.789-6.971-10.53-8.02-17.189
	c-0.325-2.063-0.482-4.143-0.551-6.233c-0.025-0.755-0.004-1.512-0.004-2.229c-0.399-0.236-0.63,0.053-0.873,0.187
	c-3.613,1.995-7.138,4.167-10.586,6.492c-0.778,0.525-1.555,1.053-2.334,1.576c-0.164,0.11-0.335,0.205-0.527,0.321
	c-0.1-0.146-0.188-0.248-0.249-0.367c-2.263-4.376-4.485-8.773-6.36-13.376c-2.177-5.342-3.769-10.883-4.778-16.632
	c-0.088-0.502-0.096-0.516,0.348-0.721c2.371-1.096,4.734-2.215,7.138-3.223c5.448-2.285,10.951-4.384,16.582-6.051
	c2.735-0.81,5.488-1.538,8.277-2.09c0.315-0.062,0.626-0.152,0.992-0.242c0.008-0.488,0.02-0.952,0.022-1.416
	c0.018-3.82,0.031-7.64,0.05-11.46c0.031-6.27,0.064-12.54,0.097-18.811c0.001-0.18-0.007-0.361,0.007-0.54
	c0.026-0.312-0.084-0.548-0.274-0.772c-0.379-0.446-0.746-0.905-1.11-1.367c-1.583-2.013-3.072-4.11-4.539-6.226
	c-2.34-3.374-4.722-6.71-7.243-9.923c-0.141-0.179-0.352-0.32-0.358-0.601c0.053-0.042,0.101-0.112,0.149-0.112
	C74.099,0,124.076,0,174.034,0c0.129,0.248-0.036,0.366-0.131,0.487c-3.139,3.958-6.01,8.153-8.935,12.301
	c-1.262,1.79-2.552,3.558-3.953,5.218c-0.343,0.406-0.452,0.824-0.447,1.358c0.031,3.207,0.044,6.414,0.056,9.621
	c0.027,7.027,0.049,14.055,0.077,21.082c0.001,0.355-0.112,0.756,0.081,1.055c0.203,0.314,0.597,0.228,0.904,0.29
	c6.97,1.415,13.694,3.769,20.33,6.466c2.809,1.142,5.619,2.282,8.419,3.45c1.095,0.457,2.166,0.985,3.245,1.489
	c0.457,0.214,0.477,0.272,0.381,0.817c-0.929,5.245-2.297,10.339-4.227,15.247c-1.599,4.067-3.456,7.986-5.422,11.845
	c-0.479,0.941-0.957,1.884-1.443,2.82c-0.226,0.435-0.258,0.44-0.676,0.161c-1.337-0.896-2.667-1.802-4.006-2.694
	c-2.203-1.468-4.447-2.857-6.723-4.183c-0.28-0.163-0.541-0.391-0.869-0.423c-0.17,0.188-0.099,0.411-0.101,0.613
	c-0.033,2.815-0.259,5.608-0.699,8.383c-1.493,9.409-5.982,16.515-13.389,21.387c-3.327,2.188-6.914,3.681-10.652,4.731
	c-3.415,0.959-6.887,1.533-10.403,1.825c-2.278,0.189-4.556,0.208-6.836,0.185c-0.288-0.003-0.584-0.078-0.911,0.087
	c0.073,1.161,0.161,2.333,0.219,3.508c0.241,4.925-0.084,9.792-1.262,14.566c-0.498,2.021-1.184,3.961-2.091,5.805
	c-0.989,2.01-2.221,3.81-3.742,5.367c-1.803,1.844-3.395,3.884-4.662,6.22c-1.133,2.088-1.94,4.315-2.314,6.723
	c-0.301,1.936-0.313,3.868,0.061,5.799c0.124,0.638,0.304,1.249,0.535,1.846c0.91,2.349,1.82,4.697,2.722,7.05
	c0.124,0.323,0.312,0.629,0.324,1.004c-0.222,0.079-0.29-0.125-0.387-0.227c-1.91-2.014-3.815-4.034-5.721-6.053
	c-0.707-0.748-1.32-1.589-1.905-2.413c-0.16,0.002-0.21,0.078-0.208,0.194c0.105,5.3,0.788,10.476,2.741,15.37
	c0.955,2.393,2.213,4.57,3.917,6.406c0.28,0.301,0.573,0.588,0.875,0.862c1.361,1.233,2.728,2.457,4.091,3.687
	c0.2,0.18,0.391,0.372,0.639,0.608c-0.234,0.129-0.39,0.021-0.55-0.022c-2.719-0.744-5.406-1.597-7.97-2.869
	c-1.04-0.516-2.071-1.051-3.061-1.676c-4.86-3.07-9.346-6.691-13.31-11.079c-1.639-1.814-3.136-3.759-4.455-5.871
	c-0.108-0.173-0.23-0.335-0.345-0.503C91.789,177.94,91.736,177.961,91.683,177.981z"/>
<path d="M30.829,81.968c-0.416,0.208-0.74,0.363-1.058,0.531c-4.588,2.419-9.031,5.131-13.369,8.059
	c-1.145,0.773-0.877,0.887-1.588-0.488c-2.003-3.879-3.887-7.825-5.48-11.935c-1.607-4.146-2.913-8.398-3.739-12.822
	c-0.013-0.07-0.039-0.138-0.054-0.208c-0.226-1.057-0.085-0.89,0.542-1.191c2.956-1.419,5.966-2.687,8.994-3.899
	c5.449-2.181,10.965-4.118,16.615-5.571c2.125-0.546,4.261-1.025,6.413-1.417c0.386-0.071,0.434-0.116,0.437-0.551
	c0.016-2.09,0.023-4.18,0.033-6.27c0.042-9.045,0.083-18.09,0.124-27.135c0.001-0.18-0.017-0.364,0.007-0.54
	c0.075-0.553-0.138-0.938-0.479-1.331c-1.512-1.744-2.878-3.629-4.231-5.524c-2.26-3.167-4.434-6.41-6.77-9.493
	c0.056-0.27,0.241-0.211,0.391-0.215c0.293-0.008,0.586-0.003,0.88-0.003c46.623,0,93.246,0,139.869,0c0.415,0,0.83,0,1.199,0
	c0.139,0.244,0.014,0.341-0.062,0.442c-2.023,2.686-3.922,5.48-5.866,8.234c-1.624,2.301-3.262,4.59-5.085,6.706
	c-0.301,0.349-0.375,0.714-0.372,1.165c0.027,3.387,0.04,6.775,0.058,10.162c0.027,5.261,0.054,10.522,0.078,15.784
	c0.011,2.487,0.016,4.973,0.025,7.46c0.001,0.216,0.002,0.432,0.005,0.649c0.004,0.259,0.134,0.383,0.357,0.423
	c0.675,0.121,1.35,0.238,2.022,0.374c5.808,1.174,11.46,2.987,17.016,5.17c3.893,1.529,7.761,3.135,11.637,4.716
	c0.61,0.249,1.201,0.555,1.802,0.829c0.253,0.115,0.312,0.289,0.258,0.593c-0.516,2.902-1.224,5.745-2.104,8.535
	c-1.516,4.806-3.503,9.377-5.705,13.838c-0.608,1.232-1.231,2.456-1.851,3.681c-0.077,0.153-0.184,0.288-0.313,0.487
	c-4.337-2.953-8.726-5.743-13.283-8.169c-0.208,0.315-0.109,0.568-0.095,0.807c0.128,2.124,0.163,4.249,0.017,6.372
	c-0.292,4.225-0.973,8.355-2.572,12.245c-1.908,4.642-4.814,8.357-8.585,11.262c-3.075,2.369-6.457,4.024-10.027,5.227
	c-2.808,0.946-5.676,1.581-8.586,2.005c-3.529,0.514-7.071,0.688-10.626,0.585c-0.748-0.022-1.495-0.102-2.243-0.147
	c-0.342-0.021-0.42,0.059-0.386,0.416c0.089,0.931,0.193,1.861,0.284,2.792c0.196,2.009,0.273,4.026,0.238,6.044
	c-0.045,2.631-0.225,5.252-0.685,7.842c-0.46,2.591-1.143,5.1-2.218,7.465c-0.96,2.112-2.216,3.976-3.791,5.587
	c-2.142,2.192-3.98,4.656-5.369,7.511c-1.477,3.036-2.297,6.262-2.282,9.723c0.006,1.337,0.165,2.657,0.486,3.949
	c0.051,0.207,0.116,0.414,0.056,0.638c-0.79-0.666-1.909-2.288-2.782-3.979c-0.766-1.483-1.257-3.072-1.535-4.774
	c-0.247,0.224-0.159,0.502-0.201,0.738c-0.051,0.282-0.089,0.569-0.114,0.855c-0.452,5.227-0.412,10.434,0.54,15.602
	c0.522,2.835,1.319,5.568,2.528,8.143c0.891,1.898,1.986,3.635,3.323,5.184c0.134,0.155,0.258,0.319,0.384,0.483
	c0.015,0.019,0.008,0.059,0.012,0.093c-0.168,0.132-0.306,0.003-0.442-0.075c-5.952-3.437-11.469-7.549-16.235-12.823
	c-1.709-1.891-3.256-3.932-4.584-6.169c-1.311-2.209-2.37-4.55-3.041-7.097c-0.056-0.213-0.016-0.514-0.345-0.66
	c0,2.43,0,4.825,0,7.206c-0.276,0.09-0.33-0.124-0.429-0.242c-0.111-0.132-0.206-0.279-0.306-0.421
	c-3.218-4.586-6.2-9.352-8.899-14.333c-1.641-3.029-3.161-6.128-4.501-9.334c-1.437-3.439-2.66-6.964-3.406-10.669
	c-0.623-3.092-1.188-6.198-1.801-9.292c-0.564-2.848-1.157-5.689-1.738-8.533c-0.036-0.175-0.078-0.349-0.118-0.523
	c-0.056-0.243-0.2-0.336-0.424-0.353c-0.487-0.037-0.973-0.094-1.459-0.152c-6.827-0.812-13.366-2.721-19.458-6.303
	c-2.951-1.735-5.643-3.87-7.992-6.513c-3.956-4.452-6.376-9.769-7.334-15.912c-0.523-3.352-0.613-6.734-0.572-10.125
	c0.004-0.36,0.01-0.721,0.011-1.081C30.878,82.232,30.858,82.161,30.829,81.968z"/>
<path style="fill:#616161;" d="M68.586,85.257c0.617,0.115,1.15,0.479,1.719,0.73c2.513,1.107,5.106,1.895,7.753,2.496
	c4.366,0.991,8.782,1.043,13.204,0.814c1.42-0.074,2.847-0.235,4.253-0.531c0.206-0.043,0.425-0.006,0.786-0.006
	c-1.832,0.698-3.581,1.068-5.326,1.458c-1.689,0.377-3.402,0.552-5.105,0.815c-0.032,0.005-0.065,0.008-0.097,0.01
	c-2.272,0.132-4.544,0.346-6.821,0.209c-3.904-0.234-7.747-0.875-11.494-2.144c-0.149-0.05-0.291-0.179-0.512-0.052
	c0.369,0.32,0.719,0.624,1.07,0.928c1.024,0.886,2.068,1.745,3.037,2.704c0.738,0.731,0.692,1.102-0.187,1.566
	c-0.911,0.481-1.836,0.939-2.642,1.62c-0.727,0.614-1.505,0.733-2.392,0.572c-3.651-0.663-6.99-2.223-10.161-4.269
	c-1.46-0.942-2.921-1.888-4.119-3.241c-0.186-0.177-0.371-0.354-0.598-0.57c-0.201,0.237-0.098,0.532-0.173,0.766
	c-0.387,3.487-0.427,6.933,0.73,10.296c1.432,4.163,3.882,7.442,7.025,10.146c0.359,0.309,0.75,0.576,1.055,0.956
	c0.131,0.163,0.271,0.367,0.201,0.579c-0.09,0.271-0.347,0.288-0.579,0.295c-0.164,0.005-0.324-0.028-0.483-0.069
	c-5.53-1.413-10.498-4.006-14.556-8.502c-0.896-0.992-1.841-1.935-2.578-3.089c-0.276-0.433-0.27-0.438,0.015-0.871l0.004,0.001
	c0.069,0.07,0.142,0.134,0.22,0.191c0.588,0.423,1.173,0.852,1.765,1.267c0.215,0.15,0.443,0.278,0.674,0.397
	c0.089,0.046,0.184,0.001,0.231-0.113c0.298-0.207,0.496,0.037,0.683,0.215c1.822,1.736,3.943,2.909,6.202,4.044
	c-1.151-1.053-2.153-2.112-3.068-3.281c-0.922-1.177-1.69-2.465-2.448-3.767c-0.782-1.341-1.332-2.802-1.846-4.282
	c-0.505-1.454-0.747-2.982-1.012-4.503c-0.124-0.712-0.047-1.438-0.128-2.154c-0.028-0.247-0.047-0.532,0.239-0.63
	c0.257-0.088,0.43,0.104,0.59,0.287c0.159,0.181,0.299,0.382,0.427,0.59c0.955,1.563,1.997,3.061,2.848,4.607
	c-0.812-3.351-0.773-6.755,0.197-10.137c0.395-1.377,0.846-1.533,1.718-0.454c2.155,2.667,4.508,5.083,7.111,7.205
	c1.908,1.555,3.95,2.814,6.233,3.587c-3.893-2.595-7.024-5.948-8.884-10.606c-0.198-0.496-0.368-1.001-0.497-1.523
	c-0.069-0.28-0.139-0.586,0.072-0.819c0.259-0.286,0.558-0.121,0.815,0.018c1.404,0.76,2.839,1.445,4.271,2.135
	c3.286,1.583,6.677,2.846,10.083,4.067C68.26,85.273,68.422,85.323,68.586,85.257z"/>
<path style="fill:#EEEEEE;" d="M138.181,30.329c-0.624-0.031-1.226-0.185-1.804-0.434c-1.366-0.589-2.158-1.695-2.316-3.312
	c-0.073-0.75-0.099-1.509-0.105-2.264c-0.029-3.854-0.029-7.708-0.071-11.561c-0.024-2.239,0.97-3.983,2.862-4.606
	c0.465-0.153,0.951-0.234,1.432-0.314c0.288-0.048,0.585-0.044,0.877-0.039c3.418,0.059,6.836,0.121,10.254,0.184
	c1.823,0.034,3.646,0.063,5.469,0.107c1.66,0.04,3.319,0.096,4.978,0.149c0.056,0.002,0.111,0.05,0.167,0.077
	c0.08,0.167-0.034,0.272-0.111,0.374c-1.695,2.235-3.398,4.462-5.084,6.705c-0.3,0.4-0.617,0.509-1.089,0.497
	c-2.244-0.061-4.477-0.306-6.717-0.438c-1.267-0.075-2.535-0.14-3.803-0.197c-0.19-0.009-0.387,0.031-0.573,0.083
	c-0.277,0.078-0.451,0.278-0.463,0.611c-0.007,0.216-0.007,0.432-0.006,0.648c0.008,2.053,0.014,4.106,0.026,6.159
	c0.007,1.221,0.174,1.457,1.247,1.607c0.903,0.126,1.814,0.194,2.721,0.285c0.875,0.088,1.749,0.181,2.625,0.257
	c0.623,0.054,1.221,0.222,1.797,0.473c1.142,0.498,1.866,1.409,2.122,2.75c0.04,0.211,0.05,0.428,0.074,0.643
	c0.081,0.446,0.122,0.89-0.031,1.329l-0.001,0.001c-0.484,0.222-0.963,0.051-1.436-0.04c-4.703-0.902-9.425-1.656-14.168-2.239
	c-0.252-0.031-0.512-0.108-0.811,0.072c0.235,0.868,0.839,1.316,1.497,1.706c0.256,0.151,0.621,0.172,0.754,0.457
	C138.664,30.422,138.452,30.47,138.181,30.329z"/>
<path style="fill:#EEEEEE;" d="M51.18,48.238c-0.115,0.023-0.231,0.047-0.346,0.07c-0.142,0.063-0.3,0.054-0.44,0.126
	c-0.223,0.027-0.445,0.125-0.68,0.013c-0.117-0.342-0.06-0.704-0.059-1.058c0.018-3.385,0.042-6.77,0.066-10.155
	c0.034-4.789,0.071-9.578,0.103-14.368c0.014-2.125,0.018-4.25,0.027-6.375c0.001-0.216,0.006-0.432-0.004-0.648
	c-0.007-0.168-0.107-0.257-0.254-0.251c-0.715,0.025-1.431,0.05-2.146,0.089c-0.845,0.046-1.69,0.086-2.532,0.172
	c-0.434,0.044-0.723-0.099-1-0.475c-1.254-1.704-2.534-3.383-3.802-5.074c-0.395-0.527-0.783-1.059-1.165-1.598
	c-0.071-0.101-0.206-0.189-0.153-0.355c0.021-0.033,0.037-0.083,0.055-0.084c0.65-0.034,1.299-0.077,1.949-0.092
	c3.287-0.079,6.574-0.153,9.861-0.223C54.145,7.878,57.627,7.81,61.11,7.74c0.13-0.003,0.261-0.004,0.391,0.001
	c0.439,0.019,0.486,0.045,0.62,0.516c0.492,1.714,0.975,3.431,1.461,5.147c0.107,0.377,0.218,0.753,0.317,1.133
	c0.043,0.167-0.04,0.29-0.188,0.301c-0.552,0.04-1.104,0.065-1.657,0.092c-1.04,0.05-2.081,0.095-3.121,0.147
	c-0.157,0.008-0.325-0.007-0.49,0.161c-0.009,0.212-0.027,0.46-0.029,0.709c-0.025,3.385-0.049,6.77-0.071,10.156
	c-0.004,0.54-0.005,1.08-0.118,1.61c-0.549,0.477-1.226,0.431-1.86,0.526c-1.191,0.179-2.387,0.313-3.575,0.518
	c-1.171,0.201-1.282,0.335-1.285,1.672c-0.011,5.355,0,10.709-0.01,16.064C51.495,47.09,51.604,47.727,51.18,48.238z"/>
<path style="fill:#EEEEEE;" d="M111.593,43.487c-0.122-0.005-0.244-0.01-0.366-0.015c-0.295-0.21-0.681,0.09-0.959-0.21
	c-0.021-0.056-0.022-0.113-0.002-0.17c0.082-0.148,0.066-0.327,0.123-0.483c0.635-3.051,1.272-6.101,1.905-9.153
	c1.193-5.753,2.383-11.506,3.573-17.259c0.029-0.14,0.038-0.286,0.073-0.425c0.075-0.3,0.044-0.563-0.163-0.796
	c-0.136-0.153-0.25-0.331-0.376-0.496c-1.546-2.045-3.092-4.09-4.638-6.135c-0.146-0.193-0.296-0.384-0.437-0.582
	c-0.084-0.118-0.012-0.302,0.116-0.314c0.032-0.003,0.065-0.006,0.098-0.006c2.442,0.016,4.885-0.027,7.327,0.062
	c1.595,0.058,3.192,0.032,4.788,0.046c1.042,0.009,2.084,0.02,3.126,0.031c0.791,0.008,0.8,0.007,0.988,0.913
	c0.626,3.017,1.246,6.035,1.866,9.053c0.591,2.878,1.178,5.756,1.766,8.635c0.224,0.765-0.177,0.837-0.713,0.822
	c-1.327-0.039-2.641-0.255-3.968-0.325c-0.755-0.04-0.894,0.23-0.776,0.972c0.282,1.763,0.553,3.528,0.793,5.299
	c0.063,0.469,0.296,1.067-0.213,1.37c-0.5,0.298-1.061,0.314-1.519-0.201c-0.425-1.152-0.425-2.396-0.614-3.598
	c-0.429-2.729-0.885-5.453-1.184-8.015c-0.017,0.926-0.178,2.02-0.486,3.088c-0.435,0.908-1.21,0.744-1.895,0.646
	c-0.972-0.14-1.94-0.164-2.914-0.158c-1.26,0.007-1.299,0.02-1.58,1.348c-0.902,4.265-1.786,8.535-2.678,12.802
	c-0.161,0.77-0.324,1.539-0.503,2.303C112.062,42.919,111.977,43.313,111.593,43.487z"/>
<path style="fill:#EEEEEE;" d="M86.187,43.501c-0.481,0.033-0.963,0.09-1.491,0.009c0.126-0.44,0.223-0.819,0.341-1.19
	c1.789-5.631,3.58-11.261,5.371-16.892c0.262-0.825,0.263-0.825-0.006-1.639c-1.683-5.101-3.365-10.201-5.047-15.302
	c-0.099-0.299-0.189-0.602-0.27-0.863c0.151-0.241,0.326-0.179,0.474-0.18c2.311-0.017,4.622-0.027,6.933-0.039
	c0.163-0.001,0.326,0.007,0.488,0.001c0.277-0.01,0.394,0.153,0.461,0.435c0.308,1.286,0.631,2.568,0.947,3.851
	c0.59,2.394,1.182,4.787,1.769,7.182c0.06,0.243,0.098,0.492,0.312,0.727c0.099-0.346,0.197-0.664,0.28-0.987
	c0.872-3.39,1.741-6.78,2.612-10.17c0.062-0.242,0.119-0.486,0.194-0.723c0.056-0.178,0.165-0.307,0.354-0.311
	c0.13-0.003,0.26-0.005,0.391-0.004c2.344,0.004,4.687,0.007,7.031,0.014c0.154,0,0.32-0.042,0.508,0.147
	c-0.858,2.753-1.808,5.5-2.716,8.264c-0.899,2.737-1.821,5.465-2.734,8.197c-0.084,0.144-0.06,0.327-0.143,0.471
	c-0.005,0.057-0.002,0.113,0.008,0.168c0.206,0.722-0.139,0.925-0.7,0.874c-2.825-0.256-5.643-0.065-8.465,0.084
	c-0.817,0.043-1.146,0.491-1.367,1.235c-0.861,2.903-1.831,5.764-2.725,8.654c-0.684,2.21-1.435,4.394-2.078,6.62
	C86.769,42.649,86.603,43.158,86.187,43.501z"/>
<path style="fill:#828181;" d="M68.586,85.257c-0.169,0.246-0.406,0.231-0.621,0.147c-1.62-0.638-3.29-1.096-4.9-1.781
	c-1.423-0.606-2.859-1.178-4.268-1.825c-0.809-0.372-1.616-0.752-2.415-1.15c-1.037-0.517-2.064-1.057-3.097-1.582
	c-0.158-0.08-0.346,0.096-0.297,0.28c0.13,0.481,0.23,0.981,0.42,1.433c0.794,1.892,1.621,3.758,2.932,5.312
	c0.44,0.522,0.818,1.112,1.288,1.612c1.504,1.599,3.16,2.976,4.949,4.16c0.159,0.105,0.386,0.134,0.4,0.414
	c-0.198,0.156-0.366-0.009-0.549-0.05c-0.996-0.22-1.914-0.659-2.828-1.138c-2.012-1.055-3.77-2.517-5.511-4.026
	c-0.773-0.67-1.397-1.512-2.177-2.153c-0.714-0.586-1.339-1.272-1.896-2.012c-0.459-0.61-0.948-1.181-1.443-1.75
	c-0.586-0.673-0.738-0.928-1.082,0.325c-0.462,1.682-0.891,3.378-0.79,5.169c0.012,0.215,0.008,0.432,0.001,0.648
	c-0.059,1.67,0.214,3.283,0.682,4.862c0.049,0.167,0.133,0.326,0.001,0.489c-0.161,0-0.211-0.142-0.284-0.259
	c-0.971-1.57-1.942-3.14-2.917-4.708c-0.239-0.384-0.486-0.761-0.744-1.129c-0.049-0.07-0.17-0.13-0.245-0.115
	c-0.185,0.037-0.121,0.203-0.103,0.34c0.033,0.247,0.091,0.497,0.085,0.743c-0.037,1.601,0.364,3.121,0.707,4.647
	c0.298,1.328,0.792,2.588,1.332,3.814c0.655,1.487,1.515,2.842,2.364,4.203c0.577,0.924,1.408,1.596,1.949,2.546
	c0.101,0.178,0.253,0.343,0.415,0.454c0.534,0.365,0.943,0.879,1.394,1.345c0.188,0.194,0.414,0.344,0.614,0.524
	c0.044,0.039,0.055,0.122,0.081,0.185c-0.085,0.028-0.186,0.104-0.252,0.076c-1.218-0.509-2.392-1.126-3.524-1.835
	c-0.451-0.283-0.869-0.634-1.327-0.902c-0.755-0.442-1.438-0.978-2.016-1.676c-0.111-0.134-0.238-0.246-0.408-0.275
	c-0.228-0.172-0.41-0.391-0.554-0.65c-2.239-3.953-3.687-8.239-4.421-12.826c-0.017-0.106-0.042-0.212-0.05-0.319
	c-0.032-0.426-0.15-0.92,0.263-1.171c0.376-0.229,0.657,0.165,0.954,0.365c0.109,0.073,0.199,0.185,0.406,0.194
	c0.138-0.424,0.076-0.885,0.062-1.327c-0.156-5.138,0.228-10.206,1.495-15.174c0.372-1.46,0.854-2.872,1.371-4.269
	c0.361-0.978,0.722-1.019,1.285-0.173c1.566,2.351,3.268,4.585,5.112,6.658c3.503,3.938,7.339,7.438,11.799,10.009
	c1.466,0.845,2.898,1.773,4.458,2.406C67.317,84.646,67.951,84.952,68.586,85.257z"/>
<path style="fill:#828181;" d="M124.103,33.979c0.479,0.317,0.974,0.256,1.518,0.113c-0.209-1.417-0.408-2.793-0.616-4.168
	c-0.149-0.988-0.311-1.975-0.462-2.963c-0.021-0.14-0.027-0.286-0.017-0.427c0.011-0.158,0.099-0.256,0.248-0.272
	c0.064-0.007,0.132-0.023,0.193-0.009c0.768,0.173,1.55,0.136,2.325,0.204c0.872,0.076,1.742,0.172,2.612,0.261
	c0.38,0.039,0.38,0.041,0.497-0.535c0.039,0.057,0.1,0.108,0.113,0.171c1.24,6.201,2.477,12.402,3.711,18.605
	c0.055,0.275,0.082,0.558,0.119,0.82c-0.232,0.208-0.468,0.125-0.683,0.093c-1.704-0.252-3.406-0.523-5.11-0.777
	c-0.354-0.053-0.712-0.064-1.069-0.087c-0.227-0.015-0.457-0.004-0.651-0.171c0.293-1.356-0.183-2.622-0.427-3.901
	c-0.157-0.823-0.695-0.514-1.137-0.219c-0.048-0.092-0.116-0.179-0.141-0.279c-0.057-0.222-0.136-0.377-0.379-0.401
	c-1.161-0.114-2.32-0.29-3.483-0.347c-0.51-0.025-1.029-0.006-1.545-0.022c-0.135-0.004-0.255,0.067-0.291,0.229
	c-0.068,0.313-0.137,0.627-0.189,0.943c-0.147,0.881-0.283,1.764-0.43,2.645c-0.065,0.392-0.154,0.466-0.522,0.471
	c-0.13,0.002-0.26-0.006-0.389-0.016c-1.649-0.121-3.298-0.243-4.947-0.364c-0.452-0.033-0.904-0.059-1.356-0.089
	c0.251-0.437,0.29-0.947,0.392-1.432c1.049-4.992,2.076-9.989,3.144-14.976c0.322-1.504-0.019-1.36,1.549-1.345
	c1.397,0.014,2.784,0.169,4.177,0.248c0.353,0.02,0.541-0.147,0.697-0.442c0.353,0.41,0.164,0.884,0.103,1.324
	c-0.254,1.837-0.529,3.67-0.826,5.499c-0.129,0.797,0.088,1.087,0.827,1.128C122.48,33.537,123.336,33.522,124.103,33.979z"/>
<path style="fill:#EEEEEE;" d="M67.018,45.425c-0.29,0.024-0.581,0.048-0.848,0.07c-0.198-0.248-0.129-0.51-0.127-0.751
	c0.03-5.471,0.063-10.943,0.101-16.414c0.031-4.463,0.07-8.926,0.102-13.389c0.015-2.124,0.024-4.248,0.037-6.371
	c0.001-0.216,0.007-0.432,0.021-0.646c0.011-0.166,0.111-0.258,0.253-0.269c0.259-0.019,0.52-0.029,0.779-0.031
	c4.1-0.035,8.2-0.066,12.301-0.105c0.846-0.008,1.691-0.039,2.536-0.065c0.224-0.007,0.395,0.09,0.444,0.325
	c0.429,2.067,0.849,4.137,1.266,6.207c0.012,0.059-0.038,0.134-0.076,0.255c-2.935,0.11-5.895,0.029-8.812,0.236
	c-0.144,0.189-0.13,0.372-0.131,0.55c-0.011,2.484-0.022,4.968-0.032,7.451c0,0.072-0.001,0.144,0.002,0.216
	c0.018,0.384,0.07,0.457,0.395,0.448c0.487-0.014,0.974-0.054,1.462-0.075c1.495-0.065,2.99-0.126,4.485-0.187
	c0.097-0.004,0.195,0.007,0.292,0.015c0.156,0.012,0.231,0.124,0.231,0.28c-0.001,0.791-0.01,1.583-0.016,2.374
	c-0.551,0.478-1.23,0.495-1.864,0.515c-3.449,0.113-6.884,0.478-10.326,0.695c-1.425,0.09-1.566,0.214-1.568,1.773
	c-0.006,4.035-0.019,8.071,0.008,12.106c0.008,1.267-0.142,2.514-0.223,3.77C67.676,44.918,67.531,45.321,67.018,45.425z"/>
<path style="fill:#828181;" d="M86.187,43.501c1.779-5.627,3.557-11.255,5.337-16.882c0.075-0.237,0.187-0.463,0.243-0.705
	c0.102-0.447,0.319-0.637,0.757-0.64c2.729-0.019,5.456-0.213,8.186-0.083c0.357,0.017,0.712,0.059,1.069,0.076
	c0.349,0.016,0.39-0.043,0.474-0.601c0.288,0.372,0.295,0.862,0.435,1.294c1.742,5.412,3.471,10.828,5.2,16.245
	c0.106,0.332,0.279,0.652,0.232,1.016c-0.152,0.138-0.318,0.119-0.478,0.116c-2.47-0.036-4.941-0.073-7.411-0.113
	c-0.19-0.003-0.395,0.037-0.537-0.164c0.278-0.347,0.661-0.187,0.997-0.243c-0.973-3.787-1.993-7.548-2.853-11.093
	c0.016-0.413-0.21-0.29-0.081-0.306c0.019-0.002,0.03,0.015,0.028,0.051c-0.041,0.64,0.056,1.347-0.66,1.659
	c-0.257-0.222-0.225-0.58-0.328-0.873c-0.128-0.365-0.203-0.752-0.305-1.143c-0.299,0.167-0.297,0.472-0.364,0.733
	c-0.891,3.486-1.781,6.972-2.671,10.459c-0.053,0.207-0.105,0.414-0.159,0.621c-0.059,0.225-0.172,0.379-0.405,0.386
	c-2.204,0.066-4.404,0.27-6.612,0.222C86.249,43.531,86.218,43.512,86.187,43.501z"/>
<path style="fill:#616161;" d="M76.793,79.597c0.168-1.456,0.415-2.895,0.794-4.304c0.512-0.222,0.949,0.102,1.407,0.246
	c2.574,0.808,5.153,1.444,7.868,0.983c2.996-0.509,4.38-2.591,3.787-5.853c-0.219-1.204-0.569-2.359-1.075-3.456
	c-0.519-1.126-0.938-2.293-1.123-3.548c-0.057-0.384-0.189-0.779,0.086-1.133c0.64-0.143,1.286-0.19,1.938-0.202
	c1.3-0.023,2.6-0.029,3.895-0.192c0.224-0.028,0.452-0.003,0.678-0.019c0.346-0.025,0.516,0.187,0.666,0.502
	c0.758,1.59,1.56,3.156,2.294,4.759c0.838,1.829,1.589,3.699,1.965,5.728c0.311,1.68,0.412,3.345-0.125,4.995
	c-1.465,2.81-3.989,3.546-6.594,3.948c-4.523,0.697-9,0.066-13.449-0.867c-0.797-0.167-1.598-0.324-2.383-0.551
	C76.951,80.494,76.527,80.296,76.793,79.597z"/>
<path style="fill:#828181;" d="M138.181,30.329c0.106-0.084,0.037,0.07,0.093-0.053c0.019-0.041,0.115-0.133,0.075-0.135
	c-0.409-0.023-0.746-0.248-1.082-0.46c-0.848-0.535-1.297-1.215-1.528-2.304c0.559,0.058,1.099,0.104,1.636,0.174
	c0.902,0.116,1.803,0.24,2.703,0.375c1.768,0.264,3.536,0.524,5.301,0.812c1.829,0.298,3.657,0.602,5.477,0.957
	c0.602,0.117,1.234,0.103,1.803,0.41c0.135,0.378,0.122,0.776,0.124,1.171c0.02,4.1,0.038,8.201,0.055,12.301
	c0.004,0.904-0.09,1.797-0.355,2.654c-0.502,1.626-1.39,2.277-2.927,2.298c-1.441,0.019-2.843-0.239-4.25-0.527
	c-2.138-0.437-4.285-0.814-6.421-1.261c-0.566-0.119-1.167-0.077-1.699-0.383c-0.011-2.032-0.731-3.913-1.028-5.884
	c-0.074-0.487-0.297-0.956-0.14-1.47c0.423-0.083,0.828,0.053,1.242,0.115c1.69,0.25,3.382,0.488,5.073,0.724
	c0.7,0.098,1.39,0.33,2.107,0.2c1.284-0.25,1.288-0.25,1.292-1.701c0.005-1.614,0.004-3.228,0-4.843
	c-0.004-1.727-0.08-1.831-1.656-2.344c-1.745-0.288-3.49-0.574-5.258-0.629C138.592,30.519,138.367,30.499,138.181,30.329z"/>
<path style="fill:#828181;" d="M67.018,45.425c0.322-0.169,0.436-0.431,0.456-0.843c0.17-3.553,0.077-7.109,0.123-10.664
	c0.028-2.12,0.024-4.24,0.036-6.36c0.001-0.215,0.006-0.431,0.025-0.645c0.014-0.155,0.108-0.27,0.243-0.294
	c0.384-0.069,0.769-0.139,1.156-0.173c1.649-0.146,3.298-0.279,4.948-0.416c0.065-0.005,0.13-0.005,0.195-0.009
	c1.751-0.092,3.502-0.177,5.252-0.28c0.745-0.044,1.488-0.126,2.232-0.191c0.007,1.075,0.022,2.15,0.019,3.225
	c-0.001,0.351-0.1,0.457-0.397,0.48c-0.84,0.063-1.681,0.117-2.522,0.171c-1.197,0.077-2.394,0.152-3.591,0.227
	c-0.225,0.014-0.362,0.128-0.375,0.39c-0.002,0.036-0.004,0.072-0.005,0.107c-0.035,2.222-0.07,4.444-0.105,6.665
	c-0.001,0.036,0,0.072,0.002,0.108c0.022,0.435,0.083,0.506,0.449,0.517c0.291,0.009,0.581,0.014,0.872,0.02
	c1.707,0.099,3.396-0.186,5.094-0.283c0.767-0.044,1.537-0.154,2.301,0.044c-0.339,1.642-0.677,3.283-1.016,4.924
	c-0.014,0.07-0.041,0.137-0.056,0.206c-0.102,0.487-0.073,1.077-0.382,1.421c-0.326,0.362-0.867,0.158-1.313,0.203
	c-2.163,0.22-4.33,0.403-6.491,0.645c-1.999,0.225-3.992,0.512-5.988,0.764C67.794,45.432,67.408,45.519,67.018,45.425z"/>
<path style="fill:#81817F;" d="M73.11,107.971c-0.085,0.297-0.331,0.52-0.334,0.943c0.954-0.587,1.779-1.346,2.807-1.661
	c1.148-0.34,2.252-0.304,3.257,0.492c0.361,0.286,0.893,0.547,0.734,1.134c-0.146,0.539-0.7,0.13-1.13,0.347
	c0.109,0.511,0.46,0.871,0.752,1.266c0.398,0.538,1.019,0.913,0.96,1.777c-0.017,0.249,0.275,0.378,0.462,0.514
	c2.758,2,5.612,2.531,8.639,0.729c0.998-0.594,1.992-1.236,3.174-1.283c0.695-0.028,1.348,0.167,1.614,0.933
	c0.275,0.793,0.509,1.659-0.22,2.374c-0.381,0.268-0.751,0.56-1.146,0.799c-0.394,0.239-0.637,0.591-0.788,1.042
	c-0.36,1.073-0.753,2.133-1.068,3.222c-0.183,0.634-0.485,0.985-1.093,0.984c-2.499,0.525-4.9-0.071-7.288-0.79
	c-0.302-0.091-0.703-0.21-0.705-0.629c-0.002-0.418,0.405-0.514,0.699-0.641c0.788-0.34,1.605-0.585,2.542-0.863
	c-3.035-0.495-5.876-1.256-8.478-2.885c-1.439-0.901-2.685-1.989-3.544-3.598c-1.207-2.259-1.046-4.61-0.503-7.001
	c0.491-2.165,1.485-3.973,3.166-5.268c0.712-0.535,1.49-0.891,2.336-1.066c1.474-0.373,2.944-0.769,4.274-0.926
	c-0.221-0.096-0.657-0.226-1.037-0.497c-0.139-0.099-0.291-0.227-0.265-0.418c0.026-0.191,0.207-0.271,0.367-0.3
	c0.642-0.114,1.279-0.262,1.935-0.286c2.645-0.097,5.26,0.316,7.886,0.544c0.291,0.025,0.58,0.084,0.873,0.108
	c1.993,0.162,3.436,1.779,3.592,4.018c0.06,0.87-0.249,1.248-1.014,1.064c-0.603-0.145-1.007,0.087-1.392,0.52
	c-0.43,0.484-0.905,0.559-1.395,0.135c-1.267-1.095-2.762-1.585-4.286-1.985c0.602,0.405,1.241,0.776,1.717,1.382
	c0.224,0.286,0.378,0.639,0.114,0.973c-0.231,0.293-0.541,0.176-0.809,0.016c-0.517-0.308-0.985-0.703-1.478-1.054
	c-1.046-0.744-2.137-1.369-3.349-1.73c-1.866-0.556-3.671-0.378-5.447,0.424c-0.898,0.406-1.749,0.906-2.546,1.421
	c0.453-0.183,1.053-0.857,1.424-0.288c0.317,0.486-0.398,0.947-0.777,1.312C74.966,104.593,73.973,106.226,73.11,107.971z"/>
<path style="fill:#616161;" d="M180.1,82.609c-0.563-0.168-1.025-0.508-1.507-0.789c-1.869-1.091-3.731-2.194-5.595-3.296
	c-0.344-0.203-0.685-0.413-1.018-0.637c-0.388-0.26-0.445-0.4-0.316-0.886c0.347-1.31,0.711-2.614,1.065-3.922
	c0.959-3.545,1.916-7.09,2.875-10.634c0.047-0.172,0.094-0.344,0.148-0.514c0.157-0.489,0.268-0.557,0.729-0.375
	c1.591,0.627,3.18,1.263,4.767,1.901c1.343,0.541,2.684,1.09,4.025,1.636c0.213,0.087,0.431,0.163,0.639,0.264
	c0.288,0.141,0.353,0.262,0.275,0.584c-0.234,0.972-0.458,1.947-0.729,2.906c-0.894,3.159-1.96,6.244-3.244,9.238
	c-0.572,1.333-1.154,2.656-1.8,3.946C180.319,82.217,180.215,82.397,180.1,82.609z"/>
<path style="fill:#616161;" d="M21.781,61.475c0.086,0.048,0.205,0.071,0.246,0.146c0.099,0.183,0.172,0.387,0.238,0.589
	c1.597,4.872,2.922,9.835,4.034,14.868c0.129,0.584,0.105,0.644-0.384,0.938c-0.686,0.412-1.377,0.815-2.067,1.22
	c-1.782,1.046-3.562,2.096-5.346,3.135c-0.498,0.29-0.528,0.289-0.813-0.296c-0.57-1.172-1.143-2.345-1.66-3.546
	c-1.286-2.991-2.403-6.06-3.293-9.225c-0.299-1.064-0.562-2.14-0.815-3.218c-0.094-0.401-0.069-0.625,0.411-0.806
	c0.984-0.372,1.951-0.799,2.929-1.193c2.047-0.824,4.096-1.642,6.144-2.462C21.527,61.575,21.649,61.527,21.781,61.475z"/>
<path style="fill:#828181;" d="M50.322,55.803c1.565-0.005,3.124,0.086,4.681,0.262c0.651,0.073,1.128,0.343,1.544,0.944
	c1.86,2.69,3.767,5.34,5.655,8.008c0.237,0.335,1.307,1.85,1.541,2.177c1.597,2.232,3.187,4.471,4.775,6.711
	c1.468,2.07,2.915,4.157,4.407,6.205c0.371,0.509,0.47,0.995,0.318,1.59c-0.064,0.251-0.216,0.346-0.442,0.215
	c-0.836-0.486-1.677-0.963-2.495-1.485c-2.43-1.549-4.754-3.274-6.993-5.144c-0.577-0.482-1.08-1.031-1.522-1.664
	c-1.452-2.083-2.913-4.158-4.385-6.224c-0.631-0.886-0.475-0.925-1.628-0.661c-0.159,0.036-0.317,0.083-0.476,0.121
	c-0.243,0.058-0.45-0.015-0.618-0.218c-0.33-0.398-0.662-0.795-0.99-1.195c-2.193-2.672-4.213-5.495-6.052-8.476
	c-0.128-0.208-0.258-0.416-0.379-0.63c-0.225-0.4-0.178-0.526,0.224-0.531C48.433,55.795,49.378,55.803,50.322,55.803z"/>
<path style="fill:#828181;" d="M125.192,80.206c0.104-0.395,0.358-0.639,0.555-0.918c5.283-7.459,10.575-14.911,15.854-22.375
	c0.342-0.484,0.71-0.775,1.28-0.849c1.912-0.248,3.834-0.255,5.752-0.37c0.226-0.014,0.454,0.015,0.68,0.035
	c0.12,0.01,0.17,0.13,0.147,0.229c-0.046,0.208-0.114,0.413-0.195,0.608c-1.467,3.521-3.319,6.772-5.583,9.734
	c-0.084,0.11-0.175,0.213-0.259,0.324c-0.161,0.213-0.361,0.295-0.608,0.237c-0.318-0.075-0.642-0.128-0.953-0.23
	c-0.394-0.129-0.663-0.036-0.922,0.347c-0.78,1.154-1.596,2.278-2.398,3.414c-0.762,1.079-1.525,2.157-2.284,3.239
	c-0.261,0.372-0.551,0.701-0.908,0.97c-2.866,2.156-5.898,3.962-9.141,5.323C125.891,80.056,125.582,80.294,125.192,80.206z"/>
<path style="fill:#818181;" d="M51.18,48.238c-0.001-1.044-0.004-2.089-0.001-3.133c0.011-4.36,0.022-8.719,0.036-13.079
	c0.003-0.937,0.007-1.874,0.028-2.81c0.011-0.477,0.087-0.57,0.501-0.634c1.481-0.228,2.962-0.455,4.445-0.659
	c0.676-0.093,1.346-0.283,2.036-0.211c0.021,0.321,0.062,0.643,0.06,0.964c-0.024,5.762-0.052,11.525-0.081,17.287
	c-0.001,0.216-0.007,0.432-0.017,0.647c-0.01,0.204-0.118,0.325-0.291,0.377c-0.157,0.047-0.314,0.098-0.474,0.13
	c-1.855,0.372-3.711,0.743-5.567,1.108C51.634,48.27,51.407,48.329,51.18,48.238z"/>
<path style="fill:#61615F;" d="M97.921,126.993c-0.368,0.371-0.826,0.573-1.274,0.766c-2.055,0.886-4.14,1.688-6.303,2.172
	c-1.104,0.247-2.213,0.49-3.357,0.533c-0.77,0.029-1.542,0.156-2.32,0.199c-0.985,0.056-1.943-0.16-2.902-0.287
	c-1.278-0.17-2.552-0.473-3.767-0.994c-0.327-0.14-0.658-0.27-1.059-0.433c0.173,0.669,0.535,1.116,0.957,1.463
	c0.649,0.534,1.247,1.138,1.943,1.612c0.807,0.55,1.635,1.031,2.531,1.367c0.889,0.334,1.781,0.653,2.706,0.859
	c0.422,0.094,0.846,0.008,1.258,0.122c0.046,0.013,0.087,0.091,0.111,0.148c0.035,0.082,0.002,0.155-0.079,0.166
	c-0.737,0.097-1.472,0.238-2.212,0.272c-1.368,0.063-2.709-0.174-4.022-0.598c-0.089-0.029-0.198-0.02-0.231,0.099
	c-0.015,0.053,0.02,0.144,0.058,0.191c0.943,1.146,1.962,2.198,3.151,3.031c0.47,0.33,0.991,0.537,1.517,0.725
	c0.211,0.076,0.441,0.101,0.608,0.398c-0.257,0.093-0.504,0.053-0.741,0.054c-0.227,0.002-0.461,0.008-0.68-0.045
	c-0.914-0.224-1.858-0.309-2.734-0.712c-0.089-0.041-0.212-0.062-0.258,0.05c-0.034,0.081-0.026,0.218,0.015,0.297
	c0.419,0.809,0.842,1.617,1.278,2.415c0.789,1.442,1.588,2.878,2.381,4.315c-0.397,0.004-0.439-0.023-1.045-0.662
	c0.098-0.058,0.151-0.16,0.078-0.253c-0.193-0.243-0.4-0.473-0.609-0.699c-1.866-2.013-3.659-4.1-5.315-6.327
	c-1.076-1.447-2.086-2.948-2.926-4.581c-0.617-1.199-1.007-2.49-1.316-3.82c-0.42-1.812-0.774-3.637-0.991-5.493
	c-0.016-0.138-0.044-0.306,0.103-0.365c0.071-0.029,0.181,0.031,0.264,0.074c0.088,0.045,0.164,0.117,0.245,0.177
	c2.595,1.927,5.442,3.234,8.454,4.088c2.207,0.625,4.456,1.01,6.748,0.982c0.586-0.007,1.172-0.004,1.758-0.004
	c2.522-0.001,4.975-0.519,7.406-1.202C97.535,127.042,97.73,127.026,97.921,126.993z"/>
<path style="fill:#626161;" d="M66.682,84.341c-0.231,0.047-0.445,0.004-0.664-0.099c-2.066-0.97-4.062-2.088-5.991-3.362
	c-1.425-0.941-2.776-1.998-4.082-3.114c-1.152-0.984-2.315-1.973-3.316-3.158c-0.6-0.711-1.393-1.19-1.946-1.953
	c-0.936-1.289-2.035-2.411-2.996-3.678c-0.709-0.934-1.362-1.917-2.097-2.827c-0.278-0.345-0.478-0.767-0.721-1.148
	c-0.153-0.24-0.348-0.227-0.447,0.03c-0.128,0.33-0.248,0.663-0.366,0.997c-0.827,2.343-1.435,4.752-1.885,7.219
	c-0.212,1.158-0.389,2.327-0.504,3.49c-0.119,1.204-0.292,2.412-0.258,3.643c0.054,1.979,0.016,3.961,0.016,5.942
	c0,0.142-0.013,0.285-0.025,0.512c-0.452-0.214-0.776-0.555-1.137-0.826c-0.106-0.08-0.204-0.18-0.32-0.235
	c-0.091-0.044-0.211,0.001-0.225,0.123c-0.028,0.247-0.072,0.508-0.03,0.746c0.299,1.685,0.613,3.364,1.092,5.006
	c0.711,2.437,1.646,4.762,2.705,7.033c0.191,0.409,0.465,0.79,0.465,1.287c-0.498-0.364-0.844-0.887-1.195-1.403
	c-1.911-2.806-3.109-5.976-3.857-9.365c-0.424-1.922-0.681-3.872-0.853-5.847c-0.203-2.34-0.139-4.674-0.119-7.013
	c0-0.05,0.048-0.099,0.116-0.232c0.411,0.921,0.563,1.875,0.852,2.773c0.29,0.9,0.519,1.825,0.851,2.794
	c0.083-0.152,0.135-0.203,0.133-0.251c-0.031-0.863-0.032-1.73-0.116-2.588c-0.074-0.757-0.117-1.519-0.036-2.263
	c0.145-1.322,0.13-2.654,0.317-3.975c0.605-4.264,1.867-8.222,4.245-11.692c0.059-0.086,0.11-0.179,0.173-0.262
	c0.211-0.282,0.357-0.277,0.514,0.024c0.227,0.437,0.447,0.878,0.67,1.317c2.024,3.973,4.502,7.57,7.319,10.896
	c2.707,3.196,5.709,5.993,9.018,8.392c1.089,0.79,2.207,1.526,3.363,2.193C65.804,83.73,66.282,83.964,66.682,84.341z"/>
<path style="fill:#818181;" d="M88.538,62.531c0.179,1.536,0.537,3.016,1.199,4.388c0.647,1.341,1.071,2.772,1.291,4.258
	c0.211,1.426-0.025,2.786-0.888,3.942c-0.358,0.48-0.82,0.832-1.322,1.073c-0.649,0.312-1.309,0.602-2.044,0.628
	c-0.61,0.022-1.201,0.263-1.828,0.208c-0.965-0.085-1.919-0.255-2.878-0.386c-1.394-0.19-2.709-0.671-4.031-1.143
	c-0.153-0.055-0.299-0.137-0.448-0.206c0.08-0.971,0.31-1.905,0.575-2.831c1.272-0.05,2.288-0.74,3.235-1.593
	c2.119-1.909,3.526-4.292,3.956-7.317c0.041-0.285,0.047-0.576,0.25-0.796C86.571,62.529,87.553,62.505,88.538,62.531z"/>
<path style="fill:#626161;" d="M162.202,96.678c-0.245,1.056-0.728,1.998-1.185,2.947c-1.601,3.325-3.599,6.33-5.987,9.017
	c-0.147,0.166-0.257,0.402-0.502,0.427c-0.072-0.126-0.004-0.203,0.051-0.288c1.622-2.488,3.021-5.123,4.19-7.903
	c0.823-1.959,1.496-3.981,1.992-6.076c0.7-2.957,0.895-5.964,0.648-8.988c-0.229-2.809-0.918-5.509-1.975-8.083
	c-1.248-3.037-2.905-5.777-4.885-8.291c-0.835-1.061-1.72-2.064-2.647-3.023c-0.233-0.241-0.389-0.216-0.536,0.097
	c-0.544,1.152-1.175,2.242-1.876,3.281c-1.862,2.761-4.081,5.127-6.563,7.197c-3.475,2.898-7.251,5.203-11.271,7.037
	c-1.173,0.535-2.353,1.045-3.555,1.495c-0.217,0.081-0.427,0.174-0.662,0.157c-0.031-0.561,0.412-0.576,0.71-0.716
	c4.067-1.919,7.839-4.391,11.293-7.44c4.051-3.576,7.514-7.757,10.307-12.592c1.206-2.088,1.36-2.137,2.844-0.359
	c3.603,4.317,6.703,9.006,8.692,14.502c1.244,3.438,2.013,6.997,1.972,10.724c-0.02,1.802-0.257,3.58-0.709,5.317
	C162.413,95.632,162.208,96.128,162.202,96.678z"/>
<path style="fill:#61615F;" d="M110.541,161.946c-0.314-0.699-0.416-1.345-0.467-1.981c-0.118-1.472-0.14-2.957,0.003-4.425
	c0.157-1.607,0.471-3.19,0.906-4.74c0.561-1.999,1.273-3.927,2.136-5.789c0.143-0.309,0.343-0.6,0.371-0.966
	c-0.168-0.085-0.242,0.056-0.326,0.138c-1.9,1.856-3.416,4.053-4.647,6.49c-1.763,3.492-2.832,7.242-3.401,11.19
	c-0.402,2.791-0.4,5.59-0.37,8.397c0.016,1.512,0.161,3.012,0.356,4.507c0.027,0.209,0.004,0.425,0.004,0.867
	c-0.378-1.257-0.555-2.334-0.728-3.412c-0.481-2.995-0.542-6.019-0.369-9.039c0.169-2.953,0.737-5.831,1.677-8.614
	c1.584-4.69,4.149-8.62,7.525-11.919c1-0.978,2.068-1.865,3.176-2.691c0.098-0.073,0.186-0.21,0.392-0.085
	c-0.173,0.287-0.34,0.576-0.518,0.857c-1.327,2.107-2.465,4.326-3.19,6.776c-0.252,0.852-0.441,1.73-0.625,2.604
	c-0.072,0.343-0.054,0.709-0.074,1.025c0.249,0.243,0.413,0.043,0.562-0.049c0.914-0.56,1.769-1.221,2.555-1.979
	c2.11-2.033,3.812-4.425,5.088-7.184c1.269-2.744,2.106-5.643,2.581-8.677c0.328-2.094,0.521-4.201,0.569-6.325
	c0.004-0.178,0.015-0.356,0.028-0.641c0.058,0.249-0.049,0.026,0.069,0.087c0.025,0.013,0.048,0.058,0.051,0.09
	c0.072,0.931,0.176,1.862,0.205,2.795c0.09,2.89-0.139,5.755-0.775,8.56c-0.746,3.291-2.017,6.295-4.113,8.834
	c-1.031,1.249-2.128,2.43-3.089,3.753c-1.555,2.141-2.95,4.391-4.03,6.87c-0.552,1.266-1.029,2.564-1.321,3.938
	C110.71,161.417,110.638,161.616,110.541,161.946z"/>
<path style="fill:#61615F;" d="M89.876,158.339c0.382,0.308,0.537,0.804,0.762,1.223c0.928,1.728,2.009,3.329,3.127,4.909
	c0.686,0.969,1.476,1.812,2.261,2.663c0.577,0.625,1.245,1.139,1.947,1.59c0.107,0.069,0.218,0.153,0.413,0.068
	c-0.113-0.499-0.212-1.014-0.348-1.517c-0.406-1.508-0.824-3.012-1.241-4.517c-0.521-1.881-1.044-3.762-1.566-5.642
	c-0.038-0.136-0.083-0.293,0.057-0.371c0.126-0.07,0.25,0.029,0.357,0.109c0.051,0.039,0.085,0.105,0.126,0.16
	c-0.144,0.064-0.211,0.195-0.131,0.334c0.262,0.455,0.537,0.901,0.818,1.342c1.331,2.088,2.597,4.222,3.783,6.414
	c0.233,0.432,0.44,0.881,0.657,1.323c0.366,0.743,0.517,1.544,0.519,2.385c0.004,1.619-0.021,3.24,0.025,4.857
	c0.075,2.61,0.566,5.127,1.523,7.524c0.052,0.131,0.102,0.264,0.148,0.398c0.01,0.028-0.005,0.066-0.009,0.107
	c-0.147,0.12-0.225-0.037-0.306-0.114c-1.904-1.815-3.568-3.878-5.139-6.042c-1.88-2.59-3.504-5.363-4.858-8.325
	c-1.176-2.572-2.143-5.237-2.804-8.03C89.936,158.911,89.917,158.622,89.876,158.339z"/>
<path style="fill:#818080;" d="M162.202,96.678c-0.106-0.1-0.165-0.227-0.135-0.379c0.056-0.279,0.119-0.557,0.189-0.832
	c0.308-1.21,0.455-2.445,0.603-3.691c0.119-1.006,0.144-2.001,0.154-3.005c0.005-0.431,0.026-0.864-0.129-1.279
	c-0.048-0.128-0.052-0.282-0.057-0.424c-0.059-1.844-0.496-3.601-0.966-5.357c-0.649-2.43-1.61-4.708-2.702-6.919
	c-0.997-2.018-2.147-3.931-3.443-5.733c-0.788-1.095-1.589-2.175-2.463-3.193c-0.512-0.596-0.953-1.271-1.501-1.836
	c-0.143-0.147-0.277-0.306-0.425-0.446c-0.179-0.169-0.377-0.156-0.505,0.047c-0.279,0.441-0.582,0.871-0.809,1.345
	c-0.599,1.246-1.441,2.298-2.175,3.435c-1.748,2.708-3.887,5.024-6.052,7.303c-1.053,1.109-2.217,2.093-3.394,3.05
	c-1.466,1.191-2.952,2.348-4.538,3.332c-1.387,0.861-2.748,1.783-4.252,2.399c-0.638,0.261-1.251,0.602-1.869,0.919
	c-0.111,0.057-0.196,0.177-0.293,0.268c-0.71,0.259-1.418,0.521-2.13,0.773c-0.081,0.029-0.177,0.004-0.398,0.004
	c0.516-0.296,0.915-0.535,1.321-0.757c3.945-2.157,7.741-4.593,11.321-7.429c2.44-1.933,4.739-4.05,6.787-6.486
	c1.962-2.335,3.661-4.871,4.829-7.806c0.301-0.757,0.559-1.535,0.851-2.296c0.099-0.258,0.112-0.573,0.392-0.776
	c0.715,0.456,1.391,1.014,2.043,1.595c4.151,3.698,7.414,8.171,9.543,13.599c0.949,2.419,1.566,4.947,1.849,7.579
	c0.174,1.618,0.221,3.236,0.105,4.849C163.752,91.341,163.231,94.079,162.202,96.678z"/>
<path style="fill:#4A4949;" d="M41.609,98.874c-0.127,0.09-0.184,0.232-0.094,0.36c0.338,0.481,0.665,0.977,1.046,1.414
	c0.951,1.088,1.887,2.198,2.908,3.201c1.089,1.07,2.262,2.032,3.514,2.874c1.226,0.825,2.512,1.52,3.804,2.195
	c1.529,0.798,3.14,1.361,4.778,1.825c0.439,0.124,0.881,0.238,1.319,0.364c0.253,0.073,0.502,0.132,0.756,0.003
	c0.027-0.313-0.193-0.467-0.368-0.588c-0.857-0.592-1.587-1.363-2.367-2.059c-0.678-0.606-1.325-1.277-1.823-2.09
	c-0.329-0.536-0.766-0.968-1.122-1.485c-0.672-0.976-1.269-2.003-1.792-3.073c-0.507-1.038-0.895-2.148-1.181-3.294
	c-0.155-0.621-0.336-1.23-0.438-1.872c-0.068-0.427-0.076-0.855-0.144-1.274c-0.208-1.285-0.163-2.551-0.015-3.843
	c0.086-0.744,0.247-1.478,0.279-2.23c0.002-0.059,0.073-0.114,0.111-0.171c0.008,0.684,0.009,1.367,0.024,2.051
	c0.086,3.854,1.013,7.436,2.821,10.739c1.488,2.719,3.463,4.941,5.735,6.845c2.376,1.99,5.003,3.48,7.806,4.594
	c0.178,0.071,0.382,0.103,0.452,0.363c-0.198,0-0.402,0.043-0.583-0.009c-0.416-0.12-0.836-0.126-1.259-0.136
	c-1.594-0.037-3.165-0.287-4.734-0.583c-1.087-0.205-2.17-0.411-3.247-0.68c-2.191-0.549-4.328-1.268-6.407-2.208
	c-2.056-0.93-4.002-2.081-5.812-3.506c-3.463-2.726-5.986-6.253-7.417-10.704c-0.021-0.066-0.023-0.141-0.023-0.212
	c0-0.032,0.029-0.063,0.045-0.094c0.057,0.014,0.134,0.007,0.168,0.046C39.364,96.806,40.512,97.809,41.609,98.874z"/>
<path style="fill:#61615F;" d="M73.11,107.971c-0.024-0.217-0.032-0.441,0.074-0.631c0.492-0.884,0.885-1.833,1.532-2.613
	c0.568-0.684,1.064-1.438,1.775-1.972c0.231-0.173,0.457-0.402,0.602-0.77c-0.77,0.03-1.364,0.617-2.225,0.722
	c0.477-0.559,0.964-0.849,1.419-1.147c1.034-0.677,2.125-1.246,3.311-1.523c0.63-0.147,1.284-0.325,1.915-0.284
	c1.259,0.083,2.505,0.314,3.67,0.921c1.003,0.523,1.946,1.152,2.853,1.852c0.24,0.185,0.479,0.371,0.726,0.543
	c0.142,0.098,0.302,0.142,0.447-0.003c0.129-0.129,0.109-0.37-0.054-0.579c-0.191-0.246-0.402-0.462-0.66-0.631
	c-0.558-0.366-1.103-0.755-1.65-1.14c-0.08-0.056-0.139-0.156-0.081-0.258c0.024-0.042,0.122-0.062,0.177-0.047
	c1.067,0.285,2.154,0.478,3.167,1c0.531,0.274,1.077,0.487,1.515,0.944c0.163,0.17,0.371,0.289,0.563,0.424
	c0.268,0.188,0.344,0.182,0.591-0.073c0.214-0.221,0.422-0.45,0.621-0.687c0.308-0.367,0.655-0.436,1.055-0.202
	c0.115,0.067,0.233,0.129,0.355,0.179c0.235,0.096,0.465-0.04,0.526-0.301c0.058-0.249,0.049-0.498-0.005-0.747
	c-0.167-0.773-0.419-1.492-0.84-2.157c-0.775-1.224-0.748-1.331-1.972-1.399c-0.941-0.052-1.857-0.351-2.806-0.271
	c-0.253,0.021-0.513-0.055-0.769-0.097c-0.128-0.021-0.255-0.102-0.378-0.092c-1.239,0.105-2.449-0.293-3.687-0.243
	c-1.261,0.051-2.531-0.067-3.773,0.33c0.001,0.131,0.134,0.203,0.247,0.236c0.533,0.155,1,0.522,1.561,0.589
	c0.094,0.011,0.177,0.101,0.163,0.226c-0.016,0.138-0.128,0.135-0.218,0.133c-1.468-0.027-2.899,0.256-4.322,0.621
	c-0.185,0.047-0.387,0.012-0.582,0.016c0.566-0.382,1.221-0.435,1.842-0.614c0.366-0.106,0.737-0.191,1.088-0.435
	c-0.761-0.015-1.521-0.033-2.282-0.044c-1.331-0.019-2.653,0.07-3.955,0.411c-0.248,0.065-0.515,0.036-0.774,0.05l0.011,0.014
	c0.495-0.507,1.144-0.649,1.752-0.868c1.64-0.589,3.33-0.902,5.043-1.13c2.782-0.371,5.571-0.44,8.363-0.33
	c1.036,0.041,2.073,0.149,3.111,0.176c0.342,0.009,0.631,0.139,0.903,0.349c1.024,0.788,1.906,1.728,2.586,2.895
	c0.542,0.932,0.773,1.969,0.871,3.051c0.05,0.546-0.073,1.079-0.226,1.586c-0.174,0.577-0.785,0.689-1.18,0.252
	c-0.16-0.178-0.288-0.392-0.456-0.559c-0.536-0.534-0.963-0.478-1.376,0.165c-0.037,0.057-0.051,0.132-0.079,0.197
	c-0.085,0.204-0.228,0.245-0.396,0.145c-0.457-0.273-0.904-0.568-1.366-0.83c-0.37-0.211-0.693-0.547-1.144-0.556l0.013-0.014
	c0.298,0.422,0.601,0.839,0.892,1.267c0.137,0.201,0.246,0.419,0.265,0.683c0.027,0.367-0.147,0.642-0.486,0.661
	c-0.584,0.033-1.16,0.009-1.738-0.161c-1.427-0.421-2.751-1.105-4.003-1.943c-1.111-0.744-2.299-1.167-3.575-1.292
	c-0.682-0.067-1.353,0.114-2.015,0.298c-1.191,0.33-2.209,1.027-3.171,1.84c-1.066,0.901-1.976,1.972-2.781,3.156
	C73.516,107.515,73.373,107.803,73.11,107.971z"/>
<path style="fill:#616160;" d="M96.542,145.143c0.356-0.012,0.697-0.003,0.994-0.323c0.352-0.38,0.525-0.855,0.551-1.344
	c0.058-1.072,0.102-2.151-0.175-3.212c-0.24-0.923-0.72-1.61-1.512-1.99c-0.415-0.199-0.853-0.384-1.297-0.454
	c-0.967-0.153-1.892-0.491-2.837-0.731c-0.647-0.164-1.273-0.45-1.979-1.043c1.078,0.248,1.949,0.527,2.837,0.63
	c0.868,0.101,1.754,0.022,2.634,0.022c-0.003-0.272-0.18-0.321-0.322-0.367c-1.657-0.534-3.252-1.235-4.774-2.135
	c-0.458-0.27-0.9-0.575-1.341-0.877c-0.134-0.092-0.264-0.216-0.224-0.486c0.664,0.075,1.325,0.243,2.004,0.204
	c0.715-0.041,1.444,0.069,2.145-0.045c0.649-0.105,1.326-0.194,1.925-0.613c-0.91,0-1.82,0.024-2.73-0.006
	c-1.039-0.035-2.055-0.256-3.048-0.597c-0.093-0.032-0.191-0.058-0.272-0.113c-0.04-0.027-0.072-0.12-0.062-0.173
	c0.01-0.055,0.074-0.137,0.116-0.139c0.519-0.024,1.04-0.062,1.558-0.045c1.575,0.052,3.093-0.328,4.595-0.763
	c1.231-0.357,2.355-1.009,3.395-1.826c-0.012,0.61,0.009,1.222-0.044,1.828c-0.052,0.595,0.183,0.922,0.632,1.19
	c1.226,0.731,2.438,1.493,3.652,2.248c0.988,0.615,1.973,1.237,2.956,1.862c0.079,0.05,0.133,0.146,0.199,0.221l0.009-0.012
	c-0.306,0.024-0.569-0.131-0.841-0.247c-1.971-0.84-3.941-1.681-5.912-2.522c-0.121-0.052-0.242-0.106-0.365-0.154
	c-0.189-0.073-0.317,0.005-0.368,0.212c-0.164,0.672-0.106,1.357-0.078,2.038c0.011,0.27,0.228,0.426,0.386,0.602
	c0.941,1.046,1.886,2.088,2.828,3.132c0.321,0.355,0.638,0.714,0.959,1.073c-0.195,0.239-0.309,0.043-0.414-0.042
	c-1.051-0.848-2.095-1.705-3.143-2.558c-0.154-0.125-0.293-0.285-0.573-0.28c-0.129,0.281-0.056,0.603-0.066,0.906
	c-0.01,0.287-0.025,0.581,0.015,0.863c0.108,0.75,0.131,1.505,0.115,2.259c-0.01,0.481,0.158,0.813,0.483,1.109
	c0.627,0.572,1.235,1.169,1.847,1.76c0.036,0.035,0.043,0.107,0.106,0.273c-0.384-0.209-0.696-0.373-1.003-0.549
	c-0.259-0.149-0.507-0.325-0.768-0.469c-0.363-0.2-0.48-0.122-0.478,0.298c0.005,1.011,0.166,2.001,0.347,2.988
	c0.05,0.273,0.143,0.548-0.004,0.901C98.273,146.841,97.356,146.061,96.542,145.143z"/>
<path style="fill:#D5D5D5;" d="M31.197,75.217c-1.219,0.643-2.356,1.243-3.464,1.827c-0.269-0.197-0.279-0.468-0.34-0.697
	c-1.28-4.825-2.554-9.653-3.827-14.48c-0.237-0.899-0.234-0.902,0.563-1.176c0.713-0.245,1.426-0.493,2.142-0.726
	c0.416-0.136,0.506-0.085,0.642,0.378c0.441,1.503,0.87,3.011,1.307,4.516c0.913,3.147,1.828,6.292,2.74,9.439
	C31.039,74.57,31.102,74.848,31.197,75.217z"/>
<path style="fill:#D5D5D5;" d="M174.689,61.134c-0.056,0.238-0.107,0.482-0.171,0.722c-0.805,3.032-1.612,6.063-2.418,9.095
	c-0.477,1.792-0.953,3.583-1.43,5.374c-0.046,0.172-0.088,0.345-0.147,0.511c-0.056,0.157-0.179,0.211-0.313,0.141
	c-0.999-0.52-1.998-1.039-2.99-1.575c-0.305-0.164-0.338-0.297-0.223-0.713c0.161-0.584,0.339-1.162,0.507-1.743
	c1.178-4.07,2.355-8.14,3.534-12.21c0.265-0.913,0.267-0.912,1.14-0.625c0.747,0.246,1.493,0.491,2.241,0.735
	C174.553,60.892,174.642,60.983,174.689,61.134z"/>
<path style="fill:#616160;" d="M75.617,99.907c-0.115,0.402-0.425,0.632-0.681,0.896c-0.952,0.981-1.555,2.188-1.975,3.534
	c-0.447,1.436-0.668,2.899-0.661,4.424c0.007,1.433,0.508,2.65,1.177,3.809c0.792,1.372,1.98,2.234,3.238,3.008
	c1.715,1.056,3.537,1.796,5.453,2.224c1.073,0.24,2.136,0.601,3.253,0.543c0.079-0.004,0.203,0.059,0.236,0.131
	c0.092,0.198-0.08,0.237-0.192,0.279c-0.398,0.15-0.8,0.29-1.201,0.43c-0.71,0.247-1.423,0.488-2.131,0.742
	c-0.113,0.041-0.241,0.096-0.279,0.256c0.221,0.31,0.571,0.335,0.873,0.422c1.281,0.37,2.576,0.627,3.901,0.79
	c1.037,0.128,2.068,0.119,3.101,0.189c-0.579,0.352-1.231,0.506-1.859,0.574c-1.384,0.149-2.764,0.336-4.176,0.134
	c-1.258-0.18-2.511-0.346-3.733-0.726c-1.832-0.57-3.523-1.472-5.073-2.695c-0.129-0.102-0.277-0.199-0.293-0.451
	c0.864,0.136,1.717,0.295,2.573,0.418c1.398,0.201,2.791,0.115,4.187,0.085c0.049-0.001,0.127-0.05,0.139-0.093
	c0.037-0.141-0.078-0.205-0.163-0.212c-0.877-0.077-1.735-0.27-2.584-0.51c-1.944-0.549-3.747-1.429-5.311-2.845
	c-0.631-0.571-1.201-1.21-1.677-1.948c-0.177-0.275-0.277-0.56-0.262-0.901c0.05-1.148,0.008-2.297,0.165-3.444
	c0.136-0.992,0.163-2.002,0.251-3.003c0.056-0.643,0.127-1.285,0.207-1.925c0.022-0.174,0.078-0.351,0.153-0.507
	C73.042,101.937,74.116,100.68,75.617,99.907z"/>
<path style="fill:#D5D5D5;" d="M32.572,73.066c-0.286-0.006-0.345-0.243-0.444-0.416c-0.864-1.492-1.522-3.097-2.022-4.773
	c-0.549-1.842-1.038-3.707-1.551-5.563c-0.218-0.79-0.432-1.582-0.646-2.375c-0.109-0.402-0.069-0.495,0.299-0.604
	c1.067-0.315,2.135-0.625,3.206-0.926c0.425-0.12,0.474-0.087,0.625,0.398c0.646,2.072,1.288,4.146,1.926,6.222
	c0.178,0.578,0.482,1.165,0.469,1.741c-0.013,0.575-0.345,1.143-0.545,1.711c-0.472,1.341-0.852,2.715-1.193,4.103
	C32.657,72.749,32.612,72.912,32.572,73.066z"/>
<path style="fill:#D5D5D3;" d="M166.016,72.485c-0.131-0.227-0.21-0.339-0.265-0.463c-0.62-1.391-1.3-2.744-2.098-4.019
	c-0.224-0.358-0.266-0.67-0.131-1.098c0.836-2.65,1.641-5.313,2.457-7.971c0.042-0.136,0.096-0.267,0.151-0.398
	c0.063-0.153,0.183-0.196,0.32-0.162c0.317,0.079,0.633,0.166,0.948,0.255c0.851,0.241,1.702,0.48,2.551,0.729
	c0.249,0.073,0.324,0.22,0.248,0.476c-0.82,2.733-1.409,5.545-2.301,8.253C167.404,69.575,166.843,71.029,166.016,72.485z"/>
<path style="fill:#61615F;" d="M78.412,140.766c-0.109,0.103-0.122,0.221-0.097,0.379c0.146,0.925,0.459,1.794,0.745,2.668
	c0.631,1.928,1.44,3.77,2.314,5.575c0.674,1.391,1.477,2.695,2.349,3.948c0.357,0.512,0.71,1.024,1.127,1.479
	c0.059,0.064,0.073,0.177,0.174,0.438c-1.466-1.153-2.667-2.404-4.138-3.626c0.424,1.236,0.751,2.276,1.136,3.29
	c0.653,1.719,1.309,3.438,2.03,5.124c0.47,1.101,1.053,2.143,1.594,3.206c0.082,0.161,0.15,0.315,0.145,0.502
	c-0.474-0.352-0.741-0.905-1.064-1.392c-2.107-3.175-3.883-6.562-5.346-10.157c-1.689-4.152-2.94-8.458-3.838-12.896
	c-0.028-0.139-0.06-0.282-0.059-0.423c0.001-0.114,0.082-0.181,0.193-0.172c0.031,0.003,0.064,0.019,0.09,0.038
	C76.648,139.418,77.53,140.092,78.412,140.766z"/>
<path style="fill:#818080;" d="M116.893,119.842c0.017-0.386,0.263-0.652,0.425-0.956c1.051-1.971,1.787-4.072,2.19-6.316
	c0.184-1.025,0.328-2.054,0.326-3.102c-0.001-0.43,0-0.86,0-1.292c0.243-0.002,0.289,0.19,0.338,0.349
	c0.188,0.613,0.389,1.222,0.457,1.871c0.011,0.106,0.038,0.212,0.144,0.239c0.14,0.036,0.162-0.102,0.176-0.195
	c0.124-0.815,0.284-1.628,0.349-2.449c0.165-2.084,0.224-4.171-0.3-6.215c-0.132-0.517-0.323-1.016-0.491-1.522
	c-0.229-0.69-0.698-1.094-1.295-1.373c-1.264-0.591-2.576-1.007-3.92-1.287c-2.753-0.574-5.533-0.877-8.336-0.927
	c-1.951-0.034-3.901-0.102-6.01,0.014c0.98-0.495,1.894-0.474,2.771-0.591c2.85-0.379,5.716-0.405,8.577-0.222
	c2.831,0.182,5.615,0.701,8.334,1.631c0.471,0.161,0.697,0.427,0.828,0.923c0.468,1.765,0.828,3.548,0.931,5.391
	c0.065,1.15,0.09,2.292,0.011,3.446c-0.328,4.841-2.063,8.942-5.202,12.323c-0.091,0.098-0.208,0.167-0.314,0.25L116.893,119.842z"
	/>
<path style="fill:#494948;" d="M51.55,88.937c0.628,0.443,1.277,0.854,1.879,1.336c1.134,0.909,2.356,1.648,3.573,2.405
	c1.793,1.113,3.685,1.953,5.63,2.663c1.172,0.428,2.382,0.683,3.595,0.904c0.541,0.099,1.069,0.042,1.566-0.377
	c1.037-0.875,2.19-1.542,3.419-2.041c0.233-0.094,0.261-0.293,0.087-0.507c-0.109-0.134-0.211-0.289-0.346-0.38
	c-0.727-0.491-1.241-1.259-1.946-1.786c-0.394-0.294-0.764-0.674-0.992-1.17c0.316,0.018,0.521,0.278,0.769,0.44
	c2.33,1.522,4.764,2.779,7.385,3.562c0.15,0.045,0.29,0.132,0.523,0.24c-0.898,0.18-1.703,0.353-2.511,0.499
	c-1.031,0.185-2.014,0.546-2.971,0.99c-1.038,0.482-1.932,1.197-2.57,2.236c-0.224,0.364-0.431,0.394-0.805,0.332
	c-2.481-0.412-4.882-1.128-7.202-2.184c-2.388-1.088-4.593-2.507-6.595-4.323c-0.732-0.664-1.394-1.399-2.061-2.135
	C51.793,89.438,51.599,89.241,51.55,88.937z"/>
<path style="fill:#9B9A9A;" d="M85.602,62.756c0.063,1.628-0.431,3.076-1.132,4.473c-0.601,1.199-1.304,2.312-2.227,3.223
	c-0.917,0.904-1.877,1.76-3.097,2.141c-0.347,0.109-0.691,0.231-0.985-0.131c0.165-1.176,0.495-2.307,0.777-3.451
	c0.437-1.771,0.946-3.516,1.507-5.244c0.124-0.383,0.3-0.577,0.688-0.615C82.622,63.006,84.102,62.742,85.602,62.756z"/>
<path style="fill:#61615F;" d="M93.823,115.536c0.267-0.537,0.208-1.123,0.177-1.692c-0.044-0.824-0.508-1.308-1.258-1.353
	c-0.697-0.042-1.352,0.166-1.973,0.491c-0.676,0.354-1.336,0.746-2.01,1.106c-0.946,0.506-1.939,0.736-3,0.797
	c-2.142,0.123-3.906-0.879-5.62-2.097c-0.135-0.096-0.244-0.238-0.357-0.367c-0.241-0.275-0.027-0.338,0.161-0.416
	c0.026-0.011,0.04-0.055,0.086-0.123c-0.748-0.916-1.64-1.724-2.085-2.914c0.475-0.204,0.475-0.204,1.262-0.036
	c0.101,0.022,0.191,0.007,0.237-0.105c0.048-0.117-0.009-0.219-0.08-0.289c-0.718-0.709-1.508-1.241-2.514-1.247
	c-0.423-0.002-0.845-0.025-1.268-0.038c0.866-0.564,1.84-0.669,2.807-0.776c0.513-0.057,0.94,0.162,1.306,0.588
	c0.454,0.529,0.819,1.119,1.124,1.757c0.289,0.605,0.549,1.227,0.842,1.829c0.184,0.379,0.408,0.734,0.611,1.102
	c0.111,0.201,0.42,0.339,0.275,0.62c-0.096,0.186-0.354,0.114-0.544,0.122c-0.227,0.009-0.454,0.002-0.682,0.002
	c-0.038,0.266,0.149,0.305,0.272,0.372c1.238,0.679,2.534,1.104,3.931,1.12c1.527,0.018,2.865-0.569,4.086-1.531
	c1.167-0.919,2.319-1.859,3.486-2.779c0.477-0.376,0.965-0.738,1.512-0.984c0.397-0.179,0.566-0.069,0.569,0.376
	c0.003,0.36,0.003,0.722-0.026,1.08c-0.179,2.222-0.315,4.446-0.39,6.675c-0.001,0.036-0.012,0.071-0.011,0.107
	c0,0.087-0.043,0.139-0.125,0.113c-0.054-0.018-0.123-0.067-0.141-0.121c-0.118-0.335-0.221-0.676-0.333-1.013
	C94.091,115.736,93.985,115.606,93.823,115.536z"/>
<path style="fill:#5F5F5F;" d="M171.356,79.272c0.249-0.066,0.433,0.113,0.627,0.228c2.441,1.44,4.878,2.888,7.317,4.331
	c0.344,0.204,0.693,0.397,1.044,0.586c0.132,0.071,0.257,0.021,0.339-0.109c0.075-0.117,0.135-0.245,0.197-0.371
	c2.183-4.474,4.117-9.07,5.517-13.924c0.316-1.096,0.586-2.208,0.879-3.312c0.108-0.406,0.267-0.543,0.53-0.463
	c0.515,0.155,0.693,0.369,0.599,0.796c-0.341,1.538-0.764,3.049-1.231,4.546c-1.128,3.614-2.546,7.089-4.129,10.483
	c-0.507,1.088-1.015,2.176-1.528,3.261c-0.105,0.223-0.231,0.436-0.365,0.639c-0.08,0.121-0.208,0.176-0.346,0.115
	c-0.15-0.067-0.3-0.14-0.442-0.227c-2.08-1.27-4.158-2.543-6.237-3.816c-0.854-0.523-1.709-1.046-2.561-1.571
	c-0.52-0.32-0.52-0.323-0.319-1.016C171.265,79.384,171.317,79.332,171.356,79.272z"/>
<path style="fill:#605F5F;" d="M26.614,79.239c0.19,0.164,0.253,0.371,0.305,0.577c0.048,0.188,0.005,0.353-0.158,0.462
	c-0.195,0.131-0.382,0.277-0.581,0.398c-2.168,1.319-4.337,2.634-6.506,3.95c-0.742,0.45-1.48,0.909-2.227,1.349
	c-0.325,0.192-0.43,0.147-0.643-0.197c-0.074-0.119-0.143-0.241-0.205-0.368c-2.318-4.719-4.431-9.542-5.949-14.657
	c-0.355-1.195-0.656-2.41-0.966-3.621c-0.144-0.562-0.127-0.569,0.365-0.781c0.12-0.052,0.245-0.116,0.37-0.124
	c0.08-0.005,0.205,0.059,0.239,0.133c0.087,0.19,0.148,0.398,0.197,0.605c0.985,4.119,2.391,8.061,4.006,11.923
	c0.726,1.735,1.562,3.401,2.357,5.094c0.221,0.471,0.359,0.517,0.78,0.272c1.643-0.954,3.28-1.92,4.917-2.886
	c1.12-0.661,2.235-1.332,3.355-1.993C26.381,79.31,26.509,79.28,26.614,79.239z"/>
<path style="fill:#4A4948;" d="M76.793,79.597c0.02,0.334,0.05,0.599,0.453,0.687c1.331,0.292,2.651,0.639,3.996,0.855
	c0.543,0.087,1.081,0.209,1.623,0.312c0.223,0.042,0.446,0.098,0.67,0.106c0.359,0.013,0.708,0.03,1.056,0.162
	c0.207,0.079,0.45,0.052,0.677,0.057c0.519,0.011,1.036-0.025,1.543,0.175c0.205,0.081,0.451,0.041,0.678,0.042
	c0.879,0.004,1.759-0.025,2.637,0.008c1.467,0.056,2.916-0.14,4.34-0.469c1.241-0.287,2.422-0.821,3.523-1.534
	c0.22-0.142,0.396-0.369,0.586-0.565c0.427-0.441,0.85-0.888,1.274-1.333c-0.201,1.148-0.526,2.225-1.397,2.99
	c-0.621,0.546-1.334,0.888-2.09,1.117c-1.222,0.37-2.47,0.548-3.732,0.701c-1.691,0.206-3.377,0.181-5.064,0.138
	c-1.619-0.041-3.239-0.148-4.853-0.359c-0.707-0.093-1.42-0.123-2.13-0.232c-1.252-0.192-2.511-0.323-3.767-0.482
	c-0.254-0.032-0.428-0.191-0.366-0.394C76.651,80.934,76.48,80.214,76.793,79.597z"/>
<path style="fill:#61615F;" d="M95.78,157.019c0.637,0.114,1.264,0.289,1.922,0.233c0.714-0.061,0.947-0.331,1.007-1.137
	c0.104-1.413-0.295-2.696-0.833-3.929c-0.861-1.971-1.727-3.941-2.785-5.797c-0.064-0.113-0.063-0.272-0.092-0.409
	c0.252,0.113,0.405,0.356,0.586,0.559c1.328,1.485,2.636,2.992,3.985,4.452c0.48,0.52,0.68,1.081,0.693,1.814
	c0.04,2.089,0.047,4.176-0.016,6.264c-0.014,0.468-0.058,0.926-0.239,1.35c-0.078,0-0.16,0.029-0.202-0.004
	C98.432,159.331,97.077,158.217,95.78,157.019z"/>
<path style="fill:#FEFEFE;" d="M114.653,105.538c-0.188,0.133-0.374,0.271-0.565,0.4c-0.928,0.627-1.708,1.414-2.267,2.463
	c-0.196,0.368-0.439,0.712-0.696,1.033c-0.918,1.143-2.065,1.431-3.358,0.991c-1.066-0.362-1.979-1.03-2.782-1.838
	c0.01-0.219,0.132-0.175,0.212-0.162c1.163,0.183,2.172-0.234,3.101-0.968c0.053-0.042,0.105-0.085,0.154-0.132
	c1.517-1.492,3.343-1.972,5.311-1.986c0.282-0.002,0.565,0,0.847,0C114.624,105.405,114.638,105.471,114.653,105.538z"/>
<path style="fill:#FEFEFE;" d="M90.346,108.486c-0.882,0.997-1.891,1.744-3.117,2.04c-1.17,0.283-2.187-0.077-2.987-1.082
	c-0.256-0.322-0.509-0.659-0.703-1.028c-0.57-1.088-1.386-1.885-2.343-2.529c-0.166-0.112-0.326-0.232-0.486-0.354
	c-0.012-0.009,0.004-0.063,0.007-0.095c1.827-0.374,4.602,0.314,5.931,1.651c0.285,0.287,0.616,0.529,0.949,0.748
	C88.435,108.387,89.344,108.583,90.346,108.486z"/>
<path style="fill:#D4D3D3;" d="M162.647,57.397c-0.606,2.101-1.193,4.043-1.908,5.936c-0.096,0.255-0.191,0.284-0.347,0.111
	c-0.874-0.97-1.753-1.934-2.699-2.819c-0.171-0.16-0.212-0.357-0.146-0.58c0.302-1.027,0.612-2.051,0.913-3.078
	c0.074-0.252,0.227-0.334,0.447-0.292C160.122,56.908,161.338,57.144,162.647,57.397z"/>
<path style="fill:#7F7F7D;" d="M113.737,63.014c1.585-0.08,1.417-0.056,2.025,1.14c1.358,2.675,2.483,5.465,3.384,8.366
	c0.53,1.705,0.906,3.454,1.204,5.224c0.046,0.27,0.107,0.552-0.042,0.932c-0.606-1.864-1.111-3.679-1.795-5.42
	c-0.688-1.751-1.423-3.477-2.235-5.16C115.469,66.42,114.617,64.769,113.737,63.014z"/>
<path style="fill:#FEFEFE;" d="M97.123,33.128c0.226-0.157,0.195-0.439,0.263-0.671c0.13-0.443,0.25-0.889,0.376-1.338
	c0.26,0.083,0.262,0.322,0.309,0.502c0.91,3.493,1.812,6.988,2.713,10.484c0.071,0.275,0.118,0.558,0.189,0.897
	c-0.45,0.021-0.865,0.04-1.28,0.059c-0.057-0.128-0.134-0.249-0.169-0.384c-0.771-2.97-1.538-5.942-2.301-8.914
	C97.169,33.557,97.155,33.34,97.123,33.128z"/>
<path style="fill:#D2D2D2;" d="M35.434,57.412c0.777-0.165,1.505-0.323,2.235-0.472c0.479-0.098,0.959-0.191,1.441-0.267
	c0.307-0.049,0.395,0.025,0.513,0.346c0.4,1.089,0.401,1.09-0.356,1.952c-0.771,0.879-1.461,1.833-2.126,2.809
	c-0.136,0.2-0.296,0.187-0.367-0.027C36.303,60.341,35.823,58.931,35.434,57.412z"/>
<path style="fill:#FEFEFE;" d="M144.077,31.155c0.597-0.247,1.129-0.026,1.629,0.311c0.163,0.11,0.231,0.346,0.256,0.564
	c0.024,0.213,0.028,0.429,0.029,0.644c0.014,2.119,0.025,4.237,0.037,6.356c0,0.036-0.001,0.072,0,0.108
	c0.037,0.973-0.118,1.251-1.164,1.12c-0.162-0.02-0.322-0.045-0.423-0.215l0-0.001c0.135-0.115,0.092-0.311,0.167-0.453
	c-0.015-2.337-0.025-4.674-0.048-7.011C144.555,32.048,144.606,31.476,144.077,31.155z"/>
<path style="fill:#FCFCFC;" d="M136.019,39.004c0.24,0.364,0.262,0.81,0.353,1.223c0.406,1.851,0.787,3.709,1.174,5.565
	c0.08,0.382,0.075,0.384-0.359,0.565c-0.182-0.023-0.364-0.046-0.546-0.069c-0.122-0.096-0.293-0.063-0.404-0.188
	c-0.326-1.485-0.654-2.97-0.977-4.456c-0.173-0.795-0.341-1.592-0.504-2.39c-0.059-0.288,0.024-0.387,0.303-0.362
	C135.379,38.922,135.699,38.966,136.019,39.004z"/>
<radialGradient id="SVGID_1_" cx="267.7048" cy="-1439.899" r="1387.8052" gradientTransform="matrix(0.0489 9.194029e-04 -3.561075e-04 0.0232 84.9995 118.2332)" gradientUnits="userSpaceOnUse">
	<stop  offset="0.8344" style="stop-color:#FFFFFF"/>
	<stop  offset="0.9815" style="stop-color:#888888"/>
	<stop  offset="0.9816" style="stop-color:#8A8A8A"/>
	<stop  offset="0.9827" style="stop-color:#A9A9A9"/>
	<stop  offset="0.9839" style="stop-color:#C4C4C4"/>
	<stop  offset="0.9853" style="stop-color:#DADADA"/>
	<stop  offset="0.987" style="stop-color:#EBEBEB"/>
	<stop  offset="0.9891" style="stop-color:#F6F6F6"/>
	<stop  offset="0.992" style="stop-color:#FDFDFD"/>
	<stop  offset="1" style="stop-color:#FFFFFF"/>
</radialGradient>
<path style="fill:url(#SVGID_1_);" d="M81.501,60.917c0,0-0.01-0.53-0.011-0.769c-0.008-1.549,0.051-5.476,0.051-5.476l2.005,5.991
	l2.494-0.171l-0.051-12.032L83.596,48.6l-0.095,6.232l-2.073-5.967l-2.368,0.263l-0.075,12.015"/>
<path style="fill:#FBFBFB;" d="M125.266,40.715c0.012-0.106,0.032-0.213,0.036-0.32c0.006-0.158,0.051-0.298,0.205-0.307
	c0.226-0.014,0.455-0.005,0.681,0.017c0.253,0.024,0.411,0.173,0.458,0.467c0.199,1.239,0.413,2.476,0.606,3.716
	c0.055,0.353,0.031,0.358-0.422,0.547c-0.89-0.091-0.897-0.09-1.067-1.074C125.588,42.749,125.431,41.731,125.266,40.715z"/>
<path style="fill:#7F7E7E;" d="M156.138,56.376c-0.122,0.766-0.382,1.479-0.629,2.185c-0.127-0.025-0.201-0.017-0.248-0.053
	c-1.167-0.888-2.375-1.707-3.644-2.519C152.5,55.757,154.615,55.946,156.138,56.376z"/>
<path style="fill:#5F5E5C;" d="M87.904,139.542c0.246,0.045,0.403,0.237,0.529,0.443c0.757,1.24,1.823,2.13,2.848,3.059
	c0.394,0.357,0.875,0.579,1.432,0.594c0.512,0.013,1.021,0.153,1.532,0.236c-0.936,0.259-1.87,0.524-2.808,0.773
	c-0.266,0.071-0.409-0.147-0.544-0.356c-0.676-1.049-1.354-2.097-2.031-3.146C88.525,140.623,88.124,140.148,87.904,139.542z"/>
<path style="fill:#E6E6E6;" d="M28.034,79.572c-0.136-0.276-0.23-0.574-0.257-0.974c1.181-0.679,2.409-1.301,3.613-1.92
	c0.089,0.055,0.177,0.076,0.191,0.124c0.271,0.932,0.401,0.814-0.451,1.268c-0.816,0.435-1.633,0.869-2.456,1.287
	C28.477,79.458,28.294,79.643,28.034,79.572z"/>
<path style="fill:#C9CAC9;" d="M33.809,59.925c0.634,1.124,1.257,2.257,1.91,3.368c0.207,0.352,0.206,0.646-0.005,0.97
	c-0.185,0.284-0.262,0.648-0.515,0.873c-0.049,0-0.084,0.009-0.112-0.003c-0.024-0.01-0.05-0.041-0.058-0.069
	c-0.483-1.557-0.965-3.114-1.447-4.672C33.494,60.139,33.45,59.912,33.809,59.925z"/>
<radialGradient id="SVGID_2_" cx="289.2709" cy="-1391.0608" r="1492.3212" gradientTransform="matrix(0.0489 0 0 0.0232 85.5104 119.9934)" gradientUnits="userSpaceOnUse">
	<stop  offset="0.8344" style="stop-color:#FFFFFF"/>
	<stop  offset="0.9815" style="stop-color:#888888"/>
	<stop  offset="0.9816" style="stop-color:#8A8A8A"/>
	<stop  offset="0.9827" style="stop-color:#A9A9A9"/>
	<stop  offset="0.9839" style="stop-color:#C4C4C4"/>
	<stop  offset="0.9853" style="stop-color:#DADADA"/>
	<stop  offset="0.987" style="stop-color:#EBEBEB"/>
	<stop  offset="0.9891" style="stop-color:#F6F6F6"/>
	<stop  offset="0.992" style="stop-color:#FDFDFD"/>
	<stop  offset="1" style="stop-color:#FFFFFF"/>
</radialGradient>
<path style="fill:url(#SVGID_2_);" d="M124.317,60.604c0,0-1.944-0.34-2.716-0.47c-0.022-1.075-0.048-3.868-0.048-3.868l2.213,0.325
	l-0.013-1.325l-0.244-0.044c-0.545-0.094-1.984-0.343-1.984-0.343l0.005-3.666l2.791,0.352l-0.013-1.499l-5.161-0.764L119.1,61.357
	c0,0,0.156,0.015,0.539,0.074c1.256,0.193,4.693,0.754,4.693,0.754L124.317,60.604z"/>
<path style="fill:#E0E1E1;" d="M167.536,77.121c0.945,0.496,1.696,0.892,2.449,1.285c0.243,0.127,0.319,0.331,0.244,0.609
	c-0.054,0.199-0.116,0.396-0.198,0.673c-0.691-0.359-1.326-0.684-1.955-1.02c-0.15-0.08-0.243-0.232-0.285-0.413
	C167.72,77.954,167.654,77.651,167.536,77.121z"/>
<path style="fill:#BEC2C2;" d="M83.425,37.22c-1.528-0.065-3.035,0.258-4.561,0.283c-0.737,0.012-1.477,0.205-2.225,0.186
	c-0.225-0.006-0.462,0.028-0.609-0.23c0.181-0.017,0.363-0.034,0.544-0.051c0.33-0.143,0.692,0.026,1.021-0.128
	c1.852-0.122,3.705-0.244,5.557-0.366C83.349,36.901,83.46,36.98,83.425,37.22z"/>
<path style="fill:#ACABAB;" d="M156.747,59.647c-0.138,0.04-0.388-0.168-0.387-0.295c0.001-0.138,0.006-0.289,0.054-0.413
	c0.292-0.753,0.597-1.5,0.896-2.25c0.059-0.147,0.158-0.242,0.291-0.161c0.056,0.035,0.096,0.195,0.075,0.277
	c-0.135,0.513-0.289,1.02-0.438,1.529c-0.109,0.373-0.211,0.749-0.332,1.117C156.877,59.539,156.786,59.601,156.747,59.647z"/>
<path style="fill:#999999;" d="M163.218,59.328c-0.029-0.059-0.097-0.135-0.082-0.176c0.176-0.5,0.359-1,0.694-1.403
	c0.027-0.032,0.125-0.024,0.171,0.003c0.049,0.029,0.117,0.119,0.106,0.157c-0.164,0.546-0.425,1.03-0.796,1.437
	C163.298,59.36,163.25,59.335,163.218,59.328z"/>
<path style="fill:#9F9F9F;" d="M34.152,57.744c0.062,0.044,0.169,0.078,0.209,0.155c0.193,0.37,0.372,0.749,0.548,1.129
	c0.046,0.099,0.024,0.214-0.074,0.262c-0.047,0.023-0.146,0.007-0.175-0.032c-0.279-0.391-0.519-0.81-0.677-1.279
	C33.939,57.846,34.037,57.799,34.152,57.744z"/>
<path style="fill:#81817F;" d="M109.039,131.325C109.039,131.325,109.039,131.325,109.039,131.325
	C109.039,131.325,109.039,131.325,109.039,131.325c-0.048-0.026-0.098-0.042-0.151-0.048c-0.072-0.055-0.149-0.1-0.231-0.134
	c-2.993-1.377-5.99-2.742-8.975-4.139c-0.606-0.284-1.171-0.392-1.76-0.012c-2.359,0.918-4.697,1.903-7.142,2.533
	c-4.337,1.118-8.632,1.165-12.885-0.468c-0.345-0.133-0.802-0.527-1.058-0.068c-0.212,0.381,0.201,0.778,0.43,1.12
	c0.058,0.087,0.126,0.166,0.199,0.238c1.128,1.098,2.308,2.117,3.692,2.792c1.357,0.662,2.752,1.206,4.151,1.407
	c-0.722,0.123-1.535,0.231-2.345,0.105c-0.804-0.125-1.616-0.199-2.407-0.429c-0.272-0.079-0.619-0.196-0.786,0.168
	c-0.136,0.297,0.103,0.544,0.274,0.75c0.639,0.77,1.31,1.499,2.079,2.117c0.716,0.576,1.452,1.098,2.479,1.397
	c-1.157-0.234-2.16-0.371-3.129-0.697c-0.246-0.083-0.534-0.194-0.74,0.046c-0.248,0.289-0.072,0.607,0.053,0.898
	c0.083,0.195,0.194,0.374,0.297,0.558c0.869,1.563,1.654,3.183,2.594,4.699c0.06,0.096,0.347,0.26,0.054,0.427
	c-0.068,0.039-0.187-0.035-0.28-0.069c-0.983-0.742-1.963-1.488-2.95-2.224c-0.692-0.516-1.392-1.019-2.089-1.527
	c-0.356,0.458-0.37,0.493-0.13,1.348c0.798,2.829,1.908,5.508,3.237,8.075c0.769,1.486,1.63,2.902,2.638,4.097
	c-0.767-0.831-1.66-1.601-2.551-2.372c-0.192-0.166-0.42-0.452-0.679-0.223c-0.246,0.218-0.081,0.54,0.008,0.799
	c1.336,3.902,2.665,7.807,4.855,11.259c0.483,0.815,1.07,1.533,1.69,2.221c0.113,0.125,0.222,0.269,0.445,0.183
	c0.205-1.579,0.413-3.176,0.618-4.773c0.209-1.634,0.415-3.268,0.622-4.903c0.012-0.095,0.048-0.145,0.114-0.114
	c0.055,0.025,0.132,0.067,0.143,0.118c0.144,0.622,0.187,1.275,0.455,1.861c1.733,3.96,4.067,7.395,7.244,10.081
	c0.37,0.313,0.823,0.858,1.28,0.504c0.426-0.33,0.058-0.945-0.067-1.393c-0.926-3.325-1.707-6.7-2.785-9.974
	c-0.075-0.229-0.289-0.585,0.223-0.544l0.008,0.006c0.184,0.15,0.408,0.216,0.611,0.314c1.553,0.744,2.588-0.015,2.572-1.853
	c-0.007-0.843-0.171-1.648-0.477-2.41c-0.992-2.465-1.974-4.938-3.488-7.089c-0.182-0.344-0.429-0.532-0.806-0.413
	c-0.156,0.049-0.314,0.092-0.471,0.137c-0.911,0.263-1.82,0.531-2.733,0.785c-0.399,0.111-0.402,0.096-0.601-0.31
	c-0.031-0.063-0.059-0.128-0.088-0.192c-0.989-2.263-1.978-4.527-2.966-6.791c-0.054-0.124-0.156-0.241-0.075-0.411
	c0.304,0.161,0.38,0.56,0.644,0.756c0.578,0.716,1.061,1.519,1.656,2.219c1.269,1.492,2.71,2.53,4.685,2.114
	c0.511-0.137,0.927,0.005,1.308,0.427c0.291,0.323,0.656,0.564,0.989,0.842c0.82,0.233,1.24,0.004,1.594-0.869
	c1.153-2.844-0.26-6.03-2.988-6.734c-0.938-0.242-1.883-0.452-2.815-0.719c0.913,0.208,1.866,0.214,2.826,0.161
	c0.289-0.016,0.703,0,0.759-0.338c0.072-0.434-0.368-0.511-0.656-0.647c-0.179-0.085-0.369-0.141-0.553-0.215
	c-1.685-0.677-3.369-1.357-4.839-2.478c1.854-0.07,3.775,0.364,5.51-0.91c-1.827-0.502-3.756-0.056-5.515-0.813
	c2.448,0.109,4.824-0.326,7.095-1.41c0.692-0.33,1.357-0.704,1.765-1.457c0.23-0.063,0.452-0.017,0.674,0.052
	c0.564,0.174,1.127,0.35,1.692,0.52c2.26,0.677,4.521,1.352,6.781,2.028c0.124,0.102,0.284,0.076,0.416,0.148
	c0.119,0.026,0.238,0.053,0.357,0.079c0.575,0.336,1.209,0.428,1.838,0.556C110.081,131.646,109.556,131.495,109.039,131.325z"/>
<path style="fill:#726F6D;" d="M33.809,59.925c-0.255,0.049-0.174,0.298-0.228,0.467c-0.302-0.539-0.465-1.132-0.558-1.753
	l-0.011,0.011C33.491,58.913,33.625,59.439,33.809,59.925z"/>
<path style="fill:#A2A5A5;" d="M40.86,57.265c-0.033,0.033-0.073,0.105-0.124,0.115c-0.052,0.011-0.131-0.021-0.17-0.064
	c-0.14-0.159-0.17-0.372-0.175-0.581c-0.002-0.094,0.029-0.239,0.089-0.275c0.155-0.095,0.194,0.088,0.253,0.19
	C40.835,56.829,40.909,57.021,40.86,57.265z"/>
<g>
	<path style="fill:#D5D5D3;" d="M164.963,58.656c-0.212,0.378-2.1,3.747-2.597,4.631c-0.24,0.427-0.48,0.855-0.717,1.285
		c-0.069,0.125-0.102,0.252-0.03,0.399c0.149,0.304,0.706,0.948,1.035,1.18c0.041-0.052,0.102-0.097,0.12-0.158
		C163.39,63.985,164.852,59.143,164.963,58.656z"/>
</g>
<radialGradient id="SVGID_3_" cx="299.3533" cy="-1444.248" r="1384.4448" gradientTransform="matrix(0.0489 5.774020e-04 -2.236421e-04 0.0232 85.1882 118.175)" gradientUnits="userSpaceOnUse">
	<stop  offset="0.8344" style="stop-color:#FFFFFF"/>
	<stop  offset="0.9815" style="stop-color:#888888"/>
	<stop  offset="0.9816" style="stop-color:#8A8A8A"/>
	<stop  offset="0.9827" style="stop-color:#A9A9A9"/>
	<stop  offset="0.9839" style="stop-color:#C4C4C4"/>
	<stop  offset="0.9853" style="stop-color:#DADADA"/>
	<stop  offset="0.987" style="stop-color:#EBEBEB"/>
	<stop  offset="0.9891" style="stop-color:#F6F6F6"/>
	<stop  offset="0.992" style="stop-color:#FDFDFD"/>
	<stop  offset="1" style="stop-color:#FFFFFF"/>
</radialGradient>
<polygon style="fill:url(#SVGID_3_);" points="92.625,58.475 89.929,58.588 89.88,54.716 92.062,54.665 92.041,53.222 
	89.865,53.252 89.856,49.638 92.657,49.537 92.634,48.055 87.392,48.322 87.392,60.327 92.673,60.057 "/>
<radialGradient id="SVGID_4_" cx="294.1171" cy="-1427.0256" r="1425.5161" gradientTransform="matrix(0.0489 5.994455e-04 -2.321801e-04 0.0232 85.18 118.7036)" gradientUnits="userSpaceOnUse">
	<stop  offset="0.8344" style="stop-color:#FFFFFF"/>
	<stop  offset="0.9815" style="stop-color:#888888"/>
	<stop  offset="0.9816" style="stop-color:#8A8A8A"/>
	<stop  offset="0.9827" style="stop-color:#A9A9A9"/>
	<stop  offset="0.9839" style="stop-color:#C4C4C4"/>
	<stop  offset="0.9853" style="stop-color:#DADADA"/>
	<stop  offset="0.987" style="stop-color:#EBEBEB"/>
	<stop  offset="0.9891" style="stop-color:#F6F6F6"/>
	<stop  offset="0.992" style="stop-color:#FDFDFD"/>
	<stop  offset="1" style="stop-color:#FFFFFF"/>
</radialGradient>
<polygon style="fill:url(#SVGID_4_);" points="77.697,59.847 75.151,60.139 75.102,56.295 77.257,55.974 77.185,54.674 
	75.005,54.952 74.989,51.295 77.844,50.818 77.798,49.305 72.667,50.087 72.824,61.862 77.742,61.291 "/>
<path style="fill:#61615F;" d="M73.873,98.208c-0.036,0.047-0.065,0.106-0.109,0.138c-0.063,0.045-0.114,0.015-0.126-0.065
	c-0.001-0.007,0.048-0.029,0.076-0.035c0.056-0.012,0.114-0.017,0.171-0.025C73.884,98.222,73.873,98.208,73.873,98.208z"/>
<path style="fill:#818181;" d="M50.395,48.434c0.116-0.174,0.266-0.202,0.44-0.126C50.718,48.481,50.568,48.507,50.395,48.434z"/>
<path style="fill:#616160;" d="M106.12,136.062c0.076,0.032,0.151,0.065,0.227,0.097c-0.026,0.01-0.062,0.037-0.076,0.027
	c-0.051-0.039-0.095-0.09-0.142-0.136C106.13,136.051,106.12,136.062,106.12,136.062z"/>
<polygon style="fill:#818080;" points="116.883,119.831 116.844,119.874 116.893,119.842 "/>
<path style="fill:#4A4949;" d="M41.834,99.066c-0.073-0.064-0.147-0.128-0.22-0.191C41.687,98.939,41.76,99.003,41.834,99.066z"/>
<radialGradient id="SVGID_5_" cx="261.6596" cy="-1428.2478" r="1426.5613" gradientTransform="matrix(0.0489 0 0 0.0232 85.5104 118.8442)" gradientUnits="userSpaceOnUse">
	<stop  offset="0.8344" style="stop-color:#FFFFFF"/>
	<stop  offset="0.9815" style="stop-color:#888888"/>
	<stop  offset="0.9816" style="stop-color:#8A8A8A"/>
	<stop  offset="0.9827" style="stop-color:#A9A9A9"/>
	<stop  offset="0.9839" style="stop-color:#C4C4C4"/>
	<stop  offset="0.9853" style="stop-color:#DADADA"/>
	<stop  offset="0.987" style="stop-color:#EBEBEB"/>
	<stop  offset="0.9891" style="stop-color:#F6F6F6"/>
	<stop  offset="0.992" style="stop-color:#FDFDFD"/>
	<stop  offset="1" style="stop-color:#FFFFFF"/>
</radialGradient>
<path style="fill:url(#SVGID_5_);" d="M127.64,62.873c1.358,0.287,3.304,0.524,3.304,0.524l1.44-1.425l-0.053-3.604l-2.127-1.923
	c0,0-1.763-0.404-2.271-0.519c-0.009-0.533,0.064-2.887,0.088-3.529c0.63,0.079,2.231,0.31,2.231,0.31s0.018,1.257,0.008,1.571
	c0.447,0.108,1.675,0.33,2.121,0.393c0-0.409,0.022-1.612,0.022-1.612l-1.705-1.71l-3.447-0.635l-1.628,1.302l-0.06,3.567
	l1.652,1.65l2.904,0.649c0,0-0.101,2.611-0.172,3.756c-0.492-0.074-1.893-0.386-2.118-0.399l-0.004-0.003
	c0,0,0.038-1.217,0.038-1.217l-2.256-0.347l-0.043,1.196"/>
<path style="fill:#726F6D;" d="M33.023,58.64c-0.025-0.019-0.074-0.047-0.072-0.054c0.02-0.063,0.045-0.039,0.061,0.065
	C33.012,58.652,33.023,58.64,33.023,58.64z"/>
<path style="fill:#020101;" d="M124.103,33.979c-1.133-0.082-2.267-0.163-3.4-0.245c-0.194-0.014-0.287-0.138-0.286-0.347
	c0-0.107,0.005-0.216,0.021-0.322c0.323-2.195,0.65-4.39,0.97-6.586c0.046-0.313,0.254-0.596,0.144-0.937
	c0.221-1.299,0.313-2.626,0.735-3.907c0.131,0.816,0.269,1.631,0.393,2.449c0.472,3.119,0.94,6.239,1.406,9.36
	C124.111,33.618,124.098,33.8,124.103,33.979z"/>
<path d="M90.303,102.749c-0.029-0.028-0.059-0.056-0.088-0.084c0.017,0.006,0.042,0.006,0.05,0.019
	c0.014,0.022,0.017,0.052,0.025,0.079C90.29,102.763,90.303,102.749,90.303,102.749z"/>
<radialGradient id="SVGID_6_" cx="315.7544" cy="-1357.4946" r="1592.9229" gradientTransform="matrix(0.0489 5.994682e-04 -2.321892e-04 0.0232 85.1962 120.8395)" gradientUnits="userSpaceOnUse">
	<stop  offset="0.8344" style="stop-color:#FFFFFF"/>
	<stop  offset="0.9815" style="stop-color:#888888"/>
	<stop  offset="0.9816" style="stop-color:#8A8A8A"/>
	<stop  offset="0.9827" style="stop-color:#A9A9A9"/>
	<stop  offset="0.9839" style="stop-color:#C4C4C4"/>
	<stop  offset="0.9853" style="stop-color:#DADADA"/>
	<stop  offset="0.987" style="stop-color:#EBEBEB"/>
	<stop  offset="0.9891" style="stop-color:#F6F6F6"/>
	<stop  offset="0.992" style="stop-color:#FDFDFD"/>
	<stop  offset="1" style="stop-color:#FFFFFF"/>
</radialGradient>
<path style="fill:url(#SVGID_6_);" d="M71.122,57.439l-1.729-0.82l1.792-1.516l0-3.374l-1.705-1.045l-4.795,1.026l0,12.013
	l2.365-0.448l0-5.46l1.732-0.243l0.045,5.281l2.385-0.543L71.122,57.439z M67.133,56.196l-0.063-3.471l1.715-0.351l0.042,3.509
	L67.133,56.196z"/>
<radialGradient id="SVGID_7_" cx="267.4908" cy="-1375.0293" r="1536.6495" gradientTransform="matrix(0.0489 0 0 0.0232 85.5104 120.4888)" gradientUnits="userSpaceOnUse">
	<stop  offset="0.8344" style="stop-color:#FFFFFF"/>
	<stop  offset="0.9815" style="stop-color:#888888"/>
	<stop  offset="0.9816" style="stop-color:#8A8A8A"/>
	<stop  offset="0.9827" style="stop-color:#A9A9A9"/>
	<stop  offset="0.9839" style="stop-color:#C4C4C4"/>
	<stop  offset="0.9853" style="stop-color:#DADADA"/>
	<stop  offset="0.987" style="stop-color:#EBEBEB"/>
	<stop  offset="0.9891" style="stop-color:#F6F6F6"/>
	<stop  offset="0.992" style="stop-color:#FDFDFD"/>
	<stop  offset="1" style="stop-color:#FFFFFF"/>
</radialGradient>
<path style="fill:url(#SVGID_7_);" d="M117.668,50.403l-1.594-1.454c0,0-5.219-0.486-5.219-0.486c0,0-0.048,11.967-0.048,11.967
	l5.19,0.519l1.607-1.15L117.668,50.403z M115.349,59.281l-2.196-0.223l0.093-8.878l2.192,0.246L115.349,59.281z"/>
<radialGradient id="SVGID_8_" cx="289.4301" cy="-1390.9047" r="1495.0803" gradientTransform="matrix(0.0489 0 0 0.0232 85.5104 119.9982)" gradientUnits="userSpaceOnUse">
	<stop  offset="0.8344" style="stop-color:#FFFFFF"/>
	<stop  offset="0.9815" style="stop-color:#888888"/>
	<stop  offset="0.9816" style="stop-color:#8A8A8A"/>
	<stop  offset="0.9827" style="stop-color:#A9A9A9"/>
	<stop  offset="0.9839" style="stop-color:#C4C4C4"/>
	<stop  offset="0.9853" style="stop-color:#DADADA"/>
	<stop  offset="0.987" style="stop-color:#EBEBEB"/>
	<stop  offset="0.9891" style="stop-color:#F6F6F6"/>
	<stop  offset="0.992" style="stop-color:#FDFDFD"/>
	<stop  offset="1" style="stop-color:#FFFFFF"/>
</radialGradient>
<path style="fill:url(#SVGID_8_);" d="M107.802,48.129l-3.691-0.114l-2.048,11.901l2.067,0.106l0.286-1.856l2.742,0.113l0.394,1.891
	l1.956,0.143L107.802,48.129z M104.698,56.431l0.874-6.784l0.59,0.024l0.784,6.825L104.698,56.431z"/>
<radialGradient id="SVGID_9_" cx="259.0893" cy="-1386.4001" r="1518.4562" gradientTransform="matrix(0.0489 0 0 0.0232 85.5104 120.1374)" gradientUnits="userSpaceOnUse">
	<stop  offset="0.8344" style="stop-color:#FFFFFF"/>
	<stop  offset="0.9815" style="stop-color:#888888"/>
	<stop  offset="0.9816" style="stop-color:#8A8A8A"/>
	<stop  offset="0.9827" style="stop-color:#A9A9A9"/>
	<stop  offset="0.9839" style="stop-color:#C4C4C4"/>
	<stop  offset="0.9853" style="stop-color:#DADADA"/>
	<stop  offset="0.987" style="stop-color:#EBEBEB"/>
	<stop  offset="0.9891" style="stop-color:#F6F6F6"/>
	<stop  offset="0.992" style="stop-color:#FDFDFD"/>
	<stop  offset="1" style="stop-color:#FFFFFF"/>
</radialGradient>
<path style="fill:url(#SVGID_9_);" d="M100.774,53.866l-3.192-0.045l0.014,1.469l0.88,0.022l-0.014,3.065l-2.194,0.005l0.1-9.002
	l2.055,0.015l0.018,1.69l2.324,0.091l0.036-1.906l-1.664-1.343l-3.516-0.008l-1.79,1.416l-0.01,9.178c0,0,0.122,0.106,0.168,0.153
	c0,0,1.44,1.299,1.44,1.299l3.64-0.034l1.733-1.413L100.774,53.866z"/>
</svg>
