<svg version="1.1" id="Layer_1" xmlns="http://www.w3.org/2000/svg" x="0" y="0" viewBox="0 0 200 200" xml:space="preserve"><style>.tex_st0{fill:#f7f7f7}.tex_st1{fill:#b4b4b4}.tex_st2{fill:#828181}.tex_st3{fill:#020202}.tex_st4{fill:#999}.tex_st5{fill:#7a7979}.tex_st6{fill:#80807e}.tex_st7{fill:#616160}.tex_st8{fill:#ebebeb}.tex_st9{fill:#606060}.tex_st10{fill:#5f5f5e}.tex_st11{fill:#5c5c5a}.tex_st12{fill:#484747}.tex_st13{fill:#d0d1d1}.tex_st14{fill:#e7e7e7}</style><path class="tex_st0" d="M123 199c-4.9-1.2-9.5-3-13.8-5.7a67.3 67.3 0 01-11.6-9.2 40.8 40.8 0 01-4.6-5.5l-.3-.4h-.2v2.6l-.1.8c-.3.1-.3 0-.4-.1a134 134 0 01-15.7-22.8 69 69 0 01-5.2-11.9c-.6-2-1-4.2-1.5-6.3L66.9 128c-.3-1 0-.9-1.2-1a56.7 56.7 0 01-21.5-6.6c-3.7-2-7-4.6-9.7-7.8-3.5-4.2-5.7-9-6.7-14.4-.4-2.5-.6-5-.6-7.5 0-.8 0-.9-.9-.5-4 2-8 4.3-11.9 6.7l-2 1.2c-.2.1-.3.1-.4 0v-.2c-2.7-4.6-5.3-9.2-7.4-14A72 72 0 01.2 69.2c-.1-.4 0-.4.4-.6l8.6-3.5a169.7 169.7 0 0125-7.3l.7-.2c.2 0 .4-.1.4-.3v-1.1-15l.1-14c0-.5-.1-.9-.5-1.3-2-2.2-4-4.6-5.8-7-2.4-3.2-5-6.4-7.5-9.4-.2-.2-.4-.3-.4-.6H179c0 .2-.1.3-.3.4-3.2 3.7-6.2 7.7-9.2 11.6a72.6 72.6 0 01-4.2 5c-.4.4-.6.8-.5 1.4V57c0 .5.1.6.7.7 3.8.7 7.6 1.6 11.4 2.7 4.4 1.4 8.8 3 13.2 4.6l6 2.2 3.5 1.5c.5.1.5.2.4.7l-1.5 6.3a77.9 77.9 0 01-5.7 14c-1.4 2.8-2.9 5.4-4.4 8l-.1.3c-.2.2-.3.3-.5.1l-.7-.4c-3.5-2.2-7-4.3-10.7-6.2l-1-.4v.3c0 2-.2 3.9-.4 5.8a28.3 28.3 0 01-12.6 21.5 38.7 38.7 0 01-10.3 5 72 72 0 01-21 2.7h-.9l.1 1.7.1 1.7c.3 5 0 9.8-1.5 14.5a22.3 22.3 0 01-6 10 28 28 0 00-4.8 5.8c-1.2 2-2 4.1-2.5 6.4-.3 2-.3 4 .2 5.9l.5 1.4 3 7.2c0 .1-.1.2-.3.2l-5.8-5.6c-.7-.6-1.2-1.2-1.8-2-.1 0-.2-.3-.4-.3h-.2c.1 4.8.8 9.4 2.5 13.8a21 21 0 005.6 8l4.5 3.6c-.1.2-.3.2-.5.2zm-9-25.3v.1c.1 0 .2.3.3.1v-.3l-.2-.3v-.3c-.6-2.4-.6-4.8-.1-7.2.4-2.5 1.4-4.8 2.7-7 1.4-2.1 3-4 5-5.8a18.5 18.5 0 005.2-8.4 46.4 46.4 0 001.3-19.3c0-.3-.2-.6 0-1l2.6.2a74.4 74.4 0 0019.5-2.2c3.7-1 7.1-2.5 10.3-4.6 4.8-3 8.3-7 10.5-12.3a42.2 42.2 0 002.3-16.9V88a151.9 151.9 0 0113.1 7.1c.3.2.6.5 1 .5l.3-.4c1.2-2.2 2.4-4.3 3.5-6.6a74.8 74.8 0 006.6-18.2c0-.4 0-.4-.3-.6l-1.7-.7-13-4.7c-5.7-2-11.4-3.7-17.3-4.7l-2-.4c-.4 0-.5 0-.5-.4v-.7-16.6l-.1-15c0-.5 0-.9.4-1.2 1.7-1.8 3.2-3.7 4.8-5.7 2.2-2.8 4.3-5.7 6.6-8.4.1-.1.3-.2.1-.5H25.7c-.2 0-.4 0-.4.2l5.4 6.9c2 2.6 4 5.2 6.3 7.6.2.2.4.5.3.8v.6l-.1 31.4v.6c0 .3-.1.4-.4.5h-.3a182 182 0 00-31 9.3l-2.8 1.2c-.3 0-.4.3-.3.5v.3c.8 3.7 2 7.4 3.4 11C7.5 86 9.7 90 12 94.1l.6 1.2c.2.2.3.2.6 0l1.8-1c4.3-2.6 8.7-5 13.2-7.1.3-.2.5-.4.8-.3l.1.2v1c0 3.2 0 6.5.6 9.7.9 5 2.8 9.4 6 13.2 2.6 3 5.6 5.5 9 7.5a53.8 53.8 0 0019.7 6.3l3.4.4c.3 0 .4.1.5.4v.5c1.3 5 2.3 9.9 3.4 14.8.5 2.6 1.1 5.1 2 7.6 1.6 4.2 3.6 8.2 5.9 12a135.2 135.2 0 0010.7 16c.2 0 .3 0 .3-.2v-.2-6.4h.2c1 3.8 3 7.1 5.6 10.1a72.3 72.3 0 0020.2 15.4s.2.2.2 0 0-.3-.2-.3a22.9 22.9 0 01-5.5-8.9 49.2 49.2 0 01-1.6-20.5h.2l.1.5a15.3 15.3 0 004.2 7.6z"/><path class="tex_st1" d="M123 199c.2-.2.4-.1.5-.3l.4.3-.1.1a1 1 0 01-.8-.2z"/><path class="tex_st2" d="M119.1 181.3c.2 0 .3-.2.3-.3.2.1.2.3.3.5v.2h-.2l-.4-.4z"/><path class="tex_st3" d="M109.5 165.6a50 50 0 001.6 20.5c1.2 3.4 3 6.4 5.5 9h-.4a72.3 72.3 0 01-19.8-15.2 28.2 28.2 0 01-5.9-10.6v6.9h-.4c-3.9-5-7.4-10.1-10.6-15.6a79.2 79.2 0 01-5.8-12c-.9-2.5-1.5-5-2-7.6l-3.3-14.8-.1-.5c-.1-.3-.3-.4-.5-.4a54 54 0 01-23-6.7c-3.5-2-6.6-4.4-9-7.5A27.9 27.9 0 0129.6 98c-.6-3.2-.7-6.5-.6-9.8v-1-.1c-.4-.1-.7.1-1 .3-4.5 2-8.8 4.5-13.1 7L13 95.5c-.2.1-.3 0-.5-.2l-.6-1.1C9.6 90 7.5 85.9 5.7 81.6a65.4 65.4 0 01-3.3-10.9v-.3c-.1-.3 0-.4.2-.6l2.9-1.1a182.7 182.7 0 0131-9.3h.3c.3 0 .3-.2.3-.5v-.6l.2-31.4v-.7c0-.3-.1-.5-.3-.7-2.3-2.4-4.3-5-6.4-7.7-1.7-2.3-3.5-4.6-5.4-6.8.1-.3.3-.2.5-.2H174.9c.1.3 0 .4 0 .4-2.4 2.8-4.5 5.7-6.8 8.5-1.5 2-3 3.9-4.7 5.7-.4.3-.5.7-.5 1.2l.1 15 .1 16.6v.6c0 .4 0 .5.4.5l2 .3c6 1.1 11.7 2.8 17.3 4.7l13 4.8 1.7.7c.4.2.5.2.4.6a73.4 73.4 0 01-6.6 18.2l-3.6 6.6-.2.4c-.4 0-.7-.3-1-.5-4-2.5-8-4.8-12.3-6.9-.2 0-.5-.3-.8-.3-.2.2 0 .4 0 .6a42.2 42.2 0 01-2.3 16.9 26.1 26.1 0 01-10.5 12.3c-3.2 2-6.6 3.5-10.3 4.5a58.4 58.4 0 01-19.5 2.3l-2.6-.2c-.2.3 0 .6 0 1a45 45 0 01-2.2 21.5c-1 2.4-2.5 4.4-4.4 6.2a28.4 28.4 0 00-4.9 5.9 20.6 20.6 0 00-2.8 6.9c-.5 2.4-.4 4.8.1 7.2l.1.3-.2.2c-2-2.1-3.5-4.5-4.1-7.4l-.2-.5v-.5h-.1v.5zm9.2-23.6l.1-.1-.4.2-.4.2a31.4 31.4 0 00-5.9 5.2 27.2 27.2 0 00-6.8 17.4v3.8c0 1.1.2 2.3.4 3.4l.5 2.8.3.9v-.7-.2c0-1-.3-1.9-.3-2.8 0-2.5-.2-5.1.1-7.6l.7-4a29.5 29.5 0 017.6-14.1c.2-.2.3-.4.6-.3 0 .4-.2.7-.4 1-.8 1.6-1.5 3.2-2 4.9-1 2.8-1.3 5.8-1 8.8 0 .7 0 1.4.4 2.1l.3-.6c.4-2 1.3-4 2.3-5.7 1.6-2.7 3.5-5 5.7-7.3l1.7-2c1.7-2.1 2.8-4.7 3.5-7.4a30.3 30.3 0 00.8-8.7l-.3-2.1-.3 3c0 2-.4 3.8-.9 5.7-1.1 4.8-3.3 9-7 12.3-.8.9-1.9 1.7-3 2.3-.2.2-.4.4-.8.3v-.7l.5-2.4c.8-2.2 1.8-4.3 3.1-6.2.3-.4.6-.7.7-1.1.2-.1.2-.2.2-.3zm-16.9 3.9l.3.2.1.1-.2-.1-.1-.2c0-.2-.2-.3-.4-.3-.2-.5-.7-.8-1.1-1.2-.4-.3-.7-.7-.6-1.2l-.1-1.7v-1.6-.3h.5l.3.3 2.2 1.6.4.2h.1s.1-.2 0-.2l-.5-.6-2.6-2.6c-.2-.2-.4-.4-.4-.6v-2c0-.2.2-.3.3-.2l.4.1 4.6 1.8c.4.1.8.3 1.3.3l.2.2c.4.3.9.5 1.5.6-.4-.4-.7-.6-1.1-.6-.1-.2-.3-.3-.5-.3l-.4-.3-3.8-2.2-2-1a.8.8 0 01-.4-.9v-1.7c0-.2.2-.3.4-.2l1 .2 9.7 2.7c.6.3 1.2.4 1.8.5-.5-.4-1-.6-1.6-.7l-9.5-4c-.6-.2-1-.6-1.6-.6-.6 0-1.2.3-1.8.5h-.5c-1.7.5-3.5.8-5.3 1-2.7 0-5.4.1-8.2-.4a31.1 31.1 0 01-11.6-4.5c-.1-.1-.3-.2-.4-.1v.3c.1 1.7.5 3.3.9 5 .4 1.4.8 2.8 1.6 4l1.5 2.5c2 2.5 4.1 4.9 6.4 7.1l.7.7c0 .2.1.3 0 .4-.3 0-.6-.3-.8-.5l-4.1-2.7-2.6-1.8h-.2c-.1-.1-.2 0-.2 0v.5a63.6 63.6 0 009.7 21.8l.5.6a16 16 0 002.7 3.1h.2l1.3-9.3c.4.7.6 1.5.8 2.3v.4a42.5 42.5 0 0013.8 21.4c0-.4-.2-.7-.3-1-.9-2.2-1.3-4.5-1.4-6.9v-4c0-1.1-.2-2.1-.8-3l-.5-1c-1.3-2.2-2.8-4.4-4.3-6.5l-.4-.5v-.1-.5l.4.2c.1.3.3.4.5.5l2.7 2c.3.3.5.6.8.5.4-.1.2-.6.3-1v-.2-6.1c0-.7-.2-1.1-.6-1.6l-4-4c-.1 0-.2-.3-.5-.3l-.4-.5c-.3-.4-.6-.5-1-.3l-.6.1-2.7.7-.4-.1-.3-.6c-1-1.8-1.8-3.7-2.7-5.5l.3-.3.4.5c0 .3.3.6.6.8 0 .2.1.4.3.5l1.4 2c.7 1 .7 1 1.8.7.4-.1 1 0 1.3-.4h.8l.2-.1c.4-.1.7 0 1 .3l1.2.9c.9.9 1.8 1.6 2.8 2.3.2-.2.1-.4 0-.6l-.4-3.2c0-.2.1-.3.3-.2a63.9 63.9 0 011.6.7zm17.3-23.3c.2 0 .3-.1.3-.2.4-.2.7-.6 1-.9 3.2-3.7 4.5-8 4.4-12.8a25 25 0 00-1.1-6.3c-.1-.4-.3-.6-.6-.7l-.4-.1a38.9 38.9 0 00-14.8-1.5c-1 0-2.1 0-3.2.2-.9.1-1.7.2-2.6.5h1c3 0 6 0 9.2.3a40.8 40.8 0 019.2 2c.6.2 1 .6 1.3 1.3.5 1 .7 2.2.8 3.4.2 2 0 4-.4 6l-.1.2c-.2 0-.2-.1-.2-.2l-.5-1.8s-.1-.2-.3-.2v.5c0 3.3-.9 6.3-2.5 9.2l-.3.7c-.2.1-.2.3-.2.5zM30.7 64.8c0 .2 0 .3.2.4 0 .3.2.6.3.8.5 1.7 1 3.4 1.7 5.2l.8-1.2v-.7c-.8-1-1.5-2.2-2.2-3.3 0-.4-.3-.7-.6-1l-.1-.3-.1-.1h-.1l.1.2zm73.2 77.5s0 .2.1 0l-.2-.2c0-.1-.2-.2-.3 0l.1.1h.3zm44-87.8h.2a372.8 372.8 0 002 .4h.8c.3.3.6.2 1 .2h1.4c1.6 0 2.6-.6 3-2.1l.3-.8.1-2.1V39.7l-.1-2.1c.1-.7 0-1.4-.1-2-.3-1.2-1-2-2-2.4-.6-.3-1.3-.5-2-.6l-2.6-.2-3.2-.3c-1.2-.2-1.3-.6-1.3-1.5v-6-.6c0-.2.2-.3.4-.4l.7-.2 4.3.3 4.6.3h2.3c.4.1.7 0 1-.4l5.4-6.4s.2-.2.1-.3l-.2-.1-4.7-.2-11.6-.2h-5.5c-1 0-2 0-2.8.4a4 4 0 00-2.4 2.7l-.2 1.5.1 11 .1 2.3c.2 1.3.9 2.3 2.1 3l1 .2c.3.2.5.3.8.2h.6c.2.2.4.2.6.2l5.4.6c.6.3.5.8.5 1.3l.1 6.3c0 .3 0 .6-.2.9l-1.5-.1-5.2-.7c-.7 0-1.4-.3-2.1-.2l-1-.1c-.3 0-.4 0-.4.3l1.3 5.4.2.9c0 .3.2.4.5.4h.4c.3.2.5.2.8.2l2.1.4 4.3.7c.2.2.4.2.6.2zM93.4 65.9v-.2-.8-.2s0-.2-.2-.2c-.6 0-1.2 0-1.8.2h-.2-.5-.2-.1v-1.2-1.3c.1-.2 0-.5 0-.8.1-.3.2-.4.5-.4h1.5c.3 0 .4-.2.4-.5v-.4-.3c0-.1-.1-.2-.3-.2h-2v-.5-2.8c.5-.1 1.1 0 1.7-.2h1l.2-.4V55c0-.2 0-.3-.3-.3h-2l-2.8.2c-.2 0-.3.2-.3.4V65c0 .5-.2 1 0 1.4 1 .1 1.7 0 2.6-.2h2.6l.2-.2zM80.7 44.2c-.4 0-.9-.1-1.3.1H78c-.5 0-1 0-1.5.2H75c-.3 0-.4-.1-.4-.4V44v-6.3-.1c.1-.2.2-.4.5-.4l2.1-.1 4.2-.3c.4 0 .5 0 .5-.5v-3-2c0-.5 0-.5-.4-.5h-.8l-5.4.2c-.5 0-.6 0-.6-.5V26v-3c0-.3.1-.3.5-.3l2.4-.1h5.8l.6-.1.2-.3v-.4l-1.3-5.3c0-.4-.2-.5-.6-.5H80l-12.4.2h-1.8c-.3.6-.1 1.2-.1 1.9l-.2 17.8v16.3l1.2-.1h.5l4-.4 5-.6 5.5-.4c.5 0 .5 0 .6-.5l1.4-5.9c0-.2 0-.3-.2-.3l-2.8.2zm18.8 19v1.2h-2-.2l-.2-1.6c.2-.4 0-.8 0-1.2a185.7 185.7 0 010-4c.1-.5 0-1.1.2-1.6h1.2l1 .1v1c0 .3 0 .4.4.4h1.7c.2 0 .4 0 .4-.3v-1c0-.3-.1-.5-.4-.7-1.3-1-1.3-1-3-1h-2a171.1 171.1 0 01-1.8 1.4v4c-.1.6-.2 1.2 0 1.7V63c-.1.5 0 1 0 1.6 0 .2 0 .3.3.4 1.3 1 1.3 1 2.9 1h.8c1.5 0 1.5 0 2.6-.8l.2-.2c.2 0 .4-.2.4-.5v-1-1a3 3 0 000-1.2v-.7c0-.2-.2-.3-.4-.4h-1.8c-1.2 0-1.3 0-1.1 1.3l.1.1c.6.3.6.3.6.8l.1 1zm13.1.9V66c0 .3.1.4.3.4h.6l3.3.4a3 3 0 002.5-.7l.3-.2c.2-.1.2-.4.1-.6v-1-1.5V61v-3.7c0-.3 0-.5-.2-.7a14 14 0 01-1-.8c-.2-.3-.6-.4-1-.4-1.5-.2-3-.4-4.5-.4-.1-.1-.3-.2-.4 0v9.1zm11.1 0v-1.2c.1-.3.3-.5.6-.4l1.4.2c.3 0 .4 0 .4-.3v-.6c0-.2 0-.4-.3-.4l-1.6-.2c-.3 0-.4-.2-.4-.5v-2c0-1.3-.2-1.1 1.1-1 .6.1 1.2.3 1.8.2v-1c0-.2 0-.4-.3-.4l-4.5-.6c-.6-.1-.6 0-.6.5v4.4l.1.6v5.4c0 .4 0 .5.4.5l4 .6c1 .2 1 .1 1-.8 0-.2 0-.4-.2-.5a6 6 0 00-1.5-.3c-.4-.2-.8-.2-1.2-.2l-.2-.6v-1.4zm-44.5-.4v1.2a7 7 0 000 2c0 .2.2.3.3.2l.8-.1h.8c.2 0 .5 0 .5-.3v-1.8-1.2-1.3c.1-.2 0-.5 0-.8l.1-.4s0-.2.2-.3l.4 1.1.4 1 .5 1.5.2.5.5 1.5c.6.2 1.2 0 1.7 0 .3 0 .6.1.8-.2v-1.8V63v-1.2-1.5V55c0-.1 0-.1-.2 0h-1.6c-.6.1-.7.2-.7.8V60.6c-.2.2-.2.2-.4 0l-1.3-3.7c-.2-.5-.2-1.2-.7-1.4-.4-.3-1 0-1.6 0l-.4.1c-.2 0-.3.2-.3.4v4.9.7c0 .3-.1.6 0 .8v1.3zm25-1.9c-.1.4-.3.8-.3 1.3 0 .3-.2.6-.1 1l-.4 1.8h2c.3-.5.3-1 .4-1.6h2.8l.2.5c.1.4 0 1 .3 1.3l1.4.2h.3c.3 0 .4-.1.3-.3 0-.7-.2-1.3-.3-2 0-.3 0-.6-.2-1 .1-.4 0-.8-.1-1.2l-.3-1.5-.8-5.2c0-.3-.2-.4-.5-.4l-3-.1c-.4 0-.4 0-.5.4l-.9 4.6v.6a4 4 0 00-.3 1.6zm28.6 3.7V67.2c0 .3-.2.4-.5.3-.2-.1-.4-.2-.6-.1h-.4a.7.7 0 00-.7-.2l-.3-.2c.1-.3.1-.6 0-.8l-.1-.2-2-.4-.1.2V67c0 .2.2.4.5.5l.8.7c.3.3.6.5 1 .5l2.6.5c.3.1.6 0 1-.1 1.3-.7 1.3-.7 1.2-2.3a3 3 0 000-1.2c.1-.7 0-1.3-.6-1.7l-.2-.1c-.5-.7-1-1-1.9-1.2l-1.6-.3c-.3 0-.4-.2-.4-.4V59c0-.3.1-.4.4-.4l1.7.3c.2 0 .3.3.3.5v1c.8.3 1.5.4 2.2.5.2-.2.1-.4.1-.6v-.8l-.2-.5c-1.3-1.3-1.3-1.3-3.2-1.7l-.7-.1c-1.4-.2-1.4-.2-2.6.5-.3.2-.4.4-.4.7v3c0 .2 0 .4.3.6l.6.4c.4.6 1 1 1.7 1 .4 0 .7.1 1 .3.4 0 .8 0 1.1.3v1.4zm-58-.8c.1-.6 0-1.1 0-1.6 0-.4.2-.7.6-.7h.8c1-.2 1-.2 1-1.2 0-.2-.1-.3-.3-.3l-2 .3c-.1-1 0-2.1 0-3.2 0-.2 0-.3.3-.3l1.8-.3c.9-.2.9-.2.8-1v-.1c0-.4 0-.5-.4-.4l-4.6.6c-.3 0-.4.1-.4.5V67.9h.9l3.5-.5c1.2-.1 1 0 1-1.2v-.4l-2.3.3H75l-.1-.4v-1zm-10.7 1.2v3.3c0 .4 0 .4.4.2.4 0 .8 0 1.2-.2.3 0 .5 0 .7-.2.2-.5.1-1 0-1.4v-1.7-1.4c.2-.2 0-.5.3-.6.5-.1 1-.3 1.4-.2.1 0 .2 0 .2.2l.1.4v4.3c0 .3.2.1.4 0l1.5-.2c.5 0 .5-.1.5-.6v-2-1.5c0-.8 0-.8-.6-1l-.8-.3c-.3-.2-.1-.4 0-.6l1-.7c.3-.2.5-.5.5-1v-1.3c0-1.6.2-1.1-1.1-2-.5-.2-.9-.3-1.4-.2-.5.2-1.1.2-1.7.3l-2.3.5c-.3 0-.4.2-.4.5V66zm104.8-.2l-2.3 3.7c-.3.4-.7.7-.6 1.2 0 .4.5.8.8 1.1.1.3.3.2.4 0l2-6 .3-.5-.1-.3-.2.1c-.2.2-.3.4-.3.7zM122.6 83l-.3-1.7a49.4 49.4 0 00-4.8-12c-.3-.3-.5-.5-1-.5h-.8v.3l.4.7c2.5 4.2 4.7 8.5 6.1 13.2.2.5.2 1 .5 1.5.2-.6 0-1-.1-1.5zm-48.3 19.3c2.2-.5 4.5-.5 7-.4-.4.2-.7.2-.8.4l-.6.1-.4.1c-1.3.2-2.5.6-3.6 1.2-.3.1-.7.3-1 .6a6.8 6.8 0 00-3 3.2v.6l-.3 2.1c-.2 1.7-.4 3.5-.4 5.2 0 .7.1 1.2.5 1.6 1 1.1 2 2 3.3 2.7 2 1.1 4 1.7 6.3 2 .2 0 .4 0 .4.3h-2.4l-2.5-.1c-.8-.1-1.5-.3-2.4-.3l.3.3 1.7 1a19.3 19.3 0 0012 2.2c.4-.1.8-.1 1.1-.4l1-.2c.5 0 .8-.3 1-.9l1.1-3c.2-.4.3-.8.7-1 .5-.3 1-.7 1.6-.9l.5 1.4h.2c0 .1 0 0 0 0l.3-3.5c0-1 0-1.9.2-2.8v-1.2c0-.4-.2-.5-.5-.4a51.4 51.4 0 00-3 1.9c-1 .8-2 1.6-3.2 2.3-1 .6-2.2.9-3.4.9-1.5 0-2.9-.4-4.2-1-.1-.1-.3-.2-.2-.4h1l.2-.2v-.3c-.6-.6-1-1.3-1.3-2l-.5-1.1a7 7 0 00-1.2-1.6c-.3-.4-.8-.6-1.3-.6a6 6 0 00-2.5.6c-1 .2-1.8.7-2.6 1.2l-.4.3c-.1 0-.2.3-.5.2l.4-.8.6-.7c1.2-1.5 2.5-2.8 4.1-3.8.8-.5 1.5-.8 2.4-1 .6-.2 1.3-.3 2-.3a9 9 0 013.7 1.3c1.3.8 2.7 1.4 4.2 1.8.6.2 1.2.2 1.8.2.3 0 .5-.3.5-.6 0-.2 0-.4-.2-.6l-.8-1s-.2 0 0-.3l1 .6 1.1.6c.5.2.5.2.8-.2.3-.4.7-.6 1.2-.3.2 0 .3.2.5.4l.3.3c.4.4 1 .3 1.2-.3.1-.5.3-1 .2-1.5 0-1-.3-2-.9-2.9-.7-1.1-1.7-2-2.7-2.7l-.9-.3-3.9-.2h-5.7l-4.2.5a21.2 21.2 0 00-5.8 1.8c.4.1.6 0 1-.1zM67 116.9s0 .1 0 0c0-.2-.3-.2-.4-.3a29.5 29.5 0 01-10.4-6.2 20.1 20.1 0 01-6.8-15.5l.2-2c.5.2.6.7 1 1 0 .2.2.3.3.5l2 1.7a31.7 31.7 0 0014.7 6.3c.3 0 .5 0 .6-.3.6-.9 1.5-1.5 2.4-2 1-.5 2.1-.9 3.2-1l2.9-.5c-.2-.3-.4-.3-.6-.3-2.6-.7-5-1.9-7.3-3.1-.2-.1-.3-.3-.5-.3-.5-.5-1.3-.7-1.8-1.4l2.1.6a45.6 45.6 0 0012.9 1.6l3-.1a54 54 0 0011.1-1.7c.6 0 1.1-.3 1.8-.6-.8-.1-1.4.1-2 .2l-2.2.2c-1.7.3-3.4.2-5 .3H86a43.6 43.6 0 01-16.2-3.4c-.4-.1-.8-.4-1.2-.4l-3.3-1.5a47.2 47.2 0 01-15.8-13 52.6 52.6 0 01-6.1-9c-.3-.4-.4-.4-.7 0l-1 1.4A25.3 25.3 0 0038 80.4v1c-.2.9-.1 1.7 0 2.6v2.7c-.2-.1-.2-.3-.2-.5L36.3 82c0-.2 0-.5-.4-.6v.3l.1 6.5c.2 2 .5 3.8 1 5.6.8 3.3 2 6.5 4.2 9.2l.8.8.4.4c0 .2.1.3 0 .4-.3 0-.6-.3-1-.5l-1.8-1.3-3-2.5-.2-.1c-.2.2 0 .4 0 .6.8 2.2 2 4.1 3.6 6 2 2.3 4.5 4.1 7.3 5.6a36.8 36.8 0 0012.7 4l3.3.4H67zm61.5-26.3c-.5.1-.9.3-1.3.7.5-.1 1 0 1.3-.4a29.8 29.8 0 004-1.4h.5c1.3-.6 2.6-1 3.9-1.7 4-1.9 8-4.2 11.4-7.2a29.3 29.3 0 007-8.5c.2-.2.3-.2.5 0l.5.4a31.3 31.3 0 017.7 10.9c1 2.3 1.7 4.7 1.9 7.2.2 2.9 0 5.8-.7 8.6-.8 3-2 5.9-3.6 8.6l-2.3 3.7-.7 1.2c.4-.2.7-.5 1-1 .4-.2.7-.7 1-1 2.3-2.6 4.1-5.4 5.6-8.6.1-.2.3-.5.3-.8v-.2c.3-.1.3-.3.3-.5v-.1a24.7 24.7 0 00-1.4-21.5 34.9 34.9 0 00-11-12.2c-.4.3-.5.7-.6 1-.9 2.5-2.1 4.8-3.7 6.8a38.7 38.7 0 01-6.1 6.3 68.8 68.8 0 01-15.5 9.7zM78.2 78c-.3 1-.6 1.8-.6 2.7l-.1.2-.9 4.3-.2 1.1c0 .3.1.5.4.6l3.4.4 3 .3c1.3.2 2.6 0 3.8.3 2.9 0 5.8.1 8.6-.4 1.1-.2 2.2-.5 3.2-1a3.6 3.6 0 002-2.9l.4-1.2c.3-1.3.2-2.6 0-4a20 20 0 00-2-5l-2.6-5c-.1-.3-.3-.4-.6-.4h-.7l-2.2.2c-1.3 0-2.7 0-4 .2-1 0-2 0-3 .2-1.7 0-3.2.2-4.8.4-.4 0-.6.2-.7.6-.7 1.8-1.3 3.7-1.8 5.7l-.6 2.7zm20-37.8l.1 1 2.3 8c0 .2 0 .5.2.7l.5.1 7.8.1h.4l.2-.2-.2-.6-1.3-3.8-4.2-11.8c0-.2 0-.5-.3-.7-.2-.8-.2-.8.2-1.7L109 17c.1-.3.3-.6.3-1h-8.1c-.5 0-.5 0-.7.5L99 22.3l-1.5 5.3c-.2-.2-.3-.5-.3-.7l-2.5-9-.4-1.6c-.1-.2-.2-.3-.5-.3H86l-.4.1.3.9 5 14c.2.4.5.9.5 1.3 0 .5-.3 1-.4 1.5l-5.5 15.6c-.1.3-.3.6-.3 1l1.7-.1h1l5.2-.2c1 0 1 .2 1.3-.9L97 39.1c0-.2.1-.5.4-.6l.3 1.1c0 .2 0 .5.3.6zm31.2 11.4l.6.1h.9l3.8.6c.7 0 1.4.2 2 .3.5 0 .6 0 .5-.5l-.5-2.4L134 37c-.2-.8-.3-1.7-.7-2.6V34l-2.7-11.7-1.3-5.6c0-.5-.1-.5-.7-.5H125l-5-.1h-8v.3l1.2 1.4 4.4 5.2c.3.3.4.7.3 1l-.1.5-5.6 24.5c-.4 1.3-.7 1.2 1 1.3h.7l5.4.4h1.2c.2 0 .4-.1.4-.3l.3-1.5c0-.7.2-1.3.3-2l.4-.2h2l3.7.3.7 3.6c.1.9.2.9 1 1zM57.2 35.3c.2-.5.2-1 .2-1.5V24v-.6l.6-.1 3.3-.2h1.6c.3 0 .4-.2.3-.5l-.4-1.1-1.5-4.7c-.1-.5-.1-.5-.6-.5h-.4l-11 .2-10.3.2H37V17l5.4 6.7c.2.3.5.3.8.3l2.6-.1 2.4-.2c.3 0 .4.1.4.4v6.5l-.2 13.6V55l1.5-.2h.8l5.6-1 .7-.2c.2 0 .3-.2.3-.4v-.6l.1-16.4v-1zM23.7 82.4V82c-1.2-4.7-2.6-9.3-4.3-14l-.2-.4c0-.2-.2-.2-.4-.2l-.5.2L9.1 71c-.6.2-.7.3-.5.9v.4a58.1 58.1 0 006 14.6c.3.5.4.6 1 .3l.3-.2 7.1-3.8.6-.3.1-.5zm168-10.6c0-.5 0-.7-.3-.8l-.5-.1-6.7-2.5-2.7-1c-.3 0-.5 0-.6.3l-.1.3-4.2 13.8c-.3 1 0 1 .6 1.4l7.3 4 .6.2.4-.1.3-.6 2.9-5.9a64 64 0 003-8.5v-.5zM49 62h-2.5c-.2 0-.6-.2-.8.2-.1.2.2.4.4.7a73 73 0 007 8.8c.8.8.6 1 1.9.6.6-.1 1 0 1.3.5l.3.3 4.6 6c.4.4.8 1 1.4 1.3a75 75 0 0010 6.3c.4.3.5.2.6-.3.1-.5 0-.9-.4-1.3L67 77.8l-1.1-1.4-1.1-1.4-1.1-1.4-1.2-1.5c-.7 0-.4-1-1-1.2l-.2-.4-3.3-4.2-2.7-3.4c-.3-.4-.6-.6-1-.6h-.6L49 62zm78.8 23.2c.3.1.5-.1.8-.2a46 46 0 009.6-5c.5-.3 1-.7 1.3-1.2l4-5 1-1.3c.1-.2.3-.3.6-.2l1 .2c.4 0 .7 0 1-.3l.2-.3a40.3 40.3 0 006-9.6c0-.2 0-.3-.3-.3h-.7c-1.9 0-3.7 0-5.6.2-.8 0-1.3.4-1.8 1l-10.4 13.2-6.3 8.1c-.2.2-.4.4-.4.7zM23.9 65.9l-3.1 1c-.2 0-.2.1-.2.3l.2.6 3.2 11 .6 2c.2.5.1 1 .5 1.4l3.4-1.6c.2-.1.3-.3.2-.5l-.1-.4-4.2-13.1-.2-.5c0-.1-.1-.3-.3-.2zm152.7 0c-.4 0-.5 0-.6.3l-.2.6-2.3 7.2-1.9 5.8c-.1.6-.1.6.4 1L175 82c.3 0 .4 0 .5-.2l.2-.8 3.8-12.9.3-1c0-.2 0-.3-.2-.4l-2.9-.8zM30.3 78.5c.5-1.9 1-3.7 1.8-5.5.2-.4.1-.7 0-1l-2.4-7v-.3c-.2-.2-.3-.2-.5-.2l-3.7 1c-.2 0-.2.2-.2.5l2.3 7.5c.5 1.6 1.2 3 2.1 4.5.1.2.2.4.6.5zm140.3-.6a22 22 0 002-4.2c1-2.5 1.5-5.2 2.4-7.7 0-.3 0-.5-.3-.6l-3.4-.8c-.5-.2-.6-.1-.7.4l-2.7 7.7c0 .4 0 .6.2 1 .9 1.2 1.6 2.6 2.3 4l.2.2zM24.1 84.3c-.5 0-.8.3-1.1.4L15.2 89c-.8.4-.8.4-1.2-.4a81.9 81.9 0 01-6.7-16.3c-.1-.3-.2-.4-.5-.3l-.4.2c-.3 0-.3.3-.3.5l.1.3a90.8 90.8 0 007.1 17c.7 1.2.7 1 1.6.5l6.9-3.8 2.2-1.2c.4-.2.4-.3.3-.8l-.3-.3zm152 0v.3c-.2.5-.2.5.2.8l1.5.8 7.4 4.1c1.3.7 1.1.8 1.8-.5l3-5.8a66 66 0 004-10.8l.2-.6c0-.3-.1-.4-.3-.5a3 3 0 00-.5-.2c-.1 0-.3 0-.3.2l-.3.6-.8 2.9a75.5 75.5 0 01-5.6 12.8c-.5 1-.5 1-1.5.4l-8-4.2c-.2-.2-.4-.4-.7-.3zm-69.7 27.8c.9 1 2.5 1.8 3.7 2 1 0 2-.2 2.7-1l.8-1a7.1 7.1 0 012.6-2.6c.1 0 .4-.1.4-.4h-2c-1.2.1-2.4.4-3.4 1l-1.3 1c-1 .7-2 1-3.2 1h-.3zm-25.6-3c.2.3.4.4.6.5a7 7 0 012.5 2.4l.7 1c.8 1 2 1.3 3.1 1 .4 0 .8-.2 1.1-.4a9 9 0 002-1.3c.2 0 .3-.1.2-.3-1.4.2-2.7-.2-3.7-1.1a7.9 7.9 0 00-4.7-1.8h-1.8zm86.3-45.6l-4-.7c-.3 0-.4.1-.5.4l-.9 2.7c-.1.3 0 .5.3.8.9.7 1.8 1.6 2.6 2.5l.3.2 2.2-5.9zm-133.8 0l1.3 4c.2.4.3.4.5 0l2.2-2.5c.8-.8.8-.8.4-1.9-.1-.2-.3-.3-.5-.3l-1.5.3c-.8.1-1.6.2-2.4.5zM155.4 62c.3.4.5.4.7.6l1.9 1.1c.5.3.9.8 1.5.9.4-.5.5-1.2.7-1.7v-.3c-1-.4-3-.6-4.8-.6zM25.6 84.7l3.6-1.8c.2 0 .3-.2.2-.5-.2-.6-.1-.7-.9-.4l-1.4.7-1.5.7c-.4.2-.5.3-.3.8 0 .1 0 .3.3.5zM175 84l-.1-.5-2.4-1.1c-.1 0-.3 0-.2.2l.1.7.4.5 1.8.8.3-.1.1-.5zm-13.2-21.2v-.1h-.3l-1 2.4v.2c0 .2.1.3.2.3.2.1.3 0 .3-.1l.7-2.1.1-.6zm5.6 3l.4-.4.8-1.3v-.3h-.4l-.1.3c-.4.5-.6 1.1-.7 1.8zm-135.5-2l-.2.3c.3.4.4 1 1 1.2 0-.6-.4-1-.6-1.4h-.2zm6.7-1.3c-.3.3 0 .6 0 1h.2l.2-.2c0-.3-.1-.6-.4-.8zm68.1 113.9v-.1z"/><path class="tex_st4" d="M90.5 169.7v-.4c0-.1.2-.1.2 0s.1.3 0 .4h-.2zM90.1 176.2h.4s.1 0 0 .1c0 .3 0 .3-.2.2l-.2-.3zM116.2 195h.4c.1 0 .2 0 .2.2s-.2 0-.3 0c-.1 0-.2 0-.3-.2zM109.5 165.6v-.4l.1-.1v.5h-.1z"/><path class="tex_st5" d="M114.2 173.6c.2 0 .2.2.1.3-.1.2-.2 0-.3 0v-.2h.2z"/><path class="tex_st3" d="M114.2 173.6h-.2-.1l.2-.3.1.3z"/><path class="tex_st6" d="M97.1 158.4l-.4-.2-.4-.3h-.1v.3c0 .2.2.3.4.5v.1c-.2.4 0 .7 0 1.1l1 2.8c.4 1.8 1 3.5 1.5 5.2l.3 1.4-.6-.1c-.6-.4-1.3-.8-1.8-1.4-.8-.8-1.7-1.6-2.4-2.5-1.2-1.5-2.3-3-3.3-4.7-.1-.3-.3-.7-.7-.8-.3-.7-.4-1.5-.8-2.2l-1.4 9.3h-.2c-1-1-1.8-2-2.6-3.1 0-.4-.1-.7-.3-1l-1.5-2.9a123 123 0 01-2-4.9c-.2-.5-.5-1-.5-1.7l2.5 2c.2.1.3.4.6.4.2 0 0-.4-.2-.8l-.2-.2c-1.1-1.4-2-3-3-4.6a40 40 0 01-1.9-4.4c-.3-1-.8-2-.7-3 1.3 1 2.7 1.8 4 2.7.3.2.5.5 1 .5 0 .3.3.4.5.5.2.4.5.5.9.5 0 .1 0 .1 0 0-.2-.3-.4-.6-.8-.6v-.2c.2-.3 0-.5 0-.6l-2.2-3.5a65.6 65.6 0 01-.8-1.7h.2l2.6.6h1.7l-.2-.2c-.4-.2-1-.3-1.4-.6a14.2 14.2 0 01-4-3.3l.3-.1c1.3.4 2.7.6 4 .6.9 0 1.7-.3 2.5-.3 0 0 .2 0 .2-.2h-.2c-.4-.2-.9-.1-1.3-.2-1-.2-2-.5-3-1-2-.6-3.7-1.8-5.1-3.2-.2-.2-.4-.4-.4-.7.5 0 .9.2 1.2.3l3.2.8 2.3.3h3l1.3-.1h.7c1.3-.3 2.6-.5 3.8-.9a48 48 0 005.2-1.7c.3 0 .5-.2.5-.5.6-.1 1.2-.4 1.8-.4.6 0 1.1.3 1.6.5l9.6 4-.2.2-9.8-2.7-1-.2c-.1 0-.3 0-.4.2-.3 0-.6.3-.9.5l-.9.4c-2 .9-4.3 1.4-6.6 1.4h-1.7c-.1 0-.3 0-.3.2l.2.1c1.3.4 2.5.7 3.9.7h2.1c.2 0 .4 0 .6.2-1.1.2-2.1.5-3.2.4-1 0-2 .1-3-.1h-.2v.3l1.8 1c1.4.8 3 1.4 4.5 2 .2 0 .5 0 .7.3h-1.6c-1 0-1.9 0-2.7-.3h-.9c0-.2-.2-.3-.4-.2 0 .2.2.3.3.3h.1c1 .6 2.1.8 3.2 1l2.4.6c.8.3 1.4.8 1.7 1.6.4 1.2.4 2.5.3 3.8-.4 1-.6 1.2-1.6 1.3l-1.2-1c-.3-.3-.7-.3-1-.3H95c-.2.2-.5.2-.8.2 0-.4-.3-.4-.6-.4-.8 0-1.4-.3-2-.8l-1.7-1.5a.6.6 0 00-.4-.1c0-.7 0-.7-.6-.9l-.4-.4c-.2-.6-.6-.9-1-1.4 0 .7.1.8.7 1.6l2.6 5.6.3.5c.1.2.3.2.5.2l2.6-.7.6-.2c.4-.1.8-.1 1 .3l.5.5c0 .5.2.9.4 1.2.9 1.4 1.5 2.8 2.2 4.3.6 1.2 1 2.4.9 3.7 0 .6-.4 1.1-1.1 1h-1.6zM85 156.2c0-.1 0-.1 0 0z"/><path class="tex_st7" d="M68.6 90.2c.4 0 .8.3 1.2.4A42.8 42.8 0 0086 94c.7 0 1.4.2 2 .1 1.7-.1 3.5 0 5.1-.3l2.2-.2.2.4a55.5 55.5 0 01-11.2 1.7l-3 .1a66.8 66.8 0 01-12.8-1.6l-2-.6c.4.7 1.2.9 1.7 1.4 0 .4.2.6.4.8.7.5 1.4 1 2 1.7.6.4.8.6-.1.9l-.6.3c-1 .4-1.9 1-2.7 1.6-.3.2-.7.3-1 .3l-2.2-.3-3.7-1.1c-2-.8-3.9-1.7-5.7-2.8l-3.3-2.1c-.3-.2-.5-.3-.8-.3-.4-.2-.5-.8-1-.9l-.1 1.9c-.3 0-.4.2-.4.5L49 97v1.5l.1 1.3.1.8c.2 1 .6 2.1 1 3.2.2.6.4 1.3.8 1.9.5 1 1.2 2 1.9 2.9l1.1 1.4c.6.8 1.2 1.4 2 2 .8.6 1.5 1.4 2.4 2 .2 0 .5.2.4.5-.2.1-.5 0-.8 0l-1.3-.3a27.6 27.6 0 01-9.1-4c-1.5-.9-3-1.8-4.2-3-.7-.9-1.5-1.6-2.3-2.4l-1.3-1.6-.1-.5 1.9 1.3c.3.2.6.5 1 .5 0 .2.3.2.4.2l.7.5c.5.4 1 .8 1.6 1l1.5 1c1.3.7 2.6 1.4 4 1.8l.2.2v-.3h-.2l-2.5-2.3a24.6 24.6 0 01-6.5-11.8c-.1-.7-.3-1.4-.3-2.2l-.1-1.5V91h.2l.4.5L45 96l.3.5s.2.2.4.1v-.3-.4a13.4 13.4 0 01-.6-4.6c0-1.7.3-3.3.8-4.8.4-1.1.4-1.1 1.2-.3l1.9 2c.5.7 1.2 1.1 1.8 1.7l2 1.8c2 1.5 3.9 3 6 4 1 .5 2.1.8 3.2 1 .1.1.3.1.4 0l-.2-.2a25.8 25.8 0 01-8.3-7.4c-.7-1-1.1-2-1.7-3.1l-.5-1.5v-.3c.2-.1.3 0 .4 0l.5.2 3.5 1.7 4.6 1.8c2.2.9 4.4 1.6 6.7 2.3l.9.2.3-.2z"/><path class="tex_st8" d="M141.5 37.8h-.6a1 1 0 00-.8-.2l-1-.4c-1.2-.6-2-1.5-2.1-2.9l-.1-2.2V21v-1.6a4 4 0 012.5-2.6 7 7 0 012.8-.5h5.5c3.9 0 7.8.2 11.6.3h4.6c.1 0 .2 0 .3.2l-.1.4-5.4 6.3c-.3.4-.6.5-1 .5l-2.3-.1c-1.5-.2-3-.2-4.6-.3l-4.3-.2-.7.1c-.2 0-.4.2-.4.5v6.5c0 1 .1 1.4 1.3 1.5l3.2.3c.9 0 1.7.2 2.6.3.7 0 1.4.2 2 .5 1 .5 1.7 1.3 2 2.4.1.6.2 1.3 0 2-.7-.3-1.6-.4-2.4-.5l-7.4-1.1-6.3-.8c-.5-.1-1-.2-1.5-.1h-.1c0 .8.5 1.3 1 1.7.5.4 1 .7 1.6.8.2 0 .2 0 .1.2zM49.8 54.8c-.5 0-1 .3-1.5.2v-.7-10l.1-13.6v-6-.6c0-.2 0-.4-.3-.3h-2.4L43 24c-.3 0-.5 0-.7-.3L37 17.1l-.1-.2 2.2-.2 10.3-.2 11-.2h.4c.4 0 .5 0 .6.5l1.5 4.7.4 1.2c0 .2 0 .4-.3.4h-1.6l-3.3.2-.5.1v.6l-.1 9.8c0 .5 0 1-.2 1.5h-1l-4.6.7c-.5 0-1 0-1.5.3-.2.5-.2 1-.2 1.6v16.9zM113.5 50.3h-.3c-1.7 0-1.3 0-1-1.3l5.6-24.5.1-.4c.2-.5 0-.8-.3-1.1l-4.3-5.2-1.2-1.4V16c0-.1 0 0 .2 0h16.2c.6 0 .7.1.8.6l1.2 5.6 2.7 11.7v.4a357.2 357.2 0 00-6-.5c-.1 0-.2.1-.2.3v.3l.7 4 .4 2.6c0 .2 0 .3-.2.3-.5 0-1 .1-1.4-.2v-.7l-1.2-7.1-.7-4-.3.8-.2 1.7c-.2.6-.1 1.2-.4 1.8l-5.1-.3c-1.5 0-1.2 0-1.5 1.1l-3 13c-.2 1-.5 1.8-.6 2.8zM86.8 50.3h-1.7l.2-.9 5.5-15.6c.2-.5.5-1 .5-1.5s-.3-.9-.5-1.4l-5-14c-.1-.2-.3-.5-.3-.8.1-.1.3 0 .4 0l7.6-.1h.3c.3 0 .4 0 .5.3 0 .5.2 1 .4 1.5l2.4 9.1c.1.2.1.5.4.7l1.5-5.3 1.6-5.8c.2-.5.2-.5.6-.5h8.2c0 .4-.2.7-.3 1l-5.2 14.3c-.4.9-.4.9-.2 1.7l-3.4-.2-5.1.2h-1.7c-.8 0-.8 0-1 .7l-2 5.6-3.6 10.1c0 .3-.2.6 0 .9z"/><path class="tex_st2" d="M68.6 90.2l-.3.1-.9-.2c-2.2-.7-4.5-1.4-6.7-2.3L56.2 86l-3.6-1.6-.4-.2c-.2-.1-.3-.2-.4 0v.3l.5 1.4 1.6 3.2a25.8 25.8 0 008.2 7.4l.3.1c0 .2-.2.2-.4.1l-3.1-1c-2.2-1.1-4.1-2.5-6-4l-2-1.9-1.9-1.6-1.8-2c-.8-.8-.9-.9-1.2.2a13.6 13.6 0 00-.9 5.5c0 1.4.2 2.7.5 4l.1.4v.3c-.2 0-.3 0-.4-.2l-.2-.4-3.2-4.6c0-.2-.2-.3-.3-.5h-.2l-.1.2c.2.6.1 1 .1 1.6l.3 2.1A21.7 21.7 0 0046 104c.7 1 1.4 1.8 2.2 2.6l2.5 2.3v.2a19 19 0 01-4-1.9l-1.5-.9-1.6-1.1-.7-.5s-.2-.3-.4-.2v-.3l-.4-.5c0-.4-.2-.7-.4-1l-2.2-5.1c-.8-2-1.3-4.2-1.7-6.3 0-.3-.2-.7.2-.8.2-.2.3.2.5.3l.2.1c.3.1.4.5.7.4.4-.2.2-.6.2-.9 0-2.4-.1-5 .2-7.4.1-1.3.2-2.6.5-3.9a38.3 38.3 0 012.5-8.2c.1-.3.3-.3.5 0l1 1.1 2 2.5 2.6 3c1.4 1.5 3 2.7 4.4 4a42.5 42.5 0 0012 7.2l3.3 1.5zM126.5 41.2c.4.3 1 .3 1.4.2.1 0 .2-.1.2-.3l-.4-2.6-.7-4v-.3c0-.2 0-.3.2-.3l2.8.2 3.2.3c.4.9.5 1.8.7 2.6l2.8 12.7.5 2.4c.1.4 0 .5-.4.5l-2-.3-4-.5h-.8a1 1 0 01-.6-.2c.5-.2.5-.2.4-.6l-.3-1.8-.3-1.7c0-.3-.2-.4-.6-.4h-1l-3.8-.4H122c-.2 0-.3 0-.3.3l-.4 1.9-.3 1.5c0 .2-.2.3-.4.3h-1.2l-5.4-.4h-.4c.1-1 .4-1.8.6-2.7l3-13c.3-1.2 0-1.2 1.4-1.2l5.2.3v.7l-.6 3-.5 3c0 .5 0 .6.5.6l3.4.2z"/><path class="tex_st8" d="M66.7 52.1l-1.1.1c-.2-.3-.1-.6-.1-1V36l.2-18c0-.5-.1-1.1.1-1.7.6-.2 1.2-.1 1.8-.1L80 16h2.3c.5 0 .5 0 .6.4l1.3 5.3v.4c0 .2 0 .3-.2.3h-.6l-5.8.1h-2.4c-.4.1-.4.2-.4.5a138.3 138.3 0 000 7.3c0 .5 0 .6.5.6l5.5-.3h.7c.4 0 .5 0 .5.5v2a38.1 38.1 0 01-4.7.3l-4.7.3-4.2.3H68c-.8.2-.8.2-.9 1v12.3c0 1.4-.2 2.7-.1 4.1l-.3.6z"/><path class="tex_st2" d="M86.8 50.3l.1-.8 3.6-10.2 2-5.5c.2-.8.2-.8 1-.8h1.7c1.7 0 3.4-.2 5.1-.1l3.4.1c.3.2.3.5.3.7l4.2 11.8 1.3 3.8.2.6s0 .2-.2.2h-8.2c-.2 0-.3 0-.5-.2h1.5L99 38.6l-.3-.3-.4 1.4c0 .2 0 .4-.3.4-.2 0-.2-.4-.3-.6l-.3-1.1c-.3.1-.3.4-.4.6l-2.8 10c-.3 1.1-.3 1-1.3 1l-5.2.2h-1z"/><path class="tex_st7" d="M89.1 68.4c1.3-.2 2.7-.2 4-.3h2.2l.7-.1c.3 0 .5.1.6.4l2.7 5c.8 1.6 1.5 3.3 1.8 5 .3 1.4.4 2.7.1 4 0 .4-.2.8-.4 1.2-.4 0-.6.4-.9.6-.3.4-.7.7-1.2 1a15.5 15.5 0 01-6.7 1.7H87c-.3-.2-.7-.2-1-.2h-1c-.8-.3-1.6-.2-2.4-.4l-3.1-.6-3-.5.9-4.3v-.2c.5 0 1 .2 1.4.3a17 17 0 005 1c.5.2 1 .1 1.6.2l1.8-.2c.8 0 1.5-.3 2.1-.6.6-.3 1-.6 1.4-1 .9-1.2 1.1-2.4 1-3.8-.3-1.3-.7-2.7-1.4-4-.7-1.3-1-2.7-1.3-4.2z"/><path class="tex_st2" d="M138.9 35l1.5.1 6.3.8 7.4 1.2 2.4.4c.2.8.2 1.5.2 2.2v10.2a9 9 0 01-.2 2.2c0 .3 0 .5-.2.8-.5 1.5-1.4 2.2-3 2.1h-1.5l-.9-.1.3-.2H150v-.2a5 5 0 00-2-.3h-.2l-.1-.1-1.3-.3-3.2-.6c-.9 0-1.7-.3-2.6-.2v-.8c-.5-1.5-.8-3-1.2-4.6-.1-.6-.2-1.1-.5-1.6l2.2.2 5.2.7c.5.1 1 .2 1.5.1.1.2.3.2.5.2 1 .1 1.2-.2 1.2-1V40c0-1.2-.2-1.3-1.4-1.5-.3 0-.5-.2-.7 0-1.8-.2-3.6-.5-5.4-.5-.2 0-.4 0-.6-.2l-.1-.2c-.6-.2-1.1-.4-1.6-.8-.5-.5-1-1-1-1.7zM66.7 52.1l.3-.6v-4.1l.1-12.2c0-1 0-1 .9-1l.4-.1 4.2-.3c1.6 0 3.1-.2 4.7-.3a265.7 265.7 0 014.6-.3v3c0 .4 0 .5-.5.5l-4.2.3-2.1.1c-.3 0-.4.2-.4.4v.1l-.1 6.3v.2c0 .3.1.4.4.4h1c.2.3.5.3.7.3l4.1-.3c.5.1 1-.2 1.4-.1h1.6l-1.4 5.8c-.1.5-.2.5-.6.5l-5.6.4-5 .6-4 .4h-.5z"/><path class="tex_st6" d="M72.9 111.6l-.4.8c.3 0 .3-.1.5-.2l.4-.3c.8-.4 1.6-1 2.6-1.2.2.3.5.2.8.2 1 0 2 .5 2.7 1.2v.3c0 .1 0 .1-.2 0a2 2 0 00-.9 0c-.3 0-.5.3-.2.6l1.2 1.5.7.7c.1.2 0 .2-.2.3l-.1.1.4.5a9.8 9.8 0 005.9 2 8 8 0 003.4-.8l1.6-.8c.8-.3 1.5-.6 2.3-.7.8 0 1.5.5 1.5 1.5v1.4c-.6.2-1.1.6-1.6 1-.4.1-.5.5-.7.8l-1.1 3.1c-.2.6-.5.9-1 1h-1l-.3-.1c-1 0-1.8-.3-2.8-.2H86l-1.8-.5c-.7-.1-1.5-.3-2.3-.7l2.2-.7 2-.7c.1 0 .1 0 0-.1v-.1h-.3l-3.4-.6c-2-.4-4-1.2-5.7-2.2a9 9 0 01-3.3-2.8c-.8-1-1.3-2.3-1.3-3.6 0-.7 0-1.4.2-2.2.4-2 1-3.7 2.4-5.2.2-.2.3-.3.3-.6l1-.7c1.1-.5 2.3-.9 3.6-1.1.2.2.2.2.4-.1l.6-.1.4.2c.7-.3 1.4-.2 2.2-.2 0 0 .3 0 .3-.2l-.3-.2-1.5-.5c-.2 0-.4 0-.5-.3l1.2-.1c.5-.2 1-.2 1.5-.2 1.2 0 2.4 0 3.5.2 1 .2 1.9 0 2.8.2l3 .3c.8 0 1.5 0 2 .9.5.8.9 1.5 1.1 2.4v.6c0 .4-.2.6-.7.4l-.2-.1c-.4-.2-.8-.1-1.1.2l-.7.7c-.2.2-.3.2-.6 0a11.4 11.4 0 00-5.5-2.3l-.2.1.1.2.4.2 1.5 1c.3.2.6.4.7.8v.2l-.3.1-1-.5-2.8-1.7a9 9 0 00-5.3-.9c-1.6.3-3.1 1-4.5 1.8l-.5.3c-.1.1-.3.2-.2.4h.3c.5-.1.9-.4 1.4-.4a2 2 0 01-.8.8l-.8.7c-.8 1-1.5 1.9-2.1 3-.3.4-.5.7-.4 1.2z"/><path class="tex_st9" d="M23.7 82.4l-.1.5-.6.3L16 87l-.4.2c-.5.3-.6.2-1-.3a65.2 65.2 0 01-5.8-14.6l-.1-.4c-.2-.6-.1-.7.5-1l9.2-3.3.5-.2c.2 0 .3 0 .4.2l.2.5c1.7 4.6 3 9.2 4.2 14l.1.3zM191.7 71.8v.5a62.6 62.6 0 01-6.2 15c0 .2-.2.2-.4 0-.2 0-.4 0-.6-.2l-7.3-4c-.7-.3-.9-.2-.6-1.3l4.2-13.8v-.3c.2-.3.3-.4.7-.3l2.7 1 6.7 2.4.5.2c.3.1.4.3.3.8z"/><path class="tex_st6" d="M48.9 62a43.1 43.1 0 015.4.3c.4 0 .7.2 1 .6l2.7 3.5 3.3 4.2.2.3c.5.3.2 1.2 1 1.3l1.2 1.4 1 1.4 1.2 1.4 1 1.4 5.8 7.4c.3.3.5.7.4 1.2-.1.5-.2.6-.7.3A61.4 61.4 0 0161.1 79l-4.6-5.9-.3-.3c-.3-.5-.7-.6-1.3-.4-1.4.3-1.2.1-2-.7-2.5-2.7-4.8-5.7-7-8.8 0-.2-.4-.5-.3-.7.1-.4.5-.2.8-.2H49zM127.7 85.2c0-.3.2-.5.4-.7l6.3-8 10.4-13.3c.5-.6 1-1 1.8-1a68.2 68.2 0 016.3-.2c.2 0 .3.1.2.3l-.2.7a40.5 40.5 0 01-5.7 8.9l-.3.3c-.2.3-.5.4-.9.3l-1-.2c-.3-.1-.5 0-.7.2l-1 1.2-4 5.1c-.3.5-.7.9-1.2 1.2-3 2-6.2 3.7-9.6 5-.3.1-.5.3-.8.2z"/><path class="tex_st2" d="M49.8 54.8v-9.2-7.7c0-.6.1-1.1.3-1.6.5-.3 1-.3 1.5-.4l4.6-.6h1V53.3c0 .1-.1.3-.3.3l-.7.2-5.7 1h-.7z"/><path class="tex_st10" d="M77 131.7c0 .3.1.5.3.6a14 14 0 005.1 3.4l3 .9h1.4v.2c.1.2 0 .2 0 .2-.9 0-1.7.3-2.5.3-1.4 0-2.7-.2-4-.6H80v.3a14 14 0 004 3.1c.4.3.9.4 1.4.6 0 0 .2 0 .2.2h-1.7l-2.7-.7H81v.3l.8 1.4 2.1 3.5c.1.2.4.4.1.7-.2 0-.4-.3-.7-.2.1-.2 0-.3 0-.4l-.7-.7a64.1 64.1 0 01-8-9.6 14 14 0 01-1.5-4 41.1 41.1 0 01-1-5.4l.5.1c1 .8 2.1 1.4 3.2 2a31.5 31.5 0 0021.9 2h.5c0 .3-.3.4-.5.5a48 48 0 01-5.3 1.7l-3.8.8H88l-1.3.1c-1 .1-2 .2-3 0l-2.3-.3-3.1-.7-1.2-.3s0-.1-.1 0z"/><path class="tex_st9" d="M65.3 88.7a43.3 43.3 0 01-12-7.1l-4.4-4-2.7-3-2-2.5-1-1.2c-.1-.2-.3-.2-.5 0l-.6 1.6a38 38 0 00-1.9 6.7l-.5 3.8c-.3 2.5 0 5-.1 7.5 0 .3.1.7-.2.8-.3.1-.5-.2-.7-.3l-.2-.1c-.2-.2-.4-.5-.6-.4-.3.2-.2.6-.2.9a35.4 35.4 0 004 11.3c.2.4.4.7.3 1-.4 0-.5-.4-.8-.7a23.6 23.6 0 01-4.3-9.2 40 40 0 01-.9-5.6c-.2-2.2-.1-4.3-.1-6.5v-.3c.3.1.3.4.4.6l1.3 4.2c.1.2.1.4.3.5v.3l.1.1V87v-.2c-.1-.9 0-1.8-.2-2.6v-2.7-1a25.2 25.2 0 014.9-13.6c.3-.5.4-.5.7 0a46.8 46.8 0 006 9 55.5 55.5 0 0015.3 12.5c.2.1.5.2.6.4z"/><path class="tex_st2" d="M89.1 68.4c.2 1.5.6 3 1.3 4.3.7 1.2 1.1 2.5 1.3 4 .2 1.2 0 2.5-.9 3.6-.3.5-.8.8-1.3 1-.7.4-1.4.7-2.2.7l-1.8.2c-.5 0-1 0-1.5-.2h-.3a17 17 0 01-4.8-1c-.4-.1-.8-.3-1.3-.3 0-.9.3-1.8.6-2.7a3 3 0 001.6-.3c1-.4 1.8-1 2.6-1.6.9-1 1.7-1.9 2.3-3a8.2 8.2 0 001.3-4.5c1-.2 2-.2 3.1-.2z"/><path class="tex_st9" d="M159.2 111.5l2.3-3.7c1.5-2.8 2.7-5.6 3.5-8.6a25.2 25.2 0 00-6.4-24.2 44.2 44.2 0 00-3-3h-.3a49.9 49.9 0 01-18.5 15.8l-4 1.7h-.3c0-.1 0-.3.2-.3l.7-.4a48.1 48.1 0 0012.5-8.6c1.5-1.5 3-3 4.3-4.6 1.5-1.8 3-3.7 4.2-5.8 0-.2.1-.4.3-.5.2 0 .3.2.5.3a54.2 54.2 0 018.1 10.4 30 30 0 013 6.8c.4 1.7 1 3.4 1 5.2v.5l.1 1.2c0 1.1-.3 2.2-.2 3.3v.3l-.6 2.1c0 .3.1.4.4.4 0 .3-.1.5-.3.7h-.2.1c0 .3 0 .5-.2.6 0 0-.2 0 0 .2 0 .3-.2.6-.3.8-1.5 3.1-3.4 6-5.7 8.6-.3.3-.6.8-1 1l-.2-.2z"/><path class="tex_st11" d="M118.5 142.2c0 .5-.4.8-.7 1.2-1.3 1.9-2.3 4-3 6.2l-.6 2.4v.7c.4 0 .6-.2.9-.3 1-.7 2-1.4 3-2.3 3.6-3.4 5.8-7.6 7-12.3l.9-5.7c0-1 0-2 .3-3l.2 2a34.3 34.3 0 01-.8 8.8 19.6 19.6 0 01-5.2 9.4c-2.2 2.2-4 4.6-5.6 7.3-1 1.7-2 3.6-2.4 5.6l-.2.7c-.4-.7-.5-1.5-.5-2.2-.3-3 .1-5.9 1-8.8.6-1.6 1.2-3.2 2-4.8.2-.3.4-.6.4-1l.2-.2h-.2v.2l-.6.3-2.7 3a29.4 29.4 0 00-5.5 15c-.3 2.6-.2 5.1-.2 7.7 0 1 .2 1.8.3 2.7h-.2l-.6-2.7-.3-3.4v-3.8a28.6 28.6 0 0112.6-22.6l.5-.2v.1z"/><path class="tex_st10" d="M99.4 169.3c0-.5-.2-1-.3-1.4l-1.6-5.2-.9-2.8c0-.4-.2-.7 0-1a108.8 108.8 0 014.7 7c.3.2.4.5.6.9.6.9.8 1.9.8 3v4c0 2.4.5 4.7 1.4 6.9 0 .3.3.6.2 1l-2.4-2.2a42.6 42.6 0 01-11.3-19.2v-.5a42.2 42.2 0 006.4 8c.6.6 1.2 1 1.8 1.4l.6.1v.1z"/><path class="tex_st6" d="M167 99.8c-.2 0-.4-.1-.3-.4l.4-2 .1-.4c0-1 .3-2.2.2-3.3v-1.2l-.2-.5c0-1.8-.5-3.5-1-5.2a30 30 0 00-2.9-6.8 45.6 45.6 0 00-8.1-10.4c-.1-.1-.2-.3-.4-.3-.3.1-.3.3-.4.5-1.2 2-2.7 4-4.2 5.8-1.3 1.7-2.8 3-4.3 4.6-1.4 1.4-3 2.6-4.5 3.8a48.6 48.6 0 01-8.7 5.2l-.2.3-.6.2c-.3-.1-.3-.1-.4.2l-3.1 1v-.3l7-3.8c3-1.8 5.8-3.7 8.5-5.9 2.2-1.9 4.3-4 6.1-6.3 1.6-2 2.8-4.3 3.7-6.7.1-.4.2-.8.5-1a34.6 34.6 0 0111 12.2 24.9 24.9 0 011.7 20.8z"/><path class="tex_st12" d="M39.6 102.8v.5l1.4 1.6 2.3 2.3c1.2 1.2 2.7 2.2 4.1 3.2a35.2 35.2 0 009.1 3.8l1.4.4c.3 0 .6.1.8 0 0-.3-.2-.5-.4-.6-.9-.5-1.6-1.3-2.5-2a10 10 0 01-1.9-2l-1.2-1.3-1.8-3c-.4-.5-.6-1.2-.8-1.8-.4-1-.8-2.1-1-3.3v-.7l-.2-1.3v-1.5l.1-1.8c0-.2.1-.3.4-.4v.8a20.2 20.2 0 006.7 14.7c3 2.8 6.5 4.8 10.4 6.2l.4.3-3.6-.1-3.3-.5a44.3 44.3 0 01-12.7-4 24.7 24.7 0 01-7.3-5.6 19.2 19.2 0 01-3.6-6c0-.2-.2-.4 0-.6l.2.1 3 2.6z"/><path class="tex_st10" d="M77 106c-.5 0-1 .2-1.4.4h-.3c0-.2 0-.3.2-.4l.5-.3c1.4-.9 2.9-1.5 4.5-1.8 1.9-.3 3.6.1 5.3.9 1 .4 2 1 2.9 1.7l.9.5h.2c0-.1.1-.3 0-.4 0-.3-.3-.5-.6-.7l-1.5-1-.4-.2v-.2c2 .3 4 .8 5.6 2.1.3.3.4.3.6 0l.7-.6c.3-.4.7-.5 1-.2h.3c.5.2.7.1.8-.4v-.5c-.3-.9-.8-1.7-1.2-2.5-.5-.7-1.3-.8-2-.8-1-.1-2-.4-3-.3-1-.3-1.9 0-2.8-.2-1.1-.2-2.3-.2-3.5-.2-.5 0-1 0-1.5.2h-1.2c0 .3.3.3.5.4l1.5.5s.2 0 .3.2c0 .2-.2.1-.3.1-.8 0-1.5 0-2.2.2l-.4-.1c0-.3.4-.2.7-.4-2.4-.1-4.7-.2-6.9.3v-.3c1.6-.7 3.2-1 4.8-1.3l4.2-.5h5.8l3.9.1c.3 0 .6.2.8.3 1 .8 2 1.7 2.7 2.8.6.9.9 1.8 1 2.9l-.3 1.5c-.1.5-.7.7-1.1.3l-.4-.4-.5-.4c-.4-.2-.8 0-1.1.3-.3.5-.3.5-.8.3l-1-.6-1.1-.6c-.3.2 0 .3 0 .3l.7 1c.2.2.2.4.2.6 0 .3-.1.5-.4.5h-1.9c-1.5-.5-2.9-1.1-4.2-2A9 9 0 0082 106l-2 .2c-.8.2-1.6.6-2.3 1-1.6 1-3 2.3-4.1 3.9l-.6.6c-.1-.4.1-.8.3-1.1a17.6 17.6 0 013-3.6l.8-.9s.1 0 0 0zM97.5 147c1-.2 1.3-.4 1.6-1.3.2-1.4.2-2.6-.3-3.9-.3-.8-.9-1.3-1.7-1.5l-2.3-.6c-1.1-.3-2.2-.5-3.2-1v-.2h.8a9 9 0 002.7.4h1.7c-.2-.3-.5-.3-.7-.4a30 30 0 01-4.6-1.9l-1.7-1v-.3s0-.1.1 0c1 .2 2 0 3 .1 1.1 0 2.1-.2 3.3-.5-.3-.2-.5-.1-.6-.1h-2.2c-1.3 0-2.6-.3-3.8-.7l-.3-.2c0-.2.2-.1.3-.1h1.8a17.9 17.9 0 007.5-1.9c.2-.2.5-.4.9-.4v1.7c0 .4.1.7.5.8l2 1.1 3.7 2.2c.2 0 .3.2.4.3v.1c-.6 0-1-.2-1.4-.3l-4.6-1.8-.4-.1c-.1 0-.2 0-.3.2v2c0 .2.3.4.4.6l2.6 2.6.6.6v.2h-.2l-.4-.2-2.2-1.6-.3-.2c-.1-.1-.2-.2-.4-.1-.2 0-.2.2-.2.3v1.6l.2 1.7c0 .5.2.9.6 1.2.4.4.9.6 1.1 1.2l-.1.1-1.2-.5c-.2-.1-.3 0-.3.2.1 1 .2 2.2.5 3.2 0 .2.1.4-.1.6-1-.7-2-1.4-2.8-2.3z"/><path class="tex_st13" d="M24 65.9s.2 0 .2.2l.2.5 4.2 13 .1.5c.1.2 0 .3-.1.4h-.1c-1.1.6-2.2 1.2-3.4 1.6-.3-.3-.3-.8-.5-1.3l-.6-2-3.2-11-.2-.6c0-.2 0-.3.2-.4l3.1-1zM176.6 66l3 .8s.1.2 0 .4l-.2 1-3.8 13-.2.7c-.1.2-.3.3-.5.2l-2.9-1.4c-.5-.2-.5-.3-.4-.9l2-5.8 2.2-7.2.2-.6c.1-.3.2-.3.6-.3z"/><path class="tex_st10" d="M75 104.3c0 .3-.2.5-.4.7a9.5 9.5 0 00-2.4 5.2 14 14 0 00-.2 2.1c0 1.4.5 2.5 1.3 3.6.8 1.3 2 2.1 3.3 2.9 1.8 1 3.7 1.7 5.7 2.1 1.1.2 2.3.5 3.4.5l.3.1v.3l-2 .7-2.2.6c.8.5 1.6.6 2.3.8l1.8.3.5.1c1 0 1.9.3 2.8.2l.3.2c-.3.3-.7.3-1.1.4l-2.3.2c-3.4 0-6.7-.6-9.7-2.3l-1.7-1-.3-.3c.9-.1 1.6.1 2.4.2l2.4.2h2.5c0-.4-.3-.4-.4-.4-2.2-.2-4.3-.9-6.3-2-1.2-.6-2.3-1.5-3.3-2.6-.4-.5-.6-1-.5-1.6 0-1.8.1-3.5.4-5.2l.2-2.2.1-.6a6.8 6.8 0 013-3.2z"/><path class="tex_st13" d="M30.3 78.4c-.4 0-.5-.3-.6-.5-.9-1.4-1.5-3-2-4.5L25.3 66c0-.3 0-.4.3-.5l3.6-1c.2 0 .4 0 .4.2l.1.3 2.4 7c.1.3.2.6 0 1-.8 1.8-1.3 3.6-1.8 5.5zM170.6 77.8l-.2-.2c-.7-1.4-1.4-2.8-2.3-4a.9.9 0 01-.2-1c1-2.5 1.8-5.1 2.7-7.7.1-.5.2-.6.7-.4l3.4.9c.3 0 .4.2.3.5-.9 2.5-1.5 5.2-2.4 7.7a22 22 0 01-2 4.2z"/><path class="tex_st5" d="M119.3 122.2l.3-.7c1.6-3 2.5-6 2.4-9.3v-.4c.3 0 .3 0 .4.2l.5 1.8s0 .2.2.1l.1-.2c.4-2 .6-4 .4-5.9 0-1.2-.3-2.4-.8-3.5-.3-.6-.7-1-1.3-1.3a40.8 40.8 0 00-9.2-2c-3.1-.2-6.2-.2-9.3-.2h-1c1-.4 1.9-.4 2.7-.5a44.6 44.6 0 018.6-.3c3.2.1 6.3.6 9.4 1.5l.4.2c.3 0 .5.3.6.6a26.9 26.9 0 011.1 6.3 18 18 0 01-4.5 12.9c-.2.3-.5.6-.9.8h-.1z"/><path class="tex_st10" d="M81.3 153.3c0 .6.3 1.2.5 1.7a123 123 0 002 5l1.5 2.8c.2.3.4.6.3 1-.3-.1-.4-.4-.6-.6a54.1 54.1 0 01-9.2-22.3l2.6 1.8c0 1 .4 2 .7 3a39.2 39.2 0 005 9v.1c.4.5.5.8.3.8-.3.1-.4-.2-.6-.4a152.1 152.1 0 01-2.6-2h.1z"/><path class="tex_st4" d="M86 68.6c.1 1.7-.5 3.1-1.3 4.5-.6 1.1-1.4 2-2.3 3-.8.6-1.6 1.2-2.5 1.6a3 3 0 01-1.7.3c0-1 .4-1.8.6-2.8.6-1.9 1.1-3.8 1.8-5.6.2-.4.3-.6.7-.6 1.6-.2 3.2-.4 4.7-.4z"/><path class="tex_st12" d="M50.5 93.8c.3 0 .5.2.8.3 1 .8 2.2 1.5 3.3 2.2A36.4 36.4 0 0064 100l2.1.3c.4.1.8 0 1-.3l2.8-1.6.6-.2c.9-.3.7-.5.2-1l-2-1.7c-.3-.2-.6-.4-.6-.7l.6.2a31 31 0 007.2 3.1c.3 0 .5.1.7.3l-2.9.5c-1 .2-2.1.6-3.2 1-1 .5-1.8 1.2-2.4 2.1-.1.3-.3.3-.7.3A31.8 31.8 0 0152.7 96l-1.9-1.8s-.3-.2-.3-.5z"/><path class="tex_st10" d="M94.9 118.8v-1.5c0-1-.7-1.4-1.5-1.4s-1.5.3-2.3.6l-1.6.8a8 8 0 01-3.4.9c-2.3 0-4.1-1-6-2.1l-.3-.5.1-.1c.2 0 .3-.1.2-.3l-.7-.7-1.2-1.5c-.3-.3-.1-.6.2-.6l1 .1.2-.1-.1-.3a4 4 0 00-2.7-1.2c-.3 0-.6.1-.8-.1a6 6 0 012.5-.6c.5 0 1 .1 1.3.5.5.5.8 1 1.1 1.6l.6 1c.4.8.7 1.6 1.3 2.2 0 0 .1.2 0 .2l-.2.2h-1c-.1.3 0 .3.2.3 1.3.7 2.7 1.1 4.2 1.1 1.2 0 2.3-.3 3.4-.9 1.1-.6 2.1-1.5 3.2-2.3a51.4 51.4 0 013-1.8c.3-.2.5 0 .5.3v1.2c-.2 1-.2 1.9-.2 2.8l-.2 3.5-.2.1h-.1l-.5-1.4z"/><path class="tex_st11" d="M24 84.3l.3.3c.1.4 0 .6-.3.8l-2.3 1.2-6.8 3.8c-1 .5-1 .7-1.6-.5a93.7 93.7 0 01-7-17l-.2-.3c0-.3 0-.4.3-.5l.4-.2c.3 0 .4 0 .5.3l.7 2.4a56.8 56.8 0 006 13.9c.4.8.4.8 1.2.4l7.8-4.2c.3-.2.6-.4 1-.4zM176.2 84.3c.3 0 .5.1.8.3l8 4.2c.9.5.9.5 1.4-.4 2.2-4.1 4.2-8.3 5.6-12.8l.8-2.8.3-.7c0-.2.2-.2.3-.2l.5.2c.2 0 .3.2.3.5l-.2.6a66 66 0 01-7 16.6c-.7 1.3-.5 1.2-1.8.5l-7.4-4.1-1.5-.8c-.4-.3-.4-.3-.2-.8v-.3z"/><path class="tex_st8" d="M112.6 60.4V55l.4-.1c1.5 0 3 .2 4.6.4.3 0 .7.1 1 .4.2.3.5.6.9.8.2.2.3.4.3.7V61a7 7 0 01-2.4-.2v-3-.7c0-.2-.2-.3-.3-.3l-1.7-.1c-.2 0-.3 0-.3.2v3.7h-1.2c-.4 0-.9 0-1.3-.3z"/><path class="tex_st12" d="M76.7 85.2c1 0 1.9.4 2.9.5l3 .6c.9.2 1.7 0 2.5.3h1c.3 0 .7 0 1 .2H92c2.3 0 4.6-.5 6.7-1.6l1.2-1c.3-.3.5-.6 1-.6a3.6 3.6 0 01-2 2.9c-1.1.5-2.2.8-3.3 1-2.8.5-5.7.4-8.6.4-1.2-.3-2.5-.2-3.8-.3l-3-.3-3.4-.5c-.3 0-.4-.2-.4-.5l.3-1z"/><path class="tex_st14" d="M64 63.2v-4.7c0-.3.1-.4.4-.5l2.3-.4 1.7-.4c.5-.1 1 0 1.4.3 1.3.8 1 .3 1 1.9v1.3c.1.5 0 .8-.4 1-.4.3-.6.6-1 .7h-1a105.5 105.5 0 00-4.4.8zm4.3-4.5L67 59c-.4 0-.5.1-.5.5v2.3c0 .2 0 .4.2.6.5-.2 1-.1 1.7-.5v-3.1zM129 62.5l-.6-.4c-.2-.2-.3-.4-.3-.7v-3c0-.2 0-.4.3-.5h.1c1.2-.8 1.2-.8 2.6-.6l.7.1c1.9.4 1.9.4 3.1 1.7.2.2.3.3.3.5V61c-.8 0-1.5-.2-2.3-.5v-1c0-.3 0-.4-.3-.5-.6 0-1.2-.2-1.7-.3-.3 0-.4.1-.4.4v2.7c0 .2.1.4.4.4.5.1 1 .3 1.6.3.8.1 1.4.5 1.9 1.2l-1-.3-4.5-1z"/><path class="tex_st10" d="M97.1 158.4h1.6c.7 0 1-.4 1.1-1 .1-1.4-.3-2.6-.9-3.8-.7-1.4-1.3-2.9-2.2-4.2-.2-.4-.5-.8-.4-1.2.2 0 .4.2.6.4l3.9 4c.4.4.6.8.6 1.5v6.3c0 .4 0 .9-.3 1-.3.1-.5-.2-.8-.4l-2.7-2c-.2-.2-.4-.3-.5-.6z"/><path class="tex_st0" d="M106.4 112h.3c1.2.2 2.3-.2 3.2-1l1.3-.9c1-.6 2.2-.9 3.4-1h2c0 .3-.2.3-.4.4a7 7 0 00-2.6 2.5l-.8 1.1a3 3 0 01-2.7 1c-1.2-.2-2.8-1-3.7-2zM80.8 109.1h1.8a8 8 0 014.7 1.8c1 .9 2.3 1.3 3.7 1.1l-.1.3a9 9 0 01-2.1 1.4l-1 .3c-1.3.3-2.4 0-3.2-1l-.8-1a7 7 0 00-2.4-2.4c-.2-.1-.4-.2-.6-.5z"/><path class="tex_st14" d="M94.9 55.7l1.6-1.2h2c1.8 0 1.8 0 3.1 1 .3.2.4.4.4.7v1c0 .3-.2.4-.4.4h-1.8c-.2 0-.3-.2-.3-.5v-1c0-.2 0-.3-.2-.3h-1.7c-.1 0-.2 0-.3.2-.2.5 0 1 0 1.6l-.1 2.4h-2.5v-4.1c.2 0 .2-.1.2-.2zM104.5 60.2v-.6l.9-4.6c0-.3.1-.4.5-.4h3c.3 0 .5.2.5.5l.8 5.2-2-.1-.2-1.3-.2-2.3c0-.4-.3-.5-.5-.5-.3 0-.3.2-.3.4l-.2 1.3c-.2.8-.1 1.6-.4 2.4h-1.9z"/><path class="tex_st13" d="M167 63.5l-2 6-.4-.3-2.6-2.5c-.3-.3-.4-.5-.3-.8l1-2.7c0-.3.1-.4.4-.4l4 .7z"/><path class="tex_st8" d="M92.7 59.8v.3l-4.2.1H88v-4.7-.3c0-.2.2-.4.4-.4l2.8-.1 2-.1c.2 0 .3 0 .3.3v.8c0 .2 0 .3-.3.3h-2.4c-.2 0-.3.2-.3.3V59l.1.6c.2.3.5.1.8.1l1.4.1z"/><path class="tex_st14" d="M121.4 61.4v-.6-4.4c0-.6 0-.6.5-.5l4.5.6c.2 0 .3.2.3.4v1c-.6 0-1.2 0-1.7-.2-1.4-.1-1.2-.3-1.2 1v2c0 .3.1.4.4.5l1.6.2c.3 0 .3.2.3.4l-1.7-.1c-1-.1-2-.4-3-.3z"/><path class="tex_st8" d="M79.2 61v-5c0-.2 0-.4.3-.4h.4c.6-.1 1.2-.3 1.6-.1.5.2.5 1 .7 1.4l1.3 3.7h-1.2c-.4 0-.7-.2-1 .2-.7 0-1.4.2-2.1.1zM72.5 61.8V57c0-.4 0-.5.3-.5l4.5-.6c.5 0 .5 0 .5.4v.1c0 .8 0 .8-.8 1l-1.8.3c-.2 0-.3.1-.3.3 0 1-.1 2.1 0 3.2v.2l-2.4.4z"/><path class="tex_st0" d="M98.1 40.2c.2 0 .3-.2.3-.4l.4-1.4.3.3c1 3.7 2 7.4 3.2 11.1h-1.5c-.2-.1-.2-.4-.2-.7l-2.3-7.9a4 4 0 01-.2-1z"/><path class="tex_st5" d="M122.2 83a63.1 63.1 0 00-6.5-14V69c.3-.2.5 0 .8 0 .5-.1.8.1 1 .5a49.4 49.4 0 014.8 12l.3 1.6h-.4z"/><path class="tex_st13" d="M33.3 63.6c.8-.3 1.6-.4 2.4-.5l1.5-.3c.2 0 .4 0 .4.2v.1c.5 1 .5 1-.3 1.9l-2.2 2.6c-.2.3-.3.3-.4 0l-1.4-4z"/><path class="tex_st8" d="M84 60.6V59v-3.3c0-.6 0-.7.6-.7l1.6-.1h.2v5.3l-2.4.3z"/><path class="tex_st0" d="M147.5 38.6c.2-.3.5-.2.7-.1 1.2.2 1.3.4 1.4 1.6v6c0 1-.1 1.2-1.1 1.1-.2 0-.5 0-.6-.2.2-.3.2-.6.2-.9v-6.3c0-.5 0-1-.6-1.2zM139 46c.3.5.4 1 .5 1.6l1.1 4.7c0 .2.2.4 0 .7h-.9c-.3 0-.5-.2-.5-.5l-.2-.9-1.3-5.3c0-.3 0-.4.3-.4l1 .1z"/><path class="tex_st14" d="M132.3 67.5c.3 0 .5 0 .5-.3v-.4h2.4c.1 1.5.1 1.5-1.3 2.2-.3.1-.6.2-1 .1l-2.5-.5c-.4 0-.7-.2-1-.5l-.8-.7c0-.3 0-.5.3-.5h1.4l.3.3c.2.2.4.2.7.1h.3c.3.3.5.3.7.2zM74.8 65.7l.1.5c.2.2.5.2.7 0 .7-.3 1.4-.3 2.2-.4v.4c0 1.2.2 1-1 1.2l-3.5.5h-.9v-2.2h2.4zM119.7 65.3c0 .3.1.5-.1.6l-.3.2a3 3 0 01-2.5.7c-1-.2-2.2-.2-3.3-.3h-.6c-.2-.1-.3-.2-.3-.5v-.7c.5 0 .9-.3 1.3-.2.4.2.8 0 1.2 0h.1c.2.3.5.2.8.2h.9c0 .1 0 .2.2 0h2.6zM125.1 66.3l1.5.3c.2.1.1.3.1.5 0 1 .1 1-.8.8l-4-.6c-.5 0-.6 0-.6-.5l.1-1.5 1.1.1 1.2.1.2.6c.3.3.8.3 1.2.2z"/><path class="tex_st13" d="M110.7 63c0 .4.2.7.1 1h-1.2a2 2 0 00-1 .3h-2.8l-1-.2h-1c-.1-.4 0-.7.2-1 .4 0 .9-.2 1.3 0 .4 0 .7 0 .9-.5l1.4.1c.2.3.6.1.8.2l.6.2h1.7z"/><path class="tex_st4" d="M64 63.2h1.3a105.5 105.5 0 014-.8c0 .2-.2.5.1.6l.8.3c.6.3.6.3.6 1h-2.4v-.4l-.3-.2c-.5 0-1 0-1.4.2-.3 0-.1.4-.2.6-.4 0-.8-.3-1.1-.1l-1.3.1v-1.3z"/><path class="tex_st2" d="M84 60.6l2.4-.3v1.5h-2.5c-.5 0-1 0-1.6.2l-.5-1c-.2 0 0 .1-.1.2v.4h-2.5a.8.8 0 010-.7c.7.1 1.4-.2 2-.2.4-.3.7-.2 1 0l1.2-.1c.3.2.3.2.6 0z"/><path class="tex_st14" d="M101.6 64.9l-.2.2c-1.1.8-1.1.8-2.6.8H98c-1.6 0-1.6 0-3-1 .1-.3.3-.4.6-.4H97.3c0 .1.2.1.2 0h3.7c.3 0 .4.1.4.4z"/><path class="tex_st2" d="M88 60.1l.5.1h4.2v.3c0 .2 0 .4-.3.4L91 61c-.3 0-.4 0-.4.4l-.1.8H88c-.2-.7 0-1.4 0-2z"/><path class="tex_st0" d="M127.6 47h1c.4 0 .5.1.6.5l.3 1.7.4 1.8c0 .4 0 .4-.5.6-1-.1-1-.1-1.1-1l-.7-3.6z"/><path class="tex_st8" d="M90.4 64.6h.1l.2.1h.3c0 .1.1.1.2 0h2l.2.2v.8l-.2.2c-.3 0-.7-.1-1 .2h-1.3c0-.1-.2-.2-.4 0-.8 0-1.6 0-2.4.2-.3-.5-.2-1-.1-1.4h1.8c.2 0 .5 0 .6-.3z"/><path class="tex_st1" d="M169.2 65.7l-2 6c0 .2-.3.3-.4 0-.3-.3-.7-.7-.8-1.1-.2-.5.3-.8.6-1.2l2.3-3.7h.3z"/><path class="tex_st13" d="M68.4 68.6v-2.9h2.4v2.1c0 .5 0 .5-.5.6l-1.5.2h-.4z"/><path class="tex_st5" d="M155.4 62c1.9 0 3.9.2 4.8.6v.3l-.7 1.7c-.6 0-1-.6-1.5-.9l-1.9-1.1c-.2-.1-.4-.2-.7-.6z"/><path class="tex_st4" d="M72.5 61.8l2.4-.4c.8.1 1.5-.2 2.2-.2 0 1 0 1-.9 1.1l-.8.1c-.4 0-.5.3-.6.7-.8-.1-1.6 0-2.4.1v-1.4z"/><path class="tex_st14" d="M86.4 64.5v1.8c-.3 0-.6 0-.8.2-.6 0-1.1.2-1.7 0l-.6-1.5v-.5h3z"/><path class="tex_st4" d="M112.6 60.4c.4.2.9.2 1.3.2h1.1v2.2h-2.4v-2.4z"/><path class="tex_st13" d="M25.6 84.7l-.3-.5c-.1-.5-.1-.6.3-.8l1.6-.7 1.3-.6c.8-.4.7-.3 1 .3 0 .3 0 .4-.3.5l-3.6 1.8z"/><path class="tex_st4" d="M121.4 61.4c1-.1 2 .2 3 .3.6 0 1.1.2 1.7 0v.7c0 .3-.1.3-.4.3l-1.4-.2c-.3 0-.5 0-.6.4h-2.3v-1.5z"/><path class="tex_st1" d="M86.4 64.5h-3.2c-.3-.5-.4-1-.5-1.5h3.7v1.5zM31.6 66a366 366 0 002 3.2c.2.2.2.4 0 .7L33 71l-1.7-5.2h.4z"/><path class="tex_st14" d="M81 67h-1.8v-2.1h2.4v1.8l-.5.2zM108.6 64.3l1-.2h1.2l.3 1.9c0 .2 0 .3-.3.3h-.3l-1.4-.2c-.2-.4-.2-.9-.3-1.3l-.2-.5z"/><path class="tex_st4" d="M86.4 63h-3.7l-.4-1c.5-.2 1-.2 1.6-.2h2.5v1.3zM117.4 60.8a7 7 0 002.3.2v1.8h-2.3v-2z"/><path class="tex_st11" d="M89.5 143c.2 0 .3 0 .5.2l1.7 1.4c.5.6 1.2.9 2 .9.2 0 .5 0 .6.4-.4.3-.9.2-1.3.3-1 .3-1.1.3-1.8-.6l-1.4-2c-.1-.2-.3-.3-.3-.6z"/><path class="tex_st2" d="M94.7 60h2.5c0 .5.2 1 0 1.6h-2.4c-.2-.5 0-1.1 0-1.7z"/><path class="tex_st13" d="M97.2 64.4h-1.6c-.3 0-.5.2-.5.5-.2 0-.4-.2-.4-.5l.1-1.6h2.3l.1 1.6z"/><path class="tex_st14" d="M64 69.2v-1.6h2.5V69c-.3 0-.6 0-.8.2-.4.1-.8.3-1.2.2l-.4-.2z"/><path class="tex_st13" d="M66.5 67.6H64v-1.7h2.4v1.7z"/><path class="tex_st2" d="M98.7 61.5c-.2-1.5 0-1.4 1-1.4h2c.1 0 .3.2.3.4v.7H100c-.2 0-.4 0-.6.2a99.2 99.2 0 01-.7 0z"/><path class="tex_st14" d="M103.8 64h1c.4 0 .7.1 1 .3-.1.5-.1 1.1-.4 1.6h-1.7-.3c0-.7.2-1.3.4-1.8z"/><path class="tex_st1" d="M72.5 63.3c.7-.2 1.5-.3 2.3-.2 0 .5.1 1 0 1.6h-2.3v-1.5zM66.5 66H64v-1.5c.4 0 .9 0 1.3-.2.3-.1.7.2 1 .2v1.4z"/><path class="tex_st2" d="M129 62.5c1.4.2 3 .6 4.4 1 .3 0 .6 0 1 .2l.2.1-.9.3h-1c-.2-.3-.6-.3-1-.3-.3-.2-.7-.2-1-.3-.8 0-1.3-.4-1.8-1z"/><path class="tex_st1" d="M132.8 64.1h1l.8-.3c.7.4.7 1 .6 1.7h-2.4v-1.4zM70.8 65.7h-2.4v-1.4h2.4v1.4z"/><path class="tex_st4" d="M108.2 60.2l2 .1c.1.5.3 1 .2 1.5-.6.1-1.3.3-2 .2l-.2-1.8z"/><path class="tex_st13" d="M175 84l-.1.5c0 .1-.2.2-.3 0l-1.8-.7a.7.7 0 01-.4-.5l-.1-.7c0-.1 0-.3.2-.2l2.4 1.1c.1.1.2.2.1.5zM90.4 64.6l-.6.3H88v-1.4h2.3v1.1z"/><path class="tex_st1" d="M117.4 62.8h2.3v1.5h-2.3v-1.5z"/><path class="tex_st4" d="M104.5 60.2h1.9c0 .5 0 1-.3 1.6h-2l.4-1.6z"/><path class="tex_st1" d="M81.6 62.5v1.2h-2.4v-1.3h2.4z"/><path class="tex_st13" d="M123.7 65.5l-1.2-.1h-1.1a3 3 0 010-1.3h2.3v1.4z"/><path class="tex_st1" d="M130.3 67H129c-.2 0-.3.2-.3.4a.7.7 0 01-.5-.5c-.2-.3-.1-.7 0-1 0-.2 0-.3.2-.3l1.9.4.1.2c.1.3.1.5 0 .8z"/><path class="tex_st13" d="M79.2 63.7h2.4v1.2h-2.4v-1.2z"/><path class="tex_st4" d="M99.5 61.5c.2-.3.4-.3.7-.3h1.8v1.2h-2.4v-1z"/><path class="tex_st1" d="M123.7 64h-2.3v-1.2h2.3v1.3zM97.1 62.8h-2.3v-1.2h2.4v1.2zM112.6 62.9h2.4V64h-2.4v-1.2z"/><path class="tex_st13" d="M132.8 65.5h2.4v1.2h-2.3c-.2-.4-.2-.8 0-1.2z"/><path class="tex_st1" d="M90.3 63.5H88v-1.3h2.4v1.3z"/><path class="tex_st13" d="M112.6 64h2.4v1c-.3.1-.7.3-1.1.1-.4-.1-.8.2-1.3.2v-1.2zM101.6 64.9c0-.3-.1-.4-.4-.4h-1.7v-1h2.5v1c0 .2-.2.3-.4.4z"/><path class="tex_st1" d="M104.2 61.8h2v.8c-.2.4-.5.5-.9.4H104l.3-1.2z"/><path class="tex_st13" d="M72.5 64.7h2.3v1h-2.3v-1zM117.4 64.3h2.3v1h-2.4v-1z"/><path class="tex_st1" d="M102 63.5h-2.4v-.2-.9h2.4v1zM108.5 62c.6 0 1.3 0 2-.2 0 .4.2.8.1 1.3H109c-.2 0-.4 0-.6-.2v-.3-.6z"/><path class="tex_st4" d="M140 53h.7c.9-.1 1.7.1 2.6.3l3.2.5 1.3.3v.1h-.5l-4.3-.7-2.1-.3c-.3 0-.6 0-.8-.2zM81.6 62.5h-2.4v-.9h2.4v.9z"/><path class="tex_st1" d="M161.8 62.8l-.1.6-.7 2c0 .2-.1.3-.3.2l-.3-.3v-.2l1.1-2.4h.2l.1.1z"/><path class="tex_st2" d="M167.4 65.9a4.5 4.5 0 01.8-2h.3l.1.2-.8 1.3-.4.5z"/><path class="tex_st13" d="M80.8 44.5l-4 .3c-.4 0-.6 0-.8-.2h.5c.5 0 1 0 1.5-.2H80.8z"/><path class="tex_st4" d="M31.9 63.8h.2c.2.5.6 1 .6 1.5-.6-.2-.7-.8-1-1.2 0-.1 0-.2.2-.3z"/><path class="tex_st1" d="M80.8 44.5v-.2l-.1-.1 2.8-.2c.2 0 .3.1.2.3h-1.5c-.5 0-.9.3-1.4.2z"/><path class="tex_st13" d="M77.1 61.2c-.7 0-1.4.3-2.2.2v-.2l2-.3c.2 0 .3.1.2.3z"/><path class="tex_st12" d="M95.5 93.8l-.2-.3c.6-.1 1.2-.4 2-.2-.7.3-1.2.6-1.8.5zM88.2 142c-.6-.8-.6-1-.6-1.6.3.5.8.8 1 1.3a4 4 0 00-.4.3zM110.9 134.2l.2-.2c.6 0 1.2.3 1.6.7-.6-.1-1.2-.2-1.8-.5z"/><path class="tex_st4" d="M38.6 62.5c.3.2.4.5.4.8l-.1.2-.3-.1c0-.3-.3-.6 0-1z"/><path class="tex_st12" d="M122.2 83h.4c.1.4.3 1 .1 1.5-.3-.5-.3-1-.5-1.5z"/><path class="tex_st1" d="M148.1 54.2a5 5 0 012 .3v.1h-.6l-1.4-.2v-.2z"/><path class="tex_st11" d="M128.4 90.6v.3c-.4.3-.9.3-1.3.4.4-.4.8-.6 1.3-.7zM99.6 62.4v.9c-.3-.3-.2-.7-.2-1 0-.6 0-.6-.6-.8v-.2h.2l.5.1.1 1z"/><path class="tex_st4" d="M88 66.3a8 8 0 012.5-.2c-.8.1-1.6.3-2.4.2z"/><path class="tex_st12" d="M159.2 111.5l.2.3-1 1c.2-.6.2-.6.8-1.3z"/><path class="tex_st2" d="M92.7 59.8c-.4-.2-1 0-1.4 0-.3 0-.6 0-.8-.2h2c.2 0 .3 0 .2.2zM97.3 56c0-.2.2-.2.4-.2h1.6l.2.3-1-.1h-1.2z"/><path class="tex_st12" d="M106.9 137.9c.4 0 .7.2 1.1.6a3 3 0 01-1.5-.6h.4z"/><path class="tex_st1" d="M93.2 64.7h-1.9c.7-.2 1.3-.2 1.9-.2l.2.2h-.2z"/><path class="tex_st4" d="M31.6 66h-.4l-.3-.9V65c.3.2.5.5.7 1z"/><path class="tex_st5" d="M169.2 65.7h-.3c0-.3.1-.5.3-.7h.2s.1.1 0 .2c0 .2 0 .3-.2.5z"/><path class="tex_st2" d="M90.4 56.3c0-.1.1-.2.3-.2h1.5c-.6.2-1.2 0-1.8.2z"/><path class="tex_st12" d="M96.6 158.7l-.5-.5v-.2h.2c.2 0 .4 0 .4.2v.5z"/><path class="tex_st11" d="M88.9 142.2c.6.2.6.2.6.8-.3-.2-.5-.4-.6-.8z"/><path class="tex_st12" d="M106.2 174.9h.2l.2.2-.1.7c-.2-.3-.3-.6-.3-1z"/><path class="tex_st5" d="M78 44.4c-.5.2-1 .2-1.5.1.5-.2 1-.2 1.5-.1z"/><path class="tex_st12" d="M74.3 102v.3c-.2 0-.5.2-.9.1.3-.3.6-.4 1-.5z"/><path class="tex_st4" d="M125.1 66.3c-.4 0-.9.1-1.2-.2.4 0 .8 0 1.2.2z"/><path class="tex_st1" d="M92.2 66c.3-.2.7 0 1-.1h.2l-.2.2h-1z"/><path class="tex_st5" d="M80.7 44.2v.1h-1.3c.4-.2.9-.2 1.3-.1z"/><path class="tex_st1" d="M150.2 54.6h.8l.2.1-.3.2-.7-.1v-.2z"/><path class="tex_st4" d="M79.2 67h1l-.7.1-.3-.1z"/><path class="tex_st1" d="M65.7 69.2c.2-.2.5-.2.7-.2-.2.3-.4.2-.7.2z"/><path class="tex_st4" d="M85.6 66.5c.2-.2.5-.2.8-.2-.2.3-.5.2-.8.2z"/><path class="tex_st5" d="M140 37.6c.4-.1.7 0 1 .1a1 1 0 01-1-.1z"/><path class="tex_st9" d="M131.4 90c.2-.4.2-.4.5-.3-.1.2-.3.3-.5.2z"/><path class="tex_st10" d="M79.9 102.4c-.2.3-.2.3-.4.1 0-.1.2-.2.4-.1z"/><path class="tex_st1" d="M131.3 67.3h-.7.7z"/><path class="tex_st2" d="M81 67l.6-.3c0 .3-.3.3-.5.2z"/><path class="tex_st13" d="M64 69.2l.5.2c-.4.2-.4.2-.4-.2zM75.5 66.2c-.2.2-.4.2-.6 0h.6z"/><path class="tex_st4" d="M132.3 67.5c-.2.1-.5 0-.6-.1l.6.1z"/><path class="tex_st11" d="M147.3 54.2h.6v.2c-.2 0-.4 0-.6-.2z"/><path class="tex_st7" d="M150.2 54.6v.2l-.7-.1h.7z"/><path class="tex_st10" d="M104 142.2h-.3c-.1 0-.2-.2-.1-.3h.2l.1.3z"/><path class="tex_st4" d="M68.4 68.6h.4c-.1.1-.3.3-.4 0z"/><path class="tex_st12" d="M106.7 176.4v-.1zM30.7 64.7l-.1-.1v-.2h.1V64.8z"/><path class="tex_st1" d="M90.5 66.1h.5-.5z"/><path class="tex_st5" d="M119.1 122.7c0-.2 0-.4.2-.5l.1.1c0 .2-.1.3-.3.3z"/><path class="tex_st10" d="M102 146.1h.3v.1l-.2-.1z"/><path class="tex_st4" d="M113 55h-.4c.1-.2.2 0 .4 0z"/><path class="tex_st10" d="M101.8 146l-.4-.3.1-.1c.2 0 .3.1.4.3zM106.9 137.9h-.4l-.2-.1.1-.2c.2 0 .4.1.5.3z"/><path class="tex_st12" d="M30.8 64.6l.2.3-.1.2c-.2-.1-.2-.2-.2-.4z"/><path class="tex_st4" d="M148 54.4l-.1-.2h.2v.2h-.2z"/><path class="tex_st11" d="M118.7 142l.1-.1zM118.4 142.1l.3-.1-.1.2h-.2z"/><path class="tex_st10" d="M104 142.2c0 .2 0 0 0 0z"/><path class="tex_st11" d="M95 145.7h.3s-.1.1-.2 0z"/><path class="tex_st2" d="M86.4 55h-.1z"/><path class="tex_st1" d="M90.7 64.7h-.2c.1-.1.2 0 .2 0z"/><path class="tex_st13" d="M91.2 64.7c0 .1-.2.1-.2 0h.2z"/><path class="tex_st10" d="M101.9 145.9s.2 0 .1.2l-.2-.2z"/><path class="tex_st2" d="M94.9 55.7s0 .2-.2.2c0-.1 0-.2.2-.2z"/><path class="tex_st13" d="M93.2 64.7h.2v.2l-.2-.2z"/><path class="tex_st5" d="M76.2 44.5H76h.2zM119.1 122.7z"/><path class="tex_st12" d="M66.9 117v-.1z"/><path class="tex_st5" d="M79 44.3h-.2.3z"/><path class="tex_st13" d="M93.4 66l-.2-.1.2-.2v.2z"/><path class="tex_st6" d="M166.4 101.3c-.2-.2 0-.2 0-.2v.2z"/><path class="tex_st2" d="M97.3 64.4h.3v.1h-.3zM99.4 64.4h-.2s.1-.1.2 0z"/><path class="tex_st10" d="M104.3 181.7h.1z"/><path class="tex_st12" d="M84 146.3c.5 0 .6.3.8.6-.4 0-.7-.1-.8-.5v-.1z"/><path class="tex_st7" d="M91.6 138.5v.2h-.1c-.2 0-.3 0-.4-.3.3-.1.4 0 .5.1z"/><path class="tex_st3" d="M83.3 145.9c.3-.1.5.2.7.2V146.4c-.3-.1-.5-.2-.7-.5z"/><path class="tex_st12" d="M84.8 147z"/><path class="tex_st10" d="M85 156.2c0-.1 0-.1 0 0zM85 156.2z"/><path class="tex_st5" d="M50.7 109v-.1h.1c.1.1.2.2.1.3l-.2-.1z"/><path class="tex_st3" d="M42.4 104.6c.3-.1.4 0 .5.2-.2 0-.4 0-.5-.2z"/><path class="tex_st2" d="M138.8 35.1z"/><path class="tex_st3" d="M126.5 41.2l-3.4-.2c-.4 0-.5 0-.5-.5l.5-3 .5-3.1v-.7c.3-.6.3-1.2.4-1.8l.3-1.7c0-.2 0-.5.3-.7l.7 3.9 1.2 7.1v.7z"/><path class="tex_st6" d="M77 131.7h-.1c0-.1 0-.1 0 0z"/><path class="tex_st3" d="M38 86.7V86.7z"/><path class="tex_st6" d="M166.7 100.5h-.1.1z"/><path class="tex_st3" d="M115.2 146v-.1h.2l-.2.2z"/><path class="tex_st6" d="M99.4 169.3v.1zM77 106c.1 0 0 0 0 0zM81.3 153.3c0-.1 0-.1 0 0z"/><path class="tex_st3" d="M117.4 64.3l-.1 1h-1.4c-.2-.2-.4-.2-.7-.2h-.1a31.9 31.9 0 010-2.3v-2.2-2.9-.8c0-.1.1-.3.3-.3l1.7.2c.1 0 .2.1.2.3v7.2zM68.3 58.8c.1 1 0 2.1 0 3.2-.5.3-1.1.2-1.6.4-.2-.2-.2-.4-.2-.6v-2.3c0-.4 0-.4.5-.5l1.3-.3zM108.5 62v.6l-.9.1h-1.4v-.9l.2-1.6c.3-.8.2-1.6.4-2.4l.2-1.2c0-.2 0-.5.3-.5.2 0 .5.1.5.5l.2 2.3.2 1.3c0 .6 0 1.2.3 1.8z"/><path class="tex_st13" d="M115.2 65.1c.3 0 .5 0 .8.2-.3 0-.6 0-.8-.2zM116.9 65.3h.2c-.1.2-.2.1-.2 0z"/><path class="tex_st4" d="M107.6 62.7h.8v.2c-.2 0-.6 0-.8-.2z"/><path class="tex_st13" d="M97.3 64.5h.3-.3z"/><path class="tex_st4" d="M99 61.4h-.2c0-.1.1-.1.2 0z"/></svg>