<?xml version="1.0" encoding="utf-8"?>
<!-- Generator: Adobe Illustrator 24.1.0, SVG Export Plug-In . SVG Version: 6.00 Build 0)  -->
<svg version="1.1" id="Layer_1" xmlns="http://www.w3.org/2000/svg" xmlns:xlink="http://www.w3.org/1999/xlink" x="0px" y="0px"
	 viewBox="0 0 200 200" style="enable-background:new 0 0 200 200;" xml:space="preserve">
<g>
	<path style="fill:#FCFDFD;" d="M199.441,109.812c-0.32,2.184-0.517,4.387-0.879,6.564c-0.472,2.835-1.047,5.655-1.773,8.436
		c-0.884,3.388-1.901,6.739-3.164,10.008c-0.899,2.326-1.858,4.627-2.893,6.899c-1.306,2.867-2.757,5.656-4.336,8.377
		c-1.682,2.896-3.525,5.689-5.488,8.409c-1.974,2.735-4.088,5.351-6.314,7.878c-1.659,1.883-3.395,3.696-5.229,5.413
		c-0.883,0.827-1.701,1.728-2.615,2.518c-1.755,1.516-3.549,2.987-5.342,4.458c-2.136,1.753-4.452,3.262-6.734,4.808
		c-2.35,1.591-4.797,3.04-7.331,4.336c-1.439,0.736-2.843,1.54-4.308,2.228c-3.273,1.537-6.601,2.93-10.017,4.124
		c-2.172,0.759-4.36,1.461-6.577,2.062c-2.846,0.772-5.724,1.41-8.629,1.94c-2.632,0.48-5.283,0.794-7.933,1.121
		c-11.037,0.867-13.134,0.826-21.762-0.23c-2.818-0.342-5.615-0.787-8.396-1.357c-1.381-0.283-2.75-0.61-4.12-0.938
		c-2.795-0.67-5.531-1.535-8.26-2.43c-7.044-2.696-11.178-4.656-11.279-4.707c-0.577-0.292-1.149-0.594-1.727-0.882
		c-4.258-2.115-8.277-4.628-12.149-7.375c-2.746-1.948-5.39-4.033-7.917-6.262c-3.96-3.493-7.665-7.237-11.046-11.296
		c-1.563-1.877-3.077-3.794-4.477-5.797c-1.039-1.487-2.079-2.976-3.061-4.502c-0.9-1.399-1.757-2.83-2.57-4.281
		c-0.977-1.744-1.927-3.505-2.816-5.294c-0.873-1.755-1.67-3.548-2.433-5.357c-0.748-1.774-1.434-3.57-2.086-5.379
		c-0.546-1.513-1.012-3.054-1.484-4.593c-0.586-1.912-1.111-3.84-1.573-5.782c-0.492-2.069-0.913-4.159-1.263-6.257
		c-0.36-2.157-0.672-4.328-0.87-6.505c-0.289-3.179-0.538-6.366-0.542-9.563c-0.005-4.032,0.263-8.046,0.7-12.056
		c0.272-2.492,0.694-4.956,1.08-7.428c0.146-0.933,0.359-1.856,0.578-2.776c0.346-1.457,0.708-2.911,1.091-4.359
		c0.34-1.288,0.671-2.581,1.088-3.845c0.498-1.509,0.996-3.019,1.548-4.512c0.635-1.718,1.289-3.428,2.014-5.108
		c0.901-2.087,1.877-4.139,2.919-6.163c1.5-2.915,3.14-5.741,4.909-8.501c1.88-2.933,3.921-5.746,6.092-8.468
		c2.807-3.519,5.89-6.778,9.136-9.894c3.213-3.084,6.646-5.89,10.242-8.511c3.011-2.194,6.132-4.211,9.371-6.041
		c3.69-2.085,7.5-3.927,11.432-5.523c2.659-1.079,5.351-2.063,8.086-2.918c2.17-0.678,4.374-1.264,6.586-1.789
		c2.161-0.513,4.343-0.953,6.533-1.321c2.12-0.356,4.259-0.614,6.397-0.849c1.567-0.172,3.147-0.229,4.72-0.351
		c5.056-0.392,10.102-0.135,15.135,0.322c2.653,0.241,5.298,0.608,7.926,1.106c1.838,0.348,3.668,0.728,5.495,1.125
		c0.665,0.144,1.34,0.28,1.995,0.478c1.752,0.529,3.52,1.002,5.268,1.549c1.943,0.609,3.853,1.304,5.755,2.022
		c1.626,0.614,3.223,1.301,4.809,2.016c1.755,0.792,3.488,1.626,5.192,2.52c1.951,1.024,3.864,2.113,5.752,3.251
		c2.016,1.215,3.984,2.503,5.897,3.867c2.44,1.739,4.785,3.603,7.077,5.54c3.272,2.764,6.294,5.781,9.187,8.924
		c2.469,2.681,4.738,5.534,6.872,8.496c1.766,2.451,3.418,4.971,4.991,7.545c1.528,2.499,2.88,5.095,4.16,7.727
		c1.158,2.384,2.203,4.82,3.157,7.291c0.968,2.506,1.836,5.05,2.583,7.63c0.386,1.335,0.746,2.678,1.091,4.026
		c0.278,1.087,0.751,2.834,1.298,5.49C199.79,88.782,200.525,98.646,199.441,109.812z M100.051,195.501
		c6.047-0.019,12.038-0.583,17.979-1.729c3.437-0.663,6.833-1.482,10.174-2.51c4.848-1.492,9.551-3.362,14.097-5.62
		c3.101-1.541,6.121-3.227,9.038-5.088c2.355-1.502,4.648-3.101,6.859-4.813c2.462-1.907,4.869-3.88,7.137-6.013
		c3.966-3.731,7.648-7.723,10.858-12.132c0.68-0.934,1.414-1.823,2.058-2.792c0.895-1.347,1.793-2.694,2.693-4.037
		c1.091-1.628,2.001-3.352,2.983-5.036c1.411-2.418,2.528-4.987,3.693-7.527c1.068-2.328,1.915-4.746,2.736-7.17
		c0.693-2.048,1.301-4.125,1.927-6.195c0.126-0.417,0.148-0.864,0.25-1.289c0.179-0.748,0.412-1.485,0.571-2.237
		c0.265-1.257,0.487-2.523,0.732-3.784c0.125-0.646,0.348-1.287,0.371-1.936c0.033-0.91,0.181-1.817,0.37-2.676
		c0.276-1.25,0.303-2.513,0.473-3.763c0.19-1.395,0.194-2.814,0.286-4.222c0.324-4.963,0.143-9.915-0.334-14.858
		c-0.18-1.869-0.42-3.73-0.778-5.582c-0.28-1.453-0.525-2.917-0.815-4.37c-0.312-1.562-0.672-3.115-1.001-4.674
		c-0.237-1.127-0.677-2.194-0.954-3.311c-0.595-2.397-1.583-4.664-2.421-6.98c-1.142-3.157-2.594-6.18-4.12-9.168
		c-2.002-3.919-4.295-7.662-6.839-11.246c-3.768-5.308-8.035-10.185-12.798-14.627c-3.873-3.613-8.023-6.869-12.437-9.798
		c-4.812-3.194-9.868-5.927-15.175-8.205c-3.7-1.589-7.495-2.91-11.361-4.02c-6.948-1.995-14.042-3.143-21.257-3.552
		C98.31,4.154,91.606,4.534,84.941,5.555c-6.14,0.941-12.123,2.508-17.96,4.643c-4.31,1.576-8.477,3.459-12.514,5.636
		c-5.534,2.985-10.723,6.479-15.554,10.509c-5.305,4.425-10.093,9.35-14.348,14.788c-3.464,4.428-6.504,9.13-9.13,14.109
		c-3.026,5.738-5.424,11.72-7.228,17.944c-1.343,4.634-2.327,9.345-2.919,14.138c-0.476,3.856-0.784,7.722-0.823,11.606
		c-0.042,4.164,0.251,8.309,0.713,12.449c0.499,4.469,1.308,8.873,2.465,13.216c1.371,5.145,3.129,10.151,5.335,15.002
		c3.099,6.816,6.977,13.159,11.562,19.069c3.767,4.855,7.976,9.294,12.624,13.32c3.613,3.129,7.418,5.999,11.446,8.564
		c3.894,2.479,7.94,4.683,12.162,6.564c3.586,1.598,7.246,2.998,10.997,4.148c5.127,1.571,10.353,2.699,15.674,3.394
		C91.629,195.2,95.829,195.503,100.051,195.501z"/>
	<path style="fill:#1858A5;" d="M100.051,195.501c-4.222,0.002-8.422-0.301-12.608-0.848c-5.321-0.695-10.547-1.823-15.674-3.394
		c-3.751-1.15-7.411-2.55-10.997-4.148c-4.222-1.881-8.269-4.085-12.162-6.564c-4.029-2.565-7.834-5.435-11.446-8.564
		c-4.648-4.026-8.857-8.465-12.624-13.32c-4.586-5.911-8.463-12.253-11.562-19.069c-2.205-4.851-3.964-9.856-5.335-15.002
		c-1.157-4.342-1.966-8.747-2.465-13.216c-0.462-4.14-0.754-8.285-0.713-12.449c0.039-3.884,0.347-7.75,0.823-11.606
		c0.592-4.794,1.576-9.504,2.919-14.138c1.804-6.223,4.202-12.206,7.228-17.944c2.626-4.979,5.666-9.681,9.13-14.109
		c4.255-5.438,9.043-10.362,14.348-14.788c4.831-4.03,10.02-7.523,15.554-10.509c4.037-2.177,8.204-4.06,12.514-5.636
		c5.837-2.135,11.82-3.702,17.96-4.643c6.665-1.021,13.369-1.402,20.109-1.019c7.215,0.409,14.309,1.557,21.257,3.552
		c3.866,1.11,7.66,2.431,11.361,4.02c5.307,2.279,10.363,5.012,15.175,8.205c4.413,2.929,8.563,6.185,12.437,9.798
		c4.763,4.442,9.03,9.319,12.798,14.627c2.544,3.584,4.837,7.327,6.839,11.246c1.526,2.988,2.978,6.011,4.12,9.168
		c0.838,2.316,1.826,4.584,2.421,6.98c0.277,1.118,0.717,2.184,0.954,3.311c0.328,1.559,0.689,3.112,1.001,4.674
		c0.29,1.453,0.535,2.917,0.815,4.37c0.357,1.852,0.597,3.712,0.778,5.582c0.477,4.943,0.658,9.896,0.334,14.858
		c-0.092,1.408-0.096,2.828-0.286,4.222c-0.17,1.25-0.197,2.513-0.473,3.763c-0.189,0.859-0.338,1.766-0.37,2.676
		c-0.023,0.649-0.246,1.29-0.371,1.936c-0.245,1.261-0.467,2.527-0.732,3.784c-0.159,0.752-0.391,1.489-0.571,2.237
		c-0.102,0.425-0.124,0.873-0.25,1.289c-0.626,2.07-1.234,4.147-1.927,6.195c-0.82,2.423-1.668,4.841-2.736,7.17
		c-1.166,2.541-2.282,5.11-3.693,7.527c-0.983,1.684-1.892,3.409-2.983,5.036c-0.901,1.343-1.799,2.69-2.693,4.037
		c-0.644,0.969-1.378,1.858-2.058,2.792c-3.209,4.409-6.892,8.401-10.858,12.132c-2.268,2.133-4.675,4.107-7.137,6.013
		c-2.212,1.713-4.504,3.311-6.859,4.813c-2.917,1.86-5.937,3.547-9.038,5.088c-4.546,2.259-9.249,4.128-14.097,5.62
		c-3.341,1.029-6.737,1.847-10.174,2.51C112.088,194.918,106.097,195.482,100.051,195.501z M168.543,137.624
		c0.117-0.047,0.096-0.146,0.089-0.24c0.22,0.009,0.181-0.194,0.251-0.308c0.363-0.578,0.754-1.14,1.084-1.736
		c2.18-3.926,3.954-8.036,5.465-12.257c1.03-2.877,1.881-5.812,2.599-8.784c0.99-4.101,1.631-8.26,1.98-12.461
		c0.367-4.415,0.316-8.832-0.078-13.245c-0.439-4.911-1.403-9.719-2.803-14.444c-0.937-3.162-2.088-6.247-3.422-9.261
		c-1.026-2.317-2.162-4.582-3.394-6.799c-1.206-2.172-2.506-4.284-3.866-6.36c-1.78-2.716-3.795-5.261-5.718-7.873
		c-0.15-0.203-0.249-0.23-0.426-0.051c-1.139,1.148-2.427,2.124-3.652,3.173c-0.224,0.192-0.261,0.296-0.045,0.518
		c1.228,1.264,2.363,2.611,3.481,3.973c3.456,4.21,6.511,8.689,9.072,13.498c3.242,6.088,5.628,12.492,7.092,19.237
		c0.813,3.746,1.285,7.537,1.514,11.357c0.215,3.582,0.177,7.167-0.15,10.745c-0.072,0.787-0.251,1.567-0.308,2.343
		c-0.038,0.518-0.024,1.087-0.14,1.569c-0.2,0.826-0.265,1.674-0.413,2.5c-0.132,0.736-0.231,1.5-0.37,2.238
		c-0.151,0.803-0.366,1.608-0.533,2.407c-0.238,1.139-0.482,2.278-0.77,3.404c-0.61,2.388-1.357,4.737-2.198,7.054
		c-0.892,2.456-1.914,4.858-3.068,7.205c-0.33,0.672-0.81,1.286-0.923,2.058c-0.162,0.04-0.182,0.195-0.249,0.311
		c-0.034,0.078-0.068,0.156-0.1,0.234l-0.007,0.017L168.543,137.624z M99.782,163.713c36.143,0.091,63.899-29.307,63.991-63.557
		c0.094-34.901-27.96-63.951-63.636-64.086C64.992,35.936,36.19,64.602,36.146,99.767C36.101,135.114,64.564,163.694,99.782,163.713
		z M30.715,136.906c-0.054-0.148-0.091-0.305-0.164-0.443c-0.882-1.654-1.645-3.363-2.35-5.097
		c-3.498-8.596-5.63-17.515-6.25-26.783c-0.43-6.426-0.012-12.805,1.238-19.119c0.959-4.844,2.391-9.551,4.307-14.11
		c1.394-3.317,3.018-6.51,4.86-9.598c1.566-2.625,3.265-5.161,5.123-7.584c1.779-2.321,3.538-4.667,5.65-6.709
		c0.221-0.213,0.096-0.279-0.064-0.416c-1.001-0.857-1.988-1.729-2.989-2.585c-0.292-0.25-0.51-0.773-0.837-0.735
		c-0.362,0.042-0.521,0.579-0.774,0.895c-3.47,4.341-6.601,8.908-9.272,13.79c-3.488,6.376-6.102,13.08-7.77,20.157
		c-1.102,4.677-1.738,9.414-1.918,14.21c-0.208,5.531,0.204,11.029,1.135,16.479c0.98,5.735,2.565,11.312,4.689,16.733
		C26.811,129.772,28.551,133.426,30.715,136.906z M115.61,19.487c0.168,0.08,0.157,0.179,0.166,0.269
		c0.169,1.86,0.339,3.72,0.507,5.581c0.077,0.856,0.024,1.742,0.19,2.565c0.212,1.054,0.082,2.024-0.197,3.004
		c-0.211,0.742-0.45,1.472-0.464,2.254c-0.004,0.206,0.053,0.301,0.262,0.339c0.748,0.136,1.494,0.287,2.24,0.435
		c0.267,0.053,0.407-0.028,0.46-0.317c0.111-0.601,0.26-1.196,0.386-1.794c0.646-3.065,1.291-6.131,1.935-9.196
		c0.641-3.046,1.277-6.093,1.925-9.138c0.065-0.307-0.01-0.435-0.326-0.487c-0.676-0.113-1.353-0.232-2.015-0.405
		c-0.363-0.095-0.452,0.034-0.515,0.346c-0.244,1.213-0.525,2.418-0.753,3.633c-0.23,1.229-0.576,2.433-0.752,3.674
		c-0.092,0.648-0.268,1.285-0.412,1.955c-0.156-0.153-0.148-0.309-0.174-0.452c-0.249-1.375-0.263-2.771-0.366-4.159
		c-0.131-1.759-0.274-3.517-0.392-5.277c-0.023-0.34-0.161-0.495-0.483-0.549c-0.677-0.114-1.356-0.218-2.024-0.373
		c-0.362-0.084-0.451,0.032-0.488,0.365c-0.054,0.479-0.148,0.954-0.249,1.426c-1.339,6.202-2.681,12.404-4.028,18.604
		c-0.062,0.285-0.044,0.443,0.298,0.504c0.675,0.12,1.345,0.276,2.01,0.442c0.358,0.089,0.503,0.026,0.608-0.377
		c0.383-1.467,0.611-2.964,0.929-4.444c0.374-1.738,0.7-3.485,1.053-5.228C115.158,21.623,115.385,20.564,115.61,19.487z
		 M43.539,152.525c0.063,0.229-0.007,0.319-0.054,0.418c-0.897,1.928-2.034,3.735-2.964,5.635c-1.056,2.158-2.466,3.929-4.333,5.385
		c-0.201,0.157-0.298,0.318-0.055,0.542c0.367,0.339,0.714,0.7,1.069,1.052c0.812,0.803,0.811,0.803,1.628,0.007
		c4.727-4.605,9.451-9.212,14.188-13.805c0.287-0.278,0.243-0.433,0-0.67c-0.452-0.44-0.918-0.872-1.321-1.355
		c-0.3-0.361-0.529-0.318-0.813-0.029c-0.61,0.623-1.214,1.251-1.835,1.863c-1.569,1.544-3.106,3.123-4.772,4.573
		c-0.07-0.11-0.025-0.196,0.018-0.275c0.517-0.94,1.036-1.879,1.556-2.818c1.008-1.821,1.946-3.682,3.122-5.404
		c0.192-0.281,0.112-0.474-0.083-0.684c-0.455-0.488-0.948-0.949-1.347-1.48c-0.268-0.357-0.412-0.362-0.715-0.062
		c-4.88,4.819-9.791,9.606-14.76,14.334c-0.24,0.228-0.216,0.374-0.001,0.586c0.528,0.519,1.045,1.048,1.556,1.583
		c0.25,0.262,0.418,0.101,0.601-0.08c1.415-1.411,2.834-2.819,4.247-4.232C40.149,155.932,41.82,154.251,43.539,152.525z
		 M95.54,20.969c-0.055,0-0.111,0-0.166,0c0,2.005,0.001,4.01-0.001,6.014c-0.001,0.63-0.065,1.26,0.012,1.891
		c0.175,1.442,1.048,2.425,2.487,2.567c1.529,0.151,3.071,0.279,4.61,0.057c0.503-0.072,0.96-0.243,1.357-0.585
		c0.802-0.69,1.129-1.575,1.145-2.605c0.073-4.566,0.153-9.132,0.217-13.698c0.008-0.573-0.022-1.153-0.099-1.72
		c-0.129-0.951-0.913-2.336-2.339-2.483c-1.498-0.155-2.998-0.236-4.499-0.101c-1.134,0.102-1.914,0.728-2.397,1.742
		c-0.271,0.567-0.323,1.179-0.324,1.793C95.536,16.217,95.54,18.593,95.54,20.969z M134.361,160.365
		c-0.145,0.022-0.332,0.033-0.508,0.081c-1.371,0.376-2.63,1.02-3.784,1.818c-1.595,1.102-1.858,2.23-1.032,3.987
		c0.567,1.206,1.187,2.388,1.801,3.571c2.148,4.143,4.306,8.281,6.453,12.425c0.099,0.191,0.188,0.256,0.381,0.151
		c0.666-0.363,1.331-0.729,2.002-1.083c0.281-0.148,0.294-0.33,0.155-0.59c-1.103-2.055-2.192-4.117-3.306-6.165
		c-0.162-0.297-0.109-0.397,0.174-0.535c0.699-0.34,1.402-0.68,2.059-1.092c0.369-0.231,0.498-0.193,0.692,0.184
		c1.031,2.01,2.1,4.002,3.131,6.012c0.23,0.449,0.447,0.563,0.891,0.265c0.46-0.309,0.944-0.598,1.453-0.811
		c0.5-0.21,0.504-0.43,0.262-0.868c-2.147-3.868-4.155-7.809-6.18-11.742c-0.711-1.381-1.357-2.8-2.201-4.109
		C136.245,160.998,135.482,160.423,134.361,160.365z M76.158,33.927c0.03-0.536-0.129-1.031-0.313-1.517
		c-0.766-2.026-1.674-3.992-2.534-5.978c-1.111-2.564-2.216-5.13-3.381-7.67c-0.799-1.742-2.023-2.424-3.576-1.969
		c-1.472,0.431-2.882,1.061-4.223,1.811c-0.622,0.348-1.085,0.891-1.307,1.604c-0.25,0.8-0.034,1.558,0.267,2.271
		c1.215,2.883,2.456,5.755,3.712,8.62c0.773,1.763,1.485,3.556,2.376,5.265c0.8,1.534,1.828,2.031,3.483,1.604
		c1.493-0.385,2.906-1.014,4.212-1.83C75.656,35.652,76.131,34.894,76.158,33.927z M62.441,159.809
		c0.035-0.849-0.383-1.573-1.033-2.129c-1.127-0.965-2.32-1.86-3.65-2.528c-0.874-0.439-1.79-0.453-2.642,0.131
		c-0.603,0.414-1.093,0.942-1.516,1.534c-1.378,1.931-2.761,3.859-4.134,5.793c-1.405,1.98-2.833,3.945-4.19,5.958
		c-1.036,1.537-0.827,3.015,0.556,4.155c1.028,0.847,2.121,1.618,3.28,2.283c1.661,0.954,2.899,0.32,3.797-0.752
		c0.664-0.792,1.266-1.639,1.865-2.483c2.175-3.059,4.345-6.122,6.499-9.195C61.846,161.762,62.44,160.938,62.441,159.809z
		 M146.49,23.842c-0.251,0.018-0.607,0.069-0.945,0.261c-0.694,0.394-1.246,0.937-1.687,1.586c-1.73,2.546-3.455,5.095-5.162,7.655
		c-1.039,1.558-2.161,3.063-3.074,4.701c-0.904,1.624-0.609,2.915,0.855,4.039c0.956,0.734,1.955,1.41,3.002,2.004
		c0.998,0.567,2.041,0.807,3.092,0.098c0.48-0.324,0.893-0.727,1.218-1.206c0.937-1.378,1.862-2.764,2.792-4.146
		c1.115-1.656,2.256-3.295,3.338-4.971c0.75-1.162,1.595-2.261,2.269-3.474c0.91-1.639,0.391-3.072-0.989-4.074
		c-0.794-0.576-1.61-1.124-2.441-1.645C148.102,24.258,147.433,23.839,146.49,23.842z M145.037,153.233
		c-0.561-0.015-1.073,0.171-1.525,0.463c-1.712,1.106-3.208,2.507-4.903,3.638c-0.259,0.173-0.096,0.325,0.038,0.497
		c2.203,2.841,4.401,5.687,6.599,8.532c2.028,2.625,4.057,5.25,6.079,7.88c0.161,0.209,0.294,0.268,0.488,0.064
		c0.526-0.554,1.147-0.992,1.773-1.421c0.215-0.147,0.247-0.272,0.061-0.487c-1.587-1.842-3.006-3.817-4.517-5.719
		c-0.582-0.732-0.569-0.742,0.14-1.369c0.055-0.049,0.112-0.098,0.159-0.154c0.273-0.324,0.501-0.284,0.822-0.009
		c1.998,1.715,4.023,3.399,6.021,5.114c0.314,0.269,0.521,0.245,0.796-0.01c0.407-0.378,0.844-0.72,1.31-1.029
		c0.475-0.315,0.469-0.422,0.04-0.774c-2.009-1.647-4.007-3.306-6.032-4.932c-0.407-0.327-0.549-0.639-0.386-1.137
		c0.219-0.672,0.047-1.293-0.262-1.919c-0.623-1.263-1.563-2.294-2.406-3.396c-0.732-0.957-1.381-1.983-2.252-2.825
		C146.513,153.692,145.873,153.254,145.037,153.233z M88.357,21.435c-0.009-0.122-0.01-0.216-0.024-0.307
		c-0.37-2.438-0.827-4.861-1.488-7.237c-0.435-1.562-1.775-2.369-3.389-2.079c-1.622,0.292-3.233,0.643-4.854,0.94
		c-1.009,0.184-1.007,0.159-0.8,1.15c0.747,3.577,1.492,7.155,2.23,10.734c0.596,2.889,1.188,5.778,1.761,8.671
		c0.088,0.444,0.217,0.593,0.693,0.452c0.548-0.162,1.124-0.255,1.694-0.308c0.499-0.046,0.601-0.229,0.498-0.708
		c-0.491-2.283-0.952-4.573-1.417-6.861c-0.236-1.161-0.209-1.176,1.024-1.31c0.336-0.036,0.495,0.063,0.629,0.37
		c1.055,2.41,2.137,4.809,3.184,7.222c0.148,0.34,0.33,0.395,0.639,0.323c0.596-0.14,1.188-0.304,1.791-0.4
		c0.452-0.072,0.436-0.237,0.27-0.588c-1.162-2.459-2.306-4.926-3.457-7.391c-0.111-0.237-0.148-0.426,0.108-0.627
		C88.117,22.958,88.281,22.198,88.357,21.435z M92.071,177.781c0-0.001,0-0.003,0-0.004c-0.686-0.044-1.371-0.123-2.056-0.119
		c-0.424,0.003-0.553-0.115-0.505-0.534c0.143-1.254,0.251-2.511,0.385-3.766c0.158-1.476,0.323-2.951,0.495-4.426
		c0.043-0.365-0.041-0.529-0.461-0.526c-0.611,0.004-1.227-0.036-1.831-0.127c-0.537-0.081-0.639,0.155-0.689,0.619
		c-0.573,5.408-1.165,10.814-1.748,16.222c-0.143,1.329-0.271,2.659-0.4,3.99c-0.021,0.215-0.08,0.453,0.283,0.47
		c0.742,0.034,1.482,0.092,2.223,0.147c0.268,0.02,0.386-0.052,0.414-0.357c0.271-2.92,0.652-5.829,0.836-8.756
		c0.02-0.322,0.116-0.421,0.424-0.389c0.775,0.081,1.552,0.152,2.329,0.215c0.804,0.065,0.8,0.059,0.711,0.886
		c-0.301,2.787-0.585,5.576-0.91,8.36c-0.054,0.465,0.122,0.55,0.498,0.559c0.669,0.015,1.334,0.08,1.991,0.205
		c0.313,0.059,0.42-0.045,0.453-0.365c0.255-2.511,0.523-5.02,0.796-7.529c0.281-2.583,0.571-5.164,0.856-7.747
		c0.183-1.66,0.369-3.32,0.546-4.981c0.074-0.697,0.066-0.694-0.654-0.741c-0.611-0.04-1.223-0.076-1.832-0.138
		c-0.302-0.03-0.442,0.05-0.462,0.374c-0.165,2.67-0.602,5.313-0.811,7.978c-0.036,0.457-0.192,0.584-0.605,0.502
		C92.258,177.782,92.164,177.786,92.071,177.781z M73.683,165.938c0.02-1.23-0.672-2.028-1.681-2.541
		c-1.584-0.806-3.217-1.514-4.81-2.304c-0.429-0.213-0.587-0.147-0.781,0.28c-1.096,2.413-2.21,4.819-3.344,7.215
		c-1.784,3.769-3.482,7.58-5.368,11.301c-0.151,0.297-0.078,0.426,0.201,0.549c0.645,0.284,1.291,0.568,1.915,0.895
		c0.398,0.208,0.54,0.059,0.69-0.299c0.889-2.115,1.823-4.21,2.835-6.269c0.177-0.36,0.206-0.933,0.541-1.036
		c0.369-0.114,0.727,0.362,1.127,0.505c0.354,0.127,0.395,0.383,0.299,0.72c-0.698,2.468-1.069,5.016-1.829,7.47
		c-0.124,0.401-0.025,0.729,0.473,0.854c0.336,0.084,0.654,0.259,0.966,0.419c1.031,0.529,1.029,0.534,1.282-0.603
		c0.004-0.018,0.007-0.037,0.011-0.055c0.532-2.463,1.112-4.915,1.547-7.398c0.056-0.318,0.235-0.397,0.488-0.418
		c0.962-0.079,1.598-0.637,2.069-1.419c1.071-1.781,1.805-3.727,2.726-5.582C73.397,167.507,73.676,166.761,73.683,165.938z
		 M163.223,163.208c0.69-0.007,1.295-0.165,1.764-0.579c0.875-0.772,1.717-1.584,2.392-2.547c0.963-1.373,0.976-2.389-0.11-3.676
		c-1.344-1.593-2.98-2.891-4.527-4.278c-0.588-0.527-1.217-0.592-1.962-0.389c-1.539,0.419-2.998,1.065-4.524,1.519
		c-0.443,0.132-0.739,0.027-1.048-0.266c-0.62-0.587-1.261-1.152-1.885-1.735c-0.42-0.392-0.862-0.763-1.209-1.229
		c-0.142-0.191-0.252-0.394-0.108-0.612c0.337-0.51,0.683-1.012,1.201-1.369c0.218-0.151,0.386-0.127,0.607-0.009
		c0.666,0.357,1.188,0.887,1.718,1.403c0.259,0.252,0.422,0.3,0.656-0.019c0.416-0.568,0.862-1.114,1.435-1.54
		c0.177-0.132,0.24-0.302,0.057-0.466c-0.921-0.829-1.742-1.788-2.914-2.294c-0.774-0.334-1.568-0.39-2.291,0.092
		c-1.473,0.983-2.641,2.256-3.449,3.843c-0.215,0.421-0.197,0.849-0.067,1.296c0.251,0.869,0.775,1.554,1.421,2.154
		c1.073,0.997,2.171,1.968,3.236,2.974c0.895,0.845,1.837,1.185,3.078,0.726c1.335-0.493,2.686-0.958,4.069-1.317
		c0.371-0.096,0.643-0.029,0.912,0.218c0.861,0.789,1.736,1.564,2.593,2.358c1.016,0.942,1.011,1.228,0.015,2.184
		c-0.674,0.647-0.994,0.66-1.71,0.064c-0.171-0.142-0.367-0.269-0.496-0.444c-0.264-0.356-0.476-0.245-0.71,0.018
		c-0.32,0.36-0.641,0.721-0.973,1.07c-0.715,0.753-0.732,0.767,0.052,1.454C161.263,162.527,162.134,163.157,163.223,163.208z
		 M111.883,189.629c1.352-0.094,2.344-0.24,3.32-0.452c2.054-0.445,2.862-1.542,2.616-3.63c-0.21-1.785-0.521-3.558-0.794-5.335
		c-0.136-0.885-0.655-1.45-1.472-1.802c-1.379-0.595-2.826-1-4.225-1.54c-0.536-0.207-0.796-0.533-0.87-1.091
		c-0.142-1.066-0.307-2.129-0.491-3.188c-0.213-1.218,0.05-1.591,1.275-1.72c0.092-0.01,0.185-0.01,0.278-0.011
		c0.74-0.01,1.004,0.164,1.185,0.898c0.133,0.538,0.206,1.093,0.277,1.644c0.036,0.283,0.143,0.394,0.429,0.347
		c0.713-0.117,1.428-0.228,2.144-0.33c0.252-0.036,0.366-0.139,0.315-0.405c-0.169-0.873-0.254-1.771-0.515-2.615
		c-0.381-1.23-1.078-2.22-2.537-2.286c-1.082-0.049-2.143,0.151-3.2,0.353c-1.738,0.332-2.961,1.568-2.651,3.695
		c0.25,1.707,0.523,3.41,0.797,5.113c0.172,1.07,0.744,1.723,1.757,2.07c1.261,0.433,2.502,0.923,3.758,1.37
		c0.658,0.234,1.016,0.627,1.091,1.367c0.113,1.124,0.337,2.236,0.516,3.353c0.104,0.652-0.038,0.913-0.646,1.171
		c-1.447,0.612-2.084,0.237-2.246-1.32c-0.008-0.074-0.024-0.148-0.021-0.222c0.015-0.368-0.186-0.434-0.496-0.375
		c-0.728,0.139-1.456,0.282-2.187,0.402c-0.291,0.048-0.373,0.167-0.301,0.451c0.14,0.557,0.232,1.128,0.39,1.679
		C109.768,188.588,111.016,189.733,111.883,189.629z M84.057,170.232c0.232,0.019,0.356-0.074,0.4-0.3
		c0.133-0.692,0.267-1.384,0.412-2.074c0.051-0.243-0.035-0.303-0.272-0.354c-0.869-0.186-1.733-0.393-2.591-0.624
		c-1.556-0.419-3.108-0.854-4.658-1.296c-0.362-0.103-0.549-0.04-0.62,0.366c-0.102,0.584-0.258,1.159-0.391,1.737
		c-0.071,0.306-0.008,0.468,0.359,0.518c0.549,0.074,1.085,0.247,1.632,0.343c0.403,0.071,0.5,0.223,0.381,0.637
		c-1.162,4.044-2.305,8.094-3.45,12.143c-0.474,1.676-0.946,3.354-1.409,5.033c-0.052,0.189-0.232,0.477,0.126,0.536
		c0.772,0.128,1.507,0.389,2.261,0.58c0.215,0.054,0.377,0.058,0.448-0.24c0.158-0.666,0.363-1.321,0.548-1.98
		c1.018-3.619,2.038-7.237,3.052-10.857c0.4-1.426,0.832-2.846,1.154-4.291c0.107-0.481,0.233-0.527,0.634-0.409
		C82.728,169.895,83.394,170.056,84.057,170.232z M129.291,185.382c-0.103-0.278-0.221-0.57-0.32-0.868
		c-1.084-3.292-2.164-6.585-3.246-9.878c-0.683-2.078-1.368-4.155-2.048-6.234c-0.227-0.693-0.22-0.69,0.493-0.879
		c0.519-0.138,1.034-0.293,1.552-0.435c0.294-0.081,0.379-0.231,0.263-0.533c-0.227-0.587-0.431-1.183-0.627-1.782
		c-0.104-0.32-0.267-0.407-0.579-0.258c-0.889,0.424-1.846,0.659-2.772,0.98c-1.433,0.497-2.874,0.973-4.316,1.444
		c-0.376,0.123-0.427,0.296-0.263,0.649c0.241,0.52,0.441,1.062,0.62,1.607c0.112,0.341,0.281,0.378,0.582,0.248
		c0.476-0.206,0.971-0.369,1.442-0.583c0.382-0.174,0.602-0.127,0.743,0.306c0.545,1.674,1.12,3.339,1.671,5.011
		c1.313,3.979,2.619,7.96,3.927,11.941c0.074,0.224,0.135,0.427,0.453,0.314c0.716-0.253,1.437-0.493,2.158-0.732
		C129.18,185.65,129.303,185.59,129.291,185.382z M62.469,42.563c-0.049-0.086-0.096-0.187-0.16-0.278
		c-0.81-1.152-1.629-2.297-2.431-3.454c-2.597-3.746-5.102-7.556-7.81-11.224c-0.16-0.217-0.199-0.361,0.078-0.528
		c0.57-0.344,1.103-0.752,1.682-1.078c0.347-0.195,0.34-0.37,0.143-0.65c-0.352-0.5-0.71-0.998-1.028-1.52
		c-0.189-0.309-0.349-0.301-0.612-0.103c-2.056,1.551-4.214,2.956-6.376,4.351c-0.204,0.132-0.238,0.232-0.081,0.435
		c0.408,0.527,0.809,1.061,1.182,1.613c0.216,0.32,0.394,0.304,0.668,0.075c0.439-0.368,0.909-0.7,1.361-1.054
		c0.311-0.243,0.561-0.339,0.768,0.134c0.132,0.302,0.345,0.57,0.533,0.845c2.475,3.625,4.952,7.249,7.429,10.873
		c0.679,0.994,1.359,1.988,2.043,2.978c0.148,0.214,0.291,0.457,0.616,0.213c0.578-0.433,1.164-0.855,1.75-1.276
		C62.347,42.827,62.479,42.757,62.469,42.563z M137.417,21.264c0.26,0.037,0.392-0.076,0.464-0.309
		c0.176-0.565,0.334-1.136,0.632-1.657c0.177-0.31,0.061-0.496-0.274-0.627c-2.327-0.911-4.657-1.812-6.904-2.912
		c-0.292-0.143-0.471-0.065-0.556,0.22c-0.176,0.592-0.452,1.138-0.757,1.668c-0.184,0.32-0.131,0.503,0.217,0.63
		c0.574,0.209,1.133,0.462,1.715,0.647c0.417,0.133,0.447,0.318,0.286,0.693c-1.283,2.998-2.532,6.01-3.824,9.004
		c-1.072,2.482-2.028,5.014-3.224,7.442c-0.127,0.257-0.051,0.358,0.187,0.455c0.687,0.277,1.37,0.565,2.048,0.863
		c0.347,0.153,0.513,0.078,0.656-0.297c1.379-3.611,2.941-7.146,4.434-10.71c0.778-1.858,1.582-3.705,2.318-5.579
		c0.198-0.503,0.382-0.515,0.8-0.306C136.215,20.777,136.822,21.008,137.417,21.264z"/>
	<path style="fill:#FCFDFD;" d="M99.782,163.713c-35.218-0.019-63.681-28.599-63.636-63.946
		c0.045-35.165,28.846-63.831,63.992-63.698c35.676,0.135,63.729,29.186,63.636,64.086
		C163.681,134.406,135.925,163.803,99.782,163.713z M99.758,102.51c-0.946,0.036-1.892,0.067-2.838,0.108
		c-1.189,0.051-1.189,0.055-1.444-1.084c-0.028-0.127-0.047-0.256-0.079-0.381c-0.12-0.466-0.223-0.938-0.375-1.393
		c-0.079-0.236-0.282-0.425-0.563-0.346c-0.275,0.077-0.192,0.338-0.164,0.522c0.118,0.769,0.242,1.538,0.398,2.301
		c0.089,0.439,0.015,0.617-0.493,0.649c-2.378,0.152-4.709,0.594-6.983,1.307c-0.825,0.259-0.808,0.282-1.336-0.426
		c-0.144-0.193-0.247-0.396-0.359-0.605c-0.28-0.521-0.554-1.052-0.966-1.491c-0.135-0.143-0.295-0.288-0.479-0.191
		c-0.24,0.126-0.058,0.35-0.001,0.489c0.296,0.724,0.739,1.368,1.155,2.027c0.456,0.723,0.425,0.776-0.349,1.075
		c-0.984,0.38-1.865,0.918-2.681,1.812c0.213-0.061,0.284-0.073,0.348-0.101c1.16-0.494,2.317-0.998,3.525-1.364
		c2.706-0.82,5.461-1.39,8.281-1.656c1.612-0.152,3.228-0.139,4.843-0.188c0.415-0.013,0.61,0.138,0.572,0.59
		c-0.037,0.443-0.359,0.372-0.611,0.377c-1.871,0.043-3.726,0.247-5.568,0.552c-3.566,0.591-7.014,1.567-10.235,3.252
		c-0.165,0.086-0.403,0.112-0.411,0.377c0.135,0.092,0.252,0.039,0.373-0.015c2.225-0.99,4.543-1.698,6.926-2.177
		c3.36-0.675,6.76-0.967,10.189-0.941c4.752,0.037,9.396,0.695,13.858,2.391c2.463,0.937,4.786,2.129,6.648,4.047
		c1.537,1.584,2.496,3.414,2.125,5.714c-0.253,1.564-1.093,2.828-2.189,3.91c-2.356,2.328-5.289,3.632-8.396,4.609
		c-1.822,0.573-3.71,0.871-5.56,1.325c-0.181,0.044-0.416,0.06-0.477-0.236c-0.214-1.048-0.448-2.093-0.652-3.143
		c-0.203-1.044-0.38-2.093-0.568-3.139c-0.017,1.079,0.013,2.15,0.095,3.216c0.136,1.774,0.327,3.544,0.453,5.319
		c0.216,3.056,0.408,6.114,0.596,9.172c0.295,4.82,0.583,9.64,0.865,14.46c0.101,1.724,0.173,3.451,0.26,5.176
		c0.015,0.303,0.005,0.574,0.481,0.506c5.418-0.781,10.646-2.226,15.682-4.381c3.847-1.647,7.474-3.687,10.877-6.108
		c4.082-2.904,7.715-6.306,10.951-10.135c3.924-4.642,7.027-9.783,9.36-15.387c2.464-5.92,3.916-12.078,4.383-18.485
		c0.416-5.712,0.061-11.363-1.112-16.953c-1.682-8.015-4.924-15.362-9.667-22.044c-3.692-5.202-8.121-9.679-13.242-13.473
		c-5.047-3.739-10.57-6.555-16.521-8.563c-5.409-1.826-10.977-2.732-16.657-2.953c-5.955-0.231-11.824,0.438-17.584,1.993
		c-4.731,1.278-9.226,3.142-13.502,5.525c-2.936,1.636-5.716,3.514-8.328,5.634c-5.774,4.686-10.561,10.219-14.252,16.684
		c-2.359,4.132-4.231,8.469-5.54,13.052c-1.104,3.866-1.833,7.796-2.129,11.8c-0.377,5.095-0.146,10.162,0.735,15.205
		c1.281,7.331,3.78,14.204,7.683,20.538c5.662,9.191,13.257,16.359,22.761,21.495c4.638,2.507,9.529,4.347,14.669,5.51
		c1.59,0.36,3.202,0.624,4.803,0.932c0.411,0.079,0.651,0.064,0.665-0.509c0.036-1.447,0.189-2.891,0.261-4.338
		c0.218-4.341,0.477-8.679,0.781-13.015c0.368-5.253,0.718-10.507,1.089-15.76c0.096-1.365,0.096-2.738,0.337-4.141
		c-0.189,0.222-0.224,0.445-0.264,0.662c-0.743,3.992-1.503,7.981-2.205,11.98c-0.102,0.581-0.392,0.666-0.841,0.709
		c-3.66,0.348-7.273,1.039-10.917,1.507c-2.814,0.361-5.612,0.848-8.418,1.272c-0.166,0.025-0.389,0.136-0.5-0.081
		c-0.085-0.167,0.052-0.32,0.149-0.452c0.919-1.242,1.583-2.64,2.43-3.926c0.494-0.749,0.647-1.555,0.563-2.441
		c-0.135-1.424-0.842-2.555-1.778-3.566c-1.38-1.491-3.044-2.657-4.596-3.95c-4.146-3.455-8.291-6.912-12.45-10.352
		c-3.259-2.695-6.539-5.366-9.808-8.05c-0.107-0.088-0.308-0.16-0.236-0.332c0.06-0.142,0.259-0.119,0.401-0.134
		c1.025-0.106,2.003-0.389,2.936-0.812c1.938-0.879,3.203-2.3,3.498-4.47c0.143-1.053-0.064-2.075-0.324-3.084
		c-1.006-3.896-2.031-7.788-3.039-11.683c-0.288-1.113-0.273-1.122,0.86-0.876c2.898,0.629,5.79,1.29,8.694,1.888
		c2.683,0.551,4.909-0.116,6.47-2.53c0.886-1.371,1.738-2.763,2.583-4.159c0.417-0.689,0.472-0.707,0.929-0.085
		c0.055,0.075,0.115,0.146,0.176,0.216c3.28,3.741,6.557,7.485,9.846,11.218c0.756,0.858,1.618,1.592,2.751,1.916
		c1.03,0.295,1.857-0.191,2.121-1.227c0.135-0.53,0.135-1.068,0.099-1.607c-0.095-1.448-0.384-2.87-0.626-4.296
		c-0.753-4.445-1.537-8.885-2.296-13.33c-0.637-3.732-1.257-7.466-1.878-11.201c-0.025-0.148-0.199-0.342,0.003-0.448
		c0.179-0.094,0.284,0.121,0.404,0.226c1.915,1.659,3.977,3.013,6.535,3.502c2.242,0.429,4.06-0.048,5.375-2.042
		c0.706-1.071,1.35-2.174,1.959-3.298c2.119-3.914,4.222-7.836,6.335-11.753c0.076-0.141,0.115-0.362,0.307-0.36
		c0.211,0.002,0.204,0.238,0.252,0.383c0.725,2.201,1.427,4.409,2.162,6.606c1.507,4.506,3.039,9.004,4.543,13.511
		c0.662,1.985,1.301,3.978,1.898,5.983c0.094,0.315,0.278,0.582,0.343,0.903c0.065,0.323,0.258,0.617,0.226,1.026
		c-2.799-6.087-5.145-12.308-7.88-18.36c0.315,2.503,0.708,4.974,1.081,7.448c0.617,4.091,1.218,8.184,1.837,12.274
		c0.046,0.304-0.04,0.4-0.332,0.411c-0.612,0.023-1.227,0.044-1.836,0.109c-1.134,0.12-2.284,0.088-3.397,0.409
		c-0.561,0.162-0.868-0.047-0.857-0.53c0.113-4.997,0.226-9.993,0.344-14.99c0.048-2.024,0.106-4.048,0.16-6.109
		c-0.155,0.149-0.136,0.304-0.16,0.445c-0.639,3.789-1.043,7.611-1.579,11.414c-0.456,3.232-0.951,6.459-1.388,9.694
		c-0.073,0.543-0.341,0.712-0.797,0.812c-0.512,0.112-1.044,0.165-1.582,0.41c0.094,0.03,0.124,0.05,0.15,0.046
		c3.714-0.485,7.446-0.583,11.179-0.375c3.586,0.2,6.99,1.123,10.078,3.002c1.799,1.095,3.229,2.467,2.896,4.873
		c-0.081,0.584-0.09,0.649-0.662,0.413c-0.865-0.357-1.772-0.553-2.678-0.74c-0.94-0.193-1.899-0.196-2.885-0.121
		c0.114,0.231,0.299,0.198,0.449,0.229c1.782,0.369,3.537,0.837,5.246,1.46c2.182,0.796,4.222,1.84,5.759,3.646
		c0.638,0.75,1.23,1.584,1.253,2.604c0.015,0.632,0.196,1.126,0.503,1.654c0.416,0.714,0.652,1.514,0.36,2.345
		c-0.153,0.436-0.204,0.862-0.144,1.31c0.133,0.998-0.035,1.951-0.362,2.898c-0.179,0.518-0.408,1.045-0.352,1.617
		c0.125,1.28,0.095,2.562,0.042,3.841c-0.053,1.266-0.249,2.506-1.215,3.461c-0.108,0.107-0.188,0.362-0.369,0.24
		c-0.167-0.112-0.001-0.308,0.068-0.448c0.216-0.434,0.38-0.881,0.447-1.364c0.239-1.713-0.558-3.003-1.778-4.042
		c-1.848-1.573-4.025-2.547-6.325-3.28c-4.613-1.469-9.354-1.976-14.17-1.964c-0.359,0.001-0.477,0.114-0.461,0.49
		c0.044,1.095,0.046,2.191-0.033,3.286L99.758,102.51z M80.421,97.834c1.547-0.876,3.22-1.416,4.906-1.887
		c2.882-0.805,5.823-1.279,8.813-1.509c4.683-0.361,9.353-0.309,14.009,0.286c3.245,0.415,6.433,1.097,9.438,2.453
		c1.842,0.831,3.518,1.904,4.894,3.407c0.093,0.101,0.182,0.203,0.327,0.143c0.181-0.075,0.151-0.249,0.119-0.386
		c-0.143-0.62-0.379-1.204-0.778-1.706c-1.22-1.534-2.899-2.413-4.653-3.139c-3.989-1.65-8.175-2.536-12.449-2.993
		c-4.965-0.53-9.895-0.209-14.793,0.748c-2.694,0.526-5.284,1.31-7.641,2.757C81.798,96.51,81.03,97.068,80.421,97.834z
		 M87.073,90.581c0.106-0.021,0.213-0.042,0.319-0.064c2.687-0.57,5.383-1.092,8.13-1.265c3.768-0.237,7.532-0.195,11.29,0.218
		c3.328,0.366,6.61,0.934,9.741,2.166c2.579,1.015,4.957,2.35,6.783,4.508c0.069,0.082,0.162,0.162,0.26,0.198
		c0.117,0.043,0.261,0.069,0.368-0.031c0.103-0.097,0.024-0.214-0.011-0.31c-0.237-0.642-0.46-1.282-0.922-1.822
		c-1.125-1.315-2.478-2.334-3.993-3.141c-3.537-1.884-7.382-2.775-11.301-3.327c-3.534-0.498-7.096-0.564-10.669-0.382
		c-3.045,0.155-5.943,0.772-8.658,2.179C87.904,89.77,87.416,90.058,87.073,90.581z M116.852,121.21
		c0.62-0.891,0.991-1.856,0.773-2.955c-0.389-1.962-1.786-3.058-3.454-3.875c-1.333-0.653-2.746-1.042-4.212-1.334
		c-1.724-0.342-3.442-0.728-5.194-0.803c-5.04-0.215-10.071-0.338-15.054,0.818c-1.469,0.341-2.909,0.686-4.273,1.313
		c-1.329,0.611-2.514,1.398-3.25,2.739c-0.699,1.274-0.455,3.205,0.596,4.227c0-0.224-0.148-0.38-0.228-0.562
		c-0.516-1.181-0.543-2.32,0.197-3.44c0.488-0.739,1.172-1.225,1.912-1.659c1.311-0.769,2.785-1.092,4.21-1.554
		c0.521-0.169,0.908-0.131,1.307,0.259c0.943,0.92,1.912,1.812,2.874,2.712c0.167,0.157,0.325,0.345,0.639,0.33
		c-0.34-1.15-0.661-2.268-1.004-3.379c-0.106-0.343-0.084-0.496,0.339-0.52c0.814-0.046,1.626-0.152,2.437-0.243
		c0.35-0.039,0.574,0.056,0.756,0.397c0.411,0.767,0.875,1.506,1.328,2.251c0.141,0.231,0.268,0.493,0.581,0.558
		c0.039-0.968-0.405-1.857-0.385-2.82c0.008-0.389,0.132-0.478,0.474-0.477c1.021,0.005,2.043-0.012,3.064-0.011
		c0.8,0.001,0.805,0.008,0.696,0.792c-0.116,0.835-0.244,1.668-0.366,2.502c0.185-0.098,0.276-0.229,0.377-0.351
		c0.629-0.757,1.072-1.636,1.597-2.46c0.203-0.319,0.432-0.453,0.824-0.396c0.624,0.09,1.255,0.142,1.885,0.168
		c0.446,0.018,0.526,0.168,0.394,0.587c-0.353,1.124-0.663,2.261-1.011,3.466c0.39-0.167,0.618-0.406,0.861-0.626
		c0.99-0.896,1.985-1.785,2.97-2.686c0.191-0.175,0.361-0.247,0.635-0.192c1.717,0.338,3.388,0.821,4.891,1.733
		c1.587,0.964,2.483,2.324,2.142,4.269C117.11,120.403,116.964,120.804,116.852,121.21z M76.332,104.357
		c0.122-0.176,0.248-0.38,0.396-0.565c0.161-0.202,0.328-0.404,0.519-0.577c1.937-1.747,4.237-2.872,6.677-3.673
		c3.772-1.239,7.675-1.813,11.634-2.037c5.547-0.314,11.068-0.151,16.498,1.11c3.934,0.913,7.805,2.034,10.539,5.349
		c0.078,0.094,0.181,0.141,0.294,0.1c0.14-0.051,0.1-0.169,0.083-0.281c-0.072-0.483-0.206-0.927-0.543-1.313
		c-0.716-0.819-1.564-1.475-2.471-2.054c-2.261-1.444-4.758-2.315-7.35-2.924c-3.06-0.719-6.17-1.08-9.307-1.253
		c-4.578-0.252-9.13-0.023-13.653,0.708c-3.362,0.543-6.616,1.423-9.625,3.1C78.236,101.045,76.959,102.424,76.332,104.357z"/>
	<path style="fill:#FCFDFD;" d="M168.892,137.086c0.112-0.772,0.592-1.386,0.922-2.058c1.154-2.347,2.177-4.749,3.068-7.205
		c0.841-2.317,1.588-4.666,2.198-7.054c0.288-1.126,0.532-2.265,0.77-3.404c0.167-0.799,0.382-1.604,0.533-2.407
		c0.139-0.738,0.238-1.503,0.37-2.238c0.148-0.827,0.213-1.674,0.413-2.5c0.117-0.482,0.102-1.051,0.14-1.569
		c0.057-0.776,0.236-1.556,0.308-2.343c0.327-3.578,0.364-7.162,0.15-10.745c-0.229-3.82-0.701-7.611-1.514-11.357
		c-1.464-6.745-3.85-13.15-7.092-19.237c-2.561-4.809-5.616-9.288-9.072-13.498c-1.118-1.362-2.253-2.709-3.481-3.973
		c-0.216-0.222-0.179-0.326,0.045-0.518c1.225-1.049,2.514-2.025,3.652-3.173c0.177-0.178,0.277-0.152,0.426,0.051
		c1.923,2.612,3.938,5.157,5.718,7.873c1.36,2.076,2.66,4.188,3.866,6.36c1.231,2.218,2.368,4.482,3.394,6.799
		c1.334,3.013,2.485,6.098,3.422,9.261c1.4,4.724,2.364,9.533,2.803,14.444c0.394,4.413,0.445,8.83,0.078,13.245
		c-0.349,4.201-0.99,8.36-1.98,12.461c-0.717,2.972-1.569,5.907-2.599,8.784c-1.511,4.222-3.285,8.332-5.465,12.257
		c-0.331,0.596-0.721,1.158-1.084,1.736C168.883,137.076,168.892,137.086,168.892,137.086z"/>
	<path style="fill:#FCFDFD;" d="M30.715,136.906c-2.164-3.48-3.904-7.135-5.386-10.915c-2.124-5.421-3.709-10.998-4.689-16.733
		c-0.932-5.449-1.344-10.948-1.135-16.479c0.18-4.796,0.816-9.533,1.918-14.21c1.668-7.077,4.282-13.781,7.77-20.157
		c2.671-4.882,5.802-9.449,9.272-13.79c0.253-0.316,0.411-0.852,0.774-0.895c0.326-0.038,0.545,0.485,0.837,0.735
		c1.002,0.856,1.989,1.728,2.989,2.585c0.16,0.137,0.285,0.202,0.064,0.416c-2.113,2.042-3.871,4.388-5.65,6.709
		c-1.858,2.423-3.557,4.96-5.123,7.584c-1.842,3.088-3.466,6.281-4.86,9.598c-1.916,4.559-3.349,9.266-4.307,14.11
		c-1.249,6.314-1.667,12.693-1.238,19.119c0.62,9.268,2.752,18.186,6.25,26.783c0.705,1.734,1.469,3.443,2.35,5.097
		C30.624,136.601,30.661,136.758,30.715,136.906z"/>
	<path style="fill:#FCFDFD;" d="M115.61,19.487c-0.225,1.077-0.451,2.136-0.667,3.198c-0.353,1.742-0.68,3.49-1.053,5.228
		c-0.318,1.479-0.546,2.977-0.929,4.444c-0.105,0.403-0.25,0.466-0.608,0.377c-0.666-0.166-1.335-0.321-2.01-0.442
		c-0.343-0.061-0.36-0.219-0.298-0.504c1.347-6.2,2.689-12.402,4.028-18.604c0.102-0.472,0.195-0.947,0.249-1.426
		c0.038-0.332,0.126-0.449,0.488-0.365c0.667,0.155,1.347,0.26,2.024,0.373c0.321,0.054,0.46,0.209,0.483,0.549
		c0.118,1.76,0.261,3.518,0.392,5.277c0.103,1.388,0.117,2.784,0.366,4.159c0.026,0.144,0.018,0.299,0.174,0.452
		c0.144-0.67,0.32-1.307,0.412-1.955c0.176-1.241,0.522-2.445,0.752-3.674c0.228-1.215,0.509-2.421,0.753-3.633
		c0.063-0.312,0.151-0.44,0.515-0.346c0.662,0.173,1.339,0.292,2.015,0.405c0.316,0.053,0.391,0.18,0.326,0.487
		c-0.648,3.045-1.285,6.092-1.925,9.138c-0.645,3.066-1.289,6.131-1.935,9.196c-0.126,0.599-0.275,1.193-0.386,1.794
		c-0.053,0.289-0.193,0.37-0.46,0.317c-0.746-0.148-1.492-0.299-2.24-0.435c-0.209-0.038-0.266-0.133-0.262-0.339
		c0.014-0.782,0.253-1.512,0.464-2.254c0.279-0.981,0.409-1.951,0.197-3.004c-0.166-0.823-0.113-1.709-0.19-2.565
		c-0.167-1.86-0.337-3.721-0.507-5.581C115.767,19.666,115.778,19.568,115.61,19.487z"/>
	<path style="fill:#FCFDFD;" d="M43.539,152.525c-1.719,1.725-3.39,3.407-5.066,5.083c-1.413,1.413-2.832,2.821-4.247,4.232
		c-0.182,0.182-0.35,0.342-0.601,0.08c-0.512-0.534-1.029-1.064-1.556-1.583c-0.215-0.212-0.239-0.358,0.001-0.586
		c4.969-4.728,9.88-9.515,14.76-14.334c0.303-0.299,0.447-0.295,0.715,0.062c0.399,0.531,0.891,0.992,1.347,1.48
		c0.196,0.21,0.275,0.403,0.083,0.684c-1.176,1.722-2.114,3.584-3.122,5.404c-0.52,0.939-1.039,1.878-1.556,2.818
		c-0.043,0.079-0.089,0.165-0.018,0.275c1.666-1.45,3.203-3.029,4.772-4.573c0.621-0.611,1.225-1.24,1.835-1.863
		c0.284-0.289,0.513-0.332,0.813,0.029c0.402,0.483,0.869,0.915,1.321,1.355c0.243,0.237,0.286,0.392,0,0.67
		c-4.738,4.593-9.462,9.201-14.188,13.805c-0.817,0.796-0.816,0.796-1.628-0.007c-0.355-0.352-0.702-0.713-1.069-1.052
		c-0.243-0.224-0.146-0.386,0.055-0.542c1.867-1.456,3.277-3.227,4.333-5.385c0.93-1.9,2.066-3.708,2.964-5.635
		C43.532,152.844,43.603,152.754,43.539,152.525z"/>
	<path style="fill:#FCFDFD;" d="M95.54,20.969c0-2.376-0.004-4.752,0.003-7.128c0.002-0.614,0.054-1.226,0.324-1.793
		c0.483-1.013,1.264-1.64,2.397-1.742c1.502-0.135,3.001-0.054,4.499,0.101c1.426,0.148,2.21,1.532,2.339,2.483
		c0.077,0.568,0.107,1.147,0.099,1.72c-0.065,4.566-0.144,9.132-0.217,13.698c-0.017,1.031-0.344,1.915-1.145,2.605
		c-0.397,0.342-0.854,0.512-1.357,0.585c-1.539,0.222-3.081,0.094-4.61-0.057c-1.439-0.142-2.311-1.125-2.487-2.567
		c-0.077-0.631-0.013-1.261-0.012-1.891c0.002-2.005,0.001-4.01,0.001-6.014C95.429,20.969,95.485,20.969,95.54,20.969z
		 M102.085,20.904c0.039,0,0.079,0,0.118,0c0-1.059-0.003-2.117,0.001-3.176c0.004-1.244,0.013-2.489,0.02-3.733
		c0.003-0.505-0.2-0.88-0.717-0.984c-0.789-0.159-1.585-0.178-2.379-0.01c-0.374,0.08-0.585,0.291-0.602,0.687
		c-0.022,0.501-0.071,1.001-0.079,1.501c-0.038,2.377-0.071,4.755-0.097,7.132c-0.02,1.802-0.038,3.604-0.035,5.405
		c0.001,0.851,0.165,1.033,0.95,1.136c0.385,0.051,0.777,0.062,1.166,0.066c1.522,0.015,1.64-0.087,1.651-1.617
		C102.097,25.176,102.085,23.04,102.085,20.904z"/>
	<path style="fill:#FCFDFD;" d="M134.361,160.365c1.121,0.058,1.883,0.633,2.442,1.501c0.844,1.309,1.49,2.728,2.201,4.109
		c2.025,3.932,4.033,7.874,6.18,11.742c0.243,0.437,0.239,0.658-0.262,0.868c-0.509,0.213-0.993,0.502-1.453,0.811
		c-0.444,0.298-0.661,0.184-0.891-0.265c-1.031-2.011-2.1-4.002-3.131-6.012c-0.194-0.377-0.323-0.415-0.692-0.184
		c-0.657,0.412-1.36,0.752-2.059,1.092c-0.283,0.138-0.336,0.238-0.174,0.535c1.114,2.048,2.203,4.111,3.306,6.165
		c0.139,0.259,0.127,0.441-0.155,0.59c-0.671,0.353-1.336,0.719-2.002,1.083c-0.194,0.106-0.282,0.04-0.381-0.151
		c-2.147-4.144-4.304-8.282-6.453-12.425c-0.614-1.183-1.234-2.365-1.801-3.571c-0.826-1.757-0.563-2.885,1.032-3.987
		c1.155-0.798,2.413-1.442,3.784-1.818C134.03,160.398,134.217,160.387,134.361,160.365z M133.736,163.365
		c-0.404,0.025-0.756,0.324-1.139,0.535c-1.063,0.586-1.115,0.84-0.576,1.928c0.969,1.953,2.078,3.834,2.975,5.823
		c0.116,0.257,0.246,0.222,0.431,0.12c0.793-0.436,1.585-0.875,2.381-1.304c0.234-0.126,0.254-0.245,0.108-0.477
		c-0.966-1.538-1.717-3.192-2.571-4.791c-0.269-0.503-0.476-1.048-0.887-1.465C134.276,163.549,134.091,163.36,133.736,163.365z"/>
	<path style="fill:#FCFDFD;" d="M76.158,33.927c-0.028,0.966-0.502,1.725-1.283,2.213c-1.306,0.816-2.719,1.445-4.212,1.83
		c-1.655,0.427-2.683-0.07-3.483-1.604c-0.891-1.709-1.603-3.502-2.376-5.265c-1.257-2.865-2.497-5.737-3.712-8.62
		c-0.301-0.714-0.517-1.471-0.267-2.271c0.222-0.713,0.685-1.256,1.307-1.604c1.341-0.75,2.751-1.38,4.223-1.811
		c1.553-0.455,2.776,0.227,3.576,1.969c1.165,2.539,2.27,5.106,3.381,7.67c0.861,1.986,1.768,3.952,2.534,5.978
		C76.029,32.896,76.188,33.392,76.158,33.927z M66.54,19.585c-0.725,0.082-1.338,0.488-1.977,0.814
		c-0.91,0.465-0.957,0.62-0.548,1.566c1.461,3.378,2.921,6.756,4.404,10.125c0.424,0.963,0.799,1.953,1.393,2.835
		c0.171,0.254,0.355,0.431,0.685,0.304c0.795-0.304,1.594-0.602,2.302-1.087c0.359-0.247,0.47-0.535,0.267-0.993
		c-1.64-3.706-3.254-7.423-4.876-11.137c-0.296-0.678-0.539-1.38-0.964-1.998C67.059,19.77,66.866,19.594,66.54,19.585z"/>
	<path style="fill:#FCFDFD;" d="M62.441,159.809c0,1.129-0.594,1.952-1.166,2.768c-2.154,3.074-4.324,6.136-6.499,9.195
		c-0.6,0.844-1.201,1.69-1.865,2.483c-0.898,1.072-2.136,1.706-3.797,0.752c-1.16-0.666-2.253-1.436-3.28-2.283
		c-1.383-1.14-1.592-2.618-0.556-4.155c1.357-2.013,2.785-3.978,4.19-5.958c1.373-1.935,2.756-3.862,4.134-5.793
		c0.423-0.593,0.913-1.121,1.516-1.534c0.851-0.584,1.768-0.57,2.642-0.131c1.33,0.668,2.522,1.563,3.65,2.528
		C62.058,158.236,62.476,158.96,62.441,159.809z M59.44,159.961c-0.014-0.286-0.175-0.452-0.324-0.609
		c-0.501-0.53-1.096-0.937-1.742-1.271c-0.702-0.363-0.83-0.362-1.301,0.278c-1.105,1.504-2.183,3.028-3.262,4.551
		c-1.464,2.066-2.915,4.14-4.378,6.207c-0.951,1.343-1.129,1.378,0.474,2.552c1.483,1.086,1.602,1.065,2.682-0.437
		c1.405-1.955,2.824-3.901,4.2-5.877c1.153-1.656,2.4-3.249,3.44-4.984C59.314,160.229,59.381,160.077,59.44,159.961z"/>
	<path style="fill:#FCFDFD;" d="M146.49,23.842c0.943-0.003,1.612,0.415,2.269,0.827c0.831,0.521,1.647,1.069,2.441,1.645
		c1.38,1.002,1.899,2.435,0.989,4.074c-0.674,1.213-1.518,2.312-2.269,3.474c-1.083,1.677-2.223,3.316-3.338,4.971
		c-0.931,1.382-1.856,2.768-2.792,4.146c-0.326,0.479-0.738,0.882-1.218,1.206c-1.051,0.709-2.094,0.469-3.092-0.098
		c-1.047-0.594-2.046-1.27-3.002-2.004c-1.464-1.124-1.76-2.415-0.855-4.039c0.912-1.638,2.035-3.143,3.074-4.701
		c1.708-2.56,3.433-5.11,5.162-7.655c0.441-0.649,0.993-1.192,1.687-1.586C145.883,23.911,146.24,23.86,146.49,23.842z
		 M138.211,39.493c-0.049,0.338,0.128,0.512,0.301,0.679c0.537,0.52,1.192,0.875,1.807,1.289c0.387,0.261,0.665,0.194,0.97-0.123
		c0.557-0.58,0.96-1.27,1.408-1.926c2.265-3.321,4.513-6.654,6.7-10.027c0.275-0.424,0.237-0.729-0.106-1.074
		c-0.626-0.629-1.392-1.036-2.165-1.436c-0.204-0.105-0.391-0.091-0.539,0.113c-0.151,0.209-0.359,0.362-0.511,0.579
		c-2.538,3.615-4.929,7.328-7.396,10.99C138.473,38.863,138.283,39.184,138.211,39.493z"/>
	<path style="fill:#FCFDFD;" d="M145.037,153.233c0.836,0.022,1.476,0.459,2.044,1.008c0.872,0.843,1.521,1.869,2.252,2.825
		c0.843,1.102,1.782,2.132,2.406,3.396c0.309,0.626,0.481,1.248,0.262,1.919c-0.163,0.498-0.021,0.81,0.386,1.137
		c2.025,1.627,4.023,3.286,6.032,4.932c0.429,0.352,0.435,0.459-0.04,0.774c-0.465,0.308-0.903,0.65-1.31,1.029
		c-0.275,0.255-0.482,0.28-0.796,0.01c-1.998-1.715-4.023-3.399-6.021-5.114c-0.321-0.276-0.55-0.315-0.822,0.009
		c-0.047,0.056-0.104,0.105-0.159,0.154c-0.709,0.627-0.722,0.637-0.14,1.369c1.511,1.902,2.93,3.877,4.517,5.719
		c0.186,0.216,0.154,0.34-0.061,0.487c-0.627,0.429-1.247,0.866-1.773,1.421c-0.194,0.204-0.327,0.145-0.488-0.064
		c-2.022-2.63-4.051-5.254-6.079-7.88c-2.198-2.845-4.396-5.69-6.599-8.532c-0.134-0.173-0.297-0.324-0.038-0.497
		c1.695-1.131,3.191-2.532,4.903-3.638C143.964,153.404,144.476,153.217,145.037,153.233z M144.644,156.346
		c-0.3,0.001-0.46,0.142-0.624,0.256c-0.365,0.254-0.71,0.537-1.078,0.785c-0.622,0.42-0.63,0.415-0.173,1.032
		c1.312,1.772,2.794,3.414,4.02,5.251c0.123,0.184,0.264,0.223,0.411,0.093c0.596-0.525,1.277-0.953,1.778-1.586
		c0.203-0.257,0.173-0.452-0.007-0.735c-0.679-1.066-1.503-2.021-2.244-3.039c-0.38-0.523-0.804-1.016-1.234-1.5
		C145.249,156.628,144.962,156.384,144.644,156.346z"/>
	<path style="fill:#FCFDFD;" d="M88.357,21.435c-0.076,0.762-0.241,1.523-0.908,2.045c-0.256,0.201-0.219,0.39-0.108,0.627
		c1.151,2.464,2.295,4.932,3.457,7.391c0.166,0.351,0.182,0.517-0.27,0.588c-0.603,0.095-1.195,0.259-1.791,0.4
		c-0.309,0.073-0.492,0.017-0.639-0.323c-1.048-2.413-2.129-4.812-3.184-7.222c-0.134-0.307-0.293-0.406-0.629-0.37
		c-1.233,0.134-1.26,0.149-1.024,1.31c0.465,2.288,0.926,4.578,1.417,6.861c0.103,0.479,0.001,0.662-0.498,0.708
		c-0.57,0.053-1.146,0.146-1.694,0.308c-0.476,0.141-0.605-0.008-0.693-0.452c-0.573-2.893-1.165-5.783-1.761-8.671
		c-0.738-3.579-1.484-7.156-2.23-10.734c-0.207-0.991-0.209-0.966,0.8-1.15c1.621-0.296,3.232-0.648,4.854-0.94
		c1.614-0.29,2.955,0.517,3.389,2.079c0.661,2.376,1.117,4.799,1.488,7.237C88.348,21.219,88.348,21.313,88.357,21.435z
		 M83.044,14.566c-0.431,0.08-0.992,0.209-1.56,0.281c-0.402,0.051-0.468,0.21-0.387,0.59c0.471,2.208,0.92,4.42,1.361,6.633
		c0.048,0.242,0.134,0.324,0.361,0.27c0.575-0.137,1.159-0.246,1.722-0.42c0.755-0.233,0.949-0.62,0.783-1.402
		c-0.215-1.014-0.423-2.03-0.639-3.045c-0.139-0.652-0.263-1.308-0.438-1.95C84.065,14.857,83.721,14.578,83.044,14.566z"/>
	<path style="fill:#FCFDFD;" d="M92.071,177.781c0.093,0.006,0.187,0.002,0.278,0.02c0.413,0.082,0.569-0.045,0.605-0.502
		c0.209-2.665,0.646-5.308,0.811-7.978c0.02-0.324,0.16-0.404,0.462-0.374c0.609,0.061,1.221,0.098,1.832,0.138
		c0.72,0.047,0.729,0.044,0.654,0.741c-0.177,1.661-0.362,3.321-0.546,4.981c-0.285,2.582-0.576,5.164-0.856,7.747
		c-0.273,2.509-0.541,5.018-0.796,7.529c-0.032,0.32-0.14,0.424-0.453,0.365c-0.657-0.125-1.323-0.189-1.991-0.205
		c-0.376-0.009-0.553-0.094-0.498-0.559c0.325-2.784,0.61-5.573,0.91-8.36c0.089-0.827,0.093-0.82-0.711-0.886
		c-0.777-0.063-1.553-0.134-2.329-0.215c-0.309-0.032-0.404,0.067-0.424,0.389c-0.184,2.928-0.565,5.837-0.836,8.756
		c-0.028,0.306-0.146,0.377-0.414,0.357c-0.741-0.055-1.481-0.112-2.223-0.147c-0.363-0.017-0.304-0.255-0.283-0.47
		c0.129-1.33,0.256-2.661,0.4-3.99c0.582-5.407,1.175-10.813,1.748-16.222c0.049-0.465,0.152-0.7,0.689-0.619
		c0.604,0.091,1.22,0.132,1.831,0.127c0.42-0.003,0.504,0.161,0.461,0.526c-0.172,1.475-0.338,2.95-0.495,4.426
		c-0.134,1.255-0.243,2.512-0.385,3.766c-0.048,0.419,0.081,0.537,0.505,0.534c0.685-0.005,1.371,0.075,2.056,0.119
		C92.071,177.778,92.071,177.779,92.071,177.781z"/>
	<path style="fill:#FCFDFD;" d="M73.683,165.938c-0.007,0.822-0.286,1.568-0.642,2.285c-0.92,1.855-1.655,3.801-2.726,5.582
		c-0.47,0.782-1.107,1.34-2.069,1.419c-0.253,0.021-0.432,0.099-0.488,0.418c-0.435,2.482-1.015,4.935-1.547,7.398
		c-0.004,0.018-0.007,0.037-0.011,0.055c-0.254,1.137-0.251,1.132-1.282,0.603c-0.312-0.16-0.63-0.335-0.966-0.419
		c-0.499-0.125-0.598-0.453-0.473-0.854c0.761-2.454,1.131-5.002,1.829-7.47c0.095-0.337,0.055-0.593-0.299-0.72
		c-0.4-0.143-0.758-0.619-1.127-0.505c-0.334,0.103-0.364,0.677-0.541,1.036c-1.011,2.059-1.946,4.154-2.835,6.269
		c-0.15,0.358-0.292,0.507-0.69,0.299c-0.624-0.326-1.271-0.61-1.915-0.895c-0.279-0.123-0.351-0.252-0.201-0.549
		c1.886-3.721,3.583-7.532,5.368-11.301c1.134-2.396,2.247-4.802,3.344-7.215c0.194-0.427,0.351-0.493,0.781-0.28
		c1.593,0.789,3.226,1.498,4.81,2.304C73.01,163.91,73.702,164.709,73.683,165.938z M67.191,172.415
		c0.516-0.057,0.791-0.374,0.984-0.729c0.894-1.643,1.689-3.333,2.358-5.082c0.185-0.484,0.023-0.819-0.37-1.096
		c-0.534-0.376-1.147-0.603-1.717-0.91c-0.29-0.156-0.377,0.013-0.483,0.243c-0.96,2.079-1.929,4.153-2.898,6.228
		c-0.063,0.135-0.176,0.302,0.002,0.39C65.777,171.81,66.484,172.172,67.191,172.415z"/>
	<path style="fill:#FCFDFD;" d="M163.223,163.208c-1.089-0.052-1.96-0.681-2.776-1.395c-0.785-0.687-0.767-0.701-0.052-1.454
		c0.332-0.35,0.653-0.71,0.973-1.07c0.234-0.263,0.446-0.375,0.71-0.018c0.129,0.175,0.325,0.302,0.496,0.444
		c0.716,0.596,1.036,0.583,1.71-0.064c0.997-0.956,1.001-1.243-0.015-2.184c-0.857-0.794-1.731-1.569-2.593-2.358
		c-0.269-0.247-0.542-0.314-0.912-0.218c-1.383,0.359-2.735,0.824-4.069,1.317c-1.242,0.459-2.183,0.12-3.078-0.726
		c-1.065-1.006-2.163-1.977-3.236-2.974c-0.646-0.6-1.17-1.285-1.421-2.154c-0.129-0.447-0.147-0.875,0.067-1.296
		c0.808-1.587,1.976-2.86,3.449-3.843c0.723-0.482,1.516-0.427,2.291-0.092c1.173,0.506,1.994,1.465,2.914,2.294
		c0.183,0.165,0.12,0.335-0.057,0.466c-0.573,0.425-1.019,0.971-1.435,1.54c-0.234,0.319-0.397,0.271-0.656,0.019
		c-0.53-0.516-1.052-1.046-1.718-1.403c-0.221-0.119-0.389-0.142-0.607,0.009c-0.518,0.358-0.864,0.86-1.201,1.369
		c-0.144,0.218-0.034,0.421,0.108,0.612c0.346,0.466,0.789,0.837,1.209,1.229c0.624,0.583,1.265,1.147,1.885,1.735
		c0.309,0.293,0.604,0.398,1.048,0.266c1.526-0.454,2.985-1.1,4.524-1.519c0.745-0.203,1.375-0.138,1.962,0.389
		c1.547,1.386,3.183,2.685,4.527,4.278c1.086,1.287,1.073,2.303,0.11,3.676c-0.676,0.963-1.518,1.775-2.392,2.547
		C164.518,163.043,163.914,163.201,163.223,163.208z"/>
	<path style="fill:#FCFDFD;" d="M111.883,189.629c-0.867,0.104-2.115-1.041-2.505-2.407c-0.157-0.552-0.249-1.122-0.39-1.679
		c-0.071-0.283,0.011-0.403,0.301-0.451c0.731-0.12,1.459-0.263,2.187-0.402c0.31-0.059,0.512,0.007,0.496,0.375
		c-0.003,0.073,0.013,0.148,0.021,0.222c0.161,1.557,0.799,1.932,2.246,1.32c0.608-0.257,0.751-0.519,0.646-1.171
		c-0.179-1.117-0.403-2.229-0.516-3.353c-0.075-0.74-0.432-1.133-1.091-1.367c-1.256-0.447-2.497-0.938-3.758-1.37
		c-1.013-0.348-1.585-1.001-1.757-2.07c-0.274-1.703-0.547-3.406-0.797-5.113c-0.311-2.126,0.912-3.363,2.651-3.695
		c1.056-0.202,2.117-0.402,3.2-0.353c1.46,0.066,2.157,1.055,2.537,2.286c0.261,0.844,0.346,1.742,0.515,2.615
		c0.051,0.266-0.063,0.369-0.315,0.405c-0.716,0.102-1.43,0.213-2.144,0.33c-0.286,0.047-0.393-0.065-0.429-0.347
		c-0.07-0.551-0.144-1.106-0.277-1.644c-0.181-0.734-0.445-0.908-1.185-0.898c-0.093,0.001-0.186,0.002-0.278,0.011
		c-1.225,0.129-1.488,0.502-1.275,1.72c0.185,1.059,0.35,2.122,0.491,3.188c0.074,0.558,0.333,0.884,0.87,1.091
		c1.399,0.54,2.846,0.945,4.225,1.54c0.817,0.352,1.336,0.917,1.472,1.802c0.274,1.777,0.584,3.55,0.794,5.335
		c0.246,2.088-0.562,3.184-2.616,3.63C114.227,189.389,113.235,189.536,111.883,189.629z"/>
	<path style="fill:#FCFDFD;" d="M84.057,170.232c-0.662-0.175-1.329-0.337-1.986-0.53c-0.401-0.118-0.527-0.072-0.634,0.409
		c-0.322,1.444-0.754,2.864-1.154,4.291c-1.014,3.62-2.034,7.238-3.052,10.857c-0.185,0.659-0.39,1.314-0.548,1.98
		c-0.071,0.297-0.233,0.294-0.448,0.24c-0.754-0.191-1.488-0.452-2.261-0.58c-0.358-0.06-0.178-0.348-0.126-0.536
		c0.464-1.679,0.935-3.357,1.409-5.033c1.145-4.049,2.288-8.099,3.45-12.143c0.119-0.413,0.022-0.566-0.381-0.637
		c-0.547-0.096-1.083-0.269-1.632-0.343c-0.367-0.05-0.43-0.212-0.359-0.518c0.134-0.578,0.29-1.153,0.391-1.737
		c0.071-0.406,0.258-0.469,0.62-0.366c1.55,0.442,3.102,0.877,4.658,1.296c0.858,0.231,1.723,0.438,2.591,0.624
		c0.237,0.051,0.323,0.111,0.272,0.354c-0.144,0.69-0.279,1.382-0.412,2.074C84.413,170.157,84.289,170.25,84.057,170.232z"/>
	<path style="fill:#FCFDFD;" d="M129.291,185.382c0.012,0.208-0.111,0.267-0.265,0.318c-0.721,0.239-1.442,0.479-2.158,0.732
		c-0.318,0.112-0.38-0.09-0.453-0.314c-1.307-3.981-2.614-7.962-3.927-11.941c-0.552-1.672-1.126-3.337-1.671-5.011
		c-0.141-0.433-0.361-0.48-0.743-0.306c-0.471,0.215-0.966,0.377-1.442,0.583c-0.3,0.13-0.469,0.093-0.582-0.248
		c-0.18-0.545-0.379-1.087-0.62-1.607c-0.164-0.354-0.114-0.527,0.263-0.649c1.442-0.471,2.883-0.947,4.316-1.444
		c0.926-0.321,1.884-0.556,2.772-0.98c0.312-0.149,0.475-0.061,0.579,0.258c0.195,0.598,0.4,1.195,0.627,1.782
		c0.117,0.302,0.032,0.452-0.263,0.533c-0.518,0.142-1.033,0.297-1.552,0.435c-0.713,0.189-0.72,0.186-0.493,0.879
		c0.68,2.079,1.365,4.156,2.048,6.234c1.082,3.293,2.162,6.586,3.246,9.878C129.07,184.813,129.188,185.105,129.291,185.382z"/>
	<path style="fill:#FCFDFD;" d="M62.469,42.563c0.009,0.193-0.122,0.264-0.244,0.352c-0.586,0.421-1.172,0.843-1.75,1.276
		c-0.325,0.244-0.469,0.001-0.616-0.213c-0.684-0.99-1.364-1.984-2.043-2.978c-2.477-3.624-4.954-7.248-7.429-10.873
		c-0.188-0.275-0.401-0.543-0.533-0.845c-0.207-0.473-0.458-0.377-0.768-0.134c-0.452,0.354-0.921,0.686-1.361,1.054
		c-0.273,0.229-0.452,0.245-0.668-0.075c-0.373-0.552-0.774-1.086-1.182-1.613c-0.157-0.203-0.124-0.303,0.081-0.435
		c2.163-1.395,4.32-2.8,6.376-4.351c0.263-0.198,0.424-0.206,0.612,0.103c0.318,0.522,0.676,1.02,1.028,1.52
		c0.197,0.28,0.205,0.455-0.143,0.65c-0.58,0.326-1.112,0.733-1.682,1.078c-0.277,0.167-0.238,0.311-0.078,0.528
		c2.708,3.669,5.213,7.479,7.81,11.224c0.802,1.157,1.622,2.302,2.431,3.454C62.373,42.376,62.42,42.478,62.469,42.563z"/>
	<path style="fill:#FCFDFD;" d="M137.417,21.264c-0.595-0.256-1.202-0.487-1.78-0.776c-0.419-0.209-0.603-0.197-0.8,0.306
		c-0.736,1.874-1.54,3.722-2.318,5.579c-1.493,3.564-3.055,7.099-4.434,10.71c-0.143,0.375-0.309,0.45-0.656,0.297
		c-0.678-0.298-1.361-0.586-2.048-0.863c-0.238-0.096-0.314-0.197-0.187-0.455c1.196-2.428,2.152-4.96,3.224-7.442
		c1.293-2.994,2.541-6.006,3.824-9.004c0.161-0.375,0.131-0.56-0.286-0.693c-0.581-0.185-1.14-0.438-1.715-0.647
		c-0.349-0.127-0.402-0.31-0.217-0.63c0.305-0.53,0.581-1.076,0.757-1.668c0.085-0.285,0.264-0.362,0.556-0.22
		c2.247,1.099,4.578,2.001,6.904,2.912c0.335,0.131,0.451,0.318,0.274,0.627c-0.298,0.521-0.456,1.092-0.632,1.657
		C137.809,21.189,137.677,21.302,137.417,21.264z"/>
	<path style="fill:#FCFDFD;" d="M168.641,137.395c0.069-0.115,0.089-0.27,0.251-0.309c0,0-0.01-0.009-0.009-0.009
		c-0.07,0.114-0.03,0.317-0.25,0.309C168.633,137.386,168.641,137.395,168.641,137.395z"/>
	<path style="fill:#FCFDFD;" d="M168.541,137.63c0.034-0.078,0.068-0.156,0.101-0.235c-0.001-0.001-0.009-0.01-0.009-0.01
		c0.006,0.093,0.027,0.192-0.09,0.239L168.541,137.63z"/>
	<polygon style="fill:#FCFDFD;" points="168.543,137.624 168.535,137.648 168.542,137.63 	"/>
	<path style="fill:#1858A5;" d="M99.747,102.521c0.079-1.095,0.078-2.191,0.033-3.286c-0.015-0.376,0.103-0.489,0.461-0.49
		c4.816-0.012,9.557,0.495,14.17,1.964c2.301,0.732,4.477,1.707,6.325,3.28c1.22,1.038,2.017,2.328,1.778,4.042
		c-0.067,0.483-0.231,0.93-0.447,1.364c-0.069,0.139-0.235,0.335-0.068,0.448c0.181,0.122,0.261-0.132,0.369-0.24
		c0.966-0.956,1.162-2.195,1.215-3.461c0.053-1.279,0.083-2.562-0.042-3.841c-0.056-0.572,0.173-1.098,0.352-1.617
		c0.327-0.947,0.495-1.9,0.362-2.898c-0.06-0.448-0.009-0.874,0.144-1.31c0.292-0.831,0.055-1.631-0.36-2.345
		c-0.307-0.528-0.489-1.022-0.503-1.654c-0.024-1.02-0.615-1.854-1.253-2.604c-1.537-1.806-3.576-2.85-5.759-3.646
		c-1.709-0.624-3.464-1.091-5.246-1.46c-0.15-0.031-0.335,0.002-0.449-0.229c0.986-0.075,1.945-0.073,2.885,0.121
		c0.906,0.186,1.814,0.383,2.678,0.74c0.572,0.236,0.582,0.171,0.662-0.413c0.333-2.406-1.097-3.778-2.896-4.873
		c-3.088-1.88-6.491-2.802-10.078-3.002c-3.733-0.208-7.465-0.11-11.179,0.375c-0.027,0.003-0.056-0.016-0.15-0.046
		c0.537-0.245,1.069-0.298,1.582-0.41c0.456-0.1,0.724-0.269,0.797-0.812c0.437-3.235,0.932-6.462,1.388-9.694
		c0.537-3.803,0.941-7.625,1.579-11.414c0.024-0.141,0.005-0.296,0.16-0.445c-0.054,2.062-0.113,4.085-0.16,6.109
		c-0.118,4.997-0.231,9.993-0.344,14.99c-0.011,0.483,0.296,0.692,0.857,0.53c1.112-0.321,2.263-0.288,3.397-0.409
		c0.609-0.065,1.223-0.086,1.836-0.109c0.292-0.011,0.378-0.107,0.332-0.411c-0.619-4.09-1.22-8.183-1.837-12.274
		c-0.373-2.474-0.767-4.946-1.081-7.448c2.734,6.052,5.081,12.273,7.88,18.36c0.032-0.409-0.161-0.704-0.226-1.026
		c-0.065-0.322-0.249-0.588-0.343-0.903c-0.597-2.005-1.236-3.998-1.898-5.983c-1.504-4.507-3.036-9.005-4.543-13.511
		c-0.735-2.197-1.437-4.406-2.162-6.606c-0.048-0.144-0.041-0.38-0.252-0.383c-0.193-0.002-0.232,0.219-0.307,0.36
		c-2.112,3.917-4.216,7.839-6.335,11.753c-0.609,1.124-1.253,2.227-1.959,3.298c-1.315,1.994-3.133,2.47-5.375,2.042
		c-2.558-0.489-4.621-1.843-6.535-3.502c-0.121-0.105-0.225-0.32-0.404-0.226c-0.202,0.105-0.028,0.3-0.003,0.448
		c0.622,3.734,1.241,7.469,1.878,11.201c0.759,4.444,1.543,8.884,2.296,13.33c0.242,1.427,0.53,2.848,0.626,4.296
		c0.035,0.538,0.036,1.077-0.099,1.607c-0.264,1.036-1.09,1.522-2.121,1.227c-1.133-0.324-1.995-1.058-2.751-1.916
		c-3.289-3.733-6.565-7.478-9.846-11.218c-0.061-0.07-0.121-0.141-0.176-0.216c-0.457-0.622-0.511-0.604-0.929,0.085
		c-0.845,1.396-1.696,2.787-2.583,4.159c-1.56,2.414-3.787,3.081-6.47,2.53c-2.905-0.597-5.796-1.258-8.694-1.888
		c-1.133-0.246-1.149-0.237-0.86,0.876c1.008,3.896,2.033,7.787,3.039,11.683c0.26,1.008,0.467,2.03,0.324,3.084
		c-0.295,2.17-1.56,3.592-3.498,4.47c-0.932,0.423-1.911,0.706-2.936,0.812c-0.142,0.015-0.341-0.008-0.401,0.134
		c-0.072,0.172,0.129,0.244,0.236,0.332c3.268,2.684,6.549,5.355,9.808,8.05c4.159,3.44,8.304,6.896,12.45,10.352
		c1.552,1.293,3.215,2.46,4.596,3.95c0.936,1.011,1.643,2.142,1.778,3.566c0.084,0.886-0.069,1.692-0.563,2.441
		c-0.847,1.285-1.511,2.684-2.43,3.926c-0.098,0.132-0.234,0.285-0.149,0.452c0.111,0.218,0.334,0.106,0.5,0.081
		c2.806-0.423,5.604-0.911,8.418-1.272c3.644-0.468,7.257-1.159,10.917-1.507c0.448-0.043,0.739-0.128,0.841-0.709
		c0.702-3.999,1.461-7.988,2.205-11.98c0.04-0.216,0.075-0.439,0.264-0.662c-0.241,1.403-0.24,2.776-0.337,4.141
		c-0.371,5.253-0.722,10.507-1.089,15.76c-0.304,4.336-0.563,8.674-0.781,13.015c-0.073,1.447-0.226,2.891-0.261,4.338
		c-0.014,0.573-0.253,0.588-0.665,0.509c-1.602-0.308-3.213-0.573-4.803-0.932c-5.14-1.163-10.03-3.003-14.669-5.51
		c-9.503-5.136-17.099-12.304-22.761-21.495c-3.903-6.335-6.402-13.208-7.683-20.538c-0.881-5.043-1.112-10.11-0.735-15.205
		c0.296-4.004,1.025-7.934,2.129-11.8c1.309-4.583,3.181-8.92,5.54-13.052c3.691-6.465,8.478-11.997,14.252-16.684
		c2.612-2.12,5.392-3.998,8.328-5.634c4.276-2.382,8.771-4.247,13.502-5.525c5.76-1.555,11.629-2.224,17.584-1.993
		c5.68,0.221,11.248,1.127,16.657,2.953c5.951,2.009,11.474,4.824,16.521,8.563c5.121,3.794,9.55,8.272,13.242,13.473
		c4.743,6.682,7.985,14.029,9.667,22.044c1.173,5.591,1.528,11.242,1.112,16.953c-0.467,6.407-1.918,12.566-4.383,18.485
		c-2.333,5.603-5.436,10.744-9.36,15.387c-3.236,3.829-6.869,7.231-10.951,10.135c-3.403,2.421-7.03,4.462-10.877,6.108
		c-5.036,2.155-10.263,3.601-15.682,4.381c-0.476,0.069-0.466-0.203-0.481-0.506c-0.087-1.725-0.159-3.451-0.26-5.176
		c-0.281-4.82-0.569-9.641-0.865-14.46c-0.187-3.058-0.379-6.116-0.596-9.172c-0.126-1.775-0.317-3.545-0.453-5.319
		c-0.082-1.067-0.112-2.137-0.095-3.216c0.188,1.047,0.365,2.096,0.568,3.139c0.204,1.05,0.438,2.095,0.652,3.143
		c0.06,0.296,0.296,0.28,0.477,0.236c1.851-0.454,3.738-0.752,5.56-1.325c3.107-0.977,6.04-2.281,8.396-4.609
		c1.095-1.082,1.936-2.347,2.189-3.91c0.371-2.3-0.588-4.13-2.125-5.714c-1.862-1.919-4.185-3.111-6.648-4.047
		c-4.462-1.697-9.106-2.354-13.858-2.391c-3.429-0.027-6.829,0.266-10.189,0.941c-2.382,0.479-4.7,1.187-6.926,2.177
		c-0.121,0.054-0.238,0.107-0.373,0.015c0.008-0.265,0.246-0.29,0.411-0.377c3.22-1.684,6.668-2.661,10.235-3.252
		c1.842-0.305,3.698-0.51,5.568-0.552c0.252-0.006,0.574,0.066,0.611-0.377c0.038-0.452-0.157-0.602-0.572-0.59
		c-1.615,0.049-3.23,0.035-4.843,0.188c-2.819,0.267-5.575,0.836-8.281,1.656c-1.208,0.366-2.365,0.87-3.525,1.364
		c-0.064,0.027-0.135,0.04-0.348,0.101c0.816-0.894,1.697-1.432,2.681-1.812c0.774-0.299,0.805-0.353,0.349-1.075
		c-0.416-0.659-0.859-1.303-1.155-2.027c-0.057-0.139-0.24-0.363,0.001-0.489c0.184-0.096,0.344,0.048,0.479,0.191
		c0.413,0.439,0.686,0.969,0.966,1.491c0.112,0.209,0.215,0.412,0.359,0.605c0.528,0.708,0.511,0.685,1.336,0.426
		c2.274-0.713,4.605-1.155,6.983-1.307c0.508-0.032,0.582-0.211,0.493-0.649c-0.155-0.762-0.28-1.531-0.398-2.301
		c-0.028-0.184-0.111-0.446,0.164-0.522c0.281-0.078,0.484,0.11,0.563,0.346c0.152,0.455,0.255,0.927,0.375,1.393
		c0.032,0.125,0.051,0.254,0.079,0.381c0.255,1.139,0.255,1.135,1.444,1.084c0.946-0.041,1.892-0.072,2.838-0.108
		c-0.001,0.092,0.001,0.185-0.003,0.277c-0.038,0.897-0.036,0.752,0.716,0.78c2.281,0.087,4.561,0.151,6.824,0.502
		c2.902,0.45,5.752,1.066,8.447,2.287c0.453,0.205,0.894,0.571,1.467,0.487c-0.006-0.23-0.174-0.272-0.279-0.366
		c-0.76-0.684-1.664-1.13-2.596-1.514c-0.436-0.18-0.393-0.416-0.195-0.73c0.395-0.626,0.805-1.244,1.174-1.885
		c0.127-0.22,0.363-0.563,0.07-0.745c-0.302-0.189-0.532,0.125-0.707,0.374c-0.064,0.091-0.122,0.187-0.18,0.282
		c-0.367,0.601-0.735,1.201-1.097,1.804c-0.159,0.265-0.336,0.414-0.679,0.283c-2.131-0.811-4.359-1.183-6.611-1.451
		c-0.436-0.052-1.051,0.118-1.262-0.193c-0.227-0.336,0.123-0.871,0.191-1.325c0.074-0.494,0.215-0.98,0.19-1.486
		c-0.01-0.208-0.038-0.43-0.286-0.485c-0.257-0.057-0.373,0.162-0.451,0.337c-0.113,0.251-0.183,0.525-0.243,0.795
		c-0.117,0.525-0.238,1.051-0.312,1.583c-0.06,0.433-0.227,0.606-0.689,0.541C102.087,102.496,100.917,102.492,99.747,102.521z
		 M134.206,96.159c1.337-0.602,2.553-1.421,3.793-2.188c3.531-2.184,7.03-4.419,10.549-6.622c1.886-1.18,3.788-2.333,5.681-3.501
		c0.183-0.113,0.472-0.226,0.38-0.472c-0.075-0.202-0.368-0.1-0.564-0.098c-1.858,0.015-3.715,0.053-5.573,0.057
		c-5.926,0.014-11.853,0.015-17.779,0.028c-0.184,0-0.411-0.094-0.577,0.174c2.242,0.231,4.459,0.416,6.669,0.674
		c3.613,0.422,7.234,0.774,10.851,1.163c0.17,0.018,0.429-0.039,0.485,0.164c0.055,0.203-0.189,0.293-0.331,0.398
		c-1.611,1.186-3.23,2.362-4.838,3.551c-2.847,2.105-5.689,4.217-8.533,6.326c-0.119,0.088-0.243,0.171-0.21,0.349
		c-0.031,0.004-0.061,0.008-0.091,0.012c0.013,0.02,0.026,0.04,0.039,0.06C134.173,96.209,134.189,96.184,134.206,96.159z
		 M112.656,131.633c0.415,0.334,0.738,0.638,1.102,0.88c2.7,1.794,5.409,3.573,8.112,5.362c3.045,2.015,6.086,4.035,9.133,6.048
		c0.235,0.156,0.496,0.511,0.749,0.324c0.188-0.139-0.052-0.511-0.135-0.765c-1.924-5.915-3.849-11.829-5.794-17.737
		c-0.299-0.908-0.711-1.778-0.976-2.709c0.227,1.167,0.211,2.366,0.532,3.506c0.336,1.194,0.57,2.417,0.737,3.632
		c0.127,0.923,0.403,1.815,0.493,2.754c0.076,0.792,0.354,1.609,0.526,2.42c0.23,1.088,0.454,2.178,0.683,3.267
		c0.086,0.406-0.068,0.526-0.43,0.345c-0.314-0.157-0.601-0.367-0.915-0.523c-3.008-1.5-6.016-3-9.031-4.487
		C115.887,133.181,114.32,132.437,112.656,131.633z"/>
	<path style="fill:#1858A5;" d="M80.421,97.834c0.609-0.766,1.377-1.324,2.193-1.825c2.357-1.447,4.947-2.231,7.641-2.757
		c4.898-0.957,9.828-1.279,14.793-0.748c4.274,0.457,8.46,1.343,12.449,2.993c1.755,0.726,3.433,1.605,4.653,3.139
		c0.399,0.501,0.634,1.086,0.778,1.706c0.032,0.136,0.061,0.311-0.119,0.386c-0.145,0.06-0.235-0.042-0.327-0.143
		c-1.375-1.503-3.052-2.575-4.894-3.407c-3.005-1.356-6.193-2.039-9.438-2.453c-4.656-0.595-9.326-0.647-14.009-0.286
		c-2.99,0.231-5.931,0.705-8.813,1.509C83.641,96.417,81.968,96.958,80.421,97.834z"/>
	<path style="fill:#1858A5;" d="M87.073,90.581c0.343-0.523,0.831-0.81,1.338-1.073c2.715-1.407,5.613-2.023,8.658-2.179
		c3.573-0.182,7.135-0.116,10.669,0.382c3.918,0.552,7.764,1.443,11.301,3.327c1.516,0.807,2.868,1.827,3.993,3.141
		c0.462,0.54,0.686,1.18,0.922,1.822c0.035,0.096,0.114,0.213,0.011,0.31c-0.107,0.1-0.252,0.074-0.368,0.031
		c-0.098-0.036-0.191-0.116-0.26-0.198c-1.826-2.158-4.205-3.493-6.783-4.508c-3.13-1.232-6.413-1.801-9.741-2.166
		c-3.758-0.413-7.522-0.455-11.29-0.218c-2.747,0.173-5.443,0.694-8.13,1.265C87.286,90.539,87.179,90.559,87.073,90.581z"/>
	<path style="fill:#1858A5;" d="M116.852,121.21c0.112-0.407,0.258-0.808,0.331-1.222c0.341-1.946-0.555-3.306-2.142-4.269
		c-1.503-0.913-3.174-1.395-4.891-1.733c-0.274-0.054-0.444,0.018-0.635,0.192c-0.985,0.901-1.981,1.79-2.97,2.686
		c-0.243,0.22-0.471,0.459-0.861,0.626c0.348-1.205,0.659-2.342,1.011-3.466c0.132-0.419,0.051-0.569-0.394-0.587
		c-0.63-0.026-1.261-0.078-1.885-0.168c-0.393-0.057-0.621,0.077-0.824,0.396c-0.526,0.824-0.968,1.703-1.597,2.46
		c-0.101,0.122-0.192,0.253-0.377,0.351c0.123-0.834,0.25-1.667,0.366-2.502c0.109-0.785,0.104-0.792-0.696-0.792
		c-1.021-0.001-2.043,0.016-3.064,0.011c-0.342-0.002-0.466,0.087-0.474,0.477c-0.02,0.962,0.424,1.851,0.385,2.82
		c-0.313-0.065-0.44-0.327-0.581-0.558c-0.453-0.744-0.917-1.483-1.328-2.251c-0.183-0.341-0.406-0.436-0.756-0.397
		c-0.811,0.091-1.623,0.197-2.437,0.243c-0.423,0.024-0.445,0.177-0.339,0.52c0.343,1.111,0.664,2.228,1.004,3.379
		c-0.314,0.014-0.471-0.174-0.639-0.33c-0.962-0.9-1.931-1.793-2.874-2.712c-0.399-0.389-0.786-0.428-1.307-0.259
		c-1.425,0.462-2.899,0.785-4.21,1.554c-0.739,0.434-1.423,0.92-1.912,1.659c-0.74,1.12-0.713,2.259-0.197,3.44
		c0.08,0.182,0.228,0.338,0.228,0.562c-1.051-1.022-1.295-2.953-0.596-4.227c0.736-1.341,1.921-2.128,3.25-2.739
		c1.364-0.627,2.804-0.972,4.273-1.313c4.983-1.156,10.013-1.033,15.054-0.818c1.752,0.075,3.47,0.461,5.194,0.803
		c1.466,0.291,2.879,0.681,4.212,1.334c1.668,0.817,3.064,1.913,3.454,3.875C117.843,119.355,117.471,120.32,116.852,121.21z"/>
	<path style="fill:#1858A5;" d="M76.332,104.357c0.626-1.933,1.904-3.312,3.694-4.31c3.008-1.677,6.263-2.557,9.625-3.1
		c4.523-0.731,9.075-0.961,13.653-0.708c3.137,0.173,6.247,0.534,9.307,1.253c2.592,0.609,5.089,1.48,7.35,2.924
		c0.907,0.579,1.755,1.235,2.471,2.054c0.337,0.386,0.471,0.83,0.543,1.313c0.017,0.112,0.056,0.231-0.083,0.281
		c-0.113,0.041-0.216-0.005-0.294-0.1c-2.735-3.315-6.605-4.435-10.539-5.349c-5.43-1.261-10.951-1.423-16.498-1.11
		c-3.96,0.224-7.863,0.798-11.634,2.037c-2.44,0.801-4.741,1.926-6.677,3.673c-0.191,0.172-0.358,0.375-0.519,0.577
		C76.58,103.978,76.455,104.181,76.332,104.357z"/>
	<path style="fill:#1858A5;" d="M102.085,20.904c0,2.136,0.012,4.272-0.004,6.408c-0.011,1.53-0.129,1.632-1.651,1.617
		c-0.389-0.004-0.781-0.015-1.166-0.066c-0.785-0.103-0.948-0.285-0.95-1.136c-0.003-1.802,0.015-3.604,0.035-5.405
		c0.026-2.377,0.059-4.755,0.097-7.132c0.008-0.501,0.058-1.001,0.079-1.501c0.017-0.395,0.228-0.607,0.602-0.687
		c0.794-0.169,1.59-0.149,2.379,0.01c0.518,0.104,0.72,0.479,0.717,0.984c-0.007,1.244-0.016,2.489-0.02,3.733
		c-0.003,1.059-0.001,2.117-0.001,3.176C102.164,20.904,102.124,20.904,102.085,20.904z"/>
	<path style="fill:#1858A5;" d="M133.736,163.365c0.355-0.004,0.54,0.184,0.722,0.369c0.411,0.417,0.618,0.961,0.887,1.465
		c0.854,1.599,1.606,3.253,2.571,4.791c0.146,0.232,0.126,0.351-0.108,0.477c-0.797,0.429-1.588,0.868-2.381,1.304
		c-0.185,0.102-0.315,0.137-0.431-0.12c-0.897-1.989-2.006-3.87-2.975-5.823c-0.54-1.088-0.487-1.343,0.576-1.928
		C132.979,163.688,133.332,163.389,133.736,163.365z"/>
	<path style="fill:#1858A5;" d="M66.54,19.585c0.326,0.008,0.519,0.184,0.687,0.428c0.425,0.618,0.668,1.32,0.964,1.998
		c1.622,3.714,3.235,7.432,4.876,11.137c0.203,0.458,0.093,0.746-0.267,0.993c-0.708,0.485-1.507,0.783-2.302,1.087
		c-0.33,0.127-0.514-0.05-0.685-0.304c-0.593-0.882-0.969-1.872-1.393-2.835c-1.482-3.369-2.942-6.747-4.404-10.125
		c-0.409-0.946-0.362-1.101,0.548-1.566C65.202,20.073,65.815,19.667,66.54,19.585z"/>
	<path style="fill:#1858A5;" d="M59.44,159.961c-0.059,0.116-0.126,0.269-0.211,0.411c-1.04,1.735-2.286,3.327-3.44,4.984
		c-1.376,1.976-2.795,3.922-4.2,5.877c-1.08,1.502-1.198,1.523-2.682,0.437c-1.603-1.174-1.425-1.209-0.474-2.552
		c1.463-2.066,2.914-4.141,4.378-6.207c1.079-1.523,2.158-3.047,3.262-4.551c0.47-0.64,0.598-0.641,1.301-0.278
		c0.646,0.334,1.241,0.741,1.742,1.271C59.264,159.509,59.426,159.675,59.44,159.961z"/>
	<path style="fill:#1858A5;" d="M138.211,39.493c0.072-0.31,0.262-0.63,0.468-0.936c2.467-3.662,4.858-7.375,7.396-10.99
		c0.152-0.217,0.36-0.37,0.511-0.579c0.148-0.204,0.335-0.218,0.539-0.113c0.773,0.4,1.54,0.806,2.165,1.436
		c0.343,0.345,0.381,0.649,0.106,1.074c-2.188,3.373-4.435,6.706-6.7,10.027c-0.448,0.657-0.851,1.346-1.408,1.926
		c-0.305,0.317-0.582,0.384-0.97,0.123c-0.614-0.414-1.269-0.769-1.807-1.289C138.339,40.005,138.163,39.831,138.211,39.493z"/>
	<path style="fill:#1858A5;" d="M144.644,156.346c0.318,0.039,0.605,0.283,0.849,0.558c0.43,0.484,0.853,0.977,1.234,1.5
		c0.741,1.018,1.565,1.973,2.244,3.039c0.18,0.283,0.21,0.478,0.007,0.735c-0.501,0.632-1.182,1.061-1.778,1.586
		c-0.147,0.13-0.289,0.09-0.411-0.093c-1.227-1.837-2.709-3.479-4.02-5.251c-0.457-0.617-0.449-0.612,0.173-1.032
		c0.368-0.249,0.714-0.531,1.078-0.785C144.184,156.487,144.343,156.347,144.644,156.346z"/>
	<path style="fill:#1858A5;" d="M83.044,14.566c0.678,0.011,1.022,0.29,1.203,0.958c0.175,0.642,0.299,1.299,0.438,1.95
		c0.216,1.014,0.424,2.03,0.639,3.045c0.166,0.782-0.028,1.169-0.783,1.402c-0.564,0.174-1.147,0.283-1.722,0.42
		c-0.227,0.054-0.313-0.028-0.361-0.27c-0.441-2.214-0.89-4.426-1.361-6.633c-0.081-0.381-0.016-0.539,0.387-0.59
		C82.052,14.775,82.612,14.646,83.044,14.566z"/>
	<path style="fill:#1858A5;" d="M67.191,172.415c-0.707-0.242-1.414-0.604-2.124-0.957c-0.178-0.088-0.065-0.254-0.002-0.39
		c0.968-2.075,1.938-4.149,2.898-6.228c0.106-0.23,0.193-0.399,0.483-0.243c0.57,0.307,1.183,0.534,1.717,0.91
		c0.393,0.277,0.555,0.612,0.37,1.096c-0.67,1.749-1.464,3.439-2.358,5.082C67.982,172.041,67.707,172.358,67.191,172.415z"/>
	<path style="fill:#FCFDFD;" d="M112.656,131.633c1.664,0.804,3.231,1.548,4.787,2.315c3.014,1.488,6.023,2.987,9.031,4.487
		c0.314,0.157,0.602,0.366,0.915,0.523c0.362,0.182,0.516,0.062,0.43-0.345c-0.229-1.089-0.453-2.178-0.683-3.267
		c-0.171-0.81-0.45-1.628-0.526-2.42c-0.09-0.939-0.366-1.831-0.493-2.754c-0.167-1.214-0.401-2.438-0.737-3.632
		c-0.321-1.14-0.305-2.339-0.532-3.506c0.265,0.931,0.677,1.802,0.976,2.709c1.945,5.908,3.87,11.822,5.794,17.737
		c0.083,0.254,0.323,0.626,0.135,0.765c-0.253,0.187-0.514-0.169-0.749-0.324c-3.047-2.013-6.088-4.033-9.133-6.048
		c-2.703-1.788-5.412-3.568-8.112-5.362C113.394,132.271,113.071,131.967,112.656,131.633z"/>
	<path style="fill:#FCFDFD;" d="M134.209,96.162c-0.033-0.178,0.091-0.261,0.21-0.349c2.844-2.109,5.686-4.221,8.533-6.326
		c1.609-1.189,3.227-2.365,4.838-3.551c0.142-0.105,0.386-0.195,0.331-0.398c-0.056-0.203-0.315-0.146-0.485-0.164
		c-3.617-0.389-7.238-0.74-10.851-1.163c-2.21-0.258-4.427-0.443-6.669-0.674c0.166-0.269,0.393-0.174,0.577-0.174
		c5.926-0.013,11.853-0.014,17.779-0.028c1.858-0.004,3.715-0.042,5.573-0.057c0.195-0.002,0.489-0.103,0.564,0.098
		c0.091,0.246-0.197,0.358-0.38,0.472c-1.893,1.168-3.796,2.321-5.681,3.501c-3.519,2.202-7.019,4.438-10.549,6.622
		c-1.24,0.767-2.456,1.586-3.793,2.188L134.209,96.162z"/>
	<path style="fill:#FCFDFD;" d="M99.747,102.521c1.17-0.029,2.34-0.025,3.501,0.14c0.462,0.065,0.629-0.107,0.689-0.541
		c0.074-0.532,0.195-1.058,0.312-1.583c0.06-0.27,0.13-0.544,0.243-0.795c0.078-0.174,0.194-0.394,0.451-0.337
		c0.248,0.055,0.276,0.278,0.286,0.485c0.025,0.506-0.116,0.992-0.19,1.486c-0.068,0.454-0.418,0.989-0.191,1.325
		c0.211,0.312,0.826,0.141,1.262,0.193c2.252,0.268,4.48,0.64,6.611,1.451c0.343,0.131,0.52-0.018,0.679-0.283
		c0.362-0.603,0.731-1.203,1.097-1.804c0.058-0.095,0.116-0.191,0.18-0.282c0.175-0.249,0.405-0.563,0.707-0.374
		c0.293,0.183,0.057,0.525-0.07,0.745c-0.369,0.641-0.779,1.259-1.174,1.885c-0.198,0.314-0.242,0.55,0.195,0.73
		c0.932,0.384,1.836,0.83,2.596,1.514c0.104,0.094,0.272,0.136,0.279,0.366c-0.573,0.085-1.014-0.282-1.467-0.487
		c-2.696-1.221-5.546-1.837-8.447-2.287c-2.262-0.351-4.543-0.415-6.824-0.502c-0.752-0.029-0.754,0.117-0.716-0.78
		c0.004-0.092,0.002-0.184,0.003-0.277C99.758,102.51,99.747,102.521,99.747,102.521z"/>
	<path style="fill:#FCFDFD;" d="M134.206,96.159c-0.016,0.025-0.033,0.05-0.049,0.075c-0.013-0.02-0.026-0.04-0.039-0.06
		c0.031-0.004,0.061-0.008,0.091-0.012C134.209,96.162,134.206,96.159,134.206,96.159z"/>
</g>
</svg>
