<?xml version="1.0" encoding="utf-8"?>
<!-- Generator: Adobe Illustrator 24.1.2, SVG Export Plug-In . SVG Version: 6.00 Build 0)  -->
<svg version="1.1" id="Layer_1" xmlns="http://www.w3.org/2000/svg" xmlns:xlink="http://www.w3.org/1999/xlink" x="0px" y="0px"
	 viewBox="0 0 200 200" style="enable-background:new 0 0 200 200;" xml:space="preserve">
<g>
	<path style="fill:#FFFFFF;" d="M99.833,0.72c0.051,0,0.101,0,0.152,0c2.127,11.934,4.253,23.868,6.374,35.774
		c17.154,1.826,31.796,8.691,43.744,21.03c11.938,12.329,18.299,27.186,19.567,44.253c0.655,0.129,1.245,0.255,1.838,0.36
		c4.766,0.845,9.533,1.687,14.3,2.527c2.433,0.429,4.868,0.851,7.302,1.276c0,0.051,0,0.101,0,0.152
		c-7.793,1.382-15.586,2.764-23.438,4.156c-1.311,17.516-7.936,32.651-20.373,45.088c-12.443,12.443-27.589,19.073-45.065,20.382
		c-0.059,0.138-0.103,0.203-0.116,0.275c-0.376,2.107-0.746,4.215-1.121,6.322c-0.587,3.295-1.181,6.589-1.765,9.885
		c-0.421,2.377-0.833,4.756-1.248,7.134c-0.051,0-0.101,0-0.152,0c-0.009-0.226,0.006-0.455-0.032-0.676
		c-0.302-1.761-0.609-3.521-0.923-5.28c-0.698-3.914-1.401-7.828-2.103-11.741c-0.351-1.955-0.703-3.909-1.065-5.918
		c-0.59-0.062-1.16-0.138-1.733-0.181c-4.492-0.342-8.898-1.167-13.224-2.402c-7.338-2.095-14.146-5.318-20.434-9.648
		c-4.785-3.294-9.08-7.138-12.909-11.492c-4.507-5.127-8.19-10.803-11.008-17.024c-3.455-7.625-5.527-15.605-6.067-23.971
		c-0.017-0.263-0.114-0.521-0.166-0.75c-1.819-0.331-3.553-0.654-5.29-0.962c-4.791-0.851-9.582-1.698-14.374-2.54
		c-1.315-0.231-2.634-0.438-3.951-0.657c0-0.051,0-0.101,0-0.152c0.822-0.123,1.647-0.227,2.465-0.372
		c4.991-0.883,9.981-1.774,14.971-2.663c2.056-0.366,4.112-0.735,6.233-1.114c1.265-17.073,7.621-31.913,19.534-44.233
		C61.701,45.206,76.343,38.33,93.476,36.5c0.097-0.482,0.208-0.993,0.301-1.508c0.632-3.492,1.263-6.985,1.89-10.478
		c0.627-3.493,1.249-6.988,1.873-10.482c0.588-3.295,1.18-6.59,1.758-9.887C99.496,3.007,99.656,1.862,99.833,0.72z"/>
	<path style="fill:#2C4DA3;" d="M115.675,133.182c2.528-0.66,5.015-1.443,7.408-2.504c2.739-1.215,5.315-2.687,7.503-4.766
		c1.6-1.521,2.846-3.276,3.431-5.437c0.564-2.082,0.366-4.115-0.573-6.043c-0.303-0.621-0.337-1.185-0.23-1.835
		c0.592-3.582,1.145-7.17,1.736-10.751c0.239-1.448,0.423-2.894,0.373-4.366c-0.128-3.76-1.36-7.118-3.59-10.14
		c-1.237-1.677-2.921-2.815-4.61-3.934c-0.957-0.634-1.698-1.34-2.228-2.395c-1.376-2.739-3.684-4.567-6.313-6.024
		c-2.928-1.622-6.061-2.6-9.387-2.964c-0.088-0.01-0.174-0.029-0.262-0.042c-0.566-0.082-0.547-0.084-0.614-0.672
		c-0.202-1.779-0.42-3.557-0.633-5.335c-0.216-1.803-0.436-3.606-0.652-5.409c-0.043-0.361-0.219-0.805-0.072-1.062
		c0.147-0.258,0.623-0.324,0.951-0.482c1.265-0.611,2.405-1.388,3.258-2.529c0.696-0.931,1.06-1.97,0.96-3.147
		c-0.005-0.06,0.004-0.121,0.008-0.206c1.385,0.313,2.731,0.686,4.063,1.109c6.67,2.116,12.714,5.397,18.097,9.861
		c7.759,6.433,13.333,14.41,16.701,23.916c1.25,3.529,2.097,7.158,2.579,10.869c0.427,3.288,0.567,6.593,0.38,9.904
		c-0.533,9.437-3.296,18.168-8.359,26.157c-3.011,4.751-6.686,8.922-10.998,12.535c-3.983,3.338-8.355,6.043-13.109,8.138
		c-0.333,0.147-0.444,0.077-0.567-0.228c-1.61-3.995-2.864-8.1-3.796-12.304c-0.204-0.921-0.444-1.836-0.543-2.778
		c0.035-0.254-0.042-0.498-0.074-0.745c-0.135-1.054-0.277-2.106-0.415-3.159C115.957,135.338,115.816,134.26,115.675,133.182z"/>
	<path style="fill:#2C4DA3;" d="M45.629,105.997c0.058-10.144,2.627-19.505,7.833-28.123c3.115-5.158,6.999-9.663,11.625-13.527
		c6.462-5.397,13.786-9.088,21.958-11.102c0.098-0.024,0.198-0.039,0.294-0.069c0.182-0.058,0.211,0.021,0.199,0.185
		c-0.113,1.474,0.469,2.679,1.456,3.721c0.974,1.028,2.169,1.72,3.465,2.251c0.229,0.094,0.309,0.176,0.274,0.457
		c-0.329,2.641-0.632,5.285-0.944,7.928c-0.152,1.29-0.311,2.58-0.46,3.87c-0.028,0.244-0.109,0.352-0.391,0.378
		c-5.271,0.499-10.013,2.286-13.976,5.878c-1.295,1.174-2.194,2.662-2.935,4.238c-0.106,0.226-0.243,0.392-0.457,0.526
		c-1.542,0.965-3.045,1.995-4.417,3.187c-1.083,0.941-1.882,2.139-2.601,3.378c-1.868,3.218-2.637,6.693-2.339,10.395
		c0.124,1.546,0.458,3.067,0.695,4.599c0.38,2.454,0.784,4.904,1.178,7.356c0.016,0.1,0.03,0.2,0.053,0.298
		c0.158,0.699,0.13,1.317-0.281,1.991c-0.891,1.462-1.279,3.101-1.184,4.818c0.122,2.206,1.002,4.123,2.381,5.821
		c1.926,2.371,4.404,4.022,7.09,5.393c3.061,1.563,6.301,2.631,9.632,3.438c0.287,0.07,0.337,0.16,0.307,0.452
		c-0.762,7.239-2.441,14.255-5.088,21.037c-0.131,0.335-0.185,0.822-0.483,0.932c-0.234,0.087-0.615-0.205-0.924-0.344
		c-5.253-2.375-10.014-5.498-14.266-9.391c-6.782-6.21-11.693-13.657-14.726-22.337c-1.214-3.474-2.034-7.045-2.514-10.692
		C45.776,110.608,45.653,108.263,45.629,105.997z"/>
	<path style="fill:#20346A;" d="M100.976,139.483c0-6.734,0.002-13.468-0.007-20.203c0-0.323,0.054-0.424,0.407-0.404
		c3.018,0.165,5.958,0.662,8.705,1.996c0.868,0.421,1.66,0.957,2.314,1.679c0.27,0.299,0.426,0.611,0.415,1.046
		c-0.055,2.173,0.014,4.345,0.156,6.514c0.154,2.341,0.393,4.674,0.723,6.998c0.484,3.407,1.171,6.771,2.062,10.094
		c0.835,3.114,1.858,6.166,3.064,9.156c0.114,0.282,0.039,0.353-0.207,0.442c-3.555,1.284-7.196,2.217-10.939,2.751
		c-2.089,0.298-4.186,0.481-6.295,0.547c-0.356,0.011-0.407-0.095-0.406-0.413C100.978,152.951,100.976,146.217,100.976,139.483z"/>
	<path style="fill:#2C4DA3;" d="M98.686,139.522c0,6.722-0.003,13.444,0.007,20.166c0.001,0.342-0.07,0.425-0.43,0.415
		c-4.065-0.112-8.062-0.685-11.999-1.693c-1.746-0.447-3.462-0.992-5.159-1.599c-0.275-0.098-0.358-0.184-0.232-0.498
		c1.929-4.769,3.371-9.683,4.364-14.73c0.521-2.649,0.91-5.317,1.188-8.003c0.353-3.408,0.486-6.825,0.466-10.249
		c-0.001-0.204,0.056-0.362,0.177-0.519c0.747-0.968,1.753-1.587,2.836-2.092c2.021-0.942,4.171-1.413,6.373-1.674
		c0.677-0.08,1.355-0.139,2.037-0.168c0.3-0.013,0.379,0.063,0.378,0.365c-0.01,3.917-0.007,7.834-0.007,11.751
		C98.686,133.836,98.686,136.679,98.686,139.522z"/>
	<path style="fill:#2C4DA3;" d="M99.834,113.742c-0.744,0.024-1.487,0.05-2.231,0.073c-4.516,0.137-8.98,0.652-13.338,1.891
		c-2.155,0.613-4.24,1.398-6.091,2.702c-0.686,0.484-1.299,1.046-1.774,1.743c-1.153,1.695-0.945,3.686,0.548,5.251
		c1.194,1.251,2.691,2.026,4.254,2.697c0.963,0.413,1.951,0.757,2.96,1.037c0.223,0.062,0.303,0.166,0.281,0.395
		c-0.041,0.414-0.061,0.831-0.086,1.247c-0.009,0.151-0.008,0.267-0.235,0.209c-4.554-1.152-8.928-2.718-12.733-5.573
		c-1.125-0.845-2.129-1.821-2.944-2.98c-1.999-2.84-1.963-5.832,0.126-8.62c1.515-2.021,3.512-3.466,5.695-4.671
		c3.553-1.961,7.375-3.181,11.323-4.036c3.335-0.722,6.709-1.151,10.117-1.322c0.669-0.034,1.337-0.058,2.007-0.067
		c0.242-0.003,0.285-0.083,0.263-0.319c-0.103-1.103-0.179-2.209-0.27-3.313c-0.116-1.405-0.239-2.81-0.354-4.216
		c-0.062-0.753-0.13-1.506-0.162-2.261c-0.012-0.28-0.07-0.354-0.365-0.336c-1.043,0.065-2.082,0.174-3.117,0.303
		c-1.197,0.149-2.409,0.274-3.563,0.614c-0.981,0.289-1.872,0.839-2.756,1.367c-1.084,0.647-2.103,1.385-3.066,2.242
		c-0.868-1.571-1.73-3.13-2.612-4.727c5.907-1.914,11.919-3.054,18.124-3.064C99.834,97.919,99.834,105.83,99.834,113.742z"/>
	<path style="fill:#20346A;" d="M99.834,113.742c0-7.911,0-15.823,0.001-23.734c1.263-0.009,2.522,0.047,3.781,0.138
		c1.849,0.134,3.683,0.374,5.507,0.7c2.865,0.513,5.679,1.233,8.457,2.1c0.333,0.104,0.323,0.213,0.181,0.466
		c-0.75,1.344-1.488,2.693-2.231,4.04c-0.221,0.4-0.226,0.405-0.588,0.094c-1.318-1.132-2.783-2.032-4.316-2.843
		c-1.063-0.563-2.21-0.739-3.365-0.909c-1.105-0.163-2.214-0.293-3.322-0.437c-0.451-0.059-0.909,0.025-1.358-0.082
		c-0.143-0.034-0.156,0.077-0.164,0.187c-0.076,1.029-0.148,2.059-0.235,3.088c-0.113,1.34-0.243,2.678-0.357,4.018
		c-0.063,0.739-0.112,1.48-0.166,2.219c-0.009,0.126,0.003,0.254-0.014,0.378c-0.077,0.555-0.079,0.542,0.491,0.562
		c2.284,0.081,4.558,0.28,6.823,0.594c3.677,0.51,7.282,1.317,10.777,2.582c2.761,1,5.398,2.244,7.756,4.021
		c1.155,0.871,2.201,1.856,3.041,3.043c2.013,2.845,1.975,5.863-0.114,8.647c-1.5,1.999-3.474,3.429-5.629,4.633
		c-2.877,1.607-5.958,2.693-9.13,3.544c-0.237,0.064-0.368,0.057-0.357-0.25c0.011-0.314-0.012-0.633-0.058-0.944
		c-0.04-0.27,0.03-0.387,0.309-0.467c1.992-0.572,3.924-1.291,5.671-2.435c0.733-0.48,1.396-1.039,1.938-1.735
		c1.251-1.608,1.212-3.612-0.098-5.176c-1.126-1.345-2.614-2.166-4.179-2.86c-2.454-1.089-5.042-1.729-7.675-2.203
		c-3.662-0.659-7.36-0.906-11.074-0.953C100.034,113.768,99.934,113.751,99.834,113.742z"/>
	<path style="fill:#20346A;" d="M99.835,53.766c1.458-0.045,2.859,0.202,4.187,0.822c0.23,0.108,0.444,0.243,0.627,0.419
		c0.286,0.273,0.301,0.44-0.014,0.677c-0.245,0.184-0.265,0.386-0.232,0.653c0.253,2.038,0.496,4.078,0.745,6.116
		c0.244,2.002,0.516,4.001,0.727,6.007c0.191,1.817,0.546,3.619,0.553,5.454c0.001,0.301,0.181,0.234,0.347,0.24
		c3.732,0.142,7.283,0.969,10.566,2.8c1.459,0.814,2.86,1.718,3.991,2.968c0.999,1.104,1.756,2.368,2.301,3.753
		c0.107,0.273,0.311,0.418,0.536,0.556c1.582,0.971,3.113,2.019,4.536,3.212c0.908,0.761,1.551,1.754,2.158,2.761
		c1.081,1.792,1.744,3.731,2.035,5.848c-0.788-0.492-1.536-0.971-2.296-1.432c-5.906-3.577-12.242-6.053-19.007-7.435
		c-2.995-0.612-6.016-0.994-9.07-1.145c-0.896-0.044-1.793-0.019-2.688-0.08C99.836,75.231,99.835,64.498,99.835,53.766z"/>
	<path style="fill:#2C4DA3;" d="M99.835,53.766c0.001,10.732,0.001,21.465,0.002,32.197c-1.135,0.048-2.272,0.023-3.408,0.084
		c-2.978,0.161-5.926,0.533-8.848,1.127c-6.141,1.248-11.94,3.412-17.403,6.478c-1.187,0.666-2.345,1.379-3.539,2.15
		c0.212-1.433,0.606-2.749,1.174-4.015c0.65-1.451,1.5-2.775,2.569-3.951c0.58-0.638,1.313-1.102,2-1.614
		c0.9-0.672,1.837-1.292,2.788-1.889c0.365-0.229,0.636-0.508,0.81-0.931c1.121-2.726,3.094-4.67,5.617-6.134
		c2.771-1.607,5.745-2.562,8.912-2.945c0.839-0.101,1.684-0.177,2.531-0.163c0.237,0.004,0.303-0.067,0.292-0.299
		c-0.091-1.841,0.288-3.642,0.479-5.459c0.167-1.58,0.369-3.156,0.562-4.734c0.22-1.802,0.45-3.602,0.67-5.404
		c0.086-0.701,0.156-1.404,0.239-2.105c0.021-0.181-0.037-0.3-0.179-0.42c-0.404-0.342-0.395-0.49,0.032-0.825
		c0.517-0.405,1.125-0.613,1.748-0.785C97.848,53.865,98.829,53.716,99.835,53.766z"/>
	<path style="fill:#20346A;" d="M160.861,132.991c-0.039,0.086-0.075,0.165-0.111,0.246c-1.932,4.323-4.311,8.385-7.116,12.198
		c-2.922,3.973-6.244,7.577-9.961,10.818c-5.134,4.477-10.818,8.082-17.049,10.833c-0.301,0.133-0.385,0.068-0.509-0.208
		c-1.294-2.885-2.599-5.765-3.917-8.639c-0.136-0.297-0.108-0.404,0.201-0.538c4.043-1.752,7.829-3.954,11.342-6.613
		c7.605-5.755,13.431-12.949,17.425-21.617c0.215-0.466,0.213-0.467,0.699-0.266c2.887,1.192,5.774,2.383,8.659,3.58
		C160.643,132.833,160.804,132.835,160.861,132.991z M127.425,164.233c0.088-0.042,0.18-0.084,0.271-0.128
		c2.167-1.035,4.26-2.206,6.301-3.466c5.349-3.302,10.047-7.377,14.214-12.068c2.453-2.761,4.649-5.713,6.565-8.878
		c1.057-1.746,2.046-3.526,2.969-5.345c0.094-0.185,0.129-0.279-0.12-0.38c-1.626-0.657-3.246-1.333-4.863-2.011
		c-0.192-0.08-0.265-0.021-0.344,0.145c-0.172,0.363-0.358,0.721-0.546,1.076c-2.781,5.237-6.24,9.976-10.416,14.189
		c-2.452,2.474-5.128,4.68-7.974,6.683c-2.596,1.826-5.318,3.437-8.178,4.814c-0.135,0.065-0.361,0.065-0.228,0.354
		c0.745,1.615,1.473,3.239,2.209,4.858C127.313,164.138,127.319,164.229,127.425,164.233z"/>
	<path style="fill:#20346A;" d="M77.599,53.921c-0.027,0.164-0.197,0.164-0.309,0.213c-1.818,0.796-3.593,1.679-5.316,2.663
		c-5.355,3.06-10.106,6.869-14.22,11.469c-3.813,4.264-6.919,8.99-9.291,14.195c-0.145,0.318-0.26,0.349-0.574,0.217
		c-2.925-1.226-5.858-2.435-8.793-3.638c-0.251-0.103-0.299-0.18-0.18-0.445c2.534-5.625,5.784-10.797,9.749-15.522
		c6.263-7.462,13.799-13.279,22.582-17.485c0.633-0.303,1.284-0.569,1.917-0.871c0.191-0.091,0.259-0.041,0.336,0.13
		c1.337,2.962,2.678,5.923,4.018,8.884C77.546,53.789,77.568,53.847,77.599,53.921z M74.647,52.783
		c-0.032-0.076-0.061-0.146-0.092-0.215c-0.712-1.575-1.431-3.148-2.131-4.728c-0.102-0.23-0.19-0.222-0.388-0.128
		c-6.235,2.987-11.847,6.872-16.831,11.662c-2.253,2.165-4.339,4.482-6.272,6.937c-2.736,3.474-5.031,7.224-7.006,11.177
		c-0.116,0.233-0.067,0.299,0.162,0.391c1.556,0.631,3.11,1.267,4.651,1.932c0.341,0.147,0.456,0.071,0.61-0.239
		c2.576-5.181,5.909-9.842,9.848-14.063c2.713-2.907,5.758-5.448,9.02-7.727c2.602-1.817,5.32-3.435,8.181-4.811
		C74.491,52.929,74.631,52.928,74.647,52.783z"/>
	<path style="fill:#20346A;" d="M77.595,157.921c-0.047,0.103-0.078,0.171-0.11,0.24c-1.319,2.914-2.642,5.826-3.949,8.745
		c-0.123,0.274-0.222,0.3-0.49,0.182c-3.784-1.656-7.367-3.674-10.793-5.973c-1.692-1.135-3.322-2.361-4.884-3.667
		c-4.918-4.111-9.212-8.795-12.82-14.101c-2.181-3.207-4.055-6.584-5.645-10.121c-0.108-0.241-0.078-0.324,0.164-0.422
		c2.144-0.867,4.292-1.727,6.42-2.633c0.843-0.359,1.699-0.684,2.531-1.067c0.187-0.086,0.279-0.072,0.371,0.135
		c1.665,3.747,3.777,7.236,6.202,10.531c1.476,2.005,3.124,3.876,4.872,5.654c5.144,5.233,11.07,9.335,17.79,12.287
		C77.377,157.766,77.548,157.772,77.595,157.921z M41.797,134.079c0.513,1.071,1.064,2.092,1.618,3.112
		c2.719,5.014,6.178,9.482,10.068,13.629c0.703,0.75,1.437,1.471,2.222,2.146c0.957,0.822,1.875,1.691,2.84,2.506
		c4.111,3.476,8.628,6.316,13.465,8.663c0.26,0.126,0.327,0.048,0.425-0.172c0.685-1.532,1.374-3.062,2.08-4.585
		c0.131-0.283,0.12-0.397-0.192-0.547c-5.535-2.661-10.52-6.136-14.982-10.342c-3.517-3.314-6.52-7.068-9.122-11.141
		c-1.061-1.66-2.04-3.366-2.913-5.132c-0.129-0.261-0.228-0.38-0.551-0.206c-0.449,0.243-0.944,0.403-1.419,0.6
		C44.161,133.098,42.985,133.586,41.797,134.079z"/>
	<path style="fill:#20346A;" d="M160.853,78.843c-0.017,0.139-0.154,0.127-0.247,0.166c-1.394,0.581-2.79,1.161-4.185,1.74
		c-1.573,0.652-3.15,1.297-4.719,1.96c-0.256,0.108-0.356,0.067-0.471-0.187c-2.01-4.449-4.582-8.551-7.667-12.332
		c-1.374-1.684-2.836-3.291-4.407-4.795c-2.514-2.406-5.199-4.6-8.103-6.524c-2.754-1.825-5.634-3.42-8.67-4.726
		c-0.276-0.119-0.343-0.207-0.204-0.511c1.333-2.908,2.649-5.823,3.956-8.743c0.109-0.243,0.188-0.221,0.396-0.131
		c1.497,0.649,2.953,1.377,4.405,2.123c2.883,1.482,5.604,3.215,8.224,5.115c3.352,2.43,6.435,5.167,9.27,8.182
		c4.756,5.057,8.644,10.712,11.642,16.976c0.233,0.486,0.452,0.979,0.677,1.468C160.784,78.693,160.816,78.762,160.853,78.843z
		 M127.415,47.619c-0.13,0.024-0.13,0.145-0.168,0.229c-0.713,1.561-1.414,3.127-2.138,4.683c-0.124,0.267-0.06,0.348,0.183,0.466
		c7.589,3.699,14.131,8.748,19.564,15.218c1.391,1.657,2.682,3.393,3.868,5.2c1.318,2.009,2.573,4.059,3.616,6.229
		c0.125,0.26,0.245,0.306,0.516,0.191c1.522-0.646,3.053-1.27,4.581-1.904c0.427-0.177,0.426-0.181,0.211-0.614
		c-3.847-7.747-9.044-14.446-15.579-20.112c-1.432-1.242-2.903-2.435-4.434-3.549c-3.152-2.293-6.501-4.256-10.013-5.944
		C127.553,47.68,127.484,47.65,127.415,47.619z"/>
	<path style="fill:#20346A;" d="M33.333,100.546c0.187-2.162,0.476-4.448,0.892-6.719c0.77-4.21,1.938-8.305,3.499-12.289
		c0.191-0.488,0.191-0.489,0.679-0.287c2.884,1.194,5.767,2.392,8.655,3.575c0.251,0.103,0.267,0.183,0.173,0.421
		c-1.425,3.606-2.455,7.323-3.108,11.144c-0.153,0.894-0.269,1.794-0.388,2.693c-0.022,0.163-0.057,0.229-0.234,0.26
		c-2.679,0.469-5.355,0.948-8.032,1.425c-0.57,0.102-1.139,0.21-1.71,0.307C33.313,101.151,33.312,101.145,33.333,100.546z"/>
	<path style="fill:#20346A;" d="M166.348,100.785c0.102,0.317-0.053,0.368-0.426,0.299c-2.626-0.483-5.256-0.945-7.885-1.414
		c-0.62-0.111-1.238-0.231-1.861-0.328c-0.17-0.027-0.221-0.081-0.242-0.253c-0.583-4.774-1.743-9.404-3.512-13.878
		c-0.079-0.2-0.072-0.278,0.151-0.369c2.982-1.224,5.96-2.46,8.935-3.7c0.203-0.085,0.268-0.035,0.343,0.155
		c1.348,3.415,2.414,6.915,3.191,10.505c0.549,2.541,0.933,5.106,1.2,7.691C166.284,99.894,166.308,100.297,166.348,100.785z"/>
	<path style="fill:#20346A;" d="M166.336,111.241c-0.178,2.315-0.487,4.676-0.928,7.019c-0.782,4.156-1.95,8.201-3.488,12.141
		c-0.118,0.301-0.217,0.378-0.539,0.243c-2.903-1.217-5.812-2.419-8.723-3.616c-0.239-0.098-0.325-0.17-0.213-0.453
		c1.481-3.735,2.521-7.594,3.176-11.557c0.123-0.746,0.22-1.496,0.312-2.247c0.02-0.166,0.061-0.228,0.236-0.258
		c2.679-0.47,5.356-0.949,8.034-1.428c0.558-0.1,1.115-0.205,1.673-0.302C166.354,110.702,166.355,110.706,166.336,111.241z"/>
	<path style="fill:#20346A;" d="M33.4,110.722c0.79,0.139,1.522,0.266,2.253,0.396c2.492,0.443,4.983,0.89,7.476,1.326
		c0.576,0.101,0.585,0.084,0.656,0.664c0.569,4.636,1.727,9.122,3.434,13.467c0.093,0.236,0.08,0.336-0.175,0.441
		c-2.959,1.21-5.915,2.43-8.866,3.66c-0.237,0.099-0.298,0.038-0.382-0.173c-1.592-4.027-2.784-8.168-3.563-12.429
		c-0.427-2.333-0.743-4.679-0.904-7.046C33.322,110.921,33.224,110.742,33.4,110.722z"/>
	<path style="fill:#20346A;" d="M94.477,172.431c-2.33-0.191-4.765-0.511-7.182-0.972c-3.905-0.745-7.713-1.827-11.425-3.251
		c-0.293-0.113-0.301-0.21-0.181-0.473c1.313-2.875,2.616-5.754,3.911-8.637c0.116-0.258,0.211-0.316,0.492-0.21
		c3.616,1.366,7.343,2.314,11.16,2.91c0.585,0.091,1.173,0.166,1.761,0.233c0.154,0.017,0.204,0.064,0.232,0.22
		c0.472,2.691,0.952,5.381,1.432,8.072c0.099,0.558,0.208,1.114,0.302,1.673C95.056,172.45,95.05,172.451,94.477,172.431z"/>
	<path style="fill:#20346A;" d="M105.214,172.43c-0.599,0.021-0.608,0.019-0.528-0.431c0.546-3.061,1.092-6.123,1.646-9.183
		c0.138-0.763,0.152-0.752,0.955-0.859c4.196-0.56,8.282-1.567,12.246-3.053c0.314-0.118,0.415-0.06,0.544,0.227
		c1.298,2.895,2.608,5.785,3.925,8.671c0.109,0.239,0.054,0.302-0.174,0.39c-3.981,1.535-8.071,2.675-12.272,3.42
		C109.408,171.991,107.246,172.257,105.214,172.43z"/>
	<path style="fill:#20346A;" d="M107.072,39.605c4.398,0.472,8.752,1.39,13.014,2.746c1.26,0.401,2.504,0.843,3.741,1.31
		c0.219,0.083,0.279,0.15,0.169,0.39c-1.323,2.898-2.637,5.801-3.943,8.707c-0.113,0.251-0.208,0.314-0.488,0.209
		c-2.727-1.024-5.517-1.829-8.375-2.399c-0.184-0.037-0.352-0.09-0.492-0.246c-0.58-0.644-1.27-1.154-2.027-1.568
		c-0.216-0.118-0.302-0.275-0.341-0.498c-0.496-2.802-0.995-5.603-1.497-8.404C106.805,39.685,106.762,39.533,107.072,39.605z"/>
	<path style="fill:#20346A;" d="M92.83,39.61c-0.281,1.565-0.559,3.123-0.84,4.681c-0.241,1.339-0.489,2.676-0.72,4.017
		c-0.038,0.219-0.117,0.355-0.316,0.466c-0.741,0.416-1.42,0.92-1.994,1.552c-0.12,0.132-0.26,0.193-0.42,0.225
		c-2.909,0.578-5.748,1.402-8.523,2.444c-0.19,0.071-0.272,0.055-0.362-0.144c-1.329-2.952-2.665-5.9-4.011-8.845
		c-0.122-0.267,0.04-0.282,0.206-0.346c2.763-1.071,5.588-1.941,8.469-2.629c2.761-0.66,5.556-1.124,8.377-1.439
		C92.731,39.586,92.768,39.6,92.83,39.61z"/>
	<path style="fill:#20346A;" d="M99.884,14.001c0.26,1.458,0.519,2.915,0.779,4.373c0.471,2.64,0.943,5.281,1.413,7.921
		c0.465,2.614,0.919,5.231,1.395,7.844c0.404,2.213,0.837,4.42,1.249,6.632c0.398,2.142,0.781,4.287,1.179,6.428
		c0.057,0.305,0,0.361-0.306,0.27c-1.763-0.524-3.569-0.774-5.408-0.772c-0.281,0-0.353-0.077-0.352-0.361
		c0.008-10.703,0.007-21.406,0.007-32.109c0-0.074,0-0.147,0-0.221C99.854,14.005,99.869,14.003,99.884,14.001z"/>
	<path style="fill:#20346A;" d="M99.835,48.992c2.836,0.025,5.568,0.472,8.039,1.977c0.543,0.331,1.025,0.739,1.41,1.247
		c0.753,0.993,0.763,1.923,0.012,2.91c-0.681,0.895-1.612,1.456-2.624,1.916c-0.061-0.113,0.008-0.162,0.043-0.218
		c0.771-1.248,0.597-2.515-0.496-3.506c-1.015-0.921-2.266-1.325-3.57-1.609c-0.928-0.202-1.874-0.23-2.815-0.304
		C99.834,50.601,99.835,49.797,99.835,48.992z"/>
	<path style="fill:#2C4DA3;" d="M99.835,48.992c-0.001,0.804-0.001,1.609-0.002,2.413c-1.425,0.075-2.844,0.189-4.202,0.676
		c-0.934,0.335-1.818,0.76-2.477,1.538c-0.835,0.987-0.907,2.07-0.223,3.176c0.038,0.062,0.069,0.127,0.121,0.222
		c-0.077-0.01-0.129-0.006-0.169-0.025c-0.884-0.421-1.705-0.931-2.36-1.674c-0.933-1.058-0.924-2.243,0.022-3.298
		c0.556-0.62,1.228-1.082,1.962-1.461c1.555-0.804,3.225-1.217,4.95-1.425C98.246,49.039,99.038,48.959,99.835,48.992z"/>
	<path style="fill:#20346A;" d="M115.675,133.182c0.141,1.078,0.282,2.156,0.423,3.234c0.138,1.053,0.28,2.106,0.415,3.159
		c0.032,0.247,0.109,0.491,0.074,0.745c-0.223-0.8-0.326-1.624-0.447-2.442c-0.219-1.481-0.404-2.967-0.602-4.452
		C115.525,133.318,115.49,133.186,115.675,133.182z"/>
</g>
</svg>
