<?xml version="1.0" encoding="utf-8"?>
<!-- Generator: Adobe Illuwkp_strator 24.1.0, SVG Export Plug-In . SVG Version: 6.00 Build 0)  -->
<svg version="1.1" id="Layer_1" xmlns="http://www.w3.org/2000/svg" xmlns:xlink="http://www.w3.org/1999/xlink" x="0px"
	y="0px" viewBox="0 0 200 200" wkp_style="enable-background:new 0 0 200 200;" xml:space="preserve">
	<style type="text/css">
		.wkp_st0 {
			fill: #FAFAFA;
		}

		.wkp_st1 {
			fill: #09102A;
		}

		.wkp_st2 {
			fill: #FCFCFC;
		}

		.wkp_st3 {
			fill: #F8F8F8;
		}

		.wkp_st4 {
			fill: #F9F9F9;
		}

		.wkp_st5 {
			fill: #C4C3C5;
		}

		.wkp_st6 {
			fill: #010101;
		}

		.wkp_st7 {
			fill: #6B1616;
		}

		.wkp_st8 {
			fill: #FDFDFD;
		}

		.wkp_st9 {
			fill: #6A1515;
		}

		.wkp_st10 {
			fill: #191919;
		}

		.wkp_st11 {
			fill: #131212;
		}

		.wkp_st12 {
			fill: #5D5D5D;
		}
	</style>
	<g>
		<path class="wkp_st0" d="M100.37,193.63C48.91,193.77,6.75,151.7,6.99,99.8C7.22,48.78,48.95,6.54,101.15,6.92
		c50.83,0.37,92.88,41.96,92.57,93.99C193.42,151.94,151.8,193.72,100.37,193.63z M100.29,10.88
		c-49.47-0.07-89.43,40.38-89.35,89.54c0.08,50.08,40.93,89.34,89.49,89.27c49.3-0.07,89.3-39.89,89.33-89.38
		C189.79,50.78,149.5,10.81,100.29,10.88z" />
		<path class="wkp_st1"
			d="M100.29,10.88c49.22-0.07,89.51,39.9,89.47,89.43c-0.03,49.49-40.03,89.3-89.33,89.38
		c-48.57,0.07-89.41-39.19-89.49-89.27C10.86,51.27,50.81,10.81,100.29,10.88z M48.63,55.08c0.06,0.09,0.16,0.17,0.24,0.07
		c0.05-0.07-0.06-0.13-0.12-0.18c-0.06-0.08-0.1-0.19-0.21-0.21c-0.08-0.11-0.16-0.22-0.24-0.32c-2.11-2.4-4.22-4.81-6.33-7.2
		c-1.01-1.14-2.02-2.28-3.06-3.45c-0.38,0.5-0.73,0.97-1.07,1.44c0.26,0.28,0.49,0.52,0.71,0.77c2.15,2.42,4.31,4.85,6.46,7.28
		c0.15,0.17,0.27,0.34,0.49,0.44c0.96,0.41,1.91,0.82,2.87,1.23C48.42,55.04,48.52,55.06,48.63,55.08z M140.14,171.85
		c-0.34-0.69-0.68-1.39-1.03-2.08c-0.33-0.65-0.71-1.24-1.34-1.69c-2.12-1.5-4.19-3.05-6.29-4.58c-0.48-0.35-0.97-0.69-1.45-1.03
		c0.43,1.06,0.94,2.04,1.42,3.04c0.17,0.35,0.4,0.62,0.72,0.85c0.72,0.51,1.43,1.04,2.15,1.57c1.88,1.37,3.77,2.74,5.65,4.1
		c0.04,0.05,0.07,0.1,0.12,0.14c0.06,0.05,0.15,0.12,0.22,0.05c0.08-0.08-0.01-0.15-0.05-0.22
		C140.24,171.93,140.19,171.89,140.14,171.85z M37.72,100.28c-0.05,33.84,27.45,62.59,62.56,62.6c34.76,0.01,62.62-28.2,62.66-62.49
		c0.04-34.39-27.78-62.7-62.5-62.74C66.01,37.61,37.85,65.5,37.72,100.28z M16.9,98.65c0.05,0.3,0.24,0.34,0.38,0.44
		c1.21,0.87,2.41,1.74,3.63,2.6c0.23,0.16,0.32,0.3,0.21,0.59c-0.31,0.85-0.6,1.71-0.87,2.58c-0.23,0.75-0.54,1.49-0.71,2.34
		c0.14-0.08,0.21-0.12,0.28-0.17c1.3-0.96,2.61-1.92,3.91-2.89c0.2-0.15,0.33-0.14,0.52,0c1.24,0.93,2.55,1.77,3.76,2.76
		c0.13,0.11,0.24,0.26,0.44,0.23c0.06-0.09,0.02-0.17-0.01-0.26c-0.5-1.49-0.99-2.98-1.52-4.46c-0.13-0.37-0.07-0.54,0.24-0.75
		c1.19-0.82,2.35-1.67,3.53-2.51c0.18-0.13,0.41-0.23,0.52-0.5c-1.72,0-3.38-0.01-5.04,0.01c-0.33,0-0.47-0.09-0.56-0.39
		c-0.36-1.16-0.73-2.33-1.1-3.48c-0.14-0.45-0.32-0.88-0.48-1.35c-0.09,0.08-0.13,0.1-0.14,0.14c-0.47,1.5-0.92,3-1.39,4.5
		c-0.19,0.59-0.2,0.57-0.83,0.57C20.09,98.62,18.51,98.57,16.9,98.65z M170.11,98.61c0.17,0.32,0.34,0.39,0.48,0.49
		c1.19,0.85,2.38,1.71,3.58,2.54c0.29,0.2,0.33,0.39,0.21,0.71c-0.41,1.17-0.8,2.35-1.19,3.53c-0.14,0.41-0.25,0.83-0.38,1.27
		c0.09-0.02,0.14-0.01,0.17-0.04c1.28-1.03,2.67-1.92,3.96-2.93c0.26-0.2,0.42-0.22,0.68-0.02c1.19,0.89,2.39,1.76,3.6,2.64
		c0.17,0.13,0.32,0.3,0.61,0.34c-0.04-0.15-0.07-0.27-0.11-0.39c-0.49-1.45-0.97-2.9-1.47-4.34c-0.16-0.45-0.24-0.44,0.26-0.79
		c1.18-0.83,2.35-1.67,3.52-2.51c0.17-0.12,0.39-0.21,0.45-0.42c-0.05-0.11-0.12-0.1-0.18-0.1c-1.62,0.01-3.24,0.01-4.86,0.04
		c-0.3,0.01-0.42-0.07-0.51-0.36c-0.31-1.04-0.65-2.07-1-3.1c-0.2-0.58-0.33-1.18-0.66-1.78c-0.5,1.59-0.98,3.11-1.47,4.63
		c-0.19,0.61-0.19,0.61-0.81,0.61c-1.07-0.01-2.13-0.01-3.2-0.02C171.26,98.61,170.74,98.61,170.11,98.61z M134.93,26.67
		c0.92,0.45,1.74,0.87,2.59,1.26c0.29,0.13,0.46,0.32,0.54,0.61c0.14,0.49,0.29,0.98,0.48,1.45c0.13,0.32,0.11,0.58-0.04,0.88
		c-0.96,1.9-1.94,3.79-2.85,5.71c-0.34,0.72-0.77,1.18-1.56,1.32c-0.37,0.06-0.72,0.21-1.06,0.37c-0.23,0.11-0.4,0.08-0.62-0.04
		c-0.72-0.38-1.47-0.73-2.2-1.11c-0.26-0.14-0.43-0.15-0.57,0.17c-0.2,0.46-0.46,0.9-0.7,1.36c1.1,0.54,2.18,1.06,3.24,1.59
		c0.21,0.11,0.41,0.09,0.63,0.01c1-0.36,2-0.73,3.02-1.03c0.51-0.15,0.82-0.41,1.06-0.88c1.21-2.47,2.45-4.92,3.68-7.38
		c0.11-0.22,0.12-0.4,0.04-0.62c-0.36-1.05-0.71-2.1-1.04-3.15c-0.11-0.34-0.3-0.58-0.62-0.73c-1.01-0.5-2.01-1.01-3.05-1.53
		C135.48,25.44,135.32,26.08,134.93,26.67z M124.77,180.4c-0.15-0.48-0.29-0.92-0.43-1.35c-0.14-0.45-0.19-0.51-0.59-0.34
		c-0.65,0.29-1.23,0.28-1.79-0.18c-0.03-0.03-0.07-0.06-0.12-0.06c-0.61-0.13-0.8-0.6-0.95-1.14c-0.64-2.19-1.28-4.38-1.98-6.55
		c-0.26-0.81-0.44-1.56,0.2-2.27c0.03-0.03,0.05-0.08,0.06-0.12c0.06-0.37,0.34-0.46,0.65-0.57c0.33-0.12,0.83,0,0.96-0.33
		c0.12-0.32-0.14-0.72-0.25-1.08c-0.04-0.15-0.1-0.29-0.14-0.44c-0.05-0.24-0.19-0.26-0.39-0.19c-0.52,0.17-1.05,0.34-1.58,0.49
		c-0.23,0.07-0.37,0.2-0.48,0.42c-0.28,0.55-0.55,1.12-0.91,1.62c-0.48,0.68-0.5,1.31-0.24,2.1c0.9,2.83,1.72,5.68,2.57,8.53
		c0.09,0.31,0.25,0.52,0.56,0.68c0.82,0.43,1.69,0.79,2.45,1.32c0.16,0.11,0.32,0.1,0.5,0.04
		C123.49,180.79,124.1,180.61,124.77,180.4z M108.65,169.61c-0.07-0.44-0.14-0.88-0.2-1.32c-0.03-0.23-0.14-0.28-0.37-0.25
		c-0.55,0.08-1.1,0.16-1.65,0.21c-0.25,0.02-0.4,0.16-0.54,0.34c-0.42,0.54-0.81,1.12-1.28,1.62c-0.45,0.48-0.56,0.99-0.47,1.63
		c0.39,3.02,0.75,6.04,1.11,9.06c0.04,0.32,0.17,0.52,0.42,0.71c0.73,0.54,1.45,1.1,2.16,1.67c0.15,0.12,0.29,0.2,0.48,0.17
		c0.55-0.07,1.1-0.14,1.65-0.2c0.24-0.02,0.36-0.1,0.31-0.37c-0.07-0.37-0.1-0.75-0.15-1.12c-0.06-0.45-0.09-0.47-0.56-0.4
		c-0.07,0.01-0.13,0.03-0.19,0.05c-0.28,0.06-0.61,0.16-0.84-0.01c-0.49-0.34-0.99-0.67-1.4-1.11c-0.06-0.07-0.04-0.21-0.05-0.32
		c-0.32-2.69-0.63-5.38-0.97-8.06c-0.04-0.32,0.02-0.55,0.2-0.79c0.51-0.7,1.05-1.31,2.05-1.13
		C108.61,170.03,108.67,169.85,108.65,169.61z M125.02,178.29c0.17,0.59,0.32,1.09,0.45,1.6c0.06,0.24,0.2,0.25,0.4,0.18
		c0.4-0.13,0.8-0.26,1.21-0.36c0.28-0.07,0.46-0.23,0.59-0.48c0.43-0.82,0.86-1.65,1.32-2.46c0.13-0.22,0.11-0.4,0.05-0.62
		c-0.93-3.07-1.85-6.14-2.76-9.22c-0.08-0.27-0.16-0.49-0.42-0.63c-0.82-0.44-1.64-0.88-2.46-1.32c-0.14-0.07-0.28-0.12-0.44-0.07
		c-0.5,0.16-1.01,0.31-1.52,0.47c-0.16,0.05-0.28,0.12-0.21,0.33c0.15,0.44,0.28,0.89,0.41,1.33c0.06,0.18,0.16,0.24,0.35,0.17
		c0.12-0.05,0.27-0.05,0.38-0.11c0.37-0.2,0.7-0.19,1.05,0.05c0.2,0.14,0.43,0.23,0.65,0.33c0.34,0.16,0.51,0.41,0.62,0.79
		c0.74,2.58,1.52,5.14,2.3,7.71c0.08,0.25,0.07,0.45-0.06,0.69C126.49,177.44,126.14,178.3,125.02,178.29z M111.18,167.69
		c-0.56,0.06-1.09,0.13-1.62,0.18c-0.2,0.02-0.27,0.12-0.24,0.31c0.05,0.35,0.1,0.7,0.13,1.06c0.06,0.56,0.08,0.63,0.57,0.49
		c0.6-0.18,1.03,0.01,1.43,0.41c0.09,0.09,0.2,0.18,0.32,0.24c0.37,0.18,0.45,0.49,0.49,0.87c0.29,2.56,0.58,5.12,0.94,7.67
		c0.08,0.53-0.06,0.86-0.34,1.25c-0.43,0.61-0.89,1.09-1.71,1.03c-0.17-0.01-0.23,0.1-0.21,0.26c0.05,0.46,0.11,0.93,0.16,1.39
		c0.01,0.12,0.08,0.24,0.2,0.22c0.61-0.07,1.24-0.09,1.83-0.26c0.11-0.03,0.18-0.19,0.26-0.29c0.53-0.68,1.05-1.38,1.6-2.05
		c0.2-0.25,0.25-0.47,0.21-0.79c-0.25-1.94-0.47-3.88-0.7-5.82c-0.14-1.21-0.3-2.42-0.44-3.64c-0.04-0.34-0.14-0.6-0.46-0.82
		c-0.69-0.49-1.34-1.03-1.99-1.57C111.48,167.71,111.33,167.66,111.18,167.69z M60.62,167.6c1.26,0.73,2.48,1.45,3.7,2.16
		c0.15,0.09,0.28,0.08,0.44,0.03c0.85-0.24,1.7-0.48,2.56-0.7c0.25-0.06,0.43-0.15,0.57-0.39c0.69-1.22,1.4-2.42,2.1-3.62
		c0.08-0.13,0.14-0.25,0.09-0.43c-0.25-0.87-0.48-1.75-0.7-2.63c-0.08-0.31-0.24-0.5-0.51-0.65c-1.04-0.59-2.07-1.2-3.1-1.81
		c-0.24-0.14-0.39-0.16-0.53,0.13c-0.17,0.34-0.35,0.68-0.58,0.97c-0.25,0.32-0.1,0.46,0.17,0.62c0.52,0.29,1.02,0.64,1.57,0.88
		c0.94,0.4,1.48,1.04,1.59,2.07c0.03,0.26,0.04,0.45-0.1,0.68c-0.32,0.51-0.64,1.02-0.89,1.56c-0.37,0.78-0.89,1.26-1.78,1.38
		c-0.35,0.05-0.63,0.05-0.94-0.13c-0.78-0.47-1.58-0.89-2.35-1.38c-0.31-0.2-0.45-0.14-0.61,0.15
		C61.12,166.83,60.88,167.18,60.62,167.6z M149.02,33.07c-0.06,0.14-0.09,0.22-0.12,0.3c-1.25,3.13-2.49,6.26-3.74,9.38
		c-0.62,1.56-1.25,3.13-1.89,4.68c-0.1,0.23-0.07,0.36,0.13,0.5c0.45,0.31,0.9,0.64,1.34,0.96c0.1-0.04,0.13-0.12,0.17-0.21
		c0.39-0.99,0.77-1.98,1.18-2.96c1.55-3.72,2.95-7.5,4.55-11.2c0.08-0.18,0.06-0.29-0.1-0.39C150.05,33.8,149.62,33.38,149.02,33.07
		z M86.98,167.59c-0.02,0.1-0.03,0.14-0.03,0.18c0.21,2.19,0.46,4.37,0.61,6.56c0.17,2.37,0.48,4.72,0.59,7.09
		c0.02,0.53,0.1,1.06,0.17,1.59c0.02,0.15,0.02,0.31,0.24,0.34c0.56,0.07,1.12,0.15,1.73,0.24c-0.08-1.03-0.15-2-0.23-2.97
		c-0.15-1.83-0.32-3.67-0.47-5.5c-0.15-1.83-0.3-3.67-0.45-5.5c-0.04-0.49-0.08-0.97-0.13-1.46c-0.02-0.17-0.03-0.38-0.28-0.38
		C88.15,167.76,87.59,167.55,86.98,167.59z M28.34,58.04c0.1,0.06,0.15,0.1,0.21,0.13c3.81,1.69,7.56,3.5,11.34,5.24
		c0.78,0.36,1.57,0.73,2.34,1.1c0.24,0.11,0.39,0.11,0.55-0.14c0.24-0.37,0.53-0.71,0.78-1.08c0.24-0.35,0.22-0.37-0.19-0.55
		c-2.18-0.97-4.35-1.95-6.53-2.92c-2.34-1.04-4.69-2.08-7.03-3.14c-0.26-0.12-0.41-0.07-0.56,0.14
		C28.97,57.21,28.67,57.6,28.34,58.04z M92.26,31.73c0.01,0,0.01,0,0.02,0c-0.02-0.35-0.04-0.71-0.07-1.06
		c-0.16-2.08-0.32-4.16-0.49-6.24c-0.15-1.9-0.31-3.81-0.48-5.71c-0.03-0.35,0.11-0.8-0.13-1.02c-0.28-0.26-0.72-0.01-1.09,0.01
		c-0.82,0.04-0.83,0.05-0.76,0.85c0.14,1.77,0.31,3.54,0.44,5.31c0.16,2.04,0.29,4.07,0.44,6.11c0.07,0.91,0.16,1.81,0.23,2.72
		c0.02,0.24,0.06,0.37,0.35,0.33c0.42-0.05,0.84-0.07,1.26-0.09c0.27-0.01,0.42-0.09,0.36-0.4C92.29,32.26,92.28,31.99,92.26,31.73z
		 M126.44,37.45c0.53,0.24,1.01,0.46,1.48,0.69c0.21,0.1,0.33,0.12,0.45-0.15c0.33-0.75,0.7-1.48,1.07-2.21
		c1.66-3.3,3.33-6.6,4.99-9.9c0.21-0.41,0.4-0.83,0.59-1.25c-0.34-0.41-0.88-0.49-1.3-0.77c-0.24-0.16-0.39-0.17-0.55,0.15
		C130.96,28.48,128.71,32.93,126.44,37.45z M104.14,17.2c-0.05,0.29-0.1,0.55-0.12,0.81c-0.39,3.98-0.78,7.95-1.17,11.93
		c-0.06,0.66-0.14,1.33-0.18,1.99c-0.04,0.59-0.07,0.56,0.49,0.58c0.29,0.01,0.57,0.05,0.86,0.08c0.54,0.06,0.57,0.04,0.61-0.49
		c0.14-1.63,0.28-3.27,0.43-4.9c0.24-2.54,0.5-5.08,0.75-7.61c0.06-0.64,0.1-1.28,0.16-1.92c0.02-0.23-0.07-0.32-0.3-0.33
		C105.18,17.32,104.67,17.3,104.14,17.2z M64.67,159c-0.42-0.38-0.96-0.6-1.44-0.91c-0.15-0.1-0.25-0.01-0.33,0.11
		c-0.07,0.11-0.13,0.23-0.2,0.35c-2.21,3.79-4.43,7.58-6.64,11.38c-0.25,0.43-0.61,0.81-0.71,1.33c0.46,0.26,0.92,0.53,1.38,0.79
		c0.02,0.01,0.04,0.02,0.06,0.04c0.17,0.1,0.28,0.05,0.37-0.13c1.21-2.22,2.52-4.38,3.79-6.56C62.18,163.27,63.42,161.15,64.67,159z
		 M54.25,50.56c-3.33-3.88-6.67-7.76-10.01-11.65c-0.5,0.44-0.98,0.86-1.45,1.27c2.52,2.93,5.02,5.84,7.53,8.75
		c0.69,0.81,1.39,1.61,2.09,2.42c0.38,0.44,0.37,0.44,0.79,0.08C53.53,51.14,53.88,50.87,54.25,50.56z M48.86,56.11
		c-0.26-0.13-0.51-0.26-0.77-0.37c-2.3-0.97-4.6-1.94-6.9-2.91c-2.2-0.92-4.41-1.83-6.61-2.75c-0.14-0.06-0.24-0.1-0.34,0.03
		c-0.3,0.38-0.61,0.77-0.9,1.15c-0.11,0.15-0.04,0.24,0.11,0.3c0.1,0.04,0.21,0.08,0.31,0.12c1.91,0.71,3.78,1.51,5.66,2.3
		c2.71,1.14,5.43,2.28,8.14,3.42c0.21,0.09,0.33,0.05,0.45-0.12C48.28,56.91,48.55,56.54,48.86,56.11z M136.33,42.69
		c0.41,0.3,0.81,0.56,1.18,0.87c0.23,0.19,0.35,0.12,0.55-0.04c0.81-0.69,1.66-1.34,2.46-2.04c0.27-0.23,0.45-0.21,0.67,0
		c0.06,0.06,0.14,0.11,0.21,0.16c0.84,0.61,1.67,1.23,2.54,1.86c0.16-0.38,0.29-0.7,0.43-1.02c0.11-0.25,0.03-0.41-0.19-0.56
		c-0.35-0.23-0.69-0.49-1.03-0.74c-0.38-0.28-0.77-0.56-1.18-0.86c1.37-1.12,2.66-2.21,3.98-3.25c0.55-0.43,0.96-0.91,1.16-1.57
		c0.2-0.64,0.56-1.23,0.75-2.02C143.98,36.59,140.18,39.62,136.33,42.69z M86.19,168.63c-0.04-0.01-0.09-0.03-0.13-0.04
		c-2.03,4.41-4.06,8.82-6.12,13.29c0.57,0.09,1.04,0.18,1.52,0.25c0.19,0.03,0.32,0,0.4-0.23c0.29-0.74,0.61-1.47,0.93-2.2
		c0.17-0.38,0.35-0.76,0.52-1.14c0.44,0.06,0.87,0.13,1.31,0.19c0.8,0.11,1.6,0.32,2.43,0.34c0-0.37-0.01-0.7,0-1.02
		c0.01-0.28-0.14-0.4-0.39-0.44c-0.35-0.06-0.7-0.1-1.05-0.18c-0.56-0.13-1.14-0.08-1.69-0.27c0.86-1.79,1.65-3.6,2.43-5.4
		c0.04-0.1,0.08-0.21,0.08-0.32C86.35,170.52,86.27,169.57,86.19,168.63z M115.49,34.15c0.24,0.08,0.27-0.16,0.33-0.38
		c1.23-4.35,2.47-8.7,3.69-13.05c0.11-0.4,0.43-0.85,0.24-1.2c-0.19-0.35-0.77-0.25-1.14-0.43c-0.02-0.01-0.04-0.01-0.06-0.02
		c-0.2-0.08-0.34-0.02-0.4,0.2c-0.05,0.17-0.1,0.34-0.15,0.51c-1.15,4.03-2.3,8.06-3.45,12.09c-0.15,0.53-0.29,1.07-0.44,1.6
		c-0.04,0.15-0.1,0.31,0.13,0.37C114.63,33.93,115.02,34.03,115.49,34.15z M127.79,21.91c-0.01-0.08-0.03-0.17-0.13-0.2
		c-0.42-0.13-0.84-0.27-1.27-0.39c-0.12-0.03-0.21,0.03-0.25,0.15c-0.04,0.13-0.08,0.25-0.11,0.38c-0.46,1.62-0.92,3.24-1.38,4.86
		c-0.45,1.63-1,3.23-1.41,4.87c-0.27,1.06-0.67,2.08-0.88,3.16c-0.08,0.43-0.47,0.91-0.27,1.24c0.2,0.33,0.82,0.23,1.22,0.41
		c0.02,0.01,0.04,0.01,0.06,0.02c0.17,0.06,0.3,0.03,0.35-0.17c0.03-0.13,0.07-0.26,0.11-0.38c1.29-4.56,2.59-9.12,3.88-13.68
		C127.73,22.08,127.76,22,127.79,21.91z M134.83,159.55c2.34,4.56,4.67,9.1,7,13.65c0.43-0.21,0.84-0.42,1.26-0.62
		c0.25-0.12,0.24-0.25,0.11-0.47c-0.39-0.69-0.78-1.39-1.14-2.1c-1.82-3.67-3.8-7.27-5.55-10.97c-0.12-0.26-0.25-0.24-0.46-0.13
		C135.67,159.13,135.28,159.32,134.83,159.55z M127.45,163.29c2.02,3.94,4,7.8,5.98,11.67c0.3,0.59,0.61,1.18,0.92,1.77
		c0.07,0.14,0.17,0.32,0.35,0.17c0.38-0.31,0.85-0.46,1.25-0.71c-2.33-4.56-4.64-9.09-6.96-13.63
		C128.46,162.76,128.05,163.12,127.45,163.29z M70.7,176c1.42-3.95,2.83-7.86,4.25-11.81c-0.48-0.17-0.93-0.34-1.39-0.5
		c-0.44-0.15-0.45-0.14-0.61,0.29c-1.05,2.89-2.09,5.79-3.14,8.68c-0.29,0.79-0.58,1.58-0.87,2.37c-0.06,0.16-0.17,0.34,0.1,0.43
		C69.59,175.63,70.14,175.81,70.7,176z M77.32,36.45c0-0.04,0.01-0.09,0-0.13c-1.01-2.46-1.89-4.96-2.83-7.45
		c-0.5-1.33-1.01-2.64-1.5-3.97c-0.09-0.24-0.18-0.32-0.43-0.2c-0.34,0.15-0.7,0.27-1.05,0.41c-0.43,0.16-0.43,0.16-0.27,0.59
		c1.01,2.7,2.02,5.4,3.03,8.09c0.38,1.02,0.79,2.02,1.17,3.04c0.1,0.28,0.22,0.32,0.49,0.19C76.37,36.81,76.85,36.64,77.32,36.45z
		 M156.31,57.08c0.3,0.44,0.57,0.82,0.83,1.2c0.28,0.42,0.29,0.4,0.7,0.11c2.2-1.53,4.42-3.04,6.63-4.55
		c1.02-0.7,2.05-1.39,3.09-2.08c0.22-0.14,0.25-0.26,0.09-0.47c-0.32-0.42-0.61-0.86-0.93-1.32
		C163.27,52.33,159.82,54.69,156.31,57.08z M96.4,181.8c-0.01,0-0.03,0-0.04,0c0,0.58,0,1.15,0,1.73c0,0.51-0.04,0.5,0.51,0.49
		c0.29,0,0.58,0,0.87,0c0.58,0.01,0.56,0.06,0.57-0.58c0.08-3.75,0.16-7.49,0.24-11.24c0.02-0.98,0.08-0.78-0.73-0.82
		c-0.29-0.01-0.58-0.02-0.86-0.05c-0.23-0.02-0.32,0.06-0.32,0.29c0,0.8-0.06,1.59-0.09,2.39C96.47,176.61,96.44,179.2,96.4,181.8z
		 M148.2,48.35c0.37,0.39,0.71,0.73,1.04,1.09c0.22,0.24,0.37,0.25,0.63-0.01c1.79-1.76,3.61-3.48,5.42-5.22
		c1.02-0.99,2.04-1.98,3.06-2.97c0.15-0.15,0.24-0.25,0.06-0.43c-0.39-0.38-0.77-0.77-1.14-1.14
		C154.21,42.59,151.2,45.47,148.2,48.35z M61.86,34.01c0.23,0.37,0.45,0.71,0.66,1.04c0.31,0.49,0.31,0.49,0.83,0.17
		c0.19-0.11,0.38-0.22,0.57-0.34c0.48-0.28,1.26-0.11,1.55,0.37c0.32,0.51,0.62,1.02,0.92,1.54c0.56,0.97,0.55,0.97,0.26,2.03
		c-0.09,0.32-0.25,0.56-0.54,0.72c-0.16,0.08-0.31,0.18-0.47,0.25c-0.17,0.08-0.24,0.18-0.13,0.36c0.27,0.43,0.53,0.87,0.79,1.31
		c0.1,0.16,0.22,0.09,0.34,0.02c0.4-0.24,0.79-0.5,1.2-0.72c0.29-0.15,0.41-0.37,0.48-0.67c0.18-0.73,0.35-1.47,0.58-2.18
		c0.1-0.33,0.07-0.57-0.1-0.85c-0.7-1.16-1.38-2.32-2.05-3.5c-0.16-0.28-0.37-0.41-0.67-0.47c-0.52-0.11-1.03-0.23-1.54-0.39
		c-0.21-0.06-0.39-0.05-0.57,0.06C63.27,33.17,62.57,33.59,61.86,34.01z M62.01,35.92c-0.01-0.04-0.02-0.08-0.04-0.12
		c-0.25-0.39-0.5-0.79-0.75-1.18c-0.12-0.18-0.24-0.13-0.39-0.03c-0.31,0.21-0.62,0.42-0.95,0.6c-0.43,0.23-1.27-0.01-1.52-0.42
		c-0.34-0.54-0.67-1.09-1.02-1.64c-0.15-0.24-0.19-0.47-0.1-0.75c0.42-1.36,0.04-1.02,1.32-1.72c0.02-0.01,0.04-0.02,0.06-0.03
		c0.18-0.08,0.21-0.19,0.1-0.37c-0.24-0.37-0.5-0.73-0.7-1.13c-0.15-0.29-0.3-0.26-0.52-0.12c-0.41,0.26-0.82,0.53-1.25,0.76
		c-0.31,0.16-0.45,0.39-0.53,0.71c-0.15,0.67-0.31,1.34-0.52,1.99c-0.1,0.32-0.11,0.56,0.08,0.86c0.65,1.03,1.28,2.08,1.88,3.13
		c0.14,0.24,0.29,0.36,0.55,0.41c0.56,0.11,1.13,0.23,1.68,0.37c0.23,0.06,0.42,0.04,0.63-0.08c0.59-0.35,1.19-0.69,1.78-1.03
		C61.9,36.1,62,36.06,62.01,35.92z M120.69,20.19c-0.19,0.09-0.2,0.26-0.24,0.39c-0.3,1-0.59,2-0.89,3c-0.07,0.25-0.04,0.48,0,0.72
		c0.64,3.3,1.28,6.61,1.93,9.93c0.15-0.09,0.17-0.22,0.21-0.35c0.28-1,0.55-2.01,0.85-3.01c0.09-0.29,0.09-0.55,0.03-0.84
		c-0.25-1.33-0.48-2.66-0.74-3.99C121.47,24.1,121.08,22.16,120.69,20.19z M76.55,22.32c-0.19-0.5-0.37-0.97-0.53-1.44
		c-0.08-0.22-0.2-0.27-0.4-0.19c-0.35,0.14-0.7,0.28-1.05,0.41c-2.69,1.01-5.38,2.02-8.08,3.01c-0.22,0.08-0.28,0.2-0.22,0.39
		c0.17,0.5,0.31,1.01,0.6,1.47C70.07,24.69,73.31,23.55,76.55,22.32z M102.85,168.87c-0.1-0.04-0.14-0.06-0.18-0.07
		c-2.97-0.06-5.95-0.12-8.92-0.17c-0.43-0.01-1.02-0.23-1.27,0.09c-0.26,0.32-0.04,0.9-0.07,1.36c-0.02,0.27,0.12,0.34,0.36,0.34
		c0.93,0.01,1.86,0.06,2.8,0.05c1.86-0.01,3.73,0.05,5.59,0.14c0.44,0.02,0.89,0,1.33,0.01c0.24,0.01,0.38-0.06,0.37-0.33
		C102.85,169.81,102.85,169.33,102.85,168.87z M67.92,177.93c0.08,0.05,0.13,0.1,0.19,0.12c1.45,0.47,2.88,1.01,4.31,1.54
		c1.22,0.45,2.45,0.89,3.68,1.33c0.41,0.15,0.4,0.14,0.55-0.29c0.1-0.31,0.22-0.63,0.33-0.94c0.16-0.43,0.16-0.44-0.28-0.6
		c-1.47-0.55-2.95-1.09-4.42-1.62c-1.08-0.39-2.17-0.77-3.26-1.14c-0.43-0.15-0.46-0.12-0.62,0.31
		C68.24,177.06,68.08,177.49,67.92,177.93z M146.29,50.36c2.04,2.11,4.13,4.27,6.22,6.44c0.48-0.46,0.92-0.88,1.37-1.31
		c-2.11-2.19-4.2-4.36-6.29-6.53C147.15,49.43,146.73,49.88,146.29,50.36z M34.05,52.72c-0.02,0.04-0.05,0.07-0.07,0.11
		c0.03,0.06,0.05,0.12,0.09,0.17c1.7,2.05,3.43,4.07,5.1,6.15c0.67,0.84,1.44,1.47,2.45,1.85c0.62,0.23,1.21,0.54,1.82,0.82
		c-1.98-2.55-3.99-5.02-6.02-7.49c-0.14-0.17-0.3-0.35-0.5-0.43C35.97,53.49,35.01,53.11,34.05,52.72z M153.98,58.6
		c1.76,2.55,3.47,5.04,5.2,7.54c0.45-0.32,0.83-0.63,1.25-0.87c0.32-0.18,0.26-0.31,0.09-0.56c-1.21-1.72-2.4-3.46-3.59-5.19
		c-0.45-0.65-0.89-1.3-1.33-1.95C155.07,57.94,154.6,58.3,153.98,58.6z M98.89,17.02c-0.57,0.03-0.99,0.07-1.41,0.07
		c-0.51,0-0.84,0.23-1.12,0.66c-1.06,1.58-2.13,3.17-3.26,4.7c-0.45,0.61-0.69,1.2-0.55,1.96c0.09,0.53,0.11,1.07,0.15,1.61
		C94.8,23.07,96.87,20.15,98.89,17.02z M100.14,32.25c-1.6-2.85-3.15-5.62-4.73-8.44c-0.35,0.51-0.64,0.96-0.96,1.39
		c-0.15,0.2-0.11,0.34,0,0.53c1.2,2.12,2.4,4.25,3.59,6.38c0.12,0.22,0.26,0.33,0.52,0.3C99.07,32.35,99.58,32.3,100.14,32.25z
		 M59.16,39.91c0.48,0.8,0.93,1.53,1.37,2.27c0.1,0.16,0.23,0.27,0.42,0.3c0.85,0.14,1.68,0.4,2.51,0.62
		c0.19,0.05,0.34,0.06,0.5-0.04c0.56-0.33,1.13-0.66,1.69-0.99c-0.29-0.48-0.55-0.91-0.81-1.35c-0.14-0.24-0.29-0.31-0.52-0.11
		c-0.51,0.43-1.05,0.64-1.69,0.27c-0.09-0.05-0.21-0.07-0.32-0.06c-0.31,0.01-0.49-0.16-0.63-0.41c-0.23-0.4-0.49-0.79-0.71-1.2
		c-0.12-0.22-0.24-0.21-0.42-0.09C60.13,39.41,59.69,39.67,59.16,39.91z M105.46,32.08c-0.01,0.11-0.01,0.22-0.02,0.33
		c-0.03,0.25,0.05,0.35,0.32,0.37c1.83,0.16,3.67,0.34,5.5,0.51c0.58,0.05,0.58,0.05,0.65-0.56c0.03-0.29,0.05-0.58,0.09-0.86
		c0.05-0.35-0.09-0.45-0.43-0.48c-1.61-0.14-3.22-0.32-4.83-0.46c-0.37-0.03-0.83-0.26-1.08,0
		C105.39,31.19,105.48,31.68,105.46,32.08z M113.05,19.96c0.11-0.49,0.11-0.95,0.15-1.42c0.03-0.34-0.09-0.46-0.43-0.49
		c-1.85-0.19-3.7-0.39-5.55-0.53c-0.28-0.02-0.41,0.05-0.42,0.34c-0.01,0.38-0.03,0.75-0.08,1.13c-0.04,0.31,0.07,0.42,0.39,0.45
		c1.41,0.12,2.82,0.27,4.23,0.4C111.89,19.89,112.44,20.02,113.05,19.96z M58.61,44.38c-0.16-0.01-0.24,0.08-0.32,0.15
		c-1.47,1.29-2.92,2.59-4.45,3.8c-0.17,0.13-0.16,0.24-0.04,0.38c0.32,0.37,0.64,0.74,0.96,1.11c0.13,0.15,0.24,0.13,0.39-0.01
		c1.49-1.4,3.07-2.69,4.63-4.03C59.38,45.31,58.99,44.83,58.61,44.38z M46.19,39.81c0.15-0.16,0.24-0.28,0.36-0.38
		c1.4-1.19,2.8-2.38,4.21-3.56c0.16-0.14,0.26-0.22,0.1-0.41c-0.32-0.37-0.63-0.74-0.95-1.11c-0.11-0.13-0.22-0.13-0.34-0.02
		c-0.21,0.19-0.43,0.39-0.64,0.58c-1.34,1.15-2.67,2.3-4.03,3.47C45.32,38.85,45.73,39.31,46.19,39.81z M58.56,28.43
		c0.28,0.44,0.53,0.83,0.78,1.22c0.26,0.4,0.27,0.42,0.65,0.14c0.38-0.28,0.76-0.44,1.22-0.23c0.16,0.07,0.34,0.1,0.51,0.12
		c0.32,0.04,0.51,0.23,0.66,0.49c0.15,0.26,0.24,0.57,0.52,0.76c0.4-0.32,0.83-0.54,1.27-0.76c0.24-0.12,0.28-0.23,0.13-0.45
		c-0.28-0.45-0.56-0.9-0.81-1.37c-0.12-0.21-0.26-0.32-0.5-0.38c-0.77-0.18-1.54-0.38-2.3-0.61c-0.22-0.07-0.39-0.02-0.56,0.08
		C59.63,27.77,59.12,28.09,58.56,28.43z M110.54,25.05c0.01-0.09,0.01-0.18,0.02-0.27c0.04-0.52,0.04-0.52-0.44-0.56
		c-0.95-0.09-1.9-0.2-2.85-0.25c-0.33-0.02-0.77-0.28-0.99,0.04c-0.18,0.26-0.12,0.68-0.16,1.04c-0.01,0.04,0,0.09-0.01,0.13
		c-0.04,0.27,0.04,0.39,0.35,0.41c1.04,0.08,2.08,0.19,3.12,0.28C110.47,25.94,110.48,25.94,110.54,25.05z M50.21,44.51
		c0.34-0.29,0.63-0.56,0.93-0.81c0.69-0.59,1.38-1.18,2.07-1.77c0.12-0.1,0.37-0.2,0.17-0.41c-0.34-0.37-0.62-0.8-1.06-1.15
		c-0.42,0.54-0.98,0.91-1.47,1.35c-0.49,0.44-1,0.87-1.52,1.28c-0.22,0.17-0.2,0.3-0.04,0.49C49.59,43.8,49.88,44.13,50.21,44.51z" />
		<path class="wkp_st2" d="M37.72,100.28c0.13-34.78,28.29-62.66,62.72-62.63c34.72,0.04,62.54,28.35,62.5,62.74
		c-0.04,34.29-27.9,62.5-62.66,62.49C65.17,162.87,37.67,134.12,37.72,100.28z M56.41,61.31c-0.17,0.17-0.36,0.33-0.52,0.52
		c-4.21,4.93-7.58,10.38-10.01,16.4c-2.45,6.05-3.89,12.33-4.25,18.85c-0.25,4.51,0,9.01,0.79,13.47c0.77,4.36,2.01,8.58,3.74,12.65
		c2.31,5.46,5.4,10.43,9.22,14.96c4.25,5.03,9.2,9.24,14.85,12.63c4.16,2.49,8.58,4.41,13.23,5.8c5.22,1.56,10.54,2.39,15.99,2.49
		c3.38,0.06,6.74-0.17,10.08-0.71c0.87-0.14,1.76-0.22,2.6-0.52c0.13,0.03,0.26,0,0.39-0.03c1.64-0.37,3.26-0.79,4.87-1.27
		c5.82-1.75,11.23-4.36,16.23-7.81c7.3-5.04,13.17-11.4,17.62-19.08c4.59-7.94,7.19-16.49,7.78-25.63
		c0.29-4.58,0.08-9.14-0.73-13.67c-0.68-3.79-1.66-7.49-3.04-11.08c-2.87-7.43-7.01-14.04-12.55-19.77
		c-6.76-6.99-14.76-12.02-23.99-15.08c-4.55-1.51-9.22-2.42-14-2.79c-4.65-0.36-9.28-0.15-13.88,0.6c-4.11,0.67-8.1,1.8-11.97,3.33
		c-6.82,2.7-12.95,6.52-18.33,11.51C59.08,58.4,57.66,59.77,56.41,61.31z" />
		<path class="wkp_st3" d="M16.9,98.65c1.61-0.08,3.18-0.03,4.76-0.02c0.63,0.01,0.65,0.02,0.83-0.57c0.47-1.5,0.93-3,1.39-4.5
		c0.01-0.03,0.06-0.06,0.14-0.14c0.17,0.46,0.34,0.9,0.48,1.35c0.38,1.16,0.74,2.32,1.1,3.48c0.09,0.3,0.23,0.39,0.56,0.39
		c1.66-0.02,3.32-0.01,5.04-0.01c-0.1,0.28-0.33,0.37-0.52,0.5c-1.17,0.84-2.34,1.69-3.53,2.51c-0.31,0.21-0.37,0.39-0.24,0.75
		c0.53,1.48,1.02,2.97,1.52,4.46c0.03,0.08,0.07,0.16,0.01,0.26c-0.2,0.03-0.31-0.13-0.44-0.23c-1.21-0.98-2.52-1.82-3.76-2.76
		c-0.19-0.14-0.32-0.15-0.52,0c-1.29,0.97-2.6,1.93-3.91,2.89c-0.07,0.05-0.14,0.09-0.28,0.17c0.17-0.85,0.47-1.58,0.71-2.34
		c0.27-0.87,0.55-1.73,0.87-2.58c0.11-0.3,0.02-0.43-0.21-0.59c-1.22-0.86-2.42-1.73-3.63-2.6C17.15,98.99,16.95,98.95,16.9,98.65z
		 M21.07,105.21c0.05-0.03,0.12-0.06,0.03-0.13c-0.01,0-0.05,0.05-0.08,0.08c-0.01,0.03-0.03,0.06-0.04,0.09
		C21.01,105.24,21.04,105.22,21.07,105.21z M27.21,105.03c-0.03-0.03-0.08-0.09-0.08-0.08c-0.08,0.06-0.03,0.1,0.02,0.14
		c0.03,0.05,0.07,0.1,0.1,0.16C27.34,105.15,27.28,105.09,27.21,105.03z M24.26,101.05c-0.02-0.1-0.02-0.21-0.17-0.21
		c-0.02,0-0.04,0.03-0.04,0.04c-0.01,0.15,0.1,0.16,0.2,0.18c0.01,0.3,0.26,0.46,0.41,0.66c0.73,1,1.41,2.03,2.22,2.97
		c0.03,0.03,0.09,0.08,0.1,0.07c0.08-0.05,0.03-0.1-0.02-0.15c-0.15-0.94-0.47-1.83-0.82-2.71c-0.11-0.27-0.3-0.49-0.6-0.58
		C25.12,101.21,24.71,101.03,24.26,101.05z M18.94,99.43c-0.04-0.06-0.08-0.1-0.16-0.08c-0.02,0-0.03,0.03-0.04,0.04
		c0.05,0.03,0.11,0.05,0.16,0.08c0.87,0.67,1.83,1.22,2.74,1.84c0.07,0.05,0.17,0.11,0.24,0.09c0.61-0.15,1.23-0.26,1.86-0.7
		c-0.84-0.12-1.55-0.35-2.24-0.6C20.66,99.81,19.8,99.6,18.94,99.43z M23.97,95.52c-0.25,0.09-0.23,0.24-0.26,0.37
		c-0.13,0.56-0.31,1.1-0.48,1.65c-0.57,1.8-0.7,1.22,0.41,2.79c0.04,0.05,0.09,0.08,0.21,0.19C24.26,98.83,23.66,97.19,23.97,95.52z
		 M23.86,101.3c-1.02,1.13-1.91,2.3-2.61,3.61c0.88-0.52,1.72-1.08,2.48-1.74c0.11-0.1,0.13-0.23,0.13-0.36
		C23.86,102.3,23.86,101.8,23.86,101.3z M24.25,100.65c0.61-0.06,1.09-0.3,1.59-0.45c0.51-0.15,1.02-0.29,1.52-0.47
		c0.47-0.17,1.01-0.16,1.42-0.51c-0.78,0.11-1.55,0.1-2.33,0.09c-0.33,0-0.67,0-1,0c-0.18,0-0.37,0.02-0.47,0.19
		C24.76,99.86,24.42,100.13,24.25,100.65z" />
		<path class="wkp_st3" d="M170.11,98.61c0.63,0,1.15,0,1.68,0c1.07,0,2.13,0.01,3.2,0.02c0.62,0,0.62,0.01,0.81-0.61
		c0.48-1.52,0.96-3.04,1.47-4.63c0.34,0.6,0.47,1.21,0.66,1.78c0.35,1.03,0.69,2.06,1,3.1c0.09,0.29,0.22,0.37,0.51,0.36
		c1.62-0.03,3.24-0.03,4.86-0.04c0.06,0,0.13-0.01,0.18,0.1c-0.06,0.21-0.28,0.29-0.45,0.42c-1.17,0.84-2.34,1.69-3.52,2.51
		c-0.5,0.35-0.42,0.34-0.26,0.79c0.5,1.44,0.98,2.9,1.47,4.34c0.04,0.12,0.07,0.24,0.11,0.39c-0.29-0.04-0.43-0.21-0.61-0.34
		c-1.2-0.87-2.41-1.75-3.6-2.64c-0.27-0.2-0.43-0.18-0.68,0.02c-1.29,1.01-2.68,1.9-3.96,2.93c-0.03,0.02-0.08,0.02-0.17,0.04
		c0.13-0.44,0.25-0.86,0.38-1.27c0.39-1.18,0.77-2.36,1.19-3.53c0.11-0.32,0.08-0.51-0.21-0.71c-1.2-0.83-2.39-1.69-3.58-2.54
		C170.44,99.01,170.28,98.93,170.11,98.61z M177.6,100.66c0.51-0.15,1.02-0.29,1.53-0.44c0.53-0.16,1.06-0.31,1.58-0.49
		c0.47-0.17,1-0.16,1.52-0.49c-0.16-0.03-0.2-0.06-0.24-0.05c-0.99,0.13-1.97,0.2-2.97,0.02c-0.12-0.02-0.29,0-0.38,0.08
		C178.19,99.66,177.71,100.02,177.6,100.66c-0.31-0.04-0.43,0.11-0.4,0.4c-0.46,0.42-0.76,0.97-1.12,1.46
		c-0.6,0.82-1.24,1.61-1.7,2.52c-0.02,0.03-0.03,0.06-0.05,0.09c0.03-0.02,0.06-0.03,0.09-0.05c0.88-0.57,1.71-1.21,2.54-1.85
		c0.21-0.16,0.25-0.4,0.25-0.65c-0.01-0.51-0.01-1.01-0.01-1.52c0.13,0,0.27,0,0.4,0c0,0.26,0.16,0.45,0.3,0.65
		c0.69,0.95,1.38,1.9,2.07,2.84c0.09,0.13,0.19,0.29,0.46,0.29c-0.35-1.04-0.67-2.04-1.02-3.04c-0.08-0.23-0.28-0.4-0.53-0.47
		c-0.42-0.12-0.84-0.29-1.29-0.28C177.52,100.92,177.52,100.79,177.6,100.66z M176.98,100.69c-0.64-0.03-1.09-0.25-1.57-0.39
		c-0.89-0.27-1.77-0.53-2.66-0.8c-0.14-0.04-0.27-0.08-0.48,0.05c0.93,0.62,1.79,1.19,2.65,1.76c0.09,0.06,0.22,0.12,0.31,0.1
		C175.77,101.23,176.37,101.14,176.98,100.69z M177.19,95.61c-0.03,0-0.05-0.01-0.08-0.01c-0.13,0.44-0.23,0.89-0.4,1.31
		c-0.18,0.43-0.29,0.88-0.43,1.33c-0.3,0.95-0.01,1.63,0.91,2.17C177.19,98.8,177.19,97.21,177.19,95.61z M180.49,105.12l-0.03-0.02
		l0,0.04L180.49,105.12z" />
		<path class="wkp_st4" d="M134.93,26.67c0.39-0.59,0.55-1.23,0.97-1.72c1.03,0.52,2.04,1.03,3.05,1.53c0.32,0.16,0.51,0.39,0.62,0.73
		c0.34,1.05,0.68,2.1,1.04,3.15c0.08,0.23,0.08,0.4-0.04,0.62c-1.24,2.45-2.47,4.91-3.68,7.38c-0.23,0.47-0.54,0.73-1.06,0.88
		c-1.02,0.3-2.02,0.67-3.02,1.03c-0.23,0.08-0.42,0.09-0.63-0.01c-1.07-0.53-2.14-1.05-3.24-1.59c0.24-0.47,0.5-0.9,0.7-1.36
		c0.14-0.32,0.31-0.3,0.57-0.17c0.73,0.38,1.47,0.73,2.2,1.11c0.22,0.11,0.38,0.15,0.62,0.04c0.34-0.16,0.7-0.31,1.06-0.37
		c0.8-0.14,1.23-0.6,1.56-1.32c0.91-1.92,1.89-3.82,2.85-5.71c0.15-0.3,0.17-0.56,0.04-0.88c-0.19-0.47-0.34-0.96-0.48-1.45
		c-0.09-0.3-0.25-0.48-0.54-0.61C136.67,27.54,135.85,27.12,134.93,26.67z" />
		<path class="wkp_st4" d="M124.77,180.4c-0.66,0.2-1.28,0.38-1.89,0.58c-0.18,0.06-0.34,0.08-0.5-0.04c-0.77-0.53-1.63-0.89-2.45-1.32
		c-0.31-0.16-0.47-0.37-0.56-0.68c-0.85-2.85-1.67-5.7-2.57-8.53c-0.25-0.79-0.24-1.42,0.24-2.1c0.36-0.5,0.62-1.07,0.91-1.62
		c0.11-0.22,0.25-0.35,0.48-0.42c0.53-0.16,1.06-0.32,1.58-0.49c0.21-0.07,0.34-0.05,0.39,0.19c0.03,0.15,0.09,0.3,0.14,0.44
		c0.11,0.36,0.37,0.75,0.25,1.08c-0.13,0.33-0.63,0.21-0.96,0.33c-0.31,0.11-0.58,0.2-0.65,0.57c-0.01,0.04-0.03,0.09-0.06,0.12
		c-0.65,0.71-0.47,1.45-0.2,2.27c0.7,2.17,1.34,4.36,1.98,6.55c0.16,0.54,0.34,1,0.95,1.14c0.04,0.01,0.08,0.04,0.12,0.06
		c0.55,0.47,1.14,0.47,1.79,0.18c0.39-0.17,0.44-0.11,0.59,0.34C124.48,179.49,124.62,179.93,124.77,180.4z" />
		<path class="wkp_st4" d="M108.65,169.61c0.03,0.24-0.03,0.42-0.31,0.37c-1-0.18-1.54,0.43-2.05,1.13c-0.18,0.25-0.24,0.47-0.2,0.79
		c0.34,2.68,0.65,5.37,0.97,8.06c0.01,0.11-0.01,0.26,0.05,0.32c0.41,0.44,0.91,0.77,1.4,1.11c0.23,0.16,0.56,0.07,0.84,0.01
		c0.07-0.01,0.13-0.04,0.19-0.05c0.47-0.07,0.5-0.05,0.56,0.4c0.05,0.37,0.08,0.75,0.15,1.12c0.05,0.27-0.07,0.35-0.31,0.37
		c-0.55,0.05-1.1,0.13-1.65,0.2c-0.19,0.02-0.33-0.05-0.48-0.17c-0.71-0.57-1.43-1.12-2.16-1.67c-0.25-0.19-0.38-0.39-0.42-0.71
		c-0.36-3.02-0.72-6.04-1.11-9.06c-0.08-0.64,0.02-1.15,0.47-1.63c0.47-0.5,0.86-1.08,1.28-1.62c0.14-0.18,0.28-0.32,0.54-0.34
		c0.55-0.05,1.1-0.12,1.65-0.21c0.22-0.03,0.33,0.02,0.37,0.25C108.51,168.73,108.58,169.17,108.65,169.61z" />
		<path class="wkp_st4" d="M125.02,178.29c1.12,0.01,1.47-0.85,1.9-1.61c0.13-0.23,0.14-0.43,0.06-0.69c-0.78-2.56-1.55-5.13-2.3-7.71
		c-0.11-0.38-0.28-0.63-0.62-0.79c-0.22-0.11-0.45-0.2-0.65-0.33c-0.35-0.24-0.68-0.25-1.05-0.05c-0.11,0.06-0.26,0.06-0.38,0.11
		c-0.19,0.08-0.29,0.01-0.35-0.17c-0.14-0.44-0.27-0.89-0.41-1.33c-0.07-0.21,0.05-0.28,0.21-0.33c0.51-0.16,1.02-0.31,1.52-0.47
		c0.17-0.05,0.3-0.01,0.44,0.07c0.82,0.44,1.64,0.88,2.46,1.32c0.26,0.14,0.34,0.36,0.42,0.63c0.91,3.08,1.83,6.15,2.76,9.22
		c0.07,0.22,0.08,0.4-0.05,0.62c-0.46,0.81-0.89,1.63-1.32,2.46c-0.13,0.25-0.31,0.41-0.59,0.48c-0.41,0.1-0.81,0.23-1.21,0.36
		c-0.2,0.07-0.34,0.05-0.4-0.18C125.34,179.38,125.19,178.88,125.02,178.29z" />
		<path class="wkp_st4" d="M111.18,167.69c0.16-0.03,0.3,0.02,0.45,0.15c0.65,0.54,1.3,1.08,1.99,1.57c0.31,0.22,0.42,0.48,0.46,0.82
		c0.14,1.21,0.29,2.42,0.44,3.64c0.23,1.94,0.45,3.88,0.7,5.82c0.04,0.32-0.01,0.54-0.21,0.79c-0.55,0.67-1.06,1.36-1.6,2.05
		c-0.08,0.1-0.16,0.26-0.26,0.29c-0.6,0.18-1.22,0.19-1.83,0.26c-0.12,0.01-0.19-0.1-0.2-0.22c-0.05-0.46-0.11-0.93-0.16-1.39
		c-0.02-0.16,0.04-0.27,0.21-0.26c0.81,0.05,1.28-0.43,1.71-1.03c0.28-0.39,0.42-0.72,0.34-1.25c-0.36-2.55-0.65-5.11-0.94-7.67
		c-0.04-0.38-0.12-0.69-0.49-0.87c-0.12-0.06-0.22-0.15-0.32-0.24c-0.4-0.4-0.83-0.59-1.43-0.41c-0.5,0.15-0.52,0.07-0.57-0.49
		c-0.04-0.35-0.09-0.7-0.13-1.06c-0.03-0.19,0.04-0.29,0.24-0.31C110.09,167.82,110.62,167.75,111.18,167.69z" />
		<path class="wkp_st4" d="M60.62,167.6c0.26-0.42,0.5-0.77,0.71-1.14c0.16-0.29,0.3-0.35,0.61-0.15c0.77,0.49,1.57,0.91,2.35,1.38
		c0.3,0.18,0.58,0.18,0.94,0.13c0.89-0.12,1.41-0.61,1.78-1.38c0.25-0.54,0.57-1.05,0.89-1.56c0.14-0.23,0.13-0.42,0.1-0.68
		c-0.11-1.03-0.65-1.67-1.59-2.07c-0.55-0.23-1.05-0.58-1.57-0.88c-0.27-0.15-0.42-0.3-0.17-0.62c0.23-0.3,0.41-0.63,0.58-0.97
		c0.14-0.28,0.29-0.27,0.53-0.13c1.03,0.61,2.06,1.22,3.1,1.81c0.27,0.15,0.43,0.35,0.51,0.65c0.22,0.88,0.45,1.76,0.7,2.63
		c0.05,0.18-0.01,0.3-0.09,0.43c-0.7,1.21-1.42,2.41-2.1,3.62c-0.14,0.24-0.32,0.33-0.57,0.39c-0.86,0.22-1.71,0.46-2.56,0.7
		c-0.16,0.05-0.3,0.06-0.44-0.03C63.1,169.04,61.88,168.33,60.62,167.6z" />
		<path class="wkp_st4" d="M149.02,33.07c0.6,0.31,1.03,0.73,1.52,1.07c0.15,0.11,0.17,0.22,0.1,0.39c-1.6,3.7-3,7.48-4.55,11.2
		c-0.41,0.98-0.79,1.97-1.18,2.96c-0.03,0.08-0.07,0.16-0.17,0.21c-0.44-0.32-0.88-0.65-1.34-0.96c-0.2-0.14-0.23-0.26-0.13-0.5
		c0.64-1.56,1.27-3.12,1.89-4.68c1.25-3.13,2.49-6.26,3.74-9.38C148.93,33.29,148.96,33.21,149.02,33.07z" />
		<path class="wkp_st4" d="M86.98,167.59c0.62-0.04,1.17,0.17,1.75,0.18c0.25,0,0.26,0.21,0.28,0.38c0.05,0.49,0.09,0.97,0.13,1.46
		c0.15,1.83,0.3,3.67,0.45,5.5c0.15,1.83,0.32,3.67,0.47,5.5c0.08,0.97,0.15,1.94,0.23,2.97c-0.62-0.09-1.17-0.17-1.73-0.24
		c-0.22-0.03-0.23-0.19-0.24-0.34c-0.06-0.53-0.14-1.06-0.17-1.59c-0.1-2.37-0.42-4.73-0.59-7.09c-0.16-2.19-0.41-4.37-0.61-6.56
		C86.94,167.74,86.96,167.69,86.98,167.59z" />
		<path class="wkp_st3" d="M28.34,58.04c0.33-0.44,0.62-0.83,0.91-1.22c0.15-0.2,0.3-0.26,0.56-0.14c2.34,1.06,4.68,2.09,7.03,3.14
		c2.18,0.97,4.36,1.95,6.53,2.92c0.41,0.18,0.43,0.2,0.19,0.55c-0.25,0.37-0.54,0.71-0.78,1.08c-0.16,0.25-0.31,0.25-0.55,0.14
		c-0.78-0.38-1.56-0.74-2.34-1.1c-3.78-1.74-7.53-3.55-11.34-5.24C28.49,58.14,28.44,58.1,28.34,58.04z" />
		<path class="wkp_st4" d="M92.26,31.73c0.03,0.27,0.03,0.53,0.08,0.79c0.06,0.31-0.09,0.39-0.36,0.4c-0.42,0.02-0.84,0.04-1.26,0.09
		c-0.28,0.04-0.33-0.09-0.35-0.33c-0.07-0.91-0.16-1.81-0.23-2.72c-0.15-2.04-0.29-4.07-0.44-6.11c-0.14-1.77-0.3-3.54-0.44-5.31
		c-0.07-0.8-0.06-0.82,0.76-0.85c0.37-0.02,0.81-0.27,1.09-0.01c0.24,0.22,0.1,0.67,0.13,1.02c0.17,1.9,0.32,3.81,0.48,5.71
		c0.17,2.08,0.33,4.16,0.49,6.24c0.03,0.35,0.05,0.71,0.07,1.06C92.27,31.73,92.26,31.73,92.26,31.73z" />
		<path class="wkp_st3" d="M126.44,37.45c2.27-4.52,4.52-8.97,6.74-13.43c0.16-0.33,0.31-0.31,0.55-0.15c0.42,0.28,0.95,0.36,1.3,0.77
		c-0.2,0.42-0.39,0.84-0.59,1.25c-1.66,3.3-3.33,6.6-4.99,9.9c-0.37,0.73-0.73,1.46-1.07,2.21c-0.12,0.27-0.24,0.26-0.45,0.15
		C127.45,37.91,126.97,37.7,126.44,37.45z" />
		<path class="wkp_st4" d="M104.14,17.2c0.54,0.1,1.04,0.12,1.55,0.13c0.23,0.01,0.32,0.1,0.3,0.33c-0.06,0.64-0.1,1.28-0.16,1.92
		c-0.25,2.54-0.51,5.07-0.75,7.61c-0.16,1.63-0.29,3.27-0.43,4.9c-0.05,0.53-0.08,0.55-0.61,0.49c-0.29-0.03-0.57-0.07-0.86-0.08
		c-0.57-0.02-0.53,0-0.49-0.58c0.04-0.66,0.12-1.33,0.18-1.99c0.39-3.98,0.78-7.95,1.17-11.93
		C104.04,17.75,104.09,17.49,104.14,17.2z" />
		<path class="wkp_st4" d="M64.67,159c-1.25,2.15-2.49,4.27-3.72,6.4c-1.27,2.18-2.58,4.34-3.79,6.56c-0.09,0.17-0.2,0.23-0.37,0.13
		c-0.02-0.01-0.04-0.02-0.06-0.04c-0.46-0.26-0.92-0.53-1.38-0.79c0.1-0.51,0.46-0.9,0.71-1.33c2.21-3.8,4.43-7.59,6.64-11.38
		c0.07-0.11,0.13-0.23,0.2-0.35c0.08-0.12,0.18-0.21,0.33-0.11C63.71,158.4,64.24,158.61,64.67,159z" />
		<path class="wkp_st4" d="M54.25,50.56c-0.37,0.31-0.72,0.58-1.05,0.87c-0.42,0.36-0.41,0.36-0.79-0.08c-0.69-0.81-1.39-1.61-2.09-2.42
		c-2.5-2.91-5.01-5.82-7.53-8.75c0.47-0.41,0.94-0.83,1.45-1.27C47.59,42.8,50.92,46.68,54.25,50.56z" />
		<path class="wkp_st3"
			d="M48.86,56.11c-0.31,0.43-0.59,0.8-0.85,1.18c-0.12,0.17-0.24,0.21-0.45,0.12c-2.71-1.15-5.42-2.29-8.14-3.42
		c-1.88-0.79-3.75-1.59-5.66-2.3c-0.1-0.04-0.21-0.08-0.31-0.12c-0.15-0.06-0.22-0.15-0.11-0.3c0.3-0.39,0.6-0.77,0.9-1.15
		c0.1-0.13,0.2-0.09,0.34-0.03c2.2,0.92,4.41,1.83,6.61,2.75c2.3,0.96,4.6,1.94,6.9,2.91C48.35,55.85,48.6,55.98,48.86,56.11z" />
		<path class="wkp_st3" d="M136.33,42.69c3.85-3.07,7.65-6.09,11.55-9.21c-0.19,0.8-0.55,1.38-0.75,2.02c-0.21,0.66-0.62,1.14-1.16,1.57
		c-1.33,1.04-2.61,2.12-3.98,3.25c0.41,0.3,0.79,0.58,1.18,0.86c0.34,0.25,0.68,0.5,1.03,0.74c0.22,0.15,0.3,0.31,0.19,0.56
		c-0.14,0.32-0.27,0.65-0.43,1.02c-0.87-0.64-1.7-1.25-2.54-1.86c-0.07-0.05-0.15-0.1-0.21-0.16c-0.23-0.22-0.4-0.24-0.67,0
		c-0.8,0.7-1.65,1.35-2.46,2.04c-0.2,0.17-0.32,0.24-0.55,0.04C137.15,43.25,136.74,42.99,136.33,42.69z" />
		<path class="wkp_st3" d="M86.19,168.63c0.08,0.94,0.16,1.89,0.24,2.83c0.01,0.1-0.03,0.22-0.08,0.32c-0.78,1.81-1.57,3.61-2.43,5.4
		c0.55,0.19,1.14,0.14,1.69,0.27c0.34,0.08,0.7,0.12,1.05,0.18c0.25,0.04,0.4,0.15,0.39,0.44c-0.01,0.33,0,0.65,0,1.02
		c-0.83-0.02-1.62-0.23-2.43-0.34c-0.44-0.06-0.87-0.13-1.31-0.19c-0.17,0.38-0.35,0.76-0.52,1.14c-0.32,0.73-0.64,1.46-0.93,2.2
		c-0.09,0.22-0.22,0.26-0.4,0.23c-0.48-0.08-0.96-0.16-1.52-0.25c2.06-4.47,4.09-8.88,6.12-13.29
		C86.1,168.6,86.14,168.61,86.19,168.63z" />
		<path class="wkp_st3" d="M115.49,34.15c-0.48-0.12-0.86-0.22-1.25-0.32c-0.23-0.06-0.17-0.21-0.13-0.37c0.15-0.53,0.29-1.07,0.44-1.6
		c1.15-4.03,2.3-8.06,3.45-12.09c0.05-0.17,0.1-0.34,0.15-0.51c0.06-0.22,0.2-0.27,0.4-0.2c0.02,0.01,0.04,0.01,0.06,0.02
		c0.38,0.18,0.95,0.09,1.14,0.43c0.18,0.34-0.13,0.8-0.24,1.2c-1.22,4.35-2.46,8.7-3.69,13.05
		C115.77,33.98,115.73,34.23,115.49,34.15z" />
		<path class="wkp_st3" d="M127.79,21.91c-0.03,0.09-0.06,0.18-0.08,0.26c-1.29,4.56-2.59,9.12-3.88,13.68
		c-0.04,0.13-0.08,0.25-0.11,0.38c-0.05,0.2-0.17,0.23-0.35,0.17c-0.02-0.01-0.04-0.01-0.06-0.02c-0.41-0.17-1.02-0.08-1.22-0.41
		c-0.21-0.33,0.18-0.81,0.27-1.24c0.21-1.08,0.62-2.1,0.88-3.16c0.41-1.64,0.96-3.24,1.41-4.87c0.45-1.62,0.92-3.24,1.38-4.86
		c0.04-0.13,0.07-0.26,0.11-0.38c0.04-0.12,0.14-0.19,0.25-0.15c0.43,0.12,0.85,0.26,1.27,0.39
		C127.76,21.74,127.78,21.82,127.79,21.91z" />
		<path class="wkp_st3" d="M134.83,159.55c0.44-0.23,0.84-0.43,1.23-0.64c0.21-0.12,0.34-0.13,0.46,0.13c1.75,3.71,3.72,7.3,5.55,10.97
		c0.35,0.71,0.74,1.41,1.14,2.1c0.13,0.22,0.14,0.35-0.11,0.47c-0.42,0.2-0.83,0.41-1.26,0.62
		C139.5,168.65,137.17,164.12,134.83,159.55z" />
		<path class="wkp_st3" d="M127.45,163.29c0.6-0.18,1.01-0.53,1.53-0.72c2.32,4.54,4.64,9.07,6.96,13.63c-0.4,0.24-0.87,0.39-1.25,0.71
		c-0.17,0.14-0.27-0.03-0.35-0.17c-0.31-0.59-0.61-1.18-0.92-1.77C131.45,171.09,129.47,167.23,127.45,163.29z" />
		<path class="wkp_st4"
			d="M70.7,176c-0.56-0.19-1.11-0.36-1.65-0.54c-0.27-0.09-0.16-0.26-0.1-0.43c0.29-0.79,0.58-1.58,0.87-2.37
		c1.05-2.89,2.09-5.79,3.14-8.68c0.16-0.43,0.17-0.45,0.61-0.29c0.45,0.16,0.91,0.33,1.39,0.5C73.53,168.14,72.12,172.05,70.7,176z" />
		<path class="wkp_st4" d="M77.32,36.45c-0.47,0.19-0.95,0.36-1.41,0.57c-0.27,0.12-0.38,0.09-0.49-0.19c-0.38-1.02-0.79-2.02-1.17-3.04
		c-1.01-2.7-2.02-5.39-3.03-8.09c-0.16-0.42-0.16-0.42,0.27-0.59c0.35-0.13,0.71-0.25,1.05-0.41c0.25-0.11,0.34-0.04,0.43,0.2
		c0.49,1.33,1.01,2.65,1.5,3.97c0.93,2.48,1.82,4.99,2.83,7.45C77.33,36.36,77.32,36.41,77.32,36.45z" />
		<path class="wkp_st3" d="M156.31,57.08c3.5-2.39,6.96-4.75,10.41-7.1c0.32,0.46,0.61,0.9,0.93,1.32c0.16,0.21,0.13,0.33-0.09,0.47
		c-1.04,0.68-2.06,1.38-3.09,2.08c-2.21,1.51-4.43,3.02-6.63,4.55c-0.41,0.28-0.43,0.31-0.7-0.11
		C156.88,57.89,156.61,57.52,156.31,57.08z" />
		<path class="wkp_st0" d="M96.4,181.8c0.04-2.59,0.07-5.19,0.15-7.78c0.02-0.8,0.09-1.59,0.09-2.39c0-0.23,0.08-0.32,0.32-0.29
		c0.29,0.03,0.58,0.04,0.86,0.05c0.81,0.03,0.75-0.16,0.73,0.82c-0.08,3.75-0.16,7.49-0.24,11.24c-0.01,0.64,0.01,0.59-0.57,0.58
		c-0.29,0-0.58,0-0.87,0c-0.56,0.01-0.52,0.01-0.51-0.49c0-0.58,0-1.15,0-1.73C96.37,181.8,96.38,181.8,96.4,181.8z" />
		<path class="wkp_st3" d="M148.2,48.35c3-2.88,6.01-5.76,9.07-8.69c0.37,0.37,0.75,0.76,1.14,1.14c0.18,0.18,0.1,0.28-0.06,0.43
		c-1.03,0.98-2.04,1.98-3.06,2.97c-1.81,1.74-3.63,3.46-5.42,5.22c-0.27,0.26-0.41,0.25-0.63,0.01
		C148.91,49.08,148.57,48.74,148.2,48.35z" />
		<path class="wkp_st4" d="M61.86,34.01c0.71-0.42,1.41-0.84,2.11-1.26c0.18-0.11,0.35-0.12,0.57-0.06c0.51,0.15,1.02,0.27,1.54,0.39
		c0.3,0.07,0.51,0.19,0.67,0.47c0.67,1.17,1.36,2.34,2.05,3.5c0.17,0.28,0.21,0.53,0.1,0.85c-0.23,0.72-0.4,1.45-0.58,2.18
		c-0.07,0.3-0.19,0.52-0.48,0.67c-0.41,0.22-0.8,0.48-1.2,0.72c-0.12,0.07-0.24,0.14-0.34-0.02c-0.27-0.43-0.53-0.87-0.79-1.31
		c-0.11-0.18-0.04-0.28,0.13-0.36c0.16-0.07,0.31-0.17,0.47-0.25c0.29-0.16,0.45-0.39,0.54-0.72c0.29-1.06,0.31-1.06-0.26-2.03
		c-0.3-0.52-0.6-1.03-0.92-1.54c-0.3-0.48-1.08-0.65-1.55-0.37c-0.19,0.11-0.38,0.22-0.57,0.34c-0.52,0.32-0.52,0.32-0.83-0.17
		C62.31,34.72,62.1,34.38,61.86,34.01z" />
		<path class="wkp_st3" d="M48.36,54.93c-0.96-0.41-1.91-0.82-2.87-1.23c-0.22-0.09-0.35-0.27-0.49-0.44c-2.15-2.43-4.31-4.85-6.46-7.28
		c-0.22-0.25-0.45-0.49-0.71-0.77c0.35-0.46,0.7-0.93,1.07-1.44c1.04,1.17,2.05,2.31,3.06,3.45c2.11,2.4,4.22,4.8,6.33,7.2
		c0.09,0.1,0.16,0.21,0.24,0.32C48.48,54.81,48.42,54.87,48.36,54.93z" />
		<path class="wkp_st4" d="M62.01,35.92C62,36.06,61.9,36.1,61.8,36.16c-0.6,0.34-1.2,0.68-1.78,1.03c-0.21,0.13-0.4,0.14-0.63,0.08
		c-0.56-0.14-1.12-0.26-1.68-0.37c-0.26-0.05-0.41-0.17-0.55-0.41c-0.61-1.06-1.23-2.1-1.88-3.13c-0.19-0.3-0.19-0.54-0.08-0.86
		c0.21-0.65,0.37-1.32,0.52-1.99c0.08-0.32,0.22-0.55,0.53-0.71c0.43-0.22,0.84-0.5,1.25-0.76c0.22-0.14,0.37-0.18,0.52,0.12
		c0.2,0.39,0.46,0.76,0.7,1.13c0.11,0.17,0.09,0.28-0.1,0.37c-0.02,0.01-0.04,0.02-0.06,0.03c-1.28,0.69-0.9,0.36-1.32,1.72
		c-0.09,0.28-0.05,0.51,0.1,0.75c0.34,0.54,0.67,1.09,1.02,1.64c0.26,0.41,1.09,0.65,1.52,0.42c0.33-0.18,0.64-0.39,0.95-0.6
		c0.15-0.1,0.27-0.15,0.39,0.03c0.25,0.39,0.5,0.79,0.75,1.18C61.99,35.84,62,35.88,62.01,35.92z" />
		<path class="wkp_st3" d="M120.69,20.19c0.39,1.97,0.78,3.91,1.15,5.86c0.26,1.33,0.48,2.66,0.74,3.99c0.06,0.29,0.06,0.55-0.03,0.84
		c-0.3,1-0.57,2-0.85,3.01c-0.03,0.12-0.05,0.26-0.21,0.35c-0.65-3.33-1.29-6.63-1.93-9.93c-0.05-0.24-0.08-0.47,0-0.72
		c0.3-1,0.59-2,0.89-3C120.49,20.45,120.5,20.27,120.69,20.19z" />
		<path class="wkp_st3" d="M139.97,172.01c-1.88-1.37-3.77-2.74-5.65-4.1c-0.72-0.52-1.43-1.05-2.15-1.57c-0.32-0.22-0.55-0.49-0.72-0.85
		c-0.48-1-0.99-1.98-1.42-3.04c0.48,0.34,0.97,0.68,1.45,1.03c2.09,1.53,4.17,3.08,6.29,4.58c0.63,0.45,1.01,1.03,1.34,1.69
		c0.35,0.69,0.69,1.39,1.03,2.08C140.08,171.9,140.03,171.96,139.97,172.01z" />
		<path class="wkp_st3"
			d="M76.55,22.32c-3.24,1.23-6.47,2.37-9.68,3.65c-0.29-0.46-0.43-0.97-0.6-1.47c-0.07-0.19-0.01-0.31,0.22-0.39
		c2.7-1,5.39-2.01,8.08-3.01c0.35-0.13,0.7-0.27,1.05-0.41c0.2-0.08,0.32-0.03,0.4,0.19C76.18,21.36,76.36,21.82,76.55,22.32z" />
		<path class="wkp_st4" d="M102.85,168.87c0,0.46-0.01,0.95,0,1.43c0.01,0.27-0.13,0.34-0.37,0.33c-0.44-0.01-0.89,0.01-1.33-0.01
		c-1.86-0.09-3.72-0.14-5.59-0.14c-0.93,0-1.86-0.04-2.8-0.05c-0.24,0-0.38-0.07-0.36-0.34c0.03-0.46-0.18-1.03,0.07-1.36
		c0.25-0.32,0.83-0.1,1.27-0.09c2.97,0.04,5.95,0.11,8.92,0.17C102.71,168.8,102.75,168.83,102.85,168.87z" />
		<path class="wkp_st4" d="M67.92,177.93c0.16-0.44,0.32-0.87,0.48-1.3c0.16-0.43,0.19-0.46,0.62-0.31c1.09,0.37,2.17,0.75,3.26,1.14
		c1.48,0.53,2.95,1.08,4.42,1.62c0.44,0.16,0.43,0.18,0.28,0.6c-0.11,0.31-0.23,0.62-0.33,0.94c-0.14,0.43-0.14,0.44-0.55,0.29
		c-1.23-0.44-2.46-0.87-3.68-1.33c-1.43-0.53-2.86-1.07-4.31-1.54C68.05,178.03,68,177.98,67.92,177.93z" />
		<path class="wkp_st3" d="M146.29,50.36c0.44-0.48,0.86-0.93,1.29-1.4c2.1,2.18,4.18,4.34,6.29,6.53c-0.45,0.43-0.89,0.85-1.37,1.31
		C150.42,54.63,148.33,52.47,146.29,50.36z" />
		<path class="wkp_st3" d="M34.05,52.72c0.96,0.39,1.92,0.76,2.86,1.17c0.19,0.08,0.36,0.26,0.5,0.43c2.02,2.47,4.04,4.95,6.02,7.49
		c-0.61-0.28-1.2-0.58-1.82-0.82c-1-0.38-1.77-1.01-2.45-1.85c-1.67-2.07-3.4-4.1-5.1-6.15c-0.04-0.05-0.06-0.11-0.09-0.17
		C34,52.8,34.03,52.76,34.05,52.72z" />
		<path class="wkp_st3" d="M153.98,58.6c0.62-0.3,1.09-0.67,1.62-1.03c0.45,0.66,0.89,1.31,1.33,1.95c1.19,1.73,2.38,3.47,3.59,5.19
		c0.17,0.25,0.23,0.38-0.09,0.56c-0.42,0.24-0.8,0.55-1.25,0.87C157.45,63.64,155.74,61.15,153.98,58.6z" />
		<path class="wkp_st3" d="M98.89,17.02c-2.02,3.13-4.09,6.05-6.19,8.99c-0.05-0.54-0.06-1.08-0.15-1.61c-0.13-0.76,0.1-1.35,0.55-1.96
		c1.13-1.54,2.2-3.12,3.26-4.7c0.29-0.43,0.61-0.66,1.12-0.66C97.9,17.09,98.32,17.05,98.89,17.02z" />
		<path class="wkp_st3" d="M100.14,32.25c-0.56,0.06-1.07,0.1-1.57,0.16c-0.26,0.03-0.4-0.08-0.52-0.3c-1.19-2.13-2.38-4.26-3.59-6.38
		c-0.11-0.2-0.15-0.34,0-0.53c0.32-0.42,0.61-0.87,0.96-1.39C97,26.63,98.55,29.4,100.14,32.25z" />
		<path class="wkp_st3" d="M59.16,39.91c0.53-0.24,0.97-0.5,1.39-0.79c0.18-0.13,0.3-0.13,0.42,0.09c0.22,0.41,0.48,0.8,0.71,1.2
		c0.14,0.25,0.32,0.42,0.63,0.41c0.11,0,0.23,0.01,0.32,0.06c0.64,0.37,1.19,0.16,1.69-0.27c0.24-0.2,0.38-0.13,0.52,0.11
		c0.25,0.44,0.52,0.87,0.81,1.35c-0.56,0.33-1.13,0.66-1.69,0.99c-0.16,0.1-0.32,0.09-0.5,0.04c-0.83-0.22-1.66-0.48-2.51-0.62
		c-0.19-0.03-0.32-0.13-0.42-0.3C60.09,41.44,59.64,40.7,59.16,39.91z" />
		<path class="wkp_st3" d="M105.46,32.08c0.03-0.4-0.07-0.89,0.19-1.15c0.25-0.26,0.72-0.03,1.08,0c1.61,0.14,3.22,0.32,4.83,0.46
		c0.33,0.03,0.48,0.14,0.43,0.48c-0.04,0.28-0.06,0.57-0.09,0.86c-0.07,0.61-0.07,0.62-0.65,0.56c-1.83-0.17-3.66-0.35-5.5-0.51
		c-0.27-0.02-0.35-0.12-0.32-0.37C105.45,32.3,105.45,32.19,105.46,32.08z" />
		<path class="wkp_st3" d="M113.05,19.96c-0.61,0.06-1.16-0.07-1.7-0.12c-1.41-0.13-2.82-0.28-4.23-0.4c-0.32-0.03-0.43-0.14-0.39-0.45
		c0.04-0.37,0.07-0.75,0.08-1.13c0.01-0.3,0.13-0.36,0.42-0.34c1.85,0.14,3.7,0.34,5.55,0.53c0.34,0.03,0.46,0.15,0.43,0.49
		C113.16,19,113.15,19.47,113.05,19.96z" />
		<path class="wkp_st3" d="M58.61,44.38c0.38,0.45,0.77,0.93,1.17,1.41c-1.57,1.34-3.14,2.63-4.63,4.03c-0.14,0.13-0.25,0.16-0.39,0.01
		c-0.32-0.37-0.64-0.74-0.96-1.11c-0.12-0.14-0.13-0.25,0.04-0.38c1.53-1.21,2.98-2.52,4.45-3.8
		C58.37,44.46,58.45,44.37,58.61,44.38z" />
		<path class="wkp_st3" d="M46.19,39.81c-0.45-0.5-0.86-0.96-1.29-1.44c1.35-1.17,2.69-2.32,4.03-3.47c0.22-0.19,0.43-0.38,0.64-0.58
		c0.12-0.11,0.23-0.11,0.34,0.02c0.32,0.37,0.63,0.74,0.95,1.11c0.16,0.19,0.06,0.28-0.1,0.41c-1.41,1.18-2.81,2.37-4.21,3.56
		C46.43,39.53,46.33,39.66,46.19,39.81z" />
		<path class="wkp_st3" d="M58.56,28.43c0.56-0.34,1.06-0.66,1.57-0.97c0.17-0.1,0.34-0.15,0.56-0.08c0.76,0.23,1.53,0.42,2.3,0.61
		c0.24,0.06,0.38,0.16,0.5,0.38c0.25,0.46,0.53,0.92,0.81,1.37c0.14,0.22,0.11,0.33-0.13,0.45c-0.43,0.22-0.87,0.44-1.27,0.76
		c-0.29-0.19-0.38-0.5-0.52-0.76c-0.15-0.27-0.34-0.45-0.66-0.49c-0.17-0.02-0.36-0.05-0.51-0.12c-0.47-0.21-0.84-0.06-1.22,0.23
		c-0.38,0.28-0.39,0.26-0.65-0.14C59.09,29.26,58.84,28.87,58.56,28.43z" />
		<path class="wkp_st3" d="M110.54,25.05c-0.06,0.89-0.07,0.89-0.96,0.82c-1.04-0.09-2.08-0.2-3.12-0.28c-0.3-0.02-0.39-0.14-0.35-0.41
		c0.01-0.04,0-0.09,0.01-0.13c0.04-0.35-0.02-0.78,0.16-1.04c0.22-0.32,0.65-0.05,0.99-0.04c0.95,0.05,1.9,0.16,2.85,0.25
		c0.48,0.04,0.48,0.05,0.44,0.56C110.55,24.87,110.55,24.96,110.54,25.05z" />
		<path class="wkp_st3" d="M50.21,44.51c-0.33-0.37-0.62-0.7-0.91-1.03c-0.17-0.18-0.18-0.31,0.04-0.49c0.52-0.41,1.03-0.84,1.52-1.28
		c0.49-0.44,1.04-0.81,1.47-1.35c0.44,0.35,0.72,0.78,1.06,1.15c0.19,0.21-0.06,0.31-0.17,0.41c-0.69,0.59-1.38,1.18-2.07,1.77
		C50.84,43.95,50.54,44.21,50.21,44.51z" />
		<path class="wkp_st5" d="M139.97,172.01c0.06-0.06,0.11-0.11,0.17-0.17c0.04,0.05,0.1,0.08,0.13,0.14c0.04,0.07,0.12,0.15,0.05,0.22
		c-0.08,0.07-0.16,0.01-0.22-0.05C140.04,172.12,140.01,172.06,139.97,172.01z" />
		<path class="wkp_st5" d="M48.36,54.93c0.06-0.06,0.12-0.12,0.18-0.18c0.11,0.03,0.15,0.13,0.21,0.21c-0.04,0.04-0.08,0.07-0.13,0.11
		C48.52,55.06,48.42,55.04,48.36,54.93z" />
		<path class="wkp_st5" d="M48.76,54.97c0.06,0.05,0.17,0.12,0.12,0.18c-0.09,0.1-0.18,0.02-0.24-0.07C48.67,55.04,48.71,55,48.76,54.97z
		" />
		<path class="wkp_st6" d="M112.13,157.84c-0.84,0.3-1.73,0.38-2.6,0.52c-3.34,0.53-6.7,0.77-10.08,0.71c-5.44-0.1-10.77-0.93-15.99-2.49
		c-4.65-1.39-9.07-3.31-13.23-5.8c-5.65-3.38-10.6-7.59-14.85-12.63c-3.82-4.53-6.91-9.5-9.22-14.96c-1.73-4.08-2.97-8.3-3.74-12.65
		c-0.79-4.46-1.03-8.95-0.79-13.47c0.36-6.51,1.8-12.8,4.25-18.85c2.43-6.02,5.8-11.47,10.01-16.4c0.16-0.18,0.34-0.34,0.52-0.52
		c0.83-0.01,1.67,0.13,2.49-0.14c1.49,0.09,2.97-0.05,4.53-0.17c-0.41-0.48-0.74-0.92-1.13-1.3c-0.34-0.33-0.58-0.79-1.09-0.92
		c-0.03-0.18-0.31-0.26-0.17-0.53c0.38,0.01,0.74-0.09,1.09-0.27c0.24,0.16,0.5,0.14,0.77,0.14c1.93,0,3.85,0,5.78,0
		c0.13,0,0.27,0,0.4-0.01c0.1,0,0.18-0.05,0.19-0.14c0.01-0.05-0.04-0.13-0.08-0.17c-0.16-0.12-0.32-0.24-0.49-0.33
		c-0.66-0.36-1.34-0.69-1.98-1.07c-0.54-0.33-1.18-0.5-1.65-0.95c0.09-0.16,0.22-0.25,0.4-0.26c0.48,0.17,0.97,0.27,1.49,0.27
		c1.13,0,2.27,0,3.4,0c0.38,0,0.77-0.06,1.13,0.02c1.14,0.26,2.29,0.1,3.44,0.21c1.78,0.17,3.59-0.07,5.38,0.15
		c0.98,0.03,1.96-0.05,3.07,0.16c-0.49-0.64-0.83-1.21-1.49-1.49c-0.03-0.08-0.03-0.18-0.08-0.25c-0.23-0.3-0.47-0.58-0.71-0.87
		c-0.05-0.07-0.12-0.14-0.07-0.23c0.05-0.09,0.14-0.1,0.23-0.09c0.11,0.02,0.21,0.06,0.32,0.08c0.84,0.18,1.67,0.41,2.49,0.68
		c0.18,0.02,0.36,0.01,0.53,0.05c1.57,0.37,3.13,0.76,4.7,1.13c1.48,0.35,2.95,0.74,4.45,1c0.03,0.02,0.06,0.03,0.09,0.05
		c-0.02-0.03-0.04-0.06-0.05-0.08c-0.03-0.04-0.04-0.08-0.08-0.11c-1.87-1.38-3.8-2.66-5.72-3.96c-0.23-0.15-0.47-0.24-0.75-0.2
		c-0.01-0.11-0.03-0.22-0.13-0.3c-0.39-0.29-0.77-0.6-1.17-0.87c-0.93-0.64-1.88-1.26-2.82-1.88c-0.19-0.13-0.39-0.25-0.47-0.52
		c0.36-0.03,0.59,0.18,0.86,0.25c0.98,0.26,1.95,0.57,2.93,0.86c1.25,0.37,2.5,0.75,3.75,1.12c2.58,0.8,5.16,1.6,7.75,2.4
		c2.97,0.91,5.93,1.83,8.9,2.73c0.78,0.23,1.55,0.55,2.38,0.59c0.2,0.09,0.39,0.21,0.6,0.28c1.34,0.44,2.69,0.9,4.04,1.3
		c2.22,0.66,4.46,1.26,6.65,2.04c0.2,0.07,0.46,0.26,0.62,0.07c0.2-0.24-0.1-0.43-0.22-0.62c-0.95-1.55-2.23-2.85-3.28-4.32
		c-0.21-0.29-0.46-0.56-0.61-0.88c0.1-0.07,0.16-0.07,0.22-0.02c0.94,0.66,1.87,1.34,2.82,1.97c2.09,1.4,4.24,2.71,6.14,4.38
		c0.32,0.28,0.57,0.7,1.05,0.77c-0.01,0.14,0.06,0.24,0.17,0.34c1.64,1.42,3.2,2.92,4.67,4.53c1.75,1.92,3.34,3.95,4.79,6.1
		c0.22,0.32,0.39,0.7,0.76,0.9c-0.01,0.18,0.06,0.33,0.16,0.49c0.49,0.84,0.98,1.68,1.43,2.54c1.27,2.41,2.35,4.9,3.21,7.5
		c0.15,0.45,0.18,0.96,0.54,1.33c-0.02,0.2,0.03,0.39,0.07,0.59c0.34,1.4,0.71,2.79,0.98,4.2c0.32,1.65,0.54,3.31,0.71,4.98
		c0.18,1.81,0.25,3.62,0.37,5.42c-0.01,0.95,0.06,1.91-0.04,2.85c-0.13,1.18-0.2,2.36-0.35,3.54c-0.15,1.17-0.22,2.36-0.42,3.53
		c-0.24,1.36-0.43,2.73-0.76,4.08c-0.14,0.57-0.31,1.15-0.3,1.75c-0.11,0.19-0.21,0.39-0.27,0.6c-0.31,1.17-0.62,2.35-1.05,3.49
		c-0.07,0.18-0.17,0.37-0.12,0.58c0.17,0.8,0.23,1.62,0.3,2.43c0.12,1.39,0.14,2.78-0.42,4.11c-0.3,0.71-0.61,1.42-0.87,2.15
		c-0.59,1.64-1.12,3.3-1.45,5.02c-0.28,0.74-0.41,1.53-0.63,2.29c-0.38,1.34-0.87,2.64-1.52,3.89c-0.79,1.52-1.91,2.78-3.21,3.85
		c-1.75,1.45-3.78,2.44-5.93,3.17c-1.61,0.55-3.28,0.88-4.92,1.32c-0.08,0.02-0.18,0.03-0.23-0.1c0.21-0.49,0.64-0.82,1.01-1.19
		c0.24-0.24,0.43-0.49,0.49-0.84c0.16-0.93,0.02-1.83-0.23-2.73c-0.12-0.42-0.22-0.86-0.32-1.28c-0.26-0.87-0.54-1.73-0.79-2.6
		c-0.76-2.64-1.5-5.28-2.27-7.92c-0.34-1.17-0.62-2.35-1.05-3.49c-0.19-1.11-0.51-2.19-0.87-3.25c-0.18-0.54-0.72-0.73-1.28-0.57
		c-0.3,0.08-0.59,0.19-0.88,0.29c-0.39,0.14-0.58,0.4-0.58,0.85c0,0.88-0.17,1.75-0.22,2.63c-0.04,0.7-0.23,1.4-0.14,2.11
		c-0.05,0.17-0.13,0.34-0.15,0.51c-0.13,1.58-0.22,3.17-0.41,4.75c-0.11,0.94-0.16,1.89-0.31,2.83c-0.31,1.94-0.48,3.9-0.76,5.84
		c-0.17,1.16-0.34,2.31-0.51,3.47c-0.09,0.58-0.22,1.16-0.28,1.75c-0.16,1.51-0.52,2.97-0.76,4.47c-0.1,0.61-0.31,1.19-0.32,1.81
		c-0.2,0.42-0.22,0.88-0.37,1.31C111.79,157.56,111.94,157.71,112.13,157.84z M118.65,111.33c0.11-0.08,0.03-0.14-0.02-0.2
		c-0.1-0.22-0.18-0.45-0.29-0.67c-1.26-2.62-2.52-5.23-3.8-7.84c-0.15-0.31-0.17-0.53,0.15-0.72c0.13-0.08,0.23-0.2,0.35-0.31
		c1.06-0.91,2.12-1.81,3.18-2.72c-3.05-3.02-3.42-8.17-2.79-11.01c0.05,0.18,0.09,0.3,0.12,0.43c0.29,1.26,0.76,2.46,1.36,3.6
		c1.92,3.65,4.74,6.11,8.93,6.73c0.35,0.05,0.37,0.2,0.36,0.48c-0.08,2.61,0.19,5.19,0.83,7.72c0.68,2.67,1.75,5.16,3.48,7.34
		c2.58,3.25,5.97,5.08,10.01,5.83c0.29,0.05,0.39-0.07,0.47-0.32c0.14-0.47,0.3-0.93,0.45-1.39c1.03-3.41,1.75-6.88,2.19-10.41
		c0.26-2.12,0.42-4.24,0.46-6.37c0.07-3.69-0.21-7.36-0.89-11c-0.77-4.12-2.01-8.09-3.8-11.88c-2.61-5.55-6.19-10.41-10.63-14.62
		c-2.15-2.03-4.39-3.95-6.86-5.59c-0.1-0.14-0.22-0.24-0.41-0.25c0,0.2,0.11,0.31,0.25,0.41c0.85,1.08,1.7,2.15,2.55,3.23
		c-2.48-0.65-4.88-1.38-7.28-2.12c-2.38-0.73-4.77-1.48-7.15-2.21c-2.4-0.74-4.81-1.48-7.22-2.22c-2.39-0.73-4.77-1.46-7.16-2.17
		c-2.38-0.71-4.75-1.48-7.21-2.17c0.09,0.23,0.19,0.27,0.28,0.34c2.19,1.47,4.39,2.94,6.58,4.4c1.29,0.86,2.58,1.72,3.88,2.58
		l0.02,0c-0.12,0.29-0.31,0.08-0.44,0.04c-1.26-0.34-2.53-0.64-3.8-0.93c-2.05-0.48-4.09-0.96-6.14-1.45
		c-1.27-0.3-2.53-0.64-3.81-0.91c-0.37-0.08-0.73-0.29-1.14-0.17c0.05-0.04,0.04-0.06-0.02-0.07c0,0-0.02,0.03-0.02,0.04
		c-0.01,0.09-0.01-0.04,0.05,0.02c-0.05,0.14,0.07,0.19,0.14,0.27c0.49,0.51,0.99,1.02,1.48,1.53c0.09,0.1,0.27,0.18,0.18,0.36
		c-5.5-0.17-11-0.34-16.54-0.51c0.18,0.29,0.45,0.4,0.7,0.53c1.24,0.65,2.47,1.3,3.71,1.94c0.12,0.06,0.3,0.06,0.3,0.28
		c-3.49-0.07-6.96-0.01-10.59-0.01c0.97,1.03,2.02,1.79,2.94,2.84c-2.12-0.05-4.1,0.12-6.07,0.13c-0.11,0-0.22,0.03-0.33,0.04
		c-0.01,0-0.03,0.03-0.04,0.05c-0.01,0.02-0.02,0.04-0.04,0.08c1.71,0.47,3.43,0.94,5.27,1.45c-0.73,0.53-1.33,0.98-1.93,1.42
		c-1.09,0.8-2.18,1.6-3.27,2.4c-0.17,0.12-0.35,0.21-0.25,0.52c0.71,2.22,1.38,4.45,2.1,6.66c0.12,0.37,0.06,0.54-0.22,0.78
		c-2.41,2.07-4.81,4.15-7.21,6.22c-0.62,0.53-1.24,1.06-1.91,1.62c2.71,1.08,5.35,2.13,7.99,3.18c-0.03,0.25-0.24,0.32-0.39,0.44
		c-1.23,0.92-2.46,1.83-3.68,2.75c-0.18,0.13-0.42,0.23-0.48,0.55c0.54,0,1.04,0,1.65,0c-0.72,1.06-1.49,1.98-2.24,3.09
		c1.73-0.23,3.3-0.44,4.96-0.67c-0.12,0.32-0.31,0.43-0.47,0.56c-0.67,0.55-1.34,1.1-2.01,1.65c-0.11,0.09-0.28,0.16-0.17,0.41
		c1.76,0,3.54,0,5.44,0c-1.46,1.67-2.85,3.24-4.31,4.91c4.51-0.67,8.9-1.33,13.31-1.99c-0.06,0.28-0.28,0.41-0.46,0.57
		c-0.84,0.76-1.69,1.5-2.53,2.27c-1.15,1.04-2.34,2.04-3.45,3.13c-0.14,0.02-0.29,0.07-0.25,0.23c0.03,0.12,0.18,0.07,0.28,0.03
		c0.96-0.14,1.92-0.28,2.98-0.44c-0.86,1.59-1.78,3.02-2.55,4.54c-0.04,0.06-0.09,0.13-0.13,0.19c-0.09,0.06-0.19,0.16-0.12,0.25
		c0.08,0.09,0.19,0.01,0.26-0.07c0.04-0.05,0.08-0.1,0.11-0.15l0.03-0.04c1.48-1.02,2.95-2.04,4.43-3.05
		c0.98-0.67,1.93-1.4,2.96-2.01c0.02,0.02,0.05,0.05,0.07,0.07c-0.57,0.85-1.13,1.7-1.7,2.55c-0.59,0.89-1.19,1.78-1.78,2.66
		c2.38-1.11,4.66-2.32,6.98-3.46c0.03,0.04,0.06,0.07,0.09,0.11c-1.63,2.95-3.26,5.91-4.89,8.86c1.63-0.82,3.15-1.71,4.68-2.59
		c1.54-0.89,3.08-1.78,4.7-2.72c-0.24,2.26-0.64,4.38-0.88,6.61c1.6-0.53,3.09-1,4.57-1.54c0.32-0.12,0.46-0.06,0.68,0.15
		c0.86,0.84,1.73,1.67,2.59,2.5c1.02,0.98,2.05,1.97,3.1,2.98c1.97-2.23,3.92-4.44,5.92-6.71c0.67,2.14,1.23,4.24,1.92,6.32
		c0.31-0.18,0.54-0.32,0.77-0.44c1.66-0.89,3.32-1.78,4.97-2.69c0.24-0.13,0.35-0.06,0.51,0.08c2.99,2.52,5.98,5.04,8.98,7.55
		c0.21,0.18,0.37,0.43,0.72,0.54c0.32-2.27,0.24-4.46-0.66-6.56c-0.78-1.81-2.03-3.21-3.75-4.19c-0.22-0.13-0.37-0.27-0.4-0.56
		c-0.07-0.5-0.18-1-0.29-1.5c-0.68-3.12-1.38-6.23-2.05-9.36c-0.1-0.48-0.3-0.96-0.29-1.59c0.32,0.33,0.55,0.59,0.8,0.83
		c3.18,3.13,6.37,6.26,9.56,9.39c0.08,0.08,0.17,0.13,0.26,0.2c0.02,0.08,0.05,0.16,0.16,0.1c-0.01,0.05,0.01,0.07,0.05,0.07
		c0.01,0,0.02-0.04,0.01-0.05C118.71,111.28,118.68,111.28,118.65,111.33z M87.47,153.61c0.02-0.03,0.03-0.05,0.05-0.08
		c-0.02,0.02-0.05,0.03-0.07,0.05c-0.02,0.02-0.03,0.05-0.05,0.07C87.42,153.64,87.44,153.62,87.47,153.61z M83.33,139.34
		c0.06-0.02,0.12-0.04,0.18-0.06c-0.01-0.02-0.02-0.05-0.04-0.05c-0.08-0.01-0.12,0.03-0.15,0.1c-0.02,0.02-0.03,0.04-0.05,0.07
		C83.29,139.37,83.31,139.35,83.33,139.34z M100.53,154.26c0.19-0.08,0.34-0.23,0.45-0.39c0.48-0.73,1.16-1.28,1.72-1.93
		c1.2-1.39,2.49-2.7,3.75-4.05c0.24-0.26,0.48-0.52,0.7-0.8c0.39-0.47,0.82-0.92,1.35-1.33c0.26,0.59,0.2,1.18,0.29,1.73
		c0.14,0.85,0.21,1.71,0.34,2.56c0.21,1.44,0.41,2.88,0.61,4.32c0.09,0.65,0.14,1.31,0.45,1.92c0.15-0.1,0.17-0.26,0.22-0.41
		c0.6-1.86,0.94-3.77,1.31-5.68c0.27-1.36,0.5-2.73,0.73-4.1c0.16-0.98,0.32-1.96,0.46-2.94c0.19-1.33,0.46-2.65,0.6-3.99
		c0.09-0.87,0.23-1.75,0.35-2.62c0.12-0.83,0.2-1.66,0.32-2.49c0.15-1.14,0.35-2.27,0.48-3.41c0.12-1.05,0.23-2.11,0.32-3.16
		c0.03-0.35-0.06-0.54-0.29-0.73c-1.24-1.03-2.5-2.04-3.73-3.09c-1.42-1.2-2.79-2.46-4.22-3.64c-0.4-0.34-0.76-0.73-1.22-1.06
		c-1.28,3.24-2.54,6.43-3.79,9.62c-0.26,0.67-0.61,1.19-1.28,1.52c-0.8,0.39-1.55,0.86-2.33,1.28c-2.09,1.12-4.18,2.24-6.28,3.34
		c-2.1,1.11-4.21,2.19-6.31,3.3c-0.6,0.31-1.16,0.69-1.74,1.04c4.23-0.42,8.35-1.35,12.54-2c0.02,0.3-0.12,0.48-0.22,0.67
		c-0.62,1.15-1.22,2.32-1.87,3.45c-0.47,0.83-0.93,1.66-1.39,2.5c-0.78,1.44-1.6,2.86-2.4,4.29c-0.59,1.04-1.19,2.07-1.75,3.13
		c-0.33,0.62-0.75,1.21-0.87,1.93c-0.1,0.03-0.21,0.04-0.19,0.18c0,0.02,0.03,0.04,0.04,0.04c0.14,0.01,0.15-0.1,0.18-0.2
		c0.07-0.05,0.14-0.1,0.21-0.17c1.36-1.28,2.51-2.74,3.75-4.12c1.15-1.28,2.29-2.58,3.44-3.87c0.47-0.53,0.96-1.04,1.42-1.58
		c0.8-0.92,1.58-1.85,2.38-2.76c0.53-0.6,1.13-1.14,1.6-1.77c0.48-0.64,1.08-1.17,1.59-1.79c0.6-0.74,1.16-1.51,1.86-2.16
		c0.12-0.11,0.21-0.3,0.4-0.28c0.09,0.05,0.08,0.12,0.07,0.18c-0.4,1.97-0.8,3.93-1.21,5.9c-0.36,1.71-0.77,3.4-1.11,5.11
		c-0.38,1.91-0.82,3.8-1.22,5.7C100.87,152.4,100.55,153.3,100.53,154.26l-0.06,0.03l0.03,0.03L100.53,154.26z M115.85,114.34
		c0.23-0.06,0.31,0.03,0.38,0.11c0.47,0.56,0.96,1.11,1.41,1.69c2.51,3.24,4.35,6.85,5.68,10.71c0.84,2.43,1.42,4.93,1.78,7.49
		c0.26,1.82,0.44,3.65,0.48,5.49c0.04,1.57,0.08,3.15-0.09,4.72c-0.11,1.01-0.08,2.04-0.66,2.91c0.08,0.09,0.14,0.09,0.21,0.07
		c2.26-0.6,4.47-1.33,6.47-2.56c1.72-1.06,3.21-2.36,4.38-4.02c1.17-1.66,1.89-3.51,2.36-5.47c0.71-3,1.51-5.97,2.78-8.8
		c0.23-0.51,0.3-1.05,0.33-1.62c0.04-0.71,0-1.41-0.02-2.12c-0.01-0.38-0.01-0.76-0.02-1.13c-0.02-0.53-0.07-0.56-0.52-0.35
		c-0.1,0.05-0.2,0.1-0.3,0.15c-0.63,0.29-1.26,0.5-1.97,0.53c-1.04,0.04-1.96-0.28-2.85-0.76c-0.6-0.32-1.2-0.68-1.87-0.87
		c-1.5-0.44-3.02-0.71-4.58-0.66c-0.46,0.01-0.81-0.14-1.12-0.47c-0.86-0.93-1.74-1.84-2.61-2.76c-0.21-0.23-0.44-0.44-0.64-0.68
		c-0.62-0.76-1.34-1.42-2.03-2.11c-0.34-0.34-0.44-0.31-0.86-0.02c-0.33,0.23-0.63,0.49-0.91,0.78c-0.24,0.25-0.48,0.26-0.77,0.05
		c-0.27-0.2-0.52-0.42-0.75-0.65c-2.22-2.21-4.44-4.43-6.65-6.64c-0.28-0.28-0.56-0.54-0.96-0.68c-0.11,0.21-0.08,0.38-0.08,0.55
		c0,0.82,0.08,1.64,0.12,2.46c0.06,1.02,0.2,2.03,0.18,3.05c-0.01,0.55,0.2,1,0.72,1.32c0.45,0.28,0.79,0.71,1.12,1.13
		c1.14,1.45,1.92,3.08,2.55,4.8c0.41,1.12,0.78,2.26,1.11,3.41c0.08,0.27,0.11,0.61,0.52,0.57c0.41-0.04,0.65,0.21,0.9,0.47
		c0.35,0.37,0.5,0.83,0.63,1.3c0.46,1.62,0.9,3.24,1.36,4.87c0.76,2.67,1.51,5.33,2.28,7.99c0.33,1.15,0.69,2.29,1.04,3.44
		c0.07,0.24,0.16,0.47,0.35,0.63c0.16,0.13,0.29,0.12,0.32-0.12c0.02-0.15,0.01-0.31,0.01-0.47c0.02-0.83-0.18-1.63-0.26-2.44
		c-0.19-1.97-0.55-3.9-0.96-5.83c-0.66-3.11-1.52-6.15-2.66-9.12c-1.04-2.72-2.28-5.35-3.8-7.83
		C116.88,116.05,116.38,115.22,115.85,114.34z M125.69,109.57c-0.14-0.55-0.27-1.06-0.39-1.57c-0.08-0.35-0.27-0.5-0.64-0.55
		c-0.66-0.1-1.28-0.35-1.83-0.74c-1.33-0.93-1.25-2.43,0.16-3.21c0.39-0.22,0.81-0.36,1.25-0.43c0.18-0.03,0.29-0.11,0.27-0.3
		c-0.05-0.55-0.1-1.11-0.16-1.66c-0.02-0.15-0.1-0.24-0.27-0.2c-1.25,0.27-2.43,0.67-3.42,1.53c-1.52,1.33-1.98,4.52,0.7,6.07
		C122.7,109.27,124.16,109.46,125.69,109.57z M87.18,154.04c0.02-0.03,0.06-0.08,0.05-0.1c-0.02-0.05-0.07-0.05-0.11-0.01
		c-0.01,0.01-0.03,0.04-0.03,0.06C87.1,154.04,87.13,154.06,87.18,154.04z" />
		<path class="wkp_st7" d="M139.33,134.13c0.33-1.72,0.86-3.38,1.45-5.02c0.26-0.73,0.57-1.44,0.87-2.15c0.55-1.33,0.54-2.72,0.42-4.11
		c-0.07-0.81-0.12-1.63-0.3-2.43c-0.05-0.21,0.05-0.4,0.12-0.58c0.42-1.14,0.73-2.32,1.05-3.49c0.06-0.22,0.16-0.41,0.27-0.6
		c0.35,0.01,0.63-0.19,0.92-0.34c2.96-1.57,5.91-3.13,8.86-4.71c1.11-0.6,2.2-1.23,3.31-1.84c0.39-0.21,0.6-0.51,0.62-0.95
		c0.06-1.04,0.22-2.06,0.3-3.1c0.13-1.52,0.22-3.04,0.25-4.57c0.02-1.2-0.1-2.39-0.17-3.58c-0.03-0.53-0.05-1.07-0.14-1.58
		c-0.09-0.47-0.04-0.96-0.16-1.4c-0.2-0.05-0.31,0.04-0.43,0.1c-1.15,0.62-2.3,1.24-3.45,1.86c-2.1,1.14-4.2,2.29-6.32,3.41
		c-0.58,0.31-1.11,0.73-1.74,0.94c-0.12-1.81-0.19-3.62-0.37-5.42c-0.17-1.67-0.39-3.34-0.71-4.98c-0.28-1.41-0.64-2.8-0.98-4.2
		c-0.05-0.2-0.09-0.39-0.07-0.59c0.25-0.02,0.46-0.17,0.67-0.28c0.78-0.42,1.54-0.87,2.33-1.28c2.36-1.23,4.7-2.5,7.02-3.79
		c0.45-0.25,0.46-0.29,0.24-0.78c-0.4-0.89-0.79-1.78-1.2-2.67c-1.14-2.43-2.46-4.77-3.93-7.01c-0.31-0.47-0.59-0.97-1-1.37
		c-0.22,0.15-0.39,0.29-0.59,0.39c-2.26,1.23-4.53,2.43-6.78,3.68c-0.71,0.39-1.49,0.68-2.1,1.25c-0.37-0.2-0.54-0.58-0.76-0.9
		c-1.45-2.15-3.04-4.19-4.79-6.1c-1.47-1.6-3.03-3.1-4.67-4.53c-0.11-0.1-0.18-0.19-0.17-0.34c0.21,0.02,0.39-0.07,0.56-0.17
		c2.11-1.23,4.29-2.31,6.43-3.48c0.62-0.34,1.25-0.67,1.87-1.01c0.37-0.21,0.4-0.33,0.09-0.57c-1.07-0.82-2.13-1.66-3.24-2.43
		c-2.71-1.89-5.57-3.54-8.55-4.98c-0.48-0.23-0.87-0.35-1.33,0.01c-0.27,0.21-0.63,0.33-0.94,0.5c-2.25,1.23-4.5,2.48-6.76,3.7
		c-1.66,0.9-3.34,1.74-4.99,2.66c-0.41,0.23-0.92,0.35-1.18,0.8c-0.83-0.04-1.6-0.36-2.38-0.59c-2.97-0.89-5.94-1.81-8.9-2.73
		c-2.58-0.8-5.17-1.6-7.75-2.4c0.17-0.18,0.37-0.31,0.59-0.42c1.5-0.82,2.99-1.66,4.5-2.44c2.5-1.3,4.96-2.67,7.44-4
		c0.09-0.05,0.22-0.08,0.17-0.23c-0.04-0.03-0.07-0.07-0.11-0.07c-0.18-0.01-0.35-0.02-0.53-0.02c-2.28,0-4.56-0.02-6.84,0.24
		c-1.07,0.12-2.17,0.16-3.23,0.34c-2.4,0.39-4.78,0.86-7.13,1.53c-2.95,0.84-5.82,1.88-8.6,3.16c-3.11,1.43-6.07,3.12-8.87,5.09
		c-0.72,0.51-1.47,0.98-2.09,1.63c-0.18,0.02-0.31,0.11-0.4,0.26c-0.51,0.41-1.05,0.8-1.53,1.24c-0.47,0.43-1.04,0.75-1.4,1.29
		c-0.35,0.18-0.71,0.28-1.09,0.27c-0.13,0.27,0.14,0.36,0.17,0.53c-0.84,0.72-1.64,1.49-2.3,2.39c-0.82,0.28-1.66,0.13-2.49,0.14
		c1.25-1.54,2.67-2.91,4.11-4.25c5.38-5,11.51-8.81,18.33-11.51c3.87-1.53,7.86-2.66,11.97-3.33c4.6-0.75,9.23-0.96,13.88-0.6
		c4.77,0.37,9.44,1.29,14,2.79c9.24,3.06,17.24,8.09,23.99,15.08c5.53,5.73,9.68,12.34,12.55,19.77c1.39,3.59,2.36,7.29,3.04,11.08
		c0.82,4.53,1.03,9.1,0.73,13.67c-0.59,9.14-3.18,17.7-7.78,25.63c-4.44,7.68-10.32,14.04-17.62,19.08
		c-5,3.45-10.41,6.06-16.23,7.81c-1.61,0.48-3.24,0.9-4.87,1.27c-0.13,0.03-0.26,0.07-0.39,0.03c-0.19-0.13-0.34-0.28-0.24-0.54
		c0.15-0.43,0.18-0.89,0.37-1.31c0.2-0.01,0.4-0.01,0.59-0.05c1.69-0.35,3.35-0.84,5-1.35c1.9-0.6,3.76-1.33,5.57-2.16
		c2.24-1.02,4.43-2.15,6.54-3.41c1.41-0.84,2.75-1.79,4.08-2.75c1.74-1.26,3.4-2.62,4.98-4.08c2.02-1.86,3.91-3.86,5.63-6.02
		c1.73-2.17,3.37-4.39,4.76-6.79c0.17-0.29,0.37-0.58,0.4-1c-0.17,0.07-0.28,0.1-0.37,0.16c-1.75,1.04-3.56,1.98-5.36,2.94
		c-1.31,0.7-2.6,1.44-3.91,2.14C139.88,133.78,139.69,134.09,139.33,134.13z" />
		<path class="wkp_st5" d="M18.94,99.43c0.87,0.17,1.72,0.38,2.55,0.68c0.69,0.25,1.4,0.48,2.24,0.6c-0.62,0.44-1.25,0.55-1.86,0.7
		c-0.07,0.02-0.17-0.05-0.24-0.09c-0.91-0.62-1.86-1.17-2.74-1.84L18.94,99.43z" />
		<path class="wkp_st5" d="M23.97,95.52c-0.31,1.66,0.29,3.31-0.13,4.99c-0.12-0.1-0.17-0.14-0.21-0.19c-1.11-1.57-0.98-0.98-0.41-2.79
		c0.17-0.55,0.35-1.09,0.48-1.65C23.73,95.76,23.72,95.62,23.97,95.52z" />
		<path class="wkp_st5" d="M24.26,101.05c0.45-0.02,0.86,0.17,1.28,0.28c0.3,0.08,0.49,0.3,0.6,0.58c0.34,0.88,0.67,1.77,0.82,2.71
		c-0.03,0.03-0.05,0.05-0.08,0.08c-0.81-0.94-1.49-1.97-2.22-2.97c-0.15-0.21-0.4-0.37-0.41-0.66L24.26,101.05z" />
		<path class="wkp_st5" d="M23.86,101.3c0,0.5,0,1.01,0,1.51c0,0.13-0.02,0.26-0.13,0.36c-0.76,0.67-1.6,1.22-2.48,1.74
		C21.96,103.6,22.84,102.43,23.86,101.3z" />
		<path class="wkp_st5" d="M24.25,100.65c0.18-0.52,0.52-0.79,0.74-1.14c0.1-0.17,0.29-0.19,0.47-0.19c0.33,0,0.67,0,1,0
		c0.77,0.01,1.55,0.02,2.33-0.09c-0.42,0.35-0.95,0.34-1.42,0.51c-0.5,0.18-1.01,0.32-1.52,0.47
		C25.34,100.34,24.86,100.59,24.25,100.65z" />
		<path class="wkp_st5" d="M24.25,101.06c-0.1-0.02-0.21-0.03-0.2-0.18c0-0.02,0.03-0.04,0.04-0.04c0.15-0.01,0.15,0.1,0.17,0.21
		C24.26,101.05,24.25,101.06,24.25,101.06z" />
		<path class="wkp_st5" d="M18.9,99.47c-0.05-0.03-0.11-0.05-0.16-0.08c0.01-0.02,0.03-0.04,0.04-0.04c0.07-0.01,0.12,0.03,0.16,0.08
		C18.94,99.43,18.9,99.47,18.9,99.47z" />
		<path class="wkp_st5" d="M27.21,105.03c0.07,0.06,0.13,0.13,0.04,0.22c-0.03-0.05-0.07-0.1-0.1-0.16
		C27.17,105.07,27.19,105.05,27.21,105.03z" />
		<path class="wkp_st5" d="M21.02,105.16c0.03-0.03,0.08-0.08,0.08-0.08c0.09,0.06,0.02,0.09-0.03,0.13
		C21.06,105.19,21.04,105.18,21.02,105.16z" />
		<path class="wkp_st5" d="M21.07,105.21c-0.03,0.02-0.06,0.03-0.09,0.05c0.01-0.03,0.03-0.06,0.04-0.1
		C21.04,105.18,21.06,105.19,21.07,105.21z" />
		<path class="wkp_st5" d="M27.15,105.09c-0.05-0.04-0.1-0.08-0.02-0.14c0.01,0,0.05,0.05,0.08,0.08
		C27.19,105.05,27.17,105.07,27.15,105.09z" />
		<path class="wkp_st5" d="M26.96,104.61c0.05,0.05,0.1,0.1,0.02,0.15c-0.01,0.01-0.06-0.05-0.1-0.07
		C26.91,104.67,26.94,104.64,26.96,104.61z" />
		<path class="wkp_st5" d="M177.6,101.06c0.45-0.02,0.87,0.16,1.29,0.28c0.25,0.07,0.45,0.24,0.53,0.47c0.35,1,0.67,2,1.02,3.04
		c-0.28,0-0.37-0.17-0.46-0.29c-0.7-0.94-1.38-1.89-2.07-2.84C177.76,101.51,177.6,101.32,177.6,101.06
		C177.6,101.05,177.6,101.06,177.6,101.06z" />
		<path class="wkp_st5" d="M174.38,105.04c0.45-0.92,1.1-1.71,1.7-2.52c0.36-0.49,0.66-1.04,1.12-1.46l0,0c0,0.51,0,1.01,0.01,1.52
		c0.01,0.25-0.04,0.49-0.25,0.65c-0.83,0.64-1.66,1.28-2.54,1.85L174.38,105.04z" />
		<path class="wkp_st5" d="M176.98,100.69c-0.61,0.45-1.2,0.54-1.76,0.71c-0.08,0.03-0.22-0.04-0.31-0.1c-0.86-0.57-1.72-1.14-2.65-1.76
		c0.21-0.12,0.34-0.09,0.48-0.05c0.89,0.27,1.78,0.53,2.66,0.8C175.88,100.44,176.33,100.66,176.98,100.69z" />
		<path class="wkp_st5" d="M177.19,95.61c0,1.6,0,3.19,0,4.8c-0.92-0.54-1.21-1.22-0.91-2.17c0.14-0.44,0.25-0.89,0.43-1.33
		c0.17-0.42,0.27-0.87,0.4-1.31C177.14,95.6,177.17,95.61,177.19,95.61z" />
		<path class="wkp_st5" d="M177.6,100.65c0.11-0.64,0.59-0.99,1.04-1.37c0.09-0.07,0.26-0.1,0.38-0.08c0.99,0.18,1.98,0.11,2.97-0.02
		c0.04-0.01,0.08,0.02,0.24,0.05c-0.52,0.32-1.05,0.32-1.52,0.49c-0.52,0.19-1.05,0.34-1.58,0.49
		C178.62,100.37,178.11,100.51,177.6,100.65C177.6,100.66,177.6,100.65,177.6,100.65z" />
		<path class="wkp_st5" d="M177.2,101.06c-0.03-0.29,0.09-0.44,0.4-0.4c0,0,0,0,0,0c-0.08,0.13-0.08,0.27,0,0.4c0,0,0,0,0,0
		C177.47,101.05,177.33,101.05,177.2,101.06C177.2,101.05,177.2,101.06,177.2,101.06z" />
		<path class="wkp_st5" d="M174.42,105.08c-0.03,0.02-0.06,0.03-0.09,0.05c0.02-0.03,0.03-0.06,0.05-0.09
		C174.38,105.04,174.42,105.08,174.42,105.08z" />
		<polygon class="wkp_st5" points="180.49,105.12 180.46,105.13 180.46,105.1 	" />
		<path class="wkp_st8" d="M83.71,54.79c0.4-0.12,0.77,0.09,1.14,0.17c1.28,0.27,2.54,0.6,3.81,0.91c2.04,0.49,4.09,0.97,6.14,1.45
		c1.27,0.3,2.54,0.59,3.8,0.93c0.13,0.04,0.32,0.25,0.43-0.04c-0.07,0-0.12,0.03-0.12,0.1c0,0.01,0.03,0.03,0.05,0.03
		c0.07-0.02,0.06-0.08,0.06-0.13c-1.29-0.86-2.59-1.72-3.88-2.58c-2.19-1.47-4.39-2.94-6.58-4.4c-0.09-0.06-0.2-0.11-0.28-0.34
		c2.46,0.7,4.83,1.46,7.21,2.17c2.39,0.72,4.78,1.44,7.16,2.17c2.41,0.74,4.81,1.48,7.22,2.22c2.38,0.74,4.76,1.48,7.15,2.21
		c2.4,0.74,4.8,1.47,7.28,2.12c-0.85-1.08-1.7-2.15-2.55-3.23c0.05-0.05,0.11-0.1,0.16-0.16c2.47,1.64,4.71,3.55,6.86,5.59
		c4.45,4.21,8.02,9.07,10.63,14.62c1.79,3.79,3.03,7.76,3.8,11.88c0.68,3.64,0.96,7.31,0.89,11c-0.04,2.13-0.2,4.25-0.46,6.37
		c-0.44,3.53-1.15,7-2.19,10.41c-0.14,0.47-0.31,0.93-0.45,1.39c-0.07,0.25-0.18,0.37-0.47,0.32c-4.04-0.74-7.43-2.58-10.01-5.83
		c-1.73-2.18-2.79-4.67-3.48-7.34c-0.65-2.53-0.92-5.11-0.83-7.72c0.01-0.28-0.01-0.43-0.36-0.48c-4.19-0.62-7.02-3.08-8.93-6.73
		c-0.6-1.14-1.06-2.34-1.36-3.6c-0.03-0.12-0.07-0.25-0.12-0.43c-0.63,2.85-0.26,8,2.79,11.01c-1.06,0.91-2.12,1.81-3.18,2.72
		c-0.12,0.1-0.22,0.23-0.35,0.31c-0.32,0.19-0.3,0.41-0.15,0.72c1.27,2.61,2.54,5.23,3.8,7.84c0.11,0.22,0.19,0.45,0.29,0.67
		c-0.04,0.03-0.09,0.06-0.13,0.09c-0.09-0.07-0.18-0.12-0.26-0.2c-3.19-3.13-6.37-6.26-9.56-9.39c-0.25-0.25-0.49-0.5-0.8-0.83
		c-0.02,0.63,0.18,1.11,0.29,1.59c0.67,3.12,1.36,6.24,2.05,9.36c0.11,0.5,0.22,1,0.29,1.5c0.04,0.28,0.18,0.43,0.4,0.56
		c1.72,0.98,2.97,2.38,3.75,4.19c0.9,2.1,0.98,4.29,0.66,6.56c-0.35-0.11-0.51-0.37-0.72-0.54c-3-2.51-5.99-5.03-8.98-7.55
		c-0.17-0.14-0.27-0.22-0.51-0.08c-1.65,0.91-3.32,1.79-4.97,2.69c-0.23,0.13-0.46,0.26-0.77,0.44c-0.69-2.08-1.25-4.18-1.92-6.32
		c-2.01,2.27-3.96,4.48-5.92,6.71c-1.05-1.01-2.08-2-3.1-2.98c-0.87-0.83-1.74-1.65-2.59-2.5c-0.21-0.21-0.36-0.26-0.68-0.15
		c-1.47,0.53-2.97,1.01-4.57,1.54c0.24-2.23,0.64-4.35,0.88-6.61c-1.62,0.94-3.16,1.83-4.7,2.72c-1.53,0.89-3.06,1.77-4.68,2.59
		c1.63-2.95,3.26-5.91,4.89-8.86c-0.03-0.04-0.06-0.07-0.09-0.11c-2.32,1.14-4.6,2.36-6.98,3.46c0.59-0.89,1.19-1.77,1.78-2.66
		c0.57-0.85,1.13-1.7,1.7-2.55c0.04-0.04,0.1-0.1,0.04-0.15c-0.07-0.05-0.1,0.01-0.11,0.08c-1.03,0.61-1.97,1.34-2.96,2.01
		c-1.48,1.01-2.96,2.04-4.43,3.05c-0.05-0.06-0.11-0.13-0.16-0.19c0.77-1.52,1.69-2.95,2.55-4.54c-1.06,0.16-2.02,0.3-2.98,0.44
		c-0.01-0.09-0.02-0.18-0.03-0.26c1.1-1.09,2.3-2.09,3.45-3.13c0.84-0.76,1.69-1.51,2.53-2.27c0.17-0.16,0.4-0.29,0.46-0.57
		c-4.41,0.66-8.8,1.31-13.31,1.99c1.47-1.67,2.85-3.25,4.31-4.91c-1.9,0-3.67,0-5.44,0c-0.11-0.24,0.06-0.32,0.17-0.41
		c0.67-0.55,1.34-1.1,2.01-1.65c0.16-0.13,0.36-0.24,0.47-0.56c-1.65,0.22-3.22,0.43-4.96,0.67c0.74-1.11,1.52-2.03,2.24-3.09
		c-0.61,0-1.11,0-1.65,0c0.06-0.32,0.31-0.41,0.48-0.55c1.22-0.92,2.45-1.83,3.68-2.75c0.15-0.11,0.36-0.18,0.39-0.44
		c-2.64-1.05-5.29-2.1-7.99-3.18c0.67-0.57,1.29-1.09,1.91-1.62c2.4-2.07,4.8-4.16,7.21-6.22c0.27-0.23,0.34-0.41,0.22-0.78
		c-0.72-2.21-1.39-4.44-2.1-6.66c-0.1-0.32,0.08-0.4,0.25-0.52c1.09-0.8,2.18-1.6,3.27-2.4c0.6-0.44,1.2-0.88,1.93-1.42
		c-1.84-0.51-3.55-0.98-5.27-1.45c0.02-0.04,0.03-0.06,0.04-0.08c0.01-0.02,0.02-0.05,0.04-0.05c0.11-0.02,0.22-0.04,0.33-0.04
		c1.98-0.01,3.95-0.18,6.07-0.13c-0.91-1.06-1.96-1.81-2.94-2.84c3.63,0,7.11-0.06,10.59,0.01c0-0.22-0.18-0.22-0.3-0.28
		c-1.24-0.65-2.47-1.3-3.71-1.94c-0.25-0.13-0.52-0.24-0.7-0.53c5.54,0.17,11.03,0.34,16.54,0.51c0.09-0.18-0.09-0.26-0.18-0.36
		c-0.49-0.52-0.99-1.02-1.48-1.53c-0.07-0.07-0.19-0.13-0.14-0.27L83.71,54.79z M75.76,73.94c-0.04-0.04-0.09-0.09-0.14-0.04
		c-0.05,0.05,0.01,0.1,0.05,0.13c0.02,0.07,0.06,0.12,0.13,0.14c0.06,0.19,0.16,0.33,0.38,0.35c0.04,0.08,0.09,0.13,0.18,0.15
		c0.01,0.07,0.06,0.12,0.13,0.13c0.02,0.07,0.06,0.12,0.13,0.13c0.05,0.05,0.09,0.18,0.18,0.07c0.08-0.09-0.04-0.14-0.09-0.2
		c-0.04-0.04-0.09-0.08-0.13-0.11c-0.05-0.04-0.09-0.08-0.14-0.12c-0.06-0.05-0.13-0.09-0.19-0.14c-0.02-0.22-0.2-0.29-0.36-0.37
		C75.86,74.03,75.81,73.99,75.76,73.94z M82.15,114.42c0.11,0,0.21-0.02,0.28-0.12c0.97-0.31,1.94-0.61,2.91-0.93
		c0.3-0.1,0.51-0.06,0.76,0.18c1.54,1.5,3.11,2.98,4.67,4.47c0.22,0.21,0.44,0.42,0.7,0.67c2.11-2.38,4.19-4.73,6.33-7.14
		c0.71,2.31,1.38,4.5,2.05,6.72c0.14-0.06,0.22-0.09,0.29-0.13c1.64-0.88,3.29-1.74,4.93-2.64c0.3-0.16,0.48-0.16,0.75,0.07
		c1.42,1.21,2.87,2.38,4.3,3.58c1.34,1.13,2.67,2.27,4.02,3.4c0.15,0.13,0.24,0.38,0.51,0.37c0.13-0.96,0-2.3-0.33-3.51
		c-0.6-2.22-1.95-3.86-3.94-4.98c-0.37-0.21-0.54-0.47-0.63-0.87c-0.93-4.36-1.88-8.72-2.81-13.08c-0.08-0.39-0.24-0.69-0.55-0.95
		c-5.33-4.43-10.65-8.86-15.97-13.31c-4.36-3.64-8.72-7.3-13.08-10.95c-0.12-0.1-0.24-0.26-0.59-0.23
		c4.27,4.33,8.51,8.51,12.71,12.74c4.2,4.24,8.39,8.49,12.58,12.72c-0.17,0.05-0.32-0.1-0.49-0.19c-5.44-2.95-10.88-5.91-16.33-8.86
		c-2.87-1.55-5.74-3.1-8.61-4.65c-0.3-0.13-0.53-0.43-0.89-0.41c0.02-0.07,0.03-0.12-0.07-0.09c0.03,0.03,0.06,0.05,0.08,0.08
		c0.22,0.24,0.47,0.43,0.76,0.57c0.48,0.36,0.96,0.72,1.43,1.08c5.44,4.11,10.88,8.21,16.32,12.32c2.06,1.55,4.12,3.09,6.18,4.64
		c0.09,0.07,0.27,0.09,0.17,0.35c-6.62-0.09-13.28-0.19-19.93-0.28c-0.01,0.04-0.01,0.09-0.02,0.13c4.36,0.67,8.71,1.45,13.05,2.24
		c-0.03,0.21-0.15,0.24-0.24,0.29c-1.63,0.94-3.27,1.88-4.9,2.83c-2.07,1.2-4.15,2.4-6.22,3.6c-0.08,0.05-0.17,0.1-0.25,0.15
		c-0.07,0.04-0.21,0.09-0.18,0.14C81.97,114.58,82.08,114.52,82.15,114.42z M75.4,73.66c-0.04-0.02-0.07-0.04-0.11-0.06
		c-0.01,0-0.03,0.03-0.04,0.05c0.04,0.02,0.07,0.04,0.11,0.06C75.37,73.71,75.39,73.68,75.4,73.66z" />
		<path class="wkp_st9" d="M115.85,114.34c0.53,0.88,1.03,1.71,1.54,2.54c1.52,2.49,2.76,5.11,3.8,7.83c1.14,2.97,2,6.01,2.66,9.12
		c0.41,1.93,0.77,3.86,0.96,5.83c0.08,0.81,0.28,1.62,0.26,2.44c0,0.16,0.01,0.31-0.01,0.47c-0.03,0.23-0.16,0.25-0.32,0.12
		c-0.19-0.16-0.28-0.39-0.35-0.63c-0.35-1.15-0.71-2.29-1.04-3.44c-0.77-2.66-1.52-5.33-2.28-7.99c-0.46-1.62-0.9-3.24-1.36-4.87
		c-0.13-0.47-0.29-0.93-0.63-1.3c-0.25-0.26-0.49-0.51-0.9-0.47c-0.41,0.04-0.44-0.31-0.52-0.57c-0.32-1.15-0.7-2.29-1.11-3.41
		c-0.63-1.72-1.41-3.35-2.55-4.8c-0.33-0.42-0.67-0.85-1.12-1.13c-0.52-0.32-0.73-0.77-0.72-1.32c0.02-1.02-0.12-2.04-0.18-3.05
		c-0.05-0.82-0.13-1.63-0.12-2.46c0-0.17-0.03-0.35,0.08-0.55c0.4,0.14,0.68,0.4,0.96,0.68c2.22,2.21,4.44,4.43,6.65,6.64
		c0.24,0.24,0.48,0.45,0.75,0.65c0.29,0.21,0.53,0.19,0.77-0.05c0.28-0.29,0.58-0.55,0.91-0.78c0.41-0.29,0.52-0.31,0.86,0.02
		c0.7,0.69,1.41,1.35,2.03,2.11c0.2,0.24,0.43,0.45,0.64,0.68c0.87,0.92,1.75,1.83,2.61,2.76c0.31,0.33,0.66,0.49,1.12,0.47
		c1.56-0.04,3.09,0.23,4.58,0.66c0.67,0.19,1.26,0.55,1.87,0.87c0.89,0.48,1.81,0.8,2.85,0.76c0.71-0.03,1.35-0.24,1.97-0.53
		c0.1-0.05,0.2-0.1,0.3-0.15c0.46-0.21,0.51-0.18,0.52,0.35c0.01,0.38,0.01,0.76,0.02,1.13c0.02,0.7,0.05,1.41,0.02,2.12
		c-0.03,0.57-0.1,1.11-0.33,1.62c-1.27,2.82-2.07,5.8-2.78,8.8c-0.46,1.96-1.19,3.81-2.36,5.47c-1.17,1.66-2.66,2.96-4.38,4.02
		c-2.01,1.23-4.22,1.96-6.47,2.56c-0.07,0.02-0.13,0.02-0.21-0.07c0.58-0.88,0.56-1.9,0.66-2.91c0.17-1.58,0.13-3.15,0.09-4.72
		c-0.05-1.84-0.22-3.66-0.48-5.49c-0.36-2.56-0.95-5.05-1.78-7.49c-1.33-3.87-3.17-7.47-5.68-10.71c-0.45-0.58-0.93-1.13-1.41-1.69
		C116.16,114.37,116.08,114.28,115.85,114.34z M136.18,129.59c-1.41-2.64-3.44-4.4-5.98-5.76c-0.12,0.78-0.06,1.46-0.06,2.14
		c0,0.24,0.18,0.26,0.37,0.28c0.82,0.1,1.59,0.38,2.33,0.75c0.99,0.5,1.79,1.22,2.55,2.01
		C135.58,129.22,135.73,129.47,136.18,129.59z" />
		<path class="wkp_st10" d="M87.84,153.05c0.13-0.72,0.54-1.31,0.87-1.93c0.55-1.06,1.16-2.09,1.75-3.13c0.8-1.43,1.61-2.85,2.4-4.29
		c0.46-0.84,0.91-1.67,1.39-2.5c0.65-1.14,1.25-2.3,1.87-3.45c0.1-0.19,0.23-0.37,0.22-0.67c-4.2,0.64-8.32,1.58-12.54,2
		c0.58-0.35,1.14-0.72,1.74-1.04c2.1-1.11,4.21-2.19,6.31-3.3c2.1-1.11,4.19-2.22,6.28-3.34c0.78-0.42,1.54-0.89,2.33-1.28
		c0.67-0.33,1.02-0.85,1.28-1.52c1.24-3.2,2.51-6.39,3.79-9.62c0.45,0.33,0.81,0.73,1.22,1.06c1.43,1.19,2.8,2.44,4.22,3.64
		c1.23,1.05,2.49,2.06,3.73,3.09c0.23,0.19,0.31,0.38,0.29,0.73c-0.09,1.06-0.2,2.11-0.32,3.16c-0.13,1.14-0.32,2.27-0.48,3.41
		c-0.11,0.83-0.2,1.66-0.32,2.49c-0.12,0.87-0.26,1.75-0.35,2.62c-0.14,1.34-0.41,2.66-0.6,3.99c-0.14,0.98-0.3,1.96-0.46,2.94
		c-0.22,1.37-0.46,2.74-0.73,4.1c-0.37,1.91-0.72,3.82-1.31,5.68c-0.05,0.15-0.07,0.3-0.22,0.41c-0.32-0.6-0.36-1.27-0.45-1.92
		c-0.2-1.44-0.4-2.88-0.61-4.32c-0.13-0.85-0.2-1.71-0.34-2.56c-0.09-0.56-0.03-1.14-0.29-1.73c-0.53,0.41-0.96,0.85-1.35,1.33
		c-0.23,0.27-0.46,0.54-0.7,0.8c-1.25,1.34-2.55,2.66-3.75,4.05c-0.56,0.65-1.24,1.21-1.72,1.93c-0.11,0.16-0.26,0.31-0.45,0.39
		c0.03-0.96,0.34-1.86,0.54-2.79c0.4-1.9,0.84-3.79,1.22-5.7c0.34-1.71,0.75-3.41,1.11-5.11c0.41-1.96,0.81-3.93,1.21-5.9
		c0.01-0.06,0.02-0.13-0.07-0.18c-0.19-0.02-0.28,0.16-0.4,0.28c-0.7,0.65-1.26,1.42-1.86,2.16c-0.5,0.62-1.1,1.15-1.59,1.79
		c-0.48,0.63-1.08,1.17-1.6,1.77c-0.8,0.91-1.58,1.84-2.38,2.76c-0.47,0.53-0.95,1.05-1.42,1.58c-1.15,1.29-2.28,2.59-3.44,3.87
		c-1.24,1.38-2.39,2.85-3.75,4.12c-0.06,0.06-0.14,0.11-0.21,0.17L87.84,153.05z" />
		<path class="wkp_st11" d="M139.33,134.13c0.36-0.04,0.55-0.35,0.84-0.5c1.31-0.7,2.6-1.44,3.91-2.14c1.8-0.96,3.61-1.9,5.36-2.94
		c0.09-0.05,0.2-0.08,0.37-0.16c-0.02,0.42-0.23,0.71-0.4,1c-1.39,2.4-3.04,4.63-4.76,6.79c-1.72,2.15-3.61,4.15-5.63,6.02
		c-1.58,1.45-3.24,2.82-4.98,4.08c-1.33,0.96-2.66,1.91-4.08,2.75c-2.12,1.26-4.3,2.39-6.54,3.41c-1.82,0.83-3.67,1.56-5.57,2.16
		c-1.65,0.52-3.3,1-5,1.35c-0.19,0.04-0.4,0.03-0.59,0.05c0.01-0.62,0.22-1.21,0.32-1.81c0.24-1.49,0.6-2.96,0.76-4.47
		c0.06-0.59,0.18-1.17,0.28-1.75c0.08-0.02,0.18-0.02,0.25-0.06c1.33-0.83,2.72-1.58,4.11-2.31c0.78-0.41,1.54-0.87,2.33-1.27
		c1.19-0.6,2.31-1.3,3.54-1.82c0.11,0.43,0.21,0.86,0.32,1.28c0.25,0.9,0.39,1.8,0.23,2.73c-0.06,0.35-0.26,0.6-0.49,0.84
		c-0.37,0.38-0.8,0.7-1.01,1.19c0.05,0.13,0.15,0.12,0.23,0.1c1.64-0.43,3.31-0.77,4.92-1.32c2.15-0.73,4.18-1.72,5.93-3.17
		c1.29-1.07,2.41-2.33,3.21-3.85c0.65-1.25,1.14-2.55,1.52-3.89C138.92,135.66,139.05,134.87,139.33,134.13z" />
		<path class="wkp_st11" d="M145.07,99.98c0.63-0.22,1.16-0.63,1.74-0.94c2.12-1.12,4.21-2.27,6.32-3.41c1.15-0.62,2.3-1.24,3.45-1.86
		c0.11-0.06,0.22-0.15,0.43-0.1c0.12,0.44,0.07,0.93,0.16,1.4c0.1,0.52,0.12,1.06,0.14,1.58c0.06,1.19,0.18,2.38,0.17,3.58
		c-0.02,1.53-0.12,3.05-0.25,4.57c-0.09,1.04-0.25,2.06-0.3,3.1c-0.02,0.44-0.23,0.74-0.62,0.95c-1.11,0.6-2.2,1.24-3.31,1.84
		c-2.95,1.58-5.91,3.15-8.86,4.71c-0.29,0.15-0.57,0.35-0.92,0.34c-0.01-0.6,0.16-1.18,0.3-1.75c0.33-1.35,0.52-2.72,0.76-4.08
		c0.2-1.17,0.27-2.36,0.42-3.53c0.15-1.18,0.22-2.36,0.35-3.54C145.13,101.89,145.06,100.93,145.07,99.98z" />
		<path class="wkp_st11"
			d="M65.45,55.18c0.61-0.65,1.37-1.12,2.09-1.63c2.8-1.97,5.76-3.66,8.87-5.09c2.78-1.28,5.65-2.32,8.6-3.16
		c2.34-0.67,4.73-1.14,7.13-1.53c1.06-0.17,2.16-0.22,3.23-0.34c2.28-0.25,4.56-0.24,6.84-0.24c0.18,0,0.35,0.01,0.53,0.02
		c0.04,0,0.07,0.04,0.11,0.07c0.05,0.15-0.08,0.18-0.17,0.23c-2.48,1.33-4.94,2.71-7.44,4c-1.51,0.79-3,1.63-4.5,2.44
		c-0.21,0.12-0.42,0.24-0.59,0.42c-1.25-0.38-2.5-0.75-3.75-1.12c-0.97-0.29-1.95-0.6-2.93-0.86c-0.27-0.07-0.5-0.28-0.86-0.25
		c0.09,0.27,0.28,0.39,0.47,0.52c0.94,0.62,1.89,1.24,2.82,1.88c0.4,0.27,0.78,0.58,1.17,0.87c0.1,0.07,0.12,0.18,0.13,0.3
		c-0.1,0.16-0.28,0.2-0.43,0.29c-0.77,0.46-1.55,0.9-2.32,1.38c-0.17,0.1-0.43,0.16-0.42,0.45c-0.82-0.27-1.64-0.5-2.49-0.68
		c-0.11-0.02-0.21-0.07-0.32-0.08c-0.09-0.01-0.18,0-0.23,0.09c-0.05,0.1,0.02,0.17,0.07,0.23c0.24,0.29,0.48,0.58,0.71,0.87
		c0.05,0.06,0.05,0.16,0.08,0.25c-0.38,0.39-0.87,0.62-1.31,0.93c-0.14,0.1-0.3,0.18-0.27,0.39c-1.79-0.22-3.6,0.02-5.38-0.15
		c-1.15-0.11-2.3,0.04-3.44-0.21c-0.36-0.08-0.75-0.02-1.13-0.02c-1.13,0-2.27,0-3.4,0C66.42,55.45,65.93,55.35,65.45,55.18z" />
		<path class="wkp_st11" d="M109.17,56.1c0.26-0.46,0.77-0.58,1.18-0.8c1.65-0.91,3.33-1.76,4.99-2.66c2.26-1.22,4.51-2.47,6.76-3.7
		c0.31-0.17,0.66-0.28,0.94-0.5c0.46-0.36,0.85-0.25,1.33-0.01c2.98,1.44,5.84,3.08,8.55,4.98c1.11,0.77,2.16,1.61,3.24,2.43
		c0.31,0.24,0.29,0.36-0.09,0.57c-0.62,0.34-1.25,0.67-1.87,1.01c-2.14,1.17-4.33,2.25-6.43,3.48c-0.17,0.1-0.35,0.19-0.56,0.17
		c-0.48-0.07-0.74-0.49-1.05-0.77c-1.9-1.67-4.05-2.98-6.14-4.38c-0.95-0.64-1.88-1.32-2.82-1.97c-0.06-0.04-0.12-0.05-0.22,0.02
		c0.15,0.32,0.4,0.59,0.61,0.88c1.05,1.47,2.33,2.77,3.28,4.32c0.12,0.19,0.42,0.38,0.22,0.62c-0.16,0.19-0.42,0-0.62-0.07
		c-2.19-0.78-4.43-1.37-6.65-2.04c-1.36-0.41-2.7-0.86-4.04-1.3C109.56,56.31,109.37,56.19,109.17,56.1z" />
		<path class="wkp_st11" d="M137.59,72.93c0.61-0.57,1.39-0.85,2.1-1.25c2.25-1.25,4.52-2.45,6.78-3.68c0.19-0.1,0.37-0.24,0.59-0.39
		c0.41,0.4,0.7,0.9,1,1.37c1.47,2.25,2.79,4.58,3.93,7.01c0.41,0.88,0.8,1.78,1.2,2.67c0.22,0.49,0.21,0.53-0.24,0.78
		c-2.33,1.29-4.66,2.56-7.02,3.79c-0.79,0.41-1.55,0.86-2.33,1.28c-0.21,0.11-0.42,0.26-0.67,0.28c-0.36-0.37-0.39-0.88-0.54-1.33
		c-0.86-2.59-1.94-5.08-3.21-7.5c-0.45-0.86-0.94-1.7-1.43-2.54C137.66,73.26,137.58,73.12,137.59,72.93z" />
		<path class="wkp_st9" d="M123.84,142.5c-1.22,0.52-2.35,1.23-3.54,1.82c-0.79,0.4-1.55,0.86-2.33,1.27c-1.39,0.73-2.77,1.48-4.11,2.31
		c-0.07,0.04-0.17,0.04-0.25,0.06c0.17-1.16,0.34-2.31,0.51-3.47c0.29-1.94,0.45-3.9,0.76-5.84c0.15-0.94,0.2-1.89,0.31-2.83
		c0.19-1.58,0.28-3.17,0.41-4.75c0.01-0.17,0.1-0.34,0.15-0.51c0.32-0.02,0.59-0.15,0.86-0.31c1.03-0.6,2.08-1.17,3.12-1.76
		c0.43,1.14,0.72,2.32,1.05,3.49c0.77,2.64,1.51,5.28,2.27,7.92C123.31,140.77,123.58,141.64,123.84,142.5z" />
		<path class="wkp_st4" d="M125.69,109.57c-1.53-0.11-3-0.3-4.32-1.07c-2.68-1.55-2.22-4.74-0.7-6.07c0.99-0.87,2.17-1.27,3.42-1.53
		c0.17-0.04,0.25,0.05,0.27,0.2c0.06,0.55,0.11,1.1,0.16,1.66c0.02,0.19-0.09,0.27-0.27,0.3c-0.44,0.08-0.86,0.22-1.25,0.43
		c-1.42,0.78-1.49,2.28-0.16,3.21c0.55,0.39,1.17,0.64,1.83,0.74c0.37,0.05,0.56,0.2,0.64,0.55
		C125.42,108.51,125.55,109.01,125.69,109.57z" />
		<path class="wkp_st11" d="M119.73,128.5c-1.04,0.58-2.09,1.16-3.12,1.76c-0.27,0.16-0.55,0.29-0.86,0.31c-0.09-0.71,0.1-1.4,0.14-2.11
		c0.05-0.87,0.21-1.75,0.22-2.63c0-0.45,0.19-0.71,0.58-0.85c0.29-0.11,0.58-0.21,0.88-0.29c0.57-0.16,1.1,0.03,1.28,0.57
		C119.22,126.31,119.54,127.39,119.73,128.5z" />
		<path class="wkp_st9" d="M84.02,53.82c-0.01-0.29,0.25-0.35,0.42-0.45c0.76-0.47,1.54-0.92,2.32-1.38c0.15-0.09,0.33-0.13,0.43-0.29
		c0.28-0.04,0.52,0.04,0.75,0.2c1.92,1.29,3.85,2.58,5.72,3.96c0.03,0.02,0.05,0.07,0.08,0.11l-0.04,0.04
		c-1.5-0.27-2.97-0.65-4.45-1c-1.57-0.37-3.13-0.75-4.7-1.13C84.38,53.84,84.2,53.84,84.02,53.82z" />
		<path class="wkp_st11" d="M62.12,57.98c0.36-0.54,0.93-0.86,1.4-1.29c0.48-0.44,1.02-0.83,1.53-1.24c0.47,0.45,1.11,0.62,1.65,0.95
		c0.64,0.39,1.32,0.71,1.98,1.07c0.17,0.1,0.34,0.21,0.49,0.33c0.05,0.04,0.09,0.12,0.08,0.17c-0.01,0.1-0.09,0.14-0.19,0.14
		c-0.13,0-0.27,0.01-0.4,0.01c-1.93,0-3.85,0-5.78,0C62.62,58.12,62.35,58.13,62.12,57.98z" />
		<path class="wkp_st11" d="M58.9,61.17c0.66-0.9,1.46-1.66,2.3-2.39c0.51,0.13,0.75,0.59,1.09,0.92c0.39,0.38,0.72,0.82,1.13,1.3
		C61.87,61.12,60.39,61.26,58.9,61.17z" />
		<path class="wkp_st9" d="M80.28,55.83c-0.03-0.21,0.13-0.29,0.27-0.39c0.43-0.32,0.92-0.55,1.31-0.93c0.66,0.28,1.01,0.85,1.49,1.49
		C82.24,55.78,81.26,55.86,80.28,55.83z" />
		<path class="wkp_st5" d="M121.74,58.56c-0.14-0.09-0.25-0.21-0.25-0.41c0.19,0.01,0.31,0.11,0.41,0.25
		C121.85,58.45,121.8,58.51,121.74,58.56z" />
		<path class="wkp_st5" d="M65.89,108.81c-0.04,0.05-0.07,0.1-0.11,0.15c-0.07,0.08-0.19,0.16-0.26,0.07c-0.07-0.09,0.03-0.19,0.12-0.25
		C65.72,108.79,65.81,108.8,65.89,108.81z" />
		<path class="wkp_st5" d="M65.3,104.23c0.01,0.09,0.02,0.18,0.03,0.26c-0.1,0.04-0.25,0.09-0.28-0.03
		C65.01,104.3,65.17,104.25,65.3,104.23z" />
		<path class="wkp_st10" d="M87.87,153.07c-0.03,0.1-0.04,0.21-0.18,0.2c-0.02,0-0.04-0.03-0.04-0.04c-0.01-0.14,0.09-0.16,0.19-0.18
		C87.84,153.05,87.87,153.07,87.87,153.07z" />
		<path class="wkp_st10" d="M87.18,154.04c-0.05,0.02-0.08,0-0.08-0.06c0-0.02,0.01-0.04,0.03-0.06c0.04-0.04,0.09-0.04,0.11,0.01
		C87.24,153.96,87.2,154,87.18,154.04z" />
		<path class="wkp_st10" d="M83.32,139.32c0.03-0.06,0.08-0.11,0.15-0.1c0.02,0,0.03,0.03,0.04,0.05c-0.06,0.02-0.12,0.04-0.18,0.06
		L83.32,139.32z" />
		<path class="wkp_st8" d="M65.89,108.81c-0.09-0.01-0.17-0.02-0.26-0.04c0.04-0.06,0.09-0.13,0.13-0.19c0.05,0.06,0.11,0.13,0.16,0.19
		C65.92,108.78,65.89,108.81,65.89,108.81z" />
		<path class="wkp_st10" d="M83.33,139.34c-0.02,0.02-0.04,0.03-0.07,0.05c0.02-0.02,0.03-0.04,0.05-0.07
		C83.32,139.32,83.33,139.34,83.33,139.34z" />
		<path class="wkp_st10"
			d="M87.44,153.58c0.02-0.02,0.05-0.03,0.07-0.05c-0.02,0.03-0.03,0.05-0.05,0.08L87.44,153.58z" />
		<path class="wkp_st10" d="M87.47,153.61c-0.02,0.02-0.05,0.03-0.07,0.05c0.02-0.02,0.03-0.05,0.05-0.07
		C87.44,153.58,87.47,153.61,87.47,153.61z" />
		<polygon class="wkp_st10" points="100.53,154.26 100.49,154.32 100.47,154.29 	" />
		<path class="wkp_st9" d="M93.74,55.97c0.02,0.03,0.04,0.06,0.05,0.08c-0.03-0.02-0.06-0.03-0.09-0.05
		C93.7,56.01,93.74,55.97,93.74,55.97z" />
		<path class="wkp_st8" d="M118.65,111.33c0.03-0.04,0.06-0.04,0.08,0.01c0.01,0.01-0.01,0.05-0.01,0.05c-0.05,0.01-0.07-0.02-0.05-0.07
		L118.65,111.33z" />
		<path class="wkp_st8" d="M118.66,111.31c-0.11,0.06-0.14-0.02-0.16-0.1c0.04-0.03,0.09-0.06,0.13-0.09c0.05,0.06,0.13,0.13,0.02,0.2
		C118.65,111.33,118.66,111.31,118.66,111.31z" />
		<path class="wkp_st8" d="M83.73,54.78c-0.06-0.06-0.07,0.07-0.05-0.02c0-0.02,0.01-0.04,0.02-0.04c0.06,0.01,0.06,0.03,0.02,0.07
		C83.71,54.79,83.73,54.78,83.73,54.78z" />
		<path class="wkp_st12" d="M82.32,114.18c2.07-1.2,4.14-2.4,6.22-3.6c1.63-0.94,3.27-1.88,4.9-2.83c0.09-0.05,0.21-0.08,0.24-0.29
		c-4.34-0.79-8.68-1.58-13.05-2.24c0-0.04,0.01-0.09,0.02-0.13c6.65,0.09,13.3,0.19,19.93,0.28c0.11-0.27-0.07-0.28-0.17-0.35
		c-2.06-1.55-4.12-3.09-6.18-4.64c-5.44-4.1-10.88-8.21-16.32-12.32c-0.48-0.36-0.96-0.72-1.43-1.08c0.04-0.05,0.08-0.1,0.12-0.15
		c2.87,1.55,5.74,3.1,8.61,4.65c5.44,2.95,10.89,5.91,16.33,8.86c0.17,0.09,0.32,0.24,0.49,0.19c-4.19-4.24-8.38-8.48-12.58-12.72
		c-4.19-4.23-8.44-8.41-12.71-12.74c0.36-0.03,0.47,0.12,0.59,0.23c4.36,3.65,8.72,7.3,13.08,10.95
		c5.32,4.44,10.64,8.88,15.97,13.31c0.31,0.26,0.47,0.56,0.55,0.95c0.93,4.36,1.88,8.72,2.81,13.08c0.08,0.4,0.26,0.66,0.63,0.87
		c1.98,1.12,3.33,2.76,3.94,4.98c0.33,1.21,0.46,2.54,0.33,3.51c-0.26,0.01-0.35-0.24-0.51-0.37c-1.34-1.13-2.67-2.27-4.02-3.4
		c-1.43-1.2-2.88-2.38-4.3-3.58c-0.26-0.22-0.45-0.23-0.75-0.07c-1.63,0.89-3.28,1.76-4.93,2.64c-0.08,0.04-0.16,0.07-0.29,0.13
		c-0.68-2.22-1.35-4.41-2.05-6.72c-2.14,2.41-4.22,4.76-6.33,7.14c-0.26-0.25-0.48-0.46-0.7-0.67c-1.56-1.49-3.13-2.96-4.67-4.47
		c-0.25-0.24-0.46-0.28-0.76-0.18c-0.97,0.32-1.94,0.62-2.91,0.93C82.39,114.25,82.36,114.22,82.32,114.18z" />
		<path class="wkp_st12" d="M75.71,86.4c0.37-0.02,0.59,0.28,0.89,0.41c-0.04,0.05-0.08,0.1-0.12,0.15c-0.29-0.14-0.55-0.33-0.76-0.57
		L75.71,86.4z" />
		<path class="wkp_st5" d="M75.9,74.07c0.16,0.08,0.34,0.15,0.36,0.37c-0.03,0.02-0.06,0.04-0.08,0.08c-0.22-0.02-0.32-0.16-0.38-0.35
		C75.84,74.14,75.87,74.1,75.9,74.07z" />
		<path class="wkp_st12" d="M82.07,114.32c0.08-0.05,0.17-0.1,0.25-0.15c0.04,0.04,0.07,0.08,0.11,0.12c-0.07,0.1-0.17,0.12-0.28,0.12
		C82.12,114.38,82.1,114.35,82.07,114.32z" />
		<path class="wkp_st12" d="M82.15,114.42c-0.07,0.1-0.17,0.17-0.25,0.05c-0.04-0.05,0.1-0.11,0.18-0.14
		C82.1,114.35,82.12,114.38,82.15,114.42z" />
		<path class="wkp_st5" d="M75.4,73.66c-0.01,0.02-0.03,0.05-0.04,0.05c-0.04-0.02-0.07-0.04-0.11-0.06c0.01-0.02,0.04-0.05,0.04-0.05
		C75.33,73.62,75.37,73.64,75.4,73.66z" />
		<path class="wkp_st12" d="M76.73,74.82c0.05,0.06,0.17,0.11,0.09,0.2c-0.09,0.1-0.13-0.02-0.18-0.07C76.66,74.9,76.7,74.86,76.73,74.82
		z" />
		<path class="wkp_st12" d="M76.59,74.7c0.04,0.04,0.09,0.08,0.13,0.11c-0.03,0.04-0.07,0.09-0.1,0.13c-0.07-0.02-0.12-0.06-0.13-0.13
		C76.53,74.78,76.56,74.74,76.59,74.7z" />
		<path class="wkp_st12" d="M76.5,74.81c-0.07-0.02-0.12-0.06-0.13-0.13c0.03-0.03,0.06-0.06,0.09-0.09c0.05,0.04,0.09,0.08,0.14,0.12
		C76.56,74.74,76.53,74.78,76.5,74.81z" />
		<path class="wkp_st12" d="M76.26,74.45c0.06,0.05,0.13,0.09,0.19,0.14c-0.03,0.03-0.06,0.06-0.09,0.09c-0.09-0.02-0.14-0.08-0.18-0.15
		C76.2,74.49,76.23,74.46,76.26,74.45z" />
		<path class="wkp_st5" d="M75.76,73.94c0.05,0.04,0.09,0.09,0.14,0.13c-0.03,0.03-0.06,0.07-0.1,0.1c-0.07-0.02-0.12-0.07-0.13-0.14
		C75.7,74,75.73,73.97,75.76,73.94z" />
		<path class="wkp_st5"
			d="M75.67,74.03c-0.05-0.03-0.11-0.07-0.05-0.13c0.05-0.05,0.1,0,0.14,0.04C75.73,73.97,75.7,74,75.67,74.03z" />
		<path class="wkp_st6" d="M99.01,58.2c0,0.05,0.01,0.12-0.06,0.13c-0.01,0-0.05-0.02-0.05-0.03c0-0.07,0.05-0.1,0.12-0.1
		C99.03,58.2,99.01,58.2,99.01,58.2z" />
		<path class="wkp_st6" d="M73.31,103.71c0.01-0.06,0.04-0.13,0.11-0.08c0.06,0.05,0.01,0.11-0.04,0.15
		C73.36,103.76,73.34,103.74,73.31,103.71z" />
		<path class="wkp_st12" d="M75.72,86.39c-0.03-0.03-0.06-0.05-0.08-0.08c0.1-0.04,0.09,0.02,0.07,0.09
		C75.71,86.4,75.72,86.39,75.72,86.39z" />
		<path class="wkp_st6" d="M136.18,129.59c-0.45-0.12-0.6-0.38-0.79-0.58c-0.76-0.79-1.56-1.51-2.55-2.01c-0.74-0.37-1.51-0.65-2.33-0.75
		c-0.19-0.02-0.37-0.04-0.37-0.28c0.01-0.68-0.05-1.36,0.06-2.14C132.74,125.19,134.78,126.95,136.18,129.59z" />
	</g>
</svg>