<svg version="1.1" id="Layer_1" xmlns="http://www.w3.org/2000/svg" x="0" y="0" viewBox="0 0 200 200" xml:space="preserve"><style>.wkp_st0{fill:#fafafa}.wkp_st3{fill:#f8f8f8}.wkp_st4{fill:#f9f9f9}.wkp_st5{fill:#c4c3c5}.wkp_st6{fill:#010101}.wkp_st8{fill:#fdfdfd}.wkp_st9{fill:#6a1515}.wkp_st10{fill:#191919}.wkp_st11{fill:#131212}.wkp_st12{fill:#5d5d5d}</style><path class="wkp_st0" d="M100.37 193.63c-51.46.14-93.62-41.93-93.38-93.83.23-51.02 41.96-93.26 94.16-92.88 50.83.37 92.88 41.96 92.57 93.99-.3 51.03-41.92 92.81-93.35 92.72zm-.08-182.75c-49.47-.07-89.43 40.38-89.35 89.54.08 50.08 40.93 89.34 89.49 89.27a89.36 89.36 0 0089.33-89.38c.03-49.53-40.26-89.5-89.47-89.43z"/><path d="M100.29 10.88c49.22-.07 89.51 39.9 89.47 89.43a89.37 89.37 0 01-89.33 89.38c-48.57.07-89.41-39.19-89.49-89.27-.08-49.15 39.87-89.61 89.35-89.54zm-51.66 44.2c.06.09.16.17.24.07.05-.07-.06-.13-.12-.18-.06-.08-.1-.19-.21-.21a8.89 8.89 0 00-.24-.32l-6.33-7.2-3.06-3.45-1.07 1.44.71.77 6.46 7.28c.15.17.27.34.49.44l2.87 1.23c.05.09.15.11.26.13zm91.51 116.77l-1.03-2.08a4.38 4.38 0 00-1.34-1.69c-2.12-1.5-4.19-3.05-6.29-4.58l-1.45-1.03c.43 1.06.94 2.04 1.42 3.04.17.35.4.62.72.85.72.51 1.43 1.04 2.15 1.57l5.65 4.1c.04.05.07.1.12.14.06.05.15.12.22.05.08-.08-.01-.15-.05-.22-.02-.07-.07-.11-.12-.15zM37.72 100.28c-.05 33.84 27.45 62.59 62.56 62.6a62.64 62.64 0 0062.66-62.49c.04-34.39-27.78-62.7-62.5-62.74-34.43-.04-62.59 27.85-62.72 62.63zM16.9 98.65c.05.3.24.34.38.44 1.21.87 2.41 1.74 3.63 2.6.23.16.32.3.21.59-.31.85-.6 1.71-.87 2.58-.23.75-.54 1.49-.71 2.34l.28-.17 3.91-2.89c.2-.15.33-.14.52 0 1.24.93 2.55 1.77 3.76 2.76.13.11.24.26.44.23.06-.09.02-.17-.01-.26-.5-1.49-.99-2.98-1.52-4.46-.13-.37-.07-.54.24-.75 1.19-.82 2.35-1.67 3.53-2.51.18-.13.41-.23.52-.5-1.72 0-3.38-.01-5.04.01-.33 0-.47-.09-.56-.39l-1.1-3.48c-.14-.45-.32-.88-.48-1.35-.09.08-.13.1-.14.14l-1.39 4.5c-.19.59-.2.57-.83.57-1.58-.03-3.16-.08-4.77 0zm153.21-.04c.17.32.34.39.48.49 1.19.85 2.38 1.71 3.58 2.54.29.2.33.39.21.71-.41 1.17-.8 2.35-1.19 3.53-.14.41-.25.83-.38 1.27.09-.02.14-.01.17-.04 1.28-1.03 2.67-1.92 3.96-2.93.26-.2.42-.22.68-.02 1.19.89 2.39 1.76 3.6 2.64.17.13.32.3.61.34l-.11-.39c-.49-1.45-.97-2.9-1.47-4.34-.16-.45-.24-.44.26-.79l3.52-2.51c.17-.12.39-.21.45-.42-.05-.11-.12-.1-.18-.1-1.62.01-3.24.01-4.86.04-.3.01-.42-.07-.51-.36a85.98 85.98 0 00-1-3.1c-.2-.58-.33-1.18-.66-1.78l-1.47 4.63c-.19.61-.19.61-.81.61l-3.2-.02h-1.68zm-35.18-71.94c.92.45 1.74.87 2.59 1.26.29.13.46.32.54.61.14.49.29.98.48 1.45.13.32.11.58-.04.88-.96 1.9-1.94 3.79-2.85 5.71-.34.72-.77 1.18-1.56 1.32-.37.06-.72.21-1.06.37-.23.11-.4.08-.62-.04-.72-.38-1.47-.73-2.2-1.11-.26-.14-.43-.15-.57.17-.2.46-.46.9-.7 1.36l3.24 1.59c.21.11.41.09.63.01 1-.36 2-.73 3.02-1.03.51-.15.82-.41 1.06-.88 1.21-2.47 2.45-4.92 3.68-7.38.11-.22.12-.4.04-.62-.36-1.05-.71-2.1-1.04-3.15-.11-.34-.3-.58-.62-.73l-3.05-1.53c-.42.51-.58 1.15-.97 1.74zM124.77 180.4l-.43-1.35c-.14-.45-.19-.51-.59-.34-.65.29-1.23.28-1.79-.18-.03-.03-.07-.06-.12-.06-.61-.13-.8-.6-.95-1.14-.64-2.19-1.28-4.38-1.98-6.55-.26-.81-.44-1.56.2-2.27a.27.27 0 00.06-.12c.06-.37.34-.46.65-.57.33-.12.83 0 .96-.33.12-.32-.14-.72-.25-1.08l-.14-.44c-.05-.24-.19-.26-.39-.19-.52.17-1.05.34-1.58.49a.74.74 0 00-.48.42c-.28.55-.55 1.12-.91 1.62-.48.68-.5 1.31-.24 2.1.9 2.83 1.72 5.68 2.57 8.53.09.31.25.52.56.68.82.43 1.69.79 2.45 1.32.16.11.32.1.5.04l1.9-.58zm-16.12-10.79l-.2-1.32c-.03-.23-.14-.28-.37-.25a31 31 0 01-1.65.21c-.25.02-.4.16-.54.34-.42.54-.81 1.12-1.28 1.62a1.8 1.8 0 00-.47 1.63c.39 3.02.75 6.04 1.11 9.06.04.32.17.52.42.71.73.54 1.45 1.1 2.16 1.67.15.12.29.2.48.17l1.65-.2c.24-.02.36-.1.31-.37-.07-.37-.1-.75-.15-1.12-.06-.45-.09-.47-.56-.4l-.19.05c-.28.06-.61.16-.84-.01-.49-.34-.99-.67-1.4-1.11-.06-.07-.04-.21-.05-.32-.32-2.69-.63-5.38-.97-8.06a1 1 0 01.2-.79c.51-.7 1.05-1.31 2.05-1.13.25.04.31-.14.29-.38zm16.37 8.68c.17.59.32 1.09.45 1.6.06.24.2.25.4.18.4-.13.8-.26 1.21-.36a.87.87 0 00.59-.48c.43-.82.86-1.65 1.32-2.46.13-.22.11-.4.05-.62-.93-3.07-1.85-6.14-2.76-9.22-.08-.27-.16-.49-.42-.63l-2.46-1.32c-.14-.07-.28-.12-.44-.07l-1.52.47c-.16.05-.28.12-.21.33.15.44.28.89.41 1.33.06.18.16.24.35.17.12-.05.27-.05.38-.11.37-.2.7-.19 1.05.05.2.14.43.23.65.33.34.16.51.41.62.79.74 2.58 1.52 5.14 2.3 7.71a.8.8 0 01-.06.69c-.44.77-.79 1.63-1.91 1.62zm-13.84-10.6l-1.62.18c-.2.02-.27.12-.24.31.05.35.1.7.13 1.06.06.56.08.63.57.49.6-.18 1.03.01 1.43.41.09.09.2.18.32.24.37.18.45.49.49.87.29 2.56.58 5.12.94 7.67.08.53-.06.86-.34 1.25-.43.61-.89 1.09-1.71 1.03-.17-.01-.23.1-.21.26l.16 1.39c.01.12.08.24.2.22.61-.07 1.24-.09 1.83-.26.11-.03.18-.19.26-.29.53-.68 1.05-1.38 1.6-2.05.2-.25.25-.47.21-.79-.25-1.94-.47-3.88-.7-5.82l-.44-3.64c-.04-.34-.14-.6-.46-.82a33.46 33.46 0 01-1.99-1.57.49.49 0 00-.43-.14zm-50.56-.09l3.7 2.16c.15.09.28.08.44.03.85-.24 1.7-.48 2.56-.7.25-.06.43-.15.57-.39.69-1.22 1.4-2.42 2.1-3.62.08-.13.14-.25.09-.43-.25-.87-.48-1.75-.7-2.63a.96.96 0 00-.51-.65 192.5 192.5 0 01-3.1-1.81c-.24-.14-.39-.16-.53.13-.17.34-.35.68-.58.97-.25.32-.1.46.17.62.52.29 1.02.64 1.57.88.94.4 1.48 1.04 1.59 2.07.03.26.04.45-.1.68-.32.51-.64 1.02-.89 1.56-.37.78-.89 1.26-1.78 1.38-.35.05-.63.05-.94-.13-.78-.47-1.58-.89-2.35-1.38-.31-.2-.45-.14-.61.15-.2.34-.44.69-.7 1.11zm88.4-134.53a6.1 6.1 0 00-.12.3l-3.74 9.38c-.62 1.56-1.25 3.13-1.89 4.68-.1.23-.07.36.13.5.45.31.9.64 1.34.96.1-.04.13-.12.17-.21.39-.99.77-1.98 1.18-2.96 1.55-3.72 2.95-7.5 4.55-11.2.08-.18.06-.29-.1-.39-.49-.33-.92-.75-1.52-1.06zM86.98 167.59l-.03.18c.21 2.19.46 4.37.61 6.56.17 2.37.48 4.72.59 7.09.02.53.1 1.06.17 1.59.02.15.02.31.24.34l1.73.24-.23-2.97-.47-5.5-.45-5.5a71.9 71.9 0 00-.13-1.46c-.02-.17-.03-.38-.28-.38-.58-.02-1.14-.23-1.75-.19zM28.34 58.04l.21.13c3.81 1.69 7.56 3.5 11.34 5.24l2.34 1.1c.24.11.39.11.55-.14.24-.37.53-.71.78-1.08.24-.35.22-.37-.19-.55l-6.53-2.92c-2.34-1.04-4.69-2.08-7.03-3.14-.26-.12-.41-.07-.56.14l-.91 1.22zm63.92-26.31h.02l-.07-1.06a1309.95 1309.95 0 00-.97-11.95c-.03-.35.11-.8-.13-1.02-.28-.26-.72-.01-1.09.01-.82.04-.83.05-.76.85.14 1.77.31 3.54.44 5.31.16 2.04.29 4.07.44 6.11l.23 2.72c.02.24.06.37.35.33.42-.05.84-.07 1.26-.09.27-.01.42-.09.36-.4-.05-.28-.06-.55-.08-.81zm34.18 5.72l1.48.69c.21.1.33.12.45-.15.33-.75.7-1.48 1.07-2.21l4.99-9.9c.21-.41.4-.83.59-1.25-.34-.41-.88-.49-1.3-.77-.24-.16-.39-.17-.55.15-2.21 4.47-4.46 8.92-6.73 13.44zm-22.3-20.25c-.05.29-.1.55-.12.81l-1.17 11.93c-.06.66-.14 1.33-.18 1.99-.04.59-.07.56.49.58.29.01.57.05.86.08.54.06.57.04.61-.49l.43-4.9c.24-2.54.5-5.08.75-7.61l.16-1.92c.02-.23-.07-.32-.3-.33-.49-.02-1-.04-1.53-.14zM64.67 159c-.42-.38-.96-.6-1.44-.91-.15-.1-.25-.01-.33.11l-.2.35-6.64 11.38c-.25.43-.61.81-.71 1.33l1.38.79a.2.2 0 01.06.04c.17.1.28.05.37-.13 1.21-2.22 2.52-4.38 3.79-6.56l3.72-6.4zM54.25 50.56L44.24 38.91l-1.45 1.27 7.53 8.75 2.09 2.42c.38.44.37.44.79.08.33-.29.68-.56 1.05-.87zm-5.39 5.55c-.26-.13-.51-.26-.77-.37l-6.9-2.91-6.61-2.75c-.14-.06-.24-.1-.34.03l-.9 1.15c-.11.15-.04.24.11.3l.31.12c1.91.71 3.78 1.51 5.66 2.3l8.14 3.42c.21.09.33.05.45-.12l.85-1.17zm87.47-13.42c.41.3.81.56 1.18.87.23.19.35.12.55-.04.81-.69 1.66-1.34 2.46-2.04.27-.23.45-.21.67 0 .06.06.14.11.21.16l2.54 1.86.43-1.02c.11-.25.03-.41-.19-.56-.35-.23-.69-.49-1.03-.74l-1.18-.86c1.37-1.12 2.66-2.21 3.98-3.25.55-.43.96-.91 1.16-1.57.2-.64.56-1.23.75-2.02l-11.53 9.21zM86.19 168.63l-.13-.04-6.12 13.29 1.52.25c.19.03.32 0 .4-.23.29-.74.61-1.47.93-2.2l.52-1.14 1.31.19c.8.11 1.6.32 2.43.34v-1.02c.01-.28-.14-.4-.39-.44-.35-.06-.7-.1-1.05-.18-.56-.13-1.14-.08-1.69-.27.86-1.79 1.65-3.6 2.43-5.4.04-.1.08-.21.08-.32l-.24-2.83zm29.3-134.48c.24.08.27-.16.33-.38l3.69-13.05c.11-.4.43-.85.24-1.2s-.77-.25-1.14-.43l-.06-.02c-.2-.08-.34-.02-.4.2l-.15.51-3.45 12.09-.44 1.6c-.04.15-.1.31.13.37l1.25.31zm12.3-12.24c-.01-.08-.03-.17-.13-.2-.42-.13-.84-.27-1.27-.39-.12-.03-.21.03-.25.15l-.11.38-1.38 4.86c-.45 1.63-1 3.23-1.41 4.87-.27 1.06-.67 2.08-.88 3.16-.08.43-.47.91-.27 1.24.2.33.82.23 1.22.41l.06.02c.17.06.3.03.35-.17l.11-.38 3.88-13.68.08-.27zm7.04 137.64l7 13.65 1.26-.62c.25-.12.24-.25.11-.47-.39-.69-.78-1.39-1.14-2.1-1.82-3.67-3.8-7.27-5.55-10.97-.12-.26-.25-.24-.46-.13-.38.22-.77.41-1.22.64zm-7.38 3.74l5.98 11.67.92 1.77c.07.14.17.32.35.17.38-.31.85-.46 1.25-.71l-6.96-13.63c-.53.2-.94.56-1.54.73zM70.7 176l4.25-11.81-1.39-.5c-.44-.15-.45-.14-.61.29l-3.14 8.68-.87 2.37c-.06.16-.17.34.1.43l1.66.54zm6.62-139.55v-.13c-1.01-2.46-1.89-4.96-2.83-7.45-.5-1.33-1.01-2.64-1.5-3.97-.09-.24-.18-.32-.43-.2-.34.15-.7.27-1.05.41-.43.16-.43.16-.27.59l3.03 8.09c.38 1.02.79 2.02 1.17 3.04.1.28.22.32.49.19.44-.21.92-.38 1.39-.57zm78.99 20.63l.83 1.2c.28.42.29.4.7.11 2.2-1.53 4.42-3.04 6.63-4.55 1.02-.7 2.05-1.39 3.09-2.08.22-.14.25-.26.09-.47-.32-.42-.61-.86-.93-1.32l-10.41 7.11zM96.4 181.8h-.04v1.73c0 .51-.04.5.51.49h.87c.58.01.56.06.57-.58l.24-11.24c.02-.98.08-.78-.73-.82-.29-.01-.58-.02-.86-.05-.23-.02-.32.06-.32.29 0 .8-.06 1.59-.09 2.39-.08 2.6-.11 5.19-.15 7.79zm51.8-133.45l1.04 1.09c.22.24.37.25.63-.01 1.79-1.76 3.61-3.48 5.42-5.22l3.06-2.97c.15-.15.24-.25.06-.43l-1.14-1.14-9.07 8.68zM61.86 34.01l.66 1.04c.31.49.31.49.83.17l.57-.34c.48-.28 1.26-.11 1.55.37.32.51.62 1.02.92 1.54.56.97.55.97.26 2.03a1.1 1.1 0 01-.54.72c-.16.08-.31.18-.47.25-.17.08-.24.18-.13.36l.79 1.31c.1.16.22.09.34.02.4-.24.79-.5 1.2-.72.29-.15.41-.37.48-.67.18-.73.35-1.47.58-2.18a.94.94 0 00-.1-.85c-.7-1.16-1.38-2.32-2.05-3.5a.9.9 0 00-.67-.47c-.52-.11-1.03-.23-1.54-.39a.67.67 0 00-.57.06l-2.11 1.25zm.15 1.91a.56.56 0 00-.04-.12l-.75-1.18c-.12-.18-.24-.13-.39-.03-.31.21-.62.42-.95.6-.43.23-1.27-.01-1.52-.42l-1.02-1.64a.83.83 0 01-.1-.75c.42-1.36.04-1.02 1.32-1.72l.06-.03c.18-.08.21-.19.1-.37-.24-.37-.5-.73-.7-1.13-.15-.29-.3-.26-.52-.12-.41.26-.82.53-1.25.76a.99.99 0 00-.53.71c-.15.67-.31 1.34-.52 1.99-.1.32-.11.56.08.86a83.6 83.6 0 011.88 3.13c.14.24.29.36.55.41.56.11 1.13.23 1.68.37.23.06.42.04.63-.08l1.78-1.03c.1-.03.2-.07.21-.21zm58.68-15.73c-.19.09-.2.26-.24.39l-.89 3a1.6 1.6 0 000 .72l1.93 9.93c.15-.09.17-.22.21-.35.28-1 .55-2.01.85-3.01.09-.29.09-.55.03-.84-.25-1.33-.48-2.66-.74-3.99-.37-1.94-.76-3.88-1.15-5.85zm-44.14 2.13c-.19-.5-.37-.97-.53-1.44-.08-.22-.2-.27-.4-.19l-1.05.41c-2.69 1.01-5.38 2.02-8.08 3.01-.22.08-.28.2-.22.39.17.5.31 1.01.6 1.47 3.2-1.28 6.44-2.42 9.68-3.65zm26.3 146.55l-.18-.07-8.92-.17c-.43-.01-1.02-.23-1.27.09-.26.32-.04.9-.07 1.36-.02.27.12.34.36.34.93.01 1.86.06 2.8.05 1.86-.01 3.73.05 5.59.14.44.02.89 0 1.33.01.24.01.38-.06.37-.33l-.01-1.42zm-34.93 9.06c.08.05.13.1.19.12 1.45.47 2.88 1.01 4.31 1.54l3.68 1.33c.41.15.4.14.55-.29l.33-.94c.16-.43.16-.44-.28-.6a393.38 393.38 0 00-7.68-2.76c-.43-.15-.46-.12-.62.31l-.48 1.29zm78.37-127.57l6.22 6.44 1.37-1.31-6.29-6.53-1.3 1.4zM34.05 52.72l-.07.11c.03.06.05.12.09.17 1.7 2.05 3.43 4.07 5.1 6.15A5.6 5.6 0 0041.62 61c.62.23 1.21.54 1.82.82a345.51 345.51 0 00-6.02-7.49c-.14-.17-.3-.35-.5-.43-.95-.41-1.91-.79-2.87-1.18zm119.93 5.88l5.2 7.54c.45-.32.83-.63 1.25-.87.32-.18.26-.31.09-.56-1.21-1.72-2.4-3.46-3.59-5.19l-1.33-1.95c-.53.37-1 .73-1.62 1.03zM98.89 17.02c-.57.03-.99.07-1.41.07-.51 0-.84.23-1.12.66a126.8 126.8 0 01-3.26 4.7c-.45.61-.69 1.2-.55 1.96.09.53.11 1.07.15 1.61 2.1-2.95 4.17-5.87 6.19-9zm1.25 15.23l-4.73-8.44c-.35.51-.64.96-.96 1.39-.15.2-.11.34 0 .53l3.59 6.38c.12.22.26.33.52.3l1.58-.16zm-40.98 7.66l1.37 2.27c.1.16.23.27.42.3.85.14 1.68.4 2.51.62.19.05.34.06.5-.04l1.69-.99-.81-1.35c-.14-.24-.29-.31-.52-.11-.51.43-1.05.64-1.69.27a.58.58 0 00-.32-.06c-.31.01-.49-.16-.63-.41-.23-.4-.49-.79-.71-1.2-.12-.22-.24-.21-.42-.09-.42.29-.86.55-1.39.79zm46.3-7.83l-.02.33c-.03.25.05.35.32.37l5.5.51c.58.05.58.05.65-.56.03-.29.05-.58.09-.86.05-.35-.09-.45-.43-.48-1.61-.14-3.22-.32-4.83-.46-.37-.03-.83-.26-1.08 0-.27.26-.18.75-.2 1.15zm7.59-12.12c.11-.49.11-.95.15-1.42.03-.34-.09-.46-.43-.49-1.85-.19-3.7-.39-5.55-.53-.28-.02-.41.05-.42.34-.01.38-.03.75-.08 1.13-.04.31.07.42.39.45 1.41.12 2.82.27 4.23.4.55.05 1.1.18 1.71.12zM58.61 44.38c-.16-.01-.24.08-.32.15-1.47 1.29-2.92 2.59-4.45 3.8-.17.13-.16.24-.04.38l.96 1.11c.13.15.24.13.39-.01 1.49-1.4 3.07-2.69 4.63-4.03l-1.17-1.4zm-12.42-4.57c.15-.16.24-.28.36-.38l4.21-3.56c.16-.14.26-.22.1-.41l-.95-1.11c-.11-.13-.22-.13-.34-.02l-.64.58-4.03 3.47 1.29 1.43zm12.37-11.38l.78 1.22c.26.4.27.42.65.14.38-.28.76-.44 1.22-.23.16.07.34.1.51.12.32.04.51.23.66.49.15.26.24.57.52.76.4-.32.83-.54 1.27-.76.24-.12.28-.23.13-.45-.28-.45-.56-.9-.81-1.37a.72.72 0 00-.5-.38 37.1 37.1 0 01-2.3-.61.64.64 0 00-.56.08c-.5.33-1.01.65-1.57.99zm51.98-3.38l.02-.27c.04-.52.04-.52-.44-.56-.95-.09-1.9-.2-2.85-.25-.33-.02-.77-.28-.99.04-.18.26-.12.68-.16 1.04l-.01.13c-.04.27.04.39.35.41 1.04.08 2.08.19 3.12.28.89.07.9.07.96-.82zM50.21 44.51l.93-.81 2.07-1.77c.12-.1.37-.2.17-.41-.34-.37-.62-.8-1.06-1.15-.42.54-.98.91-1.47 1.35-.49.44-1 .87-1.52 1.28-.22.17-.2.3-.04.49.3.31.59.64.92 1.02z" fill="#09102a"/><path d="M37.72 100.28c.13-34.78 28.29-62.66 62.72-62.63 34.72.04 62.54 28.35 62.5 62.74a62.64 62.64 0 01-62.66 62.49c-35.11-.01-62.61-28.76-62.56-62.6zm18.69-38.97c-.17.17-.36.33-.52.52a59.35 59.35 0 00-14.26 35.25 58.49 58.49 0 004.53 26.12 59.15 59.15 0 0024.07 27.59 59.34 59.34 0 0029.22 8.29c3.38.06 6.74-.17 10.08-.71.87-.14 1.76-.22 2.6-.52.13.03.26 0 .39-.03 1.64-.37 3.26-.79 4.87-1.27a58.6 58.6 0 0033.85-26.89 58.05 58.05 0 007.78-25.63c.29-4.58.08-9.14-.73-13.67a60.58 60.58 0 00-3.04-11.08 58.34 58.34 0 00-12.55-19.77 58.53 58.53 0 00-23.99-15.08 58.63 58.63 0 00-62.3 16.88z" fill="#fcfcfc"/><path class="wkp_st3" d="M16.9 98.65c1.61-.08 3.18-.03 4.76-.02.63.01.65.02.83-.57l1.39-4.5c.01-.03.06-.06.14-.14.17.46.34.9.48 1.35.38 1.16.74 2.32 1.1 3.48.09.3.23.39.56.39 1.66-.02 3.32-.01 5.04-.01-.1.28-.33.37-.52.5-1.17.84-2.34 1.69-3.53 2.51-.31.21-.37.39-.24.75.53 1.48 1.02 2.97 1.52 4.46.03.08.07.16.01.26-.2.03-.31-.13-.44-.23-1.21-.98-2.52-1.82-3.76-2.76-.19-.14-.32-.15-.52 0-1.29.97-2.6 1.93-3.91 2.89l-.28.17c.17-.85.47-1.58.71-2.34.27-.87.55-1.73.87-2.58.11-.3.02-.43-.21-.59-1.22-.86-2.42-1.73-3.63-2.6-.12-.08-.32-.12-.37-.42zm4.17 6.56c.05-.03.12-.06.03-.13l-.08.08-.04.09.09-.04zm6.14-.18l-.08-.08c-.08.06-.03.1.02.14l.1.16c.09-.1.03-.16-.04-.22zm-2.95-3.98c-.02-.1-.02-.21-.17-.21-.02 0-.04.03-.04.04-.01.15.1.16.2.18.01.3.26.46.41.66.73 1 1.41 2.03 2.22 2.97.03.03.09.08.1.07.08-.05.03-.1-.02-.15-.15-.94-.47-1.83-.82-2.71a.94.94 0 00-.6-.58c-.42-.11-.83-.29-1.28-.27zm-5.32-1.62c-.04-.06-.08-.1-.16-.08-.02 0-.03.03-.04.04l.16.08c.87.67 1.83 1.22 2.74 1.84.07.05.17.11.24.09.61-.15 1.23-.26 1.86-.7-.84-.12-1.55-.35-2.24-.6-.84-.29-1.7-.5-2.56-.67zm5.03-3.91c-.25.09-.23.24-.26.37-.13.56-.31 1.1-.48 1.65-.57 1.8-.7 1.22.41 2.79.04.05.09.08.21.19.41-1.69-.19-3.33.12-5zm-.11 5.78a18.2 18.2 0 00-2.61 3.61 16.7 16.7 0 002.48-1.74c.11-.1.13-.23.13-.36v-1.51zm.39-.65c.61-.06 1.09-.3 1.59-.45.51-.15 1.02-.29 1.52-.47.47-.17 1.01-.16 1.42-.51-.78.11-1.55.1-2.33.09h-1c-.18 0-.37.02-.47.19-.22.36-.56.63-.73 1.15zM170.11 98.61h1.68l3.2.02c.62 0 .62.01.81-.61l1.47-4.63c.34.6.47 1.21.66 1.78.35 1.03.69 2.06 1 3.1.09.29.22.37.51.36 1.62-.03 3.24-.03 4.86-.04.06 0 .13-.01.18.1-.06.21-.28.29-.45.42-1.17.84-2.34 1.69-3.52 2.51-.5.35-.42.34-.26.79.5 1.44.98 2.9 1.47 4.34l.11.39c-.29-.04-.43-.21-.61-.34a301.4 301.4 0 01-3.6-2.64c-.27-.2-.43-.18-.68.02-1.29 1.01-2.68 1.9-3.96 2.93-.03.02-.08.02-.17.04l.38-1.27c.39-1.18.77-2.36 1.19-3.53.11-.32.08-.51-.21-.71-1.2-.83-2.39-1.69-3.58-2.54-.15-.09-.31-.17-.48-.49zm7.49 2.05l1.53-.44c.53-.16 1.06-.31 1.58-.49.47-.17 1-.16 1.52-.49-.16-.03-.2-.06-.24-.05-.99.13-1.97.2-2.97.02-.12-.02-.29 0-.38.08-.45.37-.93.73-1.04 1.37-.31-.04-.43.11-.4.4-.46.42-.76.97-1.12 1.46-.6.82-1.24 1.61-1.7 2.52l-.05.09.09-.05c.88-.57 1.71-1.21 2.54-1.85.21-.16.25-.4.25-.65l-.01-1.52h.4c0 .26.16.45.3.65l2.07 2.84c.09.13.19.29.46.29-.35-1.04-.67-2.04-1.02-3.04a.76.76 0 00-.53-.47c-.42-.12-.84-.29-1.29-.28a.37.37 0 01.01-.39zm-.62.03c-.64-.03-1.09-.25-1.57-.39l-2.66-.8c-.14-.04-.27-.08-.48.05l2.65 1.76c.09.06.22.12.31.1.54-.18 1.14-.27 1.75-.72zm.21-5.08l-.08-.01c-.13.44-.23.89-.4 1.31-.18.43-.29.88-.43 1.33-.3.95-.01 1.63.91 2.17v-4.8zm3.3 9.51l-.03-.02v.04l.03-.02z"/><path class="wkp_st4" d="M134.93 26.67c.39-.59.55-1.23.97-1.72l3.05 1.53c.32.16.51.39.62.73.34 1.05.68 2.1 1.04 3.15.08.23.08.4-.04.62a633.7 633.7 0 00-3.68 7.38c-.23.47-.54.73-1.06.88-1.02.3-2.02.67-3.02 1.03-.23.08-.42.09-.63-.01l-3.24-1.59c.24-.47.5-.9.7-1.36.14-.32.31-.3.57-.17.73.38 1.47.73 2.2 1.11.22.11.38.15.62.04.34-.16.7-.31 1.06-.37.8-.14 1.23-.6 1.56-1.32.91-1.92 1.89-3.82 2.85-5.71.15-.3.17-.56.04-.88-.19-.47-.34-.96-.48-1.45a.9.9 0 00-.54-.61l-2.59-1.28zM124.77 180.4c-.66.2-1.28.38-1.89.58-.18.06-.34.08-.5-.04-.77-.53-1.63-.89-2.45-1.32a1.02 1.02 0 01-.56-.68c-.85-2.85-1.67-5.7-2.57-8.53-.25-.79-.24-1.42.24-2.1.36-.5.62-1.07.91-1.62a.74.74 0 01.48-.42l1.58-.49c.21-.07.34-.05.39.19.03.15.09.3.14.44.11.36.37.75.25 1.08-.13.33-.63.21-.96.33-.31.11-.58.2-.65.57a.27.27 0 01-.06.12c-.65.71-.47 1.45-.2 2.27.7 2.17 1.34 4.36 1.98 6.55.16.54.34 1 .95 1.14l.12.06c.55.47 1.14.47 1.79.18.39-.17.44-.11.59.34l.42 1.35zM108.65 169.61c.03.24-.03.42-.31.37-1-.18-1.54.43-2.05 1.13a1 1 0 00-.2.79c.34 2.68.65 5.37.97 8.06.01.11-.01.26.05.32.41.44.91.77 1.4 1.11.23.16.56.07.84.01l.19-.05c.47-.07.5-.05.56.4.05.37.08.75.15 1.12.05.27-.07.35-.31.37-.55.05-1.1.13-1.65.2-.19.02-.33-.05-.48-.17a88.57 88.57 0 00-2.16-1.67.96.96 0 01-.42-.71c-.36-3.02-.72-6.04-1.11-9.06-.08-.64.02-1.15.47-1.63.47-.5.86-1.08 1.28-1.62.14-.18.28-.32.54-.34.55-.05 1.1-.12 1.65-.21.22-.03.33.02.37.25l.22 1.33zM125.02 178.29c1.12.01 1.47-.85 1.9-1.61a.8.8 0 00.06-.69c-.78-2.56-1.55-5.13-2.3-7.71-.11-.38-.28-.63-.62-.79-.22-.11-.45-.2-.65-.33a.92.92 0 00-1.05-.05c-.11.06-.26.06-.38.11-.19.08-.29.01-.35-.17l-.41-1.33c-.07-.21.05-.28.21-.33l1.52-.47c.17-.05.3-.01.44.07l2.46 1.32c.26.14.34.36.42.63.91 3.08 1.83 6.15 2.76 9.22.07.22.08.4-.05.62a72.4 72.4 0 00-1.32 2.46.87.87 0 01-.59.48c-.41.1-.81.23-1.21.36-.2.07-.34.05-.4-.18-.12-.52-.27-1.02-.44-1.61zM111.18 167.69c.16-.03.3.02.45.15.65.54 1.3 1.08 1.99 1.57.31.22.42.48.46.82l.44 3.64c.23 1.94.45 3.88.7 5.82a.94.94 0 01-.21.79c-.55.67-1.06 1.36-1.6 2.05-.08.1-.16.26-.26.29-.6.18-1.22.19-1.83.26-.12.01-.19-.1-.2-.22l-.16-1.39c-.02-.16.04-.27.21-.26.81.05 1.28-.43 1.71-1.03.28-.39.42-.72.34-1.25-.36-2.55-.65-5.11-.94-7.67-.04-.38-.12-.69-.49-.87-.12-.06-.22-.15-.32-.24-.4-.4-.83-.59-1.43-.41-.5.15-.52.07-.57-.49l-.13-1.06c-.03-.19.04-.29.24-.31l1.6-.19zM60.62 167.6c.26-.42.5-.77.71-1.14.16-.29.3-.35.61-.15.77.49 1.57.91 2.35 1.38.3.18.58.18.94.13.89-.12 1.41-.61 1.78-1.38.25-.54.57-1.05.89-1.56.14-.23.13-.42.1-.68-.11-1.03-.65-1.67-1.59-2.07-.55-.23-1.05-.58-1.57-.88-.27-.15-.42-.3-.17-.62.23-.3.41-.63.58-.97.14-.28.29-.27.53-.13 1.03.61 2.06 1.22 3.1 1.81.27.15.43.35.51.65.22.88.45 1.76.7 2.63.05.18-.01.3-.09.43-.7 1.21-1.42 2.41-2.1 3.62-.14.24-.32.33-.57.39-.86.22-1.71.46-2.56.7-.16.05-.3.06-.44-.03-1.23-.69-2.45-1.4-3.71-2.13zM149.02 33.07c.6.31 1.03.73 1.52 1.07.15.11.17.22.1.39-1.6 3.7-3 7.48-4.55 11.2-.41.98-.79 1.97-1.18 2.96-.03.08-.07.16-.17.21-.44-.32-.88-.65-1.34-.96-.2-.14-.23-.26-.13-.5a457.9 457.9 0 001.89-4.68l3.74-9.38.12-.31zM86.98 167.59c.62-.04 1.17.17 1.75.18.25 0 .26.21.28.38l.13 1.46.45 5.5.47 5.5.23 2.97-1.73-.24c-.22-.03-.23-.19-.24-.34-.06-.53-.14-1.06-.17-1.59-.1-2.37-.42-4.73-.59-7.09-.16-2.19-.41-4.37-.61-6.56-.01-.02.01-.07.03-.17z"/><path class="wkp_st3" d="M28.34 58.04l.91-1.22c.15-.2.3-.26.56-.14 2.34 1.06 4.68 2.09 7.03 3.14l6.53 2.92c.41.18.43.2.19.55-.25.37-.54.71-.78 1.08-.16.25-.31.25-.55.14-.78-.38-1.56-.74-2.34-1.1-3.78-1.74-7.53-3.55-11.34-5.24l-.21-.13z"/><path class="wkp_st4" d="M92.26 31.73c.03.27.03.53.08.79.06.31-.09.39-.36.4-.42.02-.84.04-1.26.09-.28.04-.33-.09-.35-.33l-.23-2.72-.44-6.11-.44-5.31c-.07-.8-.06-.82.76-.85.37-.02.81-.27 1.09-.01.24.22.1.67.13 1.02.17 1.9.32 3.81.48 5.71l.49 6.24.07 1.06-.02.02z"/><path class="wkp_st3" d="M126.44 37.45c2.27-4.52 4.52-8.97 6.74-13.43.16-.33.31-.31.55-.15.42.28.95.36 1.3.77l-.59 1.25-4.99 9.9c-.37.73-.73 1.46-1.07 2.21-.12.27-.24.26-.45.15-.48-.24-.96-.45-1.49-.7z"/><path class="wkp_st4" d="M104.14 17.2c.54.1 1.04.12 1.55.13.23.01.32.1.3.33l-.16 1.92c-.25 2.54-.51 5.07-.75 7.61-.16 1.63-.29 3.27-.43 4.9-.05.53-.08.55-.61.49-.29-.03-.57-.07-.86-.08-.57-.02-.53 0-.49-.58.04-.66.12-1.33.18-1.99L104.04 18c0-.25.05-.51.1-.8zM64.67 159l-3.72 6.4c-1.27 2.18-2.58 4.34-3.79 6.56-.09.17-.2.23-.37.13a.2.2 0 01-.06-.04l-1.38-.79c.1-.51.46-.9.71-1.33l6.64-11.38.2-.35c.08-.12.18-.21.33-.11.48.31 1.01.52 1.44.91zM54.25 50.56c-.37.31-.72.58-1.05.87-.42.36-.41.36-.79-.08l-2.09-2.42-7.53-8.75 1.45-1.27 10.01 11.65z"/><path class="wkp_st3" d="M48.86 56.11c-.31.43-.59.8-.85 1.18-.12.17-.24.21-.45.12-2.71-1.15-5.42-2.29-8.14-3.42-1.88-.79-3.75-1.59-5.66-2.3l-.31-.12c-.15-.06-.22-.15-.11-.3l.9-1.15c.1-.13.2-.09.34-.03l6.61 2.75 6.9 2.91c.26.1.51.23.77.36zM136.33 42.69l11.55-9.21c-.19.8-.55 1.38-.75 2.02a3.23 3.23 0 01-1.16 1.57c-1.33 1.04-2.61 2.12-3.98 3.25l1.18.86 1.03.74c.22.15.3.31.19.56l-.43 1.02-2.54-1.86c-.07-.05-.15-.1-.21-.16-.23-.22-.4-.24-.67 0-.8.7-1.65 1.35-2.46 2.04-.2.17-.32.24-.55.04-.38-.31-.79-.57-1.2-.87zM86.19 168.63l.24 2.83c.01.1-.03.22-.08.32-.78 1.81-1.57 3.61-2.43 5.4.55.19 1.14.14 1.69.27.34.08.7.12 1.05.18.25.04.4.15.39.44v1.02c-.83-.02-1.62-.23-2.43-.34l-1.31-.19-.52 1.14c-.32.73-.64 1.46-.93 2.2-.09.22-.22.26-.4.23l-1.52-.25 6.12-13.29.13.04zM115.49 34.15l-1.25-.32c-.23-.06-.17-.21-.13-.37l.44-1.6L118 19.77l.15-.51c.06-.22.2-.27.4-.2l.06.02c.38.18.95.09 1.14.43.18.34-.13.8-.24 1.2l-3.69 13.05c-.05.22-.09.47-.33.39zM127.79 21.91l-.08.26-3.88 13.68-.11.38c-.05.2-.17.23-.35.17l-.06-.02c-.41-.17-1.02-.08-1.22-.41-.21-.33.18-.81.27-1.24.21-1.08.62-2.1.88-3.16.41-1.64.96-3.24 1.41-4.87l1.38-4.86.11-.38c.04-.12.14-.19.25-.15.43.12.85.26 1.27.39.1.04.12.12.13.21zM134.83 159.55l1.23-.64c.21-.12.34-.13.46.13 1.75 3.71 3.72 7.3 5.55 10.97.35.71.74 1.41 1.14 2.1.13.22.14.35-.11.47l-1.26.62-7.01-13.65zM127.45 163.29c.6-.18 1.01-.53 1.53-.72l6.96 13.63c-.4.24-.87.39-1.25.71-.17.14-.27-.03-.35-.17l-.92-1.77c-1.97-3.88-3.95-7.74-5.97-11.68z"/><path class="wkp_st4" d="M70.7 176l-1.65-.54c-.27-.09-.16-.26-.1-.43l.87-2.37 3.14-8.68c.16-.43.17-.45.61-.29l1.39.5L70.7 176zM77.32 36.45c-.47.19-.95.36-1.41.57-.27.12-.38.09-.49-.19-.38-1.02-.79-2.02-1.17-3.04l-3.03-8.09c-.16-.42-.16-.42.27-.59.35-.13.71-.25 1.05-.41.25-.11.34-.04.43.2.49 1.33 1.01 2.65 1.5 3.97.93 2.48 1.82 4.99 2.83 7.45.03.04.02.09.02.13z"/><path class="wkp_st3" d="M156.31 57.08l10.41-7.1c.32.46.61.9.93 1.32.16.21.13.33-.09.47-1.04.68-2.06 1.38-3.09 2.08-2.21 1.51-4.43 3.02-6.63 4.55-.41.28-.43.31-.7-.11-.26-.4-.53-.77-.83-1.21z"/><path class="wkp_st0" d="M96.4 181.8c.04-2.59.07-5.19.15-7.78.02-.8.09-1.59.09-2.39 0-.23.08-.32.32-.29.29.03.58.04.86.05.81.03.75-.16.73.82l-.24 11.24c-.01.64.01.59-.57.58h-.87c-.56.01-.52.01-.51-.49v-1.73l.04-.01z"/><path class="wkp_st3" d="M148.2 48.35l9.07-8.69 1.14 1.14c.18.18.1.28-.06.43-1.03.98-2.04 1.98-3.06 2.97-1.81 1.74-3.63 3.46-5.42 5.22-.27.26-.41.25-.63.01l-1.04-1.08z"/><path class="wkp_st4" d="M61.86 34.01l2.11-1.26c.18-.11.35-.12.57-.06.51.15 1.02.27 1.54.39.3.07.51.19.67.47a245.8 245.8 0 002.05 3.5c.17.28.21.53.1.85-.23.72-.4 1.45-.58 2.18-.07.3-.19.52-.48.67-.41.22-.8.48-1.2.72-.12.07-.24.14-.34-.02l-.79-1.31c-.11-.18-.04-.28.13-.36.16-.07.31-.17.47-.25.29-.16.45-.39.54-.72.29-1.06.31-1.06-.26-2.03-.3-.52-.6-1.03-.92-1.54-.3-.48-1.08-.65-1.55-.37l-.57.34c-.52.32-.52.32-.83-.17l-.66-1.03z"/><path class="wkp_st3" d="M48.36 54.93l-2.87-1.23c-.22-.09-.35-.27-.49-.44l-6.46-7.28-.71-.77 1.07-1.44 3.06 3.45 6.33 7.2c.09.1.16.21.24.32l-.17.19z"/><path class="wkp_st4" d="M62.01 35.92c-.01.14-.11.18-.21.24-.6.34-1.2.68-1.78 1.03a.74.74 0 01-.63.08c-.56-.14-1.12-.26-1.68-.37-.26-.05-.41-.17-.55-.41a89.35 89.35 0 00-1.88-3.13c-.19-.3-.19-.54-.08-.86.21-.65.37-1.32.52-1.99a.99.99 0 01.53-.71c.43-.22.84-.5 1.25-.76.22-.14.37-.18.52.12.2.39.46.76.7 1.13.11.17.09.28-.1.37l-.06.03c-1.28.69-.9.36-1.32 1.72a.83.83 0 00.1.75l1.02 1.64c.26.41 1.09.65 1.52.42.33-.18.64-.39.95-.6.15-.1.27-.15.39.03l.75 1.18c.02.01.03.05.04.09z"/><path class="wkp_st3" d="M120.69 20.19c.39 1.97.78 3.91 1.15 5.86.26 1.33.48 2.66.74 3.99.06.29.06.55-.03.84-.3 1-.57 2-.85 3.01-.03.12-.05.26-.21.35l-1.93-9.93a1.35 1.35 0 010-.72l.89-3c.04-.14.05-.32.24-.4zM139.97 172.01l-5.65-4.1-2.15-1.57a2.06 2.06 0 01-.72-.85c-.48-1-.99-1.98-1.42-3.04l1.45 1.03c2.09 1.53 4.17 3.08 6.29 4.58a4.31 4.31 0 011.34 1.69l1.03 2.08-.17.18zM76.55 22.32c-3.24 1.23-6.47 2.37-9.68 3.65-.29-.46-.43-.97-.6-1.47-.07-.19-.01-.31.22-.39l8.08-3.01 1.05-.41c.2-.08.32-.03.4.19.16.48.34.94.53 1.44z"/><path class="wkp_st4" d="M102.85 168.87v1.43c.01.27-.13.34-.37.33-.44-.01-.89.01-1.33-.01-1.86-.09-3.72-.14-5.59-.14-.93 0-1.86-.04-2.8-.05-.24 0-.38-.07-.36-.34.03-.46-.18-1.03.07-1.36.25-.32.83-.1 1.27-.09 2.97.04 5.95.11 8.92.17.05-.01.09.02.19.06zM67.92 177.93l.48-1.3c.16-.43.19-.46.62-.31 1.09.37 2.17.75 3.26 1.14 1.48.53 2.95 1.08 4.42 1.62.44.16.43.18.28.6-.11.31-.23.62-.33.94-.14.43-.14.44-.55.29-1.23-.44-2.46-.87-3.68-1.33-1.43-.53-2.86-1.07-4.31-1.54-.06-.01-.11-.06-.19-.11z"/><path class="wkp_st3" d="M146.29 50.36l1.29-1.4 6.29 6.53-1.37 1.31-6.21-6.44zM34.05 52.72c.96.39 1.92.76 2.86 1.17.19.08.36.26.5.43 2.02 2.47 4.04 4.95 6.02 7.49-.61-.28-1.2-.58-1.82-.82a5.72 5.72 0 01-2.45-1.85c-1.67-2.07-3.4-4.1-5.1-6.15-.04-.05-.06-.11-.09-.17a.27.27 0 00.08-.1zM153.98 58.6c.62-.3 1.09-.67 1.62-1.03l1.33 1.95c1.19 1.73 2.38 3.47 3.59 5.19.17.25.23.38-.09.56-.42.24-.8.55-1.25.87l-5.2-7.54zM98.89 17.02a228.72 228.72 0 01-6.19 8.99c-.05-.54-.06-1.08-.15-1.61-.13-.76.1-1.35.55-1.96a135.8 135.8 0 003.26-4.7c.29-.43.61-.66 1.12-.66.42.01.84-.03 1.41-.06zM100.14 32.25l-1.57.16c-.26.03-.4-.08-.52-.3a799.87 799.87 0 00-3.59-6.38c-.11-.2-.15-.34 0-.53.32-.42.61-.87.96-1.39l4.72 8.44zM59.16 39.91c.53-.24.97-.5 1.39-.79.18-.13.3-.13.42.09.22.41.48.8.71 1.2.14.25.32.42.63.41.11 0 .23.01.32.06.64.37 1.19.16 1.69-.27.24-.2.38-.13.52.11.25.44.52.87.81 1.35l-1.69.99c-.16.1-.32.09-.5.04-.83-.22-1.66-.48-2.51-.62a.57.57 0 01-.42-.3l-1.37-2.27zM105.46 32.08c.03-.4-.07-.89.19-1.15.25-.26.72-.03 1.08 0 1.61.14 3.22.32 4.83.46.33.03.48.14.43.48-.04.28-.06.57-.09.86-.07.61-.07.62-.65.56-1.83-.17-3.66-.35-5.5-.51-.27-.02-.35-.12-.32-.37l.03-.33zM113.05 19.96c-.61.06-1.16-.07-1.7-.12-1.41-.13-2.82-.28-4.23-.4-.32-.03-.43-.14-.39-.45.04-.37.07-.75.08-1.13.01-.3.13-.36.42-.34 1.85.14 3.7.34 5.55.53.34.03.46.15.43.49-.05.46-.06.93-.16 1.42zM58.61 44.38l1.17 1.41c-1.57 1.34-3.14 2.63-4.63 4.03-.14.13-.25.16-.39.01l-.96-1.11c-.12-.14-.13-.25.04-.38 1.53-1.21 2.98-2.52 4.45-3.8.08-.08.16-.17.32-.16zM46.19 39.81l-1.29-1.44a1092.25 1092.25 0 014.67-4.05c.12-.11.23-.11.34.02l.95 1.11c.16.19.06.28-.1.41l-4.21 3.56c-.12.11-.22.24-.36.39zM58.56 28.43l1.57-.97c.17-.1.34-.15.56-.08.76.23 1.53.42 2.3.61a.7.7 0 01.5.38c.25.46.53.92.81 1.37.14.22.11.33-.13.45-.43.22-.87.44-1.27.76-.29-.19-.38-.5-.52-.76-.15-.27-.34-.45-.66-.49a1.73 1.73 0 01-.51-.12c-.47-.21-.84-.06-1.22.23-.38.28-.39.26-.65-.14l-.78-1.24zM110.54 25.05c-.06.89-.07.89-.96.82-1.04-.09-2.08-.2-3.12-.28-.3-.02-.39-.14-.35-.41l.01-.13c.04-.35-.02-.78.16-1.04.22-.32.65-.05.99-.04.95.05 1.9.16 2.85.25.48.04.48.05.44.56l-.02.27zM50.21 44.51l-.91-1.03c-.17-.18-.18-.31.04-.49.52-.41 1.03-.84 1.52-1.28.49-.44 1.04-.81 1.47-1.35.44.35.72.78 1.06 1.15.19.21-.06.31-.17.41l-2.07 1.77-.94.82z"/><path class="wkp_st5" d="M139.97 172.01l.17-.17c.04.05.1.08.13.14.04.07.12.15.05.22-.08.07-.16.01-.22-.05-.06-.03-.09-.09-.13-.14zM48.36 54.93l.18-.18c.11.03.15.13.21.21l-.13.11c-.1-.01-.2-.03-.26-.14zM48.76 54.97c.06.05.17.12.12.18-.09.1-.18.02-.24-.07a.43.43 0 01.12-.11z"/><path class="wkp_st6" d="M112.13 157.84c-.84.3-1.73.38-2.6.52-3.34.53-6.7.77-10.08.71a59.4 59.4 0 01-29.22-8.29 58.74 58.74 0 01-14.85-12.63 58.38 58.38 0 01-12.96-27.61c-.79-4.46-1.03-8.95-.79-13.47a59.35 59.35 0 0114.26-35.25c.16-.18.34-.34.52-.52.83-.01 1.67.13 2.49-.14 1.49.09 2.97-.05 4.53-.17-.41-.48-.74-.92-1.13-1.3-.34-.33-.58-.79-1.09-.92-.03-.18-.31-.26-.17-.53.38.01.74-.09 1.09-.27.24.16.5.14.77.14h5.78l.4-.01c.1 0 .18-.05.19-.14.01-.05-.04-.13-.08-.17-.16-.12-.32-.24-.49-.33-.66-.36-1.34-.69-1.98-1.07-.54-.33-1.18-.5-1.65-.95a.47.47 0 01.4-.26c.48.17.97.27 1.49.27h3.4c.38 0 .77-.06 1.13.02 1.14.26 2.29.1 3.44.21 1.78.17 3.59-.07 5.38.15.98.03 1.96-.05 3.07.16-.49-.64-.83-1.21-1.49-1.49-.03-.08-.03-.18-.08-.25-.23-.3-.47-.58-.71-.87-.05-.07-.12-.14-.07-.23.05-.09.14-.1.23-.09l.32.08c.84.18 1.67.41 2.49.68.18.02.36.01.53.05L89.3 55c1.48.35 2.95.74 4.45 1l.09.05a.92.92 0 01-.05-.08c-.03-.04-.04-.08-.08-.11-1.87-1.38-3.8-2.66-5.72-3.96a1.06 1.06 0 00-.75-.2c-.01-.11-.03-.22-.13-.3-.39-.29-.77-.6-1.17-.87-.93-.64-1.88-1.26-2.82-1.88-.19-.13-.39-.25-.47-.52.36-.03.59.18.86.25.98.26 1.95.57 2.93.86l3.75 1.12 7.75 2.4c2.97.91 5.93 1.83 8.9 2.73.78.23 1.55.55 2.38.59.2.09.39.21.6.28 1.34.44 2.69.9 4.04 1.3 2.22.66 4.46 1.26 6.65 2.04.2.07.46.26.62.07.2-.24-.1-.43-.22-.62-.95-1.55-2.23-2.85-3.28-4.32-.21-.29-.46-.56-.61-.88.1-.07.16-.07.22-.02.94.66 1.87 1.34 2.82 1.97 2.09 1.4 4.24 2.71 6.14 4.38.32.28.57.7 1.05.77-.01.14.06.24.17.34a53.12 53.12 0 019.46 10.63c.22.32.39.7.76.9-.01.18.06.33.16.49a49.2 49.2 0 014.64 10.04c.15.45.18.96.54 1.33-.02.2.03.39.07.59.34 1.4.71 2.79.98 4.2.32 1.65.54 3.31.71 4.98.18 1.81.25 3.62.37 5.42-.01.95.06 1.91-.04 2.85-.13 1.18-.2 2.36-.35 3.54-.15 1.17-.22 2.36-.42 3.53-.24 1.36-.43 2.73-.76 4.08-.14.57-.31 1.15-.3 1.75a2.7 2.7 0 00-.27.6c-.31 1.17-.62 2.35-1.05 3.49-.07.18-.17.37-.12.58.17.8.23 1.62.3 2.43a8.46 8.46 0 01-.42 4.11c-.3.71-.61 1.42-.87 2.15a33.51 33.51 0 00-1.45 5.02c-.28.74-.41 1.53-.63 2.29a20.5 20.5 0 01-1.52 3.89 12.45 12.45 0 01-3.21 3.85 18.45 18.45 0 01-5.93 3.17c-1.61.55-3.28.88-4.92 1.32-.08.02-.18.03-.23-.1.21-.49.64-.82 1.01-1.19.24-.24.43-.49.49-.84.16-.93.02-1.83-.23-2.73-.12-.42-.22-.86-.32-1.28-.26-.87-.54-1.73-.79-2.6-.76-2.64-1.5-5.28-2.27-7.92-.34-1.17-.62-2.35-1.05-3.49a21.33 21.33 0 00-.87-3.25c-.18-.54-.72-.73-1.28-.57-.3.08-.59.19-.88.29-.39.14-.58.4-.58.85 0 .88-.17 1.75-.22 2.63-.04.7-.23 1.4-.14 2.11-.05.17-.13.34-.15.51-.13 1.58-.22 3.17-.41 4.75-.11.94-.16 1.89-.31 2.83-.31 1.94-.48 3.9-.76 5.84l-.51 3.47c-.09.58-.22 1.16-.28 1.75-.16 1.51-.52 2.97-.76 4.47-.1.61-.31 1.19-.32 1.81-.2.42-.22.88-.37 1.31-.13.29.02.44.21.57zm6.52-46.51c.11-.08.03-.14-.02-.2-.1-.22-.18-.45-.29-.67-1.26-2.62-2.52-5.23-3.8-7.84-.15-.31-.17-.53.15-.72.13-.08.23-.2.35-.31l3.18-2.72c-3.05-3.02-3.42-8.17-2.79-11.01l.12.43c.29 1.26.76 2.46 1.36 3.6 1.92 3.65 4.74 6.11 8.93 6.73.35.05.37.2.36.48-.08 2.61.19 5.19.83 7.72a19.2 19.2 0 003.48 7.34 16 16 0 0010.01 5.83c.29.05.39-.07.47-.32.14-.47.3-.93.45-1.39a62.77 62.77 0 002.65-16.78c.07-3.69-.21-7.36-.89-11a48.57 48.57 0 00-3.8-11.88A48.44 48.44 0 00128.77 64a51.84 51.84 0 00-6.86-5.59c-.1-.14-.22-.24-.41-.25 0 .2.11.31.25.41l2.55 3.23a176.2 176.2 0 01-7.28-2.12l-7.15-2.21-7.22-2.22c-2.39-.73-4.77-1.46-7.16-2.17-2.38-.71-4.75-1.48-7.21-2.17.09.23.19.27.28.34a2512.47 2512.47 0 0010.46 6.98h.02c-.12.29-.31.08-.44.04-1.26-.34-2.53-.64-3.8-.93l-6.14-1.45c-1.27-.3-2.53-.64-3.81-.91-.37-.08-.73-.29-1.14-.17.05-.04.04-.06-.02-.07l-.02.04c-.01.09-.01-.04.05.02-.05.14.07.19.14.27l1.48 1.53c.09.1.27.18.18.36l-16.54-.51c.18.29.45.4.7.53l3.71 1.94c.12.06.3.06.3.28-3.49-.07-6.96-.01-10.59-.01.97 1.03 2.02 1.79 2.94 2.84-2.12-.05-4.1.12-6.07.13-.11 0-.22.03-.33.04l-.04.05-.04.08 5.27 1.45-1.93 1.42-3.27 2.4c-.17.12-.35.21-.25.52.71 2.22 1.38 4.45 2.1 6.66.12.37.06.54-.22.78l-7.21 6.22-1.91 1.62 7.99 3.18c-.03.25-.24.32-.39.44l-3.68 2.75c-.18.13-.42.23-.48.55h1.65c-.72 1.06-1.49 1.98-2.24 3.09l4.96-.67c-.12.32-.31.43-.47.56l-2.01 1.65c-.11.09-.28.16-.17.41h5.44l-4.31 4.91 13.31-1.99c-.06.28-.28.41-.46.57-.84.76-1.69 1.5-2.53 2.27-1.15 1.04-2.34 2.04-3.45 3.13-.14.02-.29.07-.25.23.03.12.18.07.28.03l2.98-.44c-.86 1.59-1.78 3.02-2.55 4.54l-.13.19c-.09.06-.19.16-.12.25.08.09.19.01.26-.07l.11-.15.03-.04 4.43-3.05c.98-.67 1.93-1.4 2.96-2.01l.07.07-1.7 2.55-1.78 2.66c2.38-1.11 4.66-2.32 6.98-3.46l.09.11-4.89 8.86c1.63-.82 3.15-1.71 4.68-2.59l4.7-2.72c-.24 2.26-.64 4.38-.88 6.61 1.6-.53 3.09-1 4.57-1.54.32-.12.46-.06.68.15l2.59 2.5 3.1 2.98 5.92-6.71c.67 2.14 1.23 4.24 1.92 6.32l.77-.44c1.66-.89 3.32-1.78 4.97-2.69.24-.13.35-.06.51.08l8.98 7.55c.21.18.37.43.72.54a12 12 0 00-.66-6.56 8.64 8.64 0 00-3.75-4.19c-.22-.13-.37-.27-.4-.56-.07-.5-.18-1-.29-1.5-.68-3.12-1.38-6.23-2.05-9.36-.1-.48-.3-.96-.29-1.59.32.33.55.59.8.83l9.56 9.39c.08.08.17.13.26.2.02.08.05.16.16.1-.01.05.01.07.05.07.01 0 .02-.04.01-.05.01-.06-.02-.06-.05-.01zm-31.18 42.28l.05-.08-.07.05-.05.07.07-.04zm-4.14-14.27l.18-.06c-.01-.02-.02-.05-.04-.05-.08-.01-.12.03-.15.1l-.05.07a.17.17 0 01.06-.06zm17.2 14.92c.19-.08.34-.23.45-.39.48-.73 1.16-1.28 1.72-1.93 1.2-1.39 2.49-2.7 3.75-4.05.24-.26.48-.52.7-.8.39-.47.82-.92 1.35-1.33.26.59.2 1.18.29 1.73.14.85.21 1.71.34 2.56l.61 4.32c.09.65.14 1.31.45 1.92.15-.1.17-.26.22-.41.6-1.86.94-3.77 1.31-5.68.27-1.36.5-2.73.73-4.1.16-.98.32-1.96.46-2.94.19-1.33.46-2.65.6-3.99.09-.87.23-1.75.35-2.62.12-.83.2-1.66.32-2.49.15-1.14.35-2.27.48-3.41.12-1.05.23-2.11.32-3.16.03-.35-.06-.54-.29-.73-1.24-1.03-2.5-2.04-3.73-3.09-1.42-1.2-2.79-2.46-4.22-3.64-.4-.34-.76-.73-1.22-1.06l-3.79 9.62a2.57 2.57 0 01-1.28 1.52c-.8.39-1.55.86-2.33 1.28-2.09 1.12-4.18 2.24-6.28 3.34-2.1 1.11-4.21 2.19-6.31 3.3-.6.31-1.16.69-1.74 1.04 4.23-.42 8.35-1.35 12.54-2 .02.3-.12.48-.22.67-.62 1.15-1.22 2.32-1.87 3.45l-1.39 2.5c-.78 1.44-1.6 2.86-2.4 4.29-.59 1.04-1.19 2.07-1.75 3.13-.33.62-.75 1.21-.87 1.93-.1.03-.21.04-.19.18 0 .02.03.04.04.04.14.01.15-.1.18-.2.07-.05.14-.1.21-.17 1.36-1.28 2.51-2.74 3.75-4.12l3.44-3.87c.47-.53.96-1.04 1.42-1.58.8-.92 1.58-1.85 2.38-2.76.53-.6 1.13-1.14 1.6-1.77.48-.64 1.08-1.17 1.59-1.79.6-.74 1.16-1.51 1.86-2.16.12-.11.21-.3.4-.28.09.05.08.12.07.18l-1.21 5.9c-.36 1.71-.77 3.4-1.11 5.11-.38 1.91-.82 3.8-1.22 5.7-.17.95-.49 1.85-.51 2.81l-.06.03.03.03.03-.06zm15.32-39.92c.23-.06.31.03.38.11.47.56.96 1.11 1.41 1.69a37 37 0 015.68 10.71 45.87 45.87 0 012.26 12.98c.04 1.57.08 3.15-.09 4.72-.11 1.01-.08 2.04-.66 2.91.08.09.14.09.21.07a23.8 23.8 0 006.47-2.56 14.63 14.63 0 004.38-4.02 15.68 15.68 0 002.36-5.47c.71-3 1.51-5.97 2.78-8.8.23-.51.3-1.05.33-1.62.04-.71 0-1.41-.02-2.12l-.02-1.13c-.02-.53-.07-.56-.52-.35l-.3.15c-.63.29-1.26.5-1.97.53a5.46 5.46 0 01-2.85-.76c-.6-.32-1.2-.68-1.87-.87-1.5-.44-3.02-.71-4.58-.66a1.4 1.4 0 01-1.12-.47c-.86-.93-1.74-1.84-2.61-2.76-.21-.23-.44-.44-.64-.68-.62-.76-1.34-1.42-2.03-2.11-.34-.34-.44-.31-.86-.02-.33.23-.63.49-.91.78-.24.25-.48.26-.77.05-.27-.2-.52-.42-.75-.65a4166.2 4166.2 0 01-6.65-6.64 2.55 2.55 0 00-.96-.68c-.11.21-.08.38-.08.55 0 .82.08 1.64.12 2.46.06 1.02.2 2.03.18 3.05-.01.55.2 1 .72 1.32.45.28.79.71 1.12 1.13a17.17 17.17 0 012.55 4.8c.41 1.12.78 2.26 1.11 3.41.08.27.11.61.52.57.41-.04.65.21.9.47.35.37.5.83.63 1.3l1.36 4.87c.76 2.67 1.51 5.33 2.28 7.99.33 1.15.69 2.29 1.04 3.44.07.24.16.47.35.63.16.13.29.12.32-.12.02-.15.01-.31.01-.47.02-.83-.18-1.63-.26-2.44a52.1 52.1 0 00-.96-5.83 60.26 60.26 0 00-2.66-9.12 47.15 47.15 0 00-3.8-7.83c-.5-.8-1-1.63-1.53-2.51zm9.84-4.77l-.39-1.57c-.08-.35-.27-.5-.64-.55a4.25 4.25 0 01-1.83-.74c-1.33-.93-1.25-2.43.16-3.21.39-.22.81-.36 1.25-.43.18-.03.29-.11.27-.3l-.16-1.66c-.02-.15-.1-.24-.27-.2a7.38 7.38 0 00-3.42 1.53c-1.52 1.33-1.98 4.52.7 6.07 1.34.76 2.8.95 4.33 1.06zm-38.51 44.47c.02-.03.06-.08.05-.1-.02-.05-.07-.05-.11-.01l-.03.06c.01.05.04.07.09.05z"/><path d="M139.33 134.13c.33-1.72.86-3.38 1.45-5.02.26-.73.57-1.44.87-2.15.55-1.33.54-2.72.42-4.11-.07-.81-.12-1.63-.3-2.43-.05-.21.05-.4.12-.58.42-1.14.73-2.32 1.05-3.49.06-.22.16-.41.27-.6.35.01.63-.19.92-.34 2.96-1.57 5.91-3.13 8.86-4.71 1.11-.6 2.2-1.23 3.31-1.84.39-.21.6-.51.62-.95.06-1.04.22-2.06.3-3.1.13-1.52.22-3.04.25-4.57.02-1.2-.1-2.39-.17-3.58-.03-.53-.05-1.07-.14-1.58-.09-.47-.04-.96-.16-1.4-.2-.05-.31.04-.43.1l-3.45 1.86c-2.1 1.14-4.2 2.29-6.32 3.41-.58.31-1.11.73-1.74.94-.12-1.81-.19-3.62-.37-5.42a55.25 55.25 0 00-.71-4.98c-.28-1.41-.64-2.8-.98-4.2a1.7 1.7 0 01-.07-.59c.25-.02.46-.17.67-.28.78-.42 1.54-.87 2.33-1.28 2.36-1.23 4.7-2.5 7.02-3.79.45-.25.46-.29.24-.78l-1.2-2.67a56.61 56.61 0 00-3.93-7.01c-.31-.47-.59-.97-1-1.37-.22.15-.39.29-.59.39-2.26 1.23-4.53 2.43-6.78 3.68-.71.39-1.49.68-2.1 1.25-.37-.2-.54-.58-.76-.9a52.27 52.27 0 00-9.46-10.63c-.11-.1-.18-.19-.17-.34.21.02.39-.07.56-.17 2.11-1.23 4.29-2.31 6.43-3.48l1.87-1.01c.37-.21.4-.33.09-.57-1.07-.82-2.13-1.66-3.24-2.43a62.29 62.29 0 00-8.55-4.98c-.48-.23-.87-.35-1.33.01-.27.21-.63.33-.94.5-2.25 1.23-4.5 2.48-6.76 3.7-1.66.9-3.34 1.74-4.99 2.66-.41.23-.92.35-1.18.8-.83-.04-1.6-.36-2.38-.59-2.97-.89-5.94-1.81-8.9-2.73l-7.75-2.4c.17-.18.37-.31.59-.42 1.5-.82 2.99-1.66 4.5-2.44 2.5-1.3 4.96-2.67 7.44-4 .09-.05.22-.08.17-.23-.04-.03-.07-.07-.11-.07l-.53-.02c-2.28 0-4.56-.02-6.84.24-1.07.12-2.17.16-3.23.34a59.42 59.42 0 00-15.73 4.69 56.1 56.1 0 00-8.87 5.09c-.72.51-1.47.98-2.09 1.63a.51.51 0 00-.4.26c-.51.41-1.05.8-1.53 1.24-.47.43-1.04.75-1.4 1.29-.35.18-.71.28-1.09.27-.13.27.14.36.17.53-.84.72-1.64 1.49-2.3 2.39-.82.28-1.66.13-2.49.14a58.05 58.05 0 0122.44-15.76 57.8 57.8 0 0125.85-3.93c4.77.37 9.44 1.29 14 2.79a58.4 58.4 0 0123.99 15.08 58.5 58.5 0 0115.59 30.85c.82 4.53 1.03 9.1.73 13.67a57.88 57.88 0 01-7.78 25.63 58.5 58.5 0 01-17.62 19.08 57.65 57.65 0 01-16.23 7.81c-1.61.48-3.24.9-4.87 1.27-.13.03-.26.07-.39.03-.19-.13-.34-.28-.24-.54.15-.43.18-.89.37-1.31.2-.01.4-.01.59-.05a54.25 54.25 0 0010.57-3.51 66.5 66.5 0 006.54-3.41 55.98 55.98 0 004.08-2.75 54 54 0 004.98-4.08 53.49 53.49 0 005.63-6.02 55.92 55.92 0 004.76-6.79c.17-.29.37-.58.4-1-.17.07-.28.1-.37.16-1.75 1.04-3.56 1.98-5.36 2.94-1.31.7-2.6 1.44-3.91 2.14-.26.17-.45.48-.81.52z" fill="#6b1616"/><path class="wkp_st5" d="M18.94 99.43c.87.17 1.72.38 2.55.68.69.25 1.4.48 2.24.6-.62.44-1.25.55-1.86.7-.07.02-.17-.05-.24-.09-.91-.62-1.86-1.17-2.74-1.84l.05-.05zM23.97 95.52c-.31 1.66.29 3.31-.13 4.99-.12-.1-.17-.14-.21-.19-1.11-1.57-.98-.98-.41-2.79.17-.55.35-1.09.48-1.65.03-.12.02-.26.27-.36zM24.26 101.05c.45-.02.86.17 1.28.28.3.08.49.3.6.58.34.88.67 1.77.82 2.71l-.08.08c-.81-.94-1.49-1.97-2.22-2.97-.15-.21-.4-.37-.41-.66l.01-.02zM23.86 101.3v1.51c0 .13-.02.26-.13.36a16 16 0 01-2.48 1.74 18.61 18.61 0 012.61-3.61zM24.25 100.65c.18-.52.52-.79.74-1.14.1-.17.29-.19.47-.19h1c.77.01 1.55.02 2.33-.09-.42.35-.95.34-1.42.51-.5.18-1.01.32-1.52.47-.51.13-.99.38-1.6.44zM24.25 101.06c-.1-.02-.21-.03-.2-.18 0-.02.03-.04.04-.04.15-.01.15.1.17.21l-.01.01zM18.9 99.47l-.16-.08.04-.04c.07-.01.12.03.16.08l-.04.04zM27.21 105.03c.07.06.13.13.04.22l-.1-.16.06-.06zM21.02 105.16l.08-.08c.09.06.02.09-.03.13l-.05-.05z"/><path class="wkp_st5" d="M21.07 105.21l-.09.05.04-.1.05.05zM27.15 105.09c-.05-.04-.1-.08-.02-.14l.08.08-.06.06zM26.96 104.61c.05.05.1.1.02.15-.01.01-.06-.05-.1-.07a.3.3 0 00.08-.08zM177.6 101.06c.45-.02.87.16 1.29.28.25.07.45.24.53.47.35 1 .67 2 1.02 3.04-.28 0-.37-.17-.46-.29-.7-.94-1.38-1.89-2.07-2.84-.15-.21-.31-.4-.31-.66 0-.01 0 0 0 0zM174.38 105.04c.45-.92 1.1-1.71 1.7-2.52.36-.49.66-1.04 1.12-1.46l.01 1.52c.01.25-.04.49-.25.65-.83.64-1.66 1.28-2.54 1.85l-.04-.04zM176.98 100.69c-.61.45-1.2.54-1.76.71-.08.03-.22-.04-.31-.1l-2.65-1.76a.53.53 0 01.48-.05l2.66.8c.48.15.93.37 1.58.4zM177.19 95.61v4.8c-.92-.54-1.21-1.22-.91-2.17.14-.44.25-.89.43-1.33.17-.42.27-.87.4-1.31l.08.01zM177.6 100.65c.11-.64.59-.99 1.04-1.37.09-.07.26-.1.38-.08.99.18 1.98.11 2.97-.02.04-.01.08.02.24.05-.52.32-1.05.32-1.52.49-.52.19-1.05.34-1.58.49-.51.16-1.02.3-1.53.44 0 .01 0 0 0 0z"/><path class="wkp_st5" d="M177.2 101.06c-.03-.29.09-.44.4-.4a.36.36 0 000 .4 2.67 2.67 0 00-.4 0c0-.01 0 0 0 0zM174.42 105.08l-.09.05.05-.09.04.04zM180.49 105.12l-.03.01v-.03z"/><path class="wkp_st8" d="M83.71 54.79c.4-.12.77.09 1.14.17 1.28.27 2.54.6 3.81.91l6.14 1.45c1.27.3 2.54.59 3.8.93.13.04.32.25.43-.04-.07 0-.12.03-.12.1 0 .01.03.03.05.03.07-.02.06-.08.06-.13l-3.88-2.58-6.58-4.4c-.09-.06-.2-.11-.28-.34 2.46.7 4.83 1.46 7.21 2.17l7.16 2.17 7.22 2.22 7.15 2.21c2.4.74 4.8 1.47 7.28 2.12l-2.55-3.23.16-.16a51.05 51.05 0 016.86 5.59 48.28 48.28 0 0114.43 26.5c.68 3.64.96 7.31.89 11a61.77 61.77 0 01-2.65 16.78c-.14.47-.31.93-.45 1.39-.07.25-.18.37-.47.32a15.95 15.95 0 01-10.01-5.83 19.35 19.35 0 01-3.48-7.34 27.14 27.14 0 01-.83-7.72c.01-.28-.01-.43-.36-.48-4.19-.62-7.02-3.08-8.93-6.73a15.34 15.34 0 01-1.36-3.6l-.12-.43c-.63 2.85-.26 8 2.79 11.01l-3.18 2.72c-.12.1-.22.23-.35.31-.32.19-.3.41-.15.72l3.8 7.84c.11.22.19.45.29.67l-.13.09c-.09-.07-.18-.12-.26-.2l-9.56-9.39-.8-.83c-.02.63.18 1.11.29 1.59.67 3.12 1.36 6.24 2.05 9.36.11.5.22 1 .29 1.5.04.28.18.43.4.56a8.64 8.64 0 013.75 4.19 12 12 0 01.66 6.56c-.35-.11-.51-.37-.72-.54l-8.98-7.55c-.17-.14-.27-.22-.51-.08-1.65.91-3.32 1.79-4.97 2.69l-.77.44c-.69-2.08-1.25-4.18-1.92-6.32l-5.92 6.71-3.1-2.98c-.87-.83-1.74-1.65-2.59-2.5-.21-.21-.36-.26-.68-.15-1.47.53-2.97 1.01-4.57 1.54.24-2.23.64-4.35.88-6.61l-4.7 2.72a91 91 0 01-4.68 2.59l4.89-8.86-.09-.11c-2.32 1.14-4.6 2.36-6.98 3.46l1.78-2.66 1.7-2.55c.04-.04.1-.1.04-.15-.07-.05-.1.01-.11.08-1.03.61-1.97 1.34-2.96 2.01l-4.43 3.05-.16-.19c.77-1.52 1.69-2.95 2.55-4.54l-2.98.44-.03-.26c1.1-1.09 2.3-2.09 3.45-3.13l2.53-2.27c.17-.16.4-.29.46-.57l-13.31 1.99 4.31-4.91h-5.44c-.11-.24.06-.32.17-.41l2.01-1.65c.16-.13.36-.24.47-.56l-4.96.67c.74-1.11 1.52-2.03 2.24-3.09h-1.65c.06-.32.31-.41.48-.55l3.68-2.75c.15-.11.36-.18.39-.44l-7.99-3.18 1.91-1.62c2.4-2.07 4.8-4.16 7.21-6.22.27-.23.34-.41.22-.78-.72-2.21-1.39-4.44-2.1-6.66-.1-.32.08-.4.25-.52l3.27-2.4 1.93-1.42-5.27-1.45.04-.08c.01-.02.02-.05.04-.05.11-.02.22-.04.33-.04 1.98-.01 3.95-.18 6.07-.13-.91-1.06-1.96-1.81-2.94-2.84 3.63 0 7.11-.06 10.59.01 0-.22-.18-.22-.3-.28l-3.71-1.94c-.25-.13-.52-.24-.7-.53l16.54.51c.09-.18-.09-.26-.18-.36l-1.48-1.53c-.07-.07-.19-.13-.14-.27l-.02.02zm-7.95 19.15c-.04-.04-.09-.09-.14-.04-.05.05.01.1.05.13.02.07.06.12.13.14.06.19.16.33.38.35.04.08.09.13.18.15.01.07.06.12.13.13.02.07.06.12.13.13.05.05.09.18.18.07.08-.09-.04-.14-.09-.2a1.27 1.27 0 00-.13-.11l-.14-.12-.19-.14c-.02-.22-.2-.29-.36-.37l-.13-.12zm6.39 40.48c.11 0 .21-.02.28-.12l2.91-.93c.3-.1.51-.06.76.18 1.54 1.5 3.11 2.98 4.67 4.47l.7.67 6.33-7.14 2.05 6.72.29-.13c1.64-.88 3.29-1.74 4.93-2.64.3-.16.48-.16.75.07 1.42 1.21 2.87 2.38 4.3 3.58l4.02 3.4c.15.13.24.38.51.37.13-.96 0-2.3-.33-3.51a7.92 7.92 0 00-3.94-4.98 1.2 1.2 0 01-.63-.87l-2.81-13.08a1.57 1.57 0 00-.55-.95c-5.33-4.43-10.65-8.86-15.97-13.31L77.34 75.27c-.12-.1-.24-.26-.59-.23 4.27 4.33 8.51 8.51 12.71 12.74l12.58 12.72c-.17.05-.32-.1-.49-.19l-16.33-8.86-8.61-4.65c-.3-.13-.53-.43-.89-.41.02-.07.03-.12-.07-.09l.08.08c.22.24.47.43.76.57l1.43 1.08 16.32 12.32 6.18 4.64c.09.07.27.09.17.35l-19.93-.28-.02.13c4.36.67 8.71 1.45 13.05 2.24-.03.21-.15.24-.24.29l-4.9 2.83-6.22 3.6-.25.15c-.07.04-.21.09-.18.14.07.14.18.08.25-.02zM75.4 73.66l-.11-.06-.04.05.11.06.04-.05z"/><path class="wkp_st9" d="M115.85 114.34l1.54 2.54a47.54 47.54 0 013.8 7.83c1.14 2.97 2 6.01 2.66 9.12.41 1.93.77 3.86.96 5.83.08.81.28 1.62.26 2.44 0 .16.01.31-.01.47-.03.23-.16.25-.32.12a1.23 1.23 0 01-.35-.63c-.35-1.15-.71-2.29-1.04-3.44-.77-2.66-1.52-5.33-2.28-7.99l-1.36-4.87a3.03 3.03 0 00-.63-1.3c-.25-.26-.49-.51-.9-.47-.41.04-.44-.31-.52-.57a45.2 45.2 0 00-1.11-3.41 17.17 17.17 0 00-2.55-4.8 4.63 4.63 0 00-1.12-1.13 1.42 1.42 0 01-.72-1.32c.02-1.02-.12-2.04-.18-3.05-.05-.82-.13-1.63-.12-2.46 0-.17-.03-.35.08-.55.4.14.68.4.96.68l6.65 6.64c.24.24.48.45.75.65.29.21.53.19.77-.05.28-.29.58-.55.91-.78.41-.29.52-.31.86.02.7.69 1.41 1.35 2.03 2.11.2.24.43.45.64.68.87.92 1.75 1.83 2.61 2.76.31.33.66.49 1.12.47a15.1 15.1 0 014.58.66c.67.19 1.26.55 1.87.87.89.48 1.81.8 2.85.76a5.1 5.1 0 001.97-.53l.3-.15c.46-.21.51-.18.52.35l.02 1.13c.02.7.05 1.41.02 2.12-.03.57-.1 1.11-.33 1.62a48.37 48.37 0 00-2.78 8.8 15.5 15.5 0 01-2.36 5.47 14.63 14.63 0 01-4.38 4.02 24.07 24.07 0 01-6.47 2.56c-.07.02-.13.02-.21-.07.58-.88.56-1.9.66-2.91.17-1.58.13-3.15.09-4.72a48.23 48.23 0 00-.48-5.49 40.82 40.82 0 00-1.78-7.49 36.87 36.87 0 00-5.68-10.71c-.45-.58-.93-1.13-1.41-1.69-.08-.11-.16-.2-.39-.14zm20.33 15.25a13.79 13.79 0 00-5.98-5.76c-.12.78-.06 1.46-.06 2.14 0 .24.18.26.37.28.82.1 1.59.38 2.33.75.99.5 1.79 1.22 2.55 2.01.19.21.34.46.79.58z"/><path class="wkp_st10" d="M87.84 153.05c.13-.72.54-1.31.87-1.93.55-1.06 1.16-2.09 1.75-3.13.8-1.43 1.61-2.85 2.4-4.29.46-.84.91-1.67 1.39-2.5.65-1.14 1.25-2.3 1.87-3.45.1-.19.23-.37.22-.67-4.2.64-8.32 1.58-12.54 2 .58-.35 1.14-.72 1.74-1.04 2.1-1.11 4.21-2.19 6.31-3.3l6.28-3.34c.78-.42 1.54-.89 2.33-1.28a2.57 2.57 0 001.28-1.52c1.24-3.2 2.51-6.39 3.79-9.62.45.33.81.73 1.22 1.06 1.43 1.19 2.8 2.44 4.22 3.64 1.23 1.05 2.49 2.06 3.73 3.09.23.19.31.38.29.73-.09 1.06-.2 2.11-.32 3.16-.13 1.14-.32 2.27-.48 3.41-.11.83-.2 1.66-.32 2.49-.12.87-.26 1.75-.35 2.62-.14 1.34-.41 2.66-.6 3.99-.14.98-.3 1.96-.46 2.94a113.4 113.4 0 01-.73 4.1c-.37 1.91-.72 3.82-1.31 5.68-.05.15-.07.3-.22.41-.32-.6-.36-1.27-.45-1.92l-.61-4.32c-.13-.85-.2-1.71-.34-2.56-.09-.56-.03-1.14-.29-1.73a8.1 8.1 0 00-1.35 1.33l-.7.8c-1.25 1.34-2.55 2.66-3.75 4.05-.56.65-1.24 1.21-1.72 1.93-.11.16-.26.31-.45.39.03-.96.34-1.86.54-2.79.4-1.9.84-3.79 1.22-5.7.34-1.71.75-3.41 1.11-5.11l1.21-5.9c.01-.06.02-.13-.07-.18-.19-.02-.28.16-.4.28-.7.65-1.26 1.42-1.86 2.16-.5.62-1.1 1.15-1.59 1.79-.48.63-1.08 1.17-1.6 1.77-.8.91-1.58 1.84-2.38 2.76l-1.42 1.58c-1.15 1.29-2.28 2.59-3.44 3.87-1.24 1.38-2.39 2.85-3.75 4.12l-.21.17-.06-.04z"/><path class="wkp_st11" d="M139.33 134.13c.36-.04.55-.35.84-.5 1.31-.7 2.6-1.44 3.91-2.14 1.8-.96 3.61-1.9 5.36-2.94.09-.05.2-.08.37-.16-.02.42-.23.71-.4 1a56.26 56.26 0 01-4.76 6.79 55.26 55.26 0 01-10.61 10.1 53.9 53.9 0 01-10.62 6.16 48.93 48.93 0 01-5.57 2.16c-1.65.52-3.3 1-5 1.35-.19.04-.4.03-.59.05.01-.62.22-1.21.32-1.81.24-1.49.6-2.96.76-4.47.06-.59.18-1.17.28-1.75.08-.02.18-.02.25-.06a63.58 63.58 0 014.11-2.31c.78-.41 1.54-.87 2.33-1.27 1.19-.6 2.31-1.3 3.54-1.82l.32 1.28c.25.9.39 1.8.23 2.73-.06.35-.26.6-.49.84-.37.38-.8.7-1.01 1.19.05.13.15.12.23.1 1.64-.43 3.31-.77 4.92-1.32a18.45 18.45 0 005.93-3.17 12.73 12.73 0 003.21-3.85 20.5 20.5 0 001.52-3.89c.21-.76.34-1.55.62-2.29zM145.07 99.98c.63-.22 1.16-.63 1.74-.94 2.12-1.12 4.21-2.27 6.32-3.41l3.45-1.86c.11-.06.22-.15.43-.1.12.44.07.93.16 1.4.1.52.12 1.06.14 1.58.06 1.19.18 2.38.17 3.58a63.28 63.28 0 01-.25 4.57c-.09 1.04-.25 2.06-.3 3.1-.02.44-.23.74-.62.95-1.11.6-2.2 1.24-3.31 1.84-2.95 1.58-5.91 3.15-8.86 4.71-.29.15-.57.35-.92.34-.01-.6.16-1.18.3-1.75.33-1.35.52-2.72.76-4.08.2-1.17.27-2.36.42-3.53.15-1.18.22-2.36.35-3.54.08-.95.01-1.91.02-2.86zM65.45 55.18c.61-.65 1.37-1.12 2.09-1.63a56.1 56.1 0 018.87-5.09 59.42 59.42 0 0115.73-4.69c1.06-.17 2.16-.22 3.23-.34 2.28-.25 4.56-.24 6.84-.24l.53.02c.04 0 .07.04.11.07.05.15-.08.18-.17.23-2.48 1.33-4.94 2.71-7.44 4-1.51.79-3 1.63-4.5 2.44-.21.12-.42.24-.59.42l-3.75-1.12c-.97-.29-1.95-.6-2.93-.86-.27-.07-.5-.28-.86-.25.09.27.28.39.47.52.94.62 1.89 1.24 2.82 1.88.4.27.78.58 1.17.87.1.07.12.18.13.3-.1.16-.28.2-.43.29-.77.46-1.55.9-2.32 1.38-.17.1-.43.16-.42.45-.82-.27-1.64-.5-2.49-.68-.11-.02-.21-.07-.32-.08-.09-.01-.18 0-.23.09-.05.1.02.17.07.23l.71.87c.05.06.05.16.08.25-.38.39-.87.62-1.31.93-.14.1-.3.18-.27.39-1.79-.22-3.6.02-5.38-.15-1.15-.11-2.3.04-3.44-.21-.36-.08-.75-.02-1.13-.02h-3.4c-.5 0-.99-.1-1.47-.27zM109.17 56.1c.26-.46.77-.58 1.18-.8 1.65-.91 3.33-1.76 4.99-2.66 2.26-1.22 4.51-2.47 6.76-3.7.31-.17.66-.28.94-.5.46-.36.85-.25 1.33-.01a61.28 61.28 0 018.55 4.98c1.11.77 2.16 1.61 3.24 2.43.31.24.29.36-.09.57l-1.87 1.01c-2.14 1.17-4.33 2.25-6.43 3.48-.17.1-.35.19-.56.17-.48-.07-.74-.49-1.05-.77-1.9-1.67-4.05-2.98-6.14-4.38-.95-.64-1.88-1.32-2.82-1.97-.06-.04-.12-.05-.22.02.15.32.4.59.61.88 1.05 1.47 2.33 2.77 3.28 4.32.12.19.42.38.22.62-.16.19-.42 0-.62-.07-2.19-.78-4.43-1.37-6.65-2.04-1.36-.41-2.7-.86-4.04-1.3-.22-.07-.41-.19-.61-.28zM137.59 72.93c.61-.57 1.39-.85 2.1-1.25 2.25-1.25 4.52-2.45 6.78-3.68.19-.1.37-.24.59-.39.41.4.7.9 1 1.37a57.35 57.35 0 013.93 7.01c.41.88.8 1.78 1.2 2.67.22.49.21.53-.24.78a316.42 316.42 0 01-7.02 3.79c-.79.41-1.55.86-2.33 1.28-.21.11-.42.26-.67.28-.36-.37-.39-.88-.54-1.33a50.07 50.07 0 00-3.21-7.5c-.45-.86-.94-1.7-1.43-2.54-.09-.16-.17-.3-.16-.49z"/><path class="wkp_st9" d="M123.84 142.5c-1.22.52-2.35 1.23-3.54 1.82-.79.4-1.55.86-2.33 1.27a66.37 66.37 0 00-4.11 2.31c-.07.04-.17.04-.25.06l.51-3.47c.29-1.94.45-3.9.76-5.84.15-.94.2-1.89.31-2.83.19-1.58.28-3.17.41-4.75.01-.17.1-.34.15-.51.32-.02.59-.15.86-.31 1.03-.6 2.08-1.17 3.12-1.76.43 1.14.72 2.32 1.05 3.49.77 2.64 1.51 5.28 2.27 7.92l.79 2.6z"/><path class="wkp_st4" d="M125.69 109.57c-1.53-.11-3-.3-4.32-1.07-2.68-1.55-2.22-4.74-.7-6.07a7.18 7.18 0 013.42-1.53c.17-.04.25.05.27.2l.16 1.66c.02.19-.09.27-.27.3-.44.08-.86.22-1.25.43-1.42.78-1.49 2.28-.16 3.21.55.39 1.17.64 1.83.74.37.05.56.2.64.55.11.52.24 1.02.38 1.58z"/><path class="wkp_st11" d="M119.73 128.5c-1.04.58-2.09 1.16-3.12 1.76-.27.16-.55.29-.86.31-.09-.71.1-1.4.14-2.11.05-.87.21-1.75.22-2.63 0-.45.19-.71.58-.85.29-.11.58-.21.88-.29.57-.16 1.1.03 1.28.57.37 1.05.69 2.13.88 3.24z"/><path class="wkp_st9" d="M84.02 53.82c-.01-.29.25-.35.42-.45.76-.47 1.54-.92 2.32-1.38.15-.09.33-.13.43-.29.28-.04.52.04.75.2 1.92 1.29 3.85 2.58 5.72 3.96.03.02.05.07.08.11l-.04.04c-1.5-.27-2.97-.65-4.45-1l-4.7-1.13c-.17-.04-.35-.04-.53-.06z"/><path class="wkp_st11" d="M62.12 57.98c.36-.54.93-.86 1.4-1.29.48-.44 1.02-.83 1.53-1.24.47.45 1.11.62 1.65.95.64.39 1.32.71 1.98 1.07.17.1.34.21.49.33.05.04.09.12.08.17-.01.1-.09.14-.19.14l-.4.01h-5.78c-.26 0-.53.01-.76-.14zM58.9 61.17c.66-.9 1.46-1.66 2.3-2.39.51.13.75.59 1.09.92.39.38.72.82 1.13 1.3-1.55.12-3.03.26-4.52.17z"/><path class="wkp_st9" d="M80.28 55.83c-.03-.21.13-.29.27-.39.43-.32.92-.55 1.31-.93.66.28 1.01.85 1.49 1.49-1.11-.22-2.09-.14-3.07-.17z"/><path class="wkp_st5" d="M121.74 58.56c-.14-.09-.25-.21-.25-.41.19.01.31.11.41.25l-.16.16zM65.89 108.81l-.11.15c-.07.08-.19.16-.26.07s.03-.19.12-.25l.25.03zM65.3 104.23l.03.26c-.1.04-.25.09-.28-.03-.04-.16.12-.21.25-.23z"/><path class="wkp_st10" d="M87.87 153.07c-.03.1-.04.21-.18.2-.02 0-.04-.03-.04-.04-.01-.14.09-.16.19-.18l.03.02zM87.18 154.04c-.05.02-.08 0-.08-.06l.03-.06c.04-.04.09-.04.11.01 0 .03-.04.07-.06.11zM83.32 139.32c.03-.06.08-.11.15-.1.02 0 .03.03.04.05l-.18.06-.01-.01z"/><path class="wkp_st8" d="M65.89 108.81a2.34 2.34 0 01-.26-.04l.13-.19.16.19-.03.04z"/><path class="wkp_st10" d="M83.33 139.34l-.07.05.05-.07.02.02zM87.44 153.58l.07-.05-.05.08-.02-.03z"/><path class="wkp_st10" d="M87.47 153.61l-.07.05.05-.07.02.02zM100.53 154.26l-.04.06-.02-.03z"/><path class="wkp_st9" d="M93.74 55.97l.05.08-.09-.05.04-.03z"/><path class="wkp_st8" d="M118.65 111.33c.03-.04.06-.04.08.01.01.01-.01.05-.01.05-.05.01-.07-.02-.05-.07l-.02.01z"/><path class="wkp_st8" d="M118.66 111.31c-.11.06-.14-.02-.16-.1l.13-.09c.05.06.13.13.02.2l.01-.01zM83.73 54.78c-.06-.06-.07.07-.05-.02l.02-.04c.06.01.06.03.02.07l.01-.01z"/><path class="wkp_st12" d="M82.32 114.18l6.22-3.6 4.9-2.83c.09-.05.21-.08.24-.29-4.34-.79-8.68-1.58-13.05-2.24l.02-.13 19.93.28c.11-.27-.07-.28-.17-.35l-6.18-4.64-16.32-12.32-1.43-1.08.12-.15 8.61 4.65 16.33 8.86c.17.09.32.24.49.19L89.45 87.81c-4.19-4.23-8.44-8.41-12.71-12.74.36-.03.47.12.59.23l13.08 10.95 15.97 13.31c.31.26.47.56.55.95l2.81 13.08c.08.4.26.66.63.87a7.98 7.98 0 013.94 4.98c.33 1.21.46 2.54.33 3.51-.26.01-.35-.24-.51-.37l-4.02-3.4c-1.43-1.2-2.88-2.38-4.3-3.58-.26-.22-.45-.23-.75-.07-1.63.89-3.28 1.76-4.93 2.64l-.29.13-2.05-6.72-6.33 7.14-.7-.67c-1.56-1.49-3.13-2.96-4.67-4.47-.25-.24-.46-.28-.76-.18l-2.91.93a.36.36 0 00-.1-.15z"/><path class="wkp_st12" d="M75.71 86.4c.37-.02.59.28.89.41l-.12.15a2.37 2.37 0 01-.76-.57l-.01.01z"/><path class="wkp_st5" d="M75.9 74.07c.16.08.34.15.36.37-.03.02-.06.04-.08.08-.22-.02-.32-.16-.38-.35l.1-.1z"/><path class="wkp_st12" d="M82.07 114.32l.25-.15.11.12c-.07.1-.17.12-.28.12l-.08-.09z"/><path class="wkp_st12" d="M82.15 114.42c-.07.1-.17.17-.25.05-.04-.05.1-.11.18-.14l.07.09z"/><path class="wkp_st5" d="M75.4 73.66l-.04.05-.11-.06.04-.05.11.06z"/><path class="wkp_st12" d="M76.73 74.82c.05.06.17.11.09.2-.09.1-.13-.02-.18-.07.02-.05.06-.09.09-.13zM76.59 74.7l.13.11-.1.13c-.07-.02-.12-.06-.13-.13l.1-.11z"/><path class="wkp_st12" d="M76.5 74.81c-.07-.02-.12-.06-.13-.13l.09-.09.14.12-.1.1zM76.26 74.45l.19.14-.09.09c-.09-.02-.14-.08-.18-.15.02-.04.05-.07.08-.08z"/><path class="wkp_st5" d="M75.76 73.94l.14.13-.1.1c-.07-.02-.12-.07-.13-.14l.09-.09z"/><path class="wkp_st5" d="M75.67 74.03c-.05-.03-.11-.07-.05-.13.05-.05.1 0 .14.04l-.09.09z"/><path class="wkp_st6" d="M99.01 58.2c0 .05.01.12-.06.13l-.05-.03c0-.07.05-.1.12-.1h-.01zM73.31 103.71c.01-.06.04-.13.11-.08.06.05.01.11-.04.15l-.07-.07z"/><path class="wkp_st12" d="M75.72 86.39l-.08-.08c.1-.04.09.02.07.09l.01-.01z"/><path class="wkp_st6" d="M136.18 129.59c-.45-.12-.6-.38-.79-.58a9.56 9.56 0 00-2.55-2.01 7.15 7.15 0 00-2.33-.75c-.19-.02-.37-.04-.37-.28.01-.68-.05-1.36.06-2.14a13.74 13.74 0 015.98 5.76z"/></svg>