<svg version="1.1" id="Layer_1" xmlns="http://www.w3.org/2000/svg" x="0" y="0" viewBox="0 0 200 200" xml:space="preserve"><style>.wpg_st0{fill:#101012}.wpg_st1{fill:#1a1930}.wpg_st2{fill:#b2b5bc}.wpg_st3{fill:#b0b5bf}.wpg_st4{fill:#0c1c3e}.wpg_st5{fill:#0e1939}.wpg_st6{fill:#cfd4da}.wpg_st7{fill:#fefefe}.wpg_st9{fill:#fcfbfb}.wpg_st10{fill:#f2e0d8}.wpg_st11{fill:#091b3f}.wpg_st12{fill:#cd0b21}.wpg_st13{fill:#081a3f}.wpg_st14{fill:#bd101f}.wpg_st15{fill:#c61121}</style><path class="wpg_st0" d="M87.6 198.9c-.1-.3-.4-.3-.6-.3h-1.7c-.4 0-.9.2-1.1-.4 0-.2-.3-.1-.5 0l-2-.1c-.2 0-.5 0-.7-.3l-.3-.2c-1.3.2-2.5-.6-3.8-.6-.2 0-.5 0-.7-.3l-.2-.1c-.8 0-1.5-.6-2.4-.7-.5 0-1 0-1.4-.5h-.3c-.6 0-1-.2-1.4-.5l-.3-.1c-1 0-1.7-.4-2.4-1-1 .2-1.5-.6-2.3-.7-.7 0-1.2-.5-1.9-.7-.7-.3-1.2-.9-2-.9-.6 0-1-.5-1.6-.7-.7-.3-1.5-.6-2-1-.5-.5-1-.7-1.6-1-.6-.3-1-1-1.6-1-.6-.2-1-.7-1.7-.8a3 3 0 01-1.4-.6c-1-.8-2-1.5-3-2-.7-.8-1.8-1.2-2.6-1.8-.5-.5-1.3-.8-1.8-1.4-.9-1-2.4-1.4-3.2-2.6l-.5-.1-2.7-2.6c-.9-.5-1.3-1.4-2-2-1.3-1.1-2.3-2.5-3.7-3.6-.2-.1-.2-.4-.4-.4l-.6-.7c-.5-.6-1.1-1-1.4-1.8-.7-.9-1.7-1.5-2.3-2.6-.5-1-1.6-1.8-2-2.9-.3-.5-1-.9-1.2-1.4-.5-.9-1.1-1.5-1.6-2.3-.3-.7-.8-1.3-1.2-2-.6-1.2-1.4-2.2-2-3.5l-2-3.7c-.3-1-.8-1.8-1.2-2.7l-1.4-2.8-.7-2c-.6-1-.8-2.3-1.2-3.4l-1.2-3.3-.4-1.8c-.4-.8-.2-1.8-.6-2.5-.4-.7-.2-1.4-.5-2-.5-1-.2-2-.6-2.7-.5-1.1-.1-2.4-.6-3.4-.6-1.4-.3-2.8-.5-4.1v-.1c.3-.2 0-.7.4-.7l.1.5a89.5 89.5 0 0015 40.7l.1.2c.7 1 1.4 2.1 2.2 3l2.4 3.3a115.1 115.1 0 0014.6 14.4c2.6 2 5.3 3.9 8 5.6 1.2.8 2.5 1.4 3.6 2.2l3.3 1.8c1 .6 2 .9 3 1.4a65 65 0 0010.2 4c1.5.4 3 1 4.5 1.3l3.3.8 3 .7 5.3.8a78.7 78.7 0 0024.5 0c1-.1 1.9 0 2.8-.4l.6-.1h.3c.7-.3 1.5-.1 2.2-.4l4.7-1c3-.9 6-1.7 9-2.9l6.2-2.5 5-2.4a81.3 81.3 0 0012.1-7.8c2-1.5 4-3 5.8-4.7a112 112 0 0013.2-14.4l3-4.6a65 65 0 003.5-5.7c.8-1.6 1.7-3.3 2.4-5l2.4-5.4c.6-1.8 1.3-3.6 1.8-5.5l.9-2.8.7-3.2c.5-1.7 1-3.3 1-5 .3-.2.3-.5.3-.7.2-2 .6-3.8.7-5.7l.3-1.6v-.2-.5l.3-3.6.8.2v.8c-.6 0-.7.4-.7.9 0 1 .2 1.9 0 2.8 0 .3-.4.6-.1 1v2.5a2 2 0 00-.4 1.7c-.3.7 0 1.4-.2 2 0 .5 0 .9-.3 1.3-.4.5 0 1-.2 1.6-.1.4 0 .9-.5 1.2v.3c0 .7-.4 1.3-.4 2-.2 1-.7 2-.8 3.2 0 .8-.4 1.5-.7 2.2l-.8 2.4-2 5.2-.8 2-1.3 2.7-1.4 2.7c-.8 1.5-1.5 3-2.5 4.5-.7 1-1.4 2-1.9 3-.2.5-.5 1-.9 1.3-.6.5-.7 1.2-1.1 1.8-.3.3-.7.4-.8.8-.4.1-.7.4-.6.9-.5.5-.8 1.1-1.2 1.7l-2 2.2a2 2 0 00-.5.6c-.3.1-.6.3-.5.8 0 .1-.1.2-.3.2l-.1.2-.4.5c-.9.9-1.9 1.7-2.6 2.7-.4.2-.5.5-.8.7L162 176l-.3.4c-.4.1-.5.3-.6.6-1.3.5-2.1 1.5-3 2.4l-2 1.4c-1.2 1-2.5 2-3.8 2.8l-2.3 1.6c-.5.4-1.2.6-1.8 1l-2 1.2c-1.3.6-2.3 1.5-3.6 2-.8.3-1.5.8-2.2 1.2-.7.4-1.5.5-2.3 1-.8.5-1.8.9-2.8 1.3-.8.3-1.7.7-2.6.9-.6 0-1 .5-1.6.7l-3 1c-.8.3-1.6.2-2.2.6-.8.4-1.7.2-2.3.7-.3.2-.6.2-1 .3-.6 0-1.3-.2-1.8.4l-.5.1c-.6 0-1 0-1.7.4-.5.4-1.3.2-2 .2-.5 0-.8 0-1.1.3-.7.4-1.5.3-2.2.3-.4 0-.7 0-1 .2a4 4 0 01-1.8.3H107c-1.2 0-2.4.4-3.6.3-2-.2-4 0-6 0-.3 0-.9-.2-1 .4h-1c0-.5-.2-.6-.8-.5-.8 0-1.5.2-2.3-.1-.1-.2-.2-.2-.3-.2-1.2.2-2.4 0-3.6 0l-.9-.2z"/><path class="wpg_st1" d="M8.5 97.6h.2c0 .2 0 .6.3.8-.3 2.5-.4 5-.4 7.6 0 3.1 0 6.3.2 9.4-.8.1-.3.8-.5 1.2l-.4-.1V99c.2-.2.4-.3.5-.6 0-.3-.1-.6.1-.8zM192 112.3l-.7-.2v-8.8c.3 0 .6 0 .4-.4-.3-.8-.4-1.7-.3-2.5.2-.8 0-1.5-.2-2.3v-.3c.2.2.4.3.5.6.1.1.3.2.4 0v1.9c-.5.3-.5.7 0 1v11zM96.5 200c0-.6.6-.5 1-.5h6c1.2.1 2.4-.3 3.5-.2v.2h-1.1c-.3 0-.6 0-.6.5h-8.8zM191.3 117.7c-.3-.3 0-.6.1-.9.2-1 0-1.9 0-2.9 0-.4 0-.8.7-.8v.5c-.6.3-.6.6 0 .8v2.9c-.2-.2-.3 0-.4 0 0 .3-.1.4-.4.4z"/><path class="wpg_st2" d="M92.4 199.3c.7.3 1.5.1 2.3.2 0 .1.3.2.3.5h-2.5l-.1-.7z"/><path class="wpg_st3" d="M74.5.7c-.4-.2 0-.5-.1-.7H76c.2.7.2 1.4.1 2.1-.4-.2-.2-.6-.2-1 0-.7-.4-1-1.1-.6l-.3.2z"/><path class="wpg_st2" d="M8 116.5l.3.1c.2.5-.1 1 .3 1.5v.2h-.7v-1.8zM8.5 97.6c-.2.2-.1.5-.1.8 0 .3-.3.4-.5.6v-1.5l.6.1zM105.3 200c0-.4.3-.5.6-.5h1l.2.5h-1.8zM192 101.4c-.4-.4-.4-.8 0-1.1v1z"/><path class="wpg_st1" d="M95 200c0-.3-.2-.4-.3-.5.5-.2.7 0 .8.5H95z"/><path class="wpg_st2" d="M192 114.4c-.5-.2-.5-.5 0-.8v.8z"/><path class="wpg_st0" d="M191.3 97.8c-.2.1-.1.2 0 .3 0 .8.3 1.5.1 2.3a5 5 0 00.3 2.5c.2.3-.1.3-.4.4l-.2-2.5c0-1-.2-2-.4-3-.1-1.2 0-2.4-.4-3.7l-.3-2.4c-.6-2.8-1.2-5.6-2-8.3a103.2 103.2 0 00-8.3-20.4 99 99 0 00-9.1-13.4l-3.6-4 .9-.1c0 .4.4.5.6.7.8 1 1.5 1.8 2.5 2.6.5.6.7 1.4 1.3 2 .5.4.9.8 1 1.4.2.4.6.8 1 1 .3 0 .5.2.5.4.3 1.2 1.4 2 1.9 3s1.1 1.8 1.7 2.7l1.7 3 2 3.4 2.3 5 1 2.7 1.1 2.8c.5 1 .6 2 1 3 .5.8.4 1.7 1 2.4.2.4 0 .8.1 1.3 0 .2 0 .5.4.7v.7l.2.6v.1c0 .3 0 .6.3.7.2.3.1.5.1.8v.3c.2.4 0 .8.3 1.1 0 .2 0 .5.2.5v.4.7c.2.3 0 .7.2 1 0 .3 0 .6.3.7l.1 1.9c0 .2 0 .5.2.6 0 .4-.1.8.3 1v3.1z"/><path class="wpg_st1" d="M153.4 32.8l.4.1c1.2 1.2 2.8 2 4 3.2v.1l-.3.4-5.8-4.3A84.3 84.3 0 00121 18.8c0-.2 0-.3-.2-.3-.4 0-.4-.2-.3-.5.5.2 1.1.4 1.7.3.2 0 .3 0 .4.2l.3.2c1 0 2 .4 2.9.7.8.3 1.6.4 2.3.8l.6.2 1.3.4c.9.2 1.6.9 2.6.8.4 0 .4.4.8.4 1.3.2 2.4 1 3.6 1.5l.4.2c.9.1 1.6.6 2.3 1l1.6.7 1.6.8c.8.3 1.5.9 2.2 1.3 1.1.7 2.4 1 3.4 2 .3.3.9.7 1.5.7 1 1 2.4 1.6 3.4 2.6zM76.9 5.3v.1c-.3.2 0 .3 0 .4 0 .2 0 .4.2.5v1.3c0 .4 0 .7.4 1 .2 0 .1.5.2.7 0 .7-.2 1.5.4 2.1.2.3.1.8.1 1.2 0 .6 0 1 .4 1.5.2.2.1.6.2.9 0 .6-.2 1.3.4 1.8v.9c0 .1 0 .4.3.5.2 0 .4 0 .5-.3.2-.2.4-.2.7-.2.6 0 1.1 0 1.7-.4.4-.3 1-.1 1.5-.1.6-.1 1.3.2 1.6-.5h3.3c.4-.1.8 0 1-.5 0-.2.2-.1.4-.1h7.1c.3 0 .5 0 .7-.3.2-.4 1.1-.3 1.3 0 .1.2.3.3.4.3-.3.4 0 .3.2.3h3.6c.2 0 .5-.1.6.2l-5.6-.1c-3.5 0-7 .2-10.5.7-2.7.3-5.4.7-8 1.5-1.1.3-1.2.3-1.4-.9v-.2L77 9.2l-.8-3.9.4-.1h.1l.2.1z"/><path class="wpg_st4" d="M76.6 5.2l-.4.1-.7-3.3c0-.3.1-1-.3-.9-.3 0-.3.6-.3 1 0 1 .3 2 .1 3-.4.2-.1.7-.2 1 0 .2.1.5-.3.6V2.4.7l.3-.2c.7-.3 1 0 1.1.7 0 .3-.2.7.2 1 .2.2.5.4.5.8-.2.6-.2 1.1 0 1.7v.5zM120.5 18c0 .3 0 .5.3.5.2 0 .3 0 .2.3-.9 0-1.7-.3-2.6-.5-1.8-.5-3.6-.5-5.3-1v-.6h1c0-.1.2-.1.2 0 .4.9 1.3.3 1.9.5h.8c.3 0 .7-.2.8.3.1.2.4.2.6.2h1.6c.2 0 .4 0 .5.3z"/><path class="wpg_st5" d="M157.5 36.6l.3-.4c.5 0 .7.3 1 .6l2.8 2.6s0 .1.1 0l.2.1c0 .3-.3.3-.5.4-1.4-1-2.6-2.2-4-3.3z"/><path class="wpg_st0" d="M104 16.6c0-.4-.3-.2-.5-.2h-3.6c-.2 0-.5 0-.2-.3h.6a6 6 0 002.4 0h.7c.7.3 1.4.1 2 .1.7 0 1.4.2 2 0h2.1c-.1.4-.6 0-.8.3h.5l-.5.3-3.3-.2h-1.3z"/><path class="wpg_st3" d="M161.8 39.5h-.1c.8-.9 1 .1 1.4.5l1.8 1.7c.8 1 2 1.8 2.9 2.8.4.4.5.6.1 1-.1-.3-.3-.6-.6-.8l-4.7-4.8c-.2-.2-.4-.4-.8-.4z"/><path class="wpg_st6" d="M157.8 36.1c-1.2-1.2-2.8-2-4-3.2.1-.3.3-.5.6-.2l1 1c.2.4.3.9 1 .5.2 0 .4.3.6.5.4.4.9.8.8 1.4z"/><path class="wpg_st3" d="M161.6 39.4l-2.7-2.6c-.4-.3-.7-.6-1.1-.6.5-.5 1-.3 1.4.3l2 2c.3.3.4.6.4.9z"/><path class="wpg_st6" d="M153.4 32.8c-1-1-2.3-1.7-3.4-2.6 0-.2 0-.3.3-.4.2 0 .3 0 .4.3.1.4.7.5.8 1 .3-.2.6-.3.8 0 .4.5 1.1.9 1 1.7z"/><path class="wpg_st1" d="M108.7 16.8l.5-.3h-.5c.2-.3.7 0 .8-.4.3 0 .6-.2.8.3 0 .2.3.2.5.2h1.7c-.6.3-1.2.1-1.8.2-.3 0-.3 0 0 .2-.7 0-1.4-.2-2-.3z"/><path class="wpg_st6" d="M171 48.8c-1-.8-1.8-1.7-2.5-2.6.3 0 .6 0 .8.3l1.2 1.2c.4.3.5.7.5 1.1z"/><path class="wpg_st1" d="M107.5 16.1c-.7.3-1.4.1-2 .1-.7 0-1.4.2-2 0 1.3-.2 2.6-.2 4 0z"/><path class="wpg_st0" d="M110.6 17c-.1-.1-.2-.2.1-.2.6 0 1.2.1 1.8-.1h.6v.6c-.5 0-1 0-1.5-.2h-.5-.5z"/><path class="wpg_st1" d="M102.7 16.1c-.8.2-1.6.2-2.4 0h2.4z"/><path class="wpg_st3" d="M76.6 4.7c-.2-.6-.2-1.1 0-1.7.2.5.2 1.1 0 1.7z"/><path class="wpg_st1" d="M191.2 94.7c-.4-.2-.3-.6-.3-1 .5.2.3.6.3 1zM190.7 91.2c-.4-.1-.4-.4-.4-.7.3 0 .4.4.3.7zM189 84.3c-.2-.2 0-.5 0-.7.3.2 0 .5 0 .7zM190.2 89.5c-.2-.2-.2-.4 0-.7v.7zM189.5 85.7c-.2-.1-.3-.4-.3-.7.3.2.3.4.3.7zM190.1 88.4c-.3 0-.2-.3-.2-.5.3 0 .3.3.2.5z"/><path class="wpg_st4" d="M77 5.8c-.2-.1-.4-.2 0-.4v.4z"/><path class="wpg_st3" d="M77 5.8c.3.2.3.3.1.5-.2-.1-.1-.3-.1-.5z"/><path class="wpg_st1" d="M189.6 86.8v-.3.3zM189.2 85v-.1.1z"/><path class="wpg_st4" d="M76.9 5.3h-.2c.1 0 .2-.1.2 0z"/><path class="wpg_st0" d="M9 98.4c-.4-.2-.2-.6-.3-.9l.1-3.4v-.2-.3c.1 0 .2 0 .2-.2.2-.2.2-.5.3-.8.2-.1.1-.3 0-.6l.1-1.1v-.6l.2-.1V90l.2-.8c.2-.6-.2-1.3.5-1.6v-.2l.6-3.3c.2-1 .6-2 1-3l.7-2.6.7-2.1.2-.4c0-.8.6-1.4.7-2.2.1-.6.4-1.1.7-1.6.8-1.5 1.2-3.2 2-4.6 1.1-1.9 1.8-4 3-5.7.4-.4.8-1 1-1.6l.1-.4c.7-.6 1-1.5 1.5-2.4.3-.5.8-.9 1-1.5.2 0 .2-.1.2-.2.3-.3.6-.1.8 0 0 .2-.2.4-.3.5v.1A90.3 90.3 0 009.3 95.4c0 1-.3 2-.4 3z"/><path class="wpg_st1" d="M74.5 6.7c.4 0 .3-.4.3-.6 0-.3-.2-.8.2-1V19c0 .7-.3 1-1 1.2a76.6 76.6 0 00-15.8 6l-4.4 2.6c-2.8 1.6-5.5 3.4-8.1 5.3l-.6-.4c.4-.5 1-.8 1.5-1 .7-.4 1.2-1.2 2-1.5.6-.2 1-1 1.6-1 .8-.8 1.8-1.3 2.8-1.7.3-.1.3-.6.7-.7l.9-.3c1.2-.7 2.5-1.5 3.8-2l2.8-1.4c1.3-.4 2.6-1 3.8-1.6l3-1c.8-.5 1.7-.6 2.5-1 .6-.2 1.4-.5 2.2-.6.6 0 1-.5 1.7-.7V19 7.5l.1-.8z"/><path class="wpg_st4" d="M45.1 33.8l.6.3-.6.5a80.8 80.8 0 00-6.5 5.3c-2.2 1.9-4 4-6.1 6l-1.2.3c.4-.7 1.2-1.2 1.6-1.9.1 0 .2-.1.2-.3l1-1c1.4-1.2 2.6-2.6 4-3.9.6-.4 1.4-.7 1.9-1.3.6-.7 1.5-1.3 2-2.2h.1c1 .4 1.2-.7 1.7-1 .4-.4 1-.5 1.3-.8z"/><path class="wpg_st1" d="M31.3 46.2c.4 0 .7-.3 1.2-.3l-.2.3a92.5 92.5 0 00-7.8 9.8c-.2-.2-.5-.4-.8-.1.1-.5.6-.8.8-1.2.1-.3.3-.4.3-.7.3-.5.8-.7 1.1-1.1.4-.9 1.1-1.5 1.7-2.2.5-.4.6-1 1-1.4a31 31 0 012.4-2.7c.2 0 .1-.3.3-.4z"/><path class="wpg_st3" d="M31.3 46.2c-.2.1-.1.4-.4.4-.3-.4-.4-.7.2-1l1-1c.2-.2.4-.4.8-.3-.4.7-1.2 1.2-1.6 1.9z"/><path class="wpg_st6" d="M27.6 50.7c-.5.7-1.3 1.3-1.7 2.2 0-.3-.3-.7 0-1l1.2-1.3h.5zM48.7 31.2c-.9.3-1.4 1-2 1.5-.3-.3 0-.4.1-.7.3-.3.7-.5.8-.9.1-.2.4-.2.5 0l.6.1zM50.2 30.2c-.7 0-1 .8-1.5 1-.2-.6.4-.9.6-1.3.3-.3.6.2 1 .3zM34.1 43l-1 1H33c0-.5.8-1 1.2-1zM54.6 27.5l-.9.3c0-.2-.3-.4 0-.6.4-.2.6 0 .9.3zM24.8 54l-.3.6c-.3 0-.4-.2-.3-.5 0-.3.4-.3.6-.1z"/><path class="wpg_st1" d="M9.4 92l-.1.7V92zM9.4 90.3v.6c0-.2-.3-.4 0-.6zM23.7 55.9s0 .2-.2.2c0-.1 0-.2.2-.3zM9 93.4c0 .1 0 .2-.2.2 0-.2.1-.2.2-.2z"/><path class="wpg_st3" d="M74.5 19v.3c-.1-.2-.1-.3 0-.4z"/><path class="wpg_st1" d="M8.8 93.9v0zM9.7 90l-.1.2v-.1z"/><path class="wpg_st6" d="M169.2 168.7c.2 0 .3-.2.3-.3l.2-.2c.4.7-.2 1-.5 1.3-.9 1-1.9 1.7-2.7 2.7-.2.3-.4 0-.5-.2.8-1 1.8-1.8 2.6-2.7l.5-.5.1-.1zM161.7 176.4l.1-.1c.3 0 .3-.2.3-.4l3.1-3.2c.2.3.4.5 0 .8l-3.1 3c-.2 0-.2.2-.3.4-.2.4-.4.4-.6 0 .4 0 .5-.2.5-.5z"/><path class="wpg_st1" d="M190.9 122a2 2 0 01.4-1.7c0 .6 0 1.2-.4 1.7zM173.7 163.1c-.1-.5.2-.8.6-.8l-.6.8zM169.7 168.2l-.2.2c-.1-.5.2-.6.5-.8l-.1.5-.2.1z"/><path class="wpg_st6" d="M169.9 168.1l.2-.5.1.2c0 .1.3.2.1.4-.1.1-.3 0-.4-.1zM37.9 176l2.7 2.5c0 .2 0 .5-.4.2l-2.2-2.1c-.3-.2-.3-.4-.1-.7zM29.9 167.4c.2.8.8 1.2 1.3 1.8.2.2.5.4.6.7-.2 0-.4.2-.6 0a8 8 0 00-1-1.1c-.5-.4-.7-.8-.3-1.4z"/><path class="wpg_st2" d="M87.6 198.9c.3 0 .6.2.8.3-.3 0-.7.4-.8-.3zM92 199.2H92.2zM111 17h.4l.2.1 1.5.2c1.7.5 3.5.5 5.3 1l2.6.5a85.2 85.2 0 0130.7 13.5l5.8 4.4 3.9 3.3 5.6 5.6 3.6 4A96.6 96.6 0 01188 83.4c.8 2.7 1.3 5.5 2 8.3.2.8.2 1.6.3 2.5-.3 1 0 2.2-.1 3.3 0 .4.3.3.5.4l.4 3-.3.1c-.5 1.1-.3 2.2-.2 3.4.2 2.8.1 5.6 0 8.4l-.2 1.6c0 .5.1 1 .6 1.3v.7l-.3 1.6c-.4.5-.5 1-.5 1.6-.1 1.3-.2 2.7-.6 4-.1.2-.2.5 0 .8 0 1.7-.4 3.4-.9 5l-.7 3.2-1 2.9c-.4 1.8-1.1 3.6-1.8 5.4-.6 1.8-1.5 3.6-2.3 5.4a61.3 61.3 0 01-6 10.7c-1 1.6-1.9 3.2-3 4.7a92.2 92.2 0 01-31 26.8l-5 2.4c-2 1-4.2 1.7-6.2 2.5-3 1.2-6 2-9 2.9l-4.7 1c-.7-.4-1.4 0-2.1 0l-.1.4h-.3c-.2-.2-.4-.1-.6.1-1 .4-2 .3-2.9.5a80.1 80.1 0 01-24.4 0l-5.2-.9c-1-.1-2.1-.3-3.1-.6L76 196l-4.6-1.4-4-1.4c-2-.8-4.1-1.6-6.1-2.6-1-.5-2.1-.8-3-1.4l-3.3-1.8-3.6-2.1a93.7 93.7 0 01-25-23.3c.2-.2.7.1.7-.3 0-.3 0-.6.2-.9v-.3H27c.1.7-.6.9-.6 1.4-.9-.9-1.6-1.9-2.2-3 .6-.1.7-.5.5-1l-.4-.9c-.1-.3-.4-.7-.2-1 .2-.4.6 0 1 0 1-.1 1.5.5 1.5 1.5l.1.9c.3 1 .7 1.8 1.4 2.5.4.5.9 1 1.5.8.6-.2.9.2 1.2.6.3.4.4 1 .4 1.6 0 .3 0 .6.2.8.6.5.9 1.4 1.8 1.5l.3.3c.8 1.3 1.9 2.5 2 4.1.1.4.3.5.6.8.4.4 1 0 1.4.3 1 .8 2.3 1.5 2.3 3.1 0 .5.4.7.7.5.4-.2.8-.1 1.2 0h1.5c1 .4 1.7 1 2.1 2l.7.8c.6 1 1.8 1.1 2.7 1.7 1.3.8 2.8 1.3 4 2 .4.3.6.6.6 1 0 1 .6 1.6 1.5 1.6s1.5.2 2.2.8l.6.6c.5.8 1.3 1.2 2.3 1 .8-.1 2.3.6 2.6 1.4.2.6.6.7 1.1.9H65c1.5 0 2.9.2 4.2 1.1.2.2.5.4.9.5 1.7.2 2.9 1.8 4.7 1.6l.5.2c.7.3 1.4.8 2.3.8 1.2 0 2.2.7 3 1.5.4.3.7.4 1.2.3.6-.2 1.2-.3 1.6-.1.8.4 1.4.2 2 0 1.7-.2 3.3-.3 4.8.4.7.4 1.4.4 2.2.3 1 0 2.2 0 3.2-.4h.2c1 .2 2 0 3.1 0l5.5-.1h1.4l2.7-.2c.6 0 1-.3 1-1h.3c.3.2.6.6 1 .6 1.1 0 2 .6 3.1.9.5.1 1.1.2 1.6-.1 1-.8 2.5-.8 3.5-1.8h.3c1.6-.4 3.1-1 4.8-.9l.4-.1c.5-.4 1.3-.5 1.9-.8 1.7-.9 3.6-1 5.4-1.6 1.5-.4 2.8-1 4-2l1-.4c1 0 1.7-.4 2.4-1 1-.8 2.2-1.7 3.5-2.3 1.2-.6 2.3-1.1 3.3-2 .5-.4 1-.8 1.7-1 .8-.3 1.5-.8 2.2-1.4l1.7-1.3c.7-.5 1.8-1 2-2 .1-.2.3-.2.5-.3a7 7 0 003.5-2.4 8 8 0 012-1.9c1-.6 2-1.2 2.6-2.2.5-.7 1.2-1.5 2-1.7 1-.2 1.4-.8 1.7-1.5.3-.8 1-1.3 1.6-1.8.4-.3.6-.7.5-1.1-.1-.5 0-.8.3-1 .6-1 1.5-1.8 2-2.7l.8-1.1a5 5 0 001.7-2.2c.1-.5.4-.9.7-1.3.4-.5.5-1.1.2-1.7 1-1.7 2-3.3 2.8-5 1.6-3 3.1-6 4.3-9.2 1.2-2.8 2-5.6 2.9-8.5a74.5 74.5 0 003-17.5v-.6-1.2-.7c.4-2.4.2-4.9 0-7.3v-.3-.7l-.1-1.4-.4-4.2c-.2-1.4-.3-3-.6-4.3v-.3c-.1-.4-.1-.8-.3-1.1v-.3l-.2-.8V90a87 87 0 00-66-66.8 83.6 83.6 0 00-25.7-1.9c-2.7.2-5.3.6-8 1-1.7.2-3.5.6-5.2 1-.4 0-.5 0-.5.5l.8 4c.2 1.5.7 3 .9 4.7-.2 0-.3 0-.3.3-.3.6-.9.6-1.3.6-.5 0-.7-.5-.8-.9 0-.5-.4-.6-.7-.7l-.5-4.1-.2-2.5c-.2-2.4-.5-4.9-.5-7.3.5.1 1.1.6 1.4-.3l.1.3c.2 1.1.2 1.2 1.3.8 2.6-.8 5.3-1.1 8-1.5 3.5-.4 7-.6 10.6-.7l5.6.1h1.4l3.2.2c.7 0 1.3.2 2 .3h.4z"/><path class="wpg_st3" d="M78.5 17.6c-.3 1-.9.4-1.4.3 0-.1 0-.3-.2-.3l-.2.4c-.2 0-.5 0-.6.2-.3.6-.6 1.3-.3 2 .4 1 .6 2.1.4 3.3-.2 1.1-.2 1.1-1.3 1.2-1 .1-1.8.5-2.6.8A103.5 103.5 0 0052.7 35a80.5 80.5 0 00-17 14.4A78.3 78.3 0 0023 67.7a77.6 77.6 0 00-4.3 9.8c-1.8 4.5-3.1 9.1-4 14l-.8 4.9a56 56 0 00-.5 8c-.3 2-.3 3.9-.2 5.9.2 2.8.2 5.7.7 8.5v.4l.1.3v.8c0 .1 0 .3.2.4l.1 1 .1.4v.5l.1.2.1.5v.1l.1.3v.4l.1.3v.4c0 .1 0 .2.2.3v.6l.1.2v.3l.1.4v.1l.1.3v.3l.1.3a93.5 93.5 0 008.6 22.2c1.3 2.3 2.6 4.5 4.1 6.7l.2.2c0 .2.1.3.3.4l.8 1.2a26.2 26.2 0 01.6.9c0 .1 0 .2.2.3 0 0 0 .2.2.3l.5.6.1.1.5.7.2.2.1.2.1.1c.1.3.3.5.5.6 1.6 2 3.5 4 5.3 6 2.4 2.6 5.2 5 8 7.3 1.1 1 2.4 1.8 3.7 2.7l.1.2h.2c1.1 1 2.4 1.7 3.7 2.5.4.4.8.7 1.3.8l.1.1c.4.3.8.6 1.3.7.7.7 1.6 1 2.4 1.5l4.6 2.2c1.3.6 2.6 1.3 4 1.7.1.1.1.3.3.3l5.9 2 5.4 1.7 2.3.5 5 1c1.2 0 2.3.3 3.4.4 1 0 1.8.2 2.7.3 1.3 0 2.5.3 3.8.2H97a48 48 0 015.7 0h.3l4.2-.1 1.5-.3h.7c0 .7-.5 1-1 1l-2.7.2h-6.9c-1 0-2.1.3-3.2 0h-.1c-1 .5-2.2.4-3.3.5-.7 0-1.5 0-2.2-.3-1.5-.8-3-.6-4.7-.4-.6.1-1.3.3-2 0-.4-.3-1.1-.1-1.6 0-.5.2-.9 0-1.2-.3-.9-.8-1.8-1.4-3-1.4-1 0-1.6-.5-2.4-.8l-.4-.2c-1.9.2-3-1.5-4.8-1.7-.3 0-.6-.2-.9-.4-1.3-.9-2.7-1.1-4.2-1.1l-1.3-.1c-.6-.1-1-.3-1.2-.9-.3-.8-1.7-1.5-2.6-1.3-1 .1-1.7-.3-2.3-1l-.6-.7c-.6-.5-1.3-.8-2.1-.8-1 0-1.5-.6-1.6-1.6a1 1 0 00-.5-.9c-1.3-.8-2.8-1.3-4-2-1-.6-2.1-.8-2.8-1.7-.2-.3-.5-.6-.6-1-.4-1-1.2-1.4-2.2-1.8-.4-.2-1 0-1.5 0-.4-.2-.7-.3-1.1 0-.3.1-.7 0-.7-.5 0-1.6-1.3-2.3-2.4-3.1-.4-.3-1 0-1.4-.4-.2-.2-.5-.3-.5-.7-.2-1.6-1.2-2.9-2-4.2l-.4-.2c-.9-.2-1.2-1-1.7-1.5-.3-.2-.2-.6-.2-.9 0-.6-.2-1.1-.5-1.6-.3-.4-.5-.7-1.2-.5-.6.1-1-.3-1.5-.8a6.7 6.7 0 01-1.3-2.5l-.2-1c0-1-.5-1.6-1.5-1.5-.3 0-.8-.4-1 0-.2.4.1.7.3 1l.3.9c.3.5.1 1-.5 1.1v-.2c-1.5-1.9-2.6-3.9-3.8-6A90.2 90.2 0 019 118v-.5l-.1-.3-.2-1.8c-.2-3.1-.2-6.2-.2-9.4 0-2.5.2-5 .4-7.6l.4-3 .6-4.2a114.3 114.3 0 013.6-13.4A85.7 85.7 0 0124 56.6l.1-.2.3-.4a146.3 146.3 0 017.8-9.8l.2-.3c2-2 4-4.1 6.1-6a79 79 0 016.5-5.3l.6-.5c2.6-1.9 5.3-3.7 8.1-5.3 1.5-.9 3-1.8 4.5-2.5A96 96 0 0174 20.2c.6-.2.9-.5.9-1.2V7.7 7c.7 0 .9-.5 1-1 0-.2-.2-.5.1-.7h.1l.8 4 1.6 8.3zM191 115.7c-.4-.3-.5-.8-.5-1.3-.1-.6.2-1.1.2-1.6 0-2.9.2-5.7 0-8.5-.2-1.1-.4-2.2.2-3.3 0-.1 0-.2.2-.2l.2 2.5v8.8c-.1 1.2 0 2.4-.3 3.6z"/><path class="wpg_st6" d="M189.7 124.3c-.3-.2-.2-.5-.1-.8.5-1.3.5-2.6.6-4 0-.5 0-1 .5-1.5 0 2-.5 3.8-.7 5.7 0 .2 0 .5-.3.6zM115.8 197.6l.1-.3c.7 0 1.4-.4 2 0-.6.3-1.4.1-2 .3z"/><path class="wpg_st1" d="M9 117.2v.2c-.5 0-.1.6-.4.7-.4-.4-.1-1-.3-1.5.4 0 .3.6.7.6z"/><path class="wpg_st7" d="M161.7 176.4c0 .3-.1.5-.5.5 0-.3.2-.5.5-.5z"/><path class="wpg_st6" d="M115 197.8c0-.3.3-.4.5-.1h-.6z"/><path class="wpg_st7" d="M162.1 176c0 .1 0 .3-.3.3 0-.2.1-.3.3-.4z"/><path class="wpg_st1" d="M191 116.3z"/><path class="wpg_st2" d="M24.1 158.7s.1.1 0 .2v-.2z"/><path class="wpg_st1" d="M169.2 168.7l-.1.1.1-.1z"/><path class="wpg_st0" d="M9 117.2c-.4 0-.3-.7-.7-.6.2-.4-.3-1 .5-1.2l.2 1.8z"/><path class="wpg_st4" d="M167 45.6c-1.8-2-3.7-3.8-5.6-5.6.2-.1.4-.2.4-.5.4 0 .6.2.8.4a1061.4 1061.4 0 005.3 5.6h-.9z"/><path class="wpg_st6" d="M190.7 97.8c-.2 0-.5 0-.5-.3 0-1.1-.2-2.2.1-3.4.3 1.3.3 2.5.4 3.8zM76.1 5.3c-.3.2-.2.5-.2.7 0 .5-.2 1-.8 1L75 5c.2-1 0-2 0-2.9 0-.4-.1-1 .2-1 .4 0 .2.6.3.9.3 1 .4 2.2.6 3.3z"/><path class="wpg_st1" d="M105.5 16.6h-.2.2zM111.6 17h-.2.2zM111 17h-.1.2zM24.2 56.4v0z"/><path d="M108.9 194l-1.5.2-4.2.2h-.8l-4.2.1h-1l-1.3-.1c0-.3-.3-.4-.5-.4l-2-.1c-1.3-.2-2.5-.1-3.8-.4l-.7-.2a463 463 0 01-3.7-.5c-2.1-.3-4.2-.8-6.4-1.3l-6-1.8-5.4-1.8-4-1.9c-1.6-.8-3.2-1.4-4.8-2.3-.7-.5-1.5-1-2.5-1.1-.2-.7-.7-.7-1.2-.7l-.1-.1c-.3-.6-.7-.9-1.3-.8 0-.2 0-.3-.2-.4-.6-.4-1.3-1-2-1.3-.5-.3-1-.8-1.6-.8h-.1l-.2-.2c-1.2-.9-2.5-1.7-3.7-2.7a90.7 90.7 0 01-8-7.3l-5.3-6c0-.4 0-.6-.4-.6l-.1-.1c0-.1 0-.3-.2-.3l-.1-.1c0-.4-.1-.7-.5-.7l-.2-.1c0-.3 0-.7-.4-.7 0-.2 0-.3-.3-.3l-.1-.2c0-.3 0-.6-.4-.6 0-.2 0-.3-.2-.3 0-.6-.3-1-.9-1.2 0-.2 0-.4-.2-.4l-.2-.3c.2 0 .1-.2 0-.3-1-1.6-2-3-2.9-4.7-1-1.7-2-3.5-2.8-5.3-1.4-3.1-3-6.2-4-9.6-1-3-2.1-6-2.8-9.2 0-.2-.1-.3-.3-.3l-.1-.3h.2c0-.2-.1-.2-.2-.2v-.3c.2-.2 0-.3-.2-.3v-.2-.3c.3-.3 0-.3-.1-.3v-.3c.3-.3.1-.4-.2-.4v-.3-.1l.2-.1c0-.2-.2-.2-.3-.2v-.2-.2c.1 0 .2-.1.2-.3 0-.2-.2-.2-.3-.2v-.2l.1-.3c0-.2-.1-.2-.2-.2l-.1-.4c.3-.4.1-1.9-.3-2.2l-.1-.3c.1-.1 0-.3 0-.4.4-.4 0-.8 0-1.2l-.2-3.4-.3-3.6c.1-.7.3-1.4.2-2.1-.3-1.4 0-2.8-.3-4.1 0-2.7.2-5.4.6-8 .2-1.7.4-3.3.8-5 .4 0 .5-.4.5-.7 0-.7.3-1.4.5-2.1l1.2-5 .7-2.3c.5-1.3 1-2.5 1-3.8a77.6 77.6 0 0111.2-21A78.6 78.6 0 0144.6 41a80.5 80.5 0 0117.3-11c3.4-1.7 6.8-3.1 10.4-4.4.9-.3 1.7-.7 2.6-.8.2.5 0 1 .2 1.6v9l.1.4-.1 1.8a539.9 539.9 0 00-5.3 2A69.7 69.7 0 0042 60.7a73 73 0 00-16.4 40.4 77.8 77.8 0 003.4 30 74.4 74.4 0 0069 51.3 76.8 76.8 0 0035-7.6 75.7 75.7 0 0038.2-44.2 67.8 67.8 0 003.5-25.4A74.7 74.7 0 0087 34.3l-4.8 1H82c-.3-1-.2-2-.5-2.8-.2-1.6-.6-3.2-1-4.8l-.6-3.9c-.1-.4 0-.5.4-.6l5.3-1a83.8 83.8 0 0122.8-.7 82 82 0 0127.5 7.3A83.6 83.6 0 01173.2 61 87 87 0 01185 90l.1.5c-.4.4-.1.6.2.8v.3c-.3.5-.1.8.3 1.1v.3c-.3.5 0 1 0 1.5.2 2.1.6 4.2.7 6.3 0 .2 0 .6.3.8v1.3c-.2.3 0 .5.2.7v.3c-.3 0-.2.3-.2.5v6c0 .3 0 .6.2.8v.7c-.4.4-.3.8-.1 1.2v.6c-.3 0-.3.2-.3.4-.3 1.8-.3 3.7-.7 5.5l-.6 4.2-1.2 5.6c-.8 3.3-2 6.5-3 9.7-.1.2-.3.4 0 .6a73.6 73.6 0 01-4.4 9.3l-2.8 4.9-.4.6a88.4 88.4 0 01-30.5 28.8c-1.2.7-2.3 1.5-3.6 2-1 .1-1.7.3-2.4 1-.3 0-.6 0-1 .2a78 78 0 01-10.8 4c-.7.3-1.5.6-2.3.7-.4.1-1 0-1.3.6l-.2.1a114.6 114.6 0 00-3.8.6c-1.3.3-2.6.5-4 .6a30.7 30.7 0 00-4.5 1z" fill="#091b40"/><path class="wpg_st3" d="M121.1 191.8h.3c1.8-.3 3.6-1 5.4-1.5l5.6-2c1.5-.6 3-1.2 4.4-2 .8-.3 1.6-.7 2.3-1.2 1.3-.4 2.5-1.2 3.6-1.8a73.8 73.8 0 0013.5-9.4 87 87 0 0017-19.5l.5-.6c.3.6.2 1.2-.2 1.8l-.8 1.2c-.3 1-.9 1.6-1.6 2.2-.4.3-.5.7-.8 1-.5 1-1.4 1.8-2 2.8-.3.3-.5.6-.4 1 .2.5 0 .8-.5 1.2-.6.4-1.2 1-1.5 1.7-.3.8-.8 1.3-1.7 1.5-.9.2-1.5 1-2 1.8-.7 1-1.6 1.6-2.6 2.2-.7.5-1.5 1-2 1.8a7 7 0 01-3.5 2.4c-.2 0-.4.2-.4.3-.3 1.1-1.4 1.5-2.1 2l-1.7 1.4c-.7.5-1.4 1-2.2 1.3-.7.2-1.2.6-1.7 1-1 .9-2.1 1.5-3.3 2-1.3.6-2.4 1.5-3.6 2.4-.6.6-1.4.9-2.3 1-.4 0-.7 0-1 .4a9.7 9.7 0 01-4 2c-1.9.5-3.8.7-5.5 1.6-.6.3-1.3.3-1.9.7 0 .1-.2.2-.4.1-1.6 0-3.1.5-4.7.9h-.3c-1 1-2.4 1-3.5 1.8-.5.4-1.1.3-1.6.1-1-.3-2-.9-3.2-.9-.4 0-.6-.3-1-.6 1.2-.3 2.3-.2 3.4-.4l4.2-.7c1.1-.2 2.2-.7 3.4-.7.3 0 .3-.1.4-.3z"/><path class="wpg_st5" d="M77.8 27.7l.4 4 .8 7.1.3 4.3c-.5 0-.8 0-1 .5-.5.6-.8.6-1.1-.2-.2-.3-.3-.5-.7-.5v-.6-8.6-.8-6c.4 0 .5.2.5.4.2.3.4.4.8.4z"/><path class="wpg_st3" d="M79.3 43l-.3-4.2-.7-7c.3 0 .7.2.7.7.1.4.3.8.7.8.5 0 1.1 0 1.3-.6.1-.2.2-.3.4-.3.3 1 .2 1.9.5 2.8v.2h-.3c-1.2-.2-1.3 0-1.4 1v1.3c-.5.2-.7.7-.3 1 .4.3.4.6.3 1-.2 1.5 0 3 0 4.4 0 .5.3.8.3 1.3l.3 1.8.2 3.7c0 1.4-.2 2.9-.6 4.3 0 .2 0 .6-.3.7v-3.8c0-1.5 0-3-.3-4.5 0-.2 0-.4-.2-.5v-.8c0-.4.2-.8-.1-1.2v-.5l-.1-.6-.1-1z"/><path class="wpg_st1" d="M180.8 139.6c-.3-.2 0-.4 0-.6 1.1-3.2 2.2-6.4 3-9.7l1.3-5.6c.3-1.3.4-2.7.6-4.1.3-1.9.3-3.7.7-5.6a71 71 0 01-2.7 17.1c-.9 3-1.7 5.8-3 8.5z"/><path class="wpg_st0" d="M77.8 27.7c-.4 0-.6-.1-.8-.4 0-.2-.2-.4-.4-.4v-.5c.1 0 .1-.2 0-.4 0-2.6-.1-5.3.1-8l.2-.4.2.3c0 2.4.3 4.8.5 7.3l.2 2.5z"/><path class="wpg_st1" d="M121.1 191.8c0 .2-.1.3-.3.3-1.2 0-2.3.5-3.5.7l-4.2.7c-1 .2-2.2.1-3.3.4l-.3.1h-.6c0-.2 0-.2.3-.3a28 28 0 014.2-.6c1.3-.1 2.6-.4 4-.7l3-.7c.3 0 .5-.1.7.1zM186.7 111.2c-.2-.3-.2-.5-.2-.8v-6c0-.2 0-.5.2-.6.2 2.5.4 5 0 7.4zM186.6 101.5c-.4-.1-.3-.5-.3-.8l-.8-6.2c0-.5-.3-1 0-1.6.4 1.4.5 3 .7 4.4l.4 4.2z"/><path class="wpg_st3" d="M26.4 161.9c0-.6.7-.8.6-1.4 0-.1.2-.1.2 0 .1 0 .2.1.1.2l-.1 1c0 .3-.6 0-.8.2z"/><path class="wpg_st1" d="M186.7 113c-.2-.4-.4-.8 0-1.2v1.3zM185.5 92.7c-.4-.3-.5-.7-.2-1.1l.2 1zM185.3 91.3c-.3-.2-.7-.5-.2-.8l.2.8zM186.7 103.5c0-.2-.3-.4 0-.6v.6zM15.7 127.3c.7 3.1 1.8 6.1 2.8 9.2 1 3.3 2.5 6.4 4 9.6.8 1.8 1.8 3.6 2.8 5.3l2.9 4.6c.1.2.2.3 0 .4a77.1 77.1 0 01-12.7-28.8v-.3h.2z"/><path class="wpg_st0" d="M67.4 187.9l5.3 1.8c2 .6 4 1.3 6.1 1.8 2.2.5 4.3 1 6.4 1.3l3.7.5.7.2v.3c-1.2 0-2.3-.2-3.5-.4a84 84 0 01-5-1l-2.4-.5-5.3-1.6-6-2-.2-.3.2-.1z"/><path class="wpg_st2" d="M76.7 18c-.2 2.7 0 5.4 0 8l-.1.5-1.5-.2c-.2-.5 0-1-.2-1.6 1.1 0 1 0 1.3-1.2.2-1.2 0-2.3-.4-3.3-.3-.7 0-1.4.3-2 0-.3.4-.2.6-.2z"/><path class="wpg_st5" d="M18.7 77.5c0 1.3-.6 2.5-1 3.7l-.7 2.5-1.3 4.9c-.2.7-.4 1.4-.4 2.1 0 .3-.1.7-.5.7.8-4.8 2.1-9.4 3.9-14zM13.4 104.3c.2 1.4 0 2.8.2 4.2.1.7 0 1.4-.1 2.1-.1 1.2.2 2.4.2 3.6l.3 3.4c0 .4.3.8 0 1.2-.6-2.8-.6-5.7-.8-8.5-.1-2 0-4 .2-6z"/><path class="wpg_st1" d="M67.4 187.9l-.2.1-4-1.7-4.6-2.3c-.9-.4-1.8-.8-2.5-1.5 1 .2 1.8.7 2.5 1.2 1.5 1 3.2 1.5 4.8 2.3l4 1.9zM89.5 193.8l.1-.4c1.3.4 2.5.3 3.8.5l2 .1c.2 0 .4 0 .5.4l-3.7-.3-2.7-.3zM49.7 178.5c.7 0 1 .5 1.6.8l2 1.3c.2 0 .3.2.2.4-1.3-.8-2.6-1.5-3.8-2.5z"/><path class="wpg_st5" d="M14 119.5c.5.3.7 1.8.3 2.2 0-.4-.2-.7-.1-1l-.1-.4v-.8z"/><path class="wpg_st1" d="M53.5 181c.6 0 1 .2 1.3.8a2 2 0 01-1.3-.8zM28.6 157c.5.3.8.7.8 1.3l-.8-1.2zM54.9 181.9c.5 0 1 0 1.2.6-.4 0-.8-.3-1.2-.6zM31 160.5c.5 0 .6.3.6.7a2 2 0 01-.6-.7z"/><path class="wpg_st5" d="M14.5 122.8c.2 0 .3 0 .3.2s0 .3-.2.3v-.5z"/><path class="wpg_st1" d="M30.5 159.7c.5 0 .3.4.4.6-.2-.1-.3-.3-.4-.6zM32 161.7c.4 0 .5.2.4.5-.2 0-.3-.3-.4-.5zM29.7 158.6c.4 0 .4.3.4.6l-.4-.6z"/><path class="wpg_st2" d="M97.2 194.4h1c-.4.1-.7.2-1 0z"/><path class="wpg_st5" d="M14.4 122c.2 0 .3.1.3.3l-.2.2v-.4zM14.8 124.4c.3 0 .4.1.2.4h-.1v-.4z"/><path class="wpg_st1" d="M28.3 156.7c.3 0 .3.2.3.4-.2-.1-.2-.3-.3-.4z"/><path class="wpg_st5" d="M15.7 127.3h-.3v-.3c.2 0 .3 0 .3.3z"/><path class="wpg_st1" d="M30.2 159.4c.3 0 .3.1.3.3-.2 0-.2-.2-.3-.3z"/><path class="wpg_st5" d="M15.3 126.4s.2 0 .2.2l-.2.1v-.1-.2z"/><path class="wpg_st2" d="M102.3 194.5h.5-.5z"/><path class="wpg_st5" d="M15.1 125.9c.2 0 .4 0 .2.2H15v-.2z"/><path class="wpg_st1" d="M29.4 158.3c.2 0 .3.1.3.3a.4.4 0 01-.3-.3z"/><path class="wpg_st5" d="M15 125c.2 0 .3 0 .1.3l-.1-.2zM14.7 123.7l.2.1-.2.2v-.3z"/><path class="wpg_st1" d="M15.2 126.2v0zM14 118.8v0zM14.9 124.8h.1v.3l-.1-.3zM15 125.3h.1v.4c-.1-.1-.1-.2 0-.4zM31.7 161.3c.2 0 .2.2.2.3l-.2-.3zM30 159.2c.2 0 .2 0 .2.2l-.1-.2zM14 120.3c.2 0 .2.2.2.3l-.1-.3zM14.8 124.1zM14.6 123.4l.1.3v-.3zM14.5 122.6v0zM31.6 161.2l.1.1-.1-.1zM49.4 178.3l.2.1h-.2z"/><path class="wpg_st9" d="M82 35.4l.3-.2 4.8-1a68.6 68.6 0 0123-.3 61 61 0 0113.6 3.2L129 39a90.6 90.6 0 0115 8.5 71 71 0 0118.4 19.2 75.5 75.5 0 01.6 81.2 72 72 0 01-19.5 20.5 75.7 75.7 0 01-45.5 14 69.5 69.5 0 01-22.3-4 71.5 71.5 0 01-25.4-14.9 76.4 76.4 0 01-23.8-42.2c-.5-3.4-1-6.7-1.2-10-.2-3.5 0-6.8.3-10.2a65 65 0 013.7-17.7 76.5 76.5 0 0121.5-31.9 75.3 75.3 0 0119-12l4.2-1.8 1-.3h.2v4.7h-.4l-4.7 2c-2.5 1.2-5 2.6-7.3 4l-6.1 4.3-.2.2h-.1l-.3.2-.2.3c-.2 0-.2 0-.3.2-.1 0-.3 0-.3.2l-2 1.6a71.3 71.3 0 00-20.6 32.4c-.3.3 0 .8-.1 1.2a74 74 0 00-1.5 5.2l-1 5.5c-.2.2-.1.4 0 .7v1.2c-.4 2.6-.5 5.2-.3 7.8v1.4l.3 5.3v.7l.1.3c0 .1.1.2.3.1.2 0 .3 0 .4.2-.7.8-.4 1.7-.1 2.5 0 .6.1 1.1.5 1.5-.3.1-.2.4-.2.7.3 1.8.8 3.5 1.3 5.2 1 3.9 2.5 7.6 4.3 11.2 1 2.1 2 4.2 3.4 6.2v.1c.1.4.5.5.6.8.3.5.6.5 1.1.2l9.1-5.6c3.4-2 6.7-4 10.2-5.8l6.2-3.2 6.8-3.4v1l.1 19c0 .4.2.8 0 .9-.4.1-.6-.3-.8-.5a49.2 49.2 0 01-9.4-10.8c-.2-.3-.3-.3-.5-.2l-2 1c-3.6 2-7.2 4.2-10.8 6.4l-7.2 4.6c-.4.2-.5.5-.2.8l1 1.3a70.6 70.6 0 0016.2 15l.4.2c0 .2.2.3.4.3l.4.2c.1.2.3.3.4.3 0 .2.2.2.3.2 1.6 1.2 3.5 2.1 5.3 3a73.5 73.5 0 0011.7 4.9l6.2 1.6c.7.2.7.2.6-.6v-.2-.2-.5-45.8l.1-7c.1-.1.1-.2 0-.2v-.3c.4.2.8 0 1.2 0a347 347 0 0136.5-12.5l9.3-2.6 8.6-1.9c2-.4 4-1 6-1.3l7.2-1.4c2.2-.4 4.4-.8 6.7-1 2.5-.4 5-.9 7.5-1 .2 0 .3-.2.4-.4.2-2-.2-2.3-2.2-2l-6.3.8-9.3 1.3-8.8 1.5c-3.5.5-7 1.2-10.5 1.9-2.5.5-5 .8-7.5 1.5-.3 0-.8.2-1-.2-.1-.6.5-.5.8-.6l5.6-1.6a261.8 261.8 0 0128.5-6.8c3-.5 5.9-1 8.9-1.3.8 0 1-.3.8-1.1l-.6-2.7c-.3-1.7-.8-3.4-1.4-5-.6-2-1.4-4-2.3-5.9l-.5-.6a89.3 89.3 0 00-16-11.8c-6-3.6-12-6.7-18.4-9.4-.7-.3-1.4-.7-2.2-.6-.2-.1-.1-.4-.2-.6v-.2c.2-.1.2-.2.2-.4v-.7l-.1-.2v-.6h1.2l1.3.4c2.5.7 5 1.4 7.3 2.3a1836.4 1836.4 0 0110 3.9l6.6 2.8c.5.3 1 .6 1.8.8-.2-.8-.8-1.2-1.2-1.7a39.8 39.8 0 00-4.4-4.7l-.3-.3-.2-.3-.3-.2c0-.2-.1-.3-.3-.3l-.2-.3-.3-.2-.2-.2-.1-.1-.2-.2-1-1a69.7 69.7 0 00-56.3-17c-2.5.4-5 1-7.5 1.3h-.4a128 128 0 01-.6-4zM130.6 171c.2-.2.6-.1.7-.5 1-.1 1.6-.7 2.4-1 .3-.1.4-.3.4-.7v-33-9.4c.1-.3-.3-.8.3-1 2.2-.3 4.4-1.1 6.6-1.4.5-.1.5-.4.5-.7v-14c0-.5-.2-.6-.6-.5l-6.2 1.4-7.5 2-2.2.7-7 2-9.4 3-6.1 2.1c-4.8 1.7-9.4 3.7-14 5.4-.3 0-.4.2-.4.5v2l.1 9v.3c0 13 .1 26-.1 39 0 1.2 0 1 1 1l.6.1 5.7.6c2.7.3 5.3.1 8 .1h.6a69 69 0 0012.8-1.9c.4-.1.5-.3.5-.7v-14.8c0-1.2 0-1.3-1.2-.7l-1.7.5c-3.3 1-6.6 1.6-10 2-.4 0-.5-.1-.4-.5V160c0-1.2 0-1.2 1-1.4 2.4-.2 4.7-.8 7-1.3 1.6-.4 3-1 4.6-1.5.6-.1.7-.3.7-.9V139v-4.4c0-.5-.2-.7-.6-.4l-1.6.5-10.6 3.8c-.4.1-.5 0-.5-.3l-.1-2.5c0-.4.1-.6.5-.7l3.2-1.2 11-3.7c.7-.3.8-.2.8.6V175.3c.4 0 .7 0 1-.3.1 0 .3 0 .4-.2 1.4-.3 2.8-.9 4.2-1.4 1-.4 1.9-.7 2.7-1.2l.3-.1 1-.4.2-.2h.3l.8-.5.3-.1zm5.4-3c1.1-.5 2-1.2 3-1.8a69.5 69.5 0 0028.5-38.9c.2-.6.3-1-.5-1.1l-1-.5c-2.2-1-4.4-2-6.5-3.3a8.2 8.2 0 01-2.3-2c-.3-.4-.3-.7.2-1l1.8-.5 5 .1 4.5.4c.3 0 .6.2.7-.3 0-1.2.3-2.3.4-3.5.3-3.3.4-6.7.4-10.1 0-2-.1-2.1-2.2-1.8l-6 1-8 1.4-5.7 1c-1.5.3-3 .8-4.5 1-.4 0-.4.1-.4.4v14c0 .6-.1 1.1.8 1.4 1.3.5 2.4 1.3 3.5 2 2 1.5 4.1 3 5.4 5.2.9 1.6 1.2 3 .2 4.6a9.3 9.3 0 01-4 3.3c-2 1-4.2 1.5-6.4 2-2.1.4-4.2.7-6.4.7-.4 0-.5.1-.5.6l.1 2.3-.1 23.5z"/><path class="wpg_st6" d="M75.2 37.5H75c.2-.6 0-1.2.2-1.8 0 0 .2 0 .3-.2 0-.2-.2-.2-.3-.2l-.1-7.5v-1.5c.5 0 1 .2 1.5.1v7.3c-.4.1-1 1.6-.8 2 .3.6.2 1.2 0 1.8h-.6z"/><path class="wpg_st1" d="M136.8 186.2a90.8 90.8 0 01-10 4c-1.8.7-3.6 1.3-5.4 1.6.2-.6.8-.5 1.2-.6.9-.1 1.6-.4 2.4-.7a78 78 0 007.6-2.6c1-.5 2.2-.8 3.2-1.5.3-.2.6-.2 1-.2zM139.1 185.2c-.7.4-1.5.8-2.3 1 .6-.6 1.4-.9 2.3-1z"/><path class="wpg_st10" d="M75.2 35.3c.1 0 .3 0 .3.2s-.2.2-.3.2v-.4z"/><path class="wpg_st2" d="M82.3 35.2l-.4.2v-.2h.4z"/><path class="wpg_st4" d="M79.5 46.3l.1.8c-.3.3-.2.4.1.5.3 1.4.3 3 .4 4.5v27.5c0 .2 0 .5-.3.5-1 .1-1.9.4-2.8.6-.3 0-.4.1-.5-.2v-1-11.2-14V47v-2.9c.5-.2.5-.5 0-.8V43c.4 0 .5.2.7.5.2.7.6.8 1 .2.3-.5.6-.6 1-.5l.1.9c-.2.2-.3.4.1.6v.5c-.1.4-.3.9.1 1.2z"/><path class="wpg_st10" d="M76.5 43v13.4c-.2 0-.2-.4-.5-.4l-.1-2.4v-2.7h-.3v2.3l-.1 2c0 .2 0 .4-.3.4v-7.2-4.2-1c0-.4-.2-.9.5-1 .2 0 .2-.1 0-.2v-4.5c.3-.6.4-1.2 0-1.8-.1-.4.5-1.9.8-2v9.2z"/><path class="wpg_st2" d="M75.9 53.6L76 56l-.1.4c.2.8.1 1.6.1 2.4v6.1l-.1 4.8c0 .1 0 .2-.2.3-.1 0-.2-.4-.4-.3-.2.1 0 .4 0 .6v9.5c0 .6-.2 1.2.7.7h.5c0 .3.2.3.5.2 1-.2 1.8-.5 2.8-.6.4 0 .2-.3.2-.5V67l.1-11.1c.4-.2.2-.5.3-.8.4-1.4.6-2.9.6-4.3l-.2-3.7-.3-1.8c0-.5-.3-.8-.3-1.3 0-1.4-.2-2.9 0-4.4 0-.4 0-.7-.3-1-.4-.3-.2-.8.3-1l.5 2c0 1.3.3 2.7.4 4.1.1 2.7.6 5.3.8 8 .3 2.4.6 4.9.6 7.4v12.7c0 2.4.2 4.7 0 7.1-.1.5 0 .8.6.7l1.3.1c.5.1.8 0 .7-.6v-2.9-13c-.1-1.8.1-3.7-.1-5.5l-2.5-14c-.2-1.6-.7-3-.8-4.5l-.1-3.9h.3l.6 4.1c-.3.2-.2.5-.2.7l1.5 7.4c.1 1 .6 1.8.4 2.8v.3c.4.8.6 1.7.7 2.6 0 .3.3.4.7.4 0 .2.2.4.1.6l.3.7v.4c-.3.4 0 .7.2 1l2.3 1.8v.1c-.2 0-.5 0-.6.3l-1-.8c-.3 0-.4-.4-.7-.2-.4.3-.2.7-.2 1 .1.6 0 1 0 1.6-.2.6-.5 1.5.2 2l.3 1c-.2.1 0 .3-.2.4-.5 0-.5.4-.5.8v13.4c0 .5.3 1 .5 1.5l.2 1.4v.2l.1.3c0 .2.2.3.3.4l.1.3c0 .1 0 .2.2.3l.7 1.6.2.6c.7 2 .7 2 2.8 2.8l.6.2.8.3 7 2.7c.5.1.6.3.6.8v6.2c0 .7.2.8.8.7l4-.8c.2.3.6.3 1 .2 1.3-.3 2.7-.2 4-.6.5-.2 1-.2 1.3-.7l.4-.1 7.2-1.2c.4 0 1 .1 1-.3.2-.3-.3-.6-.6-.8-1.7-1.8-3.2-3.8-5.2-5.3-.5-1-1.3-1.6-2-2.4-1.2-1.2-2.2-2.4-3.5-3.3-.1-.2-.2-.5-.4-.6l-4.6-5-.2-1 1.5 1.2c0 .1.1.3.3.1 0 .4.2.5.3.7l2.6 2.7c0 .2.2.4.4.4l.1.2c1.1 1.4 2.3 2.6 3.6 3.8.6.7 1.2 1.3 2 1.8 1.9 2.4 4.1 4.4 6 6.6.7.7 1.4 1 2.4.7h.3c2.8-.5 5.7-.9 8.5-1.1 1 .4 1.8.2 2.5-.6l.7.2 3-.4 6.4-.6 1.3.4c.7.2 1.4.5 2.1 0h.5c1.2.6 2-.4 3-.5v-.3c.4.1.5-.5 1-.3.2.2.4.1.7 0l11.2-.4 2-.2c.3 0 .5 0 .4-.4l.2-.4c.3 0 .5 0 .7.2.4.2.7.5 1.2.4l.6 2.8c.1.8 0 1-.8 1-3 .3-6 .9-9 1.4-4 .7-8 1.6-12 2.5-5.6 1.2-11 2.8-16.4 4.3l-5.6 1.5c-.4.1-.9.1-.7.6.1.5.6.3.9.2 2.4-.6 5-1 7.5-1.5l10.5-1.9 8.8-1.4c3.1-.5 6.2-1 9.3-1.3l6.3-.8c2-.4 2.4 0 2.2 2 0 .2-.2.3-.4.3-2.5.2-5 .6-7.5 1l-6.7 1.1-7.2 1.3-6 1.4c-2.9.6-5.7 1.2-8.6 2l-9.3 2.4a260.8 260.8 0 00-36.5 12.5c-.4.1-.8.2-1.2.1v-8.2c0-.3.1-.4.4-.5l4.5-1.7a244.9 244.9 0 0126.5-8.7l8.6-2.4c.3-.2.8 0 1.1-.3l3.1-.7c.5 0 1-.2 1.4-.3l.4-.1.2-.1h.2c.3 0 .6-.1.8-.3 1 0 1.8-.4 2.6-.6l10.4-2.2h.4c.2 0 .4 0 .5-.2.7 0 1.4-.2 2-.3.5 0 1-.2 1.4-.3l1.4-.2a1424 1424 0 007.8-1.5c.2 0 .4-.2.3-.4 0-.3-.2-.2-.3-.1l-1.7.2-5.1.5-4 .3h-.3c-.5.1-1.2 0-1.7.2-.3 0-.6 0-.8.2-.2-.2-.4 0-.6 0h-1.1a2004.1 2004.1 0 00-12.8 1.8h-.3-.2l-.9.2h-.2a17.7 17.7 0 01-.5.2c-1.7 0-3.3.4-5 .6l-3.4.6a416.6 416.6 0 00-21 4.3c-3 .6-5.9 1.4-8.8 2.1l-4.6 1.3c-.6.2-.7.1-.7-.4v-5.6c0-.5.1-1 .5-1.4l3.3-4c.2-.2.4-.5.4-.8h-.7L79.6 96 74 97.5c-.4-.2-.6-.5-.6-1 0-.1 0-.3-.2-.4l2-3.7c.4-1 1-1.8 1-3 0-.6 0-1.3.2-2 .2-.1.3-.4.5-.2.4.3.8.1 1.2 0l.5 1.7c0 .2.1.4.3.4.2 0 .2-.2.2-.3 0-2.2.5-4.3.7-6.4.2-1.2.2-1.2-1-1-1 .2-2 .5-2.6 1.4a152.1 152.1 0 01-2.8 7.2c-.3.7-.3 1.4-1 1.8 0 0-.2 0-.2.2l-.4.2c-.5 0-1 .2-1.4.5-.2.1-.4.2-.6 0-.2-.2.1-.3.2-.4.1-.2.3-.3.3-.5l.1-.1.1-.1c.6-.4 1-1 1.2-1.7.5-1.5 1.4-2.8 1.7-4.3l.7-1.3c.4-.9.8-1.7.8-2.7V69.1c0-.3 0-.6-.3-.8.5-.3.2-.7.3-1.1v-2.7V63v-1.7V60c0-.4.1-.9-.1-1.2.2-.4 0-.8 0-1.1.2-.1.2-.3.2-.5v-.1c0-.2.1-.5-.1-.7l.1-1c.3 0 .3 0 .3-.3 0-.7.2-1.3.1-2l.4.5zm21.6 42V92c-.1-.4-.3-.6-.6-.7l-8-3.1c-.1 0-.4-.3-.6 0-.1.2.1.4.3.6.7.7 1.4 1.6 2.3 2.2 1.2 1 1.9 2 1.7 3.6v4.7c0 .4 0 .6.5.4 1.3-.4 2.6-.6 3.9-.8.4 0 .6-.2.6-.7v-2.6zM83.3 80.9c-.5 0-.6.2-.4.6a79.7 79.7 0 013.9 4.9c.1.3.4.7.7.5.3-.2 0-.7 0-1-.6-1-1.3-2-1.5-3.2-.4-1.5-1.4-1.7-2.6-1.8h-.1z"/><path class="wpg_st6" d="M80.7 39.6l-.5-1.9v-1.3c0-1 .2-1.1 1.4-1l.1 3.9c-.5-.2-.7.3-1 .4z"/><path class="wpg_st5" d="M79.5 46.3c-.4-.3-.2-.8 0-1.2.3.4 0 .8 0 1.2zM79.4 44.6c-.4-.2-.3-.4 0-.6v.6zM79.7 47.6c-.3 0-.4-.2-.1-.5.2.1.1.3.1.5zM76.6 26.4V26c.1.2.1.3 0 .4z"/><path class="wpg_st11" d="M130.5 99.4l-3.1.8c0-.2-.1-.5-.4-.4-.3 0-.7.2-.7.7l-8.6 2.3a326 326 0 00-31 10.4c-.3.1-.5.2-.5.6l.1 8.2V175.2l-.1.6v.4c-.6.3-1.2.2-1.8 0l-2.5-.8c-2.4-.6-4.7-1.3-7-2.3l-5-2a81.5 81.5 0 01-7.5-3.9l-.3-.2c0-.3-.2-.2-.4-.2 0-.3-.2-.3-.4-.3 0-.3-.2-.3-.5-.3h.1c0-.3-.2-.3-.5-.2 0-.2 0-.2-.2-.2A70.6 70.6 0 0144.4 151l-1.1-1.3c-.3-.3-.2-.6.1-.8l7.3-4.6a217 217 0 0110.8-6.3l2-1c.2-.2.3-.2.5 0 2.5 4.2 5.8 7.7 9.3 11 .3.2.5.5.8.4.2-.1 0-.5 0-.8v-19.1-1-8.1c0-.8 0-.9-.8-.6-3 1.3-5.9 2.8-8.8 4.2l-6 3h-.1l-.1.1c-.3 0-.5.2-.7.3a46 46 0 00-6.5 3.7c-1.3.7-2.6 1.3-3.7 2.1 1.3-.6 2.7-.8 4-1.4l.9-.1h.1v.1c-.6.3-1.3.6-1.2 1.4 0 .5-.1.8-.5 1 0 .2-.3.2-.3.5-.4 0-.7.1-.8.5l-.2.1s-.2 0-.2.2c-.3 0-.7 0-.7.4-.2 0-.4 0-.4.3-.2 0-.3 0-.3.2-.7.5-1.6.7-2.3 1.6l2.7-.6c.7 0 .3.2 0 .4-.1.2-.3.4-.2.7 0 .3.3.2.5.2.5 0 .5.4.5.7-.3 0-.6.1-.7.5-.2 0-.3.1-.4.3l-.2.2-.2.1c-.1 0-.2 0-.2.2-.3 0-.6 0-.6.3l-.2.2c-.3 0-.5 0-.5.3l-.2.1-.2.2c-.2 0-.4 0-.4.2l-.2.2c-.2 0-.5-.1-.5.2 0 0-.2 0-.2.2l-.2.1c-.1.3-.4.4-.6.5-1.1.8-2.3 1.4-3.3 2.4 0-.2-.1-.2-.2-.2a59.6 59.6 0 01-7.7-17.4c-.4-1.7-1-3.4-1.2-5.2 0-.3-.2-.6.2-.7 1.2-.1 2.2-.7 3.3-1l6.5-2.5 5.5-2 5.7-2c-.2.6-.6 1.2-.7 1.8l-.1.1-1.5 1c-1.6.8-3 1.7-4.5 2.7-.3.2-.8.2-.8.7h-.2.2l.8-.5 7-2.7 4.9-1.8 12.2-4.3c1.3-.4 2.5-1 4-1.2.4 0 .5-.3.5-.8v-6.2-4.9l5.5-1.5 10.1-2.8c.2 0 .5-.2.8 0 0 .3-.3.5-.5.8l-3.3 4a2 2 0 00-.5 1.4v5.6c0 .5.2.6.7.4 1.5-.5 3.1-1 4.7-1.3l8.7-2.2 11.5-2.5 9.5-1.7 3.5-.6c-.1.4-.2.8.5.6h.3c.4.7 1 .6 1.5.6.8 0 1.5-.2 2-.7.3-.2.8-.2 1-.4.2-.3-.5-.4-.4-.8h.3l.2-.1h.3l.9-.2h.4c.4.2.8.3.6 1 0 .1.2.3.4.3.5.3.8.6.7 1.2-.3 0-.6-.2-.8.3h-.2-.2l-.4.2c-.4-.4-1-.2-1.4.3zm1-2.4c-.1-.2-.2-.3-.4-.2-.2 0-.4.1-.4.3 0 .2.3.3.4.3.2 0 .3-.1.3-.4z"/><path class="wpg_st12" d="M82.8 39.5c2.6-.4 5-1 7.6-1.3a71.4 71.4 0 0156.2 17l1.1 1c0 .1 0 .2.2.2l.1.1.1.1c0 .2.1.3.3.3 0 .2 0 .3.3.3 0 .2 0 .3.3.3 0 .1 0 .2.2.2 0 .2.1.3.3.3 0 .2 0 .3.3.2-.2 1.1-.5 1.4-1.3 1h-.2c-.1 0-.3-.1-.4 0v.5c0 .3.3.5-.1.8-.3.2-.4.6-.8.5l-3.3-1.2-6.7-2.6c-2.4-.9-4.9-1.6-7.3-2.4-.4-.5-.6-1.2-1.4-1.2l-1.4-.2-.2-.3v-1.4c0-.4.1-1-.3-1.3 0-.4-.2-.7 0-1.1.3-.4.1-.7-.3-.9-.7-.2-1.4-.3-2-.1l-1.2-1c-1-.9-2-1.5-3.2-2 0-.9-.6-1.3-1.5-1.5l-2.2-.5c-.2 0-.4-.2-.6 0 .5.6.5 1.1 0 1.7a9.7 9.7 0 00-4.8 2.4h-2l-2.4-.3c-2.2 0-4.3-.4-6.5-.4-.3 0-.8-.2-1 .2-.1.3.4.6.7.7 2.3 1.4 5 2.2 7.5 2.8h.1l.3.2.4.1.6.5c-.2 1-.3 2-.3 3.2l.3 1.7a9 9 0 0010.7 6.3c.2 0 .6 0 .5-.5.8.3 1.6.3 2.3.7.4.2.5 0 .5-.4v-1.4l.7-.6c.5-.6.9-1.2 1.5-1.6.4.1.7.4 1 .7.7.6 1.3 1.2 2.3 1.3.4 0 .6 0 .4-.5l-.8-1.8c-.1-.4-.3-.7-.1-1.1.8 0 1.4.3 2.1.6a138 138 0 0127.3 15.3c2.5 1.8 4.8 3.8 7.1 5.9l.6.6c.8 1.9 1.7 3.8 2.2 5.9-.2.2-.5.2-.8.2-.8.1-1.6-.4-2.4-.4-.6 0-.8-.2-.7-.8v-.4c0-.4-.1-.6-.5-.6h-5.4c-.7 0-1.2.5-1.6 1.2a69 69 0 00-1.7-.6 536.5 536.5 0 00-3.8-1.7l-.4-.1c-.7-.6-1.6-.8-2.3-1.3.1-.2 0-.3-.1-.5V80c.2-1.1 0-2.3 0-3.4 0-.2 0-.4-.3-.3-1.4-.2-2.8-.1-4.2 0-.2-.4-.2-.8-.2-1.1v-2c0-.2 0-.4-.2-.4s-.2.2-.2.3v.6c-.2.9 0 1.8-.5 2.5h-3a7 7 0 00-2.2 0l-.2-.2h-.1c-1.1-.2-2-.8-3-1.2l-9-4.1-9.2-4-10-4.6-10.4-4.7-8.6-3.8c-.4-1-.5-2.1-.8-3.2v-.3-.2c0-.2 0-.3-.2-.4v-.2c0-.1 0-.3-.2-.4v-.1-.6l-1-4.8-.6-3.9z"/><path class="wpg_st13" d="M105.2 158.6c-1.1.2-1.1.2-1.1 1.4v1.8c0 .4 0 .5.4.5 3.4-.4 6.8-1 10-2l1.7-.5c.7.3.8.9.8 1.5v13.6c0 .3 0 .6-.3.7-.6.4-1.4.4-2 .6-.8.1-1.6.1-2.3.3-1 .3-2 .7-3 .5h-.8c-1.4.5-3 .6-4.5.7l-.8-.2h-7.2c-.2 0-.5 0-.6.3l-5.7-.6h-.6c-1-.2-1 0-1-1.2.2-13 0-26 .1-38.9v-.3c.4-.1.3-.5.4-.8.1-.2 0-.6.5-.6s1-.2 1.1-.8l.3-.2a74.2 74.2 0 01.1 2.5c0 .3.1.6.5.6.4-.1.9 0 1.2-.5.3 0 .6 0 .8-.2.2 0 .4 0 .5-.3l.3-.1.3-.1.3-.2c0 .1 0 0 0 0l1.3-.5 1.2-.4c.5-.3 1-.4 1.5-.8l1.7-.8 1.9-.7c.4 0 .7-.2 1-.4.9-.5 1.8-.7 2.7-1 .4 0 .7-.2 1-.3h.1c.2 0 .3 0 .3-.2l.5-.2.2-.1.2-.2.9-.1.1-.1h.1c.2 0 .6 0 .3.2-.3.3-.5.7-1 .9-1.4.5-2.6 1.4-4 2-.2 0-.4.2-.6.4-.3.3-.4.5.1.7.3 0 .4.3.4.5-.4.1-.6.3-.6.7l.1 2.5c0 .4.1.5.5.3l10.6-3.8 1.6-.5.3 1.4v18.8c0 .5-.1 1-.6 1.3a43.6 43.6 0 01-7.6 2c-1.1.2-2.2.6-3.3.6-.2 0-.3 0-.3.3z"/><path class="wpg_st11" d="M136 168c.2-7.9.2-15.7.2-23.5v-2.3c-.1-.5 0-.6.4-.6a37.5 37.5 0 0012.8-2.8c1.5-.7 3-1.7 4-3.2 1-1.6.7-3-.2-4.6a16.1 16.1 0 00-5.5-5.1c-1-.8-2.2-1.6-3.4-2-1-.4-.9-1-.9-1.6v-13.9c0-.3 0-.5.5-.5 1.5-.1 3-.6 4.5-.8l5.7-1.1 8-1.4 6-1c2-.3 2.1-.3 2.2 1.8 0 3.4 0 6.7-.5 10.1 0 1.2-.3 2.3-.4 3.5 0 .5-.3.4-.6.3l-4.4-.4c-1.7-.1-3.4-.2-5.1 0-.7 0-1.2.2-1.8.5-.5.2-.5.5-.2 1 .6.7 1.4 1.3 2.2 1.8 2.1 1.3 4.3 2.4 6.6 3.4l1 .5c.7.2.7.5.5 1.2a84.9 84.9 0 01-7.5 16.9 69.7 69.7 0 01-21 22c-1 .6-1.9 1.3-3 1.8z"/><path class="wpg_st13" d="M119.5 131.2v-.6l.1-.4c.1-.4-.4-.6-.2-1 .2-.6-.2-.8-.6-.7l-1-.2c-.3 0-.5-.2-.5-.5 0-.2.3-.3.5-.3s.4 0 .5-.3h.2c.1.3.5.2.7.1.4-.2.9-.5 1.2-.9h.3c.3 0 .6.2.8-.2h.5c.2 0 .3 0 .3-.2l.3-.1c.3 0 .3-.2.2-.4 0-.7.1-.9.8-.8.7.2 1.3-.1 1.8-.6 0-.1 0-.2.2-.2s.2.2.2.3c0 .4.1.7.5.7.6 0 1.3-.1 1.8-.6h.2c.3-.1.7.1.9-.3h.2c.3.2.5-.1.7 0 .2 0 .4 0 .4-.2l.6-.1c.2.2.3 0 .4-.1l.3-.2c.5.4.7 1 .7 1.5 0 .2.2.4.5.6.3.1.4.4.4.8v1.9c0 1.5.3 3 .2 4.4v2.6c-.1 1 0 2.2 0 3.2v21.8c0 .3 0 .6.3.7v1h-.2c0 .2.1.2.2.2v1.7c-.3 0-.2.3-.2.5 0 1-.1 1.9-.3 2.8 0 .6-.4 1.3.1 2-.5.2-.8.6-1.4.7-.2 0-.6.3-.6.6h-.1c-.3 0-.7 0-.7.5l-.3.1c-.3 0-.7 0-.8.4l-.3.1-.3.2c-.4-.3-.7 0-1 .4l-.2.1c-.1-.2-.3-.1-.5 0-1.9.7-3.7 1.5-5.7 2.1-.2 0-.6.2-.7.5l-.4.2c-.2-.4-.8.2-.8-.4v-1-14.1-23-1.9-3l-.2-.4z"/><path class="wpg_st12" d="M75.2 55.6l-.1 1c-.6.1-1.1.5-1.6.8l-8.2 6.1-13 9.8-7.8 5.9-9.8 7.3-2 1.6v-.6A70.1 70.1 0 0153.4 55l2-1.6s.2 0 .2-.2c.1 0 .2 0 .3-.2l.2-.3c.2 0 .3 0 .3-.2.2 0 .2 0 .3-.2 2-1.5 4-3 6-4.2 2.5-1.5 4.9-2.9 7.4-4 1.5-.8 3-1.5 4.7-2 .3 0 .3.3.3.5v12.9z"/><path class="wpg_st2" d="M57.3 126.7c0-.2.2-.3.3-.3 0 .3.2.2.4.2.3 0 .3-.3.3-.5h.1l.2-.2 6-3c2.9-1.4 5.8-2.8 8.8-4 .7-.4.7-.3.7.4v8.2l-6.8 3.4-6.2 3.2c-3.5 1.8-6.8 3.8-10.2 5.8l-9.1 5.6c-.5.4-.9.4-1.1-.2-.1-.3-.5-.4-.5-.8 1-.9 2.2-1.5 3.3-2.3l.7-.5.1-.1c.2 0 .2 0 .3-.2.2 0 .3 0 .4-.3h.3l.4-.4h.1l.3-.2.4-.3s.2 0 .2-.2c.3 0 .5-.2.6-.3l.2-.2h.2l.1-.3h.2c.1 0 .2 0 .3-.2.4-.1.6-.3.8-.6 1.3-.4 4-2.4 4-3l-.2.1-3.4.6c-.5-.2-.9-.5-1-1v-.2c.3 0 .5-.2.7-.4.1 0 .2 0 .3-.2h.1c.3-.2.6-.3.8-.6 1-.3 1.7-.9 2.5-1.4 1.4-.8 2.9-1.6 4.2-2.7.1 0 .5-.1.3-.5-.1-.4-.6-.4-.7-.9 0-.5.4-.6.6-1 .1-.2.3-.4 0-.5z"/><path class="wpg_st3" d="M74.2 97.6v11.1c0 .4-.2.6-.7.7-1.3.2-2.6.8-4 1.3l-12 4.2-5 1.8-.1-.1c-.6.2-1.3-.3-2 .1 0 .1-.3.1-.4-.2.4-.4 1-.6 1.5-1h.2l3.2-2 1.6-1s.2-.2.1-.4c0-.1-.2 0-.4 0l-3.9 1.5-5.7 2-5.4 2-6.6 2.5c-1 .3-2.1.9-3.3 1-.4-.4-.5-.9-.5-1.4 0-.3.3-.3.5-.4l7.4-3.2c.8-.3 1.6-.6 2-1.4.2.2.4.1.7.1.3.3.6.1.9 0 2-1 4.1-1.7 6.2-2.5.6-.2 1-.4 1.3-.9.2.3.5.1.7.2l.6-.1c2.1-1 4.3-1.6 6.6-2.3 1.3-.3 1.3-.3 1.3-1.7v-6.1c0-.6.2-1 .6-1.3l4-3 6.8-5c0 .2 0 .3-.2.5-.1 0-.4.2-.2.4h.6c.4-.3.8-.5 1.4-.5-.1.3-.4.4-.5.5l-3.7 2.8-6.2 4.8c-.3.2-.5.4-.5.8v6.6c0 .3.2.4.5.3 1.7-.7 3.4-1.1 5.1-1.7l5-1.5c.4-.1.6-.2.6-.6v-5a5 5 0 011-3.3c.3 0 .3.3.3.5 0 .4.2.7.6.9z"/><path class="wpg_st5" d="M134 160.9c-.5-.1-.3-.4-.4-.7V153v-5.4l-.1-6.6.1-2.5-.1-3.2.1-2.6-.2-4.4v-2c0-.3-.1-.6-.5-.8a.7.7 0 01-.4-.5c0-.6-.2-1.1-.6-1.5.4 0 1-.1 1.3-.4 1.7-.4 3.3-.9 5-1.1.4 0 .6-.2.6-.8l.1-6.5v-2c0-.5-.3-.5-.7-.4l-2.3.4c-1 .2-2 .3-3 .8-.2.3-.4.6-1 .4 0-.2-.2-.1-.4-.1h-.2c-.8.4-1.7.3-2.4.7h-.3c-.1 0-.3 0-.4.2l-1 .2h-.2l-.6.1h-.1l-.2.2c-.3.3-.7.3-1 .5h-.4c-1.6.3-3.1.9-4.7 1.1-.2 0-.4.3-.5.5-.4 0-.6.3-1 .3-1 .2-2.2.5-3.3 1l-1 .3c-.5 0-.8.4-1.2.4-1.4.3-2.8.7-4.1 1.4-.4.4-.9.1-1.2.4l-.7.2-4.1 1.4c-.3.3-.6.4-1 .6l-2.9 1c-.2 0-.4.2-.6.4-.5.2-1.2 0-1.6.6v.2c-.3.2-.6.2-.7.4-.6 0-1.1 0-1.6.3-.1.3-.5.4-.8.7h-.5l-.8.2-.4.1h-.1l-.2.1h-.1c-.2 0-.3 0-.4.2l-.3.2c-.3.3 0 .7-.2 1l-.1.3c-.2 0-.2-.1-.3-.2a.8.8 0 00-.7-.6c-.5 0-.9-.2-1.3-.3l-.1-2c0-.3 0-.5.3-.6 4.7-1.7 9.3-3.7 14-5.3l6.3-2.2 9.2-3 7.1-2c.8-.1 1.5-.4 2.2-.6l7.5-2 6.2-1.4c.4-.1.6 0 .6.4v14c0 .4 0 .7-.5.7-2.2.3-4.3 1.2-6.6 1.5-.6.1-.2.7-.3 1-.4.1-.3.5-.3.7V161z"/><path class="wpg_st4" d="M30.3 116.8l-.1-.3v-.7l-.4-5.3V109c.8 0 1.3-.5 2-1v-.6l.2-3.6c0-.6 0-1.1.8-1.4a44 44 0 001.2-1.2H34.8c1.2 0 2.5 0 3.7-.2l.1-.3c.2-.6.2-1.2.1-1.8.2-1.8.4-3.7-.1-5.6l1.4-1.4c1-1 2.2-1.8 3-3l1.5-1.3h.2l.9.3H53l-.7 1.1-2 2.4-1.9 2.6-4 5c-4.2 5.4-8.5 11-12.9 16.4-.3.5-.7 1-1.3 1.3z"/><path class="wpg_st12" d="M30.1 99.5l1-5.7 1-4.2c0-.3.2-.6.5-1 .2.1.3 0 .4-.1 1.8-1.5 3.7-2.8 5.6-4.2l5.4-4 6.3-4.8c1-.8 2-1.7 3.2-2.3.2 0 .3-.1.3-.3l1-.7c.1 0 .2 0 .2-.2h.2c.2 0 .4 0 .4-.4.1.1.4 0 .3.3 0 .3.2.3.4.3.8.1 1.6-.2 2.5 0 .2 0 .3-.2.4-.4.3-.5.6-1 1.2-1.3 1.2-.6 2.2-1.5 3.2-2.4.2-.1.3-.4.6 0-1 .8-1.8 1.7-2.7 2.6l-.2.2-2.8 2.7-.1.1-.2.2-.1.1-4.6 4.4-4.9 4.7-4.3 4.2-1 .8c-.8 0-1.6-.2-2.3.2-1.6.7-2.3 2.2-2 4l-1.5 1.6-.1.1-.2.1-7 6.6-.2-.6.1-.6z"/><path class="wpg_st4" d="M107.3 50.6l-.2-.1h-.2c-.4-.6-.4-.6.3-.8.3-.1.3-.3 0-.5l-.5-.4c-.4-.3-.4-.8-.3-1.2.1-.3.5-.1.8-.2h3.2c0 .3 0 .3.2.2l.3.1c0 .2 0 .3.3.1.7.1 1.4.3 2.2.3.3 0 .6 0 .8-.3.4-1 1-1.8 1.2-2.8.5-.6.5-1.1 0-1.7.3-.2.4 0 .6 0l2.2.5c.9.2 1.4.6 1.5 1.5 0 1.6.4 3 .6 4.6.1.4.3.2.5.1l3-1.4 1-.1c1.1-.1 1.5.2 1.4 1.3 0 .2-.1.5.3.6l.1 3c0 .4.1.9.6 1.1v.5c-.3.2-.2.3 0 .3V56.5c-.2.2-.3.3-.3.5-.2.8-.4 1-1.2.7l-.7-.3c-.5-.2-1-.5-1.6-.6-.4-.3-1-.5-1.5-.5-.4 0-.6 0-.5.5l.6 3.5c0 .2 0 .4.3.5v1.4c0 .4 0 .6-.4.4l-2.3-.7c-1-.4-2.1 0-2.9-.9h.8c.2 0 .5.2.6 0 .1-.3 0-.5-.2-.7l-3-5c-.2-.4-.4-.6-.7-.8-.6-.7-1.6-1-2.4-1.5-1-.8-2.2-1.5-3.5-1.8l-.5-.5c-.1-.1-.2-.3-.5-.1zM40.7 114.7c-.4.8-1.2 1.1-2 1.4-2.5 1-5 2-7.4 3.2-.2 0-.4.1-.5.3-.3-.8-.6-1.7.1-2.5l.5-.4 5-6.3 8.5-10.9 6-7.5 1.1-1.5 1.8 1.6.1.1.2.2c.2.4.9.4.7 1l-5.2 7.8a4491.5 4491.5 0 01-8.9 13.5z"/><path class="wpg_st5" d="M118.3 127.3c0 .2-.3.2-.5.2s-.4 0-.5.3c0 .3.2.4.4.5l1 .2c.5 0 .9 0 .7.6-.2.5.3.7.2 1.1l-.1.5c0-.8-.1-.9-.9-.6a2028.5 2028.5 0 00-14.1 4.9c0-.3 0-.4-.3-.5-.6-.2-.4-.5-.1-.8l.6-.4c1.3-.6 2.5-1.5 4-2 .4 0 .7-.5 1-.8.2-.3-.2-.2-.4-.3.9-.5 1.9-.7 2.8-1l1.2-.3 1.1-.7c.5 0 1 0 1.4-.4h.3l.2-.1c.6-.3 1.3-.3 2-.5zM155.2 84.7c.4-.7.9-1.1 1.6-1.1h5.4c.4 0 .5.1.5.5v.4c-.1.6.1.8.7.8.8 0 1.6.5 2.4.4.3 0 .6 0 .8-.3.6 1.7 1.1 3.3 1.5 5-.5.1-.8-.2-1.2-.4l-.7-.2-1.2-.7-5.2-2.3-4-1.7-.6-.4z"/><path class="wpg_st10" d="M55.1 72c-.2 0-.3 0-.3.2l-1 .7-.3.3c-1.1.6-2.1 1.5-3.2 2.3L44 80.3l-5.4 4-5.6 4.2-.4.2c0-.4-.2-.8 0-1.2v.6c.8-.6 1.5-1 2.1-1.6l9.8-7.3 7.8-5.9 13-9.8 8.2-6c.5-.4 1-.8 1.6-1 .2.2 0 .5.1.7-1 .1-1.7 1-2.5 1.5-.2 0-.2.1-.2.2l-.2.1-.2.2-.2.1-.1.1-.1.1c-.1 0-.2 0-.3.2l-.1.1-1.7 1.3-6.3 4.6L59 69c-1.1 1-2.4 1.6-3.4 2.6-.2 0-.4.2-.5.3z"/><path class="wpg_st14" d="M33.2 102c0 .3-.2.5-.4.5-.7.3-.7.8-.8 1.4l-.1 3.6c0 .2 0 .5-.2.6-.6.5-1.2 1-2 1 0-2.6 0-5.2.4-7.7 1-1 2-2 3.1-2.8.1 1 .3 2-.2 2.9 0 .2 0 .4.2.5z"/><path class="wpg_st6" d="M50.8 92L45 99.5l-8.6 11-4.9 6.2-.5.4c0-.1-.2-.2-.4-.1-.2 0-.2 0-.2-.2A10412 10412 0 0044.5 99c1.3-1.7 2.5-3.4 4-5 .6-.8 1.1-1.8 1.9-2.6.3 0 .5.1.4.5z"/><path class="wpg_st1" d="M88.3 127.8c.4.1.8.3 1.3.3.3 0 .6.2.7.6 0 .1.1.3.3.3.2 0 .1-.3.1-.4.1-.3-.1-.7.2-1v8.3c.1 1.3.1 1.3 1.4 1.1-.3.4-.7.4-1.1.5-.4 0-.5-.3-.5-.6v-2l-.1-.5c-.2 0-.3.1-.3.2-.2.6-.6.8-1.2.8-.3 0-.3.4-.4.6-.1.3 0 .7-.4.8v-9z"/><path class="wpg_st15" d="M147 61c.4.1.5-.3.8-.5.4-.3.2-.5 0-.8v-.5h.7c.8.4 1.1.2 1.3-1 1.6 1.5 3 3.1 4.4 4.8.4.5 1 1 1.1 1.7-.7-.2-1.2-.5-1.7-.8L147 61z"/><path class="wpg_st1" d="M105.2 158.6c0-.2.1-.3.3-.3 1.1 0 2.2-.4 3.3-.6a36.4 36.4 0 007.6-2c.5-.2.6-.8.6-1.3v-3.6-15.2c0-.5 0-1-.2-1.4.4-.3.6 0 .6.4V155c0 .5-.1.7-.7.9l-4.6 1.4c-2.3.5-4.6 1.1-7 1.3zM134 160.9V127c0-.2-.3-.6.2-.7v42.3c0 .4 0 .6-.4.8-.8.3-1.5.9-2.3 1 0-.3.3-.5.5-.6.6 0 1-.5 1.5-.7.4-.2.4-.4.4-.8v-4.5-1.7-.2-1zM104 177.7c1.6-.1 3.1-.3 4.6-.7h.8c1 .1 2-.2 3-.5l2.3-.4c.6-.1 1.3-.1 2-.5.2-.1.3-.4.3-.7v-13.6c0-.6-.2-1.2-.8-1.5 1.1-.6 1.2-.5 1.2.7v14.8c0 .4-.1.5-.5.6a71.8 71.8 0 01-12.8 1.9v-.2zM62.4 167.2l.6.1c2.3 1.4 4.6 2.6 7 3.7a69.7 69.7 0 0012 4.4l2.4.8c.7.2 1.2.3 1.8 0 .1.7.1.7-.6.5l-6.2-1.6a71.7 71.7 0 01-11.7-4.8c-1.8-1-3.7-1.9-5.3-3.1zM123.4 56.8c.6.1 1 .5 1.6.6.2.1.4.3.7.3.8.2 1 0 1.1-.7 0-.2.1-.3.3-.5 0 .3 0 .5.2.7-.1.4 0 .7.1 1l.8 1.9c.2.4 0 .5-.4.5-1 0-1.6-.7-2.3-1.3-.3-.3-.6-.6-1-.7 0-.3 0-.5-.3-.7l-.8-1z"/><path class="wpg_st5" d="M119.5 131.2l.1.3.1 3.1V174.6c0 .6.6 0 .7.4-.2.2-.6.2-1 .3v-1.8V132l.1-.8z"/><path class="wpg_st10" d="M84.7 49.9v.2l.1.3h-.6c.2-1-.3-1.9-.5-2.8l-1.4-7.4c0-.2 0-.5.2-.7h.3c0 1.3.4 2.6.6 3.9l1 4.8v.7c.2.1.2.3.2.4v.2l.1.4zM33.2 98.6l-3 2.8v-.7l7-6.6h.1l.2-.2c.2 0 .3.1.3.3l-.6.6-.1.1c-.2 0-.3.2-.3.3-.2 0-.2.2-.3.3l-.3.3c-1 .9-2 1.7-3 2.8z"/><path class="wpg_st0" d="M104 177.7l-.5.2c-2.7 0-5.3.1-8-.1 0-.4.4-.3.6-.3h7.2l.8.2z"/><path class="wpg_st2" d="M75.8 37.5V42c-.2 0-.4.2-.6.1v-4.6h.6z"/><path class="wpg_st1" d="M127.2 54.5c-.5-.2-.6-.7-.6-1.1l-.2-3c.4.4.3.9.3 1.3v1.4l.1.3 1.5.2v.9h-1.2zM120.8 174.8c.2-.4.5-.4.8-.5 2-.6 3.8-1.4 5.7-2.1.2-.1.4-.2.5 0-.8.5-1.8.8-2.7 1.1-1.4.6-2.8 1.2-4.3 1.5z"/><path class="wpg_st14" d="M128.4 54.5l-.1-1c.8.1 1 .8 1.4 1.3l-1.3-.3z"/><path class="wpg_st6" d="M75.2 42.1l.6-.1v.3c-.8 0-.6.5-.6 1v1c-.2-.6 0-1-.1-1.6 0-.2 0-.5-.3-.5l.4-.1z"/><path class="wpg_st1" d="M128 172c.3-.3.6-.6 1-.3l-1 .4zM129.6 171.4c0-.5.5-.4.8-.4-.2.2-.5.4-.8.4zM130.7 170.9c0-.5.3-.5.7-.5-.1.4-.5.3-.7.5zM60.5 166c.2 0 .4-.1.4.3l-.4-.3z"/><path class="wpg_st6" d="M30.1 115.8l.1.7c-.2-.2-.1-.5 0-.7z"/><path class="wpg_st1" d="M60.9 166.3c.2-.1.4-.1.4.2-.2 0-.3-.1-.4-.3zM61.3 166.5c.2 0 .4 0 .4.3l-.4-.3zM61.7 166.8c.2 0 .4 0 .4.2-.2 0-.3 0-.4-.2zM127.2 55.3c-.2 0-.3-.1 0-.3v.3z"/><path class="wpg_st10" d="M30.1 99.5v.6c-.1-.3-.2-.5 0-.6z"/><path class="wpg_st15" d="M55.6 53.3c0 .2-.1.3-.3.3 0-.2.2-.3.3-.3zM148.4 57c-.2 0-.3-.2-.3-.4.2 0 .3.2.3.3z"/><path class="wpg_st15" d="M148.7 57.2c-.2 0-.3-.1-.3-.3l.3.3zM149 57.5c-.2 0-.3-.1-.3-.3l.3.3z"/><path class="wpg_st15" d="M149.2 57.7c-.2 0-.2 0-.3-.3l.3.3zM149.5 58c-.2 0-.3 0-.3-.3.2 0 .3.2.3.3zM149.8 58.3c-.2 0-.3-.1-.3-.3l.3.3z"/><path class="wpg_st1" d="M60.2 165.8c.1 0 .2 0 .3.2-.1 0-.2 0-.3-.2zM129.3 171.5h0z"/><path class="wpg_st15" d="M56.7 52.4l-.2.2.2-.2z"/><path class="wpg_st1" d="M130.4 171c0-.1.2-.2.3-.1l-.3.1z"/><path class="wpg_st15" d="M56.4 52.7c0 .1-.1.2-.3.2 0-.2.2-.2.3-.2z"/><path class="wpg_st1" d="M62.1 167c.1 0 .2 0 .3.2-.1 0-.2 0-.3-.2z"/><path class="wpg_st15" d="M55.9 53.1l-.3.2c0-.1.1-.2.3-.2z"/><path class="wpg_st1" d="M127.1 56.4l.1-.4v.4z"/><path class="wpg_st15" d="M147.9 56.4c-.1 0-.2 0-.2-.2l.2.2zM148 56.5l-.1-.1.1.1zM148.1 56.6l-.1-.1.1.1z"/><path class="wpg_st2" d="M86.3 122.3v-.1.1zM40 144.4c.1 0 .2 0 .2.2l-.2-.2z"/><path class="wpg_st1" d="M86.2 175.9v-.1z"/><path class="wpg_st6" d="M76.5 80.5H76c-1 .5-.8-.1-.8-.7v-9.5c0-.2-.1-.5.1-.6.2 0 .3.2.4.3.2 0 .2-.2.2-.3L76 65v-6.1c0-.8.1-1.6-.1-2.4l.1-.4c.3 0 .3.4.6.4V80.6z"/><path class="wpg_st5" d="M76.5 44.1v-.8c.5.4.5.6 0 .9z"/><path class="wpg_st6" d="M75.9 53.6l-.3-.4v-2.3h.3v2.7z"/><path class="wpg_st4" d="M143.7 92c-2.1 0-4.3.3-6.4.6l-3 .3-.7-.1c-.1-.4-.5-.6-.8-.9l-9.2-7-6.1-4.5-1.1-1h2.8c.5-.1 1-.2 1.5 0 .7 0 .8-.2.8-.8.1-.8.1-1.8 1.3-2.1l.2-.3.8.4c2 .9 3.8 1.8 5.6 3-.2 1.2-.2 2.5-.2 3.8 0 .5.1.6.6.4.7-.4 1.5-.6 2.4-.4.6.2.9-.1 1-.7.1-.2 0-.6.6-.7l1.9 1 3 1.6c1.4.7 2.7 1.6 4.2 2.2l.3.2.7.5 4.5 2.5c-.7.4-.8 1.4-1.7 1.6l-3 .4zM70.4 92l-6.8 5.2-4 3c-.4.3-.6.6-.7 1.2v6.1c0 1.4 0 1.4-1.2 1.7-2.3.7-4.5 1.4-6.6 2.3l-.6.1c0-.4.2-.6.4-.9l3.2-5.6 5.6-10 7.1-12.5.2-.2c1.2.2 2.5.4 3.8.2.3 0 .4.2.4.5v1.7c.2.5-.3 1.3.5 1.4.5.2 1.2 0 1.7-.2l.2-.1c-.3 1.5-1.2 2.8-1.7 4.3-.2.7-.6 1.2-1.2 1.7l-.3.2z"/><path class="wpg_st11" d="M73.4 96.2a5 5 0 00-1.1 3.4v4.9c0 .4-.2.5-.6.6l-5 1.5c-1.7.6-3.4 1-5 1.7-.4.1-.5 0-.5-.3v-6.6c0-.4.1-.6.4-.8l6.3-4.8c1.1-1 2.4-1.8 3.6-2.8.1-.1.4-.2.5-.5.1 0 .3 0 .4-.2l.2-.2c.7-.4.7-1.1 1-1.7a158.2 158.2 0 002.7-7.3c.2.1.3.2.5.1l-.2 4.3c-.2.6-.2 1.4-.2 2 0 1.2-.6 2-1 3l-2 3.7z"/><path class="wpg_st4" d="M166 90.2c0 .3-.2.4-.5.4l-2 .2c-3.7 0-7.4.3-11.2.5l-2.1-1.1c-2.3-1.3-4.5-2.6-6.9-3.8-2.4-1.4-5-2.7-7.5-4l-.6-.6c.6-.1.8-.5.8-1l.3-3.9 1 .5.8.5 8.5 3.7.5.3-.2 1.9c-.1.4 0 .7.6.8a7 7 0 012.3 1c.3.2.7.5 1.2.4.6-.2 1.1 0 1.7.3l1.2.3c1 0 1.2-.1 1.3-1l.6.2 4.6 2c1.9.8 3.6 1.8 5.5 2.4zM113.8 88.5c2 1.5 3.5 3.5 5.2 5.2.3.3.8.6.7 1-.2.3-.7.2-1.1.2l-7.2 1.2h-.4c-.4.2-.6-.1-.8-.4l-5.7-8-7-10v-.1h4.5c.4 0 .8-.1 1-.5h.3l4.6 5 .4.6v4.5c0 .5.1.7.6.8.6 0 1.1.3 1.6.7 1.1.8 2.3.8 3.3-.2zM104.6 97.3l-4 .8c-.6.1-.8 0-.8-.7v-6.3c0-.4 0-.6-.4-.8l-7-2.6-.9-.3c0-.4.3-.7.7-.8.2 0 .3-.1.4-.3.4-.6.5-1.4 1.2-1.8v-.2c.2-.2.2-.4.1-.7l.1-.4c.3 0 .4-.1.4-.4-.2-1.3.4-2.5.2-3.7 0-.3 0-.7.5-.6.4 0 .6.2.5.6v.3c-.3 1 .5 1.8 1.5 1.5.2 0 .3 0 .4-.2.4-.1.6 0 .8.3.3.8 1 1.2 1.6 1.5l.4.5 9 12.8c.4.5.3.6-.2.7-1.5.2-3 .4-4.5.8zM131.2 93.3c-2.9.2-5.7.6-8.6 1l-.3.1c-1 .3-1.6 0-2.3-.7-2-2.2-4.2-4.2-6-6.6.2-.7.3-1.4.3-2.2v-4.5l.1-.3V80c.2 0 .2-.2.1-.3.2 0 .2-.3.3-.4.8.4 1.4 1 2 1.5l5.7 4.2 6.6 5 3.4 2.6c.1 0 .3.2.3.4-.1.2-.4.2-.5.2l-1.1.1z"/><path class="wpg_st15" d="M114.4 80.1v.3c-.2 0-.2.1-.2.3-.3 1-.2 2-.1 3 0 .6-.1 1-.8 1-.2 0-.5.2-.6.4-.2.3-.5.2-.7.2a29.6 29.6 0 01-3.7-4V78c0-.4-.2-.5-.5-.5h-3H104.7a186.3 186.3 0 00-2.8-2.7l-.3-.3-.2-.2-.9-.9-6.1-6.6c.3-.4.5-1 0-1.3-1-.7-1.3-1.7-1.8-2.7-.2-.4-.7-.6-.7-1.2l1.3.9 6.3 4.8 6 4.5 4.3 3.4a58 58 0 014.7 3.7h.2l.1.3c-.3 0-.3.3-.2.5v.3h-.1v.1z"/><path class="wpg_st12" d="M94 83.3v.4c-.3 0-.6.1-.8 0-.2-.2-.4-.3-.5 0l-.4-.1c-.1-.2-.2-.3-.3 0l-1-.2c-.2-.3-.4-.3-.7 0l-.8.1h-.1l-.6.2c-.5-.2-1-.6-1.1-1.1-.1-.2-.2-.5-.5-.4 0-.2 0-.3-.2-.3l-.1-.3c0-.2 0-.4-.3-.4V81l-.1-.2c.4-.4.7-.9.5-1.5-.2-1 0-2-.2-2.9v-.7c.5-1 .5-2 .2-3-.2.2-.4.3-.7.3V72l.7-1.5.8-2c.2-.6.4-.8 1-.3.1 0 .3.2.5 0v-.5c-.2-.2-.2-.3 0-.4l.2.2.1.1.2.3c0 .2.1.2.2.2l1 1.4 4.1 6-.1.7c-.2.1-.2.3 0 .5 0 .2.2.2.4 0h.4l-.3.9-.3.1-.2.2c-.2.2-.7.3-.8.6-.2.2-.3.4 0 .7l-.1.3c-.4.6-.2 1.3-.1 2v1.7z"/><path class="wpg_st9" d="M80.7 39.6c.4 0 .6-.5 1-.3 0 1.5.6 3 .8 4.4L85 57.8c.2 1.8 0 3.7 0 5.5.2 4.4.1 8.7.1 13v2.9c.1.6-.2.7-.7.6H83c-.6 0-.7-.3-.7-.8.2-2.3.1-4.7.1-7.1V59.2c0-2.5-.3-5-.6-7.5-.2-2.6-.7-5.2-.9-7.9 0-1.4-.2-2.8-.3-4.1z"/><path class="wpg_st15" d="M73.6 85.9h-.2c-.6.3-1.2.5-1.7.4-.9-.2-.4-1-.5-1.5V83c0-.3-.1-.5-.5-.5-1.3.2-2.5 0-3.8-.2l.7-1.3c.1 0 .2-.2.1-.3l.2-.3.2-.4.1-.1c.1-.5.5-.8.8-1.3l3.2-5.6c.8-1.5 1.7-2.8 2.2-4.3l.4-.4c.3.2.2.5.3.8v12.7c0 1-.4 1.8-.8 2.7l-.7 1.3zM75 61.4v1.8l-2.9 4.4-6 9-2.6 4-.2.1-.1.3c-.3.1-.4.5-.6.6l-.2.2s-.1 0 0 .1c-.4.2-.7.3-1 .6h-1c-1-.3-1-.3-1-1.3V81l.2-.3 3.2-4.1 7.9-10c.9-1 1.7-2.2 2.6-3.4.3-.4.8-.7 1-1.3.2-.3.4-.5.8-.6zM75 58.9c.2.3 0 .8.1 1.2-.1.4-.5.6-.7 1a165 165 0 01-5.7 7.2c-.4 0-.8.1-1 .5-.7.7-1.4 1.4-1.9 2.3v1h-.4c-.7.6-1.6.4-2.3 1a1 1 0 01-.6.2c-1.8 0-2.9 1.4-4 2.4-1 .8-1.8 1.8-2.8 2.7-.7.5-1.3 1.6-2.5 1l.6-.6c1.6-1.6 3.2-3.3 5-4.8 1.7-1.4 3.2-3 4.8-4.5l4.5-4.4 5-4.8c.6-.5 1-1.2 1.8-1.4z"/><path class="wpg_st9" d="M97.5 95.6v2.6c0 .5 0 .7-.5.7-1.3.2-2.6.4-3.9.8-.5.2-.6 0-.6-.4 0-1.6 0-3.1.2-4.7 0-1.6-.6-2.7-1.8-3.6-.9-.6-1.6-1.4-2.3-2.2-.2-.2-.4-.4-.3-.6.2-.3.5 0 .7 0l7.9 3c.3.2.5.4.5.8.2 1.2 0 2.4.1 3.6z"/><path class="wpg_st15" d="M75 64.5v2.8c-.5.3-.8 1-1.1 1.5-1.1 2.3-2.4 4.5-3.7 6.7l-2.7 4.7v.2h-.1v.1l-.1.2a7 7 0 00-1.1 1.8l-.1.2H66s-.1-.1-.2 0l-2.8-.4c.2-.4.6-.6.6-1 .3-.2.3-.6.5-.9l3.3-4.8 4-6 3-4.7c.2-.3.4-.3.7-.4zM88.5 58.3c.1-.4.4-.7.3-1.1l.6.1a130 130 0 017 3.9c.7.4 1.5.7 2.3 1.3 0 .2 0 .4.2.5.3 0 .3-.1.3-.3l.7.5c-.3 0-.4.2 0 .3l1 .5c.6.3.7.6.2 1-.6.6-.5 1 .2 1.3.2.1.3.2.3.4 0 .3-.2.3-.4.3-.5 0-.6.2-.4.6L97.2 65c-2.8-2-5.6-4.2-8.4-6.4h-.2v-.1h-.1z"/><path class="wpg_st10" d="M137.3 77.4l-1-.4-5-2.4-16.5-7.3-14.6-6.7-4.8-2-8.6-4c-.4-.1-.7-.3-1.1-.3l-.2-.6v-.2c3 1.2 5.9 2.6 8.7 3.9l10.4 4.7 10 4.5 9.2 4 9 4.2c1 .4 1.9 1 3 1.2h.3l1.2.6.2.2h.1c0 .3 0 .5-.3.6z"/><path class="wpg_st4" d="M133.5 98.7c.1-.6-.1-1-.7-1.2-.2-.1-.4-.2-.4-.5.2-.5-.2-.7-.6-1l4.7-.6 8.1-1 1.2-.1c-.3.7.4 1 .6 1.6L136.2 98c-.9.2-1.7.5-2.6.6z"/><path class="wpg_st10" d="M75 58.9c-.8.2-1.3.9-1.9 1.4l-5 4.8c-1.6 1.4-3 3-4.5 4.4L58.8 74l-5 4.8-.6.6-.3.3-.7.7-.5.5-.3.3-.7.7-.2.1c-2 1.6-3.8 3.6-5.6 5.4l-.2.2-.2.1c-.3 0-.2-.2-.2-.5l4.3-4.2c1.6-1.5 3.3-3 4.9-4.7l4.6-4.3.1-.2.1-.1.2-.1 2.8-2.8.1-.1 2.8-2.7c2.8-2.6 5.7-5.2 8.4-8 .9-.7 1.8-1.4 2.5-2.3 0 .4 0 .8-.2 1.1zM98.7 62.5c-.7-.6-1.6-.9-2.4-1.3a134 134 0 00-6.9-3.9c-.2 0-.3-.2-.6-.1 0-.3-.3-.3-.4-.4L86 55.4V55l1.7.7c2.5 1.3 4.9 2.9 7.4 4 1 .8 2 1.3 3 1.9l9.4 5.1 6.3 3.5 8.2 4.5.4.3c0 .1 0 .4-.3.3l-.5-.2-6-3.3-10.2-5.7-5.5-3-.7-.4-.5-.2z"/><path class="wpg_st3" d="M104.6 97.3c1.5-.4 3-.6 4.5-.8.5-.1.6-.2.3-.7-3.2-4.2-6.1-8.5-9.1-12.8l-.4-.5-3-4.4c.2-.2.4-.1.6-.4l7 10 5.7 8c.2.3.4.6.8.5-.3.5-.8.5-1.3.7-1.3.4-2.7.3-4 .6-.4.1-.8.1-1-.2z"/><path class="wpg_st10" d="M88.8 58.5l8.4 6.4 3.6 2.7.1.1.2.2s.1.2.3.2c.2.3.5.5.8.6l.4.3 4.1 3.3 4.4 3.3 3.5 2.6.2.1v.1c0 .2.1.4-.2.5h-.2l-.2-.2a58 58 0 00-4.5-3.5l-4.4-3.4c-2-1.4-3.9-3-5.8-4.5l-6.3-4.8-1.4-1-4-3c.2-.3.5-.1.7-.2h.1v.1h.2v.1z"/><path class="wpg_st14" d="M113.8 88.5c-1 1-2.2 1-3.3.2-.5-.4-1-.6-1.6-.7-.5 0-.6-.3-.6-.8v-4.5c1.3 1 2.3 2.2 3.4 3.4.7.8 1.6 1.5 2.1 2.4z"/><path class="wpg_st3" d="M131.2 93.3l1-.1c.2 0 .5 0 .6-.2 0-.2-.2-.3-.4-.4-1-.9-2.2-1.8-3.4-2.6l-6.5-5-5.6-4.2c0-.3.3-.4.6-.4l6 4.5 9.3 7c.3.3.7.5.9.9-.7.7-1.5 1-2.5.5z"/><path class="wpg_st14" d="M87.8 58.6l4 3c0 .5.5.8.7 1.2.5 1 .9 2 1.7 2.7.6.4.4.9 0 1.3-.7-.5-1.2-1.2-1.8-1.8L89 61.2c-.8-.9-1.8-1.6-2.5-2.6l-.2-1c.3-.2.4.1.6.2l1 .8z"/><path class="wpg_st5" d="M89.5 83.5H92c0 .1.1.1.2 0l.4.2 1.3.6v.2c-.8.4-.9 1.2-1.3 1.8l-.4.4c-.4 0-.6.3-.7.7l-.6-.2c-2-.7-2-.7-2.8-2.8l-.2-.6 1-.1.5-.2h.1z"/><path class="wpg_st10" d="M86.4 58.6c.7 1 1.7 1.7 2.5 2.6l3.5 3.8c.6.6 1.1 1.3 1.9 1.8l6.1 6.6.9.9c0 .1 0 .2.2.2l.3.3c0 .2 0 .3.2.3l1.2 1.1c0 .3.2.6 0 1h-.1l-.5-.7L93 66.4c-1.9-2-3.7-4-5.6-5.8-.4-.4-.6-.9-1-1.1 0-.3-.2-.6 0-1z"/><path class="wpg_st1" d="M146.4 95.9c-.2-.6-.9-.9-.6-1.6.2 0 .4-.2.6 0 .2-.1.6.4.7-.2.6-.2 1.2-.1 1.8-.2h.3l4-.4 5.1-.4c.2.1.3.3.3.5l-6.4 1.2-1.4.3c-.5-.1-1-.6-1.4.2-.6.1-1.3.4-2 .4 0-.3-.3-.4-.5-.3-.3.1 0 .3 0 .4h-.5z"/><path class="wpg_st10" d="M65.8 72.1V72l.2-.2v-.1l.3-.3c.3-.3.6-.6.7-1l.2-.2.7-.8.1-.3.2-.1.1-.2.4-.5c2-2.4 3.9-4.8 5.7-7.3.2-.3.6-.5.7-1v1.4c-.4.1-.6.3-.8.6-.2.5-.7.9-1 1.3l-2.7 3.5-7.8 9.9-3.2 4-.2.4c-.4.1-.5.5-.7.8-.2 0-.3-.2-.3-.4h.1v-.1l.1-.1.1-.2.1-.1h.1l5.5-7.3.1-.1.2-.2v-.1l.5-.5.1-.2.5-.5z"/><path class="wpg_st1" d="M76.8 83.2h-.5c.7-1 1.6-1.3 2.7-1.5 1.2-.3 1.1-.3 1 1-.2 2-.6 4.2-.7 6.3 0 .1 0 .3-.2.3s-.2-.1-.3-.3l-.5-1.8c-.2-1.3-.7-2.6-.8-4 0-.1 0-.3-.3-.3-.2 0-.3.2-.4.3z"/><path class="wpg_st14" d="M89.4 67.4c-.3 0-.3.2-.2.4.2.2.2.4 0 .5 0 .2-.3.1-.4 0-.6-.5-.8-.3-1 .3l-.8 2-.7 1.5v-1-7.5c.1 0 0-.3.2-.4.8 1 1.5 2 2 3 0 .3 0 .5.2.6l.2-.1.5.7z"/><path class="wpg_st10" d="M75 64.5c-.2 0-.4 0-.6.3l-3 4.8-4 6-3.3 4.8c-.2.3-.2.6-.5.8-.2 0-.4.1-.4-.2l.1-.2.1-.2 2.8-4 6-9c1-1.5 1.8-3 2.9-4.4v1.3z"/><path class="wpg_st9" d="M83.2 81c1.3 0 2.3.2 2.7 1.7.2 1.1.9 2.2 1.4 3.3.2.2.4.7.1.9-.3.2-.6-.2-.8-.5a75.4 75.4 0 00-3.8-4.9c-.2-.4 0-.6.4-.6z"/><path class="wpg_st10" d="M88.6 66.3c-.6-1.1-1.3-2.1-2.1-3 0-.4-.2-.7-.3-1l.2-.3 1 1.7 4 5.6c.8 1 1.5 2.2 2.2 3.3l2.2 3v.1l.3.3c-.1.2.3.6-.1.8h-.2c0-.3-.2-.5-.3-.7l-.4-.4-4.1-6.1-1-1.4-.2-.1V68l-.2-.3-.2-.2-.5-.8-.2-.2-.1-.2z"/><path class="wpg_st14" d="M95.1 59.8c-2.5-1.2-4.9-2.8-7.4-4L86 55l-.3-.7c.4 0 .7.2 1 .3l8.7 4c-.5 0-.2.3 0 .5.3.2.3.4-.1.5-.1 0-.2 0-.2.2z"/><path class="wpg_st10" d="M67.3 80.7v-.2h.1v-.1l.1-.2c1-1.5 1.8-3.1 2.7-4.7 1.3-2.2 2.6-4.4 3.7-6.7.3-.5.6-1.2 1.2-1.5-.1.3.2.8-.3 1l-.4.4c-.5 1.6-1.4 3-2.2 4.3-1 2-2.2 3.8-3.2 5.7-.3.4-.7.8-.8 1.3l-.3.4-.2.4-.1.2c-.3 0-.3-.1-.3-.3z"/><path class="wpg_st6" d="M86.3 63.6V79.3c-.2-.5-.4-1-.4-1.6V64.4c0-.4-.1-.8.4-.8zM166 90.2c-2-.6-3.7-1.6-5.6-2.4l-4.6-2V85l4 1.8L165 89l1.2.7-.3.4z"/><path class="wpg_st1" d="M104.9 77.5h2.9c.3 0 .5 0 .5.4v3.4c-.3 0-.4-.2-.5-.4l-2.5-2.7c-.2-.2-.5-.3-.4-.7z"/><path class="wpg_st3" d="M143.3 86.4l6.9 3.8 2.1 1c-.2.1-.5.2-.7 0-.5-.2-.6.4-1 .4.1-.3 0-.3-.2-.4l-2-1.2-4.5-2.5-.6-.5v-.6z"/><path class="wpg_st4" d="M129.7 96.4c-.1.4.6.5.4.8-.2.3-.7.2-1 .4-.5.5-1.2.8-2 .8-.5 0-1.1 0-1.5-.6l-.3-.1c-.7.2-.6-.1-.5-.6 1.6-.2 3.2-.6 4.9-.7z"/><path class="wpg_st6" d="M76.8 83.2c.1-.1.2-.4.4-.3.2 0 .2.2.2.3.2 1.4.7 2.7 1 4-.5.2-.9.4-1.3 0-.3-.1-.4.2-.5.2l.2-4.2z"/><path class="wpg_st14" d="M86.3 79.3v-6.4c.3 0 .5-.1.7-.3.3 1 .3 2-.1 3-.1.2-.2.5-.1.7.3 1 0 2 .3 3 .1.5-.2 1-.6 1.4l-.2-1.4z"/><path class="wpg_st3" d="M143.7 92l3-.4h4l-.1.2c-1 .1-1.8 1.1-3 .6h-.4c-.8.4-1.5.1-2.2-.1l-1.3-.3z"/><path class="wpg_st14" d="M112 85.3c.2 0 .5.1.7-.2.1-.2.4-.3.6-.4.7 0 .8-.4.8-1 0-1-.2-2 0-3 0-.1.1-.3.3-.3-.2 1.5-.1 3 0 4.4 0 .8-.2 1.6-.5 2.3a8.4 8.4 0 01-2-1.8zM86 55.4l2.3 1.4c.2.1.5.1.5.4.1.4-.2.7-.3 1-.8-.5-1.6-1.2-2.3-1.9-.3-.2-.5-.5-.2-.9zM75 57.8c-.6.8-1.5 1.5-2.4 2.2 0-.3 0-.6.2-.8.3-.2.2-.4 0-.5.7-.5 1.4-1.4 2.4-1.5v.1l-.1.5z"/><path class="wpg_st6" d="M86.4 62l-.2.3c-.7-.6-.4-1.4-.3-2.1.1-.6.2-1 .1-1.5 0-.4-.2-.8.2-1l.2.9c-.2.3 0 .6 0 .9V62zM85.6 53.5v.2c-.4 0-.7-.1-.7-.4 0-.9-.3-1.7-.7-2.6v-.3h.6c.3 1 .4 2.1.8 3.1z"/><path class="wpg_st4" d="M158.6 93.6c0-.2-.1-.4-.3-.5l1.6-.3c.1 0 .3-.1.4.1 0 .2-.1.4-.3.5-.4.2-1 .2-1.4.2z"/><path class="wpg_st14" d="M88.8 83.7c-.2.2-.6 0-.9 0l-.7-1.5c.3 0 .4.2.4.4.3.5.7.9 1.2 1z"/><path class="wpg_st4" d="M126.3 100.5c0-.5.4-.6.7-.7.3-.1.4.2.4.4-.4.2-.8 0-1.1.3zM130.5 99.4c.4-.5 1-.7 1.4-.3-.5.1-.9.3-1.4.3zM149.4 95.3c.3-.8 1-.3 1.4-.2l-1.4.2zM146.9 95.8c0-.1-.2-.3 0-.4.2 0 .4 0 .5.3h-.5zM132.7 98.9c.2-.5.5-.2.8-.3-.2.2-.5.3-.8.3zM147.1 94.1c-.1.6-.5 0-.7.2.2-.2.5-.2.7-.2z"/><path class="wpg_st14" d="M86.6 81.2c.3 0 .3.2.3.4a.5.5 0 01-.3-.4z"/><path class="wpg_st10" d="M75 57.8c0-.2 0-.3.2-.5l-.1.5z"/><path class="wpg_st14" d="M86.5 81c.1 0 .2.1.1.2V81z"/><path class="wpg_st3" d="M72.6 92.1l-.2.2c0-.2.1-.2.2-.2z"/><path class="wpg_st1" d="M108.3 81.2v0zM104.6 77.5h.3c-.2.2-.2 0-.3 0z"/><path class="wpg_st4" d="M149.2 93.9h-.3.3z"/><path class="wpg_st14" d="M86.9 81.6c.1 0 .2.2.1.3l-.1-.3zM87 81.9c.2 0 .2.1.2.3l-.2-.3z"/><path class="wpg_st4" d="M130.5 96.2l-.3.1h.3zM132.3 99h0zM130 96.3l-.3.1h.3zM131.6 96l-.2.2.2-.1z"/><path class="wpg_st3" d="M70.6 92l.1-.1zM57.3 126.7c.3.1.1.3 0 .5-.2.4-.7.5-.6 1 0 .5.6.5.7.9l-5 1.6-1 .1-.3-.7c2-1.3 4-2.5 6.2-3.4z"/><path class="wpg_st1" d="M52.3 130.7l5-1.6c.3.4 0 .4-.2.5-1.3 1-2.8 1.9-4.3 2.7-.8.5-1.5 1-2.4 1.4 0-.3.2-.4.4-.5.3-.3.4-.5.4-1 0-.9.7-1 1.2-1.4v-.2z"/><path class="wpg_st5" d="M49.5 136.1c1.1 0 2.2-.5 3.4-.6h.3c-.1.5-2.8 2.5-4.1 3 0-.4 0-.8-.5-.8-.3 0-.5 0-.6-.2-.1-.4.1-.5.3-.7.2-.2.6-.4 0-.4.3-.3.8-.1 1.2-.3z"/><path class="wpg_st6" d="M50 116.5c0 .3.3.3.5.2.6-.4 1.2.1 1.9-.1v.1l-6.9 2.7v-.2l4.5-2.7z"/><path class="wpg_st1" d="M52.3 113.6c1.3-.6 2.6-1 4-1.5h.3c0 .2 0 .3-.2.4l-1.5 1-3.2 2c0-.7.4-1.3.6-1.9z"/><path class="wpg_st6" d="M49.5 136.1c-.4.2-.9 0-1.3.3l-2.7.6c.7-.9 1.6-1 2.3-1.6.2 0 .3-.1.3-.2l.4-.2c.1.6.5.9 1 1.1zM51 130l.4.8c-1.3.6-2.7.8-4 1.4 1.1-.8 2.4-1.4 3.7-2.1z"/><path class="wpg_st4" d="M131.4 97c0 .3 0 .4-.3.4-.2 0-.4 0-.4-.3 0-.2.2-.3.4-.3s.3 0 .3.2z"/><path class="wpg_st3" d="M45.5 119.2v.2l-.8.5c0-.5.5-.5.8-.7zM58.3 126c0 .3 0 .5-.3.6-.2 0-.3.1-.4-.2l.7-.3z"/><path class="wpg_st1" d="M50.4 133.7c-.2.3-.5.4-.8.5.1-.4.4-.5.8-.5z"/><path class="wpg_st5" d="M49 138.4c0 .3-.3.5-.6.5 0-.4.4-.4.7-.5z"/><path class="wpg_st1" d="M49.2 134.5c-.2.2-.4.4-.7.4 0-.4.4-.4.7-.4z"/><path class="wpg_st5" d="M47.3 139.7a1 1 0 01-.6.3c0-.3.3-.4.6-.3zM45 141.2l-.4.2c0-.3.2-.3.4-.2zM45.7 140.8l-.5.2c0-.3.3-.3.5-.3z"/><path class="wpg_st1" d="M48.5 135l-.4.2c0-.3.2-.3.4-.3v.1z"/><path class="wpg_st5" d="M46.5 140.2l-.4.3c0-.3.2-.3.4-.3zM48.3 139l-.3.2c0-.2 0-.2.3-.2z"/><path class="wpg_st1" d="M49.5 134.3l-.3.2c0-.1.1-.2.3-.2z"/><path class="wpg_st3" d="M44.7 119.9h-.2.2z"/><path class="wpg_st1" d="M48.1 135.2l-.3.2c0-.2.2-.2.3-.2z"/><path class="wpg_st5" d="M44.6 141.4l-.3.2c0-.2.2-.2.3-.2zM47.5 139.5l-.2.2.2-.2zM46.7 140l-.2.2.2-.2z"/><path class="wpg_st3" d="M58.6 126h-.2.2z"/><path class="wpg_st5" d="M47.9 139.2l-.2.2.1-.2zM45.8 140.6l-.1.2.1-.2z"/><path class="wpg_st1" d="M51.7 115.4l-.2.1h.2z"/><path class="wpg_st5" d="M44.3 141.6l-.1.1.1-.1z"/><path class="wpg_st9" d="M108.3 51.2c1.3.4 2.4 1 3.5 1.8.8.6 1.7.8 2.4 1.5l.6.7c1 1.7 2 3.5 3.1 5.1.1.2.3.4.2.7-.2.2-.4 0-.6 0h-.8c.8.9 2 .5 2.8.9.2.5-.2.5-.5.5a9 9 0 01-10.7-6.3c-.2-.5-.2-1.1-.2-1.7-.1-1 0-2.1.2-3.2z"/><path class="wpg_st5" d="M137.5 76.8l-.2-.2c.2-.4.8 0 1-.3 1-.2 2 0 3 0h1c1.5-.1 2.9-.2 4.3 0l.3.9v3.3l-.3.3c-1.8-.6-3.5-1.5-5.2-2.3-1.2-.5-2.5-1-3.8-1.7h-.1z"/><path class="wpg_st1" d="M108.6 47.4h-1.4c-.3 0-.7-.1-.8.2 0 .4-.1.9.3 1.2l.6.4c.2.2.2.4-.1.5-.7.2-.7.2-.3.7-2.6-.6-5.1-1.4-7.5-2.7-.3-.2-.8-.4-.7-.8.2-.4.7-.2 1-.2 2.2 0 4.3.4 6.5.4l2.4.3z"/><path class="wpg_st9" d="M123.8 48.6l-3 1.4c-.2.1-.4.3-.5 0-.3-1.6-.6-3.1-.7-4.6 1.2.4 2.3 1 3.2 1.9l1.2 1-.2.3zM123.4 56.8l.9 1c.2.3.3.5.3.8-.7.4-1 1-1.6 1.6l-.7.6c-.3 0-.3-.3-.3-.5l-.6-3.5c0-.5.1-.6.5-.5.6 0 1 .2 1.5.5zM115.4 45c-.2 1-.8 1.9-1.3 2.8-.1.3-.4.3-.7.3-.8 0-1.5-.2-2.2-.3h-.3l-.3-.2v-.2c1.3-1.3 3-2 4.8-2.4z"/><path class="wpg_st10" d="M153.6 84.2h.2c.1.4.5.5.4.9l-.3-.2-5.1-2.3c0-.4.3-.3.5-.4l.3.2h.2a536.5 536.5 0 003.9 1.7z"/><path class="wpg_st1" d="M142.3 76.2h-1c.4-.8.3-1.7.4-2.5v-.6c0-.1.1-.3.3-.3.2 0 .2.2.2.3v2l.1 1.1z"/><path class="wpg_st2" d="M149.3 82.2c-.2.1-.5 0-.6.3-.5 0-1-.4-1.6-.5l-.5-.4V81l.4.1c.7.5 1.6.7 2.3 1.2zM154.2 85c.1-.3-.3-.5-.4-.7.5 0 1 .2 1.4.3l.5.4.2.1-.1.7-.6-.1c-.3-.3-.7-.3-1-.7z"/><path class="wpg_st1" d="M123.8 48.6l.2-.3c.7-.2 1.4 0 2.1.2.4 0 .6.4.4.8-.3.4-.2.7 0 1.1-.5 0-.4-.3-.3-.5 0-1.1-.3-1.5-1.5-1.4l-.9.1zM138.3 76.3c-.2.4-.8 0-1 .3l-1.2-.5c.7 0 1.5 0 2.2.2zM146.9 80v-2.8l-.3-.9c.3-.1.4.1.4.3l-.1 3.4zM147 81h-.4v-.2l.3-.3c0 .2.2.3 0 .5zM107.3 50.6c.3-.2.4 0 .5.1l-.5-.1zM110.6 47.4v.1c-.1.2-.2.2-.2 0h.2z"/><path class="wpg_st6" d="M84.7 49.9c-.1-.1-.1-.3 0-.4v.4z"/><path class="wpg_st2" d="M153.6 84.2l-.2-.1h.2z"/><path class="wpg_st14" d="M126.8 53.4v-.3.3z"/><path class="wpg_st1" d="M135.9 76h-.1z"/><path class="wpg_st2" d="M150 82.5h-.2.1z"/><path class="wpg_st1" d="M107 50.4z"/><path class="wpg_st6" d="M84.8 50.1V50v.1zM84.6 49.5v-.1zM84.4 49v-.2.1z"/><path class="wpg_st2" d="M149.7 82.4z"/><path class="wpg_st15" d="M92.3 137c-1.3.2-1.3.2-1.3-1.1v-7.2-1c0-.1 0-.2.2-.3l.4-.1h.1l.2-.2.5-.1.8-.1c.3.2.2.5.3.8 0 .5-.2 1 .2 1.5v.4c-.3.3-.4.6 0 1h.7l.2-.2c.1-.1.1-.3 0-.4v-.6c.3-.5 0-1.1.2-1.7.2.1.3.3.5.2.6-.2.5.3.5.6 0 .4-.1.7.3 1h.6l.8.1c.6.3 1 1.6.4 2-.4.3-.8.6-1.4.7-.7 0-.8 0-.8.8l.3 2.5-1.3.5h-.1l-.3.2h-.2c-.2 0-.3.1-.3.2-.2 0-.4 0-.6.3-.3 0-.6 0-.9.2z"/><path class="wpg_st14" d="M102.9 122.6l4.1-1.4.7-.3c.4 0 .3.4.3.7.2 3 .2 6 .2 9h-.2l-.2.2-.4.1c-.2 0-.3 0-.3.2h-.2l-.2-7.2v-.5c0-.1-.1-.3-.3-.3-.2 0-.3 0-.4.2l-.2.5v4.2l.2 3.4c-1 .3-1.9.5-2.7 1-.4 0-.3-.3-.3-.6-.2-1.6-.1-3.3-.1-5v-4.2zM112.1 129.1c-.9.4-1.9.6-2.7 1.1h-.1-.2l.1-.9a77.5 77.5 0 01-.4-8.7c1.3-.7 2.7-1.1 4.2-1.4.4 0 .7-.4 1.2-.4l.1.7c.2 2.9.1 5.8.1 8.7l-1 .7c-.4 0-.3-.3-.3-.5 0-2.3-.3-4.6-.2-7 0-.2.2-.5-.2-.6-.4 0-.6.2-.6.5v1 6.8zM99 124.1l3-1c-.1 3.3 0 6.5.2 9.7l-2 .7h-.2c-.6.3-.7 0-.7-.5v-2c-.2-2.3 0-4.6-.3-6.9zM96.5 132.3c.6 0 1-.4 1.4-.8.5-.4.2-1.6-.4-2-.3 0-.5-.1-.8 0v-4-.1-.2c.4-.6 1.1-.4 1.6-.7v6.2c0 1.2 0 2.4.3 3.6-.4.5-1 .6-1.5.9-.2 0-.2-.2-.2-.4 0-.8-.2-1.7-.4-2.5z"/><path class="wpg_st0" d="M108.8 120.6l.2 1.4c0 2.4 0 4.9.2 7.3v1c-.3.3-.7.2-1 .2 0-3 0-6-.2-9 0-.2.1-.5-.3-.6.3-.2.8 0 1.1-.3zM102.2 132.8l-.3-9.6c.3-.2.7-.3 1-.6v9.2c0 .3 0 .6.3.6-.3.3-.6.5-1 .4zM98.6 134.3c-.3-1.2-.2-2.4-.2-3.6v-6.2l.6-.4c.3 2.3 0 4.6.2 6.9v2c0 .5.2.8.8.5h.3c-.5.4-1.1.7-1.7.8zM106 131.4l-.2-3.4v-4.1c0-.3 0-.5.2-.6.1-.1.2-.3.4-.2.2 0 .2.2.3.3v.5l.2 7.3c-.3 0-.6.3-1 .2zM96.5 132.3l.4 2.5c0 .2 0 .3.2.4l-1.2.4-.2-2.5c0-.8 0-.9.8-.8z"/><path class="wpg_st1" d="M92.4 137c.2-.2.5-.2.8-.3-.2.4-.5.4-.8.3zM93.2 136.8c.1-.3.3-.3.5-.3-.1.2-.3.3-.5.3zM107 131h.4l-.3.2v-.1zM93.7 136.5l.3-.1-.3.1zM109.1 130.4v-.2h.2l-.2.2zM107.8 130.8l.2-.2-.2.2z"/><path class="wpg_st0" d="M107 131v.2h-.1l.2-.1z"/><path class="wpg_st1" d="M94.5 136.1h0zM94 136.3H94.2z"/><path class="wpg_st14" d="M119.4 117.2c.2-.3.3-.4.6-.5 1.6-.2 3-.8 4.6-1.1h.4c.1 1.7.3 3.5.2 5.3-.8.3-1.6.6-2.4.7-.4 0-.5.3-.5.7 0 1.2 0 2.4.3 3.6l-.3.1-.3.1c-.2 0-.3 0-.5.2l-.8.1h-.3l-.7.2c-.2 0-.4-.2-.4-.5v-3.5l.1-5.4zm4 1.1c-.1-.2.3-.7-.3-.7-.4 0-.7.1-.6.6 0 .4 0 .9.6.9s.3-.5.4-.8z"/><path class="wpg_st15" d="M128.6 114.5l.3-.1c.2.4 0 .8.1 1.3-.3.1-.3.5-.4.8 0 0-.1 0 0 .1l.3.2h.5c-.3.6-.4 1.3.4 1.8l-.8.2c-.3.1-.6.3-.5.6 0 .5.4.2.6.3h.2l2-.5c.3-.1.5 0 .5.4v3.8l-.2.2h-.6c-.1 0-.3 0-.5.2h-.4c-.2 0-.5 0-.7.2h-.3c-.3 0-.6 0-.8.2h-.3c-.4 0-.9.3-1.3.4-.4.1-.6 0-.6-.4v-2-2.9c0-.5.1-1 0-1.6l-.1-2.6.3-.1.7-.1h.2c.3-.2.6-.2 1-.3l.4-.1z"/><path class="wpg_st1" d="M126 122.2c.2.6.1 1.3.1 2 0 .4.2.5.6.4.5-.1.9-.3 1.4-.3-.5.4-1.2.5-1.8.6-.4 0-.6-.3-.6-.7v-.3c-.2 0-.3 0-.3.2-.5.5-1 .8-1.8.6-.7 0-.9.1-.8.8 0 .2 0 .3-.2.4-.2-1.2-.3-2.4-.3-3.7 0-.4.1-.6.5-.6.8-.1 1.6-.4 2.4-.7 0 .6.5 1 .8 1.3z"/><path class="wpg_st0" d="M119.4 117.2l-.1 5.4v3.5c0 .3.2.4.4.5l-1.2.5h-.1c.3-.5 0-1 0-1.4l.1-8.2c.4 0 .6-.3 1-.3z"/><path class="wpg_st5" d="M134 163.8v4.5c0 .4-.1.6-.5.8-.6-.7-.2-1.4 0-2l.2-2.8c0-.2-.2-.5.2-.6zM118.5 127.1l1.2-.5.7-.2c-.3.4-.8.7-1.2 1-.2 0-.6.1-.7-.3z"/><path class="wpg_st1" d="M128.3 124.2l.9-.2c-.3.4-.6.2-.9.2zM129.4 124c.2-.2.5-.2.7-.2v.2c-.2-.1-.4.2-.7 0z"/><path class="wpg_st5" d="M120.7 126.4c.2-.2.5-.1.8-.2-.2.4-.5.2-.8.2zM131 123.7l.5-.1c-.2.1-.3.4-.4 0zM134 161.8v.3l-.3-.1.2-.2zM130.1 124v-.2h.4c0 .2-.2.2-.4.2z"/><path class="wpg_st1" d="M122 126.1h0z"/><path class="wpg_st5" d="M118.4 127.1l-.1.2v-.2h.1zM131.6 123.6l.1-.1h-.1z"/><path class="wpg_st4" d="M63 82.3c1 .2 2 .2 2.9.5-.4 1-1 1.9-1.5 2.8-1.2 1.9-2.2 3.8-3.3 5.8l-7.5 13.2c-1.3 2.3-2.7 4.5-3.8 6.8-.3.5-.8.7-1.3 1-2 .7-4.2 1.5-6.2 2.4-.3.1-.6.3-1 0l14.3-21.4c.4-.4.6-1 1-1.3l1.1.3h.3c.2-.5 0-1.2-.5-1.5l.2-.8c1.8-2.6 3.6-5 5.1-7.7l.2-.1z"/><path class="wpg_st6" d="M49.8 111.4l3.8-6.8 7.5-13.3 3.3-5.7c.6-1 1.2-1.8 1.5-2.9h.2v-.2h.7l-7.1 12.6-5.6 10-3.2 5.6c-.2.3-.5.5-.4.9-.3 0-.5 0-.7-.2zM55.6 93.3l-14.2 21.5c-.3 0-.5.1-.7-.1l4.2-6.3 4.7-7.2 5.2-7.7c.2-.1.2-.3.3-.4.2 0 .4 0 .5.3z"/><path class="wpg_st14" d="M139 114.6c-.3 2.2-.2 4.4-.2 6.6 0 .5-.2.6-.7.7-1.6.2-3.2.7-4.8 1-.3 0-.5 0-.5-.3-.1-1.7-.2-3.4 0-5v-4.2c1-.5 2-.6 3-.8l2.4-.4c.4-.1.7 0 .7.4 0 .5-.4.8-.9 1-.5 0-.9.3-1.3.4-.4 0-.5.3-.5.6l-.1 2.8c0 .3 0 .6.4.6s.5-.2.5-.6v-1.1l.1-1.4c.3-.4 1-.1 1.4-.2h.4zM118.4 127.1l-.2.1c-.6.2-1.3.2-1.9.5h-.2l-.3.1c-.2 0-.3-.1-.3-.3l-.1-1.5-.2-7.6 3.3-1v8.2c0 .5.2 1-.1 1.5z"/><path class="wpg_st0" d="M132.9 113.4c0 1.4 0 2.8-.2 4.1l.1 5c0 .4.2.4.4.5-.4.3-.8.4-1.3.4l-.1-3.8c0-.5-.2-.5-.5-.4l-2 .4-.2.1c-.2 0-.6.2-.6-.3 0-.3.2-.5.5-.6l.9-.2 1.3-.3c.3 0 .6 0 .7-.4 0-.5.1-1.1 0-1.6-.1-.2-.3-.1-.5-.1l-2 .5h-.4-.4v-.2c0-.3 0-.7.4-.8.8 0 1.5-.4 2.3-.5.5-.1.6-.4.7-.8v-.6c.5.3.7-.1.9-.4zM115.2 118.4l.2 7.6v1.5c.1.2.2.3.4.3-.4.4-.9.4-1.4.4 0-3 .1-5.8 0-8.7 0-.3 0-.5-.2-.7l1-.4zM139 114.6h-.5c-.5.2-1.1-.1-1.4.3-.2.4 0 1 0 1.4v1.2c0 .3-.2.5-.6.5-.4 0-.4-.3-.4-.6l.1-2.8c0-.3.2-.5.5-.6l1.3-.5c.5-.1.8-.4 1-1 0 .8-.2 1.5 0 2.1zM126 122.2c-.3-.4-.7-.7-.8-1.3.1-1.8 0-3.6-.1-5.4.3-.1.7-.1 1-.4v7.2z"/><path class="wpg_st14" d="M132 113.8v.6c0 .4-.2.7-.7.8-.8 0-1.5.5-2.3.5 0-.4.1-.9-.1-1.3.8-.4 1.6-.3 2.4-.7h.7zM96 129.4c-.4-.2-.2-.6-.2-.9 0-.3.1-.8-.6-.6 0 0-.3 0-.4-.2-.3.6 0 1.2-.2 1.7V126c.4-.3.9-.3 1.4-.2v3.6z"/><path class="wpg_st0" d="M94.5 126v4.5h-.8v-1-.4-2.3c.3-.3.7-.4.8-.8zM96 129.4v-3.6c.2-.3.5-.3.7-.3v4h-.6z"/><path class="wpg_st14" d="M93.7 126.8v2.3c-.5-.4-.2-1-.2-1.4 0-.3 0-.6-.3-.9h.5z"/><path class="wpg_st1" d="M91.6 127.3H91h.5zM92.4 127l-.5.1c.2-.2.3-.1.5-.1z"/><path class="wpg_st14" d="M128.6 114.5c-.1.1-.3 0-.4 0h.4zM127.2 114.8h-.2.2z"/><path class="wpg_st1" d="M91.9 127.1l-.2.1h.2z"/><path class="wpg_st0" d="M96.8 125.2v0z"/><path class="wpg_st14" d="M126.3 115l-.2.1.2-.1zM126.4 115z"/><path class="wpg_st0" d="M131.5 113.7h-.1.1z"/><path class="wpg_st12" d="M65.8 72.1l-.5.5-.1.2c-.4 0-.5.1-.4.5l-.1.2h-.1l-.1.2-5.6 7.2v.1l-.1.1-.1.1v.1h-.1v.1l-.2.2a9.1 9.1 0 00-1.5 2s-.1 0 0 0h-.1l-.1.1-.1.2-3.4 4-.2.2h-4l-1-.1c0-.4.4-.9 0-1.3v-.2a5 5 0 011.5-2c.7-.5 1.4-1 1.8-1.9.1-.1.3-.3.1-.5-.1-.2-.3 0-.4 0-.3.2-.4.2-.5-.1l.2-.1.7-.7c.2 0 .2-.1.3-.3l.5-.5c.4 0 .7-.2.7-.7l.3-.3c1.2.6 1.8-.5 2.5-1 1-.9 1.8-2 2.8-2.8 1.1-1 2.2-2.3 4-2.3.2 0 .5-.1.7-.3.6-.5 1.5-.3 2.2-.9h.3z"/><path class="wpg_st15" d="M36.5 95.5l.3-.3c.2 0 .3 0 .3-.3.5.2 1.3 0 1.6.5.2.5 0 1.2 0 1.8v.4c0 .5-.1 1 .1 1.4v1.8c-.2 0-.2.2-.2.3-1.2.2-2.5.1-3.7.1H34l-.2.2-.7.6c-.2-.1-.3-.3-.2-.5.5-1 .3-2 .2-3a30.5 30.5 0 013.3-3zM50.5 82c0 .3.2.3.5.2.1 0 .3-.3.4 0 .2.1 0 .3 0 .4-.5.8-1.2 1.4-2 2-.6.5-1 1.1-1.3 1.9l-.1.2c.4.5 0 .9 0 1.3h-2.3c-.3 0-.6 0-.8-.4v-.1c1.8-2 3.6-3.9 5.6-5.5z"/><path class="wpg_st3" d="M43.1 89c-.8 1.2-2 2-3 3 0-.3-.2-.4-.4-.5 1-1 2-2.1 3.2-3l.2.6z"/><path class="wpg_st2" d="M53 88h.2c.2 0 .3.3.5.3l-.2.4-1.4 1.8-1.3 1.5c0-.4-.1-.5-.4-.5l1.9-2.4.7-1z"/><path class="wpg_st14" d="M38.8 99c-.2-.4 0-1-.1-1.4v-.4c0-.6.2-1.3 0-1.8-.3-.5-1-.3-1.5-.6l.6-.6.9-.8c.5 1.9.3 3.8.1 5.6z"/><path class="wpg_st6" d="M38.7 93.4l-1 .8c0-.2 0-.3-.2-.3l1.4-1.7c.3-.1.6-.4.8-.7.3.1.4.2.4.5l-1.4 1.4z"/><path class="wpg_st2" d="M43.1 89l-.2-.5.4-.5 1-.8c0 .3 0 .5.2.6L43.1 89z"/><path class="wpg_st14" d="M34.6 101.2h.3-.3z"/><path class="wpg_st2" d="M45 87.5l-.1.1h-.2l.2-.1z"/><path class="wpg_st14" d="M38.6 101.1l.1-.3-.1.3zM34 101.4l.1-.2-.2.2z"/><path class="wpg_st15" d="M72.7 58.7c.3.1.4.3.1.6-.2.2-.2.4-.2.7-2.7 2.8-5.6 5.4-8.4 8-.3-.3-.4 0-.6.1-1 .9-2 1.8-3.2 2.4-.6.3-.9.8-1.2 1.3-.1.2-.2.5-.4.4-.9-.2-1.7.1-2.5 0-.2 0-.4 0-.4-.3s-.2-.2-.4-.3c1-1 2.4-1.7 3.5-2.6l4.3-3.3c2.1-1.5 4.2-3 6.3-4.7l1.7-1.2v-.1h.1c.1 0 .2 0 .3-.2v-.1l.2-.1.2-.2.2-.1.2-.1.1-.1h.1z"/><path class="wpg_st1" d="M43.3 88l-.4.5c-1.2.9-2.2 2-3.2 3l-.8.7c-.2-1.7.5-3.2 2-4 .7-.3 1.6-.2 2.4-.2z"/><path class="wpg_st15" d="M55.1 72l.5-.4c0 .4-.2.3-.5.3zM53.5 73.2l.3-.3c0 .2 0 .3-.3.3zM54.8 72.2l.2-.2c0 .2-.1.2-.2.2zM61.4 70.7v.1zM58.5 73.6l-.2.1.2-.1zM58.3 73.7l-.1.2.1-.2zM58.2 73.8l-.2.2.2-.2z"/><path class="wpg_st6" d="M37.3 94l-.1.1h.1z"/><path class="wpg_st1" d="M110.9 47.7l.3.1c-.2.2-.3 0-.3 0z"/><path class="wpg_st14" d="M53.5 88.7l.2-.4v-.1l.1-.2.1-.1c.2 0 .3-.2.4-.3l3-3.8v-.1l.2-.2c.6-.4 1-1 1.2-1.6l.7-.8c-.1 1.2-.1 1.2 1 1.5-.7 0-1.3.5-1.9.7-.3 0-.5.3-.5.7v2.5c0 .6 0 1.2.3 1.7l-.8 1.5-2 2.7c-.5.1-1 .2-1.4 0l-.2-.1v-.1c-.4-1.2 0-2.4-.4-3.5z"/><path class="wpg_st1" d="M53.5 88.7c.3 1.1 0 2.3.3 3.4L52 90.5l1.5-1.8zM54 92.4h1.5l-.4.7-.3.4c.2-.7-.5-.7-.7-1.1zM53.8 92.1l.1.1z"/><path class="wpg_st0" d="M112.1 129.1v-6.8-1c0-.3.2-.5.6-.5.4 0 .3.4.2.6l.2 7c0 .2 0 .5.3.5-.4.2-.9.3-1.3.2zM116.1 127.8l.2-.1h-.2z"/><path class="wpg_st6" d="M155.9 85.2l-.2-.2.2.2z"/><path class="wpg_st14" d="M72.3 59l-.2.1h.2zM71.7 59.5l-.3.2.3-.2zM72.6 58.8zM72 59.3l-.2.1.1-.1zM71.4 59.7l-.1.1.1-.1zM37 95c0 .1 0 .2-.2.2l.3-.3zM36.5 95.5c0 .2 0 .3-.3.3 0-.2.2-.3.3-.3z"/><path class="wpg_st12" d="M101 67.7h-.2c-.2-.5-.1-.7.4-.7.2 0 .4 0 .4-.3 0-.2 0-.3-.3-.3-.7-.3-.8-.7-.2-1.3.5-.5.4-.8-.2-1l-1-.5c-.4-.2-.3-.3 0-.4l5.5 3 10.3 5.6 5.9 3.3.5.3 1 .8-.3.3c-1.2.3-1.2 1.3-1.3 2.2 0 .5-.1.8-.8.7-.5-.2-1-.1-1.5 0h-2.8c-.6-.3-1-.8-1.5-1h-.2v-.1l-3.6-2.7-4.4-3.3-4.1-3.3c0-.2-.2-.3-.4-.3l.1-.7c0-.2 0-.4-.2-.5-.3 0-.3.2-.3.3 0 .2-.2.3-.4.4 0-.2-.2-.3-.3-.3l-.2-.2z"/><path class="wpg_st14" d="M133.8 82c-.5 0-.5.5-.6.7-.1.6-.4.9-1 .7-.9-.2-1.7 0-2.4.4-.5.2-.7.1-.6-.4 0-1.3 0-2.6.2-3.8 1.6.6 3 1.5 4.4 2.4z"/><path class="wpg_st2" d="M133.8 82c-1.4-.9-2.8-1.8-4.4-2.4a55.5 55.5 0 00-5.6-3l-.8-.4-.9-.8c.4 0 .3-.2.3-.4.8.2 1.5.7 2.3 1 1.5 1 3 1.9 4.6 2.6l1.4.8c1.5.8 3 1.8 4.5 2.4l.6.6-.1.6-2-1z"/><path class="wpg_st6" d="M135.7 83c0-.2.2-.4.1-.7l7.5 4.1v.6h-.1c0-.2-.2-.2-.3-.2-1.5-.6-2.8-1.5-4.2-2.2l-3-1.6z"/><path class="wpg_st5" d="M150.7 91.5l-4 .2c.9-.3 1-1.3 1.7-1.7l2 1.2c.2 0 .3.1.3.3z"/><path class="wpg_st2" d="M114.9 78.4c.5.2 1 .7 1.5 1l1 1c-.2 0-.5 0-.5.4l-2.1-1.5-.1-.1-.1-.3c.3 0 .2-.3.3-.5z"/><path class="wpg_st3" d="M142.9 86.8c.1 0 .2 0 .3.2l-.3-.2z"/><path class="wpg_st2" d="M66.8 82.6l-.6-.1a7 7 0 011-1.8c.1.1.1.4.4.4l-.6 1.3-.2.2z"/><path class="wpg_st15" d="M124.7 76l-2.3-1-.3-.2h-.1l-8.2-4.6-6.2-3.5-9.4-5.1c-1-.6-2.2-1-3-1.8l.1-.2c.5-.1.4-.3.1-.5-.2-.2-.5-.4 0-.5l4.8 2 14.6 6.7 16.5 7.3 5 2.4-.3 3.8c0 .5-.2.9-.8 1-1.6-.6-3-1.5-4.5-2.3l-1.4-.9c.2-.3 0-.7 0-1.1.1-.5-.1-.7-.6-.7l-2.4-.3c-.4 0-.6-.2-.6-.6l-.1-1.6c0-.1 0-.3-.3-.3-.2.7-.1 1.4-.6 2z"/><path class="wpg_st14" d="M154.2 85c.3.4.8.4 1 .7-.1.8-.3 1-1.3.9l-1.2-.3c-.6-.3-1-.5-1.7-.3-.5 0-.9-.2-1.2-.4a7 7 0 00-2.3-1c-.6 0-.7-.3-.6-.8l.2-1.8c.6.1 1 .5 1.7.5l5 2.4h.1l.3.1z"/><path class="wpg_st3" d="M146.6 80.8V81.6L138 78c-.2-.2-.6-.2-.8-.5.4 0 .3-.3.3-.6l3.8 1.7c1.7.8 3.4 1.7 5.2 2.3z"/><path class="wpg_st15" d="M86.4 62v-2.5c.4.2.6.7 1 1l5.6 5.8 9.6 10.2.5.6c-.3.4-.7.4-1 .4h-4.7c-.5-.4-.8-1-1.3-1.5l-.2-.3-2.3-3.2-2.2-3.2-4-5.6-1-1.7z"/><path class="wpg_st2" d="M96 76c.6.4 1 1 1.4 1.6v.1c0 .3-.3.2-.5.4l-.7-.7-.2-.6c.3-.2 0-.5 0-.8z"/><path class="wpg_st5" d="M96.3 77.4l.6.7 3 4.5c-.7-.4-1.3-.8-1.6-1.6-.2-.4-.5-.4-.8-.2l-.4.1c-1 .3-1.8-.4-1.6-1.5l.1-.3c0-.3-.1-.6-.5-.6s-.5.3-.5.6c.2 1.2-.4 2.4-.2 3.7 0 .3-.1.4-.4.5v-1.7-2l.1-.3c.1-.2.2-.4.1-.7.1-.4.6-.4.8-.6l.2-.2.3-.1c.3 0 .5-.3.8-.3z"/><path class="wpg_st14" d="M93.9 84.3l-1.3-.6c.2-.3.4-.2.6 0h.7v.6zM114.7 79.2c0 .2 0 .4-.2.5-.1-.3-.2-.5.2-.5zM114.4 80.1V80v.1z"/><path class="wpg_st2" d="M101.5 74.5c-.2 0-.3 0-.2-.2l.2.2z"/><path class="wpg_st14" d="M114.2 78.7s.2 0 .2.2c-.2 0-.3 0-.2-.2z"/><path class="wpg_st2" d="M102 75l-.2-.1c.1 0 .2 0 .2.2z"/><path class="wpg_st14" d="M95.1 75.7l.3.3h.1l.3.8-.4.1h-.5v-.6c.2-.2.2-.4.2-.6zM94 79.6v2c-.1-.7-.3-1.4 0-2zM96.3 77.4c-.3 0-.5.3-.8.3l.4-1v.1l.3.6zM91 83.5a1 1 0 01-.7 0c.3-.3.5-.4.7 0zM94.3 78.6l-.2.7c-.2-.3-.1-.5.2-.7zM92.2 83.6H92c.1-.3.2-.2.2 0zM89.5 67.6l.1.1v-.1zM89.8 68zM89.8 68l.2.2-.2-.1zM95.2 77.8l-.2.2.2-.2zM89.5 83.5h-.1.1z"/><path class="wpg_st2" d="M67.6 81l.1-.2-.1.3zM68.1 80h.1zM67.9 80.5z"/><path class="wpg_st1" d="M58.3 88.2c-.2-.6-.2-1.2-.2-1.7v-2.6c0-.3 0-.6.4-.7.6-.2 1.2-.6 1.8-.7H62c-1 2-2.4 3.8-3.6 5.7z"/><path class="wpg_st2" d="M63 82.3l-.2.2a1 1 0 00-.5-.2v-.4l.1-.1.2-.2.6-.7c0 .4.2.3.4.3 0 .4-.4.7-.6 1z"/><path class="wpg_st14" d="M62.3 82v.3l-.2.1-.2.2h-.5c.3-.4.6-.5 1-.7z"/><path class="wpg_st2" d="M63.5 80.5v.1z"/><path class="wpg_st14" d="M59.6 80.8s0-.1 0 0z"/><path class="wpg_st2" d="M63.3 80.7z"/><path class="wpg_st14" d="M62.6 81.6l-.2.2.2-.2zM62.5 81.8l-.2.1.2-.1z"/><path class="wpg_st12" d="M66 71.8l-.2.2V71c.5-1 1.2-1.6 1.8-2.3.3-.4.7-.6 1.1-.5l-.4.5-.1.2-.2.1-.1.3-.7.8c-.1 0-.2.1-.2.3l-.7 1c-.2 0-.2 0-.2.2l-.1.1z"/><path class="wpg_st2" d="M67.5 80.2v.1zM67.4 80.4v.1zM66.2 82.5l-.1.2v-.2z"/><path class="wpg_st4" d="M66 82.7h-.2c0-.1.1 0 .2 0z"/><path class="wpg_st12" d="M98.7 62.5l.5.2c0 .2 0 .4-.3.3-.3 0-.3-.3-.2-.5z"/><path class="wpg_st2" d="M88.6 58.4zM88.8 58.5z"/><path class="wpg_st3" d="M137.5 76.8z"/><path class="wpg_st15" d="M52.9 79.7c0 .5-.3.7-.7.7l.7-.7zM51.6 81s0 .2-.2.2l.3-.3zM50.7 81.9l-.2.1.2-.1z"/><path class="wpg_st2" d="M122 74.7z"/><path class="wpg_st15" d="M101.4 68.2l.4-.4c0-.1 0-.4.3-.3.2 0 .2.3.2.5l-.1.7-.8-.5zM102.2 68.7c.2 0 .3 0 .4.3a.8.8 0 01-.4-.3zM101 67.9c.2 0 .3 0 .4.2a.4.4 0 01-.3-.2z"/><path class="wpg_st2" d="M114.6 78.3c.1 0 .2-.1.2 0h-.2z"/><path class="wpg_st15" d="M101 67.7v0z"/><path class="wpg_st2" d="M58.7 81.9c-.3.6-.6 1.2-1.2 1.6-.1-.5-.4.2-.5 0 .4-.7.8-1.4 1.4-2 0 .2 0 .4.3.4z"/><path class="wpg_st15" d="M64.8 73.3c0-.4 0-.6.4-.5l-.4.5zM67.9 69.4l.1-.3-.1.3zM67 70.4s0-.2.2-.2l-.2.2zM66 71.7c0-.2.1-.3.3-.3l-.2.3zM68.2 69l.1-.2-.1.2zM68 69.1l.2-.1-.2.1zM66 71.8v-.1.1zM65.2 72.8l.1-.2-.1.2zM64.6 73.6v-.2.2zM64.5 73.7v-.1s0 .1 0 0z"/><path class="wpg_st2" d="M58.9 81zM58.7 81.2V81h.1zM58.6 81.3zM58.5 81.4z"/><path class="wpg_st12" d="M88.6 66.3l.1.2.1.1c0 .2 0 .3-.1.2-.2-.1-.1-.3-.1-.5z"/><path class="wpg_st14" d="M88.8 66.6v-.2.2z"/><path class="wpg_st2" d="M95.8 75.6v.1zM95.5 76zM154 84.9h-.1z"/><path class="wpg_st14" d="M93.7 129.6v1c-.5-.4-.3-.7 0-1zM93.7 130.5h.6c-.2.2-.4.2-.6 0zM94.6 130.4v-.4c.1.1.1.3 0 .4zM94.4 130.5h.2-.2z"/><path class="wpg_st0" d="M123.5 118.3c-.2.3.1.8-.4.8-.6 0-.6-.5-.6-1 0-.4.2-.5.6-.5.6 0 .2.5.4.8z"/><path class="wpg_st14" d="M129.4 116.7l2-.5h.4c.2.6.1 1.2 0 1.7 0 .4-.3.3-.6.4l-1.3.3c-.9-.5-.8-1.2-.5-1.9zM126 119.3v-1.6c.2.6.2 1 0 1.6zM129 119.7H129.2zM128.9 116.8h0zM128.6 116.5v0z"/><path class="wpg_st6" d="M62 82.6l.1-.2.1-.1c.3 0 .5 0 .6.2-1.5 2.6-3.3 5-5 7.6-.3 0-.3-.3-.3-.4l.8-1.5c1.2-1.9 2.6-3.6 3.6-5.6z"/><path class="wpg_st2" d="M57.5 89.6c0 .2 0 .5.3.5l-.3.8-.9 1.2c-.4.3-.6.9-1 1.2 0-.2-.3-.3-.5-.2l.3-.7 2-2.8z"/><path class="wpg_st1" d="M56.6 92l1-1.1c.4.2.6 1 .4 1.4 0 .2-.1.2-.3.1l-1-.3z"/><path class="wpg_st10" d="M57 83.5c.1.2.4-.5.5 0l-.2.2-3 3.9-.4.3v.1l-.2.2c-.3 0-.3-.2-.5-.2l3.3-4.1.1-.1c.1 0 .2-.1.1-.2h.1s.1 0 0-.1h.2z"/><path class="wpg_st2" d="M56.6 83.8zM56.8 83.7h-.1zM56.9 83.5v.1c-.1 0 0 0 0 0zM53.7 88.2l.1-.2v.2zM53.8 88l.1-.1zM57.3 83.8v-.1z"/><path class="wpg_st1" d="M124.7 76c.5-.6.4-1.3.6-2 .3 0 .2.1.3.3v1.5c.1.5.3.6.7.7l2.4.3c.5 0 .7.1.7.7v1.1c-1.7-.7-3.1-1.7-4.7-2.5z"/><path class="wpg_st2" d="M62.3 82.3l-.1.1v-.1z"/></svg>