<?xml version="1.0" encoding="utf-8"?>
<!-- Generator: Adobe Illustrator 24.1.0, SVG Export Plug-In . SVG Version: 6.00 Build 0)  -->
<svg version="1.1" id="Layer_1" xmlns="http://www.w3.org/2000/svg" xmlns:xlink="http://www.w3.org/1999/xlink" x="0px" y="0px"
	 viewBox="0 0 1920 1920" style="enable-background:new 0 0 1920 1920;" xml:space="preserve">
<g>
	<circle style="fill:#0E2F2E;" cx="1021.865" cy="788.383" r="788.135"/>
</g>
<g>
	<g>
		<defs>
			
				<ellipse id="SVGID_1_" transform="matrix(0.7071 -0.7071 0.7071 0.7071 -258.1737 953.4794)" cx="1021.865" cy="788.383" rx="694.085" ry="694.085"/>
		</defs>
		<clipPath id="SVGID_2_">
			<use xlink:href="#SVGID_1_"  style="overflow:visible;"/>
		</clipPath>
		<g style="clip-path:url(#SVGID_2_);">
			<linearGradient id="SVGID_3_" gradientUnits="userSpaceOnUse" x1="1021.8653" y1="-123.2956" x2="1021.8653" y2="1722.9586">
				<stop  offset="0" style="stop-color:#375160"/>
				<stop  offset="1" style="stop-color:#52AC62"/>
			</linearGradient>
			<rect x="327.78" y="94.298" style="fill:url(#SVGID_3_);" width="1388.171" height="1388.172"/>
			<linearGradient id="SVGID_4_" gradientUnits="userSpaceOnUse" x1="356.1874" y1="1006.8502" x2="2049.4207" y2="387.8481">
				<stop  offset="0" style="stop-color:#9BBD61"/>
				<stop  offset="1" style="stop-color:#000000"/>
			</linearGradient>
			<path style="fill:url(#SVGID_4_);" d="M1715.951,94.298h-132.28c-53.715,654.269-559.646,881.096-634.141,838.053
				c-121.003-69.914,93.345-379.684-93.776-458.673c-139.683-58.964-382.482,327.26-527.974,576.718v69.853
				C446.965,966.705,606.864,780.303,676.646,786.17c118.119,9.929-126.264,397.66,33.749,463.519
				c153.185,63.05,588.602-111.092,1005.556-312.479V94.298z"/>
			<linearGradient id="SVGID_5_" gradientUnits="userSpaceOnUse" x1="1256.1517" y1="645.6028" x2="833.1875" y2="1192.2924">
				<stop  offset="0" style="stop-color:#375160"/>
				<stop  offset="1" style="stop-color:#52AC62"/>
			</linearGradient>
			<path style="opacity:0.6;fill:url(#SVGID_5_);" d="M1715.951,464.193c-293.229,467.942-758.287,563.104-825.376,504.858
				C756.304,852.476,1098.916,517.285,884.24,373.4c-113.347-75.972-344.953,113.83-556.46,329.281v400.459
				c109.226-186.086,218.946-363.616,244.056-370.919c144.826-42.112-240.65,454.556-56.667,575.488
				c162.648,106.909,674.826,19.288,1200.781-113.544V464.193z"/>
			<path style="opacity:0.2;fill:#82C3BC;" d="M1715.951,1228.435c-496.839,156.375-1004.296,266.337-1233.809,161.072
				C166.36,1244.674,736.042,409.345,756.316,94.298H327.78v1388.171h1388.171V1228.435z"/>
			<linearGradient id="SVGID_6_" gradientUnits="userSpaceOnUse" x1="725.5832" y1="1172.3306" x2="1715.9506" y2="1172.3306">
				<stop  offset="0" style="stop-color:#375160"/>
				<stop  offset="1" style="stop-color:#52AC62"/>
			</linearGradient>
			<path style="opacity:0.6;fill:url(#SVGID_6_);" d="M725.583,1482.469h990.367V862.192
				C1479.644,1148.689,1056.558,1355.149,725.583,1482.469z"/>
		</g>
		<rect x="269.612" y="30.699" style="opacity:0.3;clip-path:url(#SVGID_2_);fill:#4B7FC1;" width="1504.505" height="1515.367"/>
		<rect x="269.612" y="30.699" style="opacity:0.4;clip-path:url(#SVGID_2_);fill:#4F87C7;" width="1504.505" height="1515.367"/>
	</g>
</g>
<g>
	<path d="M1421.514,742.271l0.078,1.331c0,0-5.69-0.183-8.039,1.331c0,0-9.475,0.339-11.406,1.619l2.924,4.28l-3.811,1.436
		c0,0-0.965,0.235-1.775,0.235s-21.9,2.043-30.154,9.801c0,0-0.855,0.698-0.855,0.873c0,0,0.606,0.685,1.899,1.497
		c1.293,0.812,8.254,5.884,28.095,5.138c0,0,2.43-0.146,3.776,0.015c1.347,0.159,9.493,0.844,10.839,0.958
		c1.346,0.114,5.408,0.548,6.024,0.548l2.807,3.97c0,0-0.069,1.027,0.137,1.415c0.205,0.388,3.309,4.929,3.309,4.929
		s0.661,1.529,2.419,1.529c1.757,0,13.967,0.261,17.083-0.004c3.116-0.265,4.011-0.265,4.011-0.265l7.028,5.702l-7.436,0.148
		l0.241-2.635l-1.41,2.653c0,0-1.837,0.26-1.837,0.817c0,0.557,1.614,0.798,1.614,0.798l0.872,2.671l0.186-1.595
		c0,0,0.594,0.557,1.632,0.557c1.039,0,3.804,0,3.804,0s0.575,0.798,1.558,0.798l-4.36,1.948l0.093,0.241l0.761,0.148
		c0,0-0.371,0.519-0.111,0.946c0.259,0.427,0.63,0.649,1.651,0.649s11.985-0.334,11.985-0.334l32.677,25.855
		c0,0-0.677,0.819-0.173,0.954c0.504,0.135,1.781,0,1.781,0s1.076,0.303,1.983,0.303c0.907,0,1.579-0.134,1.865-0.958
		c0.286-0.823,0.622-2.168,0.622-3.68c0-1.513,0.101-2.554-0.336-2.991c-0.437-0.437-14.113-16.518-14.113-16.518l-9.659-13.839
		l7.232,5.174l-0.191,0.191l-1.279,0.161l17.845,13.141c0,0,1.999,1.353,2.263-0.176c0.265-1.528-0.058-3.146-0.058-3.146
		l-15.258-17.816l0.53-0.265c0,0-0.706-1.176-2.469-2.469l24.316-19.611c0,0,0.822,0.157,1.19-0.211c0,0,0.215-0.291,0.044-0.462
		l0.242-0.242c0,0,1.1,0.011,1.32-0.319c0.221-0.33-0.143-0.495-0.143-0.495l0.11-0.11l0.869-0.043c0,0,0.968-0.176,0.968-0.704
		c0-0.528,0-0.891-1.287-0.891c-1.287,0-3.366,0-3.366,0s-1.309-0.131-2.343,0.803c0,0,0.451,0.616,1.056,0.693l-31.413,19.021
		l-0.564-0.199c0,0,1.447-1.125,1.547-1.761c0,0,2.041-1.054,1.923-2.994c-0.117-1.94-1.656-3.061-1.656-3.061
		s-1.201-3.844-8.835-4.391c0,0,0.063-0.209,0.453-0.398c0.39-0.189,2.032-1.117,2.1-2.907c0.067-1.79-1.198-3.015-1.682-3.243
		c0,0-1.022-2.746-4.347-3.661l1.125-1.124l-2.039-2.254l2.638-2.288h0.377l11.712-9.544l-0.365-0.365h0.497l8.62-6.928
		c0,0,0.882,0.118,1.13-0.131c0,0,0.102-0.223-0.131-0.547l0.385-0.385c0,0,0.943,0.122,1.176-0.112
		c0.234-0.233-0.112-0.639-0.112-0.639l0.122-0.122c0,0,0.618-0.182,0.7-0.263c0.081-0.081-4.542-1.419-4.542-1.419
		s-2.23-0.557-2.504-0.041c0,0-0.071,0.264,0.375,0.375c0.446,0.112,1.835,0.456,1.835,0.456l-26.521,13.709l-3.705-6.265
		c0,0-0.243-0.451-0.779-0.831c-0.536-0.381-2.807-2.243-4.189-2.92c-1.382-0.677-2.13-1.03-2.242-0.169l0.409,0.169l-0.254,11.326
		l1.989,0.494v2.13l-2.341-0.733l-11.156-15.971l-0.199-0.332l-7.757-13.625c0,0,0.073-0.15-0.031-0.381
		c-0.104-0.231-0.636-0.658-0.636-0.658s-0.312-0.612-0.578-0.878c-0.266-0.266-3.701-3.044-4.688-3.718
		c-0.987-0.673-5.748-4.605-8.035-2.694v0.141c0,0-1.425,0.078-1.425,0.58c0,0.501,1.519,0.501,1.519,0.501
		s-0.132,15.562,1.559,25.308l-9.959-1.261c0,0-0.81-0.27-1.484-0.27c-0.673,0-1.805-0.026-1.805,0.397
		c0,0.423,0.596,1.01,1.045,1.105s1.78,0.234,1.952,0.234c0.173,0-0.838,0.328,0.069,1.002c0.907,0.674,4.5,1.019,5.675,1.166
		c0,0,0.449,0.734,1.209,0.968l-4.25,1.447c0,0,0.128,0.183,0.458,0.183c0,0-0.33,0.22-0.036,0.733
		c0.293,0.513,0.733,0.733,2.18,0.861C1417.348,741.698,1421.514,742.271,1421.514,742.271z"/>
</g>
<path style="fill:#0E2F2E;" d="M363.073,989.787c5.651,3.656,31.746,4.654,37.397,5.651c5.651,0.997,1.662,5.651-8.975,7.313
	c-10.638,1.662-15.125,1.662-16.122,3.99c-0.997,2.326,9.973,9.474,16.954,9.307c6.981-0.166,8.643-3.491,14.128-2.493
	c5.485,0.998,9.308-3.324,13.131-3.324s6.15,3.49,10.803-0.166c4.654-3.657,11.635-2.826,12.799-0.499
	c1.163,2.327,10.139,3.158,17.785-0.166c-7.979,8.145-15.624,22.937-31.747,30.749c-16.123,7.812-30.251,4.986-36.899,10.97
	s-8.477,7.147-8.477,9.973c0,2.826,11.302,4.322,20.61,3.989c9.307-0.332,32.079-2.327,45.874-15.956
	c-10.305,11.635-14.792,21.109-14.792,21.109s20.444-9.474,29.585-18.283c9.142-8.809,13.629-13.629,15.292-12.632
	c1.662,0.997,2.992,6.815,13.131,3.989c-5.983,10.139-8.975,19.447-20.942,26.927c-11.967,7.48-21.275,19.114-30.583,24.599
	c-9.307,5.485-25.597,17.12-47.536,17.286c-6.806,0.052-12.235,0.167-16.702,0.272l42.881,53.794
	c3.16-2.604,6.398-6.031,6.398-6.031s-0.936,4.591-3.495,9.673l8.309,10.423c0.279-0.106,0.559-0.213,0.837-0.317
	c9.806-3.656,42.55-29.752,42.55-29.752s-8.969,24.414-35.705,39.707l157.598,197.708c38.514,28.804,79.981,53.877,123.893,74.634
	c189.442-0.01,414.817-0.303,618.183-0.656c43.883-20.858,85.314-46.03,123.783-74.93l188.433-236.923
	c-6.557-2.743-8.495-3.457-18.908-1.09l5.763-5.208c0,0-12.522-6.981-25.487-12.632c-12.964-5.651-19.058-12.964-19.058-12.964
	s5.318-7.646,9.751-8.865c4.432-1.219,9.751-4.765,10.97-12.965c1.219-8.2,4.986-15.624,1.219-17.618
	c-3.768-1.994-15.513,3.878-22.494,2.659c-6.981-1.219-26.594-13.297-31.691-18.062c-5.097-4.765-15.181-5.208-15.181-5.208
	s0.554-7.202-1.773-9.972c-2.327-2.77,8.422-12.078,12.189-10.749c3.768,1.33,34.35,7.979,47.094-2.105
	c-14.184,1.551-34.794-10.195-34.794-10.195s28.699-2.881,34.905-10.526c6.205-7.646,15.069-15.403,9.418-20.721
	c-5.651-5.319-14.405,4.543-19.28,1.773c-4.876-2.77-17.507-10.637-25.375-11.635c23.824-2.327,47.869-27.813,48.867-32.578
	c0.998-4.765-0.554-9.419,2.881-15.513c3.435-6.094,2.991-15.956,2.991-15.956s-19.446,26.15-43.713,30.638
	c-24.267,4.487-42.551,2.826-54.85-6.648c-12.3-9.474-7.812-27.093-7.812-27.093s9.806,2.493,21.774,2.493
	c-6.815-10.471-13.796-11.469-13.796-11.469s11.635-1.163,8.394-12.383c7.313,4.155,31.83-1.746,38.146-11.718
	c-4.904,0.415-9.308,0.581-9.308,0.581s3.324-1.911,3.657-6.232c0.332-4.322-17.619-13.048-17.619-13.048s0.915-3.407-0.831-5.153
	c-1.745-1.745-4.239-1.994-4.239-1.994s1.081-3.241-3.739-9.225c-4.82-5.984-10.139-6.399-10.139-6.399s-0.084-9.64,0.582-9.723
	c0.665-0.083,2.659,2.825,5.485,1.662c2.826-1.164,2.244-7.812,0.582-15.79c-1.662-7.978-10.804-18.865-13.463-24.017
	c-2.659-5.153-6.565-8.228-6.648-16.871c-0.084-8.643-0.583-13.546-1.745-16.954c-1.164-3.408-4.073-5.485-4.156-10.305
	c-0.083-4.82-2.16-20.195-3.989-20.777c-1.828-0.582-0.748,13.13-2.742,17.452c-1.994,4.322-1.081,14.377-1.247,21.691
	c-0.166,7.313-0.416,14.377-2.244,18.45c-1.828,4.072-18.117,38.311-18.117,38.311s10.554-7.424,13.214-12.521
	c-2.244,11.94-3.823,17.092-3.823,17.092h4.986c0,0-14.876,16.039-21.746,21.358c-6.87,5.319-0.886,24.378-3.656,29.143
	c-2.771,4.765-19.06,2.881-19.06,2.881s8.643,5.097,17.287,6.759c-12.411,4.1-41.442,3.102-49.863-4.986
	c17.175,22.162,37.231,23.381,37.231,23.381s-20.61,4.432-35.237-0.332c10.194,10.194,30.472,19.28,43.326,16.732
	c-3.214,7.978-34.018,35.348-34.018,35.348s12.077-1.108,18.283-7.314c0.332,6.316,1.44,11.303,1.44,11.303s8.643-8.2,14.737-13.74
	c6.095-5.54,26.151-35.126,26.151-35.126s-13.741,38.672-25.929,55.293c-12.189,16.621-44.545,42.772-44.545,42.772
	s7.978,1.219,12.964-1.33c6.538,9.307,25.375,6.205,25.375,6.205s-8.865,17.175-11.026,24.489
	c-2.161,7.313-23.103,21.607-23.103,21.607s12.134-19.612,7.812-22.604c-4.322-2.992-14.627,12.964-32.079,15.125
	c-17.452,2.161-35.237-5.153-35.237-5.153s14.848-10.416,15.07-15.18c0.221-4.765-18.394-9.419-22.827-20.389
	c-4.432-10.97-10.083-28.81-10.083-28.81s15.18,21.054,22.493,25.153c7.314,4.1,16.178,9.641,20.278,11.635
	c4.1,1.995,24.156,1.33,24.156,1.33l-21.497-8.311c0,0,24.156-1.883,24.378-10.416c0.221-8.532-19.613-11.081-33.354-26.927
	c-13.74-15.845-31.137-34.572-31.137-34.572s11.081,3.657,14.073,6.87c2.991,3.213,13.296,4.322,18.505,3.657
	c5.207-0.665,13.629,1.662,19.834-5.43c-7.092,1.441-11.192-0.665-12.189-2.77c-0.998-2.105-8.754-6.316-13.851-8.421
	c-5.097-2.106-7.979-9.086-15.735-17.397c-7.756-8.311-17.729-25.818-17.729-25.818s16.178-1.551,24.71-14.183
	c8.532-12.632,0.111-21.275-1.219-21.275s-8.754,1.773-16.288-1.108c-7.535-2.881-11.746-9.529-15.292-9.419
	c1.33-6.537-5.873-14.294-8.865-17.064c-2.992-2.77-4.322-9.419-3.657-10.859s21.829-2.549,21.829-13.63
	c0-11.08-9.64-18.061-18.616-18.837c-8.975-0.775-5.318-17.507-12.743-24.267c-7.424-6.76-2.659-69.92-9.197-71.36
	c-6.538-1.44-2.549,10.748-9.751,22.826c-7.203,12.078-3.325,22.273-3.657,33.353c-0.333,11.081-5.208,19.503-5.43,26.926
	c-0.221,7.424-6.759,10.416-7.867,16.289c-1.108,5.873,0,8.754-1.995,13.74c-1.995,4.987-18.615,9.973-18.726,14.294
	c-0.111,4.322,6.094,18.505,14.073,19.17c-14.849,3.435-8.2,12.854-14.738,16.289c-6.537,3.435-19.945,8.643-25.264,10.97
	c-5.319,2.327-15.734,10.749-15.624,16.178c0.111,5.429,14.405,9.086,14.405,9.086l-13.519,12.743c0,0,14.184-2.992,22.827-7.203
	c8.643-4.21,20.388-1.773,20.388-1.773s-10.194,17.286-22.605,25.486c-12.411,8.2-11.455,15.088-22.327,17.064
	c-7.313,1.33-11.967-0.498-19.114,4.987s-20.611,19.281-24.6,19.281c-3.989,0-15.956,0.332-23.768,12.465
	c12.133-5.817,20.776-6.482,27.093-1.163l-13.297,14.128c0,0,11.635-5.818,21.94-9.308c10.305-3.49,17.785-9.142,30.417-7.313
	c-4.655,11.136-13.796,26.76-21.608,33.575c-7.812,6.814-25.597,18.284-32.079,28.921c13.962-7.812,22.439-12.466,28.589-12.466
	s27.259-8.145,41.22-20.943c13.962-12.798,36.234-38.395,36.234-38.395s-3.324,21.607-10.804,35.569
	c-7.48,13.962-15.956,18.284-19.447,28.256c-3.49,9.973-16.954,17.452-20.61,22.272c-3.656,4.821-15.956,9.142-20.61,20.444
	c12.632-5.817,50.695-5.984,50.695-5.984s-28.589,17.785-49.033,30.916c-20.444,13.131-43.88,17.784-51.193,16.954
	c-7.313-0.832-29.752,1.329-37.065,6.648c11.635,0.332,18.117,0.665,21.275,5.318c3.158,4.654,7.479,0.831,14.294,3.823
	c6.815,2.992,17.12,3.823,35.736-0.664c18.616-4.488,44.711-9.309,44.711-9.309s-30.749,22.439-47.038,23.769
	c-16.289,1.33-33.907-1.496-39.226,1.163c4.487,7.978,12.3,9.308,19.114,10.139c6.814,0.831,17.286,7.48,17.286,7.48l-15.79,7.812
	c0,0,9.973,2.161,28.256-1.496c18.283-3.657,27.924-9.474,27.924-9.474s-1.551,9.973-8.532,15.18
	c-6.981,5.208-12.299-3.768-22.605,4.764c-10.305,8.532-15.845,2.217-19.834,4.876c-3.989,2.659-12.41-3.768-20.056,0.665
	c-7.646,4.432-12.411,13.74-13.741,20.222c-1.33,6.482,1.828,5.983-1.994,12.133s-7.646,9.973-15.956,12.3
	c-8.311,2.327-10.804,12.964-16.455,13.297c-5.651,0.333-15.292,0.831-19.115,1.994c10.305-10.305,11.801-30.915,11.801-30.915
	s-15.956,17.12-17.951,22.937c4.986-16.787-2.659-70.972-2.659-70.972s-7.48,28.423-12.466,50.196
	c-4.986,21.774-11.136,38.894-11.136,38.894s-11.469,10.139-13.63,10.139c-2.161,0-2.909-2.909-5.485-2.161
	c-2.577,0.747-4.82,16.122,4.487,25.929c-6.925,7.59-17.452,8.477-20.555,6.593s-15.956-2.881-19.502-4.654
	c-3.546-1.773-20.444-0.776-28.256,2.05c-7.812,2.826-17.286,3.048-19.17,0.61c-1.884-2.438-15.513-1.109-20.832-2.327
	c-5.318-1.219,2.438-9.751,9.197-13.63c6.759-3.878,7.313-19.391,4.432-22.162c-2.881-2.77-21.054,1.551-23.048-2.327
	c-1.994-3.878,15.292-8.089,19.503-7.645c4.211,0.443,25.375-1.441,25.375-1.441s-10.748-6.316-18.283-7.203
	c8.421-3.213,12.743-16.732,12.853-21.94c0.111-5.208,18.948-19.502,28.477-44.212c-13.961,11.524-42.772,36.788-64.711,33.907
	c23.717-5.088,42.107-30.251,42.107-30.251s-29.696,19.059-46.871,11.967c-17.176-7.092-19.613-5.762-19.613-5.762
	s3.934-7.674,10.748-9.335c6.815-1.662,8.56-9.474,5.485-12.882c-3.075-3.407-10.637-4.405-12.299-6.732
	c-1.662-2.327,14.793-0.415,16.621-2.908c1.828-2.493,11.303-1.828,15.541-0.498c4.238,1.33,14.377-3.324,14.377-3.324
	s-3.989-4.405-11.053-6.649c-7.064-2.244-6.316-4.571-5.901-5.235c0.415-0.665,6.4-0.665,12.965-2.826
	c6.566-2.161,13.38-11.552,13.38-11.552s-13.103,4.654-26.067,3.324c-12.965-1.33-19.17-3.324-21.054-5.54
	c-1.884-2.216-5.873-2.105-5.873-2.105s0.139-4.405-2.77-8.56c-2.908-4.155-10.555-5.9-10.139-9.225
	c0.415-3.324,10.638-2.409,15.208-11.967c4.571-9.557-4.986-13.879-9.142-17.535c-4.155-3.657-9.225-8.809-9.225-8.809
	s17.037,4.82,26.178,0.332c-8.892-2.853-23.158-13.291-27.508-18.366c-3.989-4.654-2.992-20.444-2.659-33.409
	c0.332-12.964,4.321-57.842,3.324-57.842c-0.997,0-6.15,23.436-7.646,32.743c-1.496,9.308-6.482,15.624-7.646,19.614
	c-1.163,3.989,1.164,16.122-2.826,21.773c-3.989,5.651-18.948,13.131-18.782,15.125c0.166,1.995-8.643,5.035-8.643,5.035
	s17.12,3.041,22.273,0c5.152-3.041,2.659,7.431,0.332,10.422c-2.326,2.992-4.322,9.64-5.153,15.957
	c-0.831,6.316-7.147,3.324-10.139,7.812c-2.991,4.488-5.651,5.319-5.651,7.147s8.809,3.656,9.64,6.981
	c0.831,3.324-6.538,16.012-13.741,19.447c-7.202,3.435-16.067,5.984-16.842,10.195c-0.776,4.211,2.548,8.2,2.548,8.2
	s0.555,6.427,4.876,6.538c4.322,0.111-18.616,5.43-26.483,1.33s-3.546,10.194,0.997,13.075c4.543,2.881,5.54,7.646,10.638,9.862
	c5.097,2.217,14.073-0.554,14.073-0.554s-5.097,22.051-8.975,21.276c-3.878-0.776-8.754-8.089-12.189-14.959
	c-3.435-6.87-8.532-14.848-12.299-17.508c-3.768-2.659-16.399-26.704-17.286-34.572c-0.887-7.868-5.762-23.713-5.762-23.713
	s14.183,15.513,21.829,18.172c7.646,2.659,18.727-0.776,18.727-0.776s-11.635-6.427-18.505-10.638
	c10.637,4.211,40.556-10.749,40.556-10.749s-15.735-2.659-25.486-1.662c1.551-3.324,35.379-12.388,37.12-26.372
	c-10.859-0.997-26.704,4.765-26.704,4.765s-0.332-3.324-6.981-4.654c-6.648-1.33-19.835-3.989-24.821-10.97
	c-4.987-6.981-18.727-30.472-15.956-35.902c2.77-5.429,8.089-10.194,6.87-16.178c4.654,7.092,16.731,5.873,22.383,5.984
	c5.651,0.111,14.184-0.443,23.159-4.876c-10.97-2.548-31.137-4.875-31.137-4.875s18.172-0.221,26.04-6.981
	c7.867-6.759,13.85-15.402,13.85-15.402l-21.053,5.43c0,0,1.994-8.532-1.108-9.529c-3.103-0.997-15.624,1.219-22.937-10.305
	c-7.313-11.524-14.073-21.829-14.073-21.829l1.995-6.981c0,0,10.859,4.986,17.729,1.441c6.87-3.546,12.854-11.635,12.854-11.635
	s21.497-5.097,21.718-16.621c-0.221-3.324-15.402-0.665-20.499-1.108c-5.097-0.443-13.961-7.978-14.959-11.856
	c-0.997-3.878,0.153-8.562-2.326-10.083c-2.438-1.496-9.197-0.222-10.859-1.939c-1.662-1.717-7.922-10.914-7.922-10.914
	s8.034,6.15,13.74,4.765c5.707-1.385,9.973-3.601,9.973-3.601s-5.596-9.696-14.46-12.909c-8.865-3.213-6.759-5.485-4.598-5.707
	c2.161-0.222,7.369-1.441,9.086-6.593c1.717-5.152,3.13-9.723-2.189-14.627c-5.319-4.903-6.565-9.723-5.236-12.632
	c1.33-2.909-0.333-13.214-3.49-16.871c-3.158-3.656-3.657-13.297-3.573-17.618c0.083-4.322-2.909-20.112-2.909-20.112
	s-4.377,23.02-4.931,28.672s0.332,14.183-3.657,19.724c-3.989,5.54-6.981,7.535-5.54,15.846c1.441,8.31-1.773,14.626-6.427,19.945
	c-4.654,5.319-6.094,11.968-3.545,14.959c2.549,2.992,9.862,2.106,11.524,4.544c1.662,2.438,1.44,15.734-3.768,19.502
	c-5.208,3.768-15.291,12.411-32.023,13.075c-16.732,0.665-21.497,5.873-25.375,2.992c-3.878-2.881-6.205-5.319-9.086-1.662
	c-2.881,3.656-13.076,14.626-13.519,19.17c-0.443,4.543,9.862,3.213,13.408,0.443c3.546-2.77,2.77,4.876,13.297,2.216
	c-4.765,7.314-13.74,18.616-19.059,18.505c-5.319-0.111-6.648-0.443-6.427,2.881c0.221,3.324,4.875,6.205,12.078,4.876
	c7.203-1.33,25.375-4.322,29.253-10.527c3.878-6.205,4.875-7.646,6.205-7.535c1.33,0.111,0,3.324,2.771,5.873
	c2.77,2.548,13.961,1.329,13.961,1.329s-24.267,17.84-41.996,22.716c8.2,3.103,18.616-0.111,18.616-0.111
	s-17.951,11.302-26.151,11.302s-8.532,3.435-15.514,0.554c-6.981-2.881-24.932-11.746-28.145-11.524
	c-3.213,0.222,2.327,8.754,5.762,11.081c3.435,2.327,3.878,2.438,6.648,6.537c2.77,4.1,7.978,7.092,13.408,7.646
	c5.43,0.554,23.491,0.443,24.931,2.105c1.441,1.662-13.131,13.463-20.942,13.131c-7.812-0.332-18.782-0.498-19.779,1.828
	c-0.998,2.327,8.477,3.823,10.139,6.316c1.662,2.493,9.308-0.665,12.632,0c3.324,0.664,7.646,2.992,13.131-0.333
	c5.485-3.324,8.477-3.657,13.297-3.657c4.82,0,16.621-9.141,16.621-9.141s-7.479,10.638-12.299,14.294
	c-4.82,3.657-13.463,8.975-13.463,8.975s18.616-1.662,38.395-17.951c-1.164,11.967-2.659,29.919-29.752,49.698
	c-27.093,19.779-86.098,17.951-93.578,16.621c8.145,8.144,15.458,10.471,17.619,16.289c-9.972,1.163-15.956,0.166-15.956,0.166
	s13.131,7.645,28.256,5.651c15.125-1.995,26.261-9.474,26.261-9.474s-14.626,17.784-25.929,19.945
	c-11.302,2.161-34.572-0.831-34.572-0.831s11.302,11.801,19.28,13.796c7.978,1.995,10.804,3.823,13.962,5.817
	c3.158,1.994,33.907-9.141,33.907-9.141l-21.94,14.793c0,0,21.607,0.831,38.893-13.796c17.286-14.626,27.591-25.43,29.419-24.101
	c1.828,1.33-10.305,19.447-30.583,35.902c-20.278,16.455-43.381,29.253-66.651,29.752c8.145-6.648,19.89-11.413,22.993-18.727
	c-11.524,4.765-30.805-4.543-30.805-4.543l9.751-3.656c0,0-61.277-20.943-65.598-41.886c-4.322-20.942-7.979-22.383-7.979-29.918
	c0-7.535-4.321-12.632-4.321-12.632s18.837,12.743,27.48,13.186c8.643,0.443,31.137-5.491,31.137-5.491l-15.291-5.589
	c0,0,32.023,1.995,44.877-7.535l-22.161-0.111c0,0,11.192-5.984,16.288-5.873c5.097,0.111,9.419-4.432,11.413-7.424
	c1.994-2.992,6.316-10.637,2.881-12.632c-3.435-1.995-18.283,4.764-29.032,6.205c-10.748,1.441-25.042-2.881-36.567-7.978
	c-11.524-5.097-13.629-7.757-13.629-7.757s10.416,2.327,21.164,0c10.748-2.327,16.4-11.857,24.046-14.626
	c7.645-2.77,7.535-4.765,11.192-5.873c3.657-1.108,16.732-12.411,16.732-12.411s-21.497,11.524-38.451,8.421
	c-16.954-3.102-22.162-1.33-27.924-5.429c-5.762-4.1-13.74-8.2-18.061-11.413c-4.322-3.214-10.084-9.308-15.735-17.397
	c-5.651-8.089-10.083-17.729-9.308-20.389c0.776-2.659,2.992,0.886,6.649,1.773c3.657,0.886,8.643-3.546,12.854-2.659
	c4.211,0.887,8.421,6.87,14.073,7.424c5.651,0.554,12.743-3.545,17.286-1.662c4.543,1.884,18.394,3.324,32.467,0.11
	c-9.751-6.316-15.846-5.651-15.846-5.651s21.718-7.091,29.253-14.737c-11.192-0.333-26.372,6.205-34.683,5.651
	c-8.311-0.554-29.142-12.41-29.142-12.41s19.059-6.87,23.159-13.63c4.1-6.759,13.851-25.929,6.205-29.696
	c-7.646-3.768-19.946,9.53-32.799,4.654c-12.854-4.875-30.14-17.009-32.966-18.837c-2.825-1.828-0.997-6.316,6.981-8.643
	c7.979-2.327,11.967-5.319,14.793-8.81c2.826-3.49-0.415-7.812,0.083-12.133c0.499-4.322,1.33-10.056-0.748-10.72
	c-2.078-0.665-12.216,0.083-15.79-1.828c-3.573-1.912-11.884-4.488-12.465-5.734c-0.582-1.247,0.914-3.241,1.828-5.651
	c0.914-2.41-0.665-14.128-0.665-14.128s9.641,5.734,13.463,6.316c3.823,0.582,13.463-5.734,13.463-5.734l-14.793-6.565
	c0,0,19.31-8.386,18.117-15.541c-0.332-1.994-7.563,1.745-14.128-3.158c-6.565-4.903-14.543-7.728-14.71-14.211
	c-0.166-6.482-5.236-7.812-4.072-16.704c1.164-8.892-2.41-9.307-2.327-14.959c0.083-5.651-1.662-10.388-2.576-14.045
	c-0.915-3.657-1.136-32.799-1.136-32.799c-1.552,7.757-6.87,22.827-7.092,30.583c-0.222,7.757,2.438,13.297,0,19.281
	c-2.438,5.984-8.311,13.408-7.867,17.619c0.443,4.21-4.321,7.313-4.875,11.192c-0.554,3.878-3.213,8.532-9.862,12.964
	c-6.649,4.432-13.075,4.21-13.408,6.205c-0.332,1.994,0.776,3.878,8.976,7.535c-11.967,5.319-25.707,6.759-25.707,6.759
	s12.632,2.881,18.505,2.327c5.873-0.554,20.832-1.108,26.151-4.986c1.552-1.109,3.435-0.222,1.994,2.77
	c-1.44,2.991-10.305,12.078-18.837,15.734c-8.532,3.657-9.751,8.311-8.864,11.192c0.887,2.881,5.429,4.211,9.308,2.77
	c3.878-1.44,5.983-1.884,7.867-1.44c1.884,0.443,5.43,0.554,7.978-1.441c1.219,4.322,1.995,10.748-4.765,14.405
	c-6.759,3.657-17.175,4.765-20.721,7.203c-3.545,2.438-40.556,1.219-45.21-0.776c8.532,8.754,21.386,9.53,21.386,9.53
	s-4.654,5.762-13.297,8.975c-8.643,3.214-21.718-1.329-24.821,0.997c-3.103,2.327,2.548,10.305,6.87,13.962
	c4.321,3.656,11.303,3.102,13.297,4.654c1.994,1.551,10.416,2.992,10.416,2.992s-6.094,6.316-15.07,7.868
	c-8.975,1.551-10.748,6.759-10.194,8.754c0.554,1.995,7.424,5.762,12.632,6.538c5.208,0.776,10.748-2.105,16.399-0.997
	s15.065,0,16.785-1.773c1.72-1.773,4.49-6.205,6.596-5.762c2.105,0.443,7.424,9.973-0.111,19.17
	c-7.535,9.197-39.669,35.347-94.741,27.369c8.532,9.973,34.461,10.638,34.461,10.638s-14.627,4.82-19.945,8.643
	c15.292,5.817,26.261-0.665,32.411,0.665c6.15,1.329,14.793,0,20.112,2.493c5.319,2.493,13.796,3.158,17.12,0
	c3.324-3.158,9.973,0,15.125,0.332c5.152,0.332,12.465-6.815,12.465-6.815s-4.654,12.134-14.461,23.602
	c-9.806,11.469-44.212,23.935-72.8,24.101c-28.589,0.166-37.398-2.161-38.062,1.496C348.445,978.65,357.421,986.13,363.073,989.787z
	"/>
<g>
	<path style="fill:#FFFFFF;" d="M395.503,1356.426c-0.484,142.839-0.97,285.677-1.455,428.516
		c-29.718,3.647-59.41,7.582-89.07,11.807c0.068-23.526,0.135-47.05,0.203-70.576c-27.893,3.334-55.765,6.884-83.61,10.648
		c-10.514,25.618-21.018,51.535-31.504,77.771c-33.118,5.57-66.194,11.502-99.215,17.796
		c67.248-171.473,135.293-328.623,203.549-475.962C328.101,1356.425,361.803,1356.425,395.503,1356.426z M272.707,1614.495
		c10.932-0.948,21.865-1.872,32.802-2.775c0.075-25.979,0.15-51.958,0.224-77.937
		C294.716,1560.389,283.706,1587.285,272.707,1614.495z"/>
	<path style="fill:#FFFFFF;" d="M457.078,1777.938c-20.395,2.234-34.173-4.4-41.372-20.228c-7.069-15.419-7.059-37.505,0.037-65.873
		c18.074-72.696,36.161-144.259,54.249-214.843c0.513-2.159,0.585-3.626,0.206-4.395c-0.376-0.767-1.276-1.231-2.671-1.387
		c-9.619,0.281-19.239,0.569-28.858,0.866c9.818-38.85,19.637-77.393,29.454-115.654c39.179,0,78.36,0,117.541,0
		c-23.201,99.317-46.433,199.986-69.677,302.38c14.344-1.003,28.693-1.957,43.044-2.862
		c26.364-101.48,52.709-201.159,79.003-299.517c30.133,0,60.265,0,90.398,0c-27.458,107.352-54.996,215.801-82.583,325.931
		c-14.199,53.372-39.329,81.586-75.328,84.641C532.675,1770.178,494.857,1773.825,457.078,1777.938z"/>
	<path style="fill:#FFFFFF;" d="M1012.265,1380.059c7.276,15.764,7.543,36.021,0.801,60.737
		c-10.621,41.93-21.26,83.826-31.912,125.726c-7.536,26.347-21.45,43.512-41.777,51.619c4.656,44.201,9.318,88.401,13.989,132.605
		c-31.037,0.031-62.073,0.375-93.104,1.031c-2.898-42.337-5.792-84.69-8.68-127.064c-10.35,0.162-20.7,0.347-31.05,0.557
		c-11.438,42.738-22.885,85.612-34.349,128.666c-29.614,1.101-59.219,2.486-88.81,4.155c12.717-48.448,25.421-96.592,38.112-144.484
		c13.203-49.023,26.388-97.778,39.557-146.328c0.516-2.037,0.582-3.423,0.202-4.161c-0.378-0.918-1.339-1.37-2.867-1.354
		c-10.778,0.115-21.555,0.24-32.334,0.376c9.837-35.36,19.667-70.59,29.486-105.713c69.185,0,138.37,0,207.557,0
		C993.648,1357.158,1005.375,1365.033,1012.265,1380.059z M863.636,1463.506c-5.122,18.746-10.247,37.511-15.375,56.295
		c18.762-0.185,37.527-0.322,56.291-0.412c5.244-18.712,10.485-37.412,15.724-56.103
		C901.394,1463.328,882.514,1463.401,863.636,1463.506z"/>
	<path style="fill:#FFFFFF;" d="M1291.937,1381.049c7.185,15.505,7.441,36.154,0.769,61.716
		c-19.956,79.8-39.942,158.757-59.973,237.109c-13.788,51.691-38.698,76.221-74.772,74.634
		c-40.221-1.737-80.461-2.949-120.707-3.637c-20.348-0.346-34.24-8.247-41.665-23.876c-7.042-14.884-7.114-35.11-0.22-60.71
		c21.257-77.605,42.456-155.196,63.601-233.034c6.471-24.017,16.782-42.815,30.905-56.408
		c14.133-13.589,30.425-20.416,48.897-20.417c36.822,0,73.646,0,110.468,0C1270.007,1356.419,1284.237,1364.592,1291.937,1381.049z
		 M1144.911,1463.993c-16.269,60.443-32.568,120.605-48.897,180.607c16.613,0.361,33.225,0.787,49.834,1.278
		c16.297-60.141,32.565-120.522,48.805-181.266C1178.073,1464.381,1161.493,1464.175,1144.911,1463.993z"/>
	<path style="fill:#FFFFFF;" d="M1581.684,1382.577c7.316,17.494,7.634,40.045,0.97,67.23
		c-10.49,46.129-20.975,91.804-31.454,137.061c-7.412,28.416-21.234,46.087-41.441,53.187c4.812,48.286,9.624,96.765,14.43,145.443
		c-30.862-3.804-61.752-7.295-92.664-10.474c-3.091-45.194-6.182-90.287-9.274-135.283c-10.324-0.706-20.653-1.39-30.98-2.049
		c-11.193,43.747-22.391,87.179-33.6,130.336c-29.545-2.56-59.108-4.837-88.687-6.829c12.441-47.259,24.868-94.77,37.283-142.586
		c12.921-48.926,25.828-98.176,38.725-147.813c0.499-2.084,0.566-3.511,0.18-4.286c-0.381-0.962-1.346-1.459-2.873-1.492
		c-10.773-0.238-21.544-0.466-32.317-0.685c9.637-35.772,19.269-71.734,28.894-107.91c69.186,0,138.371,0,207.556,0
		C1563.001,1357.221,1574.759,1365.892,1581.684,1382.577z M1433.502,1469.906c-5.027,19.694-10.055,39.316-15.083,58.868
		c18.736,0.776,37.47,1.598,56.195,2.468c5.154-19.803,10.306-39.687,15.461-59.654
		C1471.221,1470.996,1452.361,1470.435,1433.502,1469.906z"/>
	<path style="fill:#FFFFFF;" d="M1825.283,1356.426c0,158.654,0,317.308,0,475.962c-29.486-5.621-59.013-10.953-88.578-15.995
		c-0.037-24.575-0.073-49.149-0.109-73.724c-27.817-3.98-55.663-7.745-83.534-11.296c-10.415,22.521-20.826,44.818-31.238,66.909
		c-33.21-4.809-66.455-9.256-99.734-13.339c67.287-134.524,134.497-275.859,202.088-428.516
		C1757.88,1356.425,1791.58,1356.425,1825.283,1356.426z M1703.661,1619.948c10.923,1.032,21.841,2.085,32.758,3.162
		c-0.04-27.139-0.079-54.276-0.119-81.415C1725.411,1568.086,1714.532,1594.163,1703.661,1619.948z"/>
</g>
<path style="fill:#0E2F2E;" d="M314.446,1869.912c29.089-4.144,58.623-8.059,87.781-11.636l49.848-6.117
	c4.032-0.075,8.154-0.331,12.271-0.783c37.041-4.033,74.655-7.66,111.854-10.785l32.791-3.571l92.168-5.204
	c28.973-1.635,58.417-3.013,87.518-4.095l36.252-1.349l36.755-0.778c30.386-0.644,61.255-0.985,91.751-1.016l74.536-0.074
	c0,0-0.008-0.078-0.02-0.191c2.686,0.203,5.404,0.333,8.157,0.38c39.521,0.677,79.543,1.882,118.903,3.582
	c2.092,0.093,4.158,0.139,6.208,0.139l22.139,1.001l81.116,5.463c29.042,1.957,58.45,4.22,87.402,6.73l36.302,3.146l36.481,3.751
	c30.308,3.116,61.031,6.588,91.319,10.321l50.933,6.277c15.136,2.037,30.266,4.141,45.295,6.317l49.175,7.12l8.274,1.219
	l55.768,9.51c28.994,4.945,58.36,10.247,87.289,15.762l79.719,15.197v-551.43v-72.83v-4.668H251.792v4.668h-0.287l-18.029,38.92
	c-74.625,161.084-141.724,317.986-205.134,479.672l75.084,90.47c32.365-6.169,65.263-12.071,97.774-17.538l37.205-6.256
	L314.446,1869.912z"/>
<path style="fill:#0E2F2E;" d="M1334.112,1217.259c-4.09-5.031-8.186-10.044-12.283-15.039l-6.625-8.077l-10.248-2.039
	c-11.973-2.381-24.173-4.645-36.254-6.724l-1.501-0.259v-0.361l-24.779-3.79c-17.612-2.693-35.488-5.084-53.135-7.108l-32.518-3.731
	v0.387c-9.835-0.901-19.772-1.716-29.732-2.419v-0.277l-20.282-1.032l-19.566-1.205v-0.023l-0.579-0.013l-3.429-0.211v0.134
	l-17.024-0.384l-22.809-0.749v0.328c-2.413-0.028-4.83-0.061-7.229-0.077l-0.055-0.143l-10.248,0.076l-19.499-0.124v0.302
	c-1.504,0.021-3.002,0.054-4.504,0.08v-0.336l-22.986,0.893l-20.857,0.591v0.289c-2.617,0.126-5.237,0.252-7.83,0.392l-0.061-0.154
	l-11.28,0.773l-17.842,0.979v0.268c-1.449,0.108-2.908,0.229-4.362,0.341v-0.375l-24.789,2.482l-6.651,0.596l0.053-0.429
	l-11.602,1.464l-0.903,0.081v0.033l-19.386,2.446l-14.009,1.661l-0.022-0.182l-5.221,0.804l-1.06,0.126v0.037l-16.734,2.576
	l-16.056,2.319l-0.017,0.188c-1.71,0.276-3.421,0.553-5.129,0.834l-0.034-0.352l-24.148,4.527l-14.482,2.57l-0.023,0.169
	c-5.861,1.131-11.736,2.303-17.54,3.499l-26.499,5.46l19.469,152.108l30.631-6.029c10.97-2.159,22.097-4.208,33.073-6.089
	l7.307-1.252l7.311-1.172c10.968-1.758,22.143-3.41,33.219-4.909l11.038-1.493l11.238-1.331c8.241-0.975,16.546-1.883,24.682-2.697
	l6.99-0.7l7.201-0.646c7.41-0.665,14.891-1.275,22.23-1.813l9.337-0.684l9.75-0.578c9.259-0.547,18.657-1.007,27.932-1.368
	l7.109-0.275l7.12-0.2c7.395-0.207,14.893-0.357,22.289-0.447l9.487-0.114l9.632,0.019c9.214,0.019,18.619,0.133,27.957,0.342
	l6.934,0.155l7.301,0.24c8.229,0.27,16.567,0.62,24.781,1.038l6.932,0.353l7.293,0.447c8.077,0.496,16.403,1.083,24.747,1.747
	l23.485,1.866l23.815,2.733c16.884,1.937,33.941,4.217,50.698,6.779l15.096,2.307l0.041,0.049l10.588,1.824
	c11.306,1.948,22.787,4.077,34.124,6.327l13.313,2.644l10.601-8.478c4.168-3.333,8.33-6.648,12.492-9.943l11.071-8.765v-96.041
	L1334.112,1217.259z"/>
<g>
	<path style="fill:#FFFFFF;" d="M769.026,1212.387c1.418,14.767,2.836,29.537,4.255,44.309c0.266,5.051,0.532,10.102,0.797,15.153
		c0.089,1.416,0.178,2.832,0.266,4.248c0.177,3.01,0.355,6.02,0.532,9.03c0.132-2.307,0.265-4.612,0.399-6.919
		c0.177-2.226,0.355-4.451,0.532-6.676c0.266-5.149,0.532-10.297,0.798-15.446c1.996-15.397,3.992-30.79,5.989-46.178
		c10.426-1.849,20.868-3.579,31.323-5.189c1.779,14.76,3.561,29.523,5.341,44.289c0.401,5.039,0.801,10.08,1.203,15.12
		c0.133,2.173,0.266,4.346,0.4,6.519c0.134,2.262,0.268,4.524,0.401,6.786c0.134-2.302,0.267-4.604,0.4-6.906
		c0.179-2.218,0.355-4.438,0.534-6.658c0.222-5.133,0.447-10.266,0.669-15.398c1.425-15.245,2.85-30.487,4.275-45.726
		c8.151-1.176,16.311-2.279,24.477-3.31c-4.062,32.758-8.121,65.535-12.179,98.328c-11.324,1.531-22.635,3.201-33.928,5.013
		c-1.824-15.011-3.645-30.019-5.467-45.022c-0.312-4.244-0.622-8.489-0.934-12.734c-0.133-1.32-0.266-2.64-0.399-3.961
		c-0.223-2.692-0.446-5.384-0.668-8.076c-0.178,2.089-0.355,4.177-0.533,6.266c-0.133,2.034-0.267,4.068-0.399,6.103
		c-0.355,4.355-0.711,8.712-1.067,13.067c-1.822,15.609-3.643,31.218-5.464,46.834c-11.278,1.933-22.539,4.006-33.778,6.219
		c-4.026-31.453-8.051-62.887-12.072-94.305C752.82,1215.501,760.918,1213.908,769.026,1212.387z"/>
	<path style="fill:#FFFFFF;" d="M862.195,1198.143c8.396-0.995,16.799-1.914,25.207-2.756c0,32.246,0,64.491,0,96.736
		c-8.408,0.842-16.811,1.761-25.207,2.756C862.196,1262.634,862.196,1230.389,862.195,1198.143z"/>
	<path style="fill:#FFFFFF;" d="M901.894,1194.012c9.623-0.863,19.253-1.625,28.887-2.287c5.378,13.595,10.757,27.221,16.138,40.879
		c0.941,3.347,1.882,6.696,2.824,10.045c0.897,3.039,1.794,6.08,2.691,9.122c-0.406-3.2-0.813-6.403-1.22-9.603
		c-0.355-2.13-0.711-4.258-1.067-6.387c0-1.298,0-2.597,0-3.894c0-13.786,0-27.571,0-41.357c7.489-0.411,14.979-0.761,22.473-1.051
		c0,32.246,0,64.491,0,96.736c-9.512,0.368-19.022,0.834-28.527,1.396c-5.336-13.574-10.669-27.118-16.001-40.63
		c-1.031-3.411-2.061-6.82-3.09-10.228c-0.583-2.191-1.166-4.381-1.748-6.571c-0.402-1.354-0.805-2.71-1.209-4.063
		c0.268,1.811,0.536,3.622,0.806,5.433c0.179,1.863,0.358,3.725,0.537,5.587c0.403,3.589,0.806,7.175,1.209,10.764
		c0,13.666,0,27.331,0,40.998c-7.571,0.554-15.14,1.172-22.703,1.85C901.895,1258.503,901.895,1226.258,901.894,1194.012z"/>
	<path style="fill:#FFFFFF;" d="M987.16,1188.991c9.65-0.274,19.301-0.445,28.953-0.518c5.386,13.925,10.773,27.88,16.161,41.867
		c0.943,3.406,1.885,6.812,2.829,10.219c0.898,3.094,1.797,6.189,2.694,9.284c-0.407-3.226-0.813-6.45-1.221-9.676
		c-0.356-2.152-0.713-4.303-1.07-6.455c0-1.298,0-2.596,0-3.894c0-13.785,0-27.572,0-41.357c7.498,0.047,14.994,0.156,22.49,0.325
		c0,32.246,0,64.491,0,96.736c-9.516-0.214-19.033-0.331-28.551-0.35c-5.342-13.9-10.685-27.77-16.028-41.609
		c-1.032-3.474-2.065-6.947-3.098-10.419c-0.583-2.227-1.166-4.453-1.749-6.678c-0.405-1.379-0.811-2.757-1.213-4.136
		c0.269,1.827,0.539,3.655,0.808,5.483c0.181,1.873,0.36,3.746,0.539,5.62c0.404,3.613,0.809,7.226,1.213,10.839
		c0,13.666,0,27.332,0,40.998c-7.587,0.091-15.173,0.243-22.758,0.457C987.16,1253.481,987.16,1221.236,987.16,1188.991z"/>
	<path style="fill:#FFFFFF;" d="M1072.54,1189.189c8.436,0.278,16.873,0.631,25.305,1.061c0,32.246,0,64.491,0,96.736
		c-8.432-0.43-16.869-0.784-25.305-1.062C1072.54,1253.68,1072.54,1221.434,1072.54,1189.189z"/>
	<path style="fill:#FFFFFF;" d="M1112.371,1191.067c15.871,0.976,31.73,2.221,47.568,3.739c4.206,4.609,8.411,9.238,12.614,13.886
		c0,13.649,0,27.298,0,40.948c-4.383,3.792-8.767,7.604-13.151,11.437c-7.248-0.692-14.5-1.327-21.757-1.905
		c0,10.137,0,20.277,0,30.414c-8.42-0.67-16.845-1.266-25.275-1.784C1112.371,1255.558,1112.371,1223.313,1112.371,1191.067z
		 M1137.646,1237.736c3.09,0.246,6.18,0.503,9.269,0.77c0-7.815,0-15.632,0-23.447c-3.089-0.267-6.178-0.523-9.269-0.77
		C1137.646,1222.105,1137.646,1229.919,1137.646,1237.736z"/>
	<path style="fill:#FFFFFF;" d="M1185.961,1197.547c17.379,1.994,34.732,4.317,52.046,6.965c0,7.728,0,15.453,0,23.181
		c-8.947-1.369-17.904-2.65-26.869-3.845c0,4.243,0,8.484,0,12.728c8.207,1.094,16.406,2.26,24.599,3.498c0,7.771,0,15.542,0,23.314
		c-8.193-1.24-16.392-2.405-24.599-3.498c0,4.422,0,8.843,0,13.264c8.876,1.183,17.743,2.451,26.602,3.804
		c0,8.084,0,16.168,0,24.251c-17.225-2.633-34.489-4.941-51.779-6.925C1185.961,1262.038,1185.961,1229.793,1185.961,1197.547z"/>
	<path style="fill:#FFFFFF;" d="M1251.486,1219.639c4.089-3.621,8.178-7.223,12.263-10.807c11.857,2.042,23.696,4.237,35.511,6.587
		c4.072,4.964,8.14,9.945,12.206,14.944c0,7.057,0,14.113,0,21.17c-8.22-1.712-16.452-3.348-24.693-4.909c0-4.287,0-8.575,0-12.863
		c-3.456-0.656-6.913-1.297-10.373-1.925c0,18.311,0,36.621,0,54.932c3.415,0.62,6.828,1.254,10.24,1.9c0-6.074,0-12.147,0-18.22
		c-2.127-0.402-4.255-0.801-6.382-1.194c0-7.056,0-14.113,0-21.17c10.42,1.923,20.823,3.965,31.208,6.128c0,15.9,0,31.798,0,47.697
		c-4.198,3.324-8.399,6.668-12.603,10.031c-11.595-2.302-23.211-4.457-34.846-6.462c-4.174-5.007-8.35-9.994-12.529-14.964
		C1251.486,1266.89,1251.486,1243.264,1251.486,1219.639z"/>
</g>
<g>
	<path style="fill:#FFFFFF;" d="M395.503,1356.426c-0.484,142.839-0.97,285.677-1.455,428.516
		c-29.718,3.647-59.41,7.582-89.07,11.807c0.068-23.526,0.135-47.05,0.203-70.576c-27.893,3.334-55.765,6.884-83.61,10.648
		c-10.514,25.618-21.018,51.535-31.504,77.771c-33.118,5.57-66.194,11.502-99.215,17.796
		c67.248-171.473,135.293-328.623,203.549-475.962C328.101,1356.425,361.803,1356.425,395.503,1356.426z M272.707,1614.495
		c10.932-0.948,21.865-1.872,32.802-2.775c0.075-25.979,0.15-51.958,0.224-77.937
		C294.716,1560.389,283.706,1587.285,272.707,1614.495z"/>
	<path style="fill:#FFFFFF;" d="M457.078,1777.938c-20.395,2.234-34.173-4.4-41.372-20.228c-7.069-15.419-7.059-37.505,0.037-65.873
		c18.074-72.696,36.161-144.259,54.249-214.843c0.513-2.159,0.585-3.626,0.206-4.395c-0.376-0.767-1.276-1.231-2.671-1.387
		c-9.619,0.281-19.239,0.569-28.858,0.866c9.818-38.85,19.637-77.393,29.454-115.654c39.179,0,78.36,0,117.541,0
		c-23.201,99.317-46.433,199.986-69.677,302.38c14.344-1.003,28.693-1.957,43.044-2.862
		c26.364-101.48,52.709-201.159,79.003-299.517c30.133,0,60.265,0,90.398,0c-27.458,107.352-54.996,215.801-82.583,325.931
		c-14.199,53.372-39.329,81.586-75.328,84.641C532.675,1770.178,494.857,1773.825,457.078,1777.938z"/>
	<path style="fill:#FFFFFF;" d="M1012.265,1380.059c7.276,15.764,7.543,36.021,0.801,60.737
		c-10.621,41.93-21.26,83.826-31.912,125.726c-7.536,26.347-21.45,43.512-41.777,51.619c4.656,44.201,9.318,88.401,13.989,132.605
		c-31.037,0.031-62.073,0.375-93.104,1.031c-2.898-42.337-5.792-84.69-8.68-127.064c-10.35,0.162-20.7,0.347-31.05,0.557
		c-11.438,42.738-22.885,85.612-34.349,128.666c-29.614,1.101-59.219,2.486-88.81,4.155c12.717-48.448,25.421-96.592,38.112-144.484
		c13.203-49.023,26.388-97.778,39.557-146.328c0.516-2.037,0.582-3.423,0.202-4.161c-0.378-0.918-1.339-1.37-2.867-1.354
		c-10.778,0.115-21.555,0.24-32.334,0.376c9.837-35.36,19.667-70.59,29.486-105.713c69.185,0,138.37,0,207.557,0
		C993.648,1357.158,1005.375,1365.033,1012.265,1380.059z M863.636,1463.506c-5.122,18.746-10.247,37.511-15.375,56.295
		c18.762-0.185,37.527-0.322,56.291-0.412c5.244-18.712,10.485-37.412,15.724-56.103
		C901.394,1463.328,882.514,1463.401,863.636,1463.506z"/>
	<path style="fill:#FFFFFF;" d="M1291.937,1381.049c7.185,15.505,7.441,36.154,0.769,61.716
		c-19.956,79.8-39.942,158.757-59.973,237.109c-13.788,51.691-38.698,76.221-74.772,74.634
		c-40.221-1.737-80.461-2.949-120.707-3.637c-20.348-0.346-34.24-8.247-41.665-23.876c-7.042-14.884-7.114-35.11-0.22-60.71
		c21.257-77.605,42.456-155.196,63.601-233.034c6.471-24.017,16.782-42.815,30.905-56.408
		c14.133-13.589,30.425-20.416,48.897-20.417c36.822,0,73.646,0,110.468,0C1270.007,1356.419,1284.237,1364.592,1291.937,1381.049z
		 M1144.911,1463.993c-16.269,60.443-32.568,120.605-48.897,180.607c16.613,0.361,33.225,0.787,49.834,1.278
		c16.297-60.141,32.565-120.522,48.805-181.266C1178.073,1464.381,1161.493,1464.175,1144.911,1463.993z"/>
	<path style="fill:#FFFFFF;" d="M1581.684,1382.577c7.316,17.494,7.634,40.045,0.97,67.23
		c-10.49,46.129-20.975,91.804-31.454,137.061c-7.412,28.416-21.234,46.087-41.441,53.187c4.812,48.286,9.624,96.765,14.43,145.443
		c-30.862-3.804-61.752-7.295-92.664-10.474c-3.091-45.194-6.182-90.287-9.274-135.283c-10.324-0.706-20.653-1.39-30.98-2.049
		c-11.193,43.747-22.391,87.179-33.6,130.336c-29.545-2.56-59.108-4.837-88.687-6.829c12.441-47.259,24.868-94.77,37.283-142.586
		c12.921-48.926,25.828-98.176,38.725-147.813c0.499-2.084,0.566-3.511,0.18-4.286c-0.381-0.962-1.346-1.459-2.873-1.492
		c-10.773-0.238-21.544-0.466-32.317-0.685c9.637-35.772,19.269-71.734,28.894-107.91c69.186,0,138.371,0,207.556,0
		C1563.001,1357.221,1574.759,1365.892,1581.684,1382.577z M1433.502,1469.906c-5.027,19.694-10.055,39.316-15.083,58.868
		c18.736,0.776,37.47,1.598,56.195,2.468c5.154-19.803,10.306-39.687,15.461-59.654
		C1471.221,1470.996,1452.361,1470.435,1433.502,1469.906z"/>
	<path style="fill:#FFFFFF;" d="M1825.283,1356.426c0,158.654,0,317.308,0,475.962c-29.486-5.621-59.013-10.953-88.578-15.995
		c-0.037-24.575-0.073-49.149-0.109-73.724c-27.817-3.98-55.663-7.745-83.534-11.296c-10.415,22.521-20.826,44.818-31.238,66.909
		c-33.21-4.809-66.455-9.256-99.734-13.339c67.287-134.524,134.497-275.859,202.088-428.516
		C1757.88,1356.425,1791.58,1356.425,1825.283,1356.426z M1703.661,1619.948c10.923,1.032,21.841,2.085,32.758,3.162
		c-0.04-27.139-0.079-54.276-0.119-81.415C1725.411,1568.086,1714.532,1594.163,1703.661,1619.948z"/>
</g>
</svg>
