<svg version="1.1" id="Layer_1" xmlns="http://www.w3.org/2000/svg" x="0" y="0" viewBox="0 0 200 200" xml:space="preserve"><style>.aus_st2{fill:#d40202}.aus_st5{fill:#d20b0a}.aus_st6{fill:#f05050}.aus_st7{fill:#bc0808}.aus_st8{fill:#f9eeec}.aus_st9{fill:#fcf8f7}.aus_st10{fill:#fdfaf9}.aus_st11{fill:#fdf7f6}.aus_st12{fill:#d20606}</style><path d="M178 13.8v121.3c-.4 0-.4.2-.4.5v4.2c-.5.3-.3.8-.3 1.2 0 .4.1.9-.1 1.2-.3.3-.3.6-.3 1s.2 1 0 1.3c-.3.5-.2 1-.3 1.4-.3.7-.4 1.3-.4 2v.2c-.4.1-.3.4-.3.7v.5c-.4.3-.3.7-.3 1v.4c-.5.2-.4.6-.4 1 0 .1 0 .3-.2.5-.2.5-.4 1-.4 1.6-.1.7-.4 1.3-.6 1.9-.4.6-.6 1.3-.8 2-.1.7-.8 1.3-.8 2.2-.9 1.5-1.6 3.2-2.4 4.7-.3.7-.6 1.5-1 2.1-.7.7-1 1.6-1.5 2.3-.6.8-1 1.7-1.7 2.5-.6.8-1.1 1.6-1.9 2.3l-2.3 2.6c-1.8 1.9-3.6 3.9-5.7 5.5l-3 2.7-.2.1c-.9.4-1.4 1.1-2.2 1.5l-1.6 1.2-2.4 1.4c-2.7 1.3-5.3 2.7-8 3.8-.3.1-.4.4-.7.4-.9 0-1.5.6-2.3.8l-1.5.5c-.8.3-1.6.5-2.4 1h-.5c-.7 0-1.2.4-1.8.5-.7.2-1.3.6-2 .6h-.3c-.3.4-.6.3-1 .3l-.5.1c-.2.3-.5.3-.7.3-.3 0-.5 0-.7.2l-.5.1c-.8 0-1.5.6-2.3.4h-.1c-.3.4-.8.3-1.1.3h-1.2c-.5.4-1 .3-1.5.3l-.4.1c-.2.4-.6.3-.9.3-.4 0-1-.2-1.3 0-.5.4-1 .3-1.5.3h-1.8c-.2 0-.5 0-.6.2-.2.3-.5.2-.8.2h-2c-.3 0-.5.1-.3.5H96.6c0-.3 0-.5-.5-.5H92c-.4-.5-1-.4-1.4-.4h-2.4c-.3-.5-.8-.3-1.3-.3h-1.3c-.5-.4-1-.3-1.6-.4h-.5c-.5-.5-1.2-.2-1.8-.3-.3 0-.6.1-.7-.1-.2-.3-.5-.3-.7-.2-.9 0-1.6-.6-2.5-.4-.5-.4-1-.3-1.5-.3-.2 0-.4 0-.5-.2-.1-.2-.3-.2-.5-.2-.7.1-1.3-.5-2-.3-.3-.4-.8-.2-1.2-.4l-1.4-.4c-.5-.2-1-.5-1.5-.5-.5-.1-.9-.6-1.4-.4-.3-.5-.8-.2-1.1-.4-.4-.4-1.1-.2-1.5-.6-.8 0-1.5-.6-2.3-.8l-1.6-.9-3.3-1.6c-1-.6-2.3-.9-3.2-1.8-.8-.2-1.5-.9-2.2-1.3-.2 0-.5 0-.7-.3-.3-.5-1.1-.5-1.4-1-.6 0-.8-.7-1.2-.8-.5-.1-.7-.5-1-.8-.3-.3-.8-.2-1-.6-.5-.7-1.5-.9-2-1.6-.6-.1-1-.6-1.2-1-.4-.5-1-.6-1.4-1-1.4-1.6-3.1-3-4.4-4.7-.3-.5-1-.8-1.3-1.3-.6-1-1.1-1.8-2-2.6l-.5-.8c-.4-.5-.6-1.2-1.1-1.6-.3-.2-.4-.5-.6-.8L32 167c-.4-.5-.8-1-1.1-1.7l-.9-1.6c-.4-.7-.8-1.4-1-2.2l-1.1-2.8-.3-.6c0-1-.8-1.5-.8-2.4-.5-.4-.2-1-.6-1.4.1-.4-.3-.7-.4-1.1l-.2-1.3c-.3-1-1-2-.8-3l-.1-.4c-.2-.2-.2-.3-.2-.6 0-.8-.6-1.5-.4-2.3v-.1c-.5-.3-.3-.6-.3-1s.2-.8-.1-1.1c-.3-.3-.2-.5-.2-.8l-.1-1.1c-.4-.4-.3-.8-.3-1.1v-1.5l-.1-.6c-.3-.2-.2-.5-.2-.7v-3.3c0-.5-.3-.6-.7-.5V13.5c.6 0 1.1 0 1.7-.3.3-.3.9-.3 1.2-.5.5-.3 1-.1 1.5-.5.2-.2.5-.1.8-.3.5-.4 1.2-.6 1.9-.7l1.5-.5c.7-.1 1.3-.5 2-.6h.2c.5-.4 1-.8 1.7-.7h.3c.5-.3 1-.6 1.5-.7.4 0 .9-.1 1.2-.4.3-.2.6-.3 1-.2.2 0 .3 0 .5-.2.3-.2.7-.5 1-.5.7.1 1.2-.5 1.9-.4.4-.6 1.3 0 1.8-.6.7 0 1.2-.6 1.8-.4l.2-.1c.2-.3.4-.3.6-.2.7.1 1.1-.5 1.8-.4.2-.4.6-.3.9-.3.3 0 .6.2.8 0 .3-.4.6-.3.9-.3l.5-.1c.1-.4.4-.3.7-.3.3 0 .7.2 1-.1.2-.3.5-.2.7-.2.3 0 .7.1 1-.1.2-.4.5-.2.9-.2.3 0 .8.1 1.1-.1.3-.3.5-.3.8-.3.4 0 1 .2 1.2 0 .4-.4.7-.3 1-.3h1c.4-.5.7-.3 1-.3.5 0 1 .1 1.3-.1.6-.4 1-.2 1.6-.3.4 0 .9.2 1.1 0 .6-.5 1.3-.2 2-.3.2 0 .6 0 .8-.3 0-.1.2 0 .4 0h.9c.9-.2 1.8.3 2.6-.4 0-.1.2 0 .4 0H75c.2 0 .5 0 .6-.2.2-.3.5-.2.7-.2H81l.5-.1c.2-.3.4-.2.7-.2h6c.4 0 .6-.1.5-.6h16c-.1.5.2.5.6.5h7.2c.2 0 .5 0 .7.2.2.2.5.2.8.2h5.9c.4.5 1 .3 1.4.4 1 .1 2.2-.3 3.3.3h1.6c1 .2 2.1-.2 3.1.4h2.9c.4.5 1 .3 1.5.3.6 0 1.1-.1 1.6.3h2.2l.5.1c.4.4.9.3 1.4.3h.6c.5.5 1.1.3 1.7.3l.4.1c.3.4.7.3 1.1.3h.6c.3.4.7.3 1.1.3h.6c.4.5.8.4 1.3.4h.5c.5.6 1.3.1 1.8.6.7 0 1.3.6 2 .4h.2c.3.4.7.3 1.1.3l.7.1c.2.3.5.2.7.2l.7.2c.6.2 1.1.6 1.8.5.2 0 .4 0 .6.2.4.2 1 .4 1.4.4.7 0 1.3.3 1.8.6l2.9.8 1.6.5 2.4.8 2.2.8c.2 0 .3.4.6.3.6 0 1 .5 1.5.4.8.6 1.7.6 2.5 1 .9.2 1.7.8 2.5.9.6 0 1 .5 1.7.4zM29.2 55.6V86c0 .2-.1.5 0 .8V126.4c0 .7-.2 1.4 0 2.1v.6 3.2c.4.3.3.7.3 1v3.3c.4.5.3 1 .3 1.6v1.2c0 .2 0 .3.3.3l.1.2c-.2.6 0 1.2 0 1.8.5.6.2 1.2.3 1.9v.3c.4.2.3.6.3 1v.6c.6.5.3 1.3.6 2 .3.4.1 1 .4 1.7.1.4.6.9.4 1.4.7.5 0 1.4.6 1.9-.2.6.6 1 .4 1.5.6.7.7 1.6 1 2.4.1.2.4.3.4.5 0 1 .6 1.5.8 2.4.1.6.6 1.2.9 1.8.2.4.3.8.6 1 .4.4.6 1 1 1.5.6.7.8 1.6 1.6 2.1l.1.3c.3.6.6 1.2 1 1.6.8.7 1.2 1.7 2 2.3.2 1 1 1.3 1.6 2 .3.2.6.4.6.8 0 .3.3.3.4.5.9 1 2 1.8 3 2.6.2.2.2.6.6.5.4 0 .5.3.7.5.2.2.3.5.5.5.6 0 .8.5 1.2.9l.3.2c.4 0 .5.2.7.4.4.6 1 .9 1.6 1.2.5.3.9.9 1.5 1 .6.7 1.7.6 2.2 1.4 1.1.3 1.9 1.2 2.9 1.6 1.3.5 2.5 1.2 3.8 1.9.7.4 1.6.5 2.3 1 .5.3 1.2.1 1.6.6.6-.1 1 .4 1.5.4.4 0 1 .2 1.3.4.4.4 1 .3 1.5.6.5.2 1 .6 1.8.4h.1c.2.4.6.3.9.3h.4c.3.4.6.3 1 .4.6.2 1.3.4 2 .3l.2.1c.1.3.4.3.7.2.9 0 1.6.6 2.5.4h.2c.2.5.6.3.9.3.4 0 1-.2 1.3 0 .6.4 1 .3 1.6.3h.5c.4.6 1 .3 1.4.4.5 0 1-.2 1.3 0 .4.4.8.3 1.2.3h2.1l.6.1c.2.4.5.3.7.3h4c.3.4.6.3.9.3h6.4c.6 0 1.1.2 1.6-.3h2.7c.3-.5.8-.3 1.3-.3h1.9l.5-.1c.5-.5 1.2-.2 1.8-.3h.7c.2-.4.5-.3.8-.3h.8c.5-.5 1.2-.3 1.8-.4.2 0 .5.2.6 0 .3-.4.7-.3 1.1-.3l.7-.1c.2-.3.5-.3.8-.2.2 0 .5 0 .6-.2.2-.2.5-.2.7-.2.3 0 .5 0 .7-.2.2-.2.4-.1.7-.1h.4c.6-.6 1.4-.3 2-.6.3-.2.6-.4 1-.4.6 0 1-.3 1.5-.5.8-.3 1.7-.3 2.5-.9 1.2 0 2.2-.7 3.3-1.1 1.3-.6 2.7-1.1 4-1.8 1.2-.8 2.6-1.2 3.8-2 .8-.7 2-1 2.6-1.8h.1c.8-.5 1.6-.9 2.2-1.6l.2-.2c.8-.2 1.3-.9 2-1.3 1-.7 1.5-1.8 2.7-2.3 1.1-1.3 2.5-2.4 3.5-3.9.8-1 1.8-1.8 2.6-2.9l1.5-2c.4-.5.9-1 1-1.6.7-.6.9-1.6 1.5-2.3.4-.4.5-1.2.9-1.7l1.2-2.4 1-2.4c.1-.3.4-.4.4-.7 0-.8.4-1.5.7-2.2.2-.4.4-.7.3-1.1v-.3c.4-.7.7-1.5.7-2.3v-.2c.4-.2.3-.6.3-1 0-.1 0-.3.2-.4.2-.2.2-.4.2-.6v-.6c.5-.4.3-1 .3-1.4v-.4c.5-.3.3-.7.4-1.1v-.5c.5-.6.2-1.2.3-1.7 0-.3-.1-.6 0-.8.5-.5.3-1 .2-1.5v-.4c.6-.8.4-1.6.5-2.4 0-1.1-.3-2.3.3-3.3v-.3-4.7c0-.2 0-.4-.2-.5v-.4c.3-.6.2-1.2 0-1.8v-.5l.2-.4v-6c0-.2 0-.4-.2-.4l.1-4.4V88.1v-1.4c.2-.3 0-.6 0-1V63.4v-6.9c0-.2.2-.6-.1-.8v-1.8-30.1c0-1.5 0-3 .2-4.5 0-.2 0-.6-.3-.6-.4 0-.8-.2-1.3-.4l-2.8-1-3.1-1a82 82 0 00-4-1.3c-.8-.2-1.5-.6-2.3-.7-1.2-.2-2.3-.7-3.6-1-.9-.2-1.8-.6-2.7-.7l-2.4-.5-1.3-.3a8 8 0 00-2.6-.6 1 1 0 01-.6-.2 1 1 0 00-.6-.2c-.9.1-1.6-.4-2.5-.3h-.2c-.4-.4-.8-.3-1.2-.4-.3 0-.6.1-.8 0-.4-.3-1-.3-1.4-.3h-.7a2 2 0 00-1.2-.3c-1.4 0-2.8-.6-4.2-.4h-.3c-.4-.4-1-.3-1.5-.3l-2-.1c-.4-.2-1-.2-1.4-.3H123c-.7-.3-1.3-.3-2-.3h-2c-.8-.3-1.5-.3-2.2-.3h-4l-.7-.1c-.7-.3-1.3-.3-2-.3h-6.6c-.6-.3-1.1-.3-1.7-.3H90.5c-.6.4-1.3.3-2 .3h-2c-2.9.1-5.7.5-8.5.4h-.7c-.3.3-.6.3-.9.3h-2.7c-.5.4-1.1.3-1.7.3-.6 0-1.4-.1-2 .1-.6.2-1.1.3-1.7.3h-.8c-.4.3-.8.3-1.3.3-1.2 0-2.4.5-3.6.3l-.2.1c-.4.3-.8.3-1.3.3h-.7c-.4.4-1 .3-1.4.3l-.6.1c-.9.4-1.9.3-2.8.5l-2.7.6A265.2 265.2 0 0039 15l-6.6 2.2-2.4.9c-.6.1-.7.5-.7 1v36.4z" fill="#020101"/><path d="M170.4 139.6c0 .5.3 1-.2 1.5-.2.1 0 .5 0 .7-.1.6.2 1.2-.3 1.7v.5c-.1.4 0 .8-.4 1.2v.3c0 .5.1 1-.3 1.4v.6c0 .2 0 .5-.3.6-.2.1-.1.3-.1.5 0 .3 0 .7-.3 1v.1c0 .9-.3 1.6-.7 2.4v.2l-.3 1.2c-.4.7-.7 1.4-.8 2.2l-.3.6-1 2.5-1.3 2.3c-.3.6-.4 1.3-.8 1.8-.6.7-.8 1.6-1.5 2.2-.1.7-.7 1.1-1 1.7l-1.5 2c-.8 1-1.9 1.8-2.6 2.9-1 1.5-2.4 2.5-3.6 3.8-1 .5-1.7 1.7-2.6 2.3-.7.4-1.2 1.1-2 1.4l-.2.1a7.4 7.4 0 01-2.3 1.7c-.7.8-1.8 1-2.7 1.7-1.1.8-2.5 1.3-3.7 2-1.3.8-2.7 1.2-4 1.8-1.1.5-2.2 1.1-3.4 1.2-.7.5-1.6.5-2.4.9-.5.1-1 .5-1.5.4-.4 0-.7.3-1 .4-.6.3-1.4 0-2 .6h-.5c-.2 0-.4 0-.6.2-.2.2-.5.2-.7.2l-.7.1c-.2.2-.4.2-.6.2-.3 0-.6 0-.9.2-.1.2-.4 0-.6.1-.4 0-.8 0-1.1.3-.1.2-.4 0-.7 0-.6.1-1.2-.1-1.8.4h-.7c-.3 0-.6 0-.8.3-.2.2-.5 0-.8 0-.6.1-1.2-.1-1.8.3h-2.3c-.5.1-1 0-1.4.4h-2.7c-.4.5-1 .3-1.5.4h-6.5c-.3 0-.6 0-.8-.3-.2-.2-.4 0-.7 0h-3.3c-.3 0-.6 0-.7-.3-.2-.2-.4-.1-.6-.1h-2.1c-.4 0-.8 0-1.2-.3-.3-.2-.9 0-1.3 0-.5-.1-1 .2-1.4-.4H86c-.6 0-1 0-1.6-.3-.3-.2-.9 0-1.4 0-.3 0-.6.1-.9-.3-1 .1-1.7-.5-2.6-.4-.3 0-.6 0-.8-.3-.8 0-1.5-.2-2.2-.4-.3 0-.7.1-.9-.3h-.5c-.3 0-.6 0-.8-.3H74c-.6.1-1.2-.2-1.8-.5-.5-.2-1-.2-1.5-.5-.3-.2-.8-.4-1.3-.4s-.9-.6-1.5-.4c-.3-.5-1-.3-1.5-.6-.7-.5-1.6-.7-2.4-1l-3.8-2c-1-.4-1.7-1.3-2.8-1.5-.5-.8-1.7-.8-2.2-1.5-.7 0-1-.7-1.5-1-.6-.3-1.2-.6-1.6-1.1-.2-.3-.4-.5-.7-.5-.2 0-.3 0-.4-.2-.3-.4-.6-.8-1.1-.9-.2 0-.4-.3-.5-.4-.2-.2-.4-.5-.8-.5-.3 0-.3-.4-.6-.6-1-.8-2-1.6-3-2.6 0-.1-.3-.2-.3-.4 0-.4-.4-.6-.6-.9-.5-.6-1.4-1-1.6-2-.9-.6-1.2-1.6-2-2.3-.4-.4-.8-1-1-1.6 0 0 0-.2-.2-.2-.7-.6-1-1.5-1.5-2.2l-1-1.4c-.4-.3-.5-.7-.7-1-.3-.6-.7-1.2-.8-1.9-.2-.8-.9-1.4-.9-2.3 0-.3-.2-.3-.3-.6-.3-.8-.4-1.7-1-2.3.2-.6-.6-1-.4-1.6-.6-.4 0-1.4-.7-1.8.2-.6-.2-1-.4-1.5-.2-.6 0-1.3-.3-1.7-.4-.7 0-1.4-.6-2v-.6c0-.3 0-.7-.3-1v-.3c0-.6.1-1.3-.4-1.8V140c.5-.1 1 0 1.4-.3-.6 0-1-.2-1.4 0-.3 0-.3 0-.3-.3v-1.2c0-.5 0-1-.3-1.5v-.5-2.8c0-.4 0-.8-.3-1l-.1-.3v-3c1.2.3 2.3.3 3.5.3a.5.5 0 00-.5-.3c-.9 0-1.7-.4-2.5-.6h-.3c-.3-.6-.2-1.3-.1-2l2.7.5c.5.4 1 .4 1.7.5 0-.4-.3-.6-.6-.6H32c0-.2 0-.6-.3-.7-.8-.3-1.5-.9-2.4-1v-.6-5-.5l.7.3 4.8 1.5c.6.2 1.2.5 2 .6l-.9-1.2c-.7-1-1.1-2.2-1-3.5.1-2.3 3-4.3 5-3v.1c0 .2-.3.3-.4.4-.6.6-.6 1 0 1.6.3.4.7.7 1.1.9 1.4.8 3 1.2 4.6 1.7a17.6 17.6 0 0110.4 6.8c1.4 1.8 1.8 3.6.7 5.6-.4.7-.4 1.4 0 2.1.7 1.7 1 3.4 1 5.2-.3 3.3-3 5.8-6 5.7-1.4-.1-2.8 0-4-.7h-.4l-.2-.4c-1-.9-1.5-2-1.6-3.4v-.6c-.1-.3-.3-.4-.6-.3-.2 0-.4.2-.4.5l.3.6c.5 1.3 1.1 2.6 1.3 4V145.9a8.4 8.4 0 01-1.5 3.7l-1 1.4c-.1.4-.3.9-.2 1.3.3 1 .3 1 1.3.6 1-.5 1.8-.4 2.5.5.4.4.6.9.6 1.5s.3.8.9.6c.8-.3 1.5-.9 1.5-1.9v-.8c0-.9.4-1.5 1.1-1.8 1.3-.5 1.8-.7 3.1.4l.8.9 1 .8c.5.3.7.7.8 1.3v1c0 .7.2 1.2.6 1.7l1.5 1.5c1.3 1 2 2.3 2.4 3.9.4 2-.3 3.4-2.2 4.1l-2.6 1c-.7.3-1.2.8-1.6 1.4-.8 1.3-.5 2.7.8 3.5.6.4 1.2.6 1.8.8.8.3 1.5.6 1.9 1.3.4.9 1.2 1.2 2 1.2H64l2.1.1c2.3.2 4.5 1 6.5 1.9 3.3 1.5 6.2 3.4 8.2 6.6l.3-.2c1.8-1.5 3.7-3 6.3-2.7.4 0 .4-.2.5-.5.3-2 .8-3.7 1.4-5.5 1-2.9 2.5-5.5 4.7-7.7 0 0 .2-.1.2-.3h.1v-.1h-.1c-.4 0-.7.2-1 .3-1.2.4-2.5.4-3.7-.1-.4-.2-.7-.2-1 0-.9.6-1.6.5-2.3 0l-.6-.7c-.4-.3-.7-.3-1.1 0-.3.1-.5.3-.7.6 0 .1-.1.4-.4.3l-.1-.3c0-.7.2-1.4.8-2 .1 0 .3-.2.1-.4-.5-.5-1-1-1.8-1-1 0-2.2.8-2.6 1.8-.3 1 0 2.7 1 3.2l1.5.7c-.6.5-1.3.7-2 .5-1.6-.5-2.7-1.5-3.2-3-.6-2.6.7-5.8 4.4-6.2.2 0 .5.1.8-.2-.8-.3-1.5-.5-2.1-1a13.8 13.8 0 01-4.6-4.6c-.2-.5-.6-.8-1.2-.8-3.2-.4-5.8.8-7.7 3.3a5.1 5.1 0 00-.8 5.2c.7 2 3 2.8 4.7 1.9.8-.4 1-.9.5-1.7-.3-.5-.2-.6.3-.8.5-.3.9-.2 1.3.2s.7.9.7 1.5a3 3 0 01-1.9 2.8c-1 .4-2.1.5-3.2.6-.7 0-1.4-.2-2-.6-.8-.5-1.4-1-2-1.8-.2-.2-.4-.5-.7-.5-1 0-1.2-.6-1.4-1.3-.4-1-.5-2.2-.4-3.3.2-1.9.7-3.6 2.2-5 0-.1.2-.2.1-.4-1-.6-1.2-1.3-.4-2.1 1 .8 1 .8 2.2.2.8-.4 1.4-.8 2-1.3a13.6 13.6 0 0115.6 0c1.5.8 3 2 4.4 3 .3.2.7.5 1.3.6l-1.1-1.2c0-.3-.2-.5-.3-.7-.5-1.3-.8-2.5-.2-3.9 1.3-2.8 3.7-3.9 6.7-3.4 1 .2 2 .8 2.5 1.8.4.8.3 1.5 0 2.3-.5-.4-.6-1-.9-1.3a2 2 0 00-1.3-.7l-1.4.1c-.8.5-1.6 1.2-1.1 2.9 1.4-.9 1.7-1 2.4-.2l-.2.1c-.9.4-1 .7-.8 1.6.1.7.4 1.4.7 2 .3.5.7 1 1.2 1.1 1.4.5 2.7.7 4 0 2.7-1.4 4.4-3.6 5.2-6.5.1-.6.2-1.3-.2-2l-.9-1.7c-.4-1-1-1.9-1.9-2.5-1.8-1.4-3-1.4-4.7.2-.8.7-1 .8-2 .3l-.6-.4c-.2-.2-.4-.2-.6 0-.7.8-1.6 1-2.6.6a6 6 0 00-2.3 0c-.4 0-.5.2-.4.6 0 .3.2.4.3.7.1.3 0 .5-.3.5-.8 0-1.8-.6-2-1.4-.2-.2-.1-.4-.3-.5-2 .5-2.5.5-4.6-.1a30 30 0 01-2-.7c-1-.4-2-.6-2.9-.1h-.5v-.6l.4-.5c1.1-1 2.4-1.3 3.8-1l2.6.5a2 2 0 001.8-.4 7 7 0 013.4-1.7c.3 0 .5-.1.5-.4 0-.5.3-.8.6-1 .3-.3.6-.3.9 0 .8.8 1.3.7 1.7-.4.6-.4 1.1 0 1.6.1.9.4 1.7.4 2.5 0-1.4-.1-2.7-.5-4.1-.4h-.9c-2.7-.2-5.4.4-8.1 1l-6.3 1.4a28 28 0 01-7.3.2c-3.2-.3-6-1.6-8-4.1a7 7 0 01-1.3-6.3c.2-1 .8-1.9 1.6-2.5 2.3-1.8 4.8-1 5.7 1.7v.2c0 .2.2.3 0 .4-.2 0-.2 0-.3-.2-.8-1-1.8-1-2.9-.4-1.1.7-1.4 2.4-.4 3.7.8 1 2 1.5 3.3 2 .2-.4.1-.7.2-1 0-.5.4-1 1-1.1 1.3-.1 2.5-.1 3.4 1 .3.3.5.3.8.2 1.9-.4 2.8-.2 3.8 1.3.2.3.5.4.9.3a70.7 70.7 0 0110.7-1.5h4.4c1.3.2 2.6.2 3.9.5l3.4 1.1c.3.3.7.3 1 .5 0 .2.3.2.4.2l.2.1c0 .1.1.2.2.1l-.2-.1-.1-.2-.2-.1c-.3-.2-.6-.6-1-.7-2-1-4-1.5-6-1.6-.8 0-1.5 0-2-.4h-.1c0-.1 0-.2-.2-.2 0-.2-.1-.3-.3-.4-.1-.2-.3-.2-.5-.1h-1c-.6-.4-1.2-.8-1.9-1h-.3c-.3-.7-.8-1-1.4-1.4l-.1-.2c-.2-.6-.8-.8-1.3-1-.3-.1-.6-.2-.8-.5-.3-.2-.5-.2-.8 0a2 2 0 01-2-.2l-.8-.3c-1.2-.4-1.7-.1-2 1v1.5l-.2.8c0 .1 0 .3-.2.3-.5.2-1.4-.2-1.5-.7-.2-1-.7-1.8-1.2-2.7l-.8-2c-.2-1.4 0-2.8.3-4.3.4-2 2-2.7 3.4-2.8h4l.8-.1v-.4c-.4-1.4 0-2 1.5-2.1h.8c-.2-1.1-.3-2.1.6-3 .8-.7 1.8-.9 3-.5-.1-.5-.2-.9.2-1.1.4-.3.3-.7.2-1.2 0-.4-.1-.7-.5-1-.8-.5-.8-1.3-.1-1.9.2-.2.3-.4.3-.7 0-.7-.2-1.3-.3-1.9 0-1.6-.4-3.1-.5-4.7 0-.4 0-.7-.5-.6-.5 0-.6-.2-.7-.7l-.1-1c0-.4 0-.6.4-.6 1.3-.2 2.6-.5 4-.6.5-.1 1.1-.4 1.6-.2.6 0 1 .7 1.5 1 .8.5.8 1.2.5 2-.6.3-.6.3-.4 1.2.3-.2 0-.7.4-1 .3.7 0 1.4.2 2-.4 1-.4 1.5 0 2v-1c0-.2-.2-.5.1-.6l.3 1.4 1.5-.4c.4 0 .5-.2.5-.5 0-1.1 0-2.3-.2-3.4 0-.2 0-.4-.2-.4-.5-.2-.4-.5-.5-.9V96c0-.6 0-.6.6-.6 2.1-.1 4.2-.2 6.3 0 .7 0 .7 0 .7.7l-.3 2.4v3.6c0 .4.2.5.5.4l1.7.3.5-3.5c0-.2 0-.4-.2-.5-.4-.8-.3-1.1.3-1.6l1.2-1c.3-.4.7-.6 1.2-.3l.9.1c1.3.1 2.6.4 4 .7.3 0 .4.2.3.5l-.1 1.4c0 .3-.2.5-.5.5s-.4.1-.4.4a546.7 546.7 0 01-1 7.5c.7.8.7 1.2-.1 1.8-.2.1-.4.2-.4.4 0 .7-.2 1.3.3 1.9.5.4.4.8 0 1.2 0 .1-.2.2-.1.5 2-.1 3.9 0 5.9-.3.6-.1 1.2-.4 1.7-.8.7-.5.8-1 .2-1.7v-.3c1.2-.4 2 .3 1.9 1.5a3 3 0 01-1.6 2.4c-1.2.7-2.6 1-4 1.2l-3 .5c.4.3.8.3 1.2.4a47 47 0 008.6 0c1-.2 2.1-.4 3-1 1-.5 1.7-1.3 1.8-2.5 0-1.2-.5-1.7-1.6-1.7.3-1 1-1.1 1.8-.7l1 1c.5 1.3.6 2.5 0 3.8-.4 1-1 1.7-2 2.2-.4.3-.7.6-.6 1.2v.4c-.1.5-.4 1-.8 1.1-.2.1-.5.2-.6-.1-.2-.8-.7-.7-1.2-.6a13.1 13.1 0 01-4 0h-.7c-.6-.3-1.1-.3-1.7-.3l-1.9-.2a62.7 62.7 0 0013.5 2.1c1 0 2 0 2.8-.2 2.3-.4 4.3-1.5 6-3a9.7 9.7 0 003.2-5.3 5 5 0 00-.8-3.8c-.5-.9-1.6-1-2.4-.2l-.4.5s0 .3-.4.2c0-.8.4-1.5 1-2 1.2-.7 2.8-.5 4 .4 1.1 1 1.7 2.1 1.8 3.7a10 10 0 01-.6 3.8c-1.1 3-2.9 5.5-5.8 7-.2 0-.3 0-.4.4.6 0 1.2.3 1.6.8.3.4.5.8.3 1.4a4.9 4.9 0 01-3.2 3c-.1 0-.3.2-.4-.1l.8-.7c.6-.6.5-1.2-.1-1.7-.4-.3-.7-.3-1.1 0-3 1.5-6.3 1.8-9.6.8-1-.2-2-.6-3-.7l-.2-.2c-1.4-.4-2.8-.8-4.2-1-.2 0-.4-.2-.6 0 .2.1.3.3.6.3l3 1.5.8.4c4 1.9 7.9 4 11.5 6.4 3.7 2.5 6.5 5.6 8 9.9.7 2.3.9 4.7 0 7a4.5 4.5 0 01-3.4 3c-.7.1-1.4.2-2-.5v-.3c.4.1.8.4 1.2.3 1.1-.2 2-.7 2.7-1.6.6-1 .5-2.3-.3-3.2a3 3 0 01-.8-1.3l-.4-1.9a12 12 0 00-4.6-6.6c-1.4-1-3-1.8-4.8-2.5v1.4c.1.5 0 1-.1 1.5-.2.3-.4.6-.7.7-.6.1-1.2.2-1.8 0-.1 0-.4 0-.3-.2.1-.2.3-.1.4-.2.4 0 .7-.2.7-.6 0-.4-.4-.4-.6-.4a8.4 8.4 0 01-3.5-1.3l-1.4-.8-.6-.2v.3l1 2c1.8 3.6 4.7 6.2 8.2 8.2.7.4 1.5.7 2.3.8 1.1 0 2.4-.6 1.9-2v-.4c.8.5 1.2 1.4 1 2.4-.3 1-.8 1.7-1.7 2.2a5 5 0 01-3.2.5c-.8 0-1.6-.3-2.4-.7-.6-.3-.6-.3-.8.3-.4.8-.9 1.3-1.8 1.3-.3 0-.5 0-.4-.4v-.3a3 3 0 00-1.9-3.3c-.2 0-.4 0-.4.2a7 7 0 00-.3 1.5c0 2.2.7 4.2 1.7 6 .2.5.5.7 1 .9.9.3 1.3 1 1.2 2 0 .3.1.5.4.6 1.2.7 1.9 1.7 1.7 3.2v.6c0 .6.2.8.7.8.5 0 .8-.2.9-.7v-.5c1 1 .7 2-.4 2.4-.5.1-1 0-1.5-.3-.4-.3-.6-.7-1-.8v.4l.1.6a9 9 0 003.3 4.3 6 6 0 002.7 1.2c1 0 1.5-.2 2-1.2 0-.2 0-.6.4-.8.3.6.3 1.2 0 1.8-.6.8-1.4 1.3-2.4 1.3s-1.9-.3-2.6-.9c-.4-.2-.7-.5-1.1-.2-1 .5-2 .2-3-.3a10.8 10.8 0 01-4-4.8c-1-2.1-1.8-4.3-2.5-6.5-.1-.4-.2-.8-.5-1-.3 2.7-.7 5.3-.9 8 0 2.2 0 4.2.5 6.3.3 1.1.5 2.3 1.2 3.2.8 1.2 2 1.6 3.3 1.5 1-.1 2.3-1.2 1.5-2.8l-.2-.5c-.1-.1-.2-.3 0-.4.1-.1.3 0 .4.2a3.5 3.5 0 01-.8 5.6c-.7.3-1.4.6-2.2.7-1.3.2-2.5 0-3.5-1-.7-.7-.8-.6-1.4.1-.6.7-1 .8-1.8.2-.3-.2-.5-.5-.6-.8.1-.2.3-.1.5-.1.7-.1 1-.5.6-1.2l-.6-.8a8 8 0 01-1.4-3l-.3-2.4c-.2 0-.2.2-.2.3-.7 1.6-1 3.4-1.2 5.2-.2 1.4-.3 2.8-.2 4.2 0 .9.4 1.7 1.3 2.1.9.4 1.7.2 2.4-.3.2-.1.3-.3.6-.3 0 1.5-.6 2.2-2 2.2h-.3c-.3 0-.5 0-.5.5-.1.5-.5.7-1.1.6.3-.5 0-.8-.4-1l-1-1c-.1-.2-.1-.4-.5-.3-.2 1 0 2.1.2 3.2.1.3.3.4.6.3 1.4-.2 2.6.3 3.6 1.2 0 0 .1.2.4.2a5 5 0 011.3-1.6l1.7-1.3a40.1 40.1 0 0112.3-5.2c2-.4 4.2-.6 6.3-.7 1.5-.1 3-.4 4.2-1.5l1-.8c.6-.7 1-1.5 1.2-2.3.2-1.3 0-1.8-1-2.5-.4-.1-.5-.3-.4-.6.1-.5 0-.7-.5-.8h-.4a4 4 0 01-3-4.7c.3-1.6 1-3 2-4 .7-.6 1-1.3 1.2-2.1.3-1.3.7-2.5 1.4-3.6a5.6 5.6 0 012.8-2.6c2-.7 3.7-.1 5.4.9.7.4 1 1.2.7 2-.3 1.1.3 1.8 1 2.4.4.3.8.4 1.3.1.4-.2.5-.6.4-1-.3-.7-.3-1.3.6-1.5l.1-.1c.9-.8 1-2.6.1-3.5l-.5-.5a7 7 0 01-1.9-3.2v-1.4l.3-1.2c0-.2 0-.4-.3-.4-.9 0-1.7-.3-2.6.3-1.3 1-3.5.5-4.5-.8l-1-1a5.3 5.3 0 01-2.2-4.5c0-.9.2-1.7.5-2.4.2-.4.2-.8 0-1.2a10 10 0 01-.5-2.4c-.3-2.1 0-4.1 1.5-5.8l1-1.2c1.3-1.3 2.7-2.3 4.4-3 1.7-.7 3.5-1 5.3-1.6 3.2-1.2 6-2.8 6.8-6.5.1-.4.4-.4.6-.2l1.1 1.5a5.2 5.2 0 01.6 5.4c-.1.1-.2.2 0 .4h.1a67 67 0 017.3-1.7c.2.1.2.3.2.4v6l-.1.5h-.2c-1.1.4-1.4.5-1.7 1a4 4 0 001.6-.5h.3c0 .6.2 1.2-.1 1.7-.5 0-1 .1-1.4.3.5.3 1 .2 1.4.2.2 0 .2.3.2.5v4.9c-.6 1-.2 2.2-.3 3.3 0 .8 0 1.7-.4 2.4-1-.1-1.9-.4-2.8-.2v.2c1 0 1.9.2 2.8.4z" fill="#fefdfd"/><path class="aus_st2" d="M171 118.4c-2.5.4-5 1-7.3 1.7h-.2c-.1-.2 0-.3 0-.4.9-2 .6-3.7-.5-5.4l-1.2-1.5c-.2-.2-.4-.2-.5.2-.8 3.7-3.7 5.3-6.9 6.4-1.7.6-3.5 1-5.3 1.7-1.6.7-3 1.7-4.2 3l-1.1 1.2c-1.6 1.7-1.9 3.7-1.6 5.8l.6 2.4c.2.4.1.7 0 1.1-.4.8-.5 1.6-.5 2.4 0 2 .7 3.5 2.2 4.6l1 1c1 1.3 3.2 1.7 4.5.8.9-.7 1.7-.4 2.6-.3.2 0 .3.2.3.4l-.3 1.2c-.1.4-.2 1 0 1.4a7.1 7.1 0 002.4 3.7c.8.9.7 2.7-.1 3.5h-.1c-1 .3-.9.9-.7 1.6.1.4 0 .8-.3 1-.5.3-1 .2-1.3 0-.8-.7-1.3-1.4-1-2.5.2-.8 0-1.6-.8-2-1.6-1-3.4-1.6-5.4-1-1.2.5-2 1.5-2.7 2.6-.7 1.2-1.2 2.4-1.5 3.7-.1.8-.5 1.4-1 2a6.7 6.7 0 00-2.1 4 4 4 0 003 4.7l.4.1c.5 0 .6.3.5.7-.1.4 0 .5.3.7 1 .7 1.3 1.2 1 2.4-.2 1-.6 1.7-1.2 2.3l-1 .9a6.7 6.7 0 01-4.2 1.4c-2 .2-4.1.3-6.2.7a40.4 40.4 0 00-12.3 5.3l-1.7 1.3c-.6.4-1 1-1.3 1.5-.3.1-.4 0-.5-.1-1-1-2.1-1.5-3.5-1.2-.3 0-.5 0-.6-.3-.2-1.1-.4-2.2-.2-3.3.3 0 .3.2.4.3.3.4.6.8 1 1 .5.3.7.6.4 1.1.6 0 1-.1 1.1-.6 0-.4.3-.5.6-.5h.3c1.4 0 2-.8 2-2.2-.3 0-.5.1-.6.3-.8.5-1.6.7-2.4.3-1-.5-1.3-1.3-1.3-2.2-.1-1.4 0-2.8.2-4.1.2-1.8.5-3.6 1.1-5.3 0 0 0-.2.3-.2a8 8 0 001.7 5.4l.6.8c.3.7.1 1-.7 1.2h-.5l.7 1c.7.5 1.1.4 1.7-.3.6-.7.8-.8 1.4-.1 1 1 2.2 1.2 3.6 1a7 7 0 002.2-.8c2.1-1.1 2.5-4 .7-5.6 0 0-.2-.3-.4-.1-.1 0 0 .2 0 .4s.2.3.3.5c.8 1.5-.4 2.6-1.6 2.7-1.3.2-2.4-.2-3.2-1.4-.7-1-1-2.1-1.3-3.2a20 20 0 01-.4-6.3l.8-8.1c.4.3.4.7.5 1 .7 2.3 1.5 4.4 2.5 6.6 1 2 2.3 3.6 4.1 4.7 1 .6 1.9.9 3 .3.4-.2.7 0 1 .3.8.5 1.6.9 2.6.9s1.8-.5 2.4-1.3c.3-.6.3-1.2 0-1.8-.3.2-.3.5-.4.8-.4 1-1 1.3-2 1.1a6 6 0 01-2.7-1 9 9 0 01-3.4-5v-.4c.5.1.7.5 1 .8.5.4 1 .4 1.5.2 1.2-.4 1.4-1.3.5-2.3-.2.1 0 .3 0 .4-.2.5-.5.8-1 .8-.4 0-.6-.3-.6-.8v-.6c.1-1.5-.5-2.5-1.8-3.2-.2-.2-.4-.3-.3-.6 0-1-.3-1.7-1.3-2-.5-.2-.7-.5-1-.8a12 12 0 01-1.6-6.1l.2-1.5c0-.3.3-.3.5-.2 1.4.5 2.2 1.8 2 3.3l-.1.3c-.1.4 0 .4.4.4.9 0 1.4-.6 1.7-1.3.3-.6.3-.6.9-.3.7.4 1.5.6 2.3.7a5 5 0 003.3-.5c.8-.5 1.3-1.3 1.6-2.2.3-1-.1-2-1-2.4v.3c.5 1.5-.7 2.1-1.8 2-.9 0-1.6-.3-2.4-.7-3.5-2-6.4-4.6-8.2-8.3l-.9-2v-.2l.6.2 1.4.7c1 .7 2.2 1.2 3.4 1.4.3 0 .7 0 .7.3 0 .5-.3.6-.7.7l-.5.1c0 .3.2.3.4.3.6.2 1.2 0 1.7 0 .4-.1.6-.4.7-.8.2-.4.3-1 .2-1.5v-1.3c1.7.6 3.3 1.4 4.8 2.5a12 12 0 014.6 6.6l.4 1.8c.1.6.4 1 .8 1.4.8.8.9 2.2.2 3.1a4 4 0 01-2.6 1.7c-.5 0-.8-.2-1.2-.3-.1-.2-.3-.3-.6-.4.2.3.3.6.5.7.6.6 1.4.6 2.1.4a4.5 4.5 0 003.3-2.9c1-2.3.8-4.7 0-7a19.3 19.3 0 00-7.9-10 90.6 90.6 0 00-11.5-6.3l-.8-.5c.3-.5 1-.4 1.4-.6l3 .8c3.3 1 6.5.7 9.6-.9.3-.2.7-.2 1 0 .7.6.7 1.2.1 1.8l-.8.7c.2.3.3.1.5 0a4.9 4.9 0 003.1-3c.2-.5 0-1-.3-1.3-.4-.5-1-.8-1.6-.8 0-.4.3-.4.4-.5 3-1.4 4.7-3.9 5.8-7 .5-1.2.7-2.4.7-3.8-.1-1.5-.7-2.7-1.9-3.6-1.1-1-2.8-1-3.9-.4-.7.5-1 1.1-1 2 .3 0 .3-.2.4-.3l.4-.4c.7-.8 1.8-.7 2.4.2a5 5 0 01.7 3.8 9.7 9.7 0 01-3.2 5.2 11.6 11.6 0 01-6 3c-.8.2-1.8.3-2.7.3a63.4 63.4 0 01-10-1.2v-.5h.7c.1.2.2.2.4 0 1.2.2 2.4.3 3.6 0 .5 0 1.1-.1 1.2.7.1.3.4.2.6.1.5-.2.7-.6.8-1.1 0-.1.1-.3 0-.4 0-.6.2-1 .7-1.2.9-.6 1.6-1.3 2-2.2.6-1.3.5-2.6-.1-3.8-.2-.4-.6-.7-1-1-.7-.5-1.4-.2-1.8.7 1.2 0 1.7.5 1.6 1.7 0 1.1-.7 2-1.7 2.5s-2 .8-3 1c-1.4.2-2.7.2-4 .2-1.6 0-3.2 0-4.7-.2-.4 0-.8-.2-1.2-.4 1 0 2-.3 3.1-.5 1.4-.3 2.7-.5 4-1.2a3 3 0 001.5-2.4c.2-1.3-.6-1.9-1.9-1.6v.3c.6.8.6 1.2-.2 1.8-.5.4-1 .6-1.7.8-2 .4-4 .2-5.9.2 0-.3.1-.3.2-.4.4-.5.4-.8 0-1.3-.6-.5-.4-1.2-.4-1.8 0-.2.3-.3.4-.4.8-.7.9-1 .2-1.8-.1-.2-.2-.4-.1-.6l1-7c.1-.2.1-.4.4-.4.4 0 .5-.1.5-.4l.2-1.4c0-.3 0-.5-.4-.6-1.3-.2-2.6-.5-4-.6-.3 0-.6 0-.9-.2-.5-.2-.8 0-1.2.3l-1.1 1c-.7.6-.7.9-.3 1.6l.2.6c0 .6-.4 2.8-.6 3.5-.6-.2-1.1-.3-1.7-.3-.3 0-.5 0-.5-.4v-3.6l.3-2.4c0-.7 0-.7-.6-.8H97c-.7 0-.7 0-.7.7v1.3c.1.3 0 .7.5.8.2 0 .2.3.2.5.2 1.1.2 2.2.2 3.4 0 .3 0 .5-.4.5l-1.6.3-.2-1.4-.1-.3c-.2-.6 0-1.3-.2-2v-.2c.2-.8.2-1.5-.6-2-.5-.4-.9-1-1.4-1-.5-.2-1.1 0-1.7.1-1.3.2-2.6.5-4 .6-.3.1-.4.3-.4.6l.2 1.1c0 .4.1.7.6.6.5 0 .5.3.6.6 0 1.6.4 3.2.5 4.8l.2 1.8c0 .3 0 .6-.3.8-.7.6-.7 1.3.1 1.9.4.2.5.6.6 1 0 .4.1.8-.3 1.1-.3.3-.3.7-.2 1.1a3 3 0 00-3 .6c-.9.8-.7 1.9-.6 2.9h-.7c-1.5.1-2 .8-1.6 2.2v.3c-.2.2-.5.1-.7.1h-4c-1.5.1-3 .8-3.5 2.9-.3 1.4-.5 2.8-.2 4.3.1.7.4 1.3.7 2 .5.9 1 1.7 1.2 2.7.1.5 1 .8 1.5.7.2 0 .2-.2.3-.3v-.8l.2-1.4c.3-1.3.7-1.6 2-1.2l.7.4a2 2 0 002 .1c.3-.1.6-.1.8.1l.8.5c.5.2 1.1.3 1.3 1l.1.1c.6.4 1.2.7 1.5 1.4l.3.2c.7 0 1.3.4 1.8.9h1.1c0 .1.3 0 .4 0v.1c0 .2.2.3.4.3l.1.2v.6h-3.9c-3 .1-5.8.6-8.7 1.1l-2 .5c-.4 0-.6 0-.9-.4-1-1.4-1.9-1.7-3.7-1.2-.4 0-.6 0-.8-.3-1-1-2.2-1-3.5-1-.6.1-.9.6-1 1.2l-.1.9c-1.3-.4-2.5-.9-3.4-2-1-1.2-.7-3 .5-3.7 1-.6 2-.5 2.8.5.1 0 .1.2.3.2.2-.1 0-.3 0-.4v-.3c-.9-2.6-3.4-3.4-5.6-1.7-.9.7-1.4 1.5-1.7 2.5a7 7 0 001.4 6.4c2 2.5 4.7 3.7 8 4.1 2.3.3 4.8 0 7.2-.3 2.1-.3 4.2-.8 6.3-1.3 2.7-.6 5.4-1.2 8.2-1.1h.8v.4c-.4 1-.8 1.2-1.7.4-.3-.4-.5-.3-.8 0-.3.2-.6.5-.6 1 0 .2-.2.4-.5.4a7 7 0 00-3.4 1.7 2 2 0 01-1.8.4l-2.6-.5a4.2 4.2 0 00-4.2 1.4c-.2.2-.2.4 0 .6.1.2.3.1.4 0 1-.4 2-.2 3 .2l2 .7c2 .6 2.6.6 4.5 0 .2.2.2.4.2.6.3.7 1.4 1.4 2.1 1.4.3 0 .5-.3.4-.6l-.4-.6c0-.5 0-.6.4-.7a6 6 0 012.4 0c1 .4 1.8.2 2.6-.5.2-.2.3-.3.5 0l.7.4c.9.4 1.1.4 1.9-.3 1.7-1.6 3-1.6 4.7-.3.9.7 1.5 1.6 2 2.5.3.6.5 1.3.9 1.8.3.6.3 1.3.1 2-.8 2.8-2.4 5-5.1 6.5-1.3.7-2.7.5-4 0-.6-.2-1-.6-1.2-1-.4-.7-.6-1.4-.8-2.1-.2-1 0-1.3.8-1.6l.2-.2c-.7-.6-1-.6-2.4.2-.4-1.7.3-2.4 1.1-2.8.5-.2 1-.2 1.5-.2.5.1 1 .3 1.3.7.3.4.4 1 .8 1.3.3-.8.5-1.5 0-2.2-.6-1-1.4-1.6-2.5-1.8-3-.5-5.3.5-6.7 3.4-.6 1.3-.3 2.6.2 3.9.1.2.3.4.3.7 0 .2 0 .3-.2.5l-4.3-3c-2-1.1-4.2-2-6.5-2.3-3.3-.3-6.3.5-9 2.4l-2.1 1.2c-1.2.7-1.2.7-2.2-.2-.9.8-.7 1.6.4 2.2 0 .2-.1.2-.2.3a7.5 7.5 0 00-2.2 5.1c0 1.1 0 2.2.4 3.3.2.6.5 1.3 1.4 1.3.3 0 .5.3.7.5a10 10 0 002 1.8c.7.3 1.3.5 2 .5 1.1 0 2.2-.1 3.3-.5a3 3 0 001.9-2.8c0-.7-.4-1.2-.8-1.6-.4-.3-.8-.4-1.3-.2-.5.3-.5.3-.2 1 .4.7.2 1.1-.6 1.6-1.7.9-4 0-4.7-2-.7-1.8-.3-3.6.8-5.1 2-2.5 4.5-3.7 7.8-3.4.5 0 .9.3 1.2.8 1.1 2 2.6 3.5 4.5 4.7.6.4 1.3.7 2.1 1-.2.3-.6.2-.8.2-3.6.4-5 3.6-4.3 6 .4 1.7 1.5 2.7 3.1 3.2.7.2 1.4 0 2-.6L81 169c-1-.5-1.4-2.2-1-3.2.3-1 1.5-1.9 2.5-1.8.8 0 1.3.5 1.8 1 .3.2 0 .3-.1.5-.5.5-.8 1.1-.8 1.9v.2h.1c.3.1.4 0 .5-.2l.6-.7c.4-.2.8-.2 1.1.1l.6.6c.8.6 1.5.7 2.3.1.4-.2.7-.2 1 0 1.3.4 2.5.4 3.7 0l1-.2c0 .2 0 .3-.2.4a19.5 19.5 0 00-4.6 7.6c-.7 1.8-1.2 3.7-1.5 5.5 0 .3-.1.6-.5.5-2.5-.2-4.4 1.2-6.3 2.7l-.3.2c-2-3-4.9-5-8.1-6.5-2.1-1-4.3-1.7-6.5-2h-5c-.9 0-1.7-.4-2.1-1.2-.4-.7-1-1-1.8-1.3-.7-.2-1.3-.4-1.9-.8-1.3-.8-1.6-2.2-.8-3.5.4-.6 1-1 1.6-1.4l2.6-1c2-.8 2.6-2.1 2.2-4.2-.4-1.5-1.1-2.8-2.3-3.8l-1.5-1.5c-.4-.5-.7-1-.6-1.8v-1c-.1-.5-.4-1-.9-1.2l-1-.8-.8-.9c-1.2-1.1-1.8-1-3-.4-.8.3-1.2 1-1.2 1.7v.9c0 1-.6 1.6-1.5 1.9-.6.2-.9 0-.9-.7 0-.5-.1-1-.5-1.4-.8-.9-1.6-1-2.6-.5-1 .4-1 .4-1.2-.6-.1-.5 0-.9.2-1.3l1-1.4a8.3 8.3 0 001.4-3.7v-.2-.8c.2-.4.2-.7 0-1v-.4c.5 0 .8-.3 1.2-.3h.4c1.2.6 2.6.5 4 .6 3 .2 5.8-2.3 6-5.6.1-1.8-.2-3.6-1-5.2-.3-.7-.4-1.5 0-2.2 1.1-2 .7-3.8-.7-5.5-1.6-2.2-3.5-4-6-5.3-1.3-.7-2.9-1.1-4.4-1.6-1.5-.4-3.1-.8-4.5-1.6-.5-.3-.9-.5-1.2-.9-.6-.6-.6-1 0-1.6l.5-.4c-2-1.5-4.9.5-5 2.9-.2 1.3.3 2.4 1 3.5l.8 1.2-2-.7-4.7-1.4c-.3 0-.5-.2-.7-.3l-.1-1.8V87.6v-.9h141.9V114l-.1 4.4z"/><path d="M29.3 55.6c-.2-.7-.1-1.5-.1-2.2V21.8v-2.5c0-.5 0-.9.6-1l2.4-1c2.2-.6 4.4-1.5 6.6-2.2a154.6 154.6 0 0116.7-4.4c1-.2 2 0 2.9-.5h.6c.4-.1 1 0 1.4-.3.2-.2.5-.1.7-.1.4 0 .9 0 1.2-.3h.3c1.2.1 2.3-.5 3.6-.4.4 0 .9 0 1.3-.3h.7a5 5 0 001.8-.3c.6-.2 1.3 0 2-.1.6 0 1.1 0 1.6-.3H76.4c.3 0 .6 0 .8-.2.2-.2.5-.2.7-.2 2.8.1 5.7-.2 8.5-.3h2.1c.7 0 1.3 0 2-.3h11.3c.5 0 1.1 0 1.6.2h.9l5.8.1c.6 0 1.3 0 2 .3h4.6c.8 0 1.5.1 2.2.3.6.2 1.4 0 2 0 .7.1 1.4 0 2 .4h3.2c.5 0 1 0 1.5.2.7.3 1.3.1 2 .2.5 0 1-.1 1.5.2 0 0 .1.1.2 0 1.4 0 2.8.5 4.2.4.5 0 .9 0 1.3.3h.6c.5 0 1 0 1.5.3.2.2.5.1.7.1.4 0 .9 0 1.2.3h.3c.8 0 1.6.5 2.4.4.2 0 .5 0 .7.2l.6.2c.9 0 1.7.3 2.5.6l1.3.2 2.4.6c1 0 1.8.5 2.8.7 1.2.2 2.3.7 3.6 1 .7.1 1.5.5 2.2.7l4 1.3 3.1 1 2.9 1c.4.1.8.4 1.3.4.3 0 .2.3.2.5v34.6c0 .7 0 1.3-.2 1.9H29.2zm97.1-32.4c.1-.3 0-.5-.1-.8.3-.1.2-.4.3-.6 0-.9 0-1-.8-1l-5 .1c-.3 0-.4.2-.4.6v5c0 .6 0 .6.6.6h5c.2 0 .5 0 .5-.2 0-.4.3-1-.2-1.3v-.9c.4-.4.3-1 .1-1.5zm-64.1 0v-.8c.4-.4.2-1 .2-1.4L62 21h-5.3c-.4 0-.5.1-.5.4v5.3c0 .4.2.5.5.5h5.3c.2 0 .4 0 .4-.2 0-.4.2-1-.2-1.3v-.8c.3-.6.3-1 0-1.6zm13-.8c.3-.3 0-.7.1-1 .1-.4-.1-.6-.5-.5h-2.3c-.3 0-.5 0-.6.2l-.8.7-.2.4c-.2 1 .1 1.7 1 2.2.2 0 .4 0 .4.3v.9h-1c-.3 0-.4.2-.4.5v.4c0 .6 0 .6.5.6h3.3c.8 0 1.4-.2 2-.8.3-.4.6-1.4.3-1.8-.5-.4-.8-1-1.5-1.3.1-.4-.3-.5-.3-.8zm-11.1 21l-.3.3c-.8.3-1 1.1-1.4 1.7-.5.6-.7 1.2-1.2 1.7-.3.3-.5.5-.6.9 0 .3-.7.3-1 .6 0 .2-.1.2-.2.3-.2.4-.2.6.2.6.5.1.8 0 1-.4.4-.5 1-.8 1.4-.9.7-.2 1.6-.2 2.2 0 .8.4 1.7.8 2.6 1.4l.1-.3c.7-.6 1.2-1.4 2.1-1.7.7-.2 1.2-1 2-.8.3 0 .3-.3.3-.4v-5.2c0-.3-.1-.5-.4-.7-.7-.3-1.3-1-2-1.2-.5-.1-.8-.4-1-.8.3-.4.7-.6.9-1 .2-.7.7-1 1-1.5.2-.4.3-.8.7-1.1.6-.7 1.2-1.4 1.6-2.3.1-.3 0-.7.2-1 .1-.6-.3-.8-.6-1.1-.2-.4-.5-.5-1-.4-.2.1-.5.6-.5 1-.1.6.4 1 .7 1.3.5.5.4.8-.2 1a4 4 0 01-1.7.4c-.6 0-1-.1-1.5-.3-.8-.3-1.7-.4-2.5-1-.2-.1-.4 0-.6.1a9 9 0 01-3.8 2.6c-.3.1-.3.3-.3.6v5c0 .4.1.6.4.8.9.4 1.7 1 2.7 1.2l.1.2h.3l.3.1v.3zM32.5 39c-.2 1.2 0 2.4.5 3.4.5 1.5 1.1 3 2.4 4l1.5 1.2c.8.5 1.6 1 2.4 1.2.5.2 1 .1 1.4.3.6.4 1.1.3 1.7.3.9 0 1.9.3 2.7-.3.6 0 1-.5 1.6-.4 1.2-.7 2.6-1.2 3.8-2.1.8-.6 1.5-1.4 2.4-2 .7-.6 1.1-1.3 1.7-2 .7-.8 1.4-1.7 1.9-2.7.4-.7 1-1.4.8-2.3l.2-.3c.5-1.1.1-2.3.2-3.4-.5-.5-.5-1.2-.7-1.8 0-.1 0-.3-.2-.4-.5-.4-.7-1-1-1.5-.7-1.2-1.7-2-2.8-2.6a29.2 29.2 0 00-3.8-1.7c-.8-.3-1.6-.5-2.4-.4-.2 0-.2-.1-.3-.2-.6-.2-1.2-.3-1.6 0l-2.1 1.4-2.5 1.8-3 2-2.6 1.7c-.5.3-1 .7-1.2 1.2 0 .6-.5 1.1-.3 1.8l-.1.3c-.3.1-.3.4-.3.6v.7c-.3.2-.3.4-.3.7V39zm127.8-2.5V30c0-.6.2-1.3.7-1.8l1.3-1.3v-.2a8.7 8.7 0 00-4.3 2c-.5-.4-.8-.9-1.4-1-.5-.1-.8-.7-1.5-.5l1 1c.5.5.7 1.2.7 2v15.3c0 .3 0 .6-.3.8l-1.1 1.1c1.1.6 2 1.4 3 2.2 1-.5 1.8-1.4 2.9-1.9.3-.2.3-.3 0-.6l-.6-.7c-.3-.2-.5-.5-.5-1v-7.5c0-.2 0-.5.3-.7.8-.7 1.6-1.5 2.5-2.1h.3c.6.6 1 1.3 1 2.2v10.3c0 .7-.3 1.4-.6 2-.6 1.4-1.9 2-3 3-.3-.1-.5.4-.9.3-.5 0-.8.4-1.2.6-.2 0-.4.3-.4.5l.1.3h.2c.3-.6 1-.1 1.3-.7.9.1 1.5-.5 2.2-.8a7 7 0 001.8-1l1.1-1 .4-.2c.5-.1.8-.5 1-1l.2-.4a5 5 0 001.2-3v-9.4c0-.8-.2-1.4-.4-2-.3-1-1-1.7-2-2.1h-.3c-.7.6-1.6 1.1-2.2 1.9l-.3.3c-.7.2-1 .8-1.6 1.3-.2.1-.2.4-.7.4zm-37.5 10.5c2.2 0 4 1.1 5.6 2.4.8-.1 1.3-.7 1.9-1.1a65 65 0 012.6-1.7c.8-.4.8-.7.3-1.2l-2.1 1.4c-.3.2-.5.4-.8 0-.3-.2-.6-.5-1-.5-.6 0-1-.4-1.6-.4-.3 0-.4-.3-.4-.7v-2c0-.2 0-.5.2-.7l1-.6 1.6-1.3 1.5-1 1.5-1c.5-.3.8-.7 1.4-1-.7 0-.6-.7-1-1-.7-.8-1.5-1.5-2-2.5-.5-.6-1.2-1-1.9-1.6l-1.5.8c-1 .5-2.1 1-3.3 1.4-1 .4-1 .3-1 1.4V45c0 .6 0 1.2-.6 1.5-.2.1-.4.3-.4.6zm-33.2 2.5c.2-.4.7-.3 1-.6.4-.5 1-.8 1.6-1.2.7-.3 1.2-.8 2-1.1l.5-.6c.2-.2 0-.3-.2-.5 0-.1-.2-.2-.4 0-.3.5-1 .6-1.5 1-.1.3-.5.3-.7.5h-.3c-.7-.6-1.6-.8-2.5-1-.5-.1-.7-.3-.7-.8v-1.7c-.2-.8.4-1.3.9-1.5.7-.3 1.1-1 1.8-1.3.7-.3 1.3-.8 1.9-1.2.4-.3 1-.5 1.3-1 .4-.3.7-.6 1.3-.8-.7-.2-.6-.8-1-1.2-.7-.8-1.5-1.5-2.1-2.5-.4-.6-1-1-1.6-1.6-.4.4-1 .6-1.6.8-.9.5-1.7 1-2.8 1.3l-1 .3c-.4.1-.6.4-.6.8v9.6c0 .4 0 .8-.4 1-.2.3-.5.4-.5.8 2.2 0 4 1.1 5.6 2.5zm23.5-17l-2.4 1.6-.8.8c-.2.1-.2.3 0 .4 0 .2.2.2.4.1l.3-.2c.4-.2.7-.1 1 .4l.3 1.2v7.6c0 .7-.2 1.3-.5 1.8-.1.3-.4.5-.6.7 1.6.7 3 1.4 4.4 2.6.5-.7 1.3-1 1.8-1.6l.2-.1c.6-.1 1-.7 1.4-1v-.3c0-.2-.2-.2-.3-.1-.3 0-.5.3-.6.5-.2.3-.4.3-.7 0-.2-.3-.5-.5-.9-.7-.5-.2-.9-.6-.8-1.3v-2-6c0-.3 0-.6.2-.8.5-.3.9-.8 1.4-1.3.6 1 1.4 1.8 1.9 2.7l2.3-2.1-2.2-3c-.4.3-.7.8-1.2 1-.5.2-.8.7-1.2 1-.4.3-.6.9-1.1 1 0-1-.6-1.7-1.3-2.2l-1-.8zm-34 17c.2-.2.3-.5.6-.6.8-.6 1.7-1.2 2.4-1.9.2-.1.7-.3.4-.6-.3-.2-.6 0-.8.3l-.1.2c-.3.3-.5.3-.8 0-.2-.3-.4-.5-.7-.6-.6-.3-1-.7-1-1.5v-9.5c0-.2 0-.4.2-.5h1.9c1 0 1 0 1-1.2 0-.5 0-.6-.4-.6h-2.2c-.3 0-.4-.1-.4-.5v-3.3c0-.2 0-.5-.2-.6-.3 0-.5.2-.6.4l-.2.2c-.4.8-1 1.3-1.4 2-.8.8-1.3 1.8-2.2 2.5-.3.2-.3.6-.2.9 0 .3.4.2.6.2.9 0 .8.1.8.8v9c0 .6-.3 1.1-.5 1.7-.2.2-.5.3-.6.6 1.5.8 3 1.4 4.3 2.6zm23.1 0c.5-.7 1.4-.9 1.9-1.6l.2-.1c.6-.2.9-.7 1.3-1 .1-.1.2-.2.1-.3-.1-.2-.3-.2-.4-.1-.2 0-.4.3-.6.5-.2.3-.4.3-.6 0l-1-.7c-.4-.2-.8-.5-.8-1v-8.5c0-.2 0-.4.2-.6.5-.3 1-.8 1.4-1.3l2 2.8 2.2-2.3-2.2-3c-.3.4-.6.8-1 1-.7.4-1.3 1-1.9 1.7-.2.1-.3.4-.6.4 0-1-.5-1.7-1.3-2.2l-1-.8c-.3.1-.4.5-.7.6-.8.3-1.3 1-2 1.5-.2 0-.4.3-.5.5v.4c.2.2.4.1.5 0l.2-.1c.5-.3.7-.2 1 .3.3.4.3.9.3 1.3v7.6c0 .6-.1 1.2-.4 1.7l-.7.7c1.6.7 3.1 1.4 4.4 2.6zm48.7 0l.7-.7.7-.4a15 15 0 002.2-2.2v-.1-.3h-.3l-.7.7c-.5.5-.5.4-1.2.2-.7-.1-1.2-.5-1.8-.6-.7-.2-.8-.7-.8-1.2v-3.7-5.6h.3c.8.5 1.5 1 2.4 1.4.4.2.5.1.6-.1.2-.3.2-.6.5-.8a4 4 0 001-1.5l-4-2c-.2-.1-.4-.2-.5 0-.4.5-1 .7-1.4 1.1-.5.5-1.1.9-1.7 1.1-.5.2-.7.6-.7 1v8.6c.1.7 0 1.3-.4 1.8-.1.3-.4.4-.5.8.5.2 1.1-.1 1.7.2.5.3 1.1.3 1.6.7l2.3 1.6zm-11.6 0l.7-.7c.9-.3 1.4-1 2.2-1.6.3-.1.6-.4.3-.7-.2-.3-.4 0-.7 0-.4.3-.7.2-1-.3-.3-.3-.3-.8-.3-1.2v-7.6c0-1 .2-1.9 1-2.4.4-.2.4-.4 0-.7l-2.3-1.5c-.3-.3-.7-.5-1 0l-.3.2c-.8.4-1.4 1.2-2.3 1.6l.7.6c.6.5.8 1.2.8 2v8.9c0 1 .4 2 1.2 2.6l1 .8zm-6-22.5h2.6c.3 0 .5 0 .5-.4v-.5c0-.4-.1-.6-.5-.6h-1.5c-.2 0-.4 0-.4-.2s.2-.3.3-.3c.4-.2.9-.4 1.2-.7 1-.8 1-2 1-3.2 0-.2-.1-.3-.3-.3h-1c-.3.2-.2.6-.2.8v.5c.1.8-.1 1.2-.9 1.5-.8.4-1.4.2-2.1-.2-.6-.3-.3-1-.4-1.4v-.5c.1-.6 0-.7-.6-.7h-.4c-.2 0-.4.1-.4.4v1.5c.2.8.6 1.6 1.3 1.9.3.1.5.4.9.4l.2.3c0 .2-.2.2-.3.2h-1.6c-.3 0-.5.2-.5.6v.2c0 .7 0 .7.7.7h2.4zm-39.5 0c1 .1 1.6-.4 2.3-1a3 3 0 00.8-2.3c0-1.4-1.7-3-3.2-3-1.3 0-3 1.6-3 2.8 0 1 .2 1.8 1 2.5.6.6 1.2 1 2 1zm11 0h1.6c.3 0 .4-.1.4-.5v-.4c0-.4-.1-.6-.5-.6h-3.6c-.6-.5-1-2-.5-2.5.3-.5.7-.9 1.4-.8h2.7c.4 0 .6 0 .5-.5v-.4c0-.4 0-.5-.5-.5H104c-.6 0-1.1 0-1.6.4-1.5 1-2.3 2.4-1.3 4.1.6 1 1.4 1.8 2.7 1.7h1zM87 24v-2.4c0-.8 0-.8-.8-.8-.4 0-.6 0-.6.5v1.3c0 .4-.1.6-.5.5h-2c-.4 0-.6.3-.5.7v.3c0 .4 0 .5.5.5h1.7c1 0 .8 0 .8.8v1.1c0 .4.2.5.6.5h.3c.5 0 .6-.2.6-.6V24zm29.6 3c-.2-.9-.8-1.5-1.2-2.2-.1-.2-.2-.4.1-.5.8-.3 1.3-.8 1.2-1.8v-1c0-.7 0-.7-.6-.7h-.4c-.3 0-.4.1-.4.4v1.5c0 .3-.1.4-.5.4h-2c-.2 0-.5 0-.5.2-.1.4-.2.8 0 1.2.1.2.5.1.7 0 .7 0 1.1.3 1.4 1 .3 1 1 1.8 2.2 1.4zm-50.4-3v2.5c0 .4.1.5.5.5h.5c.3 0 .4-.1.4-.5v-5.2c0-.4-.1-.5-.4-.5h-.5c-.4 0-.5.1-.5.5V24zm14.7-.2v2.7c0 .3 0 .5.4.5h.6c.3 0 .4-.2.4-.4v-5.4c0-.3-.1-.4-.4-.4h-.5c-.4 0-.5 0-.5.5v2.5zm31-2.9h-.7c-.7 0-.7 0-.7.6v4.9c0 .4 0 .7.6.6h.4c.3 0 .4-.1.4-.4V21zm-72.3.7l2 2c.6-.6 1.1-1.3 1.8-1.8l-2-2c-.5.6-1 1.3-1.8 1.8zm8.7-1.8c-.6.6-1.2 1.3-1.9 1.8l1.9 2L50 22c.2-.2.2-.4 0-.6L48.3 20zm93.6 6.8h-1.4l-.3.1c0 .4-.3.6-.4 1-.2.6-.3 1.2-.7 1.8v.4c.2.2.4.2.5.1.3-.2.7-.4.8-.8.4-.9 1-1.6 1.5-2.6z" fill="#d30202"/><path d="M29.3 55.6H170.9c.4.2.2.6.2.9v30.3H29.1c-.1-.3 0-.5 0-.8V56.5v-.9z" fill="#fefefe"/><path class="aus_st5" d="M29.3 125.3c.8 0 1.5.5 2.3.8.4.2.2.6.3.9-1 0-1.8-.4-2.7-.6v-1.2zM29.3 128.5h.3c.9.2 1.7.5 2.6.6.1 0 .3 0 .4.3-1.2 0-2.3 0-3.4-.3v-.6z"/><path class="aus_st6" d="M170.4 139.6l-2.8-.5v-.2c1-.2 1.9 0 2.8.2v.5z"/><path class="aus_st7" d="M171 128c-.5 0-1 0-1.4-.2.4-.2.9-.3 1.4-.3v.4z"/><path class="aus_st6" d="M30.1 139.7c.4-.2.9-.1 1.4 0-.5.3-.9.1-1.3.2l-.1-.2z"/><path class="aus_st7" d="M170.8 125.3h.2v.5h-.2v-.5z"/><path class="aus_st5" d="M46.8 143.2c-.4 0-.7.4-1.2.3-.1-1.4-.8-2.6-1.3-3.9l-.2-.6c-.1-.3 0-.5.4-.6.2 0 .4 0 .5.4v.5c0 1.4.6 2.6 1.6 3.5l.2.4zM91.6 132.9v-.6a4 4 0 002 .5c2.2 0 4.2.5 6 1.5l-.2.2-3.4-1c-1.3-.4-2.6-.4-3.9-.6h-.5zM122 124.5c-.4.2-1 .1-1.4.6-1-.4-2-.8-3-1.4v-.3c1.4.2 2.8.6 4.2 1l.3.1z"/><path class="aus_st6" d="M91.8 136.9v-.3c1.4 0 2.7.3 4.1.3-.8.6-1.6.5-2.5.1-.5-.2-1-.4-1.6-.1zM118.8 118.6v.5a9.8 9.8 0 01-3.6-1c.8 0 1.3.3 2 .3.5 0 1 0 1.6.2zM170.8 125.3v.5a4 4 0 01-1.7.5c.3-.5.7-.7 1.7-1zM87.9 154.3l.2-.6 1.1 1.3a3 3 0 01-1.3-.7zM31.9 127H33c.4-.1.6 0 .6.5-.6-.2-1.2-.1-1.7-.5zM95 101v.4c-.3.1-.1.4-.1.6v1c-.4-.5-.4-1 0-2zM94.7 98.8v.3c-.4.2 0 .7-.3.9-.2-.9-.2-.9.3-1.2zM99.4 134.5l.2-.2c.5.1.8.5 1.2.7h-.4c-.3-.2-.7-.2-1-.5z"/><path class="aus_st8" d="M135.5 151.4c-.3-.1-.4-.4-.5-.7.3 0 .4.2.5.3v.4z"/><path class="aus_st6" d="M117.6 123.4v.3c-.3 0-.4-.2-.6-.4.2-.1.4 0 .6.1z"/><path class="aus_st5" d="M45.6 143.9c.2.3.2.6 0 1v-1zM90.2 131.7h-.6.6zM91.1 131.8c-.2 0-.3 0-.5-.2.2-.1.4-.1.5.2zM91.4 132.1c-.2 0-.3-.1-.3-.3.2 0 .3.1.3.3z"/><path class="aus_st8" d="M100.3 135h.4l.2.1h-.6z"/><path class="aus_st6" d="M119.8 118.7h-.4c.2-.1.3-.1.4 0z"/><path class="aus_st8" d="M101 135.3l.3.1h-.3zM100.9 135.1l.1.2-.2-.1z"/><path class="aus_st5" d="M91.6 132.3l-.1-.2v.2zM45.6 145.7v0z"/><path class="aus_st2" d="M94.2 167.4v-.1h.1v.1h-.1z"/><path class="aus_st9" d="M32.5 39.1v-1.5c0-.3 0-.5.2-.7.2-.1.2-.4.1-.6 0-.3 0-.5.3-.7v-.3c-.1-.6.4-1.1.4-1.7.1-.6.7-1 1.2-1.3l2.6-1.6 3-2c1-.6 1.7-1.3 2.5-1.9l2-1.3c.5-.4 1.1-.3 1.7 0 0 0 .1.2.3.2.8-.2 1.6 0 2.3.3a22 22 0 013.9 1.7c1 .7 2.1 1.5 2.8 2.6.3.6.6 1.2 1 1.6.2 0 .2.2.2.3.2.6.3 1.3.7 1.8 0 1.1.3 2.3-.2 3.4-.1.1-.2.2-.1.3 0 1-.5 1.6-.9 2.4-.5 1-1.2 1.8-2 2.6-.5.7-1 1.5-1.6 2-.9.6-1.6 1.4-2.4 2-1.2.9-2.6 1.4-3.8 2.1-.6-.1-1 .5-1.6.4-.9.6-1.8.3-2.8.3-.5 0-1 .1-1.6-.2-.3-.3-1-.2-1.4-.4-.8-.3-1.6-.6-2.4-1.1l-1.5-1.3c-1.3-1-1.9-2.5-2.4-4-.5-1-.6-2.2-.5-3.4zM44.7 43v2.6c0 .3.2.5.5.5.9 0 1.7-.4 2.5-.5h.1l1-.6c1-.4 1.9-1 2.6-1.7l1-1.3c.6-.6 1-1.3 1.4-2v-.3L53 39l-2.5-1-.3-.1h-2l-.4.1c-.4.5-1 .6-1.6 1-1 .5-1.8 1-1.6 2.3V43zm-.6-5.7v-7.4c0-.5.2-1-.2-1.3-.4-.4-1-.1-1.5-.1-.3 0-.3.1-.3.3v9.3c0 .8 0 1.5-.5 2.2-.2.4-.4.8-.8 1.2l-2 1.9c-.2.2-.2.5 0 .8.4.4.8.5 1.3.7.7.3 1.4 1 2.3.8.2 0 .3.2.4.3.3.2.8.1 1 0 .4 0 .3-.4.3-.7v-8zm.6-6.7v1.7c0 .3.1.6.4.8.8.5 1.5 1.1 2.5 1.1l.2.1c.2.4.5.2.7.2h2.2l2.1-1c.3-.1.6-.4.4-.7-.3-.5-.4-1-.9-1.4l-.7-.4-2-1.3c-.3-.2-.7-.1-1-.3-1-.7-2.2-.6-3.3-1-.4-.1-.5 0-.5.5v1.7zm-6-.1l-1.8 2c-.7.8-1.2 1.6-1.3 2.6v.4c-.4.2-.3.6-.3 1V38l.1.6c.3.2.3.5.3.8l.1.6 1.6 2.7c.1.2.7.4.8.2.2-.7.8-1.2.8-2v-9.8c0-.3 0-.5-.2-.7zm15.4 8.6c.2-.4 0-.8.2-1 .4-.3.3-.7.3-1.1v-.8c.2-.8-.3-1.4-.4-2.2 0-.4-.5-.4-.8-.1-.3.3-.7.4-1.1.6-.4.3-1 .3-1.3.5-.3.2-.6.2-.9.2h-2.5c-.6-.5-1.4-.8-2.1-1.1-.3-.2-.3-.6-.7-.5v5.7c.5-.5 1.2-.6 1.7-1.2.4-.6 1.2-.6 1.8-.8.7-.2 1.4 0 2.2 0h.3c.2.5.6.4 1 .3h.4c.5.7 1.5.7 2 1.5z"/><path class="aus_st10" d="M160.3 36.6c.3 0 .4-.3.6-.5.5-.4.9-1 1.6-1.3l.3-.2c.6-.8 1.5-1.3 2.2-2h.4c.9.5 1.6 1.2 2 2.1.1.7.4 1.3.4 2v9.4a5 5 0 01-1.3 3l-.1.5c-.3.4-.5.8-1.1 1-.1 0-.3 0-.3.2l-1.2.9c-.6.4-1.2.8-1.8 1-.7.3-1.3 1-2.2.9-.2.5-1 0-1.3.6h-.2l-.1-.2c0-.3.2-.5.4-.6.4-.2.7-.6 1.3-.5.3 0 .5-.5.9-.4 1-.9 2.4-1.6 3-3 .2-.6.5-1.2.5-2V37.2c0-.9-.4-1.5-1-2.2h-.3c-1 .7-1.7 1.4-2.5 2.2-.2.2-.2.4-.2.7v7.5c0 .4 0 .7.4 1l.7.6c.3.3.3.5-.1.7-1.1.4-1.9 1.3-3 1.8-.8-.8-1.8-1.5-2.9-2.1l1-1.1c.4-.2.5-.5.5-.9V30.1c0-.8-.3-1.4-.8-2-.4-.2-.7-.6-1-1 .7-.2 1 .4 1.5.6.6.1 1 .5 1.4 1l2-1.4 2.2-.7.1.2-1.3 1.4c-.5.5-.7 1.2-.7 1.8v6.6zM63.5 42.8c-1-.3-1.8-.8-2.7-1.2-.3-.2-.4-.4-.4-.8v-5c0-.3 0-.5.3-.6a9 9 0 003.8-2.6c.2-.2.4-.2.6 0 .8.5 1.7.6 2.5.9l1.5.3a4 4 0 001.7-.3c.6-.3.7-.6.2-1.1-.3-.4-.8-.7-.7-1.3 0-.4.3-.9.6-1 .4-.1.7 0 1 .4.2.3.6.5.5 1-.1.4 0 .8-.2 1.2a7 7 0 01-1.6 2.2c-.4.3-.5.7-.7 1-.3.6-.8 1-1 1.5-.2.5-.6.7-1 1.1.3.3.6.7 1 .8.9.3 1.4.9 2.1 1.3.3 0 .4.3.4.6v5.2c0 .1 0 .4-.2.4-.9-.1-1.4.6-2 .8-1 .3-1.5 1-2.2 1.7l-.1.3c-.9-.6-1.8-1-2.6-1.4-.6-.2-1.5-.2-2.2 0-.5.1-1 .4-1.4 1-.2.3-.5.4-1 .3-.3 0-.4-.2-.2-.6l.3-.3c.2-.3.8-.3.9-.6 0-.4.3-.6.6-.9.5-.5.7-1.1 1.2-1.7.5-.6.6-1.4 1.4-1.8l.4.1c-.2.2-.5.3-.5.5-.1.5-.5.7-.7 1-.1.3-.6.7-.1 1h.1c.3-.1.5-.4.9-.5 1.1 0 2.2.2 3.2.7.2.1.4.4.7.3v-3.5c0-.6-.2-1-.7-1.3l-.9-.5c-.1-.1-.3 0-.4.1l-.4.6c-.1.6-.7 1-1 1.4l-.3-.1V43h-.3-.3l-.1-.3zm5.5-6.6h-1c-1.2.1-2.3 0-3.3-.7l-.4-.2c-.3-.2-.4 0-.4.3v3.6c0 .4.1.6.5.7l.7.5c.4.4.4.4 1 0 0-.2.2-.3.3-.4.5-.9 1-1.6 1.7-2.4l1-1.4z"/><path class="aus_st11" d="M122.8 47c0-.2.3-.3.4-.5.5-.3.6-.9.6-1.5v-8.8c0-1 0-1 1-1.4 1.2-.3 2.3-.8 3.3-1.4l1.5-.8c.7.6 1.4 1 1.8 1.6.6 1 1.4 1.7 2.2 2.4.3.4.2 1 .9 1.2-.6.2-1 .6-1.4 1l-1.5 1c-.5.2-1 .6-1.5 1-.6.3-1.1.8-1.6 1.2l-1 .6c-.2.2-.3.5-.3.7v2c0 .4.2.7.5.7.6 0 1 .5 1.5.4.5 0 .8.3 1 .5.4.4.6.2.9 0a18 18 0 002.1-1.4c.5.5.5.8-.3 1.2l-2.6 1.7c-.6.4-1.1 1-1.9 1.1-1.6-1.3-3.4-2.4-5.6-2.4zm4.6-5.3c.3-.4.8-.6 1.2-1l2.3-1.5c.5-.3.5-.5.1-1-1-1.2-2.5-2.1-3.3-3.6h-.3c-.1 0-.2 0-.2.2v6.4c0 .2 0 .3.2.5z"/><path class="aus_st10" d="M89.6 49.6C88 48.2 86.2 47 84 47c0-.4.3-.5.5-.7.4-.3.5-.7.5-1.1v-8.9-.7c-.1-.4.1-.7.5-.8.4 0 .7-.3 1-.3 1-.2 1.9-.8 2.8-1.2.6-.3 1.2-.5 1.6-1 .6.7 1.2 1.1 1.6 1.7.6 1 1.4 1.7 2.1 2.5.4.4.3 1 1 1.2-.6.2-.9.5-1.3.9l-1.3 1-1.9 1.1c-.7.4-1.1 1-1.8 1.3-.5.3-1 .7-1 1.5v1.7c.1.5.3.7.8.8 1 .2 1.8.4 2.5 1 .1.1.3.1.4 0 .1-.2.5-.2.7-.4.4-.5 1-.6 1.4-1 .2-.3.3-.2.5 0 0 .1.3.2 0 .5 0 .1-.2.4-.5.5l-1.9 1.1c-.6.4-1.2.7-1.7 1.2-.3.3-.7.2-.9.6zm-1.2-7.8c.5-.5 1-.7 1.4-1 .7-.6 1.4-1.2 2.2-1.6.6-.3.6-.5.1-1L90 35.9c-.3-.3-.8-.6-1-1.2l-.3-.2c-.3 0-.2.2-.2.4v7z"/><path class="aus_st11" d="M113.1 32.5l1 .7c.7.5 1.2 1.3 1.3 2.3.5-.2.7-.7 1-1 .5-.3.8-.8 1.3-1 .5-.2.7-.7 1.2-1 .6 1 1.5 2 2.2 3l-2.3 2.1c-.5-1-1.3-1.7-2-2.7-.4.5-.8 1-1.3 1.3-.3.2-.2.5-.2.8v8c0 .6.3 1.1.8 1.3l1 .7c.2.3.3.3.6 0 .1-.2.3-.5.6-.5h.4l-.1.4c-.5.3-.8.8-1.4 1h-.2c-.5.8-1.3 1-1.8 1.7-1.3-1.2-2.9-1.9-4.4-2.6l.6-.7c.3-.6.5-1.1.5-1.8V37c0-.4 0-.8-.3-1.3-.3-.4-.6-.5-1-.3l-.3.2c-.2.1-.3 0-.4 0-.2-.2-.2-.4 0-.5l.8-.8 2.4-1.7z"/><path class="aus_st10" d="M79 49.6c-1.2-1.2-2.8-1.8-4.3-2.5.1-.4.4-.5.6-.7.2-.5.5-1 .5-1.7v-9c0-.6.1-.8-.8-.8-.2 0-.5.1-.6-.2 0-.3-.1-.7.2-.9.9-.7 1.4-1.7 2.2-2.6.4-.6 1-1.1 1.4-1.9l.2-.2c.1-.2.3-.5.6-.4.3.1.2.4.2.6v3.4c0 .3 0 .5.4.4h2.2c.4 0 .5.2.5.5v.1c0 1.2 0 1.2-1.2 1.2h-1.9v10c0 .8.3 1.2.9 1.5.3.1.5.3.7.6.3.3.5.3.8 0l.2-.2c.2-.2.4-.5.7-.3.3.3-.2.5-.4.6-.7.7-1.6 1.3-2.4 1.9-.3.1-.4.4-.7.6z"/><path class="aus_st9" d="M102.2 49.6c-1.3-1.2-2.8-1.9-4.4-2.6l.7-.7c.3-.5.5-1.1.4-1.8V37c0-.4 0-.9-.3-1.3-.3-.5-.5-.6-1-.4l-.2.2c-.1.1-.3.2-.4 0a.4.4 0 010-.5l.4-.5c.8-.3 1.2-1.1 2-1.4.3-.1.4-.5.8-.6l1 .8c.7.5 1.3 1.2 1.2 2.2.4 0 .4-.3.6-.4.6-.7 1.2-1.4 2-1.8.3-.1.6-.5 1-.8l2 3-2.2 2.2c-.5-1-1.3-1.8-1.9-2.8-.5.5-.9 1-1.4 1.3-.2.2-.1.4-.1.6v8.4c0 .6.3 1 .7 1.1l1 .7c.2.3.4.2.6 0l.6-.5h.4v.3c-.5.4-.8 1-1.4 1l-.2.2c-.5.7-1.4 1-1.9 1.6z"/><path class="aus_st10" d="M151 49.6c-.8-.6-1.7-1-2.4-1.6-.5-.4-1.1-.4-1.6-.7-.6-.3-1.2 0-1.7-.2 0-.3.4-.5.5-.7.3-.6.5-1.2.5-1.9V36c0-.5.1-.8.6-1 .6-.3 1.2-.7 1.7-1.2.4-.4 1-.6 1.4-1.1.1-.2.3-.1.4 0l4 2a4 4 0 01-1 1.5l-.4.8c-.1.2-.2.4-.6.2l-2.4-1.5h-.3V45c0 .6.1 1 .8 1.2.6.1 1.1.5 1.8.7.7.1.7.2 1.2-.3l.7-.6c0-.1.1-.1.2 0 .1 0 .2 0 .1.2a15 15 0 01-2.2 2.3l-.7.4-.7.7z"/><path class="aus_st11" d="M139.3 49.6l-1-.8a3.4 3.4 0 01-1.2-2.6v-9c0-.7-.2-1.4-.8-2-.2 0-.4-.3-.7-.5 1-.4 1.5-1.2 2.3-1.6l.2-.1c.4-.6.8-.4 1.1-.1l2.4 1.6c.3.2.3.4 0 .6-1 .5-1.2 1.3-1.1 2.4V45c0 .5 0 .9.3 1.3s.5.5 1 .3c.2-.2.5-.4.7-.1.3.3 0 .6-.3.7-.8.5-1.4 1.3-2.2 1.6-.3.2-.3.5-.7.7z"/><path class="aus_st8" d="M75.6 23.2c.7.2 1 .9 1.5 1.4.3.3 0 1.3-.3 1.7-.6.6-1.2.9-2 .8h-3.3c-.5 0-.5 0-.5-.6v-.4c0-.3 0-.5.4-.5h3.8c.5 0 .6-.1.5-.5 0-.4-.3-.4-.5-.4h-2.8c0-.2-.2-.3-.4-.3-.9-.5-1.3-1.2-1-2.2l.2-.4.8-.7c.1-.2.3-.3.6-.3h2.3c.4 0 .6.2.5.5 0 .4.2.8-.1 1h-2.6c-.4 0-.3.3-.3.6 0 .2 0 .4.3.4l2.9-.1zM133.3 27h-2.4c-.7 0-.7 0-.7-.6v-.2c0-.4.2-.6.5-.6h1.6c.1 0 .3 0 .3-.2s0-.3-.2-.3c-.4 0-.6-.3-.8-.4-.8-.4-1.2-1-1.3-1.9v-1.5c0-.3 0-.4.3-.4h.4c.7 0 .7 0 .7.7v.4c0 .6-.3 1.2.3 1.5.7.4 1.3.6 2.1.2.8-.3 1-.8 1-1.5v-.5c0-.3-.2-.6 0-.8h1.2l.2.2c0 1.2 0 2.5-1 3.3-.3.3-.8.5-1.2.6-.1.1-.3.1-.3.4 0 .2.3.2.5.2h1.4c.4 0 .6.1.5.5v.6c0 .3-.1.4-.5.4h-2.6zM126.3 25.6c.5.4.3.9.2 1.3 0 .3-.3.2-.5.2h-5c-.6 0-.6 0-.6-.6v-5c0-.4 0-.6.5-.6h4.8c1 0 1 0 .8 1 0 .1 0 .4-.2.5h-4.5V25c0 .4 0 .6.5.5h4zM62.3 25.6c.4.4.2.9.2 1.3 0 .2-.2.2-.4.2h-5.2c-.4 0-.6-.1-.6-.5v-5.3c0-.3.1-.4.5-.4H62l.4.1c0 .5.2 1-.2 1.4H58c-.2 0-.4 0-.4.3v2.6c0 .3.1.4.4.4h4.2z"/><path class="aus_st11" d="M93.8 27c-1 .2-1.5-.3-2.2-.9a3 3 0 01-.9-2.5c0-1.2 1.7-2.7 3-2.7 1.5 0 3.2 1.5 3.2 2.9A3 3 0 0196 26c-.6.6-1.3 1.1-2.2 1zm0-1.4c1.3 0 1.7-.4 1.7-1.6 0-1.2-.5-1.7-1.7-1.7s-1.7.5-1.7 1.8c0 1.2.5 1.5 1.7 1.5z"/><path class="aus_st8" d="M104.8 27h-1c-1.4.2-2.2-.6-2.8-1.6-1-1.7-.2-3.1 1.3-4.2.5-.3 1-.4 1.6-.4h2.4c.4 0 .6.2.5.6v.4c0 .4 0 .5-.5.5h-2.7c-.7 0-1 .3-1.4.8-.4.6-.1 2 .5 2.4l.7.1h2.9c.4 0 .6.2.5.6v.4c0 .3 0 .5-.4.5h-1.6z"/><path class="aus_st11" d="M87 24.1v2.4c0 .4 0 .7-.5.6a2 2 0 00-.4 0c-.3 0-.5 0-.5-.5v-1c0-.9.2-.9-.8-.9H83c-.4 0-.6-.1-.5-.5V24c-.1-.4 0-.6.5-.6h2c.4 0 .5-.2.5-.6v-1.2c0-.5.2-.6.6-.6.8 0 .8 0 .8.9V24z"/><path class="aus_st8" d="M116.6 27c-1.3.4-1.9-.4-2.2-1.4-.3-.7-.7-1-1.4-.9-.2 0-.6.1-.7-.1v-1.2c0-.2.3-.2.4-.2h2.2c.3 0 .4 0 .4-.4v-1.5c0-.3.1-.4.4-.4h.4c.6 0 .6 0 .6.7v1c.1 1-.3 1.5-1.2 1.8-.3.1-.2.3-.1.5.3.8 1 1.3 1.2 2.2z"/><path class="aus_st7" d="M62.3 25.6H58c-.3 0-.4 0-.4-.4v-2.5c0-.3.2-.4.4-.4h4.2v1H59.2c-.3 0-.5 0-.5.4v.5c0 .4.1.5.6.5h3v1zM126.3 25.6h-4c-.5 0-.5-.1-.5-.5v-2.8h4.5c0 .4.2.6.1 1h-2.9c-.7 0-.8 0-.7.8 0 .6 0 .6.7.6h2.8v1z"/><path class="aus_st11" d="M66.2 24v-2.6c0-.4.1-.5.5-.5h.5c.3 0 .4.1.4.5v5.3c0 .3 0 .5-.4.4h-.5c-.4 0-.5-.1-.5-.5V24zM80.9 24v-2.6c0-.4.1-.5.5-.5h.5c.3 0 .4.1.4.4v5.4c0 .2-.1.4-.4.4h-.6c-.4 0-.4-.2-.4-.5V24zM112 21v5.7c0 .3-.2.4-.5.4h-.4c-.5 0-.6-.2-.6-.6v-5c0-.6 0-.6.7-.6l.7.1zM39.6 21.7c.7-.5 1.3-1.2 1.8-1.7l2 1.9c-.7.5-1.2 1.2-1.8 1.8l-2-2zM48.3 19.9l1.7 1.7c.2.2.2.3 0 .5l-1.7 1.5-1.9-1.9c.7-.5 1.3-1.2 1.9-1.8z"/><path class="aus_st8" d="M126.3 24.8c-1-.2-1.9 0-2.8 0-.7 0-.7 0-.7-.7 0-.8 0-.8.7-.8h3c0 .5.2 1-.2 1.5zM62.3 24.8c-1-.2-2 0-3 0-.4 0-.6-.2-.6-.7v-.4c0-.4.2-.5.5-.5H62.3c.3.5.3 1 0 1.6zM142 26.7c-.6 1-1.2 1.7-1.6 2.6-.1.4-.5.6-.8.8-.1.1-.3 0-.4 0a.3.3 0 010-.5c.3-.5.4-1.2.6-1.9 0-.3.4-.5.4-.9l.3-.2 1.4.1z"/><path class="aus_st7" d="M72.4 24.7h2.8c.2 0 .5 0 .5.4s0 .5-.4.5h-3v-1zM75.6 23.2h-2.9c-.3 0-.3-.1-.3-.4 0-.2 0-.5.3-.5h2.6c0 .4.4.5.3.9z"/><path class="aus_st8" d="M64.3 43.8l-.4-.1.3-.4.3.2c0 .1 0 .2-.2.3zM64 43l.2.1h-.3zM63.5 42.8s0 .2.2.2c-.2 0-.2 0-.2-.2z"/><path class="aus_st12" d="M44.7 43c0-.6.1-1.1 0-1.6-.2-1.3.6-1.9 1.6-2.5.5-.3 1.2-.4 1.6-.9.1-.1.3 0 .4 0h2.3l2.5 1 .7.7v.3c-.4.7-.8 1.5-1.4 2-.3.4-.6 1-1 1.3-.7.8-1.6 1.3-2.5 1.7-.4.2-.7.5-1 .5l-.2.1c-.9 0-1.6.6-2.5.5-.4 0-.5-.2-.5-.5V43zM44 37.3v8c0 .3.2.6-.1.7-.3.1-.7.2-1 0-.2-.1-.3-.3-.5-.3-1 .1-1.6-.5-2.3-.8-.5-.2-1-.3-1.2-.7-.3-.4-.3-.6 0-.8l2-2 .7-1.1a4 4 0 00.5-2.2v-9.3c0-.2 0-.4.3-.3.5 0 1.1-.3 1.5 0 .4.3.2 1 .2 1.4v7.4zM44.8 30.6v-1.7c0-.5 0-.6.5-.5 1 .4 2.3.3 3.3 1 .3.2.7 0 1 .3l2 1.3.7.4c.5.3.6.9.9 1.4.2.3-.2.6-.4.7l-2 1h-2.3c-.3 0-.6.2-.7-.2l-.2-.1c-1 0-1.8-.6-2.5-1.1-.3-.2-.4-.5-.4-.8v-1.7z"/><path class="aus_st2" d="M38.8 30.5c.2.2.2.4.2.7V41c0 .8-.6 1.3-.8 2 0 .2-.7 0-.8-.2L35.8 40l-.2-.6c0-.3.1-.6-.2-.8l-.1-.6v-1.7c0-.3 0-.7.2-1l.1-.3c.1-1 .6-1.9 1.3-2.6l1.9-2z"/><path class="aus_st5" d="M54.1 39.1c-.4-.8-1.4-.8-2-1.4 0-.2-.2-.1-.4-.1-.3 0-.7.2-1-.3h-.2c-.8 0-1.5-.2-2.2 0-.6.2-1.4.2-1.8.8-.5.6-1.2.7-1.7 1.2v-2.8-2.9c.4 0 .4.3.7.5.7.3 1.5.6 2.1 1l.5.1h2c.3 0 .6 0 1-.2.3-.2.8-.2 1.2-.5.4-.2.8-.3 1.1-.6.3-.3.7-.3.8.1 0 .8.6 1.4.4 2.2v.8c0 .4 0 .8-.3 1.1-.2.2 0 .6-.2 1zM69 36.2l-.9 1.4c-.7.7-1.2 1.5-1.7 2.4l-.4.3c-.5.5-.5.5-1 0l-.6-.4c-.4 0-.6-.3-.6-.7v-3.6c0-.4.2-.5.5-.3l.4.2c1 .6 2.1.8 3.3.7h1zM64.3 43.8l.3-.3c.2-.5.8-.9 1-1.4 0-.3.2-.4.3-.6.1-.2.3-.2.4-.1l1 .5c.3.3.7.7.6 1.3v3.5c-.3 0-.5-.2-.7-.3-1-.5-2.1-.7-3.2-.7-.4 0-.6.4-.9.5H63c-.4-.4 0-.7.1-1 .2-.3.6-.5.7-1 0-.2.3-.3.5-.5z"/><path class="aus_st8" d="M63 46.2h.1-.1z"/><path class="aus_st12" d="M127.4 41.7c-.2-.2-.2-.3-.2-.5V35v-.2c0-.1 0-.2.2-.3l.3.1c.8 1.5 2.3 2.4 3.3 3.6.4.5.4.7 0 1-1 .4-1.7 1-2.4 1.6-.4.3-.9.5-1.2.9z"/><path class="aus_st5" d="M88.4 41.9v-7c0-.1 0-.3.2-.4.1 0 .3 0 .3.2.2.6.7.9 1 1.3l2.2 2.2c.5.5.5.7 0 1-.9.4-1.6 1-2.3 1.6-.4.3-.9.5-1.4 1z"/><path class="aus_st12" d="M93.8 25.6c-1.2 0-1.7-.3-1.7-1.5 0-1.3.5-1.8 1.7-1.8s1.7.5 1.7 1.7-.4 1.6-1.7 1.6z"/></svg>