<?xml version="1.0" encoding="utf-8"?>
<!-- Generator: Adobe Illuaus_strator 24.1.0, SVG Export Plug-In . SVG Version: 6.00 Build 0)  -->
<svg version="1.1" id="Layer_1" xmlns="http://www.w3.org/2000/svg" xmlns:xlink="http://www.w3.org/1999/xlink" x="0px"
	y="0px" viewBox="0 0 200 200" aus_style="enable-background:new 0 0 200 200;" xml:space="preserve">
	<style type="text/css">
		.aus_st0 {
			fill: #020101;
		}

		.aus_st1 {
			fill: #FEFDFD;
		}

		.aus_st2 {
			fill: #D40202;
		}

		.aus_st3 {
			fill: #D30202;
		}

		.aus_st4 {
			fill: #FEFEFE;
		}

		.aus_st5 {
			fill: #D20B0A;
		}

		.aus_st6 {
			fill: #F05050;
		}

		.aus_st7 {
			fill: #BC0808;
		}

		.aus_st8 {
			fill: #F9EEEC;
		}

		.aus_st9 {
			fill: #FCF8F7;
		}

		.aus_st10 {
			fill: #FDFAF9;
		}

		.aus_st11 {
			fill: #FDF7F6;
		}

		.aus_st12 {
			fill: #D20606;
		}
	</style>
	<g>
		<path class="aus_st0" d="M177.99,13.82c0,40.44,0,80.89,0,121.33c-0.39-0.07-0.4,0.17-0.4,0.45c0,1.19,0,2.39,0,3.58
		c0,0.2,0.06,0.48-0.05,0.58c-0.42,0.37-0.24,0.84-0.27,1.27c-0.03,0.39,0.13,0.87-0.11,1.16c-0.27,0.32-0.22,0.61-0.23,0.94
		c-0.01,0.45,0.15,1.01-0.06,1.34c-0.31,0.49-0.14,0.99-0.3,1.43c-0.24,0.66-0.38,1.31-0.35,2c0,0.05-0.03,0.13-0.07,0.15
		c-0.33,0.18-0.21,0.49-0.23,0.76c-0.01,0.17,0.04,0.43-0.05,0.49c-0.4,0.3-0.27,0.7-0.29,1.08c-0.01,0.11,0,0.28-0.07,0.32
		c-0.36,0.24-0.26,0.59-0.28,0.92c-0.01,0.22-0.09,0.4-0.19,0.61c-0.24,0.47-0.42,1-0.48,1.53c-0.08,0.69-0.33,1.3-0.61,1.9
		c-0.3,0.63-0.59,1.31-0.72,1.96c-0.17,0.82-0.88,1.42-0.82,2.29c-0.9,1.53-1.61,3.15-2.4,4.73c-0.35,0.7-0.6,1.49-1.07,2.06
		c-0.6,0.72-0.93,1.58-1.47,2.32c-0.57,0.8-1.05,1.71-1.64,2.47c-0.61,0.79-1.18,1.64-1.91,2.34c-0.83,0.79-1.5,1.76-2.29,2.57
		c-1.86,1.89-3.65,3.86-5.73,5.54c-1.04,0.84-2.03,1.77-3.05,2.65c-0.06,0.06-0.13,0.12-0.2,0.15c-0.82,0.33-1.34,1.07-2.11,1.48
		c-0.59,0.32-1.07,0.82-1.62,1.18c-0.78,0.52-1.63,0.98-2.47,1.4c-2.63,1.34-5.24,2.73-8,3.82c-0.24,0.1-0.39,0.34-0.67,0.35
		c-0.86,0.02-1.5,0.66-2.33,0.84c-0.47,0.1-0.99,0.3-1.47,0.48c-0.79,0.3-1.63,0.49-2.37,0.92c-0.19,0.11-0.36,0.17-0.55,0.14
		c-0.64-0.07-1.15,0.34-1.74,0.47c-0.68,0.15-1.3,0.58-2.04,0.56c-0.11,0-0.27,0.01-0.32,0.07c-0.25,0.35-0.6,0.26-0.93,0.27
		c-0.17,0-0.37-0.04-0.48,0.12c-0.21,0.28-0.5,0.22-0.78,0.22c-0.25,0-0.51-0.03-0.7,0.22c-0.12,0.16-0.3,0.13-0.47,0.13
		c-0.78-0.03-1.47,0.56-2.28,0.35c-0.05-0.01-0.13,0.02-0.16,0.05c-0.29,0.41-0.72,0.26-1.1,0.28c-0.4,0.02-0.91-0.14-1.17,0.06
		c-0.48,0.36-0.95,0.25-1.44,0.29c-0.14,0.01-0.33,0-0.4,0.09c-0.26,0.33-0.61,0.24-0.94,0.25c-0.45,0.01-1.03-0.15-1.33,0.07
		c-0.49,0.35-0.96,0.25-1.44,0.27c-0.62,0.02-1.25,0-1.88,0.01c-0.19,0-0.44-0.07-0.56,0.12c-0.22,0.34-0.54,0.25-0.84,0.26
		c-0.63,0.01-1.25-0.01-1.88,0c-0.34,0-0.57,0.1-0.35,0.5c-3.75,0-7.51,0-11.26,0c0.04-0.33-0.02-0.53-0.44-0.52
		c-1.16,0.02-2.33,0.01-3.5,0c-0.23,0-0.55,0.06-0.66-0.06c-0.4-0.43-0.89-0.28-1.35-0.29c-0.62-0.02-1.25-0.01-1.88-0.01
		c-0.17,0-0.41,0.04-0.5-0.05c-0.39-0.44-0.89-0.26-1.35-0.29c-0.45-0.03-1.03,0.15-1.33-0.07c-0.51-0.36-1.02-0.22-1.52-0.27
		c-0.17-0.02-0.4,0.05-0.5-0.03c-0.56-0.52-1.24-0.22-1.85-0.3c-0.25-0.03-0.55,0.1-0.72-0.14c-0.19-0.27-0.45-0.23-0.69-0.2
		c-0.87,0.09-1.63-0.58-2.52-0.36c-0.42-0.45-0.97-0.32-1.5-0.33c-0.18,0-0.34-0.01-0.45-0.18c-0.13-0.21-0.34-0.18-0.54-0.16
		c-0.71,0.07-1.28-0.55-2.01-0.37c-0.3-0.42-0.79-0.2-1.15-0.34c-0.45-0.18-0.92-0.28-1.38-0.44c-0.5-0.18-0.99-0.46-1.5-0.53
		c-0.52-0.07-0.92-0.55-1.48-0.41c-0.23-0.47-0.79-0.12-1.05-0.38c-0.43-0.42-1.1-0.15-1.48-0.6c-0.85,0.01-1.48-0.62-2.28-0.81
		c-0.55-0.13-1.11-0.56-1.66-0.83c-1.09-0.53-2.19-1.06-3.26-1.63c-1.07-0.57-2.29-0.89-3.18-1.79c-0.88-0.2-1.5-0.87-2.26-1.29
		c-0.22-0.12-0.53-0.03-0.68-0.29c-0.32-0.57-1.14-0.51-1.43-1.11c-0.57,0.02-0.74-0.63-1.18-0.73c-0.49-0.11-0.73-0.45-0.98-0.76
		c-0.29-0.36-0.78-0.27-1.05-0.66c-0.48-0.69-1.44-0.86-1.9-1.61c-0.01-0.02-0.04-0.04-0.07-0.05c-0.62-0.04-0.9-0.56-1.24-0.94
		c-0.39-0.43-0.95-0.53-1.35-0.96c-1.45-1.57-3.11-2.94-4.37-4.7c-0.36-0.5-0.95-0.84-1.29-1.35c-0.6-0.91-1.18-1.81-1.95-2.58
		c-0.23-0.23-0.39-0.55-0.58-0.8c-0.41-0.53-0.64-1.18-1.16-1.63c-0.23-0.2-0.37-0.47-0.53-0.73c-0.28-0.47-0.59-0.93-0.91-1.38
		c-0.4-0.56-0.83-1.1-1.13-1.73c-0.26-0.55-0.58-1.07-0.86-1.62c-0.38-0.74-0.86-1.45-1.1-2.23c-0.29-0.94-0.74-1.82-1.04-2.75
		c-0.08-0.26-0.33-0.43-0.33-0.67c0-0.87-0.8-1.47-0.78-2.34c-0.43-0.38-0.14-1.06-0.6-1.42c0.13-0.44-0.31-0.72-0.33-1.09
		c-0.02-0.45-0.21-0.85-0.29-1.26c-0.22-1.04-0.89-1.97-0.75-3.09c0.02-0.14-0.02-0.3-0.15-0.38c-0.2-0.14-0.2-0.32-0.18-0.53
		c0.08-0.81-0.57-1.51-0.38-2.34c0.01-0.04-0.03-0.13-0.06-0.15c-0.39-0.24-0.2-0.6-0.22-0.92c-0.02-0.39,0.15-0.85-0.14-1.15
		c-0.24-0.26-0.21-0.5-0.21-0.77c-0.01-0.4,0.13-0.88-0.11-1.16c-0.31-0.36-0.25-0.72-0.25-1.1c-0.01-0.48,0.01-0.97,0-1.45
		c0-0.22,0.05-0.49-0.15-0.64c-0.27-0.19-0.2-0.45-0.2-0.69c0-1.08-0.01-2.16,0.01-3.24c0.01-0.52-0.23-0.65-0.68-0.56
		c0-40.1,0-80.2,0-120.31c0.58,0.01,1.16,0.1,1.68-0.31c0.37-0.29,0.92-0.23,1.26-0.46c0.47-0.31,1.06-0.14,1.49-0.54
		c0.14-0.13,0.47-0.07,0.74-0.25c0.56-0.39,1.27-0.59,1.92-0.73c0.52-0.12,1.01-0.36,1.54-0.46c0.65-0.12,1.25-0.53,1.95-0.59
		c0.08-0.01,0.15-0.07,0.22-0.11c0.54-0.31,1.04-0.73,1.74-0.57c0.09,0.02,0.21-0.05,0.31-0.11c0.47-0.25,0.91-0.51,1.46-0.63
		c0.39-0.08,0.89-0.15,1.2-0.38c0.32-0.23,0.58-0.28,0.92-0.25c0.24,0.03,0.41-0.05,0.61-0.2c0.3-0.22,0.7-0.52,1-0.47
		c0.69,0.14,1.17-0.54,1.83-0.36c0.46-0.67,1.39-0.05,1.87-0.68c0.64,0.08,1.14-0.6,1.82-0.35c0.05,0.02,0.16-0.06,0.2-0.13
		c0.14-0.24,0.37-0.26,0.6-0.21c0.65,0.15,1.1-0.49,1.73-0.4c0.21-0.4,0.58-0.25,0.9-0.26c0.28-0.01,0.64,0.15,0.81-0.09
		c0.27-0.36,0.58-0.27,0.91-0.25c0.17,0.01,0.37,0.06,0.47-0.11c0.18-0.33,0.45-0.25,0.74-0.24c0.33,0,0.73,0.17,0.97-0.12
		c0.23-0.29,0.48-0.22,0.76-0.22c0.31-0.01,0.71,0.16,0.9-0.08c0.28-0.36,0.59-0.22,0.92-0.24c0.39-0.02,0.87,0.17,1.15-0.11
		c0.28-0.28,0.54-0.23,0.84-0.23c0.39,0,0.93,0.17,1.15-0.08C58.95,2.88,59.3,3.02,59.68,3c0.34-0.02,0.78,0.15,0.99-0.09
		c0.32-0.37,0.66-0.24,1-0.25c0.43-0.01,0.97,0.14,1.25-0.06c0.54-0.4,1.07-0.23,1.61-0.27c0.37-0.03,0.86,0.14,1.09-0.04
		c0.62-0.49,1.28-0.24,1.92-0.3c0.3-0.03,0.63,0.08,0.83-0.28c0.08-0.14,0.25-0.08,0.39-0.08c0.31,0.01,0.63,0.06,0.94,0.01
		c0.86-0.11,1.8,0.33,2.57-0.38c0.07-0.07,0.27,0.01,0.41,0.01c0.82,0,1.65,0,2.47-0.01c0.2,0,0.46,0.07,0.56-0.11
		c0.2-0.34,0.47-0.22,0.74-0.22c1.51,0,3.01-0.01,4.52-0.01c0.2,0,0.45,0.05,0.55-0.14c0.17-0.32,0.41-0.22,0.66-0.22
		c1.99,0,3.98-0.01,5.97,0c0.42,0,0.66-0.09,0.59-0.56c5.35,0,10.69,0,16.04,0c-0.2,0.55,0.17,0.55,0.54,0.55
		c2.39,0,4.78,0.01,7.17,0.01c0.25,0,0.54-0.14,0.72,0.1c0.21,0.28,0.49,0.25,0.77,0.25c1.85,0.01,3.7,0.01,5.54,0.02
		c0.14,0,0.35-0.04,0.41,0.03c0.36,0.49,0.88,0.27,1.34,0.33c1.09,0.15,2.24-0.29,3.29,0.33c0.09,0.05,0.22,0.02,0.34,0.02
		c0.43,0,0.86-0.03,1.28,0.01c1.04,0.11,2.14-0.29,3.13,0.31c0.11,0.06,0.28,0.02,0.42,0.02c0.65,0,1.31,0,1.96,0
		c0.17,0,0.41-0.06,0.49,0.03c0.45,0.46,1.01,0.28,1.53,0.32c0.54,0.04,1.12-0.17,1.6,0.29c0.1,0.09,0.33,0.04,0.5,0.04
		c0.57,0,1.14,0,1.71,0c0.17,0,0.38-0.09,0.49,0.05c0.39,0.44,0.89,0.27,1.36,0.3c0.2,0.01,0.48-0.09,0.58,0.01
		c0.53,0.53,1.17,0.29,1.77,0.31c0.14,0,0.32-0.04,0.4,0.07c0.3,0.39,0.72,0.26,1.1,0.29c0.2,0.02,0.45-0.09,0.58,0.06
		c0.32,0.37,0.72,0.26,1.1,0.28c0.2,0.01,0.47-0.05,0.58,0.06c0.38,0.38,0.84,0.27,1.28,0.29c0.17,0.01,0.36-0.04,0.49,0.08
		c0.53,0.5,1.35,0.05,1.85,0.59c0.72-0.14,1.31,0.53,2.04,0.33c0.05-0.01,0.13,0.01,0.16,0.05c0.29,0.4,0.71,0.27,1.1,0.28
		c0.22,0.01,0.5-0.08,0.65,0.11c0.22,0.28,0.5,0.21,0.78,0.21c0.25,0.01,0.48,0.12,0.71,0.19c0.57,0.17,1.1,0.54,1.73,0.5
		c0.23-0.02,0.41,0.05,0.63,0.17c0.42,0.24,0.95,0.45,1.39,0.45c0.68,0,1.28,0.28,1.82,0.51c0.94,0.39,1.94,0.52,2.89,0.85
		c0.5,0.17,1.05,0.35,1.55,0.51c0.82,0.27,1.65,0.53,2.46,0.84c0.7,0.26,1.44,0.51,2.16,0.72c0.25,0.08,0.35,0.4,0.65,0.36
		c0.56-0.08,0.95,0.5,1.52,0.37c0.73,0.57,1.67,0.63,2.5,0.93c0.84,0.31,1.61,0.83,2.49,0.96C176.9,13.48,177.38,13.88,177.99,13.82
		z M29.25,55.61c-0.16,0.29-0.09,0.61-0.09,0.92c-0.01,9.81-0.01,19.62-0.01,29.43c0,0.28-0.05,0.57,0.08,0.84
		c-0.02,0.31-0.06,0.62-0.06,0.93c-0.01,9.85-0.01,19.71-0.02,29.56c0,0.6-0.01,1.19,0.1,1.78c-0.03,0.14-0.08,0.27-0.08,0.41
		c-0.01,1.7-0.02,3.4-0.02,5.1c0,0.23-0.01,0.45,0.1,0.67c-0.12,0.39-0.08,0.79-0.03,1.19c-0.06,0.7-0.18,1.39,0.06,2.08
		c-0.02,0.2-0.04,0.4-0.06,0.6c-0.12,0.96-0.05,1.93-0.09,2.89c0,0.11,0,0.27,0.07,0.32c0.38,0.27,0.25,0.66,0.25,1.01
		c0.01,0.94,0,1.87,0,2.81c0,0.17-0.05,0.4,0.04,0.5c0.42,0.47,0.26,1.02,0.28,1.54c0.02,0.4,0,0.8,0.02,1.19
		c0.01,0.19,0.1,0.33,0.32,0.28c-0.04,0.11,0.04,0.17,0.09,0.25c-0.22,0.6-0.01,1.22-0.07,1.83c0.56,0.53,0.31,1.21,0.34,1.84
		c0.01,0.11-0.04,0.25,0.06,0.31c0.4,0.26,0.25,0.65,0.27,1c0.01,0.2-0.07,0.48,0.03,0.58c0.57,0.53,0.22,1.31,0.58,1.94
		c0.27,0.47,0.12,1.15,0.35,1.75c0.17,0.44,0.61,0.9,0.39,1.47c0.71,0.44,0.08,1.38,0.69,1.86c-0.2,0.59,0.6,0.95,0.35,1.55
		c0.62,0.66,0.7,1.57,1.02,2.36c0.09,0.22,0.39,0.27,0.37,0.54c-0.04,0.88,0.64,1.5,0.81,2.33c0.13,0.65,0.58,1.24,0.89,1.85
		c0.18,0.34,0.3,0.76,0.57,1c0.49,0.41,0.67,1.01,1.06,1.48c0.56,0.66,0.83,1.56,1.55,2.12c0.09,0.07,0.14,0.16,0.18,0.27
		c0.22,0.61,0.6,1.17,1.03,1.58c0.73,0.7,1.1,1.69,1.93,2.29c0.02,0.02,0.05,0.04,0.05,0.06c0.2,0.91,1.04,1.31,1.58,1.94
		c0.23,0.28,0.58,0.46,0.62,0.88c0.02,0.21,0.25,0.3,0.37,0.45c0.85,1.01,1.94,1.76,2.95,2.59c0.22,0.18,0.27,0.57,0.6,0.56
		c0.39-0.01,0.54,0.27,0.75,0.48c0.16,0.16,0.29,0.43,0.47,0.46c0.57,0.1,0.86,0.52,1.19,0.89c0.1,0.11,0.19,0.21,0.35,0.21
		c0.34-0.02,0.52,0.22,0.68,0.45c0.4,0.57,1.06,0.83,1.6,1.14c0.51,0.3,0.86,0.91,1.53,0.94c0.54,0.79,1.68,0.72,2.19,1.54
		c1.09,0.24,1.84,1.11,2.85,1.54c1.3,0.55,2.55,1.22,3.79,1.89c0.76,0.41,1.65,0.56,2.35,1.03c0.5,0.34,1.17,0.11,1.56,0.62
		c0.57-0.16,0.94,0.37,1.48,0.41c0.44,0.03,0.98,0.19,1.29,0.41c0.48,0.34,1.03,0.3,1.52,0.52c0.51,0.24,1.12,0.62,1.8,0.42
		c0.04-0.01,0.13,0.02,0.15,0.06c0.2,0.35,0.53,0.25,0.83,0.26c0.17,0.01,0.43-0.02,0.48,0.06c0.24,0.38,0.61,0.2,0.91,0.3
		c0.69,0.22,1.37,0.39,2.1,0.35c0.05,0,0.12,0.04,0.14,0.08c0.16,0.35,0.46,0.27,0.74,0.24c0.87-0.09,1.63,0.55,2.52,0.34
		c0.04-0.01,0.13,0.03,0.14,0.07c0.21,0.42,0.58,0.25,0.9,0.26c0.45,0.01,1.03-0.17,1.34,0.05c0.54,0.38,1.06,0.23,1.59,0.28
		c0.17,0.02,0.43-0.05,0.49,0.04c0.39,0.53,0.93,0.26,1.4,0.3c0.45,0.04,1.03-0.14,1.33,0.08c0.41,0.31,0.78,0.25,1.18,0.26
		c0.71,0.02,1.42,0,2.13,0c0.19,0,0.44-0.08,0.55,0.12c0.19,0.34,0.48,0.24,0.75,0.24c1.11,0,2.22-0.01,3.33,0
		c0.22,0,0.51-0.1,0.65,0.09c0.24,0.32,0.54,0.25,0.84,0.25c2.16,0,4.32,0.01,6.48-0.01c0.51,0,1.07,0.17,1.53-0.29
		c0.09-0.09,0.33-0.03,0.5-0.03c0.57,0,1.14,0.01,1.71,0c0.17,0,0.42,0.05,0.49-0.04c0.38-0.45,0.88-0.29,1.33-0.3
		c0.62-0.02,1.25-0.01,1.88-0.01c0.17,0,0.4,0.05,0.5-0.04c0.54-0.47,1.18-0.24,1.78-0.28c0.25-0.02,0.56,0.12,0.73-0.1
		c0.24-0.32,0.55-0.22,0.84-0.25c0.25-0.02,0.59,0.07,0.75-0.06c0.56-0.46,1.18-0.23,1.78-0.27c0.22-0.01,0.52,0.11,0.66-0.07
		c0.31-0.4,0.71-0.27,1.09-0.3c0.22-0.02,0.49,0.07,0.66-0.09c0.26-0.25,0.56-0.25,0.87-0.23c0.2,0.01,0.41,0.01,0.56-0.15
		c0.2-0.23,0.45-0.21,0.71-0.19c0.26,0.02,0.51,0.03,0.71-0.19c0.18-0.19,0.41-0.15,0.64-0.15c0.17,0,0.39,0.04,0.49-0.05
		c0.57-0.49,1.34-0.26,1.98-0.56c0.29-0.14,0.6-0.41,0.98-0.39c0.55,0.04,1.04-0.27,1.49-0.45c0.81-0.33,1.72-0.37,2.45-0.91
		c1.23-0.04,2.27-0.7,3.33-1.15c1.35-0.57,2.76-1.06,4.04-1.81c1.22-0.72,2.57-1.2,3.76-2.03c0.85-0.6,1.96-0.83,2.65-1.71
		c0.02-0.02,0.04-0.03,0.07-0.05c0.81-0.43,1.61-0.86,2.23-1.56c0.06-0.06,0.12-0.13,0.2-0.16c0.8-0.24,1.29-0.94,1.96-1.38
		c0.97-0.64,1.56-1.78,2.68-2.28c1.13-1.33,2.55-2.36,3.55-3.84c0.73-1.07,1.81-1.88,2.62-2.94c0.5-0.66,1.07-1.3,1.5-1.99
		c0.33-0.53,0.86-0.95,0.97-1.61c0.74-0.59,0.88-1.57,1.5-2.27c0.42-0.47,0.54-1.2,0.87-1.76c0.45-0.76,0.78-1.57,1.21-2.34
		c0.43-0.77,0.75-1.61,1.02-2.45c0.09-0.26,0.34-0.4,0.35-0.65c0.04-0.8,0.4-1.5,0.74-2.19c0.19-0.39,0.35-0.75,0.29-1.18
		c-0.01-0.08-0.02-0.18,0.02-0.25c0.42-0.71,0.68-1.47,0.67-2.31c0-0.05,0.01-0.13,0.05-0.16c0.39-0.25,0.29-0.64,0.29-1
		c0-0.17-0.04-0.35,0.14-0.46c0.24-0.15,0.2-0.38,0.2-0.61c0-0.2-0.07-0.49,0.03-0.58c0.46-0.42,0.27-0.94,0.31-1.43
		c0.01-0.11-0.02-0.28,0.05-0.33c0.43-0.31,0.26-0.76,0.3-1.17c0.02-0.17-0.06-0.41,0.03-0.5c0.5-0.51,0.24-1.12,0.3-1.69
		c0.03-0.25-0.11-0.57,0.06-0.75c0.46-0.47,0.28-0.97,0.17-1.49c0.01-0.15,0.02-0.3,0.03-0.44c0.51-0.75,0.36-1.6,0.42-2.43
		c0.08-1.1-0.31-2.25,0.31-3.29c0.04-0.06,0.01-0.17,0.01-0.25c0-1.56,0-3.12-0.01-4.68c0-0.19,0.06-0.41-0.18-0.52
		c0-0.15,0-0.29,0-0.44c0.29-0.57,0.19-1.16,0.07-1.75c0.07-0.17,0.07-0.33,0-0.5c0.03-0.14,0.09-0.27,0.09-0.41
		c0.01-2.01,0.01-4.01,0.01-6.02c0-0.17,0.01-0.35-0.18-0.43c0.05-1.45,0.14-2.89,0.15-4.34c0.03-8.64,0.01-17.28-0.07-25.92
		c0-0.45-0.01-0.91-0.01-1.36c0.21-0.31,0.12-0.66,0.12-0.99c0.01-7.5,0.02-14.99,0.02-22.49c0-2.27-0.01-4.54-0.02-6.82
		c0-0.29,0.14-0.64-0.2-0.86c0.12-0.59,0.08-1.19,0.08-1.79c0.01-10.04,0.01-20.08,0.02-30.11c0-1.51-0.01-3.01,0.08-4.52
		c0.01-0.21,0.09-0.55-0.22-0.55c-0.48-0.01-0.86-0.26-1.29-0.39c-0.97-0.29-1.94-0.59-2.89-0.97c-1-0.4-2.03-0.72-3.05-1.06
		c-1.33-0.46-2.68-0.89-4.03-1.28c-0.76-0.22-1.49-0.57-2.26-0.71c-1.23-0.23-2.36-0.74-3.58-1c-0.93-0.2-1.83-0.6-2.77-0.71
		c-0.82-0.1-1.58-0.39-2.37-0.54c-0.43-0.08-0.89-0.12-1.32-0.27c-0.82-0.29-1.65-0.58-2.53-0.59c-0.23,0-0.45-0.05-0.64-0.19
		c-0.19-0.14-0.42-0.19-0.65-0.17c-0.83,0.07-1.58-0.46-2.42-0.34c-0.07,0.01-0.17-0.04-0.24-0.09c-0.38-0.26-0.81-0.24-1.23-0.26
		c-0.25-0.01-0.53,0.05-0.76-0.08c-0.45-0.25-0.92-0.25-1.41-0.25c-0.23,0-0.46,0.03-0.67-0.1c-0.38-0.23-0.82-0.27-1.24-0.24
		c-1.43,0.11-2.79-0.54-4.22-0.36c-0.08,0.01-0.18-0.01-0.25-0.05c-0.45-0.34-0.97-0.25-1.48-0.28c-0.65-0.04-1.33,0.1-1.95-0.11
		c-0.5-0.17-0.99-0.22-1.5-0.23c-0.88,0-1.76,0-2.64-0.01c-0.2,0-0.43,0.04-0.59-0.04c-0.61-0.32-1.27-0.26-1.92-0.28
		c-0.71-0.02-1.45,0.06-2.12-0.11c-0.7-0.18-1.39-0.25-2.1-0.25c-1.36-0.01-2.73,0-4.09-0.01c-0.23,0-0.48,0.03-0.67-0.05
		c-0.62-0.26-1.28-0.25-1.93-0.26c-1.93-0.02-3.87-0.02-5.8-0.03c-0.28,0-0.57,0.03-0.84-0.08c-0.54-0.21-1.11-0.25-1.67-0.25
		c-3.5,0-7,0-10.49,0.01c-0.28,0-0.61-0.04-0.84,0.08c-0.62,0.32-1.27,0.24-1.91,0.25c-0.71,0.01-1.42,0-2.13,0.02
		c-2.83,0.08-5.65,0.44-8.49,0.32c-0.23-0.01-0.47-0.04-0.66,0.13c-0.26,0.24-0.57,0.21-0.89,0.21c-0.71,0-1.42,0-2.13,0
		c-0.2,0-0.44-0.04-0.58,0.05c-0.52,0.36-1.09,0.25-1.65,0.27c-0.68,0.03-1.4-0.14-2.03,0.1c-0.58,0.23-1.15,0.25-1.74,0.26
		c-0.26,0.01-0.53-0.05-0.75,0.09c-0.42,0.25-0.87,0.26-1.32,0.23c-1.22-0.08-2.37,0.55-3.6,0.35c-0.08-0.01-0.18,0.02-0.24,0.07
		c-0.36,0.3-0.8,0.25-1.22,0.27c-0.25,0.01-0.54-0.05-0.75,0.09c-0.44,0.28-0.92,0.24-1.4,0.26c-0.2,0.01-0.42-0.01-0.59,0.07
		c-0.89,0.43-1.88,0.34-2.82,0.53c-0.88,0.18-1.77,0.35-2.64,0.55c-1.63,0.37-3.25,0.76-4.87,1.16c-3.11,0.79-6.17,1.75-9.22,2.71
		c-2.21,0.7-4.39,1.55-6.6,2.25c-0.81,0.26-1.6,0.59-2.4,0.86c-0.52,0.18-0.68,0.51-0.66,1.04c0.04,0.82,0.02,1.65,0.02,2.47
		c0,10.55-0.01,21.1-0.01,31.65C29.16,54.14,29.09,54.88,29.25,55.61z" />
		<path class="aus_st1" d="M170.38,139.57c0.1,0.51,0.28,1.02-0.17,1.49c-0.17,0.18-0.04,0.5-0.06,0.75c-0.06,0.57,0.2,1.18-0.3,1.69
		c-0.09,0.09-0.02,0.33-0.03,0.5c-0.04,0.4,0.13,0.85-0.3,1.17c-0.06,0.05-0.04,0.21-0.05,0.33c-0.04,0.49,0.14,1.01-0.31,1.43
		c-0.1,0.09-0.03,0.38-0.03,0.58c0,0.22,0.04,0.46-0.2,0.61c-0.18,0.11-0.14,0.29-0.14,0.46c-0.01,0.36,0.1,0.75-0.29,1
		c-0.04,0.02-0.05,0.1-0.05,0.16c0.01,0.84-0.26,1.59-0.67,2.31c-0.04,0.07-0.03,0.17-0.02,0.25c0.06,0.44-0.1,0.79-0.29,1.18
		c-0.34,0.69-0.69,1.39-0.74,2.19c-0.01,0.24-0.26,0.39-0.35,0.65c-0.28,0.84-0.59,1.68-1.02,2.45c-0.43,0.77-0.76,1.58-1.21,2.34
		c-0.34,0.56-0.45,1.29-0.87,1.76c-0.62,0.69-0.76,1.67-1.5,2.27c-0.11,0.66-0.65,1.09-0.97,1.61c-0.43,0.69-1,1.34-1.5,1.99
		c-0.81,1.06-1.89,1.87-2.62,2.94c-1,1.48-2.42,2.51-3.55,3.84c-1.12,0.51-1.71,1.64-2.68,2.28c-0.67,0.44-1.15,1.14-1.96,1.38
		c-0.07,0.02-0.14,0.09-0.2,0.16c-0.62,0.7-1.42,1.14-2.23,1.56c-0.02,0.01-0.05,0.03-0.07,0.05c-0.69,0.88-1.8,1.11-2.65,1.71
		c-1.18,0.84-2.53,1.31-3.76,2.03c-1.28,0.76-2.69,1.24-4.04,1.81c-1.06,0.45-2.11,1.11-3.33,1.15c-0.72,0.54-1.64,0.58-2.45,0.91
		c-0.45,0.18-0.94,0.49-1.49,0.45c-0.37-0.02-0.68,0.25-0.98,0.39c-0.64,0.3-1.41,0.07-1.98,0.56c-0.1,0.09-0.33,0.05-0.49,0.05
		c-0.23,0-0.46-0.04-0.64,0.15c-0.2,0.21-0.45,0.2-0.71,0.19c-0.26-0.02-0.51-0.04-0.71,0.19c-0.14,0.16-0.35,0.16-0.56,0.15
		c-0.32-0.02-0.61-0.02-0.87,0.23c-0.17,0.16-0.44,0.07-0.66,0.09c-0.38,0.03-0.78-0.1-1.09,0.3c-0.13,0.17-0.43,0.05-0.66,0.07
		c-0.6,0.04-1.22-0.2-1.78,0.27c-0.16,0.13-0.5,0.04-0.75,0.06c-0.3,0.02-0.6-0.07-0.84,0.25c-0.17,0.22-0.48,0.09-0.73,0.1
		c-0.6,0.04-1.23-0.19-1.78,0.28c-0.1,0.09-0.33,0.04-0.5,0.04c-0.63,0.01-1.25-0.01-1.88,0.01c-0.46,0.02-0.95-0.15-1.33,0.3
		c-0.07,0.09-0.32,0.04-0.49,0.04c-0.57,0-1.14,0-1.71,0c-0.17,0-0.41-0.06-0.5,0.03c-0.45,0.46-1.01,0.28-1.53,0.29
		c-2.16,0.02-4.32,0.01-6.48,0.01c-0.3,0-0.6,0.07-0.84-0.25c-0.14-0.19-0.43-0.09-0.65-0.09c-1.11,0-2.22,0.01-3.33,0
		c-0.27,0-0.56,0.1-0.75-0.24c-0.11-0.2-0.36-0.12-0.55-0.12c-0.71-0.01-1.42,0.01-2.13,0c-0.4-0.01-0.77,0.05-1.18-0.26
		c-0.3-0.22-0.88-0.04-1.33-0.08c-0.47-0.04-1.01,0.23-1.4-0.3c-0.06-0.09-0.33-0.02-0.49-0.04c-0.53-0.05-1.06,0.1-1.59-0.28
		c-0.3-0.22-0.88-0.04-1.34-0.05c-0.32-0.01-0.69,0.16-0.9-0.26c-0.02-0.04-0.1-0.08-0.14-0.07c-0.88,0.21-1.65-0.43-2.52-0.34
		c-0.27,0.03-0.58,0.11-0.74-0.24c-0.02-0.04-0.09-0.08-0.14-0.08c-0.73,0.05-1.41-0.13-2.1-0.35c-0.3-0.1-0.67,0.09-0.91-0.3
		c-0.05-0.09-0.32-0.05-0.48-0.06c-0.3-0.02-0.63,0.09-0.83-0.26c-0.02-0.04-0.11-0.07-0.15-0.06c-0.67,0.19-1.28-0.18-1.8-0.42
		c-0.49-0.23-1.04-0.19-1.52-0.52c-0.31-0.22-0.85-0.38-1.29-0.41c-0.54-0.04-0.91-0.57-1.48-0.41c-0.38-0.52-1.06-0.28-1.56-0.62
		c-0.7-0.48-1.59-0.62-2.35-1.03c-1.24-0.67-2.49-1.35-3.79-1.89c-1.01-0.42-1.75-1.3-2.85-1.54c-0.51-0.82-1.66-0.75-2.19-1.54
		c-0.67-0.03-1.02-0.64-1.53-0.94c-0.54-0.31-1.2-0.57-1.6-1.14c-0.16-0.23-0.34-0.47-0.68-0.45c-0.15,0.01-0.25-0.09-0.35-0.21
		c-0.33-0.37-0.62-0.79-1.19-0.89c-0.18-0.03-0.31-0.31-0.47-0.46c-0.21-0.21-0.36-0.5-0.75-0.48c-0.33,0.01-0.38-0.38-0.6-0.56
		c-1.01-0.83-2.1-1.58-2.95-2.59c-0.13-0.15-0.35-0.24-0.37-0.45c-0.04-0.42-0.38-0.61-0.62-0.88c-0.54-0.64-1.38-1.03-1.58-1.94
		c-0.01-0.02-0.03-0.05-0.05-0.06c-0.83-0.6-1.2-1.59-1.93-2.29c-0.43-0.41-0.81-0.97-1.03-1.58c-0.04-0.11-0.08-0.2-0.18-0.27
		c-0.72-0.56-0.99-1.46-1.55-2.12c-0.39-0.47-0.58-1.07-1.06-1.48c-0.28-0.23-0.4-0.65-0.57-1c-0.31-0.61-0.76-1.2-0.89-1.85
		c-0.17-0.83-0.85-1.45-0.81-2.33c0.01-0.27-0.28-0.32-0.37-0.54c-0.32-0.8-0.4-1.7-1.02-2.36c0.25-0.6-0.54-0.97-0.35-1.55
		c-0.62-0.47,0.02-1.42-0.69-1.86c0.22-0.57-0.22-1.03-0.39-1.47c-0.23-0.6-0.08-1.28-0.35-1.75c-0.36-0.63-0.01-1.4-0.58-1.94
		c-0.1-0.1-0.02-0.38-0.03-0.58c-0.02-0.35,0.12-0.75-0.27-1c-0.1-0.06-0.05-0.2-0.06-0.31c-0.03-0.63,0.21-1.31-0.34-1.84
		c0.06-0.61-0.14-1.23,0.07-1.83c0.4-0.07,0.85,0.05,1.36-0.28c-0.59-0.06-1.02-0.13-1.45,0.03c-0.23,0.05-0.32-0.09-0.32-0.28
		c-0.02-0.4,0-0.8-0.02-1.19c-0.02-0.52,0.14-1.07-0.28-1.54c-0.09-0.1-0.04-0.33-0.04-0.5c0-0.94,0.01-1.87,0-2.81
		c0-0.35,0.13-0.74-0.25-1.01c-0.06-0.05-0.07-0.21-0.07-0.32c0.04-0.96-0.03-1.93,0.09-2.89c1.11,0.19,2.23,0.22,3.39,0.28
		c-0.11-0.24-0.29-0.31-0.44-0.32c-0.89-0.06-1.7-0.4-2.55-0.6c-0.1-0.02-0.22,0.02-0.33,0.03c-0.23-0.69-0.11-1.39-0.06-2.08
		c0.89,0.19,1.76,0.47,2.67,0.52c0.49,0.43,1.11,0.36,1.7,0.5c-0.01-0.43-0.22-0.56-0.54-0.55c-0.38,0.01-0.77,0.03-1.15,0.05
		c-0.05-0.3,0.07-0.71-0.28-0.83c-0.79-0.29-1.48-0.84-2.36-0.87c-0.11-0.21-0.1-0.44-0.1-0.67c0-1.7,0.01-3.4,0.02-5.1
		c0-0.14,0.05-0.27,0.08-0.41c0.23,0.1,0.46,0.24,0.7,0.3c1.59,0.41,3.14,0.96,4.72,1.44c0.65,0.2,1.27,0.52,2.03,0.64
		c-0.33-0.45-0.61-0.8-0.86-1.18c-0.69-1.07-1.14-2.22-1.05-3.52c0.17-2.32,2.99-4.33,5.06-2.93c0,0.03,0,0.06-0.01,0.08
		c-0.09,0.19-0.29,0.27-0.43,0.4c-0.6,0.58-0.62,0.98-0.05,1.6c0.33,0.36,0.74,0.61,1.17,0.85c1.43,0.8,2.99,1.21,4.54,1.67
		c1.52,0.45,3.05,0.89,4.48,1.6c2.46,1.22,4.29,3.11,5.96,5.24c1.4,1.79,1.76,3.55,0.66,5.58c-0.37,0.68-0.33,1.42,0,2.14
		c0.75,1.66,1.1,3.39,0.98,5.22c-0.22,3.25-2.92,5.78-6.02,5.61c-1.36-0.07-2.73-0.04-4.01-0.62c-0.1-0.04-0.22-0.02-0.34-0.03
		c-0.02-0.15-0.09-0.25-0.2-0.36c-0.99-0.94-1.51-2.09-1.57-3.46c-0.01-0.2-0.02-0.4-0.06-0.59c-0.06-0.26-0.23-0.38-0.5-0.32
		c-0.28,0.06-0.47,0.22-0.4,0.54c0.05,0.22,0.15,0.42,0.24,0.63c0.54,1.27,1.17,2.51,1.32,3.92c0.01,0.12,0.01,0.23,0.02,0.35
		c-0.05,0.33-0.06,0.66,0.02,0.99c-0.08,0.29-0.08,0.58-0.04,0.88c0,0.05-0.01,0.11-0.01,0.16c-0.2,1.34-0.7,2.56-1.49,3.67
		c-0.33,0.46-0.62,0.95-0.91,1.44c-0.23,0.4-0.36,0.81-0.24,1.3c0.25,1,0.29,1.03,1.21,0.57c1.04-0.53,1.82-0.37,2.59,0.49
		c0.38,0.42,0.56,0.88,0.56,1.46c0,0.64,0.29,0.82,0.88,0.62c0.84-0.29,1.5-0.88,1.46-1.87c-0.01-0.28,0.01-0.57,0.01-0.85
		c0.02-0.82,0.41-1.43,1.15-1.74c1.25-0.53,1.83-0.74,3.09,0.41c0.29,0.27,0.57,0.56,0.83,0.86c0.28,0.33,0.57,0.62,0.96,0.82
		c0.49,0.25,0.74,0.7,0.79,1.24c0.04,0.34,0.12,0.69,0.07,1.02c-0.1,0.69,0.19,1.22,0.59,1.71c0.45,0.55,0.95,1.06,1.5,1.52
		c1.22,1.03,1.97,2.3,2.31,3.87c0.43,2.02-0.24,3.38-2.15,4.13c-0.87,0.34-1.77,0.6-2.62,1.01c-0.66,0.32-1.19,0.78-1.58,1.39
		c-0.85,1.3-0.55,2.7,0.77,3.53c0.58,0.37,1.22,0.6,1.87,0.8c0.75,0.22,1.43,0.55,1.82,1.29c0.45,0.85,1.21,1.17,2.12,1.19
		c0.94,0.03,1.88,0,2.81,0.02c0.71,0.01,1.42,0,2.13,0.06c2.28,0.22,4.44,0.92,6.51,1.89c3.25,1.53,6.19,3.45,8.18,6.58
		c0.1-0.07,0.19-0.13,0.28-0.2c1.85-1.5,3.75-2.9,6.32-2.71c0.35,0.02,0.41-0.2,0.45-0.48c0.3-1.89,0.82-3.72,1.47-5.51
		c1.04-2.86,2.44-5.5,4.66-7.64c0.1-0.09,0.23-0.18,0.2-0.35c0.04-0.02,0.09-0.03,0.13-0.05c-0.03-0.03-0.05-0.07-0.08-0.08
		c-0.06,0-0.08,0.04-0.07,0.11c-0.36-0.07-0.66,0.15-0.97,0.24c-1.24,0.36-2.47,0.36-3.67-0.12c-0.41-0.16-0.7-0.15-1.08,0.1
		c-0.82,0.55-1.51,0.46-2.26-0.17c-0.22-0.18-0.42-0.38-0.62-0.58c-0.34-0.34-0.69-0.33-1.07-0.08c-0.27,0.17-0.49,0.39-0.67,0.64
		c-0.11,0.15-0.18,0.37-0.43,0.32c-0.04-0.02-0.08-0.03-0.08-0.05c-0.02-0.08-0.05-0.17-0.05-0.25c0.01-0.74,0.26-1.39,0.79-1.92
		c0.14-0.14,0.37-0.28,0.15-0.48c-0.52-0.48-1.07-0.95-1.84-0.99c-1.02-0.05-2.2,0.82-2.55,1.81c-0.35,0.99,0.07,2.71,1,3.19
		c0.45,0.23,0.92,0.44,1.45,0.63c-0.6,0.58-1.28,0.76-1.99,0.54c-1.56-0.48-2.73-1.46-3.15-3.07c-0.64-2.51,0.69-5.71,4.32-6.08
		c0.26-0.03,0.57,0.07,0.81-0.24c-0.75-0.26-1.46-0.54-2.11-0.96c-1.87-1.21-3.39-2.76-4.51-4.68c-0.29-0.49-0.65-0.74-1.21-0.8
		c-3.21-0.32-5.82,0.85-7.75,3.37c-1.16,1.52-1.5,3.31-0.78,5.16c0.74,1.92,2.97,2.8,4.7,1.9c0.81-0.42,0.95-0.86,0.54-1.65
		c-0.3-0.58-0.28-0.61,0.26-0.87c0.47-0.23,0.87-0.16,1.25,0.19c0.46,0.42,0.76,0.92,0.79,1.55c0.05,1.25-0.74,2.43-1.92,2.84
		c-1.06,0.37-2.16,0.48-3.27,0.51c-0.7,0.02-1.33-0.19-1.93-0.56c-0.78-0.48-1.46-1.08-2.07-1.76c-0.19-0.21-0.36-0.5-0.66-0.5
		c-0.91,0.01-1.19-0.66-1.44-1.33c-0.4-1.06-0.42-2.18-0.34-3.28c0.14-1.92,0.73-3.67,2.15-5.06c0.1-0.09,0.24-0.17,0.17-0.34
		c-1.1-0.64-1.24-1.37-0.4-2.17c1,0.85,0.99,0.84,2.21,0.22c0.71-0.36,1.37-0.8,2.03-1.25c2.75-1.88,5.8-2.68,9.11-2.38
		c2.33,0.21,4.43,1.14,6.44,2.31c1.52,0.89,2.9,1.99,4.36,2.97c0.36,0.3,0.74,0.56,1.34,0.7c-0.39-0.54-0.73-0.92-1.16-1.23
		c0.03-0.28-0.17-0.47-0.27-0.7c-0.54-1.26-0.82-2.53-0.2-3.86c1.35-2.87,3.68-3.93,6.7-3.4c1.09,0.19,1.92,0.78,2.49,1.75
		c0.45,0.78,0.28,1.49-0.06,2.27c-0.4-0.4-0.49-0.9-0.78-1.28c-0.34-0.43-0.8-0.64-1.32-0.71c-0.48-0.06-0.96-0.06-1.42,0.18
		c-0.84,0.43-1.57,1.12-1.13,2.83c1.47-0.88,1.68-0.9,2.42-0.2c-0.07,0.04-0.14,0.09-0.22,0.13c-0.85,0.37-1.01,0.67-0.81,1.59
		c0.16,0.72,0.42,1.41,0.78,2.06c0.27,0.48,0.66,0.87,1.18,1.07c1.34,0.51,2.71,0.7,4.04-0.01c2.65-1.42,4.29-3.67,5.1-6.53
		c0.18-0.62,0.23-1.32-0.12-1.91c-0.34-0.59-0.59-1.23-0.9-1.83c-0.49-0.94-1.08-1.81-1.93-2.47c-1.77-1.36-3.07-1.36-4.76,0.23
		c-0.77,0.72-0.99,0.77-1.92,0.28c-0.22-0.12-0.44-0.26-0.64-0.42c-0.22-0.19-0.37-0.15-0.57,0.05c-0.73,0.74-1.59,0.89-2.58,0.6
		c-0.77-0.23-1.58-0.15-2.37-0.07c-0.42,0.04-0.5,0.24-0.41,0.65c0.06,0.26,0.28,0.43,0.36,0.67c0.11,0.31-0.02,0.51-0.33,0.53
		c-0.75,0.06-1.81-0.64-2.08-1.38c-0.07-0.18-0.05-0.4-0.24-0.52c-1.95,0.53-2.49,0.53-4.57-0.1c-0.68-0.21-1.34-0.45-2.01-0.71
		c-0.95-0.36-1.9-0.59-2.89-0.12c-0.16,0.07-0.33,0.13-0.46-0.04c-0.14-0.17-0.15-0.38-0.02-0.55c0.12-0.16,0.27-0.29,0.41-0.43
		c1.09-0.99,2.37-1.3,3.8-1.04c0.87,0.16,1.73,0.32,2.59,0.52c0.68,0.16,1.26,0.05,1.82-0.41c0.99-0.82,2.09-1.48,3.39-1.68
		c0.3-0.04,0.47-0.17,0.5-0.47c0.04-0.43,0.29-0.72,0.6-0.99c0.3-0.27,0.54-0.29,0.87,0.02c0.84,0.82,1.3,0.71,1.7-0.37
		c0.01-0.03,0.02-0.05,0.02-0.08c0.58-0.31,1.09-0.04,1.61,0.19c0.84,0.37,1.66,0.41,2.47-0.11c-1.38-0.03-2.73-0.42-4.11-0.34
		c-0.28-0.02-0.57-0.04-0.85-0.05c-2.78-0.12-5.47,0.5-8.15,1.11c-2.1,0.47-4.18,1.02-6.32,1.33c-2.43,0.36-4.86,0.54-7.3,0.26
		c-3.16-0.37-5.89-1.61-7.94-4.14c-1.53-1.88-1.9-4.01-1.35-6.33c0.24-1.03,0.82-1.86,1.65-2.51c2.22-1.72,4.76-0.94,5.63,1.71
		c0.03,0.08,0.06,0.16,0.07,0.24c0.02,0.15,0.14,0.32-0.07,0.42c-0.15,0-0.2-0.12-0.27-0.2c-0.82-0.95-1.81-1.11-2.86-0.45
		c-1.18,0.75-1.42,2.44-0.46,3.68c0.85,1.1,2.08,1.57,3.35,1.98c0.17-0.34,0.08-0.6,0.13-0.85c0.12-0.6,0.4-1.12,1.05-1.2
		c1.27-0.14,2.52-0.1,3.43,1c0.24,0.29,0.43,0.3,0.79,0.22c1.83-0.45,2.76-0.2,3.77,1.28c0.24,0.35,0.49,0.41,0.86,0.33
		c0.66-0.15,1.33-0.3,1.99-0.43c2.9-0.54,5.81-1,8.77-1.14c1.31-0.06,2.61,0.03,3.92,0c0.17,0.02,0.33,0.04,0.5,0.07
		c1.28,0.18,2.58,0.16,3.85,0.49c1.17,0.31,2.31,0.71,3.45,1.09c0.24,0.3,0.65,0.29,0.92,0.53c0.13,0.15,0.31,0.13,0.48,0.13
		c0.03,0.09,0.08,0.14,0.17,0.16c0.05,0.08,0.1,0.13,0.2,0.12c0.02,0,0.04-0.04,0.05-0.06c-0.07-0.03-0.15-0.06-0.22-0.09
		c-0.06-0.06-0.11-0.11-0.17-0.17c-0.04-0.05-0.08-0.09-0.12-0.14c-0.38-0.2-0.68-0.56-1.12-0.67c-1.86-1.06-3.87-1.54-6-1.58
		c-0.7-0.01-1.39-0.09-2.01-0.47l-0.03-0.02c-0.01-0.08-0.05-0.13-0.14-0.13l-0.03-0.04c-0.06-0.15-0.14-0.28-0.3-0.34l-0.01-0.01
		c-0.1-0.26-0.28-0.25-0.49-0.14c-0.13,0.03-0.25,0.05-0.38,0.08c-0.21-0.07-0.42-0.09-0.64-0.06c-0.56-0.43-1.15-0.82-1.88-0.91
		c-0.1-0.01-0.24-0.08-0.28-0.17c-0.3-0.64-0.88-0.99-1.44-1.35c-0.05-0.03-0.1-0.08-0.11-0.13c-0.19-0.67-0.78-0.81-1.32-1.03
		c-0.29-0.12-0.57-0.26-0.81-0.47c-0.24-0.21-0.45-0.23-0.77-0.09c-0.68,0.3-1.37,0.31-2.03-0.11c-0.24-0.15-0.5-0.28-0.77-0.37
		c-1.21-0.39-1.66-0.12-1.9,1.12c-0.09,0.48-0.14,0.95-0.16,1.44c-0.01,0.25-0.07,0.51-0.11,0.76c-0.02,0.15-0.1,0.26-0.25,0.32
		c-0.47,0.17-1.36-0.21-1.47-0.68c-0.23-0.99-0.74-1.84-1.19-2.72c-0.32-0.63-0.62-1.27-0.76-1.98c-0.27-1.46-0.07-2.88,0.22-4.31
		c0.41-2.09,1.97-2.75,3.44-2.84c1.33-0.09,2.67-0.04,4.01-0.04c0.25,0,0.5,0.08,0.76-0.08c-0.01-0.11-0.02-0.22-0.05-0.32
		c-0.37-1.43,0.12-2.08,1.61-2.14c0.25-0.01,0.51,0.06,0.77-0.09c-0.19-1.02-0.32-2.06,0.57-2.84c0.84-0.74,1.83-0.97,2.98-0.6
		c-0.07-0.44-0.12-0.83,0.2-1.09c0.41-0.32,0.36-0.7,0.29-1.15c-0.07-0.43-0.15-0.75-0.58-1.04c-0.79-0.54-0.8-1.27-0.09-1.88
		c0.26-0.22,0.28-0.46,0.28-0.75c0-0.63-0.19-1.24-0.22-1.86c-0.08-1.59-0.41-3.15-0.52-4.74c-0.02-0.34-0.1-0.65-0.53-0.59
		c-0.53,0.08-0.63-0.21-0.66-0.64c-0.02-0.37-0.08-0.73-0.13-1.1c-0.04-0.33,0.02-0.51,0.42-0.56c1.32-0.18,2.63-0.45,3.95-0.62
		c0.56-0.07,1.15-0.31,1.67-0.2c0.56,0.12,0.92,0.72,1.42,1.04c0.8,0.51,0.84,1.2,0.53,2c-0.54,0.34-0.54,0.34-0.35,1.21
		c0.3-0.24-0.03-0.74,0.38-0.92c0.24,0.63,0.08,1.3,0.2,1.95c-0.4,0.91-0.42,1.42-0.08,1.92c0-0.32-0.02-0.62,0.01-0.93
		c0.02-0.23-0.11-0.52,0.19-0.67c0.08,0.47,0.15,0.93,0.23,1.41c0.56-0.12,1.05-0.26,1.56-0.32c0.38-0.04,0.45-0.22,0.45-0.55
		c0-1.14-0.05-2.27-0.2-3.4c-0.02-0.17-0.02-0.38-0.21-0.43c-0.45-0.13-0.41-0.49-0.43-0.82c-0.03-0.45-0.04-0.91-0.04-1.36
		c0-0.59,0.01-0.6,0.62-0.62c2.1-0.08,4.2-0.14,6.31-0.01c0.68,0.04,0.7,0.03,0.65,0.75c-0.05,0.81-0.14,1.63-0.24,2.44
		c-0.15,1.18-0.03,2.38-0.05,3.58c-0.01,0.37,0.17,0.43,0.47,0.42c0.58-0.02,1.16,0.08,1.71,0.24c0.24-0.68,0.58-2.88,0.55-3.47
		c-0.01-0.2-0.06-0.37-0.17-0.55c-0.42-0.75-0.35-1.07,0.27-1.61c0.39-0.33,0.79-0.65,1.15-1.01c0.36-0.35,0.7-0.54,1.21-0.27
		c0.27,0.15,0.6,0.15,0.92,0.17c1.33,0.09,2.63,0.4,3.95,0.61c0.39,0.06,0.44,0.25,0.38,0.58c-0.08,0.45-0.14,0.9-0.17,1.35
		c-0.02,0.3-0.13,0.49-0.45,0.48c-0.3-0.01-0.36,0.17-0.39,0.43c-0.34,2.3-0.7,4.59-1.07,6.89c-0.04,0.25-0.02,0.41,0.15,0.61
		c0.65,0.77,0.6,1.16-0.21,1.82c-0.15,0.12-0.39,0.2-0.39,0.42c-0.01,0.63-0.24,1.27,0.33,1.83c0.45,0.45,0.4,0.81,0.02,1.27
		c-0.08,0.1-0.26,0.14-0.17,0.42c1.95-0.05,3.92,0.13,5.89-0.27c0.63-0.13,1.19-0.37,1.7-0.75c0.76-0.56,0.81-1.02,0.26-1.77
		c-0.06-0.09-0.15-0.18-0.07-0.3c1.25-0.33,2.05,0.3,1.91,1.53c-0.12,1.04-0.58,1.88-1.54,2.41c-1.24,0.68-2.59,0.98-3.96,1.22
		c-1.01,0.18-2.02,0.41-3.07,0.49c0.36,0.26,0.76,0.33,1.17,0.37c1.53,0.18,3.06,0.22,4.6,0.25c1.36,0.03,2.73-0.02,4.08-0.26
		c1.04-0.18,2.06-0.4,3-0.9c1.03-0.55,1.63-1.41,1.74-2.57c0.11-1.16-0.46-1.73-1.6-1.68c-0.02,0-0.04-0.03-0.06-0.04
		c0.4-0.89,1.09-1.13,1.88-0.64c0.39,0.24,0.73,0.56,0.93,0.98c0.6,1.24,0.71,2.5,0.11,3.78c-0.43,0.93-1.13,1.65-1.97,2.19
		c-0.48,0.31-0.8,0.61-0.65,1.21c0.03,0.13,0,0.29-0.03,0.42c-0.12,0.49-0.37,0.9-0.84,1.12c-0.19,0.09-0.5,0.18-0.56-0.14
		c-0.15-0.78-0.7-0.73-1.24-0.63c-1.22,0.21-2.43,0.16-3.65,0.03c-0.12-0.07-0.23-0.07-0.36-0.02c-0.22-0.01-0.45-0.03-0.67-0.04
		c-0.53-0.23-1.11-0.2-1.66-0.21c-0.57-0.01-1.12-0.21-1.89-0.26c1.24,0.63,2.39,0.83,3.56,0.95c1.75,0.39,3.51,0.64,5.29,0.88
		c1.55,0.21,3.11,0.3,4.67,0.29c0.93-0.01,1.88-0.08,2.8-0.23c2.29-0.36,4.21-1.5,5.91-3.01c1.58-1.4,2.75-3.1,3.21-5.21
		c0.3-1.37-0.04-2.66-0.76-3.83c-0.55-0.91-1.65-0.97-2.4-0.22c-0.14,0.14-0.25,0.31-0.37,0.46c-0.09,0.12-0.12,0.35-0.4,0.22
		c0-0.82,0.32-1.46,1.02-1.91c1.13-0.73,2.76-0.61,3.9,0.31c1.16,0.94,1.79,2.17,1.85,3.69c0.05,1.33-0.19,2.6-0.64,3.84
		c-1.1,3.01-2.86,5.47-5.79,6.95c-0.14,0.07-0.32,0.11-0.39,0.42c0.64,0.03,1.17,0.32,1.59,0.8c0.36,0.42,0.51,0.85,0.28,1.4
		c-0.6,1.48-1.6,2.53-3.14,3.01c-0.12,0.04-0.31,0.23-0.45-0.09c0.21-0.29,0.58-0.41,0.83-0.67c0.59-0.58,0.55-1.24-0.09-1.75
		c-0.37-0.3-0.71-0.23-1.1-0.03c-3.08,1.56-6.26,1.83-9.59,0.9c-0.98-0.27-1.94-0.64-2.96-0.78c-0.1-0.05-0.19-0.11-0.3-0.14
		c-1.38-0.4-2.76-0.8-4.19-0.98c-0.17-0.09-0.33-0.25-0.58-0.11c0.2,0.2,0.36,0.35,0.59,0.39c0.97,0.57,2.02,0.97,3.03,1.44
		c0.27,0.14,0.54,0.29,0.82,0.43c3.96,1.91,7.87,3.93,11.52,6.4c3.63,2.46,6.46,5.61,7.89,9.86c0.8,2.36,0.94,4.73,0.05,7.09
		c-0.58,1.53-1.74,2.51-3.34,2.89c-0.72,0.17-1.47,0.22-2.06-0.41c0.01-0.11,0.03-0.23,0.04-0.34c0.39,0.16,0.76,0.4,1.22,0.3
		c1.07-0.21,1.99-0.69,2.62-1.61c0.66-0.96,0.56-2.31-0.23-3.13c-0.39-0.4-0.66-0.85-0.79-1.39c-0.14-0.61-0.24-1.23-0.41-1.83
		c-0.75-2.73-2.32-4.9-4.6-6.58c-1.47-1.09-3.1-1.87-4.82-2.51c-0.11,0.49-0.01,0.91,0.04,1.33c0.06,0.52-0.01,1.02-0.19,1.51
		c-0.12,0.34-0.33,0.62-0.69,0.7c-0.58,0.13-1.17,0.27-1.77,0.09c-0.15-0.04-0.36-0.03-0.33-0.29c0.13-0.15,0.31-0.11,0.47-0.15
		c0.35-0.09,0.69-0.23,0.67-0.65c-0.01-0.41-0.4-0.35-0.66-0.38c-1.27-0.16-2.39-0.65-3.46-1.32c-0.43-0.27-0.9-0.49-1.35-0.73
		c-0.18-0.1-0.35-0.24-0.61-0.26c0.02,0.15,0.01,0.24,0.04,0.31c0.3,0.64,0.6,1.29,0.91,1.92c1.8,3.69,4.68,6.31,8.2,8.3
		c0.72,0.41,1.5,0.7,2.33,0.77c1.12,0.09,2.36-0.59,1.88-2.07c-0.04-0.11-0.05-0.22,0.01-0.33c0.81,0.52,1.18,1.44,0.93,2.41
		c-0.25,0.94-0.78,1.7-1.64,2.19c-1,0.57-2.09,0.7-3.22,0.55c-0.82-0.11-1.6-0.35-2.35-0.72c-0.6-0.3-0.58-0.27-0.86,0.32
		c-0.34,0.73-0.85,1.28-1.73,1.31c-0.31,0.01-0.51-0.05-0.42-0.42c0.03-0.11,0.05-0.22,0.06-0.33c0.23-1.49-0.54-2.8-1.95-3.3
		c-0.23-0.08-0.39-0.04-0.46,0.21c-0.12,0.5-0.23,0.99-0.24,1.51c-0.05,2.2,0.67,4.18,1.71,6.08c0.21,0.38,0.43,0.65,0.9,0.8
		c0.96,0.31,1.39,1.04,1.28,2.01c-0.04,0.34,0.11,0.45,0.35,0.58c1.25,0.71,1.89,1.76,1.77,3.23c-0.02,0.2-0.03,0.4-0.02,0.6
		c0.02,0.54,0.23,0.79,0.67,0.8c0.47,0.02,0.77-0.24,0.87-0.74c0.03-0.15-0.1-0.34,0.11-0.44c0.85,1,0.66,1.94-0.48,2.32
		c-0.53,0.18-1.04,0.14-1.52-0.25c-0.32-0.26-0.54-0.66-1.02-0.76c0,0.14-0.02,0.25,0,0.36c0.04,0.19,0.09,0.39,0.16,0.57
		c0.66,1.78,1.7,3.27,3.27,4.37c0.82,0.57,1.71,1.01,2.73,1.13c1.01,0.12,1.53-0.21,1.92-1.15c0.11-0.27,0.08-0.64,0.45-0.82
		c0.3,0.62,0.31,1.23-0.06,1.78c-0.55,0.82-1.31,1.32-2.35,1.32c-0.98,0.01-1.83-0.33-2.61-0.9c-0.33-0.24-0.64-0.49-1.08-0.25
		c-1.03,0.57-1.99,0.26-2.89-0.3c-1.86-1.16-3.23-2.77-4.14-4.76c-0.97-2.12-1.77-4.31-2.47-6.53c-0.11-0.35-0.16-0.75-0.52-1.04
		c-0.26,2.76-0.66,5.42-0.82,8.12c-0.12,2.12-0.09,4.2,0.44,6.26c0.29,1.12,0.55,2.27,1.24,3.24c0.8,1.14,1.94,1.56,3.27,1.43
		c1.11-0.11,2.35-1.22,1.52-2.73c-0.1-0.17-0.18-0.36-0.25-0.54c-0.05-0.13-0.13-0.29,0-0.4c0.18-0.15,0.3,0.04,0.42,0.15
		c1.76,1.59,1.37,4.44-0.78,5.62c-0.68,0.37-1.42,0.58-2.18,0.7c-1.33,0.22-2.52,0.01-3.54-0.98c-0.66-0.65-0.82-0.6-1.42,0.12
		c-0.59,0.72-0.99,0.77-1.72,0.22c-0.3-0.22-0.51-0.51-0.67-0.84c0.18-0.16,0.36-0.09,0.52-0.11c0.76-0.1,0.98-0.47,0.62-1.17
		c-0.15-0.3-0.37-0.57-0.58-0.84c-0.71-0.91-1.19-1.92-1.47-3.04c-0.19-0.77-0.15-1.56-0.26-2.32c-0.21,0.01-0.2,0.14-0.24,0.24
		c-0.62,1.69-0.93,3.45-1.15,5.23c-0.17,1.38-0.29,2.78-0.2,4.17c0.06,0.92,0.41,1.71,1.3,2.15c0.87,0.43,1.65,0.2,2.39-0.31
		c0.17-0.12,0.31-0.34,0.57-0.27c0.03,1.45-0.57,2.13-1.96,2.22c-0.09,0.01-0.17,0-0.26,0c-0.31,0-0.52,0.05-0.58,0.44
		c-0.08,0.54-0.49,0.7-1.1,0.66c0.31-0.56,0.06-0.85-0.39-1.11c-0.42-0.24-0.76-0.59-1.02-1.01c-0.08-0.13-0.1-0.34-0.41-0.27
		c-0.21,1.09-0.02,2.17,0.19,3.25c0.07,0.33,0.3,0.38,0.58,0.33c1.4-0.28,2.56,0.22,3.57,1.16c0.1,0.09,0.16,0.24,0.42,0.18
		c0.31-0.59,0.77-1.12,1.33-1.56c0.56-0.44,1.11-0.88,1.7-1.29c2.21-1.52,4.64-2.62,7.1-3.67c1.67-0.72,3.41-1.24,5.19-1.59
		c2.07-0.4,4.16-0.57,6.26-0.71c1.53-0.1,2.98-0.39,4.18-1.45c0.32-0.28,0.64-0.56,0.95-0.85c0.66-0.63,1.04-1.41,1.24-2.29
		c0.27-1.22,0.05-1.77-1.03-2.42c-0.29-0.17-0.43-0.34-0.32-0.67c0.14-0.44,0.02-0.72-0.5-0.74c-0.14,0-0.27-0.07-0.41-0.11
		c-2.07-0.61-3.27-2.48-2.96-4.65c0.24-1.59,0.89-2.93,2.03-4.03c0.6-0.58,0.95-1.23,1.12-2.04c0.27-1.28,0.74-2.51,1.43-3.63
		c0.67-1.11,1.49-2.1,2.75-2.57c1.96-0.73,3.74-0.1,5.41,0.9c0.74,0.44,0.95,1.19,0.73,2.02c-0.3,1.09,0.25,1.79,1.03,2.41
		c0.39,0.31,0.8,0.39,1.26,0.11c0.42-0.25,0.49-0.66,0.37-1.04c-0.23-0.72-0.3-1.31,0.65-1.5c0.05-0.01,0.09-0.06,0.13-0.1
		c0.82-0.81,0.88-2.59,0.1-3.46c-0.17-0.19-0.36-0.36-0.55-0.53c-0.95-0.87-1.49-1.99-1.87-3.2c-0.15-0.47-0.13-0.95,0-1.43
		c0.11-0.38,0.19-0.77,0.28-1.16c0.05-0.23-0.03-0.42-0.28-0.43c-0.88-0.06-1.71-0.31-2.58,0.32c-1.31,0.95-3.54,0.47-4.53-0.82
		c-0.28-0.37-0.6-0.66-0.97-0.95c-1.47-1.16-2.27-2.65-2.21-4.57c0.03-0.83,0.14-1.64,0.47-2.41c0.17-0.39,0.19-0.76,0.03-1.15
		c-0.31-0.77-0.47-1.58-0.58-2.39c-0.3-2.15,0.03-4.14,1.58-5.79c0.37-0.39,0.7-0.83,1.06-1.23c1.2-1.33,2.63-2.31,4.29-2.99
		c1.71-0.7,3.53-1.05,5.27-1.65c3.24-1.13,6.07-2.75,6.88-6.49c0.07-0.34,0.32-0.4,0.55-0.13c0.4,0.48,0.79,0.98,1.13,1.5
		c1.1,1.68,1.4,3.45,0.54,5.34c-0.06,0.12-0.12,0.26,0,0.39c0.06,0.01,0.11,0.03,0.16,0.02c2.39-0.72,4.83-1.23,7.29-1.68
		c0.2,0.09,0.18,0.27,0.18,0.43c0,2.01,0,4.01-0.01,6.02c0,0.14-0.06,0.27-0.09,0.41c-0.07,0.02-0.15,0.03-0.22,0.05
		c-1.06,0.33-1.38,0.5-1.7,0.96c0.63-0.02,1.16-0.23,1.68-0.49c0.08-0.01,0.15-0.01,0.23-0.02c0.12,0.59,0.22,1.18-0.07,1.75
		c-0.49,0-0.95,0.11-1.41,0.31c0.46,0.22,0.93,0.18,1.41,0.13c0.23,0.12,0.18,0.34,0.18,0.52c0.01,1.56,0.01,3.12,0.01,4.68
		c0,0.09,0.03,0.19-0.01,0.25c-0.62,1.05-0.23,2.2-0.31,3.29c-0.06,0.83,0.09,1.68-0.42,2.43c-0.92-0.14-1.82-0.42-2.76-0.2
		c-0.01,0.06-0.02,0.12-0.03,0.19C168.54,139.27,169.46,139.42,170.38,139.57z" />
		<path class="aus_st2"
			d="M170.96,118.39c-2.45,0.45-4.9,0.96-7.29,1.68c-0.05,0.01-0.1-0.01-0.16-0.02c-0.12-0.13-0.06-0.27,0-0.39
		c0.85-1.89,0.56-3.66-0.54-5.34c-0.34-0.52-0.73-1.01-1.13-1.5c-0.22-0.27-0.47-0.21-0.55,0.13c-0.81,3.74-3.65,5.36-6.88,6.49
		c-1.73,0.61-3.55,0.95-5.27,1.65c-1.66,0.68-3.1,1.66-4.29,2.99c-0.36,0.4-0.69,0.84-1.06,1.23c-1.56,1.65-1.88,3.64-1.58,5.79
		c0.11,0.82,0.27,1.63,0.58,2.39c0.16,0.39,0.14,0.76-0.03,1.15c-0.33,0.77-0.44,1.58-0.47,2.41c-0.06,1.92,0.74,3.41,2.21,4.57
		c0.36,0.28,0.69,0.58,0.97,0.95c0.99,1.29,3.21,1.77,4.53,0.82c0.88-0.64,1.71-0.38,2.58-0.32c0.25,0.02,0.33,0.21,0.28,0.43
		c-0.08,0.39-0.17,0.78-0.28,1.16c-0.13,0.48-0.15,0.96,0,1.43c0.38,1.2,0.92,2.32,1.87,3.2c0.19,0.17,0.38,0.34,0.55,0.53
		c0.77,0.87,0.72,2.65-0.1,3.46c-0.04,0.04-0.08,0.09-0.13,0.1c-0.95,0.19-0.87,0.78-0.65,1.5c0.12,0.38,0.05,0.79-0.37,1.04
		c-0.46,0.27-0.86,0.2-1.26-0.11c-0.78-0.61-1.33-1.32-1.03-2.41c0.22-0.82,0.01-1.58-0.73-2.02c-1.68-1-3.45-1.62-5.41-0.9
		c-1.26,0.47-2.08,1.46-2.75,2.57c-0.68,1.13-1.16,2.35-1.43,3.63c-0.17,0.81-0.52,1.47-1.12,2.04c-1.14,1.1-1.8,2.43-2.03,4.03
		c-0.32,2.16,0.88,4.04,2.96,4.65c0.14,0.04,0.27,0.11,0.41,0.11c0.52,0.02,0.64,0.3,0.5,0.74c-0.11,0.34,0.04,0.5,0.32,0.67
		c1.07,0.65,1.29,1.2,1.03,2.42c-0.19,0.88-0.58,1.66-1.24,2.29c-0.31,0.29-0.63,0.57-0.95,0.85c-1.2,1.05-2.65,1.35-4.18,1.45
		c-2.1,0.14-4.19,0.31-6.26,0.71c-1.78,0.35-3.52,0.87-5.19,1.59c-2.45,1.05-4.89,2.15-7.1,3.67c-0.58,0.4-1.14,0.85-1.7,1.29
		c-0.56,0.44-1.03,0.97-1.33,1.56c-0.26,0.07-0.32-0.09-0.42-0.18c-1.01-0.94-2.16-1.43-3.57-1.16c-0.28,0.06-0.51,0.01-0.58-0.33
		c-0.21-1.08-0.4-2.16-0.19-3.25c0.31-0.07,0.34,0.14,0.41,0.27c0.26,0.42,0.6,0.77,1.02,1.01c0.45,0.25,0.69,0.55,0.39,1.11
		c0.61,0.03,1.02-0.12,1.1-0.66c0.06-0.4,0.28-0.44,0.58-0.44c0.09,0,0.17,0,0.26,0c1.39-0.09,1.99-0.77,1.96-2.22
		c-0.27-0.07-0.4,0.15-0.57,0.27c-0.75,0.52-1.53,0.75-2.39,0.31c-0.89-0.44-1.24-1.23-1.3-2.15c-0.09-1.39,0.03-2.79,0.2-4.17
		c0.22-1.77,0.53-3.54,1.15-5.23c0.04-0.1,0.02-0.23,0.24-0.24c0.11,0.77,0.07,1.55,0.26,2.32c0.28,1.13,0.76,2.13,1.47,3.04
		c0.21,0.27,0.42,0.54,0.58,0.84c0.35,0.7,0.14,1.07-0.62,1.17c-0.16,0.02-0.34-0.05-0.52,0.11c0.16,0.32,0.37,0.61,0.67,0.84
		c0.74,0.55,1.13,0.5,1.72-0.22c0.59-0.72,0.75-0.77,1.42-0.12c1.01,0.99,2.21,1.2,3.54,0.98c0.76-0.13,1.5-0.33,2.18-0.7
		c2.15-1.18,2.54-4.03,0.78-5.62c-0.12-0.11-0.23-0.29-0.42-0.15c-0.13,0.1-0.05,0.27,0,0.4c0.07,0.19,0.15,0.37,0.25,0.54
		c0.83,1.51-0.41,2.62-1.52,2.73c-1.33,0.14-2.46-0.29-3.27-1.43c-0.69-0.98-0.95-2.12-1.24-3.24c-0.53-2.06-0.57-4.14-0.44-6.26
		c0.16-2.7,0.56-5.36,0.82-8.12c0.36,0.29,0.41,0.69,0.52,1.04c0.71,2.22,1.5,4.41,2.47,6.53c0.91,1.99,2.27,3.6,4.14,4.76
		c0.9,0.56,1.86,0.87,2.89,0.3c0.44-0.24,0.75,0.01,1.08,0.25c0.78,0.57,1.63,0.9,2.61,0.9c1.03-0.01,1.8-0.5,2.35-1.32
		c0.37-0.55,0.36-1.17,0.06-1.78c-0.37,0.18-0.34,0.54-0.45,0.82c-0.39,0.94-0.91,1.27-1.92,1.15c-1.01-0.12-1.91-0.56-2.73-1.13
		c-1.56-1.1-2.61-2.59-3.27-4.37c-0.07-0.19-0.12-0.38-0.16-0.57c-0.02-0.11,0-0.22,0-0.36c0.49,0.1,0.71,0.5,1.02,0.76
		c0.48,0.39,0.99,0.43,1.52,0.25c1.14-0.38,1.32-1.32,0.48-2.32c-0.2,0.11-0.08,0.3-0.11,0.44c-0.1,0.5-0.39,0.76-0.87,0.74
		c-0.44-0.02-0.65-0.26-0.67-0.8c-0.01-0.2,0-0.4,0.02-0.6c0.13-1.47-0.52-2.52-1.77-3.23c-0.23-0.13-0.39-0.24-0.35-0.58
		c0.11-0.97-0.32-1.7-1.28-2.01c-0.46-0.15-0.69-0.42-0.9-0.8c-1.04-1.89-1.76-3.88-1.71-6.08c0.01-0.52,0.12-1.02,0.24-1.51
		c0.06-0.25,0.23-0.29,0.46-0.21c1.41,0.5,2.19,1.8,1.95,3.3c-0.02,0.11-0.04,0.22-0.06,0.33c-0.09,0.37,0.11,0.43,0.42,0.42
		c0.89-0.03,1.39-0.57,1.73-1.31c0.28-0.59,0.26-0.62,0.86-0.32c0.75,0.37,1.53,0.61,2.35,0.72c1.12,0.15,2.21,0.02,3.22-0.55
		c0.86-0.49,1.39-1.25,1.64-2.19c0.26-0.97-0.11-1.89-0.93-2.41c-0.06,0.11-0.04,0.21-0.01,0.33c0.47,1.48-0.76,2.16-1.88,2.07
		c-0.83-0.07-1.61-0.36-2.33-0.77c-3.52-1.98-6.4-4.61-8.2-8.3c-0.31-0.64-0.61-1.28-0.91-1.92c-0.03-0.07-0.02-0.16-0.04-0.31
		c0.26,0.02,0.43,0.16,0.61,0.26c0.45,0.24,0.92,0.46,1.35,0.73c1.07,0.67,2.2,1.16,3.46,1.32c0.25,0.03,0.64-0.03,0.66,0.38
		c0.01,0.42-0.32,0.56-0.67,0.65c-0.16,0.04-0.35,0-0.47,0.15c-0.04,0.26,0.18,0.25,0.33,0.29c0.6,0.17,1.19,0.04,1.77-0.09
		c0.36-0.08,0.57-0.36,0.69-0.7c0.18-0.49,0.24-0.99,0.19-1.51c-0.05-0.42-0.15-0.84-0.04-1.33c1.73,0.64,3.35,1.43,4.82,2.51
		c2.28,1.68,3.84,3.84,4.6,6.58c0.17,0.6,0.26,1.22,0.41,1.83c0.13,0.54,0.4,0.99,0.79,1.39c0.79,0.82,0.89,2.17,0.23,3.13
		c-0.63,0.92-1.54,1.39-2.62,1.61c-0.46,0.09-0.83-0.14-1.22-0.3c-0.12-0.18-0.28-0.28-0.59-0.35c0.17,0.34,0.29,0.57,0.55,0.69
		c0.58,0.64,1.34,0.59,2.06,0.41c1.6-0.38,2.76-1.36,3.34-2.89c0.89-2.35,0.75-4.72-0.05-7.09c-1.44-4.25-4.26-7.4-7.89-9.86
		c-3.65-2.47-7.56-4.49-11.52-6.4c-0.28-0.13-0.55-0.28-0.82-0.43c0.35-0.51,0.96-0.39,1.44-0.59c1.02,0.14,1.98,0.5,2.96,0.78
		c3.33,0.93,6.51,0.66,9.59-0.9c0.39-0.2,0.73-0.26,1.1,0.03c0.64,0.51,0.67,1.17,0.09,1.75c-0.26,0.25-0.62,0.38-0.83,0.67
		c0.14,0.32,0.33,0.13,0.45,0.09c1.54-0.48,2.54-1.53,3.14-3.01c0.22-0.55,0.07-0.99-0.28-1.4c-0.42-0.48-0.95-0.77-1.59-0.8
		c0.06-0.31,0.24-0.35,0.39-0.42c2.94-1.48,4.7-3.94,5.79-6.95c0.45-1.24,0.69-2.51,0.64-3.84c-0.06-1.51-0.68-2.74-1.85-3.69
		c-1.14-0.93-2.77-1.04-3.9-0.31c-0.7,0.45-1.03,1.1-1.02,1.91c0.28,0.13,0.3-0.11,0.4-0.22c0.13-0.15,0.23-0.32,0.37-0.46
		c0.75-0.75,1.85-0.69,2.4,0.22c0.72,1.17,1.06,2.46,0.76,3.83c-0.46,2.11-1.63,3.81-3.21,5.21c-1.7,1.51-3.63,2.65-5.91,3.01
		c-0.92,0.15-1.86,0.22-2.8,0.23c-1.56,0.01-3.12-0.08-4.67-0.29c-1.77-0.24-3.54-0.49-5.29-0.88c-0.04-0.16-0.07-0.32-0.01-0.49
		c0.22,0.01,0.45,0.03,0.67,0.04c0.11,0.14,0.23,0.16,0.36,0.02c1.22,0.13,2.43,0.19,3.65-0.03c0.54-0.09,1.1-0.15,1.24,0.63
		c0.06,0.32,0.36,0.24,0.56,0.14c0.46-0.22,0.72-0.63,0.84-1.12c0.03-0.14,0.06-0.29,0.03-0.42c-0.15-0.61,0.17-0.91,0.65-1.21
		c0.85-0.54,1.54-1.26,1.97-2.19c0.6-1.28,0.49-2.54-0.11-3.78c-0.2-0.42-0.54-0.73-0.93-0.98c-0.79-0.49-1.49-0.25-1.88,0.64
		c0.02,0.01,0.04,0.04,0.06,0.04c1.14-0.06,1.71,0.51,1.6,1.68c-0.11,1.16-0.71,2.01-1.74,2.57c-0.94,0.5-1.96,0.72-3,0.9
		c-1.35,0.24-2.72,0.29-4.08,0.26c-1.53-0.04-3.07-0.08-4.6-0.25c-0.41-0.05-0.81-0.11-1.17-0.37c1.05-0.08,2.05-0.3,3.07-0.49
		c1.37-0.25,2.72-0.54,3.96-1.22c0.96-0.53,1.42-1.37,1.54-2.41c0.15-1.23-0.66-1.85-1.91-1.53c-0.08,0.12,0.01,0.22,0.07,0.3
		c0.55,0.75,0.5,1.21-0.26,1.77c-0.51,0.37-1.07,0.62-1.7,0.75c-1.96,0.4-3.94,0.22-5.89,0.27c-0.09-0.28,0.09-0.32,0.17-0.42
		c0.38-0.46,0.44-0.82-0.02-1.27c-0.57-0.56-0.35-1.21-0.33-1.83c0-0.22,0.25-0.3,0.39-0.42c0.81-0.66,0.86-1.05,0.21-1.82
		c-0.17-0.2-0.19-0.36-0.15-0.61c0.37-2.29,0.72-4.59,1.07-6.89c0.04-0.26,0.09-0.43,0.39-0.43c0.33,0.01,0.43-0.18,0.45-0.48
		c0.03-0.45,0.1-0.9,0.17-1.35c0.06-0.33,0-0.52-0.38-0.58c-1.32-0.21-2.62-0.52-3.95-0.61c-0.31-0.02-0.64-0.02-0.92-0.17
		c-0.5-0.27-0.85-0.08-1.21,0.27c-0.36,0.36-0.77,0.68-1.15,1.01c-0.62,0.54-0.69,0.85-0.27,1.61c0.1,0.18,0.16,0.35,0.17,0.55
		c0.03,0.6-0.31,2.8-0.55,3.47c-0.56-0.16-1.13-0.26-1.71-0.24c-0.3,0.01-0.47-0.05-0.47-0.42c0.02-1.19-0.09-2.4,0.05-3.58
		c0.1-0.81,0.19-1.62,0.24-2.44c0.05-0.72,0.03-0.71-0.65-0.75c-2.1-0.12-4.21-0.07-6.31,0.01c-0.61,0.02-0.62,0.03-0.62,0.62
		c0,0.45,0.01,0.91,0.04,1.36c0.02,0.33-0.03,0.69,0.43,0.82c0.19,0.05,0.18,0.26,0.21,0.43c0.15,1.13,0.2,2.26,0.2,3.4
		c0,0.33-0.07,0.51-0.45,0.55c-0.5,0.06-1,0.2-1.56,0.32c-0.08-0.48-0.15-0.94-0.23-1.41c0.04-0.14,0.02-0.25-0.12-0.33
		c-0.12-0.64,0.04-1.32-0.2-1.95c-0.01-0.1-0.02-0.19-0.03-0.29c0.31-0.8,0.27-1.48-0.53-2c-0.5-0.32-0.86-0.92-1.42-1.04
		c-0.52-0.11-1.11,0.13-1.67,0.2c-1.32,0.17-2.63,0.44-3.95,0.62c-0.4,0.06-0.46,0.24-0.42,0.56c0.05,0.37,0.11,0.73,0.13,1.1
		c0.03,0.43,0.13,0.71,0.66,0.64c0.43-0.06,0.51,0.25,0.53,0.59c0.11,1.59,0.44,3.15,0.52,4.74c0.03,0.62,0.22,1.23,0.22,1.86
		c0,0.29-0.02,0.53-0.28,0.75c-0.71,0.6-0.7,1.34,0.09,1.88c0.42,0.29,0.5,0.61,0.58,1.04c0.08,0.44,0.13,0.82-0.29,1.15
		c-0.32,0.25-0.27,0.65-0.2,1.09c-1.14-0.36-2.14-0.14-2.98,0.6c-0.89,0.79-0.76,1.83-0.57,2.84c-0.26,0.16-0.52,0.08-0.77,0.09
		c-1.49,0.06-1.98,0.71-1.61,2.14c0.03,0.11,0.03,0.22,0.05,0.32c-0.26,0.17-0.51,0.08-0.76,0.08c-1.34-0.01-2.67-0.05-4.01,0.04
		c-1.47,0.1-3.02,0.75-3.44,2.84c-0.28,1.43-0.49,2.85-0.22,4.31c0.13,0.71,0.43,1.35,0.76,1.98c0.45,0.88,0.96,1.73,1.19,2.72
		c0.11,0.48,1,0.85,1.47,0.68c0.15-0.05,0.22-0.17,0.25-0.32c0.04-0.25,0.1-0.5,0.11-0.76c0.03-0.48,0.07-0.96,0.16-1.44
		c0.24-1.24,0.69-1.51,1.9-1.12c0.27,0.09,0.53,0.22,0.77,0.37c0.66,0.42,1.35,0.41,2.03,0.11c0.31-0.14,0.53-0.12,0.77,0.09
		c0.24,0.21,0.51,0.35,0.81,0.47c0.54,0.21,1.13,0.36,1.32,1.03c0.01,0.05,0.06,0.1,0.11,0.13c0.56,0.36,1.14,0.71,1.44,1.35
		c0.04,0.08,0.18,0.16,0.28,0.17c0.74,0.08,1.32,0.47,1.88,0.91c0.2,0.18,0.42,0.15,0.64,0.06c0.13-0.03,0.25-0.05,0.38-0.08
		c0.13,0.16,0.32,0.13,0.49,0.14c0,0,0.01,0.01,0.01,0.01c0.01,0.2,0.1,0.31,0.3,0.34c0,0,0.03,0.04,0.03,0.04
		c0.05,0.04,0.09,0.09,0.14,0.13c0,0,0.03,0.02,0.03,0.02c0,0.19,0.01,0.39,0.01,0.58c-1.31,0.03-2.61-0.06-3.92,0
		c-2.96,0.14-5.87,0.6-8.77,1.14c-0.67,0.12-1.33,0.28-1.99,0.43c-0.37,0.08-0.62,0.02-0.86-0.33c-1.01-1.49-1.93-1.73-3.77-1.28
		c-0.36,0.09-0.54,0.08-0.79-0.22c-0.91-1.1-2.17-1.14-3.43-1c-0.64,0.07-0.92,0.6-1.05,1.2c-0.05,0.25,0.04,0.51-0.13,0.85
		c-1.26-0.41-2.5-0.88-3.35-1.98c-0.96-1.24-0.73-2.93,0.46-3.68c1.04-0.66,2.04-0.5,2.86,0.45c0.07,0.08,0.12,0.2,0.27,0.2
		c0.21-0.1,0.09-0.28,0.07-0.42c-0.01-0.08-0.05-0.16-0.07-0.24c-0.87-2.65-3.42-3.43-5.63-1.71c-0.84,0.65-1.41,1.48-1.65,2.51
		c-0.55,2.32-0.17,4.45,1.35,6.33c2.05,2.52,4.78,3.77,7.94,4.14c2.44,0.28,4.87,0.09,7.3-0.26c2.14-0.31,4.22-0.86,6.32-1.33
		c2.68-0.6,5.37-1.23,8.15-1.11c0.28,0.01,0.57,0.04,0.85,0.05c0.01,0.09,0.02,0.18,0.03,0.27c-0.01,0.03-0.01,0.06-0.02,0.08
		c-0.4,1.08-0.85,1.2-1.7,0.37c-0.32-0.32-0.56-0.29-0.87-0.02c-0.3,0.27-0.56,0.57-0.6,0.99c-0.03,0.3-0.2,0.43-0.5,0.47
		c-1.31,0.2-2.4,0.86-3.39,1.68c-0.56,0.46-1.13,0.57-1.82,0.41c-0.86-0.2-1.72-0.36-2.59-0.52c-1.43-0.26-2.71,0.05-3.8,1.04
		c-0.15,0.13-0.3,0.27-0.41,0.43c-0.13,0.17-0.12,0.38,0.02,0.55c0.13,0.17,0.31,0.11,0.46,0.04c0.99-0.47,1.94-0.24,2.89,0.12
		c0.66,0.25,1.33,0.5,2.01,0.71c2.08,0.63,2.62,0.63,4.57,0.1c0.19,0.12,0.17,0.34,0.24,0.52c0.27,0.74,1.33,1.44,2.08,1.38
		c0.31-0.02,0.44-0.22,0.33-0.53c-0.09-0.24-0.3-0.4-0.36-0.67c-0.09-0.42-0.01-0.61,0.41-0.65c0.79-0.08,1.6-0.16,2.37,0.07
		c0.99,0.29,1.86,0.14,2.58-0.6c0.2-0.2,0.34-0.24,0.57-0.05c0.19,0.16,0.41,0.3,0.64,0.42c0.93,0.49,1.16,0.44,1.92-0.28
		c1.68-1.59,2.99-1.59,4.76-0.23c0.85,0.65,1.44,1.53,1.93,2.47c0.31,0.6,0.56,1.24,0.9,1.83c0.34,0.6,0.3,1.29,0.12,1.91
		c-0.81,2.86-2.44,5.11-5.1,6.53c-1.33,0.71-2.7,0.53-4.04,0.01c-0.52-0.2-0.91-0.58-1.18-1.07c-0.37-0.64-0.62-1.33-0.78-2.06
		c-0.21-0.91-0.04-1.22,0.81-1.59c0.07-0.03,0.14-0.08,0.22-0.13c-0.74-0.69-0.95-0.68-2.42,0.2c-0.44-1.71,0.29-2.4,1.13-2.83
		c0.45-0.23,0.94-0.24,1.42-0.18c0.52,0.07,0.98,0.28,1.32,0.71c0.3,0.38,0.39,0.88,0.78,1.28c0.35-0.78,0.51-1.5,0.06-2.27
		c-0.57-0.98-1.4-1.57-2.49-1.75c-3.02-0.52-5.34,0.53-6.7,3.4c-0.63,1.33-0.35,2.6,0.2,3.86c0.1,0.23,0.31,0.42,0.27,0.7
		c-0.03,0.19-0.03,0.38-0.18,0.53c-1.46-0.98-2.84-2.08-4.36-2.97c-2.01-1.17-4.11-2.1-6.44-2.31c-3.31-0.3-6.36,0.5-9.11,2.38
		c-0.66,0.45-1.32,0.89-2.03,1.25c-1.22,0.62-1.22,0.63-2.21-0.22c-0.84,0.8-0.7,1.53,0.4,2.17c0.07,0.17-0.08,0.25-0.17,0.34
		c-1.42,1.39-2.02,3.13-2.15,5.06c-0.08,1.11-0.06,2.22,0.34,3.28c0.25,0.67,0.53,1.34,1.44,1.33c0.3,0,0.47,0.29,0.66,0.5
		c0.62,0.67,1.29,1.28,2.07,1.76c0.6,0.37,1.23,0.58,1.93,0.56c1.11-0.03,2.21-0.14,3.27-0.51c1.18-0.41,1.97-1.59,1.92-2.84
		c-0.03-0.63-0.33-1.13-0.79-1.55c-0.38-0.35-0.77-0.42-1.25-0.19c-0.54,0.26-0.56,0.29-0.26,0.87c0.42,0.79,0.27,1.23-0.54,1.65
		c-1.73,0.9-3.96,0.02-4.7-1.9c-0.72-1.85-0.38-3.64,0.78-5.16c1.93-2.52,4.53-3.69,7.75-3.37c0.56,0.06,0.92,0.31,1.21,0.8
		c1.12,1.92,2.64,3.47,4.51,4.68c0.65,0.42,1.35,0.7,2.11,0.96c-0.24,0.31-0.55,0.21-0.81,0.24c-3.63,0.37-4.96,3.57-4.32,6.08
		c0.41,1.61,1.58,2.6,3.15,3.07c0.71,0.22,1.39,0.04,1.99-0.54c-0.53-0.19-0.99-0.4-1.45-0.63c-0.94-0.47-1.36-2.19-1-3.19
		c0.35-0.98,1.53-1.86,2.55-1.81c0.76,0.04,1.31,0.51,1.84,0.99c0.22,0.2-0.01,0.34-0.15,0.48c-0.53,0.53-0.78,1.18-0.79,1.92
		c0,0.08,0.03,0.17,0.05,0.25c0,0.02,0.04,0.03,0.08,0.05c0.25,0.05,0.32-0.17,0.43-0.32c0.19-0.25,0.4-0.47,0.67-0.64
		c0.39-0.24,0.74-0.25,1.07,0.08c0.2,0.2,0.41,0.4,0.62,0.58c0.75,0.64,1.44,0.72,2.26,0.17c0.38-0.25,0.67-0.26,1.08-0.1
		c1.2,0.48,2.43,0.48,3.67,0.12c0.32-0.09,0.61-0.31,0.97-0.24l0.02,0.02c0.03,0.17-0.1,0.25-0.2,0.35
		c-2.22,2.14-3.63,4.79-4.66,7.64c-0.65,1.79-1.17,3.62-1.47,5.51c-0.04,0.28-0.1,0.51-0.45,0.48c-2.57-0.18-4.47,1.22-6.32,2.71
		c-0.09,0.07-0.18,0.13-0.28,0.2c-1.99-3.13-4.93-5.05-8.18-6.58c-2.07-0.98-4.22-1.67-6.51-1.89c-0.71-0.07-1.42-0.06-2.13-0.06
		c-0.94-0.01-1.88,0.01-2.81-0.02c-0.9-0.02-1.67-0.34-2.12-1.19c-0.39-0.74-1.07-1.07-1.82-1.29c-0.65-0.2-1.29-0.43-1.87-0.8
		c-1.31-0.83-1.62-2.23-0.77-3.53c0.4-0.6,0.92-1.06,1.58-1.39c0.84-0.41,1.75-0.67,2.62-1.01c1.91-0.75,2.59-2.11,2.15-4.13
		c-0.34-1.57-1.09-2.84-2.31-3.87c-0.54-0.46-1.05-0.96-1.5-1.52c-0.4-0.5-0.69-1.02-0.59-1.71c0.05-0.33-0.03-0.68-0.07-1.02
		c-0.06-0.54-0.31-0.99-0.79-1.24c-0.39-0.2-0.68-0.49-0.96-0.82c-0.26-0.3-0.53-0.59-0.83-0.86c-1.26-1.14-1.84-0.93-3.09-0.41
		c-0.74,0.31-1.13,0.92-1.15,1.74c-0.01,0.28-0.03,0.57-0.01,0.85c0.04,0.99-0.62,1.58-1.46,1.87c-0.6,0.21-0.88,0.02-0.88-0.62
		c0-0.58-0.19-1.04-0.56-1.46c-0.77-0.86-1.55-1.01-2.59-0.49c-0.92,0.46-0.96,0.43-1.21-0.57c-0.12-0.49,0.01-0.9,0.24-1.3
		c0.29-0.49,0.58-0.98,0.91-1.44c0.79-1.11,1.29-2.32,1.49-3.67c0.02-0.01,0.06-0.03,0.06-0.04c-0.01-0.04-0.03-0.08-0.04-0.12
		c-0.03-0.3-0.03-0.59,0.04-0.88c0.13-0.33,0.15-0.66-0.02-0.99c-0.01-0.12-0.01-0.23-0.02-0.35c0.44,0.04,0.75-0.34,1.17-0.36
		c0.11,0.01,0.24-0.01,0.34,0.03c1.28,0.58,2.66,0.55,4.01,0.62c3.1,0.17,5.8-2.36,6.02-5.61c0.12-1.82-0.23-3.56-0.98-5.22
		c-0.33-0.72-0.37-1.46,0-2.14c1.1-2.03,0.73-3.8-0.66-5.58c-1.67-2.14-3.5-4.02-5.96-5.24c-1.43-0.71-2.96-1.15-4.48-1.6
		c-1.55-0.46-3.11-0.87-4.54-1.67c-0.42-0.24-0.84-0.49-1.17-0.85c-0.57-0.62-0.55-1.02,0.05-1.6c0.14-0.14,0.34-0.21,0.43-0.4
		c0.01-0.02,0-0.05,0.01-0.08c-2.07-1.4-4.89,0.61-5.06,2.93c-0.1,1.31,0.36,2.45,1.05,3.52c0.25,0.38,0.53,0.74,0.86,1.18
		c-0.77-0.12-1.38-0.44-2.03-0.64c-1.57-0.47-3.12-1.03-4.72-1.44c-0.24-0.06-0.47-0.2-0.7-0.3c-0.11-0.59-0.1-1.19-0.1-1.78
		c0-9.85,0.01-19.71,0.02-29.56c0-0.31,0.04-0.62,0.06-0.93c1.45-0.12,2.9-0.08,4.35-0.08c45.56,0,91.12,0,136.68,0
		c0.25,0,0.51,0.03,0.76,0.04c0,0.45,0,0.91,0.01,1.36c0.09,8.64,0.1,17.28,0.07,25.92C171.1,115.5,171.01,116.94,170.96,118.39z" />
		<path class="aus_st3" d="M29.25,55.61c-0.16-0.73-0.09-1.47-0.09-2.21c0-10.55,0-21.1,0.01-31.65c0-0.82,0.01-1.65-0.02-2.47
		c-0.02-0.53,0.13-0.86,0.66-1.04c0.81-0.27,1.59-0.61,2.4-0.86c2.22-0.7,4.39-1.55,6.6-2.25c3.05-0.97,6.11-1.93,9.22-2.71
		c1.62-0.41,3.25-0.8,4.87-1.16c0.87-0.2,1.76-0.38,2.64-0.55c0.93-0.19,1.93-0.1,2.82-0.53c0.17-0.08,0.39-0.06,0.59-0.07
		c0.48-0.02,0.96,0.03,1.4-0.26c0.22-0.14,0.5-0.08,0.75-0.09c0.42-0.02,0.86,0.03,1.22-0.27c0.06-0.05,0.16-0.08,0.24-0.07
		c1.23,0.2,2.38-0.44,3.6-0.35c0.45,0.03,0.9,0.02,1.32-0.23c0.22-0.13,0.5-0.08,0.75-0.09c0.59-0.01,1.16-0.04,1.74-0.26
		c0.63-0.24,1.35-0.07,2.03-0.1c0.56-0.02,1.13,0.09,1.65-0.27c0.14-0.1,0.39-0.05,0.58-0.05c0.71,0,1.42,0,2.13,0
		c0.31,0,0.62,0.03,0.89-0.21c0.18-0.16,0.43-0.13,0.66-0.13c2.84,0.11,5.66-0.25,8.49-0.32c0.71-0.02,1.42-0.01,2.13-0.02
		c0.65-0.01,1.29,0.06,1.91-0.25c0.23-0.12,0.56-0.08,0.84-0.08c3.5-0.01,7-0.01,10.49-0.01c0.57,0,1.13,0.04,1.67,0.25
		c0.27,0.11,0.56,0.08,0.84,0.08c1.93,0.01,3.87,0.01,5.8,0.03c0.65,0.01,1.3-0.01,1.93,0.26c0.2,0.08,0.45,0.05,0.67,0.05
		c1.36,0,2.73,0,4.09,0.01c0.71,0,1.4,0.07,2.1,0.25c0.67,0.17,1.41,0.08,2.12,0.11c0.65,0.02,1.31-0.04,1.92,0.28
		c0.16,0.08,0.39,0.04,0.59,0.04c0.88,0.01,1.76,0,2.64,0.01c0.51,0,1,0.05,1.5,0.23c0.62,0.21,1.3,0.07,1.95,0.11
		c0.5,0.03,1.03-0.07,1.48,0.28c0.06,0.05,0.17,0.06,0.25,0.05c1.43-0.18,2.79,0.46,4.22,0.36c0.42-0.03,0.85,0,1.24,0.24
		c0.21,0.13,0.44,0.1,0.67,0.1c0.48,0,0.96,0,1.41,0.25c0.23,0.13,0.5,0.07,0.76,0.08c0.43,0.01,0.86,0,1.23,0.26
		c0.07,0.05,0.16,0.1,0.24,0.09c0.84-0.12,1.59,0.41,2.42,0.34c0.23-0.02,0.46,0.03,0.65,0.17c0.19,0.14,0.41,0.18,0.64,0.19
		c0.89,0.01,1.71,0.31,2.53,0.59c0.43,0.15,0.89,0.19,1.32,0.27c0.8,0.15,1.55,0.44,2.37,0.54c0.94,0.11,1.83,0.51,2.77,0.71
		c1.21,0.26,2.35,0.77,3.58,1c0.77,0.14,1.5,0.49,2.26,0.71c1.36,0.39,2.7,0.82,4.03,1.28c1.02,0.35,2.04,0.66,3.05,1.06
		c0.94,0.38,1.91,0.68,2.89,0.97c0.43,0.13,0.81,0.39,1.29,0.39c0.31,0.01,0.23,0.34,0.22,0.55c-0.09,1.51-0.08,3.01-0.08,4.52
		c0,10.04-0.01,20.08-0.02,30.11c0,0.6,0.04,1.19-0.08,1.79c-0.28,0.01-0.57,0.03-0.85,0.03c-46.66,0-93.33,0-139.99,0
		C29.82,55.65,29.53,55.62,29.25,55.61z M126.44,23.24c0.07-0.31-0.12-0.57-0.16-0.86c0.28-0.1,0.25-0.35,0.27-0.57
		c0.09-0.9,0.07-0.95-0.8-0.95c-1.62,0-3.24,0.05-4.86,0.05c-0.42,0-0.53,0.15-0.53,0.55c0.02,1.68,0.01,3.36,0.03,5.03
		c0.01,0.57,0.02,0.57,0.57,0.57c0.45-0.01,0.91-0.03,1.36-0.03c1.22,0.01,2.45,0.03,3.67,0.04c0.19,0,0.47,0.11,0.51-0.15
		c0.07-0.45,0.29-0.95-0.22-1.32c0-0.28,0-0.57,0-0.85C126.69,24.29,126.56,23.77,126.44,23.24z M62.29,23.21
		c0-0.28,0-0.55-0.01-0.83c0.4-0.41,0.18-0.9,0.18-1.36c0-0.17-0.2-0.16-0.34-0.16c-1.79,0.01-3.57,0.02-5.36,0.02
		c-0.33,0-0.44,0.15-0.44,0.46c0.01,1.76,0.01,3.52,0,5.27c0,0.38,0.15,0.48,0.51,0.47c1.36-0.02,2.72-0.02,4.08-0.02
		c0.4,0,0.79,0.02,1.19,0.03c0.17,0,0.39,0.02,0.38-0.21c-0.01-0.43,0.21-0.91-0.19-1.28c0-0.28,0-0.56,0-0.84
		C62.61,24.24,62.61,23.73,62.29,23.21z M75.26,22.37c0.32-0.3,0.13-0.69,0.18-1.04c0.06-0.38-0.15-0.49-0.5-0.48
		c-0.79,0.02-1.59,0.01-2.38,0c-0.24,0-0.43,0.06-0.6,0.25c-0.22,0.26-0.48,0.48-0.72,0.72c-0.12,0.12-0.24,0.22-0.28,0.41
		c-0.21,0.95,0.17,1.71,1.07,2.12c0.17,0.07,0.32,0.12,0.33,0.32c-0.01,0.3-0.01,0.61-0.02,0.91c-0.31,0.01-0.62,0.04-0.93,0.04
		c-0.34-0.01-0.46,0.15-0.44,0.47c0.01,0.14-0.01,0.28-0.01,0.43c0.01,0.56,0.01,0.56,0.58,0.56c1.08,0,2.17-0.08,3.24,0.01
		c0.85,0.07,1.46-0.18,1.98-0.82c0.3-0.38,0.6-1.39,0.31-1.72c-0.44-0.5-0.79-1.12-1.47-1.35C75.71,22.83,75.28,22.69,75.26,22.37z
		 M64.19,43.35c-0.09,0.1-0.19,0.2-0.28,0.3c-0.77,0.36-0.95,1.2-1.44,1.79c-0.44,0.52-0.71,1.18-1.2,1.69
		c-0.25,0.25-0.5,0.46-0.6,0.87c-0.06,0.26-0.69,0.26-0.9,0.64c-0.07,0.12-0.21,0.2-0.29,0.31c-0.22,0.31-0.13,0.53,0.24,0.59
		c0.44,0.08,0.77-0.05,1.02-0.43c0.32-0.5,0.89-0.77,1.37-0.89c0.69-0.17,1.56-0.25,2.18,0.02c0.84,0.38,1.73,0.73,2.57,1.38
		c0.07-0.12,0.12-0.23,0.19-0.31c0.62-0.65,1.17-1.43,2.06-1.7c0.72-0.22,1.22-0.93,2.06-0.83c0.22,0.02,0.19-0.24,0.19-0.4
		c0.01-1.73,0-3.47,0.01-5.2c0-0.28-0.07-0.5-0.33-0.63c-0.72-0.37-1.3-0.98-2.07-1.22c-0.47-0.15-0.74-0.48-1.05-0.81
		c0.35-0.38,0.78-0.66,0.96-1.11c0.22-0.56,0.67-0.95,0.98-1.43c0.23-0.36,0.36-0.81,0.69-1.11c0.68-0.63,1.21-1.35,1.6-2.22
		c0.18-0.39,0.12-0.76,0.23-1.12c0.16-0.54-0.29-0.73-0.54-1.06c-0.26-0.34-0.55-0.49-0.95-0.37c-0.34,0.1-0.59,0.59-0.63,1.02
		c-0.06,0.61,0.39,0.91,0.73,1.27c0.49,0.53,0.43,0.8-0.23,1.1c-0.55,0.25-1.1,0.35-1.71,0.35c-0.52,0-0.95-0.19-1.42-0.34
		c-0.85-0.27-1.75-0.43-2.51-0.95c-0.24-0.16-0.42-0.12-0.59,0.09c-0.98,1.28-2.39,1.92-3.81,2.54c-0.33,0.14-0.32,0.34-0.32,0.59
		c0,1.68,0.01,3.35,0,5.03c0,0.36,0.11,0.64,0.4,0.78c0.89,0.42,1.72,0.96,2.66,1.26c0.02,0.1,0.07,0.18,0.19,0.16
		c0.08,0.06,0.17,0.07,0.26,0.03c0.08,0.04,0.17,0.08,0.25,0.11C64.17,43.21,64.18,43.28,64.19,43.35z M32.54,39.13
		c-0.19,1.18,0,2.37,0.42,3.41c0.57,1.42,1.14,2.91,2.42,3.93c0.52,0.42,0.99,0.88,1.56,1.26c0.75,0.5,1.51,0.89,2.36,1.17
		c0.49,0.16,1.06,0.11,1.43,0.34c0.55,0.34,1.08,0.28,1.62,0.26c0.92-0.05,1.9,0.28,2.76-0.32c0.57,0.08,0.98-0.52,1.57-0.37
		c1.27-0.7,2.64-1.23,3.79-2.11c0.84-0.63,1.55-1.43,2.41-2.07c0.68-0.51,1.16-1.26,1.7-1.92c0.71-0.85,1.44-1.69,1.92-2.68
		c0.36-0.74,0.97-1.42,0.85-2.35c-0.01-0.1,0.05-0.21,0.1-0.31c0.53-1.1,0.18-2.26,0.23-3.39c-0.43-0.51-0.51-1.16-0.64-1.78
		c-0.03-0.14-0.08-0.27-0.2-0.36c-0.5-0.4-0.72-1.01-1.03-1.52c-0.71-1.18-1.75-1.93-2.85-2.64c-0.55-0.35-1.14-0.64-1.73-0.9
		c-0.68-0.3-1.38-0.57-2.09-0.82c-0.75-0.26-1.52-0.47-2.34-0.33c-0.16,0.03-0.22-0.16-0.34-0.21c-0.53-0.25-1.17-0.33-1.6,0.01
		c-0.67,0.51-1.39,0.92-2.07,1.38c-0.83,0.56-1.58,1.23-2.44,1.77c-1.03,0.65-1.98,1.41-3.03,2.05c-0.87,0.53-1.73,1.08-2.6,1.62
		c-0.49,0.3-1.1,0.72-1.17,1.28c-0.07,0.6-0.57,1.1-0.36,1.74c0.03,0.08-0.05,0.24-0.13,0.29c-0.27,0.18-0.24,0.41-0.21,0.68
		c0.03,0.22,0.07,0.48-0.12,0.64c-0.24,0.2-0.2,0.44-0.19,0.69C32.55,38.1,32.54,38.62,32.54,39.13z M160.25,36.64
		c0-2.25-0.05-4.44,0.03-6.62c0.02-0.61,0.21-1.29,0.75-1.77c0.47-0.43,0.87-0.92,1.3-1.38c-0.03-0.06-0.07-0.13-0.1-0.19
		c-0.75,0.16-1.49,0.32-2.2,0.68c-0.75,0.38-1.43,0.85-2.08,1.38c-0.42-0.45-0.78-0.89-1.37-1.04c-0.49-0.13-0.83-0.72-1.53-0.53
		c0.38,0.4,0.69,0.73,1,1.05c0.52,0.52,0.78,1.14,0.78,1.89c0,5.12,0,10.23,0.02,15.35c0,0.37-0.11,0.64-0.39,0.88
		c-0.36,0.31-0.68,0.67-1.07,1.06c1.13,0.6,2.06,1.39,2.98,2.19c1.03-0.52,1.82-1.41,2.89-1.88c0.38-0.16,0.38-0.31,0.09-0.62
		c-0.22-0.23-0.42-0.46-0.66-0.66c-0.33-0.27-0.47-0.58-0.46-1.03c0.03-2.5,0.02-5,0.02-7.5c0-0.25,0-0.47,0.23-0.68
		c0.79-0.75,1.59-1.49,2.47-2.15c0.13-0.1,0.25-0.11,0.36,0.02c0.56,0.62,1.02,1.26,1.01,2.16c-0.02,3.44-0.02,6.88-0.01,10.32
		c0,0.74-0.31,1.38-0.58,2.02c-0.59,1.38-1.91,2.06-2.99,2.97c-0.39-0.09-0.53,0.42-0.9,0.37c-0.53-0.07-0.85,0.36-1.28,0.54
		c-0.19,0.08-0.35,0.29-0.38,0.54c-0.02,0.12,0,0.24,0.12,0.29c0.06,0.02,0.2-0.01,0.22-0.05c0.29-0.52,1.04-0.08,1.31-0.63
		c0.87,0.12,1.43-0.57,2.14-0.85c0.64-0.25,1.25-0.59,1.82-1.04c0.37-0.3,0.83-0.52,1.16-0.91c0.09-0.11,0.19-0.2,0.34-0.23
		c0.56-0.11,0.84-0.53,1.06-0.99c0.06-0.13,0.09-0.26,0.19-0.37c0.72-0.84,1.19-2.04,1.19-3.09c0-3.13-0.04-6.25,0.03-9.38
		c0.02-0.73-0.26-1.35-0.45-1.98c-0.3-0.94-1.04-1.64-1.94-2.12c-0.15-0.08-0.24-0.1-0.36,0c-0.75,0.63-1.61,1.14-2.23,1.93
		c-0.09,0.11-0.19,0.24-0.31,0.28c-0.69,0.24-1.05,0.84-1.55,1.3C160.75,36.3,160.66,36.57,160.25,36.64z M122.81,47.09
		c2.23-0.01,3.96,1.11,5.6,2.43c0.75-0.16,1.26-0.76,1.88-1.15c0.87-0.56,1.75-1.12,2.65-1.64c0.72-0.42,0.78-0.71,0.27-1.25
		c-0.68,0.53-1.4,0.99-2.14,1.42c-0.32,0.19-0.44,0.38-0.82,0.02c-0.23-0.22-0.59-0.51-1.02-0.49c-0.54,0.03-0.93-0.43-1.5-0.41
		c-0.31,0.01-0.46-0.36-0.46-0.71c0-0.65-0.03-1.31-0.05-1.96c-0.01-0.3,0.04-0.52,0.32-0.72c0.31-0.22,0.61-0.46,0.91-0.68
		c0.56-0.4,1.09-0.84,1.66-1.23c0.5-0.34,0.97-0.75,1.51-1.01c0.55-0.27,1.02-0.66,1.52-1c0.42-0.29,0.75-0.71,1.31-0.96
		c-0.68-0.12-0.57-0.78-0.9-1.12c-0.74-0.76-1.52-1.48-2.13-2.39c-0.43-0.64-1.15-1.08-1.78-1.64c-0.4,0.21-0.95,0.49-1.5,0.78
		c-1.06,0.56-2.16,1.07-3.3,1.44c-1.05,0.34-1.06,0.3-1.06,1.35c0.01,2.96,0.02,5.91,0.04,8.87c0.01,0.6-0.09,1.11-0.61,1.49
		C123.04,46.65,122.81,46.77,122.81,47.09z M89.64,49.56c0.14-0.4,0.61-0.28,0.88-0.55c0.5-0.48,1.1-0.85,1.71-1.17
		c0.66-0.35,1.21-0.87,1.91-1.17c0.22-0.09,0.39-0.33,0.55-0.52c0.19-0.22-0.03-0.36-0.14-0.5c-0.12-0.15-0.27-0.23-0.41-0.03
		c-0.38,0.51-1.07,0.59-1.49,1.07c-0.16,0.18-0.51,0.18-0.7,0.42c-0.09,0.12-0.24,0.1-0.37-0.01c-0.69-0.63-1.57-0.8-2.43-0.99
		c-0.53-0.12-0.74-0.29-0.76-0.83c-0.02-0.57,0.05-1.15-0.03-1.7c-0.12-0.79,0.4-1.23,0.92-1.45c0.72-0.31,1.13-0.96,1.83-1.29
		c0.65-0.31,1.25-0.79,1.86-1.21c0.46-0.32,0.97-0.56,1.37-0.95c0.36-0.35,0.71-0.7,1.27-0.9c-0.66-0.17-0.61-0.82-0.96-1.19
		c-0.76-0.79-1.57-1.52-2.18-2.46c-0.39-0.61-1-1.07-1.55-1.65c-0.46,0.44-1.06,0.61-1.61,0.87c-0.91,0.43-1.74,1.03-2.77,1.21
		c-0.32,0.06-0.66,0.26-1.01,0.35c-0.38,0.1-0.63,0.36-0.58,0.81c0.02,0.22,0.01,0.45,0.01,0.68c0,2.95-0.01,5.91,0,8.86
		c0,0.45-0.1,0.81-0.46,1.12c-0.21,0.18-0.52,0.34-0.51,0.71C86.22,47.1,87.91,48.21,89.64,49.56z M113.11,32.51
		c-0.82,0.58-1.63,1.14-2.41,1.72c-0.29,0.22-0.55,0.49-0.81,0.75c-0.14,0.14-0.15,0.31-0.03,0.46c0.12,0.16,0.29,0.18,0.46,0.11
		c0.1-0.04,0.17-0.15,0.26-0.21c0.45-0.27,0.71-0.14,1,0.32c0.25,0.41,0.3,0.84,0.3,1.29c-0.01,2.53-0.04,5.06,0,7.59
		c0.01,0.66-0.16,1.22-0.47,1.76c-0.15,0.26-0.39,0.48-0.61,0.73c1.55,0.68,3.09,1.34,4.38,2.55c0.51-0.67,1.36-0.9,1.84-1.58
		c0.05-0.06,0.13-0.13,0.21-0.14c0.62-0.1,0.89-0.67,1.34-0.99c0.08-0.06,0.18-0.17,0.1-0.29c-0.09-0.14-0.23-0.15-0.37-0.1
		c-0.28,0.1-0.45,0.34-0.63,0.55c-0.21,0.25-0.41,0.26-0.63,0c-0.25-0.3-0.53-0.53-0.93-0.69c-0.55-0.22-0.86-0.67-0.79-1.35
		c0.07-0.68,0.02-1.36,0.02-2.04c0-1.99,0-3.98,0-5.97c0-0.27-0.11-0.57,0.2-0.77c0.5-0.33,0.84-0.84,1.34-1.33
		c0.58,1.02,1.41,1.81,1.91,2.76c0.81-0.77,1.56-1.49,2.28-2.18c-0.7-1.02-1.51-1.91-2.13-2.98c-0.48,0.33-0.74,0.81-1.22,1.02
		c-0.51,0.22-0.83,0.68-1.23,1.03c-0.36,0.32-0.57,0.83-1.11,1.01c-0.01-1.03-0.53-1.77-1.3-2.27
		C113.71,33.02,113.38,32.78,113.11,32.51z M79.02,49.59c0.24-0.23,0.42-0.46,0.65-0.61c0.88-0.55,1.69-1.18,2.46-1.86
		c0.17-0.15,0.65-0.29,0.33-0.61c-0.23-0.23-0.51,0.07-0.71,0.27c-0.06,0.06-0.12,0.13-0.17,0.19c-0.26,0.36-0.49,0.3-0.74-0.02
		c-0.21-0.27-0.45-0.45-0.79-0.59c-0.6-0.24-0.92-0.7-0.91-1.45c0.04-3.18,0.02-6.37,0.01-9.55c0-0.17-0.03-0.34,0.11-0.48
		c0.31,0,0.62,0,0.93,0c0.31,0,0.63-0.01,0.94,0c1.16,0,1.16,0,1.12-1.18c0-0.03,0-0.06,0-0.09c0.04-0.36-0.11-0.51-0.48-0.5
		c-0.71,0.02-1.42-0.01-2.13,0.02c-0.39,0.02-0.49-0.14-0.48-0.49c0.02-1.11,0.02-2.22,0.01-3.32c0-0.21,0.11-0.49-0.18-0.59
		c-0.29-0.1-0.47,0.13-0.64,0.32c-0.07,0.08-0.15,0.18-0.19,0.28c-0.33,0.73-0.92,1.29-1.41,1.88c-0.71,0.86-1.26,1.88-2.17,2.58
		c-0.3,0.23-0.28,0.56-0.21,0.86c0.08,0.35,0.42,0.22,0.65,0.22c0.88,0.03,0.73,0.17,0.73,0.8c0,3.01-0.03,6.03,0,9.04
		c0.01,0.64-0.23,1.14-0.5,1.66c-0.13,0.25-0.44,0.36-0.53,0.67C76.21,47.76,77.77,48.36,79.02,49.59z M102.21,49.6
		c0.52-0.69,1.39-0.9,1.87-1.6c0.04-0.06,0.13-0.12,0.21-0.14c0.61-0.13,0.88-0.68,1.33-1.01c0.08-0.06,0.17-0.19,0.08-0.29
		c-0.1-0.12-0.25-0.13-0.39-0.08c-0.25,0.09-0.41,0.3-0.57,0.5c-0.22,0.27-0.43,0.36-0.68,0.03c-0.24-0.32-0.56-0.51-0.93-0.69
		c-0.41-0.2-0.8-0.49-0.79-1.1c0.03-2.82,0.01-5.63,0.02-8.45c0-0.19-0.05-0.41,0.16-0.54c0.52-0.34,0.89-0.86,1.38-1.35
		c0.6,1,1.42,1.79,1.93,2.79c0.79-0.77,1.53-1.51,2.26-2.23c-0.72-0.98-1.43-1.96-2.15-2.95c-0.36,0.33-0.62,0.68-0.96,0.85
		c-0.82,0.41-1.36,1.1-1.97,1.73c-0.17,0.17-0.27,0.46-0.62,0.43c0.07-1.01-0.52-1.71-1.25-2.24c-0.33-0.24-0.69-0.44-0.95-0.75
		c-0.36,0.11-0.46,0.48-0.75,0.59c-0.81,0.3-1.29,1.08-2.06,1.45c-0.19,0.09-0.33,0.31-0.46,0.5c-0.1,0.15-0.08,0.34,0.05,0.47
		c0.14,0.15,0.31,0.1,0.46,0c0.07-0.05,0.11-0.13,0.19-0.17c0.44-0.26,0.69-0.12,0.99,0.32c0.29,0.44,0.32,0.88,0.32,1.37
		c0,2.5-0.02,5.01,0.02,7.51c0.01,0.66-0.16,1.22-0.49,1.75c-0.16,0.26-0.39,0.48-0.61,0.74C99.37,47.73,100.91,48.36,102.21,49.6z
		 M150.94,49.61c0.25-0.27,0.45-0.47,0.63-0.68c0.19-0.22,0.5-0.28,0.69-0.44c0.8-0.67,1.56-1.39,2.21-2.22
		c0.02-0.02,0.02-0.05,0.03-0.08c0.04-0.12,0.02-0.22-0.09-0.29c-0.09-0.06-0.17-0.02-0.23,0.04c-0.23,0.21-0.44,0.44-0.67,0.66
		c-0.53,0.52-0.5,0.42-1.26,0.24c-0.64-0.15-1.15-0.54-1.74-0.69c-0.71-0.18-0.79-0.61-0.79-1.19c0.01-1.22,0-2.44,0-3.66
		c0-1.87,0-3.74,0-5.63c0.1,0.02,0.19,0.01,0.26,0.05c0.82,0.43,1.55,1.01,2.38,1.42c0.39,0.19,0.5,0.06,0.65-0.17
		c0.17-0.25,0.19-0.57,0.45-0.8c0.45-0.38,0.74-0.9,0.99-1.46c-1.35-0.68-2.7-1.34-4.03-2.04c-0.17-0.09-0.29-0.18-0.42-0.01
		c-0.38,0.52-1.01,0.73-1.45,1.15c-0.5,0.48-1.06,0.84-1.68,1.11c-0.49,0.22-0.63,0.54-0.63,1.06c0.03,2.84,0.01,5.68,0.05,8.52
		c0.01,0.68-0.18,1.26-0.47,1.84c-0.14,0.27-0.47,0.4-0.56,0.73c0.58,0.18,1.15-0.07,1.69,0.23c0.5,0.28,1.17,0.31,1.6,0.65
		C149.32,48.55,150.16,48.99,150.94,49.61z M139.32,49.58c0.33-0.2,0.41-0.52,0.68-0.64c0.86-0.36,1.44-1.12,2.21-1.61
		c0.26-0.16,0.56-0.45,0.32-0.77c-0.22-0.3-0.48-0.03-0.73,0.12c-0.44,0.25-0.68,0.1-0.99-0.33c-0.29-0.39-0.26-0.8-0.26-1.22
		c-0.01-2.56,0.05-5.12-0.05-7.67c-0.04-1.04,0.2-1.81,1.06-2.38c0.33-0.22,0.35-0.41,0.02-0.63c-0.79-0.53-1.57-1.08-2.37-1.59
		c-0.35-0.22-0.76-0.49-1.07,0.09c-0.04,0.07-0.13,0.12-0.2,0.15c-0.86,0.38-1.41,1.21-2.35,1.56c0.29,0.26,0.49,0.45,0.7,0.63
		c0.62,0.53,0.83,1.17,0.82,2c-0.05,2.95-0.01,5.91,0,8.87c0,1.07,0.36,1.97,1.17,2.69C138.59,49.14,139,49.28,139.32,49.58z
		 M133.29,27.09C133.29,27.09,133.29,27.08,133.29,27.09c0.88,0,1.76-0.02,2.64,0c0.32,0.01,0.49-0.07,0.47-0.41
		c-0.01-0.17,0.01-0.34,0.03-0.51c0.05-0.41-0.13-0.56-0.53-0.54c-0.48,0.02-0.97,0.02-1.45,0.03c-0.21,0-0.41,0-0.44-0.27
		c-0.02-0.22,0.15-0.25,0.31-0.32c0.4-0.18,0.84-0.34,1.16-0.62c1.01-0.87,0.95-2.1,0.97-3.28c0-0.12-0.08-0.22-0.2-0.24
		c-0.36-0.08-0.76-0.14-1.09,0.01c-0.3,0.14-0.13,0.51-0.15,0.78c-0.02,0.17-0.02,0.34,0,0.51c0.09,0.73-0.15,1.14-0.88,1.5
		c-0.84,0.4-1.47,0.15-2.14-0.2c-0.61-0.33-0.34-0.95-0.36-1.47c0-0.14,0.03-0.28,0.03-0.42c0.04-0.66-0.01-0.71-0.69-0.74
		c-0.11-0.01-0.23,0-0.34,0c-0.28-0.01-0.41,0.13-0.41,0.41c0.01,0.51-0.07,1.04,0.02,1.53c0.14,0.8,0.52,1.52,1.3,1.86
		c0.28,0.12,0.48,0.41,0.81,0.42c0.18,0.01,0.23,0.15,0.21,0.3c-0.01,0.18-0.16,0.21-0.31,0.22c-0.51,0.02-1.02,0.04-1.53,0.03
		c-0.37-0.01-0.52,0.16-0.49,0.51c0.01,0.08,0,0.17,0,0.26c0,0.66,0,0.67,0.65,0.67C131.7,27.09,132.5,27.09,133.29,27.09z
		 M93.78,27.09c0.95,0.12,1.63-0.38,2.27-1.01c0.65-0.65,0.91-1.41,0.89-2.32c-0.03-1.38-1.7-2.89-3.25-2.9
		c-1.28-0.01-2.92,1.53-2.97,2.73c-0.04,0.98,0.18,1.82,0.92,2.51C92.26,26.67,92.87,27.18,93.78,27.09z M104.75,27.05
		c0,0.01,0,0.01,0,0.02c0.54,0,1.08-0.02,1.62,0.01c0.34,0.01,0.47-0.12,0.45-0.44c-0.01-0.14-0.01-0.29,0-0.43
		c0.05-0.44-0.12-0.61-0.57-0.6c-0.97,0.03-1.93,0.01-2.9,0.01c-0.22,0-0.44,0.04-0.66-0.1c-0.6-0.41-0.94-1.86-0.51-2.44
		c0.33-0.45,0.67-0.85,1.38-0.78c0.9,0.09,1.82,0.01,2.73,0.04c0.42,0.01,0.58-0.13,0.53-0.53c-0.01-0.14-0.01-0.29,0-0.43
		c0.04-0.36-0.11-0.52-0.48-0.51c-0.82,0.01-1.65,0.02-2.47-0.02c-0.58-0.03-1.11,0.08-1.6,0.41c-1.5,1.02-2.25,2.43-1.27,4.16
		c0.56,0.99,1.41,1.76,2.72,1.65C104.07,27.03,104.41,27.05,104.75,27.05z M87.03,24.12C87.04,24.12,87.04,24.12,87.03,24.12
		c0.01-0.79,0-1.59,0.01-2.38c0.01-0.86,0.01-0.84-0.81-0.86c-0.41-0.01-0.64,0.09-0.61,0.56c0.03,0.42-0.02,0.85,0.01,1.27
		c0.03,0.42-0.15,0.54-0.55,0.53c-0.65-0.01-1.3,0.03-1.95,0.02c-0.45-0.01-0.62,0.19-0.55,0.62c0.02,0.11,0.01,0.23,0,0.34
		c-0.03,0.36,0.11,0.51,0.49,0.49c0.57-0.02,1.13-0.02,1.7-0.02c1.01,0,0.84,0.05,0.86,0.81c0.01,0.37,0.02,0.74,0.01,1.11
		c-0.02,0.38,0.15,0.51,0.51,0.47c0.11-0.01,0.23-0.02,0.34,0c0.46,0.06,0.58-0.15,0.57-0.59C87.01,25.71,87.03,24.92,87.03,24.12z
		 M116.63,27.05c-0.27-0.83-0.88-1.4-1.24-2.12c-0.12-0.23-0.19-0.41,0.13-0.53c0.83-0.3,1.28-0.85,1.18-1.79
		c-0.04-0.34,0-0.68,0-1.02c0-0.66,0-0.66-0.63-0.7c-0.11-0.01-0.23,0-0.34-0.01c-0.33-0.03-0.45,0.13-0.43,0.45
		c0.02,0.48-0.01,0.96-0.01,1.45c0,0.32-0.11,0.46-0.44,0.45c-0.71-0.01-1.42,0-2.13,0.01c-0.16,0-0.4-0.04-0.44,0.16
		c-0.1,0.38-0.14,0.8,0.02,1.17c0.12,0.28,0.46,0.14,0.69,0.12c0.71-0.05,1.13,0.18,1.38,0.92
		C114.72,26.6,115.34,27.35,116.63,27.05z M66.22,24.01C66.22,24.01,66.22,24.01,66.22,24.01c0,0.85,0.02,1.71-0.01,2.56
		c-0.01,0.41,0.13,0.58,0.54,0.53c0.14-0.02,0.29-0.01,0.43,0c0.35,0.04,0.44-0.13,0.44-0.45c-0.01-1.76-0.01-3.53,0.01-5.29
		c0-0.34-0.13-0.46-0.45-0.44c-0.17,0.01-0.34,0.01-0.51-0.01c-0.33-0.02-0.45,0.12-0.45,0.45C66.23,22.25,66.22,23.13,66.22,24.01z
		 M80.87,23.91c0,0.91,0.01,1.81,0,2.72c0,0.3,0.07,0.49,0.43,0.46c0.2-0.02,0.4-0.01,0.59,0c0.3,0.01,0.39-0.14,0.39-0.41
		c0-1.78,0-3.56,0.01-5.35c0-0.3-0.13-0.4-0.41-0.4c-0.17,0-0.34-0.01-0.51-0.03c-0.35-0.04-0.52,0.08-0.51,0.47
		C80.88,22.22,80.87,23.07,80.87,23.91z M111.92,21.04c-0.26-0.13-0.49-0.1-0.72-0.11c-0.65-0.02-0.65-0.01-0.66,0.63
		c-0.01,1.64,0,3.29-0.02,4.93c0,0.41,0.07,0.67,0.55,0.59c0.14-0.02,0.28-0.01,0.42,0.01c0.28,0.02,0.41-0.09,0.41-0.39
		C111.92,24.8,111.92,22.91,111.92,21.04z M39.62,21.73c0.67,0.67,1.32,1.32,1.98,1.98c0.58-0.65,1.15-1.3,1.85-1.83
		c-0.68-0.65-1.33-1.27-2.01-1.91C40.9,20.52,40.34,21.23,39.62,21.73z M48.3,19.9c-0.61,0.63-1.18,1.32-1.89,1.84
		c0.67,0.68,1.31,1.33,1.88,1.89c0.58-0.53,1.12-1.07,1.7-1.55c0.25-0.21,0.23-0.33,0.02-0.53C49.45,21.02,48.89,20.47,48.3,19.9z
		 M141.91,26.74c-0.53-0.03-0.97-0.07-1.41-0.09c-0.14-0.01-0.35,0.02-0.34,0.17c0.01,0.37-0.31,0.59-0.39,0.91
		c-0.16,0.66-0.28,1.32-0.64,1.92c-0.07,0.12-0.08,0.28,0.03,0.39c0.13,0.14,0.31,0.18,0.46,0.07c0.32-0.23,0.68-0.45,0.82-0.83
		C140.77,28.4,141.42,27.72,141.91,26.74z" />
		<path class="aus_st4" d="M29.25,55.61c0.28,0.01,0.57,0.04,0.85,0.04c46.66,0,93.33,0,139.99,0c0.28,0,0.57-0.02,0.85-0.03
		c0.34,0.22,0.2,0.57,0.2,0.86c0.02,2.27,0.02,4.54,0.02,6.82c0,7.5-0.01,14.99-0.02,22.49c0,0.33,0.09,0.68-0.12,0.99
		c-0.25-0.01-0.51-0.04-0.76-0.04c-45.56,0-91.12,0-136.68,0c-1.45,0-2.9-0.04-4.35,0.08c-0.13-0.27-0.08-0.56-0.08-0.84
		c0-9.81,0-19.62,0.01-29.43C29.16,56.22,29.09,55.9,29.25,55.61z" />
		<path class="aus_st5" d="M29.25,125.25c0.88,0.03,1.57,0.58,2.36,0.87c0.35,0.13,0.23,0.54,0.28,0.83l0,0
		c-0.92-0.04-1.79-0.32-2.67-0.52C29.17,126.04,29.13,125.65,29.25,125.25z" />
		<path class="aus_st5" d="M29.28,128.52c0.11-0.01,0.23-0.06,0.33-0.03c0.85,0.2,1.67,0.54,2.55,0.6c0.15,0.01,0.33,0.08,0.44,0.32
		c-1.15-0.06-2.28-0.09-3.39-0.28C29.24,128.92,29.26,128.72,29.28,128.52z" />
		<path class="aus_st6" d="M170.38,139.57c-0.92-0.15-1.84-0.3-2.75-0.45c0.01-0.06,0.02-0.12,0.03-0.19c0.93-0.22,1.84,0.06,2.76,0.2
		C170.4,139.28,170.39,139.43,170.38,139.57z" />
		<path class="aus_st7" d="M170.97,127.94c-0.48,0.05-0.96,0.09-1.41-0.13c0.46-0.2,0.93-0.31,1.41-0.31
		C170.97,127.65,170.97,127.8,170.97,127.94z" />
		<path class="aus_st6" d="M30.1,139.66c0.43-0.16,0.86-0.09,1.45-0.03c-0.51,0.33-0.95,0.21-1.36,0.28
		C30.14,139.83,30.07,139.76,30.1,139.66z" />
		<path class="aus_st7" d="M170.82,125.3c0.07-0.02,0.15-0.03,0.22-0.05c0.07,0.17,0.07,0.33-0.01,0.5c-0.08,0.01-0.15,0.01-0.23,0.02
		C170.81,125.61,170.81,125.46,170.82,125.3z" />
		<path class="aus_st5" d="M46.79,143.16c-0.42,0.02-0.73,0.4-1.17,0.36c-0.14-1.41-0.78-2.65-1.32-3.92c-0.09-0.21-0.19-0.41-0.24-0.63
		c-0.08-0.32,0.12-0.47,0.4-0.54c0.27-0.06,0.45,0.06,0.5,0.32c0.04,0.19,0.05,0.39,0.06,0.59c0.06,1.37,0.58,2.52,1.57,3.46
		C46.7,142.91,46.77,143.01,46.79,143.16z" />
		<path class="aus_st5" d="M91.64,132.87c0-0.19-0.01-0.39-0.01-0.58c0.62,0.38,1.31,0.45,2.01,0.47c2.13,0.04,4.14,0.52,6,1.58
		c-0.07,0.06-0.14,0.13-0.2,0.19c-1.14-0.38-2.28-0.78-3.45-1.09c-1.27-0.33-2.57-0.31-3.85-0.49
		C91.97,132.91,91.8,132.89,91.64,132.87z" />
		<path class="aus_st5" d="M122.06,124.55c-0.48,0.2-1.09,0.08-1.44,0.59c-1.02-0.47-2.07-0.87-3.03-1.44c0-0.09-0.01-0.19-0.01-0.28
		c1.43,0.18,2.81,0.59,4.19,0.98C121.87,124.44,121.96,124.51,122.06,124.55z" />
		<path class="aus_st6" d="M91.82,136.87c-0.01-0.09-0.02-0.18-0.03-0.27c1.39-0.08,2.73,0.32,4.11,0.34c-0.81,0.53-1.63,0.48-2.47,0.11
		C92.91,136.83,92.4,136.55,91.82,136.87z" />
		<path class="aus_st6" d="M118.77,118.6c-0.06,0.16-0.03,0.33,0.01,0.49c-1.17-0.13-2.32-0.32-3.56-0.95c0.76,0.05,1.31,0.24,1.89,0.26
		C117.67,118.4,118.24,118.37,118.77,118.6z" />
		<path class="aus_st6" d="M170.82,125.3c0,0.16-0.01,0.31-0.01,0.47c-0.52,0.26-1.06,0.47-1.69,0.49
		C169.44,125.8,169.75,125.63,170.82,125.3z" />
		<path class="aus_st6" d="M87.88,154.27c0.15-0.14,0.15-0.34,0.18-0.53c0.43,0.31,0.77,0.69,1.16,1.23
		C88.62,154.83,88.24,154.57,87.88,154.27z" />
		<path class="aus_st6" d="M31.9,126.96c0.38-0.02,0.77-0.04,1.15-0.05c0.32-0.01,0.54,0.12,0.54,0.55
		C33.01,127.32,32.39,127.38,31.9,126.96C31.9,126.96,31.9,126.96,31.9,126.96z" />
		<path class="aus_st6" d="M94.93,101.03c0.14,0.07,0.16,0.19,0.12,0.33c-0.31,0.15-0.17,0.44-0.19,0.67c-0.03,0.3-0.01,0.61-0.01,0.93
		C94.51,102.45,94.54,101.94,94.93,101.03z" />
		<path class="aus_st6" d="M94.7,98.79c0.01,0.1,0.02,0.19,0.03,0.29c-0.41,0.19-0.08,0.68-0.38,0.92C94.17,99.13,94.17,99.13,94.7,98.79
		z" />
		<path class="aus_st6" d="M99.43,134.52c0.07-0.06,0.14-0.13,0.2-0.19c0.44,0.11,0.74,0.46,1.12,0.67c-0.13,0.02-0.27,0.03-0.4,0.05
		C100.08,134.81,99.67,134.81,99.43,134.52z" />
		<path class="aus_st8" d="M135.51,151.39c-0.27-0.12-0.38-0.35-0.55-0.69c0.31,0.07,0.47,0.17,0.59,0.35
		C135.53,151.16,135.52,151.28,135.51,151.39z" />
		<path class="aus_st6" d="M117.57,123.43c0,0.09,0.01,0.19,0.01,0.28c-0.24-0.04-0.4-0.19-0.59-0.39
		C117.24,123.18,117.4,123.34,117.57,123.43z" />
		<path class="aus_st5" d="M45.64,143.87c0.16,0.33,0.15,0.66,0.02,0.99C45.58,144.53,45.59,144.2,45.64,143.87z" />
		<path class="aus_st5" d="M90.24,131.68c-0.22,0.09-0.44,0.12-0.64-0.06C89.82,131.6,90.03,131.61,90.24,131.68z" />
		<path class="aus_st5" d="M91.11,131.75c-0.17-0.01-0.36,0.03-0.49-0.14C90.83,131.5,91.01,131.49,91.11,131.75z" />
		<path class="aus_st5" d="M91.42,132.1c-0.2-0.03-0.3-0.15-0.3-0.34C91.28,131.81,91.36,131.95,91.42,132.1z" />
		<path class="aus_st8" d="M100.35,135.05c0.13-0.02,0.27-0.03,0.4-0.05c0.04,0.05,0.08,0.09,0.12,0.14l-0.04,0.04
		C100.66,135.17,100.48,135.19,100.35,135.05z" />
		<path class="aus_st6" d="M119.8,118.66c-0.13,0.13-0.25,0.11-0.36-0.02C119.57,118.59,119.69,118.6,119.8,118.66z" />
		<path class="aus_st8" d="M101.04,135.31c0.07,0.03,0.15,0.06,0.22,0.09c-0.02,0.02-0.03,0.06-0.05,0.06c-0.1,0.01-0.15-0.04-0.2-0.12
		C101.01,135.34,101.04,135.31,101.04,135.31z" />
		<path class="aus_st8" d="M100.87,135.13c0.06,0.06,0.11,0.11,0.17,0.17c0,0-0.03,0.03-0.03,0.03c-0.09-0.02-0.15-0.08-0.17-0.16
		C100.83,135.18,100.87,135.13,100.87,135.13z" />
		<path class="aus_st5" d="M91.59,132.26c-0.05-0.04-0.09-0.09-0.14-0.13C91.54,132.14,91.58,132.18,91.59,132.26z" />
		<path class="aus_st5" d="M45.61,145.74c0.02,0.04,0.04,0.08,0.04,0.12c0,0.01-0.04,0.03-0.06,0.04
		C45.6,145.85,45.6,145.79,45.61,145.74z" />
		<path class="aus_st2" d="M94.19,167.4c-0.02-0.07,0.01-0.12,0.07-0.11c0.03,0,0.06,0.05,0.08,0.08c-0.04,0.02-0.09,0.03-0.13,0.05
		C94.2,167.41,94.19,167.4,94.19,167.4z" />
		<path class="aus_st9" d="M32.54,39.13c0-0.51,0.01-1.02,0-1.53c-0.01-0.26-0.05-0.49,0.19-0.69c0.19-0.16,0.15-0.42,0.12-0.64
		c-0.03-0.26-0.06-0.5,0.21-0.68c0.08-0.05,0.16-0.21,0.13-0.29c-0.21-0.64,0.28-1.15,0.36-1.74c0.07-0.56,0.68-0.98,1.17-1.28
		c0.87-0.54,1.73-1.09,2.6-1.62c1.05-0.64,2-1.4,3.03-2.05c0.86-0.54,1.61-1.21,2.44-1.77c0.69-0.47,1.41-0.87,2.07-1.38
		c0.43-0.33,1.07-0.25,1.6-0.01c0.11,0.05,0.18,0.24,0.34,0.21c0.82-0.14,1.59,0.07,2.34,0.33c0.71,0.24,1.41,0.51,2.09,0.82
		c0.59,0.26,1.19,0.55,1.73,0.9c1.1,0.71,2.15,1.46,2.85,2.64c0.31,0.52,0.54,1.12,1.03,1.52c0.12,0.1,0.17,0.22,0.2,0.36
		c0.14,0.62,0.21,1.27,0.64,1.78c-0.05,1.13,0.3,2.29-0.23,3.39c-0.05,0.1-0.11,0.21-0.1,0.31c0.12,0.93-0.49,1.61-0.85,2.35
		c-0.48,0.99-1.21,1.82-1.92,2.68c-0.55,0.66-1.02,1.42-1.7,1.92c-0.86,0.64-1.57,1.43-2.41,2.07c-1.15,0.87-2.52,1.41-3.79,2.11
		c-0.59-0.15-1,0.45-1.57,0.37c-0.86,0.59-1.84,0.27-2.76,0.32c-0.54,0.03-1.07,0.08-1.62-0.26c-0.37-0.23-0.94-0.18-1.43-0.34
		c-0.85-0.29-1.61-0.68-2.36-1.17c-0.57-0.38-1.04-0.84-1.56-1.26c-1.28-1.03-1.85-2.51-2.42-3.93
		C32.54,41.5,32.35,40.3,32.54,39.13z M44.74,42.98c0.01,0,0.01,0,0.02,0c0,0.88,0,1.76,0,2.64c0,0.3,0.09,0.44,0.43,0.48
		c0.89,0.09,1.66-0.43,2.52-0.47c0.04,0,0.08-0.1,0.12-0.11c0.39-0.07,0.7-0.33,1.05-0.5c0.92-0.43,1.79-0.97,2.54-1.69
		c0.41-0.39,0.66-0.91,1.03-1.29c0.59-0.6,0.92-1.3,1.3-2.01c0.07-0.13,0.18-0.22,0.04-0.36c-0.22-0.22-0.41-0.51-0.67-0.64
		c-0.82-0.41-1.67-0.75-2.52-1.11c-0.07-0.03-0.17-0.02-0.25-0.02c-0.68,0-1.36,0-2.04,0c-0.14,0-0.28-0.01-0.39,0.1
		c-0.45,0.48-1.11,0.59-1.65,0.92c-0.92,0.56-1.73,1.14-1.52,2.42C44.81,41.89,44.74,42.44,44.74,42.98z M44.08,37.28
		C44.09,37.28,44.09,37.28,44.08,37.28c0.01-2.47,0.02-4.94,0-7.42c0-0.44,0.18-1.04-0.15-1.3c-0.42-0.32-1.04-0.09-1.57-0.1
		c-0.27-0.01-0.3,0.15-0.29,0.39c0.03,3.07,0.02,6.14,0.07,9.21c0.01,0.81-0.07,1.57-0.5,2.24c-0.25,0.39-0.43,0.83-0.8,1.16
		c-0.68,0.6-1.29,1.28-1.95,1.91c-0.29,0.28-0.27,0.49-0.02,0.79c0.32,0.4,0.76,0.56,1.19,0.74c0.77,0.31,1.42,0.95,2.34,0.85
		c0.18-0.02,0.29,0.11,0.43,0.22c0.32,0.23,0.73,0.18,1.06,0.08c0.34-0.1,0.18-0.49,0.18-0.75C44.09,42.63,44.08,39.95,44.08,37.28z
		 M44.75,30.56C44.75,30.56,44.74,30.56,44.75,30.56c-0.01,0.57,0.02,1.14-0.01,1.7c-0.02,0.35,0.08,0.6,0.36,0.8
		c0.76,0.55,1.5,1.14,2.51,1.14c0.07,0,0.18,0.05,0.21,0.11c0.15,0.38,0.43,0.24,0.71,0.23c0.57-0.02,1.13,0,1.7,0.01
		c0.17,0,0.35,0.07,0.5-0.02c0.66-0.42,1.38-0.71,2.08-1.04c0.27-0.13,0.61-0.39,0.41-0.73c-0.27-0.47-0.46-1.01-0.91-1.38
		c-0.23-0.19-0.52-0.17-0.74-0.37c-0.58-0.52-1.26-0.9-1.92-1.3c-0.34-0.21-0.72-0.12-1.03-0.32c-1.01-0.67-2.24-0.55-3.34-0.94
		c-0.41-0.15-0.51,0.01-0.51,0.5C44.74,29.48,44.75,30.02,44.75,30.56z M38.78,30.5c-0.64,0.67-1.29,1.33-1.91,2.02
		c-0.66,0.73-1.16,1.54-1.23,2.55c-0.01,0.14-0.02,0.32-0.1,0.4c-0.3,0.28-0.22,0.62-0.22,0.95c-0.01,0.57-0.01,1.14-0.01,1.71
		c0,0.2-0.06,0.41,0.13,0.56c0.27,0.21,0.22,0.5,0.21,0.78c-0.01,0.23,0.08,0.41,0.19,0.62c0.48,0.91,0.93,1.83,1.52,2.68
		c0.16,0.22,0.76,0.39,0.84,0.18c0.23-0.65,0.8-1.17,0.8-1.9c0-3.3-0.02-6.6-0.04-9.9C38.95,30.94,39.03,30.7,38.78,30.5z
		 M54.13,39.12c0.21-0.41-0.01-0.79,0.2-1.01c0.34-0.34,0.25-0.73,0.27-1.11c0.01-0.28-0.04-0.58,0.01-0.85
		c0.15-0.77-0.33-1.39-0.44-2.11c-0.06-0.4-0.44-0.47-0.74-0.17c-0.33,0.33-0.77,0.43-1.15,0.66c-0.4,0.24-0.93,0.23-1.26,0.45
		c-0.33,0.22-0.59,0.23-0.92,0.23c-0.65,0-1.31,0-1.96-0.01c-0.17,0-0.38,0.04-0.5-0.04c-0.69-0.43-1.44-0.73-2.15-1.09
		c-0.25-0.13-0.33-0.55-0.72-0.47c0,0.98,0,1.95,0,2.91c0,0.94,0,1.89,0,2.83c0.51-0.54,1.27-0.66,1.68-1.2
		c0.46-0.61,1.2-0.68,1.82-0.85c0.69-0.19,1.47-0.06,2.21-0.06c0.11,0,0.28,0.01,0.31,0.07c0.22,0.46,0.58,0.36,0.95,0.29
		c0.14-0.03,0.31-0.04,0.41,0.07C52.7,38.27,53.67,38.26,54.13,39.12z" />
		<path class="aus_st10" d="M160.25,36.64c0.4-0.07,0.49-0.34,0.68-0.51c0.5-0.45,0.87-1.06,1.55-1.3c0.12-0.04,0.23-0.17,0.31-0.28
		c0.62-0.79,1.48-1.3,2.23-1.93c0.12-0.1,0.21-0.08,0.36,0c0.9,0.48,1.64,1.17,1.94,2.12c0.2,0.62,0.47,1.24,0.45,1.98
		c-0.07,3.13-0.03,6.25-0.03,9.38c0,1.05-0.47,2.26-1.19,3.09c-0.1,0.11-0.13,0.25-0.19,0.37c-0.22,0.46-0.5,0.88-1.06,0.99
		c-0.15,0.03-0.25,0.12-0.34,0.23c-0.32,0.39-0.78,0.61-1.16,0.91c-0.57,0.46-1.18,0.79-1.82,1.04c-0.71,0.28-1.27,0.97-2.14,0.85
		c-0.27,0.56-1.02,0.11-1.31,0.63c-0.03,0.05-0.16,0.08-0.22,0.05c-0.11-0.05-0.13-0.17-0.12-0.29c0.03-0.25,0.19-0.46,0.38-0.54
		c0.43-0.18,0.75-0.61,1.28-0.54c0.37,0.05,0.52-0.46,0.9-0.37c1.08-0.91,2.4-1.59,2.99-2.97c0.27-0.64,0.59-1.28,0.58-2.02
		c-0.01-3.44-0.01-6.88,0.01-10.32c0.01-0.9-0.46-1.54-1.01-2.16c-0.12-0.13-0.23-0.12-0.36-0.02c-0.87,0.66-1.67,1.4-2.47,2.15
		c-0.23,0.22-0.23,0.43-0.23,0.68c0,2.5,0.01,5-0.02,7.5c-0.01,0.45,0.13,0.75,0.46,1.03c0.24,0.2,0.45,0.44,0.66,0.66
		c0.29,0.3,0.29,0.45-0.09,0.62c-1.07,0.47-1.86,1.35-2.89,1.88c-0.91-0.8-1.85-1.59-2.98-2.19c0.39-0.39,0.71-0.75,1.07-1.06
		c0.28-0.24,0.39-0.51,0.39-0.88c-0.02-5.12-0.02-10.23-0.02-15.35c0-0.75-0.26-1.36-0.78-1.89c-0.32-0.32-0.62-0.65-1-1.05
		c0.7-0.2,1.04,0.4,1.53,0.53c0.59,0.15,0.95,0.59,1.37,1.04c0.65-0.53,1.33-1,2.08-1.38c0.7-0.35,1.45-0.51,2.2-0.68
		c0.03,0.06,0.07,0.13,0.1,0.19c-0.43,0.46-0.84,0.96-1.3,1.38c-0.53,0.49-0.72,1.16-0.75,1.77
		C160.2,32.21,160.25,34.39,160.25,36.64z" />
		<path class="aus_st10" d="M63.46,42.84c-0.94-0.31-1.77-0.85-2.66-1.26c-0.29-0.14-0.41-0.42-0.4-0.78c0.02-1.68,0.01-3.35,0-5.03
		c0-0.25-0.01-0.45,0.32-0.59c1.42-0.62,2.83-1.26,3.81-2.54c0.17-0.21,0.35-0.25,0.59-0.09c0.76,0.52,1.65,0.68,2.51,0.95
		c0.47,0.15,0.9,0.34,1.42,0.34c0.61,0,1.16-0.1,1.71-0.35c0.67-0.3,0.72-0.57,0.23-1.1c-0.34-0.36-0.79-0.66-0.73-1.27
		c0.04-0.43,0.3-0.92,0.63-1.02c0.4-0.12,0.7,0.03,0.95,0.37c0.25,0.33,0.7,0.52,0.54,1.06c-0.11,0.36-0.05,0.73-0.23,1.12
		c-0.39,0.86-0.92,1.58-1.6,2.22c-0.33,0.31-0.46,0.75-0.69,1.11c-0.31,0.49-0.76,0.88-0.98,1.43c-0.18,0.45-0.61,0.74-0.96,1.11
		c0.31,0.33,0.58,0.66,1.05,0.81c0.78,0.25,1.36,0.86,2.07,1.22c0.26,0.13,0.33,0.35,0.33,0.63c-0.01,1.73-0.01,3.47-0.01,5.2
		c0,0.16,0.03,0.42-0.19,0.4c-0.84-0.1-1.35,0.61-2.06,0.83c-0.9,0.27-1.44,1.05-2.06,1.7c-0.08,0.08-0.12,0.19-0.19,0.31
		c-0.83-0.65-1.72-1-2.57-1.38c-0.61-0.28-1.48-0.2-2.18-0.02c-0.48,0.12-1.05,0.39-1.37,0.89c-0.25,0.38-0.58,0.51-1.02,0.43
		c-0.37-0.07-0.46-0.28-0.24-0.59c0.08-0.11,0.22-0.19,0.29-0.31c0.21-0.38,0.83-0.38,0.9-0.64c0.1-0.42,0.35-0.62,0.6-0.87
		c0.49-0.5,0.76-1.16,1.2-1.69c0.49-0.59,0.67-1.43,1.44-1.79c0.14,0.03,0.28,0.07,0.42,0.1c-0.19,0.15-0.51,0.28-0.55,0.46
		c-0.1,0.47-0.5,0.7-0.68,1.06c-0.12,0.23-0.55,0.58-0.11,0.93l0.06,0.03l0.06-0.04c0.31-0.11,0.47-0.43,0.87-0.45
		c1.13-0.05,2.17,0.14,3.18,0.66c0.2,0.1,0.41,0.39,0.75,0.26c0-1.15-0.04-2.29,0.02-3.42c0.03-0.64-0.28-1.01-0.72-1.34
		c-0.27-0.21-0.62-0.26-0.88-0.49c-0.15-0.13-0.33-0.06-0.43,0.11c-0.11,0.19-0.29,0.33-0.37,0.56c-0.18,0.58-0.7,0.95-0.98,1.46
		c-0.12-0.06-0.24-0.12-0.36-0.18c-0.01-0.07-0.02-0.14-0.03-0.21c-0.06-0.09-0.14-0.12-0.25-0.11c-0.09,0.04-0.18,0.04-0.26-0.03
		C63.59,42.95,63.52,42.89,63.46,42.84z M69.02,36.23c-0.45,0-0.74-0.02-1.01,0c-1.18,0.11-2.29-0.08-3.31-0.71
		c-0.12-0.07-0.24-0.16-0.36-0.21c-0.35-0.16-0.47-0.1-0.48,0.28c-0.02,1.19-0.01,2.39-0.02,3.58c-0.01,0.4,0.18,0.67,0.53,0.77
		c0.29,0.08,0.51,0.23,0.72,0.43c0.44,0.43,0.45,0.42,0.92-0.03c0.12-0.12,0.28-0.21,0.37-0.35c0.5-0.84,1.07-1.63,1.73-2.36
		C68.43,37.26,68.65,36.79,69.02,36.23z" />
		<path class="aus_st11"
			d="M122.81,47.09c0.01-0.32,0.24-0.44,0.4-0.56c0.52-0.38,0.61-0.89,0.61-1.49c-0.03-2.96-0.03-5.91-0.04-8.87
		c0-1.05,0.01-1.01,1.06-1.35c1.14-0.37,2.24-0.87,3.3-1.44c0.55-0.29,1.1-0.57,1.5-0.78c0.63,0.56,1.35,1,1.78,1.64
		c0.61,0.91,1.38,1.63,2.13,2.39c0.33,0.34,0.22,1,0.9,1.12c-0.56,0.25-0.89,0.68-1.31,0.96c-0.5,0.34-0.96,0.73-1.52,1
		c-0.54,0.26-1.01,0.67-1.51,1.01c-0.57,0.39-1.11,0.83-1.66,1.23c-0.31,0.22-0.6,0.46-0.91,0.68c-0.28,0.2-0.33,0.43-0.32,0.72
		c0.02,0.65,0.05,1.31,0.05,1.96c0,0.35,0.15,0.73,0.46,0.71c0.57-0.02,0.96,0.44,1.5,0.41c0.42-0.02,0.79,0.27,1.02,0.49
		c0.38,0.36,0.5,0.17,0.82-0.02c0.74-0.43,1.47-0.89,2.14-1.42c0.51,0.53,0.45,0.83-0.27,1.25c-0.9,0.52-1.77,1.09-2.65,1.64
		c-0.62,0.39-1.13,0.99-1.88,1.15C126.77,48.2,125.03,47.08,122.81,47.09z M127.37,41.7c0.37-0.36,0.84-0.59,1.21-0.91
		c0.73-0.62,1.49-1.16,2.32-1.63c0.5-0.28,0.49-0.47,0.11-0.92c-1.05-1.25-2.47-2.16-3.3-3.61c-0.06-0.1-0.17-0.14-0.3-0.11
		c-0.14,0.03-0.17,0.13-0.18,0.25c0,0.08,0.01,0.17,0.01,0.25c0.01,2.07,0.07,4.13-0.05,6.2C127.2,41.36,127.18,41.51,127.37,41.7z" />
		<path class="aus_st10" d="M89.64,49.56c-1.73-1.34-3.43-2.46-5.65-2.47c-0.01-0.37,0.3-0.53,0.51-0.71c0.36-0.31,0.46-0.67,0.46-1.12
		c-0.01-2.95,0-5.91,0-8.86c0-0.23,0.02-0.46-0.01-0.68c-0.05-0.46,0.2-0.71,0.58-0.81c0.35-0.09,0.69-0.29,1.01-0.35
		c1.03-0.18,1.86-0.78,2.77-1.21c0.55-0.26,1.16-0.43,1.61-0.87c0.55,0.58,1.15,1.05,1.55,1.65c0.61,0.94,1.42,1.68,2.18,2.46
		c0.35,0.36,0.3,1.02,0.96,1.19c-0.56,0.2-0.91,0.55-1.27,0.9c-0.4,0.39-0.92,0.63-1.37,0.95c-0.61,0.42-1.21,0.91-1.86,1.21
		c-0.7,0.33-1.11,0.99-1.83,1.29c-0.52,0.22-1.04,0.66-0.92,1.45c0.09,0.56,0.01,1.13,0.03,1.7c0.02,0.54,0.23,0.71,0.76,0.83
		c0.86,0.2,1.74,0.37,2.43,0.99c0.13,0.12,0.27,0.14,0.37,0.01c0.19-0.24,0.54-0.24,0.7-0.42c0.42-0.48,1.11-0.56,1.49-1.07
		c0.15-0.2,0.29-0.12,0.41,0.03c0.11,0.15,0.34,0.28,0.14,0.5c-0.17,0.19-0.34,0.42-0.55,0.52c-0.69,0.3-1.24,0.82-1.91,1.17
		c-0.61,0.32-1.21,0.69-1.71,1.17C90.25,49.28,89.79,49.16,89.64,49.56z M88.38,41.85c0.53-0.52,1-0.77,1.4-1.09
		c0.72-0.58,1.45-1.14,2.26-1.58c0.53-0.29,0.54-0.52,0.09-0.98c-0.73-0.75-1.47-1.49-2.2-2.25c-0.37-0.38-0.84-0.68-1.01-1.24
		c-0.05-0.15-0.18-0.22-0.34-0.2c-0.24,0.03-0.21,0.23-0.21,0.39C88.38,37.15,88.38,39.38,88.38,41.85z" />
		<path class="aus_st11" d="M113.11,32.51c0.27,0.27,0.61,0.51,0.96,0.74c0.77,0.5,1.28,1.24,1.3,2.27c0.54-0.18,0.75-0.69,1.11-1.01
		c0.4-0.36,0.72-0.81,1.23-1.03c0.48-0.21,0.74-0.68,1.22-1.02c0.62,1.07,1.43,1.96,2.13,2.98c-0.72,0.69-1.47,1.41-2.28,2.18
		c-0.5-0.95-1.32-1.74-1.91-2.76c-0.5,0.49-0.84,0.99-1.34,1.33c-0.31,0.2-0.2,0.51-0.2,0.77c-0.01,1.99,0,3.98,0,5.97
		c0,0.68,0.05,1.37-0.02,2.04c-0.07,0.68,0.25,1.13,0.79,1.35c0.39,0.16,0.68,0.39,0.93,0.69c0.22,0.26,0.41,0.25,0.63,0
		c0.18-0.21,0.35-0.46,0.63-0.55c0.14-0.05,0.29-0.04,0.37,0.1c0.08,0.12-0.02,0.24-0.1,0.29c-0.45,0.33-0.72,0.89-1.34,0.99
		c-0.08,0.01-0.16,0.07-0.21,0.14c-0.49,0.68-1.34,0.92-1.84,1.58c-1.28-1.2-2.83-1.86-4.38-2.55c0.22-0.26,0.46-0.47,0.61-0.73
		c0.32-0.54,0.48-1.1,0.47-1.76c-0.04-2.53-0.01-5.06,0-7.59c0-0.46-0.04-0.88-0.3-1.29c-0.29-0.46-0.54-0.59-1-0.32
		c-0.1,0.06-0.16,0.17-0.26,0.21c-0.17,0.07-0.34,0.05-0.46-0.11c-0.12-0.16-0.11-0.33,0.03-0.46c0.26-0.26,0.52-0.53,0.81-0.75
		C111.48,33.65,112.29,33.1,113.11,32.51z" />
		<path class="aus_st10" d="M79.02,49.59c-1.25-1.23-2.81-1.83-4.29-2.54c0.09-0.31,0.4-0.42,0.53-0.67c0.27-0.52,0.5-1.03,0.5-1.66
		c-0.03-3.01-0.01-6.02,0-9.04c0-0.62,0.16-0.76-0.73-0.8c-0.22-0.01-0.57,0.13-0.65-0.22c-0.07-0.3-0.09-0.64,0.21-0.86
		c0.91-0.7,1.46-1.72,2.17-2.58c0.49-0.59,1.08-1.15,1.41-1.88c0.05-0.1,0.12-0.19,0.19-0.28c0.17-0.19,0.35-0.43,0.64-0.32
		c0.29,0.1,0.18,0.39,0.18,0.59c0.01,1.11,0.01,2.22-0.01,3.32c-0.01,0.36,0.09,0.51,0.48,0.49c0.71-0.03,1.42,0,2.13-0.02
		c0.38-0.01,0.52,0.14,0.48,0.5c0,0.03,0,0.06,0,0.09c0.04,1.18,0.04,1.18-1.12,1.18c-0.31,0-0.63,0-0.94,0c-0.31,0-0.62,0-0.93,0
		c-0.14,0.14-0.11,0.31-0.11,0.48c0,3.18,0.03,6.37-0.01,9.55c-0.01,0.75,0.31,1.21,0.91,1.45c0.34,0.14,0.58,0.32,0.79,0.59
		c0.25,0.32,0.48,0.38,0.74,0.02c0.05-0.07,0.11-0.13,0.17-0.19c0.2-0.2,0.48-0.51,0.71-0.27c0.32,0.32-0.16,0.46-0.33,0.61
		c-0.78,0.68-1.59,1.31-2.46,1.86C79.44,49.13,79.26,49.36,79.02,49.59z" />
		<path class="aus_st9" d="M102.21,49.6c-1.31-1.24-2.84-1.87-4.36-2.57c0.22-0.26,0.45-0.48,0.61-0.74c0.33-0.53,0.5-1.09,0.49-1.75
		c-0.04-2.5-0.02-5.01-0.02-7.51c0-0.48-0.02-0.93-0.32-1.37c-0.3-0.44-0.55-0.58-0.99-0.32c-0.07,0.04-0.12,0.13-0.19,0.17
		c-0.15,0.1-0.32,0.15-0.46,0c-0.13-0.13-0.15-0.32-0.05-0.47c0.12-0.19,0.27-0.4,0.46-0.5c0.77-0.38,1.25-1.15,2.06-1.45
		c0.3-0.11,0.39-0.48,0.75-0.59c0.26,0.31,0.62,0.51,0.95,0.75c0.73,0.53,1.31,1.23,1.25,2.24c0.36,0.03,0.45-0.25,0.62-0.43
		c0.61-0.63,1.15-1.32,1.97-1.73c0.34-0.17,0.6-0.52,0.96-0.85c0.72,0.99,1.43,1.97,2.15,2.95c-0.73,0.72-1.48,1.46-2.26,2.23
		c-0.51-1-1.33-1.79-1.93-2.79c-0.49,0.49-0.86,1-1.38,1.35c-0.21,0.14-0.16,0.35-0.16,0.54c0,2.82,0.01,5.63-0.02,8.45
		c-0.01,0.61,0.38,0.9,0.79,1.1c0.37,0.18,0.69,0.37,0.93,0.69c0.25,0.33,0.46,0.23,0.68-0.03c0.16-0.2,0.32-0.4,0.57-0.5
		c0.14-0.05,0.29-0.04,0.39,0.08c0.09,0.11,0.01,0.23-0.08,0.29c-0.45,0.33-0.73,0.89-1.33,1.01c-0.08,0.02-0.17,0.07-0.21,0.14
		C103.6,48.7,102.73,48.91,102.21,49.6z" />
		<path class="aus_st10" d="M150.94,49.61c-0.78-0.62-1.62-1.06-2.37-1.65c-0.43-0.34-1.1-0.38-1.6-0.65c-0.54-0.3-1.12-0.05-1.69-0.23
		c0.09-0.33,0.42-0.46,0.56-0.73c0.29-0.58,0.49-1.16,0.47-1.84c-0.05-2.84-0.02-5.68-0.05-8.52c-0.01-0.53,0.14-0.84,0.63-1.06
		c0.62-0.27,1.17-0.63,1.68-1.11c0.44-0.42,1.07-0.63,1.45-1.15c0.12-0.17,0.24-0.08,0.42,0.01c1.33,0.7,2.69,1.36,4.03,2.04
		c-0.25,0.56-0.54,1.08-0.99,1.46c-0.26,0.22-0.29,0.54-0.45,0.8c-0.15,0.23-0.26,0.37-0.65,0.17c-0.84-0.41-1.56-0.99-2.38-1.42
		c-0.07-0.04-0.16-0.03-0.26-0.05c0,1.89,0,3.76,0,5.63c0,1.22,0.01,2.44,0,3.66c0,0.58,0.07,1.01,0.79,1.19
		c0.59,0.15,1.1,0.54,1.74,0.69c0.76,0.18,0.73,0.28,1.26-0.24c0.22-0.22,0.44-0.44,0.67-0.66c0.06-0.06,0.14-0.1,0.23-0.04
		c0.11,0.07,0.13,0.17,0.09,0.29c-0.01,0.03-0.01,0.06-0.03,0.08c-0.65,0.83-1.41,1.55-2.21,2.22c-0.19,0.16-0.5,0.22-0.69,0.44
		C151.39,49.14,151.19,49.34,150.94,49.61z" />
		<path class="aus_st11" d="M139.32,49.58c-0.32-0.3-0.72-0.44-1.05-0.73c-0.81-0.73-1.17-1.63-1.17-2.69c-0.01-2.96-0.05-5.91,0-8.87
		c0.01-0.84-0.2-1.48-0.82-2c-0.21-0.18-0.41-0.37-0.7-0.63c0.95-0.35,1.49-1.18,2.35-1.56c0.08-0.03,0.16-0.08,0.2-0.15
		c0.32-0.58,0.72-0.31,1.07-0.09c0.8,0.51,1.58,1.06,2.37,1.59c0.33,0.23,0.31,0.42-0.02,0.63c-0.86,0.56-1.1,1.34-1.06,2.38
		c0.09,2.55,0.04,5.11,0.05,7.67c0,0.42-0.03,0.83,0.26,1.22c0.31,0.43,0.55,0.58,0.99,0.33c0.25-0.14,0.51-0.41,0.73-0.12
		c0.24,0.32-0.06,0.6-0.32,0.77c-0.77,0.49-1.35,1.25-2.21,1.61C139.72,49.06,139.65,49.38,139.32,49.58z" />
		<path class="aus_st8" d="M75.6,23.2c0.69,0.24,1.04,0.86,1.47,1.35c0.29,0.33,0,1.34-0.31,1.72c-0.52,0.64-1.13,0.89-1.98,0.82
		c-1.07-0.09-2.16-0.01-3.24-0.01c-0.56,0-0.57,0-0.58-0.56c0-0.14,0.01-0.28,0.01-0.43c-0.02-0.32,0.11-0.47,0.44-0.47
		c0.31,0.01,0.62-0.02,0.93-0.04c0.96,0.01,1.93,0.03,2.89,0.03c0.46,0,0.52-0.12,0.48-0.56c-0.03-0.38-0.29-0.37-0.55-0.37
		c-0.94-0.01-1.87-0.01-2.81-0.01c-0.01-0.21-0.17-0.25-0.33-0.32c-0.91-0.41-1.28-1.17-1.07-2.12c0.04-0.19,0.16-0.29,0.28-0.41
		c0.24-0.24,0.5-0.47,0.72-0.72c0.17-0.2,0.36-0.25,0.6-0.25c0.79,0,1.59,0.01,2.38,0c0.35-0.01,0.55,0.1,0.5,0.48
		c-0.05,0.35,0.14,0.74-0.18,1.04c-0.84-0.1-1.69-0.02-2.54-0.04c-0.4-0.01-0.35,0.26-0.35,0.52c0,0.25,0.03,0.44,0.36,0.43
		C73.69,23.24,74.64,23.22,75.6,23.2z" />
		<path class="aus_st8" d="M133.29,27.09c-0.8,0-1.59,0-2.39,0c-0.65,0-0.65,0-0.65-0.67c0-0.09,0.01-0.17,0-0.26
		c-0.02-0.35,0.12-0.52,0.49-0.51c0.51,0.01,1.02-0.02,1.53-0.03c0.15,0,0.29-0.04,0.31-0.22c0.01-0.15-0.04-0.3-0.21-0.3
		c-0.34-0.02-0.53-0.3-0.81-0.42c-0.78-0.34-1.16-1.06-1.3-1.86c-0.09-0.5-0.01-1.02-0.02-1.53c0-0.29,0.12-0.42,0.41-0.41
		c0.11,0,0.23,0,0.34,0c0.68,0.03,0.72,0.08,0.69,0.74c-0.01,0.14-0.04,0.28-0.03,0.42c0.01,0.52-0.26,1.14,0.36,1.47
		c0.66,0.36,1.3,0.61,2.14,0.2c0.73-0.35,0.97-0.77,0.88-1.5c-0.02-0.17-0.02-0.34,0-0.51c0.03-0.27-0.15-0.64,0.15-0.78
		c0.33-0.16,0.72-0.09,1.09-0.01c0.12,0.02,0.2,0.12,0.2,0.24c-0.02,1.19,0.04,2.41-0.97,3.28c-0.32,0.28-0.76,0.44-1.16,0.62
		c-0.16,0.07-0.33,0.1-0.31,0.32c0.03,0.27,0.23,0.28,0.44,0.27c0.48-0.01,0.97,0,1.45-0.03c0.4-0.02,0.59,0.13,0.53,0.54
		c-0.02,0.17-0.04,0.34-0.03,0.51c0.01,0.34-0.16,0.42-0.47,0.41C135.05,27.07,134.17,27.08,133.29,27.09
		C133.29,27.08,133.29,27.09,133.29,27.09z" />
		<path class="aus_st8" d="M126.28,25.61c0.51,0.36,0.28,0.87,0.22,1.32c-0.04,0.26-0.33,0.15-0.51,0.15c-1.22-0.01-2.45-0.03-3.67-0.04
		c-0.45,0-0.91,0.03-1.36,0.03c-0.55,0.01-0.57,0-0.57-0.57c-0.02-1.68,0-3.36-0.03-5.03c-0.01-0.4,0.11-0.55,0.53-0.55
		c1.62,0,3.24-0.05,4.86-0.05c0.87,0,0.89,0.05,0.8,0.95c-0.02,0.22,0.01,0.47-0.27,0.57c-1.49-0.13-2.98-0.02-4.47-0.04
		c0,0.99,0.02,1.87-0.01,2.75c-0.01,0.38,0.05,0.56,0.49,0.55C123.62,25.61,124.95,25.62,126.28,25.61z" />
		<path class="aus_st8"
			d="M62.29,25.61c0.41,0.37,0.18,0.85,0.19,1.28c0.01,0.23-0.21,0.22-0.38,0.21c-0.4-0.01-0.79-0.03-1.19-0.03
		c-1.36,0-2.72,0-4.08,0.02c-0.36,0.01-0.51-0.09-0.51-0.47c0.01-1.76,0.01-3.52,0-5.27c0-0.32,0.11-0.46,0.44-0.46
		c1.79,0,3.57-0.02,5.36-0.02c0.14,0,0.34-0.01,0.34,0.16c0.01,0.46,0.22,0.95-0.18,1.36c-1.38-0.12-2.77-0.04-4.15-0.04
		c-0.25,0-0.42,0.05-0.41,0.37c0.03,0.85,0.03,1.69,0.02,2.54c0,0.3,0.1,0.39,0.39,0.39C59.52,25.62,60.91,25.62,62.29,25.61z" />
		<path class="aus_st11"
			d="M93.78,27.09c-0.92,0.09-1.53-0.42-2.14-0.99c-0.74-0.69-0.97-1.53-0.92-2.51c0.05-1.19,1.69-2.73,2.97-2.73
		c1.55,0.01,3.22,1.52,3.25,2.9c0.02,0.91-0.23,1.67-0.89,2.32C95.42,26.71,94.73,27.21,93.78,27.09z M93.79,25.63
		c1.33-0.01,1.75-0.41,1.75-1.65c-0.01-1.21-0.5-1.67-1.78-1.67c-1.19,0-1.64,0.5-1.63,1.78C92.13,25.26,92.55,25.64,93.79,25.63z" />
		<path class="aus_st8" d="M104.75,27.05c-0.34,0-0.68-0.02-1.02,0c-1.31,0.11-2.16-0.66-2.72-1.65c-0.98-1.73-0.24-3.14,1.27-4.16
		c0.48-0.33,1.01-0.43,1.6-0.41c0.82,0.04,1.65,0.03,2.47,0.02c0.37,0,0.52,0.15,0.48,0.51c-0.01,0.14-0.02,0.29,0,0.43
		c0.04,0.41-0.12,0.55-0.53,0.53c-0.91-0.03-1.83,0.05-2.73-0.04c-0.7-0.07-1.05,0.33-1.38,0.78c-0.43,0.59-0.09,2.04,0.51,2.44
		c0.21,0.14,0.44,0.1,0.66,0.1c0.97,0.01,1.93,0.02,2.9-0.01c0.45-0.01,0.62,0.16,0.57,0.6c-0.02,0.14-0.01,0.28,0,0.43
		c0.02,0.32-0.11,0.46-0.45,0.44c-0.54-0.02-1.08-0.01-1.62-0.01C104.75,27.07,104.75,27.06,104.75,27.05z" />
		<path class="aus_st11" d="M87.03,24.12c0,0.79-0.02,1.59,0.01,2.38c0.02,0.43-0.11,0.65-0.57,0.59c-0.11-0.01-0.23-0.01-0.34,0
		c-0.36,0.04-0.53-0.08-0.51-0.47c0.02-0.37,0.01-0.74-0.01-1.11c-0.03-0.77,0.15-0.81-0.86-0.81c-0.57,0-1.13-0.01-1.7,0.02
		c-0.37,0.02-0.52-0.13-0.49-0.49c0.01-0.11,0.02-0.23,0-0.34c-0.06-0.43,0.1-0.63,0.55-0.62c0.65,0.01,1.3-0.03,1.95-0.02
		c0.39,0.01,0.57-0.11,0.55-0.53c-0.03-0.42,0.02-0.85-0.01-1.27c-0.03-0.47,0.19-0.57,0.61-0.56c0.82,0.02,0.82,0,0.81,0.86
		C87.04,22.54,87.04,23.33,87.03,24.12C87.04,24.12,87.04,24.12,87.03,24.12z" />
		<path class="aus_st8"
			d="M116.63,27.05c-1.29,0.3-1.91-0.45-2.25-1.43c-0.26-0.74-0.67-0.97-1.38-0.92c-0.23,0.02-0.57,0.15-0.69-0.12
		c-0.16-0.36-0.11-0.78-0.02-1.17c0.05-0.19,0.28-0.16,0.44-0.16c0.71-0.01,1.42-0.02,2.13-0.01c0.34,0.01,0.45-0.13,0.44-0.45
		c-0.01-0.48,0.02-0.96,0.01-1.45c-0.01-0.33,0.1-0.48,0.43-0.45c0.11,0.01,0.23,0,0.34,0.01c0.63,0.03,0.63,0.04,0.63,0.7
		c0,0.34-0.04,0.68,0,1.02c0.1,0.93-0.35,1.49-1.18,1.79c-0.33,0.12-0.25,0.3-0.13,0.53C115.75,25.65,116.36,26.22,116.63,27.05z" />
		<path class="aus_st7" d="M62.29,25.61c-1.38,0.01-2.76,0.01-4.15,0.03c-0.29,0-0.4-0.09-0.39-0.39c0.01-0.85,0.01-1.69-0.02-2.54
		c-0.01-0.33,0.16-0.38,0.41-0.37c1.38,0.01,2.77-0.08,4.15,0.04c0,0.28,0,0.55,0.01,0.83c-0.11,0.01-0.22,0.04-0.34,0.04
		c-0.91,0-1.82,0.01-2.73-0.01c-0.36-0.01-0.54,0.12-0.51,0.49c0.01,0.14,0.01,0.29,0,0.43c-0.04,0.44,0.13,0.59,0.59,0.58
		c0.99-0.02,1.99-0.09,2.98,0.03C62.29,25.04,62.29,25.32,62.29,25.61z" />
		<path class="aus_st7" d="M126.28,25.61c-1.33,0.01-2.66-0.01-3.99,0.03c-0.45,0.01-0.51-0.17-0.49-0.55c0.03-0.88,0.01-1.76,0.01-2.75
		c1.5,0.02,2.98-0.09,4.47,0.04c0.04,0.29,0.23,0.55,0.16,0.86c-0.97,0.01-1.93,0.01-2.9,0.02c-0.78,0.01-0.8,0.03-0.76,0.83
		c0.03,0.64,0.03,0.63,0.69,0.64c0.94,0.02,1.87-0.1,2.81,0.04C126.28,25.05,126.28,25.33,126.28,25.61z" />
		<path class="aus_st11" d="M66.22,24.01c0-0.88,0.01-1.76-0.01-2.64c-0.01-0.33,0.12-0.47,0.45-0.45c0.17,0.01,0.34,0.02,0.51,0.01
		c0.32-0.02,0.45,0.1,0.45,0.44c-0.02,1.76-0.01,3.53-0.01,5.29c0,0.32-0.09,0.49-0.44,0.45c-0.14-0.02-0.29-0.02-0.43,0
		c-0.41,0.05-0.55-0.11-0.54-0.53C66.24,25.72,66.22,24.86,66.22,24.01C66.22,24.01,66.22,24.01,66.22,24.01z" />
		<path class="aus_st11" d="M80.87,23.91c0-0.85,0.01-1.7-0.01-2.55c-0.01-0.38,0.15-0.51,0.51-0.47c0.17,0.02,0.34,0.03,0.51,0.03
		c0.27,0,0.41,0.1,0.41,0.4c-0.01,1.78-0.01,3.56-0.01,5.35c0,0.27-0.09,0.43-0.39,0.41c-0.2-0.01-0.4-0.02-0.59,0
		c-0.36,0.04-0.43-0.16-0.43-0.46C80.87,25.72,80.87,24.82,80.87,23.91z" />
		<path class="aus_st11" d="M111.92,21.04c0,1.87,0,3.76,0,5.66c0,0.3-0.13,0.41-0.41,0.39c-0.14-0.01-0.29-0.03-0.42-0.01
		c-0.49,0.08-0.56-0.17-0.55-0.59c0.02-1.64,0.01-3.29,0.02-4.93c0-0.65,0.01-0.65,0.66-0.63
		C111.43,20.94,111.66,20.91,111.92,21.04z" />
		<path class="aus_st11" d="M39.62,21.73c0.72-0.5,1.28-1.21,1.82-1.76c0.68,0.65,1.33,1.27,2.01,1.91c-0.7,0.52-1.27,1.18-1.85,1.83
		C40.94,23.05,40.28,22.4,39.62,21.73z" />
		<path class="aus_st11" d="M48.3,19.9c0.59,0.57,1.15,1.12,1.72,1.66c0.21,0.2,0.23,0.32-0.02,0.53c-0.58,0.49-1.13,1.02-1.7,1.55
		c-0.56-0.57-1.21-1.22-1.88-1.89C47.13,21.22,47.7,20.53,48.3,19.9z" />
		<path class="aus_st8" d="M126.28,24.76c-0.93-0.13-1.87-0.02-2.81-0.04c-0.66-0.01-0.66,0-0.69-0.64c-0.04-0.8-0.02-0.82,0.76-0.83
		c0.97-0.01,1.93-0.01,2.9-0.02C126.56,23.77,126.69,24.29,126.28,24.76z" />
		<path class="aus_st8"
			d="M62.29,24.76c-0.99-0.12-1.99-0.04-2.98-0.03c-0.45,0.01-0.63-0.15-0.59-0.58c0.01-0.14,0.01-0.28,0-0.43
		c-0.03-0.38,0.15-0.5,0.51-0.49c0.91,0.02,1.82,0.01,2.73,0.01c0.11,0,0.22-0.03,0.34-0.04C62.61,23.73,62.61,24.24,62.29,24.76z" />
		<path class="aus_st8" d="M141.91,26.74c-0.49,0.98-1.14,1.66-1.47,2.54c-0.15,0.38-0.5,0.6-0.82,0.83c-0.15,0.11-0.33,0.07-0.46-0.07
		c-0.11-0.12-0.11-0.27-0.03-0.39c0.35-0.59,0.47-1.26,0.64-1.92c0.08-0.32,0.4-0.53,0.39-0.91c0-0.15,0.2-0.18,0.34-0.17
		C140.94,26.67,141.38,26.7,141.91,26.74z" />
		<path class="aus_st7" d="M72.37,24.68c0.94,0,1.87,0,2.81,0.01c0.26,0,0.51-0.01,0.55,0.37c0.04,0.45-0.02,0.56-0.48,0.56
		c-0.96,0-1.93-0.02-2.89-0.03C72.36,25.29,72.36,24.99,72.37,24.68z" />
		<path class="aus_st7" d="M75.6,23.2c-0.96,0.02-1.92,0.03-2.87,0.07c-0.33,0.01-0.36-0.18-0.36-0.43c0-0.26-0.04-0.53,0.35-0.52
		c0.85,0.02,1.69-0.06,2.54,0.04C75.28,22.69,75.71,22.83,75.6,23.2z" />
		<path class="aus_st8" d="M64.33,43.75c-0.14-0.03-0.28-0.07-0.42-0.1c0.09-0.1,0.19-0.2,0.28-0.3c0.12,0.06,0.24,0.12,0.36,0.18
		C64.52,43.65,64.44,43.72,64.33,43.75z" />
		<path class="aus_st8" d="M63.92,43.03c0.1-0.01,0.19,0.02,0.25,0.11C64.08,43.1,64,43.07,63.92,43.03z" />
		<path class="aus_st8" d="M63.46,42.84c0.06,0.05,0.13,0.11,0.19,0.16C63.53,43.02,63.48,42.94,63.46,42.84z" />
		<path class="aus_st12" d="M44.74,42.98c0-0.54,0.07-1.09-0.01-1.62c-0.2-1.28,0.6-1.86,1.52-2.42c0.54-0.33,1.2-0.45,1.65-0.92
		c0.11-0.12,0.25-0.1,0.39-0.1c0.68,0,1.36,0,2.04,0c0.08,0,0.18-0.01,0.25,0.02c0.84,0.36,1.69,0.71,2.52,1.11
		c0.26,0.13,0.45,0.42,0.67,0.64c0.14,0.14,0.03,0.23-0.04,0.36c-0.38,0.7-0.71,1.41-1.3,2.01c-0.37,0.37-0.62,0.9-1.03,1.29
		c-0.75,0.71-1.61,1.26-2.54,1.69c-0.35,0.16-0.65,0.42-1.05,0.5c-0.05,0.01-0.08,0.11-0.12,0.11c-0.86,0.03-1.63,0.56-2.52,0.47
		c-0.34-0.03-0.44-0.18-0.43-0.48c0-0.88,0-1.76,0-2.64C44.75,42.98,44.75,42.98,44.74,42.98z" />
		<path class="aus_st12" d="M44.08,37.28c0,2.67,0.01,5.34-0.01,8.01c0,0.26,0.16,0.65-0.18,0.75c-0.33,0.09-0.74,0.15-1.06-0.08
		c-0.14-0.1-0.25-0.24-0.43-0.22c-0.92,0.1-1.58-0.53-2.34-0.85c-0.43-0.17-0.87-0.34-1.19-0.74c-0.25-0.3-0.27-0.51,0.02-0.79
		c0.66-0.63,1.27-1.31,1.95-1.91c0.37-0.33,0.56-0.76,0.8-1.16c0.43-0.68,0.51-1.44,0.5-2.24c-0.05-3.07-0.05-6.14-0.07-9.21
		c0-0.24,0.03-0.4,0.29-0.39c0.53,0.01,1.16-0.22,1.57,0.1c0.34,0.26,0.15,0.86,0.15,1.3C44.1,32.34,44.09,34.81,44.08,37.28
		C44.09,37.28,44.09,37.28,44.08,37.28z" />
		<path class="aus_st12" d="M44.75,30.56c0-0.54,0-1.08,0-1.62c0-0.49,0.1-0.65,0.51-0.5c1.09,0.39,2.33,0.26,3.34,0.94
		c0.3,0.2,0.68,0.11,1.03,0.32c0.66,0.4,1.34,0.78,1.92,1.3c0.22,0.2,0.51,0.18,0.74,0.37c0.46,0.37,0.64,0.91,0.91,1.38
		c0.2,0.34-0.15,0.6-0.41,0.73c-0.7,0.33-1.42,0.62-2.08,1.04c-0.15,0.1-0.33,0.03-0.5,0.02c-0.57-0.01-1.13-0.04-1.7-0.01
		c-0.28,0.01-0.56,0.15-0.71-0.23c-0.02-0.06-0.14-0.11-0.21-0.11c-1.01,0-1.75-0.58-2.51-1.14c-0.28-0.2-0.38-0.45-0.36-0.8
		C44.77,31.7,44.74,31.13,44.75,30.56C44.74,30.56,44.75,30.56,44.75,30.56z" />
		<path class="aus_st2" d="M38.78,30.5c0.25,0.19,0.17,0.44,0.17,0.65c0.02,3.3,0.03,6.6,0.04,9.9c0,0.73-0.57,1.25-0.8,1.9
		c-0.08,0.21-0.68,0.04-0.84-0.18c-0.6-0.84-1.04-1.77-1.52-2.68c-0.11-0.21-0.2-0.39-0.19-0.62c0.01-0.28,0.06-0.57-0.21-0.78
		c-0.18-0.14-0.13-0.36-0.13-0.56c0-0.57,0-1.14,0.01-1.71c0-0.33-0.08-0.68,0.22-0.95c0.09-0.08,0.09-0.26,0.1-0.4
		c0.07-1.02,0.57-1.83,1.23-2.55C37.49,31.84,38.14,31.18,38.78,30.5z" />
		<path class="aus_st5" d="M54.13,39.12c-0.46-0.86-1.43-0.85-1.98-1.46c-0.1-0.11-0.27-0.1-0.41-0.07c-0.37,0.08-0.73,0.17-0.95-0.29
		c-0.03-0.06-0.2-0.07-0.31-0.07c-0.74,0-1.52-0.13-2.21,0.06c-0.62,0.17-1.36,0.24-1.82,0.85c-0.41,0.54-1.17,0.66-1.68,1.2
		c0-0.94,0-1.89,0-2.83c0-0.97,0-1.93,0-2.91c0.39-0.09,0.46,0.34,0.72,0.47c0.72,0.36,1.47,0.66,2.15,1.09
		c0.13,0.08,0.33,0.04,0.5,0.04c0.65,0.01,1.31,0.01,1.96,0.01c0.32,0,0.58-0.01,0.92-0.23c0.33-0.22,0.87-0.21,1.26-0.45
		c0.38-0.23,0.82-0.34,1.15-0.66c0.3-0.3,0.68-0.23,0.74,0.17c0.1,0.71,0.59,1.34,0.44,2.11c-0.05,0.27,0,0.57-0.01,0.85
		c-0.02,0.38,0.07,0.78-0.27,1.11C54.11,38.33,54.34,38.71,54.13,39.12z" />
		<path class="aus_st5" d="M69.02,36.23c-0.36,0.56-0.59,1.03-0.92,1.39c-0.67,0.73-1.23,1.51-1.73,2.36c-0.08,0.14-0.24,0.23-0.37,0.35
		c-0.47,0.45-0.48,0.46-0.92,0.03c-0.21-0.2-0.43-0.35-0.72-0.43c-0.35-0.1-0.54-0.37-0.53-0.77c0.02-1.19,0.01-2.39,0.02-3.58
		c0.01-0.38,0.12-0.44,0.48-0.28c0.13,0.06,0.24,0.14,0.36,0.21c1.02,0.63,2.13,0.82,3.31,0.71C68.28,36.21,68.56,36.23,69.02,36.23
		z" />
		<path class="aus_st5" d="M64.33,43.75c0.11-0.03,0.19-0.1,0.22-0.22c0.28-0.52,0.8-0.89,0.98-1.46c0.07-0.23,0.26-0.37,0.37-0.56
		c0.1-0.17,0.28-0.24,0.43-0.11c0.26,0.24,0.62,0.28,0.88,0.49c0.43,0.34,0.75,0.7,0.72,1.34c-0.06,1.13-0.02,2.27-0.02,3.42
		c-0.33,0.13-0.55-0.16-0.75-0.26c-1.01-0.51-2.06-0.71-3.18-0.66c-0.4,0.02-0.56,0.34-0.87,0.45c-0.04-0.04-0.08-0.04-0.12,0.01
		c-0.44-0.35-0.01-0.7,0.11-0.93c0.18-0.36,0.58-0.59,0.68-1.06C63.82,44.03,64.14,43.9,64.33,43.75z" />
		<path class="aus_st8" d="M62.99,46.2c0.04-0.05,0.08-0.05,0.12-0.01c0,0-0.06,0.04-0.06,0.04L62.99,46.2z" />
		<path class="aus_st12" d="M127.37,41.7c-0.19-0.19-0.18-0.34-0.17-0.48c0.12-2.07,0.06-4.13,0.05-6.2c0-0.08-0.01-0.17-0.01-0.25
		c0-0.12,0.04-0.22,0.18-0.25c0.12-0.02,0.24,0.01,0.3,0.11c0.83,1.45,2.25,2.36,3.3,3.61c0.37,0.44,0.38,0.64-0.11,0.92
		c-0.83,0.47-1.6,1.01-2.32,1.63C128.21,41.11,127.74,41.34,127.37,41.7z" />
		<path class="aus_st5" d="M88.38,41.85c0-2.47,0-4.7,0-6.94c0-0.16-0.04-0.36,0.21-0.39c0.15-0.02,0.29,0.05,0.34,0.2
		c0.16,0.55,0.64,0.85,1.01,1.24c0.73,0.75,1.47,1.49,2.2,2.25c0.44,0.46,0.43,0.69-0.09,0.98c-0.81,0.45-1.54,1-2.26,1.58
		C89.38,41.08,88.92,41.33,88.38,41.85z" />
		<path class="aus_st12" d="M93.79,25.63c-1.24,0.01-1.66-0.37-1.66-1.54c-0.01-1.29,0.45-1.78,1.63-1.78c1.28,0,1.77,0.46,1.78,1.67
		C95.54,25.22,95.12,25.62,93.79,25.63z" />
	</g>
</svg>