<?xml version="1.0" encoding="utf-8"?>
<!-- Generator: Adobe Illucan_strator 24.1.0, SVG Export Plug-In . SVG Version: 6.00 Build 0)  -->
<svg version="1.1" id="Layer_1" xmlns="http://www.w3.org/2000/svg" xmlns:xlink="http://www.w3.org/1999/xlink" x="0px"
	y="0px" viewBox="0 0 200 200" can_style="enable-background:new 0 0 200 200;" xml:space="preserve">
	<style type="text/css">
		.can_st0 {
			fill: #FEFEFE;
		}

		.can_st1 {
			fill: #A91720;
		}

		.can_st2 {
			fill: #8F141C;
		}

		.can_st3 {
			fill: #99151E;
		}

		.can_st4 {
			fill: #A1161F;
		}

		.can_st5 {
			fill: #93141C;
		}

		.can_st6 {
			fill: #9C161E;
		}

		.can_st7 {
			fill: #88131A;
		}

		.can_st8 {
			fill: #821219;
		}

		.can_st9 {
			fill: #690E14;
		}

		.can_st10 {
			fill: #86121A;
		}

		.can_st11 {
			fill: #761017;
		}

		.can_st12 {
			fill: #5B0D11;
		}

		.can_st13 {
			fill: #490A0E;
		}

		.can_st14 {
			fill: #9E161E;
		}
	</style>
	<g>
		<path class="can_st0" d="M102.06,0.46c-0.29,0.21-0.16,0.48,0.04,0.55c3.76,1.3,4.95,4.79,6.67,7.81c3.59,6.28,6.88,12.73,10.71,18.87
		c0.4,0.64,0.71,0.91,1.75,0.85c3-0.16,5.02-1.95,7.02-3.7c5.15-4.48,10.79-1.69,12.53,3.87c0.67,2.13,0.04,4.51-0.33,6.76
		c-0.67,4.11-1.4,8.22-2.1,12.33c-0.8,4.69-1.64,9.37-2.38,14.07c-0.21,1.33-0.69,2.65-0.46,4.25c1.89-1.4,3.06-3.33,4.58-4.92
		c2.17-2.27,3.9-5,6.21-7.08c3.62-3.25,7.6-2.96,10.91,1.27c1.69,2.16,3.07,4.55,4.42,6.94c1,1.77,2.12,2.15,4.42,1.6
		c5-1.18,10-2.37,15-3.55c2.45-0.58,5.96,1.3,7.47,3.39c2.44,3.39,0.97,6.65,0.11,9.93c-1.53,5.8-3.25,11.56-4.56,17.42
		c-0.4,1.8,0.3,2.81,2.01,3.35c1.07,0.33,2.19,0.19,3.25,0.63c2.19,0.91,4.11,2.04,4.92,4.44c0.11,0.32,0.25,0.69,0.71,0.34
		c0,1.57,0,3.14,0,4.72c-0.46-0.35-0.59,0.02-0.71,0.34c-1.02,2.72-3.46,4.11-5.53,5.84c-2.36,1.97-4.74,3.94-7.1,5.91
		c-0.77,0.64-0.96,1.25-0.51,2.32c1.18,2.77,1.99,5.71,3.21,8.46c1.51,3.39-0.79,7.97-3.43,9.05c-4.29,1.76-8.62,1.76-12.89-0.02
		c-1.76-0.74-2.82-2.27-3.62-4.13c-1.45,3.51-3.91,5.19-7.44,5.24c-1.26,0.02-1.79,1.13-2.57,1.73c-1.59,1.23-3.15,2.52-4.66,3.84
		c-1.07,0.94-1.76,1.93-0.7,3.51c1.33,1.97,2.41,4.13,3.51,6.25c1.57,3.03,0.16,6.81-2.7,8.7c-3.19,2.11-6.49,1.33-9.8,0.93
		c-3.1-0.37-6.17-0.89-9.25-1.37c-3.72-0.58-7.43-1.21-11.15-1.76c-2.8-0.42-5.61-0.79-8.42-1.11c-0.59-0.07-1.15-0.17-1.92-0.61
		c0.34,6.64-0.28,13,0.36,19.38c0.34,3.41,0.06,6.88,0.06,10.33c0,1.45-0.04,2.9,0.01,4.35c0.11,3.58-1.25,6.29-4.58,7.84
		c-0.36,0.17-0.84,0.18-0.51,0.77c-3.14,0-6.29,0-9.43,0c0.28-1.04-0.72-0.83-1.14-1.06c-2.56-1.42-3.85-3.64-3.91-6.46
		c-0.1-5.32-0.33-10.66,0.05-15.95c0.41-5.66,0.1-11.31,0.28-16.96c0.03-0.99,0.39-1.8-1.51-1.41c-4.49,0.93-9.1,1.27-13.65,1.94
		c-4.48,0.66-8.93,1.46-13.41,2.13c-2.22,0.33-4.46,0.58-6.7,0.75c-4.26,0.33-7.11-2.08-8.43-5.81c-0.44-1.23-0.43-2.58,0.23-3.8
		c1.31-2.4,2.53-4.87,3.99-7.17c0.72-1.12,0.42-1.84-0.35-2.51c-2.28-1.98-4.62-3.89-6.92-5.85c-0.44-0.38-0.91-0.23-1.36-0.23
		c-2.42-0.02-4.84,0.07-7.25-0.03c-7.5-0.3-13.02-3.92-16.76-10.31c-2.15-3.68-3.25-7.69-2.94-11.97c0.13-1.8-1.43-2.07-2.27-2.88
		c-2.64-2.55-6.24-4.12-7.75-7.8c-0.08-0.2-0.34-0.33-0.55-0.04c0-1.57,0-3.14,0-4.72c0.33,0.39,0.62,0,0.67-0.16
		c1.14-3.57,4.16-4.68,7.31-5.2c3.21-0.53,3.51-1.89,2.79-4.65c-1.8-6.87-3.72-13.71-5.58-20.57c-0.69-2.53,1.16-6.08,3.35-7.63
		c3.06-2.17,6.09-1.13,9.16-0.47c3.94,0.86,7.83,1.9,11.78,2.71c1.39,0.28,2.75,0.28,3.64-1.51c1.21-2.45,2.64-4.87,4.38-6.96
		c3.83-4.61,8.43-4.81,12.86,0.3C57.15,58.4,59,60.8,61.07,63c1.04,1.11,1.73,2.56,3.21,3.47c0.2-2.26-0.54-4.28-0.82-6.35
		c-0.56-4.01-1.35-7.99-2.04-11.98c-0.71-4.11-1.52-8.2-2.08-12.33c-0.38-2.83-1.13-5.67,0.42-8.52c2.29-4.21,7.09-5.84,11.39-2.44
		c1.86,1.47,3.55,3.14,6.08,3.71c1.84,0.42,2.94,0.08,3.78-1.47c2.11-3.89,4.21-7.8,6.32-11.69c2.12-3.89,4.25-7.78,6.39-11.66
		c0.56-1.02,1.49-1.64,2.48-2.22c0.42-0.25,1.43-0.02,1.15-1.06C98.91,0.46,100.49,0.46,102.06,0.46z M105.28,153.98
		c1.63-0.27,2.93,0.18,4.28,0.35c3.62,0.46,7.24,1,10.85,1.53c3.73,0.55,7.45,1.15,11.17,1.71c3.03,0.46,6.05,0.95,9.09,1.35
		c1.7,0.22,3.39,0.63,5.14,0.48c2.87-0.25,4.49-3.08,3.11-5.57c-1.1-1.99-2.19-3.99-3.4-5.91c-1.34-2.13-1.33-3.22,0.1-5.44
		c1.75-2.73,4.6-4.23,6.94-6.29c0.98-0.86,1.72-2.13,3.31-2.22c3.97-0.24,4.42-0.63,5.67-4.47c0.2-0.62,0.31-1.48,0.95-1.58
		c1.24-0.18,2.56-0.26,3.78-0.02c0.85,0.16,0.83,1.35,1.03,2.07c0.63,2.19,1.86,3.74,4.15,3.98c1.97,0.2,3.99,0.12,5.98,0.02
		c2.19-0.11,4.45-2.63,3.39-5.18c-1.47-3.54-2.65-7.2-4.05-10.77c-0.47-1.19-0.19-1.98,0.75-2.73c3.87-3.11,7.74-6.23,11.56-9.4
		c1.29-1.07,2.49-2.38,2.18-4.23c-0.33-1.94-1.82-2.91-4.29-3.24c-0.97-0.13-1.95-0.38-2.87-0.73c-2.53-0.95-4.61-4.34-4-6.62
		c1.97-7.37,3.98-14.73,6-22.09c0.68-2.49-1.79-5.52-4.21-4.99c-5.01,1.12-9.99,2.4-15.02,3.47c-4.12,0.88-5.94,0.66-8.14-2.94
		c-1.4-2.29-2.78-4.59-4.31-6.8c-1.81-2.61-4.57-2.86-6.37-0.33c-1.01,1.42-2.26,2.59-3.34,3.92c-3.73,4.55-7.6,8.99-11.53,13.36
		c-1.06,1.17-1.83,2.75-3.6,3.35c0.13-2.39,0.74-4.61,1.11-6.87c0.67-4,1.22-8.03,1.89-12.03c0.79-4.75,1.66-9.49,2.48-14.23
		c0.71-4.11,1.37-8.23,2.13-12.32c0.38-2.05-0.3-4.71-1.6-5.54c-1.97-1.26-2.88-1.09-5.44,1.05c-2.59,2.16-5.41,3.92-8.84,4.3
		c-1.5,0.17-2.86,0.16-4.02-1.46c-2.23-3.11-3.92-6.5-5.8-9.79c-2.75-4.81-5.16-9.82-8.08-14.51c-1.99-3.2-5.02-3.42-6.75-0.71
		c-2.44,3.83-4.41,7.95-6.6,11.94c-2.27,4.14-4.32,8.41-6.92,12.36c-0.84,1.28-1.78,2.71-3.58,2.54c-1.5-0.14-2.98-0.55-4.45-0.94
		c-2.54-0.67-4.32-2.54-6.26-4.11c-2.53-2.04-5.02-0.73-5.97,1.32c-0.78,1.69-0.32,3.36-0.04,5.05c0.66,4,1.27,8.02,1.93,12.02
		c0.79,4.75,1.62,9.5,2.43,14.24c0.69,4.05,1.52,8.09,2.03,12.16c0.23,1.86,1.13,3.67,0.76,5.66c-0.83-0.14-1.14-0.7-1.52-1.13
		c-3.73-4.18-7.45-8.36-11.14-12.58c-1.91-2.19-3.68-4.5-5.62-6.66c-2.57-2.85-4.98-1.95-6.62,0.37c-1.51,2.14-2.82,4.43-4.26,6.63
		c-2.05,3.11-4.03,3.96-7.45,3.17c-5.01-1.16-10-2.36-15-3.55c-2.49-0.59-5.47,2.07-4.84,4.42c1.83,6.87,3.74,13.71,5.6,20.57
		c0.98,3.61,0.53,5.76-1.9,7.65c-1.46,1.14-3.27,1.49-5.06,1.78c-1.85,0.29-3.46,1.56-3.73,3.26c-0.25,1.62,0.65,2.87,1.82,3.84
		c2.36,1.96,4.83,3.79,7.15,5.8c0.66,0.57,2,1,1.8,1.94c-0.74,3.56-0.08,6.93,1.2,10.17c2.51,6.39,7.79,9.96,13.62,10.47
		c3.12,0.27,6.35,0.48,9.5-0.26c0.36-0.09,0.82-0.16,1.19,0.21c2.81,2.85,6.27,4.95,8.97,7.9c1.82,1.99,1.83,3.97,0.43,6.22
		c-1.29,2.08-2.43,4.25-3.65,6.38c-0.44,0.77-0.35,1.45-0.07,2.33c0.79,2.48,3.56,2.98,5.73,2.62c3.78-0.61,7.56-1.18,11.35-1.73
		c2.86-0.42,5.73-0.76,8.59-1.18c3.79-0.55,7.56-1.15,11.35-1.73c2.26-0.34,4.53-0.67,6.85-1.01c0.51,1.21-0.27,2.38-0.29,3.61
		c-0.11,6.62,0.26,13.24-0.24,19.87c-0.38,5.05-0.11,10.15-0.05,15.23c0.02,1.54,0.7,2.81,2.2,3.54c1.78,0.88,3.67,0.26,5.49,0.48
		c2.6,0.32,4.65-2.1,4.68-4.57c0.11-8.08-0.43-16.14-0.44-24.22C105.67,163.24,105.98,158.5,105.28,153.98z" />
		<path d="M105.28,153.98c0.69,4.52,0.39,9.26,0.39,14c0.01,8.08,0.54,16.14,0.44,24.22c-0.03,2.48-2.09,4.89-4.68,4.57
		c-1.82-0.23-3.71,0.39-5.49-0.48c-1.49-0.74-2.18-2-2.2-3.54c-0.06-5.08-0.33-10.18,0.05-15.23c0.5-6.63,0.13-13.25,0.24-19.87
		c0.02-1.23,0.81-2.41,0.29-3.61c-2.32,0.34-4.58,0.67-6.85,1.01c-3.78,0.57-7.56,1.17-11.35,1.73c-2.86,0.42-5.73,0.76-8.59,1.18
		c-3.79,0.55-7.57,1.12-11.35,1.73c-2.18,0.35-4.95-0.14-5.73-2.62c-0.28-0.88-0.37-1.56,0.07-2.33c1.21-2.13,2.36-4.3,3.65-6.38
		c1.39-2.24,1.38-4.23-0.43-6.22c-2.7-2.96-6.17-5.06-8.97-7.9c-0.36-0.37-0.82-0.29-1.19-0.21c-3.15,0.74-6.38,0.53-9.5,0.26
		c-5.83-0.51-11.11-4.08-13.62-10.47c-1.27-3.24-1.94-6.61-1.2-10.17c0.2-0.94-1.14-1.37-1.8-1.94c-2.32-2.01-4.79-3.84-7.15-5.8
		c-1.17-0.97-2.08-2.22-1.82-3.84c0.27-1.7,1.88-2.96,3.73-3.26c1.79-0.28,3.6-0.64,5.06-1.78c2.42-1.89,2.88-4.03,1.9-7.65
		c-1.86-6.86-3.77-13.7-5.6-20.57c-0.63-2.35,2.36-5.01,4.84-4.42c5,1.19,9.99,2.39,15,3.55c3.42,0.79,5.4-0.06,7.45-3.17
		c1.45-2.19,2.75-4.48,4.26-6.63c1.64-2.32,4.06-3.22,6.62-0.37c1.94,2.16,3.71,4.47,5.62,6.66c3.68,4.22,7.41,8.4,11.14,12.58
		c0.38,0.42,0.69,0.99,1.52,1.13c0.38-1.99-0.52-3.8-0.76-5.66c-0.51-4.07-1.34-8.11-2.03-12.16c-0.81-4.75-1.64-9.49-2.43-14.24
		c-0.67-4-1.27-8.01-1.93-12.02c-0.28-1.69-0.74-3.36,0.04-5.05c0.95-2.05,3.44-3.36,5.97-1.32c1.95,1.57,3.73,3.45,6.26,4.11
		c1.46,0.38,2.95,0.8,4.45,0.94c1.8,0.17,2.75-1.26,3.58-2.54c2.59-3.96,4.64-8.22,6.92-12.36c2.19-3.99,4.16-8.11,6.6-11.94
		c1.73-2.71,4.76-2.5,6.75,0.71c2.92,4.7,5.33,9.71,8.08,14.51c1.88,3.29,3.57,6.68,5.8,9.79c1.16,1.62,2.52,1.63,4.02,1.46
		c3.43-0.38,6.25-2.14,8.84-4.3c2.56-2.14,3.47-2.31,5.44-1.05c1.3,0.84,1.98,3.49,1.6,5.54c-0.76,4.1-1.42,8.22-2.13,12.32
		c-0.82,4.74-1.69,9.48-2.48,14.23c-0.67,4-1.22,8.03-1.89,12.03c-0.38,2.26-0.98,4.48-1.11,6.87c1.78-0.59,2.54-2.17,3.6-3.35
		c3.94-4.37,7.8-8.81,11.53-13.36c1.09-1.33,2.34-2.5,3.34-3.92c1.8-2.53,4.56-2.28,6.37,0.33c1.53,2.21,2.91,4.51,4.31,6.8
		c2.19,3.6,4.02,3.81,8.14,2.94c5.02-1.07,10-2.35,15.02-3.47c2.42-0.54,4.89,2.49,4.21,4.99c-2.02,7.36-4.03,14.72-6,22.09
		c-0.61,2.28,1.47,5.67,4,6.62c0.92,0.34,1.89,0.6,2.87,0.73c2.47,0.33,3.96,1.3,4.29,3.24c0.31,1.85-0.89,3.16-2.18,4.23
		c-3.82,3.17-7.69,6.29-11.56,9.4c-0.94,0.75-1.22,1.54-0.75,2.73c1.39,3.57,2.57,7.23,4.05,10.77c1.06,2.55-1.2,5.07-3.39,5.18
		c-1.99,0.1-4,0.18-5.98-0.02c-2.3-0.24-3.53-1.79-4.15-3.98c-0.21-0.72-0.18-1.91-1.03-2.07c-1.22-0.23-2.54-0.16-3.78,0.02
		c-0.64,0.09-0.75,0.96-0.95,1.58c-1.25,3.84-1.7,4.23-5.67,4.47c-1.6,0.1-2.33,1.36-3.31,2.22c-2.35,2.06-5.19,3.56-6.94,6.29
		c-1.43,2.22-1.44,3.3-0.1,5.44c1.21,1.92,2.3,3.92,3.4,5.91c1.38,2.5-0.24,5.32-3.11,5.57c-1.75,0.15-3.44-0.26-5.14-0.48
		c-3.04-0.39-6.06-0.88-9.09-1.35c-3.72-0.57-7.44-1.16-11.17-1.71c-3.61-0.54-7.23-1.07-10.85-1.53
		C108.22,154.16,106.91,153.7,105.28,153.98z M73.44,75.2c0.58,1.69,0.37,3.39,0,5.08c-1.11,1.93-3.02,2.47-4.91,1.38
		c-0.56-0.32-1.11-0.69-1.66-1.03c-2.29-2.55-4.58-5.09-6.87-7.64c-0.8-0.96-1.6-1.92-2.41-2.88c-2.75-3.22-5.5-6.43-8.24-9.65
		c-0.55-0.64-0.83-1.05-1.47,0.06c-1.58,2.72-3.33,5.35-5.06,7.98c-1.59,2.43-4.22,2.92-6.79,3.49c-6.26-1.01-12.39-2.67-18.76-3.95
		c0.61,2.35,1.18,4.58,1.76,6.8c0.58,1.94,1.15,3.88,1.73,5.82c0.16,1.9,0.79,3.67,1.45,5.44c0.09,1.52,0.71,2.9,1.09,4.35
		c0.08,1.58,0.04,3.15-0.29,4.7c-0.31,0.58-0.74,1.12-0.77,1.82c-2.44,3.38-5.88,5.03-10.18,5.58c2.85,2.34,5.51,4.51,8.33,6.83
		c1.38-3.48,3.95-5.79,6.59-8.04l-0.03,0.01c0.33-0.01,0.64-0.04,0.83-0.38c2-1.17,4.11-1.97,6.48-1.86c2.46,0.01,4.92,0,7.39,0.04
		c2.4,0.04,4.12,1.79,4.17,4.2c0.03,1.5,0.04,3,0.06,4.5c0.13,3.67-2.19,5.39-5.38,5.1c-1.56-0.14-3.14-0.05-4.71-0.02
		c-1.92,0.04-3.18,1.28-3.39,3.26c-0.22,2.16,0.68,3.55,2.57,4.05c2.5,0.65,5.03,0.15,7.54,0.31c0.69,0.05,0.71-0.48,0.87-0.92
		c1.39-3.81,2.79-7.61,4.19-11.42c0.51-1.33,1.03-2.67,1.54-4c1.7-4.51,6.73-6.48,11.01-4.27c2.15,1.11,3.4,2.96,4.21,5.18
		c1.37,3.73,2.77,7.44,4.15,11.16c0.2-4.28,0.18-8.5,0.2-12.73c0.01-2.67,1.72-4.37,4.39-4.39c1.45-0.01,2.9,0.04,4.35-0.01
		c2.23-0.07,3.73,1.01,4.84,2.85c1.15,1.91,2.35,3.79,3.53,5.68c0.31-1.47,0.29-2.83,0.31-4.2c0.03-2.59,1.71-4.28,4.29-4.31
		c1.45-0.02,2.9-0.01,4.35,0c3.19,0.01,4.78,1.57,4.79,4.72c0,3.86,0,7.73,0,11.59c1.37-3.06,2.65-6.09,3.59-9.22
		c2.1-7,8.52-9.81,13.82-4.9c0.5,0.71,1,1.43,1.5,2.14c1.48,3.87,2.97,7.74,4.62,12.04c0-4.47,0-8.43,0-12.4
		c0.3-2.99,1.77-4.32,4.79-4.35c0.48,0,0.96-0.04,1.43-0.06c2.95,0.02,5.89-0.05,8.83,0.09c2.3,0.11,4.63,0.33,6.76,1.37
		c0.96,0.5,1.95,0.94,2.87,1.51c3.29,2.03,5.64,4.65,5.5,8.83c-0.03,0.92,0,1.84,0,2.75c1.14-2.31,2.13-4.61,2.85-6.99
		c1.24-4.09,3.68-6.79,8.01-7.55c3.55,0.45,6.16,2.21,7.68,5.49c0.58,1.46,1.17,2.92,1.75,4.37c0.15,0.52,0.29,1.04,0.46,1.55
		c0.92,2.76,1.35,2.83,3.38,0.56c0.08-0.09,0.12-0.21,0.17-0.31c3.56-2.42,6.68-5.34,10.29-8.3c-3.96-0.1-6.77-1.65-9.18-4.07
		c-2.08-2.59-2.66-5.49-1.84-8.71c0.42-1.66,1.02-3.29,1.13-5.03c0.57-0.73,0.6-1.64,0.83-2.49c1.25-4.66,2.5-9.31,3.78-14.09
		c-3.24,0.72-6.3,1.41-9.36,2.09c-1.84,0.42-3.68,0.86-5.53,1.25c-2.4,0.51-4.81,0.87-7.18-0.16c-2.22-0.91-3.62-2.64-4.82-4.63
		c-1.41-2.34-2.91-4.62-4.39-6.96c-1.53,1.74-3.01,3.39-4.45,5.07c-2.64,3.09-5.13,6.33-7.93,9.27c-2.46,2.58-4.3,5.78-7.45,7.69
		c-0.23,0.07-0.46,0.1-0.67,0.2c-2.48,1.12-4.48-0.02-4.74-2.75c-0.08-0.83-0.05-1.66-0.07-2.5c0.61-3.27,1.37-6.53,1.79-9.83
		c0.34-2.66,1.15-5.25,1.11-7.95c0.76-1.84,0.78-3.83,1.12-5.75c0.99-5.5,1.95-11.01,2.79-16.54c0.31-2.02,0.93-4.02,0.84-6.38
		c-2.4,1.98-4.56,3.91-7.27,4.9c-3.27,1.19-6.64,2.3-9.98,0.21c-2.1-1.32-3.18-3.53-4.35-5.59c-3.27-5.76-6.34-11.64-9.66-17.37
		c-0.81-1.39-1.22-3.11-2.68-4.19c-2.43,4.5-4.74,8.95-7.22,13.31c-2.13,3.73-3.9,7.67-6.34,11.22c-1.4,2.04-3.03,4.01-5.77,4.01
		c-3.31,0-6.54-0.63-9.35-2.57c-1.59-1.09-3.13-2.24-5.06-3.63c1.35,7.91,2.63,15.42,3.91,22.92c0.6,3.63,1.21,7.26,1.81,10.88
		c0.36,2.42,0.72,4.84,1.08,7.26C72.96,72.54,73.2,73.87,73.44,75.2z M97.77,174.27c-0.5,3.65-0.46,7.32-0.44,10.98
		c0.01,1.51,0,3.02,0,4.53c0,3.41,0,3.33,3.45,3.4c1.44,0.03,1.64-0.5,1.67-1.78c0.16-7.29-0.38-14.56-0.46-21.85
		c0.26-5.94-0.04-11.86-0.36-17.79c0.24-0.88-0.55-2.45,1.42-2.17c2.83,0.41,5.66,0.87,8.5,1.29c4.49,0.66,8.98,1.31,13.47,1.97
		c4.55,0.66,9.09,1.36,13.65,1.96c2.33,0.31,4.62,0.97,7.17,0.92c-1.38-2.42-2.53-4.72-3.99-6.84c-0.61-0.89-1-1.85-1.01-3.02
		c-0.01-2.91,1.28-5.25,3.21-7.2c1.8-1.83,3.85-3.41,5.8-5.11c-0.43-0.39-0.96-0.63-1.1-1.02c-0.52-1.51-1.33-1.23-2.39-0.6
		c-2.03,1.22-4.26,1.99-6.63,2.02c-6.86,0.07-13.72,0.01-20.58,0.04c-1.36,0.01-2.45-0.51-3.41-1.38c-0.97-0.89-1.26-2.16-1.68-3.34
		c-0.23-0.64-0.35-1.24-1.15-1.43c-2.64-0.62-3.8,0-4.69,2.6c-0.95,2.77-2.01,3.53-4.9,3.54c-3.95,0-7.91-0.15-11.85,0.05
		c-3.06,0.15-5-1.06-6.36-3.71c-0.87-1.7-2.03-3.26-3.06-4.89c-0.34,1.46-0.33,2.77-0.34,4.09c-0.02,2.8-1.68,4.45-4.51,4.46
		c-3.71,0.01-7.42,0-11.13,0c-4.49,0-5.4-0.59-6.8-4.81c-0.35-1.05-0.83-1.52-1.91-1.36c-1.26,0.18-2.95-0.66-3.49,1.3
		c-0.58,2.14-1.33,4.11-4.16,5.02c1.79,0.81,2.71,1.92,3.81,2.83c3.47,2.85,6.17,6.13,5.12,11.1c-1.82,2.48-3.2,5.21-4.85,8.11
		c3.1-0.43,5.9-0.82,8.7-1.2c0.64-0.1,1.28-0.22,1.92-0.31c4.47-0.63,8.95-1.23,13.42-1.9c6.05-0.91,12.09-1.88,18.14-2.82
		c1.39-0.22,2.38,0.07,2.13,1.81c-0.18,1.9-0.27,3.83-0.34,5.72C97.58,163.07,97.75,168.68,97.77,174.27z M78.11,112.78
		c0.11-0.04,0.22-0.08,0.33-0.12c2.64,4.24,5.38,8.43,7.9,12.75c2.87,4.93,2.78,4.93,8,4.98c1.27,0.01,1.59-0.29,1.58-1.57
		c-0.07-7.13-0.02-14.27-0.04-21.4c-0.01-1.49,0.66-3.5-0.25-4.35c-0.99-0.93-2.99-0.14-4.53-0.3c-1.12-0.12-1.41,0.25-1.4,1.38
		c0.07,5.02,0.04,10.04,0.01,15.05c0,0.4,0.31,0.94-0.28,1.26c-2.74-4.44-5.56-8.81-8.17-13.29c-2.56-4.38-2.48-4.4-7.48-4.41
		c-1.17,0-1.5,0.28-1.49,1.48c0.06,7.25,0.03,14.51,0.03,21.77c0,4.42,0,4.37,4.34,4.4c1.17,0.01,1.51-0.28,1.49-1.48
		C78.07,123.54,78.11,118.16,78.11,112.78z M126.73,116.38c0,4.17,0.04,8.34-0.03,12.51c-0.02,1.13,0.22,1.55,1.45,1.51
		c3.26-0.1,6.53-0.09,9.79-0.02c2.98,0.06,5.66-0.86,8.19-2.27c2.42-1.34,3.59-3.37,3.49-6.25c-0.14-3.86-0.07-7.73-0.01-11.6
		c0.02-1.54-0.57-2.73-1.59-3.79c-2.79-2.92-6.42-3.8-10.22-4.01c-3.25-0.18-6.52,0-9.79-0.06c-1.01-0.02-1.32,0.25-1.3,1.29
		C126.77,107.92,126.73,112.15,126.73,116.38z M177.5,130.36c-1.31-3.51-2.6-6.87-3.84-10.26c-1.77-4.86-3.47-9.74-5.28-14.58
		c-0.67-1.8-2.21-2.76-4.03-3.06c-1.48-0.24-3.08,1.26-3.92,3c-1.22,2.52-2,5.21-2.99,7.81c-2,5.27-3.81,10.6-5.8,15.87
		c-0.42,1.1-0.15,1.19,0.82,1.23c5.01,0.21,5.01,0.23,6.56-4.61c0.02-0.06,0-0.12,0.02-0.18c0.3-0.93,0.68-1.54,1.92-1.43
		c1.92,0.16,3.88,0.21,5.79,0c1.9-0.21,2.68,0.51,3.19,2.26c1.17,3.97,1.25,3.95,5.31,3.95
		C175.92,130.36,176.59,130.36,177.5,130.36z M124.36,130.36c0.07-1.09-0.59-1.9-0.92-2.81c-2.65-7.38-5.35-14.74-8.06-22.1
		c-0.54-1.46-2.76-3.19-4.08-2.98c-1.6,0.25-3.16,0.94-3.77,2.56c-2.84,7.49-5.61,15.01-8.36,22.54c-1.01,2.77-0.96,2.79,2.03,2.79
		c3.06,0,3.07,0,4.26-2.85c0.31-0.75,0.69-1.51,0.79-2.29c0.12-1.01,0.67-1.05,1.45-1.03c1.99,0.03,4,0.15,5.98-0.03
		c1.9-0.17,2.78,0.44,3.31,2.34c1.1,3.91,1.23,3.87,5.2,3.87C122.91,130.36,123.63,130.36,124.36,130.36z M69.71,130.36
		c-1.75-4.76-3.48-9.44-5.19-14.13c-1.29-3.55-2.53-7.11-3.87-10.64c-0.68-1.79-2.18-2.96-3.99-3.08c-1.61-0.11-3.14,0.87-3.88,2.37
		c-0.8,1.6-1.26,3.36-1.89,5.05c-2.11,5.72-4.19,11.45-6.37,17.15c-1.27,3.31-1.34,3.13,2.27,3.34c2.04,0.11,3.32-0.28,3.74-2.43
		c0.18-0.9,0.6-1.76,0.85-2.65c0.23-0.81,0.55-1.23,1.54-1.18c2.29,0.11,4.59,0.09,6.89,0.01c1.18-0.04,1.66,0.31,2.03,1.54
		c1.42,4.69,1.5,4.66,6.48,4.65C68.75,130.36,69.17,130.36,69.71,130.36z M37.33,130.73c1.41,0,2.44-0.07,3.46,0.02
		c1.06,0.09,1.54-0.15,1.43-1.35c-0.12-1.2-0.11-2.42,0-3.62c0.11-1.22-0.2-1.72-1.53-1.61c-1.62,0.13-3.26,0.1-4.89,0.02
		c-5.48-0.26-8-5.03-6.71-9.53c1.17-4.08,3.16-5.31,7.81-5.36c1.73-0.02,4.1,0.77,5.01-0.31c0.87-1.04,0.19-3.33,0.31-5.07
		c0.07-1.05-0.39-1.17-1.25-1.15c-1.93,0.05-3.87,0.11-5.8,0c-4.48-0.26-7.55,2.16-9.98,5.43c-2.59,3.49-3.06,7.61-2.12,11.74
		c0.71,3.14,2.12,5.94,4.86,8.05C30.89,130.27,34.14,130.94,37.33,130.73z" />
		<path class="can_st1" d="M69.82,53.07c-1.28-7.5-2.56-15-3.91-22.92c1.92,1.38,3.47,2.53,5.06,3.63c2.81,1.94,6.03,2.57,9.35,2.57
		c2.74,0,4.37-1.97,5.77-4.01c2.44-3.55,4.21-7.49,6.34-11.22c2.48-4.36,4.79-8.82,7.22-13.31c1.47,1.09,1.88,2.8,2.68,4.19
		c3.32,5.73,6.39,11.61,9.66,17.37c1.17,2.05,2.25,4.27,4.35,5.59c3.33,2.09,6.71,0.98,9.98-0.21c2.71-0.98,4.88-2.91,7.27-4.9
		c0.09,2.35-0.53,4.36-0.84,6.38c-0.84,5.53-1.8,11.04-2.79,16.54c-0.35,1.92-0.36,3.91-1.12,5.75c-1.22,0.2-2.01,0.91-2.08,2.14
		c-0.06,1.03-0.57,1.3-1.41,1.06c-1.82-0.52-3.52-0.14-5.32,0.24c-3.56,0.74-5.8,0.09-6.82-4.22c-0.43-1.82-0.59-3.66-1.02-5.46
		c-0.46-1.96-1.75-2.78-3.81-2.52c-0.71,0.09-1.45,0-2.17,0.05c-1.8,0.1-3.61-0.23-5.41,0.23c-4.39,1.13-8.9,1.35-13.4,1.57
		c-1.98,0.09-3.15,1.2-2.69,3.09c0.34,1.43,0.1,2.88,0.56,4.29c0.35,1.05-0.15,1.79-1.39,1.7c-1.07-0.08-2.19-0.44-3.21-0.25
		c-2.16,0.4-4.2,0.71-5.85-1.2c-0.57-0.47-0.31-1.12-0.37-1.7C74.1,53.99,73.17,53.09,69.82,53.07z" />
		<path class="can_st2" d="M98.12,151.77c0.25-1.73-0.74-2.02-2.13-1.81c-6.05,0.94-12.09,1.91-18.14,2.82
		c-4.47,0.67-8.95,1.27-13.42,1.9c-0.64,0.09-1.28,0.2-1.92,0.31c-0.11-1.41-0.76-2.66-1.17-3.97c-0.42-1.36-1.16-2.53-2.69-2.93
		c1.06-4.97-1.65-8.25-5.12-11.1c-1.11-0.91-2.02-2.02-3.81-2.83c2.83-0.91,3.58-2.88,4.16-5.02c0.53-1.97,2.23-1.12,3.49-1.3
		c1.08-0.16,1.56,0.31,1.91,1.36c1.41,4.22,2.31,4.81,6.8,4.81c3.71,0,7.42,0.01,11.13,0c2.83-0.01,4.49-1.66,4.51-4.46
		c0.01-1.32,0-2.63,0.34-4.09c1.03,1.63,2.18,3.19,3.06,4.89c1.36,2.65,3.3,3.86,6.36,3.71c3.94-0.19,7.9-0.05,11.85-0.05
		c2.89,0,3.95-0.77,4.9-3.54c0.89-2.6,2.05-3.23,4.69-2.6c0.81,0.19,0.93,0.8,1.15,1.43c0.42,1.18,0.71,2.45,1.68,3.34
		c0.95,0.88,2.05,1.39,3.41,1.38c6.86-0.03,13.72,0.03,20.58-0.04c2.36-0.02,4.59-0.8,6.63-2.02c1.06-0.63,1.86-0.91,2.39,0.6
		c0.13,0.39,0.66,0.63,1.1,1.02c-1.95,1.7-4,3.28-5.8,5.11c-1.93,1.96-3.22,4.29-3.21,7.2c0,1.16,0.39,2.13,1.01,3.02
		c1.46,2.12,2.61,4.42,3.99,6.84c-2.55,0.05-4.85-0.61-7.17-0.92c-4.56-0.6-9.1-1.3-13.65-1.96c-4.49-0.65-8.98-1.3-13.47-1.97
		c-2.83-0.42-5.66-0.87-8.5-1.29c-1.97-0.29-1.18,1.29-1.42,2.17C100.47,151.77,99.3,151.77,98.12,151.77z" />
		<path class="can_st3" d="M116.93,101.36c-5.3-4.92-11.72-2.11-13.82,4.89c-0.94,3.13-2.22,6.16-3.59,9.22c0-3.86,0-7.73,0-11.59
		c0-3.16-1.59-4.72-4.79-4.72c-1.45,0-2.9-0.02-4.35,0c-2.57,0.04-4.25,1.73-4.29,4.31c-0.02,1.37,0,2.73-0.31,4.2
		c-1.18-1.89-2.38-3.77-3.53-5.68c-1.1-1.84-2.6-2.92-4.84-2.85c-1.45,0.05-2.9,0-4.35,0.01c-2.66,0.03-4.38,1.73-4.39,4.39
		c-0.02,4.23,0,8.45-0.2,12.73c-1.39-3.72-2.79-7.43-4.15-11.16c-0.81-2.22-2.06-4.07-4.21-5.18c-4.27-2.2-9.31-0.24-11.01,4.27
		c-0.5,1.34-1.02,2.67-1.54,4c-0.57-0.12-1.14-0.24-1.7-0.36c-0.02-1.5-0.03-3-0.06-4.5c-0.05-2.41-1.77-4.16-4.17-4.2
		c-2.46-0.04-4.92-0.03-7.39-0.04c1.6-0.7,3.29-1.1,5-1.45c4.7-0.99,9.37-2.08,14.1-2.97c3.17-0.6,6.43-0.65,9.51-1.68
		c5.21-0.2,10.35-1.3,15.58-1.19c0.15,0,0.3-0.18,0.45-0.27c3.86,0.17,7.7-0.32,11.56-0.39c3.61,0.06,7.22,0.02,10.84,0.31
		c6.28,0.5,11.82,2.21,15.28,8C116.69,100.11,116.81,100.74,116.93,101.36z" />
		<path class="can_st4" d="M74.85,59.25c1.65,1.9,3.68,1.6,5.85,1.2c1.02-0.19,2.13,0.17,3.21,0.25c1.24,0.09,1.74-0.66,1.39-1.7
		c-0.47-1.41-0.22-2.86-0.56-4.29c-0.46-1.89,0.72-2.99,2.69-3.09c4.5-0.22,9.01-0.44,13.4-1.57c1.79-0.46,3.61-0.12,5.41-0.23
		c0.72-0.04,1.46,0.04,2.17-0.05c2.06-0.26,3.35,0.56,3.81,2.52c0.42,1.8,0.59,3.64,1.02,5.46c1.02,4.31,3.26,4.96,6.82,4.22
		c1.8-0.38,3.5-0.76,5.32-0.24c0.84,0.24,1.35-0.03,1.41-1.06c0.07-1.24,0.86-1.94,2.08-2.14c0.04,2.71-0.77,5.3-1.11,7.95
		c-0.42,3.3-1.18,6.55-1.79,9.83c-0.87,0.12-2.07-0.44-2.55,0.41c-0.88,1.56-2.2,1.42-3.59,1.41c-1.81-0.02-3.62,0-5.43,0
		c-0.29-0.16-0.34-0.44-0.35-0.73c0.07-1.47-0.02-2.92-0.37-4.35c-0.13-2.07-0.29-4.13-0.72-6.17c0.14-2.58-0.63-5.07-0.72-7.62
		c-0.15-1.12-0.22-2.27-0.48-3.37c-0.18-0.74-0.52-1.27-1.62-1.26c-3.81,0.03-7.51,2.03-11.41,0.66c-0.46-0.16-1.17-0.11-1.58,0.14
		c-2.97,1.76-6.36,1.42-9.57,1.97c-1.11,0.19-1.5,0.76-1.43,1.67c0.09,1.17,0.13,2.37,0.69,3.45c-0.23,1.84,0.43,3.62,0.36,5.44
		c-1.7,0.96-3.73,0.26-5.37,0.87c-2.11,0.78-3.93,0.5-5.87-0.15c-0.34-1.56-0.17-3.19-0.73-4.72
		C75.37,62.37,74.62,60.84,74.85,59.25z" />
		<path class="can_st5" d="M144.87,100.19c-2.13-1.04-4.46-1.26-6.76-1.37c-2.94-0.14-5.89-0.07-8.83-0.09c0.04-1.27-0.2-2.51-0.31-3.76
		c-0.12-1.27-0.62-1.56-1.8-1.66c-2.25-0.2-4.23,0.98-6.36,1.05c-1.76,0.06-3.27,0.33-4.57,1.52c-0.36-3.27-0.73-6.53-1.09-9.8
		c1.88-0.92,3.87-1.28,5.94-1.51c1.45-0.16,2.86,0.15,4.25-0.03c2.11-0.27,2.77,0.11,3.19,2.21c0.11,0.53,0.25,1.05,0.32,1.58
		c0.22,1.52,1.12,2.04,2.61,2.15c2.1,0.16,4.19-0.11,6.24-0.2c1.84-0.09,3.73-0.94,5.67-1.2c0.38-0.05,0.69-0.63,1.02-0.99
		c1.21-1.33,4.64-2.24,6.18-1.4c0.95,0.52,1.63,0.21,2.53,0.05c3.03-0.52,6-1.71,9.17-1.02c0.24,1.94,0.49,3.87,0.73,5.81
		c0.48,1.3,0.35,2.65,0.36,3.99c-2.74,0.96-5.68,0.62-8.46,1.42c-2.41,0.69-4.97,0.59-7.45,1.03
		C145.96,98.24,145.17,98.78,144.87,100.19z" />
		<path class="can_st0" d="M78.11,112.78c0,5.38-0.04,10.75,0.03,16.13c0.02,1.2-0.32,1.48-1.49,1.48c-4.34-0.03-4.34,0.02-4.34-4.4
		c0-7.26,0.03-14.51-0.03-21.77c-0.01-1.2,0.32-1.48,1.49-1.48c5.01,0.01,4.92,0.02,7.48,4.41c2.62,4.48,5.43,8.85,8.17,13.29
		c0.59-0.32,0.28-0.86,0.28-1.26c0.03-5.02,0.06-10.04-0.01-15.05c-0.02-1.13,0.28-1.5,1.4-1.38c1.55,0.16,3.55-0.63,4.53,0.3
		c0.91,0.86,0.25,2.86,0.25,4.35c0.03,7.13-0.02,14.27,0.04,21.4c0.01,1.28-0.32,1.58-1.58,1.57c-5.22-0.05-5.13-0.05-8-4.98
		c-2.51-4.32-5.26-8.51-7.9-12.75C78.33,112.71,78.22,112.75,78.11,112.78z" />
		<path class="can_st0" d="M126.73,116.38c0-4.23,0.03-8.46-0.02-12.69c-0.01-1.04,0.29-1.31,1.3-1.29c3.26,0.06,6.53-0.12,9.79,0.06
		c3.8,0.21,7.43,1.09,10.22,4.01c1.02,1.07,1.61,2.25,1.59,3.79c-0.06,3.87-0.12,7.74,0.01,11.6c0.1,2.88-1.07,4.91-3.49,6.25
		c-2.53,1.4-5.22,2.33-8.19,2.27c-3.26-0.07-6.53-0.08-9.79,0.02c-1.24,0.04-1.47-0.38-1.45-1.51
		C126.77,124.72,126.73,120.55,126.73,116.38z M133.26,116.22c0,1.51-0.05,3.02,0.01,4.52c0.06,1.6-0.72,3.87,0.32,4.64
		c1.1,0.81,3.23,0.32,4.91,0.24c3.16-0.14,4.55-1.65,4.55-4.78c0-3.14,0-6.27,0-9.41c0-1.82-0.78-2.99-2.6-3.62
		c-2.08-0.72-4.19-0.62-6.31-0.69c-0.95-0.03-0.88,0.51-0.88,1.14C133.27,110.91,133.26,113.57,133.26,116.22z" />
		<path class="can_st6" d="M162.29,85.73c-3.17-0.69-6.14,0.5-9.17,1.02c-0.9,0.16-1.57,0.46-2.53-0.05c-1.54-0.84-4.97,0.07-6.18,1.4
		c-0.32,0.35-0.64,0.94-1.02,0.99c-1.94,0.25-3.84,1.11-5.67,1.2c-2.05,0.1-4.15,0.36-6.24,0.2c-1.5-0.11-2.39-0.63-2.61-2.15
		c-0.08-0.53-0.22-1.06-0.32-1.58c-0.42-2.1-1.08-2.48-3.19-2.21c-1.4,0.18-2.81-0.13-4.25,0.03c-2.08,0.23-4.07,0.59-5.94,1.51
		c-0.02-0.12-0.04-0.23-0.05-0.35c-0.12-0.97-0.23-1.94-0.35-2.91c-0.12-1.57-0.24-3.14-0.36-4.72c1.81,0,3.62-0.02,5.43,0
		c1.39,0.02,2.7,0.15,3.59-1.41c0.48-0.85,1.68-0.29,2.55-0.41c0.02,0.83-0.01,1.67,0.07,2.5c0.26,2.73,2.26,3.87,4.74,2.75
		c0.21-0.1,0.45-0.13,0.67-0.2c1.04,1.25,2.31,1.13,3.25,0.12c0.68-0.73,0.92-1.79,2.26-1.55c1.06,0.18,2.25-0.35,3.19,0.28
		c1.77,1.18,3.23,1.38,4.36-0.77c0.13-0.25,0.39-0.51,0.65-0.62c1.2-0.5,2.33-1.85,3.67,0.03c0.54,0.76,1.73,0.36,2.7,0.09
		c1.75-0.48,3.63-1.25,5.31-0.97c1.51,0.25,2.89,0.47,4.37,0.16c0.24,1.57,0.49,3.15,0.73,4.72
		C161.95,83.81,162.47,84.73,162.29,85.73z" />
		<path class="can_st0" d="M177.5,130.36c-0.91,0-1.58,0-2.24,0c-4.06,0-4.15,0.02-5.31-3.95c-0.52-1.76-1.3-2.47-3.19-2.26
		c-1.91,0.21-3.87,0.16-5.79,0c-1.23-0.1-1.62,0.5-1.92,1.43c-0.02,0.06,0,0.12-0.02,0.18c-1.55,4.84-1.55,4.82-6.56,4.61
		c-0.97-0.04-1.24-0.13-0.82-1.23c2-5.27,3.81-10.6,5.8-15.87c0.99-2.6,1.77-5.28,2.99-7.81c0.84-1.74,2.44-3.25,3.92-3
		c1.82,0.3,3.36,1.27,4.03,3.06c1.81,4.84,3.51,9.72,5.28,14.58C174.9,123.49,176.18,126.85,177.5,130.36z M164.35,111.31
		c-0.9,2.53-1.55,4.75-2.49,6.86c-0.51,1.15-0.27,1.34,0.82,1.31c1.5-0.04,3-0.01,4.65-0.01
		C166.36,116.8,165.41,114.21,164.35,111.31z" />
		<path class="can_st0" d="M124.36,130.36c-0.72,0-1.45,0-2.17,0c-3.97,0-4.09,0.04-5.2-3.87c-0.54-1.9-1.41-2.51-3.31-2.34
		c-1.98,0.18-3.99,0.06-5.98,0.03c-0.78-0.01-1.33,0.03-1.45,1.03c-0.09,0.79-0.47,1.55-0.79,2.29c-1.19,2.85-1.2,2.85-4.26,2.85
		c-2.99,0-3.05-0.02-2.03-2.79c2.75-7.53,5.52-15.05,8.36-22.54c0.62-1.62,2.18-2.32,3.77-2.56c1.31-0.2,3.54,1.52,4.08,2.98
		c2.71,7.36,5.41,14.72,8.06,22.1C123.77,128.46,124.43,129.28,124.36,130.36z M111.33,111.49c-0.85,2.34-1.57,4.6-2.49,6.77
		c-0.44,1.04-0.22,1.25,0.78,1.23c1.54-0.03,3.07-0.01,4.7-0.01C113.33,116.74,112.55,114.08,111.33,111.49z" />
		<path class="can_st0" d="M69.71,130.36c-0.54,0-0.96,0-1.38,0c-4.97,0.01-5.05,0.04-6.48-4.65c-0.37-1.23-0.85-1.58-2.03-1.54
		c-2.29,0.07-4.6,0.09-6.89-0.01c-1-0.05-1.32,0.37-1.54,1.18c-0.25,0.89-0.68,1.74-0.85,2.65c-0.42,2.15-1.7,2.54-3.74,2.43
		c-3.61-0.2-3.54-0.03-2.27-3.34c2.18-5.69,4.25-11.43,6.37-17.15c0.62-1.69,1.09-3.45,1.89-5.05c0.75-1.51,2.27-2.48,3.88-2.37
		c1.81,0.12,3.31,1.29,3.99,3.08c1.34,3.53,2.57,7.1,3.87,10.64C66.23,120.92,67.96,125.6,69.71,130.36z M56.54,111.49
		c-0.85,2.34-1.57,4.6-2.49,6.77c-0.44,1.04-0.22,1.25,0.78,1.23c1.54-0.03,3.07-0.01,4.7-0.01
		C58.55,116.74,57.76,114.08,56.54,111.49z" />
		<path class="can_st4" d="M161.2,78.11c-1.48,0.31-2.87,0.09-4.37-0.16c-1.67-0.28-3.56,0.49-5.31,0.97c-0.97,0.27-2.16,0.67-2.7-0.09
		c-1.34-1.89-2.47-0.53-3.67-0.03c-0.26,0.11-0.52,0.36-0.65,0.62c-1.13,2.15-2.59,1.95-4.36,0.77c-0.94-0.63-2.14-0.1-3.19-0.28
		c-1.34-0.24-1.58,0.82-2.26,1.55c-0.94,1.01-2.21,1.12-3.25-0.12c3.15-1.91,4.98-5.11,7.45-7.69c2.8-2.94,5.29-6.17,7.93-9.27
		c1.44-1.68,2.91-3.32,4.45-5.07c1.48,2.34,2.98,4.62,4.39,6.96c1.2,1.98,2.6,3.72,4.82,4.63C160.71,73.31,160.96,75.71,161.2,78.11
		z" />
		<path class="can_st0" d="M37.33,130.73c-3.19,0.21-6.43-0.46-9.4-2.73c-2.75-2.11-4.15-4.91-4.86-8.05c-0.93-4.13-0.47-8.25,2.12-11.74
		c2.43-3.27,5.5-5.69,9.98-5.43c1.93,0.11,3.87,0.05,5.8,0c0.86-0.02,1.33,0.1,1.25,1.15c-0.12,1.73,0.56,4.03-0.31,5.07
		c-0.91,1.09-3.28,0.3-5.01,0.31c-4.64,0.05-6.64,1.27-7.81,5.36c-1.29,4.5,1.23,9.27,6.71,9.53c1.63,0.08,3.27,0.11,4.89-0.02
		c1.34-0.11,1.64,0.39,1.53,1.61c-0.11,1.2-0.12,2.42,0,3.62c0.12,1.2-0.37,1.44-1.43,1.35C39.77,130.66,38.74,130.73,37.33,130.73z
		" />
		<path class="can_st4" d="M36.03,72c2.57-0.57,5.2-1.06,6.79-3.49c1.73-2.64,3.48-5.26,5.06-7.98c0.64-1.11,0.92-0.7,1.47-0.06
		c2.74,3.22,5.5,6.43,8.24,9.65c0.81,0.95,1.61,1.92,2.41,2.88c-0.01,0.61-0.01,1.23-0.02,1.84c-1.82,0.6-3.74,0.61-5.61,0.71
		c-2.45,0.12-4.88,0.39-7.31,0.71c-3.43,0.45-6.88,0.76-10.32,1.13c-0.24-1.33-0.49-2.66-0.73-3.99
		C36.02,72.93,36.02,72.46,36.03,72z" />
		<path class="can_st2" d="M161.2,78.11c-0.24-2.4-0.49-4.8-0.73-7.21c2.37,1.03,4.78,0.67,7.18,0.16c1.85-0.39,3.69-0.83,5.53-1.25
		c0.36,3.49,0.72,6.98,1.08,10.47c-1.7,0.13-2.86,1.56-4.79,1.58c-2.49,0.02-5.1,0.11-7.55,0.96
		C161.69,81.26,161.44,79.69,161.2,78.11z" />
		<path class="can_st7" d="M144.87,100.19c0.3-1.41,1.09-1.95,2.59-2.21c2.48-0.44,5.04-0.34,7.45-1.03c2.78-0.8,5.73-0.46,8.46-1.42
		c0.76,0.56-0.04,1.62,0.71,2.18c0,0.34,0,0.69-0.01,1.03c-4.33,0.76-6.77,3.45-8.01,7.55c-0.72,2.38-1.71,4.69-2.85,6.99
		c0-0.92-0.03-1.84,0-2.75c0.14-4.18-2.21-6.8-5.5-8.83C146.82,101.13,145.83,100.69,144.87,100.19z" />
		<path class="can_st5" d="M102,169.55c0.08,7.28,0.62,14.56,0.46,21.85c-0.03,1.27-0.23,1.8-1.67,1.78c-3.45-0.07-3.45,0.01-3.45-3.4
		c0-1.51,0.01-3.02,0-4.53c-0.02-3.67-0.06-7.34,0.44-10.98c0.54-0.07,0.6-0.46,0.69-0.91c0.34-1.59,0.7-3.17,1.09-4.74
		c0.11-0.45,0.18-1.06,0.78-1.07c0.51-0.01,0.61,0.5,0.64,0.94C101.03,169.13,101.36,169.49,102,169.55z" />
		<path class="can_st6" d="M174.26,80.29c-0.36-3.49-0.72-6.98-1.08-10.47c3.06-0.68,6.12-1.37,9.36-2.09
		c-1.28,4.77-2.53,9.43-3.78,14.09c-0.23,0.85-0.26,1.76-0.83,2.49c-1.1-0.25-2.2-0.5-3.3-0.75
		C174.51,82.47,174.39,81.38,174.26,80.29z" />
		<path class="can_st5" d="M45.87,107.86c0.57,0.12,1.14,0.24,1.7,0.36c-1.4,3.81-2.8,7.61-4.19,11.42c-0.16,0.44-0.19,0.96-0.87,0.92
		c-2.51-0.16-5.05,0.34-7.54-0.31c-1.89-0.5-2.79-1.89-2.57-4.05c0.2-1.98,1.46-3.22,3.39-3.26c1.57-0.03,3.15-0.12,4.71,0.02
		C43.69,113.25,46,111.54,45.87,107.86z" />
		<path class="can_st8" d="M22.2,86.11c-0.66-1.77-1.29-3.54-1.45-5.44c0.34-0.12,0.67-0.32,1.02-0.36c4.99-0.62,9.99-1.22,14.98-1.83
		c0.24,1.93,0.86,3.82,0.73,5.8C32.38,84.89,27.29,85.5,22.2,86.11z" />
		<path class="can_st2" d="M36.75,78.48c-4.99,0.61-9.99,1.21-14.98,1.83c-0.35,0.04-0.68,0.24-1.02,0.36c-0.58-1.94-1.15-3.88-1.73-5.82
		c3.89-0.05,7.69-0.86,11.54-1.25c1.81-0.18,3.61-0.79,5.46-0.2c0.24,1.33,0.49,2.66,0.73,3.99C36.75,77.75,36.75,78.11,36.75,78.48
		z" />
		<path class="can_st7" d="M116.23,95.89c1.3-1.2,2.81-1.47,4.57-1.52c2.13-0.07,4.12-1.25,6.36-1.05c1.18,0.1,1.68,0.39,1.8,1.66
		c0.11,1.25,0.35,2.49,0.31,3.76c-0.48,0.02-0.96,0.05-1.43,0.06c-3.02,0.03-4.48,1.35-4.79,4.35c-1.56-0.13-3.05,0.6-4.62,0.36
		c-0.5-0.71-1-1.43-1.5-2.14c-0.12-0.62-0.24-1.25-0.36-1.87C116.62,98.27,115.99,97.12,116.23,95.89z" />
		<path class="can_st9" d="M23,95.16c0.33-1.55,0.37-3.12,0.29-4.7c4.93-0.92,9.9-1.52,14.9-1.82c0.12,0.97,0.25,1.93,0.37,2.9
		c0,0.73,0,1.45,0,2.18c-1.26,0.09-2.5,0-3.77,0.2C30.88,94.5,26.98,95.23,23,95.16z" />
		<path class="can_st7" d="M102,169.55c-0.64-0.06-0.97-0.42-1.03-1.06c-0.04-0.44-0.13-0.94-0.64-0.94c-0.6,0.01-0.67,0.61-0.78,1.07
		c-0.38,1.58-0.75,3.16-1.09,4.74c-0.09,0.44-0.15,0.84-0.69,0.91c-0.02-5.6-0.19-11.2,0.01-16.78c0.07-1.89,0.16-3.82,0.34-5.72
		c1.17,0,2.35,0,3.52,0C101.95,157.69,102.25,163.62,102,169.55z" />
		<path class="can_st5" d="M36.02,73.4c-1.84-0.59-3.65,0.02-5.46,0.2c-3.85,0.39-7.65,1.2-11.54,1.25c-0.58-2.23-1.15-4.46-1.76-6.8
		c6.38,1.28,12.5,2.95,18.76,3.95C36.02,72.46,36.02,72.93,36.02,73.4z" />
		<path class="can_st7" d="M26.98,101.35c-2.64,2.25-5.21,4.56-6.59,8.04c-2.83-2.32-5.48-4.49-8.33-6.83c4.3-0.55,7.73-2.19,10.18-5.58
		c0.01,0.4-0.06,0.83,0.36,1.09c0.11,1.27,0.38,2.62,1.18,3.52c0.64,0.73,1.72-0.5,2.67-0.28C26.62,101.35,26.8,101.34,26.98,101.35
		z" />
		<path class="can_st10" d="M178.64,98.04c2.41,2.42,5.22,3.97,9.18,4.07c-3.6,2.95-6.73,5.88-10.29,8.3c-0.12-0.85,0.3-1.77-0.36-2.54
		c0.19-1.48-0.29-2.89-0.38-4.34c0.25-1.6-0.53-3.13-0.35-4.72C177.28,98.83,178.08,98.77,178.64,98.04z" />
		<path class="can_st11" d="M38.2,88.64c-5,0.3-9.97,0.9-14.9,1.82c-0.38-1.45-1-2.83-1.09-4.35c5.09-0.61,10.18-1.22,15.27-1.83
		c0.12,0.36,0.24,0.72,0.36,1.09C37.65,86.49,38.12,87.54,38.2,88.64z" />
		<path class="can_st9" d="M176.45,98.79c-0.19,1.6,0.6,3.12,0.35,4.72c-1.66,0.33-3.31,0.78-5.03,0.71c-1.52-3.28-4.13-5.04-7.68-5.49
		c0-0.34,0-0.69,0.01-1.03c4-0.58,7.94-1.5,11.98-1.81C176,96.89,176.15,97.85,176.45,98.79z" />
		<path class="can_st12"
			d="M22.59,98.07c-0.42-0.26-0.35-0.69-0.36-1.09c0.03-0.7,0.47-1.23,0.77-1.82c3.98,0.07,7.88-0.66,11.79-1.25
		c1.27-0.19,2.52-0.1,3.77-0.2c0.69,0.77,0.23,1.7,0.36,2.54c-1.72,0.19-3.43,0.38-5.15,0.57C30.05,97.24,26.32,97.65,22.59,98.07z" />
		<path class="can_st13" d="M22.59,98.07c3.73-0.42,7.46-0.83,11.18-1.25c1.72-0.19,3.43-0.38,5.15-0.57c0.23,0.44,0.43,0.89,0.33,1.42
		c-1.7,0.35-3.39,0.75-5,1.45c-2.37-0.11-4.48,0.68-6.48,1.86c-0.34-0.01-0.67,0-0.82,0.38c0,0,0.03-0.01,0.03-0.01
		c-0.18-0.01-0.37,0-0.54-0.04c-0.96-0.22-2.03,1.01-2.67,0.28C22.98,100.69,22.7,99.34,22.59,98.07z" />
		<path class="can_st3" d="M74.85,59.25c-0.23,1.6,0.53,3.12,0.36,4.72c-1.19,0-2.38-0.01-3.57-0.01c-0.6-3.63-1.21-7.26-1.81-10.88
		c3.34,0.02,4.28,0.92,4.65,4.48C74.54,58.13,74.28,58.78,74.85,59.25z" />
		<path class="can_st7" d="M58.66,148.08c1.53,0.4,2.27,1.57,2.69,2.93c0.41,1.32,1.06,2.57,1.17,3.97c-2.8,0.39-5.61,0.77-8.7,1.2
		C55.46,153.28,56.84,150.56,58.66,148.08z" />
		<path class="can_st12" d="M66.88,80.63c0.55,0.35,1.09,0.71,1.66,1.03c1.89,1.09,3.79,0.54,4.91-1.38c1.32-0.24,2.64-0.48,3.95-0.72
		c0.66,0.77,0.24,1.69,0.36,2.54c-5.32,0.76-10.62,1.72-16.01,1.82c-0.4-0.27-0.3-0.71-0.35-1.1c0-0.36-0.01-0.72-0.01-1.08
		C63.14,81.02,65.14,81.47,66.88,80.63z" />
		<path class="can_st11"
			d="M118.44,103.5c1.57,0.24,3.06-0.5,4.62-0.36c0,3.97,0,7.93,0,12.4C121.4,111.24,119.92,107.37,118.44,103.5z" />
		<path class="can_st9" d="M66.88,80.63c-1.74,0.84-3.74,0.39-5.5,1.11c-0.32-0.26-0.26-0.63-0.34-0.98c-0.44-1.96-0.18-4.05-1.06-5.93
		c0.01-0.61,0.01-1.23,0.02-1.84C62.3,75.54,64.59,78.09,66.88,80.63z" />
		<path class="can_st10" d="M71.64,63.95c1.19,0,2.38,0.01,3.57,0.01c0.56,1.52,0.39,3.16,0.73,4.72c0.12,0.61,0.23,1.21,0.35,1.82
		c-1.25-0.06-2.38,0.49-3.57,0.71C72.36,68.79,72,66.37,71.64,63.95z" />
		<path class="can_st2" d="M176.45,98.79c-0.3-0.94-0.45-1.91-0.38-2.9c-0.24-2.18-0.48-4.35-0.72-6.53c-0.24-1.94-0.48-3.87-0.72-5.81
		c1.1,0.25,2.2,0.5,3.3,0.75c-0.11,1.73-0.71,3.36-1.13,5.03c-0.82,3.22-0.24,6.11,1.84,8.71
		C178.08,98.77,177.28,98.83,176.45,98.79z" />
		<path class="can_st12" d="M171.76,104.23c1.72,0.06,3.37-0.38,5.03-0.71c0.09,1.45,0.57,2.87,0.38,4.34c-1.22,0.23-2.38,0.78-3.66,0.74
		C172.93,107.15,172.35,105.69,171.76,104.23z" />
		<path class="can_st9" d="M77.4,79.56c-1.32,0.24-2.64,0.48-3.95,0.72c0.37-1.69,0.58-3.39,0-5.08c1.21,0.16,2.38-0.2,3.56-0.35
		c-0.01,0.63,0.02,1.25,0.37,1.81C77.38,77.63,77.39,78.59,77.4,79.56z" />
		<path class="can_st11" d="M77.01,74.85c-1.18,0.15-2.35,0.51-3.56,0.35c-0.24-1.33-0.48-2.66-0.72-3.99c1.19-0.22,2.32-0.77,3.57-0.71
		c-0.12,0.77,0.24,1.45,0.38,2.17C76.52,73.44,76.92,74.12,77.01,74.85z" />
		<path class="can_st13" d="M173.52,108.61c1.28,0.03,2.44-0.51,3.66-0.74c0.66,0.77,0.23,1.69,0.36,2.54c-0.06,0.11-0.1,0.23-0.17,0.31
		c-2.03,2.27-2.46,2.2-3.38-0.56C173.8,109.64,173.67,109.12,173.52,108.61z" />
		<path class="can_st7" d="M26.95,101.36c0.16-0.38,0.49-0.39,0.82-0.38C27.59,101.31,27.28,101.35,26.95,101.36z" />
		<path class="can_st13" d="M61.75,83.92c5.39-0.1,10.69-1.06,16.01-1.82c0,0.24,0.01,0.48,0.01,0.72c0.24,1.33,0.49,2.66,0.73,3.99
		c0.13,1.58,0.26,3.16,0.39,4.74c-0.15,0.09-0.3,0.27-0.45,0.27c-5.23-0.12-10.37,0.99-15.58,1.19c-0.19-1.47-0.21-2.97-0.73-4.39
		C62.01,87.06,61.88,85.49,61.75,83.92z" />
		<path class="can_st13" d="M116.23,95.89c-0.24,1.23,0.38,2.39,0.33,3.6c-3.46-5.79-8.99-7.51-15.28-8c-3.62-0.29-7.23-0.26-10.84-0.31
		c-0.12-0.72-0.23-1.45-0.35-2.17c1.17-0.24,2.26-0.67,3.49-0.78c3.38-0.31,6.73-1,10.11-1.25c3.81-0.29,7.54-1.36,11.39-1.23
		c0.01,0.12,0.03,0.23,0.05,0.35C115.51,89.36,115.87,92.62,116.23,95.89z" />
		<path class="can_st11" d="M62.14,88.63c0.51,1.42,0.53,2.92,0.73,4.39c-3.09,1.03-6.35,1.09-9.51,1.68c-4.72,0.89-9.4,1.98-14.1,2.97
		c0.1-0.52-0.1-0.97-0.33-1.42c-0.13-0.85,0.33-1.78-0.36-2.54c0-0.73,0-1.45,0-2.18c2.78,0.28,5.43-0.66,8.17-0.91
		C51.89,90.16,57,89.32,62.14,88.63z" />
		<path class="can_st8" d="M90.1,89.01c0.12,0.72,0.23,1.45,0.35,2.17c-3.85,0.06-7.69,0.56-11.56,0.39c-0.13-1.58-0.26-3.16-0.39-4.74
		c3.78,0.1,7.47-0.72,11.21-1.08l0.02,0C89.86,86.82,89.98,87.91,90.1,89.01z" />
		<path class="can_st2" d="M112.22,59.25c0.09,2.55,0.86,5.04,0.72,7.62c-2.1,0.47-4.25,0.78-6.36,1.01c-6.35,0.68-12.69,1.45-19.03,2.26
		c-0.12-0.73-0.25-1.45-0.37-2.18c0.07-1.83-0.59-3.61-0.36-5.44c2.28-0.88,4.72-0.78,7.08-1.03
		C100.02,60.86,106.14,60.21,112.22,59.25z" />
		<path class="can_st8" d="M87.55,70.13c6.34-0.81,12.68-1.58,19.03-2.26c2.11-0.23,4.26-0.54,6.36-1.01c0.44,2.03,0.6,4.1,0.72,6.17
		c-1.18,0.12-2.37,0.22-3.55,0.36c-3.55,0.42-7.09,0.97-10.64,1.25c-3.75,0.3-7.42,1.22-11.18,1.29c0-0.12-0.01-0.25-0.01-0.37
		c-0.02-1.49-0.22-2.95-0.71-4.35C87.55,70.86,87.55,70.49,87.55,70.13z" />
		<path class="can_st9" d="M114.38,78.12c0.12,1.57,0.24,3.14,0.36,4.72c-1.51-0.01-2.99,0.11-4.49,0.31
		c-6.83,0.93-13.68,1.73-20.52,2.58c0,0-0.02,0-0.02,0c-0.54-1.53-0.04-3.21-0.72-4.72c0-0.12,0.01-0.24,0.01-0.36
		c1.29-0.25,2.53-0.65,3.87-0.76c3.69-0.32,7.36-0.8,11.03-1.25c3.38-0.42,6.72-1.14,10.13-1.25
		C114.04,77.68,114.09,77.96,114.38,78.12z" />
		<path class="can_st14" d="M112.22,59.25c-6.08,0.97-12.2,1.61-18.32,2.24c-2.36,0.24-4.8,0.15-7.08,1.03c-0.56-1.08-0.6-2.28-0.69-3.45
		c-0.07-0.91,0.32-1.47,1.43-1.67c3.2-0.55,6.6-0.21,9.57-1.97c0.42-0.25,1.12-0.3,1.58-0.14c3.9,1.37,7.6-0.63,11.41-0.66
		c1.1-0.01,1.44,0.51,1.62,1.26C112,56.98,112.07,58.12,112.22,59.25z" />
		<path class="can_st11" d="M114.03,77.39c-3.42,0.11-6.75,0.83-10.13,1.25c-3.67,0.46-7.35,0.93-11.03,1.25
		c-1.34,0.12-2.58,0.51-3.87,0.76c-0.62-1.51-0.13-3.2-0.72-4.71c3.77-0.06,7.44-0.99,11.18-1.29c3.56-0.29,7.1-0.83,10.64-1.25
		c1.18-0.14,2.37-0.24,3.55-0.36C114.01,74.47,114.1,75.92,114.03,77.39z" />
		<path class="can_st14" d="M87.55,70.13c0,0.36,0,0.72,0,1.08c-0.45,0.12-0.9,0.3-1.37,0.35c-3.17,0.38-6.35,0.73-9.52,1.1
		c-0.13-0.72-0.5-1.41-0.38-2.17c-0.12-0.61-0.23-1.21-0.35-1.82c1.94,0.65,3.77,0.93,5.87,0.15c1.64-0.61,3.67,0.09,5.37-0.87
		C87.3,68.68,87.43,69.41,87.55,70.13z" />
		<path class="can_st8" d="M174.63,83.55c0.24,1.94,0.48,3.87,0.72,5.81c-1.48-0.32-2.4,1.09-3.86,1.15c-2.83,0.13-5.65,0.66-8.47,1.02
		c-0.24-1.94-0.49-3.87-0.73-5.81c0.18-1-0.34-1.92-0.36-2.9c2.44-0.85,5.05-0.94,7.55-0.96c1.93-0.02,3.08-1.45,4.79-1.58
		C174.39,81.38,174.51,82.47,174.63,83.55z" />
		<path class="can_st11" d="M163.02,91.54c2.82-0.36,5.64-0.89,8.47-1.02c1.46-0.07,2.38-1.48,3.86-1.15c0.24,2.18,0.48,4.35,0.72,6.53
		c-4.04,0.31-7.98,1.23-11.98,1.81c-0.75-0.56,0.05-1.62-0.71-2.18C163.37,94.19,163.5,92.84,163.02,91.54z" />
		<path d="M133.26,116.22c0-2.65,0.01-5.31,0-7.96c0-0.63-0.07-1.17,0.88-1.14c2.12,0.07,4.23-0.03,6.31,0.69
		c1.83,0.63,2.6,1.8,2.6,3.62c0.01,3.14,0,6.27,0,9.41c0,3.13-1.4,4.65-4.55,4.78c-1.68,0.07-3.81,0.57-4.91-0.24
		c-1.04-0.77-0.26-3.03-0.32-4.64C133.22,119.24,133.26,117.73,133.26,116.22z M139.43,116.39
		C139.43,116.39,139.44,116.39,139.43,116.39c0.01-1.38-0.06-2.77,0.03-4.15c0.1-1.58-1.2-1.09-1.89-1.25
		c-1-0.23-0.66,0.72-0.66,1.19c-0.03,2.77-0.02,5.53,0,8.3c0.01,0.66-0.28,1.57,0.93,1.52c1.05-0.04,1.68-0.44,1.61-1.64
		C139.38,119.04,139.43,117.71,139.43,116.39z" />
		<path class="can_st12" d="M89.73,85.73c6.84-0.85,13.69-1.65,20.52-2.58c1.5-0.21,2.99-0.32,4.49-0.31c0.12,0.97,0.23,1.94,0.35,2.91
		c-3.85-0.12-7.57,0.95-11.39,1.23c-3.38,0.25-6.73,0.94-10.11,1.25c-1.23,0.11-2.32,0.54-3.49,0.78
		C89.98,87.91,89.86,86.82,89.73,85.73z" />
		<path d="M164.35,111.31c1.06,2.9,2.01,5.49,2.98,8.17c-1.65,0-3.15-0.03-4.65,0.01c-1.09,0.03-1.33-0.16-0.82-1.31
		C162.8,116.07,163.45,113.84,164.35,111.31z" />
		<path d="M111.33,111.49c1.23,2.59,2.01,5.25,3,7.99c-1.62,0-3.16-0.02-4.7,0.01c-1.01,0.02-1.23-0.19-0.78-1.23
		C109.76,116.08,110.48,113.83,111.33,111.49z" />
		<path d="M56.54,111.49c1.23,2.59,2.01,5.25,3,7.99c-1.62,0-3.16-0.02-4.7,0.01c-1.01,0.02-1.23-0.19-0.78-1.23
		C54.97,116.08,55.69,113.83,56.54,111.49z" />
		<path class="can_st5"
			d="M59.99,74.83c0.88,1.88,0.62,3.97,1.06,5.93c0.08,0.35,0.02,0.72,0.34,0.98c0,0.36,0.01,0.72,0.01,1.08
		c-4.05,0.41-8.13,0.66-12.15,1.27c-3.79,0.58-7.6,0.96-11.41,1.28c-0.12-0.36-0.24-0.72-0.36-1.09c0.13-1.98-0.49-3.87-0.73-5.8
		c0-0.36,0-0.73,0-1.09c3.44-0.37,6.89-0.68,10.32-1.13c2.43-0.32,4.86-0.59,7.31-0.71C56.25,75.44,58.16,75.43,59.99,74.83z" />
		<path class="can_st10" d="M37.84,85.37c3.82-0.31,7.62-0.7,11.41-1.28c4.02-0.61,8.09-0.86,12.15-1.27c0.05,0.39-0.05,0.82,0.35,1.1
		c0.13,1.57,0.26,3.14,0.39,4.71c-5.13,0.69-10.25,1.53-15.4,1.99c-2.73,0.25-5.39,1.19-8.17,0.91c-0.12-0.97-0.25-1.93-0.37-2.9
		C38.12,87.54,37.65,86.49,37.84,85.37z" />
		<path class="can_st5" d="M88.28,75.94c0.6,1.52,0.11,3.2,0.72,4.71c0,0.12-0.01,0.24-0.01,0.36c-3.84,0.01-7.58,0.58-11.22,1.81
		c0-0.24-0.01-0.48-0.01-0.72c-0.13-0.85,0.29-1.77-0.36-2.54c-0.01-0.97-0.01-1.93-0.02-2.9c1.99,0.14,3.91-0.22,5.84-0.7
		c1.64-0.41,3.31-1.04,5.05-0.39C88.27,75.69,88.28,75.82,88.28,75.94z" />
		<path class="can_st3" d="M88.27,75.57c-1.74-0.64-3.41-0.02-5.05,0.39c-1.93,0.48-3.85,0.84-5.84,0.7c-0.35-0.56-0.38-1.18-0.37-1.81
		c-0.08-0.73-0.49-1.42-0.34-2.19c3.17-0.36,6.35-0.72,9.52-1.1c0.46-0.06,0.91-0.23,1.37-0.35C88.05,72.63,88.25,74.08,88.27,75.57
		z" />
		<path class="can_st7" d="M77.77,82.82c3.64-1.23,7.38-1.8,11.22-1.81c0.68,1.51,0.18,3.19,0.72,4.72c-3.74,0.36-7.43,1.18-11.21,1.08
		C78.26,85.49,78.02,84.16,77.77,82.82z" />
		<path class="can_st11" d="M139.43,116.39c0,1.32-0.05,2.65,0.02,3.97c0.06,1.2-0.56,1.6-1.61,1.64c-1.21,0.05-0.92-0.86-0.93-1.52
		c-0.03-2.77-0.03-5.53,0-8.3c0.01-0.47-0.33-1.42,0.66-1.19c0.69,0.16,1.99-0.33,1.89,1.25
		C139.37,113.62,139.44,115.01,139.43,116.39C139.44,116.39,139.43,116.39,139.43,116.39z" />
	</g>
</svg>