<svg xmlns="http://www.w3.org/2000/svg" xml:space="preserve" style="enable-background:new 0 0 200 200" viewBox="0 0 200 200"><path d="M100.005 199.793c-2.172-.614-4.145-1.692-6.156-2.671-13.926-6.782-26.021-15.999-36.444-27.44C44.031 155 34.512 138.013 27.461 119.56c-4.376-11.451-7.606-23.232-10.025-35.248a264.835 264.835 0 0 1-3.092-18.734c-.643-5.034-1.074-10.094-1.454-15.161-.521-6.94-.487-13.878-.403-20.823.028-2.346.017-2.359 2.255-3.065C42.807 17.682 70.873 8.838 98.938-.008c.349-.11.683-.299 1.064-.135.382.437.35.975.351 1.498.008 3.416.003 6.833.012 10.247-.098.523-.562.558-.944.676-11.619 3.589-23.199 7.305-34.803 10.941-7.748 2.428-15.486 4.89-23.231 7.331-5.259 1.657-10.517 3.318-15.777 4.971-1.488.468-1.558.493-1.47 2.064.241 4.291.325 8.587.618 12.878.739 10.792 2.245 21.473 4.383 32.065 1.802 8.931 4.118 17.735 7.055 26.363 4.091 12.02 9.27 23.545 16.03 34.315 3.98 6.342 8.418 12.35 13.445 17.924 8.191 9.084 17.541 16.706 28.228 22.662 1.81 1.009 3.603 2.069 5.543 2.835.372.147.817.245.918.748-.002 3.679.003 7.356-.007 11.033-.001.487.017.986-.348 1.385z" style="fill:#d51a21"/><path d="M179.604 96.677c-.703 3.519-1.789 6.936-2.839 10.358-2.201 7.176-4.767 14.22-7.817 21.083-.357.804-.755 1.59-1.133 2.384-.472-.073-.711-.409-.553-.805.777-1.942.322-3.97.362-5.937.13-6.496.052-12.995.047-19.494-.001-1.614.191-3.219.184-4.836-.003-.631-.355-1.053-.538-1.573-.125-.581.082-1.117.226-1.664 2.988-11.3 5.185-22.75 6.522-34.364a268.354 268.354 0 0 0 1.385-16.35c.146-2.72.065-5.434.177-8.148.044-1.067-.411-1.542-1.411-1.82-2.036-.567-4.038-1.256-6.054-1.894-.462-.146-.957-.25-1.292-.655-.103-.236.196-.574-.242-.748-.315-.125-.299-.469-.061-.644.597-.44.469-1.047.467-1.637-.005-1.951 0-3.901-.003-5.852-.001-1.051.028-2.108-.665-3.01-.099-.128-.032-.286.075-.407l9.724 3.038c.317 1.256.417 1.308 1.61.833.585-.233 1.818.61 2.04 1.41.123.441.105.899.105 1.352.002 20.66.027 41.32-.033 61.98-.006 2.462.071 4.944-.283 7.4z" style="fill:#d3181f"/><path d="M179.604 96.677c.18-1.2-.56-2.356-.113-3.596.162-.451.351-1.091-.2-1.53-.202-.161-.163-.352-.021-.476.489-.428.296-.988.296-1.49.01-20.838-.015-41.677.065-62.515.005-1.287-.796-1.699-1.386-2.416-.145-.176-.473-.054-.556.186-.433 1.25-1.022.275-1.472.067-.667-.308-.535-.779-.052-1.204 3.494 1.091 6.983 2.202 10.49 3.252.561.168.655.443.705.934.225 2.184.116 4.374.164 6.562.125 5.585-.107 11.164-.499 16.729-.426 6.03-1.093 12.04-1.947 18.032a264.13 264.13 0 0 1-4.156 22.388c-.395 1.701-.695 3.432-1.318 5.077z" style="fill:#d41920"/><path d="M165.821 134.782c-1.881 4.059-3.981 8-6.364 11.789-.755-.071-.552-.677-.588-1.11-.473-5.684-.18-11.379-.254-17.069-.011-.832.048-1.682-.339-2.442-.339-.667.408-1.325-.058-1.961-.205-.378-.062-.729.089-1.077 1.639-3.793 3.179-7.625 4.531-11.53.143-.412.246-.894.813-.969.782.224 1.014.884 1.097 1.556.11.893.204 1.791.206 2.699.018 6.213-.081 12.426.049 18.638.003.151.006-.038.003.113-.014.711-.011.705.564 1 .134.068.195.222.251.363z" style="fill:#cd181f"/><path d="M154.671 154.106c-1.494 2.443-3.188 4.741-4.999 6.956-.916.302-1.154.151-1.122-.783.174-5.004.032-10.01.074-15.015.006-.713.04-1.435-.295-2.102-.317-.564.021-1.017.285-1.458 1.696-2.834 3.375-5.678 4.853-8.634.186-.371.397-.732.849-.846.617-.012.774.456.791.9.048 1.275.35 2.517.338 3.808-.045 4.964-.069 9.93.022 14.893.017.933-.68 1.475-.796 2.281z" style="fill:#c6161d"/><path d="M165.821 134.782c-.692-.369-1.101-.896-1.125-1.713a237.374 237.374 0 0 1-.081-6.201c-.011-4.328.041-8.657-.032-12.984-.02-1.18.12-2.52-1.055-3.389-.288-.457-.035-.884.104-1.296 1.162-3.475 2.268-6.968 3.228-10.505.105-.386.16-.84.667-.961.68.688.487 1.517.608 2.352.166 1.143-.155 2.15-.147 3.215.05 6.892.023 13.785.028 20.678.001 1.224-.196 2.44-.024 3.674.09.644.146 1.337-.427 1.905-.352.348.027.664.251.946-.481 1.512-1.286 2.873-1.995 4.279z" style="fill:#cf1920"/><path d="M166.442 20.665c.78.804.89 1.814.893 2.864.007 2.474.019 4.949.047 7.423.002.221.141.48-.191.518-.333.038-.678.154-.564.49.163.483.56-.194.848.052-.022.436-.224.698-.664.755-.269.213-.566.155-.859.079-2.143-.555-4.208-1.364-6.337-1.964-.35-.099-.731-.239-.768-.712.007-2.62.038-5.241-.029-7.858-.031-1.221.307-2.355.485-3.527.023-.151.182-.227.317-.294l6.822 2.174z" style="fill:#ce181f"/><path d="M154.671 154.106c-.165-.432-.274-.863.28-1.096.299-.126.188-.317.187-.542-.026-5.53-.057-11.061-.029-16.591.005-.961-.561-1.832-.289-2.829.078-.288-.092-.797-.671-.573-.185-.263-.057-.503.056-.743 1.077-2.288 2.243-4.534 3.248-6.857.174-.402.322-.867.836-1.004.292.205 1.336.07.355.863-.15.121-.442.607-.13 1.017.516.68.432 1.493.431 2.285-.005 4.606.001 9.211-.005 13.817-.002 1.423.448 2.817.252 4.255-.019.139.17.307.263.462a64.72 64.72 0 0 1-4.784 7.536z" style="fill:#ca181e"/><path d="M142.636 169.474c-1.801 2.197-3.815 4.188-5.903 6.108-.252-.232-.234-.528-.217-.834.277-5.246.041-10.496.103-15.742-.078-.467.21-.775.474-1.098 1.24-1.519 2.46-3.054 3.681-4.587.293-.367.52-1.025 1.233-.597.451.906.503 1.882.504 2.866.004 3.277.005 6.555 0 9.832-.004 1.351-.01 2.703.125 4.052z" style="fill:#bb151b"/><path d="m147.386 14.635 7.921 2.493c.209 3.577.156 7.155-.01 10.732-.021.451.067 1.03-.568 1.233-.777.131-1.462-.236-2.172-.429-1.402-.383-2.765-.901-4.166-1.292-.438-.122-.991-.181-1.082-.809-.071-3.569-.031-7.138-.041-10.707-.001-.41-.082-.83.118-1.221z" style="fill:#c6161d"/><path d="M142.636 169.474c-.474-.367-.475-.878-.474-1.416.01-4.289.004-8.578.007-12.867.001-.878-.105-1.733-.482-2.537-.037-.108-.081-.237-.025-.329 1.038-1.687 2.026-3.412 3.548-4.738.245-.101.452-.273.703-.363.405-.146.75-.066 1.002.283.271.375.337.795-.047 1.114-.288.239-.417.452-.396.848.218 4.184.076 8.372.074 12.559 0 .833.056 1.511.828 1.956-1.47 1.924-3.02 3.779-4.738 5.49z" style="fill:#c0151b"/><path d="M147.386 14.635c.279.403.222.863.222 1.313.001 2.979-.004 5.958.005 8.937.001.443-.076.889.163 1.325.308.563-.248.329-.444.425-.302.251-.632.154-.955.068a48.825 48.825 0 0 1-3.937-1.241c-.37-.133-.818-.233-.802-.785.319-1.227.185-2.48.185-3.721.001-2.113.062-4.227-.054-6.339-.031-.558-.07-1.143.397-1.589 1.781.407 3.493 1.03 5.22 1.607z" style="fill:#c1161b"/><path d="M142.167 13.03c0 3.485.002 6.97-.001 10.455-.001.514.122 1.086-.527 1.352a.519.519 0 0 1-.312-.001c-.44-.253-.93-.201-1.409-.227-1.196-.214-2.308-.709-3.476-1.018-.347-.092-.757-.227-.664-.755.491-.877.633-1.818.619-2.815-.037-2.511.015-5.023-.028-7.534-.008-.45-.069-.911.357-1.234l5.441 1.777z" style="fill:#bb141b"/><path d="M136.725 11.252c0 3.199.007 6.397-.004 9.596-.003.839-.061 1.675-.931 2.149-1.429.126-2.726-.155-3.775-1.216-.307-3.838-.225-7.677-.019-11.516a.624.624 0 0 1 .194-.397l4.535 1.384z" style="fill:#b51318"/><path d="M147.374 163.983c-.447-.512-.917.678-1.22.044-.177-.371.086-.934.087-1.411.01-4.15.006-8.301.005-12.451 0-.336.019-.665-.188-.978-.222-.336-.25-.696.309-.65.629.052.627-.311.486-.702-.141-.39-.422-.625-.88-.36-.286.165-.511.469-.899.414-.2-.313-.028-.58.13-.827.845-1.32 1.74-2.608 2.601-3.917.104-.159.247-.28.463-.235.269.046.633-.091.622.42-.011.485.073.972.074 1.458.006 4.792.005 9.585.002 14.377 0 .338.061.715-.063 1.007-.379.89.098.954.769.892-.666 1.051-1.459 2.003-2.298 2.919z" style="fill:#c3161c"/><path d="M123.575 186.605a30.902 30.902 0 0 1-3.631 2.527c-.42-.164-.523-.482-.485-.905.35-3.942.24-7.888.013-11.828-.033-.582.533-.819.397-1.332.2-.97 1.147-1.236 1.744-1.829.344-.341.741-.638 1.13-.933.35-.266.723-.449 1.072.022.361.691.091 1.414.096 2.119.024 3.472-.017 6.945.027 10.417.008.616-.018 1.208-.363 1.742z" style="fill:#a40d12"/><path d="M117.013 191.004c-1.087.75-2.142 1.555-3.417 1.982-1.024.044-1.24-.572-1.238-1.441.006-2.892.002-5.783.004-8.675 0-.716-.025-1.427-.209-2.122-.006-.036-.022-.078-.01-.11.34-.988 3.164-2.861 4.251-2.822.51.401.527.957.52 1.54-.042 3.134.008 6.269-.031 9.403-.01.756.199 1.491.13 2.245z" style="fill:#9a090c"/><path d="M154.568 28.912c.804-.525.45-1.385.487-2.058.157-2.879-.13-5.77.169-8.648.037-.36-.871-.801.084-1.078l4.311 1.36c.01 1.163-.543 2.232-.47 3.428.156 2.583-.154 5.179.169 7.762.041.33-.183.463-.426.585-1.606.078-3.074-.287-4.324-1.351z" style="fill:#cb171e"/><path d="M128.134 183.11c-.667.696-1.43 1.269-2.255 1.764-.317.056-.401-.157-.392-.392.144-4.074-.115-8.152.094-12.225.026-.505-.114-.962-.261-1.425-.072-.267-.05-.541.135-.737.978-1.038 1.816-2.261 3.341-2.598.637.76.748 1.701.758 2.617.035 3.233.015 6.466.01 9.699-.002 1.347-.55 2.373-1.43 3.297z" style="fill:#ac1014"/><path d="M117.013 191.004c-.358-.316-.481-.697-.476-1.187.036-3.637.024-7.274.078-10.911.007-.491-.273-.735-.478-1.068-.121-.145-.074-.287.047-.384 1.049-.844 2.106-1.678 3.247-2.397.133-.084.287-.061.429.008.104.086.431-.094.3.277-.658 1.855-.073 3.757-.182 5.637-.115 1.988-.026 3.99.056 5.983.016.393.06.814-.156 1.063-.388.449-.103.751.064 1.108-.931.692-1.878 1.364-2.929 1.871zM116.095 4.88c1.498.239 2.912.758 4.312 1.317a7.052 7.052 0 0 0-.194 1.959c.124 2.978.049 5.96.041 8.94-.001.334.12.774-.271 1.038-1.512.067-2.814-.662-4.186-1.12-.178-.059-.253-.266-.251-.47.385-3.423.251-6.852.087-10.277-.028-.569-.066-1.046.462-1.387z" style="fill:#9e0b0f"/><path d="M119.944 17.999c.002-3.06.005-6.119.004-9.179 0-.337.094-.735-.05-.999-.418-.764-.04-1.203.509-1.624 1.018.191 2.008.473 2.945.925.566.146.778.557.783 1.094.032 3.24.071 6.48-.023 9.719a2.12 2.12 0 0 1-.328 1.07c-.045.059-.085.14-.148.162-.848.299-3.089-.413-3.692-1.168z" style="fill:#a40d12"/><path d="M134.719 177.471c-.852.88-1.721 1.742-2.737 2.438-.528-.235-.46-.723-.483-1.164-.192-3.605-.047-7.213-.088-10.82-.011-1.011.117-2.02.028-3.03.19-1.119 1.786-2.848 2.775-3.008.559.354.582.898.586 1.488.033 4.371-.147 8.743.102 13.112.02.347-.009.677-.183.984z" style="fill:#b41218"/><path d="M134.719 177.471c-.338-1.589-.279-3.2-.255-4.807.048-3.21-.117-6.422.065-9.633.021-.379-.072-.872-.549-1.082.619-1.33 1.484-2.444 2.794-3.163.594.961.153 1.999.173 2.99.068 3.314-.117 6.639.069 9.944.075 1.338-.134 2.58-.284 3.862a10.893 10.893 0 0 1-2.013 1.889z" style="fill:#b71319"/><path d="M103.645.944c1.341.195 2.549.816 3.831 1.202-.517 3.533-.359 7.086-.299 10.635.006.371.135.744-.059 1.104-.269.29-.621.286-.93.159-.978-.401-2.141-.362-2.932-1.212-.253-.885-.194-1.792-.179-2.695.043-2.675-.098-5.352.084-8.025.029-.435-.054-.936.484-1.168z" style="fill:#8a0305"/><path d="M131.458 164.659c.357.144.529.405.495.792-.388 4.388-.267 8.779-.079 13.171.019.433-.216.881.109 1.287a28.07 28.07 0 0 1-3.849 3.201c.845-1.446 1.167-3.001 1.125-4.677-.056-2.22-.078-4.446.01-6.664.055-1.389-.218-2.71-.462-4.048-.01-.055-.193-.077-.296-.115a6.406 6.406 0 0 1 2.947-2.947z" style="fill:#b01116"/><path d="M103.645.944c-.375.425-.188.95-.192 1.411-.033 3.15.005 6.3-.034 9.45-.004.321.361.672-.022.982-1.259.303-2.274-.206-3.214-.964-.232-.378-.186-.798-.186-1.212l.005-10.754c1.265.194 2.458.627 3.643 1.087z" style="fill:#840203"/><path d="M116.095 4.88c-.516.623.007 1.245.004 1.867-.009 2.893-.006 5.786-.002 8.678.001.469-.077.896-.461 1.213-1.1.288-3.249-.454-3.642-1.258.307-.666.351-1.37.363-2.093.049-2.932-.156-5.868.143-8.796.027-.26.002-.531.193-.747 1.182.236 2.299.666 3.402 1.136z" style="fill:#99090c"/><path d="m110.64 194.758-3.164 1.637c-1.021-.677-.856-1.836-.923-2.768-.179-2.478-.097-4.973-.041-7.46.018-.808.606-1.553.326-2.413.743-1.115 1.748-1.71 3.123-1.575.484.225.411.658.399 1.068-.1 3.334.025 6.67-.073 10.003-.016.557.279.996.353 1.508z" style="fill:#900607"/><path d="m126.523 8.061 2.045.671c.665.329 1.013.841 1.017 1.606.018 3.488.002 6.976.019 10.465-.074.194-.233.34-.42.322-1.348-.127-2.671-.338-3.677-1.383.405-1.011.224-2.066.228-3.107.008-2.185-.009-4.37.009-6.555.006-.766.074-1.519.779-2.019z" style="fill:#ac1015"/><path d="M107.021 13.931c-.467-3.089-.15-6.198-.187-9.297-.007-.608.217-1.207.01-1.846-.155-.48.482-.36.631-.643 1.063.044 1.936.699 2.946.912-.26.844-.114 1.708-.117 2.564-.01 2.18.041 4.361-.024 6.539-.028.942-.002 1.961-.882 2.646-.885-.037-1.826.074-2.377-.875z" style="fill:#8f0607"/><path d="M107.006 183.665c.061.638.718 1.297-.132 1.914-.154.112-.072.568-.072.866-.004 2.286-.047 4.574.018 6.858.03 1.051.203 2.111.656 3.092-.946.537-1.896 1.068-2.939 1.403-.339-.129-.649.434-.925.124-.32-.36-.101-.778.136-1.136.152-.23.189-.474.164-.75-.268-2.962-.137-5.929-.074-8.893.012-.548-.125-1.035-.286-1.534.877-1.135 2.017-1.804 3.454-1.944z" style="fill:#8a0305"/><path d="M110.64 194.758c-.475-.249-.692-.603-.678-1.177.088-3.582-.129-7.168.128-10.747.028-.387-.144-.452-.421-.508.21-.949 1.344-1.756 2.525-1.797.654.426.487 1.109.491 1.707.021 2.925.019 5.85.003 8.775-.004.817-.153 1.664.908 1.976-.976.605-1.874 1.341-2.956 1.771z" style="fill:#94070b"/><path d="M129.451 21.007c-.421-2.274-.127-4.57-.2-6.855-.037-1.165-.053-2.334.01-3.497.042-.77-.141-1.398-.692-1.924l3.623 1.135c.245 1.265-.04 2.529-.016 3.796.052 2.729.013 5.46.012 8.189-1.091.298-1.984-.049-2.737-.844z" style="fill:#b11117"/><path d="M125.296 170.536c.848.615.607 1.452.575 2.318a92.915 92.915 0 0 0-.009 6.422c.048 1.48-.328 2.993.267 4.439.186.452-1 .594-.25 1.158-.689.682-1.485 1.223-2.304 1.732.086-4.52-.163-9.043.133-13.559.024-.362-.17-.648-.169-.984.297-.841.826-1.415 1.757-1.526z" style="fill:#a80f12"/><path d="M109.231 14.627c.656-.538.691-1.357.711-2.056.076-2.705.041-5.413.023-8.12-.004-.533-.49-1.185.457-1.393.799.092 1.533.398 2.272.688.456.804-.022 1.608-.012 2.413.033 2.664.017 5.329.008 7.993-.002.552.069 1.167-.683 1.353-1.112.3-2.024-.035-2.776-.878z" style="fill:#94070b"/><path d="M126.523 8.061c-.471.901-.468 1.872-.46 2.855.021 2.3-.056 4.604.042 6.9.033.762.143 1.43-.489 1.979-.828.241-1.567.202-2.046-.651.505-3.714.101-7.447.239-11.168.015-.406-.24-.605-.459-.854 1.104.162 2.124.599 3.173.939z" style="fill:#a90f13"/><path d="M103.601 185.526c.549.241.651.788.605 1.237-.287 2.749-.038 5.503-.125 8.252-.006.188-.049.401.019.562.26.615.433 1.169-.328 1.59-.109.06-.054.418-.076.655.379.069.451-.415.74-.413.379.003.079.253.101.389-.701.477-1.489.772-2.272 1.076a1.937 1.937 0 0 1-.566-1.424c.042-3.661.008-7.322.009-10.983.411-.756 1.011-1.132 1.893-.941z" style="fill:#870303"/><path d="M101.79 186.435c.736.099.121.518.136.744.228 3.502.095 7.01.075 10.516-.003.445.758.669.265 1.18-.738.343-1.429.804-2.26.919-.002-3.84-.004-7.679-.008-11.519 0-.377-.018-.755.191-1.094.354-.635.845-.974 1.601-.746z" style="fill:#830202"/><path d="m101.79 186.435-1.601.745c-1.642-.374-3.033-1.302-4.487-2.072-16.882-8.94-30.265-21.717-40.928-37.45-10.411-15.361-17.421-32.249-22.338-50.065-3.854-13.964-6.326-28.18-7.655-42.597a228.834 228.834 0 0 1-.931-18.197c-.01-.844.286-1.145 1.049-1.384 24.624-7.742 49.241-15.508 73.86-23.265.464-.146.95-.22 1.425-.327 1.062.352 2.101.778 3.213.964 1.169.507 2.383.867 3.624 1.145a7.568 7.568 0 0 0 2.21.696c.885.422 1.82.683 2.776.879a20.3 20.3 0 0 0 3.629 1.133c1.395.583 2.837 1.017 4.307 1.36 1.174.492 2.381.883 3.628 1.145.645.335 1.332.534 2.046.651 1.249.496 2.522.915 3.834 1.211.894.341 1.767.749 2.737.845 1.16.51 2.37.863 3.603 1.144 1.408.546 2.84 1.019 4.314 1.356.446.19.974.121 1.381.435.036.063.086.08.152.049a53.484 53.484 0 0 0 5.693 1.799 88.077 88.077 0 0 0 7.237 2.276c1.412.545 2.843 1.028 4.324 1.352a96.69 96.69 0 0 0 7.918 2.503c2.753.892 5.497 1.815 8.267 2.655.748.227.982.543.977 1.325-.06 9.518-.817 18.982-2.052 28.415-1.422 10.853-3.538 21.564-6.423 32.124-.039.143-.036.298-.052.448l-3.998 12.763c-1.138 2.967-2.266 5.938-3.418 8.9-.584 1.501-1.212 2.984-1.82 4.476l-4.14 8.604c-1.869 3.53-3.802 7.023-5.881 10.433l-3.195 4.979-3.388 4.766-4.912 6.133-2.794 3.163-2.522 2.709a31.417 31.417 0 0 0-2.948 2.947c-1.181.857-2.16 1.935-3.214 2.93-.684.395-1.186 1-1.757 1.526l-3.678 3.002-3.723 2.773-3.944 2.69c-.878.548-1.945.831-2.525 1.797-1.069.085-1.809.825-2.663 1.339l-3.406 1.861a6.37 6.37 0 0 0-1.811.911z" style="fill:#fefefe"/><path d="M141.486 24.788a2.994 2.994 0 0 1-1.381-.435c.497.029 1.071-.187 1.381.435z" style="fill:#c1161b"/><path d="M110.688 193.685c-.068.117-.11.276-.212.343-.109.071-.224-.041-.191-.169.035-.136.096-.307.202-.373.168-.107.121.096.201.199z" style="fill:#900607"/><path d="M126.534 140.854c2.191 4.038 4.367 8.084 6.588 12.106.324.587-.057.834-.325 1.154-7.951 9.488-17.135 17.532-27.871 23.751-1.304.755-2.665 1.418-3.936 2.224-.802.508-1.418.324-2.17-.073-14.201-7.507-25.888-17.919-35.499-30.72-10.604-14.124-17.916-29.892-23.159-46.676-4.012-12.844-6.739-25.967-8.436-39.312a241.171 241.171 0 0 1-1.79-22.105c-.028-.813.187-1.169.99-1.421a41538.102 41538.102 0 0 0 68.018-21.407c.719-.227 1.348-.215 2.067.012a28318.814 28318.814 0 0 0 67.802 21.345c1.007.315 1.226.723 1.185 1.712-1.1 26.624-5.87 52.486-16.073 77.208-4.391 10.64-9.922 20.659-16.784 29.922-.22.297-.367.669-.809.836l-7.361-13.731c.496-1.856 1.44-3.533 2.128-5.312 1.071-2.771 1.959-5.606 2.86-8.435.27-.847-.03-1.171-.934-1.166-1.809.01-3.619.014-5.428-.003-.405-.004-.892.057-1.117-.373-.252-.48.101-.861.378-1.213.371-.473.792-.904 1.221-1.392.089-.027-.066-.009-.078.002-.475.443-.616.067-.751-.32-.027-.295.074-.56.197-.818.216-.422.492-.809.738-1.215.392-.52.674-1.11 1.035-1.649.176-.294.334-.599.53-.881.196-.276.336-.584.482-.888.207-.388.404-.781.594-1.178.159-.308.318-.616.463-.931.179-.36.36-.719.51-1.092.239-.678.6-1.306.83-1.987.107-.29.198-.585.305-.875.147-.33.294-.659.334-1.024.05-.546.363-1.012.456-1.544.113-.423.218-.849.311-1.277.106-.376.146-.765.227-1.145 1.119-6.594-1.318-11.817-6.268-16.011-3.144-2.665-6.794-4.457-10.664-5.823-.565-.199-1.178-.29-1.654-.701-.267-.506.19-.664.442-.922.315-.25.656-.47.928-.773.321-.401.798-.584 1.205-.864.451-.293.912-.571 1.312-.937.305-.254.681-.391 1-.623.382-.225.746-.481 1.137-.693.391-.21.754-.464 1.119-.715.496-.346 1.068-.558 1.566-.901.39-.256.809-.459 1.217-.682.342-.168.68-.345 1.011-.535 7.84-4.041 16.13-6.79 24.74-8.622.845-.18 1.721-.153 2.533-.39-.331-.073-.559.19-.851.193-7.67.686-15.251 1.857-22.658 4.018a85.614 85.614 0 0 0-7.275 2.469c-.322.128-.659.216-.988.323-.578.138-1.075.473-1.626.676-.498.147-.951.4-1.419.616-.435.148-.86.319-1.265.536-.553.26-1.098.537-1.64.819-.365.172-.725.353-1.085.535-.455.209-.895.45-1.345.67-.316.149-.626.309-.937.468-.503.223-.93.579-1.419.827-.46.204-.872.491-1.3.752-.51.253-.965.597-1.459.879-.683.366-1.253.926-2.012 1.16-1.126.172-2.259.077-3.389.085-10.479.08-20.188 2.749-28.952 8.597-.362.24-.715.496-1.071.746-.319.251-.655.479-.978.726a9.557 9.557 0 0 1-1.067.847c-.273.201-.506.446-.742.688-.244.237-.482.48-.716.728-.426.425-.852.849-1.27 1.281-.285.266-.471.611-.716.909-.266.272-.511.56-.704.891-.24.303-.495.596-.683.938-.481.646-.879 1.345-1.29 2.035-.292.425-.499.894-.692 1.37-.282.763-.69 1.475-.901 2.267a17.133 17.133 0 0 0-.88 3.4c-.719 4.229-.268 8.353 1.102 12.394.39 1.482 1.023 2.872 1.637 4.27.16.366.433.713.265 1.157-.67.243-1.249.656-1.964.864-.815.237-.334 1.04-.2 1.563.541 2.109 1.22 4.176 1.968 6.224.45 1.232.775 2.509 1.413 3.668.121.24.2.496.303.743.224.463.271 1.005.64 1.403.328.724.793 1.383 1.005 2.16.031.311.16.581.351.825a114.988 114.988 0 0 0 4.823 8.532c.067.08.125.166.178.255.224.517.543.969.949 1.36 2.323 3.565 5.039 6.814 7.931 9.923.309.332.648.625 1.032.867 4.018 3.784 8.362 7.119 13.188 9.833 1.054.593 1.824.518 2.802-.037 4.743-2.696 9.082-5.918 12.971-9.744.215-.212.441-.411.69-.583 1.958-1.832 3.667-3.885 5.337-5.975.754-.944 1.452-1.927 2.156-2.906.218-.289.473-.55.648-.872.052-.092.112-.179.173-.265 1.356-1.806 2.423-3.79 3.535-5.746.277-.479.469-1.039 1.045-1.279z" style="fill:#1f3f79"/><path d="M68.485 136.794c-.131-.824-.867-1.406-.907-2.267-.303-.415-.255-1.006-.68-1.36-.266-.163-.219-.431-.227-.68-.305-.92-.597-1.845-.941-2.75-.406-1.067-.425-1.04.72-1.406a5.273 5.273 0 0 1 1.548-.243c3.303-.052 6.608.116 9.909-.104.151-.01.298.03.441.075.175.075.25.222.281.398-.222.519-.179.968.352 1.283.143.208.224.445.313.678.114.376.259.74.415 1.099.031.093.047.189.055.287.006.271-.031.556.231.749.078.05.149.107.217.169.194.203.322.449.456.691.145.29.282.585.449.864.223.431.595.743.894 1.113.216.273.452.53.67.8.218.272.484.488.776.674.2.141.375.31.553.476.206.203.451.353.696.501.399.292.835.52 1.285.722.091.038.179.084.265.131.338.205.709.326 1.085.437.242.081.486.151.732.221.673.208 1.363.32 2.063.391.115.016.226.044.336.079 3.749.363 7.308-.492 10.823-1.657 2.289-.759 4.417-1.886 6.612-2.858 1.777-.936 3.468-2.012 5.114-3.159.741-.464 1.415-1.019 2.076-1.588.619-.359 1.061-.921 1.58-1.394.416-.421 1.204-.569 1.033-1.417-.108-.349-.332-.652-.393-1.019a.722.722 0 0 1 .075-.326c.702-.469 1.201-.13 1.648.414 2.616 4.615 5.131 9.285 7.492 14.036-1.362 2.268-2.489 4.676-4.084 6.804-.131.174-.306.315-.46.472-14.958-.229-29.917-.035-44.876-.105-1.798-.008-2.037-.262-2.041-2.016-.001-.205.156-.483-.147-.583-.283-.093-.51.045-.653.31-.107.198-.175.42-.346.58-.399-.185-.603-.535-.797-.907-1.114-2.137-2.483-4.132-3.509-6.319-.249-.531-.749-.952-.682-1.616-.226-.176-.264-.478-.452-.68z" style="fill:#223c76"/><path d="m116.067 112.091-1.814-2.951c-.288-.213-.469-.51-.646-.811-.229-.438-.442-.884-.687-1.313-.194-.345-.501-.618-.651-.992a8.632 8.632 0 0 0-.479-1.077c-.179-.409-.449-.763-.675-1.144-.206-.396-.401-.799-.612-1.193-.152-.313-.298-.628-.476-.927-.293-.527-.766-.944-.945-1.541a5.087 5.087 0 0 0-.642-1.337c-.277-.423-.5-.874-.727-1.324-.181-.417-.454-.779-.686-1.166-.22-.455-.548-.852-.726-1.329-.131-.439-.513-.732-.676-1.153-.185-.359-.257-.779-.573-1.079-.315.2-.397.547-.584.817-.344.561-.67 1.133-1.066 1.659-.2.265-.412.528-.232.891.216.448.345.935.634 1.348.249.382.448.79.663 1.19.216.452.434.903.671 1.344.243.541.531 1.058.842 1.563.037.093.056.19.059.289-.036.199.017.359.21.457.34.301.484.724.7 1.101.149.31.297.62.46.923.177.363.351.727.559 1.074.207.387.553.714.515 1.207a.776.776 0 0 1-.194.312c-.406.353-.922.35-1.392.329-2.81-.124-5.621-.016-8.431-.074-.728-.015-1.352-.193-1.467-1.064-.031-.434-.011-.858.288-1.214.113-.294.63.028.544-.181-.263-.643.98-1.081.182-1.727a1.132 1.132 0 0 1 .006-.632c.149-.389.324-.767.452-1.165.174-.37.325-.75.458-1.137.209-.461.518-.872.678-1.358.15-.322.295-.646.403-.985.212-.524.471-1.025.733-1.525.26-.369.501-.749.685-1.163.215-.397.408-.806.663-1.18.256-.368.437-.781.689-1.152.269-.36.357-.821.646-1.169.356-.422.577-.94.944-1.354.431-.59.826-1.203 1.201-1.831.429-.617.82-1.287 1.729-1.225 7.997 2.156 14.715 7.741 15.85 17.598.086.747.309 1.477.27 2.238.007.114.007.228.008.342-.01.347.113.672.171 1.009.047.293.061.588.058.884.014.476-.001.951.002 1.427.006.345-.017.689-.022 1.034a3.683 3.683 0 0 1-.073.67 1.575 1.575 0 0 1-.111.32c-.117.193-.208.418-.49.414a.455.455 0 0 1-.239-.23c-.31-1.925-.475-3.879-1.162-5.729-.141-.379-.29-.752-.417-1.104-.54 2.385-.936 4.794-2.137 6.963-1.31.449-1.564.352-2.042-.778-.009-.021-.033-.041-.096.035-.346.42-.566.108-.803-.124z" style="fill:#1f3f7a"/><path d="M97.259 105.918c-.018.65.264.941.948.96 2.863.077 5.727-.166 8.594.101.456.042 1.147.081 1.615-.346.33-.047.425.222.573.422.233.437.419.899.705 1.307.249.373.445.776.654 1.172.204.301.191.665.288.997 1.733 3.327 3.488 6.643 5.192 9.985 1.072 2.101 2.347 4.099 3.214 6.304-.527-.101-.987-.722-1.595-.207-.635-.077-.544-.753-.887-1.071-.829-1.398-1.495-2.881-2.22-4.333-.294-.588-.581-.669-1.125-.272-3.517 2.569-7.392 3.211-11.697 2.057.916 1.532 2.341 2.284 3.76 3.041.422.225.958.292 1.132.848-.096.356-.387.386-.681.414-.579-.029-1.101-.277-1.646-.435-.555-.202-1.118-.385-1.635-.679-.309-.178-.593-.395-.909-.562-.545-.263-.946-.72-1.434-1.061a4.89 4.89 0 0 1-.686-.566c-.35-.342-.586-.775-.908-1.139-.234-.305-.437-.632-.661-.944-.104-.167-.192-.342-.283-.517l-.294-.552a5.034 5.034 0 0 1-.343-.799c-1.672-4.393-1.33-8.831-.294-13.281.082-.351.148-.764.623-.844z" style="fill:#203e7a"/><path d="M116.067 112.091c.745.521.749-.445 1.174-.628-.18 1.217.046 1.436 1.516 1.525-.241 1.763.796 3.098 1.542 4.52.33.629.694 1.242 1.005 1.882.264.57.542 1.133.842 1.685.926 1.591.924 1.59 2.051.102.202-.267.38-.55.588-.813.565-.723 1.137-1.442 1.605-2.237.309-.329.427-.887 1.028-.871.024.227.087.602.276.549.595-.166.408.116.298.405-.224.591-.787.906-1.129 1.398-.363.523-.399.882.437.87 1.961-.027 3.922.012 5.883-.019 1.032-.016 1.497.402 1.129 1.383-.743 1.981-1.149 4.063-1.965 6.022-.81 1.944-1.453 3.958-2.239 5.914-.272.677-.751 1.271-1.135 1.902-2.912-5.277-5.834-10.548-8.733-15.832-1.413-2.573-2.783-5.171-4.173-7.757z" style="fill:#213e78"/><path d="M110.636 110.529c-.275-.231-.397-.544-.465-.884.911-1.245 2.226-1.455 3.637-1.416.202.277.461.527.445.911-1.157.59-2.559.542-3.617 1.389z" style="fill:#f7f7fa"/><path d="M123.16 107.089c-.46-4.22-1.261-8.327-3.857-11.854-3.036-4.125-7.267-6.419-12.037-7.898-2.119-.147-4.182-.697-6.297-.872-.48-.168-.979-.15-1.477-.144-.386.004-.771-.007-1.156.026-1.049 0-2.097.011-3.144-.009-6.69.729-13.114 2.364-19.061 5.616-.429.235-.84.511-1.347.554-.15-.013-.363-.022-.39-.163-.387-2.044-.79-4.087-.774-6.18.002-.298.137-.581.309-.833 4.641-3.425 9.875-5.559 15.4-7.046 5.724-1.54 11.554-2.089 17.468-1.801 1.211-.356 2.376.035 3.554.218 1.061.264 2.147.422 3.206.699.697.322 1.546.276 2.133.869 4.607 1.439 8.944 3.413 12.646 6.576 3.728 3.185 6.169 7.083 6.481 12.11.084 1.36.003 2.704-.326 4.029-.644.687-1.554.741-2.38.93-2.02.464-4.02 1.014-6.05 1.43-.698.143-.974.645-1.298 1.149-.319.514-.518 1.078-.683 1.656-.242.376-.105 1.126-.92.938z" style="fill:#fefefe"/><path d="M73.926 146.316c-.073-.429-.358-.924.141-1.234.43-.267.957-.147 1.437-.077.203.03.319.083.129.427-.822 1.489-.345 2.244 1.324 2.244 14.199 0 28.397-.001 42.596.004.743 0 1.487.039 2.228.093.077.006.139.233.208.357-.213.312-.476.588-.68.907-.738 1.536-1.916 2.755-2.951 4.074a45.701 45.701 0 0 1-4.531 4.994c-.95-.262-1.921-.181-2.884-.143-.407.016-.77.096-.874.656-.193 1.034-.835 1.171-1.772.433.313-1.339.196-2.699.224-4.053.017-.816-.392-1.226-1.128-1.467a15.3 15.3 0 0 0-3.884-.714c-2.748-.157-5.502-.163-8.219.416-.111.024-.224.037-.331.073-.38.128-.958.105-1.006.574-.052.512.536.557.903.683 1.254.431 2.554.65 3.878.724.413.023.832-.008 1.223.176.23.165.405.351.252.662-.284.233-.626.242-.967.25-1.264-.023-2.53.065-3.793-.053-.354-.082-.702-.192-1.058-.264-1.364-.471-1.341-.469-1.365.956-.01.594.256 1.192-.018 1.782-1.786-1.286-3.838-.782-5.799-.834-.725-.019-1.539-.289-2.06.657-.269.489-.809-.222-1.247-.061-1.261-.311-1.72-1.533-2.488-2.345-2.474-2.615-4.755-5.409-6.58-8.538-.29-.461-.529-.957-.908-1.359z" style="fill:#243972"/><path d="M46.088 46.539c-.016-.339-.053-.678-.044-1.016.054-2.004.942-2.943 2.95-2.875 3.43.116 6.863.25 10.281.537 4.433.373 8.863.849 13.22 1.791 2.946.637 5.738 1.643 7.834 3.971 1.068 1.186 1.769 2.625 2.578 3.98 4.345 7.285 8.539 14.657 12.684 22.058.464.828.392 1.143-.586 1.083-.037-.002-.075.005-.113.008-.962.086-2.074.725-2.83.223-.733-.487-1.051-1.606-1.54-2.453-3.074-5.321-6.107-10.666-9.491-15.8-.749-1.136-1.545-2.233-2.562-3.151-.634-.901-1.143-1.89-1.898-2.705a18.183 18.183 0 0 0-.727-.743c-.329-.354-.678-.685-1.101-.929-.448-.383-.875-.792-1.394-1.083-.567-.415-1.19-.74-1.785-1.108-.331-.242-.719-.355-1.098-.491-.483-.223-.952-.479-1.473-.61-.933-.331-1.851-.709-2.839-.858-2.152-.594-4.365-.873-6.573-.986-3.721-.19-7.452-.073-11.178-.049-.701.005-1.188.412-1.623.905-.182.215-.386.376-.692.301zm73.46 9.766c-.897-2.253-.141-4.284 2.023-5.436a8.551 8.551 0 0 1 2.78-.908c.953-.141 1.915-.225 3.088-.358-2.064-1.508-4.369-1.797-6.59-2.376 5.003-2.549 9.848-1.781 14.649.69-.506-1.408-1.487-2.199-4.755-3.885 2.77-.855 6.433.54 10.619 4.046.13-.934.079-1.07-1.127-2.809 1.479.567 2.549 1.255 3.393 2.272 1.973 2.38 2.105 5.154 1.629 8.031-.14.844-.265 1.707-.695 2.475-.008.015-.063.019-.085.008-.032-.016-.054-.051-.081-.078-.394-.887-.241-1.887-.581-2.783-.153-.514-.336-1.017-.625-1.474-.224-.395-.458-.784-.782-1.11a4.63 4.63 0 0 0-1.672-1.333c-2.477-1.376-4.962-1.189-7.453-.049-.743.295-1.385.772-2.078 1.157-.565.347-1.119.711-1.632 1.134-.547.388-1.111.751-1.655 1.145-.715.48-1.484.861-2.248 1.255-.576.297-1.178.524-1.799.708-1.465.213-2.948.662-4.323-.322z" style="fill:#fefefe"/><path d="M108.425 159.246c.33-.232.718.139 1.092-.14.175-.131.541.011.296-.41-.166-.286-.186-.493.148-.736.674-.491 3.169-.436 3.866.144-2.525 2.359-5.091 4.669-7.917 6.671a63.956 63.956 0 0 1-6.593 4.111c-.558.301-1.019.316-1.576.003-4.102-2.307-7.996-4.902-11.49-8.077-.805-.731-1.714-1.348-2.35-2.254-.115-.271-.354-.63.058-.765.493-.162.081.375.298.523.198.134.375.254.609.22.321-.047.26-.192.181-.465-.136-.47.303-.41.563-.412 1.96-.013 3.919.014 5.879-.016.833-.013.923.799 1.424 1.143.491.031.711.505 1.116.676.262.139.548.214.828.304.429.153.86.301 1.317.346.312.04.607.165.924.178.162.007.323.019.485.031.445.019.863.218 1.315.194.173-.003.345.005.518.006.417-.003.834-.01 1.251-.006.244-.013.488-.005.731-.003 2.068-.129 4.109-.399 6.067-1.124.307-.111.605-.339.96-.142z" style="fill:#25376d"/><path d="M78.405 128.179c-3.089.465-6.197.172-9.296.2a12.17 12.17 0 0 0-3.583.553c1.031.649.54 1.982 1.308 2.822.186.204-.064.493-.162.732-.819-.472-.846-1.419-1.079-2.138-.922-2.848-2.052-5.634-2.69-8.572-.178-.818-.072-1.332.928-1.32.35.004 1.04.333.851-.598-.02-.101.504.192.801.16.248-.047.383-.307.641-.339 2.43.813 4.937.317 7.407.437 1.017.049 2.038.003 3.058.019.894.014 1.295.441 1.285 1.338-.008.676-.078 1.361.112 2.027.111.806.279 1.605.339 2.418-.023.35.109.678.159 1.017.035.329.127.653.109.988a.387.387 0 0 1-.188.256z" style="fill:#203d77"/><path d="M154.383 61.945c-9.415 1.639-18.436 4.485-26.986 8.782-.266.134-.55.23-.826.344-1.17-.081-1.922-.918-2.667-1.64-.359-.348-1.28-.311-1.044-1.19 5.172-2.143 10.557-3.569 16.03-4.664 4.739-.949 9.521-1.613 14.355-1.858.398-.017.858-.347 1.138.226zm-13.087 15.743c-.129 2.291-1.187 3.249-3.461 3.136-3.818-.19-5.369-3.02-3.499-6.36.546-.976 1.317-1.739 2.201-2.388a30.5 30.5 0 0 1 5.628-3.297c.085-.085.175-.091.27-.017-.217 1.129-1.303 1.557-1.911 2.371-.322.306-.642.615-.944.942-.279.277-.466.623-.706.929a8.72 8.72 0 0 0-.834 1.23c-.093.175-.183.352-.272.53a4.687 4.687 0 0 0-.421 1.116 2.18 2.18 0 0 0-.055.776c.156.598.654.366 1.022.409.986.115 2.014-.216 2.966.279a.287.287 0 0 1 .016.344z" style="fill:#fefefe"/><path d="M74.85 50.411c.558.077.833.5 1.117.913.272.789-.385.669-.757.707-1.089.112-2.171-.14-3.261-.144-.178-.001-.369-.11-.521.071-3.057-.533-6.143-.608-9.238-.703-3.626-.111-7.242.044-10.862.098-1.058.016-2.115-.04-3.019-.711.21-.676.793-.434 1.229-.462 3.204-.21 6.412-.097 9.619-.112 4.227-.02 8.454-.006 12.681-.002 1.008-.001 2.023.096 3.012.345z" style="fill:#dddde9"/><path d="m46.088 46.539.39-.209c.405-.344.898-.353 1.389-.353 5.302 0 10.603-.009 15.905-.003.897.001 1.77.297 2.669.154.956.152 1.846.507 2.725.893.169.6.093.741-.646.726-1.36-.027-2.717.055-4.076.056-5.1.003-10.2.005-15.3-.003-.96-.001-1.967.329-2.854-.331-.154-.29-.265-.591-.202-.93z" style="fill:#c7c8db"/><path d="M74.85 50.411c-1.166.585-2.332-.037-3.501-.025-6.559.064-13.118.002-19.677.059-1.114.01-2.259-.123-3.364.197-.479-.128-.779-.465-1.015-.874.464-.659 1.179-.614 1.847-.616 7.059-.019 14.118-.021 21.177.001 1.052.003 2.113-.101 3.158.127.564.249 1.048.594 1.375 1.131z" style="fill:#d8d7e5"/><path d="M73.475 49.28c-.372.395-.856.221-1.288.222-7.592.011-15.185.012-22.777.001-.723-.001-1.428.046-2.117.266-.224-.176-.388-.388-.406-.686.118-.537.479-.665.992-.707 1.089-.089 2.176-.095 3.265-.09 6.508.028 13.017-.064 19.525.051.348.006.671-.06.989-.184.652.301 1.294.618 1.817 1.127z" style="fill:#d4d3e2"/><path d="M65.806 120.008c-.101.222-.209.206-.322.009-.678-1.731-1.642-3.35-2.04-5.192-.451-3.006-.628-6.042-.98-9.059-.143-1.221-.2-2.457-.112-3.691-.006-1.213.394-2.317.908-3.39.863 1.086.712 2.39.807 3.65.129 1.715-.026 3.477.77 5.094.17.691.127 1.366-.154 2.021-.327 1.075-.265 2.155-.043 3.237.214.525.311 1.071.312 1.636.095 1.704.64 3.318.994 4.97.053.259-.039.488-.14.715z" style="fill:#abacc8"/><path d="M46.291 47.47c6.33 0 12.661.013 18.991-.013 1.142-.005 2.282-.137 3.426.005.287.036.674.087.458-.441.522.084.975.31 1.376.649-.068.873-.745.693-1.267.696-3.132.017-6.264-.005-9.396.011-3.924.02-7.847-.055-11.771.032-.571.013-1.235.111-1.669-.472a49.86 49.86 0 0 0-.148-.467z" style="fill:#cbccde"/><path d="M127.88 54.49c.408-.547 1.024-.805 1.587-1.137 1.719.309 3.449.116 5.174.109 2.891-.012 5.782-.052 8.67.114.523.312.519.881.67 1.374-.554.737-1.318.448-2.03.415-2.757-1.772-5.582-1.119-8.412-.234-1.554.272-3.121.082-4.681.105-.421.008-1.16.157-.978-.746z" style="fill:#dbdbe8"/><path d="m123.388 110.713-.026-1.576c3.108-.985 6.308-1.584 9.488-2.267a6.376 6.376 0 0 1-.88 2.041c-.142.127-.294.25-.484.283-2.706.468-5.33 1.38-8.098 1.519z" style="fill:#d6d5e3"/><path d="m123.806 105.962.678-1.587c.869-.665 1.963-.74 2.955-1.025 1.571-.451 3.214-.593 4.761-1.233.569-.236 1.38-.176 2.074 0 .02.476-.102.92-.295 1.349-.749.757-1.806.793-2.723.958-2.34.422-4.602 1.14-6.92 1.627-.192.041-.371.05-.53-.089z" style="fill:#f1f1f6"/><path d="M119.548 56.305c1.494.421 2.988.269 4.482.007 1.348.261 2.703.052 4.055.064.462.004 1.016-.11 1.15.577-2.31 1.144-4.714 1.758-7.298 1.202-1.073-.232-1.943-.781-2.389-1.85z" style="fill:#ebecf2"/><path d="M46.44 47.938c.697.167 1.403.216 2.12.216 6.865-.007 13.73-.002 20.595-.009.506 0 1.09.165 1.387-.473.431.023.825.133 1.116.481-.062.605-.453.788-.955.611-.631-.222-1.264-.156-1.898-.157-6.434-.007-12.868-.026-19.302.022-.867.007-1.848-.271-2.616.453a1.963 1.963 0 0 1-.447-1.144z" style="fill:#cfd0e1"/><path d="M123.806 105.962a59.161 59.161 0 0 1 7.169-1.758c1.013-.179 2.003-.489 3.004-.739l-.47 1.578c-2.766.757-5.577 1.316-8.378 1.919-.466.1-.971.03-1.333.486-.178.225-.474.235-.62-.122l-.02-.237c.596-.158.488-.719.648-1.127z" style="fill:#e9e9f1"/><path d="M123.179 107.327c.91-.245 1.749-.668 2.7-.842 2.311-.424 4.598-.981 6.887-1.516.286-.067.506-.061.743.076l-.328.941c-.453.506-1.072.654-1.696.806-2.442.595-4.958.871-7.349 1.688-.334.114-.582-.038-.815-.249-.165-.284-.191-.588-.142-.904z" style="fill:#e2e2ec"/><path d="M64.648 107.322c-.772-.457-.731-1.384-.73-1.983.003-1.371-.32-2.72-.192-4.088.084-.899-.38-1.698-.466-2.566.135-.818.48-1.549.92-2.241.442.274.502.737.534 1.182.108 1.497.388 2.977.455 4.477.029.651.166 1.261.502 1.822-.151 1.19-.209 2.408-1.023 3.397z" style="fill:#b2b3cd"/><path d="M62.351 102.076c.378 1.93.291 3.914.6 5.834.2 1.245.271 2.498.394 3.738.103 1.041.393 2.112.099 3.178-1.509-4.152-2.023-8.389-1.093-12.75z" style="fill:#a5a6c4"/><path d="M123.323 108.229c.947.235 1.793-.34 2.605-.562 2.401-.656 4.922-.775 7.255-1.683l-.331.885c-1.21.668-2.569.78-3.885 1.07-1.625.358-3.233.798-4.847 1.21-.258.066-.507.143-.757-.012l-.04-.908z" style="fill:#dcdce8"/><path d="M134.274 102.116c-1.613.151-3.164.657-4.721 1.028-1.687.402-3.383.802-5.069 1.231.623-1.761 2.349-1.385 3.623-1.782 2.091-.651 4.251-1.084 6.381-1.609-.003.391.04.79-.214 1.132z" style="fill:#f8f7fa"/><path d="M68.265 90.336c.371-.544.804-1.03 1.339-1.42.676.78.322 1.735.384 2.598.112 1.557.529 3.107.224 4.686-.175.594-.445 1.068-1.191.935-.428-.264-.607-.678-.58-1.149.092-1.618.022-3.219-.369-4.799-.075-.302.002-.596.193-.851z" style="fill:#d5d4e3"/><path d="m112.699 72.923.912-.483c.534.008.846.431 1.254.674 1.019.608 1.883 1.439 2.93 2.014.331.182.746.416.586.949l-1.222.845c-1.709-.779-3.214-1.838-4.422-3.287-.165-.197-.27-.463-.038-.712z" style="fill:#cacadd"/><path d="M131.023 110.946c-.157.41-.309.821-.627 1.143-2.177.768-4.397 1.401-6.7 1.57-.91.067-.377-.709-.363-1.144l-.002.01c1.63-.576 3.16-1.45 4.922-1.628.926-.094 1.859-.624 2.77.049z" style="fill:#c7c8db"/><path d="M115.688 78.271c-.723-.118-1.444-.247-2.092-.618-1.142-.832-2.252-1.709-3.469-2.432-.325-.193-.389-.429-.15-.732.412-.317.834-.618 1.343-.765 1.646 1.32 3.421 2.476 4.991 3.893l-.623.654z" style="fill:#bebfd5"/><path d="M124.513 72.191c-.436.462-1.076.57-1.578.916-.301.138-.475-.107-.694-.226-.985-.535-1.711-1.428-2.72-1.942-.392-.199-.709-.568-.516-1.106.438-.266.875-.532 1.405-.573 1.72.485 2.936 1.674 4.103 2.931z" style="fill:#ebebf2"/><path d="M64.867 95.096c.332-.776.747-1.5 1.321-2.125.245.176.276.435.254.702-.159 1.941.394 3.851.238 5.794-.033.406.232.784.324 1.185-.025.746-.296 1.368-.923 1.806-.549.101-.559-.253-.645-.662-.257-1.219-.251-2.456-.321-3.685-.056-1.009-.372-1.994-.248-3.015z" style="fill:#bdbfd5"/><path d="M116.31 77.617c-1.866-1.038-3.605-2.24-4.991-3.893.403-.366.881-.601 1.38-.801.324 1.027 1.141 1.669 1.97 2.19.877.551 1.644 1.229 2.49 1.809-.18.357-.513.528-.849.695z" style="fill:#c4c5d9"/><path d="M123.388 110.713c.566-.783 1.529-.483 2.218-.581 1.893-.269 3.684-.968 5.58-1.16.261-.026.523-.041.785-.061-.026.437-.292.769-.494 1.129-2.704.606-5.371 1.379-8.114 1.812l.025-1.139z" style="fill:#cfd0e0"/><path d="M119.005 69.834c.474 1.263 1.919 1.409 2.714 2.338.297.347.783.655 1.215.936-.315.326-.701.535-1.124.685-.534.149-.977-.174-1.328-.43-.864-.63-1.751-1.231-2.601-1.88-.343-.262-.528-.636-.198-1.064l1.322-.585z" style="fill:#e2e2ec"/><path d="M72.117 86.702c.238-.314.54-.544.899-.702.462.357.616.933.601 1.409-.059 1.877.476 3.715.308 5.593-.208.523-.538.859-1.155.75-.347-.388-.461-.893-.482-1.365-.079-1.727-.442-3.433-.38-5.169a.897.897 0 0 1 .209-.516z" style="fill:#f1f1f6"/><path d="M128.411 115.498a2.88 2.88 0 0 1-.732 1.127c-1.259.977-2.843 1.064-4.291 1.497-.447.134-.93.498-1.472.269-.137-.82.142-1.498.706-2.081 1.254-.225 2.458-.652 3.703-.915.708-.151 1.404-.192 2.086.103z" style="fill:#b3b5ce"/><path d="M64.867 95.096c.503 1.681.601 3.386.595 5.141-.002.618-.045 1.555.611 2.124.213.662.087 1.202-.558 1.557-.427-.237-.536-.566-.585-1.081-.203-2.135-.318-4.284-.75-6.393.1-.514.354-.951.687-1.348z" style="fill:#b8b9d1"/><path d="M118.381 76.077c-.745-1.111-2.088-1.44-3.03-2.311-.526-.486-1.217-.805-1.74-1.326l1.353-.702c.913.453 1.77 1.038 2.502 1.706.695.635 1.68.852 2.208 1.673-.326.463-.82.698-1.293.96z" style="fill:#d1d1e1"/><path d="M119.673 75.117c-1.766-.853-3.317-2.006-4.709-3.379a2.754 2.754 0 0 1 1.097-.541c1.82.72 3.426 1.74 4.652 3.298-.235.394-.725.361-1.04.622z" style="fill:#d7d6e4"/><path d="M121.999 118.431c1.249-.809 2.745-.874 4.115-1.315.511-.164.952-.646 1.564-.492l-.261.632-.819.969c-.48.687-1.28.669-1.97.883-.628.195-1.292.197-1.881.618-.426.305-.918.017-1.272-.366-.058-.441.09-.766.524-.929z" style="fill:#adafca"/><path d="M70.3 88.28c.149-.303.396-.5.696-.638.433.156.493.548.545.918.276 1.942.522 3.888.518 5.857-.152.455-.4.791-.943.758a.689.689 0 0 1-.443-.483c-.47-2.117-.75-4.246-.373-6.412z" style="fill:#e2e2ec"/><path d="M71.92 94.497c-.2-1.815-.398-3.629-.599-5.444-.054-.483-.083-.972-.324-1.413.316-.382.674-.713 1.121-.939.226 2.354.267 4.727.69 7.062-.029.57-.322.817-.888.734z" style="fill:#e9e9f0"/><path d="M66.869 92.054c.119-.363.354-.636.663-.851.347-.106.371.167.393.372.157 1.441.363 2.885.329 4.331-.019.808.073 1.557.333 2.305-.12.67-.463 1.173-1.092 1.464-.499-.217-.603-.688-.58-1.127.087-1.693-.144-3.356-.428-5.011-.102-.591.181-1.009.382-1.483z" style="fill:#c9c9dc"/><path d="M66.869 92.054c-.16.801.155 1.628.108 2.336-.085 1.278.592 2.473.223 3.724-.165.558.103 1.018.307 1.495.216.627-.182.902-.652 1.135-1.009-1.022-.48-2.362-.548-3.505-.084-1.405-.609-2.84-.118-4.268.135-.373.369-.673.68-.917z" style="fill:#c3c4d8"/><path d="M68.423 98.249c-.915-1.133-.478-2.515-.523-3.746-.041-1.125-.451-2.183-.368-3.3.183-.341.401-.653.733-.867.244 1.323.506 2.641.553 3.993.01.29.166.584.04.878-.318.744-.109 1.391.344 1.998.14.647-.241.904-.779 1.044z" style="fill:#cecedf"/><path d="m124.513 72.191-4.103-2.93c.485-.324 1.002-.575 1.581-.682.761.484 1.547.927 2.312 1.405.628.392 1.162.825 1.388 1.556-.299.386-.821.37-1.178.651z" style="fill:#f3f2f7"/><path d="M128.411 115.498c-1.092.133-2.216.093-3.264.458-.806.281-1.578.641-2.462.435-.403-.716-.121-1.37.183-2.02a.284.284 0 0 1 .309-.009c.224.557.578.794 1.211.608 1.458-.43 3.011-.503 4.412-1.155.215-.1.43-.114.613.077-.28.569-.564 1.135-1.002 1.606z" style="fill:#b9bad1"/><path d="M129.414 113.893c-1.664.712-3.458.933-5.187 1.397-.989.265-1.217-.047-1.103-.93 2.245-.545 4.395-1.555 6.787-1.374l-.497.907z" style="fill:#bdbed4"/><path d="M129.911 112.986c-2.296.29-4.45 1.285-6.787 1.374l-.011-.023a.744.744 0 0 1-.201-.307c-.093-.381-.074-.738.231-1.03l.19-.485v.899c2.465-.027 4.668-1.183 7.063-1.325a1.628 1.628 0 0 1-.485.897z" style="fill:#c1c3d7"/><path d="M123.363 111.852c.961-.582 2.073-.753 3.129-.959 1.277-.249 2.54-.54 3.791-.883.427-.117.798-.074 1.194.03l-.453.907c-2.247.056-4.47.218-6.401 1.561-.436.303-.86.058-1.291.017l.031-.673z" style="fill:#ccccde"/><path d="M127.88 54.49c.101.617.59.451.966.455 1.322.015 2.644.005 3.965.007.256 0 .526-.043.728.18l-2.269.901c-1.484.231-2.979.183-4.47.153-.439-.009-1.017.13-1.175-.548l2.255-1.148z" style="fill:#e1e1eb"/><path d="m120.713 74.495-4.652-3.298 1.624-.778c-.04.605.34.83.804 1.148 1.101.752 2.092 1.664 3.322 2.226l-1.098.702z" style="fill:#dbdce8"/><path d="M70.3 88.28c.054 1.726.388 3.431.304 5.174a2.27 2.27 0 0 0 .639 1.639c-.057.737-.523 1.037-1.194 1.118-.092-1.038-.101-2.076-.244-3.118-.189-1.375-.145-2.783-.201-4.177.158-.293.397-.498.696-.636z" style="fill:#dbdbe8"/><path d="M109.976 74.488c.384.841 1.266 1.094 1.937 1.573.646.461 1.264.908 1.683 1.591-1.073-.162-2.145-.325-3.17-.702-.574-.57-1.62-.607-1.817-1.604a4.42 4.42 0 0 1 1.367-.858z" style="fill:#b9bad1"/><path d="M73.716 93.09c-.265-2.36-.22-4.751-.7-7.09.25-.295.547-.528.91-.669-.012 2.004.026 4.013.696 5.922.14.399-.503.827.131 1.101 0 .732-.526.724-1.037.736z" style="fill:#f8f8fa"/><path d="M125.625 55.638c.849.461 1.764.119 2.643.216.997.11 2.021-.204 3.003.179l-2.035.919c-.706-.617-1.53-.227-2.304-.276-.973-.061-2.015.401-2.9-.365l1.593-.673z" style="fill:#e7e7ef"/><path d="M76.646 52.005c.873.797 1.578 1.699 1.822 2.892a19.674 19.674 0 0 0-4.522-2.276c.761-.813 1.801-.41 2.7-.616z" style="fill:#eaeaf1"/><path d="M141.296 77.688a26.2 26.2 0 0 1-.074-.265c-.216-.647-.683-.831-1.318-.731-.555.087-1.117.127-1.672.222-.493.085-.985.115-1.276-.427.006-.248-.045-.514.217-.68 1.302-.414 2.606-.784 3.97-.262.14.142.239.309.306.496-.007.553.106 1.117-.153 1.647z" style="fill:#e5e5ee"/><path d="M125.691 71.54c-.699-.88-1.684-1.391-2.585-2.011-.267-.184-.436-.435-.873-.353-.651.123-.133-.4-.243-.597.236-.251.555-.289.869-.339 1.067 1.167 2.43 1.946 3.712 2.83a1.608 1.608 0 0 1-.88.47z" style="fill:#f8f8fa"/><path d="M141.952 55.366c.632-.358 1.392-.088 2.03-.415.569.95.469 1.991.415 3.026-.769-.914-1.508-1.856-2.445-2.611z" style="fill:#e6e6ee"/><path d="M76.646 52.005c-.46.458-1.084.33-1.637.445-.35.073-.742-.1-1.064.172l-2.518-.664c.003-.177-.428-.558.134-.48 1.251.174 2.5.312 3.764.3.329-.003.598-.061.641-.454.308.146.531.377.68.681z" style="fill:#e5e5ee"/><path d="M140.294 71.028c.558-.853 1.522-1.337 2.029-2.235.228-.193.54-.254.75-.476.099-.229.289-.188.621-.153-.912 1.031-1.458 2.187-1.969 3.362-.197-.073-.129-.648-.598-.258-.25.208-.643.15-.833-.24z" style="fill:#a6a7c4"/><path d="m141.449 76.041-.206-.231c-.149-.273-.281-.55-.28-.87a14.155 14.155 0 0 1-.014-.874c-.026-.822-.644-.632-1.136-.673-.425-.036-1.023.24-1.061-.55.19-.33.308-.715.692-.896.438.059.876-.007 1.312.011.313.013.777-.124.745.47l-.052 3.613z" style="fill:#bcbed4"/><path d="M108.609 75.346c.532.618 1.482.763 1.817 1.604l-3.631-.466c.575-.426 1.132-.882 1.814-1.138z" style="fill:#b2b3cc"/><path d="M141.501 72.427c-.318-.381-.716-.171-1.1-.189-.315-.014-.811.333-.958-.292.207-.377.509-.667.851-.918.347.225.691.061 1.03-.022.546-.134.325.303.401.519-.022.314.019.644-.224.902z" style="fill:#b1b2cc"/><path d="M73.926 146.316c.628.236.907.705.907 1.36-.544-.292-.814-.767-.907-1.36z" style="fill:#223c76"/><path d="M154.383 61.945c-.325-.346-.778-.057-1.138-.227.56-.301 1.153-.146 1.773-.202-.042.518-.36.437-.635.429z" style="fill:#abacc7"/><path d="M66.898 133.166c.589.272.742.762.68 1.36-.734-.199-.413-.926-.68-1.36z" style="fill:#203d77"/><path d="M156.029 61.689c.386-.475.742-.403 1.173-.32-.321.365-.656.44-1.173.32z" style="fill:#5c6695"/><path d="M121.31 149.036c.018-.459.316-.707.68-.907-.018.459-.317.708-.68.907z" style="fill:#223c76"/><path d="M68.485 136.794c.301.127.452.353.453.68-.459-.021-.456-.351-.453-.68z" style="fill:#203d77"/><path d="M143.073 68.316c-.146.321-.39.49-.749.476l-.081.013-.077-.027c.245-.266.568-.378.907-.462z" style="fill:#cac8dd"/><path d="M82.54 136.341c-.271-.27-.685-.427-.705-.895.287-.655.886-.966 1.5-1.093 2.967-.615 5.722-1.94 8.67-2.578 1.721-.372 3.177-1.399 4.884-1.738 2.479-.493 4.681-1.851 7.189-2.259.697-.113 1.321-.553 2.053-.591.283-.081.563-.192.867-.11.439.145.948.152 1.237.604.159.631-.365.669-.728.782-3.601 1.113-7.152 2.377-10.751 3.501-4.35 1.358-8.658 2.849-13.019 4.174-.389.116-.758.369-1.197.203z" style="fill:#bdbed4"/><path d="m116.783 125.449.665 1.162c.007.067.011.135.011.203-.159.785-.926.739-1.439.997-.834.418-1.785.538-2.659.872a1.473 1.473 0 0 1-.291.113c-1.088.278-2.171.574-3.182 1.08a1.782 1.782 0 0 1-.3.106c-.872.101-1.598.581-2.377.922-1.476.193-2.802 1.013-4.319 1.033-1.656.019-3.124.742-4.654 1.236-3.62 1.168-7.209 2.428-10.836 3.575-.821.26-1.586.68-2.451.836-.39.071-.74.109-1.089-.094l-.487-.426c.379-.603 1.076-.749 1.644-.877 3.065-.687 5.884-2.093 8.894-2.941 3.335-.939 6.596-2.131 9.928-3.088 1.673-.481 3.239-1.242 4.892-1.773 1.135-.364 2.297-.65 3.398-1.117 1.606-.465 3.111-1.188 4.652-1.819z" style="fill:#b3b4cd"/><path d="M112.241 127.5c-9.527 3.474-19.272 6.289-28.866 9.563-.383-.12-.602-.428-.835-.722 1.884-.984 4.006-1.257 5.978-1.999 2.64-.994 5.364-1.761 8.048-2.639 3.732-1.221 7.457-2.463 11.195-3.666.248-.08.418-.074.378-.374-.024-.145.031-.249.164-.31 1.306.193 2.646-.462 3.938.147z" style="fill:#b8b8d0"/><path d="m100.22 124.394 1.379 1.04c.045.591-.475.494-.779.598-3.387 1.155-6.825 2.164-10.185 3.392-3.29 1.203-6.718 1.967-9.981 3.243-.18.07-.363.098-.548.017l-.083.043c-.389-.191-.284-.613-.43-.918l.005-.237c.048-.663.659-.636 1.058-.796 2.822-1.132 5.781-1.852 8.646-2.859 3.609-1.267 7.263-2.396 10.918-3.523z" style="fill:#d5d4e3"/><path d="M115.247 130.698c-.584.656-1.284 1.161-2.05 1.582-2.419 1.208-5.08 1.762-7.561 2.748-2.237.889-4.676 1.112-6.794 2.312-.989.561-2.166.605-3.232.993-1.763.642-3.498 1.402-5.383 1.654-.793.009-1.563-.096-2.284-.45.775-.901 1.881-1.134 2.948-1.417.394-.105.814-.121 1.209-.258 5.724-1.975 11.5-3.794 17.233-5.742 1.52-.517 3.12-.785 4.557-1.565.421-.228.947-.29 1.357.143z" style="fill:#a2a3c1"/><path d="M106.118 127.286c-1.93.963-4.068 1.306-6.087 2.01-3.172 1.105-6.299 2.351-9.558 3.213-1.831.484-3.598 1.203-5.416 1.742-1.105.328-2.285.424-3.222 1.195-.347-.341-.824-.582-.876-1.148.654-.933 1.78-.773 2.663-.962 1.384-.295 2.619-.932 3.951-1.327 2.918-.864 5.74-2.034 8.659-2.897 2.631-.777 5.187-1.784 7.839-2.489l1.589.425c.116.151.357.059.458.238z" style="fill:#c4c5d9"/><path d="M102.946 131.579c.203.072.396.255.624.13 1.148-.632 2.426-.798 3.683-1.037.848-.257 1.656-.622 2.494-.907 1.11-.448 2.309-.63 3.401-1.134.932-.079 1.747-.967 2.772-.401.103.697-.467.788-.903.937-1.784.609-3.584 1.17-5.373 1.764-3.897 1.293-7.843 2.438-11.705 3.84-2.8 1.016-5.683 1.789-8.506 2.744-1.178.398-2.365.761-3.49 1.298-.524-.198-1.03-.427-1.421-.849.205-.536.736-.427 1.137-.583 4.551-1.775 9.292-2.985 13.867-4.683 1.129-.42 2.356-.519 3.42-1.119z" style="fill:#adaeca"/><path d="M104.072 126.624c-.27.506-.817.497-1.262.645-3.203 1.062-6.447 2.011-9.611 3.178-2.785 1.027-5.681 1.712-8.413 2.911-1.185.52-2.546.639-3.827.94-.278-.239-.453-.529-.451-.907 1.68-.709 3.289-1.658 5.099-1.958 1.621-.268 3.125-.799 4.613-1.439.696-.299 1.424-.543 2.174-.59 1.395-.089 2.608-.784 3.834-1.276 2.06-.828 4.228-1.31 6.261-2.187l1.583.683z" style="fill:#c9cadc"/><path d="M102.49 125.94c-.289.698-1.014.581-1.542.838-1.442.701-3.023 1.031-4.51 1.619-1.488.588-3.043 1.245-4.737 1.461-1.436.183-2.761 1.107-4.194 1.466-1.876.47-3.794.723-5.48 1.798-.4.255-1.006.188-1.517.269l-.403-.707c2.18-1.097 4.557-1.606 6.865-2.325 1.901-.592 3.773-1.274 5.663-1.901 2.337-.776 4.681-1.532 7.018-2.308.656-.218 1.299-.476 1.947-.715l.89.505z" style="fill:#cfd0e0"/><path d="m98.645 122.718.967 1.124c-.222.519-.733.637-1.182.778-5.837 1.83-11.621 3.825-17.45 5.679-.573.182-1.18.577-1.822.14l-.31-.691.057-.155c.221-.345.578-.46.943-.573 3.842-1.19 7.559-2.789 11.443-3.804 2.528-.66 4.871-1.762 7.354-2.498z" style="fill:#e1e1ec"/><path d="M90.228 139.987c.147-.292.376-.435.71-.476 1.791-.217 3.362-1.092 5.031-1.679.698-.245 1.494-.176 2.164-.547 1.859-1.03 4.128-1.001 5.897-1.985 1.529-.851 3.324-.562 4.764-1.707.62-.493 1.841-.63 2.789-.779.607-.095.942-.837 1.615-.535-1.554 1.26-3.263 2.272-5.062 3.139-.32-.189-.626-.062-.921.061-2.838 1.184-5.853 1.851-8.709 2.969-1.086.425-2.235.604-3.304 1.098-1.577.728-3.282.636-4.971.436l-.003.005z" style="fill:#9c9ebd"/><path d="M85.942 138.813c.447-.885 1.406-.942 2.165-1.201 3.464-1.178 6.996-2.143 10.43-3.43 2.642-.991 5.38-1.722 8.07-2.585 2.763-.886 5.52-1.794 8.281-2.686.357-.115.734-.181.98-.506.53-.679 1.239-.822 2.042-.683.502 1.129-.728 1.115-1.101 1.667-1.135-.069-2.035.614-3.042.958-.384-.065-.748.019-1.102.154-2.585.985-5.267 1.686-7.853 2.669a3.1 3.1 0 0 0-.697.357c-.734.303-1.475.588-2.262.728-1.288-.058-2.362.678-3.557.974-1.053.261-2.072.662-3.098 1.025-.103.046-.21.083-.317.117-2.509.974-5.078 1.756-7.68 2.434-.36.094-.72.223-1.094.054a.184.184 0 0 1-.165-.046z" style="fill:#aaabc7"/><path d="M113.828 130.219c.901-.611 1.752-1.4 2.982-.831-.474.492-.926 1.011-1.562 1.31-.91-.097-1.678.171-2.428.723-.696.512-1.633.439-2.451.705-4.199 1.366-8.37 2.823-12.574 4.164-2.382.76-4.698 1.81-7.23 2.151-.906.122-1.749.717-2.62 1.097-.238-.016-.485-.003-.671-.197.34-.913 1.233-.954 1.963-1.161 1.973-.56 3.923-1.171 5.774-2.066 1.98-.241 3.744-1.186 5.629-1.738.389-.114.772-.238 1.172-.302.741-.276 1.46-.625 2.267-.68 1.822-.906 3.831-1.251 5.738-1.902.985-.336 1.913-.818 2.932-1.068.359-.089.689-.288 1.079-.205z" style="fill:#a6a8c5"/><path d="M79.157 130.44c1.692-.203 3.244-.914 4.861-1.383 2.738-.793 5.425-1.767 8.13-2.661 2.491-.823 5.056-1.474 7.464-2.554l.609.552c-1.135 1.045-2.679 1.003-4.015 1.512-2.806 1.067-5.694 1.896-8.533 2.868-2.558.876-5.173 1.597-7.701 2.574-.133.052-.249.149-.373.225-.321-.311-.365-.728-.442-1.133z" style="fill:#dcdce8"/><path d="M90.232 139.982c.075-.004.151-.015.225-.01 1.876.135 3.595-.28 5.364-.987 1.352-.54 2.78-1.071 4.266-1.32.493-.083.934-.446 1.413-.647 1.2-.505 2.532-.525 3.743-1.079a20.346 20.346 0 0 1 1.753-.706c.393-.137.855-.443 1.139.187-4.039 2.245-8.29 3.885-12.888 4.547-1.671.239-3.341.431-5.015.015z" style="fill:#989abb"/><path d="M102.946 131.579c-.435.72-1.253.582-1.895.827a94.292 94.292 0 0 1-6.581 2.212c-3.35 1.001-6.636 2.22-9.949 3.346-.33-.006-.496-.239-.66-.475a16.955 16.955 0 0 0 2.847-.787c2.687-1.006 5.437-1.845 8.165-2.742 1.768-.581 3.551-1.101 5.271-1.841.854-.367 1.863-.371 2.802-.54z" style="fill:#b3b3cd"/><path d="m78.405 128.179.058-.227c1.888-1.059 4.043-1.349 6.041-2.093 2.852-1.061 5.826-1.758 8.65-2.905.458-.186.993-.592 1.276.24-.018.563-.272.838-.861.979-2.891.692-5.638 1.817-8.432 2.809-1.343.477-2.801.781-4.218 1.092-.799.175-1.274.967-2.13.895-.174-.047-.253-.189-.329-.332l-.055-.458z" style="fill:#edeef3"/><path d="M95.011 136.114c-.1.581-.607.521-1.006.698-2.196.974-4.653 1.251-6.731 2.529-.429-.062-.832-.186-1.165-.482l8.902-2.745z" style="fill:#a7a8c5"/><path d="m117.91 127.722-2.042.683c-.39-.386-.825-.265-1.221-.054-.48.256-.977.307-1.499.28.122-.253.308-.406.599-.446 1.338-.183 2.549-.713 3.711-1.373.261.25.393.561.452.91z" style="fill:#aeafca"/><path d="m78.459 128.637.238.22c.276.252.345.561.25.915l-.1-.023c-.334.012-.5-.457-1.014-.229l.626-.883zm1.79 5.521c-.016.161-.103.334-.255.249-.132-.075-.202-.284-.26-.447-.014-.039.142-.199.207-.192.212.022.291.192.308.39zm-1.874-1.607c-.309-.068-.543-.194-.65-.474-.013-.033.157-.199.221-.188.343.063.424.323.429.662zm1.218-.742c.238.262.365.575.43.918-.779-.009-.541-.493-.43-.918zm-1.434-1.667c-.084.061-.182.165-.303.21-.117.043-.235-.059-.181-.168.054-.11.187-.197.305-.255.137-.068.183.031.179.213z" style="fill:#203d77"/><path d="m78.065 126.136-.336-2.501c-.032-2.437-.504-4.886.178-7.305.065-.497.258-.969.292-1.472.143-.628.328-1.247.463-1.877.176-.604.296-1.224.506-1.819 1.025-3.355 2.501-6.515 4.123-9.614.313-.599.602-1.214 1.123-1.672.488-.427 1.038-.443 1.583-.166.642.327 1.384.444 1.99.759 2.408 1.252 5.231 1.354 7.554 2.813.383.24.866.249 1.312.332.426.079.817.213.864.742.004.182-.037.349-.172.481-.337.297-.269.701-.287 1.082-1.43 4.775-1.608 9.55 0 14.325-.311.373-.767.465-1.194.593-3.558 1.064-7.041 2.355-10.572 3.496-2.099.678-4.194 1.377-6.304 2.023-.417.127-.814.189-1.123-.22zm45.057-12.029-.009.23c-.357.64-.267 1.373-.428 2.054l-.685 2.04-.409.923c-.062.319-.222.395-.492.198-.716-1.326-1.382-2.682-2.166-3.967-.535-.876-.742-1.688-.175-2.598 1.139-2.459 1.751-5.07 2.225-7.968 1.387 2.628 1.785 5.264 1.954 7.959.191.355-.079.786.185 1.129z" style="fill:#fefefe"/><path d="m100.931 96.222-.743 1.572c-.366.142-.643-.097-.954-.213-1.931-.719-3.886-1.369-5.836-2.036-1.586-.543-3.205-1.022-4.728-1.746.007-.907.539-1.438 1.295-1.809 2.707.863 5.432 1.68 8.069 2.751.455.185.878.435 1.387.411.787-.039 1.257.361 1.51 1.07z" style="fill:#d6d5e3"/><path d="M99.765 98.704c.078.598-.357.95-.654 1.368-.232.199-.495.164-.747.072-3.738-1.365-7.608-2.363-11.232-4.045-.337-.798.284-1.128.749-1.535a1.13 1.13 0 0 1 .879.012c3.337 1.344 6.804 2.319 10.166 3.591.319.12.631.246.839.537z" style="fill:#e2e2ec"/><path d="m98.192 102.347-.019.641c-.161.245.11.722-.414.772-.608-.628-1.415-.744-2.219-.952-1.858-.482-3.596-1.331-5.433-1.894-1.397-.428-2.732-1.053-4.142-1.432-.476-.128-.745-.277-.808-.754.007-.373.218-.611.521-.789.792-.202 1.581-.16 2.328.156 2.985 1.26 6.105 2.146 9.117 3.33.432.169 1.094.178 1.069.922z" style="fill:#f3f2f7"/><path d="M102.259 93.932c-.136.435-.375.811-.669 1.155-1.548-.166-2.963-.759-4.388-1.339-1.459-.594-3-.956-4.469-1.53-.729-.285-1.51-.444-2.103-1.009-.012-.689.359-1.093.975-1.314 2.018.646 4.135.998 6.082 1.837 1.276.55 2.696.686 3.884 1.454.301.195.746.231.688.746z" style="fill:#cacbdd"/><path d="M87.097 95.987c1.503.186 2.769 1.045 4.198 1.468 2.633.78 5.214 1.735 7.816 2.618-.034.425-.133.824-.458 1.131-.188.273-.397.403-.755.253a72.386 72.386 0 0 0-9.102-3.125c-.858-.232-1.65-.694-2.426-1.149-.244-.695.151-1 .727-1.196z" style="fill:#e9e9f1"/><path d="M102.259 93.932c-.587-.542-1.307-.818-2.06-1.025-2.389-.655-4.602-1.9-7.113-2.145-.59-.057-.847-.79-1.497-.679.001-.676.415-1.047.966-1.32 1.518-.152 2.749.716 4.082 1.191 1.84.656 3.75 1.107 5.548 1.884.429.185 1.022.218.751.948-.155.424-.36.818-.677 1.146z" style="fill:#c5c6da"/><path d="M102.937 92.786c-.074-.166-.133-.467-.225-.477-1.393-.156-2.485-1.171-3.88-1.325-1.193-.132-2.259-.715-3.344-1.158-.963-.393-1.919-.704-2.937-.86-.066-.841.55-1.097 1.163-1.357 1.795.108 3.368.993 5.056 1.48 1.472.425 2.879 1.08 4.371 1.46.645.164.784.5.48 1.064-.251.377-.287.881-.684 1.173z" style="fill:#bec0d5"/><path d="M103.622 91.613c-.071-.28.175-.646-.379-.771-2.566-.579-4.969-1.668-7.474-2.444-.717-.222-1.413-.497-2.163-.591.095-.774.645-1.149 1.277-1.453.931.031 1.745.447 2.569.809 1.97.865 4.127 1.163 6.089 2.029.435.192 1.384.089.981 1.095-.263.468-.471.972-.9 1.326z" style="fill:#b9bad1"/><path d="M99.765 98.704c-2.465-1.005-5.064-1.608-7.545-2.598-1.357-.542-2.732-1.152-4.185-1.478-.164-.587.216-.773.667-.907 1.408.314 2.763.756 4.094 1.341 1.043.458 2.178.736 3.269 1.09 1.418.46 2.821.908 4.122 1.642-.001.368-.182.653-.422.91z" style="fill:#dcdce8"/><path d="M104.522 90.288c.059-.778-.703-.699-1.054-.822-2.078-.729-4.24-1.234-6.283-2.042-.778-.308-1.616-.529-2.354-.956-.207-.24.025-.323.158-.442l3.429.003c2.439.801 4.986 1.286 7.291 2.482a7.9 7.9 0 0 1-1.187 1.777z" style="fill:#b3b4cd"/><path d="M90.66 91.208c2.453.979 5.047 1.553 7.467 2.642 1.114.501 2.386.604 3.464 1.237-.137.426-.257.862-.659 1.134-1.922-1.077-4.034-1.672-6.106-2.353a78.542 78.542 0 0 1-4.877-1.767c-.121-.581.142-.859.711-.893z" style="fill:#cfd0e0"/><path d="M86.333 97.096c.388-.008.721.168 1.077.29 3.235 1.111 6.463 2.242 9.728 3.258.521.162.775 1.067 1.515.559-.026.433-.135.832-.461 1.144-1.174-.959-2.652-1.254-4.023-1.727-1.781-.614-3.577-1.184-5.302-1.941-1.008-.442-2.05-.585-3.121-.652-.124-.511.129-.786.587-.931z" style="fill:#edeef3"/><path d="M105.709 88.51c-.824.527-1.243-.422-1.907-.563-1.659-.353-3.258-.986-4.883-1.499a.796.796 0 0 1-.501-.419l1.138.012c.436.223.941-.056 1.374.186 2.156.118 4.287.376 6.335 1.112-.943-.174-1.012.814-1.556 1.171z" style="fill:#aeafca"/><path d="M105.884 101.675c-.473-.448-.65-1.057-.882-1.635-.038-.162.01-.311.144-.391 1.063-.629 2.168-1.113 3.451-.937.314.409.612.827.686 1.357-.449.801-1.327.843-2.053 1.137-.438.177-.929.218-1.346.469z" style="fill:#c0c2d7"/><path d="M105.884 101.675c.036-.383.173-.513.625-.569.986-.124 1.9-.553 2.774-1.036.258.555.782.957.917 1.584-.277.525-.804.164-1.201.336-.829.359-1.533.869-2.194 1.461l-.712-1.113c-.156-.113-.068-.333-.2-.456a.795.795 0 0 0-.009-.207z" style="fill:#c9cadc"/><path d="M107.759 105.498c-.301-.33-.344-.77-.492-1.164-.29-.621.165-.92.584-1.097.78-.329 1.625-.494 2.376-.916.193-.108.323.114.458.23.304.33.515.712.635 1.145-.231.528-.708.726-1.207.887-.804.258-1.53.711-2.354.915z" style="fill:#d5d4e3"/><path d="m106.511 94.872.718 1.343c-1.102.711-2.326 1.099-3.601 1.35-.403-.363-.445-.907-.682-1.353-.111-.524.32-.609.638-.768.921-.46 1.892-.685 2.927-.572z" style="fill:#acadc9"/><path d="M108.597 98.712c-1.194.454-2.536.51-3.595 1.328a2.905 2.905 0 0 1-.695-1.336c-.027-.11-.05-.254.048-.308 1.099-.593 2.199-1.191 3.519-1.045l.723 1.361z" style="fill:#b9bad1"/><path d="M113.808 108.229c-.873.16-1.651.678-2.561.688-.532.006-.504.804-1.076.728-.346-.328-.493-.764-.649-1.195-.267-.501.148-.556.448-.671 1.013-.39 2.034-.755 3.119-.894l.719 1.344z" style="fill:#f0f0f5"/><path d="M107.874 97.351c-1.17.501-2.489.61-3.567 1.353l-.679-1.14c.776-.605 1.77-.692 2.629-1.105.295-.142.646-.166.971-.244l.646 1.136z" style="fill:#b2b3cc"/><path d="m108.816 107.103-.4-.47a.71.71 0 0 0-.029-.219c-.104-.236-.043-.522.137-.599 1.102-.471 2.131-1.232 3.44-.976.218.352.537.657.524 1.117-1.15.616-2.201 1.554-3.672 1.147z" style="fill:#e1e1ec"/><path d="M106.511 94.872c-.927.523-2.081.254-2.994.868-.212.143-.456.219-.571.471-.423-.419-.03-.745.159-1.052.358-.582.773-1.127 1.165-1.688.308-.243.796.491 1.068-.201.03-.078.286.362.529.45l.644 1.152z" style="fill:#a7a8c5"/><path d="M108.816 107.103c1.35.022 2.385-.969 3.673-1.147.227.292.526.538.601.928-.888.83-2.18.574-3.169 1.168-.196.117-.376.146-.398.398a3.82 3.82 0 0 1-.707-1.347z" style="fill:#e8e9f0"/><path d="M110.684 102.55c-1.105.659-2.751.284-3.418 1.783-.263-.237-.386-.547-.462-.882.543-1.176 1.87-1.879 3.395-1.797.259.246.41.55.485.896z" style="fill:#cecfdf"/><path d="M111.965 104.838c-1.21.485-2.662.422-3.578 1.575l-.628-.916c.4-.676 1.168-.728 1.788-.992.599-.255 1.201-.497 1.772-.811l.646 1.144z" style="fill:#dbdbe8"/><path d="m97.76 103.754.413-.766c.273.317 1.374.569.084 1.011-.315.108-.086.237-.07.4.047.466.044.989-.641.437l-.017-.401c.164-.197-.032-.517.231-.681z" style="fill:#203e7a"/><path d="M105.867 93.72c-.485-.383-1.142.335-1.596-.249.186-.445.403-.87.843-1.256l.753 1.505z" style="fill:#9ea0bf"/><path d="M123.122 114.107c-.43-.316-.162-.746-.185-1.129a.76.76 0 0 1 .207.022l-.022 1.107z" style="fill:#556091"/><path d="M105.892 101.882c.166.109.246.255.2.456-.155.051-.335.22-.463.019-.169-.269.236-.28.263-.475z" style="fill:#203e7a"/><path d="M112.241 127.5c-1.358 0-2.716.412-4.074-.007-.332-.114-.692-.126-1.014-.275-.28-.11-.599-.136-.816-.381-1.754-.8-3.501-1.612-4.729-3.188-.251-.322-.466-.671-.843-1.219 5.007 1.702 9.31.733 13.246-2.422l2.772 5.442c-1.056 1.044-2.469 1.34-3.797 1.813-.246.086-.497.158-.745.237z" style="fill:#fefefe"/><path d="M78.947 129.772c-.151-.286-.296-.575-.25-.915 1.003-.695 2.144-1.05 3.306-1.369 2.113-.582 4.261-1.072 6.281-1.935a24.177 24.177 0 0 1 5.472-1.612c.421-.072.378-.504.576-.749.148-.257.396-.346.666-.399 1.134.036 2.064-.522 3.006-1.042l.642.967c-.032.319-.134.537-.497.65-4.106 1.285-8.219 2.548-12.301 3.906-2.116.704-4.155 1.633-6.347 2.118-.203.045-.37.25-.554.38z" style="fill:#e9e9f0"/><path d="m95.011 122.964-.68.228c-.219-.192-.357-.277-.738-.141-3.566 1.276-7.136 2.551-10.753 3.672-1.261.391-2.566.605-3.726 1.29-.152.09-.431-.035-.651-.06-.168-.28-.265-.576-.208-.908 1.181-.468 2.407-.831 3.578-1.293 2.115-.833 4.412-1.01 6.463-2.139 1.583-.872 3.466-1.165 5.253-1.586 1.162-.274 2.222-.823 3.321-1.263.321-.128.485-.04.683.146.176.084.195.247.207.413.098.527-.24.707-.649.878-.69.286-1.381.563-2.1.763z" style="fill:#f2f1f6"/><path d="M97.552 120.909c-1.461.503-2.911 1.038-4.385 1.499-1.334.417-2.729.657-4.031 1.149-1.436.542-2.785 1.296-4.304 1.65-2.023.472-4.009 1.078-5.927 1.895-.177.075-.432-.034-.651-.058l-.189-.908c1.082.325 1.901-.5 2.875-.686 1.397-.267 2.706-.903 4.096-1.279 1.96-.529 3.804-1.526 5.726-2.078 2.158-.62 4.28-1.423 6.497-1.85l.293.666z" style="fill:#f8f8fb"/><path d="M95.011 122.964c.472-.497 1.132-.627 1.736-.838.454-.158.811-.362 1.012-.804l.243.429c-.735 1.051-1.784 1.326-2.991 1.213z" style="fill:#edeef3"/><path d="m106.337 126.837.902.259c.023.228-.075.302-.29.227l-.831-.037-.458-.237c.231-.054.512.051.677-.212z" style="fill:#526090"/><path d="M121.098 119.552c.208.042.376-.014.492-.198 1.207.55 2.106-.597 3.249-.605.54-.004 1.255-.079 1.759-.523-.436.83-.992 1.572-1.624 2.261-.654.641-1.597.595-2.36.985-.296.151-.47-.141-.661-.31l-.855-1.61z" style="fill:#a7a8c6"/><path d="M121.953 121.161c.891.281 1.528-.619 2.391-.515.201.024.42-.103.63-.16-.232.332-.449.675-.697.995-1.348 1.737-1.35 1.735-2.324-.32z" style="fill:#a0a1c0"/><path d="m86.333 97.096-.588.931-.432.69c.055.628-.452.927-.778 1.333-2.016 3.165-3.494 6.581-4.731 10.111-.122.348-.271.685-.408 1.028-.692.454-1.09.99-.511 1.804-.073.622-.188 1.234-.444 1.811-.206.431-.537.839-.247 1.36-.379 2.477-.498 4.97-.467 7.472-.356-.714-.165-1.477-.155-2.211.01-.741-.244-.976-.979-.967-2.745.034-5.49.015-8.236.012-.73-.001-1.507.17-2.044-.575-.04-.055-.333.072-.509.114l-.058-.664c.152-.975.445-1.933.368-2.934-.028-.358-.207-.671-.517-.834-.512-.269-.746-.719-.933-1.22l-.266-1.598c-.139-.247-.162-.489.023-.726 3.805.124 7.611 0 10.575.048-2.507-.001-5.857.002-9.206-.002-.485-.001-.986.071-1.43-.22-.084-.834-.156-1.666.04-2.495.32-.652.19-1.358.247-2.042l.867-3.404.558-1.557.782-1.618.652-1.135.916-1.36.779-1.043c.335-.287.687-.559.847-.995.391-.38.91-.624 1.194-1.118l.677-.595.887-.733.909-.674c.293-.32.818-.313 1.038-.736 5.077-2.965 10.562-4.776 16.338-5.753 1.295-.219 2.598-.385 3.898-.576l-.158.442-1.226 1.34c-.43.314-.792.691-1.054 1.159a3.941 3.941 0 0 0-.963 1.118c-.397.303-.691.691-.929 1.125-.32.232-.556.53-.711.893-.539.444-.901 1.025-1.245 1.62l-.667.907c-.384.403-.721.84-.939 1.358-.316.327-.603.675-.764 1.109z" style="fill:#1f3f7a"/><path d="M100.931 86.226c-.46-.046-.957.176-1.374-.186.464.011.952-.146 1.374.186z" style="fill:#b3b4cd"/><path d="M108.425 159.246c-2.2 1.224-4.617 1.45-7.064 1.544-.652-1.517-.287-3.085-.239-4.636-.078-.109.334-.226.051-.252-.416-.039-.818-.067-1.195-.256-1.856 0-3.691-.183-5.449-.809-.509-.181-1.296-.368-1.263-.949.031-.553.785-.726 1.342-.851 3.081-.69 6.199-.779 9.33-.492 1.422.13 2.853.272 4.162.933.298.151.749.259.707.641-.186 1.706.355 3.466-.382 5.127z" style="fill:#fefefe"/><path d="m100.68 160.81-1.357-.023c-.523-1.436-.352-2.906-.217-4.375.059-.117.135-.222.228-.315l.848-.077c.221-.107.423-.092.599.093.335 1.574.472 3.143-.101 4.697z" style="fill:#e3e3ed"/><path d="M99.334 156.098a1.466 1.466 0 0 0-.028.174c-.235.247-.536.311-.86.318a11.68 11.68 0 0 1-.917.009l-.702.019c-.66.08-.553.608-.593 1.036-.083.894.133 1.798-.093 2.687-.495 0-.949-.14-1.367-.401-.606-1.123-.371-2.308-.224-3.476.044-.352.285-.617.722-.419l4.062.053z" style="fill:#a4a5c3"/><path d="M93.883 159.64c-.472-.115-.708-.498-.968-.853-.058-.669-.166-1.337-.163-2.006.008-1.697.028-1.696 1.606-.957-.389.893-.11 1.845-.241 2.761-.052.359.081.755-.234 1.055z" style="fill:#8e90b3"/><path d="M93.883 159.64c-.187-1.037.135-2.086-.089-3.128-.08-.374.149-.643.564-.688.314.037.654-.036.914.222-.53.074-.488.475-.489.854l-.009 3.04c-.334.012-.618-.129-.891-.3z" style="fill:#9999ba"/><path d="m100.682 156.082-.501-.061-.205-.375c.461.072.994-.337 1.384.208-.196.164-.376.377-.678.228z" style="fill:#908eae"/><path d="M66.441 46.128c-.024.157-.076.292-.267.291l-19.695-.089c.304-.933.91-1.369 1.928-1.36 3.462.031 6.926-.064 10.385.037 2.58.076 5.15.406 7.649 1.121z" style="fill:#c1c3d7"/><path d="M143.311 53.576c-.363.697-.953.21-1.406.216-3.782.044-7.565.031-11.347.015-.399-.002-.955.236-1.091-.454.411-.542 1.025-.799 1.587-1.13 3.309-.109 6.617-.132 9.927-.054.571.013 1.09.212 1.634.319.33.3.621.625.696 1.088z" style="fill:#d6d6e3"/><path d="M142.614 52.488c-.406.552-.894.016-1.303.012-2.776-.027-5.546-.113-8.325.061-.603.038-1.349.1-1.933-.337.654-.427 1.247-.963 2.046-1.127 2.642-.163 5.284-.184 7.926.015.641.33 1.192.764 1.589 1.376z" style="fill:#cfd0e0"/><path d="M141.025 51.112c-.619.434-1.317.177-1.975.199-1.807.062-3.617.057-5.425.102-.28.007-.417-.1-.526-.317 2.645-1.501 5.287-1.497 7.926.016z" style="fill:#ccccde"/><path d="m98.428 156.336.878-.064.017 4.515-.467-.016c-.304-.065-.628-.177-.66-.513-.124-1.316-.421-2.649.232-3.922z" style="fill:#d3d2e1"/><path d="M98.428 156.336c-.005 1.124.006 2.248-.024 3.372-.012.444.061.81.453 1.063-.469.075-.907-.072-1.35-.187-.532-1.418-.558-2.834.013-4.249l.908.001z" style="fill:#c4c5d9"/><path d="M96.142 160.341c-.462-1.192-.183-2.428-.183-3.641 0-.549.533-.364.881-.373.585 1.381.304 2.803.204 4.217l-.902-.203z" style="fill:#b1b2cb"/><path d="M100.682 156.082c.205-.139.415-.264.679-.228v4.936l-.681.02.002-4.728z" style="fill:#f3f2f8"/><path d="M97.044 160.544c-.465-1.387-.12-2.813-.204-4.217l.679.009-.012 4.249-.463-.041z" style="fill:#bbbcd2"/><path d="M136.955 76.487c1.031.494 2.011-.08 3.014-.149.799-.055 1.414.053 1.253 1.085-1.129-.009-2.259-.055-3.386-.015-.706.025-.971-.246-.881-.921z" style="fill:#edeef3"/><path d="m141.238 74.909.005.901c-.871-.479-1.74-.118-2.615-.015-.479.056-.97.011-1.455.012-.003-.439.106-.834.444-1.14 1.211.024 2.442-.259 3.621.242z" style="fill:#dad9e6"/><path d="M141.238 74.909c-1.208-.062-2.45.385-3.621-.241.018-.181.053-.353.234-.448 1.082-.743 2.207-.786 3.37-.206l.017.895z" style="fill:#d1d1e0"/><path d="M141.221 74.013c-1.131-.061-2.258-.046-3.37.206a2.689 2.689 0 0 1 .901-1.377c.452.71 1.102.17 1.641.211.706.054.97.275.828.96z" style="fill:#c6c7da"/><path d="M64.666 114.356c.45.308.709.789 1.255 1.059.741.367.677 2.258.003 3.024.041.398.711.131.631.695-.272-.093-.604-.127-.807.21-.621-1.606-.915-3.283-1.082-4.988z" style="fill:#203d77"/><path d="m64.446 112.092-.046.667a5.358 5.358 0 0 1 .001-3.395l.038 2.491c.059.051.079.103.062.156-.018.054-.036.081-.055.081z" style="fill:#c5c6da"/><path d="m106.95 127.322.29-.227c.304.144.704.067.928.398-.029.054-.038.11-.029.17l-1.189-.341z" style="fill:#606a96"/><path d="M113.148 128.632c-.965.883-2.204.945-3.401 1.134 1.017-.728 2.163-1.069 3.401-1.134zm-3.401 1.134a3.85 3.85 0 0 1-2.494.907c.76-.499 1.523-.991 2.494-.907z" style="fill:#aeafca"/><path d="M113.828 130.219c-3.148 1.37-6.452 2.262-9.749 3.174.28-.727 1.047-.644 1.58-.84 2.356-.865 4.758-1.607 7.141-2.4.358-.119.707-.309 1.028.066zm-12.016 3.854c-1.894.858-3.869 1.496-5.84 2.146-.37.122-.655.054-.961-.106 1.977-.95 4.146-1.354 6.169-2.174.241-.097.428.059.632.134z" style="fill:#a7a8c5"/><path d="M84.535 100.05c.169-.497.436-.937.778-1.333.122.459.507.35.84.465 1.954.674 3.878 1.413 5.864 2.016 1.27.386 2.511 1.029 3.811 1.412.766.226 1.681.088 1.933 1.144-.006.251.001.507-.231.681-.04-.182-.055-.436-.269-.451-2.131-.148-3.828-1.566-5.904-2.006-.935-.198-2.096-.314-3.057-1.061-.73-.568-1.919-.649-2.841-1.114-.405-.205-.61.193-.924.247z" style="fill:#f9f9fb"/><path d="M78.886 112.992c-.949.421-.607-.317-.501-.631.169-.501-.193-1.545 1.011-1.173a6.132 6.132 0 0 1-.51 1.804zm-.691 3.171c-.788-.611-.268-.985.247-1.36.063.479-.113.916-.247 1.36zm-13.749-4.071-.007-.236h13.225c-.548.585-.976.445-1.344.447-3.512.011-7.024.033-10.534-.028-.42-.009-1.022.684-1.34-.183z" style="fill:#203d77"/></svg>