<svg xmlns="http://www.w3.org/2000/svg" viewBox="0 0 200 200"><path d="M17.03 128.8c0-42.63 0-85.26-.02-127.9 0-.77.17-.95.95-.95 54.7.03 109.39.03 164.08 0 .78 0 .96.18.96.96-.03 42.56-.02 85.12-.02 127.68-.23.74-.11 1.5-.1 2.25a53.06 53.06 0 01-2.92 17.91c-3.4 9.99-9.83 17.48-18.93 22.74-6.7 3.88-13.97 6.26-21.35 8.4-6.3 1.84-12.69 3.41-18.89 5.58-4.84 1.7-9.54 3.68-13.63 6.87a26.4 26.4 0 00-6.01 6.38c-.29.44-.53.9-.94 1.23h-.42c-.29-.24-.5-.56-.7-.88a28.16 28.16 0 00-9.24-8.78c-4.5-2.74-9.4-4.49-14.4-6.04-8.07-2.52-16.34-4.42-24.32-7.26-6.82-2.42-13.3-5.46-18.86-10.2-3.8-3.22-6.94-6.99-9.32-11.4-3.34-6.2-4.99-12.86-5.68-19.8-.2-1.9-.19-3.85-.15-5.78.01-.34.12-.7-.1-1.01z"/><path d="M43 81.45c2.59 3.52 5.78 5.44 10.07 5.46 3.93.03 7.19-1.41 9.9-4.17A11.78 11.78 0 0065.35 79c.35-.84.25-1.54-.33-2.37-2.16-3.09-4.78-5.64-8.2-7.27A16.29 16.29 0 0051.88 68c-5.1-.67-9.91.85-14.77 2.01-2.54.6-5.07 1.23-7.72 1.12h-.51c-1.7-.17-1.9-.4-1.9-2.06 0-6.05.02-12.1-.01-18.15 0-.74.13-.97.94-.97 48.05.02 96.1.02 144.15 0 .75 0 .98.14.98.94-.04 6.3-.04 12.59 0 18.88.01.76-.29 1-.9 1.14-1.8.46-3.63.31-5.38-.05-3.79-.76-7.5-1.84-11.3-2.57-4.43-.85-8.85-.75-12.97 1.4-3.4 1.78-5.94 4.49-8 7.68-.28.46-.07.85.06 1.21a12.08 12.08 0 007.77 7.57c4 1.41 7.86 1.05 11.43-1.34a10.76 10.76 0 003.18-3.35 13.76 13.76 0 012.8 5.56c1.44 5.58.06 10.5-3.52 14.94-2.34 2.91-5.3 5.01-8.5 6.83-5.2 2.94-10.83 4.7-16.58 6.06a86.9 86.9 0 01-11.37 1.95c-.63.07-.68-.11-.68-.58 0-1.39.02-2.77 0-4.15-.05-3.31-.42-6.6-.79-9.88-.44-3.97-1.11-7.9-1.92-11.79a121.41 121.41 0 00-4.57-16.26c-.3-.82-.09-1.06.68-1.28a12.64 12.64 0 006.6-4.65c-1.4.33-2.53.65-3.72.64a18 18 0 01-7.43-1.75c-3.3-1.52-6.54-3.17-9.84-4.67-1.5-.68-3.07-1.31-4.72-.34-.11.07-.3.09-.35.18-.54 1.25-1.28.7-2.16.39-2.2-.76-4.5-1.06-6.77-.25-2.63.93-3.75 2.79-3.99 5.16-.32 3.37 1.15 6.25 2.66 9.1.26.48.4.16.59 0 3.23-2.7 5.92-1.65 8.29 1.18.48.58.83 1.27 1.31 2.01-6.7-.1-12.73-2-18.39-5.34.54.84 1.02 1.74 1.64 2.51.67.83 1.44 1.6 2.25 2.3.76.65 1.59 1.25 2.5 1.69.94.44 1.85.91 2.75 1.45-1.17-.01-2.32-.28-3.61-.08a16.86 16.86 0 006.64 3.46c2.35.55 4.71.61 7.08.08.3-.07.3.04.4.25.28.66.2 1.34.16 2.02-.29 4.5-2.55 8.14-5.13 11.63a31.87 31.87 0 00-5.52 11.56c-.4 1.7-.66 3.45-.92 5.18-.08.55-.11.62-.72.5-1.7-.33-3.42-.49-5.13-.72a90.77 90.77 0 01-11.94-2.5 59.18 59.18 0 01-11.91-4.58c-3.28-1.73-6.36-3.8-8.81-6.65-2.5-2.88-4.14-6.15-4.48-10.06-.37-4.15.82-7.75 3.2-11.1zM100 9.93c23.95 0 47.9 0 71.86-.02.93 0 1.18.2 1.18 1.16-.04 9.3-.04 18.6 0 27.9 0 .87-.22 1.06-1.07 1.06a150119 150119 0 00-143.94 0c-.85 0-1.07-.18-1.07-1.06.03-9.33.03-18.67 0-28 0-.87.22-1.06 1.07-1.06 24 .03 47.98.02 71.97.02z" fill="#fecb00"/><path d="M84.57 83.71c2.77-.1 5.4-.66 7.99-1.57 2.36-.83 2.36-.8 1.26-3.02a10.25 10.25 0 00-3.42-4 5.67 5.67 0 00-6.27-.4c-.74.4-1.02.25-1.36-.45a17.06 17.06 0 01-1.6-5.64c-.3-2.64 1.83-5 4.44-5.43 1.52-.25 2.88.08 4.3.4 1.35.3 2.1 1 2.21 2.43.16 2.2 1.12 4.18 2 6.16 1.17 2.68 2.6 5.24 3.64 7.98.3.76.56 1.52.58 2.35.02.56-.22.85-.75 1.07A18.43 18.43 0 0188.8 85a9.77 9.77 0 01-4.22-1.3z" fill="#dc0000"/><path d="M118.25 155.1c0 6.53-.01 13.07.02 19.6 0 .69-.15 1.07-.84 1.18-.17.03-.32.1-.48.15-.82.26-1.84.94-2.4.67a6.71 6.71 0 01-2.31-2.29c-.04-.06-.06-.14-.1-.17-1.98-1.12-1.36-2.77-.93-4.4 1.12-4.26 1.91-8.6 2.72-12.92.61-3.25 1.08-6.52 1.6-9.78.4-2.55.56-5.13.87-7.7.16-1.4.4-2.82.4-4.25-.02-.68.31-.78.89-.8.7-.04.56.42.56.8v19.91zM81.75 154.99v-19.6c.01-.38-.33-1 .57-1.01.8-.01.85.38.9 1.02.18 2.54.41 5.07.79 7.6.34 2.3.52 4.64.86 6.95.44 2.94.91 5.87 1.47 8.78.79 4.1 1.58 8.19 2.7 12.2.36 1.3.13 2.13-.86 3.05-.83.79-1.6 1.69-2.38 2.55-.29.3-.54.33-.86.15-.06-.03-.1-.1-.17-.12-.98-.32-2.43-.35-2.84-1.02-.5-.84-.18-2.2-.18-3.34v-17.21zM153.52 124.69v8.57c0 9.68-.02 19.36.03 29.04 0 1.18-.28 1.83-1.43 2.29-1.55.61-1.5.71-1.5-.95 0-12.13 0-24.26-.02-36.4 0-.9.17-1.48 1.13-1.74.6-.16 1.15-.52 1.79-.81zM46.48 124.65c.9.45 1.65.89 2.45 1.22.55.23.45.62.45 1.02v37.22c0 1.18.04 1.07-1.1.67-1.46-.52-1.86-1.38-1.84-2.95.08-12.34.04-24.68.04-37.18zM34.88 115.93c.8.84 1.6 1.7 2.42 2.52.29.29.26.6.26.95v38.3c-.87.04-.99-.8-1.44-1.21a4.47 4.47 0 01-1.5-3.6c.07-11.9.04-23.78.04-35.67v-1.13l.22-.16zM165.34 115.77v1.39c0 11.99-.01 23.98.03 35.97 0 1.14-.22 2.13-1.02 2.86-.63.57-.85 1.6-1.91 1.76V134.5c0-4.9.02-9.81-.02-14.72 0-.75.18-1.3.75-1.8.7-.6 1.31-1.31 2.17-2.2zM72.83 172.74h-.3c-.78-.22-1.93-.2-2.23-.7-.4-.67-.17-1.73-.17-2.63v-35.75c0-.73-.13-1.26 1.01-.96 1.66.42 1.69.3 1.69 2.03v38zM127.17 172.8v-1.69c0-12.26.03-24.53-.03-36.79-.01-1.11.37-1.43 1.31-1.58 1.43-.24 1.42-.27 1.42 1.23 0 12.26-.02 24.52.03 36.79 0 1.1-.26 1.6-1.37 1.66-.42.02-.83.23-1.36.38zM61 169.48c-.95-.4-2.08-.23-2.55-.92-.47-.7-.14-1.74-.14-2.63v-35.16c0-1.35-.02-1.28 1.3-.94 1.1.29 1.43.84 1.43 2.02-.06 12.14-.04 24.27-.04 36.4v1.23zM139 169.5v-1.04-37.23c0-.32-.2-.81.17-.93.77-.23 1.48-.67 2.32-.65.25 0 .2.24.2.4v.73c0 12.16-.01 24.33.03 36.5 0 1.12-.2 1.75-1.43 1.79-.38.01-.76.24-1.3.43zM27 73.54a11.82 11.82 0 004.34 3.81c.28.15.62.32.25.67-1.95 1.85-3.47 4-4.59 6.75V73.54zM172.95 84.75a16.91 16.91 0 00-2.85-4.92c-.46-.6-1.01-1.12-1.55-1.65-.38-.36-.38-.59.11-.84a9.98 9.98 0 004.29-4.06v11.47z" fill="#fecb00"/><path d="M95.88 69.76c.33-.71.55-1.28.9-1.8.27-.37.46-.62.94-.57.65.06 1.07.53 1.55.87.2.13-.12.24-.2.36a7.25 7.25 0 01-2.38 2.3c-.53.36-.96.12-1.19-.3-.83-1.5-1.65-3.02-1.93-4.76-.03-.24-.03-.48.22-.65.28-.18.48-.09.72.1.23.2.52.3.8.43.62.29.88.59.62 1.4-.24.74-.05 1.62-.05 2.62z" fill="#fefefe"/><path d="M91.7 81.1c-4.57 2.44-9.66-.39-12.54-2.93 3.97 1.71 8.17 2.48 12.55 2.93z" fill="#dc0000"/><path d="M151.65 17.07c0-1.62.03-3-.01-4.38-.01-.55.14-.72.7-.7 1.2.04 2.41.04 3.62 0 .57-.02.68.19.68.71v24.57c0 .57-.2.7-.71.68a42.23 42.23 0 00-3.52 0c-.7.04-.77-.25-.77-.83.02-4.5 0-8.99.03-13.48 0-.74-.15-1.4-.5-2.04-.7-1.36-1.38-2.73-2.21-4.38v6.07c0 4.6-.02 9.2.01 13.79 0 .64-.12.92-.83.87a25.11 25.11 0 00-3.22 0c-.77.05-.97-.17-.96-.95.03-6.95.02-13.9.02-20.84 0-1.18.02-2.35-.01-3.53-.02-.5.15-.65.64-.64 1.21.04 2.42.05 3.63 0 .58-.03.87.2 1.09.7.62 1.45 1.4 2.81 2.32 4.38zM29.47 24.98c0-4.04.02-8.08-.01-12.12 0-.66.14-.88.84-.87 2.8.04 5.6-.05 8.39.04 2.2.06 3.18 1.02 3.2 3.2.07 6.49.07 12.98 0 19.47-.02 2.2-1.02 3.14-3.2 3.21-2.79.1-5.59 0-8.39.04-.68.01-.85-.19-.84-.86.03-4.04.01-8.08.01-12.12zM170.32 25v9.32c.01 2.5-1.13 3.62-3.56 3.62-2.7 0-5.39-.02-8.08.01-.6 0-.82-.11-.82-.78.02-8.12.02-16.23 0-24.34 0-.71.22-.85.87-.84 2.76.03 5.53-.03 8.29.03 2.2.05 3.26 1.05 3.29 3.34.05 3.21.01 6.43.01 9.64zM142.73 26.11c0 3.66-.02 7.33.02 10.99 0 .68-.18.89-.86.85a30.3 30.3 0 00-3.31 0c-.71.04-.85-.22-.84-.87.03-4.18-.03-8.36.04-12.54.02-1-.3-1.27-1.2-1.13-.13.02-.28.02-.41 0-.71-.12-.93.14-.92.88.04 4.22 0 8.43.03 12.65.01.8-.18 1.07-1 1.02a30.3 30.3 0 00-3.32-.01c-.56.02-.68-.18-.68-.7.01-7.37-.04-14.73.04-22.08.02-2.13.99-3.04 3.17-3.14 1.96-.1 3.93-.06 5.9-.01 2.27.05 3.3 1.08 3.33 3.31.05 3.6.01 7.19.01 10.78zM118.67 25.06c0 4.01-.02 8.02.01 12.03 0 .67-.16.9-.85.86-1.1-.06-2.21-.06-3.31 0-.7.04-.85-.21-.84-.87.02-5.32-.04-10.65.05-15.97.02-1.22-.62-1.01-1.32-1.02-.69 0-1.26-.15-1.25 1 .09 5.28.02 10.57.06 15.86 0 .84-.24 1.05-1.03 1a32.5 32.5 0 00-3.21 0c-.56.02-.77-.1-.77-.73.02-8.15.02-16.31 0-24.47 0-.58.15-.78.74-.76 1.18.05 2.35.05 3.53 0 .6-.02.75.2.73.76-.03 1.56.02 3.12-.02 4.67-.02.6.1.84.78.83 1.72-.02 1.72.02 1.72-1.74 0-1.24.04-2.49-.02-3.73-.03-.67.2-.82.82-.79 1.03.05 2.08.07 3.1 0 .84-.06 1.12.14 1.1 1.04-.05 4-.02 8.02-.02 12.03zM66.81 23.88c0 3.59-.02 7.18 0 10.77.02 2.23-1.33 3.15-3.2 3.26-2 .11-4.01.1-6.01 0-2.2-.08-3.2-1.02-3.21-3.2-.07-7.32-.02-14.64-.04-21.97 0-.58.16-.77.75-.75 1.1.05 2.21.07 3.31 0 .8-.06.95.22.95.97-.03 6.84-.02 13.68-.02 20.52 0 1.32.37 1.59 1.71 1.42.78-.1.79-.56.79-1.15V14.68c0-.86-.28-1.98.15-2.5.46-.55 1.62-.16 2.47-.17 2.35-.02 2.35 0 2.35 2.33v9.54zM86.3 27.63c0-2-.03-4 .03-6.01.02-.89-.36-1.14-1.14-1.11-.9.02-1.8.02-2.7 0-2.41-.07-3.36-1.1-3.61-3.35-.1-.9-.04-1.82.1-2.75.24-1.73 1.65-2.35 2.93-2.39 2.1-.06 4.22-.06 6.33 0a3.4 3.4 0 013.05 4.25c-.12.42-.41.29-.65.3-1.2 0-2.42-.02-3.63 0-.5.02-.75-.07-.71-.66.06-.92-.65-.77-1.21-.8-.63-.02-1.21.03-1.26.84-.03.42 0 .83-.01 1.25-.03.75.35 1 1.07 1.04 1.4.06 2.8-.2 4.2.18 1.3.35 2.18 1.3 2.19 2.67.02 4.67.09 9.34-.03 14-.05 1.9-1.13 2.72-3.06 2.82-2.07.1-4.15.08-6.22 0-1.99-.06-3.12-1.16-3.13-3.2 0-3.67.03-7.33-.02-11-.01-.81.24-.98.98-.93 1 .06 2.01.06 3 0 .8-.05 1.05.15 1.04 1-.05 3.3.01 6.63-.04 9.95-.02 1 .48 1.1 1.25 1.1.75 0 1.31-.05 1.28-1.08-.07-2.04-.02-4.08-.02-6.12zM92.74 24.92v-9.64c0-2.07 1.21-3.27 3.29-3.27h5.7c2.04 0 3.13 1.12 3.23 3.1.08 1.44 0 2.9.03 4.35 0 .48-.12.66-.63.65a70.28 70.28 0 00-3.73 0c-.5 0-.65-.16-.64-.65.03-1.1 0-2.21.01-3.32.02-.83-.44-1.05-1.18-1.03-.7.01-1.13.14-1.12 1.02.03 5.91.03 11.82 0 17.72 0 .92.41 1.01 1.14.99.67-.02 1.22.03 1.18-.95-.07-1.8 0-3.59-.03-5.39-.02-.58.16-.76.74-.74 1.18.04 2.35.03 3.53 0 .49-.01.74.05.73.65-.03 2.21.02 4.42-.02 6.63a2.92 2.92 0 01-2.94 2.89c-2.1.02-4.21.02-6.32 0a2.94 2.94 0 01-2.97-3.07v-9.94zM43.37 24.98c0-4.04.01-8.09-.01-12.13-.01-.67.16-.87.84-.86 2.63.04 5.26.04 7.89 0 .7-.01.84.2.84.87-.01 2.26.01 2.26-2.23 2.26-2.35 0-2.35 0-2.35 2.33 0 .8.04 1.6-.01 2.39-.04.57.18.7.7.68 1.08-.04 2.15 0 3.22-.02.47-.01.65.1.67.62.09 2.09.11 2.08-2 2.09-.82 0-1.91-.28-2.4.14-.56.5-.16 1.62-.17 2.47-.03 2.66.02 5.33-.03 7.99-.01.76.13 1.1 1 1.03.99-.08 2.02-.15 3 .02 1.3.22.33 1.33.54 2 .1.33.42 1.1-.55 1.08-2.77-.02-5.53-.03-8.3.01-.71.01-.66-.36-.65-.83V24.98zM70.34 26.42c0-3.49-.02-6.98.01-10.47.01-.69-.19-.86-.86-.85-1.64.03-1.64 0-1.64-1.67 0-1.43 0-1.43 1.4-1.43 2.52 0 5.04.03 7.56-.01.64-.01.9.15.8.8-.03.13-.01.28-.01.41 0 1.77 0 1.81-1.74 1.9-.8.04-.53.57-.53.94-.02 6.5-.01 12.99-.01 19.48 0 2.41 0 2.43-2.38 2.4-.85 0-1.98.4-2.47-.18-.41-.5-.13-1.58-.13-2.4v-8.92zM120.12 24.9c0-3.97.02-7.95-.02-11.93 0-.72.1-1.06.94-.99 1.03.09 2.07.08 3.1 0 .77-.04.98.17.98.96-.03 6.84-.02 13.69-.02 20.53 0 1.35 0 1.35 1.37 1.35h.72c2.59 0 2.57 0 2.28 2.63-.05.45-.23.5-.58.49-2.74 0-5.47-.03-8.2 0-.7.02-.57-.4-.57-.8V24.9z"/><path d="M34.45 24.92c0-3 .02-6.01-.01-9.01-.01-.64.14-.9.8-.8.26.04.55.03.82 0 .68-.07.9.24.9.9-.04 2.45-.02 4.9-.02 7.36V33.4c0 1.42-.01 1.3-1.4 1.45-1.36.13-1.09-.71-1.09-1.45v-8.5zM162.85 24.87c0-2.94.03-5.87-.02-8.8 0-.77.17-1 .96-.97 1.55.06 1.55 0 1.55 1.59v16.98c0 .39.2.95-.32 1.08a4 4 0 01-2.04-.01c-.26-.07-.12-.5-.12-.76v-9.11zM135.26 17.92c0-.52.06-1.04 0-1.55-.13-1 .24-1.3 1.25-1.3 1 .01 1.33.3 1.26 1.3-.08 1.2-.05 2.4 0 3.6.02.59-.15.76-.74.76-1.77.01-1.77.04-1.77-1.68v-1.13z" fill="#fecb00"/></svg>