<?xml version="1.0" encoding="utf-8"?>
<!-- Generator: Adobe Illuger_strator 24.1.0, SVG Export Plug-In . SVG Version: 6.00 Build 0)  -->
<svg version="1.1" id="Layer_1" xmlns="http://www.w3.org/2000/svg" xmlns:xlink="http://www.w3.org/1999/xlink" x="0px"
	y="0px" viewBox="0 0 200 200" ger_style="enable-background:new 0 0 200 200;" xml:space="preserve">
	<style type="text/css">
		.ger_st0 {
			fill: #FEFEFE;
		}

		.ger_st1 {
			fill: #FECB00;
		}

		.ger_st2 {
			fill: #DC0000;
		}
	</style>
	<g>
		<path d="M17.03,131.94c0-0.41,0-0.83,0-1.24c0.34-0.55,0.34-1.11,0-1.66c0-42.7,0-85.39-0.02-128.09c0-0.78,0.18-0.95,0.95-0.95
		c54.69,0.02,109.38,0.02,164.07,0c0.78,0,0.95,0.17,0.95,0.95c-0.02,42.35-0.02,84.7-0.02,127.05c-0.23,0.05-0.2,0.24-0.21,0.4
		c-0.06,1.68-0.05,3.35-0.16,5.03c-0.16,2.44-0.47,4.87-0.93,7.24c-1.08,5.52-2.89,10.81-5.81,15.67
		c-2.66,4.43-6.17,8.11-10.25,11.23c-3.38,2.58-7.14,4.55-11.02,6.27c-4.33,1.92-8.82,3.39-13.34,4.73
		c-5.74,1.7-11.55,3.19-17.27,4.96c-3.37,1.05-6.66,2.29-9.88,3.75c-3.17,1.44-6.09,3.24-8.69,5.53c-2.13,1.89-4.02,4.01-5.4,6.66
		c-2.1-3.66-4.88-6.52-8.22-8.85c-2.55-1.78-5.32-3.15-8.18-4.37c-3.47-1.48-7.05-2.63-10.65-3.68c-5.52-1.62-11.11-3.04-16.6-4.76
		c-2.98-0.93-5.94-1.94-8.84-3.11c-3.51-1.41-6.88-3.06-10.08-5.05c-3.87-2.41-7.24-5.41-10.18-8.91c-2.02-2.4-3.65-5.06-5.01-7.86
		c-1.46-2.99-2.53-6.15-3.29-9.4c-0.75-3.25-1.35-6.53-1.52-9.87C17.42,133.04,17.29,132.48,17.03,131.94z M74.92,74.05
		c0.16,0.06,0.32,0.09,0.47,0.17c3.43,1.97,6.98,3.6,10.91,4.3c2.16,0.39,4.31,0.83,6.65,0.7c-1.17-1.82-2.27-3.52-4.33-4.35
		c-2.3-0.93-4.01,0.2-5.69,1.51c-0.11-0.2-0.2-0.35-0.28-0.5c-1.41-2.74-2.81-5.5-2.55-8.72c0.21-2.57,1.42-4.39,3.93-5.33
		c1.84-0.69,3.73-0.55,5.62-0.12c1.3,0.3,2.45,1.25,3.92-0.2c1.29-1.28,3.1-0.31,4.55,0.34c3.28,1.48,6.5,3.1,9.76,4.63
		c2.31,1.08,4.74,1.71,7.31,1.78c1.25,0.04,2.45-0.24,3.63-0.61c0.07,0.21,0.02,0.32-0.08,0.44c-1.69,1.95-3.67,3.47-6.2,4.14
		c-0.88,0.23-1.02,0.61-0.72,1.45c2.58,7.19,4.4,14.58,5.65,22.13c0.58,3.51,1.02,7.03,1.38,10.57c0.27,2.56,0.29,5.15,0.24,7.73
		c-0.04,2.17-0.01,2.1,2.21,1.88c3.33-0.33,6.62-0.95,9.86-1.73c6.31-1.52,12.47-3.48,18.06-6.93c2.9-1.78,5.55-3.86,7.55-6.61
		c2.52-3.47,3.92-7.31,3.41-11.73c-0.33-2.81-1.28-5.34-2.84-7.66c-0.23-0.34-0.4-0.5-0.75,0.06c-0.73,1.15-1.72,2.09-2.87,2.85
		c-3.59,2.39-7.42,2.73-11.43,1.31c-3.7-1.31-6.36-3.75-7.71-7.5c-0.15-0.41-0.37-0.79-0.05-1.29c2.03-3.17,4.55-5.86,7.91-7.62
		c3.6-1.89,7.5-2.28,11.47-1.68c3.36,0.51,6.65,1.34,9.93,2.21c2.3,0.61,4.65,0.99,7.05,0.88c1.81-0.09,2.13-0.38,2.13-2.13
		c0-5.98-0.02-11.96,0.03-17.94c0.01-0.93-0.24-1.11-1.13-1.11c-17.66,0.03-35.33,0.02-52.99,0.02c-30.25,0-60.49,0.01-90.74-0.03
		c-1.03,0-1.22,0.28-1.21,1.25c0.05,5.95,0.02,11.89,0.02,17.84c0,1.71,0.3,2.02,2.05,2.1c0.1,0,0.21,0,0.31,0
		c2.96,0.13,5.77-0.65,8.6-1.32c4.56-1.09,9.09-2.44,13.89-1.8c1.75,0.23,3.45,0.62,5.03,1.38c3.39,1.62,5.96,4.17,8.13,7.21
		c0.7,0.98,0.62,1.75,0.19,2.72c-0.9,2.04-2.23,3.7-4.02,5.02c-2.97,2.19-6.35,3.01-9.91,2.49c-3.43-0.5-6.22-2.31-8.17-5.33
		c-0.12,0.11-0.23,0.18-0.31,0.28c-2.8,4-3.82,8.41-2.63,13.15c1.17,4.69,4.05,8.25,7.9,11.1c2.39,1.77,4.93,3.26,7.64,4.48
		c3.28,1.48,6.69,2.59,10.14,3.55c3.44,0.96,6.94,1.61,10.45,2.24c2.03,0.37,4.08,0.58,6.13,0.86c0.37,0.05,0.34-0.21,0.37-0.46
		c0.13-1.08,0.22-2.16,0.43-3.22c1.05-5.34,3.31-10.11,6.58-14.46c1.27-1.68,2.38-3.48,3.25-5.43c0.82-1.86,1.09-3.81,1.34-5.77
		c0.07-0.53,0.06-1.08-0.18-1.61c-0.12-0.26-0.1-0.33-0.46-0.26c-1.99,0.38-3.99,0.45-6,0.11c-2.87-0.49-5.33-1.83-7.65-3.65
		c1.28-0.26,2.44,0.1,3.65,0.04c-3.85-1.58-6.98-3.98-9-7.67C74.8,74.15,74.86,74.1,74.92,74.05z M99.99,9.35
		c-23.99,0-47.97,0.01-71.96-0.02c-0.87,0-1.07,0.21-1.07,1.07c0.03,9.33,0.04,18.66,0,28c0,0.89,0.24,1.05,1.08,1.05
		c47.97-0.02,95.95-0.02,143.92,0c0.87,0,1.07-0.21,1.07-1.07c-0.03-9.3-0.04-18.6,0-27.89c0-0.97-0.28-1.16-1.19-1.16
		C147.9,9.36,123.94,9.35,99.99,9.35z M84.56,83.12c1.35,0.84,2.85,1.18,4.38,1.31c2.9,0.24,5.69-0.27,8.42-1.32
		c0.96-0.37,1.1-0.94,0.96-1.73c-0.12-0.66-0.36-1.31-0.6-1.93c-1.06-2.69-2.45-5.23-3.62-7.87c-0.87-1.98-1.82-3.96-1.98-6.17
		c-0.1-1.38-0.83-2.07-2.14-2.37c-1.46-0.33-2.85-0.66-4.4-0.41c-2.56,0.41-4.76,2.93-4.41,5.47c0.27,1.91,0.73,3.78,1.59,5.54
		c0.37,0.76,0.65,0.9,1.42,0.48c1.87-1.02,3.8-0.98,5.66,0.07c1.78,1,3.04,2.5,3.96,4.31c1.14,2.25,1.12,2.22-1.28,3.08
		C89.94,82.48,87.31,83.02,84.56,83.12z M118.25,154.55c0-6.63,0-13.27,0-19.9c0-0.43,0.14-0.9-0.62-0.86
		c-0.63,0.03-0.88,0.25-0.83,0.87c0.05,0.65-0.13,1.29-0.18,1.92c-0.23,3.01-0.63,6-1.03,8.99c-0.48,3.58-1.03,7.15-1.66,10.71
		c-0.77,4.37-1.59,8.73-2.74,13.02c-0.45,1.68-0.88,3.26,0.98,4.39c0.03,0.02,0.04,0.06,0.06,0.09c0.51,0.88,1.27,1.58,2.05,2.15
		c0.95,0.7,1.77-0.48,2.72-0.52c0.13-0.01,0.26-0.09,0.39-0.11c0.73-0.11,0.89-0.53,0.89-1.25
		C118.24,167.55,118.25,161.05,118.25,154.55z M81.75,154.41c0,5.81,0,11.61,0,17.42c0,1.04-0.35,2.34,0.14,3.03
		c0.48,0.68,1.84,0.74,2.8,1.08c0.09,0.03,0.17,0.11,0.26,0.16c0.34,0.19,0.58,0.12,0.86-0.17c0.79-0.85,1.55-1.76,2.39-2.54
		c1-0.92,1.19-1.76,0.85-3.06c-1.05-3.93-1.84-7.92-2.6-11.92c-0.57-3.01-1.05-6.04-1.56-9.06c-0.4-2.34-0.52-4.72-0.88-7.06
		c-0.37-2.42-0.55-4.85-0.8-7.28c-0.06-0.55,0.19-1.2-0.79-1.22c-1.04-0.02-0.65,0.69-0.65,1.13
		C81.74,141.42,81.75,147.91,81.75,154.41z M153.51,124.1c-0.61,0.29-1.13,0.64-1.71,0.78c-1.05,0.26-1.22,0.91-1.22,1.89
		c0.03,12.1,0.02,24.2,0.02,36.29c0,1.65-0.04,1.55,1.51,0.94c1.16-0.46,1.42-1.12,1.42-2.29c-0.04-12.06-0.03-24.13-0.03-36.19
		C153.51,125.07,153.51,124.62,153.51,124.1z M46.49,124.08c0,0.48,0,0.86,0,1.24c0,11.92,0.05,23.84-0.05,35.77
		c-0.01,1.7,0.43,2.63,1.99,3.19c0.74,0.26,0.99,0.35,0.98-0.61c-0.04-4.77-0.02-9.54-0.02-14.31c0-7.64,0-15.27-0.01-22.91
		c0-0.41,0.18-0.89-0.4-1.15C48.16,124.94,47.36,124.51,46.49,124.08z M37.57,157.16c0-12.86,0-25.61,0-38.36
		c0-0.24,0.05-0.56-0.08-0.69c-0.88-0.93-1.79-1.82-2.82-2.84c0,12.57,0.02,24.91-0.03,37.24c0,1.14,0.19,2.14,1,2.86
		C36.27,155.94,36.49,156.97,37.57,157.16z M162.43,157.23c1.05-0.44,1.43-1.37,2.06-2.05c0.5-0.54,0.87-1.13,0.86-1.98
		c-0.03-12.34-0.02-24.67-0.03-37.01c0-0.25,0.14-0.54-0.16-0.78c-0.78,0.79-1.55,1.58-2.35,2.34c-0.31,0.29-0.4,0.59-0.4,0.99
		C162.43,131.52,162.43,144.31,162.43,157.23z M72.83,152.21c0-6.04,0-12.09,0-18.13c0-1.67-0.03-1.54-1.65-1.97
		c-1.12-0.3-1.06,0.13-1.06,0.93c0.02,12.26,0.01,24.52,0.01,36.78c0,1.74,0,1.73,1.68,2.16c0.73,0.18,1.06,0.18,1.05-0.8
		C72.8,164.85,72.83,158.53,72.83,152.21z M127.17,172.36c0.5-0.49,1.01-0.5,1.44-0.54c1.04-0.1,1.29-0.52,1.28-1.54
		c-0.04-12.3-0.03-24.59-0.03-36.89c0-1.57,0.01-1.52-1.51-1.25c-0.96,0.17-1.22,0.56-1.22,1.57c0.05,12.43,0.03,24.87,0.03,37.3
		C127.17,171.39,127.17,171.76,127.17,172.36z M61,168.79c0-0.42,0-0.8,0-1.18c0-12.1-0.03-24.2,0.04-36.29
		c0.01-1.25-0.34-1.79-1.49-2.08c-1.27-0.32-1.25-0.39-1.25,0.99c0,11.72,0,23.44,0,35.15c0,2.66,0,2.66,2.49,3.46
		C60.83,168.85,60.87,168.83,61,168.79z M138.99,168.91c0.54-0.19,0.91-0.42,1.29-0.43c1.22-0.04,1.43-0.68,1.43-1.79
		c-0.04-12.17-0.03-24.33-0.03-36.5c0-0.24,0.01-0.48,0-0.73c-0.01-0.16,0.04-0.39-0.2-0.4c-0.83-0.02-1.55,0.42-2.32,0.65
		c-0.37,0.11-0.16,0.61-0.16,0.93c-0.01,12.41-0.01,24.82-0.01,37.23C138.99,168.18,138.99,168.49,138.99,168.91z M172.97,72.66
		c-1.17,1.95-2.58,3.25-4.39,4.12c-0.42,0.2-0.4,0.46-0.07,0.79c0.55,0.56,1.14,1.08,1.61,1.72c1.08,1.45,2.12,2.9,2.84,4.59
		C172.97,80.25,172.97,76.61,172.97,72.66z M27.05,72.67c0,3.92,0,7.57,0,11.43c1.06-2.62,2.5-4.72,4.39-6.5
		c0.36-0.34,0.43-0.59-0.08-0.84C29.6,75.89,28.18,74.62,27.05,72.67z M95.83,68.98c0.08-1-0.15-1.82,0.13-2.57
		c0.24-0.65,0.01-0.94-0.54-1.17c-0.33-0.14-0.66-0.33-0.95-0.54c-0.22-0.16-0.41-0.23-0.65-0.09c-0.29,0.17-0.29,0.46-0.24,0.73
		c0.28,1.7,1.1,3.19,1.9,4.67c0.21,0.39,0.63,0.67,1.17,0.34c0.99-0.61,1.85-1.36,2.48-2.35c0.06-0.1,0.18-0.29,0.17-0.3
		c-0.46-0.33-0.87-0.76-1.44-0.87c-0.38-0.07-0.78-0.1-1,0.45C96.64,67.81,96.26,68.28,95.83,68.98z M79.16,77.62
		c2.04,2.03,4.63,3.06,7.27,3.82c1.73,0.5,3.48-0.23,5.42-0.89C87.33,80.04,83.13,79.33,79.16,77.62z" />
		<path class="ger_st0" d="M17.03,129.04c0.34,0.55,0.34,1.11,0,1.66C17.03,130.15,17.03,129.59,17.03,129.04z" />
		<path class="ger_st1" d="M74.75,74.2c2.02,3.69,5.15,6.08,9,7.67c-1.21,0.06-2.37-0.3-3.65-0.04c2.32,1.83,4.78,3.16,7.65,3.65
		c2.01,0.34,4.01,0.28,6-0.11c0.36-0.07,0.34-0.01,0.46,0.26c0.23,0.53,0.24,1.08,0.18,1.61c-0.25,1.97-0.52,3.91-1.34,5.77
		c-0.87,1.96-1.98,3.75-3.25,5.43c-3.27,4.34-5.53,9.12-6.58,14.46c-0.21,1.06-0.3,2.14-0.43,3.22c-0.03,0.25,0,0.51-0.37,0.46
		c-2.04-0.28-4.1-0.49-6.13-0.86c-3.51-0.63-7.01-1.28-10.45-2.24c-3.46-0.97-6.86-2.07-10.14-3.55c-2.71-1.22-5.25-2.71-7.64-4.48
		c-3.85-2.85-6.73-6.42-7.9-11.1c-1.18-4.74-0.17-9.15,2.63-13.15c0.07-0.1,0.18-0.17,0.31-0.28c1.95,3.02,4.74,4.84,8.17,5.33
		c3.56,0.52,6.95-0.3,9.91-2.49c1.79-1.32,3.12-2.99,4.02-5.02c0.43-0.98,0.51-1.75-0.19-2.72c-2.17-3.04-4.74-5.59-8.13-7.21
		c-1.58-0.76-3.28-1.15-5.03-1.38c-4.8-0.64-9.33,0.71-13.89,1.8c-2.83,0.68-5.64,1.46-8.6,1.32c-0.1,0-0.21,0-0.31,0
		c-1.75-0.08-2.05-0.39-2.05-2.1c0-5.95,0.02-11.89-0.02-17.84c-0.01-0.97,0.18-1.25,1.21-1.25c30.25,0.03,60.49,0.03,90.74,0.03
		c17.66,0,35.33,0.01,52.99-0.02c0.89,0,1.14,0.19,1.13,1.11c-0.05,5.98-0.03,11.96-0.03,17.94c0,1.75-0.32,2.05-2.13,2.13
		c-2.4,0.11-4.76-0.27-7.05-0.88c-3.28-0.87-6.58-1.71-9.93-2.21c-3.97-0.6-7.87-0.21-11.47,1.68c-3.36,1.76-5.88,4.44-7.91,7.62
		c-0.32,0.5-0.09,0.88,0.05,1.29c1.35,3.75,4.01,6.19,7.71,7.5c4.01,1.42,7.84,1.08,11.43-1.31c1.15-0.76,2.14-1.71,2.87-2.85
		c0.36-0.56,0.52-0.4,0.75-0.06c1.56,2.32,2.52,4.85,2.84,7.66c0.51,4.42-0.88,8.26-3.41,11.73c-2,2.75-4.65,4.83-7.55,6.61
		c-5.59,3.44-11.75,5.41-18.06,6.93c-3.24,0.78-6.53,1.4-9.86,1.73c-2.22,0.22-2.25,0.28-2.21-1.88c0.05-2.58,0.02-5.17-0.24-7.73
		c-0.37-3.53-0.8-7.05-1.38-10.57c-1.25-7.54-3.06-14.93-5.65-22.13c-0.3-0.84-0.17-1.22,0.72-1.45c2.53-0.67,4.51-2.19,6.2-4.14
		c0.1-0.11,0.14-0.22,0.08-0.44c-1.18,0.37-2.38,0.65-3.63,0.61c-2.56-0.07-5-0.7-7.31-1.78c-3.26-1.52-6.47-3.15-9.76-4.63
		c-1.45-0.65-3.26-1.61-4.55-0.34c-1.47,1.45-2.62,0.5-3.92,0.2c-1.89-0.44-3.78-0.57-5.62,0.12c-2.5,0.94-3.72,2.76-3.93,5.33
		c-0.26,3.22,1.14,5.98,2.55,8.72c0.08,0.15,0.16,0.29,0.28,0.5c1.68-1.31,3.38-2.44,5.69-1.51c2.06,0.83,3.16,2.54,4.33,4.35
		c-2.33,0.13-4.48-0.32-6.65-0.7c-3.93-0.7-7.48-2.33-10.91-4.3c-0.14-0.08-0.31-0.12-0.47-0.17c-0.07-0.19-0.19-0.23-0.36-0.14
		C74.62,74.01,74.68,74.11,74.75,74.2z" />
		<path class="ger_st1"
			d="M99.99,9.35c23.95,0,47.9,0.01,71.86-0.02c0.91,0,1.19,0.18,1.19,1.16c-0.04,9.3-0.04,18.6,0,27.89
		c0,0.86-0.2,1.07-1.07,1.07c-47.97-0.02-95.95-0.02-143.92,0c-0.84,0-1.09-0.16-1.08-1.05c0.04-9.33,0.04-18.66,0-28
		c0-0.86,0.2-1.07,1.07-1.07C52.02,9.36,76.01,9.35,99.99,9.35z M148.95,16.96c0.06,0,0.12-0.01,0.18-0.01
		c0.64,1.3,1.22,2.63,1.93,3.88c0.46,0.81,0.61,1.62,0.6,2.53c-0.03,4.39,0,8.78-0.03,13.16c-0.01,0.69,0.19,0.88,0.86,0.85
		c1.1-0.05,2.21-0.04,3.32,0c0.59,0.02,0.84-0.07,0.84-0.77c-0.03-8.15-0.02-16.31,0-24.46c0-0.62-0.22-0.74-0.77-0.72
		c-1.14,0.04-2.28,0.05-3.42,0c-0.62-0.03-0.84,0.12-0.82,0.79c0.06,1.35,0.02,2.71,0.02,4.07c-0.91-1.39-1.67-2.8-2.38-4.23
		c-0.2-0.41-0.41-0.64-0.92-0.63c-1.24,0.04-2.49,0.03-3.73,0c-0.48-0.01-0.66,0.11-0.66,0.63c0.01,8.22,0.02,16.45,0,24.67
		c0,0.6,0.25,0.66,0.74,0.65c1.14-0.03,2.28-0.05,3.42,0.01c0.69,0.04,0.85-0.19,0.85-0.86c-0.03-4.56-0.02-9.12-0.02-13.68
		C148.95,20.87,148.95,18.92,148.95,16.96z M157.87,24.4c0,4.04,0.02,8.08-0.02,12.12c-0.01,0.67,0.17,0.87,0.85,0.86
		c2.8-0.04,5.59,0.05,8.39-0.04c2.17-0.07,3.17-1.01,3.2-3.21c0.07-6.49,0.07-12.98,0-19.47c-0.02-2.17-1.01-3.13-3.21-3.2
		c-2.79-0.09-5.59,0-8.39-0.04c-0.71-0.01-0.84,0.22-0.84,0.87C157.88,16.32,157.87,20.36,157.87,24.4z M29.48,24.29
		c0,4.07,0.01,8.15-0.02,12.22c0,0.66,0.16,0.87,0.85,0.86c2.8-0.04,5.59,0.05,8.39-0.04c2.18-0.07,3.18-1.02,3.2-3.21
		c0.07-6.49,0.07-12.98,0-19.47c-0.02-2.18-1.01-3.14-3.21-3.21c-2.79-0.09-5.59,0-8.39-0.04c-0.7-0.01-0.85,0.21-0.84,0.87
		C29.49,16.28,29.48,20.29,29.48,24.29z M142.73,25.64c0-3.63,0.04-7.26-0.01-10.88c-0.03-2.25-1.07-3.26-3.32-3.32
		c-1.97-0.05-3.94-0.09-5.91,0.01c-2.19,0.11-3.15,1.01-3.17,3.13c-0.08,7.36-0.02,14.72-0.04,22.08c0,0.64,0.25,0.73,0.79,0.71
		c1.07-0.03,2.15-0.07,3.21,0.01c0.82,0.06,1.02-0.2,1.02-1.01c-0.04-4.21,0-8.43-0.04-12.64c-0.01-0.74,0.2-1,0.92-0.89
		c0.2,0.03,0.42,0.04,0.62,0c0.86-0.16,0.99,0.26,0.99,1.02c-0.03,4.21,0,8.43-0.03,12.64c0,0.64,0.11,0.92,0.83,0.88
		c1.1-0.07,2.21-0.06,3.31,0c0.67,0.03,0.87-0.16,0.86-0.85C142.71,32.9,142.73,29.27,142.73,25.64z M106.22,24.36
		c0,4.04,0.01,8.09-0.01,12.13c0,0.63,0.1,0.93,0.83,0.88c1.1-0.07,2.21-0.06,3.32,0c0.67,0.03,0.88-0.15,0.86-0.84
		c-0.04-2.76-0.02-5.53-0.02-8.3c0-2.63,0.03-5.26-0.02-7.88c-0.01-0.69,0.2-0.94,0.86-0.83c0.1,0.02,0.21,0.02,0.31,0
		c1.03-0.18,1.38,0.16,1.36,1.28c-0.07,5.22-0.02,10.44-0.05,15.66c0,0.71,0.15,0.96,0.9,0.92c1.14-0.07,2.28-0.05,3.42-0.01
		c0.56,0.02,0.69-0.17,0.69-0.7c-0.02-8.19-0.02-16.39,0-24.58c0-0.58-0.21-0.68-0.72-0.67c-1.17,0.03-2.35,0.04-3.53,0
		c-0.58-0.02-0.78,0.14-0.76,0.74c0.04,1.24,0.01,2.49,0.01,3.73c0,1.82,0,1.79-1.78,1.78c-0.62,0-0.73-0.23-0.72-0.78
		c0.03-1.59-0.01-3.18,0.02-4.77c0.01-0.53-0.12-0.73-0.69-0.7c-1.14,0.04-2.28,0.06-3.42-0.01c-0.75-0.04-0.91,0.2-0.9,0.92
		C106.24,16.34,106.22,20.35,106.22,24.36z M66.81,23.36c0-3.7-0.02-7.39,0.02-11.09c0.01-0.68-0.17-0.89-0.85-0.85
		c-1.03,0.06-2.08,0.08-3.11-0.01c-0.89-0.08-1.06,0.24-1.05,1.08c0.04,6.87,0.02,13.75,0.02,20.62c0,0.39,0.15,0.85-0.32,1.11
		c-0.95,0.54-2.17-0.17-2.17-1.26c0-6.87-0.01-13.75,0.02-20.62c0-0.7-0.13-0.98-0.89-0.93c-1.07,0.07-2.14,0.07-3.21,0
		c-0.72-0.04-0.92,0.17-0.91,0.9c0.03,7.22,0,14.44,0.03,21.66c0.01,2.29,1.08,3.33,3.37,3.38c1.9,0.04,3.8,0.05,5.7,0
		c1.97-0.05,3.41-1.12,3.38-3.32C66.77,30.47,66.81,26.91,66.81,23.36z M86.31,27.01c0,2-0.05,4.01,0.02,6.01
		c0.03,0.97-0.34,1.23-1.24,1.24c-0.94,0.01-1.32-0.26-1.3-1.29c0.07-3.28,0-6.57,0.04-9.85c0.01-0.69-0.11-0.98-0.88-0.93
		c-1.07,0.07-2.14,0.06-3.21,0c-0.72-0.04-0.93,0.16-0.92,0.9c0.04,3.66,0.02,7.33,0.02,10.99c0,2,1.11,3.2,3.19,3.26
		c2.04,0.05,4.08,0.09,6.12-0.01c2.02-0.09,3.07-1.01,3.11-2.89c0.1-4.63,0.05-9.26,0.02-13.89c-0.01-1.42-0.85-2.33-2.25-2.71
		c-1.36-0.37-2.73-0.13-4.09-0.17c-0.78-0.03-1.15-0.32-1.11-1.11c0.02-0.34,0.01-0.69,0-1.04c-0.01-0.78,0.43-1.03,1.12-0.98
		c0.6,0.04,1.41-0.19,1.36,0.86c-0.02,0.43,0.09,0.61,0.57,0.6c1.28-0.03,2.56-0.01,3.84-0.01c0.26,0,0.56,0.08,0.59-0.36
		c0.13-2.47-0.57-3.96-3.12-4.16c-2.06-0.17-4.15-0.06-6.22-0.03c-1.68,0.03-2.44,0.74-2.94,2.36c-0.3,0.96-0.24,1.93-0.13,2.85
		c0.29,2.27,1.26,3.24,3.68,3.29c0.9,0.02,1.8,0.02,2.7,0c0.75-0.01,1.1,0.23,1.07,1.07C86.27,23,86.31,25.01,86.31,27.01z
		 M92.74,24.4c0,3.28-0.01,6.56,0,9.84c0,1.86,1.26,3.11,3.13,3.11c2.04,0.01,4.08,0.02,6.11,0c1.69-0.02,2.96-1.27,2.99-2.94
		c0.03-2.18-0.01-4.35,0.02-6.53c0.01-0.53-0.13-0.72-0.69-0.7c-1.21,0.04-2.42,0.04-3.63,0c-0.55-0.02-0.7,0.17-0.69,0.7
		c0.03,1.76-0.04,3.52,0.03,5.28c0.03,0.9-0.29,1.13-1.13,1.1c-0.75-0.02-1.2-0.06-1.19-1.05c0.05-5.87,0.04-11.74,0.01-17.62
		c0-0.84,0.33-1.06,1.07-1.08c0.79-0.02,1.26,0.21,1.23,1.09c-0.03,1.1,0.01,2.21-0.02,3.32c-0.01,0.45,0.14,0.6,0.59,0.59
		c1.24-0.03,2.49-0.04,3.73,0c0.57,0.02,0.69-0.19,0.68-0.71c-0.03-1.42,0.04-2.83-0.02-4.25c-0.09-2.02-1.19-3.13-3.2-3.14
		c-1.93-0.01-3.87-0.01-5.8,0c-2,0-3.22,1.23-3.23,3.23C92.74,17.9,92.74,21.15,92.74,24.4z M43.37,24.32c0,4.08,0,8.16,0,12.24
		c0,0.4-0.13,0.82,0.57,0.81c2.8-0.03,5.6-0.01,8.4-0.02c0.22,0,0.55,0.11,0.55-0.27c0.02-0.86,0.03-1.73-0.01-2.59
		c-0.02-0.35-0.37-0.24-0.58-0.24c-1.04-0.01-2.08-0.05-3.11,0.01c-0.67,0.03-0.88-0.15-0.86-0.84c0.04-2.73,0.01-5.46,0.02-8.19
		c0-0.82-0.28-1.92,0.14-2.4c0.49-0.57,1.62-0.17,2.47-0.18c2.03-0.03,2.01-0.01,1.97-2.02c-0.01-0.53-0.13-0.73-0.69-0.7
		c-1.07,0.04-2.14-0.02-3.21,0.03c-0.56,0.02-0.71-0.17-0.69-0.7c0.04-0.79,0.01-1.59,0.01-2.38c0-2.32,0-2.32,2.26-2.32
		c2.37,0,2.35,0,2.31-2.39c-0.01-0.6-0.19-0.74-0.76-0.74c-2.63,0.03-5.26,0.05-7.88-0.01c-0.83-0.02-0.94,0.27-0.93,0.99
		C43.39,16.37,43.37,20.35,43.37,24.32z M75.32,26.05c0-3.56,0-7.12,0-10.68c0-0.45-0.1-0.85,0.63-0.86
		c1.65-0.02,1.65-0.07,1.65-1.77c0-0.14-0.02-0.28,0-0.41c0.11-0.7-0.12-0.95-0.88-0.93c-2.35,0.05-4.7,0.02-7.05,0.02
		c-1.83,0-1.75,0-1.86,1.82c-0.06,1.1,0.29,1.5,1.34,1.29c1.05-0.21,1.2,0.28,1.2,1.23c-0.04,6.91-0.02,13.82-0.04,20.73
		c0,0.64,0.12,0.92,0.83,0.87c1.1-0.07,2.21-0.06,3.32,0c0.67,0.03,0.87-0.16,0.86-0.85C75.3,33.03,75.32,29.54,75.32,26.05z
		 M120.12,24.41c0,4.04,0,8.09,0,12.13c0,0.48-0.05,0.84,0.66,0.83c2.7-0.04,5.39-0.02,8.09-0.01c1.05,0,0.61-0.84,0.54-1.19
		c-0.13-0.64,0.71-1.68-0.55-1.9c-0.77-0.14-1.59-0.03-2.38-0.03c-1.38,0-1.38,0-1.38-1.33c0-6.84-0.01-13.69,0.02-20.53
		c0-0.76-0.15-1.03-0.95-0.97c-1.07,0.08-2.14,0.06-3.21,0c-0.7-0.04-0.85,0.2-0.85,0.86C120.13,16.32,120.12,20.36,120.12,24.41z" />
		<path class="ger_st2" d="M84.56,83.12c2.75-0.1,5.38-0.64,7.95-1.55c2.4-0.86,2.41-0.83,1.28-3.08c-0.91-1.81-2.17-3.31-3.96-4.31
		c-1.87-1.05-3.79-1.09-5.66-0.07c-0.77,0.42-1.05,0.28-1.42-0.48c-0.86-1.76-1.32-3.63-1.59-5.54c-0.36-2.54,1.85-5.06,4.41-5.47
		c1.55-0.25,2.95,0.09,4.4,0.41c1.32,0.3,2.05,0.98,2.14,2.37c0.15,2.21,1.1,4.19,1.98,6.17c1.16,2.64,2.56,5.18,3.62,7.87
		c0.25,0.63,0.48,1.27,0.6,1.93c0.15,0.79,0.01,1.36-0.96,1.73c-2.73,1.05-5.51,1.56-8.42,1.32C87.41,84.3,85.91,83.96,84.56,83.12z
		" />
		<path class="ger_st1" d="M118.25,154.55c0,6.5-0.01,12.99,0.02,19.49c0,0.72-0.16,1.14-0.89,1.25c-0.13,0.02-0.26,0.1-0.39,0.11
		c-0.95,0.04-1.77,1.22-2.72,0.52c-0.78-0.57-1.53-1.27-2.05-2.15c-0.02-0.03-0.03-0.07-0.06-0.09c-1.86-1.12-1.43-2.7-0.98-4.39
		c1.15-4.29,1.97-8.65,2.74-13.02c0.63-3.56,1.18-7.12,1.66-10.71c0.4-2.99,0.81-5.98,1.03-8.99c0.05-0.64,0.23-1.28,0.18-1.92
		c-0.05-0.62,0.2-0.84,0.83-0.87c0.76-0.04,0.62,0.43,0.62,0.86C118.25,141.28,118.25,147.92,118.25,154.55z" />
		<path class="ger_st1" d="M81.75,154.41c0-6.5-0.01-12.99,0.01-19.49c0-0.44-0.39-1.15,0.65-1.13c0.98,0.02,0.73,0.67,0.79,1.22
		c0.25,2.43,0.42,4.86,0.8,7.28c0.36,2.34,0.49,4.72,0.88,7.06c0.51,3.02,0.99,6.05,1.56,9.06c0.76,4,1.55,7.99,2.6,11.92
		c0.35,1.29,0.15,2.14-0.85,3.06c-0.84,0.78-1.6,1.69-2.39,2.54c-0.28,0.3-0.52,0.36-0.86,0.17c-0.09-0.05-0.16-0.13-0.26-0.16
		c-0.97-0.34-2.32-0.4-2.8-1.08c-0.49-0.69-0.14-1.99-0.14-3.03C81.75,166.02,81.75,160.22,81.75,154.41z" />
		<path class="ger_st1" d="M153.51,124.1c0,0.53,0,0.97,0,1.41c0,12.06-0.02,24.13,0.03,36.19c0,1.17-0.26,1.84-1.42,2.29
		c-1.55,0.61-1.51,0.72-1.51-0.94c0-12.1,0.01-24.2-0.02-36.29c0-0.97,0.16-1.63,1.22-1.89C152.38,124.74,152.9,124.39,153.51,124.1
		z" />
		<path class="ger_st1" d="M46.49,124.08c0.87,0.43,1.67,0.86,2.5,1.22c0.58,0.26,0.4,0.74,0.4,1.15c0.01,7.64,0.01,15.27,0.01,22.91
		c0,4.77-0.02,9.54,0.02,14.31c0.01,0.96-0.25,0.87-0.98,0.61c-1.56-0.56-2.01-1.49-1.99-3.19c0.1-11.92,0.05-23.84,0.05-35.77
		C46.49,124.94,46.49,124.56,46.49,124.08z" />
		<path class="ger_st1" d="M37.57,157.16c-1.08-0.19-1.29-1.22-1.93-1.79c-0.81-0.72-1-1.72-1-2.86c0.05-12.34,0.03-24.67,0.03-37.24
		c1.03,1.02,1.94,1.91,2.82,2.84c0.13,0.14,0.08,0.46,0.08,0.69C37.57,131.55,37.57,144.3,37.57,157.16z" />
		<path class="ger_st1" d="M162.43,157.23c0-12.92,0-25.7-0.01-38.49c0-0.41,0.1-0.7,0.4-0.99c0.8-0.76,1.56-1.55,2.35-2.34
		c0.3,0.24,0.16,0.53,0.16,0.78c0.01,12.34,0,24.67,0.03,37.01c0,0.85-0.36,1.44-0.86,1.98
		C163.87,155.85,163.49,156.78,162.43,157.23z" />
		<path class="ger_st1"
			d="M72.83,152.21c0,6.32-0.03,12.64,0.03,18.96c0.01,0.99-0.32,0.99-1.05,0.8c-1.68-0.42-1.68-0.41-1.68-2.16
		c0-12.26,0-24.52-0.01-36.78c0-0.8-0.06-1.23,1.06-0.93c1.61,0.43,1.65,0.3,1.65,1.97C72.83,140.12,72.83,146.17,72.83,152.21z" />
		<path class="ger_st1" d="M127.17,172.36c0-0.6,0-0.97,0-1.34c0-12.43,0.02-24.87-0.03-37.3c0-1.01,0.25-1.4,1.22-1.57
		c1.52-0.27,1.51-0.32,1.51,1.25c0,12.3-0.01,24.59,0.03,36.89c0,1.02-0.24,1.44-1.28,1.54
		C128.19,171.87,127.67,171.87,127.17,172.36z" />
		<path class="ger_st1"
			d="M61,168.79c-0.14,0.03-0.18,0.06-0.21,0.05c-2.49-0.8-2.49-0.8-2.49-3.46c0-11.72,0-23.44,0-35.15
		c0-1.38-0.02-1.32,1.25-0.99c1.15,0.29,1.49,0.84,1.49,2.08c-0.07,12.1-0.04,24.2-0.04,36.29C61,167.99,61,168.37,61,168.79z" />
		<path class="ger_st1" d="M138.99,168.91c0-0.42,0-0.73,0-1.04c0-12.41,0-24.82,0.01-37.23c0-0.32-0.21-0.82,0.16-0.93
		c0.77-0.23,1.48-0.68,2.32-0.65c0.25,0.01,0.2,0.24,0.2,0.4c0.01,0.24,0,0.48,0,0.73c0,12.17-0.01,24.33,0.03,36.5
		c0,1.12-0.21,1.75-1.43,1.79C139.91,168.49,139.53,168.72,138.99,168.91z" />
		<path class="ger_st1" d="M172.97,72.66c0,3.94,0,7.58,0,11.23c-0.72-1.69-1.77-3.14-2.84-4.59c-0.48-0.64-1.07-1.16-1.61-1.72
		c-0.33-0.34-0.35-0.59,0.07-0.79C170.39,75.91,171.81,74.61,172.97,72.66z" />
		<path class="ger_st1" d="M27.05,72.67c1.12,1.95,2.55,3.21,4.31,4.09c0.51,0.25,0.44,0.5,0.08,0.84c-1.89,1.78-3.33,3.88-4.39,6.5
		C27.05,80.24,27.05,76.6,27.05,72.67z" />
		<path class="ger_st0" d="M95.83,68.98c0.43-0.69,0.82-1.16,1.03-1.7c0.22-0.55,0.62-0.52,1-0.45c0.57,0.11,0.99,0.54,1.44,0.87
		c0.01,0.01-0.1,0.2-0.17,0.3c-0.62,1-1.48,1.74-2.48,2.35c-0.55,0.34-0.96,0.06-1.17-0.34c-0.8-1.48-1.62-2.97-1.9-4.67
		c-0.05-0.27-0.05-0.56,0.24-0.73c0.24-0.14,0.43-0.07,0.65,0.09c0.29,0.21,0.62,0.4,0.95,0.54c0.55,0.23,0.78,0.52,0.54,1.17
		C95.68,67.16,95.91,67.97,95.83,68.98z" />
		<path class="ger_st2" d="M79.16,77.62c3.97,1.71,8.17,2.43,12.69,2.93c-1.95,0.66-3.69,1.39-5.42,0.89
		C83.79,80.67,81.2,79.64,79.16,77.62z" />
		<path
			d="M74.75,74.2c-0.06-0.09-0.13-0.19-0.19-0.28c0.17-0.09,0.29-0.05,0.36,0.14C74.86,74.1,74.8,74.15,74.75,74.2z" />
		<path d="M148.95,16.96c0,1.96,0,3.91,0,5.87c0,4.56-0.01,9.12,0.02,13.68c0,0.67-0.16,0.89-0.85,0.86
		c-1.14-0.06-2.28-0.03-3.42-0.01c-0.49,0.01-0.74-0.05-0.74-0.65c0.02-8.22,0.02-16.45,0-24.67c0-0.52,0.18-0.64,0.66-0.63
		c1.24,0.03,2.49,0.03,3.73,0c0.5-0.01,0.71,0.22,0.92,0.63c0.72,1.43,1.47,2.84,2.38,4.23c0-1.36,0.04-2.72-0.02-4.07
		c-0.03-0.67,0.2-0.82,0.82-0.79c1.14,0.05,2.28,0.04,3.42,0c0.55-0.02,0.77,0.1,0.77,0.72c-0.02,8.15-0.02,16.31,0,24.46
		c0,0.69-0.25,0.79-0.84,0.77c-1.1-0.04-2.21-0.05-3.32,0c-0.67,0.03-0.87-0.16-0.86-0.85c0.03-4.39,0-8.78,0.03-13.16
		c0.01-0.91-0.14-1.72-0.6-2.53c-0.71-1.26-1.29-2.59-1.93-3.88C149.07,16.95,149.01,16.96,148.95,16.96z" />
		<path d="M157.87,24.4c0-4.04,0.01-8.08-0.01-12.12c0-0.65,0.13-0.88,0.84-0.87c2.8,0.04,5.59-0.05,8.39,0.04
		c2.2,0.07,3.19,1.03,3.21,3.2c0.07,6.49,0.07,12.98,0,19.47c-0.02,2.2-1.03,3.15-3.2,3.21c-2.79,0.09-5.59,0-8.39,0.04
		c-0.68,0.01-0.86-0.18-0.85-0.86C157.89,32.48,157.87,28.44,157.87,24.4z M162.85,24.39c0,3,0,6.01,0.01,9.01
		c0,0.26-0.14,0.69,0.12,0.76c0.66,0.18,1.38,0.18,2.03,0.02c0.53-0.13,0.32-0.7,0.32-1.08c0.01-5.66,0.01-11.32,0.01-16.98
		c0-1.58,0-1.53-1.55-1.59c-0.79-0.03-0.97,0.2-0.96,0.97C162.88,18.45,162.85,21.42,162.85,24.39z" />
		<path d="M29.48,24.29c0-4,0.01-8.01-0.01-12.01c0-0.66,0.15-0.88,0.84-0.87c2.8,0.04,5.59-0.05,8.39,0.04
		c2.19,0.07,3.18,1.02,3.21,3.21c0.07,6.49,0.07,12.98,0,19.47c-0.02,2.19-1.02,3.14-3.2,3.21c-2.79,0.09-5.59,0-8.39,0.04
		c-0.69,0.01-0.85-0.2-0.85-0.86C29.49,32.44,29.48,28.36,29.48,24.29z M34.46,24.4c0,3,0,6.01,0.01,9.01
		c0,0.26-0.13,0.72,0.12,0.75c0.67,0.09,1.38,0.13,2.04,0c0.52-0.1,0.31-0.7,0.31-1.08c0.01-5.66,0.01-11.32,0.01-16.98
		c0-1.57,0-1.52-1.56-1.58c-0.81-0.03-0.96,0.23-0.95,0.98C34.48,18.46,34.46,21.43,34.46,24.4z" />
		<path d="M142.73,25.64c0,3.63-0.02,7.26,0.02,10.88c0.01,0.69-0.19,0.88-0.86,0.85c-1.1-0.05-2.21-0.06-3.31,0
		c-0.72,0.04-0.84-0.23-0.83-0.88c0.03-4.21,0-8.43,0.03-12.64c0.01-0.76-0.12-1.18-0.99-1.02c-0.2,0.04-0.42,0.03-0.62,0
		c-0.72-0.12-0.92,0.15-0.92,0.89c0.04,4.21,0,8.43,0.04,12.64c0.01,0.81-0.2,1.07-1.02,1.01c-1.07-0.07-2.14-0.04-3.21-0.01
		c-0.54,0.02-0.79-0.07-0.79-0.71c0.02-7.36-0.03-14.72,0.04-22.08c0.02-2.12,0.99-3.03,3.17-3.13c1.96-0.09,3.94-0.06,5.91-0.01
		c2.26,0.06,3.29,1.07,3.32,3.32C142.77,18.38,142.73,22.01,142.73,25.64z M137.75,17.47c0-0.65-0.06-1.31,0.01-1.96
		c0.12-1.15-0.66-0.94-1.33-0.98c-0.75-0.04-1.26,0.04-1.19,1.03c0.09,1.16,0.1,2.35,0,3.51c-0.08,0.96,0.28,1.14,1.14,1.09
		c1.37-0.07,1.37-0.02,1.37-1.35C137.75,18.36,137.75,17.92,137.75,17.47z" />
		<path d="M106.22,24.36c0-4.01,0.02-8.02-0.02-12.03c-0.01-0.71,0.15-0.96,0.9-0.92c1.14,0.07,2.28,0.05,3.42,0.01
		c0.56-0.02,0.7,0.17,0.69,0.7c-0.03,1.59,0.01,3.18-0.02,4.77c-0.01,0.55,0.1,0.78,0.72,0.78c1.78,0.01,1.78,0.04,1.78-1.78
		c0-1.24,0.03-2.49-0.01-3.73c-0.02-0.6,0.18-0.76,0.76-0.74c1.17,0.04,2.35,0.03,3.53,0c0.51-0.01,0.72,0.09,0.72,0.67
		c-0.02,8.19-0.02,16.39,0,24.58c0,0.53-0.12,0.73-0.69,0.7c-1.14-0.04-2.28-0.06-3.42,0.01c-0.75,0.04-0.9-0.2-0.9-0.92
		c0.03-5.22-0.02-10.44,0.05-15.66c0.02-1.13-0.34-1.46-1.36-1.28c-0.1,0.02-0.21,0.02-0.31,0c-0.66-0.11-0.88,0.14-0.86,0.83
		c0.04,2.63,0.02,5.25,0.02,7.88c0,2.77-0.02,5.53,0.02,8.3c0.01,0.69-0.2,0.88-0.86,0.84c-1.1-0.05-2.21-0.06-3.32,0
		c-0.73,0.04-0.83-0.25-0.83-0.88C106.23,32.45,106.22,28.4,106.22,24.36z" />
		<path d="M66.81,23.36c0,3.56-0.04,7.12,0.01,10.67c0.03,2.2-1.41,3.26-3.38,3.32c-1.9,0.05-3.8,0.04-5.7,0
		c-2.29-0.04-3.37-1.09-3.37-3.38c-0.03-7.22,0-14.44-0.03-21.66c0-0.74,0.19-0.95,0.91-0.9c1.07,0.06,2.14,0.07,3.21,0
		c0.76-0.05,0.89,0.23,0.89,0.93c-0.03,6.87-0.02,13.75-0.02,20.62c0,1.09,1.22,1.8,2.17,1.26c0.46-0.26,0.32-0.72,0.32-1.11
		c0.01-6.87,0.02-13.75-0.02-20.62c0-0.84,0.16-1.16,1.05-1.08c1.03,0.09,2.07,0.06,3.11,0.01c0.68-0.04,0.86,0.18,0.85,0.85
		C66.8,15.96,66.81,19.66,66.81,23.36z" />
		<path d="M86.31,27.01c0-2-0.04-4.01,0.02-6.01c0.02-0.84-0.33-1.09-1.07-1.07c-0.9,0.02-1.8,0.02-2.7,0
		c-2.42-0.05-3.39-1.02-3.68-3.29c-0.12-0.92-0.17-1.89,0.13-2.85c0.5-1.62,1.26-2.33,2.94-2.36c2.07-0.04,4.16-0.14,6.22,0.03
		c2.55,0.21,3.25,1.69,3.12,4.16c-0.02,0.45-0.33,0.36-0.59,0.36c-1.28,0.01-2.56-0.02-3.84,0.01c-0.47,0.01-0.58-0.17-0.57-0.6
		c0.05-1.05-0.76-0.81-1.36-0.86c-0.7-0.05-1.14,0.2-1.12,0.98c0.01,0.35,0.01,0.69,0,1.04c-0.04,0.79,0.33,1.08,1.11,1.11
		c1.36,0.05,2.74-0.2,4.09,0.17c1.4,0.38,2.25,1.29,2.25,2.71c0.02,4.63,0.07,9.26-0.02,13.89c-0.04,1.87-1.08,2.79-3.11,2.89
		c-2.03,0.09-4.08,0.06-6.12,0.01c-2.09-0.06-3.2-1.26-3.19-3.26c0.01-3.66,0.02-7.33-0.02-10.99c-0.01-0.74,0.2-0.94,0.92-0.9
		c1.07,0.06,2.15,0.07,3.21,0c0.77-0.05,0.89,0.24,0.88,0.93c-0.04,3.28,0.03,6.57-0.04,9.85c-0.02,1.03,0.35,1.29,1.3,1.29
		c0.9-0.01,1.27-0.27,1.24-1.24C86.26,31.02,86.31,29.02,86.31,27.01z" />
		<path d="M92.74,24.4c0-3.25,0-6.49,0-9.74c0-2,1.22-3.22,3.23-3.23c1.93,0,3.87-0.01,5.8,0c2,0.01,3.11,1.12,3.2,3.14
		c0.06,1.41-0.01,2.83,0.02,4.25c0.01,0.52-0.11,0.73-0.68,0.71c-1.24-0.04-2.49-0.03-3.73,0c-0.45,0.01-0.6-0.13-0.59-0.59
		c0.03-1.1-0.01-2.21,0.02-3.32c0.02-0.89-0.45-1.11-1.23-1.09c-0.74,0.02-1.08,0.24-1.07,1.08c0.03,5.87,0.04,11.74-0.01,17.62
		c-0.01,0.98,0.44,1.02,1.19,1.05c0.84,0.03,1.17-0.2,1.13-1.1c-0.07-1.76,0-3.52-0.03-5.28c-0.01-0.53,0.13-0.72,0.69-0.7
		c1.21,0.04,2.42,0.04,3.63,0c0.56-0.02,0.69,0.17,0.69,0.7c-0.03,2.18,0.01,4.35-0.02,6.53c-0.02,1.67-1.3,2.92-2.99,2.94
		c-2.04,0.02-4.08,0.01-6.11,0c-1.87-0.01-3.13-1.25-3.13-3.11C92.73,30.96,92.74,27.68,92.74,24.4z" />
		<path d="M43.37,24.32c0-3.98,0.02-7.95-0.02-11.93c-0.01-0.73,0.1-1.01,0.93-0.99c2.63,0.06,5.25,0.04,7.88,0.01
		c0.57-0.01,0.75,0.14,0.76,0.74c0.03,2.39,0.06,2.39-2.31,2.39c-2.26,0-2.26,0-2.26,2.32c0,0.8,0.03,1.59-0.01,2.38
		c-0.03,0.53,0.12,0.73,0.69,0.7c1.07-0.04,2.14,0.02,3.21-0.03c0.56-0.02,0.68,0.17,0.69,0.7c0.04,2.01,0.06,1.98-1.97,2.02
		c-0.85,0.01-1.98-0.39-2.47,0.18c-0.42,0.48-0.14,1.58-0.14,2.4c-0.01,2.73,0.02,5.46-0.02,8.19c-0.01,0.69,0.2,0.88,0.86,0.84
		c1.03-0.05,2.07-0.02,3.11-0.01c0.21,0,0.56-0.12,0.58,0.24c0.04,0.86,0.03,1.73,0.01,2.59c-0.01,0.38-0.34,0.27-0.55,0.27
		c-2.8,0.01-5.6-0.02-8.4,0.02c-0.7,0.01-0.57-0.41-0.57-0.81C43.37,32.48,43.37,28.4,43.37,24.32z" />
		<path d="M75.32,26.05c0,3.49-0.02,6.98,0.02,10.47c0.01,0.69-0.19,0.88-0.86,0.85c-1.1-0.06-2.21-0.06-3.32,0
		c-0.72,0.04-0.83-0.23-0.83-0.87c0.02-6.91-0.01-13.82,0.04-20.73c0.01-0.95-0.15-1.44-1.2-1.23c-1.05,0.21-1.4-0.19-1.34-1.29
		c0.1-1.81,0.03-1.82,1.86-1.82c2.35,0,4.7,0.03,7.05-0.02c0.76-0.02,0.99,0.23,0.88,0.93c-0.02,0.13,0,0.28,0,0.41
		c0,1.7,0,1.75-1.65,1.77c-0.73,0.01-0.63,0.41-0.63,0.86C75.32,18.93,75.32,22.49,75.32,26.05z" />
		<path d="M120.12,24.41c0-4.04,0.01-8.09-0.01-12.13c0-0.66,0.15-0.9,0.85-0.86c1.07,0.06,2.15,0.07,3.21,0
		c0.8-0.06,0.96,0.21,0.95,0.97c-0.03,6.84-0.02,13.69-0.02,20.53c0,1.33,0,1.33,1.38,1.33c0.8,0,1.61-0.11,2.38,0.03
		c1.26,0.22,0.41,1.26,0.55,1.9c0.07,0.35,0.51,1.19-0.54,1.19c-2.7-0.01-5.39-0.03-8.09,0.01c-0.71,0.01-0.66-0.35-0.66-0.83
		C120.12,32.5,120.12,28.45,120.12,24.41z" />
		<path class="ger_st1" d="M162.85,24.39c0-2.97,0.03-5.94-0.02-8.91c-0.01-0.77,0.17-1,0.96-0.97c1.55,0.06,1.55,0.01,1.55,1.59
		c0,5.66,0,11.32-0.01,16.98c0,0.38,0.21,0.95-0.32,1.08c-0.66,0.17-1.37,0.17-2.03-0.02c-0.26-0.07-0.12-0.5-0.12-0.76
		C162.85,30.39,162.85,27.39,162.85,24.39z" />
		<path class="ger_st1" d="M34.46,24.4c0-2.97,0.03-5.94-0.02-8.91c-0.01-0.75,0.14-1.01,0.95-0.98c1.56,0.07,1.56,0.01,1.56,1.58
		c0,5.66,0,11.32-0.01,16.98c0,0.38,0.21,0.98-0.31,1.08c-0.66,0.13-1.37,0.09-2.04,0c-0.25-0.04-0.12-0.49-0.12-0.75
		C34.45,30.41,34.46,27.4,34.46,24.4z" />
		<path class="ger_st1" d="M137.75,17.47c0,0.45,0,0.89,0,1.34c0,1.33,0,1.28-1.37,1.35c-0.86,0.04-1.22-0.13-1.14-1.09
		c0.1-1.16,0.09-2.34,0-3.51c-0.07-0.99,0.44-1.07,1.19-1.03c0.67,0.04,1.45-0.17,1.33,0.98C137.7,16.16,137.75,16.82,137.75,17.47z
		" />
	</g>
</svg>