<svg xmlns="http://www.w3.org/2000/svg" viewBox="0 0 200 200"><path d="M199.6 152.6c.42-1.13.3-2.43-.52-3.56-.91-1.26-1.55-2.71-2.5-3.93-.92-1.17-2.46-1.84-2.72-3.53-.01-.06-.13-.11-.18-.17a23.6 23.6 0 00-4.44-3.87c-1.47-1.08-3.62-1.03-4.88-2.61-.06-.07-.24-.04-.36-.07l-5.93-1.64c.78-.6 1.2-1.27 1.33-2.14.18-1.13.46-2.25.64-3.38.48-2.85.93-5.7 1.38-8.55.4-2.49.8-4.97 1.15-7.46.4-2.87 1.13-5.69 1.16-8.61a5.17 5.17 0 00-2.83-4.79c-1.88-1.04-4.52-.85-5.97.98-.47.59-.82.52-1.29 0a1.32 1.32 0 01-.36-1.02c.1-2.65-.29-5.27-.57-7.88-.13-1.24-.06-2.54-.6-3.78-.2-.45-.73-1.23-.19-1.86.81-.94 1.68-1.84 2.52-2.75.3.69.56 1.33.88 1.95.66 1.29 1.9 1.87 3.08 1.5.76-.23 1.07.03 1.49.44l.98 1c2.88 2.85 8.04 2.3 10.1-1.14.37-.64.5-1.43.28-2.27-.47-1.68-1.66-2.75-2.92-3.77-.33-.26-.48-.45-.56-.86-.3-1.4-.76-2.84-2.25-3.3-1.98-.61-3.47-1.97-5.2-2.96-2.57-1.46-5.23-2.2-8.12-1.04-1.11.44-2.01 1.24-3 1.89-.29.19-.73.62-.97-.03a53.6 53.6 0 00-4.34-9.18c-.1-.17-.29-.38-.04-.74 1.24-1.78 1.06-3-.62-4.35-.27-.22-.35-.36-.39-.66-.18-1.31-.74-2.5-1.3-3.67a4 4 0 00-2.25-2.01c-.92-.35-1.95-.1-2.78-.5a16.28 16.28 0 01-4.72-3.6c-.5-.54-.31-.92-.03-1.28 1.95-2.55 3.78-5.18 5.54-7.86 1.47-2.23 2.97-4.43 4.38-6.69 1-1.6 1.27-4.2-1.37-5.34h-1.78c-1.2.13-1.9 1-2.63 1.81-2.9 3.26-5.89 6.44-8.84 9.65-.42.45-.75.6-1.3.23a3.15 3.15 0 00-2.55-.39c-1.45.3-2.75.08-4.1-.76a70.9 70.9 0 00-27.98-10.16c-1.92-.27-3.86-.11-5.78-.38h-9.16c-1.8.24-3.6.12-5.4.31-2.9.32-5.74.92-8.56 1.68-.7.19-1.29.18-1.9-.3a8.11 8.11 0 00-3.74-1.7h-1.27c-1.59.11-2.6 1.02-3.36 2.35-.7 1.23-.83 1.22-2.05.43a8.12 8.12 0 00-10.37 1.05c-1.68 1.78-2.76 3.95-2.1 6.6.3 1.2-.28 2.32-.45 3.48-.07.4-.5.52-.92.55-3.64.32-5.64 2.56-6.76 5.8-.24.7-.5 1.34-1.04 1.86a64.61 64.61 0 00-8.09 9.79c-.5.72-1.07 1.12-1.98 1.1-1.54-.03-2.9.51-4.08 1.51-.4.34-.8.68-1.36.58-2.7-.53-5.53-.36-8.17-1.15a23.53 23.53 0 00-12.3-.23 5.84 5.84 0 01-3.37-.17 4.62 4.62 0 00-4.77.86c-.32.28-.7.48-1.06.7-1.58.93-2.82 2.13-3.09 4.07v1.28c.47.85.96 1.68 2.03 1.91.4.1.58.31.48.81-.32 1.5-.56 3.04-.45 4.58.1 1.53.58 2.95 2.13 3.62 1.56.68 2.76.1 3.73-1.25.5-.71 1.8-.4 2 .45a5.3 5.3 0 002.29 3.17c1.64 1.13 3 .91 4.12-.52.43-.54.5-1.26.62-1.95 0 .87.2 1.67.62 2.4.25.42.05.54-.27.65-1.17.4-1.93 1.33-2.68 2.2-1.43 1.66-1.28 4.87 1.22 5.08 1.61.13 2.63.93 3.9 1.5.43.2.92.5 1.36.46.72-.06.82.38.94.84.34 1.3 1.26 1.91 2.5 1.97.79.04 1.34.33 1.87.85.3.28.66.62 1.02.65.79.09.84.53.82 1.14a13.46 13.46 0 01-.91 4.47c-3.28 8.96-6.21 18.04-9.3 27.07-1.1 3.26 1.58 6.84 4.94 6.8 1.02 0 2.04-.04 3.05.02 1.96.1 3.73-.24 5-1.91.32-.4.63-.54 1-.05a5 5 0 004.6 1.94c.28-.01.54.04.65.28.14.3-.18.48-.36.58-2.3 1.28-4.8 2.22-7.24.83-2.64-1.52-5.2-1.39-7.8-.38-2.26.87-4.4 3.26-3.22 5.67.3.6.18.86-.08 1.34-.49.9-.92 1.9-.73 2.93.37 1.98 2.5 2.82 4.36 1.8 1.2-.66 2-.24 1.95 1.08a5.08 5.08 0 00.8 2.93c.86 1.42 2.36 2.15 3.75 1.07 1.15-.9 2.13-1.69 3.65-1.82.72-.06 1-.02 1.22.63.55 1.61 1.8 2.25 3.38 1.7 1.52-.53 2.4-1.72 2.96-3.13.23-.58.4-.84 1.07-1.07 1.4-.46 2.84-.79 4.17-1.34.75-.3.97-.18 1.4.25 2.68 2.64 5.2 5.43 8.1 7.82.78.64 1.02 1.06.67 2.14a2.6 2.6 0 002.95 3.34c.67-.12.88.1 1.23.42.4.38.34.78.13 1.25a8.24 8.24 0 00-.88 3.56 3.22 3.22 0 001.77 2.93c1.15.61 2.29.33 3.22-.7.56-.61 2.74-.34 3.21.38a8.33 8.33 0 003.78 3.17h1.53c1.64-.43 2.17-1.07 2.33-2.82.1-1.19.4-1.4 1.52-1.07.5.14.96.34 1.38.63.56.39 1.17.7 1.86.75 1.44.1 2.81.54 4.21.86 2.92.67 5.84 1.32 8.86 1.44 1.16.05 2.35-.12 3.5.21h9.67c1.8-.25 3.6-.1 5.4-.32 2.64-.32 5.25-.85 7.82-1.55.8-.21 1.47-.17 2.08.47a5 5 0 002.77 1.4h3.56c.7-.18 1.38-.35 1.8-1.03.56-.93.7-1.92.45-2.94-.27-1.09.15-1.64 1.14-2.04 2.04-.83 4-1.86 5.92-2.93a79.59 79.59 0 0011.93-8.4c1.27-1.06 2.64-1.9 4.5-1.46 1.13.27 2.25-.11 3.24-.8 1.02-.68 2.1-1.28 3.1-1.98.31-.22.65-.53 1.04-.34 1.57.76 3.45.9 4.64 2.47a6.8 6.8 0 002.88 2.02c2.97 1.27 5.69.77 8.28-1 1.64-1.1 2.13-3.46.77-4.88a44.78 44.78 0 01-5.27-6.77c.35.26.84.03 1.33-.02.87-.1 1.72-.41 2.63-.07 1.82.7 3.74 1.1 5.63 1.54.67.16 1.3.36 1.82.83 1.26 1.14 2.62 2.16 3.95 3.2.48.37.93.75 1.12 1.35.27.86.85 1.56 1.25 2.34 1.23 2.37 3.4 4.07 4.52 6.56a3.04 3.04 0 003.45 1.84c1.38-.28 2.42-.97 2.65-2.5v-2.03c-.55-.9-.83-1.72-.4-2.89zm-35.42-17.04l1.48-3.02 1.48 1.19c-1.33.07-1.68 1.3-2.96 1.83z" fill="#fefefe"/><path d="M160.28 63.11c2.8 4.62 5.03 9.5 6.89 14.56 0 .53-.41.76-.79.88-.99.33-2.05.22-2.94-.2-.88-.41-.92-1.33-.64-2.23.19-.58-.22-.95-.57-1.32-.39-.4-.86-.7-1.26-1.1.9 1.63.9 3.55 1.75 5.2.07.14.07.33.02.5-1.24 4.03-2.05 8.23-4.91 11.59-3.79 4.43-8.13 7.94-14.08 8.91-1.84.3-3.7.03-5.56.1 10.9-1.2 15.56 8.04 13.38 15.05.9-2.18 2.33-4.63 3.7-7.1a41.53 41.53 0 004.02-9.57c.12-.48.05-1.34 1-1.13 1.04.24 2.15 1.52 1.82 2.2-.35.74-.08.98.52 1.2.2.08.38.21.5.38.58.77 1.08 1.61 2.12.43.31-.35.89-.03 1.29.22 2.05 1.28 3.18 3.23 3.92 5.46.16.5.08 1.03-.27 1.48.9-1.18 1.68-2.4 2.88-3.27a16.45 16.45 0 003.16-3.78 2.46 2.46 0 012.78-1.24c1.28.29 2.1 1.33 2.16 2.67.08 1.72-.36 3.38-.6 5.06-.42 2.95-.95 5.87-1.44 8.8l-1.73 10.51c-.12.78-.2 1.56-.3 2.34-.18 1.25-.75 2.25-2.05 2.47-1.75.3-3.55.33-5.28.01-1.78-.32-2.62-2.35-2-4.58.21-.76.03-1.57.32-2.34-1.2 1.41-2.34 2.87-3.6 4.22-.64.7-.97 1.53-1.38 2.33a73.74 73.74 0 01-4.86 8.14c-.37.35-.79.24-1.2.1a7.97 7.97 0 01-2.87-1.59c-1.43-1.3-1.51-1.93-.46-3.56.48-.76.8-1.6 1.1-2.43.7-1.95 1.37-3.92 2.1-5.86.16-.4.26-.8.15-1.38-.8 1.8-1.78 3.34-2.6 4.96-.8 1.56-1.98 2.53-3.83 2.44-.74-.03-1.2.23-1.34 1.01-.2 1.04-.66 2.02-.93 3.04-.6 2.22-.05 4.24 2.65 4.57 1.67.21 3.4.7 4.8 1.84.08.83-.58 1.26-.99 1.82-.31.44-.75.8-.95 1.32-.7.92-1.75 1.46-2.56 2.27-.38.38-.9.38-1.4.06-2.05-1.32-4.35-1.19-6.62-1.02-1.4.1-1.9-.03-2.43-1.37a3.33 3.33 0 00-1.07-1.39c-.7-.55-1.4-1.1-2.08-1.67-.67-.56-1.35-1.02-2.3-.76-.46.13-.87-.07-1.04-.52-.2-.57.31-.74.68-.87 1.72-.62 3.43-1.23 5.16-1.82 1.25-.44 2.42-1 3.58-1.64 1.59-.86 2.6-2.26 3.4-3.83.33-.61.26-.93-.52-1.16-2.22-.66-2.94-2.3-2.01-4.45.45-1.05.95-2.07 1.66-3.22a21.1 21.1 0 01-12.6 7.6c-1.72.35-3.46.27-5.2.08-1.34-.14-1.52.07-1.03 1.37.29.75.58 1.5.9 2.25.35.87.07 1.45-.72 1.89-.9.5-1.9.74-2.88.98-1.04.25-1.48.78-1.64 1.9-.5 3.33-.9 6.71-2.46 9.8-.6 1.17-1.45 2.07-2.3 3.01-1.12 1.23-1.99 2.57-1.12 4.37.42-.23.53-.67.83-.94.89-.78 1.34-.7 1.79.4.06.15.05.37.24.4 1.31.24 1.12 1.28.98 2.1-.35 2.03.22 4 .23 6.01 0 .29.2.57-.03.85a78.36 78.36 0 01-12.67 2.6c-3.82.43-7.64.64-11.44.4-5.69-.33-11.32-1.15-16.76-2.98-.15-.05-.34-.02-.5-.02-.35-.24-.25-.6-.23-.93a4.08 4.08 0 00-.63-2.42c-.36-.58-.72-1.15-.93-1.8-.24-.72-.87-1-1.51-1.26-.78-.32-.64-.86-.4-1.46.29-.71.71-.59 1.2-.28.9.56 2.06.52 2.85 1.35.33.35.48-.13.57-.39a4.69 4.69 0 00-.5-4.48c-.43-.63-.96-1.2-1.23-1.92-.12-.31-.28-.66.06-.93.28-.21.57-.05.83.08 1.09.58 2.27 1.04 2.62 2.4.87-2.04.28-3.68-1.33-5.06a5.62 5.62 0 01-1.03-1.29c-.18-.28-.4-.6-.13-.93.25-.3.61-.23.95-.15.74.2 1.46.45 2.13 1.08.38-1.42-.11-2.47-.92-3.43-.2-.23-.42-.42-.63-.63-.24-.25-.52-.52-.32-.88.22-.4.64-.36 1.03-.31.44.05.78.3 1.06.58-.06-1.66-.96-2.78-2.37-3.59a16.7 16.7 0 01-7.22-7.62c-.38-.82-.61-1.2-1.58-.5-1.36.96-3.02.43-4.04-1.13-1.04-1.6-2-3.26-2.96-4.9-.88-1.5-1.85-2.94-2.72-4.5-.93 2.66-1.89 5.28-2.74 7.94-.18.57-.28 1.22-.72 1.6-.88.76-.98 1.6-.98 2.73-.01 1.29.33 2.2 1.24 3.01.75.67 1.62 1.27 1.49 2.54.48-.29.64-.6.84-.87.21-.3.4-.77.84-.62.4.15.35.64.37 1.01.04.71.09 1.41.76 2.12.27-1.8 1.6-3.08 1.27-4.88-.1-.53.3-.76.82-.43.33.2.6.48.84.77 1.48 1.8 3.08 3.5 4.95 4.9.8.6 1.18 1.35 1.01 2.31-.38 2.2-.1 4.4-.24 6.6-.15 2.3-.44 4.56-1.98 6.45-1.38 1.71-3.28 2.06-5 .72a3.78 3.78 0 00-3.3-.8c-.8.15-1.65.38-2.48 0-1.6-1.34-3.23-2.68-4.82-4.05a81.16 81.16 0 01-6.61-6.56c-.5-.55-1-1.1-1.54-1.62-.02-.09-.05-.2 0-.24 1.55-1.28 1.99-3.06 2.3-4.92.15-.82.7-1.42 1.36-1.93.82-.62 1.74-1.04 2.65-1.5.99-.5 1.02-1.34.91-2.27-.1-.92-.81-.85-1.47-1.05-1.1-.34-2.1-.2-3.2-.02-1.49.25-3.05.26-4.54-.01-1-.18-1.4.15-1.72.97-.28.7-.64 1.38-1.15 1.96-.26.3-.44.76-.99.61-.6-1.1-1.17-2.25-1.84-3.32-.57-.92-1.55-.4-2.32-.42-1.28-.01-2.34-.38-2.95-1.5-.46-.85-.7-1.83-1.07-2.73-.35-.88-.73-1.73-1.17-2.75l-1.62 4.74c-.5 1.5-1.45 2.25-3.04 2.2-1.5-.06-3 .2-4.51-.2-1.37-.35-2.17-2.12-1.75-3.35l9.05-26.6c.04-.12.03-.3.11-.34 1.6-.99 1.15-2.57 1.15-3.99 0-1.64.47-3.25.25-4.9.37-.86 1.29-1.03 1.96-1.52.24-.17.56-.28.82-.04.26.23.15.54.06.83-.1.37-.37.66-.52 1.12a4.03 4.03 0 003.44-1.52c.27-.32.54-.8 1-.67.55.17.4.76.45 1.2.05.47-.1.92-.13 1.47 1.09.1 1.97-.31 2.77-.97.3-.24.55-.53.85-.78.34-.28.69-.76 1.2-.44.43.28.16.76.12 1.17-.04.36-.47.68-.15 1.05.14.15.4.07.6-.03.5-.28.3-.73.26-1.14a16.1 16.1 0 01.77-6.88c1.8-5.16 3.6-10.33 5.3-15.52.68-2.1 1.77-2.86 3.95-2.89 1.02-.01 2.04-.04 3.06.01 2.5.13 3.75 1.92 2.95 4.29-1.77 5.26-3.62 10.5-5.32 15.79-.22.67-.86 1.52-.04 2.08.73.5 1.45-.17 2.08-.56 1.27-.78 1.9-2.02 2.35-3.37 1.63-5 3.44-9.94 5.07-14.93.86-2.65 1.79-3.3 4.55-3.31 2.4-.01 2.86-.34 3.21-2.77.19-1.24.8-1.8 1.99-2.08 2.29-.53 3.44-2.03 3.59-4.33.06-.89-.22-1.4-1.14-1.67-1.77-.53-2-1.49-.77-2.85.4-.45.73-.94 1-1.46.15-.27.23-.62.48-.74 1.72-.85 2.75-2.62 4.6-3.33 1.36-.53 1.65-1.91 1.95-3.15.36-1.41-.28-2.67-.88-3.9-.15-.26-.43-.37-.66-.54a9.59 9.59 0 00-3.61-1.45c-.6-.07-1.13-.31-1.68-.5-.67-.21-.96-.64-.64-1.35.4-.83 0-1.84.64-2.65.25-.32.31-.65.83-.36.7.4.68-.77 1.29-.65a80.09 80.09 0 0111.1-2.74c1.75-.31 3.56-.35 5.33-.56a69.65 69.65 0 0145.05 11.96c-.03.04-.06.09-.1.09-1.79-.12-3.3.3-4.25 2.02-.28.5-.77.1-1.12-.1a4 4 0 00-2.42-.62c-.56.06-.82.26-.37.8.21.26.38.56.5.88.37.98.1 1.44-.93 1.57-.77.1-1.5 0-1.86 1.06-.22.65-1.26.52-1.92.83.46.29 1.29.36 1.26.92-.04.71-.9.59-1.43.78-.72.26-1.41.55-2.06 1.03.37.25 1.04.05 1.08.66.04.49-.43.7-.76.95-.49.37-1.14.6-.33 1.4.41.41-.24.8-.57 1.1-.9.76-1.93 1.36-2.66 2.33a6.8 6.8 0 00-1.4 3.75c1.57-.38 1.77-.15 1.35 1.47a9.78 9.78 0 00-.43 3.5c.05.44.15.88.6 1.05.47.17.68-.25.95-.5.7-.62 1.35-1.42 2.22-.14.3.45.94.28 1.44.28h12.58c.9 0 1.79 0 2.63.36.28.12.59.2.87.09 1.37-.6 2.82-.4 4.5-.45-.92-.73-1.74-1.19-2.57-1.64-1.42-.76-1.55-1.81-.4-2.92a5 5 0 015.23-.75c.26.14.55.29.58.61.04.38-.3.47-.56.6-.3.15-.63.26-.88.5-.33.3-.53.68-.37 1.13.16.43.55.25.87.3 1.4.19 2.77.38 3.99-.64.3-.24.74-.07 1.11-.09.9-.04 1.84-.04 2.03-1.25.06-.33.31-.57.63-.52 1.02.18 2.12-.16 3.09.42z" fill="#072160"/><path d="M82.7 40.69c-.27.96 1.82 1.24.69 2.45 1.78.36-.24 1.67.57 2.3.12.1-.07.47-.27.51-.54.11-.4.34-.27.73.11.37-1.43 1.61-1.87 1.76-.95.33-1.79.93-2.38 1.73-.32.43-.55.7-1.11.8-1.1.24-1.3 1.43-1.88 2.19-.26.34-.45.7-.84 1-.8.58-.59 1.44.31 1.89.64.32 1.76-.04 1.9.87a5.6 5.6 0 01-1.05 4.42c-.9 1.18-2.21 1.48-3.53 1.74-.5.1-.63.26-.75.76-.25 1.04-.19 2.16-.93 3.1-.4.52-.78.81-1.45.77-.76-.04-1.52-.02-2.29 0-1.46.02-2.5.79-2.99 2.19-1.85 5.4-3.7 10.78-5.52 16.18a6.02 6.02 0 01-3.27 3.75c-.6.27-1.29.5-1.8.09-.54-.44-.3-1.12-.09-1.75 1.87-5.47 3.7-10.95 5.55-16.43.82-2.43-.31-4.03-2.87-4.04-1.06 0-2.13.06-3.18-.02-1.27-.09-2.7 1-3.12 2.26-1.89 5.72-3.83 11.43-5.77 17.15a11.11 11.11 0 00-.24 5.94c.2.95-.26 1.22-1.02 1.27-.36.02-.73-.11-1.2-.2.56-.74.8-1.53.86-2.55-1.04.61-1.62 1.53-2.5 2.1-.92.6-1.93.4-3.14.73.9-1.05.62-2.07.53-3.18-1.19 1.95-2.97 2.62-5.13 2.6.23-.82 1.04-1.39 1.1-2.45l-2.73 1.58c-.98.1-1.97.51-3-.1.5-.7 1.07-1.36 1.26-2.41-.84.4-1.54.82-2.34 1.06-.94.27-1.67-.34-2.6-.24 1.26-.82.89-2.44 2.12-3.36-1.27-.1-2.23-.11-3.24.38-1.37.68-2.93.35-3.56-.86-.66-1.26-1.47-1.27-2.55-.84-.23.1-.47.18-.71.27-.13-1.8 3.16-4.23 5.36-4-.03-1.04-.31-1.85-1.42-2.3-.58-.25-.89-.96-.75-1.62.31-1.5-.53-2.13-1.72-2.59-.19-.07-.36-.19-.62-.33 2.47-1.65 4.62.38 6.89.38.1.04.22.12.31.05.12-.1-.03-.18-.05-.27-1.57-1.2-2.07-2.94-2.35-4.83-.63.53-.7 1.18-.65 1.87.04.65-.18.71-.74.45a4.35 4.35 0 01-2.05-1.97c-.35-.65-.53-1.42-1.34-1.96-.14 1.03-.55 1.86-.3 2.9.47 2-.2 3.24-2.09 4-.57.23-.65.56-.64 1.06.02.54 0 1.1 0 1.65-1.72-.65-3.12-3.76-2.71-5.94-.94-.21-1.75-.09-2.32.8-.4.6-1.02.83-1.65.67-1.12-.3-1.6.24-1.9 1.19-.08.21.02.59-.33.59-.33 0-.4-.33-.52-.6-.76-1.83.14-5.56 1.66-6.67-1.02-1.13-1.48-3.34-3.91-1.65.17-1.08.61-1.74 1.27-2.17.84-.55 1.72-1.02 2.51-1.66.48-.38 1.09-.37 1.67-.08 1.48.73 2.99.8 4.59.34a20.34 20.34 0 0111.77.23c2.37.73 4.92.48 7.34 1.03.36.08.73.15 1.08.27 1.2.38 2.23.78 2.86-1 .47-1.3 2.94-1.71 4.9-1.14l.37.08c.94-.01 1.46.76 2.22 1.15.14-.77-.07-1.33-.81-1.63-.33-.14-.6-.34-.4-.77.07-.2.01-.48.31-.56 1.05-.93 1.91-1.02 3.08-.3.57.34 1.04.85 1.76.99-.05-.22-.22-.29-.33-.42-.38-.49-1.01-.95-.74-1.63.24-.6.95-.41 1.48-.45 1-.06 1.5-.63 1.74-1.54.28-1.07.5-2.14 1-3.14.36-.72.77-1.42 1.44-1.88.74-.5.87-1.08.48-1.84a2.35 2.35 0 01-.26-1.47c-.1-2.47 1.25-4.03 3.27-5.16.78-.43 1 .54 1.58.65 1.49.67 1.5.67 2.1-.9.15-.44.6-.7.65-1.19.18-.4.9-.4.77-1.02-.34-1.6.43-3.14.3-4.74-.03-.3.02-.55-.27-.74-.3-.2-.35-.52-.17-.78.54-.8.66-1.84 1.23-2.58a3.42 3.42 0 011.84-1.27c.61-.11 1.44-1.39 2.05.06.08-.13.17-.26.26-.37.31-.35.81-.44.95-.04.24.73.55.44.9.2.24-.2.4-.03.51.12.78 1.02 2.26 1.27 2.8 2.62.09.23.88.33 1.04.88.25-.14.72.55.82-.24.05-.37.54-.65.59-.86.12-.5 1.62.03.76-1.04.4-.24.96-.23 1.27-.72-.53-.43-1 .33-1.59-.02l1.54-2.74c.37.45.27 1.06.8 1.27.44-.45-.33-.85.07-1.38 1 .37 1.96.93 2.9 1.57-.34.35-.9.3-1.17.78.48.24.94.05 1.54-.18l-.56 1.29-.94 1.47c-.44-.09-.32-.68-.68-.79-.97.97-.17 2.45-1.07 3.46-.2.23.19.5.35.54.95.28 1.91.58 2.9.7.55.07 1.08-.11 1.2.7.06.37.33.06.47.01.78-.29.94.17.99.8.2.31.57 0 .8.21zM155.76 143.27a20.77 20.77 0 00-5.53-1.82c-2.33-.37-2.84-2.46-2.2-4.86.33-1.2.88-2.36 1.04-3.6.07-.6.31-.73.8-.66 2.53.37 3.84-1.05 4.8-3.15.71-1.59 1.62-3.09 2.46-4.65.45.67.47 1.31.2 2.03-.98 2.57-1.92 5.16-2.89 7.74-.14.38-.33.8-.63 1.06-1 .85-.66 1.6.07 2.36a6.95 6.95 0 004.36 2.24c1.1.53 2.1.52 3.05-.36.46-.42 1.05-.7 1.53-1.11.78-.67 1.51-.74 2.17.08.5.63.9.06 1.33-.04.35-.08.6-.23.52-.8-.13-.9.24-1.53 1.35-1.63 1.49-.13 2.96-.48 4.45-.69.75-.1 1.43.03 1.69.9.15.5.3.96 1 .86.53-.08 1.15.26 1.4-.6.2-.67.87-.8 1.47-.66 1.53.37 3.04.85 4.58 1.21.85.2 1.19.65 1.22 1.49.04 1.17.79 1.56 1.76.93.67-.43 1.26-.5 1.94.09 1.17 1.01 2.4 1.95 3.62 2.9.62.5.71 1.08.42 1.8-.42 1.03.15 1.73 1.21 1.52.8-.15 1.3.3 1.68.87.8 1.23 1.53 2.5 2.3 3.75.46.73.55 1.47-.2 2-.5.36-.43.7-.27 1.14.3.82.64 1.63.92 2.46.13.4.22.82-.33 1.05-.54.21-.69-.22-.83-.52-.23-.48-.35-1-.56-1.5-.3-.75-.27-1.72-1.5-1.8-.49-.04-.73-.77-1.01-1.23-.57-.93-1.13-1.87-1.76-2.76-.49-.69-.8-1.34-.34-2.18.38-.7-.3-1.27-.65-1.15-1.23.43-1.78-.56-2.53-1.04-.96-.6-1.8-1.38-2.67-2.1-.44-.36-.71-.8-.74-1.41-.03-.7-.62-1-1.09-.67-.83.59-1.6.29-2.39.12-1.05-.22-2.07-.63-3.12-.85-.79-.16-1.38-.37-1.71-1.23-.28-.7-1.34-.53-1.5-.24-.59 1.13-1.67.86-2.54 1.09-1.18.3-2.4.38-3.62.54-.32.04-.66.08-.93-.22-.72-.8-1.15-.35-1.39.4-.15.48-.4.88-.75 1.33 1.84.53 2.78 2.22 4.33 3.14.6.35.8 1.3 1.29 1.93a32.52 32.52 0 003.28 3.68c.27.25.66.5.47.94-.15.37-.53.53-.92.51-.6-.03-1.1-.02-1.24.79-.06.35-.58.24-.91.24-3.12 0-5.13-1.7-6.58-4.28-.32-.58-.61-1.18-.97-1.86-.68.9.06 1.4.46 2.08-1.71-.26-3.26-.53-3.82-2.41a3.6 3.6 0 00-.74-1.17c-.22-.26-.49-.74-.9-.35-.34.3-.83.61-.42 1.25.56.91.17 1.52-.69 2.03-1.22.73-2.39 1.53-3.56 2.33-.94.64-1.68.57-2.37-.38-.65-.9-1.83-.74-2.2.3-.33.9-.91 1.2-1.82.98-1.75.48-3.43.04-5.1-.4-.55-.14-.72-.64-.85-1.16-.35-1.35-.93-1.64-2.2-1.08-.67.29-1.25.25-1.79-.19-.98-.8-2.03-1.52-2.98-2.37-.78-.69-1.47-1.32-1.46-2.52 0-.86-.65-1.04-1.47-.85-3.07.74-5.1 2.43-6.13 5.57a25.02 25.02 0 00-1.37 9.47 5.87 5.87 0 001.18 3.04c.9 1.3 1.14 2.7.57 4.21.06 1.39-.2 2.78.2 4.15.13.46-.09.66-.6.66-2.42-.01-3.99-1.05-4.8-3.06-.44-.76-.45-1.59-.47-2.44-.03-.93.33-1.94-.42-2.8-.2-.23.02-.55.17-.81.32-.54.26-1.14.26-1.73 0-.96-.33-1.22-1.21-.36l-.1-1.96c-1.3.4-1.58.68-2.1 2.1-1.44-1.73-1.27-3.4.24-4.83 3.11-2.92 4.06-6.62 4.73-10.54.2-1.11.45-2.21.46-3.35.01-.74.32-1.1 1.08-1.3 1.28-.34 2.6-.59 3.8-1.25.51-.28.7-.58.43-1.18a39.83 39.83 0 01-1.23-3.15c-.38-1.07-.01-1.52 1.14-1.22 1.01.27 2.01.22 3.01.2 4.16-.04 7.8-1.56 11.14-3.92 1.76-1.25 3.06-3 4.99-4.62-.81 1.55-1.48 2.78-2.1 4.03-1.3 2.63-.24 4.42 2.7 4.56-.13 1.91-1.98 4.49-3.9 5.51-2.75 1.46-5.72 2.33-8.63 3.37-.3.1-.88.02-.72.54.14.46.57.55 1.01.21.68-.5 1.24.03 1.7.35 1.11.8 2.15 1.73 3.2 2.62.42.36.69.75.79 1.37.14.88.79 1.27 1.72.9.81-.33 1.67-.18 2.5-.12 1.16.07 2.31.31 3.47.46.3.04.62.02.78.32.7 1.28 1.2.6 1.86-.08.62-.66 1.4-1.17 2.12-1.74 1-.86 1.99-1.74 3.44-1.83-.46-.37-1.1-.43-1.4-.96zM160.28 63.11c-1-.07-2.02.21-3-.2-.25-.1-.48.01-.52.36-.15 1.1-1.19 1.9-2.3 1.57-.73-.21-1.04.05-1.54.4-.63.46-1.33.75-2.21.47-.57-.2-1.2-.55-1.9.02-.32.27-.66-.3-.73-.73-.2-1.33.7-1.76 1.7-2.1.15-.06.32-.07.52-.1-1.92-1.52-4.19-.9-5.6.32-1.07.91-.9 1.67.32 2.28a14.1 14.1 0 013.46 2.3H147c-1.49 0-3.02-.18-4.36.72-1.31-1.11-2.9-.68-4.37-.7-4.02-.05-8.05-.04-12.07 0-.86 0-1.42-.16-1.3-1.15-.78.08-1.07.73-1.59 1.07-.32.21-.3.97-.83.71-.58-.28-1.12-.68-1.12-1.5 0-1.32.09-2.6.5-3.85.14-.42.46-.84.12-1.4-.48.3-.97.58-1.57.93-.08-3.78 2.17-5.94 5.07-7.72-.36-.5-1.03-.31-1.3-.9l2.29-1.73c-.59-.53-1.32-.03-1.97-.4a8.13 8.13 0 014.39-1.94c-.6-.62-1.42-.62-2.18-1.13l2.45-.67c-.13-.18 1.07-.13.07-.48-.38-.14-.16-.35.1-.5.59-.37 1.22-.5 1.91-.48 1.2.02 1.33-.22.79-1.33-.15-.3-.32-.6-.54-.83-.22-.23-.78-.28-.6-.66.1-.24.6-.4.94-.45 1.35-.16 2.6.08 3.66 1.22.9-2.19 2.43-3 4.67-2.27l.3.3c.1.53-.34.73-.64 1-.3.29-.67.53-.66 1.05 1.08-.05 1.41-1.07 2.11-1.6.29-.16.19-.44.2-.67.02-.25.14-.47.33-.49.13-.02.33.2.44.35.32.47.6.97.92 1.48.69-.51.7-1.32.93-2.02.62.87.62.87.76 3.92 1.46-1.57 2.82-3.02 4.17-4.49l7.63-8.3 2.03-2.26c.26-.29.58-.68.95-.43.44.3.2.73-.04 1.1-1.33 2.08-2.64 4.17-3.98 6.24-2.35 3.62-4.9 7.1-7.46 10.57-.07.1-.07.24-.1.36-.11.44.3.54.5.77l.56.54c.73 1.17 1.76 2.07 2.78 2.96 1.08.62 2.16 1.24 3.24 1.84.63.36 1.3.53 2.04.52 1.25-.03 2.18.43 2.46 1.8.1.44.24.89.45 1.28.46.86.25 1.46-.63 1.8-.47.2-.75.4-.69.99.07.71.64.6 1.02.66.74.13 1.5.07 2.36-.32-.3 1.18-1.17 1.44-1.86 1.9zM59.56 156.73c1.28-.17 2.57-.33 3.85-.53.74-.12 1.19.35 1.66.76 2.47 2.14 4.46.82 5.66-1.29a11.42 11.42 0 001.24-4.96c.17-2.4-.12-4.82.25-7.21.1-.66-.04-1.15-.66-1.6-2.4-1.73-4.28-4-6.35-6.2.98 2.34-1.51 3.85-1.1 6.13-1.76-.87-1.46-2.36-1.57-3.94-.57.96-1.01 1.75-2.06 2.35.47-1.59-.44-2.37-1.4-3.14-1.1-.89-1.77-1.94-1.14-3.42.05-.1.08-.32.03-.36-1.31-1.03-.01-1.35.52-1.84.35-.33.61-.7.76-1.14 1.06-3.1 2.1-6.22 3.2-9.5l5.1 8.41c.4.68.76 1.4 1.26 2 1.28 1.55 2.45 1.44 4.62-.36a17.24 17.24 0 008.1 9.26c1.6.88 2.47 2.25 2.13 4.25-.61-.6-1.23-1.14-2.17-.73 2.38 2.98 2.38 2.98 2.14 5.7a5.08 5.08 0 00-3.5-1.76c.47.98 1.1 1.67 1.77 2.33 1.84 1.83 2.02 3.35.59 5.82-.03-2.2-1.87-2.42-3.22-3.4 0 .86.38 1.4.84 1.92 1.68 1.9 1.84 4 .86 6.3-.23.54-.45.66-.7.17-.46-.86-1.15-1.16-2.06-1.22-.57-.04-.96-.48-1.38-.82-.74.95-.58 1.55.64 1.8.23.04.52.22.6.41.67 1.52 1.82 2.82 2.05 4.52.06.47-.11.98-.18 1.48-.8.7-.57-.38-.88-.52-.94-1.05-2.23-1.1-3.5-1.22-1.24-.58-2.22-.58-2.53 1.08-.03.18-.24.39-.42.45-1.7.65-1.6 1.83-.74 3.38-2.58-.85-3.02-3.26-4.63-4.75-.87.91-1.98 1.07-3.24.42-.6-.3-1 .25-1.4.6-.35.29-.62.67-1 1.08-.6-1.03-.32-2.03.22-2.83.65-.97.31-2.15.9-3.09.05-.06.07-.22.05-.23-1-.47-1.39-1.43-2.01-2.25-.65-.85-1.93-.26-3.04-.05.19-1.17 1.08-1.66 1.84-2.26zM173.07 105.36c-.11.88-1.01 1.18-1.4 1.9-.38.66-1.06 1.17-1.58 1.73.37-3.24-1.48-5.32-3.81-7.12-.44-.34-.95-.59-1.32.2-.17.36-.53.64-.94 1.11-.48-1.58-1.33-2.55-2.87-2.71 1.1-1.78 1.65-1.13-1.28-3.15a37.2 37.2 0 01-3.77 9.84c-1.73 3.08-3.35 6.23-5.1 9.31.42-1.85.72-3.68.66-5.57a10.93 10.93 0 00-10.73-10.63c-1.1-.03-2.2.02-3.31.03-.16 0-.4.27-.46-.11-.06-.35.18-.42.46-.42.68 0 1.36-.04 2.04 0 6.18.3 11.16-2.13 15.52-6.4 3.6-3.53 5.91-7.63 6.64-12.61.04-.33.25-.5.37-.73.16-.33.54-.7.26-1.15-1.18-1.8-.84-4.14-2.02-6 .66.54 1.32 1.06 1.97 1.61.7.6 1.26 1.15.58 2.23-.4.64.32 1.63.8 1.55 1.13-.18 2.5.77 3.39-.6 1.58-.7 2.98-1.7 4.32-2.75 2.52-2 4.98-1.64 7.53-.12 1.75 1.04 3.25 2.53 5.3 3 .64.15.89.77.82 1.13-.34 1.7 1.04 2.17 1.92 3.01.4.38.86.71 1.17 1.15.86 1.2.78 1.4-.7 1.65-.37.06-.53.15-.51.53.05 1.13-.8 1.03-1.46.94-2.12-.3-3.67-1.5-4.85-3.24-1.15-1.7-1.56-1.7-2.78 0-1.15-1.26-1.21-1.84-.14-3.09.7-.82.12-1.06-.48-1.16-1.66-.29-3.2-.04-4.41 1.28-1.32 1.43-2.66 2.84-4 4.25-.13.3-.3.58-.49.86-.56.83-.43 1.39.44 1.95.31.2.65.36.82.72.57.72.23 1.54.26 2.32.14 1.19-.1 2.36-.2 3.53-.07.78-.43 1.4-1.23 1.6-1.09.24-.87.7-.38 1.41.77 1.12 2 1.84 2.58 3.12.44.71 1.12 1.22 1.65 1.88a3.8 3.8 0 01.72 3.72zM40.74 136.1a9.33 9.33 0 002.23-3.6c.15-.4.19-.59.74-.49 2.3.4 4.64.77 6.89-.28.28-.14.35.1.51.16.43.16.86.4 1.3.4.86.03 1.73-.06 1.77 1.15.03 1.11.33 2.35-1.2 2.82-.32.1-.6.29-.9.42-1.82.8-3.07 2.05-3.19 4.13-.09 1.67-.98 2.8-2.3 3.68-.53-.04-.18-.46-.28-.68-.03-.37-.11-.73-.03-1.1-.1.3-.14.62-.44.8a6.56 6.56 0 01-2.07 2.4v-2.4c-.98 1.35-1.58 2.98-3.53 3.32-.03-.9.81-1.73.28-2.53-2.35 1.7-2.34 4.95-4.52 6.96.45-2.14-.8-3.16-2.41-4.02-1.05 1.47-2.5 2.15-4.4 1.47-.5-.18-.68.28-.86.57-.33.52-.57 1.09-.9 1.76a3.75 3.75 0 01-.5-3.54c.54-1.7.44-1.83-1.24-1.9-.26 0-.57.06-.75-.07-1.55-1.02-3-.64-4.54.42.2-1.73 1.05-2.82 2.43-3.41.68-.3 1.22-.75 1.08-1.37-.18-.77-1.03-.75-1.69-.61-.5.1-.97.26-1.49.13.99-2.06 4.23-3.57 6.13-2.54 5.2 2.82 9.68 1.5 13.88-2.06z" fill="#d5002d"/><path d="M126.51 165.18c.12-1.86-.2-3.57-1.5-5.04-.33-.38-.5-.99-.54-1.51-.45-4.81.48-9.33 2.98-13.5a3.53 3.53 0 012-1.58c.92-.31 1.82-.64 2.7-1 1.19-.47 2.02.1 1.93 1.36-.05.66.16 1.07.72 1.57 1.1.98 2.34 1.78 3.4 2.8.6.58 1.17.66 1.87.1.79-.65 2.45-.05 2.35.9-.17 1.74 1.07 1.67 2.06 1.84 1.2.2 2.42.23 3.63.33a65.02 65.02 0 01-11.2 8.49c-3.32 2.05-6.88 3.6-10.4 5.24z" fill="#072160"/><path d="M51.9 50.12c.07.1.16.2.21.3.75 1.54.83 2.78-.87 3.93-1.05.7-1.21 2.23-1.54 3.48-.64 2.4-.64 2.4-3.12 2.5-.15 0-.3.05-.56.09.46 1 .97 1.8 2.25 2.19-1.13.45-1.85.22-2.49-.4-1.07-1.05-2.25-1.17-3.53-.41.86-1.84 2.17-3.4 3.41-4.95a45.29 45.29 0 016.24-6.73z" fill="#07215f"/><path d="M170.7 99.76a19.9 19.9 0 01-3.25-3.46c-.47-.61-.43-1.16.61-1.22.9-.06 1.4-.62 1.41-1.57.02-1.16.18-2.3.47-3.4.65.91.37 2.03.46 3 .2 2.2.57 4.42.3 6.65z" fill="#08215f"/><path d="M169.67 87.78c-.48-.5-1.37-.26-1.74-1.05-.6-1.24.15-1.86.98-2.48l.76 3.53z" fill="#092260"/><path d="M41.93 62.36c.03.13.05.35.1.36 1.65.16 1.6 1.28 1.4 2.6l-2.5-1.7c.41-.36.5-.98 1-1.26z" fill="#0b235d"/><path d="M59.5 43.53c-.22.85-.21 1.9-.71 2.53-.67.85-1.52.46-2.05-.45l2.75-2.08z" fill="#09225f"/><path d="M141.27 43.01c-.2 1.39-1.48 1.63-2.44 2.34-.53-1.65 1.09-1.9 1.63-2.79.28.14.63.14.81.45z" fill="#0a235f"/><path d="M75.57 165.18c1.41-.3 2.76-.42 3.5 1.22-1.22-.26-2.44-.53-3.5-1.22z" fill="#0c215c"/><path d="M151.89 52.64a4.45 4.45 0 01-2.79-2.96c1.04.88 2.2 1.66 2.79 2.96z" fill="#0c245f"/><path d="M45.84 143.52l.31-1.26c.3.57.69 1.02.16 1.55l-.47-.3z" fill="#1b2c4f"/><path d="M24.4 76.15c.17.1.34.2.5.32.16.12.37.28.21.49-.23.3-.42.05-.58-.13-.14-.14-.26-.3-.39-.46l.26-.22z" fill="#eae6d6"/><path d="M148.56 49.13c-.38-.11-.98-.08-.51-.76l.5.76z" fill="#0b235c"/><path d="M172.33 116.39l-11.49 13.38-2.32-13.6c-1.67 2.56-2.7 5.2-4.05 7.66-.95 1.73-1.85 3.49-2.72 5.25-.24.48-.47.72-1.03.7-1.17-.03-2.34 0-3.68 0l14.16-26.79c1 5.81 1.95 11.42 2.92 17.14l14.5-17.14c.04 1.51-.38 3-.58 4.51-.3 2.37-.8 4.72-1.2 7.08-.5 3.01-.95 6.03-1.46 9.05-.3 1.79-.65 3.58-.8 5.4-.05.62-.23.79-.81.76-.76-.05-1.53-.01-2.29-.01-1.3 0-1.48-.27-1.25-1.56.7-3.85 1.37-7.7 2.1-11.83zM121.81 122.03a18.32 18.32 0 014.13-11.74 19 19 0 016.65-5.52c4.27-2.09 8.66-3.2 13.14-.22 2.77 1.85 3.69 5.63 3.33 8.23a18.49 18.49 0 01-4.04 9.38c-3.09 3.75-6.87 6.43-11.74 7.37-2.93.56-5.72.37-8.16-1.5-2.32-1.76-3.42-4.16-3.3-6zM70.94 129.8l-9.12-15.09c-.7 2.06-1.36 4.07-2.03 6.07l-2.8 8.25c-.18.52-.44.8-1.08.77-1.13-.07-2.28-.02-3.51-.02l9.17-26.99 8.98 15.32c1.8-4.63 3.18-9.27 4.74-13.84.35-1.03.75-1.63 1.96-1.48.92.11 1.85.02 2.88.02l-9.19 27zM84.17 97.24l-9.1-15.05c-.6 1.7-1.2 3.36-1.77 5.02-1.04 3.07-2.06 6.14-3.08 9.2-.16.5-.36.86-1.02.82-1.14-.07-2.29-.02-3.57-.02l9.17-26.98 9.06 15.44 4.7-14.16c.3-.9.77-1.45 1.87-1.29.92.13 1.86.03 2.93.03l-9.19 27zM135.34 97.21c3.01-8.84 5.97-17.51 8.9-26.2.14-.4.2-.78.67-.75 2.87.16 5.79-.45 8.63.49 4.62 1.52 6.26 6.23 5.6 10.25-.78 4.8-3.33 8.54-6.88 11.62-3.26 2.82-7 4.64-11.45 4.6-1.78-.02-3.56 0-5.47 0zM96.19 129.78c1.57-4.7 3.1-9.32 4.66-13.93 1.38-4.07 2.82-8.12 4.2-12.2.13-.41.15-.87.71-.83 2.83.18 5.7-.4 8.51.47 4.58 1.43 6.35 6.23 5.67 10.31-.8 4.86-3.4 8.61-7 11.7-3.25 2.79-7.03 4.58-11.49 4.48-1.73-.03-3.47 0-5.26 0zM88.32 118.08c.5-1.41.6-3.12 1.51-3.9.74-.64 2.43-.17 3.7-.17h4.61c-1.72 4.58-2.97 9.25-4.73 13.75-.13.33-.19.6-.55.75-3.75 1.5-7.5 2.15-11.12-.26a8 8 0 01-3.63-6.7c-.2-4.53 1.65-8.24 4.45-11.62a19.63 19.63 0 0110.54-6.73c2.57-.64 5.06-.57 7.52.56.69.32.84.6.58 1.28-.55 1.5-1.04 3.01-1.56 4.54-.71-.29-1.04-1.1-1.78-1.47-2.3-1.15-4.57-.98-6.83-.02-4.3 1.82-7.22 4.99-8.2 9.56-.7 3.17.04 6.14 3.93 7.41.94.31 1.92.06 2.89.14.5.05.54-.41.62-.65.69-1.89 1.28-3.8 1.97-5.68.25-.69.04-.82-.58-.8-1.05.02-2.11 0-3.34 0zM36.35 102.81l-3.99 11.64c1.18-.93 1.99-1.72 2.81-2.47 2.98-2.67 5.85-5.44 8.76-8.19.68-.64 1.41-1.06 2.43-1 1.37.08 2.75.02 4.26.02-1.1.87-1.96 1.74-2.88 2.56-3.65 3.28-7.16 6.74-10.86 9.96-1 .87-.87 1.43-.46 2.4 1.69 3.99 3.31 8 4.98 12.05-1.35 0-2.64-.14-3.89.04-1.44.2-1.75-.65-2.16-1.68-1.33-3.34-2.73-6.65-4.18-10.16-1.27 3.77-2.5 7.35-3.67 10.94-.23.7-.55.9-1.24.87-1.1-.05-2.2-.01-3.39-.01l5.34-15.65c1.19-3.49 2.41-6.96 3.53-10.47.22-.67.47-.88 1.11-.86 1.14.03 2.28.01 3.5.01zM71.45 70.25c-1.67 4.9-3.39 9.72-4.94 14.59-1.01 3.15-2.21 6.15-4.7 8.43-2.62 2.41-5.6 4.07-9.33 3.95-3.36-.11-5.73-2.57-5.94-5.9-.2-3.14 1.18-5.89 2.15-8.7 1.3-3.8 2.55-7.6 3.86-11.4.24-.72.49-1.05 1.28-1 1.1.08 2.2.03 3.37.03-1.74 5.13-3.49 10.2-5.17 15.3-.37 1.12-.86 2.2-.91 3.44-.14 3.5 2.4 4.13 4.72 3.54a7.66 7.66 0 005.47-5.14c1.85-5.34 3.65-10.7 5.41-16.06.3-.88.72-1.17 1.61-1.1 1 .08 2.03.02 3.12.02zM133.24 92.89c.05.2.08.25.07.28-.48 1.34-.6 3.2-1.55 3.86-.98.68-2.77.18-4.21.18h-12.28c1.3-3.87 2.54-7.67 3.82-11.46 1.65-4.85 3.34-9.68 4.96-14.53.24-.72.5-1 1.28-1 4.92.05 9.84.03 14.75.02.78 0 1.04.05.69.97-.43 1.1-.5 2.58-1.32 3.2-.7.54-2.11.16-3.21.16-2.72 0-5.43.01-8.14-.01-.51 0-.88.07-1.06.6l-2.05 6h4.07c.16.3-.09.48-.12.7-.38 2.77-1.82 4.04-4.68 3.4-.46-.1-.7.16-.88.66-.62 1.91-1.31 3.8-2 5.68-.35.92-.33 1.36.92 1.32 3.22-.1 6.44-.03 9.66-.03h1.28zM108.96 74.6h-6.09l1.21-3.88c.15-.45.52-.48.92-.48h15.9c-.46 1.37-.95 2.61-1.28 3.9-.16.63-.54.42-.86.42-1.48.02-2.97.04-4.45 0-.77-.03-1.1.18-1.38 1-2.28 6.92-4.68 13.8-6.97 20.73-.26.77-.59.97-1.32.94-1.06-.05-2.12-.02-3.33-.02l7.65-22.62zM87.5 97.21c3-8.8 5.96-17.44 8.86-26.09.24-.73.55-.9 1.22-.88 1.1.03 2.2 0 3.32 0-2.94 8.72-5.87 17.4-8.77 26.1-.23.67-.51.92-1.22.89-1.1-.06-2.2-.02-3.4-.02zM58.17 102.81c-2.95 8.7-5.9 17.34-8.77 26-.27.81-.63 1.02-1.4.98-1.05-.05-2.1-.01-3.25-.01l5.34-15.65c1.19-3.48 2.41-6.96 3.53-10.47.22-.67.46-.88 1.1-.86 1.15.03 2.28.01 3.45.01z" fill="#fefefe"/><path d="M97.44 140.66c-.82.18-1.09-.57-1.75-.55.25.8.3 1.61.25 2.43-.07 1.27-.83 2-2.09 2.03-1.35.04-2.82-.43-3.86 1.05-.28-1.5.61-2.2 1.64-2.78.92-.52 1.65-1.07.92-2.34-.99.97-2.03 1.34-3.3.61-.92-.52-1.33-1.23-1.2-2.27.11 0 .2-.04.26 0 .68.49 1.45 1.01 2-.02.5-.97-.18-1.54-1.02-1.9-.77-.35-1.61-.44-2.43-.6-3.42-.62-5.35-3.02-7.12-6.12 1.75 1.04 3.3 1.86 5.03 1.98 1.44.1 2.66 1 4.15.93a3.84 3.84 0 002.41-.93c1.62-1.38 2.51-1.4 4.12-.1.22.19.22.33.1.53-.12.21-.23.46-.4.64-.87.93-1.06 1.47.53 1.9 1.51.41 1.94 1.47 1.49 2.93-.28.9-.27 1.7.27 2.58zM128.15 90.34a4.19 4.19 0 013.39-1.28c.92.05 1.82-.04 2.56-.96-.86-.01-1.6.28-2.3-.16-1.38-.9-1.65-1.66-1.1-3.24.2-.63.39-1.28.67-1.88.9-1.99.22-3.56-1.88-4.15-.34-.1-.9.02-.68-.58.14-.39.06-1 .86-1 3.22.06 6.44.03 9.78.03l-3.42 10.12c-.36 1.06-.48 2.36-1.18 3.11-.74.8-2-.2-3.09-.04-1.1.16-2.23.03-3.6.03zM49.66 107.38l-6.52 19.18a4.3 4.3 0 01-1.26-2.45c-.5-2.4-1.99-4.34-2.73-6.61-.09-.28-.32-.5-.01-.77.97-.88 1.71-2.13 3.31-1.97.32.03.75.08.76-.42.06-2.02 1.73-2.94 2.95-4.05 1.12-1 2.13-2.14 3.5-2.91zM51.26 99.77c5.42.24 8.42-1.36 12.08-4.3-.3 1.24-.43 2.34.42 3.3.67.77 1.5 1.05 2.47.98.63-.04.93.2 1.22.78 1.03 2.15 1.93 4.4 3.7 6.1.4.37.41.76.24 1.25-.44 1.25-.85 2.51-1.32 3.9-1.2-1.26-1.82-2.81-2.64-4.21-1.15-1.97-2.4-3.88-3.41-5.94-.6-1.25-2.24-1.7-3.6-1.01-.44.22-.62.13-1.03-.01-1.87-.66-3.85-.42-5.76-.23-.84.08-1.4-.06-2.37-.6zM119.27 122.17a11.01 11.01 0 004.09 7.83c.22.19.55.29.54.62-.03 1.47.27 2.96-.3 4.38-.54 1.35-1.73 1.87-3.04 2.14-.43.1-.93.07-.51-.64.47-.8.34-1.58-.06-2.4-.56-1.14-.84-2.34-.27-3.6.25-.55.16-.83-.57-1.02a4.15 4.15 0 01-2.9-2.72c-.24-.62-.21-1 .28-1.43 1-.89 1.86-1.92 2.74-3.16zM120.76 102.87l2.25 3.17c1.19-1.7 2.12-3.43 1.5-5.58-.16-.53 0-.7.51-.7h3.44c.57 0 .55.27.46.74-.53 2.54-1.3 4.91-3.52 6.58-1.04.78-1.7 1.95-2.57 3a1.1 1.1 0 01-.43-.77 8 8 0 00-1.29-3.62c-.58-.9-.92-1.74-.35-2.82zM114.32 92.05c-.7-.78-1.28-1.34-1.75-1.98-.72-.98-1.21-1.94-.67-3.3.97-2.43 1.69-4.96 2.53-7.44.07-.2-.04-.58.29-.62.36-.06.48.26.58.55.8 2.5 2.15 4.88.77 7.66-.75 1.5-1.11 3.2-1.75 5.13zM73.45 101.86c-1.57-1.62-1.52-3.34-.64-5.37 1.12-2.58 1.9-5.31 2.87-8.11.57.9 1.1 1.74 1.65 2.58.12.17.21.24-.03.46-2.65 2.35-2.24 5.18-1.2 8.1l.25.64c-1.29.15-2.32.66-2.9 1.7zM87.3 68.3c-1.9 3.34-2.5 7.23-4.03 10.83-2.02-1.77-1.54-4.02-1.01-6.15.62-2.54 2.91-4.48 5.05-4.68zM112.53 96.57c.21 1.85 1.04 3.07 3.03 3.2.63.03.46.5.45.83-.01.53-.36.46-.7.32-.32-.12-.63-.25-.94-.34-2-.57-2.33-1.12-1.93-3.15.06-.28.06-.58.1-.86zM85.91 116.7c-.49 2.9.72 3.55 2.87 4.1l-.58 1.74c-2.63-2.15-3.37-4.05-2.29-5.85z" fill="#d5002d"/><path d="M155.76 143.27c.65.26 1.3.51 1.94.78.1.05.23.14.24.23.01.09-.13.28-.16.27-1.75-.54-2.64 1.18-4.06 1.51.35-1.18 1.46-1.8 2.04-2.8z" fill="#f7f7f7"/><path d="M154.1 65.97c.13 0 .32 0 .32.23a2.52 2.52 0 01-.7 1.56c-.36.41-.85.18-1.27-.05-.47-.23-.9-.54-1-1.05-.05-.32.3-.46.62-.48.66-.06 1.35.11 2.03-.2zM82.7 102.3c-.73-1.42-2.54-2.1-1.86-3.98a4.72 4.72 0 011.86 3.98zM126.98 90.36c-.87-.1-1.87.32-2.14-.24-.24-.5.22-1.4.75-2.12l1.4 2.36zM85.04 102.38c.95 1 .95 1 0 1.57v-1.57zM81.48 106.98c.26-.45-.01-1.4 1.11-1.05-.24.5-.62.83-1.1 1.05z" fill="#d5002d"/><path d="M82.7 40.69c-.24.04-.47.1-.7.11-.5.04-.31-.14-.1-.33.28.02.58-.05.8.22z" fill="#2e4068"/><path d="M82.1 44.2c-.2 1.11-.46 2.07-1.24 2.8-.52.5-.8.4-1.12-.23-.7-1.38-1.84-2.48-2.63-3.83-.55-.95-1.7-1.14-2.75-1.35-.19-.04-1 .18-.68-.53.25-.53.45-1.54 1.25-1.2 1.46.62 3 .78 4.5 1.14 1.41.35 2.7 1.96 2.67 3.2zM34.66 77.41c1.48 2.2 3.25 4 6.1 4.42.12.4-.36.64-.47 1.05l1.1.25c-3.1.97-5.85.74-8.6-.22 0-1.18.11-2.33 1.05-3.2 1.14-.2.1-.9.3-1.3.2-.32-.12-.9.52-1z" fill="#07215f"/><path d="M68.49 37.98c-.85-.27-1.7-.45-2.49.19-.3.23-.56.02-.81-.1a3.57 3.57 0 00-2.07-.4c-1.28.2-1.18-.6-.95-1.36.68-2.24 3.14-3.1 5.18-1.87 1.14.7 1.9 1.78 2.84 2.68-.4.63-1 .82-1.7.86z" fill="#fdfdfd"/><path d="M33.84 79.71l-1.05 3.2a5.35 5.35 0 01-1.87-.98c-.91-.76-1.45-1.6-.73-2.85.32-.56.5-1.25.45-2.04.7 1.39 1.9 2.08 3.2 2.67z" fill="#fdfdfc"/><path d="M68.49 37.98l1.7-.86c.23.18.45.37.7.53.75.5.77 1.3.07 1.89-.38.31-.53-.03-.72-.2-.54-.51-1-1.13-1.75-1.36z" fill="#0b225d"/><path d="M25.8 76c-.28-.5-.03-.9.24-1.26.11-.15.24.12.3.23.3.6-.16.8-.55 1.03z" fill="#eee5de"/><path d="M34.66 77.41c-.42.2-.14.77-.52 1-.01-.37-.04-.74-.04-1.1 0-.2.04-.46.34-.3.11.06.15.26.22.4z" fill="#f0ece1"/><path d="M136.72 143.56c.77.66 1.58 1.27 2.26 2 .2.22-.39.48-.53.8-.14.3-.4.17-.62-.01-.57-.5-1.16-.96-1.71-1.47-.14-.13-.55-.38-.27-.52.4-.2.42-.73.87-.8z" fill="#0a225e"/><path d="M144.64 150c-.11-1.42.27-1.86 1.5-1.43.52.18 1.16.03 1.75.03 0 .14.01.22 0 .28-.52 2.16-2.17.47-3.25 1.13z" fill="#09225e"/><path d="M178.4 138.78c.2-.38.34-1.01.6-1.06.83-.16 1.64.22 2.4.51.44.17-.46.5-.18 1 .2.31-.33.23-.49.19-.76-.18-1.5-.4-2.33-.64z" fill="#f9f9f9"/><path d="M188.93 144.2c-.33-.31-.66-.63-1-.93-.35-.3-.71-.57-1.15-.92.56-.1.52-1.1 1.11-.81 1.42.69 1.53 1.13 1.04 2.66z" fill="#f5f5f5"/><path d="M172.22 137.68c-.4 1.26-1.62.51-2.28.92-.47.3-.41-.29-.4-.6.03-1.69 1.46-.58 2.16-1 .71-.42.06.45.52.68z" fill="#f4f4f3"/><path d="M153.63 147.88c.98-.08 1.63-2.35 3-.4-.1.27-.42.32-.65.47-.8.54-1.59 1.7-2.35-.07zM194.22 151.22l-1.02-1.51c-.24-.39-.41-.61.18-1.03.67-.47.74-.04 1 .29.64.8 1.28 1.6-.16 2.25z" fill="#f7f7f7"/><path d="M129.63 136.1c-.7-.78-.77-1.83-1.47-2.89.7.41 1.28-.54 1.75.4.46.9.55 1.7-.28 2.5z" fill="#09225f"/><path d="M161.95 140.96c.98-1.35 1.34-.43 1.8.1-.62.47-1.06-.23-1.8-.1z" fill="#ededed"/><path d="M165.3 93.96c-1.01-1.18-2.2-1.9-2.74-3.2-.4-.97-.24-1.69.67-2.25 1.09-.68 2.15-1.4 3.4-2.06-1.03 2.35-.72 4.9-1.34 7.51z" fill="#072160"/><path d="M168.58 89.65c-.3.72-.2 1.44-.28 2.12-.12.9-.64.65-1.06.66-.7 0-.29-.58-.28-.82.02-1.9.14-2.03 1.62-1.96z" fill="#09225f"/><path d="M164.31 100.67c-.16.15-.47.48-.49.46-.3-.24-.56-.54-.84-.82.14-.12.06-.46.35-.4.42.1.74.35.98.76z" fill="#0a235e"/><path d="M126.36 120.13c.21-4.87 2.2-7.8 5.1-10.14a10.93 10.93 0 017.51-2.63c4.3.16 6.1 3.96 5.4 7.2-.5 2.44-1.71 4.48-3.17 6.45-1.92 2.6-7.4 4.9-10.44 4.15-2.45-.6-4.63-2.76-4.4-5.03zM141.23 92.6l5.6-16.77c.23-.7.63-.96 1.44-1.04 5.1-.48 7.45 4.1 6.09 8.32a13.5 13.5 0 01-10.02 9.45c-.95.25-2.01.04-3.1.04zM102.03 125.17c1.9-5.65 3.76-11.15 5.6-16.66.25-.77.6-1.07 1.48-1.15 5.07-.49 7.42 4.11 6.06 8.34a13.52 13.52 0 01-10.03 9.43c-.95.25-2.01.04-3.1.04z" fill="#072160"/><path d="M133.1 112.4c-.79 1.6-1.43 3.3-2.43 4.76-.47.68-1.63.89-1.3 2.1.39.1.48-.19.65-.43a61.79 61.79 0 004.1-6.9c1.05-2.07 3.08-2.06 5.02-1.98 1.47.06 2.29.92 2.77 2.6.25.88-.06 1.68-.31 2.46-1.29 3.9-3.94 6.54-7.89 7.52-2.7.67-5.03-.19-4.7-4.08.15-1.81 2.24-5.16 4.1-6.05zM144.98 89.57c1.24-3.68 2.4-7.18 3.62-10.67.2-.57 0-1.53.99-1.5.87.03 1.53.56 1.98 1.32.98 1.66.6 3.32-.16 4.9-1.39 2.87-3.37 4.97-6.43 5.95z" fill="#d5002d"/></svg>