<?xml version="1.0" encoding="utf-8"?>
<!-- Generator: Adobe Illuirl_strator 24.1.0, SVG Export Plug-In . SVG Version: 6.00 Build 0)  -->
<svg version="1.1" id="Layer_1" xmlns="http://www.w3.org/2000/svg" xmlns:xlink="http://www.w3.org/1999/xlink" x="0px"
	y="0px" viewBox="0 0 200 200" irl_style="enable-background:new 0 0 200 200;" xml:space="preserve">
	<style type="text/css">
		.irl_st0 {
			fill: #FEFEFE;
		}

		.irl_st1 {
			fill: #247D07;
		}

		.irl_st2 {
			fill: #FE7300;
		}
	</style>
	<g>
		<path class="irl_st0" d="M23.6,137.89c0-45.47,0.01-90.95-0.03-136.42c0-1.19,0.27-1.46,1.46-1.46c49.98,0.03,99.96,0.03,149.94,0
		c1.19,0,1.46,0.27,1.46,1.46c-0.04,45.47-0.03,90.95-0.03,136.42c-0.67-0.26-0.59,0.26-0.63,0.62c-0.19,1.69-0.7,3.3-1.2,4.91
		c-2.12,6.77-5.61,12.78-10.03,18.31c-4.32,5.4-9.27,10.16-14.6,14.5c-3.58,2.91-7.44,5.48-11.35,7.95
		c-4.63,2.93-9.47,5.49-14.42,7.75c-6.57,3-13.3,5.72-20.45,7.18c-0.2,0.04-1.21-0.03-0.86,0.86c-1.7,0-3.4,0-5.09,0
		c0.28-0.53-0.1-0.57-0.46-0.63c-0.76-0.13-1.54-0.2-2.28-0.41c-5.14-1.5-10.22-3.19-15.15-5.26c-7.31-3.08-14.34-6.78-20.97-11.13
		c-4.45-2.92-8.72-6.09-12.68-9.69c-4.44-4.03-8.76-8.17-12.27-13.02c-4.72-6.52-8.41-13.56-9.73-21.63
		C24.16,137.82,23.85,137.9,23.6,137.89z M99.75,156.05c0.15,0,0.29-0.01,0.44-0.01c0.26,1.6,0.54,3.19,0.76,4.79
		c0.46,3.37,1.33,6.68,2.34,9.89c0.95,3,2,6.01,3.38,8.88c2.02,4.2,4.23,8.26,7.42,11.72c0.61,0.66,1.13,0.8,2.05,0.43
		c2.72-1.07,5.4-2.22,8.01-3.53c3.67-1.84,7.35-3.65,10.89-5.75c6.02-3.57,11.78-7.54,16.98-12.19
		c7.35-6.56,13.67-13.99,17.69-23.16c2.21-5.04,3.49-10.26,3.49-15.78c0-42.13-0.01-84.26,0.04-126.39c0-1.49-0.41-1.78-1.82-1.77
		c-24.78,0.04-49.56,0.03-74.33,0.03c-22.76,0-45.52,0-68.28,0c-2.04,0-2.04,0-2.04,2.12c0,42.18,0.01,84.37-0.01,126.55
		c0,3.25,0.54,6.43,1.47,9.51c2.65,8.84,7.5,16.4,13.81,23.05c3.86,4.07,8.08,7.73,12.6,11.1c4.4,3.28,9.01,6.2,13.77,8.87
		c4.93,2.76,10.04,5.2,15.3,7.3c0.89,0.36,1.53,0.41,2.2-0.39c1.84-2.17,3.56-4.41,4.97-6.89c2.88-5.08,4.93-10.51,6.52-16.09
		C98.55,164.33,99.32,160.22,99.75,156.05z" />
		<path class="irl_st1" d="M99.75,156.05c-0.43,4.17-1.2,8.28-2.35,12.28c-1.6,5.58-3.65,11.01-6.52,16.09c-1.4,2.48-3.12,4.73-4.97,6.89
		c-0.67,0.79-1.31,0.74-2.2,0.39c-5.26-2.1-10.37-4.54-15.3-7.3c-4.76-2.67-9.37-5.59-13.77-8.87c-4.51-3.37-8.73-7.03-12.6-11.1
		c-6.31-6.65-11.16-14.21-13.81-23.05c-0.92-3.08-1.47-6.25-1.47-9.51c0.02-42.18,0.01-84.37,0.01-126.55c0-2.12,0-2.12,2.04-2.12
		c22.76,0,45.52,0,68.28,0c24.78,0,49.56,0.01,74.33-0.03c1.4,0,1.82,0.29,1.82,1.77c-0.05,42.13-0.04,84.26-0.04,126.39
		c0,5.52-1.28,10.74-3.49,15.78c-4.02,9.16-10.35,16.59-17.69,23.16c-5.2,4.65-10.96,8.62-16.98,12.19
		c-3.54,2.1-7.22,3.91-10.89,5.75c-2.62,1.31-5.29,2.46-8.01,3.53c-0.93,0.36-1.45,0.22-2.05-0.43c-3.19-3.46-5.4-7.52-7.42-11.72
		c-1.38-2.87-2.44-5.88-3.38-8.88c-1.01-3.21-1.89-6.51-2.34-9.89c-0.22-1.6-0.5-3.19-0.76-4.79
		C100.04,156.04,99.9,156.05,99.75,156.05z M150.03,36.64c-0.55,1.6-1.08,3.2-1.64,4.8c-0.86,2.44-3.03,3.5-5.51,2.98
		c-2.14-0.45-3.89-1.55-5.67-2.68c-3.37-2.15-5.14-5.28-5.66-9.16c-0.06-0.47-0.47-1.45,0.69-1.34c1.75,0.18,3.43-0.41,5.18-0.35
		c4.42,0.16,8.67-0.61,12.59-2.74c0.22-0.12,1.09,0.25,0.65-0.72c-0.37-0.81-0.81-0.44-1.21-0.27c-1.24,0.54-2.55,0.79-3.88,0.87
		c-4.49,0.27-8.96-0.46-13.45-0.29c-0.84,0.03-1.01-0.32-0.92-1.02c0.4-2.87,0.84-5.77,2.67-8.12c1.45-1.87,2.94-3.33,6.36-2.35
		c3,0.86,5.43,2.66,7.81,4.58c0.38,0.31,0.64,0.93,1.29,0.38c1.08-0.9,2.19-1.75,3.27-2.64c0.62-0.51,0.27-0.95-0.17-1.29
		c-1.11-0.84-2.17-1.81-3.4-2.4c-2.6-1.26-5.24-2.34-8.31-1.52c-3.12,0.84-5.93,2.32-8.7,3.88c-2.89,1.63-5.18,4-6.37,7.05
		c-2.47,6.32-1.19,15.33,5.06,19.62c2.99,2.05,6.12,3.89,10.04,2.94c1.5-0.36,3.01-0.72,4.53-0.95c4.33-0.65,7.54-2.57,8.62-7.16
		c0.14-0.59,0.18-1.01-0.34-1.08c-1.14-0.16-2.05-1.01-3.22-1.02c-0.08-0.08-0.16-0.15-0.25-0.23
		C150.07,36.48,150.05,36.56,150.03,36.64z M71.08,36.64c-0.55,1.6-1.08,3.2-1.64,4.8c-0.86,2.44-3.03,3.5-5.51,2.98
		c-2.14-0.45-3.89-1.55-5.67-2.68c-3.37-2.15-5.14-5.28-5.66-9.16c-0.06-0.47-0.47-1.45,0.69-1.34c1.75,0.18,3.43-0.41,5.18-0.35
		c4.42,0.16,8.67-0.61,12.59-2.75c0.22-0.12,1.09,0.25,0.65-0.72c-0.37-0.81-0.81-0.44-1.21-0.27c-1.24,0.54-2.55,0.79-3.88,0.87
		c-4.49,0.27-8.96-0.46-13.45-0.29c-0.84,0.03-1.01-0.32-0.92-1.02c0.4-2.87,0.84-5.77,2.67-8.12c1.45-1.87,2.94-3.33,6.36-2.35
		c3,0.86,5.43,2.66,7.81,4.58c0.38,0.31,0.64,0.92,1.29,0.38c1.08-0.9,2.19-1.75,3.27-2.64c0.62-0.51,0.27-0.96-0.17-1.29
		c-1.11-0.84-2.17-1.81-3.4-2.4c-2.6-1.25-5.24-2.35-8.31-1.52c-3.12,0.84-5.92,2.32-8.69,3.88c-2.89,1.63-5.18,4-6.37,7.05
		c-2.47,6.32-1.19,15.33,5.06,19.62c2.99,2.05,6.12,3.89,10.04,2.94c1.5-0.36,3.01-0.72,4.53-0.95c4.33-0.65,7.54-2.57,8.62-7.16
		c0.14-0.59,0.18-1.01-0.34-1.08c-1.14-0.16-2.05-1.01-3.22-1.02c-0.08-0.08-0.16-0.15-0.25-0.23
		C71.12,36.48,71.1,36.56,71.08,36.64z M110.47,114.75c-1.75,2.31-3.49,4.63-5.27,6.92c-0.32,0.42-0.8,0.92-0.64,1.32
		c0.12,0.31,0.84,0.43,1.32,0.55c0.3,0.08,0.63,0,0.95,0.02c2.59,0.22,5.17-0.08,7.71-0.41c1.77-0.23,3.54-0.06,5.3-0.41
		c2.99-0.59,6.02-1.01,9.05-1.4c3.38-0.43,6.84-0.84,9.93-2.17c7.1-3.04,12.18-8.18,14.23-15.82c1.3-4.85,0.35-9.38-3.32-12.91
		c-2.96-2.85-6.5-4.61-10.85-3.5c-1.2,0.31-1.66,0.02-1.17-1.31c0.26-0.72,0.23-1.57,0.22-2.36c-0.03-2.5-0.99-4.67-2.34-6.74
		c-1.91-2.92-4.66-4.67-7.98-5.12c-4.93-0.68-9.34,0.76-13.47,3.67c-6.69,4.72-9.55,11.41-10.62,19.15c-0.5,3.6-1,7.2-1.37,10.82
		c-0.51,5.07-1.07,10.1-0.59,15.34c1.26-0.86,2.28-1.66,3.32-2.41c1.66-1.2,3.09-2.74,5-3.6
		C110.07,114.5,110.27,114.63,110.47,114.75z M89.92,135.3c-0.06-0.26-0.12-0.53-0.18-0.79c1.68-2.91,4.18-5.25,5.9-8.28
		c-4.82-0.44-9.41-0.01-13.97,0.31c-1.99,0.14-4.04,0.38-6.04,0.76c-2.76,0.52-5.56,0.85-8.32,1.38c-2.08,0.4-4.26,0.68-6.17,1.53
		c-5.16,2.3-9.37,5.78-12.18,10.81c-1.92,3.44-2.98,7.11-2.39,11c1.06,6.98,8.22,11.96,15,10.48c0.77-0.17,0.98,0.05,0.75,0.8
		c-0.45,1.47-0.46,3.03-0.14,4.46c1.93,8.65,9.82,12.33,17.99,9.63c4.21-1.39,7.64-4.01,10.39-7.37c2.19-2.68,4.06-5.59,4.74-9.16
		c0.71-3.73,1.44-7.45,1.94-11.23c0.49-3.73,1.16-7.45,1.14-11.22c-0.01-2.66,0.95-5.32,0.05-7.99c-0.12-0.36,0.23-0.9-0.35-1.09
		c-0.5-0.16-0.73,0.3-1.06,0.55C94.66,131.7,92.29,133.49,89.92,135.3z M98.21,120.28c0.56-1.76,0.71-3.51,0.47-5.2
		c-0.32-2.21-0.13-4.42-0.3-6.61c-0.18-2.27-0.59-4.52-0.9-6.78c-0.33-2.47-0.58-4.95-1-7.4c-0.55-3.18-0.88-6.51-2.33-9.39
		c-2.93-5.81-7.31-10.26-13.49-12.7c-2.92-1.16-6-1.25-8.95-0.66c-6.4,1.3-11.02,8.38-9.29,14.77c0.16,0.61,0,0.85-0.75,0.66
		c-1.99-0.51-3.91-0.34-5.95,0.22c-6.31,1.73-10.44,8.81-8.98,15.18c1.23,5.38,4.02,9.67,8.17,13.08c2.16,1.78,4.58,3.26,7.38,4.06
		c3.33,0.96,6.71,1.64,10.12,2.07c3.76,0.48,7.47,1.27,11.29,1.43c1.56,0.06,3.2,0.17,4.8,0.44c1.9,0.33,3.91,0.14,5.86,0.03
		c0.87-0.05,1.48-0.54,0.7-1.53c-1.93-2.44-3.83-4.9-5.76-7.34c-0.29-0.37-0.63-0.69-0.56-1.39C92,115.65,95.13,117.99,98.21,120.28
		z M111.2,135.61c-0.07,0.09-0.15,0.17-0.22,0.26c-0.31-0.17-0.64-0.3-0.91-0.51c-2.4-1.85-4.79-3.71-7.17-5.58
		c-0.29-0.23-0.51-0.57-0.94-0.47c-0.54,0.13-0.29,0.59-0.36,0.92c-0.89,3.73,0.07,7.46,0.16,11.17c0.05,2.29,0.32,4.67,0.77,6.99
		c0.45,2.3,0.59,4.66,1.01,6.96c0.44,2.4,0.86,4.83,1.64,7.13c1.75,5.16,5.04,9.2,9.55,12.26c3.84,2.6,7.93,3.94,12.66,3.29
		c6.65-0.91,11.91-7.96,10.29-14.76c-0.18-0.77,0.05-0.99,0.78-0.76c1.45,0.45,3.03,0.47,4.39,0.13c9.36-2.34,12.68-10.38,9.6-18.54
		c-1.78-4.72-4.8-8.54-9.03-11.36c-1.64-1.09-3.28-2.22-5.16-2.77c-2.38-0.69-4.84-1.15-7.28-1.59c-3.08-0.55-6.16-1.07-9.28-1.39
		c-2.56-0.26-5.13-0.39-7.67-0.67c-3.17-0.35-6.29-0.04-9.91-0.26C106.64,129.48,108.92,132.55,111.2,135.61z M91.72,43.17
		c0,1.06,0.01,2.12-0.01,3.18c-0.01,0.57,0.07,0.93,0.79,0.75c1.55-0.4,3.11-0.74,4.7-0.95c0.76-0.1,1.28-0.48,1.25-1.54
		c-0.06-2.04,0.23-4.09,0.25-6.13c0.01-1.04,0.55-1,1.2-0.78c0.38,0.12,0.7,0.43,1.03,0.67c2.43,1.8,4.37,4.13,6.52,6.23
		c3.24,3.17,9.77,4.35,13.84,2.41c0.28-0.13,0.75-0.16,0.67-0.71c-0.06-0.49-0.41-0.35-0.69-0.44c-0.64-0.19-1.31-0.32-1.88-0.63
		c-3.78-2.06-6.75-5.04-9.47-8.33c-0.55-0.67-0.27-0.78,0.29-1.08c1.82-0.97,3.61-1.98,5.4-2.99c2.94-1.65,4.19-4.32,4.44-7.54
		c0.26-3.41-1.07-6.31-3.2-8.82c-2.27-2.67-5.16-4.42-8.78-4.3c-2.62,0.09-4.63,1.87-6.84,3.05c-0.9,0.48-1.83,1.66-2.56,1.53
		c-1.03-0.19-0.63-1.76-1.03-2.67c-0.04-0.09-0.16-0.18-0.16-0.26c-0.01-0.63-0.11-0.75-0.83-0.51c-2.19,0.74-4.43,1.29-6.65,1.95
		c-0.29,0.09-0.79-0.13-0.83,0.49c-0.03,0.59,0.43,0.42,0.72,0.58c0.99,0.53,1.73,1.33,1.81,2.49c0.13,1.94,0.39,3.86,0.36,5.81
		C91.96,30.8,92.24,36.99,91.72,43.17z M79.63,32.18c0,4.56,0,9.12,0,13.69c0,0.8-0.26,1.62,1.21,1.04
		c1.32-0.52,2.84-0.51,4.27-0.72c0.83-0.12,1.24-0.46,1.22-1.42c-0.06-2.81-0.02-5.62-0.02-8.43c0-3.13-0.26-6.29,0.07-9.38
		c0.46-4.39,0.05-8.77,0.26-13.14c0.03-0.69-0.32-0.85-0.86-0.72c-2.12,0.51-4.29,0.73-6.45,1.01c-0.47,0.06-1.37-0.13-1.58,0.63
		c-0.24,0.87,0.82,0.37,1.05,0.84c0.13,0.27,0.52,0.4,0.5,0.77c-0.05,1,0.37,1.92,0.36,2.94C79.59,23.59,79.63,27.89,79.63,32.18z
		 M74.15,18c-0.04-0.04-0.07-0.08-0.11-0.12c-0.04,0.03-0.08,0.07-0.11,0.1c0.06,0.04,0.11,0.07,0.17,0.11
		C74.11,18.06,74.13,18.03,74.15,18z M152.94,17.94c-0.02,0.03-0.06,0.08-0.06,0.1c0.06,0.15,0.14,0.15,0.21,0.01
		c0.01-0.02-0.02-0.08-0.05-0.1C153.02,17.93,152.97,17.94,152.94,17.94z M69.93,21.61c0.04-0.04,0.08-0.07,0.12-0.11
		c-0.03-0.04-0.07-0.08-0.1-0.11c-0.04,0.06-0.07,0.11-0.11,0.17C69.87,21.58,69.91,21.6,69.93,21.61z M148.88,21.61
		c0.04-0.04,0.08-0.07,0.12-0.11c-0.03-0.04-0.07-0.08-0.1-0.11c-0.04,0.06-0.07,0.11-0.11,0.17
		C148.82,21.58,148.86,21.6,148.88,21.61z" />
		<path class="irl_st2" d="M89.92,135.3c2.37-1.8,4.73-3.6,7.09-5.41c0.33-0.25,0.56-0.71,1.06-0.55c0.58,0.18,0.22,0.72,0.35,1.09
		c0.9,2.66-0.07,5.33-0.05,7.99c0.02,3.77-0.64,7.48-1.14,11.22c-0.5,3.78-1.23,7.49-1.94,11.23c-0.68,3.57-2.55,6.49-4.74,9.16
		c-2.75,3.37-6.17,5.98-10.39,7.37c-8.16,2.7-16.05-0.99-17.99-9.63c-0.32-1.43-0.31-2.99,0.14-4.46c0.23-0.74,0.02-0.97-0.75-0.8
		c-6.78,1.48-13.93-3.5-15-10.48c-0.59-3.89,0.47-7.57,2.39-11c2.81-5.03,7.02-8.51,12.18-10.81c1.91-0.85,4.09-1.13,6.17-1.53
		c2.76-0.53,5.56-0.86,8.32-1.38c2-0.38,4.05-0.62,6.04-0.76c4.56-0.33,9.15-0.75,13.97-0.31c-1.72,3.04-4.22,5.38-5.9,8.28
		c-0.18,0.36-0.79,0.59-0.52,1.05C89.37,135.8,89.76,135.6,89.92,135.3z M88.77,136.11c-0.04-0.07-0.09-0.21-0.11-0.2
		c-0.09,0.02-0.18,0.08-0.27,0.13c0.04,0.07,0.09,0.19,0.13,0.19C88.6,136.22,88.69,136.15,88.77,136.11z" />
		<path class="irl_st0" d="M109.87,114.38c-1.91,0.86-3.34,2.39-5,3.6c-1.04,0.75-2.06,1.54-3.32,2.41c-0.47-5.25,0.08-10.28,0.59-15.34
		c0.37-3.62,0.87-7.22,1.37-10.82c1.07-7.74,3.93-14.43,10.62-19.15c4.12-2.91,8.54-4.35,13.47-3.67c3.32,0.46,6.06,2.21,7.98,5.12
		c1.36,2.07,2.31,4.24,2.34,6.74c0.01,0.79,0.05,1.64-0.22,2.36c-0.49,1.34-0.04,1.62,1.17,1.31c4.35-1.11,7.9,0.66,10.85,3.5
		c3.67,3.53,4.62,8.06,3.32,12.91c-2.05,7.64-7.12,12.78-14.23,15.82c-3.1,1.32-6.55,1.74-9.93,2.17c-3.03,0.39-6.06,0.8-9.05,1.4
		c-1.76,0.35-3.53,0.19-5.3,0.41c-2.54,0.32-5.12,0.63-7.71,0.41c-0.32-0.03-0.65,0.06-0.95-0.02c-0.47-0.13-1.19-0.24-1.32-0.55
		c-0.16-0.4,0.32-0.9,0.64-1.32c1.77-2.29,3.51-4.61,5.27-6.92c0.51-0.31,0.81-0.73,0.78-1.52
		C110.72,113.68,110.3,114.03,109.87,114.38z" />
		<path class="irl_st0" d="M98.21,120.28c-3.08-2.3-6.21-4.63-9.48-7.06c-0.07,0.7,0.26,1.02,0.56,1.39c1.93,2.44,3.83,4.9,5.76,7.34
		c0.78,0.99,0.17,1.48-0.7,1.53c-1.95,0.11-3.96,0.3-5.86-0.03c-1.6-0.27-3.24-0.38-4.8-0.44c-3.82-0.16-7.53-0.95-11.29-1.43
		c-3.41-0.43-6.79-1.11-10.12-2.07c-2.8-0.81-5.22-2.29-7.38-4.06c-4.15-3.41-6.94-7.7-8.17-13.08C45.27,96,49.4,88.92,55.71,87.19
		c2.04-0.56,3.96-0.73,5.95-0.22c0.75,0.19,0.92-0.05,0.75-0.66c-1.73-6.39,2.89-13.47,9.29-14.77c2.94-0.6,6.03-0.5,8.95,0.66
		c6.19,2.45,10.57,6.89,13.49,12.7c1.45,2.88,1.78,6.21,2.33,9.39c0.43,2.45,0.67,4.93,1,7.4c0.3,2.26,0.72,4.51,0.9,6.78
		c0.17,2.2-0.01,4.4,0.3,6.61C98.93,116.78,98.78,118.52,98.21,120.28z" />
		<path class="irl_st2" d="M111.2,135.61c-2.28-3.06-4.56-6.13-7.11-9.55c3.62,0.22,6.75-0.09,9.91,0.26c2.54,0.28,5.11,0.42,7.67,0.67
		c3.13,0.32,6.21,0.83,9.28,1.39c2.45,0.44,4.9,0.89,7.28,1.59c1.88,0.55,3.53,1.68,5.16,2.77c4.23,2.82,7.25,6.64,9.03,11.36
		c3.09,8.16-0.23,16.21-9.6,18.54c-1.36,0.34-2.94,0.32-4.39-0.13c-0.73-0.23-0.97-0.01-0.78,0.76c1.63,6.8-3.64,13.85-10.29,14.76
		c-4.73,0.65-8.83-0.69-12.66-3.29c-4.51-3.06-7.8-7.1-9.55-12.26c-0.78-2.3-1.2-4.73-1.64-7.13c-0.42-2.31-0.56-4.67-1.01-6.96
		c-0.45-2.32-0.72-4.7-0.77-6.99c-0.09-3.72-1.04-7.44-0.16-11.17c0.08-0.32-0.18-0.79,0.36-0.92c0.43-0.1,0.66,0.24,0.94,0.47
		c2.38,1.87,4.77,3.73,7.17,5.58c0.27,0.21,0.61,0.34,0.91,0.51C111.05,135.79,111.13,135.7,111.2,135.61z" />
		<path class="irl_st0" d="M91.72,43.17c0.51-6.18,0.24-12.37,0.34-18.55c0.03-1.96-0.23-3.88-0.36-5.81c-0.08-1.16-0.82-1.96-1.81-2.49
		c-0.29-0.16-0.76,0.01-0.72-0.58c0.04-0.61,0.54-0.4,0.83-0.49c2.21-0.66,4.46-1.22,6.65-1.95c0.72-0.24,0.82-0.12,0.83,0.51
		c0,0.09,0.12,0.17,0.16,0.26c0.41,0.91,0.01,2.48,1.03,2.67c0.73,0.14,1.66-1.05,2.56-1.53c2.21-1.18,4.22-2.96,6.84-3.05
		c3.62-0.12,6.52,1.63,8.78,4.3c2.13,2.5,3.45,5.41,3.2,8.82c-0.24,3.23-1.5,5.89-4.44,7.54c-1.79,1.01-3.58,2.02-5.4,2.99
		c-0.56,0.3-0.84,0.41-0.29,1.08c2.71,3.29,5.69,6.27,9.47,8.33c0.57,0.31,1.25,0.45,1.88,0.63c0.28,0.08,0.63-0.05,0.69,0.44
		c0.07,0.56-0.4,0.58-0.67,0.71c-4.07,1.94-10.6,0.76-13.84-2.41c-2.15-2.1-4.09-4.42-6.52-6.23c-0.33-0.25-0.65-0.55-1.03-0.67
		c-0.65-0.21-1.19-0.26-1.2,0.78c-0.02,2.05-0.3,4.09-0.25,6.13c0.03,1.06-0.49,1.44-1.25,1.54c-1.59,0.21-3.15,0.55-4.7,0.95
		c-0.71,0.19-0.8-0.18-0.79-0.75C91.74,45.29,91.72,44.23,91.72,43.17z M101.63,36.32c1.74,0.14,3.65-0.26,5.52-0.96
		c3.88-1.46,6.29-3.72,6.18-8.58c-0.1-4.29-2.49-7.43-5.99-9.7c-3.75-2.44-6.46-0.99-7.65,2.58c-0.63,1.87-0.87,3.83-0.94,5.79
		c-0.09,2.75-0.02,5.5-0.02,8.26C98.73,36.32,98.73,36.32,101.63,36.32z" />
		<path class="irl_st0" d="M71.39,36.63c1.17,0.01,2.08,0.86,3.22,1.02c0.52,0.07,0.48,0.49,0.34,1.08c-1.09,4.59-4.29,6.51-8.62,7.16
		c-1.52,0.23-3.03,0.58-4.53,0.95c-3.92,0.95-7.05-0.89-10.04-2.94c-6.25-4.28-7.54-13.3-5.06-19.62c1.2-3.05,3.48-5.42,6.37-7.05
		c2.77-1.56,5.57-3.04,8.69-3.88c3.07-0.83,5.71,0.27,8.31,1.52c1.23,0.59,2.29,1.57,3.4,2.4c0.44,0.34,0.79,0.78,0.17,1.29
		c-1.08,0.89-2.19,1.75-3.27,2.64c-0.65,0.54-0.91-0.07-1.29-0.38c-2.37-1.92-4.8-3.72-7.81-4.58c-3.42-0.98-4.91,0.48-6.36,2.35
		c-1.82,2.35-2.27,5.25-2.67,8.12c-0.1,0.7,0.07,1.05,0.92,1.02c4.49-0.17,8.96,0.56,13.45,0.29c1.33-0.08,2.64-0.33,3.88-0.87
		c0.4-0.17,0.84-0.55,1.21,0.27c0.44,0.97-0.42,0.6-0.65,0.72c-3.93,2.14-8.17,2.91-12.59,2.75c-1.75-0.07-3.43,0.53-5.18,0.35
		c-1.16-0.12-0.75,0.87-0.69,1.34c0.52,3.88,2.29,7.01,5.66,9.16c1.78,1.13,3.53,2.23,5.67,2.68c2.48,0.52,4.66-0.54,5.51-2.98
		c0.56-1.59,1.09-3.2,1.64-4.8C71.18,36.64,71.28,36.64,71.39,36.63z" />
		<path class="irl_st0" d="M150.33,36.63c1.17,0.01,2.08,0.86,3.22,1.02c0.52,0.07,0.48,0.49,0.34,1.08c-1.09,4.59-4.29,6.51-8.62,7.16
		c-1.52,0.23-3.03,0.58-4.53,0.95c-3.92,0.95-7.05-0.89-10.04-2.94c-6.25-4.29-7.54-13.3-5.06-19.62c1.19-3.05,3.48-5.42,6.37-7.05
		c2.77-1.56,5.57-3.04,8.7-3.88c3.07-0.82,5.71,0.26,8.31,1.52c1.23,0.6,2.29,1.57,3.4,2.4c0.44,0.34,0.79,0.78,0.17,1.29
		c-1.08,0.89-2.19,1.75-3.27,2.64c-0.65,0.54-0.91-0.07-1.29-0.38c-2.37-1.92-4.8-3.72-7.81-4.58c-3.42-0.98-4.91,0.48-6.36,2.35
		c-1.82,2.35-2.26,5.25-2.67,8.12c-0.1,0.7,0.07,1.05,0.92,1.02c4.49-0.17,8.96,0.56,13.45,0.29c1.33-0.08,2.64-0.33,3.88-0.87
		c0.4-0.17,0.84-0.55,1.21,0.27c0.44,0.97-0.42,0.6-0.65,0.72c-3.93,2.14-8.17,2.91-12.59,2.74c-1.75-0.07-3.43,0.53-5.18,0.35
		c-1.16-0.12-0.75,0.87-0.69,1.34c0.52,3.88,2.29,7.01,5.66,9.16c1.78,1.13,3.53,2.23,5.67,2.68c2.48,0.52,4.66-0.54,5.51-2.98
		c0.56-1.59,1.09-3.2,1.64-4.8C150.13,36.64,150.23,36.64,150.33,36.63z" />
		<path class="irl_st0" d="M79.63,32.18c0-4.3-0.04-8.59,0.03-12.89c0.02-1.02-0.41-1.94-0.36-2.94c0.02-0.37-0.37-0.5-0.5-0.77
		c-0.23-0.47-1.29,0.03-1.05-0.84c0.21-0.75,1.11-0.56,1.58-0.63c2.16-0.28,4.32-0.5,6.45-1.01c0.54-0.13,0.89,0.03,0.86,0.72
		c-0.21,4.38,0.2,8.75-0.26,13.14c-0.32,3.1-0.07,6.25-0.07,9.38c0,2.81-0.04,5.62,0.02,8.43c0.02,0.96-0.39,1.3-1.22,1.42
		c-1.43,0.21-2.96,0.2-4.27,0.72c-1.47,0.58-1.21-0.25-1.21-1.04C79.62,41.31,79.63,36.75,79.63,32.18z" />
		<path class="irl_st1" d="M109.87,114.38c0.42-0.35,0.84-0.7,1.38-1.15c0.03,0.79-0.27,1.21-0.78,1.52
		C110.27,114.63,110.07,114.5,109.87,114.38z" />
		<path class="irl_st1" d="M89.92,135.3c-0.16,0.3-0.55,0.51-0.7,0.26c-0.27-0.46,0.34-0.69,0.52-1.05
		C89.8,134.77,89.86,135.03,89.92,135.3z" />
		<path class="irl_st0" d="M74.15,18c-0.01,0.03-0.03,0.06-0.05,0.1c-0.06-0.04-0.11-0.07-0.17-0.11c0.04-0.03,0.08-0.07,0.11-0.1
		C74.08,17.92,74.11,17.96,74.15,18z" />
		<path class="irl_st0" d="M152.94,17.94c0.04,0,0.08-0.01,0.11,0.01c0.03,0.02,0.06,0.08,0.05,0.1c-0.07,0.14-0.15,0.14-0.21-0.01
		C152.87,18.02,152.92,17.97,152.94,17.94z" />
		<path class="irl_st0" d="M69.93,21.61c-0.03-0.01-0.06-0.03-0.1-0.05c0.04-0.06,0.07-0.11,0.11-0.17c0.03,0.04,0.07,0.08,0.1,0.11
		C70.01,21.54,69.97,21.58,69.93,21.61z" />
		<path class="irl_st0" d="M148.88,21.61c-0.03-0.01-0.06-0.03-0.1-0.05c0.04-0.06,0.07-0.11,0.11-0.17c0.03,0.04,0.07,0.08,0.1,0.11
		C148.96,21.54,148.92,21.58,148.88,21.61z" />
		<path class="irl_st0" d="M71.39,36.63c-0.1,0.01-0.2,0.01-0.3,0.01c0.02-0.08,0.04-0.16,0.05-0.24C71.22,36.48,71.3,36.55,71.39,36.63z
		" />
		<path class="irl_st0" d="M150.33,36.63c-0.1,0.01-0.2,0.01-0.3,0.01c0.02-0.08,0.04-0.16,0.05-0.24
		C150.17,36.48,150.25,36.55,150.33,36.63z" />
		<path class="irl_st1" d="M88.77,136.11c-0.09,0.04-0.17,0.11-0.25,0.12c-0.04,0-0.08-0.12-0.13-0.19c0.09-0.05,0.17-0.11,0.27-0.13
		C88.68,135.9,88.74,136.04,88.77,136.11z" />
		<path class="irl_st1" d="M101.63,36.32c-2.9,0-2.9,0-2.9-2.62c0-2.75-0.07-5.51,0.02-8.26c0.07-1.95,0.31-3.92,0.94-5.79
		c1.19-3.56,3.89-5.02,7.65-2.58c3.5,2.27,5.88,5.42,5.99,9.7c0.12,4.86-2.3,7.12-6.18,8.58C105.28,36.07,103.37,36.47,101.63,36.32
		z" />
	</g>
</svg>