<svg xmlns="http://www.w3.org/2000/svg" viewBox="0 0 200 200"><path d="M197.06 74.14l-.58-.01h-11.02c-2.57 0-3.63.83-4.25 3.35-.4 1.65-.92 3.27-1.16 4.86l-.02-.32c-.16-1.66-.31-3.31-.56-4.95-.29-1.88-1.28-2.86-3.16-2.9-1.02-.04-1.51-.44-1.86-1.37a82 82 0 00-5.8-12.37 78.54 78.54 0 00-15.62-19.31A78.74 78.74 0 00127.6 25.7a72.28 72.28 0 00-17.66-4.26c-1.91-.2-3.84-.09-5.75-.34h-8.35c-.43.25-.9.1-1.36.12-1.92.07-3.85.1-5.77.36a79.14 79.14 0 00-56.08 36.73 78.77 78.77 0 00-9.83 23.91 91.08 91.08 0 00-2.02 15.26c-.02.5 0 .87-.74.84-4.17-.17-8.35-.06-12.52-.07-2.24 0-3.42.85-3.93 3-1.22 5.22-2.95 10.32-3.57 15.68v2.78a5.85 5.85 0 002.82 4.77 9.32 9.32 0 004.95 1.38c5.3 0 10.59.02 15.88-.02 1 0 1.55.33 1.89 1.29a73.1 73.1 0 002.11 5.14 78.28 78.28 0 0019.26 26.54 78.38 78.38 0 0025.74 15.56 71.55 71.55 0 0017.43 4.17c1.9.2 3.83.09 5.74.33h8.35c.44-.24.91-.1 1.36-.1 1.9-.07 3.78-.1 5.66-.36a77.95 77.95 0 0028.54-9.86 79.64 79.64 0 0034.56-40.91c.67-1.79.7-1.78 2.57-1.78 2.86 0 5.72-.02 8.58 0 2.61.02 4.06-2.54 2.79-4.46a3.67 3.67 0 01-.46-2.35c.07-1.09.3-2.15.56-3.2l7.7-30.83c.24-.94.53-1.86.87-2.77a6.16 6.16 0 011.76-2.69A3.65 3.65 0 00200 77.5v-1.16c-.52-1.6-1.23-2.14-2.95-2.2zM17.9 111.6c-.42 0-.58-.16-.46-.55.61-1.95.9-4 1.87-5.83.4-.74.84-1.5 1.74-2.12.5 2.9.36 5.67 1 8.49h-4.16z" fill="#0f0f11"/><path d="M114.64 74.44l-25.05.04c-10.34 0-20.67.01-31-.01-2.53 0-4.93.47-7.16 1.68-.65.36-.95.31-1.27-.37-.45-.98-1.34-1.3-2.36-1.3l-9.97-.04c-.22-.48 0-.9.19-1.33 3-6.98 7.13-13.24 12.24-18.87A66.72 66.72 0 0170.4 39.26a66.7 66.7 0 0122.74-6.45c2.77-.3 5.54-.56 8.32-.43 5.3.24 10.54.93 15.67 2.3.3.07.6.16.85.35.3.09.03.82.64.56.11.03.2.08.28.16.13.2.13.42.07.65a7.12 7.12 0 01-1.64 1.61c-.18.06-.35.14-.37.16.08-.08.37-.1.57-.28.52-.48 1-1.04 1.8-1.02.22-.1.39-.28.55-.46.41-.58.92-.73 1.6-.44.57.24.72.63.58 1.18-.01.16-.03.3-.06.46-.06.24-.1.5-.11.74a1.8 1.8 0 01-.14.61 1 1 0 01-.3.36c-.3.18-.67.28-.9.56-.54.5-1.05 1.03-1.56 1.56-.37.36-.62.82-.95 1.21a8.6 8.6 0 01-.6.72c.46-.46.9-.98 1.5-.17.13 1.21-.74 1.81-1.5 2.48-.25.16-.52.28-.76.45.2-.13.43-.05.64-.03.28.06.54.15.63.46-.05.7-.65.95-1.1 1.33-.1.1-.22.21-.5.44.31-.23.43-.37.58-.48 1.04-.54 1.73-1.48 2.59-2.23.29-.25.63-.7 1.05-.22.36.4.1.79-.2 1.11-.5.57-1.05 1.1-1.6 1.63-.31.28-.7.44-.95.8-.47.98-1.68 1.42-1.88 2.6-.5.79-1.42 1.26-1.67 2.24-.14.23-.36.38-.48.53l.5-.48a.53.53 0 01.25-.15c.1-.02.19-.01.28 0 .24.05.42-.07.58-.23.27-.26.6-.46.87-.71l.28-.34c.33-.43.7-.78 1.29-.78a1 1 0 01.54.27c.64.4.78-.34 1.16-.52.4-.35.73-.75 1.08-1.14.41-.33.83-.64 1.35-.2.48.58.39 1.15-.06 1.67-1.54 1.8-2.8 3.85-4.75 5.28-.31.28-.61.57-.9.88.78-.72 1.72-1.26 2.35-2.15 1.1-.81 1.92-2 3.27-2.5.26 0 .45.1.55.34.14.42-.06.8-.12 1.2a13.33 13.33 0 01-3.13 3.37c-.45.25-.81.64-1.22.96-.39.24-.74.53-1.01.9-.05.06-.07.18-.05.18.17 0 .25-.16.37-.25.31-.26.58-.61 1.04-.62.6.29.96-.23 1.42-.4.74-.35 1.29-.95 1.88-1.49.37-.33.73-.69 1.17-.93.27-.16.57-.33.86-.13.38.25.44.6.21 1-.39.5-1.04.72-1.34 1.3-.42.6-.1 1.3-.3 1.92a24.42 24.42 0 01-2.67 2.93c-.12.21-.2.49.1.55.31.07.3-.27.37-.48.02-.1.06-.19.12-.28.24-.25.58-.39.8-.66.26-.27.53-.5.9-.58.33-.12.6.34.95.08.5-.41 1.02-.82 1.5-1.26.64-.25.9-1.09 1.72-1.05.08.07.14.16.19.25.07.15.16.25.33.1.34-.31.64-.68 1-.97.44-.37.93-1.14 1.5-.57.5.5-.21 1.02-.58 1.43-.41.46-.86.88-1.3 1.3-3.3 3.14-6.58 6.3-9.76 9.55-.5.53-1.17.86-1.62 1.44-.38.4-.34.94-.48 1.42-.1.33-.33.55-.64.68zM135.07 113.7c-.26 1.41-.49 2.84-1 4.2-.18.38-.42.72-.7 1.04-.36.41.2.2.24.35.19 1.03-.3 1.95-.52 2.9-.41 1.86.66 3.32 2.6 3.33h25.15c.46 0 .92.04 1.35-.2.38.61 0 1.13-.23 1.63a67.28 67.28 0 01-57.8 40.46c-15.13.9-28.99-2.93-41.65-11.19-.51-.33-1.11-.58-1.3-1.25.37-.66 1.03-1.05 1.5-1.6.03-.06.09-.1.16-.1-.18-.07-.19.14-.3.18-.07.07-.14.12-.22.17-.24.14-.45.3-.61.53-.14.31-.34.57-.66.73-.74-.1-1.3-.43-1.54-1.2.07-.5.55-.75.75-1.17.13-.23.26-.46.44-.65.34-.3.82-.43 1.04-.87.16-.2.35-.37.58-.5.47-.21.72-.66 1.07-1 .31-.3.65-.6.86-1a15.3 15.3 0 01.4-.65c.44-.44.77-1.04 1.48-1.12.24.03.4.15.5.36.03.83-.95 1.12-1.01 1.9-.06.1-.13.2-.2.28-.03.04 0 .03.08-.06.35-.4.8-.7 1.1-1.14.25-.24.5-.41.87-.34.2.15.3.65.7.21.4-.34.79-.7 1.3-.87.47-.17.9-.2 1.03.44-.07 1.18-1.18 1.43-1.84 2.08-.55.52-1.27.9-1.46 1.71-.07.31-.24.55-.46.78l-.51.52-.52.54-1.38 1.48.26-.26c.41-.3.67-.78 1.17-.97l.28-.11c.5-.27.82-.76 1.29-1.07.17-.14.37-.2.58-.22.52.03.84-.22.98-.7.13-.29.16-.6.26-.88a3.1 3.1 0 01.56-.94 16.7 16.7 0 012.96-2.61c.77-.26 1.02-1.18 1.77-1.46.25-.07.5-.15.67-.36-.2.2-.43.3-.7.32a.47.47 0 01-.35-.33c.18-1.25 1.11-1.86 2.1-2.41.27.07.54.16.75-.14.77-.53 1.12-1.62 2.23-1.7.42.3.41.62.08.97-.42.4-.8.84-1.23 1.22l.05.05s-.02-.07 0-.08c.34-.33.66-.67 1-.99.37-.34.67-.76 1.08-1.07.32-.28.6-.6 1.04-.7.15-.03.31-.03.47-.01.87.2 1.12-.83 1.84-.92 1.01.2 1.4-.68 2.03-1.15.24-.18.5-.27.8-.2a.5.5 0 01.34.34c-.22 1.12-1.21 1.63-1.9 2.35-.63.66-1.37 1.22-2.07 1.82 1.15-.76 1.91-2.04 3.3-2.5.94-.1 1.5-.83 2.2-1.34a.87.87 0 01.44-.21c.79.09.48.53.3.93a4.28 4.28 0 01-.94 1.06c-.33.24-.66.48-.86.85-.17.27-.46.44-.61.82.46-.43.77-.9 1.19-1.27.18-.18.38-.35.56-.55.32-.26.57-.67 1.08-.58.2.12.32.3.29.54-.24.64-.87.95-1.27 1.59.76-.3 1.02-1.2 1.85-1.2a.6.6 0 01.21.22c.08.33.2.61.64.47.16.06.26.18.32.33.28.93-.26 1.53-.85 2.11-.33.32-.64.66-1 .95-.37.21-.65.52-.91.86-.07.08-.15.15-.24.2a4.07 4.07 0 00-1.2 1.2l.06-.06c.34-.45.74-.8 1.3-.93.31-.05.62-.11.92-.21.36-.08.71-.26 1.1-.13.1.05.16.12.21.22-.03.54-.54.69-.83 1l-.13.13c.06.02.11 0 .16-.06.56-.58 1.23-1.02 1.72-1.67a10 10 0 01.74-.8c.44-.44 1.05-.69 1.36-1.27.25-.32.64-.49.88-.83.3-.6.7-1.13 1.2-1.58.42-.39.8-.83 1.25-1.17.33-.18.62-.45 1.03-.34.45.25.85 1.16 1.37.08.61-1.2 1.79-1.84 2.7-2.74.29-.3.67-.5.94-.82.46-.58.02-1.2.1-1.8.02-.21.12-.4.25-.59.4-.43.76-.9 1.15-1.33.1-.12.23-.21.37-.28.33-.1.67-.16.92-.41.85-.66 1.7-1.3 2.42-2.1.23-.3.49-.55.74-.8.3-.3.64-.52.93-.81.78-.75 1.4-1.7 2.52-2.06l1.1.04c.06.16.04.35-.09.41-.7.33-1.07.89-1.11 1.74-.02-1.72 1.47-1.46 2.37-2 1.21-.44 2.46-.1 3.7-.18.87-.05 1.74.02 2.62.03-.05.84-.85 1.14-1.25 1.73-.08.1-.2.19-.24.32-.05.15.04.25.02.1-.01-.16.18.1.1-.04.5-.67 1.09-1.23 1.96-1.36.17.02.3.1.39.25.03.1.03.2 0 .31a.85.85 0 01-.15.24c-.1.11-.26.18-.24.36a.4.4 0 00.21.04c.22-.03.44-.09.66 0 .14.09.2.22.18.39-.7.99-1.65 1.81-1.96 2.92a4.68 4.68 0 001.9-2.22 3.5 3.5 0 011.15-1.43c.34-.23.58-.53.57-.97.07-.44.5-.45.79-.64 1.4.1 2.66-.08 3.28-1.62.26-.64.36-1.24.04-1.86.06-.67.7-.8 1.06-1.14.1-.02.1-.06.03-.1.02.07-.01.12-.1.16-.31.21-.62.42-1.02.24-.55-.45-.26-.76.19-1.03.36-.21.64-.52.94-.81-.3.3-.6.6-.96.82-.34.21-.62.14-.83-.2l-.04-.26c.1-.35.25-.68.33-1.04.62-.74 1.2-1.52 2.11-1.93.86-.18 1.29-.76 1.51-1.55.31-.66.83-1.14 1.43-1.52.44-.17.87-.35 1.27-.58.1-.02.2-.02.31 0 .2.14.23.35.26.56z" fill="#da0012"/><path d="M118.51 48.02c.54-.55 1.06-1.11 1.6-1.65.32-.31.59-.6.24-1.14l-2.33 2.22c-.3.29-.6.62-1.08.58-.21.07-.28-.02-.22-.22l1.13-1.23c.16-.4.47-.67.71-1 .19-.2.26-.48.48-.63.14-.03.03.14.06-.01.01-.07-.06-.08-.11 0-.16.09-.24.24-.37.35-.5.32-.74 1.11-1.55.81-.1-.23-.04-.43.11-.62.67-.67 1.58-1.18 1.53-2.32 0-.65.53-1.01.84-1.49.34-.3.69-.6.96-.97.44-.56 1.08-.92 1.53-1.48.3-.2.56-.44.84-.66.08-.12.23-.2.19-.38-.04.1-.1.2-.16.3-.25.25-.5.5-.8.7-.18.15-.27.44-.58.4a.47.47 0 01-.26-.14.27.27 0 01.04-.28l.2-.22c.3-.18.34-.4.11-.67-.2-.3 0-.5.18-.7.06-.13.45-.28-.02-.38-.45-.2.55-.67-.2-.92-.68-.22-1.22-.33-1.64.37-.46.05-.17-.67-.64-.6-.2-.04-.37-.17-.53-.29a1.52 1.52 0 01-.19-.05c-.24-.04-.39-.21-.5-.42a72.38 72.38 0 00-9.48-1.89c-2.96-.36-5.9-.72-8.88-.67a74.1 74.1 0 00-11.1 1.11 66 66 0 00-11.2 2.85 65.25 65.25 0 00-13.3 6.49 79.34 79.34 0 00-10.14 7.8 63.74 63.74 0 00-8.38 9.58c-2.51 3.38-4.64 7-6.42 10.82-.48 1.01-.9 2.05-1.35 3.07-.82.01-1.63.08-2.44.03-1.33-.1-2.7.77-3.1 2.31-1.17 4.52-2.23 9.06-3.37 13.7-.66-3.67 4.38-18.55 8.4-25.69a72.66 72.66 0 0117.82-20.98 68.39 68.39 0 0123.94-12.66c39.41-11.5 76.1 10.77 88.08 43.29h-4.97c-.75-.37-.83-1.17-1.12-1.82a68.38 68.38 0 00-10.15-16.06c-.3-.35-.62-.68-1-.94-.2-.17-.3-.42-.43-.64-.13-.2-.28-.38-.44-.56-.18-.22-.32-.46-.49-.68a3.94 3.94 0 00-.49-.5c-.22-.19-.47-.35-.68-.56-.21-.16-.48-.42-.63 0-.27.77-1 1.12-1.48 1.67.3-.16.55-.5.97-.28.2.23.22.5.2.79 0 .1-.03.2-.06.31-.13.33-.27.66-.12 1.03-.08.67-.67 1-1.01 1.51l-.2.22c0 .01.07.03.15-.03 1.09-.72 1.2-.69 1.29.37-.29.43-.71.7-1.08 1.04-.06.08-.24 0-.2.18l.21.04c.58 0 .81.3.72.85-.77.89-1.28 1.96-2.07 2.82l-.55.55c-.47.4-.73.97-1.17 1.4-.56.51-1.32.76-1.84 1.33-.13.13-.24.26-.14.46.06.13.1.27.06.42-.36.61-.84 1.1-1.47 1.43-.26.12-.61-.1-.83.22.77.23.77.23 1.7-.3.62-.14.92.32 1.3.67-.1 1.23-1.18 1.71-1.89 2.48a3.4 3.4 0 01-1.24 1.54c0 .02-.05.02-.04.06l.15-.13a12 12 0 001.36-1.18c.18-.2.38-.36.64-.45 1-.08 1.48-.89 2.1-1.5l.38-.53c.51-.49.86-1.23 1.74-1.15.87.79-.16.97-.44 1.4l-.35.31c-.35.31-.67.65-.99.99-.98.98-2 1.91-2.88 3a5.4 5.4 0 01-.23.22c-2.04.01-4.09.06-6.13.03-2.56-.04-5 .49-7.25 1.71-.56.3-.86.38-1.13-.3-.43-1.03-1.33-1.38-2.37-1.4l-3.7-.04c-.15-.13-.07-.27-.02-.4.2-.34-.03-.7.03-1.03.86-1.5 2.12-2.63 3.29-3.88-2.31 1.03-3.8 3.05-5.72 4.56-.37.29-.7.59-1.15.75h-.67l.4-.7c.17-.05.2-.22.27-.35.66-.86 1.16-1.83 1.86-2.66 1.07-1.48 2.55-2.55 3.82-3.83 2.46-2.49 5-4.9 7.5-7.34.27-.25.61-.49.5-1.05-1.23.64-1.92 1.86-3.17 2.62l.23-.95c.07-.38.23-.71.54-.95.01 0 .57-.29-.05-.14-.32-.11-.53.09-.72.29-.42.2-.72.58-1.19.66-.41-.01-.76.03-.58.6a.84.84 0 01-.3.53c-.62.38-1.4.47-1.9 1.03l-.76.63c-.22.27-.66.2-.84.54a.26.26 0 00-.06.2c-.19.37-.49.62-.88.45-.26-.11-.18-.44-.05-.68l2.78-2.8c.34-.42-.06-.97.27-1.39.3-.48.79-.8 1.14-1.24.16-.18.1-.44.2-.65.26-.28.22-.56-.05-.78-.3-.23-.5.06-.68.23-.81.71-1.65 1.4-2.4 2.17-.26.27-.45.35-.77.28-.14-.15-.24-.4-.51-.11-.23.25-.5.49-.9.42l-.9.64c-.22.16-.4.13-.55-.12.14-.44.5-.69.86-.92.51-.27.83-.76 1.27-1.1l3.09-3.15c.05-.42.54-.73.32-1.23-.1-.33-.24-.52-.57-.2l-3.07 2.53c-.44.29-.76.7-1.16 1.04-.23.18-.55.5-.67-.11.89-.93 1.8-1.84 2.68-2.8.82-.88 1.25-2.06 2.3-2.77.44-.3.01-.77-.12-1.15-.14-.23-.28-.46-.58-.52-.31.02-.45.27-.64.46-.3.47-.71.84-1.14 1.2-.34.28-.5.85-1.1.7-.18-.05-.42.05-.48-.23a1.4 1.4 0 01-.45-.32c-.8.07-1.16.74-1.7 1.18-.45.33-.53 1.04-1.16 1.2a.15.15 0 00-.16.05c-.08.09-.16.08-.22-.02-.13-1.23.9-1.66 1.59-2.33.55-1.02 1.52-1.71 2.15-2.67.18-.28.64-.36.6-.81zM61.23 154.78c1.5 1.47 3.37 2.38 5.14 3.42 4.17 2.47 8.6 4.41 13.23 5.84a69.73 69.73 0 0011.87 2.57c3.3.41 6.6.8 9.93.65 3.37-.16 6.72-.49 10.06-1.1 3.73-.68 7.4-1.53 10.98-2.8a65.6 65.6 0 0013.52-6.59 81.07 81.07 0 009.81-7.48c3.37-2.97 6.15-6.42 8.78-10a64.16 64.16 0 006.35-10.75c.49-1.04 1.02-2.08 1.29-3.21 1.3-.57 1.62-1.76 1.92-2.98.93-3.69 1.87-7.37 2.94-11.08.24 2.17.46 4.35.71 6.52.14 1.2.31 2.4.46 3.6.25 2.03-.8 3.72-1.5 5.47a68.63 68.63 0 01-7.2 13.52 84.62 84.62 0 01-6.17 7.84 68.83 68.83 0 01-6.21 6.13 71.83 71.83 0 01-25.93 14.38 78.52 78.52 0 01-11.74 2.53c-4.26.6-8.54.85-12.82.62a73.17 73.17 0 01-16.45-2.73 73.15 73.15 0 01-32-19.24 74.38 74.38 0 01-10.78-14.47 88.84 88.84 0 01-5-10.74c-.2-.52-.15-.87.24-1.07 1.33-.68 2.2-1.88 3.31-2.79.4 0 .37.24.27.5.03.76-.48 1.46-.22 2.23.32.93 1.01 1.5 1.85 1.95.62.27.5 1.45 1.5 1.25.17.02.3.09.38.24.04.14 0 .28-.05.42a.85.85 0 01-.14.2l-.09.04c.03.1.08.12.17.1a1 1 0 01.33.21c.34.2.5.8 1.06.5.29-.35.2-.7.02-1.06-.12-.2-.36-.31-.48-.54a.36.36 0 01.04-.28c.23-.26.56-.37.83-.57.3-.26.71-.29 1.05-.47l8.06-.04c3.02 0 4.03-1.36 3.06-4.13.15-.68.55-1 1.25-.89.22.3.38.28.5-.08.9-.5 1.78-1.01 2.5-1.76.3-.3.67-.52 1.13-.46.17.07.3.17.2.38.1.57-.3 1.05-.29 1.6-.15.12-.56.12-.23.47.15.37-.06.66-.23.95-.15.33-.38.62-.58.91-.15.3-.11.67-.47.88.3-.1.4-.56.81-.41.08.82.54 1.45 1.02 2.08-.23 1.12-1.04 1.68-2.02 2.08-.23 0-.43-.04-.6-.21a.45.45 0 01-.05-.26c.05-.07.04-.15-.02-.15-.05 0-.1.1-.15.14-.74.5-1.17 1.32-1.96 1.73-.3.17-.68.03-.98.2-.34.2-.65.47-1.05.56-.98.35-1.78.95-2.39 1.8-.04.2-.09.41-.19.6s-.27.32-.46.41c-.26.11-.55.19-.73.44-.18.19-.36.37-.57.51-1.1.5-1.18.47-1.14-.54.9-1.1 2.04-2.03 2.47-3.47.05-.09.12-.16.2-.23.03-.18.44.02.3-.32a.45.45 0 01-.13-.24c-.03-.44.33-.64.46-.8-.24.37-.8.53-1.3.77-.46.27-.67.78-1.07 1.1-1.5 1.54-3.48 2.39-5.2 3.6-.25.23-.7.35-.49.84a65.85 65.85 0 006.77 9.61c.86 1.01.9.98 1.85.13.4-.35.79-.73 1.23-1.04.29-.1.55-.08.75.18.09.17.02.34.02.5.14-.07.18-.23.3-.33.53-.6 1.12-1.07 1.98-.98.33 0 .66.16.99 0 .17-.09.35-.16.54-.2.26-.04.46-.16.52-.44.02-.1.06-.19.11-.28.11-.17.26-.29.44-.4.25-.14.5-.27.73-.46.24-.18.48-.38.8-.43.43 0 .79-.15 1.05-.5.4-.36.77-.77 1.39-.68.37.04.43.48.76.59.4.01.56-.34.82-.53.24-.17.48-.46.8-.3.37.19.3.56.21.9-.26.56-.88.89-1.03 1.53-.29.85-1 1.32-1.64 1.85-.04.02-.12.07-.1.12.03.15-.1 0 .06-.01.75-.44 1.2-1.16 1.78-1.76a3.07 3.07 0 001.37-1.1c.5-.32.89-.76 1.25-1.22.36-.29.69-.6 1-.92l.53-.54c.52-.42.84-1.04 1.44-1.37.4-.19.88.08 1.27-.2.84-.8 1.76-1.5 2.73-2.12.37-.13.75-.24 1.15-.2.18.05.3.16.36.34-.3 1.21-1.27 1.87-2.13 2.62-.35.39-.28 1.05-.67 1.17.13-.08.42-.32.63-.63.46-.42.86-.92 1.42-1.23.4-.12.63-.45.88-.75l.23-.2c.3-.18.57-.43.85-.65.58-.37 1.04-.87 1.51-1.36.47-.42.88-.9 1.4-1.26.25-.14.46-.33.74-.36.78.2.78.72.56 1.33-.38.58-1 .96-1.34 1.57-.11.18-.23.36-.37.51-.07.08-.16.14-.25.18-.31.12-.67.17-.8.56-.12.22-.14.46-.2.69l-.14.53v.1c.02-.03 0-.07.01-.1a.9.9 0 01.28-.47c.28-.17.57-.26.9-.2.17.06.22.2.24.37a1 1 0 01-.05.3c-.14.33-.28.66-.5.95-.49.46-.87 1.02-1.41 1.41-.4.17-.5.56-.69.89-.08.13-.1.25-.04.1l.08.02c.4-.7.95-1.06 1.77-.89.75.02 1.18-.68 1.84-.85.23-.04.47-.04.67-.2.38-.3.68-.69 1.06-1 .13-.1.27-.16.44-.16.24.07.32.25.33.48-.04.48-.45.8-.54 1.26-.12.24-.3.42-.52.56-.42.17-.8.4-1.1.75-.49.45-1.07.8-1.52 1.3l-.32.32c-.31.26-.52.58-.45 1.02a.86.86 0 01-.3.54c-.17.15-.35.27-.58.13-.7.75-1.62 1.28-2.07 2.25a.9.9 0 01-.43.46c-.4.17-.8.21-1.2 0-.37-.2-.77-.25-1.18-.12l-.3.07c-.5.26-.76.79-1.18 1.15-.3.23-.6.44-.97.52-1 .16-1.86.56-2.5 1.37-.3.22-.39.87-.98.48-.22-.96.98-1.04 1.11-1.8-.21-.26-.13-.47.16-.66-.26.1-.39.36-.64.41l-1.35 1.2c-.48.22-.59.01-.5-.43.08-.23.19-.45.23-.7.01-.18-.03-.32-.25-.36-.97.4-1.48 1.32-2.24 1.96-.4.35-.71.83-1.32.87-.82.07-1.21.71-1.69 1.25-.26.24-.48.53-.64.64.2-.14.45-.45.73-.72.23-.21.36-.55.74-.58.1 0 .2.04.3.1.22.52.02.95-.28 1.36-.17.2-.39.36-.61.5-.37.24-.82.45-.28.95l.33.29c.14.12.3.24.37.42.32.67.97.9 1.58 1.2v-.01z" fill="#fefefe"/><path d="M76.8 142.46l.24-.44a.6.6 0 01.19-.4c.18-.16.39-.29.56-.46.18-.16.32-.35.45-.55.33-.53.85-.87 1.27-1.3.15-.15.32-.28.52-.35 1.03-.16 1.27-1.14 1.85-1.77.25-.34.46-.7.82-.95.34-.16.64-.35.5-.81.04-.28.2-.45.44-.58.3-.12.64-.17.85-.47.23-.23.5-.43.75-.66.25-.23.5-.48.73-.73.27-.28.58-.53.8-.87.16-.2.19-.46.28-.7.7-.99 1.62-1.77 2.53-2.55.32-.28.62-.57.87-.9.17-.2.24-.45.35-.68.24-.52.79-.77 1.1-1.24-.28.05-.39.34-.62.46-.35.2-.8.1-1.12.4-.49.37-.88.84-1.32 1.27-.26.24-.52.5-.76.75-.2.18-.39.36-.64.45-.63.02-1 .55-1.52.78-.26.1-.52.19-.8.15-.46-.16-.63-.44-.34-.89.37-.35.81-.62 1.11-1.05.34-.45.7-.88 1.01-1.35.64-.46 1.13-1.1 1.84-1.46 2.02-.1 3.53-2.12 2.1-4.21-.77-1.14-.5-2.46-.24-3.66.74-3.27 1.68-6.5 2.4-9.79.18-.84.48-.95 1.19-.95 4.25.02 8.5.07 12.75 0a10.35 10.35 0 008.17-3.84c.1-.1.22-.18.54-.43-.38 1.66-.68 3.11-1.04 4.54-1.29 5.07-2.63 10.12-3.88 15.2-.37 1.52.6 2.43 1.84 3.1l-2.41 2.3c-.32.02-.59.15-.8.4-.49.29-.87.7-1.15 1.19-.56.55-1.25.87-1.93 1.24-.48.07-.8.4-1.18.67-.48.33-.97.63-1.6.45a.59.59 0 01-.35-.34c-.05-.43.23-.72.4-1.06.47-.87 1.56-1.25 1.8-2.3.01-.11.04-.21.07-.31.34-.58.94-.92 1.35-1.43.2-.21.37-.47.6-.67.1-.1.23-.16.37-.22.1-.1.4-.06.27-.35-.31.12-.48.4-.76.56-.08.06-.18.1-.28.14-1.37.09-2.4.69-3.02 1.94-.24.4-.49.79-.99.89-.86-.43-.63-.98-.18-1.55.82-.66 1.5-1.46 2.17-2.25.19-.53-.14-.68-.55-.67-.28.01-.5.02-.69-.21-.57-.25-.82.37-1.25.48-.3.18-.55.42-.86.6.57 0 1.1-.06 1.51-.44.17-.1.34-.2.53-.21.32-.03.73-.31.95.01.25.37-.16.6-.4.83-.2.17-.23.38-.29.6-.16.5-.57.77-.96 1.05-.18.11-.36.21-.56.27-.36.1-.79.08-1 .5-.64.8-1.57 1.3-2.24 2.06-.13.12-.22.26-.29.43-.04.1-.06.13-.06.09.03-.16.14.12.07-.01-.06-.14.21-.12.06-.1.23-.3.48-.53.85-.6.17-.01.33.03.46.13.26.63-.47.85-.57 1.37.39-.12.6-.55 1.05-.5.33 0 .4.44.73.45.18-.06.34-.17.54-.16.16.06.26.18.32.33.06.16.08.32.08.5 0 .34-.1.65-.34.91-.28.24-.57.47-.79.77-.56.52-1.15 1.01-1.61 1.64-.66.43-1.23.93-1.44 1.73a2 2 0 01-.11.3c-.22.64-.9.8-1.3 1.26-.05.09-.11.17-.18.25-.33.46-.93.67-1.2 1.24.39.01.54-.44.91-.4.18.05.3.15.36.32.1.7-.56.87-.88 1.27-.47.46-.97.9-1.37 1.42-.2.23-.36.48-.58.7-.1.1-.2.22-.32.31a3.8 3.8 0 00-.82.7c-.41.39-.84.77-1.14 1.28-.23.24-.43.52-.83.37l-.07.04c-.47-.42-.77.05-1.13.2-.27.18-.55.4-.9.24-.38-.15-.76-.28-.27-.73.48-.15.65-.6.92-.96.25-.28.48-.6.78-.83.71-.55 1.26-1.18 1.23-2.14-.08-.31.1-.53.24-.77.02-.14-.04-.22-.18-.26h-.27c-.28.03-.56.17-.85.08-.54.5-1.08.97-1.6 1.48-.25.24-.47.26-.68 0-.22-.27.05-.41.2-.56l1.37-1.4c.12-.23.03-.37-.2-.43l-.9.74c-.33.13-.57.13-.54-.32l.23-.19c.41-.14.66-.46.84-.84.67-1.18 1.89-1.88 2.62-2.88-.87.83-1.7 1.86-2.96 2.35l-.24.19c-.94.22-1.5 1.04-2.35 1.42-1.13.52-1.9 1.5-2.83 2.28-.3.25-.55.7-1.12.2 1.48-1.44 3.13-2.7 4.47-4.3.15-.32.1-.5-.3-.38-.41.02-.8.07-1.01.5-.34.35-.68.7-1.2.76-.4.02-.8-.18-1.18.05-.74.11-1.09.8-1.67 1.14l-.9.72c-.43.1-.73-.4-1.17-.26l-2.04 1.9c-.24.07-.3-.05-.27-.27z" fill="#fefefe"/><path d="M179.49 90.63c1.12-4.45 2.25-8.88 3.33-13.33.28-1.14.9-1.67 2.06-1.67 4.06.02 8.12.02 12.18 0 .8 0 1.48.18 1.7 1 .2.76-.35 1.16-.92 1.6a8.04 8.04 0 00-2.47 3.84c-1.28 3.7-2.03 7.56-3 11.36-1.96 7.59-3.83 15.2-5.7 22.82-.37 1.52-.7 3.07-.36 4.66.1.41.3.75.54 1.1.8 1.17.25 2.33-1.15 2.34-4.84.03-9.67.02-14.5 0-1.19 0-1.68-.8-1.83-2.49-.35-3.85-.74-7.7-1.16-11.54-.22-2-.53-3.98-.82-6.16-.68 2.83-1.3 5.5-1.96 8.16-.84 3.49-1.67 6.98-2.58 10.44-.27 1.05-.93 1.67-2.22 1.63-3.05-.1-6.12.11-9.16-.07-2.51-.16-5 .16-7.5.06-2.59-.1-5.18-.02-7.77-.02-1.8 0-2.25-.54-1.85-2.24.8-3.34 1.57-6.69 2.44-10.01.2-.78-.08-.75-.62-.75h-7.19c-.52 0-.78.12-.93.73-.57 2.36-1.26 4.71-1.52 7.12-.1.89-.04 1.95.67 2.78.36.42.6.9.24 1.56-.35.63-.82.81-1.47.81h-12.4c-1.4 0-1.85-.66-1.51-2.02 1.55-6.23 3.16-12.45 4.63-18.7a487.48 487.48 0 015.15-20.53c1.25-4.42 4.55-6.55 8.96-7.25 2.68-.43 5.37-.18 8.06-.2 6.69-.06 13.37-.02 20.06-.02 1.34 0 2.66.23 4.03.04 1.4-.2 2.85-.04 4.28-.04h8.58c1.76 0 1.97.24 2.17 2 .34 3.08.84 6.14 1.1 9.22.1 1.25.46 2.48.41 3.77z" fill="#fefefe"/><path d="M70.27 75.64c5.26 0 9.55-.06 13.84.03 1.73.04 3.46-.04 5.18-.03H122c.35 0 .7-.03 1.04.03.57.12.93.55 1.07 1.06.13.47-.16.93-.53 1.19-2.22 1.56-2.94 3.96-3.62 6.38-1.38 5-2.27 10.14-3.96 15.05-1.19 3.45-3.72 5.52-7.31 6.2-2.79.54-5.6.16-8.4.24-2.4.06-4.8.02-7.2 0-.56 0-.85.1-1 .78-.82 3.6-1.75 7.18-2.6 10.78-.4 1.7-.55 3.36.52 4.96.7 1.02-.04 2.03-1.41 2.04-2.4.02-4.8 0-7.2 0-1.58 0-3.18.15-4.75-.02-2.5-.28-5 .16-7.5.05-2.59-.1-5.18-.02-7.77-.02-1.68 0-2.13-.57-1.74-2.23.8-3.34 1.56-6.7 2.44-10.02.2-.77-.07-.75-.61-.75h-7.2c-.52 0-.78.12-.93.73-.57 2.36-1.26 4.7-1.52 7.12-.1.88-.04 1.95.67 2.78.36.42.6.9.24 1.55-.35.64-.82.82-1.47.82H38.74c-1.25-.01-1.75-.74-1.45-1.92 1.57-6.27 3.21-12.52 4.7-18.81 1.61-6.9 3.22-13.82 5.17-20.64 1.25-4.36 4.4-6.5 8.83-7.1 5.06-.67 10.16-.04 14.28-.25z" fill="#fefefe"/><path d="M49.18 131.77l.44-.24c.5-.38.75-1.15 1.58-1 .2-.35.03.78.32.06.1-.23.2-.45.34-.66a.95.95 0 01.23-.2c.54-.23 1.06-.47 1.36-1.02.16-.31.57-.18.77-.43l2.1-1.88c.25-.08.32.05.3.27l.02.02c-.1.57.2.32.44.22.92-.38 1.48-1.17 2.14-1.85.26-.05.42.12.6.27-.04.91-.82 1.3-1.35 1.85-1.26 1.27-2.66 2.4-3.85 3.74-.15.29.14.56.04.85-.15.31-.39.5-.7.64-.7.22-1.02 1.14-1.9 1.06a.4.4 0 00-.18-.1c.07.02.14.05.19.11.15.7-.41.92-.82 1.25-.09.05-.19.1-.27.18.1.1.2-.01.3 0 .53.27.33-.41.62-.47.6-.41 1.09-.95 1.58-1.47 2.48-2.18 5.08-4.22 7.28-6.7.32-.36.77-.49 1.17-.71h1.99c-.05.76-.8.97-1.16 1.49-.52.45-.96.99-1.32 1.3.27-.26.69-.67 1.1-1.1.36-.25.56-.7 1.06-.77.32-.01.56.1.73.36.11.53-.27.79-.57 1.09-.15.15-.37.27-.27.55.26.4.06.73-.2 1.04-.19.27-.52.43-.54.82-.07.47-.64.66-.64 1.17.34.33.65-.16.98-.04.1.04.19.1.27.17.5.51.27.96.05 1.23.5-.8 1.43-1.34 2.6-1.48.14.01.28.06.39.16.12.1.23.05.34-.03a.75.75 0 01.56-.15c.1.03.2.08.27.15.05.1.06.2.04.3-.16.29-.42.49-.61.74l.38-.4c.31-.22.48-.57.74-.83 1.4-1.2 2.81-2.4 4.2-3.63.37-.33.75-.68 1.28-.74.24 0 .44.09.53.33.05.3-.08.53-.32.65-.28.14-.27.3-.13.52.02.8-.93.91-1.12 1.56-.08.14-.18.25-.3.34-.1.06-.18.12-.28.16-.3.17-.36.46-.45.76-.14.51-.48.94-1 1-.74.09-1.25.57-1.85.88-.2.16-.39.34-.61.47-.6.34-1.11.9-1.9.83-1.1.91-1.86 2.22-3.2 2.87-.43.18-.7.57-1.08.8-.39.25-.78.38-.95-.25.05-.59.8-.76.8-1.38-.05-.18-.1-.36-.02-.53.09-.03.1-.06.02-.1.04.06.02.11-.05.16-.21.54-.67.84-1.06 1.2-.36.26-.89 0-1.19.4-.28.44-.78.7-.98 1.2a3.6 3.6 0 01-.96 1.42c-.13.28-.8.03-.6.62a.94.94 0 01-.24.2c-.51.26-.9.7-1.44.91-.93-.2-1.46.45-2.05.96-.18.1-.27 0-.35-.14-.1-.58-.4-.56-.79-.29-.48.87-1.43 1.27-2.03 2.02-.24.3-.39.08-.52-.09-1.38-1.74-2.78-3.46-4.1-5.24a54.97 54.97 0 01-3.56-5.56c.02-.42.38-.64.58-.95.28-.76 1.1-.77 1.65-1.1 1.3-.8 2.43-1.82 3.72-2.61.34-.15.54.07.74.28.18.2.25 0 .35-.1.24-.2.47-.47.78-.12-.37 1.51-1.53 2.43-2.6 3.43-.28.24-.34.51.02.71.53.3.68-.24.96-.5l.46-.46c.2-.2.5-.24.7-.45z" fill="#da0012"/><path d="M16.94 124.36c-3.17 0-6.34.09-9.51-.03-2.32-.09-4.44-.78-5.59-3.1-.89-1.8-.77-3.63-.3-5.5 1.2-4.78 2.4-9.57 3.56-14.36.27-1.07.87-1.6 2-1.6l12.29-.01c.81 0 1.47.26 1.67 1.05.17.7-.35 1.12-.9 1.53-1.27.96-2 2.34-2.5 3.8-.54 1.55-1 3.13-1.38 4.72-.18.77-.25 1.7.92 1.8 1.84.17 3.7.27 5.53-.02 2-.32 2.39-2.03 2.8-3.66l7.4-29.56c.2-.76.3-1.55.5-2.3.25-.94.84-1.49 1.87-1.48h12.53c.72 0 1.24.27 1.5.96.26.67-.16 1.15-.6 1.44-1.48.97-2.2 2.45-2.76 4-1.23 3.4-1.9 6.98-2.8 10.48-1.96 7.67-3.83 15.37-5.82 23.03a11.6 11.6 0 01-5.65 7.32 11.13 11.13 0 01-5.36 1.48c-3.14.04-6.27.01-9.4.01z" fill="#fefefe"/><path d="M149.9 55.48c1.16-.14 1.4 1 1.87 1.58a70.71 70.71 0 0110.42 17.38c-.88.4-1.78.03-2.67.03l-13.36-.03c-.23-.2-.46-.19-.7 0-1.07-.04-2.17.25-3.23-.16 0-.3.2-.48.4-.66.36-.2.57-.55.82-.86l.79-.9c.18-.18.48-.3.33-.66-.1-.5.07-.95.29-1.39.26-.37.6-.64.98-.87.83-.32.64-1.1.8-1.72a.4.4 0 000-.15l-.05.1a.74.74 0 01-.29.11c-.3 0-.55-.04-.65-.37.05-.24.22-.38.38-.53.75-.62 1.4-1.33 2.15-1.94.4-.28.43-.9.96-1.06.41-.2.98 0 1.3-.5-.18.06-.33.15-.5.18-.92-.07-1.25.63-1.63 1.26-.43.33-.79.73-1.23 1.04-.24.16-.43.53-.77.2-.33-.3-.29-.7-.06-1.05.5-.76 1.13-1.44 1.73-2.13.26-.28.58-.5.76-.84-.77 0-1.1.77-1.73 1-.09.05-.18.1-.28.13-.45.11-.74.53-1.2.61-.46-.02-.87.23-1.33.24-.2-.06-.43-.1-.34-.4.85-.82 1.06-2.1 2.09-2.78-.1-1.25.66-1.96 1.55-2.63.44-.32.52-.91.85-1.33.1-.1.24-.18.38-.23.16-.06.34-.1.47-.23l.2-.2c.14-.13.3-.24.5-.24z" fill="#da0012"/><path d="M66.11 131.53c-1.5.32-2.46 1.53-3.88 2.55.18-.82.61-1.03.91-1.31.35-.34.4-.62 0-.93.18-.85.99-1.2 1.45-1.8.36-.4.73-.8 1.2-1.06.62-.3 1.2-.64 1.65-1.18-.35.4-.76.72-1.25.94-.46.18-.92.2-1.39.04-.18-.06-.36-.14-.57-.14-.25 0-.5.08-.74-.07-.38-.3-.12-.55.05-.81l.79-.84c-.18-.32-.4-.46-.76-.25l-.91.74c-.16-.17-.14-.34-.02-.51l1.27-1.34c3.19-.01 6.38-.07 9.56 0 .64.01 1.3-.7 1.92 0 .14.36-.11.56-.31.79-.23.2-.48.34-.74.48-.25.14-.57.1-.8.3-1.9 1.33-3.38 3.16-5.32 4.42-.11.12-.25.14-.4.1-.31-.22-.04-.51-.1-.77-.08-.18-.2-.27-.4-.18-.39.3-.68.73-1.2.83z" fill="#fefdfd"/><path d="M58.94 118.33c-.68.37-1.35.77-1.82 1.4-.44.57-1.15.55-1.67.9-.15.15-.3.16-.48.05-.68-.22-.88.52-1.36.7l-.3-.29c.03-1.2 1.13-1.63 1.74-2.4.4-.46.85-.88 1.32-1.27.2-.15.34-.34-.02-.49-.58-.22-.74.28-1 .59-.76.46-1.25 1.3-2.17 1.5-.1-2.13.83-4.07 1.19-6.12.06-.35.44-.37.77-.37h4.98c.44-.01.6.07.46.55-.43 1.52-.6 3.1-1.17 4.58-.19.2-.13.57-.47.67z" fill="#da0012"/><path d="M130.4 116.9l-2.05 1.9c-.24.08-.08.65-.54.45.05-2.15.83-4.16 1.21-6.24.1-.5.5-.49.9-.48l4.14.04c.22.67-.38.93-.69 1.33l-1.35 1.4c-.4.67-.84 1.32-1.63 1.6z" fill="#fefdfd"/><path d="M61.93 125.56a76.75 76.75 0 01-8.31 7.62c-.09.1-.18.1-.28.03-.1-.45.05-.75.52-.85l.65-.59c.37-.42-.14-.61-.24-.91l5.55-5.53c.67.33 1.41.11 2.11.23z" fill="#fefbfb"/><path d="M81.68 125.56h.72c.04.67-.56.97-.86 1.43-.2.18-.45.27-.7.34-.1.06-.27.03-.3.19 0 .03.1.07.18.09.74.67.73.7-.34 1.5a.72.72 0 01-.46.02c-.39-.24-.61.11-.9.25-.3.17-.5.46-.71.72-.3.29-.57.65-1.06.6a.63.63 0 01-.36-.5v-.1l-.02-.12c-.38.23-.72.53-1.06.82-.43.3-.7.87-1.34.82-.28-.14-.4-.38-.37-.69.03-.16.1-.31.19-.45.33-.4.78-.7 1.02-1.19a4.49 4.49 0 012.01-1.46c1.16-.45 2.08-1.3 3.1-1.99.4-.18.84-.15 1.26-.28z" fill="#db091a"/><path d="M80.55 126.04c-1.15.9-2.25 1.86-3.7 2.31-.53.17-.93.76-1.38 1.15-.42.41-.8.88-1.41 1.02-.18-.03-.3-.12-.35-.3.06-.41.4-.64.63-.93.45-.82 1.24-1.45 1.34-2.46.07-.81.76-.97 1.32-1.27h3.75c.13.23-.14.31-.2.48z" fill="#fdf9f9"/><path d="M115.3 74.44c2.27-2.22 4.53-4.44 7.5-6.25-.8 2.2-2.72 3.2-3.78 4.87-.26.79-.97 1.04-1.62 1.38h-2.1z" fill="#db0819"/><path d="M84.96 125.56h3.23c.01.76-.69.96-1.1 1.4-.32.33-.57.72-.9 1.04-.45.51-.94.98-1.41 1.46a.52.52 0 01-.27.14.71.71 0 01-.44-.16 1.46 1.46 0 01-.42-.47.68.68 0 01.01-.46c.1-.5.93-.56.74-1.24-.06-.2-.12-.4-.15-.6-.02-.16 0-.32.05-.47a1 1 0 01.66-.64z" fill="#fcf3f3"/><path d="M55.28 118.86c-.54.85-1.58 1.25-1.97 2.23-.16-.68-.49-1.35-.13-2.07.62-.6 1.22-1.23 2-1.65.23-.08.34.06.42.24.1.47-.25.83-.32 1.25z" fill="#fbeced"/><path d="M142.7 73.91l-.47.37c-.68.34-1.4.18-2.1.16-.17-.22-.44-.11-.64-.2-.16-.64.43-.83.75-1.15.71-.73 1.48-1.4 2.22-2.1.35-.08.34.16.36.39-.13.5-.54.78-.86 1.13-.23.25-.5.45-.6.8 0 .11 0 .22.15.26.4-.07.53-.64 1.01-.5.16.07.27.18.32.36.03.18-.06.33-.15.48z" fill="#dc0c1d"/><path d="M39.47 126.93c-.56.55-.97.56-1.2-.3-.1-.38-.27-.74-.4-1.11l3.42.04c.16.26.05.48-.11.7-.15.12-.3.25-.5.3-.19.01-.37.03-.54.13-.2.18-.48.09-.67.24z" fill="#db0517"/><path d="M84.96 125.56l-.5.7c-.37.2-.25.63-.39.95-.55.8-1.3.9-2.18.7-.31-.43-.12-.77.2-1.09.56-.47 1.03-1.09 1.82-1.26h1.05z" fill="#e13644"/><path d="M119.73 127.14l1.44-1.58c.32.01.7-.19.94.2.17.34.01.54-.28.7-.93.24-1.33 1.17-2.1 1.62-.3-.31-.2-.62 0-.94z" fill="#f8dee0"/><path d="M114.85 125.72l-.01.1c-1.11.66-2.3 1.22-2.94 2.47.38-1.1.75-2.15 1.78-2.73l1.17.16z" fill="#dc1223"/><path d="M77 125.56c-.27.52-1.02.66-1.1 1.35-.4.04-.5.6-.95.55-.23-.02-.43-.1-.6-.25-.16-.18-.27-.37-.14-.61l.63-.42c.35-.02.53-.35.84-.44.41-.28.87-.24 1.33-.18z" fill="#de1a2a"/><path d="M83.9 125.56l-1.52 1.36c-.33.16-.66.17-1-.02.13-.6.84-.78 1.02-1.34h1.5z" fill="#fae7e9"/><path d="M133.61 119.3c-.33.12-.54.56-1.07.38.23-.85.89-1.31 1.54-1.79.2.59-.3.94-.47 1.4z" fill="#f9e0e2"/><path d="M133.38 113.9c0-.56.51-.86.68-1.33h.74c.17.3-.06.49-.22.7-.21.56-.74.54-1.2.63z" fill="#df2434"/><path d="M117.4 74.44c.47-.54.99-1.02 1.62-1.38.08.4.78.78 0 1.18-.37-.25-.6.13-.91.2h-.7z" fill="#f7d4d7"/><path d="M58.2 122.98c-.54.32-.86.98-1.7 1.1.33-.68 1.16-1 1.08-1.8.26.07.47.22.63.43v.27z" fill="#fae8e9"/><path d="M87 126.87l1.19-1.31h.55c-.26.86-1.1 1.13-1.69 1.65-.13-.1-.15-.2-.05-.34z" fill="#e13644"/><path d="M122.94 125.55l1.4.01c.13.21.01.38-.1.54-.2.22-.45.36-.74.44-.22.02-.45-.01-.68 0a.35.35 0 01-.2-.2c-.1-.34.09-.58.32-.79z" fill="#f5c6ca"/><path d="M129.71 120.87c-.14.62-.71.84-1.13 1.2l-.28-.73c-.02-.21.04-.34.29-.24l1.14-.21-.02-.02z" fill="#ec848d"/><path d="M122.94 125.55l-.16.87c-.14.36-.39.47-.75.3l-.2-.26.28-.7c.24-.22.51-.31.83-.2z" fill="#e23c4a"/><path d="M128.59 121.1l-.29.24c-.68-.27-.42-.83-.4-1.31l.87.18-.01-.01c-.2.27-.42.54-.17.9z" fill="#ef9aa1"/><path d="M41.04 126.2l.25-.64h1.2c-.2.37-.58.5-.91.7-.2.08-.38.1-.54-.06z" fill="#ef959c"/><path d="M58.67 120.65c-.24.07-.35.44-.66.28-.06-.03-.1-.23-.06-.28.25-.27.41-.76.95-.47l-.23.47z" fill="#faeaeb"/><path d="M58.21 122.7c-.27-.04-.58-.03-.63-.41l.86-.69c.13.41-.22.72-.23 1.1z" fill="#e44854"/><path d="M124.14 125.98l.2-.42h.92c-.09.33-.37.47-.63.62a.27.27 0 01-.24.11.37.37 0 01-.25-.3z" fill="#ec8890"/><path d="M118.11 74.44c.2-.32.45-.57.8-.72l.11.52-.15.2h-.76z" fill="#dc0b1c"/><path d="M36.24 121.34c-.06-.18 0-.43-.27-.5.22-.24.2-.66.68-.82-.2.47-.1.95-.4 1.32z" fill="#da0012"/><path d="M135.07 113.7c-.21-.1-.25-.29-.26-.5-.03-.37.13-.53.5-.46-.12.31.12.7-.24.96z" fill="#de1d2d"/><path d="M127.8 119.25l.55-.44c0 .4-.1.75-.5.95-.28-.15-.4-.3-.04-.5z" fill="#f7d1d4"/><path d="M80.55 126.04l.2-.49h.93l-1.13.49z" fill="#f3b9be"/><path d="M135.32 112.74a.77.77 0 00-.5.47l-.24.05.22-.7c.18.05.47-.24.52.18z" fill="#e34653"/><path d="M145.47 74.44c.04-.22.12-.42.4-.39.23.03.27.2.29.39h-.7z" fill="#e13241"/><path d="M75.68 125.74c-.18.34-.45.5-.84.44l.55-.62c.16-.04.23.05.29.18z" fill="#df2736"/><path d="M139.49 74.24c.26-.1.59-.39.64.2h-.68c0-.07 0-.14.04-.2z" fill="#df2636"/><path d="M58.94 118.33c.21-.19.08-.61.47-.67-.06.31.18.7-.22.92l-.25-.25z" fill="#f8d8da"/><path d="M116.95 56.85c.42.4.58-.09.81-.26.33-.25.55-.66 1.02-.68-.66 1.1-1.89 1.6-2.66 2.6-.1.12-.3.27-.47.03-.11-.17-.11-.37.04-.52l1.26-1.17z" fill="#f9e0e1"/><path d="M118.1 48.95c-.68.94-1.34 1.9-2.33 2.55-.04-.56.07-1.04.59-1.37.55-.35.94-.87 1.31-1.39.23-.1.35.02.43.2z" fill="#f7d7da"/><path d="M118.79 41.28c.43-.65 1.1-1.06 1.64-1.6.3-.15.53-.5.92-.24.18.7-.54.84-.8 1.26-.41.43-.8.88-1.32 1.2a.68.68 0 01-.33-.04c-.23-.16-.28-.35-.11-.58z" fill="#fae8e9"/><path d="M119.06 41.8a.4.4 0 01.16-.05c.19-.12.37-.15.55.03l-1.06 1.38c-.35-.28-.64-.15-.87.16-.26.36-.49.73-.92.92.2-.71.46-1.34 1-1.76.44-.14.65-.64 1.14-.69z" fill="#df2938"/><path d="M117.16 70.73c-.5 1.01-.77 2.17-1.81 2.84-.36-.53.09-.94.2-1.4l1.6-1.44z" fill="#f8dadc"/><path d="M115.55 52.43c.42-.64 1.08-1.02 1.63-1.52.6-.52.44.06.45.36-.1.6-.97.69-.94 1.38l-.2.27c-.44.07-.72-.16-.94-.49z" fill="#ea7982"/><path d="M115.55 52.43c.43-.07.66.25.93.5l-.91.67c-.23.1-.4.37-.71.23l-.3-.04c.33-.45.39-1.1.99-1.36z" fill="#de1e2e"/><path d="M121.84 62.2c.1-1.19 1.14-.82 1.8-1.1.2.66-.83.67-.68 1.3-.56 1.02-.7-.38-1.12-.2z" fill="#e86872"/><path d="M117.2 46.1c.61-.16.82-.88 1.45-1.02.48.1.23.4.16.64-.27.34-.53.7-.96.86-.18-.22-.44-.15-.67-.17-.1-.11-.1-.22.02-.31z" fill="#df2534"/><path d="M119.5 37.14c-.83-.12-1.27.53-1.85.93-.26.12-.5.18-.47-.25l1.67-1.4c.1-.05.21-.05.31 0 .25.17.35.42.35.72z" fill="#e65a66"/><path d="M125.98 59.8l-1.53 1.26c-.31.12-.4-.06-.43-.32 0-.17 0-.34.14-.46.66-.12.98-.78 1.58-.99.11 0 .21.02.3.09.08.15.08.3-.06.43z" fill="#f8d8db"/><path d="M118.33 59.47l1.5-1.26c.36.4-.25.63-.1.95-.47.04-.7 1.27-1.4.31z" fill="#e02b3a"/><path d="M123.65 57.26c-.02.26.89.4.1.76-.62.1-.77.85-1.37.98-.25-.14-.22-.35-.16-.57.44-.43.85-.9 1.43-1.17z" fill="#fae5e6"/><path d="M118.34 51.97l.82-.98c.23.02.42.12.53.34 0 .06.02.11.03.17l-.97.95c-.16.15-.38.38-.57.14-.08-.11.1-.41.16-.62z" fill="#f2b1b7"/><path d="M124.13 60.55c.02.22.1.42.33.52l-1.5 1.33c-.35-.03-.34-.22-.16-.43.26-.3.55-.58.83-.87l.27-.54c.07-.1.15-.1.22-.01z" fill="#f7d2d4"/><path d="M125.98 59.8l.04-.4c.07-.23.24-.36.46-.45l1.22-.8c-.35 1.03-1.12 1.44-1.66 2.02l-.06-.36z" fill="#de2030"/><path d="M119.25 63.34c.03 1.17.7-.15.94.23.49.5-.14.6-.31.86-.13.18-.3.12-.47-.05-.33-.32-.62-.62-.16-1.04z" fill="#e75f6a"/><path d="M119.5 37.14c-.32-.14-.32-.47-.44-.74 0-.31.25-.47.44-.66 1.07-.15.48.5.44.9l-.43.5z" fill="#f0a1a7"/><path d="M119.06 41.8c-.3.34-.5.87-1.13.68.28-.4.42-.91.86-1.2.03.2.03.42.27.51z" fill="#f2b1b6"/><path d="M117.2 46.1l-.02.3c-.56-.37-.75.36-1.34.42.41-.6.82-1.02 1.34-1.34l.02.62z" fill="#e3414e"/><path d="M116.98 59.88c.1.2.28.2.46.23-.26.28-.42.85-.88.64-.49-.22-.06-.61.04-.92.15-.1.27-.07.38.05z" fill="#f8d8da"/><path d="M117.18 37.82c.1.2.28.23.47.25-.55.23-1.01.6-1.52.95.17-.57.6-.89 1.05-1.2z" fill="#e1313f"/><path d="M118.1 48.95l-.43-.2c.2-.34.46-.6.84-.73.51.6-.19.66-.41.93z" fill="#f3b5ba"/><path d="M116.69 52.65c-.2-.81.57-.96.94-1.38l.25.47c-.54.12-.8.6-1.2.9z" fill="#f5c6c9"/><path d="M122.22 58.43c0 .23.02.45.3.53.07.04.09.08.06.12-.03.04-.05.06-.08.06-.45.36.02 1.04-.47 1.4.07-.7-.25-1.44.2-2.1z" fill="#eb7881"/><path d="M116.72 47.8l.22.23-1.13 1.03-.2-.2c.29-.42.64-.8 1.11-1.05z" fill="#f3b4b9"/><path d="M121.33 49.2c.3.24.5.53.48.93-.48-.42-.73.39-1.16.21l-.1-.12a.44.44 0 01.03-.29c.22-.28.54-.45.75-.73z" fill="#f7d6d8"/><path d="M114.18 53.83a.24.24 0 01.22.02c-.25.5-.7.79-1.2 1.04.18-.48.5-.84.98-1.06z" fill="#e7616c"/><path d="M122.58 53.56c.54.69-.34.83-.48 1.26-.24-.46.18-.81.19-1.23.08-.13.18-.15.3-.03z" fill="#e34653"/><path d="M118.09 35.28c.31-.03.37.23.49.42-.34.15-.55.57-1.05.46.02-.41.6-.47.56-.88z" fill="#f0a3a9"/><path d="M112.55 55.55c-.11.45-.42.7-.9 1 .12-.6.5-.8.9-1z" fill="#e02e3c"/><path d="M119.02 57.96c-.23.56-.7.88-1.14 1.21-.14-.09-.15-.18-.03-.3.3-.4.67-.74 1.17-.9z" fill="#f8d8da"/><path d="M121.44 60.02l-.97.75c.17-.43.52-.63.97-.75z" fill="#df2837"/><path d="M115.56 72.17l-.21 1.4-.32.17c.01-.58 0-1.16.53-1.57z" fill="#f2acb1"/><path d="M117.85 58.88l.02.3-.89.7-.38-.05c.38-.37.73-.78 1.25-.95z" fill="#f7d6d8"/><path d="M121.8 58.7c-.32.46-.48.78-1.08.79.27-.44.53-.62 1.08-.8z" fill="#db0c1e"/><path d="M120.65 50.34c-.05.6-.41.94-.93 1.16h.01c-.2-.79.33-1 .93-1.15zM119.5 35.74a.77.77 0 01-.44.66h-.1l-.1.02-.1-.67.74-.01z" fill="#f6cbce"/><path d="M121.78 37.18c.3-.13.4-.6.92-.43-.28.34-.5.67-.9.82l-.02-.39z" fill="#ea737d"/><path d="M121.63 38.27c.13-.06.33-.16.36.04.06.34-.08.6-.47.63l.1-.67z" fill="#f4bdc1"/><path d="M122.58 53.56l-.29.03c-.08-.2-.27-.18-.44-.2.1-.2.14-.49.42-.46.36.04.28.38.31.63z" fill="#e7626d"/><path d="M120.24 63.37c.11-.44.43-.58.85-.54a.86.86 0 01-.85.54z" fill="#e7606b"/><path d="M114.85 53.83l.72-.23c-.22.14-.24.9-.72.23z" fill="#df2938"/><path d="M121.36 39.44l-.93.24c.18-.36.53-.46.88-.52l.05.28z" fill="#f4bdc1"/><path d="M103.45 135.95c-1.28 1.11-2.78 2-3.66 3.54-.36-.22-.27-.97-.95-.82a.67.67 0 01-.52-.34c-.09-.72.55-.96.94-1.41-.28.23-.5.18-.7-.05a.37.37 0 01.08-.3c.79-.28 1.58-.55 2.17-1.21.18-.2.45-.29.73-.2.32.42.57.08.83-.09.31-.2.66-.57 1-.32.41.3.3.78.08 1.2z" fill="#fae5e7"/><path d="M103.5 131.56c.74.05 1.3-.33 1.77-.81.3-.31.6-.45 1-.36.17.38-.12.6-.3.84-.24.29-.61.39-.85.67a.5.5 0 01-.16.12c-.61.3-.94.84-1.24 1.4l-.24.46c-.52.39-1.26.34-1.73.85-.3.24-.63.42-1.03.44a.48.48 0 01-.37-.29.74.74 0 010-.32c.26-.58.83-.92 1.16-1.45.27-.3.6-.54.89-.8.34-.3.65-.63 1.1-.75z" fill="#db081a"/><path d="M68.46 149.42c.66-.58 1.49-.98 1.86-1.84.22-.52.53-.97 1.08-1.2.38-.1.72-.34 1.13-.38.2.01.35.07.46.24.1.32.13.62-.2.82l-2.94 2.61c-.29.11-.5.38-.83.39-.4 0-.82-.03-.56-.64z" fill="#fbebec"/><path d="M124.13 127.36c-.53.35-.96.84-1.14 1.41-.44 1.38-1.51 2.06-2.76 2.75a7.94 7.94 0 012.5-3.73c.12-.29.28-.55.48-.8a.9.9 0 01.24-.19c.1-.03.21-.04.32-.02.26.1.47.24.36.58z" fill="#fbebed"/><path d="M59.14 153.4l-.23-.24c-.15-.47 0-.86.3-1.22.19-.19.44-.3.58-.54.42-.68.86-1.35 1.54-1.81.09-.05.19-.09.29-.1.1 0 .2.02.28.06.17.11.18.32.28.47.1.15.22.28.3.44.05.1.03.17-.05.23l-.44.34a.6.6 0 01-.37.2.57.57 0 00-.43.35c-.08.18-.24.28-.4.4l-.21.58c-.46.31-.68 1.03-1.44.84z" fill="#dc0c1d"/><path d="M88.64 138.51c1.2-1.1 2.31-2.32 3.67-3.22l.3.34-3.55 3.5c-.06.22-.22.2-.4.14-.17-.25.73-.54-.02-.76z" fill="#de1c2c"/><path d="M101.63 134.5a1.93 1.93 0 011.85-.62c.09.69.63 1.39-.03 2.07.06-.37.27-.85-.08-1.05-.38-.21-.62.31-.93.5-.39.24-.62.75-1.17.76-.25-.48.36-.56.33-.9-.26-.26.54-.5.03-.77z" fill="#de202f"/><path d="M71.48 146.64l-1.16.94c-.06-.45-.29-.43-.65-.28-.54.22-.97.6-1.41.97-.25-.06-.35-.22-.36-.46.16-.51.56-.76 1.02-.94.32-.12.46-.56.88-.48.52-.24.88-.85 1.58-.69.31.28.36.6.1.94z" fill="#de2030"/><path d="M67.5 152.4c-.5.35-.75 1-1.4 1.18-.14-.29-.2-.59-.06-.9.23-.27.5-.5.74-.78.41-.39.71-.87.98-1.37.4-1.02 1.19-.46 1.84-.43l-.26.26c-.13.22-.19.47-.36.67-.28.3-.55.6-.88.85-.18.2-.64.06-.6.52z" fill="#dc1122"/><path d="M98.83 138.52c1.66-1.02.63.65.96.97l-1.16 1.24c.05-.73-.53-.99-.46-1.53l.03-.17c.11-.29.36-.41.63-.51z" fill="#fae9ea"/><path d="M91 148.8a4.99 4.99 0 01-2.64 2.04 9.52 9.52 0 012.3-2.39c.28-.05.4.06.34.35z" fill="#f9dcde"/><path d="M105.74 131.09l.53-.7 1.73-1.16c.23-.14.46-.15.69 0-.62 1.07-1.67 1.64-2.64 2.3-.24-.06-.35-.2-.3-.44z" fill="#f5c5c9"/><path d="M69.6 150.1c-.58.1-1.4-.32-1.56.7-.35.09-.5.56-.94.47-.51-.62.25-.72.45-1.02.23-.33.6-.56.91-.83.3 1.01.96 0 1.4.25l-.26.43z" fill="#e23a47"/><path d="M72.79 147.06l.04-.9c.08-.52.59-.62.9-.93.09-.22.3-.24.5-.27l.26.28c.13.11.13.22-.01.32-.54.53-.8 1.38-1.7 1.5z" fill="#df2635"/><path d="M82.82 139c.41-.8.8-.04 1.2.01.04.4-.34.26-.5.4-.35.34-.7.7-1.07 1.03-.23.2-.5.38-.69-.06-.18-.87.75-.9 1.06-1.39z" fill="#f3b3b8"/><path d="M86.04 140.11c.68-.64 1.04-1.81 2.35-1.41-.7.61-1.23 1.49-2.35 1.41z" fill="#dd1828"/><path d="M90.75 145.69l.54-.45a.52.52 0 01.65 0c-.42.84-1.2 1.33-1.9 1.9-.37-.03-.4-.23-.28-.52.23-.41.82-.45.99-.93z" fill="#f4b9bd"/><path d="M64.02 155.03c-.5-.2-.16-.4 0-.56l1.63-1.59c.57.07.38.4.25.7l-1.14.97c-.32.05-.46.37-.74.48z" fill="#f7d1d3"/><path d="M68.92 146.87l-.92.93c-.17.14-.34.13-.52.03-.28.05-.49.2-.66.42-.13.14-.29.15-.45.03.76-.64 1.23-1.8 2.55-1.41z" fill="#f8dddf"/><path d="M88 140.86c-.3.49-.84.75-1.12 1.28-.11.22-.4.65-.8.24-.32-.35 0-.54.22-.74l.7-.59c.32-.16.58-.62 1-.19z" fill="#f6cbce"/><path d="M67.9 151.71l1-.94c.22.11.4.24.27.54-.08.7-.29 1.24-1.17.88-.15-.14-.13-.3-.1-.48z" fill="#f1a4aa"/><path d="M88.38 145.44c-.18.33.11.5.26.72-.71-.05-.86.73-1.38.94-.24.05-.34-.03-.27-.28.18-.74.81-1.04 1.39-1.38z" fill="#f6d0d2"/><path d="M79.13 140.82c.65-1.06.85-.13 1.17.27l-1.17.94c-.07-.06-.1-.12-.07-.18.02-.06.04-.09.07-.09.34-.31.33-.62 0-.94z" fill="#ee9097"/><path d="M83.52 139.4l.5-.39c.39-.29.9-.44 1.1-.94.2-.01.35.04.48.2-.52.68-.93 1.57-2.08 1.13z" fill="#ea727c"/><path d="M94.18 142.23l1.42-1.39c.17-.15.33-.15.49.02-.4.53-.93.97-1.17 1.61-.3.06-.6.14-.74-.24z" fill="#e86a74"/><path d="M130.4 116.9a9.3 9.3 0 011.62-1.6c-.17.91-.5 1.65-1.63 1.6z" fill="#dd1525"/><path d="M96.06 143.15c-.3.16-.38.88-.85.45-.4-.38.2-.55.38-.75.32-.36.6-.82 1.16-.86.1.58-.54.73-.69 1.16z" fill="#dc1323"/><path d="M82.82 139c-.1.64-.8.84-1.05 1.38l-.57-.02c.38-.64.66-1.4 1.62-1.37z" fill="#e02e3c"/><path d="M61.24 154.79l.22-.74c.3-.15.54-.36.7-.65l.27-.04c.16-.14.31-.13.46 0-.29.79-.89 1.2-1.66 1.42h.01z" fill="#e65762"/><path d="M91.94 145.24h-.65c.22-.66.75-1.04 1.27-1.43.1.07.15.16.18.28a.7.7 0 01-.15.47 1.5 1.5 0 01-.65.68z" fill="#e9707a"/><path d="M66.37 148.28l.45-.03c-.37.85-1.35 1.05-2 2.03.01-.82.56-.99.67-1.39.57.2.6-.39.88-.6z" fill="#e3404d"/><path d="M124.13 127.36l-.47-.45c-.06-.51.27-.66.68-.73h.3c.38.63-.07.9-.5 1.18z" fill="#f8dadc"/><path d="M108.69 129.23h-.7c.27-.57.54-1.12 1.3-1.12.15.15.13.3 0 .46-.13.29-.3.54-.6.66z" fill="#ea757e"/><path d="M74.48 145.56l.01-.32c.2-.17.38-.37.6-.53.2-.16.41-.6.7-.22.23.3-.1.58-.36.72-.3.16-.63.24-.95.35z" fill="#ec858e"/><path d="M92.58 144.56l.01-.44c.2-.42.53-.72.92-.96l.2-.29c.16.04.27.13.3.3-.19.76-.87 1.01-1.43 1.39z" fill="#f5c3c7"/><path d="M64.74 148.25l-.11.25c-.46.37-.8.84-1.26 1.2a.35.35 0 01-.32-.04.77.77 0 01-.13-.32c-.02-.32.12-.58.33-.8.44-.4.92-.58 1.49-.3z" fill="#dd1a2a"/><path d="M128.77 120.2c.13-.52.82-.68.84-1.3.01-.25.26-.24.45-.13.37.19.13.37-.03.5-.4.34-.67.87-1.27.93z" fill="#e33f4c"/><path d="M64.74 148.25c-.58-.12-.94.29-1.36.56a.56.56 0 01-.35-.3.55.55 0 01.03-.31c.06-.1.13-.17.21-.24.3-.22.54-.53.9-.64.2-.06.5-.11.34.28-.13.28-.07.44.26.44l-.03.2z" fill="#f4bfc3"/><path d="M122.98 126.42c.17-.27.3.09.46.02.15.16.13.31 0 .47l-.05.05-.06-.04c-.19.34-.46.58-.84.66-.2.1-.37.29-.63.24-.22-.38.1-.55.3-.77.26-.22.56-.4.82-.63z" fill="#eb7b84"/><path d="M88 140.86c-.37-.19-.6.47-1 .19-.07-.67.62-.64.9-.99.11.22.3.3.54.32-.06.24-.2.4-.43.48z" fill="#f8dedf"/><path d="M103.72 133.43c0-.84.45-1.27 1.24-1.41-.27.6-.7 1.05-1.24 1.4z" fill="#e02e3d"/><path d="M90.96 141.27c-.12.25-.2.71-.55.54-.34-.16-.1-.62-.14-.95.2-.22.43-.24.68-.1.13.17.15.34.01.51z" fill="#e13442"/><path d="M94.01 143.17l-.3-.3.47-.64c.24.12.65-.3.74.24-.28.27-.5.6-.9.7z" fill="#f5c2c6"/><path d="M90.96 141.27l-.01-.44c-.15-.36.08-.54.34-.71l.02.01c.31.17.55.4.6.78l-.6.6-.35-.24z" fill="#faebec"/><path d="M96.08 140.86l-.48-.02c.32-.39.93-.54.93-1.17a.48.48 0 01.43-.17c.1.03.2.09.26.17l-1.14 1.2z" fill="#f9e6e7"/><path d="M91 148.8l-.35-.35c.3-.44.67-.78 1.16-1.1.06.74-.34 1.12-.81 1.45z" fill="#f7d4d6"/><path d="M66.11 146.84c.33-.43.68-.85 1.33-1.14-.08.7-.88.8-.84 1.4l-.49-.26z" fill="#e96e78"/><path d="M131.68 126.94c.25-.56.65-.96 1.2-1.21-.2.6-.73.87-1.2 1.21z" fill="#e44d59"/><path d="M94.22 145.9c.5-.7.89-1.05 1.67-1.4a3 3 0 01-1.67 1.4z" fill="#ea747e"/><path d="M79.13 141.76v.27c-.3.47-.72.8-1.16 1.13-.1.09-.19.1-.28 0a6 6 0 011.44-1.4z" fill="#e8646e"/><path d="M97.22 139.67h-.06l-.05.01a.26.26 0 01-.2-.24.96.96 0 01.25-.45c.3-.26.61-.57 1.06-.24.07.17.06.33-.08.47l.03-.02-.95.47z" fill="#faeced"/><path d="M89.3 144.48c-.02.6-.17 1.06-.93.96.24-.39.45-.8.93-.96z" fill="#f6d0d2"/><path d="M89.76 146.62l.28.51c-.1.36-.34.6-.62.25-.25-.32-.09-.64.34-.76z" fill="#df2433"/><path d="M72.47 148.75c-.1.53-.26.82-.84.88.04-.54.4-.65.84-.88z" fill="#f3b4b9"/><path d="M109.3 128.57l-.02-.46c.24-.26.36-.88.88-.3-.22.34-.5.59-.87.76z" fill="#f5c3c7"/><path d="M119.73 127.14v.94c-.1.12-.17.33-.28.35-.26.05-.11-.17-.12-.28 0-.39-.01-.78.4-1z" fill="#f7d4d7"/><path d="M67.1 151.27c.32-.13.52-.52.94-.46l-1.2 1.17c-.09.1-.18.1-.26-.01l.52-.7z" fill="#eb7d86"/><path d="M60.8 151.97l.25-.46a.67.67 0 01.46-.43l.48-.05c-.18.6-.56.93-1.2.94z" fill="#eb7982"/><path d="M59.14 153.4c.6-.09.88-.7 1.44-.85-.07.57-.52.78-.93 1.04-.18-.03-.41.07-.51-.2z" fill="#e96f79"/><path d="M63.12 149.65h.23c.09-.1.17-.1.24 0-.4.35-.48 1.03-1.16 1.04a.34.34 0 01-.09-.14c0-.52.29-.8.78-.9z" fill="#e23a48"/><path d="M83.73 150.17l.96-.66c.01.54-.5.62-.7.94l-.26-.28z" fill="#e0303f"/><path d="M122.48 127.58c.21-.32.47-.57.85-.66.1.5-.31.64-.6.87a50.9 50.9 0 00-.25-.21z" fill="#df2736"/><path d="M63.6 149.66l-.25-.01c.35-.47.69-.95 1.28-1.15-.1.6-.63.83-1.04 1.16z" fill="#e5515e"/><path d="M105.74 131.09l.3.44c-.23.31-.52.49-.92.37.02-.41.3-.63.62-.81z" fill="#e02e3d"/><path d="M67.47 147.84l.53-.04.26.47c-.66.57-.72.06-.79-.44z" fill="#ee9198"/><path d="M91.29 140.12c0 .29-.17.5-.34.71l-.67.03-.03-.3c.27-.32.6-.52 1.04-.44z" fill="#da0315"/><path d="M85.6 138.26l-.47-.19c.25-.67.77-.16 1.15-.26.07.04.1.1.07.14-.02.05-.04.08-.06.08l-.69.23z" fill="#f8dbde"/><path d="M86.28 138.03a.3.3 0 000-.22c.18-.26.48-.3.81-.42.04.46-.18.72-.53.91l-.28-.27z" fill="#de1d2d"/><path d="M99.08 141.75c.03.35-.19.55-.46.71-.28.16-.48.15-.48-.24.27-.26.52-.55.95-.46l-.01-.01z" fill="#eb7a84"/><path d="M96.06 143.15c-.21-.65.57-.7.69-1.16.16.04.58-.08.29.3-.27.33-.65.58-.98.86z" fill="#ef9aa1"/><path d="M130.84 122.49c-.3.5-.52.78-1.11.93.3-.47.54-.75 1.11-.93z" fill="#e34350"/><path d="M80.5 141.61l1.1-.97c-.2.83-.54 1.02-1.1.97z" fill="#f3b2b7"/><path d="M86.99 146.82l.27.28c-.15.25-.24.54-.56.66-.25-.45-.03-.7.29-.94z" fill="#f2adb2"/><path d="M88.55 147.55c-.22.5-.47.73-.97.94.2-.5.46-.72.97-.94z" fill="#df2433"/><path d="M122.26 127.13l-.4.69-.55-.02c0-.4.36-.57.5-.89l.21-.06a.3.3 0 01.24.28z" fill="#df2535"/><path d="M65.9 153.58c-.04-.25.07-.55-.25-.7l.48-.45c.07.05.1.1.1.16-.02.07-.04.1-.06.1l-.06.89h-.21z" fill="#f0a0a6"/><path d="M62.89 153.37l-.46-.01c.13-.36.43-.54.76-.82.06.4-.09.62-.3.83z" fill="#f2aaaf"/><path d="M122.26 127.13l-.24-.28a.5.5 0 000-.13l.76-.3h.2c-.12.36-.35.6-.72.71z" fill="#dd1425"/><path d="M64.76 151.8c-.17.52-.4.67-.9.86.22-.46.43-.65.9-.87z" fill="#e44c58"/><path d="M89.33 139.65c.17-.34.53-.3.63-.1.13.26-.15.45-.42.53l-.21-.44z" fill="#e23845"/><path d="M89.55 145.93c.36-.18.57-1.13 1.12-.2l-1.12.2z" fill="#df2635"/><path d="M76.8 142.46l.29.26c-.15.27-.34.5-.66.52-.04 0-.09-.34-.13-.53l.5-.25z" fill="#f9dee0"/><path d="M118.74 128.12c-.02.5-.25.63-.54.78-.1-.47.22-.55.54-.78z" fill="#e44a57"/><path d="M64.02 155.03c.2-.25.24-.71.74-.48-.2.23-.31.6-.74.48z" fill="#f9e4e6"/><path d="M99.1 141.76c.07-.33.2-.61.62-.6.04.5-.32.53-.64.59l.02.01z" fill="#f3b9be"/><path d="M129.73 120.89c.04-.33.09-.66.54-.79.02.45-.3.58-.56.77l.02.02z" fill="#f5c3c7"/><path d="M121.81 126.91c.15.48-.32.6-.5.89-.37-.6.23-.65.5-.89z" fill="#ef99a0"/><path d="M67.9 151.71l.1.48-.5.21c-.56-.64.43-.37.4-.69z" fill="#e44956"/><path d="M98.14 142.22c.09.22.28.23.48.24-.21.22-.46.52-.75.23-.23-.23.1-.35.27-.47z" fill="#e23b49"/><path d="M69.17 151.31l-.27-.54.44-.4c-.01.32.22.69-.17.94z" fill="#f2afb4"/><path d="M88.67 139.27l.4-.15c-.12.5-.41.77-.94.76l.54-.61z" fill="#f8dedf"/><path d="M135.77 126.37l-.24.2c-.06-.07-.17-.18-.15-.22.06-.11.16-.24.28-.28.11-.04.17.08.11.3z" fill="#e44d5a"/><path d="M62.17 153.4c0 .48-.28.64-.7.65.18-.26.37-.53.7-.65z" fill="#eb7e87"/><path d="M77.7 143.15h.27c-.17.22-.3.62-.6.44-.17-.09.14-.33.32-.44z" fill="#e3434f"/><path d="M66.17 152.69l-.04-.26a.67.67 0 01.45-.46l.27.01-.68.71z" fill="#e75e69"/><path d="M148.67 56.4c-.28.86-.74 1.67-1.56 2.02-.94.4-.49 1.46-1.16 1.92-.03-.3.09-.75-.5-.42-.15.08-.19-.15-.2-.29.24-.58.84-.86 1.16-1.4-.39-1.43-.77.13-1.16.01a.42.42 0 01-.13-.3c.66-1.24 1.88-1.8 3.03-2.44a.85.85 0 01.48.03c.1.05.17.12.22.21.03.1.04.2.02.3-.03.14-.2.2-.2.35z" fill="#fae5e7"/><path d="M148.19 55.66c-.93.85-2.16 1.31-2.94 2.34-.37-.01-.44-.15-.2-.44l1.15-1.41c0-.27.18-.45.34-.64l.72-.75c.54-.33.7-1.17 1.5-1.17l.5.7c.01.75-.57 1.03-1.07 1.37z" fill="#dc0e1f"/><path d="M140.14 71.92l-.5.4c-.71.31-.63-.2-.64-.62.62-.81 1.69-1.24 2-2.32-.03-.18.06-.3.19-.42.19-.12.39-.19.62-.1.23.17.33.41.39.69.05.4-.13.7-.4.98a2.1 2.1 0 01-.22.2c-.23.18-.4.41-.6.63-.21.29-.57.36-.84.56z" fill="#dc1121"/><path d="M146.45 67.1a.2.2 0 01.19-.02c.32.66-.12 1.07-.49 1.5-.5.39-.93.84-1.4 1.27-.38.25-.77.37-1.13-.06.03-.5 1.18-.3.68-1.12a.6.6 0 01-.12-.62c.05-.1.12-.18.2-.25.62-.46 1.3-.71 2.07-.7z" fill="#fcf1f2"/><path d="M146.2 54.05c-.66.16-.88.94-1.55 1.1-.17-.63.3-.9.66-1.24.51-.48 1.2-.83 1.18-1.71 0-.13.11-.55.4-.44.38.14.74.4.67.93.06.8-.66 1-1.08 1.44-.11.03-.21 0-.29-.08z" fill="#dc1222"/><path d="M140.37 67.22l-.26-.2c-.1-.3.16-.46.26-.68.38-.8 1.26-.9 1.87-1.37.2-.08.3.05.35.21.04.32-.1.57-.3.8-.08.1-.27.1-.26.29.15-.06.29-.04.43.03.22.54-.24.79-.47 1.14a.8.8 0 01-.44.22c-.42-.06-.85-.1-1.18-.44z" fill="#fae8e9"/><path d="M139.92 68.91c-.48.24-.85.62-1.3 1.2.1-1.81-.83-.12-1.2-.66.4-.45.59-1.29 1.56-.78.6-.03.97-1.05 1.72-.39.13.7-.55.38-.78.63z" fill="#e13342"/><path d="M140.7 68.27c-.54-.06-.93.24-1.3.57-.26.24-.39.14-.42-.17l1.4-1.45c.52-.45.78.14 1.15.3.07.63-.23.84-.82.75z" fill="#df2736"/><path d="M140.7 68.27c.36-.16.62-.42.83-.75l.24-.23c.83-.24.68.37.71.82a1 1 0 01-.13.31c-.3.3-.82.23-1.04.66l-.31.3c-.5.15-.56-.68-1.08-.46.15-.36.73-.2.79-.65z" fill="#fae9ea"/><path d="M140.15 50.13c-.12.25-.27.53-.58.4-.24-.12-.16-.41-.1-.63.1-.5.48-.75.9-.95.15-.31.3-.6.74-.5.12.13.16.28.15.45-.02.1-.06.2-.1.3-.28.37-.69.61-1.01.93z" fill="#f5c2c6"/><path d="M142.68 71.5c.01-.2-.02-.39-.22-.5.22-.4.53-.7.91-.94.96-.14 1.13-.04 1.06.62-.3.21-.6.43-.89.68-.21.16-.44.3-.72.23l-.14-.09z" fill="#de202f"/><path d="M144.34 67.98l-.04.69c-.7.18-.97.9-1.57 1.21-.23.05-.33-.08-.4-.28.32-1.23.9-1.7 2-1.62z" fill="#e0303f"/><path d="M146.42 54c.17-.62.86-.8 1.14-1.32.36-.04.6.11.71.44.1.55-.39.67-.68.94-.22.12-.44.3-.7.33-.25.03-.63.13-.47-.39z" fill="#df2736"/><path d="M147.58 53.8l.69-.67c.25.06.38.24.49.45-.48.47-.8 1.08-1.42 1.4-.24-.06-.35-.23-.37-.47.06-.36.39-.5.61-.71z" fill="#dc1121"/><path d="M140.14 71.92l.71-.68c.29-.18.47-.46.67-.72h.01c.34 0 .47-.77.94-.24-.65.73-1.1 1.75-2.33 1.64z" fill="#fdfbfb"/><path d="M139 71.7c.19.23.05.8.64.62-.36.51-.86.85-1.37 1.2-.14-.1-.36-.01-.46-.2.45-.51.97-.96 1.19-1.62z" fill="#f5c8cb"/><path d="M144.1 70.53c.18-.04.43-.1.1-.27-.25-.12-.55-.14-.83-.2l.25-.27c.43.16.8.05 1.13-.24.23-.02.34.06.27.3l-.21 1.59c-.24.17-.39.02-.53-.14.32-.35-.38-.45-.18-.77z" fill="#e13241"/><path d="M120.4 40.6c.31-.4.63-.78.95-1.16l.69-.2v-.02c-.05.9-.87 1.13-1.38 1.62-.15-.03-.23-.1-.27-.25z" fill="#e02938"/><path d="M123.67 48.73c.43.09.76-.26 1.2-.24-.29.6-.56 1.21-1.42.7-.16-.27.1-.33.22-.46z" fill="#faeaeb"/><path d="M148.8 56.01l-.05-.32c.03-.59.24-1 .91-.95.28.19.22.48.24.74a.63.63 0 01-.47.44.7.7 0 01-.22.16.5.5 0 01-.4-.07z" fill="#f3b6bb"/><path d="M147.1 54.51l.24.48-.58.7c-.5.19-.77.11-.6-.5a.3.3 0 01.05-.18c.23-.28.43-.62.89-.5z" fill="#e13644"/><path d="M149.66 54.74c-.46.17-.57.67-.9.95l-.57-.03c.09-.66.81-.83 1.07-1.37l.4.45z" fill="#f9e2e4"/><path d="M120.4 40.6l.26.24c-.24.37-.42.8-.9.94l-.54-.03c.31-.47.72-.83 1.17-1.16z" fill="#de2232"/><path d="M142.47 65.18l-.23-.21c.35-.48.56-1.06 1.08-1.4.28.12.3.37.3.63-.22.52-.44 1.04-1.15.98z" fill="#f8dddf"/><path d="M122.74 38.45c0-.4.1-.75.51-.9.06-.02.24.15.29.27.2.54-.23.71-.58.92-.11-.07-.25-.12-.22-.29z" fill="#faeced"/><path d="M147.1 54.51l-.9.5v-.96l.22-.05c.51.64.73-.39 1.16-.2 0 .34-.32.47-.48.71z" fill="#ee949b"/><path d="M146.4 58.24c-.05.74-.7.98-1.16 1.4h-.22c-.15-.3.12-.36.26-.48.29-.42.64-.76 1.13-.92z" fill="#fcf5f6"/><path d="M123.67 48.73l-.22.46c-.46.19-.67.74-1.3.72.53-.37.75-1.08 1.52-1.18z" fill="#f5c1c5"/><path d="M120.66 50.34c-.41.31-.92.53-.93 1.16l-.57-.51c.48-.3.94-.64 1.25-1.13.1.04.17.12.2.23l.05.25z" fill="#ed8a92"/><path d="M141.03 48.46l-.66.5c-.1-.57-.2-1.14.71-.9.13.15.1.28-.05.4z" fill="#fbeded"/><path d="M141.03 48.46l.05-.4.47-.25c.27-.1.42.03.53.26-.2.46-.4.9-1.02.86 0-.16-.02-.31-.03-.47z" fill="#f09ea4"/><path d="M141.06 48.93l.97-.88c.03-.11.1-.19.2-.23.25.1.53.17.14.48-.36.28-.69.6-1.03.9-.11.1-.22.1-.31-.01 0-.09.02-.17.03-.26z" fill="#de1e2e"/><path d="M143.4 64.26l-.08-.7.54-.45c.12.2.33.23.53.26-.07.59-.31.98-1 .9z" fill="#dc1323"/><path d="M124.13 60.55h-.23c-.06-.2-.49-.28-.18-.62.3-.32.58-.23.9-.06.08.28-.08.4-.33.46-.05.07-.1.15-.17.22z" fill="#f7d7d9"/><path d="M124.3 60.33l.31-.46c.44-.28.74-.75 1.26-.9.07.18.02.32-.16.4-.5.29-.7 1.01-1.42.96z" fill="#eb7b84"/><path d="M137.81 73.31l.46.22c-.34.18-.5.66-1.05.6-.04-.46.3-.62.6-.82z" fill="#f3b7bc"/><path d="M122.5 59.14l.02-.18c.36-.38.48-1.07 1.23-.94-.36.44-.75.83-1.25 1.12z" fill="#eb7f88"/><path d="M142.47 70.28c-.4-.27-.55.45-.94.25l.48-.93c.15-.14.3-.14.45 0l.27.28-.26.4z" fill="#ef979e"/><path d="M120.62 50.1l-.21-.24c.25-.3.41-.73.92-.66.03.5-.46.6-.71.9z" fill="#e9717b"/><path d="M141.03 49.19l.3.02c-.31.4-.6.85-1.18.92.07-.52.55-.66.88-.95z" fill="#e54f5b"/><path d="M146.15 55.19c.03.38.34.42.61.5l-.56.46c-.87-.28-.2-.63-.05-.96z" fill="#e9727b"/><path d="M135.03 71.55c-.05.47-.4.7-.86 1.02.1-.62.52-.8.86-1.02z" fill="#f7d3d6"/><path d="M140.37 66.34c.25.36-.23.43-.26.68-.16 0-.38.01-.38-.16 0-.4.35-.44.64-.52z" fill="#f1a7ad"/><path d="M145.06 57.56c.03.16-.09.39.19.44v.24c-.24.07-.43.31-.8.14.13-.33.27-.64.6-.82z" fill="#f4bcc1"/><path d="M129.32 39.45c-.03.5-.39.57-.75 1.04.1-.7.37-.85.75-1.04z" fill="#f6cccf"/><path d="M125.71 59.37l.16-.4c.18-.93.4.02.6-.02l-.45.45-.3-.03z" fill="#f7d0d3"/><path d="M122.74 38.45l.22.29c-.3.18-.53.5-.93.49h.01c.14-.34.41-.56.7-.78z" fill="#ef98a0"/><path d="M119 44.76l.78-.48c.1.52-.24.6-.52.73-.1-.07-.24-.1-.26-.25z" fill="#eb7c85"/><path d="M119 44.76l.26.25c-.25.17-.12.59-.45.7l-.16-.62c-.01-.25.15-.3.35-.33z" fill="#e7616b"/><path d="M142.24 47.82l-.21.23-.48-.24c.24-.5.47-.44.69.01z" fill="#f4c0c4"/><path d="M145.28 59.16l-.26.47-.5.13c.05-.46.39-.56.76-.6z" fill="#f6cbce"/><path d="M125.06 56.85c.16-.3.37-.54.79-.7-.06.43-.31.56-.55.7-.08.1-.16.1-.24 0z" fill="#f8d7da"/><path d="M125.06 56.85h.24c-.15.3-.36.53-.76.68.03-.42.28-.55.52-.68z" fill="#faebec"/><path d="M84.47 129.48a.13.13 0 01.14-.05c.13-.08.24-.07.35.04-.39.35-.06.52.17.7.18.46-.29.49-.45.72-.11.16-.22.31-.36.45.14-.13.25-.3.35-.45.44-.27.73-.72 1.21-.93.51-.3.8-1.1 1.6-.75.4.03.55-.3.78-.52l.57-.48.29-.1c.45 0 .72-.42 1.13-.51.41-.1.72-.07.48.49l-3.5 3.45c-.15.2-.2.46-.4.64-.31.42-.8.57-1.24.82-.41.2-.01.6-.2.87l-.7.7a2.4 2.4 0 01-.98.43c-.23.09-.4.23-.39.5-.06.4-.35.6-.67.8-.18.1-.35.23-.57.23a.56.56 0 01-.46-.34.42.42 0 010-.26c.04-.05.1-.1.15-.13-.06 0-.12.02-.18.07a1 1 0 01-.74.27c-.74.29-1.1 1.04-1.78 1.4-.6.47-1.13 1.05-1.82 1.4-.33-.31-.6-.29-.95.03-.34.3-.41.82-.87 1-.2-.73.17-1.25.67-1.72l1.4-1.43c.31-.2.27-.6.51-.84v.02c.25-.83 1.2-1.04 1.58-1.76.2-.24.36-.51.58-.74.3-.28.67-.48.88-.86.16-.2.34-.38.55-.54.48-.28.86-.67 1.25-1.05.45-.62.79-1.35 1.62-1.57z" fill="#da0214"/><path d="M68.45 132.9c.77-.18 1.2-1.15 2.2-.92.15.03.68-.55.63-.71-.25-.72.32-.83.68-1.1.26.3.3.66.2 1.03-.48.93-1.53 1.5-1.7 2.63a8.83 8.83 0 00-1.53 1.9l-1.4 1.4c-.2.2-.45.09-.68.08-.31.07-.41.37-.6.57-.56.58-.99 1.26-1.45 1.9-.12.8-.8.94-1.38 1.2-.48.15-.33-.38-.56-.5.07-.75.85-.91 1.17-1.44.3-.57-.08-1.32.48-1.82.43-.63 1.28-.86 1.57-1.63.04-.1.1-.19.15-.27.13-.17.31-.28.5-.36.57-.23.9-.73 1.3-1.15.23-.22.65-.33.42-.8z" fill="#db0516"/><path d="M82.03 127.85c.62-.38 1.58-.02 1.98-.9.06-.22.16-.39.43-.23.11.12.3.2.24.42-.1.48-.5.74-.8 1.07-.28.22-.47.54-.77.74-.47.34-.93.68-1.2 1.21.03.3.16.36.4.18.47-.28.73-.97 1.45-.7.16.66-.63.78-.74 1.3-.42.36-.78.8-1.23 1.13-.28.2-.54.42-.7.73-.12.36-.53.4-.74.66-.2.16-.35.36-.5.57-.4.35-.62.92-1.26.91-.46-.12-.66-.43-.66-.89-.01-.2.01-.38.25-.44.46-.54 1.3-.74 1.43-1.58-.02-.43.42-1.05-.48-1.1-.22-.2-.39-.46-.56-.71a.77.77 0 01-.07-.3c.07-.27.2-.5.4-.68.29-.15.45-.86.93-.22.25.04 0 .48.36.42.76-.37.97-1.37 1.84-1.59z" fill="#db0718"/><path d="M77.04 130.17l.23.44c.2.4-.13.69-.22 1.03.13.23-.72.34-.08.64.17.02.3.08.39.22-.52.53-.93 1.19-1.69 1.43-.39.1-.61.46-.96.63l.01.01c-.4.22-.49.76-.94.92l-1.38 1.17c-.65-.07-.73-.39-.4-.89a8.4 8.4 0 002.2-2.48l.06-.05-.07.01-1.37.14c-.1.08-.18.07-.25-.04.18-1.03 1.13-1.21 1.84-1.66.58-.07.8-.62 1.23-.9.51-.1.8-.72 1.4-.62z" fill="#db0517"/><path d="M66.37 135.5c-.18.86-1.02 1.12-1.56 1.65-.9.65-1.55 1.62-2.62 2.06-.57.05-.25-.5-.47-.7.04-.75.81-.93 1.14-1.46 1.37-.68 2.08-2.08 3.26-2.96.6.01.34.38.27.66-.1.2-.27.33-.38.5v.09l.08.04c.1.02.2.04.28.11z" fill="#fbf0f0"/><path d="M55.25 146.42c-.61.48-.42 1.37-1.1 1.92-1 .82-1.12-.29-1.58-.56-.64-.37-.31-.8.13-1.04.9-.5 1.42-1.46 2.32-1.96.23-.1.4.01.56.17.13.17.21.36.23.57-.08.37-.44.56-.56.9z" fill="#db0516"/><path d="M62.86 137.05c-.18.64-.87.88-1.14 1.46-.63-.1-.92.47-1.38.7-.22.19-.4.12-.6-.05-.19-.26-.41-.52-.44-.87.06-.36.23-.64.5-.87.32-.18.67-.2 1.01-.22.13.02.22.08.3.17.06.18.02.35-.06.52.19.4.4.33.7.08.36-.31.63-.75 1.11-.92z" fill="#f9e3e5"/><path d="M72.62 133.4a.49.49 0 01.2 0c-.57 1.06-2.01 1.19-2.51 2.33-.8 0-.93-.35-.5-.98.17-.26.32-.52.56-.72.23-.3.37-.7.79-.82.2-.08.42-.1.64-.12.32-.03.66-.08.82.31z" fill="#dd1929"/><path d="M61.78 149.62l-.27.03c-.36-.02-.59.47-1 .25a.56.56 0 01-.12-.45c.03-.1.1-.2.17-.26 1.16-.6 1.86-1.7 2.83-2.51.32-.27.57-.65 1.08-.48.16.29-.03.48-.17.7l-.21.23c-.36.3-.6.7-.96.98-.51.45-.95.96-1.35 1.51z" fill="#dc0e1f"/><path d="M40.83 131.8c-.44-.38-.42-.7.06-1.06.49-.36.92-.81 1.37-1.22.12-.22.28-.18.44-.07-.02.35.24.52.46.71-.16.18-.38.3-.56.46-.32.32-.46.8-.84 1.07-.3.16-.6.19-.93.12z" fill="#e02f3d"/><path d="M41.29 128.76c-1.1 1.06-1.04-.54-1.61-.7.13-.37.35-.7.7-.91.27-.11.54-.23.79.06.13.5.43 1 .12 1.55z" fill="#db0c1d"/><path d="M73.72 145.23c-.17.43-.6.62-.9.93h-.41c-1.17.4-.83-.72-1.16-1.16.88-.5 1.61.5 2.47.23z" fill="#fae6e7"/><path d="M70.55 134.13c-.17.25-.3.54-.52.74-.58.53-.28.73.28.86-.46.46-.92-.21-1.38 0-.01-.93.48-1.51 1.3-1.88.26-.1.37 0 .32.28z" fill="#f7d3d5"/><path d="M56.84 148.9c.21.97-.02 1.56-.75 1.89-.36.15-.72-.26-.7-.43.1-.75.85-.91 1.45-1.46z" fill="#df2434"/><path d="M49.7 130.92c.29-.8 2-2.03 2.7-1.93.25.34-.02.52-.21.73a9.8 9.8 0 01-.22.2l.04.07c-.63.66-1.53.65-2.31.93z" fill="#f9e4e5"/><path d="M62.86 140.37l.56.51c-.6.74-1.06 1.66-2.16 1.8-.14-.15-.13-.3.01-.45.44-.7 1.46-.9 1.6-1.86z" fill="#e0303e"/><path d="M78.93 137.36c.6-.5.95-1.33 1.86-1.44.08.14.16.29.14.46-.2.6-.8.89-1.1 1.4-.14.26-.3.27-.47.04-.21-.1-.4-.2-.43-.46z" fill="#f7d4d7"/><path d="M64.8 139.69c-.1-1.04.74-1.5 1.3-2.14.1-.09.21-.08.32.01.22.42-.13.66-.3.96-.4.44-.56 1.13-1.32 1.17z" fill="#f7d2d4"/><path d="M48.48 129.48l-.71-.5c.25-.45.48-.9.94-1.18.39-.04.83-.3 1.05.27.03.58-.56.64-.82.98-.15.15-.24.36-.46.43z" fill="#de2231"/><path d="M78.64 134.78l1.16-1c.17.2.16.39.04.6-.38.8-1.2 1.1-1.83 1.62l-.04-.5c-.12-.18-.47-.28-.18-.58.25-.24.59.04.85-.14z" fill="#f9e0e2"/><path d="M70.98 140.58l.79-.97c.29.69.17 1.21-.32 1.65-.24.48-.54.62-.96.2-.04-.4.4-.54.49-.88z" fill="#e44d5a"/><path d="M74.95 135.93c-.02-.2 0-.4.2-.5.1-.04.19-.03.27.1.52.88.14 1.77-.9 2.1-.05-.22.1-.54-.32-.52-.07-.6.5-.79.75-1.18z" fill="#f2b1b6"/><path d="M49.7 130.92c.6-.74 1.56-.56 2.3-.93 0 .22.06.46-.13.64-.2.09-.39.15-.58 0-.72-.01-.9 1-1.67.9l.08-.61z" fill="#e13544"/><path d="M60.53 149.89c.35.03.53-.68.98-.24l-1.62 1.87c-.15 0-.18-.15-.26-.24.28-.34.41-.73.45-1.16.08-.2.2-.33.45-.23z" fill="#e5535f"/><path d="M72 135.77c-.1.4 0 .71.4.89-.44.62-1.05 1-1.8 1.24.5-.7 1.1-1.31 1.4-2.13z" fill="#f3b4b9"/><path d="M57.32 140.15c.4-.41.64-.93.89-1.44.37.08.62-.43 1.02-.22.1.14.12.29.09.45-.11.5-.8.62-.82 1.19l-.74.44c-.15-.11-.37-.05-.5-.2-.05-.09-.03-.16.06-.22z" fill="#ec878f"/><path d="M62.2 139.2c.9-.63 1.57-1.58 2.61-2.04l-.78 1.78c-.03-.23.02-.56-.1-.65-.22-.16-.35.2-.54.28-.4.19-.46 1.06-1.2.64z" fill="#f5c5c9"/><path d="M82.07 136.4c.12-.22.33-.2.52-.22.2-.01.38 0 .19.27l-.64.9c-.46.1-.55.89-1.2.64-.28-.58.43-.7.51-1.12.14-.25.37-.37.62-.47z" fill="#f9e5e6"/><path d="M55.25 146.42c-.12-.43.41-.56.42-.93.17-.65.73-1.02 1.12-1.5.3-.14.6-.26.94-.21.07.05.1.1.09.16-.02.06-.04.1-.06.1l-2.51 2.38z" fill="#e96c76"/><path d="M78.64 134.78c-.18.36-.66.08-.86.4-.17.25-.47.34-.68.55l-.3.44c-.08.15-.15.15-.22 0l.02-.67c.15-.31.36-.6.53-.89.14-.36.62-.27.79-.59v.03l.72.73z" fill="#e23947"/><path d="M79.6 139.45l-1.2 1.31c-.33.37-.5.13-.64-.17.42-.56.93-1.02 1.52-1.4.28-.13.34.02.31.26z" fill="#e34450"/><path d="M49.62 128.27c-.01-.71-.53-.46-.9-.47.96-.1 1.5-1.03 2.45-1.45-.18.96-1.25 1.1-1.27 1.96-.1.06-.2.04-.28-.04z" fill="#f0a1a7"/><path d="M68.36 143.25c-.3.45-.66.88-1.18 1.14-.04.02-.29-.22-.27-.28.19-.56.6-.94 1.15-1.14.14-.05.3.04.3.28z" fill="#fae6e7"/><path d="M78.93 137.36c.24.06.33.26.43.46-.73.32-1.18 1.17-2.12 1.13l1.69-1.6z" fill="#ef989f"/><path d="M80.94 137.99c.48-.08.67-.68 1.2-.64-.66.67-.85 1.86-2.1 1.85-.15-.45.29-.49.48-.7l.42-.51z" fill="#f9dee0"/><path d="M79.6 132.03c.5 1.4-.76 1.22-1.42 1.58.2-.78.85-1.14 1.43-1.58z" fill="#ed8b93"/><path d="M59.45 152.03l-.54 1.13-.83-.57c.3-.43.62-.78 1.09-.95a.5.5 0 01.28.4z" fill="#e7616c"/><path d="M70.57 141.3c.31.51.59 0 .88-.04.06.23.56.35.29.62-.26.24-.67.39-1.05.3-.54-.12-.34-.58-.35-.93a.18.18 0 01.23.04z" fill="#fcf4f5"/><path d="M52.42 145.23c.46.56.05.9-.33 1.21-.38.32-.69.27-.84-.25-.1-.15 0-.27.08-.4.25-.23.5-.47.83-.6.1-.05.19-.03.26.04z" fill="#f6cdd0"/><path d="M74.95 135.93c.14.61-.6.71-.7 1.19 0 .16-.07.28-.18.39-.16.11-.32.23-.53.09-.1-1.04.7-1.32 1.41-1.67z" fill="#db0b1c"/><path d="M41.77 131.55c.06-.5.4-.8.7-1.16.2.1.24.29.27.48-.46.58-.72 1.4-1.67 1.39-.17-.64.48-.47.7-.71z" fill="#df2938"/><path d="M48.02 132.68c-.03.39-.1.86-.47.96-.22.06-.6-.27-.83-.5-.4-.42-.07-.58.32-.67-.03.17-.28.36-.06.5.43.3.66-.3 1.04-.3z" fill="#df2a39"/><path d="M71.25 145c.08.42 1.09.3.6 1.05l.56.12c-.22.34-.57.4-.93.47.06-.36.05-.69-.3-.9-.27-.18-.38-.4-.22-.7l.29-.04z" fill="#f5c3c7"/><path d="M70.96 145.04l.22.7c-.33.49-.84.6-1.38.64.27-.55.67-.98 1.16-1.34z" fill="#e13543"/><path d="M60.56 149.19c.01.06.02.13.01.2-.16.3-.39.55-.71.7l-.65.5c-.12.1-.22.1-.31-.03.46-.57.7-1.4 1.66-1.37z" fill="#dd1929"/><path d="M42.93 128.77c.1-.56.64-.71.99-1.03.2-.19.43 0 .61.13.06.03.07.21.03.28-.1.15-.22.28-.46.17-.52-.23-.67.58-1.17.45z" fill="#faeced"/><path d="M77.36 132.5c-.2 0-.38-.02-.56-.03-.1-.45.37-.6.5-.92.25-.31.5-.6.94-.64.23.03.47.07.42.4l-1.3 1.2z" fill="#de2232"/><path d="M51.54 145.92l-.29.27c-.24-.3-.52-.58-.24-1 .27-.4.6-.44.98-.18.12.44-.37.58-.45.91z" fill="#f8dadd"/><path d="M55.44 145.01l-.42-.23c.07-.38.42-.52.65-.76.15-.29.33-.54.72-.46l.44.07c.07.05.1.1.1.17-.01.06-.02.1-.04.1-.5.34-.77 1-1.45 1.11z" fill="#df2534"/><path d="M58.9 150.56l.31.03c-.41.44-.82.89-1.25 1.3-.1.1-.2.4-.43.13-.2-.23.03-.33.16-.44l1.2-1.02z" fill="#dc1323"/><path d="M76.1 138.25c-.16.6-.66 1.07-.67 1.73-.6-.3-.65-.36-.24-.7.38-.3.02-1.21.9-1.03z" fill="#df2736"/><path d="M55.22 141.98c.4-.43.74-.93 1.35-1.11.17.19.08.37-.02.56-.08.22-.5.16-.42.52-.29.48-.61-.05-.91.03z" fill="#f2b4b9"/><path d="M51.98 129.69l.42-.7.96-.75c.57.12.16.38.1.6-.43.4-.69 1.08-1.48.85z" fill="#ea7881"/><path d="M58.5 140.13c-.32-.02-.43-.19-.2-.43.26-.28.58-.5.87-.75.15.03.25.13.31.27.03.24-.16.33-.31.45l-.67.46z" fill="#f8d8da"/><path d="M64.51 147.6c-.59-.21-.7.52-1.14.6-.28-.7.55-.84.67-1.34h.01c.24-.09.47-.13.7 0-.02.27.03.56-.24.74z" fill="#ea7881"/><path d="M68.31 145.08c.2-.57.53-1 1.28-1.22-.22.78-.84.9-1.28 1.22z" fill="#f1abb1"/><path d="M56.39 143.56l-.72.46c-.31-.24-.5-.43-.03-.76.5-.35.57.03.75.3z" fill="#f9dfe1"/><path d="M49.62 128.27l.28.04v-.01c.15.24-.03.31-.2.4l-.06.34c-.33-.07-.49.2-.7.37-.42.09-.3-.2-.29-.4.21-.4.65-.49.97-.74z" fill="#fbedee"/><path d="M74.03 137.38l.23-.26.97-.41c-.02.51-.6.54-.72.91l-.25.21c-.2-.08-.34-.2-.23-.45z" fill="#ea7983"/><path d="M77.27 141.74l-.23.28c-.57-.68.1-.89.46-1.22.16.04.27.13.32.29-.01.35-.3.48-.55.65z" fill="#f5c5c9"/><path d="M78.66 131.3c-.1-.18-.3-.2-.48-.22-.07-.44.17-.71.5-.93.27.19.71.29.45.79-.1.2-.2.38-.47.37z" fill="#e44d5a"/><path d="M80.52 138.5l-.48.7-.45.25-.31-.27c.32-.4.63-.82 1.24-.68z" fill="#df2635"/><path d="M77.92 134.02l-.65.78c-.17.13-.34.15-.51-.01.05-.77.64-.7 1.16-.77z" fill="#e3414e"/><path d="M40.14 126.47c.15-.27.32-.06.47-.02.08.05.1.1.08.15-.03.05-.06.07-.09.07-.11.17-.04.4-.2.55-.29.12-.49.9-.88.1.05-.06.1-.12.14-.2l.48-.65z" fill="#dc1222"/><path d="M59.17 139.67l.24-.44c.07-.23.2-.35.45-.28.1.19.28.25.47.26-.23.55-.64.65-1.16.46z" fill="#fbf1f2"/><path d="M56.84 143.83a.49.49 0 000-.2l.63-.25c.16-.1.33-.14.52-.06.2.3-.05.44-.2.6l-.93.14c-.07-.05-.1-.1-.08-.15.02-.06.04-.08.06-.08z" fill="#f3b4b9"/><path d="M52.9 142.67l.27.26c-.28.36-.5.8-1.1.64 0-.45.5-.54.63-.87.05-.12.11-.13.2-.03z" fill="#de1a2a"/><path d="M79.83 137.78c.04-.64.72-.84.93-1.36.22-.01.38.02.24.29-.33.42-.71.79-1.17 1.06z" fill="#f09ea5"/><path d="M74.03 137.38l.23.45c-.03.25-.13.46-.42.4-.35-.07-.3-.36-.3-.63l.5-.22z" fill="#ea7780"/><path d="M42.4 132.69c.13.51-.34.66-.58.95-.53-.76.19-.76.58-.95z" fill="#dd1b2c"/><path d="M56.61 126.67l-.3-.27c.1-.12.16-.26.27-.35.19-.15.38-.49.64-.18.18.23-.11.39-.26.54-.1.1-.23.17-.35.26z" fill="#e02f3d"/><path d="M64.76 146.86c-.24.16-.47.13-.71 0l.42-.66c.27.14.72.21.29.66z" fill="#ef989e"/><path d="M58 143.4l-.53-.02c.3-.29.54-.68.9-.84.33-.16.48.08.2.4-.21.13-.26.46-.57.47z" fill="#ea767f"/><path d="M66.88 136.62c.24.13.26.56.65.5l-.45.5c-.18.09-.35.12-.52 0-.19-.43.1-.7.31-1z" fill="#e5535f"/><path d="M41.29 128.76c.19-.58-.16-1.07-.23-1.6.08-.1.16-.1.25-.02.16.54.61 1.09-.02 1.62z" fill="#f0a0a6"/><path d="M58 143.4c.11-.24.28-.42.57-.46.16.69-.34.87-.8 1.1l.01-.11.22-.53z" fill="#ea7680"/><path d="M52.42 145.23l-.19.02c-.13-.08-.14-.18-.02-.28.26-.35.5-.72 1.04-.87-.12.57-.66.7-.83 1.13z" fill="#f2acb1"/><path d="M82.07 136.4a.7.7 0 01-.62.47c-.02-.18.04-.4-.23-.46-.09-.37.11-.47.42-.47l.43.46z" fill="#e02a39"/><path d="M81.64 135.94l-.42.47-.22.3-.23-.29.02-.5.87-.12-.01.14z" fill="#ec8790"/><path d="M42.74 130.88c-.2-.1-.26-.28-.27-.48.17-.27.44-.23.7-.24.19.43-.18.54-.43.72z" fill="#e02938"/><path d="M77.1 135.74c.14-.3.31-.55.68-.56.04.12.42.03.2.31-.28.14-.55.28-.88.25z" fill="#fbedee"/><path d="M49.7 128.7c.06-.14.12-.27.2-.4.2-.14.43-.27.93-.57-.4.64-.61.98-1.14.97z" fill="#ee939a"/><path d="M66.6 137.58l.48.03c-.28.35-.55.7-.95.91l.23-.93c.08-.1.16-.1.24 0z" fill="#f3b7bc"/><path d="M39.52 127.33c.4.33.53-.19.8-.27.15.11.18.24.08.4-.2.26-.39.52-.72.6l-.2-.2c-.12-.09-.13-.18-.03-.29l.07-.24z" fill="#f0a0a6"/><path d="M77.7 141.05l-.2-.25.26-.2c.17.21.37.32.64.16-.03.26-.18.42-.39.55-.17 0-.23-.15-.3-.26z" fill="#f9dee0"/><path d="M41.77 131.55l-.7.7c-.27-.04-.21-.26-.24-.44.24-.37.62-.21.94-.26z" fill="#db0517"/><path d="M73.78 135.49c.31-.3.43-.8.94-.92-.15.47-.33.91-.94.92z" fill="#f3b3b8"/><path d="M73.23 140.28c-.16-.33-.25-.45-.23-.48.09-.1.21-.18.32-.27.05.08.16.16.15.22-.03.14-.12.27-.24.53z" fill="#dd1b2b"/><path d="M53.36 128.76c.06-.17.37-.35 0-.52.3-.36.57.1.86.04-.1.28-.35.37-.58.5-.1.08-.19.07-.28-.02z" fill="#f6cfd2"/><path d="M74.41 141.95c-.09.4-.28.55-.68.42.1-.37.34-.44.68-.42z" fill="#fae8e9"/><path d="M57.32 141.07c.22.78-.34.63-.77.65a.37.37 0 01.04-.3c.19-.23.33-.55.73-.35z" fill="#f7cdd0"/><path d="M57.32 141.07l-.7.45a.31.31 0 01-.2-.2l.15-.45.28-.04a.36.36 0 01.26-.13c.11.02.2.08.25.17.01.07 0 .14-.04.2z" fill="#e44c59"/><path d="M54.97 120.68l.47-.05c-.1.35-.37.53-.87.76l.4-.71z" fill="#ee939a"/><path d="M70.57 141.3l-.23-.05c.02-.4.34-.53.64-.67.02.33-.09.59-.41.71z" fill="#f1a5ab"/><path d="M57.08 126.9c-.23.27-.56.41-.83.21-.12-.09.16-.35.38-.42l.45.22z" fill="#e86570"/><path d="M40.4 127.46l-.08-.4c.01-.19.04-.36.28-.39l.71.47-.25.01-.66.31z" fill="#f3bbc0"/><path d="M39.45 127.57l.03.29c-.16.1-.36.45-.5.19-.23-.42.3-.32.47-.48z" fill="#de1d2d"/><path d="M59.45 152.03l-.28-.39.46-.36.26.24-.44.51z" fill="#ef969d"/><path d="M76.58 136.17a.3.3 0 00.22 0c.04.2.42.25.25.54-.03.05-.14.1-.2.08-.38-.07-.23-.38-.27-.62z" fill="#fbedee"/><path d="M52.2 144.97l.03.28-.69.67c-.15-.45.31-.6.45-.9.07-.03.14-.04.22-.05z" fill="#ea7983"/><path d="M74.7 134.56c.15-.48.46-.7.97-.64-.25.32-.48.67-.96.64z" fill="#ef979e"/><path d="M52.64 126.3c.09.37-.2.4-.36.6-.24-.49.22-.43.36-.6z" fill="#faeff0"/><path d="M76.76 134.79l.51.01c-.15.3-.39.52-.67.7-.07-.27-.14-.53.16-.71z" fill="#e5525d"/><path d="M56.42 141.32l.2.2a.28.28 0 00-.07.2l-.42.23c-.29-.39.14-.44.29-.63z" fill="#da0012"/><path d="M40.14 126.47c.01.34-.13.57-.48.66l-.2-.2c.13-.3.42-.35.68-.46z" fill="#ec8189"/><path d="M40.6 126.67l.01-.22.43-.25.54.06c-.3.22-.6.41-.98.41z" fill="#f3bbc0"/><path d="M74.19 133.25c-.2-.3.1-.28.23-.34.12-.05.27.01.2.15-.06.14-.17.35-.42.23l-.01-.04z" fill="#fbf2f2"/><path d="M59.86 150.1c.15-.33.42-.54.72-.72l-.05.5-.45.24c-.08 0-.15-.01-.22-.03z" fill="#ec818a"/><path d="M57.36 140.87l-.31-.04c-.07-.25.09-.38.25-.5.28-.14.5-.2.46.25l-.4.29z" fill="#da0012"/><path d="M49.18 131.77c-.14.29-.32.53-.7.45 0-.5.38-.43.7-.45z" fill="#ec868e"/><path d="M78 135.98c.04.4-.17.66-.5.84.07-.34.15-.67.5-.84z" fill="#fbedee"/><path d="M61.27 142.23v.46c-.2.03-.47.34-.55.1-.06-.24.26-.47.55-.56z" fill="#ef959c"/><path d="M52.9 142.67c-.07 0-.14.02-.2.03-.15-.34-.45-.13-.67-.19.36-.36.7-.61.87.16z" fill="#e86670"/><path d="M42.7 129.45l-.44.07c.12-.35.21-.72.67-.75l-.23.68z" fill="#f7d4d6"/><path d="M100.73 130.64c-.26.2-.51.44-.8.62-.17.1-.3.53-.6.21-.23-.25-.2-.54.07-.8.33-.3.64-.63.96-.95-.02-.48.5-.65.59-1.07.1-.2.24-.36.42-.49.25-.14.51-.22.8-.2.6.26.63.7.39 1.22-.08.14-.17.27-.28.39-.24.25-.5.5-.77.7-.23.2-.53.23-.78.37z" fill="#de1b2b"/><path d="M105.58 127.84c.05.05.08.12.08.2-.25.6-.97.75-1.28 1.3l-.55.55c-.58.39-.9 1.15-1.71 1.2l-.26-.2c-.13-.13-.16-.28-.13-.45.07-.27.26-.46.44-.66.23-.2.44-.42.65-.64l.32-.32c.33-.3.62-.65 1-.9.14-.07.28-.12.43-.16.24-.08.5-.16.76-.1.1.04.18.1.25.18z" fill="#de1e2e"/><path d="M101.43 128.23l-.28.58c-.43.34-.92.58-1.36.9l-.74.61c-.6-.16-.28-.53-.2-.85l2.32-2.08c.28-.2.59-.27.75.1.19.43-.23.55-.49.74z" fill="#df2534"/><path d="M103.74 127.62a3.22 3.22 0 013.25-2.11c.1.72-.46.92-.93 1.21-.4.13-.67.47-1.05.62l-.55.23c-.24.08-.47.2-.72.05z" fill="#e86671"/><path d="M97.3 139.25l-.28.21c-.24.18-.48-.23-.72 0-.43.27-.7 1.26-1.25.75-.54-.5.28-.94.65-1.32.24-.24.53-.43.8-.64.26-.19.5-.11.72.1.25.28 0 .6.07.9z" fill="#df2332"/><path d="M103.95 123.66c.04.45.29.25.55.21.7-.1.85.48 1 .97.03.1-.24.04-.36-.02-.49.3-.68 1.03-1.41.94-.46-.83.52-.78.7-1.36l-1.16.43c-.14-.08-.3-.14-.33-.33.15-.5.37-.93 1-.84z" fill="#faebec"/><path d="M108.07 120.85c-.74.78-1.43 1.62-2.43 2.1-.33-.4-.24-.76.1-1.1.56-.56 1.15-1.09 1.78-1.58.2-.16.4-.28.6-.1.23.22.22.48-.05.68z" fill="#df2a39"/><path d="M108.07 120.85c.05-.26.21-.83-.22-.55-.83.5-1.5 1.28-2.2 1.98-.12.11-.01.44-.01.66-.53-.41-.4-.9-.03-1.28.6-.6 1.26-1.12 1.9-1.66.34-.28.73-.16.94.1.3.38-.02.61-.38.75z" fill="#f8d8da"/><path d="M102.11 131.09l1.58-1.4c.1.08.15.17.18.28 0 .17-.06.33-.13.49.07.42-.27.6-.48.86-.13.32-.3.58-.68.6-.25 0-.36-.2-.48-.37l.02-.47z" fill="#de1d2d"/><path d="M90.73 128.09c-.2-.65-.48-.17-.73-.06-.3.12-.43.74-.9.28-.15-.82.86-.95.96-1.62.25-.61.76-.18 1.13-.3.23.41-.35.61-.25.99.02.26.1.54-.2.7z" fill="#e02d3b"/><path d="M90.94 127.38c-.63-.51.34-.61.25-.99.14-.66.74-.79 1.3-1.2.13 1.33-1.12 1.46-1.55 2.19z" fill="#ed8d95"/><path d="M103.72 125.76c.51-.26.75-.92 1.41-.94-.32 1.1-1.36 1.58-2.06 2.35-.42.04-.43-.17-.27-.47.31-.3.74-.5.92-.94z" fill="#db0b1c"/><path d="M101.64 133.22c-.12.67-.7.96-1.15 1.36-.26.13-.44.42-.78.36a.38.38 0 01-.24-.17c.46-.66.97-1.25 1.68-1.63.19-.1.35-.09.5.08z" fill="#e02f3e"/><path d="M103.75 130.46l-.03-.53c.14-.24.36-.43.46-.7.28-.67.92-.88 1.48-1.2.48.38.03.6-.17.8-.57.56-1.16 1.09-1.74 1.63z" fill="#de1e2d"/><path d="M103.15 124.59l.12.24c-.53.94-1.75.03-2.38.84.42-.58.8-1.18 1.49-1.48.25.15.57.16.77.4z" fill="#f3b8bd"/><path d="M102.8 126.7c.02.2.07.38.27.47-.29.43-.9.84-.06 1.33.16.13.2.32.24.51l-.13.22c-.28.15-.56.24-.8-.07.09-.39.4-.8-.17-1.08-.36-.46-.16-.82.2-1.16l.45-.22z" fill="#df2333"/><path d="M103.25 129.01c-.42-.01-.32-.27-.24-.51l.73-.88.7-.26c.2.32.07.52-.23.67-.22.43-.55.74-.96.98z" fill="#dd1627"/><path d="M84.96 129.47l-.34-.04c.26-.74.87-1.18 1.45-1.65.22.25.16.51.03.78-.33.37-.59.83-1.14.91z" fill="#dc1122"/><path d="M103.15 124.59c-.43.19-.87.4-.77-.4.39-.3.76-.63 1.18-.9.44-.27.39.1.39.37l-.8.93z" fill="#e65964"/><path d="M99.47 134.76l.3.04c.15.21.03.38-.08.56-.22.28-.48.52-.72.78-.34.17-.52.68-1.03.47.12-.94.82-1.4 1.53-1.85z" fill="#de2030"/><path d="M90.06 126.69c.34.92-.8.98-.96 1.62l-.21.01c-.22.06-.29-.02-.25-.23a5.5 5.5 0 011.42-1.4z" fill="#e7626d"/><path d="M96.54 138.07c.21-.63 1.17-.47 1.28-1.2.28.02.43.19.5.44a.87.87 0 01-.26.8 1.1 1.1 0 01-.61.28l-.91-.32z" fill="#fbeced"/><path d="M85.45 132.74l1.33-.72c.09.04.14.11.15.2-.11.45-.44.73-.8.96-.46.2-.74.14-.68-.44z" fill="#ec8089"/><path d="M102.34 126.92c-.08.38-.33.74-.2 1.16-.19.25-.46.14-.7.15-.06-.35.6-.4.35-.8-.13-.2-.4-.06-.62-.04.24-.55.7-.5 1.17-.47z" fill="#f7d2d5"/><path d="M105.82 126.51a2.2 2.2 0 001.17-1 .25.25 0 01.18-.06c.16.05.26.15.3.32a.74.74 0 01-.43.67c-.43.05-.64.85-1.23.36a.24.24 0 01.01-.29z" fill="#f8d9db"/><path d="M105.8 126.62c.49.43.8-.32 1.24-.17l-1.46 1.39h-.24c-.36-.6.24-.84.47-1.22z" fill="#ee939b"/><path d="M85.45 132.74c.1.32.4.36.68.44-.2.28-.42.54-.74.69-.4-.4-.77-.8.06-1.13z" fill="#df2332"/><path d="M99.8 129.7c.4-.34.55-1.12 1.35-.89-.08.47-.45.68-.8.9h-.56z" fill="#f7d4d7"/><path d="M107.47 125.77l-.3-.32c.33-.34.46-1.1 1.2-.61.1.43-.35.58-.47.9-.14.02-.29.02-.43.03z" fill="#fae3e4"/><path d="M86.1 128.56l-.03-.78.93-.9.05.33-.95 1.35z" fill="#df2332"/><path d="M101.64 133.22l-.49-.08c.05-.38.24-.62.64-.67.16-.08.33-.14.5-.15.13.02.23.08.31.18-.3.26-.52.64-.96.72z" fill="#f4c0c4"/><path d="M82.78 136.45c-.06-.1-.13-.18-.2-.27.18-.3.43-.53.74-.68.18.01.45 0 .37.26-.13.41-.45.66-.91.69z" fill="#ef9ea4"/><path d="M98.18 137.4l-.35-.53.11-.26.91-.64c.24.34.02.52-.23.69l.01.3c0 .3-.16.44-.45.44z" fill="#f7d3d6"/><path d="M102.6 132.5l-.32-.04c-.15-.33.01-.52.28-.67l.7-.47.24.24-.9.94z" fill="#f5c6ca"/><path d="M98.18 127.94c-.07.52-.53.69-1.02 1.16.04-.87.51-1.2.97-1.54.13.11.15.24.05.38z" fill="#dd1929"/><path d="M101.9 130.41c0 .16-.02.32-.04.47l-.24.5c-.91-.15-.66-.6-.29-1.09.22-.06.42-.05.58.13z" fill="#f4c1c5"/><path d="M101.4 130.4c-.3.4-.43.78.22.97-.93.53-.5-.6-.89-.73l.64-.6c.1.1.12.23.03.35z" fill="#fbf5f5"/><path d="M100.73 126.54c-.05.58-.4.85-.9 1l.9-1z" fill="#f2acb1"/><path d="M98.86 129.47c.02.3-.12.62.19.85-.12.36-.46.45-.9.71l.7-1.56z" fill="#f6cdd0"/><path d="M88.45 128.77c-.24.27-.45.62-.75.77-.48.25-.3-.1-.22-.33.05-.23.22-.36.42-.45.2-.13.38-.15.55.01z" fill="#e65a65"/><path d="M111.64 125.58c-.14.45-.42.76-1 1 .22-.58.62-.77 1-1z" fill="#ef9aa0"/><path d="M95.6 130.13c.17-.6.5-.75.78-.94-.01.41-.3.62-.77.94z" fill="#fae9ea"/><path d="M85.88 129.96c-.3.41-.58.87-1.19.88l.02.01.42-.67.75-.22z" fill="#f0a1a7"/><path d="M88.45 128.77l-.55-.01c.19-.3.4-.55.74-.67l.25.23c-.04.25-.14.45-.44.45z" fill="#e23c49"/><path d="M93.5 143.16l-.91.96-.03-.31c.24-.33.44-.71.95-.65z" fill="#e44754"/><path d="M91.9 140.9c-.31-.16-.55-.38-.58-.77.64-.08.88.15.58.78z" fill="#f4babf"/><path d="M107.9 125.75c-.06-.42.32-.6.48-.91.16 0 .45-.03.25.25-.18.26-.48.44-.73.66z" fill="#ef9aa1"/><path d="M98.18 127.94l-.05-.38c.03-.35.39-.51.5-.32.16.27-.17.54-.45.7z" fill="#da0213"/><path d="M102.56 131.8l-.28.66-.5.01c.19-.28.34-.57.32-.92l.46.24z" fill="#ee9199"/><path d="M83.7 135c.26-.32.62-.39 1-.43-.2.46-.56.51-1 .43z" fill="#f6d1d4"/><path d="M77.7 141.05l.31.26c-.19.24-.38.47-.74.43l.44-.7z" fill="#eb7b83"/><path d="M86.93 132.23l-.14-.2.45-.49c.04.3 0 .55-.3.69z" fill="#ee939b"/><path d="M96.54 138.07l.87.17c.13.22.04.3-.19.27l-.73-.26.05-.18z" fill="#e8646e"/><path d="M94.28 137.84c-.1.09-.2.22-.34.25-.14.04-.16-.13-.1-.2.09-.1.23-.17.35-.25l.1.2z" fill="#f7d0d3"/><path d="M96.3 139.46c.25-.63.48-.22.72 0l.09.22-.58-.01-.23-.21z" fill="#e8646e"/><path d="M150.36 123.2l5.1-20.43c2.1-8.45 4.18-16.9 6.25-25.35.12-.48.34-.63.79-.62h13.68c.3 0 .6-.07.64.42.2 2.23.43 4.45.69 6.67.28 2.52.63 5.03.9 7.55.22 1.96.36 3.94.56 6.17l4.1-16.4c.3-1.2.7-2.38.9-3.6.1-.65.35-.82.95-.82 4.21.02 8.42 0 12.78 0-3.84 3.11-4.25 7.65-5.33 11.85-2.12 8.2-4.17 16.44-6.2 24.66a45.13 45.13 0 00-1.2 5.95 4.87 4.87 0 001.33 3.95h-1.22c-4.33 0-8.66-.06-12.99.04-1.21.03-1.46-.5-1.55-1.44-.3-3.17-.57-6.35-.94-9.51-.4-3.43-.85-6.84-1.18-10.27-.14-1.47-.38-2.93-.5-4.72-.87 3.46-1.7 6.63-2.48 9.8-1.26 5.12-2.48 10.24-3.73 15.36-.1.46-.3.76-.92.76-3.43-.04-6.87-.02-10.43-.02zM126.68 123.15H113c1.07-4.2 2.14-8.38 3.18-12.56 1.66-6.7 3.25-13.44 4.96-20.13.74-2.88 1.12-5.87 2.44-8.59 1.48-3.03 4.12-4.34 7.25-4.83 3.45-.54 6.92-.2 10.38-.23 6.33-.05 12.66-.01 19.17-.01-3.33 2.62-4.01 6.37-4.92 10.01l-6.15 24.56c-.65 2.58-1.43 5.13-1.7 7.78a5.04 5.04 0 001.26 3.98h-13.56l3.14-12.92H128c-.47 0-.75.09-.88.65-.63 2.73-1.48 5.43-1.79 8.21a4.86 4.86 0 001.34 4.08z" fill="#0f0f11"/><path d="M149.45 122.02a5.94 5.94 0 01-.42-4.48c2.72-11.2 5.49-22.4 8.32-33.58.48-1.89 1.17-3.77 2.9-5.49l-10.8 43.55zM74.25 123.15H60.6l3.14-12.94-10.36-.01c-.59 0-.8.16-.97.8-.66 2.66-1.43 5.29-1.77 8a4.94 4.94 0 001.28 4.12h-13.6l4.69-18.88c1.67-6.74 3.32-13.49 5.04-20.22 1.06-4.2 3.84-6.22 8-7 1.79-.33 3.59-.21 5.39-.21 7.65-.02 15.3-.01 22.96-.01h1.27c-3.04 2.34-3.85 5.67-4.68 8.95-2.24 8.87-4.45 17.75-6.67 26.63-.56 2.25-1.23 4.5-1.4 6.8-.11 1.32.1 2.72 1.33 3.97zM89.2 123.2h-13c-.42 0-.55 0-.4-.56 1.79-7.06 3.52-14.14 5.27-21.2l5.25-21.1c.22-.91.55-1.8.66-2.72.09-.68.36-.83.96-.83h35.08c-3.6 2.84-4.1 6.99-5.14 10.87-1.03 3.82-1.7 7.75-3.04 11.47-1.06 2.92-3.23 4.65-6.3 5.3-1.13.23-2.27.2-3.41.2-4.26.01-8.51.02-12.76 0-.67 0-1.03.04-1.23.92-.89 3.93-2.03 7.8-2.88 11.75-.47 2.17-.57 3.63.95 5.9z" fill="#0f0f11"/><path d="M74.8 121.75c-1.07-1.84-.64-3.7-.2-5.5 2.18-8.8 4.39-17.6 6.62-26.38.8-3.13 1.28-6.36 2.75-9.3.34-.7.96-1.14 1.17-1.89l.31.12-10.64 42.95z" fill="#0f0f11"/><path d="M70.55 134.13c-.11-.1-.22-.2-.33-.28-.19-1.31 1.04-1.73 1.61-2.56.49-.25.01-.8.34-1.09l.2-.28a.6.6 0 01.27-.16c.23-.02.42.04.53.26.02.1.02.21 0 .32-.02.9-.8 1.45-1.05 2.25-.03.1-.08.2-.13.28-.17.3-.52.33-.75.54l-.7.72z" fill="#fcf0f1"/><path d="M72.57 129.9c-.07 0-.13 0-.2.02-.04-.84.97-.77 1.19-1.38.1-.22.17-.46.4-.6.28-.18.52-.43.85-.54l.14-.02c.37-.05.4-.79.95-.47.03.1.14.23.1.28-.51.75-.85 1.62-1.5 2.28-.26.15-.43-.13-.66-.1-.18.04-.32.15-.47.25-.26.13-.55.15-.8.28z" fill="#db0a1b"/><path d="M53.86 132.36l-.46.82c-.4.53-.87 1-1.42 1.38-.16.26-.18.76-.7.45a.54.54 0 01-.24-.46c.34-.35.93-.52.94-1.15v.01c.5-.2.9-.55 1.29-.93.14-.14.3-.55.59-.12z" fill="#e02a39"/><path d="M62.65 126.9l.01.5-2.04 1.9c.32-1.29 1.37-1.68 2.03-2.4z" fill="#f8dadc"/><path d="M59.17 138.55c-.35-.14-.5.97-.96.16-.02-.7.83-.76.98-1.34.28-.2.54-.28.7.16l-.55.8a.3.3 0 01-.17.22z" fill="#f7d3d6"/><path d="M64.76 130.2c-.33.75-1.08 1.08-1.61 1.64l-.04-.33c-.2-.18-.2-.4-.14-.63.07-.16.17-.29.3-.4.43-.24.73-.72 1.3-.67.16.08.29.18.2.38z" fill="#df2333"/><path d="M66.1 134.8c.07-.24.45-.47.02-.71.86.45 1.15-.67 1.85-.66.13.22 0 .4-.08.6-.41.32-.68.79-1.11 1.09l-.33.2c-.29-.06-.31-.29-.34-.52z" fill="#e8656f"/><path d="M63.35 130.63l-.16.22c-.39.26-.43 1.1-1.2.7-.26-.02-.48-.08-.23-.39l.9-1.02a.31.31 0 01.27-.05c.19.08.32.21.4.4l.02.14z" fill="#e13644"/><path d="M54.67 139.48c.88-.4 1.54-1.11 2.28-1.7-.52.9-1.17 1.62-2.28 1.7z" fill="#dd1727"/><path d="M61.03 137.36l-.24-.1c-.13-.02-.29-.02-.28-.22.3-.49.74-.82 1.23-1.08l-.01-.01.23.47c-.05.58-.37.88-.93.94z" fill="#e02f3e"/><path d="M74.03 128.06l-.47.48c-.2-.24-1.07-.46-.02-.73.24-.06.38-.23.48-.43.1-.18.2-.36.46-.24.2 0 .36.05.47.24-.33.2-.6.48-.92.68z" fill="#dc0d1e"/><path d="M67.52 132.25c-.29.5-.67.86-1.45 1.1.42-.77.94-1.14 1.38-1.58.24.13.2.3.07.48z" fill="#de1b2b"/><path d="M61.99 131.55c.57.05.73-.59 1.2-.7l-.08.66c-.28.17-.54.42-.85.5-.42.12-.53-.09-.27-.46z" fill="#eb7d85"/><path d="M53.36 128.76l.28.02c-.35.68-.73 1.31-1.67 1.13l.01-.22c.64-.05.88-.68 1.38-.93z" fill="#f7d2d4"/><path d="M63.62 128.48l.68-.16c.16.44-.11.74-.35 1.05-.24.22-.47.5-.87.35a.27.27 0 010-.3c.03-.3.58-.54.1-.9.13-.13.28-.1.44-.04z" fill="#f2b0b5"/><path d="M67.76 133.87l.21-.44.48-.52c.22.05.52.09.54.34.04.5-.55.3-.74.57-.14.2-.31.2-.5.05z" fill="#e13744"/><path d="M51.98 134.56c.28-.67.87-1 1.42-1.38a.36.36 0 01.21 0c-.47.55-.83 1.22-1.63 1.38z" fill="#f9dfe0"/><path d="M51.04 134.56c.17.1.23.26.23.46-.3.08-.33.85-.72.45-.43-.45.21-.66.49-.91z" fill="#e3414e"/><path d="M61.03 137.36c.3-.32.73-.51.93-.94.17.05.58-.05.24.33-.36.4-.76.76-1.15 1.14l-.02-.53z" fill="#fbedee"/><path d="M66.11 131.53l1.17-1.16c.5.02.26.3.19.54-.2.37-.7.46-.83.9-.1.05-.2.05-.28-.02l-.25-.26z" fill="#e96f79"/><path d="M53.91 139.92c.22.02.35.14.34.36-.02.22-.18.33-.36.38-.17.04-.29-.04-.3-.23 0-.25.04-.45.32-.51z" fill="#e02c3b"/><path d="M66.63 131.75c-.05-.5.33-.68.68-.88.2-.08.28.04.33.21 0 .26-.19.36-.4.45l-.41.25c-.09.1-.16.1-.2-.03z" fill="#f4c2c6"/><path d="M54.27 130.86c.68.14.77.44.24.91.5-.46-1.3-.3-.24-.91z" fill="#ec848d"/><path d="M60.51 137.04l.28.22-.9.27c-.18-.33-.45-.19-.7-.16.28-.72.93-.03 1.32-.33z" fill="#e34653"/><path d="M51.3 130.62l.57.01c-.31.33-.56.72-1.22.96l.64-.97z" fill="#e7616c"/><path d="M63.91 133.9c-.17.49-.43.72-.96.87.24-.47.47-.72.96-.87z" fill="#e13341"/><path d="M51.98 133.4l-.73.55c.12-.36.08-.94.73-.54z" fill="#de1e2e"/><path d="M74.48 127.14l-.46.24-.47-.24c.15-.27.4-.42.66-.54l.27.54z" fill="#df2736"/><path d="M58.95 130.62c.13-.15.2-.28.31-.34.15-.07.32-.02.27.18-.03.12-.16.23-.27.3-.04.03-.16-.07-.31-.14z" fill="#dc1324"/><path d="M63.62 128.48l-.44.05c-.15-.39-.31-.77.36-.77.02.24-.18.5.08.72z" fill="#f7cfd2"/><path d="M48.66 129l.28.4c-.03.26-.19.47-.42.44-.24-.02-.01-.23-.04-.36l.18-.47z" fill="#e23c49"/><path d="M63.57 126.68a.62.62 0 01.82-.18c.2.1.14.3-.06.42l-.76-.24z" fill="#e13442"/><path d="M67.52 132.25l-.07-.48.06-.22c.08-.09.17-.08.25 0h.46c-.13.34-.42.52-.7.7z" fill="#e75e69"/><path d="M63.08 129.41l.04.3c.14.26.16.45-.23.41h-.11l-.11.02c-.22-.45.2-.52.41-.73z" fill="#ec878f"/><path d="M61.73 135.96c-.01-.43.25-.63.69-.86-.05.56-.38.7-.7.85h.02z" fill="#e86570"/><path d="M67.76 131.55h-.25l-.26-.02.29-.42c.15-.28.31-.51.65-.2l-.43.64z" fill="#de1d2d"/><path d="M72.17 130.2c-.06.38.19.86-.34 1.09l.13-1.12c.07 0 .14 0 .21.03z" fill="#f7d4d7"/><path d="M57.3 140.32l-.25.51-.1-.01-.1.01c-.25-.5.12-.59.47-.68a1 1 0 00-.02.17z" fill="#ed929a"/><path d="M66.63 131.75l.2.03c-.13.21-.24.51-.56.34-.15-.08-.03-.24.09-.33l.27-.04z" fill="#e02b3a"/><path d="M20.08 100.93c-2.61 1.87-3.48 4.48-4.28 7.1-.32 1.03-.6 2.1-.69 3.17-.14 1.65.26 2.3 1.85 2.58 1.97.34 4.01.33 5.98.02 2.04-.32 3.04-1.85 3.52-3.78 2.7-10.87 5.42-21.74 8.1-32.62.17-.66.58-.6 1.04-.6h12.73a9.45 9.45 0 00-3.07 3.9c-1.18 2.51-1.64 5.25-2.32 7.92-2.09 8.22-4.17 16.44-6.18 24.67-.64 2.63-1.56 5.06-3.55 7a10.05 10.05 0 01-7.01 2.87c-6.18.13-12.37.15-18.56 0-4.01-.1-5.51-2.06-5.25-5.46.17-2.1.88-4.16 1.4-6.23.8-3.26 1.67-6.5 2.46-9.77.12-.5.22-.77.76-.77h13.07z" fill="#0f0f11"/><path d="M142.47 69.6H142l-.23-.7c.03-.25.22-.36.44-.43l.03-.04c.43-1.04 1.38-1.7 2.04-2.7-.7.05-1.06.84-1.75.66-.48-.12-.7.4-1.16.5.17-.74.9-1.06 1.09-1.7l.93-.93c.48-.13.71-.53.99-.89.36-.07.56-.84 1.08-.25.6.1.73-.56 1.18-.7.05-.03.1-.04.16-.03a3.36 3.36 0 001.47-.85c.29-.24.58-.6.92-.05-.7.79-1.4 1.6-2.12 2.36-.27.29-.45.61-.66.93-.14.21-.22.4 0 .57.33.26.23-.2.41-.25.55-.13.76-.88 1.44-.8.07.04.1.08.08.13-.01.05-.03.08-.05.08-.52.87-1.44 1.35-2.05 2.13-.27.06-.58-.1-.8.18-.45.31-.7.82-1.13 1.16h.02c-.9.23-1.48.82-1.87 1.63z" fill="#fdfbfb"/><path d="M144.31 67.99c.14-.68.38-1.27 1.17-1.4.14.02.22.1.24.24.18.27.46.25.73.27-.8.08-1.29.92-2.14.89z" fill="#e96f79"/><path d="M149.2 61.49c-.45-.27-.82.05-.97.32-.34.62-.83.66-1.42.57.43-.47 1.07-.65 1.48-1.2.44-.6.5-.55.9.3z" fill="#fae5e7"/><path d="M149.9 62.9c.48-.1.68-.72 1.26-.73-.35 1.1-.91 1.48-1.96 1.4-.14-.62.38-.55.7-.67z" fill="#f9dbdd"/><path d="M149.9 62.9c-.15.3-.64.26-.7.67l-.9.94a.28.28 0 01-.04-.2c.17-1.13.77-1.65 1.64-1.41z" fill="#e75f6a"/><path d="M145.93 68.42c.3-.41.85-.7.71-1.34.5.97.25 1.69-.7 2.05-.14-.23-.11-.47 0-.7z" fill="#ea727c"/><path d="M145.93 68.42c.14.24.17.47.02.71-.3.26-.52.6-.93.73l-.27-.31 1.18-1.13z" fill="#eb8089"/><path d="M152.1 61.37c.25-.52.55-.95 1.04-1.04l-1.03 1.04z" fill="#f6cccf"/><path d="M146.1 72.86l1.33-.98c-.37.77-.7 1.09-1.33.98z" fill="#dd1626"/><path d="M142.7 73.91v-.6c.12-.47.38-.77.92-.74.06.06.09.12.07.17-.02.06-.05.1-.07.1-.16.48-.47.84-.93 1.07z" fill="#ef989f"/><path d="M146.65 62.42c-.34.33-.47 1-1.18.7.41-.2.64-.7 1.18-.7z" fill="#e86671"/><path d="M144.32 71.23l.49.2c.12.46-.22.45-.5.5l-.14-.08c-.22-.27-.16-.48.16-.62z" fill="#e96a75"/><path d="M143.62 72.83a.7.7 0 00.01-.2c-.09-.55.17-.76.7-.69l-.02-.01c.14.58-.34.7-.69.9z" fill="#f2abb1"/><path d="M145.72 66.83l-.24-.24c.28-.37.52-.03.77.05-.12.22-.33.18-.53.2z" fill="#f7cfd2"/><path d="M148.67 56.4c-.12-.16.02-.2.12-.23.06-.1.14-.11.23-.05.04.1.03.18-.04.25l-.31.02z" fill="#db0b1c"/><path d="M148.98 56.37l-.05-.23c.06-.07.14-.1.23-.1s.16.03.2.11c-.02.24-.2.22-.38.22z" fill="#fae7e8"/><path d="M149.37 56.15h-.17c-.13-.1-.13-.17.02-.24.07.02.14.03.2 0l-.05.24z" fill="#fae7e8"/><path d="M64.76 130.2l-.24-.27c-.2-.23-.08-.46-.01-.69.07-.17.13-.34.12-.53a.3.3 0 01.14-.22c.44.28.91-.02 1.36.05.27.32 0 .5-.2.7l-1.17.95z" fill="#e3424f"/><path d="M65.94 129.25c.1-.23.33-.42.2-.71.8-.27 1.23-1.02 1.98-1.4a6.91 6.91 0 01-2.18 2.1z" fill="#f9e3e4"/><path d="M64.77 128.49l-.07.22c-.1.41-.29.71-.78.63l-.13-.1.5-.92c.2-.05.4-.1.48.17z" fill="#dd1525"/><path d="M68.19 130.9l-.65.21-.23-.25c.01-.16.23-.34-.03-.5.84-.72.5.54.9.54z" fill="#f3b5ba"/><path d="M69.3 128.8c-.17.38-.35.55-.78.63.16-.4.34-.56.77-.64z" fill="#f5c9cc"/><path d="M55.28 118.86c-.11-.43-.08-.84.23-1.2.01-.6.3-.95.91-1 .28.04.66-.17.78.23.09.3-.24.44-.42.61l-1.5 1.36z" fill="#f2afb4"/><path d="M56.42 116.66l-.91 1-.33-.29c.25-.52.45-1.12 1.24-.72z" fill="#f9dbdd"/><path d="M82.03 127.85c-.65.62-.89 1.67-1.97 1.83-.13-.28.05-.48.18-.69.17-.2.32-.43.52-.58.74-.52.13-.52-.23-.61-.27-.35-.04-.54.23-.7.19-.13.34-.37.62-.2.34-.19.67-.02 1 .02-.23.26-.6.48-.35.93z" fill="#f2b0b5"/><path d="M72.62 133.4c-.2-.2-.44-.09-.67-.07-.23-.2-.17-.4-.02-.62.56-.88 1.21-1.63 2.3-1.85l.28.66c.1.1.1.2 0 .29-.6.57-1.46.83-1.89 1.6z" fill="#f6c7cb"/><path d="M74.23 130.87c-.9.45-1.38 1.42-2.3 1.84-.02-.21-.15-.43.04-.63.5-.55.87-1.19 1.15-1.88.23-.08.46-.24.7-.03l.18.25c.15.1.37.02.48.2l-.25.25z" fill="#e02e3c"/><path d="M78.68 130.15c.06.42-.2.7-.5.93l-.71.65c-.33.35-.5.1-.66-.18-.1-.44.28-.64.46-.94l.93-.75c.16-.05.32-.08.45.08 0 .07 0 .14.03.2z" fill="#f3b5ba"/><path d="M77.04 130.17c-.45.29-.72.89-1.4.75-.1-.1-.1-.2 0-.31l1.77-1.43c.37.6-.34.64-.37.99z" fill="#f5c9cc"/><path d="M74.48 130.61l-.48-.19 1.47-.91c-.13.54-.67.72-.99 1.1z" fill="#f1a9ae"/><path d="M80.76 127.09l-.23.7c-.19 0-.54.14-.48-.15.05-.25.12-.84.7-.55z" fill="#ec878f"/><path d="M75.63 130.6l.02.33c-.32.38-.64.74-1.14.88v-.29l1.12-.91z" fill="#eb7e87"/><path d="M80.24 128.99l-.18.69c-.47-.08-.13-.45-.23-.66l.4-.03zM78.65 129.94l-.45-.08c.17-.27.25-.64.69-.62l-.24.7z" fill="#df2535"/><path d="M73.82 130.17c-.23.04-.45.33-.7.03l-.05-.07c.11-.2.2-.42.4-.57.16-.16.31-.33.31-.58.65-.43.36.5.71.49l-.67.7z" fill="#de1b2b"/><path d="M83.77 129.6l-1.38 1.05c-.33.07-.36-.16-.38-.4.13-.52.55-.81.94-1.13.24-.13.49-.27.78-.12.19.02.39.03.5.24-.13.15-.23.33-.46.35z" fill="#f5c6c9"/><path d="M83.77 129.6c-.02-.34.22-.35.46-.36l.24.24c-.4.67-1.18 1.03-1.41 1.82a.57.57 0 01-.25-.47c.27-.46.8-.7.96-1.24z" fill="#e96c76"/><path d="M83.77 128.1c.21-.41.54-.71.91-.96.5 1-.48 1-.92 1.38l-.1-.13c0-.11.03-.21.1-.3z" fill="#eb7b84"/><path d="M84.44 126.72l-.43.23c-.43-.6-.07-.7.46-.7 0 .16-.02.31-.03.47z" fill="#f8d8da"/><path d="M83.73 129l-.66.22a.3.3 0 01-.03-.28c.24-.15.33-.57.74-.4l-.02-.02-.03.48z" fill="#ef999f"/><path d="M144.33 71.94c-.35.12-.55.38-.7.69l-.93.69-.22-.17v-.16c0-.56.59-.84.7-1.36.06-.14.1-.29.22-.4.15-.31.37-.56.7-.7.14.22.47.37.22.7-.2.24-.08.48 0 .71z" fill="#dc1122"/><path d="M141.75 72.34l.93-.84-.02.09c.2.08.35.2.37.43-.08.33-.37.49-.56.73a.64.64 0 01-.76-.1.3.3 0 01.04-.3z" fill="#ec848c"/><path d="M142.25 72.63h.22c.13.15.14.29-.02.43l.03.09c-.43.21-.56.85-1.16.84-.17-.16-.2-.35-.15-.56.04-.1.1-.2.16-.27.25-.27.64-.32.92-.53z" fill="#f1aab0"/><path d="M141.75 72.34l.02.3c.15.42-.29.47-.46.69-.09.08-.17.07-.26-.01 0-.5.38-.71.7-.98z" fill="#ec838c"/><path d="M141.05 73.31l.27.02V74c-.27-.15-.61-.28-.27-.67z" fill="#ea747e"/><path d="M123.44 126.9v-.46l.7-.46.2.2-.68.72h-.22z" fill="#e65763"/><path d="M98.62 136.66l.23-.69.68-.73c.17-.09.35-.07.53-.08.23-.02.46 0 .66-.12l.9-.55c.94.29-.05.51-.02.77-.4.02-.65.28-.85.55-.55.73-1.27.96-2.13.85z" fill="#fae7e9"/><path d="M98.18 137.4l.45-.44c.26-.08.52-.14.78.04-.09.63-.83.75-1.03 1.29.07.22-.05.28-.23.28-.21-.13-.28-.32-.28-.55l.3-.62z" fill="#df2837"/><path d="M98.15 138.52l.23-.23.45.23c-.06.4-.34.58-.69.7l-.01-.42c-.08-.1-.07-.2.02-.28z" fill="#db0718"/><path d="M100.03 135.47l-.5-.23.24-.44c.27.01.36-.52.72-.22a.97.97 0 00-.05.18 1.2 1.2 0 01-.41.71z" fill="#eb7e87"/><path d="M100.03 135.47c-.04-.33.11-.57.41-.71l.29.28c-.13.32-.3.57-.7.43z" fill="#dd1b2b"/><path d="M61.78 149.62c-.07-.96.7-1.23 1.32-1.63.13.09.14.2.05.32v.19c-.17.61-.42 1.15-1.2 1.15a1.4 1.4 0 00-.17-.03z" fill="#ec868e"/><path d="M61.95 149.65l1.2-1.16.23.32-.28.58c-.31.34-.42 1.02-1.14.71-.21-.15.05-.3 0-.45z" fill="#f3b8bc"/><path d="M61.96 150.1c.5-.03.76-.48 1.14-.71l.02.26-.78.9-.38-.45z" fill="#de2131"/><path d="M61.5 151.07l-.45.44c-.26-.2-.03-.33.09-.45.12-.13.25-.18.37.01z" fill="#dd1626"/><path d="M63.15 148.3l-.05-.31c.06-.59.53-.83.94-1.13.06.59-.7.76-.67 1.33l-.22.12z" fill="#ed8e96"/><path d="M98.15 138.52l-.02.28c-.42-.12-.54.34-.84.45-.4-.21-.18-.48-.07-.74l.2-.27c.1-.2.28-.19.46-.22.2.1.25.29.27.5z" fill="#db0a1b"/><path d="M149.22 55.91l-.02.24h-.27c-.04 0-.1 0-.14.02 0-.06 0-.1.02-.16l.41-.1z" fill="#dc1021"/><path d="M142.22 68.47a.65.65 0 01-.44.44l-.47.17c.14-.44.25-.93.9-.61z" fill="#fbebec"/><path d="M141.52 70.52c.04.49-.2.72-.67.72.15-.31.23-.69.67-.72z" fill="#ec838c"/><path d="M142.54 66.4c.46-.34.94-.65 1.37-1.02.33-.27.67-.26.92 0 .32.33-.09.53-.28.72-.76.79-1.54 1.56-2.3 2.33-.12-.4.42-1.07-.48-1.14l.77-.9z" fill="#de1f2e"/><path d="M142.94 71.95l-.28-.37.74-.36v.47c-.13.13-.2.37-.46.26z" fill="#e7626d"/><path d="M82.81 130.83c.22.09.23.28.25.47-.45.34-.8.8-1.37.98-.12-.08-.13-.18-.01-.28.28-.48.71-.82 1.13-1.17z" fill="#f3b8bc"/><path d="M84.7 130.84c-.02.69-.6.89-1.05 1.2.15-.57.59-.9 1.06-1.19h-.02z" fill="#e86771"/><path d="M81.65 135.94a.17.17 0 01.01-.14c.06-.25-.06-.58.29-.67.08-.02.3.16.3.26.03.4-.32.45-.6.55z" fill="#e02a39"/><path d="M80.28 133.36l.73-.66c.1-.08.18-.07.24.04-.1.53-.58.68-.94.94-.14-.1-.15-.2-.03-.32z" fill="#ee9198"/><path d="M80.28 133.36l.03.32-.47.7-.04-.6.48-.42z" fill="#f4bec2"/><path d="M81.25 132.74l-.24-.04c.07-.37.39-.52.67-.7l.01.28-.44.46z" fill="#f9dfe1"/><path d="M67.76 133.87l.49-.05c-.33.61-.75 1.12-1.47 1.3.2-.52.54-.92.98-1.25z" fill="#e96d77"/><path d="M66.1 134.8c.25.08.25.33.36.51 0 .07-.03.14-.09.18l-.7.24a1.2 1.2 0 00-.24-.23c.14-.32.36-.56.68-.7z" fill="#f3b6bb"/><path d="M68.34 135.56c-.15.37-.32.6-.75.53.05-.47.36-.49.75-.53z" fill="#e65460"/><path d="M66.6 137.58l-.24.01-.26-.04c.33-.25.25-.84.77-.93l-.27.96z" fill="#ee939a"/><path d="M83.07 129v.22c-.2.4-.54.69-.9.95-.24.07-.48.25-.7-.03a3.7 3.7 0 011.56-1.43c.13.08.14.18.04.29z" fill="#f1acb1"/><path d="M81.47 130.14c.23.1.48-.25.7.03-.04.21-.05.41.22.49-.54.47-.54.47-.92-.52z" fill="#e7636e"/><path d="M83.07 129l-.04-.3c.23-.22.4-.52.74-.6v.43l-.7.47z" fill="#f7d1d4"/><path d="M76.8 131.55c.2.15.4.29.67.18-.05.41-.49.46-.67.74-.27.1-.42.45-.87.36.06-.61.73-.78.88-1.28z" fill="#e5515d"/><path d="M65.43 135.5l.24.23-.24-.23z" fill="#f6cdd0"/><path d="M56.84 143.83l.01.23c-.1.7-.67 1.05-1.18 1.43-.24-.08-.2-.3-.23-.48.42-.44.75-1 1.4-1.18z" fill="#ec8890"/><path d="M59.17 138.55l.17-.23c.2.19.54.26.52.63l-.45.28-.24-.28v-.4z" fill="#f2adb3"/><path d="M71.93 132.7l.02.63-.71.08c.13-.33.4-.53.69-.7z" fill="#f0a3a9"/><path d="M101.4 130.4l-.03-.36c.2-.27.4-.52.73-.63.2.12.23.31.22.52 0 .28-.22.37-.41.48l-.51-.02z" fill="#f9e0e2"/><path d="M102.32 129.93c-.28-.09-.17-.34-.22-.52l.22-.25.8.07c-.2.3-.42.6-.8.7z" fill="#e7606b"/><path d="M105.8 126.62c.1.5-.46.75-.46 1.21l-.69.2c-.26-.36 0-.57.24-.8l.93-.72-.01.11z" fill="#f5c6ca"/><path d="M104.89 127.24l-.24.8-.44-.01c.1-.21.35-.38.23-.67l.45-.12z" fill="#f4bcc0"/><path d="M104.18 129.23c.23.48-.27.5-.46.7 0-.08-.02-.16-.03-.23l.5-.47z" fill="#dc0f20"/><path d="M144.46 86.08l-3.4 14c-.14.57-.41.89-1.15.87-3.13-.06-6.25-.03-9.38-.02-.63 0-.91.06-.66-.86.98-3.52 1.76-7.09 2.62-10.64.49-2 2.2-3.35 4.27-3.35h7.7zM69.75 86.08c-1.15 4.73-2.27 9.38-3.42 14.01-.12.48-.26.9-1.03.87-3.17-.08-6.33-.04-9.5-.03-.68 0-.87 0-.63-.87.96-3.53 1.75-7.1 2.61-10.65a4.34 4.34 0 014.28-3.33h7.7zM108.8 86.3c-1.81 1.33-2.57 3.2-3.05 5.36-.5 2.29-2.05 3.78-4.8 3.7-1.28-.03-2.56.01-3.83 0-2.02-.03-3-1.07-2.65-3.04a14.3 14.3 0 011.18-4.06 3.72 3.72 0 013.23-2.14c3.24-.12 6.5-.04 9.74-.03.05 0 .09.1.17.2z" fill="#fefefe"/><path d="M73.55 129.7l-.48.43-.5-.23c.19-.26.46-.36.75-.45.22-.05.3.03.23.24z" fill="#f7d4d7"/><path d="M74.03 128.06c.2-.36.46-.66.92-.68-.21.36-.45.67-.92.68z" fill="#e02f3d"/><path d="M73.55 129.7l-.23-.25.46-.47c.48.42.03.54-.23.71z" fill="#e75c68"/><path d="M64.74 129.23c.05.28-.1.49-.22.7-.41.2-.65.69-1.17.7l.05-.03c-.2-.36 0-.62.23-.86.37-.18.64-.57 1.11-.5z" fill="#fbeff0"/><path d="M63.8 129.88c-.3.15-.26.49-.4.72-.3-.03-.42-.23-.5-.48l.22-.4.67-.48.04-.03c.17.23.16.46-.02.67z" fill="#e44d59"/><path d="M63.8 129.88c.02-.22.02-.44.03-.67.4.03.58-.32.87-.5.27.15.11.34.04.52l-.93.65z" fill="#e65763"/><path d="M142.94 71.95l.46-.26c.1.74-.61.93-.95 1.37l.02-.43.47-.68z" fill="#ef9ca3"/><path d="M141.31 73.33l.46-.7h.48c-.22.35-.5.64-.94.7z" fill="#ea747e"/><path d="M131.19 99.77c.85-3.54 1.64-6.92 2.5-10.29.35-1.37 1.56-2.22 3.04-2.24 1.82-.02 3.64.01 5.45 0 .65-.01.81.02.6.82-.96 3.57-1.78 7.18-2.64 10.78-.15.65-.41.97-1.2.95-2.58-.06-5.17-.02-7.75-.02zM56.48 99.77c.83-3.45 1.63-6.87 2.49-10.26a2.99 2.99 0 012.91-2.26c1.9-.04 3.79 0 5.68-.02.53 0 .74.05.57.71-.94 3.61-1.8 7.25-2.7 10.87-.15.61-.35 1-1.17.98-2.58-.07-5.17-.02-7.78-.02zM106.23 87.24c-1.08 1.57-1.34 3.16-1.82 4.68a3.07 3.07 0 01-2.9 2.27 71.1 71.1 0 01-4.4 0c-1.3-.04-1.69-.4-1.49-1.55.21-1.2.54-2.4.92-3.56.4-1.21 1.43-1.78 2.62-1.82 2.27-.08 4.54-.02 7.07-.02z" fill="#0f0f11"/><path d="M137.82 98.55l-4.5.06c-.5.01-.68-.08-.53-.65.7-2.7 1.35-5.42 2.03-8.13.28-1.1 1.11-1.43 2.14-1.43h4.5c-.76 2.97-1.35 5.93-2.28 8.8-.16.38-.4.71-.68 1.01-.2.17-.45.24-.68.34z" fill="#fefefe"/><path d="M137.82 98.55l.45-.4c.24-.12.42-.4.75-.23.06 1.07-.7.62-1.2.63z" fill="#fbeced"/><path d="M139.02 97.92l-.75.23c.23-.4.54-.7.9-.95 0 .25.2.55-.15.72z" fill="#f09ea4"/><path d="M61.15 98.6h-1.74c-1.51 0-1.5 0-1.12-1.48.6-2.31 1.28-4.6 1.77-6.95.27-1.28 1-1.72 2.14-1.76 1.27-.04 2.55.04 3.82-.03.75-.04.69.33.57.8-.72 2.9-1.47 5.8-2.18 8.71-.13.52-.36.77-.94.73-.77-.05-1.54-.01-2.32-.01z" fill="#da0012"/><path d="M99.58 88.44h4.55l-.71 2.9c-.29 1.18-1.11 1.66-2.25 1.7-1.04.02-2.09 0-3.13 0-1.56 0-1.56 0-.78-1.4.15-.54.73-.88.67-1.5.27-.85.88-1.35 1.65-1.7z" fill="#da0113"/><path d="M99.58 88.44l-1.46 1.77c-.03.1-.1.15-.2.17-.24.01-.34-.16-.44-.33.14-1.28.98-1.63 2.1-1.61z" fill="#f8d7da"/><path d="M97.94 90.27c.06-.03.12-.05.19-.06.31.84-.49 1-.87 1.43v-.71c.15-.3.36-.53.67-.66z" fill="#dd1828"/><path d="M97.94 90.27c-.13.32-.4.5-.68.66-.15-.35.26-.56.22-.88l.45.22z" fill="#ed8d95"/></svg>