<svg xmlns="http://www.w3.org/2000/svg" viewBox="0 0 200 200"><path d="M94.3 199.99c-8.23-5.74-16.47-11.44-24.66-17.23-6.02-4.25-12.02-8.53-18.1-12.7-1.84-1.27-3.62-2.64-5.5-3.84-.5-.31-.86-.82-.91-1.41-.3-3.66-1.56-7.1-2.29-10.66-.61-3-1.4-5.96-2.06-8.95-.2-.87-.66-1.16-1.3-.54-1.65 1.55-3.54 2.8-5.32 4.17-2.68 2.06-5.47 3.99-8.13 6.07-1.83 1.44-3.79 2.68-5.7 4-.47.32-.77.75-.78 1.45-.06 3.54-1.9 4.98-5.5 5.29-1.57.14-2.94.38-4.37-.39-2.64-1.43-4.3-3.5-4.53-6.58-.01-.1-.17-.17-.25-.26v-1.08c.9-1.47 1.12-3.2 2.03-4.7 1.23-2.02 3.42-2.42 5.3-1.93.7.18 1.08 0 1.52-.45 2.91-2.98 5.99-5.79 9.08-8.59 1.9-1.72 3.95-3.28 5.76-5.13 1.22-1.23 2.66-2.25 3.98-3.39 1.33-1.15 2.62-2.34 3.96-3.49.6-.51.2-1.1.09-1.55-1.94-7.9-3.85-15.8-5.66-23.72-.88-3.88-1.97-7.7-2.9-11.57-1.76-7.4-3.46-14.82-5.23-22.22-1.48-6.16-3.02-12.31-4.5-18.47-1.5-6.2-2.98-12.42-4.46-18.63-.1-.42-.11-.9-.32-1.26-.56-.98-.06-1.68.61-2.2 3.8-2.95 7.63-5.84 11.45-8.76l11.36-8.65 13.17-9.95c1.15-.87 2.27-1.79 3.4-2.68h82.33c.98.27 1.76.88 2.55 1.49 8.98 6.93 18.04 13.76 27.02 20.7 1 .77 1.65.84 2.67 0 3.27-2.71 6.64-5.3 9.92-8a17.43 17.43 0 015.99-3.32c2.67-.83 5.26-1.92 7.93-2.77 1.53-.5 2.53-.01 3.16 1.41v1.09c-2.26 3.1-4.1 6.47-6.02 9.77-.93 1.6-2.35 2.54-3.59 3.7-1.96 1.84-4.13 3.48-6.21 5.2-.96.79-1.9 1.59-2.89 2.34-.87.67-.87 1.73-1.08 2.61-1.9 7.86-3.77 15.72-5.7 23.58-1.65 6.79-3.26 13.6-4.9 20.39l-4.89 20.4-4.6 19.25-4.9 20.4c-1.53 6.41-3.1 12.82-4.57 19.25-.56 2.43-1.52 4.79-1.5 7.35.01.57-.4 1.07-.9 1.41-3.16 2.2-6.36 4.36-9.52 6.57-6.72 4.7-13.42 9.43-20.13 14.15l-17.53 12.37c-.34.24-.84.24-1.07.66h-.81z"/><path d="M174.74 31.28c-1.86 6.66-3.31 13.42-4.91 20.15-1 4.16-2 8.33-3.02 12.49-2.23 9.19-4.48 18.37-6.7 27.57-1.54 6.37-3.03 12.76-4.56 19.14-2.19 9.1-4.4 18.21-6.58 27.32-1.53 6.38-3.12 12.74-4.52 19.15-.54 2.5-1.58 4.9-1.57 7.51 0 .4-.34.47-.6.65-4 2.78-8 5.58-11.98 8.38-8.5 5.95-17 11.9-25.48 17.87a1183.7 1183.7 0 00-9.3 6.6c-.55.39-.98.46-1.56.05l-20.63-14.5-26.25-18.42c-.22-.16-.52-.25-.55-.54-.45-4.21-1.8-8.22-2.76-12.32-.81-3.52-1.65-7.03-2.48-10.55-.38-.23-.52-.62-.61-1.02-.75-3.3-1.64-6.58-2.35-9.9-.08-.36-.05-.71-.02-1.07-.64-2.88-1.24-5.76-1.92-8.62-2.42-10.16-4.87-20.31-7.31-30.46-1.48-6.16-2.99-12.32-4.48-18.48-2.21-9.15-4.43-18.3-6.63-27.46-1.02-4.25-2.01-8.51-3.06-12.76-.12-.49-.2-.74.29-1.1 5.43-4.1 10.86-8.2 16.26-12.33 7.1-5.44 14.2-10.9 21.28-16.37a4.14 4.14 0 012.7-.93c26.04.02 52.07.04 78.11-.03 1.67 0 2.8.7 3.97 1.59 4.96 3.76 9.9 7.54 14.84 11.32l13.1 10.06c.45.35.93.69 1.4 1.03.09.03.2.01.26.05a47.89 47.89 0 017.62 5.93z" fill="#903035"/><path d="M38.31 129.84c.92 2.79 1.43 5.69 2.18 8.53.3 1.14.53 2.3.8 3.46-1.17.41-1.9 1.45-2.95 2.05-1.69.95-3.13 2.3-4.64 3.48-1.34 1.05-2.71 2.17-4.09 3.15-.92.66-1.7 1.6-2.9 2.06-.58.22-1.36.96-1.96 1.54-1.33 1.29-1.27 1.33-2.37-.08-1.3-1.68-2.6-3.36-3.92-5.02-.46-.59-.72-1.16.07-1.65.58-.35.93-1.03 1.4-1.32 1.57-.95 2.78-2.32 4.1-3.5.73-.64 1.7-1.1 2.3-2.06.54-.87 1.63-1.39 2.37-2.16.77-.8 1.85-1.23 2.49-2.21.4-.63 1.18-.93 1.75-1.47 1.73-1.67 3.57-3.21 5.37-4.8zM174.74 31.28l-6.87-5.15c-.35-.26-.67-.55-1-.83 4.02-3.2 8.2-6.22 12.02-9.66 2.53-2.28 5.63-2.99 8.56-4.21 1.46-.6 3-1.02 4.46-1.6.59-.22 1.1-.08 1.63.06.37.1.17.26.06.43-2.14 3.39-4.08 6.9-6.28 10.24-1.01 1.54-2.8 2.58-4.27 3.82-2.04 1.71-4.1 3.4-6.16 5.1l-2.15 1.8zM11 151.9c.22.03.61-.04 1.02.13.64.28 1.44.31 1.89-.19 1.06-1.2 1.52-.4 2.12.43a92.77 92.77 0 003.46 4.53c.41.5.36.75-.07 1.09-.97.75-1.25 1.72-1.24 2.94.03 2.15-1.76 3.51-4 3.32-.97-.08-1.79.67-2.93.3-2.25-.72-4.45-3.14-4.74-5.47-.3-2.33.85-4.17 1.87-6.04.47-.88 1.46-1.1 2.62-1.03zM20.4 157.33c-.24-.28-.49-.55-.7-.83-1.35-1.8-2.68-3.6-4.06-5.38-.36-.47-.5-.58.11-1.05 1.77-1.33 1.75-1.42 3.15.22 1.15 1.34 2.23 2.74 3.31 4.14.46.58.67 1.16-.17 1.67-.55.33-1.04.77-1.63 1.23zM94.75 5.42c12.68 0 25.36.01 38.04-.02.92 0 1.65.25 2.34.78 4.57 3.5 9.16 6.98 13.72 10.49 6.9 5.3 13.79 10.63 20.72 15.9.63.47.31.9.23 1.25-.6 2.74-1.28 5.46-1.94 8.18-2.14 8.81-4.3 17.62-6.41 26.44-1.6 6.66-3.13 13.34-4.73 20-2.12 8.82-4.29 17.63-6.41 26.44-1.61 6.7-3.18 13.42-4.77 20.13-2.14 9-4.28 18-6.4 27-.23.99-1.12 1.27-1.76 1.73-6.67 4.7-13.4 9.31-20.07 14-7.27 5.1-14.5 10.24-21.73 15.38-.69.49-1.2.39-1.82-.06-5.9-4.18-11.79-8.36-17.7-12.51-8.36-5.87-16.73-11.7-25.1-17.57-.32-.22-.58-.49-.7-.94-1.48-6.32-3-12.63-4.52-18.94l-6.55-27.24c-1.54-6.44-3.1-12.88-4.63-19.33-1.6-6.7-3.16-13.42-4.77-20.12-2.2-9.17-4.45-18.32-6.66-27.49-1.2-4.97-2.36-9.95-3.52-14.92-.15-.62-.21-1.1.53-1.65 4.63-3.41 9.19-6.94 13.75-10.45 6.8-5.22 13.58-10.46 20.36-15.7a3.6 3.6 0 012.33-.8c12.73.03 25.45.02 38.17.02z" fill="#b9b9ba"/><path d="M10.02 153.48c-.4.51.3 1.96-1.45 1.34 1.19.16.57-1.25 1.47-1.31l-.02-.03zM15.23 162.22c.13-.16-.54-.58.08-.47.41.07.77.26 1.27-.06-.22 1.23-.92.44-1.38.5l.03.03zM17.07 158.58v2.07l-.12.01v-2.04l.12-.04zM13.86 162.5c-.55-.22-.7.66-1.25.46.9-1.17.9-1.17 1.22-.44l.03-.03z"/><path d="M10.04 153.5c.73-.36 1.45-.5 2.16.06l.02-.03-2.2-.05.02.03zM17.33 158l.42-1.38c.44.52.44.52-.42 1.38zM13.83 162.52c.5.09 1 .08 1.4-.3l-.03-.03c-.22 1.1-.67 1.21-1.34.3l-.03.03zM8.78 155.73c.56.35.55.65.16.93-.09.06-.24.04-.36.06l.2-.99zM7.75 159.05a2.86 2.86 0 010-1.72c.22.67.15 1.2 0 1.72zM13.9 153.56c.29-.41.63-.67 1.19-.54-.32.44-.74.54-1.2.51l.02.03z"/><path d="M13.88 153.53c-.55.4-1.1.42-1.66 0l-.02.02h1.7l-.02-.02z"/><path d="M94.73 9.5c12.1 0 24.19.06 36.28-.06 2.14-.02 3.2 1.39 4.58 2.4 5.62 4.17 11.18 8.43 16.75 12.68 4.05 3.1 8.04 6.24 12.1 9.3.8.61.86 1.2.65 2.06-2.04 8.3-4.07 16.59-6.07 24.89-1.63 6.74-3.22 13.5-4.83 20.24-2.1 8.74-4.25 17.46-6.3 26.21-1.58 6.8-3.2 13.6-4.88 20.37-1.68 6.78-3.28 13.57-4.9 20.37-.9 3.76-1.8 7.52-2.63 11.3a2.36 2.36 0 01-1.1 1.54c-6.47 4.5-12.96 9-19.43 13.52-6.46 4.53-12.91 9.08-19.34 13.66-.72.5-1.16.45-1.85-.04-8.45-5.97-16.93-11.9-25.4-17.84l-13.6-9.5a1.7 1.7 0 01-.74-1.15c-2.03-8.61-4.12-17.21-6.19-25.81l-4.4-18.3c-2.14-8.81-4.3-17.62-6.43-26.44-1.63-6.74-3.22-13.5-4.83-20.24-2.1-8.74-4.25-17.46-6.28-26.21-.51-2.21-1.04-4.42-1.6-6.62-.23-.9-.04-1.47.72-2.04a904.9 904.9 0 0011-8.31l15.8-12.2c1.51-1.17 3.06-2.31 4.56-3.5.5-.4 1.03-.27 1.55-.27l36.81-.01z" fill="#903035"/><path d="M45.27 87.46c-.2-.83-.33-1.66-.6-2.44-.21-.63-.02-.94.49-1.3a9.46 9.46 0 0110.86-.43c2.75 1.64 5.14 3.8 7.97 5.33a8.87 8.87 0 008.94.04c2.57-1.35 4.78-3.2 7.16-4.82 3.95-2.7 7.83-2.76 11.77-.1 1.98 1.32 3.9 2.73 5.88 4.06 4.12 2.78 7.67 2.8 11.78.03 1.75-1.17 3.43-2.46 5.18-3.63 5.06-3.34 8.46-3.26 13.39.25 1.5 1.07 3.01 2.12 4.52 3.18 3.48 2.44 7.1 3.2 10.96.82.57 2.97-1.05 5.05-3.87 5.32-3.65.35-6.35-1.59-9.07-3.52-1.54-1.1-3.05-2.23-4.7-3.18a8.9 8.9 0 00-9.82.2c-2.1 1.32-4.04 2.86-6.12 4.2-5.09 3.27-8.41 3.13-13.36-.42a463.8 463.8 0 00-4.62-3.27c-3.9-2.73-7.84-2.75-11.77-.07-1.83 1.24-3.6 2.55-5.43 3.78-4.64 3.11-7.94 3.12-12.56.04-1.6-1.08-3.18-2.2-4.75-3.33-3.78-2.72-7.7-3.54-11.86-.83-.1.07-.25.06-.38.1zM50.7 100.53c3.1-.15 5.26 1.34 7.41 2.81 2.32 1.6 4.5 3.41 7.12 4.54 2.88 1.23 5.58.7 8.19-.75 2.77-1.55 5.12-3.74 7.92-5.3 3.51-1.95 6.8-1.7 10.13.35 2.7 1.66 5.1 3.78 7.93 5.27 3.45 1.83 6.6 1.22 9.72-.69 2.57-1.56 4.82-3.57 7.46-5.03 3.7-2.04 7.16-1.45 10.5.76 2.1 1.38 4.14 2.86 6.21 4.29a12.55 12.55 0 005.17 1.86c.64.11.5.31.41.7-.21.9-.36 1.82-.6 2.71-.25.88-.89.8-1.6.58-2.67-.8-4.83-2.49-7.05-4.08a27.28 27.28 0 00-5.06-3.1c-2.95-1.28-5.7-.76-8.42.8-2.72 1.55-5.04 3.68-7.8 5.2-3.53 1.95-6.82 1.7-10.14-.35-2.7-1.66-5.1-3.78-7.93-5.27-3.45-1.82-6.6-1.2-9.72.7-2.57 1.56-4.82 3.57-7.46 5.04-3.64 2.01-7.08 1.42-10.4-.68-2.58-1.63-4.83-3.76-7.6-5.07-1.55-.73-3.18-1.54-5.03-.96-.59.18-.7-.36-.8-.69-.2-.62-.27-1.3-.44-1.93-.43-1.65-.41-1.7 1.22-1.7h.66zM68.92 131.54c-3.43.02-5.7-1.5-7.96-3.08-2.03-1.4-3.92-3.03-6.2-4.05-.5-.23-.85-.59-.95-1.16-.07-.44-.22-.86-.26-1.3-.09-.8-.94-1.9-.31-2.26.64-.36 1.74.38 2.5.87 2.26 1.46 4.5 2.96 6.68 4.52 1.76 1.27 3.7 2.2 5.81 2.27a9.76 9.76 0 005.26-1.5c2.75-1.62 5.11-3.77 7.91-5.3 3.48-1.91 6.75-1.65 10.03.35 2.75 1.68 5.16 3.84 8.04 5.35 3.4 1.78 6.53 1.15 9.61-.7 2.57-1.55 4.83-3.56 7.46-5.04 3.68-2.07 7.13-1.46 10.5.68 2.46 1.57 4.66 3.51 7.25 4.89.41.22.6.52.44.98-.03.08-.13.14-.15.22-.14.65-.29 1.3-.4 1.95-.18 1.03-.74.75-1.3.37-.54-.37-1.04-.82-1.6-1.18-2.23-1.41-4.24-3.17-6.7-4.21-2.95-1.27-5.71-.78-8.42.77-2.73 1.56-5.04 3.7-7.8 5.22-3.53 1.95-6.82 1.7-10.14-.33-2.7-1.66-5.1-3.78-7.93-5.28-3.45-1.82-6.6-1.22-9.73.68-2.71 1.64-5.05 3.85-7.93 5.26-1.35.66-2.7 1.11-3.7 1zM58.28 141.08c1.93 1.09 3.62 2.53 5.54 3.62 3.31 1.88 6.48 1.71 9.72-.15 2.72-1.57 5.04-3.7 7.8-5.22 3.54-1.95 6.82-1.68 10.14.36 2.67 1.63 5.04 3.7 7.82 5.2 3.5 1.9 6.67 1.28 9.84-.64 2.57-1.56 4.82-3.57 7.46-5.03 3.65-2.02 7.07-1.4 10.4.69.9.56 1.72 1.25 2.63 1.78 1.06.62 1.5 1.32.86 2.54-.3.55-.28 1.27-.43 2.02-1.88-1.11-3.52-2.46-5.46-3.29-2.96-1.26-5.72-.78-8.43.77-2.73 1.56-5.05 3.7-7.8 5.22-3.52 1.95-6.82 1.72-10.15-.33-2.7-1.66-5.1-3.78-7.93-5.28-3.44-1.82-6.6-1.23-9.73.68-2.56 1.56-4.82 3.56-7.45 5.04-3.6 2.02-6.96 1.35-10.32-.54-2.5-1.4-4.3-3.24-4.36-6.3-.01-.35-.44-.6-.15-1.14zM133.27 67.02l-3.06-16.41-.22.04-1.95 10.44h3.58l-2.74 3.89c-.19.27-.47.22-.73.22h-5.31l7.25-34.73c.5 2.25.98 4.38 1.43 6.52l2.89 13.86c.74 3.49 1.5 6.97 2.25 10.46.16.76-.53 1.2-.83 1.75-.74 1.34-1.66 2.59-2.56 3.95zM71.13 30.41l1.7 8c1.03 4.92 2.04 9.84 3.08 14.76.58 2.71 1.2 5.41 1.78 8.12.16.73-.5 1.11-.79 1.63-.78 1.37-1.67 2.68-2.59 4.14L71.24 50.6l-.22.05-1.95 10.43h3.58l-2.72 3.88c-.15.21-.37.23-.6.23h-5.46l7.26-34.79zM103.7 32.05l-7.3 35.02-7.24-34.96c.35-.02.66-.07.97-.05 1.17.05 2.64-.48 3.42.2.65.58.57 2.05.73 3.13.52 3.45 1.17 6.88 1.9 10.29.08.38.05.8.26 1.22l1.39-7.1c.46-2.39.94-4.77 1.33-7.16.1-.61.39-.6.8-.59h3.73zM124.58 157.39c-2.63 2.42-5.81 3.81-8.89 5.41-2.62 1.37-4.76 3.47-7.37 4.91-3.52 1.96-6.8 1.68-10.13-.36-2.7-1.67-5.1-3.78-7.92-5.28-3.4-1.8-6.53-1.2-9.62.63-1.17.7-2.33 1.45-3.36 2.34-.64.54-1.15.48-1.65.07-.71-.6-1.67-.87-2.26-1.74 2.84-1.54 5.2-3.78 8.03-5.33 3.48-1.9 6.75-1.64 10.02.36 2.71 1.65 5.1 3.77 7.93 5.28 3.49 1.85 6.7 1.29 9.81-.73 2-1.3 3.96-2.65 5.9-4.03 2.93-2.07 6.04-2.87 9.51-1.53zM79.9 66.65v-28.5c0-1.75 0-1.75-1.82-1.75-2.53 0-2.44 0-2.57-2.52-.06-1.34.35-1.63 1.63-1.59 3.4.1 6.8.05 10.19.02.73 0 1 .14 1.01.95.05 3.09.09 3.13-3.02 3.11-.93 0-1.1.31-1.1 1.15.04 7.48.02 14.95.03 22.42 0 1.08-.03 2.02-.95 2.91-1.2 1.16-2.1 2.61-3.12 3.93l-.28-.13zM62.78 67.04l-7.05-8.74c-.87-1.07-1.78-2.1-2.62-3.2a2.2 2.2 0 01-.4-1.38c.02-6.88.03-13.76 0-20.64-.01-.85.23-1.04 1.05-1.05 3.31-.01 3.31-.04 3.31 3.26 0 5.39.05 10.77-.04 16.16a4.3 4.3 0 001.11 3l4.1 4.93c.32.38.54.8.54 1.32v6.34zM111.42 67.02c0-1.5.13-2.92-.04-4.3-.23-1.88.57-3.24 1.75-4.54 1.1-1.22 2.16-2.5 3.21-3.76.55-.66.81-1.4.8-2.3-.04-6.2 0-12.41-.04-18.61 0-.93.2-1.22 1.17-1.21 3.2.03 3.2 0 3.2 3.24 0 5.56-.08 11.13.05 16.7a6.31 6.31 0 01-1.56 4.59c-2.6 3.03-5.1 6.17-7.67 9.23-.25.3-.26.78-.87.96zM105.17 66.89c0-11.18 0-22.35-.02-33.52 0-.82.18-1.07 1.04-1.07 3.33-.01 3.33-.05 3.33 3.24 0 8.1-.02 16.2 0 24.3.01 1.33-.12 2.47-1.2 3.51-1.12 1.08-1.95 2.45-2.9 3.7l-.25-.16z" fill="#fefefe"/></svg>