<svg version="1.1" id="Layer_1" xmlns="http://www.w3.org/2000/svg" x="0" y="0" viewBox="0 0 200 200" xml:space="preserve"><style>.ltv_st0{fill:#903035}.ltv_st1{fill:#b9b9ba}.ltv_st3{fill:#fefefe}</style><path d="M94.3 200c-8.2-5.7-16.5-11.4-24.6-17.2-6-4.3-12-8.6-18.1-12.7l-5.5-3.9c-.5-.3-1-.8-1-1.4-.2-3.6-1.5-7.1-2.2-10.7-.6-3-1.4-6-2.1-8.9-.2-.9-.7-1.2-1.3-.5-1.7 1.5-3.5 2.8-5.3 4.1l-8.2 6c-1.8 1.5-3.7 2.8-5.7 4-.4.4-.7.8-.7 1.5-.1 3.6-2 5-5.5 5.3-1.6.2-3 .4-4.4-.4-2.6-1.4-4.3-3.5-4.5-6.5l-.3-.3v-1c.9-1.6 1.1-3.3 2-4.8 1.3-2 3.5-2.4 5.4-2 .6.3 1 0 1.5-.4 2.9-3 6-5.8 9-8.5 2-1.8 4-3.3 5.8-5.2 1.2-1.2 2.7-2.2 4-3.4l4-3.5c.5-.5.1-1 0-1.5-2-7.9-3.8-15.8-5.6-23.7l-3-11.6-5.2-22.2c-1.4-6.2-3-12.3-4.5-18.5L14 33.5c-.1-.4-.1-1-.3-1.3-.6-1-.1-1.7.6-2.2l11.4-8.7L37 12.6 50 2.6 53.5 0H136l13.5 10.4 16.9 12.8c.5.4.8.3 1 0l10.1-8c1.4-1.2 2.6-2.6 4.4-3.2 3.3-1.3 6.6-2.4 10-3.6 1.4-.5 2.4-.1 3.3 1v1.2c-2.2 3-4 6.4-6 9.7-1 1.6-2.4 2.6-3.6 3.7-2 1.9-4.1 3.5-6.2 5.2l-2.9 2.4c-.9.7-.9 1.7-1 2.6l-5.8 23.6-4.9 20.4-4.9 20.4-4.6 19.2-4.9 20.4-4.5 19.3c-.6 2.4-1.6 4.8-1.5 7.3 0 .6-.4 1-1 1.4l-9.4 6.6-20.2 14.1-17.5 12.4c-.3.2-.8.3-1 .7h-.9zm-79-49l-.5.1c-.9 1.1-2 1.1-3.3.8a3 3 0 00-3.4 1.5c-.8 1.2-.9 2.6-1.6 3.9l-.2.7c.4 2.4 1.3 4.5 3.6 5.8 1.1.7 2.2 1.1 3.5.6.2-.1.5-.3.8-.3 2.2.4 4-1.2 4-3.3 0-1.2.2-2.2 1.2-2.9.5-.3.6-.7 0-1.1 1.6.3 3-.4 3.2-1.8 1 .1 1.6 0 2.2-1a6 6 0 012-1.5c1.1-.5 2-1.4 3-2.1l4-3c1.4-1.2 2.8-2.5 4.5-3.4 1-.7 1.8-1.6 3-2.2l2.5 10.6c1 4 2.3 8.1 2.7 12.3 0 .3.4.4.6.6l26.2 18.4L94 198.2c.6.4 1 .3 1.5 0l9.3-6.7 25.5-17.8 12-8.4c.3-.2.6-.3.6-.7 0-2.6 1-5 1.6-7.5 1.4-6.4 3-12.8 4.5-19.1l6.5-27.4 4.6-19.1 6.7-27.6 3-12.5c1.6-6.7 3-13.4 5-20.1l2-1.8 6.3-5.1c1.4-1.3 3.2-2.3 4.2-3.8 2.2-3.4 4.2-6.9 6.3-10.3.1-.1.3-.3 0-.4-.6-.1-1.1-.3-1.7 0l-4.4 1.5c-3 1.3-6 2-8.6 4.2-3.8 3.5-8 6.5-12 9.7l-1.4-1-13.1-10.1-14.9-11.3c-1.1-1-2.3-1.6-4-1.6h-78c-1.1 0-2 .3-2.8 1a5711.2 5711.2 0 01-37.5 28.6c-.5.4-.4.7-.3 1.2l3 12.7 6.7 27.5 4.5 18.5 7.3 30.4 2 8.6-5.4 4.8c-.6.6-1.4.9-1.8 1.5-.7 1-1.9 1.4-2.6 2.3-.6.9-1.8 1.2-2.3 2-.5 1-1.5 1.5-2.2 2.2-1.4 1.1-2.6 2.5-4.1 3.4-.5.3-.9 1-1.4 1.4-.8.5-.6 1-.1 1.6-1.4-.2-3.1.9-3.3 2z"/><path class="ltv_st0" d="M174.8 31.3c-2 6.6-3.4 13.4-5 20.1l-3 12.5-6.7 27.6-4.5 19.1L149 138c-1.6 6.3-3.1 12.7-4.5 19.1-.6 2.5-1.6 4.9-1.6 7.5 0 .4-.3.5-.6.7l-12 8.3-25.5 18-9.3 6.5c-.5.4-1 .5-1.5 0l-20.7-14.4-26.2-18.5c-.2-.1-.5-.2-.5-.5-.5-4.2-1.8-8.2-2.8-12.3l-2.5-10.6-.8-3.4c-.7-2.9-1.2-5.8-2.2-8.6l-1.9-8.6-7.3-30.4-4.5-18.5L18 44.8 15 32c-.2-.4-.3-.7.2-1A2167.3 2167.3 0 0052.7 2.1c.9-.6 1.7-.9 2.7-.9h78.2c1.6 0 2.8.7 4 1.6l14.8 11.3 13 10 1.5 1 1 1 6.8 5zm-80-25.9H56.6c-1 0-1.6.3-2.3.8-4.9 3.8-9.7 7.6-14.7 11.3L20 32.5c-.6.4-.5.8-.4 1.4L23.2 49 28 69.3l6.5 27.3 4.6 19.2 6.5 27.2 4.6 19c.1.5.4.7.8 1l19.1 13.4c8 5.5 15.9 11 23.7 16.7.6.4 1 .4 1.7 0l21.7-15.4 20-14c.7-.5 1.6-.8 1.8-1.8l6.5-27 4.7-20 6.4-26.5 4.7-20 6.4-26.5 2-8.2c0-.3.4-.7-.2-1.2l-20.7-16L135 6.3c-.7-.5-1.4-.8-2.3-.8h-38z"/><path class="ltv_st1" d="M38.3 129.8c1 2.8 1.5 5.7 2.2 8.6l.8 3.4c-1.1.5-2 1.5-3 2.2-1.7 1-3 2.2-4.6 3.4l-4 3c-1 .7-1.8 1.6-3 2.1a6 6 0 00-1.9 1.6c-.6.8-1.3 1-2.2 1 .1-.9 0-1-.7-1l-.1-.2c.1-.8 0-1-.7-1-.2 0-.3-.2-.4-.3.1-.8 0-1-.7-1l-.1-.1c.4-.5-.2-.8-.3-1.1l-.4-.4-.7-1c-.5-.6-.7-1.1 0-1.6.6-.4 1-1 1.5-1.4 1.5-1 2.7-2.3 4-3.5.8-.6 1.8-1 2.3-2 .5-1 1.7-1.3 2.3-2.1.7-1 2-1.3 2.6-2.3.4-.6 1.2-1 1.7-1.5l5.4-4.8zM174.8 31.3l-7-5.2-1-.8c4.1-3.2 8.3-6.2 12.1-9.7 2.5-2.2 5.6-3 8.6-4.2l4.4-1.6c.6-.2 1.1 0 1.7 0 .3.2.1.4 0 .5-2.1 3.4-4 7-6.3 10.3-1 1.5-2.8 2.6-4.2 3.8l-6.2 5-2.2 1.9zM19.4 156.8c.6.4.5.7 0 1.1-1 .7-1.2 1.7-1.2 2.9 0 2.1-1.8 3.7-4 3.3-.3 0-.6.2-.8.3-1.3.5-2.4 0-3.5-.6-2.3-1.3-3.2-3.4-3.6-5.8l.2-.7c.7-1.2.8-2.7 1.6-3.9a3 3 0 013.4-1.5c1.3.3 2.4.3 3.3-.8h.4l.6 1 .8 1 .1.1.7 1 .4.4.7 1 .1.1.7 1h.1z"/><path class="ltv_st1" d="M16.7 153.3l-.1-.2c.1-.8 0-1-.7-1h-.1c.2-.6.1-1-.6-1 .2-1.2 1.9-2.3 3.3-2.1-.2.8 0 1 .7 1l.4.4c-.5.5 0 .7.2 1l.2.2.7 1 .4.4.7 1 .8 1c-.3 1.4-1.7 2.1-3.2 1.8v-.1c0-.6.1-1.2-.8-1l-.1-.1c.1-.8 0-1-.7-1l-.4-.4c.1-.8 0-1-.7-1zM94.8 5.4h38c1 0 1.6.3 2.3.8L149 16.7l20.7 15.9c.6.4.3.9.2 1.2l-2 8.2c-2 8.8-4.2 17.6-6.4 26.5-1.6 6.6-3 13.3-4.7 20l-6.4 26.4-4.7 20L139 162c-.2 1-1 1.3-1.7 1.8l-20.1 14c-7.3 5-14.5 10.2-21.7 15.3-.6.5-1.1.5-1.7 0-7.8-5.6-15.8-11-23.7-16.6-6.4-4.4-12.7-9-19.1-13.5-.4-.2-.7-.5-.8-1l-4.5-18.9-6.6-27.2-4.6-19.3-6.5-27.2L23 49l-3.5-15.2c-.1-.5-.2-.9.5-1.4l19.6-14.9L54.3 6.2c.7-.5 1.4-.8 2.3-.8h38.2zm0 4.1H57.8c-.5 0-1-.1-1.5.3l-4.6 3.5L36 25.5l-11 8.3c-.8.6-1 1.1-.7 2l1.6 6.6A2376 2376 0 0037 89c2 8.8 4.3 17.6 6.4 26.4l4.4 18.3 6.2 25.8c.1.6.3.9.8 1.2l13.6 9.5L93.6 188c.7.5 1.2.6 1.9 0l19.3-13.6 19.5-13.5c.5-.4.9-.8 1-1.5l2.7-11.3 4.9-20.4a1587 1587 0 004.9-20.4l6.3-26.2 4.8-20.2 6-24.8c.3-1 .1-1.6-.7-2.3l-12-9.2-16.7-12.7c-1.4-1-2.5-2.4-4.6-2.4-12 .2-24.2.1-36.3.1z"/><path d="M19.2 150c-.7 0-.8-.2-.7-1l.7 1zM20.7 152.6l-.7-1c.7 0 .8.2.7 1zM21.8 154l-.8-1c.8 0 .9.1.8 1zM22.6 155l-.7-1c.7 0 .8.2.7 1zM19.9 151.5c-.2-.4-.7-.6-.3-1.1.1.3.7.6.3 1.1zM15.2 151c.7.1.8.5.6 1l-.6-1zM15.9 152.2c.7 0 .8.1.7 1l-.7-1zM16.7 153.3c.7 0 .8.1.7 1l-.7-1zM17.8 154.6c.7 0 .8.2.7 1l-.7-1zM18.6 155.7c.9-.2.9.4.7 1l-.7-1z"/><path class="ltv_st0" d="M94.7 9.5H131c2.1 0 3.2 1.3 4.6 2.3l16.8 12.7 12 9.2c.8.7.9 1.3.6 2.3l-6 24.8-4.8 20.2c-2 8.8-4.3 17.5-6.3 26.2a1587 1587 0 01-4.9 20.4l-4.9 20.4-2.6 11.3c-.2.7-.5 1.1-1.1 1.5L115 174.3 95.6 188c-.7.5-1.1.4-1.8 0L68.4 170l-13.6-9.5c-.4-.3-.6-.6-.8-1.1L48 133.7l-4.5-18.3c-2-8.9-4.3-17.6-6.4-26.5l-4.8-20.2a2376 2376 0 01-7.9-32.8c-.2-1 0-1.5.7-2l11-8.4 15.8-12.2 4.6-3.5c.5-.4 1-.3 1.5-.3h36.8zM144 88.3c-4.1 2.2-6.7 2.2-10.6-.3-1.8-1.1-3.5-2.4-5.2-3.6-5-3.5-8.3-3.5-13.3-.2-2 1.2-3.8 2.5-5.7 3.8-3.8 2.6-7.6 2.4-11.3-.1l-6-4.3a9.4 9.4 0 00-11.6.2l-5.6 3.9c-4.4 3-7.8 3-12.3 0-2-1.5-4-3-6.2-4.3-3-2-6.2-2.2-9.5-.5-2 1-2 1-1.5 3.4.1.4-.1.8.3 1.3 5-3.6 9.4-1.6 13.6 1.6 1.2 1 2.5 1.8 3.8 2.7 3.7 2.5 7.5 2.6 11.3 0l6.2-4.2a9.5 9.5 0 0111.7 0l4.7 3.4c4.9 3.5 8.2 3.6 13.2.4 2.1-1.3 4-2.8 6-4.1A9 9 0 01126 87c2.3 1.3 4.3 3 6.5 4.4a11 11 0 007.4 2.3c2.2-.3 2.7-.8 3.4-2.9l.6-2.6zm-4.8 20.4c-2.5-.3-4.8-1-6.8-2.6a85.1 85.1 0 00-5.2-3.6c-3.4-2.2-6.8-2.8-10.5-.8-2.7 1.5-5 3.5-7.5 5-3.1 2-6.3 2.6-9.7.7-2.8-1.5-5.2-3.6-8-5.2a9.3 9.3 0 00-10-.4c-2.8 1.6-5.2 3.7-7.9 5.3-2.7 1.5-5.5 2-8.4.7-2.6-1.1-4.7-2.9-7-4.5-2.5-1.8-5.2-3.2-8.5-2.8-.9.1-1.2.4-1 1.3.3.7.4 1.5.6 2.3.1.3.2 1 .9.7 1.8-.5 3.5.3 5 1 2.7 1.3 5 3.4 7.5 5 3.4 2.2 6.8 2.8 10.5.8 2.7-1.5 5-3.5 7.5-5 3.1-2 6.2-2.6 9.7-.8 2.8 1.5 5.2 3.7 8 5.3 3.3 2 6.5 2.3 10 .3 2.8-1.5 5.1-3.6 7.9-5.2 2.7-1.5 5.4-2 8.4-.7 1.8.7 3.4 2 5 3 2.2 1.6 4.3 3.3 7 4 1 .4 1.6.3 1.8-.9 0-1 .4-1.8.7-2.9zm-5.2 21.4l.8-3c.1-.4 0-.8-.3-1-2.7-1.4-5-3.5-7.6-5-3.3-2-6.7-2.6-10.3-.6-2.6 1.5-4.9 3.5-7.4 5-3.1 2-6.3 2.5-9.7.7-2.8-1.5-5.3-3.6-8-5.3a9.3 9.3 0 00-10-.3c-2.8 1.5-5.2 3.7-8 5.3a9.6 9.6 0 01-5.2 1.5 12 12 0 01-5.8-2.3c-2.8-1.7-5.2-4-8.3-5.2-.3-.2-.6-.5-1-.3-.4.4 0 .7.1 1.1l.6 2.6c.1.3.2.7.6 1 3 1.4 5.6 3.7 8.4 5.5 3.3 2 6.7 2.6 10.3.5 2.6-1.5 5-3.5 7.5-5 3.1-2 6.3-2.5 9.7-.7 2.6 1.4 4.7 3.3 7.2 4.8 1.6 1 3.3 2 5.4 2.1 3.1.3 5.5-1.2 8-2.8l5.6-4c1.5-.9 3.2-1.3 5-1.3 2 .1 3.9 1 5.6 2.2 2.3 1.4 4.3 3.3 6.8 4.5zm-75.6 11c-.3.5.1.8.1 1.1.1 3 1.8 4.8 4.3 6.2 3.4 2 6.7 2.7 10.4.7 2.6-1.5 4.9-3.5 7.4-5 3.2-2 6.3-2.6 9.8-.8 2.8 1.5 5.2 3.6 8 5.3 3.2 2 6.5 2.3 10 .4 2.8-1.6 5.1-3.7 7.9-5.3 2.7-1.5 5.4-2 8.4-.8 2 .9 3.6 2.2 5.4 3.3l.7-2.8c.2-.6 0-1-.4-1.3L127 140c-3.3-2-6.7-2.7-10.4-.7-2.7 1.5-5 3.5-7.5 5.1-3.1 1.9-6.3 2.5-9.7.7-2.8-1.5-5.2-3.7-8-5.4a9.3 9.3 0 00-10-.3c-2.8 1.6-5.2 3.7-8 5.3a9.7 9.7 0 01-5.2 1.5c-2.4-.1-4.4-1.3-6.4-2.6-1.2-.8-2.2-1.8-3.5-2.4zM130 50.7h.2l3 16.4 3.3-5.1c.2-.3.2-.5.1-.8l-1.7-8-3.1-14.8-1.7-8-7.3 34.8h5.4c.3 0 .6 0 .7-.3l2.7-3.8H128l2-10.4zM71.2 30.4l-7.3 34.8h5.4c.3 0 .5 0 .6-.2l2.8-3.9H69l2-10.4h.2l3 16.3c1-1.3 1.8-2.6 2.6-4 .3-.5 1-1 .8-1.7l-1.8-8.1-2.8-13.5-2-9.3zm18 1.6l7.2 35 7.3-35h-3.8c-.4 0-.6.1-.7.7l-1.4 7.1-1.4 7.3c-.3-.8-.2-1.3-.3-1.8-.7-3.2-1.3-6.5-1.8-9.7-.5-3.6-.4-3.6-4-3.6h-1.1zm35.4 125.4a9 9 0 00-8 .6c-2.6 1.4-5 3.5-7.5 5-3.1 2-6.3 2.5-9.6.7-3-1.5-5.3-3.6-8-5.3-3.3-2-6.6-2.3-10-.3-2.2 1.2-4.2 2.6-6 4-.7.6-2 .8-2 1.4.1.7 1.3 1 2 1.5.6.5 1.2.6 2 0 1-.9 2-1.6 3.1-2.2 3.1-2 6.3-2.5 9.7-.7 2.9 1.5 5.2 3.6 8 5.3 3.3 2 6.6 2.3 10 .3 2.7-1.4 4.8-3.5 7.4-4.9 3.1-1.6 6.3-3 8.9-5.4zM79.9 66.7h.3c1-1.2 1.9-2.6 3-3.8 1-1 1-2 1-3.3v-20c0-1-.4-2.4.3-3 .6-.5 1.9-.2 2.9-.2h.3c1.5-.7.3-2 .6-2.9.1-.4.4-1.2-.7-1.2H76.3c-.6 0-.7.2-.8.8-.2 3.3-.2 3.3 3.2 3.3 1 0 1.3.2 1.2 1.2v29.1zm-17.1.3v-6.2c0-.6-.2-1-.6-1.4l-4-5a4.3 4.3 0 01-1.2-3c.1-5.4 0-10.7 0-16.1C57 32 57 32 54 32c-1 0-1.2.3-1.2 1.2v19c0 1.8.6 3.2 1.8 4.6L62.8 67zm48.6 0c.6-.9 1.4-1.4 2-2l7.4-9.3c.5-.5.7-1 .7-1.7V35.4c0-3 0-3-3.1-3.1-1 0-1.3.2-1.3 1.3v18.6c0 .8-.1 1.5-.6 2l-3.2 3.8c-.6 1-1.9 1.6-1.9 3v6zm-6.2 0h.2c1-1.2 1.9-2.6 3-3.7 1-1 1.1-2 1.1-3.4V41.2v-7.9c0-.7-.1-1-1-1-3.3 0-3.3-.1-3.3 3.3v31.3z"/><path d="M143.9 88.3l-.6 2.6c-.7 2.1-1.2 2.6-3.4 2.8a11 11 0 01-7.5-2.2c-2.1-1.4-4.1-3-6.4-4.4a9 9 0 00-10 .3c-2.1 1.3-4 2.8-6 4.1-5.1 3.2-8.4 3-13.3-.4l-4.8-3.4a9.5 9.5 0 00-11.6 0L74 92c-3.8 2.5-7.6 2.4-11.4-.1-1.2-.9-2.5-1.7-3.7-2.7-4.2-3.2-8.6-5.2-13.6-1.6-.5-.5-.2-1-.3-1.3-.6-2.4-.6-2.4 1.5-3.4a8.9 8.9 0 019.5.5l6.2 4.2c4.5 3 7.9 3 12.3 0 2-1.2 3.7-2.5 5.6-3.8a9.4 9.4 0 0111.5-.2l6.1 4.3c3.7 2.5 7.5 2.7 11.3.1l5.7-3.8c5-3.3 8.4-3.3 13.3.2 1.7 1.2 3.4 2.5 5.2 3.6 3.9 2.5 6.5 2.5 10.6.3z" fill="#fcfcfc"/><path class="ltv_st3" d="M139 108.7l-.7 3c-.2 1.1-.7 1.2-1.7.9-2.7-.8-4.8-2.5-7-4-1.6-1.2-3.2-2.3-5-3.1-3-1.3-5.7-.8-8.4.7-2.7 1.6-5 3.7-7.8 5.3a9.4 9.4 0 01-10.2-.4c-2.7-1.6-5-3.8-8-5.3-3.4-1.8-6.5-1.2-9.6.7-2.6 1.6-4.9 3.6-7.5 5-3.7 2.1-7.1 1.5-10.5-.7-2.5-1.6-4.8-3.7-7.5-5-1.5-.7-3.2-1.5-5-1-.7.2-.8-.4-.9-.7-.2-.8-.3-1.6-.6-2.3-.2-1 .1-1.2 1-1.3 3.3-.3 6 1 8.5 2.8 2.2 1.6 4.4 3.4 7 4.5 3 1.3 5.7.8 8.4-.7 2.7-1.6 5-3.7 7.8-5.3 3.5-2 6.8-1.7 10.2.4 2.7 1.6 5 3.7 7.9 5.2 3.4 1.9 6.6 1.3 9.7-.6 2.6-1.6 4.8-3.6 7.5-5 3.7-2.1 7.1-1.5 10.5.7 1.7 1.1 3.5 2.3 5.2 3.6 2 1.5 4.3 2.3 6.8 2.6zM133.9 130.1c-2.5-1.2-4.5-3-6.8-4.5-1.7-1.1-3.6-2-5.7-2.2-1.7 0-3.4.4-4.9 1.4-2 1.2-3.8 2.6-5.7 3.9-2.3 1.6-4.8 3.1-7.9 2.8-2-.1-3.8-1-5.4-2.1-2.5-1.6-4.6-3.4-7.2-4.8-3.4-1.8-6.6-1.2-9.7.7-2.6 1.5-4.9 3.5-7.5 5-3.6 2-7 1.5-10.3-.5-2.8-1.8-5.3-4.1-8.4-5.6-.4-.2-.5-.6-.6-1l-.6-2.5c0-.4-.5-.7 0-1 .3-.3.6 0 1 .2 3 1.1 5.4 3.4 8.2 5.2a12 12 0 005.8 2.3c1.8 0 3.6-.6 5.3-1.5 2.7-1.6 5-3.8 7.9-5.3 3.5-2 6.7-1.7 10 .3 2.7 1.7 5.2 3.8 8 5.3 3.4 1.8 6.6 1.2 9.7-.6 2.5-1.6 4.8-3.6 7.4-5 3.6-2.1 7-1.6 10.3.4 2.6 1.6 4.9 3.7 7.6 5.1.4.2.4.6.3 1l-.8 3zM58.3 141.1c1.3.6 2.3 1.6 3.5 2.4 2 1.3 4 2.5 6.4 2.6 1.8 0 3.6-.5 5.3-1.5 2.7-1.6 5-3.7 7.9-5.3 3.4-2 6.7-1.7 10 .3 2.8 1.7 5.2 3.9 8 5.4 3.4 1.8 6.6 1.2 9.7-.7 2.6-1.6 4.9-3.6 7.5-5.1 3.7-2 7.1-1.4 10.4.7l3.3 2.2c.5.4.6.7.4 1.3l-.7 2.8c-1.8-1-3.5-2.4-5.4-3.3-3-1.2-5.7-.7-8.4.8-2.8 1.6-5 3.7-7.9 5.3a9.3 9.3 0 01-10-.4c-2.8-1.7-5.2-3.8-8-5.3-3.5-1.8-6.6-1.2-9.7.7-2.6 1.6-4.9 3.6-7.5 5-3.6 2-7 1.4-10.4-.6-2.5-1.4-4.2-3.2-4.3-6.2 0-.3-.4-.6-.1-1zM130 50.7l-2 10.4h3.6l-2.7 3.8c-.1.3-.4.3-.7.3h-5.4l7.3-34.8 1.7 8 3 14.7 1.8 8.1c.1.3 0 .5 0 .8-1.2 1.6-2.2 3.3-3.3 5l-3-16.4-.3.1zM71.2 30.4l2 9.3 2.7 13.5 1.8 8.1c.2.8-.5 1.2-.8 1.8l-2.6 4-3-16.5H71l-2 10.5h3.7L69.9 65c-.1.2-.3.2-.6.2H64l7.3-34.8zM89.2 32h1c3.7 0 3.6 0 4.1 3.6.5 3.2 1.1 6.5 1.8 9.7 0 .5 0 1 .3 1.8l1.4-7.3 1.4-7.1c0-.6.3-.7.7-.7h3.8l-7.3 35-7.3-35zM124.6 157.4c-2.6 2.4-5.8 3.8-8.9 5.4-2.6 1.3-4.7 3.4-7.3 4.9a9.3 9.3 0 01-10.2-.3c-2.7-1.7-5-3.8-7.9-5.3-3.4-1.8-6.6-1.3-9.7.7-1.1.6-2.2 1.3-3.2 2.1-.7.7-1.3.6-2 0-.6-.5-1.8-.7-1.8-1.5 0-.5 1.2-.8 1.8-1.2a51 51 0 016-4.1c3.4-2 6.7-1.7 10 .3 2.8 1.6 5.2 3.8 8 5.3 3.4 1.8 6.6 1.2 9.6-.6 2.7-1.6 5-3.7 7.6-5.2a9 9 0 018-.5zM79.9 66.7V50 37.6c0-1-.3-1.2-1.2-1.2-3.4 0-3.4 0-3.2-3.3 0-.6.2-.8.8-.8h11.3c1 0 .8.8.7 1.2-.3 1 .9 2.2-.6 2.9h-.3c-1 0-2.3-.3-2.9.2-.7.6-.2 2-.2 3v20c0 1.3 0 2.4-1 3.3-1.2 1.2-2.1 2.6-3.1 3.9l-.3-.1zM62.8 67l-8.3-10.2a6.6 6.6 0 01-1.8-4.7V33.2c0-.9.2-1.2 1.2-1.2 3.2 0 3.2 0 3.2 3.3v16.1c0 1.2.3 2.2 1 3l4.1 5c.4.4.6.8.6 1.4V67zM111.4 67v-6c0-1.4 1.3-2 2-3l3-3.8c.6-.5.7-1.2.7-2V33.6c0-1 .3-1.3 1.3-1.3 3 0 3 0 3 3V54c0 .7-.1 1.2-.6 1.7l-7.5 9.3c-.5.7-1.3 1.1-1.9 2zM105.2 67V37.5v-2c0-3.4 0-3.4 3.4-3.3.8 0 1 .3 1 1V60c0 1.3-.2 2.4-1.2 3.4-1.2 1.1-2 2.5-3 3.7h-.2z"/></svg>