<svg version="1.1" id="Layer_1" xmlns="http://www.w3.org/2000/svg" x="0" y="0" viewBox="0 0 200 200" xml:space="preserve"><style>.nor_st0{fill:#213f7d}.nor_st1{fill:#fefefe}.nor_st2{fill:#d9251c}</style><path class="nor_st0" d="M98.5 0h2c0 .7.6.5 1 .6 6.8 2.3 13.8 4.3 20.9 5.8a76.5 76.5 0 0036.7-1c3.6-1 7.2-2.4 10.6-4.2.3-.1.5-.3.9 0l5.7 6.6 6.4 7.4 5.3 6.2c.6.6 1 1.5 2 1.9v1c-.3 0-.4.2-.5.4l-2.3 4.2c-2 3.8-3.8 7.5-5.3 11.5a59.5 59.5 0 00-3.7 30c.8 5.4 2 10.6 3.6 15.9 2 6.5 4 13 5.6 19.6 1 5 1.9 10 2.1 15.1.3 4.7 0 9.3-.8 14-1.1 5.8-3.2 11.4-6.5 16.4-3 4.6-6.5 8.5-10.7 12a78 78 0 01-13.8 9.3c-7.8 4-16 7-24.3 9.9-6.2 2.2-12.7 3.6-18.8 6.1a33 33 0 00-12.5 8c-.9 1-1.9 2-2.3 3.3h-.6c-.3-1.3-1.3-2-2.1-3-3.2-3.6-7.3-6-11.7-7.9-4.1-1.7-8.5-3-12.9-4.3-5-1.5-9.8-3.3-14.8-5-7-2.6-14-5.5-20.4-9.4A65.2 65.2 0 0122 158.2c-3.5-3.8-6.3-8-8.5-12.6a48.4 48.4 0 01-4-25.9c.2-4 .8-7.9 1.6-11.8a142 142 0 014-15.2c1.7-5.5 3.4-11 4.5-16.6 1-4.4 1.7-9 1.6-13.6l-.1-5.2c-.2-2.3-.5-4.6-1-6.9a90.9 90.9 0 00-10-24.4c-.3-.6-.4-1.4-1.2-1.6v-1.1c.2 0 .3 0 .4-.2l9-10.4 9.7-11c.5-.6.8-.6 1.4-.4l4.2 2A60.5 60.5 0 0054.5 8c4.3.2 8.6.2 13-.3 4.2-.5 8.5-1.2 12.7-2.2 5.9-1.3 11.6-3 17.4-5 .3 0 1 0 1-.6zm-4.2 141v42c0 1.7.4 2.8 2 3.4 1.2.4 2.1 1.5 3.2 1.5 1 0 2-1 3.1-1.6A111 111 0 01118 180l19-6.5c3.6-1.2 7.2-2.7 10.8-4.2 4.2-1.8 8.4-4 12.3-6.4 4.6-3 8.8-6.5 12.4-10.7a40.2 40.2 0 009.6-32 86 86 0 00-1.3-9.8c-.8-4.2-1.9-8.3-3-12.5-.3-.8-.6-1-1.5-1H95.5c-1 0-1.2.1-1.2 1.1v43zm38-82.6h37.5c.5 0 .6-.1.6-.5a76 76 0 016.3-24.3c1.2-2.8 2.7-5.5 4-8.3.3-.4.4-.6 0-1l-5.3-6.3-5.6-6.7c-1-1.2-1.1-1.3-2.7-.7l-5.4 2a63 63 0 01-24.8 2.8 114.6 114.6 0 01-19.8-3.1c-4.8-1-9.4-2.5-14.1-3.6-1.7-.5-3.3-1.4-5.2-.6-.7.3-1.6.5-2.4.6-.8.2-1.2.6-1.2 1.5v47.1c0 1 .2 1.1 1.1 1.1h37zM55.8 171.2v-.4-73.1c0-.8-.3-1-1-1H22.7c-.7 0-1 .2-1.3 1a159 159 0 00-3.2 13c-.6 3.4-1.2 6.9-1.4 10.4-.2 4.1 0 8.3.8 12.5a40.2 40.2 0 009.8 19.5 55 55 0 0010.7 9.2c4.4 2.9 9.1 5.2 14 7.3l3.9 1.6zm0-134.2V19v-2.8c0-.3 0-.7-.5-.6l-3.2-.2a63.4 63.4 0 01-20.9-5c-.6-.4-1-.3-1.5.2l-1.7 2-6.9 8.1-2.8 3.3c-.4.5-.4.9 0 1.5a98 98 0 018.2 20.2c1 3.9 1.7 7.8 2 11.8 0 .8.2 1 1 1h25.3c.9 0 1-.3 1-1V37zM37 70c1.3 2.6 2.2 5 3.4 7.2 3 5.3 5.7 10.6 8.5 16 .3.4.5.6 1.1.6h6.5c.8 0 1-.1 1-1V77.4 62.3c0-.7-.2-1-.9-1-1.4.1-2.9.2-4.3 0-.9 0-1 .3-1 1v17l.2 5.1-.3-.4c-2-4-4-8-6.2-11.8l-5.5-10.3c-.1-.3-.2-.5-.6-.5h-9.4a6 6 0 011.5 4.3v24c0 1.5-.5 2.9-1.5 4.1h6.4c1 0 1.4-.2 1.4-1.3-.2-7.4.2-14.8-.3-22.5zm55.3 7.3c0-1-.2-2.5-.5-3.9a15 15 0 00-13-12.2A15 15 0 0062 72c-.8 2.8-1 5.7-.6 8.5a15.4 15.4 0 0027.3 8.3c2.5-3.3 3.5-7 3.5-11.5zm2.6-15.9a6 6 0 011.6 4.2v23.6c0 1.6-.5 3.2-1.6 4.6h6.8c.9 0 1-.3 1-1V81.5c0-.9.3-1 1-1 1 .2 1.5.9 2 1.7l5 11c.2.2.3.6.8.6h7.4c-2.9-4.8-4.9-10-8-14.5 1.9-.9 3-1.8 3.7-2.8 2-2.5 2.3-5.4 1.7-8.4-.3-1.6-1-3-2.3-4.2a11 11 0 00-7-2.5h-12zm50.9 7.2V63c0-.4-.1-.6-.6-.8a23.2 23.2 0 00-14.6-.2c-4.7 1.6-8 4.7-9.7 9.4-1 3-1.1 6.2-.7 9.3.3 3 1.3 5.8 3.2 8.1 3 3.6 7 5.2 11.7 5.4l4-.1c2.7-.3 5.2-1 7.6-2.2.4-.2.6-.4.6-.9V78.5c0-.5-.2-.7-.7-.7h-7.2c.7.6 1 1.3 1.2 2 .8 2.7.3 5.3.5 8 0 .4-.4.4-.7.5-1.9.5-3.7.5-5.6.2-4-.5-6.3-2.8-7.5-6.4a15 15 0 01-.3-6.9 9.7 9.7 0 013.8-6.7c3.2-2.3 6.7-2.3 10.3-1.6 1.6.2 3.1.9 4.7 1.7zm5-7.2a6.1 6.1 0 011.5 4.2V89a8 8 0 01-1.5 5l16.2-.1c.3 0 .6.2.7-.3l2-5h-10.3c-.6 0-.9-.2-.9-.9v-7c0-.7.2-.9.9-.9h7.3c.8 0 1 0 1-.9v-3.4c0-.6-.1-.8-.8-.8h-7.5c-.7 0-1-.2-.9-1v-6c0-.8.3-.9 1-.9h8.7c.6 0 .8-.1.8-.7V62c0-.6-.2-.7-.8-.7h-17.4z"/><path class="nor_st1" d="M94.3 141V98c0-1 .2-1.2 1.2-1.2h80.8c.9 0 1.2.3 1.5 1.1 1.1 4.1 2.2 8.3 3 12.5.6 3.2 1 6.4 1.3 9.7.3 3.6.2 7.1-.2 10.7a39.4 39.4 0 01-9.5 21.4 56.2 56.2 0 01-12.3 10.6c-4 2.5-8 4.6-12.3 6.5-3.6 1.5-7.2 3-10.8 4.2l-19 6.4a111 111 0 00-15.4 6.4c-1 .6-2 1.6-3.2 1.6-1 0-2-1.2-3-1.6-1.8-.6-2.2-1.6-2.2-3.4.1-14 0-28 0-41.9zm3.2-1.3v38.8c0 1.4 1.5 2.4 2.7 1.8 5-2.6 10.2-4.5 15.4-6.4 7-2.4 14-4.6 20.8-7.1 6.4-2.4 12.7-5 18.6-8.5 4.3-2.6 8.5-5.5 11.8-9.4a36 36 0 009-27.6 87.2 87.2 0 00-4-20.4c-.1-.7-.4-1-1.2-1h-72c-1 0-1.1.3-1.1 1.2v38.7zM132.2 58.4H95.4c-1 0-1.1-.2-1.1-1V10.3c0-1 .3-1.4 1.1-1.5l2.4-.7c1.9-.8 3.5.1 5.2.6 4.7 1.2 9.3 2.5 14 3.6a117 117 0 0028.2 3.3 63 63 0 0022-5c1.5-.6 1.7-.5 2.7.7l5.6 6.7 5.2 6.2c.4.5.3.8 0 1.1l-4 8.3a76.2 76.2 0 00-6.3 24.3c0 .4-.1.6-.5.6H132.2zm-1.3-3.2h31.3c.6 0 1.4.2 1.8-.1.5-.3.1-1 .2-1.6l.2-.8a92.6 92.6 0 018.6-26.5c.2-.3.5-.5.1-1l-5.9-7c-.4-.4-.8-.6-1.3-.3a64 64 0 01-21.4 4c-2.6.1-5.3.2-7.9 0a119.8 119.8 0 01-21-3.2c-5.2-1.3-10.3-2.6-15.5-4.1-.9-.3-1.7 0-2.5.4-.4.2-.1 1-.1 1.5v37.7c0 .9.2 1 1 1h32.3zM55.9 171.2l-4-1.6a92.3 92.3 0 01-13.9-7.4c-4-2.6-7.6-5.6-10.7-9.1-5-5.7-8.4-12.1-9.8-19.6-.8-4.1-1-8.3-.8-12.4.2-3.5.8-7 1.4-10.5.9-4.4 2-8.6 3.2-13 .3-.7.6-.8 1.3-.8H55c.6 0 1 0 1 .9v73l-.1.5zm-3.2-8.4v-1.3-60-.8c0-.6-.1-.7-.7-.7H28c-.4 0-.6 0-.7.6l-1.2 4.2a143.8 143.8 0 00-3 17.9c-.2 3.2.3 6.4.8 9.6a34.5 34.5 0 009.2 17.6 71 71 0 0019.6 13zM56 37c0 6.8-.1 13.6 0 20.5 0 .7-.2 1-1 1H29.6c-.8 0-1-.2-1-1-.3-4-1-8-2-11.8-1.8-7-4.9-13.7-8.2-20.2-.4-.6-.3-1 0-1.5l2.9-3.3 6.8-8 1.7-2c.5-.6 1-.6 1.5-.4a62.6 62.6 0 0021 5.1c1 0 2 .3 3.2.2.5 0 .4.3.4.6V37zm-3.3 1.6V23.4c0-1.6 0-1.6-1.6-1.6A58 58 0 0133.3 18c-.8-.3-1.2-.1-1.6.4l-5.3 6.1c-.7.8-.6 1.4-.2 2.3 3 5.6 5.2 11.5 6.8 17.6.9 3.3 1.6 6.6 1.8 10 0 .7.2.9 1 .9h16c.8 0 1-.3 1-1.1V38.6zM36.9 70c.5 7.7.1 15.1.3 22.5 0 1.1-.3 1.4-1.4 1.3h-6.4c1-1.2 1.5-2.6 1.6-4.1v-24a6 6 0 00-1.6-4.3h9.4c.4 0 .5.3.6.5L45 72.2 51 84l.3.4-.1-5.2-.1-16.8c0-.8.1-1 1-1h4.3c.7 0 1 .2 1 .9l-.1 15.1V93c0 .8-.2 1-1 1H50c-.6 0-.8-.3-1-.8l-8.6-15.9c-1.2-2.2-2-4.6-3.4-7.2zM92.2 77.3c0 4.4-1 8.3-3.5 11.5a14.3 14.3 0 01-8.2 5.2 15 15 0 01-15.2-4.6 15.4 15.4 0 01-3.9-8.9c-.3-2.8-.2-5.7.6-8.5a14.8 14.8 0 0116.7-10.8 15 15 0 0113 12.3c.3 1.3.6 2.7.5 3.8zm-6.4.4c0-3.3-.7-5.4-2.5-7.7-4-5.3-11.3-4.3-14.2 1.3a14.3 14.3 0 00-1.3 8.8c.4 2.6 1.4 4.8 3.2 6.5a8 8 0 0011.5-.1c2.4-2.4 3.3-5.4 3.3-8.8zM94.8 61.4h12c2.6.2 5 .8 7 2.5 1.3 1.2 2.1 2.6 2.4 4.2.6 3 .2 5.9-1.7 8.4-.7 1-1.8 2-3.6 2.8 3 4.6 5 9.7 7.9 14.5h-7.4c-.5 0-.6-.4-.7-.6l-5.2-11c-.4-.8-1-1.5-1.9-1.6-.7-.1-1 0-1 1v11.2c0 .8-.1 1-1 1h-6.8c1.1-1.4 1.6-3 1.6-4.6V65.6a6 6 0 00-1.6-4.2zm7.8 9.8v4.3c0 .4 0 .6.5.6 1.3 0 2.6 0 3.7-.4 2-.8 3.3-2.1 3.2-5 0-1.8-1.3-3.4-3.2-3.9-1.2-.3-2.4-.3-3.7-.3-.5 0-.5.3-.5.7v4zM145.7 68.6c-1.6-.8-3-1.5-4.7-1.7-3.6-.7-7.2-.7-10.3 1.6a9.7 9.7 0 00-3.8 6.7 15 15 0 00.3 6.9c1.2 3.6 3.5 5.9 7.5 6.4 1.9.3 3.7.2 5.6-.2.3-.1.7-.2.6-.6 0-2.6.4-5.2-.4-7.8-.2-.8-.5-1.5-1.2-2h7.1c.6-.1.7.1.7.6V91c0 .5-.1.7-.5.9A22 22 0 01139 94a27 27 0 01-4 .1c-4.7-.2-8.7-1.8-11.7-5.4-1.9-2.3-2.9-5-3.3-8-.3-3.2-.2-6.4.8-9.4 1.7-4.7 5-7.8 9.8-9.4a23.5 23.5 0 0114.5.2c.4.2.5.4.5.8v5.6zM150.7 61.4H168c.6 0 .8.1.8.8V66c0 .6-.2.8-.8.8h-8.7c-.7 0-1 0-1 .8v6.1c0 .7.2 1 1 1h7.4c.7-.1.8.1.8.7V79c0 .7-.2.9-1 .9h-7.3c-.7 0-.9.1-.9.8v7c0 .8.3 1 1 .9h10.3l-2 5c-.3.5-.5.3-.8.3h-16.2a8 8 0 001.6-4.9V65.7c0-1.6-.5-3-1.6-4.3z"/><path class="nor_st2" d="M97.5 139.8V101c0-1 .2-1.1 1-1.1h72c.9 0 1.2.2 1.4 1a134 134 0 013.8 20.3c.5 6.5-.4 12.7-3 18.6a36 36 0 01-5.9 9c-3.3 3.9-7.5 6.8-11.8 9.4-5.9 3.6-12.2 6-18.6 8.4-6.9 2.6-13.9 4.8-20.8 7.2-5.2 1.9-10.4 3.8-15.4 6.4-1.2.6-2.7-.4-2.7-1.8v-38.8zm33.2-3.8l.3.3c-.1.3 0 .6-.3 1-.2.5-.5 1.3-.4 1.8l.2 2.9c.1 1.1-.5 2.1-1.4 2.6-.7.4-1.5.8-1.1 1.8.5 1.4.5 2.9 2.1 3.8 1.6 1 3 1.5 4.8 1.6.8 0 1.4-.3 1.5-1 .2-.7-.5-1-1-1.3l-1.8-.8c-.6-.4-.5-.8-.2-1.2l3.5-3.5c.3 1.7.4 3.2 1 4.6.4 1 .4 1.7 1.8 1.8 3 .3 5.8.6 8.7.2.2 0 .8.2.9-.3 0-.5 0-.9-.3-1.3-.8-.8-1.8-1-2.8-1-1.6 0-2.5-.9-3-2.4-.4-2-.5-4.1 0-6.2.3-1.9.5-4 2.5-5 2.1-1.3 2.9-3.4 3.6-5.5.4-1.2-.5-2.9 1.4-3.4v-.1c.2-.7 1.1-1.1 1.3-1.1.8.2 1.4-.6 2.2-.6.5 0 1.2-.3 1.7-.7.7-.4 1.7-.4 2.2-1.1.4-.5 1-.4 1.2-1 .7.4 1.1-.7 1.9-.3 0-.9.6-.6 1-.8 1.2-.3 2.2-1 3.3-1 .7-.2 1.5-.5 1.7-1.5-.7.3-1.3.3-2 0h.4c1.8-.1 2.9-1 3-2.8.1-.2 0-.5-.3-.5-1.2-.4-2.3-1-3.7-1.2-.6 0-1.3-.4-1.8-1-.3-.5-1-.7-1.5-.7-1.3.2-2.6-.3-4-.1-.6 0-.6-.7-1.2-.8-.8 0-.5.9-1.2 1-2.5.4-5 1-7.4 2.2-2.8 1.4-6 2-9.1 1.8-1-.1-2 .1-3 .4-.5.1-1 .3-1.7.2-2.2-.5-4.4-.7-6.7-1a27.5 27.5 0 00-13.6 2.3 15.1 15.1 0 00-7.6 6 11.8 11.8 0 00-1.4 10.5c.4 1 .3 2.3-.2 3.4-.3.5-.7.8-.8 1.3-.2 1.2-1.2 2-1.8 2.9-.3.5-.5 1.8-.2 2.3.1.3.2.9 0 1-.5.5.1.7.2 1 0 .1.2 0 .3.4.2 1 .6 1.9 1.4 2.5.4.3.8.6 1 1.1.5.8 2.7 1.6 3.6 1.3.2 0 .4-.2.4-.4 0-.8.3-1.6-.4-2.4-1-1-1-2.1-.3-3.5a10 10 0 013.2-3.1c.5-.4 1.3-.7.6-1.6v-.5c.2.2.6 0 .6.4l.1 1.2c0 .3.2.7.3.7 1 0 1 1 1 1.2 0 1 .6 2 .5 3 0 1.2-.2 2.4.2 3.6.2 1 .6 1.6 1.5 2 .6.2 1.4 0 2.1.2 1.9.5 3.7 0 5.6.1.5 0 1.4 0 1.5-1 0-.8-.4-1.6-1.3-1.8l-.7-.2c-1.3-.2-1.9-1-2-2.2-.2-1-.1-2 0-3 .3-1.8 1.2-3.5 1.2-5.3 0-.4.1-.3.5-.3.9.2 1.4 1.2 2.6.8 2-.8 4.3-.7 5.6-2.7zM130.8 55.2H98.6c-1 0-1.1-.2-1.1-1V16.5c0-.5-.3-1.3.1-1.5.8-.4 1.7-.7 2.6-.4a267.7 267.7 0 0026 6.1c3.4.6 7 1 10.4 1.2 2.6.2 5.3.1 8 0a64 64 0 0018.4-3c1-.3 2-.4 2.9-1 .5-.3 1-.1 1.3.4l6 7c.3.4 0 .6-.1 1a93 93 0 00-8.7 26.4l-.2.8c0 .5.3 1.3-.1 1.6-.5.3-1.3.1-1.9.1H131zM52.7 162.8A70.9 70.9 0 0133.1 150c-4.6-5-8-10.8-9.2-17.6a40.9 40.9 0 01.2-18c.6-3.2 1.2-6.3 2-9.5l1.2-4.2c.1-.5.3-.6.8-.6h24c.5 0 .7.1.6.7V162.8zM52.7 38.6v15.6c0 .7 0 1-1 1h-16c-.7 0-.9-.1-1-.9-.1-3.3-.8-6.6-1.7-9.9-1.7-6.1-3.9-12-6.8-17.6-.5-1-.5-1.5.2-2.3l5.2-6.1c.5-.5 1-.7 1.6-.4a57.6 57.6 0 0017.9 3.8c1.6 0 1.6 0 1.6 1.6v15.2z"/><path class="nor_st0" d="M85.8 77.7c0 3.4-.9 6.4-3.3 8.8a8 8 0 01-11.5 0c-1.8-1.6-2.8-3.8-3.2-6.4-.4-3-.1-6 1.3-8.8 3-5.6 10.3-6.6 14.2-1.3 1.8 2.3 2.5 4.4 2.5 7.7zM102.6 71.2v-4c0-.4 0-.7.5-.7 1.3 0 2.5 0 3.7.3 1.9.5 3.2 2.1 3.3 3.9 0 2.9-1.2 4.2-3.2 5-1.2.4-2.5.5-3.8.4-.5 0-.5-.2-.5-.6v-4.3z"/><path class="nor_st1" d="M130.7 136c-1.3 2-3.7 2-5.7 2.6-1.1.4-1.6-.6-2.5-.7-.4-.1-.5-.2-.5.2 0 1.9-1 3.5-1.2 5.3-.1 1-.2 2 0 3 .1 1.1.7 2 2 2.3l.7.1c.9.2 1.4 1 1.3 2-.1.9-1 .9-1.6.8-1.8 0-3.6.4-5.5 0-.7-.2-1.5 0-2.2-.3-.8-.3-1.2-1-1.5-2-.3-1.2-.1-2.4 0-3.6 0-1-.6-1.9-.6-3 0-.1 0-1.3-1-1.2l-.3-.6-.1-1.2c0-.4-.4-.3-.6-.4v.5c.7.9-.1 1.2-.7 1.5a10 10 0 00-3 3.2c-.9 1.3-.9 2.4.2 3.5.7.7.4 1.6.4 2.4l-.5.3c-.8.3-3-.5-3.4-1.3-.3-.5-.7-.7-1.1-1-.8-.7-1.2-1.6-1.4-2.6 0-.3-.3-.2-.3-.3-.1-.4-.8-.6-.2-1 .2-.2.1-.8 0-1-.3-.6-.1-1.9.2-2.4.6-.9 1.5-1.7 1.8-2.8 0-.5.5-.9.8-1.3.5-1.2.6-2.5.2-3.5-1.5-4.2-.2-7.6 1.4-10.4a15 15 0 017.6-6 26.5 26.5 0 0113.6-2.3c2.3.3 4.5.4 6.7 1 .6 0 1.2-.2 1.7-.3 1-.3 2-.5 3-.4 3.2.2 6.3-.4 9.1-1.7a27 27 0 017.4-2.3c.7-.1.4-1 1.2-1 .6.1.6.9 1.3.8 1.3-.2 2.6.3 3.9.2.6 0 1.1.1 1.5.6.5.6 1.2 1 1.8 1 1.3.2 2.5.9 3.7 1.2.3 0 .4.3.4.6-.3 1.7-1.3 2.6-3 2.7l-.5.1c.6.2 1.3.2 2 0-.3.9-1 1.3-1.7 1.4-1.2.1-2.1.7-3.2 1-.5.2-1.2 0-1.2.8-.7-.4-1.1.8-1.8.4-.2.6-.9.4-1.2 1-.5.6-1.5.6-2.3 1-.5.4-1 .7-1.6.7-.8 0-1.4.8-2.3.6 0 0-1 .5-1.2 1.1v.1c-1.9.6-1 2.3-1.4 3.4-.8 2.2-1.5 4.3-3.6 5.5-2 1.1-2.2 3.1-2.6 5-.5 2.1-.3 4.2.2 6.3.4 1.5 1.3 2.3 2.9 2.3 1 0 2 .2 2.7 1 .4.5.4.9.3 1.3 0 .5-.6.3-.8.4-3 .3-5.8 0-8.7-.3-1.4 0-1.4-.7-1.8-1.7-.6-1.5-.8-3-1-4.7l-3.5 3.6c-.4.3-.4.7.2 1.1l1.7.9c.6.2 1.3.5 1.1 1.2-.1.7-.7 1-1.5 1a10 10 0 01-4.8-1.5c-1.6-1-1.7-2.5-2.1-3.8-.4-1 .4-1.5 1-1.8 1-.6 1.6-1.6 1.5-2.7 0-1 0-1.9-.3-2.8 0-.6.2-1.3.5-2 .2-.3.2-.6.3-1 .6-.6.6-1.4.6-2.4-.7.8-1 1.4-.9 2.3zm23.9-22.6c0 .2.2.3.4.2l-.2-.3c-.2-.3-.5-.3-.7-.4-.5-.5-1-.5-1.5 0-1 .8-.4 1.7-.1 2.6.1-.8-.2-1.7.2-2.5h1.3v.1c-.7 1-.6 1.4.4 2.3-.3-.7-.5-1.5-.5-2.3.2.1.4.4.7.3zM132 133.5c.3-.1.9 0 1-.6l-.1-.2c-.5 0-.7.5-1 .8zm1.1-.8c.2-.1.5-.2.4-.5l-.3-.2c-.2 0-.4.2-.3.4 0 .1-.1.4.2.3zm34.2-17.6v-1c-.3.5-.3.8 0 1zm-12.6.6l-.2-.1c-.1 0-.1 0 0 .1l.1.2.1-.2z"/><path class="nor_st2" d="M130.7 136c-.1-.8.2-1.5 1-2.2-.1 1-.1 1.8-.7 2.4l-.3-.2zM152.7 113c-.5.8-.1 1.7-.2 2.5-.3-.9-.9-1.8 0-2.7l.2.2zM153.9 113.1c0 .8.2 1.6.5 2.3-1-.8-1-1.4-.5-2.3zM152.6 112.8c.5-.4 1-.4 1.5 0l-.1.2h-1.3l-.1-.2zM132 133.5c.3-.3.5-.7 1-.8v.2c0 .5-.6.5-1 .6zM133.2 132.8c-.3 0-.1-.3-.2-.4-.1-.2 0-.4.3-.4l.3.2c0 .3-.2.4-.4.6z"/><path class="nor_st2" d="M154.6 113.4c-.3 0-.5-.2-.7-.3l.2-.2c.2.1.5.1.7.4l-.2.1zM167.4 115c-.3-.2-.3-.4 0-.8v.9z"/><path class="nor_st2" d="M154.8 113.3l.2.3c-.2 0-.3 0-.4-.2l.2-.1zM154.8 115.7v.2l-.3-.2v-.1h.3z"/></svg>