<?xml version="1.0" encoding="utf-8"?>
<!-- Generator: Adobe Illustrator 24.1.2, SVG Export Plug-In . SVG Version: 6.00 Build 0)  -->
<svg version="1.1" id="Layer_1" xmlns="http://www.w3.org/2000/svg" xmlns:xlink="http://www.w3.org/1999/xlink" x="0px" y="0px"
	 viewBox="0 0 200 200" style="enable-background:new 0 0 200 200;" xml:space="preserve">
<path style="fill:#050505;" d="M81.275,82.97c-1.656-3.936-3.608-7.748-5.025-11.783c-1.844-5.25-3.101-10.646-3.102-16.227
	c-0.002-7.019,1.651-13.658,5.018-19.872c2.197-4.055,4.679-7.913,7.351-11.661c3.898-5.467,7.531-11.103,10.813-16.962
	c0.722-1.288,1.634-2.246,3.188-2.483c1.564-0.239,2.899,0.143,3.765,1.458c1.193,1.811,2.238,3.718,3.36,5.576
	c3.736,6.192,8.131,11.94,12.097,17.974c2.838,4.318,5.37,8.836,6.859,13.845c1.579,5.313,2.124,10.727,1.485,16.238
	c-0.649,5.593-2.181,10.947-4.492,16.081c-1.111,2.469-2.188,4.953-3.281,7.431c-0.028,0.1-0.173,0.198-0.044,0.303
	c0.133,0.108,0.195-0.045,0.278-0.11c3.44-2.678,7.234-4.714,11.357-6.098c4.415-1.483,8.918-2.723,13.627-2.422
	c8.31,0.531,15.46,3.587,20.889,10.124c0.941,1.133,1.844,2.295,2.748,3.457c2.496,3.21,3.865,6.853,4.603,10.82
	c0.996,5.355,0.878,10.706,0.28,16.077c-0.195,1.75-0.439,3.497-0.907,5.195c-0.467,1.696-1.375,3.012-3.274,3.352
	c-1.559,0.28-2.875-0.146-3.785-1.434c-1.3-1.838-2.716-3.55-4.401-5.059c-4.101-3.673-8.777-6.284-14.084-7.734
	c-2.243-0.613-4.436-1.372-6.835-1.412c-3.443-0.058-6.66,0.746-9.797,2.015c-2.015,0.815-3.975,1.756-5.905,2.762
	c-0.896,0.467-1.628,1.106-2.347,1.78c0.186,0.352,0.477,0.183,0.698,0.183c4.969,0.015,9.938,0.001,14.907,0.028
	c1.529,0.008,2.935,0.398,3.778,1.836c0.46,0.784,0.634,1.672,0.636,2.569c0.013,6.059,0.013,12.118,0.004,18.177
	c-0.004,2.901-1.613,4.485-4.552,4.484c-4.809-0.002-9.617-0.02-14.426-0.032c-0.316-0.001-0.633,0-1.066,0
	c1.385,2.786,2.987,5.309,4.811,7.682c3.783,4.921,8.281,9.09,13.533,12.403c3.297,2.08,6.893,3.301,10.834,3.495
	c1.752,0.086,3.513,0.209,5.251,0.531c2.244,0.415,2.91,1.95,3.11,3.609c0.185,1.533-1.006,3.099-2.659,3.724
	c-4.503,1.701-9.142,2.903-13.874,3.76c-6.232,1.129-12.399,0.771-18.42-1.114c-2.623-0.821-4.914-2.44-7.177-4.009
	c-1.153-0.799-2.273-1.646-3.499-2.537c-0.142,1.335-0.504,2.544-0.764,3.776c-0.633,3.008-2.03,5.702-3.454,8.38
	c-1.602,3.012-3.435,5.905-4.648,9.117c-0.284,0.751-0.506,1.516-0.647,2.3c-0.328,1.821-1.406,2.871-3.2,3.228
	c-0.171,0.034-0.401-0.043-0.484,0.206c-0.385,0-0.77,0-1.154,0c-0.813-0.506-1.807-0.74-2.358-1.639
	c-0.234-0.381-0.494-0.722-0.58-1.189c-0.6-3.256-2.167-6.113-3.731-8.973c-1.606-2.937-3.305-5.829-4.38-9.025
	c-0.643-1.91-1.028-3.884-1.46-5.946c-0.675,0.49-1.311,0.948-1.944,1.411c-2.848,2.08-5.77,4.074-9.13,5.21
	c-3.109,1.051-6.373,1.345-9.647,1.54c-5.524,0.33-10.813-0.892-16.092-2.254c-2.077-0.536-4.09-1.267-6.126-1.932
	c-2.479-0.809-3.12-2.555-2.975-4.041c0.225-2.313,1.615-3.403,4.09-3.613c2.585-0.219,5.178-0.36,7.741-0.79
	c2.664-0.446,5.091-1.552,7.335-2.961c7.767-4.876,13.95-11.285,18.316-19.392c0.162-0.301,0.335-0.597,0.572-1.019
	c-0.415,0-0.72,0-1.025,0c-4.648-0.004-9.297,0.006-13.945-0.022c-1.523-0.009-2.934-0.358-3.803-1.791
	c-0.476-0.784-0.654-1.667-0.656-2.561c-0.017-6.123-0.02-12.246-0.004-18.369c0.007-2.769,1.642-4.35,4.481-4.354
	c4.52-0.006,9.04,0.011,13.56,0.018c0.309,0,0.618,0,1.125,0c-0.646-0.602-1.135-1.089-1.751-1.408
	c-3.81-1.972-7.651-3.887-11.913-4.694c-2.825-0.535-5.653-0.587-8.466,0.187c-3.395,0.935-6.813,1.815-9.922,3.524
	c-4.472,2.458-8.57,5.386-11.451,9.721c-0.895,1.347-2.116,2.029-3.705,1.883c-1.956-0.18-3.133-1.385-3.593-3.223
	c-1.318-5.263-1.619-10.622-1.386-16.024c0.097-2.248,0.541-4.441,0.941-6.647c0.649-3.577,2.21-6.699,4.368-9.586
	c2.604-3.483,5.382-6.776,9.151-9.072c6.032-3.675,12.56-5.257,19.577-4.285c5.911,0.819,11.518,2.674,16.667,5.75
	c1.37,0.818,2.641,1.802,3.957,2.709c0.069,0.05,0.179,0.158,0.202,0.142C81.432,83.188,81.342,83.075,81.275,82.97z M88.746,94.363
	c-0.103-0.122-0.209-0.241-0.307-0.366c-3.096-3.92-6.553-7.49-10.689-10.303c-5.405-3.676-11.419-5.864-17.903-6.675
	c-6.268-0.784-12.076,0.632-17.48,3.853c-3.49,2.08-6.09,5.074-8.463,8.278c-1.327,1.792-2.636,3.617-3.353,5.779
	c-1.883,5.676-2.019,11.511-1.586,17.394c0.176,2.395,0.457,4.784,1.049,7.117c0.197,0.777,0.535,1.539,1.477,1.715
	c0.936,0.175,1.391-0.453,1.829-1.113c3.031-4.564,7.38-7.598,12.047-10.214c3.521-1.973,7.444-2.88,11.303-3.929
	c2.136-0.581,4.316-0.58,6.488-0.377c4.069,0.38,7.762,1.976,11.489,3.534c3.641,1.522,6.415,4.036,8.918,6.952
	c0.169,0.197,0.456,0.355,0.412,0.723c-0.328,0-0.644,0-0.959,0c-6.413-0.005-12.826-0.014-19.239-0.014
	c-1.4,0-1.898,0.467-1.9,1.814c-0.01,6.221-0.011,12.441,0.001,18.662c0.002,1.244,0.503,1.723,1.753,1.785
	c0.256,0.013,0.513,0.004,0.769,0.004c5.804,0.008,11.608,0.022,17.411,0.016c0.614-0.001,0.877,0.021,0.531,0.752
	c-0.914,1.935-1.867,3.848-2.967,5.684c-3.958,6.606-9.109,12.111-15.36,16.593c-3.872,2.777-8.012,4.918-12.863,5.346
	c-2.073,0.183-4.146,0.377-6.218,0.566c-0.847,0.077-1.616,0.289-1.732,1.305c-0.106,0.931,0.463,1.354,1.265,1.648
	c5.581,2.047,11.287,3.587,17.231,4.039c4.178,0.317,8.35,0.024,12.393-1.086c3.306-0.908,6.104-2.893,8.897-4.825
	c2.177-1.506,4.17-3.225,6.092-5.352c-0.019,0.419-0.025,0.599-0.037,0.779c-0.292,4.512,0.675,8.765,2.606,12.828
	c1.398,2.944,3.115,5.719,4.562,8.635c1.006,2.028,1.961,4.081,2.298,6.362c0.116,0.782,0.673,1.228,1.474,1.272
	c0.863,0.047,1.657-0.519,1.765-1.313c0.147-1.087,0.496-2.107,0.875-3.123c1.186-3.189,3.016-6.049,4.603-9.034
	c1.245-2.34,2.46-4.695,3.175-7.269c0.843-3.037,1.214-6.118,0.839-9.341c0.161,0.093,0.258,0.12,0.311,0.184
	c2.28,2.701,5.089,4.785,8.029,6.675c1.875,1.205,3.761,2.469,5.915,3.139c3.802,1.183,7.74,1.496,11.689,1.356
	c6.367-0.226,12.43-1.933,18.378-4.103c0.804-0.293,1.354-0.742,1.23-1.683c-0.128-0.973-0.866-1.189-1.672-1.263
	c-1.659-0.152-3.319-0.307-4.981-0.411c-4.019-0.251-7.726-1.504-11.108-3.627c-8.577-5.385-15.134-12.645-19.765-21.645
	c-0.499-0.969-0.914-1.981-1.39-3.024c6.517,0,12.897,0,19.277,0c1.733,0,2.149-0.417,2.149-2.156
	c0.001-5.932,0-11.864,0.001-17.796c0-1.928-0.378-2.312-2.292-2.314c-6.67-0.009-13.339-0.015-20.009-0.034
	c-0.253-0.001-0.556,0.143-0.784-0.117c3.548-4.479,5.536-6.017,10.706-8.308c2.664-1.18,5.384-2.197,8.258-2.734
	c3.565-0.666,7.021-0.245,10.528,0.692c6.374,1.703,12.06,4.555,16.932,9.024c1.569,1.44,2.925,3.042,4.12,4.798
	c0.879,1.292,2.116,1.206,2.841-0.17c0.286-0.543,0.418-1.139,0.521-1.739c1.034-6.002,1.393-12.03,0.48-18.075
	c-0.478-3.169-1.241-6.261-3.081-8.994c-1.65-2.452-3.446-4.78-5.479-6.921c-1.6-1.684-3.445-3.088-5.484-4.18
	c-6.298-3.372-12.924-4.234-19.904-2.563c-6.855,1.641-13.005,4.574-18.222,9.384c-2.481,2.287-4.669,4.83-6.821,7.413
	c-0.068-0.045-0.135-0.091-0.203-0.136c1.251-2.792,2.509-5.579,3.75-8.375c2.57-5.794,5.503-11.432,7.503-17.472
	c2.383-7.201,2.97-14.525,1.401-21.96c-1.357-6.43-4.594-12.03-8.233-17.368c-4.806-7.051-9.83-13.953-14.014-21.41
	c-1.002-1.786-2.333-1.774-3.346,0.026c-3.137,5.575-6.586,10.951-10.262,16.182c-2.591,3.687-5.163,7.377-7.318,11.351
	c-2.347,4.33-4.246,8.805-4.926,13.715c-1.013,7.316-0.075,14.42,2.462,21.331c1.772,4.825,4.036,9.437,6.11,14.132
	c1.455,3.294,2.92,6.585,4.38,9.877C88.862,94.231,88.804,94.297,88.746,94.363z"/>
<path style="fill:#F5F7F9;" d="M111.616,94.274c2.152-2.583,4.34-5.126,6.821-7.413c5.217-4.81,11.367-7.742,18.222-9.384
	c6.98-1.671,13.606-0.81,19.904,2.563c2.039,1.092,3.884,2.496,5.484,4.18c2.033,2.14,3.829,4.469,5.479,6.921
	c1.84,2.733,2.603,5.826,3.081,8.994c0.913,6.045,0.554,12.073-0.48,18.075c-0.103,0.6-0.235,1.196-0.521,1.739
	c-0.725,1.376-1.962,1.462-2.841,0.17c-1.195-1.756-2.551-3.358-4.12-4.798c-4.871-4.469-10.558-7.321-16.932-9.024
	c-3.507-0.937-6.963-1.358-10.528-0.692c-2.874,0.537-5.594,1.553-8.258,2.734c-5.17,2.291-7.158,3.829-10.706,8.308
	c0.228,0.26,0.53,0.116,0.784,0.117c6.669,0.019,13.339,0.025,20.009,0.034c1.914,0.003,2.292,0.387,2.292,2.314
	c0,5.932,0.001,11.864-0.001,17.796c0,1.739-0.417,2.156-2.149,2.156c-6.38,0.001-12.76,0-19.277,0
	c0.477,1.042,0.892,2.055,1.39,3.024c4.631,9,11.188,16.26,19.765,21.645c3.382,2.123,7.089,3.376,11.108,3.627
	c1.662,0.104,3.322,0.259,4.981,0.411c0.805,0.074,1.543,0.29,1.672,1.263c0.124,0.94-0.426,1.39-1.23,1.683
	c-5.948,2.17-12.01,3.877-18.378,4.103c-3.948,0.14-7.887-0.173-11.689-1.356c-2.153-0.67-4.04-1.934-5.915-3.139
	c-2.94-1.89-5.749-3.974-8.029-6.675c-0.054-0.063-0.15-0.091-0.311-0.184c0.375,3.223,0.004,6.304-0.839,9.341
	c-0.715,2.574-1.93,4.928-3.175,7.269c-1.588,2.984-3.417,5.845-4.603,9.034c-0.378,1.016-0.727,2.037-0.875,3.123
	c-0.108,0.794-0.902,1.36-1.765,1.313c-0.802-0.044-1.359-0.49-1.474-1.272c-0.338-2.281-1.292-4.333-2.298-6.362
	c-1.447-2.916-3.164-5.691-4.562-8.635c-1.93-4.063-2.897-8.316-2.606-12.828c0.012-0.18,0.017-0.36,0.037-0.779
	c-1.921,2.127-3.914,3.846-6.092,5.352c-2.793,1.931-5.591,3.917-8.897,4.825c-4.042,1.11-8.214,1.403-12.393,1.086
	c-5.945-0.451-11.65-1.992-17.231-4.039c-0.802-0.294-1.371-0.718-1.265-1.648c0.116-1.016,0.885-1.227,1.732-1.305
	c2.073-0.189,4.145-0.383,6.218-0.566c4.851-0.428,8.991-2.569,12.863-5.346c6.251-4.482,11.402-9.987,15.36-16.593
	c1.1-1.836,2.052-3.749,2.967-5.684c0.345-0.731,0.083-0.753-0.531-0.752c-5.804,0.006-11.607-0.008-17.411-0.016
	c-0.257,0-0.514,0.008-0.769-0.004c-1.25-0.061-1.751-0.541-1.753-1.785c-0.011-6.221-0.011-12.441-0.001-18.662
	c0.002-1.347,0.5-1.814,1.9-1.814c6.413-0.001,12.826,0.008,19.239,0.014c0.316,0,0.631,0,0.959,0
	c0.045-0.368-0.242-0.526-0.412-0.723c-2.503-2.916-5.277-5.431-8.918-6.952c-3.727-1.558-7.42-3.154-11.489-3.534
	c-2.172-0.203-4.352-0.204-6.488,0.377c-3.859,1.05-7.782,1.956-11.303,3.929c-4.667,2.616-9.016,5.65-12.047,10.214
	c-0.438,0.66-0.893,1.288-1.829,1.113c-0.942-0.176-1.28-0.937-1.477-1.715c-0.592-2.333-0.872-4.722-1.049-7.117
	c-0.433-5.883-0.297-11.718,1.586-17.394c0.717-2.162,2.026-3.988,3.353-5.779c2.373-3.204,4.973-6.198,8.463-8.278
	c5.403-3.221,11.212-4.637,17.48-3.853c6.485,0.811,12.499,2.999,17.903,6.675c4.136,2.813,7.593,6.383,10.689,10.303
	c0.099,0.125,0.205,0.244,0.307,0.366c0.108,0.068,0.115,0.371,0.311,0.194c0.117-0.106-0.013-0.284-0.136-0.391
	c-1.46-3.292-2.925-6.583-4.38-9.877c-2.074-4.695-4.339-9.307-6.11-14.132c-2.537-6.91-3.475-14.015-2.462-21.331
	c0.68-4.91,2.579-9.385,4.926-13.715c2.154-3.974,4.727-7.664,7.318-11.351c3.676-5.231,7.125-10.608,10.262-16.182
	c1.013-1.8,2.344-1.812,3.346-0.026c4.184,7.457,9.207,14.359,14.014,21.41c3.639,5.338,6.876,10.939,8.233,17.368
	c1.569,7.435,0.982,14.759-1.401,21.96c-1.999,6.041-4.932,11.678-7.503,17.472c-1.24,2.796-2.499,5.584-3.75,8.375
	c-0.024,0.082-0.049,0.164-0.073,0.246c-0.151,0.077-0.262,0.248-0.138,0.343c0.18,0.138,0.181-0.146,0.285-0.214
	C111.53,94.433,111.573,94.354,111.616,94.274z M108.009,146.267c-0.077-0.055-0.096-0.235-0.229-0.141
	c-0.034,0.024,0.036,0.195,0.058,0.299c0.637,4.212,1.458,8.389,2.426,12.536c0.173,0.741,0.475,1.43,0.959,2.068
	c2.539,3.344,5.711,5.983,9.246,8.166c2.166,1.338,4.3,2.812,6.883,3.331c5.728,1.152,11.438,1.191,17.167-0.063
	c3.599-0.788,7.12-1.798,10.559-3.157c-1.486-0.201-2.967-0.343-4.449-0.459c-3.578-0.28-7.026-1.035-10.224-2.735
	c-5.912-3.142-10.89-7.435-15.195-12.511c-3.498-4.125-6.364-8.668-8.514-13.649c-0.158-0.367-0.173-0.926-0.817-0.915
	c-0.978,0.016-1.956,0.004-2.903,0.004c-0.107,0.329,0.084,0.454,0.183,0.6c1.542,2.284,3.091,4.562,4.638,6.842
	c4.641,6.84,9.272,13.687,13.936,20.511c0.48,0.702,0.364,0.874-0.419,1.049c-2.156,0.482-4.304,1.009-6.436,1.591
	c-0.68,0.186-1.004,0.021-1.384-0.543C118.35,161.473,113.177,153.872,108.009,146.267z M107.563,109.271
	c1.407-2.022,2.82-4.039,4.22-6.065c3.461-5.009,6.923-10.017,10.365-15.039c0.675-0.986,1.526-1.551,2.725-1.752
	c2.096-0.352,4.204-0.438,6.317-0.511c5.584-0.191,11.142-0.077,16.655,1.021c4.209,0.838,8.44,1.577,12.677,2.262
	c1.422,0.23,2.33,0.934,2.957,2.152c1.826,3.553,2.682,7.318,2.516,11.314c-0.131,3.152-1.878,4.468-4.924,3.598
	c-6.407-1.83-12.794-3.725-19.202-5.553c-3.106-0.886-6.131-2.128-9.395-2.358c-4.51-0.318-8.271,1.14-10.924,4.927
	c-3.015,4.304-5.974,8.647-8.953,12.976c-0.097,0.141-0.292,0.272-0.191,0.437c1.362,0.41,2.146-0.171,2.978-1.225
	c1.845-2.335,3.798-4.637,6.429-6.142c3.091-1.769,6.351-3.192,9.752-4.275c3.34-1.063,6.778-1.666,10.231-1.037
	c6.611,1.204,12.883,3.344,18.36,7.432c2.716,2.027,5.205,4.257,7.19,7.021c0.248,0.345,0.416,1.025,0.824,0.919
	c0.424-0.11,0.406-0.796,0.524-1.252c0.008-0.031,0.006-0.064,0.011-0.095c0.936-5.201,1.259-10.443,0.738-15.701
	c-0.338-3.411-0.91-6.794-2.768-9.807c-1.283-2.081-2.749-4.018-4.344-5.863c-4.755-5.501-10.837-8.308-18.037-8.55
	c-6.762-0.227-12.939,1.968-18.748,5.226c-4.158,2.332-7.547,5.623-10.616,9.226c-1.721,2.021-3.559,3.979-4.827,6.337
	c-1.717,3.194-2.06,6.768-2.653,10.266c-0.07,0.073-0.119,0.15-0.013,0.226C107.448,109.394,107.521,109.312,107.563,109.271z
	 M100.608,8.414c-0.66-1.077-0.892-0.081-1.099,0.284c-3.358,5.905-7.067,11.583-10.99,17.125c-1.609,2.273-3.204,4.553-4.636,6.947
	c-3.79,6.336-6.706,12.918-6.858,20.506c-0.121,6.027,0.933,11.801,3.122,17.366c2.494,6.339,5.408,12.5,8.278,18.674
	c2.293,4.932,4.008,10.024,5.107,15.344c0.89,4.309,1.351,8.668,1.728,13.042c-0.035,0.065-0.028,0.125,0.023,0.179
	c-0.03,0.124-0.06,0.248-0.09,0.372c-0.095-0.01-0.191-0.029-0.286-0.029c-10.277-0.03-20.555-0.053-30.832-0.101
	c-0.651-0.003-0.791,0.202-0.789,0.822c0.014,5.923-0.009,11.846-0.008,17.769c0,0.256-0.17,0.582,0.172,0.774
	c7.405,0.015,14.81,0.027,22.215,0.045c3.173,0.007,6.347,0.025,9.52,0.039c-0.841,7.618-2.066,15.178-3.943,22.606
	c-1.425,5.639-0.831,10.967,1.59,16.184c2.366,5.098,5.738,9.725,7.156,15.267c0.019,0.126,0.014,0.351,0.06,0.362
	c0.338,0.079,0.285-0.237,0.323-0.4c0.704-3.091,2.081-5.895,3.618-8.637c1.345-2.398,2.715-4.785,3.83-7.302
	c1.915-4.322,2.715-8.832,1.725-13.487c-0.826-3.881-1.74-7.742-2.466-11.645c-0.802-4.311-1.466-8.643-1.907-13.007
	c0.383,0.014,0.767,0.039,1.15,0.041c7.874,0.027,15.748,0.053,23.622,0.076c2.401,0.007,4.801,0.005,7.202,0.01
	c0.4,0.001,0.758,0.032,0.752-0.568c-0.036-3.135-0.044-6.271-0.062-9.407c0.012-0.12,0.024-0.239,0.036-0.359
	c0.016-2.901,0.032-5.801,0.049-8.702c0.001-0.134-0.028-0.248-0.168-0.303c-0.351-0.013-0.701-0.036-1.052-0.036
	c-10.555-0.015-21.109-0.028-31.664-0.041c0.126-2.595,0.438-5.172,0.785-7.742c0.796-5.889,1.987-11.694,4.386-17.163
	c2.868-6.538,5.86-13.021,8.789-19.531c2.127-4.728,3.718-9.611,4.248-14.798c0.546-5.353,0.225-10.624-1.528-15.75
	c-1.534-4.488-3.835-8.606-6.44-12.527c-3.969-5.974-8.308-11.701-12.002-17.862C102.387,11.369,101.497,9.892,100.608,8.414z
	 M92.963,109.595c-0.162-0.985-0.28-1.932-0.478-2.862c-0.551-2.592-0.836-5.272-2.108-7.65c-1.217-2.276-3.027-4.13-4.661-6.099
	c-6.589-7.939-14.934-12.858-25.171-14.431c-6.305-0.968-12.153,0.35-17.593,3.647c-3.054,1.851-5.309,4.512-7.501,7.238
	c-2.581,3.209-4.189,6.831-4.761,10.947c-0.793,5.711-0.542,11.381,0.365,17.044c0.122,0.761,0.126,1.583,0.702,2.244
	c0.099-0.109,0.174-0.171,0.224-0.248c3.288-5.002,8.013-8.325,13.16-11.1c3.694-1.992,7.785-2.907,11.816-3.946
	c0.897-0.231,1.819-0.33,2.754-0.383c4.121-0.235,8,0.752,11.821,2.163c5.359,1.978,10.17,4.741,13.567,9.479
	c0.76,1.059,1.585,1.287,2.801,1.014c-0.103-0.16-0.181-0.288-0.265-0.412c-2.921-4.288-5.845-8.573-8.763-12.863
	c-1.194-1.756-2.85-2.914-4.768-3.746c-3.247-1.407-6.517-1.065-9.783-0.107c-8.204,2.407-16.358,4.986-24.608,7.237
	c-2.542,0.694-4.332-0.58-4.503-3.212c-0.274-4.223,0.591-8.216,2.557-11.964c0.51-0.973,1.212-1.68,2.385-1.886
	c5.553-0.976,11.077-2.154,16.655-2.95c5.761-0.822,11.578-0.568,17.378-0.188c2.237,0.147,3.799,1.11,5.071,3.048
	c4.269,6.505,8.705,12.902,13.083,19.335C92.49,109.168,92.554,109.484,92.963,109.595z M136.587,86.879
	c-3.839-0.037-6.853-0.051-9.855,0.248c-1.667,0.166-3.128,0.484-4.224,2.126c-4.439,6.649-9.027,13.198-13.576,19.772
	c-0.429,0.62-0.707,1.249-0.781,2.009c-0.151,1.562-0.347,3.12-0.568,4.673c-0.107,0.752-0.056,1.225,0.91,1.068
	c0.531-0.086,1.095-0.071,1.631,0c0.746,0.099,1.133-0.238,1.534-0.829c2.945-4.34,5.925-8.657,8.903-12.974
	c3.328-4.824,8.014-6.299,13.598-5.394c2.881,0.467,5.627,1.489,8.425,2.289c6.394,1.829,12.767,3.732,19.161,5.563
	c1.859,0.532,3.111-0.383,3.243-2.3c0.283-4.09-0.559-7.949-2.498-11.563c-0.395-0.736-0.938-1.239-1.832-1.38
	c-2.434-0.385-4.858-0.83-7.285-1.258C147.543,87.9,141.757,86.487,136.587,86.879z M65.922,87.29
	c-4.371-0.109-8.698,0.197-12.993,1.081c-3.948,0.813-7.921,1.523-11.903,2.151c-1.256,0.198-2.02,0.723-2.568,1.825
	c-1.676,3.365-2.452,6.909-2.301,10.665c0.102,2.545,1.26,3.442,3.671,2.736c7.024-2.058,14.044-4.133,21.06-6.218
	c2.945-0.875,5.869-1.958,8.991-1.8c4.068,0.206,7.509,1.77,9.886,5.229c2.626,3.821,5.342,7.588,7.771,11.531
	c1.15,1.868,2.46,2.585,4.548,2.282c0.577-0.084,0.664-0.232,0.607-0.735c-0.134-1.177-0.276-2.357-0.322-3.539
	c-0.06-1.519-0.595-2.799-1.493-4.027c-1.509-2.063-2.891-4.219-4.332-6.333c-2.935-4.306-5.879-8.605-8.803-12.918
	c-0.531-0.782-1.16-1.243-2.144-1.414C72.384,87.248,69.152,87.306,65.922,87.29z M87.182,139.015c-0.85,0-1.552,0.041-2.247-0.013
	c-0.552-0.043-0.785,0.202-0.994,0.667c-0.575,1.283-1.154,2.567-1.814,3.808c-3.937,7.407-9.239,13.648-15.923,18.735
	c-4.723,3.594-9.791,6.297-15.846,6.727c-1.77,0.126-3.535,0.318-5.302,0.48c7.34,2.728,14.775,4.751,22.692,3.987
	c2.425-0.234,4.924-0.29,7.146-1.33c5.026-2.353,9.619-5.371,13.298-9.608c0.601-0.692,1.373-1.324,1.602-2.246
	c1.209-4.875,2.059-9.821,2.907-14.779c-0.236,0.023-0.308,0.166-0.4,0.3c-4.964,7.232-9.931,14.461-14.897,21.692
	c-1.351,1.967-1.351,1.971-3.656,1.41c-1.98-0.482-3.958-0.972-6.034-1.482C74.219,157.892,80.647,148.532,87.182,139.015z
	 M69.295,166.778c1.942,0.469,3.809,0.886,5.653,1.386c0.545,0.148,0.783,0.021,1.081-0.415
	c5.153-7.521,10.324-15.029,15.489-22.542c0.198-0.288,0.373-0.571,0.416-0.949c0.165-1.464,0.346-2.927,0.572-4.382
	c0.097-0.624,0.034-0.928-0.716-0.868c-0.86,0.069-1.733,0.055-2.595,0.001c-0.614-0.039-0.968,0.169-1.32,0.684
	c-3.822,5.602-7.677,11.181-11.517,16.77C74.024,159.862,71.699,163.267,69.295,166.778z M130.651,167.211
	c-0.091-0.166-0.128-0.248-0.178-0.321c-5.739-8.462-11.554-16.874-17.163-25.42c-1.271-1.936-2.588-2.831-4.838-2.456
	c-0.505,0.084-0.708,0.097-0.611,0.69c0.242,1.483,0.403,2.979,0.597,4.47c0.082,0.63,0.129,1.247,0.517,1.815
	c5.041,7.391,10.066,14.793,15.082,22.2c0.268,0.396,0.504,0.547,1.006,0.413C126.883,168.116,128.718,167.687,130.651,167.211z"/>
<path style="fill:#FEFEFE;" d="M81.275,82.97c0.067,0.104,0.157,0.217,0.016,0.316c-0.023,0.016-0.132-0.092-0.202-0.142
	C81.151,83.087,81.213,83.029,81.275,82.97z"/>
<path style="fill:#FEFEFE;" d="M119.544,82.78c-0.083,0.065-0.146,0.218-0.278,0.11c-0.129-0.105,0.015-0.203,0.044-0.303
	C119.388,82.651,119.466,82.716,119.544,82.78z"/>
<path style="fill:#0352A1;" d="M95.192,118.252c0.03-0.124,0.06-0.248,0.09-0.371c0.018-0.018,0.054-0.045,0.05-0.055
	c-0.018-0.044-0.048-0.084-0.074-0.125c-0.377-4.373-0.838-8.733-1.728-13.042c-1.099-5.32-2.814-10.412-5.107-15.344
	c-2.87-6.174-5.784-12.336-8.278-18.674c-2.189-5.565-3.242-11.339-3.122-17.366c0.152-7.588,3.068-14.17,6.858-20.506
	c1.432-2.394,3.027-4.674,4.636-6.947c3.923-5.542,7.633-11.22,10.99-17.125c0.207-0.365,0.439-1.361,1.099-0.284
	c-0.701,0.137-0.396,0.695-0.396,1.063c-0.012,35.963-0.008,71.927-0.016,107.89c0,0.65,0.083,1.276,0.259,1.889
	c0.138,0.483,0.12,0.876-0.111,1.365c-0.22,0.465-0.538,1.214,0.526,1.32c0.513,0.051,0.499,0.505,0.492,0.898
	c-0.007,0.41,0.08,0.957-0.492,0.983c-0.756,0.035-0.66,0.499-0.674,0.982c-0.021,0.744,0.094,1.501-0.145,2.481
	c-0.281-0.534-0.454-0.865-0.63-1.194c-0.332-0.621-0.647-1.252-1.004-1.859c-0.386-0.658-1.042-0.277-1.577-0.355
	c-0.232-0.034-0.489,0.044-0.488,0.332c0.004,0.924-0.285,1.943,0.129,2.739c0.26,0.498,1.189,0.117,1.814,0.187
	c0.127,0.014,0.259-0.01,0.384,0.01c0.857,0.135,1.211,0.801,0.842,1.57c-0.595,1.242-1.196,2.481-1.775,3.73
	c-0.087,0.188-0.4,0.556,0.016,0.607c0.723,0.089,1.518,0.167,2.185-0.049c0.528-0.171,0.223-0.91,0.238-1.391
	c0.038-1.174,0.012-2.349,0.012-3.524c0.062-0.001,0.125-0.002,0.187-0.003c0.783,1.559,1.566,3.118,2.349,4.677
	c0.178-1.538,0.17-3.027,0.183-4.515c0.004-0.408-0.167-0.57-0.56-0.597c-0.664-0.046-1.327-0.122-2.114-0.197
	c1.614-3.11,3.203-6.171,4.792-9.232c10.555,0.013,21.109,0.026,31.664,0.041c0.351,0,0.701,0.024,1.052,0.036
	c0,2.082-0.02,4.164,0.01,6.246c0.013,0.919-0.155,1.849,0.109,2.759c-0.012,0.12-0.024,0.239-0.036,0.359
	c-0.481,0.005-0.961,0.015-1.442,0.015c-3.494,0.002-6.987,0.002-10.481,0.005c-0.405,0-0.871-0.107-0.865,0.565
	c0.013,1.499,0.378,2.874,1.542,3.886c1.539,1.337,3.458,1.397,5.318,0.149c0.691-0.464,1.077-0.275,1.512,0.295
	c0.49,0.641,0.21,1.029-0.341,1.409c-1.345,0.929-2.829,1.292-4.451,1.213c-3.37-0.164-6.246-2.813-6.465-5.982
	c-0.109-1.58-0.109-1.58-1.718-1.534c-0.096,0.003-0.192,0.004-0.288,0.002c-0.303-0.007-0.522,0.113-0.484,0.441
	c0.133,1.134-0.583,1.163-1.391,1.108c-0.319-0.022-0.643,0.021-0.961-0.009c-0.573-0.055-0.816,0.152-0.783,0.756
	c0.042,0.767,0.043,1.54,0,2.307c-0.035,0.624,0.176,0.848,0.814,0.827c1.281-0.043,2.564,0.002,3.846-0.024
	c0.739-0.015,1.145,0.219,1.148,1.036c0.003,0.794-0.349,1.078-1.113,1.069c-2.115-0.023-4.231-0.006-6.346-0.008
	c-1.207-0.001-1.36-0.154-1.364-1.401c-0.006-1.763,0.001-3.526-0.003-5.289c-0.001-0.371,0.096-0.815-0.518-0.808
	c-0.69,0.008-1.38,0.002-2.281,0.002c0.503,0.466,0.89,0.742,1.174,1.1c1.878,2.37,0.534,5.548-2.59,6.204
	c-1.526,0.32-3.063,0.161-4.596,0.192c-0.507,0.01-0.757,0.097-0.447,0.643c0.314,0.554,0.609,1.119,0.913,1.679
	c0.441,4.364,1.105,8.695,1.907,13.007c0.726,3.903,1.641,7.764,2.466,11.645c0.99,4.655,0.19,9.166-1.725,13.487
	c-1.116,2.517-2.486,4.904-3.83,7.302c-1.538,2.743-2.914,5.547-3.618,8.637c-0.037,0.164,0.015,0.48-0.323,0.4
	c-0.046-0.011-0.041-0.236-0.06-0.362c0.162-0.459,0.204-0.932,0.204-1.418c-0.002-17.693,0.002-35.387,0.002-53.08
	c0-1.941-0.015-1.853-1.982-1.972c-1.323-0.08-2.225,0.18-2.554,1.585c-0.069,0.297-0.311,0.553-0.473,0.828
	c-3.173-0.013-6.347-0.031-9.52-0.039c-7.405-0.018-14.81-0.03-22.215-0.045c-0.004-3.045,0.01-6.091-0.026-9.136
	c-0.008-0.683,0.212-0.902,0.879-0.859c0.798,0.051,1.604-0.019,2.403,0.026c0.539,0.03,0.816-0.136,0.946-0.678
	c0.892-3.714,4.437-5.57,8.306-4.789c2.626,0.529,4.409,2.092,5.076,4.776c0.091,0.367,0.161,0.788,0.721,0.681
	c0.545-0.104,0.352-0.538,0.359-0.847c0.023-0.961,0.008-1.923,0.008-2.885c0-1.904,0-1.871,1.872-1.877
	c0.816-0.003,1.067,0.315,1.038,1.089c-0.044,1.185,0.025,2.373-0.025,3.558c-0.03,0.723,0.138,1.042,0.946,0.994
	c1.182-0.071,2.373-0.053,3.557-0.001c0.7,0.031,0.971-0.161,0.938-0.905c-0.057-1.28-0.024-2.564-0.011-3.846
	c0.008-0.803,0.554-0.876,1.194-0.884c0.661-0.008,0.922,0.259,0.91,0.917c-0.025,1.314-0.015,2.629-0.002,3.943
	c0.003,0.289-0.133,0.716,0.367,0.734c0.512,0.019,0.394-0.41,0.397-0.702c0.012-1.282,0.018-2.565,0.001-3.847
	c-0.01-0.722,0.29-1.068,1.033-1.045c0.769,0.024,1.539,0.009,2.308,0c0.174-0.002,0.436,0.04,0.399-0.254
	c-0.028-0.225-0.237-0.287-0.444-0.26c-0.38,0.049-0.758,0.106-1.136,0.172c-0.954,0.166-0.979-0.525-1.131-1.162
	c-0.159-0.669,0.037-1.039,0.713-1.196C95.834,119.019,95.702,118.656,95.192,118.252z M91.007,131.523
	c-0.449,1.974-1.933,2.899-4.231,2.636c-1.511-0.173-2.299-1.26-2.323-3.218c-0.01-0.801-0.002-1.602-0.002-2.403
	c0-1.794-0.046-3.59,0.021-5.382c0.03-0.808-0.424-0.687-0.9-0.687c-0.474,0.001-0.919-0.124-0.902,0.685
	c0.057,2.626,0.003,5.254,0.028,7.881c0.016,1.713,1.19,3.189,2.899,3.794c0.749,0.265,1.516,0.223,2.282,0.213
	c2.352-0.033,4.065-1.719,4.088-4.061c0.026-2.595-0.021-5.19,0.024-7.785c0.013-0.725-0.286-0.812-0.854-0.692
	c-0.449,0.203-0.259,0.61-0.261,0.925c-0.018,2.391-0.016,4.783-0.011,7.174C90.865,130.913,90.775,131.246,91.007,131.523z
	 M80.652,128.514c-0.005-3.11-1.962-5.428-5.042-5.974c-3.184-0.564-6.258,0.998-7.203,3.77c-0.773,2.27-0.562,4.477,1.129,6.287
	c1.804,1.931,4.127,2.416,6.617,1.747c0.932-0.25,1.357,0.018,1.744,0.742c0.253,0.474,1.496,0.891,1.768,0.537
	c0.363-0.473-0.192-0.831-0.411-1.204c-0.142-0.242-0.357-0.462-0.586-0.628c-0.34-0.247-0.381-0.388-0.019-0.69
	C80.076,131.916,80.663,130.34,80.652,128.514z M109.643,127.988c1.38-1.161,1.781-2.302,1.288-3.676
	c-0.503-1.402-1.703-1.739-3.002-1.802c-1.278-0.062-2.561-0.029-3.842-0.045c-0.346-0.004-0.604-0.003-0.602,0.487
	c0.017,3.715,0.01,7.43,0.006,11.145c0,0.283,0.02,0.524,0.387,0.509c1.881-0.074,3.785,0.235,5.64-0.285
	c1.36-0.381,2.345-1.173,2.591-2.648C112.378,130.044,111.624,128.92,109.643,127.988z M114.151,128.504
	c0,1.793,0.018,3.586-0.011,5.378c-0.009,0.53,0.12,0.731,0.687,0.723c2.081-0.03,4.162-0.008,6.243-0.017
	c0.286-0.001,0.661,0.134,0.688-0.405c0.029-0.586-0.356-0.494-0.698-0.494c-1.473,0-2.946-0.013-4.418,0.019
	c-0.516,0.011-0.735-0.102-0.716-0.674c0.042-1.247,0.033-2.497,0.002-3.745c-0.012-0.492,0.12-0.691,0.638-0.656
	c0.605,0.041,1.216,0.016,1.824,0.007c0.33-0.005,0.737,0.12,0.716-0.472c-0.021-0.597-0.45-0.42-0.761-0.43
	c-0.608-0.02-1.218-0.032-1.824,0.002c-0.467,0.026-0.604-0.147-0.592-0.601c0.028-1.056,0.043-2.114-0.004-3.169
	c-0.027-0.597,0.236-0.68,0.737-0.669c1.216,0.027,2.433,0.013,3.649,0.006c0.326-0.002,0.74,0.127,0.708-0.47
	c-0.028-0.539-0.415-0.386-0.696-0.388c-1.825-0.011-3.65,0.023-5.474-0.021c-0.647-0.016-0.719,0.25-0.71,0.792
	C114.17,124.982,114.151,126.743,114.151,128.504z M93.912,128.515c0,1.795,0.022,3.591-0.013,5.386
	c-0.011,0.56,0.173,0.709,0.71,0.702c2.051-0.026,4.103-0.005,6.155-0.016c0.311-0.002,0.745,0.167,0.756-0.437
	c0.01-0.6-0.413-0.457-0.733-0.458c-1.475-0.006-2.95-0.01-4.424,0.015c-0.459,0.008-0.693-0.067-0.677-0.615
	c0.039-1.281,0.029-2.565,0.003-3.846c-0.009-0.449,0.109-0.635,0.588-0.611c0.703,0.035,1.41,0.003,2.115,0.011
	c0.289,0.003,0.491-0.037,0.495-0.405c0.004-0.363-0.109-0.523-0.494-0.512c-0.705,0.02-1.412-0.019-2.115,0.013
	c-0.466,0.022-0.613-0.145-0.601-0.604c0.027-1.057,0.032-2.116-0.001-3.173c-0.015-0.499,0.134-0.676,0.647-0.663
	c1.249,0.032,2.5,0.017,3.75,0.005c0.314-0.003,0.744,0.156,0.718-0.457c-0.023-0.548-0.412-0.389-0.69-0.391
	c-1.827-0.012-3.655,0.02-5.482-0.021c-0.633-0.014-0.732,0.234-0.721,0.789C93.931,124.989,93.911,126.752,93.912,128.515z
	 M128.746,134.625c1.592,0.027,2.753-0.297,3.791-0.993c0.199-0.133,0.726-0.154,0.436-0.656c-0.281-0.487-0.569-0.3-0.925-0.062
	c-1.245,0.832-2.619,1.027-4.046,0.629c-2.057-0.575-3.116-2.06-3.419-4.089c-0.321-2.148,0.221-4.061,2.077-5.334
	c1.736-1.19,3.574-1.014,5.35,0.02c0.328,0.191,0.605,0.53,0.936,0.009c0.351-0.553-0.221-0.571-0.442-0.715
	c-2.421-1.584-6.055-1.18-8.074,0.872c-1.675,1.702-2.201,4.365-1.238,6.599C124.3,133.472,126.422,134.493,128.746,134.625z
	 M95.414,121.065c1.448-0.294,2.888-0.567,4.317-0.885c0.491-0.11,0.219-0.509,0.186-0.793c-0.039-0.333-0.113-0.636-0.579-0.538
	c-1.371,0.287-2.745,0.562-4.118,0.844c-0.366,0.075-0.47,0.312-0.326,0.634C95.017,120.601,94.86,121.097,95.414,121.065z"/>
<path style="fill:#359BD5;" d="M105.035,118.221c-1.589,3.061-3.178,6.123-4.792,9.232c0.787,0.075,1.449,0.151,2.114,0.197
	c0.392,0.027,0.563,0.189,0.56,0.597c-0.014,1.489-0.005,2.978-0.183,4.515c-0.783-1.559-1.566-3.118-2.349-4.677
	c-0.062,0.001-0.125,0.002-0.187,0.003c0,1.175,0.025,2.351-0.012,3.524c-0.015,0.481,0.289,1.22-0.238,1.391
	c-0.668,0.216-1.462,0.138-2.185,0.049c-0.416-0.051-0.103-0.42-0.016-0.607c0.579-1.249,1.18-2.488,1.775-3.73
	c0.369-0.77,0.015-1.435-0.842-1.57c-0.125-0.02-0.257,0.004-0.384-0.01c-0.624-0.07-1.554,0.311-1.814-0.187
	c-0.414-0.795-0.125-1.815-0.129-2.739c-0.001-0.288,0.256-0.366,0.488-0.332c0.535,0.078,1.191-0.302,1.577,0.355
	c0.356,0.607,0.672,1.238,1.004,1.859c0.176,0.329,0.348,0.66,0.63,1.194c0.239-0.98,0.124-1.736,0.145-2.481
	c0.014-0.484-0.082-0.947,0.674-0.982c0.572-0.027,0.485-0.574,0.492-0.983c0.007-0.393,0.021-0.847-0.492-0.898
	c-1.064-0.106-0.746-0.855-0.526-1.32c0.232-0.489,0.249-0.883,0.111-1.365c-0.175-0.613-0.259-1.239-0.259-1.889
	c0.009-35.963,0.005-71.927,0.016-107.89c0-0.367-0.304-0.926,0.396-1.063c0.888,1.478,1.778,2.955,2.665,4.433
	c3.694,6.161,8.033,11.887,12.002,17.862c2.605,3.921,4.906,8.04,6.44,12.527c1.753,5.126,2.074,10.397,1.528,15.75
	c-0.53,5.187-2.121,10.071-4.248,14.798c-2.929,6.511-5.921,12.994-8.789,19.531c-2.399,5.469-3.59,11.274-4.386,17.163
	C105.473,113.049,105.161,115.627,105.035,118.221z"/>
<path style="fill:#0352A1;" d="M92.963,109.595c-0.409-0.111-0.473-0.427-0.625-0.649c-4.379-6.433-8.814-12.83-13.083-19.335
	c-1.272-1.938-2.834-2.901-5.071-3.048c-5.8-0.38-11.616-0.634-17.378,0.188c-5.578,0.796-11.102,1.974-16.655,2.95
	c-1.172,0.206-1.874,0.913-2.385,1.886c-1.966,3.748-2.831,7.741-2.557,11.964c0.171,2.633,1.961,3.906,4.503,3.212
	c8.25-2.251,16.404-4.83,24.608-7.237c3.266-0.958,6.536-1.3,9.783,0.107c1.918,0.831,3.574,1.99,4.768,3.746
	c2.918,4.29,5.842,8.576,8.763,12.863c0.084,0.124,0.162,0.252,0.265,0.412c-1.216,0.273-2.042,0.045-2.801-1.014
	c-3.397-4.738-8.209-7.502-13.567-9.479c-3.821-1.41-7.7-2.398-11.821-2.163c-0.935,0.053-1.857,0.152-2.754,0.383
	c-4.031,1.039-8.122,1.955-11.816,3.946c-5.147,2.775-9.872,6.098-13.16,11.1c-0.051,0.077-0.125,0.139-0.224,0.248
	c-0.575-0.661-0.58-1.483-0.702-2.244c-0.907-5.663-1.158-11.333-0.365-17.044c0.571-4.117,2.18-7.738,4.761-10.947
	c2.192-2.726,4.448-5.387,7.501-7.238c5.44-3.297,11.288-4.616,17.593-3.647c10.237,1.572,18.582,6.492,25.171,14.431
	c1.634,1.969,3.444,3.823,4.661,6.099c1.272,2.378,1.557,5.058,2.108,7.65C92.683,107.663,92.801,108.61,92.963,109.595z"/>
<path style="fill:#359BD5;" d="M107.452,109.161c0.595-3.498,0.938-7.071,2.654-10.265c1.267-2.358,3.106-4.316,4.827-6.337
	c3.069-3.603,6.459-6.895,10.616-9.226c5.809-3.258,11.987-5.453,18.748-5.226c7.201,0.241,13.282,3.049,18.037,8.55
	c1.595,1.845,3.061,3.782,4.344,5.863c1.858,3.013,2.43,6.395,2.768,9.807c0.52,5.258,0.197,10.5-0.738,15.701
	c-0.006,0.031-0.003,0.065-0.011,0.095c-0.118,0.456-0.1,1.142-0.524,1.252c-0.408,0.106-0.576-0.574-0.824-0.919
	c-1.986-2.764-4.475-4.994-7.19-7.021c-5.477-4.088-11.749-6.228-18.36-7.432c-3.453-0.629-6.892-0.026-10.231,1.037
	c-3.401,1.082-6.661,2.506-9.752,4.275c-2.631,1.505-4.584,3.806-6.429,6.142c-0.832,1.054-1.616,1.634-2.978,1.225
	c-0.102-0.165,0.094-0.296,0.191-0.437c2.979-4.329,5.938-8.672,8.953-12.976c2.653-3.786,6.414-5.245,10.924-4.927
	c3.264,0.23,6.29,1.472,9.395,2.358c6.407,1.828,12.795,3.723,19.202,5.553c3.046,0.87,4.793-0.445,4.924-3.598
	c0.166-3.996-0.69-7.761-2.516-11.314c-0.626-1.218-1.534-1.922-2.957-2.152c-4.237-0.685-8.468-1.424-12.677-2.262
	c-5.513-1.097-11.071-1.212-16.655-1.021c-2.113,0.072-4.221,0.159-6.317,0.511c-1.199,0.201-2.05,0.767-2.725,1.752
	c-3.442,5.022-6.904,10.03-10.365,15.039c-1.4,2.026-2.813,4.044-4.22,6.065C107.527,109.234,107.49,109.197,107.452,109.161z"/>
<path style="fill:#010101;" d="M136.587,86.879c5.17-0.392,10.956,1.021,16.787,2.049c2.427,0.428,4.851,0.873,7.285,1.258
	c0.894,0.141,1.437,0.644,1.832,1.38c1.939,3.614,2.781,7.473,2.498,11.563c-0.133,1.917-1.385,2.833-3.243,2.3
	c-6.394-1.831-12.766-3.734-19.161-5.563c-2.798-0.8-5.544-1.822-8.425-2.289c-5.585-0.905-10.27,0.57-13.598,5.394
	c-2.979,4.317-5.958,8.634-8.903,12.974c-0.401,0.591-0.788,0.928-1.534,0.829c-0.536-0.071-1.1-0.086-1.631,0
	c-0.966,0.157-1.017-0.316-0.91-1.068c0.221-1.553,0.417-3.112,0.568-4.673c0.074-0.76,0.351-1.388,0.781-2.009
	c4.549-6.575,9.137-13.124,13.576-19.772c1.096-1.642,2.557-1.96,4.224-2.126C129.735,86.829,132.748,86.842,136.587,86.879z"/>
<path style="fill:#010101;" d="M65.922,87.29c3.231,0.016,6.463-0.042,9.673,0.516c0.985,0.171,1.614,0.632,2.144,1.414
	c2.924,4.313,5.869,8.612,8.803,12.918c1.44,2.114,2.823,4.27,4.332,6.333c0.898,1.227,1.433,2.507,1.493,4.027
	c0.047,1.182,0.188,2.362,0.322,3.539c0.057,0.503-0.03,0.652-0.607,0.735c-2.088,0.303-3.398-0.414-4.548-2.282
	c-2.429-3.943-5.145-7.71-7.771-11.531c-2.377-3.458-5.818-5.023-9.886-5.229c-3.122-0.158-6.046,0.924-8.991,1.8
	c-7.016,2.085-14.036,4.159-21.06,6.218c-2.41,0.706-3.568-0.192-3.671-2.736c-0.151-3.756,0.625-7.299,2.301-10.665
	c0.549-1.102,1.312-1.627,2.568-1.825c3.982-0.628,7.954-1.338,11.903-2.151C57.224,87.487,61.551,87.181,65.922,87.29z"/>
<path style="fill:#359BD5;" d="M95.183,137.57c0.162-0.275,0.404-0.531,0.473-0.828c0.328-1.405,1.231-1.665,2.554-1.585
	c1.967,0.119,1.982,0.031,1.982,1.972c0,17.693-0.004,35.387-0.002,53.08c0,0.486-0.042,0.959-0.204,1.418
	c-1.418-5.542-4.79-10.169-7.156-15.267c-2.421-5.217-3.014-10.545-1.59-16.184C93.117,152.748,94.342,145.188,95.183,137.57z"/>
<path style="fill:#0352A1;" d="M87.182,139.015c-6.535,9.517-12.963,18.877-19.466,28.347c2.076,0.51,4.054,1,6.034,1.482
	c2.305,0.561,2.305,0.557,3.656-1.41c4.966-7.23,9.932-14.46,14.897-21.692c0.092-0.133,0.164-0.277,0.4-0.3
	c-0.848,4.958-1.699,9.904-2.907,14.779c-0.229,0.922-1.001,1.554-1.602,2.246c-3.679,4.237-8.272,7.255-13.298,9.608
	c-2.222,1.04-4.721,1.096-7.146,1.33c-7.917,0.763-15.352-1.26-22.692-3.987c1.767-0.162,3.532-0.354,5.302-0.48
	c6.056-0.43,11.123-3.134,15.846-6.727c6.684-5.086,11.986-11.328,15.923-18.735c0.659-1.24,1.239-2.525,1.814-3.808
	c0.208-0.465,0.441-0.71,0.994-0.667C85.63,139.056,86.332,139.015,87.182,139.015z"/>
<path style="fill:#359BD5;" d="M108.01,146.267c5.167,7.605,10.34,15.206,15.487,22.825c0.381,0.564,0.705,0.728,1.384,0.543
	c2.131-0.583,4.279-1.109,6.436-1.591c0.783-0.175,0.899-0.347,0.419-1.049c-4.664-6.824-9.295-13.671-13.936-20.511
	c-1.547-2.28-3.097-4.558-4.638-6.842c-0.099-0.147-0.29-0.271-0.183-0.6c0.947,0,1.925,0.012,2.903-0.004
	c0.643-0.011,0.658,0.549,0.817,0.915c2.149,4.981,5.015,9.524,8.514,13.649c4.305,5.076,9.283,9.369,15.195,12.511
	c3.198,1.7,6.646,2.455,10.224,2.735c1.483,0.116,2.963,0.258,4.449,0.459c-3.439,1.359-6.96,2.37-10.559,3.157
	c-5.729,1.254-11.439,1.215-17.167,0.063c-2.582-0.52-4.717-1.993-6.883-3.331c-3.535-2.184-6.707-4.822-9.246-8.166
	c-0.485-0.638-0.786-1.327-0.959-2.068c-0.968-4.147-1.789-8.324-2.426-12.536C107.896,146.373,107.953,146.32,108.01,146.267z"/>
<path style="fill:#359BD5;" d="M95.192,118.252c0.51,0.404,0.642,0.767-0.147,0.95c-0.676,0.157-0.872,0.527-0.713,1.196
	c0.152,0.637,0.176,1.329,1.131,1.162c0.377-0.066,0.756-0.123,1.136-0.172c0.207-0.027,0.416,0.034,0.444,0.26
	c0.037,0.294-0.225,0.252-0.399,0.254c-0.769,0.009-1.539,0.024-2.308,0c-0.743-0.024-1.043,0.323-1.033,1.045
	c0.017,1.282,0.011,2.565-0.001,3.847c-0.003,0.292,0.115,0.721-0.397,0.702c-0.499-0.018-0.364-0.446-0.367-0.734
	c-0.013-1.314-0.024-2.629,0.002-3.943c0.013-0.658-0.249-0.925-0.91-0.917c-0.64,0.008-1.186,0.08-1.194,0.884
	c-0.013,1.282-0.046,2.567,0.011,3.846c0.033,0.744-0.238,0.936-0.938,0.905c-1.184-0.052-2.375-0.07-3.557,0.001
	c-0.808,0.048-0.976-0.27-0.946-0.994c0.05-1.184-0.019-2.373,0.025-3.558c0.029-0.774-0.222-1.092-1.038-1.089
	c-1.872,0.007-1.872-0.027-1.872,1.877c0,0.962,0.015,1.924-0.008,2.885c-0.007,0.31,0.186,0.743-0.359,0.847
	c-0.561,0.107-0.63-0.314-0.721-0.681c-0.667-2.684-2.451-4.246-5.076-4.776c-3.869-0.78-7.414,1.075-8.306,4.789
	c-0.13,0.542-0.407,0.708-0.946,0.678c-0.799-0.045-1.605,0.025-2.403-0.026c-0.666-0.042-0.887,0.176-0.879,0.859
	c0.037,3.045,0.023,6.091,0.026,9.136c-0.342-0.192-0.172-0.518-0.172-0.774c-0.001-5.923,0.021-11.846,0.008-17.769
	c-0.001-0.62,0.139-0.825,0.789-0.822c10.277,0.048,20.555,0.071,30.832,0.101C95.001,118.224,95.097,118.242,95.192,118.252z"/>
<path style="fill:#010101;" d="M69.295,166.778c2.404-3.511,4.729-6.916,7.064-10.314c3.84-5.589,7.695-11.169,11.517-16.77
	c0.351-0.515,0.705-0.723,1.32-0.684c0.862,0.054,1.735,0.068,2.595-0.001c0.749-0.06,0.813,0.244,0.716,0.868
	c-0.226,1.455-0.407,2.919-0.572,4.382c-0.043,0.378-0.218,0.661-0.416,0.949c-5.165,7.512-10.336,15.021-15.489,22.542
	c-0.299,0.436-0.536,0.563-1.081,0.415C73.104,167.664,71.237,167.247,69.295,166.778z"/>
<path style="fill:#359BD5;" d="M105.17,137.51c-0.303-0.56-0.599-1.125-0.913-1.679c-0.309-0.546-0.059-0.633,0.447-0.643
	c1.533-0.03,3.07,0.129,4.596-0.192c3.124-0.656,4.468-3.833,2.59-6.204c-0.284-0.358-0.671-0.635-1.174-1.1
	c0.901,0,1.591,0.006,2.281-0.002c0.614-0.007,0.517,0.437,0.518,0.808c0.005,1.763-0.002,3.526,0.003,5.289
	c0.004,1.247,0.157,1.4,1.364,1.401c2.115,0.002,4.231-0.014,6.346,0.008c0.764,0.008,1.115-0.275,1.113-1.069
	c-0.003-0.817-0.409-1.052-1.148-1.036c-1.282,0.026-2.565-0.019-3.846,0.024c-0.639,0.022-0.85-0.203-0.814-0.827
	c0.044-0.767,0.042-1.54,0-2.307c-0.033-0.604,0.209-0.81,0.783-0.756c0.318,0.03,0.642-0.013,0.961,0.009
	c0.808,0.055,1.525,0.026,1.391-1.108c-0.039-0.328,0.18-0.448,0.484-0.441c0.096,0.002,0.192,0.001,0.288-0.002
	c1.609-0.046,1.609-0.046,1.718,1.534c0.219,3.169,3.095,5.818,6.465,5.982c1.622,0.079,3.107-0.284,4.451-1.213
	c0.551-0.38,0.831-0.768,0.341-1.409c-0.435-0.57-0.821-0.759-1.512-0.295c-1.86,1.248-3.779,1.189-5.318-0.149
	c-1.164-1.012-1.529-2.387-1.542-3.886c-0.006-0.673,0.46-0.565,0.865-0.565c3.494-0.003,6.987-0.003,10.481-0.005
	c0.481,0,0.961-0.01,1.442-0.015c0.018,3.136,0.026,6.271,0.062,9.407c0.007,0.6-0.351,0.569-0.752,0.568
	c-2.401-0.006-4.801-0.003-7.202-0.01c-7.874-0.023-15.748-0.049-23.622-0.076C105.936,137.549,105.553,137.524,105.17,137.51z"/>
<path style="fill:#010101;" d="M130.651,167.211c-1.933,0.476-3.768,0.905-5.588,1.391c-0.502,0.134-0.738-0.017-1.006-0.413
	c-5.017-7.407-10.042-14.809-15.082-22.2c-0.387-0.568-0.435-1.185-0.517-1.815c-0.194-1.491-0.355-2.987-0.597-4.47
	c-0.097-0.593,0.106-0.605,0.611-0.69c2.25-0.375,3.567,0.521,4.838,2.456c5.61,8.547,11.424,16.959,17.163,25.42
	C130.523,166.963,130.56,167.045,130.651,167.211z"/>
<path style="fill:#359BD5;" d="M137.87,127.303c-0.264-0.91-0.096-1.84-0.109-2.759c-0.03-2.082-0.01-4.164-0.01-6.246
	c0.14,0.055,0.169,0.17,0.168,0.303C137.902,121.502,137.886,124.402,137.87,127.303z"/>
<path style="fill:#050505;" d="M111.487,94.513c-0.105,0.068-0.105,0.353-0.285,0.214c-0.125-0.096-0.013-0.266,0.138-0.343
	C111.389,94.427,111.438,94.47,111.487,94.513z"/>
<path style="fill:#050505;" d="M88.921,94.165c0.123,0.107,0.253,0.284,0.136,0.391c-0.195,0.177-0.203-0.126-0.311-0.194
	C88.804,94.297,88.862,94.231,88.921,94.165z"/>
<path style="fill:#359BD5;" d="M107.839,146.426c-0.022-0.104-0.092-0.275-0.058-0.299c0.133-0.094,0.152,0.086,0.229,0.14
	C107.953,146.32,107.896,146.373,107.839,146.426z"/>
<path style="fill:#359BD5;" d="M95.259,117.701c0.026,0.041,0.055,0.081,0.074,0.125c0.004,0.01-0.033,0.036-0.05,0.055
	C95.232,117.826,95.224,117.766,95.259,117.701z"/>
<path style="fill:#359BD5;" d="M107.563,109.271c-0.043,0.041-0.115,0.122-0.124,0.116c-0.105-0.076-0.057-0.153,0.013-0.226
	C107.49,109.197,107.527,109.234,107.563,109.271z"/>
<path style="fill:#050505;" d="M111.34,94.384c0.024-0.082,0.049-0.164,0.073-0.246c0.068,0.045,0.135,0.091,0.203,0.136
	c-0.043,0.079-0.086,0.159-0.129,0.238C111.438,94.47,111.389,94.427,111.34,94.384z"/>
<path style="fill:#F5F7F9;" d="M80.653,128.515c0.009,1.825-0.578,3.401-2.004,4.588c-0.363,0.302-0.322,0.442,0.019,0.69
	c0.229,0.166,0.443,0.386,0.586,0.628c0.219,0.373,0.774,0.731,0.411,1.204c-0.271,0.354-1.514-0.063-1.768-0.537
	c-0.387-0.725-0.811-0.993-1.744-0.742c-2.491,0.669-4.814,0.184-6.617-1.747c-1.691-1.811-1.902-4.017-1.129-6.287
	c0.944-2.772,4.018-4.334,7.203-3.77C78.691,123.086,80.647,125.404,80.653,128.515z M69.762,128.461
	c0.004,1.616,0.573,3.041,1.58,3.997c0.292,0.277,0.532,0.452,0.998,0.263c1.353-0.551,2.766-0.56,4.146-0.126
	c0.547,0.172,0.837-0.009,1.152-0.372c0.902-1.042,1.285-2.276,1.339-3.623c0.096-2.406-1.255-4.516-3.265-5.133
	C72.578,122.504,69.754,124.875,69.762,128.461z M73.219,133.458c1.114,0.336,1.801,0.279,2.335-0.146
	C74.747,133.214,73.978,133.175,73.219,133.458z"/>
<path style="fill:#F5F7F9;" d="M109.643,127.988c1.981,0.932,2.735,2.056,2.464,3.686c-0.245,1.475-1.231,2.267-2.591,2.648
	c-1.855,0.519-3.758,0.21-5.64,0.285c-0.367,0.015-0.387-0.226-0.387-0.509c0.005-3.715,0.011-7.43-0.006-11.145
	c-0.002-0.49,0.256-0.491,0.602-0.487c1.281,0.017,2.564-0.017,3.842,0.045c1.299,0.063,2.499,0.4,3.002,1.802
	C111.423,125.687,111.022,126.827,109.643,127.988z M105.24,125.476c0,2.456,0.097,2.547,2.315,2.18
	c1.291-0.214,1.871-1.064,1.721-2.523c-0.143-1.394-1.07-1.923-3.362-1.786c-1.361,0.081-0.389,1.182-0.667,1.75
	C105.197,125.199,105.24,125.348,105.24,125.476z M105.24,131.079c0,0.702,0.013,1.405-0.005,2.106
	c-0.009,0.351,0.084,0.534,0.474,0.519c0.86-0.033,1.729,0.024,2.58-0.078c0.945-0.113,1.691-0.602,1.935-1.598
	c0.252-1.031,0.306-2.119-0.589-2.836c-1.23-0.985-2.799-0.733-4.147-0.473c-0.61,0.118-0.118,1.417-0.247,2.168
	C105.231,130.949,105.24,131.015,105.24,131.079z"/>
<path style="fill:#F5F7F9;" d="M114.151,128.504c0-1.761,0.019-3.522-0.011-5.282c-0.009-0.542,0.063-0.808,0.71-0.792
	c1.824,0.044,3.649,0.01,5.474,0.021c0.281,0.002,0.668-0.15,0.696,0.388c0.031,0.597-0.383,0.468-0.708,0.47
	c-1.217,0.007-2.434,0.021-3.649-0.006c-0.501-0.011-0.763,0.072-0.737,0.669c0.047,1.054,0.032,2.113,0.004,3.169
	c-0.012,0.454,0.125,0.628,0.592,0.601c0.606-0.034,1.217-0.022,1.824-0.002c0.311,0.01,0.74-0.167,0.761,0.43
	c0.021,0.592-0.386,0.467-0.716,0.472c-0.608,0.008-1.219,0.034-1.824-0.007c-0.518-0.035-0.65,0.164-0.638,0.656
	c0.031,1.248,0.039,2.498-0.002,3.745c-0.019,0.572,0.2,0.685,0.716,0.674c1.472-0.033,2.945-0.019,4.418-0.019
	c0.341,0,0.727-0.092,0.698,0.494c-0.027,0.539-0.401,0.404-0.688,0.405c-2.081,0.009-4.162-0.013-6.243,0.017
	c-0.567,0.008-0.696-0.193-0.687-0.723C114.169,132.09,114.151,130.297,114.151,128.504z"/>
<path style="fill:#F5F7F9;" d="M93.911,128.515c0-1.763,0.02-3.527-0.012-5.289c-0.01-0.555,0.088-0.803,0.721-0.789
	c1.826,0.04,3.654,0.008,5.482,0.021c0.277,0.002,0.667-0.157,0.69,0.391c0.026,0.613-0.404,0.454-0.718,0.457
	c-1.25,0.012-2.501,0.026-3.75-0.005c-0.514-0.013-0.663,0.164-0.647,0.663c0.033,1.057,0.029,2.116,0.001,3.173
	c-0.012,0.459,0.134,0.626,0.601,0.604c0.704-0.033,1.411,0.007,2.115-0.013c0.385-0.011,0.498,0.149,0.494,0.512
	c-0.004,0.368-0.206,0.409-0.495,0.405c-0.705-0.008-1.412,0.024-2.115-0.011c-0.479-0.024-0.597,0.161-0.588,0.611
	c0.025,1.282,0.036,2.565-0.003,3.846c-0.017,0.548,0.217,0.622,0.677,0.615c1.474-0.025,2.949-0.021,4.424-0.015
	c0.321,0.001,0.744-0.142,0.733,0.458c-0.01,0.604-0.445,0.436-0.756,0.437c-2.052,0.012-4.104-0.009-6.155,0.016
	c-0.537,0.007-0.721-0.143-0.71-0.702C93.933,132.106,93.912,130.311,93.911,128.515z"/>
<path style="fill:#FEFEFE;" d="M91.137,122.504c0.569-0.12,0.867-0.033,0.854,0.692c-0.045,2.594,0.002,5.19-0.024,7.785
	c-0.023,2.343-1.736,4.028-4.088,4.061c-0.766,0.011-1.532,0.053-2.282-0.213c-1.709-0.605-2.882-2.081-2.899-3.794
	c-0.025-2.627,0.029-5.255-0.028-7.881c-0.018-0.809,0.427-0.684,0.902-0.685c0.476-0.001,0.931-0.121,0.9,0.687
	c-0.068,1.792-0.021,3.587-0.021,5.382c0,0.801-0.008,1.602,0.002,2.403c0.024,1.958,0.812,3.045,2.323,3.218
	c2.297,0.263,3.781-0.662,4.23-2.635c0.209-0.319,0.122-0.678,0.123-1.02C91.138,127.837,91.136,125.171,91.137,122.504z"/>
<path style="fill:#F5F7F9;" d="M128.746,134.625c-2.324-0.132-4.446-1.153-5.554-3.72c-0.964-2.234-0.437-4.896,1.238-6.599
	c2.019-2.052,5.653-2.456,8.074-0.872c0.22,0.144,0.793,0.162,0.442,0.715c-0.331,0.521-0.608,0.182-0.936-0.009
	c-1.776-1.034-3.614-1.21-5.35-0.02c-1.856,1.273-2.398,3.186-2.077,5.334c0.303,2.029,1.362,3.515,3.419,4.089
	c1.426,0.398,2.801,0.203,4.046-0.629c0.357-0.238,0.644-0.425,0.925,0.062c0.29,0.502-0.237,0.523-0.436,0.656
	C131.499,134.328,130.338,134.652,128.746,134.625z"/>
<path style="fill:#F5F7F9;" d="M95.414,121.065c-0.553,0.033-0.397-0.463-0.52-0.739c-0.144-0.322-0.04-0.558,0.326-0.634
	c1.373-0.282,2.747-0.556,4.118-0.844c0.466-0.098,0.54,0.205,0.579,0.538c0.033,0.285,0.306,0.684-0.186,0.793
	C98.301,120.498,96.862,120.771,95.414,121.065z"/>
<path style="fill:#359BD5;" d="M91.137,122.504c-0.001,2.667,0.001,5.333-0.007,8c-0.001,0.342,0.086,0.701-0.123,1.02
	c-0.232-0.278-0.142-0.611-0.142-0.921c-0.005-2.391-0.008-4.783,0.011-7.174C90.878,123.114,90.688,122.707,91.137,122.504z"/>
<path style="fill:#0352A1;" d="M69.762,128.461c-0.008-3.586,2.816-5.957,5.95-4.995c2.01,0.617,3.361,2.727,3.265,5.133
	c-0.054,1.348-0.437,2.582-1.339,3.623c-0.315,0.364-0.605,0.545-1.152,0.372c-1.38-0.434-2.793-0.425-4.146,0.126
	c-0.466,0.19-0.707,0.014-0.998-0.263C70.335,131.503,69.766,130.077,69.762,128.461z M74.245,127.511c0,0.001,0,0.002,0,0.004
	c1.122,0,2.244-0.016,3.366,0.007c0.569,0.011,0.727-0.135,0.544-0.729c-0.54-1.751-2.057-2.947-3.834-2.94
	c-1.766,0.007-3.249,1.221-3.773,3.014c-0.167,0.571,0.027,0.661,0.524,0.651C72.129,127.497,73.187,127.511,74.245,127.511z"/>
<path style="fill:#0352A1;" d="M73.219,133.458c0.759-0.284,1.528-0.245,2.335-0.146C75.02,133.737,74.333,133.795,73.219,133.458z"
	/>
<path style="fill:#0352A1;" d="M105.24,125.476c0-0.128-0.043-0.277,0.007-0.38c0.278-0.567-0.694-1.668,0.667-1.75
	c2.292-0.137,3.219,0.393,3.362,1.786c0.149,1.46-0.43,2.309-1.721,2.523C105.337,128.023,105.24,127.932,105.24,125.476z"/>
<path style="fill:#0352A1;" d="M105.24,131.079c0-0.064-0.009-0.129,0.001-0.191c0.128-0.751-0.363-2.051,0.247-2.168
	c1.347-0.26,2.917-0.512,4.147,0.473c0.895,0.717,0.841,1.805,0.589,2.836c-0.244,0.996-0.99,1.485-1.935,1.598
	c-0.851,0.102-1.72,0.045-2.58,0.078c-0.391,0.015-0.483-0.168-0.474-0.519C105.253,132.483,105.24,131.781,105.24,131.079z
	 M105.801,131.124c0,2.074,0,2.074,2.027,1.973c1.234-0.061,2.012-0.847,1.975-1.996c-0.041-1.304-0.625-1.854-2.002-1.885
	C105.801,129.172,105.801,129.172,105.801,131.124z"/>
<path style="fill:#359BD5;" d="M74.245,127.511c-1.058,0-2.116-0.014-3.174,0.006c-0.498,0.01-0.691-0.08-0.524-0.651
	c0.524-1.793,2.007-3.007,3.773-3.014c1.777-0.007,3.295,1.188,3.834,2.94c0.183,0.595,0.025,0.741-0.544,0.729
	c-1.122-0.022-2.244-0.007-3.366-0.007C74.245,127.513,74.245,127.512,74.245,127.511z"/>
<path style="fill:#359BD5;" d="M105.801,131.124c0-1.953,0-1.953,2-1.907c1.377,0.031,1.961,0.581,2.002,1.885
	c0.036,1.149-0.741,1.934-1.975,1.996C105.801,133.198,105.801,133.198,105.801,131.124z"/>
</svg>
