<svg xmlns="http://www.w3.org/2000/svg" viewBox="0 0 200 200"><path d="M94.86 0h10.28c.9.32 1.82.06 2.72.14 7.62 0 14.97 1.45 22.2 3.79a96.98 96.98 0 0113.87 5.62 92.55 92.55 0 0116.94 10.77c3.24 2.64 6.48 5.3 9.39 8.3a103.92 103.92 0 0116.27 21.73 93.85 93.85 0 017.5 17.24c2.18 6.83 3.82 13.78 3.83 21.02 0 .2 0 .38.14.53v18c-.43 2.56-.27 5.18-.67 7.74-1 6.5-2.8 12.8-5.2 18.93a96.63 96.63 0 01-15.65 26.7 106.67 106.67 0 01-11.8 12.16 95.51 95.51 0 01-22.34 14.63c-3.8 1.79-7.62 3.5-11.66 4.63a9.19 9.19 0 00-4.96 3.57c-1.26 1.65-2.46 3.38-4.29 4.5H79.14c-2.13-.7-3.05-2.67-4.25-4.25a9.88 9.88 0 00-5.18-3.7 95.05 95.05 0 01-28.18-14.43 92.8 92.8 0 01-12.91-11.4 102.2 102.2 0 01-16.22-22.65 99.47 99.47 0 01-9.52-27.66c-.61-3.31-.64-6.7-.74-10.07-.08-.9.18-1.81-.14-2.7V92.85c.32-.89.06-1.81.14-2.72a71.1 71.1 0 013.12-20.02 99.68 99.68 0 0112.17-26.15c4.83-7.42 10.72-13.9 17.27-19.83 4.6-4.17 9.59-7.8 14.9-10.97A98.93 98.93 0 0174.85 2.47 69.75 69.75 0 0192.12.14c.91-.08 1.84.17 2.74-.14z" fill="#3063ad"/><path d="M77.77 135.08a3.2 3.2 0 00-2-2.24c-1.71-.74-2.14-2.18-2.37-3.88-.27-2.03-.15-4.07-.3-6.1-.19-2.7-.1-5.41-.26-8.11a8.2 8.2 0 011.38-5.06c2.08-3.34 3.54-7 4.88-10.7.22-.61.5-.95 1.2-1 6.34-.34 12.67-.89 19.04-.74 5.93.13 11.83.6 17.73 1.04 1.66.13 3.32-.05 4.97.26.52.1.82.17 1 .74 1.23 3.94 2.6 7.83 4.8 11.35.38.63.15 1.23.05 1.8-.69 4.21-.6 8.49-1.1 12.72-.24 2.05-1.1 3.91-1.85 5.8-.19.46-.75.91-1.24 1.11-1.46.58-2.22 1.68-2.68 3.08-.62 1.88-1.67 3.59-1.96 5.63l3.2-4.66c.15-.23.26-.5.45-.72.34-.37.64-1.01 1.23-.78.53.22.18.85.15 1.26-.31 3.96-.72 7.9-1.02 11.87-.14 1.84-.19 3.7-.8 5.46-.57 1.62-1.95 2.66-3.04 3.89-3.25 3.64-7.22 6.4-11.13 9.26-.98.72-1.74 1.74-2.6 2.6-4.06 4.06-8.64 4-12.28-.44-1.37-1.68-3.09-2.74-4.79-3.92-3.92-2.71-7.93-5.3-10.72-9.37-1.29-1.89-1.21-3.95-1.4-5.99-.47-5.13-.85-10.28-1.27-15.53a3.8 3.8 0 012.39 1.72c.42.32.65.77.78 1.12-.18-.39-.46-.88-.44-1.47z" fill="#fecb00"/><path d="M184.54 94.32c-.4-7.4-1.7-14.64-3.91-21.72a85.21 85.21 0 00-13.05-25.28c-10.44-14.17-24.3-23.64-40.74-29.45-5.9-2.09-12.05-3.22-18.28-3.93-5.21-.6-10.41-.72-15.61-.18-9.56.98-18.81 3.2-27.59 7.23a86.47 86.47 0 00-26 18.13 85.66 85.66 0 00-13.39 18.3 84.16 84.16 0 00-9.95 31.33c-.23 1.91-.65 3.84-.35 5.8.55 1.28.42 2.64.47 3.99-.56 1.5-.07 3.02.06 4.51.61 6.97 1.96 13.81 3.86 20.54.03.1.08.17.14.25a96.73 96.73 0 005.67 13.22A90.08 90.08 0 0037.2 153.6c5.13 5.96 11.17 10.85 17.75 15.1a76.12 76.12 0 0012.85 6.76c.75.3 1.5.6 1.86 1.43 1.64.74 3.33 1.35 5.06 1.82.7.19 1.01.5.99 1.28-.05 1.65.07 3.32-.82 4.83-.82.63-1.66.23-2.45-.03a92.36 92.36 0 01-27.9-14.68C32.66 161 23.71 149.5 17.37 135.95a89 89 0 01-6.4-19.62 88.83 88.83 0 011-40.95 88.95 88.95 0 0116.55-33.35 92.66 92.66 0 017.1-8.18 96.14 96.14 0 0120.46-15.38A89.51 89.51 0 0179 9.57a88.01 88.01 0 0122.47-2.5c7.15.12 14.2 1.09 21.14 2.88a87.57 87.57 0 0120.16 7.84 95.47 95.47 0 0115.77 10.72 93.14 93.14 0 0113.76 14.42c2.95 3.8 5.5 7.87 7.83 12.08a89.27 89.27 0 0110.8 45.25 88.13 88.13 0 01-5.72 29.69 89.09 89.09 0 01-12.54 22.8 87.2 87.2 0 01-13.22 14.14 98.24 98.24 0 01-20.36 13.31 91.12 91.12 0 01-11.53 4.6c-.7.22-1.39.29-2.06-.12a8.56 8.56 0 01-1.17-4.62c0-.82.27-1.18 1.06-1.38 1.7-.44 3.36-1 4.94-1.8.3-.56.74-.93 1.35-1.17a88.06 88.06 0 0022.41-13.5c8.11-6.61 14.27-14.82 19.42-23.86 2.54-4.45 4.4-9.17 6.13-13.96.07-.18.16-.34.28-.5 1.09-4.03 2.12-8.07 2.83-12.18.64-3.75.99-7.52 1.34-11.3.06-.69-.12-1.32-.25-1.96.11-1.4-.14-2.86.7-4.13z" fill="#fefefe"/><path d="M125.5 184.69a91.06 91.06 0 0031.62-16.75 89.69 89.69 0 0021.92-26.3 90.39 90.39 0 0010.26-29.84 89.8 89.8 0 00-6.63-50.07 92.65 92.65 0 00-14.91-23.29 89.38 89.38 0 00-24.42-19.55 88.06 88.06 0 00-27.2-9.68 87.32 87.32 0 00-16.97-1.49 90.4 90.4 0 00-59.65 23.45 90.82 90.82 0 00-18.74 23.8 90.03 90.03 0 00-10.46 32.84c-.55 4.43-.8 8.9-.59 13.36.97 20.02 7.6 37.97 20.15 53.63 8.5 10.61 19.01 18.74 31.22 24.69a92.18 92.18 0 0013.8 5.33c-.44 1.53-1.57 2.56-2.65 3.64-.6.6-1.2.34-1.85.13A94.7 94.7 0 0140 171.93a95.06 95.06 0 01-24.58-30.27c-5.3-10.2-8.65-21-9.96-32.39a94.66 94.66 0 013.68-39.61 94.11 94.11 0 0119.4-34.43A94.84 94.84 0 0170.14 7.6 93.32 93.32 0 0189.8 3.38a94.22 94.22 0 0148.58 7.5 95.5 95.5 0 0144.22 39.75 94.1 94.1 0 0111.6 32.96 98.2 98.2 0 01.79 21.01 90.72 90.72 0 01-5.23 25.38 94.92 94.92 0 01-17.48 30.06 94.86 94.86 0 01-24.99 20.67 94.96 94.96 0 01-17.61 7.88c-.75.25-1.3.15-1.76-.4-.9-1.1-1.94-2.12-2.42-3.5z" fill="#fecb00"/><path d="M15.46 98.4c-.04-1.3-.24-2.6.2-3.86a33.78 33.78 0 004.16 2.72c.7.4 1.08.34 1.72-.16 2.65-2.1 5.96-1.45 7.54 1.36 1.22 2.18.23 5.12-2.3 6.87 1 .81 2.38.85 3.7.01 1.14-.72 1.54-1.88 1.65-3.15.02-.26-.2-.4-.42-.52-1.51-.77-1.74-2.06-1.44-3.58.17-.83.19-1.68.62-2.45.54-.97 1.28-1.31 2.37-.93 2.75.96 3.74 2.63 3.17 5.5-.06.26-.03.42.13.61 1.68 2.05 3.97 2.35 6.35 2.02 2.16-.3 4.12-1.1 4.9-3.7-.96.3-1.76.6-2.6.8-2.45.55-5.92-1.2-6.63-3.31-1.03-3.09.3-6.59 3.02-7.75a5.5 5.5 0 014.4.07c.88.38 1 .17 1.15-.65a14.6 14.6 0 012.26-5.78c1.26-1.88 2.1-2 3.59-.3 1.45 1.66 2.07 3.7 2.36 5.83.12.9.26 1.35 1.39.92a5.8 5.8 0 016.76 1.89c1.37 1.74 1.43 4.54.15 6.7-1.17 1.96-3.85 2.81-6.69 2.1-.5-.12-.97-.3-1.7-.54.82 2.55 2.82 3.2 5.04 3.8-.58.89-1.09 1.7-1.63 2.5a28.11 28.11 0 00-5.22 15.82c-.07 5.56 1.71 10.58 4.71 15.24 2.4 3.73 5.65 6.78 8.1 10.46a19.3 19.3 0 013.02 6.54c.32 1.48.15 2.9-1.14 3.87-1.28.96-2.6.56-3.89-.1-1.23-.64-2.24-1.57-3.29-2.46-.2-.17-.34-.52-.68-.33-.23.12-.25.37-.26.62-.16 2.55-.36 5.1.32 7.63.51 1.88 1.42 3.4 3.27 4.22a2.3 2.3 0 011.33 1.37 5.7 5.7 0 003.77 3.6c.78.24 1.03.62.98 1.42-.07 1.18-.02 2.38-.03 3.57-7.31-2.68-13.96-6.58-20.21-11.17-13.85-10.16-23.21-23.62-29.15-39.6-.23-.62-.4-1.25-.6-1.88-.09-1.41.78-2.43 1.58-3.4.87-1.05 1.67-2.18 2.72-3.08.73-.63.9-1.38.66-2.3-.4-1.47-.93-2.89-1.51-4.29a6.11 6.11 0 00-1.53-1.99c-2.87-2.78-5.02-6.01-5.93-9.97-.06-.28-.2-.53-.24-.81zM184.54 94.32v4.08c-1 4.5-3.4 8.11-6.69 11.32-1.75 1.7-2.22 4.26-2.62 6.66-.1.62.44 1.02.82 1.44 1.28 1.4 2.56 2.8 3.63 4.38.46.68.67 1.34.63 2.12-1.32 4.62-3.3 9-5.56 13.21-4.15 7.73-9.15 14.88-15.5 20.94-8.4 8.02-17.95 14.37-28.92 18.42 0-.38.03-.77-.01-1.14-.22-2.06-.13-3.82 2.42-4.55 1.31-.37 1.97-1.72 2.33-3.05.1-.42.17-.77.63-1.02 4.32-2.37 5.27-4.33 4.54-9.18-.17-1.12-.38-2.24-.6-3.53-1.43.71-2.43 1.9-3.75 2.6-1.19.63-2.41 1.2-3.6.4-1.35-.9-1.83-2.29-1.55-3.98.5-3.05 2.26-5.38 4.15-7.66 3.2-3.86 6.4-7.74 8.8-12.2a24.37 24.37 0 002.22-18.27 33.5 33.5 0 00-6.04-12.39c2.1-.67 4.1-1.27 4.84-3.82-2.34.87-4.46 1.23-6.6.06-1.85-1-3.11-3.6-2.6-5.65 1.12-4.52 4.67-5.78 7.9-4.47 1 .4 1.12-.13 1.22-.87.32-2.29.96-4.45 2.6-6.17 1.29-1.37 2.14-1.28 3.23.3a13.43 13.43 0 012.33 5.75c.17 1.16.51 1.19 1.5.8a5.11 5.11 0 016.2 1.74c1.62 2.16 1.75 5.25.3 7.18-1.47 1.97-5.01 2.78-7.51 1.73-.3-.12-.52-.43-.98-.26-.02.87.53 1.56 1.08 2.04 2.3 2 7.43 2.45 9.69-.06.4-.45.6-.76.35-1.44-.83-2.25 1.77-5.45 4.17-5.25.48.04.92.26 1.25.64 1.43 1.65 1.14 5.2-.57 6.5-.31.24-.42.45-.4.82.13 2.63 3 4.22 5.45 2.92-1.55-1.07-2.7-2.33-2.83-4.33-.15-2.16.73-3.78 2.55-4.7a4.41 4.41 0 015.07.51c.97.85 1.66.63 2.58.08 1.35-.8 2.67-1.61 3.85-2.65zM53.41 71c2.01 1.1 4.12 1.85 5.83 3.3.53.45.88.54 1.15-.35.62-2.05 2.92-3.28 5.09-2.84 1.98.4 3.65 2.84 3.4 4.97-.32 2.7-2.08 4.28-4.82 4.12-.84-.05-.77.51-.96.92-.16.34-.49.67 0 1.11a8.64 8.64 0 009.42 1.45c2.48-1.2 3.31-3.36 3.52-5.9.03-.38-.02-.79.1-1.13.36-1.06.06-1.53-1.1-1.47-1.28.06-1.66-.81-1.58-1.86.07-.99.35-1.96.55-2.93.2-1.04.79-1.18 1.65-.69.98.57 2 1.11 2.55 2.16.52 1 .64 2.04-.56 2.7-.79.45-.5.81-.08 1.32 4.35 5.24 8.6 5.62 14.53 3.61 3.12-1.05 4.68-3.69 5.27-6.87.18-.92.23-1.86.37-3.1-1.17.72-2.17 1.3-3.12 1.94a7.57 7.57 0 01-8.76-.27c-1.87-1.43-2.07-5.33-.48-7.7a5.18 5.18 0 016.53-1.8c1.34.63 2.6 1.38 3.68 2.4.34.31.75.55 1.12.82.28-.37.17-.66.03-.9-1.86-3.26-.3-6.24.83-9.22.37-.96 1-1.82 1.54-2.7.43-.7.92-.68 1.42-.02a13.85 13.85 0 012.65 6.35c.3 1.92.36 3.84.02 5.91 1-.42 1.7-1.04 2.46-1.56 3.46-2.31 6.93-1.97 9.22 1.56 2.25 3.46-.26 8.06-4.37 8.26a8.93 8.93 0 01-6.45-2.09c-.42-.35-.87-.67-1.4-1.07.04 7.36 2.86 9.87 9.7 11.2 4.21.83 7.64-.54 10.33-3.87.52-.65.54-1-.27-1.37-.99-.47-1.22-1.3-.75-2.27a8.53 8.53 0 012.73-3.21c.76-.55 1.32-.4 1.6.53.25.76.55 1.51.71 2.3.45 2.16.09 2.7-2.03 3.23-.3.07-.63-.04-.72.46-.53 2.93 2.07 7.4 4.92 8.03 2.63.58 5.2.15 7.52-1.32.28-.18.56-.35.83-.54.42-.3 1.1-.38.76-1.24-.3-.77-.6-1.2-1.52-1.07-2.88.44-5.49-2.93-4.94-5.72a5.02 5.02 0 013.74-3.7 4.7 4.7 0 014.76 2.68c.61 1.31 1.08 1.13 1.85.23.33-.4.77-.7 1.19-1 1.37-1 2.76-1.97 4.38-3.12a82.86 82.86 0 01-4.69 9.62c-1.03 1.82-2.09 3.62-3.59 5.1-.55.54-.98 1.32-2 1.07-.4-.1-.52.32-.66.63-1.35 3.03-2.77 6.03-3.66 9.24-.23.86-.56 1.11-1.47.91-4.58-1.01-9.24-1.47-13.9-1.99-9.8-1.1-19.64-.8-29.47-.7-4.33.04-8.67.55-12.99 1.18-2.24.34-4.5.59-6.69 1.21-.78.22-1.13-.2-1.27-.92a26.41 26.41 0 00-1.6-5.15c-.86-2.13-1.89-4.07-3.87-5.58-2.63-2.02-4-5.13-5.54-8.01-.93-1.74-1.76-3.52-2.64-5.28zM122.63 163.6c-.27 5.5-.18 11-.21 16.51a12.26 12.26 0 003.6 8.84c.63.65.84 1.02.13 1.84-1.9 2.17-3.67 4.46-5.46 6.71-.37.46-.78.6-1.35.6a18231 18231 0 00-38.43 0c-.58 0-.93-.2-1.3-.65-1.78-2.22-3.61-4.39-5.42-6.59-.4-.49-.68-.94 0-1.55 2.86-2.6 3.74-6 3.53-9.7-.27-4.7-.06-9.41-.14-14.12-.03-1.7 0-3.4 0-5.55a35.04 35.04 0 004.82 4.67 36.22 36.22 0 007.66 5.09c1.42.66 2.16 2.1 3.18 3.2 1.65 1.78 3.29 3.54 5.71 4.34 3 1 5.66.27 7.96-1.66 1.34-1.13 2.6-2.29 4.21-3.07 3.77-1.84 6.79-4.66 9.7-7.6.5-.49.87-1.1 1.3-1.67l.51.36z" fill="#fecb00"/><path d="M67.67 119.69c.73-2.01 1.24-4.14 3.04-6.05.1 1.23.24 2.1.24 2.97 0 4.85.3 9.66 1.12 14.44.26 1.48 1.1 2.75 1.2 4.33.23 4.06.78 8.1 1.07 12.15.47 6.51 1.72 12.96 1.4 19.53-.05.9-.28 1.55-.95 2.08-3 2.37-7.3 1.07-8.02-1.67-.26-1-.94-1.63-1.94-2.1-2.42-1.14-3.25-3.43-2.73-6.95 1.05.27 1.91.96 2.98 1.22 3.89.97 6.82-2.16 6.17-5.99-.84-4.98-3.82-8.8-6.99-12.47-3.52-4.09-6.7-8.4-8.03-13.72-1.72-6.92-.49-13.4 3.16-19.5 1.62-2.72 3.8-4.96 5.73-7.41 1.91-2.45 4.51-3.31 7.41-3.67.14-.02.29 0 .43-.02 3.38-.53 3.43-.5 2.39 2.83-1.5 4.78-3.86 9.18-6.1 13.63a20.57 20.57 0 00-1.86 5.2 18.44 18.44 0 01-.9 4.54c.5-.98.28-2.37 1.18-3.37zM131.76 131.45a44.1 44.1 0 01-4.48 6.87c1.7-7.71 3.75-15.34 3.6-23.33 1.46 2.66 2.1 5.57 3.1 8.35.34.67.4 1.43.53 1.91-.43-.99-.28-2.3-.48-3.56-.9-5.4-3.72-10-6.03-14.83-1.27-2.64-2.53-5.3-3.03-8.24-.24-1.4-.12-1.61 1.28-1.34 1.81.35 3.6.77 5.4 1.21 2.88.7 4.52 2.96 6.24 5.11 4.8 6.02 7.25 12.83 6.74 20.58-.25 3.93-1.9 7.4-3.94 10.68-2.47 4-5.6 7.5-8.52 11.16-1.87 2.33-3.34 4.94-3.46 7.96-.08 1.91.47 3.86 2.37 5.03 1.7 1.05 3.44.78 5.16.09.65-.26 1.23-.7 1.92-1.09.11.62.24 1.1.29 1.6.3 2.9-.97 4.8-3.88 5.76-.92.3-1.57.55-1.45 1.8.21 2.25-3.08 3.9-5.66 3-2.57-.92-2.94-1.49-2.94-4.26v-6.44c1.2 1.34 1.9 2.7 3.33 3.3a11.86 11.86 0 01-2.43-4.15c-1.16-3.3-.4-6.46.58-9.6 1.45-4.66 3.38-9.14 5.02-13.72.39-1.07.68-2.17 1.01-3.26.2-.66.21-1.38.57-1.96-.33.4-.16 1.14-.84 1.37zM156.14 52.97c1.09 1.32 2.17 2.65 3.26 3.95.33.4.35.68-.03 1.1-2.6 2.83-7.27 3.78-10.95 2.18a9.84 9.84 0 01-5.86-9.89 9.48 9.48 0 017-8.3c6.61-1.77 13.1 3.99 12.13 10.78-.12.9-.34 1.34-1.45 1.05-1.36-.35-2.67-1-4.13-.85-.09-.97-.37-1.92-.61-2.85-.4-1.53-2.16-2.67-3.7-2.54a3.95 3.95 0 00-3.37 3.2c-.22 1.66.68 3.1 2.34 3.75.07-.46-.3-.66-.52-.95-.2-.26-.43-.5-.54-.83-.4-1.13.23-2.08 2.15-3.28 1.07-.68 1.83-.61 2.65.3.83.9 1.56 1.88 1.63 3.18zM105.64 37.7c-.29-.02-.57-.07-.86-.06-1.58.05-2.77-.23-2.6-2.28.07-.72-.4-1.45-.96-2.02-.61-.63-1.4-1.3-2.21-1.04-.74.24-.4 1.26-.44 1.93-.18 2.9-.16 2.9-3.1 2.69-2.19-.16-2.22-.16-2.06-2.4.35-5.07.77-10.14 1.1-15.21.05-.93.43-1.1 1.23-1.03 2.7.22 5.4.36 8.1.63 2.64.28 4.43 2.17 4.67 4.96.22 2.52-.05 4.96-2.01 6.86-.43.4-.31.66-.06 1.07a8.55 8.55 0 011.27 3.75c.23 2.29.22 2.29-2.07 2.16zM159.86 83.78c-.6.1-.72-.33-.83-.76-.83-3.08-1.64-6.16-2.5-9.23-.23-.82.07-1.06.82-1.26 5.1-1.35 10.2-2.73 15.29-4.14.96-.27 1.44-.17 1.7.94.7 2.86 1.49 5.7 2.3 8.54.27.9.2 1.34-.84 1.62-3.05.81-3.04.86-3.85-2.2-.14-.55-.39-1.1-.45-1.65-.14-1.27-.69-1.54-1.9-1.11-.8.28-1.05.54-.75 1.38.35.98.57 2 .84 3.02.07.27.28.65.18.82-.78 1.25-2.26.9-3.4 1.36-.72.3-.83-.39-.97-.88-.31-1.1-.67-2.19-.88-3.3-.22-1.23-.96-.73-1.6-.6-.7.15-1.27.32-.95 1.3.45 1.4.77 2.84 1.17 4.26.13.46.21.87-.36 1.04-1 .3-2.01.57-3.02.85zM78.32 33.2c.11.77-.37.85-.76 1-1.07.38-2.13.83-3.23 1.11-.94.24-1 .68-.62 1.43.3.59.17 1.62 1.43 1.08 1.31-.57 2.7-.94 4.03-1.44.74-.28 1.1-.08 1.4.66 1.2 3.1 1.22 3.08-1.87 4.15-2.25.79-4.5 1.54-6.73 2.38-.94.35-1.33.11-1.65-.82a914 914 0 00-5.18-14.81c-.36-1-.18-1.41.84-1.75 2.85-.92 5.66-1.95 8.48-2.97.78-.29 1.17-.16 1.49.67 1.16 3.04 1.2 3.03-1.88 4.12-.59.21-1.16.47-1.76.6-1.12.24-1.26.75-.87 1.8.36.96.75 1.13 1.64.74 1-.44 2.06-.73 3.08-1.12.67-.24 1.07-.1 1.29.62.26.91.6 1.8.87 2.54zM50.51 50.52c-1.33-3.23-2.54-6.27-3.85-9.26-.36-.84-.29-1.37.43-1.94.78-.62 1.48-1.34 2.2-2.04.57-.55.95-.47 1.26.27 2.24 5.45 4.5 10.89 6.76 16.33.04.09.1.18.09.26-.31 1.67-1.96 2.17-2.87 3.32-.47.6-.97.37-1.51.09-5.13-2.6-10.26-5.2-15.4-7.76-.82-.41-.96-.72-.25-1.44 2.8-2.84 2.8-2.86 6.35-1.08 2.08 1.04 4.16 2.1 6.24 3.13.08.04.19.04.55.12zM25.4 73.15c.1-2.66 1.37-4.9 2.61-7.15.13-.22.35-.41.58-.29 1.05.56 2.1 1.1 3.1 1.75.39.27-.02.68-.2 1-.55.89-1.17 1.74-1.49 2.75-.2.67-.22 1.35.37 1.85.65.54 1.38.37 1.98-.07.56-.4 1.04-.96 1.53-1.47a6.13 6.13 0 018.4-.56 4.15 4.15 0 011.63 3.76c-.2 2.58-1.43 4.8-2.62 7.02-.13.25-.35.56-.66.4-1.05-.54-2.1-1.1-3.09-1.75-.4-.27.03-.67.2-.99.47-.82.98-1.63 1.37-2.5.34-.72.36-1.5-.38-2.05-.75-.55-1.48-.25-2.1.24-.54.44-1 1.01-1.5 1.51a6.05 6.05 0 01-7.95.55 4.56 4.56 0 01-1.79-4zM135.53 27.75c-.08.18-.18.44-.32.7-2.48 4.71-4.99 9.41-7.43 14.15-.44.85-.83 1-1.63.52-.81-.5-1.66-.95-2.53-1.33-.84-.37-.84-.82-.45-1.55 2.53-4.75 5.03-9.5 7.52-14.27.36-.71.74-.88 1.44-.47.9.53 1.85.99 2.76 1.49.28.15.65.23.64.76z" fill="#fecb00"/><path d="M129.5 172.32a4.84 4.84 0 01-4.29.68c-.44-.13-.92-.33-.86-.95.03-.33-.03-.75.15-.94.28-.3.6.08.85.25 1.14.74 2.41 1 4.15.96z" fill="#f2c50a"/><path d="M70.75 172.34c1.76-.1 3.3-.25 4.75-1.3.17.73.4 1.28-.24 1.75-.94.7-3.08.53-4.51-.45z" fill="#f0c40c"/><path d="M67.67 119.69c-.48 1.71-.82 3.47-1.56 5.1.19-2.14.74-4.2 1.28-6.27.03.4-.05.83.28 1.17z" fill="#6f8379"/><path d="M134.03 121.69l.9 4.62a4.77 4.77 0 01-.96-2.97l.06-1.65z" fill="#868e65"/><path d="M77.77 135.08c.48.86.88 1.74 1.18 3.1a9.8 9.8 0 01-1.53-2.75l.35-.35z" fill="#748574"/><path d="M131.76 131.45c.18-.69.51-1.3 1.08-2.01a5.79 5.79 0 01-.8 2.6l-.28-.59z" fill="#667e80"/><path d="M107.1 138.42a4.7 4.7 0 01-3.48 1.79 3.1 3.1 0 00-2.14.88c-1.24 1.19-2.19 1.18-3.47.08-.87-.73-1.7-1.44-3-1.34-.77.05-1.56-.32-2.22-1.16a5.73 5.73 0 003.12-1.13c.45-.31 1.1-.08 1.67.02 2.46.42 4.32-1.66 3.54-4.02-.64-1.93-.63-3.95-.68-5.9-.1-4.2-.57-8.42.1-12.64.67-4.2 3.34-6.44 7.08-7.71a17.2 17.2 0 015.75-.79c3.15.03 6.3.24 9.8-.47-1.56 2.14-2.87 3.63-5.48 3.51-2.64-.12-5.32-.33-7.95.17-5.12.96-6.77 3.79-7.15 8.6-.4 5.1.08 10.12.9 15.14.07.47.1.94.1 1.42.02 2.9.4 3.31 3.5 3.55z" fill="#3063ad"/><path d="M121.73 116.27c-5.25 3.02-7.58 3.47-11.28 2.19.6-.4 1.33-.55 1.59-1.27.23-.63.35-1.25.06-1.91-.64-1.5-1.85-1.33-3.1-1.11 1.2-2.24 4.77-2.9 7.04-2.37a5.4 5.4 0 013 2c.75.92 1.63 1.68 2.69 2.47zM78.27 114.1c1.94-2.44 4.33-2.66 6.94-2.35 2.83.34 3.77 3.16 6.09 4.4-3.65 1.72-6.97 4.14-11.22 2.22 1.11-.77 2.2-1.72 1.46-3.29-.6-1.27-1.82-1.33-3.27-.98z" fill="#3063ad"/><path d="M80.08 106.4c2.69.65 5.48.15 8.16.74 4.58 1.02 7.7 4.63 7.44 9.49-.07 1.25.3 2.55-.43 3.93-.58-2.81-1.37-5.35-3.08-7.52-2.36-3-5.24-5.01-9.18-5.27a4.19 4.19 0 01-2.9-1.37z" fill="#3163ac"/><path d="M108.3 149.38H89.82c2.3-.91 4.43-2.65 6.8-2.9 1.9-.2 3.98.04 5.99-.06a2.8 2.8 0 011.71.6c1.26.9 2.59 1.66 3.98 2.36z" fill="#3465aa"/><path d="M91.84 152.21c5.02.4 10.04.44 15.11.23-2.4.82-4.5 2.34-6.97 2.88-1.12.25-2.12-.38-3.13-.76-1.7-.64-3.4-1.3-5.1-1.96l.09-.39z" fill="#3163ac"/><path d="M97.54 162.54c2.21-2.41 2.8-2.43 4.16-.12-1.44-.33-2.8-.8-4.16.12z" fill="#476e9a"/><path d="M180.31 124.31a33.19 33.19 0 00-5.34-6.61c-.6-.55-.8-1.07-.49-1.87.42-1.05.66-2.17 1.05-3.23a9.78 9.78 0 012.76-4.3c2.71-2.39 4.15-5.73 5.7-8.93.17-.33.22-.73.56-.97.2 6.15-.78 12.17-2.06 18.15a44.33 44.33 0 01-2.18 7.77zM15.46 98.4c1.5 2.82 2.8 5.77 4.78 8.33.38.48.72 1.06 1.22 1.37 2.46 1.54 2.73 4.25 3.74 6.6.76 1.76.18 2.82-1.12 3.99-1.77 1.57-3.04 3.6-4.37 5.55a83.81 83.81 0 01-3.75-17.52 58.37 58.37 0 01-.5-8.32z" fill="#3063ad"/><path d="M99.78 90.03c-.3-1.4.03-2.77-1-3.76-.03-.04-.04-.2 0-.24 1-.95.7-2.28 1-3.5.65 1.15 0 2.62 1.14 3.53.06.05.04.3-.03.37-1.02.94-.52 2.32-1.11 3.6z" fill="#3b68a4"/><path d="M111.6 83.25c.27 1.37.37 2.63.4 3.72.01.82-.87 2.04-1.29 3.18-.23-1.18.05-2.44-.6-3.51 1.16-.75.84-2.2 1.5-3.39z" fill="#3a68a4"/><path d="M89.05 90.4c-.77-1.12-.67-2.29-1.34-3.27-.47-.7.84-1.97.29-3.15 1.63 1.87 1.18 4.04 1.05 6.42z" fill="#466e9b"/><path d="M130.15 86.68c.03 1.34-.74 2.28.02 3.23.14.18-.01.38-.2.45-1.07.47-.94 1.68-1.61 2.54-.13-1.12-.05-2.28.06-3.2.08-.74.98-1.84 1.73-3.02zM121.6 84.8c-.38 1.76.69 3.8-1.09 5.2-1.2-1.97.42-3.5 1.08-5.2z" fill="#406ba0"/><path d="M78.19 85.39c1.24 1.5 1.8 3.14 1.09 5.08-.55-.68-.6-1.68-1.37-2.36-.27-.24.7-1.7.28-2.72z" fill="#3a68a5"/><path d="M69.83 87.57c1.62 1.38 1.44 3.28 1.5 5.18-.83-1.68-2.32-3.1-1.5-5.18z" fill="#426c9e"/><path d="M156.14 52.97c-.33-.46-.65-.93-1-1.37-2.05-2.56-2.41-2.55-4.74-.1-.47.48-.31.8.01 1.2.73.91 1.45 1.84 2.23 2.83-2.7.26-4.83-1.59-4.93-4.1a4.38 4.38 0 014.32-4.55 4.42 4.42 0 014.4 4.6c-.03.5.05 1.06-.32 1.5h.03z" fill="#3163ac"/><path d="M99.34 25.44c.45-.41-1.1-2.34 1.16-2.2 2.12.12 2.97.83 2.9 2.3-.07 1.39-.98 2.08-2.5 2.03-1.22-.04-2.26-.12-1.56-2.13z" fill="#3364aa"/></svg>