<?xml version="1.0" encoding="utf-8"?>
<!-- Generator: Adobe Illuswe_strator 24.1.0, SVG Export Plug-In . SVG Version: 6.00 Build 0)  -->
<svg version="1.1" id="Layer_1" xmlns="http://www.w3.org/2000/svg" xmlns:xlink="http://www.w3.org/1999/xlink" x="0px"
	y="0px" viewBox="0 0 200 200" swe_style="enable-background:new 0 0 200 200;" xml:space="preserve">
	<style type="text/css">
		.swe_st0 {
			fill: #3364AC;
		}

		.swe_st1 {
			fill: #FCCA01;
		}

		.swe_st2 {
			fill: #FDFDFB;
		}

		.swe_st3 {
			fill: #FCCB03;
		}

		.swe_st4 {
			fill: #FDCB01;
		}

		.swe_st5 {
			fill: #FCCA02;
		}

		.swe_st6 {
			fill: #FDCB00;
		}

		.swe_st7 {
			fill: #FAC903;
		}

		.swe_st8 {
			fill: #FAC904;
		}

		.swe_st9 {
			fill: #899063;
		}

		.swe_st10 {
			fill: #3766A8;
		}

		.swe_st11 {
			fill: #476E9A;
		}

		.swe_st12 {
			fill: #3465AC;
		}
	</style>
	<g>
		<path class="swe_st0" d="M92.29,0.03c5.14,0,10.28,0,15.42,0c0.23,0.42,0.65,0.32,1.01,0.34c2.51,0.13,4.98,0.53,7.45,0.93
		c11.4,1.85,22.08,5.72,32.12,11.38c10.65,6,19.79,13.84,27.56,23.24c5.49,6.64,10.02,13.9,13.56,21.78
		c3.86,8.58,6.46,17.5,7.8,26.81c0.22,1.55,0.04,3.17,0.76,4.64c0,6,0,12,0,17.99c-0.65,1.04-0.46,2.23-0.61,3.36
		c-1.67,12.45-5.5,24.17-11.61,35.15c-6.43,11.56-14.92,21.33-25.24,29.54c-9.27,7.37-19.58,12.81-30.88,16.37
		c-1.4,0.44-2.6,1.01-3.44,2.28c-1.44,2.16-3.52,3.83-4.77,6.14c-14.09,0-28.18,0-42.27,0c-1.84-2.28-3.69-4.56-5.51-6.86
		c-0.5-0.64-1.16-0.93-1.9-1.14c-4.62-1.31-9.08-3.05-13.4-5.12c-11.46-5.48-21.51-12.86-30.15-22.2
		c-6.72-7.26-12.25-15.28-16.54-24.19c-4.54-9.43-7.5-19.3-8.88-29.67c-0.21-1.6-0.01-3.28-0.75-4.8c0-5.33,0-10.66,0-16
		c0.42-0.15,0.32-0.53,0.35-0.84c0.46-5.24,1.33-10.42,2.66-15.51c2.08-7.97,5.11-15.57,9.07-22.8
		c5.64-10.32,13.07-19.2,21.86-26.94C43.2,17.54,51.27,12.43,60.09,8.5c8.76-3.91,17.86-6.52,27.38-7.73
		C89.08,0.56,90.75,0.72,92.29,0.03z M156.84,53.05c1.11,0.25,2.25,0.42,3.32,0.78c1.01,0.34,1.36,0.02,1.51-0.96
		c0.68-4.39-2.02-8.94-6.3-10.55c-4.22-1.58-8.96-0.01-11.38,3.77c-2.68,4.18-1.65,9.85,2.36,12.9c3.79,2.88,9,2.84,13.01-0.96
		c0.51-0.49,0.25-0.81-0.06-1.2c-0.82-1.04-1.62-2.1-2.44-3.15C156.85,53.46,156.84,53.26,156.84,53.05z M130.7,115.12
		c0.32,7.82-1.71,15.29-3.3,22.87c1.72-2.02,3.07-4.25,4.46-6.53c0.28,0.55,0.11,0.99-0.05,1.42c-1.86,5.16-3.75,10.3-5.57,15.48
		c-1.17,3.33-2.01,6.71-0.84,10.27c0.26,0.8,1.04,1.47,0.83,2.46c-0.92-0.03-0.84-1.13-1.55-1.33c-0.06,0.12-0.13,0.19-0.13,0.27
		c-0.01,2-0.02,4-0.02,5.99c0,2.6,0.67,3.49,3.2,4.22c2.53,0.73,5.41-0.83,5.38-3.08c-0.01-1.2,0.5-1.49,1.45-1.8
		c2.94-0.96,4.25-3,3.89-5.88c-0.06-0.45-0.18-0.9-0.3-1.46c-0.67,0.38-1.25,0.8-1.89,1.06c-1.77,0.71-3.53,0.98-5.28-0.16
		c-1.81-1.18-2.33-3.08-2.26-4.94c0.12-3.01,1.6-5.61,3.45-7.95c2.84-3.6,5.82-7.08,8.37-10.92c4.36-6.57,5.18-13.56,2.97-21.03
		c-1.38-4.69-4.01-8.66-7.12-12.34c-1.1-1.3-2.35-2.48-4.05-3c-2.13-0.65-4.29-1.14-6.49-1.48c-0.89-0.14-1.13,0.21-0.96,0.97
		c0.33,1.47,0.63,2.95,1.21,4.37c1.73,4.27,4,8.29,5.95,12.46c1.12,2.4,1.64,4.97,1.85,7.62c-0.98-2.49-1.69-5.08-2.73-7.55
		c-0.08-0.32-0.09-0.8-0.54-0.67C130.36,114.51,130.53,114.9,130.7,115.12z M67.18,119.69c0-0.47,0.1-0.92,0.21-1.39
		c0.62-2.62,1.87-4.96,3.05-7.34c2.05-4.11,4.18-8.2,5.27-12.71c0.41-1.69,0.24-1.88-1.42-1.62c-0.94,0.14-1.86,0.34-2.8,0.47
		c-2.16,0.3-4.11,0.94-5.62,2.7c-2.25,2.63-4.62,5.12-6.43,8.12c-3.69,6.1-4.91,12.58-3.22,19.49c1.32,5.38,4.55,9.71,8.11,13.84
		c3.14,3.64,6.06,7.43,6.92,12.36c0.68,3.89-2.36,7.06-6.26,6c-1.04-0.28-1.87-1.01-3.02-1.19c0,0.71-0.02,1.32,0,1.94
		c0.07,2.16,0.69,4.08,2.83,5c1.02,0.44,1.68,1.08,1.96,2.08c0.79,2.86,5.11,4,8,1.7c0.67-0.53,0.91-1.17,0.97-2.07
		c0.43-6.29-0.63-12.5-1.31-18.68c-0.63-5.73-0.56-11.54-2.22-17.21c-1.34-4.57-1.25-9.46-1.25-14.26c0-0.97-0.13-1.93-0.22-3.28
		c-1.82,1.92-2.31,4.05-3.04,6.06C67.52,119.69,67.35,119.69,67.18,119.69z M147.13,70.01c-1.81,1.1-3.57,2.27-5.14,3.68
		c-0.93,0.84-1.35,1.22-2.04-0.25c-0.86-1.84-2.94-2.82-4.69-2.56c-1.66,0.25-3.39,1.92-3.74,3.68c-0.57,2.79,2.07,6.18,4.93,5.74
		c0.91-0.14,1.24,0.29,1.52,1.07c0.31,0.86-0.36,0.94-0.78,1.24c-1.09,0.78-2.29,1.48-3.56,1.73c-3.67,0.73-6.64,0.54-8.63-3.25
		c-0.65-1.24-0.68-2.65-0.95-3.99c-0.15-0.73-0.12-1.04,0.79-1.19c1.81-0.3,2.08-0.78,1.93-2.65c-0.08-1-0.4-1.93-0.77-2.86
		c-0.37-0.93-0.9-0.97-1.65-0.48c-1.02,0.67-1.71,1.64-2.38,2.61c-0.88,1.27-0.71,2.07,0.6,2.93c0.52,0.34,0.69,0.62,0.26,1.1
		c-1.36,1.52-2.75,2.96-4.78,3.7c-3.28,1.19-6.37,0.41-9.44-0.64c-4.18-1.43-6.19-4.81-5.85-10.06c0.89,0.64,1.69,1.3,2.57,1.83
		c2.47,1.48,5.14,1.73,7.73,0.53c2.2-1.02,3.23-4.62,2.23-6.84c-1.27-2.84-4.39-4.31-7.1-3.51c-1.84,0.54-3.21,1.88-5.02,2.85
		c0.34-2.14,0.29-4.06-0.01-5.98c-0.37-2.33-1.22-4.46-2.66-6.35c-0.51-0.66-0.93-0.63-1.42,0.01c-0.58,0.76-1.05,1.59-1.4,2.46
		c-1.25,3.11-2.83,6.19-0.91,9.61c0.1,0.19,0.17,0.45-0.05,0.67c-0.48-0.09-0.83-0.42-1.17-0.74c-1.04-0.99-2.27-1.71-3.55-2.34
		c-2.37-1.15-5.2-0.4-6.58,1.64c-1.66,2.46-1.51,6.32,0.43,7.82c2.47,1.9,6.04,2.07,8.76,0.23c0.94-0.64,1.88-1.31,3.1-1.76
		c-0.13,1.07-0.2,1.96-0.36,2.84c-0.55,3.19-2.08,5.84-5.19,6.93c-6.04,2.11-10.33,1.61-14.64-3.6c-0.46-0.56-0.58-0.91,0.15-1.3
		c0.63-0.34,0.94-0.89,0.85-1.66c-0.14-1.2-2.4-3.62-3.57-3.42c-1.49,0.24-1.03,1.77-1.33,2.78c-0.11,0.36-0.2,0.74-0.2,1.11
		c0,1.08,0.38,1.89,1.65,1.82c1.06-0.06,1.38,0.37,1.08,1.38c-0.12,0.4-0.09,0.84-0.12,1.26c-0.21,2.74-1.26,4.92-3.94,6.08
		c-2.76,1.19-6.93,0.41-9.03-1.7c-0.51-0.51-0.02-0.89,0.11-1.27c0.12-0.37,0.19-0.78,0.95-0.72c2.82,0.23,4.97-2.06,4.77-4.89
		c-0.14-2.01-1.84-4-3.6-4.22c-2.06-0.26-4.35,0.83-4.79,2.49c-0.33,1.23-0.64,1.11-1.55,0.48c-1.71-1.18-3.53-2.19-5.31-3.27
		c0.69,2,1.5,3.81,2.47,5.54c1.94,3.46,3.62,7.14,7.24,9.32c0.29,0.17,0.44,0.6,0.61,0.93c1.37,2.66,2.47,5.43,3.11,8.37
		c0.15,0.7,0.44,1.18,1.24,0.97c2.2-0.6,4.44-0.87,6.69-1.21c4.26-0.63,8.56-1.14,12.84-1.18c8.26-0.08,16.53-0.36,24.79,0.31
		c6.32,0.51,12.63,1.06,18.85,2.4c0.77,0.17,1.15-0.03,1.33-0.77c0.65-2.64,1.77-5.1,2.89-7.55c0.49-1.06,0.47-2.76,2.41-2.59
		c0.23,0.02,0.49-0.41,0.74-0.63c2.29-2.16,3.69-4.93,5.13-7.64c1.21-2.28,2.51-4.54,3.15-7.07c0.09,0.11,0.16,0.1,0.2-0.03
		c0.01-0.04-0.02-0.09-0.03-0.13C147.24,69.89,147.18,69.95,147.13,70.01z M15.69,94.54c-0.03-0.52-0.14-1.05-0.08-1.56
		c0.39-3.57,0.79-7.13,1.47-10.66c3.48-18.26,12.14-33.67,25.65-46.34c6.65-6.24,14.23-11.19,22.57-14.9
		c13.77-6.14,28.13-8.74,43.19-7.09c7.76,0.85,15.32,2.51,22.56,5.49c14.36,5.9,26.59,14.65,35.99,27.15
		c6.04,8.04,10.76,16.75,13.71,26.38c2.13,6.95,3.41,14.06,3.77,21.33c-1.11,0.97-2.35,1.74-3.6,2.53
		c-1.03,0.65-1.84,0.95-2.96-0.05c-1.39-1.23-3.25-1.25-4.84-0.49c-1.75,0.85-2.73,2.36-2.67,4.49c0.07,2.12,1.2,3.48,2.85,4.6
		c-1.42,0.7-3.15,0.53-4.17-0.34c-0.81-0.69-1.12-1.63-1.29-2.63c-0.15-0.88,0.81-0.79,1.15-1.23c0.29-0.36,0.57-0.79,0.67-1.23
		c0.38-1.63-0.05-3.16-0.74-4.62c-0.27-0.56-0.83-0.81-1.41-0.84c-2.46-0.14-4.92,3-4.11,5.3c0.21,0.61,0.08,0.9-0.3,1.33
		c-2.3,2.62-7.57,2.1-9.8,0.06c-0.53-0.48-1.09-1.16-1.01-2.17c0.38,0.17,0.63,0.29,0.89,0.4c2.66,1.17,6.18,0.3,7.68-1.88
		c1.36-1.98,1.17-4.94-0.44-7.04c-1.5-1.96-3.84-2.67-6.23-1.65c-1.16,0.5-1.26,0.1-1.42-0.87c-0.34-2.08-1.15-4.01-2.36-5.74
		c-1.06-1.52-1.9-1.61-3.14-0.34c-1.67,1.7-2.29,3.87-2.66,6.15c-0.1,0.59,0.04,1.37-1.11,1.02c-4.01-1.25-6.25-0.13-7.79,3.77
		c-1.12,2.82,0.88,6.26,3.86,6.88c1.74,0.36,3.33-0.05,5.14-0.61c-0.67,2.1-2.11,2.96-3.86,3.44c-0.79,0.22-1.01,0.39-0.42,1.17
		c2.65,3.48,4.42,7.39,5.48,11.64c1.39,5.62,1.11,11.06-1.33,16.37c-2.41,5.24-6.05,9.61-9.67,14c-1.92,2.32-3.73,4.68-4.2,7.79
		c-0.24,1.63,0.23,2.99,1.54,3.86c1.12,0.76,2.32,0.3,3.48-0.3c1.38-0.72,2.42-1.93,3.89-2.69c0.23,1.33,0.47,2.48,0.63,3.65
		c0.65,4.56-0.58,7.36-4.02,8.85c-0.76,0.33-1.07,0.73-1.26,1.49c-0.32,1.24-1.03,2.49-2.23,2.8c-2.74,0.69-2.58,2.63-2.43,4.68
		c0.02,0.33,0.01,0.67,0.01,1c-1.58,0.79-3.24,1.36-4.94,1.79c-0.78,0.2-1.05,0.56-1.06,1.38c-0.01,1.66,0.31,3.2,1.17,4.62
		c0.48,1.39,1.51,2.4,2.41,3.5c0.45,0.55,1.01,0.65,1.76,0.4c6.07-1.97,11.86-4.56,17.38-7.74c8.82-5.07,16.69-11.34,23.52-18.92
		c5.27-5.85,9.79-12.2,13.48-19.14c5.68-10.66,9.26-21.96,10.53-34c0.81-7.72,0.81-15.43-0.18-23.13
		c-1.5-11.71-5.11-22.73-10.78-33.08c-5.6-10.21-12.77-19.18-21.63-26.74c-10.3-8.79-21.93-15.19-34.94-19.06
		c-12.53-3.73-25.3-4.78-38.26-3.26C76.62,4.92,65.15,8.62,54.38,14.55C42.22,21.25,32,30.15,23.7,41.24
		C15.77,51.85,10.28,63.65,7.28,76.58C4.78,87.41,4.2,98.34,5.5,109.35c1.34,11.39,4.68,22.2,10,32.39
		c6.14,11.78,14.31,21.88,24.62,30.24c9.04,7.34,19.09,12.88,30.16,16.54c0.66,0.22,1.32,0.58,1.98-0.09
		c1.08-1.08,2.21-2.11,2.65-3.64c0.9-1.5,0.77-3.17,0.82-4.83c0.02-0.77-0.29-1.09-0.99-1.28c-1.74-0.47-3.42-1.08-5.06-1.82
		c0-1.19-0.05-2.38,0.03-3.57c0.05-0.8-0.21-1.18-0.99-1.41c-1.85-0.55-3.09-1.83-3.77-3.6c-0.27-0.7-0.69-1.09-1.33-1.37
		c-1.85-0.82-2.75-2.34-3.27-4.22c-0.7-2.53-0.45-5.08-0.32-7.63c0.01-0.25,0.04-0.5,0.26-0.62c0.34-0.18,0.49,0.16,0.69,0.33
		c1.43,1.25,2.82,2.54,4.75,3c1.62,0.39,3.04-0.45,3.51-2.05c0.36-1.2,0.11-2.34-0.27-3.48c-1.14-3.39-3.18-6.25-5.46-8.92
		c-3.24-3.8-6.37-7.65-8.2-12.37c-1.42-3.67-2.15-7.48-1.8-11.41c0.51-5.76,2.71-10.9,6.15-15.52c0.64-0.85,0.58-1.18-0.5-1.44
		c-1.76-0.43-3.2-1.33-3.86-3.42c0.62,0.18,1.04,0.32,1.47,0.44c2.28,0.67,4.5,0.47,6.25-1.17c1.88-1.76,2.08-5.16,0.7-7.24
		c-1.46-2.21-4.32-3.21-6.88-2.23c-1.11,0.42-1.35,0.15-1.48-0.9c-0.28-2.19-0.93-4.26-2.46-5.93c-1.39-1.51-2.24-1.4-3.41,0.32
		c-1.25,1.84-2.01,3.87-2.36,6.04c-0.12,0.71-0.22,0.87-0.95,0.55c-1.52-0.67-3.14-0.77-4.67-0.08c-2.72,1.23-4.04,5.07-2.81,7.95
		c1.07,2.51,5.12,3.84,8.02,2.64c0.31-0.13,0.58-0.55,1.05-0.22c-0.69,2.44-2.66,3.21-4.82,3.53c-2.38,0.35-4.66,0.04-6.36-1.99
		c-0.22-0.26-0.17-0.45-0.09-0.75c0.69-2.61-0.89-5-3.61-5.51c-0.85-0.16-1.48,0.18-1.91,0.92c-0.52,0.88-0.55,1.89-0.72,2.86
		c-0.24,1.39,0.03,2.51,1.33,3.23c0.3,0.17,0.63,0.31,0.56,0.72c-0.19,1.25-0.55,2.5-1.78,3.06c-1.15,0.52-2.41,1.03-3.68,0.02
		c2.6-1.83,3.58-4.6,2.46-6.8c-1.47-2.9-4.93-3.62-7.6-1.5c-0.63,0.5-1.02,0.57-1.71,0.17C18.41,96.43,16.99,95.58,15.69,94.54z
		 M75.33,133.8c-0.12,0.01-0.23,0.02-0.35,0.03c0.06,0.06,0.11,0.11,0.17,0.17c0.34,5.24,0.96,10.47,1.15,15.7
		c0.14,3.69,1.66,6.42,4.05,8.74c2.4,2.33,5.16,4.3,8,6.11c1.79,1.14,3.49,2.29,4.91,3.98c3.71,4.41,8.2,4.44,12.27,0.36
		c0.87-0.87,1.64-1.87,2.61-2.59c3.86-2.83,7.75-5.62,11.04-9.14c1.91-2.04,3.65-4.11,3.74-7.08c0.03-0.81,0.05-1.61,0.14-2.42
		c0.41-4.04,0.85-8.09,1.01-12.15c0.01-0.29,0.4-0.79-0.21-0.94c-0.44-0.11-0.72,0.25-0.93,0.55c-0.79,1.12-1.55,2.27-2.31,3.42
		c-0.35,0.52-0.64,1.11-1.54,1.18c0.55-1.31,1.06-2.46,1.52-3.63c0.66-1.67,1.2-3.41,3.17-4.08c0.54-0.18,1.03-0.64,1.22-1.16
		c0.67-1.82,1.54-3.59,1.76-5.53c0.49-4.47,0.47-8.98,1.2-13.42c0.09-0.56,0.01-1.01-0.27-1.48c-2.08-3.37-3.38-7.09-4.57-10.83
		c-0.21-0.66-0.45-0.94-1.23-1.04c-1.61-0.2-3.22-0.12-4.82-0.24c-5.9-0.45-11.8-0.91-17.73-1.05c-6.37-0.15-12.7,0.4-19.05,0.75
		c-0.79,0.04-1,0.49-1.24,1.12c-1.34,3.65-2.76,7.29-4.84,10.57c-1.09,1.72-1.47,3.4-1.37,5.34c0.14,2.61,0.14,5.22,0.24,7.83
		c0.08,2.03,0.23,4.07,0.34,6.1c0.1,1.71,0.62,3.14,2.35,3.88c1.01,0.43,1.72,1.15,2.01,2.24c-0.13,0.12-0.25,0.24-0.38,0.36
		C76.98,134.56,76.2,134.12,75.33,133.8z M122.38,163.03c-0.6,0.74-0.96,1.29-1.42,1.74c-2.96,2.95-5.99,5.84-9.8,7.69
		c-1.65,0.8-2.93,2.02-4.32,3.16c-2.26,1.87-4.9,2.6-7.84,1.62c-2.46-0.81-4.13-2.6-5.81-4.42c-1.08-1.17-1.87-2.67-3.45-3.32
		c-1.94-0.8-3.63-2.02-5.29-3.28c-2.36-1.79-4.67-3.65-6.59-5.98c-0.14,0.19-0.23,0.26-0.23,0.33c-0.03,6.09-0.21,12.18,0.08,18.26
		c0.18,3.89-0.4,7.51-3.38,10.32c-0.71,0.67-0.61,1.12-0.08,1.76c1.79,2.14,3.58,4.29,5.32,6.47c0.4,0.5,0.81,0.69,1.43,0.69
		c12.75-0.01,25.51-0.02,38.26,0c0.63,0,1.07-0.17,1.46-0.67c1.74-2.18,3.47-4.37,5.3-6.48c0.71-0.82,0.7-1.27-0.07-2.07
		c-2.33-2.41-3.6-5.31-3.54-8.72c0.06-3.66,0.02-7.32,0.04-10.98C122.47,167.29,122.89,165.41,122.38,163.03z M93.55,32.19
		C93.55,32.19,93.55,32.19,93.55,32.19c-0.01,0.24-0.03,0.47-0.05,0.71c-0.31,4.02-0.31,4.02,3.74,4.21c0.05,0,0.1,0,0.14,0.01
		c0.64,0.11,0.97-0.09,1-0.8c0.04-1.04,0.2-2.08,0.22-3.12c0.02-1.02,0.5-1.08,1.28-0.75c1.24,0.52,1.9,1.49,2.31,2.73
		c0.24,0.74-0.28,1.82,0.56,2.21c0.73,0.34,1.67,0.24,2.52,0.32c0.47,0.04,0.96,0,1.42,0.08c0.94,0.15,1.12-0.3,1.09-1.13
		c-0.05-1.7-0.41-3.3-1.3-4.75c-0.28-0.46-0.39-0.75,0.07-1.2c2-2.01,2.27-4.55,1.9-7.16c-0.38-2.7-2.12-4.36-4.68-4.61
		c-2.65-0.26-5.31-0.38-7.95-0.63c-1.02-0.1-1.26,0.27-1.32,1.24C94.23,23.76,93.87,27.97,93.55,32.19z M161.95,77.11
		c-0.16-0.85,0.8-0.6,1.32-0.81c0.53-0.21,1.09-0.43,1.29,0.48c0.25,1.16,0.59,2.3,0.92,3.44c0.14,0.49,0.24,1.19,0.97,0.9
		c1.14-0.46,2.61-0.12,3.4-1.36c0.11-0.17-0.1-0.54-0.18-0.82c-0.27-1.01-0.5-2.04-0.84-3.02c-0.29-0.82-0.07-1.1,0.75-1.39
		c1.2-0.42,1.76-0.17,1.9,1.11c0.06,0.56,0.31,1.1,0.45,1.65c0.81,3.06,0.8,3.03,3.84,2.2c0.87-0.24,1.17-0.51,0.89-1.47
		c-0.85-2.92-1.64-5.86-2.38-8.81c-0.24-0.95-0.68-1.08-1.53-0.85c-5.13,1.41-10.27,2.82-15.42,4.17c-0.87,0.23-1.04,0.58-0.8,1.4
		c0.67,2.33,1.28,4.68,1.91,7.02c0.86,3.17,0.85,3.16,4,2.15c0.72-0.23,1.01-0.51,0.75-1.33C162.74,80.32,162.4,78.84,161.95,77.11z
		 M76.82,26.46c-0.26-0.73-0.59-1.52-0.81-2.35c-0.25-0.92-0.66-1.21-1.63-0.85c-2.8,1.05-5.63,2.04-8.47,2.98
		c-0.97,0.32-1.11,0.72-0.78,1.65c1.78,4.96,3.53,9.94,5.22,14.94c0.35,1.03,0.84,1.04,1.7,0.72c2.23-0.82,4.48-1.58,6.72-2.37
		c2.98-1.04,2.95-1.03,1.82-4.05c-0.3-0.81-0.66-1.03-1.48-0.72c-1.33,0.51-2.69,0.95-4.03,1.42c-0.34,0.12-0.67,0.36-1.01-0.07
		c-0.9-1.13-0.63-2.1,0.74-2.59c0.27-0.09,0.54-0.19,0.81-0.28c3.1-1.08,3.07-1.07,1.87-4.15c-0.29-0.75-0.64-0.96-1.38-0.68
		c-1.11,0.42-2.26,0.74-3.35,1.21c-1.07,0.47-1.08-0.35-1.28-0.93c-0.19-0.56-0.75-1.21,0.39-1.54c1.41-0.41,2.79-0.95,4.17-1.46
		C76.4,27.21,76.93,27.17,76.82,26.46z M50.42,50.28c-0.09,0.08-0.19,0.16-0.28,0.24c-2.16-1.09-4.32-2.19-6.49-3.27
		c-3.31-1.65-3.31-1.65-6.01,0.91c-1.11,1.05-1.1,1.09,0.33,1.81c4.24,2.14,8.48,4.28,12.73,6.42c3.28,1.65,3.24,1.61,5.92-0.8
		c0.84-0.75,0.87-1.35,0.46-2.32c-1.99-4.68-3.92-9.38-5.87-14.08c-1.1-2.64-1.1-2.64-3.14-0.74c-1.85,1.72-1.84,1.72-0.85,4.1
		C48.29,45.13,49.35,47.7,50.42,50.28z M25.41,73.09c-0.07,1.8,0.55,3.26,2.08,4.28c2.45,1.63,5.61,1.3,7.71-0.81
		c0.47-0.47,0.88-1.01,1.4-1.42c0.61-0.48,1.32-0.85,2.09-0.32c0.83,0.57,0.77,1.39,0.42,2.17c-0.37,0.82-0.86,1.58-1.31,2.36
		c-0.26,0.44-0.75,0.97,0.04,1.26c1.12,0.42,1.89,1.78,3.35,1.3c0.07-0.02,0.12-0.14,0.17-0.23c1.13-2.15,2.3-4.28,2.56-6.76
		c0.16-1.51-0.27-2.82-1.45-3.83c-2.55-2.19-6.16-2.03-8.51,0.37c-0.36,0.37-0.68,0.8-1.07,1.14c-0.71,0.62-1.54,1.14-2.43,0.47
		c-0.83-0.62-0.63-1.53-0.23-2.34c0.4-0.81,0.86-1.59,1.34-2.35c0.34-0.53,0.47-1.05-0.24-1.23c-1.14-0.29-2.21-2.28-3.23-1.03
		C26.52,68.07,25.54,70.48,25.41,73.09z M126.75,43.46c0.77,0,0.84-0.55,1.05-0.95c2.05-3.87,4.08-7.74,6.12-11.61
		c1.91-3.61,1.91-3.61-1.79-5.35c-0.04-0.02-0.09-0.04-0.13-0.06c-0.54-0.32-0.91-0.29-1.25,0.35c-2.55,4.89-5.13,9.77-7.7,14.65
		c-0.16,0.3-0.41,0.7-0.08,0.9C124.25,42.14,125.56,42.81,126.75,43.46z M129.47,172.26c-1.64,0.12-2.79-0.17-3.89-0.74
		c-0.34-0.18-0.8-1.04-1.18-0.16c-0.25,0.58-0.18,1.32,0.71,1.58C126.52,173.34,127.85,173.33,129.47,172.26z M70.77,172.36
		c1.39,1.2,3.9,0.92,4.59,0.33c0.49-0.42,0.35-0.98,0.06-1.67C74.05,172.19,72.46,172.18,70.77,172.36z" />
		<path class="swe_st1" d="M77.79,135.08c-0.29-1.09-1-1.81-2.01-2.24c-1.72-0.74-2.25-2.17-2.35-3.88c-0.12-2.03-0.26-4.06-0.34-6.1
		c-0.1-2.61-0.11-5.22-0.24-7.83c-0.1-1.95,0.28-3.63,1.37-5.34c2.08-3.28,3.5-6.92,4.84-10.57c0.23-0.63,0.45-1.08,1.24-1.12
		c6.34-0.35,12.68-0.9,19.05-0.75c5.92,0.14,11.82,0.6,17.73,1.05c1.61,0.12,3.22,0.03,4.82,0.24c0.77,0.1,1.02,0.38,1.23,1.04
		c1.19,3.75,2.48,7.46,4.57,10.83c0.29,0.47,0.37,0.91,0.27,1.48c-0.73,4.44-0.71,8.96-1.2,13.42c-0.21,1.94-1.09,3.72-1.76,5.53
		c-0.19,0.52-0.68,0.97-1.22,1.16c-1.97,0.67-2.51,2.41-3.17,4.08c-0.46,1.17-0.97,2.32-1.52,3.63c0.9-0.07,1.19-0.65,1.54-1.18
		c0.76-1.14,1.52-2.29,2.31-3.42c0.21-0.3,0.5-0.65,0.93-0.55c0.61,0.15,0.22,0.65,0.21,0.94c-0.16,4.06-0.6,8.11-1.01,12.15
		c-0.08,0.8-0.11,1.61-0.14,2.42c-0.1,2.97-1.83,5.04-3.74,7.08c-3.3,3.52-7.18,6.31-11.04,9.14c-0.98,0.72-1.75,1.72-2.61,2.59
		c-4.08,4.08-8.56,4.05-12.27-0.36c-1.42-1.69-3.12-2.84-4.91-3.98c-2.84-1.81-5.6-3.78-8-6.11c-2.39-2.32-3.91-5.06-4.05-8.74
		c-0.19-5.23-0.81-10.46-1.15-15.7c0.07-0.06,0.12-0.13,0.18-0.2c0.87,0.33,1.65,0.77,2.09,1.64c0.4,0.81,0.8,1.62,1.2,2.43
		C78.64,136.8,78.29,135.91,77.79,135.08z M101.39,162.31c0.06,0.05,0.12,0.1,0.18,0.15c0.01-0.11,0.02-0.22,0.03-0.33
		c-0.38-0.66-0.81-1.39-1.61-1.44c-1.1-0.07-1.47,1.23-2.46,1.58C98.85,161.86,100.13,161.96,101.39,162.31z M90.64,149.3
		c5.59,0.01,11.17,0.02,16.76,0.03c0.26,0.17,0.55,0.25,0.69-0.09c0.12-0.3-0.12-0.39-0.39-0.38c-1.16-0.31-2.11-1.03-3.1-1.66
		c-1.38-0.88-2.82-1.28-4.39-0.47c-0.28,0.15-0.57,0.3-0.93,0.11c-1.86-1.02-3.54-0.43-5.18,0.58c-1.09,0.67-2.34,0.96-3.5,1.45
		c-0.37,0.01-0.72,0.08-0.97,0.43C89.99,149.66,90.31,149.48,90.64,149.3z M109.29,114.18c1.16-0.34,2.15-0.21,2.76,0.99
		c0.36,0.7,0.23,1.36-0.03,2.05c-0.26,0.69-0.99,0.83-1.55,1.19c4.29,1.94,7.65-0.37,11.38-2.19c-1.75-0.82-2.57-2.39-3.87-3.46
		c-2.37-1.95-7.06-1.34-8.87,1.21c-0.05,0.05-0.11,0.11-0.16,0.16C109.06,114.15,109.17,114.17,109.29,114.18z M92.99,138.39
		c-0.05,0.03-0.1,0.05-0.15,0.08C92.89,138.44,92.94,138.42,92.99,138.39c-0.01,1.4,1.23,1.4,1.98,1.41
		c1.28,0.02,2.14,0.58,3.01,1.34c1.28,1.12,2.25,1.13,3.47-0.01c0.62-0.58,1.23-0.87,2.12-0.92c1.3-0.08,2.54-0.54,3.46-1.81
		c-0.33-0.04-0.51-0.07-0.68-0.07c-2.06-0.06-2.75-0.78-2.77-2.86c-0.01-0.66,0-1.34-0.1-1.99c-0.84-5.06-1.3-10.13-0.89-15.27
		c0.38-4.79,2.06-7.47,6.96-8.46c2.91-0.58,5.87-0.15,8.81-0.24c1.9-0.06,3.74-1.39,4.42-3.41c-3.14,0.67-6.27,0.42-9.39,0.4
		c-1.92-0.01-3.8,0.14-5.61,0.74c-3.87,1.26-6.6,3.54-7.27,7.85c-0.65,4.18-0.2,8.34-0.09,12.5c0.06,2.18,0.18,4.41,0.83,6.58
		c0.55,1.81-1.39,3.7-3.36,3.39c-1.21-0.19-2.2-0.09-3.18,0.66C94.23,138.61,93.6,138.72,92.99,138.39z M78.17,114.14
		c1.64-0.44,2.85-0.29,3.4,1c0.64,1.48-0.28,2.49-1.57,3.2c4.33,1.91,7.64-0.48,11.34-2.2c-2.39-1.25-3.31-4.04-6.07-4.39
		C82.67,111.42,80.28,111.68,78.17,114.14z M80.1,106.41c0.82,0.88,1.86,1.28,2.99,1.38c4.8,0.41,7.95,3.15,10.29,7.12
		c1,1.69,1.35,3.6,2,5.44c0.42-2.02,0.53-4.06,0.14-6.05c-0.76-3.91-3.34-6.13-7.08-7.09C85.72,106.49,82.86,107.11,80.1,106.41z
		 M91.66,152.18c0.41,0.66,0.82,0.78,1.21,0.92c1.47,0.54,2.97,0.99,4.39,1.63c1.64,0.74,3.21,0.83,4.76-0.08
		c1.56-0.91,3.37-1.29,4.93-2.29C101.89,152.65,96.88,152.59,91.66,152.18z" />
		<path class="swe_st2" d="M125.5,184.66c-0.86-1.42-1.19-2.96-1.17-4.62c0.01-0.82,0.28-1.18,1.06-1.38c1.7-0.44,3.36-1,4.94-1.79
		c10.97-4.05,20.52-10.39,28.92-18.41c6.34-6.05,11.34-13.21,15.48-20.94c2.26-4.22,4.24-8.58,5.56-13.21
		c1.03-2.5,1.62-5.14,2.18-7.77c1.27-5.98,2.27-12,2.05-18.15c0-1.36,0-2.71,0-4.07c-0.37-7.27-1.64-14.38-3.77-21.33
		c-2.95-9.62-7.67-18.34-13.71-26.38c-9.4-12.51-21.63-21.25-35.99-27.15c-7.23-2.97-14.79-4.64-22.56-5.49
		c-15.06-1.65-29.42,0.96-43.19,7.09c-8.34,3.72-15.92,8.66-22.57,14.9C29.21,48.65,20.56,64.06,17.07,82.32
		c-0.67,3.54-1.08,7.1-1.47,10.66c-0.06,0.51,0.05,1.04,0.08,1.56c-0.44,1.26-0.25,2.56-0.21,3.85c-0.08,2.79,0.18,5.56,0.5,8.32
		c0.69,5.96,1.81,11.83,3.75,17.52c0.2,0.63,0.36,1.27,0.59,1.88c5.96,16.02,15.36,29.5,29.25,39.67
		c6.22,4.55,12.83,8.42,20.1,11.08c1.64,0.74,3.32,1.36,5.06,1.82c0.7,0.19,1.01,0.51,0.99,1.28c-0.05,1.65,0.08,3.32-0.82,4.83
		c-4.82-1.46-9.54-3.22-14.05-5.46c-11.41-5.64-21.35-13.17-29.58-22.94c-8.25-9.79-14.28-20.77-17.84-33.05
		c-2.86-9.85-4.19-19.9-3.49-30.19c0.3-4.4,0.82-8.75,1.69-13.07c1.92-9.58,5.37-18.57,10.24-27.02c5-8.66,11.21-16.35,18.76-22.9
		c6.8-5.91,14.3-10.76,22.55-14.45c13.86-6.19,28.35-8.8,43.48-7.71c8.21,0.59,16.22,2.3,23.96,5.15
		c13.44,4.95,25.15,12.53,34.99,22.98c6.82,7.25,12.3,15.39,16.49,24.42c4.87,10.5,7.5,21.55,8.13,33.05
		c0.27,4.87,0.1,9.77-0.49,14.64c-1.14,9.54-3.6,18.7-7.67,27.4c-6.45,13.79-15.63,25.4-27.86,34.54
		C145.48,176.7,135.93,181.55,125.5,184.66z" />
		<path class="swe_st3" d="M125.5,184.66c10.43-3.11,19.98-7.96,28.69-14.47c12.23-9.14,21.42-20.75,27.86-34.54
		c4.07-8.7,6.53-17.86,7.67-27.4c0.58-4.88,0.75-9.77,0.49-14.64c-0.63-11.51-3.26-22.55-8.13-33.05
		c-4.19-9.04-9.66-17.18-16.49-24.42c-9.83-10.45-21.55-18.02-34.99-22.98c-7.74-2.85-15.75-4.56-23.96-5.15
		c-15.12-1.09-29.62,1.52-43.48,7.71c-8.25,3.69-15.75,8.54-22.55,14.45c-7.54,6.56-13.76,14.24-18.76,22.9
		c-4.88,8.45-8.33,17.45-10.24,27.02c-0.86,4.32-1.39,8.67-1.69,13.07c-0.69,10.29,0.63,20.34,3.49,30.19
		c3.57,12.28,9.6,23.26,17.84,33.05c8.23,9.77,18.18,17.29,29.58,22.94c4.52,2.24,9.23,4,14.05,5.46c-0.44,1.54-1.57,2.56-2.65,3.64
		c-0.66,0.66-1.32,0.31-1.98,0.09c-11.07-3.66-21.11-9.2-30.16-16.54c-10.31-8.36-18.48-18.46-24.62-30.24
		c-5.31-10.2-8.65-21-10-32.39C4.2,98.34,4.78,87.41,7.28,76.58c3-12.94,8.48-24.73,16.42-35.35C32,30.15,42.22,21.25,54.38,14.55
		C65.15,8.62,76.62,4.92,88.81,3.5c12.96-1.52,25.72-0.47,38.26,3.26c13.01,3.87,24.64,10.27,34.94,19.06
		c8.86,7.56,16.03,16.53,21.63,26.74c5.67,10.35,9.28,21.37,10.78,33.08c0.99,7.7,0.99,15.4,0.18,23.13
		c-1.27,12.04-4.86,23.35-10.53,34c-3.69,6.93-8.21,13.29-13.48,19.14c-6.83,7.58-14.7,13.85-23.52,18.92
		c-5.52,3.17-11.32,5.77-17.38,7.74c-0.75,0.24-1.31,0.14-1.76-0.4C127.01,187.06,125.98,186.05,125.5,184.66z" />
		<path class="swe_st4" d="M15.48,98.39c-0.04-1.29-0.23-2.59,0.21-3.85c1.3,1.04,2.72,1.88,4.15,2.72c0.7,0.41,1.08,0.34,1.71-0.17
		c2.67-2.12,6.13-1.4,7.6,1.5c1.12,2.2,0.14,4.98-2.46,6.8c1.27,1.01,2.53,0.5,3.68-0.02c1.24-0.56,1.59-1.81,1.78-3.06
		c0.06-0.41-0.27-0.55-0.56-0.72c-1.3-0.72-1.57-1.85-1.33-3.23c0.17-0.98,0.2-1.98,0.72-2.86c0.43-0.73,1.06-1.07,1.91-0.92
		c2.72,0.5,4.3,2.9,3.61,5.51c-0.08,0.3-0.13,0.49,0.09,0.75c1.69,2.03,3.98,2.34,6.36,1.99c2.16-0.31,4.13-1.09,4.82-3.53
		c-0.47-0.33-0.74,0.09-1.05,0.22c-2.9,1.2-6.95-0.13-8.02-2.64c-1.23-2.88,0.1-6.72,2.81-7.95c1.53-0.69,3.15-0.59,4.67,0.08
		c0.74,0.32,0.84,0.16,0.95-0.55c0.35-2.17,1.11-4.2,2.36-6.04c1.17-1.72,2.01-1.83,3.41-0.32c1.54,1.67,2.18,3.74,2.46,5.93
		c0.13,1.05,0.37,1.33,1.48,0.9c2.57-0.98,5.42,0.02,6.88,2.23c1.38,2.08,1.18,5.48-0.7,7.24c-1.75,1.64-3.97,1.84-6.25,1.17
		c-0.43-0.13-0.86-0.26-1.47-0.44c0.66,2.09,2.11,2.99,3.86,3.42c1.08,0.27,1.13,0.59,0.5,1.44c-3.44,4.62-5.64,9.75-6.15,15.52
		c-0.35,3.93,0.38,7.74,1.8,11.41c1.83,4.72,4.96,8.58,8.2,12.37c2.28,2.67,4.33,5.53,5.46,8.92c0.38,1.14,0.63,2.28,0.27,3.48
		c-0.47,1.6-1.89,2.43-3.51,2.05c-1.92-0.46-3.32-1.75-4.75-3c-0.2-0.17-0.35-0.51-0.69-0.33c-0.23,0.12-0.25,0.37-0.26,0.62
		c-0.13,2.55-0.37,5.1,0.32,7.63c0.52,1.88,1.42,3.41,3.27,4.22c0.63,0.28,1.06,0.67,1.33,1.37c0.68,1.77,1.91,3.05,3.77,3.6
		c0.78,0.23,1.04,0.61,0.99,1.41c-0.08,1.18-0.02,2.38-0.03,3.57c-7.27-2.66-13.88-6.53-20.1-11.08
		c-13.89-10.16-23.29-23.65-29.25-39.67c-0.23-0.62-0.4-1.25-0.59-1.88c1.32-1.96,2.6-3.97,4.36-5.56c1.3-1.17,1.88-2.22,1.12-3.99
		c-1.01-2.35-1.29-5.06-3.75-6.59c-0.5-0.31-0.83-0.9-1.21-1.38C18.28,104.17,16.99,101.22,15.48,98.39z" />
		<path class="swe_st4" d="M184.52,94.33c0,1.36,0,2.71,0,4.07c-0.33,0.24-0.38,0.63-0.54,0.97c-1.56,3.18-2.96,6.54-5.67,8.88
		c-1.51,1.31-2.24,2.83-2.86,4.54c-0.36,0.97-0.55,2-0.95,2.95c-0.36,0.85-0.16,1.4,0.48,1.98c2.1,1.93,3.78,4.2,5.32,6.59
		c-1.33,4.62-3.3,8.99-5.56,13.21c-4.14,7.72-9.14,14.88-15.48,20.94c-8.4,8.02-17.95,14.36-28.92,18.41c0-0.33,0.01-0.67-0.01-1
		c-0.15-2.05-0.31-3.99,2.43-4.68c1.2-0.3,1.91-1.56,2.23-2.8c0.2-0.76,0.51-1.16,1.26-1.49c3.43-1.49,4.67-4.29,4.02-8.85
		c-0.17-1.17-0.4-2.32-0.63-3.65c-1.47,0.77-2.51,1.98-3.89,2.69c-1.16,0.6-2.36,1.06-3.48,0.3c-1.3-0.88-1.78-2.24-1.54-3.86
		c0.47-3.11,2.28-5.47,4.2-7.79c3.63-4.39,7.26-8.76,9.67-14c2.45-5.31,2.72-10.75,1.33-16.37c-1.05-4.25-2.83-8.15-5.48-11.64
		c-0.59-0.78-0.37-0.95,0.42-1.17c1.75-0.48,3.19-1.34,3.86-3.44c-1.81,0.56-3.4,0.98-5.14,0.61c-2.98-0.62-4.98-4.05-3.86-6.88
		c1.54-3.9,3.78-5.01,7.79-3.77c1.14,0.36,1.01-0.42,1.11-1.02c0.37-2.27,0.99-4.44,2.66-6.15c1.25-1.27,2.08-1.18,3.14,0.34
		c1.21,1.74,2.02,3.66,2.36,5.74c0.16,0.98,0.26,1.37,1.42,0.87c2.39-1.02,4.73-0.31,6.23,1.65c1.61,2.11,1.8,5.07,0.44,7.04
		c-1.5,2.18-5.02,3.04-7.68,1.88c-0.25-0.11-0.5-0.23-0.89-0.4c-0.08,1.01,0.48,1.69,1.01,2.17c2.22,2.03,7.49,2.56,9.8-0.06
		c0.38-0.44,0.52-0.73,0.3-1.33c-0.81-2.3,1.66-5.44,4.11-5.3c0.58,0.03,1.15,0.28,1.41,0.84c0.69,1.46,1.12,3,0.74,4.62
		c-0.1,0.44-0.38,0.87-0.67,1.23c-0.35,0.44-1.3,0.35-1.15,1.23c0.17,1,0.49,1.94,1.29,2.63c1.02,0.87,2.75,1.04,4.17,0.34
		c-1.66-1.12-2.79-2.48-2.85-4.6c-0.07-2.14,0.91-3.65,2.67-4.49c1.59-0.77,3.45-0.74,4.84,0.49c1.12,0.99,1.93,0.7,2.96,0.05
		C182.16,96.07,183.41,95.3,184.52,94.33z" />
		<path class="swe_st5" d="M147.12,69.99c-0.64,2.54-1.95,4.8-3.15,7.08c-1.44,2.72-2.84,5.49-5.13,7.64c-0.24,0.23-0.51,0.65-0.74,0.63
		c-1.93-0.16-1.92,1.53-2.41,2.59c-1.13,2.45-2.24,4.92-2.89,7.55c-0.18,0.74-0.56,0.93-1.33,0.77c-6.21-1.34-12.52-1.89-18.85-2.4
		c-8.26-0.67-16.53-0.39-24.79-0.31c-4.28,0.04-8.57,0.55-12.84,1.18c-2.25,0.33-4.5,0.61-6.69,1.21c-0.8,0.22-1.09-0.27-1.24-0.97
		c-0.64-2.93-1.74-5.7-3.11-8.37c-0.17-0.33-0.32-0.76-0.61-0.93c-3.62-2.18-5.3-5.85-7.24-9.32c-0.97-1.72-1.78-3.53-2.47-5.54
		c1.78,1.08,3.61,2.09,5.31,3.27c0.91,0.63,1.22,0.75,1.55-0.48c0.44-1.66,2.73-2.76,4.79-2.49c1.77,0.23,3.46,2.21,3.6,4.22
		c0.2,2.83-1.95,5.12-4.77,4.89c-0.75-0.06-0.83,0.35-0.95,0.72c-0.12,0.39-0.62,0.76-0.11,1.27c2.1,2.11,6.28,2.89,9.03,1.7
		c2.68-1.16,3.73-3.34,3.94-6.08c0.03-0.42,0.01-0.87,0.12-1.26c0.3-1.01-0.02-1.44-1.08-1.38c-1.27,0.07-1.64-0.74-1.65-1.82
		c0-0.37,0.09-0.75,0.2-1.11c0.29-1.01-0.16-2.54,1.33-2.78c1.17-0.19,3.43,2.23,3.57,3.42c0.09,0.76-0.22,1.32-0.85,1.66
		c-0.73,0.39-0.61,0.75-0.15,1.3c4.32,5.2,8.6,5.71,14.64,3.6c3.12-1.09,4.64-3.74,5.19-6.93c0.15-0.88,0.22-1.77,0.36-2.84
		c-1.22,0.45-2.16,1.12-3.1,1.76c-2.72,1.83-6.29,1.67-8.76-0.23c-1.94-1.5-2.1-5.36-0.43-7.82c1.38-2.04,4.21-2.79,6.58-1.64
		c1.28,0.62,2.51,1.34,3.55,2.34c0.34,0.32,0.69,0.65,1.17,0.74c0.22-0.22,0.16-0.48,0.05-0.67c-1.92-3.42-0.34-6.5,0.91-9.61
		c0.35-0.88,0.82-1.71,1.4-2.46c0.49-0.64,0.92-0.67,1.42-0.01c1.44,1.89,2.29,4.02,2.66,6.35c0.3,1.92,0.35,3.84,0.01,5.98
		c1.81-0.97,3.18-2.31,5.02-2.85c2.71-0.8,5.82,0.68,7.1,3.51c1,2.22-0.03,5.82-2.23,6.84c-2.59,1.2-5.26,0.96-7.73-0.53
		c-0.88-0.53-1.68-1.19-2.57-1.83c-0.34,5.25,1.67,8.63,5.85,10.06c3.07,1.05,6.16,1.83,9.44,0.64c2.03-0.74,3.41-2.17,4.78-3.7
		c0.43-0.48,0.26-0.76-0.26-1.1c-1.31-0.86-1.48-1.66-0.6-2.93c0.67-0.97,1.37-1.94,2.38-2.61c0.75-0.49,1.28-0.45,1.65,0.48
		c0.37,0.93,0.69,1.86,0.77,2.86c0.15,1.87-0.12,2.35-1.93,2.65c-0.9,0.15-0.94,0.47-0.79,1.19c0.28,1.34,0.31,2.75,0.95,3.99
		c1.98,3.79,4.96,3.99,8.63,3.25c1.27-0.25,2.47-0.95,3.56-1.73c0.42-0.3,1.09-0.38,0.78-1.24c-0.28-0.78-0.61-1.21-1.52-1.07
		c-2.86,0.44-5.49-2.95-4.93-5.74c0.36-1.76,2.08-3.43,3.74-3.68c1.75-0.26,3.83,0.72,4.69,2.56c0.68,1.47,1.11,1.09,2.04,0.25
		c1.56-1.41,3.33-2.59,5.14-3.68L147.12,69.99z M99.82,90.02c0.55-1.27,0.07-2.59,1.04-3.51c0.13-0.13,0.23-0.34,0.05-0.49
		c-1.11-0.88-0.44-2.33-1.13-3.46c-0.3,1.2,0.01,2.47-0.94,3.39c-0.07,0.06-0.08,0.3-0.02,0.36C99.81,87.3,99.42,88.69,99.82,90.02z
		 M111.58,83.25c-0.65,1.15-0.32,2.63-1.5,3.43c0.78,1.04,0.26,2.35,0.67,3.76c0.22-0.84,0.43-1.37,0.48-1.91
		c0.06-0.73,1.13-1.24,0.89-1.63C111.4,85.74,111.97,84.5,111.58,83.25z M88.19,84.05c-0.11,3.77,0.09,5.04,0.88,6.08
		c0.19-1.05,0.18-2.14,0.3-3.19C89.47,86.1,88.59,85.02,88.19,84.05z M130.18,86.86c-0.98,0.64-0.8,1.95-1.76,2.7
		c-0.35,0.27,0.1,1.89,0.06,2.96c0.34-1.04,1.72-2.04,1.58-2.46C129.67,88.89,130.2,87.92,130.18,86.86z M78.31,85.5
		c-0.13,0.8,0.2,1.76-0.49,2.48c-0.05,0.05,0.02,0.34,0.08,0.36c1.06,0.39,0.85,1.58,1.41,2.3C79.86,88.76,79.67,87.03,78.31,85.5z
		 M71.21,91.89c-0.26-0.88,0.49-1.92,0.03-2.39c-0.61-0.63-0.8-1.5-1.47-2.19C69.63,89.09,69.43,90.72,71.21,91.89z M121.29,85.49
		c-1.26,2.54-1.29,2.7-0.8,4.6C121.69,88.81,121.9,87.26,121.29,85.49z" />
		<path class="swe_st6" d="M122.38,163.03c0.51,2.38,0.09,4.27,0.08,6.13c-0.02,3.66,0.02,7.32-0.04,10.98
		c-0.06,3.41,1.22,6.31,3.54,8.72c0.77,0.8,0.78,1.25,0.07,2.07c-1.83,2.11-3.56,4.3-5.3,6.48c-0.39,0.49-0.83,0.67-1.46,0.67
		c-12.75-0.02-25.51-0.02-38.26,0c-0.63,0-1.03-0.18-1.43-0.69c-1.74-2.18-3.53-4.33-5.32-6.47c-0.53-0.64-0.63-1.09,0.08-1.76
		c2.98-2.81,3.56-6.42,3.38-10.32c-0.29-6.08-0.11-12.17-0.08-18.26c0-0.07,0.09-0.14,0.23-0.33c1.92,2.33,4.23,4.19,6.59,5.98
		c1.66,1.25,3.34,2.48,5.29,3.28c1.58,0.65,2.37,2.14,3.45,3.32c1.68,1.82,3.35,3.61,5.81,4.42c2.95,0.98,5.58,0.24,7.84-1.62
		c1.39-1.15,2.67-2.36,4.32-3.16c3.81-1.85,6.84-4.74,9.8-7.69C121.42,164.32,121.78,163.77,122.38,163.03z" />
		<path class="swe_st5" d="M67.7,119.69c0.73-2.01,1.22-4.14,3.04-6.06c0.1,1.35,0.22,2.31,0.22,3.28c0,4.79-0.09,9.69,1.25,14.26
		c1.66,5.67,1.59,11.49,2.22,17.21c0.68,6.18,1.74,12.39,1.31,18.68c-0.06,0.9-0.31,1.54-0.97,2.07c-2.89,2.29-7.21,1.16-8-1.7
		c-0.28-1-0.94-1.64-1.96-2.08c-2.14-0.92-2.76-2.84-2.83-5c-0.02-0.62,0-1.23,0-1.94c1.15,0.18,1.99,0.91,3.02,1.19
		c3.9,1.06,6.94-2.12,6.26-6c-0.86-4.93-3.78-8.72-6.92-12.36c-3.56-4.13-6.79-8.46-8.11-13.84c-1.69-6.91-0.47-13.39,3.22-19.49
		c1.81-3,4.18-5.5,6.43-8.12c1.51-1.76,3.45-2.4,5.62-2.7c0.94-0.13,1.86-0.32,2.8-0.47c1.66-0.26,1.83-0.07,1.42,1.62
		c-1.09,4.51-3.22,8.59-5.27,12.71c-1.19,2.38-2.43,4.73-3.05,7.34c-0.11,0.47-0.21,0.92-0.21,1.39c-0.42,1.13-0.8,2.27-0.81,3.9
		C67.24,122.16,67.33,120.87,67.7,119.69z" />
		<path class="swe_st5" d="M131.16,115.11c1.04,2.47,1.75,5.05,2.73,7.55c-0.22-2.65-0.73-5.22-1.85-7.62
		c-1.95-4.17-4.22-8.18-5.95-12.46c-0.57-1.42-0.88-2.89-1.21-4.37c-0.17-0.76,0.06-1.11,0.96-0.97c2.2,0.34,4.36,0.83,6.49,1.48
		c1.7,0.52,2.96,1.7,4.05,3c3.1,3.68,5.74,7.65,7.12,12.34c2.2,7.47,1.39,14.46-2.97,21.03c-2.55,3.84-5.53,7.32-8.37,10.92
		c-1.85,2.34-3.33,4.94-3.45,7.95c-0.07,1.86,0.45,3.76,2.26,4.94c1.75,1.14,3.51,0.87,5.28,0.16c0.65-0.26,1.23-0.68,1.89-1.06
		c0.12,0.56,0.24,1,0.3,1.46c0.37,2.88-0.94,4.92-3.89,5.88c-0.95,0.31-1.46,0.6-1.45,1.8c0.03,2.25-2.85,3.82-5.38,3.08
		c-2.53-0.73-3.2-1.61-3.2-4.22c0-2,0.01-4,0.02-5.99c0-0.08,0.07-0.15,0.13-0.27c0.71,0.2,0.63,1.3,1.55,1.33
		c0.2-0.99-0.57-1.65-0.83-2.46c-1.17-3.56-0.33-6.94,0.84-10.27c1.82-5.17,3.71-10.32,5.57-15.48c0.16-0.44,0.34-0.87,0.05-1.42
		c-1.39,2.28-2.74,4.51-4.46,6.53c1.6-7.59,3.63-15.06,3.3-22.87C130.85,115.12,131.01,115.11,131.16,115.11z" />
		<path class="swe_st7" d="M156.86,53.67c0.81,1.05,1.62,2.11,2.44,3.15c0.31,0.4,0.57,0.71,0.06,1.2c-4,3.8-9.22,3.84-13.01,0.96
		c-4.01-3.05-5.04-8.72-2.36-12.9c2.42-3.78,7.16-5.35,11.38-3.77c4.28,1.6,6.98,6.16,6.3,10.55c-0.15,0.98-0.5,1.29-1.51,0.96
		c-1.07-0.36-2.21-0.53-3.32-0.78c0,0-0.04-0.07-0.04-0.07s-0.08,0.02-0.08,0.02c-0.17-0.12-0.35-0.19-0.53-0.01
		c0.08-0.46,0.21-0.92,0.25-1.39c0.17-2.47-1.84-4.66-4.31-4.7c-2.54-0.04-4.6,2.16-4.41,4.72c0.18,2.44,2.33,4.23,4.76,3.93
		c-0.09-0.61-0.6-0.94-0.92-1.39c-0.36-0.5-0.82-0.93-1.14-1.46c-0.93-1.53,0.8-1.6,1.38-2.21c0.43-0.45,1-1.73,2-0.53
		c0.15,0.18,0.3,0.37,0.45,0.55c0.66,0.81,1.32,1.62,1.98,2.42c0.1,0.08,0.21,0.17,0.31,0.25
		C156.53,53.42,156.65,53.58,156.86,53.67z" />
		<path class="swe_st7" d="M93.55,32.19c0.32-4.21,0.68-8.43,0.95-12.65c0.06-0.97,0.3-1.34,1.32-1.24c2.65,0.25,5.31,0.37,7.95,0.63
		c2.57,0.25,4.31,1.91,4.68,4.61c0.36,2.61,0.09,5.15-1.9,7.16c-0.45,0.45-0.35,0.74-0.07,1.2c0.89,1.45,1.25,3.05,1.3,4.75
		c0.03,0.83-0.15,1.28-1.09,1.13c-0.47-0.08-0.95-0.03-1.42-0.08c-0.85-0.08-1.79,0.02-2.52-0.32c-0.84-0.39-0.32-1.46-0.56-2.21
		c-0.41-1.24-1.07-2.21-2.31-2.73c-0.78-0.33-1.26-0.27-1.28,0.75c-0.02,1.04-0.18,2.08-0.22,3.12c-0.03,0.71-0.36,0.91-1,0.8
		c-0.05-0.01-0.09-0.01-0.14-0.01c-4.05-0.19-4.05-0.19-3.74-4.21C93.51,32.66,93.53,32.42,93.55,32.19
		C93.55,32.19,93.55,32.19,93.55,32.19z M99.18,25.55c-0.12,1.92-0.12,1.92,1.76,2.04c1.46,0.09,2.33-0.6,2.45-1.93
		c0.14-1.52-0.77-2.28-2.94-2.39C98.33,23.15,99.76,24.97,99.18,25.55z" />
		<path class="swe_st8" d="M161.95,77.11c0.46,1.73,0.8,3.22,1.26,4.66c0.26,0.82-0.04,1.1-0.75,1.33c-3.15,1.01-3.14,1.02-4-2.15
		c-0.63-2.34-1.24-4.69-1.91-7.02c-0.24-0.82-0.07-1.17,0.8-1.4c5.15-1.35,10.29-2.76,15.42-4.17c0.85-0.23,1.29-0.1,1.53,0.85
		c0.74,2.95,1.52,5.89,2.38,8.81c0.28,0.95-0.03,1.23-0.89,1.47c-3.04,0.83-3.03,0.87-3.84-2.2c-0.15-0.55-0.39-1.09-0.45-1.65
		c-0.14-1.28-0.7-1.53-1.9-1.11c-0.82,0.29-1.03,0.57-0.75,1.39c0.34,0.98,0.57,2.01,0.84,3.02c0.07,0.28,0.28,0.65,0.18,0.82
		c-0.8,1.23-2.26,0.9-3.4,1.36c-0.73,0.29-0.83-0.41-0.97-0.9c-0.32-1.14-0.67-2.28-0.92-3.44c-0.2-0.91-0.76-0.69-1.29-0.48
		C162.75,76.5,161.78,76.26,161.95,77.11z" />
		<path class="swe_st8" d="M76.82,26.46c0.11,0.71-0.42,0.75-0.79,0.89c-1.38,0.51-2.76,1.05-4.17,1.46c-1.14,0.33-0.57,0.98-0.39,1.54
		c0.19,0.58,0.21,1.4,1.28,0.93c1.09-0.48,2.24-0.79,3.35-1.21c0.74-0.28,1.08-0.08,1.38,0.68c1.2,3.08,1.23,3.07-1.87,4.15
		c-0.27,0.09-0.54,0.19-0.81,0.28c-1.37,0.49-1.64,1.46-0.74,2.59c0.34,0.43,0.67,0.18,1.01,0.07c1.35-0.46,2.71-0.9,4.03-1.42
		c0.81-0.31,1.17-0.09,1.48,0.72c1.13,3.03,1.16,3.01-1.82,4.05c-2.24,0.78-4.49,1.55-6.72,2.37c-0.85,0.32-1.35,0.31-1.7-0.72
		c-1.69-5-3.44-9.97-5.22-14.94c-0.33-0.93-0.19-1.33,0.78-1.65c2.84-0.93,5.67-1.93,8.47-2.98c0.97-0.36,1.38-0.08,1.63,0.85
		C76.24,24.94,76.57,25.73,76.82,26.46z" />
		<path class="swe_st7" d="M50.42,50.28c-1.06-2.57-2.12-5.15-3.19-7.72c-0.99-2.38-1-2.38,0.85-4.1c2.04-1.9,2.04-1.91,3.14,0.74
		c1.95,4.69,3.87,9.4,5.87,14.08c0.41,0.97,0.37,1.57-0.46,2.32c-2.68,2.41-2.65,2.45-5.92,0.8c-4.24-2.14-8.48-4.28-12.73-6.42
		c-1.43-0.72-1.44-0.76-0.33-1.81c2.7-2.56,2.7-2.56,6.01-0.91c2.17,1.08,4.32,2.18,6.49,3.27C50.23,50.44,50.32,50.36,50.42,50.28z
		" />
		<path class="swe_st8" d="M25.41,73.09c0.13-2.61,1.11-5.02,2.68-6.94c1.02-1.26,2.09,0.74,3.23,1.03c0.71,0.18,0.58,0.7,0.24,1.23
		c-0.49,0.76-0.94,1.54-1.34,2.35c-0.4,0.81-0.6,1.72,0.23,2.34c0.89,0.67,1.72,0.15,2.43-0.47c0.39-0.34,0.71-0.77,1.07-1.14
		c2.35-2.41,5.96-2.56,8.51-0.37c1.18,1.01,1.61,2.32,1.45,3.83c-0.26,2.47-1.43,4.61-2.56,6.76c-0.04,0.08-0.09,0.2-0.17,0.23
		c-1.46,0.48-2.23-0.88-3.35-1.3c-0.79-0.3-0.3-0.82-0.04-1.26c0.45-0.78,0.94-1.55,1.31-2.36c0.35-0.78,0.41-1.6-0.42-2.17
		c-0.77-0.52-1.48-0.16-2.09,0.32c-0.52,0.41-0.93,0.95-1.4,1.42c-2.1,2.1-5.26,2.44-7.71,0.81C25.96,76.35,25.34,74.89,25.41,73.09
		z" />
		<path class="swe_st8" d="M126.75,43.46c-1.19-0.65-2.5-1.32-3.76-2.08c-0.33-0.2-0.08-0.6,0.08-0.9c2.57-4.88,5.15-9.76,7.7-14.65
		c0.33-0.64,0.71-0.67,1.25-0.35c0.04,0.02,0.08,0.04,0.13,0.06c3.69,1.74,3.69,1.74,1.79,5.35c-2.04,3.87-4.08,7.74-6.12,11.61
		C127.6,42.91,127.52,43.46,126.75,43.46z" />
		<path class="swe_st8" d="M129.47,172.26c-1.63,1.07-2.96,1.08-4.36,0.68c-0.89-0.26-0.96-0.99-0.71-1.58c0.37-0.88,0.83-0.02,1.18,0.16
		C126.68,172.09,127.83,172.38,129.47,172.26z" />
		<path class="swe_st8" d="M70.77,172.36c1.69-0.18,3.28-0.16,4.65-1.35c0.29,0.69,0.43,1.25-0.06,1.67
		C74.67,173.28,72.16,173.56,70.77,172.36z" />
		<path class="swe_st9" d="M67.7,119.69c-0.37,1.19-0.45,2.47-1.32,3.9c0.01-1.62,0.39-2.77,0.81-3.9
		C67.35,119.69,67.52,119.69,67.7,119.69z" />
		<path class="swe_st9" d="M77.79,135.08c0.49,0.83,0.84,1.72,0.83,2.79c-0.4-0.81-0.8-1.62-1.2-2.43
		C77.54,135.32,77.67,135.2,77.79,135.08z" />
		<path class="swe_st9" d="M131.16,115.11c-0.15,0.01-0.3,0.01-0.46,0.02c-0.17-0.22-0.34-0.61-0.09-0.68
		C131.06,114.31,131.08,114.79,131.16,115.11z" />
		<path class="swe_st10" d="M156.86,53.67c-0.21-0.09-0.33-0.25-0.34-0.48c0.06-0.06,0.13-0.13,0.19-0.19l0.08-0.02
		c0,0,0.04,0.07,0.04,0.07C156.84,53.26,156.85,53.46,156.86,53.67z" />
		<path class="swe_st5" d="M147.13,70.01c0.05-0.06,0.11-0.12,0.16-0.18c0.01,0.05,0.04,0.1,0.03,0.13c-0.04,0.14-0.11,0.15-0.2,0.03
		C147.12,69.99,147.13,70.01,147.13,70.01z" />
		<path class="swe_st1" d="M75.15,133.99c-0.06-0.06-0.11-0.11-0.17-0.17c0.12-0.01,0.23-0.02,0.35-0.03
		C75.27,133.87,75.21,133.93,75.15,133.99z" />
		<path class="swe_st10" d="M92.99,138.39c0.61,0.33,1.24,0.22,1.74-0.16c0.97-0.75,1.96-0.86,3.18-0.66c1.97,0.31,3.9-1.58,3.36-3.39
		c-0.66-2.17-0.77-4.4-0.83-6.58c-0.11-4.16-0.56-8.33,0.09-12.5c0.67-4.31,3.4-6.59,7.27-7.85c1.81-0.59,3.69-0.74,5.61-0.74
		c3.12,0.01,6.25,0.26,9.39-0.4c-0.69,2.02-2.52,3.36-4.42,3.41c-2.94,0.09-5.9-0.35-8.81,0.24c-4.9,0.99-6.58,3.67-6.96,8.46
		c-0.41,5.14,0.05,10.21,0.89,15.27c0.11,0.65,0.1,1.32,0.1,1.99c0.02,2.08,0.71,2.8,2.77,2.86c0.17,0.01,0.35,0.04,0.68,0.07
		c-0.92,1.27-2.16,1.73-3.46,1.81c-0.89,0.05-1.5,0.34-2.12,0.92c-1.22,1.15-2.19,1.13-3.47,0.01c-0.87-0.76-1.73-1.32-3.01-1.34
		C94.22,139.78,92.98,139.79,92.99,138.39L92.99,138.39z" />
		<path class="swe_st0" d="M109.11,113.97c1.81-2.55,6.5-3.16,8.87-1.21c1.31,1.08,2.12,2.65,3.87,3.46c-3.73,1.82-7.09,4.12-11.38,2.19
		c0.56-0.36,1.29-0.5,1.55-1.19c0.26-0.68,0.38-1.35,0.03-2.05c-0.62-1.2-1.6-1.33-2.76-0.99
		C109.23,114.11,109.18,114.04,109.11,113.97z" />
		<path class="swe_st0" d="M78.17,114.14c2.11-2.46,4.5-2.72,7.1-2.39c2.77,0.35,3.68,3.14,6.07,4.39c-3.7,1.72-7,4.11-11.34,2.2
		c1.3-0.72,2.21-1.72,1.57-3.2C81.02,113.85,79.81,113.7,78.17,114.14z" />
		<path class="swe_st10" d="M80.1,106.41c2.76,0.7,5.62,0.08,8.33,0.79c3.74,0.97,6.31,3.18,7.08,7.09c0.39,2,0.29,4.03-0.14,6.05
		c-0.65-1.84-1-3.75-2-5.44c-2.34-3.96-5.49-6.71-10.29-7.12C81.95,107.69,80.91,107.29,80.1,106.41z" />
		<path class="swe_st0" d="M107.39,149.32c-5.59-0.01-11.17-0.02-16.76-0.03c-0.01-0.14-0.03-0.29-0.04-0.43
		c1.17-0.48,2.42-0.77,3.5-1.45c1.64-1.01,3.32-1.6,5.18-0.58c0.36,0.2,0.64,0.04,0.93-0.11c1.57-0.81,3.01-0.41,4.39,0.47
		c0.99,0.63,1.94,1.35,3.1,1.66C107.59,149.02,107.49,149.17,107.39,149.32z" />
		<path class="swe_st10" d="M91.66,152.18c5.22,0.41,10.23,0.47,15.28,0.19c-1.55,0.99-3.36,1.37-4.93,2.29
		c-1.55,0.9-3.12,0.82-4.76,0.08c-1.42-0.64-2.92-1.09-4.39-1.63C92.48,152.96,92.07,152.84,91.66,152.18z" />
		<path class="swe_st11" d="M101.39,162.31c-1.27-0.34-2.54-0.45-3.86-0.04c0.99-0.35,1.36-1.65,2.46-1.58c0.8,0.05,1.23,0.78,1.61,1.44
		C101.53,162.18,101.46,162.24,101.39,162.31z" />
		<path class="swe_st9" d="M90.59,148.87c0.01,0.14,0.03,0.29,0.04,0.43c-0.33,0.18-0.65,0.36-1.01,0
		C89.87,148.94,90.22,148.88,90.59,148.87z" />
		<path class="swe_st9" d="M107.39,149.32c0.1-0.15,0.2-0.31,0.3-0.46c0.27-0.01,0.51,0.08,0.39,0.38
		C107.94,149.58,107.65,149.49,107.39,149.32z" />
		<path class="swe_st0" d="M109.29,114.18c-0.11-0.02-0.23-0.03-0.34-0.05c0.05-0.05,0.11-0.11,0.16-0.16
		C109.18,114.04,109.23,114.11,109.29,114.18z" />
		<path class="swe_st10" d="M93,138.39c-0.05,0.02-0.11,0.05-0.16,0.07C92.89,138.44,92.94,138.41,93,138.39
		C92.99,138.39,93,138.39,93,138.39z" />
		<path class="swe_st11" d="M101.6,162.12c-0.01,0.11-0.02,0.22-0.03,0.33c-0.06-0.05-0.12-0.1-0.18-0.15
		C101.46,162.24,101.53,162.18,101.6,162.12z" />
		<path class="swe_st12" d="M180.29,124.31c-1.54-2.39-3.22-4.66-5.32-6.59c-0.64-0.59-0.84-1.13-0.48-1.98c0.4-0.95,0.6-1.98,0.95-2.95
		c0.63-1.71,1.35-3.24,2.86-4.54c2.71-2.35,4.11-5.7,5.67-8.88c0.16-0.33,0.21-0.73,0.54-0.97c0.21,6.15-0.78,12.17-2.05,18.15
		C181.91,119.18,181.32,121.81,180.29,124.31z" />
		<path class="swe_st12" d="M15.48,98.39c1.5,2.83,2.8,5.78,4.78,8.33c0.38,0.48,0.71,1.07,1.21,1.38c2.47,1.53,2.74,4.24,3.75,6.59
		c0.76,1.77,0.17,2.82-1.12,3.99c-1.76,1.58-3.04,3.6-4.36,5.56c-1.94-5.69-3.07-11.56-3.75-17.52
		C15.67,103.95,15.4,101.18,15.48,98.39z" />
		<path class="swe_st11" d="M99.82,90.02c-0.39-1.33-0.01-2.72-1-3.71c-0.06-0.06-0.05-0.3,0.02-0.36c0.95-0.91,0.63-2.19,0.94-3.39
		c0.69,1.12,0.02,2.58,1.13,3.46c0.19,0.15,0.09,0.36-0.05,0.49C99.88,87.43,100.36,88.75,99.82,90.02z" />
		<path class="swe_st11" d="M111.58,83.25c0.39,1.25-0.18,2.49,0.54,3.64c0.24,0.39-0.82,0.9-0.89,1.63c-0.05,0.54-0.26,1.07-0.48,1.91
		c-0.41-1.41,0.1-2.72-0.67-3.76C111.25,85.88,110.93,84.4,111.58,83.25z" />
		<path class="swe_st11" d="M88.19,84.05c0.4,0.98,1.28,2.05,1.18,2.89c-0.12,1.05-0.11,2.14-0.3,3.19
		C88.28,89.08,88.08,87.82,88.19,84.05z" />
		<path class="swe_st11" d="M130.18,86.86c0.02,1.07-0.5,2.03-0.13,3.2c0.14,0.42-1.24,1.42-1.58,2.46c0.04-1.07-0.41-2.68-0.06-2.96
		C129.38,88.81,129.2,87.49,130.18,86.86z" />
		<path class="swe_st11" d="M78.31,85.5c1.36,1.53,1.55,3.25,1.01,5.14c-0.56-0.72-0.36-1.91-1.41-2.3c-0.07-0.03-0.13-0.31-0.08-0.36
		C78.51,87.27,78.18,86.3,78.31,85.5z" />
		<path class="swe_st11" d="M71.21,91.89c-1.78-1.17-1.57-2.8-1.44-4.59c0.67,0.7,0.86,1.57,1.47,2.19
		C71.7,89.97,70.95,91.01,71.21,91.89z" />
		<path class="swe_st11" d="M121.29,85.49c0.61,1.76,0.4,3.32-0.8,4.6C120,88.2,120.03,88.03,121.29,85.49z" />
		<path class="swe_st10" d="M156.21,52.94c-0.66-0.81-1.32-1.62-1.98-2.43c-0.15-0.18-0.3-0.37-0.45-0.55c-1-1.2-1.57,0.08-2,0.53
		c-0.58,0.61-2.31,0.67-1.38,2.21c0.32,0.52,0.77,0.96,1.14,1.46c0.32,0.45,0.83,0.78,0.92,1.39c-2.43,0.29-4.58-1.49-4.76-3.93
		c-0.19-2.56,1.87-4.76,4.41-4.72c2.47,0.04,4.49,2.23,4.31,4.7c-0.03,0.47-0.16,0.92-0.25,1.39
		C156.18,52.98,156.21,52.94,156.21,52.94z" />
		<path class="swe_st10" d="M156.18,52.98c0.18-0.18,0.36-0.11,0.53,0.01c-0.06,0.07-0.12,0.13-0.19,0.19c-0.1-0.08-0.2-0.17-0.31-0.25
		C156.21,52.94,156.18,52.98,156.18,52.98z" />
		<path class="swe_st10" d="M99.18,25.55c0.59-0.58-0.85-2.4,1.28-2.29c2.17,0.11,3.07,0.88,2.94,2.39c-0.12,1.34-0.99,2.03-2.45,1.93
		C99.05,27.47,99.05,27.47,99.18,25.55z" />
	</g>
</svg>