<svg xmlns="http://www.w3.org/2000/svg" viewBox="0 0 200 200"><path d="M94.17 0h10.52c1.15.23 2.3.11 3.45.14 4.05.12 8.06.64 12.05 1.22 8.2 1.21 16.22 3.11 24.05 5.84a115.83 115.83 0 0125.14 12.16c4.78 3.1 9.27 6.57 13.52 10.37 1.58 1.41 3.07 2.91 4.56 4.42.25.25.42.54.6.82v.85c-.22.89-.12 1.8-.15 2.69-.13 3.2-.5 6.36-.79 9.54a430.7 430.7 0 01-3.25 25.83 296.53 296.53 0 01-5.43 26.95 199.42 199.42 0 01-10.67 31.38 132.5 132.5 0 01-18.89 30.9 104.54 104.54 0 01-8.83 9.73 146.16 146.16 0 01-16.82 13.72 169.37 169.37 0 01-22.29 12.95c-.43.2-.9.3-1.34.5h-.17c-1.9-.54-3.59-1.52-5.3-2.43a222.6 222.6 0 01-9.57-5.33 143.1 143.1 0 01-14.18-9.6 125.6 125.6 0 01-13.31-11.7 126.82 126.82 0 01-11.47-13.62 131.66 131.66 0 01-12.05-20.04 167.42 167.42 0 01-6.81-16.19 211.04 211.04 0 01-7.03-23.48 304.12 304.12 0 01-4.7-24.16 445.5 445.5 0 01-2.59-19.67c-.4-3.68-.74-7.37-1.11-11.05a55.34 55.34 0 01-.25-4.99c0-.3.1-.62-.08-.9v-1.87c.2-.55.56-.97.96-1.37a108.96 108.96 0 0124.34-18.26 122 122 0 0118.05-8c8.72-3.11 17.7-5.1 26.86-6.34C85.33.44 89.5.04 93.7.09c.16 0 .34.04.48-.09z"/><path d="M99.82 8.16c1.8-.19 3.94.06 6.07.2 2.76.19 5.51.45 8.26.77 5.37.62 10.69 1.54 15.95 2.76 6 1.4 11.82 3.36 17.53 5.67a98.26 98.26 0 018.61 3.89 99.17 99.17 0 0114.82 9.38c2.74 2.12 5.41 4.34 7.95 6.72.42.4.5.75.44 1.38-.15 1.44-.26 2.9-.4 4.35-.18 2.17-.4 4.33-.63 6.5-.19 1.8-.4 3.61-.57 5.42-.15 1.6-.4 3.2-.61 4.8l-.73 5.48c-.3 2.12-.55 4.26-.88 6.38-.35 2.2-.8 4.37-1.15 6.57-.46 2.94-1.09 5.85-1.66 8.77a198.76 198.76 0 01-5.28 21.1c-.97 3.16-2.04 6.3-3.11 9.43-.2.58-.33.76-.94.28-2.66-2.12-5.4-4.14-8.06-6.26-1.3-1.04-2.46-2.22-3.7-3.33l-7.9-7.06c-.84-.75-1.7-1.49-2.46-2.32-.52-.57-.97-.6-1.58-.22-1.3.84-2.73 1.41-4.08 2.16-.55.3-1 .22-1.44-.18a129.2 129.2 0 01-9.33-9.32c-.9-.97-1.85-1.9-2.74-2.88-1.83-2.01-3.73-3.97-5.51-6.04-.19-.22-.32-.2-.56-.03-1.71 1.28-3.43 2.57-5.18 3.82-2.8 2-5.63 4-8.6 5.77-.92.54-1.6.43-2.3-.25a31.37 31.37 0 01-3-3.3c-.69-.88-.84-.96-1.72-.33l-11.1 8.04a944.27 944.27 0 01-15.5 10.96c-.88.61-1.6.56-2.43.06a33.07 33.07 0 01-3.98-2.76c-.64-.53-1.16-.56-1.92-.24-5.44 2.29-10.6 5.13-15.72 8.05-3.15 1.79-6.26 3.65-9.3 5.6-.62.4-.8 0-.95-.44-.96-2.85-1.96-5.69-2.83-8.56a272.13 272.13 0 01-2.85-10.11 204.7 204.7 0 01-3.17-14.33c-.68-3.66-1.39-7.32-2-10.99-.42-2.47-.71-4.96-1.06-7.45-.4-2.81-.82-5.62-1.17-8.44-.28-2.25-.46-4.5-.7-6.75-.27-2.55-.57-5.1-.83-7.66-.14-1.45-.24-2.9-.35-4.35-.04-.58.09-.98.6-1.42 1.12-.94 2.2-1.92 3.29-2.9a93.53 93.53 0 016.96-5.5 95.69 95.69 0 0112.41-7.57c3.98-2.09 8.13-3.78 12.33-5.36 4.36-1.63 8.79-3 13.3-4.12 3.05-.76 6.14-1.31 9.24-1.84 2.55-.43 5.12-.75 7.68-1.13 1.47-.22 2.96-.23 4.44-.37 3.24-.32 6.49-.55 10.1-.5z" fill="#c30003"/><path d="M81.55 110.26l3.11-3.99 4.66-5.92 5.02-6.46c.07-.1.12-.19.19-.27.37-.44.57-.72 1.08.04 1.7 2.55 3.57 5 5.34 7.52.37.52.6.52.88-.04.07-.15.21-.26.33-.38 2.6-2.67 5.29-5.26 7.8-8.02 1.8-1.98 3.86-3.7 5.5-5.87l18.18 22.2 6.09-7.07c.89 1.01 1.76 1.97 2.6 2.96l3.35 4.02c1.68 2.02 3.39 4.03 5.04 6.08.43.52 1 .68 1.56.84 3.69 1 7.37 2 11.08 2.91.72.18.5.49.37.82-.79 2.06-1.55 4.13-2.41 6.16-1.58 3.68-3.14 7.37-5.04 10.9a155.2 155.2 0 01-5.5 9.5 121.52 121.52 0 01-10.98 14.57c-1.57 1.74-3.04 3.58-4.74 5.2-2.3 2.18-4.69 4.28-7.12 6.33a139.88 139.88 0 01-12.42 9.31c-2.9 1.95-5.92 3.71-8.97 5.42a155.5 155.5 0 01-6.63 3.58c-.31.16-.57.24-.9.06-3.38-1.9-6.83-3.67-10.15-5.68-2.34-1.41-4.69-2.8-6.93-4.36-2.88-1.98-5.7-4.04-8.41-6.25-2.46-2-4.87-4.06-7.23-6.18a74.02 74.02 0 01-5.97-6.06c-3-3.39-5.83-6.92-8.49-10.6-2.92-4.05-5.5-8.3-7.94-12.64a121.78 121.78 0 01-5.81-12.16c-1.03-2.4-1.92-4.86-2.93-7.26-.14-.33-.52-.73.33-1.02 3.45-1.17 6.85-2.48 10.26-3.74l12.94-4.78c.18-.06.37-.1.53-.2.61-.35 1.03-.14 1.5.34 1.83 1.89 3.72 3.72 5.56 5.6.42.44.65.5 1.1.02 3.1-3.31 6.24-6.59 9.35-9.9.44-.47.65-.59 1.12.01 1.16 1.5 2.4 2.91 3.7 4.46zM66.67 18.23V46.76c0 1.03.36 1.3 1.36 1.02 1.66-.45 1.69-.48 1.69-2.2 0-9.03.02-18.06-.03-27.08 0-.92.37-1.08 1.1-1.2 1.82-.28 3.64-.61 5.48-.94.15.26.07.53.07.8v29.02a4.47 4.47 0 01-3.03 4.26c-2.1.8-4.33.96-6.48 1.49-1.2.29-2.36.75-3.65.72-2.14-.05-3.13-.99-3.13-3.14v-12.9c0-5.29 0-10.58-.02-15.87 0-.66.14-.9.86-1.09 1.91-.48 3.8-1.02 5.78-1.42zM118.44 21.7c-1.35-.17-2.64-.33-3.93-.47-.78-.08-1.56-.14-2.34-.17-.33-.01-.35-.18-.35-.43 0-.34.05-.7-.04-1.01-.2-.65-2.29-1.12-2.81-.67-.06.05-.09.15-.1.23-.2 1-.18 2.02-.02 3 .06.4.45.77 1.12.78 1.58 0 3.17.15 4.75.31 1.63.17 3.14 1.66 3.55 3.41.13.57.18 1.15.18 1.74v16.97a4.1 4.1 0 01-1.07 2.79c-.57.65-1.34.79-2.14.82-2.92.11-5.81-.45-8.74-.47-2.77-.03-4.35-1.81-4.35-4.57 0-4.84.01-9.67-.02-14.5 0-.67.19-.77.8-.79 1.77-.07 3.53.27 5.3.18.68-.03.54.4.54.76l-.01 13.58c0 .57.05 1.2.57 1.38.72.24 1.53.13 2.28-.03.13-.03.22-.4.22-.68l-.01-16.72c0-.8-.39-1.16-1.17-1.16-1.4 0-2.81-.12-4.2-.23a4.89 4.89 0 01-2.84-1.15 4.2 4.2 0 01-1.32-2.76c-.19-1.67-.32-3.33.2-4.96a3.5 3.5 0 013.8-2.3c1.19.13 2.4.03 3.6.17 1.6.2 3.23.2 4.84.37 1.42.15 3.16 1.9 3.54 3.42.27 1.05.15 2.1.17 3.16zM144.08 27.3c-2.06-.57-4.04-1.12-6-1.68-.35-.1-.67-.2-.65-.77.06-1.29-.12-1.44-1.42-1.8-.06-.01-.1-.07-.15-.09-1.32-.36-1.46-.26-1.46 1.15v1.18c0 1.14.25 1.43 1.36 1.71 1.32.34 2.68.59 3.96 1.06 2.73 1 4.3 2.36 4.34 5.76.07 5.74.06 11.48 0 17.22-.02 1.8-.64 3.1-2.9 3.11-.7.01-1.34-.24-2-.41-2.41-.65-4.8-1.33-7.26-1.8a5.23 5.23 0 01-4.12-5.04V32.22c-.01-.67.01-.87.86-.7 1.66.37 3.32.75 4.99 1.07.57.11.8.33.8.97-.04 4.47-.03 8.94-.03 13.4 0 1.25.18 1.45 1.38 1.8.24.06.48.1.72.17.68.19.97-.07.96-.76V44 31.88c0-1.24-.12-1.34-1.33-1.67-1.4-.38-2.81-.7-4.23-1.03-2.12-.48-3.63-2.34-3.96-4.59-.22-1.5-.3-3 .03-4.5.34-1.54 1.3-2.26 2.99-2.2 1.94.06 3.75.78 5.62 1.2 1.07.24 2.15.47 3.18.83 2.56.9 4.28 2.76 4.32 5.81v1.57zM44.1 31.34c0-.11-.02-.2-.01-.28.12-1.39-.09-1.73-1.62-1.05-1.02.46-1.61 1.05-1.45 2.23.06.5-.04 1.02.02 1.53.07.55.3.85.96.55 1.54-.7 3.08-1.45 4.69-1.98 1.65-.54 2.8-.46 3.51.72.34.55.5 1.2.5 1.88 0 5.91.07 11.82-.03 17.74a5.4 5.4 0 01-3 4.88c-3.09 1.64-6.42 2.76-9.55 4.33-.44.22-.99.28-1.5.33-1.27.14-2.2-.76-2.2-2.25-.03-5.12-.01-10.24-.02-15.36 0-.3.08-.48.38-.66 1.95-1.2 4.07-2.02 6.2-3.09.02.36.05.66.05.95v13.07c0 1.48.11 1.56 1.41.97.2-.09.42-.14.61-.24.63-.33 1.04-.77 1.04-1.56-.01-5.48 0-10.97 0-16.46-.01-.87-.2-1-1.04-.64-1.44.61-2.86 1.24-4.28 1.89-.78.35-1.6.49-2.43.5-.8 0-1.4-.55-1.58-1.28-.78-3.18-.64-7.06 2.38-9.45 1.2-.94 2.63-1.42 3.96-2.06 1.72-.84 3.52-1.52 5.28-2.26a3.55 3.55 0 012.96-.08c.93.44 1.28 1.4 1.35 2.38.05.7.22 1.53-.07 2.09-.25.5-1.13.52-1.73.75-1.6.62-3.18 1.27-4.79 1.91zM166.32 64.8c-2.25-1.32-4.46-2.36-6.65-3.42a54.62 54.62 0 00-5.33-2.34c-.43-.15-.77-.34-.77-.98.03-10.83.02-21.66.02-32.49l.03-.63c3.4 1.33 6.62 2.89 9.81 4.52.69.35 1.35.76 2.04 1.06.77.34.91.8.87 1.53-.06.95-.02 1.92-.02 2.97l-6.11-3.11c0 2.22.01 4.34-.01 6.46-.01.45.2.63.56.8 1.62.82 3.22 1.66 4.84 2.47.4.2.58.42.56.9-.04.9-.01 1.8-.01 2.75l-5.94-3.02-.01 14.77c0 .46.2.64.56.81 1.7.84 3.4 1.65 5.06 2.58.36.2.52.38.5.8-.02 1.13 0 2.26 0 3.57zM145.64 78.27c-1.1 0-2.2.03-3.3-.01-.55-.03-.66.16-.65.66.03 2.18-.02 4.36.03 6.54.02.7-.22.82-.85.8-1.7-.04-3.4-.04-5.09 0-.67.03-.9-.1-.89-.85.06-2.14 0-4.3.04-6.45 0-.53-.12-.71-.7-.7-2.14.03-4.29 0-6.44.02-.55.01-.71-.13-.7-.7.04-1.83.03-3.67 0-5.5 0-.5.14-.62.62-.61 2.17.02 4.35-.01 6.53.02.58.01.7-.17.69-.7-.03-2.1.02-4.2-.04-6.28-.02-.75.22-.88.9-.86 1.7.05 3.39.05 5.09 0 .63-.01.86.11.84.81-.05 2.1 0 4.19-.03 6.28-.01.58.12.77.73.75 2.2-.04 4.41 0 6.62-.02.52-.01.67.12.66.65-.04 1.83-.04 3.67 0 5.51 0 .54-.14.67-.66.65-1.13-.04-2.26-.01-3.4-.01zM86.02 31.93L86 15.73c0-.62.12-.78.76-.82 1.73-.09 3.45-.3 5.19-.32.55-.01.7.14.7.7-.02 10.86-.02 21.71 0 32.58 0 .53-.12.72-.7.7-1.64-.03-3.28.12-4.92.32-1 .13-1.02.1-1.02-.93V31.92z" fill="#fefefe"/></svg>