<svg version="1.1" id="Layer_1" xmlns="http://www.w3.org/2000/svg" x="0" y="0" viewBox="0 0 200 200" xml:space="preserve"><style>.gbr_st0{fill:#fdfcfc}.gbr_st1{fill:#07215f}.gbr_st2{fill:#d5002d}.gbr_st3{fill:#09225e}.gbr_st4{fill:#0a235f}.gbr_st5{fill:#0b225d}.gbr_st6{fill:#fefefe}.gbr_st7{fill:#f1f1f0}.gbr_st9{fill:#f9f8f4}.gbr_st10{fill:#072160}</style><path class="gbr_st0" d="M70 172.5c.3-.2 0-.4-.1-.5-1.2-.5-2-1.3-2.6-2.3-.4-.8-1-1.1-2-1-.7 0-1.4 0-2 .6-.7.8-1.8.9-2.7.4-1-.6-1.7-1.4-1.8-2.7-.1-1.3.3-2.5.8-3.7.2-.5.4-1 0-1.4-.4-.4-.7-.5-1.4-.4a2.6 2.6 0 01-2.9-3.3c.3-1 .2-1.5-.6-2.2-2.8-2.3-5.3-5-7.9-7.6-.6-.6-.9-.7-1.8-.4l-4 1.3c-.6.2-.9.4-1 .9-.6 1.5-1.4 2.7-3 3.2-1.6.6-2.9 0-3.4-1.7-.3-.6-.6-.8-1.2-.5l-.7.2c-1-.2-1.7.2-2.4 1-1.3 1.7-3.5 1-4.4-.6-.5-1-.7-1.9-.7-3s-.8-1.6-2-1c-1.8 1-3.9.3-4.3-1.7-.2-1 .2-2 .7-3 .2-.4.4-.7 0-1.4-1-2.3 1-4.6 3.1-5.5 2.6-1 5.3-1.3 8 .3 2.3 1.4 5.4.3 7.3-.9l.3-.4c0-.3-.3-.4-.6-.4-1.9.2-3.5-.4-4.7-2-.3-.4-.6-.3-.9 0-1.3 1.8-3.2 2.2-5.2 2-1.6 0-3.2.3-4.8-.4-2.5-1-4-3.6-3-6.2 3-9.1 6-18.3 9.3-27.3.5-1.5.8-3 .9-4.5 0-.5 0-1-.8-1-.5 0-.9-.4-1.2-.8-.4-.5-1-.7-1.7-.8-1.3 0-2.2-.6-2.6-2-.1-.5-.3-.8-1-.8a2 2 0 01-1-.3 8.4 8.4 0 00-4.3-1.7c-2-.2-2.6-3.2-1-5 .8-1 1.8-2 3.1-2.4-.5-1-.9-1.8-.8-3-.2 1.3-.5 2.5-1.7 3-1 .6-2.2.3-3-.4-1.1-.8-2-1.8-2.4-3.2-.1-.9-1.4-1.1-2-.4C7 79 6 79.5 4.3 79c-1.6-.7-2-2-2.2-3.5-.2-1.5.2-3.1.4-4.7V70c-1 0-1.5-1-2.5-1.3v-2.8c.1 0 .2.2.3 0 .9-1.6 2.4-2.5 3.8-3.6 1.7-1.3 3.3-1.6 5.3-.8a4 4 0 002.3.2c1.8-.4 3.6-.8 5.5-.9 2.5-.1 4.8.3 7.2 1 2.8.8 5.9.4 8.7 1.3.3 0 .5-.1.7-.3 1.4-1.5 3-2.1 5-2 .7 0 1-.2 1.3-.7 2.6-3.7 5.3-7.3 8.6-10.4.5-.5.8-1 1-1.6.1-2 1.4-3.3 2.8-4.4 1-.8 2-1.8 3.5-1.4.7.2 1.2 0 1.3-.5.2-1.2 1-2.5.5-3.6-1-3 1.4-7 3.8-8.1a8.3 8.3 0 019.2 1.1c.5.4.6.4.9-.1.7-1.3 1.3-2.8 3-3.3l-.1-.3h2.8c-.1 0-.2.2 0 .3 1.1.8 2.5 1.2 3.5 2.3.2.3.4 0 .5 0 3.7-1 7.3-1.9 11.1-2.1.3 0 .7 0 .4-.5h15.8c-.3.5.2.5.5.5a69.3 69.3 0 0130.2 10.6c1.2.8 2.4.8 3.5.6 1.5-.4 2.6-.2 3.6 1 1.1-1.7 2.7-3 4-4.6 2.3-2.6 4.8-5 7.2-7.6 0-.2.3-.3 0-.5h3.4c-.3.3 0 .4.2.5 1.4 1 1.4 3.3.5 4.7-3.2 5-6.3 9.9-10 14.5-.3.6-.4 1 .1 1.6 1.4 1.4 2.9 2.6 4.6 3.4.9.5 1.9.1 2.9.6s1.8 1 2.2 2c.5 1.2 1.2 2.4 1.2 3.7 0 .5.4.5.6.7 1.6 1.3 1.6 3 .5 4.2-.3.4 0 .7 0 1 1.8 2.8 3.2 5.8 4.3 8.9.2.5.5.4.9.2l1.6-1c2.9-2.4 6.6-1.7 9.5 0 1.8 1 3.3 2.4 5.4 3 1.4.5 1.8 1.8 2.2 3.1 0 .5.2.8.7 1.1 1.2 1 2.4 2.1 2.8 3.8.2 1 .1 2-.7 2.6-1 .7-1.6 1.7-2.7 2.2-2.8 1-5.1.2-7.2-1.7-.8-.7-1.4-1.6-2.8-1.2-1.3.3-2.5-.8-3-2.4-.2-.4-.4-.7-.4-1.1l-2.5 2.7c-.6.7 0 1.4.1 2 .7 2 .7 4.2.9 6.4.2 1.7.5 3.5.3 5.4 0 .6.4 1 .9 1.2.4.3.7-.3 1-.6 1.3-1.8 5.1-1.6 6.8 0 1.8 1.8 2 3.9 1.7 6-.5 3.7-1.1 7.3-1.8 11l-1.4 8.6-1 6.3c-.2.9-.6 1.6-1.4 2.3l6 1.6h.3c1.2 1.6 3.4 1.6 4.9 2.7 1.5 1.1 3.1 2.3 4.4 3.8l.2.3c.2 1.7 2 2.3 2.8 3.5l2.5 4c.2.3 0 1.2.8 1v2.5c-.9 0-.5.8-.7 1.2 0 .1 0 1 .7.8v3.6c-.3-.3-.4 0-.6.2-2.2 2.4-4.8 1.2-5.8-1.5-.1-.4-.1-.9-.5-1.2-1.8-1.4-2.7-3.4-4-5.1-.5-.8-.4-2-1.2-2.5l-3.4-2.7c-1-.7-1.7-1.9-3.2-2-1.8-.1-3.4-.8-5.2-1.2-.5-.2-1-.7-1.5-.5-1.1.3-2.3.5-3.6.6.3.5 1 .7 1.1 1.2 1 2.1 2.7 3.8 4.4 5.5.9 1 1 2 .7 3.2-.6 2-2.5 2.2-3.9 2.9-2.2 1-4.5.2-6.4-1-2-1.2-3.4-3.4-6-3.7-.2 0-.3-.1-.3-.2-.3-.4-.4-.3-.8 0-1.2.8-2.6 1.5-3.8 2.4-1.3.9-2.6 1-4 .6-.3-.1-.6-.4-1 0-1.5.9-3 1.8-4.3 3-5 4-10.5 7.6-16.5 10-1.1.5-1.4 1.1-1 2.2.3 1.2.2 2.4-.9 3.4-.2.1-.6.2-.3.6h-5c-.7-1.1-2-1.6-3-2.5h-.3a50 50 0 01-10.7 2c-.2 0-.6 0-.3.5H92.9c-.2-.5-.2-.5-.9-.5-1.5 0-3-.5-4.5-.6-2.8-.3-5.4-1.6-8.2-1.7-.4 0-1-.1-1.3-.5-.7-.8-1.7-.8-2.5-1.2-.7-.3-1.4.6-1.2 1.3.2 1-.2 1.6-.7 2.3-.2.3-.8.4-.5 1H70zm100.7-72.8c.3-2.2-.1-4.4-.3-6.6-.1-1 .2-2-.5-3 0-.8.3-1.6-.2-2.3l-.8-3.6 4-4.2c1.2-1.3 2.7-1.6 4.4-1.3.6.1 1.2.3.5 1.2-1.1 1.2-1 1.8.1 3 1.2-1.7 1.6-1.7 2.9.1a6.7 6.7 0 004.7 3.2c.7 0 1.5.2 1.5-1 0-.3.1-.4.5-.5 1.5-.3 1.6-.5.7-1.6-.3-.5-.8-.8-1.2-1.2-.8-.8-2.2-1.3-1.9-3 0-.4-.2-1-.8-1.1-2-.5-3.6-2-5.3-3-2.6-1.5-5-1.9-7.5.1a20 20 0 01-4.4 2.7c-1.8-5-4-9.9-6.8-14.5.6-.5 1.5-.7 1.8-1.9a4 4 0 01-2.4.3c-.3 0-.9 0-1-.7 0-.6.3-.8.7-1 .8-.3 1.1-.8.7-1.6l-.5-1.5c-.3-1.3-1.2-1.7-2.4-1.7-.7 0-1.3-.1-2-.4l-3.1-2-3-3c-1.3-1.1-1.4-1.1-.4-2.5 3-4 6-8.2 8.7-12.4l2-3.3c.3-.4.7-.9.3-1.3-.5-.4-.8.2-1.1.5l-2 2-7.6 8.5-4.2 4.5c0-1.5.2-2.9-.7-4-.3.7-.2 1.5-1 2l-.9-1.4c-.1-.2-.2-.4-.4-.4s-.3.3-.4.5c0 .3.1.5-.2.7-.1-.3-.5-.3-.8-.5l-.3-.3a69.2 69.2 0 00-45-12l-5.3.7c-3.8.6-7.5 1.5-11.1 2.7l.5-1.2c-.6 0-1 .4-1.5 0 .3-.4.8-.3 1.2-.7-1-.6-2-1.2-3-1.6-.3.6.4 1 0 1.5-.4-.3-.5-.9-.8-1.4L73.6 33c.6.3 1-.5 1.5 0-.2.5-.8.5-1.2.8.9 1-.5.5-.7 1 0 .1-.6.4-.6.7-.1 1-.7.3-1 .3.1-.9-1.4-.5-1.1-1.5-.9 0-1-1.2-1.5-1.1-.9.1-1.2-2-2.2-.5l-.1-.4c-.5-1.2-1.7.7-2.2-.5 0 0-.4.1-.5.3l-.1.3c0 .2 0 .3-.3.1-1.2-.6-1.5.8-2.2 1.2-.7.5-.7 1.7-1.3 2.5-.1.3 0 .6.2.8.3.2.3.5.3.8.1 1.6-.6 3-.3 4.7.1.6-.6.6-.8 1l-2.7 2.1c-.6-.1-.8-1-1.6-.6-2 1-3.4 2.6-3.3 5.1a45 45 0 00-6.2 6.7c-1.2 1.6-2.6 3.2-3.4 5-.3 0-.3.4-.3.6-.5.2-.6.9-1 1.2h-.4c-2-.6-4.4-.2-4.9 1-.6 1.8-1.7 1.4-2.9 1l-1-.2c-2.5-.6-5-.3-7.4-1-4-1.3-8-1.3-11.9-.2a6 6 0 01-4.3-.4c-.6-.2-1.1-.3-1.6 0l-3.1 2.1c-.5.4-.7 1-.9 1.6 1 0 1.9-.8 2.5-.2.5.6.9 1.5 1.5 2-1.6 1.1-2.5 5-1.7 6.8 0 .2.2.5.4.5.4 0 .3-.3.4-.5.3-.8.7-1.6 1.9-1.3.6.2 1.2 0 1.6-.6.6-.9 1.4-1 2.4-.8-.4 2 1 5.2 2.7 6v-1.8c0-.4 0-.7.5-1 2.3-1.2 2.6-1.7 2.2-4.3a4 4 0 01.4-2.5c.6.3.8.8 1 1.3.4 1 1 1.9 2 2.4.7.3 1.2.5 1-.5 0-.6.1-1.2.7-1.6.2 1 .4 1.9.8 2.8.3.9 1.2 1.4 1.5 2.3-1-.9-2.4-.2-3.5-.9-1.1-.6-2.4-.5-3.6.4l.8.4c1 .4 1.8 1 1.6 2.4-.2.7.1 1.5.8 1.7 1.1.5 1.3 1.3 1.3 2.4-2-.4-5.3 2-5.4 4l.6-.3c1.1-.4 2-.6 2.8.9.6 1.1 2.1 1.4 3.4.8 1-.5 2-.5 3.3-.4-1.2 1-.8 2.6-2.2 3.3a5 5 0 005-.8c-.1 1-.7 1.7-1.2 2.4 1 .7 2 .2 3 .1.2 1.7-.3 3.3-.3 5 0 1.4.5 3-1.1 4l-.1.3-9 26.5c-.5 1.3.3 3 1.7 3.4 1.5.4 3 .1 4.5.2 1.6 0 2.5-.7 3-2.2l1.6-4.7 1.2 2.7 1 2.7c.7 1.2 1.8 1.5 3 1.5.8 0 1.8-.5 2.3.5.7 1 1.3 2.2 1.9 3.3l-.4.3c-4 3.3-8.3 4.5-13.2 1.8-1.6-.8-4.9 0-6 1.5-.1.3-.4.6-.2 1l1-.1c.8-.2 1.7-.3 2 .6.1.6-.6 1-1.3 1.4-1.3.6-2 1.7-2.3 3.4 1.6-1.1 3-1.5 4.5-.5h.9c1.6.1 1.7.3 1.2 1.9-.4 1.2-.4 2.4.5 3.6l.5-1.1c.4-.9.7-1.4 1.9-1.1a3 3 0 003.3-1.1c.1-.2.3-.7.7-.4 1 .8 2.5 1.2 2 3 0 .3-.1.6.4.9 2-2 1.9-5.3 4.3-7 .6.8-.4 1.7-.3 2.6 1.9-.4 2.6-2 3.4-3.3l.1 2.3c1-.7 1.6-1.6 2.2-2.3.6.2 0 .9.6 1l1.5 1.6a82 82 0 006.7 6.5c1.5 1.4 3.2 2.7 4.8 4-.8.7-1.7 1.2-1.9 2.4 1.1-.3 2.4-.8 3 0 .7.8 1 1.8 2 2.3.1 0 0 .1 0 .2-.6 1-.2 2.1-.9 3-.5.9-.8 1.9-.2 2.9l1-1c.4-.4.8-1 1.4-.7 1.3.7 2.4.5 3.3-.4 1.6 1.5 2 3.9 4.6 4.7-.9-1.5-1-2.7.7-3.3.2-.1.4-.3.4-.5.3-1.7 1.3-1.6 2.6-1 1 .6 2.3.9 3.5 1.2.3.1 0 1.2.8.5h.6a64.2 64.2 0 0028.1 2.6 78 78 0 0012.7-2.6c.8 2 2.4 3 4.8 3 .5 0 .7-.2.6-.6-.4-1.4-.1-2.8-.2-4.2 3.5-1.6 7-3.2 10.4-5.2 4-2.5 7.8-5.2 11.2-8.5.9.2 1.5 0 1.8-1 .4-1 1.6-1.2 2.2-.3.7 1 1.4 1 2.4.4a75 75 0 013.5-2.3c.9-.5 1.3-1.1.7-2-.4-.7.1-1 .4-1.3.5-.4.8.2 1 .4.3.4.6.7.7 1.1.5 1.9 2 2.2 3.8 2.4-.4-.7-1.1-1.2-.5-2l1 1.8c1.5 2.6 3.5 4.3 6.6 4.3.3 0 .8 0 .9-.3.1-.8.6-.8 1.2-.8.4 0 .8-.1 1-.5.2-.4-.2-.6-.5-.9a32.7 32.7 0 01-3.3-3.7c-.5-.6-.7-1.5-1.3-2-1.5-.8-2.5-2.5-4.3-3 .3-.5.6-.9.7-1.4.3-.7.7-1.2 1.4-.4.3.3.6.3 1 .2 1.2-.1 2.4-.2 3.6-.5.9-.2 2 0 2.5-1.1.2-.3 1.3-.5 1.5.2.4.9 1 1.1 1.7 1.3l3.2.8c.7.2 1.5.5 2.3-.1.5-.3 1.1 0 1.1.7 0 .6.3 1 .8 1.4l2.9 2.2c.6.5 1.2 1.3 2.3 1 .3-.2 1 .4.6 1-.4 1-.1 1.6.4 2.3l1.7 2.7c.3.5.5 1.2 1 1.2 1.3.1 1.2 1 1.5 1.8l.6 1.6c.1.3.3.7.8.5.6-.2.5-.7.4-1l-1-2.5c-.1-.5-.2-.8.3-1.2.8-.5.7-1.2.2-2l-2.3-3.7c-.4-.6-.9-1-1.7-.9-1 .2-1.6-.5-1.2-1.5.3-.7.2-1.3-.4-1.8-1.2-1-2.5-1.9-3.6-3-.7-.5-1.3-.4-2 0-1 .6-1.7.3-1.7-1 0-.7-.3-1.2-1.1-1.4l-4.7-1.2c-.6-.2-1.3 0-1.5.6-.2 1-.9.6-1.4.6-.7.1-.8-.3-1-.8-.3-.9-1-1-1.7-1l-4.4.8c-1.1 0-1.5.7-1.4 1.6.1.6-.2.7-.5.8-.4.1-.8.7-1.3 0-.7-.8-1.4-.7-2.2 0l-1.5 1c-1 1-2 1-3 .4 1.5-2.2 3-4.6 4.3-7.1 1.2-2.7 3.1-5 5.2-7l.2.2c0 1-.4 2-.3 3.2 0 2 1 3 3 3.1h3.3c1.9 0 2.9-1 3.1-2.8l.8-5.4 1.5-9c.4-2.3.9-4.7 1.2-7.1.2-1.7.7-3.4.6-5-.1-1.4-1-2.5-2.4-2.7-1-.2-2.1.6-2.8 1.6-.7 1.1-1.4 2.4-2.7 3 .2-1.4-.4-2.5-1.2-3.6-.4-.6-1-1-1.4-1.5zm-5 32.6l-1.5 3.3c1.2-.6 1.6-1.8 2.8-1.9-.3-.6-.8-1-1.3-1.4z"/><path d="M200 152.7v2"/><path class="gbr_st1" d="M167.8 125.8c-2 2-4 4.3-5.3 7a50.4 50.4 0 01-4.3 7.1 7 7 0 01-4.3-2.2c-.8-.8-1-1.5-.1-2.4.3-.2.5-.7.6-1l3-7.8a2 2 0 00-.3-2l-2.5 4.6c-1 2.1-2.2 3.6-4.8 3.2-.4 0-.7 0-.8.7-.1 1.2-.7 2.3-1 3.5-.6 2.5-.1 4.5 2.2 5 2 .2 3.8 1 5.5 1.7-.5 1-1.7 1.7-2 2.8-.6.8-1.7 1.1-2.3 2-.5.5-1 1-1.6 0-.2-.4-.5-.4-.9-.5-1.1-.1-2.3-.4-3.4-.4-.9 0-1.7-.2-2.5 0-1 .5-1.6 0-1.7-.8-.1-.6-.4-1-.8-1.4l-3.2-2.6c-.5-.4-1.1-.9-1.8-.3-.5.4-.8 0-1-.3 0-.4.4-.4.7-.5 2.8-1 5.7-1.8 8.4-3.2a8.9 8.9 0 004.4-5.7h-.6c-2.3-.2-3.5-1.9-2.6-4l2-3.9c.2 0 .3-.2.2-.4-.2-.1-.3.2-.4.2-1.5 1.3-2.7 3-4.4 4.2a19.6 19.6 0 01-10.8 3.9c-1.1 0-2.2 0-3.4-.2-1.2-.3-1.5.2-1 1.3.3 1 .6 2 1.1 3 .4.7.1 1-.5 1.3-1.2.6-2.5.8-3.7 1.2-.8.2-1 .6-1 1.3 0 1.2-.3 2.4-.6 3.6-.7 3.8-1.5 7.4-4.6 10.2-1.4 1.3-1.8 3-.3 4.9.3-1 .9-2 2.1-2.2l.1 1.9c.5 0 .6-.6 1-.4l.2.9c0 .6 0 1.2-.2 1.7-.2.3-.4.6-.2.8.7.9.4 1.9.4 2.8 0 .9 0 1.7.5 2.5a77.8 77.8 0 01-24.1 3 64.2 64.2 0 01-16.8-3H80c0-.5.3-1 .2-1.5-.2-1.7-1.4-3-2-4.5l-.5-.4c-1.1-.3-1.6-.8-.8-1.9.4.3.8.8 1.4.9 1 0 1.6.4 2 1.2.3.5.5.3.8-.2 1-2.3.8-4.4-1-6.3-.4-.5-.7-1-.8-2 1.4 1 3.2 1.3 3.3 3.5 1.4-2.5 1.2-4-.6-5.8a7.6 7.6 0 01-1.8-2.4c1.5.2 2.6.8 3.5 1.8.5-2.5-.3-4.3-2.3-5.6 1.1-.5 1.7 0 2.4.7.3-2.3-.8-3.6-2.6-4.5l-1.4-.8a17.5 17.5 0 01-6.3-8.3c-2.4 2.2-3.6 2-5.3-.7l-5.7-9.3-2.7 8c-.3.8-.4 1.8-1.1 2.5-.6.6-2 1-.6 2l-.1.4c-.5 1.4 0 2.4 1 3.3 1 .8 2.1 1.5 1.5 3.3 1-.7 1.6-1.4 2.1-2.6.1 1.7-.2 3.3 1.6 4-.4-2.2 2.1-3.7 1-6 .5.3.8.5 1 .8 1.7 2 3.5 3.9 5.5 5.4.5.4.7.8.6 1.4-.4 2.5 0 5-.3 7.5-.1 2.1-.5 4.2-2 6a3.1 3.1 0 01-4.4.5c-.6-.5-1.2-1.3-2.2-1.1-1.3.2-2.6.1-3.8.5l-4.8-4a82 82 0 01-6.6-6.6l-1.5-1.6c1.3-1 2.2-2 2.3-3.7 0-2.1 1.3-3.4 3.1-4.2.4 0 .6-.3 1-.4 1.5-.4 1.2-1.7 1.2-2.8 0-1.2-1-1.1-1.8-1.1-.4 0-.9-.3-1.3-.4-.2-.1-.2-.3-.5-.2-2.3 1-4.6.7-6.9.3-.6-.1-.6 0-.8.5a9.3 9.3 0 01-2.2 3.5l-1.8-3.3c-.6-.9-1.6-.4-2.3-.4-1.3 0-2.4-.4-3-1.5l-1-2.7-1.2-2.8-1.6 4.8c-.6 1.5-1.5 2.2-3 2.2-1.6-.1-3 .2-4.6-.2-1.4-.4-2.2-2.2-1.8-3.4l9-26.6.2-.3c1.6-1 1.1-2.6 1.1-4 0-1.6.5-3.2.3-4.9l2.7-1.6c0 1.1-.8 1.7-1.1 2.6 1-.4 2-.1 3-.6.9-.5 1.5-1.3 2.3-2.3 0 1.3.2 2.3-.5 3.2 2.4.3 3.9-1.2 5.4-2.8 0 1.2-.2 2-.8 2.7l1.2.2c.8 0 1.2-.4 1-1.3-.4-2-.4-4 .3-6l5.7-17c.4-1.3 1.9-2.4 3.2-2.3h3.1c2.6 0 3.7 1.6 3 4-2 5.5-3.8 11-5.6 16.4-.2.7-.5 1.4 0 1.8.6.4 1.2.2 1.8 0A6 6 0 0059 86l5.5-16.2a3 3 0 013-2.2h2.3c.7 0 1-.3 1.5-.8.7-.9.6-2 .9-3 .1-.6.2-.7.7-.8 1.4-.3 2.7-.6 3.6-1.8 1-1.3 1.3-2.8 1-4.4-.1-1-1.3-.5-2-.9s-1-1.2-.4-1.7l1.2-1.3c.6-.5.3-1.4 1.2-1.7a5 5 0 002-1.5c.5-.6 1.3-1.6 2.5-1.3 0 0 .3-.1.3-.3l1.5-2.5c.3-.5 0-1.3.4-2 0 0-.2-.3-.5-.4 0 0-.3 0-.3-.3.6-1.8-1.7-2-2-3.4-.6.2-1 0-1.4-.6h-.6c-.2.1-.5.9-.6 0 0-.4-.4-.4-.6-.3-.7.3-1.2-.7-1.9-.4 0 0-.6-.3-.3-.7 1-1 0-2.4 1-3.3l.7.8 1-1.5c3.6-1.2 7.3-2 11-2.8 1.8-.3 3.6-.3 5.4-.5a69.7 69.7 0 0145 12c-2.2-.8-3.7 0-4.6 2.2a4.1 4.1 0 00-3.7-1.2c-.3 0-.8.2-1 .4 0 .4.5.5.7.7.3.3.5.8.7 1.2.3.6.1 1-.7 1-.8-.1-1.5 0-2.2.4-.2.2-.3.2-.2.5.2.5.2.5-.2.6l-2.2.6c.8.5 1.6.5 2.2 1.1-1.7.2-3.1.9-4.5 2l2.2.2c-1 .7-1.7 1.3-2.4 2 .3.4.9.3 1.2.7-4.8 3.4-5 5.1-4.9 7.7.6-.2 1-.8 1.9-1-.7 1.8-1.1 3.5-1 5.4 0 .8.5 1.2 1 1.5.6.3.6-.5.9-.7.5-.3.8-1 1.6-1-.2 1 .5 1 1.4 1h12c1.5 0 3-.3 4.3.8 1.4-.9 2.9-.8 4.4-.7h1.4a11.6 11.6 0 00-3.6-2.4c-1-.4-1-1-.5-1.8.4-.6 1-.9 1.5-1.2 1.9-.8 3.5-.3 5.2.7h-.6c-1.4-.3-2.6.7-2.3 2 0 .4.3 1 .8.6.6-.4 1.1-.1 1.7 0 .9.4 1.7.1 2.4-.5.5-.4.8-.4 1.4-.3 1.2.3 2.2-.5 2.3-1.5 0-.4.3-.5.6-.4 1 .4 2 .1 3 .2 2.8 4.6 5 9.5 6.8 14.5-.7 1-1.7.6-2.7.6-1 0-2-.8-1.4-1.6.6-1 0-1.5-.6-2-.5-.6-1.1-1-1.7-1.5-.1 0-.2-.3-.3-.2-.2.1 0 .3.1.4 1 1.8.9 3.9 2 5.6.2.4-.1.8-.3 1l-.4 1a23 23 0 01-12.7 16.9 16.2 16.2 0 01-9.1 2h-2.4c-.3 0-.5 0-.4.4 0 .4.3 0 .5 0h3.1a11 11 0 0110.9 10.8c0 1.9-.4 3.6-.6 5.4 3-6.3 7.4-12 8.7-19.1 2.5 1.5 2.5 1.5 1.3 3.2 1.6 0 2.4 1.1 3 2.6l.9-1.1c.3-.5.6-.6 1-.3 2.4 1.6 4 3.7 4.2 6.6-.3.2-.3.5-.2.6.3.2.2-.3.4-.4 1-.9 2-2 2.7-3.2.1-.1.4-.2.2-.5 1.3-.5 2-1.8 2.7-3 .7-1 1.8-1.7 2.8-1.6 1.3.2 2.3 1.3 2.4 2.7 0 1.7-.4 3.4-.6 5-.3 2.5-.8 4.8-1.2 7.2l-1.5 9-.8 5.3c-.2 1.9-1.2 2.8-3 2.9h-3.4c-2 0-3-1.2-3-3.2-.1-1 .3-2 .3-3.2.3-.2.2-.4 0-.7l-.2.5zM81 98.5c-.1-.1-.2-.4-.4-.2 0 0 0 .3.2.4-.7 1.7 1.3 2.1 1.8 3.3-.1-1.4-.5-2.7-1.6-3.5zm79.7 31.2l11.5-13.4-2 11.7c-.3 1.4-.2 1.7 1.3 1.7h1.7c.9 0 1.3-.1 1.3-1.2l.3-1.8c.5-3.5 1-7 1.7-10.5l1.4-8.8c.2-1.5.6-3 .6-4.5L164 120l-3-17.1-14 26.7h3.5c.5 0 .9 0 1.1-.6l2.5-4.8c1.5-2.7 2.6-5.4 4.3-8.2l2.3 13.7zm-39-7.3c0 1.7 1.3 4.3 4.1 6a10 10 0 007.3 1c5-1 8.7-3.6 11.8-7.4 2.3-2.8 3.5-5.9 4-9.3.4-2.6-.5-6.4-3.2-8.3-4.5-3-9-1.9-13.3.3a19.3 19.3 0 00-6.5 5.4c-2.5 3.2-4.1 6.6-4.2 12.3zM80 102.8h-2.9c-1.2-.2-1.6.4-1.9 1.4l-1.8 5.5-3 8.4-9-15.3-9.1 27h3.4c.7 0 1-.3 1.2-.8l3.3-10c.5-1.3.8-2.9 1.6-4.2l9 15 9.2-27zM84 85.7l-9-15.5-9.3 27h3.8c.6 0 .7-.4.8-.7l2.6-7.6 2.3-6.8 9 15.1 9.3-27h-3.1c-1-.1-1.4.3-1.6 1.1l-4.8 14.4zm12.3 44h5.4a17 17 0 0011.4-4.5c3.6-3.1 6.1-6.8 7-11.6.6-4-1.1-8.9-5.8-10.3-2.6-.9-5.3-.3-8-.5-.7 0-1 .2-1.2 1l-8.8 26zm39.1-32.5h5.5c4.4 0 8.2-1.8 11.4-4.6 3.6-3 6.1-6.8 7-11.6.6-4-1.2-8.9-5.8-10.3-2.6-.8-5.3-.3-8-.5-.8 0-1 .3-1.3 1-2.8 8.6-5.8 17.2-8.8 26zm-47 20.9h3.4c.6 0 .8 0 .6.7l-2 5.7c-.1.3-.1.7-.6.7-1-.1-2 .2-3-.2-3.8-1.2-4.5-4.2-3.9-7.4.8-3.7 3-6.6 6.3-8.6 3.2-2 7.5-2.8 10.5.6l1.6-4.7c.1-.3.5-.7-.2-1-2-1-4.2-1.4-6.4-1-4.8.8-8.8 3.2-12 7a16.8 16.8 0 00-4.5 11.7c0 2.2.9 4 2.3 5.6 3.4 3.5 8.9 2.9 12.5 1.3.2-.1.4-.3.4-.5l4.8-14h-4.6c-1.3 0-3-.4-3.8.2-.9.7-.9 2.5-1.3 3.9zm-37.6-15.3h-4.3a3 3 0 00-2.4 1l-8.8 8.2-2.8 2.4 4-11.6H33c-.8 0-1 .3-1.3 1l-5.5 16-3.3 10h3.4c.7 0 1-.3 1.2-1l3.7-10.8 4.2 10.2c.4 1 .8 1.8 2.2 1.6 1.2-.2 2.5 0 3.8 0l-2.2-5.4-3-7.4c-.2-.4-.5-.8 0-1.2 1.5-.9 2.6-2.2 3.8-3.3 2.7-2.3 5.2-4.8 7.8-7.2l2.9-2.5zm20.8-32.6H68c-.6 0-1 .2-1.1.9l-5.6 16.2a8.1 8.1 0 01-5.4 5.2c-2 .7-3.8-.1-4.5-1.8-.4-1-.4-2 0-3l3.2-9.8c.8-2.6 1.9-5 2.6-7.7h-3.4c-.7 0-1 .2-1.2.9l-4 11.6c-.9 2.8-2.2 5.5-2 8.6.2 3.3 2.5 5.9 5.9 5.9a13 13 0 0012-7.7c3.1-6 4.5-12.8 7-19.3zm53.5 11l2-6c.3-.7.7-.6 1.1-.6h8.2c1 0 2.5.3 3.2-.2.8-.6.8-2 1.2-3.1.4-1 .2-1-.7-1h-14.6c-.8 0-1.1.2-1.4 1l-6.4 19-2.4 7h12.5c1.4 0 3.2.4 4.1-.3 1-.7 1-2.5 1.5-3.9V93H122c-1 0-1.1-.2-.7-1.1l1.2-3.6c1-3 1-3 4-3h.4c.6 0 .9 0 1-.7l1.2-3.3H125zm-23.7 16h3.4c.8 0 1-.3 1.3-1l7-20.7c.2-.7.5-1 1.2-1h4.6c.5 0 .7 0 .9-.5l1.2-3.7h-16c-.5 0-.7.1-.8.6l-1.2 3.7h6l-7.6 22.6zm-13.8 0h3.3c.7 0 1-.2 1.4-1l8.7-26h-3.4c-.7 0-1 .2-1.1.9l-3.6 10.5-5.3 15.6zm-42.7 32.6H48c.8 0 1-.3 1.3-1l8.8-26h-3.5c-.6 0-.9.2-1 .9l-3.5 10.2-5.4 15.9zm47.8 10.6c.6 1.3 0 1.9-1 2.4-1 .6-2 1.3-1.6 2.9 1-1.7 2.5-1 3.8-1.1 1.3-.1 2-.8 2.1-2 0-.9 0-1.7-.2-2.4.7-.2 1 .8 1.6.4-.4-1.2-.4-1.2-.1-2.4.4-1.6 0-2.6-1.6-3.1-1.4-.4-1.4-.9-.5-1.8l.4-.7c.1-.1.2-.3 0-.5-.9-1.2-2.7-1.3-4-.1a3.9 3.9 0 01-4.2.8c-2.4-.8-5.1-.8-7.3-2.4 1.5 2.9 3.4 5.3 6.8 5.9.9.1 1.7.2 2.5.6.8.4 1.5 1 1 1.9-.5 1-1.3.5-2 0h-.2c-.2 1 .2 1.8 1.1 2.3 1.3.7 2.4.3 3.4-.7zm46.8-63.3h-9.8c-.8 0-.7.7-.8 1-.2.5.3.5.6.5 2.2.7 2.9 2.2 2 4.3-.5.8-.7 1.8-1 2.7-.2.5 0 .8.2 1.2 1 1 1.9 1.7 3.6 1.2-1 1.1-2 1-2.9 1-1.1 0-2.1.3-3 1.3 2.1.2 4.2-.3 6.1.3.5.2.5-.2.6-.4l4.4-13zm-89.7 30.2l-4 3.4c-1 1-2.5 1.9-2.5 3.7 0 .4-.4.4-.7.3-1.6-.2-2.3 1-3.3 2-.3.2-.2.5 0 .7.7 2.4 2.2 4.3 2.7 6.8.2.7.5 1.6 1.2 2.3l6.6-19.2zm1.8-7.5c.7.5 1.2.7 2 .6 2-.3 4-.5 6 .2.3.1.5.2 1 0 1.3-.7 2.8-.3 3.5 1l4.2 7.4c.6 1 1 2 1.9 2.7l1.3-3.8c.2-.5.2-1-.3-1.3-1.7-1.6-2.5-3.7-3.5-5.6-.4-.9-.7-1.3-1.8-1.3-1.7 0-3-1.6-2.7-3.3.1-.3.4-.5.2-.8-6.5 4-6.5 4-11.8 4.2zm67.7 22.4c-.8 1.3-1.8 2.3-2.8 3.3-.3.2-.4.5-.3 1 .5 1.5 1.5 2.6 3 3 .8.2.9.4.6 1-.5 1.1-.4 2.2.1 3.2.6 1.1.8 2.2 0 3.3 1.4.2 3-.5 3.6-1.6.8-1.6.5-3.2.5-4.9l-.4-.4a11 11 0 01-4.3-8zm1.6-19.3c-.3.8-.6 1.5 0 2.3.6.7.8 1.5 1.1 2.2.4.9.3 1.9.9 2.7.9-1 1.6-2.2 2.6-3 2.1-1.7 3-4 3.5-6.6.1-.5 0-.8-.5-.8H125c-.5 0-.8.1-.6.7.7 2.2-.3 3.9-1.5 5.6l-2.2-3.1zM114.3 92c.7-2 1-3.7 1.8-5.2 1.4-2.8 0-5.2-.8-7.7 0-.2-.2-.5-.5-.5-.4 0-.3.4-.4.6-.8 2.5-1.5 5-2.5 7.3-.5 1.4-.1 2.4.7 3.5l1.7 2zm-38.6-3.7c-1 2.8-1.8 5.6-3 8.2-.8 2-.6 3.5.6 5.2l.2.1c.6-1.1 1.6-1.6 2.9-1.8l-.4-1c-.7-2.2-1.3-4.6.4-6.5 1.2-1.4.7-2.2 0-3.3l-.7-.9zm11.6-20.1c-2.4.2-4.2 2-5 4.7-.6 2-1 4.3 1 6.1 1.5-3.6 2.1-7.5 4-10.8zm25.2 28.3v.8c-.5 2-.1 2.6 1.9 3.2l.9.3c.4.2.7.2.7-.3 0-.4.2-.8-.5-.9-2 0-2.8-1.3-3-3.1zm-26.6 20c-1 1.8-.4 3.7 2.3 6l.5-1.5c0-.2 0-.4-.3-.5-2.7-1.1-2.8-1.3-2.5-4zM153.2 68c1-.1.9-1 1.2-1.6.1-.2 0-.6-.4-.4-.8.5-2.2-.5-2.5.7-.1.6.9 1.1 1.7 1.3zm-26.3 22.3c-.4-.8-.8-2-1.3-2-.7 0-.5 1.2-1 2h2.3zm-41.9 12v1.6c1-.5 1-.5 0-1.7z"/><path class="gbr_st2" d="M78.7 33.6l-1 1.5-.6-.8c-1.1.9-.1 2.4-1 3.4-.4.3.2.6.3.6.7-.3 1.1.7 1.8.4.2 0 .6 0 .7.2 0 1 .3.3.6.1h.5c.4.6.8.8 1.5.6.3 1.4 2.6 1.6 2 3.4-.1.3.1.2.2.3.3 0 .6.3.5.5-.4.6 0 1.4-.4 2a69.9 69.9 0 01-1.8 2.8c-1.2-.4-2 .6-2.5 1.2a5 5 0 01-2 1.5c-.8.3-.6 1.2-1.2 1.7-.4.3-.6 1-1.1 1.3-.6.5-.3 1.3.3 1.7.7.4 1.9 0 2 1 .3 1.5 0 3-1 4.3-.9 1.2-2.2 1.5-3.5 1.8-.5 0-.7.2-.8.7-.2 1-.2 2.2-.9 3.1-.4.5-.8.8-1.4.8h-2.3a3 3 0 00-3 2.2L59 86a6 6 0 01-3.3 3.7c-.6.3-1.3.5-1.8.1s-.3-1.1 0-1.8l5.4-16.4c.9-2.4-.3-4-2.8-4h-3.2c-1.3-.1-2.7 1-3.1 2.2l-5.8 17.2c-.7 2-.7 4-.2 6 .1.9-.3 1.1-1 1.2L42 94c.6-.7.9-1.5.9-2.7-1.6 1.6-3 3.1-5.5 2.8.8-.9.5-2 .5-3.2-.8 1-1.4 1.8-2.3 2.3-.9.5-2 .2-3 .6.3-1 1.1-1.5 1.2-2.6L31 93c-1 .1-2 .5-3-.1.5-.7 1.1-1.3 1.3-2.4a5 5 0 01-5 .7c1.4-.6 1-2.3 2.2-3.2a6 6 0 00-3.3.4c-1.3.6-2.9.3-3.5-.9-.7-1.4-1.6-1.2-2.7-.8l-.6.2c0-2 3.3-4.3 5.4-4 0-1-.2-1.8-1.4-2.3-.6-.2-1-1-.8-1.7.3-1.4-.5-2-1.5-2.4l-.8-.4c1.2-.9 2.5-1 3.6-.4s2.4 0 3.5.9c-.3-1-1.2-1.5-1.6-2.3l-.7-2.9c-.6.5-.7 1-.7 1.7.1 1-.3.8-1 .5-1-.5-1.6-1.4-2-2.4-.3-.5-.5-1-1-1.3a4 4 0 00-.5 2.4c.4 2.7.2 3.2-2.2 4.4-.4.2-.4.6-.4 1v1.7c-1.8-.8-3.2-3.9-2.7-6-1-.2-1.8 0-2.4.9-.4.6-1 .8-1.7.6-1.2-.3-1.5.4-1.8 1.3-.1.2 0 .6-.4.5-.3 0-.4-.3-.5-.5-.8-1.8.2-5.7 1.7-6.8-.6-.6-.9-1.4-1.5-2-.6-.6-1.5.1-2.4.2.2-.7.4-1.3.9-1.6l3-2.1c.6-.3 1.1-.2 1.6 0a6 6 0 004.4.3c4-1 8-1 11.9.3 2.3.7 4.9.4 7.3 1l1.1.2c1.2.4 2.2.8 2.9-1 .4-1.3 2.9-1.7 4.9-1.1h.3l2.5 1.8c.2-1.3.3-2.4-1.4-2.6v-.3c0-.3 0-.5.2-.6 1.3-.8 2.5-.7 3.6.4.6.6 1.3.9 2.3.5-1.3-.8-1.4-1-2-2.3h.5c2.4-.2 2.5-.2 3-2.6.4-1.2.6-2.7 1.6-3.5 1.6-1 1.8-2.2 1-3.8-.2-.1-.2-.2-.3-.4-.1-2.5 1.2-4 3.2-5.1.8-.5 1 .5 1.6.6.5 1 1.4 1.3 2 .5.6-.7.6-1.7.8-2.6.2-.4.9-.4.7-1-.3-1.6.5-3.1.3-4.7 0-.3 0-.6-.2-.8-.3-.2-.4-.5-.2-.8.5-.8.6-2 1.3-2.5.6-.4 1-1.8 2.2-1.2.3.2.2 0 .2 0l.2-.4c0-.2.4-.4.5-.3.5 1.2 1.7-.7 2.1.5l.1.4c1-1.5 1.4.6 2.3.5.4-.1.6 1.1 1.4 1-.3 1 1.3.7 1.2 1.6.3 0 .8.6 1-.3 0-.3.5-.6.6-.8.1-.4 1.5 0 .6-1 .4-.2 1-.2 1.3-.6-.5-.5-1 .3-1.6-.1l1.6-2.8c.3.5.3 1 .7 1.4.5-.5-.2-1 .1-1.5 1 .4 2 1 3 1.6-.4.4-1 .3-1.2.8.4.3.9 0 1.4 0l-.4 1zM70.2 37l-2-2c-2.2-2-5-1.5-6 1-.4 1.2-.1 1.6 1 1.5.7 0 1.3.2 2 .5.3 0 .5.3.8 0 .8-.6 1.6-.4 2.5-.1.8.2 1.2.8 1.8 1.3.1.2.3.6.7.2.7-.6.6-1.4-.1-1.8l-.7-.6zM32.8 83c2.9 1 5.8 1.2 8.7 0h-1.2c0-.4.6-.7.5-1.1-3-.3-4.6-2.3-6.3-4.5-.1.7-.6 1.1-.2 1.7.2.4 0 .7-.4.7-1.3-.6-2.5-1.3-3.2-2.7a4 4 0 01-.5 2.1c-.7 1.2-.2 2 .7 2.8.5.4 1.2.8 2 1zm40.8-41.5c1.1.4 2.4.3 3.2 1.2l2.9 4c.5 1 .8.8 1.4.2 1.8-2 .9-5.2-1.8-5.8-1.1-.3-2.4-.3-3.4-.8-1.4-.8-1.9 0-2.3 1.2zM155.8 143.2c-1.8-.8-3.6-1.5-5.6-1.8-2.3-.3-2.8-2.4-2.2-4.8.4-1.2 1-2.4 1-3.6.1-.6.4-.8.9-.7 2.5.4 3.8-1 4.8-3.1.7-1.6 1.6-3.1 2.4-4.7.5.7.5 1.3.2 2l-2.9 7.8c-.1.4-.3.8-.6 1-1 .9-.7 1.6 0 2.4a7 7 0 004.4 2.3c1.1.5 2.1.5 3-.4l1.6-1.1c.8-.7 1.5-.8 2.2 0 .5.7.9.1 1.3 0 .3 0 .6-.2.5-.8-.1-.9.3-1.5 1.4-1.6l4.4-.7c.8-.1 1.4 0 1.7.9.1.5.3 1 1 .8.5 0 1.1.3 1.4-.5.2-.7.9-.8 1.5-.7l4.7 1.2c.8.2 1 .7 1 1.5.1 1.2.9 1.5 1.8 1 .7-.5 1.3-.6 2 0l3.6 3c.6.4.7 1 .4 1.7-.4 1 .2 1.7 1.2 1.5.8-.1 1.3.3 1.7.9l2.3 3.7c.5.8.6 1.5-.2 2-.5.4-.4.7-.3 1.2l1 2.4c0 .4.2.9-.4 1-.5.3-.7-.1-.8-.4l-.6-1.5c-.3-.8-.3-1.7-1.5-1.8-.5 0-.7-.8-1-1.3-.5-1-1.1-1.8-1.7-2.7-.5-.7-.8-1.4-.4-2.2.4-.7-.3-1.3-.6-1.2-1.1.4-1.7-.4-2.4-.9l-2.8-2.2c-.5-.4-.7-.8-.8-1.4 0-.7-.6-1-1-.7-.9.6-1.7.3-2.4.1l-3.2-.8c-.8-.2-1.3-.4-1.7-1.3-.2-.6-1.3-.5-1.5-.2-.6 1.1-1.6.9-2.5 1.1l-3.6.6c-.4 0-.7 0-1-.3-.7-.8-1.1-.3-1.4.4-.1.5-.4 1-.7 1.4 1.8.5 2.8 2.2 4.3 3.1.6.4.8 1.3 1.3 2 1 1.2 2 2.5 3.3 3.6.3.3.7.5.5 1-.2.3-.6.5-1 .5-.6 0-1 0-1.2.7 0 .4-.6.3-1 .3-3 0-5-1.7-6.5-4.3l-1-1.9c-.6 1 0 1.5.5 2.1-1.7-.2-3.3-.5-3.8-2.4a3 3 0 00-.7-1c-.2-.3-.5-1-1-.5-.3.3-.8.6-.4 1.3.6.9.2 1.5-.7 2l-3.5 2.3c-1 .7-1.7.6-2.4-.4-.6-.9-1.8-.7-2.2.3-.3 1-1 1.2-1.8 1l-3.6-.3c-1-.2-2.3-.1-2-1.8 0-1-1.7-1.6-2.4-1-.7.6-1.3.5-2 0-1-1-2.2-1.9-3.3-2.8-.6-.5-.8-1-.7-1.6 0-1.3-.8-1.8-2-1.4l-2.6 1c-1 .3-1.6.8-2 1.6a21.7 21.7 0 00-3 13.5c0 .5.2 1.1.5 1.5a6.6 6.6 0 011.5 5c0 1.4-.2 2.8.2 4.2.1.5 0 .7-.6.7-2.4 0-4-1-4.8-3.1-.4-.7-.4-1.6-.5-2.4 0-1 .4-2-.4-2.8-.2-.3 0-.6.2-.8.3-.6.2-1.2.3-1.8 0-.3-.1-.7-.4-.9-.3-.2-.4.4-.9.4v-1.8c-1.3.2-1.9 1-2.1 2.1-1.6-1.8-1.2-3.6.3-5 3-2.7 3.9-6.3 4.6-10 .2-1.3.5-2.5.5-3.7 0-.7.3-1.1 1-1.3 1.3-.3 2.6-.6 3.7-1.2.6-.3.9-.6.5-1.3l-1.1-3c-.4-1.1-.1-1.6 1-1.3 1.2.3 2.3.2 3.5.2 4-.1 7.5-1.6 10.7-3.9 1.7-1.2 3-2.8 4.5-4.1l.2.1-2 4c-1 2 .2 3.8 2.6 4h.5a9 9 0 01-4.4 5.6c-2.7 1.4-5.6 2.3-8.4 3.2-.3.1-.8.1-.6.6.1.3.5.6.9.2.7-.5 1.3 0 1.8.3l3.2 2.7c.4.3.7.7.8 1.3.1.9.8 1.3 1.7 1 .8-.4 1.7-.2 2.5-.2 1.2 0 2.3.3 3.5.5.3 0 .7 0 .9.4.5 1 1 .6 1.6 0 .6-.8 1.6-1.1 2.3-2 1.4-.3 2.3-2 4-1.4l.2-.3-.3-.3-2-.8zm-16.7 2.4l-.4-.4-1.4-1.1c-.3-.2-.4-1-1-.2-.7.7-.4.9 0 1.2l1.5 1.2c.3.2 1.3-.3 1.3-.7zm8.8 3l-2.2-.1c-.3 0-.8-.3-1 0-.1.2-.2.8 0 1.2 0 .3.5.1.8.1.6 0 1.1 0 1.6.3.2 0 .7 0 .5-.3-.5-.6.4-.7.3-1.3zm30.2-10l2.5.8c.2 0 .7 0 .6-.1-.2-.5.5-1 .3-1-.8-.4-1.6-.6-2.4-.6-.7 0-.2.8-1 1zm10.8 5.6c.5-1.6.5-1.6-1.4-2.9 0 .6-.5.7-.7 1.1.8.5 1.4 1.1 2.1 1.8zm-16.8-6.4c-.3-.4.2-1.2-.4-.8-.7.4-2.2-.7-2.2 1 0 .3 0 .9.4.6.7-.4 2 .3 2.2-.8zm-18.7 10c1.2 1 1.2 1 2.6.1.2-.1.6-.2.6-.4-1.3-2-2 .2-3.2.4zm40.8 3.4c1.5-.6.8-1.4.2-2.2-.3-.4-.4-.8-1-.3-.6.4-.5.6-.2 1l1 1.5zm-64.7-15c1-.9.8-1.6.5-2.5-.5-1-1.2 0-1.8-.6l1.3 3zm32.4 4.7c.8 0 1.2.5 1.8.2-.8-1-.8-1-1.8-.2zM160.3 63.1c-1 0-2 .2-3-.2-.3 0-.5 0-.6.4a1.8 1.8 0 01-2.3 1.5c-.6-.1-1 0-1.4.4-.7.5-1.5.8-2.4.5-.6-.2-1-.5-1.7 0-.5.3-.7-.3-.8-.7-.3-1.3 1-2.3 2.3-2h.6c-1.7-1-3.3-1.5-5.2-.6-.6.2-1.1.5-1.5 1.1-.4.7-.5 1.4.5 1.8 1.3.5 2.4 1.2 3.6 2.4H147c-1.5 0-3-.1-4.4.7-1.3-1-2.8-.7-4.3-.7h-12c-.9 0-1.6 0-1.4-1.2-.8.2-1.1.8-1.6 1.1-.3.2-.3 1-.9.7-.5-.3-1-.7-1-1.5-.1-1.8.3-3.6 1-5.3-.8 0-1.3.7-1.9 1 0-2.6.1-4.4 5-7.8-.4-.4-1-.2-1.3-.8l2.4-1.9-2.2-.1a8 8 0 014.5-2c-.6-.7-1.5-.7-2.2-1.2l2.2-.6c.4-.1.4-.1.2-.6-.1-.3 0-.3.2-.4.7-.5 1.4-.6 2.2-.5.8 0 1-.3.7-1a5 5 0 00-.7-1.2c-.2-.2-.8-.3-.6-.6.1-.3.6-.5 1-.5a4 4 0 013.6 1.2c.9-2.2 2.4-3 4.7-2.2l.3.3c-.6.9-2.2 1.1-1.7 2.8 1-.8 2.3-1 2.5-2.4.3-.1.2-.4.2-.7 0-.2.1-.4.3-.5.2 0 .3.2.4.4l1 1.5c.7-.5.6-1.4 1-2.1.8 1.1.5 2.5.6 4l4.2-4.5 7.7-8.4 1.9-2c.3-.4.6-1 1.1-.5.4.3 0 .8-.2 1.2l-2 3.3c-2.8 4.3-5.7 8.4-8.7 12.5-1 1.3-1 1.3.3 2.5a4.3 4.3 0 003 3l3.2 1.9c.6.3 1.3.4 2 .4 1.2 0 2 .5 2.3 1.8l.5 1.4c.5.8.2 1.4-.6 1.7-.5.2-.8.3-.7 1 0 .7.6.6 1 .6a4 4 0 002.3-.3c-.3 1.2-1.2 1.4-1.8 2zM59.6 156.7c1.2-.4 2.5-.3 3.7-.5 1-.2 1.6.6 2.3 1.1 1.4 1 3.2.8 4.4-.5a10 10 0 002-6c.2-2.5-.1-5 .2-7.5.1-.6 0-1-.5-1.3a30 30 0 01-5.5-5.4l-1-.9c1 2.3-1.5 3.8-1 6-1.9-.7-1.5-2.3-1.7-4-.5 1.2-1 1.9-2 2.7.6-2-.6-2.6-1.5-3.4-1-1-1.6-1.9-1-3.3v-.3c-1.3-1.2 0-1.5.6-2 .8-.8.9-1.8 1.2-2.7 1-2.5 1.8-5.1 2.7-7.8l5.7 9.2c1.6 2.7 2.8 2.9 5.3.7 1.1 3.5 3.4 6 6.3 8.3l1.4.8c1.7 1 2.8 2.2 2.5 4.5-.6-.7-1.3-1.2-2.4-.7 2 1.4 2.9 3.1 2.3 5.6-.9-1-2-1.6-3.4-1.8.4 1 1 1.7 1.7 2.4 1.9 1.8 2 3.3.6 5.8 0-2.2-1.9-2.4-3.3-3.4.2.9.5 1.4 1 2 1.6 1.8 1.8 4 .8 6.2-.2.5-.4.7-.7.2-.5-.8-1.1-1.2-2-1.2-.7 0-1-.6-1.5-.8-.8 1-.3 1.6.8 1.8.2 0 .4.2.5.4.7 1.5 1.8 2.8 2 4.5.1.5 0 1-.1 1.5-.8.7-.6-.4-1-.5-.7-1.7-2-1.6-3.4-1.3-1.2-.5-2.2-.6-2.5 1.1 0 .2-.3.4-.5.5-1.7.6-1.6 1.8-.7 3.3-2.6-.8-3-3.2-4.6-4.7-.9 1-2 1-3.3.4-.6-.3-1 .3-1.4.6l-1 1.1c-.6-1-.3-2 .3-2.8.6-1 .3-2.2.9-3.1v-.2c-1-.5-1.4-1.5-2-2.3-.7-.8-2-.3-3 0 .1-1.2 1-1.7 1.8-2.3zM170.2 108.4c-.2-3-1.8-5-4.1-6.6-.5-.4-.8-.3-1.1.2-.2.4-.6.7-1 1.1-.5-1.5-1.3-2.5-2.9-2.6 1.2-1.6 1.2-1.6-1.3-3.2-1.4 7.1-5.8 12.8-8.8 19.2.3-1.9.7-3.6.6-5.5a11 11 0 00-10.8-10.7h-3.2c-.1 0-.4.3-.5 0 0-.4.2-.5.5-.5h2.4c3.2.2 6.3-.5 9-2A23 23 0 00161.9 81c0-.4.2-.6.4-1 .2-.2.5-.6.2-1-1-1.7-1-3.8-1.9-5.6l.2-.1 1.7 1.4c.7.5 1.2 1 .6 2-.5.9.4 1.7 1.4 1.7 1 0 2 .4 2.7-.6a20 20 0 004.4-2.8c2.5-2 5-1.6 7.5-.1 1.7 1 3.2 2.5 5.3 3 .6.1.9.8.8 1.1-.3 1.7 1 2.2 2 3 .3.4.8.7 1.1 1.2.9 1.2.8 1.4-.7 1.6-.4 0-.5.2-.5.6 0 1-.8 1-1.5.9-2-.3-3.6-1.4-4.7-3.1-1.3-1.8-1.7-1.8-2.9-.1-1.1-1.3-1.2-1.9-.1-3.1.7-.8 0-1-.5-1.2-1.7-.3-3.2 0-4.4 1.3l-4 4.3c-.8.6-1.6 1.2-1 2.4.4.8 1.3.6 1.8 1.1.5.7.2 1.5.2 2.3-.3 1.1-.4 2.3-.4 3.4 0 1-.6 1.5-1.5 1.6-1 0-1 .6-.6 1.2 1 1.3 2 2.5 3.3 3.5l1.4 1.5c.8 1 1.4 2.2 1.2 3.6-.4 0-.3.2-.2.5-.8 1.2-1.6 2.3-2.7 3.2l-.2-.2zm-5-14.5c.8-2.6.3-5.1 1.5-7.5-1.4.7-2.7 1.5-3.9 2.3-.5.5-.6 1.2-.3 2 .6 1.3 1.8 2 2.8 3.2zm1.9-4.6c.3.9-.3 1.6-.2 2.4 0 .3-.3.8.3.7.3 0 1 .4 1-.5.1-1.1 1-2.4-1.1-2.6zm-2.8 11.4c-.2-.4-.5-.7-1-.8-.3 0-.2.3-.3.4l.7.9.6-.5zM40.8 136c1-1 1.7-2.2 2.2-3.5.1-.4.2-.6.7-.5 2.3.4 4.7.8 7-.3.2-.1.3.1.4.2.5.1.9.4 1.3.4.9 0 1.8 0 1.8 1.1s.3 2.4-1.2 2.8l-1 .5c-1.7.8-3 2-3 4.1-.2 1.7-1 2.8-2.4 3.7-.6-.1 0-.8-.6-1-.6.7-1.2 1.7-2.2 2.3v-2.3c-1 1.4-1.6 2.9-3.5 3.3-.1-.9.9-1.8.3-2.5-2.4 1.7-2.3 5-4.3 7-.5-.4-.4-.7-.4-1 .5-1.8-1-2.2-2-3-.4-.3-.6.2-.7.4a3 3 0 01-3.3 1.1c-1.2-.3-1.5.3-1.9 1l-.5 1.2a3.7 3.7 0 01-.5-3.6c.5-1.6.4-1.8-1.2-1.8h-1c-1.4-1.1-2.9-.7-4.4.4.2-1.7 1-2.8 2.3-3.4.7-.3 1.4-.7 1.3-1.4-.3-1-1.2-.7-2-.6l-1 .2c-.2-.5 0-.8.3-1 1-1.5 4.3-2.4 5.8-1.6 5 2.7 9.2 1.5 13.3-1.8l.4-.3z"/><path class="gbr_st1" d="M126.5 165.2c.1-2-.2-3.6-1.5-5-.3-.5-.5-1-.5-1.6-.5-4.8.4-9.3 3-13.5.4-.8 1-1.3 2-1.6l2.7-1c1.1-.4 2 .1 1.9 1.4 0 .6.1 1 .7 1.5 1 1 2.3 1.8 3.4 2.8.6.6 1.2.7 1.9.2.7-.7 2.4-.1 2.3.8-.2 1.8 1 1.7 2 1.9l3.7.3c-3.4 3.3-7.2 6-11.2 8.5-3.3 2-6.9 3.6-10.4 5.3z"/><path class="gbr_st3" d="M52 50.1l.1.4c.9 1.6.7 2.7-.8 3.8-1 .8-1.2 2.3-1.6 3.5-.6 2.4-.6 2.4-3 2.5l-.6.1c.6 1.4.8 1.5 2 2.3-1 .4-1.7.1-2.3-.5-1-1-2.2-1.2-3.5-.4.8-1.8 2.2-3.4 3.4-5 1.9-2.3 3.8-4.7 6.2-6.7zM170.7 99.8c-1.3-1-2.3-2.3-3.3-3.5-.4-.6-.4-1.2.6-1.2s1.4-.6 1.5-1.6c0-1.1.1-2.3.4-3.4.7 1 .4 2 .5 3 .2 2.2.5 4.4.3 6.7z"/><path class="gbr_st4" d="M169.7 87.8c-.5-.5-1.4-.3-1.8-1-.6-1.3.2-2 1-2.6l.8 3.6z"/><path class="gbr_st5" d="M42 62.4v.3c1.7.2 1.7 1.3 1.4 2.6L41 63.6c.4-.3.4-1 1-1.2zM59.5 43.5c-.2.9-.2 2-.7 2.6-.7.8-1.5.4-2-.5l2.7-2zM141.3 43c-.3 1.4-1.5 1.6-2.5 2.3-.5-1.6 1.1-1.9 1.6-2.7.3.1.7.1.9.4zM75.6 165.2c1.4-.3 2.7-.5 3.5 1.2-1.3-.3-2.5-.6-3.5-1.2zM152.1 52.7a4.3 4.3 0 01-3-3c1.1.8 2.1 1.8 3 3z"/><path class="gbr_st6" d="M160.8 129.8l-2.3-13.7c-1.7 2.8-2.9 5.6-4.3 8.2l-2.5 4.8c-.2.6-.6.7-1.1.7H147l14.2-26.8 3 17.1 14.4-17.1c0 1.5-.4 3-.6 4.5l-1.4 8.8-1.7 10.5-.3 1.9c0 1-.4 1.2-1.3 1h-1.7c-1.5 0-1.6-.2-1.3-1.6l2-11.7-11.5 13.4zM121.8 122.5c.1-5.7 1.7-9.1 4.2-12.3 1.8-2.3 4-4.1 6.5-5.4 4.3-2.1 8.7-3.2 13.3-.2 2.7 1.8 3.6 5.6 3.2 8.2-.5 3.4-1.7 6.6-4 9.3a19.9 19.9 0 01-11.8 7.4c-2.5.5-5 .5-7.3-1-2.8-1.7-4.2-4.3-4.1-6zm10.6 2.7l2-.1c5-1.5 8.2-4.7 9.8-9.6.7-2.4.5-4.7-1.3-6.5-1.8-2-4.3-2-6.7-1.4a13 13 0 00-9.5 9.5c-1.2 4.4 1.2 8.4 5.7 8.1zM80.1 102.8l-9.1 27-9.1-15c-.7 1.3-1 2.9-1.6 4.3L57 129c-.2.5-.5.8-1.1.8h-3.5l9.2-27 9 15.3 3-8.4 1.7-5.5c.3-1 .7-1.6 2-1.4H80zM83.9 85.7l4.7-14.4c.3-.8.7-1.2 1.7-1h3l-9.1 27L75 82 72.8 89l-2.6 7.6c-.1.3-.2.8-.8.7h-3.8l9.2-27 9 15.5zM96.2 129.8l8.8-26c.2-.8.5-1 1.3-1 2.6.2 5.3-.4 8 .5 4.6 1.4 6.3 6.2 5.7 10.3-.8 4.8-3.4 8.5-7 11.6-3.2 2.8-7 4.6-11.4 4.6h-5.4zm5.9-4.7c1 0 2.1.2 3 0 5-1.3 8.4-4.5 10-9.4 1.4-4.2-.9-8.9-6-8.4-.8.1-1.2.4-1.4 1-2 5.6-3.8 11.2-5.6 16.8zM135.3 97.2c3-8.8 6-17.4 8.8-26 .3-.7.5-1 1.3-1 2.7.2 5.4-.3 8 .5 4.6 1.4 6.4 6.3 5.7 10.3-.8 4.8-3.3 8.5-6.9 11.6a17 17 0 01-11.4 4.6h-5.5zm6-4.6h3c5-1.4 8.5-4.6 10-9.5 1.4-4.2-1-8.8-6-8.3-.8 0-1.3.3-1.5 1l-5.6 16.8zM88.4 118c.4-1.3.5-3 1.3-3.8.9-.6 2.6-.2 3.9-.2H98l-4.7 14c0 .2-.3.4-.5.5-3.6 1.6-9.1 2.2-12.4-1.3a8.5 8.5 0 01-2.4-5.6c-.2-4.6 1.7-8.3 4.5-11.7 3.2-3.9 7.2-6.2 12-7 2.2-.4 4.4 0 6.5 1 .6.3.2.7.2 1l-1.7 4.7c-3-3.4-7.2-2.6-10.5-.6s-5.5 4.9-6.2 8.6c-.7 3.2 0 6.2 3.9 7.4 1 .3 2 .1 2.9.2.5 0 .5-.4.6-.7l2-5.7c.2-.7 0-.8-.6-.7h-3.3zM50.7 102.8c-1 1-2 1.7-2.9 2.5-2.6 2.4-5 4.9-7.8 7.2-1.2 1-2.3 2.4-3.7 3.3-.6.3-.3.8-.1 1.1l3 7.4 2.2 5.5c-1.3 0-2.6-.2-3.8 0-1.4.2-1.8-.6-2.2-1.6l-4.2-10.3-3.7 11c-.2.6-.5 1-1.2.9H23l3.3-10 5.5-16c.2-.8.5-1 1.3-1h3.4l-4 11.6 2.8-2.5c3-2.6 5.8-5.4 8.8-8.2.6-.6 1.4-1 2.4-1l4.3.1zM71.5 70.2c-2.5 6.4-3.9 13.2-7 19.3a13 13 0 01-12 7.7c-3.4 0-5.8-2.6-6-6-.1-3 1.2-5.7 2.2-8.5 1.3-3.9 2.5-7.8 4-11.6.2-.7.4-.9 1-.9h3.4c-.6 2.7-1.7 5.1-2.5 7.7l-3.2 9.8c-.4 1-.4 2 0 3 .7 1.7 2.5 2.5 4.5 1.8a8.1 8.1 0 005.4-5.1L67 71c.2-.7.4-.9 1-.9h3.6zM125 81.2h4.2c-.4 1.1-1 2.2-1.2 3.3-.1.6-.4.8-1 .8h-.4c-3 0-3 0-4 2.9l-1.3 3.6c-.3.9-.2 1.1.8 1.1h11.2v.2c-.5 1.4-.6 3.2-1.5 3.9-.9.7-2.7.2-4 .2h-12.6l2.4-6.9 6.4-19c.3-.8.6-1 1.4-1H140c.9 0 1.1 0 .7 1-.4 1-.4 2.5-1.2 3-.7.6-2.1.3-3.2.3H128c-.4 0-.9 0-1 .5l-2.1 6zM101.3 97.2c2.6-7.5 5-15 7.7-22.6h-6.1l1.2-3.7c0-.5.3-.7.7-.7H121c-.4 1.4-1 2.5-1.2 3.8-.2.5-.4.6-.9.6h-4.6c-.7 0-1 .2-1.2.9l-7 20.7c-.3.7-.5 1-1.3 1h-3.4zM87.5 97.2l5.3-15.6L96.4 71c.2-.7.4-.9 1-.9h3.5l-8.8 26c-.2.9-.6 1-1.3 1h-3.3zM44.8 129.8l5.4-16 3.4-10.2c.3-.6.5-.8 1.1-.8h3.5c-3 8.7-6 17.3-8.8 26-.2.7-.5 1-1.3 1h-3.3z"/><path class="gbr_st2" d="M92.6 140.4c-1 1-2 1.4-3.3.7-1-.5-1.4-1.3-1.2-2.3h.2c.7.5 1.5 1 2 0s-.2-1.5-1-2c-.8-.3-1.6-.3-2.4-.5-3.5-.6-5.4-3-7-6 2.3 1.7 5 1.7 7.4 2.5a4 4 0 004.2-.8c1.4-1.2 3.1-1.1 4 .1.2.2.1.4 0 .5 0 .3-.2.5-.4.7-.9 1-.9 1.4.5 1.8 1.6.5 2 1.5 1.6 3.1-.3 1.2-.3 1.2.1 2.4-.7.4-1-.6-1.6-.4.3.7.3 1.5.3 2.3-.1 1.3-.9 2-2.1 2-1.4.1-2.9-.5-3.9 1.2-.3-1.6.6-2.3 1.7-2.9.9-.5 1.5-1 .9-2.4zM139.4 77.1L135 90.2c0 .2 0 .6-.6.4-2-.6-4 0-6.1-.3.9-1 1.9-1.3 3-1.2 1 0 2 0 2.9-1.1-1.7.5-2.7-.2-3.5-1.2-.4-.4-.5-.7-.3-1.2.3-1 .5-1.9 1-2.7.9-2.1.2-3.6-2-4.3-.3 0-.8 0-.6-.5.1-.3 0-1 .8-1h9.8zM49.7 107.3L43 126.6c-.7-.8-1-1.7-1.2-2.4-.5-2.5-2-4.4-2.8-6.8 0-.3-.2-.5 0-.7 1-1 1.8-2.2 3.4-2 .3 0 .7.1.7-.3 0-1.8 1.4-2.7 2.5-3.7l4-3.4zM51.5 99.8c5.3-.2 5.3-.2 11.8-4.2.2.3-.1.5-.1.8-.4 1.7.9 3.3 2.7 3.3 1 0 1.3.4 1.7 1.3 1 2 1.9 4 3.6 5.6.4.4.4.8.2 1.4l-1.3 3.7c-.9-.7-1.3-1.8-1.9-2.7l-4.2-7.5c-.7-1.2-2.2-1.6-3.5-1-.5.3-.6.3-1 .1-2-.6-4-.4-6-.2-.8 0-1.3-.1-2-.6zM119.2 122.2a11 11 0 004.3 7.9c.2 0 .4.3.4.4 0 1.7.3 3.3-.5 4.9-.6 1.1-2.2 1.8-3.6 1.6.8-1.1.6-2.2 0-3.3-.5-1-.5-2-.1-3.1.3-.7.2-1-.6-1.1-1.5-.4-2.5-1.5-3-3-.1-.5 0-.7.3-1 1-1 2-2 2.8-3.3zM120.8 102.9l2.2 3.1c1.2-1.7 2.2-3.4 1.5-5.6-.2-.6.1-.7.6-.7h3.3c.6 0 .6.3.5.8-.5 2.6-1.4 4.9-3.5 6.6-1 .8-1.7 2-2.6 3-.6-.8-.5-1.8-.9-2.7-.3-.7-.5-1.5-1-2.2-.7-.8-.4-1.5-.1-2.3zM114.3 92l-1.7-2c-.8-1-1.2-2-.7-3.4 1-2.4 1.7-4.8 2.5-7.3.1-.2 0-.7.4-.6.3 0 .4.3.5.6.8 2.4 2.1 4.8.8 7.6-.8 1.5-1.1 3.2-1.8 5.2zM75.7 88.4l.6.9c.8 1 1.3 2 0 3.3-1.7 2-1 4.3-.3 6.6 0 .3.2.6.4 1-1.3 0-2.4.6-3 1.7l-.1-.1a4.7 4.7 0 01-.5-5.2c1.1-2.6 2-5.4 2.9-8.2zM87.3 68.3c-1.9 3.3-2.5 7.2-4 10.8-2-1.7-1.6-4-1-6.1.8-2.6 2.6-4.5 5-4.7zM112.5 96.6c.2 1.8 1 3 3 3.2.7 0 .5.4.5.8 0 .5-.3.5-.7.3l-1-.3c-2-.6-2.3-1.1-1.9-3.2l.1-.8zM86 116.7c-.4 2.6-.3 2.8 2.4 3.9.4.1.4.2.3.5l-.5 1.4c-2.7-2.2-3.4-4-2.3-5.8z"/><path class="gbr_st7" d="M155.8 143.2a112.2 112.2 0 012.1 1l-.1.3c-1.8-.5-2.7 1.2-4 1.5.3-1.1 1.4-1.8 2-2.8z"/><path class="gbr_st2" d="M153.2 68c-.8-.2-1.9-.7-1.7-1.3.3-1.2 1.7-.2 2.5-.7.3-.2.5.2.4.4-.3.6-.3 1.5-1.2 1.6zM127 90.3h-2.4c.4-.8.3-2 1-2 .6 0 .9 1.2 1.3 2zM81 98.6c1.2.8 1.6 2 1.7 3.5-.5-1.2-2.5-1.6-1.8-3.3l.2-.2zM85 102.3c1 1.1 1 1.1 0 1.6v-1.7z"/><path class="gbr_st0" d="M167.8 125.8c0-.2.2-.4.3-.5.1.2.2.5-.2.7l-.1-.3z"/><path class="gbr_st2" d="M170.4 108.5c-.2.1-.1.6-.4.4-.1 0 0-.4.2-.5l.2.1zM160.5 73.3c-.2 0-.3-.2-.1-.4.1-.1.2.2.3.2l-.2.2zM146.7 124.3c0-.1.1-.4.3-.2.1 0 0 .3-.2.3l-.2-.1zM80.9 98.8c-.2-.1-.3-.3-.2-.4.2-.2.3 0 .4.1l-.2.3z"/><path class="gbr_st0" d="M173 105.3c0-.2 0-.4.3-.5.2.3 0 .4-.3.5z"/><path class="gbr_st5" d="M73.6 41.4c.4-1.3.9-2 2.3-1.2 1 .5 2.3.5 3.4.8 2.7.6 3.6 3.8 1.8 5.8-.6.6-1 .7-1.4-.2-.9-1.4-1.8-2.7-2.9-4-.8-1-2.1-.8-3.2-1.2zM33.9 79.7c.4 0 .6-.3.4-.7-.4-.6 0-1 .2-1.7 1.7 2.2 3.4 4.2 6.3 4.5 0 .4-.4.7-.5 1.1h1.2c-3 1.2-5.8 1-8.7 0l1-3.2z"/><path d="M68.5 38c-.9-.3-1.7-.5-2.5.2-.3.2-.5 0-.8-.1-.7-.3-1.3-.5-2-.5-1.2 0-1.4-.3-1-1.4 1-2.6 3.9-3.1 6-1.2l2 2.1-1.7.9z" fill="#faf9f7"/><path class="gbr_st9" d="M33.9 79.7l-1 3.2c-.8-.2-1.5-.6-2-1-.9-.8-1.4-1.6-.7-2.8a4 4 0 00.5-2c.7 1.3 1.9 2 3.2 2.6z"/><path class="gbr_st5" d="M68.5 38l1.7-.9.7.5c.8.5.8 1.3 0 2-.3.2-.5-.1-.6-.3-.6-.5-1-1.1-1.8-1.3zM139 145.6c0 .4-1 .9-1.2.7l-1.5-1.2c-.4-.3-.7-.5 0-1.2.6-.7.7 0 1 .2l1.4 1 .4.5zM147.9 148.5c0 .6-.8.7-.3 1.3.2.4-.3.3-.5.3-.5-.2-1-.2-1.6-.3-.3 0-.8.2-.9-.1 0-.4 0-1 .2-1.3 0-.2.6 0 .9.1h2.2z"/><path class="gbr_st9" d="M178.1 138.7c.8-.2.3-1 1-1a8 8 0 012.4.5c.2.1-.5.6-.3 1 .1.3-.4.2-.6.2l-2.5-.7z"/><path class="gbr_st7" d="M189 144.2c-.8-.7-1.4-1.3-2.2-1.8.2-.4.8-.5.7-1 1.9 1.2 1.9 1.2 1.4 2.8zM172.1 137.8c-.3 1.1-1.5.4-2.2.8-.4.3-.4-.3-.4-.6 0-1.7 1.5-.6 2.2-1 .6-.4.1.4.4.8zM153.4 147.9c1.2-.3 1.9-2.3 3.2-.4 0 .2-.4.3-.6.4-1.4 1-1.4 1-2.6 0zM194.2 151.2l-1-1.5c-.3-.4-.4-.6.2-1 .6-.5.7 0 1 .3.6.8 1.3 1.6-.2 2.2z"/><path class="gbr_st4" d="M129.5 136.2l-1.3-3.1c.6.6 1.3-.5 1.8.6.3.9.4 1.6-.5 2.5z"/><path class="gbr_st7" d="M162 141c.9-1 .9-1 1.7.1-.6.3-1-.3-1.8-.2z"/><path class="gbr_st4" d="M165.3 93.9c-1-1.1-2.2-1.9-2.8-3.2-.3-.8-.2-1.5.3-2 1.2-.8 2.5-1.6 3.9-2.3-1.2 2.4-.7 5-1.4 7.5z"/><path class="gbr_st5" d="M167 89.3c2.1.3 1.3 1.5 1.2 2.6 0 1-.7.5-1 .5-.6 0-.3-.4-.3-.7 0-.8.5-1.5.2-2.4zM164.3 100.7l-.6.5-.7-1c.1 0 0-.4.3-.3.5.1.8.4 1 .8z"/><path class="gbr_st1" d="M132.4 125.2c-4.5.3-7-3.7-5.7-8.1a13 13 0 019.5-9.5c2.4-.6 4.8-.5 6.7 1.4 1.8 1.8 2 4.1 1.3 6.5-1.6 5-4.9 8.1-9.9 9.6l-1.9.1zm.7-12.8c-1.8 1-3.8 4-4 5.8-.6 3.4 1.6 5.2 4.9 4.2 4.3-1.3 6.9-4.3 8-8.6.2-1.2-.6-3-1.7-3.6-2.1-1-5.4 0-6.4 2.2-1.3 2.5-2.8 5-4.6 7.4 0-1 .2-1 1.3-2.6 1-1.5 1.7-3.2 2.5-4.8z"/><path class="gbr_st10" d="M102 125.1l5.7-16.8c.2-.6.6-.9 1.3-1 5.2-.5 7.5 4.3 6.1 8.5-1.6 4.8-5 8-10 9.3-.9.2-2 0-3 0zM141.2 92.6l5.6-16.8c.2-.7.6-1 1.5-1 5-.5 7.4 4 6 8.3-1.6 5-5 8.1-10 9.5h-3.1zm3.7-3c3.2-1.1 5.2-3.2 6.5-6 .8-1.6 1.1-3.2.1-5-.4-.7-1-1.2-2-1.2s-.7 1-1 1.5L145 89.6z"/><path class="gbr_st2" d="M133.1 112.4c-.8 1.6-1.4 3.4-2.5 4.8-1.1 1.7-1.3 1.6-1.3 2.6 1.8-2.4 3.3-4.9 4.6-7.4 1-2.2 4.3-3.2 6.4-2.2 1 .5 2 2.4 1.6 3.6a11.2 11.2 0 01-8 8.6c-3.2 1-5.4-.8-4.9-4.2a9.8 9.8 0 014.1-5.8zM145 89.6l3.6-10.7c.2-.6 0-1.5 1-1.5.8 0 1.5.5 2 1.3 1 1.6.5 3.3-.2 4.9a11.1 11.1 0 01-6.5 6z"/></svg>