<?xml version="1.0" encoding="utf-8"?>
<!-- Generator: Adobe Illugbr_strator 24.1.0, SVG Export Plug-In . SVG Version: 6.00 Build 0)  -->
<svg version="1.1" id="Layer_1" xmlns="http://www.w3.org/2000/svg" xmlns:xlink="http://www.w3.org/1999/xlink" x="0px"
	y="0px" viewBox="0 0 200 200" gbr_style="enable-background:new 0 0 200 200;" xml:space="preserve">
	<style type="text/css">
		.gbr_st0 {
			fill: #FDFCFC;
		}

		.gbr_st1 {
			fill: #07215F;
		}

		.gbr_st2 {
			fill: #D5002D;
		}

		.gbr_st3 {
			fill: #09225E;
		}

		.gbr_st4 {
			fill: #0A235F;
		}

		.gbr_st5 {
			fill: #0B225D;
		}

		.gbr_st6 {
			fill: #FEFEFE;
		}

		.gbr_st7 {
			fill: #F1F1F0;
		}

		.gbr_st8 {
			fill: #FAF9F7;
		}

		.gbr_st9 {
			fill: #F9F8F4;
		}

		.gbr_st10 {
			fill: #072160;
		}
	</style>
	<g>
		<path class="gbr_st0" d="M69.98,172.49c0.27-0.23,0.01-0.41-0.12-0.47c-1.11-0.48-1.91-1.3-2.52-2.31c-0.47-0.78-1.03-1.16-2.01-1.07
		c-0.77,0.07-1.42-0.02-2.04,0.69c-0.71,0.81-1.8,0.85-2.72,0.33c-1-0.56-1.69-1.41-1.79-2.66c-0.11-1.33,0.27-2.53,0.79-3.71
		c0.21-0.48,0.43-0.9-0.02-1.36c-0.38-0.39-0.66-0.54-1.34-0.44c-1.86,0.28-3.41-1.44-2.89-3.31c0.28-1.02,0.23-1.47-0.6-2.15
		c-2.86-2.31-5.33-5.04-7.92-7.64c-0.57-0.57-0.9-0.74-1.81-0.4c-1.31,0.49-2.69,0.89-4.05,1.3c-0.58,0.18-0.8,0.4-0.97,0.88
		c-0.52,1.5-1.38,2.72-2.95,3.26c-1.65,0.57-2.9-0.04-3.45-1.72c-0.22-0.66-0.58-0.83-1.13-0.53c-0.24,0.13-0.46,0.23-0.7,0.19
		c-1.06-0.2-1.75,0.27-2.39,1.07c-1.34,1.67-3.57,0.97-4.41-0.61c-0.49-0.94-0.78-1.88-0.75-2.95c0.04-1.22-0.81-1.66-1.91-1.05
		c-1.9,1.05-3.96,0.28-4.38-1.7c-0.22-1.03,0.2-2.04,0.67-2.94c0.28-0.53,0.4-0.81,0.09-1.45c-1.11-2.32,0.85-4.62,3.06-5.53
		c2.62-1.07,5.25-1.34,7.92,0.28c2.33,1.42,5.45,0.35,7.34-0.86c0.16-0.1,0.37-0.37,0.34-0.48c-0.07-0.23-0.31-0.35-0.61-0.33
		c-1.91,0.15-3.51-0.45-4.71-1.99c-0.34-0.44-0.63-0.32-0.9,0.05c-1.33,1.77-3.2,2.08-5.24,1.94c-1.58-0.1-3.2,0.3-4.72-0.38
		c-2.54-1.13-3.99-3.63-3.13-6.25c3-9.13,6.03-18.27,9.35-27.29c0.57-1.54,0.87-2.93,0.9-4.48c0.01-0.54,0-0.98-0.74-1.06
		c-0.48-0.05-0.89-0.4-1.23-0.79c-0.43-0.49-0.97-0.69-1.65-0.72c-1.31-0.06-2.28-0.68-2.6-2.02c-0.14-0.56-0.33-0.84-0.97-0.79
		c-0.38,0.03-0.84-0.12-1.16-0.34c-1.27-0.88-2.54-1.54-4.18-1.68c-2.1-0.17-2.66-3.23-1.06-5.07c0.87-1,1.79-2,3.14-2.37
		c-0.47-0.93-0.88-1.82-0.8-2.89c-0.17,1.25-0.52,2.37-1.7,2.95c-1.1,0.54-2.2,0.26-3.1-0.45c-1.04-0.82-1.95-1.78-2.26-3.18
		c-0.19-0.88-1.45-1.11-2.01-0.37c-0.95,1.26-2.06,1.86-3.64,1.23c-1.56-0.62-2.02-1.99-2.2-3.43c-0.19-1.58,0.18-3.16,0.39-4.72
		c0.03-0.25,0.13-0.66,0-0.67c-1-0.14-1.51-1.12-2.45-1.35c0-0.93,0-1.87,0-2.8c0.08,0.09,0.21,0.2,0.29,0.05
		c0.87-1.62,2.35-2.53,3.78-3.61c1.74-1.31,3.32-1.6,5.28-0.81c0.69,0.28,1.44,0.29,2.28,0.13c1.81-0.36,3.64-0.78,5.51-0.86
		c2.48-0.11,4.85,0.31,7.24,0.98c2.82,0.79,5.84,0.47,8.67,1.31c0.34,0.1,0.56-0.1,0.76-0.33c1.34-1.5,3.04-2.08,5-1.94
		c0.62,0.04,0.9-0.21,1.26-0.73c2.59-3.67,5.26-7.28,8.56-10.36c0.51-0.48,0.88-1.04,0.95-1.67c0.23-1.95,1.47-3.25,2.84-4.37
		c0.99-0.8,2.12-1.81,3.53-1.38c0.76,0.23,1.18-0.09,1.28-0.5c0.28-1.2,0.97-2.52,0.55-3.63c-1.08-2.89,1.43-7.03,3.77-8.08
		c3.21-1.44,6.4-1.2,9.21,1.15c0.45,0.37,0.56,0.39,0.87-0.17c0.73-1.31,1.35-2.76,2.96-3.3c0.16-0.05,0.03-0.2-0.05-0.28
		c0.93,0,1.87,0,2.8,0c-0.08,0.09-0.2,0.19-0.05,0.29c1.19,0.77,2.61,1.2,3.57,2.34c0.21,0.24,0.37-0.04,0.54-0.08
		c3.65-0.93,7.31-1.81,11.09-2.05c0.26-0.02,0.62-0.06,0.37-0.5c5.26,0,10.51,0,15.77,0c-0.22,0.55,0.22,0.48,0.5,0.5
		c3.01,0.21,5.95,0.8,8.87,1.53c7.58,1.88,14.76,4.77,21.31,9.03c1.23,0.8,2.41,0.88,3.56,0.6c1.48-0.36,2.59-0.14,3.56,1.1
		c1.13-1.78,2.76-3.06,4.09-4.62c2.26-2.64,4.73-5.12,7.1-7.67c0.11-0.12,0.38-0.26,0.11-0.49c1.1,0,2.2,0,3.31,0
		c-0.28,0.31,0.05,0.46,0.21,0.57c1.38,0.99,1.41,3.21,0.49,4.64c-3.18,4.93-6.33,9.88-9.9,14.55c-0.42,0.55-0.53,0.94,0.06,1.56
		c1.33,1.41,2.82,2.58,4.54,3.44c0.88,0.44,1.92,0.11,2.88,0.55c1,0.47,1.79,1.1,2.22,2.04c0.54,1.17,1.17,2.36,1.25,3.67
		c0.03,0.47,0.33,0.5,0.57,0.69c1.6,1.27,1.56,3.08,0.52,4.22c-0.37,0.41-0.09,0.66,0.07,0.93c1.68,2.86,3.11,5.83,4.21,8.96
		c0.19,0.54,0.54,0.39,0.85,0.21c0.56-0.34,1.13-0.68,1.64-1.09c2.9-2.36,6.65-1.58,9.49,0c1.81,1.01,3.34,2.46,5.39,3.11
		c1.41,0.44,1.86,1.79,2.19,3.07c0.13,0.52,0.29,0.79,0.73,1.15c1.2,1,2.4,2.08,2.78,3.72c0.23,0.99,0.14,1.97-0.68,2.6
		c-0.92,0.71-1.58,1.75-2.68,2.19c-2.76,1.11-5.12,0.23-7.22-1.64c-0.81-0.72-1.36-1.61-2.81-1.21c-1.24,0.34-2.5-0.83-3.02-2.41
		c-0.11-0.35-0.33-0.65-0.35-1.13c-0.88,0.97-1.7,1.85-2.5,2.75c-0.6,0.67-0.06,1.42,0.12,1.97c0.68,2.09,0.63,4.25,0.86,6.37
		c0.2,1.78,0.5,3.58,0.31,5.4c-0.07,0.69,0.45,1.02,0.87,1.27c0.47,0.28,0.72-0.33,0.95-0.62c1.4-1.76,5.23-1.57,6.84-0.03
		c1.87,1.79,2,3.91,1.73,6.09c-0.44,3.64-1.13,7.24-1.74,10.86c-0.48,2.88-1.08,5.75-1.47,8.64c-0.29,2.12-0.61,4.23-1.03,6.33
		c-0.18,0.9-0.53,1.63-1.34,2.26c2.05,0.57,3.99,1.11,5.92,1.64c0.12,0.03,0.3-0.01,0.36,0.07c1.26,1.57,3.4,1.54,4.87,2.61
		c1.57,1.15,3.17,2.32,4.44,3.86c0.08,0.1,0.24,0.17,0.25,0.27c0.2,1.74,1.86,2.32,2.73,3.52c0.91,1.25,1.58,2.68,2.52,3.91
		c0.25,0.33-0.07,1.22,0.81,1.03c0,0.85,0,1.7,0,2.54c-0.86-0.02-0.5,0.78-0.71,1.17c-0.09,0.17-0.02,0.97,0.71,0.86
		c0,1.19,0,2.37,0,3.56c-0.31-0.28-0.44,0.06-0.57,0.2c-2.2,2.41-4.87,1.18-5.82-1.5c-0.14-0.4-0.14-0.89-0.55-1.22
		c-1.72-1.38-2.63-3.37-3.91-5.1c-0.58-0.79-0.45-1.93-1.22-2.49c-1.16-0.86-2.25-1.83-3.42-2.66c-1.01-0.72-1.72-1.89-3.17-2.01
		c-1.8-0.16-3.49-0.83-5.24-1.26c-0.51-0.13-0.92-0.65-1.5-0.49c-1.15,0.32-2.3,0.54-3.59,0.63c0.33,0.46,0.91,0.73,1.12,1.17
		c1.04,2.18,2.66,3.88,4.33,5.56c0.9,0.9,1.06,1.91,0.7,3.16c-0.57,1.99-2.47,2.22-3.87,2.88c-2.15,1.01-4.47,0.27-6.36-0.9
		c-2.03-1.25-3.44-3.48-6.1-3.73c-0.1-0.01-0.2-0.16-0.27-0.26c-0.24-0.34-0.4-0.3-0.76-0.04c-1.24,0.87-2.57,1.61-3.81,2.47
		c-1.26,0.86-2.56,0.96-4,0.55c-0.28-0.08-0.58-0.33-1.01-0.05c-1.47,0.97-2.95,1.88-4.33,3.02c-5,4.16-10.48,7.62-16.49,10.14
		c-1.09,0.46-1.32,1.03-1.03,2.09c0.35,1.27,0.24,2.47-0.83,3.42c-0.17,0.15-0.57,0.27-0.3,0.66c-1.7,0-3.39,0-5.09,0
		c-0.66-1.18-1.98-1.62-2.88-2.53c-0.05-0.05-0.24,0.02-0.35,0.05c-3.49,0.97-7.01,1.78-10.64,1.98c-0.26,0.01-0.63,0.05-0.37,0.5
		c-5.26,0-10.51,0-15.77,0c-0.25-0.49-0.25-0.51-0.88-0.5c-1.54,0.01-3.01-0.5-4.52-0.66c-2.78-0.3-5.36-1.55-8.18-1.66
		c-0.44-0.02-0.99-0.12-1.33-0.52c-0.66-0.78-1.68-0.8-2.53-1.18c-0.63-0.28-1.33,0.57-1.18,1.32c0.18,0.88-0.14,1.59-0.65,2.28
		c-0.21,0.28-0.83,0.35-0.57,0.93C72.01,172.49,71,172.49,69.98,172.49z M170.68,99.75c0.27-2.23-0.11-4.44-0.3-6.64
		c-0.09-0.98,0.19-2.1-0.46-3.02c-0.04-0.78,0.3-1.6-0.26-2.32c-0.25-1.18-0.51-2.35-0.76-3.53c1.33-1.41,2.67-2.82,3.98-4.25
		c1.22-1.33,2.75-1.57,4.41-1.29c0.59,0.1,1.19,0.33,0.49,1.16c-1.08,1.26-1.01,1.82,0.13,3.09c1.24-1.71,1.63-1.71,2.86,0.1
		c1.16,1.7,2.69,2.85,4.76,3.13c0.67,0.09,1.51,0.19,1.46-0.94c-0.02-0.37,0.14-0.46,0.5-0.53c1.48-0.26,1.57-0.46,0.71-1.65
		c-0.31-0.44-0.77-0.77-1.17-1.14c-0.88-0.84-2.26-1.32-1.92-3.01c0.07-0.36-0.18-0.99-0.81-1.13c-2.06-0.47-3.56-1.96-5.31-3
		c-2.55-1.52-5.01-1.88-7.53,0.12c-1.33,1.06-2.74,2.05-4.32,2.75c-1.86-5.06-4.09-9.94-6.89-14.55c0.68-0.47,1.57-0.72,1.85-1.89
		c-0.86,0.38-1.61,0.42-2.36,0.3c-0.39-0.06-0.94,0.04-1.01-0.68c-0.06-0.61,0.25-0.79,0.71-0.97c0.79-0.33,1.08-0.87,0.66-1.7
		c-0.22-0.44-0.4-0.92-0.5-1.41c-0.28-1.3-1.16-1.78-2.37-1.77c-0.69,0-1.35-0.08-1.94-0.41c-1.08-0.6-2.13-1.26-3.2-1.9
		c-0.86-1.15-1.86-2.15-3.01-3.01c-1.33-1.16-1.35-1.17-0.35-2.52c3.02-4.07,5.93-8.2,8.64-12.48c0.69-1.09,1.43-2.16,2.1-3.27
		c0.22-0.37,0.64-0.88,0.2-1.25c-0.49-0.41-0.82,0.17-1.12,0.48c-0.64,0.67-1.23,1.39-1.86,2.07c-2.57,2.8-5.14,5.6-7.71,8.39
		c-1.35,1.46-2.71,2.91-4.19,4.5c-0.08-1.52,0.18-2.86-0.67-4.03c-0.34,0.71-0.25,1.6-1,2.1c-0.31-0.5-0.61-0.99-0.91-1.48
		c-0.11-0.17-0.22-0.41-0.44-0.35c-0.2,0.05-0.31,0.26-0.33,0.5c-0.01,0.24,0.08,0.52-0.2,0.68c-0.18-0.31-0.54-0.31-0.81-0.45
		c-0.1-0.1-0.2-0.2-0.3-0.3c-4.39-3.12-9.15-5.53-14.16-7.49c-7.63-2.99-15.53-4.49-23.69-4.7C99.9,30,97.5,30,95.11,30.3
		c-1.78,0.22-3.58,0.25-5.34,0.56c-3.76,0.66-7.46,1.55-11.09,2.74c0.16-0.37,0.32-0.74,0.51-1.17c-0.55,0.05-1.01,0.33-1.49,0.06
		c0.27-0.47,0.84-0.43,1.16-0.78c-0.93-0.64-1.89-1.2-2.92-1.57c-0.32,0.53,0.4,0.93-0.09,1.43c-0.39-0.31-0.43-0.83-0.71-1.37
		c-0.58,1.04-1.07,1.92-1.56,2.8c0.59,0.35,1.06-0.45,1.56,0.06c-0.29,0.47-0.86,0.42-1.25,0.69c0.89,0.99-0.52,0.54-0.66,0.96
		c-0.07,0.23-0.63,0.44-0.67,0.81c-0.1,0.91-0.63,0.26-0.96,0.3c0.12-0.88-1.41-0.54-1.15-1.54c-0.84,0.05-0.97-1.2-1.45-1.11
		c-0.89,0.17-1.2-1.96-2.23-0.48c-0.03-0.12-0.06-0.23-0.1-0.35c-0.45-1.27-1.65,0.64-2.16-0.51c-0.05-0.1-0.39,0.08-0.51,0.26
		c-0.07,0.1-0.09,0.23-0.13,0.34c-0.05,0.13,0.02,0.26-0.25,0.11c-1.22-0.69-1.55,0.75-2.22,1.17c-0.69,0.45-0.71,1.71-1.26,2.52
		c-0.18,0.26-0.12,0.59,0.17,0.78c0.29,0.19,0.24,0.44,0.27,0.74c0.14,1.6-0.63,3.13-0.29,4.74c0.13,0.62-0.59,0.63-0.77,1.03
		c-0.92,0.69-1.84,1.39-2.75,2.08c-0.57-0.11-0.8-1.08-1.58-0.64c-2.02,1.12-3.36,2.68-3.26,5.15c-2.37,1.98-4.33,4.34-6.23,6.73
		c-1.24,1.56-2.56,3.11-3.42,4.95c-0.3,0.08-0.24,0.36-0.31,0.57c-0.51,0.27-0.59,0.9-1,1.25c-0.12-0.03-0.25-0.05-0.37-0.09
		c-1.97-0.57-4.43-0.16-4.9,1.15c-0.64,1.77-1.67,1.37-2.86,0.99c-0.35-0.11-0.72-0.18-1.09-0.26c-2.42-0.55-4.97-0.3-7.34-1.03
		c-3.97-1.24-7.93-1.3-11.9-0.21c-1.53,0.42-2.94,0.35-4.35-0.32c-0.52-0.25-1.06-0.37-1.56-0.05c-1.06,0.67-2.1,1.37-3.11,2.11
		c-0.5,0.37-0.7,0.94-0.88,1.61c0.94-0.07,1.84-0.82,2.47-0.17c0.55,0.57,0.87,1.41,1.49,2c-1.54,1.08-2.49,4.96-1.69,6.75
		c0.1,0.23,0.2,0.52,0.45,0.54c0.37,0.04,0.27-0.34,0.36-0.55c0.34-0.82,0.66-1.61,1.87-1.25c0.61,0.18,1.27-0.01,1.67-0.63
		c0.58-0.9,1.4-1.07,2.37-0.81c-0.43,2.07,0.94,5.16,2.7,5.95c0-0.62,0.01-1.19,0-1.77c-0.01-0.4,0.06-0.71,0.48-0.93
		c2.35-1.23,2.57-1.73,2.17-4.38c-0.13-0.84,0.07-1.68,0.49-2.48c0.53,0.36,0.72,0.83,0.93,1.29c0.47,1.01,1.06,1.9,2.09,2.44
		c0.64,0.33,1.12,0.52,1-0.54c-0.07-0.62,0.07-1.2,0.65-1.62c0.21,1,0.41,1.93,0.77,2.83c0.35,0.89,1.21,1.4,1.52,2.32
		c-1.02-0.9-2.37-0.25-3.49-0.87c-1.11-0.62-2.39-0.52-3.58,0.39c0.31,0.14,0.53,0.26,0.76,0.35c1.08,0.46,1.86,1.07,1.57,2.45
		c-0.15,0.7,0.14,1.47,0.79,1.72c1.15,0.45,1.33,1.3,1.36,2.33c-2.05-0.32-5.3,2.03-5.4,3.96c0.21-0.08,0.4-0.14,0.59-0.21
		c1.14-0.46,2.05-0.59,2.77,0.84c0.59,1.17,2.14,1.47,3.47,0.81c1.01-0.5,1.99-0.49,3.26-0.4c-1.19,0.96-0.8,2.6-2.23,3.29
		c1.95,0.68,3.52,0.36,5.05-0.78c-0.16,1.09-0.73,1.76-1.26,2.44c1.04,0.63,2.03,0.21,3.01,0.12c0.22,1.65-0.25,3.26-0.25,4.89
		c0,1.42,0.45,3-1.14,3.98c-0.08,0.05-0.08,0.23-0.12,0.34c-3.01,8.86-6.02,17.73-9.04,26.59c-0.42,1.23,0.38,3,1.75,3.36
		c1.51,0.4,3.01,0.13,4.51,0.18c1.6,0.06,2.54-0.68,3.05-2.19c0.52-1.54,1.05-3.07,1.62-4.74c0.44,1.02,0.82,1.88,1.17,2.75
		c0.37,0.91,0.6,1.88,1.07,2.73c0.61,1.12,1.67,1.48,2.94,1.5c0.77,0.01,1.75-0.5,2.32,0.42c0.67,1.07,1.23,2.21,1.84,3.32
		c-0.13,0.1-0.27,0.2-0.4,0.3c-4.04,3.29-8.34,4.53-13.24,1.82c-1.52-0.84-4.83,0.09-5.87,1.49c-0.2,0.27-0.52,0.57-0.32,1.08
		c0.36-0.06,0.73-0.13,1.09-0.19c0.75-0.13,1.69-0.32,1.91,0.61c0.15,0.66-0.54,1.09-1.24,1.41c-1.31,0.6-2.1,1.67-2.27,3.37
		c1.5-1.1,2.91-1.49,4.44-0.48c0.22,0.14,0.58,0.09,0.87,0.09c1.62,0.05,1.74,0.21,1.22,1.8c-0.4,1.24-0.39,2.4,0.5,3.62
		c0.23-0.48,0.4-0.81,0.55-1.14c0.36-0.81,0.71-1.38,1.85-1.05c1.24,0.36,2.42,0.01,3.28-1.1c0.17-0.22,0.37-0.71,0.73-0.4
		c0.94,0.82,2.53,1.22,2.04,3.03c-0.06,0.23-0.17,0.59,0.37,0.86c1.96-1.99,1.86-5.25,4.26-6.94c0.63,0.75-0.39,1.63-0.24,2.54
		c1.87-0.42,2.56-1.9,3.41-3.34c0.04,0.75,0.07,1.5,0.11,2.32c1.02-0.64,1.54-1.56,2.2-2.32c0.56,0.2-0.03,0.91,0.58,1
		c0.53,0.52,1.03,1.07,1.53,1.62c2.11,2.28,4.25,4.54,6.61,6.57c1.59,1.37,3.21,2.7,4.82,4.05c-0.76,0.6-1.65,1.09-1.84,2.26
		c1.11-0.23,2.39-0.8,3.04,0.05c0.62,0.81,1,1.78,2.01,2.25c0.02,0.01,0,0.17-0.04,0.23c-0.6,0.94-0.26,2.12-0.91,3.09
		c-0.54,0.8-0.81,1.79-0.22,2.83c0.37-0.42,0.64-0.79,0.99-1.09c0.4-0.34,0.81-0.9,1.41-0.59c1.26,0.65,2.37,0.49,3.24-0.42
		c1.62,1.48,2.05,3.9,4.63,4.74c-0.86-1.55-0.97-2.73,0.74-3.37c0.18-0.07,0.39-0.28,0.42-0.45c0.3-1.68,1.29-1.65,2.53-1.08
		c1.06,0.69,2.28,0.95,3.49,1.22c0.31,0.14,0.08,1.21,0.88,0.52c0.17,0,0.35-0.03,0.51,0.02c5.44,1.83,11.07,2.65,16.75,2.99
		c3.81,0.23,7.63,0.02,11.44-0.42c4.31-0.49,8.51-1.4,12.67-2.59c0.82,2.03,2.37,3.04,4.78,3.06c0.52,0,0.73-0.2,0.6-0.66
		c-0.39-1.37-0.13-2.76-0.19-4.15c3.52-1.64,7.07-3.19,10.39-5.24c4.01-2.48,7.81-5.2,11.2-8.48c0.9,0.22,1.48-0.08,1.81-0.99
		c0.37-1.03,1.56-1.19,2.2-0.29c0.69,0.95,1.44,1.02,2.37,0.38c1.17-0.8,2.35-1.6,3.56-2.33c0.86-0.51,1.25-1.13,0.68-2.03
		c-0.4-0.64,0.08-0.96,0.42-1.25c0.5-0.41,0.74,0.16,0.99,0.44c0.27,0.31,0.54,0.68,0.66,1.06c0.56,1.89,2.1,2.15,3.82,2.42
		c-0.41-0.68-1.14-1.19-0.46-2.09c0.36,0.68,0.65,1.28,0.97,1.86c1.44,2.57,3.45,4.28,6.57,4.28c0.33,0,0.85,0.11,0.91-0.24
		c0.14-0.8,0.63-0.82,1.25-0.79c0.39,0.02,0.76-0.14,0.92-0.5c0.19-0.44-0.2-0.69-0.47-0.94c-1.21-1.13-2.26-2.39-3.28-3.68
		c-0.49-0.62-0.7-1.57-1.29-1.93c-1.55-0.92-2.49-2.61-4.33-3.14c0.35-0.45,0.6-0.85,0.75-1.33c0.24-0.75,0.66-1.2,1.39-0.41
		c0.28,0.3,0.61,0.27,0.94,0.23c1.21-0.16,2.44-0.24,3.61-0.55c0.87-0.22,1.96,0.04,2.55-1.09c0.15-0.29,1.22-0.46,1.49,0.23
		c0.34,0.86,0.92,1.07,1.71,1.24c1.05,0.22,2.07,0.63,3.12,0.85c0.78,0.16,1.56,0.46,2.39-0.12c0.47-0.33,1.06-0.02,1.09,0.67
		c0.03,0.61,0.29,1.05,0.73,1.41c0.95,0.76,1.91,1.52,2.89,2.24c0.68,0.49,1.2,1.27,2.32,0.91c0.35-0.11,1.03,0.45,0.65,1.15
		c-0.46,0.84-0.15,1.49,0.34,2.18c0.63,0.89,1.19,1.82,1.76,2.75c0.29,0.47,0.52,1.19,1.01,1.23c1.22,0.1,1.21,1.04,1.51,1.8
		c0.2,0.5,0.32,1.03,0.55,1.51c0.15,0.3,0.29,0.73,0.83,0.52c0.55-0.22,0.47-0.65,0.33-1.05c-0.28-0.83-0.61-1.64-0.92-2.46
		c-0.16-0.43-0.24-0.77,0.27-1.13c0.75-0.53,0.65-1.27,0.2-2c-0.77-1.24-1.51-2.51-2.31-3.74c-0.37-0.57-0.87-1.02-1.68-0.87
		c-1.06,0.21-1.62-0.5-1.21-1.52c0.29-0.72,0.2-1.3-0.42-1.8c-1.22-0.96-2.45-1.89-3.62-2.91c-0.67-0.58-1.26-0.52-1.93-0.08
		c-0.97,0.62-1.72,0.24-1.76-0.94c-0.03-0.77-0.31-1.26-1.09-1.46c-1.57-0.4-3.13-0.86-4.71-1.23c-0.59-0.14-1.26-0.01-1.46,0.66
		c-0.26,0.87-0.88,0.51-1.41,0.59c-0.71,0.11-0.85-0.37-1-0.85c-0.27-0.87-0.94-1.01-1.69-0.9c-1.49,0.21-2.96,0.55-4.45,0.69
		c-1.1,0.1-1.48,0.73-1.34,1.63c0.08,0.57-0.18,0.72-0.52,0.8c-0.42,0.1-0.83,0.67-1.32,0.04c-0.66-0.83-1.4-0.75-2.17-0.08
		c-0.48,0.41-1.06,0.69-1.52,1.12c-0.95,0.88-1.96,0.89-3.05,0.36c1.59-2.29,3.13-4.63,4.31-7.15c1.28-2.72,3.17-4.92,5.22-7.04
		c0.06,0.07,0.12,0.14,0.18,0.21c0.09,1.09-0.35,2.13-0.3,3.24c0.09,1.99,1.11,3.09,3.06,3.1c1.1,0.01,2.2,0.01,3.3,0
		c1.88-0.01,2.87-0.97,3.08-2.82c0.2-1.81,0.58-3.59,0.81-5.39c0.38-2.98,0.96-5.94,1.47-8.91c0.41-2.4,0.89-4.78,1.21-7.19
		c0.22-1.69,0.68-3.35,0.57-5.07c-0.08-1.34-1.05-2.46-2.34-2.64c-0.99-0.14-2.13,0.57-2.8,1.65c-0.7,1.11-1.37,2.39-2.74,2.94
		c0.25-1.38-0.34-2.52-1.14-3.55C171.7,100.74,171.17,100.26,170.68,99.75z M165.73,132.33c-0.48,0.99-0.95,1.95-1.56,3.23
		c1.27-0.57,1.64-1.76,2.8-1.86C166.65,133.06,166.17,132.73,165.73,132.33z" />
		<path d="M199.97,152.65c0,0.68,0,1.36,0,2.03" />
		<path class="gbr_st1" d="M167.76,125.75c-2.05,2.12-3.94,4.32-5.22,7.04c-1.18,2.52-2.73,4.86-4.31,7.15c-1.74-0.19-3.17-1-4.36-2.25
		c-0.73-0.76-1.06-1.51-0.07-2.36c0.3-0.25,0.48-0.68,0.63-1.06c0.97-2.57,1.9-5.16,2.88-7.73c0.28-0.72,0.25-1.36-0.2-2.04
		c-0.84,1.57-1.75,3.07-2.47,4.65c-0.96,2.1-2.26,3.52-4.79,3.15c-0.48-0.07-0.73,0.07-0.8,0.66c-0.15,1.24-0.71,2.39-1.03,3.59
		c-0.64,2.41-0.14,4.5,2.19,4.86c1.96,0.31,3.76,1,5.53,1.82c-0.58,1-1.7,1.62-2.03,2.8c-0.63,0.8-1.66,1.11-2.3,1.91
		c-0.47,0.58-1.05,1.09-1.59,0c-0.17-0.34-0.51-0.37-0.87-0.41c-1.16-0.14-2.31-0.39-3.47-0.46c-0.83-0.05-1.68-0.21-2.5,0.12
		c-0.92,0.37-1.58-0.02-1.72-0.9c-0.1-0.62-0.37-1.02-0.78-1.37c-1.05-0.9-2.1-1.81-3.21-2.63c-0.5-0.36-1.11-0.85-1.81-0.29
		c-0.45,0.36-0.78,0.06-0.9-0.28c-0.15-0.43,0.35-0.43,0.6-0.52c2.84-0.98,5.73-1.83,8.41-3.23c2.33-1.21,3.66-3.16,4.43-5.64
		c-0.24-0.02-0.41-0.04-0.58-0.05c-2.34-0.15-3.49-1.86-2.58-3.97c0.58-1.33,1.31-2.6,1.97-3.9c0.18-0.07,0.29-0.25,0.16-0.37
		c-0.18-0.16-0.23,0.12-0.33,0.2c-1.56,1.3-2.77,2.95-4.45,4.13c-3.24,2.28-6.76,3.77-10.76,3.9c-1.13,0.04-2.25,0.08-3.39-0.2
		c-1.19-0.3-1.51,0.18-1.09,1.37c0.35,0.98,0.68,1.98,1.15,2.91c0.37,0.74,0.11,0.99-0.52,1.33c-1.16,0.62-2.44,0.85-3.68,1.19
		c-0.75,0.21-1.06,0.59-1.05,1.32c0.02,1.22-0.28,2.4-0.5,3.59c-0.7,3.77-1.59,7.38-4.63,10.17c-1.46,1.34-1.84,3.12-0.3,4.93
		c0.3-1.07,0.85-1.89,2.08-2.15c0.03,0.66,0.06,1.26,0.1,1.85c0.46,0,0.57-0.63,0.91-0.4c0.24,0.16,0.34,0.55,0.32,0.92
		c-0.03,0.59,0.05,1.18-0.27,1.72c-0.15,0.26-0.38,0.58-0.17,0.82c0.75,0.85,0.39,1.86,0.42,2.8c0.03,0.85,0.03,1.68,0.48,2.43
		c-4.16,1.19-8.35,2.1-12.67,2.59c-3.82,0.44-7.64,0.64-11.44,0.42c-5.68-0.34-11.32-1.16-16.75-2.99
		c-0.15-0.05-0.34-0.02-0.51-0.02c0.07-0.49,0.24-1,0.18-1.48c-0.24-1.69-1.38-3-2.04-4.52c-0.07-0.17-0.31-0.32-0.49-0.37
		c-1.1-0.26-1.61-0.77-0.81-1.86c0.45,0.26,0.83,0.8,1.45,0.84c0.91,0.05,1.59,0.38,2.05,1.22c0.28,0.52,0.48,0.32,0.7-0.19
		c0.99-2.3,0.83-4.4-0.88-6.3c-0.45-0.5-0.76-1.05-0.91-1.93c1.42,0.97,3.24,1.2,3.32,3.41c1.42-2.5,1.23-3.98-0.62-5.83
		c-0.66-0.66-1.29-1.33-1.74-2.33c1.45,0.2,2.57,0.73,3.45,1.74c0.55-2.45-0.31-4.22-2.28-5.61c1.1-0.41,1.74,0.05,2.36,0.7
		c0.3-2.23-0.75-3.56-2.51-4.48c-0.48-0.25-0.99-0.48-1.42-0.81c-2.81-2.19-5.14-4.77-6.3-8.26c-2.46,2.17-3.66,1.99-5.31-0.71
		c-1.87-3.05-3.74-6.1-5.68-9.26c-0.92,2.71-1.77,5.3-2.69,7.87c-0.32,0.89-0.42,1.88-1.15,2.61c-0.56,0.55-1.91,0.9-0.64,2.05
		c0.05,0.04-0.02,0.24-0.06,0.36c-0.54,1.36,0.03,2.36,1.03,3.23c0.93,0.82,2.1,1.51,1.45,3.39c1.06-0.78,1.63-1.45,2.13-2.66
		c0.13,1.74-0.21,3.29,1.62,4.07c-0.45-2.27,2.07-3.78,1.01-6.06c0.43,0.27,0.77,0.53,1.02,0.85c1.6,2.02,3.4,3.84,5.45,5.4
		c0.51,0.39,0.68,0.8,0.59,1.38c-0.36,2.48-0.07,4.99-0.27,7.47c-0.17,2.13-0.55,4.23-2.01,5.98c-1.12,1.34-2.95,1.6-4.37,0.52
		c-0.68-0.51-1.26-1.32-2.29-1.12c-1.24,0.24-2.52,0.14-3.73,0.52c-1.61-1.35-3.23-2.69-4.82-4.05c-2.36-2.03-4.5-4.29-6.61-6.57
		c-0.5-0.54-1-1.1-1.53-1.62c1.32-0.88,2.21-2.01,2.3-3.68c0.12-2.08,1.37-3.33,3.18-4.13c0.31-0.14,0.59-0.33,0.91-0.43
		c1.53-0.46,1.23-1.7,1.2-2.81c-0.03-1.22-0.91-1.13-1.77-1.15c-0.43-0.01-0.86-0.25-1.29-0.4c-0.17-0.06-0.23-0.3-0.52-0.17
		c-2.25,1.06-4.58,0.69-6.88,0.28c-0.55-0.1-0.59,0.09-0.75,0.49c-0.52,1.32-1.15,2.6-2.23,3.59c-0.61-1.11-1.17-2.25-1.84-3.32
		c-0.57-0.91-1.55-0.4-2.32-0.42c-1.28-0.02-2.33-0.39-2.94-1.5c-0.46-0.85-0.7-1.83-1.07-2.73c-0.35-0.87-0.74-1.73-1.17-2.75
		c-0.57,1.67-1.1,3.21-1.62,4.74c-0.51,1.51-1.45,2.25-3.05,2.19c-1.5-0.06-3,0.21-4.51-0.18c-1.36-0.36-2.17-2.13-1.75-3.36
		c3.02-8.86,6.03-17.73,9.04-26.59c0.04-0.12,0.04-0.3,0.12-0.34c1.59-0.98,1.14-2.56,1.14-3.98c0-1.64,0.47-3.25,0.25-4.89
		c0.88-0.51,1.76-1.02,2.73-1.58c-0.07,1.06-0.87,1.63-1.15,2.59c1.04-0.41,2.08-0.17,3.01-0.67c0.89-0.48,1.49-1.28,2.29-2.26
		c-0.06,1.3,0.27,2.32-0.47,3.16c2.39,0.38,3.85-1.11,5.44-2.79c-0.02,1.2-0.29,1.98-0.84,2.72c0.47,0.08,0.84,0.21,1.2,0.19
		c0.76-0.04,1.2-0.33,1.01-1.27c-0.41-1.99-0.42-3.98,0.25-5.95c1.94-5.71,3.88-11.42,5.77-17.15c0.41-1.23,1.84-2.34,3.12-2.25
		c1.05,0.08,2.12,0.01,3.18,0.02c2.56,0.01,3.69,1.61,2.87,4.04c-1.85,5.48-3.68,10.96-5.54,16.43c-0.21,0.63-0.45,1.31,0.09,1.75
		c0.51,0.41,1.19,0.18,1.79-0.09c1.66-0.76,2.69-2.04,3.27-3.75c1.83-5.4,3.67-10.78,5.52-16.17c0.48-1.4,1.53-2.17,2.99-2.2
		c0.76-0.02,1.53-0.04,2.29,0.01c0.67,0.04,1.04-0.26,1.45-0.77c0.74-0.93,0.68-2.06,0.92-3.1c0.12-0.5,0.24-0.65,0.76-0.76
		c1.31-0.27,2.63-0.57,3.53-1.74c1.01-1.33,1.32-2.86,1.04-4.41c-0.16-0.93-1.35-0.55-2.01-0.91c-0.68-0.37-0.96-1.23-0.38-1.7
		c0.5-0.4,0.78-0.98,1.18-1.34c0.55-0.5,0.34-1.38,1.2-1.69c0.75-0.27,1.39-0.8,1.98-1.47c0.55-0.62,1.27-1.63,2.5-1.26
		c0.08,0.02,0.28-0.18,0.36-0.31c0.5-0.82,0.99-1.66,1.45-2.49c0.28-0.51-0.01-1.32,0.37-1.96c0.1-0.18-0.2-0.42-0.46-0.52
		c-0.1-0.04-0.35,0.06-0.27-0.22c0.59-1.89-1.71-2.08-2.02-3.44c-0.65,0.23-1.09,0.02-1.41-0.59c-0.04-0.08-0.41-0.06-0.58,0.02
		c-0.25,0.11-0.53,0.85-0.61-0.11c-0.03-0.32-0.42-0.32-0.62-0.23c-0.73,0.31-1.17-0.67-1.88-0.41c-0.01,0-0.63-0.28-0.3-0.64
		c0.91-0.97-0.07-2.46,1.05-3.36c0.16,0.23,0.37,0.52,0.59,0.83c0.35-0.54,0.67-1.04,0.98-1.53c3.63-1.19,7.33-2.08,11.09-2.74
		c1.76-0.31,3.56-0.34,5.34-0.56C97.5,30,99.9,30,102.3,30.06c8.16,0.22,16.06,1.72,23.69,4.7c5.01,1.96,9.77,4.37,14.16,7.49
		c-2.24-0.73-3.77,0.08-4.66,2.25c-1.08-1.1-2.32-1.37-3.67-1.21c-0.34,0.04-0.83,0.2-0.94,0.45c-0.17,0.38,0.41,0.42,0.6,0.66
		c0.28,0.35,0.52,0.76,0.7,1.18c0.29,0.66,0.13,1.06-0.69,0.99c-0.77-0.07-1.51,0.02-2.17,0.47c-0.19,0.13-0.35,0.19-0.21,0.46
		c0.23,0.45,0.22,0.45-0.21,0.57c-0.69,0.19-1.38,0.39-2.16,0.61c0.71,0.54,1.56,0.51,2.12,1.13c-1.66,0.22-3.1,0.84-4.46,2.03
		c0.77,0.05,1.37,0.09,2.24,0.15c-0.98,0.75-1.74,1.34-2.49,1.92c0.32,0.53,0.95,0.41,1.27,0.8c-4.78,3.39-4.97,5.13-4.9,7.72
		c0.62-0.25,1.06-0.86,1.85-0.99c-0.65,1.79-1.11,3.5-1.03,5.34c0.03,0.82,0.52,1.22,1.09,1.53c0.6,0.32,0.52-0.47,0.84-0.68
		c0.52-0.33,0.81-0.98,1.63-1.1c-0.18,1.13,0.53,1.16,1.37,1.15c4.02-0.03,8.05-0.04,12.07,0c1.44,0.01,2.97-0.39,4.25,0.69
		c1.36-0.82,2.86-0.74,4.36-0.7c0.4,0.01,0.8,0,1.48,0c-1.21-1.15-2.37-1.86-3.63-2.39c-1.03-0.43-0.92-1.06-0.48-1.8
		c0.34-0.56,0.89-0.86,1.47-1.14c1.87-0.88,3.55-0.36,5.23,0.65c-0.26,0.07-0.44,0.04-0.66-0.01c-1.33-0.31-2.55,0.76-2.3,1.98
		c0.09,0.43,0.31,1.04,0.83,0.68c0.64-0.45,1.15-0.15,1.66,0.02c0.94,0.3,1.75,0.06,2.43-0.52c0.47-0.4,0.81-0.49,1.44-0.32
		c1.13,0.3,2.16-0.48,2.31-1.57c0.05-0.35,0.27-0.46,0.52-0.36c0.98,0.41,2,0.13,3,0.2c2.8,4.61,5.03,9.5,6.89,14.55
		c-0.75,1-1.76,0.56-2.74,0.58c-1.01,0.02-1.92-0.78-1.42-1.59c0.61-1.02,0.11-1.54-0.54-2.1c-0.57-0.49-1.16-0.94-1.75-1.41
		c-0.11-0.09-0.15-0.36-0.33-0.21c-0.14,0.12-0.03,0.3,0.16,0.38c0.96,1.76,0.85,3.89,1.94,5.61c0.25,0.4-0.08,0.79-0.24,1.03
		c-0.21,0.32-0.36,0.58-0.42,0.97c-1.3,7.83-5.97,13.19-12.72,16.89c-2.78,1.53-5.87,2.17-9.09,1.94c-0.8-0.06-1.61,0-2.41,0
		c-0.31,0-0.5,0.14-0.42,0.46c0.09,0.37,0.33,0.06,0.49,0.06c1.06,0,2.12-0.03,3.18-0.01c5.73,0.12,10.68,4.54,10.82,10.78
		c0.04,1.83-0.31,3.6-0.6,5.41c2.99-6.36,7.41-12.04,8.79-19.16c2.45,1.55,2.45,1.55,1.3,3.18c1.59,0.09,2.35,1.16,2.87,2.64
		c0.41-0.45,0.76-0.73,0.96-1.09c0.3-0.54,0.59-0.61,1.09-0.27c2.38,1.58,3.99,3.64,4.13,6.61c-0.26,0.14-0.32,0.5-0.17,0.58
		c0.29,0.15,0.16-0.31,0.35-0.4c1.09-0.91,1.97-1.99,2.68-3.21c0.18-0.13,0.47-0.2,0.24-0.51l-0.02,0.02
		c1.37-0.54,2.05-1.82,2.74-2.94c0.67-1.07,1.8-1.79,2.8-1.65c1.29,0.18,2.26,1.3,2.34,2.64c0.1,1.72-0.35,3.39-0.57,5.07
		c-0.31,2.41-0.8,4.8-1.21,7.19c-0.5,2.97-1.08,5.92-1.47,8.91c-0.23,1.81-0.61,3.59-0.81,5.39c-0.2,1.85-1.2,2.81-3.08,2.82
		c-1.1,0.01-2.2,0.01-3.3,0c-1.96-0.01-2.98-1.11-3.06-3.1c-0.05-1.11,0.39-2.14,0.3-3.24c0.34-0.18,0.29-0.44,0.13-0.71
		C167.97,125.42,167.86,125.59,167.76,125.75z M81.08,98.56c-0.1-0.1-0.15-0.37-0.34-0.2c-0.13,0.12-0.04,0.31,0.13,0.41
		c-0.63,1.76,1.32,2.13,1.81,3.29C82.6,100.68,82.24,99.44,81.08,98.56z M160.82,129.76c3.84-4.48,7.57-8.82,11.46-13.35
		c-0.69,4.04-1.32,7.86-2.01,11.66c-0.27,1.45-0.15,1.69,1.29,1.69c0.59,0,1.19-0.05,1.78,0.01c0.86,0.09,1.28-0.07,1.25-1.12
		c-0.02-0.57,0.16-1.22,0.26-1.83c0.57-3.51,1.14-7.01,1.72-10.51c0.48-2.93,1.03-5.86,1.44-8.8c0.21-1.51,0.62-3.02,0.58-4.53
		c-4.81,5.7-9.6,11.36-14.48,17.13c-0.98-5.72-1.93-11.33-2.92-17.14c-4.76,9.01-9.43,17.85-14.16,26.78c1.32,0,2.42-0.02,3.52,0.01
		c0.55,0.01,0.9-0.1,1.17-0.68c0.78-1.63,1.64-3.22,2.5-4.81c1.43-2.62,2.55-5.41,4.27-8.16
		C159.3,120.78,160.05,125.2,160.82,129.76z M121.79,122.52c-0.08,1.7,1.27,4.29,4.11,6.03c2.27,1.39,4.76,1.46,7.33,0.97
		c4.91-0.95,8.7-3.63,11.81-7.45c2.21-2.72,3.49-5.84,3.99-9.27c0.38-2.61-0.52-6.4-3.28-8.25c-4.5-3-8.92-1.91-13.24,0.25
		c-2.56,1.28-4.75,3.14-6.55,5.44C123.5,113.4,121.9,116.82,121.79,122.52z M80.13,102.8c-1.07,0-2.02,0.11-2.93-0.03
		c-1.2-0.17-1.59,0.47-1.89,1.42c-0.57,1.84-1.17,3.67-1.79,5.49c-0.94,2.77-1.92,5.53-2.94,8.47c-3.07-5.23-6.01-10.25-9.01-15.37
		c-3.06,8.99-6.1,17.94-9.17,26.98c1.25,0,2.35-0.05,3.44,0.02c0.67,0.04,0.96-0.23,1.15-0.82c1.09-3.3,2.17-6.61,3.33-9.89
		c0.51-1.42,0.81-2.93,1.55-4.27c3.03,5.02,6.01,9.95,9.06,14.99C74.02,120.76,77.05,111.85,80.13,102.8z M83.86,85.65
		c-3.08-5.25-6.03-10.29-9.05-15.44c-3.06,9-6.1,17.93-9.17,26.98c1.3,0,2.52-0.04,3.74,0.02c0.6,0.03,0.71-0.39,0.84-0.74
		c0.88-2.51,1.72-5.04,2.57-7.56c0.75-2.24,1.5-4.48,2.28-6.79c3.07,5.07,6.05,10.02,9.12,15.09c3.07-9.03,6.11-17.97,9.18-26.99
		c-1.15,0-2.13,0.09-3.09-0.02c-0.94-0.11-1.37,0.32-1.63,1.1C87.07,76.01,85.51,80.71,83.86,85.65z M96.17,129.76
		c1.88,0,3.65-0.02,5.43,0c4.45,0.05,8.2-1.77,11.45-4.58c3.55-3.08,6.09-6.8,6.89-11.61c0.67-4.04-1.08-8.87-5.69-10.3
		c-2.65-0.82-5.34-0.28-8-0.49c-0.79-0.06-1.05,0.25-1.29,0.98C102.08,112.38,99.15,120.98,96.17,129.76z M135.34,97.2
		c1.88,0,3.66-0.02,5.44,0c4.45,0.05,8.2-1.77,11.45-4.59c3.56-3.08,6.09-6.81,6.89-11.61c0.67-4.02-1.07-8.86-5.7-10.29
		c-2.65-0.82-5.34-0.27-8-0.49c-0.8-0.06-1.05,0.27-1.29,0.99C141.25,79.83,138.32,88.42,135.34,97.2z M88.37,118.06
		c1.17,0,2.23,0.02,3.29-0.01c0.61-0.01,0.85,0.09,0.59,0.79c-0.69,1.88-1.28,3.8-1.97,5.68c-0.09,0.24-0.12,0.7-0.63,0.66
		c-0.96-0.08-1.94,0.17-2.89-0.14c-3.88-1.27-4.58-4.24-3.94-7.42c0.75-3.74,2.99-6.6,6.24-8.58c3.27-1.99,7.56-2.88,10.55,0.53
		c0.55-1.57,1.12-3.12,1.61-4.7c0.08-0.24,0.43-0.64-0.19-0.95c-2.04-1.03-4.22-1.45-6.42-1.07c-4.84,0.83-8.85,3.2-12.02,7.01
		c-2.84,3.42-4.71,7.16-4.5,11.73c0.1,2.16,0.87,3.97,2.35,5.56c3.32,3.59,8.84,2.94,12.48,1.31c0.17-0.08,0.36-0.27,0.42-0.44
		c1.59-4.66,3.16-9.32,4.75-14.03c-1.59,0-3.07-0.01-4.56,0c-1.31,0.01-3.01-0.43-3.82,0.22C88.85,114.92,88.81,116.66,88.37,118.06
		z M50.68,102.8c-1.58,0-2.94,0.06-4.29-0.02c-1.01-0.06-1.75,0.33-2.44,0.99c-2.9,2.75-5.78,5.53-8.76,8.2
		c-0.83,0.74-1.63,1.54-2.82,2.48c1.4-4.09,2.68-7.83,3.99-11.64c-1.18,0-2.28,0.06-3.38-0.02c-0.8-0.05-1.05,0.27-1.29,0.99
		c-1.79,5.36-3.64,10.7-5.46,16.05c-1.11,3.28-2.2,6.57-3.32,9.94c1.2,0,2.3-0.04,3.4,0.02c0.72,0.04,0.98-0.25,1.2-0.91
		c1.17-3.58,2.4-7.13,3.68-10.91c1.46,3.56,2.85,6.88,4.18,10.23c0.42,1.07,0.81,1.83,2.23,1.62c1.23-0.19,2.5-0.04,3.81-0.04
		c-0.76-1.87-1.49-3.65-2.22-5.42c-1.01-2.46-2.04-4.92-3.03-7.39c-0.15-0.37-0.51-0.8,0.12-1.17c1.46-0.86,2.48-2.23,3.75-3.32
		c2.68-2.29,5.18-4.8,7.78-7.19C48.68,104.46,49.61,103.71,50.68,102.8z M71.55,70.24c-1.37,0-2.47,0.02-3.57-0.01
		c-0.63-0.02-0.89,0.17-1.11,0.85c-1.8,5.44-3.66,10.86-5.55,16.27c-0.92,2.63-2.82,4.34-5.43,5.19c-1.98,0.64-3.82-0.15-4.5-1.83
		c-0.4-0.99-0.35-2.01-0.01-3.03c1.08-3.26,2.15-6.54,3.21-9.81c0.82-2.54,1.89-4.99,2.57-7.63c-1.21,0-2.31,0.02-3.41-0.01
		c-0.63-0.02-0.88,0.17-1.12,0.84c-1.38,3.86-2.6,7.76-3.95,11.63c-0.96,2.77-2.3,5.48-2.12,8.58c0.2,3.36,2.58,5.91,5.91,5.9
		c5.61-0.01,9.7-2.87,12.11-7.68C67.63,83.41,68.97,76.65,71.55,70.24z M124.96,81.18c0.72-2.07,1.42-4.06,2.1-6.07
		c0.2-0.59,0.63-0.55,1.09-0.54c2.71,0.01,5.42,0.01,8.14,0c1.1,0,2.52,0.37,3.21-0.17c0.76-0.6,0.77-2.08,1.24-3.12
		c0.4-0.89,0.18-1.05-0.72-1.04c-4.87,0.03-9.75,0.04-14.62-0.01c-0.83-0.01-1.13,0.29-1.38,1.04c-2.13,6.37-4.3,12.72-6.46,19.08
		c-0.77,2.26-1.52,4.51-2.32,6.86c4.27,0,8.38,0,12.49,0c1.4,0,3.18,0.48,4.08-0.2c0.94-0.71,1.03-2.55,1.48-3.9
		c0.01-0.03-0.02-0.08-0.04-0.18c-0.31-0.01-0.64-0.04-0.97-0.04c-3.39,0-6.78-0.03-10.17,0.02c-0.99,0.01-1.14-0.23-0.76-1.12
		c0.5-1.16,0.89-2.38,1.29-3.58c0.96-2.93,0.95-2.94,3.97-2.95c0.13,0,0.25-0.01,0.38,0c0.57,0.03,0.88-0.11,1.04-0.78
		c0.27-1.11,0.74-2.16,1.14-3.29C127.77,81.18,126.42,81.18,124.96,81.18z M101.31,97.2c1.18,0,2.28-0.06,3.38,0.02
		c0.8,0.05,1.05-0.27,1.29-0.99c2.3-6.91,4.67-13.81,6.97-20.72c0.24-0.71,0.51-1,1.28-0.96c1.52,0.06,3.05,0.01,4.58,0.03
		c0.46,0.01,0.7-0.04,0.85-0.6c0.32-1.22,0.8-2.39,1.26-3.73c-5.44,0-10.76,0-16.09,0c-0.44,0-0.65,0.19-0.77,0.64
		c-0.35,1.22-0.78,2.42-1.21,3.72c2.04,0,4.02,0,6.11,0C106.39,82.18,103.86,89.66,101.31,97.2z M87.51,97.2
		c1.15,0,2.2-0.04,3.25,0.01c0.77,0.04,1.12-0.17,1.39-0.99c2.88-8.66,5.82-17.29,8.77-25.99c-1.17,0-2.3,0.02-3.44-0.01
		c-0.65-0.02-0.89,0.19-1.11,0.86c-1.12,3.51-2.34,6.98-3.53,10.47C91.07,86.74,89.31,91.92,87.51,97.2z M44.78,129.76
		c1.17,0,2.27-0.05,3.36,0.02c0.77,0.04,1.02-0.27,1.26-0.98c2.89-8.65,5.83-17.29,8.77-25.99c-1.16,0-2.3,0.02-3.43-0.01
		c-0.64-0.02-0.89,0.18-1.11,0.85c-1.1,3.43-2.31,6.82-3.47,10.23C48.37,119.13,46.6,124.4,44.78,129.76z M92.58,140.45
		c0.66,1.27,0,1.84-0.93,2.37c-1.02,0.58-1.97,1.25-1.63,2.86c0.98-1.67,2.49-1.06,3.82-1.12c1.25-0.06,2.03-0.77,2.1-2.02
		c0.05-0.83,0.01-1.66-0.24-2.38c0.67-0.2,0.92,0.8,1.63,0.46c-0.46-1.25-0.46-1.25-0.16-2.41c0.42-1.64,0.04-2.62-1.6-3.11
		c-1.37-0.41-1.37-0.86-0.51-1.76c0.2-0.21,0.33-0.49,0.48-0.74c0.09-0.14,0.15-0.29,0.02-0.46c-0.95-1.26-2.72-1.37-4.03-0.16
		c-1.26,1.17-2.66,1.36-4.21,0.83c-2.44-0.82-5.16-0.81-7.35-2.44c1.54,2.9,3.46,5.29,6.87,5.93c0.82,0.15,1.66,0.24,2.44,0.58
		c0.84,0.37,1.54,0.93,1.03,1.9c-0.54,1.04-1.31,0.53-2,0.04c-0.05-0.04-0.15-0.02-0.26-0.03c-0.15,1.05,0.26,1.76,1.18,2.29
		C90.52,141.82,91.56,141.45,92.58,140.45z M139.42,77.11c-3.33,0-6.58,0.01-9.83-0.01c-0.79-0.01-0.66,0.66-0.8,1.05
		c-0.18,0.5,0.32,0.41,0.63,0.5c2.19,0.62,2.84,2.12,1.9,4.21c-0.39,0.87-0.64,1.8-0.97,2.7c-0.18,0.5-0.04,0.86,0.3,1.26
		c0.87,1.03,1.85,1.72,3.51,1.14c-0.88,1.17-1.87,1.13-2.83,1.1c-1.17-0.04-2.16,0.27-3.05,1.2c2.13,0.28,4.19-0.28,6.15,0.39
		c0.51,0.17,0.52-0.24,0.58-0.41C136.48,85.92,137.93,81.58,139.42,77.11z M49.68,107.33c-1.42,1.09-2.71,2.18-3.93,3.33
		c-1.1,1.04-2.55,1.9-2.55,3.73c0,0.42-0.41,0.38-0.69,0.35c-1.61-0.19-2.36,1.05-3.34,1.94c-0.29,0.27-0.13,0.48-0.03,0.77
		c0.77,2.31,2.29,4.29,2.8,6.73c0.15,0.75,0.42,1.66,1.2,2.37C45.36,120.06,47.52,113.69,49.68,107.33z M51.47,99.78
		c0.71,0.52,1.22,0.71,2.08,0.6c1.95-0.23,3.96-0.44,5.87,0.22c0.43,0.15,0.62,0.18,1.03-0.02c1.34-0.65,2.82-0.26,3.52,0.94
		c1.44,2.47,2.81,4.99,4.26,7.46c0.55,0.93,0.97,1.97,1.87,2.75c0.44-1.33,0.81-2.57,1.25-3.78c0.2-0.53,0.24-0.96-0.21-1.37
		c-1.7-1.54-2.5-3.67-3.51-5.62c-0.44-0.84-0.74-1.29-1.79-1.27c-1.78,0.03-3.04-1.62-2.7-3.29c0.06-0.28,0.32-0.51,0.16-0.83
		C56.84,99.59,56.84,99.59,51.47,99.78z M119.23,122.17c-0.85,1.29-1.82,2.32-2.85,3.29c-0.3,0.28-0.41,0.57-0.26,1.01
		c0.52,1.48,1.46,2.6,2.97,2.99c0.8,0.21,0.87,0.47,0.6,1.1c-0.45,1.06-0.36,2.12,0.15,3.13c0.56,1.12,0.78,2.21-0.08,3.31
		c1.47,0.22,3.03-0.49,3.64-1.62c0.83-1.54,0.46-3.21,0.48-4.84c0-0.16-0.21-0.35-0.37-0.47
		C120.95,128.11,119.61,125.49,119.23,122.17z M120.78,102.87c-0.3,0.83-0.61,1.53,0.05,2.34c0.52,0.64,0.77,1.47,1.11,2.22
		c0.38,0.85,0.26,1.85,0.82,2.63c0.9-1.04,1.62-2.17,2.62-2.96c2.17-1.71,2.99-4.04,3.52-6.59c0.12-0.56,0.08-0.79-0.53-0.78
		c-1.1,0.02-2.2,0.01-3.3,0c-0.47,0-0.75,0.11-0.58,0.66c0.67,2.17-0.31,3.91-1.49,5.64C122.27,105,121.56,103.99,120.78,102.87z
		 M114.31,92.06c0.65-1.95,1.01-3.65,1.76-5.16c1.38-2.78,0.02-5.16-0.77-7.66c-0.08-0.26-0.22-0.52-0.47-0.55
		c-0.47-0.05-0.32,0.42-0.4,0.64c-0.84,2.43-1.57,4.91-2.5,7.3c-0.53,1.37-0.14,2.41,0.65,3.43
		C113.06,90.69,113.62,91.27,114.31,92.06z M75.68,88.41c-0.97,2.77-1.74,5.55-2.92,8.15c-0.89,1.98-0.67,3.58,0.53,5.22
		c0.04,0.05,0.1,0.08,0.16,0.12c0.61-1.14,1.63-1.63,2.93-1.75c-0.17-0.38-0.33-0.67-0.42-0.99c-0.71-2.25-1.31-4.66,0.39-6.58
		c1.21-1.37,0.77-2.23-0.02-3.33C76.13,88.99,75.92,88.73,75.68,88.41z M87.31,68.3c-2.43,0.21-4.25,2.06-5.03,4.67
		c-0.62,2.09-1.03,4.37,0.99,6.15C84.8,75.52,85.4,71.64,87.31,68.3z M112.52,96.56c-0.03,0.29-0.03,0.58-0.09,0.86
		c-0.4,2.02-0.06,2.58,1.93,3.15c0.32,0.09,0.62,0.22,0.94,0.34c0.36,0.14,0.69,0.19,0.7-0.34c0.01-0.34,0.17-0.8-0.46-0.83
		C113.55,99.63,112.74,98.4,112.52,96.56z M85.92,116.69c-1.09,1.75-0.37,3.6,2.28,5.84c0.15-0.47,0.28-0.94,0.47-1.39
		c0.12-0.29,0.1-0.4-0.22-0.53C85.72,119.46,85.62,119.29,85.92,116.69z M153.17,67.97c0.95-0.11,0.92-0.99,1.23-1.57
		c0.13-0.24-0.09-0.59-0.38-0.4c-0.8,0.54-2.19-0.49-2.51,0.72C151.36,67.3,152.38,67.82,153.17,67.97z M126.91,90.27
		c-0.44-0.78-0.77-2.01-1.32-2.01c-0.68,0-0.54,1.26-0.96,2.01C125.41,90.27,126.06,90.27,126.91,90.27z M85.01,102.25
		c0,0.68,0,1.17,0,1.67C85.98,103.4,85.98,103.4,85.01,102.25z" />
		<path class="gbr_st2" d="M78.68,33.59c-0.32,0.49-0.63,0.98-0.98,1.53c-0.22-0.31-0.43-0.61-0.59-0.83c-1.12,0.9-0.14,2.38-1.05,3.36
		c-0.34,0.36,0.28,0.64,0.3,0.64c0.71-0.25,1.15,0.72,1.88,0.41c0.2-0.08,0.6-0.09,0.62,0.23c0.08,0.97,0.36,0.22,0.61,0.11
		c0.17-0.08,0.54-0.1,0.58-0.02c0.32,0.61,0.76,0.82,1.41,0.59c0.31,1.36,2.61,1.56,2.02,3.44c-0.09,0.28,0.16,0.18,0.27,0.22
		c0.26,0.1,0.56,0.34,0.46,0.52c-0.38,0.64-0.08,1.44-0.37,1.96c-0.46,0.83-0.95,1.67-1.45,2.49c-0.08,0.13-0.27,0.34-0.36,0.31
		c-1.22-0.37-1.94,0.64-2.5,1.26c-0.59,0.67-1.23,1.2-1.98,1.47c-0.86,0.31-0.66,1.19-1.2,1.69c-0.4,0.37-0.68,0.95-1.18,1.34
		c-0.58,0.47-0.3,1.33,0.38,1.7c0.67,0.36,1.85-0.03,2.01,0.91c0.27,1.56-0.03,3.08-1.04,4.41c-0.9,1.18-2.21,1.48-3.53,1.74
		c-0.51,0.1-0.64,0.26-0.76,0.76c-0.25,1.04-0.19,2.16-0.92,3.1c-0.41,0.52-0.78,0.81-1.45,0.77c-0.76-0.04-1.53-0.02-2.29-0.01
		c-1.46,0.03-2.51,0.79-2.99,2.2c-1.84,5.39-3.69,10.78-5.52,16.17c-0.58,1.71-1.62,2.98-3.27,3.75c-0.6,0.28-1.28,0.5-1.79,0.09
		c-0.54-0.44-0.31-1.12-0.09-1.75c1.86-5.47,3.7-10.95,5.54-16.43c0.82-2.43-0.31-4.03-2.87-4.04c-1.06,0-2.12,0.06-3.18-0.02
		c-1.28-0.09-2.71,1.02-3.12,2.25c-1.89,5.73-3.83,11.44-5.77,17.15c-0.67,1.97-0.66,3.96-0.25,5.95c0.19,0.94-0.24,1.22-1.01,1.27
		c-0.36,0.02-0.73-0.11-1.2-0.19c0.55-0.74,0.82-1.53,0.84-2.72c-1.58,1.68-3.05,3.17-5.44,2.79c0.74-0.84,0.41-1.87,0.47-3.16
		c-0.8,0.98-1.4,1.78-2.29,2.26c-0.92,0.5-1.97,0.26-3.01,0.67c0.28-0.96,1.08-1.53,1.15-2.59c-0.97,0.56-1.85,1.07-2.73,1.58
		c-0.98,0.09-1.98,0.51-3.01-0.12c0.52-0.68,1.1-1.35,1.26-2.44c-1.53,1.15-3.11,1.46-5.05,0.78c1.43-0.69,1.03-2.33,2.23-3.29
		c-1.26-0.08-2.24-0.1-3.26,0.4c-1.33,0.66-2.88,0.36-3.47-0.81c-0.72-1.43-1.63-1.29-2.77-0.84c-0.18,0.07-0.37,0.13-0.59,0.21
		c0.09-1.93,3.34-4.28,5.4-3.96c-0.03-1.03-0.21-1.88-1.36-2.33c-0.65-0.25-0.94-1.02-0.79-1.72c0.29-1.38-0.49-1.99-1.57-2.45
		c-0.23-0.1-0.45-0.21-0.76-0.35c1.19-0.9,2.47-1.01,3.58-0.39c1.12,0.63,2.47-0.02,3.49,0.87c-0.31-0.92-1.18-1.44-1.52-2.32
		c-0.36-0.9-0.56-1.83-0.77-2.83c-0.57,0.42-0.71,1-0.65,1.62c0.12,1.07-0.36,0.87-1,0.54c-1.03-0.53-1.62-1.43-2.09-2.44
		c-0.21-0.45-0.39-0.93-0.93-1.29c-0.42,0.81-0.61,1.64-0.49,2.48c0.4,2.64,0.18,3.15-2.17,4.38c-0.42,0.22-0.48,0.53-0.48,0.93
		c0.01,0.58,0,1.15,0,1.77c-1.75-0.79-3.13-3.88-2.7-5.95c-0.98-0.26-1.79-0.09-2.37,0.81c-0.4,0.61-1.06,0.81-1.67,0.63
		c-1.21-0.36-1.53,0.42-1.87,1.25c-0.09,0.21,0.01,0.59-0.36,0.55c-0.25-0.03-0.35-0.31-0.45-0.54c-0.8-1.79,0.15-5.67,1.69-6.75
		c-0.62-0.59-0.93-1.43-1.49-2c-0.63-0.65-1.52,0.1-2.47,0.17c0.18-0.67,0.38-1.25,0.88-1.61c1.01-0.74,2.05-1.44,3.11-2.11
		c0.5-0.32,1.04-0.2,1.56,0.05c1.4,0.67,2.81,0.74,4.35,0.32c3.97-1.09,7.93-1.02,11.9,0.21c2.37,0.74,4.92,0.49,7.34,1.03
		c0.36,0.08,0.73,0.15,1.09,0.26c1.2,0.38,2.23,0.78,2.86-0.99c0.47-1.31,2.93-1.72,4.9-1.15c0.12,0.03,0.25,0.06,0.37,0.09
		c0.82,0.56,1.64,1.12,2.49,1.7c0.21-1.31,0.27-2.43-1.39-2.59c-0.04,0-0.06-0.23-0.1-0.35c0.07-0.21,0.01-0.48,0.31-0.57
		c1.28-0.76,2.46-0.64,3.53,0.41c0.64,0.62,1.36,0.86,2.31,0.47c-1.24-0.72-1.38-0.89-1.98-2.27c0.17-0.03,0.32-0.07,0.47-0.08
		c2.47-0.1,2.48-0.1,3.11-2.5c0.33-1.25,0.51-2.74,1.54-3.48c1.57-1.12,1.74-2.26,0.89-3.8c-0.08-0.14-0.16-0.28-0.24-0.42
		c-0.09-2.47,1.25-4.03,3.26-5.15c0.78-0.44,1.01,0.54,1.58,0.64c0.53,0.91,1.37,1.3,2.05,0.45c0.5-0.64,0.49-1.67,0.71-2.53
		c0.18-0.4,0.9-0.41,0.77-1.03c-0.34-1.61,0.43-3.14,0.29-4.74c-0.03-0.3,0.02-0.55-0.27-0.74c-0.29-0.19-0.35-0.52-0.17-0.78
		c0.54-0.81,0.57-2.07,1.26-2.52c0.66-0.43,1-1.86,2.22-1.17c0.28,0.16,0.21,0.02,0.25-0.11c0.04-0.12,0.07-0.24,0.13-0.34
		c0.12-0.18,0.46-0.36,0.51-0.26c0.51,1.14,1.72-0.77,2.16,0.51c0.04,0.11,0.07,0.23,0.1,0.35c1.03-1.48,1.34,0.65,2.23,0.48
		c0.48-0.09,0.61,1.16,1.45,1.11c-0.26,1,1.26,0.65,1.15,1.54c0.33-0.04,0.86,0.6,0.96-0.3c0.04-0.37,0.59-0.58,0.67-0.81
		c0.14-0.42,1.54,0.03,0.66-0.96c0.39-0.27,0.96-0.22,1.25-0.69c-0.5-0.51-0.97,0.29-1.56-0.06c0.49-0.88,0.98-1.76,1.56-2.8
		c0.28,0.54,0.32,1.06,0.71,1.37c0.5-0.5-0.23-0.9,0.09-1.43c1.03,0.37,2,0.93,2.92,1.57c-0.32,0.35-0.89,0.31-1.16,0.78
		c0.48,0.27,0.94-0.01,1.49-0.06C79,32.86,78.84,33.22,78.68,33.59z M70.2,37.12c-0.67-0.7-1.32-1.43-2.03-2.09
		c-2.12-1.97-4.97-1.4-5.94,1.16c-0.41,1.08-0.18,1.49,0.9,1.45c0.73-0.02,1.41,0.12,2.07,0.42c0.25,0.11,0.52,0.33,0.81,0.1
		c0.79-0.63,1.63-0.46,2.49-0.19c0.76,0.23,1.21,0.85,1.75,1.36c0.19,0.17,0.33,0.52,0.71,0.2c0.7-0.59,0.69-1.39-0.07-1.88
		C70.65,37.49,70.43,37.3,70.2,37.12z M32.81,82.9c2.87,1.02,5.76,1.16,8.67,0.09c-0.38-0.02-0.75-0.04-1.14-0.07
		c0.03-0.46,0.54-0.7,0.45-1.12c-2.9-0.32-4.58-2.34-6.29-4.48c-0.13,0.63-0.57,1.08-0.19,1.72c0.21,0.35,0,0.64-0.45,0.66
		c-1.28-0.6-2.51-1.26-3.19-2.66c0.02,0.79-0.15,1.49-0.49,2.09c-0.66,1.17-0.18,1.99,0.68,2.73C31.43,82.34,32.09,82.68,32.81,82.9
		z M73.56,41.38c1.14,0.4,2.48,0.27,3.27,1.25c1.03,1.26,2.02,2.57,2.82,3.97c0.52,0.91,0.83,0.84,1.43,0.19
		c1.85-2.03,0.91-5.16-1.78-5.81c-1.13-0.27-2.38-0.3-3.38-0.81C74.47,39.42,74.02,40.14,73.56,41.38z" />
		<path class="gbr_st2" d="M155.75,143.24c-1.77-0.82-3.57-1.51-5.53-1.82c-2.33-0.37-2.84-2.46-2.19-4.86c0.32-1.2,0.88-2.35,1.03-3.59
		c0.07-0.59,0.32-0.73,0.8-0.66c2.54,0.37,3.84-1.05,4.79-3.15c0.72-1.59,1.63-3.09,2.47-4.65c0.45,0.68,0.47,1.32,0.2,2.04
		c-0.98,2.57-1.91,5.16-2.88,7.73c-0.14,0.38-0.33,0.81-0.63,1.06c-0.99,0.85-0.66,1.6,0.07,2.36c1.2,1.25,2.62,2.06,4.36,2.25
		c1.09,0.53,2.1,0.52,3.05-0.36c0.46-0.42,1.05-0.71,1.52-1.12c0.77-0.67,1.51-0.75,2.17,0.08c0.5,0.63,0.9,0.05,1.32-0.04
		c0.35-0.08,0.61-0.23,0.52-0.8c-0.13-0.9,0.24-1.53,1.34-1.63c1.49-0.14,2.96-0.48,4.45-0.69c0.75-0.11,1.42,0.03,1.69,0.9
		c0.15,0.49,0.29,0.96,1,0.85c0.53-0.08,1.15,0.27,1.41-0.59c0.2-0.67,0.86-0.8,1.46-0.66c1.58,0.37,3.14,0.83,4.71,1.23
		c0.78,0.2,1.06,0.69,1.09,1.46c0.04,1.18,0.79,1.56,1.76,0.94c0.67-0.43,1.26-0.5,1.93,0.08c1.17,1.01,2.41,1.95,3.62,2.91
		c0.62,0.49,0.72,1.07,0.42,1.8c-0.42,1.03,0.15,1.73,1.21,1.52c0.81-0.16,1.3,0.29,1.68,0.87c0.8,1.23,1.53,2.5,2.31,3.74
		c0.46,0.73,0.55,1.48-0.2,2c-0.51,0.36-0.43,0.7-0.27,1.13c0.3,0.82,0.63,1.63,0.92,2.46c0.14,0.4,0.22,0.82-0.33,1.05
		c-0.54,0.22-0.68-0.21-0.83-0.52c-0.23-0.48-0.36-1.01-0.55-1.51c-0.3-0.76-0.29-1.7-1.51-1.8c-0.49-0.04-0.72-0.76-1.01-1.23
		c-0.57-0.93-1.13-1.86-1.76-2.75c-0.49-0.69-0.8-1.35-0.34-2.18c0.38-0.7-0.3-1.26-0.65-1.15c-1.11,0.36-1.64-0.41-2.32-0.91
		c-0.98-0.72-1.94-1.48-2.89-2.24c-0.44-0.35-0.71-0.79-0.73-1.41c-0.03-0.69-0.62-1-1.09-0.67c-0.83,0.59-1.61,0.29-2.39,0.12
		c-1.05-0.22-2.07-0.63-3.12-0.85c-0.79-0.17-1.38-0.38-1.71-1.24c-0.27-0.69-1.34-0.52-1.49-0.23c-0.59,1.13-1.68,0.86-2.55,1.09
		c-1.17,0.3-2.4,0.39-3.61,0.55c-0.33,0.04-0.66,0.08-0.94-0.23c-0.72-0.79-1.15-0.34-1.39,0.41c-0.15,0.48-0.41,0.88-0.75,1.33
		c1.84,0.53,2.78,2.22,4.33,3.14c0.59,0.35,0.8,1.3,1.29,1.93c1.02,1.29,2.07,2.56,3.28,3.68c0.27,0.25,0.66,0.5,0.47,0.94
		c-0.16,0.36-0.53,0.52-0.92,0.5c-0.62-0.03-1.1-0.01-1.25,0.79c-0.06,0.35-0.58,0.24-0.91,0.24c-3.12,0-5.13-1.71-6.57-4.28
		c-0.32-0.58-0.61-1.18-0.97-1.86c-0.68,0.89,0.05,1.41,0.46,2.09c-1.72-0.27-3.27-0.53-3.82-2.42c-0.11-0.39-0.39-0.75-0.66-1.06
		c-0.25-0.29-0.49-0.86-0.99-0.44c-0.34,0.28-0.82,0.6-0.42,1.25c0.57,0.91,0.18,1.52-0.68,2.03c-1.22,0.73-2.39,1.53-3.56,2.33
		c-0.93,0.64-1.68,0.57-2.37-0.38c-0.65-0.9-1.83-0.74-2.2,0.29c-0.33,0.91-0.91,1.2-1.81,0.99c-1.21-0.1-2.44-0.13-3.63-0.33
		c-0.99-0.17-2.23-0.1-2.05-1.84c0.1-0.95-1.57-1.55-2.36-0.9c-0.7,0.57-1.26,0.48-1.86-0.1c-1.06-1.02-2.3-1.82-3.4-2.8
		c-0.56-0.5-0.77-0.91-0.72-1.57c0.09-1.26-0.74-1.83-1.92-1.35c-0.89,0.36-1.79,0.68-2.7,0.99c-0.86,0.29-1.52,0.77-2.01,1.58
		c-2.5,4.17-3.42,8.69-2.98,13.5c0.05,0.52,0.22,1.13,0.55,1.51c1.29,1.47,1.61,3.18,1.5,5.04c0.06,1.38-0.2,2.77,0.19,4.15
		c0.13,0.46-0.08,0.66-0.6,0.66c-2.41-0.02-3.96-1.03-4.78-3.06c-0.45-0.75-0.45-1.58-0.48-2.43c-0.03-0.94,0.34-1.94-0.42-2.8
		c-0.21-0.24,0.02-0.56,0.17-0.82c0.32-0.54,0.24-1.14,0.27-1.72c0.02-0.37-0.08-0.76-0.32-0.92c-0.34-0.23-0.45,0.4-0.91,0.4
		c-0.03-0.59-0.06-1.19-0.1-1.85c-1.23,0.26-1.79,1.08-2.08,2.15c-1.55-1.82-1.17-3.59,0.3-4.93c3.04-2.8,3.93-6.4,4.63-10.17
		c0.22-1.19,0.52-2.37,0.5-3.59c-0.01-0.74,0.3-1.12,1.05-1.32c1.24-0.34,2.52-0.57,3.68-1.19c0.63-0.34,0.89-0.59,0.52-1.33
		c-0.47-0.93-0.8-1.92-1.15-2.91c-0.43-1.2-0.1-1.67,1.09-1.37c1.14,0.28,2.26,0.24,3.39,0.2c4-0.13,7.52-1.62,10.76-3.9
		c1.67-1.18,2.89-2.83,4.45-4.13c0.05,0.07,0.11,0.12,0.18,0.17c-0.66,1.3-1.39,2.56-1.97,3.9c-0.91,2.11,0.24,3.82,2.58,3.97
		c0.17,0.01,0.33,0.03,0.58,0.05c-0.77,2.48-2.1,4.42-4.43,5.64c-2.69,1.4-5.57,2.25-8.41,3.23c-0.26,0.09-0.76,0.09-0.6,0.52
		c0.12,0.33,0.45,0.64,0.9,0.28c0.7-0.56,1.31-0.08,1.81,0.29c1.11,0.81,2.16,1.73,3.21,2.63c0.41,0.35,0.69,0.75,0.78,1.37
		c0.14,0.88,0.79,1.27,1.72,0.9c0.82-0.33,1.68-0.17,2.5-0.12c1.16,0.07,2.31,0.32,3.47,0.46c0.35,0.04,0.7,0.07,0.87,0.41
		c0.54,1.09,1.12,0.58,1.59,0c0.64-0.8,1.67-1.11,2.3-1.91c1.41-0.33,2.32-2.04,4.06-1.51c0.03,0.01,0.17-0.19,0.16-0.28
		c-0.01-0.09-0.14-0.18-0.24-0.23C157.05,143.76,156.39,143.5,155.75,143.24z M139.08,145.63c-0.12-0.13-0.24-0.31-0.39-0.44
		c-0.44-0.38-0.89-0.76-1.36-1.09c-0.31-0.22-0.42-0.92-1.11-0.17c-0.6,0.66-0.27,0.82,0.12,1.16c0.47,0.41,0.95,0.81,1.45,1.19
		C138.07,146.5,139.05,146.03,139.08,145.63z M147.89,148.52c-0.78,0-1.51,0.06-2.21-0.03c-0.32-0.04-0.79-0.31-0.92-0.08
		c-0.19,0.34-0.24,0.87-0.12,1.25c0.11,0.35,0.59,0.15,0.91,0.16c0.54,0.02,1.08,0.03,1.6,0.24c0.13,0.05,0.69,0.12,0.43-0.25
		C147.11,149.2,147.96,149.1,147.89,148.52z M178.11,138.68c1.09,0.31,1.81,0.53,2.53,0.7c0.2,0.05,0.68,0.09,0.58-0.11
		c-0.25-0.5,0.48-0.94,0.23-1.04c-0.75-0.31-1.58-0.51-2.4-0.56C178.43,137.63,178.92,138.51,178.11,138.68z M188.94,144.23
		c0.46-1.6,0.46-1.6-1.41-2.91c0.05,0.55-0.53,0.68-0.7,1.12C187.61,142.9,188.22,143.52,188.94,144.23z M172.14,137.84
		c-0.3-0.47,0.19-1.27-0.46-0.86c-0.7,0.44-2.14-0.7-2.16,1.01c0,0.32-0.04,0.89,0.41,0.59
		C170.58,138.16,171.82,138.95,172.14,137.84z M153.44,147.87c1.17,0.97,1.18,0.98,2.55,0.04c0.22-0.15,0.57-0.16,0.61-0.45
		C155.29,145.59,154.61,147.65,153.44,147.87z M194.21,151.21c1.44-0.65,0.79-1.46,0.16-2.26c-0.25-0.32-0.32-0.8-1-0.3
		c-0.56,0.41-0.46,0.63-0.2,1.03C193.51,150.2,193.87,150.72,194.21,151.21z M129.54,136.18c0.87-0.87,0.81-1.62,0.42-2.52
		c-0.45-1.04-1.16,0-1.79-0.59C128.68,134.24,129.08,135.13,129.54,136.18z M161.94,140.92c0.74-0.06,1.2,0.51,1.8,0.2
		C162.89,140.06,162.89,140.06,161.94,140.92z" />
		<path class="gbr_st2" d="M160.26,63.11c-1-0.08-2.02,0.21-3-0.2c-0.24-0.1-0.47,0.01-0.52,0.36c-0.15,1.1-1.18,1.88-2.31,1.57
		c-0.63-0.17-0.96-0.08-1.44,0.32c-0.68,0.58-1.49,0.82-2.43,0.52c-0.51-0.17-1.02-0.47-1.66-0.02c-0.52,0.37-0.74-0.24-0.83-0.68
		c-0.25-1.23,0.97-2.29,2.3-1.98c0.21,0.05,0.4,0.09,0.66,0.01c-1.68-1.01-3.36-1.53-5.23-0.65c-0.59,0.28-1.14,0.58-1.47,1.14
		c-0.44,0.74-0.55,1.37,0.48,1.8c1.26,0.53,2.42,1.24,3.63,2.39c-0.67,0-1.07,0.01-1.48,0c-1.5-0.04-3-0.12-4.36,0.7
		c-1.28-1.07-2.81-0.67-4.25-0.69c-4.02-0.04-8.05-0.03-12.07,0c-0.85,0.01-1.55-0.02-1.37-1.15c-0.82,0.11-1.11,0.77-1.63,1.1
		c-0.32,0.2-0.25,0.99-0.84,0.68c-0.58-0.31-1.06-0.71-1.09-1.53c-0.07-1.83,0.39-3.55,1.03-5.34c-0.79,0.13-1.23,0.74-1.85,0.99
		c-0.07-2.59,0.12-4.33,4.9-7.72c-0.32-0.39-0.95-0.27-1.27-0.8c0.75-0.58,1.51-1.17,2.49-1.92c-0.87-0.06-1.47-0.1-2.24-0.15
		c1.36-1.2,2.8-1.81,4.46-2.03c-0.56-0.63-1.42-0.59-2.12-1.13c0.78-0.22,1.47-0.42,2.16-0.61c0.42-0.12,0.44-0.12,0.21-0.57
		c-0.14-0.28,0.02-0.34,0.21-0.46c0.67-0.45,1.4-0.54,2.17-0.47c0.82,0.07,0.98-0.33,0.69-0.99c-0.18-0.42-0.41-0.82-0.7-1.18
		c-0.19-0.24-0.77-0.28-0.6-0.66c0.11-0.25,0.6-0.41,0.94-0.45c1.35-0.17,2.59,0.1,3.67,1.21c0.89-2.17,2.42-2.99,4.66-2.25
		c0.1,0.1,0.2,0.2,0.3,0.3c-0.54,0.89-2.16,1.14-1.62,2.79c0.96-0.71,2.23-0.95,2.44-2.34c0.28-0.16,0.19-0.44,0.2-0.68
		c0.01-0.24,0.13-0.45,0.33-0.5c0.22-0.06,0.33,0.18,0.44,0.35c0.31,0.49,0.61,0.98,0.91,1.48c0.75-0.5,0.66-1.39,1-2.1
		c0.86,1.17,0.59,2.51,0.67,4.03c1.48-1.59,2.84-3.04,4.19-4.5c2.57-2.79,5.14-5.59,7.71-8.39c0.63-0.68,1.22-1.4,1.86-2.07
		c0.3-0.31,0.63-0.89,1.12-0.48c0.44,0.37,0.02,0.88-0.2,1.25c-0.67,1.11-1.41,2.17-2.1,3.27c-2.71,4.28-5.63,8.41-8.64,12.48
		c-1,1.35-0.98,1.36,0.35,2.52c0.48,1.53,1.48,2.54,3.01,3.01c1.06,0.64,2.11,1.3,3.2,1.9c0.59,0.33,1.25,0.41,1.94,0.41
		c1.2-0.01,2.09,0.47,2.37,1.77c0.1,0.48,0.28,0.96,0.5,1.41c0.42,0.84,0.14,1.38-0.66,1.7c-0.46,0.19-0.77,0.36-0.71,0.97
		c0.07,0.72,0.63,0.61,1.01,0.68c0.74,0.12,1.5,0.08,2.36-0.3C161.83,62.39,160.94,62.64,160.26,63.11z" />
		<path class="gbr_st2" d="M59.57,156.71c1.21-0.38,2.5-0.28,3.73-0.52c1.03-0.2,1.61,0.6,2.29,1.12c1.42,1.07,3.25,0.82,4.37-0.52
		c1.46-1.75,1.85-3.86,2.01-5.98c0.2-2.48-0.1-4.99,0.27-7.47c0.09-0.59-0.08-0.99-0.59-1.38c-2.06-1.55-3.85-3.38-5.45-5.4
		c-0.25-0.32-0.59-0.58-1.02-0.85c1.06,2.28-1.46,3.79-1.01,6.06c-1.83-0.78-1.48-2.33-1.62-4.07c-0.51,1.21-1.07,1.88-2.13,2.66
		c0.65-1.87-0.52-2.57-1.45-3.39c-1-0.88-1.57-1.87-1.03-3.23c0.05-0.11,0.11-0.31,0.06-0.36c-1.27-1.15,0.08-1.49,0.64-2.05
		c0.73-0.72,0.83-1.72,1.15-2.61c0.93-2.56,1.77-5.15,2.69-7.87c1.94,3.16,3.81,6.21,5.68,9.26c1.65,2.69,2.85,2.88,5.31,0.71
		c1.16,3.5,3.48,6.07,6.3,8.26c0.43,0.33,0.94,0.56,1.42,0.81c1.76,0.92,2.81,2.25,2.51,4.48c-0.62-0.65-1.26-1.12-2.36-0.7
		c1.97,1.39,2.83,3.17,2.28,5.61c-0.88-1.02-2-1.54-3.45-1.74c0.45,1,1.08,1.68,1.74,2.33c1.85,1.85,2.04,3.33,0.62,5.83
		c-0.08-2.22-1.9-2.44-3.32-3.41c0.15,0.87,0.46,1.42,0.91,1.93c1.7,1.9,1.86,4,0.88,6.3c-0.22,0.51-0.42,0.7-0.7,0.19
		c-0.46-0.85-1.14-1.17-2.05-1.22c-0.63-0.03-1-0.58-1.45-0.84c-0.8,1.09-0.29,1.6,0.81,1.86c0.19,0.04,0.42,0.2,0.49,0.37
		c0.66,1.52,1.8,2.83,2.04,4.52c0.07,0.48-0.11,0.99-0.18,1.48c-0.8,0.69-0.57-0.38-0.88-0.52c-0.73-1.64-2.08-1.52-3.49-1.22
		c-1.24-0.57-2.24-0.6-2.53,1.08c-0.03,0.17-0.25,0.39-0.42,0.45c-1.71,0.64-1.61,1.82-0.74,3.37c-2.58-0.84-3.01-3.26-4.63-4.74
		c-0.87,0.91-1.98,1.07-3.24,0.42c-0.6-0.31-1.01,0.25-1.41,0.59c-0.34,0.29-0.62,0.67-0.99,1.09c-0.6-1.04-0.32-2.03,0.22-2.83
		c0.65-0.97,0.31-2.15,0.91-3.09c0.04-0.06,0.06-0.22,0.04-0.23c-1-0.47-1.38-1.44-2.01-2.25c-0.65-0.85-1.93-0.28-3.04-0.05
		C57.92,157.8,58.81,157.31,59.57,156.71z" />
		<path class="gbr_st2" d="M170.18,108.37c-0.14-2.97-1.74-5.03-4.13-6.61c-0.5-0.33-0.8-0.26-1.09,0.27c-0.2,0.36-0.55,0.63-0.96,1.09
		c-0.52-1.48-1.28-2.55-2.87-2.64c1.16-1.63,1.16-1.63-1.3-3.18c-1.38,7.12-5.8,12.8-8.79,19.16c0.29-1.81,0.64-3.58,0.6-5.41
		c-0.14-6.24-5.09-10.66-10.82-10.78c-1.06-0.02-2.12,0.01-3.18,0.01c-0.17,0-0.4,0.31-0.49-0.06c-0.08-0.32,0.11-0.46,0.42-0.46
		c0.81,0,1.61-0.05,2.41,0c3.22,0.22,6.3-0.42,9.09-1.94c6.75-3.7,11.41-9.05,12.72-16.89c0.07-0.39,0.21-0.65,0.42-0.97
		c0.16-0.24,0.5-0.63,0.24-1.03c-1.09-1.72-0.98-3.85-1.94-5.61c0.07-0.05,0.13-0.11,0.18-0.17c0.58,0.47,1.18,0.92,1.75,1.41
		c0.66,0.56,1.16,1.09,0.54,2.1c-0.49,0.82,0.42,1.61,1.42,1.59c0.97-0.02,1.99,0.41,2.74-0.58c1.58-0.7,2.99-1.69,4.32-2.75
		c2.52-2,4.98-1.64,7.53-0.12c1.75,1.04,3.25,2.52,5.31,3c0.63,0.15,0.88,0.77,0.81,1.13c-0.34,1.69,1.04,2.17,1.92,3.01
		c0.39,0.38,0.85,0.71,1.17,1.14c0.86,1.19,0.77,1.39-0.71,1.65c-0.37,0.06-0.52,0.16-0.5,0.53c0.05,1.13-0.79,1.03-1.46,0.94
		c-2.07-0.28-3.6-1.43-4.76-3.13c-1.24-1.81-1.62-1.81-2.86-0.1c-1.14-1.28-1.21-1.83-0.13-3.09c0.7-0.83,0.1-1.06-0.49-1.16
		c-1.66-0.28-3.19-0.04-4.41,1.29c-1.31,1.43-2.66,2.83-3.98,4.25c-0.83,0.62-1.58,1.23-0.99,2.48c0.38,0.79,1.26,0.55,1.75,1.06
		c0.56,0.72,0.23,1.54,0.26,2.32c-0.29,1.12-0.44,2.25-0.46,3.4c-0.02,0.95-0.52,1.51-1.41,1.57c-1.04,0.06-1.08,0.61-0.61,1.22
		c0.97,1.25,2.01,2.46,3.25,3.46c0.49,0.52,1.02,1,1.45,1.55c0.8,1.04,1.38,2.17,1.14,3.55c0,0,0.02-0.02,0.02-0.02
		c-0.35,0.05-0.28,0.29-0.24,0.51c-0.72,1.22-1.6,2.3-2.68,3.21C170.3,108.49,170.24,108.43,170.18,108.37z M165.26,93.88
		c0.7-2.53,0.26-5.12,1.41-7.45c-1.39,0.72-2.67,1.43-3.82,2.3c-0.58,0.44-0.68,1.17-0.34,1.95
		C163.09,92.02,164.26,92.79,165.26,93.88z M167.09,89.31c0.29,0.86-0.25,1.6-0.17,2.4c0.03,0.25-0.28,0.78,0.29,0.69
		c0.33-0.05,0.95,0.44,1.02-0.52C168.32,90.78,169.15,89.55,167.09,89.31z M164.29,100.68c-0.22-0.42-0.53-0.65-0.94-0.77
		c-0.35-0.1-0.23,0.26-0.37,0.35c0.26,0.3,0.51,0.6,0.77,0.9C163.93,101,164.12,100.84,164.29,100.68z" />
		<path class="gbr_st2" d="M40.76,136.07c1.08-0.99,1.7-2.26,2.23-3.59c0.16-0.4,0.19-0.58,0.75-0.49c2.31,0.4,4.63,0.77,6.88-0.28
		c0.28-0.13,0.35,0.11,0.52,0.17c0.43,0.15,0.86,0.39,1.29,0.4c0.86,0.02,1.74-0.07,1.77,1.15c0.03,1.11,0.33,2.35-1.2,2.81
		c-0.32,0.1-0.6,0.29-0.91,0.43c-1.81,0.8-3.06,2.04-3.18,4.13c-0.09,1.66-0.99,2.79-2.3,3.68c-0.6-0.08-0.02-0.8-0.58-1
		c-0.66,0.76-1.19,1.68-2.2,2.32c-0.04-0.82-0.08-1.57-0.11-2.32c-0.85,1.44-1.55,2.92-3.41,3.34c-0.15-0.91,0.87-1.79,0.24-2.54
		c-2.39,1.68-2.29,4.95-4.26,6.94c-0.54-0.27-0.43-0.64-0.37-0.86c0.49-1.81-1.1-2.22-2.04-3.03c-0.35-0.31-0.56,0.19-0.73,0.4
		c-0.86,1.1-2.04,1.46-3.28,1.1c-1.14-0.33-1.49,0.24-1.85,1.05c-0.15,0.34-0.32,0.66-0.55,1.14c-0.88-1.22-0.9-2.39-0.5-3.62
		c0.52-1.59,0.4-1.76-1.22-1.8c-0.3-0.01-0.66,0.05-0.87-0.09c-1.53-1.02-2.94-0.62-4.44,0.48c0.17-1.7,0.97-2.77,2.27-3.37
		c0.7-0.32,1.39-0.75,1.24-1.41c-0.22-0.93-1.15-0.74-1.91-0.61c-0.37,0.06-0.73,0.13-1.09,0.19c-0.2-0.51,0.11-0.81,0.32-1.08
		c1.04-1.4,4.35-2.34,5.87-1.49c4.9,2.72,9.19,1.47,13.24-1.82C40.49,136.27,40.62,136.17,40.76,136.07z" />
		<path class="gbr_st1" d="M126.51,165.15c0.11-1.86-0.21-3.57-1.5-5.04c-0.33-0.38-0.5-0.99-0.55-1.51c-0.44-4.81,0.48-9.32,2.98-13.5
		c0.49-0.81,1.15-1.29,2.01-1.58c0.91-0.31,1.81-0.63,2.7-0.99c1.18-0.48,2.01,0.09,1.92,1.35c-0.05,0.66,0.16,1.08,0.72,1.57
		c1.1,0.97,2.34,1.78,3.4,2.8c0.6,0.58,1.16,0.67,1.86,0.1c0.79-0.64,2.46-0.05,2.36,0.9c-0.18,1.74,1.06,1.67,2.05,1.84
		c1.19,0.21,2.42,0.23,3.63,0.33c-3.39,3.28-7.19,6.01-11.2,8.48C133.58,161.96,130.03,163.52,126.51,165.15z" />
		<path class="gbr_st3" d="M51.91,50.12c0.08,0.14,0.16,0.28,0.24,0.42c0.85,1.54,0.68,2.68-0.89,3.8c-1.04,0.74-1.21,2.23-1.54,3.48
		c-0.63,2.4-0.64,2.4-3.11,2.5c-0.15,0.01-0.31,0.05-0.47,0.08c0.59,1.38,0.74,1.55,1.98,2.27c-0.95,0.39-1.67,0.15-2.31-0.47
		c-1.08-1.05-2.25-1.16-3.53-0.41c0.86-1.84,2.18-3.39,3.42-4.95C47.58,54.46,49.54,52.09,51.91,50.12z" />
		<path class="gbr_st3" d="M170.68,99.75c-1.25-1-2.29-2.21-3.25-3.46c-0.47-0.61-0.43-1.16,0.61-1.22c0.89-0.05,1.4-0.61,1.41-1.57
		c0.02-1.15,0.17-2.29,0.46-3.4c0.65,0.92,0.38,2.04,0.46,3.02C170.57,95.3,170.95,97.52,170.68,99.75z" />
		<path class="gbr_st4" d="M169.66,87.77c-0.48-0.51-1.37-0.26-1.75-1.06c-0.59-1.24,0.16-1.85,0.99-2.48
		C169.15,85.42,169.4,86.59,169.66,87.77z" />
		<path class="gbr_st5" d="M41.95,62.36c0.03,0.12,0.05,0.35,0.1,0.35c1.66,0.16,1.6,1.29,1.39,2.59c-0.86-0.58-1.67-1.14-2.49-1.7
		C41.36,63.26,41.43,62.63,41.95,62.36z" />
		<path class="gbr_st5" d="M59.51,43.52c-0.22,0.86-0.21,1.89-0.71,2.53c-0.67,0.86-1.52,0.47-2.05-0.45
		C57.67,44.91,58.59,44.22,59.51,43.52z" />
		<path class="gbr_st5" d="M141.26,43.01c-0.21,1.39-1.48,1.63-2.44,2.34c-0.54-1.65,1.08-1.9,1.62-2.79
		C140.73,42.7,141.08,42.7,141.26,43.01z" />
		<path class="gbr_st5" d="M75.58,165.16c1.41-0.3,2.76-0.42,3.49,1.22C77.85,166.11,76.64,165.85,75.58,165.16z" />
		<path class="gbr_st5" d="M152.1,52.69c-1.53-0.48-2.53-1.48-3.01-3.01C150.24,50.54,151.24,51.54,152.1,52.69z" />
		<path class="gbr_st6" d="M160.82,129.76c-0.77-4.55-1.53-8.98-2.32-13.64c-1.73,2.75-2.85,5.54-4.27,8.16
		c-0.86,1.59-1.72,3.18-2.5,4.81c-0.27,0.57-0.62,0.69-1.17,0.68c-1.1-0.03-2.2-0.01-3.52-0.01c4.72-8.94,9.39-17.77,14.16-26.78
		c0.99,5.81,1.95,11.41,2.92,17.14c4.88-5.77,9.67-11.44,14.48-17.13c0.04,1.51-0.37,3.02-0.58,4.53c-0.41,2.94-0.96,5.87-1.44,8.8
		c-0.58,3.5-1.15,7.01-1.72,10.51c-0.1,0.61-0.28,1.26-0.26,1.83c0.04,1.04-0.38,1.2-1.25,1.12c-0.59-0.06-1.19-0.01-1.78-0.01
		c-1.44,0-1.56-0.24-1.29-1.69c0.7-3.8,1.32-7.61,2.01-11.66C168.4,120.94,164.67,125.28,160.82,129.76z" />
		<path class="gbr_st6" d="M121.79,122.52c0.11-5.7,1.71-9.12,4.17-12.27c1.8-2.31,3.99-4.16,6.55-5.44c4.32-2.16,8.73-3.25,13.24-0.25
		c2.76,1.84,3.66,5.63,3.28,8.25c-0.5,3.42-1.78,6.55-3.99,9.27c-3.1,3.81-6.9,6.49-11.81,7.45c-2.56,0.5-5.06,0.42-7.33-0.97
		C123.07,126.81,121.72,124.22,121.79,122.52z M132.44,125.22c0.63-0.05,1.28,0.01,1.88-0.16c5-1.42,8.3-4.62,9.85-9.59
		c0.73-2.36,0.51-4.65-1.25-6.47c-1.86-1.92-4.3-2.03-6.7-1.37c-4.92,1.35-8.11,4.57-9.5,9.47
		C125.46,121.51,127.89,125.48,132.44,125.22z" />
		<path class="gbr_st6" d="M80.13,102.8c-3.08,9.05-6.11,17.96-9.18,26.99c-3.05-5.04-6.03-9.97-9.06-14.99
		c-0.73,1.34-1.04,2.85-1.55,4.27c-1.17,3.28-2.24,6.59-3.33,9.89c-0.19,0.59-0.49,0.86-1.15,0.82c-1.1-0.06-2.2-0.02-3.44-0.02
		c3.07-9.04,6.12-17.99,9.17-26.98c3,5.13,5.95,10.14,9.01,15.37c1.02-2.94,1.99-5.7,2.94-8.47c0.62-1.82,1.21-3.65,1.79-5.49
		c0.3-0.95,0.69-1.59,1.89-1.42C78.12,102.9,79.06,102.8,80.13,102.8z" />
		<path class="gbr_st6" d="M83.86,85.65c1.65-4.94,3.21-9.64,4.78-14.34c0.26-0.78,0.68-1.21,1.63-1.1c0.96,0.11,1.95,0.02,3.09,0.02
		c-3.07,9.02-6.11,17.96-9.18,26.99c-3.07-5.07-6.05-10.02-9.12-15.09c-0.77,2.31-1.52,4.55-2.28,6.79
		c-0.85,2.52-1.69,5.05-2.57,7.56c-0.12,0.35-0.23,0.77-0.84,0.74c-1.22-0.06-2.44-0.02-3.74-0.02c3.08-9.05,6.11-17.98,9.17-26.98
		C77.83,75.37,80.78,80.4,83.86,85.65z" />
		<path class="gbr_st6" d="M96.17,129.76c2.98-8.78,5.91-17.38,8.8-26c0.24-0.73,0.5-1.04,1.29-0.98c2.66,0.22,5.35-0.33,8,0.49
		c4.62,1.43,6.36,6.26,5.69,10.3c-0.8,4.8-3.34,8.53-6.89,11.61c-3.25,2.81-7,4.64-11.45,4.58
		C99.82,129.74,98.04,129.76,96.17,129.76z M102.06,125.13c1.12,0,2.18,0.21,3.13-0.04c5-1.29,8.33-4.46,9.95-9.35
		c1.39-4.2-0.9-8.91-6.09-8.41c-0.77,0.07-1.18,0.32-1.39,0.96C105.79,113.88,103.94,119.47,102.06,125.13z" />
		<path class="gbr_st6" d="M135.34,97.2c2.98-8.78,5.91-17.38,8.79-25.99c0.24-0.72,0.49-1.05,1.29-0.99c2.66,0.22,5.34-0.33,8,0.49
		c4.63,1.43,6.37,6.27,5.7,10.29c-0.8,4.8-3.34,8.53-6.89,11.61c-3.25,2.81-7,4.64-11.45,4.59C139,97.18,137.23,97.2,135.34,97.2z
		 M141.21,92.62c0.94,0,1.78,0,2.63,0c0.17,0,0.34,0.01,0.5-0.04c5.04-1.36,8.42-4.54,10.01-9.48c1.36-4.23-1-8.81-6.08-8.32
		c-0.81,0.08-1.22,0.33-1.45,1.04C144.97,81.37,143.12,86.91,141.21,92.62z" />
		<path class="gbr_st6" d="M88.37,118.06c0.44-1.4,0.49-3.14,1.37-3.85c0.81-0.65,2.51-0.2,3.82-0.22c1.48-0.02,2.97,0,4.56,0
		c-1.59,4.71-3.16,9.38-4.75,14.03c-0.06,0.18-0.24,0.37-0.42,0.44c-3.65,1.63-9.16,2.28-12.48-1.31c-1.47-1.59-2.25-3.41-2.35-5.56
		c-0.21-4.57,1.66-8.32,4.5-11.73c3.17-3.81,7.17-6.18,12.02-7.01c2.19-0.38,4.37,0.04,6.42,1.07c0.62,0.31,0.27,0.71,0.19,0.95
		c-0.49,1.58-1.06,3.13-1.61,4.7c-3-3.41-7.29-2.52-10.55-0.53c-3.25,1.98-5.5,4.84-6.24,8.58c-0.64,3.19,0.06,6.16,3.94,7.42
		c0.94,0.31,1.93,0.06,2.89,0.14c0.5,0.04,0.54-0.42,0.63-0.66c0.68-1.88,1.28-3.8,1.97-5.68c0.25-0.7,0.01-0.8-0.59-0.79
		C90.6,118.07,89.54,118.06,88.37,118.06z" />
		<path class="gbr_st6" d="M50.68,102.8c-1.07,0.91-2,1.66-2.87,2.47c-2.6,2.4-5.1,4.9-7.78,7.19c-1.27,1.09-2.29,2.46-3.75,3.32
		c-0.63,0.37-0.27,0.81-0.12,1.17c0.99,2.47,2.02,4.93,3.03,7.39c0.73,1.78,1.46,3.56,2.22,5.42c-1.31,0-2.59-0.15-3.81,0.04
		c-1.41,0.21-1.8-0.55-2.23-1.62c-1.32-3.35-2.72-6.67-4.18-10.23c-1.28,3.78-2.51,7.34-3.68,10.91c-0.22,0.66-0.48,0.95-1.2,0.91
		c-1.1-0.06-2.2-0.02-3.4-0.02c1.12-3.37,2.21-6.66,3.32-9.94c1.82-5.35,3.67-10.69,5.46-16.05c0.24-0.72,0.49-1.04,1.29-0.99
		c1.09,0.07,2.2,0.02,3.38,0.02c-1.3,3.81-2.59,7.56-3.99,11.64c1.19-0.94,1.99-1.74,2.82-2.48c2.97-2.67,5.85-5.45,8.76-8.2
		c0.69-0.66,1.43-1.04,2.44-0.99C47.74,102.85,49.1,102.8,50.68,102.8z" />
		<path class="gbr_st6" d="M71.55,70.24c-2.59,6.41-3.92,13.17-6.98,19.26c-2.41,4.81-6.5,7.67-12.11,7.68c-3.33,0.01-5.72-2.54-5.91-5.9
		c-0.18-3.1,1.15-5.81,2.12-8.58c1.35-3.87,2.57-7.77,3.95-11.63c0.24-0.67,0.49-0.86,1.12-0.84c1.1,0.03,2.2,0.01,3.41,0.01
		c-0.68,2.64-1.75,5.1-2.57,7.63c-1.06,3.27-2.13,6.54-3.21,9.81c-0.34,1.02-0.39,2.05,0.01,3.03c0.69,1.68,2.53,2.48,4.5,1.83
		c2.61-0.85,4.52-2.56,5.43-5.19c1.89-5.41,3.75-10.83,5.55-16.27c0.22-0.68,0.48-0.87,1.11-0.85
		C69.08,70.26,70.18,70.24,71.55,70.24z" />
		<path class="gbr_st6" d="M124.96,81.18c1.46,0,2.81,0,4.2,0c-0.4,1.12-0.88,2.18-1.14,3.29c-0.16,0.67-0.47,0.81-1.04,0.78
		c-0.13-0.01-0.25,0-0.38,0c-3.02,0.01-3.01,0.02-3.97,2.95c-0.39,1.21-0.79,2.42-1.29,3.58c-0.38,0.89-0.23,1.13,0.76,1.12
		c3.39-0.05,6.78-0.02,10.17-0.02c0.33,0,0.66,0.03,0.97,0.04c0.02,0.1,0.05,0.14,0.04,0.18c-0.46,1.35-0.54,3.19-1.48,3.9
		c-0.9,0.68-2.68,0.19-4.08,0.2c-4.11,0.01-8.22,0-12.49,0c0.79-2.35,1.55-4.61,2.32-6.86c2.16-6.36,4.33-12.71,6.46-19.08
		c0.25-0.75,0.55-1.05,1.38-1.04c4.87,0.04,9.75,0.04,14.62,0.01c0.89-0.01,1.12,0.16,0.72,1.04c-0.47,1.04-0.48,2.52-1.24,3.12
		c-0.69,0.54-2.11,0.17-3.21,0.17c-2.71,0.01-5.42,0.01-8.14,0c-0.46,0-0.89-0.05-1.09,0.54C126.39,77.11,125.68,79.11,124.96,81.18
		z" />
		<path class="gbr_st6" d="M101.31,97.2c2.55-7.54,5.08-15.02,7.65-22.6c-2.09,0-4.07,0-6.11,0c0.43-1.3,0.86-2.5,1.21-3.72
		c0.13-0.45,0.34-0.64,0.77-0.64c5.32,0,10.65,0,16.09,0c-0.46,1.33-0.94,2.51-1.26,3.73c-0.15,0.56-0.39,0.61-0.85,0.6
		c-1.53-0.02-3.05,0.04-4.58-0.03c-0.77-0.03-1.04,0.25-1.28,0.96c-2.3,6.91-4.67,13.81-6.97,20.72c-0.24,0.72-0.49,1.05-1.29,0.99
		C103.59,97.14,102.49,97.2,101.31,97.2z" />
		<path class="gbr_st6" d="M87.51,97.2c1.8-5.28,3.57-10.46,5.33-15.64c1.19-3.49,2.41-6.96,3.53-10.47c0.21-0.67,0.46-0.88,1.11-0.86
		c1.13,0.03,2.27,0.01,3.44,0.01c-2.95,8.7-5.89,17.33-8.77,25.99c-0.27,0.82-0.62,1.02-1.39,0.99
		C89.71,97.16,88.65,97.2,87.51,97.2z" />
		<path class="gbr_st6" d="M44.78,129.76c1.82-5.36,3.59-10.63,5.38-15.89c1.16-3.41,2.37-6.8,3.47-10.23c0.22-0.67,0.47-0.87,1.11-0.85
		c1.13,0.03,2.27,0.01,3.43,0.01c-2.95,8.7-5.89,17.34-8.77,25.99c-0.24,0.72-0.49,1.03-1.26,0.98
		C47.05,129.71,45.95,129.76,44.78,129.76z" />
		<path class="gbr_st2" d="M92.58,140.45c-1.02,1-2.06,1.37-3.33,0.64c-0.92-0.53-1.33-1.24-1.18-2.29c0.11,0.01,0.2-0.01,0.26,0.03
		c0.68,0.49,1.46,1,2-0.04c0.5-0.97-0.2-1.53-1.03-1.9c-0.78-0.34-1.61-0.43-2.44-0.58c-3.41-0.63-5.33-3.03-6.87-5.93
		c2.19,1.64,4.91,1.62,7.35,2.44c1.55,0.52,2.96,0.33,4.21-0.83c1.31-1.21,3.07-1.1,4.03,0.16c0.13,0.17,0.07,0.31-0.02,0.46
		c-0.15,0.25-0.28,0.53-0.48,0.74c-0.87,0.9-0.87,1.35,0.51,1.76c1.65,0.49,2.02,1.47,1.6,3.11c-0.3,1.16-0.3,1.16,0.16,2.41
		c-0.71,0.34-0.96-0.66-1.63-0.46c0.25,0.73,0.29,1.55,0.24,2.38c-0.08,1.25-0.85,1.96-2.1,2.02c-1.34,0.06-2.85-0.54-3.82,1.12
		c-0.34-1.61,0.61-2.28,1.63-2.86C92.58,142.29,93.24,141.71,92.58,140.45z" />
		<path class="gbr_st2" d="M139.42,77.11c-1.5,4.47-2.94,8.81-4.41,13.13c-0.06,0.17-0.07,0.58-0.58,0.41c-1.96-0.67-4.01-0.11-6.15-0.39
		c0.89-0.93,1.88-1.25,3.05-1.2c0.96,0.04,1.95,0.07,2.83-1.1c-1.66,0.59-2.63-0.11-3.51-1.14c-0.34-0.4-0.48-0.76-0.3-1.26
		c0.33-0.9,0.58-1.83,0.97-2.7c0.94-2.1,0.29-3.59-1.9-4.21c-0.31-0.09-0.82,0-0.63-0.5c0.14-0.39,0.01-1.06,0.8-1.05
		C132.84,77.12,136.09,77.11,139.42,77.11z" />
		<path class="gbr_st2" d="M49.68,107.33c-2.16,6.36-4.33,12.73-6.54,19.22c-0.78-0.71-1.05-1.62-1.2-2.37c-0.5-2.44-2.03-4.42-2.8-6.73
		c-0.1-0.3-0.26-0.51,0.03-0.77c0.97-0.89,1.73-2.13,3.34-1.94c0.28,0.03,0.69,0.07,0.69-0.35c0-1.83,1.45-2.7,2.55-3.73
		C46.98,109.51,48.26,108.42,49.68,107.33z" />
		<path class="gbr_st2" d="M51.47,99.78c5.38-0.19,5.38-0.19,11.84-4.2c0.15,0.32-0.11,0.55-0.16,0.83c-0.34,1.68,0.92,3.33,2.7,3.29
		c1.05-0.02,1.35,0.42,1.79,1.27c1.02,1.96,1.82,4.08,3.51,5.62c0.45,0.41,0.4,0.83,0.21,1.37c-0.44,1.21-0.81,2.44-1.25,3.78
		c-0.9-0.79-1.32-1.83-1.87-2.75c-1.45-2.47-2.81-4.99-4.26-7.46c-0.7-1.19-2.18-1.59-3.52-0.94c-0.42,0.2-0.6,0.17-1.03,0.02
		c-1.91-0.66-3.92-0.45-5.87-0.22C52.69,100.49,52.17,100.3,51.47,99.78z" />
		<path class="gbr_st2" d="M119.23,122.17c0.38,3.32,1.71,5.94,4.28,7.9c0.16,0.12,0.37,0.31,0.37,0.47c-0.01,1.63,0.36,3.3-0.48,4.84
		c-0.61,1.13-2.18,1.84-3.64,1.62c0.86-1.1,0.64-2.2,0.08-3.31c-0.5-1-0.59-2.06-0.15-3.13c0.27-0.63,0.2-0.9-0.6-1.1
		c-1.51-0.39-2.45-1.51-2.97-2.99c-0.15-0.44-0.05-0.72,0.26-1.01C117.42,124.48,118.39,123.45,119.23,122.17z" />
		<path class="gbr_st2" d="M120.78,102.87c0.78,1.11,1.49,2.13,2.22,3.17c1.18-1.73,2.16-3.47,1.49-5.64c-0.17-0.55,0.11-0.66,0.58-0.66
		c1.1,0.01,2.2,0.01,3.3,0c0.61-0.01,0.64,0.22,0.53,0.78c-0.53,2.55-1.35,4.87-3.52,6.59c-1,0.79-1.72,1.92-2.62,2.96
		c-0.56-0.78-0.44-1.79-0.82-2.63c-0.34-0.76-0.59-1.58-1.11-2.22C120.17,104.4,120.48,103.7,120.78,102.87z" />
		<path class="gbr_st2" d="M114.31,92.06c-0.69-0.78-1.25-1.36-1.74-1.99c-0.79-1.02-1.18-2.06-0.65-3.43c0.93-2.4,1.66-4.87,2.5-7.3
		c0.08-0.23-0.07-0.7,0.4-0.64c0.25,0.03,0.38,0.29,0.47,0.55c0.79,2.49,2.15,4.88,0.77,7.66
		C115.31,88.41,114.95,90.11,114.31,92.06z" />
		<path class="gbr_st2" d="M75.68,88.41c0.24,0.32,0.45,0.58,0.64,0.85c0.8,1.1,1.23,1.96,0.02,3.33c-1.7,1.92-1.1,4.33-0.39,6.58
		c0.1,0.31,0.26,0.61,0.42,0.99c-1.31,0.12-2.32,0.61-2.93,1.75c-0.06-0.05-0.12-0.08-0.16-0.12c-1.2-1.64-1.42-3.24-0.53-5.22
		C73.94,93.96,74.71,91.18,75.68,88.41z" />
		<path class="gbr_st2" d="M87.31,68.3c-1.91,3.33-2.51,7.22-4.03,10.83c-2.02-1.78-1.61-4.07-0.99-6.15
		C83.06,70.36,84.88,68.51,87.31,68.3z" />
		<path class="gbr_st2" d="M112.52,96.56c0.22,1.84,1.03,3.08,3.03,3.19c0.63,0.04,0.47,0.49,0.46,0.83c-0.01,0.53-0.35,0.47-0.7,0.34
		c-0.31-0.12-0.62-0.25-0.94-0.34c-1.99-0.57-2.34-1.13-1.93-3.15C112.49,97.14,112.5,96.85,112.52,96.56z" />
		<path class="gbr_st2" d="M85.92,116.69c-0.3,2.6-0.2,2.77,2.52,3.91c0.33,0.14,0.35,0.24,0.22,0.53c-0.18,0.45-0.31,0.92-0.47,1.39
		C85.55,120.29,84.83,118.44,85.92,116.69z" />
		<path class="gbr_st7" d="M155.75,143.24c0.65,0.26,1.3,0.52,1.94,0.79c0.1,0.04,0.23,0.14,0.24,0.23c0.01,0.09-0.13,0.28-0.16,0.28
		c-1.74-0.53-2.65,1.18-4.06,1.51C154.05,144.86,155.16,144.24,155.75,143.24z" />
		<path class="gbr_st2" d="M153.17,67.97c-0.79-0.15-1.82-0.66-1.66-1.25c0.32-1.21,1.71-0.18,2.51-0.72c0.29-0.19,0.51,0.16,0.38,0.4
		C154.09,66.98,154.12,67.86,153.17,67.97z" />
		<path class="gbr_st2"
			d="M126.91,90.27c-0.85,0-1.51,0-2.29,0c0.42-0.75,0.28-2,0.96-2.01C126.15,88.26,126.48,89.49,126.91,90.27z" />
		<path class="gbr_st2" d="M81.08,98.56c1.17,0.88,1.53,2.12,1.6,3.5c-0.49-1.16-2.44-1.52-1.81-3.29C80.94,98.7,81.01,98.63,81.08,98.56
		z" />
		<path class="gbr_st2" d="M85.01,102.25c0.97,1.15,0.97,1.15,0,1.67C85.01,103.42,85.01,102.94,85.01,102.25z" />
		<path class="gbr_st0" d="M167.76,125.75c0.1-0.17,0.2-0.33,0.3-0.5c0.16,0.27,0.21,0.52-0.13,0.71
		C167.88,125.89,167.82,125.82,167.76,125.75z" />
		<path class="gbr_st2" d="M170.36,108.55c-0.18,0.09-0.06,0.54-0.35,0.4c-0.15-0.08-0.1-0.44,0.17-0.58
		C170.24,108.43,170.3,108.49,170.36,108.55z" />
		<path class="gbr_st2" d="M160.52,73.31c-0.18-0.07-0.29-0.26-0.16-0.38c0.18-0.16,0.23,0.12,0.33,0.21
		C160.65,73.2,160.59,73.26,160.52,73.31z" />
		<path class="gbr_st2" d="M146.65,124.26c0.11-0.09,0.16-0.36,0.33-0.2c0.13,0.12,0.02,0.3-0.16,0.37
		C146.76,124.39,146.7,124.33,146.65,124.26z" />
		<path class="gbr_st2" d="M80.87,98.77c-0.18-0.09-0.27-0.29-0.13-0.41c0.19-0.17,0.24,0.1,0.34,0.19
		C81.01,98.63,80.94,98.7,80.87,98.77z" />
		<path class="gbr_st0"
			d="M173.05,105.34c-0.04-0.23-0.11-0.46,0.24-0.51C173.52,105.14,173.23,105.22,173.05,105.34z" />
		<path class="gbr_st5" d="M73.56,41.38c0.46-1.24,0.91-1.96,2.36-1.21c1,0.52,2.25,0.54,3.38,0.81c2.68,0.65,3.63,3.78,1.78,5.81
		c-0.6,0.65-0.91,0.72-1.43-0.19c-0.8-1.41-1.79-2.72-2.82-3.97C76.03,41.66,74.7,41.78,73.56,41.38z" />
		<path class="gbr_st5" d="M33.86,79.7c0.45-0.01,0.66-0.3,0.45-0.66c-0.39-0.64,0.06-1.09,0.19-1.72c1.71,2.14,3.39,4.16,6.29,4.48
		c0.09,0.42-0.42,0.66-0.45,1.12c0.39,0.02,0.76,0.05,1.14,0.07c-2.9,1.08-5.79,0.93-8.67-0.09C33.16,81.83,33.51,80.77,33.86,79.7z
		" />
		<path class="gbr_st8"
			d="M68.5,37.98c-0.86-0.27-1.7-0.44-2.49,0.19c-0.29,0.23-0.56,0.02-0.81-0.1c-0.66-0.3-1.34-0.45-2.07-0.42
		c-1.08,0.03-1.31-0.37-0.9-1.45c0.97-2.56,3.82-3.13,5.94-1.16c0.71,0.66,1.36,1.39,2.03,2.09C69.63,37.4,69.06,37.69,68.5,37.98z" />
		<path class="gbr_st9" d="M33.86,79.7c-0.35,1.07-0.7,2.14-1.05,3.2c-0.72-0.23-1.38-0.56-1.95-1.05c-0.86-0.74-1.34-1.56-0.68-2.73
		c0.34-0.6,0.51-1.3,0.49-2.09C31.35,78.44,32.58,79.1,33.86,79.7z" />
		<path class="gbr_st5" d="M68.5,37.98c0.57-0.29,1.13-0.57,1.7-0.86c0.23,0.18,0.46,0.37,0.7,0.53c0.75,0.49,0.77,1.3,0.07,1.88
		c-0.38,0.32-0.53-0.03-0.71-0.2C69.71,38.83,69.26,38.2,68.5,37.98z" />
		<path class="gbr_st5" d="M139.08,145.63c-0.04,0.41-1.02,0.87-1.3,0.65c-0.49-0.38-0.97-0.78-1.45-1.19c-0.39-0.34-0.72-0.5-0.12-1.16
		c0.69-0.76,0.8-0.05,1.11,0.17c0.47,0.34,0.92,0.72,1.36,1.09C138.85,145.32,138.97,145.49,139.08,145.63z" />
		<path class="gbr_st5" d="M147.89,148.52c0.08,0.58-0.77,0.67-0.31,1.3c0.26,0.36-0.31,0.3-0.43,0.25c-0.52-0.21-1.06-0.21-1.6-0.24
		c-0.31-0.01-0.8,0.19-0.91-0.16c-0.12-0.38-0.07-0.91,0.12-1.25c0.13-0.24,0.6,0.04,0.92,0.08
		C146.38,148.59,147.1,148.52,147.89,148.52z" />
		<path class="gbr_st9" d="M178.11,138.68c0.82-0.17,0.33-1.05,0.94-1.01c0.81,0.06,1.65,0.25,2.4,0.56c0.25,0.1-0.48,0.54-0.23,1.04
		c0.1,0.2-0.39,0.15-0.58,0.11C179.91,139.21,179.2,138.99,178.11,138.68z" />
		<path class="gbr_st7" d="M188.94,144.23c-0.72-0.7-1.33-1.33-2.11-1.79c0.17-0.44,0.75-0.57,0.7-1.12
		C189.4,142.62,189.4,142.62,188.94,144.23z" />
		<path class="gbr_st7" d="M172.14,137.84c-0.32,1.11-1.56,0.32-2.21,0.74c-0.46,0.3-0.42-0.27-0.41-0.59c0.03-1.71,1.46-0.57,2.16-1.01
		C172.32,136.57,171.84,137.38,172.14,137.84z" />
		<path class="gbr_st7" d="M153.44,147.87c1.17-0.22,1.85-2.29,3.16-0.41c-0.04,0.28-0.39,0.3-0.61,0.45
		C154.62,148.85,154.61,148.84,153.44,147.87z" />
		<path class="gbr_st7" d="M194.21,151.21c-0.34-0.49-0.69-1.01-1.04-1.53c-0.26-0.4-0.36-0.62,0.2-1.03c0.68-0.5,0.75-0.02,1,0.3
		C195,149.75,195.65,150.57,194.21,151.21z" />
		<path class="gbr_st4" d="M129.54,136.18c-0.46-1.05-0.86-1.94-1.37-3.11c0.63,0.59,1.34-0.45,1.79,0.59
		C130.35,134.56,130.4,135.31,129.54,136.18z" />
		<path class="gbr_st7" d="M161.94,140.92c0.96-0.85,0.96-0.85,1.8,0.2C163.14,141.42,162.68,140.85,161.94,140.92z" />
		<path class="gbr_st4" d="M165.26,93.88c-1-1.09-2.17-1.86-2.75-3.2c-0.33-0.78-0.24-1.51,0.34-1.95c1.15-0.87,2.43-1.59,3.82-2.3
		C165.52,88.76,165.96,91.35,165.26,93.88z" />
		<path class="gbr_st5" d="M167.09,89.31c2.05,0.24,1.22,1.48,1.14,2.57c-0.07,0.96-0.7,0.48-1.02,0.52c-0.57,0.08-0.26-0.44-0.29-0.69
		C166.84,90.91,167.39,90.17,167.09,89.31z" />
		<path class="gbr_st5" d="M164.29,100.68c-0.18,0.16-0.36,0.32-0.54,0.48c-0.26-0.3-0.51-0.6-0.77-0.9c0.15-0.09,0.03-0.45,0.37-0.35
		C163.77,100.03,164.08,100.26,164.29,100.68z" />
		<path class="gbr_st1"
			d="M132.44,125.22c-4.54,0.26-6.98-3.72-5.73-8.12c1.39-4.9,4.58-8.12,9.5-9.47c2.41-0.66,4.84-0.56,6.7,1.37
		c1.76,1.82,1.98,4.11,1.25,6.47c-1.54,4.97-4.85,8.17-9.85,9.59C133.72,125.23,133.06,125.18,132.44,125.22z M133.11,112.38
		c-1.86,0.97-3.84,4.04-4.1,5.84c-0.5,3.37,1.68,5.2,4.95,4.22c4.38-1.31,6.89-4.33,7.98-8.65c0.3-1.18-0.58-3.03-1.61-3.54
		c-2.17-1.07-5.42-0.02-6.47,2.12c-1.26,2.58-2.77,5-4.56,7.4c0-1.01,0.16-0.9,1.32-2.54C131.66,115.75,132.3,114,133.11,112.38z" />
		<path class="gbr_st10" d="M102.06,125.13c1.88-5.67,3.74-11.25,5.6-16.83c0.21-0.64,0.62-0.89,1.39-0.96c5.19-0.5,7.48,4.21,6.09,8.41
		c-1.62,4.89-4.95,8.06-9.95,9.35C104.24,125.34,103.18,125.13,102.06,125.13z" />
		<path class="gbr_st10" d="M141.21,92.62c1.9-5.71,3.75-11.25,5.6-16.8c0.24-0.71,0.64-0.96,1.45-1.04c5.08-0.48,7.44,4.1,6.08,8.32
		c-1.59,4.94-4.97,8.12-10.01,9.48c-0.16,0.04-0.33,0.04-0.5,0.04C142.99,92.62,142.15,92.62,141.21,92.62z M144.94,89.64
		c3.18-1.19,5.15-3.28,6.46-6.05c0.75-1.59,1.13-3.24,0.15-4.9c-0.45-0.76-1.12-1.29-1.99-1.31c-0.98-0.03-0.79,0.94-0.98,1.51
		C147.38,82.39,146.21,85.89,144.94,89.64z" />
		<path class="gbr_st2" d="M133.11,112.38c-0.81,1.63-1.45,3.38-2.49,4.84c-1.16,1.65-1.32,1.54-1.32,2.54c1.79-2.41,3.3-4.83,4.56-7.4
		c1.05-2.14,4.3-3.19,6.47-2.12c1.03,0.51,1.91,2.36,1.61,3.54c-1.1,4.32-3.6,7.34-7.98,8.65c-3.27,0.98-5.44-0.85-4.95-4.22
		C129.27,116.41,131.25,113.35,133.11,112.38z" />
		<path class="gbr_st2" d="M144.94,89.64c1.27-3.76,2.43-7.26,3.64-10.75c0.2-0.57,0.01-1.53,0.98-1.51c0.87,0.02,1.54,0.55,1.99,1.31
		c0.98,1.66,0.6,3.31-0.15,4.9C150.1,86.36,148.12,88.46,144.94,89.64z" />
	</g>
</svg>