<svg version="1.1" id="Layer_1" xmlns="http://www.w3.org/2000/svg" x="0" y="0" viewBox="0 0 200 200" xml:space="preserve"><style>.usa_st1{fill:#fefefe}.usa_st2{fill:#c3362c}</style><path d="M99.6.5h.5l2.3 7.7c.7 2.2.7 2.2 3 2.3 3.4 0 6.8.6 10.2 1.1a86.6 86.6 0 0136.8 15.6 87.6 87.6 0 0126.7 31c2.8 5.3 5 10.8 6.7 16.6.2.9.6 1.3 1.7 1.3h10.3c.3 0 .7-.2 1 .2l-2.2 1.7c-1.4 1-1.5 1.6 0 2.6.8.6 1.4 1.4 2 2 .6.6.6 1.6 1.4 1.9v5c-.8.4-.9 1.3-1.2 2l-7.1 16.6c-2.2 5-4.4 9.9-5.6 15.2a86.3 86.3 0 01-32.4 47.8c-.6.4-.7.8-.5 1.4l1.6 5 6.4 21h-.7c-.4-1.2-1.6-1.6-2.5-2.3l-19.3-14.8c-.9-.6-1.5-.6-2.4-.1-1.7 1-3.6 1.6-5.5 2.3a89 89 0 01-48.4 3.7 81.5 81.5 0 01-18.6-6c-1.2-.4-1.9-.5-3 .4l-21.1 16c-.3.3-.5.4-.4.8h-.8l4-12.8 4-13.2c.3-.6.2-1-.4-1.4a99.6 99.6 0 01-19.7-20.5c-5.3-7.6-9.3-16-12-24.8-.4-1.1-.3-2.6-1.2-3.1-1-.5-2.3-.2-3.4-.2-1.5 0-2.9-.3-4-1.3-1.9-1.8-4.1-3.2-5.3-5.6 0-.3-.3-.3-.5-.3V110c.6 0 .6-.5.8-1l5-11.6 5.4-12.4c.2-.5.3-.8-.2-1.2l-1.6-1.2-8.7-6.6h1.5c3.2 0 6.5-.2 9.8 0 1.3 0 1.8-.5 2.1-1.6a85.5 85.5 0 0123.8-39.3 89.7 89.7 0 0144.5-23.3c4.4-.9 9-1.2 13.4-1.7.5 0 1 0 1.1-.6 1-3 2-6 2.7-9zm5 155l-4-3.1c-.5-.5-1-.5-1.5 0l-4 3-10.3 8c-2 1.4-3.9 3-5.8 4.5-2.6 1.8-5 3.9-7.7 5.8l-4.7 3.6c23.2 10 49 8 66.5-.1l-4.6-3.5-2.7-2.1-5-3.7c-1.1-1.2-2.6-2-3.9-3.1-4-3.2-8.2-6.2-12.3-9.3zm35.8-24.8c1 4.2 2.4 8.3 3.7 12.4l1.3 4c.9 2.8 1.5 5.7 2.7 8.5.8 3.5 2.1 6.8 3 10.3.2.6.6.4 1 .2l4.5-3.9a84.3 84.3 0 0024.4-39c.2-.7 0-.7-.6-.7H162c-.8 0-1.4-.2-2-.8-.6-.8-1.4-1.5-2.2-2.3-.6-.5-1-.6-1.4.3-.8 2-2.2 3-4.4 2.8H139c-.6 0-1.4-.1-1.1.8.7 2.5 1.6 5 2.4 7.4zm-81 0c1-2.4 1.5-5 2.4-7.4.2-.4-.1-.7-.4-1l-3-2.1c-.4-.4-.5-.3-.8.1-1 1.5-2.4 2.6-4.4 2.2-.5-.1-1 0-1.6 0H19.3c-.6 0-.7.1-.5.7a86.3 86.3 0 0024.4 39c1.4 1.4 3 2.5 4.4 3.8.6.5 1 .4 1.1-.3l1.3-4.3c.5-2 1.4-3.8 1.7-5.8 1.6-4.1 2.7-8.3 4-12.5l1.6-5.2c.7-2.4 1.6-4.8 2-7.2zm54.1-87c0 1.4.7 2.5 1 3.7l2.8 8.8.7 2.4 3 10 2 6c.2 1.1.6 1.5 1.7 1.5h49.5l1.5-.1h4.4c.7 0 .8 0 .6-.8a82 82 0 00-18.9-33c-2-2-4-4.2-6.3-6.2l-7.7-6a84.5 84.5 0 00-36.3-14c-2.2-.3-4.5-.8-6.8-.5l1.5 4.9 3.4 11 .8 2.4c1 3.3 1.8 6.7 3.1 10zM90.2 31.4l3.4-11 1.5-4.9c-2.6 0-5 .4-7.5.7A83.2 83.2 0 0022 66.8a63.5 63.5 0 00-3.1 8.5c-.2.6 0 .7.5.7h56.1c.8 0 1-.3 1.2-.9l2-6.5L82.4 56c1-2.8 1.8-5.8 2.7-8.7.4-1.2 1-2.3 1-3.6 1.6-4 2.7-8.3 4-12.5zm79.3 87h10.3c.8 0 1.4-.3 1.9-1 1.5-1.8 2-4.1 3-6.3a3127 3127 0 009.7-22.3c.7-1.7 1.6-3.3 1.4-5.3-.3-2.8-2.4-5.2-5.3-5.1h-39.2c-4.1 1-7.5 3.2-9.9 6.7-2 2.8-2.8 6-4.2 9.1-2 4.4-3.8 8.8-5.6 13.2-1.3 3.1-2.8 6.2-4 9.3-.4 1.4-.2 1.7 1.2 1.7h19.7c2.8 0 3.4-1.2 4.3-3l5.6-13.2 4.6-10.9c.7-1.8 1.4-3.7 3.1-4.8 1-.7 2.6-1 3.2-.4.8.7.8 1.6.5 2.4a164 164 0 01-3.4 8c-.6 1.4-1.7 2.6-3.5 2.7-.4 0-.5.4-.6.6l-2.7 6.3c-.2.4-.2.7.2 1 1 1 1.2 2.1.6 3.4-.9 2-1.8 4-2.5 6-.4 1.4-.1 1.8 1.3 1.8h10.3zm-141 0H51c1 0 1.5-.3 2-1 1-1 1.3-2.1 1.7-3.2l5.2-11.7 5.8-13.7c1.2-2.9 2.6-5.7 3.6-8.7.5-1.2 0-1.7-1.2-1.7H47.6c-.7 0-1.2.2-1.7.6-1.7 1.4-2 3.5-2.9 5.3L37.1 98l-4.3 10c-1 2.5-1.1 2.5-3.7 2.7-2 .1-2.4-1.5-1.8-2.9l2.4-5.6L39 80.5c.6-1.3.3-2.3-1.4-2.3H17.4c-1.2 0-2 .4-2.5 1.4-1.9 3.6-3.2 7.4-4.9 11a572 572 0 00-6.6 15.5c-1 2.3-2.3 4.5-2.2 7.2.1 2.2 2.7 5 5 5h22.4zm78.6-40H90.2c-3-.1-5.8.4-8.3 2.1-2.7 1.9-5 4-6.1 7.1l-3.2 7.3-3.5 8.4c-.5 1.4-.1 1.9 1.4 1.9H94c2.7-.1 4.3.6 2.7 4-1.2 2.4-2.1 4.9-3 7.3-.6 1.4-.2 1.9 1.1 1.9h19.8c2 0 3-.7 3.7-2.4l4.4-10c1.8-4.5-.9-8.7-5.9-8.5H99.2c-1.6 0-2.5-1.3-1.9-2.8.8-2 1.5-4 2.4-5.8a5.4 5.4 0 013.1-2.9c1-.3 1.8-.2 2.4.4.6.6.5 1.4.2 2.3-.5 1.6-1.4 3-1.8 4.7-.4 1.4-.1 1.9 1.3 1.9h19.9c1.6 0 2.6-.7 3.3-2l2-4.7c.7-1.6 1.5-3.2 1.3-5-.2-2.9-2.3-5.3-5.2-5.2h-19.1zm-32.4 40H85c1 0 1.8-.5 2.4-1.4 1.4-2.3 2.3-5 3.4-7.5.6-1.5.2-2-1.5-2l-19.7-.1c-1.7 0-2.7.8-3.3 2-1.2 2.4-2 4.8-3 7.2-.6 1.4-.3 1.8 1 1.8h10.3z" fill="#24267c"/><path class="usa_st1" d="M169.5 118.3h-10.3c-1.4 0-1.7-.5-1.3-1.9.7-2 1.6-4 2.5-6 .6-1.3.4-2.4-.6-3.4-.3-.3-.3-.6-.2-1 1-2 1.8-4.2 2.7-6.3.1-.2.2-.5.6-.6 1.8-.1 2.9-1.3 3.5-2.7a164 164 0 003.4-8c.3-.8.3-1.7-.5-2.3-.6-.6-2.1-.4-3.2.3-1.7 1.1-2.4 3-3.1 4.8l-4.6 10.9-5.6 13.2c-.9 1.8-1.5 3-4.3 3h-19.7c-1.4 0-1.6-.3-1.1-1.6 1-3.2 2.6-6.3 3.9-9.4 1.8-4.4 3.6-8.8 5.6-13.1 1.4-3.1 2.3-6.4 4.2-9.2 2.4-3.5 5.8-5.7 10-6.7h39.1c2.9 0 5 2.3 5.3 5.1.2 2-.7 3.6-1.4 5.3-3.2 7.5-6.4 15-9.7 22.3-1 2.2-1.5 4.5-3 6.3-.5.7-1 1-2 1h-10.2zM28.6 118.3H6.2c-2.3 0-4.9-2.8-5-5-.1-2.7 1.2-4.9 2.2-7.2C5.5 101 7.7 95.8 10 90.6c1.6-3.6 3-7.4 4.9-11 .5-1 1.3-1.3 2.5-1.3h20.2c1.7-.1 2 1 1.4 2.2l-9.3 21.6-2.4 5.6c-.6 1.4-.2 3 1.8 2.9 2.6-.2 2.7-.2 3.7-2.7l4.3-10c2-4.5 3.9-9.2 6-13.7.8-1.8 1.1-3.9 2.8-5.2.5-.5 1-.7 1.7-.7h20.5c1.3 0 1.7.5 1.2 1.7-1 3-2.4 5.8-3.6 8.7L60 102.4l-5.2 11.7c-.4 1.1-.8 2.3-1.6 3.2-.6.7-1.2 1-2 1H28.5zM107 78.3h19.2c2.9 0 5 2.3 5.3 5.1.1 1.9-.7 3.5-1.3 5.1a53 53 0 01-2.1 4.6c-.7 1.4-1.7 2-3.3 2h-19.9c-1.4 0-1.7-.4-1.3-1.9.4-1.6 1.3-3 1.8-4.7.3-.8.4-1.7-.2-2.2-.6-.6-1.5-.7-2.4-.4a5.4 5.4 0 00-3 2.9c-1 1.9-1.7 3.8-2.5 5.8-.6 1.5.3 2.8 2 2.8h17.6c5-.2 7.6 4 5.8 8.5-1.3 3.4-3 6.7-4.4 10-.7 1.6-1.8 2.4-3.7 2.4H94.8c-1.3 0-1.7-.5-1.2-1.9l3-7.3c1.7-3.4.1-4.1-2.5-4H70.5c-1.5 0-2-.5-1.4-1.9a326 326 0 013.5-8.4l3.2-7.3a15 15 0 016.1-7c2.5-1.8 5.3-2.3 8.3-2.3h16.9zM82.5 56.2l-3.8 12.4H27.2c-.2 0-.5-.1-.6.2-.8 2.4-2 4.7-2.5 7.2h-4.6c-.5 0-.7-.1-.5-.7.8-3 1.9-5.7 3-8.5a83.8 83.8 0 0165.6-50.7c2.4-.3 4.9-.7 7.5-.7l-1.5 5c-1.7.4-3.4.5-5.1.7A80.7 80.7 0 0062 29.8L59.6 31v.2h30.4c-1.2 4.2-2.3 8.4-3.9 12.5H44.1c-.6 0-1 .1-1.4.5-2.5 2.6-4.7 5.5-6.9 8.3L33.4 56h49zM106.1 20.4c-.4-1.6-1-3.2-1.4-5 2.3-.1 4.5.3 6.8.6a80.4 80.4 0 0122.5 6.4A85.2 85.2 0 01155.4 36c2.3 2 4.3 4.1 6.4 6.2a82.7 82.7 0 0118.9 33c.2.8 0 .8-.6.8h-4.5c-.4-2.3-1.5-4.3-2.2-6.5-.3-.8-.7-1-1.5-1H121l-3-10-.7-2.3h49l-1-1.5c-2-3-4.3-5.9-6.7-8.7-1.1-1.3-2.3-2.4-4.5-2.3h-40.6c-1.3-3.2-2-6.6-3.2-9.9l-.7-2.5H140l-2.6-1.7a76.2 76.2 0 00-26-8.5l-5.3-.7zM51.7 155.6c-.3 2-1.2 3.9-1.7 5.8l-1.3 4.3c-.2.7-.5.8-1 .3-1.6-1.3-3.1-2.4-4.5-3.8a87.1 87.1 0 01-24.4-39c-.2-.6-.1-.8.5-.7h4.6c.6 2.6 1.6 5 2.6 7.5.2.6.5.7 1 .7h31.9c-.5 2.4-1.4 4.8-2.1 7.1l-1.7 5.3H33.3l1.7 2.3c1.8 2.8 4 5.3 6.2 7.9 1.1 1.4 2.4 2.5 4.5 2.3 2-.3 4 0 6 0zM144.1 143c-1.3-4-2.6-8.1-3.7-12.3H172c.7 0 1.1-.2 1.4-.9.9-2.4 2-4.8 2.5-7.3h4.4c.7 0 .9 0 .6.8a81 81 0 01-16.2 30.3c-2.5 3.1-5.3 5.8-8.1 8.6-1.4 1.4-3 2.6-4.6 3.9-.3.2-.7.4-.9-.2-1-3.5-2.2-6.8-3-10.4h7.4c.6 0 1-.2 1.5-.6a81 81 0 006.9-8.3c.8-1 1.8-2.1 2.3-3.5h-22z"/><path class="usa_st2" d="M82.5 56.2h-49l2.3-3.6c2.3-2.8 4.4-5.7 7-8.3.4-.4.7-.6 1.3-.6a28995.4 28995.4 0 0042.1 0c0 1.4-.6 2.5-1 3.7-.9 3-1.6 6-2.8 8.8zM113.5 43.8h14.7l26-.1c2.1 0 3.3 1 4.4 2.3 2.4 2.8 4.7 5.6 6.7 8.7l1 1.4h-49l-2.8-8.7c-.3-1.2-1-2.3-1-3.6zM71.3 173.7c2.6-2 5-4 7.7-5.8h41.7l5 3.7c1 .6 1.8 1.4 2.7 2-2.5 1.3-5.3 2-8 2.7a76 76 0 01-24.6 2.6c-3.5-.3-7.1-.6-10.6-1.3a65 65 0 01-13.9-4zM24.1 76c.5-2.5 1.7-4.8 2.5-7.2.1-.3.4-.2.6-.2h51.5l-2 6.5c-.1.6-.4 1-1.1 1H24.4L24 76zM121 68.6h51c.7 0 1.1.1 1.4.9.8 2.2 1.8 4.2 2.2 6.5h-50.9c-1.1 0-1.5-.3-1.8-1.3-.5-2.1-1.2-4.1-1.9-6.1z"/><path class="usa_st1" d="M120.7 167.9H79l5.8-4.6 10.3-7.8h9.5l12.3 9.3c1.3 1 2.7 1.8 3.8 3zM71.3 173.7c4.5 1.9 9.1 3 13.9 4a70.7 70.7 0 0022 1c4.4-.4 8.8-1.2 13.1-2.4 2.8-.7 5.6-1.3 8.1-2.6l4.7 3.5a84.2 84.2 0 01-66.5 0l4.7-3.5z"/><path class="usa_st2" d="M175.9 122.5c-.6 2.5-1.6 4.9-2.5 7.3-.3.7-.7.9-1.4.9h-31.6l-2.5-7.4c-.2-.9.6-.8 1.2-.8H152c2.2.3 3.5-.9 4.4-2.8.4-.9.8-.8 1.4-.3l2.3 2.3c.5.6 1.1.8 2 .8h13.8zM59.4 130.7H27.5c-.5 0-.8 0-1-.7-1-2.5-2-5-2.6-7.5h27.7c.6 0 1.1-.1 1.6 0 2 .4 3.3-.7 4.4-2.2.3-.4.4-.5.9-.1l2.9 2.2c.3.2.6.5.4 1-1 2.3-1.3 5-2.4 7.3z"/><path class="usa_st1" d="M74.7 118.3H64.5c-1.4 0-1.7-.4-1.1-1.8 1-2.4 1.8-4.8 3-7.1.6-1.3 1.6-2.1 3.3-2.1h19.7c1.7 0 2.1.6 1.5 2-1.1 2.6-2 5.3-3.4 7.6-.6 1-1.3 1.4-2.4 1.4H74.7z"/><path class="usa_st2" d="M90.2 31.3H59.8v-.2a80.7 80.7 0 0128.7-10c1.7-.3 3.4-.3 5.1-.7l-3.4 11zM106.1 20.4l5.3.7A76.5 76.5 0 01140 31.3h-30.4l-3.5-11zM51.7 155.6c-2 0-4-.3-6 0-2.1.3-3.4-.9-4.5-2.3-2.1-2.6-4.4-5-6.2-7.8l-1.7-2.4h22.3c-1.3 4.2-2.4 8.4-4 12.5zM144.1 143h22.1c-.5 1.5-1.5 2.6-2.3 3.7a81 81 0 01-6.9 8.2c-.4.4-.9.6-1.5.6h-7.4c-1.2-2.7-1.8-5.6-2.8-8.3l-1.2-4.1zM104.6 155.5h-9.4l4-3.1c.5-.5.9-.5 1.4 0l4 3z"/></svg>