<?xml version="1.0" encoding="utf-8"?>
<!-- Generator: Adobe Illuusa_strator 24.1.0, SVG Export Plug-In . SVG Version: 6.00 Build 0)  -->
<svg version="1.1" id="Layer_1" xmlns="http://www.w3.org/2000/svg" xmlns:xlink="http://www.w3.org/1999/xlink" x="0px"
	y="0px" viewBox="0 0 200 200" usa_style="enable-background:new 0 0 200 200;" xml:space="preserve">
	<style type="text/css">
		.usa_st0 {
			fill: #24267C;
		}

		.usa_st1 {
			fill: #FEFEFE;
		}

		.usa_st2 {
			fill: #C3362C;
		}
	</style>
	<g>
		<path class="usa_st0" d="M99.63,0.52c0.17,0,0.33,0,0.5,0c0.75,2.56,1.48,5.12,2.26,7.67c0.67,2.16,0.7,2.17,2.98,2.26
		c3.45,0.13,6.85,0.63,10.26,1.2c8.08,1.36,15.75,3.92,23.12,7.45c4.79,2.3,9.3,5.07,13.64,8.14c3.91,2.77,7.47,5.94,10.86,9.29
		c2.04,2.01,3.97,4.16,5.79,6.4c3.86,4.78,7.26,9.85,10.11,15.28c2.78,5.29,5.01,10.81,6.64,16.56c0.26,0.92,0.62,1.31,1.67,1.29
		c3.43-0.09,6.87-0.04,10.3-0.02c0.34,0,0.73-0.17,1.06,0.22c-0.76,0.59-1.49,1.18-2.24,1.73c-1.41,1.03-1.44,1.62,0.01,2.65
		c0.82,0.58,1.41,1.35,2.1,2.05c0.54,0.55,0.48,1.49,1.31,1.78c0,1.66,0,3.31,0,4.97c-0.82,0.41-0.89,1.31-1.2,2.01
		c-2.41,5.53-4.75,11.1-7.14,16.64c-2.14,4.97-4.35,9.88-5.6,15.2c-1.88,8.02-5.32,15.46-9.56,22.49c-4.08,6.78-9,12.92-14.78,18.37
		c-2.58,2.43-5.22,4.77-8.04,6.91c-0.58,0.44-0.69,0.79-0.47,1.44c0.55,1.63,1.05,3.28,1.56,4.93c2.16,7.02,4.32,14.03,6.48,21.05
		c-0.25,0-0.5,0-0.75,0c-0.4-1.19-1.6-1.59-2.46-2.25c-6.42-4.98-12.93-9.84-19.36-14.79c-0.85-0.65-1.49-0.65-2.34-0.19
		c-1.78,0.96-3.68,1.65-5.57,2.33c-7.25,2.59-14.69,4.35-22.39,5.01c-4.65,0.4-9.27,0.57-13.93,0.25
		c-4.06-0.28-8.08-0.76-12.07-1.54c-6.43-1.26-12.66-3.16-18.61-5.91c-1.12-0.52-1.85-0.57-2.96,0.29
		c-6.99,5.44-14.08,10.75-21.14,16.11c-0.23,0.17-0.48,0.34-0.39,0.7c-0.25,0-0.5,0-0.75,0c1.33-4.27,2.66-8.54,3.98-12.81
		c1.36-4.39,2.69-8.79,4.07-13.18c0.2-0.65,0.09-0.99-0.48-1.44c-3.8-2.94-7.39-6.13-10.74-9.6c-3.26-3.39-6.27-6.98-8.94-10.83
		c-5.31-7.65-9.32-15.95-12.08-24.85c-0.34-1.08-0.21-2.61-1.15-3.12c-0.91-0.49-2.26-0.21-3.41-0.17
		c-1.51,0.05-2.86-0.27-3.99-1.32c-1.89-1.74-4.12-3.16-5.26-5.61c-0.1-0.23-0.29-0.27-0.5-0.29c0-1.74,0-3.48,0-5.22
		c0.54-0.03,0.59-0.49,0.74-0.86c1.67-3.89,3.34-7.78,5.01-11.67c1.79-4.15,3.58-8.3,5.39-12.44c0.2-0.45,0.32-0.83-0.17-1.18
		c-0.54-0.38-1.05-0.79-1.57-1.19c-2.83-2.15-5.65-4.3-8.7-6.62c0.66-0.03,1.06-0.07,1.45-0.07c3.27,0,6.54-0.08,9.81,0.04
		c1.3,0.05,1.79-0.42,2.11-1.58c2.4-8.54,6.13-16.48,10.99-23.88c3.69-5.61,7.98-10.73,12.83-15.4c3.81-3.67,7.88-6.98,12.26-9.92
		c4.17-2.8,8.55-5.23,13.16-7.28c6.15-2.73,12.5-4.75,19.08-6.09c4.43-0.91,8.93-1.26,13.42-1.71c0.47-0.05,0.88-0.04,1.06-0.62
		C97.85,6.58,98.87,3.59,99.63,0.52z M104.6,155.47c-1.32-1.02-2.67-2.02-3.96-3.07c-0.55-0.45-0.96-0.45-1.51,0
		c-1.3,1.06-2.64,2.05-3.96,3.07c-3.47,2.61-6.95,5.21-10.39,7.85c-1.94,1.49-3.84,3.05-5.75,4.57c-2.68,1.78-5.12,3.88-7.7,5.8
		c-1.56,1.18-3.13,2.36-4.72,3.57c23.23,10.08,48.97,8,66.5-0.08c-1.56-1.17-3.1-2.33-4.64-3.49c-0.9-0.71-1.78-1.43-2.7-2.11
		c-1.66-1.24-3.33-2.46-5-3.68c-1.11-1.24-2.55-2.09-3.84-3.1C112.85,161.61,108.7,158.57,104.6,155.47z M140.36,130.71
		c1.11,4.17,2.46,8.27,3.77,12.38c0.4,1.35,0.76,2.72,1.22,4.06c0.95,2.79,1.58,5.68,2.72,8.4c0.79,3.52,2.13,6.89,3.08,10.36
		c0.17,0.63,0.59,0.38,0.87,0.16c1.55-1.26,3.16-2.45,4.57-3.85c2.81-2.77,5.64-5.51,8.17-8.57c3.48-4.22,6.59-8.67,9.19-13.47
		c2.92-5.38,5.37-10.96,7.01-16.88c0.21-0.77,0.04-0.85-0.6-0.83c-1.49,0.03-2.98,0.03-4.47,0.05c-4.63-0.01-9.25-0.04-13.88-0.03
		c-0.8,0-1.41-0.17-1.95-0.79c-0.71-0.8-1.5-1.54-2.28-2.28c-0.6-0.57-1.03-0.61-1.42,0.31c-0.81,1.9-2.15,3.04-4.41,2.76
		c-0.94-0.12-1.9-0.02-2.85-0.02c-3.35,0-6.69,0-10.04,0c-0.57,0-1.38-0.07-1.11,0.83C138.7,125.8,139.55,128.25,140.36,130.71z
		 M59.39,130.71c1.07-2.38,1.49-4.97,2.44-7.39c0.16-0.42-0.14-0.71-0.44-0.94c-0.97-0.74-1.98-1.44-2.92-2.22
		c-0.45-0.38-0.54-0.29-0.87,0.17c-1.05,1.46-2.35,2.53-4.36,2.16c-0.52-0.1-1.07-0.02-1.61-0.01c-9.25,0.01-18.51,0.03-27.76,0.04
		c-1.53-0.01-3.06-0.02-4.59-0.05c-0.57-0.01-0.7,0.16-0.53,0.73c2.36,8.03,5.87,15.54,10.41,22.57
		c3.94,6.11,8.74,11.49,14.01,16.46c1.42,1.34,2.99,2.51,4.48,3.77c0.54,0.46,0.86,0.36,1.06-0.31c0.41-1.42,0.84-2.84,1.26-4.26
		c0.57-1.96,1.43-3.83,1.73-5.87c1.55-4.08,2.66-8.3,3.93-12.46c0.56-1.75,1.15-3.49,1.67-5.25
		C57.99,135.47,58.87,133.14,59.39,130.71z M113.54,43.78c0.01,1.3,0.65,2.44,1.01,3.64c0.87,2.93,1.83,5.83,2.76,8.74
		c0.23,0.8,0.45,1.6,0.69,2.4c1.01,3.34,2.02,6.68,3.04,10.02c0.64,2.02,1.39,4.01,1.89,6.06c0.26,1.08,0.65,1.42,1.76,1.41
		c16.49-0.04,32.98-0.02,49.47-0.03c0.5,0,0.99-0.03,1.49-0.04c1.49,0.01,2.98,0.02,4.47,0.05c0.65,0.01,0.82-0.07,0.61-0.84
		c-1-3.69-2.45-7.21-4.03-10.68c-2.11-4.62-4.6-9.03-7.53-13.19c-2.25-3.19-4.63-6.28-7.34-9.08c-2.06-2.13-4.11-4.27-6.38-6.2
		c-2.47-2.11-5-4.12-7.66-5.97c-4.34-3.02-8.96-5.53-13.78-7.69c-4.18-1.87-8.5-3.35-12.93-4.5c-3.16-0.82-6.36-1.48-9.58-1.92
		c-2.23-0.3-4.48-0.71-6.79-0.5c0.5,1.69,0.97,3.31,1.45,4.93c1.16,3.64,2.32,7.29,3.48,10.93c0.23,0.84,0.43,1.68,0.71,2.5
		C111.45,37.12,112.21,40.54,113.54,43.78z M90.15,31.32c1.16-3.64,2.32-7.29,3.48-10.93c0.48-1.64,0.96-3.27,1.46-4.97
		c-2.59-0.02-5.03,0.38-7.5,0.71c-4.48,0.61-8.85,1.65-13.16,2.97c-5.64,1.72-10.95,4.17-16.09,7.01
		c-5.47,3.03-10.49,6.7-15.11,10.88c-2.4,2.18-4.69,4.51-6.83,6.97c-2.35,2.7-4.52,5.52-6.54,8.45c-3.11,4.52-5.64,9.37-7.81,14.4
		c-1.19,2.76-2.26,5.57-3.05,8.48c-0.16,0.58-0.03,0.74,0.54,0.73c1.53-0.03,3.06-0.03,4.59-0.05c0.08,0.01,0.16,0.03,0.25,0.03
		c17.07,0,34.14,0,51.2,0.04c0.77,0,1-0.35,1.17-0.93c0.66-2.18,1.32-4.36,1.98-6.55c1.24-4.14,2.48-8.28,3.73-12.42
		c1.11-2.85,1.87-5.81,2.76-8.74c0.36-1.2,1-2.34,1.01-3.64C87.79,39.71,88.9,35.49,90.15,31.32z M169.47,118.25
		c3.44,0,6.87-0.02,10.31,0.01c0.84,0.01,1.4-0.29,1.92-0.94c1.49-1.87,2.07-4.16,3-6.28c3.25-7.43,6.47-14.86,9.66-22.31
		c0.73-1.69,1.6-3.34,1.42-5.32c-0.25-2.8-2.38-5.16-5.24-5.15c-12.75,0.03-25.5,0.01-38.24,0.01c-0.33,0-0.68-0.06-0.99,0.02
		c-4.12,1.01-7.5,3.22-9.91,6.69c-1.93,2.78-2.82,6.11-4.22,9.17c-1.98,4.34-3.77,8.77-5.62,13.17c-1.3,3.11-2.78,6.14-3.89,9.33
		c-0.46,1.31-0.23,1.61,1.14,1.61c6.58,0,13.16-0.09,19.74,0.04c2.77,0.06,3.4-1.21,4.21-3.04c1.92-4.37,3.76-8.77,5.63-13.17
		c1.54-3.62,3.04-7.25,4.59-10.86c0.77-1.8,1.4-3.69,3.17-4.86c1.03-0.68,2.51-0.9,3.19-0.32c0.76,0.65,0.78,1.56,0.46,2.37
		c-1.07,2.68-2.17,5.35-3.38,7.97c-0.66,1.44-1.74,2.58-3.47,2.72c-0.47,0.04-0.54,0.34-0.65,0.6c-0.9,2.1-1.76,4.22-2.67,6.32
		c-0.18,0.41-0.18,0.67,0.16,0.97c1.05,0.95,1.24,2.13,0.65,3.44c-0.89,1.97-1.81,3.94-2.5,5.99c-0.45,1.36-0.14,1.82,1.22,1.82
		C162.6,118.25,166.03,118.25,169.47,118.25z M28.56,118.25c7.49,0,14.98-0.01,22.47,0.01c0.88,0,1.45-0.3,2.04-0.97
		c0.84-0.95,1.19-2.09,1.67-3.19c1.71-3.89,3.44-7.78,5.13-11.69c1.97-4.57,3.92-9.14,5.85-13.73c1.21-2.88,2.6-5.69,3.61-8.66
		c0.43-1.24,0.06-1.77-1.2-1.77c-6.83,0-13.66,0-20.49-0.01c-0.7,0-1.22,0.26-1.75,0.7c-1.67,1.38-2.02,3.47-2.85,5.27
		c-2.07,4.52-3.95,9.13-5.91,13.7c-1.43,3.32-2.93,6.6-4.29,9.95c-1.01,2.5-1.16,2.56-3.74,2.72c-2,0.13-2.36-1.52-1.79-2.87
		c0.8-1.88,1.61-3.77,2.42-5.65c3.1-7.19,6.19-14.37,9.3-21.55c0.56-1.3,0.23-2.33-1.43-2.3c-6.74,0.1-13.49,0.05-20.24,0.03
		c-1.14,0-1.93,0.35-2.48,1.39c-1.87,3.56-3.23,7.34-4.88,10.99c-2.31,5.12-4.47,10.3-6.63,15.49c-0.96,2.32-2.31,4.5-2.15,7.22
		c0.12,2.15,2.64,4.98,4.99,4.95C13.66,118.19,21.11,118.25,28.56,118.25z M107.09,78.26c-5.63,0-11.26,0.08-16.88-0.03
		c-3.02-0.06-5.78,0.48-8.29,2.2c-2.68,1.83-5,3.9-6.17,7.08c-0.92,2.48-2.12,4.85-3.16,7.29c-1.19,2.8-2.38,5.61-3.5,8.44
		c-0.53,1.33-0.1,1.84,1.36,1.84c7.86,0,15.73,0.08,23.59-0.04c2.67-0.04,4.25,0.68,2.63,4.07c-1.14,2.38-2.09,4.86-3.05,7.33
		c-0.52,1.33-0.15,1.81,1.21,1.81c6.58,0,13.16-0.07,19.74,0.05c1.94,0.04,3-0.75,3.71-2.39c1.46-3.35,3.06-6.64,4.4-10.03
		c1.77-4.47-0.85-8.69-5.84-8.53c-5.87,0.19-11.75,0.05-17.63,0.04c-1.62,0-2.49-1.31-1.88-2.81c0.79-1.93,1.49-3.9,2.38-5.78
		c0.62-1.32,1.65-2.32,3.1-2.86c0.91-0.34,1.76-0.28,2.36,0.32c0.59,0.59,0.51,1.44,0.23,2.29c-0.52,1.61-1.42,3.05-1.84,4.7
		c-0.36,1.42-0.08,1.91,1.35,1.91c6.62,0,13.24-0.02,19.86,0.02c1.59,0.01,2.64-0.72,3.3-2.04c0.75-1.51,1.46-3.04,2.07-4.62
		c0.63-1.64,1.47-3.22,1.3-5.11c-0.25-2.8-2.38-5.17-5.24-5.15C119.83,78.29,113.46,78.26,107.09,78.26z M74.66,118.25
		c3.47,0,6.95-0.02,10.42,0.01c1.09,0.01,1.83-0.42,2.39-1.32c1.47-2.36,2.31-5.02,3.41-7.55c0.66-1.53,0.21-2.07-1.46-2.07
		c-6.57,0-13.15,0.05-19.72-0.03c-1.67-0.02-2.71,0.83-3.32,2.06c-1.15,2.33-2.07,4.77-3.02,7.19c-0.54,1.39-0.28,1.71,1.12,1.71
		C67.88,118.26,71.27,118.25,74.66,118.25z" />
		<path class="usa_st1" d="M169.47,118.25c-3.44,0-6.87,0-10.31,0c-1.36,0-1.67-0.46-1.22-1.82c0.68-2.06,1.61-4.02,2.5-5.99
		c0.59-1.31,0.41-2.49-0.65-3.44c-0.33-0.3-0.33-0.56-0.16-0.97c0.91-2.1,1.77-4.22,2.67-6.32c0.11-0.26,0.18-0.56,0.65-0.6
		c1.73-0.14,2.81-1.27,3.47-2.72c1.21-2.62,2.31-5.29,3.38-7.97c0.32-0.81,0.3-1.72-0.46-2.37c-0.68-0.58-2.16-0.36-3.19,0.32
		c-1.77,1.17-2.4,3.06-3.17,4.86c-1.55,3.61-3.06,7.24-4.59,10.86c-1.86,4.39-3.7,8.8-5.63,13.17c-0.81,1.83-1.44,3.1-4.21,3.04
		c-6.58-0.14-13.16-0.04-19.74-0.04c-1.37,0-1.6-0.3-1.14-1.61c1.11-3.19,2.59-6.22,3.89-9.33c1.85-4.4,3.64-8.83,5.62-13.17
		c1.39-3.07,2.29-6.39,4.22-9.17c2.41-3.47,5.79-5.68,9.91-6.69c0.31-0.08,0.66-0.02,0.99-0.02c12.75,0,25.5,0.02,38.24-0.01
		c2.86-0.01,4.99,2.36,5.24,5.15c0.18,1.98-0.69,3.63-1.42,5.32c-3.19,7.45-6.41,14.89-9.66,22.31c-0.93,2.12-1.5,4.42-3,6.28
		c-0.53,0.66-1.08,0.95-1.92,0.94C176.34,118.23,172.9,118.25,169.47,118.25z" />
		<path class="usa_st1" d="M28.56,118.25c-7.45,0-14.9-0.06-22.35,0.04c-2.34,0.03-4.87-2.8-4.99-4.95c-0.15-2.72,1.19-4.9,2.15-7.22
		c2.15-5.19,4.31-10.37,6.63-15.49c1.65-3.65,3.01-7.44,4.88-10.99c0.55-1.04,1.34-1.39,2.48-1.39c6.75,0.03,13.49,0.07,20.24-0.03
		c1.66-0.02,1.99,1.01,1.43,2.3c-3.11,7.18-6.2,14.37-9.3,21.55c-0.81,1.88-1.61,3.76-2.42,5.65c-0.57,1.35-0.21,2.99,1.79,2.87
		c2.58-0.16,2.72-0.23,3.74-2.72c1.36-3.35,2.86-6.63,4.29-9.95c1.97-4.57,3.85-9.18,5.91-13.7c0.82-1.8,1.18-3.89,2.85-5.27
		c0.53-0.44,1.04-0.7,1.75-0.7c6.83,0.02,13.66,0.01,20.49,0.01c1.26,0,1.63,0.52,1.2,1.77c-1.01,2.96-2.4,5.78-3.61,8.66
		c-1.93,4.59-3.88,9.16-5.85,13.73c-1.69,3.91-3.41,7.79-5.13,11.69c-0.48,1.1-0.83,2.24-1.67,3.19c-0.59,0.67-1.16,0.97-2.04,0.97
		C43.54,118.24,36.05,118.25,28.56,118.25z" />
		<path class="usa_st1" d="M107.09,78.26c6.37,0,12.75,0.03,19.12-0.01c2.86-0.02,4.98,2.35,5.24,5.15c0.17,1.89-0.67,3.47-1.3,5.11
		c-0.6,1.57-1.32,3.11-2.07,4.62c-0.66,1.33-1.71,2.05-3.3,2.04c-6.62-0.04-13.24-0.02-19.86-0.02c-1.43,0-1.71-0.49-1.35-1.91
		c0.42-1.65,1.32-3.09,1.84-4.7c0.27-0.85,0.36-1.71-0.23-2.29c-0.6-0.6-1.45-0.66-2.36-0.32c-1.45,0.54-2.48,1.54-3.1,2.86
		c-0.89,1.88-1.6,3.85-2.38,5.78c-0.61,1.5,0.26,2.81,1.88,2.81c5.88,0,11.76,0.14,17.63-0.04c5-0.16,7.61,4.06,5.84,8.53
		c-1.34,3.39-2.94,6.68-4.4,10.03c-0.72,1.64-1.77,2.42-3.71,2.39c-6.58-0.12-13.16-0.04-19.74-0.05c-1.36,0-1.73-0.48-1.21-1.81
		c0.96-2.46,1.91-4.94,3.05-7.33c1.62-3.39,0.04-4.11-2.63-4.07c-7.86,0.12-15.72,0.05-23.59,0.04c-1.46,0-1.88-0.51-1.36-1.84
		c1.12-2.83,2.3-5.64,3.5-8.44c1.04-2.44,2.24-4.81,3.16-7.29c1.18-3.18,3.5-5.25,6.17-7.08c2.51-1.72,5.27-2.26,8.29-2.2
		C95.83,78.35,101.46,78.26,107.09,78.26z" />
		<path class="usa_st1" d="M82.45,56.16c-1.24,4.14-2.48,8.28-3.73,12.42c-16.67,0-33.34,0-50.01,0c-0.5,0-0.99-0.01-1.49,0.01
		c-0.22,0.01-0.49-0.09-0.61,0.25c-0.84,2.38-2,4.65-2.5,7.16C22.59,76,21.06,76,19.53,76.03c-0.57,0.01-0.7-0.15-0.54-0.73
		c0.79-2.91,1.86-5.72,3.05-8.48c2.17-5.03,4.7-9.88,7.81-14.4c2.02-2.94,4.19-5.76,6.54-8.45c2.15-2.46,4.43-4.79,6.83-6.97
		c4.62-4.18,9.64-7.86,15.11-10.88c5.14-2.85,10.46-5.29,16.09-7.01c4.32-1.32,8.68-2.36,13.16-2.97c2.46-0.33,4.91-0.73,7.5-0.71
		c-0.5,1.7-0.98,3.33-1.46,4.97c-1.7,0.42-3.45,0.45-5.17,0.7c-4.44,0.67-8.78,1.67-13.07,2.98c-4.64,1.43-9.03,3.45-13.33,5.68
		c-0.8,0.41-1.56,0.89-2.34,1.34c0.02,0.07,0.05,0.15,0.07,0.22c10.12,0,20.23,0,30.35,0c-1.25,4.17-2.35,8.39-3.93,12.46
		c-0.12-0.01-0.25-0.04-0.37-0.04c-13.9,0-27.81,0-41.71-0.02c-0.6,0-0.99,0.22-1.39,0.62c-2.54,2.55-4.7,5.42-6.91,8.24
		c-0.85,1.08-1.54,2.29-2.4,3.57C49.92,56.16,66.19,56.16,82.45,56.16z" />
		<path class="usa_st1" d="M106.13,20.39c-0.48-1.62-0.95-3.23-1.45-4.93c2.32-0.21,4.57,0.2,6.79,0.5c3.23,0.43,6.42,1.1,9.58,1.92
		c4.44,1.15,8.75,2.62,12.93,4.5c4.82,2.16,9.44,4.68,13.78,7.69c2.66,1.85,5.2,3.86,7.66,5.97c2.27,1.93,4.32,4.07,6.38,6.2
		c2.71,2.8,5.1,5.89,7.34,9.08c2.93,4.16,5.41,8.57,7.53,13.19c1.58,3.46,3.03,6.98,4.03,10.68c0.21,0.77,0.04,0.85-0.61,0.84
		c-1.49-0.03-2.98-0.03-4.47-0.05c-0.44-2.27-1.49-4.33-2.23-6.49c-0.27-0.79-0.71-0.94-1.5-0.94c-16.96,0.03-33.92,0.02-50.88,0.02
		c-1.01-3.34-2.03-6.68-3.04-10.02c-0.24-0.8-0.46-1.6-0.69-2.4c16.28,0,32.56,0,49.06,0c-0.44-0.63-0.73-1.05-1.02-1.47
		c-2.02-3.05-4.36-5.85-6.7-8.65c-1.15-1.38-2.33-2.42-4.51-2.37c-8.65,0.18-17.3,0.07-25.94,0.08c-4.88,0-9.76,0.03-14.65,0.04
		c-1.33-3.24-2.09-6.66-3.22-9.96c-0.28-0.82-0.48-1.67-0.71-2.5c10.13,0,20.25,0,30.38,0c-0.86-0.75-1.72-1.27-2.61-1.74
		c-5.33-2.81-10.86-5.11-16.7-6.6c-3.05-0.78-6.11-1.51-9.25-1.85C109.65,20.93,107.89,20.64,106.13,20.39z" />
		<path class="usa_st1" d="M51.69,155.55c-0.3,2.04-1.16,3.92-1.73,5.87c-0.41,1.42-0.84,2.84-1.26,4.26c-0.2,0.67-0.52,0.77-1.06,0.31
		c-1.49-1.26-3.06-2.43-4.48-3.77c-5.27-4.97-10.07-10.35-14.01-16.46c-4.53-7.04-8.04-14.54-10.41-22.57
		c-0.17-0.57-0.04-0.74,0.53-0.73c1.53,0.03,3.06,0.03,4.59,0.05c0.64,2.58,1.62,5.03,2.62,7.49c0.25,0.63,0.53,0.67,1.04,0.67
		c3.18-0.01,6.36-0.01,9.55,0c7.44,0.01,14.88,0.03,22.31,0.04c-0.52,2.43-1.39,4.75-2.1,7.13c-0.52,1.76-1.11,3.5-1.67,5.25
		c-7.34,0-14.67,0-22.26,0c0.67,0.94,1.2,1.63,1.68,2.36c1.82,2.79,4.05,5.27,6.15,7.85c1.15,1.41,2.4,2.55,4.56,2.27
		C47.69,155.31,49.7,155.54,51.69,155.55z" />
		<path class="usa_st1" d="M144.13,143.09c-1.3-4.11-2.66-8.21-3.77-12.38c0.45-0.01,0.91-0.04,1.36-0.04c10.08,0,20.17-0.01,30.25,0.02
		c0.75,0,1.15-0.16,1.42-0.89c0.88-2.41,1.92-4.77,2.49-7.29c1.49-0.01,2.98-0.02,4.47-0.05c0.65-0.01,0.82,0.07,0.6,0.83
		c-1.64,5.92-4.1,11.5-7.01,16.88c-2.6,4.8-5.71,9.25-9.19,13.47c-2.53,3.06-5.36,5.8-8.17,8.57c-1.41,1.39-3.03,2.59-4.57,3.85
		c-0.27,0.22-0.69,0.47-0.87-0.16c-0.95-3.48-2.28-6.84-3.08-10.36c2.48-0.01,4.96-0.05,7.44-0.02c0.63,0.01,1.07-0.18,1.51-0.62
		c2.53-2.56,4.73-5.4,6.89-8.26c0.82-1.09,1.78-2.14,2.3-3.56C158.77,143.09,151.45,143.09,144.13,143.09z" />
		<path class="usa_st2" d="M82.45,56.16c-16.26,0-32.52,0-49.01,0c0.85-1.28,1.55-2.49,2.4-3.57c2.22-2.82,4.38-5.69,6.91-8.24
		c0.4-0.4,0.79-0.62,1.39-0.62c13.9,0.02,27.81,0.02,41.71,0.02c0.12,0,0.25,0.02,0.37,0.04c-0.01,1.3-0.65,2.44-1.01,3.64
		C84.32,50.34,83.56,53.31,82.45,56.16z" />
		<path class="usa_st2" d="M113.54,43.78c4.88-0.01,9.76-0.04,14.65-0.04c8.65-0.01,17.3,0.11,25.94-0.08c2.18-0.05,3.36,0.99,4.51,2.37
		c2.34,2.8,4.69,5.6,6.7,8.65c0.28,0.43,0.58,0.84,1.02,1.47c-16.5,0-32.78,0-49.06,0c-0.93-2.91-1.89-5.81-2.76-8.74
		C114.19,46.22,113.55,45.08,113.54,43.78z" />
		<path class="usa_st2" d="M71.31,173.68c2.58-1.92,5.02-4.02,7.7-5.8c8.67,0.01,17.34,0.03,26,0.04c5.24,0,10.48-0.02,15.73-0.04
		c1.67,1.23,3.34,2.44,5,3.68c0.91,0.68,1.8,1.41,2.7,2.11c-2.57,1.26-5.35,1.94-8.09,2.66c-4.34,1.14-8.76,1.94-13.25,2.3
		c-3.76,0.31-7.48,0.57-11.27,0.27c-3.57-0.28-7.13-0.64-10.64-1.31C80.44,176.72,75.77,175.58,71.31,173.68z" />
		<path class="usa_st2" d="M24.12,75.99c0.5-2.5,1.66-4.77,2.5-7.16c0.12-0.34,0.38-0.24,0.61-0.25c0.5-0.02,0.99-0.01,1.49-0.01
		c16.67,0,33.34,0,50.01,0c-0.66,2.18-1.32,4.36-1.98,6.55c-0.17,0.57-0.4,0.93-1.17,0.93c-17.07-0.03-34.14-0.03-51.2-0.04
		C24.28,76.02,24.2,76,24.12,75.99z" />
		<path class="usa_st2" d="M121.03,68.58c16.96,0,33.92,0.01,50.88-0.02c0.78,0,1.22,0.15,1.5,0.94c0.75,2.16,1.79,4.22,2.23,6.49
		c-0.5,0.01-0.99,0.04-1.49,0.04c-16.49,0-32.98-0.01-49.47,0.03c-1.11,0-1.5-0.34-1.76-1.41
		C122.42,72.59,121.67,70.59,121.03,68.58z" />
		<path class="usa_st1"
			d="M120.74,167.89c-5.24,0.01-10.48,0.04-15.73,0.04c-8.67,0-17.34-0.02-26-0.04c1.92-1.53,3.81-3.08,5.75-4.57
		c3.45-2.64,6.93-5.23,10.39-7.85c3.15,0,6.29,0,9.44,0c4.11,3.1,8.26,6.14,12.3,9.32C118.19,165.8,119.63,166.65,120.74,167.89z" />
		<path class="usa_st1" d="M71.31,173.68c4.46,1.9,9.13,3.03,13.87,3.93c3.52,0.66,7.07,1.02,10.64,1.31c3.79,0.3,7.51,0.03,11.27-0.27
		c4.5-0.37,8.91-1.16,13.25-2.3c2.74-0.72,5.52-1.39,8.09-2.66c1.54,1.16,3.09,2.32,4.64,3.49c-17.53,8.08-43.26,10.17-66.5,0.08
		C68.19,176.05,69.75,174.86,71.31,173.68z" />
		<path class="usa_st2" d="M175.88,122.52c-0.58,2.52-1.61,4.88-2.49,7.29c-0.27,0.73-0.66,0.89-1.42,0.89
		c-10.08-0.03-20.17-0.02-30.25-0.02c-0.45,0-0.91,0.03-1.36,0.04c-0.81-2.47-1.67-4.92-2.41-7.4c-0.27-0.9,0.54-0.83,1.11-0.83
		c3.35-0.01,6.69,0,10.04,0c0.95,0,1.91-0.1,2.85,0.02c2.26,0.28,3.6-0.86,4.41-2.76c0.4-0.92,0.83-0.88,1.42-0.31
		c0.78,0.74,1.57,1.47,2.28,2.28c0.54,0.62,1.15,0.79,1.95,0.79C166.63,122.47,171.26,122.5,175.88,122.52z" />
		<path class="usa_st2" d="M59.39,130.71c-7.44-0.01-14.88-0.03-22.31-0.04c-3.18,0-6.36-0.01-9.55,0c-0.51,0-0.79-0.04-1.04-0.67
		c-0.99-2.46-1.98-4.91-2.62-7.49c9.25-0.01,18.51-0.03,27.76-0.04c0.54,0,1.09-0.08,1.61,0.01c2.01,0.37,3.3-0.7,4.36-2.16
		c0.33-0.46,0.42-0.55,0.87-0.17c0.94,0.78,1.95,1.48,2.92,2.22c0.3,0.23,0.6,0.52,0.44,0.94
		C60.88,125.74,60.46,128.34,59.39,130.71z" />
		<path class="usa_st1" d="M74.66,118.25c-3.39,0-6.78,0-10.17,0c-1.41,0-1.66-0.32-1.12-1.71c0.95-2.42,1.87-4.87,3.02-7.19
		c0.61-1.23,1.65-2.08,3.32-2.06c6.57,0.08,13.15,0.03,19.72,0.03c1.66,0,2.12,0.54,1.46,2.07c-1.1,2.53-1.94,5.18-3.41,7.55
		c-0.56,0.9-1.31,1.33-2.39,1.32C81.61,118.23,78.13,118.25,74.66,118.25z" />
		<path class="usa_st2" d="M90.15,31.32c-10.12,0-20.23,0-30.35,0c-0.02-0.07-0.05-0.15-0.07-0.22c0.78-0.45,1.54-0.93,2.34-1.34
		c4.3-2.23,8.69-4.25,13.33-5.68c4.28-1.32,8.63-2.32,13.07-2.98c1.72-0.26,3.47-0.28,5.17-0.7C92.47,24.03,91.31,27.68,90.15,31.32
		z" />
		<path class="usa_st2" d="M106.13,20.39c1.76,0.25,3.52,0.54,5.29,0.73c3.14,0.34,6.21,1.07,9.25,1.85c5.84,1.49,11.38,3.8,16.7,6.6
		c0.89,0.47,1.75,0.99,2.61,1.74c-10.13,0-20.25,0-30.38,0C108.45,27.68,107.29,24.03,106.13,20.39z" />
		<path class="usa_st2" d="M51.69,155.55c-1.98-0.01-4-0.24-5.95,0.02c-2.16,0.28-3.41-0.85-4.56-2.27c-2.1-2.58-4.33-5.05-6.15-7.85
		c-0.48-0.73-1.01-1.43-1.68-2.36c7.59,0,14.93,0,22.26,0C54.34,147.26,53.24,151.48,51.69,155.55z" />
		<path class="usa_st2" d="M144.13,143.09c7.32,0,14.64,0,22.07,0c-0.52,1.41-1.47,2.47-2.3,3.56c-2.16,2.86-4.36,5.7-6.89,8.26
		c-0.44,0.44-0.87,0.63-1.51,0.62c-2.48-0.03-4.96,0.01-7.44,0.02c-1.14-2.73-1.76-5.62-2.72-8.4
		C144.89,145.81,144.53,144.44,144.13,143.09z" />
		<path class="usa_st2" d="M104.6,155.47c-3.15,0-6.29,0-9.44,0c1.32-1.02,2.67-2.02,3.96-3.07c0.55-0.45,0.96-0.45,1.51,0
		C101.93,153.45,103.27,154.45,104.6,155.47z" />
	</g>
</svg>