<svg xmlns="http://www.w3.org/2000/svg" viewBox="0 0 200 200"><path d="M101.452.057c.977 1.026 2.447 1.216 3.51 2.183 1.769 1.608 2.593 3.778 3.709 5.751 3.647 6.442 7.074 13.01 10.939 19.329.398.651.758.87 1.773.809 3.066-.184 4.971-2.186 7.169-3.802 1.618-1.19 3.271-2.246 5.441-2.146 3.175.146 6.887 3.859 7.038 7.031.169 3.541-.78 6.929-1.286 10.375-.588 4.009-1.316 7.999-1.998 11.994-.691 4.05-1.408 8.095-2.091 12.146-.099.586-.076 1.193-.126 2.083 1.992-1.475 3.17-3.412 4.69-4.998 2.172-2.266 3.895-4.998 6.214-7.08 3.643-3.271 7.612-2.955 10.909 1.254 1.693 2.161 3.071 4.544 4.415 6.943.999 1.784 2.116 2.164 4.412 1.625 5-1.174 9.996-2.364 14.993-3.548 2.455-.582 5.982 1.252 7.471 3.369 1.959 2.784 1.378 5.529.576 8.412-1.687 6.059-3.339 12.128-4.982 18.2-.703 2.597-.221 3.518 2.682 4.058 3.833.713 6.655 2.548 8.189 6.195v3.267c-2.192 4.638-6.578 7.06-10.279 10.173-.909.765-1.69 1.669-2.72 2.307-1.189.736-1.369 1.738-.813 3.06 1.126 2.677 2.012 5.458 3.189 8.111 1.491 3.361-.85 7.996-3.516 9.012-4.489 1.711-8.949 1.902-13.343-.345-1.502-.768-2.283-2.169-3.142-3.721-1.418 3.467-3.934 5.116-7.494 5.155-1.179.013-1.619 1.119-2.434 1.653-1.725 1.128-3.233 2.596-4.791 3.968-1.054.928-1.59 1.923-.683 3.38 1.293 2.077 2.443 4.247 3.569 6.422 1.494 2.886.098 6.802-2.632 8.589-3.231 2.114-6.582 1.385-9.963.92-2.976-.409-5.943-.881-8.913-1.333-3.783-.575-7.557-1.215-11.35-1.721-3.272-.436-6.552-.787-9.791-1.452-.869-.178-.536.592-.538.949-.027 3.75-.134 7.505.008 11.249.277 7.289.374 14.577.346 21.87-.014 3.512-1.405 6.116-4.692 7.59-.398.179-.907.235-1.123.717h-7.985c-.599-.771-1.574-.919-2.355-1.386-2.168-1.295-3.307-3.336-3.389-5.652-.197-5.497-.366-11.026.02-16.503.404-5.729.084-11.44.281-17.154.035-1.015.15-1.403-1.4-1.18-3.735.537-7.484 1.064-11.214 1.634-4.476.684-8.982 1.169-13.433 2.058-3.006.6-6.088.845-9.146 1.145-4.079.4-7.224-1.997-8.487-5.739-.432-1.279-.467-2.582.167-3.787 1.303-2.477 2.59-4.971 4.066-7.344.603-.97.437-1.658-.22-2.239-2.355-2.08-4.78-4.081-7.18-6.109-.421-.356-.928-.161-1.39-.165-2.358-.023-4.72.064-7.075-.024-7.504-.281-13.045-3.874-16.803-10.266-2.161-3.675-3.214-7.684-3.003-11.97.047-.955-.328-1.396-1.1-1.966-2.236-1.65-4.275-3.565-6.474-5.268-1.465-1.135-1.865-2.932-2.969-4.273v-3.267c1.666-3.943 4.784-5.694 8.902-6.309 2.226-.333 2.625-1.533 1.856-4.469-1.801-6.872-3.722-13.712-5.574-20.57-.678-2.512 1.208-6.092 3.381-7.622 3.063-2.157 6.092-1.1 9.158-.436 3.937.852 7.832 1.9 11.779 2.698 1.38.279 2.75.302 3.636-1.519 1.193-2.453 2.629-4.869 4.372-6.959 3.846-4.612 8.438-4.796 12.861.315 1.979 2.286 3.833 4.686 5.902 6.886 1.042 1.109 1.727 2.564 3.216 3.468.206-2.259-.536-4.281-.819-6.342-.552-4.011-1.354-7.987-2.044-11.979-.71-4.109-1.511-8.205-2.079-12.334-.39-2.83-1.126-5.672.394-8.52 2.22-4.162 7.15-5.961 11.519-2.358 1.829 1.509 3.584 3.137 6.092 3.674 1.72.369 2.829.024 3.646-1.5 2.176-4.059 4.369-8.109 6.565-12.157 2.057-3.791 4.111-7.584 6.196-11.36.943-1.707 2.946-2.015 4.328-3.151 1.082-.004 2.171-.004 3.26-.004z" fill="#fefefe"/><path d="M105.368 153.4c.747 4.992.402 9.982.424 14.964.034 7.836.539 15.661.435 23.504-.033 2.471-2.087 4.893-4.69 4.57-1.821-.226-3.707.391-5.489-.487-1.496-.738-2.175-2.009-2.195-3.546-.064-5.08-.33-10.185.052-15.237.501-6.635.127-13.255.239-19.88.021-1.233.786-2.41.3-3.614-2.331.344-4.598.671-6.862 1.014-3.784.573-7.563 1.174-11.35 1.729-2.861.419-5.733.762-8.594 1.179-3.787.553-7.573 1.118-11.35 1.73-2.181.353-4.952-.145-5.734-2.628-.277-.879-.367-1.562.072-2.332 1.213-2.13 2.357-4.301 3.649-6.382 1.392-2.241 1.38-4.228-.438-6.219-2.701-2.957-6.167-5.063-8.984-7.901-.449-.452-1.063-.298-1.544-.192-3.278.725-6.681.699-9.858.198-6.11-.963-10.601-4.555-12.908-10.433-1.275-3.248-1.932-6.617-1.196-10.178.194-.938-1.142-1.372-1.804-1.944-2.322-2.006-4.795-3.836-7.156-5.799-1.172-.974-2.077-2.226-1.821-3.843.269-1.701 1.88-2.96 3.731-3.255 1.789-.285 3.597-.643 5.056-1.78 2.424-1.889 2.873-4.038 1.893-7.649-1.862-6.86-3.768-13.708-5.598-20.576-.626-2.347 2.362-5.004 4.846-4.413 5 1.191 9.997 2.394 15.005 3.549 3.429.791 5.399-.057 7.452-3.174 1.446-2.195 2.748-4.487 4.264-6.631 1.643-2.322 4.059-3.224 6.629-.366 1.941 2.159 3.707 4.473 5.618 6.66 3.685 4.219 7.409 8.404 11.139 12.582.378.423.688.995 1.517 1.125.375-1.993-.525-3.804-.759-5.662-.513-4.076-1.335-8.114-2.029-12.167-.813-4.749-1.641-9.496-2.431-14.248-.665-4.004-1.273-8.018-1.931-12.024-.278-1.691-.741-3.359.044-5.051.948-2.043 3.435-3.357 5.973-1.313 1.948 1.569 3.731 3.447 6.267 4.112 1.466.384 2.949.797 4.448.934 1.802.165 2.746-1.268 3.584-2.545 2.594-3.957 4.645-8.225 6.917-12.367 2.188-3.99 4.164-8.113 6.604-11.942 1.721-2.701 4.781-2.517 6.746.713 3.391 5.574 6.357 11.407 9.519 17.122 1.47 2.657 2.905 5.339 4.743 7.769.95 1.256 2.374 1.032 3.641.887 3.432-.394 6.248-2.142 8.841-4.309 2.558-2.137 3.476-2.309 5.444-1.043 1.302.838 1.981 3.497 1.599 5.548-.764 4.1-1.421 8.22-2.134 12.329-.824 4.745-1.691 9.483-2.482 14.233-.667 4.006-1.214 8.032-1.887 12.037-.379 2.258-.985 4.48-1.114 6.87 1.779-.589 2.546-2.174 3.604-3.349 3.94-4.371 7.808-8.812 11.537-13.363 1.087-1.327 2.338-2.501 3.345-3.918 1.797-2.528 4.555-2.279 6.372.335 1.536 2.21 2.912 4.513 4.314 6.807 2.196 3.593 4.024 3.81 8.141 2.933 5.026-1.07 10.006-2.353 15.022-3.469 2.421-.539 4.891 2.492 4.205 4.99-2.021 7.361-4.033 14.725-6.001 22.1-.608 2.277 1.472 5.673 4.007 6.622.919.344 1.894.598 2.866.728 2.466.33 3.967 1.305 4.29 3.247.308 1.855-.891 3.157-2.185 4.232-3.821 3.172-7.69 6.288-11.559 9.402-.939.756-1.21 1.543-.747 2.733 1.392 3.575 2.573 7.236 4.047 10.775 1.057 2.539-1.2 5.071-3.393 5.18-1.991.099-4.008.184-5.983-.022-2.297-.239-3.526-1.79-4.15-3.983-.204-.717-.178-1.906-1.035-2.067-1.222-.231-2.543-.158-3.784.029-.631.095-.742.958-.943 1.581-1.241 3.834-1.69 4.22-5.678 4.463-1.596.097-2.332 1.363-3.314 2.225-2.344 2.059-5.192 3.558-6.945 6.289-1.422 2.215-1.431 3.302-.088 5.439 1.209 1.924 2.302 3.923 3.399 5.915 1.375 2.497-.247 5.324-3.12 5.571-1.752.151-3.44-.259-5.145-.483-2.977-.392-5.94-.89-8.909-1.341-3.783-.575-7.565-1.16-11.351-1.717-3.616-.532-7.236-1.039-10.856-1.548-1.342-.191-2.691-.353-4.316-.564z"/><path d="M58.677 143.068c-.837-2.302-2.425-4.075-4.088-5.794 1.343-.594 1.588-1.457 1.033-2.858-.744-1.878-1.524-3.794-1.374-5.901.756-2.079 2.49-.698 3.738-1.025.946-.248 1.132.59 1.378 1.291 1.498 4.259 2.338 4.85 6.782 4.85.665 0 1.335.054 1.994-.009 3.045-.29 6.087.091 9.131.02 2.934-.068 4.564-1.653 4.578-4.583.006-1.268.001-2.535.001-4.187 1.521 1.671 2.455 3.371 3.336 5.033 1.425 2.689 3.374 3.945 6.506 3.777 3.878-.208 7.776-.049 11.666-.05 3.017-.001 4.134-.712 4.986-3.621.548-1.873 1.388-2.776 3.516-2.624 1.47.105 2.101.569 2.532 1.924 1.122 3.529 2.324 4.321 6.052 4.321 5.828 0 11.657-.059 17.484.024 3.08.044 5.943-.557 8.62-2.072.88-.498 1.793-1.165 2.244.495.138.507.495.954.804 1.527-2.87 2.591-6.93 4.851-8.272 9.461-.736.538-1.588.511-2.438.511-23.046 0-46.093.007-69.139-.007-3.243-.002-3.58-.273-4.526-3.248-.262 1.811-.269 1.819.96 2.91.46.409.95.844 1.092 1.422.715 2.915 1.502 5.828 1.132 8.884-1.858.739-3.889.565-5.787 1.091-.645-.592-.797-1.373-.844-2.194.494-2.664.499-5.416 1.388-8.012.271-.79.126-1.086-.805-.994-1.233.124-2.527.479-3.68-.362z" fill="#90141c"/><path d="M130.793 47.242c.045 2.699-.807 5.274-1.104 7.931-.302 2.704-.943 5.371-1.435 8.054-.69 1.305-1.928 1.536-3.219 1.581-2.041.072-4.091.131-6.124-.005-2.027-.136-3.876.327-5.697 1.099-.327-.138-.452-.426-.548-.736-.072-.922-.389-1.806-.454-2.73.091-1.426-.396-2.802-.376-4.222-.019-1-.351-1.962-.363-2.963-.549-4.249-.725-4.299-4.832-3.577-3.626.637-7.297 1.145-10.981 1.112-2.625-.023-5.156.391-7.705.839-1.134.199-1.828.693-1.636 2.06.134.952.22 1.918.368 2.875-.085 1.452.798 2.907-.007 4.358-1.867.989-3.893 1.262-5.951 1.129-1.376-.089-2.765-.218-4.122-.507-.675-.144-1.179-.586-1.514-1.199-.626-1.419-.726-2.955-.985-4.456-.028-.239.003.062-.011-.179-.164-2.804-.569-5.431-4.165-5.746-.769-1.606-.494-3.435-1.089-5.078.54-.421 1.158-.21 1.749-.217 4.585-.051 9.171-.077 13.755-.169 4.04-.081 8.03-.722 12.022-.706 2.476.01 4.732.457 7.276-.511 1.537-.585 3.729-.169 5.628-.35 1.263-.12 1.993.6 2.423 1.753.336.902.285 1.802.16 2.722.116-2.398.364-2.678 2.768-2.695 4.651-.032 9.302-.021 13.953 0 .768.003 1.589-.107 2.216.533z" fill="#a51720"/><path d="M68.406 153.541c-.358-2.06-.799-4.111-1.047-6.184-.21-1.756-.291-3.472-2.445-4.005-.543-.135-.446-.639-.483-1.05-.129-1.401.201-2.736.659-4.579.468 1.624.883 2.801 1.124 4.012.13.654.389.869 1 1.035.83.227 1.649.305 2.498.305 23.871-.006 47.742-.006 71.613-.006l-.27.378c-.51.285-1.067.157-1.602.157-23.224.007-46.449.007-69.673-.004-.458 0-.963.193-1.06.109.189.119.785-.102 1.332-.101 23.043.015 46.086.011 69.129.02.593 0 1.211-.153 1.779.167-.612 3.423 1.907 5.66 3.192 8.359.507 1.065 1.173 2.055 1.846 3.216-2.538.184-4.778-.583-7.067-.863-4.615-.565-9.206-1.318-13.806-2.002-4.54-.675-9.079-1.365-13.619-2.041-2.773-.413-5.54-.873-8.323-1.198-2.269-.265-.999 1.641-1.422 2.515-1.173.753-2.346.753-3.52 0-.12-2.258-.502-2.553-2.674-2.118-4.724.946-9.513 1.448-14.276 2.134-3.644.525-7.272 1.155-10.912 1.704-.645.097-1.315.03-1.973.04z" fill="#8d141b"/><path d="M117.053 101.001c-5.263-4.914-11.709-2.144-13.822 4.877-.942 3.129-2.215 6.159-3.593 9.228 0-3.794.001-7.589 0-11.383-.002-3.415-1.52-4.932-4.938-4.935-1.39-.001-2.78-.015-4.17.003-2.586.034-4.282 1.711-4.321 4.277-.021 1.376-.004 2.752-.305 4.255-1.142-1.832-2.331-3.636-3.412-5.503-1.19-2.055-2.827-3.185-5.277-3.046-1.325.076-2.659.004-3.988.015-2.789.024-4.434 1.69-4.441 4.521-.011 4.169-.003 8.339-.209 12.572-1.126-3.014-2.248-6.029-3.379-9.042-.775-2.066-1.408-4.173-3.05-5.824-5.125-5.154-11.255-1.495-12.964 2.927-.601 1.555-.973 3.207-1.874 4.642-.445.385-.89.384-1.335 0-.019-1.802-.036-3.605-.058-5.407-.033-2.65-1.722-4.361-4.356-4.388-2.404-.025-4.808-.026-7.212-.037.033-.929.847-.896 1.414-1.067 1.029-.309 2.08-.558 3.13-.803.194-.036.388-.062.583-.086 3.158-.838 6.352-1.515 9.553-2.162.829-.167 1.659-.369 2.511-.12 1.425.643 2.901.319 4.23-.108 1.19-.382 2.349-.501 3.547-.504 16.058-.034 32.117.022 48.175-.065 1.725-.009 3.183 1.098 4.897.769 2.156-.001 2.807 1.845 3.886 3.17.263.47.508.951.759 1.428.24.597.569 1.193.019 1.796z" fill="#99151e"/><path d="M78.222 112.401c0 5.359-.048 10.72.035 16.078.02 1.307-.36 1.573-1.6 1.557-4.241-.057-4.242-.005-4.242-4.323 0-7.258.037-14.516-.034-21.773-.013-1.307.363-1.567 1.601-1.555 4.911.047 4.82.054 7.334 4.351 2.64 4.513 5.48 8.911 8.522 13.826v-15.62c0-2.525 0-2.525 2.56-2.525 3.611 0 3.611 0 3.611 3.652 0 7.439-.043 14.879.038 22.317.015 1.394-.372 1.669-1.692 1.652-5.091-.064-5.006-.063-7.849-4.921-2.534-4.33-5.285-8.532-7.94-12.791-.116.024-.23.049-.344.075zM126.86 115.859c0-4.171.03-8.342-.022-12.512-.013-.994.214-1.342 1.274-1.319 3.263.071 6.536-.118 9.79.063 3.868.215 7.559 1.105 10.36 4.123.962 1.037 1.502 2.186 1.484 3.653-.05 4.17-.015 8.341-.019 12.512-.002 2.038-.9 3.577-2.572 4.729-2.893 1.992-6.054 2.996-9.59 2.91-3.141-.076-6.287-.058-9.429.008-1.022.021-1.313-.263-1.3-1.293.057-4.29.024-8.582.024-12.874zM69.835 130.003c-1.839 0-3.471-.019-5.102.008-.826.014-1.309-.161-1.446-1.145-.108-.778-.629-1.494-.932-2.251-1.114-2.781-1.109-2.783-3.953-2.783-1.874 0-3.749.036-5.622-.018-.727-.021-1.112.15-1.141.925-.008.214-.199.415-.27.634-1.559 4.839-1.557 4.827-6.537 4.641-.891-.033-1.331-.021-.879-1.201 2.033-5.316 3.925-10.686 5.903-16.024.948-2.56 1.742-5.175 2.9-7.66.754-1.617 2.533-3.248 3.903-3.036 1.827.282 3.373 1.246 4.047 3.038 1.902 5.057 3.689 10.157 5.542 15.232 1.155 3.165 2.349 6.317 3.587 9.64zM124.614 130.003h-2.239c-4.014 0-4.076.019-5.293-3.983-.493-1.621-1.171-2.475-3.039-2.229-1.545.203-3.168.235-4.703-.005-2.108-.331-2.971.608-3.542 2.45-1.174 3.786-1.232 3.768-4.956 3.768-2.402 0-2.447-.016-1.591-2.375 2.772-7.644 5.562-15.283 8.388-22.907.618-1.666 2.158-2.312 3.727-2.623 1.278-.254 3.562 1.452 4.109 2.926 2.242 6.048 4.446 12.11 6.661 18.168.819 2.237 1.63 4.478 2.478 6.81zM177.604 130.003h-2.216c-4.045 0-4.13.025-5.303-3.966-.519-1.766-1.329-2.456-3.21-2.249-1.852.204-3.751.152-5.615.008-1.332-.102-1.767.423-2.128 1.615-1.475 4.862-1.519 4.829-6.548 4.609-1.007-.044-1.198-.184-.797-1.242 2.221-5.867 4.334-11.774 6.484-17.668.737-2.019 1.534-4.02 2.266-6.035.702-1.932 2.174-2.566 3.806-2.968 1.253-.309 3.566 1.424 4.115 2.901 2.246 6.047 4.453 12.108 6.669 18.166.821 2.237 1.626 4.479 2.477 6.829z" fill="#fefefe"/><path d="M68.039 40.746c-.44-1.307-.809-2.626-.647-4.03.507-.548 1.192-.521 1.849-.551.784-.037 1.569-.024 2.353-.015 9.706.118 19.413.066 29.119.03 1.773-.007 3.185.397 4.164 1.922 1.079 1.187 1.54-.384 2.321-.531 1.21-1.031 2.603-1.388 4.187-1.378 6.272.041 12.544.01 18.816.025.827.002 1.709-.164 2.407.5-.133 2.216-.56 4.383-1.089 6.534-.751.695-1.695.554-2.586.557-5.079.018-10.199.413-15.229-.087-7.361-.732-14.714-.519-22.071-.702-.303-.008-.606-.025-.897-.113-.557-.168-1.037-.481-1.028-1.108.009-.627.463-.966 1.063-1.04.756-.094 1.507-.2 2.245-.29-8.321.692-16.651.357-24.977.277z" fill="#a91821"/><path d="M37.432 102.537c1.572 0 3.623-.6 4.553.164.982.807.112 2.952.328 4.486.228 1.623-.485 1.837-1.897 1.804-2.154-.05-4.366-.401-6.468.171-3.895 1.059-5.742 5.148-4.999 8.653.865 4.08 3.461 6.017 7.675 6.018.242 0 .484-.013.725.002 1.609.1 4.064-.694 4.632.292.814 1.413.263 3.609.311 5.47.013.502-.108.803-.691.772-3.874-.205-7.823.609-11.536-1.409-4.296-2.333-6.31-5.948-7.061-10.636-.578-3.609.009-6.932 1.92-9.909 2.891-4.504 6.999-6.816 12.508-5.878z" fill="#fefefe"/><path d="M134.443 78.812c.593-1.566 1.947-2.555 2.974-3.768 4.568-5.393 9.254-10.686 13.979-16.108 1.48 2.336 2.979 4.622 4.393 6.96 1.202 1.988 2.604 3.725 4.822 4.636.552.727.772 1.566.836 2.459.033.489.031.979.032 1.47-.069.803.072 1.601.046 2.405-.065.208-.184.376-.357.508-2.638.407-5.286.043-7.795.183 2.425.016 7.275.073 9.836.46-4.944.35-12.173.258-17.115.259 4.688.043 9.377-.043 14.246.053-.639 1.214-1.614 1.024-2.442 1.034-3.75.044-7.5.021-11.25.016-1.043-.001-2.046.048-2.893.795-.516.455-1.186.591-1.863.618-1.935.077-3.871.072-5.805.006-.641-.022-1.37.007-1.678-.786 1.747-.589 3.548-.134 5.32-.266.62-.046 1.246-.013 1.868-.037.238-.078-.382-.1-.243.098-2.346.535-4.495-.415-6.842.09-.384.327-.77.342-1.156.005l.725-.728c2.25-.365 4.502-.044 6.273-.148-1.636-.252-3.799.254-5.911-.214z" fill="#a1161f"/><path d="M87.98 29.447c1.579-3.955 3.988-7.477 5.896-11.264 1.825-3.624 3.919-7.112 6.111-11.047 4.171 7.572 8.233 14.947 12.295 22.322-.677.677-1.557.577-2.386.58-6.511.02-13.022.02-19.533 0-.831-.003-1.71.091-2.383-.591z" fill="#ae1822"/><path d="M68.039 40.746c.514-.63 1.229-.387 1.861-.388 6.338-.017 12.678-.086 19.013.043 1.566.032 2.89-.653 4.361-.766.575-.044 1.397-.148 1.458.654.065.854-.752.762-1.339.779-.844.024-1.69-.003-2.534.033-.44.019-.88.181-.857.722.022.528.464.643.905.687.18.018.362.022.543.014 11.683-.531 23.319 1.137 35 .736 1.688-.058 3.38-.008 5.07-.009-.082 1.36-.157 2.721-.726 3.991-5.31.001-10.625.123-15.928-.062-1.953-.068-2.702.588-2.863 2.358-.029.32.138.726-.276.962-.364-1.098.157-2.266-.399-3.368-.91-1.803-2.159-2.276-4.083-1.3-.773.392-1.388.327-2.185-.016-1.233-.531-2.467-.533-3.3.875-.469.793-2.42.865-3.139.054-.371-.419-.705-.66-1.2-.579-2.035.33-4.147.001-6.127.924-.908.423-2.048.307-3.028.028-1.38-.392-2.79-.381-4.127-.187-4.509.655-9.028.134-13.537.291-.581.02-1.171-.222-1.756-.343l-.363-2.541c.09-.082.175-.193.284-.22 4.453-1.1 9.147-2.486 13.497-1.148 4.115 1.266 8.066.363 12.052.835.239.028-.063.02.18.006-1.955-.047-3.911-.007-5.866-.039-.867-.014-1.792-.093-2.247-.915-.649-1.174-1.673-1.244-2.792-1.244-4.293.001-8.586.012-12.879-.008-.89-.004-1.834.154-2.592-.533-.041-.104-.067-.214-.081-.326z" fill="#a81720"/><path d="M87.98 29.447c8.101.004 16.201.007 24.302.011.772 1.059 1.621 2.072 2.303 3.186 1.883 3.078 4.745 3.258 7.877 2.839 4.394-.588 7.784-3.068 11.286-6.056-.067 2.436-.512 4.513-1.039 6.58-.64.479-1.387.34-2.099.341-6.876.013-13.752.002-20.628.011-.853.001-1.676-.098-2.501-.311-1.303-.337-2.61-.455-3.914.05-.566.219-1.174.254-1.782.254-5.972.004-11.945.013-17.917-.018-.58-.003-1.395.328-1.634-.647 2.113-1.178 3.607-2.945 4.805-5.005.259-.445.361-1.028.941-1.235z" fill="#ab1821"/><path d="M133.356 79.899c.376.004.751.009 1.127.013 2.715.775 5.485.193 8.226.334 4.027-2.993 8.627-.773 12.918-1.392 1.354-.195 2.76-.031 4.147-.335h-15.077c-.001-.138-.001-.276-.002-.413h15.892c0-.12-.001-.24-.001-.36h-8.985c-.001-.125-.002-.249-.003-.374h7.452c.783 0 1.579.086 2.29-.364.501.427.525 1.065.728 1.626.163.81.183 1.623.044 2.438-.324 1.162-1.382 1.342-2.287 1.472-2.083.298-4.148.698-6.265.85-2.443.175-4.848.849-7.332.728-.177-.009-.437.012-.512.137-1.175 1.957-3.449 1.59-5.137 2.453-.385.197-.812.232-1.234.234-1.927.007-3.832.009-5.718.618-.9.291-1.996.334-2.784-.462.215-.733.909-.195 1.166-.615-1.137.128-2.227.815-3.371.078-.638-.917-.571-2.016-.79-3.042-.036-.663-.067-1.325.475-1.838 2.033.408 3.341-1.231 5.033-1.786z" fill="#9d161e"/><path d="M113.071 65.755c1.554-1.753 3.628-1.473 5.642-1.454 1.69.016 3.385-.069 5.07.024 1.626.09 3.113-.189 4.47-1.098-.598 4.132-1.243 8.255-2.179 12.327-1.104.381-2.244.067-3.244.184 1 .114 2.141-.197 3.244.183v.359c-1.103.381-2.244.066-3.243.185.999.113 2.14-.198 3.243.182v.359c-1.66.863-3.506.604-5.266.843-1.064.145-2.168.115-3.24.007-1.218-.123-2.091.264-2.678 1.324-.198.104-.373.073-.523-.092-.114-.16-.196-.336-.251-.524-.152-.744-.359-1.479-.416-2.241-.025-.281-.03-.562-.028-.843.056-.94-.268-1.835-.344-2.759-.027-.282-.033-.564-.029-.846.046-.954-.378-1.849-.356-2.8.078-.956-.329-1.88-.189-2.841.057-.193.163-.352.317-.479z" fill="#a1161f"/><path d="M145.007 99.818c-2.137-1.031-4.459-1.259-6.764-1.366-2.941-.136-5.891-.066-8.838-.085-.395-.463-.408-.947-.081-1.45 1.251-.652 2.614-1.033 3.991-1.084 3.264-.121 6.388-1.279 9.668-1.212.841.017 1.279-.528 1.702-1.156.755-1.12 1.793-1.671 3.19-1.745 4.033-.211 8.037-.749 12.04-1.276 1.182-.156 2.292-.133 3.233.724.293.295.49.649.637 1.035.102.285.159.58.186.881.038.585.054 1.172.005 1.759-.148.479-.07 1.118-.939.977-2.486-.404-4.829.11-7.302.6-3.37.667-6.842 1.249-10.298 1.439.165.641.143 1.353-.43 1.959z" fill="#91141c"/><path d="M45.976 108.585h1.335c-1.026 3.737-2.521 7.305-3.893 10.919-.181.475-.362.724-.858.692-2.509-.159-5.043.355-7.536-.311-1.856-.496-2.767-1.928-2.53-4.073.21-1.903 1.438-3.173 3.228-3.222 1.807-.049 3.617-.009 5.426-.012 2.917-.004 4.192-1.06 4.828-3.993z" fill="#94151d"/><path d="M35.759 71.625c3.266-.372 6.076-1.56 7.944-4.435 3.89.303 7.779.402 11.668-.019 1.481 1.449 2.887 2.961 3.997 4.724.076.469-.258.721-.597.728-2.089.042-4.087.794-6.182.763-1.048-.464-2.274.055-3.289-.591-.864-.79-2.045.055-2.688-.344.603.231 1.563-.152 2.445.105.192.139.221.306.087.502-2.101.647-4.268.902-6.447 1.088-.195-.017-.387-.056-.576-.107-1.411-.352-2.846-.125-4.269-.166-.639-.018-1.334.195-1.789-.489-.258-.385-.378-.82-.455-1.271-.017-.182.037-.344.151-.488z" fill="#a0161f"/><path d="M82.235 35.687c.57.518 1.268.292 1.908.294 5.194.018 10.388.002 15.582.015 1.508.004 2.984.023 4.404-.692 1.142-.575 2.382-.135 3.497.19 1.24.361 2.457.509 3.733.506 7.116-.014 14.233.001 21.349.005-.033.237-.067.474-.1.711-6.38 0-12.762.076-19.14-.039-2.384-.043-5.851.874-7.893 2.156-.851-1.282-3.02-2.134-4.363-2.131-11.274.024-22.547.013-33.821.012-.726-2.148-.896-4.384-1.258-7.07 4.814 4.265 9.755 7.151 16.102 6.043z" fill="#ab1821"/><path d="M145.007 99.818c-.064-1.545.05-2.483 2.209-2.619 2.699-.169 5.654-.297 8.044-1.196 2.1-.79 4.123-.343 6.068-1.007.649-.222 1.404-.582 1.84.397.141.315.267.091.311-.064.048-.169.03-.357.041-.537 1.477.663.549 2.038.9 3.035.004.203-.061.382-.193.536-1.582.093-2.824 1.145-4.305 1.526-.534.297-1.098.525-1.717.5-2.566-.102-5.026.533-7.498 1.074-.846.185-1.662.246-2.47-.122-1.178-.287-2.175-.967-3.23-1.523z" fill="#8c131b"/><path d="M24.544 103.168c-1.386 1.494-2.826 2.955-3.605 4.887-.319.791-.591.839-1.263.276-2.412-2.022-4.884-3.972-7.555-6.128 4.309-.575 7.757-2.212 10.202-5.597.368.262.471.68.629 1.066.138.392.261.79.407 1.18.276.878.607 1.738.82 2.635.102.564.352 1.097.365 1.681z" fill="#87131a"/><path d="M68.118 41.074c5.436 0 10.873.006 16.309-.005 1.056-.002 2.064-.108 2.236 1.406.098.865.945.774 1.607.775 2.174.004 4.35-.024 6.523.019.589.011 1.605-.348 1.609.575.004.724-.967.48-1.53.487-2.235.026-4.47.011-6.705.011-.362 0-.738-.062-1.085.011-1.457.307-2.977.954-3.905-.932-3.183-.278-6.526-.769-9.492.18-1.807.578-3.476.512-5.205.741.037-1.108-.679-2.131-.362-3.268z" fill="#a91821"/><path d="M55.371 67.171c-.405.967-1.343.703-2.021.726-2.564.09-5.134.001-7.7.057-.804.018-1.338-.41-1.946-.764 1.593-2.632 3.187-5.263 4.884-8.066 2.343 2.78 4.563 5.414 6.783 8.047z" fill="#a3171f"/><path d="M98.24 151.78h3.52c.403 6.28.552 12.565.363 18.856-1.091-.309-.836-1.333-1.009-2.063-.282-1.191-.703-2.38-.554-3.446.015-.438-.341-.149-.114-.235.121.781.237 1.56-.798 1.839-.417-.367-.473-.883-.312-1.326.543-1.49-.009-2.337-1.457-2.735-.354-3.646.354-7.256.361-10.89z" fill="#8b131b"/><path d="M52.451 73.016c2.306-.373 4.611-.747 6.917-1.12l.735.714c.282.57.514 1.151.382 1.808-.14.385-.2.828-.806.749-4.073-.53-8.07.247-12.071.786-1.729.233-3.444.615-5.189.465-1.898-.163-3.618.842-5.496.714-.628-.458-.723-1.171-.891-1.851-.043-.757-.526-1.532.085-2.265.595.822 1.426.249 2.142.359 1.334.205 2.744-.409 3.768.452-1.267.099-2.641.092-3.484.088.893-.08 2.33.149 3.484-.088 2.582-.109 4.799-1.125 7.157-.811.078.001.156.002.233.002.933.005 1.867.005 2.8 0 .078-.001.156-.002.234-.002z" fill="#9c161e"/><path d="M102.12 171.384c-.169 3.881.669 7.731.364 11.616-.205.214-.445.708-.565.636-1.368-.82-3.167.323-4.402-.989.009-2.194-.377-4.409.359-6.563.274-1.525.104-3.131.827-4.575 1.13-.228 2.263-.444 3.417-.125z" fill="#94151d"/><path d="M97.516 182.648c.922.215 1.829.536 2.787.075.225-.108.801-.026.813.042.251 1.393.924.152 1.368.236.019 2.837.017 5.674.07 8.51.016.878-.191 1.265-1.189 1.314-3.908.195-3.912.235-3.903-3.659.005-2.173.035-4.346.054-6.518z" fill="#97151d"/><path d="M114.542 79.184c.266-1.696 1.285-2.043 2.873-1.842 2.891.367 5.762-.442 8.659-.336.03 1.263.132 2.51.826 3.621-3.792 1.413-7.726 1.913-11.75 1.821-.174-.004-.303-.181-.435-.306-.397-.965-.955-1.923-.173-2.958z" fill="#9d161e"/><path d="M36.118 73.015c.12.726.24 1.453.36 2.179-.919.769-2.076.521-3.125.701-3.144.539-6.356.5-9.496 1.193-1.287.284-2.767.464-4.018-.445-.488-.776-.556-1.673-.725-2.54.264-.265.59-.417.954-.458 4.879-.544 9.731-1.301 14.615-1.798.349-.036.717.012 1.071.079.426.262.35.691.364 1.089z" fill="#91141c"/><path d="M180.254 99.137c2.212 1.491 4.583 2.542 7.684 2.611-1.506 1.214-2.585 2.445-4.058 3.224-2.063.964-4.278 1.088-6.5 1.175-.772-.783-.799-1.806-.906-2.804-.022-.287-.017-.574-.006-.861.018-.453.044-.908.174-1.347 1.637-2.411 1.881-2.545 3.612-1.998z" fill="#86121a"/><path d="M22.014 84.628c-.505-.897-.812-1.851-.817-2.889 1.646-.915 3.489-.877 5.267-.942 2.899-.107 5.664-1.081 8.558-1.172.851-.027 1.696-.235 2.348.534.434.774.746 1.562.273 2.437-.69.827-1.702.917-2.637.989-3.728.29-7.405.961-11.113 1.39-.665.076-1.327.172-1.879-.347z" fill="#811219"/><path d="M173.326 69.443c3.068-.687 6.136-1.373 9.412-2.106-.648 2.238-1.25 4.321-1.853 6.403-2.474.809-4.908.949-7.254-.43-.615-.686-.78-1.519-.785-2.405-.012-.543.08-1.053.48-1.462z" fill="#a0161f"/><path d="M129.402 96.972c.001.465.003.931.004 1.396-2.216.003-4.447-.034-5.775 2.249-1.776 1.346-3.924.696-5.877 1.093-.234-.236-.467-.473-.701-.709-.119-.619-.238-1.239-.357-1.858-.313-.589-.304-1.288-.635-1.872-.081-.395-.051-.767.222-1.089 3.402 1.586 6.584-.36 9.872-.614 1.21-.093 2.541-.616 3.353.862.057.199.021.38-.106.542z" fill="#87131a"/><path d="M19.839 76.643c4.579.124 9.033-1.014 13.568-1.332 1.021-.072 2.047-.079 3.071-.117.122.605.243 1.209.365 1.814.231.298.198.576-.062.837-3.901.738-7.836 1.266-11.798 1.459-1.472.072-2.912.891-4.417.24-.171-.984-.906-1.828-.727-2.901z" fill="#8c131b"/><path d="M20.566 79.545c2.404-.868 4.962-.788 7.441-1.006 2.566-.225 5.072-.824 7.641-.981.448-.027.812.004 1.195.177.565.58.649 1.309.642 2.068-.041.188-.135.346-.28.474-1.352-.804-2.729-.065-4.007.13-3.987.607-7.98 1.068-12.001 1.332-.438-.667-.489-1.444-.631-2.194z" fill="#87131a"/><path d="M22.014 84.628c3.368-.422 6.741-.815 10.104-1.277 1.823-.25 3.709-.141 5.449-.897.065.063.129.127.195.189.297.678.406 1.398.468 2.13-.031.3-.133.561-.391.741-4.738.981-9.569 1.29-14.349 1.964-.305.043-.589-.106-.836-.293-.418-.801-.662-1.646-.64-2.557z" fill="#7b1117"/><path d="M22.653 87.186c4.802-.648 9.604-1.299 14.408-1.934.28-.037.578.067.868.106.453.458.415.993.248 1.55-.396.935-1.196 1.35-2.118 1.489-3.748.564-7.518.966-11.279 1.434-.605.075-1.206-.029-1.681-.485-.148-.72-.297-1.44-.446-2.16z" fill="#731016"/><path d="M35.755 71.926c-2.831 1.105-5.883.844-8.809 1.399-2.57.488-5.193.803-7.831.777-.242-.731-.483-1.462-.725-2.193.22-.508.637-.714 1.158-.699 3.259.094 6.41-1.172 9.692-.771 2.173.395 4.347.79 6.52 1.185-.003.102-.005.202-.005.302z" fill="#95151d"/><path d="M114.9 82.088c2.634-.242 5.281-.392 7.897-.765 1.367-.195 2.647-.958 4.103-.696l1.422 1.056c-.004.619-.007 1.239-.011 1.858-.823.725-1.847.775-2.861.842-2.413.159-4.855-.308-7.228.779-.822.377-2.041-.16-2.952.539-.76-.922-.933-1.979-.729-3.125.071-.198.192-.36.359-.488z" fill="#99151e"/><path d="M23.021 95.151c-.08-.77.248-1.458.436-2.174 1.513-.94 3.276-.497 4.909-.851 2.989-.648 6.05-.983 9.082-1.436.372-.056.717-.003 1.046.169.169.101.3.24.396.411.246.613.3 1.27.426 1.911.025.285-.017.558-.161.81-.134.146-.3.211-.497.199-4.234-.045-8.373.811-12.547 1.335-1.072.135-2.145.465-3.09-.374z" fill="#640e13"/><path d="M62.25 152.508c.123.708.246 1.416.368 2.123-2.813.387-5.626.775-8.818 1.215 1.388-2.288 2.588-4.267 3.788-6.246 2.302-1.057 3.733-.371 4.373 2.085.073.28.066.594.289.823z" fill="#87121a"/><path d="M148.24 101.342c1.406-.257 2.844-.399 4.21-.795 2.462-.713 4.959-.717 7.474-.658-1.084 1.386-2.652 2.438-2.99 4.338-1.619 1.053-3.342.722-5.066.382-1.209-1.089-2.419-2.178-3.628-3.267z" fill="#87131a"/><path d="M164.228 98.363c.007-.099.012-.199.015-.298-.443-.856.006-1.363.716-1.72.802-.404 1.637-.896 2.53-.857 2.249.099 4.354-.949 6.554-.81 1.245.079.881-1.374 1.797-1.398.663.604.425 1.494.711 2.218.104.505.102 1.005-.063 1.498-1.009 1.755-2.651 1.821-4.385 1.64-.365-.44-.856-.424-1.397-.378.438.12 1.068-.305 1.165.502-1.396.887-2.895.605-4.388.403-1.094-.228-2.096-.832-3.255-.8z" fill="#6d0f15"/><path d="M62.25 152.508c-.714-.624-.717-1.693-1.318-2.312-.903-.93-2.178-.653-3.344-.596 1.148-1.768 1.695-3.676 1.357-5.792 1.069-.34 2.126-.223 3.011-.107-.925-.391-2.172.208-3.279-.267v-.366c1.422-.094 2.851.169 4.274-.263 1.072-.326 1.391.535 1.011 1.238-1.441 2.667-1 5.677-1.712 8.465z" fill="#8d141b"/><path d="M38.653 91.166c-2.967.403-5.948.723-8.895 1.236-2.095.365-4.172.702-6.302.575.001-.605.003-1.21.004-1.815.402-.404.922-.566 1.458-.642 3.976-.565 7.936-1.245 11.926-1.715.474-.056.958-.092 1.429.064.738.664 1.024 1.404.38 2.297z" fill="#690e14"/><path d="M179.897 77.383c-.582 2.31-.906 4.691-1.915 6.882-.485.34-1.035.105-1.506.177.468.103 1.025-.157 1.506.191.033.119.034.238.001.358-1.017.559-2.026 1.234-3.15.205-.521-.724-.523-1.564-.551-2.4-.009-1.052-.444-2.066-.283-3.133.023-.194.072-.381.137-.564.552-1.104 1.046-2.277 2.662-1.297.223.135.51-.462.902-.543.748-.155 1.497-.531 2.197.124z" fill="#99151e"/><path d="M140.958 143.794H67.771c-.033-.252.322-.322.697-.348.301-.021.604-.013.907-.013 23.893.004 47.786.008 71.679.013-.027.118-.059.234-.096.348z" fill="#90141c"/><path d="M29.239 70.44c-3.082.543-6.149 1.228-9.301 1.18-.563-.009-1.066.007-1.549.29-.318-1.371-.636-2.742-.996-4.297 3.998 1.074 8.008 1.571 11.846 2.827z" fill="#98151d"/><path d="M54.249 128.516c.662 2.167 1.31 4.338 1.989 6.499.596 1.898.468 2.09-1.649 2.259-1.22-.941-2.451-1.868-3.652-2.833-.276-.222-.885-.721-.265-.932 2.436-.83 2.615-3.172 3.577-4.993z" fill="#95151d"/><path d="M38.292 88.987c-3.054.483-6.105.987-9.163 1.443-1.885.281-3.78.491-5.67.732-.12-.605-.24-1.211-.36-1.816 4.443-.142 8.8-1.054 13.212-1.475.723-.069 1.144-.613 1.622-1.062.128.099.223.223.289.371.138.456.272.913.286 1.395-.026.16-.099.298-.216.412z" fill="#6d0f15"/><path d="M179.897 77.383c-1.438-.276-2.679.976-4.225.448-.651-.222-.677 1.024-1.261 1.355-.982-1.422-1.011-3.091-1.224-4.715.022-.534.059-1.064.497-1.455 2.302 1.212 4.792.567 7.2.725v.366c-1.702.405-3.441.022-4.953.194 1.431.104 3.071-.23 4.69.182-.067 1.009-.246 1.992-.724 2.9z" fill="#9c161e"/><path d="M173.326 69.443l-.006 1.395c-.987 1.43-2.554 1.661-4.081 1.953-2.056.394-4.138.593-6.225.72-.713.043-1.447.039-2.034-.496-.123-.828-.246-1.656-.37-2.484 2.372 1.039 4.78.665 7.183.159 1.849-.39 3.689-.829 5.533-1.247z" fill="#94151d"/><path d="M23.783 101.663c-.249-.958-.498-1.916-.746-2.874 1.404-.901 3.043-.535 4.562-.812 3.079-.561 6.217-.743 9.301-1.319.739-.138 1.709-.56 2.1.644-1.511.608-3.23.551-4.65 1.452-2.395-.142-4.501.74-6.543 1.849-1.381.205-2.425 1.684-4.024 1.06z" fill="#470a0e"/><path d="M69.932 51.96c.476.001.953.01 1.429.002 1.484-.027 2.52.363 2.594 2.154.051 1.225.413 2.437.636 3.655-1.313.725-2.624.679-3.935-.005-.013-1.964-.911-3.817-.724-5.806z" fill="#9f161f"/><path d="M171.868 98.424c1.532-.241 3.201-.071 4.354-1.451 1.1.909.916 2.07.64 3.25-1.106 1.476-4.179 2.006-6.476 1.118-.967-.726-1.935-1.452-2.902-2.178 1.373-.772 3.021.087 4.384-.739z" fill="#690e14"/><path d="M117.754 101.71c1.772-1.37 3.98-.392 5.877-1.093-.646 1.395-.278 2.895-.454 4.339-.962 1.277-2.132 1.546-3.525.724-.633-1.323-1.265-2.647-1.898-3.97z" fill="#811219"/><path d="M23.021 95.151c3.308.113 6.539-.511 9.754-1.138 1.855-.362 3.764.144 5.586-.503.136-.048.434.361.656.558.108.19.094.37-.042.541-.482.498-1.115.755-1.761.831-4.516.53-9.036 1.016-13.541 1.633-.692.095-1.176-.062-1.311-.818.218-.367.438-.736.659-1.104z" fill="#5d0d12"/><path d="M22.36 96.256c.859.767 1.881.357 2.739.184 3.095-.622 6.243-.748 9.359-1.149 1.543-.199 3.082-.331 4.557-.858.331.337.33.725.178 1.137-.834 1.274-2.263 1.061-3.439 1.184-3.82.402-7.598 1.122-11.429 1.423-.642.05-1.193.016-1.645-.478-.416-.267-.347-.693-.356-1.093 0-.118.012-.235.036-.35z" fill="#570c11"/><path d="M68.437 81.341c2.806.827 3.731.63 5.036-1.069 1.061-1.374 2.738-1.02 4.129-1.471.512.486.655 1.107.659 1.781-.014.297-.086.579-.228.842-.174.251-.401.433-.691.534-1.58.384-3.218.444-4.816.538-2.692.159-5.277 1.114-8.013.913-.722-.053-1.56.097-2.198.632-.127.146-.279.257-.456.335-.202.028-.369-.038-.499-.195-.364-.709-.327-1.439-.111-2.177.082-.163.206-.287.371-.366 1.392.313 2.75-.024 4.112-.24.902-.144 1.801-.156 2.705-.057z" fill="#580c11"/><path d="M98.912 171.383c-.066 1.629-.742 3.124-1.037 4.702l.003-13.416c.295.001.596.041.883-.005 1.377-.221 1.588.399 1.26 1.581-.216.782-.262 1.611-.383 2.419.805 1.734.234 3.256-.726 4.719z" fill="#88131a"/><path d="M170.386 101.341c1.667.269 3.272-.579 4.94-.276.692.126.708-.752 1.258-.825.127.122.21.268.242.441-.027.582-.232 1.177.117 1.734.001.243.002.487.003.73-1.043 2.157-2.933 1.553-4.674 1.434-.628-1.079-1.257-2.159-1.886-3.238z" fill="#640e13"/><path d="M70.656 57.766c1.312.002 2.623.003 3.935.005.243 1.452.485 2.903.728 4.355.169.154.163.301-.017.44-1.279-.387-2.623-.223-3.92-.46-.242-1.446-.484-2.893-.726-4.34z" fill="#97151d"/><path d="M177.327 106.05c2.122-.742 4.337-.913 6.553-1.078-1.895 1.898-3.951 3.598-6.203 5.058-.311-.243-.381-.593-.428-.954-.029-.609-.118-1.21-.253-1.806-.052-.358-.038-.708.137-1.037.064-.061.129-.122.194-.183z" fill="#811219"/><path d="M175.138 85.356c.948-.122 1.896-.243 2.844-.365-.868 3.208-2.019 6.388-.995 9.789-.112.396-.12.9-.768.745-.651-.64-.231-1.456-.358-2.182-1.096-1.065-.777-2.453-.86-3.749-.013-.196-.012-.394-.006-.59.059-.974-.403-1.902-.268-2.885.052-.299.166-.567.411-.763z" fill="#93151d"/><path d="M151.868 104.609c1.689-.127 3.377-.255 5.066-.382-.739 1.397-.925 3.023-1.816 4.357-.569.477-1.138.48-1.706 0-.065-1.5-1.269-2.557-1.544-3.975z" fill="#821219"/><path d="M98.912 171.383c.129-1.59.819-3.094.726-4.719.567-.588.58-1.393.854-2.214.927 2.022.875 4.215 1.632 6.187l-.003.747c-1.071.071-2.14 1.145-3.209-.001z" fill="#90141c"/><path d="M119.652 105.68c1.262.183 2.422-.133 3.525-.724 0 1.693.001 3.386.001 5.079-.594.517-1.194.452-1.797.018-.777-1.378-1.221-2.888-1.729-4.373z" fill="#7b1118"/><path d="M71.382 62.107c1.366-.434 2.728-.817 3.935.383.547.921 1.084 1.843.432 2.941-1.256.243-2.496.336-3.642-.405-.751-.846-.146-2.03-.725-2.919z" fill="#90141c"/><path d="M176.219 95.525c.256-.248.512-.497.768-.745.701 1.744 2.081 2.978 3.268 4.357-1.714-.497-2.192 1.241-3.306 1.828-.216-.027-.226-.257-.36-.365.001-.12 0-.241-.003-.361.064-1.109-.002-2.204-.362-3.267-.003-.482-.004-.964-.005-1.447z" fill="#8a131b"/><path d="M63.008 75.909c.847.969 1.693 1.938 2.54 2.907-1.426 1.088-2.965 1.099-4.572.477-.199-.033-.341-.139-.431-.317-.293-.743-.246-1.507-.16-2.276.508-1.473 1.6-1.019 2.623-.791z" fill="#6a0e14"/><path d="M72.107 65.026c1.192.109 2.435-.273 3.572.368.751.548.863 1.267.563 2.096-1.073 1.129-2.367 1.23-3.773.802.049-1.108-.679-2.129-.362-3.266z" fill="#88131a"/><path d="M172.272 104.579c.827-.531 1.769-.244 2.65-.381.779-.122 1.505-.404 2.024-1.052.127.968.253 1.936.38 2.904l-.027-.01c-1.369.895-2.784 1.251-4.305.366-.276-.595-.775-1.102-.722-1.827z" fill="#5d0d12"/><path d="M61.158 79.195c1.486.133 2.941-.086 4.39-.378.72.488 1.321 1.095 1.808 1.815-1.849.856-3.896.665-5.825 1.099l-.014.001c-.22.108-.401.062-.543-.137-.395-.836-.411-1.642.184-2.4z" fill="#640e13"/><path d="M73.91 77.729c-.028-1.099-.047-2.198-.36-3.266 1.077-.407 2.22-.53 3.337-.777.431.272.591.694.66 1.169.054.482.014.957-.095 1.428-.649 1.781-1.124 1.975-3.542 1.446z" fill="#6a0e14"/><path d="M73.91 77.729c.515-.118 1.096-.448 1.531-.312 1.144.356 1.331-.448 1.676-1.132.221.151.326.376.401.621.096.323.187.648.256.98.042.354.019.689-.284.939-.458.85-1.192.807-2.039.801-.658-.005-1.319.415-1.979.646.147-.848.292-1.696.438-2.543z" fill="#630e13"/><path d="M73.191 72.648c-.12-.726-.241-1.451-.361-2.177 1.166-.432 2.231-1.252 3.595-.934.137.13.238.281.312.454.216.906.723 1.805.067 2.732-1.205.065-2.425.731-3.613-.075z" fill="#7b1118"/><path d="M76.399 69.752c-1.225.063-2.265 1.048-3.569.719-.12-.727-.241-1.453-.361-2.18 1.19-.24 2.381-.479 3.571-.719.625.644.944 1.338.359 2.18z" fill="#811219"/><path d="M61.531 81.73c1.164-1.013 2.682-.723 4.027-1.067.565-.144 1.197-.029 1.798-.032.517-.002.861.26 1.081.71-2.289.367-4.54 1.402-6.906.389z" fill="#5d0d12"/><path d="M172.995 106.406c1.456.13 2.882-.097 4.305-.366.003.366.007.732.01 1.097-1.009 1.667-1.765 1.894-3.649 1.097-.417-.539-.61-1.159-.666-1.828z" fill="#560c11"/><path d="M73.191 72.648c1.189.293 2.38-.848 3.568.007.319.357.318.719.014 1.085-.883 1.096-2.067.852-3.224.723-.119-.605-.238-1.21-.358-1.815z" fill="#731016"/><path d="M173.66 108.234c1.358.104 2.661.028 3.65-1.097.344.564.406 1.181.35 1.822-1.103 1.39-1.725 1.514-3.583.713-.14-.479-.279-.958-.417-1.438z" fill="#4f0b0f"/><path d="M174.076 109.672c1.233-.044 2.542.294 3.584-.713.006.357.012.714.018 1.07-.594 1.018-1.518 1.969-2.575 1.93-.665-.025-.603-1.52-1.027-2.287z" fill="#470a0e"/><path d="M121.382 110.053l1.797-.018v5.136c-.695-1.967-1.6-3.406-1.797-5.118z" fill="#741016"/><path d="M63.008 75.909c-.632.565-1.724-.235-2.216.746-.184.114-.349.092-.496-.067-.611-.654.229-1.458-.218-2.129.008-.616.017-1.233.025-1.849 1.258.845 1.858 2.269 2.905 3.299z" fill="#751016"/><path d="M153.411 108.584h1.707c-.242 1.542-.896 2.937-1.707 4.787v-4.787z" fill="#7c1118"/><path d="M23.783 101.663c1.35-.318 2.595-1.039 4.024-1.061-1.244.656-2.212 1.662-3.262 2.566-.513-.371-.716-.899-.762-1.505z" fill="#95141d"/><path d="M134.443 78.812h6.129c.002.12.003.239.005.359h-6.496c.121-.12.241-.239.362-.359z" fill="#9d161e"/><path d="M180.622 74.481h-5.005c-.004-.125-.007-.25-.011-.375h5.279c-.088.125-.175.25-.263.375z" fill="#a0161f"/><path d="M58.677 143.434h3.537c.001.125.003.249.004.374h-3.273c-.089-.124-.178-.249-.268-.374z" fill="#90141c"/><path d="M126.074 76.647h-3.209c0-.122 0-.245.001-.367h3.208v.367zM126.074 75.921h-3.208v-.367h3.209c-.001.123-.001.245-.001.367z" fill="#9d161e"/><path d="M177.981 84.633h-1.365c-.005-.097-.009-.195-.014-.292.46-.025.92-.051 1.38-.076 0 .123-.001.246-.001.368z" fill="#93151d"/><path d="M86.208 58.497c-.201-1.632-1.102-3.306.34-4.84.195-.208.264-.599.611-.566 1.458.14 2.814-.684 4.142-.68 4.275.014 8.506-.393 12.739-.833 1.54-.16 3.063-.527 4.581-.86 1.708-.375 2.571.138 2.914 1.863.174.878.298 1.766.445 2.649-2.661.751-5.328 1.526-8.135 1.043-1.508-.259-3.013-.066-4.517-.139-.616-.03-1.239.029-1.559-.007 1.733.095 3.777-.087 6.01.105-.484.904-1.139.982-1.755.965-4.323-.121-8.529.78-12.771 1.386-1.006.142-2.043.329-3.045-.086z" fill="#a1161f"/><path d="M112.34 58.134c-.094 1.47.604 2.873.364 4.355-7.525.928-15.124 1.269-22.566 2.839-1.032.218-2.051-.063-3.067.13-.861-.771-.7-1.677-.349-2.609.137-2.07.31-2.309 2.3-2.418 7.594-.417 15.098-1.642 22.644-2.485.249-.028.473.038.674.188z" fill="#96151d"/><path d="M112.34 58.134c-2.077 1.207-4.44.645-6.653 1.04-3.524.629-7.098.98-10.657 1.395-2.02.236-4.069.277-6.091.357-1.57.062-2.098.481-2.006 1.927-.121.124-.242.13-.363 0-.121-1.452-.242-2.904-.362-4.355 2.182-.362 4.354-.82 6.55-1.065 3.454-.386 6.879-1.199 10.413-.62-.001-.147-.002-.295-.002-.442h-6.042c.002-.138.004-.275.006-.413 1.655 0 3.324-.139 4.962.029 3.354.343 6.56-.929 9.884-.755.119.966.24 1.934.361 2.902z" fill="#9c161e"/><path d="M86.57 62.852h.363c.142.844-.332 1.776.363 2.541.726.782.462 1.727.435 2.633-.218 1.071-.912 1.71-1.956 1.799-2.849.245-5.717.028-8.569.294-.298.028-.558-.185-.793-.374l-.013.006c-.12-.727-.24-1.453-.359-2.18.133-.768-.238-1.453-.361-2.178-.121-.968-.241-1.936-.362-2.904.001-.121.002-.243.002-.364 2.403 1.811 5.187 1.379 7.89 1.278 1.125-.041 2.24-.358 3.36-.551z" fill="#a0161f"/><path d="M87.297 67.933c0-.846-.001-1.693-.001-2.539.854-.932 2.058-.431 3.054-.607 3.99-.701 8.048-1.134 12.036-1.753 2.975-.462 6.026.144 8.899-.905.551-.201 1.041-.137 1.419.36.12.847.24 1.694.36 2.54-2.252.077-4.477.46-6.704.732-2.213.27-4.473.386-6.627.805-2.62.509-5.238.675-7.862.978-1.364.157-2.716.416-4.096.437-.17.087-.33.069-.478-.048z" fill="#91141c"/><path d="M87.658 67.935c.044-.276-.067-.815.257-.752 2.918.57 5.906-.02 8.613-.53 5.232-.987 10.603-.886 15.748-2.295.675-.185.352.658.789.672.002.242.005.484.007.725-.003.122-.005.245-.008.367-.252 1.03-.982 1.425-1.968 1.561-4.307.594-8.65.953-12.938 1.608-3.341.511-6.772.305-10.039 1.313-.228.029-.426-.036-.595-.19-.547-.859-.171-1.667.134-2.479z" fill="#8c131b"/><path d="M112.702 94.824c-.567.914-1.533-.373-2.128.386-.597-1.139-1.676-.765-2.586-.766-16.424-.017-32.849-.007-49.273-.021-1.714-.002-3.249.672-4.866 1.038-.771.174-1.816.149-2.486-.659.382-.642 1.029-.754 1.688-.851 3.535-.522 7.019-1.388 10.603-1.593.172-.01.345-.091.519-.138 5.033-.869 10.128-1.133 15.207-1.565 3.683.229 7.329-.635 11.012-.373 5.008-.076 10.015-.046 14.969.808 1.846.318 3.66.831 5.293 1.792.816.481 1.713.929 2.048 1.942z" fill="#9c161e"/><path d="M112.702 94.824c-4.482-3.63-9.927-3.625-15.254-3.976-2.286-.151-4.59-.039-6.886-.046-.367-.428-.465-.912-.304-1.451.071-.199.193-.361.363-.487 4.832-.662 9.669-1.301 14.519-1.822 2.337-.251 4.651-.642 6.979-.95 1.068-.141 2.144-.373 3.223-.042 1.227 1.507.482 3.416 1.038 5.061.125 1.427.117 2.866.364 4.285-.03.325-.179.598-.376.849l-.018 1.074c.192.404.3.766-.371.735-.99-1.181-1.653-2.693-3.277-3.23z" fill="#470a0e"/><path d="M64.084 92.639c-2.716.749-5.572.644-8.298 1.391-1.437.394-2.947.522-4.423.771-4.072.496-8.008 1.644-12.006 2.496-.285-.559-.847-1.066-.336-1.776-.002-.363-.003-.725-.005-1.088 0-.122.001-.243.002-.365h.008c.457-.452 1.047-.637 1.648-.63 4.748.061 9.352-1.171 14.047-1.612 1.773-.167 3.674-.329 5.423-.969.818-.299 1.643-.342 2.468-.018.722.409.995 1.188 1.472 1.8z" fill="#731016"/><path d="M39.02 95.521c.112.592.225 1.184.337 1.776l-.178.014-.179-.01c-.709-.581-1.453-.254-2.22-.137-4.562.696-9.108 1.539-13.743 1.625-.411-.268-.336-.694-.356-1.089 2.25-.165 4.54-.125 6.741-.548 2.518-.483 5.06-.719 7.59-1.025.754-.092 1.356-.35 2.008-.606z" fill="#4f0b0f"/><path d="M115.98 98.053c.299-.157.344-.441.371-.735.563.523.27 1.209.346 1.825-.24-.364-.479-.727-.717-1.09z" fill="#5a0d11"/><path d="M133.393 115.893c0-2.595.07-5.193-.032-7.784-.046-1.172.344-1.395 1.418-1.364 2.012.057 4.006.038 5.947.734 1.627.583 2.443 1.692 2.458 3.372.029 3.198.008 6.397.008 9.596 0 3.203-1.458 4.762-4.702 4.814-1.663.027-3.818.72-4.847-.317-.796-.801-.231-2.966-.248-4.524-.014-1.509-.002-3.018-.002-4.527zM59.694 119.114c-1.722 0-3.225-.021-4.728.008-.941.018-1.317-.089-.836-1.21.932-2.173 1.658-4.433 2.559-6.902 1.022 2.754 1.98 5.34 3.005 8.104zM111.517 111.002c1.037 2.835 1.987 5.431 2.968 8.111-1.691 0-3.254-.027-4.817.01-.943.022-1.137-.236-.765-1.153.889-2.191 1.669-4.427 2.614-6.968zM164.503 110.979c1.049 2.859 1.984 5.405 2.985 8.134-1.663 0-3.187-.018-4.711.007-.919.015-1.342-.06-.85-1.204.934-2.171 1.661-4.431 2.576-6.937z"/><path d="M131.32 40.903h-19.807l-.006-.339h19.799c.005.113.009.226.014.339z" fill="#a81720"/><path d="M160.98 73.016c4.227-.083 8.451-.182 12.34-2.178-.127.767.242 1.452.365 2.177l-.003 1.453c-.887 1.994-2.709 2.597-4.581 2.546-2.105-.057-4.097.795-6.193.509-.703-.096-.771.663-1.203.936-.531-.381-.31-.952-.365-1.453.001-.121.001-.242 0-.362-.451-.671.111-1.51-.361-2.178.001-.483.001-.966.001-1.45z" fill="#91141c"/><path d="M134.606 79.667h7.441c.002.046.005.092.007.137h-7.571c.041-.046.082-.091.123-.137zM143.934 77.46h4.976l.003.162h-4.976l-.003-.162zM155.34 75.624h3.755c-1.302.386-2.605.33-3.755 0zM146.615 76.741h2.384c-.003.055-.006.111-.009.166h-2.525c.05-.055.1-.111.15-.166zM158.082 76.752c-1.027.467-1.947.153-2.868 0h2.868zM160.98 74.467c.656.637.246 1.451.361 2.178-.656-.637-.245-1.451-.361-2.178zM157.864 76.706c.748-.478 1.183-.514 1.697-.266-.489.389-1.015.109-1.697.266z" fill="#9d161e"/><path d="M128.675 86.446h3.632c-.195.602-.808.173-1.188.702 1.404-.039 2.604.225 3.847-.564.613-.389 1.678-.263 2.488-.108 2.147.409 3.97-1.074 6.064-.927.258.018.73-.37.794-.642.393-1.679 1.688-1.305 2.84-1.373 4.612-.274 9.187-.844 13.712-1.795.475-.1.803-.215.843-.739.22-.111.402-.066.548.132.616 1.812.754 3.678.633 5.573-.651 1.631-1.909 2.298-2.083.572-.02-.199-.317-.127-.488-.074-2.845.882-5.901.466-8.724 1.343-1.74.541-3.403 1.042-5.238.607-.656-.155-1.195.163-1.384.859-.373 1.377-1.385 1.605-2.639 1.667-3.95.194-7.904.407-11.715 1.629-.536.172-1.073.117-1.571-.181-.153-.135-.265-.299-.34-.488-.217-1.384-.555-2.754-.526-4.169.204-.665-.504-1.555.495-2.024z" fill="#98151d"/><path d="M128.675 86.446v1.815c-1.898.813-3.947.917-5.947 1.193-1.302.18-2.616.507-3.932.402-1.245-.099-1.662 1.375-2.828 1.31-.693-1.625-.111-3.438-.751-5.071-.031-.067-.062-.135-.093-.202.05-.054.101-.109.151-.163.574-.412.12-1.174.657-1.746 1.175.903 2.337 1.226 3.704.061.496-.423 1.614-.131 2.448-.137 2.083-.014 4.172.093 6.229-.366.289.947.449 1.91.362 2.904z" fill="#96151d"/><path d="M162.068 81.001c-.12 0-.241-.001-.361-.002-.001-.846-.001-1.692-.002-2.538-.03-1.332.147-2.269 1.793-1.203.676.438 1.199-.43 1.804-.498 1.19-.134 2.4-.088 3.602-.115 1.904-.043 3.444-.883 4.778-2.176.243 1.572.486 3.145.729 4.717-.001.121-.003.242-.004.363-.374.175-.729-.341-1.026-.121-1.637 1.209-3.608.822-5.419 1.17-1.178.226-2.382.231-3.523.735-.784.347-1.661.347-2.371-.332z" fill="#8b131b"/><path d="M88.021 70.476c.793-1.33 2.231-.927 3.333-1.032 5.939-.565 11.872-1.133 17.754-2.169 1.369-.241 2.947.303 3.956-1.153.027.98.548 1.899.361 2.905-.277 1.122-1.12 1.387-2.14 1.584-2.196.425-4.441.139-6.639.607-2.937.626-5.94 1.189-8.922 1.064-2.668-.112-5.101.581-7.609 1.139-.844-.956-.739-1.942-.094-2.945z" fill="#87131a"/><path d="M88.384 73.379c1.62-1.086 3.366-1.723 5.357-1.68 2.781.06 5.543.087 8.288-.679 1.578-.441 3.293-.561 4.941-.534 1.701.028 3.324-.476 5.011-.456.638.008 1.004-.604 1.444-1.003.119.966.239 1.931.358 2.897-3.697 1.429-7.628 1.543-11.49 1.879-4.069.354-8.079 1.113-12.139 1.484-.435.04-.829.168-.994.64-.09.163-.209.301-.354.417-.184.07-.357.047-.518-.066-.237-.297-.307-.654-.365-1.016-.045-.674-.458-1.443.461-1.883z" fill="#801219"/><path d="M114.9 82.088c-.013.126-.026.253-.039.379-.271.227-.046.774-.549.853-2.96-.04-5.859.539-8.763.98-1.063.162-2.111.418-3.197.472-2.997.15-5.95.743-8.957.853-.971.036-2.075.063-2.838.925-.109.153-.246.27-.411.359-.204.024-.366-.047-.49-.21-.152-.254-.227-.531-.261-.823-.039-.593-.07-1.185-.002-1.779.09-.93.735-1.108 1.521-1.185 4.774-.468 9.524-1.146 14.278-1.764 2.194-.285 4.37-.752 6.588-.812 1.218-.033 1.738-1.149 2.722-1.504.01.117.023.234.041.35.119.97.238 1.938.357 2.906z" fill="#640e13"/><path d="M114.501 78.834c-.43 2.129-2.203 2.018-3.738 2.149-3.983.339-7.908 1.087-11.863 1.589-2.758.35-5.533.705-8.312.879-.776.048-.745.324-.752.821-1.47-.755-.722-1.965-.628-3.043.1-.201.261-.329.477-.388 4.128.079 8.1-1.122 12.174-1.531 1.863-.187 3.732-.213 5.589-.431 1.44-.169 2.874-.351 4.289-.692.936-.226 1.908-.441 2.766.277-.002.122-.002.246-.002.37z" fill="#690e14"/><path d="M113.787 72.657c.034.976.546 1.894.357 2.898-3.422.752-6.928.927-10.375 1.516-4.516.771-9.136.82-13.611 1.905-.352.085-.719.081-1.084.042-.221-.033-.394-.142-.524-.322-.381-.841-.403-1.653.198-2.413h.003c.441-.779 1.25-.665 1.937-.732 6.901-.668 13.762-1.681 20.664-2.33.854-.081 1.556-.68 2.435-.564z" fill="#771117"/><path d="M89.11 78.825c4.567-1.571 9.398-1.433 14.094-2.167 3.125-.488 6.276-.803 9.402-1.284.581-.089 1.048-.087 1.538.18l.006.732c-.226.675-.613 1.097-1.389 1.203-6.99.951-13.94 2.232-21.003 2.584-.904.045-1.634.342-2.282.929h-.006c-.214.113-.393.072-.537-.122-.375-.722-.35-1.41.177-2.055z" fill="#721016"/><path d="M89.476 81.002c-.138-1.076.283-1.492 1.413-1.472 5.295.095 10.444-1.215 15.678-1.679 2.098-.186 4.087-1.06 6.217-.837.652.069.963-.39 1.366-.728.117.725.235 1.45.352 2.176-4.443.533-8.875 1.201-13.331 1.552-3.235.255-6.37 1.08-9.59 1.344-.723.059-1.453.051-2.105-.356z" fill="#6d0f15"/><path d="M113.787 72.657c-.69.891-1.607 1.125-2.706 1.101-3.293-.072-6.473.799-9.696 1.299-1.843.286-3.696.05-5.556.436-2.314.481-4.715.546-7.079.79-.049-1.034.082-1.664 1.483-1.553 1.398.11 2.864-.125 4.246-.444 3.63-.838 7.355-.741 11.014-1.265 2.241-.321 4.482-.664 6.735-.864.531-.047.875-1.496 1.555-.231.001.242.002.486.004.731z" fill="#7c1118"/><path d="M129.038 92.979c1.906-.318 3.813-.63 5.655-1.247.388-.13.815-.175 1.227-.198 2.398-.134 4.796-.258 7.196-.365.577-.026 1.073-.044 1.172-.796.226-1.723 1.503-2.232 2.81-1.679 2.133.903 3.643-.867 5.539-.901 1.904-.034 3.802-.404 5.704-.618.359-.04.846.105 1.063-.081 1.426-1.225 1.896-.584 1.846.995.86-.148 1.112-.637 1.182-1.281.197-.119.369-.09.519.085.482.802.23 1.764.572 2.598.098.719.233 1.445-.367 2.037-2.174-1.462-4.54-.519-6.659-.142-2.925.52-5.862.48-8.779.816-1.43.165-2.391.777-2.838 1.957-.347.918-.867.944-1.628 1.015-4.374.412-8.766.721-13.006 2.02-.237.073-.561-.141-.844-.221-.001-.121-.001-.242-.001-.363-.4-1.183-1.412-2.304-.363-3.631z" fill="#95151d"/><path d="M175.494 89.352c-.088 1.349.084 2.675.366 3.99-.655.484-.162 1.264-.47 1.838-1.347-.113-2.702-.24-3.965.383-1.092.539-2.275.093-3.358.352-1.446.346-3.323.073-3.824 2.149-.897-.946.176-2.327-.722-3.273 0-.604.001-1.208.001-1.812 1.756-.909 3.742-.704 5.6-1.135.982-.228 2.007-.448 3.026-.429 1.59.031 2.188-1.451 3.346-2.063z" fill="#731016"/><path d="M163.155 91.527v-2.174c-.373-1.068.518-.997 1.072-1.108 1.403-.283 2.823-.535 4.253-.577 2.336-.068 4.499-.784 6.652-1.582.121.967.241 1.934.362 2.902-3.211 1.889-6.737 2.349-10.361 2.132-1.025-.061-1.103.735-1.614 1.14-.29-.163-.354-.435-.364-.733z" fill="#7c1118"/><path d="M163.518 92.257c-.025-1.281.05-1.822 1.845-1.588 2.845.37 5.769-.178 8.471-1.391.531-.239 1.019-.685 1.659-.292 0 .122.001.244.001.366-.693 1.837-2.029 2.48-3.974 2.603-2.676.169-5.277 1.082-7.998 1.025-.001-.24-.003-.482-.004-.723z" fill="#781117"/><path d="M49.571 68.382h4.259c-1.418.328-2.837.339-4.259 0z" fill="#a3171f"/><path d="M49.196 72.6h-2.824c.946-.223 1.897-.562 2.824 0zM49.184 72.653c1.084.161 2.245-.364 3.267.363-1.089.279-2.178.279-3.267 0v-.363z" fill="#9c161e"/><path d="M60.078 74.459c.64.643.247 1.456.362 2.186-1.815.916-3.824.952-5.772 1.193-2.504.31-5.088.433-7.504.923-2.904.588-5.882.304-8.718 1.148-.392.117-.826.207-1.238.001-.125-.725-.491-1.409-.367-2.176 0-.242.001-.485.002-.727 1.977-.867 4.05-1.157 6.197-1.095 2.834.081 5.586-.61 8.347-1.077 2.462-.416 5.003.245 7.405-.708.557-.221.811.297 1.042.713.006.011.129-.011.143-.041.046-.107.069-.225.101-.34z" fill="#98151d"/><path d="M42.686 73.849c-2.03.401-3.547.207-5.066 0h5.066zM49.184 73.016h3.267c-1.089.58-2.178.58-3.267 0z" fill="#a0161f"/><path d="M176.588 100.6c.12.122.24.243.36.365-.001.483-.003.967-.004 1.45-.597-.511-.271-1.203-.356-1.815z" fill="#690e14"/><path d="M37.209 79.91c1.627-.794 3.413-.995 5.155-1.047 3.46-.104 6.808-.981 10.24-1.24 2.627-.198 5.188-.945 7.837-.978.117.002.235.005.352.01.003.842.007 1.683.01 2.524.356.815-.173 1.022-.763.908-3.536-.683-6.896.665-10.355.883-2.152.136-4.317.244-6.472.446-1.93.182-3.724.91-5.641 1.033l-.005.004c-.121-.726-.242-1.452-.362-2.178.001-.121.002-.243.004-.365z" fill="#95151d"/><path d="M129.038 92.979c-.22 1.244.417 2.402.362 3.63-1.768-1.638-3.65-.312-5.452-.134-1.596.158-3.136.777-4.767.864-1.114.06-2.229.178-2.814-1.096-.006-.24-.011-.481-.017-.721.329-2.441.529-2.63 3.138-2.658 1.087-.012 2.144-.086 3.151-.547 1.758-.806 3.662-.363 5.487-.614.674-.093.655.56.911.913 0 .121.001.242.001.363z" fill="#8c131b"/><path d="M37.572 82.45c1.087-1.128 2.612-1.193 3.972-1.386 2.896-.411 5.833-.735 8.752-.727 2.425.007 4.649-1.087 7.1-.897.848.066 1.726-.309 2.57.219.512.32.778.066.836-.48.119.005.237.01.355.015.003.844.006 1.688.009 2.531-3.105.997-6.377.986-9.543 1.592-4.007.767-8.142.363-12.108 1.432-.516.139-1.073.154-1.583-.119-.431-.675-.373-1.431-.36-2.18z" fill="#91141c"/><path d="M37.933 84.63c2.022-.437 3.955-1.119 6.107-1.146 4.68-.058 9.292-.964 13.921-1.608 1.067-.148 2.124-.382 3.206-.151.117.002.234.004.351.005.005.845.011 1.69.017 2.534-.399.451-.947.487-1.488.521-6.419.408-12.755 1.554-19.153 2.15-.98.091-1.917.885-2.953.234-.002-.121-.004-.241-.007-.362-.001-.483-.003-.967-.004-1.45 0-.242.002-.484.003-.727z" fill="#8c131b"/><path d="M114.518 83.178c.008-.288.059-.556.343-.711.137 1.088.275 2.175.413 3.262l-.065-.034c-3.907.237-7.733 1.153-11.632 1.423-3.549.246-7.022 1.073-10.568 1.281-.87.051-1.637.36-2.442.589-.004.124-.008.247-.012.371-.222.102-.403.052-.545-.147-.392-.837-.405-1.644.187-2.404l.007.002c1.334-.705 2.826-.467 4.239-.688 6.044-.942 12.129-1.575 18.188-2.405.656-.088 1.315-.16 1.887-.539z" fill="#570c11"/><path d="M38.292 88.987c.002-.121.004-.243.007-.364 2.726-.117 5.407-.361 8.12-.882 2.646-.508 5.341-1.441 8.162-.887 1.056.208 2.213.027 3.203-.31 1.435-.489 2.81-.464 4.24-.208.873.542.693 1.317.465 2.104-.101.188-.254.311-.456.375-3.456 1.251-7.145.975-10.705 1.603-3.548.625-7.15 1.041-10.755 1.325-.65.051-1.321.283-1.909-.217-.002-.12-.005-.241-.009-.361.132-.768-.239-1.452-.363-2.178z" fill="#801219"/><path d="M62.629 91.162c-1.094-.211-2.164.381-3.118.348-1.968-.067-3.766.657-5.599.966-1.746.294-3.551.239-5.331.67-2.293.555-4.793 1.096-7.255.748-.813-.115-1.521.367-2.302.174-.001-.242-.002-.485-.002-.727.356-1.054 1.287-1.138 2.18-1.308 4.675-.891 9.394-1.428 14.138-1.747 1.811-.122 3.55-.672 5.358-.779.649-.038 1.03-.588 1.545-.884h.012c1.296.674.921 1.594.374 2.539z" fill="#781117"/><path d="M62.243 88.623c.069.97-.364 1.333-1.35 1.476-6.739.977-13.567 1.218-20.271 2.491-.644.122-1.07.498-1.6.751-.344-.561-.404-1.178-.359-1.815 5.983-.728 11.984-1.34 17.937-2.261 1.55-.24 3.415.447 4.731-1.063.062-.071.597.271.912.421z" fill="#7c1118"/><path d="M171.839 98.377h-1.364c-.016-.086-.037-.155-.028-.16.519-.246 1.006-.262 1.392.16z" fill="#690e14"/><path d="M162.793 86.81c-.12-.001-.241-.002-.361-.003.238-1.958-.502-3.855-.363-5.806 2.199.395 4.125-.899 6.272-1.006 1.448-.073 3.188.454 4.332-.738.961-1.001 1.289-.585 1.736.292.121 1.089.241 2.179.362 3.268-.982.984-2.216 1.384-3.556 1.569-1.844.254-3.685.524-5.52.84-1.186.204-2.171.623-2.902 1.584z" fill="#87131a"/><path d="M162.793 86.81c-.022-1.246.552-1.626 1.822-1.897 3.38-.724 6.93-.645 10.155-2.096-.107.88.152 1.706.369 2.539l-.006.729c-2.164 2.193-5.084 1.677-7.725 2.208-1.425.287-3.062-.182-4.252 1.06-.693-.766-.222-1.698-.363-2.543z" fill="#811219"/><path d="M61.897 86.428c-.03.116-.06.231-.09.347-2.915-.792-5.679 1.38-8.626.426-.732-.237-1.535.069-2.3.282-2.301.643-4.711.987-7.032 1.242-1.737.19-3.766 1.471-5.551-.102-.252-.452-.429-.922-.359-1.454 3.262-1.02 6.605-1.411 10.018-1.483 1.969-.042 3.938-.489 5.863-.836 2.579-.466 5.128-.582 7.713-.585.114.003.227.006.341.008.604.712.615 1.431.023 2.155z" fill="#87131a"/><path d="M175.555 74.898h2.399l.012.174h-2.381c-.01-.059-.02-.116-.03-.174z" fill="#a0161f"/><path d="M61.897 86.428c-.007-.719-.015-1.437-.022-2.156l.022-.003c1.11-.744 2.421-.694 3.654-.826 3.352-.36 6.675-.957 10.04-1.205.647-.048 1.326-.133 1.904-.512l.357-.36c.788.503.784 1.325.86 2.117-.036.864.291 1.682.339 2.536-.014.836.171 1.649.312 2.466.058.723.059 1.45.132 2.173-.003.19-.072.353-.206.488-5.069.498-10.138.995-15.206 1.493-1.221.234-.956-.998-1.455-1.476-.149-.843.306-1.775-.374-2.54-.108-.733.261-1.544-.357-2.195z" fill="#470a0e"/><path d="M78.246 83.546c-.131-.727-.262-1.453-.393-2.18.007-.241.014-.482.021-.724.339-.304.397.947 1.015.1.475-.652 1.559-.505 2.401-.553 2.545-.144 4.978-.889 7.46-1.371.12.001.24.004.359.006.001.725.001 1.449.002 2.174.307 2.012.207 2.138-1.574 2.348-2.453.29-4.928.36-7.372.752-.699.113-1.468.281-1.919-.552z" fill="#8c131b"/><path d="M88.75 78.819c-.08.348.183.82-.569.838-2.915.069-5.688 1.248-8.632 1.147-.562-.019-1.237 1.14-1.676-.161-.127-.606-.255-1.212-.383-1.818-.002-.363-.004-.726-.006-1.09 3.679-.149 7.291-.792 10.901-1.455.12.001.241.002.361.003.002.845.003 1.691.004 2.536z" fill="#90141c"/><path d="M77.496 81.727c-.092.997-1.011.833-1.538.9-4.68.6-9.372 1.108-14.06 1.643.004-.494-.006-.979.667-1.08.651-.098 1.298-.358 1.943-.345 4.093.082 8.043-1.187 12.118-1.23.289-.003.579.072.87.112z" fill="#4f0b0f"/><path d="M88.384 73.379c-.511.604-.057 1.209-.003 1.813-1.139.369-1.031-.467-1.16-.839.026.615-.382.999-1.356 1.107-1.971.218-3.955.299-5.918.676-.989.19-1.673 1.246-2.798.869-.011-.24-.022-.48-.032-.72.008-.487.016-.973.024-1.46.353-2.737.662-3.094 3.558-3.01 2.126.062 4.125-.907 6.266-.591.379.056.398-.551.694-.751.12.001.241.002.361.003.16.963-.36 2.011.364 2.903z" fill="#99151d"/><path d="M87.66 70.473v1.559c-.94-.558-1.75-.487-2.634-.283-1.266.291-2.552.762-3.868.522-2.178-.398-3.485.433-4.016 2.554-.123-.362-.245-.723-.368-1.085-.005-.362-.009-.723-.014-1.085-.116-.97-.232-1.939-.348-2.909 3.036-.489 6.097-.342 9.152-.362.98-.006 1.59-.449 1.733-1.451.121.001.241.001.362.002 0 .846.001 1.692.001 2.538z" fill="#9c161e"/><path d="M77.15 77.005c1.67-1.548 3.827-1.527 5.883-1.802 1.115-.149 2.242-.227 3.366-.273.955-.039.229-.925.715-1.198.447.43.323 1.426 1.269 1.459.002.362.003.725.005 1.087-.062.316.14.844-.398.834-3.129-.06-6.131.986-9.252 1.044-.551.01-.892-.106-1.252-.423-.296-.157-.348-.428-.336-.728z" fill="#95151d"/><path d="M79.29 91.146c.003-.111.003-.222 0-.333.045-.112.077-.277.165-.308 3.49-1.239 7.008-2.239 10.748-1.159.117.003.234.008.351.015l.009 1.44c-3.767-.176-7.503.645-11.273.345z" fill="#791117"/><path d="M129.037 92.616c-1.443-.801-3.069-.516-4.468-.252-2.202.415-4.317 1.18-6.628 1.051-.827-.046-1.508.531-1.119 1.568.212.564.216.821-.472.539-.354-1.432-.425-2.89-.383-4.357.926-1.853 2.591-1.846 4.361-1.916 2.799-.112 5.515-1.05 8.347-.989.121 1.453.241 2.905.362 4.356z" fill="#90141c"/><path d="M90.566 88.99c.516-.899 1.377-.997 2.307-1.108 5.445-.648 10.884-1.347 16.325-2.025 1.765-.22 3.529-.448 5.299-.617.221-.021.475.296.713.456.002.133.005.266.008.399-3.128.479-6.246 1.025-9.384 1.421-4.683.592-9.382 1.062-14.068 1.638-.459.056-.816.007-1.2-.164z" fill="#4e0b0f"/><path d="M139.511 113.666c0 1.451.001 2.903.001 4.354-.75.542-1.538.831-2.438.361 0-1.572.001-3.144.001-4.716.812-.622 1.624-.622 2.436.001z" fill="#7b1117"/><path d="M137.074 118.382c.799-.216 1.593-.463 2.438-.361.015.776.035 1.551.045 2.327.013 1.071-.757 1.215-1.564 1.293-1.018.099-.982-.61-.969-1.29.014-.657.034-1.313.05-1.969z" fill="#741016"/><path d="M139.511 113.666h-2.436c-.017-.482-.15-.998-.023-1.439.161-.56-.648-1.648.624-1.622 1.025.021 2.269.126 1.898 1.798-.09.406-.045.841-.063 1.263z" fill="#801219"/><path d="M114.518 83.178c-.075.988-.766 1.015-1.543 1.107-3.27.391-6.52 1.011-9.799 1.243-4.189.296-8.283 1.291-12.474 1.49-.162.008-.332-.135-.498-.207-.084-.79.096-1.073 1.038-1.364 2.408-.744 4.967.083 7.361-1.012.787-.36 2.026.087 3.119-.101 3.63-.624 7.3-1.012 10.94-1.59.757-.12 1.264.184 1.856.434z" fill="#5d0d12"/><path d="M78.246 83.546c2.368.31 4.654-.531 7.011-.52.673.003 1.409-.288 2.109-.193 1.488.202 1.935-.489 1.747-1.834.119.002.239.003.358.003.162 1.085-.355 2.245.366 3.268-.001.603-.002 1.206-.003 1.81-3.184-.03-6.378-.255-9.512.593-.656.177-1.342.198-1.71-.585.011-.867-.551-1.651-.366-2.542z" fill="#87131a"/><path d="M78.61 86.087c1.993.563 3.826-.521 5.768-.561 1.849-.038 3.697-.243 5.455.554l.006.726c.485 1.08-.151 1.469-1.048 1.552-2.584.238-5.107.928-7.715 1.002-.832.024-1.565-.049-2.119-.737-.215-.832-.488-1.655-.347-2.536z" fill="#811219"/><path d="M78.956 88.623c1.886.654 3.781 0 5.641-.125 1.442-.097 2.87-.722 4.39-.616.759.053.855-.489.851-1.076.12.002.239.003.359.004l.006 2.537c-3.717-.107-7.344.459-10.912 1.466-.618-.653-.239-1.458-.335-2.19z" fill="#7c1118"/></svg>