<svg xmlns="http://www.w3.org/2000/svg" viewBox="0 0 200 200"><path d="M16.5 174.7V.9c0-.9.2-1 1-1h165c.8 0 1 .1 1 1v172.5c-.2 1.6 0 3.2-.3 4.8-1 7.1-4.7 11.5-11.4 13.7a36.3 36.3 0 01-11.4 1.6h-49.2c-2.6 0-5.1.6-7.4 2a7.3 7.3 0 00-2.8 3.1c-.2.5-.5 1-1 1.3h-.2a3 3 0 01-.7-1 7.8 7.8 0 00-4.7-4.3c-2-.7-3.9-1-6-1H39.4c-4.6 0-9.1-.6-13.4-2.5-5.7-2.7-8.4-7.4-9.2-13.4-.1-1 0-2-.2-3z"/><path d="M20.7 94.8V5.4c0-1 .1-1.3 1.2-1.3h156.3c1 0 1.1.3 1.1 1.2v166.1a29 29 0 01-1.4 9.3c-1.1 3.2-3.3 5.3-6.3 6.5-3 1-6 1.6-9.1 1.7-17.1.4-34.2 0-51.2.2-4 0-7.6 1-10.8 3.2-.5.3-.6.2-1 0a17.7 17.7 0 00-7.7-3c-2-.3-4-.2-6.1-.2H39.3c-4-.1-8-.5-11.7-2.3a10 10 0 01-5.4-5.5c-.8-2-1.3-4.3-1.3-6.5-.5-28.6 0-57.2-.2-80z" fill="#fefefe"/><path d="M24.9 95.8v-1V9.4c0-1 .2-1.2 1.1-1.2h148c1 0 1.2.2 1.2 1.2V90c-.6.5-1.1 1-1.1 1.8-.5 2.5-1.4 5-2.2 7.3-1.5 4.5-4 8.4-7 12a16.6 16.6 0 01-5.5 4.2c-1 .5-1.2.3-1.2-.8a43.7 43.7 0 014.6-19.8c1.1-2.2 2.2-4.6 3.7-6.7.5-.6.8-1.3 1.2-1.9.3-.5.6-1 .2-1.4-.5-.5-1-.4-1.5-.1-2.4 1.3-4.6 3-6.5 5.2l-1 1c-.4.5-.6.3-.6-.2 0-.7.1-1.6-.8-1.8-.9-.1-1.4.6-1.9 1.1-1.6 2-3 4-3.7 6.5l-.4 1.6c-.2.5-.5.8-1 .5-1-.4-1.6 0-2 .8-1 1.5-1.9 3-2.4 4.8-.5 1.6-.3 3.2-.2 4.8l.1 1.2c.1.4 0 .7-.6.7-3.3.2-4.3 2.7-5.3 5.3-.3.9.3 1.5 1.2 1.2 1.7-.4 3.3-.2 4.8.7l1 .7c.8.7.8 1.2-.1 1.7-2.5 1.3-5 2.5-7.1 4.2-1.3 1-2.5 1.8-3.4 3-.4.6-.7.5-1.1.1a4.3 4.3 0 01-1.5-3v-1.3c0-.4 0-.9-.4-1.1-.5-.3-.8 0-1.2.2-2.2 1.4-2.6 3.4-2.3 5.7.1.7 0 1-.6 1.3-2 1-2.6 2.6-2.6 4.6 0 .4 0 .9.2 1.3.2.7 0 1.1-.7 1.4-1.6.7-2.4 2-2.6 3.7-.1 1 .2 1.4 1.2 1.5.6 0 .8.4.8.9v1.2c-.5 3.1-.3 6.3-.1 9.4.2 3.4.7 6.8 1.6 10.2.4 1.2.8 2.4 1.5 3.5.5.8.4 1.4-.4 2-.8.6-1.6 1.4-2 2.5a5 5 0 00.9 4.4c1.3 1.8 1.3 2 .2 3a3.1 3.1 0 01-4 .6c-1.6-1-2.8-2.4-3.7-4a18.8 18.8 0 01-2.5-6.8c-.2-1.6 0-3.2.4-4.8.5-3 1.1-5.8 1.4-8.7.6-6.5.3-12.9-1.1-19.2-.6-2.9-1.8-5.6-2.7-8.3a6 6 0 01-.4-2.4c0-1 .3-1.2 1.2-.8 1.2.5 2.4 1 3.7.7.4 0 .8-.2 1-.6.1-.5-.1-.9-.4-1.2l-.4-.3a4.8 4.8 0 01-1.6-4.4l.3-1c.4-.9.7-1 1.6-.5.9.4 1.8.8 2.8.9.6 0 1.3 0 1.7-.6.4-.5 0-1-.3-1.5-.2-.4-.5-.8-.6-1.3 0-.2 0-.5.2-.6.2-.1.4 0 .6.2 2.7 2.7 6.3.8 8.1-1.4.9-1 .6-1.7-.7-2l-1.2-.2c-.7 0-1.3-.4-1.9-.8-.2-.2-.5-.5-.3-.8.2-.3.6-.2.8 0 .8.4 1.6.5 2.4.6 1.2.2 1.9-.2 2.1-1.4.4-1.6.5-3.3-.3-4.9l-.4-.8c-.1-.4-.1-.8.5-.8.7 0 1-.6 1.2-1.2.3-1 .4-2 .2-3-.3-1-.2-1.2.8-1.4 1.8-.2 3.2-1 4.1-2.6.9-1.3.6-2-1-2-1.3-.1-2.5-.4-3-1.8-.2-.3-.4-.7-.2-1 .7-.8.8-2 2-2.4.7-.3 1-.7.7-1.4-.1-.4-.3-.7-.3-1.1-.1-.7 0-1.4.6-1.9 1.3-1 1.8-2.5 1.8-4.2 0-1 .2-2 .5-3 .2-1-.1-1.5-1.1-1.6h-.4c-.3 0-.6 0-.8-.3 0-.3.2-.4.4-.6a10 10 0 013.9-2.7l2-.7c.5-.2.8-.4.8-1 0-.4-.3-.6-.7-.7-.4-.2-.9-.4-1.3-.4-.9.2-1.5-.2-2-.8-.8-.8-1.8-1-2.9-.7-.5.1-1 .4-1 1 0 .5.3.8.7 1 .3.2.8.3.6.8-.3.5-.8.5-1.1.2-2-1.2-4.2-1.8-6-3.1-.3-.2-.5-.3-.6-.6a1 1 0 01.1-1.1c.3-.3.7-.3 1 0 .6.4 1.2.8 1.8 0 .6-.7.6-1.4 0-2.3-.3-.3-.4-.7-.2-1.1.5-1 0-2-.3-3-.2-.6-.7-.8-1.3-.7-1 .3-2 .7-2.7 1.7-.3.5-.7.7-1.3.7-1 0-1.7.4-2 1.4-.4.9 0 1.5 1 1.5.4 0 .8-.2 1.1.3.2.2.1.5 0 .6-.4.4-1 .4-1.4.2l-5.4-1.8c-.5-.1-.7-.4-.7-1 .1-.4.6-.5 1-.4.6 0 1.2 0 1.4-.7.3-.7-.3-1.2-.8-1.7-.4-.3-.9-.5-1.4-.4-.9.2-1.5-.1-2-.8l-.9-.6c-.4-.2-.9-.4-1.4 0-.4.3-.4.8-.2 1.2.3 1.3.7 2.4.9 3.7v.3c.8 3.4-1.4 4.7-4 4.8-1.7.2-3.5.1-5.2 0-2.3 0-3.3.9-4 2.8-.7 2-.7 4.2.6 6.1a5 5 0 002.3 1.8c1 .4 1.3 1.3 1.5 2.2 0 .3 0 .8-.4.7-2.6 0-5.1.7-7.6-.1a5 5 0 01-2.5-1.6c-1-1.4-1-2.7.1-4l.4-.4c.5-.7.3-1.3-.5-1.7-2-.8-5.1.3-6.3 2.2-1.7 3-.8 5.7 2 7.3a20 20 0 007.5 2.6l3 .5c1 .2 1.2.7 1 1.6-.2 1-1 1.5-1.6 2.1-.4.4-1 .7-.8 1.4.2.6.7.8 1.3 1 .5.2 1.3.1 1.3.7 0 .7-.6 1-1.2 1.3-1.7.8-3.6 1-5.4.3a4.2 4.2 0 01-2.8-3c-.3-1.1-.9-1.3-1.8-.7-.6.4-1 1-1.3 1.6-.4.8-.7.9-1.4.2-2-2.3-3.8-4.7-5.6-7.2-1.6-2.3-3-4.7-4.4-7.1a30.4 30.4 0 01-3.6-10.7c-.2-1.3.2-2.4 1.3-3.2l1-.9c3-2 3.4-6.8 1.7-9.3a6 6 0 00-2.8-2.2c-.9-.4-1.3-.1-1.5.9 0 .3 0 .7-.3.8-.4 0-.5-.3-.6-.6A5 5 0 0075 49c-.6-.2-.7-.6-.8-1.2 0-2.7-1.6-4.3-3.8-5.5-1.2-.6-2 0-1.9 1.3.1 2-.7 3-2.7 3-1.9.2-3.2 1.1-4 2.8l-1 2.3c-.4.9-1.2 1.3-2.1 1-1.8-.6-3.5-.9-5.3 0-1.3.5-2 1.5-2.6 2.7-.4 1.2.1 2 1.4 2 1 0 1.8.2 2.4 1 .3.3.5.8.3 1.3-.5 1.3-.7 2.6.2 3.8 1 1.6 2.4 2.7 4.3 2.8 1 0 1.6.4 2 1.3.4.9 1 1.7 1.6 2.3.5.4.7.9.1 1.4-.8.8-1.3 1.9-1.8 2.9s-.9 1.2-2 .8c-.6-.2-1.2-.8-1.8-.2-.6.6-.4 1.4-.3 2 .7 3.1 3 5 6.2 5.4.4 0 .8 0 1.1.2 1 .5 2.2.7 3.4.6.5 0 .8.2.8.8 0 2 1.2 3.7 2.2 5.3 1.2 1.7 2.3 3.3 3.2 5.1l.5 1.2c.3 1.4.2 1.5-1.1 1.7-.7.1-1 .6-.9 1.4.1.6.7 1.1.3 1.7-.4.5-1.2.4-1.8.5-4.1.1-8.2 1-12.4 1.3-1.9.1-3.7-.1-5.2-1.4l-2-1.1c-1-.5-1.6-1.3-1.9-2.3l-.4-1a3.9 3.9 0 00-2.8-2.8c-1-.2-1.6-.8-2.3-1.4-1.6-1.7-3.7-2-5.9-1.5-.6.2-1 .5-1.2 1.2-.1.6.4.8.8 1l.3.3c.5.5.7 1 .3 1.5-.3.5-.8.7-1.5.4a7 7 0 00-7 0l-1.2.2c-1.1 0-2.3.1-3.3.7h-.5z" fill="#d6141a"/><path d="M24.9 95.8a5.4 5.4 0 013.8-1 2 2 0 001.1-.4c2.5-1.4 5-1 7.3.2.6.3.9 0 1.1-.3.4-.3.3-.7-.1-1l-.6-.5c-.5-.2-1-.5-1-1.2.2-.6.6-1.1 1.2-1.3 2-.7 4-.5 5.8.7.5.3 1 .6 1.2 1.1.4.7 1.3.8 2 1 1.8.5 2.5 1.8 3 3.4.3 1.2.9 2.3 2.2 2.8 1.4.6 2.6 1.8 4.2 2.2 1.7.3 3.3 0 5-.2 1.4 0 2.9-.4 4.3-.5l7-.6c.5 0 .5-.3.4-.7l-.5-1c-.3-1.2.4-2 1.5-1.7.6 0 .8-.1.7-.7a9.6 9.6 0 00-1.4-3.3L70 88a7.2 7.2 0 01-1.6-4.3c0-.2.2-.6-.3-.5-1.5.2-2.8-.5-4.2-.7-1.5-.3-2.8-.7-4-1.4-1.8-.9-3.3-3.9-3-5.8.1-1 1-1.4 1.9-1 .1.1.2.3.4.3 1.1.5 1.4.4 1.9-.8a7.2 7.2 0 012.4-3.3 9.1 9.1 0 01-2.7-3.6c-.2-.5-.6-.3-1-.3a6.2 6.2 0 01-5.4-3.9c-.4-.9-.3-1.8 0-2.8.5-1 0-2-1.2-2.3h-.8c-.8 0-1.4 0-1.8-.8-.5-.8-.2-1.5.2-2.2a5.6 5.6 0 016.8-2.6l1.4.4c.8.2 1.3-.3 1.6-1 .6-1.6 1.1-3.2 2.6-4.2.9-.6 1.7-1 2.8-1 1.5.1 2.4-.9 2.3-2.4-.1-.8-.4-1.5.5-2 .8-.4 1.6 0 2.2.4 2 1.4 3.7 3 3.5 5.8 0 .5.3.5.5.6a5 5 0 012.8 3c.4-.2.1-.5 0-.8 0-1 .8-1.5 1.7-1.2 2.8 1 4.4 3.7 4.3 6.7a6.9 6.9 0 01-3.2 5.7c-1.5 1-2.1 2.3-1.8 4.3.7 4 2.2 7.6 4.2 11.1 2.6 4.7 5.8 9 9.3 13 .5.6.7.6 1-.2.3-.8 1-1.4 1.7-1.8.9-.5 1.5-.2 1.8.7.9 2.7 3 4 6 3.5 1.4-.3 2.2-.7 3.2-1.7-.6-.4-1.4-.3-2-.7-1.3-.6-1.4-1.6-.2-2.4 1-.6 1.7-1.3 1.8-2.5 0-.6 0-.7-.6-.8-2.3-.5-4.6-.7-6.9-1.5-2-.8-4.3-1.5-5.8-3.4-2.5-3-.5-7.8 3.3-8.4h2.9c.5 0 1 .4 1.2 1 .2.5 0 1-.5 1.2-1 .8-1.4 1.7-1 3a4 4 0 002.7 2.4c2.2.7 4.5.3 6.7.3h1.4c-.3-1.2-.6-2.2-2-2.7-2-.8-3.3-3.2-3-5.5.1-1.2.2-2.4.8-3.4.7-1.2 1.6-2 3-2h6c.7 0 1.4-.2 2-.4 1.8-.8 2.3-1.8 1.8-4l-1-4.4c-.2-.6 0-1 .3-1.3.4-.3.8-.5 1.3-.2h.1c1.3.9 2.4 2 4.1 1.8.6 0 1 .5 1.4 1 .3.6.5 1.1 0 1.7-.3.5-.8.7-1.5.4-.3-.1-.6-.2-.8.2 0 .5.2.7.6.8l5.2 1.8h1c.3 0 .4-.2.4-.5s-.3-.3-.6-.2c-.8.4-1.5.3-1.9-.6-.2-.5.3-2 .8-2.3.5-.2 1-.5 1.4-.5.8.1 1-.2 1.5-.8.7-1 2-1.4 3.2-1.7l.8.4c.6.5 1.1 3 .7 3.6-.2.5-.2.8.3 1.2.7.6.5 1.8-.3 2.6-.6.7-1.2.6-1.8 0-.4-.4-.7-.6-1 0-.3.4-.2.8.3 1 1.2.7 2.3 1.4 3.6 2 .8.3 1.7.6 2.4 1.3l.7.2c.2 0 .4-.2.4-.4s-.2-.2-.3-.2c-.8-.2-1.4-.7-1.3-1.6.2-.7 1.3-1.3 2.2-1.3 1 0 2 .5 2.5 1.3.4.4.8.6 1.3.5h1c.7.1 1.5.5 1.6 1.3.1 1-.7 1.2-1.4 1.4a11 11 0 00-5.8 3.6c.2.3.5 0 .7 0 1.5-.1 2 .7 1.6 2.1-.5 1.4-.2 3-.6 4.4-.3 1.1-.7 2.2-1.7 2.8-.8.6-.7 1.2-.5 2 .2.4.5.8.5 1.3 0 .7-.5 1.2-1.2 1.2-.5 0-.6.1-.7.6 0 .2-.1.6-.3.7-.5.4-1 .7-.7 1.5.3.8.8 1.4 1.7 1.6.5.2 1 .2 1.6.2 1.1 0 1.7.8 1.2 1.8-.9 2-2.5 3.2-4.7 3.4-.7 0-.9.1-.6.9.4 1.3.2 2.5-.3 3.8-.3.7-.8 1-2 .7a7.7 7.7 0 011.1 6.9c-.3 1-1.3 1.4-2.3 1.2-1-.1-2.1-.5-3.1-1 .8 1.5 2.2 1.5 3.5 1.7 1.3.2 1.7.9 1 2-1.2 1.9-3.8 3.6-6.3 3.2-1.1-.2-2-1-2.8-1.7-.2.7.3 1.1.6 1.7.3.6.9 1.1.3 1.9-.6.6-1.2.6-2 .5a8.3 8.3 0 01-3.2-1c-.3-.2-.5-.3-.7 0-1.2 1.9-.4 4.7 1.2 5.7.5.4 1 .9.7 1.6-.2.7-.8.9-1.5 1a7 7 0 01-3.7-1c-.7-.2-.7 0-.8.5-.2 1.6.6 2.9 1 4.3 1.4 3.7 2.6 7.4 3 11.4l.5 5.4a30 30 0 010 5.5c-.1 2.2-.2 4.4-.6 6.6l-1.5 9c-.2 1.6.3 3 .8 4.5.7 2 1.7 3.9 3 5.5 1 1.1 2.1 2.2 3.8 2.5.8.1 2.8-1.2 3-2 .1-.4 0-.4-.2-.6-.8-1-1.8-2.2-2-3.6-.1-2.2.8-3.9 2.6-5 .5-.4.5-.6.2-1.1a24 24 0 01-2.7-8.7c-.4-2.3-.5-4.6-.7-7v-6.9l.3-2.4c0-.3-.1-.5-.6-.4-1 .1-1.5-.3-1.5-1.3 0-2 .9-3.7 2.9-4.5.5-.2.6-.4.4-1-.5-1.7-.2-3.4.8-4.9l.7-.8 1.8-.9c-.5-.6-.3-1.3-.4-2 0-2.3 1.1-3.8 3-5 .4-.2.8-.1 1.1.1.6.4.6 1 .5 1.6a4 4 0 00.3 2.6 5 5 0 001.4 1.7 18 18 0 015.7-4.8c1.8-1.1 3.6-2.2 5.6-3 .7-.3.3-.8 0-1-1.6-1.3-3.4-2.2-5.5-1.6-.6.2-1.2.4-1.7-.1-.5-.6-.3-1.2 0-1.8l1.3-2.6a5 5 0 014.6-2.4c-.4-2-.6-4-.2-6.1.5-2.2 1.7-4 2.9-5.8.5-.9 1.2-.9 2.5-.2.5-3.2 2-6 4-8.5.4-.5.9-.8 1.4-1.2.4-.4.9-.5 1.4-.2.5.4.8.9.6 1.5v1c1.5-1.8 3-3.5 4.7-4.8 1.1-.8 2.3-1.5 3.5-2.1.6-.3 1-.2 1.4.2.4.4.5 1 .2 1.5l-2.8 4.3-.3.4-2 4c-2 4.3-3.8 8.9-4.4 13.8-.3 2.3-.3 4.6-.4 7 1.5-.4 2.7-1.3 3.8-2.2 2.7-2.2 4.7-5 6.5-8a53 53 0 005.2-13.5c.3-.5.3-1.3 1.2-1 0 1.6-.6 3-1 4.5-1 3-2 6-3.5 9-1.9 3.4-4 6.6-7.1 9.2-2.4 2-5 3.1-8 4-5.6 2-10.9 4.7-15.8 8.2a7.5 7.5 0 00-3 3.2c-.2.5-.6.3-1 .1-1.7-.7-2.9-3.2-2.5-5.2v-.9c-2.5 1.1-3 3.5-2.3 5.8.3 1.2.4 1.2-1 1.5-1.1.2-2.1 1.2-2.3 2.7-.2 1.2-.2 2.5.5 3.6.4.6.3 1-.4 1-1.4 0-2.6.7-3 2l-.5 2c1.7-.4 2.5.3 2.3 2-.7 5-.4 9.9.3 14.8.4 3 1 6 2.4 8.6l.9 1.2c.4.5.4.7-.3 1-2.7 1.3-3.4 3.7-2.5 6 .4.8 1 1.6 1.7 2.3.3.4.3.7 0 1.1-1.7 2.4-4 3.6-7 1.2-1.9-1.7-3.4-3.6-4.2-6-.5-1.5-1.2-3-1.3-4.5-.3-2 0-4 .5-5.9a66.4 66.4 0 001.3-20c-.4-5.2-1.9-10.2-3.7-15a6.6 6.6 0 01-.5-3.8c.2-.6 0-1-.5-1.5a7 7 0 01-1.4-2.1c-.3-.6-.5-.5-1-.2a20.7 20.7 0 01-8.6 3.4c-.2 0-.6.4-.7 0-.2-.5.2-.6.4-.8 1.5-1.6 2.8-3.4 3.3-5.5v-.6c-1 .6-2 1.3-3.1 1.5-.3.1-.7.5-.9 0-.1-.5.3-.4.7-.6 1.5-.5 3-1.2 4.1-2.3.2-.2.4-.5.6-.3.2.1.3.5.2.7-.9 1.7-1.4 3.5-2.5 5-.4.6-.8 1.3-1.5 2 2.2-.3 4-1 5.7-1.8.8-.4 1.6-1 2.4-1.6.6-.5 1-.2 1.2.4.8 1.7 2 3 3.7 3.9 1.1.6 2.3.8 3.5.7.2 0 .4 0 .5-.2 0-.2-.1-.3-.3-.4-1.8-1.1-2.4-2.8-2.4-4.8 0-1.1.7-2.1 1.2-3.1.3-.6.9-.2 1.2 0 1 1 2.3 1.2 3.6 1.4.2 0 .7.1.8-.2.1-.3-.2-.5-.4-.7-.8-1-1.1-2.2-.8-3.5 0-.3.1-.8.6-.8.4 0 .5.3.7.6 1.1 1.8 2.3 2.5 4.3 2 1.7-.4 3-1.5 4-3.1-1.4 0-2.6-.2-3.7-.9a3.4 3.4 0 01-1.7-3.9c0-.2.1-.5.4-.5.3 0 .4.2.5.5.6 1.3 3 2.5 4.5 2.1.3 0 .4-.3.5-.6.8-2.6 0-5-1.4-7.1l-.4-.8c-.2-.4-.1-.8.4-.5.5.2 1.1.3 1.5.7.7.8.8.1 1-.3.3-1.3.2-2.5-.4-3.7-.4-1.1-.4-1.2.9-1.2 1.8 0 3.3-.5 4.5-2 .2-.4.4-.7.4-1.2-1.6.2-3 0-4.1-1.5-.4-.4-.6-1-.7-1.5-.3-1 .1-1.6 1.2-2l-.4-.9c0-.4-.2-.8.1-1 .3-.3.7-.1 1 0 .3.2.7.3 1 .2-.1-.8-.6-1.6-.6-2.5 0-.4-.2-.6-.6-.6-1 0-1.6-.5-2.4-.8-.3-.1-.5-.3-.4-.6.2-.4.5 0 .6 0 .6.2 1 .5 1.7.6 1.9.4 3-.5 3.5-2.4l.4-3.7c0-.6.5-1 .5-1.5-.9-.4-1.3.2-1.9.7-.1.1-.2.4-.5.2-.2-.2-.3-.4-.2-.6.7-1.6-.7-2-1.6-2.5a142 142 0 00-13.1-6.3c-1.4-.6-2.6-1.3-4.1-1.6-.4 0-.7 0-.8.2-1.9 2-4.3 2.3-6.8 2-1.4 0-2.8-.1-4.2.2-1 .2-2.3 2-2.2 3.1.1.5.4.2.7.2 1.2-.4 2.6-.6 3.9-.6.5 0 .9 0 1 .7-1.6-.1-3.3.2-4.9.5-.6.1-.8.4-.7 1 .1 2.4 1.2 3.5 3.4 4.2 1.7.6 3.6.6 5.3 1 1.6.4 2.8 1 3.2 2.7a9 9 0 010 5.4c-.8 2.3-3 2.5-4.9 1.7l-5.2-2.4c-.1 2.1-1 3.8-2.9 4.7.8.7 2.4 1 4.1.8h.5c1-.4 1.2-.1.7.8 1.5.1 2.4-.8 3.6-1.3.2 0 .4-.5.8-.2.3.3-.1.5-.2.8l-.3.7c-.7 1.4-.5 1.6 1 1.7 1.1 0 2.1-.4 3-1.1.1-.2.3-.6.7-.3.3.2.2.5.1.8 0 1.4 1.3 3 2.7 3.2.2 0 .5 0 .5-.5a5 5 0 011-4c.9-1 .7-1.6-.2-2.6-.2-.1-.7-.2-.5-.6.2-.6.6-.1.9 0 1.7.2 2.3-.4 2-2.2l-.5-2c0-.2-.2-.5.3-.6.4 0 .2.3.3.5.4 1 .7 2 .6 3-.1 1.4-.5 1.7-1.9 2.1.5.8.2 1.5-.1 2.3-.6 1.2-1.4 2.3-1.3 3.7 0 .5.2.9.5 1.2.2.2.5.3.4.5-.2.3-.5.2-.7.2-2.7-.4-4-.8-4.6-4-1.3.7-2.6 1.3-4 1-1.8-.2-1.8-.2-1.1-1.8 0-.2.3-.5.2-.8-1 .6-2 .8-3.1 1.2-.7.3-1.2.3-.9-.7 0-.1.1-.3 0-.4-.3 0-.4 0-.6.2a9 9 0 01-3 2.5c-3.4 1.5-7.8.6-9-3.1l-.2-.7c-1.5.7-1.9 2.2-2.2 3.6a5 5 0 00.7 3.6c0 .2.5.4.1.6-.2.2-.4 0-.7-.2-.5-.4-.9-1-1.5-1.3-1.4-.9-2.8-.6-4.2-.3-1.4.3-2.9.8-4 2-.2.2-.3.4-.3.8.5.2 1.4-.2 1.4.4 0 .7-.9.3-1.4.3-2.6-.1-5.3.1-7.9-.3-.6-.2-1.1-.5-1.7-.6-1-.2-.8.2-.6.7a9 9 0 003.4 4.6 9.3 9.3 0 005 2c.8 0 1.3-.2 2-.4.2-.1.5-.4.7.1.1.5-.3.5-.5.6-1.2.5-2.4.6-3.7.8l-1.4.3c2.2 2 4.7 3 7.4 3.2.3 0 .7-.2.8.3.1.5-.3.5-.6.6-.7.2-1.3.6-2 .6-.1 0-.3 0-.3.2-.2.2 0 .2.2.3 1.3 1.2 3 1.4 4.5 1.8l2.4.3c.3 0 .4 0 .4.3s-.2.4-.4.4c-3-.3-5.9-.7-8.2-2.9-.2-.2-.5-.3-.4-.7.2-.4.5-.2.7-.3.4 0 .9 0 1.3-.2l.3-.2-2.9-.7c-1.6-.6-3-1.6-4-3-.4-.6-.3-.7.4-.8.4 0 .8 0 1.3-.2-1.2-.8-2.6-1-3.6-2-.5-.4-1.1-.8-1.5-1.3-.5-.8-1.2-1-2.2-1-3.8.1-7.5.7-11.3 1.1-1.7.2-3.4.6-5.2.2l-2.1-.9-3.7-2.2a2 2 0 01-1-1.2c0-.6-.4-1.2-.6-1.9-.5-1.6-1.7-2.3-3.3-2.6-.3 0-.5-.1-.8.2-1.4 1.8-3.4 1.9-5.4 1.5-.3 0-.6-.2-.8 0-.2.4.2.6.3.8.3.5.9.9 1 1.5.1.3.4.7 0 .8-.3.2-.5-.3-.6-.5a6.2 6.2 0 00-3.3-3 6.3 6.3 0 00-5.3.2c-.3.1-.3.2-.2.5.2.6.3 1.2.3 2 0 1.6-.6 3-2 3.8-.8.4-.8.9-.6 1.4a5.6 5.6 0 004.4 3.4c.4 0 .4-.2.5-.4 1-2 4-2.5 5.7-1 .2 0 .4.2.2.5-.1.2-.4.3-.7.1l-2-.7c-1.4-.2-2.7 1-2.7 2.4 0 .3.3.3.4.5 1 .9 2 1.7 2.7 3 .4.7.6 1.4.7 2.2 0 .4.2.5.6.6 1.1.3 2 0 2.9-.6a5 5 0 015.4-.7c.7.4 1.4.6 2.1 0 .1-.2.3-.2.5-.1s0 .3 0 .5c-.9 2 0 3.4 1.1 4.7.3.4.7.1 1 0 2-.6 5.2.6 6.2 2.5.7 1.3 2.6.8 3.2 0 .8-1 1.1-2.1.8-3.3-.1-.6 0-.7.5-.5 2.3.7 4.6.5 7 0 1.2-.2 2.4 0 3.6.3 1.4.4 2.2 2.4 1.6 3.9-.2.4-.8 1-.5 1.4.4.4 1 0 1.6 0 1.5-.1 2.6-1 3.7-2 .3-.2.5-.5 1.1-.6-.8 2.6-1.4 5.1.7 7.4.7-2.5 2.4-3.6 4.7-4.1.6-.1.9 0 .9.7 0 .8 0 1.7.4 2.5.2.5.4.6.7.1.6-.8 1.7-1 2.2-1.9.1-.1.3-.2.4-.1.3.2.3.6.2.8-.2 1-.2 1.9-.1 2.8.2 3.3 1.8 6 4 8.4a22 22 0 016 11.6c.3 2.3-.3 4.2-2.3 5l-2.8.7c-5 1.4-9.9 3.5-14.1 6.7-1 .8-1.7 1.8-2.5 2.7-1.8 2-3.8 3-6.4 2.4-.5 0-1 0-.7.7a6.1 6.1 0 003 3.4c.4.2.8.2 1 .7-.9.3-1.8.1-2.6.4-1.7.6-2.7 1.8-3.6 3.3-1 1.6-1.2 3.5-1.5 5.3-.2.8.2 1 .9 1 2.4 0 4.7-.9 6.7-2.3 1.1-.8 2.3-1.7 3.2-2.8.1-.1.2-.5.5-.3s.2.3.1.6c-.7 2.8.6 5 2.2 7 .7 1 1.3 2 1.6 3.2h-1.1c-1-1.1-1.6-2.5-2.5-3.7-.7-1-1.3-2.2-1.6-3.4-.2-.6-.4-.6-.8-.2-1.4 1.3-3 2-4.9 2.7-1.3.5-2.7.6-4 .4-1.2 0-1.7-.7-1.7-1.9.1-2.5.8-4.8 2.2-7 .9-1.3 1.8-2.5 3.6-3-.8-.9-1.4-1.6-1.8-2.6-.7-2 .2-3 2.3-2.8 1.6.3 3-.2 4.2-1.3l3.1-3.4c-1.6 0-2.9-.2-4.1-.6-.7-.3-1.4-.5-2-.9-.8-.4-1.3-.1-1.5.7a9.5 9.5 0 01-2.4 3.7l-.6.6c-2.1 1.4-2.5 3.5-2.1 5.8l.2 1.3c.1 1.3-.8 2-2 1.7l-1.8-.6c-1.5-.6-3-.5-4.4.1l-1.7.8c-1 .3-1.8.5-2.8 0-.5-.2-.9 0-1.1.5-.6 1.3-1.3 2.4-2.9 2.6-.3 0-.5.5-.8.7a6.8 6.8 0 01-5 2c-.6-.1-1.2-.2-1.7-.5-.6-.2-1.2-.6-1.2-1.4 0-.7.5-1 1-1.4 1.2-.6 1.3-2.1.3-2.9-1-.8-2-1.7-2-3.2 0-.4-.3-.4-.6-.4-2.3.1-4.5.3-6.7 1.2-1.4.6-2.7 1-4.2 0-.7-.6-1.9 0-2.2 1l-.4.9c-.6.6-1 .6-1.7.1v-.5-1c.4.5.7 1.1.9 0 .1-1.1.9-1.9 2.1-2 .4 0 .9 0 1.3-.2-.3-2.2-2-3.1-3.8-3.8-.3 0-.7 0-.5-.4 0-.4.5-.3.7-.2 1.9.7 3.5 1.7 4.3 3.8.6 1.8.8 2 2.6 1.2 2.4-1 4.9-1.5 7.5-1.4.8 0 1.5-.1 2.2-.4.2-.1.4-.2.6 0l-.1.5c-.3.5-.4 1-.5 1.6-.2 1.2.7 2 1.8 1.8 1.8-.3 5 1.2 5.7 2.9.3.7 1 .9 1.4 0 .7-1.1 1.6-2.3 1.5-3.7 0-.3 0-.6.3-.7.3 0 .3.3.4.5.9 2 1.5 2.2 3.5 1.3a8.4 8.4 0 018-.2l.8.3c-.3-1.3-.5-2.6-.5-3.9.1-1.8.7-3.3 2.2-4.5 2-1.4 3.2-3.4 3.7-5.7.2-.7.5-.8 1.2-.5 1.6.9 3.3 1.6 5.2 2 2.8.3 5.3 0 7.8-1.4 2.9-1.7 6-3 9.2-3.7l.3-.2c-.1-.4-.5-.6-.7-.9-1-1.1-1.4-2-.6-3.4 1-2 1-2-.7-3.4-2.5-2-5-3.9-7.9-5.2-3.4-1.5-7-2-10.8-1.5-2 .2-4.2.4-6.2-.1-1.5-.4-3-1-3.8-2.5-.6-1-.4-2 0-3v-.9c-.2 0-.5 0-.8.2-2.3 1-3.2 3-2.2 5.4v.5c-.3.3-.5 0-.7 0-.8-.7-1.7-1.1-2.7-1.4-2.3-.5-4.5 0-6.6.8-.5.1-.8.4-1.3.7 2 0 3.5 1 4.8 2.3 1.6 1.4 3.3 2 5.4 1.9.3 0 .8-.3 1 .2.1.4-.4.4-.7.6a10 10 0 00-2.6 3c-1 1.9-1.7 3.8-2.4 5.7-1 3-3.2 4-6.7 3.9-2.7-.2-5.3-1-7.9-1.7-.7-.2-.4-.8-.3-1.2.6-2.4 0-4.5-2-5.8-.5-.3-1-.8-1.3.4-.2.8-1.2 1.3-1.9 1.5-1.5.4-3 .6-4.3-.6-.5-.4-1 0-1.6.4 1.6.7 2.3 2.2 3.5 3.1 1.3.9 2.7 1.5 4.1 2l1.4.5c.3.1.5.4.3.6 0 .3-.4.3-.7.2-.4-.3-1-.5-1.5-.7-1.2-.8-2.7-.8-3.9-1.8a19 19 0 01-1.8-1.8c-1.7-2-3.3-2.5-5.7-1.6v-1c.3-.8 1-.7 1.6-.8.7 0 1.5.3 2.2-.1 0-.4-.4-.5-.6-.6-1-.7-1-1.8 0-2.5a5.9 5.9 0 013.8-1.3c1.8 0 3.7.5 5.1 2l1 .5c2 .8 4.1 3.2 3.8 6 0 1.5 0 1.5 1.4 2 2.5.6 5 1.3 7.7.7 1.7-.3 2.6-1.4 3-2.9 1-2.4 1.8-5 3.4-7 .4-.6.2-.8-.3-1a9.7 9.7 0 01-3.8-2.1 5.5 5.5 0 00-3-1.6l-.5-.1c-.6-.2-1.1-.6-1.2-1.3 0-.7.4-1 .9-1.4 1.6-1 3.5-1.5 5.4-1.6 1.2 0 2.5-.1 3.7.4.5.2.7 0 .8-.5A5.6 5.6 0 0163 130c.6-.3 1.2-.3 1.7.2.6.5.8 1.1.5 1.8-1 2.3.4 3.4 2.5 4 1.6.6 3.3.4 5 .3 2.4-.1 4.8-.5 7.2 0 2 .4 4.1 1 6 2 2.6 1.3 5 2.8 7.1 4.7-.2-1-1.4-2-.4-3.1.8-1 1.7-.2 2.8.2-1-1.4-2-2.6-3-3.7-2-2.4-3.5-4.9-4.1-7.9-.2-.7-.1-1.4-.2-2H88c-1.7 1.3-2.6 1-3.3-1v-.2c-.5-1.5-.7-1.6-2-.5-.5.5-.8 1-1 1.6-.6 1.5-1.8 1.7-2.8.4a7 7 0 01-1.5-4c0-.1 0-.3-.2-.5-1 .4-2 .7-3.2.8-.5 0-1 0-1.5-.3-.8-.5-1.1-1.1-.6-2 1.2-2.3.2-3.7-2.5-3.4-2.2.2-4.4.5-6.6.3-.4 0-.4.3-.5.6-.3.9-.6 1.7-1.2 2.4-.7.7-1.4 1.2-2.4 1.2-.6 0-1 .3-1.3.8-1.5 2.2-4.5 3.7-7.7 2-1.3-.8-1.4-2-.1-2.9 1.2-.8 1.3-1.1.4-2.3-1-1.1-2-2-2.6-3.4-.2-.3-.4-.7-.4-1 0-1-.6-1.3-1.4-1.6-1.6-.5-3-.5-4.4.6a4 4 0 01-4.3.6c-1.2-.5-2.3 0-3.2.9l-.4.5c-1 1-1.8.9-2.6-.2-1-1.3-1-2.9-.8-4.4.2-1.1.7-2 1.4-2.9.8-.8.7-.8-.2-1.2a8 8 0 01-3.4-2.2c-.5-.6-1-1.3-1-2-.2-1.3-.7-2-1.8-2.4 0-.4-.3-1 .1-1 .5-.1 1.1 0 1.6.2.6.2.8 1.4 1.6 1 1-.6 1.4-1.7 1.6-2.7.4-2.3-.2-2.8-2.4-2.5-1 0-1.7.6-2.5 1.1v-1.1z"/><path d="M24.9 100.8c1.4.1 1.7.4 1.8 1.7a5.2 5.2 0 002.5 3.7c.8.5 1.5.9 2.4 1 .8.2 1 .6.3 1.1-1.6 1.5-2 3.3-1.8 5.4 0 1 .6 1.8 1.1 2.5.6.7 1.3.5 2-.3.4-.6.8-1.2 1.6-1.4a3 3 0 012.2 0c1.4.5 2.7.5 3.9-.5 1.9-1.8 3.9-1 6-.4.3 0 .3.4.3.8 0 1.7 1 3 2.2 4 .6.5 1 1 1.3 1.6.5 1 .3 1.5-.7 2-.6.2-1.1.6-1.1 1.2 0 .7.5 1 1 1.3 2.8 1.5 6 .3 7.5-2.4.2-.4.6-.4 1-.5 1.7 0 3-1 3.4-2.7.2-1 .5-1.7 1.8-1.5 1.7.3 3.3 0 5-.3 1-.2 2 0 3 .3 1 .2 1.3 1.5 1 2.5l-.4.7c-.2.5-.5 1 0 1.6.4.5 1 .7 1.7.7 1.3-.2 2.5-.4 3.7-1.2 0 1.8.3 3.4 1.3 4.8.4.5.8 1 1.5 1 .7-.2 1-.8 1-1.5.5-1.3 1.6-1.9 2.7-2.4.5-.2.7.1.6.6 0 .6.3 1.2.5 1.9.5 1 1.5 1.3 2.3.4.3-.2.5-.6 1-.7 0 1.7.2 3.3.8 4.8 1 2.6 2.6 4.6 4.3 6.7.9 1 1.7 2 2.5 3.2-.8 0-1.3-.4-1.8-.6-.5-.3-1-.3-1.4 0-.5.5-.4 1-.2 1.6.4.6.7 1.4 1 2.2-1.6-1.2-3-2.3-4.6-3.3a27.3 27.3 0 00-7-3.4c-3.2-1-6.4-.6-9.6-.4-2 .1-4 .3-5.7-.6-2-1-2.6-1.7-1.8-4 .2-.6.2-1.2-.3-1.6-.4-.5-1-.5-1.5-.2-1.7.7-3.4 1.6-3.8 5-3.4-1.2-6.7-.7-9.8 1-.5.2-1 .5-.9 1 0 .6.4 1 1 1 1.8.2 3.1 1.3 4.4 2.5 1.2 1 2.6 1.5 4.2 1.9-1 1-1.5 2-2.1 3.1a23 23 0 00-1.9 4.4c-.7 2.5-1.9 3.5-4.5 3.7-2.8.2-5.4-.7-8-1.3-.4-.2-.3-.5-.3-.9.2-1.7 0-3.4-1.1-4.9a5 5 0 00-2-1.6c-.9-.3-1.5-.8-2.2-1.3a6.7 6.7 0 00-7.9-.3c-.4.3-.7.6-.7 1.1 0 .6.4 1 1 1.2.3.1.9.2.7.6-.1.4-.6.7-1.3.6-1-.2-2.1-.3-3.1.3V143v-41-1.2zM175.1 127.3v42.3c0 3.1-.3 6.2-1 9.2-.7 2.8-2.7 4.2-5.4 4.9-2.4.6-4.9 1-7.4 1-9 .4-18 .1-26.9.2l2.6-3.1c.2-.3.7-.3 1-.4 4-.6 5.6-4.2 5-7.4-.1-1.2-.1-1.2 1-1.7 3.5-1.5 6.6-3.5 8-7.2a9.4 9.4 0 012.2-3.4c1.3-1.2 3.2-.9 4 .6.9 1.5 1.6 1.5 2.6.1l1-2c.7-2 .2-3.6-1.5-5-1-.7-1-1 0-1.5a10 10 0 004.5-4.9c.6-1.3 1.3-2.5 1.7-3.9.3-1.2 0-1.7-1.3-1.5-.3.1-.7.3-1 0-.2-.4.1-.7.3-1 .8-1.2 1.5-2.4 2-3.7.4-1 .6-2 .4-3-.1-.5-.2-1.1-.9-1.3-.7-.1-1 .4-1.3.9-.8 1.4-2 2.4-3.3 3.2-1 .5-1.6.3-1.5-.8.1-4.1-.5-8.2-1.1-12.2-.2-1.2 0-1.5 1-1.6 2.4-.3 4.7-.6 7 .3a7 7 0 014.2 4.3c.2.6.3 1.5 1.2 1.5.8.1 1-.7 1.5-1.2.4-.6.6-1.5 1.4-1.7z" fill="#11457d"/><path d="M24.9 170.5c1 .3 1.6 0 1.8-1 .4-1.4 1.8-2 3-1.1.8.5 1.6.6 2.4.3a22 22 0 018.1-1.7c.5 0 1-.2.9.8-.2 1.1.4 2.1 1.5 2.7.9.5 1 1.2 1 2 0 .9-.4 1.4-1.2 1.7a1 1 0 00-.8 1c0 .4.3.8.8 1 2.1 1.2 5.2.5 7.1-1.7.2-.1.2-.5.6-.5 1.3 0 2-.7 2.4-1.8l.3-.6c.2-.8.6-1 1.3-.5 1 .5 1.9.3 2.8-.2.9-.4 1.8-.8 2.8-1 1.7-.5 3.3.2 4.8.8.6.2 1.2.4 1.7-.1.4-.4.5-1 .3-1.6-.4-1.7-.5-3.4.2-5.1.3-.5.6-1 1-1.3 1.9-1.3 3.1-3 3.9-5.2.3-.8.6-1 1.4-.5a12 12 0 005.9 1.5c.3 0 .5 0 .8.4-1.1 1-2 2.2-3 3.2-1.4 1.4-3 2.1-5.1 1.7-1.4-.3-2.2.6-1.8 2l.9 1.8c.3.5.9.8 1.2 1.4-3.4 1.3-4.6 4.1-5.5 7.3-.2.8-.5 1.7-.4 2.6 0 1.2.4 1.7 1.6 1.7 3 .2 5.6-.9 8-2.6l1.6-1.3c.2 2.3 1.4 4 2.6 5.7.6.8 1 1.6 1.4 2.6H41.9c-3.7 0-7.3-.3-11-1.3-3.1-.8-5-2.9-5.4-6.1-.3-2.3-.8-4.6-.6-7z" fill="#11457e"/><path d="M175.1 127.3l-1.8 2.6c-.3.5-.7.8-1.3.7-.6-.1-.9-.5-1-1-1-4-4.2-5.7-7.9-5.5-1 0-2.1 0-3.2.2-.7.2-1 .3-.9 1.2.8 4 1.2 8.2 1.1 12.3 0 1.1.1 1.2 1.1.6a7.5 7.5 0 003.3-3.2c.3-.6.8-1 1.4-1 .7 0 1 .6 1.1 1.2.4 1.3.2 2.5-.3 3.8-.6 1.5-1.5 2.9-2.4 4.3.5.2.8-.1 1.2-.2.9-.2 1.7.5 1.4 1.4-.8 2.4-1.7 4.8-3.2 6.8-1 1.4-2.5 2.2-4 3 .4.5 1 .7 1.3 1.1 1.4 1.4 1.7 3 1.1 4.8-.4 1-.9 2-1.6 2.9-.7.8-1.8.7-2.3-.4-.4-1-1-1.7-2.2-1.6-1.3 0-2 .8-2.5 1.8-1.4 2.1-2 4.7-4.2 6.4a18 18 0 01-5.5 3.2c-.5.2-.7.3-.6 1 1 3.2-1 7.5-5.3 8-.4 0-.7 0-1 .5a7 7 0 01-2.5 2.7c-.5-.1-1.4.4-1.5-.3-.2-.7.7-.6 1.1-.8.9-.5 1.5-1.2 2-2 .1-.2.5-.6-.2-.7-.3 0-.4-.3-.3-.5 0-.4.4-.3.7-.2 1.8.6 3.4.1 4.7-1.2a5.6 5.6 0 001.2-5.7c-.1-.5-.4-.7-1-.6a13 13 0 01-6.3-1.2c-.4-.2-.4-.2-.6-.9 1.4.2 2.5.9 3.8 1.2 3.4.6 6.4-.3 9.2-2.2 1.9-1.3 3.2-3 4.2-5 .7-1.5 1.3-3 2.6-4 1.8-1.3 4.2-.7 5 1.4.1.2.1.5.4.5.3 0 .3-.3.5-.4.6-.9 1.1-1.7 1.3-2.8.3-1.8-.3-3-1.9-3.8l-2.4-1.2c5.4-1.3 7.6-5.3 9-10.2-1 .3-1.9.7-2.9.6-.2 0-.6.2-.7-.2-.2-.3 0-.4.2-.7 1.2-1.6 2.4-3.2 3.2-5 .4-1 .6-2 .4-3.1 0-.2 0-.5-.3-.5-.2 0-.4.1-.5.3a8.5 8.5 0 01-3.7 3.8c-.6.3-1.3.3-2 .5-.3.2-.6 0-.6-.5a65.7 65.7 0 00-1.2-14.5c0-.3 0-.5-.5-.4-2 .5-3.9 1.2-5.7 2.2-.3.2-.4.3-.3.7.8 4.2 1.3 8.4 1.4 12.6a35.5 35.5 0 01-3.2 15.7 23 23 0 01-6.9 9c-.6.3-1.2 1.2-1.8.8-.7-.4.1-1.2.2-1.9.3-1.3.6-2.6.4-4 0-.7-.2-1.1-1-.7-1.8.8-3.1 2-4 3.6 0 .3 0 .6-.5.6-.3 0-.3-.3-.4-.5a22 22 0 01-2-16.7 26.5 26.5 0 0110.1-15.3c3-2.2 6.1-4 9.5-5.4 3.2-1.4 6.5-2.3 10-2.3 4.3 0 7.9 1.8 9 6.4v.2c1.4-1.7 2.7-3.4 3-5.5v3.2z"/><path d="M117.5 184.9h-6.7c-2.7-.1-5.2.5-7.7 1.2l-1.9-.8c-3-1-4.8-3.2-5-6.5 0-.8-.2-1.7-.7-2.4-.6-1-.4-1.4.7-1.5 2.7-.2 5.1-1.1 7.5-2.3 1.3-.7 2.5-1.5 3.7-2.4.8-.6 1-.5 1.3.4a24 24 0 004.7 8.8l3.3 3.8c.4.4 1 1 .8 1.7z" fill="#11457d"/><path d="M117.5 184.9c-.8-1.7-2.2-2.8-3.4-4.2-2.3-2.6-4-5.5-5.4-8.7l-.4-2-2.9 1.9c-2.8 1.7-5.8 3-9.1 3.2-.7 0-1.3.2-.6 1 .6.9.7 1.9.8 2.8 0 3.3 2.4 5.5 5.2 6.2.6.2 1.2.2 1.4 1-.5.5-1.2.3-1.7.1-2.4-.8-4.4-2-5.5-4.5-.5-1.2-.4-2.5-.7-3.7a5 5 0 00-1.4-2.7c-.2-.2-.6-.5-.6-.7.2-.5.7-.4 1-.4a21.9 21.9 0 0016.2-8.2l1.2-1.5c.2-.1.4-.4.6 0 .2.1.2.3 0 .6l-2.3 2.6c-.6.6-.7 1.2-.6 2 .5 2.8 1.8 5 3.3 7.4 1.5 2.2 3.4 4 5 6l1.3 1.8h-1.4z" fill="#010101"/><path d="M122.5 101c-.5-.5-.4-1-.8-1.4-.1-.1-.2-.3-.4-.3s-.2.3-.2.4a8.8 8.8 0 01-3.5 5.3c-.6.4-.8.3-1-.4-.2-.5-.1-1-.2-1.8-.7 1-1.4 1.7-2.1 2.4-2 2-4.5 2.7-7 3.5-.3 0-.6.1-.8-.2-.1-.4.3-.4.6-.5 1.5-.5 3-.9 4.5-1.6 2-1.2 3.7-2.7 4.7-4.8l.2-.5c.2-.2.3-.4.6-.3.3 0 .3.4.2.6l-.2 1.4c0 .5 0 .9.3 1.3 1.6-1.5 3.3-3 3-5.6 0-.6.4-.7.8-.4.4.3 1 .6 1 1 .4 1.3 1 .5 1.4.1a8 8 0 003.5-6.7V92c-.2-.4-.4-1 0-1.2.5-.1.7.5 1 .8a6 6 0 011 2c1.8-1.7 2.3-4.3 1.1-6-.1-.3-.3-.5 0-.7.2-.2.4 0 .6.2l.5.3c.6.6 1 .5 1.5-.3.4-.9.5-1.8.3-2.8 0-.3 0-.5.2-.6.2 0 .5.1.5.4.1 1.2.3 2.5-.5 3.6-.4.6-1 1-2 .6.3 1.5.4 3-.4 4.3-.4.7-1 1.3-1.5 1.8-.5.4-.8.4-.8-.2 0-.7-.3-1.2-.8-1.8-.3 1.8-.2 3.5-1.4 5a16.5 16.5 0 01-4 3.6z" fill="#020202"/><path d="M129 74.2a7 7 0 01-3.8.1c-.5 0-1-.1-1.6 0-2.4.7-4.3 0-5.8-1.8l-1.5-1.6c-.2-.2-.6-.5-.1-.6 1.5-.2 2.8-1.3 4.4-.9 1 .3 1.8.8 2.2 1.5 1.1 2.5 3.1 3.1 5.6 3.1h.3l.2.2z" fill="#030303"/><path d="M25 158.8c-.4-1 .3-1.4.9-1.7 2.6-1.2 5.4-1.2 8.1-.5 1.5.4 2.8 1.1 4.1 1.7.3.2.8.2.5.6-.2.5-.5 0-.8 0-1.7-.9-3.5-1.6-5.4-1.9-2.7-.4-5.3-.3-7.5 1.8z" fill="#060606"/><path d="M175.1 122.6a4.7 4.7 0 00-1.6-2.6c-.1-.1-.5-.2-.3-.5.1-.3.3-.4.6-.3.4.2.8-.2 1.3-.2v3.6z" fill="#060707"/><path d="M175.1 90.8c-.6 0-.9.6-1.2 1 0-.9.3-1.5 1.2-1.7v.7z" fill="#67090c"/><path d="M87.1 14.6c2-.2 3.9.1 5.9.4 1.1.1 1.6.7 1.6 1.9v3.7c-.2 2.3 0 4.6 0 7 0 .8-.2 1.5-.8 2 .7.5.8 1.2.8 2v3.5c0 1-.4 1.6-1.4 1.9a33 33 0 01-13.8-.3c-1.4-.3-1.7-1.2-.7-2.2.5-.4.7-1 .7-1.6V19.1c0-.6-.2-1-.7-1.5-1-1-.7-1.9.7-2.2 2.5-.7 5-1 7.7-.8zM118.8 19.4v3c-.1 1 .3 1 1 1 .8 0 1.1-.1 1.1-1v-6.1c0-1.3.4-1.7 1.6-1.7h3.8c.6 0 1.1 0 1.5.6.4.7 0 1.2-.4 1.6-.4.5-.5 1-.5 1.6v15.3c0 .7.1 1.2.7 1.7.4.3.7.7.5 1.3-.3.6-.8.8-1.4.8h-4.3c-1 0-1.5-.5-1.5-1.5v-5.6c0-.8-.4-.9-1-.8-.6 0-1.2-.2-1.1.8v5.4c0 1.3-.4 1.7-1.7 1.7h-4c-.7 0-1.2-.1-1.5-.7-.3-.7.1-1.1.5-1.5.5-.4.6-.9.6-1.5V18.3c0-.6-.1-1.1-.6-1.6-.4-.3-.8-.7-.5-1.3.3-.7.8-.8 1.4-.8h4.2c1.2 0 1.6.4 1.6 1.6v3.2z"/><path d="M69.8 20.8c-2.4.3-4.6.2-6.5 1.7-.8.7-1.8.3-1.9-.8v-5.1c0-.7.5-1.2 1.1-1.3 3.2-.6 6.3-1 9.6-.6 1.4.2 2.8.2 4.2.7l.7.3c1 .5 1.2 1.3.3 2-.6.4-.8.9-.7 1.4.5 2.9-.6 5-2.8 6.8-1.9 1.6-3.8 3.3-5.6 5.4 2.4-.2 4.6-.1 6.5-1.7.3-.3.6-.6 1.2-.3.5.3.7.6.7 1.1v5.3c0 .6-.4 1-1 1.2a35.7 35.7 0 01-14.3-.2c-1.2-.3-1.6-1.4-.6-2.3.6-.6.8-1.2.7-2-.4-2.4.4-4.2 2.3-5.7 2-1.6 3.9-3.6 5.7-5.5l.4-.4zM52 14.6c2.1-.2 4.2.2 6.3.4.9 0 1.4.7 1.4 1.6V21c0 1.2-1 1.7-2 1a7.4 7.4 0 00-4-1.3l-2.2-.2c-.6 0-.9.3-1 .8-.6 3-.5 6.2 0 9.2.1.6.5 1 1 .9 1.6-.4 3.3-.1 4.9-.8.4-.3 1-.4 1.4-.8 1-.6 1.9-.1 1.9 1v4.8c0 .6-.4 1-1 1.2a33.2 33.2 0 01-10.8.4c-.8 0-1.4-.4-1.8-1.2a16.4 16.4 0 01-1.9-6.8c0-1.4-.2-3-.1-4.4 0-1.8.2-3.6.8-5.4.2-.6.1-1-.4-1.4l-.5-.6c-.9-1-.6-1.8.6-2.1 2.4-.6 4.9-1 7.5-.8zM103.5 14.6c2-.2 4 .2 6.1.4 1 0 1.4.7 1.5 1.6v4.5c0 1.2-1 1.7-2 1a7.4 7.4 0 00-4.1-1.3l-2.2-.2c-.6 0-.8.3-1 .8-.5 3.1-.5 6.2 0 9.3.2.5.5.9 1 .8 1.7-.4 3.4-.1 5-.8l1.4-.8c.9-.6 1.8-.1 1.8 1v4.8c0 .6-.4 1-1 1.2a33.7 33.7 0 01-10.8.4c-.8 0-1.4-.4-1.8-1.2a16.3 16.3 0 01-1.8-6.8l-.2-4c0-2 .3-4 .9-5.9.1-.5 0-.8-.3-1.2l-.6-.6c-1-1-.7-1.9.6-2.2 2.4-.6 5-1 7.5-.8zM147.3 14.6h3.1c1.3 0 1.7.4 2 1.6L155 28l1.7 8c.2.7-.4 1.4-1.2 1.4h-4.4c-.8 0-1.2-.6-1.2-1.5 0-1.4-.1-1.4-1.5-1.4h-.4c-.7 0-1.4-.1-2 .1-.6.3-.3 1.2-.5 1.8-.2.6-.7 1-1.4 1h-4.8c-.5 0-1-.2-1.2-.8-.2-.4 0-.9.3-1 1.6-1.2 1.6-3.1 2-4.8 1.2-4 2-8.2 2.8-12.4.2-.8-.2-1.4-.5-2.1-.6-1-.1-1.8 1-1.8h3.6zM133 37.5h-3c-.6 0-1-.2-1.3-.8-.3-.6 0-1 .4-1.3.7-.5.8-1 .8-1.8V18.4c0-.7-.1-1.2-.7-1.7-.4-.3-.7-.7-.5-1.3.2-.6.7-.8 1.4-.8h5.7c.7 0 1.2.1 1.4.8.3.6 0 1-.4 1.3-.6.5-.7 1-.7 1.7v15.2c0 .7 0 1.4.9 1.8.4.2.7.7.5 1.2-.2.6-.6 1-1.2 1H133z"/><path d="M93.2 95.6c-1.2-.9-2.2-1.5-3.5-1.4-2.2.3-4.6.6-6 2.4C82.5 98 81.3 98 80 98a23 23 0 01-3.7-.2c-.5 0-.8-.2-.8-.8-.2-2.7-1.7-4.8-3-7-1-1.5-2.3-2.8-2.9-4.6-.3-.8-.3-1.7 0-2.5.2-.4.4-.8.2-1.1-.4-.5-.7 0-1 .2-1.3.3-2.6.2-4-.3-.3-.1-.3-.3-.3-.7.2-2.3-.5-4.2-2.5-5.5-.3-.1-.2-.3-.2-.5.4-1.7 1-3.1 2.8-3.8.3 0 .7 0 .8-.4 0-.4-.4-.5-.6-.7a6.6 6.6 0 01-3.2-3.8c-.2-.8-.5-.8-1.1-.8-2 0-3.5-.6-4.7-2.1a3 3 0 01-.5-3c.1-.6.4-1 1.3-1.2 2.3-.4 3.7-2.7 3.2-5.2-.2-1 .8-1 1.3-1.2 1.9-.6 3.5 0 4.9 1.4.2.2.3.7.7.4.3-.3 0-.7-.2-1a5.4 5.4 0 00-4.2-1.8c-1 0-.8-.3-.5-1 .5-.8.7-1.8 1.7-2.5 1.6-1.2 2.5-1.3 4.2 0 1.4.9 3 1.4 4.8 1 1.8-.3 3.2.9 3.9 2 .3.6.4 1.3 0 1.9-.5 1.2.3 1.9 1.2 2.4 1.3.8 2.6 1.4 4.2 1.4.4 0 .8 0 .6.7-.3 1.2-.8 2-1.7 2.8-.9.8-2 1.3-2.6 2.3-1 1.4-.6 3-.3 4.4a40 40 0 006.4 14.3c2.3 3.6 4.8 7 7.8 10.2 1 1 .6 2.5 1.1 3.9zM157.5 89.5c-.2 1.2-.3 2.3.2 3.3 0 .2 0 .5.4.5.2 0 .4-.2.5-.4.9-1.4 2-2.6 3.2-3.8 1.4-1.4 2.9-2.6 4.6-3.5h.6c0 .4-.3.7-.5 1-.8 1.4-1.7 2.6-2.4 4-.7 1.6-1.8 3-2.4 4.7-1.9 4.4-3.6 8.9-4.1 13.7-.2 2-.4 4 0 6 0 .7 0 1.3-1 1.5-2.5.5-4.9 1.8-7.3 2.8-.3.2-.6.3-1-.1-1.9-2.3-4.3-3.4-7.3-2.4h-.4c1-1.6 1-3.6 3-4.6.8-.4 1.6-.6 2.4-.4 1 .2 1.1-.4 1-1-.5-1.5-.5-3-.5-4.4a13 13 0 012.3-6l.4-.6c.3-.6.7-1 1.1 0 .6.4.9 1.2 1.5 1.1.6-.1.2-1 .3-1.4.2-3.4 1.9-6.2 4-8.8.3-.5.7-.9 1.4-1.2zM127.2 61.3c.4-1.5.8-1.7 2.2-1.1.3.1.7.5 1 .3.3-.3 0-.7 0-1 0-.6.2-1 .8-1.3 1.9-1.1 2.6-.8 2.6 1.3 0 .8-.6 1.3-1.3 1.6-.3 0-.6 0-.6.3 0 .4.4.3.6.3.5 0 1 .1 1.3.3.3.1.5.3.4.6 0 .3-.2.6-.4.9l-.6-.5c-.5-.6-1-.4-1.6-.2-.7.3-1 .8-1 1.5 0 .6 0 1.3.6 1.6 1.4.6 2.7 1.6 4.1 2.1 1 .4 1.7 1 2.6 1.4.6.4 1.2.4 1.9-.1.4-.4.7-.8.5-1.3-.2-.8-.7-1.2-1.5-1.2l-.1-.1c1.1-.8 2.3-.6 3 .7.5.6.8.7 1.4.6 1-.1 1.3 0 2.1.3l-2.7 1a9 9 0 00-3.3 2.2c-.7.7-1 1-2.1.4-3.8-2.2-7.8-4-11.8-5.8-2-1-4-1.8-6-2.4-.5-.2-.4-.5-.5-.8 0-2.3-.6-4.5-1.2-6.8.8.2 1.4.7 1.8 1.4.4.6.9.8 1.6.5.7-.3 1.4-.2 1.8.5.1.2.3.3.2.5-.2.3-.3 0-.5 0-.9-.2-1.8 0-2 .7-.3.8 0 2 .8 2.2l6.8 2.2c.6.2 1.6-.6 1.7-1.3 0-.8-.2-1.4-1-1.8-.6-.2-1 .4-1.6.3zM99 72.3c-1.5 1.2-2.4 2.4-2 4 .6 2 2 3 3.9 3.6 2.2.7 4.5.3 6.8.3 2.6 0 4.9 1 7 2.3l1 .6c1 1 1 2.1-.3 2.8-.9.6-2.8.5-3.7-.1-.4-.3-.4-.9-.5-1.3-.2-1-.4-2-.8-2.9-.2-.5-.3-.8-.8-.2-.5.7-1.1 1.1-1.7 1.6-.7.5-1.3.7-2.2.5-2-.5-4.2-.7-6.2-1.2a14 14 0 01-6-2.9 3.6 3.6 0 01-1.2-3.8c.4-1.4 1.3-2.7 2.8-3.2 1.2-.3 2.4-.2 3.8-.1zM93.6 140.7c2 .8 3.6 1.9 4.4 3.5 1 1.8 1.2 3.8.5 5.8-.4 1.4-2 2-3 1.5-1.7-1.1-2.4-2.5-1.3-3.9 1-1.4 1-2.8.5-4.3l-1.1-2.6z" fill="#fefefe"/><path d="M59.5 55.1c0 1.6-1.6 3.4-3.2 3.6-.3 0-.6 0-.7-.4-.3-1.2-2.2-2-3.2-1.9-.3 0-.8.2-.9-.1 0-.4 0-.8.2-1.2 1.8-2.3 3-2.7 6-1.9 1.6.4 1.8.6 1.8 2z" fill="#fefefe"/><path d="M50 123.2c2.5-1.6 2.5-1.6.7-5.1 1.4-.7 4.6.4 5.5 1.7 1 1.4.5 2.2-1.1 3.5-1.4 1-3 1.3-5.2 0zM58 75.1c1 .7 2 .9 3 .8 1.1 0 1.8.9 2.2 1.6.5 1 .9 2 .7 3.2 0 .6-.3.7-.7.6-3-.5-5.3-2.2-5.3-6.2zM28.6 144.7c2.5-2 5.4-1.3 7.4.2.7.6.7 1.4 0 2-1.4 1-2.9 1-4.4.5-.2 0-.5-.3-.5-.5-.3-1.3-1.4-1.7-2.5-2.3zM32 115.6a5 5 0 011-6.8c.3-.3.6-.3 1 0a7 7 0 012.3 3.5c.2.5.2.8-.5.9-1.6 0-2.9.9-3.7 2.4zM67.3 47.2c1.7-.9 2.4-2.2 2-4.1-.2-.6.2-.4.5-.4 1.7.4 3.7 3 3.6 4.8 0 .8-.3 1.3-1.2 1.3-1.8 0-2.6-.3-4.9-1.6zM42.8 175.2c1.8-.4 2.6-2.8 1.3-5 1.8 0 3.2.8 4.5 1.8.7.5.7 1.2.2 1.7-1.3 1.5-3.8 3-6 1.5zM79 50.5c2.5 1 3.8 3.2 3.7 5.2 0 .6 0 .7-.7.7a8 8 0 01-4.7-2c1.4-.9 2-2.2 1.6-4zM37.4 91.7c1.9-1.5 5.2-.7 6.5 1 .4.4.3.7 0 1-1 1-2 1.2-3.3 1.3-.6 0-1.2-.1-1.2-1.1 0-1.1-.8-1.8-2-2.2z" fill="#fdfdfd"/><path d="M112 80l1.6-1.8c.3-.3.6-.2 1 0 1.2.4 1.5 1.5 1.7 2.7V82l-4.2-2.2z" fill="#d5141a"/><path d="M109.8 77c1 0 1.8.2 2.7.3.4 0 .3.2.2.4l-.5.5c-1.9 1.8-2 1.7-2.7-.8 0-.4 0-.5.3-.5z" fill="#f9f9f9"/><path d="M107.8 84l1.6-1.5c.4-.3.5-.2.7.2l.6 2.5c-1-.2-1.9-.8-2.9-1.2z" fill="#f7f7f7"/><path d="M150.2 127.8c.5 2.9 1 5.7 1.2 8.6.2 2.7.2 5.5 0 8.3a32.4 32.4 0 01-6.2 16l-2 2.3c-.3.2-.6.5-1 .4.1-1 .4-2 .4-3.2 0-.5-.1-1-.4-1.6-.4-.7-1-1-1.8-.7a8.4 8.4 0 00-3.9 2.7c-.4.5-.7.5-1 0a21.8 21.8 0 01-.9-14.6c1.3-5.4 4.2-9.8 8.4-13.4a36 36 0 016.7-4.6c.1 0 .3 0 .5-.2z" fill="#11457d"/><path d="M117.1 70.6c1.4.1 2.4-1.1 3.9-.3-.8.4-1.5.8-1 1.7.4.8 1.5 1.3 2.4.9.8-.4 1 0 1.3.7-3 1-4.9-.5-6.6-3z" fill="#fbfbfb"/><path d="M122 72.4c-1 0-1.3-.4-1.4-1-.1-.3.3-.3.5-.3.6 0 1.3.2 1.3 1 0 .3-.3.3-.5.3z" fill="#f1f1f1"/><path d="M79 35.6c1.2-.8 1.4-1.8 1.4-3v-13c0-1.1.1-2.4-1.3-3 3.5-1.1 6.9-1 10.3-1 1.2 0 2.3.3 3.5.4.4.1.7.3.6.9v4.6a9 9 0 00-3.7-1.6c-1.6-.2-3.3-.6-5-.1-.4 0-.5.2-.5.5v.1c0 1.1-.3 2.5.2 3.2.5.6 2 .1 3 .1h4.3c.6 0 1.2 0 1.7-.7v5.6c-.6-.7-1.3-.7-2-.7h-6.3c-.6 0-1 .1-.9.8v2.7c0 .7.1 1 .9 1 1.9-.2 3.8.1 5.7-.5.9-.3 1.7-.7 2.6-1.5v5c0 .4-.2.4-.4.5-.6.3-1.2.3-1.8.3-3 .3-6 .5-9.1 0-1-.3-2-.5-3.2-.6z" fill="#fefefe"/><path d="M93 29.5c-2.1 1.9-4.6 1.8-7.2 1.8l-.3-.1c-.3-.7-.1-1.3 0-2 0-.4.5-.2.8-.2h5.3c.6 0 1 .2 1.5.5zM88.9 22.7h-3c-.6 0-.6-.4-.5-.8.1-.4-.4-1.2.5-1.3 2 0 4 .2 5.9 1 .3.2.9.4.8.8 0 .4-.6.3-1 .3h-2.7z" fill="#d6141a"/><path d="M112.6 15.6h4.5c.6 0 .7.2.7.7v7.2c0 .7 0 1 .8.9 1-.1 2.5.4 3.1-.2.6-.6.2-2 .2-3.1v-4.6c0-.7.1-1 .8-1 1.4.2 2.7.1 4.1.1v.3c-1.2 1-1 2.3-1 3.6v13.6c0 1.2 0 2.5 1.2 3.4h-4.6c-.6 0-.5-.4-.5-.8v-6.2c0-.8-.2-1-1-1h-2.4c-.7 0-.8.2-.8.8v6.4c0 .6 0 .8-.7.8h-4.8c1.9-1 1.6-2.4 1.6-3.8v-14c0-1.2-.1-2.2-1.2-3zM62.4 21.7V18c0-1.6 0-1.7 1.6-1.9 2.3-.3 4.6-.6 6.9-.4 2 .2 4 .1 6 1.2-1 .5-1.5 1.3-1.3 2.4.4 2.5-.5 4.3-2.4 5.8L67 31c-.3.3-.7.6-.5 1 .2.4.7.3 1 .3 2.1 0 4.1 0 6-.8.8-.3 1.5-.6 2.2-1.4v5.4c0 .2 0 .3-.3.4a35.3 35.3 0 01-14-.3v-.3c1.4-1 1.2-2.5 1.1-4-.1-1.3.3-2.2 1.3-3.1l7.2-7c.3-.2.9-.5.7-1-.2-.5-.8-.1-1.1-.2a11.6 11.6 0 00-8 1.7zM44.3 16.6c3.3-1 6.4-1 9.6-1 1.4 0 2.8.3 4.3.4.5 0 .5.5.5.9v4.6c-2.4-1.8-5-1.9-7.7-2-.7 0-1.2.3-1.4 1.1-.6 2.8-.7 5.5-.4 8.3l.3 2c.2 1.3.5 1.7 1.8 1.6 1.7-.2 3.5 0 5.1-.7l2.3-1.1v4.7c0 .3-.1.4-.4.5a36.2 36.2 0 01-10.2.4c-.6 0-1-.3-1.2-.8-1-2-1.4-4-1.6-6.2-.1-1.4-.3-2.8-.2-4.2.1-1.8.2-3.6.8-5.3.4-1 .2-1.8-.6-2.4l-1-.8zM110 21.5c-2.4-1.8-5.1-1.9-7.8-2-.6 0-1 .3-1.2 1-.8 3.7-.8 7.3 0 11 .3 1.2 1.2 1 1.8 1 1.7-.2 3.5 0 5.2-.8l2-1v4.6c0 .7-.5.7-.8.7a47.2 47.2 0 01-9.7.3c-.6 0-1-.3-1.2-.8-1.1-2-1.5-4-1.7-6.2 0-1.2-.2-2.5-.1-3.7 0-2.1.2-4.2.9-6.2.2-.7 0-1.2-.4-1.7l-1.2-1.1c3.4-1.2 6.8-1 10.2-1 1.1 0 2.3.3 3.4.4.5 0 .6.3.6.7v4.8zM155.7 36.5h-4.2c-.4 0-.6-.1-.6-.5l-.2-1.8c0-.5-.2-.6-.6-.6h-4.5c-.6 0-.7.2-.7.7-.2.7-.2 1.7-.6 2-.5.4-1.4.2-2.2.2h-3c2.2-1.9 2.2-4.6 2.8-7 1-3.5 1.6-7.2 2.3-10.8.3-1.1 0-2.1-.8-3l7-.1c.5 0 .8.1 1 .6l1.8 9 1.8 8 .7 3.3zM129.5 36.4c1.3-.8 1.4-1.8 1.4-3V18.7c0-1.2-.1-2.2-1.4-3h6.9c-2 1.2-1.3 3-1.3 4.7v13.3c0 1.1.3 2 1.6 2.7h-7.2z" fill="#fefefe"/><path d="M148 21.2l1.6 7.1c.2.9 0 1.2-.9 1.1h-2.5l1.7-8.2z"/><path d="M147.9 26.6c.4.3.3.9.5 1.3.1.2 0 .4-.4.4-.3 0-.4 0-.4-.4l.3-1.3z" fill="#d6141a"/></svg>