<?xml version="1.0" encoding="utf-8"?>
<!-- Generator: Adobe Illustrator 24.1.0, SVG Export Plug-In . SVG Version: 6.00 Build 0)  -->
<svg version="1.1" id="Layer_1" xmlns="http://www.w3.org/2000/svg" xmlns:xlink="http://www.w3.org/1999/xlink" x="0px" y="0px"
	 viewBox="0 0 200 200" style="enable-background:new 0 0 200 200;" xml:space="preserve">
<g>
	<path d="M22.567,137.573c0-45.328,0.009-90.657-0.041-135.985C22.524,0.171,22.892-0.001,24.182,0
		c50.212,0.039,100.424,0.039,150.636,0c1.291-0.001,1.657,0.172,1.656,1.588c-0.05,45.328-0.041,90.656-0.041,135.985
		c-0.352,2.296-0.16,4.632-0.546,6.928c-2.301,13.688-9.358,23.912-21.828,30.297c-6.884,3.525-14.232,5.693-21.621,7.777
		c-7.17,2.022-14.41,3.847-21.111,7.234c-4.23,2.138-7.932,4.914-10.54,8.966c-0.306,0.476-0.705,0.855-1.12,1.225
		c-0.111,0-0.223,0-0.334,0c-0.362-0.343-0.749-0.658-1.025-1.088c-3.292-5.14-8.194-8.213-13.654-10.523
		c-6.834-2.892-14.036-4.639-21.146-6.67c-6.638-1.896-13.202-4.005-19.308-7.311c-12.899-6.982-19.856-17.866-21.327-32.392
		C22.723,140.534,22.963,139.032,22.567,137.573z"/>
	<path style="fill:#E91212;" d="M86.973,71.509c-1.073-0.363-1.915-0.857-2.789-1.208c-3.189-1.281-4.935-4.011-6.891-6.552
		c-2.041-2.651-3.513-5.724-6.238-7.882c-0.856-0.678-1.55-0.811-2.4-0.554c-0.75,0.226-1.129,0.097-1.648-0.539
		c-1.344-1.648-2.955-2.905-5.159-3.386c-2.321-0.506-5.085,0.543-6.189,2.643c-1.221,2.324-1.611,4.818-1.576,7.42
		c0.011,0.824,0.335,0.973,1.069,1.013c3.901,0.211,5.132,1.438,5.603,5.465c0.047,0.399,0.473,0.862-0.064,1.16
		c-0.381,0.211-0.705-0.149-1.039-0.351c-2.365-1.427-4.414-3.245-6.362-5.176c-1.879-1.863-3.165-4.203-5.042-6.649
		c0.174,2.108,0.415,3.739,0.962,5.328c0.548,1.595,1.517,2.963,2.472,4.409c-0.811,0.265-1.203-0.456-2.123-0.423
		c0.903,2.154,2.154,3.931,3.771,5.386c1.529,1.376,3.273,2.472,5.336,2.997c1.026,0.261,0.568,0.882,0.201,1.511
		c-1.907,3.267-4.732,5.471-8.089,7.047c-4.416,2.072-8.505,4.593-11.74,8.322c-0.665,0.766-1.54,1.471-1.881,2.37
		c-0.634,1.668-1.346,1.179-2.38,0.473c-2.886-1.969-5.512-4.266-8.272-6.393c-0.552-0.426-0.609-0.984-0.608-1.623
		c0.012-8.957,0.025-17.914-0.013-26.871c-0.005-1.121,0.231-1.474,1.353-1.052c3.527,1.325,6.894,0.754,10.159-0.937
		c1.476-0.765,2.522-1.718,2.157-3.6c-1.081-5.564-3.065-10.533-8.58-13.202c-1.421-0.688-2.637-1.791-4.294-2.011
		c-0.614-0.082-0.789-0.589-0.787-1.239c0.021-11.071,0.022-22.142,0.001-33.213c-0.002-0.821,0.166-1.288,1.093-1.16
		c0.273,0.038,0.555,0.005,0.834,0.005c47.779,0,95.558,0.009,143.338-0.04c1.629-0.002,1.992,0.408,1.98,2.002
		c-0.078,10.625-0.05,21.252-0.026,31.878c0.002,1.109-0.204,1.572-1.469,2.028c-6.815,2.455-10.729,7.463-11.869,14.586
		c-0.399,2.495,1.228,4.1,4.139,4.997c3.085,0.95,6.047,0.714,9.185-0.284c0,0.687,0,1.275,0,1.863
		c0,8.679-0.011,17.358,0.015,26.036c0.003,1.049-0.202,1.727-1.149,2.463c-2.647,2.059-5.237,4.181-8.032,6.052
		c-0.715,0.479-1.048,0.379-1.399-0.202c-3.289-5.439-8.389-8.619-13.938-11.259c-3.277-1.559-6.032-3.74-7.951-6.879
		c-0.438-0.717-0.718-1.059,0.495-1.566c3.423-1.432,6.245-3.727,8.15-7.005c0.164-0.283,0.306-0.584,0.412-0.892
		c0.049-0.141-0.013-0.321-0.028-0.54c-0.701-0.305-1.119,0.622-1.978,0.367c2.084-2.875,3.465-5.963,3.372-9.983
		c-3.344,5.303-7.057,9.746-12.642,12.639c0.206-1.673,0.319-3.131,0.968-4.425c0.85-1.694,2.207-2.65,4.235-2.429
		c0.765,0.083,1.697,0.281,1.683-1.061c-0.033-3.243-0.209-6.457-2.875-8.792c-2.366-2.072-5.188-1.761-7.033-0.588
		c-1.006,0.64-2.036,1.346-2.801,2.354c-0.508,0.67-1.039,1.295-2.192,0.823c-0.797-0.326-1.804-0.026-2.422,0.823
		c-0.393,0.54-0.798,1.072-1.328,1.783c-2.109-4.717-4.068-8.976-5.901-13.288c-0.455-1.071-0.633-1.111-1.189-0.145
		c-0.188,0.327-0.519,0.576-0.802,0.842c-1.978,1.855-2.019,2.025-0.475,4.326c0.865,1.288,1.408,2.697,1.866,4.163
		c0.153,0.49,0.432,1.019-0.036,1.347c-0.466,0.327-1.027-0.112-1.345-0.395c-1.359-1.208-2.957-2.186-3.997-3.707
		c-0.408-0.597-0.599-0.491-0.959-0.088c-0.037,0.041-0.073,0.086-0.097,0.135c-0.534,1.08-1.979,1.753-1.941,2.945
		c0.039,1.214,1.617,1.438,2.416,2.214c0.399,0.387,0.802,0.772,1.178,1.181c0.502,0.545,1.198,1.041,0.719,1.944
		c-0.472,0.891-1.309,1.002-2.187,0.938c-1.778-0.128-3.393-0.775-4.943-1.615c-0.558-0.303-0.936-0.492-1.376,0.341
		c-0.581,1.098-1.473,2.033-2.239,3.032c-0.471,0.613-0.553,0.884,0.391,1.239c3.872,1.457,7.685,3.069,11.53,4.6
		c0.277,0.11,0.478,0.247,0.707,0.536c-1.496,1.641-3.563,2.224-5.68,3.131c2.183,1.401,4.539,1.429,6.864,0.955
		c1.153-0.235,1.237,0.005,1.4,1.032c0.951,5.98,2.42,11.852,4.203,17.628c0.811,2.627,2.949,4.128,5.713,4.395
		c1.235,0.12,2.21,0.427,2.513,1.666c0.296,1.209-0.266,2.115-1.391,2.681c-0.287,0.144-0.478,0.47-0.754,0.647
		c-2.19,1.403-2.229,1.418-1.011,3.645c1.146,2.095,1.742,4.458,3.185,6.409c0.271,0.367,0.323,0.55-0.398,0.896
		c-2.519,1.208-5.182,1.854-7.819,2.65c-0.596,0.18-1.049,1.093-1.408,1.756c-3.205,5.908-6.365,11.841-9.563,17.753
		c-0.452,0.836-0.597,1.574-0.111,2.464c4.92,9.018,9.808,18.054,14.721,27.076c2.429,4.462,4.895,8.904,7.331,13.362
		c0.233,0.426,0.868,1.176,0.153,1.315c-0.766,0.149-1.787,1.278-2.567-0.19c-1.999-3.764-4.062-7.494-6.101-11.237
		c-4.809-8.83-9.621-17.658-14.427-26.49c-0.339-0.624-0.643-1.267-1.048-2.071c-1.567,1.747-2.154,3.959-3.429,5.739
		c-1.345,1.878-1.224,3.505-0.011,5.616c4.138,7.202,7.972,14.579,11.914,21.893c1.503,2.79,2.985,5.591,4.478,8.386
		c0.251,0.47,1.182,1.106,0.315,1.403c-0.668,0.228-1.784,1.289-2.547-0.195c-0.873-1.699-1.893-3.322-2.8-5.004
		c-3.138-5.82-6.245-11.657-9.383-17.477c-1.401-2.599-2.911-5.141-4.248-7.771c-0.596-1.174-0.943-0.759-1.356,0.002
		c-1.28,2.352-2.494,4.74-3.818,7.066c-0.347,0.61,0.001,0.969,0.205,1.345c3.915,7.201,7.859,14.386,11.792,21.577
		c0.656,1.199,1.863,2.468,1.752,3.601c-0.095,0.978-2.035,1.172-3.154,1.709c-4.501,2.158-8.665,4.765-11.987,8.729
		c-3.982-4.7-9.066-7.553-14.554-9.808c-1.125-0.462-0.204-1.107,0.037-1.56c1.909-3.59,3.867-7.154,5.81-10.726
		c6.774-12.452,13.549-24.903,20.321-37.355c3.597-6.615,7.294-13.178,10.747-19.867c2.163-4.19,3.142-8.647,1.294-13.301
		c-0.403-1.015,0.295-0.924,0.934-0.958c3.288-0.174,4.931-0.91,7.25-3.265c-4.58-0.325-7.25-3.659-10.334-6.315
		c-2.914-2.509-5.694-5.17-9.284-6.773c-2.464-1.101-5.012-1.439-7.66-1.3c-0.194,0.01-0.38,0.188-0.672,0.342
		c3.515,2.476,2.729,5.682,1.794,9.012c-0.678,2.415-2.336,4.148-3.758,6.243c2.576,1.9,5.478,1.828,8.456,1.288
		c0.32-0.058,0.63-0.17,0.945-0.257c1.763-0.486,1.68-0.486,1.689,1.465c0.038,8.899-6.754,14.21-14.087,15.446
		c-8.065,1.359-15.873-0.059-23.571-2.457c-2.959-0.922-5.93-1.798-8.995-3.034c1.766-2.596,2.591-5.705,4.263-8.393
		c0.551-0.885,0.38-1.361-0.451-1.769c-0.842-0.414-1.555-1.017-2.332-1.52c-0.941-0.61-1.221-1.443-1.004-2.394
		c0.241-1.058,1.004-1.712,2.156-1.646c2.185,0.125,3.628-1.366,5.206-2.46c0.512-0.355,0.63-1.336,0.844-2.055
		c1.732-5.803,3.263-11.661,4.238-17.641c0.179-1.097,0.321-1.132,1.328-0.958C82.382,72.797,84.676,72.839,86.973,71.509z"/>
	<path style="fill:#E91212;" d="M42.843,168.933c1.299-2.324,2.546-4.497,3.738-6.7c4.605-8.509,9.19-17.028,13.788-25.541
		c1.41-2.61,2.874-5.191,4.238-7.823c0.542-1.046,1.28-0.958,2.111-0.607c1.031,0.435,0.909,1.09,0.429,1.972
		c-7.095,13.028-14.169,26.069-21.212,39.125c-0.636,1.178-1.248,1.342-2.357,0.611c-1.966-1.298-3.91-2.642-5.626-4.235
		c-1.292-1.199-1.286-3.105-1.645-4.721c-0.274-1.233-0.518-2.497-0.956-3.655c-0.52-1.377-0.339-2.885-1.017-4.203
		c-0.235-0.457,0.019-0.815,0.369-1.163c3.634-3.617,6.753-7.674,10.027-11.606c2.853-3.426,5.339-7.116,8.003-10.673
		c0.949-1.267,2.076-2.516,2.667-4.076c0.218-0.576,0.578-1.272,1.438-0.786c0.961,0.544,0.079,1.046-0.137,1.444
		c-5.767,10.622-11.568,21.225-17.347,31.84c-0.246,0.452-0.511,0.869-0.229,1.533C40.395,162.666,41.559,165.706,42.843,168.933z"
		/>
	<path style="fill:#E91212;" d="M156.769,168.988c0.276-2.29,1.36-4.342,2.27-6.371c1.084-2.418,1.341-4.27-0.204-6.713
		c-2.708-4.282-4.891-8.896-7.298-13.369c-2.95-5.48-5.898-10.961-8.87-16.429c-0.258-0.474-0.788-0.877-0.011-1.291
		c0.656-0.35,0.916,0.356,1.089,0.655c1.249,2.161,2.752,4.144,4.211,6.155c2.719,3.747,5.462,7.468,8.445,11.026
		c2.161,2.577,4.316,5.157,6.549,7.673c0.105,0.118,0.107,0.373,0.222,0.427c2.492,1.189,1.725,3.401,1.178,5.066
		c-0.766,2.335-1.314,4.727-1.807,7.092c-0.429,2.054-1.707,3.084-3.119,4.183c-0.857,0.667-1.78,1.25-2.674,1.87
		C156.748,168.961,156.769,168.988,156.769,168.988z"/>
	<path style="fill:#E91212;" d="M103.744,131.186c-2.059,3.872-4.094,7.757-6.184,11.613c-2.462,4.54-4.987,9.045-7.456,13.581
		c-4.384,8.055-8.765,16.111-13.09,24.197c-0.48,0.898-1.045,1.025-1.786,0.673c-0.47-0.223-0.953-0.229-1.525-0.391
		c1.781-3.365,3.518-6.715,5.319-10.031c2.49-4.584,5.047-9.131,7.54-13.714c4.38-8.051,8.763-16.102,13.075-24.189
		C100.53,131.249,102.207,131.593,103.744,131.186z"/>
	<path style="fill:#E91212;" d="M52.545,69.033c2.577,1.034,4.864,1.884,7.283,2.23c1.855,0.265,2.12-0.02,2.118-1.895
		c-0.002-2.645-0.459-5.097-2.582-6.995c-0.943-0.843-2.142-0.959-3.177-1.039c-1.063-0.082-0.926-0.522-0.921-1.142
		c0.021-2.76,0.545-5.363,2.948-7.074c1.89-1.345,4.576-0.829,6.391,0.773c1.53,1.35,2.476,2.458,1.462,4.791
		c-1.212,2.787-0.903,5.969-1.062,8.988c-0.105,1.982-0.301,3.929-0.68,5.873c-0.156,0.802-0.596,0.986-1.288,0.934
		C59.571,74.213,54.886,72.279,52.545,69.033z"/>
	<path style="fill:#E91212;" d="M146.216,69.601c-2.665,2.822-5.949,4.424-9.796,4.866c-0.724,0.083-1.251-0.056-1.399-0.986
		c-0.275-1.729-0.669-3.428-0.66-5.204c0.017-3.272-0.231-6.527-0.979-9.727c-0.025-0.106-0.003-0.223-0.019-0.332
		c-0.106-0.731-1.129-1.448-0.675-2.007c1.169-1.439,2.47-2.795,4.27-3.555c1.908-0.806,4.413-0.072,5.697,2.159
		c1.187,2.062,1.468,4.154,1.375,6.41c-3.915-0.14-5.792,1.776-6.627,6.262c-0.113,0.607-0.133,1.242-0.053,1.896
		c0.245,1.986,0.452,2.231,2.4,1.885C141.932,70.88,144.035,70.174,146.216,69.601z"/>
	<path style="fill:#E91212;" d="M62.831,177.817c1.318-2.517,2.555-4.951,3.857-7.35c3.193-5.885,6.421-11.751,9.626-17.629
		c3.495-6.411,6.993-12.821,10.461-19.247c0.826-1.531,2.17-0.883,3.677-1.046c-1.015,1.964-1.895,3.739-2.84,5.48
		c-3.379,6.224-6.788,12.431-10.171,18.653c-3.616,6.651-7.237,13.299-10.801,19.977c-0.705,1.32-1.401,2.225-3.005,1.319
		C63.46,177.876,63.222,177.889,62.831,177.817z"/>
	<path style="fill:#E91212;" d="M156.748,168.961c-2.251,1.658-2.326,1.703-3.674-0.538c-1.52-2.526-2.911-5.132-4.317-7.725
		c-5.131-9.462-10.247-18.932-15.361-28.404c-0.389-0.721-0.67-1.504-1.089-2.206c-0.332-0.555-1.011-0.99,0.03-1.536
		c0.799-0.419,1.52-0.883,2.133,0.219c0.983,1.765,1.991,3.515,2.954,5.29c3.83,7.062,7.634,14.138,11.471,21.196
		c2.373,4.365,4.79,8.705,7.18,13.061c0.167,0.304,0.363,0.548,0.693,0.67C156.769,168.988,156.748,168.961,156.748,168.961z"/>
	<path style="fill:#E91212;" d="M78.559,131.431c-2.563,4.789-5.107,9.589-7.695,14.365c-2.382,4.395-4.825,8.757-7.218,13.146
		c-2.814,5.159-5.634,10.315-8.382,15.509c-0.74,1.398-1.48,0.181-2.097,0.06c-0.893-0.174-0.255-0.852-0.029-1.272
		c3.841-7.164,7.67-14.334,11.555-21.474c3.596-6.609,7.343-13.137,10.826-19.803C76.423,130.229,77.496,131.712,78.559,131.431z"/>
	<path style="fill:#E91212;" d="M120.858,131.411c1.852-0.861,2.656,0.012,3.512,1.641c3.986,7.588,8.134,15.092,12.231,22.622
		c3.156,5.801,6.329,11.594,9.475,17.402c0.221,0.408,1.051,0.984,0.005,1.33c-0.675,0.223-1.407,1.098-2.125-0.28
		c-2.902-5.569-5.919-11.079-8.929-16.591c-4.528-8.291-9.089-16.565-13.627-24.851
		C121.165,132.256,121.014,131.783,120.858,131.411z"/>
	<path style="fill:#FED700;" d="M125.143,56.486c0.805,1.01,0.824,1.8-0.028,2.822c-1.862,2.231-3.229,4.837-5.131,7.053
		c-1.2,1.399-1.537,1.46-3.237,0.324C119.543,63.288,122.336,59.895,125.143,56.486z"/>
	<path style="fill:#FEC609;" d="M68.192,61.922c1.063-0.419,1.914-1.269,2.572,0.109c0.319,0.668,0.259,1.005-0.4,1.255
		c-0.203,0.077-0.415,0.129-0.621,0.198c-2.458,0.816-3.28,0.139-2.735-2.371c0.128-0.59,0.249-1.159,0.276-1.76
		c0.023-0.498,0.231-0.957,0.671-1.2c0.199-0.11,0.585-0.113,0.665,0.26c0.111,0.516,1.05,0.752,0.424,1.547
		C68.675,60.426,68.544,61.08,68.192,61.922z"/>
	<path style="fill:#FEFEFE;" d="M130.989,61.697c0.139-1.094-1.558-1.743-0.409-3.078c0.785-0.913,1.09-0.528,1.265,0.169
		c0.344,1.371,0.82,2.842,0.409,4.198c-0.448,1.477-1.76,0.661-2.666,0.447c-1.438-0.339-1.601-1.106-0.534-2.058
		C129.795,60.713,130.192,62.002,130.989,61.697z"/>
	<path style="fill:#E91212;" d="M50.703,62.615c1.892,1.752,3.627,3.677,5.749,5.2c0.534,0.383,1.049,0.763,1.639,1.05
		c0.227,0.11,0.528,0.274,0.35,0.608c-0.16,0.301-0.4,0.148-0.682,0.098c-1.768-0.313-3.146-1.186-4.265-2.589
		C52.421,65.635,51.374,64.284,50.703,62.615z"/>
	<path style="fill:#FED700;" d="M115.713,66.445c-0.049-0.026-0.305-0.112-0.298-0.168c0.023-0.198,0.094-0.421,0.22-0.572
		c2.414-2.879,4.842-5.747,7.259-8.623c0.418-0.497,0.786-1.036,1.211-1.526c0.141-0.162,0.277-0.515,0.632-0.231
		c0.321,0.257,0.133,0.427-0.047,0.646c-2.039,2.473-4.069,4.953-6.107,7.427c-0.727,0.883-1.5,1.732-2.182,2.649
		C116.225,66.287,116.133,66.487,115.713,66.445z"/>
	<path style="fill:#E91212;" d="M140.604,69.454c3.05-1.836,5.443-4.069,7.624-6.627C148.155,65.619,143.838,69.48,140.604,69.454z"
		/>
	<path style="fill:#FED700;" d="M123.698,55.04c-1.646,1.988-3.015,3.646-4.39,5.299c-1.428,1.718-2.864,3.429-4.286,5.152
		c-0.188,0.228-0.25,0.678-0.669,0.445c-0.483-0.269-0.098-0.502,0.096-0.741c2.405-2.954,4.789-5.925,7.223-8.855
		C122.071,55.861,122.434,55.24,123.698,55.04z"/>
	<path style="fill:#E91212;" d="M26.038,115.588c-0.363-2.221-0.139-4.032,1.004-5.636c0.251-0.352,0.498-1.015,1.148-0.615
		c0.528,0.325,0.422,0.791,0.17,1.305C27.604,112.183,26.897,113.747,26.038,115.588z"/>
	<path style="fill:#FED700;" d="M116.365,61.982c-0.843,0.381-0.798,1.683-1.773,1.753c-0.568,0.041-1.185-0.41-1.76-0.683
		c-0.448-0.213-0.399-0.451-0.085-0.852C114.101,60.47,114.214,60.443,116.365,61.982z"/>
	<path style="fill:#E91212;" d="M172.939,114.624c-0.771-1.335-1.003-2.905-2.014-4.115c-0.326-0.39-0.232-0.875,0.222-1.146
		c0.569-0.339,0.688,0.2,0.967,0.528C173.305,111.289,173.137,112.94,172.939,114.624z"/>
	<path style="fill:#FED700;" d="M112.945,60.906c-0.713,1.039-1.35,2.153-2.839,0.93c-0.309-0.254-0.521-0.334-0.265-0.699
		C110.777,59.796,111.862,60.439,112.945,60.906z"/>
	<path style="fill:#FED700;" d="M120.985,55.716c0.393-1.619-0.935-2.886,0.193-4.167C122.776,53.524,122.812,54.298,120.985,55.716
		z"/>
	<path style="fill:#FED700;" d="M110.977,64.553c0.711-0.899,2.136-1.058,2.822-0.403c0.282,0.269,0.288,0.573,0.112,0.87
		c-0.254,0.429-0.635,0.568-1.11,0.354C112.226,65.115,111.65,64.856,110.977,64.553z"/>
	<path style="fill:#FED700;" d="M119.614,57.901c-0.531,1.072-1.263,1.014-1.99,0.275c-0.297-0.302-1.104-0.494-0.616-1.188
		c0.275-0.391,0.623-0.817,1.187-0.222C118.6,57.194,119.118,57.512,119.614,57.901z"/>
	<path style="fill:#FED700;" d="M118.935,45.829c0.53,0.804,1.294,1.552,0.32,2.569c-0.385,0.402-0.567,0.194-0.866-0.134
		C117.412,47.196,117.802,46.462,118.935,45.829z"/>
	<path style="fill:#FED700;" d="M111.026,63.215c-0.353,0.338-0.286,1.065-1.018,0.913c-0.689-0.143-1.486-0.236-1.597-1.078
		c-0.04-0.302,0.433-0.912,0.876-0.747C109.88,62.524,110.727,62.402,111.026,63.215z"/>
	<path style="fill:#FED700;" d="M108.425,59.018c0.409,0.651,1.53,0.201,1.38,0.973c-0.074,0.381-0.288,1.406-1.098,1.256
		c-0.474-0.088-1.344-0.2-1.283-0.901C107.463,59.891,108.053,59.483,108.425,59.018z"/>
	<path style="fill:#FED700;" d="M120.158,51.787c-0.281-1.15-1.904-2.142,0.009-3.205C120.799,49.585,121.422,50.579,120.158,51.787
		z"/>
	<path style="fill:#FED700;" d="M116.814,61.107c-0.69,0.031-0.89-0.205-1.051-0.497c0.767-0.387,0.6-1.613,1.535-1.788
		c0.467-0.088,0.671,0.48,0.989,0.759C117.74,60.148,117.192,60.715,116.814,61.107z"/>
	<path style="fill:#FED700;" d="M118.568,55.188c0.601,0.529,1.41,0.478,2.093,0.763c0.442,0.184,0.204,0.491-0.04,0.751
		c-0.283,0.302-0.65,0.596-1,0.377c-0.574-0.359-1.099-0.827-1.547-1.336C117.941,55.592,118.325,55.318,118.568,55.188z"/>
	<path style="fill:#FED700;" d="M107.16,63.095c-0.174-0.549-1.22,0.059-1.136-0.831c0.057-0.6,0.497-1.101,1.021-1.062
		c0.408,0.03,1.205,0.199,1.138,0.836C108.14,62.46,107.942,63.153,107.16,63.095z"/>
	<path style="fill:#FED700;" d="M115.221,54.532c0.595,0.509,1.148,0.983,1.701,1.456c-0.241,0.271-0.459,0.794-0.818,0.647
		c-0.601-0.246-1.395-0.468-1.335-1.366C114.785,55.018,115.058,54.785,115.221,54.532z"/>
	<path style="fill:#FED700;" d="M122.528,50.107c0.365,0.835,0.68,1.626,1.057,2.388c0.206,0.416-0.003,0.649-0.289,0.794
		c-0.325,0.165-0.506-0.185-0.542-0.39C122.597,51.999,121.432,51.169,122.528,50.107z"/>
	<path style="fill:#FED700;" d="M121.51,49.999c0.141-0.94-1.401-1.649-0.472-2.819C122.145,48.826,122.145,48.826,121.51,49.999z"
		/>
	<path style="fill:#FED700;" d="M114.261,51.23c0.306,0.974,1.475,1.066,1.097,1.993c-0.211,0.516-0.62,0.002-0.944-0.097
		C113.236,52.769,113.913,52.115,114.261,51.23z"/>
	<path style="fill:#FED700;" d="M112.852,53.093c0.699,0.275,1.461,0.447,1.694,1.272c0.039,0.137-0.356,0.532-0.628,0.372
		C113.334,54.392,112.306,54.281,112.852,53.093z"/>
	<path style="fill:#FED700;" d="M116.983,55.1c-0.447-0.238-0.93-0.632-1.166-1.228c-0.04-0.102,0.365-0.548,0.599-0.378
		c0.468,0.337,0.923,0.754,1.223,1.238C117.817,55.016,117.417,55.121,116.983,55.1z"/>
	<path style="fill:#FED700;" d="M120.34,46.752c-0.112-0.583-0.943-0.977-0.424-1.681c0.063-0.086,0.339-0.141,0.351-0.12
		C120.574,45.513,120.925,46.079,120.34,46.752z"/>
	<path style="fill:#FED700;" d="M123.387,54.292c0.133-0.106,0.321-0.257,0.51-0.408c0.124,0.156,0.377,0.353,0.343,0.46
		c-0.054,0.172-0.278,0.346-0.465,0.405C123.55,54.82,123.369,54.682,123.387,54.292z"/>
	<path d="M87.102,99.29c-1.273,7.619,3.378,13.252,8.625,15.683c-2.238,0.699-3.779,0.589-6.422,0.316
		c-2.016-0.208-4.041-0.289-6.026-0.746c-2.007-0.462-4.022-0.893-6.023-1.378c-0.608-0.147-1.075-0.574-1.228-1.198
		c-0.822-3.361-1.314-6.729,0.087-10.07c0.34-0.811,0.247-1.019-0.738-0.974c-2.753,0.126-5.003-1.224-7.132-2.778
		c-0.416-0.304-0.486-0.919,0.151-0.918c3.889,0.008,6.311-2.669,8.811-4.963c3.37-3.093,6.679-6.193,10.92-8.078
		c1.507-0.67,3.094-0.969,4.729-1.099c3.587-0.286,6.862,0.939,10.039,2.296c1.44,0.615,1.468,2.326,1.292,3.775
		c-0.539,4.455-2.68,7.884-6.664,10.053C94.112,101.067,90.655,100.818,87.102,99.29z"/>
	<path style="fill:#FEFEFE;" d="M104.34,19.776c0,1.278,0.076,2.562-0.023,3.833c-0.088,1.131,0.205,1.537,1.424,1.493
		c2.719-0.1,5.444,0,8.166-0.049c0.853-0.016,1.158,0.194,1.134,1.099c-0.063,2.388-0.059,4.78-0.001,7.168
		c0.021,0.878-0.234,1.136-1.115,1.119c-2.777-0.055-5.557,0.033-8.333-0.047c-1.056-0.031-1.302,0.293-1.276,1.303
		c0.07,2.721-0.005,5.446,0.041,8.168c0.015,0.865-0.105,1.297-1.14,1.263c-2.387-0.078-4.779-0.07-7.166-0.003
		c-0.938,0.026-1.086-0.343-1.073-1.159c0.043-2.667-0.046-5.337,0.044-8.001c0.04-1.195-0.202-1.638-1.513-1.58
		c-2.662,0.119-5.333-0.001-7.999,0.055c-0.92,0.02-1.247-0.216-1.219-1.184c0.069-2.332,0.065-4.669,0.001-7.001
		c-0.026-0.942,0.255-1.224,1.2-1.203c2.777,0.06,5.557-0.019,8.333,0.043c0.962,0.022,1.208-0.288,1.189-1.215
		c-0.057-2.722,0.013-5.446-0.038-8.168c-0.017-0.929,0.093-1.399,1.225-1.351c2.329,0.099,4.667,0.081,6.999,0.006
		c1.006-0.032,1.199,0.355,1.157,1.245C104.292,16.995,104.34,18.387,104.34,19.776z"/>
	<path style="fill:#FEFEFE;" d="M137.905,10.809c-0.554,0.286-1.107,0.591-1.676,0.863c-1.26,0.601-1.884,1.553-1.862,2.985
		c0.04,2.611,0.011,5.223,0.011,7.899c1.219-0.156,2.065-1.005,2.892-1.66c1.05-0.832,1.249-0.233,1.632,0.515
		c0.248,0.485,0.139,0.976,0.141,1.461c0.015,3.779,0.004,7.557,0.014,11.336c0.001,0.477-0.134,0.981,0.333,1.384
		c0.862,0.743,0.846,0.762-0.661,2.414c-0.465,0.51-0.479,0.523-1.395-0.474c-0.399-0.434-0.728-0.931-1.203-1.547
		c-0.276,0.346-0.459,0.786-0.775,0.928c-0.694,0.31-0.574,1.852-1.518,1.345c-1.018-0.546-1.836-1.501-1.816-2.924
		c0.054-3.778,0.018-7.557,0.018-11.336c0-1.723,0.186-3.47-0.043-5.162c-0.36-2.658,1.081-4.576,2.365-6.549
		C135.146,11.084,136.334,10.356,137.905,10.809z"/>
	<path style="fill:#FEFEFE;" d="M69.026,36.185c-0.324,0.214-0.713,0.369-0.96,0.65c-1.711,1.948-1.707,1.955-2.985-0.462
		c-0.091-0.171-0.182-0.342-0.305-0.571c-0.352,0.961-1.326,1.362-1.68,2.274c-0.164,0.421-0.547,0.415-0.94,0.068
		c-0.947-0.834-1.55-1.799-1.544-3.107c0.015-3.282-0.066-6.567,0.03-9.846c0.061-2.089,1.974-2.947,3.308-4.045
		c0.726-0.598,1.072-1.029,1.018-1.914c-0.055-0.887,0.125-1.806-0.038-2.665c-0.474-2.492,1.092-3.9,2.674-5.299
		c0.808-0.714,1.829-0.617,3.25-0.449c-1.43,0.277-2.455,0.619-3.017,1.562c-0.54,0.906-0.562,1.955-0.558,3.01
		c0.027,6.231,0.026,12.462,0.001,18.693c-0.004,1.089,0.071,1.969,1.634,1.611C68.951,35.858,68.989,36.021,69.026,36.185z"/>
	<path style="fill:#FEFEFE;" d="M81.519,35.651c-0.737,0.788-1.159,1.157-1.482,1.599c-1.02,1.392-1.406,1.368-2.262-0.2
		c-0.153-0.28-0.309-0.559-0.523-0.945c-0.293,0.371-0.547,0.662-0.766,0.977c-0.948,1.364-1.94,1.354-2.438-0.235
		c-0.853-2.722-0.485-5.572-0.21-8.345c0.05-0.503,0.203-1.089,0.068-1.563c-0.764-2.688,0.062-4.511,2.584-5.483
		c0.25-0.096,0.529-0.116,0.785-0.201c0.648-0.215,1.406-1.091,1.832-0.708c0.627,0.564,0.824,1.579,0.878,2.531
		c0.211,3.706-0.48,7.378-0.369,11.082C79.65,35.277,79.812,36.032,81.519,35.651z"/>
	<path style="fill:#FEFEFE;" d="M124.793,27.636c-0.161-1.067-0.515-2.035-0.461-3.091c0.031-0.59-0.458-1.099-1.035-1.067
		c-0.609,0.033-0.606,0.654-0.605,1.168c0.007,2.948,0.007,5.897,0.001,8.845c-0.002,0.819,0.199,1.614,1.006,1.882
		c0.992,0.33,1.538-0.508,1.949-1.198c0.708-1.188,0.716-2.521,0.474-3.874c0.977,1.154,0.781,2.614,0.473,3.759
		c-0.411,1.527-1.233,2.994-2.206,4.32c-0.19,0.258-0.254,0.363-0.6,0.291c-2.006-0.421-3.428-2.129-3.43-4.184
		c-0.002-2.948,0.009-5.897-0.007-8.845c-0.004-0.75,0.092-1.246,0.889-1.718c1.3-0.77,2.398-1.878,3.597-2.822
		c0.685-0.539,1.348-1.131,1.588,0.421C126.775,23.774,127.501,26.062,124.793,27.636z"/>
	<path d="M121.352,63.296c-0.175,0.163-0.337,0.43-0.492,0.427c-0.157-0.003-0.307-0.276-0.461-0.43
		c0.155-0.153,0.307-0.424,0.464-0.427C121.019,62.864,121.179,63.132,121.352,63.296z"/>
	<path style="fill:#E91212;" d="M136.381,29.847c0,1.555,0.033,3.111-0.021,4.665c-0.015,0.439,0.418,1.226-0.572,1.231
		c-0.843,0.004-1.36-0.446-1.397-1.292c-0.046-1.053-0.013-2.11-0.013-3.165c0-2.166,0.047-4.334-0.026-6.497
		c-0.025-0.754,0.274-1.306,0.881-1.261c0.575,0.042,1.274,0.289,1.185,1.325C136.277,26.506,136.381,28.181,136.381,29.847z"/>
	<path style="fill:#E91212;" d="M64.952,21.227c0,4.368-0.005,8.487,0.008,12.607c0.001,0.384-0.166,0.673-0.444,0.823
		c-0.461,0.247-0.699-0.195-0.934-0.467c-0.479-0.555-0.655-1.204-0.643-1.957c0.037-2.435-0.033-4.872,0.032-7.305
		C63.008,23.532,63.292,22.175,64.952,21.227z"/>
	<path style="fill:#E91212;" d="M77.304,26.024c0,3.114,0.006,5.988-0.009,8.863c-0.002,0.333,0.19,0.841-0.453,0.855
		c-0.444,0.01-0.85-0.235-0.828-0.636c0.156-2.866-0.669-5.818,0.721-8.575C76.799,26.404,76.96,26.325,77.304,26.024z"/>
	<path style="fill:#E91212;" d="M77.251,23.729c0.3,2.243-2.125,2.21-2.797,4.032C74.185,24.812,74.262,24.714,77.251,23.729z"/>
</g>
</svg>
