<svg xmlns="http://www.w3.org/2000/svg" viewBox="0 0 200 200"><path d="M33.97 30.92h132.1v82.16c-.2.28-.1.6-.1.9 0 3.62-.03 7.24 0 10.87.04 3.75-.03 7.5-.12 11.24-.11 4.99-.33 9.99-1.53 14.87a62.6 62.6 0 01-3.85 10.83 58.2 58.2 0 01-9.16 14.37 70.82 70.82 0 01-18.81 15.48c-7.22 4.06-15 6.41-23.14 7.63-2.8.42-5.62.67-8.46.64-.23 0-.48-.08-.7.09h-.92c-1.07-.23-2.17-.1-3.26-.16a63 63 0 01-15.17-2.71 67.82 67.82 0 01-21.34-10.83 64.73 64.73 0 01-17.28-19.28 67.5 67.5 0 01-4.87-10.62 45.45 45.45 0 01-2.66-11.46c-.2-2.09-.37-4.18-.44-6.28-.27-8.35-.18-16.7-.2-25.05 0-.18.05-.37-.1-.53V30.92zM137.52 0c.51 1.34 1.72 2 2.8 2.74 1.83 1.26 3.73 2.4 5.55 3.67 1.64 1.13 2.71 2.55 2.66 4.75-.1 4.67-.03 9.33-.03 14 0 .6 1.08 1.84 1.67 1.92.45.06 1.99-1.26 1.99-1.72 0-7.32-.01-14.64.01-21.95 0-1.08-1-1.15-1.47-1.75-.1-.13-.3-.16-.6-.3h12.76c.06.12-.12.1-.2.14-1.54.66-1.78 1.85-1.76 3.42.1 6.55.07 13.11.01 19.66 0 1.07.28 1.76 1.24 2.19.2.08.35.27.64.5h-.71c-6.59 0-13.17-.02-19.76.01-1.18 0-1.8-.94-2.72-1.38-.12-.06-.06-.51-.06-.78V11.58c0-.86-1.33-2.82-2.05-3.07-.12-.04-.16.02-.2.06-1.1 1-2.2 1.93-2.17 3.67.07 4.24.05 8.48 0 12.72 0 .7.24 1.1.74 1.46l1.14.81h-12.54c0-.24.27-.3.39-.34 1.34-.54 1.59-1.53 1.55-2.9-.11-3.53-.06-7.07-.03-10.6.02-2.32-.03-3.36-2.25-4.87-1.87 1.1-2.26 2.75-2.19 4.8.14 3.93.03 7.86.05 11.8 0 .51-.14.76-.6 1.1a5.7 5.7 0 01-3.87 1.07c-2.13-.08-4.26-.02-6.6-.02l.7-.38c.97-.56 1.47-1.25 1.44-2.54-.11-4.6-.02-9.2-.06-13.8-.01-2.07 1.08-3.47 2.66-4.5 2.55-1.65 5.2-3.15 7.6-5.05.34-.26.59-.6.73-1h.19c.6.39.91 1.05 1.37 1.57a19.47 19.47 0 004.11 3.4c.6.39 1.1.33 1.69-.01a20.7 20.7 0 005.32-4.37c.2-.23.42-.43.68-.59h.18zM60.42 1.28c3.38 0 6.75.02 10.13-.01.74-.01.56.44.56.83 0 5.36.05 10.73-.03 16.1-.03 2.07.65 2.32 2.38 2.63 1.98.37 2.04.24 2.04-1.77 0-5.64.02-11.28-.02-16.92 0-.74.22-.88.9-.87 3.33.03 6.65.01 10.17.01l-.68.38c-1 .59-1.47 1.32-1.45 2.63.1 6.76.09 13.53 0 20.3-.01 1.24.48 1.87 1.45 2.36.12.06.23.14.5.32h-4.25c-3.84 0-7.68.07-11.52-.03a10.02 10.02 0 01-6.76-2.76 5.42 5.42 0 01-1.69-4.08 981.9 981.9 0 01.02-16.46c.01-1.04-.34-1.67-1.2-2.12-.2-.1-.3-.38-.55-.54zM37.33 18.85h9.04c.3 0 .35.11.42.4.44 1.7 3.35 2.56 4.65 1.4.54-.49.28-1.64-.44-2.17-1.73-1.25-3.74-1.86-5.7-2.54-2.48-.86-4.48-2.3-5.6-4.67-1.91-4.07-.44-8.3 4.5-9.45a22 22 0 016.63-.5c2.23.16 4.38.66 6.04 2.43.84.9 1.37 2 1.36 3.08-.02 1.46.82 1.98 1.82 2.54-.12.29-.36.14-.54.14-2.53.01-5.06 0-7.58.02-.55 0-.86-.06-.77-.72.12-.93-.59-1.29-1.27-1.45-.6-.14-1.29-.1-1.9.01-1.1.2-1.37 1.21-.64 2.08.93 1.12 2.2 1.7 3.5 2.25 2 .85 4.09 1.5 5.96 2.64a6.63 6.63 0 013.17 5.05c.2 1.38.16 2.68-.43 3.91-.9 1.89-2.52 2.98-4.45 3.59-2.86.9-5.78 1.14-8.77.78a10.71 10.71 0 01-3.25-.8c-1.79-.82-2.76-2.35-3.46-4.13-.4-1.05-.38-2.3-1.43-3.08-.3-.22-.73-.3-.86-.81z" fill="#002247"/><path d="M100.02 33.67h62.1c1.2 0 1.2 0 1.2 1.16 0 28.76.04 57.51-.05 86.27 0 3.77.03 7.55-.16 11.32-.15 2.81-.18 5.63-.34 8.45a52.95 52.95 0 01-4.15 17.9 61.68 61.68 0 01-7.66 13.23 65.11 65.11 0 01-7.98 8.5 61.39 61.39 0 01-16.34 10.85 62.57 62.57 0 01-14.23 4.43c-3.44.64-6.92.99-10.4 1.33-2.73.27-5.37-.14-8.04-.38-3.28-.31-6.52-.85-9.7-1.68-3.84-1-7.55-2.37-11.16-4a68.16 68.16 0 01-12.47-7.55c-1.4-1.04-2.7-2.25-4.02-3.4a46.16 46.16 0 01-4.39-4.35 64.72 64.72 0 01-7.7-10.62 63.9 63.9 0 01-5.33-12.5 38.43 38.43 0 01-1.59-8.25c-.33-3.6-.44-7.2-.59-10.8-.09-2.22-.09-4.43-.12-6.65-.41-30.67-.08-61.34-.18-92.01 0-1.42-.17-1.25 1.28-1.25h62.02z" fill="#0770af"/><path d="M109.9 7.87c.07-2.5-1.19-4.17-3.27-5.3a11.4 11.4 0 00-5.94-1.3c-2.5.09-5.02-.23-7.49.38-3.49.86-5.52 2.77-5.46 6.78.07 4.05.02 8.1.01 12.15 0 .67.14 1.31.44 1.89 1.71 3.2 4.63 4.45 8.03 4.77 1.69.15 3.4.02 5.11.03 2.39 0 4.6-.62 6.47-2.09 1.28-1 2.1-2.35 2.1-4.06v-6.86c0-2.13-.05-4.26 0-6.4zm-8.78 11.23c0 .95-.23 1.7-1.25 2-.99.27-1.96.26-2.8-.38-.31-.23-.36-.66-.35-1.07V14.1c0-1.8.02-3.6 0-5.39-.01-.51.16-.8.63-1.05.9-.47 1.78-.45 2.68-.14.8.28 1.1.87 1.1 1.74a688.8 688.8 0 000 9.85zM105.56 94.24c.09.87.6 1.47 1.11 1.94 1.38 1.29 1.32 2.76.9 4.4-.25 1.03-.6 2.01-.86 3.04.67-.81.9-1.81 1.16-2.79.13-.55.23-1.12.22-1.7 0-.5.21-.73.82-.47 2.14.91 3.68 2.47 5 4.33 3.47 4.84 7.87 8.63 12.93 11.77 2.77 1.72 5.77 2.59 8.87 3.22 2.35.49 4.28-.4 6.02-2.02 1.77-1.65 2.3-3.77 2.75-5.98.48-2.35-.56-4.1-2-5.81-1.23-1.45-2.82-2.5-4.05-4.1l5.16-2.28c.32-.14.43.15.6.28 1 .76 1.87 1.66 2.74 2.56a3.2 3.2 0 002.7.94 5.58 5.58 0 014.66 2.03c.07.08.13.18.25.36-1.29.04-2.49-.17-3.67.14-.64.17-1.66.21-1.63.83.02.61 1.07.52 1.7.65 1.1.22 2.24.31 3.07 1.2.33.36.76.82.58 1.24-.15.33-.81.19-1.2.1a5.79 5.79 0 00-2.41.01c-.3.06-.68.07-.75.38-.07.33.34.38.56.5 1.24.64 2.56 1.14 3.5 2.25.23.28.6.53.37.93-.2.33-.54.04-.82.02-1.3-.1-2.58-.37-3.94-.17.13.45.53.53.88.67a7.58 7.58 0 013.47 2.52c.18.25.44.47.16.8-.28.31-.56.07-.83-.04-1.7-.69-3.08-.42-4.4.9-1.8 1.8-3.58 3.63-5.58 5.23a7.03 7.03 0 01-3.46 1.46c-2.05.3-4.11.42-6.17.26-1.43-.11-2.52-.99-3.37-2.11-.2-.27-.36-.55-.87-.76.4.85.78 1.5 1.35 2.04 1.24 1.14 1.8 2.63 2.2 4.2.12.42.13.91-.2 1.3-1.02-.36-1.5-1.52-2.54-1.88l-.2.21c.65.65 1.3 1.29 1.94 1.95a5.53 5.53 0 011.58 3.93c0 .87-.36 1.05-1.15.65-.85-.43-1.33-1.33-2.38-1.83.63 1.25 1.61 1.98 2.27 2.96.65.97 1.49 1.82 1.73 3.1-1.37-.03-2.36-1.06-3.65-1.16-.24.22-.03.47.1.62 1.17 1.35 2.38 2.64 4.21 3.15.7.2 1.25-.05 1.83-.25.42-.15.81-.41 1.23-.6 1-.45 1.93-.37 2.92.21a5.65 5.65 0 012.95 5.07c.02.74.33 1.15 1.04 1.4 1.63.55 1.96 1 1.87 2.73-.04.94.38 1.7.6 2.55.07.3.38.66-.05.87-.4.19-.66-.15-.88-.47a6.05 6.05 0 00-2.43-2.05c-.05.47.23.74.5.9 1.99 1.25 2.49 3.25 2.83 5.35v.09c-.06.37.48.87.03 1.06-.43.18-.77-.36-1.08-.68a10 10 0 00-2.34-1.83c-.07.56.3.78.55.93.7.43 1.22 1.03 1.67 1.7.1.15.21.3.26.47.34 1.24-.01 2.43-.33 3.62-.1.32-.32.34-.58.19l-.45-.3c-.39-.27-.74-.86-1.22-.61-.5.25-.5.96-.5 1.47-.03.98-.2 1.93-.4 2.87-.06.26-.15.63-.34.72-1.64.84-1.17 2.48-1.47 3.81-.09.38-.06.91-.4 1-.3.1-.54-.38-.75-.68-.45-.67-.88-1.33-1.76-1.62-.9-.3-1.6.03-2.3.45-.37.22-.6.38-1.04.08-.46-.31-.96-.18-1.4.25-.64.64-1.2 1.38-1.99 1.86-.24.15-.29.4-.25.64.1.74-.32 1.13-.92 1.41-.13.07-.3.12-.39.23-.63.68-1.35 1.11-2.24.56-1.13-.7-2.32-1.37-2.5-2.91-.11-.97.53-1.42 1.2-1.84 1.32-.83 2.87-.88 4.33-1.25.15-.03.3-.03.4-.32a7.63 7.63 0 00-4.9 1.05c-.7.42-1.32.96-2 1.4-1 .63-1.56.42-1.86-.69-.34-1.23-.59-2.48-1.92-3.11-.36-.17-.16-.47.08-.65 1.82-1.42 3.84-1.24 5.84-.59a5.9 5.9 0 003.37.15c.19-.05.36-.15.33-.36-.03-.2-.23-.16-.37-.17-.3 0-.6.02-.9.1-.53.14-1.12.23-1.6-.05-1.27-.72-2.63-.6-3.98-.6-1.13 0-1.24-.16-.88-1.21.38-1.12.76-2.23 1.26-3.3.35-.76.85-.92 1.62-.71 1.11.3 2.19.66 3.2 1.23.95.52 1.92 1.03 2.98 1.33 1.18.32 1.75.1 2.3-.99.77-1.52 1.07-3.2 1.38-4.85.27-1.44.17-2.9.19-4.36a2.94 2.94 0 00-1.76-2.84c-2.1-1.06-4.4-1.45-6.65-2.05-1.28-.34-2.56-.64-3.8-1.16-.44 1.47-.16 2.97-.23 4.45-.03.7-.04 1.38-.16 2.08-.15.81-.54.77-1.1.5-1.39-.7-1.77-1.6-1.44-3.23.18-.88.34-1.77.3-2.92-.5 1.44-.48 2.71-.7 3.95-.12.63-.24 1.25-.74 1.71-.5.48-1.05.45-1.38-.13a7.66 7.66 0 01-.8-4.31c.02-.28.3-.45.54-.58.39-.22.63-.53.68-1.2a10.38 10.38 0 00-3.21 3.88c-.1.21-.08.56-.38.55-.35-.02-.23-.4-.25-.6-.1-1.15-.6-2.3-.14-3.47a5.63 5.63 0 011.78-2.26c1.4-1.12 1.72-2.45 1.75-4.2.05-4.4.15-8.81 1.32-13.14.47-1.73.45-3.6.11-5.42-.06-.32-.02-.66-.02-1a5.02 5.02 0 00-3-4.37c-.15-.06-.3-.06-.46.1.33.64.98.95 1.54 1.3 1.31.82 1.69 2.06 1.73 3.48.02 1 0 2 0 3.01 0 .89-.16 1-.91.53s-1.55-.83-2.37-1.14a35.61 35.61 0 00-5.12-1.5c-.5-.11-.9-.28-.46-.93 1.12-1.65.06-2.86-1.45-3.43-1.96-.75-4.05-.94-6.1-1.28-1.87-.31-3.76-.5-5.64-.76-.56-.08-.71-.36-.39-.86l.49-.77c.33-.51.45-1.03.17-1.62-.68-1.49-.2-2.9.32-4.3.16-.41.4-.8.31-1.29a7.4 7.4 0 00-1.01 5.65c.34 1.15-.6 1.8-1.13 2.63-.92 1.43-2.33 1.24-3.67 1.05-.73-.1-1.45-.06-2.18-.1-.39-.03-.52.1-.42.54.15.7.2 1.44.28 2.15.06.53-.16.77-.73.79-1.34.05-2.38-.56-3.33-1.42-.3-.26-.49-.67-1.1-.78.41.76.86 1.3 1.38 1.78.24.24.52.52.42.86-.13.4-.57.23-.88.28-1.87.3-3.02-1-4.34-1.91-.39-.27-.73-.61-1.35-.79.58.94 1.34 1.48 2.07 2.03.42.3.36.41-.02.7-1.1.8-2.25.44-3.42.27-1.59-.23-3.05-.94-4.62-1.27-.83-.18-1.54.03-2.29.21-2.12.51-3.44 2.03-4.57 3.74-.6.9-1.23 1.45-2.4 1.06-.83-.29-1.73-.2-2.61-.2-.65 0-1.05-.33-.9-.95.17-.62.06-1.26.28-1.88.23-.64-.05-.85-.71-.84-1.35.02-2.6.64-3.93.62-1.65-.01-2.99.72-4.33 1.58-1 .65-2 .11-2.31-1.03-.36-1.29-.25-2.64-.53-3.94-.02-.12.07-.29.16-.4a3 3 0 013.5-.93c1.3.52 2.62 1.07 4.1.74.01-.33-.22-.26-.38-.29-1.07-.19-2.14-.37-3.13-.86-1.2-.6-2.4-.6-3.53.21-.5.37-.81.22-1.15-.3-.96-1.54-.95-2.67.22-4.06.49-.58 1.08-1.07 1.6-1.63.34-.37.67-.15.98-.02a17.2 17.2 0 015.43 3.23c.1.08.2.15.4-.03a8.04 8.04 0 00-2.73-2.38c-.63-.36-1.3-.66-1.97-.93-1.21-.48-1.57-1.72-.71-2.71a13.5 13.5 0 012.64-2.22c.73-.5 1.36-.32 1.96.19 1.15.95 2.13 2.05 3 3.25 1.42 1.97 3.23 3.1 5.74 2.77 1.22-.17 2.27-.81 3.42-1.19a24.7 24.7 0 0010.2-6.72c.8-.84 1.7-1.38 2.97-1.26.83.08 1.68-.19 2.45-.56.42-.2.8-.26.94.26.18.68.66.59 1.07.45 1.84-.65 3.8-1.07 5.23-2.58.1-.1.2-.26.37-.16.19.1.2.3.19.49-.05 1.88.26 3.73.55 5.58.06.41.16.82.24 1.24.48 0 .62-.4.9-.61.84-.62 1.64-1.24 2.65-1.65a5.67 5.67 0 003-3.04c.14-.33.34-.64.57-1.06.7 1.2.93 2.51 1.72 3.54.7.9 1.17 1.99 2.22 2.6.18.1.35.34.52.04.6-1.03 1.37-2.02.8-3.36-.41-1-.73-2.04-1.19-3.02.13 1.21.58 2.34 1 3.47.29.77-.18 1.86-.95 2.16-.28.1-.38-.1-.53-.23a7.46 7.46 0 01-1.78-2.4c-.69-1.4-1.3-2.86-1.95-4.29-.51-1.14-.46-2.33-.94-3.59-.19 1.33.08 2.45.38 3.55a3.1 3.1 0 01-.5 2.8 9.04 9.04 0 01-2.17 2.18c-.18.12-.35.3-.57.17-.21-.15-.2-.38-.17-.65.1-1.23.47-2.43.39-3.79-.56.75-.36 1.57-.5 2.3-.36 1.96-.88 2.93-2.69 4.24-.83-3.73-.65-7.52-1.37-11.21 0 .65-.03 1.3.01 1.96.15 2.34-.65 2.68-2.54 3.69-.8.42-1.7.62-2.55.93-.46.17-.93.25-1.22-.2-.27-.44-.06-.88.22-1.27l1.9-2.65c.13-.2.22-.41.27-.67-.62.38-.96 1-1.4 1.54-.82 1.04-1.58 2.15-2.76 2.82-.88.5-1.82.67-2.95.12 1.97-2.04 1.93-5 3.47-7.23.5-.71 1.12-1.34 1.68-2.02.24-.3.57-.3.9-.3.86 0 1.72.02 2.57-.01.44-.02.7-.16.28-.65-.22-.26-.3-.65-.46-.98-.3-.63-.2-1.2.32-1.64.55-.48 1-.1 1.42.29.04.02.12 0 .21 0 .09-.37-.17-.63-.31-.9-.24-.44-.2-.84.14-1.16a.98.98 0 011.2-.14c.33.2.65.43.99.63.95.58 1.87 1.16 3.1 1.11 1.96-.09 3.06-.79 3.6-2.7.38-1.38.71-2.84.3-4.25-.59-2.02-1.79-3.67-3.8-4.46-1.47-.6-3.83.73-4.21 2.23-.1.4-.28.47-.56.25-1.63-1.22-3.21-2.5-4.28-4.28-.28-.46-.17-.9.41-1.06.89-.23 1.03-1 1.45-1.83-.48.16-.6.37-.73.6-.25.44-.68.68-1.16.8-.58.14-1.03-.18-1.4-.51-.37-.33-.02-.73.12-1.09.17-.4.5-.69.8-.98 1.1-1.05 1.89-2.35 2.83-3.53a8.45 8.45 0 002-4.34c0-.08.08-.16.12-.24.74-1.64.83-1.67 2.43-.88 3 1.5 6.05 2.92 9.16 4.21.94.4 1.61.83 1.45 2.06-.1.88.96 1.37 2.08.87a6.66 6.66 0 002.73-2.22c-.84-.01-1.2.57-1.68.91-.43.3-.89.55-1.36.74-.5.2-1.1.24-1.34-.35-.19-.5-.2-1 .4-1.5 1.41-1.16 3.06-1.42 4.74-1.5 1.88-.1 2.71 1.53 2.59 3.18-.1 1.31-.84 2.29-1.58 3.29-.31.42-.73.8-.73 1.6.6-.75 1.16-1.32 1.57-2 .31-.52.58-.38.94-.16.03.02.05.05.07.05 2.1.6 2.59 2.21 2.72 4.12a4.4 4.4 0 001.1 2.63c.16.2.43.46.24.7-.2.27-.55.34-.92.23a9.46 9.46 0 01-2.26-1.14l-.88-.56c.3 1.14 1.24 1.35 1.86 1.83a3.43 3.43 0 011.41 2.32c.19 1.12.5 2.23.76 3.35.08.36.4.87-.16.97-.5.09-1.16.35-1.55-.35a8.43 8.43 0 00-2.08-2.45c.48 1.29 1.34 2 1.9 2.9.91 1.48.79 3.1.7 4.7-.02.4-.37.63-.88.38-1.25-.61-1.8-1.83-2.53-2.9-.12-.16-.2-.35-.37-.69-.1.74.2 1.18.48 1.58.56.83 1.03 1.72 1.8 2.4.3.26.45.62.45 1.05 0 1.34-.18 2.65-.56 3.93-.33 1.13-.57 1.13-1.45.41-1.23-1-2.3-2.14-3.47-3.55.2 1.13.64 1.86 1.08 2.6a7.2 7.2 0 011.1 3.5c.03 1.16-.44 1.42-1.48.89-1.78-.91-3-2.41-4.2-3.95-.17-.22-.27-.52-.66-.69z" fill="#002247"/><path d="M90.6 130.64c-1.28-.18-2.55-.34-3.78.2-.38.17-.78.33-1.1 0-.37-.37-.05-.7.17-1.03.3-.43.55-.87.92-1.24 1.16-1.15 1.15-1.15 2.61-.48.58.27 1.18.5 1.74.78.36.18.69.12 1.23.1-1-.73-1.99-1.08-2.97-1.44-.68-.25-1.36-.48-2.04-.75-.18-.07-.45-.1-.47-.35-.01-.21.22-.26.34-.38.86-.8 1.8-.53 2.74-.23 1.06.34 2.13.68 3.18 1.05.29.1.53.16.74-.09 2.03-2.34 4.94-3.06 7.62-4.23 2.16-.94 4.49-1.48 6.46-2.85.52-.36 1.01-.76 1.54-1.11.15-.1.34-.28.57-.07.22.2.07.37 0 .57-.83 2.07-.82 2.05 1.34 2.65 2.3.63 4.62 1.22 6.64 2.58.42.29.97.61.74 1.2-.32.8.09 2-1.22 2.3-2.17.5-2.5 2.28-2.76 4.09-.24 1.7-.87 3.14-2.57 3.87-.25.1-.54.3-.77.1-.26-.2-.18-.56-.04-.84.4-.85.26-1.6-.4-2.35.4 2.68-.99 4.64-2.26 6.64-.14.21-.37.37-.63.23-.24-.12-.44-.31-.46-.63-.07-.7.08-1.38.26-2.06.24-.89.15-1.73-.56-2.46.71 1.76.1 3.27-.76 4.76-.47.8-1.27 1.2-2 1.67-.7.44-1.14.13-1.15-.71-.02-1.09 0-2.17-.07-3.27a14.8 14.8 0 00-1.34 5.1c-.06 1.36.22 2.8.87 4.04.66 1.25.5 2.42-.16 3.5a25.24 25.24 0 01-5.76 6.72c-.58.46-1.25.77-2 .77-.6 0-.95-.23-.77-.97.2-.87.3-1.77.38-2.67-.43.73-.54 1.56-.67 2.38a3.65 3.65 0 01-3.45 2.93c-.59 0-.59-.2-.36-.64.49-.98.97-1.96 1.42-2.95.06-.14.24-.3.06-.6-.56 1-1.1 1.96-1.62 2.92-.3.56-.67 1.08-1.15 1.5-.22.21-.45.47-.77.34-.31-.13-.37-.45-.36-.77.02-.52 0-1.04 0-1.56 0-.23-.02-.46-.24-.55-.3-.13-.46.13-.58.32-.82 1.34-1.63 2.7-1.91 4.28-.28 1.56-.62 1.81-2.18 1.54-.45-.07-.9-.2-1.34-.2-1.8-.05-1.94-1.38-2.16-2.69-.37-2.23-.98-2.5-3.2-2.29-2.13.2-3.09 1.74-4.24 3.1-.4.46-.86.73-1.4.9-.62.21-1.05-.09-1.31-.65-.43-.94-.98-1.8-1.56-2.66-.77-1.15-.37-2.02.96-2.3.98-.2 2.03-.09 3.02-.56-1.6-.72-3.74-.12-4.6 1.3-.32.52-.64.6-1.18.31-1.32-.7-1.75-1.53-1.5-3 .2-1.17.53-2.3.86-3.43.2-.71.61-.76 1.16-.54.82.33 1.62.61 2.53.67 1.2.07 2.01 1.03 3.02 1.54.23-.3.05-.48-.14-.64a5.47 5.47 0 00-3.14-1.48c-1.06-.07-1.93-.66-2.9-.98-.22-.07-.23-.24-.12-.44.72-1.37 1.5-2.72 2.96-3.43 1.26-.61 2.24-.27 3.2 1.05a19.44 19.44 0 002.91 3c.66.59 1.59.7 2.5.59 2.55-.33 4.98-1.17 7.44-1.9l3.73-1.08c1.84-.52 2.2-1.94 2.54-3.5.24-1.08-.09-1.9-.69-2.83-.61-.96-.44-2.22-.6-3.35-.07-.5 0-1.01-.12-1.53-.11-.54.1-1.09.74-1.29.29-.08.6-.12.73-.54-.36-.09-.68-.1-1.02.05-1.25.54-2.53 1.03-3.59 1.93-.27.24-.64.49-.99.27-.35-.22 0-.56.05-.83.15-.86.27-1.74.58-2.55.43-1.13 1.49-1.44 2.58-1.48.7-.02 1.36-.22 2.05-.4zM128.75 106.5c-.3 1.01-.26 2.07-.37 3.1-.08.68.12 1.39-.2 2.26-.84-1.3-1.62-2.45-2.16-3.75-.1-.24-.02-.52.12-.79.86-1.67 1.43-3.46 2.14-5.2.23-.56.56-1.07.97-1.52.15-.17.27-.33.15-.65-1.14.86-1.43 2.17-1.93 3.33-.43 1-.8 2.02-1.2 3.03-.11.29-.25.55-.64.55-.4 0-.5-.28-.64-.55-.64-1.23-1.38-2.51-.34-3.8.82-1.02 1.83-1.88 2.8-2.77 1.92-1.77 4.5-1.98 6.83-2.7 4.35-1.36 8.4-3.2 12.03-5.98a12.73 12.73 0 004.24-5.55c.4-1.03.4-2.14.32-3.23a31.66 31.66 0 00-.42-3.32 8.3 8.3 0 00-2.4-4.3c-.7-.72-1.4-1.43-2.14-2.12-.35-.33-.33-.55 0-.9.53-.54 1.25-.96 1.5-1.94-1.1.94-2.06 1.77-3.05 2.6a1.9 1.9 0 01-1.51.42c-.64-.1-.91-.9-.69-1.84.2-.8.15-1.58-.05-2.38a9.36 9.36 0 01-1.48 3.04c-.44.54-.8 1.38-1.64 1.24-.91-.16-1.08-1.07-1.27-1.82-.24-.9-.39-1.82-.6-2.82-.41.42-.41.92-.49 1.35a8.35 8.35 0 01-.83 2.39c-.61 1.19-1.32 1.24-2.07.11-.6-.9-1.13-1.86-1.68-2.8-.08-.12-.11-.27-.4-.26.24.48.45.94.68 1.38.36.69.15 1.25-.55 1.42-2.42.6-3.82 2.22-4.84 4.4-.53 1.13-1.04 2.1-.83 3.49.23 1.54.14 3.14.45 4.69a7.45 7.45 0 002.55 4.07c2.55 2.3 5.61 3.87 8.4 5.85.26.19.66.35.61.7-.03.28-.46.34-.73.45-1.26.51-2.57.88-3.9 1.2-.33.09-.69.08-1.03-.17-1.76-1.28-3.57-2.49-5.3-3.8-2.75-2.12-4.75-4.76-5.34-8.27-.38-2.26-.16-4.51.13-6.78a13.9 13.9 0 012.06-5.82 13.67 13.67 0 015.5-4.87c2.34-1.2 4.7-2.34 7.36-2.72 1.97-.28 3.79.03 5.6.72 2.14.82 4.14 1.97 6.2 2.98 1.52.76 2.51 2.27 3.59 3.57 1.65 2 2.5 4.45 3.1 6.9.4 1.6.37 3.34.16 5.06-.18 1.38-.18 2.8-.84 4.04-1.03 1.95-2.16 3.79-3.91 5.27-3.08 2.62-6.7 4.2-10.3 5.84-1.8.8-3.52 1.8-3.8 3.93-.2 1.59-.24 3.23.07 4.82a4.4 4.4 0 01-2.36 4.73c-.6.27-.65-.17-.68-.49-.05-.75-.1-1.53 0-2.28.23-1.6.19-3.26.69-4.83.07-.25 0-.54 0-1.02-.56 1.14-.51 2.21-.7 3.23-.3 1.68-.18 3.39-.2 5.09 0 .8-.86 1.72-1.64 1.7-.55-.01-.5-.55-.53-.89-.06-.82-.06-1.65-.01-2.47.07-1.2.16-2.4.3-3.6.18-1.5.77-2.86 1.36-4.22.08-.18.25-.35 0-.65-.8 1.54-1.38 3.1-1.67 4.77-.3 1.76-.14 3.52-.18 5.28 0 .4-.08.78-.16 1.16-.24 1.07-.49 1.2-1.33.52-.57-.44-.93-.98-.9-1.78.04-1.68 0-3.36 0-5.03.76-1.63 1.6-3.21 2.45-4.79-.84 1.58-1.73 3.14-2.43 4.8zM96.47 44.23c1.26.74 2.15 1.57 2.28 3.04.08.91.27 1.78 1.32 2.19.54.2.86.74 1 1.33.22.94-.08 1.32-1.05 1.3-.45-.02-.88.1-1.29.33-.61.34-1.13.77-1.06 1.54.06.66 1.04 1.45 1.77 1.48.33.01.68.03 1-.05 1.27-.32 1.53-.25 1.98.9.28.68.62 1.16 1.42 1.17.88 0 1.6-.3 2.07-1.06.4-.66.07-1.7-.77-2.51-1.25-1.2-1.21-1.41.34-2.19.6-.3 1.22-.5 1.92-.48a4.6 4.6 0 002.15-.63c1.73-.86 2.71-.4 2.87 1.5.1 1.12.37 2.13.92 3.1.19.32.2.67.23 1.04.03.52-.16.7-.68.68a4.3 4.3 0 00-2.76.7c-.6.43-.82 1.3-.5 2.04.29.69.78.75 1.48.59.52-.12 1.06-.21 1.59-.34.83-.2 1.36.11 1.58.93l.13.52c.34 1.44.67 1.67 1.88 1.32 1.35-.38 1.74-1.15 1.33-2.46-.1-.33-.3-.59-.48-.86-.6-.98-.54-1.12.62-1.35.9-.18 1.8-.28 2.69 0 1.3.43 2.63-.02 3.94.18.12.02.25-.02.37.02.45.14 1.14.19 1.3.5.2.4-.46.7-.77 1-1.51 1.49-3.08 2.93-4.59 4.43a43.77 43.77 0 00-4.75 5.6c-.34.47-.6.48-1.03.21-.46-.29-1.06-.45-1.38-.84-.37-.45.12-1 .2-1.52.2-1.5-.42-2.91-1.7-3.64-.9-.52-1.91-.31-2.86-.21-1.25.13-2.5.47-3.49 1.34-.3.27-.55.25-.9.09-3.48-1.64-6.97-3.24-10.45-4.88-1.16-.54-1.34-.92-1.03-2.19.66-2.75 1.36-5.5 2-8.26.42-1.8.76-3.64 1.16-5.6z" fill="#002247"/><path d="M128.44 182.12c.21.73-.2.98-.72 1.3a6.6 6.6 0 01-6.27.42c-1.95-.8-3.82-1.77-5.73-2.66-.4-.19-.68-.34-.2-.81.3-.27.51-.73.55-1.12.08-.9.55-.55.97-.37 1.03.43 1.98 1 3.14 1.13a5.57 5.57 0 004.08-1.26c1.95-1.46 3.86-3 5.8-4.49 1.8-1.39 3.68-2.68 5.38-4.18.89-.78.98.22 1.45.35.09-.13-.03-.21-.07-.32-.08-.27-.65-.35-.37-.7a1.2 1.2 0 011-.43c.63.03 1.15.19 1.52.74.64.96 1.27 1.92 2.02 2.8.56.66.19 2.15-.56 2.62-.55.33-.77.18-.8-.48.1 1.14-.77 1.48-1.45 1.94-2.18 1.47-4.39 2.91-6.58 4.37-.81.54-1.74.9-2.46 1.62-.54.53-.5-.18-.7-.47zM146.3 51.22c.33-.87.8-.34 1.09-.03.67.71.48 1.93-.23 2.66-.64.66-1.21 1.4-1.74 2.15-.4.59-.96.81-1.6.9-.5.07-.91-.21-1.15-.6-.24-.41.43-.42.48-.75-.05-.02-.13-.09-.15-.07-.86.65-.96.6-1.93-.42a49.24 49.24 0 00-3.7-3.45c-1.05-.9-2-1.88-3-2.82-1.4-1.33-2.68-2.82-4.36-3.77a4.87 4.87 0 00-4.66-.22c-.5.24-1.06.37-1.6.54-.3.1-.46-.07-.5-.36-.03-.24-.03-.47-.15-.7-.63-1.31-.62-1.3.73-1.8 1.6-.56 3.17-1.2 4.78-1.73a7.07 7.07 0 016.94 1.07c.54.4.1.82.22 1.29.37-.92.63-.65 1.18-.14 1.08 1 2.32 1.81 3.47 2.74 1.9 1.51 3.84 2.95 5.67 4.54.38.34.04.69.22.99-.12.13-.19.28-.27.44.1-.15.17-.3.25-.46zM64.18 80.61c-.08-1.28.09-2.37-.2-3.45-.12-.5-.03-.8.7-.9 1.24-.18 2.45-.63 3.68-.96 1.45-.4 2.9-.14 4.33.1.4.08.35.52.41.8.39 1.7.75 3.42 1.07 5.14a8.28 8.28 0 01-.33 3.55c-.07.26-.28.19-.44.2-.43 0-.86.03-1.28-.01a1.8 1.8 0 00-1.59.67 2.6 2.6 0 01-2.9.84c-.85-.24-1.74-.33-2.6-.58-.44-.12-.7-.34-.69-.8.08-1.6-.39-3.2-.16-4.6zM112.28 178.77c-.39.54-.82.46-1.36.2-3.13-1.5-6.27-2.99-9.42-4.45-3.28-1.53-6.58-3.01-9.86-4.54-1.75-.8-3.44-1.74-5.21-2.47-1.3-.54-2.52-1.22-3.82-1.73-.45-.18-.66-.36-.1-.72.3-.2.61-.46.77-.77.44-.85.93-.55 1.57-.26 2.4 1.12 4.86 2.09 7.21 3.28 2.82 1.42 5.73 2.63 8.56 4.02 3.01 1.48 6.12 2.78 9.17 4.18.91.42 1.79.92 2.73 1.26.29.1.35.29.24.58-.18.47-.33.96-.5 1.44l.02-.02zM54.25 138.52c-.65.65-.02 1.34-.3 2.02-.4 1-.65 1.25-1.7.91a7.62 7.62 0 01-2.5-1.34c-.99-.82-.8-2.08.36-2.7.13-.06.27-.14.41-.17.33-.05.54-.24.43-.55-.1-.28-.33.07-.53.01-.19-.05-.4.04-.6.1-.47.14-.93.09-1.41-.09-.73-.27-.2-.83-.35-1.23-.46-1.29.06-2.39.75-3.43.55-.84 1.07-.87 1.84-.18.37.33.64.79 1.23 1.03a1.48 1.48 0 00-.4-.93c-.69-.84-.39-1.92.63-2.22a5.21 5.21 0 013.74.35c.87.39 1.03 1.22.48 2.06-.07.11-.25.19-.08.37.17.18.26-.02.39-.05.31-.08.52-.35.67-.58.55-.81 1.15-.55 1.67-.07.93.85 1.27 2 1.31 3.21.04.98-1.13 1.58-2.04 1.17-.25-.12-.5-.4-.84-.16.03.43.38.56.7.72 1.25.67 1.52 1.38.72 2.5-.69.95-1.57 1.74-2.86 1.81-.81.04-1.2-.43-1.32-1.15-.07-.47-.19-.92-.4-1.41zM108.8 163.3c.12.58.63.67 1.04.88.83.44 1.03 1 .64 1.84a4.23 4.23 0 01-2.72 2.29c-.74.23-1.48-.26-1.7-1.08-.11-.45-.2-.9-.39-1.37-.08.24-.44.28-.26.68.3.62-.07 1.22-.28 1.8-.2.55-.67.67-1.19.5a8.42 8.42 0 01-3-1.7c-.77-.68-.48-1.9.57-2.46.23-.12.5-.18.72-.31.19-.1.21-.32.13-.49-.09-.17-.25 0-.38 0-.6 0-1.15.31-1.84.14-.6-.16-.66-.34-.69-.85-.07-1.34-.19-2.64.73-3.82.53-.68 1.22-1.13 1.95-.15l.82 1.12c.52-.53.27-.72.08-.95-.93-1.19-.62-1.97.83-2.4 1.17-.35 2.25-.05 3.3.34 1 .36 1.16 1.2.47 2.08-.1.13-.11.22-.04.31.07.11.15.19.35.1.4-.16.65-.46.9-.75.49-.6 1-.49 1.47-.06a4.33 4.33 0 011.4 3.28c.02.96-1.08 1.6-1.97 1.24-.29-.1-.53-.42-.93-.2zM139.27 85.38c-.32.24-.44.4-.32.72.06.16.04.36.04.54-.07 1.51-.88 2.09-2.24 1.53a6.4 6.4 0 01-2.25-1.43c-.78-.81-.6-1.83.39-2.44.37-.23.99-.14 1.1-.85-.8.02-1.58.26-2.37.18-.29-.03-.63-.03-.64-.36-.07-1.52-.38-3.08.78-4.41.74-.85 1.05-.92 1.86-.17.34.31.5.88 1.16.9-.03-.37-.19-.6-.37-.84-.71-.9-.53-1.79.56-2.13a5.54 5.54 0 014.03.35c.58.26.7 1.3.34 1.84-.09.14-.45.2-.18.48.28.3.42-.01.58-.16 1.4-1.23 1.74-1.15 2.83.44.4.6.55 1.26.62 1.92.14 1.26-1.02 2.02-2.18 1.5-.19-.09-.42-.4-.6-.1-.16.27.18.4.33.53.2.17.46.27.69.4.73.42.85 1.07.6 1.79-.36 1.06-2.12 2.19-3.25 2.24-.78.03-1.08-.4-1.23-1.03-.12-.45-.18-.9-.28-1.44zM81.7 42.55c-.04-.32-.2-.56-.42-.82-.66-.8-.39-1.87.59-2.18a5.44 5.44 0 013.91.37c.75.33.9 1.3.35 1.96-.13.16-.23.21-.09.4.18.26.34.03.46-.03.2-.1.4-.27.54-.47.58-.81 1.17-.65 1.78-.06.91.87 1.3 2 1.25 3.19-.04 1.05-1.09 1.48-2.08 1.04-.22-.1-.45-.36-.76-.1.02.33.26.5.54.63 1.9.84 1.41 1.88.6 2.93-.5.64-1.2 1.1-1.95 1.4-.93.37-1.74-.1-1.95-1.08-.07-.32-.26-.61-.2-.97.04-.2-.12-.4-.28-.38-.16.01-.26.21-.26.43.02.42.01.85 0 1.28-.03 1.1-.55 1.43-1.62 1.18a6.57 6.57 0 01-2.49-1.33c-1.11-.87-.93-2.06.33-2.76.3-.17 1-.05.79-.7-.03-.1-.72 0-1.12.12-.46.15-.94.11-1.4-.1-.14-.07-.3-.04-.33-.24-.27-1.66-.32-3.28.92-4.64.48-.53 1.02-.6 1.55-.06.38.38.73.8 1.09 1.2l.25-.2zM51.6 50c-.42.41-.2.9-.25 1.33-.1 1.2-.54 2.26-2.2 1.45-.64-.32-1.28-.61-1.85-1.08-1.23-1-1.17-2.06.22-2.86.3-.17 1-.05.8-.58-.1-.31-.72-.1-1.13.01-1.33.34-1.83-.14-1.9-1.55-.06-1.39.22-2.6 1.26-3.6.42-.4.76-.43 1.16-.01.42.42.85.82 1.3 1.25.36-.6-.15-.82-.3-1.12-.44-.8-.33-1.52.45-1.88 1.44-.66 2.87-.37 4.2.3.69.35.76 1.18.29 1.91-.12.19-.14.36-.02.48.12.1.27-.03.38-.15l.39-.38c.92-.92 1.4-.94 2.19.08.59.76 1 1.61.98 2.63-.02 1.32-.93 1.9-2.13 1.38-.15-.07-.4-.45-.59-.06-.12.25.08.42.3.57 1.95 1.27 1.97 1.64.29 3.33-.4.4-.84.73-1.4.91-1.33.4-2.03-.02-2.13-1.4-.03-.35-.06-.66-.32-.97zM155.85 41.1c.51-.08.81-.45 1.09-.8.48-.59 1-.5 1.48-.08a3.9 3.9 0 011.42 3.25c-.05 1.06-.98 1.6-1.98 1.19-.19-.08-.35-.27-.58-.18-.11.04-.24.12-.27.21-.03.06.08.2.15.27.06.06.17.07.25.1 1.81.79 1.96 1.87.43 3.33a4.5 4.5 0 01-1.47 1c-1.3.5-2.07-.01-2.2-1.4-.04-.47-.04-.47-.55-1.16v1.6c-.03 1.39-.7 1.86-1.98 1.46-1-.3-1.81-.9-2.6-1.53-.77-.63-.29-2.12.81-2.55.38-.14.73-.23.86-.76-.82.06-1.57.23-2.35.17-.51-.04-.74-.24-.76-.67-.07-1.44-.14-2.88.89-4.12.57-.68 1.32-.76 1.82-.02.28.41.57.74 1.06.87.24-.46-.22-.67-.38-.95-.5-.87-.4-1.46.44-1.99.94-.58 3.63-.17 4.22.36.63.57.78 1.19.28 1.9-.1.14-.12.27-.08.5zM72.96 136.67c-.85.27-1.65.18-2.45.2-.31.01-.43-.06-.52-.42a5.1 5.1 0 01.78-4.44c.4-.56 1.1-.63 1.64-.15.35.32.7.65 1.07.97h.1c.25-.36-.02-.56-.23-.77-.93-.9-.26-1.85.55-2.11a4.93 4.93 0 014 .35c.58.31.7 1.18.34 1.9-.07.13-.26.23-.1.38.14.15.33.1.48-.02.16-.14.32-.29.45-.45.66-.83 1.17-.77 1.9-.05.91.91 1.3 2.14 1.1 3.47-.1.67-1.12 1.14-1.8.9-.3-.11-.54-.45-.91-.19.05.48.46.6.8.77 1.13.6 1.33 1.2.63 2.28a4.67 4.67 0 01-2.06 1.71c-1.62.7-1.98-.02-2.3-1.32-.06-.2 0-.43-.04-.64-.04-.17-.17-.34-.38-.3-.2.05-.13.24-.14.38-.04.63.1 1.27-.19 1.87-.26.57-.6.87-1.3.66-1.04-.33-2.01-.75-2.81-1.5-.96-.87-.7-2.2.54-2.67.38-.15.72-.25.85-.8zM50.13 79.39c-.21-.36-.35-.64-.53-.9-.56-.77-.43-1.47.39-1.97.82-.51 3.71-.34 4.34.37.61.68.64 1.5-.13 2.23.77.28 1-.34 1.29-.68.57-.67 1.02-.5 1.58 0 1.1.97 1.36 2.22 1.22 3.6-.07.72-1.2 1.12-1.98.8-.22-.1-.5-.56-.72-.13-.18.34.22.48.49.62 1.63.88 1.74 1.78.42 3.1-.38.4-.83.69-1.3.94-1.36.71-2.34.21-2.56-1.3-.03-.15-.01-.3 0-.46 0-.23-.08-.46-.32-.44-.17.01-.24.23-.24.44v1.28c-.03 1.08-.64 1.5-1.66 1.21a8.76 8.76 0 01-2.9-1.67c-.68-.52-.2-2.03.74-2.43.1-.05.24-.04.33-.1.21-.14.64-.17.5-.51-.1-.27-.48-.11-.74-.1-.08 0-.15.11-.23.11-.49.02-.98.1-1.46.02-.74-.12-.34-.8-.48-1.2-.47-1.46.1-2.7.98-3.81.54-.68 1.22-.55 1.8.3.27.37.58.63 1.17.68zM152.86 132.94c.23.55.7.62 1.05.78 1.02.46 1.04 1.5.58 2.1a4.98 4.98 0 01-2.5 1.98c-.91.27-1.64-.07-1.82-.97-.1-.47-.35-.9-.18-1.41-.67.06-.67.53-.54.81.2.44.01.82-.06 1.2-.16.77-.74 1.08-1.53.9a6.93 6.93 0 01-2.98-1.72c-.74-.65-.2-2 .93-2.48.16-.07.32-.14.5-.19.2-.05.18-.2.16-.35-.02-.22-.2-.19-.35-.18-.05 0-.1.05-.16.06-.77.2-1.94.4-2.23-.04-.44-.65-.42-1.74-.3-2.6.12-.8.5-1.58 1.13-2.2.51-.5.94-.5 1.47 0 .38.35.63.99 1.33.88.08-.31-.19-.39-.28-.56-.23-.45-.8-.75-.5-1.42.3-.69.9-1 1.54-1.06.98-.1 1.97-.07 2.92.32 1.05.42 1.37 1.22.75 2.12-.11.16-.25.27-.08.47.26.28.35-.04.48-.14.52-.4.84-1.25 1.7-.92 1.06.41 1.44 1.38 1.73 2.37.11.4.22.83.17 1.23-.1.91-1.2 1.48-2.03 1.09-.3-.14-.54-.2-.9-.07zM75.05 91.8c.69.5 1.44.79 2.14 1.17 1.57.85 3.1 1.75 4.68 2.6.5.27.7.51.46 1.12-.77 2.02-2 3.72-3.47 5.27-.22.23-.4.27-.69.13-2.02-1-4.06-1.97-6.09-2.97-.44-.23-.72-.57-.61-1.15.29-1.54.35-3.13 1.28-4.49.58-.84 1.53-1.1 2.3-1.68zM63.84 65.46c.32.46.56.86.86 1.22.34.41.84.48 1.18.09.5-.56.95-.8 1.65-.37.18.11.48.02.71.02.08.57-.35 1.03-.18 1.63.35-.81.64-1.57.7-2.41.02-.27.04-.98.42-.82 1.01.45 1.22-.7 1.93-.78.21-.03.22-.24.16-.36-.75-1.69-.77-3.6-1.52-5.28-.41-.94-1.08-1.7-1.7-2.5 1.12-.84 2.13-.6 3 .45 1.36 1.65 1.41 3.74 2.06 5.62.3.87.45 1.78.68 2.67.52 2-.04 3.7-1.4 5.17-.3.32-.69.42-1.13.47-2.04.2-4.09.18-6.1.52-.46.08-.83.02-1.1-.51-.45-.87-1.05-1.65-1.45-2.55-.17-.36-.04-.75.12-.8.69-.24.83-.87 1.11-1.48z" fill="#fefefe"/><path d="M99.72 84.38c-.38-.81-1.05-1.04-1.72-1.2-1.5-.35-3-.7-4.55-.64-1.68.08-3.35.34-5.01.64-1.95.36-3.84.26-5.54-.9-1.08-.73-1.3-2.23-.6-3.69.56-1.12 2.11-1.86 3.2-1.54.34.1.4.31.43.61.05.54.11 1.08.2 1.62.1.75.78 1.38 1.55 1.4 1.42.05 2.83-.12 4.24-.32 2.9-.41 5.5.17 7.7 2.22.55.52.48 1.06.1 1.8z" fill="#002247"/><path d="M119.58 45.18l.02.18c.11 1.5.1 1.49-1.37 2-1.92.66-3.82 1.37-5.74 2.04-.17.06-.31.28-.57.1-.92-.58-1.79-.18-2.62.22-.8.39-1.62.52-2.49.63-1.38.18-2.69.68-3.4 2-.22.42-.58.5-.9.66-.95.44-2.02.54-2.94 1.09-.29.17-.8.22-.95-.2-.14-.37.29-.5.56-.68.34-.24.71-.2 1.05-.14 1.08.16 1.82-.58 1.78-1.82-.02-.68.28-.95.86-1.16 2.86-1 5.71-2.04 8.57-3.07 2.1-.76 4.23-1.46 6.3-2.3.85-.35 1.42-.4 1.86.47l-.02-.02zM85.56 90.66c-1.16 1.12-1.84 2.52-2.6 3.87-.18.34-.3.48-.71.26a451.34 451.34 0 00-6.23-3.3c-.31-.16-.52-.52-.48-.7.2-.75.08-1.5.17-2.25.02-.15.11-.26.36-.24 3.27.28 6.45.91 9.49 2.36z" fill="#fefefe"/><path d="M69.65 88.97c0-1.78 1.22-3.17 2.78-3.15 1.52.01 2.62 1.45 2.73 3.24.1 1.56-1.47 3.16-2.74 3.17-1.27 0-3.08-1.38-2.77-3.27z" fill="#002247"/><path d="M93.43 53.65c-.27 1.02-.48 1.78-.66 2.56-.09.37-.42.41-.68.5-2.01.76-4.04 1.46-6.05 2.22-.8.3-1.67.44-2.42.89-.32.18-.72.36-.63-.32.06-.39-.1-.75-.28-1.02-.5-.77-.14-1 .56-1.24 2.96-1.02 5.9-2.1 8.83-3.16.31-.12.59-.31.9-.43.19-.07.44-.1.43 0z" fill="#fefefe"/><path d="M67.8 98.07c.24-1.45.86-2.67 1.34-3.94.04-.08.1-.15.13-.24.81-1.75.81-1.75 2.44-.9.3.15.33.37.23.69-.37 1.3-.74 2.6-.9 3.95a2.03 2.03 0 01-.86 1.46c-.43.28-.8.78-1.43.46-.65-.33-.75-.98-.96-1.48zM78.24 87.83c-1.25-.33-2.62-.34-3.43-1.66-.43-.69-.7-1.28-.3-2.08.26-.5.38-1.08.56-1.62.1-.3.12-.73.6-.64.4.07.66.44.64.78-.06 1.06.56 1.64 1.32 2.17l1.57 1.06c.45.3.87.66.65 1.26-.19.54-.69.72-1.24.73h-.37z" fill="#002247"/><path d="M65.99 65.28c.01.47-.07.96-.56 1.11-.55.18-.8-.26-1-.7a39.4 39.4 0 01-2.1-6.29c-.16-.7.45-1.47 1.16-1.58.54-.08.74.31.8.67.38 2.19 1.3 4.24 1.68 6.42.02.12.01.25.02.37z" fill="#fefefe"/><path d="M49.34 119.61c.33 1.06-.3 1.68-1.43 2.08-.8.28-1.53.73-2.29 1.11-.37.2-.8.3-1.11.05-.32-.26-.03-.65.09-.93.67-1.52 1.45-3 2.8-4.05.42-.32.9-.78 1.47-.5.53.27.48.87.47 1.39v.85zM69.1 88.34c0 .98-.38 1.41-1.25 1.3-1.84-.23-3.7-.42-5.46-1.1-.42-.15-1.18-.24-1.06-.75.13-.58.73-1.02 1.45-1.06 1.34-.06 2.63.2 3.93.46.53.1 1.06.22 1.6.27.6.06.89.32.79.88zM118 172.47c-.12-1.35-.37-2.61-.11-3.93.21-1.09 1.04-1.68 1.56-2.5.18-.3.46-.15.62 0a6.14 6.14 0 011.96 2.56c.12.36.06.7-.2.78-1.6.52-2.58 1.74-3.59 2.96-.03.04-.1.06-.24.13z" fill="#002247"/><path d="M64.7 58.38c0-.77.37-1.15 1.05-1.3.72-.14.84.41.92.85.36 1.9 1.07 3.7 1.4 5.6.1.59.64 1.27-.06 1.9-.5.44-1.01.36-1.2-.15a72.5 72.5 0 01-2.1-6.9z" fill="#fefefe"/><path d="M48.07 109.8c.58-.03.85.05.59.61-.3.63-.56 1.27-.8 1.92-.18.53-.66.66-1.07.71-1.05.13-1.96.6-2.91.95-.4.16-.84.39-1.18 0-.32-.37-.1-.8.1-1.19a5.04 5.04 0 012.11-2.06c1.02-.54 2.17-.7 3.16-.94zM72.21 74.46c-2.59-.67-4.94.35-7.34 1.03-1.03.28-1.57-.03-1.86-.89-.15-.46-.02-.68.4-.66 2.89.14 5.59-.87 8.38-1.29.73-.1 1.26.35 1.85.64.18.09.26.3.18.47-.17.33-.4.63-.79.7-.27.04-.55 0-.82 0zM69.39 91.76c-.6 1.53-1.03 3.07-1.9 4.42-.37.56-.8.71-1.46.48-.86-.31-1.63-.78-2.45-1.16-.26-.13-.49-.3-.06-.58a36.4 36.4 0 015.87-3.16zM46.43 103.6a8.7 8.7 0 013.66-1.1c.98-.07 2-.2 2.97.2.9.35 1 .8.31 1.5l-.45.45c-.67.68-1.3 1.08-2.3.42-.96-.64-2.23-.43-3.28-.92-.3-.14-.64-.18-.91-.55zM68.97 90.6c-1.9 1.14-3.72 2.26-5.54 3.37-.48.28-.82.15-.8-.35.05-1.05.1-2.1.43-3.12.15-.46.35-.62.92-.52 1.65.28 3.32.42 4.99.62z" fill="#002247"/><path d="M70.25 62.64c-.13.76-.07 1.6-.8 1.7-.68.1-.89-.69-1.01-1.25-.38-1.77-.86-3.5-1.34-5.25-.1-.4-.03-.79.37-1.03.4-.25.66.1.96.27.12.07.24.2.29.34.65 1.75 1.1 3.55 1.53 5.22zM79.17 60.04c.44 1.17-.28 1.51-1.2 1.8-1 .31-1.95.73-2.94 1.06-.42.15-.71.19-.85-.49-.35-1.7-.44-1.74 1.12-2.26.8-.27 1.57-.6 2.36-.88.37-.13.74-.17 1.12-.01.34.16.52.4.39.78zM51.86 150.4c-.14.15-.22.22-.28.3-.63.93-1.7 1.05-2.39.18-.38-.49.2-1.03.23-1.57.01-.16.2-.3.27-.47.64-1.38 1.43-1.56 2.56-.56.3.27.04.64.14 1.05.46-.74.9-.13 1.24.05.31.17.12.62-.08.96-.26.43-.42.92-.67 1.36-.08.13-.12.4-.52.17-.83-.48-.87-.4-.5-1.47zM56.69 67.88c.25-.3-.06-.42-.08-.62-.02-.26-.21-.65.19-.61.35.03.72-.62 1.07.07.32.63.44 1.31.7 1.94.09.21.05.44-.12.44-.41.01-.86.48-1.36-.22.34 1.47-.9 1.28-1.5 1.7-.22.16-.63-.15-.77-.49-.22-.52-.45-1.05-.61-1.59-.38-1.22-.05-1.72 1.21-1.9.44-.06.73.17.86.51.11.28.23.52.4.77zM63.24 64.72c-.07.43-.04.9-.24 1.23-.35.59-.75.23-1.04-.12-.75-.9-.85-2.06-1.26-3.1-.25-.66-.37-1.37-.52-2.06-.15-.7.17-1.2.77-1.5.31-.16.69-.13.81.29l1.47 5.1.01.16z" fill="#fefefe"/><path d="M65.8 162.38c-.06-1.07.24-2.22.4-3.38.05-.32.22-.7.56-.78.35-.09.65.2.81.47.44.76.83 1.55 1.24 2.32.11.2.03.33-.09.48-.76.97-1.69 1.81-2.25 2.93-.05.1-.18.2-.28.2-.2 0-.16-.2-.21-.33-.23-.59-.17-1.2-.18-1.91zM123.4 158.9c-.22.43-.5.84-.63 1.3-.3 1.1-.7 1.89-2.12 1.82-.83-.04-1.7.31-2.49.72-.17.1-.35.17-.5 0-.04-.05.03-.22.06-.32.54-1.69 3.43-3.84 5.08-3.77.2.01.5-.13.6.25zM123.8 175.7c.13-1.23.55-2.27.84-3.34.08-.27.21-.42.53-.19.69.51 1.28 1.11 1.89 1.71.21.22.18.4.05.64a8.21 8.21 0 01-2.14 2.63c-.36.3-.63.32-.8-.18l-.38-1.28zM60.3 126.64c-.29-.05-.54.07-.66-.17-.12-.24.06-.4.19-.56.6-.8.79-1.91 1.95-2.25a4.36 4.36 0 012.75.15c.75.27.81.56.2 1.04-1.33 1.03-2.94 1.38-4.43 1.8zM72.94 71.4c-.82.55-1.74.5-2.57.64-1.78.29-3.5.88-5.3 1.08-.37.04-.7.02-.85-.28-.18-.34.03-.67.33-.94.54-.46 1.22-.39 1.82-.43 1.9-.13 3.78-.63 5.71-.48.31.03.59.08.86.42zM64.7 150.73a3.88 3.88 0 01-2.44 3.34c-.68.25-1.36.5-2.02.78-.53.23-.5-.12-.44-.42.05-.23.19-.46.34-.63 1.15-1.3 2.47-2.4 3.92-3.33.14-.1.35-.2.5-.16.22.05.1.3.14.42zM68.07 144.58c-.27.2-.51.45-.8.6-.54.28-.54 1.14-1.21 1.18-.62.04-1.1-.44-1.65-.68-.5-.22-1-.39-1.56-.43-.17-.02-.47-.1-.45-.35 0-.15.17-.32.3-.42.9-.71 4.01-.91 5-.34.12.08.3.1.37.44zM79.76 165.05c-1.04 0-1.12-.12-.6-.99.09-.16.15-.3.19-.5.23-1.21.3-1.26 1.54-.94.5.13.98.28 1.47.42.54.15.5.39.16.76a3.42 3.42 0 01-2.76 1.25z" fill="#002247"/><path d="M57.8 154.42l-2.03-1.02c-.36-.19 0-.22.08-.32.43-.5.81-1.02.87-1.69.02-.2.05-.44.2-.41a6 6 0 011.91.86c.5.32.08.67 0 .94-.14.47-.42.9-.66 1.33-.08.14-.18.3-.37.3zM61.15 67.6c.12.37.02.46-.2.52-.23.06-.44.21-.67.27-.62.18-1.46.79-1.37-.63 0-.16-.2-.32-.2-.5-.04-.45-.88-.76-.5-1.09.45-.4 1.18-.56 1.81-.64.67-.08.73.63.91 1.07.15.36.17.76.22 1zM55.1 153.1c-.7-.18-1.28-.55-1.88-.88-.17-.1-.04-.26.05-.38.4-.52.86-1.02.83-1.75 0-.07.07-.21.11-.22.68-.1 1.16.4 1.74.6.43.15.4.44.23.8-.2.43-.32.9-.53 1.32-.11.23-.3.46-.56.51zM79.17 60.04l-.39-.78c.36-.74 1.58-1.15 2.2-.73.18.08.3.2.2.41.01.15 0 .3.03.45.18 1.1-.2 1.6-1.29 1.72-.25.03-.33-.05-.44-.3-.1-.25 0-.6-.31-.77zM75.5 161.39c-.21 0-.32.14-.38.32-.16.5-.47.4-.81.21-.24-.13-.42-.3-.71-.37-.54-.12-.69-.44-.26-.9.14-.15.27-.35.31-.54.2-.93.62-1.05 1.46-.6.53.28.74.58.52 1.1-.11.27-.11.53-.14.8l.02-.02zM113.55 179.51c.38-.2.42-.6.57-.96.1-.28-.08-1 .6-.7.56.23 1.5.25 1.15 1.31-.12.37-.25.73-.5 1.04-.26.32-.55.67-.96.38-.37-.26-1.18-.25-.84-1.08l-.02.01zM122.18 43.18c.06-.02.13.09.2.24.18.38.4.74.55 1.13.28.79-.44 1.64-1.29 1.56-.2-.02-.41-.14-.37-.3.2-.83-.79-1.44-.44-2.18.12-.27.8-.29 1.35-.45zM77.34 160.66c1.48.4 1.95 1.61 1.06 2.8-.18.23-.46.16-.67.07-.4-.2-.76-.44-1.14-.67-.19-.88.51-1.46.75-2.2z" fill="#fefefe"/><path d="M81.18 58.95l-.2-.42c-.1-.53.3-.64.66-.78.45-.19.46.27.6.47.24.33.44.7.58 1.09.27.79-.44.91-.9 1.18-.16.1-.17.04-.35-.78-.06-.27-.12-.58-.39-.77z" fill="#f2f7fa"/><path d="M75.49 161.4c.33-.08.16-.45.36-.66.16-.17 0-.78.35-.76.34.02.8.22.95.68.18.84-.33 1.36-.87 1.85-.39.35-.72.16-1-.12-.45-.43.3-.63.22-1l-.01.02zM119.6 45.2c-.05-.14-.12-.28-.14-.42-.03-.21-.4-.4-.14-.62.2-.15.52-.28.75-.23.74.13.72.89.94 1.4.14.3.25.8-.27 1.1-.46.27-.7.34-.8-.28-.07-.34-.08-.7-.36-.97l.02.02zM112.26 178.8c.39-.25.46-.66.6-1.05.08-.24.06-.82.56-.58.35.17.82.35.59 1.02-.16.43-.52.81-.46 1.33l.01-.02c-.26.12-.57.39-.78.33-.48-.14-.85-.46-.5-1.06l-.02.02zM60.76 155.8c.83-.51 1.6-.79 2.37-1.1.37.66.37 1.35-.3 1.72-.74.41-1.3-.33-2.07-.61zM156.56 134.14c-.25.25-.54.43-.86.34-.38-.11-.86-.2-.86-.71 0-.4.35-.42.66-.37.46.08.83.3 1.06.74zM142.97 76.45c.09.68.06 1.22-.58 1.52-.16.08-.28.24-.48.07-.18-.17-.22-.35-.13-.57.2-.52.58-.81 1.19-1.02zM102.03 158c0 .4-.32.28-.52.27-.65-.01-.8-.53-.93-1.01-.06-.26.18-.27.36-.26.6.06.96.4 1.09 1zM159.83 46.1c-.32-.07-.83-.07-.88-.66-.03-.33.25-.46.56-.42.46.07.92.25 1.02.72.07.31-.3.39-.7.36zM79.55 129.94c.43-.05.63.11.5.33-.24.4-.2 1.05-.87 1.11-.45.04-.4-.26-.38-.53a1 1 0 01.75-.91zM135.51 77.4c-.01.35-.16.58-.43.53-.6-.1-.83-.6-1.02-1.11-.06-.19.04-.38.28-.32.55.12.93.47 1.17.9zM147.56 46.84c-.28 0-.54-.14-.49-.33.13-.5.58-.76 1.04-.9.14-.05.6.03.56.4-.07.69-.73.6-1.11.83zM152.9 128.09c-.34 0-.55-.14-.54-.41.02-.58.4-.9.92-1.04.28-.08.37.11.34.36-.06.5-.3.87-.71 1.09zM105.5 168.96c.02-.32-.07-.78.4-.75.35.02.57.39.52.82-.05.39-.15.92-.54.9-.41-.04-.38-.59-.38-.97zM154.1 51.2l-.08-.05c-.62-.46-.45-1.03-.2-1.6.1-.2.33-.2.46-.09.5.46.26.98.05 1.47-.05.1-.15.18-.22.27zM111.68 164.87c-.46.03-.77-.18-.85-.61-.06-.33.2-.58.5-.46.4.16 1.03.18 1.07.75.03.36-.42.32-.72.32zM48.72 77.33c-.13.12-.08.54-.4.42-.5-.17-.88-.5-.99-1.06-.04-.24.04-.46.33-.37.51.15.92.43 1.06 1zM60.3 137.6c-.49.04-.9-.15-1-.63-.05-.17.25-.5.57-.45.48.08.95.35 1.07.82.07.3-.38.25-.63.26zM82.81 137.37c-.05.3-.24.47-.5.4-.4-.11-.95-.01-1.12-.54-.1-.3.11-.53.44-.53.53-.02.9.27 1.18.67zM48.17 138.34c-.47 0-.86-.06-.73-.3.21-.4.5-.85 1.1-.8.23.01.58 0 .53.3a.95.95 0 01-.9.8zM56.3 76.82c-.21.4-.3.96-.86 1.1-.33.07-.46-.24-.43-.54.06-.55.49-.8.93-.97.27-.1.32.16.35.41zM144.75 126.33c.43.4 1 .34 1.2.88.06.18.28.33.04.55-.18.16-.37.2-.57.07-.48-.31-.89-.67-.67-1.5zM150.1 139.57c-.52-.18-.57-.67-.63-1.04-.04-.24.12-.74.52-.7.31.03.6.34.51.73-.08.35-.12.75-.4 1zM76.79 142.02c.08.33-.11.8-.43.78-.38 0-.5-.5-.49-.9 0-.35.02-.8.49-.8.52.01.4.5.43.92zM50.6 130.61c.03.5-.28.4-.49.4-.65 0-.8-.52-.94-1-.07-.25.15-.3.34-.27.57.08.91.44 1.1.87zM47.87 41.94c0 .43-.1.7-.37.66-.55-.1-.85-.48-.9-1.05-.03-.23.05-.46.33-.36.44.16.91.31.94.75zM55 141.9c-.05.23-.13.77-.5.76-.46 0-.44-.62-.5-.97-.03-.22.07-.72.5-.7.4.02.54.37.5.91zM108.83 158.46c-.37 0-.6-.15-.56-.42.08-.51.48-.82.92-1.02.26-.13.32.1.35.36.05.6-.4.81-.7 1.08zM77.63 48.84c-.42.03-.83-.06-.75-.21.19-.41.46-.85 1.03-.87.27-.01.56-.05.52.39-.05.62-.59.55-.8.69zM45.26 49.78c-.2-.05-.53.08-.48-.26.1-.6.6-.76 1.1-.84.27-.04.58.13.5.38-.18.48-.64.67-1.12.72zM52.79 87.66c.31.04.44.42.35.7-.09.26.03.82-.55.75-.49-.06-.53-.46-.49-.81.03-.3.1-.68.69-.64zM71.11 129.67c.32.15.54.2.68.32.31.27.72.5.59 1.03-.07.25-.3.2-.45.16-.45-.14-.79-.4-.82-.93v-.58zM132.95 85.1c-.24-.05-.62.1-.53-.31.12-.54.58-.72 1.06-.8.27-.04.58.1.53.34-.13.53-.61.67-1.06.77zM46.3 84.89c-.37.03-.78-.06-.71-.2.19-.42.46-.85 1.02-.88.26-.01.57-.07.53.38-.05.6-.56.59-.84.7zM69.18 138.31c.3-.47.54-.72.9-.92.36-.2.66-.24.81.16.15.38-.17.66-.48.74-.33.1-.71.02-1.23.02zM58.04 129.69c.22.84-.1 1.28-.75 1.5-.18.05-.46.07-.45-.27.02-.74.62-.92 1.2-1.23zM90.18 47.4c-.48.02-.93-.08-1.04-.6-.06-.24.23-.53.5-.47.44.11.99.26 1.12.75.09.37-.34.29-.58.31zM157.59 38.23c.12.63.1 1.17-.51 1.46-.25.11-.68 0-.66-.27.03-.65.5-1 1.17-1.19zM100.48 164.74c-.04.7-.62.68-1.04.84-.25.09-.56-.11-.48-.36.13-.45.55-.7.97-.86.3-.11.43.24.55.38zM84.86 51.55c-.28.27-.07.9-.57.92-.5 0-.34-.6-.54-.9.26-.17-.02-.72.52-.7.48 0 .44.39.6.68zM87.84 39.5c.04.13.1.2.1.29-.05.56-.24 1.04-.85 1.19-.15.03-.39.07-.42-.2-.07-.64.39-.88.85-1.12l.32-.16zM57.73 49.03c-.55.06-.96-.07-1.06-.61-.07-.4.3-.28.5-.29.5-.01 1.02.05 1.1.63.07.46-.38.2-.54.27zM55.5 41.58c-.1.57-.33 1.03-.9 1.14-.26.06-.31-.18-.32-.4-.04-.63.44-.9.87-1.11.28-.15.15.35.35.37zM138.99 88.65c0-.35-.08-.78.45-.8.39-.02.47.27.46.6-.01.44-.11.94-.56.97-.43.04-.34-.45-.35-.77zM80.45 40.4c-.12.33-.31.43-.58.4-.6-.06-.76-.53-.88-.99-.08-.33.23-.31.42-.27.5.1.74.54 1.04.87zM58.23 84.19a.68.68 0 01-.8-.53c-.07-.39.34-.42.65-.4.47.04.98.2 1.03.67.04.32-.47.22-.88.26zM52.26 53.3c.03.34-.06.8-.35.8-.43 0-.59-.43-.57-.87.02-.36.02-.73.5-.7.48.03.42.43.42.76zM148.74 38.28c.71-.07 1.2.15 1.4.79.05.18.07.46-.27.45-.78-.02-.94-.63-1.13-1.24zM143.58 135.05c-.19-.08-.57.15-.55-.26.03-.54.52-.7.94-.83.26-.08.5.11.49.4-.03.51-.39.7-.88.69zM146.06 84.29c-.57.08-.98.14-1.38-.02-.22-.08-.42-.18-.4-.5.03-.4.3-.3.52-.33.64-.1.86.37 1.26.85zM64.76 157.4c-.42-.18-.86-.34-1.26-.56-.3-.17-.37-.44-.1-.73.3-.35.36.08.49.18.35.28.66.61.98.92l-.1.2z" fill="#fefefe"/><path d="M76.28 162.51c.33-.6.85-1.1.87-1.85h.19c.18.88-.66 1.41-.76 2.2l-.3-.35z" fill="#4794c3"/><path d="M59.46 153.06c.05-.3-.31-.74.25-.83.12-.01.37-.04.38.14 0 .38-.36.5-.63.69z" fill="#fefefe"/><path d="M93.9 62.74c.57 1.69 1.97 1.95 3.24 2.39.26.08.52.14.78.24.58.22.87.66.8 1.27-.07.68-.7.62-1.13.67-.69.09-1.4.07-2.1.01-.67-.05-.81.25-.79.85a3.98 3.98 0 002.04 3.58 22.03 22.03 0 015.81 5.16 6.07 6.07 0 011.21 3.45c.18 1.99.36 4-.64 5.87a5.67 5.67 0 01-3.9 3.11c-1.53.33-3.04.48-4.58.13-.15-.03-.3-.05-.35-.36.9 0 1.8.02 2.69 0a7.24 7.24 0 004.7-1.58 4.6 4.6 0 001.73-3.19c.27-3.1.23-6.04-2.36-8.45-1.74-1.62-3.67-2.96-5.5-4.44a2.37 2.37 0 01-.82-1.45c-.43-1.85-.51-3.76-.73-5.64-.05-.48-.34-.93-.1-1.62zM140.11 147.88c-.15-.6-.32-1.2-.46-1.81-.3-1.4-1.4-1.86-2.58-2.25-.4-.13-.78-.29-1.17-.47-.07-.03-.11-.19-.13-.3 0-.03.13-.1.2-.12.8-.12 3.24 1.18 3.63 1.95.47.93.58 1.94.51 3zM107.23 110.8c-.36 1.46-2.51 3.17-4.2 3.32 1.48-1.19 3.08-1.96 4.2-3.33zM100.77 112.69c1.66-.22 2.24-1.68 3.24-2.75-.13 1.59-1.84 3.09-3.24 2.75zM110.68 112.77c-.13.9-.58 1.5-1.5 1.6-.16.03-.36.2-.45-.06-.07-.2.14-.32.28-.4.57-.35 1.28-.5 1.67-1.14zM97.48 143.44c1.74 2.04.7 4.35-2.2 6.44.27-.99 1-1.49 1.6-2.08.84-.84 1.35-1.78 1.05-3-.1-.46-.3-.9-.45-1.36zM128.75 106.5c.2-1.62 1.31-2.82 1.96-4.24.15-.35.4-.65.66-.96-.09.68-.46 1.24-.77 1.81-.61 1.13-.98 2.4-1.86 3.38v.01z" fill="#0770af"/><path d="M137.67 171.49c.77.22.77.9 1.1 1.32-.51-.26-.8-.7-1.1-1.32z" fill="#2d85bb"/><path d="M126.6 178.9c.62.05.58.64.97 1.04-.67-.23-.67-.23-.96-1.04z" fill="#348abe"/><path d="M145.07 53.32c-.2.74-.65 1-1.1 1.29.27-.43.38-.97 1.1-1.29z" fill="#388cbf"/><path d="M133.49 46.13l.9-1.15c.1.71-.43.9-.9 1.15z" fill="#3389bd"/><path d="M146.3 51.22c-.1.39-.03.84-.44 1.08-.02.02-.12-.05-.13-.09-.04-.46.27-.72.58-.98h-.02z" fill="#378bbf"/><path d="M54.15 132.84c1.38-.27 2.4 1.24 2.35 2.58-.06 1.58-1.17 2.26-2.6 2.35-1.12.07-2.2-1.42-2.18-2.92.02-.88 1.22-2.31 2.43-2zM50.9 133.05c.23.37-.02.68-.21.88-.45.47-.63 1-.62 1.62 0 .16.04.42-.24.37-.16-.03-.27-.2-.3-.4-.16-.8.4-2.13 1.37-2.47zM58.45 135.4c.13-.97.02-1.68-.53-2.26-.1-.1-.17-.24 0-.37.1-.08.19-.11.32-.06.83.3 1.08 1.83.21 2.68zM50.98 138.25c.8.38 1.3 1.07 2.12 1.06.13 0 .27.17.23.34-.05.2-.24.13-.38.15-1.03.11-1.55-.26-1.97-1.55zM55.33 131.5c-.65.27-1.33-.43-1.98.04-.03.02-.22-.1-.26-.2-.03-.06.06-.2.13-.27.6-.67 1.72-.44 2.11.44zM56.21 139.18c.62-.43 1.25-.58 1.38-1.26.04-.18.26-.16.39-.1.19.07.08.2.04.35-.25 1.05-.37 1.14-1.8 1.01zM107.88 162.54c0 1.54-.76 2.28-2.26 2.34-1.67.07-2.33-.88-2.45-2.71-.06-1.06 1.16-2.22 2.43-2.1 1.5.15 2.28.87 2.28 2.47zM102.29 160.32c.2.23.08.43-.06.63-.43.6-.86 1.22-.76 2.03.02.13-.06.25-.2.21-.23-.06-.3-.23-.34-.47-.13-.85.43-1.85 1.36-2.4zM102.42 165.56c.83.26 1.28 1.06 2.13 1.03.06 0 .18.18.2.27 0 .22-.19.18-.33.2-1 .16-1.64-.28-2-1.5zM106.88 158.8c-.8.07-1.5-.38-2.17-.01-.03.02-.15-.09-.2-.16-.12-.18.08-.25.17-.34.63-.62 1.42-.49 2.2.5zM110.44 161.5v.54c0 .2-.1.37-.28.38-.12 0-.27-.16-.26-.33.04-.63 0-1.23-.56-1.67-.1-.07-.18-.23-.02-.38.2-.17.32-.09.47.05.43.4.76.85.65 1.41zM107.55 166.51c.68-.49 1.31-.65 1.45-1.32.04-.18.25-.15.38-.12.2.06.18.25.13.38-.2.6-.4 1.23-1.26 1.07-.15-.03-.3 0-.7 0zM141.37 82.15c0 1.45-.95 2.4-2.41 2.39-1.07-.02-2.31-.63-2.27-2.79.03-1.25.91-2.22 2.43-2.16 1.37.05 2.25 1 2.25 2.56zM134.42 82.14c-.05-.8.33-1.37.74-1.92.16-.2.39-.38.62-.2.24.2.06.43-.11.62-.4.42-.68.9-.71 1.5-.01.2.14.55-.26.55-.46 0-.19-.4-.28-.55zM137.66 86.73c-.77-.1-1.27-.6-1.73-1.17-.1-.11-.1-.3.02-.41.16-.13.28.01.38.12.39.44.84.74 1.46.79.13 0 .48.07.43.34-.04.28-.29.36-.56.33zM144.01 81.15c-.02.17-.07.37-.08.57-.02.2-.12.25-.3.25-.2 0-.26-.13-.24-.29a1.92 1.92 0 00-.55-1.72c-.06-.06-.21-.21-.07-.38.18-.23.34-.02.46.04.62.3.68.93.78 1.53zM139.21 77.58c.18 0 .4-.04.54.04.23.13.6.26.44.64-.16.38-.44.18-.67.05-.27-.15-.54-.26-.84-.12-.22.11-.48.27-.58-.07-.13-.38.28-.4.49-.5.17-.08.41-.03.62-.04zM141.2 85.94c.53-.3 1.04-.57 1.28-1.13.04-.1.15-.3.33-.17.09.06.17.19.18.29.04.84-.93 1.41-1.8 1zM86.3 45.23c.15 1.3-1.12 2.39-2.5 2.32-1.34-.07-2.19-1.07-2.26-2.83-.03-.93 1.18-2.26 2.45-2.12 1.44.16 2.3 1 2.3 2.63zM80.73 42.86c.22.33-.01.63-.18.8-.46.5-.75 1-.66 1.7.02.18 0 .37-.26.38-.27.02-.26-.16-.29-.35-.15-.96.44-2.25 1.39-2.53zM88.3 45.07c.08-.84 0-1.55-.55-2.13-.24-.26-.04-.53.21-.45.47.16.82.6.86 1.06.03.48.36 1.15-.51 1.52zM80.88 47.98c.67.78 1.56.95 2.37 1.4-1.14.58-2.18.03-2.37-1.4zM85.25 41.29c-.77.2-1.47-.37-2.15.02-.02.02-.15-.1-.19-.16-.09-.19.1-.25.19-.34.63-.57 1.5-.4 2.15.48zM86.03 48.99c.6-.45 1.25-.6 1.38-1.28.04-.18.25-.16.38-.11.2.07.1.2.06.35-.25 1.05-.37 1.14-1.82 1.04zM49.15 46.53c0-1.46.85-2.24 2.39-2.25 1.49 0 2.27.86 2.3 2.84.01 1.1-1.15 2.07-2.45 2.1-1.3.03-2.24-1.1-2.24-2.69zM47.25 47.45c-.66-.8-.12-2.59.75-2.86.12-.04.2-.08.3.03.17.2-.03.4-.1.47-.57.66-.88 1.42-.95 2.36zM48.2 49.64c.9.53 1.6 1.06 2.65 1.35-1.53.48-1.95.25-2.65-1.35zM52.88 42.92c-.79.25-1.5-.38-2.19.07-.08.05-.23-.02-.25-.19-.02-.2.08-.29.27-.4.75-.42 1.4-.3 2.17.52zM55.98 46.71c-.04-.83-.05-1.61-.73-2.15-.1-.08-.1-.29.03-.4.1-.1.2 0 .31.05.82.37 1.08 1.7.4 2.5zM53.69 50.57c.54-.33 1.06-.5 1.2-1.1.02-.12.17-.27.34-.22.23.08.15.3.14.46-.1.91-.65 1.21-1.68.86zM156 43.73c0 1.7-.66 2.38-2.3 2.38-1.56 0-2.22-.8-2.29-2.5-.06-1.75 1.16-2.3 2.6-2.4 1.07-.08 2 1.17 2 2.52zM150.51 41.49c-.04 1.15-1.21 1.83-.85 3.1-.95-.9-.54-2.24.85-3.1zM152.25 48.3c-.9.13-1.26-.55-1.67-1.14-.04-.06-.05-.2 0-.24.1-.12.31-.13.4-.02.45.52 1.05.77 1.7.94.13.04.26.22.16.36-.14.2-.4.07-.59.1zM153.33 39.9c-.2-.13-.48.26-.59-.04-.14-.39.26-.48.52-.6a.87.87 0 01.52-.09c.47.1 1.24.13 1.18.67-.06.5-.7.1-1.08.06-.17-.03-.36 0-.55 0zM158.2 43.74c.03-.8.02-1.5-.6-1.99-.16-.12-.18-.32-.08-.49.1-.14.27-.1.41-.04.7.29.95 1.86.27 2.52zM155.82 47.64c.62-.4 1.2-.57 1.4-1.16.02-.08.2-.16.28-.15.2.04.15.24.14.37-.02.79-.6 1.13-1.81.94zM73.67 135.18c-.22-1.24 1-2.3 2.59-2.33 1.16-.02 2.21 1.4 2.17 2.87-.04 1.12-1.17 2.07-2.48 2.06-1.44 0-2.28-.96-2.28-2.6zM71.66 136.2c-.39-1.13-.16-2.1.58-2.75.2-.17.39-.37.62-.17.23.2-.07.48-.14.53-.83.56-.5 1.65-1.06 2.4zM72.72 138.32c.94.5 1.56 1.07 2.38 1.19.06 0 .22.13.12.27-.09.14-.22.18-.38.2-.84.14-1.54-.34-2.13-1.66zM80.44 135.38c.02-.8.1-1.5-.6-1.96-.17-.1-.18-.32-.08-.48.1-.15.27-.1.4-.05.85.33 1.06 1.83.28 2.49zM77.3 131.48c-.15.21-.34.36-.55.24-.43-.24-.89-.12-1.33-.16-.16-.01-.4.09-.43-.17-.03-.2.17-.29.33-.38.6-.32 1.15-.24 1.68.14.11.09.2.22.3.33zM78.08 139.3c.6-.4 1.18-.56 1.38-1.15.03-.08.2-.16.3-.15.18.05.13.24.13.38-.03.78-.6 1.12-1.81.92zM52.22 79.41c1.53 0 2.42.95 2.42 2.57a2.3 2.3 0 01-2.46 2.36c-1.37-.03-2.23-.9-2.29-2.64-.04-1.32.98-2.28 2.33-2.29zM48.89 79.78c.3.04.3.18.17.38-.46.66-1 1.28-.84 2.18.02.13-.13.18-.27.18-.13 0-.2-.07-.25-.2-.25-.62.34-2.18.95-2.48.08-.04.18-.05.24-.06zM51.54 86.08c-1.1.79-2.06.28-2.37-1.17.79.5 1.45 1.08 2.37 1.17zM56.68 81.87c-.03-.85.11-1.64-.67-2.12-.13-.07-.09-.22 0-.31.08-.12.17-.15.35-.08.57.21.7.74.8 1.19.1.38.28.96-.48 1.32zM52.34 77.4c.15 0 .35-.05.45.02.26.17.85.13.69.63-.17.51-.55.13-.8.01-.31-.15-.56-.13-.86.01-.2.1-.54.18-.6-.1-.07-.27.24-.46.5-.54.18-.07.41-.02.62-.02zM56.07 84.41c.04 1.06-.25 1.49-1.04 1.58-.19.03-.38 0-.47-.18-.1-.24.12-.34.27-.34.7 0 .65-.83 1.24-1.06zM149.6 134.5c-1.53.15-2.28-1.08-2.37-2.65-.07-1.27 1.15-2.3 2.56-2.3 1.26 0 2.19 1.13 2.19 2.65 0 1.43-.9 2.3-2.38 2.3zM145.01 131.88c.12-.66.28-1.4 1.04-1.82.12-.06.24-.23.38-.06.06.08.08.27.03.34-.5.67-1 1.33-.94 2.24 0 .06-.17.21-.24.2-.1-.02-.2-.15-.22-.26-.05-.17-.03-.35-.05-.64zM148.12 136.69c-.41.03-.76-.14-1.05-.42-.27-.27-.72-.67-.5-.94.33-.38.63.14.84.39.23.26.56.2.8.37.19.13.63-.02.55.4-.06.27-.4.2-.64.2zM148.55 128.27c.43-.78 1.59-.98 2.15-.45.15.14.22.3.16.48-.09.22-.31.17-.47.14-.28-.06-.55-.2-.86-.18-.3.03-.6.01-.98.01zM153.14 129.69c.67-.28.9-.04 1.14.4.3.57.32 1.14.2 1.74-.02.04-.16.08-.24.09-.2 0-.27-.13-.24-.3.13-.77-.17-1.38-.86-1.93zM151.8 135.9c.49-.3.98-.46 1.17-1 .08-.22.34-.3.54-.19.24.14 0 .3-.05.45-.3 1-.66 1.18-1.66.74z" fill="#0770af"/><path d="M96.4 66.75c-.98.17-1.78.1-2.02-1.01-.1-.54-.06-.92.68-.7.92.26 1.85.5 2.72.9.17.09.43.15.38.44-.05.26-.3.34-.47.36-.45.04-.9.01-1.3.01z" fill="#002247"/><path d="M55.92 135.34c0 1.02-.75 1.73-1.79 1.71-.94-.01-1.87-.93-1.86-1.83 0-.9.97-1.85 1.87-1.82 1 .02 1.8.88 1.78 1.94zM107.33 162.48c0 1.12-.68 1.84-1.74 1.84-.99 0-1.95-.95-1.91-1.87.03-.92.96-1.79 1.9-1.8 1.06 0 1.75.72 1.75 1.83zM140.82 82.07c0 .9-.91 1.94-1.68 1.92-.96-.03-2-1.06-1.98-1.95.03-.84 1.07-1.96 1.84-1.88.97.1 1.85.73 1.82 1.9zM85.75 45.08c0 .95-.9 1.93-1.77 1.9-.87-.04-1.87-1.06-1.9-1.93-.01-.9.94-1.87 1.84-1.86 1.01 0 1.82.83 1.83 1.89zM49.7 46.62c.01-1.03.75-1.78 1.74-1.79.96 0 1.88.9 1.92 1.9.02.74-1.07 1.9-1.81 1.93-.95.02-1.86-.98-1.85-2.04zM151.98 43.75c0-1.12.67-1.85 1.74-1.85.92 0 1.83.85 1.86 1.73.04.95-.83 1.91-1.73 1.93-1.14.03-1.87-.68-1.87-1.8zM76.08 133.58c.97 0 1.79.83 1.8 1.81 0 .9-.96 1.86-1.86 1.85-.97-.02-1.8-.9-1.8-1.93 0-1.06.74-1.74 1.86-1.73zM54.1 81.87c0 .92-.95 1.95-1.78 1.93-.87-.02-1.9-1.07-1.88-1.93 0-.89.89-1.88 1.69-1.9 1-.04 1.96.88 1.96 1.9zM151.43 132.01c0 .99-.82 1.95-1.71 1.92a1.9 1.9 0 01-1.94-1.83c-.05-.93 1-2 1.84-1.98.9.02 1.8.96 1.8 1.9z" fill="#fefefe"/></svg>