<?xml version="1.0" encoding="utf-8"?>
<!-- Generator: Adobe Illustrator 24.1.2, SVG Export Plug-In . SVG Version: 6.00 Build 0)  -->
<svg version="1.1" id="Layer_1" xmlns="http://www.w3.org/2000/svg" xmlns:xlink="http://www.w3.org/1999/xlink" x="0px" y="0px"
	 viewBox="0 0 200 200" style="enable-background:new 0 0 200 200;" xml:space="preserve">
<path style="fill:#FDFDFD;" d="M99.9,193.9c-1.3,0-2.3-0.6-3-1.1l-0.2-0.1c-13.6-8.6-27.2-17.3-40.8-25.9l-16.8-10.6
	c-0.4-0.3-0.8-0.5-1.2-0.7l-1.8-1.1l0-147.3h128.8l0,3.3c0,0.7,0,1.3,0,2l0,141.6l-12.8,8c-16.3,10.2-33.2,20.7-49.8,31.2
	C101.6,193.7,100.7,193.9,99.9,193.9z M43.4,150.3c0,0,0.1,0.1,0.2,0.2c20.9,13.2,38.4,24.2,54.9,34.8c0.6,0.4,1,0.6,1.3,0.6
	c0.3,0,0.7-0.2,1.2-0.5c19.8-12.4,39.5-24.7,56.2-35.1c0.4-0.3,0.4-0.3,0.4-0.9c0-51.4,0-94.2,0-134.8c-20.9,0-40.1,0-58.8,0
	c-19.2,0-37.9,0-55.5,0l0-0.6c0,0,0,0.1,0,0.1v0.5c0,0,0,0,0,0c0.1,17.3,0.1,34.9,0.1,51.9c0,5.3,0,27.7,0,27.7
	c0,18.2,0,37.1,0,55.6C43.4,150.1,43.4,150.3,43.4,150.3z"/>
<path style="fill:#E71E28;" d="M162.4,152.6c-20.5,12.8-40.9,25.6-61.4,38.4c-1.3,0.8-2.1,0.2-3-0.4c-19.2-12.2-38.4-24.4-57.5-36.5
	c-0.6-0.4-1.2-0.7-1.8-1.1c0-47.8,0-95.6,0-143.4c41.2,0,82.5,0,123.7,0c0,0.9,0,1.8,0,2.8C162.4,59.1,162.4,105.8,162.4,152.6z
	 M40.8,82.2c0,22.5,0,45.1,0,67.6c0,1.3,0.2,2.1,1.5,2.9c18.3,11.5,36.6,23.1,54.9,34.8c2,1.3,3.3,1.3,5.3,0
	c18.7-11.7,37.4-23.4,56.2-35c1.2-0.8,1.6-1.6,1.6-3.1c0-45,0-90,0-135.1c0-1.9-0.6-2.3-2.4-2.3c-38.2,0-76.4,0.1-114.5,0
	c-2,0-2.6,0.5-2.6,2.5C40.9,37.1,40.8,59.6,40.8,82.2z"/>
<path style="fill:#282D6D;" d="M40.8,82.2c0-22.5,0-45.1-0.1-67.6c0-2.1,0.6-2.5,2.6-2.5c38.2,0.1,76.4,0,114.5,0
	c1.8,0,2.4,0.4,2.4,2.3c-0.1,45-0.1,90,0,135.1c0,1.4-0.4,2.3-1.6,3.1c-18.8,11.6-37.5,23.3-56.2,35c-1.9,1.2-3.3,1.2-5.3,0
	c-18.2-11.7-36.5-23.3-54.9-34.8c-1.2-0.8-1.5-1.6-1.5-2.9C40.9,127.3,40.8,104.7,40.8,82.2z M107.4,180.1c2.5-0.8,4.4-2.4,6.5-3.8
	c13.9-8.5,27.7-17.1,41.6-25.7c0.6-0.4,2-0.6,0.7-1.8c-5.9-5.6-11.7-11.2-17.5-16.9c-0.9-0.9-1.4-0.6-2.3,0c-5,3.8-10,7.6-15,11.4
	c-1.1,0.9-1.7,0.9-2.7-0.3c-5.8-6.8-11.6-13.5-17.4-20.2c-0.9-1.1-1.3-1.2-2.3,0c-5.5,6.6-11.1,13.1-16.6,19.8
	c-1.3,1.6-2.1,1.5-3.7,0.3c-4.9-3.7-9.9-7.3-14.8-11c-1-0.8-1.6-0.8-2.6,0.2c-5.1,5.4-10.3,10.8-15.5,16.2c-1,1.1-1.1,1.6,0.3,2.5
	c5.2,3.2,10.4,6.5,15.6,9.8c10.4,6.5,20.8,13.1,31.1,19.6c2.1,1.3,4.1,2.7,6.2,4c0.5,0.3,1,0.7,1.7,0.3
	C103,183,105.5,182,107.4,180.1z M156.6,142.9c0.2-0.5,0.3-0.6,0.3-0.7c0-9.7,0-19.4,0-29.1c0-1-0.4-1.4-1.2-1.7
	c-9.4-4.4-16.4-11.3-21.6-20.2c-3.3-5.7-6.4-11.5-11.2-16.3c-14.7-14.7-32.4-14.2-49.5-3.8c4.1,0,7.7-2.2,12-1.6
	c-0.8,1-1.3,1.8-1.6,2.6c-1.1,2.7-0.4,5.8,1.7,7.7c2,1.8,5.5,2.5,7.6,0.8c2.2-1.8,3.4-0.8,4.7,0.8c0.5,0.6,1.1,1.1,1.7,1.6
	c0.7,0.6,0.8,1.2,0.5,2c-6.6,16.4-17.8,27.3-35.9,30.2c-5.8,0.9-11.7,0.9-17.5,0.3c-1.2-0.1-2.1-0.2-2.1,1.6
	c0.1,7.4,0.1,14.8,0.1,22.3c0,1,0,2.1,0,3.1c1.1,0.1,1.4-0.6,1.8-1c4.9-5.1,9.9-10.3,14.7-15.4c0.8-0.9,1.5-1.5,2.8-0.5
	c5.1,3.9,10.3,7.6,15.4,11.6c1.3,1,1.8,0.7,2.7-0.3c5.5-6.6,11.1-13.2,16.5-19.8c1.3-1.5,1.9-1.4,3.1,0c5.5,6.5,11.1,12.8,16.5,19.3
	c1.5,1.8,2.3,1.5,3.8,0.3c4.5-3.6,9.2-7,13.7-10.6c1.3-1,2.2-1.3,3.5,0.1c2.5,2.7,5.3,5.1,7.9,7.7
	C150.3,136.8,153.4,139.8,156.6,142.9z M156.8,101.4c0.1-0.6,0.1-0.8,0.1-1c0-16.8,0-33.6,0-50.5c0-1.6-0.7-1.7-1.9-1.7
	c-36.2,0-72.4,0-108.6,0c-1.6,0-2.2,0.4-2.2,2.1c0.2,7.4,0,14.8,0.2,22.2c0.3,10.7,0.2,21.3,0.1,32c0,2.2,0.9,2.8,2.7,2.9
	c4.3,0.3,8.6,0.6,12.9,0.1c9.9-1.2,14.7-6.4,14.2-15.6c-0.2-4-0.2-4-4.1-4c-0.8,0-1.7,0-2.5,0c-1.5,0-2.3,0.8-2.8,2.2
	c-0.5,1.3-0.1,2.7-1,4c-1.2-3.5-2.1-7-2.6-10.6c-1-7.2,0.6-10.9,6.2-13.2c2.4-1,4.1-2.5,6-4.2c10.9-9.6,23.2-13,37.2-8.3
	c10.8,3.7,18.7,11,25.5,19.9c3.9,5.2,7,11,11.5,15.7C150.3,96.5,153.1,99.2,156.8,101.4z M122.2,33.2c0-2.8,0-5.7,0-8.5
	c0-1-0.3-1.3-1.3-1.3c-2.9,0.1-5.8,0-8.7,0c-1.5,0-3.6-0.5-4.5,0.2c-1.1,0.9-0.4,3.1-0.4,4.6c0,1.4-0.3,2-1.9,1.9
	c-3.4-0.1-6.8,0-10.2,0c-4.7,0-4.7,0-4.7-4.6c0-0.2,0-0.4,0-0.6c0.1-1.1-0.2-1.6-1.5-1.6c-4,0.1-8,0.1-12.1,0
	c-1.1,0-1.4,0.4-1.4,1.5c0,5.5,0,11,0,16.5c0,1,0.2,1.4,1.3,1.4c4.2,0,8.3,0,12.5,0c0.9,0,1.2-0.4,1.2-1.2c0-1.7,0-3.4,0-5.1
	c0-1,0.3-1.4,1.3-1.3c4.7,0,9.3,0.1,14,0c1.2,0,1.4,0.5,1.4,1.5c-0.1,1.6,0,3.3,0,4.9c0,1,0.4,1.3,1.3,1.3c4.1,0,8.2-0.1,12.3,0
	c1,0,1.3-0.3,1.3-1.3C122.1,38.7,122.2,35.9,122.2,33.2z M145,33c0-2.8,0-5.5,0-8.3c0-0.7,0.1-1.3-1-1.3c-4.3,0.1-8.6,0-12.9,0
	c-0.9,0-1.3,0.3-1.2,1.2c0,5.6,0,11.3,0,16.9c0,0.9,0.3,1.2,1.2,1.2c4.2,0,8.5,0,12.7,0c1,0,1.3-0.3,1.3-1.3
	C145,38.6,145,35.8,145,33z M68,32.9c0-2.7,0-5.4,0-8.1c0-1-0.2-1.5-1.4-1.5c-4.1,0.1-8.2,0-12.3,0c-1.1,0-1.3,0.4-1.3,1.4
	c0,5.6,0,11.2,0,16.8c0,1.1,0.4,1.3,1.3,1.3c4.1,0,8.2-0.1,12.3,0c1.1,0,1.3-0.4,1.3-1.4C68,38.6,68,35.8,68,32.9z M149.6,18.1
	c-4.3,0-8.7,0.2-13-0.1c-3.3-0.2-4.6,2.1-7.1,3.9C136.8,22,143.8,23.2,149.6,18.1z M72.8,18.1c-4.4,0-8.6,0.2-12.8-0.1
	c-3.3-0.2-4.8,2.1-6.8,3.8C59.9,21.8,66.9,23.3,72.8,18.1z"/>
<path style="fill:#EB1B24;" d="M156.6,142.9c-3.2-3.1-6.3-6.1-9.4-9.1c-2.6-2.5-5.4-5-7.9-7.7c-1.3-1.4-2.2-1.1-3.5-0.1
	c-4.5,3.6-9.2,7-13.7,10.6c-1.5,1.2-2.3,1.5-3.8-0.3c-5.4-6.5-11-12.8-16.5-19.3c-1.2-1.5-1.9-1.6-3.1,0c-5.4,6.7-11,13.2-16.5,19.8
	c-0.9,1-1.4,1.3-2.7,0.3c-5.1-3.9-10.3-7.7-15.4-11.6c-1.3-1-2-0.4-2.8,0.5c-4.9,5.2-9.8,10.3-14.7,15.4c-0.4,0.4-0.7,1.1-1.8,1
	c0-1,0-2,0-3.1c0-7.4,0-14.8-0.1-22.3c0-1.8,0.9-1.7,2.1-1.6c5.8,0.6,11.7,0.6,17.5-0.3c18-2.8,29.3-13.8,35.9-30.2
	c0.3-0.9,0.2-1.4-0.5-2c-0.6-0.5-1.2-1-1.7-1.6c-1.4-1.6-2.5-2.5-4.7-0.8c-2.1,1.7-5.6,1-7.6-0.8c-2.1-1.9-2.8-5-1.7-7.7
	c0.3-0.8,0.9-1.6,1.6-2.6c-4.3-0.6-7.9,1.6-12,1.6c17.1-10.4,34.7-10.9,49.5,3.8c4.8,4.8,7.9,10.6,11.2,16.3
	c5.1,8.9,12.1,15.9,21.6,20.2c0.8,0.4,1.2,0.8,1.2,1.7c0,9.7,0,19.4,0,29.1C156.9,142.4,156.8,142.5,156.6,142.9z"/>
<path style="fill:#FDFDFD;" d="M92.9,180.2c-10.4-6.5-20.8-13.1-31.1-19.6c-5.2-3.3-10.3-6.6-15.6-9.8c-1.4-0.8-1.3-1.4-0.3-2.5
	c5.2-5.4,10.4-10.8,15.5-16.2c0.9-1,1.5-1,2.6-0.2c4.9,3.7,9.9,7.3,14.8,11c1.5,1.2,2.3,1.3,3.7-0.3c5.4-6.7,11.1-13.2,16.6-19.8
	c1-1.2,1.4-1,2.3,0c5.8,6.8,11.6,13.4,17.4,20.2c0.9,1.1,1.5,1.1,2.7,0.3c5-3.9,10-7.6,15-11.4c0.8-0.6,1.4-0.9,2.3,0
	c5.8,5.7,11.6,11.3,17.5,16.9c1.4,1.3,0,1.5-0.7,1.8c-13.8,8.6-27.7,17.1-41.6,25.7c-2.1,1.3-4.1,3-6.5,3.8c0.4-1.2,1.3-2.3,1-3.9
	c-1.6,1.1-2.9,2.1-4.7,3.3c0.4-2.3,0.7-4.1,1.1-6.1c-1.5,0.8-2.1,2.2-3.5,2.8c-0.3-2-0.7-3.9-1-5.8c-0.1,0-0.2,0-0.3,0
	c-0.4,1.9-0.7,3.7-1.1,5.7c-1.4-0.5-1.7-2.3-3.3-2.3c0.4,1.9,0.9,3.6,0.9,5.4c-1.8-0.6-2.7-2.5-4.7-2.5
	C92.2,178.1,92.6,179.1,92.9,180.2z"/>
<path style="fill:#74AAD2;" d="M156.8,101.4c-3.6-2.2-6.5-4.9-9.2-7.8c-4.5-4.7-7.5-10.6-11.5-15.7c-6.8-8.9-14.7-16.2-25.5-19.9
	c-14-4.8-26.3-1.4-37.2,8.3c-1.8,1.6-3.6,3.2-6,4.2c-5.6,2.3-7.2,6-6.2,13.2c0.5,3.6,1.4,7,2.6,10.6c0.9-1.3,0.6-2.7,1-4
	c0.5-1.4,1.3-2.1,2.8-2.2c0.8,0,1.7,0,2.5,0c3.9,0,3.9,0,4.1,4c0.5,9.2-4.3,14.5-14.2,15.6c-4.3,0.5-8.6,0.3-12.9-0.1
	c-1.8-0.1-2.7-0.7-2.7-2.9c0.1-10.7,0.2-21.3-0.1-32c-0.2-7.4,0-14.8-0.2-22.2c0-1.7,0.5-2.1,2.2-2.1c36.2,0,72.4,0,108.6,0
	c1.2,0,1.9,0.1,1.9,1.7c-0.1,16.8,0,33.6,0,50.5C156.9,100.6,156.8,100.8,156.8,101.4z"/>
<path style="fill:#FDFDFD;" d="M122.2,33.2c0,2.8,0,5.5,0,8.3c0,1-0.3,1.3-1.3,1.3c-4.1,0-8.2,0-12.3,0c-1,0-1.4-0.3-1.3-1.3
	c0.1-1.6,0-3.3,0-4.9c0-1-0.2-1.5-1.4-1.5c-4.7,0.1-9.3,0-14,0c-1,0-1.4,0.4-1.3,1.3c0,1.7,0,3.4,0,5.1c0,0.9-0.3,1.2-1.2,1.2
	c-4.2,0-8.3,0-12.5,0c-1.1,0-1.3-0.4-1.3-1.4c0-5.5,0-11,0-16.5c0-1.1,0.3-1.5,1.4-1.5c4,0.1,8,0.1,12.1,0c1.3,0,1.6,0.5,1.5,1.6
	c0,0.2,0,0.4,0,0.6c0,4.6,0,4.6,4.7,4.6c3.4,0,6.8-0.1,10.2,0c1.5,0.1,1.9-0.5,1.9-1.9c0-1.6-0.7-3.7,0.4-4.6c0.9-0.8,3-0.2,4.5-0.2
	c2.9,0,5.8,0,8.7,0c1,0,1.3,0.3,1.3,1.3C122.1,27.5,122.2,30.4,122.2,33.2z"/>
<path style="fill:#FDFDFD;" d="M145,33c0,2.8,0,5.6,0,8.5c0,1-0.3,1.4-1.3,1.3c-4.2-0.1-8.5,0-12.7,0c-0.9,0-1.2-0.3-1.2-1.2
	c0-5.6,0-11.3,0-16.9c0-0.9,0.4-1.2,1.2-1.2c4.3,0,8.6,0,12.9,0c1.1,0,1,0.6,1,1.3C145,27.5,145,30.2,145,33z"/>
<path style="fill:#FDFDFD;" d="M68,32.9c0,2.8,0,5.7,0,8.5c0,1-0.2,1.4-1.3,1.4c-4.1-0.1-8.2,0-12.3,0c-1,0-1.4-0.2-1.3-1.3
	c0-5.6,0-11.2,0-16.8c0-1,0.2-1.4,1.3-1.4c4.1,0.1,8.2,0.1,12.3,0c1.2,0,1.4,0.5,1.4,1.5C68,27.6,68,30.3,68,32.9z"/>
<path style="fill:#E71E28;" d="M92.9,180.2c-0.4-1.1-0.7-2.1-1.1-3.4c2,0,2.9,1.9,4.7,2.5c0.1-1.8-0.5-3.5-0.9-5.4
	c1.6,0,1.9,1.8,3.3,2.3c0.4-1.9,0.7-3.8,1.1-5.7c0.1,0,0.2,0,0.3,0c0.3,1.9,0.7,3.8,1,5.8c1.4-0.6,2-2,3.5-2.8
	c-0.4,2-0.7,3.8-1.1,6.1c1.8-1.2,3.1-2.2,4.7-3.3c0.3,1.6-0.7,2.7-1,3.9c-1.9,1.9-4.4,2.9-6.6,4.4c-0.7,0.5-1.2,0.1-1.7-0.3
	C97,182.9,95,181.5,92.9,180.2z"/>
<path style="fill:#FDFDFD;" d="M149.6,18.1c-5.9,5.1-12.8,3.9-20.1,3.8c2.5-1.7,3.9-4.1,7.1-3.9C140.9,18.3,145.3,18.1,149.6,18.1z"
	/>
<path style="fill:#FDFDFD;" d="M72.8,18.1c-5.9,5.2-12.8,3.7-19.6,3.7c2-1.7,3.5-4,6.8-3.8C64.2,18.3,68.4,18.1,72.8,18.1z"/>
</svg>
