<?xml version="1.0" encoding="utf-8"?>
<!-- Generator: Adobe Illustrator 24.1.2, SVG Export Plug-In . SVG Version: 6.00 Build 0)  -->
<svg version="1.1" baseProfile="tiny" id="Layer_1" xmlns="http://www.w3.org/2000/svg" xmlns:xlink="http://www.w3.org/1999/xlink"
	 x="0px" y="0px" viewBox="0 0 200 200" overflow="visible" xml:space="preserve">
<polygon fill="#1D1D1B" points="100,184.8 199.5,12.5 0.5,12.5 "/>
<polygon fill="#E34131" points="8.5,17.1 191.5,17.1 100,175.6 "/>
<polygon fill="#1D1D1B" points="12.5,19.4 187.5,19.4 100,170.9 "/>
<polygon fill="#3E4A51" points="21.7,24.7 178.3,24.7 100,160.3 "/>
<polygon fill="#3D4A50" points="27.6,28.7 172.4,28.7 100,155.1 "/>
<polygon fill="#1D1E1B" points="30.8,30 169.2,30 100,149.8 "/>
<polygon fill="#1D1D1B" points="100,155.1 27.2,27.3 24.6,26 100,157.7 175.4,26 172.8,27.3 "/>
<polygon fill="#1D1D1B" points="171.9,27.3 28.1,27.3 29.5,28.7 170.5,28.7 "/>
<path fill="#1D1D1B" d="M109.9,111.6V95.5h2.3l-4.2-16.4l-13.7-8.7l-6.6,25.4h2.2v15.8H66.5l-5.3-16l-10.8,0V80.3h2V49.5h-2V33.4
	h15.7l17.9,11.3l2.6-14V13.1h26.7V31l8.4,37.6l9.2,5.8V49.5h-2.7V33.4h21.2v16.1h-2.7v30.8h2.7v15.3h-10.4l-6,16H109.9z M71.4,80.3
	v13.2l8.4-32.3L69,54.4v25.9H71.4z M102,56l-2-7.7l-1.4,5.5L102,56z"/>
<polygon fill="#E84131" points="145.6,45.5 145.6,37.3 132.3,37.3 132.3,45.5 135,45.5 135,81.6 118.3,71.1 107,25.7 109.4,25.7 
	109.4,17.1 90.6,17.1 90.6,26.1 93,26.1 86.5,51 83.7,49.2 65,37.3 54.4,37.3 54.4,45.5 56.5,45.5 56.5,84.3 54.4,84.3 54.4,91.6 
	67.4,91.6 67.4,84.3 65,84.3 65,47.2 81.5,57.7 84.3,59.5 73.8,99.9 70.5,99.8 70.5,107.6 85.8,107.6 85.8,99.8 82.4,99.8 
	91.7,64.2 107.4,74.1 104.3,62.2 94,55.7 100,32.5 117.2,99.4 113.8,99.4 113.8,107.6 129.2,107.6 129.2,99.4 125.4,99.4 
	121.3,82.9 135,91.6 145.6,91.6 145.6,84.3 142.8,84.3 142.8,45.5 "/>
<text transform="matrix(1.3541 0 0 1 92.3871 95.1668)" fill="#404E56" font-family="'Century'" font-size="15.9259px">X</text>
<text transform="matrix(1.3541 0 0 1 92.3871 111.033)" fill="#404E56" font-family="'Century'" font-size="15.9259px">X</text>
<text transform="matrix(0.7815 0 0 1 92.3871 126.9002)" fill="#404E56" font-family="'Century'" font-size="15.9259px">III</text>
</svg>
