<?xml version="1.0" encoding="utf-8"?>
<!-- Generator: Adobe Illustrator 24.1.0, SVG Export Plug-In . SVG Version: 6.00 Build 0)  -->
<svg version="1.1" id="Layer_1" xmlns="http://www.w3.org/2000/svg" xmlns:xlink="http://www.w3.org/1999/xlink" x="0px" y="0px"
	 viewBox="0 0 200 200" style="enable-background:new 0 0 200 200;" xml:space="preserve">
<path style="fill:#141E33;" d="M199.953,0.206c-0.468,0.795-0.985,1.566-1.397,2.389c-32.375,64.692-64.742,129.387-97.101,194.087
	c-0.412,0.825-0.718,1.703-1.073,2.556c-0.286,0-0.572,0-0.858,0c-0.355-0.853-0.66-1.731-1.073-2.556
	C66.092,131.982,33.725,67.286,1.35,2.594C0.938,1.771,0.421,1.001-0.047,0.206c0.386-0.887,1.16-0.402,1.717-0.403
	C17.192-0.23,32.714-0.223,48.236-0.223c49.928,0,99.857-0.002,149.785,0.027C198.65-0.196,199.477-0.692,199.953,0.206z"/>
<path style="fill:#007F46;" d="M99.951,4.066c29.818,0,59.636,0,89.454,0.001c0.715,0,1.43,0.004,2.145,0.021
	c1.009,0.024,1.264,0.494,0.812,1.386c-0.226,0.445-0.419,0.907-0.642,1.353c-30.017,59.994-60.034,119.988-90.069,179.972
	c-0.462,0.922-0.661,2.49-1.695,2.493c-1.041,0.003-1.237-1.567-1.698-2.488C68.222,126.82,38.206,66.826,8.188,6.832
	C6.821,4.099,6.835,4.068,9.851,4.068C39.885,4.065,69.918,4.066,99.951,4.066z"/>
<path style="fill:#141E33;" d="M100.047,7.498c27.964,0,55.928,0,83.892,0.001c0.715,0,1.431,0.002,2.145,0.031
	c0.903,0.037,1.111,0.501,0.74,1.284c-0.245,0.516-0.485,1.033-0.741,1.544c-28.137,56.239-56.274,112.479-84.429,168.709
	c-0.462,0.923-0.656,2.492-1.689,2.505c-1.054,0.013-1.243-1.561-1.703-2.479C70.074,122.799,41.905,66.495,13.735,10.191
	c-1.323-2.643-1.294-2.692,1.776-2.692C43.69,7.497,71.869,7.498,100.047,7.498z"/>
<path style="fill:#007F46;" d="M27.43,22.031c-1.204-3.378-1.204-3.38,2.454-3.38c3.074,0,6.148,0.009,9.222,0.008
	c0.893,0,1.726,0.085,2.131,1.064c0.264,0.64,0.96,1.236,0.586,1.954c-0.347,0.665-1.157,0.366-1.769,0.397
	c-2.308,0.118-2.427,0.263-1.409,2.298c13.594,27.187,27.196,54.37,40.815,81.544c0.296,0.591,0.407,1.587,1.269,1.517
	c0.646-0.053,0.806-0.93,1.085-1.488c5.629-11.226,11.24-22.46,16.867-33.687c0.313-0.624,0.486-1.625,1.171-1.679
	c0.915-0.073,1.038,1.031,1.366,1.684c5.608,11.156,11.185,22.328,16.782,33.49c0.312,0.622,0.481,1.625,1.178,1.667
	c0.903,0.054,1.031-1.04,1.36-1.697c13.554-27.047,27.09-54.103,40.624-81.161c1.132-2.264,1.057-2.345-1.309-2.499
	c-0.669-0.044-1.91,0.43-1.799-0.777c0.096-1.041,0.51-2.488,1.893-2.527c4.214-0.12,8.432-0.069,12.649-0.05
	c0.985,0.004,0.942,0.66,0.675,1.35c-0.256,0.661-0.529,1.316-0.794,1.974c0.022,0.217-0.041,0.404-0.186,0.568
	c-3.186,0.336-5.065,2.046-6.519,4.977c-14.417,29.063-28.973,58.057-43.486,87.072c-0.511,1.022-0.968,2.078-1.604,3.03
	c-0.892,1.335-1.936,1.334-2.841-0.005c-0.52-0.769-0.893-1.628-1.309-2.458c-4.829-9.65-9.653-19.302-14.484-28.95
	c-0.32-0.639-0.596-1.305-0.994-1.898c-0.825-1.229-1.394-1.22-2.221,0.032c-0.393,0.596-0.672,1.261-0.991,1.899
	c-4.86,9.714-9.721,19.427-14.583,29.14c-0.416,0.83-0.779,1.699-1.331,2.445c-0.778,1.05-1.845,1.038-2.604-0.043
	c-0.657-0.936-1.105-1.999-1.617-3.022C63.159,85.74,48.574,56.68,34.125,27.554c-1.454-2.93-3.344-4.615-6.516-4.959
	C27.468,22.43,27.408,22.244,27.43,22.031z"/>
<path style="fill:#24375B;" d="M27.43,22.031c0.143,0.04,0.286,0.08,0.429,0.121c1.548,0.648,2.112,2.094,2.788,3.444
	c16.543,33.045,33.07,66.097,49.605,99.146c5.885,11.762,11.772,23.523,17.653,35.286c0.128,0.256,0.235,0.526,0.39,0.764
	c0.483,0.742,0.598,1.986,1.762,1.897c0.965-0.073,1.178-1.154,1.551-1.898c9.608-19.17,19.197-38.35,28.792-57.527
	c12.921-25.825,25.837-51.653,38.764-77.475c0.704-1.407,1.261-2.949,2.883-3.636c0.143-0.04,0.285-0.08,0.428-0.12
	c2.52,0.305,2.596,0.444,1.343,2.948c-17.102,34.195-34.207,68.388-51.313,102.581c-6.938,13.869-13.877,27.737-20.817,41.606
	c-0.288,0.575-0.573,1.152-0.886,1.714c-0.555,0.994-1.141,0.999-1.699,0.003c-0.314-0.561-0.599-1.138-0.886-1.713
	c-23.982-47.933-47.963-95.867-71.944-143.8c-0.128-0.256-0.258-0.51-0.381-0.768C24.896,22.495,24.997,22.327,27.43,22.031z"/>
<path style="fill:#24375B;" d="M100.002,11.787c25.31,0,50.621-0.001,75.931,0.001c4.515,0,4.521,0.006,2.434,4.105
	c-0.355,0.698-0.719,1.406-1.191,2.025c-0.536,0.704-1.363,0.891-2.112,0.452c-0.753-0.441-0.355-1.153-0.06-1.707
	c0.927-1.745,0.236-2.358-1.529-2.298c-0.643,0.022-1.287-0.005-1.93-0.005c-47.761,0-95.521,0-143.282,0
	c-0.643,0-1.287,0.022-1.93,0.008c-1.638-0.036-2.327,0.521-1.479,2.19c0.305,0.601,0.84,1.391-0.098,1.853
	c-0.869,0.429-1.739,0.109-2.22-0.734c-0.778-1.363-1.484-2.77-2.158-4.188c-0.527-1.109,0.02-1.616,1.122-1.664
	c0.857-0.037,1.715-0.038,2.573-0.038C49.381,11.787,74.692,11.787,100.002,11.787z"/>
<path style="fill:#007F46;" d="M108.927,27.442c-3.561,3.57-6.933,6.94-10.292,10.322c-0.799,0.805-1.172,0.515-1.376-0.449
	c-0.058-0.274-0.177-0.54-0.298-0.797c-0.477-1.015-0.19-2.813-1.199-3.001c-1.235-0.23-1.995,1.381-2.836,2.288
	c-2.812,3.033-2.794,3.072-4.081-0.888c-0.658-2.027-1.239-4.079-1.858-6.118c-0.141-0.466-0.471-1.032,0.16-1.3
	c0.709-0.3,1.014,0.263,1.197,0.847c0.596,1.897,1.158,3.805,1.782,5.693c0.758,2.294,0.887,2.311,2.674,0.549
	c0.914-0.901,1.857-1.778,2.718-2.728c0.877-0.967,1.363-0.695,1.762,0.389c1.5,4.081,1.506,4.079,4.636,0.951
	c1.615-1.613,3.216-3.241,4.854-4.83C107.254,27.903,107.628,27.17,108.927,27.442z"/>
<path style="fill:#007F46;" d="M111.871,38.795c-1.391-0.09-2.929-0.531-3.761-2.215c-0.928-1.877-0.423-3.724,0.625-5.265
	c1.417-2.084,3.338-3.658,5.895-4.338c3.136-0.833,6.654,1.391,5.515,5.388C119.193,35.701,115.502,38.79,111.871,38.795z"/>
<path style="fill:#007F46;" d="M59.892,27.26c1.142,0,2.285-0.012,3.426,0.007c0.348,0.006,0.763,0.04,0.826,0.495
	c0.061,0.436-0.26,0.731-0.632,0.666c-4.116-0.715-4.181,2.61-5.081,5.076c-0.512,1.403-0.958,2.83-1.415,4.252
	c-0.14,0.437-0.376,0.922-0.821,0.827c-0.71-0.151-0.454-0.812-0.319-1.238c0.686-2.17,1.342-4.356,2.17-6.473
	c0.686-1.752,0.359-2.537-1.634-2.383c-0.503,0.039-1.383,0.24-1.421-0.513c-0.048-0.949,0.9-0.693,1.472-0.721
	c1.14-0.055,2.284-0.016,3.426-0.016C59.892,27.247,59.892,27.253,59.892,27.26z"/>
<path style="fill:#007F46;" d="M145.864,31.658c-0.04,2.806-2.383,5.441-5.957,6.437c-0.983,0.274-2.607,1.369-2.988,0.162
	c-0.351-1.11,1.625-0.694,2.487-1.181c1.357-0.766,2.883-1.221,3.981-2.431c1.879-2.071,1.436-4.405-1.092-5.528
	c-0.454-0.202-0.928-0.357-1.392-0.537c-0.332-0.129-0.752-0.261-0.67-0.692c0.094-0.494,0.54-0.584,1.002-0.599
	C143.55,27.219,145.896,29.425,145.864,31.658z"/>
<path style="fill:#007F46;" d="M71.8,28.148c-0.555,1.688-1.107,3.378-1.667,5.064c-0.516,1.553-1.035,3.104-1.565,4.652
	c-0.143,0.416-0.39,0.874-0.889,0.696c-0.513-0.183-0.308-0.719-0.252-1.119c0.167-1.195,1.55-2.513,0.467-3.493
	c-0.879-0.795-2.474-0.207-3.749-0.284c-0.356-0.021-0.715-0.006-1.069-0.04c-0.349-0.033-0.786-0.049-0.812-0.508
	c-0.032-0.57,0.444-0.671,0.876-0.688c0.998-0.038,2.011-0.146,2.994-0.029c2.187,0.26,3.583-0.411,3.911-2.768
	c0.085-0.611,0.453-1.186,0.715-1.767c0.121-0.269,0.336-0.475,0.667-0.397C71.788,27.551,71.82,27.821,71.8,28.148z"/>
<path style="fill:#007F46;" d="M128.667,29.167c0.047,1.143-0.184,2.109-0.901,2.532c-2.036,1.199-1.374,2.735-0.899,4.405
	c0.224,0.786,1.216,2.087,0.131,2.419c-1.34,0.41-1.102-1.254-1.43-2.09c-0.259-0.66-0.418-1.362-0.702-2.01
	c-0.518-1.178-0.297-1.956,0.928-2.572c0.787-0.396,1.735-1.026,1.426-2.128c-0.331-1.179-1.429-1.215-2.463-1.208
	c-0.497,0.003-1.005,0.004-1.488-0.094c-0.517-0.105-0.742-0.453-0.316-0.904c0.78-0.825,5.026-0.174,5.533,0.853
	C128.635,28.676,128.643,29.053,128.667,29.167z"/>
<path style="fill:#007F46;" d="M133.611,27.284c-0.372,2.775-1.454,5.077-2.221,7.464c-0.86,2.674-0.868,2.654,1.941,2.8
	c0.612,0.032,1.739-0.394,1.686,0.647c-0.046,0.893-1.148,0.575-1.803,0.598c-4.503,0.158-4.507,0.145-3.088-4.067
	c0.634-1.883,1.292-3.758,1.928-5.64C132.275,28.43,132.347,27.683,133.611,27.284z"/>
<path style="fill:#007F46;" d="M75.986,28.617c-1.057-0.397-2.842,0.472-2.86-0.705c-0.018-1.198,1.765-0.654,2.719-0.626
	c0.999,0.03,2.809-0.724,2.839,0.652C78.708,29.064,76.836,28.132,75.986,28.617z"/>
<path style="fill:#007F46;" d="M74.339,32.313c0.912,0.366,2.599-0.542,2.639,0.769c0.03,1.008-1.683,0.553-2.596,0.537
	c-1.047-0.017-2.965,0.545-2.953-0.552C71.443,31.788,73.325,32.691,74.339,32.313z"/>
<path style="fill:#007F46;" d="M72.336,38.876c-0.93-0.33-2.651,0.411-2.636-0.596c0.021-1.337,1.709-0.686,2.645-0.705
	c0.98-0.019,2.84-0.502,2.8,0.476C75.086,39.499,73.282,38.444,72.336,38.876z"/>
<path style="fill:#141E33;" d="M172.048,22.152c-0.397,0.916-0.75,1.854-1.196,2.745c-23.049,46.091-46.103,92.179-69.18,138.255
	c-0.45,0.899-0.579,2.429-1.819,2.358c-1-0.057-1.188-1.482-1.624-2.352c-23.07-46.08-46.125-92.168-69.173-138.258
	c-0.446-0.892-0.8-1.831-1.197-2.748c3.495-0.79,5.253,0.763,6.823,3.935c14.625,29.561,29.436,59.03,44.193,88.526
	c0.255,0.511,0.496,1.029,0.776,1.526c0.267,0.474,0.365,1.23,1.059,1.175c0.509-0.04,0.669-0.668,0.891-1.112
	c0.829-1.66,1.672-3.314,2.503-4.973c4.888-9.767,9.771-19.537,14.67-29.3c0.281-0.56,0.444-1.437,1.08-1.5
	c0.869-0.086,0.979,0.916,1.275,1.505c5.641,11.227,11.25,22.469,16.882,33.7c0.31,0.618,0.474,1.627,1.188,1.649
	c0.886,0.028,1.019-1.056,1.351-1.717c14.929-29.809,29.894-59.6,44.677-89.481C166.795,22.914,168.553,21.363,172.048,22.152z"/>
<path style="fill:#141E33;" d="M115.682,28.105c2.744,0.045,4.198,2.823,2.705,5.453c-1.159,2.041-2.91,3.504-5.331,3.896
	c-2.781,0.45-4.634-1.82-3.733-4.522C110.266,30.104,112.958,28.06,115.682,28.105z"/>
</svg>
