<?xml version="1.0" encoding="utf-8"?>
<!-- Generator: Adobe Illustrator 24.1.2, SVG Export Plug-In . SVG Version: 6.00 Build 0)  -->
<svg version="1.1" id="Layer_1" xmlns="http://www.w3.org/2000/svg" xmlns:xlink="http://www.w3.org/1999/xlink" x="0px" y="0px"
	 viewBox="0 0 200 200" style="enable-background:new 0 0 200 200;" xml:space="preserve">
<g id="layer3" transform="translate(5,5)">
	<g id="g2431" transform="translate(442.65772,1618.749)">
		<path id="path1439" style="fill:none;" d="M-347.7-1615.8c51.4,0,92.8,41.4,92.8,92.8c0,51.4-41.4,92.8-92.8,92.8
			s-92.8-41.4-92.8-92.8C-440.5-1574.4-399.1-1615.8-347.7-1615.8z"/>
		<path id="path1159" style="fill:none;" d="M-347.7-1616.4c51.4-0.4,92.8,40.8,92.8,92.2c0,51.4-41.4,93.1-92.8,93.5
			s-92.8-40.8-92.8-92.2C-440.5-1574.4-399.1-1616.1-347.7-1616.4z"/>
		<path id="path1288" d="M-347.7-1620.7c-53.9,0-97.5,43.6-97.5,97.5c0,53.9,43.6,97.5,97.5,97.5s97.5-43.6,97.5-97.5
			S-293.7-1620.7-347.7-1620.7z M-347.7-1611.4c48.9,0,88.2,39.2,88.2,88.2s-39.2,88.2-88.2,88.2s-88.2-39.2-88.2-88.2
			C-435.8-1572.2-396.6-1611.4-347.7-1611.4L-347.7-1611.4z"/>
		<g id="g1146" transform="matrix(0.60393031,0,0,0.70243747,-559.54316,-855.44217)">
			<path id="path1025" d="M288.9-1039.6v0.2c-2,5.2-10.2,25.5-24.5,60.9h-18.1v-0.2c0-0.4,8.2-20.7,24.5-60.9H288.9z"/>
			<path id="path1027" d="M317.5-1039.6v0.2c-2,5.2-10.2,25.5-24.5,60.9h-18.1v-0.2c0-0.4,8.2-20.7,24.5-60.9H317.5z"/>
			<path id="path1029" d="M327.8-1039.5c-16.3,40.2-24.5,60.5-24.5,60.9v0.2h17.8c0.4-0.5,1.8-3.8,4.4-9.8c4-10.5,6.2-15.8,6.6-15.8
				h20.4l-10.1,25.4v0.2h17.1l0.2-0.4l0,0l0,0c0.3-1.2,6.7-17.1,19.2-47.8c-4-8.2-6-12.5-6-12.8v-0.1h-5.8
				c-0.4,0.3-2.1,4.4-5.3,12.1c-2.6,7-4.1,10.5-4.6,10.5h-19.9l-0.5-0.3c4.6-11.1,7.6-18.5,8.9-22.2v-0.2L327.8-1039.5z"/>
			<path id="path1046" d="M383-1039.6h59.2v0.2c-3.2,8.1-5.1,12.4-5.5,12.8h-29.2c-0.7,1-2.2,4.6-4.6,10.8h25.6
				c-2.6,7-4.3,11.1-5,12.1h-25.1c-0.4,0-1.7,2.8-3.7,8.5c-1.2,2.8-3.5,8.4-6.8,16.7h-18.1v-0.2c0.3-1.2,6.7-17.1,19.2-47.8
				c-4-8.2-6-12.5-6-12.8L383-1039.6z"/>
		</g>
		<g>
			<defs>
				<rect id="SVGID_1_" x="-376" y="-1512.5" width="99.4" height="72.8"/>
			</defs>
			<clipPath id="SVGID_2_">
				<use xlink:href="#SVGID_1_"  style="overflow:visible;"/>
			</clipPath>
			
				<g id="g43964" transform="matrix(0.58189103,-0.16927554,0.16927554,0.58189103,-458.87123,-772.18154)" style="clip-path:url(#SVGID_2_);">
				<g id="g5644" transform="translate(421.43564,104.6518)">
					<path id="path2565" d="M86.5-1159.9c-17.3,4.4-29.9,12.8-34.4,22.7c0,0,0,0,0,0c6.5-6.4,16.7-11.5,29.1-14.6
						C82.3-1154.5,84.1-1157.3,86.5-1159.9z M99.6-1177.9c12,3.5,21.6,8.8,27.4,15.4c5.3,0.6,10.4,1.5,15.2,2.7
						C133.8-1168.9,118.2-1175.5,99.6-1177.9L99.6-1177.9z M176.4-1153.2c-6.7,6.5-17,11.6-29.1,14.7c-1.1,2.8-2.8,5.6-5.2,8.2
						c0.6-0.2,1.2-0.3,1.9-0.5c0.5-0.2,1.1-0.3,1.6-0.5C160.7-1136,172.2-1143.8,176.4-1153.2L176.4-1153.2L176.4-1153.2z
						 M86.5-1130.3c0.1,0.1,0.1,0.1,0.2,0.2c0.7,0.7,1.5,1.5,2.3,2.2c8.8,7.7,23.3,13.6,40.7,15.7c-12.3-3.5-21.9-9-27.7-15.3
						C96.6-1128.1,91.4-1129,86.5-1130.3z M86.5-1159.9c-9.6,2.5-17.7,6.1-23.8,10.6c-1.8,19.3,20,31.8,50.6,35.9
						c5.2,0.7,11.1,1.2,16.4,1.2c0,0,0,0,0,0c0,0,0,0,0,0c-28.8-3.6-49.7-17.2-49.8-32.9C79.9-1150.2,82.2-1155.3,86.5-1159.9z
						 M176.4-1153.2c-6.8,15.2-32.5,26.3-62.1,26.4c-9.6,0-19.1-1.2-27.8-3.5c0.1,0.1,0.1,0.1,0.2,0.2c0.7,0.7,1.5,1.5,2.3,2.2
						c4.6,4,10.6,7.5,17.9,10.2c31.4,0.3,59.1-10.7,67.3-26.8C175.4-1147.2,176.3-1150.4,176.4-1153.2z M99.3-1178L99.3-1178
						L99.3-1178c28.9,3.6,49.4,17.2,49.4,32.9c-0.1,5.1-2.3,10.1-6.6,14.7c0.6-0.2,1.2-0.3,1.9-0.5c0.5-0.2,1.1-0.3,1.6-0.5
						c8.3-2.5,15.4-6,20.9-10.2c0-16.5-21-30.9-51.1-35.2C110.1-1177.5,104.7-1177.9,99.3-1178z M120.9-1172.8
						c-31.2,0.1-58.4,11.2-66.5,27.1c-1.4,2.8-2.2,5.7-2.3,8.6l0,0l0,0c6.8-15.3,32.5-26.1,62.2-26.2c9.7,0,19.2,1.2,27.9,3.5
						C137.3-1165,130-1169.5,120.9-1172.8L120.9-1172.8z M176.4-1153.2c-6.8,15.2-32.5,26.3-62.1,26.4c-9.6,0-19.1-1.2-27.8-3.5
						c0.1,0.1,0.1,0.1,0.2,0.2c0.7,0.7,1.5,1.5,2.3,2.2c8.8,7.7,23.3,13.6,40.7,15.7c28.5-3.7,48.6-17.3,48.6-32.9
						C178.2-1147.7,177.6-1150.7,176.4-1153.2z M99.3-1177.9c-28.7,3.7-49,17.2-49.1,32.9c0,2.7,0.6,5.4,1.8,8
						c6.7-15.3,32.5-26.2,62.2-26.2c9.7,0,19.2,1.2,27.9,3.5C133.8-1168.9,118-1175.6,99.3-1177.9z M114.3-1178.9
						c-5.1,0-10.2,0.3-15.1,1c28.9,3.6,49.5,17.2,49.5,32.9c-0.1,5.1-2.3,10.1-6.6,14.7c0.6-0.2,1.2-0.3,1.9-0.5
						c0.5-0.2,1.1-0.3,1.6-0.5c15.1-4.6,26.6-12.5,30.8-21.9C169.3-1168.3,143.7-1178.9,114.3-1178.9z M86.5-1159.9
						c-17.3,4.4-29.9,12.8-34.4,22.7c6.9,15.2,32.6,25.9,62.2,25.9c5,0,10.6-0.4,15.4-1c-28.8-3.6-49.8-17.2-49.9-32.9
						C79.9-1150.2,82.2-1155.3,86.5-1159.9z"/>
					<path id="path3477" d="M114.3-1202.3l-15,1l0,0l-0.1,0v0l0,0v0.1l-48.9,32.8l0,23.4l1.9,7.9l2.1-1.1l0.3-0.3l-0.3,0.3l0.7-0.1
						l59.4,27.2l15.4-1l0,0l0,0v0l0,0v0l48.6-32.8l0-23.4l-1.9-8.2l0,0L114.3-1202.3z M130.1-1157.4l0.4,0.3l-0.1,0
						C130.4-1157.1,130.3-1157.3,130.1-1157.4z M98.4-1156.6c0,0-0.3,0.1-0.3,0.1l0,0L98.4-1156.6z"/>
					<g id="g2449" transform="matrix(1,0,0,0.52884615,281.12382,-728.29371)">
						
							<linearGradient id="path2425_1_" gradientUnits="userSpaceOnUse" x1="1140.3988" y1="-5785.8945" x2="1097.7975" y2="-5703.8237" gradientTransform="matrix(0.5819 0.1693 8.952104e-02 -0.3077 -319.9071 -2737.9519)">
							<stop  offset="0" style="stop-color:#1595D3"/>
							<stop  offset="1" style="stop-color:#002D62"/>
						</linearGradient>
						<path id="path2425" style="fill:url(#path2425_1_);" d="M-194.7-860.3c-17.3,8.4-29.9,24.2-34.4,43
							c6.9,28.7,32.6,49,62.2,49.1c5-0.1,10.6-0.7,15.4-1.9c-28.8-6.8-49.8-32.5-49.9-62.1C-201.2-842-198.9-851.6-194.7-860.3z"/>
						
							<linearGradient id="path2427_1_" gradientUnits="userSpaceOnUse" x1="1089.4745" y1="-5388.7749" x2="1140.7751" y2="-5460.7998" gradientTransform="matrix(0.5819 0.1693 8.952104e-02 -0.3077 -319.9071 -2737.9519)">
							<stop  offset="0" style="stop-color:#1595D3"/>
							<stop  offset="1" style="stop-color:#002D62"/>
						</linearGradient>
						<path id="path2427" style="fill:url(#path2427_1_);" d="M-166.8-896.3c-5.1,0-10.2,0.6-15.1,1.8c28.9,6.7,49.5,32.5,49.5,62.2
							c-0.1,9.6-2.3,19.1-6.6,27.8c0.6-0.3,1.2-0.6,1.9-1c0.5-0.3,1.1-0.6,1.6-0.9c15.1-8.7,26.6-23.6,30.8-41.4
							C-111.8-876.3-137.4-896.3-166.8-896.3z"/>
						
							<linearGradient id="path2429_1_" gradientUnits="userSpaceOnUse" x1="1020.7324" y1="-5633.8276" x2="1093.9138" y2="-5583.1035" gradientTransform="matrix(0.5819 0.1693 8.952104e-02 -0.3077 -319.9071 -2737.9519)">
							<stop  offset="0" style="stop-color:#E5A169"/>
							<stop  offset="1" style="stop-color:#AE5E1E"/>
						</linearGradient>
						<path id="path2429" style="fill:url(#path2429_1_);" d="M-181.8-894.5c-28.7,6.9-49,32.6-49.1,62.2c0,5.1,0.6,10.2,1.8,15.1
							c6.7-28.9,32.5-49.5,62.2-49.5c9.7,0.1,19.2,2.3,27.9,6.6C-147.4-877.4-163.1-890-181.8-894.5z"/>
						
							<linearGradient id="path2431_1_" gradientUnits="userSpaceOnUse" x1="1125.6527" y1="-5733.8306" x2="1201.6383" y2="-5690.2495" gradientTransform="matrix(0.5819 0.1693 8.952104e-02 -0.3077 -319.9071 -2737.9519)">
							<stop  offset="0" style="stop-color:#AF5F1E"/>
							<stop  offset="1" style="stop-color:#E5A169"/>
						</linearGradient>
						<path id="path2431" style="fill:url(#path2431_1_);" d="M-104.7-847.7c-6.8,28.8-32.5,49.8-62.1,49.9
							c-9.6-0.1-19.1-2.3-27.8-6.6c0.1,0.1,0.1,0.3,0.2,0.4c0.7,1.4,1.5,2.8,2.3,4.1c8.8,14.6,23.3,25.6,40.7,29.8
							c28.5-7.1,48.6-32.7,48.6-62.1C-102.9-837.3-103.5-842.9-104.7-847.7z"/>
						
							<linearGradient id="path2433_1_" gradientUnits="userSpaceOnUse" x1="1024.7965" y1="-5668.6597" x2="1103.7476" y2="-5609.7271" gradientTransform="matrix(0.5819 0.1693 8.952104e-02 -0.3077 -319.9071 -2737.9519)">
							<stop  offset="0" style="stop-color:#FFFFFF"/>
							<stop  offset="1" style="stop-color:#FFFFFF;stop-opacity:0"/>
						</linearGradient>
						<path id="path2433" style="opacity:0.5662;fill:url(#path2433_1_);enable-background:new    ;" d="M-160.2-884.8
							c-31.2,0.2-58.4,21.2-66.5,51.2c-1.4,5.3-2.2,10.8-2.3,16.3c0,0,0,0,0,0c0,0,0,0,0-0.1c6.8-28.9,32.5-49.4,62.2-49.5
							c9.7,0.1,19.2,2.3,27.9,6.6C-143.8-870-151.1-878.5-160.2-884.8L-160.2-884.8z"/>
						
							<linearGradient id="path2435_1_" gradientUnits="userSpaceOnUse" x1="1071.3647" y1="-5395.6089" x2="1130.6222" y2="-5473.8652" gradientTransform="matrix(0.5819 0.1693 8.952104e-02 -0.3077 -319.9071 -2737.9519)">
							<stop  offset="0" style="stop-color:#FFFFFF"/>
							<stop  offset="1" style="stop-color:#FFFFFF;stop-opacity:0"/>
						</linearGradient>
						<path id="path2435" style="opacity:0.5221;fill:url(#path2435_1_);enable-background:new    ;" d="M-181.9-894.5
							C-181.9-894.5-181.9-894.5-181.9-894.5C-181.9-894.5-181.9-894.5-181.9-894.5c28.9,6.8,49.4,32.5,49.4,62.2
							c-0.1,9.6-2.3,19.1-6.6,27.8c0.6-0.3,1.2-0.6,1.9-1c0.5-0.3,1.1-0.6,1.6-0.9c8.3-4.8,15.4-11.4,20.9-19.2
							c0-31.2-21-58.5-51.1-66.6C-171-893.6-176.4-894.4-181.9-894.5z"/>
						
							<linearGradient id="path2437_1_" gradientUnits="userSpaceOnUse" x1="1220.9125" y1="-5489.1738" x2="1139.2831" y2="-5545.0405" gradientTransform="matrix(0.5819 0.1693 8.952104e-02 -0.3077 -319.9071 -2737.9519)">
							<stop  offset="0" style="stop-color:#FFFFFF"/>
							<stop  offset="1" style="stop-color:#FFFFFF;stop-opacity:0"/>
						</linearGradient>
						<path id="path2437" style="opacity:0.5165;fill:url(#path2437_1_);enable-background:new    ;" d="M-104.7-847.7
							c-6.8,28.8-32.5,49.8-62.1,49.9c-9.6-0.1-19.1-2.3-27.8-6.6c0.1,0.1,0.1,0.3,0.2,0.4c0.7,1.4,1.5,2.8,2.3,4.1
							c4.6,7.5,10.6,14.1,17.9,19.3c31.4,0.6,59.1-20.3,67.3-50.7C-105.7-836.4-104.8-842.4-104.7-847.7z"/>
						
							<linearGradient id="path2439_1_" gradientUnits="userSpaceOnUse" x1="1165.2792" y1="-5768.0493" x2="1110.6213" y2="-5685.0361" gradientTransform="matrix(0.5819 0.1693 8.952104e-02 -0.3077 -319.9071 -2737.9519)">
							<stop  offset="0" style="stop-color:#FFFFFF"/>
							<stop  offset="1" style="stop-color:#FFFFFF;stop-opacity:0"/>
						</linearGradient>
						<path id="path2439" style="opacity:0.5184;fill:url(#path2439_1_);enable-background:new    ;" d="M-194.7-860.3
							c-9.6,4.6-17.7,11.6-23.8,20c-0.8,31.6,20.1,59.6,50.6,67.8c5.2,1.3,11.1,2.2,16.4,2.3c0,0,0,0,0,0c0,0,0,0,0,0
							c-28.8-6.9-49.7-32.5-49.8-62.1C-201.2-842-198.9-851.6-194.7-860.3z"/>
						<path id="path2441" style="opacity:0.5139;enable-background:new    ;" d="M-194.6-804.4c0.1,0.1,0.1,0.3,0.2,0.4
							c0.7,1.4,1.5,2.8,2.3,4.1c8.8,14.6,23.3,25.6,40.7,29.8c-12.3-6.7-21.9-17-27.7-29C-184.5-800.3-189.7-802-194.6-804.4z"/>
						<path id="path2443" style="opacity:0.5079;enable-background:new    ;" d="M-104.7-847.7c-6.7,12.4-17,21.9-29.1,27.8
							c-1.1,5.4-2.8,10.6-5.2,15.5c0.6-0.3,1.2-0.6,1.9-1c0.5-0.3,1.1-0.6,1.6-0.9C-120.4-815.1-109-829.9-104.7-847.7
							C-104.7-847.7-104.7-847.7-104.7-847.7L-104.7-847.7z"/>
						<path id="path2445" style="opacity:0.502;enable-background:new    ;" d="M-181.6-894.4c12,6.5,21.6,16.7,27.4,29.1
							c5.3,1.1,10.4,2.8,15.2,5.2C-147.3-877.3-163-889.9-181.6-894.4z"/>
						<path id="path2447" style="opacity:0.5099;enable-background:new    ;" d="M-194.7-860.3c-17.3,8.4-29.9,24.2-34.4,43
							c0,0,0,0,0,0c6.5-12.1,16.7-21.7,29.1-27.6C-198.8-850.2-197.1-855.4-194.7-860.3z"/>
					</g>
				</g>
				<path id="rect43843" d="M519.9-1056.9L519.9-1056.9c2.2,0,4,1.9,4,4.2l0,0c0,2.3-1.8,4.2-4,4.2l0,0c-2.2,0-4-1.9-4-4.2l0,0
					C515.9-1055,517.7-1056.9,519.9-1056.9z"/>
			</g>
		</g>
		<path id="path22353" d="M-429-1536.2c-1.1,5.1-1.6,10.7-1.5,16.5c0.2,8.4,1.8,17,5.1,25.4c4.8,12.2,12.2,22.7,20.9,30.9
			c7.9,7.5,16.2,12.7,23.6,16.1c3.4,1.5,6.9,2.8,10.6,3.9c10.2,2.9,20.8,3.7,30.8,2.8c10.1-0.9,19.1-3.5,26.9-6.9
			c4.9-2.1,9.1-4.5,12.7-6.8c-5.2,3.2-10.8,5.6-16.6,7.3c-6.6,2-13.5,3.1-20.3,3c-3.6-0.1-7.1-0.4-10.6-1.3
			c-7.3,0.2-14.7-0.7-21.9-2.6c-4.4-1.2-8.6-2.8-12.5-4.7c-6.2-3-13.3-7.6-20.2-14.2c-8.2-7.7-15.4-17.7-20-29.6l0,0
			c-3.4-9-4.9-18.2-4.7-27.1c0.1-4.5,0.7-8.8,1.6-12.8L-429-1536.2z M-423.6-1536.2c-0.8,3.6-1.3,7.4-1.5,11.5
			c-0.4,9,1,18.4,4.4,27.6c4.4,11.6,11.4,21.6,19.4,29.2c6.2,5.9,12.6,10.3,18.3,13.2c4.4,2.3,9,4.1,13.9,5.4
			c5.7,1.6,11.6,2.4,17.4,2.7c-2.6-1.1-5.1-2.6-7.1-4.6c-0.3-0.3-0.7-0.7-1-1c-2.8-0.4-5.6-0.9-8.3-1.6c-5.5-1.4-10.7-3.5-15.5-6.1
			c-4.8-2.7-10.1-6.4-15.4-11.4c-7.5-7.2-14.3-16.6-18.5-27.8c-3.5-9.5-4.7-19.5-3.8-28.9c0.3-2.8,0.8-5.6,1.4-8.2L-423.6-1536.2z
			 M-418.2-1536.2c-0.5,2.2-0.9,4.6-1.2,7c-1.1,9.4-0.1,19.4,3.4,29.2h0c4,11,10.6,20.4,17.9,27.5c4.6,4.5,9.4,7.9,13.7,10.5
			c5.1,3,10.8,5.3,16.6,6.8c2.3,0.6,4.6,1.1,6.9,1.4c-0.5-0.8-0.8-1.5-1.1-2.4c-0.3-1-0.6-1.9-0.9-2.9c-1.3-0.2-2.6-0.5-3.9-0.8
			c-6.4-1.5-12.5-4.1-17.8-7.4c-3.5-2.2-7.3-5.1-11.1-8.7c-6.9-6.6-13.3-15.5-17-26.1c-3.5-9.9-4.3-20.4-2.6-30
			c0.3-1.4,0.6-2.8,0.9-4.1L-418.2-1536.2z M-412.9-1536.2c-0.3,1-0.5,2.1-0.7,3.2c-1.8,9.5-1.2,20,2.2,30.1
			c3.6,10.4,9.7,19.2,16.5,25.8c3.3,3.2,6.5,5.8,9.6,7.8c5.7,3.7,12.1,6.5,18.8,8.1c1,0.3,2.1,0.5,3.1,0.7c-0.1-0.4-0.2-0.8-0.3-1.2
			c-0.3-0.7-0.5-1.4-0.8-2.1c-0.3-0.7-0.4-1.4-0.5-2c-0.2,0-0.3-0.1-0.5-0.1c-7.2-1.6-13.9-4.5-19.6-8.6c-2.3-1.7-4.9-3.7-7.4-6.1
			c-6.2-6-12.2-14.4-15.6-24.3c-3.4-10.1-3.8-20.9-1.3-30.4c0.1-0.3,0.1-0.5,0.2-0.8H-412.9z M-407.5-1536.2
			c-2.6,9.3-2.5,20.1,0.8,30.3c3.2,9.8,8.9,18,15,24c2.1,2,4.1,3.8,6.1,5.2c6,4.4,12.9,7.5,20.2,9.3c-0.3-1-0.6-2.1-0.9-3.1
			c-0.2-0.7-0.3-1.5-0.4-2.2c-6.7-1.8-13-4.8-18.3-9c-1.4-1.1-2.8-2.3-4.2-3.7c-5.6-5.5-11.2-13.2-14.1-22.5
			c-3-9.4-3.1-19.5-0.4-28.2H-407.5z M-402.1-1536.2c-2.6,8.3-2.7,18.1,0.1,27.4c2.7,9.1,8.1,16.8,13.6,22.2c1.1,1,2.1,2,3.1,2.8
			c5.4,4.5,11.8,7.7,18.5,9.6c0-1.2,0.2-2.4,0.5-3.6c0.1-0.4,0.2-0.8,0.4-1.2c-6.8-1.8-13.3-5-18.4-9.6c-0.5-0.5-1-0.9-1.6-1.5
			c-4.9-4.8-10.1-12-12.7-20.7c-2.5-8.5-2.4-17.6,0.2-25.3H-402.1z M-396.7-1536.2c-2.5,7.4-2.8,16.2-0.5,24.5
			c2.3,8.5,7.3,15.7,12.2,20.4c0.2,0.2,0.4,0.4,0.7,0.6c5.4,5,12,8.5,19,10.4c0.7-1.6,1.6-3.1,2.6-4.6c-7.3-1.5-14.4-4.9-19.8-10.1
			c-0.2-0.2-0.4-0.4-0.6-0.6c-4.1-4.2-8.7-10.6-10.7-18.3c-2-7.5-1.7-15.6,0.8-22.3L-396.7-1536.2z"/>
	</g>
</g>
</svg>
