<?xml version="1.0" encoding="utf-8"?>
<!-- Generator: Adobe Illustrator 24.1.0, SVG Export Plug-In . SVG Version: 6.00 Build 0)  -->
<svg version="1.1" id="Layer_1" xmlns="http://www.w3.org/2000/svg" xmlns:xlink="http://www.w3.org/1999/xlink" x="0px" y="0px"
	 viewBox="0 0 200 200" style="enable-background:new 0 0 200 200;" xml:space="preserve">
<g>
	<path style="fill:#010101;" d="M120.688,157.817c-1.09,0.885-2.195,1.751-3.266,2.658c-4.743,4.018-9.958,7.282-15.584,9.923
		c-1.226,0.576-2.239,0.434-3.386-0.085c-2.732-1.236-5.163-2.982-7.752-4.457c-3.66-2.085-6.711-4.959-9.936-7.607
		c-0.325-0.267-0.585-0.629-1.026-0.737c-1.135-1.334-1.134-1.333-2.237-0.021c-2.934,3.49-5.783,7.056-8.827,10.447
		c-3.245,3.615-7.004,6.525-11.798,7.941c-6.89,2.034-13.97,2.509-21.076,2.701c-5.792,0.156-11.578-0.26-17.345-0.777
		c-3.688-0.331-7.323-1-10.865-2.16c-2.475-0.81-4.046-2.376-4.806-4.839c-0.746-2.417-1.208-4.869-1.195-7.409
		c0.026-5.06,1.993-6.881,7.021-6.45c5.603,0.48,11.065,1.838,16.612,2.672c9.014,1.355,18.039,2.603,27.183,1.558
		c5.038-0.576,9.761-2.062,13.517-5.671c1.592-1.53,2.904-3.349,4.454-4.928c0.924-0.94,0.679-1.464-0.312-1.988
		c-1.886-2.348-4.059-4.447-5.893-6.845c-4.474-5.848-8.542-11.959-12.101-18.406c1.531-0.355,2.377,0.24,3.19,1.642
		c3.985,6.87,8.472,13.394,13.835,19.291c5.682,6.248,12.151,11.62,18.829,16.723c3.13,2.392,6.602,4.364,10.177,6.093
		c1.364,0.66,2.598,0.824,4.098,0.103c5.13-2.467,9.874-5.484,14.352-9.002c11.775-9.25,21.659-20.131,29.002-33.223
		c0.763-1.361,1.595-1.952,3.082-1.641c-1.911,3.862-4.241,7.472-6.662,11.025c-3.507,5.147-7.314,10.057-11.625,14.563
		c-1.053,0.571-1.3,1.205-0.258,2.076c0.483,0.404,0.873,0.932,1.256,1.441c4.17,5.541,9.897,8.083,16.639,8.781
		c4.587,0.475,9.158,0.369,13.743,0.017c7.054-0.541,14.012-1.731,20.965-2.97c3.515-0.626,7.015-1.41,10.611-1.367
		c2.886,0.035,4.418,1.317,4.967,4.149c0.505,2.602,0.039,5.157-0.409,7.733c-0.695,4.001-2.869,6.33-6.862,7.375
		c-7.58,1.985-15.325,2.163-23.055,2.417c-6.258,0.206-12.502-0.283-18.705-1.255c-6.484-1.016-12.33-3.32-16.805-8.298
		c-3.275-3.643-6.378-7.442-9.558-11.171C121.813,156.591,121.812,156.592,120.688,157.817z"/>
	<path style="fill:#FCFCFC;" d="M148.633,123.321c-1.487-0.311-2.318,0.28-3.082,1.641c-7.343,13.092-17.227,23.973-29.002,33.223
		c-4.478,3.518-9.222,6.535-14.352,9.002c-1.499,0.721-2.733,0.557-4.098-0.103c-3.575-1.729-7.047-3.701-10.177-6.093
		c-6.677-5.103-13.146-10.475-18.829-16.723c-5.363-5.896-9.85-12.421-13.835-19.291c-0.813-1.401-1.658-1.997-3.19-1.642
		c-3.455-0.014-6.91-0.039-10.366-0.041c-8.534-0.006-17.068,0-25.602-0.003c-1.818-0.001-2.229-0.388-2.229-2.132
		c-0.003-20.609-0.003-41.217,0-61.826c0-1.688,0.424-2.104,2.123-2.109c6.826-0.02,13.652-0.034,20.478-0.05
		c2.03,0.13,2.033,0.13,1.968-1.899c-0.156-4.817-0.332-9.634-0.465-14.452c-0.051-1.855,0.004-1.935,1.912-2.292
		c2.553-0.478,5.121-0.874,7.685-1.29c6.64-1.079,13.273-2.188,19.768-3.992c10.955-3.042,21.259-7.673,31.353-12.813
		c1.21-0.616,2.298-0.643,3.511-0.036c3.042,1.52,6.102,3.005,9.182,4.448c10.44,4.893,21.236,8.728,32.619,10.759
		c5.702,1.018,11.417,1.959,17.124,2.948c1.704,0.295,1.802,0.418,1.747,2.153c-0.154,4.861-0.329,9.72-0.488,14.581
		c-0.066,2.024-0.058,2.024,1.97,1.878c6.609,0.018,13.218,0.038,19.827,0.054c2.276,0.006,2.551,0.279,2.551,2.58
		c0,20.343,0,40.686,0,61.029c0,2.138-0.316,2.46-2.412,2.462C172.429,123.303,160.531,123.312,148.633,123.321z M100.298,58.508
		c-27.912,0-55.824,0.008-83.735-0.028c-1.165-0.001-1.439,0.289-1.437,1.442c0.038,20.229,0.039,40.458-0.002,60.687
		c-0.002,1.185,0.32,1.426,1.453,1.426c55.824-0.029,111.647-0.029,167.471,0.002c1.164,0.001,1.439-0.288,1.437-1.442
		c-0.038-20.229-0.039-40.458,0.002-60.687c0.002-1.185-0.32-1.427-1.453-1.426C156.122,58.515,128.21,58.508,100.298,58.508z
		 M100.437,57.226c2.988,0,5.975,0,8.963,0c16.517,0,33.034,0.001,49.55-0.005c0.62,0,1.347,0.292,1.375-0.886
		c0.116-4.949,0.305-9.896,0.511-14.841c0.03-0.712-0.213-0.974-0.865-1.084c-1.596-0.268-3.179-0.612-4.777-0.865
		c-6.983-1.11-13.967-2.193-20.822-3.993c-11.341-2.979-21.961-7.743-32.395-12.972c-1.06-0.531-1.865-0.564-2.949-0.015
		c-10.416,5.268-21.051,10.004-32.382,13.004c-8.296,2.196-16.786,3.353-25.237,4.714c-1.104,0.178-1.468,0.535-1.413,1.67
		c0.222,4.645,0.401,9.294,0.479,13.944c0.02,1.172,0.385,1.356,1.451,1.354C61.428,57.217,80.933,57.226,100.437,57.226z
		 M56.651,123.332c3.119,5.511,6.588,10.565,10.384,15.392c4.989,6.345,11.052,11.591,17.186,16.778
		c4.421,3.738,9.248,6.811,14.33,9.531c1.09,0.584,2.046,0.678,3.216,0.101c4.908-2.42,9.456-5.355,13.758-8.752
		c11.343-8.954,20.874-19.46,28.056-32.039c0.174-0.305,0.555-0.562,0.365-1.012C114.886,123.332,85.837,123.332,56.651,123.332z"/>
	<path style="fill:#010101;" d="M164.361,57.168c-2.028,0.146-2.037,0.146-1.97-1.878c0.159-4.86,0.334-9.72,0.488-14.581
		c0.055-1.734-0.043-1.857-1.747-2.153c-5.707-0.989-11.422-1.93-17.124-2.948c-11.383-2.032-22.179-5.866-32.619-10.759
		c-3.079-1.443-6.14-2.928-9.182-4.448c-1.213-0.606-2.301-0.58-3.511,0.036c-10.094,5.14-20.398,9.771-31.353,12.813
		c-6.496,1.804-13.128,2.913-19.768,3.992c-2.564,0.417-5.132,0.812-7.685,1.29c-1.908,0.357-1.964,0.437-1.912,2.292
		c0.133,4.818,0.309,9.634,0.465,14.452c0.066,2.028,0.062,2.028-1.968,1.899c-0.172-6.225-0.562-12.442-0.607-18.673
		c-0.008-1.117,0.314-1.603,1.413-1.782c5.549-0.9,11.09-1.846,16.631-2.789c0.75-0.128,1.487-0.334,2.229-0.504
		c0.507,0,1.022,0.029,1.498-0.355c-0.21-0.366-0.413-0.729-0.625-1.086c-2.3-3.879-4.599-7.758-6.903-11.634
		c-0.423-0.711-0.728-1.415-0.478-2.29c0.535-1.873,1.48-3.369,3.504-3.827c1.996-0.452,3.838,0.351,5.019,2.205
		c2.811,4.414,5.611,8.837,8.343,13.3c0.608,0.994,1.158,1.358,2.146,0.606c3.651-0.881,7.135-2.254,10.615-3.633
		c6.737-2.669,13.318-5.683,19.741-9.037c1.048-0.548,1.985-0.489,3.022,0.034c9.059,4.564,18.242,8.841,27.922,11.958
		c0.645,0.208,1.269,0.504,1.966,0.509c0.945,0.695,1.653,0.634,2.204-0.532c0.398-0.843,0.962-1.608,1.463-2.4
		c2.369-3.747,4.715-7.508,7.125-11.228c1.091-1.684,3.986-2.543,5.417-1.546c2.388,1.663,3.652,2.98,2.202,5.928
		c-0.713,1.451-1.511,2.863-2.327,4.26c-1.639,2.807-3.317,5.592-4.997,8.417c0.594,0.188,1.068,0.4,1.599,0.28
		c3.926,0.962,7.941,1.425,11.916,2.111c2.512,0.434,5.013,0.933,7.527,1.354c0.842,0.141,0.959,0.605,0.934,1.337
		C164.756,44.494,164.562,50.831,164.361,57.168z"/>
	<path style="fill:#F4F2F2;" d="M70.064,148.588c0.992,0.523,1.236,1.047,0.312,1.988c-1.55,1.579-2.862,3.398-4.454,4.928
		c-3.756,3.609-8.48,5.095-13.517,5.671c-9.144,1.045-18.169-0.203-27.183-1.558c-5.546-0.834-11.009-2.192-16.612-2.672
		c-5.028-0.431-6.995,1.39-7.021,6.45c-0.013,2.54,0.449,4.993,1.195,7.409c0.76,2.463,2.331,4.029,4.806,4.839
		c3.543,1.16,7.178,1.83,10.865,2.16c5.767,0.517,11.553,0.933,17.345,0.777c7.106-0.192,14.186-0.666,21.076-2.701
		c4.795-1.416,8.553-4.326,11.798-7.941c3.044-3.391,5.893-6.957,8.827-10.447c1.103-1.312,1.102-1.313,2.237,0.021
		c-0.878,0.942-1.773,1.869-2.629,2.832c-1.308,1.473-2.669,2.943-3.801,4.515c-1.171,1.627-2.947,2.749-3.734,4.656
		c-0.212,0.514-0.787,0.622-1.148,0.983c-2.109,2.114-4.49,3.907-7.061,5.39c-2.213,1.277-4.793,1.6-7.246,2.202
		c-8.685,2.133-17.542,2.01-26.382,1.784c-4.705-0.12-9.458-0.239-14.075-1.119c-2.9-0.553-5.93-1.051-8.598-2.5
		c-1.742-0.947-2.902-2.396-3.536-4.371c-0.61-1.901-0.918-3.859-1.338-5.785c-0.609-2.792-0.272-5.673,1.129-8.138
		c0.86-1.514,2.589-2.337,4.52-2.46c3.316-0.211,6.536,0.421,9.771,0.946c7.207,1.169,14.354,2.706,21.664,3.225
		c3.443,0.244,6.878,0.574,10.33,0.455c5.671-0.196,11.209-1.066,15.88-4.568c1.317-0.987,2.617-2.163,3.568-3.667
		C67.836,150.653,69.044,149.68,70.064,148.588z"/>
	<path style="fill:#F4F2F2;" d="M120.688,157.817c1.124-1.224,1.125-1.225,2.189,0.022c3.18,3.729,6.282,7.528,9.558,11.171
		c4.475,4.978,10.321,7.282,16.805,8.298c6.203,0.972,12.447,1.461,18.705,1.255c7.73-0.254,15.475-0.432,23.055-2.417
		c3.993-1.046,6.167-3.375,6.862-7.375c0.448-2.575,0.913-5.131,0.409-7.733c-0.55-2.833-2.082-4.115-4.967-4.149
		c-3.596-0.043-7.097,0.74-10.611,1.367c-6.953,1.239-13.911,2.429-20.965,2.97c-4.586,0.352-9.156,0.458-13.743-0.017
		c-6.743-0.698-12.469-3.241-16.639-8.781c-0.383-0.509-0.773-1.037-1.256-1.441c-1.042-0.871-0.796-1.504,0.258-2.076
		c1.434,1.637,2.792,3.351,4.319,4.896c3.427,3.467,7.702,5.176,12.479,5.836c8.638,1.193,17.159,0.028,25.676-1.2
		c6.295-0.907,12.493-2.446,18.852-2.943c0.803-0.063,1.618-0.026,2.425,0.014c3.323,0.167,5.445,2.56,5.709,5.726
		c0.296,3.545-0.12,7.029-1.107,10.425c-0.875,3.01-3.035,4.595-6.019,5.489c-2.065,0.619-4.194,0.92-6.248,1.593
		c-1.496,0.49-3.166,0.501-4.766,0.616c-7.309,0.524-14.63,0.822-21.954,0.518c-3.678-0.153-7.42-0.196-10.99-1.083
		c-4.873-1.21-9.913-2.065-13.94-5.597c-2.007-1.76-3.703-3.793-5.651-5.579c-1.043-0.956-1.733-2.186-2.825-3.103
		c-0.744-0.625-1.144-1.641-1.791-2.404C123.274,160.653,121.967,159.246,120.688,157.817z"/>
	<path style="fill:#F4F2F2;" d="M68.647,30.346c-0.988,0.752-1.538,0.387-2.146-0.606c-2.733-4.463-5.532-8.886-8.343-13.3
		c-1.181-1.855-3.023-2.657-5.019-2.205c-2.024,0.458-2.97,1.954-3.504,3.827c-0.25,0.875,0.055,1.579,0.478,2.29
		c2.304,3.877,4.603,7.755,6.903,11.634c0.212,0.357,0.414,0.72,0.625,1.086c-0.476,0.384-0.99,0.355-1.498,0.355
		c-2.278-3.814-4.49-7.668-6.851-11.43c-2.706-4.311,0.111-8.693,3.882-9.226c2.292-0.324,4.461,0.242,5.814,2.318
		c2.87,4.405,5.647,8.87,8.459,13.312C67.853,29.045,68.247,29.698,68.647,30.346z"/>
	<path style="fill:#F4F2F2;" d="M144.599,33.356c-0.531,0.12-1.005-0.092-1.599-0.28c1.68-2.825,3.358-5.61,4.997-8.417
		c0.816-1.397,1.613-2.809,2.327-4.26c1.45-2.948,0.186-4.266-2.202-5.928c-1.432-0.997-4.327-0.138-5.417,1.546
		c-2.41,3.72-4.756,7.482-7.125,11.228c-0.501,0.793-1.065,1.558-1.463,2.4c-0.55,1.166-1.259,1.226-2.204,0.532
		c1.293-2.026,2.589-4.052,3.878-6.082c1.953-3.073,3.831-6.198,5.876-9.209c1.707-2.513,6.494-3.057,8.639-0.562
		c2.289,2.663,2.699,4.083,1.081,7.272c-1.937,3.818-4.284,7.397-6.461,11.075C144.798,32.888,144.707,33.127,144.599,33.356z"/>
	<path style="fill:#010101;" d="M100.298,58.508c27.912,0,55.824,0.007,83.735-0.026c1.134-0.001,1.456,0.241,1.453,1.426
		c-0.041,20.229-0.04,40.458-0.002,60.687c0.002,1.154-0.272,1.443-1.437,1.442c-55.824-0.032-111.647-0.031-167.471-0.002
		c-1.133,0.001-1.456-0.24-1.453-1.426c0.041-20.229,0.04-40.458,0.002-60.687c-0.002-1.154,0.272-1.444,1.437-1.442
		C44.475,58.516,72.387,58.508,100.298,58.508z M71.915,92.671c-0.721-2.81-1.351-5.278-1.987-7.745
		c-1.856-7.206-3.718-14.41-5.565-21.618c-0.131-0.51-0.151-0.98-0.902-0.954c-1.492,0.052-2.987,0.031-4.481,0.007
		c-0.522-0.008-0.726,0.149-0.81,0.702c-0.295,1.935-0.665,3.859-1.006,5.787c-1.846,10.433-3.693,20.866-5.539,31.299
		c-1.045,5.909-2.094,11.817-3.129,17.728c-0.241,1.376-0.079,1.546,1.339,1.549c2.39,0.004,4.78-0.021,7.17,0.014
		c0.736,0.011,1.089-0.095,1.234-0.972c0.95-5.711,1.985-11.407,2.998-17.108c0.422-2.373,0.857-4.743,1.286-7.114
		c1.173,5.12,2.177,10.212,3.132,15.313c0.163,0.873,0.493,1.213,1.416,1.136c1.144-0.095,2.307-0.08,3.454-0.004
		c0.88,0.059,1.354-0.238,1.777-1.032c2.12-3.979,4.312-7.92,6.483-11.872c0.581-1.058,1.176-2.107,1.764-3.161
		c-0.255,2.808-0.717,5.529-1.199,8.248c-0.891,5.029-1.788,10.056-2.694,15.082c-0.175,0.969-0.027,1.527,1.179,1.492
		c2.473-0.071,4.95-0.043,7.425-0.008c0.705,0.01,1.004-0.12,1.138-0.926c0.78-4.701,1.655-9.386,2.487-14.078
		c1.597-9.008,3.188-18.017,4.78-27.026c0.793-4.485,1.59-8.969,2.368-13.456c0.24-1.382,0.056-1.578-1.33-1.584
		c-1.11-0.005-2.222,0.045-3.328-0.017c-0.734-0.041-1.135,0.22-1.514,0.849c-4.249,7.033-8.53,14.046-12.806,21.062
		C75.402,86.977,73.741,89.685,71.915,92.671z M138.862,85.305c0.554-3.163,1.085-6.217,1.626-9.27
		c0.713-4.022,1.441-8.041,2.146-12.065c0.242-1.381,0.051-1.595-1.318-1.599c-2.39-0.006-4.781,0.042-7.17-0.025
		c-0.873-0.024-1.125,0.249-1.261,1.095c-0.603,3.739-1.3,7.463-1.961,11.194c-1.588,8.967-3.176,17.934-4.762,26.901
		c-0.964,5.448-1.932,10.896-2.886,16.346c-0.24,1.372-0.077,1.542,1.344,1.545c2.134,0.004,4.268,0.001,6.402,0.001
		c1.863,0,1.838-0.004,2.16-1.843c1.263-7.212,2.558-14.419,3.792-21.636c0.124-0.722,0.376-0.877,1.042-0.864
		c2.048,0.039,4.098,0.045,6.145-0.001c0.767-0.017,0.924,0.198,0.789,0.945c-1.323,7.328-2.592,14.666-3.932,21.992
		c-0.211,1.156,0.175,1.439,1.236,1.421c2.432-0.043,4.867-0.057,7.298,0.01c0.877,0.024,1.164-0.284,1.286-1.101
		c0.333-2.231,0.732-4.453,1.124-6.675c2.815-15.967,5.626-31.935,8.469-47.897c0.183-1.027-0.07-1.428-1.116-1.417
		c-2.518,0.027-5.037,0.032-7.554-0.007c-0.678-0.01-0.98,0.178-1.093,0.873c-0.493,3.025-1.032,6.043-1.559,9.062
		c-0.703,4.026-1.402,8.052-2.129,12.074c-0.072,0.401-0.007,0.963-0.752,0.953C143.803,85.285,141.378,85.305,138.862,85.305z
		 M45.8,81.382c1.323,0,2.646-0.018,3.968,0.009c0.497,0.01,0.813-0.097,0.889-0.647c0.406-2.946,1.298-5.839,1.085-8.854
		c-0.292-4.126-2-7.374-5.963-9.084c-5.265-2.272-12.536-0.88-16.698,3.067c-3.255,3.086-4.75,6.977-5.423,11.286
		c-1.068,6.827,1.063,12.244,7.018,15.986c1.225,0.77,2.453,1.536,3.669,2.322c1.434,0.927,2.274,2.263,2.648,3.914
		c0.55,2.434-0.297,4.735-0.766,7.045c-0.606,2.984-1.897,3.871-4.944,3.83c-2.395-0.032-3.34-1.112-2.966-3.489
		c0.39-2.48,0.808-4.957,1.285-7.422c0.19-0.981-0.111-1.348-1.078-1.341c-2.56,0.018-5.12,0.032-7.679-0.011
		c-0.657-0.011-0.918,0.218-1.007,0.827c-0.463,3.156-1.296,6.263-1.487,9.451c-0.313,5.221,2.037,9.835,7.267,11.209
		c7.011,1.842,14.592-0.49,18.514-7.526c1.68-3.014,2.169-6.338,2.71-9.643c1.099-6.719-1.08-12.062-6.893-15.791
		c-1.362-0.873-2.758-1.697-4.083-2.622c-1.686-1.177-2.477-2.875-2.547-4.909c-0.041-1.203,0.258-2.368,0.512-3.531
		c0.682-3.115,2.814-4.472,5.952-3.822c1.469,0.304,2.01,0.953,2.029,2.477c0.025,2.02-0.533,3.962-0.884,5.926
		c-0.2,1.119,0.181,1.374,1.162,1.347C43.325,81.357,44.563,81.382,45.8,81.382z M98.448,98.366c-1.28,0-2.561,0.031-3.84-0.013
		c-0.619-0.021-0.946,0.147-1.032,0.796c-0.389,2.952-1.137,5.846-1.394,8.822c-0.519,6.016,2.595,10.572,8.053,11.733
		c9.338,1.987,17.936-3.707,19.626-13.104c2.568-14.278,5.052-28.571,7.596-42.854c0.187-1.048-0.157-1.4-1.177-1.387
		c-2.474,0.032-4.951,0.057-7.423-0.015c-0.851-0.025-1.08,0.324-1.202,1.043c-0.685,4.028-1.392,8.052-2.099,12.076
		c-1.797,10.224-3.582,20.451-5.409,30.67c-0.544,3.046-1.958,4.15-5.016,4.125c-2.512-0.02-3.358-0.931-3.001-3.397
		c0.354-2.442,0.778-4.875,1.238-7.3c0.165-0.873-0.124-1.198-0.952-1.195C101.094,98.37,99.771,98.367,98.448,98.366z
		 M168.656,119.428c3.584,0,7.169-0.044,10.751,0.029c0.953,0.02,1.234-0.317,1.37-1.164c0.39-2.436,0.831-4.863,1.284-7.288
		c0.189-1.01-0.153-1.394-1.194-1.385c-3.925,0.035-7.851-0.023-11.776,0.039c-1.012,0.016-1.229-0.255-1.056-1.217
		c1.61-8.919,3.189-17.844,4.772-26.769c1.047-5.906,2.089-11.813,3.121-17.722c0.24-1.372,0.054-1.578-1.335-1.581
		c-2.389-0.006-4.779,0.019-7.168-0.014c-0.728-0.01-1.127,0.065-1.233,0.97c-0.213,1.814-0.627,3.604-0.946,5.406
		c-1.683,9.508-3.364,19.017-5.044,28.526c-1.214,6.871-2.429,13.742-3.634,20.615c-0.242,1.379-0.08,1.551,1.335,1.552
		C161.488,119.43,165.072,119.428,168.656,119.428z"/>
	<path style="fill:#010101;" d="M100.437,57.226c-19.504,0-39.009-0.009-58.513,0.024c-1.066,0.002-1.431-0.183-1.451-1.354
		c-0.077-4.65-0.257-9.298-0.479-13.944c-0.054-1.135,0.31-1.492,1.413-1.67c8.451-1.361,16.941-2.518,25.237-4.714
		c11.331-3,21.966-7.736,32.382-13.004c1.085-0.549,1.889-0.516,2.949,0.015c10.433,5.229,21.054,9.993,32.395,12.972
		c6.854,1.8,13.839,2.883,20.822,3.993c1.598,0.254,3.181,0.598,4.777,0.865c0.653,0.11,0.895,0.372,0.865,1.084
		c-0.206,4.946-0.395,9.893-0.511,14.841c-0.028,1.178-0.754,0.886-1.375,0.886c-16.517,0.006-33.034,0.005-49.55,0.005
		C106.412,57.226,103.424,57.226,100.437,57.226z M134.024,53.866c-0.537-1.89-0.951-3.486-1.452-5.054
		c-0.265-0.828-0.191-1.38,0.586-1.925c1.344-0.944,2.596-2.021,3.886-3.041c-0.026-0.145-0.052-0.289-0.078-0.434
		c-1.639,0-3.28-0.04-4.917,0.016c-0.852,0.029-1.291-0.229-1.56-1.085c-0.502-1.598-1.149-3.151-1.842-5.009
		c-0.587,1.569-1.215,2.84-1.525,4.183c-0.37,1.607-1.241,2.086-2.789,1.948c-1.316-0.117-2.651-0.024-3.977-0.024
		c-0.02,0.148-0.04,0.296-0.059,0.444c1.223,0.968,2.411,1.988,3.683,2.887c0.811,0.573,1.079,1.108,0.72,2.108
		c-0.541,1.507-0.89,3.083-1.414,4.962c1.688-1.131,3.121-2.027,4.477-3.027c0.671-0.495,1.144-0.448,1.788,0.02
		C130.892,51.809,132.293,52.702,134.024,53.866z M78.37,43.869c-0.02-0.15-0.041-0.3-0.061-0.45c-1.57,0-3.143-0.066-4.708,0.022
		c-1.093,0.061-1.571-0.373-1.875-1.386c-0.454-1.509-1.073-2.967-1.731-4.744c-0.72,1.941-1.346,3.515-1.88,5.119
		c-0.239,0.719-0.586,1.016-1.364,0.992c-1.675-0.053-3.353-0.016-5.029-0.016c-0.029,0.153-0.059,0.306-0.088,0.459
		c1.317,1.047,2.616,2.119,3.961,3.129c0.582,0.437,0.795,0.816,0.539,1.581c-0.543,1.623-0.942,3.294-1.49,5.265
		c1.714-1.148,3.148-2.057,4.52-3.05c0.619-0.448,1.059-0.438,1.675,0.006c1.387,1.002,2.834,1.919,4.528,3.053
		c-0.49-1.732-0.799-3.145-1.295-4.488c-0.463-1.255-0.291-2.092,0.901-2.846C76.18,45.751,77.244,44.76,78.37,43.869z
		 M100.777,43.404c-0.035,0.15-0.071,0.301-0.106,0.451c1.327,1.05,2.629,2.134,3.993,3.135c0.617,0.453,0.752,0.874,0.519,1.605
		c-0.522,1.637-0.94,3.306-1.477,5.241c1.636-1.093,3.054-1.959,4.373-2.955c0.754-0.569,1.284-0.491,1.998,0.03
		c1.319,0.964,2.707,1.833,4.357,2.936c-0.528-1.855-0.894-3.381-1.406-4.857c-0.342-0.986-0.203-1.604,0.694-2.221
		c1.302-0.895,2.495-1.951,3.734-2.938c-0.044-0.142-0.088-0.285-0.132-0.427c-1.656,0-3.314-0.039-4.969,0.017
		c-0.831,0.028-1.19-0.297-1.441-1.069c-0.519-1.599-1.154-3.16-1.849-5.029c-0.72,1.922-1.37,3.53-1.916,5.172
		c-0.23,0.692-0.569,0.936-1.279,0.919C104.173,43.377,102.474,43.404,100.777,43.404z M97.695,43.825
		c-0.035-0.139-0.069-0.278-0.104-0.416c-1.651,0-3.304-0.047-4.953,0.019c-0.883,0.036-1.264-0.295-1.528-1.12
		c-0.505-1.577-1.143-3.111-1.841-4.97c-0.709,1.898-1.348,3.426-1.839,5.001c-0.268,0.86-0.705,1.118-1.56,1.088
		c-1.626-0.057-3.256-0.017-4.884-0.017c-0.024,0.153-0.049,0.306-0.073,0.458c1.32,1.049,2.618,2.129,3.971,3.133
		c0.604,0.448,0.759,0.849,0.514,1.595c-0.532,1.622-0.935,3.286-1.472,5.23c1.737-1.156,3.206-2.091,4.623-3.098
		c0.544-0.386,0.914-0.379,1.455,0.004c1.434,1.016,2.919,1.959,4.625,3.091c-0.549-1.977-0.964-3.665-1.5-5.314
		c-0.23-0.709-0.051-1.074,0.502-1.488C95.01,45.989,96.343,44.895,97.695,43.825z"/>
	<path style="fill:#010101;" d="M56.651,123.332c29.186,0,58.235,0,87.296,0c0.19,0.449-0.192,0.707-0.365,1.012
		c-7.182,12.579-16.713,23.085-28.056,32.039c-4.302,3.396-8.85,6.331-13.758,8.752c-1.171,0.577-2.126,0.483-3.216-0.101
		c-5.083-2.72-9.91-5.793-14.33-9.531c-6.134-5.187-12.197-10.433-17.186-16.778C63.24,133.897,59.77,128.843,56.651,123.332z
		 M114.507,138.164c-1.246,2.087-3.008,2.929-4.88,3.55c-4.886,1.62-9.891,1.74-14.912,0.876c-3.14-0.541-6.236-1.328-8.355-4.258
		c0,2.508,0.088,4.855-0.026,7.192c-0.103,2.097,0.826,3.492,2.516,4.529c0.986,0.605,2.036,1.071,3.139,1.413
		c4.272,1.323,8.622,1.525,13.027,0.886c2.507-0.364,4.934-0.994,7.098-2.371c1.342-0.854,2.399-1.925,2.395-3.677
		C114.503,143.702,114.507,141.102,114.507,138.164z M100.487,142.064c1.71,0.018,3.415-0.078,5.101-0.361
		c2.494-0.417,4.944-0.999,7.062-2.473c2.506-1.745,2.484-3.879-0.03-5.628c-1.06-0.737-2.233-1.251-3.468-1.605
		c-5.802-1.663-11.612-1.67-17.413-0.003c-1.442,0.414-2.811,1.013-3.977,1.988c-1.891,1.582-1.88,3.36,0.03,4.931
		c1.035,0.852,2.241,1.39,3.499,1.819C94.272,141.749,97.355,142.082,100.487,142.064z"/>
	<path style="fill:#FCFCFC;" d="M71.915,92.671c1.827-2.987,3.488-5.694,5.14-8.406c4.276-7.017,8.556-14.03,12.806-21.062
		c0.38-0.629,0.781-0.89,1.514-0.849c1.106,0.063,2.218,0.012,3.328,0.017c1.386,0.007,1.57,0.203,1.33,1.584
		c-0.779,4.487-1.576,8.971-2.368,13.456c-1.592,9.009-3.183,18.018-4.78,27.026c-0.832,4.692-1.707,9.377-2.487,14.078
		c-0.134,0.805-0.433,0.935-1.138,0.926c-2.475-0.035-4.952-0.063-7.425,0.008c-1.206,0.035-1.354-0.523-1.179-1.492
		c0.906-5.026,1.803-10.054,2.694-15.082c0.481-2.718,0.943-5.44,1.199-8.248c-0.588,1.053-1.183,2.103-1.764,3.161
		c-2.171,3.952-4.362,7.893-6.483,11.872c-0.423,0.795-0.897,1.091-1.777,1.032c-1.147-0.076-2.309-0.091-3.454,0.004
		c-0.923,0.076-1.252-0.263-1.416-1.136c-0.955-5.101-1.959-10.193-3.132-15.313c-0.429,2.371-0.864,4.741-1.286,7.114
		c-1.013,5.7-2.048,11.397-2.998,17.108c-0.146,0.877-0.498,0.983-1.234,0.972c-2.389-0.035-4.78-0.01-7.17-0.014
		c-1.418-0.002-1.58-0.173-1.339-1.549c1.036-5.91,2.084-11.819,3.129-17.728c1.846-10.433,3.693-20.866,5.539-31.299
		c0.341-1.928,0.712-3.852,1.006-5.787c0.084-0.553,0.288-0.711,0.81-0.702c1.493,0.023,2.989,0.045,4.481-0.007
		c0.751-0.026,0.771,0.444,0.902,0.954c1.847,7.208,3.709,14.413,5.565,21.618C70.563,87.393,71.194,89.861,71.915,92.671z"/>
	<path style="fill:#FCFCFC;" d="M138.862,85.305c2.516,0,4.941-0.02,7.365,0.012c0.745,0.01,0.68-0.553,0.752-0.953
		c0.727-4.022,1.426-8.048,2.129-12.074c0.527-3.019,1.066-6.037,1.559-9.062c0.113-0.695,0.415-0.883,1.093-0.873
		c2.518,0.038,5.036,0.033,7.554,0.007c1.046-0.011,1.299,0.389,1.116,1.417c-2.843,15.962-5.654,31.93-8.469,47.897
		c-0.392,2.222-0.791,4.444-1.124,6.675c-0.122,0.816-0.408,1.125-1.286,1.101c-2.431-0.067-4.865-0.052-7.298-0.01
		c-1.061,0.019-1.447-0.265-1.236-1.421c1.34-7.325,2.609-14.663,3.932-21.992c0.135-0.747-0.022-0.962-0.789-0.945
		c-2.048,0.046-4.097,0.041-6.145,0.001c-0.667-0.013-0.919,0.142-1.042,0.864c-1.234,7.217-2.529,14.424-3.792,21.636
		c-0.322,1.839-0.297,1.843-2.16,1.843c-2.134,0-4.268,0.003-6.402-0.001c-1.421-0.002-1.584-0.172-1.344-1.545
		c0.954-5.45,1.921-10.898,2.886-16.346c1.587-8.967,3.174-17.934,4.762-26.901c0.661-3.73,1.358-7.454,1.961-11.194
		c0.136-0.846,0.389-1.119,1.261-1.095c2.388,0.066,4.78,0.018,7.17,0.025c1.369,0.004,1.56,0.218,1.318,1.599
		c-0.704,4.024-1.433,8.043-2.146,12.065C139.947,79.088,139.416,82.142,138.862,85.305z"/>
	<path style="fill:#FCFCFC;" d="M45.8,81.382c-1.237,0-2.475-0.025-3.712,0.008c-0.981,0.027-1.362-0.229-1.162-1.347
		c0.351-1.964,0.909-3.905,0.884-5.926c-0.019-1.524-0.56-2.172-2.029-2.477c-3.138-0.651-5.27,0.706-5.952,3.822
		c-0.254,1.162-0.554,2.327-0.512,3.531c0.07,2.034,0.861,3.731,2.547,4.909c1.325,0.925,2.722,1.748,4.083,2.622
		c5.813,3.728,7.992,9.071,6.893,15.791c-0.541,3.305-1.029,6.629-2.71,9.643c-3.922,7.037-11.503,9.368-18.514,7.526
		c-5.23-1.374-7.58-5.988-7.267-11.209c0.191-3.188,1.024-6.295,1.487-9.451c0.089-0.609,0.35-0.838,1.007-0.827
		c2.559,0.043,5.12,0.029,7.679,0.011c0.967-0.007,1.268,0.36,1.078,1.341c-0.478,2.465-0.895,4.942-1.285,7.422
		c-0.374,2.377,0.571,3.456,2.966,3.489c3.047,0.041,4.338-0.846,4.944-3.83c0.469-2.31,1.317-4.611,0.766-7.045
		c-0.373-1.651-1.214-2.987-2.648-3.914c-1.215-0.786-2.443-1.552-3.669-2.322c-5.955-3.742-8.085-9.159-7.018-15.986
		c0.674-4.309,2.169-8.2,5.423-11.286c4.162-3.947,11.433-5.339,16.698-3.067c3.962,1.71,5.671,4.958,5.963,9.084
		c0.213,3.015-0.678,5.907-1.085,8.854c-0.076,0.55-0.392,0.657-0.889,0.647C48.446,81.365,47.123,81.382,45.8,81.382z"/>
	<path style="fill:#FCFCFC;" d="M98.448,98.366c1.323,0,2.645,0.003,3.968-0.001c0.828-0.003,1.117,0.322,0.952,1.195
		c-0.459,2.425-0.884,4.858-1.238,7.3c-0.357,2.467,0.488,3.377,3.001,3.397c3.058,0.025,4.472-1.079,5.016-4.125
		c1.827-10.219,3.611-20.446,5.409-30.67c0.707-4.024,1.414-8.048,2.099-12.076c0.122-0.719,0.351-1.068,1.202-1.043
		c2.473,0.072,4.949,0.047,7.423,0.015c1.02-0.013,1.363,0.339,1.177,1.387c-2.543,14.283-5.027,28.576-7.596,42.854
		c-1.69,9.397-10.289,15.091-19.626,13.104c-5.458-1.161-8.572-5.718-8.053-11.733c0.257-2.975,1.005-5.869,1.394-8.822
		c0.085-0.649,0.413-0.818,1.032-0.796C95.887,98.397,97.168,98.366,98.448,98.366z"/>
	<path style="fill:#FCFCFC;" d="M168.656,119.428c-3.584,0-7.168,0.002-10.752-0.001c-1.415-0.001-1.576-0.174-1.335-1.552
		c1.205-6.873,2.42-13.744,3.634-20.615c1.68-9.509,3.36-19.017,5.044-28.526c0.319-1.802,0.733-3.592,0.946-5.406
		c0.107-0.905,0.505-0.98,1.233-0.97c2.389,0.032,4.779,0.008,7.168,0.014c1.389,0.003,1.575,0.208,1.335,1.581
		c-1.033,5.909-2.074,11.816-3.121,17.722c-1.582,8.924-3.162,17.849-4.772,26.769c-0.174,0.962,0.044,1.233,1.056,1.217
		c3.924-0.062,7.851-0.004,11.776-0.039c1.041-0.009,1.383,0.375,1.194,1.385c-0.453,2.425-0.894,4.853-1.284,7.288
		c-0.136,0.847-0.417,1.183-1.37,1.164C175.825,119.384,172.24,119.428,168.656,119.428z"/>
	<path style="fill:#C8C8C8;" d="M134.024,53.866c-1.731-1.165-3.132-2.057-4.474-3.031c-0.644-0.467-1.117-0.514-1.788-0.02
		c-1.356,1-2.789,1.896-4.477,3.027c0.523-1.879,0.873-3.455,1.414-4.962c0.359-1,0.091-1.535-0.72-2.108
		c-1.273-0.899-2.46-1.918-3.683-2.887c0.02-0.148,0.04-0.296,0.059-0.444c1.326,0,2.661-0.093,3.977,0.024
		c1.548,0.138,2.419-0.342,2.789-1.948c0.31-1.344,0.938-2.614,1.525-4.183c0.693,1.858,1.34,3.411,1.842,5.009
		c0.269,0.856,0.708,1.114,1.56,1.085c1.637-0.056,3.278-0.016,4.917-0.016c0.026,0.145,0.052,0.289,0.078,0.434
		c-1.29,1.021-2.542,2.097-3.886,3.041c-0.777,0.546-0.851,1.098-0.586,1.925C133.073,50.381,133.487,51.977,134.024,53.866z"/>
	<path style="fill:#C8C8C8;" d="M78.37,43.869c-1.126,0.891-2.19,1.882-3.397,2.646c-1.192,0.754-1.364,1.591-0.901,2.846
		c0.496,1.344,0.805,2.757,1.295,4.488c-1.695-1.134-3.142-2.052-4.528-3.053c-0.615-0.445-1.055-0.455-1.675-0.006
		c-1.373,0.994-2.806,1.903-4.52,3.05c0.547-1.972,0.947-3.642,1.49-5.265c0.256-0.764,0.043-1.144-0.539-1.581
		c-1.345-1.009-2.644-2.082-3.961-3.129c0.029-0.153,0.059-0.306,0.088-0.459c1.677,0,3.354-0.037,5.029,0.016
		c0.778,0.025,1.124-0.273,1.364-0.992c0.534-1.604,1.16-3.177,1.88-5.119c0.658,1.776,1.277,3.235,1.731,4.744
		c0.305,1.013,0.782,1.447,1.875,1.386c1.565-0.088,3.138-0.022,4.708-0.022C78.329,43.569,78.35,43.719,78.37,43.869z"/>
	<path style="fill:#C8C8C8;" d="M100.777,43.404c1.697,0,3.396-0.027,5.092,0.013c0.711,0.017,1.049-0.228,1.279-0.919
		c0.546-1.642,1.195-3.25,1.916-5.172c0.696,1.869,1.33,3.43,1.849,5.029c0.251,0.771,0.609,1.097,1.441,1.069
		c1.655-0.056,3.312-0.017,4.969-0.017c0.044,0.142,0.088,0.285,0.132,0.427c-1.239,0.987-2.431,2.043-3.734,2.938
		c-0.897,0.616-1.037,1.235-0.694,2.221c0.512,1.475,0.878,3.001,1.406,4.857c-1.65-1.103-3.038-1.973-4.357-2.936
		c-0.714-0.521-1.244-0.6-1.998-0.03c-1.319,0.996-2.737,1.861-4.373,2.955c0.538-1.934,0.956-3.604,1.477-5.241
		c0.233-0.731,0.098-1.152-0.519-1.605c-1.363-1.001-2.665-2.085-3.993-3.135C100.706,43.705,100.742,43.555,100.777,43.404z"/>
	<path style="fill:#C8C8C8;" d="M97.695,43.825c-1.351,1.07-2.685,2.163-4.063,3.197c-0.553,0.414-0.732,0.779-0.502,1.488
		c0.535,1.649,0.951,3.336,1.5,5.314c-1.705-1.132-3.191-2.075-4.625-3.091c-0.541-0.383-0.912-0.391-1.455-0.004
		c-1.417,1.007-2.886,1.942-4.623,3.098c0.537-1.943,0.94-3.608,1.472-5.23c0.245-0.745,0.09-1.146-0.514-1.595
		c-1.353-1.004-2.651-2.084-3.971-3.133c0.024-0.153,0.049-0.306,0.073-0.458c1.628,0,3.258-0.041,4.884,0.017
		c0.855,0.03,1.292-0.228,1.56-1.088c0.491-1.575,1.131-3.103,1.839-5.001c0.698,1.859,1.336,3.393,1.841,4.97
		c0.264,0.825,0.645,1.155,1.528,1.12c1.648-0.066,3.301-0.019,4.953-0.019C97.625,43.548,97.66,43.687,97.695,43.825z"/>
	<path style="fill:#BCBCBC;" d="M114.507,138.164c0,2.938-0.004,5.538,0.001,8.138c0.004,1.752-1.053,2.823-2.395,3.677
		c-2.164,1.377-4.591,2.007-7.098,2.371c-4.405,0.639-8.755,0.437-13.027-0.886c-1.103-0.342-2.152-0.808-3.139-1.413
		c-1.691-1.037-2.619-2.432-2.516-4.529c0.115-2.337,0.026-4.684,0.026-7.192c2.119,2.93,5.216,3.717,8.355,4.258
		c5.021,0.865,10.026,0.745,14.912-0.876C111.499,141.093,113.261,140.251,114.507,138.164z"/>
	<path style="fill:#BCBCBC;" d="M100.487,142.066c-3.132,0.016-6.215-0.316-9.198-1.333c-1.259-0.429-2.464-0.967-3.499-1.819
		c-1.91-1.572-1.921-3.349-0.03-4.931c1.166-0.976,2.535-1.574,3.977-1.988c5.802-1.666,11.611-1.66,17.413,0.003
		c1.235,0.354,2.408,0.868,3.468,1.605c2.514,1.748,2.537,3.883,0.03,5.628c-2.118,1.474-4.568,2.056-7.062,2.473
		C103.901,141.986,102.197,142.082,100.487,142.066z"/>
</g>
</svg>
