<svg xmlns="http://www.w3.org/2000/svg" viewBox="0 0 200 200"><path d="M171.3 25.7c-2.6-12-12-24-25.7-25.4V0h-2v0H54.2v.4A29.1 29.1 0 0029 25.7h-.2v2l-.2.1v144.5c.4.6 0 1.4.2 2h.1a30 30 0 0025.6 25.3v.4h91.1v-.4a29.2 29.2 0 0025.3-25.3h.4V27.7h.1v-2z" fill="#fa0800"/><path d="M49 166c11.5-17.3 24.3-34 36.2-51.2 3.8-6 18.3 7.3 22.6 9.8 3 3.4-6.2 1.8-7.8 2.1-1.7 0-.1-4.1-.4-5-.4 1 .5 5.2-1.5 4.7-2.7-.4-5.2-1.2-7.8-2-1-.6.9-3.2 1-3.8-.7.6-.8 4-2.3 3.3-2-1-4-2.2-6-3.5 18 12 17.5-3.2 14 23.2 0 .4-.2.5-.6.4-4.3-.5-8.5-1.8-12.5-3.2-1.8-.7 1.6-5.3 1.7-6.7-.6 1-2 6.8-3.1 6.2-3.2-1.7-6.5-3.2-9.4-5.3a52 52 0 0019.4 8.3c1.2.7 4.5 0 4.4 1.6-1 5.2-1.1 10.6-2.2 15.7a68.4 68.4 0 01-1 0c.8.4 1.6 0 1.2 1.2-1 3.3-1 6.8-1.5 10.1-.2 1.7-1.7 1.3-3 1.3-2.8-1 .8-11.2-2.2-11-1.2-.1-3.4-.8-3.2 1.2-.4 3.8 2 13.2-5 9-1.5-1.8 1.3-10.2-1.6-10.3-2.7-.3-2.7-.4-3.5 2.2-1.4.2-3-.3-4.2-1-.5-.2-.9-.3-1.3.2-.5.6-1.3.6-2 .4-4.8.2-9.9.6-13.7-3 .4.4 1.1.3 1 1-.9 1 .9 2-1 2.6-.2 0-.5.1-.7.3-.2.4-1 .5-.8 1.1.2.4 1.7.4 2 0 .6-.4 1.7-1 2.4-.5-1.2 2.5-5.9 2.5-7.6.6z" fill="#fdfcfc"/><g fill="#fdfcfd"><path d="M44.8 161.6c1-1.2-.8-7 .8-6.6.6.3.8-.3.5-.7-2.5-3.4-.5-9.6-1-13.9 0-2 2.5 2.3 3.2 2.5.6 1 0 2.4.6 3.5.2.5.3 1 .1 1.4a3 3 0 002.9 4c36.2-45.5 23.8-58.2 66-27.1-1.2-3.5-5.5-5.7-8.5-8-.6-.3-1-.7-1.4-1.4 0-.2-.1-.6-.6-.4-.2.3 0 .7 0 1.2-.5-3.4 0-7.7-5-5.8 2-1.3 1.7-2.1-.5-1.6-.4 0-.6.3-.6.7-.6-2-3.8-1.7-5.5-2.1-1.8-.3-3.4.6-5-.2-1.1-.2 0-1.2-.6-1.8-1.4-.6-2.7.9-4 1.5-1.3 1-1.3-2-1.5-2.8-.5-3.2 3.4-1.4 4.3-3-.2-1.6-3.4 0-4.7-.4-2.9 1.3 1.4 4.5-2.7 6.4l1.5-1.2c0-.4-.2-.6-.5-.8-1-.7-.8-2.2-2-2.6-1.6-.2-3-1.6-4.5-1.1-1.9.7-3.7 1.7-5.7 2.3-1 .3-.1 1.4 0 2-.3-.5-.3-1.6-1.1-1.6-4.8 2.2-9.8 4.2-14.7 6.3-.9.2-1.1.6-1 1-1.8-.4-4.3 1.6-6.2 2 7.5-2.9 6.1-1.5 3.9-8.8-1.4-.7-1.3 2.7-2 3.6-1 2.2-2.6-3.1-2-4.1.7-2-.4-3.8-1.5-5.5-.3-.5-1-2.3 0-2.2 1-1.6 3.6 1.6 3.8-.9-.8-2.2 1-13.3-1-12.8-1.7.4-1.8 3.3-3.4 3.7-.7-.9.3-2.2.9-3 .2-.2.7-.6.4-1-.5-.6-1.5.4-1.8.8 1-1.6-.7-5.4 1.1-6.2.4 0 .7-.3.7-.8l-.4-1c-.3-.3-1-.1-1-.9.2-2.6-1-13.3 1-14.1.6.1.2.7.1 1-1.3 1.7-.9 5.4 1.5 5.8 3.2.8 6.2 2.6 9.3 3.8.8.7 1.8-.5 1.4-1.3-.4-.6-.1-.9.3-1.1 1-1.5-.2-2.8-1.5-1.3-.8 1-2 1-3.2 1-3-1.1.8-4.2 1.4-6 .6-1.3.5-1.8-.8-2.4-2-.8-3.1-3-5.4-2.9-.5.3-.5.9-.8 1.3-1.2 1.7-2.8-.3-2.5-1.6.7-2.3-1.6-4.2-.7-6.6.2-8.6-2-18 1.9-26 4.9-9.6 16.9-7 25.7-7.5h45.8c2.3 0 0 4 2.6 4.2a16.8 16.8 0 01-6.9 3.5c-2.3.4-1.4 2.8-1 4.5-.5-2-2-.8-1.7.8.3 1.7-2 6.3.4 6.5-2.4-1.4-2.6 14.5-3.2 16.6.3 1.5 3.7.4 2.1-1.2-.7-.6-.3-2 .1-2.7.7-.6 2.2-.5 2-1.8-.2-4.6 2.1-2.4 1.7.7-.3.8-.6 1.4.4 1.7 2.3.6 3 3.1 4.9 4.2.3.2.2.5.1.7-.2 1 1 1.5.8 2.5.4 1 1.7 1.3 2.4 2 9.4-15.4 18.4-31.2 27.8-46.7.6-1 .6-1-.5-1.5a26.1 26.1 0 00-11-2.3c-27.6.2-55.2-.4-82.8.2C45.8 10 36.3 19 36.7 30.7c.3 47.1-.8 94.8.3 141.7 2.8-3.2 5.5-7.1 7.8-10.8zm56.4-51.1v0zm-54.7 21.9c.3.3.6 1 1.1.7-.2.1-.3.2-.2.4a40 40 0 00-.9-1.1zm1.5 1.9zM49 132zm1.4 5.1zm-.6-5.7zm28.8-22.3c.2 0 .4-.2.5-.3l-2.9 2.1 2.4-1.8zm-2.2 5.6zm-3-4zm-4.1 5.6l-3.8 3 3.8-3zm-6.9 5.5l.4-.3c-.8 1.2-2 2.4-1 3.2-1.6-1.7-3.7.3-5.1 1.3.7-.8 3.2-1.4 2.3-2.7-.5-1.3 1.3-1-.5-3 1 1.4 2.5 2.6 4 1.5zm-14.3-3.3c0-1 1.1-1 1.8-.7.9.3 1 .1 1.3-.7.3-2 2.7-3.3 2.6-5.3 1.2 1.6 6 3.2 4 5.7-.3.3-.4.6-.4 1-1.3-2.7-3.1-4.8-3.5-.3 0 .2 0 .2-.3.3-1.8.5.9 1.4-.1 2.4-.5-.2-.4-.7-.7-1-1.4-.8-1.5 1.7-2.6 2.2-1.8.9-2.4-2.4-2.1-3.6zm64-82.8h-.2a5.5 5.5 0 01.1 0zm11.1 0c-.5 1-.8 2.9-2.1 3-2.5 0-4.5-1.3-6.6-2.5 1.3.3 2.4.4 3.4-.8.8 2 3.6 3.8 4.3.8.2-.4.3-1.4 1-1.1.2.1.1.4 0 .6zm-1-15h.2-.3zm2.9 18.7l.3.1-1.4-.4c.4 0 .5 0 .7-.3 0 .3 0 .4.4.6zm0-1.5l2-5.2-2 5.2zm3.8 3.3zm-1.2-9.8l3-6.9-3 6.9zM123.3 18c0-1.2-.8-1.9.8-1.8h15.2c5.7-.3 4.7 4.7 1.6 7.5-.7 1.6-1.8 1.5-3.2 1.4-2.4.2-1.7 1 0 1.7-1.5-.5-5.7-3.9-7-2.4-1.3-2-5.6-2.7-8-3.5 1-.3.3-2.1.6-2.9z"/><path d="M163.2 171c.4-46.5 0-93 .1-139.6.2-6.2-2.2-12.3-6.5-16.8-1-1-1.2.9-1.7 1.5-4.3 8-10.4 16.4-14 24 2.3-1.6 3.8-4.7 5.1-7.2 0-.2.1-.5.4-.4 1.6.4 4.8-5.5 6.1-6.8 1.7-2 1.9 5.1 2.3 6 .6.5.4 1 .2 1.4.4 1.2.4 2 .6 3.2-.4-.2 0-1-.7-.7-.5 2-.2 4.3-.2 6.3.5.8.8-.3.5-.7.3 1.5 1.4 2.4-.6 2.8-2 .9-2.7-2.3-1.6-3.7a1 1 0 000-.7c-.5-.3-1-.8-1.5-1-.5-.1-1-.2-.6-1-3.4-6.7-5.5.4-8.3 2.8 1.4-1 1.6-2.9 2.7-4 .1-.2.2-.4 0-.6-2.3.9-3.3 4-4.8 6-6.7 8.5-11.8 18.7-17.5 28.2-.4 1.1 1 .1 1.2-.3-1.3 1.2-.8 3.5-.8 5.3.2.9 1.8 1 1.1 2-.2.3-.2.7 0 1 3.5 4.2 8.6-1.4 12.7-2 1.8-1.2-4.6-9.4-6-10.6.8.4 1.3 2 2.2 1.4 3-2 5.7-4.5 8.7-6.7l-.2.5c.3.4 0 1.3.5 1.4.6 0 1 .5 1.4.6.4 0 .3.2.3.5 0 .7-.1 1.6.5 2.2.4-.2.2.4.4.4.6-.3.2-.8.3-1.2v.9c.1 1.2 1.1.3 1-.5-.4-1.1 1-3.3-.6-3.6 1-.4 1.7-.8 1-1.8-.4-.9.9-.7 1.3-1V58c1.4 3.5 6-.8 6.9-2.6-.2 28.3 0 56.6 0 84.9-1.7 24 8.5 46.2-26.2 43.2-12.4.4-25-.2-37.4.1-2.7 0-5.8.1-7-2.8-1-1.3-1.4-1.5 0-2.6.3-.3.7-.7.3-1.3-2.3-1.1-3.1 1.3-4 3-.2.4.1.8.5 1.1.4.5 2.9 2.1 1.7 2.5-2 1.2-10.6-5.9-6.6 0-11.5-.1-29 2.8-31.2-12.4-1 2.2-6.5 8-5.2 10 3.8 6.4 10.4 9.9 17.7 10.8 28.1.2 56.5.2 84.6 0l.1-.1c11-.7 20.1-9.8 20.8-20.7a.6.6 0 01-.2-.4c0 .1 0 .2.2.3zM140.6 49.3l.3.5-2.4-2.2c-.2-.1 0 0 0-.1.4-.3.8-.2 1.2 0 1.1.5 1.8-.4 2.2-1.4 0 0 .2-.3.3-.2 3.2 1.5 2 .6.5 3-.6 1.3-1.4-.7-2.1.4zm2.4 10.4zm-.5-8.3c.7.6.6 0 .7-.5 1 .4 1.4 1.6 2.2 2.2.6.4.5.6-.1 1l.1.3-2.9-3zm1.6 7.4l1.3-1-1.3 1zm1 3.8c0-.5 0-1.9.7-1.2-.6.1-.5.8-.7 1.2zm2.8-4.8l-.4-.7.5.7zm-.4-1.5c-.2.2-.3.3-.2.5l-.4-.5c.8.3 1.5-1 2.3-1.4l-1.7 1.4zm7.6-6c-1.2.9-2.8 2-4.3 3.3.3-1-1-.2-1.5-.2 1.5-1.9 4-2.4 5.7-4.2 0 .5-.3.9.2 1.2h-.1z"/></g><path d="M58.7 163.3c2.8.8 5.8.1 8.5.2 2.5 1 1.8-1.4 3.1-.7 1.4 1.4 5 .3 4.9 2.6 0 3-.3 10.1 2.6 11.4 1.5.2 3.3-.4 4.6.4-1.7 5-2.2 1.7 1.3 5.9.8 1.5-3.2 1-3.9.2-2-1-6.7-3.6-2.7.6-11.8 1.7-21.9-5-31.3-11.4-.5-.4-.6-1-.1-1.9 1.1-.9 2.6-5.9 4.3-4.2.8 1 2.4.4 3.5.5 1.4 0 2-1 3-1.6.3-.8 1-2.3 2-1.4 3.6 2.5 7.5 4.4 11.6 6 1.3 1.7-3 8-3.2 9.8l3.5-8.6c.3-.7.7-.8 1.7-.4A60.3 60.3 0 0159 164c-.3-.1-.6-.4-.2-.8z" fill="#93d8fe"/><path d="M86 54c-1.9 1-3 6.8-5.3 5.7l-9.4-12.1c-.7-1-.7-1.1.4-2.1 14-8.8 10-7.3 16.1 6 0 .8 2.6 4.7.8 4.1-.9-.4-1.5-1.5-2.6-1.6z" fill="#92d7fe"/><path d="M112.9 128.3l5 3.7c-.3.4.2.5.3.6 0-.1-.6-.2-.3-.6.8 0 1.5 1.8 2.2 1 1.2-1.3 1.8-3.1 3.2-4.4 1.5-.2 2.7.4 3 2 .3 1.7 2 3.3 1.2 5-.8 1.2.4 3-1.3 4-2 2.2-3.7-5.3-4.4-6.7.1.7-.5 2.2-1.4 2l-.4.1c0 .3.2.3.3.3 1.1.7-.5 2.2 1.5 2.5-.1-.8.2-1.4 1-1.9.9 1 1 2.4 1.6 3.5.9 1.7-3.3 2.4-4.4 2.5-.2-.6 0-1 .6-1 1 0 1.5-1 2.3-1.2-.6-.5-1.2.1-1.9-.1-.7-.3-1.3-.7-2.1-.3-.9 0-1.7.7-2.6.5-1.1-.1-2.1 0-2.7 1.1-.2.4-.5.6-1 .5-.8-.3-.4 1.2-.1 1.6 0 .2.3.4.2.7-.7.5-2 .6-2-.5-.1-3.6-1-7-1.3-10.5.6-.8.8-.7 1.5.4.6-1.2-.9-2.6 1.2-2.6-.5-.8-1.3-1.2-2-1.8-.4 1 1.2 3.2-.6 3.3-.7-1.8-1.6-8 1.8-4.8 0 .8.7 1 1.2 1.4.3.2.2-.3.4-.3z" fill="#fcfbfd"/><path d="M94.2 66.3c.3 0 .4.5.8.5 2.1 1 .8 2.1 2 3.4 1.9 1.9-.8 2.5-2 3-.8.5-2.3 2.2-3 1.3-1.2-1.8-2.6-3.3-3.6-4.8L97.8 82c-1.5-2-4-4.8-5.2-7 1.7-1.3 8.2-5.8 9.1-2.1-.4 2.7 2.8 7.5-1 8.5-1.8-1.7-2.2-5.1-3.5-7.4 1.1 2.5 2 5.1 3.3 7.6.5.8-.5 1.4-.8 2.2-.8 1-2.9 0-3.3-1.2-.7.4.1 1.3-.5 1.6-.3.1-.6-.1-.9-.4-1-2.5-2.9-4.3-4.8-6-.2-1 .7-1.2 1-1.6-2.3 3.1-2.2-1.3-4-2.2-.5-.3 0-.7.2-1 .1-.3.2-.6.6-.5l1.6 1.8c-.2-1.3-1.3-1.6-2.2-2.4 0-.3-.3-.4-.2 0 0 .5.5 1.4-.5 1.5-1.5-1.3-.5-4.5.8-5.8.1-.9-.5-2 .4-2.6.4.1.4.5.4.8-.1 3 2 5.8 5 5.8 1.5.7 1.3-4.3 2.7-.6-.3-1-1.2-2-1.5-3.3-.1-.2-.2 0-.3 0-.7-.2-1-1.5 0-1.4z" fill="#f7fbfe"/><path d="M117.8 124.7v-.2c1-1.8-6.7-12.8-4.4-14 .4-.2.4-.5.3-.9-.2-1.2 0-1.4 1.5-1.8.9 0 1.7-.8 2.4-.4 2.7 4 6 7.5 8.6 11.5-.4 1.8-5.1 3.4-6.2 4 .9.3 6.2-4.4 6.5-2.5-1.3 1.7-4 2-3.8 4.6-.1 1-1 2 0 2.9v.3c-1.7-.7-3.3-2.4-4.9-3.5z" fill="#fcfcfe"/><path d="M44.8 161.6l-.1-7.4c.6.1.8.7 1.4.7-.4-1-1.6-1.3-1.4-2.6l.1-12.9c.3-1 1.7 1.4 2.2 1.7 1.1 1.2 2.4 2.2 2 4.1-.2.3.1.7.3 1 .2.7.3 1.1 0 1.8-.6 1.3.6 3.1 2 3.3.3 0 .5.1.6.5-2.3 3.3-4.5 6.7-7 9.8z" fill="#95dcfe"/><path d="M123.8 75c.5.8 2.3 1 1.2 2-.8.8 1.7 2.2 2.3 2.5-.5 1.5-4.1 1.9-5.5 2.9-1.3.6-1.3-1-1.8-2 .2.8 1.3 2.2 0 2.7-1.4.2-9.8 5.1-8.5 1.5 1-2 3.2-3 5-4.2 0-.5.6-3.2 1-1.6 0 .3-.2 1.1.2 1.2.6-.3.1-1.6 0-2.1-.5-.8 0-1.8.8-2 .8-.2.3 1.2.5 1.6.2 1.6 1.5.8 2.5.4 1.2-.5 1.2-.5 1-1.8 0-.7.3-1.4.3-2 0-1 1-1 1 0v.9z" fill="#95dbfd"/><path d="M116.7 80.5c-1.7 1.6-4.7 2.4-5.2 4.9 0 .7.6.1.8.3 0 1-1 .4-1.7.4-.7-.4-1-1.2-1.7-1.8-.7-1.3-3-1.3-3-3.1.1-.3.5-.3.8-.2 1 .3 1-1 2-1.4 1-.6.5-2 1.3-2.8 1-.2 1.7-1.1 2.7-.9 1.4.4 4.4 1 3.5 3-.7 1.2.3.7.5 1.6z" fill="#a6dcfa"/><path d="M123 59c-1.5 2.4-2.7 5-4.3 7.3-1 .5-2-1.3-2.6-.1-.3.6-.7 1.1-.4 1.8.4 1-1 2-1.9 1.5-.8-2.4 1.4-10 4-10.9 1.4-.4 2.6-2.8 3.8-1.3.4.5 1.5 1 1.4 1.7z" fill="#fdfcfe"/><path d="M94.2 66.3c-1.3.7 1.3 2 1 3.3 0 .9-.8 1.5-1 2.3 0 .4-.5.3-.7.1-.7-.7-1.5 0-2.2-.2-2.1-1.7-3.8-4-3.3-6.8-.2-.2-.2-.5 0-.6.4-.6.3-1.2.3-1.8 2 1.2 4 2.3 5.9 3.7z" fill="#fafcfe"/><path d="M106.4 73.3l4.3 2c0 .3-.4.4-.6.3-2.2-.1-.3 3.2-3 2.8 2.4.7.4 2.7-1.1 2.8-1.5.7-.5-2.3-.6-2.8-.3.7.2 2.8-1 3-2.4.2-1.9-3-2.3-4.6 0-1.7-1.6-4.6 1.4-4.6 1.6-.3 2 3.8.6 4.3-.7.4-.3 1-.2 1.5.8-1.4 2.6-2.5 2.3-4.4 0-.1 0-.3.2-.3z" fill="#f7fcfd"/><path d="M106.4 73.3c.8 2.3-1.9 3.8-2.8 5.7.4-1-1.1-2.3.3-2.7.8-.3.9-.8.7-1.5-.2-.9.2-2.6-1.3-2.2-3-.2-.4 5.7-.5 7.5.2.6 1 1.2 1.7 1 1.2-.8.1-2.9 1-4 .6 1-1 4.1.5 4 .3 1.8 2.4 1.7 3.1 3.1-.3.2-.6 0-.9-.2-2.9-2.2-5.7-1.2-8.7-.3 1.8-2-.4-4.1-1-6.2l.2-.2c.6.7 1.3 4.7 2.3 3.6.1-.2.2-.4.5-.4.9 0 1-.5.8-1.1-.8-2.2.4-9-3.3-7.4-.1 0-.2-.1-.2-.3.7-.5.8-1.3 1.2-2l6.4 3.6z" fill="#b3dff1"/><path d="M112.5 69.7c-2.5-1.4-8.2-2.8-9-5.5.3-.6.2-1-.4-1.2-1-.3-1.4-1.2-2.3-1.7-.7-.6.1-1.6.7-2.1 1-1 1.3 1.4 2.5 1 1.2.4-.7 1.6.6 1.9.6.3 1.7 1 1.2 1.8-.5.5-.7-.2-1.2-.2 0 1 1.6.9 2.3 1.6.2.3.2 0 .2-.1.2-1 .6-.8 1.1-.3.6.3 1.3.3 1.9.6.2.1.3-.1.5-.2.5-.4 0-1 .3-1.6.4-1 1.1-.2 1.2.5.2.7-.6 1.3-.4 1.9.6 1 1.1 2 1 3.3 0 .1 0 .4-.2.3z" fill="#fdfdfd"/><path d="M88.3 62.6c.9 1-.2 1.5-.3 2.4-.7.9.2 2-.3 2.8-1.2.2-1.8-1.5-2.5-2.2-5.9-6.3-2.8-7.8 3.1-3z" fill="#95d5fc"/><path d="M145.5 35.8c-3.1 2.2-3.7 7.3-7.2 8.7.9-1.5 1.6-3.1 2.7-4.5.8 0 1-.7 1.3-1.2 1.3-2 3-4 3.8-6.4.2-.3.3-.7.7-.2.5.7 1.2-.9 1.4-1.2l4.3-5.3c-.1 2.5-2.9 4.6-4.1 6.7-1 1.7 6.7 5.1 5.7 7-2-.8-4-3.8-6.2-5.2-1.2-.9-1.4 1.4-2.4 1.6z" fill="#d0e2e2"/><path d="M123 59c-.5-.8-1.4-1.3-2-2-.6-.5-.5.6-.9.5a20 20 0 00-11.2-3.2c-1.3-.1-2.5-1-4-.5-1 0-4.4-1-2.2-2 1.3 1.6 2.8.3 4.4.5 1 0 1.2 0 1.2-1.1.2-.8.1-5 1.2-4.2.3 1.2-1.3 6 .3 5.8.4-.2 1 0 1.3-.4 0-.3 0-.8-.3-1-.9-.5-.5-2.5 0-3.2.1 1.3.2 2.6.8 3.9-1 1.6 6.5 2.3 7.8 3.6 1.3.4 2.2 1.6 3.5 2 .4.1.2.6.4.8l-.3.5z" fill="#c6e8fb"/><path d="M45.7 170.6c-1.3 2.2 9.5 7.2 11.4 8.5 2.9 2 7 2.6 9.4 4.7-1 .3-1.9.2-2.8.2.1-.7.7-.2 1-.3-6.4-2.9-12.7-6-18.5-10.2-.3.7.3 1.2-.2 1.7-.6-1.3-1.4-3.4-.3-4.6z" fill="#cfe0f4"/><path d="M142.3 191.8h1c-27.9.9-58 .4-85.6.2 28.2-.2 56.5.3 84.6-.2z" fill="#a40000"/><path d="M122.8 76.2c.4 1 .2 1.5-.8 1.8-1 .2-2 1.4-2.9.6-1-.7 0-1.9-.6-2.6 2.5-1.3 3.3-3.9 4.7-6 0 .4.4.8 0 1.2-.3.8.7 2.1-.7 2.3-1.2.2.4 2.1-1.6 2.5-.6.2-.1.8.3.4.5-.3 1-.7 1.6-.2z" fill="#e7f4f7"/><path d="M114 69.3c1 .2 1.6-.5 1.3-1.5-.2-.5.6-2.2 1.2-2.4.8 0 1.4.8 2.2 1-1.8 2.4-2 6-5.7 3.4 0-.2.3-.3.4-.2.5.3.4-.2.6-.3z" fill="#d0e8f0"/><path d="M100 69.7c.4 1.7-1.5 2.6-3 2.6.1-.6.9-1.2 0-1.7-.5-.3-1-1-1-1.6.3-1.1-.4-1.4-1-2.2 1.7.8 3.4 1.8 5 2.9z" fill="#fafcfe"/><path d="M85.7 60.8c-1.2 0-2.1-1.6-3.4-.5-1 .8 4.4 6.8 5.4 7.5-.7.5-.9 1.4-1.4 2-.2-.2-.2-.5 0-.7.2-.6 0-1-.3-1.4-1.8-2-3.1-4.6-5.2-6.2-.2-.3-.6 0-.9-.2-.1-.5.4-.7.6-1 .1-.3 0-.6.3-.8 1 .7 1.3-.3 1.9-.9l3 2.2z" fill="#b8e3fd"/><path d="M86 54c.5-.3.7 0 1 .3l2.1 1.5c-.3-1.6-1.3-2.7-1.4-4.1 1.7-1.3 1.4 3.8 3.6 2.6.6-.2 1.3-.5 2-.3.3.5-.3.6-.4.9-1.5.9 4 3.8 2.6 5.2-1.5-.7-1.8-2.6-3.2-3.4-.4-.4-.8-.5-1.2-.1-.7.6-1.3-.4-2-.5l-3-2.1z" fill="#b9e8fd"/><path d="M116.7 80.5c-.4-.1-.5-.6-1-.4-.3 0-.6-.3-.2-.6.5-.3 1-1.6.3-2-.7-.1-1-.9-1.6-1.2.5 0 1 0 1.5.3.8.2 1.5-.6 2.3-.4-.6 1.2.4 2.3.4 3.6.1.4-.4.6-.8.6-.8.1-.4-1.4-.2-2-.6.7-.4 1.5-.7 2.1z" fill="#daf3fc"/><path d="M103.8 64.2l-.1.9c-2.4-1.5-5.5-2.5-7.2-4.6 1-.5 1.9 1 3 .4 1.4 1 4 1.4 4.3 3.3z" fill="#a4d4e7"/><path d="M114 69.3c0 1-.7.3-1 .5l-.5-.1c-.2-1.2 0-2.6-1.2-3.5 0-.5.7-1.5.7-2s.2-.7.6-.9c.9.1 1.2.5 1 1.2-.4 1.3.3 2.4.2 3.7 0 .4-.1.8.2 1.1z" fill="#abe1fa"/><path d="M106 81.2c.6-.2.9-.8 1.6-.9.5 0 .6-1.7-.3-1.5-.3 0-.6.1-.6-.3.3-1.4 2 .6 1.8-1.3-.1-.7.3-1.2.5-1.8.4-.7 1.2.3 1.7-.2l.3.2c.2.4.8.1 1 .6-1.8 2-3.1-.3-3.3 3.8-1.4 1-.6 2-2.7 1.4z" fill="#b3dff1"/><path d="M56.8 8.2c-.6.5-1.4 1-2.3.7-1 .4-2.1 1.2-3.3 1.3-1.8 1-3.9 1.3-5.3 2.8-.5.5-1 .7-1.6.7 3.5-3.2 7.9-5.1 12.5-5.5z" fill="#feeacd"/><path d="M96.5 60.5l.3.6a74.6 74.6 0 01-7.6-5c.8-.1 1.4 1.1 2 0 .2-.4.5-.2.8 0 1.6.9 2.2 2.8 3.5 3.9.5-.2.8 0 1 .5z" fill="#f6fcfc"/><path d="M110.1 126.3a2 2 0 00-1.1.9c-.3.1-.3-.4-.6-.3-.3.1-1.2.2-1-.4 1-.8 1.2-.9.4-1.9l2.3 1.7z" fill="#dbe9e5"/><path d="M122.3 128.2c.6 0 1 .1 1 .7-.4.8-1 1.3-1.6 2 0-.3.2-.6 0-.9-.5-.8 1-1 .6-1.8z" fill="#ee2820"/><path d="M112.9 128.3c0 .3.4.4.4.7-.6 0-3.2-1.3-2-1.8l1.6 1z" fill="#fdfdfe"/><path d="M89.8 113.5c-1 .2-2.1-.5-3.2-.2 1.1-.6 2.2-.3 3.2.2z" fill="#fed4b3"/><path d="M47 168.6c-.3.8-.7 1.5-1.3 2 .3-.7.7-1.4 1.3-2z" fill="#cfe0f4"/><path d="M112 76c-.3-.3-1 0-1-.6a7 7 0 011.7.5c-.2.3-.5.1-.7.1z" fill="#f7fcfd"/><path d="M163.2 171.2c-.7-.3-.6-.7-.2-1.3.3.4.1.8.2 1.2z" fill="#fefdfe"/><path d="M57.2 16.5c5-1 10.4-.3 15.6-.5 1.5 1.7 2 4.3 3 6.4.5 1.6.5 1.5-1 2.2a74.8 74.8 0 00-13.6 7.9c-1.4 2.2-8.1-9.4-9.8-10.8-.6-.7-.5-1.2.3-1.6 2-1 3.5-2.6 5.5-3.6z" fill="#98d9fe"/><path d="M44.8 30.5c.4-1.6.3-3.5 1.2-5 1.8.4 2.5-2.3 4.5-1.6 1.3.1-.5-1.7.8-1.9 3 3 5.5 7 8.3 10.5.5.7.5 1-.3 1.6a66.8 66.8 0 00-11.6 11.4c-.4.8-1.7.5-2-.3 0-.9 1-1 1.4-1.5-.7.2-2.3 1.4-2.3 0 0-4.4-.2-8.8 0-13.2zM58.5 68.2c.7-.7.3-2.3-.7-1.3-1 1.3-2.4 1.6-4 1.4.2-1.3 6-12.6 7.3-11.2 1.8 2.4 14.8 9.2 12.5 11.6a38.6 38.6 0 00-4.8 9.5c-.3 1-1.4.5-2.2.9-1.6 1 1 2.2-.2 3.3-1.3.5-1.3-.4-1.8-1.3-.6-2.4-4.5.2-4-2.8 0-1.4-1.3-2.4-1.5-3.8-.6-2 .9-2 1.9-1.1l.6-.1c.8-1 1.6-.4 2.5 0 .2-1.5.4-1 1.6-1.2.6-.2 1 0 1.4.5.2.3 1.7 0 2-.3 0-.6-.7-1.4-1.2-1.7-1.6-.5-1.2-2.5-1.5-3.9-.2-.7-1.5-.3-1.7-1.3-.2-.5-.8-.4-.8 0-.5 1.4-.1 2.5 1 3.4 1 1-.1 3.6-1.5 1.8-.2-1.8-2.4-1-2.7-2.8.3 3-3.4 2.4-2.2.4z" fill="#94d8fe"/><path d="M66.5 78.8c.7-.4 1.9.3 2.2-.8.7-2.1 1.6-4.2 2.7-6.2.2-1.6 3.5-3.7 1.9-5-4.1-3.2-8.3-6.1-12.3-9.4-.4-.3-.5-.4-.7.1a73 73 0 00-6.5 10.8c-.3 0-.5-.2-.6-.5 2-3.2 3.2-7.1 5.8-10 .7-.7.6-1.1-.2-1.7-1-1.4-14.1-9.2-11.3-9.8 4.3 2.8 8.3 6 12.4 9.2.3.3.6.3.8-.1 2.4-3.1 5.2-5.9 8.3-8.2.7-.5.7-.7.2-1.4-2.8-3.6-5.7-7.2-8.4-11-1.5-1.3-3.8 2.4-5.2 3.2-1.3.6-7.8 9.4-8 7.2 3.4-4.2 7.1-8 11.5-11.2.8-.7.8-.7.2-1.5-1.8-1.5-7.9-12.2-9.4-10.2-.6.4-1.4 1.7-2.2 1.4 0-2.1 7.4-6.9 9.5-7.2-.8 1.5-7 3.8-5.7 5C53 22.8 60 34 61 32.3c.2 0 .3 0 .4.2-1 1.8 7.4 9.9 8.6 12.5.4 1 1.2.2 1.9.7-.5.4-1.3.8-.7 1.5 3.3 4 6.5 8.1 9.6 12.3 0 .3.1.6-.1.8C77 57 74 52.1 71 48c-.3-.4-.6-.5-1-.1-1.7 1.4-9.4 7.4-8.2 9.1l11.8 9c.8.6.8.7 1.3-.1 1.4-1.7 3-3.9 5.1-4.6.3 0 .6-.6.8 0-1 2.2-3.7 3.4-5 5.5-1 1 1.1 1.7 1.7 2.3.3.4.7.5.9-.1 0-.4.7-.5.7 0-.1 1 .7 1.5 1.2 2.2.3.4.6-.1.8 0 1.6 2.7 4.7 3.8 6.9 5.8.9.7.9.7 1.3-.2 1 1.2 1.6-1.6 2.5-1.4.2.9-1.6 1.3-1.5 2.3-.6 1.1-3.8 4.1-2.1 5 1.6 1.4 7.4 2.2 7.6 4-.3.5-.7.3-1 .1-1.5-.3-8-4.6-8-2.6-.2.9-1.4 2.5-.2 3 .8 0 .7.7-.1.9-1 .4-.3 2-.5 2.8.8 2 7.3-1.2 9.5-.4 1 0 0-1.5 1-1.3 2 3.5-1.7 2-3.8 2.6-1.4.7-6.7-.1-6.5 1.9.3.6.2 2.6 1.3 2.2 1.3-.2 9.6-5 8.6-2-5.3 2-10.6 4.1-15.8 6.3-1.7.9.1 1.5.2 2.5-.9-.3-2-.5-2.7-.9-.5-.7-1-.5-1.6-.3 0-.2-.2-.3-.3-.4 0-.5.3-.8.6-1 2.9-.7 5.6-2 8.3-3 1.9-.5.2-2.3.2-3.5-.2-1.4-4.2-.3-5 .3-.5.4-1.2 0-1.5-.4.1-.6.8-.3 1-.7 3-1.8 5.9.9 5.2-4.2 0-.4-.1-.7-.5-.7-5.5-.6-11-1.8-16.3-1.8.6.4 1.7-.1 2 .9-.5.7-2.5-.4-2.4.8 0 .8.3 1 1 1 1-.2 2.9.1 2.8 1.4-.3.2-.6 0-.8-.2-.9-.6-1.8-.3-2.8-.2-.6.2 0 1-.5 1.4-1.2-.7-.8-2.6-1.1-3.8 1-2.3-.8-1.2-1.8-2.1.9-1.5 2.5-.3 2.5-2.4-.1-1.2 1.9-3.5.2-3.8-.2 0-.4 0-.5-.3z" fill="#cce7fb"/><path d="M123 18.2c0-1-1-2.3.3-2.2 6.2.2 12.6-.4 18.8.3 2.4.8 1.9 5.6-.1 6.8-2.1 1.8-.9 3-4.5 2.4-1.7 0-3 .3-4.2-1.2l-.6-.6c-.6-.2-1-1-1.6-.7-2.5 1-4.5-1.2-6.9-1.6-1.8-.3-1-2-1.2-3.2zM47.2 47c4.2 3 8.3 6.3 12.5 9.3.5.3-.2 1.2-.4 1.6-2.2 2.8-4 5.9-5.1 9.1-.1.6-.4 1-1 .8-1-.8-1-1-.4-2 3.6-6.4 3.9-3.7-1.2-8.1-.2-.3-.4-.4-.7-.3-.9.2-1.5-1.4-2 0 0 .6-.3 1.2-1 1.5-1.3.7-2.8-1.4-2.3-2.7.4-1.1 0-2-.5-3-1.2-2.2.3-5 2-6.2z" fill="#94d8fe"/><path d="M61.3 32.5l-.3-.2C75.5 21 78.3 28.7 72.8 16c.6 0 1.3 0 1.4.7 2.4 7.1 5.7 13.9 8.5 20.8.4 1 .4 1 1.4.7a59 59 0 0110.7-2.9c1.1-.2 1.1-.2 1-1.4-.6-4.2-1.3-8.5-1.8-12.8-.1-1.2-.3-1.5-1.6-1.2-5.4.4-10.5 3.4-15.7 3.8 1.8-2.7 12.7-4.4 16.3-5.2 1.3-.2 0-1.7.7-2.5h1.1c.4.7-.3 2.3 1 2l7.4-.2c2.9.1 5.7 0 8.6.4 1.3.1.2-1.6 1-2.2h1c.3 1-.6 2.7 1 2.6 1.4.6 4.9 0 5 1.7-1.6.5-3.6-.5-5.4-.6-2 0-.8 4-1.4 5.4 0 .7 1.1 4.4 0 4.1-.6-.3.5-.8 0-1.2-1.3-1-1 .4-1.1 1.2-.5.2-.8.6-1 1-.3 1-2 1.3-2.6.5.2-.4.5-.6.9-.7 3.7-1.6 2.1-6.7 3-9.8-.4-2.5-13.7-.8-16.3-.8-1.8.2 1.3 12.6 1.2 15 .2.8.2.8 1 .6 1.6 0 3.8-3.5 4.6-.9 0 .6-.7.8-.6 1.5-.2.5-.8.4-1.3.6.5.5 1.4.7.9 1.7-.4.1-.6-.1-.7-.4-.5-1-1.2 0-1.9-.1-.5-.2-1 0-1.4.4-.8-.2-1-1-1.7-1.4-4.1.2-8 1.8-12 3-.4.2-.4.4-.3.8l4.4 10.4c.3.4.3 1.2-.4 1-6.6-13-1.5-14.7-15.8-6-3.3 0 8.3-5.7 9.3-6.1.6-.3.7-.6.5-1.1-1.3-2-4.7-14.3-6.5-13.3-5 1.5-9.2 5.6-13.9 7.4z" fill="#d2eefb"/><path d="M76.7 23.7c-1.4-2.4-2-5.3-3.2-7.7h20.2c-.1.9 1 2.6-.4 2.8-5.6 1-11.6 2-16.6 4.9z" fill="#94d8fe"/><path d="M96.7 91.5c.5-.1.7.3.8.7 2.1 4.5 8 5.2 11.6 2 1.3-1.2 2.4-4.4 4.6-2.8-.4 1-2-.2-2.2 1.4-.2 1.2-2.6 1.8-1.6 3.2.2.8 2.6 3.2.8 3.2-1-.3-1.3-1.3-2.5-1.6.2 1.3 1.2 2.5.9 3.8-2.1 1.4-1.7-4.3-3.5-3-.4 0-.7.4-1.1.4-.7-.6-1 .2-1.5.4-.5-.2-.4-1-1-1.1-1.2.2-1 1.7-2 2.2-1.8-.2 0-2-.6-2.7-.3-.2-.6.1-.7.4-1.8 2-3.2 4.4-5.3 6.1-1 .5-1.5 1.9-1.1 2.8.2.1.3-.2.4-.4.3-.3.6-.3 1.1 0-1-.7-2.2-1-.5-1.9 2.1.5 2 2.5 4.2.3 1 .7 2 1.3 3.2.2.2-.2.4-.6.8-.5.1 2.7-3 1.7-4.6 2-.3.3-1-.2-1 .6v.3c-2 0-3.8.6-5.6-.1-1.2-.2.1-1.4-.2-2 2.5 0 .7-.5.5-1.8 0-.2-.1-.2-.2-.2-.5-.2-.9-.4-.8-1 1-1.7 1.7-.5 3-.8.9.2.2.9-.3 1-.6 0-.6.7 0 .9.3.2.4-.1.5-.3 1.5-2.4 3.8-4.4 4.9-7-.5-.2-.8.1-1.2 0-1.8-.2.6-1.7-.5-2.5.4-.9-.4-.6-.7-.7.3-.7 1-1 1.4-1.5z" fill="#aad9f6"/><path d="M46 75.3c-1.3 0-1.3-.9-1.3-1.9.2-4.2-.4-8.5.4-12.7.4-1.5 2.3-1.6 1.6.2 0 1-1.6 1.8-.8 2.9.2.3.3.7.3 1C46 67 49 66 48.7 69.3c-.3 1.7 3 1.7 1.3 3.8-1.4 1.9 1.9 4.4-1.5 5.3-1.9.5-2.4 2.6-3.6 3.4-.3-.3 0-.9-.2-1.2.3-1.1-.7-3.7.9-3.8.4 0 .8 0 .7-.7.6-.4.9.7 1.5.6-.5-.6-1.4-.6-1.8-1.3z" fill="#94ddfe"/><path d="M117.5 124.2c-2-3-4.8-5-7.8-7a3.3 3.3 0 01-2.2-2.4c-.2 0-.4 0-.4-.2 0-1.4-.6-2.8 0-4.2.3-1.5 3-1.3 3.4 0 .2.5 0 1.3.6 1.5.4 0 .2-.7.4-1 1.9-1 3.4 6.5 4.4 7.9.2 1.5 2.8 4.3 1.6 5.4z" fill="#fcfcfe"/><path d="M121.2 56.7c-3.3-1.1-6.6-2.8-10.2-3.4-.3 0-.4-.3 0-.5.6-.3.4-.9.1-1.3-.7-1-.6-2.2-.3-3.3 3.6-.1.4-5.4 3.5-4.4.5 1 0 2 .5 3 .2.3 0 .8-.1 1.2-.3.4 0 .7.3.7 2.6.4 3.1 3.3 5.2 4.4.5.1.6.5.1 1-.4 1 1 1.5.9 2.6z" fill="#95dafe"/><path d="M79.7 93c-1.3 1.6-12.2 1.2-11.7 3 0 2.3 1.8 5.3 1.5 7.3-2.1-.3-1.6-8.3-3.6-7.9-2.7.8-13.3.6-14 2.7.5 1.2-2 2.4-.3 3 .9.3 2.5 2.4 2 3.3-.5.6-1.6.2-2.2-.2-.8-.1 0-2.2-1-1.4-3.2-1.8 1.5-6.8-5-4.3-.5-.7 0-1.7-.5-2.5-.1-.7.6.2 1 .2.6 1.1 2.3.7 3 0 1 0 0-7 .3-8.4-.4-1.4 1.3-5-.9-5 0-.5.6-.6 1-.8.5 0 .8.7 1.3.5 2.2-.3 9 2.4 9.7 0 0-1.6 1-3.3 2.8-2 .5.4 1 .5 1.7.5l.3.4c0 1 .6 1 1.2 1 0 .3-.2.3-.4.3-1.2.2-2.2 1-3.4.6-.5-.5-.1-.6.3-.8 1.4-.3-1-2.5-1.4-.9-.3 1.2 2.2 1.5-.4 2 .3.2.6 0 .8 0 .9 0 1.4.9 2.3.6.9 0 1.4 1.1.2 1-.3.3-.7 0-1 0-1-.7-1.9 0-2.6.5-2.6-2.1-6.5-1.4-9.7-2.1-.5 0-.8 0-.8.6.2 2.1-1.8 12.9 1.4 12.1l14-1.9c.6 0 .9-.3.6-1-.3-.8 0-2-.7-2.7-.2-1.1.9 0 1.3-.4.4 1 1.2 1.8 1.2 3 .7 2 9.6-1.6 11.7-.3z" fill="#b7e2fa"/><path d="M112.8 16c-.2.7.6 3-.5 2.7-3.4-.7-7-.5-10.5-.5-2.2.2-4.3 0-6.5.3-.5.1-.7 0-.6-.5.1-.7-.5-1.4.1-2h18z" fill="#97dbfd"/><path d="M44.7 80.5c.2.3 0 .7.2 1a7.3 7.3 0 012.4-3c.9-.7 2.9-.4 2.5-2 0-1.3-1.3-2.6 0-3.8 1.4-1.3-.9-1.6-1.1-2.7 0-1.1-.5-2.2-.5-3.3.5 0 1 .1 1.3.5.5 1 4.3 1 3.5 2.9-1.8 3.2-1.3 7.6-3.5 10.3-1 .5-2.1 1.7-3.2 1.7-.3 0-.6.2-.8.6-.6.2-.6.8-1 1.2 0-1.2.4-2.3.2-3.4z" fill="#fafcfe"/><path d="M80.5 102.7c-1-.7-2.1-2.2-.3-2.7 3.3-1.4 6.6-2.9 10-4.2.9.4.5 1.8-.5 1.6-1.1-.3-1.5 1.4-2.5.8 2.4 4-4.8.9-3.6 4.5.2.9.8 3.4-.6 3.1 0-.6-.8-.5-1-1-.6-.7-.5-1.7-1.5-2.1z" fill="#91dcfe"/><path d="M45.5 98.5c.3-1 2-.7 2.9-1 1.2 0 1.6 1.8 1 2.7-.3.6-.2 1 .4 1.5 1.5 1.4.7 3.2.1 4.9-.5 1 0 2.7-1.7 1.9a5 5 0 01-1.3-4.2c.9-2.3-.4-4-1.4-5.8z" fill="#93dbfe"/><path d="M52 120.3c-.4.2-.2.7-.4 1-.5.6-1.7 2.3-2.4 1.3l-.9-1c-1-1.3-.8-5.2 1.6-4 1.7 1 1.3-3.1 3-3.8.5-.2 1.1-1.6 1.5-.5.4 1 1 2 .1 3.1-.6 1.4-1.1 3-2.5 4z" fill="#92dcfe"/><path d="M102 35.5c-.8-.3.2-.9.5-1.2.6-.2 1.2-.2 1.7 0 1.6.7 3.4.2 5 .5 1.1.1 1.2.1 1.3-1 .4-1.2 0-4.4 1.3-4.6.3 1.4-1.5 6 0 6.4 1.7.3 3.3.7 5.1.5.8 0 .3-1.2 1-1.2.4 0 .4.3.5.6.2.8 1.6 2 2.5 2.1 1.6.1.8-3.4 2.5-2.8 1.2.8-.7 2.6-1 3.7-.5 1-1.5.5-2.4.3-1.8.3-3.1-.7-4.4-1.6-.8-.8-4.5-2-4.7-.5-.5 3.4-.8 6.9-1.4 10.3-1.3-2.9.7-6.8.6-10 .3-2-7-.8-8-1.5z" fill="#b9e0f7"/><path d="M113 25.1c-.7-1.5.2-3.6.2-5.3 0-1.2 5.4.3 6.4.6.1-.4-.2-.5-.3-.7.4-.4.6-.1 1 0 2.3 3.6-5.9 3.6-7.3 5.4z" fill="#91dafe"/><path d="M53.5 118.5c0-1.5 1.7-2.6 1-4-.5-1.7-.3-1.4-1.7-.7 3.7-5.5-5.5.2-7.4.7-2.9.4 4.8-2.4 5.3-2.7.7-.5 2.6-.5 2.2-1.6-.5-2-1.6-3.7-1.7-5.7-.6-.4-.5-1.1-.7-1.7.3-2.2 1 .3.8 1.2 1.6 1.9.9 5.5 3.4 6.5-.5.3-1.4.2-.8 1 .4.9 1.4 1 2 1.7-1 2 1.7 2.7 2.1 4.5-.8 1.6 2.7 5.6 4.5 4 .4.9-.8 1.6-.9 2.5-.4.5-2 .5-2.5.1.3-1-1.3-1.1-.1-2 .2-.2.4-.3.1-.6-1.2-1.8-2.1-3.7-3.4-5.4-.6-.7-.6-.8-1 .1-.5.6-.4 2.1-1.2 2.1z" fill="#b7e0f8"/><path d="M91.3 105.5c-.4.5-.8.2-1.2-.2-1.7-.4-4.7 3.8-5.3 1.2-.4-2-1.4-4.8 1.9-5 2.3.5-.3 1.7-.9 2.4 1.3-.6 2.4-2.9 3.8-2.7.2.8 0 1.7.9 2.1.2 0 .2 0 .2.2.2.5 1.5 1.6.6 2z" fill="#96d9fc"/><path d="M120.2 19.7c-2.1-.3-5-.3-6.7-1.2 0-.9 0-1.7.3-2.5 1.5.4 6-1 6.2.8l.2 2.9z" fill="#90dcfe"/><path d="M56.3 16.7c-2.8 2.1-6.8 3.8-8.5 6.9 1.2-.3 2.5-3.4 3.5-1.4-.5.2-.2.5-.1.8.6.7-.2 1.7-1 1.1-1.8-.6-2.6 2.7-4.3 1.6 1.7-4.6 5.4-8.3 10.4-9z" fill="#99dcfd"/><path d="M107.3 110.3c-.8 2.2.8 4.7.2 6.6-.8-1.2-.5-3.4-1-5-.4-2.3-2.4-2-4.1-1.2-1.4.1 1-1.4 1.3-1.7.4.4 1.8 1.2 2.1.4 0-.4-.3-.4-.5-.4-.6-.1-1 .2-1.6 0-.1-.3-.5-.5-.4-.9.6-.2.5-.9 1-1.1 3 4-.8-7.7.2-8.3 2.2-3 2.2 10.2 2.8 11.6z" fill="#c4e8f9"/><path d="M45.5 82.7c-.4 0-.5-.4 0-.4a10 10 0 003.7-2.1c.6-.4 1.7.3 1 1-1.4 1.4-2.8 2.8-3.9 4.6-.8 1.6-2 1-1.6-.6.1-1.3 1.2-1.8 1.8-2.9-.5 0-.7.3-1 .4z" fill="#94ddfe"/><path d="M47.2 47c-.7 1-1.4 2.4-2.3 3-.1-6.4-.5-13 0-19.5v12.7c0 2.3 2-.4 3.3 0-.6 1-2 1-2.3 1.9.3.7 1.4.9 1.8 0 0 .3.1.4.3.4.2.5-.2.7-.5 1-.6-.2-.5.1-.3.5z" fill="#b3e3fb"/><path d="M103.3 108.2l.2.5c-.5 0-1 .4-1.5.2-.5-.1-.5.3-.5.7l-.2 2.2c0 .2 0 .7-.4.6-.3 0-.1-.4 0-.6 0-1 .7-2.6-.2-3.2-1-.1-3.6-1.5-4-.7 0 .2 0 .5-.4.5 0-.4.4-1-.5-1 .4-1.6 3.4.3 4.7.2 1.7-.2.6-3.6 1-4.7 0-1.4.7-2.8.4-4.2 0-.3 0-.6.3-.9.6.2.6.8.8 1.4.6 2.4-.7 5.3-.8 7.8-.4 1 .8.5 1.1 1.2z" fill="#c4e4f4"/><path d="M60 73c-1.1-.1-.8.8-.7 1.5-.3 0-.4-.2-.5-.4-.1-.7-.5-1.2-.7-1.9-.5-1.8-3.7-1.3-4.1-3 1.1.2 2 .9 3.1 1.3.2 0 .6.5.8.1.2-.3.6-.7.2-1.2-.4-.6-.2-1 .4-1.2-.6 1 .8 1.8 1.7 1.1.6.8-.7 2 .5 2.2 1.3.4 2.3 1.2 3.6 1 .1.4.5 1 .2 1.2-.4.4-.7-.2-1-.4-.7-.4-1.2-.3-1.7.1-.3.3-.5.6-1 .3.4-.7.4-.8-.8-1.3-.2.2.2.4 0 .6z" fill="#b9e3f9"/><path d="M122.3 42.5c-1 1.5-4.2-2.8-2.7-2.8.7.1 2.2-.1 2.3.8-.1.4 0 .7.5.7.5-.1 1.1.3 1.5-.5 0-.2.1-.4.3-.5.2.2 0 .4 0 .7-.5 1.2.8 0 .9.8 0 1-1.2 0-1.6.6-.3.6-.8-.2-1.2.2z" fill="#9de1fa"/><path d="M89.5 101.2c-.5.2-5.5 5-4.1 2.7.5-.9 3.2-1.6 1.3-2.4.7 0 3-.1 1.6-1.2-.7.2-1.5.5-2.3.2.5-.3 1.6-.2 1.5-1h.6c.7.3 1.4.9 2 .1 1.9-1.2 3.7-3.2 5.7-3.8 2.5.5-4.7 3.8-5 4.9-.5.2-1 0-1.3.5z" fill="#c0e7fd"/><path d="M49.3 82.2c-.2-1.2 2.2-1.5-.1-2 2.3-2.6 1.8-7 3.5-10.2.7-1.5-2.8-1.8-3.9-2.8 1.8.3 3.7 1.1 5.2 2-1.9 4.3-3.2 8.9-3.5 13.6-.6.2-.8-.4-1.2-.6z" fill="#b9e3f9"/><path d="M58 117.7c-1-1.3-2.7-2.3-2.7-4.1-.1-.3.2-.4.5-.4 1.2.7 4.4 3.3 2.2 4.5z" fill="#8fddfe"/><path d="M59.1 124.3l.2.2c-3.9 2.8-7.4 6-11.4 8.6-.9.7 1.5 2.4 2 3.2l-.2.2c-.8-1.2-2.3-2.1-2.7-3.5 4.5-2 7.7-6.5 12.1-8.7z" fill="#b7e0f7"/><path d="M120.7 21.2l-.4-1.5c.5.8 1.6.6 2.2 1 .2.2.5 0 .5-.2-.3-.8 0-1.6 0-2.3.3.3.1.8 0 1.2 0 1 .4 1.8 1.4 2 1.4 0 2.5 1 3.8 1.4.7.2 1.4.7 2-.1.4-.4.6.2 1 .1l1.2 1.4c-.2.2-.5 0-.7.1-.7-.5-.8.6-1.2.5.7-1.1-5.1-2.7-6.2-3.2-1.2.1-2.7-1.5-3.6-.4z" fill="#d2eefb"/><path d="M62.5 122.4v-.8c3.7-3 7.4-6.3 11.5-8.7-3.2 3.4-8.2 5.8-11.5 9.5z" fill="#b7e0f7"/><path d="M131.7 24.3c.2-.2.4-.1.6-.1.3-.2.2-.5.4-.7 1.3.7 2 2.2 3.8 1.8.4 0 .7 0 1 .2-.4 0-.8 0-1.2.3 1 1 2.5 1.6 3.9 2 .4 0 .8.5.5.9-3-1.2-5.9-3.4-9-4.4z" fill="#c9e2f0"/><path d="M54.7 110.5c-.2 0-.4 0-.5-.2 4-2.5 9.4-3.9 13.9-6 .3-.2.9-.5 1.2-.1-4.3 2.4-10 4.3-14.6 6.3z" fill="#aacae1"/><path d="M117.5 124.2c.4-1-.2-1.8-.6-2.6-1.4-2-3.3-10.6-5.2-10.6.4-4.2 5.5 11.7 6.6 12.6.4.8-.1 1.5-.8.6z" fill="#b0d3e1"/><path d="M76 101.2c.2 0 .3.1.2.3-8.6 3.8-6.8 1.2-2 10.3-2.3-2-3-5.6-4.9-7.6-.1-.5.3-.7.6-.8 2-.5 4.1-2.2 6-2.2z" fill="#aacae1"/><path d="M114 35c-.6-.1-1.6.3-2-.2 0-.6 1.1-.5 1.6-.6 1.8-.2 3.3-1.3 5.2-1.2.5 0 .5.7 0 .6-.7 0-1.2.3-1.9.4-.8 0-1.6.2-2.2.8-.2.2-.4.4-.7.2z" fill="#aedaf6"/><path d="M125.3 37.5c0 1-1 1.7.4 2 .8.4 7.4 3.2 6 3.6-2.7-1.4-5.4-3.4-8.6-4-.6-.3-.3-.8.3-.5 1.5.6 1.1 0 2-1.1z" fill="#b8d3e8"/><path d="M48.8 96.2c.6 1-.9.7-1.4.9-1.3.4-1.3.2-1.6-1 .3-.2.7-1.2 1.2-.7s1.2.5 1.8.8z" fill="#93defe"/><path d="M53.5 118.5c.5-.3.3-1 .8-1.3-.2.5.5 2.4-.6 1.6-.4-.1-.7.5-.2.7 1.5.7 0 3.3-.6 1.2 0-.9-.5-.7-1-.4l1.6-1.8z" fill="#c1e4fa"/><path d="M130.5 24.8h.2c-1.7 4.3-3.3 8.7-5.4 12.7 1.5-4.3 3.5-8.4 5.2-12.7z" fill="#bfd1e4"/><path d="M61.3 124.5c0-.2 0-.5.3-.3 7.2 7.7 6.6 8-.3.3z" fill="#b7e0f7"/><path d="M122.3 42.5c.3-.7.8.1 1.2-.2-1.2 3.4-2.7 6.4-3.9 9.8-.7-1.7 5-9.5 2.7-9.6z" fill="#c4d7e7"/><path d="M49.7 136.5l.1-.2a63 63 0 01-.2.2z" fill="#b4c8d5"/><path d="M50.5 102.8l.7 1.7c-1.5-.2-.8 6.2-3 4 1.2 0 1 0 1.3-1.2.4-1.5 1-2.9 1-4.5z" fill="#b7e2fa"/><path d="M114.7 48c0-.6.2-1.3-.5-1.8-.3-.6.4-1.6.1-2.4.7 1 1 3.5.4 4.2z" fill="#cbebfd"/><path d="M46 75.3c.6.6 2.5.6 2.3 1.7-.3.4-.7 0-1-.1-.4-.2-.4-.8-1-.9-.2-.1-.3-.4-.3-.7z" fill="#f7f2fa"/><path d="M83 105.8h.5l-4.7 3.5-.1-.1 4.3-3.4z" fill="#bfced3"/><path d="M74.2 111.8l3 3.7c-1.2-1.1-2.4-2.1-3-3.6z" fill="#a0b6c5"/><path d="M78.7 109.2l.1.1-3.5 2.7-.2-.3 3.6-2.5z" fill="#bac8cf"/><path d="M47 133c-1-.7-1.6-1.9-2.1-3 .7 1 1.6 1.9 2.1 3z" fill="#adcee3"/><path d="M48.2 66.7c.7 1.3 0 3 1.1 4.1-.7-.1-1-.8-.8-1.4.1-1-.5-1.8-.7-2.7h.4z" fill="#b9e3f9"/><path d="M86 100.5c.8.1 1.6-.2 2.3-.2-1.1.8-2.6.4-4 .5.6-.3 1.2-.1 1.7-.3z" fill="#cce7fb"/><path d="M45 135.5c.5-.7.9-1.3 1.7-1.9-.3 1-1.2 1.3-1.7 1.9z" fill="#b1c5db"/><path d="M121.1 56.5c-.2-.8-1.4-1.5-.8-2.5-.1 1 1.2 1.5.8 2.5z" fill="#c6e8fb"/><path d="M49.7 147.7c.5.1.6.4.7.8-.5 0-.6-.3-.7-.8z" fill="#95dcfe"/><path d="M46.8 23.7c0 .5-.1 1-.6 1.3l.6-1.3z" fill="#cce7fb"/><path d="M61.8 123.5c.1-.4.4-.7.7-1-.1.4-.2.8-.7 1z" fill="#b7e0f7"/><path d="M155.3 157.5c.6 4.4-5.4 5.4-8.1 7.6 2.8-1.2 5.3-3.7 8.1-4.4.2 11.2.3 18.3-11.8 22 2-.5 3.8-1.3 5.5-2.3.4-.2.7-.5 1.1-.2-2 1.8-4.4 2.9-7.1 3.2-.2 0-.4 0-.5-.2-.4-1.5-1.2-3-1.3-4.5 0-2.3 2.8-1 3.4-2.7a8 8 0 000-6.2c-.3-.5-.3-.9.1-1.4 1.2-2 .4-5.8-2.1-6.6-2-.7-9 1.2-9.4-1.2-.4-1.5-1.1-2.9-1.9-4.3-.3-.6 0-.9.6-1 5.3-2 10-5.1 14.8-8.2 1.8-.8 2.8 2.7 4 3.6 1.4 2.3 3.9 4.2 4.6 6.8z" fill="#94d7fe"/><path d="M155.1 129.3c.6 8.2 1.3 10.8-5.9 15.7 1.7-.9 3.8-4.2 6.1-4.7v15.2c-.4.6-.7.1-1-.1-3.7-4.6-7.2-9.4-10.9-14.1-.7-1.7-7.3-7.9-5.4-8.9 3.2-2.4 6-5.3 8.6-8.4.6-.8.9-.8 1.6-.3 2 2.1 5.2 3.3 7 5.6z" fill="#94d8fe"/><path d="M82.4 177.2c-1.9-.5-5.2 1-6.1-1.1-1-2.2-2.8-13.7-.4-14.4 1.3.2 4.1-.6 4 1.3v7.6c-.3 2.2 1.3 2.4 3 2.6 4 .8-.4-12 3-11.5 1.2.3 3.8-.6 3.8 1.2.4 3.3-1 7.3.8 10.1 1.6.3 3.8.1 3.5-2.2 0-2.7 0-5.5.3-8.2-.1-1.8 3.3-1 4.5-1 2 2 .2 6 1 8.7.1 1.5-.6 2.8-1 4-.3 1-.3 2.3-1.2 2.9-2.7.7-5.6 0-8.5.3-.9.2-1.8-.8-2.6-.2-1.3.5-2.6-.6-4-.1z" fill="#fe0500"/><path d="M155.1 96.7c1.1 20.7-.4 12.7-16.4 7.6-1.5-.7 1.9-6.7 1.7-8.7.2-.8.4-1 1.2-.8 4.5.7 9.2.7 13.5 1.9zM155.3 73.2v8.3c0 1.2 0 1.4-1.6 1.6-4.2.7-8.4 1-12.5 1.9-.4.1-.8 0-1-.5-3.5-11.4 4.7-11.6 12.9-15.1 3.5-1.8 1.6 1.8 2.2 3.8z" fill="#94d7fe"/><path d="M116 184H92.2c-.9-.2-.3-1-.4-1.4 0-.7.5-.8 1-1 2-.6 4-1.1 5.9-1.9.5-.8 0-1.8.4-2.7.2-.5-.6-.8-.4-1.4.5-.2.9-.7 1.1-1.2 1.6 0 .4 2.8 2.1 2.4.7.2 1.3.7 2 .4a67 67 0 018.5 0c1.1 0 3-.6 3.2 1-.1 1.8 1.1 4 .4 5.8z" fill="#9bd6f9"/><path d="M139.7 78.3c.4 1.5 0 6.1 1.4 6.4 4.5-.9 9-1.3 13.5-2 .9-.1.3-1 .7-1.5v2.2c-3.8 1.2-8.3 1.1-12.3 1.8-1.5 0-1 .9-.8 1.9-1.4 1.2-.6 3.2-.6 4.7.4-.8.4-3.2 2-2-1 1-.8 2.4-1.7 3.3-.5.8-.4 1 .5 1.2 1.3 0 3.1 1 4.2.3 2.4.7 5 .9 7.5 1 .7.1.7-.3.7-.8v-6.4c0-.4 0-.9.5-1-.1 3 .3 6.2-.2 9.3-2.4.3-14.2-3-14.5-1 .3 2-3.1 8.2-1.6 8.4 16.6 5.7 16 11 16.3-3.6V112c-.6-.1-.4-.6-.3-.9-5.2 13-11.4 9.6-.2 16.7.3-.4-.2-1 .5-1.3 0 1 .2 2-.2 2.8-12.5-9.5-4.8-5-17 3.3-1.4 1.4 4.9 6.5 5.6 8.6l-.4.4c-2.4-1.9-3.9-4.7-5.8-7-.6-1-1.7.5-2.4.7-1.9 1 1.4 1.5-.3 2.6-.4 0-.6-.6-1.1-.3-4.1.2-1 1.4-3.4 3.2-1.1-.5.5-1.5 0-2.1-1-.4-2 1-3.1 1.1-1 .5-1 2-.7 3 1.1 2.3 1.7 5.1 3.1 7.2.3.5.4 1 .2 1.5-.4.3-1 .2-1.5.2-.2-.5.5-1 0-1.5-1-1.5-2-7.2-3.8-6.8-.2-.3 0-.6.1-.9.6-.9-.3-1.2-.4-2 .5-2.5-2.5-4.5-2.5-7 0-.4-.4-1.3 0-1.6.8 2.2 1.7 4.8 2.8 7 0 1.7 1.8.9 2.2-.2.3-.7.4-1.5.2-2.2-.1-.4-.2-.9.4-1 .6.6-.4 3.2.8 2.7 1.4-.6 1.7-.7 1.5-2.3.3-.3.5 0 .8 0 .4.4.7 1 1.3.5 1-.9 2.3-1.7 3.5-2.4 1.2-.8 1.2-.9.4-2-3.2-3.7-5.7-8.2-9.3-11.5-.1-.8-.6-.4-1-.3v-.4c.3-.2.8-.4.7-1 4.3 3.2 7.1 8.5 10.6 12.7.7.8.6.9 1.5.1 13.5-12.2 8-6.4-5.4-19.4 0-1.7 2-3.4 3-4.9 1.2-2.9 2.7-5.7 3.4-8.8 0-.7 1.5-3.9 0-3.2-1 .5-1.4-.6-2.3-.7-1.3 0-.9-1.2.1-1.3 4 2.1 3.2-1.5 3.3-4.2.3-1.4-1-2.4-1-3.7.2-.1.2-.3 0-.5 0-.2.6-.4.2-.7-.7-.7-.4-1.4 0-2.1.5-1-.5-2-.2-3.2 0-.2 0-.6.5-.6z" fill="#c8e8fc"/><path d="M155.3 87.3c-.4 2.6 0 5.3-.1 8 .5 1.6-6 0-7.2 0-1.3-.1-1.6-1.8-2-2.8-.6-2.2-2.6-3.6-3.8-5.3-1-.3-.5-1.2-.6-1.8-.1-.6.6-.5 1-.5 4.3-.4 8.4-1.2 12.7-1.5v4z" fill="#94d8fe"/><path d="M141.7 183.5c-8 1.2-16.2 0-24.3.4-.7 0-1-.2-1.1-.9 0-1.4-1.3-5 1.3-4.5 2.6.3 6.4-2.1 8.3.8 0 .5-.5.4-.8.6-1 .5-1.7 1.6-3 1.5-.8 0-1.3.8-2 1 .6-.4 1.5.2 2.2-.4.4-.3.6 0 .8.4.2.8 2.6 1.4 2.3 0 0-.3.1-.7.6-.7 1.8.2-.7-3 3.7-2.9 3.6.2 7.5-.3 11 0 .7.7 2.3 4.3 1 4.7z" fill="#94d7fe"/><path d="M155.3 126.5c-.4.4.4 2.4-.7 1.7-11.8-8.1-5-3.4.4-18 .3.7 0 1.3.3 1.8v14.5z" fill="#94dafe"/><path d="M46 175.2c-1.4-4.3 2.6-.2 4.1.5 4.8 3.3 10.1 5.5 15.2 8-7.4 1.2-16-1-19.3-8.5z" fill="#92dafe"/><path d="M149.8 59.3c2.2-1 5.2-2.4 5.2-5.1.2.5 0 .9.3 1.2-.6 6.5 2.3 21.4-4.7 6.3-.2-.7-1.6-1.6-.8-2.4z" fill="#93dbfe"/><path d="M84.9 177.2c2.8-.8 4 2 6.1 2.9 1.2.4 1 3 .3 3.9-3.7.3-6.2-.5-7.9-4-1.3-1.3 1.3-1.5 1.5-2.8z" fill="#92d9fe"/><path d="M143.3 141.5c0-.2.2-.3.4-.3 3 3.7 7.4 9.4 10.1 13.2.4.3.9 1.5 1.5 1v2.1c-2-3.4-4.9-6.2-7-9.6-.7-1-.8-.9-1.8-.3-6.6 4-13.1 8.3-20.4 10.5-2.1-1 2.7-1.9 3.4-2.3 1.7-.6-.5-2.4.2-3.6.8-.6.8-1.9 1.6-2.4 1.3-.3 2-2.1 3.5-2 .2.3 0 .5-.2.8-1.1 1.3-2.8 2-3.6 3.5-.4.4-.3 1 0 1.4.6 1.6.2 1.6 1.9.9 4-1.7 7.7-4 11.3-6.3.7-.6 3-1.2 2-2.3-.8-1.4-2.6-2.7-2.9-4.3z" fill="#d4eefd"/><path d="M149.7 59.7c1.4 1 4.3 10 5.6 8.1v5.4c-.2-1-.4-2-.2-3.1.2-1 0-1.1-.9-.8-5 2.5-13 2.8-14.5 9-.8 1.4.8 2.9-.2 4-1-1.6-.5-3.9-1.4-5.6-.3-.2-.8-.5-.6-.9.5-.1.5-1.1 1.1-.7 14.8-8.5 17.8-2.7 10.9-14.1-.6-1.3-1.2 0-2 0-.4-.8.8-1.4 1.3-1.9.4 0 .6.4.9.6z" fill="#d7eefd"/><path d="M150.1 180.2c-2.2 1-4.4 2.6-7 2.8.2-.8.8-1.1 1.4-1.3 2.7-.8 5.3-1.9 7.5-3.5-.5.8-1.1 1.4-1.9 2z" fill="#b4f3fd"/><path d="M116.3 179.5c.2 1-.2 4.7 1.2 4.3 3.8.2 7.7-.2 11.5.2h-13c.3-1.2-1.9-7 .3-6.5.5.7-.3 1.3 0 2z" fill="#ceecfa"/><path d="M155.3 160.7l-8 4.7c-.2.1-.5.5-.7 0-.2-.2.1-.4.4-.6 2.8-1.8 6.6-3 8.3-5.8v1.7z" fill="#c5edfe"/><path d="M155.3 140.3c-2.6 1.4-4.6 4.8-7.2 5.5-.3-.3.1-.6.4-.7 1.7-1.1 3.2-2.5 4.6-4 .6-.6 1-1.4 1.8-1.8.6-.6 0-1.6.4-2.3v3.3z" fill="#caebfd"/><path d="M141.7 183.5c.7-1.3-.6-3-1-4.3-.3-.4-.7-.8-.2-1.3.8-.2.8-.2 1 .8.2 1.6.8 3.1 1.5 4.7-.4.2-.9 0-1.3 0z" fill="#cde8fc"/><path d="M91.3 184c.2-1.1.2-2.2.2-3.3.5-.9.2-2 .6-2.8.5-1.1 1 0 .9.7-.1 1 0 2.6-.9 3.2-.3.2-.4.5-.1.9.1.4-.3.9.2 1.3h-.9z" fill="#c9e1ec"/><path d="M124.2 140.5l.1.3c-3.4 2.1-7.8 2.6-11.7 3.5-1.4 0-.5 1.4-1.5 1.7-.5-.5-.3-1.6-1.4-1.3-3.6.5-7.3.4-11 .1-1.3 0-1.4 0-1.6 1.3L95.3 160c-.2.3-.2 1.1-.7 1 3.6-28.5 4.3-8.5-22-26-.7-.3-.3-1 .2-.4 2.8 2 6 3.9 9.2 5.2 1.6 1.8 1.7-2.4 2.6-3.2.2 1.3-2.2 3.4-.6 4.2 4 1.5 8.2 2.6 12.4 3.2 1.7-4.7 1.3-11.4 2.5-16.7 0-.3 0-.5-.4-.5a32.6 32.6 0 01-16.3-6.7c.1-.5.4-.4.7 0 2 1.6 4.2 2.7 6.4 3.8 1.2 0 1.4-3.8 2.5-4.4 0 1.2-2.8 4.6-1 5 2.4.8 4.9 1.4 7.4 1.8 2 .4.6-5 1.6-6-.1 8.8-2.8 5.8 7.7 6.3.3.6-.8.7-1.2.7-9.2-.3-6.5-.4-7.7 8.2 1-.8 2-1.5 2.4-2.6.1-1 1.4-1 1.2 0-2 5.5-4.3.5-4.7 9.8 0 .9.1 1.1 1 1.2 2.2-.1 11.5 1.3 11.8-1 .2-1.4-3.1-19.6-1.3-15.6.3 1.6.3 3.2.7 4.8v.5c.4 3.4 1 6.8 1.3 10.2 0 1.5.6 1.1 1.7.8.2-.3.5-.3.8-.4 2.2-.2 4.3-1.3 6.5-1.3 1.4-.2 2.8-1 4.2-1.3z" fill="#afcce4"/><path d="M58.7 163.3c1.8 2.5 5.8 3.4 8.4 5 1.8 1.2 4.5 1.5 6 2.7-1 .6-2-1.5-2.6.7l-4.1 10c-.9-2 5.2-10.3 3.4-11.7-4-1.4-7.8-3.4-11.3-6-.4-.3-.8-.3-1.2.2-.7-1-2-1.3-2.6-2.4-.3-.4-.7-.5-1.1-.7-.3-.1-.6-.2-.4-.5.2-.3.5-.1.7 0 1.4 1.3 3 2 4.8 2.7z" fill="#cae7f9"/><path d="M54.7 161.8c1.1.8 4 2.1 1.8 3.5-.8.3-1.7.2-2.2 1.2-.4.4-1.5-.1-2-.2-.7 0-.8-.7-.3-1 .7-.4 1-1 2-1.2 1.4-.3-1.1-2.1.7-2.3z" fill="#fefdfd"/><path d="M94.3 162.6l.1 8.6c.2 2.4-2.2 2.2-4 1.8 1.7 0 2.8.4 2.7-1.6.4-3 .7-6 1.2-8.8z" fill="#e6dce0"/><path d="M94.5 160.5c.3.7.3-.5.5-.7.7 1.4 6.7-.3 5.2 1.6-1.8.8-3.7.2-5.6.4.5-1-.3-.7-1-1l.2-.3h.7z" fill="#e7e8eb"/><path d="M77 156.2c-5.1-1.6-9.8-5-14.5-7.7-.3 0-.4-.6-.1-.7 4.3 3.4 10.1 6 14.6 8.4z" fill="#b6cada"/><path d="M93.8 160.5c-4 .2-10-1.9-14.4-3.4 4.3 1 9.6 2.7 14.4 3.4z" fill="#b6bfcb"/><path d="M82.7 141.6l-3.2 7.8-.2-.1 3.2-7.8h.2z" fill="#b8cadd"/><path d="M76.1 157a18 18 0 01-2.2 5.3l2.2-5.2z" fill="#c5d1d8"/><path d="M79.2 150l-1.7 4.2h-.2L79 150h.2z" fill="#b9cade"/><path d="M83 173.2c-.9 0-2.4.1-2.7-.9h.3c.7.5 1.6.6 2.4.9z" fill="#e3cace"/><path d="M86.7 131.9c0-1.1.6-2 1.2-2.9l-1.2 2.9z" fill="#b9cade"/><path d="M79.5 157l-.1.1c-.8-.3-1.7-.4-2.4-1 1 .1 1.7.5 2.5.9z" fill="#b6cada"/><path d="M84.7 136.5c.2-1 .6-1.8 1-2.7-.3 1-.5 1.9-1 2.7z" fill="#b7c8dd"/><path d="M89.4 125c-.2.6-.2 1.2-.7 1.8 0-.8.3-1.3.7-1.8z" fill="#b5c6d5"/><path d="M92.3 117.8l.7-1.8c.1.7 0 .9-.7 1.8z" fill="#c4c3c3"/><path d="M138.7 75.2c-.4 0-.8.3-1-.2a45 45 0 00-4.4-7.5c-.2-.4.1-.6.4-.8 3-1.8 5.4-4.7 8.5-6.2 1.2 0-.2.8.5 1.4.2.2.4 0 .5-.2.9-.3.2 1.8 1.4 0-.2 2.8 1 4.9-.5 7.3-.2.2-.4.5-.6.5-1 .4-.9 1.3-1.3 2 0 .7.7 1.2 0 1.8-1.1.5-2.4 1.6-3.5 1.9z" fill="#fdfcfe"/><path d="M143.8 69c.3-1.2 1-2.3 1-3.6.4-.5.4 0 .4.3.1.2.4.3.6.3 1-1.3-.2-3 .9-4.2 0-.5.3-.7.8-.8.8-.7 1.5-1.6 2.2-.3 7.3 11.8 3.4 6.8-8.4 13.3-.1 0-.2-.1-.1-.3 3-1.2.2-3.7 1.9-4 .4 0 .5-.4.7-.7z" fill="#93d8fe"/><path d="M153.2 38.6l.8.8c-7.6-10.2-8.4-1.6-1.5-13.7.5 0 .5.4.6.7.4 2 .8 4.1 1.5 6.1 0 3 .6 6.2-.2 9.2-1.3.1-1.5-1.2-1.4-2.2.2-.3 0-.6.2-.9z" fill="#fbfdfe"/><path d="M157.7 37.3c0-2.7.6-5.5-.3-8.2-1.5-1-1.2-2.5-1.2-4 0-.4 0-.7.3-1 3.2-.8 1 7.2 2.7 8.7.5.4.7 1 .6 1.5-.3 2.5.4 5-.5 7.4-1.1 2-2-3.6-1.6-4.4z" fill="#fefdfe"/><path d="M154.4 41.7c0-.4-.4-.8 0-1.2.7-2-.3-4.3-.2-6.3.5-2.4-2.9-8-.5-9 1.5 2.4 1.6 5.6 1.6 8.3.4.7.5 1.3 0 2-.3 2.2 0 4.4-.1 6.7-.6.3-.8 0-.8-.5z" fill="#8fdcfe"/><path d="M153.2 38.6c.1.5.8 1.4-.2.9-.3-.2-.5.2-.8.2.3-1.4-2.4-.3-1.5-1.8.2-.3.1-.4 0-.7-3-4.7-4.5 0-6.8 2.4.3 1.2-.5.9-1 .7l2.6-4.5c.7-.6 1.2-2.8 2.3-2 1.8 1.5 3.9 3 5.4 4.8zM138.5 47.3c.2-.7.7-.5 1.1-.3 2 1.3 1.7-2.5 2.8-1.5.3.7 1 .3 1.6.7 1 .4 1 1 .1 1.4-.5.5-1 1-1.3 1.7-.1.7-.3.7-.8.3-.4-.3-.8-.6-1.3-.4a4 4 0 01-2.2-1.9zM154.4 41.7c.1.3.3.5.8.5.4-.5-.2-1.3.4-1.8-.6 1.4 2.2 3-.2 3.7-2.8 1.2-3.4-1-2.9-3.3 0-.4.2-.5.5-.5.4.6.7 1.2 1.4 1.4z" fill="#fefdfe"/><path d="M138.5 47.3c3 2.8 6.1 5 8.3 8.5.1.2.3.5.6.2 2.4-1.9 4.5-4 7-5.8.2-.3.9-.3 1 .1-2.5 2.2-6 4-8 6.4.9.8 1.3 2.4 2.4 2.6l-.1.4c-.5 0-.6-.3-.9-.5-.5 0-.6-.4-.6-.9a56.6 56.6 0 00-10.5-11.2c.4-.2.5.1.8.2z" fill="#b3d5ec"/><path d="M115.5 84.5c1.1-.8 5-1 4.8-2.4l-1-2.6c1.5.5 1.1 3.2 2.3 2.6 1.9-1 4-1.3 5.7-2.6h.7c.3 1.8-4.6 2.3-6 3.3-1 .3-6.7 3.7-6.5 1.7z" fill="#d6edfb"/><path d="M155 50a33.7 33.7 0 01-4.2 3.2c-.7-.2-1.2.8-1.9.5-.1-.6.4-1.3 1-1.5 1.5-.6 2.6-1.9 4-2.5.7-.2.5-1.5 1.3-1 .6.3 0 .8-.2 1.3z" fill="#fefdfe"/><path d="M122.8 76.2c-.5 0-1 0-1.4.5-.3.5-1.3.1-1.3-.3.3-1.3 2.1-.4 1.6-2.3-.5-2 1.8 0 1.3-1.7-.5-.8.2-1.3.3-2 .6-.1.8.2.5.6-.9 1.4.7 2.6 0 4-.3-.4 0-1.1-.6-1.6l-.4 2.8z" fill="#bdddea"/><path d="M142.2 60.5c-2.8 2.4-6.4 4.4-8.9 7-.4-.1-.6-.5-.8-.8 0-.1 0-.2.2-.2.3.5.7.2 1 0 4.3-2.9 8.5-7.2 12.9-9.5-1 1.3-3.2 2.2-4.4 3.5z" fill="#b3d5ec"/><path d="M148.2 58.3l.6.9c-.1.8-1.2 1-1.3 1.8l-.8.8c-.3 0-.7 0-.9-.5.2-.7 1.9-.7 1-1.6-.3-.1-.7 0-.5-.4.2-1 1.1-.8 1.9-1z" fill="#fdfcfe"/><path d="M149.2 58c1.5-.6 2.1-2.6 3.7-2.7 1.4-.1 1 1.8-.2 1.5-1.8-.5-.7 2.2-3.5 1.3zM145.4 54l-2.4-2.5c-1-3.3 2.3 1 3 1.7.6.5.2 1.3-.6.8zM158.8 23.9c0-.5 0-1 .3-1.1.7.3.1 1.4.8 1.8.7.9-.6 2 .4 2.8.6.5-.3 1.1-.6.3-.7-1-.1-2.8-.9-3.8z" fill="#fefdfe"/><path d="M128 80v-.5c3.2-1.1 6.2-3 9.5-3.7 0 .4-.3.6-.6.7-3 1.1-5.9 2.9-8.9 3.5z" fill="#accde7"/><path d="M124.3 73.7l8.2-6.2.1.2c-2.5 2.3-5.3 4.2-8 6.3l-.3-.3z" fill="#bdddea"/><path d="M134.3 68.8c1.4 2 2.6 4 3.4 6.2-1.4-1.8-2.1-4.1-3.5-6l.1-.2z" fill="#afd1e4"/><path d="M155.3 35.5v-2c1 .5.4 2.2.7 3.1 0 .2.1.5-.2.5-.7 0-.4-1.1-.5-1.6z" fill="#fefdfe"/><path d="M132.7 66.5l-.2.2-4.2-4.6c1.6 1.3 3 2.8 4.4 4.4z" fill="#b3c3ca"/><path d="M145.8 61.3c-.4.6-.4 1.4-.6 2-.5-.5-.5-2 0-2.5.4-.6.8 0 .6.5z" fill="#b8dbf5"/><path d="M123.7 73c-1-.9.7-2.2-.4-2.6.4-.4.8-.7 1-1.1.1-.2.2-.5.5-.3.2.1 0 .4 0 .6-.7 1-1.3 2.1-1.1 3.4z" fill="#e7f4f7"/><path d="M145.8 66c-.2.7-1.1.2-.6-.3.5-.6-.4-1 0-1.6.8-1.2.6 1.4.6 1.9z" fill="#fdfcfe"/><path d="M153.7 25.2c-.8.6-.7 1.5-.7 2.3-.3-.6 0-1.3-.5-1.8.1-.5 1-1.6 1.2-.5z" fill="#d0e2e2"/><path d="M134.3 68.8l-.1.2-.9-1.5c.6.3.7.9 1 1.3z" fill="#abc1ce"/><path d="M155.3 33v-1.1c.5.3.5.5 0 1.1z" fill="#fefdfe"/><path d="M137.7 75c.5.4.6 1-.2.8l.2-.8z" fill="#accde7"/><path d="M142.8 40.3c.3 1.4-1 .7 0 0zM155.9 40c0-.3-.1-.6.1-1 .2.4.2.7-.1 1zM155.3 50.3c.2 0 .4-.2.5 0 0 .6-.6.5-.5 0z" fill="#fefdfe"/><path d="M52.8 169.9c0-1.2 2-3.1 2.6-1.4.2.9 1.4 2.6.2 3.2-1 .5-2.8-.7-2.8-1.8z" fill="#fdfdfe"/><path d="M129.7 135.8c.6 1.7.6 1.7-1 2.5-.5.1-1 .7-1.4.5-.6-.3 0-.9 0-1.4-.2-.6-.2-1.3 0-2 .6-1.4-.9-2.4-1-3.8 0-1.3-1-3.2-3-2.7l-.6-.7c-1.2-.7-.9-1.6-.5-2.6.4-3.1 1.5-3.7 4.1-5.1 1-1 5.6 6.9 7 8 .5 1.4 4.5 4.3 2.7 5.3l-4 2.6c-1 .9-1.2.8-1.7-.4.7-1.5-2.9-2-.5-4-1.7-.8-2.5-2.4-3.7-3.7.6 2.6 3.6 4.8 3.6 7.5z" fill="#94d9fe"/><path d="M120 141.8c-2.4.8-4.8 1.4-7.3 1.7-1-.4-1.5-3.1-.1-2.5.4.4.6.1.7-.2.9-2.2 3.1-.6 4.5-1.7.2-.3.5-.3.9-.1.5.2 1 .2.9-.7l.1-.2c1 .8 1 1.6 2.5 1.1.4 0 1-.2 1.2.3 0 .9-1.4.5-1.6 1.5-.6.3-1.6-.5-1.8.8zM121.7 133.5c.4.8.8 1.6 1 2.5-.2.4-.2.9-.7 1.1-.2.1-.1.3.1.4.3.1.3.3.2.5-1 .9-1.9-.7-2.2-1.5 0-.1 0-.3.2-.3 1.4-.8-1.7-.4-.5-1.5l.1-.5c1.2 1.3 1-.3 1.8-.7zM109.7 132.5v-.5c.6-.4.4-1.1.2-1.6-.3-.8 0-1.6-.1-2.5.7 1.3 2.4 1.5 2.9 3-1.2-.1-1.7-.5-1.4 1 .2.9-.4 2.7-1 1.1 0-.4 0-.8-.6-.5zM116.1 136.5c-.2 2.3-3.3-1.7-3.6-2.5-.3-.7.5-1.5 1-.7.9 1 2.3 1.8 2.6 3.2z" fill="#fdfdfe"/><path d="M118.5 137.8c-.2 1.3-1.4.5-1.5-.4 0-1 1.5-.3 1.5.4zM117.9 132c.2.5.7.7 1 1.1-1.1-.2-1.5-.6-1-1.1zM111.5 137c.4 0 .5 1 0 1-.5-.1-.4-1 0-1z" fill="#fdfdfe"/><path d="M109.3 94.4c-5 4.6-12.8 1.2-12.8-5.2-.7-8 12.9-9.2 14.8-1.8.6 2.7-1.6 4.5-2 7z" fill="#fc0000"/><path d="M98.9 84.1a8.4 8.4 0 00-2.4 5.1c-.8.4.6 2.3-1.2 1.6-3-.2-6 1-9.1 1.1-.4.1-.5-.1-.5-.4.2-1-.8-4.2.8-3.7 1 0 5 1.2 2.2 2 .8 0 2-1.4 2 0 .1.2 0 .6.4.6.5 0 .5-.3.6-.7-.4-2.2 1.6-1 3-1-1.2-.5-2.5.1-3.4-.7-1.2-1.1-2.7.5-4-.2l-.1-.1c-1.5-.6-1.7-1-1-2.6.3-.6.2-2.5 1.3-2 2.5 1.3 5 2.2 7.4 3.5.7.6 1-.3.3-.5-1.4-1-8.6-2.7-8-4.2.8-.9 1.4-3.7 3-2.4 2 1.3 3.7 3.3 5.8 4.5-.2-.6-.5-1.7.3-2 .6.2.6 1.4 1.4 1.7.6.4 1-.6 1.2.4z" fill="#94d9fe"/><path d="M89.3 76.8c.2.5.2 1.7-.7 1.1-1.9-2.1-7-4-7.4-6.7.2-1 .6-1.9 1.6-2.1.3-.1.4-.4.3-.6-.2-1-2.2-1.5-3-.9-.4.4-.7.9-1.3 1-.5 1-.3 1.9-1.4.9-.6-.9-3-1.5-2.1-2.6 1-1 5.3-6.6 6.4-5.3 1.2 2.7 5.7 5.1 4.6 8.2v3l.5.5c.3.4.7.8 1.2 1 .8.7.7 1.8 1.3 2.5z" fill="#91dafe"/><path d="M95.2 83.6c-2.2-.9-4-4.2-6.5-4.1.2-.6.8-1 1-1.6 0-.3.4-.2.6-.2.3.3 1 .3 1.2.6 1.2 1.9 3.1 3 3.7 5.3z" fill="#aee3fd"/><path d="M88 72.3c1-.4 1.1.7 1.6 1.2.2.1.2.5.3.7.1.2.3.4.1.6-.2.2-.5 0-.6-.2-.4-.8-1.5-1-1.4-2.1v-.2z" fill="#fafcfe"/><path d="M92.7 75c1.4 2.7 4.2 4.8 5.3 7.5-2-2.5-3.8-5-5.9-7.5.2-.4.4-.2.6 0z" fill="#a8c7d9"/><path d="M91.7 74.3c-1.3-1.8-2.8-3.5-4-5.4l.1-.2 4.2 5.6c0 .3 0 .3-.3 0z" fill="#b0cede"/><path d="M97 72.3l1.8-.5.2.2c-2.2.3-4.7 2.4-6.3 2.7 1.3-1 2.7-1.9 4.3-2.4z" fill="#a8bbc8"/><path d="M95.2 69.6l-.9-2c.5-.5 1.8 3.6 2.2 4.3l-.2.1-1.1-2.4z" fill="#b2c8d3"/><path d="M98.7 77.3l-.2.2-1.7-4.3h.2l1.7 4.1z" fill="#a3c1d3"/><path d="M88 72.3v.2c-.2.2-.2.6-.7.5-.2-.4-.7-.6-.3-1.1.2-.2.3-.2.5 0 .3 0 .5 0 .5.4z" fill="#b0daf1"/><path d="M87.5 71.8H87c-.6-.8 1.2-1 .5 0z" fill="#fafcfe"/><path d="M86.3 72.8a2988 2988 0 000 0z" fill="#b8e3fd"/><path d="M95.3 73l-.3.2c-.6-.7.5-1.2.3-.2z" fill="#fafcfe"/><path d="M92.7 74.7l.1.1-.1.2c-.2 0-.4-.2-.6 0-.2-.2-.4-.3-.4-.7 0 0 .2.2.3 0 .2.3.4.4.7.4z" fill="#cce7fb"/><path d="M87 73.5l-.2-.2c.1-.2.3-.3.5-.3.2.4 0 .5-.3.5z" fill="#fafcfe"/><path d="M117.5 107.5c-.9-.8-2.6-2.4-1.3-3.6 1-.6 2-3.4 3.4-2.2 1.2 1.4 4 2.2 4 4.2-.5 1-.8 1.1-1.8.7-.9-.3-1.1-.2-1.7.6-.6 1-1.7 1-2.6.3z" fill="#93dafe"/><path d="M115.8 104.5c0 1.1 1.1 1.8 1.5 2.9-.6.4-1.3.5-2 .6 0-.8 1.5-.3.7-1.3-.8-2.1-2.5 0-3.8.3-1 .6.3 2 .5 2.7.3.9.8.3 1.3 0 .7 1-1 .8-1 1.6-.5-.2-.5-.8-1-1-.6 0-.6-.7-.9-1-.6-2.3-1.2-.8-2.9-1-.3.1-.7.1-.8-.3 0-1.4 3.4-.3 2.4-2-.3-1.5-2-3-1.5-4.5.2-.6.5 0 .7 0 1.2 1 1.3 3 2.1 4.2.5 1.2 2-.5 2.8-.7 1.3-1.1-3.6-4.5-3.2-6 1.2-.2 1.7 1 2.3 1.7l2.8 3.8z" fill="#cee5fa"/><path d="M114 109.7c0 1-1.5 1.2-1.6.1-.1-.9-1.9-2.6-.4-3 1.3 0 3-2.5 3.8-1 .2.6.9 1 .8 1.5 0 .7-1 .2-1.3.7-.9.3-1.8.4-1.3 1.7z" fill="#91dcfe"/><path d="M117.5 107.5c.4 0 .7 0 1 .3 12.5 16.6 8.5 13.2-1-.3z" fill="#b0d1e5"/><path d="M125.3 119.8c.2.1 0 .3 0 .4-2 1.5-4.4 2.4-6.6 3.7 1.5-1.9 4.7-2.3 6.6-4z" fill="#aec9da"/><path d="M111 87.5l-.4-1.5c.6-.5 1.3.5 1.7-.3 1.2-.1 2.1-.9 3.2-1.2 0 .4.2.5.5.5-.5 1-2.2 1-3.1 1.8-2.4 2.2 4 .1 4.8.7.3.3.9.1 1.2.5-1 1.5-6 .3-6.5 2 0 .6.7.3 1 .4 2.5.2 5 .7 7.4 1 1.3.4.5-.8 1.3-1 .4.5.4 1.6 0 2.2-2.4.1-4.8-.5-7.2-.6-.5 0-1-.1-1.2-.5-1.2-.4-2-.2-2.7.7-.5-1.6 1-3.1 0-4.7z" fill="#bae9fd"/><path d="M108.7 79.8c-.6-.6.3-4 1.5-2.8-.8.9-.2 2.4-1.5 2.8z" fill="#f7fcfd"/><path d="M110.2 54.2c0-1.4 10.7 2.2 10 3.3-1 .4-3 2.6-3.2.6-.3.5-.3 2-1.6 1.9-.5 0-1.2 1-1.5 0-.2-.4.4-.9 0-1.3-.4-.2-.6.2-.8.3-.7.4-1-.4-1.6-.3.4 1 1.8 2.7 0 3-.5.2-.8.5-1 1 0 1.2-1 3-2.5 2.3-.8-1.3-.5-2.8-.4-4.2-.1-1.3 1.4-.7 1.8-1.6.1-.5-.3-.6-.5-.8-.7-.5-.6-1.4.1-2.2 1-.2.6-1.4 1.2-2z" fill="#92dbfe"/><path d="M114.3 60.3c.5-.3.8-.7 1.5-.6.9 0 .6-1.6 1.1-2.1.2-.4.7-.2.5.2-.3 1-.2 1 .8 1-3.4 1.4-3.6 6.2-4.4 9.4-1-.4-.1-1-.4-1.7-.9-1 .9-2.8-.7-3 .3-1.3 1.5.4 1.3 1.1.4-1.4.7-2.8 1.4-4-.5-.2-.7.3-1.1 0v-.3z" fill="#cae8f9"/><path d="M102.3 53c1.5.3 3.4.4 4.3 1.8.3.7 1.1 1 1.3 1.8.4.8-.4 1.6-1.1 1-1-.1-1-1.2-1.9-1.4-1.3-.9-1.6-1-2.7.4-.1 0-.3.2-.2.4.4.9.4 1.6-.3 2.3-.6.6-1.3 2.3-1.8.7.1-3-3-8.1 2.4-7z" fill="#90dcfe"/><path d="M103 55.3c1-.5 1.4.4 2 .7 1.6 1.2 3.6 2.9 2 5-.4.8-.6 1.5 0 2.4.8 1.6-.1 2.5-1.7 1.3-1 .5-.8-.6-1-1-.2-.2-.2-.4 0-.6.3-.1.7.4.9.6.3.5.9-.3.4-.4-.5-.2-.6-.8-1.2-1-.8 0-.8-.8-.3-1.4.3-.3.1-.4-.1-.6-1-.3-2.8-3.1-1.8-4 .7-.5 1 .5 1.8.6 0-.7-1.4-.8-1-1.6z" fill="#fdfdfd"/><path d="M102.3 53c-.8.8-2.8-.5-2.8 1 0 2 .6 3.8.7 5.8 0 .3 0 1 .6.5 0 .5 0 1 .6 1.1.7.3 1 1.2 1.8 1.4.9.2 1 .3.6 1.4-.7-.8-1.4-2-2.5-2.2-1 .2-1.3-.4-1.8-1-1-1.1 0-7-2-7-1.6 0-3.2 1.3-4.7.7.8-1.4 3-1.6 4.5-1.9 1.6-.2.3-2.6.6-3.7.1-1.7-2.6-1.1-2-2.8.5-.4.5.2.8.4 2.4 1.4-1.6-6.4.5-6.8.5-.1.6.2.7.5 1 1.3 3-.1 4.2.7 0 1-1.7.7-2.3.6-3.9-1.2.4 8.2-.3 10.4 0 .5 1 .5 1 0 0-1.7 1.4.5 1.8 1z" fill="#c6e8fb"/><path d="M106.8 65.3c.2-.7.1-1.4-.3-2-1.4-2.5 2.6-2.8-.2-6.1.5 0 .8.8 1.3.2.4-.4 0-.8-.2-1.2-.2-.5-1-.7-1-1.4.6-.3 1.2 1.4 1.5.4 0-.4 0-.8.3-1 1-1 1 1.5 1 2.1-.5.4-1 2 0 2 1.1 0 .6 1.8-.2 1.7-2 0-1 3.7-1 5-.9-1-.4 1-1 1.3-.3-.3-.1-.7-.2-1z" fill="#b0e4fd"/><path d="M114.3 60.7c.5-.2.8-1 1.3-.5.5.4-.2.8-.3 1.2-.8 1.3-.5 3.1-1.6 4 .2-1.5-.4-3-1.7-1.2-.2 0-.6 0-.3-.5.2-.3-.5-.5-.5 0 0 .2-.3.5 0 1 .5.7-1.2 1-1.3.3-.3-.5 0-.8.3-1.1.2-1.5.7-2.8 2.4-2.2.8.2 1-1 1.7-1z" fill="#fdfcfe"/><path d="M102.2 56.3c-.6 1.7 1.2 2.7 1.8 4-.4 1-1.6-.6-1.8-1-.2-.5-.4 0-.5 0 .3-.8.5-1.5 0-2.3-.2-.3 0-.6.5-.7z" fill="#bae3f4"/><path d="M110.3 63.8c-.5.9-.5 1 .4 1.5 0 1.6-1.6-.4-2.4 0-.2 0-.3-.1-.3-.3 1 .2 2.5-1 2-2.1l.2-.4c.2.4.3.9.1 1.3z" fill="#abe1fa"/><path d="M99 48.2c-1-1.6-1-3.5-1.1-5.2-.2-1.7 0-2 1.8-1.6.9.1 1.7 0 2.5-.2.9-1 2.6-1.7 3.3-2.4-.8.7-3.6 2.6-4.6 1-.1-.8 1.2-.7.7-1.6.1-.8-.1-1.4-1-1.7-.2 0-.5-.1-.5-.4.1-.4.4-.1.6-.2.4-.1 1 0 1.3-.4 1.2-.2 9.1-.4 8.5 1.2-.5 5-1.4 9.7-1.8 14.6 0 1.2-.2 1.4-1.4 1.4h-2.2c-.4-.3-.2-.7-.6-.9-.4-.5-1-.7-1.5 0-.6 0-1 .5-.7 1.2-1.8-1-3.1-2.7-3.3-4.8z" fill="#fdfbfd"/><path d="M108.2 54.2c.3 3.9-1.8.3-3.2-.5.6-1 1.6 0 2.4-.2.6-.2.8.1.8.7z" fill="#faf9fa"/><path d="M102.7 51.8c.8-1 1-1.4 2-.1.2 0 .3.2.2.5 0 .2.1.4.3.5-.3.7-1.2 0-1.7.1-.7 0-.9-.4-.8-1z" fill="#96e0fe"/><path d="M109.2 56.3c-.7-.6-.2-1.4-.4-2.1.5-.7.7-.7 1.4 0-.1.7.2 2.3-1 2.1z" fill="#fafbfd"/><path d="M80 61.3c-2 1.5-3.8 3.1-5.2 5.2-.3.5-.5.5-1 .1-4-3.3-8.4-6.4-12.6-9.7-.4-.2-.3-.5 0-.8 2.5-3 5.1-6 8.3-8.3 1-.8 1-.8 1.9.3 3 4.2 6.2 8.2 9.3 12.2 0 .5-.7.5-.7 1z" fill="#92d8fe"/><path d="M96 46.2c-.3 1.8 2.3.8 2.2 2.5-.3 1.3 1.2 4-.4 4.4-2.1.2-4.1 1-6.1 1.4-3 2.3-6.3-11-7.9-13.2-.3-.6-.7-1.2-.6-1.8A43 43 0 0196.3 36c1.5 2.7-1 3.7-3.2 2.5-.3 0-3.1 0-2.5 1 .5.7 1 2.6 2 1.9 3.7-.4.2 3.2 3.4 4.8z" fill="#94d8fe"/><path d="M92.8 54.7c1.9-.4 3.6-.9 5.5-1 .3-.2.3 0 .4.3.3 2.3 1 4.6.8 7-.4.4-.8.5-1.3.2-.8-.6-1.9-.6-2.7-1.2.5-1.8-5.2-4.6-2.7-5.3z" fill="#94d8fe"/><path d="M108.5 126.7c.5 5.5 2.6 12.1 1.9 17.3-2.2 0-12.8 1.3-13.2-.7 0-2.1.5-4.2.7-6.3.9-1.6 3.5-1.6 4-3.8.3-.7-.2-1.5-.5-.6.2.8-3.4 4.6-3.3 2.8 1.7-12-.8-7.6 10.4-8.7z" fill="#fdfbfc"/><path d="M50.5 82.8c-.4-.1-.5-.4-.3-.8.4-1.1.3-2.4.5-3.6.4-3 1.7-5.7 2.6-8.6 0-.5.4-.5.7-.6 1 1.3 3.6 1 4.4 2.7.5 1.6 1.1 3.3 2 4.7.5.2.7.7.5 1.2-.7 3.8 3 0 4 3.2 0 .9-1.8.1-2.1-.3-.6-.7-1.6-.4-2 .4-.3.9.2 1.9-.7 2.5-3 .7-6.4-.7-9.6-.8z" fill="#fcfdfd"/><path d="M64.3 72.5c-1.3 1-2.3-.6-3.7-.7-1.4-.2-.4-1.6-.4-2.5.4-.6-.1-1.7.3-2.2.6 0 .4 1 .8 1.3.2.2.2.6.8.4.6-.3 1.6 1 1.4 1.7 0 .6.5.5 1 .6.7.1.3-1.1 1-1 1.1 0 2.3-.1 3.2.7.2.5 1.3 1.4.5 1.9-.6.2-1.5.7-2.2.4-.3-1.2-1.2-.6-2-.6-.2 0-.4-.2-.7 0z" fill="#fafcfe"/><path d="M62.3 83.2c1 .2 1.7-.5 2.5-.4 1-.6 2.5.2 1.5-1.6-.9-1.1-.8-1.9.2-2.4 3.4-.3.1 3.3.5 5.1.5 1.7-5.4.4-5.3-.6.2 0 .5-.3.6-.1z" fill="#f8fafe"/><path d="M64.2 68.3c-1.3-.5-1-4.9.6-3.3.3.8.7 1 1.4 1 .4 0 .8.3.5.9-.3.6.4 1.1.3 1.8-1 1.7-1.8.5-2.8-.4z" fill="#fafcfe"/><path d="M64.2 68.3c1.2.7 1.5 1.6 2.8.4-.1.8.1 1.4 1 1.6.4 0 .6.2.7.5-.6 0-1.4-.8-2-.4-.1.3-.3.3-.6.1-.5-.6-.9-.3-1 .3-.2.7-2 .5-1.6-.3 1.7 1.7 2-1.4.7-2.2z" fill="#bde4f6"/><path d="M60 73c-.2-.3-.9-.4-.5-.9s1 .3 1.5.5c.9.2.7 1-.2 1L60 73z" fill="#f6f6f9"/><path d="M66.3 81.2c1.4 1.3-.4 1.5-1.5 1.6.8-.8 2.2.3 1.5-1.6z" fill="#cce7fb"/><path d="M76 101.2c-2 1.2-4.8 1.6-6.7 3-5 1.8-10 4.2-15.1 6.1-1.7.6-2.3-5-2.9-6.3.4.1 2.4.8 2.2 0-.6-.8-1-2.4-2-2.6-1 .6-1.2-1.2-.6-1.6 1.5-.6-.1-2.7 1.5-2.9L66.2 95c1.8-.3 1.6 7.2 3.3 8.3-.6-2.7-2.4-6-1.6-8.5 2.3.2 10.4-2.4 11.4-.8.2 1.5-1.3 6.6-3.3 5.1-1-.7-1.2-1.7-.9-2.8-1.1.2-1.4.4-2.1 1.2.7-.5 1.7 0 1.5.8 0 .6.2.6.6.6 1.5 0 1.8 1.5.9 2.3z" fill="#fdfbfd"/><path d="M61.3 32.5c2.5-1.1 13.9-9.9 15.3-7.2.5 2.7 6.7 13.2 5.1 14.3-16.8 7.8-7.2 9.9-20.2-5.1-.8-1-1.6-1.2-.2-2z" fill="#93d8fe"/><path d="M47.5 46.5c-.1-.5.4-.6.5-1 3.7-4 7.3-8 11.6-11.2 1.4-1.1 2.8 2.9 3.9 3.7.8 1.9 7.7 8 5.9 9.3-14.5 11.7-3.8 11.1-21.9-.8z" fill="#93d8fe"/><path d="M69.5 79c-.5-.2-.5-.4-.4-1 .6-2 .6-2 2.5-1.2 4.9 1.8 9.7 4 14.5 5.7-4.8-2.7-10.4-4.2-15.5-6.5-.5-.2-.6-.3-.4-.8 1-1.4 3.5-8.6 5.3-6.7.8 1 2.2 1.4 2.7 2.5.3.7.6 1.3 1.6 1 2.7 1.2 4.8 4 7.5 5.5 1.2.9 1.3 1 .6 2.3-1 2.2-2.3 4.4-2.6 6.8-.1 1.3-7.3-.6-8.4-1-.3-.2-.7.4-1 0-2.1-.3-3.9-2.2-4.5-4.2-.1-1.2-1.2-1.7-1.9-2.4z" fill="#94d8fe"/><path d="M79.7 93c-3.8.2-7.5 1-11.3 1.3-.5.1-.8 0-.7-.6.1-1-.6-1.7-.5-2.5-.2-1.7-.3-1.8 1.5-1.8 1-.3 1.8.3 2.6.8.6-.2 1 .3 1.4.5.2.1.4.6.7 0 .2-.3.2-.7-.3-.9-1.3-.4-2.9-1.7-3.3-2.8-.5-.4-1-.6-1.7-.3-.2 0-.4.1-.5-.1-.3-.4-.5-1 .3-1 3.3.6 7 .2 10.3 1.6 1.3.1 3.8 5.8 1.5 5.8z" fill="#fcfdfe"/><path d="M76.5 100.2c-.7-2-2.9 0-2.3-1.6.2-.5.1-.8-.3-1-.2-.1-.7-.4-.6.3 0 .6-.8.4-.6-.2.2-1.5 1.9-1.3 2.8-2.2.1.4 0 .8-.1 1-.6 1.1.8 3.6 1.9 2.4 2.8-4.6.9-6.3 7.6-6.3.3 0 .4.1.4.3-.3 1.4 1.6 3.3.3 4.3-3 .9-6.1 2.8-9 3z" fill="#94dafe"/><path d="M96.7 91.5c-1 2.5-7 3.4-9.5 4.9-.3.1-.5.2-.7-.2 0-1.3-1.8-3.7.3-3.9 3.3-.2 6.6-1.5 9.9-.8z" fill="#91d9fe"/><path d="M69.5 79c3 .7 1.6 4.6 6.3 6.7 0 .7-.5.5-.9.4-2.1-.5-4.3-.7-6.5-1.1-1.2-.3-.3-3.4 0-4.3.5-.7-.2-2 1.1-1.7z" fill="#fcfdfe"/><path d="M80.5 92.5c-.2-2-1-3.7-2.3-5.3.3-.5.7-.4 1.2-.3 1.5.5 5-.2 5.6 1.3.3 4.7-.1 4-4.5 4.3z" fill="#95dbfe"/><path d="M95.8 95.8c-1.9 1.5-4 2.7-5.7 4.3-.5.5-1.4.2-2-.6-1.1-.7.2-2.4 1.2-2.4 1.3 0 1.3 0 .9-1.3 1.5-.5 8.9-4.3 5.6 0z" fill="#91d9fe"/><path d="M60.8 85.7c-.1-1.2 1.3-1 1.9-.7 1.3.7 3.3.5 3.5 2.3.7.9.2 2 .6 3v.7c-.6 0-.6-1-1.3-.5-.2 1.3-2.7 1.3-2-.3.3-.6.2-.8-.6-1-2.1.2-3.5-1.7-2-3.5z" fill="#94d8fe"/><path d="M69.8 87c1 .8 1.9 2.3 3.3 2.5.3 0 .6.2.7.6.1.5-.2 1.9-1 1.2-.4-.5-1-.8-1.5-1.1-1.3-2.3-3.8.1-4-2-.8-1.7 1.6-1.2 2.5-1.2z" fill="#90defe"/><path d="M78.8 68.7c.6-1.1 2-2 3-1s-.2 2.5-.6 3.5c-.4.4-.6 1.3-1 .3-.8-1-1.7-1.4-1.4-2.8z" fill="#fcfdfe"/><path d="M92 89.8c0 .7-.3 1-.9 1-1.2 0-.4-1-.7-1.5-.6.3-2.3 1.6-2.3.3.4-.5 1 .2 1.5-.5-1-.5-2.1-.7-3.1-1.3 1.2-.4 5.7.3 5.5 2z" fill="#eef8fd"/><path d="M66.2 87.3c-.4-.2-.4-.6-.7-.8-.7-1-2.1-.5-3-1.3.3-1 1.2.1 1.8 0 .7.4 2.3-.2 2.4.8 0 .4.4 1.2-.5 1.3z" fill="#f6f5fc"/><path d="M132 21.2c.1-.5 2-6.5 2-4-.6 1.2-.8 3.2-2 4z" fill="#c8effe"/><path d="M132.7 23.5c.3.4.4 1.1-.4.7-.8 0-1-.7-1.1-1.4.4-1 1 .4 1.5.7z" fill="#fdfbfd"/><path d="M76.7 23.7c5.6-1.4 11-3.8 17-4.2.3 0 .4 0 .5.4.5 5 1.4 10 2 15.1 0 .4 0 .5-.4.5-4 .6-7.8 1.6-11.6 3-1.3.4-1.3.4-1.8-.9-1.8-4.7-4.1-9.2-5.7-14z" fill="#94d8fe"/><path d="M104.2 34.3a2 2 0 01-1.7 0c.1-1-1-1.3-1.5-.5-.9 1-2.2 1.2-3.4 1.7-.5.2-.7-.1-.7-.5L95 22c0-1-1-3 .5-3a88 88 0 0116.5 0c1.2.4-.4 6.4-.2 8-.3 2.2-1.8 3-3.6 3.8-.1.5-.6.6-1 .7-1.2.1.8 1.6-.8 2.3-.7.3-1.4.9-2.3.5z" fill="#94d7fe"/><path d="M104.2 34.3c5.2-1 .7-2.7 2.7-3.1 1 0 1.9-.7 3-.4.4.2.8-.2.8-.7 0-.6.3-.8.8-1-1 7.8.1 6-7.3 5.7-.5.1-.4-.2 0-.5z" fill="#f8fbfe"/><path d="M101.7 37.8c.8.8-1 1.2-.7 2 0 .1.1.2 0 .4-.9.1-.7-1-.8-1.5-.3-1.6-2.5-1.2-2.3.3.5 3.2 2 .8 4 1.3.3.1.4.4.6.7-1 .1-4.7.8-4.8-.6 0-.6-.9-.4-.7.2.2 1.2-.4 3-1.7 3.2-1.2 0-.3-1.5 0-2 .4-.9.2-2 1.2-2.5.6-.4.3-1.4 1.2-1.6.4-1 1.3-.3 2-.7 1.2-.9 1.2.4 2 .8z" fill="#99e1fe"/><path d="M97.7 37.7c-.6.6-.2 1.7-1.2 2-.8.3-.5 1.5-1 2.1-.7-.4 0-1.2 0-1.8.4-1.3-3.6 0-4.4-.5 1.2.2 1 1.5 1.7 2.2-1.3.8-1.8-1.1-2.5-2-.7-1.2 1.2-1.3 2-1.5.5-.2 1-.2 1.3.3.3.3 2.2.3 2.6 0 .7-.6 0-1.7.1-2.5.2.8 1 1 1.4 1.7z" fill="#c6e8fb"/><path d="M113.7 91.5c2.5.7 6.6-.2 8.4 1.5 0 1.4-2.1 9-4 7.7-2.4-1.8-4.8-3.5-7-5.6-.2-.2-.5-.1-.6.1-.2.3 0 .4.3.5 1 .5 2.8 1 3 2.3-.2.3-.5 0-1 0 1.3 1.5 2.8 3 4.4 3.5.4-.2 0-.7.1-1 .5-.2.9.2 1.1.5.4 1.2-2.1 2-2 3.2l-.6.3c-2.5-2.1-4.4-5.5-6.2-8.4-.8-1.3.5-2.1 1.4-2.8.1-.2.3-.4.3-.7 0-1.4 1.4-1 2.4-1.1z" fill="#93d9fe"/><path d="M108.3 101.5c-.2 1.3 3.2 5.3 1.7 5.7-.7.4-2.2 0-2.4.8.1.3.4.1.5.1 4-.8 2.1-1 3.9 2.2-.7.6.1 1.9-.7 2-.7.1-1-.7-1-1.4 0-1.4-2.3-2-3-.6-1.3-3.3-1.1-8.3-1.8-12.1 1.6-1.8 2 2.5 2.8 3.3z" fill="#90dbfe"/><path d="M110.7 99c1.3 2 2.7 3.8 4.1 5.7-1 .8-2.2 1.1-3.2 2-.9.5-2-4.3-2.6-5.2-.5-3-3-6.7 1.7-2.5z" fill="#91d9fe"/><path d="M93.3 104c1.4-1 8.3-11.7 6-4.2.3.5 0 1-.1 1.3-.6 1.3-.7 3-1.7 3.9-.4.9-1.5 1.9-2.4 1-.3-.7-2.8-1.3-1.8-2zM90.6 100.7c.8-1.9 3.5-2.5 5-4 .6-.3 1.6-1.4 2.4-.9-.4 2.7-3.7 5.2-5 7.8-.5 1-1.6 0-1.6-.8 0-1 2 0 1.3-1.1-.7-.2-2-.1-2-1z" fill="#96d9fc"/><path d="M102.3 105.7c-.4-2.2.7-4.4.7-6.5.1-.8 1.3-1.7 1.5-.5 0 2 2.3 8.8.8 9.6-1 .2-.8-.7-1.1-1.3-.4 0-.6-.3-.9-.5-.3-.2-.8-.4-1-.8z" fill="#91dcfe"/><path d="M102.2 97.8c-.1.8.1 1.6-.2 2.4-.1 2.2.2 5.4-2.7 5.8-.8.2-1.2 0-1.5-.7 0-1.4 1-2.9 1.5-4.3.1-.3.3-.7.7-.8.5-.8 1-2.7 2.2-2.4z" fill="#92dafe"/><path d="M101.5 104.8c.6-.2.2.8.2 1.1-.5 2.8-.2 2.2-2.7 1.7-.8-.3-2-.2-2.7-.8 0-.4.4-.2.6-.2 1.7-.4 3.7.4 4.6-1.8z" fill="#f6fafd"/><path d="M111 87.5c1.1 2.2.1 5.2-1.7 6.9-.4-.5-.3-.9 0-1.4 1-1.7 2.2-3.6 1.7-5.5z" fill="#f92715"/><path d="M100 100.2c-.8 1.6-1.5 3.4-2.2 5.1-.6-1.3 1.3-3.8 1.5-5.5.3 0 .5.3.7.4z" fill="#c4e4f4"/><path d="M92.5 105.5c.7.3 1.5.4 1.8 1.2-.6.5-1.1-.9-1.4.2-.2.3-.3.7-.8.4-.7-.3-.1-1.7.4-1.8z" fill="#96d9fc"/><path d="M90.6 100.7c.5.8 1.6.2 2 1-.4.7-1 .2-1.4 0-.6-.3-1.4.1-1.7-.5 0-.8.1-.9 1.1-.5z" fill="#f2f7fe"/><path d="M92.5 105.5l-.5.7c0-.7.5-2.5 1.3-2.2-.2.2-.2.4 0 .7 0 .5-.7.4-.8.8zM89.5 101.2c.5.2 1.2.1 1.7.5-1.6-.3-.5 1-1.5.6-.3-.3-.2-.7-.2-1.1z" fill="#c0e7fd"/><path d="M99.5 106.5c-.9 0-1.8 0-2.7.2-.1-.3.7-.8 1-.4.5.2 1.2-.1 1.7.2z" fill="#c4e4f4"/><path d="M96.8 106.5v.2c-.4-.1-.6.4-1 .5-.5-.8.6-.7 1-.7zM91.3 105.5c.2-.3.2-.5.2-.8.6 0 .3 1.2-.2.8zM90.7 103.5l-.2-.2c.2-.8 1.2.2.2.2z" fill="#c0e7fd"/><path d="M60.8 85.7c.2.4.2.7-.1 1-1 1 1 2.5 2 2.2.4-.2 2 .6 1.3 1.2-.3.2-.6.5-.4.9.6.6 1.4-.1 1.9-.5 1.4.5.5 2.4 1.2 3.5.2.4.1.6-.4.7l-15.4 2c-2.8-.7-.8-10.3-1-13 .4-1.4 7 .7 8.8.5 1 0 1.7.6 2.1 1.5z" fill="#fdfbfd"/><path d="M62.3 83.2h-.1c-1.8-.5-1.3-3.3.4-2.3.6.5 1.8 1.4.6 1.8-.3.2-.8 0-.9.5zM61.7 83.3c0 .1 0 .2.2.3-.2.6-.8.4-1.2.5-.8-.2.4-1.2 1-.8z" fill="#94d8fe"/><path d="M63.3 84.8c-.3 0-.6 0-.8.4l-.5-.4c.5-.5.9 0 1.3 0zM62.5 84c.6 0 1 .3 1.5.5-.6 0-1 0-1.5-.5zM87.8 98.3l.2 1.2c-.6.7-1.2-1.4-1.3-2 .6.2.8.6 1.1.8z" fill="#cce7fb"/><path d="M60.7 122.3c.3.2 1 .8.2.8-.4-.2-.6-.5-.2-.8z" fill="#b7e0f7"/><path d="M103.5 106.3l.7.7c.2 1.5-.7 1.1-1.7 1-1 .3-.8-.3-.6-.7.2-.5 0-1.2.4-1.6.4.3.7.6 1.2.6z" fill="#fbfcfe"/><path d="M103.7 109c.7-.5 2.9-.7 2.5.6 0 .5-.3.4-.6.4-.8 0-1.7.1-2-1z" fill="#91dcfe"/><path d="M102 100.2c0-.5-.1-1 .2-1.4 0 .5.4 1-.2 1.4z" fill="#aad9f6"/><path d="M142.7 161.7c2.5 0 3.7 6.6 1.1 7.1-1.7.1-3.3.3-3.6-1.8-.5-2.3-8.5-.6-10.8-1-1 0-1.2 0-1.2 1.2.2 1.3-.5 5.4.9 5.6 3.3.2 6.6 0 9.9.1 1.4.1 1-1.6 1.7-2.4 1.2-.7 4.3-1 4.4.9.2 1.6.2 5.3-1.8 5.8-5.7.7-11.7 0-17.6.2-3.5.5-3.2-6.3-3.4-8.7.6-2.3 0-6.9 2.9-7.3 5.8 0 11.7 0 17.5.3z" fill="#fa0800"/><path d="M123.7 162.7c-.3 2.6-1.4 5.2-1 7.8.8 2-.2 6.1 2.4 6.6h18.2c-.7.8-1.8 0-1.8 1.6-.2-.3-.2-1-.8-.7-4.2-.8-8.8 0-13-.3-1.6.1-3.2.3-4.4-1-1-1-1.6 1.5-3.3 1-1.2-.2-2.7.4-3.8-.2-.5 0-.6.4-.9.7.8-2.1-13.1.1-13-1 5.2-1 10.9 0 16.2-.4 1.5-.2 2.4-.7 2.3-2.6-.4-2 1-12.3-1.3-12.2-7.4.3.1-2.4 2.3 0 .5.7 1.6-.2 1.9.7z" fill="#b2cfe5"/><path d="M143.3 177.2c1.6-1 2.8-6.6.3-7-.9.3-2-.3-2.7.4-.7-1-1.5-2-1.4-3.4 0-.8-.3-1-1.3-1-1.9-.2-.4 2.1-1.6 2.7-.5.1-.7-.3-.9-.6-.6-.8 0-2.2-1.1-2.1-1.8.3-4.8-1-5.6 1-.2 1.2-.7 5 1 5.1 3.4.3 7.1.4 10.4-.3-.1 2.5-9.2.6-11.5 1.2-2 0-.5-5.2-1-6.7 0-1.8 9-.4 11-.8.8 0 1.3.1 1.6 1 .7 2 .3 1.8 2.5 1.8 3.3.2 1.6-4.6.9-6.3.6.5 1.4 1.5 1.3 2.4.4 1.6.8 3-.5 4.2-.2.2-.2.4 0 .7.5.6.6 1.3.6 2 0 1.6.3 5.8-2 5.7z" fill="#b7d2eb"/><path d="M142.7 161.7H125c.4-1.6 8.8.8 7.3-1.5-.2-1.3-1.7-2.8-1-4 .5 0 .6.3.7.6.3 1.3 1.5 2.4 1.5 3.8 0 2 7.6.3 9.4 1h-.2z" fill="#d4eefd"/><path d="M98.8 161.9c.3-.7.8-.6 1.4-.6.9-.4 1.9-.2 2.8-.2 3.4.4 7.2-1 10.1 1.2.8.7-.2 1.8.6 2.6-2.1 5.3-9.1 4.5-13.6 6.1-1.8-.2.3-8.2-1.3-9.1z" fill="#fefdfe"/><path d="M92.7 178.7c0-.4 0-.8-.2-1.1-.5 1-.3 2-.5 2.9 0 .5-.3.3-.5.2-2-.7-3.2-2.5-5-3.6.3-.6.7-.6 1.2-.2 3 .6 6.7.1 10 0h.2c.2.5 0 1 .2 1.4.1.3-.2.5-.4.7-1 .8-3.7.9-4-.6-.1-.2 0-.4-.3-.4-.4 0-.3.7-.7.7z" fill="#fdfcf9"/><path d="M97.8 177h-.2c1-2 1.6-4.3 2-6.5.1.3.3.6.6 0 1.5-.4 3.3-.7 5-.8-1 2.2-4.9 1.1-4.4 4.1 0 1 0 2 .9 2.7.1.1.2.3.1.5-1.7.6-.8-2.1-2-2.5-.8-.6-.4.7-1 1 1 1.5.3 3 .2 4.5-.6-.9-.2-2.2-.7-3.2-.1.1-.2.3-.5.2z" fill="#d3e8ed"/><path d="M101.8 177c-1.2-.6-1.3-1.9-1.2-3-.1-2.5.4-2.3 2.5-2.8.8-.2 1.6-.2 2.4.3 1.6 2.7 6.5.8 9.2 1.3 2.3.9-.2-10.7 1.7-11 1.3.1 4.4-.9 4.6 1 0 4 .2 8 .1 12 0 1.3-.9 2.2-2.1 2.3-5.7 0-11.5.3-17.2-.1z" fill="#fb0700"/><path d="M97.8 177c.4-.1.3-.6.6-.8.4 1.2.8 2.5.6 3.8-1.4 1-3.2.6-4.6 1.6-.5.3-1.1.4-1.7.4-.5 0-.7.2-.7.7-.6-.1-.3-.7-.2-.8 1-1.1.7-2.6 1-3.9 0-.8 1.3-.6 1.1 0-.4 1.6 3.9 1.6 4 .3-.9-.4 0-.9 0-1.3z" fill="#fefdfd"/><path d="M98.8 175.5c.3-.5 0-1.7.7-1.8.8.1.2 2.9-.7 1.8z" fill="#93bbc6"/><path d="M134.7 110.8c1.2-1.8 2.3-3.8 3.1-5.9.2-.4.3-.7 1-.4 4.7 1.7 9.3 3.8 14 5.6 3.3 1-4.2 9.8-5.2 12-.3.7-.6.4-1 0-4.1-3.4-8.8-6.2-12.8-9.8-.4-.6.6-1 .9-1.5z" fill="#93d8fe"/><path d="M143.3 141.5c.6 1.6 5.3 4.9 2.7 5.9-4.5 2.9-9.2 5.7-14.2 7.8-.4.2-.6.1-.7-.3-2.1-3.4 2-4.8 3.7-7-.6-1.3-1.2-2.5-1-4 .1-.6 0-1.1-.7-1.4-1.4-.5-1.9-2.4-.2-2.8 1-.2.9-1.6 2-1.9 1.2-1.2-2-1.1-.4-2.5.7-.6 1.7-.8 2.4-1.5.3-.3.6.1.8.4 1.7 2.5 3.6 5 5.6 7.3z" fill="#94d8fe"/><path d="M126.3 119.2c1.9-.1 1.4 1 2.9-1 1-1-1.6-1 1.1-2.4.9-1 2 0 1.7 1-.5 1 0 1.9-.1 2.8 0 .8.6 1.1 1 1.5 1 .8 5.7 4.5 4.4.9 0-1.2-.6-2.3-.5-3.4.1-1-.8-1.7-.5-2.8 0-.3 0-.7.5-.5 10.8 9.5 13.9 5 1.6 16.4-.8.6-1 1.6-1.8.3-3.2-4.4-6.6-9-10.3-12.8z" fill="#92d8fe"/><path d="M129.8 152.2c-.2 1.4 2 3.5-.2 4a90.6 90.6 0 01-14.2 4.2c-.3 0-.7 0-.8-.3 1.1-1.6-.7-2-1.2-3.4-1.1-3 0-2.3 1.6-4.2-.2-.4-.6 0-.8-.2-2.5-1 3.2-4 3.1-1.8 0 .4.3.6.6.7 1.9.3.8 3.2 2.5 3 6.7-4-3.5-4-.1-6.7 1.5-1.4 1.2-5.3 4.2-4.2.5.2.5-.9 1-.4 1 2.3 2.4 4.8 2.8 7.3.1.3-.2.4-.4.5-1.1.5-1.8 1.4-2.5 2.6 1.2-.4 1.7-1.7 3-1.7.1 0 .3 0 .4-.2.5-.5 1.2.4 1 .8zM136.8 93.3c.1.7-.7.3-.6.9 0 .2.4.2.6.1 1.1-.4 1 1.6 2.4.7.2-.1.4-.4.7-.2.3 4.2-2.4 8.7-4 12.6 0 1.4-1.7.8-1.5-.4 0-1.3-.6-3.5 1.2-3.9-.7-.1-1.3-.5-2.2-.4-.6.1-1-.7-1.5-1.2-.4-1 1-2 1.7-2.5.6-.5.6-.5 0-1-.4-.7-1.3-2.1-2-.9-.7 1.6-2.5 1.6-3.2 3-1.1 0-1.7.6-2.2 1.3-1 1.2-2 2.4-1.6 4-.3.6-1-.3-1-.7-.6-1-2.2-2.3-1-3.3.4-.2.6-.5.6-1 0-1.3 1.6-.5 2.3-.3.1 0 .4.2.4-.1.1-.3-.2-.4-.3-.3-1.2.1-2-.7-2.8-1.3-1-.6-1.4 1.5-2.5.5.4-2.8 2.2-1.4 4-.7-.7-.5-3.2-.8-3-1.8.8-1.2.2-4 1.8-4.1 3 0 6 1.3 9 1 .6 0 1 0 1 .8.3 1.3 2.2 0 2-1-.5-2.4 2.6-1.6 1.7.2z" fill="#94d8fe"/><path d="M128 80c3-1.5 6.3-2.6 9.5-4 .5 0 .4.4.6.7.9.8.5 2 1 3 .4.8.4 1.7.4 2.6-.2.7-.5 1.3.4 2 1.4 1.4-10.5 2-12 2.3-.8-1.9-.2-4.6.1-6.6z" fill="#fcfdfe"/><path d="M136.8 93.3c0-.5-.2-1-.5-1.4-2.2-.8 0 2-2 1.8-.6 0-1.8 0-1.4-1 .2-.3-.4-.4-.6-.1-2.3 1.7-4.8-.8-5.4-3-.3-.8.2-2.6 1.1-3 3.8-.5 7.8-1.4 11.5-1.3 1.3 2.6 1 5.5.8 8.4-.4 1-2 .3-2.9.3-.4 0-.3-.5-.6-.7zM124.5 143.3c-.7.7-1.8-.5-2 .7-.2.7-1.1 1-1 1.8.6 1.7-3.5 2.6-.8 3.6 1 .4 1.7 1.1 2.2 2 1 1.6-1.6 2-2.2 3-2.1.6-.7-3-2.6-3-.5 0-1-.3-.9-1 .2-1.7-2.3-.5-2.9.2-.6.7-1.2.2-1-.6 0-.3.2-.6 0-1-.5 0-.5.9-1.1.6-1.2-1-.7-3.1-.9-4.5-.1-.9.3-1 1.1-1.1 2.4.6 16-6.3 12.1-.7z" fill="#fcfdfe"/><path d="M135.3 103.5c-1.1.6-.7 3.5-.3 4.7.2 1.1-1.2 1.4-1.3 2.5-.2.5-.4.9-1 1-2.8-1.7-6-4-8.2-6.4-1.3-1.3 1.9-1.2.9-2-1.3-.8 1-2.5 1.6-3.3 1.7-.5 4.2 1 5.5 2 .2 1.7 3 .2 2.8 1.5z" fill="#fcfcfe"/><path d="M129.5 150c-1.9-1.6-2.2-5.3-3.4-7.6-.3-.8 0-2.3.7-2.8 1 0 4.5-3 3.9-.2-.2.4-.9.8-.4 1.4 1 1.3 1.9 2.8 1.8 4.6 0 .9-.4 1.6-1.3 1.9-1 .2-.6 2-1.3 2.7z" fill="#94d8fe"/><path d="M129.5 150c0-2.6 3.4-3.4 2.4-6-.4-.9-1-2.5.6-2.2 1.5 1 2 .8 1.5 2.7-.2 1.2 1 2.2.8 3.3-1.4.4-2 2-3.4 2.2-.4 0-.4.5-.5.8-.1.6-.4 1.2-1 1.4-.3-.7-.3-1.5-.4-2.2z" fill="#fbfcfe"/><path d="M146.5 94.7l.3.4c-1.1 0-7.2 0-5.2-2 1.2-1 .3-3 1.9-3.3 1-.2 3.3 4 3 4.9z" fill="#94d8fe"/><path d="M128 108.1c1.6 1.2 3.2 2.3 4.7 3.6l.1.5c-.4.3-.8-.3-1.3-.6 2.3 5-1.8 7.9 4.5 11.3.3.2.8.4.7 1-1.6-.6-2.7-1.9-4-2.7-2.3-1.2 0-6.6-1.8-5.4-.5.3-.8.7-1.3.8-1.2.5 1.2 1.3-.3 1.9-.3-.3-.5-.7-1-.4-.4.1-.6 0-.6-.4 0-.8.9-1 1.2-1.6 2.1-1.6 1.7-5-.3-6.5-.3-.3-1.4-1.2-.6-1.5z" fill="#b1e6fe"/><path d="M146.5 94.7c-.8-1.7-1.6-3.6-3-4.9-1.9-1-.8 2.5-2 2.8-2.3-10.6 4.6-3 5.6 2.2l-.6-.1z" fill="#f8f9fd"/><path d="M132.7 112.2h.1c1.4 1 2.8 2 4 3.1-1 1.2.8 2.4.2 3.7.5 1 .2 2.1.7 3.1.3.7.1 1.3-.4 1.9-.6-1.3-.5-2.8-1-4-.3-.4-.4-.8-.1-1.2.5-.8-1-1-.8-1.6.1-2.1-3.5-1.3-2.7-5z" fill="#a9e1fd"/><path d="M129.7 135.8c-.8-2.9-3.9-5.3-4-8.2 1.1.4 1.7 2 2.6 2.9.5.8 1.7 1 2.1 1.9-.2.2-.4 0-.6 0-1.1.3-.3 2.2.7 2.3.2 0 .5.3.6.5 0 .4-.4.3-.5.5-.2.4-.6.4-1 .1z" fill="#f1f6fd"/><path d="M130.3 140.8v-.3c1-.6.6-1.6.9-2.5.3-1 1.8-.2 2.6-.7 2-.6 0 1.3-.1 2.1 0 .3-.3.6-.7.5-1.1-.2-1.5 1.6-2.7 1z" fill="#fafcfe"/><path d="M130.3 140.8c1 0 1.5-1 2.5-1 .4 0 .8-.1.8-.5 0-.8.5-1.1 1-1.5h.2c-.8.6-.7 2.1-1.8 2.2-.9-.2-1.3 1.4-.5 1.8-2 .4 1 3.6-1.2 5.3-.8.8-1.3 1.8-1.8 2.7.2-.9.1-2.2 1-2.6 3-1.5.4-4.3-.2-6.4z" fill="#bee6fd"/><path d="M128.3 151.7c-5.2 4.3-3.5.1 0-1.5.7.4.7.6 0 1.5z" fill="#f6f8fd"/><path d="M139.5 85.3c-3.9.3-7.7.8-11.5 1.5 2.8-1.5 7.8-1 11.3-1.8.2 0 .3.1.2.3z" fill="#b0c3da"/><path d="M134.7 110.8c0 .7-1 .8-.9 1.5-.9 0 .3-1.5.9-1.5z" fill="#a9e1fd"/><path d="M116.2 177.5c1.3-.3 2.6.2 3.9-.3 1.6 1.3 1.9-2.3 3.2-1 1.1 3 16.2-.4 17.4 1.8-.4.4 0 .8 0 1.2-.7-.7-1.4.2-2.1 0-2.4.4-11.5-1.3-11.6 1.5-.8-.2-1.5-.7-2.2-1 .3-.4.9 0 .9-.4s-.5-.4-.8-.6c-1.3-.8-2.7-.7-4-.3-1.2 1-4.6-.5-4.6 1.1-.3-.6 0-1.3-.1-2z" fill="#9bd6f9"/><path d="M124.8 179.6c1-.1 1.6.5 2.2 1 .2.7.2 1.8-.8 1.4-1.4-.4.6 1.7-1.3 1.5-.7-.1-2.1.3-2-1 0-1.2-1 .4-1.6.2-.5-.1-1.1-.5-1.5.3 0 .1-.3.2-.4 0-.1-.2 0-.4.1-.4 1-.6 1.7-1.7 3.1-1.5 1 0 1.4-1.2 2.2-1.5z" fill="#f8fcfe"/><path d="M116.4 161.8l-.2.2c-1.5-2.1 2-2.2 3.4-2.6 3.8-.8 8.1-2 11.7-3.2.2 1.6 1.2 3.2 1.7 4.8.4 1.3-7 0-8 .7-.7 0-1.1.4-1.3 1-.4-.1-.7-.2-1.2 0-.4.3-.7-.3-1-.5-1.3-1.2-3.8-1.2-5.1-.4z" fill="#98d5fa"/><path d="M126.2 157.8c-2.9 1.4-6 1.7-9.1 2.5-1 .3-1.1.4-1 1.7-.3 1.2 0 2.3-.2 3.5-1.1 0-.6-2-1-2.7.6-.8.4-1.7.4-2.6 3.4-1.1 7-1.8 10.4-2.7 0 .3.2.3.5.3z" fill="#b7edfd"/><path d="M141.2 73.7l.1.3c-3.5 2.4-3.7 1.4-.1-.3zM138.8 78.8c0-.7-.4-1.4-.7-2.1l.2-.2c.3.7.8 1.4.5 2.3z" fill="#accde7"/><path d="M100.5 161c-1.3-.7-5.6.6-5.5-1.2.7-2.2 1-15.9 2.9-15.4 4 .4 8.3.5 12.5-.1 1-.2.6 1.1.8 1.7.4.8.2 1.8.4 2.7 1.1 3-2.7 2.2-.7 3.4.8.5 1.7 1.7 1.1 2.6-.3.3-.3.7-.2 1 .6 1.6 1.7 3.3 1.4 5-4 .6-8.7.9-12.7.3z" fill="#fdfefe"/><path d="M111.7 153.2c-.5-.8-3.1-1.5-1.4-2.2 2.3-.7.8-3.3.9-5 .2-.3.1-.6.1-.9.5 1.4 0 3.4 1 4.3.4.1.3-.3.5-.5.1-.3.4-.5.7-.4 1 .4-.4 1.8.1 2.2.5.2.8-.6 1.2-.9 4.5-2.1 1 1.9 3.7 1.3l.4.1c.2.8 1 1.3.8 2.2-.2.8.2 1.2 1 1-2.1.9-1.2-2.5-2.7-2.9-.5-.1-1.2-.3-.9-1.2.1-1.2-2.9.5-3.2.8-.5.4 0 .8.4 1 0 .8-.9.5-1.3.6-.7 0-.3 1 .2.7l1.3-.8c.4-.2-.2-.3-.2-.4 1-.7 1.8.5.6.9-2 1.1-1.9 1.6-1.2 3.6-1.3 0-2.2-1-1.6-2.1.2-.6-.4-1-.4-1.4z" fill="#a5e3fd"/><path d="M100.5 161c4.2 0 8.8.3 12.7-.7.8-.5 1 3.7.4 3.8-.3 0-.3-.3-.3-.5 0-.8-.3-1.4-.5-2-3.8-1-8.5.2-12.6-.3-.4-.6.2-.2.3-.3z" fill="#b5d2e5"/><path d="M143.8 69c0 .5-.2.8-.8.9-1.2 0 1.3 2.1-1 3.3.2-.4.7-.8-.1-1.1-.6-.5.7-1.1.4-1.8 0-.3.1-.6.4-.6.5 0 .7-.5 1.1-.7z" fill="#cdeefe"/><path d="M154.7 39.2c0 .4 0 .9-.4 1.3 0-.5 0-1 .4-1.3z" fill="#d0e2e2"/><path d="M127.7 86.8c0 1-.6 1.8-.7 2.6.8 1.2 1.2 2.7 2.8 3.3-.7 1.2-5-.6-6.5-.3-.7 0-.9-.4-1-1.1 0-8.7-3.7-7.8 5.7-11.3l-.3 5.5c0 1.1 0 1-1 1.3l-2.9.4c1.2-.1 2.6-.5 3.9-.4z" fill="#91dbfe"/><path d="M122 82.5l-.2 1.5c-.5.5.3 1.6.2 2.3.2.8-.1 1.3-1 1.3-1 0-2.4.6-3.3 0-13.6 1.8.4-3.4 4.3-5z" fill="#94d6fe"/><path d="M92 89.8c-.3-.6-.4-1.2-1.5-1-.8-.2-2.3-1-3.3-1.1 1.4.4 3.3-1.4 4.2 0 .2.5.8.4 1.3.5.8.1 2.3-.4 2.6.6 0 .5-.4.2-.7.2-.9 0-1.8-.6-2.8-.2.1.3.3.7.2 1z" fill="#c7eafd"/><path d="M81.2 71.2c0-1 1.1-2.3.6-3.1-.6-.2-1-1-1.8-.6.8-1.3 3-.2 3.5.9.2.5 0 1-.5 1-1.2 0-1 1.3-1.8 1.8z" fill="#d2edfe"/><path d="M128.8 116.7c-.2.4-.8.4-1 1-.4 1-.7 1.2-1.5 1.1l-8-10.5c-.4-.4-.1-.4.2-.5 1.7 0 1.5-2.8 3.6-1.3 1.4.7 1-1.8 2-1.2 2.7 2.3 7.4 4.8 6.4 8.9-2-.5-1.7 1.2-1.7 2.5z" fill="#fcfcfe"/><path d="M124.1 105.3c-.4 0-.5.3-.8.5-.2-1.8-2.8-2.5-3.9-4-1-.9-2.3 1.8-3 2.4-.5-.1-.3-.3-.2-.6.5-1 3.5-2.4 1.1-3.1-.5 0-.8-.4-1.2-.7-.6-.9-1.9-1.2-2.3-2.2 0-1.2 3.6 2.5 4.3 2.9 2 1.1 4.6-8.5 4-10.2-.5-.3-.4-.7-.4-1.1.2-2-2-.2-2.9-1.2-.4-.1-.9.3-1.1-.3.8-.2 4.6 0 4-1.2 0-.7-.1-1.5-.4-2.2-.1-.3-.3-.7 0-.8.4-.2.3.4.5.5.7 2.5.7 5 .9 7.5 0 .4 0 .6.5.7 2.1-.1 4.6 1.1 6.6.5.8.2 1.6.3 2.2-.3.4-.4.9-.6 1.3-.2.4.5-.2.7-.3 1l1.8.2c1-.3-.6-2.5 1.5-1.5-1 0-1.1 0-1 1.1.7 2-3.2 3-2.4.5-3.3.8-6.6-1-10-1-.3 0-.5.1-.5.5-.7 5.2-2.4 2.8 2.6 5.5-2-.1-3.8-2.6-4.6.5 0 .5-.3.9-.5 1.3-1 1.6 3.7 3.2 4.2 5z" fill="#d6edfb"/><path d="M126.3 118.8c.7-.1 1-.8 1.5-1.1.5.8 1.6-1.3 1.5.8-1.2 1.7-1 1.5-2.8.7l-.2-.4z" fill="#c8e8fc"/><path d="M118.8 88c1 .2 3.1-.9 3.2.3-.2 1.5.9 4.1-1.6 3.4-2.6-.3-5.2-1-7.8-1-.4 0-.9-.3-.8-.6.9-2.3 5-1.1 7-2z" fill="#94dafe"/><path d="M112.2 60.3c-.3-.6-1.4-1.2-1-1.9.2-.2.5-.3.7 0 .5.6 1 .7 1.5 0 1-.8 1.2 1.1.6 1.6 0 1.5-1.6 2.1-1.8.3z" fill="#f1f6fe"/><path d="M112.2 60.3c.7 1.6 1.2.8 1.8-.3l.3.3c.2 1-1 1.1-1 2-.1.2-.4 0-.5-.1-.5-.6-1.1-.5-1.7-.3-.9.4-.4 1.4-.8 2l-.1-1.4c.4-.5.8-1 1.5-1 .6-.1.4-.7.5-1.2z" fill="#c1e4f7"/><path d="M103 55.3c.1.7.9.6 1.1 1 .2.3.6.6.3.9-.8.6-1.3-1-2.2-.9l.8-1z" fill="#c1e2fa"/><path d="M106 56.9l-1-.9c.6 0 .9.3 1 .9z" fill="#b0e4fd"/><path d="M92.8 41.7c-1.5.2-.4-1.8-1.7-1.8-.7 0-1-1.1-.1-.8.8.6 1.7 0 2.6.1.6 0 1.4 0 2-.2 1.1.1-.6 2-.1 2.8-1.2 2.1-.2 2.3 1.2.7.1 0 .3-.3.5-.2 0 1.2.4 2.8.6 4.1.3 1-1.1 1.3-1.5.4-.1-.2-.1-.5-.3-.6-1.6.3-2.4-2.5-1.6-3.6.3-.6-1-1.2-1.6-1z" fill="#fafcfe"/><path d="M99 48.2c.4 1.2 1.3 2.4 1.7 3.6 0 .3.6.5.3.8-.6.3-2 .6-1.8-.6 0-1.2-.3-2.6-.2-3.8z" fill="#8dddfe"/><path d="M108.2 58.4c.4.4 1.3-.3 1.4.6 0 .5-.3.8-.8.8-.7.2-1.3-1.5-.6-1.4z" fill="#f8f5fd"/><path d="M102.5 41c-.8.1-.8-.7 0-.8 1.4-.6 2.7-1.2 3.8-2.2a8.5 8.5 0 01-3.8 3z" fill="#90dafd"/><path d="M101 39.8c-.6-.8.6-1.1.8-1.8.8 1.2-.4 1-.8 1.8zM102.5 40.2c-.4.3-1 .2-1.5 0v-.4c.4.4 1 .4 1.5.4z" fill="#d2eefb"/><path d="M105.2 52.7c-.8-.1-.2-.8-.5-1 .7 0 .2.7.5 1z" fill="#c6e8fb"/><path d="M101 40.2c-3.7 3.3-4.7-3.7-1.4-2.8.5.4 1.2.7 1 1.6-.2.4-.1 1 .4 1.2z" fill="#90dafd"/><path d="M116.3 99.7c.6.3 2 1.2 1.3 2-.4.4-.8.4-1.1 0-1.1-1.2-3.9-2.4-4-4 1-.4 3 1.4 3.8 2z" fill="#93dafe"/><path d="M116.3 99.7c-2-1-3.5-3.1-5.8-3.8-.2 0-.6 0-.6-.4 0-.5 1-1.3 1.4-.7.6 1.2 2 1.5 2.9 2.5-1 .5 2 1.7 2.1 2.4z" fill="#aad9f6"/><path d="M113.5 100.9c.5 0 .8.6 1 1-.5.3-.8-.7-1-1z" fill="#93dafe"/><path d="M103.5 106.3c-.5 0-1 0-1.2-.6.5 0 .8.5 1.2.6z" fill="#c4e4f4"/><path d="M140.4 172c-.8 1-2 .8-3 .8-1.4-.1-9 .7-8.7-1.1 0-1.9-.8-4 .5-5.6 1.7-.6 4 0 5.8-.3 1.2 0 .3 2 1.1 2.6.7 1 .8-.4.6-.9-.6-2 3.1-2.3 3.2-.7-.6 2 2 3.3.5 5.2z" fill="#9dd5f9"/><path d="M115 162.8c.7.7.4 1.7.5 2.6.3.4-.1.6-.3.9-1 1 .1 2 .7 3-.2 1 .7 3.7-.4 4-2.7-.2-5.5-.1-8.2-.1-3 .2-.2-2.5-4.6-2 3.8-2.8 10-2.2 11.4-7.9.2-.3.4-.6.9-.5z" fill="#9ad5f8"/><path d="M115 162.8c-.9.5-.8 1.6-1.5 2.2-1-.7.6-2.7-1.2-2.7h-.3c-.8-1.4-2.2-.9-3.3-1l3-.3c2-.4 1.4 1.7 1.9 3.1.3-1.1 0-2-.1-3 0-.2.3-.7-.3-.8l-.3-3c0 .5.3 1 0 1.4-.5-1.2-1.6-2.6-1.4-3.9 1-.5.1-1.1.2-1.6 1.4 1.3-.7 2.6 2 3.5.4 1.2 3.2 2 1 3.3-.1.5.3 0 .6.2.6.7.5 2-.3 2.6z" fill="#f4fdfe"/><path d="M115.9 169.3c-1.9-1-1.5-2.7-.4-4 1 .2.3 3 .4 4z" fill="#f2fbfd"/><path d="M103 171.3c.8-.1 1.6-.5 2.3.3-.7-.3-1.5-.2-2.3-.3z" fill="#d3e8ed"/><path d="M133.2 114.3c.3 1.2 3.1 1.3 2.4 2.6-.3.4.2.7.5.9.6.2 1 .5.3 1-.7.8.8 1 .5 2-.2 1 .8 2 .4 3.2-2.3-1.2-5.2-3-5.5-5.8.2-.9.6-1.8.2-2.7-.3-.6.1-1.1 0-1.7.7-.4.8.2 1.2.5z" fill="#fcfdfe"/><path d="M115 160.2c-.2.2-.5.4-.9.2 0-.3.3-.4.6-.4l.3.2z" fill="#b5d2e5"/><path d="M123.7 104.7l-4.3-3.3c-.6-.7.7-1.7 1-2.4.6 0 1.1 0 1.4-.9.1-.4.6-.4 1 0 .8.4 1.5 1.5 2.6 1.2.6-.2 1.5.7.7 1.2-.3.2-.5 0-.7 0-.3-.3-2.1-1-2-.3.5.8-.2 1.2-.6 1.4-.6.4-.5.8-.2 1.2.4.5.4 1.3 1.2 1.5.3 0 0 .3-.1.4z" fill="#91dafe"/><path d="M128.5 99.8c-1-.7 3-1.7 3-3 .3-.8 1.4-.6 1.8.2.2.3.2.6.5.8 2.3 1-1.2 1.5-1.6 2.6-1 1-2.8.2-3.7-.6z" fill="#f9fcfe"/><path d="M128.5 99.8c1.2.4 3 1.5 4 0 .2-.4.7-.5 1.2-.6-1.1 1-2.5 1.9-.7 3 .2.2.4.7.6 0 1 0 1.9.7 2.8 1-.9.7-1.8-.2-2.8 0-.6 0-1.4.2-1.2-1-.7-1.2-3-1.2-4-2.2v-.2zM125 102.7c0 .3.4.3.6.4 1.3.8-.5 1.3-1.3 1.4-.3-.8.3-1.3.7-1.8zM127.8 108.3c-1.3-.7-2.4-1.7-3.5-2.8l.2-.2c1.2 1 2.3 2 3.5 2.8l-.2.2zM126.8 99.2c-.7.1-1 0-1.2-.4.5-.1.7.2 1.2.4zM124 87l2.8-.5c1.8 0 .3-4.7 1.2-6.2.2 2-.6 4.3 0 6.2v.3c-1.3.3-2.7.6-4 .2z" fill="#d6edfb"/><path d="M128.5 115.3c-.2-1.1 1.3-2.3 2-1.1-.2 1.3-2 3-2 1.1z" fill="#92d8fe"/><path d="M132.7 112.2l.1.3c0 .5-.3 1-1 .8-.2-.6-.1-1.3-.7-1.8a.2.2 0 010-.4c.5-.1 1 .9 1.6 1z" fill="#fcfdfe"/><path d="M131.8 113.3l1-.8c.2.6 0 1.3.4 1.8-.4-.2-.7-.6-1.2-.5l-.2-.5zM128.5 115.3c.3.3.1.7.5.9 0 .2 0 .3-.2.5 0-.5-.4-.9-.3-1.4z" fill="#c8e8fc"/><path d="M112.8 158.7c.1-.7-.3-1.4 0-2a8 8 0 01.4 3.6c-.4-.5-.3-1-.4-1.6z" fill="#b5d2e5"/><path d="M114.3 152.2c.6-.2 1.5.4.6.6-.7.2-1.2.5-1.7 1-.6.6-1-.6-1-1.2.3-.7 1.6.1 2.1-.4z" fill="#f4f3fd"/><path d="M124 87c.4 0 .9-.1 1.3.2l-2.7.3c.5-.6 1-.5 1.4-.5z" fill="#fcfdfe"/></svg>