<?xml version="1.0" encoding="utf-8"?>
<!-- Generator: Adobe Illustrator 24.1.2, SVG Export Plug-In . SVG Version: 6.00 Build 0)  -->
<svg version="1.2" baseProfile="tiny" id="Layer_1" xmlns="http://www.w3.org/2000/svg" xmlns:xlink="http://www.w3.org/1999/xlink"
	 x="0px" y="0px" viewBox="0 0 700 1000" overflow="visible" xml:space="preserve">
<path fill="#FFFFFF" d="M555,10c5,0,10,0,15,0c0.7,0.3,1.5,0.8,2.2,0.9c28.4,4.9,49,25.1,54.3,53.3c0.6,3.2,1,6.5,1.5,9.8
	c0,1,0,2,0,3c-0.2,0.9-0.6,1.9-0.7,2.8c-1.2,18.7-10.1,33.2-23,46.2C481,249,358,372.2,234.8,495.2c-1.5,1.5-3.7,2.3-5.6,3.4
	c0.2,0.8,0.5,1.7,0.7,2.5c1.6,1.2,3.4,2.2,4.8,3.6c106,106,212.1,212.1,318.1,318.1c17.9,17.9,35.8,35.9,53.7,53.7
	c9.2,9.1,15.9,19.6,18.9,32.3c1.2,5,1.7,10.1,2.5,15.2c0,0.7,0,1.3,0,2c-0.3,1.6-0.7,3.2-0.8,4.8c-2.6,23.4-14.3,40.9-35.1,51.8
	c-6.8,3.5-14.7,5-22.1,7.4c-5.3,0-10.7,0-16,0c-0.8-0.3-1.5-0.7-2.3-0.9c-14.3-2.3-26.4-8.8-36.6-19C374.1,829.1,233.1,688,92,547
	c-8.7-8.7-14.7-18.9-17.6-30.8c-1.1-4.6-1.6-9.5-2.4-14.2c0-1.3,0-2.7,0-4c0.2-1,0.6-1.9,0.7-2.9c1.2-18.5,9.9-32.9,22.8-45.8
	c80.5-80.2,160.8-160.6,241.2-240.9c59-59,118.1-118,177.1-177.1c8.9-8.9,19-15.6,31.2-19C548.2,11.5,551.6,10.8,555,10z"/>
</svg>
