<?xml version="1.0" encoding="utf-8"?>
<!-- Generator: Adobe Illustrator 24.1.0, SVG Export Plug-In . SVG Version: 6.00 Build 0)  -->
<svg version="1.1" id="Layer_1" xmlns="http://www.w3.org/2000/svg" xmlns:xlink="http://www.w3.org/1999/xlink" x="0px" y="0px"
	 viewBox="0 0 200 200" style="enable-background:new 0 0 200 200;" xml:space="preserve">
<g>
	<path style="fill:#333332;" d="M157.685,133.461c-5.2-0.061-11.606-0.792-17.807-2.859c-1.799-0.6-3.468-1.483-5.02-2.58
		c-2.023-1.43-3.12-3.388-3.321-5.85c-0.477-5.832-0.993-11.661-1.816-17.456c-0.374-2.634,0.459-4.707,2.493-6.409
		c3.275-2.74,7.092-4.356,11.113-5.597c10.344-3.194,20.891-4.948,31.75-4.466c4.463,0.198,8.882,0.762,13.239,1.758
		c1.696,0.387,3.305,1.049,4.869,1.794c2.327,1.109,3.565,3.052,3.805,5.559c0.599,6.259,1.549,12.471,2.389,18.698
		c0.068,0.505,0.394,0.866,0.431,1.375c0.078,1.074-0.198,1.943-0.895,2.8c-3.067,3.772-7.066,6.14-11.519,7.866
		C178.716,131.457,168.165,133.454,157.685,133.461z"/>
	<path style="fill:#E08C48;" d="M63.692,54.013c0,3.178,0.01,6.242-0.007,9.306c-0.004,0.792-0.6,1.08-1.253,1.297
		c-3.348,1.114-6.695,2.232-10.039,3.357c-3.814,1.282-7.626,2.571-11.437,3.862c-0.41,0.139-0.819,0.288-1.208,0.475
		c-1.866,0.898-2.604,3.376-1.523,5.153c0.549,0.902,1.41,0.642,2.169,0.427c1.219-0.346,2.409-0.792,3.612-1.193
		c4.581-1.523,9.16-3.051,13.745-4.564c1.268-0.419,2.562-0.711,3.915-0.679c2.806,0.066,4.714,1.72,5.201,4.489
		c0.299,1.701,0.091,3.398,0.038,5.097c-0.118,3.776-0.243,7.551-0.365,11.326c-0.076,2.36-1.385,3.75-3.529,4.479
		c-3.545,1.206-7.09,2.412-10.638,3.61c-6.862,2.317-13.725,4.63-20.588,6.942c-1.391,0.469-1.798,0.138-1.667-1.334
		c0.173-1.947,0.199-3.895,0.011-5.844c-0.138-1.426,0.461-2.342,1.974-2.855c2.843-0.965,5.702-1.883,8.55-2.83
		c3.936-1.308,7.876-2.604,11.801-3.946c2.903-0.993,3.931-2.522,3.862-5.574c-0.032-1.422-0.637-1.9-2.041-1.478
		c-1.955,0.588-3.887,1.251-5.825,1.894c-4.376,1.453-8.743,2.932-13.127,4.359c-1.317,0.429-2.681,0.383-4.039,0.09
		c-1.956-0.422-3.13-1.625-3.672-3.524c-0.508-1.779-0.603-3.598-0.588-5.429c0.029-3.376,0.121-6.75,0.054-10.129
		c-0.061-3.047,1.265-4.819,4.11-5.787c10.578-3.599,21.159-7.187,31.74-10.778C63.131,54.167,63.339,54.115,63.692,54.013z"/>
	<path style="fill:#E08C48;" d="M101.643,67.123c-0.473-0.07-0.803,0.13-1.148,0.244c-5.551,1.848-11.1,3.701-16.649,5.554
		c-1.288,0.43-1.516,0.719-1.523,2.077c-0.024,4.337-0.037,8.675-0.049,13.012c-0.006,2.178-0.333,2.605-2.388,3.26
		c-2.507,0.799-5.007,1.617-7.5,2.459c-0.656,0.222-0.953,0.293-0.906-0.623c0.345-6.745,0.286-13.499,0.43-20.249
		c0.132-6.163,0.184-12.327,0.189-18.491c0.002-2.801,0.808-3.789,3.494-4.416c1.994-0.466,3.893-1.231,5.828-1.88
		c1.276-0.428,1.274-0.434,1.274,0.959c0,3.904,0,7.807,0,11.711c0,0.279-0.005,0.558,0.004,0.836
		c0.043,1.435,0.259,1.603,1.606,1.156c5.287-1.753,10.571-3.514,15.854-5.281c1.455-0.487,1.88-1.097,1.896-2.698
		c0.041-4.088,0.071-8.177,0.105-12.265c0.011-1.357,0.123-1.501,1.397-1.922c2.704-0.894,5.413-1.773,8.101-2.712
		c0.775-0.271,0.984-0.169,0.973,0.693c-0.079,6.472-0.161,12.943-0.374,19.414c-0.137,4.147-0.026,8.302-0.09,12.453
		c-0.047,3.065-0.204,6.127-0.292,9.192c-0.019,0.674-0.368,0.983-0.964,1.18c-2.908,0.961-5.809,1.945-8.714,2.916
		c-0.953,0.319-0.957,0.314-0.898-0.71c0.282-4.918,0.405-9.839,0.342-14.765C101.639,67.859,101.643,67.49,101.643,67.123z"/>
	<path style="fill:#2F6488;" d="M61.294,180.548c2.982-1.177,5.921-2.328,8.85-3.5c0.698-0.279,1.247-0.063,1.811,0.338
		c6.298,4.484,13.005,8.266,19.916,11.719c2.233,1.116,4.198,1.075,6.433-0.005c13.823-6.683,26.248-15.307,36.986-26.313
		c4.661-4.777,8.9-9.905,12.691-15.399c0.53-0.769,1.175-1.307,2.06-1.639c3.884-1.457,7.752-2.959,11.631-4.429
		c0.254-0.096,0.565-0.447,0.821-0.099c0.235,0.319-0.023,0.654-0.194,0.941c-5.014,8.398-10.674,16.323-17.25,23.58
		c-13.183,14.549-28.908,25.521-46.827,33.452c-2.163,0.957-3.918,0.993-6.144-0.046c-7.531-3.516-14.97-7.163-21.868-11.834
		c-2.873-1.945-5.708-3.942-8.401-6.133C61.626,181.031,61.391,180.916,61.294,180.548z"/>
	<path style="fill:#2F6488;" d="M177.846,37.923c-1.146-0.075-2.289-0.073-3.434,0.034c-1.587,0.148-2.269-0.453-2.064-2.026
		c0.263-2.018-0.616-3.142-2.339-4.034c-11.519-5.969-23.623-10.365-36.162-13.614c-8.158-2.114-16.421-3.696-24.762-4.887
		c-1.411-0.202-1.676-0.513-1.632-1.954c0.063-2.076,0.041-4.15,0-6.226c-0.026-1.309,0.348-1.629,1.638-1.381
		c12.733,2.445,25.502,4.72,37.882,8.716c10.517,3.395,20.669,7.62,30.396,12.884c3.061,1.656,4.374,4.126,4.332,7.485
		c-0.015,1.208,0.01,2.416,0.008,3.625c-0.002,1.142-0.29,1.404-1.449,1.383C179.455,37.912,178.65,37.923,177.846,37.923z"/>
	<path style="fill:#2F6488;" d="M83.035,8.52c0.001,1.022,0.001,2.044,0,3.067c-0.001,1.304-0.213,1.567-1.491,1.778
		c-3.236,0.533-6.483,1.004-9.709,1.595c-17.847,3.267-35.043,8.507-51.218,16.869c-1.829,0.945-2.77,2.108-2.47,4.238
		c0.196,1.393-0.488,2.016-1.925,1.897c-2.013-0.168-4.021-0.114-6.034-0.044c-1.113,0.039-1.371-0.227-1.37-1.34
		c0.001-1.332,0.012-2.664,0.008-3.996c-0.01-3.154,1.261-5.502,4.115-7.033c4.887-2.621,9.851-5.075,14.959-7.236
		c12.91-5.462,26.321-9.239,40.063-11.898c4.344-0.84,8.69-1.669,13.034-2.507c1.797-0.347,2.052-0.132,2.038,1.73
		C83.028,6.6,83.034,7.56,83.035,8.52z"/>
	<path style="fill:#E08C48;" d="M119.825,56.827c0-6.445-0.002-12.891,0.001-19.336c0.001-2.166,0.422-2.7,2.504-3.266
		c2.153-0.586,4.251-1.334,6.344-2.102c1.345-0.493,1.819-0.173,1.736,1.255c-0.309,5.295-0.1,10.594-0.186,15.891
		c-0.073,4.461-0.122,8.921-0.177,13.382c-0.019,1.539,0.195,1.709,1.673,1.213c6.897-2.314,13.788-4.646,20.684-6.965
		c0.645-0.217,1.298-0.414,1.959-0.575c0.744-0.181,1.228,0.146,1.334,0.896c0.343,2.408,0.253,4.818-0.085,7.218
		c-0.15,1.066-0.959,1.55-1.869,1.866c-2.603,0.903-5.212,1.789-7.823,2.668c-8.334,2.803-16.669,5.6-25.006,8.395
		c-1.052,0.352-1.059,0.338-1.059-0.737c-0.001-6.6,0-13.201,0-19.801C119.844,56.827,119.835,56.827,119.825,56.827z"/>
	<path style="fill:#2F6488;" d="M8.848,75.793c0-3.377-0.002-6.753,0.001-10.13c0.001-1.327,0.285-1.63,1.57-1.562
		c1.95,0.102,3.897,0.101,5.846-0.003c1.461-0.078,1.925,0.367,1.894,1.829c-0.101,4.707-0.035,9.415-0.114,14.123
		c-0.114,6.847,0.942,13.571,2.623,20.202c1.968,7.763,4.765,15.237,7.81,22.627c0.212,0.515,0.413,1.035,0.61,1.556
		c0.321,0.848,0.08,1.446-0.795,1.759c-1.077,0.386-2.156,0.77-3.228,1.17c-0.753,0.281-1.501,0.578-2.243,0.887
		c-1.34,0.559-1.922,0.383-2.503-0.966c-0.907-2.103-1.78-4.222-2.592-6.363c-3.72-9.806-6.523-19.871-8.369-30.196
		c-0.502-2.811-0.498-5.671-0.482-8.522c0.012-2.137,0.002-4.275,0.002-6.412C8.869,75.793,8.859,75.793,8.848,75.793z"/>
	<path style="fill:#E18E4B;" d="M128.906,95.787c-0.593,0.522-1.118,0.981-1.64,1.446c-1.26,1.122-2.106,2.396-1.84,4.217
		c0.179,1.231-0.725,1.748-1.702,2.115c-2.667,1.001-5.338,1.99-8.008,2.981c-16.659,6.186-33.32,12.368-49.977,18.558
		c-8.096,3.009-16.187,6.033-24.282,9.045c-1.507,0.561-1.836,0.432-2.605-0.963c-0.299-0.542-0.606-1.082-0.868-1.642
		c-0.696-1.487-0.515-2.063,1.002-2.671c2.212-0.886,4.456-1.693,6.69-2.524c17.7-6.584,35.404-13.156,53.1-19.753
		c9.633-3.591,19.25-7.222,28.874-10.838C128.032,95.615,128.403,95.565,128.906,95.787z"/>
	<path style="fill:#E18E4B;" d="M159.19,136.786c-0.126,0.488-0.416,0.559-0.669,0.653c-21.726,8.077-43.454,16.146-65.18,24.224
		c-6.903,2.567-13.802,5.145-20.696,7.736c-2.454,0.922-3.837,0.518-5.112-1.325c-0.547-0.791-1.392-1.375-2.209-2.155
		c1.851-0.693,3.608-1.353,5.366-2.01c21.48-8.027,42.959-16.059,64.444-24.074c2.546-0.95,4.968-2.224,7.66-2.803
		c2.779-0.598,5.566-0.891,8.382-0.464c2.373,0.36,4.745,0.339,7.127,0.22C158.572,136.775,158.842,136.786,159.19,136.786z"/>
	<path style="fill:#E18E4B;" d="M45.174,141.941c-0.74-0.019-1.188-0.344-1.528-0.808c-0.585-0.8-1.13-1.632-1.545-2.534
		c-0.429-0.932-0.296-1.342,0.634-1.791c1.871-0.904,3.857-1.526,5.8-2.25c22.165-8.256,44.335-16.496,66.501-24.75
		c2.901-1.08,5.779-2.223,8.676-3.315c1.425-0.537,1.754-0.289,1.846,1.232c0.064,1.05,0.074,2.117,0.286,3.139
		c0.188,0.91-0.235,1.254-0.939,1.517c-2.146,0.8-4.292,1.601-6.439,2.399c-17.295,6.428-34.591,12.854-51.885,19.284
		c-6.761,2.514-13.519,5.038-20.28,7.552C45.897,141.765,45.471,141.856,45.174,141.941z"/>
	<path style="fill:#E18E4B;" d="M126.555,118.671c0.026,2.473-0.239,2.895-2.575,3.763c-12.531,4.66-25.066,9.308-37.599,13.963
		c-11.575,4.299-23.148,8.603-34.723,12.902c-1.446,0.537-1.931,0.346-2.795-0.923c-0.627-0.92-1.287-1.823-2.005-2.673
		c-0.493-0.583-0.292-0.746,0.31-0.968c5.693-2.096,11.378-4.211,17.063-6.328c16.675-6.211,33.35-12.425,50.024-18.64
		c3.45-1.286,6.895-2.586,10.345-3.872c1.423-0.53,1.68-0.378,1.854,1.107C126.519,117.556,126.523,118.115,126.555,118.671z"/>
	<path style="fill:#E18E4B;" d="M139.303,135.311c-4.488,1.666-8.75,3.249-13.012,4.832c-15.985,5.937-31.97,11.873-47.954,17.814
		c-4.64,1.724-9.279,3.451-13.908,5.203c-1.182,0.447-2.113,0.284-3.005-0.674c-0.839-0.901-1.826-1.667-2.758-2.48
		c-0.726-0.633-0.728-0.675,0.165-1.007c8.267-3.072,16.54-6.127,24.801-9.215c14.782-5.524,29.565-11.047,44.326-16.626
		c2.213-0.836,4.221-1.049,6.388,0.178C135.804,134.162,137.48,134.603,139.303,135.311z"/>
	<path style="fill:#E18E4B;" d="M56.324,156.634c-0.746,0.028-1.3-0.418-1.663-1.063c-0.359-0.638-0.824-1.152-1.383-1.604
		c-0.436-0.353-0.909-0.719-0.797-1.364c0.121-0.7,0.676-1.044,1.293-1.195c2.958-0.726,5.736-1.964,8.575-3.02
		c15.262-5.675,30.512-11.38,45.766-17.074c5.422-2.024,10.842-4.055,16.268-6.07c2.157-0.801,2.489-0.631,3.05,1.561
		c0.21,0.82,0.514,1.593,0.93,2.319c0.391,0.681,0.121,1.019-0.523,1.254c-5.815,2.123-11.636,4.228-17.439,6.383
		c-17.295,6.424-34.583,12.869-51.874,19.304C57.835,156.322,57.155,156.643,56.324,156.634z"/>
	<path style="fill:#2F6488;" d="M181.245,73.441c0,2.602,0.007,5.204-0.003,7.806c-0.004,1.223-0.191,1.398-1.409,1.396
		c-2.137-0.003-4.273-0.018-6.409,0.109c-1.11,0.066-1.466-0.276-1.468-1.398c-0.009-5.297-0.006-10.594,0.01-15.891
		c0.003-1.086,0.306-1.342,1.419-1.344c2.199-0.005,4.398-0.009,6.596-0.007c1.057,0.001,1.248,0.183,1.251,1.245
		c0.008,2.695,0.003,5.39,0.003,8.085C181.239,73.441,181.242,73.441,181.245,73.441z"/>
	<path style="fill:#F6D755;" d="M95.295-0.081c0.915,1.838,1.746,3.453,2.521,5.096c0.267,0.565,0.59,0.823,1.241,0.893
		c1.597,0.171,3.182,0.456,4.771,0.698c0.205,0.031,0.485-0.044,0.569,0.208c0.081,0.241-0.16,0.381-0.309,0.526
		c-1.198,1.165-2.392,2.336-3.61,3.481c-0.349,0.328-0.465,0.635-0.373,1.126c0.35,1.877,0.642,3.765,0.982,5.808
		c-1.778-0.925-3.431-1.757-5.052-2.646c-0.52-0.285-0.918-0.308-1.45-0.014c-1.621,0.894-3.277,1.724-5.007,2.625
		c-0.033-1.143,0.33-2.112,0.438-3.113c0.07-0.644,0.125-1.31,0.335-1.914c0.399-1.143-0.108-1.838-0.926-2.542
		c-1.031-0.887-1.97-1.88-2.942-2.834c-0.144-0.141-0.383-0.275-0.264-0.533c0.092-0.199,0.32-0.147,0.497-0.174
		c1.651-0.246,3.299-0.517,4.955-0.717c0.534-0.065,0.816-0.278,1.042-0.749C93.513,3.47,94.353,1.815,95.295-0.081z"/>
	<path style="fill:#F6D755;" d="M182.431,59.504c-1.761-0.918-3.321-1.673-4.818-2.537c-0.71-0.41-1.264-0.413-1.968-0.015
		c-1.527,0.864-3.101,1.645-4.827,2.549c0.337-2.015,0.595-3.839,0.967-5.64c0.135-0.655-0.063-1.013-0.49-1.448
		c-1.253-1.279-2.452-2.61-3.685-3.934c0.466-0.302,1.196-0.238,1.864-0.361c1.123-0.206,2.263-0.321,3.399-0.452
		c0.569-0.065,0.932-0.301,1.191-0.853c0.786-1.675,1.638-3.32,2.553-5.153c0.843,1.698,1.659,3.212,2.347,4.781
		c0.373,0.851,0.897,1.188,1.805,1.28c1.676,0.169,3.339,0.475,5.143,0.744c-0.929,0.941-1.645,1.908-2.58,2.563
		c-1.853,1.299-2.172,2.906-1.539,4.954C182.122,57.058,182.205,58.21,182.431,59.504z"/>
	<path style="fill:#F6D755;" d="M7.801,59.707c0.304-1.785,0.565-3.58,0.933-5.353c0.135-0.648-0.048-1.028-0.482-1.457
		c-1.312-1.297-2.584-2.634-3.916-4.001c1.811-0.27,3.593-0.584,5.387-0.777c0.722-0.078,1.087-0.37,1.38-0.996
		c0.754-1.616,1.57-3.203,2.466-5.014c0.885,1.779,1.713,3.354,2.452,4.969c0.304,0.665,0.662,0.971,1.424,1.05
		c1.767,0.182,3.52,0.504,5.251,0.765c-1.252,1.323-2.433,2.658-3.715,3.888c-0.54,0.518-0.718,0.957-0.558,1.689
		c0.329,1.507,0.557,3.036,0.808,4.56c0.036,0.221,0.176,0.521-0.088,0.674c-0.205,0.119-0.407-0.087-0.593-0.183
		c-1.401-0.725-2.817-1.425-4.187-2.206c-0.592-0.337-1.049-0.299-1.619,0.02c-1.322,0.74-2.676,1.424-4.024,2.116
		C8.459,59.583,8.222,59.831,7.801,59.707z"/>
	<path style="fill:#2F6488;" d="M65.543,172.606c-1.328,0.536-2.521,1.026-3.72,1.501c-1.637,0.648-3.281,1.278-4.915,1.931
		c-0.594,0.237-1.153,0.266-1.642-0.192c-1.484-1.393-2.956-2.798-4.442-4.206c0.325-0.373,0.745-0.412,1.108-0.554
		c2.359-0.921,4.73-1.812,7.081-2.755c0.754-0.302,1.316-0.213,1.931,0.341C62.409,169.987,63.933,171.236,65.543,172.606z"/>
	<path style="fill:#2F6488;" d="M52.726,161.456c0.722-0.033,1.145,0.215,1.507,0.572c1.081,1.065,2.161,2.13,3.223,3.214
		c0.665,0.679,0.608,0.991-0.277,1.334c-2.395,0.929-4.801,1.827-7.203,2.736c-0.745,0.282-1.383,0.153-1.934-0.452
		c-1.126-1.235-2.258-2.465-3.412-3.673c-0.395-0.413-0.383-0.587,0.183-0.797c2.437-0.902,4.859-1.847,7.29-2.768
		C52.359,161.525,52.636,161.48,52.726,161.456z"/>
	<path style="fill:#2F6488;" d="M43.044,162.199c-0.662-0.03-1.224-0.263-1.683-0.713c-1.001-0.982-1.739-2.167-2.518-3.318
		c-0.303-0.448-0.198-0.829,0.331-1.03c2.369-0.897,4.735-1.805,7.115-2.673c0.63-0.23,1.23-0.052,1.678,0.476
		c1.02,1.202,2.028,2.414,3.049,3.616c0.364,0.428,0.365,0.826-0.181,1.027c-2.462,0.908-4.858,2.009-7.438,2.577
		C43.276,162.187,43.151,162.188,43.044,162.199z"/>
	<path style="fill:#2F6488;" d="M35.452,136.296c-0.021,0.638-0.358,1.062-0.947,1.233c-2.23,0.645-4.4,1.452-6.542,2.34
		c-0.508,0.211-0.891,0.059-1.18-0.409c-0.699-1.131-1.416-2.246-2.224-3.308c-0.645-0.848-0.492-1.547,0.467-1.951
		c2.078-0.877,4.183-1.69,6.239-2.624c0.575-0.261,1.172-0.152,1.577,0.409c0.759,1.052,1.511,2.111,2.247,3.18
		C35.316,135.496,35.465,135.876,35.452,136.296z"/>
	<path style="fill:#2F6488;" d="M36.243,139.297c0.569-0.021,0.908,0.236,1.162,0.611c0.659,0.972,1.329,1.938,1.951,2.935
		c0.916,1.468,0.617,2.332-1.035,2.744c-1.987,0.495-3.91,1.166-5.807,1.916c-0.706,0.279-1.167,0.165-1.534-0.513
		c-0.604-1.116-1.289-2.18-2.026-3.217c-0.605-0.852-0.47-1.524,0.433-1.9c2.139-0.891,4.316-1.69,6.481-2.519
		C36.008,139.299,36.172,139.306,36.243,139.297z"/>
	<path style="fill:#2F6488;" d="M41.01,147.475c0.813-0.014,1.369,0.427,1.855,0.968c0.912,1.015,1.686,2.137,2.479,3.245
		c0.259,0.361,0.277,0.554-0.199,0.731c-2.377,0.887-4.737,1.817-7.117,2.694c-0.644,0.237-1.312,0.158-1.789-0.408
		c-0.837-0.994-1.636-2.021-2.249-3.174c-0.31-0.584-0.347-1.202,0.277-1.556C36.378,148.778,38.659,148.022,41.01,147.475z"/>
</g>
</svg>
