<?xml version="1.0" encoding="utf-8"?>
<!-- Generator: Adobe Illustrator 28.3.0, SVG Export Plug-In . SVG Version: 6.00 Build 0)  -->
<svg version="1.1" id="Layer_1" xmlns="http://www.w3.org/2000/svg" xmlns:xlink="http://www.w3.org/1999/xlink" x="0px" y="0px"
	 viewBox="0 0 1000 1000" style="enable-background:new 0 0 1000 1000;" xml:space="preserve">
<path style="fill:#FAD729;" d="M711.204,743.411c-29.984-9.635-59.518-19.008-88.946-28.702c-4.728-1.557-7.748-1.2-11.717,2.277
	c-11.217,9.827-23.203,18.771-34.631,28.367c-3.638,3.055-6.921,3.605-11.268,1.991c-7.697-2.858-15.548-5.303-23.346-7.886
	c-3.696-1.224-6.947-2.521-7.977-7.121c-1.219-5.446-3.403-5.105-6.611-0.776c-8.34,11.256-17.069,22.224-25.865,33.593
	c-16.199-21.11-32.494-42.112-48.488-63.342c-4.323-5.738-8.12-8.119-16.002-5.496c-46.173,15.364-92.586,30.006-138.935,44.839
	c-2.136,0.684-4.18,2.308-7.214,1.009c10.638-16.237,20.988-32.506,31.876-48.407c4.079-5.957,3.839-9.366-3.617-10.639
	c-17.825-3.044-24.869-13.823-26.86-31.527c-2.16-19.198-3.661-19.343-23.032-17.716c-54.512,4.579-108.929,10.123-163.008,18.485
	c-9.536,1.474-17.208-0.114-24.064-7.158c-6.767-6.951-14.047-13.424-21.342-19.833c-5.746-5.049-8.07-11.178-8.036-18.722
	c0.133-28.854-0.111-57.711,0.194-86.562c0.062-5.868-1.792-9.948-5.978-13.794c-12.356-11.35-24.365-23.078-36.721-34.428
	c-5.767-5.297-10.376-10.944-6.946-19.116c3.284-7.825,10.547-8.43,17.882-8.428c76.845,0.019,153.69,0.012,230.534,0.011
	c10.599,0,21.199-0.016,31.798-0.004c3.674,0.004,6.348,0.07,4.217-5.321c-7.314-18.503-14.123-37.206-21.716-57.407
	c10.459,3.827,19.867,7.208,29.229,10.713c9.325,3.491,18.629,7.044,27.889,10.703c2.961,1.17,6.728,1.021,4.731-2.537
	c-8.584-15.29,2.307-23.583,10.668-32.974c8.002-8.987,15.994-17.983,24.034-26.936c1.57-1.749,3.119-4.407,5.049-4.795
	c11.911-2.395,6.648-9.748,4.777-15.891c-6.048-19.861-12.302-39.66-18.424-59.499c-0.224-0.726,0.096-1.621,0.244-3.443
	c21.117,13.709,41.672,27.05,62.225,40.394c6.881,4.467,13.961,8.664,20.572,13.5c5.039,3.686,7.605,3.298,10.024-2.818
	c7.33-18.532,15.174-36.861,22.749-55.297c9.8-23.852,19.527-47.734,29.316-71.591c0.417-1.015,1.13-1.909,2.625-4.379
	c4.808,11.254,9.222,21.24,13.362,31.338c13.561,33.078,27.124,66.156,40.427,99.338c2.388,5.955,4.245,7.556,10.381,3.439
	c24.588-16.496,49.572-32.402,74.425-48.501c2.599-1.684,4.95-4.018,8.825-3.815c-7.563,24.779-15.039,49.343-22.568,73.89
	c-2.141,6.98-7.119,14.434-5.895,20.715c1.165,5.976,10.359,8.561,15.925,12.766c10.518,7.945,21.131,15.767,31.807,23.499
	c3.773,2.733,7.474,4.956,8.311,10.401c0.856,5.571,5.103,2.396,7.61,1.471c17.006-6.279,33.915-12.822,52.735-19.997
	c-5.301,14.234-10.042,26.945-14.768,39.661c-1.939,5.216-3.426,10.652-5.873,15.616c-3.353,6.799-0.666,7.873,5.635,7.833
	c29.736-0.189,59.473-0.071,89.21-0.071c56.236,0,112.472-0.009,168.707-0.003c2.942,0,5.92-0.161,8.818,0.225
	c5.5,0.733,10.269,2.87,12.341,8.573c2.119,5.832,0.762,10.977-3.562,15.334c-12.445,12.538-24.781,25.188-37.453,37.493
	c-4.537,4.405-6.513,8.959-6.43,15.451c0.367,28.85-0.016,57.709,0.276,86.561c0.078,7.676-2.115,13.603-7.978,18.598
	c-8.059,6.866-15.879,14.025-23.58,21.294c-4.668,4.407-9.879,5.97-16.153,5.043c-48.588-7.181-97.371-12.796-146.29-17.067
	c-31.937-2.788-63.958-4.62-95.944-6.836c-1.435-0.099-2.923,0.11-4.349,0.378c-17.974,3.372-18.768,5.045-8.813,20.001
	c18.69,28.08,37.54,56.053,56.182,84.165C708.25,736.303,710.829,738.87,711.204,743.411z"/>
<path d="M610.713,627.25c7.217-1.394,11.343-0.002,15.964,7.618c16.607,27.382,34.999,53.68,52.712,80.391
	c1.094,1.65,2.151,3.326,4.31,6.673c-23.721-7.649-45.652-14.753-67.607-21.777c-5.239-1.676-12.1-6.817-11.614,5.163
	c0.058,1.42-2.449,3.12-4.004,4.401c-9.081,7.481-18.396,14.688-27.281,22.391c-3.612,3.131-6.812,3.889-10.957,1.642
	c-1.525-0.827-3.283-1.429-5-1.667c-10.088-1.402-15.138-7.194-16.344-17.236c-0.575-4.785-2.504-9.408-4.266-15.695
	c-12.301,15.844-23.727,30.561-35.759,46.059c-12.862-16.636-25.423-32.824-37.919-49.063c-13.069-16.983-13.003-16.885-33.527-10.2
	c-36.5,11.889-73.052,23.62-111.451,36.02c12.394-18.859,23.787-36.193,35.543-54.081c-2.189-0.349-2.953-0.684-3.157-0.474
	c-13.54,13.933-26.794,4.377-40.146-0.378c-3.094-1.102-3.469-3.491-4.006-6.172c-2.306-11.523-5.217-22.948-6.974-34.55
	c-0.923-6.094-3.305-7.594-9.107-7.221c-35.813,2.307-71.509,5.862-107.144,9.983c-27.734,3.207-55.396,7.034-83.071,10.731
	c-2.58,0.345-4.6,0.222-6.354-1.763c-0.581-0.658-1.227-1.304-1.959-1.775c-21.221-13.646-29.266-32.284-26.36-57.884
	c2.408-21.213,0.38-42.918,0.583-64.402c0.045-4.716-1.077-8.225-4.642-11.56c-15.414-14.419-30.565-29.119-46.883-44.742
	c128.556,0,255.771,0,384.763,0c-8.8-9.274-17.249-14.913-28.873-14.127c-20.144-3.428-37.995-13.531-57.205-19.678
	c-2.501-0.8-4.816-2.127-7.831-2.919c0.925,7.993,7.803,14.534,5.108,23.025c-6.328,1.599-9.423-0.941-11.397-7.186
	c-3.436-10.869-7.851-21.428-12.733-34.458c25.236,9.393,48.585,18.084,73.206,27.248c-2.957-5.33-6.94-6.976-10.164-9.387
	c-3.245-2.426-4.619-5.567-6.332-9.079c-8.013-16.431-5.266-29.879,9.27-41.206c3.878-3.022,7.014-7.16,9.966-11.172
	c6.365-8.646,13.287-15.365,25.438-12.907c5.94,1.202,3.972-3.152,3.096-6.074c-4.636-15.467-9.354-30.909-14.01-46.369
	c-0.65-2.158-1.118-4.371-2.139-8.414c25.66,16.628,49.766,32.248,74.583,48.329c17.054-41.402,33.978-82.487,51.835-125.836
	c7.611,18.499,14.271,34.66,20.911,50.829c9.486,23.1,19.074,46.158,28.339,69.346c1.899,4.754,3.429,5.373,7.819,2.452
	c20.804-13.845,41.839-27.344,62.802-40.95c1.91-1.24,3.893-2.367,7.116-4.318c-9.344,30.611-18.284,59.899-27.261,89.309
	c1.299,0.282,1.936,0.635,2.216,0.45c11.323-7.501,20.846-4.728,30.189,4.194c5.48,5.233,12.065,9.408,18.5,13.514
	c8.242,5.257,15.135,10.815,13.683,22.152c-0.686,5.357,2.051,6.176,6.999,4.185c13.617-5.479,27.439-10.449,43.579-16.523
	c-5.589,14.675-10.239,27.722-15.619,40.461c-1.463,3.465-5.796,1.308-8.863,1.37c-2.383-7.724,3.867-13.718,4.23-21.963
	c-10.643,2.696-20.308,7.263-30.312,10.756c-11.256,3.93-21.863,9.866-34.035,10.947c-10.145-1.453-14.048,5.935-19.289,13.352
	c125.728,0,250.425,0,374.955,0c1.524,3.247-1.217,3.967-2.446,5.224c-13.167,13.475-26.304,26.983-39.753,40.173
	c-3.509,3.442-4.485,7.007-4.462,11.669c0.151,30.622-0.049,61.246,0.202,91.867c0.042,5.18-1.35,8.783-5.306,12.112
	c-8.323,7.003-15.238,17.742-24.701,20.749c-9.39,2.984-21.213-1.523-31.942-2.948c-87.55-11.63-175.428-19.338-263.721-22.034
	c-30.013-0.917-60.032-1.628-90.048-2.427c-1.372-0.036-2.745-0.005-5.925-0.005c5.204,5.51,8.022,10.92,13.805,13.584
	c11.207,6.969,18.175,18.179,27.041,27.454c6.262,6.552,12.631,13.122,18.131,20.429c3.331,4.425,8.505,6.058,13.551,7.803
	c21.954,7.591,44.446,13.533,66.867,21.87c-14.435-21.772-28.653-43.033-42.778-64.355
	C613.168,634.904,609.727,631.961,610.713,627.25z"/>
<path style="fill:#D0D2D3;" d="M610.713,627.25c17.004,25.687,34.008,51.374,51.815,78.274c-4.423-1.176-7.815-1.917-11.104-2.98
	c-21.495-6.942-42.946-14.022-64.469-20.878c-3.78-1.204-6.856-2.978-9.484-5.963c-14.922-16.952-29.945-33.814-44.932-50.706
	C558.628,624.68,584.684,625.502,610.713,627.25z"/>
<path style="fill:#D0D2D4;" d="M310.256,443.982c-2.91-8.573-5.819-17.146-9.257-27.275c23.667,9.184,46.423,18.013,69.182,26.845
	c-14.29,1.57-28.604,0.769-42.915,0.4c-3.146-0.948-5.638-2.784-7.528-5.634c-0.278,1.943,0.863,4.006-0.851,5.597
	C316.01,443.937,313.133,443.959,310.256,443.982z"/>
<path style="fill:#D2D3D4;" d="M631.171,443.681c22.636-8.763,45.273-17.525,69.407-26.868c-3.385,9.886-6.336,18.509-9.289,27.13
	c-2.894-0.008-5.787-0.015-8.68-0.022c-2.522-4.901,0.632-7.932,2.256-10.602c-9.532,3.764-20.116,8.91-31.847,10.594
	C645.73,444.379,638.441,444.938,631.171,443.681z"/>
<path style="fill:#7A7F86;" d="M653.018,443.912c10.852-4.377,21.704-8.754,34.061-13.738c-1.748,5.377-3.109,9.563-4.47,13.748
	C672.745,444.608,662.881,444.683,653.018,443.912z"/>
<path style="fill:#7C8083;" d="M318.887,443.914c-1.098-3.526-2.196-7.052-4.091-13.138c5.346,5.649,8.908,9.414,12.47,13.176
	C324.472,443.939,321.679,443.927,318.887,443.914z"/>
<path style="fill:#D0D2D4;" d="M445.757,444.35c-2.236-3.797-4.086-7.895-6.769-11.345c-29.131-37.461-34.144-84.192-50.776-128.846
	c20.375,13.212,38.908,24.881,57.018,37.173c5.925,4.022,8.316,4.6,11.365-3.12c13.698-34.69,28.109-69.098,42.279-103.6
	c0.425-1.035,1.04-1.991,2.203-4.183c11.262,27.454,22.095,53.853,32.921,80.254c4.123,10.056,8.414,20.049,12.263,30.208
	c1.711,4.516,3.285,5.027,7.418,2.274c19.065-12.699,38.361-25.051,58.813-38.332c-13.563,47.772-28.858,93.61-44.621,139.301
	c-1.523,2.013-3.723,2.873-6.071,2.9c-13.866,0.157-27.756,1.389-41.566-0.728c-5.675-3.361-2.09-7.145-0.108-10.387
	c7.832-12.817,17.03-24.719,25.323-37.237c14.946-22.562,29.872-45.14,44.608-66.758c-12.13,6.8-23.974,15.88-36.768,23.452
	c-8.263,4.89-10.31,4.283-13.878-4.581c-11.871-29.49-24.463-58.687-36.444-89.381c0.007,15.599,0.004,30.172,0.004,44.746
	c0,42.099,0.03,84.198-0.042,126.296c-0.007,4.326,0.876,8.907-2.194,12.757c-3.059,1.898-6.272,1.841-9.559,0.762
	c-3.978-2.311-4.513-6.717-6.038-10.415c-9.079-22.017-17.325-44.365-26.175-66.476c-2.524-6.306-6.323-10.98-11.89-14.779
	c-11.896-8.118-24.469-15.2-36.316-23.738c23.031,34.584,46.093,69.007,68.899,103.598c2.3,3.488,8.139,7.697,0.823,12.273
	C468.825,446.892,457.031,449.905,445.757,444.35z"/>
<path style="fill:#FAD629;" d="M723.053,552.27c0.331-22.68,4.868-44.949,6.556-67.495c0.273-3.652,1.871-4.741,5.555-4.98
	c17.507-1.136,17.52-1.27,15.456,15.593c-3.923,32.055-8.041,64.089-11.655,96.179c-0.632,5.612-2.809,6.976-7.796,6.451
	c-6.426-0.677-12.876-1.25-19.33-1.491c-3.992-0.149-4.506-2.221-4.955-5.613c-3.208-24.25-6.679-48.464-10.785-72.791
	c-1.656,13.453-3.263,26.912-4.985,40.356c-1.305,10.184-3.05,20.321-4.015,30.535c-0.454,4.803-2.361,6.185-6.721,5.275
	c-0.859-0.179-1.751-0.229-2.63-0.283c-22.588-1.398-22.467-1.411-25.164-23.763c-2.955-24.48-6.242-48.92-9.188-73.401
	c-0.529-4.401-3.335-6.635-6.394-8.956c-2.081-1.579-4.868-2.987-3.793-6.205c1.033-3.089,4.011-1.653,6.111-1.718
	c23.225-0.718,23.259-0.688,26.144,22.245c1.722,13.688,3.321,27.392,4.975,41.089c0.25,0.499,0.476,1.007,0.66,1.533
	c0.441,1.258,0.92,2.511,0.716,3.888c0.463-1.256,0.653-2.639,1.682-3.634c2.788-20.297,5.618-40.588,8.323-60.895
	c0.439-3.293,1.978-4.657,5.208-4.291c0.58,0.066,1.174,0.022,1.76,0.006c21.806-0.628,21.979-0.651,24.828,20.933
	c2.259,17.112,6.004,34.054,6.188,51.417C720.87,555.236,721.953,555.408,723.053,552.27z"/>
<path style="fill:#D1D3D4;" d="M516.261,625.891c5.112,18.965,10.083,37.969,15.441,56.864c1.253,4.419,0.84,7.595-2.116,11.25
	c-8.488,10.497-16.68,21.244-24.683,32.116c-3.044,4.135-4.748,4.404-8.008,0.053c-12.673-16.917-25.88-33.434-38.511-50.381
	c-3.674-4.929-6.75-6.312-13.033-4.204c-34.73,11.651-69.667,22.683-106.704,34.627c6.436-9.668,12.675-17.296,17.003-25.888
	c10.529-20.899,27.58-34.366,47.692-44.89c5.448-2.851,10.54-6.381,15.795-9.599c9.816-2.734,19.656-5.201,29.934-2.755
	c5.503,4.484,0.182,6.434-2.354,8.289c-14.472,10.591-29.156,20.895-43.89,31.117c-11.311,7.848-22.204,16.3-33.856,23.724
	c23.683-8.636,47.794-15.98,71.884-23.325c9.988-3.045,16.775-8.477,22.202-17.205c4.883-7.852,8.014-17.161,16.331-22.616
	c6.97-1.123,13.919-1.872,20.754,0.683c3.763,3.47,2.85,8.117,2.871,12.403c0.117,24.332,0.034,48.665,0.068,74.495
	c6.974-7.712,11.952-15.128,17.274-22.253c2.951-3.951,1.964-8.322,0.808-12.683c-3.61-13.624-7.344-27.214-10.904-40.85
	c-0.809-3.099-2.085-6.155-1.402-9.492C511.564,622.119,513.953,623.429,516.261,625.891z"/>
<path style="fill:#FAD629;" d="M937.635,479.909c-3.674,3.099-5.239,4.952-7.228,6.008c-10.492,5.572-15.263,13.819-12.915,25.809
	c0.976,4.985-1.075,6.986-6.26,5.943c-2.86-0.576-5.9-0.828-8.793-0.549c-5.758,0.556-9.003-0.841-7.967-7.504
	c0.671-4.314-2.569-4.592-5.694-4.597c-8.183-0.012-16.366-0.004-24.58-0.004c0.105,0.77,0.081,1.732,0.264,1.774
	c10.605,2.399,13.871,9.238,11.971,19.382c-0.984,5.251,2.041,6.711,6.595,6.647c2.942-0.041,5.888,0.037,8.829,0.148
	c15.554,0.587,25.669,11.132,25.665,26.714c-0.003,12.661,0.067,25.323-0.017,37.984c-0.057,8.706-12.059,19.19-20.518,18.051
	c-4.081-0.549-8.21-1.945-12.215-1.634c-13.898,1.08-22.636-6.791-29.372-17.104c-4.541-6.952-1.683-15.4-1.58-23.178
	c0.031-2.343,2.622-1.559,4.3-1.414c4.103,0.355,8.206,0.956,12.311,0.982c4.946,0.031,6.466,2.129,6.197,7.01
	c-0.658,11.901,9.181,6.022,14.129,7.351c6.461,1.735,3.097-4.451,3.768-7.137c0.554-2.217,0.112-4.683,0.112-7.039
	c0.001-14.878-0.016-15.647-15.094-15.319c-10.036,0.219-16.542-3.752-22.344-11.104c-2.722-3.449-4.158-6.733-4.053-11.152
	c0.251-10.594,0.155-21.199,0.055-31.798c-0.05-5.324,0.221-10.057,3.997-14.745c5.572-6.919,11.428-10.217,20.788-9.786
	C897.018,480.523,916.118,479.909,937.635,479.909z"/>
<path style="fill:#FAD629;" d="M70.029,479.905c21.222,0,41.81-0.042,62.398,0.022c7.6,0.024,20.156,12.14,20.454,19.528
	c0.627,15.503-4.899,19.966-20.32,16.801c-3.542-0.727-3.248-3.088-2.922-5.253c0.844-5.597-2.112-6.384-6.653-6.086
	c-7.905,0.519-15.827,0.774-23.594,1.133c-0.492,1.27-0.198,1.939,0.777,2.137c9.338,1.9,13.138,7.493,11.297,16.869
	c-1.369,6.974,2.036,8.785,8.284,7.89c2.899-0.415,5.87-0.304,8.805-0.492c14.477-0.925,24.304,8.128,24.289,22.421
	c-0.01,9.119-0.668,18.291,0.096,27.343c0.807,9.562-2.03,16.844-9.034,23.339c-3.965,3.676-7.092,7.394-13.254,7.144
	c-4.317-0.175-8.949,0.434-12.997,1.91c-11.73,4.277-19.461-1.558-26.637-9.481c-2.243-2.477-4.077-22.427-2.323-25.489
	c1.189-2.075,20.089-4.871,21.775-3.056c0.691,0.744,1.14,2.224,0.935,3.21c-2.122,10.206,4.608,7.478,10.3,7.723
	c8.159,0.351,8.095-4.413,7.798-10.11c-0.319-6.119,1.899-14.006-1.127-17.924c-3.553-4.599-11.425,0.092-17.47,0.085
	c-13.897-0.015-22.583-8.116-22.581-22.215c0.002-9.119-0.723-18.312,0.191-27.339c1.064-10.512-1.935-18.015-11.456-23.037
	C74.376,485.563,70.902,484.062,70.029,479.905z"/>
<path style="fill:#FAD629;" d="M796.996,522.287c3.745-10.75,7.999-21.357,11.059-32.299c2.141-7.657,5.387-11.679,13.935-10.206
	c4.278,0.738,8.789,0.128,14.808,0.128c-3.649,8.972-6.054,17.731-10.504,25.285c-12.429,21.101-13.693,41.892-1.704,63.599
	c3.362,6.087,4.88,13.197,7.211,19.85c1.656,4.727,3.22,9.415,8.183,11.976c2.166,1.118,3.73,3.198,2.923,5.841
	c-0.997,3.265-3.754,1.876-5.954,1.797c-0.289-0.01-0.581-0.205-0.86-0.18c-17.902,1.598-25.767-7.538-28.724-24.456
	c-1.973-11.292-6.968-22.056-11.871-32.779c0,15.225-0.34,30.461,0.159,45.67c0.214,6.539-2.388,7.265-7.782,6.557
	c-15.305-2.009-15.297-1.885-15.326-17.316c-0.054-28.258-0.259-56.517-0.108-84.774c0.029-5.387-0.631-9.744-5.71-12.669
	c-2.282-1.315-4.543-3.368-3.475-6.449c1.237-3.571,4.594-1.952,6.888-1.843c8.12,0.388,18.538-3.646,23.723,1.65
	c4.762,4.864,1.134,15.134,1.413,23.015c0.208,5.857,0.041,11.727,0.041,17.591C795.879,522.279,796.437,522.283,796.996,522.287z"
	/>
<path style="fill:#F9D62A;" d="M250.331,506.329c11.422,0.138,13.861,6.413,12.474,15.506c-0.571,3.743,1.844,4.306,4.935,4.109
	c6.169-0.393,12.357-0.519,18.524-0.941c3.646-0.25,5.057,0.858,5.345,4.846c1.132,15.71,1.226,15.79-14.394,16.83
	c-14.596,0.972-14.667,0.973-14.575,15.587c0.08,12.744-2.299,11.983,11.705,10.902c1.761-0.136,3.516-0.362,5.279-0.458
	c15.29-0.832,19.577,2.172,24.851,16.574c1.922,5.25-0.914,6.192-4.913,6.512c-18.753,1.498-37.515,2.895-56.26,4.483
	c-3.934,0.333-4.205-1.697-4.201-4.723c0.051-36.806,0.062-73.612-0.021-110.417c-0.008-3.591,0.849-5.33,4.891-5.297
	c18.843,0.153,37.688,0.165,56.53-0.005c4.699-0.042,6.109,1.915,4.243,5.81c-2.535,5.29-5.709,10.27-8.473,15.455
	c-1.809,3.394-4.909,2.68-7.757,2.691c-12.346,0.046-24.693,0.02-37.04,0.02C251.093,504.651,250.712,505.49,250.331,506.329z"/>
<path style="fill:#FAD629;" d="M329.795,503.179c8.901,2.433,11.469,7.973,9.922,16.357c-0.678,3.675,1.796,4.315,4.864,4.224
	c5.877-0.174,11.777,0.078,17.635-0.315c4.371-0.293,6.724,0.666,6.119,5.62c-0.318,2.608-0.371,5.334,0.011,7.924
	c0.833,5.651-1.733,7.434-6.922,6.842c-1.156-0.132-2.349,0.044-3.524,0.088c-20.057,0.743-19.951,0.735-18.418,20.677
	c0.287,3.729,1.186,5.38,5.168,4.83c3.777-0.522,7.615-0.687,11.433-0.818c16.333-0.561,19.22,1.447,25.19,16.519
	c1.815,4.583,0.738,6.337-4.277,6.553c-18.796,0.812-37.587,1.788-56.366,2.934c-4.017,0.245-5.059-1.209-5.045-4.929
	c0.135-34.996,0.199-69.994,0.143-104.99c-0.006-4.01,1.668-4.87,5.289-4.844c18.821,0.132,37.643,0.145,56.464,0.007
	c5.903-0.043,5.399,2.927,3.688,6.712c-4.758,10.53-10.129,19.306-24.532,16.88C347.922,501.982,338.758,503.179,329.795,503.179z"
	/>
<path style="fill:#FAD629;" d="M472.25,511.035c8.127,5.862,14.82,10.691,21.514,15.519c0.547-0.565,1.093-1.13,1.64-1.695
	c-9.046-14.477-18.092-28.954-28.066-44.916c9.159,0,17.157-0.105,25.149,0.042c4.281,0.079,3.015,3.606,3.049,5.948
	c0.126,8.831,0.543,17.701-0.112,26.485c-0.533,7.143,3.58,6.786,8.194,6.508c4.262-0.257,9.821,2.043,9.294-6.242
	c-0.579-9.09,0.048-18.251-0.219-27.37c-0.125-4.279,1.427-5.335,5.562-5.519c17.754-0.79,18.13-0.93,17.633,17.032
	c-0.444,16.092-0.52,32.25-1.008,48.301c-0.358,11.739,0.092,24.225,1.301,36.3c0.595,5.944-1.071,8.169-7.556,7.987
	c-15.839-0.444-15.849-0.1-15.848-15.715c0-7.949-0.551-15.948,0.161-23.833c0.694-7.685-3.441-7.502-8.994-7.774
	c-6.359-0.312-9.299,1.15-8.479,8.151c0.612,5.228-0.507,10.679,0.27,15.862c1.187,7.915-2.61,9.939-9.505,10.99
	c-14.029,2.139-13.978,2.47-13.978-12.079C472.25,547.653,472.25,530.289,472.25,511.035z"/>
<path style="fill:#FAD629;" d="M611.599,591.152c-14.624-0.35-15.533-0.268-16.715-13.417c-0.829-9.227-5.389-9.415-12.55-9.967
	c-8.718-0.672-7.481,5.167-8.439,10.001c-0.342,1.724-0.809,3.453-0.882,5.193c-0.209,5.012-2.286,6.926-7.682,6.923
	c-18.771-0.008-18.768,0.223-15.536-17.863c2.011-11.256,4.187-22.486,5.967-33.779c1.812-11.494,5.699-21.674,14.067-30.31
	c7.132-7.361,13.249-15.734,19.523-23.884c2.658-3.454,5.709-4.843,9.845-4.065c4.208,0.792,3.071,4.628,3.567,7.137
	c6.413,32.492,12.603,65.029,18.899,97.544C624.247,598.016,612.931,586.863,611.599,591.152z"/>
<path style="fill:#FAD629;" d="M184.352,550.785c0-12.647,0.091-25.296-0.084-37.941c-0.031-2.265,1.717-6.018-2.254-6.457
	c-3.478-0.385-7.512-1.63-10.095,2.983c-1.876,3.351-2.506,10.168-6.776,8.878c-4.421-1.335-1.818-7.77-1.747-11.828
	c0.153-8.682-3.97-20.304,1.792-25.205c5.005-4.257,16.269-1.226,24.768-1.287c10.588-0.076,21.185,0.24,31.76-0.132
	c5.193-0.183,7.4,0.928,7.03,6.692c-0.546,8.496-0.149,17.051-0.268,25.579c-0.022,1.589,0.869,3.8-1.363,4.566
	c-2.606,0.894-3.462-1.306-4.548-3.072c-2.47-4.012-3.311-9.721-10.376-8.686c-3.227,0.473-4.639,1.21-4.634,4.699
	c0.034,26.47-0.079,52.941-0.164,79.412c-0.007,2.097-0.028,4.125,2.019,5.472c2.609,1.717,4.788,3.895,3.336,7.251
	c-1.32,3.051-4.624,2.006-7.041,2.34c-7.561,1.044-15.173,1.719-22.765,2.534c-1.686,0.181-3.594,0.962-4.466-1.376
	c-0.665-1.783-0.563-3.944,0.811-4.941c6.445-4.681,4.817-11.419,4.862-17.714c0.076-10.588,0.021-21.177,0.021-31.765
	C184.231,550.785,184.291,550.785,184.352,550.785z"/>
<path style="fill:#F9D629;" d="M401.749,540.733c0-13.532-0.175-27.068,0.087-40.595c0.103-5.327-0.289-9.877-5.749-12.549
	c-2.147-1.05-3.97-2.891-3.28-5.638c0.859-3.422,3.856-1.971,5.883-1.969c8.192,0.007,18.794-2.723,23.921,1.342
	c5.474,4.339,1.585,15.411,1.702,23.521c0.268,18.529,0.18,37.067-0.104,55.597c-0.075,4.918,1.193,7.04,6.366,6.388
	c3.483-0.439,7.049-0.223,10.579-0.297c12.56-0.263,12.52-0.202,11.536,12.544c-0.234,3.032-0.8,4.773-4.216,5.425
	c-13.549,2.589-26.985,5.691-40.875,6.212c-4.727,0.177-6.114-1.216-6.039-5.854c0.238-14.705,0.088-29.417,0.088-44.126
	C401.682,540.733,401.715,540.733,401.749,540.733z"/>
<path style="fill:#3C6F99;" d="M554.14,511.243c5.822-16.85,11.414-33.061,17.024-49.265c4.5-12.998,8.99-25.999,13.545-38.978
	c2.507-7.144,14.443-9.758,19.923-4.416c0.204,0.199,0.282,0.525,0.477,0.737c15.502,16.828,15.448,16.781,0.762,33.836
	c-16.402,19.047-32.689,38.192-49.06,57.265C556.509,510.775,555.778,510.76,554.14,511.243z"/>
<path style="fill:#FBD928;" d="M518.155,443.906c16.572,0.077,33.145,0.154,49.717,0.229C566,457.246,566,457.243,553.976,457.242
	c-29.715-0.002-59.448-0.593-89.135,0.31c-10.848,0.33-16.202-3.76-19.084-13.202c12.519-0.155,25.039-0.31,37.559-0.464
	c2.379-1.627,4.739-1.14,7.092,0.064c3.456-0.014,6.913-0.028,10.369-0.042C506.57,441.09,512.362,441.134,518.155,443.906z"/>
<path style="fill:#3C6F99;" d="M451.719,593.853c-17.066,10.474-34.121,20.966-51.202,31.416
	c-8.741,5.347-17.767,10.271-26.196,16.067c-4.445,3.056-6.506,2.309-8.74-2.076c-2.52-4.949-7.037-8.154-7.048-15.215
	c-0.018-11.688,4.967-14.931,15.63-16.659c25.799-4.179,51.359-9.836,77.016-14.897C451.36,592.944,451.539,593.399,451.719,593.853
	z"/>
<path style="fill:#3B6E99;" d="M460.423,490.649c-22.264-16.467-44.621-32.812-66.739-49.473c-7.199-5.423-1.44-13.046-1.779-19.535
	c-0.253-4.84,5.577-4.208,9.384-5.576c11.722-4.213,16.747,2.452,21.908,10.971c12.665,20.904,25.767,41.544,38.694,62.29
	C461.402,489.767,460.913,490.208,460.423,490.649z"/>
<path style="fill:#F9D729;" d="M516.261,625.891c-2.143-0.294-4.285-0.588-6.428-0.883c-3.01,2.462-6.017,2.25-9.023-0.009
	c-7.609,0.059-15.217,0.118-22.826,0.176c-8.963,3.697-17.968,3.47-27.005,0.294c-10.639-1.948-21.209,2.033-31.843,0.372
	c11.057-9.046,22.755-15.221,38.027-14.191c14.824,1,29.797-0.297,44.705-0.433C515.748,611.091,515.749,611.179,516.261,625.891z"
	/>
<path style="fill:#32629A;" d="M535.059,645.188c11.518,12.442,22.645,24.417,33.685,36.471c0.911,0.994,1.76,2.54,1.735,3.813
	c-0.124,6.529-11.175,18.114-17.974,19.436c-2.362,0.459-3.854,0.548-4.583-2.242c-4.781-18.301-9.667-36.574-14.456-54.872
	C533.369,647.419,534.018,646.849,535.059,645.188z"/>
<path style="fill:#E3CD2E;" d="M495.207,577.218c0.719,12.735,0.719,12.735-17.61,11.504
	C484.015,584.529,489.15,581.175,495.207,577.218z"/>
<path style="fill:#554E27;" d="M673.495,545.083c0.34,3.933,0.984,7.898-1.674,12.87c-2.208-5.486-1.535-10.105-1.383-14.655
	C671.457,543.892,672.476,544.487,673.495,545.083z"/>
<path style="fill:#A29C5D;" d="M723.053,552.27c0.174,3.275,0.752,6.62-1.606,10.605c-2.401-3.989-1.817-7.342-1.644-10.623
	C720.886,552.259,721.969,552.265,723.053,552.27z"/>
<path style="fill:#777C87;" d="M518.155,443.906c-5.793,0.001-11.586,0.003-17.378,0.003c0.001-62.857,0.001-125.713,0.001-190.653
	c5.465,7.833,7.288,15.159,10.121,21.924c10.55,25.192,21.06,50.408,30.986,75.849c2.539,6.508,4.759,6.124,9.674,2.823
	c14.612-9.812,29.478-19.244,45.214-28.147C570.567,365.105,544.361,404.505,518.155,443.906z"/>
<path style="fill:#777C86;" d="M490.408,443.95c-2.366-0.02-4.732-0.041-7.095-0.062c-25.193-37.928-50.388-75.856-75.588-113.781
	c-0.795-1.197-1.641-2.36-1.571-4.717c9.866,6.288,19.429,13.131,29.671,18.731c14.816,8.101,24.678,19.138,29.976,35.744
	C472.745,401.628,482.094,422.624,490.408,443.95z"/>
<path style="fill:#767B86;" d="M450.979,625.469c9-0.099,18-0.197,27.003-0.295c-6.578,10.434-13.187,20.849-19.716,31.315
	c-1.306,2.094-2.932,3.702-5.259,4.457c-30.116,9.777-60.24,19.529-91.092,27.95C391.603,667.754,421.291,646.612,450.979,625.469z"
	/>
<path style="fill:#767B86;" d="M500.81,624.999c3.006,0.003,6.012,0.005,9.02,0.009c5.012,18.103,10.052,36.196,14.997,54.316
	c0.687,2.515,1.709,5.398-0.019,7.7c-7.308,9.741-14.823,19.326-23.998,28.312C500.81,685.224,500.81,655.111,500.81,624.999z"/>
<path style="fill:#050503;" d="M585.465,546.463c-7.923,1.711-9.444-1.138-8.667-6.822c1.547-11.309,2.731-22.668,4.08-34.004
	c0.196-1.644-0.27-3.983,2.082-4.151c2.284-0.164,2.508,2.102,2.776,3.792c1.966,12.423,4.016,24.836,5.745,37.293
	C592.492,549.853,586.593,546.011,585.465,546.463z"/>
<path style="fill:#F8F9FB;" d="M600.952,421.241c-9.605,18.551-18.256,35.262-26.908,51.972c-0.631-0.29-1.263-0.579-1.894-0.869
	c5.463-15.753,10.906-31.513,16.397-47.256C590.755,418.759,595.754,422.334,600.952,421.241z"/>
<path style="fill:#FAFBFC;" d="M364.282,628.181c-1.864-11.471,2.823-15.187,12.912-16.554c16.496-2.236,32.747-6.274,49.522-8.303
	C406.016,611.564,385.318,619.805,364.282,628.181z"/>
<path style="fill:#FAFBFC;" d="M397.478,421.853c11-4.286,17.265-1.88,22.431,7.843c7.662,14.422,17.041,27.931,24.66,42.709
	C429.051,455.745,413.532,439.085,397.478,421.853z"/>
<path style="fill:#F6F8FA;" d="M560.355,698.81c-7.076-14.555-13.054-26.852-19.033-39.15c0.383-0.315,0.767-0.63,1.15-0.944
	c7.389,8.135,15.2,15.936,22.011,24.529C568.608,688.449,561.632,691.714,560.355,698.81z"/>
</svg>
