<?xml version="1.0" encoding="utf-8"?>
<!-- Generator: Adobe Illustrator 28.3.0, SVG Export Plug-In . SVG Version: 6.00 Build 0)  -->
<svg version="1.1" id="Layer_1" xmlns="http://www.w3.org/2000/svg" xmlns:xlink="http://www.w3.org/1999/xlink" x="0px" y="0px"
	 viewBox="0 0 1000 1080" style="enable-background:new 0 0 1000 1080;" xml:space="preserve">
<g>
	<path style="fill:#FEFEFE;" d="M71.113,743.188c0-229.914,0.095-459.828-0.301-689.741c-0.018-10.688,2.098-12.798,12.788-12.784
		c273.683,0.379,547.366,0.299,821.049,0.299c0.821,6.984-5.302,8.041-9.375,10.448c-7.068,4.178-14.553,7.644-21.914,11.293
		c-12.972,6.43-18.796,16.342-17.946,31.011c0.915,15.779,1.509,16.789,18.32,16.063c3.24,0.547,6.068,1.621,6.801,5.341
		c-0.515,2.063-1.355,4.289-3.243,5.094c-13.054,5.568-19.311,16.094-21.977,29.359c-21.229-3.148-33.705-22.894-26.62-41.822
		c2.732-7.299,6.916-13.993,8.816-21.616c0.273-1.097-0.102-2.048-1.639-3.558c-8.265,1.287-12.058,7.621-15.158,14.926
		c-3.242,7.641-5.521,15.726-10.041,22.782c-1.685,2.631-3.932,5.229-7.434,4.774c-3.826-0.497-3.873-4.23-5.048-7.011
		c-1.92-4.543,0.918-13.48-8.357-11.616c-7.564,1.52-7.853,8.033-7.259,14.958c1.374,16.018,1.794,32.119,4.23,48.045
		c0.659,4.31-0.885,10.727,6.074,10.479c6.337-0.227,7.698-5.535,8.221-11.259c2.285-25.018,2.456-25.108,23.834-12.005
		c4.572,2.802,8.772,2.898,13.193,0.521c5.494-2.954,11.353-5.029,17.065-7.468c12.942-8.777,27.649-14.19,41.267-21.682
		c18.394-10.119,22.132-19.507,17.261-39.721c-2.285-9.483-7.014-10.383-14.634-6.871c-6.122,2.821-11.421,7.278-17.999,9.157
		c-2.954,0.844-6.349,1.983-8.435-1.329c-2.257-3.583-0.995-6.945,1.89-9.758c1.496-1.459,3.179-2.731,5.066-3.58
		c15.615-7.03,28.391-16.563,31.286-34.956c16.013-3.525,19.947,2.612,19.209,18.748c-1.566,34.26-0.478,68.64-0.478,102.971
		c-4.614,10.135-11.152-1.359-16.435,1.531c-65.446,31.488-128.886,66.815-194.067,98.723
		c-45.591,24.655-92.189,47.336-138.388,70.797c-45.375,23.335-90.447,47.264-136.313,69.637
		c-46.582,24.427-93.365,48.459-140.503,71.793c-33.958,16.943-67.111,35.439-100.982,52.478c-3.786,4.989-8.205,9.786,3.591,8.929
		c28.282-2.055,56.292-7.03,84.738-7.433c10.884-0.154,21.609-0.372,31.981,3.544c3.882,10.767-5.891,11.988-11.406,14.657
		c-44.291,21.435-87.047,45.839-131.2,67.492c-7.274,4.294-15.092,7.809-20.798,14.393c-5.88,5.315-12.675,9.299-19.402,13.387
		c-15.472,10.231-27.21,23.619-32.518,41.534c-2.899,9.783-10.577,16.271-14.667,25.068c-0.59,1.282-1.335,2.475-2.15,3.621
		c-7.966,7.367-10.226,17.612-13.691,27.262c-0.602,1.329-1.438,2.485-2.451,3.527C73.577,744.387,72.293,744.239,71.113,743.188z"
		/>
	<path style="fill:#FEFEFE;" d="M929.625,181.408c0,281.66-0.08,563.32,0.296,844.979c0.015,11.124-2.133,13.632-13.506,13.613
		c-250.548-0.414-501.097-0.316-751.646-0.316c-0.922-5.473,3.519-5.924,6.78-6.395c49.505-7.14,82.411-39.14,112.643-75.063
		c7.723-9.176,15.931-17.863,24.963-25.671c9.754-8.432,20.633-14.214,34.242-9.677c6.688,2.23,12.201,0.218,16.944-4.7
		c33.274-34.507,76.733-50.683,120.354-66.331c37.152-13.327,75.305-23.8,111.384-40.196
		c50.358-22.885,90.364-56.673,115.27-106.884c10.852-21.877,21.843-43.685,32.675-65.572c2.667-5.389,6.826-10.858,1.564-17.323
		c-5.3,0.946-6.306,6.455-9.792,9.223c-14.292,12.145-28.178,24.7-39.493,39.805c-4.75,8.907-10.658,16.659-20.465,20.515
		c-15.972,9.664-32.92,16.828-51.392,20.107c-5.261,1.269-10.734,1.456-15.903,3.212c-9.887,0.486-22.171,5.538-25.607-9.36
		c-5.01-21.721,1.214-36.65,16.622-41.103c35.68-10.312,69.255-25.334,101.049-44.341c38.926-23.27,70.166-55.038,97.817-90.482
		c16.511-21.165,33.235-42.072,42.446-68.128c13.648-38.61,32.938-75.083,42.937-115.16c5.64-22.607,18.67-43.675,19.109-67.181
		c0.579-31.007,18.234-57.024,21.968-86.86C921.441,187.655,922.182,181.234,929.625,181.408z"/>
	<path style="fill:#FEFEFE;" d="M152.282,1039.684c-23.934,0-47.878-0.376-71.798,0.214c-7.835,0.193-9.605-1.773-9.574-9.578
		c0.328-83.225,0.203-166.453,0.203-249.68c1.49-1.098,2.957-1.069,4.412,0.078c3.654,3.675,4.909,8.408,5.891,13.269
		c0.248,3.668,1.384,7.129,2.705,10.511c5.087,13.022,10.809,14.35,19.542,3.399c10.948-13.727,24.867-23.77,39.662-32.227
		c59.114-33.791,122.242-47.988,190.151-36.365c9.759,1.67,18.976,5.304,28.259,8.648c8.234,2.967,13.233,8.03,12.043,17.432
		c-4.107,18.203-14.549,32.971-25.802,47.294c-1.374,3.439-3.696,5.946-7.196,7.283c-10.815,7.395-21.162,15.381-30.805,24.271
		c-1.539,1.586-3.282,2.879-5.281,3.825c-30.007,13.717-58.509,31.025-91.227,38.257c-4.557,2.317-9.254,4.272-14.252,5.427
		c-8.026,1.084-15.866,2.872-23.693,5.082c-10.041,2.836-17.273,8.074-20.125,18.436c-1.591,3.42-4.027,5.987-7.529,7.468
		c-10.915,7.283-23.565,13.541-17.653,30.546c2.022,7.079,5.541,13.299,10.938,18.283c7.226,6.673,8.904,14.635,6.215,23.818
		c0.257,9.84-2.362,19.874,2.121,29.403C152.727,1029.319,157.018,1033.668,152.282,1039.684z"/>
	<path style="fill:#1E1916;" d="M152.282,1039.684c2.57-6.606-3.805-8.23-6.602-11.847c-1.659-2.942,0.213-4.206,2.49-5.29
		c56.796-2.366,93.652-37.773,127.748-77.463c8.49-9.883,16.841-19.785,27.533-27.339c9.159-6.47,18.942-11.007,30.592-7.347
		c6.709,2.108,12.079,0.002,16.966-4.74c32.129-31.177,71.747-49.04,113.403-63.01c33.484-11.229,66.878-22.684,99.965-35.036
		c63.231-23.605,110.527-64.598,139.141-126.384c7.414-16.008,15.671-31.637,23.554-47.434c0.878-1.258,1.632-2.587,2.276-3.978
		c0.53-9.084,8.883-11.827,12.904-17.255c7.849,0.135-5.363,10.149,5.878,9.177c6.556-0.567,3.052,4.859,1.586,7.638
		c-18.623,35.307-33.75,72.547-56.074,105.792c-31.514,46.932-78.209,73.374-129.804,92.269
		c-37.992,13.914-76.473,26.493-114.457,40.427c-33.968,12.462-65.078,30.006-90.216,56.608c-4.754,5.031-8.871,5.936-14.847,3.127
		c-11.355-5.338-21.273-1.893-30.051,5.966c-5.798,5.19-11.922,10.198-16.834,16.165c-35.424,43.029-73.898,81.392-132.662,89.953
		C160.607,1039.684,156.444,1039.684,152.282,1039.684z"/>
	<path style="fill:#1E1916;" d="M929.625,181.408c-8.399,10.118-5.109,23.692-10.139,34.693
		c-11.488,25.124-12.435,52.77-19.542,78.82c-16.369,60.004-35.782,119.232-63.506,175.084
		C786.31,570.996,705.87,636.379,597.647,667.199c-11.951,3.404-16.747,7.927-14.475,19.776c0.192,0.999,0.004,2.074-0.026,3.112
		c-0.62,21.259-0.621,21.259,20.992,21.407c3.379-1.467,4.326,0.43,4.574,3.293c-11.438,7.825-23.99,4.145-36.125,3.058
		c-6.25-0.56-8.061-5.856-7.891-11.602c0.138-4.685,1.292-9.262,1.626-13.936c2.456-34.336,2.169-35.341,34.555-44.932
		c85.273-25.253,148.498-79.153,199.112-150.114c5.516-7.733,8.61-16.587,12.933-24.859c23.835-45.61,44.757-92.369,55.82-143.011
		c3.111-14.24,12.041-26.563,14.771-40.983c1.68-8.872,6.509-17.859-0.905-26.765c-1.892-2.273-0.285-6.257,1.454-8.838
		c15.538-23.055,19.889-50.003,26.681-76.089c2.741-5.34,1.366-11.504,3.315-17.009c2.434-1.096,6.58-6.451,6.812,0.319
		c0.416,12.151,5.478,3.252,8.756,2.654C929.625,168.924,929.625,175.166,929.625,181.408z"/>
	<path style="fill:#0F0C7E;" d="M873.273,112.646c-18.188,5.685-19.394,3.905-21.847-14.51
		c-2.746-20.621,4.891-33.349,23.525-41.354c10.27-4.412,19.823-10.492,29.699-15.819c2.081,0,4.162,0,6.244,0
		c4.049,17.964-4.763,27.343-20.678,33.626c-6.035,2.382-15.492,3.047-16.835,15.201c10.543-5.211,19.422-9.952,28.594-14.034
		c9.155-4.075,14.218-1.801,15.837,9.278c4.557,31.204,3.288,35.143-24.863,48.64c-12.441,5.965-23.498,15.298-37.965,16.708
		l0.317,0.325c-7.165-22.191,10.323-27.45,24.187-35.198c1.49-3.403,4.255-5.404,5.33-5.866
		C882.69,110.868,877.563,110.311,873.273,112.646z"/>
	<path style="fill:#2C2726;" d="M74.103,781.237c-0.997-0.199-1.993-0.397-2.99-0.596c0-12.484,0-24.968,0-37.452
		c0.99-0.267,1.98-0.535,2.97-0.802C85.507,752.703,85.516,771.011,74.103,781.237z"/>
	<path style="fill:#D7D7D7;" d="M74.103,781.237c4.144-12.952,4.393-25.902-0.019-38.85c-0.209-0.926-0.092-1.808,0.351-2.647
		c6.978-8.283,7.603-20.081,15.437-27.891c0.071-1.16,0.142-2.32,0.212-3.48c8.175-9.262,14.875-18.795,18.765-31.268
		c4.991-16.003,18.686-26.777,31.047-37.776c5.912-4.69,11.471-9.955,19.155-11.761c6.323-6.178,14.513-9.538,21.72-14.395
		c43.851-22.495,87.618-45.141,131.449-67.661c6.019-3.093,12.149-5.891,16.771-10.937c-4.414-9.983-13.93-7.988-21.617-8.462
		c-28.495-1.756-56.879,0.827-85.212,3.727c-4.108,0.42-8.203,1.449-12.258-0.285c-5.275-9.627,4.353-9.77,8.496-11.818
		c28.998-14.33,57.374-29.858,86.301-44.304c46.82-24.14,94.026-47.534,140.729-71.911c44.638-23.163,89.665-45.566,134.439-68.464
		c46.493-24.775,94.069-47.436,140.619-72.105c60.505-30.83,120.661-62.334,181.334-92.828c7.166-3.602,15.993-8.812,12.758,7.046
		c-5.816,30.189-12.946,59.906-31.166,85.622c2.015,3.548,11.455-3.302,8.62,6.782c-3.082,10.961-4.083,22.564-7.722,33.301
		c-15.114,44.596-28.579,89.785-47.287,133.116c-48.709,112.819-130.59,188.4-249.781,221.569
		c-12.27,3.415-19.063,7.464-16.491,21.316c1.016,5.473,0.017,11.402-0.555,17.074c-2.154,21.361-2.229,21.437,19.074,21.515
		c6.214,0.023,12.43-0.58,18.645-0.896c5.211-3.608,11.65-3.409,17.319-5.586c16.738-4.127,33.585-8.035,45.496-22.1
		c8.776-4.058,13.166-12.433,19.048-19.34c10.888-6.974,18.295-17.69,27.958-25.955c3.543-3.03,5.409-9.199,12.002-7.428
		c-14.912,33.035-29.762,66.22-50.961,95.78c-32.598,45.456-79.903,69.84-130.978,88.162c-38.084,13.661-76.524,26.356-114.4,40.562
		c-30.886,11.584-58.741,28.596-82.375,51.987c-3.567,3.531-6.348,7.947-13.033,4.883c-15.891-7.283-28.437,0.286-39.078,11.098
		c-15.655,15.906-30.553,32.558-45.752,48.913c-26.025,28.003-57.247,46.036-95.827,49.94c-2.913,0.295-6.127,2.025-8.514-1.308
		c-4.838-7.057-1.962-15.056-2.761-22.593c3.994-13.899,1.346-25.288-11.001-34.385c-5.454-4.018-6.094-11.572-7.322-18.151
		c-1.603-15.243,9.481-21.459,19.983-28.089c1.706-2.314,3.412-4.629,5.118-6.943c9.704-19.028,29.107-19.6,46.324-24.331
		c2.582-4.521,8.361-3.026,11.663-6.193c24.43-1.193,44.952-13.498,66.247-23.486c9.245-4.336,17.574-10.623,27.77-12.933
		c1.326-1.376,2.653-2.752,3.979-4.128c10.654-8.549,20.836-17.71,32.469-24.988c-0.202-3.137,1.263-4.606,4.403-4.4
		c10.78-14.671,22.333-28.905,26.702-47.207c1.934-9.403-1.064-14.72-10.638-18.905c-51.184-22.377-103.138-19.884-155.258-5.458
		c-39.377,10.899-76.166,27.226-104.256,58.606c-1.725,1.927-3.691,3.64-5.703,5.277c-8.017,6.521-13.845,6.673-15.752-5.275
		c-0.408-2.555-1.725-4.872-3.202-7.03C76.427,789.451,75.265,785.344,74.103,781.237z"/>
	<path style="fill:#0E0B7E;" d="M232.103,445.815c-13.974,6.699-27.801,13.605-41.867,19.986
		c-11.905,5.401-18.981,1.533-20.214-11.83c-0.619-6.715-0.909-13.487-1.99-20.129c-3.733-22.936,6.406-37.679,26.584-47.288
		c15.426-7.346,30.583-15.273,45.686-23.271c7.767-4.113,11.854-5.977,13.573,6.327c2.159,15.444-0.032,25.594-16.296,30.944
		c-9.728,3.2-18.687,8.908-27.722,13.97c-4.447,2.491-13.332,3.646-9.237,11.266c3.873,7.208,8.74-0.833,12.533-2.39
		c10.501-4.311,20.288-10.328,30.666-14.98c11.404-5.112,18.258-0.183,19.919,11.464c1.608,11.275,2.774,22.7,2.922,34.075
		c0.171,13.121-6.986,22.84-18.148,28.876c-20.95,11.329-42.318,21.884-63.424,32.931c-7.385,3.865-9.404,3.071-11.444-6.234
		c-3.943-17.985,1.872-27.644,18.712-33.753c11.583-4.202,22.136-11.195,33.287-16.657
		C231.146,456.428,236.216,453.972,232.103,445.815z"/>
	<path style="fill:#0E0B7E;" d="M611.157,175.842c3.086,35.241,6.261,70.304,9.155,105.39c0.75,9.095-18.876,25.971-27.973,24.688
		c-4.557-0.643-3.709-4.222-4.043-7.05c-0.73-6.183-1.315-12.386-1.821-18.592c-0.45-5.515-0.713-11.046-1.039-16.264
		c-1.402-0.367-2.051-0.771-2.386-0.591c-35.473,19.043-29.052,5.722-26.715,46.717c0.736,12.917-14.327,28.582-27.074,27.632
		c-5.686-0.424-4.818-4.318-5.105-7.71c-2.845-33.604-5.713-67.207-8.367-100.826c-0.47-5.959,23.761-22.703,29.264-20.303
		c1.44,0.628,2.578,3.018,2.946,4.788c0.628,3.021,0.291,6.232,0.795,9.291c1.316,7.979-2.303,21.086,4.682,22.641
		c7.177,1.598,16.482-6.654,24.946-10.392c3.551-1.568,4.134-4.3,3.819-7.572c-0.298-3.096-0.799-6.172-1.168-9.262
		C577.512,188.601,580.301,184.558,611.157,175.842z"/>
	<path style="fill:#0F0C7E;" d="M774.23,109.879c-2.323,28.557-4.492,55.382-6.694,82.203
		c-0.953,11.604-11.655,13.091-19.036,14.932c-5.927,1.478-5.564-7.708-7.18-12.568c-2.253-6.779-4.313-13.621-7.886-24.983
		c-1.521,15.99-2.66,27.404-3.669,38.829c-0.405,4.59-0.212,8.775-4.919,12.193c-14.227,10.327-18.05,9.289-22.813-7.721
		c-4.462-15.934-8.836-31.893-13.153-47.867c-2.416-8.939,6.762-20.614,15.618-20.319c4.604,0.153,3.893,3.993,5.066,6.497
		c2.505,5.349,1.53,12.076,7.179,18.23c0.631-8.684,1.594-15.677,1.548-22.664c-0.082-12.465,10.116-14.695,18.263-18.064
		c6.235-2.578,5.364,4.218,6.669,7.659c0.973,2.566,2.326,4.77,5.471,4.338c3.738-0.514,3.253-3.814,2.88-6.022
		C748.854,118.414,760.248,114.676,774.23,109.879z"/>
	<path style="fill:#0F0C7E;" d="M666.655,217.777c-17.445,2.703-24.903,11.343-20.268,28.805c1.103,4.158,3.633,9.714-0.769,13.193
		c-5.195,4.105-11.494,9.394-17.797,8.055c-5.367-1.14-3.249-8.98-3.679-13.872c-1.451-16.536-2.412-33.116-3.589-49.676
		c-0.598-8.41,2.018-16.097,9.082-20.277c13.328-7.887,27.159-15.029,41.217-21.54c8.618-3.992,14.168,0.394,15.042,9.528
		c1.879,19.637,3.599,39.299,4.855,58.984c0.74,11.603-10.463,13.205-17.085,14.508c-8.187,1.61-4.719-7.857-5.716-12.561
		C666.912,228.027,667.041,222.884,666.655,217.777z"/>
	<path style="fill:#0F0C7E;" d="M383.631,340.734c8.188,10.587,7.604,18.684-5.7,24.82c-8.361,3.856-18.289,6.089-21.924,17.903
		c10.619-4.948,21.238-9.895,31.885-14.856c5.662,14.936,3.694,25.072-12.432,30.844c-11.59,4.148-22.236,10.986-33.189,16.836
		c-5.917,3.161-8.102,1.745-8.625-4.993c-1.687-21.71-3.664-43.403-5.938-65.059c-0.645-6.138,1.335-9.51,6.815-12.15
		c12.134-5.845,23.794-12.712,36.093-18.157c4.308-1.907,10.148-10.236,13.898-2.919c2.929,5.714,5.534,15.004-2.279,21.25
		c-1.604,1.282-3.382,2.347-5.08,3.512c-2.464,5.87-8.436,7.017-13.062,10.073C370.173,344.295,376.89,342.48,383.631,340.734z"/>
	<path style="fill:#0F0C7E;" d="M437.293,313.141c4.543,0.012,9.934-8.059,13.127-0.782c2.642,6.02,3.801,14.315-4.71,18.81
		c-4.835,6.765-13.147,8.115-19.649,12.883c6.277-1.424,11.128-5.535,16.956-7.358c7.342-2.296,10.742,0.816,11.521,7.909
		c2.515,11.146-3.012,16.801-12.797,20.997c-11.893,5.099-23.322,11.333-34.73,17.486c-6.688,3.607-10.123,3.603-10.708-5.391
		c-1.413-21.739-3.149-43.47-5.432-65.132c-0.728-6.907,3.004-9.13,7.826-11.539c12.058-6.025,23.94-12.421,36.156-18.1
		c3.975-1.848,9.955-8.946,12.638-1.923c2.294,6.003,6.249,15.269-2.358,21.234c-3.783,2.622-8.004,4.613-12.027,6.89
		c-2.232,3.035-5.028,5.417-6.55,5.915C428.497,313.52,433.01,313.784,437.293,313.141z"/>
	<path style="fill:#0F0C7E;" d="M854.984,150.382c-6.174,8.35-15.609,14.239-24.635,14.268c-9.561,0.03-13.785-12.875-23.357-18.114
		c-4.847,8.072-1.14,16.208-1.18,23.912c-0.022,4.26,1.197,8.641-3.824,10.488c-5.176,1.904-9.849,7.841-15.374,5.406
		c-5.444-2.4-3.288-9.206-3.745-14.18c-1.374-14.956-0.928-30.282-4.133-44.815c-3.874-17.57,2.062-26.383,19.289-29.128
		c3.962,7.761,2.379,16.903,4.509,26.174c7.256-2.602,6.386-9.844,8.824-14.736c3.44-6.905,5.433-14.543,9-21.368
		c4.436-8.486,14.959-14.088,21.377-11.664c8.381,3.166-0.608,11.379-2.717,16.652c-12.829,32.079-13.094,31.973,16.27,57.421
		C855.301,150.708,854.984,150.382,854.984,150.382z"/>
	<path style="fill:#0F0C7E;" d="M282.108,386.937c-3.643,1.462-5.873,2.706-8.261,3.236c-4.013,0.891-9.789,7.318-11.661,1.047
		c-1.888-6.324-7.31-15.975,1.873-21.072c18.888-10.485,38.432-19.792,58.093-29.781c4.167,14.538,5.287,26.163-11.236,30.949
		c-6.204,1.797-4.928,7.021-4.554,11.589c1.1,13.443,2.315,26.876,3.415,40.319c0.644,7.87-11.595,19.945-19.342,19.193
		c-5.676-0.551-4.054-5.294-4.358-8.361C284.593,419.085,283.508,404.074,282.108,386.937z"/>
	<path style="fill:#100D7F;" d="M482.694,319.203c11.362-5.676,20.551-10.266,30.129-15.051
		c6.317,15.061,4.083,25.176-12.377,30.982c-10.612,3.743-20.409,9.911-30.351,15.392c-6.26,3.45-9.063,2.884-9.606-5.017
		c-1.455-21.145-2.994-42.305-5.4-63.356c-1.67-14.611,10.613-14.846,18.517-18.492c5.074-2.341,4.104,4.453,4.432,7.419
		C479.738,286.429,481.055,301.82,482.694,319.203z"/>
	<path style="fill:#201B18;" d="M209.006,527.629c28.802-3.174,57.526-7.438,86.6-7.124c15.58,0.168,30.943,1.753,44.803,10.505
		c-1.538,4.972-5.728,5.48-9.428,6.676c-3.766,1.595-5.367-1.094-7.075-3.573c-39.991-4.802-79.221,4.048-118.799,6.633
		c-8.682,0.567-8.679,0.61-9.275-2.676c-1.928-10.636-1.928-10.636,5.887-13.649C205.451,522.532,207.015,525.566,209.006,527.629z"
		/>
	<path style="fill:#363331;" d="M914.581,175.166c1.805-12.44-4.316-9.032-10.917-5.637
		c-57.203,29.42-114.445,58.767-171.698,88.091c-3.654,1.872-7.499,3.372-11.255,5.046c-3.27,1.923-3.462-0.088-3.285-2.57
		c65.544-33.462,131.088-66.925,196.631-100.387C917.18,164.762,919.622,169.838,914.581,175.166z"/>
	<path style="fill:#383634;" d="M323.906,534.113c2.358,1.191,4.717,2.382,7.075,3.573c-50.121,25.885-100.242,51.77-150.363,77.654
		c-3.294,1.805-3.545-0.114-3.274-2.673c44.958-23.254,89.96-46.422,134.8-69.901C316.348,540.564,322.534,540.397,323.906,534.113z
		"/>
	<path style="fill:#383633;" d="M446.095,403.153c-46.847,23.921-93.693,47.841-140.54,71.762c-3.291,1.945-3.491-0.097-3.342-2.589
		c46.83-23.938,93.66-47.876,140.49-71.814C444.223,400.892,445.374,401.746,446.095,403.153z"/>
	<path style="fill:#373533;" d="M717.427,260.096c1.095,0.857,2.19,1.713,3.285,2.57c-44.4,22.988-88.783,46.008-133.251,68.861
		c-2.064,1.061-4.895,0.631-7.368,0.895l0.141,0.353c0.123-3.999,3.501-4.662,6.188-6.029
		C630.09,304.529,673.758,282.312,717.427,260.096z"/>
	<path style="fill:#373432;" d="M580.233,332.775c0,0-0.145-0.355-0.143-0.354c-1.057,3.224-3.565,4.756-6.474,6.222
		c-42.537,21.444-85.023,42.989-127.522,64.51c-1.131-0.881-2.261-1.761-3.392-2.642c42.453-21.902,84.892-43.834,127.392-65.646
		C573.159,333.293,576.333,330.897,580.233,332.775z"/>
	<path style="fill:#383634;" d="M302.213,472.326c1.114,0.863,2.228,1.726,3.342,2.589c-28.17,14.677-56.374,29.289-84.473,44.098
		c-4.353,2.294-10.017,3.013-12.076,8.616c-2.429-1.069-4.858-2.139-7.287-3.208C234.327,505.34,268.534,489.342,302.213,472.326z"
		/>
	<path style="fill:#363432;" d="M139.896,639.325c0.805,6.012-4.887,7.218-7.884,10.222c-11.068,11.097-20.741,22.796-24.515,38.655
		c-2.223,9.341-8.53,16.098-17.413,20.167c13.794-18.236,16.635-43.012,35.004-58.53
		C129.737,645.912,133.209,640.37,139.896,639.325z"/>
	<path style="fill:#CFD1E5;" d="M454.539,344.604c-2.268-4.174-2.932-10.041-10.529-5.104c-7.675,4.988-16.404,8.353-28.221,14.18
		c6.309-16.559,19.929-17.185,29.922-22.51C449.755,334.924,458.514,335.582,454.539,344.604z"/>
	<path style="fill:#E4E7F0;" d="M383.631,340.734c-9.384,6.626-19.59,11.563-34.476,17.571c7.629-14.445,18.573-16.467,28-20.539
		C379.314,338.755,381.473,339.744,383.631,340.734z"/>
	<path style="fill:#CED0E4;" d="M437.293,313.141c-0.691,0.722-1.268,1.88-2.092,2.097c-6.893,1.811-17.278,11.677-18.869,6.601
		c-2.8-8.93,9.808-9.663,16.775-12.714C434.502,310.464,435.897,311.803,437.293,313.141z"/>
	<path style="fill:#4C4B49;" d="M89.872,711.849c-5.351,9.183-4.336,21.888-15.437,27.891
		C77.43,729.253,77.28,717.027,89.872,711.849z"/>
	<path style="fill:#C5C8E0;" d="M873.273,112.646c1.129-0.976,2.106-2.435,3.413-2.848c6.856-2.167,17.69-11.406,19.027-7.02
		c2.966,9.726-9.828,9.148-16.226,12.731C877.416,114.555,875.344,113.6,873.273,112.646z"/>
	<path style="fill:#3E3B3A;" d="M177.343,612.667c1.091,0.891,2.183,1.782,3.274,2.673c-6.762,4.827-13.555,9.6-21.567,12.223
		C160.951,617.447,170.993,617.323,177.343,612.667z"/>
	<path style="fill:#373634;" d="M670.733,686.879c2.263,7.322-4.082,8.48-8.147,10.842c-11.192,6.504-23.185,11.079-35.91,13.638
		c-1.922-1.523-5.002-0.211-6.541-2.672C637.617,702.846,655.676,698.343,670.733,686.879z"/>
	<path style="fill:#302E2D;" d="M729.741,634.155c-11.292,6.798-18.135,18.209-27.773,26.693c-3.441,3.029-5.155,9.962-12.187,6.69
		c13.284-12.474,22.378-29.341,39.566-37.722C729.479,631.263,729.61,632.709,729.741,634.155z"/>
	<path style="fill:#373431;" d="M620.135,708.687c2.18,0.891,4.361,1.781,6.541,2.672c-6.253,1.069-12.505,2.137-18.757,3.206
		c-1.26-1.023-2.52-2.047-3.78-3.07C609.102,708.46,614.69,708.98,620.135,708.687z"/>
	<path style="fill:#1E1916;" d="M77.588,793.558c7.711,1.827,4.017,11.104,9.904,15.349c41.731-49.169,97.683-70.199,158.821-79.585
		c38.432-5.9,76.435-3.047,113.085,12.15c13.081,5.424,20.044,12.063,14.161,26.6c-1.212,1.012-2.398,0.982-3.557-0.09
		c2.871-9.462-1.485-13.541-10.279-16.71c-56.575-20.387-112.177-13.794-167.169,5.722c-34.53,12.255-66.093,29.462-90.059,58.427
		c-9.209,11.13-15.08,9.882-20.729-3.92C79.47,805.89,78.928,799.561,77.588,793.558z"/>
	<path style="fill:#373533;" d="M304.843,847.066c-26.223,16.158-53.567,29.849-83.499,37.815
		c-3.661,0.974-7.696,4.188-10.518-1.396c29.983-9.153,58.996-20.558,85.762-37.122
		C299.699,844.438,302.277,844.654,304.843,847.066z"/>
	<path style="fill:#45403F;" d="M199.164,889.678c-1.848,3.976-5.905,3.646-9.175,4.292c-14.493,2.862-26.509,10.131-37.149,20.039
		C157.706,897.792,178.701,886.765,199.164,889.678z"/>
	<path style="fill:#322F2D;" d="M129.766,949.264c1.799,8.215,4.008,17.436,11.264,21.401c13.523,7.391,11.572,17.161,7.429,28.297
		c-5.323,1-3.052-4.176-4.891-6.01c2.616-5.725,2.842-10.577-2.685-15.348c-7.277-6.281-13.642-13.545-14.037-24.049
		C125.635,950.64,126.497,949.134,129.766,949.264z"/>
	<path style="fill:#3A3836;" d="M370.002,767.982c1.186,0.03,2.371,0.06,3.557,0.09c-3.814,18.512-13.23,33.592-27.864,45.478
		c-2.783-7.801,5.015-10,8.112-14.429C360.612,789.39,365.256,778.696,370.002,767.982z"/>
	<path style="fill:#31302F;" d="M129.766,949.264c-0.973,1.43-1.946,2.86-2.92,4.291c-4.25-16.204,3.588-28.445,20.875-32.603
		C141.397,930.174,127.645,934.689,129.766,949.264z"/>
	<path style="fill:#322F2E;" d="M143.569,992.953c1.63,2.003,3.26,4.007,4.891,6.01c0.121,8.403,0.242,16.805,0.363,25.208
		c-1.048,1.222-2.095,2.444-3.143,3.666C140.774,1016.463,143.517,1004.627,143.569,992.953z"/>
	<path style="fill:#3B3938;" d="M341.291,817.951c-8.903,10.823-19.482,19.469-32.469,24.988
		C316.942,831.098,327.631,822.595,341.291,817.951z"/>
	<path style="fill:#1E1816;" d="M320.344,595.991c-31.654,6.438-62.261,16.331-92.452,27.688c-5.572,2.096-9.946,5.307-13.973,9.493
		c-25.538,26.547-51.871,52.018-83.518,71.652c-11.59,7.19-16.046,20.678-20.994,36.025c37.202-18.243,73.675-31.003,112.296-36.737
		c57.686-8.564,112.897-1.876,164.814,26.393c8.961,4.879,12.475,10.66,12.39,20.824c-0.296,35.394-14.778,64.408-39.073,88.924
		c-9.424,9.51-20.348,17.535-32.188,27.595c4.941-0.326,8.635-0.074,12.082-0.878c21.479-5.007,42.226-12.905,59.601-26.124
		c24.557-18.684,51.659-28.802,81.563-35.012c35.8-7.435,68.937-22.667,102.447-43.532c-17.271-1.363-32.443-1.876-46.886-6.742
		c-5.784-1.949-7.917,3.858-11.079,6.882c-18.844,18.024-38.919,27.952-64.251,31.473c41.097-67.762,37.765-79.47-38.925-126.319
		c13.469,1.452,23.204,2.898,32.991,3.484c30.675,1.838,61.381,2.442,91.865-2.24c9.04-1.389,11.988,1.03,11.524,10.208
		c-0.581,11.498-1.342,23.021-5.078,33.804c-3.025,8.73,0.29,10.741,7.85,12.216c37.213,7.259,72.361,1.439,105.834-15.848
		c3.907-2.018,7.713-4.23,14.551-7.996c-13.594,25.804-30.618,44.147-50.755,59.729c-31.288,24.21-67.483,38.566-104.476,51.236
		c-36.848,12.62-74.3,23.562-109.893,39.663c-25.259,11.426-48.822,25.469-69.165,44.519c-3.339,3.127-6.014,7.151-11.837,5.404
		c-19.89-5.97-34.446,4.415-47.21,17.149c-14.707,14.672-28.039,30.713-42.245,45.9c-19.118,20.438-40.95,36.874-68.605,44.007
		c-5.25,1.354-11.77,5.879-15.896,1.004c-3.581-4.231-0.328-10.962,0.872-16.45c0.737-3.371,2.37-6.547,4.321-11.723
		c8.9,14.994,19.172,11.119,29.187,3.863c17.227-12.481,20.446-27.888,11.143-50.753c10.167-4.586,21.413-3.053,32.412-5.362
		c-26.003-15.307-53.802-3.698-66.874,27.442c-15.17-21.48-8.777-42.345,15.85-49.344c38.545-10.955,76.819-22.357,111.613-43.042
		c19.74-11.735,38.556-24.597,54.838-40.919c7.38-7.398,13.873-15.488,19.273-24.431c25.984-43.032,19.933-62.363-28.087-75.153
		c-89.578-23.859-170.515-2.261-244.082,51.792c-3.195,2.347-5.052,6.676-10.784,6.924c-7.195-28.398,0.045-53.018,19.016-74.568
		c4.557-5.176,7.993-10.203,9.426-17.233c3.303-16.21,14.839-27.112,26.804-37.249c14.331-12.142,30.349-21.899,46.995-30.497
		c37.845-19.548,75.83-38.827,113.788-58.155c2.655-1.352,5.068-3.985,7.526-2.891c-9.373,10.072-19.114,20.538-31.615,33.971
		c12.148-1.377,20.045-2.272,27.942-3.166C314.601,592.923,319.522,588.43,320.344,595.991z"/>
	<path style="fill:#A8A8A8;" d="M492.228,539.982c13.662-6.141,27.325-12.283,42.046-18.9
		c-20.294,52.572-104.605,101.685-176.261,108.919c14.943-16.041,29.669-29.645,39.275-47.763
		c12.419-23.423,17.243-47.462,12.099-73.322c-1.27-6.385-1.19-10.763,5.386-14.066c54.055-27.152,108.01-54.504,166.227-83.935
		c-21.606,31.894-48.08,52.095-73.515,74.549c17.93-8.672,35.861-17.344,53.791-26.016
		C545.067,492.543,520.04,517.038,492.228,539.982z"/>
	<path style="fill:#1D1717;" d="M417.128,647.163c28.787-0.467,57.812-0.797,86.485-6.88c13.136-2.787,24.161-8.087,33.52-18.069
		c61.287-65.366,90.022-139.732,65.543-229.621c-3.071-11.277-6.102-13.64-17.308-7.774
		c-69.865,36.57-140.135,72.366-211.635,109.12c17.21,18.758,22.179,39.777,14.341,63.274
		c-6.588,19.749-18.211,35.833-34.831,48.331c3.899-10.783,9.824-20.314,13.005-31.089c8.017-27.156-2.204-48.419-28.497-59.134
		c-20.186-8.226-41.399-7.859-63.361-7.171c2.164-5.585,7.359-6.152,11.124-8.083c114.558-58.725,229.29-117.11,343.674-176.172
		c12.098-6.247,14.835-3.837,17.383,8.482c25.793,124.691-13.035,228.007-102.976,314.745c-5.496,5.3-11.826,7.888-19.467,8.486
		C488.209,658.417,452.653,656.615,417.128,647.163z"/>
	<path style="fill:#A8A8A8;" d="M394.522,825.341c12.91-22.035,27.203-42.596,33.843-67.764c4.05-15.35-0.24-24.493-12.482-32.441
		c-28.332-18.394-59.675-29.354-92.628-34.217c-53.842-7.946-107.435-6.529-159.564,11.692c-4.811,1.682-9.539,3.601-14.866,4.378
		c36.25-38.043,81.696-60.126,132.484-73.399c-7.348,4.471-14.634,9.051-22.062,13.385c-8.129,4.743-14.772,11.144-24.704,21.275
		c60.171-2.489,114.808,6.373,167.136,36.922c-4.571-12.824-13.667-15.852-20.675-23.164c8.059-1.582,13.802,1.808,19.267,4.394
		c22.034,10.425,44.431,20.413,61.007,39.34c2.971,3.392,6.77,5.817,4.59,11.898C452.385,775.268,425.523,801.943,394.522,825.341z"
		/>
	<path style="fill:#1E1817;" d="M674.804,368.498c-3.831-18.829-6.943-36.619-11.274-54.107c-1.583-6.392,1.075-8.245,5.571-10.547
		c75.769-38.8,151.504-77.665,230.442-118.154c-8.453,38.91-19.806,74.348-53.186,93.407
		C790.54,310.963,732.398,338.763,674.804,368.498z"/>
	<path style="fill:#1E1818;" d="M673.755,430.66c-0.677-2.325-1.082-3.266-1.217-4.245c-4.216-30.592,8.592-47.414,37.636-60.234
		c52.636-23.234,102.901-51.83,154.248-78.008c2.967-1.513,5.661-4.862,10.908-2.852c-5.353,24.424-14.876,47.545-37.302,59.843
		C784.001,374.791,728.765,402.213,673.755,430.66z"/>
	<path style="fill:#1E1818;" d="M822.882,435.169c-15.068,37.021-38.65,63.896-74.731,80.743
		c-41.603,19.424-81.97,41.494-125.217,63.613c9.373-19.915,17.641-37.346,25.76-54.846c1.702-3.669,4.927-5.126,8.14-6.776
		c53.928-27.7,107.854-55.404,161.815-83.04C819.382,434.485,820.557,434.97,822.882,435.169z"/>
	<path style="fill:#1E1818;" d="M854.101,354.941c-10.597,35.375-27.41,60.051-58.698,75.004
		c-45.776,21.877-90.434,46.092-136.86,69.975c3.38-16.017,6.557-30.555,9.456-45.149c0.8-4.028,3.079-6.316,6.496-8.061
		C733.425,416.622,792.339,386.505,854.101,354.941z"/>
	<path style="fill:#1E1818;" d="M567.368,646.332c18.673-18.132,32.836-40.021,58.231-51.782
		c47.366-21.935,93.23-47.11,140.372-69.79C715.453,590.778,647.708,628.669,567.368,646.332z"/>
	<path style="fill:#26201E;" d="M155.587,933.624c-0.513,11.951-1.112,22.273,3.114,32.84
		C139.09,957.027,137.937,946.927,155.587,933.624z"/>
	<path style="fill:#7E7C7A;" d="M320.344,595.991c-2.19-3.537-6.194-1.741-9.125-3.101c8.115-4.273,16.676-2.841,28.148-2.172
		C331.544,594.159,326.283,596.148,320.344,595.991z"/>
	<path style="fill:#D2D5E7;" d="M642.471,209.971c0.844-14.878,12.282-13.761,18.513-18.517c0.473-0.361,3.06,0.796,3.339,1.67
		c0.805,2.517,0.565,5.281-2.128,6.727C656.349,202.993,650.392,205.928,642.471,209.971z"/>
	<path style="fill:#0E0C7D;" d="M482.026,779.269c23.914-38.139,17.98-70.798-17.43-99.116c25.975,3.433,50.269-2.966,74.841-2.463
		c3.918,0.08,10.495-1.857,10.797,2.927c0.538,8.524-0.511,17.597-3.146,25.71c-1.674,5.153-6.379-4.031-10.22-0.838
		c2.338,22.66,7.1,26.952,34.716,28.315c27.379,1.351,54.785,1.621,82.68-10.123c-20.093,31.144-81.369,68.984-113.468,70.037
		c25.437-11.118,49.384-24.637,72.628-43.884c-19.947,1.948-37.773,3.277-56.01,0.638c-18.71-2.708-31.306-8.234-31.195-29.504
		c0.017-3.286-2.369-6.584-4.719-12.653C517.918,739.117,509.295,764.104,482.026,779.269z"/>
	<path style="fill:#0F0D7C;" d="M287.76,906.399c-22.115,18.713-34.254,42.116-56.002,56.275c-3.356,2.185-6.663,6.486-11.017,4.202
		c-5.213-2.735,0.178-7.69-0.859-10.941c-6.653-20.854,7.246-21.341,21.198-22.334c3.313-0.236,8.534,1.817,9.44-2.668
		c1.094-5.414-3.862-8.314-8.35-9.541c-21.077-5.763-41.891-8.604-59.804,8.468c-2.234,2.129-4.567,4.153-6.968,6.33
		c-5.744-12.248-1.7-20.207,12.891-23.135C219.773,906.737,251.559,903.384,287.76,906.399z"/>
	<path style="fill:#A6A5A5;" d="M287.54,881.538c21.735-6.621,44.382-1.502,67.77-8.779c-8.96,16.537-19.808,20.324-34.598,15.557
		C310.033,884.873,298.173,887.411,287.54,881.538z"/>
	<path style="fill:#D0D0CF;" d="M182.993,648.058c-13.235,13.825-27.093,26.833-44.899,36.55
		C142.245,667.959,162.353,651.232,182.993,648.058z"/>
	<path style="fill:#100E7A;" d="M182.913,999.628c-6.022,1.842-9.978,7.236-14.779,1.45c-0.812-0.979,0.334-5.352,0.89-5.415
		C173.505,995.151,178.311,994.57,182.913,999.628z"/>
	<path style="fill:#0E0B7D;" d="M538.602,635.59c17.049-19.151,30.445-37.962,42.108-58.29
		c33.458-58.315,44.554-119.764,30.128-185.642c-3.3-15.071-3.061-15.123,2.623-29.995c-21.013,10.449-40.402,19.837-59.565,29.667
		c-60.976,31.282-121.785,62.892-182.874,93.951c-10.285,5.229-14.086,7.806-4.442,19.083
		c11.397,13.326,21.041,29.533,12.079,52.227c-5.921-42.217-35.748-51.533-68.012-57.655c0.234-5.789,5.302-6.242,8.622-7.941
		c99.822-51.078,199.705-102.035,299.618-152.935c18.888-9.622,19.492-9.574,23.321,10.53
		c13.98,73.408-0.808,141.905-35.884,206.925c-14.904,27.627-35.394,50.978-55.68,74.517
		C548.447,632.585,546.437,636.097,538.602,635.59z"/>
	<path style="fill:#0E0B7D;" d="M885.264,204.988c-44.256,48.827-94.858,87.929-150.593,120.633
		c-12.512,7.342-25.046,14.658-37.753,21.653c-15.287,8.416-15.859,8.049-19.32-9.352c-1.207-6.068-2.037-12.213-3.342-18.257
		c-1.405-6.508,0.584-10.75,6.725-13.855c67.12-33.926,134.159-68.014,201.241-102.015
		C882.509,203.65,883.107,204.119,885.264,204.988z"/>
	<path style="fill:#0E0C7D;" d="M860.021,303.516c-51.637,46.963-113.023,78.672-174.508,111.162
		c-5.564-22.597-4.802-24.253,13.447-33.565c49.797-25.411,99.568-50.874,149.359-76.3c3.109-1.588,6.293-3.028,9.442-4.537
		C858.514,301.355,859.267,302.435,860.021,303.516z"/>
	<path style="fill:#0E0C7D;" d="M644.88,557.912c6.297-19.949,11.744-33.432,29.257-41.643
		c42.233-19.802,83.289-42.112,124.85-63.351c1.189-0.608,2.721-0.546,8.004-1.509C757.838,496.688,703.932,527.59,644.88,557.912z"
		/>
	<path style="fill:#0E0C7D;" d="M673.709,482.838c-1.473-19.074,3.892-29.815,20.131-37.559
		c42.474-20.254,83.935-42.63,125.839-64.084c4.422-2.264,9.099-4.028,14.398-4.649
		C789.362,424.722,730.964,451.568,673.709,482.838z"/>
	<path style="fill:#0F0D7C;" d="M592.198,633.905c11.688-19.76,95.125-68.503,138.755-81.792
		C689.107,584.448,642.753,609.227,592.198,633.905z"/>
</g>
</svg>
