<?xml version="1.0" encoding="utf-8"?>
<!-- Generator: Adobe Illustrator 28.3.0, SVG Export Plug-In . SVG Version: 6.00 Build 0)  -->
<svg version="1.1" id="Layer_1" xmlns="http://www.w3.org/2000/svg" xmlns:xlink="http://www.w3.org/1999/xlink" x="0px" y="0px"
	 viewBox="0 0 1000 1000" style="enable-background:new 0 0 1000 1000;" xml:space="preserve">
<path style="fill:#FFFFFF;" d="M964.918,580.671c26.609-18.193,39.232-42.839,33.869-75.339
	c-2.993-18.136-10.622-34.554-20.467-49.899c-29.983-46.732-70.485-83.497-112.811-118.504c0,0,0,0,0,0c0,0,0,0,0-0.001
	c-13.513-10.583-26.994-21.208-40.547-31.741c-28.831-22.405-58.801-43.231-88.93-63.827
	c-37.839-25.867-76.641-50.251-115.643-74.301c-24.639-15.193-49.612-29.852-74.56-44.537
	c-25.27-14.875-50.537-29.771-76.124-44.088c-11.31-6.329-22.235-13.428-34.238-18.518c-3.738-1.585-7.436-1.561-10.154,1.154
	c-2.62,2.618-4.045,5.895-2.877,10.296c2.467,9.292,5.744,18.282,8.971,27.296c15.339,42.837,32.898,84.715,54.981,124.563
	c6.994,12.62,14.734,24.827,22.268,37.449c-3.459,0-6.677,0-9.896,0c-9.389-0.685-18.79-0.115-28.185-0.301
	c-15.103-0.264-30.215,0.535-45.311-0.413c-3.659-0.005-7.317-0.01-10.976-0.016c-16.322,0.958-32.659,0.169-48.987,0.429
	c-7.773,0.184-15.556-0.384-23.323,0.306c-9.314,0.164-18.628,0.329-27.941,0.493c-6.214,1.155-12.53-0.245-18.75,0.751
	c-5.585,0.163-11.171,0.326-16.756,0.489c-4.643,1.122-9.437-0.303-14.08,0.829c-5.08,0.127-10.16,0.254-15.24,0.381
	c-4.158,1.118-8.467-0.232-12.632,0.776c-0.408-0.008-0.816-0.039-1.222-0.02c-22.07,1.037-44.055,3.326-66.086,4.741
	c-15.185,0.975-30.274,2.682-45.354,4.322c-18.725,2.036-37.381,4.825-55.984,7.965c-20.616,3.48-40.967,7.952-61.029,13.772
	c-5.343,1.55-8.088,7.486-6.418,12.948c4.535,14.831,15.755,23.985,27.651,32.526c12.875,9.243,27.535,14.895,42.404,20.276
	c-5.914,8.019-5.854,12.343,0.667,20.024c13.412,15.798,29.303,28.595,46.699,39.888c8.51,5.524,18.472,7.565,25.244,17.858
	c13.802,20.977,35.603,33.513,58.366,43.56c4.092,1.806,6.675,3.223,5.94,8.033c-0.359,2.346,0.916,4.343,2.387,5.992
	c5.007,5.615,10.214,11.032,16.148,15.71c14.8,11.667,31.505,19.389,49.912,23.63c-0.911,2.779-2.915,3.968-4.49,5.464
	c-5.889,5.596-12.041,10.926-17.756,16.691c-5.563,5.611-5.027,13.303,1.671,16.93c13.117,7.103,27.126,11.828,42.163,12.924
	c5.221,1.666,10.83-0.971,15.984,1.44c-1.871,2.133-3.897,4.15-5.586,6.419c-6.187,8.308-4.484,14.951,5.034,19.289
	c9.951,4.535,20.443,6.633,31.385,7.24c6.426,0.357,12.639-1.88,19.296-1.199c-1.048,3.051-2.046,5.666-2.846,8.341
	c-2.387,7.985,0.309,12.794,8.342,14.884c29.574,7.693,59.579,12.519,90.161,13.49c10.763,0.482,21.527,0.547,32.289-0.042
	c17.334-0.54,34.03-4.036,49.883-11.121c3.533-1.579,5.195-1.4,4.814,2.926c-0.087,0.991,0.128,2.009,0.203,3.015
	c0.339,9.304-1.337,18.663,0.844,27.922c0.462,1.964,0.063,3.498-2.489,3.957c-1.503,0.271-2.83,1.458-4.266,2.172
	c-25.884,12.855-40.894,36.123-29.69,66.506c1.045,2.833-0.747,3.556-2.145,4.746c-12.243,10.412-23.908,21.375-33.279,34.552
	c-7.677,10.796-13.332,22.583-14.665,35.802c-1.658,16.438,4.717,30.382,15.511,42.468c6.871,7.694,15.613,5.865,18.929-3.83
	c1.088-3.18,2.43-6.272,3.54-9.445c0.889-2.542,1.928-2.477,3.851-0.808c9.704,8.421,17.207,7.184,25.214-3.327
	c4.676-6.139,8.115-12.845,11.53-19.669c0.746-1.49,1.148-5.491,4.045-3.803c2.116,1.233,4.373,3.825,4.027,7.037
	c-0.241,2.241-2.415,3.185-3.851,4.531c-4.264,3.996-3.391,15.887,4.559,16.459c15.101,1.086,28.944-3.816,39.093-15.464
	c9.138-10.488,9.747-23.824,7.798-36.709c-1.01-6.679,1.924-5.073,5.338-4.698c6.39,0.703,12.764,1.965,19.162,2.089
	c15.885,0.308,31.781,0.181,47.671,0.047c3.11-0.026,5.253,1.123,7.573,3.047c10.415,8.64,20.736,17.432,31.604,25.478
	c28.477,21.083,58.463,39.737,90.715,54.586l0,0l0,0c10.311,5.768,21.246,10.221,32.122,14.718
	c33.61,13.896,68.118,25.179,103.491,33.613c11.642,2.776,23.086,6.96,35.325,6.858c3.703-0.031,6.894-1.104,8.651-4.5
	c1.993-3.852,1.654-7.736-1.011-11.239c-4.371-5.745-8.771-11.469-13.229-17.147c-9.58-12.199-18.78-24.668-27.503-37.763
	c4.922,0,9.369,0.018,13.815-0.004c9.117-0.045,14.398-8.063,9.829-15.803c-13.179-22.324-25.093-45.335-37.551-68.05
	c-0.373-0.922-0.683-1.875-1.126-2.762c-22.214-44.493-43.091-89.593-61.267-135.9c-4.281-10.906-9.28-21.588-12.3-33.153
	c17.387-1.736,34.229-3.763,50.76-7.666C920.925,601.531,944.364,594.724,964.918,580.671z M838.273,602.219
	c-6.525,0.227-8.539,3.355-6.877,9.783c0.359,1.387,0.918,2.699,1.418,4.033c8.498,22.692,17.348,45.241,26.791,67.56
	c14.844,35.082,30.86,69.619,47.938,103.665c1.508,3.005,2.542,6.61,6.568,7.478c0.023-0.006,0.04-0.016,0.063-0.023
	c-1.64,2.998,0.437,5.342,1.6,7.757c8.298,17.242,17.76,33.857,27.407,50.365c2.063,3.53,1.804,4.9-2.696,4.961
	c-5.731,0.078-11.271-1.646-17.01-1.288c-7.193,0.448-9.209,3.487-5.994,9.923c2.91,5.825,6.647,11.164,10.442,16.464
	c10.721,14.972,21.897,29.608,33.072,44.439c-1.428,0.435-2.429,0.187-3.396-0.023c-24.848-5.401-49.369-12.029-73.571-19.82
	c-24.609-7.923-48.576-17.505-72.127-28.155c-2.463-1.114-4.996-2.847-7.839-1.44c-1.738-4.228-5.9-5.347-9.441-7.098
	c-38.874-19.226-74.819-42.906-107.739-71.109c-7.845-6.721-15.401-10.513-26.719-9.707c-23.297,1.658-46.75,0.855-69.956-3.169
	c-11.001-1.908-12.852,0.505-9.582,11.433c2.133,7.128,2.717,14.382,2.253,21.738c-0.755,11.966-11.579,22.531-24.283,23.52
	c4.139-14.594-4.613-22.985-14.908-30.373c-4.14-2.971-6.933-2.008-9.614,2.344c-1.175,1.907-2.036,3.989-3.023,6
	c-3.673,7.486-6.917,15.214-11.848,22.008c-3.931,5.417-5.304,5.496-10.426,1.128c-6.465-5.514-13.367-4.774-18.478,1.995
	c-1.861,2.465-2.952,5.314-4.143,8.135c-1.855,4.397-2.663,4.48-5.43,0.61c-9.146-12.789-9.673-26.369-3.473-40.472
	c8.777-19.964,23.612-34.88,40.406-48.106c8.606-6.777,8.876-7.362,5.159-17.255c-6.78-18.048-2.931-32.517,11.942-44.654
	c5.732-4.677,12.309-7.851,19.09-10.713c6.806-2.872,7.625-4.548,6.395-11.701c-0.52-3.021-0.415-6.094-0.953-9.1
	c-1.391-3.215-0.336-7.137-2.405-10.158c0.211-0.301,0.431-0.595,0.619-0.914c0.556-4.444,0.776-8.936,1.924-13.292
	c0.695-6.059,0.275-12.166,0.802-18.227c0.201-2.314,0.191-4.58-2.053-5.926c-2.184-1.31-4.284-0.475-6.299,0.682
	c-3.34,1.917-6.254,4.446-9.663,6.305c-17.928,9.78-37.352,12.895-57.425,13.295c-6.304,2.123-12.604,2.041-18.9-0.022
	c-15.465,0.136-30.752-1.824-46.008-3.981c-13.446-1.901-26.847-4.139-40.068-7.279c-5.802-1.378-6.27-2.528-4.303-8.071
	c1.629-4.59,3.496-9.094,5.001-13.727c0.827-2.547,1.701-5.322-0.434-7.481c-2.143-2.168-4.918-1.281-7.47-0.474
	c-6.386,2.018-12.715,4.287-19.54,4.322c-4.32,1.195-8.643,2.325-13.112,0.685c-4.616-0.735-9.298-1.099-13.76-2.609
	c-7.853-2.658-7.929-3.134-2.821-9.55c4.427-5.562,9.13-10.909,13.285-16.68c1.304-1.81,2.338-4.049,0.699-6.21
	c-1.408-1.857-3.564-1.688-5.618-1.35c-5.009,0.823-9.843,2.542-14.929,2.95c-4.805,1.696-9.611,1.647-14.418-0.01
	c-11.507-0.755-22.415-4.005-33.085-8.098c-4.614-1.77-4.576-2.642-1.127-6.105c8.48-8.515,17.931-15.999,26.199-24.733
	c1.825-1.927,3.965-3.949,3.204-6.872c-0.817-3.137-3.818-3.21-6.435-3.652c-15.802-2.669-30.779-7.71-44.702-15.714
	c-8.613-4.952-16.855-10.379-23.046-18.312c1.079-1.271,2.166-1.186,3.145-1.139c5.137,0.246,10.11-1.082,15.172-1.544
	c2.014-0.184,4.218-0.931,4.306-3.513c0.074-2.197-1.793-3.051-3.524-3.716c-2.856-1.098-5.864-1.681-8.832-2.395
	c-27.933-6.724-52.292-20.11-73.407-39.494c-1.456-1.337-3.738-2.533-3.545-4.676c0.174-1.929,2.609-1.451,4.06-1.881
	c2.441-0.722,6.159-0.234,6.331-3.495c0.178-3.382-3.565-3.904-6.135-4.982c-0.563-0.236-1.178-0.322-1.765-0.489
	c-30.113-8.545-54.531-25.923-75.453-48.702c-0.754-0.821-2.015-1.634-0.846-3.458c11.129-0.913,22.535,0.31,33.86-0.741
	c5.127-1.953,10.257-1.1,15.385-0.013c4.055-0.278,8.094-0.756,12.162-0.884c1.891-0.06,4.043-0.666,4.414-2.61
	c0.489-2.563-2.081-3.113-3.844-3.992c-0.911-0.454-1.936-0.582-2.953-0.71c-7.863-0.988-15.667-2.358-23.446-3.843
	c-24.844-4.743-49.256-10.904-71.799-22.859c-11.03-5.849-21.462-12.555-28.935-22.882c-4.688-6.478-4.154-7.891,3.336-9.833
	c35.669-9.248,71.969-14.85,108.563-18.763c19.38-2.072,38.827-3.403,58.226-5.184c23.063-2.118,46.187-3.017,69.277-4.227
	c16.618-0.871,33.282-2.062,49.959-1.751c4.93-1.695,9.94-1.574,14.979-0.663c16.107-0.627,32.23,0.124,48.34-0.461
	c7.78-1.896,15.692-1.938,23.643-1.904c23.21,0.101,46.421,0.035,69.635,0.036c4.626-0.477,8.918,1.415,13.41,1.856
	c12.361,0.621,24.743-0.216,37.106,0.478c4.527-1.186,9.399-0.306,13.771-2.391c2.356-3.659-0.299-6.286-2.098-8.794
	c-6.893-9.606-13.36-19.484-19.447-29.61c-23.914-39.779-42.338-82.122-58.572-125.49c-3.962-10.585-7.662-21.246-11.056-32.55
	c2.628,0.746,4.339,1.863,6.085,2.846c62.484,35.16,124.446,71.206,185.38,109.003c43.784,27.159,87.078,55.063,129.234,84.703
	c31.492,22.142,62.602,44.786,92.363,69.24c2.692,2.212,5.261,4.999,9.118,4.979c0.058,2.409,1.794,4.009,3.537,5.438
	c3.154,2.585,6.131,5.363,9.217,8.021c31.059,26.756,60.91,54.698,85.173,88.013c11.063,15.19,20.968,31.042,26.466,49.271
	c9.224,30.583,1.023,54.838-25.265,73.015c-19.242,13.305-41.012,20.568-63.671,25.437
	C875.939,598.825,857.248,601.557,838.273,602.219z"/>
<path style="fill:#1D3043;" d="M914.258,794.554c10.814,22.161,23.059,43.565,35.315,65.092c-11.276,1.853-21.657-1.812-33.33-0.503
	c13.953,26.415,33.391,48.196,50.674,72.246c-13.032-2-25.36-5.185-37.685-8.284c-30.528-7.675-60.349-17.622-89.67-29.01
	c-12.269-4.765-24.166-10.486-36.233-15.772c-16.118-9.001-32.812-16.911-48.523-26.708c-19.381-12.085-38.356-24.656-56.062-39.132
	c-7.157-5.851-14.552-11.41-21.32-17.724c-4.46-4.16-9.452-2.366-14.663-2.085c-11.37,0.613-22.8,0.282-34.202,0.108
	c-14.655-0.224-29.188-1.639-43.546-4.785c-2.935-0.643-5.705-0.661-3.786,4.351c4.158,10.859,6.195,22.223,2.874,33.684
	c-3.268,11.277-16.652,21.305-28.07,21.833c-1.081,0.05-1.96-0.27-2.6-1.219c-0.719-1.066,0.422-1.422,0.809-1.838
	c5.551-5.975,3.813-11.962,0.118-17.952c-3.46-5.608-8.576-9.538-13.742-13.409c-2.719-2.037-3.15-0.09-4.123,1.996
	c-4.566,9.795-8.776,19.79-14.829,28.814c-1.23,1.834-2.839,3.42-4.325,5.073c-3.086,3.433-5.727,2.943-8.343-0.731
	c-5.818-8.171-12.677-7.831-17.809,0.675c-2.635,4.366-3.428,9.385-5.606,14.871c-7.223-5.679-11.278-13.054-13.509-21.329
	c-4.746-17.603,3.123-32.062,12.613-45.757c9.856-14.224,22.278-25.991,36.586-35.728c2.978-2.026,2.633-4.056,1.176-7.015
	c-4.794-9.732-7.011-19.923-3.887-30.707c2.981-10.292,9.804-17.529,18.458-23.399c6.091-4.132,12.619-7.364,19.591-9.544
	c3.078-0.963,3.058-2.477,2.196-4.793c-1.384-3.719-1.957-7.537-1.452-11.492c-0.996-8.575-0.992-17.149-0.002-25.724
	c0.19-6.493,0.257-12.993,0.672-19.472c0.085-1.318,1.273-2.745-0.245-3.693c-1.365-0.853-2.576,0.052-3.757,1.053
	c-14.291,12.122-31.453,16.878-49.524,19.658c-6.441,0.991-12.877,0.781-19.289,1.442c-6.524,0.687-13.048,0.653-19.573,0.014
	c-19.178,0.148-38.079-2.905-56.983-5.444c-11.74-1.577-23.232-4.938-34.897-7.175c-3.697-0.709-3.506-2.172-2.439-4.984
	c3.125-8.235,6.03-16.554,9.351-25.755c-9.779,2.507-18.15,6.813-27.52,6.502c-4.894,1.473-9.987-0.234-14.901,0.928
	c-8.169-1.795-16.402-3.387-23.665-7.552c6.834-8.639,13.744-17.367,20.641-26.105c0.829-1.05,2.836-2.003,1.759-3.427
	c-1.143-1.512-2.797-0.034-4.323,0.33c-4.91,1.171-9.738,2.886-14.874,2.941c-5.392,0.693-10.785,0.664-16.179,0.018
	c-13.119-0.882-25.343-4.942-37.399-9.964c-4.637-1.931-3.774-3.23-0.889-5.849c10.342-9.386,20.607-18.858,30.822-28.383
	c1.094-1.02,3.103-1.916,2.608-3.746c-0.561-2.075-2.758-1.212-4.221-1.406c-21.676-2.883-41.318-10.748-58.965-23.677
	c-6.011-4.404-11.39-9.375-16.278-15.758c8.881-0.647,17.074-1.229,25.263-1.858c1.085-0.083,2.783,0.429,2.801-1.37
	c0.018-1.856-1.644-1.09-2.715-1.317c-27.288-5.766-52.429-16.436-74.195-34.03c-6.424-5.193-13.565-10.109-17.446-17.901
	c5.305-0.629,10.464-1.241,15.623-1.853c-36.118-10.189-65.699-30.041-90.37-59.937c13.931-1.575,26.793-0.655,39.585-1.147
	c5.313-0.904,10.633-0.714,15.957-0.117c5.391-0.419,10.782-0.838,16.173-1.257c0.042-0.267,0.084-0.535,0.127-0.802
	c-10.178-1.77-20.377-3.424-30.529-5.331c-29.907-5.618-59.071-13.368-84.773-30.617c-8.98-6.026-16.716-13.228-21.513-23.215
	c-1.293-2.691-1.601-3.693,1.946-4.661c15.496-4.23,31.11-7.918,46.901-10.805c27.536-5.034,55.25-8.685,83.144-11.222
	c19.879-1.808,39.744-3.571,59.667-4.859c14.739-0.953,29.478-1.689,44.222-2.471c19.817-1.052,39.616-2.267,59.465-2.451
	c4.917-1.436,10.017,0.196,14.955-0.893c16.213-0.108,32.427-0.217,48.64-0.325c2.123-1.041,4.392-0.528,6.587-0.531
	c28.994-0.039,57.987-0.026,86.978-0.026c4.246,0.206,8.519-0.436,12.751,0.369c12.605,0.166,25.209,0.332,37.814,0.498
	c3.775,0.772,7.59,0.223,11.385,0.319c1.297,0.033,3.057,0.258,2.638-2.072c-12.684-16.079-23.132-33.587-33.181-51.381
	c-17.496-30.984-31.442-63.613-44.64-96.553c-6.534-16.308-11.763-33.139-17.546-49.747c-0.181-0.52,0.056-1.185,0.112-1.985
	c24.303,13.754,48.583,27.222,72.595,41.153c29.396,17.054,58.751,34.192,87.791,51.84c40.123,24.385,79.91,49.316,119.042,75.283
	c34.174,22.678,67.663,46.331,100.565,70.797c14.974,11.135,29.231,23.232,43.84,34.86c0.584,0.465,1.439,0.588,2.169,0.872
	c9.375,8.224,18.797,16.394,28.112,24.683c15.468,13.765,30.433,28.08,44.398,43.359c18.73,20.493,36.03,42.104,48.208,67.309
	c7.685,15.906,11.731,32.741,8.846,50.306c-3.256,19.83-16.046,33.4-32.461,43.675c-22.091,13.828-46.66,21.05-72.065,25.659
	c-15.651,2.839-31.397,5.153-47.359,5.143c-4.341-0.003-5.292,1.233-3.651,5.403c8.554,21.734,16.384,43.767,25.417,65.296
	c16.38,39.039,33.923,77.569,53.272,115.249C912.545,791.894,913.443,793.202,914.258,794.554z"/>
<path style="fill:#8B959F;" d="M464.56,270.567c-31.45,0.049-62.901,0.099-94.351,0.148c11.092-1.885,22.287-0.874,33.426-1
	c20.164-0.228,40.334,0.07,60.501,0.148c0.447-0.056,0.657,0.03,0.635,0.257C464.743,270.418,464.674,270.567,464.56,270.567z"/>
<path style="fill:#707C88;" d="M557.349,648.657c0.001,8.575,0.001,17.149,0.002,25.724c-2.152-3.887-0.722-8.163-1.325-12.218
	C556.516,657.666,555.422,653.014,557.349,648.657z"/>
<path style="fill:#BFC4CA;" d="M465.633,647.66c6.524-0.005,13.048-0.01,19.573-0.014
	C478.682,649.183,472.158,649.13,465.633,647.66z"/>
<path style="fill:#707D88;" d="M301.604,577.938c5.393-0.006,10.786-0.012,16.179-0.018
	C312.392,579.497,306.999,579.493,301.604,577.938z"/>
<path style="fill:#A8B0B7;" d="M131.786,369.625c-5.319,0.039-10.638,0.078-15.957,0.117
	C121.138,368.361,126.454,367.889,131.786,369.625z"/>
<path style="fill:#909AA3;" d="M528.363,269.272c1.681,2.217,0.354,2.813-1.615,2.75c-4.149-0.131-8.339,0.152-12.409-0.997
	C518.898,269.514,524.096,273.114,528.363,269.272z"/>
<path style="fill:#85909A;" d="M338.245,611.733c4.865-1.947,9.968-0.073,14.901-0.928
	C348.305,613.13,343.213,611.445,338.245,611.733z"/>
<path style="fill:#939CA5;" d="M321.569,271.04c-4.936,1.123-9.946,0.994-14.955,0.893
	C311.52,270.296,316.551,270.772,321.569,271.04z"/>
<path style="fill:#254059;" d="M583.224,630.343c-8.015-8.997-12.143-20.061-16.363-31.045c-1.963-5.11-3.507-10.381-5.655-16.821
	c-3.571,6.113-3.658,12.315-5.758,17.778c-1.307,3.402-2.021,7.034-2.982,10.568c-0.422,1.554-0.511,3.551-2.329,3.963
	c-2.15,0.488-3.222-1.52-4.22-2.941c-2.334-3.32-4.81-6.607-5.652-10.729c-0.243-1.19-0.391-2.706-1.906-2.687
	c-1.469,0.018-1.619,1.592-2.024,2.714c-2.664,7.389-5.324,14.78-8.195,22.752c-5.52-6.176-6.488-13.881-10.123-21.466
	c-3.913,8.182-4.763,16.263-7.082,23.878c-0.62,2.037-0.268,5.295-2.816,5.49c-2.472,0.189-2.858-3.065-3.823-4.969
	c-2.573-5.076-5.547-9.994-6.787-15.652c-0.257-1.174-0.245-2.685-1.681-2.967c-1.473-0.289-1.912,1.212-2.582,2.174
	c-5.367,7.708-10.456,15.664-13.663,24.471c-2.135,5.863-4.049,4.184-6.651,0.901c-7.254-9.155-13.346-18.866-13.798-31.584
	c-6.359,3.715-9.168,9.92-13.86,14.288c-3.102,2.888-5.85,6.248-8.298,9.72c-2.593,3.677-3.924,3.347-5.559-0.658
	c-3.616-8.86-6.154-17.952-6.498-28.607c-7.556,8.156-13.243,17.156-24.672,20.147c1.186-4.742,2.305-8.904,3.259-13.102
	c1.991-8.763,1.129-17.323-1.595-25.856c-1.385-4.338-2.952-4.856-6.82-2.325c-14.24,9.319-29.615,16.219-46.171,20.342
	c-1.465,0.365-3.248,1.377-4.409-0.379c-0.467-0.705,0.585-1.311,1.344-1.624c10.192-4.218,18.486-11.089,24.191-20.268
	c3.689-5.937,5.086-13.163,1.223-20.125c-3.978-6.501-10.104-3.289-15.303-3.054c-16.555,0.747-32.705,5.342-49.347,5.491
	c0.267-4.302,4.238-3.865,6.693-4.667c8.68-2.836,17.438-5.474,25.613-9.566c10.519-5.266,21.025-10.662,27.965-20.799
	c1.151-1.68,2.46-3.265,2.117-5.505c-0.894-2.587-3.117-2.291-5.109-2.233c-19.958,0.582-39.856-0.672-59.685-2.593
	c-14.103-1.366-28.336-2.654-41.605-8.4c8.037-2.405,16.314-2.74,24.601-2.603c16.9,0.278,33.703-0.358,50.116-4.867
	c7.239-1.989,14.459-4.04,20.751-8.491c2.732-1.933,3.466-3.736,1.147-6.344c0.507-1.701-0.433-2.062-1.875-2.191
	c-38.642-3.471-76.933-9.367-114.908-17.214c-15.094-3.119-30.374-5.782-44.665-11.992c2.239-2.036,5.004-1.278,7.575-1.35
	c18.687-0.525,37.328,1.954,56.016,0.988c13.972-0.723,27.956-1.604,41.632-4.839c6.936-1.641,13.635-3.989,19.551-8.188
	c2.619-1.859,3.398-3.862,1.199-6.513c-6.406-0.752-12.793-1.799-19.221-2.209c-49.18-3.137-97.784-9.731-144.855-24.902
	c-11.33-3.652-22.849-7.323-32.742-14.44c13.024-0.027,25.799,2.205,38.609,4.185c17.271,2.669,34.61,4.629,52.07,5.801
	c9.761,0.656,19.511,1.386,29.249,0.898c12.368-0.62,24.783-1.405,36.611-5.741c4.042-1.482,7.761-3.492,11.4-5.788
	c3.875-2.445,4.973-5.155,1.99-8.954c-13.055-3.87-26.541-5.76-39.861-8.309c-27.755-5.312-55.381-11.211-82.963-17.314
	c-34.162-7.558-68.297-15.273-101.735-25.707c-5.813-1.814-11.533-3.929-17.287-5.929c-0.905-0.315-2.23-0.617-1.643-1.931
	c0.473-1.058,1.75-0.759,2.759-0.666c6.521,0.782,12.862-0.938,19.241-1.651c15.548-1.738,31.098-2.903,46.731-3.78
	c42.935-2.409,85.886-2.4,128.842-2.112c25.424,0.171,50.85,1.271,76.237,2.611c26.784,1.414,53.56,3.324,80.247,6.073
	c55.875,5.755,111.377,13.981,166.002,27.276c16.004,3.895,32.112,7.579,47.554,13.216c-11.468-10.174-21.898-21.416-32.778-32.19
	c-2.066-2.046-5.358-3.296-5.42-6.957c-1.4-5.433-5.739-8.753-9.232-12.634c-15.474-17.191-30.343-34.813-40.549-55.817
	c-1.583-3.257-2.876-6.655-4.405-10.226c2.096-0.915,3.203,0.184,4.313,1.275c5.142,6.351,12.074,10.735,18.009,16.23
	c21.346,19.766,43.513,38.619,67.947,54.541c18.61,12.128,37.829,23.159,59.436,29.275c9.416,2.666,18.902,4.771,28.952,3.964
	c-2.111-2.34-6.104-2.967-5.817-7.057c1.13-1.643-0.381-2.045-1.282-2.745c-22.111-17.185-44.423-34.121-66.271-51.634
	c-19.304-15.474-38.233-31.415-56.923-47.649c-24.244-21.059-48.085-42.533-70.302-65.717
	c-15.306-15.972-30.212-32.353-41.103-51.89c-1.89-3.39-3.041-6.933-4.694-11.337c7.122,1.277,10.553,6.957,15.795,9.534
	c5.139,1.904,9.68,4.905,14.28,7.802c25.764,14.796,50.989,30.436,75.678,46.977c44.685,29.938,88.812,60.661,131.865,92.903
	c36.363,27.231,71.921,55.492,105.917,85.641c32.954,29.224,64.506,59.85,90.774,95.451c10.808,14.648,20.215,30.149,26.387,47.361
	c6.251,17.434,8.085,34.822-1.246,52.041c-5.458,10.072-13.608,17.267-23.273,22.785c-16.066,9.173-33.32,14.797-51.793,16.987
	c-7.844,0.93-15.714,1.752-23.55,2.854c-5.062,0.802-10.19,0.365-15.263,0.907c-5.158,2.971-10.739,2.62-16.357,2.173
	c-3.441-0.274-6.853,0.147-10.222,0.836c-5.916-0.654-11.692,1.305-17.584,1.08c-20.078-0.766-40.193-0.62-60.229-2.43
	c-1.213-0.109-2.447-0.058-3.614-0.487c-3.483-1.28-3.93-3.375-1.092-5.733c2.057-1.709,4.587-2.646,7.099-3.446
	c5.795-1.844,11.586-3.722,18.521-4.747c-15.023-8.772-28.076-18.677-39.688-30.402c-2.184-2.205-5.183-4.325-3.389-8.269
	c3.243-2.336,5.838,0.041,8.385,1.397c7.201,3.832,14.666,7.014,22.529,9.097c2.947,0.781,6.339,2.398,9.068-0.781
	c-1.376-2.831-4.366-3.496-6.647-5.091c-20.678-14.458-39.981-30.555-57.503-48.723c-1.877-1.946-5.916-4.266-1.56-7.815
	c3.626-0.251,5.882,2.409,8.616,4.06c14.289,8.629,28.564,17.286,45.628,19.402c2.593,0.322,5.207,1.091,7.432-0.978
	c0.161-1.723-1.003-2.615-2.186-3.417c-12.525-8.487-23.129-19.246-34.309-29.292c-14.527-13.054-28.724-26.501-42.102-40.743
	c-11.137-11.856-22.445-23.578-32.68-36.25c-1.728-2.139-4.122-4.256-2.135-7.526c3.072-1.394,4.959,0.843,6.995,2.385
	c17.141,12.984,33.903,26.517,52.606,37.275c11.623,6.686,23.487,12.872,36.972,15.143c4.732,0.797,8.825-0.377,12.692-2.879
	c2.352-1.522,3.408-3.458,1.528-6.081c-2.225-3.568-5.831-5.475-9.137-7.779c-8.493-5.917-16.15-12.898-24.213-19.361
	c-3.756-3.011-7.727-4.931-12.46-5.809c-9.229-1.713-9.202-1.859-6.754-10.309c-4.508-3.024-9.464-1.035-14.056-0.866
	c-7.104,0.261-14.205,0.247-21.304,0.395c-3.057-0.477-7.534,1.588-8.849-1.867c-1.532-4.027,3.84-4.235,5.903-6.375
	c1.781-1.848,4.163-3.184,6.611-3.981c-10.944,3.686-22.193,5.948-33.078,9.481c-1.16,0.376-2.408,0.307-3.633,0.11
	c-5.025-2.243-2.347-5.605-1.281-8.721c0.139-0.363,0.322-0.722,0.52-1.074c0.213-0.378,0.202-0.211-0.262,0.272
	c-8.085,8.41-17.844,14.292-28.493,18.832c-6.026,0.152-7.178-1.045-6.653-6.725c0.317-3.433,2.243-6.5,2.146-9.875
	c-6.545,9.838-15.982,15.998-25.895,21.598c-6.251,1.107-8.193-0.877-6.563-6.885c0.886-3.266,2.675-6.248,3.112-9.572
	c-7.668,5.633-14.142,12.52-21.517,18.35c-1.408,1.113-2.489,2.7-4.53,2.753c-4.79-1.135-5.482-5.076-5.141-8.833
	c0.328-3.608,0.026-7.086-0.272-10.487c-1.756,11.555-8.176,20.373-15.827,28.505c-4.944,1.819-7.423,0.75-7.117-3.782
	c0.22-3.255-0.657-6.244-0.76-9.282c-4.346,13.306-11.943,24.344-22.331,33.529c-4.345,1.278-5.426-1.968-6.172-4.895
	c-0.997-3.913-1.396-7.969-0.33-10.789c-0.066,17.87-9.031,33.629-19.155,48.814c-4.776,7.164-5.607,14.54-3.549,22.572
	c-0.048,3.056-1.797,5.337-3.58,7.553c-2.303,2.861-4.229,5.944-5.996,9.157c-6.614,12.023-6.798,23.985,9.23,33.891
	c-3.945-5.988-4.66-11.901-1.27-18.055c3.102-5.631,7.133-10.346,12.888-13.437c1.7-0.593,3.47-0.961,4.994-2.024
	c1.509-1.052,3.209-1.992,5.005-0.915c2.178,1.305,1.565,3.423,1.147,5.403c-0.21,0.994-0.027,1.999-0.027,2.994
	c-0.616,5.537-3.884,10.193-5.202,15.516c-0.774,3.128-2.225,6.125-1.309,10.489c4.809-11.274,10.964-20.794,18.234-29.593
	c2.32-2.808,4.481-5.796,7.875-7.489c12.915-6.572,26.391-11.511,40.582-14.579c5.201-1.124,10.077-0.757,14.929,1.147
	c25.505,10.004,44.552,26.37,52.821,53.444c1.597,5.227,4.479,10.035,5.081,15.036c-0.367-1.882-0.622-4.425,1.889-5.779
	c2.245-1.21,4.325,0.17,6.2,1.426c9.594,6.431,14.266,18.94,11.051,29.903c-3.144,10.721-5.697,21.598-8.671,32.362
	C587.315,626.886,587.01,630.043,583.224,630.343z"/>
<path style="fill:#355C7F;" d="M592.83,384.498c1.034,2.46-4.831,4.986,0.071,7.409c2.661,1.622,4.814-0.653,7.228-0.945
	c1.679,0.234,2.704,1.049,2.569,2.892c0.45,4.737,4.456,7.271,7.145,10.278c19.334,21.619,38.997,42.904,60.471,62.514
	c16.169,14.766,32.221,29.631,49.18,43.492c0.906,0.741,2.172,1.447,0.704,2.807c-21.498-3.152-41.389-10.927-60.464-21.04
	c-1.776-0.942-3.338-2.359-5.511-2.368c-1.215,3.001,1.71,3.776,3.038,5.15c18.515,19.163,39.082,35.906,60.844,51.228
	c1.595,1.123,3.78,1.774,4.124,4.176c-2.986,2.621-6.245,1.16-9.243,0.313c-8.565-2.421-17.29-4.377-25.421-8.181
	c-1.966-0.92-3.939-2.157-6.313-1.446c1.479,6.616,7.313,9.57,11.742,13.574c11.169,10.098,23.306,18.907,38.701,26.19
	c-13.148,1.834-24.128,4.622-34.451,9.942c27.273,1.593,54.446,4.367,81.76,2.099c2.984,0.948,6.092,0.639,9.059,0.35
	c5.759-0.561,8.954,2.001,11.446,6.979c9.926,19.828,20.446,39.34,33.99,57.007c3.827,4.992,7.273,10.279,11.573,14.929
	c1.17,1.265,3.519,2.599,1.94,5.121c-10.516-5.59-19.602-13.33-29.609-19.684c-1.391-0.883-2.42-3.1-4.571-1.278
	c1.617,9.275,6.187,17.337,11.08,25.086c5.744,9.095,12.668,17.329,20.991,24.3c2.063,1.728,4.858,3.356,3.492,6.93
	c-5.199-1.891-9.176-5.791-13.905-8.439c-1.819-1.018-3.129-3.297-5.736-2.619c0.137,6.943,4.016,12.541,6.9,18.419
	c4.995,10.18,13.286,17.941,20.312,26.634c1.45,1.794,4.61,3.113,3.292,6.46c-10.268-5.609-18.913-13.559-28.676-19.897
	c-0.967-0.628-1.705-1.872-3.104-0.861c6.498,18.347,16.241,34.875,28.063,50.254c1.407,1.83,4.871,3.227,1.947,6.441
	c-2.651,0.842-4.708-0.545-6.578-2.023c-4.191-3.313-8.641-6.31-12.389-9.793c0.283,0.66,0.724,1.555,0.874,2.555
	c2.941,11.589,8.704,21.688,16.112,30.96c1.433,1.794,4.892,3.172,1.989,6.398c-3.015,0.825-4.91-1.242-7.006-2.75
	c-5.32-3.83-9.696-8.819-15.177-12.351c0.49,7.757,4.298,14.28,7.549,20.96c6.184,12.708,12.694,25.243,21.635,36.318
	c0.651,1.159,2.049,2.526,1.796,3.433c-0.494,1.772-2.328-1.391-3.351,0.358c-3.046,0.415-4.125-2.107-5.709-3.848
	c-11.648-12.809-25.209-23.652-37.159-36.152c-0.408-0.426-1.098-0.496-1.701-0.414c-2.939,6.849,1.878,12.276,3.317,18.278
	c1.111,4.633,4.703,8.357,5.214,13.275c-3.475,2.363-5.831-0.201-7.933-2.167c-18.457-17.264-35.473-35.784-48.994-57.274
	c-1.184-1.882-2.195-3.862-3.872-5.25c2.433,15.143,9.411,28.481,15.812,42.017c2.334,4.936,4.754,9.852,7.686,14.487
	c0.93,1.47,1.51,3.008-0.639,4.056c-2.71,0.341-4.744-1.138-6.492-2.801c-20.048-19.055-39.296-38.809-53.963-62.515
	c-1.846-2.984-3.103-6.15-3.451-8.855c-0.181,4.06,4.146,8.592,0.844,13.641c-2.519,6.329,0.244,13.145-1.799,20.811
	c-5.273-8.485-8.827-16.522-12.362-24.983c0,4.596,0,9.193,0,13.789c-7.023-6.606-10.03-15.233-15.096-23.729
	c-1.868,5.389-0.707,10.134-1.103,14.724c-0.101,1.175,0.332,2.665-0.878,3.349c-1.687,0.954-2.521-0.756-3.502-1.629
	c-4.784-4.258-8.19-9.577-11.195-15.138c-2.495-4.619-5.742-6.133-11.053-4.675c-7.834,2.151-15.447,4.982-23.431,6.733
	c-11.081,2.431-20.626-0.323-29.131-7.085c-3.431-2.728-6.734-3.334-10.722-2.468c-6.743,1.465-13.5,2.863-20.253,4.278
	c-5.219,1.093-9.569,3.768-13.442,7.325c-3.12-4.716-8.124-8.344-8.476-14.661c1.599-2.772,4.85-3.051,7.162-4.747
	c14.418-7.389,28.86-14.767,32.488-32.818c1.561-7.768,0.235-15.388-1.343-22.987c-2.358-11.357-6.045-22.387-8.108-33.828
	c-1.796-9.957-0.952-19.248,3.82-28.409c18.375-35.277,11.586-67.706-12.034-97.814c-16.38-20.879-37.477-36.27-60.726-48.357
	c-13.589-7.065-27.796-3.905-40.913,3.385c-5.153,2.864-9.979,6.289-15.202,9.053c-1.481,0.783-2.854,1.56-4.591,1.187
	c-0.591-0.153-1.289-0.244-1.672-0.68c-8.699-9.893-20.486-10.002-32.255-10.319c-3.171-0.085-6.498,0.891-9.486-1.021
	c-6.424-12.389,0.913-21.829,7.075-31.239c8.849-13.514,13.996-28.261,16.31-44.742c1.726,2.062,1.901,4.08,2.134,6.155
	c0.248,2.207,0.559,4.452,1.238,6.553c0.641,1.982-0.541,5.118,3.039,5.51c13.505-8.497,20.757-20.876,22.691-36.555
	c0.156-0.782,0.26-1.58,0.487-2.341c0.16-0.537,0.486-1.025,1.369-2.808c0.676,7.664,1.39,13.567,1.649,19.489
	c0.173,3.943,1.833,2.533,3.66,1.423c0.814,0.642,1.539,0.215,2.11-0.317c8.365-7.803,13.53-17.172,14.01-28.814
	c0.366-1.536,0.733-3.071,1.099-4.607c0.323,0,0.646,0,0.97,0c0.484,5.464,1.003,10.925,1.44,16.393
	c0.256,3.211-0.075,6.59,3.061,8.782c9.209-5.302,17.152-12.126,24.26-19.989c1.232-1.363,1.752-3.902,4.488-3.273
	c-1.542,6.031-3.084,12.062-4.622,18.079c2.001,1.018,3.228-0.626,4.746-0.829c11.444-3.406,20.715-9.469,25.59-20.912
	c0.833-1.562,1.666-3.124,2.5-4.685c0.369,0.084,0.737,0.168,1.106,0.253c-0.852,5.775-1.432,11.608-2.643,17.306
	c-0.967,4.547,0.857,4.424,4.012,3.118c8.842-0.671,15.365-6.044,22.3-10.733C587.341,387.959,588.625,383.898,592.83,384.498z"/>
<path style="fill:#FEFEFE;" d="M822.844,590.155c20.815-2.723,41.409-6.376,60.827-14.81c3.536-1.536,7.042-3.195,10.392-5.095
	c26.453-14.998,35.676-37.353,27.172-66.579c-6.773-23.28-20.089-43.012-34.852-61.796
	c-30.367-38.638-66.253-71.826-103.605-103.457c-81.868-69.328-169.783-130.371-259.676-188.672
	c-10.921-7.083-21.928-14.034-32.896-21.046c-0.145-1.067-0.03-1.84,1.344-1.185c41.397,22.16,81.958,45.785,122.173,70
	c77.417,46.617,153.353,95.461,224.655,151.164c34.065,26.612,66.859,54.661,95.435,87.274
	c14.801,16.892,28.263,34.761,36.523,55.908c12.123,31.034,3.62,55.289-25.127,72.223c-4.015,2.365-8.22,4.465-12.497,6.321
	c-24.127,10.469-49.702,15.067-75.586,18.276c-10.498,1.302-21.007,2.646-31.616,2.732
	C824.299,591.677,822.841,592.466,822.844,590.155z"/>
<path style="fill:#FEFEFE;" d="M582.788,322.272c3.137,1.471,5.798,3.512,8.224,6.03c12.289,12.754,25.11,24.97,38.752,37.447
	c-3.207,0.788-5.314-0.599-7.376-1.233c-57.939-17.824-117.256-28.885-177.31-36.411c-102.979-12.905-206.354-15.43-309.953-11.783
	c-24.635,0.867-49.266,2.038-73.836,4.189c-1.725,0.151-3.647,0.958-5.158-0.724c14.223-2.239,28.428-4.61,42.674-6.696
	c65.822-9.637,131.863-15.879,198.485-11.551c18.282,1.188,36.466,3.495,54.321,7.858c1.298,0.317,2.63,1.08,4.201-0.072
	c-2.232-4.365-7.118-4.882-11.658-7.896c20.281,1.167,39.532,1.39,58.43,5.28c4.209,0.866,4.705-0.178,3.749-3.665
	c-0.897-3.274-1.802-6.547-2.959-10.745c5.058,4.304,9.476,8.065,14.535,12.369c1.772-8.671,2.974-16.758,1.757-25.196
	c4.7,7.738,8.09,16.021,11.313,25.289c7.666-7.771,14.723-15.897,24.649-22.304c-2.185,7.489-6.516,13.498-5.47,21.589
	c12.587-9.46,23.989-19.564,38.051-25.773c-5.858,7.935-12.921,14.852-18.026,24.385c20.208-6.398,39.962-11.022,60.839-8.342
	c-2.169,0.631-4.351,1.217-6.503,1.902c-3.476,1.107-7.019,2.072-10.368,3.488c-2.777,1.174-6.365,2.723-5.789,6.228
	c0.613,3.734,4.672,2.275,7.161,2.527c21.503,2.18,42.612,6.19,63.192,12.865C580.037,321.758,581.429,321.963,582.788,322.272z"/>
<path style="fill:#7D8C9B;" d="M464.289,509.344c5.846-3.635,11.578-7.469,17.56-10.866c17.015-9.662,33.951-10.848,51.264-0.133
	c23.904,14.794,46.197,31.319,61.647,55.36c18.895,29.402,21.679,59.982,4.746,91.194c-6.941,12.793-3.796,25.233-0.736,37.902
	c3,12.419,7.268,24.56,7.537,37.544c0.322,15.553-6.587,27.043-19.821,34.6c-4.882,2.788-9.438,7.093-15.864,6.207
	c2.695-2.435,5.391-4.871,8.087-7.307c10.438-13.965,12.914-29.098,6.9-45.591c-0.928-2.545-2.849-5.061-1.455-8.084
	c0.345-5.149-2.463-9.708-2.489-15.253c-3.017,3.047-2.994,7.089-6.026,11.009c0.898-11.539,3.546-21.789,2.001-33.132
	c-4.015,4.728-4.275,10.5-8.125,15.935c1.788-13.379,2.64-25.598,8.443-36.791c1.95-3.761,4.473-7.297,5.266-11.596
	c4.619-11.758,6.478-24.284,10.097-36.326c4.28-14.243,0.248-24.084-13.499-32.769c-0.204,3.973-0.39,7.575-0.658,12.787
	c-4.363-8.926-7.196-16.669-9.935-24.484c-9.463-26.991-29.534-42.538-55.903-50.995c-4.222-1.354-8.405,0.827-12.534,1.78
	c-12.53,2.89-24.29,8.002-36.194,12.691C463.341,511.896,463.289,510.664,464.289,509.344z"/>
<path style="fill:#FEFEFE;" d="M701.44,341.823c4.375,2.774,8.75,5.548,14.178,8.99c-12.292,1.827-23.175,0.565-33.931-2.249
	c-19.831-5.187-37.888-14.358-55.159-25.141c-33.968-21.207-64.169-47.081-92.532-75.198c-0.801-0.794-1.361-1.831-2.006-2.774
	c-0.028-0.041,0.195-0.309,0.345-0.401c0.167-0.103,0.384-0.125,0.579-0.182c32.143,18.609,64.3,37.193,96.424,55.834
	c22.754,13.203,45.458,26.491,68.21,39.697C698.724,341.083,700.137,341.358,701.44,341.823z"/>
<path style="fill:#FEFEFE;" d="M563.46,765.899c3.851,3.22,5.916,7.823,9.02,11.619c1.1,1.346,0.169,2.128-0.546,3.042
	c-0.984,0.228-2.015,0.339-2.947,0.702c-12.912,5.035-13.917,11.563-3.177,20.479c1.097,0.91,2.234,1.775,3.289,2.732
	c12.785,11.606,11.991,23.757-2.916,34.315c1.057-2.921,1.952-5.171,2.686-7.473c1.361-4.268,0.148-8.255-3.745-9.882
	c-3.897-1.629-4.883-4.648-6.656-7.737c-4.304-7.496-10.806-13.186-16.874-19.215c-2.112-2.098-3.683-0.798-5.261,0.467
	c-3.077,2.468-5.101,5.79-6.983,9.178c-3.567,6.419-6.089,13.291-8.631,20.155c-0.816,2.203-0.187,6.011-4.879,4.195
	c-1.44-0.557-2.122,1.623-2.404,2.967c-0.581,2.779-0.953,5.602-1.42,8.459c-4.279-5.051-4.884-9.876-1.949-16.378
	c1.575-3.489,4.585-8.462,0.507-10.191c-4.198-1.78-6.002,4.149-8.002,7.459c-1.838,3.041-0.693,7.464-4.361,9.736
	c-7.42-5.562-8.476-4.74-14.569,11.356c-3.596-4.415-4.269-7.211-2.459-13.051c3.591-11.587,11.548-19.961,20.856-27.133
	c7.239-5.578,14.652-10.741,18.952-19.33c2.655-5.302,8.034-7.897,13.349-10.157C543.645,768.258,553.558,767.1,563.46,765.899z"/>
<path style="fill:#FEFEFE;" d="M296.861,379.642c2.234,0.903,5.805-1.241,6.678,0.997c1.04,2.666-1.701,5.18-3.615,7.216
	c-6.108,6.494-14.144,9.375-22.536,11.264c-22.918,5.16-46.1,4.085-69.225,2.186c-24.92-2.047-49.65-5.668-74.174-10.605
	c-2.355-0.474-4.705-0.971-7.058-1.458c8.155-2.036,16.541-1.391,24.799-1.824c45.983-2.414,91.988-4.422,137.983-6.626
	C292.109,380.677,294.479,380.037,296.861,379.642z"/>
<path style="fill:#FEFEFE;" d="M832.32,796.562c9.169,5.37,16.056,13.585,24.599,19.736c6.247,2.446,11.72,5.819,14.65,12.235
	c24.776,29.052,49.551,58.104,74.327,87.157c-30.89-20.442-59.934-43.097-86.323-69.052c-3.418-0.255-5.387-2.433-6.941-5.192
	c-7.74-13.737-14.57-27.91-20.424-42.552C831.883,798.085,831.971,797.324,832.32,796.562z"/>
<path style="fill:#FEFEFE;" d="M584.154,700.171c10.199,16.293,9.789,38.413-1.458,51.284c-1.073,1.228-2.078,2.56-3.987,2.391
	c3.139-6.805,1.927-13.381-0.87-19.986c-6.471,6.91-15.004,12.103-15.6,23.306c-6.104-7.875-4.832-13.003,8.51-35.751
	c-8.329,4.701-14.173,10.519-20.269,15.964c-2.192,1.958-4.199,3.303-7.427,3.121c-5.408-0.306-8.5,4.11-12.914,7.768
	c1.608-8.19,4.418-14.528,11.517-18.242c-6.212-4.575-7.347-3.825-14.34,9.183c-4.812-12.986,0.737-22.135,14.513-22.102
	c7.763,0.019,13.55-2.808,19.432-7.082C568.094,705.06,574.705,699.207,584.154,700.171z"/>
<path style="fill:#FEFEFE;" d="M837.522,779.39c-1.232-2.498-2.464-4.997-3.695-7.495c0.203-0.229,0.405-0.458,0.608-0.686
	c7.511,5.64,15.023,11.279,22.534,16.919c1.996-1.244,2.122-1.351,0.706-3.02c-4.228-4.985-7.962-10.326-11.114-16.023
	c-1.126-2.035-3.731-4.841,0.62-6.636c20.853,21.531,42.877,41.771,66.398,60.48c-21.168-8.482-41.288-19.014-61.169-30.266
	c22.318,19.428,44.637,38.856,66.955,58.284c-16.399-6.285-31.687-14.477-46.301-23.949c-9.878-3.533-14.588-12.366-20.337-20.05
	C846.397,798.488,841.967,788.921,837.522,779.39z"/>
<path style="fill:#FDFDFE;" d="M323.749,430.793c2.363,0,4.726,0,7.52,0c-2.553,6.669-7.749,9.992-13.52,12.61
	c-12.012,5.45-24.882,7.203-37.838,8.337c-25.582,2.238-51.138,1.353-76.67-0.993c-1.808-0.166-3.643-0.042-5.465-0.052
	c-0.186-0.082-0.374-0.16-0.558-0.247c-0.184-0.087-0.364-0.183-0.545-0.275c1.04-1.854,3.01-1.574,4.613-1.8
	c38.645-5.438,77.301-10.801,115.95-16.212C319.428,431.854,321.579,431.256,323.749,430.793z"/>
<path style="fill:#FEFEFE;" d="M764.36,782.145c15.836,25.127,34.366,48.022,56.417,67.991c1.797,1.627,3.732,3.101,5.603,4.646
	c1.411-0.208,1.821,0.974,2.493,1.793c4.61,8.392,9.219,16.784,13.829,25.176c-21.232-12.693-40.196-27.778-55.581-47.041
	c-2.976-0.684-5.09-2.44-6.324-5.212c-6.345-14.251-12.661-28.515-16.957-43.561C763.476,784.661,762.727,783.203,764.36,782.145z"
	/>
<path style="fill:#FDFDFD;" d="M359.223,482.093c2.588,0.397,4.983-1.937,7.892-0.449c-2.617,5.947-7.51,9.402-12.998,12.155
	c-15.399,7.725-32.14,9.593-48.949,10.361c-14.16,0.648-28.371,0.2-42.559,0.237c0.231-2.793,2.573-2.136,4.204-2.487
	C297.611,495.284,328.418,488.692,359.223,482.093z"/>
<path style="fill:#FDFEFE;" d="M817.825,817.504c10.339,9.82,20.66,19.659,31.025,29.45c5.158,4.873,10.477,9.59,14.095,15.827
	c6.112,10.197,12.224,20.396,18.337,30.594c-18.461-14.267-35.556-29.804-51.625-46.468c-1.385-1.437-2.95-2.701-4.431-4.045
	c-1.76-0.23-3.09-1.243-3.725-2.773c-2.868-6.907-4.67-14.102-5.3-21.563C816.117,817.544,816.895,817.234,817.825,817.504z"/>
<path style="fill:#FDFDFD;" d="M725.903,789.257c-1.965-6.084-2.313-12.342-2.033-19.331c15.054,32.265,40.054,55.64,64.838,79.193
	c2.325,0.384,3.709,1.839,4.509,3.959c2.42,3.678,4.164,7.628,4.75,12.21C769.84,843.772,741.915,822.181,725.903,789.257z"/>
<path style="fill:#7D8C9A;" d="M847.014,676.968c-11.837-12.927-22.526-26.705-31.312-41.916
	c-6.517-11.283-13.174-22.507-18.555-34.377c-2.305-5.084-5.188-7.836-11.03-7.102c-2.326,0.292-4.911,0.502-7.113-0.992
	c9.335-0.391,18.669-0.782,28.003-1.174c0.4,0.291,0.512,0.541,0.335,0.75c-0.158,0.187-0.318,0.282-0.482,0.282
	c-2.818,1.437-1.929,3.352-0.857,5.484c14.148,28.134,28.142,56.352,47.39,82.944C850.267,679.951,848.659,678.425,847.014,676.968z
	"/>
<path style="fill:#FDFDFD;" d="M369.007,517.624c0.938-0.306,2.059-1.091,2.777-0.818c1.434,0.546,0.226,1.631-0.076,2.402
	c-2.508,6.427-7.013,11.322-12.353,15.449c-14.685,11.35-31.859,17.236-49.414,22.255c-1.133,0.324-2.216,0.828-3.322,1.248
	c-2.374,0.303-4.748,0.606-8.526,1.087C322.476,544.936,345.742,531.28,369.007,517.624z"/>
<path style="fill:#7C8B9A;" d="M848.399,712.323c-8.384-8.216-17.135-16.061-23.923-25.792c-5.985-8.579-10.654-17.744-13.565-27.78
	c-0.802-2.766-0.641-2.813,1.925-2.744c13.962,21.248,29.662,41.238,44.327,62.304C854.241,716.315,851.32,714.319,848.399,712.323z
	"/>
<path style="fill:#7C8B9A;" d="M859.262,752.778c-5.682-7.614-13.484-13.296-18.987-21.11c-5.987-8.5-10.996-17.405-13.393-27.606
	c-0.653-2.779-0.585-2.794,1.876-2.798c11.411,17.522,22.822,35.044,34.676,53.247C861.083,754.692,860.235,753.575,859.262,752.778
	z"/>
<path style="fill:#7D8C9B;" d="M847.18,762.448c-2.324,2.224,0.299,3.571,1.122,4.933c5.012,8.3,10.236,16.472,16.13,25.869
	c-3.584-1.582-5.738-2.999-7.464-5.123c0.099-3.624-3.309-4.731-5.102-6.964c-11.154-13.892-19.452-29.271-24.63-46.326
	c-0.304-1-0.571-1.941,0.245-2.817C833.492,742.523,838.762,753.505,847.18,762.448z"/>
<path style="fill:#7C8B9A;" d="M793.218,853.078c-1.97-0.789-3.35-2.249-4.509-3.959c1.7-2.505-0.873-3.745-1.824-5.173
	c-11.408-17.135-18.905-35.878-23.356-55.896c-0.441-1.985-1.882-4.289,0.832-5.905c1.468,8.282,5.096,15.792,8.483,23.368
	c3.306,7.394,7.232,14.55,9.475,22.351c0.874,3.039,4.147,3.935,4.804,6.846c-0.447,4.462,2.85,7.618,4.033,11.514
	C791.848,848.507,793.65,850.453,793.218,853.078z"/>
<path style="fill:#7D8C9B;" d="M832.32,796.562c8.28,17.129,15.838,34.652,27.253,50.076c-0.982,5.163,3.731,8.055,4.927,12.351
	c-3.636,0.61-3.998-2.993-5.346-4.716c-12.746-16.296-21.224-34.809-27.372-54.458C831.427,798.682,830.987,797.453,832.32,796.562z
	"/>
<path style="fill:#FAFAFB;" d="M371.27,555.724c1.086-2.744,1.532-0.414,1.875,0.315c3.962,8.421,3.29,16.508-2.289,23.95
	c-6.124,8.169-14.748,12.992-23.865,17.04c-0.567,0.252-1.09-0.187-1.135-0.913c8.91-6.268,16.281-13.991,21.621-23.503
	C370.394,567.42,372.238,561.854,371.27,555.724z"/>
<path style="fill:#7F8E9D;" d="M837.522,779.39c3.672,2.631,4.374,7.156,6.737,10.639c4.433,6.538,8.779,13.167,12.643,20.05
	c3.983,7.095,10.041,11.985,16.162,16.918c-0.499,0.512-0.998,1.024-1.496,1.536c-4.657-4.349-10.54-7.231-14.65-12.235
	c0.774-2.648-1.762-3.38-2.924-4.815C846.253,801.926,840.176,791.545,837.522,779.39z"/>
<path style="fill:#7C8C9B;" d="M817.825,817.504c0.039,9.161,3.951,17.192,7.4,25.358c-0.105,4.922,3.57,8.839,3.649,13.712
	c-1.294,0.045-1.878-0.895-2.493-1.793c0.12-2.933-2.042-4.787-3.366-7.02c-4.989-8.41-7.927-17.374-7.553-27.258
	C815.537,818.524,815.588,818.526,817.825,817.504z"/>
<path style="fill:#C7CDD3;" d="M491.549,127.514c-0.448,0.395-0.896,0.79-1.344,1.185c-4.515-2.771-9.03-5.543-13.545-8.314
	C482.584,120.754,486.83,124.628,491.549,127.514z"/>
<path style="fill:#C9CFD4;" d="M806.86,592.439c0.136-0.332,0.185-0.675,0.147-1.032c5.279-0.417,10.558-0.835,15.836-1.252
	c0.889,0.419,1.778,0.838,2.666,1.257C819.367,593.101,813.093,592.4,806.86,592.439z"/>
<path style="fill:#FEFEFE;" d="M602.699,393.854c-0.82-0.715-1.639-1.429-2.459-2.144c1.952-3.595,4.784-0.092,7.087-0.89
	c29.839,12.725,59.973,24.755,89.719,37.71c6.343,2.763,12.115,6.484,17.991,10.05c3.626,1.421,4.379,3.367,1.653,6.581
	c-4.889,5.763-11.175,7.016-18.182,6.051c-12.524-1.725-23.606-7.28-34.398-13.422c-20.209-11.501-38.654-25.514-56.614-40.199
	C605.927,396.308,604.299,395.098,602.699,393.854z"/>
<path style="fill:#FEFEFE;" d="M464.289,509.344c0.103,1.228,0.206,2.455,0.309,3.683c-11.399,12.005-20.352,25.6-26.627,42.779
	c-6.372-13.377,1.128-22.859,4.634-32.934c1.467-4.187,2.695-8.474,4.668-11.856c-4.791,1.401-8.919,5.083-13.576,7.87
	c-1.554,1.285-3.236,2.444-4.642,3.875c-10.822,11.02-11.015,17.262-1.028,29.906c-13.519-0.798-24.654-15.744-21.764-29.065
	c2.145-9.888,8.524-17.296,14.336-25.055C433.375,493.143,457.41,499.084,464.289,509.344z"/>
<path style="fill:#365C80;" d="M715.038,438.58c-18.492-7.724-37.004-15.399-55.468-23.188
	c-17.731-7.479-35.411-15.078-53.114-22.624c-0.248-2.222,1.492-2.662,2.984-3.102c6.726-1.983,13.356-4.235,19.877-6.81
	c1.027-0.406,1.945-0.31,2.711,0.551c-4.823,3.346-9.646,6.691-15.231,10.566c3.248,0.195,5.565,0.335,7.882,0.474
	c0.023,0.2,0.119,0.544,0.056,0.576c-0.487,0.249-0.572,0.584-0.163,0.633c5.379,0.636,10.826,0.877,16.171,0.346
	c5.601-0.557,11.243,0.049,16.795-0.945c2.353-0.421,4.327,0.479,6.237,1.667c0.808,2.498,0.808,2.498-3.644,5.377
	c1.087,1.831,2.881,1.931,4.641,1.953c8.774,0.11,15.056,5.035,21.232,10.52C695.396,422.913,705.959,429.851,715.038,438.58z"/>
<path style="fill:#FBFCFC;" d="M654.224,489.537c0.897-1.808,1.998-0.561,2.945-0.131c19.473,8.83,39.742,15.46,60.105,21.84
	c1.06,0.332,2.552,0.113,2.924,1.701c-8.258,3.489-16.354,1.699-24.411-0.789C680.416,507.408,667.508,498.124,654.224,489.537z"/>
<path style="fill:#FAFBFB;" d="M681.254,540.777c-1.152-1.537-1.591-2.423,1.082-1.662c11.705,3.334,23.435,6.577,35.162,9.835
	c1.563,0.434,3.155,0.763,4.734,1.141c0.648,1.368,3.324-0.095,3.105,1.963c-0.09,0.845-1.58,1.905-2.627,2.22
	c-4.231,1.273-8.437,0.584-12.635-0.513C699.727,551.056,690.698,545.463,681.254,540.777z"/>
<path style="fill:#7A8A99;" d="M663.776,396.725c-14.379,1.76-28.75,2.02-43.261-0.26c0.809-1.954,3.178-0.646,4.164-2.017
	c10.316-0.506,20.638-0.94,30.948-1.56C659.165,392.675,662.066,393.302,663.776,396.725z"/>
<path style="fill:#788898;" d="M473.086,404.227c2.438,2.951,0.414,6.049-0.347,8.64c-3.599,12.258-8.466,23.768-22.341,27.914
	C460.779,430.347,469.418,418.83,473.086,404.227z"/>
<path style="fill:#778797;" d="M632.028,383.409c-8.524,3.12-17.048,6.241-25.573,9.361c-2.135,0.013-3.749-3.022-6.216-1.06
	c-2.395,1.974-4.837,2.173-7.338,0.197c14.263-3.998,28.775-7.101,42.994-12.687C635.538,382.299,633.212,382.23,632.028,383.409z"
	/>
<path style="fill:#788898;" d="M531.688,388.164c-6.15,7.264-11.845,14.988-20.395,19.793c-2.654,1.492-5.129,3.359-8.35,3.469
	c9.005-8.225,18.005-16.458,27.038-24.655c0.614-0.558,1.202-1.963,2.276-0.847C532.539,386.217,531.903,387.394,531.688,388.164z"
	/>
<path style="fill:#768696;" d="M592.83,384.498c-6.691,6.291-13.52,12.434-22.477,15.334c-2.516,0.815-5.119,3.046-7.979,0.662
	c6.638-2.03,12.4-5.662,18.02-9.63c5.409-3.819,10.128-8.443,15.96-12.23C595.181,380.589,594.005,382.544,592.83,384.498z"/>
<path style="fill:#818F9E;" d="M433.696,518.885c5.412-6.005,12.281-10.002,19.86-13.558c-3.651,5.848-7.302,11.697-10.953,17.545
	c-0.662-2.613,0.631-5.061,1.107-7.942C439.55,515.116,437.422,519.102,433.696,518.885z"/>
<path style="fill:#768696;" d="M496.37,390.858c2.234,8.601-5.762,26.153-13.468,29.629c-1.06,0.478-1.911,0.437-2.651-0.498
	C488.665,411.961,494.134,402.304,496.37,390.858z"/>
<path style="fill:#778797;" d="M557.401,384.503c0.228,0.708,0.86,1.613,0.625,2.095c-5.109,10.456-13.928,16.322-24.722,19.639
	c-0.378,0.116-0.99-0.531-1.493-0.823C542.125,400.627,550.812,393.848,557.401,384.503z"/>
<path style="fill:#1F3244;" d="M454.876,486.998c-1.461,3.973-6.18,0.621-8.432,4.5c-1.581-15.726,13.975-15.423,20.316-24.853
	c-1.136,8.467-7.057,10.196-12.135,12.79C454.036,481.978,455.868,484.441,454.876,486.998z"/>
<path style="fill:#F2F4F6;" d="M454.876,486.998c0.077-2.526-6.743-4.821-0.253-7.563
	C460.552,481.854,460.565,482.262,454.876,486.998z"/>
</svg>
