<?xml version="1.0" encoding="utf-8"?>
<!-- Generator: Adobe Illustrator 28.3.0, SVG Export Plug-In . SVG Version: 6.00 Build 0)  -->
<svg version="1.1" id="Layer_1" xmlns="http://www.w3.org/2000/svg" xmlns:xlink="http://www.w3.org/1999/xlink" x="0px" y="0px"
	 viewBox="0 0 1000 1000" style="enable-background:new 0 0 1000 1000;" xml:space="preserve">
<path style="fill:#ACFD18;" d="M507.842,880.892c-9.595-19.723-18.309-37.631-27.021-55.541
	c-12.318-25.323-24.707-50.612-36.872-76.009c-1.788-3.733-4.188-4.7-7.987-4.433c-43.471,3.056-86.684,7.999-129.211,17.815
	c-5.884,1.358-6.073-1.213-5.352-5.7c1.959-12.201,3.299-24.519,5.752-36.615c1.221-6.021-0.984-6.965-5.878-6.562
	c-1.4,0.115-2.818,0.035-4.227,0.011c-17.183-0.294-18.389-1.078-17.844-17.764c0.234-7.174-2.479-8.824-8.868-9.401
	c-11.166-1.007-21.255-5.469-29.839-12.697c-11.182-9.415-13.472-23.269-5.634-35.64c2.723-4.299,3.293-7.454,0.851-12.129
	c-4.095-7.84-2.964-15.869,1.789-23.281c2.185-3.407,3.396-6.681,2.598-11.012c-4.153-22.563,5.733-36.168,28.69-37.919
	c9.159-0.699,11.374-3.59,11.034-12.49c-0.773-20.264,0.257-40.596-0.477-60.864c-0.318-8.767,2.312-11.81,10.718-10.393
	c1.531,0.258,3.168-0.109,5.804-0.24c-14.035-22.401-17.314-47.513-24.373-71.37c-7.083-23.937-19.466-45.51-29.949-67.918
	c-9.307-19.893-19.27-39.479-29.019-59.164c-0.804-1.624-0.943-3.981-4.163-4.461c-3.298,21.42-1.633,42.431,3.803,63.193
	c1.036,3.957,3.955,7.137,8.585,6.808c4.741-0.337,5.355-4.525,5.883-8.073c0.606-4.077,0.573-8.249,0.881-13.451
	c11.108,9.37,13.414,21.123,13.048,33.724c-0.154,5.305-0.973,10.664-2.142,15.851c-4.234,18.78,2.825,34.789,15.659,46.639
	c9.074,8.378,12.027,16.868,11.835,27.895c-0.376,21.665-9.413,40.254-31.426,45.105c-21.491,4.737-36.648-3.808-42.807-24.79
	c-2.918-9.942-8.82-18.172-13.967-26.872c-2.662-4.5-7.033-2.623-10.717-2.766c-12.101-0.47-12.205-0.355-12.564-11.709
	c-0.252-7.979-4.12-14.056-10.074-18.69c-13.083-10.182-20.855-23.436-23.662-39.6c-0.669-3.851-2.19-6.624-5.129-9.124
	c-14.788-12.574-26.273-28.625-42.389-39.856c-19.174-13.362-40.035-22.808-62.64-28.608c-2.848-0.731-7.824-0.089-6.86-5.299
	c0.817-4.416,5.002-2.636,7.78-2.717c18.841-0.55,37.617,0.481,58.622,3.623c-16.583-14.386-32.688-25.387-49.968-34.695
	c-5.449-2.935-11.091-5.537-16.765-8.015c-2.398-1.048-3.882-2.208-3.172-4.976c0.686-2.677,2.982-2.278,4.817-2.183
	c41.609,2.157,80.674,11.689,113.399,39.407c2.315,1.961,4.295,4.361,7.794,5.373c3.534-20.837,6.351-41.685,14.694-61.169
	c4.119-9.618,8.622-19.164,15.607-26.944c6.348-7.071,11.916-13.513,4.21-22.285c0.972-1.058,1.331-1.768,1.65-1.75
	c12.221,0.683,22.324-3.809,33.552-8.98c33.658-15.5,68.079-15.404,100.713,4.716c4.255,2.623,8.289,4.141,13.335,4.015
	c11.55-0.288,23.118-0.315,34.667,0.008c5.389,0.151,9.716-0.911,13.502-5.051c22.008-24.065,50.197-33.265,82.004-36.038
	c34.722-3.027,66.574,3.273,95.726,22.463c3.518,2.316,7.344,4.526,10.059,7.632c8.348,9.547,18.589,11.67,30.874,11.15
	c18.55-0.785,37.174,0.022,55.761,0.39c5.258,0.104,9.533-0.973,13.934-4.324c18.568-14.141,39.297-21.144,63.005-18.02
	c10.058,1.325,19.053-4.222,28.744-5.861c33.977-5.746,64.221,1.35,90.139,24.474c3.162,2.822,6.223,3.391,9.972,2.876
	c2.218-0.305,4.431-0.796,6.657-0.869c10.869-0.359,10.941-0.29,6.881,9.467c-3.359,8.072-4.054,14.691,1.955,23.074
	c9.546,13.317,12.67,29.901,17.143,45.598c0.924,3.242,1.664,6.537,2.68,10.561c10.445-8.57,20.244-17.256,30.701-25.06
	c23.273-17.369,48.469-30.704,77.799-34.566c2.392-0.315,4.957-1.32,6.346,2.148c1.206,3.012-0.571,4.065-2.577,5.262
	c-21.187,12.652-38.584,29.816-56.192,47.125c4.178,1.684,7.7-0.386,11.182-1.573c17.412-5.935,35.494-8.487,53.611-10.865
	c2.06-0.27,4.838-1.005,5.401,2.302c0.487,2.86-1.401,3.685-3.877,4.402c-47.626,13.782-77.622,48.899-105.074,87.05
	c-2.365,3.286-3.364,7.066-3.072,11.184c1.115,15.75-6.193,28.047-17.619,37.457c-7.128,5.869-9.977,11.989-9.564,20.917
	c0.584,12.643-0.178,14.335-12.166,14.57c-9.522,0.186-12.524,4.713-14.527,12.381c-2.061,7.889-4.62,15.648-6.942,23.469
	c-8.025,27.023-39.094,35.337-59.988,15.96c-7.636-7.082-14.239-16.064-14.519-25.989c-0.284-10.066-2.721-20.618,5.973-30.833
	c14.258-16.751,22.698-36.447,9.591-59.664c-5.205,10.378-10.275,20.262-15.141,30.244c-6.662,13.667-12.461,27.809-19.929,41.013
	c-8.599,15.205-9.297,32.252-13.507,48.475c-0.755,2.91-0.116,5.073,3.602,4.767c0.56-0.046,1.13-0.032,1.69,0.011
	c6.109,0.471,14.066-2.66,17.876,1.382c4.089,4.338,1.255,12.36,1.347,18.76c0.208,14.372,0.358,28.757-0.078,43.119
	c-0.175,5.776,1.298,8.057,7.297,9.228c24.069,4.7,32.23,13.639,36.211,37.861c1.189,7.235-0.641,13.933-3.317,20.472
	c-1.352,3.304-1.729,5.958,0.691,9.248c5.867,7.974,5.221,16.453-0.147,24.39c-2.55,3.771-3.226,6.906-2.106,11.592
	c5.396,22.584-6.456,37.698-30.054,38.612c-4.722,0.183-6.867,1.386-6.178,6.232c0.118,0.829,0.017,1.689,0.013,2.534
	c-0.096,20.688-0.096,20.688-20.384,20.689c-11.358,0.001-11.473,0.015-10.026,11.604c1.515,12.138,3.282,24.246,5.025,36.995
	c-47.443-12.106-94.896-14.676-142.025-19.691c-4.655-0.495-5.81,2.257-7.275,5.339c-13.049,27.46-26.08,54.929-39.162,82.373
	C524.696,845.874,516.747,862.341,507.842,880.892z"/>
<path style="fill:#0D2642;" d="M961.089,245.824c-31.114,19.496-55.041,46.107-75.458,76.195c-2.951,4.349-4.288,9.186-3.881,14.397
	c1.07,13.696-5.35,24.327-15.284,32.261c-8.568,6.843-13.121,14.533-11.72,25.267c0.949,7.27-2.658,10.167-8.884,9.115
	c-10.55-1.783-13.866,4.459-16.281,12.668c-2.7,9.178-5.752,18.253-8.492,27.42c-6.493,21.727-31.996,28.92-49.214,13.762
	c-3.826-3.369-6.886-7.43-9.16-12.028c-0.622-1.258-1.911-3.442-1.589-3.726c6.839-6.046-0.62-10.052-1.893-14.941
	c-1.502-5.771-1.477-10.772,2.804-16.36c15.336-20.021,25.051-41.507,12.811-67.119c-2.732-5.716-0.681-11.496,2.284-16.838
	c13.061,7.118,22.395,1.404,22.872-13.495c0.341-10.66-0.103-21.362,1.488-31.981c0.345-2.304,1.016-5.144-2.481-6.304
	c-3.654-1.212-4.32,1.583-5.384,3.761c-23.857,48.821-48.395,97.33-71.066,146.697c-6.297,13.711-7.048,29.971-10.328,45.064
	c-0.679,3.126,0.334,4.918,3.831,4.645c0.56-0.044,1.129-0.022,1.69,0.017c6.402,0.441,14.719-2.751,18.731,1.35
	c4.347,4.443,1.284,12.863,1.397,19.53c0.248,14.653,0.269,29.316-0.025,43.967c-0.105,5.229,1.003,7.202,6.863,7.449
	c31.46,1.33,45.983,26.879,31.508,55.135c-1.658,3.237-0.898,4.84,1.152,7.271c7.667,9.094,7.717,15.301-0.411,24.518
	c-2.917,3.308-2.944,5.482-1.351,9.426c9.28,22.968-6.653,36.317-26.131,33.672c-8.528-1.158-9.031,1.516-8.928,8.351
	c0.109,7.161,3.45,16.742-1.706,20.876c-4.359,3.494-13.482,1.141-20.498,1.203c-10.503,0.093-10.547,0.034-9.199,10.822
	c1.218,9.75,2.309,19.527,3.931,29.213c0.738,4.406,0.802,6.323-4.7,5.154c-41.855-8.895-84.416-12.227-126.916-16.208
	c-8.683-0.813-12.443,1.994-15.876,9.354c-18.676,40.043-37.797,79.878-56.752,119.76c-3.297-0.02-3.381-2.851-4.236-4.605
	c-17.888-36.703-35.738-73.425-53.44-110.219c-5.645-11.735-5.7-11.67-19.059-10.953c-41.543,2.227-82.555,8.412-124.383,16.596
	c2.15-14.27,3.945-27.827,6.336-41.277c0.998-5.614,0.807-8.88-6.119-7.074c-0.795,0.207-1.684,0.046-2.53,0.065
	c-20.432,0.455-20.5,0.456-20.68-19.678c-0.041-4.667,0.257-7.21-6.609-6.703c-11.4,0.842-22.199-3.397-31.606-10.023
	c-11.717-8.254-13.504-21.129-4.339-33.169c3.28-4.308,3.676-7.062,0.421-11.575c-5.448-7.555-4.002-15.458,1.372-22.629
	c2.277-3.038,3.702-5.576,2.643-9.872c-7.124-28.91,10.942-35.04,31.967-34.522c7.043,0.173,7.278-1.833,7.245-7.11
	c-0.143-23.112,0.106-46.227-0.182-69.337c-0.069-5.523,1.457-7.567,7.086-7.164c6.14,0.439,12.335,0.1,21.212,0.1
	c-22.659-14.015-25.581-36.319-30.575-56.965c-6.281-25.967-16.466-50.196-28.104-74.002c-15.46-31.625-30.87-63.275-46.332-94.899
	c-0.341-0.697-1.041-1.219-2.007-2.313c-8.499,27.897-7.529,55.348-0.832,82.824c1.554,6.376,5.406,11.225,12.189,12.71
	c7.08,1.55,10.798-3.05,13.993-9.732c3.913,10.261,2.415,19.33,0.671,28.18c-4.725,23.976,3.435,42.99,21.498,58.484
	c6.424,5.511,6.132,12.429,3.145,19.238c-1.874,4.272-5.109,7.946-7.747,11.909c2.774,1.782,5.259-1.958,8.007-0.422
	c-0.982,14.534-12.331,26.793-26.175,28.275c-19.848,2.126-28.86-3.331-34.037-20.724c-3.514-11.806-10.79-21.595-16.897-32.023
	c-2.695-4.603-6.629-1.696-9.862-1.745c-6.125-0.094-10.604,0.01-10.705-8.639c-0.098-8.366-5.124-15.319-11.894-20.538
	c-13.756-10.605-20.751-24.892-22.461-41.871c-0.327-3.25-1.525-4.161-4.252-5.78c-4.739-2.813-9.021-6.827-12.599-11.089
	c-20.771-24.739-46.381-42.435-76.577-53.662c-0.688-0.256-1.291-0.738-3.701-2.148c17.817,0.096,33.526,1.205,48.865,5.75
	c2.634,0.78,5.533,2.736,7.497-0.67c2.233-3.871-2.005-4.615-3.768-6.244c-18.037-16.661-38.286-30.297-59.989-42.76
	c3.478-2.561,6.253-0.221,8.985-0.111c3.06,0.124,6.106,0.878,9.133,1.484c32.092,6.431,61.468,18.177,84.191,42.984
	c1.251,1.366,2.449,3.484,4.812,2.649c2.743-0.97,3.217-3.273,3.542-6.039c2.33-19.848,5.446-39.574,12.398-58.424
	c5.604-15.194,13.374-29.128,25.532-40.201c1.999-1.82,3.675-3.457,1.89-6.42c-3.548-5.893-0.607-7.195,4.827-6.559
	c6.689,0.784,11.273-1.733,16.821-6.17c12.465-9.967,28.45-11.439,43.943-12.342c22.615-1.318,43.662,3.518,61.684,18.11
	c2.295,1.859,4.753,1.446,7.212,1.455c14.376,0.054,28.753-0.035,43.129,0.073c3.273,0.025,5.954-0.538,8.249-3.163
	c25.651-29.339,59.08-38.724,96.776-39.402c37.926-0.682,69.824,12.372,97.335,37.6c2.615,2.398,5.005,3.901,8.779,3.928
	c25.052,0.178,50.105,0.526,75.152,1.08c4.829,0.107,8.532-1.328,12.279-4.252c18.497-14.434,38.958-22.362,62.851-17.72
	c3.329,0.647,6.078-0.683,8.984-1.618c25.627-8.24,51.216-9.928,76.734,0.405c9.739,3.944,19.217,8.774,26.327,16.444
	c5.253,5.666,11.042,6.081,17.509,5.414c4.394-0.454,6.838-0.02,4.487,5.057c-3.931,8.493-1.815,15.025,3.426,23.086
	c10.661,16.4,14.627,35.801,19.398,54.652c0.859,3.394,0.277,8.667,3.726,9.509c3.372,0.824,5.528-4.05,8.104-6.5
	c25.793-24.518,54.056-44.988,88.911-54.777c0.786-0.221,1.646-0.175,4.066-0.404c-5.304,4.445-9.604,7.998-13.847,11.617
	c-4.277,3.649-8.485,7.379-12.746,11.048c-11.764,10.13-22.196,21.588-32.84,32.837c-1.95,2.061-4.513,4.044-1.721,7.074
	c2.598,2.82,4.691-0.081,6.587-1.2c12.262-7.237,25.48-11.84,39.333-14.803C959.163,243.238,961.296,242.563,961.089,245.824z"/>
<path style="fill:#FAFEF3;" d="M794.803,292.889c-0.368,7.519-0.572,15.05-1.177,22.55c-0.282,3.493-2.091,6.498-5.511,7.933
	c-2.478,1.04-4.276-0.578-5.892-2.245c-2.981-3.075-0.491-5.793,0.751-8.409c3.232-6.807,6.691-13.507,10.059-20.25
	C793.623,292.608,794.213,292.748,794.803,292.889z"/>
<path style="fill:#52842F;" d="M961.089,245.824c-0.593-1.915-2.385-1.813-3.838-2.281c3.079-2.177,6.793-1.832,11.957-3.588
	C966.178,243.673,964.136,245.411,961.089,245.824z"/>
<path style="fill:#2C587D;" d="M636.772,409.102c5.956-3.882,6.604-9.647,8.487-14.423c7.987-20.253,12.376-41.395,12.791-63.157
	c0.447-23.383-0.043-46.783,0.231-70.171c0.304-26.004,6.966-50.115,19.783-73.051c16.23-29.043,56.143-49.458,94.83-40.307
	c48.448,11.461,73.125,43.9,84.538,89.482c2.312,9.235,3.774,18.672,3.664,28.283c-0.045,3.937-0.954,5.45-5.527,4.497
	c-4.875-1.016-10.231-1.471-15.057-0.529c-5.79,1.131-6.761-0.811-6.419-5.799c2.157-31.464-11.576-56.164-33.953-76.562
	c-15.839-14.438-34.836-21.117-56.483-17.971c-39.998,5.812-62.835,32.814-63.703,73.312c-0.706,32.956,1.61,65.772,4.125,98.509
	c2.464,32.08,1.221,63.744-3.963,95.334c-1.938,11.808-8.187,22.083-13.644,32.56c-1.709,3.282-4.283,4.883-8.158,4.86
	c-18.038-0.109-36.078-0.187-54.115,0.014c-8.097,0.09-9.605-4.604-8.461-10.97c2.765-15.388,1.321-30.88,1.485-46.321
	c0.237-22.232-4.358-44.021-6.953-65.98c-3.196-27.046-9.289-53.533-18.088-79.363c-8.593-25.225-20.274-48.555-38.535-68.464
	c-16.805-18.321-38.733-25.232-61.858-29.821c-26.491-5.257-49.844,1.937-70.851,18.439c-5.826,4.577-9.789,9.911-11.497,17.053
	c-3.516,14.704-2.76,28.927,4.253,42.608c1.917,3.739,3.345,7.742,4.831,11.686c1.525,4.048-0.032,5.546-3.968,3.938
	c-15.092-6.169-30.53-11.583-44.731-19.742c-3.768-2.165-6.546-5.137-6.234-10.162c1.33-21.43,4.441-42.081,16.284-60.986
	c14.849-23.702,37.035-35.316,62.937-41.483c34.519-8.219,68.085-4.586,98.512,13.58c25.582,15.273,46.471,36.463,61.643,62.405
	c24.984,42.72,38.655,89.361,46.569,137.941C632.772,368.21,634.674,388.211,636.772,409.102z"/>
<path style="fill:#2C587C;" d="M319.428,248.807c7.557,5.711,13.144,10.364,19.174,14.348c4.349,2.873,3.106,6.854,3.174,10.589
	c0.707,38.303,6.7,75.599,24.455,109.902c10.581,20.441,23.764,39.353,41.795,54.424c10.8,9.027,23.748,12.298,36.825,15.513
	c5.703,1.402,11.482,2.537,17.275,3.508c3.839,0.643,4.517,2.096,3.007,5.719c-2.622,6.292-5.479,9.643-13.769,9.956
	c-26.149,0.988-52.285,0.954-78.43,1.275c-5.043,0.062-8.55-1.645-11.679-5.292c-20.785-24.227-32.091-52.2-34.807-84.048
	c-1.91-22.396-2.828-44.78-3.54-67.231c-0.471-14.849-1.657-29.536-0.145-44.456C323.499,265.777,320.845,258.196,319.428,248.807z"
	/>
<path style="fill:#2C587C;" d="M335.842,236.091c-18.048-4.84-27.305-19.137-37.854-32.286
	c-24.132-30.079-70.089-35.905-98.343-8.269c-23.905,23.382-34.709,51.236-33.572,84.046c0.298,8.606-1.076,13.763-11.08,11.849
	c-0.27-0.052-0.562,0.002-0.843,0.017c-4.353,0.23-9.523,4.614-12.529,1.576c-3.096-3.13-0.945-9.142-1.044-13.883
	c-0.822-39.401,11.837-73.599,40.989-100.537c31.883-29.461,84.475-34.103,120.213-0.767
	C314.238,189.459,331.624,219.461,335.842,236.091z"/>
<path style="fill:#ACFE17;" d="M607.548,483.383c15.022-5.1,29.207-1.495,43.196,4.153c2.565,1.544,1.415,4.071,1.421,6.13
	c0.082,29.586-0.137,59.175,0.201,88.757c0.078,6.8-2.677,9.187-8.81,9.202c-13.803,0.033-27.606-0.023-41.409,0.018
	c-6.465,0.019-9.357-2.4-9.245-9.654c0.426-27.607,0.658-55.239-0.114-82.831c-0.243-8.677,3.238-12.091,10.447-13.957
	C604.762,484.807,606.75,485.507,607.548,483.383z"/>
<path style="fill:#CACACA;" d="M607.548,483.383c-0.132,0.249-0.221,0.679-0.401,0.721c-13.438,3.132-13.67,12.901-13.366,24.167
	c0.645,23.933,0.479,47.901,0.026,71.843c-0.138,7.266,2.272,9.026,9.116,8.788c14.073-0.49,28.175-0.173,42.264-0.134
	c3.566,0.01,6.718,0.125,6.687-5.03c-0.188-31.27-0.204-62.54-0.323-93.81c-0.003-0.797-0.518-1.591-0.801-2.389
	c3.484,1.751,1.831,4.965,1.837,7.459c0.141,59.422,0.016,118.844,0.378,178.264c0.045,7.427-2.449,8.806-9.135,8.595
	c-14.102-0.445-14.113-0.104-14.113-14.411c0-21.967-0.15-43.935,0.107-65.898c0.062-5.306-1.122-7.342-6.918-7.377
	c-5.998-0.037-6.848,2.377-6.802,7.516c0.215,24.218-0.093,48.441,0.229,72.656c0.08,5.984-1.765,7.567-7.607,7.505
	c-16.217-0.173-16.221,0.091-16.22-16.522c0.003-54.353,0.007-108.706,0.01-163.059
	C592.518,487.045,592.517,487.045,607.548,483.383z"/>
<path style="fill:#CBCBCB;" d="M497.769,505.742c4.175,2.141,4.531,5.827,4.524,10.018c-0.08,50.44-0.133,100.88,0.084,151.319
	c0.023,5.323-1.143,8.424-6.628,9.574c-4.935,1.034-9.751,2.639-14.62,3.992c-11.236,1.091-22.502,0.152-33.747,0.53
	c-3.702,0.124-4.881-1.491-4.873-5.014c0.056-27.604,0.081-55.209-0.017-82.813c-0.016-4.377,2.125-6.043,6.013-6.5
	c3.276-0.385,6.898,0.337,9.327-2.814c1.891-3.387,1.405-7.09,1.418-10.688c0.07-19.001-0.123-38.004,0.139-57.003
	c0.053-3.845-1.032-8.622,4.411-10.37c3.451,4.109,2.498,9.091,2.509,13.778c0.088,39.445,0.043,78.89,0.056,118.335
	c0.001,3.095-0.109,6.197,0.428,9.274c0.44,2.516,1.662,4.12,4.412,4.185c2.761,0.065,4.07-1.456,4.533-3.998
	c0.56-3.074,0.43-6.177,0.431-9.272c0.013-39.445-0.019-78.89,0.04-118.335c0.007-4.454-0.658-9.067,1.893-13.181
	c4.402,1.443,4.651,1.536,4.901,7.055c0.394,8.709,0.123,17.431,0.151,26.147c0.038,11.81,0.033,23.62,0.005,35.43
	c-0.013,5.432,1.17,9.311,7.857,9.276c6.404-0.034,7.389-3.9,7.219-8.883c-0.767-22.437,1.944-44.966-1.773-67.329
	C496.541,507.378,496.98,506.475,497.769,505.742z"/>
<path style="fill:#ACFD18;" d="M385.673,587.175c-16.918-6.185-16.918-6.185-16.918-24.176c0-24.794,0.235-49.591-0.138-74.379
	c-0.119-7.873,2.919-8.379,9.116-6.195c12.727,4.485,12.769,4.365,12.769,17.486c0.001,20.004,0.205,40.011-0.126,60.01
	c-0.096,5.807,1.42,7.682,7.459,7.741c6.438,0.063,7.21-2.632,7.15-8.028c-0.244-21.692-0.014-43.388-0.17-65.082
	c-0.032-4.368,0.363-7.887,5.51-8.706c16.941-5.542,16.941-5.542,16.941,12.095c0,25.204-0.035,50.409,0.035,75.613
	c0.011,4.046,0.299,7.981-5.045,8.854c-3.972,1.581-7.944,3.161-11.916,4.742C402.123,591.431,393.9,591.472,385.673,587.175z"/>
<path style="fill:#CBCBCB;" d="M569.813,585.453c5.823,4.162,7.115,9.827,7.003,16.815c-0.384,23.916-0.296,47.844-0.037,71.764
	c0.06,5.559-1.003,7.935-7.292,7.833c-14.804-0.238-14.809,0.107-14.809-14.528c0-21.108,0.062-42.216-0.047-63.324
	c-0.025-4.817,2.295-10.48-7.043-10.594c-9.041-0.11-7.496,5.031-7.499,10.189c-0.011,23.078-0.254,46.16,0.149,69.232
	c0.118,6.761-1.343,9.325-8.658,9.043c-14.095-0.544-14.157-0.107-14.103-14.394c0.1-26.445,0.258-52.889,0.391-79.334
	c4.438-2.533,9.32-1.59,14.044-1.725C544.544,586.068,557.215,587.174,569.813,585.453z"/>
<path style="fill:#ACFD18;" d="M680.996,590.613c-14.583-4.208-12.135-1.293-12.213-15.987c-0.142-26.701,0.079-53.404-0.146-80.104
	c-0.042-5.035,1.554-7.009,6.42-8.801c15.73-5.792,31.072-6.171,46.814-0.195c4.427,1.68,6.252,3.553,6.04,8.362
	c-0.42,9.54-0.243,19.105-0.313,28.66c-5.29,7.291-9.944-0.284-14.799-0.9c-3.491-0.443-6.698-2.721-6.482-7.477
	c0.105-2.312,1.349-5.724-1.644-6.738c-3.685-1.248-7.823-0.863-11.655-0.176c-2.441,0.437-1.878,3.093-1.881,4.985
	c-0.026,16.818,0.084,33.636-0.085,50.452c-0.041,4.1,1.487,5.278,5.411,5.281c4.99,0.005,10.08-1.007,14.989,0.782
	c3.451,1.078,6.886,2.21,10.358,3.216c2.926,0.848,6.456,1.101,5.878,5.481c-0.586,4.445-4.353,2.107-6.669,2.875
	c-2.714-1.194-5.221-0.091-7.524,0.331c-1.609,4.166,7.202,8.443-0.794,11.956C702.087,592.47,691.451,592.965,680.996,590.613z"/>
<path style="fill:#ACFD18;" d="M569.813,585.453c0.539,2.82-1.184,3.308-3.393,3.282c-16.184-0.19-32.369-0.381-48.553-0.577
	c-0.09-19.594,0.188-39.196-0.442-58.768c-0.272-8.446,2.586-8.848,8.742-5.379c12.92,1.393,14.046,9.953,12.837,20.423
	c-0.61,5.282-0.201,10.694-0.071,16.043c0.078,3.204-1.279,7.745,3.168,8.532c4.282,0.757,9.532,2.907,12.922-2.473
	c-0.071-11.773-0.019-23.55-0.284-35.319c-0.087-3.851,0.949-6.062,4.791-7.572c6.002-2.359,11.35-5.996,16.943-12.332
	c0,19.847,0.143,38.14-0.117,56.428c-0.054,3.804-3.499,6.334-6.216,8.65C566.476,579.513,566.667,582.314,569.813,585.453z"/>
<path style="fill:#C9C9C9;" d="M385.673,587.175c8.222-0.008,16.443-0.016,24.666-0.024c-1.726,2.854-1.071,6.02-1.076,9.06
	c-0.049,25.831-0.21,51.665,0.106,77.492c0.074,6.059-1.187,8.334-7.793,8.185c-15.416-0.348-15.37,0.02-15.437-15.572
	C386.025,639.935,385.833,613.555,385.673,587.175z"/>
<path style="fill:#CBCBCB;" d="M351.978,585.586c0.118,30.346,0.18,60.693,0.42,91.038c0.034,4.231-1.814,4.975-5.563,5.162
	c-17.119,0.855-17.113,0.969-17.113-16.332c0-20.799,0.042-41.599-0.047-62.398c-0.013-2.988,0.992-6.224-1.313-8.912
	c-2.548-2.165-5.66-1.621-8.627-1.822c-2.745-0.186-5.773-0.084-5.458-4.246c2.136-3.501,5.702-2.993,8.958-3.057
	c8.619-0.169,17.242,0.045,25.863-0.172C350.115,584.871,351.075,585.119,351.978,585.586z"/>
<path style="fill:#C9CACA;" d="M462.283,382.508c-0.83-1.45-1.758-2.853-2.469-4.359c-1.593-3.379,1.177-4.52,3.28-5.706
	c2.722-1.535,4.044,0.236,4.985,2.574c3.649,9.06,4.344,18.687,4.188,28.184c-0.451,27.357,7.903,51.884,21.968,74.966
	c10.364,17.008,25.42,27.514,44.042,33.242c10.422,3.206,19.078-2.398,27.76-6.945c2.848-1.492,5.473-3.41,9.338-5.853
	c-8.197,15.696-24.652,22.715-41.312,18.333c-24.173-6.358-39.69-23.557-52.966-43.274c-9.411-13.976-15.015-29.398-17.477-46.154
	c-1.563-10.635-2.178-21.539-10.906-30.224c-3.615-3.598-0.764-10.614,2.329-14.752c1.75-2.341,3.968,1.366,5.425,3.255
	c2.631,1.525,3.1,4.458,4.81,7.723c0.058,0.142,0.732-1.508-0.132-0.784c-0.199,0.167-0.374-0.037-0.599-0.58
	C463.267,389.061,462.691,385.805,462.283,382.508z"/>
<path style="fill:#CACACA;" d="M710.751,654.899c2.196,6.611,7.707,9.992,13.096,13.522c1.806,1.183,4.296,2.086,3.619,4.989
	c-0.55,2.363-2.98,2.284-4.685,3.03c-16.651,7.285-33.171,6.383-49.781-0.446c-3.124-1.284-4.476-2.564-4.427-5.908
	c0.145-9.828,0.021-19.661,0.107-29.49c0.011-1.311,0.212-3.051,1.04-3.849c3.066-2.948,22.296,4.024,21.687,8.135
	c-1.937,13.086,7.435,9.093,13.734,9.931C707.031,653.583,708.902,653.509,710.751,654.899z"/>
<path style="fill:#2B577C;" d="M809.529,314.887c3.579,7.871,3.914,13.584-1.866,18.954c-6.684,6.21-9.71,13.794-9.198,23.35
	c1.379,25.72-5.729,49.262-19.223,71.181c-3.85,6.254-6.333,4.926-9.69,0.431c-5.136-6.876-4.192-13.592,0.853-20.057
	c14.726-18.872,19.76-39.789,13.237-63.09c-1.555-5.554-2.04-9.316,6.076-8.938c6.933,0.323,12.172-3.791,15.053-10.323
	C806.224,323.098,807.53,319.737,809.529,314.887z"/>
<path style="fill:#2B577C;" d="M197.316,336.274c7.939,9.209,14.231,17.621,26.67,16.304c4.038-0.427,3.158,4.229,2.65,6.63
	c-5.478,25.898,3.264,46.781,21.864,64.565c6.901,6.598,5.833,14.714-1.681,20.877c-3.855,3.162-5.113-0.731-6.599-2.388
	c-13.469-15.025-21.3-32.856-25.131-52.497c-1.069-5.478-1.73-11.033-2.002-16.681c-0.373-7.73-2.998-14.747-9.562-19.828
	C198.649,349.483,195.99,344.512,197.316,336.274z"/>
<path style="fill:#2B577C;" d="M550.792,357.805c-4.761-15.4-14.375-21.402-26.734-16.827c-1.418-9.201,4.591-14.257,13.057-11.181
	c11.116,4.04,16.484,13.463,22.041,24.406c0.327-5.192-2.225-8.939,0.09-12.64c10.709,9.693,9.845,38.729-1.224,47.484
	c-2.145,1.697-3.66,2.475-5.158-0.633c-5.065-10.51-14.756-13.122-25.105-14.066c-5.561-0.507-9.294-3.131-13.24-8.606
	c6.082,1.285,10.816,2.544,15.632,3.232c5.336,0.762,7.269-1.344,5.28-6.836c-1.776-4.902-6.119-9.619-1.917-16.547
	C536.782,354.164,543.698,355.998,550.792,357.805z"/>
<path style="fill:#ACFC18;" d="M540.755,481.049c9.31-1.295,20.186,0.989,30.87,4.887c4.732,1.727,7.284,4.596,2.792,8.336
	c-15.117,12.59-34.373,17.844-52.53,5.59c-6.647-4.486-4.577-10.506-4.067-15.854c0.518-5.431,5.855-2.451,9.023-2.845
	C530.719,480.682,534.699,481.049,540.755,481.049z"/>
<path style="fill:#2C577C;" d="M413.854,387.018c-1.166,1.332-2.292,2.89-3.682,4.158c-5.166,4.713-10.643,9.107-15.562,14.059
	c-3.485,3.508-5.832,2.26-8.157-0.854c-5.541-7.421-10.578-15.156-14.261-23.706c-0.795-1.844-1.875-3.751,0.22-5.286
	c8.501-6.227,15.868-14.379,26.909-16.366c2.108-0.379,5.523-2.026,5.113,2.621c-0.808,9.157,1.139,17.264,8.318,23.579
	C413.148,385.573,413.338,386.159,413.854,387.018z"/>
<path style="fill:#2B577B;" d="M212.115,440.252c-3.417,18.165,0.888,23.978,16.709,23.241c-3.211-4.001-5.771-8.165-9.818-11.263
	c-4.315-3.304-4.089-7.135,0.339-10.232c3.302-2.31,6.414-4.531,6.038-9.982c4.821,3.537,7.184,7.498,8.641,12.094
	c2.078,6.556,6.435,10.646,13.324,11.075c5.263,0.327,3.938,2.711,2.088,5.229c-6.944,9.452-16.305,13.213-27.974,11.986
	c-9.766-1.027-14.167-7.248-17.835-15.546c-4.961-11.225-8.23-23.445-17.096-32.67c-0.932-0.97-2.155-2.183-0.751-3.577
	c1.24-1.23,2.685-0.561,3.783,0.348c5.035,4.169,9.268,9.071,12.23,14.898C203.992,440.178,206.135,443.979,212.115,440.252z"/>
<path style="fill:#2B577B;" d="M790.68,418.587c2.37,3.792,4.453,6.459,7.885,8.322c5.175,2.811,7.704,6.401,1.321,11.453
	c-3.314,2.623-5.346,6.866-8.274,10.803c14.495,0.203,18.248-6.03,14.933-24.119c6.166,2.1,7.93-1.319,9.757-6.414
	c2.414-6.73,5.441-13.596,12.869-17.023c2.134,3.008-0.394,4.914-1.392,6.837c-5.605,10.802-9.227,22.283-12.123,34.03
	c-2.425,9.835-7.666,14.574-17.997,16.129c-9.883,1.487-21.849-3.485-26.055-10.584c-1.143-1.93-1.055-3.679,0.933-3.86
	c9.513-0.866,10.753-8.48,13.228-15.304C786.907,425.711,788.646,422.781,790.68,418.587z"/>
<path style="fill:#2B577C;" d="M190.646,341.307c-14.989-3.264-26.279,1.555-28.517,24.553c-10.749-6.243-11.789-12.35-4.928-31.878
	c-5.331,2.529-9.924-0.345-14.735-0.336c-4.637,0.009-5.328-1.702-3.421-5.558c2.861-5.784,6.512-10.577,13.514-11.271
	c7.368-0.73,13.453,1.52,16.571,8.649c1.162,2.657,2.791,3.079,5.166,3.145C182.691,328.849,187.215,334.014,190.646,341.307z"/>
<path style="fill:#2B577C;" d="M815.564,324.189c2.635-7.844,6.232-13.118,13.831-14.629c3.684-0.733,4.929-3.99,6.717-6.917
	c6.515-10.669,22.35-12.135,29.087-2.705c2.384,3.336,5.352,7.237-2.449,8.831c-4.529,0.925-8.432,5.291-14.373,1.201
	c10.529,9.601,8.544,19.579,2.907,29.811c-0.808,1.466-1.603,3.355-3.497,3.129c-2.28-0.273-1.594-2.52-1.858-4.059
	C842.783,320.5,832.855,315.409,815.564,324.189z"/>
<path style="fill:#C7C8C8;" d="M313.877,232.751c2.936-1.33,4.737,0.752,6.768,2.184c25.567,18.036,51.247,35.915,81.604,45.25
	c4.678,1.438,3.139,6.177,5.889,8.745c3.551-4.932,3.397-14.307,15.239-11.188c-7.806,5.282-9.629,12.002-8.82,20.671
	C376.338,282.604,342.69,261.46,313.877,232.751z"/>
<path style="fill:#2B567B;" d="M420.125,376.131c10.382-1.673,13.687-8.445,13.46-18.014c4.894,3.036,4.402,7.335,4.802,11.474
	c1.585,16.419,2.875,32.915,7.081,48.928c2.54,9.67,7.041,18.381,15.487,24.447c1.371,0.984,3.007,1.897,2.231,3.979
	c-0.756,2.031-2.672,1.639-4.304,1.752c-3.582,0.248-6.628-1.12-9.326-3.286c-6.401-5.139-12.045-11.035-15.944-18.283
	c-1.884-3.503-6.977-8.399,2.253-9.832c1.684-0.262,2.449-2.325,2.032-4.153C434.842,399.754,432.458,386.04,420.125,376.131z"/>
<path style="fill:#2B577C;" d="M507.193,359.581c-2.98-3.731-5.171-6.985-7.865-9.749c-7.962-8.168-15.679-9.464-26.702-4.567
	c-7.946,3.53-15.834,5.752-24.144,1.13c-10.394-5.782-11.527-16.356-2.712-26.633c1.898,1.865,0.652,4.188,0.927,6.245
	c0.988,7.371,7.007,11.677,14.215,9.882c4.611-1.149,9.295-2.214,13.702-3.941C491.714,325.247,510.404,343.451,507.193,359.581z"/>
<path style="fill:#2B567B;" d="M214.298,423.503c-8.484,0.914-15.136-1.674-19.695-8.961c-6.617-10.577-8.56-21.827-4.994-33.85
	c3.96-13.351,0.317-18.757-14.404-21.046c3.794-5.506,8.617-8.972,14.972-6.813c7.268,2.47,12.259,7.608,13.021,15.958
	c0.685,7.502-1.93,14.518-3.706,21.426C195.553,405.545,200.413,415.965,214.298,423.503z"/>
<path style="fill:#2B567B;" d="M803.29,408.907c0.074-0.493-0.029-1.204,0.241-1.399c15.542-11.236,14.195-25.591,8.084-41.202
	c-3.027-7.731-6.108-15.76-2.109-24.26c3.992-8.487,14.694-12.431,20.827-7.521c1.239,0.992,2.776,2.571,2.801,3.905
	c0.042,2.29-2.356,1.87-3.914,1.868c-7.239-0.011-8.702,4.352-8.824,10.553c-0.144,7.266,3.116,13.615,4.591,20.429
	C828.879,389.25,821.282,402.6,803.29,408.907z"/>
<path style="fill:#2B567A;" d="M396.888,310.017c1.994-1.815-0.546-6.008,3.431-6.647c2.924-0.47,4.074,1.207,4.286,3.856
	c0.021,0.267,0.099,0.667,0.28,0.763c2.757,1.465,7.293-4.92,8.545,1.454c0.64,3.261-1.865,7.127,1.777,9.778
	c1.485,0.266,1.575-0.484,1.466-1.411c-0.288-2.439-1.351-5.041,1.023-6.999c0.336-0.277,1.673,0.186,2.188,0.68
	c2.088,2.008,1.75,4.734,1.419,7.167c-0.829,6.098-7.242,9.465-13.534,6.113c-13.652-7.272-26.829-15.504-36.688-27.762
	c-4.654-5.786-10.452-10.805-14.24-19.333c6.08,2.992,11.406,4.269,14.257,9.562c0.89,1.653,1.245,2.253,4.02,1.767
	c5.631-0.986,2.902,5.262,4.769,7.85C385.956,292.363,389.379,295.005,396.888,310.017z"/>
<path style="fill:#BFD1A3;" d="M350.522,585.942c-8.62,3.062-17.535,0.557-26.268,1.402c-3.187,0.308-6.714-1.213-9.468,1.632
	c-0.466,0.825-0.899,0.808-1.299-0.051c-4.804-2.454-6.462,2.872-9.792,4.143c-8.811,3.362-11.235,2.154-11.231-6.98
	c0.015-32.399,0.204-64.8-0.113-97.197c-0.062-6.378,1.698-8.118,8.025-7.99c15.892,0.32,15.898,0,15.898,16.003
	c0,19.44-0.001,38.879,0,58.319c0.001,13.192,0.002,13.192,13.63,11.296c0.724,4.724-3.473,4.283-5.932,5.679
	c-11.098,0.83-13.266-0.849-13.394-11.588c-0.26-21.95,0.014-43.903-0.149-65.854c-0.031-4.13,0.471-8.805-5.751-9.418
	c-5.696-0.56-7.474,2.39-7.496,7.488c-0.044,10.413-0.019,20.826-0.027,31.239c-0.013,16.042-0.076,32.084,0.025,48.125
	c0.062,9.86,0.845,10.47,10.507,10.8c13.474,0.461,26.999-1.141,40.44,0.975C349.134,584.373,349.93,585.036,350.522,585.942z"/>
<path style="fill:#2B567B;" d="M497.443,309.902c3.242,12.089-0.42,16.74-15.26,17.938c9.708-9.809,0.901-11.475-5.357-14.835
	c-8.563-4.598-15.435-11.499-20.984-19.249c-6.54-9.134-14.532-14.615-26.742-14.401c11.462-5.752,23.95-3.428,31.209,6.494
	c9.462,12.934,21.891,20.61,37.231,24.135L497.443,309.902z"/>
<path style="fill:#2B567B;" d="M138.576,346.448c0.006,13.331,6.817,22.159,17.268,28.325c9.095,5.366,13.782,13.559,17.009,23.121
	c0.835,2.474,1.559,5.874,5.046,6.032c3.249,0.147,2.668-3.898,5.282-5.634c2.543,6.094,1.808,11.393-2.581,15.982
	c-2.346,2.453-5.382,4.508-8.973,3.568c-3.301-0.865-3.175-4.46-3.669-6.969c-2.64-13.42-11.721-22.668-20.445-32.103
	c-7.277-7.87-12.847-16.316-11.967-27.631C135.673,349.514,135.496,347.687,138.576,346.448z"/>
<path style="fill:#2B567B;" d="M871.422,321.531c3.656,14.021,0.219,25.867-9.565,35.845c-7.959,8.115-11.665,18.311-14.037,29.145
	c-0.694,3.17,1.241,7.685-4.765,8.088c-5.437,0.364-9.337-1.564-11.837-6.215c-0.902-1.678-1.156-3.706-2.096-6.901
	c8.199,5.788,10.57,2.046,12.087-5.317c1.952-9.477,7.18-17.535,13.201-25.098C861.492,342.184,870.03,334.093,871.422,321.531z"/>
<path style="fill:#C9CACA;" d="M710.751,654.899c-1.87-0.029-3.74-0.058-5.609-0.087c1.524-18.823,0.224-37.68,0.717-56.514
	c0.104-3.965-1.871-4.631-5.175-4.559c-6.73,0.147-13.542,0.559-19.684-3.126c11.268-0.155,22.539-0.31,33.811-0.466
	c6.344-0.414,8.509,4.453,11.1,8.782c3.848,6.202,1.429,12.994,1.692,19.508c0.122,3.024-2.362,2.414-4.249,1.653
	c-4.538-1.831-9.044-3.741-13.614-5.64c-1.596,3.138,1.229,5.594,0.589,8.331c-1.864,6.834-1.139,13.615,0.426,20.378
	C710.753,647.073,710.752,650.986,710.751,654.899z"/>
<path style="fill:#AAFB17;" d="M645.689,693.816c8.136-1.034,13.936,0.523,16.156,7.675c2.818,9.077,3.694,18.513-2.889,26.292
	c-4.97,5.873-12.52,3.378-19.077,3.327c-2.846-0.022-2.212-2.732-2.296-4.557c-0.425-9.194,0.15-18.375-0.854-27.613
	C635.826,690.624,643.184,694.646,645.689,693.816z"/>
<path style="fill:#C7C7C8;" d="M923.782,227.158c-19.04,19.282-38.241,38.42-53.024,62.092c2.674,2.317,8.915,6.019,1.592,13.385
	c-3.274-6.475-7.446-11.544-15.128-13.747c19.964-23.614,40.172-45.756,64.511-63.778
	C923.491,224.716,924.111,225.462,923.782,227.158z"/>
<path style="fill:#AAFB17;" d="M379.388,712.869c0.009,4.493-0.004,8.986,0.013,13.479c0.01,2.641,0.076,5.063-3.782,5.043
	c-3.396-0.018-5.43-1.002-5.289-4.722c0.021-0.561,0.14-1.176-0.038-1.676c-1.168-3.286,3.126-9.642-4.488-9.275
	c-7.349,0.354-3.079,6.411-3.745,9.803c-0.629,3.199-0.19,6.045-4.872,5.893c-4.602-0.149-3.739-3.253-3.758-5.892
	c-0.065-8.986-0.014-17.972-0.026-26.958c-0.004-2.639-0.08-4.995,3.771-5.061c3.801-0.065,4.985,1.603,4.727,5.065
	c-0.124,1.675,0.085,3.372-0.004,5.052c-0.148,2.794,0.945,4.045,3.888,4.064c3.16,0.02,4.742-1.047,4.535-4.38
	c-0.121-1.956,0.006-3.929,0.064-5.894c0.102-3.494,2.447-3.804,5.223-3.869c3.052-0.071,3.838,1.483,3.796,4.165
	C379.323,702.759,379.379,707.814,379.388,712.869z"/>
<path style="fill:#A9FA18;" d="M606.818,717.459c-2.113,3.427-1.084,6.244-1.372,8.891c-0.332,3.047-1.784,4.427-4.944,4.416
	c-3.282-0.011-3.461-2.044-3.551-4.449c-0.333-8.966-0.621-17.935-1.121-26.891c-0.241-4.312,1.335-6.302,5.79-5.931
	c2.515,0.209,5.072-0.102,7.591,0.08c8.257,0.594,13.553,7.733,9.31,14.556c-3.902,6.274-2.884,10.538,0.664,15.719
	c1.291,1.885,3.701,4.368,0.111,6.328c-3.33,1.819-5.711,0.803-7.247-2.886C610.705,724.063,608.774,721.079,606.818,717.459z"/>
<path style="fill:#A9FA18;" d="M450.412,718.558c0,2.796-0.004,5.592,0.001,8.388c0.006,2.932-1.694,3.791-4.341,3.831
	c-2.785,0.042-4.084-1.072-4.124-3.938c-0.131-9.533-0.424-19.064-0.512-28.597c-0.012-1.281,0.54-3.511,1.26-3.705
	c6.014-1.617,12.388-2.384,17.897,0.828c4.579,2.67,6.398,8.32,3.306,12.447c-4.736,6.321-2.606,11.128,0.828,16.469
	c1.325,2.061,3.375,4.399-0.435,6.09c-2.994,1.329-5.295,0.836-6.756-2.54c-1.493-3.448-3.385-6.724-5.103-10.075
	C451.759,718.023,451.085,718.29,450.412,718.558z"/>
<path style="fill:#FAFBFB;" d="M264.176,661.604c-2.599-3.572-3.225-7.815-0.134-10.749c2.991-2.839,6.693,0.301,8.935,2.189
	c9.949,8.38,19.212,4.218,28.356-1.042c2.228-1.282,3.936-2.847,7.095-1.513c-3.454,11.803-10.392,20.231-22.311,24.003
	c-8.722,2.76-15.119-1.307-20.594-7.611c3.046-1.421,8.079-1.358,15.216-0.055C275.375,664.613,268.061,668.279,264.176,661.604z"/>
<path style="fill:#FAFBFB;" d="M293.954,644.507c-15.791,6.032-25.976,2.886-31.72-9.798c-0.234-3.102,1.931-2.211,3.114-1.503
	c3.081,1.845,6.461,3.036,9.719,4.552c-4.078-2.156-9.248-2.867-11.168-7.961c-0.563-1.845-1.516-3.676-1.582-5.538
	c-0.069-1.941,0.968-4.028,2.778-4.853c1.837-0.837,3.043,1.052,4.113,2.24c9.472,10.52,20.354,10.2,32.006,4.299
	c4.477-0.977,5.862-0.076,4.748,4.094C304.223,636.546,301.555,642.682,293.954,644.507z"/>
<path style="fill:#A9FA18;" d="M580.816,712.485c-0.005,4.016-0.746,7.882-2.269,11.559c-2.219,5.358-6.471,7.565-12.105,7.298
	c-5.357-0.254-9.241-2.914-10.728-8.023c-1.639-5.633-2.672-11.273-1.288-17.396c1.697-7.51,4.831-12.487,13.264-12.397
	c8.68,0.092,11.483,5.778,12.59,13.083C580.574,708.55,580.643,710.525,580.816,712.485z"/>
<path style="fill:#C7C7C8;" d="M76.398,260.752c25.405,11.827,45.426,30.811,65.725,49.428c2.344,2.15,4.098,4.26-0.177,6.149
	c-5,2.209-7.084,6.768-8.836,11.533c-3.942-1.673-5.517-4.7-3.509-7.594c2.816-4.059,0.69-6.118-1.688-8.851
	c-15.899-18.271-32.518-35.744-53.045-48.999C74.301,260.873,74.673,260.192,76.398,260.752z"/>
<path style="fill:#F9F9FA;" d="M761.46,631.288c-4.551,7.467-10.661,12.7-19.928,11.327c-12.263-1.817-20.858-8.593-25.714-21.764
	c5.656,2.353,10.187,4.292,14.758,6.128c6.87,2.76,12.835,1.483,17.035-4.754c2.55-3.786,5.347-6.454,10.192-6.034
	C766.209,619.482,761.539,625.941,761.46,631.288z"/>
<path style="fill:#F8F8F9;" d="M308.061,595.523c-5.532,13.911-19.853,20.704-31.782,15.836
	c-8.112-3.311-12.966-12.709-10.962-21.09c0.448-1.875,1.541-3.125,3.365-3.2c4.892-0.203,9.925,0.723,13.183,4.269
	c8.488,9.238,11.187,10.19,22.867,5.665C305.65,596.647,306.534,596.205,308.061,595.523z"/>
<path style="fill:#AAFA18;" d="M400.26,731.331c-3.169,0.149-5.072-0.699-3.911-4.357c3.139-9.888,6.38-19.747,9.256-29.712
	c0.92-3.188,2.736-3.706,5.524-3.76c2.98-0.058,4.558,1.063,5.43,4.002c2.793,9.405,5.857,18.73,8.74,28.109
	c0.613,1.996,2.159,4.718-1.274,5.433c-2.822,0.588-6.301,1.527-7.651-2.788c-0.95-3.039-0.746-6.863-5.64-7.069
	c-5.363-0.226-4.384,4.155-5.412,6.955C404.368,730.744,402.697,731.568,400.26,731.331z"/>
<path style="fill:#2B567B;" d="M744.585,577.363c-2.952-5.229-1.591-10.954-1.836-16.481c-0.195-4.393,3.723-4.479,6.422-5.259
	c3.267-0.944,3.556,1.337,3.315,3.981c-0.322,3.528,2.51,2.229,4.116,2.239c12.242,0.078,15.253,1.963,18.472,11.861
	c2.562,7.879-0.387,17.786-6.892,22.504c-1.962,1.423-4,3.123-7.755,2.346c3.687-6.069,7.052-12.076,6.018-19.309
	c-0.682-4.766-3.438-8.215-7.867-8.47c-3.802-0.218-9.384-1.637-10.526,4.92C747.718,577.959,746.447,578.275,744.585,577.363z"/>
<path style="fill:#2B577B;" d="M715.301,260.153c-2.277-11.385,0.565-19.08,7.474-25.897c6.067-5.986,8.811-14.246,12.827-21.621
	c1.303-2.394,2.726-5.902,5.903-4.862c2.74,0.897,3.077,4.48,2.793,7.32c-0.304,3.041-0.669,6.167-1.653,9.035
	C737.592,238.859,726.335,248.633,715.301,260.153z"/>
<path style="fill:#FBFBFB;" d="M744.585,577.363c1.417-0.014,2.657-0.396,3.468-1.668c11.532-2.333,12.515-1.779,11.6,6.538
	c-3.227,6.485-9.573,8.584-15.67,11.034c-0.973,0.544,0.688,1.51-0.043,0.652c-0.2-0.235-0.063-0.615,0.46-0.668
	c5.672-0.573,9.073-6.988,15.356-5.951c-6.25,13.126-14.337,15.634-31.745,9.843c-6.407-0.904-9.46-5.905-12.612-10.612
	c-0.92-1.374-1.712-3.756,1.659-3.744C731.032,589.914,738.357,588.471,744.585,577.363z"/>
<path style="fill:#F8F9FA;" d="M715.438,647.793c6.737,5.001,12.223,8.248,18.302,10.514c6.485,2.417,11.168,0.961,12.918-5.982
	c1.1-4.364,3.623-6.482,7.655-5.536c4.043,0.948,4.108,4.769,3.955,8.255c-0.732,16.617-6.24,20.398-22.665,15.096
	C725.61,666.915,719.313,659.888,715.438,647.793z"/>
<path style="fill:#B1BDA8;" d="M461.7,586.995c-3.416,3.83-7.905,1.749-11.849,1.844c-4.546,0.109-6.548,1.315-6.517,6.243
	c0.17,26.404,0.176,52.81-0.003,79.214c-0.034,5.063,2.198,6.088,6.633,6.045c10.386-0.101,20.775,0.177,31.163,0.302
	c-11.934,2.641-24.016,0.884-36.023,1.032c-4.906,0.061-3.207-4.523-3.219-7.222c-0.118-27.053-0.082-54.107-0.069-81.161
	c0.017-34.944,0.182-69.889-0.049-104.832c-0.039-5.881,1.566-8.375,7.549-7.52c1.933,0.276,3.939,0.043,5.912,0.043
	c27.431,0,27.431,0,42.538,24.758c-0.046,0.335-0.21,0.595-0.492,0.781c-5.654-0.131-8.659-4.427-10.85-8.381
	c-7.92-14.293-20.879-14.074-34.421-13.128c-6.177,0.431-6.116,4.682-6.13,9.015c-0.061,18.575-0.018,37.151-0.025,55.726
	c-0.003,8.443,0.232,16.895-0.074,25.327c-0.233,6.427,1.391,10.439,8.811,9.854C457.094,584.739,459.671,585.136,461.7,586.995z"/>
<path style="fill:#C7C8C8;" d="M578.365,449.904c-0.137,8.391-1.368,9.35-9.067,5.989c-8.985-3.923-17.848-8.137-26.668-12.424
	c-5.374-2.612-7.177-9.802-3.988-14.468c1.409-2.062,2.805-1.14,4.222-0.176c9.838,6.696,20.706,11.2,32.022,14.574
	C578.773,444.558,578.385,447.115,578.365,449.904z"/>
<path style="fill:#C9CACA;" d="M313.487,588.924c0.432,0.054,0.865,0.071,1.299,0.052c3.588,4.183,10.863-1.315,13.576,5.167
	c-1.119,0.081-2.288,0.413-3.35,0.204c-8.017-1.582-9.068,2.502-8.953,9.391c0.385,23.035-0.104,46.084,0.301,69.118
	c0.119,6.774-1.359,9.969-8.675,8.941c-3.583-0.503-7.295-0.045-10.947-0.124c-1.582-0.034-3.525,0.401-3.993-1.985
	c-0.412-2.099,1.001-2.936,2.507-3.834c12.932-7.713,17.617-19.657,17.41-34.09c-0.904-12.848,0.004-25.719-0.461-38.573
	c-0.07-1.946,0.31-3.919-0.713-5.736C312.154,594.61,312.82,591.767,313.487,588.924z"/>
<path style="fill:#CBCBCB;" d="M311.488,597.453c2.349,0.307,3.312,1.712,3.304,4.007c-0.043,12.279-0.004,24.56-0.172,36.837
	c-0.016,1.164-1.275,2.311-1.957,3.465c-5.661,4.884-12.227,7.819-19.436,9.626c-0.756-3.184,2.255-3.241,2.965-4.928
	c6.236-7.815,12.15-15.791,12.318-25.613c-2.319,2.791-6.79,2.49-10.747,3.595c-1.728-0.427-4.787,3.042-5.051-1.314
	c-0.169-2.788-1.974-7.186,1.785-8.217C303.841,612.35,307.647,605.026,311.488,597.453z"/>
<path style="fill:#2B567B;" d="M275.127,572.878c0.764-3.072-3.583-5.67-0.144-7.149c2.766-1.19,6.219,0.18,7.599,3.57
	c1.491,3.663,2.473,7.389,0.91,11.441c-1.179,3.057-1.7,5.986-6.26,3.864c-5.005-2.329-10.798-5.369-15.178,0.413
	c-4.494,5.932-4.439,12.54,0.429,18.673c0.237,0.298,0.03,0.947,0.038,1.433c-11.858-7.013-14.253-16.059-7.11-26.881
	C262.2,567.958,266.561,566.681,275.127,572.878z"/>
<path style="fill:#C8C9C9;" d="M570.382,472.839c-14.09-0.719-24.763-8.57-36.113-14.531c-4.761-2.5-1.173-6.754-0.011-9.584
	c1.728-4.209,4.185-0.368,5.885,0.673c9.691,5.931,20.179,9.919,31.034,12.973c3.907,1.099,6.843,2.354,6.096,7.252
	C576.455,474.985,572.146,471.19,570.382,472.839z"/>
<path style="fill:#C8C9C9;" d="M542.997,408.205c10.068,6.596,20.7,12.108,31.882,16.436c6.182,2.393,4.802,7.557,3.562,11.27
	c-1.854,5.55-5.595,0.821-8.034-0.146c-7.011-2.781-13.635-6.546-20.658-9.289C540.693,422.939,538.365,417.253,542.997,408.205z"/>
<path style="fill:#A7F718;" d="M531.73,693.505c2.516,1.466,8.332-2.683,8.916,2.815c0.561,5.286-4.93,3.867-8.311,4.004
	c-2.698,0.11-4.163,0.955-4.042,3.959c0.106,2.626,1.527,3.263,3.776,3.359c2.901,0.124,6.605-0.906,6.305,4.205
	c-0.254,4.331-3.44,3.589-6.139,3.739c-6.322,0.352-3.129,5.267-3.97,8.247c-0.775,2.743,2.136,7.218-3.763,7.541
	c-6.259,0.344-4.638-4.2-4.716-7.492c-0.152-6.447-0.1-12.9-0.034-19.35C519.88,691.934,518.22,693.712,531.73,693.505z"/>
<path style="fill:#2B577B;" d="M652.899,286.283c1.22,5.586-1.576,8.255-6.819,9.38c-6.004,1.288-11.984,2.724-17.906,4.343
	c-7.07,1.933-4.997-4.204-6.317-7.122c-1.665-3.681,0.07-5.657,3.889-6.591c6.501-1.59,13.341-2.65,19.263-5.53
	C652.178,277.278,654.07,278.907,652.899,286.283z"/>
<path style="fill:#C6C7C7;" d="M543.658,387.783c6.04,4.791,5.864,10.976,9.083,16.367c3.783-8.383,8.736-6.603,14.46-2.673
	c5.317,3.65,13.984,3.838,11.971,14.066c-0.719,3.655-1.412,5.393-5.026,3.516c-9.675-5.025-19.574-9.726-28.768-15.532
	C539.846,400.032,543.512,394.09,543.658,387.783z"/>
<path style="fill:#AAFB17;" d="M504.474,696.465c-0.13,2.039-0.504,4.387-2.984,4.266c-6.419-0.312-5.37,4.07-5.378,7.895
	c-0.014,6.159-0.123,12.32,0.015,18.476c0.075,3.343-1.415,4.335-4.547,4.298c-3.147-0.037-4.617-1.192-4.556-4.431
	c0.094-5.037,0.251-10.093-0.075-15.112c-0.299-4.608,2.808-10.912-6.19-11.665c-2.451-0.205-2.83-5.715,0.508-6.129
	c7.151-0.889,14.493-0.319,21.754-0.183C504.283,693.904,504.516,695.29,504.474,696.465z"/>
<path style="fill:#C2C3C4;" d="M466.526,286.611c-3.675-22.348-5.528-43.303-1.634-64.557c1.219,10.016,2.456,20.03,3.648,30.049
	c0.7,5.884,2.07,11.572,4.553,16.978c1.121,2.44,0.865,6.228,5.655,4.312c1.432-0.573,2.911,1.411,3.117,3.262
	c0.269,2.428-1.72,2.69-3.307,2.865C474.082,280.015,471.051,283.007,466.526,286.611z"/>
<path style="fill:#BCD494;" d="M324.933,570.104c1.176-1.862,4.423-0.852,4.971-3.585c-0.069-26.43-0.044-52.861-0.293-79.288
	c-0.044-4.726,1.365-6.215,6.199-6.318c16.562-0.353,16.602-0.554,16.548,16.127c-0.095,29.515-0.251,59.03-0.381,88.545
	c-0.504,0.04-0.99,0.157-1.456,0.353c0.001,0.002-0.336-0.526-0.336-0.526c-3.27-3.826-2.468-8.492-2.485-12.902
	c-0.1-25.833,0.031-51.667-0.111-77.501c-0.022-4.019,0.828-8.93-5.428-9.599c-5.479-0.586-7.63,2.191-7.689,7.373
	c-0.12,10.39,0.003,20.779-0.07,31.168c-0.092,13.196,0.443,26.405-0.272,39.584C333.721,571.062,331.753,572.18,324.933,570.104z"
	/>
<path style="fill:#C7C8C8;" d="M541.512,297.284c8.994,4.714,17.066,9.247,25.409,13.211c5.65,2.684,5.2,7.475,5.18,12.179
	c-0.014,3.324-2.28,2.618-4.07,1.538c-8.182-4.944-16.445-9.779-24.381-15.097C539.755,306.504,541.181,302.092,541.512,297.284z"/>
<path style="fill:#2A5579;" d="M497.539,309.983c-4.815-4.077-9.63-8.154-14.446-12.231c17.69,7.59,34.295,16.926,52.111,28.367
	c-9.514,0.048-15.181,3.42-18.156,12.06c3.332-17.011-8.601-22.299-19.605-28.276C497.443,309.902,497.539,309.983,497.539,309.983z
	"/>
<path style="fill:#C6C7C8;" d="M567.49,305.753c-9.198-5.273-17.904-10.192-26.534-15.242c-3.884-2.273-4.307-6.634-2.708-9.633
	c1.942-3.642,4.768,0.382,6.998,1.204c4.461,1.645,8.61,4.114,13.013,5.942C565.777,291.145,568.471,296.779,567.49,305.753z"/>
<path style="fill:#C6C6C7;" d="M563.036,285.986c-8.973-4.811-17.01-9.285-25.203-13.451c-4.869-2.476-3.316-6.917-4.393-10.832
	C554.508,265.329,561.85,271.085,563.036,285.986z"/>
<path style="fill:#2B567B;" d="M257.707,638.271c-12.696-10.065-15.698-17.709-11.472-27.027c1.616-3.562,2.8-5.807,7.099-2.068
	c4.903,4.265,10.173,6.999,4.708,14.992C255.977,627.189,257.707,632.804,257.707,638.271z"/>
<path style="fill:#2B567B;" d="M261.125,671.703c-14.44-4.68-19.561-12.121-16.171-22.313c0.838-2.521-0.222-8.128,5.241-6.217
	c4.236,1.481,10.204,3.382,8.435,9.587C256.815,659.128,257.57,664.743,261.125,671.703z"/>
<path style="fill:#C3C4C5;" d="M543.521,315.409c9.975,5.737,19.135,11.041,28.332,16.281c6.173,3.516,1.394,9.211,3.669,13.502
	c-1.36,0.29-2.218,0.632-2.324,0.473c-5.947-8.91-14.329-13.953-24.457-17.283C542.287,326.258,542.517,325.055,543.521,315.409z"/>
<path style="fill:#C4C5C6;" d="M515.252,427.933c0.115,12.77-10.824,21.524-27.758,23.445
	C490.461,436.318,504.707,435.289,515.252,427.933z"/>
<path style="fill:#C5C6C7;" d="M494.272,434.501c2.474-15.745,13.504-20.327,23.41-25.865c2.895-1.618,4.204-0.065,3.496,3.079
	c-0.864,3.835-1.479,7.826-5.304,10.088C509.192,425.756,502.49,429.674,494.272,434.501z"/>
<path style="fill:#C2C3C4;" d="M557.328,264.865c-8.248-2.813-15.857-5.377-23.443-8.008c-3.248-1.126-4.062-4.313-3.716-6.836
	c0.611-4.45,4.011-0.949,6.037-1.151c2.7-0.269,5.507,0.867,8.278,0.927C553.473,249.992,557.718,254.534,557.328,264.865z"/>
<path style="fill:#2C567B;" d="M761.46,631.288c0.449-1.808-4.267-1.367-1.725-4.216c3.864-4.331,0.486-7.563-1.932-10.882
	c2.115-0.646,4.24-1.847,6.343-1.811c3.27,0.056,6.92-6.744,9.663-0.092c2.349,5.697,2.263,11.81-2.996,16.123
	C768.315,632.458,765.087,636.964,761.46,631.288z"/>
<path style="fill:#2B567A;" d="M760.163,670.208c3.839-7.675,3.323-14.473,0.623-21.429c-2.548-6.565,4.095-6.255,7.12-7.86
	c4.584-2.432,3.992,2.76,4.57,4.671C775.596,655.892,772.265,662.629,760.163,670.208z"/>
<path style="fill:#AAAFB3;" d="M499.654,416.681c0.278-18.538,15.351-19.765,23.953-27.267
	C524.509,405.701,509.228,406.983,499.654,416.681z"/>
<path style="fill:#CACACA;" d="M710.754,643.159c-4.911-4.248-5.198-17.989-0.426-20.378c3.928,6.854,8.159,13.467,15.017,17.838
	c3.436,2.19,2.441,5.098,1.928,8.203c-8.119-2.94-8.119-2.94-14.295-10.001C712.23,640.282,711.492,641.721,710.754,643.159z"/>
<path style="fill:#95A88E;" d="M711.452,568.758c-2.517-0.048-5.033-0.091-7.55-0.146c-13.88-0.305-13.88-0.306-13.88-14.621
	c0-13.465,0.175-26.933-0.086-40.393c-0.1-5.154,1.012-8.265,6.891-7.371c4.321,0.657,10.599-2.709,10.461,6.349
	c-0.113,7.458,11.894,13.004,20.309,9.978c-0.192,1.028-0.051,2.695-0.628,2.999c-6.517,3.436-21.393-4.81-21.244-12.175
	c0.131-6.421-3.685-5.379-7.612-5.681c-4.824-0.371-6.28,1.447-6.201,6.21c0.254,15.461,0.358,30.935-0.042,46.389
	c-0.151,5.856,2.081,7.136,7.314,6.868C703.275,566.956,707.67,565.971,711.452,568.758z"/>
<path style="fill:#C0C1C3;" d="M923.631,265.889c-12.281,9.72-24.636,19.357-35.356,30.905
	c4.172-17.152,18.079-24.869,32.003-32.568C922.122,263.317,923.797,262.749,923.631,265.889z"/>
<path style="fill:#C2C3C5;" d="M510.457,448.482c0.367,10.805-4.609,16.936-14.149,18.431c-4.277,0.67-4.132-2.886-5.5-4.954
	c-1.366-2.066-1.854-4.19,1.458-5.084c0.532-0.143,1.02-0.448,1.527-0.683C499.305,453.642,504.817,451.091,510.457,448.482z"/>
<path style="fill:#BDBFC1;" d="M116.232,324.029c-12.516-10.123-26.504-18.243-38.994-28.402
	C93.297,300.931,109.013,306.701,116.232,324.029z"/>
<path style="fill:#949F9D;" d="M422.257,582.408c4.079-1.89,4.025-5.443,4.014-9.227c-0.079-27.512-0.024-55.024-0.052-82.537
	c-0.01-9.571-0.326-9.767-9.42-6.018c-2.109,0.869-4.136,1.75-6.473,1.219c0.911-0.627,1.755-1.401,2.745-1.859
	c13.46-6.231,15.082-5.207,15.082,9.437c0,27.213-0.015,54.426,0.016,81.638C428.172,579.184,428.477,583.373,422.257,582.408z"/>
<path style="fill:#C2C3C5;" d="M308.708,406.277c4.882-0.787,8.647-0.664,8.743,4.994c0.141,8.274-7.085,6.335-11.421,7.582
	c-5.545,1.595-6.424-3.35-6.678-7.148C298.791,403.319,306.256,408.408,308.708,406.277z"/>
<path style="fill:#C2C3C4;" d="M327.96,441.574c-2.415,3.746-6.028,7.15-11.163,7.661c-5.098,0.508-7.105-3.62-8.219-7.757
	c-0.581-2.158,1.501-2.355,3.158-2.847c2.369-0.703,4.673-1.716,6.886-2.832C323.381,433.4,327.622,435.596,327.96,441.574z"/>
<path style="fill:#C1C3C4;" d="M708.013,399.262c-5.438,0.23-9.052,0.033-8.972-5.319c0.142-9.534,7.988-6.349,12.885-7.541
	c5.2-1.266,3.88,3.105,4.101,5.874C716.621,399.719,711.083,398.92,708.013,399.262z"/>
<path style="fill:#C7C8C8;" d="M305.101,390.876c6.179-1.863,9.637,0.918,8.984,6.63c-0.861,7.536-7.928,3.727-12.073,4.952
	c-4.663,1.378-6.024-2.135-6.19-6.462C295.502,387.626,301.858,392.009,305.101,390.876z"/>
<path style="fill:#BFC0C2;" d="M704.992,418.609c2.502,1.495,8.579-3.394,8.42,3.536c-0.092,3.989-1.697,8.81-7.571,7.52
	c-3.888-0.854-9.947,0.481-9.94-6.111C695.906,417.738,700.007,417.12,704.992,418.609z"/>
<path style="fill:#C2C3C4;" d="M535.674,235.253c2.508,0,5.071-0.334,7.511,0.073c4.367,0.728,6.097,5.266,5.99,8.044
	c-0.161,4.167-4.134,1.441-6.543,1.242c-3.048-0.253-6.091-0.784-9.138-0.794c-4.349-0.014-7.416-1.796-7.032-6.245
	c0.377-4.366,4.395-1.692,6.714-2.374c0.77-0.226,1.662-0.036,2.499-0.036C535.674,235.193,535.674,235.223,535.674,235.253z"/>
<path style="fill:#2A5579;" d="M485.784,293.472c8.004-0.259,11.083-2.252,2.824-7.975c9.885,1.877,18.473,10.896,21.63,21.639
	C502.405,302.759,494.74,298.477,485.784,293.472z"/>
<path style="fill:#C0C1C3;" d="M302.708,345.72c3.725-0.194,7.695-0.914,7.596,5.87c-0.092,6.33-3.808,5.558-7.675,5.465
	c-3.988-0.096-8.42,1.217-8.627-5.631C293.791,344.445,298.189,345.716,302.708,345.72z"/>
<path style="fill:#C2C3C5;" d="M710.634,433.891c-2.978,12.084-4.94,13.029-14.76,9.57c-4.481-1.578-4.181-4.321-3.591-7.83
	c0.782-4.651,3.497-2.847,6.145-2.163C702.144,434.428,705.92,435.312,710.634,433.891z"/>
<path style="fill:#C4C5C6;" d="M318.469,420.474c2.722,0.052,3.722,4.164,3.066,6.236c-1.73,5.459-7.431,6.193-12.171,6.912
	c-4.429,0.672-4.841-3.745-5.837-6.777c-0.734-2.235,0.242-3.615,2.761-4.001C309.835,422.301,313.341,421.489,318.469,420.474z"/>
<path style="fill:#C1C2C4;" d="M577.659,400.014c-4.774-0.113-8.026-3.665-12.001-5.508c-4.406-2.043-1.181-4.688,0.104-6.791
	c1.242-2.032,1.216-5.46,5.827-3.862C580.479,386.932,579.729,392.954,577.659,400.014z"/>
<path style="fill:#BDBFC1;" d="M300.981,332.192c2.961,0.81,8.81-2.649,8.64,5.434c-0.144,6.87-4.906,4.777-8.227,4.692
	c-3.768-0.097-8.643,0.999-8.462-5.919C293.098,330.108,296.86,331.788,300.981,332.192z"/>
<path style="fill:#C0C2C3;" d="M303.697,372.337c-2.89-2.103-10.511,1.382-9.351-6.573c1.09-7.472,8.083-3.295,12.175-4.501
	c4.72-1.39,4.524,3.307,4.671,6.659C311.437,373.525,307.318,372.024,303.697,372.337z"/>
<path style="fill:#C3C4C5;" d="M708.715,402.652c2.164,1.234,6.948-2.854,6.809,3.765c-0.083,3.959-0.232,7.834-5.657,6.951
	c-4.079-0.664-10.405,2.822-11.351-4.657C697.383,399.765,704.927,404.637,708.715,402.652z"/>
<path style="fill:#C7C7C8;" d="M707.219,382.986c-3.768,0.137-7.316,0.567-7.182-5.232c0.224-9.673,8.187-5.097,12.437-6.738
	c4.731-1.826,3.195,3.012,3.489,5.336C716.868,383.494,711.649,382.789,707.219,382.986z"/>
<path style="fill:#B5B8BB;" d="M550.175,473.707c-6.47,0.735-11.119,1.556-15.785,1.673c-2.461,0.062-6.502,1.854-7.172-1.708
	c-0.559-2.973,0.889-6.554,2.152-9.572c1.227-2.931,3.438-0.643,4.853,0.136C539.062,466.899,543.744,469.852,550.175,473.707z"/>
<path style="fill:#C7C7C8;" d="M303.392,375.552c4.272,0.163,8.371-1.188,8.528,5.328c0.177,7.365-4.718,5.034-8.431,5.527
	c-5.3,0.703-8.908-0.818-8.565-6.814C295.313,372.811,300.896,376.83,303.392,375.552z"/>
<path style="fill:#BABDBF;" d="M713.278,340.738c2.069,10.059-0.258,13.186-9.068,13.05c-3.355-0.052-5.043-0.88-5.531-4.568
	c-0.482-3.639,0.581-5.081,4.09-5.694C706.321,342.905,709.771,341.693,713.278,340.738z"/>
<path style="fill:#C3C4C5;" d="M713,355.594c3.014,0.679,2.439,6.451,2.228,7.454c-1.249,5.939-7.347,4.579-11.518,5.429
	c-5.353,1.091-3.41-3.812-3.494-6.306C700.09,358.43,705.905,355.175,713,355.594z"/>
<path style="fill:#BFC0C2;" d="M301.489,315.41c-3.545-0.599-9.011,2.09-8.492-5.409c0.293-4.236,2.586-6.064,5.868-4.474
	c3.645,1.766,11.478-2.981,10.632,6.355C308.938,318.048,304.944,315.981,301.489,315.41z"/>
<path style="fill:#9DE91B;" d="M454.865,316.761c3.422,5.688,10.766,3.184,14.435,7.731c0.995,1.233,2.253,2.874,2.148,4.231
	c-0.162,2.073-2.463,1.695-4.054,1.882C456.801,331.846,453.384,328.433,454.865,316.761z"/>
<path style="fill:#BFC1C2;" d="M298.578,265.77c-3.41,0.313-6.225-0.335-6.15-5.222c0.125-8.211,7.058-4.646,10.751-5.974
	c4.859-1.747,4.368,3.44,4.369,5.868C307.549,266.11,302.995,265.799,298.578,265.77z"/>
<path style="fill:#BBBDC0;" d="M505.242,395.917c-0.624-8.092,6.458-16.91,12.588-17.448c2.07-0.182,4.067,0.695,5.139,2.281
	c1.764,2.609-1.165,3.158-2.499,4.159C515.83,388.386,511.08,391.718,505.242,395.917z"/>
<path style="fill:#C0C2C3;" d="M413.655,334.591c-2.314,5.504-4.28,10.4-6.456,15.2c-0.538,1.186-2.01,0.917-2.985,0.377
	c-1.758-0.975-3.427-2.378-3.061-4.568c0.74-4.423,2.231-8.644,4.691-12.438c1.395-2.152,3.404-1.601,5.189-0.679
	C412.137,333.052,413.767,333.428,413.655,334.591z"/>
<path style="fill:#223851;" d="M297.761,624.443c3.624-1.903,7.247-3.806,10.933-5.742c2.852,10.487-1.838,20.685-12.503,27.76
	c-0.746-0.651-1.491-1.303-2.237-1.954c4.542-4.393,8.735-8.967,10.438-15.355c0.891-3.341-0.471-3.773-3.178-3.207
	C300.063,625.444,298.912,624.943,297.761,624.443z"/>
<path style="fill:#B9BBBE;" d="M292.928,240.273c-3.822,0.323-6.212-0.189-7.409-2.924c-1.678-3.836,2.096-3.761,3.829-5.079
	c1.098-0.835,2.38-1.438,3.609-2.087c1.831-0.967,3.231-3.969,5.646-2.25c2.037,1.45,2.731,4.185,2.931,6.72
	c0.269,3.412-2.523,3.88-4.899,4.614C295.054,239.755,293.438,240.136,292.928,240.273z"/>
<path style="fill:#9AE51C;" d="M186.11,378.092c-0.011,3.757,0.439,6.582-1.879,8.263c-1.27,0.921-2.803-0.449-3.394-1.595
	c-1.271-2.465-6.61-3.859-2.213-8.036c1.159-1.101,2.061-3.554-1.056-3.01c-3.894,0.679-3.892-1.595-3.242-3.799
	c0.928-3.15,3.664-3.448,6.169-2.098C184.995,370.243,185.887,374.678,186.11,378.092z"/>
<path style="fill:#9EEB1B;" d="M827.593,366.619c-2.207-6.07-3.926-11.424-0.254-16.71c1.698-2.444,4.453-4.217,7.238-2.358
	c2.473,1.651,1.019,3.718-0.107,6.299C832.644,358.036,833.433,363.39,827.593,366.619z"/>
<path style="fill:#BDBFC1;" d="M704.862,338.017c-6.4,1.391-6.727-1.398-6.458-4.479c0.651-7.444,7.4-4.57,11.254-6.023
	c4.169-1.572,4.072,3.463,3.814,5.474C712.655,339.364,706.768,337.344,704.862,338.017z"/>
<path style="fill:#BBBDBF;" d="M300.542,289.54c-2.946-0.676-7.54,1.67-7.453-4.129c0.126-8.442,7.349-3.582,10.99-5.361
	c3.387-1.654,4.391,1.873,4.387,5.078C308.456,291.624,303.49,288.672,300.542,289.54z"/>
<path style="fill:#B2B6B9;" d="M661.942,167.703c7.536-6.032,14.151-6.657,20.75-6.918c2.001-0.079,5.772-1.613,5.674,2.335
	c-0.072,2.899-2.5,4.695-5.892,4.62C676.425,167.607,670.372,167.703,661.942,167.703z"/>
<path style="fill:#C4C5C6;" d="M301.52,292.567c3.648,0.552,8.155-1.509,7.989,4.771c-0.184,6.949-5.307,3.811-8.52,4.466
	c-4.716,0.961-7.808-0.943-7.449-5.909C293.999,289.532,299.332,294.269,301.52,292.567z"/>
<path style="fill:#BFC0C2;" d="M303.919,239.826c1.007,4.008,2.793,8.236-0.361,10.602c-2.947,2.21-7.3,2.563-11.206,0.672
	c-2.005-0.971-3.044-2.614-3.012-4.626c0.036-2.287,2.173-1.863,3.706-2.368C296.445,242.986,299.725,241.506,303.919,239.826z"/>
<path style="fill:#C0C1C3;" d="M705.954,235.587c-6.505-0.704-10.812-1.45-10.785-7.198c0.01-2.038,0.425-5.718,3.238-4.623
	c4.179,1.626,10.176,1.805,11.676,6.722C711.029,233.587,707.775,235.969,705.954,235.587z"/>
<path style="fill:#285174;" d="M445.468,395.297c-1.594-15.969,2.309-27.112,13.989-34.91
	C453.615,370.696,449.038,381.55,445.468,395.297z"/>
<path style="fill:#C0C1C3;" d="M699.96,217.922c2.245-3.035,2.295-8.037,5.944-7.057c4.176,1.122,7.961,4.697,9.575,8.87
	c0.726,1.876-2.22,4.849-5.046,4.128C706.541,222.87,702.701,221.21,699.96,217.922z"/>
<path style="fill:#BBD294;" d="M555.023,566.535c-2.523,7.981-8.884,2.932-13.333,3.53c-4.656,0.626-3.521-3.99-3.566-6.792
	c-0.133-8.375-0.468-16.782,0.086-25.123c0.431-6.495-1-10.696-8.138-11.456c-1.635-0.174-3.294-0.791-3.906-2.684
	c13.955,3.069,13.954,3.069,13.955,17.253c0,5.306-0.001,10.613,0,15.919C540.125,569.507,542.924,571.263,555.023,566.535z"/>
<path style="fill:#C1C2C4;" d="M290.372,215.346c1.554,1.949,3.055,3.592,4.273,5.425c1.337,2.01-0.34,3.007-1.735,3.914
	c-2.105,1.369-4.393,2.487-6.373,4.01c-2.582,1.986-4.219,1.583-6.06-1.099c-1.734-2.526-1.04-3.883,1.154-5.441
	C284.55,220.082,287.294,217.762,290.372,215.346z"/>
<path style="fill:#B8BABD;" d="M257.533,193.223c3.182,1.576,7.379,1.047,6.541,4.358c-1.14,4.503-0.924,10.462-6.586,12.392
	c-2.426,0.827-4.131-1.028-3.452-4.027C255.003,201.682,254.795,196.986,257.533,193.223z"/>
<path style="fill:#C1C2C4;" d="M697.95,247.551c-3.952,0.126-6.054-1.525-5.629-5.449c0.26-2.4,0.574-6.036,4.141-4.05
	c3.51,1.954,10.169-3.311,10.652,3.868C707.523,247.998,701.391,246.402,697.95,247.551z"/>
<path style="fill:#BFC0C2;" d="M277.169,221.374c-2.764-0.656-5.618-1.694-5.161-3.363c1.315-4.805,4.059-9.476,8.14-12.049
	c1.725-1.087,6.206,3.224,5.759,5.609C285.021,216.303,279.415,217.734,277.169,221.374z"/>
<path style="fill:#C4C5C6;" d="M701.117,325.138c-4.498,0.423-4.649-2.413-4.295-4.853c1.028-7.095,7.805-4.461,11.829-6.157
	c3-1.264,2.431,3.035,2.385,4.715C710.836,326.109,703.902,322.798,701.117,325.138z"/>
<path style="fill:#B8BABD;" d="M698.034,260.604c-3.912,0.352-5.639-0.867-5.903-4.544c-0.362-5.037,2.584-5.57,6.253-5.08
	c2.839,0.379,7.374-1.99,7.478,3.698C705.968,260.513,700.7,259.255,698.034,260.604z"/>
<path style="fill:#BEBFC1;" d="M701.848,311.212c-4.476,0.596-6.655-0.577-6.321-4.278c0.639-7.093,6.956-3.551,10.453-5.056
	c4.565-1.965,4.009,3.524,3.82,5.125C709.161,312.413,703.983,310.255,701.848,311.212z"/>
<path style="fill:#C0C2C3;" d="M240.675,199.853c0,2.798,0.068,5.035-0.024,7.266c-0.063,1.516-0.74,2.636-2.503,2.681
	c-1.538,0.039-2.759-0.444-3.191-2.036c-1.155-4.259-3.547-8.474-2.446-12.902c0.534-2.147,4.031-2.424,5.939-2
	C242.964,193.863,239.632,197.957,240.675,199.853z"/>
<path style="fill:#BDBFC1;" d="M192.251,306.709c-5.583-3.9-14.765-4.27-12.04-14.825
	C191.89,295.285,193.759,297.497,192.251,306.709z"/>
<path style="fill:#C0C2C3;" d="M276.013,204.086c-0.052,2.358-8.099,11.393-9.612,10.846c-1.757-0.636-4.164-1.703-3.208-4.021
	c1.68-4.077,1.966-9.563,6.829-11.116C271.899,199.195,275.344,201.062,276.013,204.086z"/>
<path style="fill:#B7BABD;" d="M699.987,277.231c3.105-0.025,6.445-3.011,7.018,2.231c0.684,6.257-4.626,5.485-7.939,6.393
	c-3.402,0.932-7.303,0.389-7.311-4.408C691.744,274.226,697.978,279.244,699.987,277.231z"/>
<path style="fill:#C0C1C3;" d="M301.43,318.561c2.694,0.806,7.887-1.909,7.749,4.096c-0.134,5.863-5.04,4.452-8.721,4.576
	c-3.475,0.118-6.556,0.362-6.398-4.902C294.244,316.229,298.309,318.957,301.43,318.561z"/>
<path style="fill:#BABCBF;" d="M231.375,209.083c0.235,2.901-1.927,4.863-3.299,4.115c-4.6-2.508-6.224-7.703-7.705-12.202
	c-1.135-3.45,3.828-4.906,5.611-4.239C231.689,198.891,228.805,205.491,231.375,209.083z"/>
<path style="fill:#BFC1C2;" d="M771.462,198.236c1.682-2.953,0.132-7.906,4.033-9.948c2.376-1.243,5.222,1.06,6.147,3.129
	c1.969,4.405-2.921,6.523-4.347,9.875c-0.632,1.486-1.921,2.866-3.945,2.183C770.886,202.644,771.182,200.608,771.462,198.236z"/>
<path style="fill:#BBBDC0;" d="M698.817,297.942c-3.044,0.508-6.021-1.03-5.042-4.889c1.605-6.323,8.13-1.964,11.9-4.403
	c1.882-1.218,2.445,0.585,2.417,2.711C708.012,297.399,703.849,297.629,698.817,297.942z"/>
<path style="fill:#BABDBF;" d="M216.065,202.115c3.723,3.2,4.729,7.941,6.479,12.074c1.091,2.577-2.385,4.795-3.668,4.027
	c-4.054-2.428-6.857-6.607-8.164-11.029C209.978,204.706,213.716,203.765,216.065,202.115z"/>
<path style="fill:#C3C5C6;" d="M190.616,279.084c-2.499-1.147-4.938-2.399-7.477-3.401c-3.913-1.544-4.314-4.629-3.91-8.177
	c0.192-1.687,0.996-2.424,2.735-1.989c3.806,0.951,7.755,1.937,9.335,6.005C192.17,273.764,192.173,276.378,190.616,279.084z"/>
<path style="fill:#C0C2C3;" d="M206.515,210.088c3.142,3.372,6.346,6.865,7.606,11.324c0.451,1.597-2.61,5.096-3.901,4.248
	c-3.778-2.482-7.866-5.51-8.746-10.302C201.033,212.952,203.75,211.313,206.515,210.088z"/>
<path style="fill:#B8BABD;" d="M531.673,230.274c-3.736-0.161-8.542,1.065-8.601-4.209c-0.06-5.323,5.229-3.758,8.254-4.185
	c4.438-0.625,7.129,3.412,6.978,6.57C538.124,232.204,533.731,229.351,531.673,230.274z"/>
<path style="fill:#BBBEC0;" d="M301.267,267.884c2.383,0.343,6.519-1.459,6.596,4.248c0.077,5.732-4.022,4.35-7.069,4.297
	c-2.695-0.047-6.442,1.56-6.726-3.743C293.777,267.237,297.209,267.754,301.267,267.884z"/>
<path style="fill:#BABDBF;" d="M401.935,331.987c-3.061,3.178-2.091,9.469-7.113,11.02c-1.491,0.461-5.204-3.378-4.123-6.066
	c1.411-3.506,2.051-8.508,6.967-9.175C399.294,327.546,402.2,328.546,401.935,331.987z"/>
<path style="fill:#BDBEC1;" d="M813.986,229.532c-1.553,4.077-6.514,5.008-10.055,7.151c-2.083,1.261-4.021-2.833-3.7-4.304
	c1.049-4.805,5.452-6.941,9.598-8.22C812.108,223.457,813.423,226.281,813.986,229.532z"/>
<path style="fill:#BDBFC1;" d="M721.955,209.532c0.001,2.426-0.874,3.741-2.713,4.195c-2.019,0.499-12.455-6.249-12.112-7.931
	c0.555-2.717,3.421-4.893,5.184-4.852C717.753,201.071,718.466,207.2,721.955,209.532z"/>
<path style="fill:#C0C2C3;" d="M791.753,200.174c-2.436,3.325-3.757,8.045-8.166,9.688c-1.662,0.62-5.206-1.059-3.971-3.726
	c1.884-4.069,2.888-9.387,7.891-10.889C788.931,194.819,791.176,197.369,791.753,200.174z"/>
<path style="fill:#BBBDC0;" d="M761.643,194.154c2.408-2.119-2.236-8.32,4.224-9.081c1.935-0.228,5.828,0.195,4.477,4.082
	c-1.274,3.666,0.086,9.037-4.883,10.523C762.156,200.667,761.335,197.792,761.643,194.154z"/>
<path style="fill:#B7B9BC;" d="M810.77,289.37c-3.57-9.597,4.356-12.477,8.518-17.893
	C823.042,279.808,822.644,280.615,810.77,289.37z"/>
<path style="fill:#BEC0C2;" d="M196.787,248.993c-0.785,2.117-1.565,5.35-3.275,4.267c-3.552-2.25-9.387-1.499-10.598-6.613
	c-0.589-2.489,1.498-5.105,4.632-4.461C191.614,243.022,195.447,244.655,196.787,248.993z"/>
<path style="fill:#A2A8AE;" d="M191.255,230.708c3.189,3.131,8.642,4.157,9.749,9.339c0.311,1.453-1.671,4.558-3.611,3.772
	c-4.007-1.624-8.542-3.469-9.931-8.082C186.96,234.071,188.279,231.393,191.255,230.708z"/>
<path style="fill:#C0C2C3;" d="M198.641,219.946c3.458,2.569,6.529,5.776,8.108,9.931c0.443,1.166-0.846,4.614-3.203,3.832
	c-3.966-1.315-7.671-3.997-9.399-7.757C193.351,224.222,195.639,221.401,198.641,219.946z"/>
<path style="fill:#BCBEC0;" d="M800.166,208.716c-2.618,3.146-4.179,7.887-8.541,9.275c-2.222,0.707-3.888-2.771-3.139-4.659
	c1.458-3.679,2.792-8.167,7.24-9.203C797.101,203.809,799.786,205.676,800.166,208.716z"/>
<path style="fill:#C3C4C6;" d="M180.147,278.102c5.226,3.069,13.05,2.307,11.463,11.244c-0.317,1.785-1.359,2.463-2.872,1.65
	C183.897,288.394,176.765,287.352,180.147,278.102z"/>
<path style="fill:#C0C1C3;" d="M244.734,200.128c2.116-2.091-2.747-7.064,3.321-7.484c2.674-0.185,5.453,0.861,4.331,4.343
	c-1.374,4.264,0.551,11.51-4.568,12.165C242.947,209.775,246.277,203.373,244.734,200.128z"/>
<path style="fill:#BFC0C2;" d="M189.822,265.645c-2.548-2.958-9.158-1.464-8.974-7.94c0.058-2.041,0.31-4.585,3.016-3.507
	c3.751,1.494,9.475,1.198,9.262,7.512C193.07,263.36,193.112,265.876,189.822,265.645z"/>
<path style="fill:#BCBEC0;" d="M808.593,247.975c-3.223,0.856-2.922-1.324-3.188-2.812c-1.204-6.734,4.881-7.355,8.595-9.419
	c2.115-1.175,3.159,2.071,3.134,3.729C817.047,245.173,811.038,245.073,808.593,247.975z"/>
<path style="fill:#2E4850;" d="M717.06,582.786c-0.885,8.246,7.031,9.778,10.952,14.357c-0.7,0.596-1.401,1.192-2.101,1.787
	c-4.912-1.392-6.971-6.388-11.097-8.779c-2.178-3.881-4.93-7.511-5.264-12.708c4.213-0.488,7.769,1.55,11.471,2.888
	C719.402,580.669,717.81,581.049,717.06,582.786z"/>
<path style="fill:#BBBDBF;" d="M730.087,203.106c-0.215,2.441-2.112,3.994-3.279,3.293c-3.988-2.396-8.109-5.274-9.252-10.008
	c-0.426-1.766,3.114-4.364,4.713-3.813C727.112,194.249,727.732,199.597,730.087,203.106z"/>
<path style="fill:#BABCBE;" d="M817.26,245.417c5.023,9.158-2.216,11.3-6.842,15.375
	C805.245,252.294,812.659,249.963,817.26,245.417z"/>
<path style="fill:#BEC0C2;" d="M700.537,264.104c3.081-0.3,5.711-0.369,5.261,3.543c-0.72,6.261-6.29,2.91-9.392,4.492
	c-2.522,1.287-4.483-0.655-4.409-3.296C692.181,262.37,697.904,265.633,700.537,264.104z"/>
<path style="fill:#ADB1B6;" d="M703.205,451.114c-6.757,1.453-11.828,2.543-17.051,3.665
	C687.687,442.968,688.659,442.701,703.205,451.114z"/>
<path style="fill:#B9BCBE;" d="M732.466,186.699c3.923,2.101,4.161,6.672,5.806,10.188c1.044,2.233-1.52,4.329-3.006,3.974
	c-5.022-1.201-5.235-6.448-6.916-10.199C727.311,188.343,730.384,187.911,732.466,186.699z"/>
<path style="fill:#BBBDBF;" d="M819.517,260.047c3.712,8.868-3.579,10.481-8.058,14.295
	C809.031,265.263,809.124,265.098,819.517,260.047z"/>
<path style="fill:#B4B7BA;" d="M798.67,226.255c-2.301-0.187-3.285-2.14-2.964-3.46c1.007-4.138,3.855-7.571,7.709-8.765
	c1.825-0.566,5.007,3.695,4.196,5.172C805.794,222.512,802.199,224.649,798.67,226.255z"/>
<path style="fill:#C0C1C3;" d="M757.832,190.173c-1.064,2.182,2.802,6.58-2.856,6.709c-4.687,0.107-4.319-3.714-4.041-6.629
	c0.248-2.596-2.126-6.895,2.79-7.324C759.482,182.426,757.086,187.285,757.832,190.173z"/>
<path style="fill:#BEC0C2;" d="M746.85,193.947c0.833,2.805-0.311,4.844-1.934,4.25c-5.021-1.837-4.137-7.302-5.646-11.213
	c-1.123-2.91,2.005-4.567,3.891-3.816C748.52,185.301,745.127,191.02,746.85,193.947z"/>
<path style="fill:#C0C1C3;" d="M578.82,376.702c-0.38,1.043,1.49,4.583-2.137,4.279c-2.912-0.244-6.616-1.914-5.691-5.736
	c0.584-2.413-0.961-7.311,3.58-7.017C578.522,368.484,579.618,372.114,578.82,376.702z"/>
<path style="fill:#285276;" d="M483.5,442.498c-2.227-6.606-5.067-11.495-4.49-17.531
	C488.398,432.729,488.398,432.729,483.5,442.498z"/>
<path style="fill:#BABCBF;" d="M387.018,321.589c2.456,0.907,5.33,1.535,4.75,3.564c-0.951,3.328-2.777,7.13-6.312,8.071
	c-2.153,0.573-3.407-2.738-3.26-4.855C382.421,325.15,384.833,323.2,387.018,321.589z"/>
<path style="fill:#B2B5B9;" d="M521.667,209.877c2.901,0.718,5.528,2.577,5.552,5.309c0.025,2.836-3.432,3.344-5.697,3.429
	c-3.019,0.113-4.258-2.836-4.537-5.104C516.64,210.704,519.804,210.849,521.667,209.877z"/>
<path style="fill:#264F72;" d="M449.254,363.389c-2.186,5.338-4.371,10.677-7.18,17.538
	C441.39,372.666,441.106,366.329,449.254,363.389z"/>
<path style="fill:#A7ACB1;" d="M356.947,292.185c0.734-0.084,1.055-0.213,1.149-0.118c3.332,3.361,7.942,5.975,7.362,11.689
	c-0.063,0.624-2.325,1.734-2.543,1.529C359.149,301.75,358.027,297.04,356.947,292.185z"/>
<path style="fill:#8C98A5;" d="M759.757,587.299c-5.874,1.466-10.155,7.296-17.933,6.105c6.658-3.558,13.087-6.102,17.829-11.171
	C759.979,583.916,762.396,585.556,759.757,587.299z"/>
<path style="fill:#B7BABD;" d="M528.356,303.844c-0.137,2.574,0.4,5.988-3.005,5.954c-3.936-0.04-2.653-4.216-3.345-6.533
	c-0.803-2.689,1.945-4.265,3.858-4.333C529.305,298.811,527.802,302.105,528.356,303.844z"/>
<path style="fill:#B6B9BC;" d="M572.12,351.31c7.875,2.415,4.383,7.926,5.417,13.111C572.151,360.834,572.151,360.834,572.12,351.31
	z"/>
<path style="fill:#C0C1C3;" d="M382.69,317.785c-1.144,3.239-2.805,5.758-5.621,6.177c-2.041,0.304-3.214-2.187-2.971-4.064
	c0.322-2.486,1.69-4.92,4.503-5.18C380.673,314.527,381.832,316.335,382.69,317.785z"/>
<path style="fill:#A1A6AC;" d="M506.893,198.329c5.459,1.49,8.162,3.752,9.099,7.515c0.324,1.3-1.339,2.95-2.664,2.421
	C509.556,206.761,509.17,202.834,506.893,198.329z"/>
<path style="fill:#607082;" d="M263.898,629.797c3.588,3.11,7.697,5.349,12.458,7.212c-5.633,3.049-9.249-3.365-14.123-2.299
	C258.949,631.771,263.559,631.507,263.898,629.797z"/>
<path style="fill:#A6AAB0;" d="M525.116,281.022c0.646,1.643,0.853,1.899,0.815,2.112c-0.566,3.254,2.66,7.046-1.318,9.759
	c-0.496,0.338-2.048,0.161-2.18-0.16C520.815,288.8,522.988,285.678,525.116,281.022z"/>
<path style="fill:#697889;" d="M264.176,661.604c5.274,3.417,11.354,3.715,19.103,3.574c-6.971,3.945-12.46,0.907-17.756,1.703
	C262.835,665.693,264.181,663.476,264.176,661.604z"/>
<path style="fill:#ABAFB4;" d="M373.863,310.806c-1.31,2.353-2.036,4.737-4.22,4.668c-1.691-0.054-2.886-1.905-2.313-3.805
	c0.553-1.833,1.363-4.05,3.983-3.189C372.388,308.833,373.154,310.128,373.863,310.806z"/>
<path style="fill:#AFB2B7;" d="M335.191,453.096c-4.11,0.802-7.315-0.096-9.734-2.259c-1.086-0.971,0.822-2.517,2.072-2.904
	C331.99,446.553,332.794,450.444,335.191,453.096z"/>
<path style="fill:#989FA6;" d="M499.817,475.003c-1.757-0.58-3.531-1.69-3.042-3.396c0.659-2.301,3.216-2.709,5.332-2.798
	c1.732-0.073,2.26,1.359,1.74,2.873C503.196,473.579,502.025,475.017,499.817,475.003z"/>
<path style="fill:#5E6C7C;" d="M76.398,260.752c-0.51,0.555-1.02,1.111-1.53,1.666c-3.435-1.388-6.955-2.645-10.268-6.591
	C69.984,256.145,73.386,257.963,76.398,260.752z"/>
<path style="fill:#798490;" d="M923.631,265.889c-0.633-1.531-2.117-1.346-3.352-1.663c3.1-2.342,6.618-3.634,10.816-4.474
	C929.484,263.386,926.682,264.79,923.631,265.889z"/>
<path style="fill:#9199A2;" d="M923.782,227.158c-0.683-0.683-1.366-1.365-2.049-2.048c2.304-3.212,5.635-4.82,9.391-5.937
	C929.345,222.507,927.074,225.294,923.782,227.158z"/>
<path style="fill:#717D8A;" d="M462.283,382.508c2.329,3.239,3.191,6.825,2.732,11.095c-2.965-2.047-3.475-5.092-4.547-7.808
	C462.096,385.264,461.794,383.668,462.283,382.508z"/>
<path style="fill:#112B41;" d="M628.039,538.908c0.001,7.563-0.224,15.136,0.08,22.687c0.202,5.032-2.611,5.178-6.343,5.202
	c-3.654,0.023-5.731-0.693-5.681-5.043c0.179-15.685,0.211-31.375-0.014-47.058c-0.066-4.622,1.842-5.641,5.987-5.611
	c3.989,0.029,6.249,0.681,6.059,5.457C627.805,522.652,628.039,530.785,628.039,538.908z"/>
<path style="fill:#ACFD18;" d="M461.7,586.995c-18.532,1.429-18.532,1.429-18.532-17.11c0-26.723,0.164-53.447-0.123-80.167
	c-0.064-5.973,2.028-6.967,7.646-7.713c17.782-2.36,31.719,2.171,40.712,18.607c1.28,2.339,3.883,3.954,5.873,5.907
	c2.861,4.334,3.692,9.01,3.621,14.249c-0.267,19.673-0.274,39.355-0.002,59.028c0.077,5.598-1.175,7.99-7.393,7.897
	c-12.847-0.193-12.854,0.157-12.855-12.443c-0.001-20.239,0.077-40.479-0.09-60.717c-0.023-2.773,1.726-6.288-1.998-8.288
	c-4.633,3.021-9.273,3.038-13.92,0.032c-4.713,1.093-2.764,4.95-2.783,7.564C461.675,538.226,461.721,562.611,461.7,586.995z"/>
<path style="fill:#112945;" d="M464.64,506.279c4.64-0.011,9.28-0.021,13.92-0.032c1.443,8.959,0.583,17.98,0.61,26.966
	c0.116,38.018-0.077,76.037,0.165,114.054c0.038,5.947-1.008,8.325-7.705,8.287c-6.586-0.038-7.843-2.2-7.811-8.271
	c0.233-44.494,0.101-88.99,0.135-133.485C463.955,511.291,464.401,508.785,464.64,506.279z"/>
<path style="fill:#ADFD19;" d="M324.933,570.104c6.261,1.497,6.896-2.043,6.864-7.055c-0.15-23.94,0.305-47.891-0.276-71.819
	c-0.194-8.001,2.795-9.157,9.711-9.11c6.554,0.044,9.396,1.12,9.281,8.661c-0.478,31.539-0.279,63.087-0.328,94.632
	c-16.314,0.081-32.63,0.018-48.938,0.33c-4.96,0.095-6.93-1.208-6.891-6.565c0.221-30.1,0.338-60.205-0.036-90.302
	c-0.111-8.907,5.709-6.19,10.214-6.601c5.234-0.478,8.953-0.169,8.805,7.188c-0.462,23.059-0.169,46.133-0.168,69.202
	C313.172,570.621,313.174,570.621,324.933,570.104z"/>
<path style="fill:#153140;" d="M645.988,711.791c0-0.559-0.15-1.171,0.025-1.668c1.054-2.993-2.714-8.461,2.892-8.784
	c5.035-0.29,4.869,5.119,5.56,8.852c0.2,1.082,0.149,2.242,0.027,3.345c-0.452,4.08-0.109,9.944-5.255,9.941
	c-5.922-0.004-2.216-5.981-3.214-9.182C645.785,713.531,645.988,712.63,645.988,711.791z"/>
<path style="fill:#27493B;" d="M610.596,704.545c-0.295,2.081-1.058,4.077-3.493,3.794c-2.262-0.264-1.69-2.504-1.73-4.042
	c-0.042-1.608-0.234-3.679,2.146-3.758C610.125,700.452,610.627,702.383,610.596,704.545z"/>
<path style="fill:#2B4E3A;" d="M455.75,704.578c-0.18,2.091-0.988,4.044-3.296,3.897c-2.786-0.177-2.069-2.712-2.151-4.502
	c-0.08-1.727,0.251-3.547,2.436-3.467C455.145,700.593,455.781,702.446,455.75,704.578z"/>
<path style="fill:#17333F;" d="M562.869,712.301c0.829-4.543-1.069-11.066,4.187-11.063c5.47,0.003,4.55,6.507,4.53,10.767
	c-0.02,4.295,1.176,11.241-4.094,11.234C560.654,723.232,564.555,715.687,562.869,712.301z"/>
<path style="fill:#3B6535;" d="M410.271,706.24c1.517,3.158,3.571,5.629,1.674,8.712c-0.612,0.994-2.297,1.096-2.832,0.186
	C407.376,712.178,409.379,709.56,410.271,706.24z"/>
</svg>
