<?xml version="1.0" encoding="utf-8"?>
<!-- Generator: Adobe Illustrator 28.3.0, SVG Export Plug-In . SVG Version: 6.00 Build 0)  -->
<svg version="1.1" id="Layer_1" xmlns="http://www.w3.org/2000/svg" xmlns:xlink="http://www.w3.org/1999/xlink" x="0px" y="0px"
	 viewBox="0 0 1000 1000" style="enable-background:new 0 0 1000 1000;" xml:space="preserve">
<path style="fill:#F8FBFB;" d="M998.814,885.925c-1.79-12.164-9.594-23.83-7.841-35.139c6.709-43.284,0.532-86.676,3.44-129.864
	c1.157-17.19-4.148-27.187-22.16-28.282c-19.605-1.193-26.538-11.095-20.651-29.879c-3.164-6.725-1.635-13.878-1.57-20.799
	c0.704-75.429-1.942-150.881,1.556-226.289c-1.174-7.072-2.347-14.144-3.521-21.227c-8.829-1.22-9.37-9.499-12.707-15.22
	c-9.712-16.649-20.84-31.847-38.283-41.329c-51.301-27.885-102.791-55.439-153.647-84.116c-9.096-5.129-14.848-4.651-21.592,1.748
	c-6.232,2.43-5.247,10.883-11.293,14.328c-2.781-9.773,7.56-16.875,3.542-25.982c16-24.348,40.093-40.282,61.561-58.911
	c7.017-6.089,18.336-9.932,14.07-21.852c-3.836-10.721-15.458-9.413-24.431-11.335c-27.794-5.953-55.309-1.921-82.763,2.913
	c-8.281-0.011-15.551-1.595-17.589-11.278c-2.006-19.981-5.809-39.759-7.349-59.855c-0.659-8.594-1.56-17.862-9.307-24.069
	c-5.76-4.218-11.244-9.699-19.133-4.186c-15.168,14.309-30.335,28.618-45.503,42.927c-4.742-0.757-8.071,3.071-12.354,3.805
	C565.249,77.415,554.732,54,551.584,28.607c1.095-8.632-3.428-13.246-11.27-14.88c-9.053-1.887-15.532,1.95-21.538,8.926
	c-14.909,17.317-27.356,36.72-44.273,52.344c-5.034,3.462-5.688,10.1-10.028,14.116c3.304-5.403,0.016-9.516-2.413-13.754
	c-10.778-12.128-15.351-27.761-23.462-41.35c-5.295-8.87-10.671-20.102-24.179-18.507c-12.33,1.455-15.555,11.923-18.883,21.631
	c-4.773,13.921-12.108,26.645-18.207,39.944c-3.491,7.611-7.871,10.451-16.274,4.898c-13.834-9.142-28.923-16.559-44.578-21.675
	c-19.457-6.359-39.501-16.107-60.062-2.444c-11.503,10.508-6.134,19.146,3.164,27.132c26.907,23.11,44.292,52.512,56.718,85.275
	c2.537,5.315,4.122,10.401-3.06,13.423c-30.456,13.345-31.925,21.378-8.984,46.462c9.378,10.254,15.176,21.019,9.646,36.302
	c-3.993,11.037-6.717,23.587,0.72,35.127c7.394,7.328,7.52,17.696,11.221,26.589c5.417,7.476-1.998,11.773-4.22,17.361
	c-6.855,11.251-5.05,24.998-10.537,36.642c-12.521,12.77-10.486,23.595,2.292,35.683c8.865,8.386,22.719,16.15,21.321,29.885
	c-1.339,13.155,2.721,22.201,10.608,31.009c3.759,4.198,5.642,8.56,2.15,13.745c-3.957,5.874-8.967,3.246-13.603,1.28
	c-31.339-13.287-76.765,11.585-80.016,53.427c-0.817,10.522-5.772,15.926-13.116,21.412c-26.028,19.442-52.143,38.784-77.753,58.768
	c-43.698,34.099-86.592,69.51-145.011,75.129c-1.224,0.118-2.352,1.016-3.583,1.302c-10.364,2.408-14.466,9.034-14.329,19.48
	c0.302,22.983,0.464,45.98-0.037,68.956c-0.17,7.77,3.371,13.317,7.265,19.121c4.595,4.488,9.374,9.452,7.424,16.299
	c-4.386,15.396,8.284,34.142-9.195,46.884c-6.032,4.874-4.681,11.956-5.474,18.394c0.007,9.981,0.014,19.961,0.021,29.942
	c4.186,19.187-1.544,38.895,3.05,58.06c6.852,6.355,13.894,2.708,21.169,0.774c12.065-3.208,24.295-5.795,36.456-8.643
	c71.565-20.984,144.547-34.661,218.678-42.435c10.461-4.02,22.399-6.066,19.871-22.421c-1.268-8.208,6.31-7.721,12.075-8.159
	c20.291-1.542,40.56-3.378,60.856-4.839c53.346-3.842,106.726-7.516,160.244-5.868c12.542,0.386,25.725,6.482,31.704-11.166
	c1.547-4.568,5.19-1.87,7.625-0.079c32.909,24.207,72.286,16.674,108.94,21.314c28.751,3.64,29.68,1.561,28.893,29.903
	c-0.355,12.792,3.508,20.831,15.695,24.626c24.911,0.031,49.12,4.779,73.13,10.877c34.227-3.113,62.432,19.219,96.09,21.563
	C962.659,991.136,1008.027,948.535,998.814,885.925z M855.917,592.997c-3.918-4.971-7.836-9.942-11.754-14.912
	c-0.004-0.003-0.004-0.007-0.008-0.01c-23.095-23.309-41.644-50.406-62.832-75.298c-8.779-10.314-16.123-23.48-33.047-21.633
	c-4.44,0.186-8.883,0.32-13.32,0.567c-14.282,0.794-26.774,3.683-23.221-20.387c2.458-16.651-6.21-34.59-16.839-49.465
	c-5.533-7.744-11.122-15.458-16.368-23.395c-19.269-29.157-19.219-29.19,12.297-44.896v0c3.835-9.615-6.017-25.993,15.032-27.362
	c-0.371,16.08-7.328,30.814-11.544,46.15c-2.379,15.35,4.875,22.035,19.265,27.262c43.144,15.673,85.724,32.947,128.224,50.33
	c22.117,9.046,24.275,30.444,25.225,49.88c1.496,30.588,0.043,61.321-0.162,91.993c0,0,0,0,0.001,0
	c0.303,6.596,0.608,13.191,0.926,20.076C860.195,601.954,858.886,596.474,855.917,592.997z"/>
<path style="fill:#0F284A;" d="M949.857,700.071c1.275,0.02,2.595-0.172,3.817,0.091c28.514,6.134,28.491,6.143,28.49,35.122
	c-0.001,29.438-0.572,58.896,0.371,88.305c0.387,12.066-2.135,17.023-18.423,9.233c16.796,24.764,25.878,47.138,24.017,72.881
	c-2.697,37.319-26.787,63.137-63.891,67.55c-21.859,2.6-44.536,3.333-64.278-6.095c-38.701-18.481-80.823-17.234-121.388-24.554
	c-13.303-2.401-18.214-5.776-17.659-20.012c1.22-31.298,0.355-31.155-30.373-33.979c-21.394-1.966-42.517-4.903-64.288-4.526
	c-28.984,0.501-52.233-14.504-70.834-36.395c-1.155,0.836-2.826,1.449-2.87,2.163c-1.756,28.341-1.813,29.483-29.892,27.606
	c-20.204-1.351-41.734,7.561-60.593-6.471c-24.774,18.346-53.669,6.167-80.402,10.526c-27.069,4.414-54.667,5.784-82.087,7.738
	c-9.825,0.7-14.245,4.325-12.534,14.159c2.035,11.696-5.472,13.82-14.426,14.949c-83.226,10.495-165.092,27.713-245.767,50.533
	c-11.306,3.198-14.748,0.868-14.183-10.83c0.801-16.603,0.237-33.269,0.4-49.907c0.096-9.815-3.043-21.075,12.172-23.659
	c5.857-0.995,4.165-7.155,4.189-11.335c0.124-21.758-0.052-43.517,0.034-65.275c0.026-6.703,0.961-13.048-9.69-10.777
	c-8.637,1.842-6.605-5.398-6.627-10.073c-0.093-19.836,0.541-39.696-0.269-59.499c-0.357-8.728,2.217-13.324,10.601-14.82
	c1.259-0.225,2.494-0.616,3.76-0.773c52.346-6.493,93.017-35.36,132.449-67.565c29.706-24.262,60.839-46.805,91.759-69.537
	c8.785-6.459,13.221-12.743,14.065-24.644c2.554-35.984,38.516-56.756,71.494-43.303c4.642,1.894,9.784,10.495,14.649,3.499
	c5.962-8.574,15.323-20.263,10.005-29.17c-8.225-13.775-15.521-25.193-14.891-42.933c0.312-8.768-13.839-18.813-22.682-26.936
	c-9.434-8.666-11.858-15.42-0.136-23.942c6.836-4.97,11.752-11.61,9.571-21.346c-1.942-8.669,4.953-14.162,8.902-20.435
	c5.782-9.185,13.992-17.618-1.181-25.87c-5.062-2.753-3.067-7.547-1.472-11.93c2.839-7.801,5.352-15.72,8.025-23.661
	c-7.051-5.219-13.029,4.637-19.902,1.079c-0.298-1.011-1.241-2.408-0.881-3.243c10.837-25.093,10.97-47.68-13.685-65.564
	c-9.797-7.106-8.034-11.633,3.503-16.173c26.045-10.25,25.783-10.893,15.571-36.436c-7.131-17.837-15.73-34.91-25.8-51.29
	c-9.989-16.248-23.988-29.003-40.939-44.811c35.606,0.493,62.031,13.479,87.081,29.943c26.547,17.449,26.316,17.672,39.014-11.216
	c7.708-17.536,15.654-34.966,25.11-56.046c16.669,29.29,32.113,56.429,48.42,85.083c24.093-30.137,46.773-58.506,71.295-89.18
	c10.612,35.883,20.479,69.249,31.865,107.752c22.402-25.239,42.178-47.518,61.953-69.797c2.221,1.095,4.441,2.191,6.662,3.286
	c5.027,30.279,11.174,60.43,14.642,90.886c1.948,17.109,6.183,18.93,22.081,12.786c33.319-12.876,67.96-12.875,104.996-3.916
	c-20.416,18.452-42.275,31.064-58.719,49.892c-5.464,6.256-11.038,12.461-15.971,19.127c-24.223,32.736-24.079,33.5,7.568,59.351
	c-8.305,5.254-16.141,10.111-23.87,15.132c-6.636,4.311-15.734,7.034-9.573,18.559c3.406,6.372-2.12,8.778-7.129,10.844
	c-7.641,3.151-15.169,6.577-22.745,9.887c-2.335-0.521-4.766-0.289-7.056-1.441c-1.5-0.754-2.982-9.731-5.166-0.319
	c-9.615-1.881-16.884-9.774-26.903-10.447c-6.464,0.4-1.714,7.828-5.958,9.612c-8.628,1.64-8.328-5.652-9.884-10.422
	c-2.548-7.809-6.083-13.705-15.561-12.342c-9.298,5.251-1.34,17.753-9.8,23.288c-11.943-2.365-8.914-12.419-9.251-19.776
	c-0.509-11.108-4.715-18.098-15.92-20.156c-3.863-1.724-8.283-0.912-12.184-2.546c-10.437-6.225-14.983-1.591-16.875,8.824
	c-4.429,24.381,1.439,46.684,13.634,67.614c7.048,12.097,16.066,22.88,24.019,34.375c4.149,5.997,10.612,11.847,4.94,20.418
	c-6.137,3.133-11.49,0.849-16.729-2.32c-21.172-24.699-40.885-50.222-47.734-83.216c-2.218-10.685-4.26-21.598-1.699-32.113
	c7.363-30.226-1.977-29.158-26.206-31.958c-4.931-0.817-9.43-2.712-13.613-5.379c-23.014-10.188-46.577-7.655-70.174-2.974
	c-15.049,16.09-16.311,22.762-4.839,39.383c5.639,8.17,5.991,14.218-0.857,21.734c-16.437,18.042-18.579,41.857-24.553,64.009
	c12.562,12.751,24.211,1.153,39.133-0.111c-6.662-8.367-19.311-10.828-13.845-23.1c3.591-8.061,4.373-17.337,10.398-24.423
	c10.97-3.114,9.033,5.794,10.664,11.398c0.408,3.949-2.078,8.259,4.753,10.432c8.724,2.775,14.591,10.258,19.653,17.658
	c4.839,7.075,5.16,13.807-5.668,14.909c-10.788,1.098-16.138,9.632-23.418,15.566c-5.194,3.445-12.131,4.179-15.675,10.101
	c1.753,10.937,8.981,4.477,13.732,4.049c18.873-1.701,35.821,10.664,36.278,26.971c-13.124,6.006-23.438-9.851-37.175-4.262
	c7.284,19.09-3.488,35.395-9.823,52.163c-6.738,17.835-19.721,30.767-37.56,38.335c-6.522,1.905-13.058,3.755-19.986,2.618
	c-2.552,0.194-0.29,2.312,0.107,2.139c7.476-3.261,16.353-1.644,23.431-6.661c11.404-4.745,20.557-12.336,28.447-21.741
	c3.271-3.899,7.975-8.808,12.923-5.737c6.241,3.874,2.837,10.44,0.234,15.458c-10.698,20.626-28.329,32.857-50.307,38.279
	c-17.491,4.315-32.665-4.28-37.033-19.033c-4.57-15.433,2.262-26.451,21.046-34.643c-13.473,3.573-26.867,7.313-30.112,23.947
	c-4.274,21.912,12.005,38.966,36.452,37.928c23.371-0.993,41.34-12.513,55.336-30.376c9.464-12.079,17.686-25.044,23.354-39.518
	c2.974-7.594,5.034-16.074,13.38-20.257c6.078,0.814,7.102,5.546,8.075,10.328c-3.307,34.186-23.654,58.159-44.453,77.624
	c22.365-12.397,37.421-35.05,45.924-62.878c1.975-6.463,2.879-14.054,10.479-17.342c5.611,1.482,6.62,6.123,7.516,10.849
	c-0.033,21.603-7.673,40.541-18.357,54.888c14.789-16.751,22.254-40.169,26.492-65.058c0.978-5.746,0.552-15.272,8.745-14.162
	c7.033,0.952,6.109,10.112,6.393,16.295c0.671,14.582-2.254,28.567-7.799,41.818c11.741-16.562,16.045-35.493,16.46-55.698
	c0.114-5.557,0.085-13.721,6.505-14.312c7.771-0.716,8.695,7.93,10.353,13.856c2.088,7.465,1.299,15.106-0.177,22.739
	c2.46-6.635,1.267-14.754,8.638-19.079c13.573,1.758,15.459,11.748,16.051,22.659c2.252,19.003-8.802,30.824-22.831,40.367
	c-9.391,6.388-18.515,13.012-27.056,20.458c-6.82,4.868-16.751,1.752-22.694,8.896c-5.042,3.954-9.909,8.192-16.135,10.257
	c-9.621,7.726-21.506,5.343-32.509,6.971c22.526-3.899,45.608-0.091,68-5.101c14.772-3.688,27.019-12.758,40.603-18.991
	c4.916-1.122,9.631-0.88,13.919,2.084c3.376,9.658-2.905,11.094-7.594,12.372c23.828,2.787,50.181,6.979,75.589-5.149
	c2.573,0.695,4.557,2.307,6.382,4.128c4.918,4.864,11.336,0.938,16.797,2.768c17.533,8.252,37.626,0.424,55.107,8.819
	c0.613,12.355-16.244,23.473-30.764,18.748c-8.012-2.608-15.687-3.749-23.836-3.433c-10.26,0.02-19.003,5.923-28.86,7.522
	c-6.24,0.402-6.515-10.733-14.353-7.321c-19.696,0.607-39.33,0.036-58.953-0.263c-5.913-0.342-11.691,1.494-17.595,1.268
	c-12.329-1.787-20.121,0.521-11.612,14.669c4.992,8.301,4.314,23.128,16.446,23.34c10.96,0.192,11.521-13.619,16.2-21.568
	c2.261-3.841,3.954-8.027,7.418-11.066c13.99-7.44,16.855,2.411,17.162,12.364c0.351,11.379,1.684,22.108,7.41,32.041
	c-1.668,4.172-6.192,1.522-11.72,5.503c14.021-6.205,26.396-4.438,37.271-9.503c1.641-0.927,3.35-1.644,5.11-2.284
	c4.556-1.489,9.209-1.766,13.924-1.242c4.402,0.495,8.743,1.513,13.222,1.629c23.457,0.605,23.456,0.625,28.87-22.475
	c3.675-8.309,7.897-15.918,18.957-14.588c11.479,10.184,0.336,21.104,0.972,32.626c22.286-10.665,35.26,15.731,55.675,13.294
	c22.329,9.554,41.971,4.408,59.806-10.849c26.096-4.374,51.973-10.952,78.527-1.298c7.775,2.827,15.995,3.878,21.748,10.562
	c2.006,2.274,3.535,4.859,4.697,7.631c3.247,6.566,10.602,9.988,15.723,8.515C910.879,683.849,930.356,691.151,949.857,700.071z"/>
<path style="fill:#0F284A;" d="M877.654,474.606c-5.797-27.549-21.406-44.513-49.086-53.603
	c-37.515-12.32-73.665-28.74-110.762-42.422c-9.923-3.66-12.43-7.117-9.466-17.687c9.07-32.346,16.789-65.072,25.366-98.963
	c55.273,30.397,109.602,58.729,162.285,89.846c29.975,17.704,40.508,49.021,40.83,82.222c0.836,86.236,0.12,172.488,0.023,258.734
	c-9.184,0.56-11.502-6.59-12.478-12.967c-1.163-7.6-4.746-13.926-7.623-20.705c-2.983-66.342-0.536-132.719-1.328-199.075
	c-0.174-14.628,1.122-29.378-3.876-43.514c-3.925-14.484-8.01-29.105-20.277-39.13c-5.156-4.214-10.361-12.264-18.618-4.16
	c-0.976,2.343-2.075,4.595-3.317,6.783c-5.558,6.738-4.32,14.55-3.478,22.291c0.896,8.099,5.507,14.102,11.063,19.481
	c8.254,7.992,12.297,17.547,11.4,29.115C886.371,459.51,893.181,472.083,877.654,474.606z"/>
<path style="fill:#122541;" d="M636.445,348.38c5.964-13.189,7.631,3.208,11.894,1.727c3.337,22.933,17.379,40.538,30.057,58.555
	c17.81,25.311,27.318,51.882,15.944,86.306c42.401-8.775,77.309-1.465,96.459,40.09c0.435,9.59-6.411,10.093-13.24,10.64
	c-5.241-1.012-9.913-3.739-12.513-8.054c-18.458-30.629-49.827-29.18-74.383-19.678c-35.02,13.55-69.605,10.627-104.716,12.158
	c-7.226-1.47-14.236,0.514-21.316,1.457c-2.081,0.136-4.139-0.038-6.182-0.41c-14.65-3.61-31.593,2.379-44.059-10.432
	c0.524-9.857-1.538-18.503-11.074-23.651c-15.336-8.947-10.198-22.977-9.012-36.047c12.668-26.37,25.215-34.453,45.853-29.583
	c5.429,1.378,10.857,2.756,16.286,4.135c6.652,1.489,9.843,5.93,10.631,12.432c-0.335,4.121-1.736,7.422-6.401,8.146
	c-1.27-0.132-2.562-0.333-3.68-0.926c-18.271-9.697-28.884-8.962-36.952,2.597c-8.764,12.557-5.383,34.061,6.838,43.495
	c11.414,8.812,32.449,7.475,42.245-3.69c11.168-12.728,16.503-27.299,9.328-44.201c-4.989-19.61-17.936-34.805-28.338-51.399
	c-14.293-22.801-26.242-46.511-26.204-74.267c0.012-8.574-1.172-18.328,9.559-22.687c2.979-1.092,6.141-3.327,8.2,1.315
	c3.044,2.743,4.567,6.435,4.48,10.259c-0.807,35.339,16.215,63.437,35.48,91.107c19.449,27.933,30.618,57.816,13.437,91.456
	c-0.768,1.684-2.907,3.666-2.488,4.805c0.821,2.231,2.635,0.043,3.583-0.587c18.599-12.363,23.559-34.691,13.355-59.885
	c-10.184-24.77-29.459-44.294-39.753-68.958c-3.536-8.473-9.977-16.877-2.294-26.401c0.142-7.927,0.328-15.854,0.412-23.782
	c0.061-5.793,3.38-5.39,7.304-3.991c2.182,1.463,4.21,3.394,4.447,5.937c3.412,36.637,26.049,64.256,43.885,94.151
	c12.49,20.934,19.709,42.814,10.516,67.191c-1.663,5.426-5.143,10.167-6.246,15.943c22.356-13.187,27.494-32.164,16.287-60.059
	c-10.189-24.823-29.518-44.376-39.813-69.095c-3.533-8.483-9.987-16.926-2.162-26.421c0-6.307,0-12.614,0-19.056
	c6.041-0.889,3.945,5.837,7.469,6.764c1.197,0.519,2.71,1.088,3.045,2.168c10.56,34.065,34.44,60.796,50.453,91.836
	c11.772,22.818,12.652,46.309,0.978,71.235c19.486-16.479,22.882-40.881,10.276-66.287c-9.944-20.041-25.519-36.801-34.075-57.609
	C636.511,368.047,629.671,359.001,636.445,348.38z"/>
<path style="fill:#162747;" d="M778.159,543.51c4.213-2.817,8.426-5.635,12.639-8.452c28.626,33.784,57.252,67.568,89.276,105.363
	c-1.736-58.38,1.772-112.092-2.42-165.815c9.358-8.067,3.054-19.279,5.762-28.682c20.836,6.188,19.291,25.094,19.903,40.057
	c1.637,40.018,0.155,80.147,0.713,120.221c0.326,23.444-2.606,47.008,1.971,70.221c3.712,3.94,6.936,5.088,9.148-1.432
	c1.537-4.53,1.446-9.857,6.145-12.886c7.772,1.097,7.49,6.979,7.567,12.681c0.097,7.113,1.864,13.503,7.981,17.948
	c4.335,2.445,8.67,4.89,13.009,7.336c-8.107,0.407-15.606,0.843-23.278-4.542c-7.329-5.144-17.828-4.959-25.316-0.632
	c-15.718,9.083-24.291-0.655-33.649-10.06c5.854-5.39,15.241-10.022,4.047-19.03c-25.211-26.63-47.484-55.761-71.453-83.336
	c-13.59,15.701-27.888,30.914-26.564,53.86c-0.506,11.317,2.643,23.229-5.488,33.252c-12.796,20.748-33.352,15.412-52.283,15.568
	c-4.933,0.041-8.645-1.509-9.62-6.919c0.462-0.757,0.924-1.513,1.377-2.278c6.226-4.404,13.081-3.084,19.957-2.349
	c18.69,1.998,20.035,0.697,20.031-18.512c-0.094-2.685,0.18-5.335,0.623-7.963c2.576-18.39-13.427-14.083-21.825-15.989
	c-11.76-2.669-14.496,7.056-14.717,16.899c-0.162,3.748-0.12,7.488-0.332,11.23c-0.185,3.91-1.191,7.533-3.652,10.642
	c-9.502,5.525-14.014-1.125-18.226-7.766c-3.102-4.89-4.021-10.712-5.89-16.13c-6.463-18.727-12.048-21.27-31.45-14.52
	c-7.89,2.21-12.888,7.304-15.116,15.159c-6.461,5.837-13.628,6.451-21.357,2.914c-2.822-1.741-3.934-4.353-3.763-7.567
	c1.117-6.986,10.656-3.888,12.417-10.241c-0.953-8.992-14.586-5.468-14.871-15.057c10.309-0.102,21.293-4.005,29.927,5.317
	c7.766-7.966,22.235-1.433,28.298-13.081c0.074-4.977,3.23-7.979,6.806-10.711c4.631-2.838,10.114-4.683,12.239-10.393
	c-4.583-8.669-12.541-3.785-18.82-4.438c-20.142-2.096-40.765,3.451-60.649-3.692c-4.685-13.201,6.027-14.084,13.419-14.495
	c28.012-1.56,56.125-1.928,84.133-0.165c14.162,0.891,16.189,5.996,9.831,19c-3.339,6.83-8.936,12.457-11.291,21.771
	c6.948-2.068,9.77-8.273,15.007-10.632c9.546-4.301,19.111-9.155,26.919,2.733c5.872,8.941,11.57,6.081,16.533-0.525
	C773.763,581.476,784.423,565.017,778.159,543.51z"/>
<path style="fill:#FAB817;" d="M951.898,938.093c-29.403,28.646-92.853,14.383-123.314-10.608
	c-6.801-5.58-13.01-11.882-19.76-18.099c-5.703,3.408-2.325,10.825-6.621,14.584c-3.704-2.311-4.735-6.135-5.653-9.789
	c-3.606,3.47-2.149,11.281-9.72,11.002c-6.715-0.67-13.632,1.476-20.096-1.705c-6.949-0.184-13.898-0.369-20.848-0.553
	c-2.066-0.335-3.103-1.505-2.953-3.639c0.384-21.548,0.768-43.096,1.152-64.645c2.226-2.306,4.695-4.243,7.821-5.19
	c8.183-1.575,16.349-0.85,24.502,0.244c9.474,2.35,17.348,7.062,21.9,16.048c6.59,13.01,17.876,20.463,30.536,26.344
	c7.387,5.583,15.551,5.315,23.966,3.089c8.35-1.452,19.393,2.689,21.927-10.697c7.436-15.017-3.49-21.148-13.688-26.661
	c-22.394-12.106-45.917-22.283-67.613-35.49c-40.178-24.459-53.735-58.707-41.308-98.66c6.814-8.228,13.669-16.403,24.596-19.476
	c2.981-0.929,6.047-1.218,9.147-1.362c14.918-0.246,29.825-0.178,44.731-0.094c16.63,1.247,30.117,8.188,39.827,21.984
	c-0.407,8.508,17.599,19.227-2.957,25.403c-12.138-2.536-25.038-9.934-34.375,5.39c-2.2,1.458-4.176,3.165-5.802,5.263
	c-6.623,12.525,0.754,20.349,9.443,27.466c13.356,10.94,29.279,17.634,44.113,26.13c17.089,9.787,33.933,19.889,47.965,34.012
	c21.868,22.009,33.593,47.44,27.175,79.14C955.386,931.345,954.464,935.038,951.898,938.093z"/>
<path style="fill:#F9B916;" d="M357.63,124.246c1.709,0.815,3.629,1.356,5.094,2.486c22.835,17.613,22.899,17.666,34.911-8.839
	c6.551-14.455,12.788-29.053,20.175-45.884c16.587,18.2,22.868,40.298,34.744,58.879c9.206,14.404,13.874,13.142,23.052,0.817
	c16.28-21.864,33.814-42.795,53.462-67.425c8.613,29.512,16.166,55.525,23.818,81.509c1.576,5.35,1.18,12.968,6.502,15.02
	c6.33,2.44,9.374-5.331,13.281-8.981c13.961-13.045,27.422-26.629,40.962-40.12c8.573-8.541,12.702-5.62,14.266,5.133
	c3.396,23.357,6.932,46.695,10.273,70.06c1.934,13.526,5.665,18.998,20.917,10.905c20.512-10.884,43.126-16.871,70.66-15.948
	c-13.308,14.335-22.833,27.43-39.487,30.477c-16.177,2.96-20.222,12.538-18.108,27.189c0.63,4.368,0.513,8.995-0.155,13.367
	c-1.314,8.598-5.112,12.784-14.343,7.497c-52.465-30.05-107.833-52.973-166.675-67.254c-11.153-6.064-23.904-3.81-35.639-6.846
	c-27.286-0.01-54.599-0.732-81.849,0.266c-13.917,0.51-17.476-6.136-14.415-17.055c4.579-16.335,0.031-28.058-14.052-36.693
	C341.642,118.785,349.823,121.791,357.63,124.246z"/>
<path style="fill:#F8FBFB;" d="M499.642,459.66c-1.762,12.767-4.775,25.658,3.673,37.424c0.264,13.897-4.317,25.762-16.03,38.455
	c0.964-20.971,7.366-39.054-2.989-56.823c0.286,33.363-3.921,64.767-36.605,90.431c11.833-28.071,20.383-51.636,14.352-77.798
	c-4.743,37.751-13.615,73.104-49.933,93.5c15.242-20.236,27.46-41.721,30.025-67.591c1.481-12.765-2.697-25.633,0.573-35.017
	c-0.246,5.636-0.177,14.699-4.722,22.911c-6.804,33.72-20.449,63.12-51.428,81.625c-7.524,4.494-15.06,8.635-24.622,4.98
	c30.383-20.421,52.693-46.22,60.432-82.626c4.233-6.579-1.826-13.843,1.634-21.228c-2.31,3.467-2.664,7.221-5.553,9.435
	c-11.229,31.655-24.684,61.932-53.575,81.959c-17.824,12.355-37.472,16.094-58.37,9.636c-14.387-4.445-21.596-15.223-23.139-29.885
	c-1.545-14.681,3.218-26.783,16.52-33.942c12.808-6.894,25.581-7.16,37.249,3.651c-5.03,4.982-9.64-1.25-14.403,0.239
	c-11.992,3.748-21.037,9.994-20.223,24.109c0.795,13.793,8.927,20.48,22.365,21.239c23.834,1.346,52.126-20.55,61.333-49.319
	c-12.022,11.991-22.111,26.685-40.017,30.45c-4.639,1.478-5.81-0.692-5.096-4.844c31.746-16.305,37.353-48.956,47.865-79.62
	c-3.676-3.8-12.873,1.65-16.477-5.928c18.214-19.607,35.897-3.774,53.786,1.183c2.489-9.17,8.338-15.537,16.545-19.955
	c4.235-3.741,8.878-7.072,12.925-13.083c-27.135,22.452-46.014-5.885-68.556-8.674c10.694-7.323,14.406-27.234,34.961-18.116
	c-10.311-9.3-13.745-23.843-29.066-26.452c-5.033-0.857-1.902-6.199-1.215-9.641c1.379-1.19,2.961-1.927,4.774-2.177
	c13.821-0.165,26.134,4.487,37.127,10.861c-2.4-3.624-7.94-4.355-11.849-7.496c-7.006-5.628-7.295-11.485-1.021-17.721
	c9.092-9.038,19.218-16.717,30.511-22.866c4.513-1.972,9.103-3.163,13.984-1.452c10.121,6.528,6.886,15.56,3.681,23.822
	c-3.932,10.136-3.7,18.233,6.118,24.989c9.349,6.433,9.253,16.144,6.794,25.884c-4.267,16.899-6.872,32.864,13.388,42.17
	C500.502,448.721,501.554,454.14,499.642,459.66z"/>
<path style="fill:#991B1E;" d="M468.344,208.533c36.619,4.091,70.883,16.58,104.362,30.899c17.86,7.639,36.825,12.592,53.696,22.806
	c12.524,7.582,23.647,17.236,37.696,22.77c8.882,3.499,8.942,11.074,0.701,17.752c-4,3.242-12.61,0.888-12.067,9.674
	c1.574,15.013-0.203,16.357-15.936,12.055c-48.125-24.257-97.832-44.451-150.025-58.206c-6.064-1.598-12.298-2.552-18.454-3.805
	c-9.505-6.436-21.479-1.606-31.246-6.848c-22.697,0.114-45.395,0.228-68.092,0.341c-14.84,1.036-12.75-6.819-8.346-15.889
	c2.488-0.314,4.976-0.628,7.464-0.942c8.538-4.876,17.795-5.992,27.496-6.072c40.013-0.329,79.414,3.219,117.352,17.046
	c3.628,1.322,7.518,1.066,11.231,1.61c9.549,7.642,22.828,5.798,36.111,14.641c-12.146-9.543-25.35-6.195-33.907-14.343
	c-14.214,0.157-26.987-6.4-40.346-9.606c-39.004-9.358-78.058-13.362-117.945-10.438c-25.994-0.15-29.862-4.042-23.131-23.277
	c9.307-7.46,22.002,0.503,31.325-6.882c17.689,0.029,35.377,0.058,53.066,0.087C441.472,209.261,456.242,201.043,468.344,208.533z"
	/>
<path style="fill:#F6F7F8;" d="M778.159,543.51c12.67,12.2,12.041,24.555,1.164,37.724c-4.432,5.365-7.261,12.022-11.281,17.768
	c-4.444,6.352-5.945,15.556-17.613,14.457c-13.556-1.277-6.652-13.273-12.069-19.578c-8.897,3.632-21.091,0.686-25.005,15.511
	c-0.95,3.599-11.124,11.454-16.995,7.075c-6.181-4.611-2.523-12.427,2.14-18.64c6.005-8,11.129-16.66,18.466-27.827
	c-35.947,0-68.845-0.015-101.743,0.016c-5.068,0.005-8.057,3.223-10.449,7.208c-0.446,9.11-5.061,13.943-14.35,13.979
	c-13.432,16.964-32.259,11.335-49.586,11.716c-11.903,0.262-23.816,0.05-39.934,0.05c9.299-8.111,14.863-12.964,20.426-17.816
	c0.141-1.268,0.164-2.806,1.013-3.573c20.781-18.77,37.061-42.346,61.281-57.44c21.099,0.1,42.205,0.547,63.293,0.101
	c6.86-0.145,15.414-0.487,20.207-4.397c23.207-18.932,50.162-9.013,75.438-11.512c8.913-0.881,11.385,6.927,15.805,12.014
	C765.027,528.011,771.568,535.783,778.159,543.51z"/>
<path style="fill:#F8B818;" d="M384.197,860.529c-5.901,2.464-11.061-0.4-16.359-2.275c-3.122-3.372-3.224-7.18-1.643-11.235
	c5.008-6.83,15.429-9.527,15.45-20.221c-0.014-25.982-0.782-51.966,0.331-77.869c0.529-12.302-2.753-20.522-13.847-25.546
	c3.163-7.355-7.985-19.134,7.055-22.816c2.131,1.553,3.957,3.425,5.686,5.395c6.212,6.962,14.58,5.362,21.521,3.449
	c16.57-4.567,26.693,2.946,35.709,15.327c15.416,21.169,29.247,43.401,44.241,64.846c0.601,0.859,1.167,1.4,1.302,1.376
	c2.743-0.495,1.578-2.878,2.094-4.535c0.25-3.754,1.266-7.127,3.815-9.899c0.555-12.737,1.26-25.47,1.605-38.213
	c0.188-6.929,1.192-13.677-9.893-14.42c-9.967-0.668-4.518-9.786-5.44-15.325c1.477-2.272,3.659-2.872,6.21-2.639
	c1.599,0.357,3.102,0.956,4.545,1.736c1.429,0.824,2.887,1.579,4.422,2.192c11.979,2.064,24.288-1.011,36.168,2.403
	c2.576,0.953,4.727,2.493,6.425,4.645c0.954,1.49,1.543,3.125,1.75,4.887c-0.085,3.523-1.525,6.515-3.716,9.184
	c-1.134,1.107-2.508,1.848-4.02,2.301c-2.139,0.454-4.35,0.767-6.259,2.078c-0.765,1.533-1.286,3.044-1.506,4.742
	c-1.019,31.714,1.201,63.38-1.153,94.995c-3.885,6.782-3.063,16.03-10.799,20.823c-10.179-0.8-20.61,2.342-30.557-1.983
	c-15.992-24.136-31.984-48.271-47.977-72.407c-3.195-10.145-10.81-1.443-15.772-3.636c-3.218,19.926-1.808,39.806-0.301,59.654
	c2.949,5.158,11.532,6.482,10.036,14.671C411.55,860.985,396.535,854.447,384.197,860.529z"/>
<path style="fill:#F9BA18;" d="M45.234,769.731c-2.09-0.186-4.181-0.372-6.271-0.558c-5.637-20.172-5.637-20.172,20.09-33.35
	c13.29-7.946,28.281-9.665,43.174-11.652c8.542-1.14,15.063,0.961,15.879,11.067c0.358,7.647-6.219,12.351-8.103,19.039
	c-0.714,1.699-1.649,3.302-2.709,4.798c-4.994,17.857-1.837,36.022-1.922,54.001c1.078,2.027,2.828,3.402,4.757,4.623
	c0.619,0.487,1.192,0.998,1.802,1.523c0.856,1.456,1.275,3.01,1.369,4.688c-4.347,8.264-3.353,16.002,2.183,23.318
	c0.107,1.151-0.222,2.16-0.989,3.025c-2.026,3.002-3.465,6.396-5.99,9.063c-4.688,14.048-9.048,27.815,5.688,39.31
	c5.423,4.231,6.094,10.878,4.936,17.54c-0.771,2.946-2.626,5.173-4.733,7.233c-22.189,5.741-44.492,11.083-66.517,17.393
	c-10.922,3.129-13.938-0.957-13.416-10.919c0.571-10.897-4.334-23.744,10.893-29.129c1.509-1.576,2.635-3.39,3.376-5.444
	c1.166-40.085,1.133-80.167,0.015-120.245C47.98,773.015,46.81,771.239,45.234,769.731z"/>
<path style="fill:#F9B818;" d="M668.392,854.678c-19.304,5.732-38.364,12.127-58.994,5.252
	c-46.142-15.377-68.507-73.248-45.994-120.74c2.64-5.57,4.13-12.276,10.222-15.769c6.87-4.064,13.516-8.537,20.992-11.569
	c8.947-2.156,18.027-1.548,27.094-1.494c13.637-0.079,26.38,1.74,33.53,15.581c1.568,5.325,0.987,10.213-3.044,14.343
	c-13.103,6.456-29.007,8.89-35.795,24.603c-3.444,2.781-10.735,0.609-10.447,8.223c-2.849,16.88-5.592,33.585,5.792,48.831
	c11.514,15.419,24.783,17.695,41.911,6.7c0.9-2.348,1.416-4.81,2.148-7.186c1.003-12.646-16.198-23.15-4.412-37.056
	c3.354-2.163,6.577-1.724,9.718,0.457c3.089,2.657,5.112,6.52,9.164,8.106c5.257,3,11.439,2.23,16.973,4.125
	c7.626,3.053,16.615,3.994,20.382,13.071c0.25,1.992,0.024,3.921-0.627,5.811c-3.57,7.21-3.743,14.855-2.166,22.446
	c2.077,10,2.813,21.122-7.958,24.674C687.224,866.271,675.149,866.611,668.392,854.678z"/>
<path style="fill:#BDC0C3;" d="M499.642,459.66c-1.131-2.26-1.796-6.045-3.463-6.555c-30.707-9.395-25.286-31.732-19.041-53.761
	c2.542-8.967,1.503-15.237-7.527-18.452c-13.633-4.854-11.65-13.859-7.771-24.405c2.858-7.771,10.872-15.515,2.243-24.489
	c-3.02-3.092-7.98-3.344-10.535-7.134c-2.984-7.692-14.441-10.217-12.775-20.781c8.661-6.555,13.34-17.324,23.509-22.301
	c3.158,0.044,6.38-0.305,9.464,0.194c27.242,4.406,26.946,4.411,23.312,31.168c-3.92,28.861,0.838,55.747,18.31,80.036
	c8.856,12.311,19.148,23.831,24.79,38.275C520.399,431.878,507.619,442.321,499.642,459.66z"/>
<path style="fill:#FAB816;" d="M115.483,847.227c-24.248-5.426-8.178-17.552-4.589-27.605c22.305-17.822,39.899-9.693,55.152,10.203
	c1.895,2.472,3.235,3.614,6.005,1.634c13.301-9.511,25.148-2.011,37.219,3.186c16.668,18.046,35.709,34.13,47.16,56.56
	c0.111,2.974-0.523,5.711-2.584,7.979c-29.495,5.095-58.939,10.529-88.527,15.011c-6.219,0.942-17.795,7.185-18.087-4.969
	c-0.256-10.658-9.829-26.593,8.082-32.077c11.805-3.614,8.111-8.503,4.024-14.788c-1.727-2.656-3.992-4.956-5.811-7.558
	C136.517,830.474,136.53,830.465,115.483,847.227z"/>
<path style="fill:#981B1E;" d="M802.784,575.024c23.973,29.148,47.946,58.296,71.919,87.443c4.312,8.494,7.633,16.504-7.56,15.467
	c-24.934-7.464-48.813-21.548-76.543-9.15c-6.336,2.833-14.909,0.665-22.451,0.798c0.051-12.99,0.1-25.979,0.149-38.969
	C778.209,611.101,788.481,591.813,802.784,575.024z"/>
<path style="fill:#FBB818;" d="M305.503,869.007c-0.636-0.052-1.3-0.002-1.903-0.17c-8.003-2.229-20.17,6.612-23.676-4.098
	c-3.032-9.263-6.378-23.391,10.308-27.819c1.295-0.344,2.314-4.476,2.24-6.809c-0.959-30.479,2.656-61.06-1.964-91.455
	c-6.012-5.542-14.472-10.744-2.616-18.802c3.015-1.214,6.182-1.551,9.393-1.685c14.136-0.159,28.267-0.239,42.406,0.027
	c3.369,0.146,6.678,0.547,9.762,2.05c3.811,2.851,7.415,5.767,2.598,10.71c-2.168,0.285-4.336,0.571-6.504,0.856
	c-4.042,4.459-11.335,3.661-14.732,9.188c-0.87,1.625-1.664,3.234-2.321,4.946c-1.138,30.998-1.923,61.941,0.48,92.815
	c5.106,9.033,15.362,9.805,23.249,14.407c2.217,3.028,4.489,6.067-0.644,8.526c-1.217,1.353-2.435,2.706-3.652,4.059
	C334.069,870.542,319.404,864.8,305.503,869.007z"/>
<path style="fill:#FAB816;" d="M230.791,729.93c-13.572,13.582-27.144,27.164-40.717,40.745c-4.559,2.345-4.55,8.276-8.572,11.03
	c-4.219,7.365,2.815,11.195,5.372,16.216c3.307,6.493,9.41,11.737,8.15,20.091c-9.255,14.871-21.2,6.202-28.48,0.205
	c-11.069-9.118-16.067-24.004-25.036-35.551c-3.669-4.724,1.228-9.501,3.139-14.041c4.221-10.015,13.245-15.945,20.141-23.685
	c-19.327-10.173-21.603-16.276-11.846-31.828c22.711-2.651,44.581-11.027,67.863-9.898
	C236.213,707.617,238.003,717.098,230.791,729.93z"/>
<path style="fill:#981B1F;" d="M153.457,670.371c35.214-26.377,70.521-52.632,105.522-79.287c4.275-3.256,7.99-7.258,13.244-4.363
	c5.531,3.047,4.478,8.503,2.257,13.409c-6.228,13.757-11.111,27.935-15.205,42.497c-6.292,22.384-21.96,30.873-44.52,27.736
	c-9.917,4.257-21.29,2.041-31.053,6.981c-7.429,0.274-14.857,0.549-22.286,0.823C154.441,679.98,149.908,679.301,153.457,670.371z"
	/>
<path style="fill:#EFF0F2;" d="M533.47,305.09c-9.852,32.851,1.913,61.025,18.386,88.573c11.628,19.445,28.811,36.056,31.814,60.091
	c3.3,27.17-2.189,38.749-21.361,45.101c-6.442-3.912-2.659-9.019-0.968-13.232c5.096-12.698,4.819-25.618,2.827-38.742
	c-2.575-3.763-5.15-7.527-7.725-11.29c-6.793-17.353-19.674-30.754-30.248-45.559c-18.295-25.616-22.006-53.666-16.688-83.597
	c0.861-4.848-0.993-13.403,7.446-13.035C524.055,293.709,532.907,294.305,533.47,305.09z"/>
<path style="fill:#F3F5F3;" d="M567.469,348.2c1.376,19.18,12.195,34.23,21.647,49.935c8.778,14.584,20.605,27.422,25.541,44.225
	c3.945,17.634,5.847,34.905-7.446,50.047c-4.6,5.24-8.468,11.395-17.012,8.385c15.772-37.243,3.931-69.395-19.231-98.802
	c-22.256-28.258-32.687-59.691-29.299-95.585c14.168-4.473,23.533-1.888,22.787,15.52
	C564.073,330.844,563.138,339.823,567.469,348.2z"/>
<path style="fill:#EBEEF0;" d="M636.445,348.38c3.193,24.986,18.232,44.206,31.581,64.149
	c13.383,19.995,24.628,40.476,18.931,65.758c-4.057,18.003-14.028,30.409-36.098,34.577c25.569-37.904,16.934-71.613-6.082-103.831
	c-16.021-22.426-30.741-45.336-35.208-73.249C623.806,328.72,629.055,340.832,636.445,348.38z"/>
<path style="fill:#F6B719;" d="M867.471,750.124c12.903-7.549-3.602-15.171,0.057-22.743c14.539-1.575,16.394,11.501,22.601,19.558
	c-0.687-3.615-2.409-7.02-2.2-10.822c0.34-2.872,1.66-5.139,4.147-6.69c1.686-0.762,3.452-1.238,5.28-1.506
	c6.507-0.561,12.957-1.751,19.526-2.003c5.293,0.129,10.56,0.319,15.583,2.292c12.571,2.912,17.737,11.029,17.295,23.629
	c-0.49,13.974,0.967,27.998-1.009,41.957c-3.985,11.743-12.578,9.091-21.072,6.746c-16.234,0.372-28.863-2.298-31.725-22.74
	C893.886,763.03,877.078,759.389,867.471,750.124z"/>
<path style="fill:#F0F4F3;" d="M628.952,488.867c9.19-31.861-2.909-58.487-21.132-83.238
	c-18.768-25.491-33.069-52.466-32.635-85.203c13.249-7.113,20.15-0.698,23.335,11.635c1.358,5.257,0.095,11.158,3.579,16.013
	c1.498,20.537,13.318,36.502,23.57,53.156c8.269,13.433,18.777,25.569,23.701,40.939c4.077,17.128,3.93,33.785-6.507,48.875
	c-2.845,4.113-7.057,7.9-12.64,5.811C626.596,495.499,627.339,491.886,628.952,488.867z"/>
<path style="fill:#152848;" d="M441.816,304.86c2.991,7.705,14.39,9.138,14.288,19.151c-6.086,6.592-12.845,2.495-19.273,0.988
	c-7.362-1.726-14.608-3.269-22.576-0.883c11.908,7.647,29.626-6.559,37.791,11.434c-10.998,8.524-21.997,17.047-33.207,25.734
	c4.458,12.1,30.502,6.134,20.94,27.441c-11.913-11.604-29.102-11.573-43.406-18.456c-1.116-9.576,1.787-20.768-10.533-25.838
	c-1.087-0.448-2.41-2.151-2.111-2.984c5.531-15.449-8.224-31.524-0.157-45.752c7.021-12.385,0.909-16.527-7.736-21.456
	c25.925-5.974,51.73-9.253,76.82,3.438c-5.376,6.967-12.624,4.265-19.387,3.626c-5.707-0.538-11.381-1.513-17.092-0.191
	c-6.369,1.474-10.531,5.63-10.193,11.993c0.405,7.617,7.104,5.52,11.845,5.829C426.194,299.48,435.949,294.229,441.816,304.86z"/>
<path style="fill:#F6F8F9;" d="M375.836,274.239c7.447,0,14.893,0,24.656,0c-4.741,8.901-8.418,15.422-11.728,22.126
	c-3.327,6.74-11.895,14.104,1.761,19.503c4.267,1.687,3.406,5.386,1.276,7.788c-12.179,13.734-2.334,18.455,8.639,24.752
	c17.287,9.92-6.783,13.71-4.068,21.86c-1.503,0.026-3.007,0.053-4.511,0.079c-3.31-3.184,3.727-10.686-4.869-11.664
	c-6.888,13.009-18.828,22.822-17.233,40.791c1.214,13.672-12.778,16.466-25.38,5.97c-1.751-2.436-5.277-6.78-5.001-7.036
	c19.732-18.34,10.651-51.861,35.547-67.374c6.159-3.837-0.074-5.543-1.934-7.47C356.676,306.671,357.533,290.867,375.836,274.239z"
	/>
<path style="fill:#9A1C1E;" d="M514.388,520.737c15.092,1.984,30.183,3.969,45.275,5.953c0.581,7.327-4.477,11.606-9.022,15.9
	c-26.184,24.737-52.72,49.021-87.51,61.6c-8.127,0.597-16.26,0.737-24.33,0.086c-6.39-0.515-13.419-1.417-9.028-11.104
	c5.005-2.662,10.009-5.323,15.014-7.985c6.311-6.797,17.001-0.31,23.141-7.626c4.476-10.525,14.355-15.179,22.887-21.428
	C502.906,547.278,516.185,538.947,514.388,520.737z"/>
<path style="fill:#F9BA18;" d="M144.648,768.626c4.195,17.949,23.037,52.591,43.195,52.583c1.334-0.001,2.667-3.51,4-5.387
	c14.109,1.137,15.767,11.071,15.704,22.221c-15.773-5.61-28.735-3.862-46.286,7.29c8.794-25.953-18.892-20.49-25.943-33.166
	c-0.719-1.293-4.16-1.838-4.474,0.752c-2.001,16.528-12.508,6.925-19.951,6.702c0,0-0.042-0.05-0.042-0.05
	c-3.011-8.115-2.666-15.66,3.763-22.173C126.66,789.931,131.787,775.243,144.648,768.626z"/>
<path style="fill:#E7B021;" d="M609.455,616.705c2.973,2.599,6.363,4.605,10.353,3.515c5.728-1.564,10.404-1.148,11.467,5.64
	c0.874,5.579,1.895,12.011-3.263,15.942c-5.334,4.065-9.118-1.649-13.361-3.829c-5.039-0.351-9.897,1.62-8.89,6.793
	c1.2,6.165,5.491-1.448,8.317,0.381c7.65,0.503,15.3,1.006,22.949,1.508c-3.957,29.955-10.852,33.422-46.521,23.388
	c-18.872-13.92-20.908-25.309-7.643-42.764C590.382,620.372,598.867,615.894,609.455,616.705z"/>
<path style="fill:#EBB523;" d="M507.286,616.679c22.277-0.025,44.554-0.051,66.831-0.076c4.238,9.06,9.988,18.378-6.439,21.5
	c-6.106,1.161-1.924,7.307-3.905,11.075c-3.354,6.379,3.284,1.957,4.819,2.266c11.605,2.341,13.071,8.534,7.636,17.9
	c-0.9,1.31-1.799,2.621-2.699,3.931c-8.989,3.518-17.976,3.559-26.96-0.02c-13.266-0.721-20.752-4.477-13.363-19.951
	c2.455-5.141,1.09-12.456,0.413-18.662c-1.07-9.801-6.655-6.636-11.893-3.401c-4.008-2.715-6.24-1.242-7.968,2.909
	c-1.667,4.005-4.045,7.549-9.441,4.997C496.554,630.486,499.251,623.226,507.286,616.679z"/>
<path style="fill:#312540;" d="M529.271,255.769c-22.315,0.286-42.918-7.347-63.89-13.511c-14.902-4.38-30.409-1.923-45.634-2.506
	c-17.2-0.658-34.433-0.443-51.652-0.609c1.048-2.39,3.634-4.78-0.009-7.164c20.455-13.864,44.368-10.407,64.411-4.916
	c20.669,5.662,42.167,2.803,62.61,11.342c10.874,4.542,23.195,8.122,34.861,12.138C531.256,252.489,531.023,254.23,529.271,255.769z
	"/>
<path style="fill:#CDAB3D;" d="M668.392,854.678c2.23,0.91,4.938,1.297,6.606,2.822c6.537,5.975,14.279,6.058,20.804,2.083
	c6.552-3.991,5.532-11.189,4.433-18.61c-1.424-9.616-7.507-21.311,6.183-27.962c5.87,7.98,2.546,17.223,3.646,25.859
	c-0.753-8.765,1.622-17.88-3.024-26.211c-4.629-7.376-13.909-6.613-20.001-11.428c1.753-4.117,5.474-4.345,9.161-4.654
	c-3.93-0.148-7.881,0.104-11.817-0.505c-3.65-0.885-6.675-2.737-9.031-5.665c-1.557-2.955-0.62-5.216,1.965-7.011
	c1.777-0.625,3.562-0.639,5.353-0.044c10.754,0.999,21.493,2.577,32.267,2.864c16.737,0.447,18.774,14.657,13.167,21.93
	c-10.857,14.083-8.352,28.653-7.362,42.909c1.226,17.651-6.522,21.875-20.962,17.658
	C688.847,865.52,672.607,873.056,668.392,854.678z"/>
<path style="fill:#EBB220;" d="M652.144,631.496c-0.547-6.817,1.546-11.705,9.418-10.239c8.037,1.497,18.757-3.347,22.827,8.509
	c2.683,7.816,4.712,15.856,7.38,23.678c2.375,6.963,3.005,15.78,13.787,15.26c2.473,2.391,2.625,4.872,0.286,7.447
	c0.331,0.655,0.467,1.348,0.408,2.08c-8.133-0.343-16.273-0.568-24.395-1.081c-3.588-0.227-7.076,0.129-10.251-3.255
	c-3.585-3.82,8.506-11.26-3.501-12.372c-8.861-0.82-6.441,7.962-10.385,11.21c-4.611,3.796-9.337,3.32-13.709-0.2
	c-4.131-3.326-3.869-6.292-0.529-11.042C649.629,652.747,654.359,642.953,652.144,631.496z"/>
<path style="fill:#F3B91D;" d="M399.005,655.03c0.912-0.548,1.892-0.92,2.938-1.116c0.959-1.701,4.848,0.026,4.026-1.84
	c-1.083-2.461-4.739-3.347-6.602-5.751c-6.533-18.831-1.559-27.005,17.13-26.027c5.615,0.294,10.832-0.75,16.242-0.883
	c8.077-3.265,10.395,0.781,10.267,8.037c-0.081,4.586,0.113,9.358-6.453,9.367c-3.656,0.005-7.676-1.678-10.198,2.627
	c8.551,5.84,24.636,7.885,17.709,23.139c-7.487,16.487-22.571,11.957-36.166,7.83C392.266,672.605,396.573,663.276,399.005,655.03z"
	/>
<path style="fill:#EDB41C;" d="M336.949,664.276c-1.478-12.272,8.217-22.286,6.221-35.228c-1.343-8.706,8.238-5.62,13.059-6.202
	c7.163-0.866,15.84-3.497,18.87,7.265c2.924,10.387,5.874,20.767,8.813,31.15c2.721,16.372-5.996,15.381-16.862,11.152
	c-7.938-8.019-10.509,0.571-14.513,4.728c-4.985,0.029-9.969,0.059-14.954,0.089C333.793,673.087,335.479,668.676,336.949,664.276z"
	/>
<path style="fill:#F3F6F7;" d="M441.816,304.86c-14.924-4.86-30.241,3.217-45.21-1.188c7.431-36.472,3.342-29.457,37.147-27.919
	c6.317,0.287,12.603,1.266,18.903,1.925c3.385,2.757,7.12,4.524,11.625,4.105C455.972,288.676,458.896,306.502,441.816,304.86z"/>
<path style="fill:#F0B722;" d="M506.127,639.128c3.634-2.294,4.216-5.918,4.129-9.753c-0.093-4.101,0.465-7.107,5.822-7.235
	c7.627-0.182,4.962,5.354,5.648,9.103c-4.166,10.516-8.532,20.959-12.423,31.576c-2.294,6.258-6.201,8.463-12.839,8.566
	c-7.628,0.118-9.194-5.055-11.374-10.253c-3.398-8.1-7.341-16.015-10.111-24.322c-2.046-6.135-12.887-11.329-6.056-17.723
	c5.492-5.141,15.183-4.918,22.599,0.711C499.7,623.741,491.573,640.001,506.127,639.128z"/>
<path style="fill:#C7B055;" d="M825.702,754.588c2.467,0.303,4.934,0.607,7.398,0.918c0.614,15.765,12.538,22.57,23.837,29.591
	c23.667,14.708,49.064,26.698,70.896,44.272c16.399,13.2,31.713,27.447,35.767,49.659c1.688,3.144,0.801,5.488-2.225,7.167
	c-3.49,0.626-6.743-0.364-8.126-3.516c-16.552-37.729-50.294-56.275-83.715-75.107c-13.356-7.526-27.255-14.236-37.633-25.938
	C825.025,773.878,818.754,765.66,825.702,754.588z"/>
<path style="fill:#C7AB52;" d="M230.791,729.93c-2.513-8.396,3.584-21.952-13.101-21.855c4.085-10.323,10.754-6.788,17.063-5.629
	c-27.63,1.417-54.818,6.159-81.587,13.889c-9.911,15.639,0.828,20.407,12.871,24.55c0.401,0.138,0.907,1.219,0.742,1.521
	c-0.517,0.946-1.332,1.729-2.011,2.555c-12.303-0.538-20.278-3.001-19.398-19.33c0.8-14.852,2.787-23.458,19.84-25.181
	c19.44-1.964,38.585-6.84,57.859-10.451c9.929-1.896,22.902-10.586,27.413,5.13c6.612,23.036,0.516,32.529-18.556,36.104
	L230.791,729.93z"/>
<path style="fill:#E6B22E;" d="M336.949,664.276c0.21,4.318,0.42,8.636,0.631,12.954c-14.49,1.517-28.981,3.034-43.472,4.551
	c-7.987,0.836-12.49-0.963-9.266-10.492c3.549-10.491,2.974-21.298,0.189-31.886c-1.163-4.422-3.443-9.564,2.215-11.301
	c5.23-1.606,11.778-2.254,16.739-0.491c5.277,1.875,1.666,7.386,1.067,11.656c-1.053,7.506-1.36,15.17-1.278,22.761
	c0.052,4.818,4.203,10.981,7.567,5.233c7.832-13.381,12.07-9.23,17.683,0.745C329.128,668.191,334.197,665.582,336.949,664.276z"/>
<path style="fill:#C2A449;" d="M894.722,730.689c-1.292,1.374-2.584,2.748-3.876,4.122c-8.501,3.211-10.864-4.837-14.92-8.747
	c-30.319-29.233-61.895-34.809-100.827-17.257c-7.657,4.953-15.314,9.906-22.972,14.86c11.265-27.687,42.257-43.268,74.711-37.237
	c14.238,2.646,27.815,7.473,40.69,14.172C879.684,707.84,895.16,712.074,894.722,730.689z"/>
<path style="fill:#C3AC54;" d="M180.253,777.252c3.605-1.728,4.124-8.053,9.838-6.596c-2.113,5.509,0.644,9.569,3.697,13.771
	c14.114,19.429,27.947,39.064,42.19,58.397c5.743,7.797,10.515,14.986,22.977,16.475c13.074,1.562,4.919,15.661,6.333,23.998
	c1.315,7.756,2.216,17.793-11.456,15.89c-0.105-2.317-0.225-4.631-0.345-6.945c1.228-10.383-2.672-16.942-11.691-23.379
	c-12.978-9.263-20.417-24.257-30.062-36.896c-9.268-12.145-17.052-25.381-26.249-37.643
	C181.958,789.624,176.459,784.596,180.253,777.252z"/>
<path style="fill:#192B47;" d="M387.181,424.557c9.39,0.568,18.779-1.655,27.883,4.104c23.776,15.038,28.634,13.595,43.033-10.039
	c3.536,17.832,3.355,18.279-13.121,32.348c-11.183,4.59-21.579,4.049-31.768-3.317c-8.531-6.167-17.475-7.336-28.256-3.265
	c-8.998,3.398-18.765,2.035-13.04-12.576C377.002,429.394,382.091,426.976,387.181,424.557z"/>
<path style="fill:#CDAF53;" d="M60.585,739.899c-0.721,3.276-2.28,6.485-5.921,6.139c-19.571-1.855-17.12,10.93-15.711,23.133
	c-11.847-20.008-6.804-36.971,13.038-42.131c21.41-5.568,43.195-9.769,64.433-15.895c12.455-3.593,15.099,1.924,13.076,11.647
	c-2.126,10.215,9.34,27.989-13.935,27.69c-3.061-1.562-2.882-4.19-2.293-6.946c5.033-4.917,7.643-10.865,3.159-16.938
	c-3.624-4.908-8.996-1.914-14.047-1.03c-14.429,2.526-28.504,6.445-42.619,10.137C53.872,737.247,62.05,738.094,60.585,739.899z"/>
<path style="fill:#852223;" d="M676.03,600.99c-2.783,2.649-5.567,5.299-8.35,7.95c-20.466-3.066-42.195,3.862-61.578-7.776
	c-1.597-12.236,6.801-15.86,16.084-16.764c16.522-1.609,33.248-1.788,49.737-0.045C685.831,585.826,686.628,592.474,676.03,600.99z"
	/>
<path style="fill:#BCAD55;" d="M376.421,707.095c-0.407-2.176-0.814-4.353-1.228-6.529c5.732-1.19,11.472-2.379,17.212-3.569
	c14.776-3.362,29.526-3.962,44.231,0.406c17.643,26.369,35.286,52.738,52.923,79.114c0.433,4.558,0.871,9.109,1.31,13.661
	c-10.318,0.06-13.524-8.678-17.99-15.24c-11.846-17.407-24.091-34.575-35.468-52.256c-8.263-12.842-18.309-15.609-32.473-13.816
	C395.662,710.04,385.244,717.167,376.421,707.095z"/>
<path style="fill:#BDA25A;" d="M351.578,861.692c0.759-3.465-0.504-6.059-3.418-7.944c-18.246-10.555-21.121-27.08-20.465-46.613
	c0.8-23.818,1.786-47.766-0.624-71.612c5.002-7.006,12.111-3.525,18.479-3.712c-0.013,0.803-0.164,1.578-0.455,2.326
	c-2.034,32.384-5.396,64.792,1.682,97.018c2.873,0.188,5.747,0.376,8.62,0.565c9.977,9.67,8.997,19.719,1.037,30.008
	C354.816,861.716,353.197,861.704,351.578,861.692z"/>
<path style="fill:#B7BFC2;" d="M344.379,405.446c6.133,2.063,11.868,8.657,18.704,0.906c5.186-5.879,4.608-10.689-0.073-16.836
	c-5.087-6.679,2.165-10.361,5.749-14.137c5.658-5.963,12.115-11.168,18.234-16.694c-3.331,11.298-6.663,22.595-10.005,33.931
	c6.63,3.829,17.95-7.85,19.371,4.39c1.28,11.017-8.02,16.422-19.125,15.892C365.885,412.357,351.625,424.142,344.379,405.446z"/>
<path style="fill:#D2AE3E;" d="M384.197,860.529c2.127-9.625,9.942-5.496,15.583-6.29c7.951-1.12,16.751,2.16,23.535-4.75
	c2.792-4.721,1.665-7.853-3.557-9.855c-4.704-1.803-8.672-4.561-9.11-10.342c1.699-17.414-4.755-35.42,4.13-52.211
	c6.001-2.26,15.379-15.6,14.582,4.442c-1.102-0.645-2.86-2.099-3.208-1.816c-8.882,7.215-5.911,44.94,4.278,47.591
	c14.131,3.676,7.06,14.226,8.299,21.755c1.555,9.448-5.904,9.516-12.522,9.767C412.202,859.353,398.2,859.955,384.197,860.529z"/>
<path style="fill:#BEA244;" d="M674.628,711.381c8.835-15.06,21.123-4.099,31.615-3.56c9.242,0.474,6.184,9.406,6.342,15.124
	c0.383,13.841,0.005,27.702,0.259,41.549c0.128,6.959-0.492,12.802-9.542,12.507c-6.719-2.749-13.62-1.842-20.444-0.76
	c-5.411,0.858-10.118,0.844-12.138-5.468c5.32-8.115,13.947-6.434,21.659-7.36c14.315-18.65,8.363-43.106-11.523-47.021
	c-1.774-0.583-3.381-1.451-4.841-2.606C675.543,712.989,675.085,712.185,674.628,711.381z"/>
<path style="fill:#1E2C31;" d="M583.624,524.138c-18.523,22.628-38.278,43.998-62.296,61.014c-4.953,0.074-9.908,0.15-14.863,0.225
	c-1.964-7.678,5.432-9.224,9.047-12.578c16.071-14.907,32.474-29.46,48.181-44.765C569.836,524.173,576.614,523.564,583.624,524.138
	z"/>
<path style="fill:#B59F40;" d="M482.846,707.973c-2.34,0.196-4.68,0.391-7.02,0.59c-2.203-8.979-0.897-14.932,10.531-14.655
	c19.623,0.476,39.319-0.898,58.776,2.893c2.928,6.455,1.604,13.294,1.394,19.916c-0.303,9.556-5.473,11.37-13.458,7.03
	c0.168-1.467,0.336-2.934,0.503-4.401c-0.682-10.19-8.333-9.108-15.189-9.471C506.538,709.248,494.543,711.357,482.846,707.973z"/>
<path style="fill:#0F284A;" d="M576.229,669.344c-1.277-8.735,1.308-23.189-14.714-9.534c-4.021,3.427-8.788,3.299-10.543-2.512
	c-3.455-11.434,9.162-7.639,12.583-12.283c0.654-6.222-3.758-5.751-7.443-6.541c-4.531-0.971-6.783-3.843-4.208-8.219
	c1.942-3.299,5.736-3.209,8.462-1.349c21.547,14.703,14.555-2.214,13.756-12.302c10.312-2.501,3.618,8.926,8.742,10.677
	c-4.931,15.589-4.397,30.204,7.644,42.762C585.748,669.811,580.988,669.577,576.229,669.344z"/>
<path style="fill:#C2AA4E;" d="M874.736,884.48c2.45,20.978-12.361,15.463-23.627,15.39c-4.33-4.978-11.12-1.758-16.055-4.774
	c-21.278-7.569-33.38-24.739-44.733-42.697c-0.89-1.569-1.248-3.248-1.007-5.043c1.84-3.758,6.497-1.927,8.942-4.493
	c4.366-0.61,6.793,0.953,8.633,5.348C820.301,880.246,840.724,891.03,874.736,884.48z"/>
<path style="fill:#DEAB5F;" d="M676.03,600.99c3.121-6.965,7.138-13.683-6.611-12.633c-12.603,0.962-25.369,0.754-38.005,0.039
	c-11.275-0.638-19.808,2.671-25.307,12.766c-4.852,0.725-9.645,6.697-14.568,0.153c7.867-15.84,20.343-22.748,38.259-21.88
	c18.911,0.917,37.916-0.286,56.849,0.385c12.92,0.458,13.045,5.83,3.575,13.121C686.313,597.074,683.14,602.502,676.03,600.99z"/>
<path style="fill:#E1A64D;" d="M563.693,528.034c-13.944,24.235-37.937,38.444-57.228,57.343
	c-12.062,7.729-22.72,18.385-38.461,18.443c-1.061-0.642-1.46-1.346-1.199-2.112c0.272-0.797,0.568-1.195,0.89-1.195
	c34.763-19.493,63.845-46.065,91.973-73.82C561.007,527.138,562.35,527.586,563.693,528.034z"/>
<path style="fill:#4F5560;" d="M533.069,723.748c24.052-0.02,7.216-18.335,12.062-26.948c5.447,10.418,5.312,20.779-0.307,31.086
	c-8.977,4.26-9.692,11.903-9.831,20.789c-0.347,22.269,2.103,44.61-1.345,66.812c-0.12,2.53,0.032,5.107-0.406,7.581
	c-2.015,11.379,6.317,29.121-5.234,33.034c-15.388,5.213-34.213,7.093-50.69-2.185c10.882,0.125,21.747,0.237,32.613,0.349
	c10.684-6.643,14.649-15.896,14.175-28.726c-0.891-24.146-0.346-48.351-0.202-72.531c0.045-7.568-0.81-15.432,5.012-21.704
	C530.301,728.786,531.685,726.267,533.069,723.748z"/>
<path style="fill:#C5AA54;" d="M288.089,723.5c-9.456,6.705,5.822,9.435,2.428,15.159c-11.752,2.981-12.848-4.283-12.235-12.891
	c0.546-7.668-2.835-17.125,10.599-18.086c22.204-1.588,44.333-4.228,66.494-6.425c5.712,9.546,4.024,19.439,1.38,29.377
	c-1.564,0.106-3.127,0.212-4.697,0.32c-0.958-2.436-1.909-4.874-2.86-7.312c-5.073-5.934-10.054-10.028-19.276-7.498
	C316.299,719.88,300.976,714.73,288.089,723.5z"/>
<path style="fill:#472337;" d="M467.695,600.513c0.345,1.08,0.451,2.184,0.313,3.309c-10.536,8.724-23.011,2.74-34.456,4.551
	c-12.112,1.916-25.341-4.533-36.473,5.091c-3.086,2.668-7.112,3.009-10.505,0.548c-2.831-2.054-3.01-5.374-1.875-8.569
	c1.59-4.475,5.697-4.928,9.364-4.717c12.645,0.729,24.978,0.529,35.711-7.554C439.702,609.628,455.282,596.891,467.695,600.513z"/>
<path style="fill:#CFAC32;" d="M114.395,923.398c0.17-2.506,0.339-5.011,0.509-7.517c4.065-5.596,6.388-13.421,0.561-16.929
	c-19.964-12.017-12.065-28.521-9.094-44.517c2.708-1.394,5.415-2.788,8.123-4.183c-0.127,8.275-0.384,16.551-0.322,24.825
	c0.027,3.572-0.778,8.157,4.777,8.621c23.811,1.988,7.179,19.148,10.05,28.684C132.19,922.983,122.744,924.121,114.395,923.398z"/>
<path style="fill:#2A2C2D;" d="M690.221,592.943c1.887-5.346,8.313-12.21-4.67-12.084c-20.99,0.203-41.987-0.202-62.973,0.138
	c-14.377,0.232-19.331,15.599-31.042,20.323c-0.37-3.373-0.743-6.744-1.114-10.116c4.785-4.662,9.568-9.322,14.351-13.981
	c27.207,0.086,54.415,0.119,81.622,0.303c5.034,0.034,10.601-0.067,11.475,6.951C698.572,590.107,695.451,592.539,690.221,592.943z"
	/>
<path style="fill:#CEDBE8;" d="M371.912,431.812c0.67,6.448,1.514,14.382,10.546,10.603c15.062-6.303,27.834-3.058,40.52,5.55
	c6.651,4.513,14.554,2.74,21.998,3.005c-6.237,5.101-12.474,10.202-18.709,15.301c-10.681-13.787-21.992-26.086-42.141-19.036
	c-6.568,2.298-13.264,1.838-17.157-4.283C363.981,438.255,364.54,432.987,371.912,431.812z"/>
<path style="fill:#C2AB64;" d="M590.731,717.945c-4.232,6.402-11.418,3.571-17.098,5.471c6.212-14.94,20.908-18.827,33.396-25.594
	c10.621-5.349,21.356-4.067,32.129-0.549c1.798,1.062,3.595,2.125,5.393,3.187c1.11,3.829-1.235,5.749-4.067,7.412
	C624.271,713.026,605.497,705.563,590.731,717.945z"/>
<path style="fill:#B89F52;" d="M915.103,730.719c-5.592,0.227-11.185,0.455-16.778,0.682c-4.771-8.931,0.804-15.706,4.757-22.819
	c16.205,5.497,33.855,5.957,49.293,14.13c1.046,1.874,0.9,3.65-0.429,5.332c-3.815,3.831-8.589,3.337-13.328,2.955
	C930.797,730.253,923.058,721.88,915.103,730.719z"/>
<path style="fill:#E6C23F;" d="M951.166,728.218c0.401-1.836,0.802-3.672,1.206-5.507c2.421,0.423,4.839,0.844,7.257,1.266
	c7.025,26.2,4.091,52.629,1.73,79.029c-0.507,5.673-3.723,7.729-9.225,5.632c-8.389-1.968-17.089-2.996-24.448-8.095
	c6.948-0.876,15.667,1.469,17.15-9.397c2.02-0.49,3.863-1.256,4.943-3.237c1.446-19.053-0.399-38.086,0.904-57.068
	C950.841,729.966,951.004,729.092,951.166,728.218z"/>
<path style="fill:#322101;" d="M45.234,769.731c1.63,0.079,3.26,0.158,4.89,0.237c1.617,43.361,2.695,86.719-0.577,130.059
	c-1.395,0.238-2.789,0.476-4.188,0.715C45.315,857.072,45.275,813.401,45.234,769.731z"/>
<path style="fill:#AB9A3B;" d="M368.13,723.382c11.092,1.766,16.282,7.398,15.948,19.476c-0.813,29.325-0.522,58.68-0.675,88.023
	c-1.611,1.381-3.103,1.263-4.476-0.354c0.321-29.099-0.79-58.318,1.639-87.24C381.597,731.002,366.309,733.399,368.13,723.382z"/>
<path style="fill:#CEA539;" d="M366.998,664.98c8.569,12.101,13.993,9.89,16.913-3.717c9.429,8.571,9.354-5.87,15.093-6.233
	c0.048,6.812-1.254,14.403,8.89,15.385c-14.803,6.938-30.748,6.065-46.461,6.777C356.203,669.893,356.521,665.122,366.998,664.98z"
	/>
<path style="fill:#FAB816;" d="M114.918,743.316c0.213,2.391,0.426,4.783,0.644,7.171c-3.762,15.564-1.732,31.25-0.948,46.911
	c0.294,7.655,0.59,15.309-3.762,22.174c-1.224,0.014-2.449,0.022-3.673,0.022c-6.836-8.435-3.63-17.778-2.452-26.929
	c1.632-11.821-0.481-23.834,1.706-35.64c0.205-0.967,0.418-1.934,0.631-2.901c2.076-5.051,4.153-10.102,6.229-15.152
	C115.761,739.698,116.303,741.147,114.918,743.316z"/>
<path style="fill:#D8B144;" d="M798.256,842.863c-2.975,1.508-5.95,3.015-8.924,4.523c-7.229,5.997-15.578,2.346-23.393,2.405
	c-4.907,0.037-10.013-2.365-12.818,3.92c-3.012,0.306-6.024,0.612-9.036,0.925c-3.299-14.856-1.349-23.631,17.529-18.091
	C773.429,840.012,786.016,840.847,798.256,842.863z"/>
<path style="fill:#1A202B;" d="M533.65,815.487c-0.112-24.566-0.131-49.133-0.39-73.698c-0.086-8.164-0.059-15.717,11.566-13.907
	c-10.256,12.338-6.835,27.158-7.836,41.294C535.895,784.613,540.869,800.51,533.65,815.487z"/>
<path style="fill:#0F284A;" d="M506.127,639.128c-2.904,4.215-3.901,14.838-11.011,2.255c-4.036-7.142-3.703-14.188-3.595-21.586
	c4.818-3.247,10.201-3.637,15.765-3.118C508.117,624.225,501.234,631.372,506.127,639.128z"/>
<path style="fill:#546060;" d="M952.135,808.639c10.042-0.88,7.245-8.69,7.311-14.365c0.274-23.432,0.153-46.868,0.18-70.299
	c1.226-0.2,2.457-0.276,3.696-0.226c3.607,25.434,2.625,50.896,0.483,76.366C962.73,806.809,963.516,816.051,952.135,808.639z"/>
<path style="fill:#472C00;" d="M346.777,831.154c-1.192-0.352-3.409-0.65-3.431-1.064c-1.691-32.019-5.276-64.088,1.746-95.95
	C346.102,766.468,343.047,798.87,346.777,831.154z"/>
<path style="fill:#343223;" d="M356.435,861.727c-0.345-10.003-0.69-20.007-1.036-30.009c4.447-0.164,8.894-0.329,13.342-0.494
	c4.394,5.517,3.319,10.913-0.358,16.251c-0.179,3.593-0.358,7.187-0.541,10.779C365.039,862.699,360.58,861.697,356.435,861.727z"/>
<path style="fill:#2E2A0D;" d="M231.926,731.234c23.508-3.146,18.112-21.405,16.031-34.916c-2.596-16.849-16.637-3.309-24.893-6.317
	c8.656-8.344,20.961-8.349,26.823-1.292c7.615,9.167,3.88,23.312,2.32,34.916C250.601,735.577,239.422,730.339,231.926,731.234z"/>
<path style="fill:#182018;" d="M742.932,919.287c0.981,1.212,1.963,2.424,2.949,3.637c-7.808-0.02-9.039-5.021-9.008-11.421
	c0.11-22.655,0.043-45.312,1.251-67.987C743.504,868.579,736.849,894.32,742.932,919.287z"/>
<path style="fill:#E3B63D;" d="M357.63,124.246c-5.683,0.672-12.282-0.005-12.606,8.559c-8.92-2.308-11.461-10.438-15.608-17.103
	c-2.314-5.093-0.732-7.749,4.919-7.86C343.279,111.637,351.006,117.158,357.63,124.246z"/>
<path style="fill:#162747;" d="M903.083,708.582c-1.587,7.607-3.175,15.214-4.76,22.82c-1.216-0.141-2.416-0.376-3.599-0.71
	c-4.409-14.241-17.189-20.913-27.197-30.089c8.471-1.48,15.178,2.006,19.895,8.491C893.329,717.216,897.974,711.38,903.083,708.582z
	"/>
<path style="fill:#BEA244;" d="M639.254,705.249c1.766-1.596,3.533-3.191,5.298-4.787c8.821,0.474,15.245,5.847,21.141,11.39
	c3.886,3.654,6.133,3.189,8.935-0.47c0.55,0.534,1.095,1.074,1.635,1.619c3.332,6.084,0.679,10.714-3.617,14.948
	c-14.649,1.412-20.349-13.154-31.662-17.738C639.787,708.775,639.186,707.127,639.254,705.249z"/>
<path style="fill:#14211E;" d="M963.804,800.115c-0.161-25.456-0.321-50.913-0.482-76.367
	C969.898,749.163,969.254,774.624,963.804,800.115z"/>
<path style="fill:#3E361F;" d="M671.57,769.259c9.217,8.134,22.097,1.261,31.724,7.742c-6.731,2.557-16.145-3.574-20.619,6.351
	c-0.497,0.521-1.023,1.005-1.584,1.451c-8.814-0.235-17.791,1.937-26.358-1.795c-6.356-12.537,7.759-11.505,11.489-17.368
	C669.509,764.607,671.647,765.304,671.57,769.259z"/>
<path style="fill:#542430;" d="M468.344,208.533c-13.149-1.323-27.779,6.063-38.996-6.627
	C442.378,203.931,457.378,194.36,468.344,208.533z"/>
<path style="fill:#64233B;" d="M636.795,324.489c8.446,0.126,16.704,0.004,15.934-12.054c6.929,4.834,11.54,12.053,3.679,17.693
	C650.618,334.281,640.75,335.325,636.795,324.489z"/>
<path style="fill:#D5C459;" d="M766.733,923.478c8.196-0.278,16.393-0.555,24.589-0.833c4.076-4.116,0.819-12.371,8.24-14.599
	c3.613,4.852,2.542,10.482,2.641,15.921C790.204,936.475,778.545,924.443,766.733,923.478z"/>
<path style="fill:#422631;" d="M376.282,201.821c-8.067,13.098-20.697,5.437-31.325,6.883
	C352.812,194.639,365.775,203.82,376.282,201.821z"/>
<path style="fill:#6B1E36;" d="M360.632,240.083c-0.29,6.906-1.431,14.258,8.343,15.885c-3.283,7.999-10.337,9.782-14.255,3.287
	C351.229,253.467,347.37,242.899,360.632,240.083z"/>
<path style="fill:#632630;" d="M153.457,670.371c0.057,5.246,3.537,6.996,7.957,7.792c-4.342,11.906-13.169,5.713-22.654,6.012
	C142.748,676.743,144.859,670.376,153.457,670.371z"/>
<path style="fill:#D2AE3E;" d="M368.382,847.476c0.118-5.416,0.235-10.832,0.356-16.25c3.398-0.233,6.792-0.465,10.188-0.698
	c1.493,0.119,2.986,0.238,4.477,0.355C385.807,843.12,379.691,847.647,368.382,847.476z"/>
<path style="fill:#4B263A;" d="M867.143,677.935c10.66-1.178,7.279-9.22,7.562-15.468c10.267,1.427,8.509,9.249,7.594,15.658
	c-1.285,8.993-8.816,6.535-14.69,6.715C867.454,682.535,867.299,680.235,867.143,677.935z"/>
<path style="fill:#5F6880;" d="M437.986,505.154c-0.614-10.771,1.502-21.045,5.226-31.083c1.674,14.543,4.834,29.022-1.076,43.189
	C440.61,513.273,442.105,508.251,437.986,505.154z"/>
<path style="fill:#E0BF5C;" d="M322.313,609.037c12.768,9.801,3.37,21.463,5.557,32.152c-1.704,0.19-3.408,0.379-5.112,0.569
	c-0.575-8.656-1.15-17.312-1.725-25.968c-0.841-1.116-1.23-2.38-1.233-3.77C320.221,610.676,321.059,609.681,322.313,609.037z"/>
<path style="fill:#D7A915;" d="M959.585,886.317c1.339-2.425,2.679-4.85,4.017-7.282c5.433,12.776,5.853,25.585,0.194,38.425
	c-4.262-1.987-6.295-5.648-7.491-9.941C956.333,900.292,953.427,892.602,959.585,886.317z"/>
<path style="fill:#2D2307;" d="M436.636,697.403c-14.749-0.135-29.498-0.271-44.239-0.406c-1.898-0.646-5.067-3.281-4.022-3.236
	C404.483,694.454,421.248,688.016,436.636,697.403z"/>
<path style="fill:#4F2536;" d="M437.07,255.63c10.524,1.784,23.329-6.829,31.245,6.849
	C457.262,263.107,446.036,264.523,437.07,255.63z"/>
<path style="fill:#0F284A;" d="M399.366,646.323c8.444,3.246,16.888,6.493,26.759,10.288c-11.761,11.599-16.93-1.111-24.177-2.698
	C401.084,651.384,400.225,648.853,399.366,646.323z"/>
<path style="fill:#BD9D27;" d="M426.354,639.444c-4.323-6.654,2.506-5.314,4.737-5.687c4.113-0.688,9.35,1.61,9.787-5.436
	c0.357-5.751-3.718-7.496-8.139-8.907c6.271-3.935,11.317-3.421,12.002,4.861c0.423,5.111,2.981,12.225-5.132,14.255
	C435.379,639.588,430.784,639.186,426.354,639.444z"/>
<path style="fill:#C3B461;" d="M959.859,907.946c3.257,2.361,3.416,6.006,3.938,9.507c-0.839,8.69-4.367,15.821-11.901,20.641
	c0.295-3.633,0.59-7.264,0.884-10.896C955.1,920.766,952.393,912.487,959.859,907.946z"/>
<path style="fill:#DBB23B;" d="M284.141,613.384c-1.498-15.245,5.372-15.431,15.986-8.882c1.642,3.036,1.266,5.879-0.812,8.561
	C294.292,614.724,289.223,614.385,284.141,613.384z"/>
<path style="fill:#622337;" d="M467.929,577.561c-3.987,13.845-15.339,5.352-23.141,7.627
	C449.005,572.037,460.192,580.033,467.929,577.561z"/>
<path style="fill:#D7AB3B;" d="M455.342,186.287c12.196,0.639,25.674-5.393,35.64,6.847
	C478.595,193.482,466.94,190.033,455.342,186.287z"/>
<path style="fill:#413007;" d="M305.503,869.007c13.794-5.647,28.227-2.982,42.428-3.259
	C334.267,873.118,319.686,868.475,305.503,869.007z"/>
<path style="fill:#0F284A;" d="M546.57,673.255c8.996,0.002,17.992,0.004,26.974,0.013c-12.422,8.79-26.148,1.949-41.985,4.814
	C537.512,672.095,542.506,674.384,546.57,673.255z"/>
<path style="fill:#4C2738;" d="M183.702,677.343c8.771-9.351,19.999-7.782,31.053-6.983
	C205.819,678.979,194.7,677.892,183.702,677.343z"/>
<path style="fill:#0F284A;" d="M366.998,664.98c-7.662,1.421-7.046,6.619-5.569,12.21c-2.964-0.014-5.931-0.03-8.896-0.048
	C351.714,666.379,349.045,653.42,366.998,664.98z"/>
<path style="fill:#D6DAE5;" d="M472.424,667c-1.231,5.17-5.782,5.855-9.979,6.799c-2.398,0.539-5.708,0.597-5.496-2.743
	c0.298-4.693,2.721-8.433,8.233-8.626C468.501,662.313,471.512,662.823,472.424,667z"/>
<path style="fill:#6E7676;" d="M418.449,497.34c-0.535-5.976,2.943-10.402,6.451-18.208c1.728,12.309,2.549,21.362-2.531,29.999
	C420.573,505.364,423.73,499.95,418.449,497.34z"/>
<path style="fill:#473803;" d="M284.141,613.384c4.84-0.531,9.681-1.061,14.521-1.592c7.979-4.756,15.678-3.516,23.221,1.084
	c0.015,1.061-0.268,2.035-0.85,2.918C308.762,614.577,296.112,619.176,284.141,613.384z"/>
<path style="fill:#26270B;" d="M639.158,697.274c-10.714,0.184-21.428,0.367-32.135,0.549c10.203-9.249,21.907-4.522,33.196-3.512
	c0.136,0.012,0.391,1.135,0.213,1.594C640.222,696.445,639.601,696.825,639.158,697.274z"/>
<path style="fill:#312606;" d="M356.754,730.634c-0.461-9.794-0.921-19.589-1.381-29.38
	C362.184,710.752,366.494,720.363,356.754,730.634z"/>
<path style="fill:#A2A06E;" d="M321.883,612.876c-7.738-0.361-15.476-0.723-23.217-1.084c0.48-2.432,0.963-4.864,1.454-7.293
	c7.403,1.514,14.798,3.026,22.193,4.538C322.17,610.317,322.026,611.596,321.883,612.876z"/>
<path style="fill:#8F8E5C;" d="M334.335,107.841c-3.481,1.479-4.318,4.603-4.912,7.871c-4.432-4.988-8.856-9.965-15.242-17.148
	C324.359,99.113,329.733,102.62,334.335,107.841z"/>
<path style="fill:#C4D0E1;" d="M341.093,550.634c1.699,1.614,3.398,3.229,5.097,4.843c-9.27,5.978-19.148,4.237-33.883,1.972
	C324.866,554.476,332.98,552.555,341.093,550.634z"/>
<path style="fill:#9C1E1C;" d="M905.222,685.707c-11.803-2.659-7.013-12.389-7.055-18.87c-0.381-58.78-0.172-117.563-0.039-176.345
	c0.038-16.537-5.252-31.211-14.716-44.563c1.259-11.713-7.651-17.424-14.519-24.189c-5.821-5.734-11.158-11.415-8.82-20.535
	c4.252-7.227,1.541-16.509,6.91-23.406c0.382-2.422,0.764-4.844,1.147-7.266c24.157,2.178,33.69,19.91,40.985,39.378
	c2.865,7.644,3.897,16,6.031,24.005c0.548,74.847,0.146,149.667,0.227,224.485C915.384,668.721,915.367,679.12,905.222,685.707z"/>
<path style="fill:#E4AE31;" d="M905.222,685.707c3.464-10.517,3.226-21.404,3.265-32.271c0.265-74.836,0.547-149.671,0.823-224.507
	c-2.911-7.971-1.748-15.056,4.578-21.015c6.781,12.187,6.618,25.595,6.672,38.908c0.292,71.761,0.5,143.522,0.736,215.282
	c-0.301,5.697-0.829,11.394-0.859,17.093C920.364,693.298,914.056,692.338,905.222,685.707z"/>
<path style="fill:#991B1E;" d="M790.336,329.183c0.407,0.909,0.504,1.85,0.293,2.823c-7.071,6.381-1.026,16.75-7.124,23.427
	c-1.434,27.301-2.852,27.989-31.884,15.467c-5.192-8.293-16.688-0.634-21.978-8.682c-0.47-18.812,2.366-36.85,12.462-53.186
	C762.251,306.014,776.205,317.81,790.336,329.183z"/>
<path style="fill:#EEB42B;" d="M790.336,329.183c-18.027-2.059-31.255-15.598-48.234-20.154c-1.215-15.97,4.03-21.476,19.082-12.099
	c6.973,4.344,14.054,8.714,21.573,11.936C792.924,313.222,792.874,320.535,790.336,329.183z"/>
<path style="fill:#E6AF2C;" d="M913.888,407.914c-1.525,7-3.051,14-4.577,21.008c-3.963-26.345-18.163-45.481-41.182-58.394
	c0.05-9.053,2.611-13.242,12.39-7.82C898.656,372.764,910.118,387.417,913.888,407.914z"/>
<path style="fill:#55272C;" d="M783.505,355.434c1.348-8.121-6.193-18.945,7.124-23.428
	C789.077,340.066,795.238,350.47,783.505,355.434z"/>
<path style="fill:#5C243A;" d="M729.643,362.219c7.278,3.017,19.074-5.408,21.98,8.679
	C744.198,368.251,732.771,375.739,729.643,362.219z"/>
<path style="fill:#482044;" d="M866.983,377.799c1.411,8.9-0.163,16.918-6.912,23.407
	C861.486,393.14,854.359,382.555,866.983,377.799z"/>
<path style="fill:#D7DEE6;" d="M559.152,496.693c24.525-4.977,23.339-24.632,24.517-42.938
	c8.246,35.934-11.251,62.812-42.658,59.248c-14.236-1.616-23.412-9.597-29.071-21.831c-6.096-13.176-4.585-26.372,3.77-38.077
	c10.988-15.394,31.148-14.483,43.844,1.426c-3.842,4.546-9.488,2.743-14.249,4.057c-8.595,2.372-15.719,6.831-15.788,16.604
	c-0.07,9.871,6.731,14.423,15.777,16.199C550.203,492.345,555.606,492.128,559.152,496.693z"/>
<path style="fill:#0F284A;" d="M559.152,496.693c-10.146,2.335-20.449,3.632-28.633-4.418c-7.818-7.69-11.31-17.396-5.388-27.613
	c8.004-13.808,20.302-15.713,34.422-10.14c3.408-1.42,4.274-4.373,4.615-7.643C575.484,464.792,573.799,481.395,559.152,496.693z"/>
<path style="fill:#B3BDC9;" d="M628.952,488.867c2.755,10.847,6.803,3.384,9.493,0.314c11.957-13.643,10.529-30.575,10.924-47.011
	c13.633,35.313-0.059,65.513-32.789,69.822C620.91,503.899,624.931,496.383,628.952,488.867z"/>
<path style="fill:#B3BDC7;" d="M590.199,500.793c23.134-13.208,26.031-34.885,24.458-58.432
	c14.111,33.91,0.048,65.082-31.858,69.814C582.469,506.451,585.9,503.353,590.199,500.793z"/>
<path style="fill:#E9B521;" d="M705.842,676.152c-0.095-2.482-0.19-4.964-0.285-7.446c-1.253-3.7-0.399-7.026,1.789-10.116
	c6.975-6.723,10.856,0.648,14.979,2.08c-4.013-4.673-13.918-5.384-15.747-14.494c-0.102-20.084,7.352-25.968,26.64-19.955
	c9.897,3.085,31.177-2.728,18.466,20.819c-4.015,3.401-7.848,2.879-12.615-1.303c4.151,4.738,10.903,4.124,12.516,9.929
	c3.528,6.917,6.412,14.254,0.276,20.828c-5.601,6.001-13.856,7.559-20.714,3.975C722.827,676.122,713.698,680.531,705.842,676.152z"
	/>
<path style="fill:#E2A545;" d="M802.784,575.024c-8.098,20.637-19.34,39.324-34.486,55.591
	c1.173-23.714,17.582-39.595,29.853-57.568C798.335,572.778,801.181,574.325,802.784,575.024z"/>
<path style="fill:#0E2F57;" d="M614.079,645.147c-7.628,0.7,2.596,17.475-10.114,12.086c-7.274-3.084-7.127-12.024-3.806-18.362
	c3.402-6.492,8.997-11.849,14.492-0.898C614.461,640.365,614.27,642.756,614.079,645.147z"/>
<path style="fill:#0F284A;" d="M706.577,646.176c7.247,9.21,19.601,10.742,29.408,19.201c-13.225,8.907-18.524-9.688-28.646-6.783
	C707.089,654.452,706.833,650.314,706.577,646.176z"/>
<path style="fill:#0F284A;" d="M751.584,655.667c-6.297-2.855-12.649-5.596-18.868-8.613c-3.25-1.577-7.926-3.51-5.226-7.961
	c2.415-3.98,6.991-2.527,9.742,0.386c4.049,4.286,8.263,7.653,14.455,7.56C751.65,649.916,751.617,652.792,751.584,655.667z"/>
<path style="fill:#272C2C;" d="M959.859,907.946c-2.365,6.421-4.73,12.842-7.086,19.258c4.602-53.614-28.78-81.82-69.971-104.995
	c-17.131-9.638-34.213-19.424-50.781-29.985c-15.379-9.802-17.195-23.19-6.322-37.639c-1.451,16.675,9.443,25.838,21.496,33.473
	c19.403,12.29,39.467,23.529,59.053,35.537c24.557,15.057,44.359,34.31,53.337,62.707
	C959.677,893.527,959.768,900.736,959.859,907.946z"/>
<path style="fill:#363931;" d="M775.1,708.808c15.06-18.259,35.174-17.206,55.255-13.375c25.273,4.822,45.542,18.236,60.49,39.376
	c2.195,8.398,11.679,15.298,4.84,26.531c-13.068-8.61-14.331-26.736-28.158-33.961c-9.076-10.319-20.545-16.458-33.86-19.372
	c-17.222-2.858-34.45-2.697-51.684-0.115C779.688,708.197,777.394,708.503,775.1,708.808z"/>
<path style="fill:#322D20;" d="M791.362,850.069c3.252-0.01,7.198,0.16,8.113,3.543c5.553,20.539,21.866,29.987,38.985,38.734
	c-2.647,4.031-6.981,4.01-11.059,4.605c-15.122-3.75-26.662-12.611-32.21-26.939c-3.502-9.044-9.799-12.403-17.714-15.019
	C780.731,849.478,784.983,846.775,791.362,850.069z"/>
<path style="fill:#303638;" d="M791.362,850.069c-4.627,1.641-9.254,3.283-13.883,4.924c-8.122-0.428-16.243-0.856-24.36-1.283
	c-5.024-8.187-2.531-11.37,6.716-10.146c9.829,1.301,19.664,2.548,29.497,3.821C789.915,848.351,790.592,849.245,791.362,850.069z"
	/>
<path style="fill:#1D1E5A;" d="M827.401,896.951c3.679-1.537,7.357-3.074,11.047-4.608c4.5,2.06,12.925-2.506,12.666,7.528
	C842.567,904.088,834.58,903.795,827.401,896.951z"/>
<path style="fill:#DEBF55;" d="M781.983,707.891c17.236-4.725,34.466-6.735,51.68,0.116
	C816.439,707.968,799.211,707.93,781.983,707.891z"/>
<path style="fill:#5F412C;" d="M799.562,908.046c-2.01,5.283,0.325,13.017-8.239,14.602c-0.101-5.516-0.54-11.052-0.175-16.535
	c0.218-3.277,0.459-8.406,5.851-6.205C798.681,900.593,798.753,905.222,799.562,908.046z"/>
<path style="fill:#1D2E44;" d="M507.227,184.173c-6.389-6.24-23.246-2.119-23.846-19.16c-0.266-7.561,23.245-32.866,30.322-31.927
	c22.137,2.937,12.287,24.765,18.7,36.776C538.263,180.838,518.76,181.227,507.227,184.173z"/>
<path style="fill:#182B4A;" d="M574.264,180.949c0.002-10.092,1.947-16.635,9.028-20.221c6.705-3.397,12.329-1.509,16.255,4.794
	c2.454,3.94,5.704,4.06,9.799,3.411c7.086-1.122,12.392,1.11,14.098,8.921c1.64,7.505-0.392,14.269-6.207,18.652
	c-9.004,6.788-20.299,16.254-30.261,11.727C577.393,203.878,575.855,189.577,574.264,180.949z"/>
<path style="fill:#333E3E;" d="M424.449,128.013c8.749,6.124,19.378,12.619,20.604,25.925c1.305,14.168-10.255,19.253-20.729,20.159
	c-10.077,0.871-19.919-4.489-22.39-16.417C400.214,149.376,415.024,128.887,424.449,128.013z"/>
<path style="fill:#E4EAEE;" d="M452.046,335.55c-16.324-10.302-34.145,0.919-50.847-3.681c2.976-15.005,15.032-20.008,35.342-14.09
	c6.559,1.911,12.061,7.189,19.564,6.231c2.66,2.663,5.319,5.325,7.979,7.988C460.07,333.183,456.058,334.366,452.046,335.55z"/>
<path style="fill:#3F2732;" d="M529.271,255.769c0.23-1.739,0.46-3.477,0.694-5.22c7.938,1.74,16.109,2.8,23.737,5.431
	c6.88,2.373,13.167,6.467,19.71,9.813C560.776,272.815,542.655,268.695,529.271,255.769z"/>
<path style="fill:#1C3051;" d="M583.341,575.439c2.467,12.005-4.914,14.417-16.302,14.391c-8-0.018-10.501-1.476-10.601-10.287
	c-0.156-13.854,6.546-16.386,18.433-17.06C585.626,561.874,584.098,567.622,583.341,575.439z"/>
<path style="fill:#1C3050;" d="M632.795,529.109c7.829,5.403,18.242,9.319,17.669,16.832c-0.532,6.972-10.167,13.966-18.021,13.77
	c-7.065-0.176-15.327-7.701-15.719-14.24C616.197,536.68,627.381,535.039,632.795,529.109z"/>
<path style="fill:#253A58;" d="M771.521,562.389c1.958,16.896-11.505,15.817-19.072,16.313c-9.318,0.61-6.673-9.83-7.379-15.892
	c-1.661-14.267,11.552-12.423,18.47-13.667C775.48,546.996,768.123,559.224,771.521,562.389z"/>
<path style="fill:#1A2C4A;" d="M687.262,544.759c13.671-20.163,25.218-14.73,36.111,0.284
	C705.323,565.112,705.21,565.111,687.262,544.759z"/>
<path style="fill:#312D2E;" d="M376.421,707.095c41.735-12.222,68.118,5.137,86.119,42.466
	c7.077,14.674,18.748,27.133,28.328,40.609c0.219,5.588,1.501,11.276-2.403,18.524c-18.433-27.189-36.775-52.963-53.641-79.67
	c-8.225-13.024-17.337-17.616-32.888-15.421C394.134,714.703,380.804,724.245,376.421,707.095z"/>
<path style="fill:#AF8303;" d="M513.323,838.453c0.16-30.201,0.162-60.404,0.603-90.601c0.098-6.694-2.202-13.893,2.559-20.064
	c4.88,2.007,3.252,6.366,3.267,9.85c0.132,31.181,0.109,62.362,0.01,93.543c-0.009,2.722,1.653,6.468-0.787,7.074
	c3.28-36.381-1.987-73.706,2.765-110.586c1.405,1.208,2.809,2.416,4.214,3.623c3.48,36.628,0.658,73.344,1.513,110.009
	c0.121,5.214,0.088,10.921-7.308,10.664C510.25,851.621,511.321,845.137,513.323,838.453z"/>
<path style="fill:#273642;" d="M414.778,777.081c-0.108,19.222-0.217,38.444-0.325,57.667c2.524,7.092,1.466,10.934-7.17,7.9
	c0-26.845,0-53.69,0-81.897C415.637,764.531,413.684,771.517,414.778,777.081z"/>
<path style="fill:#F0C33C;" d="M513.323,838.453c1.358,4.403-0.586,11.867,6.883,11.21c7.075-0.622,5.172-7.646,5.214-12.263
	c0.322-35.368,0.386-70.737,0.532-106.107c0.99-0.047,1.977-0.043,2.965,0.01c0.171,35.502-0.531,71.039,0.895,106.49
	c0.672,16.707-5.687,20.088-19.875,16.472C506.645,848.047,506.502,842.504,513.323,838.453z"/>
<path style="fill:#1B1B17;" d="M521.741,727.67c0,38.612,0,77.224,0,115.836c-1.748,0.013-3.495,0.027-5.243,0.04
	c0-38.588,0-77.175-0.006-115.76C518.237,727.749,519.989,727.71,521.741,727.67z"/>
<path style="fill:#564530;" d="M407.282,842.648c4.992-0.273,6.868-3.372,7.17-7.9c5.283,1.467,12.551-2.574,15.807,2.623
	c3.77,6.018,5.526,13.955-6.952,12.113C420.266,841.831,410.648,849.564,407.282,842.648z"/>
<path style="fill:#25191C;" d="M482.846,707.973c15.967-9.188,33.29-4.02,49.715-3.165c8.622,0.449,5.416,9.149,1.009,14.539
	c-1.334-1.036-2.67-2.072-4.006-3.109c-1.342-1.519-2.952-2.659-4.835-3.418c-13.496-3.388-28.223,3.793-41.108-4.797
	L482.846,707.973z"/>
<path style="fill:#DFBE5B;" d="M528.853,711.308c0.237,1.642,0.474,3.284,0.712,4.928c-15.119-2.659-31.043,3.951-45.706-3.965
	C498.783,708.508,513.819,709.948,528.853,711.308z"/>
<path style="fill:#7C5A02;" d="M528.853,711.308c-15.001,0.319-30.003,0.638-44.999,0.96c-0.074-1.413-0.153-2.829-0.232-4.245
	C498.627,710.1,514.162,704.898,528.853,711.308z"/>
<path style="fill:#48391F;" d="M114.918,743.316c-0.542-1.448-1.084-2.896-1.626-4.344c1.797-8.762-1.391-11.87-10.235-9.564
	c-14.106,3.677-28.301,7.011-42.466,10.491c-5.942-2.127-11.597,6.565-19.554-1.224c24.191-9.252,48.346-13.784,72.324-18.846
	c3.796-0.801,8.425-0.301,8.25,4.96C121.391,731.496,126.802,740.695,114.918,743.316z"/>
<path style="fill:#34333A;" d="M106.371,854.435c-0.045,9.408-0.093,18.815-0.133,28.223c-0.022,5.157,0.165,8.567,7.327,10.255
	c11.75,2.771,11.922,12.552,1.337,22.965c-1.581-6.439,2.263-16.797-10.855-14.941c-1.161,0.164-2.771-0.183-3.622-0.924
	C94.295,894.676,98.843,860.368,106.371,854.435z"/>
<path style="fill:#A69570;" d="M49.547,900.026c0.191-43.355,0.382-86.71,0.575-130.062c6.908,24.359,2.708,49.244,2.667,73.812
	C52.758,862.461,57.76,881.735,49.547,900.026z"/>
<path style="fill:#5A6068;" d="M110.36,791.137c-3.368,9.228-3.891,18.773-3.181,28.457c-1.356,0.936-2.712,1.872-4.067,2.808
	c-2.909-22.655-3.184-45.304,0.143-67.945c1.27-0.111,2.539-0.221,3.809-0.332c0-0.001-0.029,0.295-0.029,0.295
	C111.991,766.31,106.158,779.178,110.36,791.137z"/>
<path style="fill:#131921;" d="M103.255,754.457c-0.049,22.65-0.098,45.3-0.145,67.948
	C95.659,799.738,95.413,777.089,103.255,754.457z"/>
<path style="fill:#102948;" d="M667.905,765.357c2.951,13.278-11.096,10.116-15.629,16.155c2.415,1.178,2.517,2.53,0.306,4.056
	c0.521,8.454-5.541,18.094,9.196,22.664c10.125,3.14,0.524,9.921-1.925,14.847c-20.665,10.612-34.247,7-45.598-12.943
	c-8.267-14.523-8.985-29.611-0.804-44.643c1.273-21.81,17.563-23.994,33.989-26.001C667.05,743.537,671.146,748.714,667.905,765.357
	z"/>
<path style="fill:#F1B622;" d="M667.905,765.357c0.675-14.549-11.363-19.044-20.463-25.864c4.885-2.69,4.758-7.414,4.882-12.037
	c6.145-3.663,11.832,5.486,18.019,0.645c1.97-5.038,3.939-10.076,5.914-15.108c1.755-0.135,3.504-0.276,5.253-0.417
	c16.855,9.023,20.787,23.674,17.588,41.167c-0.939,5.135,1.262,10.057,0.189,15.089c-9.238,0.144-18.475,0.289-27.715,0.43
	C670.348,767.959,669.127,766.658,667.905,765.357z"/>
<path style="fill:#302F3B;" d="M659.257,831.085c-17.257,19.247-49.553,10.652-58.792-17.182
	c-4.618-13.911-7.257-29.558,1.259-43.949c7.156,2.843,7.803,8.988,8.369,15.549c2.78,32.23,9.057,38.626,40.688,41.908
	C654.06,827.751,656.912,828.75,659.257,831.085z"/>
<path style="fill:#C1A93C;" d="M659.257,831.085c-34.718,3.52-50.096-8.617-54.166-42.506c-0.75-6.247-2.221-12.409-3.363-18.618
	c2.71-4.635,3.551-14.193,11.723-4.466c-0.193,5.7-0.668,11.407-0.533,17.1c0.763,32.299,14.809,44.358,46.936,40.485
	C659.654,825.748,659.456,828.417,659.257,831.085z"/>
<path style="fill:#303531;" d="M670.344,728.102c-4.167,12.532-4.167,12.532-18.019-0.645
	c-7.504-10.958-18.723-12.351-30.657-11.903c1.285-10.338,2.347-10.739,20.016-7.569
	C655.501,708.618,660.915,721.219,670.344,728.102z"/>
<path style="fill:#1F294D;" d="M684.699,792.63c8.058,0.31,16.127,0.446,24.167,1.012c3.397,0.239,5.812,2.32,5.175,6.167
	c-0.668,4.033-3.579,4.689-6.869,3.474c-6.569-2.428-13.239-3.222-20.138-2.052c-6.982-2.01-14.782,0.161-21.319-4.154
	C670.828,790.407,677.367,789.825,684.699,792.63z"/>
<path style="fill:#493404;" d="M641.684,707.984c-6.793,2.202-16.935-4.446-20.016,7.569c-10.312,0.797-20.625,1.595-30.937,2.392
	c12.678-17.601,31.113-13.206,48.527-12.697C640.039,706.183,640.849,707.095,641.684,707.984z"/>
<path style="fill:#C0B178;" d="M652.582,785.569c-0.101-1.353-0.202-2.706-0.305-4.058c9.718,0.045,19.571-1.091,28.805,3.291
	c-2.155,1.466-4.319,2.931-6.484,4.395c-4.886,4.142-9.569,3.731-14.078-0.624C658.542,785.806,655.857,784.908,652.582,785.569z"/>
<path style="fill:#302209;" d="M660.52,788.573c4.699,0.209,9.397,0.417,14.087,0.625c3.348,1.142,6.706,2.285,10.077,3.43
	c-6.308,1.483-12.63,2.965-18.961,4.447C658.515,797.582,658.597,793.64,660.52,788.573z"/>
<path style="fill:#282B2A;" d="M180.253,777.252c19.445,27.607,38.857,55.237,58.391,82.781c1.798,2.535,4.13,6.119,6.63,6.503
	c20.526,3.153,12.898,14.811,8.209,25.705c-1.188-12.089-12.09-14.224-19.459-20.574c-10.648-9.175-15.531-23.964-26.473-33.621
	c-5.628-7.139-7.513-16.916-15.71-22.228c-6.086-9.285-12.142-18.594-18.272-27.854
	C167.918,779.429,171.605,776.817,180.253,777.252z"/>
<path style="fill:#724F05;" d="M153.306,886.985c5.083-5.976,9.981-7.736,15.75-4.537c0.818,0.453,1.127,4.101,0.49,4.534
	C164.885,890.151,159.903,892.404,153.306,886.985z"/>
<path style="fill:#23210F;" d="M327.07,735.523c10.424,1.09,6.469,9.317,6.587,14.624c0.462,20.813-0.509,41.674,0.463,62.451
	c0.523,11.177-7.845,27.46,13.284,30.443c0.741,0.105,0.525,6.985,0.755,10.707c-8.018-0.749-15.514-3.037-22.254-7.553
	c-3.055-35.545-3.095-71.09,0.031-106.633C326.315,738.216,326.692,736.87,327.07,735.523z"/>
<path style="fill:#453519;" d="M288.089,723.5c-2.986-5.55-1.114-7.824,4.967-8.45c15.646-1.609,31.246-3.659,46.872-5.46
	c12.249-1.412,7.932,8.209,9.269,14.052c-2.878,0.023-5.756,0.046-8.634,0.07c-15.453-3.568-30.908-3.219-46.364-0.023
	C292.162,723.626,290.125,723.563,288.089,723.5z"/>
<path style="fill:#BDA25A;" d="M325.937,739.563c1.643,35.547,1.577,71.093-0.031,106.636c-7.586-11.714-3.733-24.813-3.232-36.999
	C323.627,785.995,317.454,762.387,325.937,739.563z"/>
<path style="fill:#C3AE68;" d="M294.198,723.689c15.456-2.668,30.915-9.716,46.364,0.024
	C325.108,723.704,309.653,723.697,294.198,723.689z"/>
<path style="fill:#413219;" d="M153.167,716.336c5.709-11.783,17.876-7.77,27.022-10.309c13.361-3.709,27.428-4.87,41.19-7.147
	c21.413-3.544,23.445-0.889,15.531,23.171c-5.136-7.351-2.762-26.212-19.214-13.977C195.781,707.69,175.287,718.359,153.167,716.336
	z"/>
<path style="fill:#2A1B16;" d="M951.321,800.307c-5.709-0.536-4.316-6.107-6.487-9.155c0.233-10.84-0.513-21.807,0.928-32.479
	c2.024-14.994-2.747-24.198-18.068-26.973c2.01-4.048,5.969-4.194,9.681-4.834c4.597,0.451,9.194,0.902,13.791,1.352
	c0,0,0.02,0.693,0.02,0.693C955.489,752.702,955.277,776.501,951.321,800.307z"/>
<path style="fill:#112248;" d="M937.375,726.866c-2.325,3.411-5.918,4.286-9.677,4.835c-4.208-0.329-8.414-0.658-12.607-0.984
	c-1.798-2.286-5.492-3.705-4.53-7.34c1.159-4.378,4.916-2.782,7.559-2.127C924.604,722.858,930.965,724.962,937.375,726.866z"/>
<path style="fill:#191820;" d="M707.039,812.658c11.173,15.013,2.155,31.214,5.349,46.697c-1.985,0.142-3.969,0.284-5.954,0.425
	c0-15.594,0-31.188-0.009-46.775C706.417,813.011,707.039,812.658,707.039,812.658z"/>
<path style="fill:#0F284A;" d="M666.861,642.174c4.43-0.474,8.977-1.072,8.405,6.021c-0.372,4.622-0.606,9.12-6.602,9.648
	c-5.566,0.49-8.093-2.519-8.347-7.824C660.1,645.484,659.336,640.506,666.861,642.174z"/>
<path style="fill:#544722;" d="M699.288,768.832c-4.286-4.669-3.221-10.541-3.857-16.121c-1.371-12.03,7.087-29.013-15.028-31.047
	c0.365-3.028,0.729-6.057,1.101-9.086c17.494-2.838,24.286,4.195,22.569,22.043C702.964,746.141,707.423,758.287,699.288,768.832z"
	/>
<path style="fill:#997802;" d="M951.321,800.307c-0.047-23.801-0.093-47.602-0.137-71.399
	C958.15,752.697,958.311,776.495,951.321,800.307z"/>
<path style="fill:#F1C64D;" d="M110.36,791.137c-7.276-11.681-1.371-24.556-3.326-36.719
	C114.994,766.038,109.04,778.917,110.36,791.137z"/>
<path style="fill:#0F284A;" d="M357.224,641.883c4.43-0.474,8.977-1.072,8.405,6.021c-0.372,4.622-0.606,9.12-6.602,9.648
	c-5.566,0.49-8.093-2.519-8.347-7.824C350.463,645.193,349.699,640.215,357.224,641.883z"/>
</svg>
