<?xml version="1.0" encoding="utf-8"?>
<!-- Generator: Adobe Illustrator 28.3.0, SVG Export Plug-In . SVG Version: 6.00 Build 0)  -->
<svg version="1.1" id="Layer_1" xmlns="http://www.w3.org/2000/svg" xmlns:xlink="http://www.w3.org/1999/xlink" x="0px" y="0px"
	 viewBox="0 0 1000 1000" style="enable-background:new 0 0 1000 1000;" xml:space="preserve">
<g>
	<path style="fill:#FEEF0F;" d="M0.052,499.953C-0.754,222.913,227.352-4.13,507.816,0.057
		c268.327,4.006,492.283,222.676,492.134,500.607c-0.148,275.702-224.897,501.823-504.766,499.316
		C219.534,997.51-0.72,772.278,0.052,499.953z"/>
	<path d="M500.331,27.104C760.962,27.12,972.416,239.051,972.62,500.065c0.206,263.262-216.375,477.139-481.26,472.576
		C239.933,968.31,27.413,763.869,27.204,499.892C26.998,238.637,239.15,27.088,500.331,27.104z"/>
	<path style="fill:#FEFEFE;" d="M724.503,255.973c9.179-1.619,18.357-3.239,27.654-4.879c-1.078-3.053-4.056-3.932-4.57-7.187
		c9.999-0.583,15.274-8.417,21.741-14.393c12.445-11.5,24.709-23.197,37.005-34.858c3.535-3.352,6.718-6.974,6.675-13.037
		c5.09,3.544,8.388,8.132,12.242,12.104c5.973,6.155,11.681,12.572,17.78,18.596c2.401,2.372,2.433,3.754-0.093,5.895
		c-3.803,3.224-7.343,6.758-11.76,10.873c-0.689-5.941-2.337-10.607-6.015-14.434c-2.058-2.141-3.429-2.986-5.838-0.396
		c-3.269,3.514-6.846,6.764-10.482,9.905c-2.145,1.852-1.818,3.016-0.067,5.008c7.547,8.585,7.472,8.649-0.974,16.311
		c-1.377,1.249-2.74,2.516-4.562,4.191c-0.403-2.272-0.446-4.256-1.117-5.996c-2.596-6.73-5.908-7.497-10.905-2.75
		c-3.638,3.457-7.198,7.011-11.016,10.26c-2.555,2.175-3.288,4.324-0.693,6.648c5.854,5.242,10.988,11.707,20.39,13.439
		c-5.541,3.32-11.052,6.692-16.639,9.932c-1.847,1.071-2.49-0.841-3.431-1.821c-5.473-5.708-10.934-11.429-17.547-18.347
		c2.523,12.911,2.853,24.436,3.094,35.968c3.68,31.846-14.035,68.486-31.263,86.901c3.837-2.506,8.109-5.136,12.122-8.166
		c4.966-3.751,6.784-3.395,9.77,2.13c7.106,13.152,11.971,27.222,16.209,41.486c5.981,20.132,9.499,40.671,10.844,61.703
		c4.672,73.065-15.8,138.36-61.036,195.547c-29.302,37.043-65.708,65.542-109.562,83.954c-5.466,2.295-7.381,1.39-6.551-3.566
		c2.799-16.714,5.35-33.481,9.254-49.989c0.355-0.781-0.879-0.418-0.045-0.339c0.138,0.013,0.144,0.218,0.031,0.619
		c-2.548,9.062-5.255,18.089-7.67,27.178c-8.225,30.953-28.043,51.311-57.139,63.156c-18.749,7.633-38.337,11.747-58.635,12.181
		c-15.316,1.236-30.62,1.735-45.859-0.86c-1.26-0.215-3.244,0.364-3.366-1.702c-0.036-0.602,1.343-1.287,2.074-1.934
		c1.783-3.704,6.511-3.608,9.42-7.608c-8.47-2.135-15.521-6.38-22.352-11.105c-6.218-4.301-11.891-9.253-17.727-14.014
		c-3.879-3.165-5.903-7.457-7.434-12.131c-6.708-20.475-14.663-40.506-21.454-60.193c1.725,3.453,2.279,7.965,3.092,12.37
		c2.508,13.587,4.918,27.194,7.176,40.825c0.427,2.581,2.09,5.649-0.276,7.742c-2.599,2.298-5.669,0.475-8.241-0.737
		c-15.729-7.41-31.228-15.245-45.662-25.039c-42.751-29.008-75.244-66.966-97.552-113.404c-14.52-30.225-23.4-62.176-26.235-95.776
		c-4.299-50.957,3.527-99.707,25.331-146.084c0.712-1.515,1.484-3.002,2.306-4.464c1.953-3.476,4.405-4.272,7.571-1.468
		c4.413,3.908,9.446,6.923,12.845,8.993c-20.674-23.769-31.087-52.803-29.679-86.081c0.771-12.695,1.543-25.39,2.319-38.16
		c-34.698,10.59-61.931-20.159-61.427-46.95c0.581-30.866,31.861-50.641,59.603-37.004c25.375,12.474,36.087,45.022,22.074,66.916
		c-2.488,3.887-5.777,7.041-9.54,10.651c7.652,1.431,14.682,2.745,21.712,4.059c10.775-0.377,21.14,2.28,31.616,4.188
		c18.12,3.299,36.195,6.831,54.223,10.113c-1.602-1.133-3.596-1.799-5.409-2.802c-6.234-3.45-6.508-5.777-0.35-9.619
		c16.027-9.999,33.022-18.064,50.687-24.778c37.388-14.209,76.188-19.577,115.896-17.231c47.439,2.803,91.607,16.775,132.09,41.904
		c6.979,4.332,6.88,6.343-0.234,10.037c-1.632,0.847-3.232,1.796-5.101,2.014C670.827,266.184,697.225,258.649,724.503,255.973z"/>
	<path style="fill:#FEEF0F;" d="M235.681,297.128c1.546,10.32,1.734,20.802,4.132,31.033c5.267,22.475,14.738,42.634,31.432,59.161
		c-7.424-2.298-13.822-6.438-19.458-11.53c-3.25-2.936-4.353-2.371-6.069,1.217c-12.36,25.841-21.032,52.86-25.006,81.206
		c-8.563,61.078,0.733,119.3,29.859,173.874c31.398,58.832,78.135,101.224,139.226,127.848c1.309,0.57,2.704,0.945,5.204,1.804
		c-3.831-22.044-7.52-43.268-11.209-64.492c0.39-0.121,0.78-0.241,1.17-0.362c4.297,11.357,8.696,22.677,12.862,34.082
		c3.729,10.208,7.281,20.483,10.74,30.785c1.168,3.48,2.808,6.585,5.602,8.898c13.159,10.893,25.91,22.476,44.03,26.486
		c-4.236,4.177-8.696,6.56-13.643,8.163c-20.61-4.572-41.154-9.491-60.586-17.914C281.376,742.922,217.278,666.367,195.526,556.49
		c-14.597-73.733-1.886-143.935,34.994-209.574c1.518-2.702,1.777-5.263,1.592-8.325C231.268,324.62,231.046,310.65,235.681,297.128
		z"/>
	<path style="fill:#FEEF0F;" d="M491.703,809.798c15.863-2.399,31.731-4.851,47.06-9.746c33.331-10.644,57.734-30.424,66.985-65.722
		c2.489-9.497,5.519-18.853,8.344-28.262c0.457-1.522,0.496-3.302,3.125-4.96c-3.507,20.298-6.869,39.753-10.369,60.009
		c13.542-5.317,25.835-11.412,37.501-18.658c74.867-46.498,120.488-112.876,134.481-200.135
		c9.104-56.774,0.447-111.24-23.741-163.36c-2.326-5.012-3.936-5.751-8.05-1.811c-2.974,2.848-6.812,4.82-10.358,7.034
		c-2.262,1.412-4.693,2.554-6.934,3.755c-1.442-1.262-0.307-1.805,0.093-2.222c23.144-24.102,34.009-53.203,35.222-86.255
		c0.03-0.828,0.202-1.652,0.31-2.47c3.361,14.593,4.571,29.328,2.573,44.198c-0.39,2.903,0.967,4.813,2.164,6.943
		c28.254,50.282,41.575,104.358,39.611,161.884c-4.847,141.967-104.131,261.432-242.615,292.543
		C542.295,808.138,517.133,810.47,491.703,809.798z"/>
	<path style="fill:#FEEF0F;" d="M724.503,255.973c-19.959,4.115-39.913,8.256-59.879,12.333c-8.554,1.747-17.136,3.36-26.196,4.08
		c5.056-2.797,10.112-5.594,15.86-8.774c-49.447-31.738-103.027-47.031-161.345-45.685c-53.122,1.227-101.852,16.549-147.166,45.566
		c6.003,3.217,11.102,5.949,16.2,8.681c-0.13,0.509-0.26,1.019-0.389,1.528c-30.394-5.688-60.787-11.377-91.173-17.064
		c11.784-2.168,23.731-2.566,35.633-2.747c3.896-0.059,6.747-0.951,9.706-3.141c37.217-27.546,78.499-46.281,123.992-54.729
		c85.977-15.966,165.485,0.382,237.676,50.124c7.293,5.025,14.166,8.692,23.33,8.102
		C708.653,253.74,716.642,254.587,724.503,255.973z"/>
	<path style="fill:#FEEF0F;" d="M53.304,440.761c0.131-33.391,27.573-60.642,60.959-60.535
		c33.383,0.107,60.784,27.531,60.749,60.799c-0.035,33.541-27.958,61.284-61.346,60.951
		C80.287,501.645,53.174,474.147,53.304,440.761z"/>
	<path style="fill:#FEEF0F;" d="M823.975,440.819c0.113-33.405,27.511-60.664,60.902-60.592
		c33.379,0.072,60.809,27.473,60.806,60.742c-0.004,33.543-27.874,61.286-61.289,61.009
		C851.048,501.7,823.862,474.182,823.975,440.819z"/>
	<path style="fill:#FEFEFE;" d="M623.393,810.335c-6.919,14.151-0.353,26.615,1.99,39.249c3.846,20.739,8.459,41.335,12.732,61.995
		c1.409,6.813,3.881,13.068,10.763,18.2c-15.041,3.146-28.599,5.982-43.161,9.028c7.471-14.568,0.184-27.378-1.717-40.498
		c-0.678-4.682-0.212-11.213-3.657-13.332c-2.9-1.783-8.681,1.065-13.172,1.936c-4.51,0.875-8.988,1.923-13.508,2.738
		c-3.1,0.559-3.878,1.822-3.102,5.091c2.266,9.545,4.057,19.203,6.053,28.813c1.462,7.038,3.53,13.775,11.445,18.939
		c-15.283,3.214-28.767,6.049-43.577,9.163c6.694-11.829,1.955-22.47-0.098-33.045c-4.179-21.529-8.878-42.957-13.472-64.404
		c-1.692-7.898-2.802-16.14-11.579-21.993c14.79-3.114,28.079-5.913,41.916-8.826c-5.812,16.192,2.251,30.379,3.907,45.188
		c0.236,2.11,1.721,1.98,3.284,1.642c8.367-1.811,16.71-3.744,25.118-5.337c3.368-0.638,3.174-2.5,2.647-4.933
		c-1.724-7.961-3.455-15.921-5.094-23.899c-1.331-6.477-3.944-12.195-10.455-16.677
		C595.238,816.289,608.646,813.454,623.393,810.335z"/>
	<path style="fill:#FEFEFE;" d="M902.742,721.119c-4.894,7.46-8.485,14.785-14.063,20.641c-7.06,7.413-16.274,7.032-25.191,4.907
		c-10.916-2.601-21.623-6.083-32.667-8.737c12.676,8.503,20.987,23.499,39.326,24.99c-9.358,11.203-18.202,21.79-27.987,33.504
		c-0.703-8.684-5.295-13.397-10.449-17.7c-21.517-17.968-43.048-35.919-64.587-53.862c-4.754-3.96-9.821-7.203-16.411-6.331
		c-0.549-2.297,1.215-3.174,2.191-4.321c9.628-11.306,18.44-23.32,28.924-33.883c11.947-12.038,24.053-15.238,36.084-9.821
		c14.98,6.745,21.753,17.929,20.343,35.165c-0.454,5.554,3.573,4.52,5.903,4.947C863.366,714.136,881.953,720.968,902.742,721.119z"
		/>
	<path style="fill:#FEFEFE;" d="M243.584,869.758c-9.406-5.47-17.786-10.344-27.254-15.851
		c13.461-5.893,18.737-17.528,25.056-28.238c8.917-15.115,17.689-30.317,26.505-45.492c6.698-11.53,7.836-15.635,8.009-29.572
		c9.153,5.345,17.857,10.421,26.554,15.51c1.869,1.094,1.155,2.963,1.227,4.533c1.144,25.075,2.25,50.152,3.375,75.228
		c0.033,0.727,0.173,1.45,0.877,2.342c9.551-20.583,27.715-36.992,28.492-62.386c8.196,4.766,15.887,9.26,23.604,13.71
		c1.863,1.074,2.63,2.029,0.321,3.503c-10.13,6.468-15.499,16.742-21.28,26.696c-13.429,23.124-27.006,46.163-40.246,69.395
		c-2.354,4.131-3.711,4.331-7.066,1.106c-10.803-10.386-14.879-23.439-15.701-37.848c-1.047-18.33-1.936-36.668-2.899-55.108
		c-2.448,0.156-2.574,2.216-3.322,3.476c-5.438,9.16-10.778,18.379-16.083,27.618c-2.704,4.71-5.336,9.465-7.882,14.263
		C243.225,857.629,243.855,863.205,243.584,869.758z"/>
	<path style="fill:#FEFEFE;" d="M104.773,720.768c30.697-6.829,59.102-19.047,88.495-28.12c3.587-1.107,7.15-2.313,10.664-3.636
		c7.508-2.827,15.245-5.453,16.7-16.85c8.027,11.217,15.092,20.929,21.948,30.786c1.663,2.391-1.156,3.737-2.278,5.218
		c-18.705,24.69-37.502,49.311-56.28,73.946c-4.187,5.493-8.058,11.184-11.283,17.312c-3.211,6.101-6.134,6.343-10.06,0.944
		c-6.838-9.405-13.658-18.822-21.354-29.429c15.926,1.875,20.401-10.293,27.669-18.786c1.552-1.813,0.522-2.943-0.469-4.299
		c-4.697-6.419-9.448-12.8-14.022-19.306c-1.438-2.045-2.647-2.591-5.123-1.535c-5.174,2.206-10.562,3.902-15.823,5.911
		c-5.556,2.121-8.179,6.769-9.836,13.776C116.781,737.203,110.75,728.948,104.773,720.768z"/>
	<path style="fill:#FEFEFE;" d="M174.795,550.316c4.549,17.494,9.538,33.451,12.732,49.76c4.314,22.023-9.826,38.222-32.8,39.132
		c-20.934,0.829-33.187-10.303-36.969-34.799c14.528,11.597,28.875,10.665,42.833,0.969c4.385-3.046,5.877-7.95,4.126-13.724
		c-27.391,7.802-55.16,13.734-82.245,22.25c-5.492,1.727-10.365,4.271-14.649,10.31c-3.878-14.707-7.381-27.99-11.052-41.911
		c19.516,5.868,36.043-4.209,53.492-7.745c15.524-3.146,30.706-7.969,46.066-11.948
		C163.355,560.789,169.838,558.208,174.795,550.316z"/>
	<path style="fill:#FEFEFE;" d="M656.891,793.576c17.937-11.425,34.329-21.832,50.669-32.319c1.927-1.237,3.122-1.425,4.46,0.797
		c3.34,5.547,6.894,10.966,10.35,16.443c0.537,0.851,1.544,1.656,0.948,2.784c-0.805,1.524-2.223,0.471-3.352,0.534
		c-1.854,0.104-3.806-0.336-5.562,0.089c-4.921,1.19-10.608,2.758-13.079,6.772c-2.83,4.599,3.343,7.772,5.304,11.668
		c2.23,4.429,4.629,10.593,8.397,11.925c3.906,1.381,8.341-4.21,12.497-6.807c2.727-1.704,4.456-2.312,6.403,1.174
		c3.147,5.637,6.867,10.955,11.182,17.72c-7.753-3.32-12.833,0.167-18.021,3.464c-1.823,1.159-1.902,2.07-0.726,3.867
		c5.379,8.212,10.69,16.473,15.815,24.845c2.1,3.431,4.411,1.643,6.246,0.394c9.094-6.19,18.781-11.899,22.537-25.289
		c3.612,9.675,6.601,17.791,9.694,25.868c0.63,1.644-0.292,2.293-1.361,2.973c-18.464,11.744-36.934,23.48-56.64,36.004
		c2.181-14.626-6.936-23.616-13.19-33.707c-11.781-19.01-23.973-37.766-36.026-56.607
		C669.768,800.438,665.688,795.135,656.891,793.576z"/>
	<path style="fill:#FEFEFE;" d="M898.006,638.127c7.887-6.987,14.188-13.083,18.502-20.812c2.758-4.942,5.185-10.031,3.428-16.042
		c-2.283-7.806-8.717-10.918-16.064-7.378c-6.3,3.036-11.288,7.783-15.991,12.893c-9.673,10.508-21.396,17.177-36,15.547
		c-24.466-2.729-37.025-24.318-28.477-47.919c0.78-2.154,1.742-4.241,2.619-6.36c6.497-15.705,10.19-17.274,25.788-11.306
		c2.652,1.015,3.384,1.866,1.257,4.201c-3.79,4.16-7.557,8.341-10.106,13.473c-2.556,5.147-2.05,11.853,1.671,15.104
		c4.445,3.884,8.876,2.252,13.237-0.423c7.382-4.529,13.289-10.798,19.613-16.565c13.873-12.65,32.565-14.154,48.421-3.789
		c13.579,8.877,19.183,27.175,13.335,44.052c-3.016,8.703-7.122,16.893-12.382,24.485c-1.08,1.558-1.948,3.187-4.319,2.965
		C914.892,639.539,907.235,638.919,898.006,638.127z"/>
	<path style="fill:#FEFEFE;" d="M439.525,948.016c-15.695-2.847-29.136-5.286-43.569-7.904c11.41-10.579,10.132-24.561,12.825-37.11
		c3.856-17.964,6.543-36.176,10.115-54.205c1.064-5.37-0.679-6.862-5.705-7.282c-6.782-0.566-13.076,1.885-20.472,2.976
		c3.622-8.662,7.014-16.43,10.094-24.32c1.085-2.779,2.795-2.508,4.975-2.11c22.797,4.165,45.591,8.348,68.41,12.389
		c3.579,0.634,4.408,1.844,2.884,5.286c-2.784,6.289-5.3,12.706-7.663,19.167c-1.337,3.656-2.659,3.674-4.855,0.741
		c-0.99-1.323-2.161-2.649-3.536-3.523c-9.48-6.025-13.163-4.316-15.148,6.684c-3.932,21.785-7.932,43.559-11.956,65.328
		C434.498,931.84,433.586,939.466,439.525,948.016z"/>
	<path style="fill:#FEFEFE;" d="M495.287,102.621c0,11.047-0.112,22.095,0.054,33.14c0.069,4.584,0.49,9.199,3.341,13.171
		c1.808,2.519,1.036,3.758-2.064,3.737c-6.252-0.042-12.504-0.013-19.266-0.013c7.956-14.503,4.607-29.789,4.455-44.604
		c-0.152-14.783,3.613-30.246-6.143-44.851c7.983,0,15.176,0.088,22.364-0.045c2.737-0.051,3.412,1.967,4.512,3.661
		c10.016,15.421,20.022,30.847,30.738,46.216c-0.918-16.604,4.175-33.633-4.835-49.971c7.646,0,14.706,0,21.597,0
		c-6.491,25.609-1.417,51.515-2.738,77.18c-0.097,1.877,0.076,3.766,0.08,5.649c0.018,9.761-0.309,9.969-9.682,6.157
		c-8.265-3.362-14.206-9.385-19.066-16.652c-7.408-11.078-14.827-22.148-22.242-33.221
		C496.023,102.323,495.655,102.472,495.287,102.621z"/>
	<path style="fill:#FEFEFE;" d="M409.315,166.183c-7.814,1.732-15.07,3.341-22.539,4.997c4.402-25.542,5.176-50.983,7.588-76.26
		c0.607-6.36,1.965-13.171-6.644-17.959c10.089-2.163,18.372-3.836,26.598-5.753c3.379-0.787,3.801,1.817,4.835,3.671
		c10.575,18.96,21.094,37.951,31.643,56.925c3.045,5.478,6.278,10.827,10.043,15.865c3.702,4.953,3.096,6.411-2.716,7.708
		c-8.134,1.816-16.269,3.633-25.527,5.701c4.923-10.95-1.156-18.286-6.676-25.793c-7.079,1.714-14.71,1.891-21.108,5.364
		C401.475,142.461,404.926,160.621,409.315,166.183z"/>
	<path style="fill:#FEFEFE;" d="M632.926,102.884c-4.655-3.295-7.57-7.48-12.131-9.871c-8.474-4.442-15.814-4.078-22.122,3.015
		c-10.247,11.524-14.473,25.196-12.013,40.58c0.556,3.474,2.064,6.752,4.763,9.34c6.053,5.806,9.22,5.183,11.955-2.502
		c1.119-3.145,2.117-6.333,3.267-9.466c1.792-4.882,3.48-9.753,0.668-15.712c7.604,2.606,14.244,4.885,20.887,7.155
		c1.994,0.681,2.324,1.769,1.582,3.823c-4.319,11.963-8.481,23.983-12.679,35.99c-0.496,1.418-0.972,2.324-2.892,2.548
		c-17.456,2.03-38.61-9.779-46.333-25.493c-12.054-24.526,5.18-69.701,42.571-67.699c9.215,0.493,17.318,4.375,25.001,9.19
		c1.134,0.711,2.649,1.224,2.003,3.309C635.87,92.194,634.494,97.36,632.926,102.884z"/>
	<path style="fill:#FEFEFE;" d="M667.08,90.199c14.383,6.402,27.112,12.141,39.915,17.709c2.738,1.191,3.334,2.403,1.921,5.156
		c-2.264,4.415-4.11,9.044-6.445,14.284c-3.326-4.668-6.563-8.543-11.494-10.664c-2.944-1.266-4.446-0.867-5.367,2.217
		c-0.472,1.582-1.391,3.026-2.04,4.561c-1.537,3.637-4.684,7.601-4.075,10.85c0.589,3.143,6.141,3.477,9.456,5.149
		c1.984,1.001,3.071,1.769,1.882,4.177c-2.099,4.25-3.947,8.623-6.173,13.548c-1.198-1.832-1.896-3.206-2.871-4.341
		c-5.167-6.012-8.903-5.495-12.051,1.617c-1.938,4.378-3.521,8.953-5.857,13.105c-2.047,3.637-0.845,5.452,2.471,6.592
		c7.403,2.545,14.545,6.758,24.505,2.58c-4.721,6.534-8.288,11.365-11.727,16.286c-1.196,1.712-2.498,1.873-4.248,1.088
		c-14.589-6.553-29.188-13.085-44.886-20.117c9.53-4.896,11.701-13.86,15.335-21.812c6.673-14.605,13.147-29.302,19.645-43.986
		C667.324,102.896,669.976,97.608,667.08,90.199z"/>
	<path style="fill:#FEFEFE;" d="M876.933,301.647c-1.979-4.432-1.316-9.439-3.304-13.943c-1.94-4.394-4.836-7.06-9.466-6.673
		c-4.971,0.415-5.761,4.573-6.414,8.712c-0.993,6.291-0.052,12.535,0.104,18.791c0.317,12.71-6.794,23.232-19.198,27.996
		c-11.017,4.232-23.009,0.967-30.974-8.734c-5.669-6.904-8.711-15.148-11.204-23.614c-0.539-1.83,0.013-3.147,1.294-4.494
		c3.702-3.891,7.285-7.895,11.582-11.472c1.083,6.413,1.3,12.391,3.163,18.108c0.911,2.796,1.789,5.593,3.687,7.902
		c2.641,3.214,5.744,5.63,10.237,4.666c4.67-1.002,5.869-4.657,6.72-8.794c0.997-4.849,0.12-9.576-0.239-14.349
		c-0.904-11.986,1.877-22.556,12.244-29.788c12.935-9.023,29.157-4.876,37.627,9.391c0.851,1.433,1.528,2.969,2.267,4.467
		C891.393,292.646,890.383,295.388,876.933,301.647z"/>
	<path style="fill:#FEFEFE;" d="M310.28,128.422c-5.923-0.241-10.632-1.269-15.454-0.244c-4.39,0.933-7.357,3.223-8.137,7.553
		c-0.855,4.745,2.733,6.597,6.332,8.067c5.263,2.15,10.877,2.925,16.43,3.883c15.846,2.732,25.062,12.863,25.728,28.364
		c0.584,13.594-8.459,24.401-23.58,28.175c-0.608,0.152-1.229,0.253-1.836,0.411c-17.119,4.44-20.299,2.853-27.782-14.175
		c4.453,0.479,8.697,1.12,12.963,1.334c3.115,0.156,6.359,0.188,9.368-0.502c5.255-1.205,10.184-3.381,10.645-9.801
		c0.476-6.623-4.778-8.381-9.553-9.766c-4.783-1.387-9.841-1.815-14.767-2.719c-21.442-3.936-32.002-27.574-19.114-43.175
		c8.182-9.904,19.725-11.732,31.721-12.018c1.658-0.04,2.132,1.056,2.565,2.232C307.236,119.915,308.618,123.808,310.28,128.422z"/>
	<path style="fill:#FEFEFE;" d="M127.981,261.11c2.613,7.131,8.278,10.098,13.513,13.273c14.815,8.986,29.904,17.522,44.699,26.54
		c3.729,2.273,5.867,1.438,8.462-1.459c5.619-6.277,7.376-13.667,6.12-23.546c5.664,5.324,9.898,9.536,14.404,13.434
		c1.988,1.719,0.78,2.913-0.008,4.257c-7.176,12.244-14.451,24.431-21.552,36.718c-1.964,3.399-3.865,2.667-5.66,0.249
		c-2.453-3.306-5.804-5.364-9.22-7.384c-17.249-10.202-34.494-20.412-51.785-30.543c-2.506-1.469-5.183-3.386-7.902-3.609
		c-7.359-0.604-5.646-3.701-2.986-7.917C120.056,274.8,123.734,268.282,127.981,261.11z"/>
	<path style="fill:#FEFEFE;" d="M746.76,219.34c-0.308,0.931-0.314,1.165-0.433,1.279c-13.328,12.693-13.324,12.686-28.31,1.725
		c-7.083-5.181-14.117-10.432-21.318-15.444c-3.1-2.158-4.261-3.938-0.219-6.063c3.088-1.624,5.042-4.331,7.013-7.027
		c12.212-16.702,24.415-33.41,36.592-50.136c1.837-2.523,4.136-4.986,4.532-8.122c0.62-4.904,2.306-5.035,5.875-2.287
		c6.117,4.711,12.444,9.149,19.218,14.092c-6.77,2.586-10.416,7.961-14.21,13.08c-10.329,13.934-20.396,28.062-30.821,41.923
		c-2.202,2.928-2,4.76,0.214,7.363C730.569,216.396,737.742,219.488,746.76,219.34z"/>
	<path d="M470.375,798.605c3.965-3.772,7.699-5.938,9.301-10.347c-6.276-1.073-12.522-1.999-18.708-3.227
		c-16.387-3.254-28.077-14.251-39.593-25.086c-2.831-2.664-3.249-7.935-4.676-12.042c-10.433-30.038-21.059-59.992-35.324-88.507
		c-5.051-10.096-11.666-18.498-21.389-24.713c-12.186-7.788-22.651-17.851-33.565-27.306c-7.267-6.295-10.88-14.53-14.067-23.218
		c-4.004-10.915-8.234-21.749-12.492-32.568c-4.547-11.552-10.837-22.03-19.155-31.33c-5.41-6.05-9.596-12.995-12.864-20.697
		c-2.819,3.933-1.333,8.687-3.705,13.409c-5.747-31.416-1.876-59.821,15.194-86.085c7.731-11.896,14.881-24.181,23.477-35.487
		c2.641-3.474,2.019-4.641-1.763-6.418c-10.203-4.792-20.129-10.162-28.212-18.283c-1.899-1.907-3.7-3.912-5.7-6.035
		c2.858-1.007,4.823,1.547,7.851,0.249c-1.917-2.603-3.592-5.273-5.647-7.609c-20.043-22.783-22.528-49.905-19.244-78.348
		c1.097-9.501,1.47-9.481,10.87-7.676c36.181,6.949,72.365,13.886,108.529,20.926c3.077,0.599,4.99-0.128,6.903-2.645
		c7.105-9.352,15.019-17.905,24.332-25.213c7.89-6.191,17.061-7.536,26.439-8.225c33.671-2.473,67.404-1.214,101.111-1.273
		c17.121-0.03,34.27-0.656,51.309,2.319c12.998,2.27,24.131,7.533,33.095,17.33c4.377,4.784,9.039,9.307,13.548,13.971
		c2.573,2.661,5.412,3.012,9.081,2.27c36.508-7.389,73.062-14.546,109.585-21.862c3.314-0.664,4.508,0.4,4.915,3.624
		c4.824,38.145,2.647,63.965-23.5,92.378c2.34,1.125,4.298-1.536,6.811-0.206c-2.985,6.535-8.203,11.053-13.948,14.988
		c-5.669,3.883-11.549,7.529-18.05,9.834c-4.68,1.659-4.63,3.465-2.068,7.428c11.547,17.858,22.038,36.36,32.258,55.004
		c11.708,21.359,13.259,43.509,4.613,66.321c-0.482,1.271-1.101,2.49-2.369,5.331c0-5.425,0.014-9.058-0.006-12.691
		c-0.01-1.725-0.445-3.639-2.118-4.079c-1.713-0.451-2.173,1.684-2.905,2.808c-11.723,18-22.324,36.586-30.331,56.603
		c-6.123,15.307-13.762,29.858-23.183,43.437c-3.379,4.87-7.143,9.576-12.348,12.315c-34.333,18.066-50.266,49.025-60.151,84.484
		c-3.452,12.384-6.775,24.834-11.451,36.852c-9.818,25.237-28.905,40.043-53.949,48.341
		C515.956,794.659,494.131,797.412,470.375,798.605z"/>
	<path d="M231.076,243.503c-1.123-0.191-3.092-0.194-4.797-0.867c-14.961-5.909-25.448-16.375-31.142-31.433
		c-2.334-6.172-1.261-11.987,3.355-16.85c4.644-4.893,10.471-6.322,16.641-3.92c16.296,6.344,27.928,17.493,32.122,34.809
		C249.602,234.933,241.585,243.714,231.076,243.503z"/>
	<path style="fill:#FEFEFE;" d="M144.888,486.578c-9.866-7.157-18.415-13.144-26.695-19.481c-2.994-2.291-5.047-2.405-8.097-0.051
		c-8.261,6.373-16.814,12.368-26.603,19.498c3.662-11.308,6.667-21.201,10.119-30.937c1.33-3.75,0.903-5.931-2.543-8.267
		c-8.46-5.732-16.611-11.919-24.642-19.194c9.892,0,19.795-0.282,29.67,0.121c4.805,0.196,7.056-1.247,8.376-5.949
		c2.705-9.634,6.042-19.09,9.657-30.285c3.165,9.785,5.805,17.979,8.466,26.166c3.235,9.95,3.243,9.948,13.489,9.948
		c8.542,0,17.084,0,25.626,0c0.208,0.372,0.416,0.744,0.624,1.115c-7.64,5.545-15.054,11.447-23.002,16.509
		c-5.174,3.295-6.221,6.518-3.957,12.223C138.834,466.708,141.358,475.792,144.888,486.578z"/>
	<path style="fill:#FEFEFE;" d="M932.795,429.417c-8.125,5.889-16.142,11.937-24.426,17.593c-3.469,2.369-4.577,4.464-2.995,8.725
		c3.553,9.568,6.433,19.386,10.142,30.813c-9.494-6.895-17.852-12.569-25.725-18.852c-3.892-3.105-6.44-2.777-10.174,0.181
		c-7.823,6.197-16.087,11.837-25.444,18.63c3.669-11.336,6.651-21.287,10.165-31.046c1.405-3.901,0.583-5.938-2.733-8.205
		c-8.401-5.745-16.53-11.888-24.427-19.109c10.127,0,20.264-0.264,30.376,0.121c4.464,0.17,6.209-1.439,7.4-5.515
		c2.863-9.799,6.213-19.456,9.853-30.673c3.692,11.348,7.084,21.136,10.002,31.063c1.155,3.931,3.041,5.207,7.078,5.097
		c10.18-0.279,20.373-0.092,30.56-0.092C932.565,428.57,932.68,428.994,932.795,429.417z"/>
	<path style="fill:#010101;" d="M818.206,727.722c-9.589-7.999-18.652-15.661-27.848-23.161c-2.534-2.067-1.444-3.381,0.348-4.895
		c3.848-3.251,8.296-4.135,12.878-2.329C815.401,701.993,823.998,715.12,818.206,727.722z"/>
	<path style="fill:#030303;" d="M202.732,708.945c-6.764,8.662-13.527,17.323-20.6,26.381c-3.744-5.359-10.248-10.634-9.74-15.113
		c0.475-4.187,9.668-4.501,14.939-6.721c4.752-2.001,9.698-3.543,14.558-5.287C202.171,708.452,202.451,708.699,202.732,708.945z"/>
	<path style="fill:#070707;" d="M419.697,121.981c-13.861,4.16-13.861,4.16-13.234-9.345c0.171-3.695,0.344-7.389,1.748-11.566
		C411.973,107.919,415.734,114.767,419.697,121.981z"/>
	<path style="fill:#7F7F7F;" d="M268.174,307.399c-2.318-4.568-1.311-9.438-1.09-14.174c0.203-4.348,3.585-3.863,6.545-3.495
		c14.319,1.781,28.624,3.688,42.951,5.399c20.747,2.478,41.378,5.836,62.247,7.446c8.669,0.669,17.199,3.139,26.878,4.998
		c-4.124-4.855-8.546-7.623-12.722-10.561c-3.805-2.676-4.201-3.848-0.328-7.513c14.933-14.125,33.04-18.732,52.77-19.831
		c39.951-2.224,79.832-2.334,119.771,0.948c17.789,1.462,31.681,9.53,44.609,20.637c2.166,1.861,1.523,2.92-0.329,4.305
		c-4.665,3.489-9.267,7.062-14.374,10.968c3.277,1.464,5.706-0.051,8.094-0.501c27.96-5.268,56.369-7.133,84.48-11.252
		c11.584-1.697,23.247-2.862,34.833-4.549c10.839-1.579,11.321-1.316,11.106,9.903c-0.048,2.474,0.346,5.069-1.31,7.271
		c-2.89-3.402-1.268-6.962-0.959-9.256c-2.39,8.075-6.105,17.019-12.347,24.716c-1.719,2.12-3.507,4.168-5.853,5.577
		c-1.516,0.91-3.259,2.711-4.996,1.006c-1.705-1.674-0.027-3.453,0.915-5.248c-6.175,9.256-19.492,20.991-31.001,26.878
		c-3.656,1.87-6.849,4.845-11.21,5.234c-3.591-3.488-7.182-6.977-10.773-10.465c-0.2,0.085-0.4,0.169-0.599,0.254
		c2.846,4.662,5.626,9.367,8.55,13.98c20.682,32.62,35.738,68.102,52.302,102.814c5.06,10.604,4.507,20.947-1.981,31.023
		c-12.67,19.677-20.448,41.715-28.389,63.424c-9.137,24.98-24.548,43.321-48.077,55.204c-2.422,1.223-4.686,2.757-7.052,4.095
		c-0.301,0.17-0.78,0.023-1.489,0.023c-0.373-9.946,0.109-19.924-1.313-29.877c-2.625-18.366-8.679-34.706-23.303-47.212
		c-8.442-7.218-16.645-14.667-26.121-20.541c-2.157-1.337-4.124-2.527-6.935-1.103c-13.802,6.991-27.694,13.804-41.555,20.68
		c-0.79,0.392-0.612,0.922-0.21,1.483c-0.029,0.91-0.423,1.684-1.273,1.954c-8.813,2.797-16.735,7.55-25.074,11.385
		c-2.233,1.027-4.415,1.026-6.648-0.002c-8.338-3.836-16.261-8.586-25.074-11.384c-0.85-0.27-1.244-1.044-1.275-1.954
		c0.804-2.369-1.521-2.085-2.466-2.563c-12.49-6.331-25.107-12.413-37.552-18.829c-3.458-1.783-6.059-1.401-9.216,0.619
		c-12.795,8.184-24.268,17.972-34.253,29.306c-9.157,10.394-12.238,23.535-14.466,36.871c-1.727,10.334-1.26,20.764-1.457,32.176
		c-21.708-13.443-43.407-24.635-52.091-51.285c-8.461-25.969-20.209-50.865-34.122-74.541c-5.755-9.793-5.208-19.566-0.583-29.397
		c8.544-18.16,17.577-36.096,25.779-54.407c8.124-18.136,20.173-33.687,31.258-49.898c2.433-3.558,4.909-7.086,6.529-11.334
		c-4.731,4.455-9.462,8.91-14.193,13.365c-15.738-7.359-29.531-17.225-39.961-30.262c-0.403-1.71-1.298-0.164-0.626-0.665
		c0.248-0.185,0.269,0.031,0.485,0.4c0.694,1.192,0.958,2.453,0.022,3.495c-1.313,1.462-2.734,0.374-3.958-0.281
		c-4.805-2.569-7.869-6.909-10.646-11.322c-4.785-7.604-8.051-15.906-10.181-24.637c-0.131-0.842-1.168,0.476-0.494-0.022
		C269.806,295.813,269.652,304.053,268.174,307.399z"/>
	<path style="fill:#FEFEFE;" d="M470.564,540.088c10.594,3.046,20.017,12.461,29.926,12.264c9.699-0.194,19.057-9.08,29.418-12.262
		c13.006-3.087,26.026-6.12,39.005-9.318c2.118-0.522,3.85-0.979,5.861,0.461c10.097,7.231,19.19,15.451,26.802,25.343
		c2.655,3.451,1.76,5.497-0.735,8.491c-4.787,5.744-11.161,9.014-17.828,12.031c1.401,2.338,3.558,1.1,5.156,2.646
		c-5.298,7.662-14.291,8.178-23.139,11.456c13.823,1.429,24.937-1.74,34.544-10.388c-1.353-0.699-2.585-1.335-4.556-2.352
		c5.246-2.711,9.123-6.212,12.737-10.752c3.931,6.489,6.139,12.792,7.744,19.553c1.23,5.178-0.881,7.377-4.896,9.073
		c-3.234,1.366-6.471,2.803-10.768,2.76c0.997-3.053,1.911-5.849,3.31-10.133c-11.086,9.103-22.928,11.504-37.148,11.474
		c9.688,3.107,17.819,3.263,26.323,1.249c0.637,2.593-1.693,4.27-1.549,6.942c8.535,0.093,16.651-1.305,24.772-6.743
		c-2.421,9.504-8.723,15.232-14.734,20.572c-3.021,2.684-7.945-0.44-11.835-1.918c-2.84-1.079,4.373-4.342-1.112-4.929
		c-2.692-0.288-5.347-0.947-8.005-1.506c-2.454-0.516-4.908-1.053-7.327-1.71c-2.184-0.593-4.321-1.362-6.717-1.614
		c3.35,3.101,6.55,6.345,11.382,7.117c1.17,0.187,3.435,0.678,2.843,1.624c-5.199,8.301,4.077,4.664,5.891,7.111
		c1.253,1.69,4.419,0.839,6.196,2.826c-5.744,5.603-11.529,8.055-20.039,5.451c-17.035-5.212-34.7-7.529-52.569-7.863
		c-2.013-0.038-4.022-0.292-7.578-0.563c19.488-9.104,31.606-23.498,40.064-41.236c2.046-4.291,3.669-8.833,5.005-13.401
		c1.172-4.01-8.09-11.464-12.637-10.361c-13.778,3.342-26.676,9.275-40.054,13.802c-3.429,1.16-6.133,1.116-9.518-0.036
		c-12.975-4.419-25.638-9.693-38.785-13.672c-6.375-1.929-8.197,2.792-11.706,5.626c-3.428,2.769-1.628,5.19-0.665,8.187
		c7.227,22.494,20.763,39.636,43.256,51.079c-4.81,0.398-8.524,0.912-12.245,0.977c-16.017,0.28-31.697,3.072-46.911,7.673
		c-8.342,2.523-13.82-0.41-19.785-5.967c3.929-1.419,7.428-2.617,10.873-3.952c2.066-0.801,5.313-1.032,2.075-4.584
		c-1.823-2,0.508-2.414,1.805-2.598c5.078-0.721,8.631-3.929,13.421-8.018c-8.674,2.43-15.983,4.637-23.547,5.694
		c-0.869,0.122-2.524,0.161-1.91,1.66c0.595,1.453,3.153,2.815-0.324,3.729c-3.709,0.975-7.945,4.084-11.206,1.008
		c-5.698-5.374-11.513-10.959-14.495-20.139c8.231,5.084,16.317,6.898,25.241,6.672c-0.717-2.217-1.388-4.292-2.217-6.853
		c8.548,1.683,16.748,1.862,24.918-0.982c-12.454-0.387-24.273-2.78-35.515-12.009c1.604,4.413,2.574,7.084,3.687,10.147
		c-5.499,0.301-9.84-1.968-14.122-4.468c-1.862-1.087-2.318-2.444-1.985-4.686c1.145-7.712,3.455-14.912,8.135-21.925
		c3.513,4.333,7.339,7.764,11.945,10.192c-0.28,2.235-2.766,1.462-3.733,2.864c9.5,8.56,20.624,11.726,34.434,10.304
		c-8.749-3.179-17.46-3.87-23.408-11.662c2.024-0.548,3.62-0.979,6.776-1.833c-7.998-3.627-14.378-6.887-19.16-12.634
		c-2.487-2.988-3.407-5.032-0.747-8.49c7.611-9.894,16.702-18.117,26.802-25.344c2.002-1.433,3.733-0.998,5.859-0.473
		C444.537,533.971,457.558,537,470.564,540.088z"/>
	<path style="fill:#FEFEFE;" d="M610.688,638.879c-12.65,35.496-23.791,70.23-37.317,104.11
		c-7.412,18.565-23.355,26.677-41.07,31.651c-13.327,3.742-27.292,5.537-41.029,3.106c-18.911-3.346-38.748-4.779-53.325-20.106
		c-3.36-3.533-6.57-6.971-8.217-11.624c-12.378-34.964-26.175-69.416-37.73-104.675c-0.17-0.517-0.147-1.098-0.277-2.164
		c4.714,1.392,9.019,2.782,13.39,3.912c3.094,0.8,3.292,3.444,4.141,5.718c9.997,26.792,19.831,53.642,28.726,80.826
		c1.762,5.385,3.722,10.808,7.704,14.911c3.129,3.224,5.251,5.743-0.762,8.996c18.9-6.001,37.083-12.184,56.16-12.127
		c18.875,0.057,36.891,6.088,55.14,12.168c-4.924-3.561-2.986-6.156,0.093-9.359c3.81-3.964,5.702-9.202,7.39-14.383
		c8.534-26.203,18.254-51.985,27.426-77.96c2.13-6.031,5.013-9.568,11.309-10.472C604.85,641.062,607.156,639.991,610.688,638.879z"
		/>
	<path style="fill:#FEEF0F;" d="M532.787,677.978c-1.127,11.767-3.479,21.781-9.889,30.138
		c-13.51,17.615-31.801,17.614-45.319-0.004c-6.413-8.358-8.752-18.376-9.765-28.863c-3.971,12.314-2.057,24.029,12.408,43.421
		c-5.674-0.11-5.674-0.11-16.982-9.122c-2.242,1.416-0.581,4.534-3.365,6.638c-11.605-14.205-28.964-23.639-33.773-43.531
		c-1.85-7.651-5.449-14.873-8.099-22.344c-0.493-1.389-2.328-3.234,0.88-4.363c2.898-1.02,3.422,0.174,4.259,2.575
		c5.653,16.221,16.442,28.648,30.174,40.8c-2.086-11.626-2.431-21.726-0.267-33.024c3.484,5.099,6.253,9.596,12.621,10.738
		c-3.613-7.58,0.536-9.168,6.586-10.978c19.055-5.701,37.777-5.489,56.789,0.206c5.917,1.772,9.052,3.665,5.621,10.747
		c6.384-1.08,9.176-5.391,12.705-10.718c2.237,11.221,1.93,21.208-0.067,31.614c3.123-0.252,4.333-2.663,5.951-4.202
		c10.575-10.056,19.455-21.359,24.108-35.407c1.021-3.082,2.277-3.293,4.98-2.558c3.286,0.893,2.094,2.784,1.425,4.629
		c-3.768,10.395-7.523,20.796-11.394,31.153c-0.644,1.723-1.539,3.551-2.83,4.801c-9.915,9.599-19.957,19.066-30.37,28.964
		c-1.669-0.679,0.472-4.393-2.278-5.942c-4.57,4.655-9.35,9.266-17.461,10.075C529.647,709.971,537.764,696.538,532.787,677.978z"/>
	<path style="fill:#FEEF0F;" d="M499.968,618.007c-9.859-1.269-17.548-6.505-24.589-12.643c-8.751-7.629-14.426-17.539-19.219-27.97
		c-0.496-1.078-1.349-2.457-0.191-3.387c1.01-0.812,2.292,0.016,3.457,0.444c11.562,4.251,23.193,8.319,34.69,12.739
		c3.908,1.503,7.277,1.423,11.189-0.103c11.474-4.474,23.112-8.526,34.688-12.737c1.13-0.411,2.467-1.29,3.392-0.183
		c0.453,0.542,0.213,2.015-0.174,2.855c-8.376,18.204-19.513,33.702-39.796,40.095C502.25,617.485,501.047,617.732,499.968,618.007z
		"/>
	<path style="fill:#FEFEFE;" d="M666.854,356.307c6.685-4.193,13.518-8.171,20.019-12.632c8.822-6.054,16.139-13.805,23.226-21.982
		c0.901,2.941-2.461,4.913-1.362,7.999c13.088-7.801,17.219-21.363,23.477-34.102c0.101,1.862,0.273,3.724,0.283,5.587
		c0.012,2.073-0.122,4.147-0.193,6.221c-2.714,20.659-13.378,36.925-28.199,50.859c-5.18,4.87-10.952,9-16.722,13.145
		c-2.963,2.129-4.973,2.682-7.62-0.667C675.771,365.681,671.187,361.093,666.854,356.307z"/>
	<path style="fill:#FEFEFE;" d="M268.174,307.399c0.643-3.883-1.135-7.82,0.487-12.571c6.467,14.355,9.828,30.012,24.317,38.638
		c1.17-3.068-2.233-5.044-1.331-8.064c10.958,13.054,23.383,24,38.701,31.369c1.446,0.696,3.075,1.455,3.384,3.398
		c-2.248,2.18-4.476,4.38-6.747,6.536c-8.876,8.425-8.904,8.451-18.948,1.078c-19.036-13.975-33.583-31.166-38.981-54.837
		C268.641,311.125,268.463,309.249,268.174,307.399z"/>
	<path style="fill:#FDFDFD;" d="M535.913,643.468c-0.293,6.935-3.863,9.304-10.407,7.178c-17.237-5.598-34.395-5.564-51.49,0.797
		c-1.536,0.571-3.713,2.922-5.228-0.306c-1.403-2.988-3.384-5.885-2.799-9.364c0.255-1.517,2.069-1.073,3.219-1.117
		c21.06-0.79,42.122-0.787,63.182-0.016C534.172,640.706,536.488,640.35,535.913,643.468z"/>
	<path style="fill:#FCFCFC;" d="M440.776,710.711c8.49,10.824,18.799,19.572,30.048,28.781c-5.167,1.532-9.751,2.911-14.346,4.249
		c-3.814,1.11-5.314-2.042-6.768-4.274C444.059,730.788,442.188,720.852,440.776,710.711z"/>
	<path style="fill:#FCFCFC;" d="M530.812,739.52c11.452-9.21,21.599-18.124,30.693-30.25c-1.635,11.02-3.807,20.214-8.451,28.699
		c-2.726,4.981-6.147,7.56-12.101,4.613C538.021,741.13,534.617,740.63,530.812,739.52z"/>
	<path style="fill:#FCFCFC;" d="M445.776,676.646c-8.151-8.498-12.471-17.312-15.898-26.697c-0.795-2.177-0.417-3.129,1.886-3.266
		c0.413-0.025,0.825-0.135,1.229-0.239c4.446-1.144,10.061-4.029,13.183-1.923c2.985,2.014-0.362,7.95-0.389,12.189
		C445.746,662.88,445.776,669.05,445.776,676.646z"/>
	<path style="fill:#FCFCFC;" d="M556.201,676.562c0.04-11.017,0.205-20.775-1.611-30.372c-0.448-2.37,0.802-2.416,2.46-2.091
		c4.505,0.883,8.995,1.846,13.512,2.661c2.289,0.413,1.821,1.605,1.284,3.154C568.559,659.384,563.98,668.073,556.201,676.562z"/>
	<path style="fill:#F9F9F9;" d="M500.902,728.439c4.973,0.184,9.925,0.041,14.911,0.864c4.081,0.674,3.858,3.236,3.57,5.86
		c-0.364,3.315-2.774,1.47-4.318,1.232c-9.495-1.461-18.969-1.501-28.461,0.019c-1.563,0.25-4.005,2.009-4.247-1.315
		c-0.164-2.258-0.836-4.926,3.018-5.67C490.55,728.429,495.714,728.551,500.902,728.439z"/>
	<path style="fill:#F3F3F3;" d="M542.521,654.984c0.409-5.246-1.527-8.99-2.857-13.297c4.155,0.302,9.887-1.144,10.86,2.443
		C551.562,647.954,547.474,651.847,542.521,654.984z"/>
	<path style="fill:#F4F4F4;" d="M459.1,654.929c-4.872-3.195-9.015-7.067-7.881-10.925c1.004-3.416,6.794-1.833,11.086-2.669
		C460.56,646.015,458.965,649.822,459.1,654.929z"/>
	<path style="fill:#F5F5F5;" d="M470.026,728.028c4.042,3.21,7.269,5.773,10.573,8.397
		C472.872,740.508,471.508,739.465,470.026,728.028z"/>
	<path style="fill:#E8E8E8;" d="M520.541,736.827c3.943-3.107,7.3-5.752,10.876-8.57
		C530.956,738.828,529.524,740.024,520.541,736.827z"/>
	<path d="M632.522,488.789c-8.267,6.365-16.676,7.9-25.006,9.549c-9.561,1.893-19.176,1.342-28.714-0.112
		c-3.104-0.473-5.028-0.459-5.959,3.091c-1.142,4.355-3.853,6.301-8.8,5.891c-8.518-0.706-16.181,3.299-25.567,6.062
		c5.813-4.886,10.31-9.14,15.277-12.747c12.853-9.333,21.063-21.972,26.305-36.619c2.05-5.729,5.719-9.352,10.654-12.484
		c13.808-8.764,29.039-13.46,46.073-16.964c-5.891,5.929-13.929,7.031-18.404,13.477c13.947-1.686,27.722-5.667,41.46,2.933
		c-3.135,1.328-5.08,0.213-7.073,0.091c-8.237-0.505-10.618,1.097-13.915,8.57c-4.81,10.902-10.652,21.175-20.168,29.473
		C623.424,490.624,627.145,487.874,632.522,488.789z"/>
	<path d="M367.923,488.159c5.767,0.772,9.822,1.315,15.288,2.048c-11.848-10.284-18.301-22.457-23.468-35.591
		c-2.008-5.104-7.667-2.733-11.672-3.568c-1.915-0.399-4.084,0.419-6.21-0.021c12.524-8.753,26.297-4.866,40.472-2.976
		c-4.967-6.369-12.46-7.908-19.202-13.624c19.853,3.85,36.945,9.574,51.916,20.675c1.545,1.145,2.928,2.473,3.483,4.328
		c6.363,21.253,20.493,36.493,37.937,49.194c1.16,0.845,2.197,1.859,2.946,3.623c-4.437-1.293-8.84-2.723-13.323-3.827
		c-2.814-0.693-5.838-1.56-8.609-1.183c-5.655,0.77-8.882-1.468-10.175-6.694c-0.819-3.312-2.788-2.699-5.209-2.328
		c-14.673,2.25-29.139,1.656-43.254-3.438C375.328,493.506,371.889,492.22,367.923,488.159z"/>
	<path style="fill:#595959;" d="M593.788,508.621c18.333,0.048,34.679-5.056,48.362-17.497c0.554-0.504,1.503-1,2.155-0.881
		c1.349,0.246,1.224,1.636,1.06,2.56c-0.361,2.031-0.998,4.012-1.803,7.082c13.501-4.733,24.999-11.576,35.303-20.686
		c-6.859,22.214-25.451,31.61-44.499,41.127c0.083-1.06,0.041-1.867,0.221-2.621c1.548-6.492,1.239-6.806-5.368-5.282
		C617.197,515.196,602.502,513.876,593.788,508.621z"/>
	<path style="fill:#595959;" d="M321.675,479.415c10.367,8.799,21.556,15.813,34.323,20.23c0.299-0.583,0.681-0.972,0.612-1.248
		c-0.638-2.566-3.17-5.86-0.927-7.572c2.759-2.105,4.315,2.078,6.213,3.539c12.599,9.704,27.037,13.546,42.622,14.052
		c0.725,0.024,1.446,0.183,3.468,0.452c-11.932,6.054-23.431,5.384-34.718,4.031c-8.748-1.049-8.667-1.728-7.354,7.27
		C346.99,510.917,328.704,501.276,321.675,479.415z"/>
	<path style="fill:#010101;" d="M612.501,381.613c-3.689,1.195-7.014,2.077-10.187,3.337c-9.79,3.888-17.507,9.698-22.304,19.765
		c-9.36,19.643-26.027,31.292-45.687,39.168c18.014-14.715,29.944-33.589,37.974-55.107c1.151-3.084,2.514-4.73,5.95-5.231
		c9.709-1.415,19.322-3.579,29.222-3.17C609.018,380.44,610.723,380.057,612.501,381.613z"/>
	<path d="M387.578,381.181c7.408-1.695,13.891-0.232,20.406,0.047c12.017,0.514,20.136,3.883,24.652,17.233
		c6.144,18.164,18.439,33.109,33.52,45.414c-19.011-7.604-35.606-18.6-44.742-37.502c-6.696-13.854-17.501-20.634-31.594-23.886
		C389.316,382.371,388.883,381.955,387.578,381.181z"/>
	<path style="fill:#040404;" d="M473.709,509.044c3.422-9.893,7.692-17.683,12.418-25.553c2.657,3.124-2.847,9.84,5.901,8.71
		C487.362,499.582,481.735,504.456,473.709,509.044z"/>
	<path style="fill:#040404;" d="M528.277,509.104c-6.834-3.673-11.352-7.334-14.917-11.95c-0.923-1.195-7.003-4.048,0.549-5.592
		c2-0.409,0.312-4.958,1.248-8.646C520.414,491.131,524.296,499.098,528.277,509.104z"/>
	<path style="fill:#090909;" d="M446.112,522.147c15.961-4.884,25.584-0.416,28.226,13.124
		C466.551,527.089,457.487,523.586,446.112,522.147z"/>
	<path style="fill:#090909;" d="M553.602,521.714c-5.681,1.646-10.649,2.509-15.084,4.537c-4.273,1.954-7.995,5.114-11.88,7.692
		C527.649,522.485,537.662,517.614,553.602,521.714z"/>
	<path style="fill:#FEEF0F;" d="M625.715,458.527c-3.982,20.208-21.799,32.426-45.874,30.762c3.748-7.38,8.369-14.011,10.753-21.678
		c0.268-0.862,2.021-1.32,3.139-1.851C604.223,460.774,617.576,457.767,625.715,458.527z"/>
	<path style="fill:#FDEF0F;" d="M374.523,458.127c12.316-0.087,23.098,3.637,33.651,8.297c1.159,0.512,2.126,1.143,2.492,2.565
		c1.84,7.153,6.243,13.084,9.674,19.52C401.344,494.013,379.854,479.934,374.523,458.127z"/>
</g>
</svg>
