<?xml version="1.0" encoding="utf-8"?>
<!-- Generator: Adobe Illustrator 28.3.0, SVG Export Plug-In . SVG Version: 6.00 Build 0)  -->
<svg version="1.1" id="Layer_1" xmlns="http://www.w3.org/2000/svg" xmlns:xlink="http://www.w3.org/1999/xlink" x="0px" y="0px"
	 viewBox="0 0 1000 1000" style="enable-background:new 0 0 1000 1000;" xml:space="preserve">
<path style="fill:#D63338;" d="M293.9,307c1.164-4.627,5.065-7.118,8.278-9.939c5.611-4.926,10.611-9.069,1.566-15.691
	c-6.902-5.054-0.13-7.624,2.721-11.032c3.563-4.259,12.551-10.045-2.319-10.842c-9.499-0.509-8.885-6.741-6.967-13.633
	c5.57-20.015,1.233-40.255,1.72-60.206c1.058-43.359-27.229-73.162-41.506-109.253c-1.495-3.779-6.727-7.522-2.93-11.621
	c2.944-3.178,8.084-2.055,12.521-1.41c48.078,6.988,94.726,2.728,140.412-15.069c18.853-7.345,39.304-10.642,59.094-15.509
	c10.814-2.66,19.919-7.485,26.058-17.162c4.968-7.833,10.921-8.342,15.784-0.377c6.67,10.924,16.958,15.3,28.509,18.337
	c36.09,9.489,72.242,18.77,108.171,28.841c28.387,7.957,57,4.831,85.638,3.494c5.175-0.242,11.559-3.601,14.975,1.472
	c3.405,5.056-1.901,10.146-4.342,14.452c-13.678,24.127-25.438,49.171-36.242,74.653c-2.74,6.463-11.572,13.766-0.32,21.067
	c0.709,0.46-0.678,4.419-1.339,6.677c-5.866,20.038-6.644,39.884-0.877,60.341c4.25,15.078,2.167,16.742-13.823,18.631
	c0.032,4.958,3.242,8.083,6.839,10.411c5.305,3.434,4.864,6.496,0.395,10.004c-6.712,5.27-4.333,9.473,1.24,13.86
	c8.639,6.802,15.892,15.364,16.907,26.363c1.109,12.013,7.378,16.746,17.583,21.569c11.764,5.56,15.383,3.063,18.322-8.728
	c8.956-35.929,27.05-46.277,63.898-38.043c21.351,4.771,36.991,17.245,46.535,36.417c4.173,8.383,8.699,12.926,18.238,13.555
	c25.111,1.656,38.222,20.921,53.087,37.436c0.643,0.715,1.732,1.949,1.512,2.389c-8.439,16.845,7.076,15.952,15.139,20.526
	c15.623,8.862,30.085,40.761,25.698,58.226c-1.398,5.566,0.64,7.396,4.761,10.242c21.871,15.109,27.107,38.555,14.216,61.854
	c-8.938,16.155-17.919,32.289-27.106,48.303c-4.815,8.394-11.641,14.119-21.826,15.212c-7.522,0.808-13.468,5.145-19.348,9.624
	c-15.225,11.597-32.066,20.137-50.503,25.303c-4.343,1.217-9,3.834-13.045-1.903c-4.04-5.73-0.319-8.89,2.64-12.69
	c6.977-8.959,21.297-18.269,16.431-28.155c-4.06-8.248-20.641-2.943-31.662-3.115c-23.449-0.367-47.129,8.966-70.378-2.535
	c-4.435-2.193-9.16,2.113-13.336,4.568c-27.188,15.987-54.958,30.108-84.69,41.589c-16.825,6.497-35.955,8.058-51.439,20.597
	c-15.384,12.458-23.527,26.477-24.549,45.546c-2.712,50.623-19.812,96.448-46.432,139.091c-2.06,3.3-4.334,6.479-6.205,9.881
	c-11.418,20.754-9.177,29.896,9.729,40.243c15.562,8.517,39.352,1.827,46.641-13.871c8.662-18.656,7.453-38.022,0.788-56.886
	c-9.676-27.384-4.625-52.75,9.795-76.654c7.537-12.494,10.962-12.113,20.027-0.721c38.479,48.358,39.463,118.304,2.328,165.507
	c-19.574,24.88-56.272,37.038-85.775,26.792c-11.515-3.999-13.621-0.443-13.222,9.641c0.132,3.351-0.707,6.753-1.215,10.115
	c-4.995,33.053-25.135,43.658-56.374,29.704c-25.879-11.559-28.621-18.19-20.711-45.218c4.921-16.816,16.817-30.621,21.297-51.253
	c-21.356,9.255-41.336,15.806-62.201,6.559c-2.285-0.982-3.8-2.503-3.639-5.197c0.934-1.266,2.147-2.162,3.623-2.703
	c11.906-2.06,23.832,3.467,36.043-1.254c10.164-3.929,15.276-8.706,13.078-20.373c-2.34-12.416-5.088-24.757-7.198-37.218
	c-0.813-4.798-1.936-9.569-0.495-14.426c0.873-2.943,2.542-5.455,5.618-6.13c3.623-0.795,5.152,2.23,6.41,4.76
	c17.91,36.032,33.297,72.162,7.092,111.157c-4.865,7.239-7.211,15.891-10.083,24.182c-3.936,11.361-0.098,18.793,10.525,23.505
	c4.009,1.778,7.981,3.562,12.276,4.564c23.656,5.516,32.763-1.388,33.864-25.726c0.11-2.429,0.037-4.866,0.174-7.293
	c1.271-22.439,7.436-28.722,27.638-18.808c15.964,7.834,31.205,4.484,45.992-3.606c1.273-0.796,2.611-1.466,3.974-2.081
	c27.133-11.217,38.794-33.835,45.003-60.638c5.394-23.288,2.671-46.523-0.382-69.685c-1.584-12.015-8.568-21.554-17.121-29.876
	c-5.369-5.224-10.123-3.964-12.249,2.671c-5.012,15.646-11.509,31.023-5.333,48.275c7.481,20.897,11.405,42.192,4.32,64.399
	c-6.462,20.254-21.592,29.889-40.771,33.193c-18.193,3.135-31.456-8.248-43.454-19.887c-6.124-5.941-5.06-14.448-3.444-22.225
	c2.218-10.675,7.537-19.975,13.431-29.019c25.478-39.095,40.205-81.875,44.114-128.422c3.599-42.864,29.984-70.225,72.494-79.693
	c30.043-6.691,58.505-18.822,83.922-36.699c15.426-10.849,31.176-15.324,49.44-8.096c7.391,2.925,15.479,2.25,23.144,0.827
	c19.874-3.69,39.878-1.985,59.794-1.593c14.473,0.285,17.652,6.834,11.793,20.289c-3.242,7.446-8.326,13.812-14.402,22.794
	c12.942-4.173,22.679-8.359,31.247-14.735c11.739-8.737,23.093-17.824,38.073-20.78c5.532-1.092,8.512-6.243,11.408-10.771
	c10.251-16.028,18.83-33.014,27.41-49.936c7.107-14.018,0.892-33.522-13.792-41.682c-10.496-5.833-13.22-11.911-9.519-23.403
	c4.76-14.779-8.239-39.088-23.987-45.334c-12.398-4.917-20.214-9.046-21.057-26.019c-0.767-15.466-16.167-27.063-32.458-29.559
	c-18.119-2.776-28.641-10.801-37.521-27.351c-15.305-28.526-46.589-30.659-70.212-23.448c-6.792,2.073-9.783,7.599-12.044,13.73
	c-3.713,10.069-6.238,20.543-9.996,30.567c-4.186,11.166-8.737,12.358-18.669,5.931c-2.86-1.851-5.33-4.649-8.534-5.58
	c-15.772-4.586-24.339-14.605-26.067-31.162c-0.846-8.107-6.507-14.061-12.898-18.84c-7.637-5.711-12.43-12.248-9.035-22.43
	c2.406-7.216-2.423-13.14-4.17-19.604c-2.186-8.091-2.047-15.134,8.694-15.654c7.266-0.351,5.997-4.534,5.046-9.001
	c-2.637-12.393-1.254-25.282-2.618-37.377c-4.838-42.891,23.195-73.697,36.199-109.909c1.304-3.632,3.885-6.807,3.931-10.894
	c-1.284-2.936-3.835-2.479-6.193-2.275c-38.941,3.364-76.908-2.001-113.915-13.827c-23.243-7.428-46.912-13.15-70.393-19.627
	c-1.88-0.518-3.749-1.104-5.651-1.507c-11.673-2.471-20.317-14.791-31.178-14.212c-10.148,0.541-18.356,11.893-29.68,14.277
	c-46.673,9.825-90.968,29.326-138.946,33.999c-8.315,0.81-16.389,1.55-24.674-0.006c-11.012-2.068-22.112-1.409-33.269-1.195
	c-0.802,7.875,2.967,13.255,5.591,18.855c7.24,15.448,15.734,30.314,22.557,45.933c6.27,14.355,12.472,27.743,10.256,45.622
	c-2.124,17.139,4.484,35.43-1.587,53.22c-1.611,4.721,1.535,5.632,5.629,5.73c11.095,0.265,11.623,7.625,8.673,15.271
	c-3.247,8.418-5.08,16.282-2.885,25.456c1.956,8.174-5.469,12.912-9.865,18.58c-3.262,3.543-7.082,6.068-11.999,6.594
	C296.693,311.769,293.273,311.675,293.9,307z"/>
<path style="fill:#D63438;" d="M173.788,592.807c-15.57-0.26-31.139-0.551-46.709-0.767c-8.806-0.122-10.307,4.131-5.654,10.74
	c5.025,7.136,10.535,13.952,16.146,20.646c3.475,4.145,5.246,8.133,1.939,13.116c-3.398,5.12-7.722,2.501-11.786,1.385
	c-15.584-4.279-30.312-10.575-43.515-19.942c-10.314-7.317-19.95-15.225-33.488-16.567c-6.28-0.623-10.492-6.359-14.176-11.738
	c-13.497-19.71-23.924-41.14-34.571-62.384c-6.377-12.724,3.513-39.455,17.892-48.52c7.12-4.488,10.246-8.033,5.395-15.816
	c-2.061-3.307-3.056-7.177-1.136-11.153c9.605-19.881,15.903-42.675,42.248-47.744c3.397-0.653,5.94-2.716,3.728-5.971
	c-6.242-9.188,0.82-14.225,5.743-19.737c14.37-16.089,29.136-31.69,52.84-32.844c6.546-0.319,8.437-5.539,10.913-10.315
	c21.189-40.864,54.457-44.592,91.626-35.981c12.448,2.884,12.704,15.763,15.805,25.726c2.137,3.725,2.737,7.149-1.861,9.553
	c-7.883-0.534-8.186-7.507-10.09-12.607c-3.531-9.458-9.923-14.015-19.917-13.994c-5.846,0.013-11.714,0.281-17.536-0.103
	c-23.854-1.57-39.16,10.727-47.492,31.409c-4.458,11.065-11.437,16.582-22.23,18.244c-15.296,2.356-26.908,10.404-36.936,21.699
	c-5.312,5.983-10.149,11.417-8.138,20.51c1.82,8.229-3.302,13.19-10.79,14.649c-17.6,3.428-25.741,15.953-31.995,30.991
	c-2.754,6.622-4.045,12.912-1.287,19.74c3.464,8.577,0.581,14.37-6.893,19.824c-22.447,16.381-24.937,29.104-11.74,53.448
	c4.874,8.992,9.493,18.115,14.419,27.086c7.424,13.519,15.043,25.685,32.631,27.874c8.145,1.014,14.159,8.251,20.726,13.236
	c9.396,7.133,19.451,12.813,33.304,16.797c-4.478-8.759-9.966-14.844-13.003-22.149c-5.298-12.743-1.982-19.257,11.449-19.595
	c16.481-0.415,33.08-2.081,49.493,1.224C173.586,584.765,169.852,590.56,173.788,592.807z"/>
<path style="fill:#D63338;" d="M173.788,592.807c-0.864-2.472-11.254-1.412-2.73-7.364c17.533-2.251,35.132-3.543,52.433-8.03
	c7.455-1.934,14.812,4.212,21.273,8.435c30.827,20.148,64.351,33.411,99.452,44.57c19.227,6.113,32.296,24.562,42.891,42.226
	c9.15,15.254,13.821,32.319,12.984,50.299c-1.359,29.203,4.383,56.145,22.944,79.569c6.149,7.76,7.204,16.832,5.319,26.36
	c-1.516,7.66-3.001,15.442-6.297,22.475c-5.771,12.315-8.767,24.459-1.985,37.295l-0.509,0.702
	c-8.374,2.922-10.385-4.106-13.852-8.858c-4.846-4.867-4.428-10.122-1.658-15.929c2.473-5.184,4.269-10.688,6.483-16
	c7.789-18.685,9.519-35.458-5.436-53.137c-15.447-18.26-18.534-42.217-17.307-65.572c1.65-31.411-8.027-57.6-33.161-76.316
	c-11.884-8.849-25.783-16.571-39.96-20.427c-27.963-7.606-52.086-21.976-76.047-37.091c-9.079-5.727-17.778-8.608-28.383-3.95
	C198.396,597.267,186.059,598.623,173.788,592.807z"/>
<path style="fill:#C4414D;" d="M243.385,333.567c3.958-1.717,3.527-5.288,3.644-8.627c0.632,0.688,1.426,1.285,1.869,2.078
	c3.697,6.606-0.608,18.002,9.928,20.097c8.719,1.734,24.62-13.749,27.16-23.893c1.471-5.875,1.881-12.485,7.914-16.223
	c1.422,2.52,3.93,2.956,6.454,3.359c0.64,1.452,0.776,2.95,0.436,4.497c-0.428,1.89-1.596,3.684-1.695,5.528
	c-1.293,24.169-20.498,31.585-37.843,40.847c-6.387,3.41-11.549,2.187-14.473-4.188
	C243.407,349.689,239.481,342.105,243.385,333.567z"/>
<path style="fill:#D63438;" d="M405.712,880.487c4.882,2.538,7.43,8.727,13.852,8.857c1.049,1.744,2.099,3.488,3.148,5.232
	C413.862,893.722,407.33,890.069,405.712,880.487z"/>
<path style="fill:#1A1A1A;" d="M243.385,333.567c0.099,0.471,0.178,0.947,0.301,1.411c2.184,8.249,1.619,19.237,8.099,23.796
	c8.47,5.958,13.121-7.61,21.107-9.036c14.38-2.568,19.961-12.212,20.971-25.785c0.361-4.853,2.443-9.184,6.222-12.503
	c11.56,9.146,24.091,17.001,34.756,26.333c-9.46-9.707-17.488-21.371-26.906-31.844c0.433-4.982,4.892-7.003,7.566-10.344
	c1.489-1.861,4.352-5.081,3.912-5.665c-9.273-12.3-0.745-22.489,3.203-33.425c1.859-5.148-0.667-9.292-6.761-6.97
	c-14.395,5.484-11.332-3.581-9.226-10.984c4.33-15.224,0.28-30.836,1.684-45.575c4.227-44.369-28.25-74.006-40.013-111.631
	c-0.842-2.693-2.239-5.211-3.602-8.32c12.118,0,23.659-1.457,34.696,0.281c29.66,4.671,58.193-1.427,85.872-9.648
	c27.327-8.116,54.773-15.673,82.376-22.639c13.369-3.374,22.823-17.461,33.074-18.188c8.296-0.589,18.667,14.866,31.32,17.643
	c46.239,10.147,90.434,28.537,137.641,34.567c17.868,2.282,35.977,1.366,53.927-0.618c3.737-0.413,7.426-2.448,12.336,1.16
	c-12.667,26.341-25.693,52.77-38.059,79.506c-4.311,9.321-13.623,18.603-3.497,30.003c0.948,1.067,0.571,3.965-0.067,5.688
	c-7.642,20.643-2.897,40.94,1.694,60.981c-1.785,2.361-3.438,1.164-5.289,0.657c-4.211-1.154-9.344-2.808-12.38,0.783
	c-3.268,3.865,0.717,8.322,2.146,12.214c2.837,7.733,8.92,14.393,1.435,23.494c-3.852,4.683,2.265,8.894,6.131,11.297
	c13.573,8.436,19.881,21.072,20.861,36.282c0.429,6.661,3.31,9.607,8.911,11.239c7.523,2.192,15.216,4.73,20.465,10.544
	c9.799,10.852,12.106,2.699,14.647-5.142c2.225-6.866,3.888-13.912,6.037-20.804c8.869-28.43,6.888-24.433,35.277-27.412
	c26.378-2.768,49.234,4.876,61.978,38.983c3.916,10.479,12.562,11.923,20.766,12.484c21.375,1.461,33.68,15.172,45.354,30.502
	c2.083,2.735,2.517,5.074,0.89,7.907c-6.833,11.894,1.323,14.544,10.285,17.251c25.177,7.608,39.11,33.521,30.99,58.539
	c-1.835,5.654-0.749,6.815,4.197,9.481c25.558,13.777,30.55,33.199,16.053,59.011c-8.062,14.354-15.968,28.796-24.1,43.11
	c-4.009,7.056-9.531,11.472-18.271,12.576c-8.129,1.027-15.138,5.103-21.679,10.885c-13.873,12.263-30.124,20.538-50.258,24.287
	c5.91-12.48,15.538-20.85,20.39-32.271c3.293-7.752,2.861-12.77-6.425-12.581c-20.849,0.426-41.79-2.551-62.558,1.929
	c-10.644,2.296-21.517,1.512-31.499-2.644c-11.112-4.626-20.842-2.888-30.333,3.46c-27.192,18.188-56.352,32.543-87.76,41.424
	c-14.308,4.046-27.669,8.074-40.919,15.851c-25.344,14.876-34.116,36.653-35.971,63.89c-3.054,44.833-18.49,85.687-41.572,123.882
	c-2.258,3.736-5.173,7.109-7.146,10.976c-6.347,12.443-16.318,26.447-7.253,39.19c8.727,12.268,23.403,22.6,39.883,19.934
	c17.332-2.804,33.17-10.439,39.093-30.22c6.632-22.149,2.695-43.264-4.754-64.057c-7.455-20.807,0.814-38.788,8.934-56.89
	c3.088-6.884,6.575-5.886,11.958-1.044c17.611,15.84,23.126,35.958,24.417,58.681c1.8,31.674-0.172,62.048-20.031,88.732
	c-8.345,11.213-18.092,20.122-32.09,23.398c-1.533-2.785,0.098-4.913,2.076-6.097c16.003-9.576,23.836-25.756,32.897-40.962
	c-8.705,16.805-19.087,32.198-35.04,43.031c-1.11,0.754-0.742,2.622,0.279,3.859c-18.102,14.106-37.403,13.741-56.708,3.492
	c-12.285-6.522-15.053-0.657-16.178,9.915c-0.974,9.153,0.497,18.347-1.968,27.547c-4.315,16.102-9.24,20.559-26.056,19.201
	c-11.708-0.946-22.498-5.006-32.429-11.66c-6.814-4.566-8.575-10.316-6.28-17.556c3.503-11.052,7.146-22.076,13.099-32.152
	c8.777-14.855,12.682-31.215,14.6-48.145c0.689-6.078-2.445-11.125-4.733-16.469c-6.636-15.5-12.927-31.148-19.625-47.4
	c-6.252,3.709-4.731,9.35-3.889,14.053c2.891,16.149,5.492,32.43,9.847,48.206c2.513,9.104-1.416,12.124-8.084,15.665
	c-15.902,8.445-32.236,4.505-48.56,2.546c-10.403-7.438-11.745-16.208-6.209-27.852c4.93-10.369,8.195-21.655,11.104-32.82
	c2.254-8.653,0.826-17.115-5.318-24.53c-17.877-21.575-25.361-46.788-23.272-74.406c3.142-41.544-19.197-69.684-48.462-94.036
	c-7.099-5.907-17.76-4.844-26.671-7.756c-28.869-9.435-55.271-23.255-80.629-39.404c-10.126-6.449-19.686-8.531-31.224-3.439
	c-12.322,5.438-25.45,4.299-38.335,1.042c-17.027-0.18-34.082,0.162-51.074-0.708c-13.317-0.682-13.997,5.518-8.903,14.646
	c5.39,9.656,11.865,18.706,18.86,29.562c-21.931-2.598-37.911-13.892-53.231-26.149c-4.302-3.442-8.362-6.934-13.833-7.152
	c-14.028-0.559-21.049-9.247-26.889-20.687c-7.692-15.067-16.01-29.854-24.802-44.309c-8.718-14.333,2.034-43.428,18.493-48.97
	c8.582-2.89,8.882-7.706,6.058-15.256c-6.987-18.677,9-48.917,28.651-53.846c10.566-2.65,20.66-4.107,13.333-18.993
	c-1.179-2.395-0.255-5.731,2.004-8.094c13.312-13.921,25.091-30.004,46.766-31.68c10.412-0.805,15.5-5.666,20.118-16.414
	c8.201-19.088,20.798-34.807,47.574-33.316c1.941,0.108,3.893,0.007,5.84,0.006C232.334,304.073,232.334,304.073,243.385,333.567z"
	/>
<path style="fill:#969696;" d="M307.936,305.939c17.573,8.179,23.391,26.507,35.02,40.012c-13.642-12.511-33.32-17.284-42.87-34.496
	c0.001-0.005,0.264-1.101,0.267-1.099C302.881,308.885,305.409,307.412,307.936,305.939z"/>
<path style="fill:#FDFDFD;" d="M616.564,488.342c-8.001,21.166-17.768,41.654-23.74,66.966c-3.516-6.603-5.499-10.328-7.793-14.636
	c-11.142,14.408-14.584,32.199-25.517,47.311c-2.65-4.357-4.704-7.732-7.32-12.032c-8.764,14.393-17.035,27.975-26.044,42.771
	c-4.289-10.942-8.294-11.119-13.046-1.142c-3.289,6.906-8,13.136-12.664,20.612c-4.646-7.704-8.379-14.874-13.129-21.292
	c-1.928-2.606-4.118-14.986-9.993-1.495c-1.827,4.195-4.49-0.174-5.887-2.458c-5.308-8.68-11.155-17.101-15.662-26.184
	c-5.482-11.049-9.656-9.699-14.449,2.555c-8.494-17.205-16.129-32.67-25.083-50.809c-2.925,7.154-4.743,11.602-6.986,17.089
	c-6.989-21.292-13.467-41.541-22.453-60.846c-0.642-5.081,2.664-4.336,5.309-3.155c5.455,2.434,9.241,6.984,14.145,12.6
	c-7.101-14.071-17.006-24.117-25.643-35.114c-2.792-3.554-7.772-8.245-3.754-12.682c3.958-4.371,9.038-0.089,13.135,2.257
	c7.956,4.556,15.109,10.372,24.209,16.177c-5.806-11.697-12.596-20.967-18.317-30.856c-3.405-5.885-11.585-14.014-4.422-18.881
	c6.468-4.395,12.087,5.637,16.524,10.943c8.702,10.405,17.301,20.83,24.121,32.807c12.24,21.498,33.155,30.958,55.651,38.682
	c22.148,7.605,37.815-5.053,55.335-13.944c26.006-13.197,32.446-42.9,52.768-60.766c5.162-4.538,9.494-15.217,16.41-10.355
	c6.078,4.273-2.47,11.931-5.263,17.652c-6.391,13.092-15.835,24.437-21.519,37.112c8.17-6.868,17.147-14.148,27.18-19.931
	c3.311-1.908,7.496-4.483,10.762-1.232c4.06,4.041,0.619,8.435-2.025,11.599c-8.741,10.458-17.588,20.8-24.217,32.537
	C603.567,496.44,606.395,486.392,616.564,488.342z"/>
<path style="fill:#9C9C9C;" d="M562.453,130.489c8.038,2.26,13.534-0.482,19.248-1.162c7.872-0.937,10.791,1.334,18.389,10.212
	c2.623,3.065,8.322,2.418,11.652,7.718c-34.829,9.001-60.663,32.737-90.245,52.338c26.363,16.8-7.779,17.95-7.566,28.574
	c7.181,2.787,15.35-9.492,19.703-0.188c3.416,7.301-8.33,8.641-11.741,14.027c-1.005,1.588-2.363,2.952-5.503,6.803
	c13.526-5.08,24.091-6.128,30.282,6.681c-27.642,20.148-59.547,21.037-88.83,2.368c-2.297-1.464-6.383-2.59-4.053-6.079
	c2.916-4.367,6.703-8.951,12.567-8.966c4.186-0.011,8.376,1.661,13.93,2.883c-2.532-6.28-7.097-8.823-10.875-12.095
	c-2.314-2.004-6.93-3.058-4.304-7.669c2.092-3.674,5.11-2.963,8.831-2.027c4.444,1.118,8.481,4.793,15.916,2.969
	c-8.651-6.565-15.797-11.988-23.664-17.958c4.502-4.096,8.395-7.639,12.715-11.569c-30.109-16.015-54.801-41.395-89.829-49.648
	c2.257-6.796,9.329-5.787,13.658-8.697c0.051-4.601-5.834-4.853-6.699-10.259c13.543-0.325,26.812-2.087,41.909,2.649
	c-10.427-25.251-32.875-35.588-52.362-51.482c33.623-3.056,64.315-3.666,89.115,20.682c7.759,7.618,11.765,3.186,14.513-4.38
	c3.736-10.286,7.04-20.728,11.068-32.706c6.781,12.166,6.522,25.054,13.115,35.39c2.841,4.455,4.549,8.479,10.736,3.366
	c33.73-27.872,41.22-23.633,91.182-22.951C596.5,96.277,573.151,106.367,562.453,130.489z"/>
<path style="fill:#9C9C9C;" d="M616.564,488.342c-10.621,4.605-15.526,15.877-27.659,23.066
	c6.558-22.707,24.229-35.749,36.731-56.43c-19.415,8.669-32.469,19.938-47.427,33.038c7.478-25.237,24.514-42.71,32.614-64.947
	c-14.198,13.934-29.3,27.712-37.901,45.641c-8.374,17.456-23.797,27.379-38.199,35.595c-9.406,5.366-22.4,8.651-33.922,12.447
	c-4.433,1.461-9.542-4.193-12.966-6.248c-9.382-5.63-20.098-5.609-29.822-11.384c-28.33-16.828-36.282-49.67-59.985-69.395
	c-1.783-1.484-2.638-4.084-5.452-5.029c4.819,20.88,21.91,35.501,27.937,58.259c-15.841-8.605-26.825-20.652-44.609-27.3
	c12.021,20.097,29.882,33.338,34.197,55.848c-5.241-5.159-10.367-10.443-15.784-15.41c-1.986-1.821-3.975-6.974-7.522-1.342
	c-11.616-27.426-30.946-50.03-48.884-76.97c19.528,6.909,30.482,22.561,49.083,30.261c-9.553-23.641-23.698-42.477-35.221-65.387
	c19.369,4.11,30.755,17.7,49.373,27.479c-11.527-20.792-21.181-38.206-30.835-55.62c25.908,15.45,41.83,37.523,46.389,67.243
	c1.637,10.673,6.868,20.269,9.417,30.555c5.149,20.782,25.833,27.091,37.146,41.973c10.339-8.497,16.771,12.302,27.633,3.985
	c0.491-0.376,6.21,6.075,9.501,9.338c5.57-1.281,6.207-15.353,16.153-6.01c1.746,1.64,3.709-2.282,5.341-3.871
	c1.733-1.687,4.181-5.488,4.61-5.253c13.103,7.183,15.182-7.844,22.692-10.748c21.597-8.349,24.826-28.099,31.109-45.792
	c7.713-21.72,8.765-46.138,26.871-63.451c5.901-5.642,10.678-12.626,20.376-16.529c-4.745,18.781-17.993,32.025-24.731,51.492
	c16.63-7.157,27.419-20.685,45.286-24.595c-9.083,22.796-24.893,40.43-33.479,64.452c18.336-7.117,28.733-22.47,46.883-29.735
	C645.704,442.456,631.134,465.399,616.564,488.342z"/>
<path style="fill:#9C9C9C;" d="M554.675,409.614c4.503-20.757,9.682-41.15,22.937-58.593c12.651-16.648,18.433-36.087,20.458-56.633
	c2.051-20.813-10.914-34.328-24.187-47.445c-4.06-4.012-8.688-7.448-14.628-12.479c19.192-7.952,34.629,0.608,52.124,4.925
	c-4.049-7.945-2.21-14.124,1.635-20.546c7.1-11.86,7.597-25.57,4.939-38.26c-3.203-15.293,4.278-23.599,16.241-33.201
	c2,11.92,3.771,22.469,5.522,32.902c5.133,1.639,8.02-3.276,13.605-3.438c-3.083,14.02-15.089,20.197-24.663,29.172
	c5.925,3.078,11.375,0.665,17.287-0.435c-4.055,13.444-24.036,21.02-10.503,38.622c8.784,11.425,15.795,24.192,31.617,30.41
	c-11.992,8.815-21.98,17.073-32.005,25.159c-22.592,18.223-39.637,41.369-58.547,62.828c-10.888,12.357-11.934,29.271-16.95,44.309
	C558.641,409.097,557.046,410.055,554.675,409.614z"/>
<path style="fill:#9C9C9C;" d="M431.621,374.253c-27.233-37.585-58.062-71.648-99.203-99.866
	c16.258-5.417,23.243-18.156,32.013-29.53c13.547-17.57-4.548-25.633-10.628-38.161c6.006-2.229,11.659,3.527,17.024-0.73
	c-8.996-8.745-20.62-15.779-24.984-29.251c5.323-1.703,8.41,4.495,14.587,3.406c1.568-10.296,3.21-21.076,5.371-35.27
	c9.31,11.162,20.455,17.246,17.027,33.65c-3.103,14.847-2.496,30.273,6.474,43.663c3.419,5.103,2.557,9.915,0.994,16.17
	c16.288-2.834,31.488-11.715,47.984-5.278c1.087,5.643-3.459,7.132-6.123,9.173c-40.84,31.291-36.24,65.486-8.951,108.914
	c4.678,7.445,10.241,14.095,11.493,23.103C433.675,375.233,432.649,375.235,431.621,374.253z"/>
<path style="fill:#9C9C9C;" d="M750.853,503.179c-0.489,2.593-0.989,5.19,2.484,6.193c22.746,1.526,40.608,13.244,44.531,29.213
	c-0.437,2.404-1.187,4.904,1.914,6.219c10.411,7.805,22.514,10.652,35.107,12.459c4.946,0.709,11.166,0.014,13.112,6.874
	c-14.934,18.905-49.801,20.977-73.752,2.944c-15.096-11.366-30.249-22.965-42.877-37.322c-2.545-2.893-5.177-7.217-8.341-7.805
	c-16.357-3.043-12.474-13.47-9.28-23.594c3.77-11.947,7.959-23.763,12.215-36.373c-18.169-1.981-34.142-1.197-44.409,16.647
	c-1.939-25.795,15.513-40.247,38.764-32.859c7.143,2.27,14.283,5.523,16.854-5.189c2.426-10.106,7.042-8.624,12.588-2.871
	c6.568,6.812,18.344,11.193,12.002,24.398c-3.827,6.854-5.498,14.657-11.246,20.763
	C744.689,489.067,753.289,496.289,750.853,503.179z"/>
<path style="fill:#9C9C9C;" d="M247.139,509.395c3.323-1.076,2.855-3.657,2.465-6.207c4.311-15.838-2.283-28.774-10.955-41.156
	c-6.457-17.922,12.271-20.215,18.382-31.918c2.508,4.345,4.693,7.041,5.721,10.122c2.826,8.466,7.809,8.773,15.588,6.346
	c25.332-7.905,38.742,2.12,41.972,33.347c-11.629-18.372-27.331-20.314-45.364-18.041c3.471,16.622,12.244,31.091,14.066,47.542
	c0.35,3.157,2.988,6.144-1.949,8.397c-22.599,10.313-36.303,31.524-55.701,45.945c-18.123,13.474-37.619,17.435-59.049,14.597
	c-8.488-1.124-15.223-6.141-19.122-14.212c0.359-5.375,4.767-5.724,8.402-6.067c14.124-1.334,27.405-4.884,39.083-13.291
	c2.814-1.434,2.226-3.883,1.869-6.262C207.322,522.297,224.921,510.796,247.139,509.395z"/>
<path style="fill:#9C9C9C;" d="M443.566,637.945c4.9,3.092,9.8,6.184,15.463,9.758c1.43-7.884-7.463-12.188-5.719-20.512
	c5.876,6.65,11.061,12.82,16.592,18.663c3.233,3.414,5.35,9.499,12.012,2.045c4.923-5.508,6.984,2.776,8.747,5.601
	c6.781,10.864,12.54,11.987,19.63,0.183c2.109-3.511,4.422-14.768,11.717-2.533c3.133,5.255,5.553-1.248,7.305-3.016
	c5.918-5.975,11.281-12.5,18.214-20.351c0.102,8.88-5.737,13.087-7.232,20.629c6.688-4.038,11.919-7.196,17.149-10.354
	c0.614,0.51,1.228,1.02,1.842,1.53c-6.033,7.518-12.065,15.036-18.069,22.518c4.167,5.007,7.909-3.311,12.067,0.302
	c-4.325,7.142-10.821,11.987-17.353,16.862c-2.662,1.987-6.194,4.379-4.857,8.171c1.577,4.475,6.262-0.458,10.323,3.127
	c-17.028,13.784-20.923,36.251-35.52,52.043c-5.474,5.922-9.038,6.675-13.206-0.191c-5.764-9.495-17.788-14.955-16.072-29.642
	c0.533-4.561-8.206-10.135-12.562-15.359c-3.279-3.932-6.89-7.604,1.649-10.357c7.3-2.354,1.874-5.572-0.608-7.664
	c-6.161-5.192-12.899-9.758-17.401-16.728c4.399-3.479,7.465,3.375,12.334-0.49c-6.095-7.541-12.226-15.127-18.356-22.712
	C442.292,638.961,442.929,638.453,443.566,637.945z"/>
<path style="fill:#FCFCFC;" d="M554.675,409.614c1.627-0.901,3.254-1.802,4.881-2.704c11.329,13.644,6.268-9.599,15.883-1.615
	c0.598,17.257-4.754,37.009-14.874,55.793c-15.238-2.971-14.897,12.034-21.781,18.734c-2.457,2.392-4.116-0.453-5.897-1.894
	c-1.47-1.19-3.164-2.102-4.759-3.137c-3.088,15.657-24.936-0.642-26.384,16.206c-6.844-0.797-5.797-18.304-17.856-6.206
	c-3.457,3.468-4.812-7.998-11.072-9.742c-8.202,10.874-12.462,3.259-17.152-5.151c-2.511-4.504-1.904-15.142-12.566-7.73
	c-2.422,1.684-3.629-2.556-4.54-4.414c-8.63-17.6-13.137-36.161-12.94-55.497c7.484-4.554,5.83,15.642,15.071,4.685
	c3.085-2.185,3.801,1.224,5.493,2.327c4.036,6.18,2.437,13.148,2.8,19.849c1.131,20.93,10.43,29.974,31.047,30.088
	c14.057,0.078,28.117,0.146,42.173-0.024c19.559-0.236,28.004-8.596,29.028-28.388C551.601,423.605,550.435,416.171,554.675,409.614
	z"/>
<path style="fill:#D63337;" d="M532.98,393.512c-9.532,11.263,1.089,33.216-19.995,35.953c-10.952,1.422-25.386,5.742-33.258-2.636
	c-6.79-7.227-7.245-20.408-10.586-31.234c-5.354,3.669-5.344,9.785-10.026,15.268c-4.937-18.504-8.84-36.021-9.521-54.356
	c5.526,14.164,11.741,27.488,27.831,35.653c-1.894-12.562-3.487-23.768-1.654-37.382c7.622,17.184,15.968,2.012,24.149,2.283
	c8.282,0.275,16.552,11.899,24.899,0.048c4.576,5.696,2.655,11.225,1.477,16.882c-1.151,5.528-1.637,11.195-2.5,17.416
	c16.011-9.537,19.189-13.823,25.598-33.815c2.313,11.024-0.702,32.137-7.84,53.268C538.598,404.879,536.013,399.65,532.98,393.512z"
	/>
<path style="fill:#9C9C9C;" d="M303.009,592.571c4.769-18.14,4.769-18.14-14.145-19.944c-17.528-1.672-18.453-3.406-9.294-18.6
	c2.9-4.811,6.353-9.289,11.084-16.135c0.483,8.176,0.79,13.381,1.16,19.64c12.106-5.298,16.848-15.935,20.222-26.56
	c3.48-10.959,8.585-10.907,16.772-5.628c4.875,3.143,10.441,5.23,15.241,8.468c9.849,6.642,25.607,9.271,21.9,26.413
	c-4.425,20.463-22.419,36.007-40.267,36.401C317.832,596.798,310.319,595.288,303.009,592.571z"/>
<path style="fill:#9C9C9C;" d="M708.529,557.74c0.415-6.64,0.738-11.821,1.206-19.314c2.537,3.087,3.861,4.362,4.787,5.88
	c4.747,7.779,14.594,16.317,11.048,23.936c-3.028,6.505-15.779,4.997-24.468,4.504c-9.358-0.531-10.166,3.968-6.232,10.302
	c6.132,9.872,0.001,10.961-7.53,12.46c-25.581,5.092-51.738-13.649-53.878-38.834c-0.427-5.024,2.473-8.527,5.767-11.246
	c4.85-4.003,10.151-7.581,15.643-10.655c8.471-4.741,17.464-12.705,25.87-12.267c8.891,0.463,8.435,14.488,13.618,21.677
	C698.006,549.241,701.192,554.69,708.529,557.74z"/>
<path style="fill:#9C9C9C;" d="M125.616,433.99c6.317-2.529,1.848-11.557,10.437-11.551c10.582,0.007,25.1,8.319,34.698,22.701
	c-8.519-4.561-15.591-8.327-22.646-12.128c-10.186-5.488-16.481-5.252-15.063,9.115c1.09,11.042,1.134,22.188,1.651,33.457
	c-6.259,1.228-8.501-3.393-10.653-7.612c-11.686-22.911-23.185-45.918-34.861-68.834c-2.327-4.566-1.731-8.238,1.993-11.679
	c4.282-3.956,8.025-8.609,12.694-12.011c21.17-15.424,36.001-9.387,42.235,15.908c1.794,7.279-3.548,7.003-6.467,9.065
	C125.001,410.756,123.266,414.443,125.616,433.99z"/>
<path style="fill:#9C9C9C;" d="M875.764,432.221c3.7-15.077-2.028-22.713-17.736-22.769c-9.191-0.033-8.958-4.895-5.769-11.492
	c2.527-5.226,5.249-10.524,6.643-16.101c4.316-17.259,17.532-15.883,29.94-13.894c13.335,2.137,18.719,14.047,24.746,24.362
	c0.849,1.453-0.618,4.673-1.658,6.753c-11.697,23.398-23.469,46.759-35.361,70.058c-1.964,3.849-4.318,7.772-10.651,6.707
	c0.621-4.628,1.24-9.233,1.858-13.839C870.984,452.224,864.682,439.892,875.764,432.221z"/>
<path style="fill:#9C9C9C;" d="M808.562,389.044c7.348-2.985,6.419-9.223,5.101-14.842c-1.856-7.912-8.153-12.523-13.752-18.037
	c-4.108-4.046-19.788,0.205-11.825-13.449c8.087-13.866,22.182-18.86,32.706-12.648c0.836,0.493,1.635,1.051,2.425,1.617
	c30.783,22.072,27.245,14.155,13.197,45.851c-6.269,14.145-10.844,29.031-16.731,43.358c-2.786,6.78-4.713,14.527-13.47,18.357
	c3.976-16.915,2.651-33.655,2.563-50.357L808.562,389.044z"/>
<path style="fill:#9B9B9B;" d="M195.664,439.96c-8.567-2.134-10.275-6.611-12.026-11.196c-8.979-23.508-17.813-47.076-27.2-70.421
	c-2.759-6.861-2.403-11.802,3.94-16.06c4.42-2.968,8.454-6.503,12.811-9.572c15.872-11.18,29.306-7.989,39.808,8.554
	c3.831,6.035,0.342,7.285-3.824,9.52c-23.591,12.659-23.953,16.404-18.417,43.151C193.724,408.277,191.008,423.716,195.664,439.96z"
	/>
<path style="fill:#9B9B9B;" d="M916.364,527.318c2.826-15.549,7.464-27.888,7.55-41.056c0.041-6.313-1.399-8.142-8.331-7.212
	c-15.774,2.117-28.742,9.604-41.368,18.433c11.553-17.665,29.125-25.755,48.994-28.302c10.436-1.338,2.369,10.684,7.547,14.028
	c9.918-14.915,8.382-19.435-8.078-25.658c-3.871-1.464-11.736-0.684-9.656-7.893c2.578-8.933,3.149-21.198,13.651-23.704
	c6.17-1.472,17.094-2.633,21.31,4.488c5.651,9.544,16.005,19.947,10.278,31.698c-10.164,20.853-22.872,40.471-34.687,60.505
	C922.723,524.09,920.483,524.717,916.364,527.318z"/>
<path style="fill:#FAFAFA;" d="M552.813,305.881c4.312,0.412,6.728-4.013,10.381-4.398c3.72-0.392,8.753-6.156,11.072-0.144
	c2.238,5.803-0.915,11.523-7.289,13.798c-2.606,0.93-5.759,0.355-8.664,0.415c-4.615,0.095-10.49-1.756-10.814,5.799
	c-0.412,9.623,8.07,0.702,11.044,5.77c-18.377,5.715-34.722-0.577-50.926-6.879c-5.176-2.013-2.094-5.553,0.073-7.957
	c14.255-15.813,28.642-31.507,42.973-47.252c3.259-3.581,6.134-3.884,9.143,0.458c4.164,6.007-0.039,6.182-4.251,6.432
	c-5.491,0.326-4.776,4.109-3.563,7.271c1.572,4.095,4.116,6.314,8.844,2.884c2.645-1.919,5.224-7.317,9.424-2.837
	c2.152,2.296,4.474,6.419,3.81,8.953c-1.385,5.281-7.094,3.742-11.186,4.305C550.733,294.172,550.722,294.091,552.813,305.881z"/>
<path style="fill:#FBFBFB;" d="M446.193,327.405c5.223-3.585,7.619-6.795,5.157-11.567c-2.002-3.882-5.767-2.77-9.025-2.941
	c-1.939-0.102-3.895-0.083-5.833,0.043c-5.379,0.349-9.856-0.86-10.785-7.014c-0.383-2.538-3.523-5.88,0.028-7.668
	c4.266-2.147,8.279,1.056,12.401,2.27c2.995,0.882,5.52,5.424,8.93,2.309c1.374-1.255,1.369-4.545,1.204-6.853
	c-0.359-5.026-4.656-3.798-7.775-4.355c-2.87-0.513-5.729-1.434-8.606-1.485c-7.465-0.134-7.439-3.7-5.131-9.33
	c2.138-5.216,4.38-7.011,9.255-2.687c3.119,2.766,6.996,6.747,10.507,0.417c2.892-5.214,0.791-8.235-4.962-8.948
	c-3.391-0.421-5.922-1.384-2.823-5.225c2.062-2.556,3.976-6.285,8.045-2.791c3.314,2.846,6.659,5.741,9.507,9.033
	c11.742,13.572,22.529,27.974,35.856,40.152c5.195,4.747,5.214,8.006-2.424,11.216C476.27,327.633,462.619,328.816,446.193,327.405z
	"/>
<path style="fill:#9B9A9A;" d="M70.549,484.823c-0.989-18.324,9.403-16.872,20.586-13.095c13.912,4.698,26.274,11.918,35.131,24.559
	c-14.559-9.431-29.523-17.478-47.613-17.575c-4.527,16.021,3.218,30.959,5.877,46.709c-6.172-0.068-8.421-3.884-10.538-7.545
	c-9.708-16.785-19.017-33.808-29.018-50.415c-6.493-10.78-0.121-18.374,5.179-26.438c5.972-9.088,15.003-14.79,25.234-15.356
	c6.114-0.338,5.56,9.061,8.667,13.697c3.855,5.751-2.309,6.111-4.919,7.935C63.043,458.548,61.26,464.854,70.549,484.823z"/>
<path style="fill:#F5F4F4;" d="M915.872,486.375c3.143,29.817-19.224,66.946-51.231,84.081c-1.359-7.96,4.275-13.501,5.796-20.076
	c1.736-7.503,4.618-14.826,5.585-22.408C879.78,498.519,886.296,491.444,915.872,486.375z"/>
<path style="fill:#D73337;" d="M247.139,509.395c-15.457,8.804-34.789,11.681-44.59,29.142
	c-12.47-14.045-15.265-31.85-19.143-49.235c6.751-9.01,15.568-14.547,26.836-15.964
	C221.701,486.217,231.805,500.481,247.139,509.395z"/>
<path style="fill:#D33539;" d="M797.868,538.584c-9.517-17.856-29.216-20.195-44.531-29.213
	c14.404-9.435,25.715-22.111,36.756-35.071c10.625,2.581,21.702,4.531,24.714,17.726
	C814.214,509.384,809.007,525.063,797.868,538.584z"/>
<path style="fill:#9B9B9B;" d="M44.609,552.393c6.279-18.718,22.529-18.436,43.577-0.251c-8.11-2.443-15.287-4.922-22.627-6.75
	c-14.195-3.534-16.677-1.008-13.374,13.563c1.069,4.714,2.969,9.246,4.584,13.828c1.565,4.441,3.253,8.839,5.389,14.615
	c-7.386-1.086-11.502-4.115-14.588-9.474c-9.47-16.444-19.764-32.44-28.655-49.185c-8.537-16.077,0.996-34.184,16.904-34.584
	c7.372-0.185,9.745,4.738,13.178,9.583c4.026,5.683,0.498,8.557-2.757,12.416C34.256,530.362,34.259,532.107,44.609,552.393z"/>
<path style="fill:#F9F9F9;" d="M201.167,392.072c27.327,12.57,31.943,20.122,29.144,48.05c-1.621,16.173,2.193,31.673,5.6,47.778
	C209.793,472.655,193.098,426.504,201.167,392.072z"/>
<path style="fill:#9B9B9B;" d="M957.817,552.198c1.3-3.642,2.278-7.442,3.968-10.893c3.704-7.564,3.098-12.468-6.122-15.4
	c-3.981-1.266-12.87-0.801-9.911-9.047c3.162-8.811,5.745-19.855,16.453-22.03c6.786-1.378,15.646-1.616,19.394,8.185
	c3.825,10.003,5.067,19.361-0.98,29.128c-8.927,14.422-17.306,29.186-25.773,43.888c-3.256,5.654-7.358,9.923-15.795,11.763
	c3.832-10.597,7.197-19.905,10.563-29.213C950.629,554.241,955.135,554.392,957.817,552.198z"/>
<path style="fill:#D63337;" d="M200.678,544.8c-6.129,15.967-21.559,13.154-33.818,16.522c-4.446,1.222-9.611-0.654-13.665,2.837
	c-8.528-1.651-14.544-5.725-14.82-15.343c1.696-14.356,8.93-24.894,21.765-31.571C172.929,527.495,185.954,537.396,200.678,544.8z"
	/>
<path style="fill:#D23539;" d="M848,564.135c-8.898-1.832-17.738-4.722-26.71-5.219c-10.462-0.58-17.259-4.95-21.507-14.114
	c15.183-6.733,27.292-18.111,40.963-27.132c13.377,6.488,20.214,17.31,21.205,32.004C863.284,560.267,855.069,561.649,848,564.135z"
	/>
<path style="fill:#FBFBFB;" d="M825.729,461.403c3.135-7.104,9.156-11.087,15.738-14.391c5.957-2.99,12.914-10.423,17.944-7.048
	c5.688,3.816,2.646,13.5,1.525,20.317c-3.743,22.764-14.338,41.956-32.112,57.006c-3.143,2.661-6.183,4.597-10.168,2.312
	c-0.17-0.098,1.343-3.131,2.073-4.797c7.026-16.016,6.815-33.45,10.102-50.198c0.026-1.98-3.599-0.654-1.663-0.419
	c0.592,0.072,0.639,0.425,0.794,0.749c1.208,2.536,0.329,6.017-1.696,5.651C822.418,469.527,825.538,464.828,825.729,461.403z"/>
<path style="fill:#FBFBFB;" d="M177.292,506.005c-3.648,5.16,6.432,11.427,1.186,13.611c-6.398,2.664-10.336-5.621-14.344-10.01
	c-16.301-17.851-24.782-38.942-25.009-63.305c-0.063-6.74,1.743-9.077,8.32-5.688c10.267,5.291,21.081,9.792,27.104,20.631
	c0.653,3.632,2.48,7.486-1.916,10.154c-4.985-0.246-0.862-6.054-4.451-7.385c4.547,10.475,2.913,21.821,5.652,32.407
	C173.947,499.987,176.623,502.635,177.292,506.005z"/>
<path style="fill:#F9F9F9;" d="M768.246,426.827c0.414-13.85,13.91-30.05,27.208-33.597c7.067-1.885,5.834,3.294,5.974,6.448
	c1.541,34.863-8.639,65.128-35.176,89.492c-2.314-4.133-1.584-7.133,0.752-9.947c5.333-3.968,4.176-10.459,6.102-15.752
	c2.894-12.434,2.438-24.901,0.408-37.291C771.794,427.019,770.153,428.188,768.246,426.827z"/>
<path style="fill:#FAFAFA;" d="M130.015,555.722c-3.005,7.147,5.997,8.098,7.009,15.284c-24.74-13.178-39.707-32.808-48.016-57.72
	c-2.806-8.412-10.11-21.005-3.458-25.435c7.532-5.016,18.594,3.565,27.092,9.016c1.153,0.739,1.98,1.988,2.957,3
	c2.071,5.918-0.126,12.392,2.416,18.249C120.499,531.139,121.752,544.545,130.015,555.722z"/>
<path style="fill:#F1F1F1;" d="M891.745,613.366c4.274-13.06,11.74-24.764,14.448-38.528c2.664-13.539,18.743-23.798,32.644-23.216
	c3.177,0.133,4.243,0.762,4.577,3.635C945.605,574.11,912.959,610.916,891.745,613.366z"/>
<path style="fill:#F1F1EF;" d="M111.833,617.111c-28.398-11.315-45.384-31.061-53.465-59.026c-1.191-4.121-0.771-6.007,4.361-6.286
	c13.72-0.747,28.945,10.076,32.15,23.313C98.341,589.411,104.326,602.725,111.833,617.111z"/>
<path style="fill:#9D9D9C;" d="M560.04,718.402c5.529-1.068,5.914-1.066,5.897,2.506c-0.195,42.009-5.605,82.474-35.016,115.651
	c-4.257-5.613-0.718-10.548,1.282-15.674c1.99-5.1,6.532-9.427,4.873-15.651c-0.67-16.238,6.129-31.382,7.286-47.216
	C545.476,742.797,554.783,731.563,560.04,718.402z"/>
<path style="fill:#FAFAFA;" d="M560.04,718.402c0.308,8.444-0.128,16.596-8.325,21.807c-0.788,0.501-2.142,1.34-2.058,1.811
	c3.943,21.937-9.558,40.939-10.378,62.047c-3.179,1.885-3.845-1.114-5.24-2.696c-2.266-4.228-4.56-8.442-6.789-12.69
	c-1.42-2.705-4.816-5.131,0.856-7.711c11.801-5.369-4.543-9.872,2.121-17.089c-0.037,0.008,3.23-0.674,7.711-1.609
	c-11.576-11.049-7.262-18.663,3.048-26.191C547.936,731.008,553.73,724.351,560.04,718.402z"/>
<path style="fill:#F7F7F7;" d="M282.899,467.967c25.304,0.479,32.753,8.678,30.311,31.119c-2.245,20.629-4.189,26.661-13.125,38.945
	C297.753,513.405,292.739,490.615,282.899,467.967z"/>
<path style="fill:#FAFAFA;" d="M700.324,540.538c-11.691-19.743-14.315-37.191-12.695-55.09
	c1.151-12.717,10.176-17.472,29.527-17.162C708.225,490.401,702.292,512.976,700.324,540.538z"/>
<path style="fill:#979797;" d="M524.507,906.383c0,16.654-0.008,32.936,0.006,49.218c0.003,3.793-1.051,6.114-5.482,7.005
	c-14.2,2.855-28,4.345-40.151-5.796c0.568-3.576,3.438-3.485,5.553-4.166c18.31-5.899,38.522-9.872,32.45-37.317
	C516.229,912.378,518.075,907.564,524.507,906.383z"/>
<path style="fill:#F4F6F6;" d="M680.812,166.445c1.532-3.426,3.037-6.865,4.609-10.273c0.81-1.756,2.668-4.858,2.483-4.981
	c-12.406-8.212,1.846-13.469,1.916-20.008c0.073-6.717-4.82-4.767-9.322-3.424c-8.129,2.425-15.251,9.181-26.863,5.559
	c18.02-7.495,33.466-16.314,48.172-26.416c2.915-2.003,6.702-3.063,9.471-0.567c2.737,2.467-0.266,5.173-1.423,7.624
	c-8.593,18.202-17.2,36.397-25.803,54.595C682.972,167.852,681.892,167.148,680.812,166.445z"/>
<path style="fill:#F4F5F5;" d="M309.135,151.751c-6.121-13.135-12.226-26.277-18.377-39.398c-1.358-2.896-4.899-5.767-0.978-8.866
	c2.618-2.069,5.422-0.422,8.009,1.162c15.177,9.289,30.402,18.5,47.305,28.766c-9.661,1.603-15.128-4.034-21.65-5.858
	c-3.873-1.083-7.765-5.664-11.798-1.099c-4.611,5.22,1.881,7.328,3.769,10.609c1.424,2.475,3.563,4.538,5.277,6.653
	c-1.669,4.823-8.134-0.444-8.993,4.998C313.335,151.834,311.566,152.073,309.135,151.751z"/>
<path style="fill:#999999;" d="M457.411,834.41c6.328,9.896,9.595,21.34,10.206,32.228c0.421,7.499-10.289,9.271-16.918,11.468
	c-10.022,3.321-20.033-0.909-30.379-2.111c4.997-8.356,14.007-10.156,21.77-13.304c9.675-3.923,16.046-8.502,11.476-20.223
	C452.494,839.718,453.665,836.733,457.411,834.41z"/>
<path style="fill:#9B9B9A;" d="M457.491,801.219c-2.871,5.341-4.641,10.43-9.682,0.625c-7.212-14.028-10.172-29.778-8.29-43.804
	c1.086-8.096,2.842-19.748,9.661-27.191c3.098-3.381,4.063,1.406,5.175,3.641c7.518,15.619,6.906,31.201,0.638,47.146
	C452.421,788.18,455.703,794.794,457.491,801.219z"/>
<path style="fill:#F6F6F6;" d="M457.491,801.219c-7.833-7.38-7.784-14.004-3.911-24.948c4.459-12.602,4.142-27.756,0.775-41.781
	C472.766,755.917,473.852,778.158,457.491,801.219z"/>
<path style="fill:#999897;" d="M861.95,549.675c-5.366-11.796-12.734-22.265-21.204-32.005c4.129-5.808,8.258-11.616,13.591-19.117
	C860.713,516.476,876.667,530.574,861.95,549.675z"/>
<path style="fill:#9A9A98;" d="M160.14,517.245c-8.638,9.573-15.256,20.536-21.762,31.575c-14.368-18.963,3.906-32.997,7.739-50.664
	C151.149,505.006,155.644,511.126,160.14,517.245z"/>
<path style="fill:#999898;" d="M814.806,492.026c-6.221-8.721-17.208-10.802-24.711-17.732c2.063-7.524,6.083-14.003,11.632-21.882
	C807.403,466.119,824.849,474.023,814.806,492.026z"/>
<path style="fill:#9A9997;" d="M210.241,473.339c-8.947,5.317-17.893,10.633-26.838,15.957
	c-4.708-16.037,9.355-23.939,15.066-36.224C204.457,459.294,207.316,466.336,210.241,473.339z"/>
<path style="fill:#969696;" d="M654.85,346.343c9.129-11.31,18.18-22.685,27.451-33.878c1.921-2.319,3.485-6.926,7.787-4.2
	c2.75,1.742,5.625,4.386,6.78,7.288c1.719,4.319-3.142,5.212-5.607,7.045c-11.5,8.55-23.123,16.936-34.702,25.38
	C655.99,347.432,655.42,346.888,654.85,346.343z"/>
<path style="fill:#EEF0F1;" d="M467.979,376.523c-8.697-9.951-10.386-19.1-12.807-27.76c-0.844-3.021-4.425-7.904,0.899-10.081
	c3.352-1.37,7.72-1.412,11.355-0.677c6.328,1.278,2.457,6.111,2.311,9.45C469.363,356.004,468.725,364.543,467.979,376.523z"/>
<path style="fill:#878787;" d="M875.764,432.221c-5.279,9.227-4.689,20.028-7.989,29.786c-1.147-34.757-1.145-34.753-32.948-19.286
	c-1.198,0.583-2.519,0.914-4.116,1.482c4.864-9.719,10.638-13.788,21.436-19.214C863.014,419.528,869.411,424.905,875.764,432.221z"
	/>
<path style="fill:#C63138;" d="M495.87,300.517c-3.211-17.458-16.99-18.371-25.247-26.863c18.629,5.898,36.79,14.153,56.237,1.795
	c-4.555,9.807-16.343,9.211-21.865,18.087C502.553,297.461,497.925,294.582,495.87,300.517z"/>
<path style="fill:#E8ECEF;" d="M533.843,373.061c-1.086-9.062-1.968-18.155-3.325-27.176c-1.005-6.684,2.447-8.271,8.105-8.716
	c6.657-0.524,6.665,3.622,6.704,8.277C545.413,355.882,541.249,364.743,533.843,373.061z"/>
<path style="fill:#B63B48;" d="M654.355,836.719c-15.969-19.52-2.182-44.762-17.671-63.184
	C656.674,790.784,650.646,814.461,654.355,836.719z"/>
<path style="fill:#D03839;" d="M238.649,462.031c1.799-0.444,4.595-1.861,5.25-1.189c11.952,12.255,14.092,29.076,5.707,42.345
	C242.065,490.504,239.161,476.586,238.649,462.031z"/>
<path style="fill:#97958E;" d="M607.037,921.401c-2.753-1.106-8.88-1.975-2.747-5.72c16.409-10.018,25.013-25.339,32.123-42.251
	c1.052-2.502,5.456-3.595,9.768-6.232c-5.195,25.017-22.263,39.701-39.356,54.369C606.825,921.571,607.037,921.401,607.037,921.401z
	"/>
<path style="fill:#B1B1B1;" d="M825.729,461.403c0.347,2.343,0.694,4.685,1.242,8.384c1.657-3.331,2.723-5.476,5.007-10.069
	c1.103,21.242,2.309,39.649-11.248,55.084C822.265,496.99,822.11,479.02,825.729,461.403z"/>
<path style="fill:#D13639;" d="M750.853,503.179c-5.586-9.825-13.515-19.614,1.874-28.328c3.529-1.998,2.604-6.838,2.952-10.599
	c0.463-4.986,3.471-3.082,6.085-2.141C761.756,476.765,757.942,490.407,750.853,503.179z"/>
<path style="fill:#CD3238;" d="M422.893,188.379c4.211,4.446,14.359-3.16,16.081,5.414c0.707,3.524-4.117,11.532-12.308,10.926
	c-7.479-0.553-11.412-5.117-12.415-11.683C413.347,187.124,418.097,187.74,422.893,188.379z"/>
<path style="fill:#D13439;" d="M571.591,192.609c3.967,1.73,11.44-3.367,11.25,4.675c-0.162,6.834-5.471,10.66-12.943,10.591
	c-6.701-0.062-11.987-5.018-11.87-9.486C558.254,189.715,566.942,194.62,571.591,192.609z"/>
<path style="fill:#8B8B8B;" d="M808.776,388.894c-3.162-3.324-5.223-6.301-11.561-3.636c-11.853,4.984-21.433,12.649-31.108,21.393
	c3.426-12.355,25.26-30.804,36.332-30.411c9.182,0.326,5.893,7.639,6.126,12.804C808.562,389.044,808.776,388.894,808.776,388.894z"
	/>
<path style="fill:#989898;" d="M247.665,382.829c5.047,13.901,17.418,27.927,0,43.956
	C247.665,410.993,247.665,396.911,247.665,382.829z"/>
<path style="fill:#8B8B8B;" d="M234.724,405.368c-7.115-4.521-12.87-10.884-20.46-14.605c-5.177-2.538-11.043-4.058-15.545-7.439
	c-2.674-2.008-8.286,10.414-7.148-1.675c0.548-5.824,4.265-6.68,9.361-4.737C215.506,382.469,227.472,391.04,234.724,405.368z"/>
<path style="fill:#C8CDD2;" d="M592.243,189.223c5.598,9.74,4.195,16.583-4.907,23.939c-11.193,9.045-24.411,8.578-34.816-1.23
	C582.85,216.235,584.585,215.243,592.243,189.223z"/>
<path style="fill:#989896;" d="M753.246,425.508c-12.718-10.915-12.727-20.852,0-44.204
	C753.246,396.669,753.246,410.821,753.246,425.508z"/>
<path style="fill:#8B8A88;" d="M957.817,552.198c-1.282,3.993-5.444,4.286-8.203,6.381c1.606-13.324-3.326-17.604-16.253-12.439
	c-5.196,2.076-11.015,2.592-17.877,4.112C936.213,533.217,951.047,534.269,957.817,552.198z"/>
<path style="fill:#AAA9A6;" d="M130.015,555.722c-14.814-8.8-12.048-24.553-15.039-38.028c-0.916-4.103-2.388-8.274,1.738-12.284
	c10.77,7.792,2.034,21.008,8.411,29.72C129.065,541.445,130.563,548.341,130.015,555.722z"/>
<path style="fill:#C8CED4;" d="M533.33,412.608c4.784,11.78,2.697,19.287,1.722,26.8c-0.708,5.458-4.626,7.995-9.097,7.226
	c-7.024-1.209-2.014-6.175-1.273-8.938C526.641,430.391,529.541,423.337,533.33,412.608z"/>
<path style="fill:#ECEEF1;" d="M497.762,806.465c-12.473-20.562-13.042-29.083-2.255-43.229
	C496.282,778.082,496.969,791.258,497.762,806.465z"/>
<path style="fill:#DBDFE3;" d="M468.089,414.855c3.036,8.4,5.662,15.865,8.444,23.27c1.149,3.058,3.895,6.885-0.921,8.255
	c-3.568,1.015-7.644-0.686-9.028-5.238C464.015,432.691,462.899,424.295,468.089,414.855z"/>
<path style="fill:#D4D4D4;" d="M776.341,464.584c-0.681,6.431-2.07,12.409-9.337,14.639c2.595-17.413,4.302-34.848,1.242-52.396
	c1.657-1.027,3.313-2.054,4.97-3.081C779.445,436.962,773.805,451.086,776.341,464.584z"/>
<path style="fill:#DEDEDD;" d="M534.04,801.371c1.747,0.899,3.495,1.799,5.241,2.697c1.44,11.917-10.822,20.31-8.36,32.491
	c-2.012,4.219-2.96,9.224-8.188,11.19C522.207,831.162,535.845,818.152,534.04,801.371z"/>
<path style="fill:#C6C7C7;" d="M177.292,506.005c-3.494-0.538-5.295-2.795-6.125-6.036c3.695-9.825-5.283-19.801,0.351-29.603
	c3.422-2.239,2-6.087,3.031-9.12C178.336,475.989,177.232,491.032,177.292,506.005z"/>
<path style="fill:#BD363C;" d="M628.768,767.646c4.459,34.906,4.459,34.906-1.738,38.153
	C629.616,794.194,621.428,783.068,628.768,767.646z"/>
<path style="fill:#898989;" d="M446.183,409.269c-1.831-0.776-3.662-1.551-5.493-2.327c-3.023-10.896-6.046-21.793-9.069-32.69
	c1.026-0.002,2.051-0.005,3.077-0.007C440.106,385.402,444.727,396.817,446.183,409.269z"/>
<path style="fill:#DFDFDF;" d="M125.125,535.13c-7.806-7.423-0.178-19.425-8.562-26.39c-2.38,2.156-0.509,5.896-1.584,8.954
	c-4.591-6.11-2.149-11.974,0.621-17.827C130.593,508.429,121.515,523.493,125.125,535.13z"/>
<path style="fill:#EDEFF2;" d="M413.68,207.656c9.756,4.573,19.708,2.524,30.675-0.134c-11.369,11.2-20.08,10.996-35.105,0.215
	C410.703,206.446,412.18,206.419,413.68,207.656z"/>
<path style="fill:#C1C7CF;" d="M413.68,207.656c-1.477,0.027-2.953,0.054-4.43,0.081c-9.679-10.487-9.81-11.124-3.894-24.01
	C409.08,192.171,406.217,202.002,413.68,207.656z"/>
<path style="fill:#A73A40;" d="M631.685,825.084c5.244,6.68,8.676,11.836,8.158,18.803
	C635.45,839.063,627.916,835.918,631.685,825.084z"/>
<path style="fill:#CFD4D8;" d="M482.401,353.162c-1.462-6.565-3.268-11.24-0.45-15.669c0.289-0.454,5.452,0.777,6.015,2.17
	C489.898,344.446,487.447,348.296,482.401,353.162z"/>
<path style="fill:#E8ECEF;" d="M518.435,352.208c-4.138-3.985-7.79-8.163-3.48-13.509c0.698-0.865,3.218-1.55,3.744-1.066
	C523.918,342.436,517.057,347.058,518.435,352.208z"/>
<path style="fill:#C1C8D0;" d="M309.135,151.751c0.855-1.011,1.71-2.022,2.564-3.033c4.5,4.899,7.151,10.578,8.089,17.898
	C312.905,163.21,311.179,157.37,309.135,151.751z"/>
<path style="fill:#1C1C1C;" d="M470.668,175.419c-8.441-17.177-26.313-15.235-35.693-27.368c8.88-2.777,15.548,1.206,23.554,2.475
	c-2.149-22.862-16.888-38.592-30.65-55.83c44.797,13.458,68.232,42.13,67.285,88.262c-10.064-7.923-10.059-21.283-19.441-29.997
	C474.278,159.386,472.969,165.197,470.668,175.419z"/>
<path style="fill:#1C1C1C;" d="M505.398,184.36c-0.729-44.579,21.817-74.503,68.879-91.293
	c-13.533,18.637-31.353,32.888-31.539,57.39c6.886,0.891,13.924-3.646,21.635-0.049c-8.891,10.439-24.28,10.15-32.694,20.81
	c-2.468,3.126-5.31-0.649-5.948-3.455c-0.851-3.738-0.829-7.674-1.26-12.363C513.994,161.964,515.09,175.471,505.398,184.36z"/>
<path style="fill:#D33639;" d="M757.335,523.34c11.183,4.648,24.894,6.615,29.936,21.175c1.116,3.221,2.319,6.86-0.109,9.641
	c-2.788,3.194-6.402,1.385-9.125-0.508c-9.069-6.305-18.13-12.654-26.767-19.525c-2.386-1.898-4.679-5.706-2.738-9.074
	C750.147,522.247,753.765,523.525,757.335,523.34z"/>
<path style="fill:#D73437;" d="M246.961,523.34c0.779,0.262,3.837,0.355,4.961,1.877c1.873,2.537,0.76,6.089-1.585,7.87
	c-9.584,7.282-19.379,14.295-29.261,21.17c-2.361,1.643-5.599,2.464-7.94-0.101c-2.175-2.383-1.266-5.509-0.535-8.289
	C215.522,534.767,232.141,523.403,246.961,523.34z"/>
<path style="fill:#252323;" d="M491.227,369.082c9.72,5.625,9.72,5.625,19.122-0.933c-9.524,16.924-4.081,36.129-9.135,54.037
	C498.535,405.053,497.83,388.025,491.227,369.082z"/>
<path style="fill:#9E9E9E;" d="M226.317,418.532c0,15.764,0,29.579-0.011,43.399C219.459,448.233,219.306,438.666,226.317,418.532z"
	/>
<path style="fill:#A9A9A9;" d="M171.518,470.365c-2.6,9.839,7.484,19.828-0.352,29.604c-4.184-12.302-3.766-24.808-0.652-37.53
	C170.849,465.081,171.184,467.723,171.518,470.365z"/>
<path style="fill:#A4A4A4;" d="M776.341,464.584c-5.57-13.266-0.689-27.33-3.123-40.837c2.724-6.174,3.145-1.955,3.702,0.858
	C779.568,437.967,779.57,451.301,776.341,464.584z"/>
</svg>
