<?xml version="1.0" encoding="utf-8"?>
<!-- Generator: Adobe Illustrator 28.3.0, SVG Export Plug-In . SVG Version: 6.00 Build 0)  -->
<svg version="1.1" id="Layer_1" xmlns="http://www.w3.org/2000/svg" xmlns:xlink="http://www.w3.org/1999/xlink" x="0px" y="0px"
	 viewBox="0 0 1000 1000" style="enable-background:new 0 0 1000 1000;" xml:space="preserve">
<path style="fill:#888888;" d="M446.601,166.111c4.501,0,9.002-0.001,13.502,0"/>
<path style="fill:#888888;" d="M481.976,166.01c15.351,0.488,30.238,0.825,45.233,1.876c34.749,2.434,68.329,10.599,101.414,20.577
	c86.105,25.968,162.463,69.779,230.185,128.696c26.849,23.358,51.451,49,73.929,76.634c7.217,8.872,7.243,8.851,16.794,2.221
	c7.021-4.874,10.99-3.925,15.681,4.59c9.729,17.66,16.463,36.57,23.051,55.575c7.275,20.986,9.336,42.807,11.738,64.618
	c0,1.976,0,3.952,0,5.928c-1.22,1.317-1.22,2.635,0,3.952c0,2.635,0,5.269,0,7.904c-2.177,5.029-0.434,10.311-0.995,15.444
	c0.508,4.059-1.104,8.291,0.995,12.221c0,3.293,0,6.587,0,9.88c-2.884,12.099-1.572,24.7-4.873,36.817
	c-16.009,58.768-51.599,103.372-99.671,139.163c-54.708,40.732-117.641,60.399-183.691,72.286
	c-31.444,5.659-63.077,8.497-95.051,8.848c-15.417,0.169-30.852,0.627-46.287,0.748c-5.428,0-10.854,0.001-16.278,0
	c-40.093-0.102-80.13,0.45-119.695-8.622c-69.72-15.986-134.512-43.435-194.806-81.627c-8.084-5.121-16.009-6.981-25.193-5.457
	c-30.871,5.122-59.486-1.675-86.482-16.687c-4.032-2.242-8.029-4.539-12.405-6.049c-39.746-13.713-60.349-43.493-69.753-82.799
	c-4.261-17.809-4.17-35.886-3.919-53.995c0.092-6.649-0.447-13.106-3.782-19.114C18.677,524.619,3.682,488.074,0,447.686
	c0-3.952,0-7.904,0-11.856c1.652-16.467,1.652-32.934,0-49.4c0-2.635,0-5.269,0-7.904c3.639-33.508,18.254-62.048,40.105-87.091
	c22.885-26.228,51.45-44.811,82.576-59.744c3.259-1.563,6.543-3.203,9.962-4.292c12-3.821,19.346-9.639,20.472-24.288
	c1.219-15.856,14.053-24.312,31.611-25.507c14.752-1.004,28.985,2.125,42.477,7.409c15.097,5.913,29.352,5.998,45.084,1.604
	c47.663-13.312,96.303-20.936,145.984-20.515"/>
<path style="fill:#8D8D8D;" d="M0,386.429c3.238,16.467,3.235,32.934,0,49.4C0,419.363,0,402.896,0,386.429z"/>
<path style="fill:#959595;" d="M998.092,554.446c0.648-5.287-1.856-10.952,1.908-15.864c0,5.269,0,10.539,0,15.808
	C999.394,555.443,998.757,555.414,998.092,554.446z"/>
<path style="fill:#A1A1A1;" d="M998.092,554.446c0.636-0.022,1.272-0.041,1.908-0.056c0,3.952,0,7.904,0,11.856
	C996.561,562.766,998.556,558.407,998.092,554.446z"/>
<path style="fill:#C1C1C1;" d="M1000,530.678c-1.902-1.317-2.172-2.635,0-3.952C1000,528.044,1000,529.361,1000,530.678z"/>
<path style="fill:#212121;" d="M970.114,522.678c-1.153,24.768-9.53,47.486-20.372,69.343
	c-12.786,25.777-29.661,48.631-52.216,70.138c0-30.05,0-58.024,0-88.243c-9.261,7.465-15.877,14.594-24.115,19.689
	c-3.038,1.879-1.629,6.122-1.646,9.308c-0.124,23.026-0.598,46.066,0.069,69.071c0.274,9.45-2.312,15.795-11.082,19.355
	c-4.896,1.499-9.804,2.946-15.036,3.017c0.471,2.442,3.308,2.697,3.315,4.959c-17.314,12.502-36.363,21.94-57.612,31.325
	c38.839,0.774,122.91-47.967,163.126-93.258c1.985-0.268,3.362,0.028,2.357,2.537c-20.651,45.953-54.199,80.454-96.149,107.202
	c-33.016,21.051-69.124,35.04-106.823,45.287c-7.282,1.979-9.117,0.438-9.096-6.916c0.193-67.51,0.276-135.022-0.121-202.53
	c-0.046-7.79,3.049-9.669,10.054-9.264c-4.819-11.706,1.974-17.011,10.608-22.637c-10.111,0-20.223,0-31.492,0
	c1.883-5.094,5.132-6.867,7.786-8.97c4.491-3.558,4.106-8.578,2.733-12.662c-1.808-5.38-6.231-1.176-9.179-0.61
	c-15.609,2.997-15.706,3.156-15.722,18.999c-0.084,80.683-0.23,161.366,0.069,242.047c0.031,8.221-2.293,11.276-10.388,12.749
	c-53.701,9.776-107.856,11.033-162.257,10.976c-93.296-0.099-179.181-25.254-258.819-73.103c-2.247-1.35-4.463-2.754-6.647-4.203
	c-1.329-0.882-2.569-1.897-3.389-4.064c8.119,2.336,16.293,4.498,24.349,7.036c71.264,22.453,144.011,36.524,218.837,38.984
	c1.556,0.051,3.087,0.834,4.63,1.276c-4.218,2.187-8.603,0.77-10.513,0.857c1.894-0.445,6.307,1.508,10.514-0.873
	c16.995,0,33.991,0.001,50.986,0.001c4.064,2.631,8.76,0.064,12.959,1.579c1.318,0.028-0.558-2.172-0.02-0.969
	c-4.349,0.628-8.706,1.412-12.933-0.596c6.452-2.84,13.45-0.469,20.03-2.095c4.633-1.872,9.701,0.438,14.328-1.488
	c3.706-0.139,7.412-0.278,11.118-0.417c1.092-1.476,3.063-1.736,4.118-3.032c-3.655-0.159-7.137-1.317-10.705-0.35
	c-0.875,0.294-1.764,0.489-2.682,0.574c-2.758-0.214-5.6,0.637-8.262-0.681c-10.68,1.078-12.398-4.385-12.355-14.008
	c0.392-87.912,0.416-175.827,0.046-263.739c-0.039-9.381,2.826-11.641,11.592-11.208c13.797,0.682,27.672-0.25,41.477,0.341
	c8.418,0.36,15.346-1.767,21.726-7.129c6.197-5.208,12.797-9.937,21.648-16.743c-14.697,0-26.647,0-38.598,0
	c-7.245,0-14.494,0.161-21.734-0.036c-12.243-0.333-24.585-1.282-33.563,10.296c-0.794-0.339-1.587-0.677-2.381-1.016
	c0-12.203,0.019-24.406-0.005-36.609c-0.035-18.085-0.048-18.085-18.222-18.084c-50.055,0.001-100.112,0.147-150.165-0.161
	c-7.281-0.045-9.644,1.761-9.452,9.289c0.52,20.401,0.118,40.825,0.205,61.239c0.04,9.256-2.875,19.561,10.065,24.357
	c-4.804,3.045-8.119,2.039-11.215,2.045c-40.505,0.084-81.011,0.034-121.516,0.066c-16.662,0.013-29.535,12.608-29.535,28.767
	c0,32.851,0,65.702,0,100.103c-19.182-9.973-34.784-22.847-51.781-33.748c9.38,12.843,21.943,22.482,32.991,33.671
	c-2.217,2.306-4.607,0.939-6.662,1.432c-3.542-0.443-7.523-3.098-9.966,1.982c65.864,31.214,134.57,53.736,206.269,66.886
	c8.631,1.583,17.43,3.357,26.378,2.618c6.153,2.666,12.213-3.581,18.361-0.202c3.583,2.453,7.989,1.735,11.157,2.925
	c-1.219-0.157-2.883-0.819-3.583-2.879c0.051-89.9,0.053-179.799,0.285-269.698c0.013-5.02-2.116-8.769-4.149-12.828
	c-0.671-2.072,0.225-2.571,2.098-2.091c8.986,14.255,28.358,14.34,37.438-0.001c1.875-0.477,2.774,0.026,2.106,2.1
	c-2.546,4.302-3.726,8.772-3.717,13.95c0.15,85.939,0.106,171.878,0.111,257.817c0,2.304,0.002,4.611,0.114,6.911
	c0.105,2.167,1.008,3.773,3.433,3.988c3.238,0.287,3.829-1.826,3.878-4.36c0.051-2.633,0.057-5.268,0.057-7.902
	c0.003-83.963,0.142-167.927-0.207-251.889c-0.036-8.721,2.135-11.391,10.905-10.881c13.385,0.778,26.848,0.204,41.558,1.108
	c-16.248,7.112-12.683,20.805-12.691,33.095c-0.062,95.158-0.084,190.315,0.091,285.472c0.014,7.395-0.511,11.541-9.963,10.354
	c-59.166-7.43-117.575-18.303-174.498-36.401c-58.048-18.455-113.007-43.132-161.808-80.231c-1.309-0.995-2.657-1.954-4.07-2.789
	c-0.48-0.283-1.217-0.13-3.825-0.326c9.472,15.207,22.052,25.774,34.102,36.806c-1.48,4.503-5.358,3.613-8.791,4.12
	c-6.387,0.943-12.697-2.531-19.058-0.147c-8.964,0.788-17.283-3.413-26.92-3.689c8.483,9.216,17.154,17.063,26.593,24.112
	c2.185,1.632,6.474,2.474,5.372,6.007c-0.856,2.743-4.741,2.98-7.53,3.891c-16.934,5.532-33.807,3.757-50.423-1.02
	c-20.577-5.915-39.705-15.766-58.523-25.48c-28.886-14.912-41.103-42.332-46.341-72.894c-3.379-19.718-4.367-39.726-0.553-59.642
	c-0.879-0.981,2.065,0.347,0.757,0.508c-1.308,0.162-0.903,1.83-0.144,0.758c1.209-1.706,0.619-3.319-0.448-4.853
	c0.494-5.994-1.057-11.191-3.95-16.681c-19.389-36.801-33.565-75.207-33.791-117.562c0.308-4.689,0.31-9.378-0.002-14.066
	c0.087-52.888,23.81-93.92,63.898-126.543c21.88-17.806,46.693-30.723,72.917-40.681c8.485-3.222,13.763-6.651,11.599-16.424
	c0.313-3.957,0.312-7.914,0-11.87c-1.509-9.978,3.359-14.324,12.852-15.654c19.679-2.757,38.169,0.252,54.623,11.507
	c6.714,4.592,12.419,4.71,19.973,2.391c51.836-15.914,104.992-23.961,159.146-26.433c87.325-3.985,171.953,8.776,253.225,40.993
	c97.009,38.454,176.976,100.304,243.101,180.546c6.277,7.617,12.456,15.331,18.33,23.259c3.466,4.678,6.342,6.04,10.718,1.017
	c3.715-4.265,6.842-4.8,9.966,1.566c9.544,19.448,15.378,39.763,16.497,61.41C970.286,502.983,970.112,512.83,970.114,522.678z"/>
<path style="fill:#212121;" d="M339.736,676.819c-12.587-3.776-24.647-8.796-36.087-15.281c1.976-4.242,6.608-2.734,10.168-4.582
	c-5.595-0.686-10.574-0.276-15.229,2.303c-9.161-2.062-12.176-7.54-11.987-17.041c0.551-27.614-0.005-55.248,0.061-82.874
	c0.022-9.227,1.475-18.814-9.758-23.996c49.891,0,99.781,0,149.672,0c-14.907,6.229-11.524,19.065-11.537,30.506
	c-0.048,41.769-0.241,83.54,0.173,125.305c0.08,8.125-2.338,9.678-9.393,7.237c-5.567-1.926-11.269-3.461-16.911-5.17
	c1.482-3.669,5.294-2.958,8.852-4.679c-6.125-0.5-11.317-0.65-16.002,2.641c-11.241-3.555-22.483-7.111-33.724-10.666
	c0.391-6.38,7.395-2.714,9.498-6.33c-6.114-3.374-11.62-2.858-16.558,2.1C340.562,676.47,340.149,676.644,339.736,676.819z"/>
<path style="fill:#212121;" d="M446.482,706.677c-7.964,0.373-5.692-5.635-5.7-9.681c-0.106-54.312-0.071-108.624-0.071-162.937
	c0-23.042-0.241-46.087,0.108-69.123c0.16-10.558,0.804-20.787-13.062-24.572c0.423-0.849,0.846-1.698,1.269-2.547
	c16.385,0,32.77,0,49.155,0c1.924,3.032,1.016,6.41,1.018,9.617c0.055,85.075,0.048,170.151,0.04,255.226
	c-0.001,12.389-0.47,12.669-12.983,8.197c-0.543-0.24-1.094-0.46-1.654-0.659c-0.92-3.712,3.829-3.516,4.227-6.26
	c-6.278-3.308-12.068-3.588-17.045,2.259C450.093,707.223,448.388,708.084,446.482,706.677z"/>
<path style="fill:#808080;" d="M466.255,710.856c12.31,1.028,12.315,1.028,12.316-11.525c0.002-83.561,0.006-167.121-0.016-250.682
	c-0.001-3.611-0.244-7.221-0.375-10.832c3.54,3.573,2.031,8.096,2.035,12.188c0.09,83.407,0.047,166.815,0.129,250.222
	c0.004,4.122-1.374,8.605,1.905,12.278c0.345,1.883-0.113,2.92-2.277,2.159c-6.647-0.512-13.522,1.205-19.895-2.026
	C462.22,712.34,464.552,712.685,466.255,710.856z"/>
<path style="fill:#CC1119;" d="M381.757,691.187c-0.619-3.628-0.421-6.566,4.515-6.402c4.566,0.152,9.14,0.038,13.711,0.042
	c2.544,0.003,4.476,0.68,4.595,3.744c0.135,3.478-1.884,4.558-4.889,4.597c-3.591,0.046-7.182,0.039-10.777,0.056
	C386.524,692.546,384.14,691.866,381.757,691.187z"/>
<path style="fill:#CB121A;" d="M298.588,659.258c-0.125-2.967-0.632-6.129,3.972-6.062c4.9,0.071,9.802,0.011,14.703,0.028
	c2.655,0.01,4.343,1.035,4.316,4.016c-0.026,2.839-1.492,4.207-4.201,4.25c-4.572,0.072-9.146,0.037-13.725,0.047
	C301.962,660.778,300.275,660.018,298.588,659.258z"/>
<path style="fill:#D0131A;" d="M849.031,699.316c-1.957-0.073-3.914-0.195-5.871-0.209c-2.893-0.021-5.09-0.583-5.134-4.252
	c-0.046-3.829,2.37-4.161,5.16-4.09c5.858,0.148,11.714,0.376,17.568,0.573C856.845,693.999,852.938,696.657,849.031,699.316z"/>
<path style="fill:#1A1A1A;" d="M219.41,688.663c5.238-3.64,11.149-1.38,16.738-1.793c3.836-0.283,7.653-0.166,11.111-2.18
	c1.276,0.925,3.479,1.717,3.636,2.803c0.331,2.299-2.205,1.761-3.547,1.987C237.995,691.048,228.693,689.989,219.41,688.663z"/>
<path style="fill:#1A1A1A;" d="M970.114,522.678c-2.7-9.87-3.103-19.722,0.24-29.543
	C972.646,503.002,972.269,512.848,970.114,522.678z"/>
<path style="fill:#423132;" d="M446.482,706.677c1.402-0.702,2.804-1.403,4.206-2.105c7.995-3.187,15.772-3.094,23.244,1.55
	c-1.894,4.144-6.98,0.981-9.331,4.076C458.476,709.467,452.226,709.375,446.482,706.677z"/>
<path style="fill:#646464;" d="M634.423,771.802c1.836,2.374,0.537,3.421-1.75,3.563c-3.428,0.213-6.876,0.117-10.316,0.153
	c-2.072-2.578-5.009-1.573-7.638-1.844c-0.785-0.303-1.052-0.623-0.808-0.963c0.248-0.346,0.499-0.521,0.757-0.521l-0.011-0.829
	C621.265,770.654,627.873,769.912,634.423,771.802z"/>
<path style="fill:#1A1A1A;" d="M23.507,408.051c3.34,4.688,3.335,9.377,0.002,14.066C21.702,417.429,21.703,412.74,23.507,408.051z"
	/>
<path style="fill:#4E3233;" d="M363.17,676.483c-3.979,5.34-10.827-0.067-15.137,4.039c-2.915-0.897-6.071-1.256-8.295-3.703
	c-0.002,0,0.331-0.374,0.331-0.374C347.777,671.65,355.478,671.431,363.17,676.483z"/>
<path style="fill:#746E6E;" d="M479.972,714.665c0.759-0.72,1.517-1.44,2.276-2.159c1.254-0.007,2.509-0.014,3.763-0.021
	c2.673,0.927,5.346,1.855,10.278,3.565C489.177,716.439,484.468,717.086,479.972,714.665z"/>
<path style="fill:#1A1A1A;" d="M171.921,212.533c2.936,3.957,2.936,7.913,0,11.87C170.078,220.447,170.078,216.49,171.921,212.533z"
	/>
<path style="fill:#6E6E6E;" d="M227.429,643.136c-1.437-0.638-2.874-1.275-6.292-2.792c6.866-1.33,11.58-1.378,16.257,0.811
	C234.126,642.086,230.308,640.25,227.429,643.136z"/>
<path style="fill:#818181;" d="M611.238,775.934c-4.563,2.549-9.5,1.5-14.329,1.488
	C601.413,774.295,606.428,776.103,611.238,775.934z"/>
<path style="fill:#1A1A1A;" d="M61.25,556.359c2.582,2.19,1.954,4.894,0.62,7.734c-0.261-1.382-0.523-2.763-0.784-4.146
	C61.14,558.751,61.195,557.555,61.25,556.359z"/>
<path style="fill:#454545;" d="M523.79,429.967c-0.702-0.7-1.404-1.4-2.106-2.099c0.856-1.649,2.267-4.354,3.754-3.184
	C527.699,426.461,525.268,428.425,523.79,429.967z"/>
<path style="fill:#454545;" d="M484.245,427.868c-0.699,0.697-1.398,1.394-2.098,2.091c-1.492-1.538-3.92-3.504-1.661-5.287
	C481.962,423.506,483.389,426.213,484.245,427.868z"/>
<path style="fill:#2D2D2D;" d="M956.902,639.919c-0.786-0.846-1.571-1.691-2.357-2.537c1.128-1.675,1.76-5.291,4.436-3.108
	C960.638,635.626,958.341,638.23,956.902,639.919z"/>
<path style="fill:#818181;" d="M614.668,772.19c-0.024,0.496-0.008,0.991,0.05,1.485c-3.351-0.226-6.947,1.015-9.892-1.647
	C608.107,772.082,611.387,772.136,614.668,772.19z"/>
<path style="fill:#FEFEFE;" d="M263.112,339.749c-5.193,8.063-13.572,10.981-22.12,13.431c-21.023,6.026-42.034,7.116-62.682-1.454
	c-4.058-1.684-9.996-3.437-9.744-8.414c0.223-4.42,5.311-7.029,9.617-8.935c5.067-2.242,10.416-2.064,13.221,2.61
	c3.352,5.585,5.639,3.403,8.937,0.617c5.818-4.914,6.355-11.042,4.803-17.928c-1.608-7.136-7.378-7.63-12.886-8.083
	c-11.516-0.946-23.17-1.396-34.019,3.333c-7.778,3.39-14.517,1.751-22.161-2.138c21.82-11.941,44.22-14.352,68.245-9.044
	c-2.787-5.554-8.623-4.342-11.775-7.57c14.089-6.269,56.225,2.316,84.272,21.097c-3.13-7.557-8.944-11.318-14.367-17.986
	c25.263,7.375,35.676-6.781,41.484-27.134c-12.147-2.353-24.103,2.201-36.078,6.097c-11.815,3.844-23.441,8.337-36.924,8.382
	c2.665-9.182,10.159-13.715,18.024-21.633c-14.307,2.842-24.165,9.518-34.728,14.558c-2.544-7.63,1.453-13.019,5.156-18.558
	c-12.778-0.391-21.205,6.579-21.084,18.516c0.048,4.711-0.664,5.987-5.021,5.04c-5.122-1.112-10.421-0.616-15.535-2.465
	c-5.775-2.088-5.805-4.541-1.625-8.153c8.243-7.121,17.412-12.859,27.054-17.867c38.231-19.856,79.661-29.863,121.343-38.815
	c47.304-10.16,95.14-16.691,143.626-16.068c35.043,0.45,68.946,7.255,103.056,22.715c-15.639,2.082-29.557,2.327-42.905,6.217
	c-8.529,2.486-16.854,5.342-24.367,10.162c-1.329,0.853-4.168,1.385-1.92,4.081c2.18,1.892,9.786-0.83,5.546,6.52
	c-2.079-1.888-4.522-5.455-6.975-1.405c-4.454,7.354-10.605,13.429-11.01,23.453c-1.048,25.951-4.522,51.705-11.474,76.853
	c-2.194,7.935-11.566,12.191-18.738,8.792c-2.459-1.166-1.981-3.122-2.03-4.951c-0.279-10.58-1.85-20.918-6.273-30.602
	c-2.025-4.432,0.37-6.528,3.356-8.968c8.201-6.703,14.979-14.781,21.164-23.302c12.087-16.653,10.947-45.295-2.291-60.837
	c-8.503-9.983-18.579-14.427-32.229-11.442c-20.511,4.486-41.137,8.315-60.18,17.63c-4.342,2.124-8.765,2.215-13.407,2.157
	c-7.362-0.093-14.875-1.145-22.757,1.6c8.494,6.722,27.316-0.78,22.207,20.792c25.353-14.287,51.555-20.959,77.993-27.177
	c5.659-1.331,8.672,0.145,11.803,3.878c8.396,10.011,9.342,21.328,5.681,33.359c-2.095,6.885-4.737,13.539-9.812,18.903
	c-2.311,0.812-3.843-0.248-5.052-2.088c-1.75-5.148,1.892-9.205,2.762-13.82c1.287-6.831,6.08-13.71,0.293-20.649
	c-5.042-3.034-10.239-2.255-15.466-0.6c-15.972,1.379-31.416,4.762-45.821,12.074c-1.165,0.591,0.285-0.282-0.552,0.707
	c-0.386,0.457,0.215,1.188,1.017,1.435c5.307,0.361,10.563,0.434,15.721,1.518c9.6,2.017,11.976,6.623,8.056,15.558
	c-1.732,3.948-4.656,7.124-6.836,10.768c-4.288,4.489-2.78,8.856,0.094,13.379c2.83,4.455,4.244,9.294-0.259,13.424
	c-4.263,3.909-9.227,2.938-13.719,0.217c-7.884-4.775-15.206-10.308-21.851-16.758c-10.231-9.932-21.336-14.473-35.424-7.012
	c-6.884,3.646-14.953,4.826-22.084,8.338c-7.47,3.678-14.111,7.829-18.651,15.339c-4.809,7.956-13.059,10.677-22.034,10.884
	C267.569,332.448,263.844,334.024,263.112,339.749z"/>
<path style="fill:#FEFEFE;" d="M507.558,250.88c0.815-4.438-3.634-4.4-5.546-6.52c59.462-5.159,117.285,1.291,173.551,24.696
	c0.235-3.935,0.456-7.632,0.688-11.327c20.46,2.859,94.735,45.743,112.103,65.066c-24.099-2.777-47.567-5.393-70.855,0.858
	c50.473,5.803,99.699,15.217,143.642,42.592c4.799,4.569,13.143,6.368,12.135,15.499c-7.062,12.045-16.883,14.515-28.991,8.208
	c-21.215-11.051-42.955-21.169-64.863-30.636c-18.267-7.893-38.519-7.602-58.354-6.49c-6.01,0.337-7.348,4.708-8.067,9.49
	c-1.684,11.208-5.171,21.741-11.568,31.183c-8.995,13.279-19.6,12.557-26.702-1.98c-6.676-13.668-10.097-28.483-14.55-42.928
	c-3.506-11.372-4.822-12.334-16.821-11.658c-6.247,0.352-12.371,1.709-18.58,2.401c-15.411,1.716-30.669,2.408-46.016-1.502
	c-9.923-2.528-20.244-1.069-30.423-0.101c-15.286,1.454-22.576-3.805-26.509-18.476c-3.553-12.616-4.52-25.68-4.918-38.594
	C516.571,269.536,513.315,259.978,507.558,250.88z"/>
<path style="fill:#D11119;" d="M871.892,379.644c-3.58-4.465-7.16-8.93-10.745-13.397c27.015,12.811,43.896,34.791,55.034,61.669
	c3.623,8.743,6.542,17.915,6.761,27.559c0.143,6.312,2.489,6.747,6.979,3.256c2.078-1.616,4.297-3.053,6.33-4.72
	c3.519-2.887,5.822-1.767,7.585,1.988c18.996,40.468,10.062,85.721-30.083,113.01c0.473-24.691-7.226-46.691-18.053-70.029
	c-2.704,17.396-13.047,27.006-25.678,34.792c-2.482,1.53-5.057,4.314-7.977,2.448c-3.232-2.066-0.3-5.3,0.148-7.78
	c4.518-24.975-0.528-48.551-10.022-74.798c-5.118,23.673-19.078,37.573-36.524,52.515c10.628-35.668,7.266-67.457-9.816-98.783
	c-6.303,16.264-13.213,31.766-27.096,45.411c0.987-9.601,4.145-16.671,3.446-24.243c-1.891-20.48-12.486-35.558-28.96-47.074
	c-2.279-1.593-4.464-3.766-5.621,0.732c-7.025,27.292-27.55,43.247-49.11,58.164c-18.591,12.863-18.755,12.657-36.91-0.099
	c-13.461-9.458-27.214-18.543-40.206-28.608c-7.372-5.711-14.224-7.35-23.392-5.035c-20.793,5.25-20.925,4.799-21.234-16.177
	c-0.068-4.6,0.037-9.203,0.063-13.804c0.525-0.849,1.237-1.496,2.102-1.978c6.817-2.039,12.968,0.716,19.11,2.903
	c22.084,7.861,40.879,21.174,57.829,36.891c10.838,10.05,22.544,10.592,34.578,5.182c22.057-9.916,37.248-26.548,44.422-50.014
	c3.653-11.948,6.287-13.042,17.642-7.783c14.895,6.899,26.878,17.416,36.607,30.203c3.716-1.412,3.637-4.408,4.64-6.666
	c4.309-9.705,7.954-10.523,15.977-2.992c13.205,12.394,21.677,27.963,29.112,44.195c1.335,2.915,2.113,6.166,4.946,9.217
	c4.811-5.024,5.722-11.314,7.866-16.99c1.147-3.038,1.742-6.826,5.536-7.541c4.213-0.794,6.631,2.447,8.589,5.487
	c8.259,12.825,13.742,26.897,18.112,41.431c1.325,4.407,2.393,8.897,3.878,13.251c0.787,2.308,0.501,5.931,3.919,6.01
	c2.83,0.065,4.316-2.789,5.659-5.003c5.864-9.67,5.422-20.209,3.271-30.633c-3.782-18.322-12.458-34.539-22.825-49.912
	C875.208,388.085,872.167,384.54,871.892,379.644z"/>
<path style="fill:#FDFBFB;" d="M871.892,379.644c18.604,22.259,32.396,46.634,33.221,76.572c0.344,12.469-5.026,21.981-16.57,29.354
	c-3.906-13.166-7.007-26.014-11.567-38.322c-4.621-12.471-9.726-24.927-19.347-36.247c-4.071,11.601-6.256,23.221-14.831,32.867
	c-5.345-12.349-10.044-24.619-16.815-35.823c-6.795-11.245-15.24-21.115-26.215-29.858c-2.816,7.892-5.385,15.092-8.601,24.107
	c-7.667-14.034-17.269-24.262-29.544-31.833c-0.279-0.172-0.512-0.425-0.8-0.577c-5.76-3.037-11.603-8.65-17.271-8.478
	c-8.206,0.248-4.993,10.039-7.209,15.37c-9.193,22.123-25.199,37.239-46.418,47.114c-13.413,6.243-25.556,2.875-36.792-7.279
	c-21.291-19.241-44.065-36.117-73.712-40.198c-0.575-7.042,5.28-7.536,9.641-8.825c13.768-4.069,27.856-2.746,39.756-1.918
	c3.445,0.358,1.774-1.476,2.109-0.202c0.103,0.392-0.152,0.445-0.768,0.441c-3.758-0.025-6.929-1.846-10.227-3.281
	c-24.977-10.873-50.954-14.558-77.956-10.813c-4.597,0.638-9.15,1.051-13.511-1.088c-3.189-10.285-6.148-20.619-6.631-31.473
	c7.71,14.113,13.732,16.288,29.489,14.514c11.229-1.264,22.474-1.086,34.062,1.827c16.628,4.18,33.891,1.333,50.769-1.474
	c1.292-0.215,2.541-0.717,3.836-0.886c18.365-2.398,19.165-1.473,24.301,16.499c4.051,14.177,7.643,28.585,14.237,41.91
	c5.444,11,11.555,11.682,18.755,1.884c7.134-9.707,11.305-20.73,12.134-32.781c0.58-8.433,4.196-12.087,13.084-12.035
	c16.443,0.097,32.68,1.014,48.937,3.893c13.423,2.377,23.733,10.96,35.781,16.014c13.841,5.806,28.107,11.085,40.822,19.629
	C856.232,393.753,864.353,390.279,871.892,379.644z"/>
<path style="fill:#FDFBFB;" d="M263.112,339.749c-3.354-7.914-1.382-11.413,7.812-10.747c11.101,0.804,18.539-3.889,24.565-14.166
	c6.145-10.479,19.13-12.812,29.946-17.184c3.33-1.346,7.329-1.393,10.298-3.214c14.907-9.143,26.728-2.871,37.137,7.626
	c6.575,6.631,14.402,11.398,21.573,17.114c3.417,2.723,7.593,3.315,10.784,0.124c3.578-3.577,1.75-7.475-1.53-10.265
	c-5.996-5.1-4.375-10.186-0.568-15.491c1.391,1.365,3.129,1.162,4.847,1.063c2.283-0.022,4.443-0.519,6.649-1.136
	c3.485-0.976,7.621-4.886,10.543-0.908c2.964,4.035-0.326,8.137-3.498,10.925c-5.017,4.411,3.426,1.322,1.846,3.591
	c1.354,2.139,1.111,4.436,0.242,6.557c-4.397,10.739-0.417,18.529,7.853,25.636c8.653,7.436,8.981,11.832,3.169,19.605
	c-4.019,12.872-2.059,26.298-3.721,39.378c-0.405,3.192,2.12,7.188-2.086,9.583c-4.65-4.076-4.127-10.183-6.006-15.344
	c-1.639-4.501-2.19-9.523-6.727-13.899c-3.784,7.359-6.634,14.31-10.055,20.953c-5.689,11.046-13.567,20.218-23.447,27.608
	c-3.616,2.705-8.086,6.094-12.547,2.905c-3.722-2.661-1.674-7.398-0.686-11.078c3.599-13.412,4.863-27.182,6.818-41.369
	c-8.688,19.309-18.168,37.477-33.969,51.555c-10.182,9.072-14.73,7.895-17.841-5.413c-2.625-11.231-5.305-22.446-9.508-33.201
	c-9.33-23.88-24.576-42.438-48.461-53.069C265.401,338.243,264.256,338.996,263.112,339.749z"/>
<path style="fill:#D11119;" d="M193.129,472.919c7.797,4.077,15.728,8.005,24.288,10.029c5.815,1.375,11.072,6.026,18.213-0.722
	c3.609-3.409,13.236-0.904,20.078-0.32c8.098,0.691,16.115,2.284,24.192,3.286c2.344,0.291,5.111,0.19,5.676,2.768
	c0.622,2.838-2.483,3.553-4.336,4.628c-14.535,8.431-28.51,17.666-41.002,28.95c-10.166,9.184-18.88,19.327-19.084,35.824
	c-17.965-11.942-35.184-22.489-44.283-43.433c-5.567,19.217-7.798,37.421-4.246,58.075c-10.552-10.523-17.871-20.98-25.724-33.481
	c-6.675,27.157-2.205,51.344,8.736,77.757c-9.128-8.147-15.906-14.197-23.586-21.052c-2.495,11.78-0.203,22.554-1.724,33.635
	c-6.355-1.626-9.042-7.323-14.85-9.978c-4.607,11.726-4.926,23.966-5.646,36.1c-0.207,3.49,1.156,7.26-2.87,9.526
	c-4.754-7.235-7.909-14.963-7.367-23.84c1.327-19.98-2.221-40.054,1.277-60c1.708-9.738,3.601-19.414,7.344-28.599
	c1.357-3.33,3.088-7.446,7.14-7.313c4.629,0.152,4.505,4.778,5.145,8.226c0.164,2.406,0.031,4.893,1.464,7.406
	c0.31,0.944,1.608-0.847,0.497-0.139c-0.357,0.227-0.526,0.005-0.782-0.537c-1.243-2.642-1.036-5.49-1.255-8.292
	c-2.072-10.541,1.771-20.111,5.273-29.569c5.184-13.999,13.839-25.952,23.822-36.912c2.718-2.984,5.52-7.722,10.405-5.377
	c3.975,1.908,3.319,6.717,3.394,10.628c0.031,1.638-0.179,3.269-0.488,4.858c0.054,1.377-1.289,2.421-0.94,3.781
	c4.378-8.897,12.031-14.721,18.918-21.239C184.399,474.688,188.646,473.491,193.129,472.919z"/>
<path style="fill:#898989;" d="M83.476,528.698c-50.435-69.491-54.069-149.446-11.225-202.541
	c-22.055,56.277-16.625,110.798,9.323,165.197c6.177-6.733,9.175-12.144,6.012-21.28c-7.172-20.713-9.353-42.172-3.564-64.023
	c3.28,19.142,5.726,38.486,17.748,55.664c16.732-19.141,35.359-35.057,59.176-46.239c-11.598-7.737-20.644-16.063-24.601-28.61
	c-0.859-2.724-3.965-3.257-6.257-4.448c-15.434-8.021-26.268-19.621-29.002-37.429c-0.472-3.076-1.879-5.539-3.604-7.98
	c-9.207-13.025-7.028-26.739-2.414-40.604c0.96-2.884,2.989-4.206,5.885-4.388c7.698-0.484,14.597-3.775,21.785-6.086
	c7.652-2.46,15.361-4.611,11.921-15.59c-0.573-1.829-0.264-4.054,2.266-4.731c12.46-3.334,24.928-6.639,37.745-9.076
	c-3.926,6.406-10.215,9.45-15.957,12.947c-5.45,3.32-8.108,6.656-3.534,12.391c4.496,5.638,1.248,7.798-3.921,9.6
	c-10.857,3.786-21.569,7.991-32.459,11.676c-12.412,4.2-16.342,13.819-8.744,24.566c3.18,4.498,4.897,8.908,5.733,14.117
	c2.381,14.846,11.952,23.84,25.197,29.173c5.253,2.115,8.674,4.673,10.458,10.391c3.541,11.351,12.24,18.212,22.319,23.868
	c3.332,1.87,10.828,1.317,9.262,6.349c-1.738,5.582-2.554,12.721-10.241,15.674c-19.686,7.563-35.95,20.299-50.348,35.534
	C104.791,481.49,92.484,503.37,83.476,528.698z"/>
<path style="fill:#D11119;" d="M266.546,337.49c14.853,1.407,24.774,11.235,33.77,21.358c16.615,18.696,22.635,42.259,27.756,66.021
	c0.613,2.845,0.949,7.232,2.707,8.021c3.106,1.393,5.731-2.224,8.034-4.35c15.768-14.551,26.12-32.735,34.688-52.112
	c1.227-2.776,1.177-6.373,5.781-9.037c0.865,21.938-4.155,41.949-9.075,63.34c26.593-12.373,35.686-36.301,45.236-60.9
	c9.033,11.865,12.876,24.361,13.532,38.011c-19.812,1.025-20.022,1.027-19.759,21.527c0.081,6.365-1.828,10.945-6.093,15.767
	c-11.759,13.295-22.918,27.136-33.968,41.035c-3.415,4.295-6.438,5.409-11.676,3.257c-12.427-5.106-25.11-9.588-39.366-14.952
	c5.819-1.639,9.968-2.807,15.093-4.25c-10.261-7.55-21.593-8.592-32.279-6.053c-28.277,6.719-55.843,7.007-82.998-4.376
	c-1.092-0.458-3.131-1.048-3.439-0.629c-5.833,7.944-10.094-0.307-14.774-1.619c-3.278-0.919-7.632-3.536-6.536-7.44
	c1.016-3.622,5.78-1.829,8.882-2.071c17.633-1.379,34.65,1.686,51.19,7.663c2.815,1.017,5.35,1.894,8.519,1.043
	c12.065-3.241,24.297-5.825,36.813-6.383c4.801-0.214,6.66-2.461,8.159-6.769c11.664-33.526,0.047-73.726-28.039-96.161
	C274.613,344.163,270.596,340.805,266.546,337.49z"/>
<path style="fill:#FEFEFE;" d="M193.129,472.919c-2.89,3.481-7.154,4.639-11.001,6.501c-6.314,4.021-12.722,3.106-18.702-0.378
	c-3.381-1.97-5.911-2.442-8.629,0.622c-24.082,27.146-48.436,54.178-53.679,92.225c-2.701,19.601-2.315,39.329-1.081,59.019
	c0.219,3.49,0.392,7.288,2.607,10.416c1.437,7.73,2.875,15.46,4.314,23.19c-16.142-17.497-26.473-37.645-27.722-61.778
	c-0.373-7.199-0.058-14.433-0.058-22.008c5.226-0.76,7.711,4.651,13.219,5.121c-1.68-16.277-0.093-32.258,4.605-47.754
	c12.036-39.7,37.784-68.969,71.022-92.476c4.229-2.991,4.953-1.201,6.339,2.824C177.852,458.574,184.084,466.899,193.129,472.919z"
	/>
<path style="fill:#888888;" d="M559.612,386.907c-37.976,0-73.287,0-109.614,0c3.492,5.779,12.314,6.975,10.732,15.535
	c-0.73,3.951-1.613,5.493-5.826,5.826c-15.422,1.218-16.495,0.395-15.632-14.516c1.567-27.084,1.567-27.085,28.588-27.084
	c29.903,0,59.81,0.24,89.708-0.17c7.363-0.101,9.82,2.079,9.692,9.383c-0.143,8.172,1.12,16.36,1.467,24.554
	c0.125,2.958,1.472,7.588-3.669,7.452c-5.827-0.153-13.199,3.399-17.072-2.56c-2.342-3.604-1.848-9.688,3.81-12.712
	C553.784,391.553,555.485,389.955,559.612,386.907z"/>
<path style="fill:#D01119;" d="M228.848,416.98c14.68-15.8,32.273-12.593,49.681-11.306c-2.84,1.676-5.681,3.351-9.88,5.829
	c8.78,1.533,15.77-1.915,22.903,0.253c3.392,1.031,5.212,1.961,4.986,5.672c-0.199,3.27,0.307,6.621-0.199,9.826
	c-0.758,4.805,1.947,12.146-4.687,13.419c-6.602,1.266-14.034,2.754-20.4-3.282c-4.666-4.423-7.907-14.229-17.613-7.47
	c-3.39-5.892-11.529-2.443-15.174-7.655C236.387,419.293,233.544,417.616,228.848,416.98z"/>
<path style="fill:#FDFDFD;" d="M809.366,605.868c1.702-2.372,2.067-3.414,2.787-3.808c21.625-11.839,39.572-28.181,56.466-45.845
	c4.337-4.534,9.027-8.678,15.446-10.103c7.059-1.567,10.838,1.593,10.11,8.786c-1.004,9.916-7.076,16.915-14.436,22.681
	C859.595,593.362,836.104,601.071,809.366,605.868z"/>
<path style="fill:#FDFDFD;" d="M678.414,479.438c24.881-15.221,44.144-36.548,64.405-56.822c4.034-4.036,10.087-9.911,16.186-4.101
	c5.263,5.014,1.804,11.778-1.209,17.17c-2.204,3.943-5.15,7.681-8.463,10.76C729.356,465.005,705.29,475.039,678.414,479.438z"/>
<path style="fill:#FDFDFD;" d="M762.069,566.436c19.676-12.063,36.99-26.708,52.347-43.797c4.59-5.107,8.985-10.474,15.219-13.771
	c3.59-1.898,7.403-3.382,11.071-0.604c3.704,2.805,3.426,6.848,2.135,10.775c-0.914,2.78-1.689,5.815-3.387,8.096
	C820.184,553.037,791.932,561.293,762.069,566.436z"/>
<path style="fill:#D1121A;" d="M528.464,350.728c38.249-8.959,74.15-2.832,110.759,17.615c-13.077,0-23.401-0.533-33.642,0.159
	c-9.174,0.62-18.941,0.373-26.16,7.914c-0.87,0.074-1.741,0.148-2.612,0.222c-0.264-0.595-0.685-1.169-0.768-1.788
	c-2.152-16.082-2.146-16.083-18.514-16.083c-6.544,0-13.128-0.453-19.62,0.126C531.439,359.47,528.994,356.472,528.464,350.728z"/>
<path style="fill:#FDFDFD;" d="M729.266,516.882c19.163-12.851,36.14-28.12,51.068-45.723c2.721-3.209,6.035-6.029,9.458-8.498
	c3.746-2.702,8.237-5.256,12.599-1.8c4.343,3.442,2.628,8.564,1.358,12.813c-2.013,6.731-6.46,12.128-11.631,16.754
	c-16.717,14.957-36.242,24.33-58.192,28.748C731.801,519.574,729.225,520.887,729.266,516.882z"/>
<path style="fill:#FCFCFC;" d="M164.459,371.372c20.107-5.665,40.142-0.665,60.029-2.064c14.452-1.017,28.826-1.326,41.117-10.516
	c2.526,4.404,1.391,7.981,1.266,11.475c-0.253,7.106-2.972,8.233-8,3.182c-3.237-3.251-6.405-4.313-7.435,1.319
	c-1.452,7.939-4.927,4.35-8.561,2.102c-8.841-5.469-9.357-5.154-9.613,5.73c-0.084,3.584-0.013,7.172-0.013,11.568
	c-8.283-3.351-11.447-10.98-16.893-17.121c-1.178,2.612-2.167,4.807-3.51,7.785c-2.666-2.286-5.003-4.289-7.37-6.318
	c-3.722,0.437-2.077,5.344-5.655,5.995c-2.024-2.272-4.168-4.679-6.971-7.826c-2.073,8.802-5.757,6.59-9.467,1.145
	c-3.32,5.133,0.386,9.451-0.273,14.575C172.784,388.298,168.024,380.313,164.459,371.372z"/>
<path style="fill:#868686;" d="M506.251,332.938c-0.891-10.125-1.782-20.251-2.672-30.376c-0.727-0.1-1.455-0.2-2.182-0.3
	c-1.216,10.23-2.433,20.46-3.649,30.69c-4.577,0.709-2.484-5.236-5.787-5.798c3.007-22.432,3.805-45.209,8.699-68.536
	c6.446,3.733,7.099,7.889,7.467,12.54c2.148,27.138,4.89,54.195,12.31,80.539c0.619,2.197,3.273,5.401-0.657,6.575
	c-4.302,1.285-4.437-2.99-5.063-5.598c-1.222-5.088-1.98-10.287-2.93-15.44c-3.877-2.984-0.346-8.306-3.693-11.735
	c-0.279-1.015-1.029,1.012,0.07,0.286C509.936,328.812,511.225,331.712,506.251,332.938z"/>
<path style="fill:#888888;" d="M781.442,574.147c16.178-6.874,32.176-13.842,47.693-22.488c7.983-4.448,19.162-1.231,31.891-0.801
	c-8.437,8.192-15.171,14.683-21.844,21.238c-2.12,2.083-4.718,2.051-7.36,2.051C815.029,574.147,798.236,574.147,781.442,574.147z"
	/>
<path style="fill:#878787;" d="M719.586,509.529c0-5.269-0.27-9.874,0.058-14.436c0.604-8.39-0.266-15.054-12.434-11.759
	c11.298-6.987,23.226-10.568,33.05-18.034c3.599-2.735,4.529-0.415,4.548,2.85c0.042,7.231-0.08,14.464,0.074,21.692
	c0.123,5.765-4.719,7.831-8.207,10.162C731.636,503.371,727.546,508.652,719.586,509.529z"/>
<path style="fill:#FCFCFC;" d="M188.548,704.265c-23.154-4.455-43.148-14.407-58.34-32.789c-1.028-1.243-2.009-2.691-2.465-4.208
	c-1.227-4.076-5.852-8.865-0.665-12.252c3.963-2.588,7.875,1.525,10.86,4.352C154.282,674.849,169.851,691.204,188.548,704.265z"/>
<path style="fill:#FBFBFB;" d="M225.557,631.573c-22.718-6.475-41.969-16.632-55.889-35.131c-3.2-4.253-8.047-10.716-3.455-14.803
	c5.429-4.831,9.864,2.558,13.426,6.026c14.345,13.964,27.916,28.74,44.495,40.238C224.754,628.332,224.813,629.569,225.557,631.573z
	"/>
<path style="fill:#FCFCFC;" d="M210.815,669.846c-22.989-4.478-43.026-14.439-57.296-33.864c-1.145-1.558-2.291-3.284-2.791-5.109
	c-0.838-3.057-2.711-6.801,0.329-9.197c3.184-2.51,6.403,0.191,8.689,2.311c8.421,7.811,16.356,16.154,24.887,23.839
	C193.101,655.453,202.067,662.528,210.815,669.846z"/>
<path style="fill:#FBFBFC;" d="M246.221,594.838c-22.606-5.268-42.107-15.713-56.529-34.156c-3.583-4.581-9.383-11.409-3.592-16.205
	c4.578-3.791,9.643,3.204,13.249,6.952C214.127,566.79,228.817,582.208,246.221,594.838z"/>
<path style="fill:#FDFDFD;" d="M434.781,358.881c1.99-5.583,2.836-11.815-2.635-15.174c-15.411-9.464-16.87-21.84-9.39-36.811
	c0.832-4.471,4.175-4.554,7.665-4.392c1.905,0.922,2.998,2.274,2.356,4.526c-2.047,1.886-7.01,1.33-2.318,7.115
	c9.247,11.403,12.078,25.734,13.054,40.223C444.031,362.054,438.141,358.22,434.781,358.881z"/>
<path style="fill:#F9F9F9;" d="M233.325,423.852c2.38,12.248,12.948,11.247,19.832,15.182c3.181,1.818,10.066-3.778,12.684,4.125
	c-3.915,3.061-8.338,2.626-12.894,1.898c-17.821-2.847-35.655-5.955-53.788-5.103c-7.683,0.361-7.999-4-7.131-9.345
	c0.602-3.711,2.464-6.91,6.043-2.237c4.944,6.455,11.892,3.048,17.883,4.23c0.75,0.148,1.734-1.183,2.57-1.136
	C227.609,431.984,227.607,432.022,233.325,423.852z"/>
<path style="fill:#FAFAFA;" d="M226.612,221.141c-11.362,14.177-19.984,1.064-30.943-3.469c1.953,5.07,2.955,8.666,4.657,11.891
	c3.897,7.382-2.332,10.169-6.521,11.505c-5.704,1.818-5.038-4.841-5.678-7.757c-4.254-19.413,1.214-24.587,21.039-20.263
	C215.568,214.443,221.705,216.76,226.612,221.141z"/>
<path style="fill:#C51219;" d="M767.333,706.555c2.29,0,4.58-0.026,6.869,0.007c2.851,0.04,4.052,1.594,4.011,4.363
	c-0.038,2.629-1.097,4.617-3.816,4.801c-4.563,0.308-9.151,0.238-13.728,0.347c-3.31,0.079-5.703-0.671-5.779-4.764
	c-0.076-4.099,2.183-4.941,5.573-4.825c2.287,0.078,4.58,0.015,6.87,0.015C767.333,706.518,767.333,706.537,767.333,706.555z"/>
<path style="fill:#CE1119;" d="M545.153,603.786c1.953,0.003,3.908-0.045,5.859,0.015c2.58,0.08,5.459-0.236,5.708,3.587
	c0.271,4.158-2.436,4.777-5.671,4.779c-3.581,0.002-7.162,0.051-10.742,0.002c-3.255-0.045-6.902,0.382-6.578-4.723
	c0.294-4.629,3.854-3.406,6.542-3.638C541.888,603.669,543.525,603.783,545.153,603.786z"/>
<path style="fill:#CE1119;" d="M697.66,755.97c2.279,0.009,4.557,0.005,6.835,0.01c2.598,0.007,4.381,0.871,4.426,3.879
	c0.042,2.819-1.334,4.284-4.046,4.353c-4.554,0.116-9.112,0.11-13.668,0.091c-2.744-0.011-5.182-0.351-5.333-4.049
	c-0.151-3.703,2.031-4.319,4.95-4.297C693.103,755.975,695.381,755.961,697.66,755.97z"/>
<path style="fill:#CE1119;" d="M655.829,764.329c-1.952-0.009-3.904-0.028-5.856-0.005c-3.265,0.04-5.844-0.583-5.585-4.775
	c0.242-3.912,3.08-3.535,5.632-3.587c3.578-0.073,7.162-0.133,10.735,0.008c2.731,0.108,6.328-0.891,6.612,3.618
	c0.314,4.995-3.386,4.652-6.658,4.742C659.083,764.375,657.455,764.338,655.829,764.329z"/>
<path style="fill:#CE1119;" d="M614.946,755.994c2.278,0,4.556-0.028,6.833,0.007c2.702,0.043,4.227,1.234,4.131,4.157
	c-0.094,2.874-1.701,4.053-4.341,4.087c-4.554,0.059-9.11,0.057-13.665,0.048c-2.891-0.006-5.051-0.724-5.035-4.337
	c0.017-3.816,2.517-3.975,5.244-4.002c2.278-0.023,4.556-0.005,6.834-0.005C614.946,755.965,614.946,755.979,614.946,755.994z"/>
<path style="fill:#CE1119;" d="M697.633,740.171c2.278,0,4.556-0.003,6.834,0.001c2.595,0.004,4.39,0.861,4.444,3.865
	c0.051,2.813-1.329,4.291-4.039,4.364c-4.553,0.122-9.11,0.116-13.665,0.099c-2.738-0.01-5.186-0.327-5.333-4.034
	c-0.181-4.558,2.942-4.267,5.9-4.325c1.952-0.038,3.905-0.007,5.858-0.007C697.633,740.146,697.633,740.159,697.633,740.171z"/>
<path style="fill:#CE1119;" d="M656.484,740.141c1.953,0.002,3.906-0.004,5.86,0.003c2.864,0.009,5.213,0.569,5.063,4.251
	c-0.146,3.597-2.569,4.091-5.369,4.105c-4.232,0.021-8.463,0.004-12.695-0.012c-2.924-0.011-5.023-0.786-4.98-4.388
	c0.046-3.836,2.582-3.923,5.286-3.954C651.927,740.119,654.206,740.14,656.484,740.141z"/>
<path style="fill:#CE1119;" d="M614.295,748.466c-2.278,0-4.557-0.021-6.835,0.005c-3.239,0.037-4.741-1.461-4.574-4.77
	c0.16-3.176,2.26-3.528,4.7-3.538c3.906-0.017,7.816-0.13,11.717-0.001c2.74,0.09,6.32-0.868,6.574,3.661
	c0.282,5.033-3.452,4.595-6.699,4.699c-1.626,0.052-3.255,0.009-4.883,0.009C614.295,748.509,614.295,748.488,614.295,748.466z"/>
<path style="fill:#CE1119;" d="M696.891,734.613c-2.278,0-4.557,0.035-6.834-0.009c-2.682-0.052-4.135-1.253-4.189-4.149
	c-0.055-2.961,1.402-4.089,4.12-4.105c3.906-0.022,7.818-0.184,11.716-0.012c2.97,0.132,7.144-1.211,7.148,4.036
	c0.003,5.039-3.973,4.125-7.079,4.309c-1.622,0.096-3.254,0.017-4.882,0.017C696.891,734.671,696.891,734.642,696.891,734.613z"/>
<path style="fill:#CE1119;" d="M656.552,726.304c1.627-0.003,3.254-0.029,4.88,0.003c2.975,0.058,6.144-0.153,5.966,4.316
	c-0.143,3.613-2.641,4.031-5.415,4.046c-4.229,0.023-8.459-0.001-12.688-0.016c-2.957-0.01-5.001-0.868-4.924-4.442
	c0.083-3.842,2.674-3.855,5.348-3.896C651.996,726.278,654.274,726.306,656.552,726.304z"/>
<path style="fill:#CE1119;" d="M614.563,734.694c-1.627,0.002-3.258,0.077-4.88-0.015c-3.125-0.176-6.944,0.655-6.784-4.536
	c0.142-4.624,3.616-3.703,6.355-3.815c3.249-0.133,6.511-0.138,9.759-0.006c3.063,0.124,7.078-0.906,6.855,4.358
	c-0.184,4.339-3.539,3.887-6.425,4.001C617.819,734.745,616.19,734.693,614.563,734.694z"/>
<path style="fill:#CE1119;" d="M766.832,722.378c2.278,0.009,4.556,0.005,6.834,0.01c2.598,0.006,4.38,0.872,4.425,3.879
	c0.042,2.818-1.334,4.285-4.045,4.352c-4.553,0.114-9.111,0.105-13.667,0.083c-2.74-0.013-5.185-0.342-5.335-4.044
	c-0.15-3.705,2.036-4.314,4.953-4.293C762.275,722.382,764.553,722.369,766.832,722.378z"/>
<path style="fill:#CE1119;" d="M504.094,445.751c2.278,0,4.555-0.012,6.833,0.003c2.642,0.017,4.322,1.024,4.308,3.992
	c-0.014,2.835-1.49,4.183-4.172,4.245c-4.228,0.098-8.459,0.138-12.687,0.084c-2.902-0.037-6.065,0.266-6.166-4.174
	c-0.105-4.601,3.152-4.084,6.028-4.182c1.95-0.067,3.904-0.013,5.857-0.013C504.094,445.721,504.094,445.736,504.094,445.751z"/>
<path style="fill:#CE1119;" d="M545.88,445.709c1.627-0.003,3.254-0.029,4.88,0.003c2.975,0.057,6.144-0.153,5.966,4.316
	c-0.143,3.613-2.641,4.031-5.415,4.046c-4.229,0.023-8.459-0.001-12.688-0.016c-2.957-0.01-5.001-0.868-4.924-4.442
	c0.083-3.842,2.674-3.855,5.348-3.896C541.324,445.684,543.602,445.712,545.88,445.709z"/>
<path style="fill:#CE1119;" d="M697.277,718.824c-2.278,0-4.556-0.02-6.834,0.005c-3.252,0.035-4.721-1.499-4.552-4.791
	c0.164-3.186,2.295-3.503,4.72-3.515c3.906-0.021,7.815-0.129,11.717-0.002c2.74,0.089,6.323-0.877,6.552,3.672
	c0.253,5.021-3.479,4.579-6.72,4.688c-1.626,0.054-3.255,0.009-4.882,0.009C697.277,718.868,697.277,718.846,697.277,718.824z"/>
<path style="fill:#CE1119;" d="M655.416,718.804c-2.277,0-4.554,0.035-6.83-0.009c-2.671-0.052-4.148-1.233-4.211-4.13
	c-0.065-2.956,1.385-4.101,4.106-4.119c3.904-0.026,7.815-0.188,11.71-0.014c2.965,0.132,7.138-1.225,7.16,4.017
	c0.021,5.036-3.945,4.148-7.055,4.328c-1.621,0.094-3.253,0.017-4.879,0.017C655.416,718.863,655.416,718.833,655.416,718.804z"/>
<path style="fill:#CE1119;" d="M614.656,710.522c2.278,0.009,4.557,0.005,6.835,0.01c2.598,0.006,4.381,0.871,4.426,3.879
	c0.042,2.818-1.334,4.284-4.046,4.353c-4.554,0.116-9.112,0.109-13.668,0.091c-2.744-0.011-5.182-0.351-5.333-4.049
	c-0.151-3.703,2.031-4.319,4.95-4.297C610.099,710.527,612.377,710.513,614.656,710.522z"/>
<path style="fill:#CE1119;" d="M503.623,469.848c-2.278,0-4.557-0.021-6.835,0.005c-3.239,0.037-4.741-1.461-4.574-4.77
	c0.16-3.176,2.26-3.528,4.7-3.538c3.906-0.017,7.816-0.13,11.717-0.001c2.74,0.09,6.32-0.868,6.574,3.661
	c0.282,5.033-3.452,4.595-6.699,4.699c-1.626,0.052-3.255,0.009-4.882,0.009C503.623,469.891,503.623,469.87,503.623,469.848z"/>
<path style="fill:#CE1119;" d="M545.982,461.564c2.278,0.013,4.558-0.026,6.835,0.023c2.818,0.061,4.076,1.537,3.915,4.359
	c-0.168,2.94-2.007,3.863-4.561,3.889c-4.556,0.047-9.114,0.019-13.671,0.029c-3.05,0.007-4.937-1.038-4.807-4.553
	c0.114-3.094,1.938-3.757,4.476-3.76C540.774,461.548,543.378,461.55,545.982,461.564z"/>
<path style="fill:#CE1119;" d="M808.058,714.927c-1.953-0.008-3.905-0.017-5.858-0.006c-3.215,0.018-5.876-0.478-5.645-4.72
	c0.212-3.906,3.005-3.595,5.574-3.643c3.579-0.067,7.164-0.14,10.737,0.013c2.717,0.116,6.342-0.946,6.67,3.554
	c0.361,4.956-3.285,4.738-6.598,4.804C811.313,714.962,809.686,714.935,808.058,714.927z"/>
<path style="fill:#CE1119;" d="M504.058,477.366c2.277,0,4.555-0.009,6.832,0.002c2.63,0.012,4.337,0.979,4.346,3.956
	c0.009,2.833-1.441,4.213-4.129,4.28c-4.227,0.106-8.459,0.142-12.687,0.084c-2.888-0.04-6.074,0.307-6.21-4.133
	c-0.141-4.594,3.095-4.132,5.99-4.221c1.951-0.06,3.904-0.011,5.857-0.011C504.058,477.337,504.058,477.352,504.058,477.366z"/>
<path style="fill:#CE1119;" d="M545.76,477.374c2.278,0,4.557-0.026,6.835,0.007c2.695,0.039,4.238,1.2,4.15,4.136
	c-0.085,2.874-1.666,4.074-4.317,4.11c-4.556,0.061-9.113,0.061-13.669,0.05c-2.878-0.007-5.064-0.694-5.061-4.316
	c0.003-3.812,2.487-3.999,5.226-4.023c2.279-0.02,4.557-0.004,6.836-0.004C545.76,477.347,545.76,477.36,545.76,477.374z"/>
<path style="fill:#CE1119;" d="M545.717,667.069c2.278,0,4.555-0.023,6.832,0.006c2.676,0.034,4.289,1.144,4.187,4.094
	c-0.077,2.242-1.037,3.955-3.308,4.023c-5.52,0.164-11.051,0.117-16.573-0.033c-2.436-0.066-3.099-1.885-3.126-4.064
	c-0.028-2.247,0.769-3.831,3.209-3.916c2.923-0.102,5.852-0.024,8.778-0.024C545.716,667.127,545.717,667.098,545.717,667.069z"/>
<path style="fill:#CE1119;" d="M613.887,497.491c-2.278,0-4.557,0.035-6.834-0.009c-2.682-0.052-4.135-1.253-4.189-4.149
	c-0.055-2.961,1.402-4.09,4.12-4.105c3.906-0.022,7.818-0.184,11.716-0.011c2.97,0.131,7.144-1.211,7.148,4.036
	c0.003,5.039-3.973,4.125-7.079,4.309c-1.622,0.096-3.254,0.017-4.882,0.017C613.887,497.549,613.887,497.52,613.887,497.491z"/>
<path style="fill:#CE1119;" d="M655.797,497.512c-2.278,0-4.557-0.021-6.835,0.005c-3.239,0.037-4.741-1.461-4.574-4.77
	c0.16-3.176,2.26-3.528,4.7-3.538c3.906-0.017,7.816-0.13,11.717-0.001c2.74,0.09,6.32-0.868,6.574,3.661
	c0.282,5.033-3.452,4.595-6.699,4.699c-1.626,0.052-3.255,0.009-4.883,0.009C655.797,497.555,655.797,497.534,655.797,497.512z"/>
<path style="fill:#CE1119;" d="M697.723,497.58c-1.302,0.001-2.623,0.148-3.9-0.028c-3.171-0.438-7.975,1.535-7.844-4.372
	c0.134-6.002,5.029-3.522,8.087-3.939c2.555-0.349,5.204-0.195,7.797-0.038c3.008,0.182,7.149-1.061,6.991,4.201
	c-0.151,5.031-4.164,3.929-7.228,4.16C700.332,497.66,699.024,497.579,697.723,497.58z"/>
<path style="fill:#CE1119;" d="M504.409,493.189c2.277,0,4.555-0.032,6.832,0.008c2.778,0.048,4.132,1.419,3.994,4.279
	c-0.141,2.912-1.877,3.944-4.474,3.97c-4.554,0.046-9.109,0.037-13.663,0.033c-2.973-0.003-4.99-0.906-4.898-4.469
	c0.1-3.848,2.716-3.822,5.377-3.866c2.277-0.038,4.555-0.008,6.833-0.008C504.409,493.154,504.409,493.171,504.409,493.189z"/>
<path style="fill:#CE1119;" d="M545.459,493.134c1.953,0.002,3.905-0.012,5.858,0.006c2.711,0.025,5.331,0.129,5.418,3.895
	c0.081,3.523-2.087,4.423-5.009,4.452c-4.23,0.043-8.461,0.047-12.692,0.013c-2.738-0.022-5.186-0.329-5.333-4.036
	c-0.181-4.558,2.942-4.267,5.9-4.325C541.553,493.101,543.507,493.132,545.459,493.134z"/>
<path style="fill:#CE1119;" d="M545.459,698.675c2.278,0,4.556-0.002,6.834,0.001c2.595,0.004,4.39,0.861,4.444,3.865
	c0.051,2.813-1.329,4.291-4.039,4.364c-4.553,0.122-9.11,0.116-13.665,0.099c-2.738-0.01-5.186-0.328-5.333-4.034
	c-0.18-4.558,2.942-4.267,5.9-4.325c1.952-0.038,3.905-0.007,5.858-0.007C545.459,698.65,545.459,698.662,545.459,698.675z"/>
<path style="fill:#CE1119;" d="M504.094,698.681c2.278,0,4.555-0.012,6.833,0.003c2.642,0.017,4.322,1.024,4.308,3.992
	c-0.014,2.835-1.49,4.183-4.172,4.245c-4.228,0.098-8.459,0.138-12.687,0.084c-2.902-0.037-6.065,0.266-6.166-4.174
	c-0.105-4.601,3.152-4.084,6.028-4.182c1.95-0.066,3.904-0.013,5.857-0.013C504.094,698.651,504.094,698.666,504.094,698.681z"/>
<path style="fill:#CE1119;" d="M613.887,513.299c-2.278,0-4.557,0.035-6.834-0.009c-2.682-0.052-4.135-1.253-4.189-4.149
	c-0.055-2.961,1.402-4.09,4.12-4.105c3.906-0.022,7.818-0.184,11.716-0.011c2.97,0.131,7.144-1.211,7.148,4.036
	c0.003,5.039-3.973,4.125-7.079,4.309c-1.622,0.096-3.254,0.017-4.882,0.017C613.887,513.357,613.887,513.328,613.887,513.299z"/>
<path style="fill:#CE1119;" d="M655.416,513.298c-2.277,0-4.554,0.035-6.83-0.009c-2.67-0.052-4.148-1.233-4.211-4.13
	c-0.064-2.956,1.385-4.102,4.106-4.119c3.904-0.026,7.815-0.188,11.71-0.014c2.965,0.132,7.138-1.225,7.16,4.017
	c0.021,5.036-3.945,4.148-7.055,4.328c-1.621,0.094-3.253,0.017-4.88,0.017C655.416,513.357,655.416,513.328,655.416,513.298z"/>
<path style="fill:#CE1119;" d="M698.053,504.99c1.627-0.003,3.254-0.029,4.88,0.003c2.975,0.057,6.144-0.153,5.966,4.316
	c-0.143,3.613-2.641,4.031-5.415,4.046c-4.229,0.023-8.459-0.001-12.688-0.016c-2.957-0.01-5.001-0.868-4.924-4.442
	c0.083-3.842,2.674-3.855,5.348-3.896C693.498,504.965,695.776,504.993,698.053,504.99z"/>
<path style="fill:#CE1119;" d="M504.605,667.087c2.277,0,4.556-0.055,6.831,0.016c2.212,0.069,3.663,1.053,3.791,3.483
	c0.14,2.668-0.86,4.552-3.693,4.663c-4.548,0.179-9.106,0.115-13.66,0.149c-3.199,0.024-5.888-0.447-5.664-4.697
	c0.206-3.892,2.98-3.6,5.562-3.665c2.276-0.058,4.555-0.012,6.832-0.012C504.605,667.045,504.605,667.066,504.605,667.087z"/>
<path style="fill:#CE1119;" d="M503.711,517.326c-1.953-0.008-3.905-0.017-5.858-0.006c-3.214,0.018-5.876-0.478-5.645-4.72
	c0.212-3.906,3.005-3.595,5.574-3.643c3.579-0.067,7.164-0.14,10.737,0.013c2.717,0.116,6.342-0.946,6.671,3.554
	c0.361,4.956-3.285,4.738-6.598,4.804C506.965,517.361,505.338,517.334,503.711,517.326z"/>
<path style="fill:#CE1119;" d="M545.332,517.326c-1.953-0.007-3.906,0.003-5.859-0.009c-3.121-0.02-5.946-0.275-5.765-4.605
	c0.162-3.874,2.863-3.719,5.48-3.757c3.58-0.053,7.164-0.11,10.741,0.002c3.097,0.097,7.069-0.824,6.778,4.437
	c-0.242,4.362-3.639,3.787-6.492,3.924C548.59,517.397,546.959,517.333,545.332,517.326z"/>
<path style="fill:#CE1119;" d="M697.986,694.693c1.953,0.002,3.906-0.004,5.86,0.003c2.864,0.009,5.213,0.569,5.063,4.25
	c-0.146,3.597-2.569,4.092-5.369,4.105c-4.232,0.021-8.463,0.004-12.695-0.012c-2.924-0.011-5.023-0.786-4.98-4.388
	c0.046-3.836,2.582-3.923,5.286-3.954C693.429,694.67,695.708,694.691,697.986,694.693z"/>
<path style="fill:#CE1119;" d="M615.049,520.798c1.627-0.003,3.254-0.029,4.88,0.003c2.975,0.057,6.144-0.153,5.966,4.316
	c-0.143,3.613-2.641,4.031-5.415,4.046c-4.229,0.023-8.459,0-12.688-0.016c-2.957-0.01-5.001-0.868-4.924-4.442
	c0.083-3.842,2.674-3.855,5.348-3.896C610.494,520.773,612.772,520.801,615.049,520.798z"/>
<path style="fill:#CE1119;" d="M655.829,529.183c-1.952-0.009-3.904-0.028-5.856-0.005c-3.265,0.04-5.844-0.583-5.584-4.775
	c0.242-3.912,3.08-3.535,5.632-3.587c3.578-0.073,7.162-0.133,10.735,0.008c2.731,0.108,6.328-0.891,6.612,3.618
	c0.314,4.995-3.386,4.652-6.658,4.742C659.083,529.229,657.455,529.192,655.829,529.183z"/>
<path style="fill:#CE1119;" d="M503.242,533.058c-2.277,0-4.554,0.035-6.83-0.009c-2.67-0.052-4.148-1.233-4.211-4.13
	c-0.065-2.956,1.385-4.102,4.106-4.12c3.904-0.026,7.815-0.188,11.71-0.014c2.965,0.132,7.138-1.225,7.16,4.017
	c0.021,5.036-3.945,4.148-7.055,4.328c-1.621,0.094-3.253,0.017-4.879,0.017C503.242,533.117,503.242,533.088,503.242,533.058z"/>
<path style="fill:#CE1119;" d="M545.813,524.755c1.953,0.001,3.906-0.004,5.86,0.003c2.864,0.009,5.213,0.568,5.063,4.25
	c-0.146,3.597-2.569,4.092-5.369,4.105c-4.232,0.021-8.463,0.004-12.695-0.012c-2.924-0.011-5.023-0.786-4.98-4.388
	c0.046-3.836,2.582-3.923,5.286-3.954C541.255,524.733,543.534,524.754,545.813,524.755z"/>
<path style="fill:#CE1119;" d="M656.448,694.737c2.278,0,4.556-0.029,6.833,0.007c2.702,0.043,4.227,1.234,4.13,4.157
	c-0.095,2.874-1.701,4.053-4.341,4.087c-4.554,0.059-9.11,0.057-13.665,0.048c-2.891-0.006-5.051-0.724-5.035-4.337
	c0.017-3.816,2.517-3.975,5.244-4.002c2.278-0.023,4.556-0.005,6.834-0.005C656.448,694.708,656.448,694.723,656.448,694.737z"/>
<path style="fill:#CE1119;" d="M614.149,702.943c-2.601,0-5.209,0.112-7.803-0.029c-3.006-0.164-3.541-2.274-3.444-4.798
	c0.096-2.514,1.667-3.326,3.843-3.359c4.229-0.064,8.461-0.141,12.688-0.047c2.782,0.062,6.306-0.728,6.438,3.799
	c0.147,5.041-3.657,4.423-6.841,4.564c-1.624,0.071-3.253,0.013-4.88,0.013C614.149,703.037,614.149,702.99,614.149,702.943z"/>
<path style="fill:#CE1119;" d="M614.469,544.991c-1.952-0.006-3.904-0.001-5.856-0.008c-3.14-0.011-5.928-0.318-5.735-4.628
	c0.174-3.876,2.888-3.695,5.496-3.735c3.578-0.055,7.16-0.104,10.736,0c3.113,0.091,7.067-0.769,6.755,4.459
	c-0.258,4.334-3.664,3.768-6.516,3.904C617.726,545.061,616.096,544.997,614.469,544.991z"/>
<path style="fill:#CE1119;" d="M655.775,544.935c-2.278,0-4.556-0.02-6.834,0.005c-3.253,0.035-4.721-1.499-4.552-4.791
	c0.164-3.186,2.295-3.503,4.72-3.515c3.906-0.021,7.815-0.129,11.717-0.002c2.74,0.089,6.323-0.877,6.552,3.672
	c0.253,5.021-3.479,4.579-6.72,4.687c-1.626,0.055-3.255,0.01-4.882,0.01C655.775,544.979,655.775,544.957,655.775,544.935z"/>
<path style="fill:#CE1119;" d="M697.95,536.656c2.278,0,4.556-0.029,6.833,0.007c2.702,0.043,4.227,1.234,4.131,4.157
	c-0.095,2.875-1.701,4.053-4.341,4.087c-4.554,0.059-9.11,0.057-13.665,0.048c-2.891-0.006-5.051-0.724-5.035-4.337
	c0.017-3.816,2.517-3.975,5.245-4.002c2.278-0.023,4.556-0.005,6.834-0.005C697.95,536.627,697.95,536.642,697.95,536.656z"/>
<path style="fill:#CE1119;" d="M696.891,671.38c-2.278,0-4.557,0.035-6.834-0.009c-2.682-0.052-4.135-1.253-4.188-4.149
	c-0.055-2.961,1.402-4.09,4.12-4.105c3.906-0.022,7.818-0.184,11.716-0.012c2.97,0.132,7.144-1.211,7.148,4.036
	c0.003,5.039-3.973,4.125-7.079,4.309c-1.622,0.096-3.254,0.017-4.882,0.017C696.891,671.439,696.891,671.41,696.891,671.38z"/>
<path style="fill:#CE1119;" d="M504.258,540.606c2.278,0,4.557-0.026,6.835,0.007c2.695,0.039,4.238,1.2,4.15,4.136
	c-0.086,2.874-1.666,4.074-4.317,4.11c-4.556,0.061-9.113,0.061-13.669,0.05c-2.878-0.007-5.064-0.693-5.061-4.316
	c0.003-3.812,2.487-3.999,5.226-4.023c2.279-0.02,4.557-0.004,6.836-0.004C504.258,540.579,504.258,540.593,504.258,540.606z"/>
<path style="fill:#CE1119;" d="M545.76,540.606c2.278,0,4.557-0.026,6.835,0.007c2.695,0.039,4.238,1.2,4.15,4.136
	c-0.085,2.874-1.666,4.074-4.317,4.11c-4.556,0.061-9.113,0.061-13.669,0.05c-2.878-0.007-5.064-0.694-5.061-4.316
	c0.003-3.812,2.487-3.999,5.226-4.023c2.279-0.02,4.557-0.004,6.836-0.004C545.76,540.579,545.76,540.593,545.76,540.606z"/>
<path style="fill:#CE1119;" d="M808.058,699.119c-1.953-0.008-3.905-0.017-5.858-0.006c-3.215,0.018-5.876-0.478-5.645-4.72
	c0.212-3.906,3.005-3.595,5.574-3.643c3.579-0.067,7.164-0.14,10.737,0.013c2.717,0.116,6.342-0.946,6.67,3.554
	c0.361,4.956-3.285,4.738-6.598,4.804C811.313,699.154,809.686,699.127,808.058,699.119z"/>
<path style="fill:#CE1119;" d="M766.641,690.763c2.278,0,4.556-0.003,6.835,0.001c2.525,0.004,4.473,0.651,4.605,3.711
	c0.149,3.462-1.844,4.569-4.852,4.603c-3.905,0.045-7.813,0.122-11.716,0.016c-2.796-0.076-6.186,0.615-6.438-3.869
	c-0.299-5.302,3.584-4.33,6.685-4.485c1.623-0.081,3.254-0.014,4.882-0.014C766.641,690.739,766.641,690.751,766.641,690.763z"/>
<path style="fill:#CE1119;" d="M656.017,671.456c-1.953-0.006-3.906,0.007-5.858-0.009c-3.106-0.027-5.954-0.24-5.781-4.586
	c0.154-3.869,2.836-3.739,5.46-3.776c3.579-0.051,7.163-0.114,10.739,0.004c3.089,0.102,7.07-0.837,6.797,4.42
	c-0.226,4.36-3.616,3.809-6.476,3.941C659.275,671.523,657.645,671.462,656.017,671.456z"/>
<path style="fill:#CE1119;" d="M614.064,560.798c-1.952-0.012-3.905,0.017-5.856-0.019c-2.74-0.051-5.187-0.347-5.332-4.046
	c-0.179-4.558,2.954-4.27,5.906-4.311c3.253-0.046,6.518-0.181,9.757,0.028c2.936,0.189,7.13-1.35,7.309,3.868
	c0.173,5.037-3.749,4.323-6.905,4.478C617.32,560.876,615.69,560.811,614.064,560.798z"/>
<path style="fill:#CE1119;" d="M656.583,552.469c2.277,0,4.555-0.032,6.832,0.008c2.778,0.048,4.132,1.419,3.994,4.279
	c-0.141,2.912-1.877,3.944-4.474,3.97c-4.554,0.046-9.109,0.037-13.663,0.033c-2.973-0.003-4.99-0.906-4.898-4.469
	c0.1-3.848,2.716-3.822,5.377-3.866c2.277-0.038,4.555-0.008,6.833-0.008C656.583,552.434,656.583,552.452,656.583,552.469z"/>
<path style="fill:#CE1119;" d="M697.467,552.442c2.277,0,4.555-0.003,6.832,0.001c2.52,0.004,4.477,0.633,4.612,3.698
	c0.153,3.455-1.822,4.581-4.836,4.615c-3.904,0.045-7.81,0.122-11.711,0.016c-2.798-0.076-6.194,0.607-6.453-3.864
	c-0.307-5.288,3.571-4.339,6.677-4.488c1.623-0.078,3.253-0.014,4.88-0.014C697.467,552.418,697.467,552.43,697.467,552.442z"/>
<path style="fill:#CE1119;" d="M545.332,691.216c-1.953-0.007-3.906,0.004-5.859-0.009c-3.121-0.02-5.946-0.275-5.765-4.605
	c0.162-3.874,2.863-3.718,5.48-3.757c3.58-0.052,7.164-0.11,10.742,0.002c3.097,0.097,7.069-0.824,6.778,4.437
	c-0.242,4.362-3.64,3.787-6.492,3.924C548.59,691.286,546.959,691.222,545.332,691.216z"/>
<path style="fill:#CE1119;" d="M504.258,682.879c2.278,0,4.557-0.026,6.835,0.007c2.695,0.039,4.238,1.199,4.15,4.136
	c-0.086,2.874-1.666,4.074-4.317,4.11c-4.556,0.061-9.113,0.061-13.669,0.05c-2.878-0.007-5.064-0.694-5.061-4.316
	c0.003-3.812,2.487-3.999,5.226-4.023c2.279-0.02,4.557-0.004,6.836-0.004C504.258,682.852,504.258,682.866,504.258,682.879z"/>
<path style="fill:#CE1119;" d="M503.958,556.402c2.278,0,4.556-0.002,6.834,0.001c2.596,0.004,4.39,0.861,4.444,3.865
	c0.051,2.813-1.329,4.291-4.039,4.364c-4.553,0.122-9.11,0.116-13.665,0.099c-2.738-0.01-5.186-0.327-5.332-4.034
	c-0.181-4.558,2.942-4.267,5.9-4.325c1.952-0.038,3.905-0.007,5.858-0.007C503.958,556.377,503.958,556.389,503.958,556.402z"/>
<path style="fill:#CE1119;" d="M545.153,556.362c1.953,0.003,3.908-0.045,5.859,0.015c2.58,0.08,5.459-0.236,5.708,3.587
	c0.271,4.158-2.436,4.777-5.671,4.779c-3.581,0.002-7.162,0.051-10.742,0.002c-3.255-0.045-6.902,0.382-6.578-4.723
	c0.294-4.629,3.854-3.406,6.542-3.638C541.888,556.245,543.525,556.359,545.153,556.362z"/>
<path style="fill:#CE1119;" d="M614.327,576.607c-1.952-0.009-3.904-0.028-5.856-0.005c-3.265,0.04-5.843-0.583-5.584-4.775
	c0.242-3.912,3.08-3.535,5.632-3.587c3.578-0.073,7.162-0.133,10.735,0.008c2.731,0.108,6.328-0.891,6.612,3.618
	c0.314,4.995-3.386,4.652-6.658,4.742C617.581,576.653,615.953,576.616,614.327,576.607z"/>
<path style="fill:#CE1119;" d="M656.654,568.269c2.278,0.013,4.558-0.026,6.835,0.023c2.818,0.06,4.076,1.537,3.915,4.359
	c-0.168,2.94-2.007,3.863-4.561,3.889c-4.556,0.047-9.114,0.019-13.671,0.029c-3.05,0.007-4.937-1.038-4.807-4.553
	c0.114-3.093,1.938-3.757,4.476-3.76C651.446,568.253,654.05,568.255,656.654,568.269z"/>
<path style="fill:#CE1119;" d="M697.519,576.607c-1.953-0.006-3.906,0.007-5.858-0.009c-3.106-0.027-5.954-0.24-5.781-4.586
	c0.154-3.869,2.836-3.739,5.46-3.776c3.579-0.051,7.163-0.114,10.739,0.004c3.089,0.102,7.07-0.837,6.797,4.42
	c-0.226,4.36-3.616,3.809-6.476,3.941C700.777,576.674,699.146,576.613,697.519,576.607z"/>
<path style="fill:#CE1119;" d="M504.258,572.222c2.278,0,4.557-0.026,6.835,0.007c2.695,0.039,4.238,1.2,4.15,4.136
	c-0.086,2.874-1.666,4.074-4.317,4.11c-4.556,0.061-9.113,0.061-13.669,0.05c-2.878-0.007-5.064-0.694-5.061-4.316
	c0.003-3.812,2.487-3.999,5.226-4.023c2.279-0.02,4.557-0.004,6.836-0.004C504.258,572.195,504.258,572.209,504.258,572.222z"/>
<path style="fill:#CE1119;" d="M545.982,572.221c2.278,0.013,4.558-0.026,6.835,0.023c2.818,0.06,4.076,1.537,3.915,4.359
	c-0.168,2.94-2.007,3.863-4.561,3.889c-4.556,0.047-9.114,0.019-13.671,0.029c-3.05,0.007-4.936-1.038-4.807-4.553
	c0.114-3.094,1.938-3.757,4.476-3.76C540.774,572.205,543.378,572.207,545.982,572.221z"/>
<path style="fill:#CE1119;" d="M614.21,671.397c-2.278,0-4.556-0.017-6.833,0.004c-3.287,0.031-4.664-1.59-4.492-4.843
	c0.171-3.223,2.368-3.441,4.761-3.459c3.905-0.028,7.814-0.121,11.716-0.004c2.76,0.082,6.32-0.805,6.508,3.728
	c0.209,5.03-3.562,4.509-6.777,4.632c-1.625,0.062-3.254,0.011-4.882,0.011C614.21,671.443,614.21,671.42,614.21,671.397z"/>
<path style="fill:#CE1119;" d="M850.227,659.119c1.627-0.003,3.254-0.029,4.88,0.003c2.975,0.057,6.144-0.153,5.966,4.316
	c-0.143,3.613-2.641,4.031-5.415,4.046c-4.229,0.023-8.459,0-12.688-0.016c-2.957-0.01-5.001-0.868-4.924-4.442
	c0.083-3.842,2.674-3.855,5.348-3.896C845.672,659.094,847.95,659.122,850.227,659.119z"/>
<path style="fill:#CE1119;" d="M766.469,588.409c-2.278,0-4.557-0.021-6.835,0.005c-3.239,0.037-4.741-1.461-4.574-4.77
	c0.16-3.176,2.26-3.528,4.7-3.538c3.906-0.017,7.816-0.13,11.717-0.001c2.74,0.09,6.32-0.868,6.574,3.661
	c0.282,5.033-3.452,4.595-6.699,4.699c-1.626,0.052-3.255,0.009-4.883,0.009C766.469,588.452,766.469,588.43,766.469,588.409z"/>
<path style="fill:#CE1119;" d="M808.145,667.504c-1.952-0.006-3.904-0.001-5.856-0.008c-3.14-0.011-5.928-0.318-5.735-4.628
	c0.174-3.876,2.888-3.695,5.497-3.735c3.578-0.055,7.16-0.104,10.736,0c3.113,0.091,7.067-0.769,6.755,4.459
	c-0.258,4.334-3.664,3.768-6.516,3.904C811.402,667.574,809.772,667.51,808.145,667.504z"/>
<path style="fill:#CE1119;" d="M614.323,584.026c1.953,0.003,3.908-0.045,5.859,0.015c2.58,0.08,5.459-0.236,5.708,3.587
	c0.271,4.158-2.436,4.777-5.671,4.779c-3.581,0.002-7.162,0.051-10.742,0.002c-3.255-0.045-6.902,0.382-6.578-4.723
	c0.294-4.629,3.854-3.406,6.542-3.638C611.058,583.909,612.695,584.023,614.323,584.026z"/>
<path style="fill:#CE1119;" d="M655.969,584.059c2.278,0,4.556-0.003,6.835,0.001c2.525,0.004,4.473,0.651,4.605,3.711
	c0.149,3.462-1.844,4.569-4.852,4.603c-3.905,0.045-7.813,0.122-11.716,0.016c-2.796-0.076-6.186,0.616-6.438-3.868
	c-0.299-5.302,3.584-4.331,6.685-4.485c1.623-0.081,3.254-0.014,4.882-0.014C655.969,584.034,655.969,584.046,655.969,584.059z"/>
<path style="fill:#CE1119;" d="M697.506,592.415c-1.953-0.007-3.906,0.003-5.859-0.009c-3.121-0.02-5.946-0.275-5.765-4.605
	c0.162-3.874,2.863-3.719,5.48-3.757c3.58-0.052,7.164-0.11,10.741,0.002c3.097,0.097,7.069-0.824,6.778,4.437
	c-0.242,4.362-3.639,3.787-6.492,3.924C700.764,592.485,699.133,592.422,697.506,592.415z"/>
<path style="fill:#CE1119;" d="M503.843,596.367c-1.953-0.006-3.906,0.007-5.858-0.01c-3.106-0.027-5.954-0.24-5.781-4.586
	c0.154-3.869,2.836-3.739,5.46-3.776c3.579-0.051,7.163-0.114,10.739,0.004c3.089,0.102,7.07-0.837,6.797,4.42
	c-0.226,4.36-3.616,3.809-6.476,3.941C507.101,596.435,505.471,596.374,503.843,596.367z"/>
<path style="fill:#CE1119;" d="M545.293,588.01c2.277,0,4.555-0.003,6.832,0.001c2.519,0.004,4.477,0.633,4.612,3.698
	c0.153,3.455-1.822,4.581-4.836,4.615c-3.904,0.045-7.81,0.122-11.711,0.016c-2.798-0.076-6.194,0.607-6.453-3.864
	c-0.307-5.288,3.571-4.339,6.677-4.488c1.623-0.078,3.253-0.014,4.88-0.014C545.293,587.986,545.293,587.998,545.293,588.01z"/>
<path style="fill:#CE1119;" d="M766.689,604.271c-1.953-0.006-3.906,0.007-5.858-0.01c-3.106-0.027-5.954-0.24-5.781-4.586
	c0.154-3.869,2.836-3.739,5.461-3.776c3.579-0.051,7.163-0.114,10.739,0.004c3.089,0.102,7.069-0.837,6.797,4.42
	c-0.226,4.36-3.616,3.81-6.476,3.941C769.946,604.339,768.316,604.278,766.689,604.271z"/>
<path style="fill:#CE1119;" d="M697.77,678.921c2.278,0,4.555-0.012,6.833,0.003c2.642,0.017,4.322,1.024,4.308,3.992
	c-0.014,2.835-1.49,4.184-4.172,4.246c-4.228,0.098-8.459,0.138-12.687,0.084c-2.902-0.037-6.065,0.266-6.166-4.174
	c-0.105-4.601,3.152-4.084,6.028-4.182c1.95-0.067,3.904-0.013,5.857-0.013C697.77,678.891,697.77,678.906,697.77,678.921z"/>
<path style="fill:#CE1119;" d="M613.914,608.147c-2.277,0-4.554,0.035-6.83-0.009c-2.67-0.052-4.148-1.233-4.211-4.13
	c-0.064-2.956,1.385-4.102,4.106-4.119c3.904-0.026,7.815-0.188,11.71-0.014c2.965,0.132,7.138-1.225,7.16,4.017
	c0.021,5.036-3.945,4.148-7.055,4.328c-1.621,0.094-3.253,0.016-4.879,0.016C613.914,608.206,613.914,608.176,613.914,608.147z"/>
<path style="fill:#CE1119;" d="M656.268,599.88c2.278,0,4.555-0.012,6.833,0.003c2.642,0.017,4.322,1.024,4.308,3.992
	c-0.014,2.835-1.49,4.183-4.172,4.245c-4.228,0.098-8.459,0.138-12.687,0.084c-2.902-0.037-6.065,0.266-6.167-4.174
	c-0.105-4.601,3.152-4.084,6.028-4.182c1.95-0.067,3.904-0.013,5.857-0.013C656.268,599.851,656.268,599.865,656.268,599.88z"/>
<path style="fill:#CE1119;" d="M697.068,608.223c-1.952-0.012-3.905,0.017-5.856-0.019c-2.74-0.051-5.187-0.347-5.332-4.046
	c-0.179-4.558,2.954-4.27,5.906-4.311c3.253-0.046,6.518-0.181,9.757,0.028c2.936,0.189,7.13-1.35,7.309,3.868
	c0.173,5.037-3.749,4.323-6.905,4.478C700.324,608.301,698.694,608.235,697.068,608.223z"/>
<path style="fill:#CE1119;" d="M503.958,603.826c2.278,0,4.556-0.002,6.834,0.001c2.596,0.004,4.39,0.861,4.444,3.865
	c0.051,2.813-1.329,4.291-4.039,4.364c-4.553,0.122-9.11,0.116-13.665,0.099c-2.738-0.01-5.186-0.327-5.332-4.034
	c-0.181-4.558,2.942-4.267,5.9-4.325c1.952-0.038,3.905-0.007,5.858-0.007C503.958,603.801,503.958,603.814,503.958,603.826z"/>
<path style="fill:#CE1119;" d="M655.552,687.264c-1.953-0.012-3.907,0.016-5.859-0.019c-2.746-0.049-5.177-0.354-5.324-4.056
	c-0.182-4.58,2.962-4.261,5.909-4.304c3.255-0.047,6.521-0.179,9.762,0.029c2.939,0.189,7.136-1.347,7.309,3.874
	c0.168,5.041-3.761,4.315-6.915,4.472C658.81,687.342,657.179,687.276,655.552,687.264z"/>
<path style="fill:#CE1119;" d="M767.061,611.741c2.278,0,4.555-0.023,6.832,0.006c2.676,0.034,4.289,1.144,4.187,4.094
	c-0.077,2.242-1.037,3.955-3.308,4.022c-5.52,0.164-11.051,0.117-16.573-0.032c-2.436-0.066-3.099-1.885-3.126-4.064
	c-0.028-2.247,0.769-3.831,3.209-3.916c2.923-0.102,5.852-0.024,8.778-0.024C767.061,611.798,767.061,611.769,767.061,611.741z"/>
<path style="fill:#CE1119;" d="M766.238,667.503c-1.952-0.012-3.905,0.017-5.856-0.019c-2.74-0.051-5.187-0.347-5.332-4.046
	c-0.179-4.558,2.954-4.27,5.906-4.311c3.253-0.046,6.518-0.181,9.757,0.029c2.936,0.189,7.13-1.35,7.309,3.868
	c0.173,5.037-3.749,4.323-6.905,4.478C769.494,667.581,767.864,667.515,766.238,667.503z"/>
<path style="fill:#CE1119;" d="M850.108,611.743c2.278,0,4.557-0.026,6.835,0.007c2.695,0.039,4.238,1.2,4.15,4.136
	c-0.085,2.874-1.666,4.074-4.317,4.11c-4.556,0.061-9.113,0.061-13.669,0.05c-2.878-0.007-5.064-0.694-5.061-4.316
	c0.003-3.812,2.487-3.999,5.226-4.023c2.279-0.02,4.557-0.004,6.836-0.004C850.108,611.716,850.108,611.729,850.108,611.743z"/>
<path style="fill:#CE1119;" d="M614.93,615.695c2.278,0,4.557-0.026,6.835,0.007c2.695,0.039,4.238,1.2,4.15,4.136
	c-0.085,2.874-1.666,4.074-4.317,4.11c-4.556,0.061-9.113,0.061-13.669,0.051c-2.878-0.007-5.064-0.694-5.061-4.316
	c0.003-3.812,2.487-3.999,5.226-4.023c2.279-0.02,4.557-0.004,6.836-0.004C614.93,615.668,614.93,615.681,614.93,615.695z"/>
<path style="fill:#CE1119;" d="M656.131,615.647c1.953,0.002,3.905-0.012,5.858,0.006c2.711,0.025,5.33,0.129,5.418,3.895
	c0.081,3.523-2.087,4.423-5.009,4.452c-4.23,0.043-8.461,0.047-12.692,0.013c-2.738-0.022-5.186-0.329-5.333-4.036
	c-0.181-4.558,2.942-4.267,5.9-4.325C652.225,615.614,654.179,615.645,656.131,615.647z"/>
<path style="fill:#CE1119;" d="M697.934,615.695c2.278,0,4.557-0.026,6.835,0.007c2.695,0.039,4.238,1.2,4.15,4.136
	c-0.085,2.874-1.666,4.074-4.317,4.11c-4.556,0.061-9.113,0.061-13.669,0.05c-2.878-0.007-5.064-0.694-5.061-4.316
	c0.003-3.812,2.487-3.999,5.226-4.023c2.279-0.02,4.557-0.004,6.836-0.004C697.934,615.668,697.934,615.681,697.934,615.695z"/>
<path style="fill:#CE1119;" d="M614.919,678.928c2.277,0,4.555-0.026,6.832,0.007c2.692,0.039,4.247,1.202,4.156,4.133
	c-0.089,2.861-1.669,4.075-4.322,4.11c-4.554,0.061-9.109,0.062-13.663,0.054c-2.879-0.005-5.058-0.695-5.055-4.315
	c0.003-3.809,2.479-4.003,5.219-4.026c2.277-0.02,4.555-0.004,6.833-0.004C614.919,678.901,614.919,678.914,614.919,678.928z"/>
<path style="fill:#CE1119;" d="M503.623,627.929c-2.278,0-4.557-0.021-6.835,0.005c-3.239,0.037-4.741-1.461-4.574-4.77
	c0.16-3.176,2.26-3.528,4.7-3.538c3.906-0.017,7.816-0.13,11.717-0.001c2.74,0.09,6.32-0.868,6.574,3.661
	c0.282,5.033-3.452,4.595-6.699,4.699c-1.626,0.052-3.255,0.009-4.882,0.009C503.623,627.972,503.623,627.951,503.623,627.929z"/>
<path style="fill:#CE1119;" d="M544.979,627.854c-2.601,0-5.209,0.112-7.803-0.029c-3.006-0.164-3.541-2.274-3.444-4.798
	c0.097-2.514,1.666-3.326,3.843-3.359c4.229-0.064,8.461-0.14,12.688-0.047c2.782,0.062,6.306-0.728,6.438,3.799
	c0.147,5.04-3.656,4.423-6.841,4.564c-1.624,0.071-3.253,0.013-4.88,0.013C544.979,627.949,544.979,627.901,544.979,627.854z"/>
<path style="fill:#CE1119;" d="M766.83,627.529c2.278,0.009,4.557,0.005,6.835,0.01c2.598,0.006,4.381,0.871,4.426,3.879
	c0.042,2.818-1.334,4.284-4.046,4.353c-4.554,0.116-9.112,0.109-13.668,0.091c-2.745-0.011-5.182-0.351-5.333-4.049
	c-0.151-3.703,2.031-4.319,4.95-4.297C762.273,627.534,764.551,627.52,766.83,627.529z"/>
<path style="fill:#CE1119;" d="M808.191,635.887c-1.953-0.006-3.906,0.007-5.858-0.009c-3.106-0.027-5.954-0.24-5.781-4.586
	c0.154-3.869,2.836-3.739,5.46-3.776c3.579-0.051,7.163-0.114,10.739,0.004c3.089,0.102,7.07-0.837,6.797,4.42
	c-0.226,4.36-3.616,3.81-6.476,3.941C811.448,635.955,809.818,635.894,808.191,635.887z"/>
<path style="fill:#CE1119;" d="M850.227,627.503c1.627-0.003,3.254-0.029,4.88,0.003c2.975,0.057,6.144-0.153,5.967,4.316
	c-0.143,3.613-2.641,4.031-5.415,4.046c-4.229,0.023-8.459,0-12.688-0.015c-2.957-0.01-5.001-0.868-4.924-4.442
	c0.083-3.842,2.674-3.855,5.348-3.896C845.672,627.478,847.95,627.506,850.227,627.503z"/>
<path style="fill:#CE1119;" d="M614.382,639.839c-1.953-0.008-3.905-0.017-5.858-0.006c-3.215,0.018-5.876-0.478-5.645-4.72
	c0.212-3.906,3.005-3.595,5.574-3.643c3.579-0.067,7.164-0.14,10.737,0.013c2.717,0.116,6.342-0.946,6.67,3.554
	c0.361,4.956-3.285,4.738-6.598,4.804C617.637,639.874,616.01,639.847,614.382,639.839z"/>
<path style="fill:#CE1119;" d="M655.712,639.781c-2.278,0-4.556-0.017-6.833,0.004c-3.287,0.031-4.664-1.59-4.492-4.843
	c0.171-3.223,2.368-3.441,4.76-3.459c3.905-0.028,7.814-0.121,11.716-0.004c2.76,0.082,6.32-0.805,6.508,3.728
	c0.209,5.03-3.562,4.509-6.777,4.632c-1.625,0.063-3.254,0.011-4.882,0.011C655.712,639.827,655.712,639.804,655.712,639.781z"/>
<path style="fill:#CE1119;" d="M697.386,639.839c-1.953-0.008-3.905-0.017-5.858-0.006c-3.215,0.018-5.876-0.478-5.645-4.72
	c0.212-3.906,3.005-3.595,5.574-3.643c3.579-0.067,7.164-0.14,10.737,0.013c2.717,0.116,6.342-0.946,6.67,3.554
	c0.361,4.956-3.285,4.738-6.598,4.804C700.641,639.874,699.014,639.847,697.386,639.839z"/>
<path style="fill:#CE1119;" d="M849.834,674.954c2.278,0.009,4.557,0.005,6.835,0.01c2.598,0.006,4.381,0.871,4.426,3.879
	c0.042,2.819-1.334,4.284-4.046,4.353c-4.554,0.116-9.112,0.109-13.668,0.091c-2.744-0.011-5.182-0.351-5.333-4.049
	c-0.151-3.703,2.031-4.319,4.95-4.297C845.277,674.959,847.555,674.945,849.834,674.954z"/>
<path style="fill:#CE1119;" d="M504.605,635.471c2.277,0,4.556-0.055,6.831,0.016c2.212,0.069,3.663,1.053,3.791,3.483
	c0.14,2.668-0.86,4.552-3.693,4.663c-4.548,0.179-9.106,0.115-13.66,0.149c-3.2,0.024-5.888-0.448-5.664-4.698
	c0.206-3.892,2.98-3.6,5.562-3.665c2.276-0.058,4.555-0.012,6.832-0.012C504.605,635.429,504.605,635.45,504.605,635.471z"/>
<path style="fill:#CE1119;" d="M544.744,643.715c-2.277,0-4.554,0.035-6.83-0.009c-2.67-0.052-4.148-1.233-4.211-4.13
	c-0.064-2.956,1.385-4.102,4.106-4.12c3.904-0.026,7.815-0.188,11.71-0.014c2.965,0.132,7.138-1.225,7.16,4.017
	c0.021,5.036-3.945,4.148-7.055,4.328c-1.621,0.094-3.253,0.016-4.88,0.016C544.744,643.774,544.744,643.745,544.744,643.715z"/>
<path style="fill:#CE1119;" d="M808.622,674.977c2.278,0,4.556-0.029,6.833,0.007c2.702,0.043,4.227,1.234,4.131,4.157
	c-0.094,2.874-1.701,4.053-4.341,4.087c-4.554,0.059-9.11,0.057-13.665,0.048c-2.891-0.006-5.051-0.724-5.035-4.337
	c0.017-3.816,2.517-3.975,5.245-4.002c2.278-0.023,4.556-0.005,6.834-0.005C808.622,674.948,808.622,674.963,808.622,674.977z"/>
<path style="fill:#CE1119;" d="M766.94,674.969c2.278,0,4.555-0.012,6.833,0.003c2.642,0.017,4.322,1.024,4.308,3.991
	c-0.014,2.835-1.49,4.184-4.172,4.246c-4.228,0.098-8.459,0.138-12.687,0.084c-2.902-0.037-6.065,0.266-6.167-4.174
	c-0.105-4.601,3.152-4.084,6.028-4.182c1.95-0.067,3.904-0.013,5.857-0.013C766.94,674.939,766.94,674.954,766.94,674.969z"/>
<path style="fill:#CE1119;" d="M767.104,643.359c2.278,0,4.557-0.026,6.835,0.007c2.695,0.039,4.238,1.2,4.15,4.136
	c-0.085,2.874-1.666,4.074-4.317,4.11c-4.556,0.061-9.113,0.061-13.669,0.05c-2.878-0.007-5.064-0.694-5.061-4.316
	c0.003-3.812,2.487-3.999,5.226-4.023c2.279-0.02,4.557-0.004,6.836-0.004C767.104,643.332,767.104,643.346,767.104,643.359z"/>
<path style="fill:#CE1119;" d="M808.333,643.337c2.278,0.009,4.556,0.003,6.834,0.01c2.593,0.009,4.384,0.865,4.422,3.876
	c0.035,2.813-1.344,4.282-4.051,4.353c-4.553,0.118-9.11,0.112-13.665,0.094c-2.746-0.011-5.177-0.358-5.326-4.054
	c-0.15-3.706,2.038-4.313,4.953-4.292C803.776,643.341,806.055,643.328,808.333,643.337z"/>
<path style="fill:#CE1119;" d="M849.645,643.339c2.278,0,4.556-0.003,6.835,0.001c2.525,0.004,4.473,0.651,4.605,3.711
	c0.149,3.462-1.844,4.569-4.852,4.603c-3.905,0.045-7.813,0.122-11.716,0.016c-2.796-0.076-6.186,0.615-6.438-3.868
	c-0.299-5.301,3.584-4.33,6.685-4.485c1.623-0.081,3.254-0.014,4.882-0.014C849.645,643.315,849.645,643.327,849.645,643.339z"/>
<path style="fill:#CE1119;" d="M614.327,655.648c-1.952-0.009-3.904-0.028-5.856-0.005c-3.265,0.04-5.844-0.583-5.585-4.775
	c0.242-3.912,3.08-3.535,5.632-3.587c3.578-0.073,7.162-0.133,10.735,0.008c2.731,0.108,6.328-0.891,6.612,3.618
	c0.314,4.995-3.386,4.652-6.658,4.742C617.581,655.694,615.953,655.657,614.327,655.648z"/>
<path style="fill:#CE1119;" d="M656.779,647.327c2.277,0,4.556-0.055,6.831,0.016c2.211,0.069,3.664,1.053,3.791,3.483
	c0.14,2.668-0.86,4.552-3.693,4.663c-4.548,0.179-9.106,0.115-13.66,0.149c-3.2,0.024-5.888-0.447-5.664-4.697
	c0.206-3.892,2.98-3.6,5.562-3.665c2.276-0.058,4.555-0.012,6.832-0.012C656.779,647.285,656.779,647.306,656.779,647.327z"/>
<path style="fill:#CE1119;" d="M697.054,655.647c-1.953-0.012-3.907,0.016-5.859-0.019c-2.746-0.049-5.177-0.354-5.324-4.056
	c-0.182-4.58,2.962-4.262,5.909-4.304c3.255-0.047,6.521-0.179,9.762,0.03c2.939,0.189,7.136-1.347,7.309,3.874
	c0.168,5.04-3.761,4.316-6.915,4.472C700.312,655.726,698.682,655.659,697.054,655.647z"/>
<path style="fill:#CE1119;" d="M503.392,659.599c-1.952-0.012-3.905,0.017-5.856-0.019c-2.74-0.051-5.187-0.347-5.332-4.046
	c-0.179-4.558,2.954-4.27,5.906-4.311c3.253-0.046,6.518-0.181,9.757,0.028c2.936,0.189,7.13-1.35,7.309,3.868
	c0.173,5.037-3.749,4.323-6.905,4.478C506.648,659.677,505.018,659.611,503.392,659.599z"/>
<path style="fill:#CE1119;" d="M545.549,659.613c-1.302,0.001-2.623,0.148-3.9-0.028c-3.171-0.438-7.975,1.535-7.844-4.372
	c0.134-6.002,5.029-3.522,8.087-3.939c2.555-0.349,5.204-0.195,7.797-0.038c3.008,0.182,7.149-1.061,6.991,4.201
	c-0.151,5.031-4.163,3.929-7.228,4.16C548.158,659.693,546.85,659.612,545.549,659.613z"/>
<path style="fill:#CF1119;" d="M808.48,580.075c1.635-0.002,3.281-0.124,4.903,0.027c2.4,0.223,5.833-0.878,6.005,3.094
	c0.16,3.687-2.503,5.049-5.803,5.162c-3.593,0.123-7.193,0.145-10.788,0.083c-2.897-0.049-6.112,0.345-6.239-4.137
	c-0.13-4.627,3.139-4.122,6.036-4.215C804.554,580.027,806.518,580.078,808.48,580.075z"/>
<path style="fill:#C41219;" d="M274.897,294.977c1.165-2.723,3.256-5.369,3.184-7.955c-0.113-4.062-0.155-7.155,4.857-7.469
	c2.517-0.158,5.883-1.34,7.053,1.457c1.454,3.478-0.447,6.989-2.453,10.02C284.39,295.785,279.958,296.572,274.897,294.977z"/>
<path style="fill:#CE1119;" d="M809.606,620.095c-1.846,0-2.525,0.112-3.154-0.019c-3.259-0.678-7.503,1.806-9.543-2.564
	c-0.566-1.214-0.345-3.813,0.523-4.496c3.152-2.48,6.756-1.355,10.204-0.22c0.621,0.204,1.307,0.262,1.881,0.55
	c3.159,1.582,9.792-2.26,9.498,3.416C818.696,622.942,811.884,618.309,809.606,620.095z"/>
<path style="fill:#FDFBFB;" d="M432.777,307.029c-0.655-1.219-1.309-2.438-1.964-3.657c3.134-8.175,9.044-13.33,17.316-15.916
	c1.486,0.719,2.971,1.438,4.457,2.157C447.935,297.638,441.591,303.739,432.777,307.029z"/>
<path style="fill:#CF1119;" d="M705.261,520.806c-4.232,5.284-6.838,9.79-13.552,8.468c-2.991-0.589-5.975-0.234-5.841-4.632
	c0.118-3.912,2.786-3.805,5.448-3.827C695.479,520.781,699.643,520.806,705.261,520.806z"/>
<path style="fill:#7E7E7E;" d="M506.251,332.938c0.922-2.573,1.845-5.146,2.84-7.921c3.665,3.707,2.652,8.073,2.696,12.216
	c-5.181,5.953,0.12,13.193-3.066,21.08C507.037,348.956,505.495,341.099,506.251,332.938z"/>
<path style="fill:#808080;" d="M491.961,327.154c8.992-5.114,1.163,6.555,5.787,5.798c0.037,2.605,0.075,5.211,0.113,7.816
	c-1.891,3.161,0.116,6.887-1.461,10.094c-1.035,2.788-1.797,3.634-2.32-0.213c-0.622-4.574,2.573-9.735-2.075-13.694l0.152,0.151
	C489.698,333.836,489.242,330.526,491.961,327.154z"/>
<path style="fill:#B7131A;" d="M540.342,398.927c-0.166,2.968-1.521,5-4.624,5.262c-3.415,0.289-6.299-1.893-6.579-4.627
	c-0.304-2.957,2.704-4.976,5.866-5.217C538.08,394.109,539.752,395.993,540.342,398.927z"/>
<path style="fill:#B7131A;" d="M521.874,404.279c-4.285,0.384-8.625-1.022-8.424-5.417c0.161-3.528,4.398-5.174,8.423-4.594
	C525.857,397.604,525.857,400.941,521.874,404.279z"/>
<path style="fill:#B7131A;" d="M506.064,404.279c-4.285,0.384-8.624-1.022-8.424-5.417c0.161-3.528,4.398-5.174,8.423-4.594
	C510.047,397.604,510.046,400.941,506.064,404.279z"/>
<path style="fill:#B7131A;" d="M490.254,404.279c-4.285,0.384-8.625-1.022-8.424-5.417c0.161-3.528,4.398-5.175,8.423-4.594
	C494.236,397.604,494.236,400.941,490.254,404.279z"/>
<path style="fill:#D4D4D4;" d="M144.267,325.179c6.289-0.768,12.577-1.536,18.866-2.305c1.317-0.69,2.481-0.49,3.492,0.599
	c-4.88,2.148-9.867,4.09-14.603,6.52c-3.034,1.556-5.454,1.655-7.773-0.944C143.179,327.754,143.034,326.463,144.267,325.179z"/>
<path style="fill:#B7131A;" d="M474.444,404.279c-3.808,0.263-7.574-0.411-7.545-4.972c0.029-4.442,3.666-5.363,7.544-5.039
	C478.426,397.604,478.426,400.941,474.444,404.279z"/>
<path style="fill:#7D7D7D;" d="M492.005,336.955c-0.838,5.615-1.676,11.231-2.514,16.846c-3.589-6.528-4.092-12.401,2.666-16.695
	C492.157,337.106,492.005,336.955,492.005,336.955z"/>
<path style="fill:#CC1119;" d="M800.072,603.899c-3.127,0.124-3.456-1.699-3.553-3.758c-0.127-2.682,0.851-4.378,3.801-4.143
	c1.407,0.112,3.711-0.33,3.196,2.104C803.031,600.397,803.03,603.405,800.072,603.899z"/>
<path style="fill:#1A1A1A;" d="M634.423,771.802c-6.588-0.147-13.177-0.293-19.765-0.441
	C621.3,769.075,627.907,768.414,634.423,771.802z"/>
<path style="fill:#1A1A1A;" d="M525.888,779.502c-4.908,3.76-10.18,1.875-15.402,0.017c5.133,0,10.267,0,15.401-0.001
	C525.887,779.518,525.888,779.502,525.888,779.502z"/>
<path style="fill:#1A1A1A;" d="M576.88,779.517c5.134,0,10.267,0,15.401,0c-5.222,1.859-10.496,3.743-15.406-0.014
	C576.875,779.503,576.88,779.517,576.88,779.517z"/>
<path style="fill:#F7F7F7;" d="M144.267,325.179c-0.006,1.29-0.012,2.58-0.017,3.869c-3.184-1.465-6.367-2.929-9.551-4.394
	c0.928-4.133,3.43-2.237,5.637-1.472C141.646,323.849,142.957,324.514,144.267,325.179z"/>
<path style="fill:#D1D1D1;" d="M166.625,323.473c-1.164-0.2-2.328-0.399-3.492-0.599c3.438-2.63,7.578-2.532,11.861-3.639
	C173.579,324.616,169.841,323.455,166.625,323.473z"/>
<path style="fill:#411E1F;" d="M474.444,404.279c2.47-3.338,2.471-6.674-0.002-10.011
	C480.394,397.604,480.394,400.941,474.444,404.279z"/>
<path style="fill:#411E1F;" d="M490.254,404.279c2.47-3.337,2.471-6.674-0.001-10.011
	C496.204,397.604,496.204,400.941,490.254,404.279z"/>
<path style="fill:#411E1F;" d="M521.874,404.279c2.47-3.337,2.471-6.674-0.001-10.011
	C527.825,397.604,527.824,400.941,521.874,404.279z"/>
<path style="fill:#686868;" d="M775.01,734.625c2.734-0.621,5.467-1.242,9.284-2.109c-1.728,4.66-4.958,3.462-7.355,3.964
	C774.825,737.391,774.618,736.32,775.01,734.625z"/>
<path style="fill:#411E1F;" d="M506.064,404.279c2.47-3.337,2.471-6.674-0.001-10.011
	C512.015,397.604,512.014,400.941,506.064,404.279z"/>
<path style="fill:#BABABA;" d="M140.336,323.183c-1.879,0.491-3.758,0.981-5.637,1.472c-1.386-0.517-2.772-1.034-4.158-1.551
	c-0.276-3.74,1.979-2.821,4.068-2.21C136.662,321.297,138.889,321.265,140.336,323.183z"/>
<path style="fill:#E3E3E4;" d="M729.266,516.882c1.553,0.764,3.107,1.529,4.66,2.293c-3.117,2.092-6.4,2.608-10.181,1.138
	C724.976,517.846,727.223,517.525,729.266,516.882z"/>
<path style="fill:#555555;" d="M775.01,734.625c0.642,0.617,1.284,1.234,1.927,1.853c-2.435,1.901-5.103,2.236-8.199,1.185
	C770.186,735.075,772.968,735.586,775.01,734.625z"/>
<path style="fill:#727272;" d="M134.609,320.894c-1.573,0.337-3.616-0.191-4.068,2.21c-1.619-0.42-3.503-1.904-2.47-2.982
	C130.018,318.093,132.579,319.128,134.609,320.894z"/>
<path style="fill:#3A3A3A;" d="M496.399,350.862c-0.479-3.504-1.117-7.031,1.462-10.093
	C498.038,344.229,498.873,347.785,496.399,350.862z"/>
<path style="fill:#CE1119;" d="M392.706,582.534c-1.953-0.012-3.906,0.016-5.859-0.019c-2.745-0.049-5.177-0.354-5.324-4.055
	c-0.182-4.58,2.962-4.261,5.909-4.303c3.254-0.047,6.52-0.179,9.761,0.029c2.938,0.189,7.135-1.347,7.309,3.873
	c0.168,5.04-3.761,4.315-6.915,4.471C395.964,582.612,394.334,582.546,392.706,582.534z"/>
<path style="fill:#CD1119;" d="M363.17,676.483c-7.702,1.22-15.401,0.636-23.101-0.035c-0.823-5.119,0.483-8.197,6.542-7.526
	c3.228,0.357,6.556,0.337,9.788,0.003C362.364,668.307,363.912,671.281,363.17,676.483z"/>
<path style="fill:#CE1119;" d="M310.309,542.561c2.278,0.009,4.555,0.003,6.833,0.01c2.592,0.009,4.384,0.865,4.421,3.876
	c0.035,2.813-1.344,4.281-4.052,4.352c-4.552,0.118-9.109,0.112-13.663,0.094c-2.746-0.011-5.177-0.358-5.326-4.053
	c-0.15-3.707,2.039-4.312,4.953-4.29C305.753,542.565,308.031,542.552,310.309,542.561z"/>
<path style="fill:#CE1119;" d="M351.717,550.924c-1.627,0.002-3.258,0.077-4.88-0.015c-3.125-0.176-6.943,0.655-6.784-4.535
	c0.142-4.624,3.616-3.703,6.355-3.815c3.248-0.133,6.51-0.138,9.759-0.006c3.062,0.124,7.077-0.906,6.855,4.357
	c-0.183,4.339-3.539,3.886-6.424,4C354.973,550.975,353.344,550.922,351.717,550.924z"/>
<path style="fill:#CE1119;" d="M392.57,550.841c-2.277,0-4.554,0.035-6.83-0.009c-2.67-0.052-4.148-1.232-4.211-4.13
	c-0.064-2.956,1.385-4.101,4.106-4.119c3.904-0.026,7.814-0.188,11.709-0.014c2.965,0.132,7.138-1.225,7.16,4.016
	c0.021,5.036-3.945,4.147-7.055,4.327c-1.621,0.094-3.252,0.017-4.879,0.017C392.57,550.9,392.57,550.871,392.57,550.841z"/>
<path style="fill:#CE1119;" d="M310.598,558.393c2.277,0,4.555-0.029,6.832,0.007c2.702,0.043,4.227,1.233,4.131,4.156
	c-0.094,2.874-1.701,4.052-4.341,4.087c-4.554,0.059-9.109,0.057-13.664,0.048c-2.89-0.006-5.051-0.723-5.035-4.336
	c0.017-3.816,2.517-3.974,5.244-4.001c2.277-0.023,4.555-0.005,6.833-0.005C310.598,558.364,310.598,558.379,310.598,558.393z"/>
<path style="fill:#CE1119;" d="M351.365,566.667c-2.278,0-4.555-0.017-6.833,0.004c-3.286,0.031-4.665-1.589-4.492-4.842
	c0.171-3.222,2.368-3.441,4.76-3.458c3.905-0.028,7.813-0.121,11.714-0.004c2.76,0.082,6.319-0.806,6.508,3.727
	c0.209,5.03-3.562,4.508-6.777,4.632c-1.625,0.063-3.254,0.011-4.881,0.011C351.365,566.713,351.365,566.69,351.365,566.667z"/>
<path style="fill:#CE1119;" d="M392.929,566.67c-2.278,0-4.556-0.02-6.834,0.005c-3.252,0.035-4.721-1.499-4.551-4.79
	c0.164-3.185,2.295-3.502,4.72-3.514c3.906-0.021,7.814-0.129,11.715-0.002c2.74,0.089,6.322-0.877,6.551,3.671
	c0.253,5.021-3.479,4.578-6.72,4.686c-1.626,0.055-3.254,0.01-4.882,0.01C392.929,566.714,392.929,566.692,392.929,566.67z"/>
<path style="fill:#CE1119;" d="M309.54,582.459c-2.278,0-4.556,0.035-6.833-0.009c-2.681-0.052-4.135-1.252-4.189-4.148
	c-0.055-2.961,1.402-4.089,4.119-4.104c3.906-0.022,7.818-0.184,11.715-0.011c2.97,0.132,7.144-1.211,7.147,4.035
	c0.003,5.039-3.973,4.124-7.078,4.308c-1.622,0.096-3.254,0.017-4.881,0.017C309.54,582.517,309.54,582.488,309.54,582.459z"/>
<path style="fill:#CE1119;" d="M351.365,582.475c-2.278,0-4.555-0.017-6.833,0.004c-3.286,0.031-4.665-1.589-4.492-4.842
	c0.171-3.223,2.368-3.441,4.76-3.458c3.905-0.028,7.813-0.121,11.714-0.004c2.76,0.082,6.319-0.806,6.508,3.727
	c0.209,5.03-3.562,4.508-6.777,4.632c-1.625,0.063-3.254,0.011-4.881,0.011C351.365,582.521,351.365,582.498,351.365,582.475z"/>
<path style="fill:#CE1119;" d="M310.804,590.005c2.278,0.013,4.557-0.026,6.834,0.023c2.818,0.06,4.076,1.537,3.915,4.359
	c-0.168,2.94-2.007,3.862-4.561,3.888c-4.556,0.047-9.113,0.019-13.669,0.029c-3.05,0.007-4.936-1.038-4.806-4.553
	c0.114-3.093,1.939-3.756,4.476-3.759C305.596,589.99,308.2,589.992,310.804,590.005z"/>
<path style="fill:#CE1119;" d="M351.656,598.342c-1.953-0.007-3.906,0.004-5.859-0.009c-3.121-0.02-5.946-0.274-5.765-4.604
	c0.162-3.874,2.863-3.718,5.48-3.756c3.58-0.053,7.164-0.11,10.74,0.002c3.097,0.097,7.069-0.824,6.777,4.437
	c-0.242,4.362-3.64,3.786-6.492,3.923C354.914,598.413,353.283,598.349,351.656,598.342z"/>
<path style="fill:#CE1119;" d="M393.312,589.986c2.278,0.009,4.556,0.005,6.835,0.01c2.598,0.006,4.38,0.871,4.426,3.879
	c0.042,2.818-1.335,4.283-4.046,4.352c-4.554,0.116-9.111,0.109-13.667,0.091c-2.744-0.011-5.182-0.35-5.332-4.048
	c-0.151-3.702,2.031-4.318,4.95-4.296C388.755,589.99,391.034,589.977,393.312,589.986z"/>
<path style="fill:#CE1119;" d="M310.308,605.794c2.278,0.009,4.556,0.005,6.835,0.01c2.598,0.006,4.381,0.871,4.426,3.879
	c0.042,2.818-1.335,4.283-4.046,4.352c-4.554,0.116-9.111,0.109-13.667,0.09c-2.744-0.011-5.182-0.35-5.332-4.048
	c-0.151-3.702,2.032-4.318,4.95-4.296C305.751,605.799,308.03,605.785,310.308,605.794z"/>
<path style="fill:#CE1119;" d="M351.477,605.763c1.953,0.003,3.908-0.045,5.859,0.015c2.579,0.08,5.459-0.237,5.708,3.586
	c0.271,4.158-2.437,4.776-5.67,4.778c-3.58,0.002-7.161,0.051-10.741,0.002c-3.254-0.045-6.902,0.382-6.578-4.722
	c0.294-4.628,3.854-3.405,6.542-3.637C348.212,605.646,349.85,605.76,351.477,605.763z"/>
<path style="fill:#CE1119;" d="M392.867,614.091c-2.278,0-4.555-0.017-6.833,0.004c-3.286,0.031-4.665-1.589-4.492-4.842
	c0.171-3.222,2.368-3.441,4.76-3.458c3.905-0.028,7.813-0.121,11.714-0.005c2.76,0.082,6.319-0.806,6.508,3.727
	c0.209,5.03-3.562,4.508-6.777,4.632c-1.625,0.063-3.254,0.011-4.881,0.011C392.867,614.138,392.867,614.115,392.867,614.091z"/>
<path style="fill:#CE1119;" d="M309.975,621.571c1.953,0.003,3.908-0.045,5.859,0.015c2.579,0.08,5.459-0.237,5.708,3.586
	c0.271,4.158-2.437,4.776-5.671,4.778c-3.58,0.002-7.161,0.051-10.741,0.002c-3.254-0.045-6.902,0.382-6.578-4.722
	c0.294-4.628,3.854-3.405,6.542-3.637C306.71,621.454,308.348,621.568,309.975,621.571z"/>
<path style="fill:#CE1119;" d="M352.084,621.623c2.278,0,4.557-0.026,6.834,0.007c2.694,0.039,4.238,1.199,4.15,4.135
	c-0.086,2.874-1.667,4.073-4.317,4.109c-4.555,0.061-9.112,0.061-13.668,0.05c-2.877-0.007-5.064-0.693-5.061-4.315
	c0.003-3.812,2.487-3.998,5.226-4.023c2.278-0.02,4.557-0.004,6.835-0.004C352.084,621.596,352.084,621.61,352.084,621.623z"/>
<path style="fill:#CE1119;" d="M393.575,621.624c2.277,0,4.555-0.026,6.831,0.007c2.692,0.039,4.246,1.202,4.156,4.132
	c-0.089,2.861-1.669,4.074-4.322,4.11c-4.553,0.061-9.108,0.062-13.661,0.054c-2.879-0.005-5.058-0.694-5.055-4.314
	c0.003-3.808,2.48-4.002,5.219-4.026c2.277-0.02,4.555-0.004,6.832-0.004C393.575,621.597,393.575,621.61,393.575,621.624z"/>
<path style="fill:#CE1119;" d="M309.947,645.712c-2.278,0-4.556-0.021-6.834,0.005c-3.239,0.037-4.741-1.46-4.574-4.769
	c0.16-3.176,2.261-3.527,4.7-3.537c3.906-0.017,7.815-0.129,11.716-0.001c2.74,0.09,6.32-0.868,6.574,3.66
	c0.282,5.033-3.452,4.594-6.699,4.698c-1.626,0.052-3.255,0.009-4.882,0.009C309.947,645.755,309.947,645.734,309.947,645.712z"/>
<path style="fill:#CE1119;" d="M352.137,637.389c1.953,0.001,3.906-0.004,5.859,0.003c2.864,0.01,5.213,0.568,5.063,4.25
	c-0.146,3.596-2.569,4.091-5.369,4.104c-4.231,0.021-8.463,0.005-12.694-0.012c-2.923-0.011-5.023-0.785-4.98-4.387
	c0.046-3.836,2.582-3.922,5.286-3.954C347.579,637.366,349.858,637.387,352.137,637.389z"/>
<path style="fill:#CE1119;" d="M392.72,645.766c-1.952-0.012-3.904,0.017-5.855-0.019c-2.74-0.051-5.187-0.346-5.332-4.045
	c-0.179-4.558,2.954-4.269,5.906-4.311c3.253-0.046,6.517-0.181,9.756,0.029c2.936,0.189,7.13-1.35,7.309,3.868
	c0.173,5.037-3.75,4.321-6.904,4.477C395.976,645.844,394.346,645.778,392.72,645.766z"/>
<path style="fill:#CE1119;" d="M393.706,669c1.627-0.003,3.254-0.029,4.88,0.003c2.975,0.058,6.143-0.154,5.966,4.315
	c-0.143,3.613-2.641,4.03-5.415,4.045c-4.229,0.023-8.458,0-12.687-0.015c-2.956-0.011-5.001-0.867-4.924-4.442
	c0.083-3.841,2.674-3.854,5.348-3.896C389.151,668.975,391.428,669.003,393.706,669z"/>
<path style="fill:#CE1119;" d="M351.717,661.581c-1.627,0.002-3.258,0.077-4.88-0.014c-3.125-0.176-6.943,0.655-6.784-4.535
	c0.142-4.624,3.616-3.703,6.355-3.815c3.248-0.133,6.51-0.138,9.759-0.006c3.062,0.124,7.077-0.906,6.855,4.357
	c-0.183,4.339-3.539,3.886-6.424,4C354.973,661.632,353.344,661.579,351.717,661.581z"/>
<path style="fill:#CE1119;" d="M393.602,653.242c2.277,0,4.555-0.028,6.832,0.007c2.702,0.043,4.227,1.233,4.131,4.156
	c-0.094,2.874-1.701,4.052-4.341,4.087c-4.554,0.059-9.109,0.057-13.664,0.048c-2.89-0.006-5.051-0.723-5.035-4.336
	c0.017-3.816,2.517-3.974,5.244-4.001c2.277-0.023,4.555-0.005,6.833-0.005C393.602,653.213,393.602,653.227,393.602,653.242z"/>
<path style="fill:#CE1119;" d="M462.327,454.092c-1.953-0.007-3.905,0.004-5.858-0.009c-3.12-0.02-5.945-0.274-5.764-4.603
	c0.162-3.874,2.864-3.716,5.48-3.755c3.579-0.053,7.163-0.11,10.739,0.002c3.096,0.098,7.068-0.824,6.776,4.436
	c-0.242,4.361-3.64,3.785-6.492,3.922C465.585,454.162,463.955,454.098,462.327,454.092z"/>
<path style="fill:#CE1119;" d="M462.327,469.9c-1.953-0.007-3.905,0.004-5.858-0.009c-3.12-0.02-5.945-0.274-5.764-4.603
	c0.162-3.874,2.864-3.716,5.48-3.755c3.579-0.053,7.163-0.11,10.739,0.002c3.096,0.098,7.068-0.824,6.776,4.436
	c-0.242,4.361-3.64,3.785-6.492,3.922C465.585,469.97,463.955,469.906,462.327,469.9z"/>
<path style="fill:#CE1119;" d="M462.293,477.355c2.278,0,4.555-0.003,6.833,0.001c2.524,0.004,4.473,0.65,4.604,3.71
	c0.149,3.462-1.845,4.567-4.852,4.601c-3.904,0.045-7.812,0.122-11.713,0.016c-2.795-0.076-6.185,0.616-6.437-3.867
	c-0.299-5.301,3.585-4.328,6.685-4.483c1.623-0.081,3.253-0.014,4.88-0.014C462.293,477.331,462.293,477.343,462.293,477.355z"/>
<path style="fill:#CE1119;" d="M462.39,501.522c-1.627,0.002-3.257,0.077-4.879-0.015c-3.124-0.176-6.943,0.656-6.784-4.534
	c0.142-4.623,3.616-3.702,6.354-3.814c3.248-0.133,6.509-0.138,9.757-0.006c3.062,0.124,7.077-0.907,6.855,4.356
	c-0.183,4.338-3.539,3.885-6.424,3.999C465.645,501.573,464.016,501.52,462.39,501.522z"/>
<path style="fill:#CE1119;" d="M462.037,517.265c-2.277,0-4.555-0.017-6.832,0.004c-3.285,0.031-4.665-1.588-4.492-4.841
	c0.171-3.222,2.368-3.44,4.76-3.457c3.904-0.028,7.812-0.121,11.713-0.004c2.759,0.082,6.319-0.806,6.508,3.726
	c0.209,5.029-3.562,4.507-6.776,4.631c-1.625,0.063-3.254,0.011-4.881,0.011C462.037,517.312,462.037,517.289,462.037,517.265z"/>
<path style="fill:#CE1119;" d="M462.342,675.406c-1.952-0.006-3.905,0.007-5.857-0.01c-3.104-0.027-5.954-0.238-5.781-4.584
	c0.154-3.868,2.836-3.737,5.46-3.775c3.579-0.051,7.161-0.114,10.737,0.004c3.087,0.102,7.069-0.838,6.797,4.418
	c-0.226,4.359-3.616,3.808-6.475,3.939C465.598,675.473,463.968,675.412,462.342,675.406z"/>
<path style="fill:#CE1119;" d="M462.556,524.792c2.277,0,4.554-0.008,6.831,0.002c2.629,0.012,4.337,0.977,4.347,3.954
	c0.009,2.833-1.441,4.211-4.128,4.279c-4.226,0.106-8.457,0.142-12.684,0.084c-2.887-0.04-6.073,0.309-6.21-4.13
	c-0.141-4.593,3.095-4.13,5.989-4.219c1.95-0.06,3.904-0.011,5.855-0.011C462.556,524.763,462.556,524.777,462.556,524.792z"/>
<path style="fill:#CE1119;" d="M462.456,540.595c2.277,0,4.555-0.002,6.832,0.001c2.595,0.004,4.39,0.86,4.444,3.863
	c0.051,2.813-1.33,4.289-4.039,4.362c-4.552,0.122-9.108,0.116-13.662,0.099c-2.737-0.01-5.185-0.326-5.332-4.032
	c-0.18-4.558,2.943-4.265,5.9-4.323c1.951-0.038,3.904-0.007,5.856-0.007C462.456,540.57,462.456,540.583,462.456,540.595z"/>
<path style="fill:#CE1119;" d="M462.289,556.395c2.277,0,4.554-0.003,6.83,0.001c2.519,0.004,4.477,0.633,4.612,3.697
	c0.153,3.455-1.823,4.579-4.836,4.613c-3.903,0.045-7.809,0.122-11.708,0.015c-2.797-0.076-6.193,0.607-6.452-3.863
	c-0.307-5.287,3.572-4.336,6.676-4.486c1.623-0.078,3.252-0.014,4.879-0.014C462.289,556.371,462.289,556.383,462.289,556.395z"/>
<path style="fill:#CE1119;" d="M462.037,580.498c-2.277,0-4.555-0.017-6.832,0.004c-3.285,0.031-4.665-1.588-4.492-4.841
	c0.171-3.222,2.368-3.44,4.76-3.457c3.904-0.028,7.812-0.121,11.713-0.004c2.759,0.082,6.319-0.806,6.508,3.726
	c0.209,5.029-3.562,4.507-6.776,4.631c-1.625,0.063-3.254,0.011-4.881,0.011C462.037,580.544,462.037,580.521,462.037,580.498z"/>
<path style="fill:#CE1119;" d="M462.713,682.879c2.277,0,4.554-0.023,6.831,0.006c2.675,0.034,4.288,1.143,4.187,4.093
	c-0.077,2.242-1.038,3.953-3.309,4.021c-5.519,0.164-11.049,0.116-16.569-0.033c-2.435-0.066-3.1-1.884-3.126-4.063
	c-0.027-2.247,0.772-3.829,3.21-3.914c2.922-0.102,5.851-0.024,8.776-0.024C462.713,682.936,462.713,682.907,462.713,682.879z"/>
<path style="fill:#CE1119;" d="M462.327,596.365c-1.953-0.007-3.905,0.004-5.858-0.009c-3.12-0.02-5.945-0.274-5.764-4.603
	c0.162-3.874,2.864-3.716,5.48-3.755c3.579-0.053,7.163-0.11,10.739,0.002c3.096,0.098,7.068-0.824,6.776,4.436
	c-0.242,4.361-3.64,3.785-6.492,3.922C465.585,596.435,463.955,596.371,462.327,596.365z"/>
<path style="fill:#CE1119;" d="M462.483,603.818c2.277,0.009,4.555,0.003,6.832,0.01c2.592,0.009,4.384,0.864,4.421,3.875
	c0.035,2.812-1.345,4.28-4.052,4.351c-4.552,0.118-9.108,0.112-13.662,0.094c-2.745-0.011-5.176-0.357-5.326-4.052
	c-0.15-3.707,2.041-4.31,4.953-4.289C457.928,603.822,460.206,603.809,462.483,603.818z"/>
<path style="fill:#CE1119;" d="M462.978,619.646c2.278,0.013,4.557-0.026,6.833,0.023c2.817,0.06,4.076,1.536,3.915,4.358
	c-0.168,2.94-2.008,3.861-4.561,3.887c-4.555,0.047-9.112,0.019-13.667,0.029c-3.049,0.007-4.936-1.037-4.806-4.552
	c0.114-3.093,1.94-3.755,4.476-3.758C457.771,619.631,460.375,619.633,462.978,619.646z"/>
<path style="fill:#CE1119;" d="M462.745,635.457c2.277,0,4.554-0.026,6.83,0.007c2.691,0.039,4.246,1.201,4.155,4.131
	c-0.089,2.861-1.67,4.073-4.322,4.109c-4.553,0.061-9.106,0.062-13.66,0.054c-2.878-0.005-5.058-0.693-5.055-4.313
	c0.004-3.808,2.48-4.001,5.219-4.024c2.277-0.02,4.554-0.004,6.831-0.004C462.745,635.43,462.745,635.443,462.745,635.457z"/>
<path style="fill:#CE1119;" d="M462.121,659.543c-2.278,0-4.556-0.021-6.833,0.005c-3.238,0.037-4.741-1.459-4.574-4.768
	c0.16-3.175,2.261-3.526,4.7-3.536c3.905-0.017,7.814-0.13,11.714-0.001c2.739,0.09,6.319-0.868,6.573,3.659
	c0.282,5.032-3.453,4.593-6.698,4.697c-1.626,0.052-3.254,0.009-4.881,0.009C462.121,659.586,462.121,659.565,462.121,659.543z"/>
<path style="fill:#CC1119;" d="M473.933,706.122c-7.878,1.414-15.595,0.432-23.245-1.552c0.215-2.082-0.929-5.321,2.121-5.565
	c6.07-0.484,12.249-0.595,18.297,0.003C475.246,699.417,473.457,703.521,473.933,706.122z"/>
<path style="fill:#D1121A;" d="M448.129,287.457c-4.977,6.17-10.831,11.387-17.316,15.916c-2.686,1.174-5.371,2.349-8.057,3.523
	c-2.24,0.197-4.48,0.395-7.592,0.669c3.234-5.304,8.209-8.427,9.782-14.949c-6.585,2.386-12.432,6.281-19.25,3.938
	c11.209-13.271,22.653-26.32,34.964-37.661c-18.98-1.357-36.722,7.912-55.721,10.577c-1.88,0-3.761,0-8.115,0
	c18.523-14.178,38.072-17.618,58.019-19.912c5.872-0.805,11.752-0.569,17.634-0.141c4.229,0.669,4.368,3.63,4.405,7.103
	C457.001,267.727,452.963,277.688,448.129,287.457z"/>
<path style="fill:#222121;" d="M384.939,269.469c20.379-9.637,41.476-15.669,67.164-13.258
	c-21.091,9.662-27.873,31.422-46.408,40.343c-3.603,1.344-2.337-1.469-2.566-3.006c4.191-6.063,11.727-13.05,9.145-19.172
	c-2.413-5.721-12.813-2.652-19.567-4.18C390.191,269.627,387.532,269.693,384.939,269.469z"/>
<path style="fill:#FCF5F6;" d="M452.477,249.416c-5.878,0.047-11.756,0.094-17.634,0.141
	C440.701,247.11,446.581,247.281,452.477,249.416z"/>
<path style="fill:#FDFAFA;" d="M102.644,641.323c-3.453-1.624-4.669-5.106-4.708-8.153c-0.169-12.966-4.337-25.547-1.92-38.889
	c2.136-11.789,0.789-24.125,3.79-35.963c5.686-22.428,19.916-40.043,32.855-58.371c2.818-3.991,6.03-7.73,9.3-11.37
	c8.196-9.124,15.88-19.584,30.481-9.786c2.323,1.559,6.413,0.485,9.686,0.628c-7.874,7.529-15.964,14.884-20.388,25.204
	c-5.018-1.45-2.15-4.935-1.993-7.721c0-5.413,0-10.825,0-17.864c-21.683,20.874-35.146,44.187-37.551,73.242
	c-1.404,0.952,0.664,4.84-3.165,3.741c-0.978-3.434-1.957-6.867-3.372-11.834c-8.294,17.354-11.972,34.35-12.738,51.892
	C102.263,611.136,102.694,626.24,102.644,641.323z"/>
<path style="fill:#E67F83;" d="M159.747,496.903c1.326,2.403-0.726,5.678,1.993,7.721c-0.632,1.012-1.265,2.024-1.897,3.036
	c-0.56-0.55-1.593-1.094-1.601-1.652C158.198,502.904,157.857,499.702,159.747,496.903z"/>
<path style="fill:#EB9CA0;" d="M119.03,556.021c1.055-1.247,2.11-2.494,3.165-3.741c0.153,3.308,0.307,6.617,0.46,9.925
	c-0.523,0.106-1.046,0.212-1.569,0.317C120.401,560.355,119.716,558.188,119.03,556.021z"/>
<path style="fill:#4E1D1F;" d="M261.993,417.489c0.224-3.056,2.288-5.156,4.194-4.059c3.168,1.823-0.202,2.769-1.477,3.627
	C264.066,417.49,263.032,417.347,261.993,417.489z"/>
</svg>
