<?xml version="1.0" encoding="utf-8"?>
<!-- Generator: Adobe Illustrator 28.3.0, SVG Export Plug-In . SVG Version: 6.00 Build 0)  -->
<svg version="1.1" id="Layer_1" xmlns="http://www.w3.org/2000/svg" xmlns:xlink="http://www.w3.org/1999/xlink" x="0px" y="0px"
	 viewBox="0 0 1000 1000" style="enable-background:new 0 0 1000 1000;" xml:space="preserve">
<g>
	<path style="fill:#010101;" d="M456.735,103.119c5.467-9.77,14.166-16.618,22.147-24.038c8.712-8.1,17.327-16.186,23.94-28.715
		c12.943,31.398,48.531,43.103,58.46,78.249c19.926-26.953,53.838-33.746,73.087-60.962c0.213,31.306,27.24,53.231,25.957,86.895
		c24.244-20.35,56.3-22.117,78.896-43.665c-4.182,15.482-2.201,29.888,2.824,44.127c4.9,13.885,5.604,28.182,1.503,45.578
		c14.966-10.325,28.487-15.265,43.627-16.661c14.198-1.309,28.126-5.011,43.544-14.57c-12.917,31.447,2.946,62.483-13.219,90.675
		c29.971-12.922,59.924,5.505,88.731-5.841c-15.262,25.136-16.091,54.853-31.15,81.605c30.9-4.79,57.136,11.804,88.841,13.001
		c-22.56,21.862-27.181,53.072-52.893,73.421c35.375,0.724,56.024,29.561,88.969,35.957c-19.24,15.005-32.801,33.492-49.651,48.792
		c-4.898,4.448-10.373,8.038-17.305,8.497c-3.478,3.423-7.355,3.924-11.639,1.623c-4.785-2.571-9.911-2.377-15.094-1.779
		c-16.933-3.25-32.107-11.242-47.801-17.795c-3.246-1.355-6.477-4.029-5.585-7.952c0.714-3.139,4.377-4.005,7.382-4.717
		c14.895-3.531,30.028-5.891,44.972-9.13c13.485-2.291,26.872-5.357,33.8-5.934c-10.803,1.516-28.187,4.604-45.539,7.867
		c-10.686,2.633-21.55,4.379-32.429,5.935c-4.315,0.617-9.413,0.701-11.47-4.238c-1.758-4.22,1.474-7.536,4.166-10.419
		c9.611-10.293,19.897-19.927,30.123-30.492c-10.365-0.392-19.039,7.369-29.235,4.459c-2.663-1.413-3.565-3.636-3.026-6.521
		c6.071-9.569,17.864-7.988,26.037-13.237c-11.662-1.663-23.372-3.285-35.069-5.003c-5.16-0.758-11.834-0.738-12.985-6.751
		c-1.068-5.576,5.72-6.751,9.35-9.552c1.392-1.074,2.975-1.844,4.604-2.522c14.266-6.05,28.694-11.711,42.645-18.467
		c12.923-4.86,25.491-10.525,37.768-16.832c6.164-0.711,11.119-4.545,15.126-5.973c-4.74,2.78-11.799,4.555-18.264,7.771
		c-12.891,5.434-25.466,11.582-38.511,16.643c-14.496,6.826-29.53,12.367-44.266,18.606c-4.786,1.159-10.182,6.969-14.237,2.004
		c-3.939-4.822,1.773-9.694,4.545-13.831c7.777-11.606,14.859-23.649,23.296-35.953c0.544-0.579-3.065-1.129-1.512-0.298
		c0.667,0.357,0.809,0.837,0.268,1.213c-16.09,11.168-32.303,22.118-51.13,28.387c-2.778-0.265-4.965-1.323-5.734-4.27
		c0.135-6.447,5.441-8.492,9.781-11.218c11.842-7.437,24.479-13.568,37.641-23.178c-14.06,2.509-26.365,3.123-38.687,3.385
		c-3.747,0.08-8.538,2.195-10.544-2.484c-2.208-5.149,2.352-7.965,5.736-10.527c9.058-6.857,17.459-14.582,27.129-20.631
		c12.763-10.62,26.804-19.519,39.93-29.646c6.539-4.25,12.93-8.712,19.02-13.594c2.196-1.543,4.866-2.534,6.16-5.125
		c-1.55,2.758-4.531,3.719-6.948,5.386c-5.908,5.061-12.419,9.275-18.934,13.487c-12.736,10.366-26.948,18.737-39.523,29.316
		c-10.28,6.576-19.98,13.989-30.083,20.816c-2.828,1.911-6.266,4.15-9.572,1.339c-3.29-2.797-1.637-6.502-0.253-9.648
		c4.911-11.169,8.609-22.778,14.102-36.661c-9.193,5.766-13.591,13.849-21.578,16.966c-3.589,0.651-7.646,3.241-9.795-2.273
		c2.835-12.589,15.406-17.363,22.222-27.87c-12.43,4.432-24.597,7.527-36.605,11.189c-4.41,1.345-9.875,4.829-13.42,0.119
		c-3.72-4.943,1.585-8.746,4.337-12.455c11.501-15.501,23.675-30.473,35.873-45.422c6.4-5.533,10.977-12.638,16.357-19.049
		c4.166-4.193,7.244-9.365,11.82-13.195c3.287-3.454,5.517-7.823,7.701-9.538c-1.388,1.409-4.039,4.422-6.304,7.775
		c-4.926,4.405-8.677,9.874-13.218,14.63c-5.516,6.388-9.892,13.758-16.521,19.187c-11.254,15.726-26.115,28.294-38.035,43.451
		c-2.898,3.685-6.564,8.862-11.573,6.941c-5.653-2.167-3.225-8.257-2.496-12.825c1.933-12.104,3.562-24.255,5.691-37.572
		c-4.407,3.774-6.317,9.83-12.459,9.754c-2.944-0.69-4.053-2.795-4.313-5.56c-0.052-4.634,3.415-7.876,5.205-13.158
		c-12.03,5.43-22.218,12.343-32.989,18.141c-3.762,2.025-7.958,5.397-11.971,1.994c-4.258-3.61-1.008-8.119,0.77-11.911
		c4.064-8.666,8.433-17.189,12.551-25.837c7.112-13.842,14.338-27.62,21.761-41.293c4.253-6.042,5.978-13.404,9.227-17.836
		c1.8-3.182-0.845-2.533,0.867-2.121c-3.502,5.935-5.663,12.569-9.52,18.32c-7.365,14.314-15.496,28.193-23.78,41.995
		c-1.708,2.755-3.71,5.222-6.637,6.772c-15.504,4.722-16.058,4.205-19.633-11.745c-1.247-5.565-2.487-11.042-2.832-16.75
		c-0.316-5.232-0.581-12.415-6.072-13.221c-6.67-0.98-10.374,5.137-11.934,11.604c-7.475,13.448-21.366,20.302-31.706,30.81
		c-1.796,1.825-4.637,3.42-7.088,1.937c-3.464-2.096-3.23-6.024-2.649-9.477c2.754-16.354,6.773-32.438,10.774-48.519
		c0.84-3.377,2.046-6.665,2.549-10.127c3.2-10.099,5.816-20.351,7.759-30.76c3.117-6.258,2.443-13.861,6.94-19.648
		c-3.867,4.839-4.321,10.872-5.836,16.546c-2.494,8.862-4.521,17.83-6.816,26.731c-5.312,18.565-9.669,37.425-16.506,55.519
		c-2.045,5.413-2,14.094-9.4,14.098c-6.346,0.003-7.035-8.046-9.202-13.185c-4.784-11.347-8.409-23.151-14.229-35.614
		c-3.908,24.571-6.747,48.182-10.475,71.652c-0.811,5.107-0.625,10.873-7.282,12.677c-6.606-3.586-4.44-10.075-5.213-15.59
		c0.632-23.148,6.867-45.697,8.219-70.594c-11.217,12.155-20.517,23.644-30.207,34.785c-2.616,3.007-5.652,6.567-9.787,5.746
		c-4.595-0.912-4.416-5.953-5.339-9.665c-2.352-9.456-2.758-19.112-2.387-28.782c0.641-16.693-1.109-33.291-1.7-49.944
		c0-8.721,0.001-17.433-0.002-26.118c0.005-1.694-0.016-3.414-0.026-2.96c0.483,13.504-0.814,29.204,0.647,44.899
		c0.723,15.005,2.167,30.037-3.295,44.551c-4.992,8.724-12.493,8.01-19.046,3.325c-9.17-6.556-16.805-14.979-23.549-24.16
		C445.603,131.966,454.527,117.608,456.735,103.119z"/>
	<path style="fill:#010101;" d="M456.735,103.119c-0.881,9.065,3.805,18.113-3.144,27.516c-2.809,3.802,3.98,14.358,7.439,17.348
		c6.899,5.964,11.54,13.867,18.652,19.246c4.932,3.73,10.66,6.323,16.854,1.98c4.9,8.686,6.676,20.158-0.769,25.111
		c-7.059,4.695-13.068-6.221-18.11-11.731c-8.244-9.01-15.629-18.803-26.307-27.647c3.762,29.344,9.636,57.07,11.783,85.273
		c2.996,25.708,7.373,51.235,10.266,76.95c0.924,8.21,4.206,9.683,11.245,6.096c11.815-6.021,23.837-5.975,35.266,0.759
		c7.456,4.393,10.095,2.301,10.593-5.693c0.271-4.358,1.474-8.652,3.411-12.653c5.694-6.576,7.111,5.031,11.816,2.774
		c5.932,7.466,12.951,9.838,21.717,4.875c2.906-1.646,7.671-1.68,7.417-6.148c-0.201-3.545-4.609-3.437-7.049-5.102
		c-8.36-5.703-17.115,2.028-25.52-0.942c-6.331-6.241,0.229-12.17,0.732-18.146c0.821-9.757,1.298-19.853,7.02-28.501
		c7.645-3.202,8.2,3.952,10.704,7.693c5.039,7.53,4.497,20.309,12.682,23.319c8.799,3.236,14.649-8.859,22.907-12.318
		c3.223-1.35,6.241-3.165,9.936-1.931c6.979,6.269,3.208,13.199,0.173,19.077c-7.241,14.023-12.614,28.656-17.132,43.711
		c-1.556,5.184-2.639,11.924-11.104,9.05c-9.282-8.789-19.545-14.297-33.024-10.964c-3.574,0.884-7.276-0.235-7.546-4.262
		c-1.436,5.212,4.648,4.522,7.392,6.814c2.689,2.341,4.049,5.32,4.334,8.828c-0.057,3.448-0.416,6.769-4.02,8.543
		c-16.939-7.284-26.288-0.578-26.604,20.387c7.54-3.26,14.941-4.553,20.867,2.422c0.853,8.497,1.284,17.135,7.543,23.948
		c-5.889,7.323-12.971,5.709-20.313,2.811c-3.923-1.548-8.026-1.969-10.617,2.133c-2.495,3.95,0.833,6.446,3.181,9.011
		c2.376,2.596,4.526,5.427,7.136,7.776c3.583,3.225,5.697,10.711,9.657,10c7.68-1.378,15.515-1.641,23.064-3.381
		c3.417-0.788,5.134-4.61,6.699-7.806c1.903-3.886,2.554-8.544,6.829-10.963c4.817-1.682,8.306,0.516,10.88,3.106
		c7.278-12.814,12.026-27.65,24.105-38.049c3.893-1.548,7.815-1.573,11.761-0.234c4.787,3.969,10.902,6.211,14.889,11.262
		c-0.247,4.346-4.161,5.917-6.511,8.678c-4.941,7.105-9.929,14.137-15.735,20.618c-3.261,3.641-8.1,8.488-2.215,13.324
		c5.774,4.744,8.045-1.851,11.129-4.941c5.766-5.779,10.471-12.852,18.951-15.286c3.887-0.74,7.788-0.776,11.707-0.334
		c2.669,0.433,5.084,1.374,6.894,3.496c2.13,3.166,4.024,6.459,4.981,10.207c-0.438,4.504-4.701,5.22-7.393,7.508
		c-6.118,4.858-11.249,10.873-17.876,15.136c-9.04,5.814-6.888,10.668,1.404,14.874c5.32,3.008,10.999-0.453,14.535,0.479
		c-2.209-0.246-7.369,0.959-8.173-5.388c1.423-4.685,5.241-6.169,9.458-7.15c5.386-0.198,11.651-4.209,15.827,1.542
		c4.602,6.337,2.681,13.212-0.987,19.582c-5.195,5.412-11.811,8.554-18.561,11.462c-6.869,1.437-10.229,7.772-15.627,11.275
		c-1.237,0.157-2.351-0.132-3.328-0.92c-1.866-2.822-1.435-5.805-0.428-8.731c2.005-5.829-1.81-7.826-6.141-9.358
		c-5.095-1.803-8.271,0.406-10.173,5.159c-1.907,4.767-2.179,10.252-6.133,14.143c-8.453,3.714-13.284-0.447-16.711-7.68
		c-4.158-8.778-7.097-17.988-9.306-27.41c-2.122-9.053-5.718-13.494-15.329-7.237c-5.479,3.567-11.931,5.536-17.855,8.433
		c-14.188,6.939-16.172,6.467-27.163-5.299c-5.099-5.459-9.215-11.724-14.5-17.062c-5.71-5.767-10.605-5.346-15.281,0.913
		c-5.267,7.049-11.505,13.287-16.826,20.28c-4.36,5.73-9.545,6.83-16.249,4.278c-6.606-2.514-12.767-5.851-19.094-8.898
		c-16.932-8.153-17.168-8.061-22.243,9.512c-2.194,7.597-4.237,15.237-6.678,22.762c-2.475,7.629-6.809,11.184-14.817,6.874
		c-3.672-5.216-3.744-11.588-5.586-17.396c-2.381-7.507-5.755-11.488-12.148-3.002c-3.817,5.066-8.577,7.787-14.786,4.713
		c-6.672-3.303-8.053-8.744-5.125-15.429c0.86-1.895,2.5-2.11,4.297-1.983c3.835,0.27,8.549-0.882,6.995-5.035
		c-3.388-9.053-12.797-12.368-20.244-17.384c-1.9-1.28-4.434-0.765-5.561,1.586c-1.93,4.025,0.987,6.38,3.419,8.919
		c3.762,3.928,10.188,5.605,10.582,12.406c-4.972,5.018-9.438,10.391-11.897,17.162c-0.408,0.15-0.833,0.262-1.228,0.44
		c-4.758,2.151-12.343-6.416-14.407,2.071c-1.696,6.973,7.204,7.187,11.624,10.12c1.447,0.96,2.972,1.804,4.352,2.89
		c5.12,4.601,12.171,8.394,9.637,16.977c-1.682,5.696-5.096,10.292-12.165,9.79c-5.367,1.385-14.322-5.346-15.697,2.612
		c-1.411,8.161,9.165,4.935,13.953,7.695c1.092,0.57,1.905,1.418,2.447,2.522c-5.94,5.958-8.262,13.282-8.072,21.559
		c-9.111,4.696-15.666,13.091-25.096,17.333c-6.66-14.976-6.646-14.854-23.729-12.948c-14.168,1.58-27.913-1.003-41.461-4.937
		c-3.224-0.936-6.007-3.795-9.828-2.332c5.506,17.344,11.982,19.895,28.679,21.486c16.086,1.532,32.141-1.012,48.054,1.732
		c1.758,6.177-2.1,9.528-6.311,12.724c-17.364,6.735-35.936,6.882-54.024,9.448c-15.145,2.148-29.844,6.734-45.155,7.736
		c-4.877-0.416-10.026,0.253-14.173-3.28c-3.34-5.555,0.794-8.93,3.833-12.494c3.992-4.681,9.19-8.014,13.873-11.925
		c11.831-9.88,11.853-10.451,2.512-22.377c-0.759-1.8,1.905-3.314,0.434-5.182c-1.164,1.961-2.978,2.765-5.189,2.916
		c-3.204-0.249-5.922-1.743-8.228-3.72c-9.884-8.471-21.389-10.699-34.09-10.288c-8.462,0.274-17.663,1.229-23.933-6.923
		c3.553-7.252,10.524-4.512,16.197-5.586c6.798-0.086,13.6-0.191,20.327,1.012c13.268,3.112,26.942,2.919,40.388,3.958
		c26.58,2.053,53.282,2.617,79.816,5.515c8.98,0.981,14.949-0.665,12.2-11.739c-0.415-1.67-0.172-3.489-0.079-5.241
		c0.986-18.557,0.892-18.24-17.58-23.639c-22.196-6.487-45.131-10.922-65.59-22.481c1.246-6.445-4.077-5.002-7.32-6.04
		c-3.28-1.049-7.204-1.716-7.329-6.063c-0.131-4.533,3.868-5.143,7.174-6.007c5.828-1.524,11.892-2.155,17.447-4.667
		c2.304-1.357,4.793-2.17,8.856-2.592c-10.667-21.977-16.966-45.266-42.717-56.554c-17.925-7.858-34.533-19.185-53.675-31.109
		c7.834,12.956,15.34,23.138,22.021,33.829c2.058,3.294,5.065,7.016,2.291,10.874c-3.185,4.43-8.064,2.723-12.109,1.191
		c-17.261-6.536-34.901-12.069-51.84-19.459c-10.698-4.687-21.309-9.574-31.845-14.626c3.296,1.947,8.058,1.7,9.14,6.739
		c-6.558,6.528-11.814,14.345-19.545,19.707c-8.093-11.85-14.764-24.651-24.249-35.582c-3.915-4.512-3.851-7.807,3.571-7.717
		c24.919,0.302,46.573-14.513,71.238-15.53c4.36-0.18,3.217-3.277,2.319-5.57c-8.084-20.667-10.074-43.347-20.853-63.116
		c-0.282-7.189,3.699-6.403,8.317-4.457c2.034,1.426,3.547,3.372,5.177,5.198c5.956,6.002,13,10.569,20.038,15.145
		c6.319,4.801,12.686,9.538,19.116,14.191c15.729,11.913,31.943,23.193,47.058,35.906c2.973,2.501,7.06,5.112,5.722,9.486
		c-1.394,4.556-6.365,4.108-10.166,4.148c-13.054,0.135-26.12,0.896-39.536-0.816c25.643,16.317,52.749,28.955,77.453,45.697
		c25.538,17.988,54.452,30.325,80.224,47.924c2.931,2.001,8.062,4.159,9.423,0.738c4.209-10.574,13.959-17.495,17.426-28.287
		c-11.693-15.24-25.042-29.004-39.896-40.9c-8.166-6.54-14.175-15.54-23.766-20.335c-1.635-0.817-2.846-2.66-1.939-4.307
		c2.431-4.416,6.693-5.156,11.313-4.75c10.712,1.489,21.559,1.048,32.249,2.164c5.056-2.725,4.436-6.956,2.93-11.298
		c-1.005-2.899-2.202-5.79-2.131-8.86c0.136-5.874-2.74-14.153,3.811-16.496c6.268-2.243,7.728,6.564,11.437,10.409
		c5.331,5.526,7.09,14.304,15.492,16.992c1.169,0.338,2.106,1.011,2.835,1.974c4.751,4.896,0.921,15.39,11.013,16.825
		c7.355,2.29,7.916,13.505,14.721,13.737c6.063,0.207,8.71-9.076,14.736-11.983c0.388-0.187,0.822-0.368,1.127-0.669
		c4.213-4.14,13.721-0.397,14.576-8.576c0.582-5.566-3.379-10.754-5.505-16.012c-8.37-20.702-17.505-41.096-24.893-62.204
		c-0.368-1.246-0.549-2.512-0.569-3.809c0.265-2.729,1.209-4.992,4.088-5.905c11.988,5.494,21.772,14.284,32.088,22.169
		c6.137,4.691,11.992,6.694,19.272,4.164c9.021,7.012,5.955,14.276-0.169,20.861c-4.242,4.561-8.099,8.769-6.675,19.116
		c8.677-10.521,20.063-13.709,20.57-28.572c0.451-13.232-11.031-8.454-15.332-13.711c-1.376-10.116,5.363-17.377,9.463-25.356
		c4.013-7.812,5.647-15.322,4.109-23.998c-4.579-25.83-8.478-51.775-12.008-77.424c-5.33,14.973-10.626,30.188-17.239,44.848
		c-3.644,8.079-9.138,8.579-11.544,1.106c-7.487-23.253-18.3-45.606-20.315-70.438c9.517-4.002,11.522,2.575,12.131,9.38
		c0.911,10.195,5.576,18.298,12.95,26.952c4.293-11.761,13.106-20.487,12.603-33.67c-0.322-8.438-4.467-12.759-11.268-16.056
		c-7.136-3.46-12.709-1.343-17.536,4.297c-2.291,2.677-4.577,5.395-8.317,6.162c-6.459-2.344-5.313-8.873-7.533-13.566
		c-1.541-9.773-6.362-18.618-8.062-28.357c-0.19-3.814-0.093-7.54,3.276-10.204c12.168,14.348,28.755,22.726,44.004,32.987
		c7.543,5.075,13.993,11.775,21.296,18.047C445.923,118.699,451.329,110.909,456.735,103.119z"/>
	<path style="fill:#010103;" d="M314.135,568c3.958-11.26,13.507-15.334,23.77-18.487c1.573-1.767,3.672-2.018,5.769-1.659
		c10.328,1.765,12.401-4.222,11.958-12.599c-0.127-4.255-0.983-7.679-6.565-5.947c-1.174,0.24-2.216-0.039-3.153-0.744l-0.107-0.202
		c-3.757-4.855-4.284-9.941-1.094-15.293c7.163,2.128,9.593-3.732,10.896-8.09c2.291-7.666-6.52-9.014-9.745-13.69
		c4.195-3.054,8.213-6.621,14.078-4.889c0.865,1.066,1.474,2.261,1.856,3.577c1.614,16.551,4.587,33.026,3.428,49.752
		c-0.759,10.948,2.973,19.732,11.673,26.336c7.375,0.377,7.985-7.06,12.069-10.451c3.276-2.719,4.85-9.021,11.161-5.093
		c4.644,16.679,4.962,33.722,4.422,50.856c-0.248,7.87-3.327,14.498-8.504,20.173c-6.001,6.578-5.175,12.446,1.189,18.157
		c2.281,2.047,4.103,4.678,6.568,6.447c13.566,9.732,23.207,21.404,18.544,42.455c16.573-11.885,23.32-30.379,41.355-35.066
		c4.402,0.133,7.791,3.896,12.367,3.413c7.807-0.186,14.603,2.12,20.219,7.78c4.915,4.954,9.969,5.249,14.47-0.577
		c5.699-7.377,17.091-5.875,22.242-14.808c1.4-2.429,6.255,1.273,9.328,2.827c15.156,7.666,25.391,20.887,37.549,33.411
		c-3.161-17.069,5.939-26.992,18.114-35.44c3.569-2.477,6.165-6.233,9.486-9.07c7.58-6.476,9.4-12.764,1.92-21.036
		c-12.724-14.072-7.449-31.623-7.608-47.9c-0.071-7.291,1.408-14.793,4.158-21.802c6.496-3.795,7.912,2.603,11.032,5.541
		c3.872,3.646,4.236,10.968,11.545,10.934c9.566-9.103,13.352-20.118,12.375-33.248c-0.583-7.827-0.919-15.88,1.191-23.552
		c2.345-8.53-0.076-15.414-5.735-21.629c1.447-7.254,7.416-9.909,13.088-12.865c2.739,3.153-0.21,9.86,5.64,10.634
		c6.292,0.832,12.071-2.156,16.49-6.376c6.056-5.783-0.834-8.876-3.53-12.739c5.444-19.038,4.994-19.619-14.186-18.343
		c3.627-7.613,9.885-15.114,0.987-23.258c2.637-1.57,5.273-3.141,7.91-4.711c9.502-1.409,11.709,5.906,13.596,12.335
		c2.379,8.105,6.723,8.364,12.695,4.56c24.844-15.826,51.214-29.161,75.298-46.224c9.636-5.686,17.788-14.571,30.275-14.148
		c0.997,2.445,3.054,3.1,5.431,3.214c0.842,5.976-4.381,7.547-7.865,8.98c-21.381,8.797-30.592,27.711-39.907,46.646
		c-1.345,2.734-2.094,5.791-4.425,7.974c-8.62,0.483-5.167-8.877-9.961-12.043c-13.837,4.663-23.695,17.271-38.565,20.647
		c-3.483,0.791-5.277,4.913-3.505,8.706c2.277,4.874,5.369,9.313,11.786,8.626c23.175-2.48,44.872-9.299,64.453-22.262
		c22.348,5.909,41.935-4.237,62.233-10.506c5.987-1.849,12.079-6.235,18.639-1.265c0.08,2.303,0.729,4.292,2.979,5.397
		c-0.445,5.767-5.366,6.433-9.303,7.475c-17.226,4.56-33.703,11.442-50.858,16.165c-34.787,7.014-67.209,21.909-101.489,30.652
		c-5.184,1.322-7.165,4.793-4.84,9.953c3.027,6.721,3.121,13.47,0.828,20.42c-1.717,5.204,1.609,7.069,5.881,8.103
		c10.003,2.967,20.568-0.648,30.504,2.662c2.862,1.642,3.861,4.273,0.682,5.833c-10.834,5.317-21.008,15.195-34.522,6.27
		c-1.048-0.692-2.522-0.336-4.211,1.133c-0.495,5.157,6.406,3.033,7.554,6.547c4.428,5.646,2.84,11.112-0.477,16.522
		c-7.484,3.69-13.003-5.581-20.328-3.087c-2.63-0.61-4.743-2.2-6.989-3.573c-11.169-6.83-19.272-5.369-27.278,4.838
		c-12.745,16.249-12.426,53.723-0.21,70.023c6.555,8.747,16.296,7.328,24.798,10.06c2.36,1.873,3.826,4.084,2.773,7.258
		c-3.963,5.48-9.785,5.172-15.549,5.037c-2.183-0.186-4.283-0.782-6.372-1.479c-4.711-1.572-9.779-6.01-13.828,0.765
		c-3.612,6.043-7.236,12.291-3.483,19.709c0.997,1.971,2.562,3.542,3.922,5.261c3.421,4.322,10.567,8.105,7.999,13.908
		c-2.953,6.674-10,2.463-15.323,1.564c-5.974-1.01-7.592,2.789-8.844,7.344c-3.282,11.94-3.53,24.276-4.82,36.474
		c-0.449,4.244,1.38,7.663,4.431,10.509c2.579,2.406,5.656,4.162,8.366,6.373c5.213,4.252,15.855,7.033,13.397,14.028
		c-2.804,7.981-12.329,2.311-18.814,1.522c-6.705-0.816-8.734,2.089-8.733,8.017c0.004,13.655,2.294,27.064,4.525,40.453
		c1.301,7.805,5.35,8.168,10.704,2.95c3.769-3.674,7.709-7.175,11.617-10.699c2.499-2.254,5.102-5.562,9.026-3.543
		c3.021,1.554,3.196,5.086,3.392,8.131c0.564,8.76,0.22,17.545,0.544,26.347c0.013,16.515,0.245,33-0.115,49.477
		c-0.106,4.85,1.29,10.811-5.469,13.086c-11.413-19.929-23.753-39.316-34.167-62.437c-5.407,11.89-2.982,21.622-3.425,30.989
		c-0.271,5.737-1.378,7.783-7.622,6.096c-6.743-1.821-14.14-1.433-20.714-3.623c-10.714-3.57-11.376,1.516-11.403,10.084
		c-0.085,27.182-0.6,28.059-26.307,20.465c-11.806-3.488-17.696-1.122-22.574,9.586c-3.724,8.176-9.173,15.566-14.647,24.617
		c-7.129-11.246-13.815-20.858-19.454-31.049c-3.246-5.866-6.822-6.835-12.776-5.018c-9.596,2.928-19.384,5.227-30.202,8.085
		c-1.168-10.121-2.98-19.875-3.193-29.663c-0.156-7.13-3.056-7.664-8.875-7.051c-9.364,0.986-21.165,7.959-27.177,2.302
		c-4.84-4.553-1.85-17.378-2.443-26.525c-0.164-2.528-0.021-5.785-3.102-6.486c-3.455-0.786-4.174,2.796-5.122,4.941
		c-10.253,23.19-26.212,43.505-34.173,69.092c-21.496-42.359-48.861-81.235-49.27-130.403c-0.033-3.996-2.661-9.569,5.393-8.178
		c4.525-2.851,9.556-1.805,14.444-1.899c3.823,1.17,7.933,2.513,7.874,7.325c-0.056,4.521-4.264,4.871-7.579,5.708
		c-13.985,3.53-6.935,13.433-6.131,21.127c0.367,3.509-0.433,8.763,4.508,9.758c3.729,0.751,5.762-3.328,8.275-5.599
		c3.221-2.911,6.022-6.31,9.756-8.617c3.192-1.972,6.406-3.275,8.566,1.453c2.634,19.74,3.008,39.569,2.926,59.41
		c-0.002,5.62-0.004,11.251-0.003,16.853c0.001,0.845,0.002,1.72-0.001,2.595c-0.002,0.858-0.004,1.296-0.002,1.313
		c0.061-0.225,0.008-0.454,0.025-0.824c-0.506-18.308,1.098-36.509-0.996-54.641c-0.189-7.497-1.001-15.035,1.291-22.37
		c5.228-7.578,9.753-2.306,14.12,1.01c5.818,4.419,9.812,11.052,18.041,15.373c4.539-17.522,7.069-34.146,6.315-51.267
		c-0.224-5.093-3.099-6.884-7.857-6.462c-2.63,0.233-5.221,0.734-7.836,1.043c-4.244,0.502-9.751,2.497-11.806-2.375
		c-1.805-4.28,3.291-7.147,6.438-8.622c21.589-10.124,23.677-27.078,17.443-47.294c-0.644-2.09-1.078-4.29-1.172-6.477
		c-0.429-10.027-4.72-14.594-15.247-11.667c-3.734,1.038-8.227,1.593-10.614-2.617c-1.439-2.537,0.284-5.633,2.29-7.035
		c18.214-12.72,10.616-26.827,2.47-41.032c-1.376-3.122-2.282-6.333-2.013-9.782c4.188-14.336,8.276-28.647,6.748-43.926
		c-1.07-10.701-3.286-20.895-10.672-29.142c-10.163-11.347-22.247-10.376-30.501,2.52c-5.089,7.951-7.198,16.838-7.365,26.308
		c-0.098,5.555,1.161,11.572-3.535,16.194c-8.984-3.022-4.398-11.622-7.115-17.217c-1.217-6.277,0.424-13.502-5.981-18.083
		c1.881-3.298,5.633-5.616,5.288-10.082c-0.598-0.587-0.798-1.174-0.599-1.761C313.735,568.293,313.935,568,314.135,568z"/>
	<path style="fill:#010101;" d="M70.758,394.532c4.189-8.448,8.516-16.761,18.782-19.294c8.878-2.775,14.911,4.612,22.543,6.301
		c14.567,7.04,30.218,11.6,44.47,19.315c5.171,2.799,13.725,4.323,12.782,11.357c-1.079,8.05-10.278,6.791-16.295,7.816
		c-12.504,2.131-25.096,3.797-37.545,6.097c-5.086,0.943-6.211,3.515-3.129,7.812c12.062,11.646,23.296,23.999,33.906,36.919
		c2.198,2.676,5.433,5.542,3.936,9.166c-1.801,4.359-6.537,4.219-10.386,3.681c-12.613-1.763-25.275-3.273-37.754-5.925
		c-17.85-2.824-35.639-6.07-53.6-8.051c12.601,1.382,25.116,3.418,37.576,5.816c15.128,2.754,30.227,5.688,45.172,9.363
		c5.091,1.252,11.388,1.826,12.005,8.345c0.62,6.556-5.815,8.112-10.296,10.504c-6.991,3.731-14.645,6.003-21.846,9.277
		c-3.765,1.712-8.991,1.674-9.992,7.26c-0.095,3.142-2.557,3.997-4.724,5.508c-2.021,1.409,0.918,1.02,1.324,1.745
		c14.746,7.002,28.265,15.911,41.901,24.608c2.511,1.602,5.781,3.555,5.087,6.984c-0.697,3.446-4.5,3.576-7.398,4.312
		c-14.507,3.687-29.515,3.213-44.252,4.668c-15.585,1.539-31.191,4.206-46.991,3.553c-5.591,0.025-11.201,0.342-16.738-0.103
		c-4.32-0.347-9.974,0.667-10.908-6.123c19.933-11.225,30.841-33.447,54.408-42.301c-26.869-17.515-41.516-44.874-69.194-62.207
		c33.345-5.837,53.135-34.139,86.453-36.811C81.45,414.541,73.553,406.051,70.758,394.532z"/>
	<path style="fill:#010103;" d="M977.057,673.665c3.73,1.441,3.522,5.385,6.538,9.662c-30.527,1.319-50.38,29.245-84.645,27.309
		c24.929,23.439,24.883,56.637,45.741,82.851c-26.714-1.474-49.685,5.085-73.081,9.221c-12.117,2.142-24.907-1.148-35.009-8.396
		c-30.958-22.212-61.311-45.266-91.9-67.992c-0.05-5.198,3.856-4.559,7.131-4.859c18.896,9.602,34.557,23.98,52.091,35.625
		c8.69,5.771,17.012,12.18,25.941,19.715c-5.273-13.59-11.721-25.585-16.555-38.248c-1.566-4.102-3.775-8.6,0.434-12.16
		c3.626-3.066,7.594-0.62,11.113,1.017c18.758,8.724,36.004,20.308,54.759,29.047c11.745,8.128,24.664,14.238,36.938,21.449
		c2.829,2.184,5.958,3.904,9.078,5.641c-2.517-2.081-5.792-3.031-8.161-5.346c-12.408-7.333-25.469-13.526-37.394-21.693
		c-19.577-9.19-37.06-21.93-55.676-32.742c-3.337-1.938-7.654-3.863-6.483-8.76c1.089-4.555,5.732-5.136,9.48-5.999
		c13.796-3.176,28.066-1.108,41.95-3.54c1.214-0.213,2.6,0.262,3.481-1.039c1.76-0.092-0.776-1.889,0.001-0.31
		c0.307,0.624-0.049,0.719-0.975,0.865c-4.151,0.656-7.812-0.912-11.441-2.468c-21.332-9.142-43.498-16.412-63.631-28.271
		c-0.974-1.877-1.06-3.788-0.211-5.726c5.539-4.825,10.798-1.141,15.855,0.856c19.355,7.642,38.651,15.423,60.191,22.46
		c-7.738-12.75-17.363-21.739-24.955-32.252c-2.602-3.603-7.864-7.503-4.211-12.442c2.953-3.992,8.165-1.507,12.324-0.563
		c8.942,2.028,17.765,4.561,26.759,6.417c9.419,3.256,19.57,3.656,28.858,7.392c12.367,4.088,24.919,7.419,37.827,9.28
		C959.12,666.682,968.338,668.446,977.057,673.665z"/>
	<path style="fill:#020101;" d="M977.057,673.665c-8.965,1.821-17.849-6.59-26.85-0.213c-9.845-6.498-21.609-7.039-32.455-10.448
		c-9.542-2.882-18.882-6.484-28.833-7.87c-10.548-2.612-21.336-4.382-31.264-9.099c-4.193-1.992-10.201-2.853-9.795-8.868
		c0.334-4.951,5.509-6.434,9.621-7.836c14.088-4.805,28.089-9.877,39.156-13.526c-26.697-3.922-56.562-7.169-85.982-13.529
		c-18.849-3.15-37.489-7.448-56.471-9.855c-7.254-0.92-14.987-1.209-19.432-8.624c-2.277-4.626-6.472-3.211-10.336-3.562
		c-6.572-0.597-13.031-1.983-17.355-7.822c3.06-6.576,8.751-4.581,13.744-3.922c7.407,0.977,14.801,2.421,22.26,2.292
		c6.57-0.114,12.867-2.385,12.707-10.298c-0.161-7.969-5.04-10.919-13.278-10.731c-16.427,0.376-31.76,6.856-48.034,7.682
		c-1.614-0.671-3.174-1.575-4.854-1.954c-2.216-0.501-5.629,1.475-5.64-3.039c-0.007-3.046-0.407-6.223,2.895-8.131
		c2.785-1.609,4.986-2.651,7.963,0.493c7.06,7.454,14.515,7.154,21.086-0.805c3.469-4.201,9.887-0.197,12.806-5.18
		c-6.755-2.631-13.798-0.514-20.662-1.269c-2.712-0.298-6.77,0.847-5.608-4.446c8.714-5.78,18.873-3.534,28.253-4.323
		c27.947-2.35,55.843-6.239,83.993-5.268c4.209,0.145,7.671-1.544,11.402-2.711c24.564-4.178,49.204-7.593,74.232-6.137
		c2.759,0.161,5.175-0.371,7.434-1.869c4.557-3.178,8.869-2.023,13.139,0.682c3.751,2.376,7.691,3.81,12.145,1.982
		c-1.432,2.414-2.25,4.867-0.487,7.488c-7.44,5.972-15.662,9.376-25.426,7.782c-22.744-3.426-45.118,2.293-67.705,2.923
		c-9.979,0.279-19.953,1.619-29.977,1.027c-8.587-3.596-17.76-1.97-24.618-2.361c4.038,0.568,10.182-0.249,16.28,0.139
		c4.704,5.036-0.169,7.452-3.079,9.837c-5.076,4.16-10.24,8.439-15.974,11.512c-8.751,4.691-5.607,8.005-0.367,13.244
		c16.466,16.465,35.498,25.677,59.205,27.168c18.712,1.177,37.351,4.728,55.921,7.904c-10.962-8.068-22.553-15.246-33.272-23.625
		c-3.016-2.358-6.56-5.446-4.898-9.827c1.423-3.75,5.707-3.627,9.146-3.837c6.567-0.401,13.148-0.432,19.621,1.276
		c21.78,2.358,43.672-0.638,65.434,1.66c8.12,2.849,16.58,1.27,24.857,1.989c4.814,0.418,11.07-1.389,12.542,6.138
		c-14.666,7.86-29.047,16.194-40.901,28.081c-5.882,5.898-13.41,7.754-23.898,10.633
		C951.341,628.367,957.567,656.412,977.057,673.665z"/>
	<path style="fill:#010101;" d="M99.442,720.902c-0.129-2.589,4.61-7.104-0.217-7.462c-22.411-1.659-38.65-17.939-59.159-23.912
		c-6.828-1.988-13.696-2.786-20.517-3.092c-2.339-4.814,2.089-5.417,4.145-6.945c15.238-11.328,23.281-28.312,34.333-42.937
		c4.933-6.528,10.756-12.383,16.175-18.544c-6.721-4.613-13.635-8.97-20.121-13.893c-12.881-9.776-24.722-21.109-40.638-26.151
		c4.841-9.289,14.525-4.142,21.46-7.204c27.627,1.182,54.995-3.058,82.524-3.886c3.502-0.105,7.025-0.216,10.511,0.065
		c5.485,0.443,12.903-1.303,14.888,5.315c1.989,6.632-5.227,9.324-9.542,12.618c-10.439,7.968-20.738,16.165-32.123,22.761
		c-2.088,1.82-5.869,2.535-5.407,6.182c0.497,3.919,4.226,3.275,6.986,3.829c14.235,2.867,27.629,8.376,41.294,12.992
		c4.401,1.487,10.068,2.951,9.754,9.012c-0.274,5.294-5.632,6.271-9.638,7.555c-22.062,7.076-44.249,13.759-66.299,20.844
		c-9.039,0.711-17.153,4.876-25.817,7.01c-1.667,0.568,0.542,2.755-0.371,1.249c-0.189-0.312,0.078-0.689,0.865-0.893
		c8.532-2.213,16.275-8.142,25.84-5.517c3.315,5.025-1.811,6.862-3.901,9.571c-5.331,6.909-4.675,11.567,3.875,15.045
		c9.633,3.918,18.041,6.519,24.006-5.872c3.253-6.757,12.739-6.919,17.828-12.418c-5.191-8.101-15.822-4.208-20.577-11.312
		c0.601-3.022,2.96-4.309,5.49-4.97c13.477-3.523,27.087-6.504,40.673-9.565c3.834-0.864,8.144-1.141,10.465,3.041
		c1.998,3.6-0.321,6.775-2.339,9.568c-8.919,12.346-17.68,24.83-28.542,35.603c-8.193,4.649-1.236,12.31-3.561,18.146
		C115.614,725.037,108.312,727.207,99.442,720.902z"/>
	<path style="fill:#010101;" d="M99.442,720.902c8.19,0.345,16.873,2.196,21.882-7.168c4.587-5.551,11.02-3.516,16.807-4.119
		c12.269-0.823,24.172,2.752,36.361,3.117c4,0.12,8.364,1.026,9.774,5.227c1.889,5.624-3.538,7.296-6.831,9.604
		c-15.333,10.744-31.87,19.554-47.785,29.337c-8.091,4.319-15.91,9.174-24.179,13.199c8.776-4.265,17.308-8.978,25.671-14.005
		c15.219-9.394,31.457-16.842,47.476-24.692c3.683-1.805,8.253-5.227,11.895-1.03c3.25,3.745,0.743,8.38-1.203,12.269
		c-5.075,10.143-9.088,20.746-13.55,31.148c-1.523,3.549-5.509,7.568-0.644,11.717c1.369,1.129,2.641,2.295,1.67,4.307
		c-15.55,14.718-34.705,16.435-54.035,12.565c-19.294-3.863-38.272-8.847-61.215-6.77c16.752-19.621,19.456-42.983,29.913-62.977
		C93.637,728.444,95.198,723.73,99.442,720.902z"/>
	<path style="fill:#060403;" d="M707.669,573.277c8.339-0.271,15.587,7.215,24.702,3.053c2.538-1.159,4.074,2.312,4.376,5.086
		c-3.384,6.314-9.369,6.089-14.981,5.216c-6.474-1.007-13.472-1.064-19.306-3.276c-11.815-4.48-11.467,1.583-10.424,9.662
		c0.225,1.743,0.415-0.378,0.098,1.295c-4.444,23.502,8.534,33.254,28.843,39.447c22.181,6.763,42.771,18.162,65.3,24.256
		c4.315,2.695,10.547,3.227,11.325,9.94c-0.044,1.749-0.087,3.498-0.131,5.248c-11.097-0.823-22.286,2.329-33.327-0.767
		c-2.049-2.844,1.765-6.827-4.829-9.763c-12.23-5.445-25.916-4.798-37.669-11.387c-5.281-2.96-11.437-4.391-16.282-8.409
		c-3.605-2.989-7.615-4.62-12.093-1.881c-4.677,2.861-6.505,7.613-5.504,12.526c2.252,11.046,7.627,21.024,17.355,26.691
		c7.023,4.091,13.008,8.595,18.15,14.768c9.235,11.087,12.035,11.174,23.054,1.923c6.974,7.836,11.636,16.2,6.255,26.893
		c-2.841,0.171-5.946-0.483-7.883,2.519c-17.692-12.67-35.384-25.34-54.728-39.193c-1.088,12.063,7.014,22.555-1.592,32.553
		c-1.834,2.131,8.341-0.967,8.226,4.462c-0.42,19.875,9.901,40.377-3.211,59.537c-1.191,1.741-3.32,4.527-0.314,5.018
		c10.848,1.771,5.542,9.242,5.074,14.204c-3.131,33.22-11.996,64.355-31.67,92.179c-6.936,9.81-10.426,22.058-15.584,33.4
		c-3.863-3.922-4.308-9.524-5.903-14.623c4.236-16.306,0.791-32.905,1.864-49.334c0.369-5.655,0.445-11.33,0.655-16.996
		c1.765-0.232,3.02,0.46,3.77,2.072c1.889,10.884,0.448,21.864,0.906,32.79c0.357,9.84-0.507,19.547-1.798,26.655
		c3.173-13.157,1.419-29.142,1.815-44.977c0.899-10.483-1.816-20.923-0.449-31.397c0.345-2.152,0.984-4.258,1.784-6.304
		c3.944-10.088,6.732-10.802,15.168-4.721c4.364,3.146,7.421,11.524,13.111,8.559c5.389-2.808,3.421-11.105,4.198-17.103
		c0.907-7.002,2.061-13.966-9.159-11.436c-3.706,0.836-8.817,2.538-10.76-1.745c-2.174-4.794,2.426-8.507,5.935-10.411
		c17.714-9.612,17.958-25.41,15.871-42.23c-0.889-7.166-2.608-13.228-12.259-10.534c-3.401,0.949-7.733,0.865-9.599-2.476
		c-2.368-4.238,1.04-7.963,4.079-10.067c13.743-9.513,12.198-21.454,7.275-34.981c-3.725-10.238-8.575-20.268-9.357-31.43
		c-0.956-1.981-1.912-3.962-2.868-5.942c-0.031-0.436-0.255-1.001-0.064-1.291c16.284-24.643,19.664-50.775,9.238-78.569
		c-0.446-1.188,0.325-2.549,0.94-3.72c8.244-5.488,13.535,0.405,19.17,4.973C698.875,570.002,703.279,569.254,707.669,573.277z"/>
	<path style="fill:#010101;" d="M269.195,119.586c23.299,11.035,46.598,22.07,71.072,33.662
		c5.646-25.697,19.18-48.662,26.305-74.026c7.455-2.905,6.661,2.53,6.951,6.864c1.4,10.988,5.727,21.232,8.21,31.938
		c7.12,25.765,13.757,51.662,19.055,77.879c0.905,4.475,4.04,10.387-1.144,13.264c-4.938,2.741-8.434-2.919-12.362-5.485
		c-11.946-7.804-19.88-20.866-33.924-25.776c-1.459,1.546-2.892,3.133-5.246,3.043c-4.353,6.602-3.828,14.166-4.119,21.527
		c-0.309,7.848,0.589,15.803-1.784,23.455c-1.098,3.541-1.123,8.609-5.958,8.995c-3.764,0.3-5.786-3.613-7.564-6.541
		c-12.027-19.808-24.213-39.524-35.61-59.706c-2.365-4.187-4.688-8.391-7.286-12.435c-4.216-8.847-9.235-17.219-15.09-25.083
		C269.582,127.395,262.064,124.424,269.195,119.586z"/>
	<path style="fill:#020202;" d="M269.195,119.586c-3.574,4.453,3.841,5.963,2.622,9.785c5.397,8.685,10.047,17.78,14.743,26.854
		c13.031,23.462,24.73,47.604,36.706,71.601c1.897,3.801,5.165,8.412,1.508,12.203c-4.525,4.691-9.067,0.095-12.927-2.211
		c-8.665-5.177-17.907-9.442-25.831-15.821c-0.954-0.882-1.68-2.08-2.736-2.789c-4.595-3.084-9.169-8.208-15.14-4.861
		c-6.26,3.51-1.677,9.437-1.372,14.297c0.245,3.9,0.603,7.863,2.716,11.37c3.962,8.139,3.197,17.208,5.036,25.773
		c0.908,4.227,1.326,9.716-3.437,11.696c-3.982,1.655-7.552-2.055-9.921-5.135c-15.308-19.903-35.816-35.12-50.169-55.842
		c-7.609-6.167-11.726-16.658-22.811-18.45c-4.615,13.803,4.456,7.992,10.077,7.101c5.782,1.889,7.832,7.797,12.167,11.263
		c2.288,2.852,3.147,5.874,1.135,9.246c-2.886,3.061-7.143,3.621-9.345,0.859c-6.2-7.777-16.081-7.904-23.614-12.684
		c2.164-13.153-1.855-25.694-5.394-41.058c26.941,17.044,57.968,10.425,85.126,27.426c-3.495-27.259,8.111-50.395,5.549-74.967
		C263.484,121.397,263.677,117.948,269.195,119.586z"/>
	<path style="fill:#010101;" d="M178.603,213.84c8.495,0.9,18.393-2.625,23.136,9.068c1.629,4.017,6.489,3.427,10.314,1.418
		c5.771-0.216,8.369,4.325,11.334,7.939c11.681,14.242,23.162,28.649,34.163,43.426c2.501,3.36,7.029,6.855,3.688,11.404
		c-2.673,3.64-7.419,1.642-11.091,0.689c-10.61-2.755-20.893-6.666-31.562-9.236c-3.642-0.877-7.409-3.595-10.928,0.315
		c-1.067,1.377-2.329,2.544-3.677,3.603c-3.886,4.415-0.279,8.289,1.143,12.077c3.215,8.567,6.876,16.97,10.053,25.554
		c1.763,4.763,5.897,10.555,1.212,14.544c-4.917,4.187-9.563-1.262-13.707-4.113c-15.779-10.856-31.699-21.509-47.317-32.596
		c-6.312-4.719-12.581-9.497-19.007-14.063c-7.949-4.242-14.124-11.341-22.917-14.223c-0.885-1.75-1.769-3.499-2.654-5.249
		c-0.318-5.471,3.243-3.719,6.101-3.277c20.783,0.099,41.488-6.116,62.411-0.037c5.894,1.713,4.3-2.67,3.113-6.341
		C178.106,241.428,174.837,227.939,178.603,213.84z"/>
	<path style="fill:#100B09;" d="M176.785,789.812c-1.193-1.024-2.385-2.048-3.578-3.073c0.202-6.256,5.261-8.654,9.444-11.59
		c17.829-12.517,34.816-26.167,52.508-38.857c5.403-3.875,9.13-9.256,13.967-13.594c21.638-14.102,41.338-30.922,63.028-44.974
		c6.706-4.344,8.854-11.764,10.128-19.229c1.399-8.195-2.707-14.997-8.18-19.769c-5.307-4.628-11.868-0.689-17.045,2.345
		c-7.56,4.431-14.87,9.379-23.156,12.263c-5.955,2.073-12.781,5.02-16.371-3.951c15.949-12.768,34.687-19.426,54.049-24.71
		c4.169,0.677,8.002-0.918,11.945-1.865c6.368,4.94,6.401,13.713,12.306,19.301c10.675,10.1,15.213,11.211,28.158,3.825
		c1.789-1.021,3.473-2.724,5.725-0.938c0.785,2.659,1.569,5.318,2.354,7.977c-5.145,8.107-13.615,9.809-22.096,11.506
		c-7.792-1.449-12.375,1.882-14.826,9.296c-1.922,5.814-3.854,11.638-5.944,17.392c-4.612,12.698-4.93,24.03,8.433,31.931
		c1.473,0.871,2.603,2.352,3.634,3.766c2.058,2.822,4.626,5.744,2.271,9.437c-2.019,3.166-5.345,2.134-8.376,1.792
		c-14.853-1.677-14.946-1.661-14.943,13.454c0.003,13.179-1.919,26.744,6.827,38.385c-4.462,1.358-8.892,1.026-13.304-0.25
		c-12.448-19.793-6.62-41.179-2.14-60.879c2.855-12.556-2.025-25.372,6.286-36.749c-0.987-0.472-1.974-0.944-2.96-1.416
		C268.882,723.695,222.833,756.753,176.785,789.812z"/>
	<path style="fill:#010101;" d="M908.055,528.259c9.084,2.459,15.486-7.458,24.503-5.308c10.501,2.455,19.202,8.149,26.93,15.38
		c10.453,9.78,20.715,19.765,31.059,29.663c-6.409,4.779-13.809,1.737-20.706,2.625c-11.425-0.578-22.646-3.889-34.215-2.63
		c-23.607-0.63-47.142-2.458-70.662-4.491c-3.429-0.296-7.328-0.346-9.113-3.997c-1.406-2.876,0.733-5.289,2.837-6.635
		c14.334-9.174,27.944-19.662,44.385-25.115C904.803,527.176,906.485,527.199,908.055,528.259z"/>
	<path style="fill:#555555;" d="M34.394,573.141c-6.233,4.871-14.669,0.176-20.953,4.825c-3.893-1.041-7.785-2.082-13.441-3.595
		c7.041-3.419,12.714-6.174,18.387-8.929c9.209,6.722,19.806-0.741,29.319,2.866C45.382,575.739,38.015,569.282,34.394,573.141z"/>
	<path style="fill:#808080;" d="M969.183,567.949c7.121,0.015,14.242,0.029,21.363,0.044c2.421-0.029,5.154-0.495,5.175,3.237
		c0.021,3.669-1.922,5.139-5.476,4.668c-7.248-5.602-15.694-1.32-23.465-2.801c-4.63-0.882-9.587,0.386-14.046-1.946
		C957.199,564.851,964.336,572.278,969.183,567.949z"/>
	<path style="fill:#282828;" d="M372.109,87.065c-0.146-3.814-0.112-7.756-5.537-7.843c0-3.841,0-7.682,0-12.48
		c5.442,1.366,6.247,5.866,8.555,8.846c-0.007,3.694-0.013,7.388-0.02,11.082C374.358,88.699,373.359,88.83,372.109,87.065z"/>
	<path style="fill:#303030;" d="M116.887,261.121c-2.169,0.84-4.91,0.613-6.101,3.276c-3.517-1.724-6.451-1.663-8.002,2.62
		c-3.153-2.53-4.435-6.041-5.615-11.178C103.681,260.272,111.159,256.426,116.887,261.121z"/>
	<path style="fill:#FDFDFD;" d="M460.127,241.377c-4.52-31.581-9.04-63.162-14.153-98.882
		c17.493,19.019,32.573,35.415,48.722,52.974c3.234-9.543,2.554-17.9,1.839-26.26c0.863-15.824,1.727-31.648,2.59-47.473
		c2.718-4.085,0.177-8.896,1.813-13.133c1.084-0.926,2.202-1.014,3.359-0.138c1.573,28.505,3.146,57.009,4.895,88.718
		c16.317-18.743,30.953-35.555,47.375-54.418c-3.699,29.232-6.995,55.272-10.29,81.312c-2.08,5.822-0.914,11.77-0.675,17.68
		c-9.187,14.752-22.604,25.501-35.318,36.867c-3.32,2.968-8.577,5.189-12.153,1.845C484.858,268.058,467.01,259.992,460.127,241.377
		z"/>
	<path style="fill:#FDFDFD;" d="M604.271,272.02c-7.984,5.21-16.268,10.023-23.856,15.756c-6.123,4.627-9.142,5.596-12.834-3.001
		c-4.549-10.592-8.237-21.843-15.746-31.015c-6.011-3.445-6.664-7.858-2.38-13.164c4.723-31.106,9.446-62.212,14.779-97.339
		c9.099,22.798,17,42.593,25.883,64.85c8.207-26.275,15.51-49.653,22.812-73.031c6.25,0.986,2.811,5.186,2.743,8.268
		c-4.602,21.761-9.204,43.522-14.538,68.742c14.349-12.632,26.318-23.169,38.287-33.706c0.425-1.754,1.444-3.199,2.62-4.478
		c2.65-2.883,5.693-6.675,9.797-4.123c3.586,2.23,1.588,6.501,0.279,9.615c-10.682,25.41-19.732,51.469-30.526,76.826
		C618.314,263.913,614.255,271.382,604.271,272.02z"/>
	<path style="fill:#FDFDFD;" d="M721.486,238.197c4.642-6.164,9.284-12.329,13.927-18.493c0.768,0.085,1.536,0.17,2.304,0.255
		c-2.851,19.218-5.702,38.436-9.028,60.86c18.009-19.201,34.117-36.375,50.224-53.549c2.625-0.4,3.902,0.473,3.113,3.296
		c-14.273,18.451-28.547,36.903-44.626,57.689c21.635-6.16,40.347-11.488,59.059-16.816c0.622,0.828,1.244,1.657,1.866,2.485
		c-10.103,9.722-20.205,19.444-30.308,29.165c-16.218,18.191-29.475,40.312-57.262,43.206c-10.439,1.233-20.752,3.368-31.268,3.964
		c-13.226,0.749-15.36-1.747-12.632-15.109c0.527-2.581,1.284-5.094,2.476-7.444c4.934-30.766,25.07-53.473,41.508-78.14
		C713.746,245.203,716.307,240.459,721.486,238.197z"/>
	<path style="fill:#FDFDFD;" d="M907.761,512.798c-1.481,6.43-6.95,4.151-10.767,4.516c-23.902,2.289-47.836,4.236-71.76,6.296
		c-14.2,4.316-26.418-1.363-38.632-7.488c-27.335-13.71-27.424-13.704-8.007-37.502c4.677-5.733,9.218-11.682,15.409-15.996
		c20.636-7.085,41.271-14.17,61.907-21.255c11.657-3.148,23.315-6.296,38.158-10.305C878.001,448.451,864,463.6,848.342,480.542
		c16.44,0.58,29.966-4.142,43.84-5.259c4.834-0.361,10.445-4.264,13.609,2.985c-17.35,3.861-34.7,7.722-52.05,11.583
		c-0.357,0.793-0.715,1.586-1.072,2.379C871.033,499.086,889.397,505.942,907.761,512.798z"/>
	<path style="fill:#FDFDFD;" d="M681.561,206.294c1.616-1.813,3.232-3.627,4.847-5.44c1.307-1.802,3.024-3.615,5.205-2.208
		c2.033,1.312,1.358,3.775,0.687,5.853c-5.383,11.499-10.767,22.999-17.691,37.79c19.316-10.691,36.066-19.961,56.312-31.166
		c-5.498,9.405-9.065,15.508-12.633,21.611c-12.284,24.807-26.818,48.092-46.106,68.191c-10.346,3.755-20.079,8.908-30.217,13.103
		c-10.299,4.261-14.614,1.947-16.826-9.023c-2.342-11.614-3.793-23.408-7.185-34.801c2.605-16.087,10.962-30.147,16.218-45.319
		c4.723-13.633,10.894-26.729,16.194-40.158c1.712-4.337,3.209-9.183,10.621-10.783c-0.386,16.864,4.365,32.661,5.612,50.644
		C671.951,217.953,675.145,210.643,681.561,206.294z"/>
	<path style="fill:#FDFDFD;" d="M852.931,435.974c-12.957,3.904-26.578,6.392-38.702,12.075c-14.763,6.92-28.69,4.829-43.177,1.198
		c-8.659,1.969-16.322-0.23-23.24-5.551c4.741-19.179,13.438-36.181,29.062-48.661c7.083-5.658,15.41-9.757,23.173-14.564
		c18.082-10.097,36.163-20.194,54.245-30.291c0.61,0.379,1.22,0.759,1.83,1.138c-10.495,16.63-20.989,33.261-31.717,50.261
		c5.308,1.784,8.546-2.833,12.792-2.552c3.383-1.233,7.175-3.628,7.867,2.772c-4.85,2.845-9.7,5.691-17.414,10.217
		c21.653,3.333,40.814,6.282,63.36,9.752C876.235,427.28,864.583,431.627,852.931,435.974z"/>
	<path style="fill:#FDFDFD;" d="M794.618,377.256c-9.848,5.641-19.696,11.282-29.544,16.924
		c-13.092,1.749-26.216,0.254-39.323,0.335c-9.205,0.057-12.862-4.18-9.462-13.39c3.645-9.872,6.061-20.14,9.395-30.101
		c13.641-19.009,30.59-34.546,50.173-47.287c8.395-7.241,16.791-14.482,25.186-21.722c0.907,0.649,1.814,1.298,2.721,1.947
		c-6.311,16.877-12.621,33.754-20.049,53.618c14.874-9.964,27.067-18.133,39.261-26.301c3.092-0.703,4.347,0.512,3.783,3.625
		c-11.488,9.281-22.977,18.562-37.523,30.313c22.254-1.72,41.008-3.17,59.761-4.619c0.343,0.649,0.687,1.298,1.031,1.947
		C831.558,354.115,813.088,365.685,794.618,377.256z"/>
	<path style="fill:#010103;" d="M681.561,206.294c-5.203,9.172-10.405,18.345-17.355,30.598c-1.648-22.118-3.07-41.216-4.493-60.313
		c-0.722-0.219-1.444-0.439-2.166-0.658c-8.918,22.04-18.246,43.927-26.563,66.192c-3.61,9.665-10.192,18.21-11.074,28.898
		c-7.908,24.378-18.321,47.778-27.96,71.479c-0.99,2.433-2.561,4.53-4.813,6.043c-7.706,3.207-13.228,2.96-12.12-7.7
		c1.274-1.278,2.518-1.249,3.733,0.081c5.403,2.875,6.096-1.929,6.769-4.815c3.984-17.101,10.423-33.138,18.662-48.645
		c2.301-4.332,6.452-10.309,0.089-15.432c8.777-4.944,13.043-12.918,16.489-22.132c9.755-26.087,20.228-51.905,30.727-78.615
		c-5.917,0.239-7.772,5.827-12.067,7.108c-2.154-10.78,6.345-15.003,13.338-16.106c9.104-1.436,9.652,8.951,9.384,14.225
		c-0.476,9.351,2.99,17.76,3.945,26.665C667.328,214.754,676.237,205.243,681.561,206.294z"/>
	<path style="fill:#141815;" d="M671.245,300.586c15.681-22.618,31.362-45.235,47.043-67.853c0.279,2.282,0.779,4.433,3.197,5.463
		c-6.637,10.221-13.002,20.63-19.969,30.621c-12.539,17.981-26.109,35.385-28.24,58.371c-3.076-2.993-2.411-6.195-0.615-9.501
		c-10.142,17.26-22.76,32.832-34.185,49.224c-4.41,6.327-5.88,10.266,2.842,13.266c4.138,1.423,7.607,4.212,10.104,7.992
		c1.729,3.509,4.339,7.788,0.308,10.493c-3.291,2.209-6.519-1.319-8.608-4.013c-2.698-3.481-6.836-5.327-9.355-8.91
		c-4.544-3.454-12.168-2.957-13.506-10.526c-0.696-1.143-0.725-2.304-0.103-3.485c15.854-17.104,27.117-37.475,40.042-56.655
		C663.618,310.001,666.206,304.391,671.245,300.586z"/>
	<path style="fill:#161412;" d="M775.857,303.737c-16.229,15.806-32.459,31.612-48.689,47.418
		c-8.747,10.971-20.121,19.269-29.841,29.256c-2.724,2.798-5.958,5.307-10.434,3.62c-0.97-0.825-1.58-1.866-1.842-3.113
		c2.17-11.104,13.594-15.36,18.223-24.65c2.997-4.402,7.732-7.528,9.434-12.884c19.895-1.496,29.011-18.548,42.409-29.41
		c4.369-3.542,8.603-7.251,12.899-10.883C770.292,307.399,773.289,302.973,775.857,303.737z"/>
	<path style="fill:#171E13;" d="M549.454,240.596c0.793,4.388,1.587,8.776,2.38,13.164c-2.987,15.775-7.436,31.306-7.919,47.498
		c2.23,2.644,2.237,5.282-0.019,7.916c-3.716,3.369-3.716,3.369-7.571-5.137c-1.413-1.101-2.839-2.542-2.723-4.247
		c1.282-18.905,0.372-38.198,9.401-55.799c1.092-6.638,2.183-13.276,3.275-19.914C548.375,229.384,544.153,235.905,549.454,240.596z
		"/>
	<path style="fill:#B7B7B7;" d="M905.791,478.268c-3.658-4.997-9.398-0.506-13.609-2.985c19.411-3.48,38.823-6.96,58.234-10.44
		C943.696,471.828,922.833,476.988,905.791,478.268z"/>
	<path style="fill:#E1E1E1;" d="M845.065,401.798c-1.744-3.417-5.132-2.17-7.867-2.772c14.846-6.23,29.692-12.46,44.538-18.69
		c2.907-1.237,5.733-2.311,5.507,2.742C873.291,389.56,860.102,397.759,845.065,401.798z"/>
	<path style="fill:#DFDFDF;" d="M692.301,204.499c-0.305-3.896-1.891-5.723-5.892-3.645c8.028-14.039,16.057-28.077,24.085-42.116
		c2.504-0.176,4.034,0.537,3.152,3.453C706.531,176.293,699.416,190.396,692.301,204.499z"/>
	<path style="fill:#DBDBDB;" d="M826.76,314.903c-1.261-1.208-2.522-2.416-3.783-3.625c13.421-9.565,26.841-19.13,40.262-28.695
		c2.876-1.112,3.343,0.295,2.84,2.716C853.154,295.409,840.874,306.375,826.76,314.903z"/>
	<path style="fill:#898989;" d="M501.698,108.481c-1.303,4.332,0.762,9.317-2.572,13.255c-0.801-19.645-0.437-39.231,2.649-58.774
		c2.775,5.476,3.148,11.058,2.104,16.788C501.055,89.169,504.983,99.099,501.698,108.481z"/>
	<path style="fill:#B2B2B2;" d="M887.243,383.078c-0.905-2.782-3.539-2.093-5.507-2.742c12.456-6.847,25.791-11.557,39.183-16.132
		c1.769-0.855,3.325-0.567,4.669,0.866C913.199,371.908,900.812,378.751,887.243,383.078z"/>
	<path style="fill:#B6B6B6;" d="M615.671,143.344c-1.588-2.533,0.378-6.244-2.743-8.268c2.392-9.008,4.784-18.016,7.176-27.024
		c2.676-0.457,4.01,0.458,3.415,3.343C621.533,122.2,620.015,133.119,615.671,143.344z"/>
	<path style="fill:#CBCBCB;" d="M782.026,230.566c-1.038-1.099-2.075-2.197-3.113-3.296c4.262-7.045,10.054-12.772,15.894-18.457
		c2.471-0.57,3.611,0.16,2.765,2.831C793.076,218.515,788.249,225.114,782.026,230.566z"/>
	<path style="fill:#AEAEAE;" d="M713.646,162.191c-1.051-1.151-2.101-2.302-3.152-3.453c3.396-8.823,8.692-16.412,15.071-23.394
		C723.412,145.177,719.4,154.074,713.646,162.191z"/>
	<path style="fill:#929292;" d="M925.588,365.07c-1.556-0.289-3.113-0.577-4.669-0.866c8.913-4.889,18.259-8.618,28.252-10.706
		C942.116,359.097,934.355,363.124,925.588,365.07z"/>
	<path style="fill:#626262;" d="M807.963,194.076c2.933-6.948,8.897-11.099,14.845-15.393c-3.061,7.851-7.442,14.769-14.267,20.017
		C806.974,197.33,806.782,195.789,807.963,194.076z"/>
	<path style="fill:#A6A6A6;" d="M866.079,285.3c-0.947-0.905-1.893-1.811-2.84-2.716c6.219-4.364,12.437-8.728,18.656-13.093
		c2.76-1.287,3.039,0.085,2.5,2.334C878.289,276.316,872.184,280.808,866.079,285.3z"/>
	<path style="fill:#717171;" d="M623.519,111.395c-1.138-1.114-2.277-2.229-3.415-3.343c-0.133-7.339,5.119-12.61,6.998-19.239
		C628.248,96.836,626.952,104.302,623.519,111.395z"/>
	<path style="fill:#AAAAAA;" d="M807.963,194.076c0.193,1.541,0.385,3.082,0.578,4.623c-3.656,4.315-7.313,8.629-10.969,12.944
		c-0.922-0.944-1.843-1.887-2.765-2.831C799.192,203.9,803.577,198.988,807.963,194.076z"/>
	<path style="fill:#E1E1E1;" d="M501.698,108.481c0.03-9.63-1.64-19.388,2.181-28.73c0.14,9.571,0.28,19.143,0.42,28.714l-1.3,0.021
		L501.698,108.481z"/>
	<path style="fill:#767676;" d="M884.395,271.825c-0.833-0.778-1.667-1.556-2.5-2.334c3.98-4.019,8.592-7.061,15.605-7.297
		C893.131,265.404,888.763,268.615,884.395,271.825z"/>
	<path style="fill:#E13A3E;" d="M636.356,488.391c6.864-0.206,10.258,2.372,9.778,9.979c-1.098,17.387-1.065,34.857-2.536,52.205
		c-0.815,9.605-10.211,14.519-15.107,21.988c-6.658-11.092-3.471-23.046-2.41-34.581c0.642-6.98,0.999-13.962,1.592-20.932
		c0.821-9.649-3.723-12.528-12.426-11.445c-2.605,0.324-5.252,0.218-7.868,0.605c-21.103,3.12-23.479,1.952-28.798-18.149
		c-8.123-30.697-9.691-23.3-29.619-13.686c-18.835,9.087-19.992,8.95-34.038-7.798c-2.256-2.69-4.907-5.044-7.099-7.78
		c-4.018-5.017-7.852-4.974-11.655,0.114c-3.684,4.928-7.938,9.389-11.746,14.192c-6.583,8.303-14.15,9.405-23.235,4.62
		c-5.434-2.863-11.103-5.304-16.47-8.277c-7.233-4.007-11.368-1.698-14.062,5.62c-2.127,5.78-3.798,11.68-5.63,17.543
		c-4.099,13.122-8.941,16.324-22.149,14.998c-24.46-2.455-24.5-2.455-24.435,22.132c0.024,9.197-0.33,18.391,1.684,27.524
		c1.126,5.108,1.607,10.548-3.005,14.7c-13.83-10.414-17.663-24.223-16.396-41.187c1.036-13.866-0.922-27.956-1.552-41.947
		c13.14-6.445,26.3-6.292,39.478-0.117c5.217,1.066,8.841,0.934,10.476-5.958c2.817-11.874,8.003-23.218,10.417-35.145
		c1.952-9.645,6.216-8.815,12.792-5.654c9.453,4.544,19.318,8.35,28.365,13.581c7.167,4.144,10.849,1.775,15.108-4.001
		c5.95-8.07,12.966-15.351,18.993-23.37c5.164-6.872,9.319-6.043,14.307,0.067c6.65,8.145,14.017,15.717,20.479,24
		c4.47,5.729,8.359,7.578,15.239,3.328c8.519-5.263,18.099-8.788,26.737-13.884c7.943-4.685,11.634-2.544,13.964,5.823
		c3.04,10.922,7.242,21.535,9.996,32.518c2.108,8.41,6.776,10.486,14.422,8.532c7.889-5.054,15.813-5.029,23.769-0.161
		C634.596,488.391,635.476,488.391,636.356,488.391z"/>
	<path style="fill:#FDFDFD;" d="M351.156,174.399c-1.471-7.663,2.664-3.615,4.618-1.959c12.994,11.017,25.824,22.225,38.711,33.368
		c1.206,1.043,2.431,2.064,6.834,5.798c-7.803-33.263-14.707-62.691-21.61-92.118c-0.609-2.735-2.195-5.986,2.989-5.665
		c1.75,4.478,3.5,8.957,5.251,13.435c0.641,0.423,0.921,0.914,0.838,1.472c-0.087,0.593-0.219,0.889-0.395,0.889
		c7.626,25.388,15.253,50.776,23.707,78.922c8.837-22.823,16.46-42.51,25.281-65.292c5.511,34.602,10.205,65.717,15.59,96.712
		c1.331,7.662-3.667,12.151-6.098,17.949c-3.509,8.37-7.392,16.583-11.115,24.863c1.373,1.584,1.013,2.334-1.082,2.25
		c-2.744,2.631-4.077,8.76-9.803,4.15c-12.899-10.383-28.416-17.34-39.451-30.158c-7.535-7.378-9.909-17.509-13.525-26.771
		C364.449,213.17,354.835,194.83,351.156,174.399z"/>
	<path style="fill:#FDFDFD;" d="M103.261,475.278c15.149,2.024,30.298,4.048,49.048,6.553
		c-16.247-17.766-30.31-33.146-44.374-48.525c0.031-5.438,4.25-3.756,6.534-3.129c31.101,8.535,61.914,17.989,91.918,29.923
		c9.055,9.999,16.579,21.284,25.969,31.033c3.918,4.068,6.808,9.903,1.168,13.558c-13.407,8.687-26.441,18.449-42.438,22.23
		c-2.432,0.575-5.212,0.464-7.709-0.634c-7.194-0.328-14.388-0.655-21.583-0.983c-15.122-1.571-30.326,1.579-45.455-0.892
		c-5.508-0.9-11.53,0.595-16.17-3.872c-2.42-0.649-4.841-1.297-10.097-2.705c17.11-6.908,31.802-12.648,46.281-18.884
		c2.285-0.984,6.711-1.007,6.178-5.465c-0.5-4.184-4.266-3.694-7.063-4.328c-16.165-3.666-32.348-7.253-48.524-10.867
		C91.069,470.167,97.693,475.581,103.261,475.278z"/>
	<path style="fill:#FDFDFD;" d="M205.705,277.78c-4.108-5.246-2.373-6.72,3.444-5.106c15.229,4.227,30.424,8.575,45.629,12.888
		c1.967,0.558,3.846,2.164,7.161-0.372c-16.691-20.364-33.288-40.614-49.885-60.864c-1.32-2.337-2.641-4.673-3.961-7.01
		c-0.807-2.786,0.474-3.599,3.031-3.207c19.683,20.801,39.366,41.603,60.644,64.09c-0.34-14.303-2.263-26.042-5.05-37.683
		c-2.919-4.426-0.768-9.411-1.516-14.093c-0.502-3.145-5.039-7.099-0.739-9.279c4.788-2.427,7.76,2.508,10.273,5.938
		c16.085,21.956,31.07,44.665,45.899,67.478c0.956,1.471,2.655,2.994,2.547,4.535c-1.25,17.814,3.914,35.552,0.581,53.37
		c-11.862-3.997-24.712-0.574-36.536-4.858c-9.951,0.487-18.285-3.302-25.165-10.157c-16.326-16.264-34.147-30.916-50.511-47.135
		C209.044,283.831,207.002,281.072,205.705,277.78z"/>
	<path style="fill:#FDFDFD;" d="M34.394,573.141c3.54-4.082,9.524-1.435,13.312-4.833c31.38-2.624,62.759-5.248,94.139-7.872
		c0.353-0.798,0.707-1.597,1.06-2.395c-16.893-9.878-33.786-19.757-50.679-29.635c-0.27-2.859,1.413-3.694,3.883-3.901
		c16.544-1.389,32.959-1.248,48.975,3.924c3.009,0.476,6.029,1.422,9.025,1.354c21.721-0.494,42.312,2.671,59.557,17.405
		c1.278,0.353,2.224,1.117,2.838,2.291c15.32,11.842,15.168,11.663-0.607,25.07c-7.255,6.167-13.782,13.191-20.639,19.826
		c-2.109,3.006-4.945,5.059-8.579,5.507c-25.527,3.143-50.665,8.926-76.297,11.281c-4.523,0.416-9.817,2.092-12.86-3.541
		c13.37-13.478,31.028-21.586,44.695-34.481C105.946,573.141,70.17,573.141,34.394,573.141z"/>
	<path style="fill:#FDFDFD;" d="M287.627,219.659c11.926,7.025,23.852,14.05,35.779,21.075c0.707-0.54,1.413-1.081,2.12-1.621
		c-13.643-27.515-27.286-55.03-40.929-82.545c-1.057-2.94,0.406-3.507,2.912-3.093c16.182,26.762,32.364,53.523,50.46,83.449
		c1.918-23.457,3.527-43.122,5.165-63.152c4.047,1.367,1.481,5.732,4.916,6.22c9.332,8.32,10.913,20.571,15.141,31.278
		c6.981,17.682,16.514,34.531,19.234,53.753c-0.243,0.887-0.144,1.733,0.297,2.54c0.492,13.278-3.095,25.968-5.76,38.768
		c-1.709,8.206-6.531,10.772-14.44,6.966c-10.257-4.935-20.694-9.461-31.849-12.047c-4.689-1.287-6.849-5.43-9.179-8.949
		c-14.453-21.832-29.181-43.469-44.448-64.739c-1.532-2.134-3.003-4.312-4.219-6.639c-1.215-2.325-2.592-4.841-0.18-7.127
		c2.006-1.901,4.079-0.369,5.991,0.552C281.778,215.864,285.04,217.196,287.627,219.659z"/>
	<path style="fill:#FDFDFD;" d="M111.816,423.143c19.16-3.147,38.319-6.293,57.479-9.44c0.22-0.933,0.44-1.865,0.66-2.798
		c-19.725-9.266-39.451-18.532-59.176-27.797c-0.543-2.678,0.27-3.984,3.193-3.156c20.407,7.593,40.813,15.185,61.22,22.778
		c0.844-0.807,1.689-1.614,2.533-2.421c-10.674-15.985-21.347-31.971-32.049-47.998c4.903-2.31,8.231,1.381,11.839,3.44
		c12.944,7.387,25.19,16.326,38.772,22.197c26.477,11.445,43.31,30.225,52.719,57.413c3.121,9.017,2.403,11.987-6.378,13.305
		c-10.887,3.686-22.752,3.271-33.389,8.442c-3.797,1.846-8.516-0.124-12.748-1.452c-25.37-7.959-50.627-16.274-76.023-24.153
		C116.501,430.271,109.823,430.925,111.816,423.143z"/>
	<path style="fill:#FDFDFD;" d="M155.999,295.763c19.632,13.014,39.264,26.027,61.827,40.983
		c-7.364-19.188-12.984-35.612-20.015-51.408c-3.562-8.003,1.304-4.797,4.474-4.717c3.179,0.377,5.745,1.844,8.037,4.083
		c19.44,18.994,39.539,37.276,59.933,55.236c4.167,3.67,5.53,8.822,7.395,13.742c1.165,8.708,4.296,16.861,6.764,25.209
		c3.136,10.61,0.462,14.957-10.642,15.433c-12.56,0.538-25.178,1.6-37.771,0.185c-29.139-16.834-58.277-33.669-89.424-51.663
		c22.368,0,41.965,0,63.389,0c-19.817-15.404-38.373-29.827-56.928-44.25C152.498,296.056,153.083,294.691,155.999,295.763z"/>
	<path style="fill:#028455;" d="M183.376,526.286c18.887-2.274,32.496-15.452,48.372-23.852c5.549-2.936-0.487-6.651-2.446-9.381
		c-7.293-10.159-17.669-18.035-22.303-30.173c8.913-5.004,15.992-1.013,22.734,4.635c27.365,8.74,54.567,18.001,82.491,24.915
		c7.242,1.793,11.497,4.851,6.541,13.797c-5.177,9.345-2.762,19.348,4.11,29.488c-23.499,2.441-44.569-2.589-65.811-2.719
		c-23.029-0.14-46.043-3.078-69.055-4.908C186.426,527.963,184.919,526.908,183.376,526.286z"/>
	<path style="fill:#018354;" d="M314.321,626.354c-19.112,6.588-37.872,14.009-55.719,23.585c-2.413,3.502-6.11,4.957-9.913,6.254
		c-10.849,1.889-19.982,10.685-31.973,8.005c-6.254-8.663,0.95-14.657,4.594-20.993c10.945-19.032,10.952-18.609-8.854-28.928
		c-7.837-4.083-17.085-6.022-22.982-13.495c5.355-6.557,13.419,0.881,19.149-3.724c33.408-5.445,66.817-10.889,100.225-16.335
		c15.745-1.024,5.123,11.19,8.278,16.487c2.225,7.053,0.047,14.486,2.023,21.664C320.03,622.077,319.066,625.889,314.321,626.354z"
		/>
	<path style="fill:#018355;" d="M543.004,243.991c-2.227,20.015-4.454,40.03-6.679,60.045c-0.153,1.751-0.196,3.519-0.479,5.249
		c-1.266,7.726,0.02,18.618-4.549,22.385c-6.207,5.119-12.183-6.098-19.421-7.908c-10.925-2.731-21.222-1.521-30.011,5.254
		c-7.613,5.867-10.276,2.046-11.193-4.736c-3.733-27.617-7.07-55.287-10.549-82.921c11.041,13.585,25.345,23.762,37.507,36.153
		c5.345,5.446,8.691,0.725,11.92-2.208C520.856,265.037,531.876,254.455,543.004,243.991z"/>
	<path style="fill:#028455;" d="M236,394.509c11.275-5.474,23.39-3.429,35.046-2.998c12.364,0.456,14.088-3.262,9.803-14.177
		c-3.053-7.776-8.329-15.675-4.873-24.94c3.619-5.027,7.051-1.583,9.484,0.862c19.804,19.893,42.154,37.149,60.58,58.46
		c2.684,3.25,3.296,6.295-1.247,8.357c-8.952,4.065-12.578,11.745-13.892,20.755c-0.923,6.328-5.347,7.521-9.326,4.997
		C293.476,427.998,262.828,414.428,236,394.509z"/>
	<path style="fill:#038355;" d="M686.653,383.509c11.704-5.256,18.701-16.123,28.239-23.974c3.923-3.229,7.397-6.763,12.288-8.406
		c1.408,10.532-3.045,19.957-7.191,28.753c-5.358,11.368-0.796,11.737,8.666,11.869c12.14,0.169,24.564-2.188,36.428,2.425
		c-25.682,18.796-53.97,33.342-80.975,49.973c-6.547,4.032-8.047,0.649-9.516-4.76c-2.005-7.382-2.76-15.707-11.838-18.657
		c-3.125-1.922-4.8-4.741-5.169-8.367C664.877,400.331,674.067,390.209,686.653,383.509z"/>
	<path style="fill:#038455;" d="M330.286,298.945c12.566-1.228,22.124,6.706,32.597,11.327c8.042,3.548,10.104,1.466,11.851-6.216
		c2.763-12.148,1.371-25.221,7.986-36.498c13.501,25.315,22.389,52.569,33.324,78.96c1.892,4.567,0.31,6.985-4.285,6.851
		c-12.013-0.352-19.98,6.317-25.458,15.651c-4.17,7.105-6.829,4.722-10.227,0.181c-3.899-5.21-7.651-10.531-11.467-15.803
		c-6.663-3.929-6.759-12.027-11.076-17.446l-0.09-0.032c-11.386-8.39-17.845-20.517-24.504-32.465
		C328.037,301.838,328.798,300.142,330.286,298.945z"/>
	<path style="fill:#010101;" d="M573.222,408.908c-0.967,2.869-1.716,5.836-2.942,8.589c-3.825,8.589-6.557,18.988-19.974,13.36
		c-0.752-0.315-2.064-0.487-2.55-0.069c-16.291,14.025-18.406-5.985-26.581-11.189c-2.081-1.324-2.913-4.931-5.024-5.827
		c-6.298-2.673-7.503-6.09-4.021-12.023c3.701-6.306,9.887-7.475,14.446-4.086c7.412,5.508,13.903,2.811,20.938,0.872
		c1.138-0.525,2.334-0.769,3.58-0.761c5.866,1.1,7.667-2.247,8.396-7.286c1.022-7.06,3.877-13.493,7.613-19.528
		c1.914-3.091,4.091-6.169,8.378-4.13c3.966,1.886,4.931,5.949,2.573,8.851c-6.321,7.78-2.762,15.852-1.854,23.927
		C576.161,403.02,575.831,406.333,573.222,408.908z"/>
	<path style="fill:#010101;" d="M314.135,568c0,0.88,0,1.761,0,2.641c-12.567,3.221-25.169,6.24-38.081,1.909
		c-2.946-0.988-5.605-1.531-8.856-0.962c-14.939,2.614-33.236-10.053-35.947-25.218c-1.352-7.562,4.898-4.781,7.71-3.744
		c9.722,3.587,19.18,7.285,29.778,8.325c8.318,0.816,16.319,1.711,24.581-0.186C308.401,547.302,313.772,551.885,314.135,568z"/>
	<path style="fill:#010101;" d="M458.703,398.671c2.458,0.88,4.883,2.365,7.382,2.502c4.061,0.223,8.968-4.668,12.039,0.277
		c3.154,5.08,5.857,11.149,6.349,16.988c0.563,6.68-4.518,12.596-11.2,10.606c-7.664-2.283-12.108-2.937-15.137,5.762
		c-1.498,4.302-6.365,4.307-7.985,0.2c-3.455-8.759-13.329-14.226-12.165-25.451c0.487-4.691-1.44-9.687-7.623-10.583
		c-4.487,0.057-4.337-2.223-2.658-5.273c3.581-3.597,8.42-6.057,8.366-12.465c-0.034-4.054,3.463-5.752,7.363-6.025
		C452.162,380.661,449.79,393.338,458.703,398.671z"/>
	<path style="fill:#010101;" d="M388.391,129.618c-0.813-0.662-0.961-1.449-0.443-2.361c11.759-17.407,16.403-19.367,28.815-12.164
		c12.208,7.085,15.306,22.118,7.409,35.44c-3.296,5.56-7.689,10.423-7.286,17.869c0.364,6.735-4.303,6.532-7.107,2.245
		c-5.853-8.948-14.824-16.741-13.687-28.918C396.683,135.397,393.943,131.756,388.391,129.618z"/>
	<path style="fill:#010101;" d="M255.3,439.029c1.196-2.472-1.084-8.042,3.783-10.271c4.836-2.215,8.234,1.26,11.377,4.461
		c8.624,8.782,18.11,15.846,30.874,17.605c5.913,0.815,7.331,6.408,6.839,10.967c-0.549,5.083-4.327,8.211-10.204,8.001
		c-12.752-0.456-25.146-2.242-36.993-7.401c-2.732-1.19-5.192-2.157-4.412-5.212C258.074,451.271,255.066,446.011,255.3,439.029z"/>
	<path style="fill:#171815;" d="M330.286,298.945c4.829,14.133,16.562,23.943,23.156,36.971c-3.415,4.361-5.385,3.576-8.266-1.113
		c-5.591-9.103-12.106-17.639-20.162-29.162c0.273,10.767-1.742,18.359,2.134,25.669c3.546,6.688,1.376,12.155-3.385,17.157
		c0.225-14.886-2.798-29.706-0.905-44.623c0.354-2.791-0.615-5.117-2.144-7.36c-17.954-26.334-35.886-52.683-55.626-81.674
		c0.681,10.753,1.155,18.23,1.629,25.707c-4.789-6.722-3.891-14.931-5.064-22.392c-1.117-7.106,5.003-10.312,11.224-8.369
		c5.537,1.729,11.981,3.459,14.751,9.904c-4.707-2.066-9.413-4.132-14.12-6.199c-0.615,0.477-1.23,0.953-1.846,1.43
		C291.203,242.908,310.744,270.926,330.286,298.945z"/>
	<path style="fill:#FAFAFA;" d="M490.852,372.536c0.058-9.202,0.491-18.421,0.068-27.601c-0.411-8.907,5.122-10.114,11.785-10.202
		c6.699-0.089,10.617,2.323,10.226,10.134c-0.613,12.267-0.35,24.576-0.611,36.864c-0.094,4.433,1.742,10.569-6.44,9.548
		c-6-0.749-14.998,3.757-14.966-8.149C488.461,379.612,487.722,376.085,490.852,372.536z"/>
	<path style="fill:#010101;" d="M398.651,488.713c-13.16,0.039-26.321,0.078-39.48,0.117c-0.128-1.091-0.257-2.181-0.386-3.272
		c-3.061-4.479-9.987-5.739-10.373-12.447c-4.483-11.317,3.725-13.731,11.527-16.429l1.239-0.243l0.485,1.165
		c-0.147,6.122-1.021,12.734,7.135,14.652c7.244,1.703,8.381-4.625,10.895-8.918c1.551-2.647,2.947-6.33,6.48-5.186
		c4.646,1.504,8.329,5.195,9.409,10.066C397.075,474.946,397.671,481.872,398.651,488.713z"/>
	<path style="fill:#F6F6F6;" d="M458.703,398.671c-4.447,0.591-8.086,0.719-9.328-5.331c-1.271-6.19-3.905-12.1-5.943-18.132
		c-1.328-5.497-2.335-11.098-4.072-16.462c-1.895-5.852-3.161-11.329,3.656-14.657c6.799-3.319,12.789-2.991,16.233,5.027
		c3.473,2.776,3.275,6.475,2.588,10.297c-0.072,8.388,2.561,16.328,5.43,23.902C470.83,392.723,467.083,396.639,458.703,398.671z"/>
	<path style="fill:#F6F6F6;" d="M549.188,398.929l-0.7-0.779l-0.973,0.386c-17.055-2.353-9.993-14.015-9.008-23.332
		c-1.822-8.59,0.065-16.244,5.784-22.932c2.037-2.364,2.613-5.171,2.477-8.192c2.785-6.772,7.875-6.128,13.103-3.737
		c5.536,2.532,9.632,6.431,8.666,13.255c-0.801,5.662-2.789,11.083-3.723,16.732c-1.885,7.666-4.688,15.058-6.826,22.658
		C556.871,396.96,555.643,402.215,549.188,398.929z"/>
	<path style="fill:#1F1E1C;" d="M346.04,411.716c-19.009-17.499-37.965-35.057-57.075-52.445c-3.658-3.328-6.273-9.134-12.991-6.883
		c-14.946-19.507-35.085-33.694-52.269-50.914c-7.038-7.053-14.274-13.908-21.419-20.853c1.14-0.947,2.279-1.894,3.419-2.841
		c17.716,15.99,35.469,31.94,53.133,47.988c8.419,7.648,15.94,16.641,28.39,17.841c-2.451,0.866-4.902,1.732-8.138,2.875
		c25.137,17.312,44.025,40.418,66.012,60.159C346.116,407.553,345.759,409.99,346.04,411.716z"/>
	<path style="fill:#F6F6F6;" d="M573.222,408.908c-1.753-3.003-0.576-5.982,0.073-8.966c2.696-12.767,8.004-24.461,14.619-35.647
		c5.068-5.674,10.997-6.301,17.165-2.305c5.143,3.332,5.911,7.999,2.548,13.218c-4.994,8.629-10.793,16.905-14.764,25.982
		C588.535,411.087,583.559,415.903,573.222,408.908z"/>
	<path style="fill:#1D1E1D;" d="M229.732,467.515c-7.555-1.681-14.643-5.643-22.739-4.642
		c-32.818-10.515-64.855-23.67-99.059-29.567c-4.216-5.492-0.267-7.866,3.882-10.163c1.634,4.684,6.251,4.389,9.785,5.551
		c15.768,5.185,32.076,9.012,47.351,15.347c24.288,10.072,48.57,11.786,73.676,4.624c-6.963,6.387-17.233,3.232-26.391,8.911
		c5.837,1.85,10.377,2.809,14.48,4.712C235.739,464.619,229.463,465.618,229.732,467.515z"/>
	<path style="fill:#F6F6F6;" d="M427.703,393.698c-0.141,2.275,0.833,3.989,2.658,5.273c4.245,13.066-3.555,14.12-13.25,13.284
		c-1.087-0.736-1.645-1.746-1.593-3.073c-5.668-10.408-10.873-21.107-17.154-31.131c-4.795-7.653-0.851-11.31,4.882-14.737
		c7.099-4.244,8.923,1.348,11.402,6.172C418.837,377.641,423.335,385.636,427.703,393.698z"/>
	<path style="fill:#010101;" d="M461.837,359.414c-2.597-2.997-3.135-6.511-2.588-10.297c5.552-10.305,15.927-8.432,24.19-7.55
		c8.712,0.929,5.077,9.784,4.339,14.982c-0.857,6.037-4.315,11.796,3.074,15.988c0.021,3.531,0.041,7.062,0.062,10.593
		c-5.077-0.508-9.576-3.751-15.294-1.721c-6.222,2.209-9.189-4.574-6.623-6.929C484.415,360.328,466.563,363.179,461.837,359.414z"
		/>
	<path style="fill:#F7F7F7;" d="M638.361,409.3c-5.969,6.221-12.107,12.291-17.849,18.716c-3.937,4.406-6.666,8.71-13.328,2.624
		c-5.697-5.203-6.816-8.43-1.211-14.523c7.253-7.885,13.296-16.882,19.86-25.4c7.124-2.662,12.808-0.798,16.32,5.923
		C644.836,401.777,644.902,406.666,638.361,409.3z"/>
	<path style="fill:#F6F6F6;" d="M401.717,419.937c4.594,8.461-3.688,10.462-7.653,13.848c-4.718,4.03-6.407-2.36-8.712-4.532
		c-6.325-5.96-11.677-12.962-18.077-18.829c-6.408-5.874-4.172-10.9,0.716-15.438c4.996-4.639,9.591-4.038,14.067,1.92
		c5.969,7.944,12.876,15.183,19.381,22.725L401.717,419.937z"/>
	<path style="fill:#010101;" d="M321.236,366.524c9.222,3.788,12.88-3.292,14.343-13.672c0.593-4.205,4.106-4.796,6.917-2.672
		c8.26,6.241,15.349,13.489,13.789,25.129c-1.451,10.823-10.281,14.631-19.558,8.613c-2.194-1.423-4.78-2.599-6.346-4.56
		C326.615,374.648,323.347,369.536,321.236,366.524z"/>
	<path style="fill:#010103;" d="M638.361,409.3c5.314-11.062,1.698-16.426-12.529-18.582c2.644-1.659,5.289-3.318,7.934-4.978
		c9.594-2.241,10.19,9.206,17.809,12.144c-0.846-3.87-1.456-6.665-2.067-9.46c16.506-0.617,26.489-10.51,34.587-23.651
		c4.726-7.669,10.61-14.236,20.989-8.033c-2.433,10.843-13.912,14.598-18.572,23.696c-11.238,9.952-20.34,22.424-34.346,29.109
		C647.564,409.464,642.963,409.382,638.361,409.3z"/>
	<path style="fill:#010101;" d="M544.291,352.273c-0.665,7.962-2.486,15.633-5.784,22.932c-6.27-1.647-12.519-6.163-17.799,2.717
		c-2.068,3.478-4.978,1.291-5.833-2.814c-1.628-7.809,5.973-28.084,12.974-30.547C534.907,342.077,541.926,343.089,544.291,352.273z
		"/>
	<path style="fill:#010101;" d="M434.675,285.023c-0.086-0.965,0.275-1.715,1.082-2.25c6.267,0.196,17.476-5.128,16.636,4.582
		c-0.663,7.66,9.119,20.15-6.464,25.308c-4.678,1.548-7.57,7.99-11.823,11.54c-2.009,1.677-5.085,4.347-8.126,1.502
		c-1.93-1.806-2.814-4.417-1.616-7.183c2.158-4.982,1.353-11.514,7.295-14.523C441.482,299.024,439.842,292.328,434.675,285.023z"/>
	<path style="fill:#202221;" d="M208.622,597.058c-4.934,5.525-12.537,0.161-17.795,4.362c-5.741,6.95-14.258,5.564-21.739,7.075
		c-22.658,4.576-46.036,5.067-68.289,11.983c-7.452,2.319-8.767-3.203-9.821-8.181c-1.208-5.709,3.379-4.457,6.546-4.676
		c10.42,2.727,20.305-1.191,30.34-2.654c22.502-3.28,44.935-7.033,67.396-10.593C198.999,598.831,204.131,596.35,208.622,597.058z"
		/>
	<path style="fill:#F4F4F4;" d="M654.845,425.444c13.796,8.165,13.667,11.211-0.987,23.258c-3.944-0.113-5.5,2.909-7.324,5.579
		c-0.845,4.101-3.848,5.253-7.515,5.498c-7.716,1.799-9.812-5.063-11.864-9.349c-2.007-4.192,4.107-5.617,6.832-7.96
		C640.79,436.622,647.873,431.098,654.845,425.444z"/>
	<path style="fill:#010101;" d="M543.897,309.174c0.006-2.639,0.013-5.277,0.019-7.916c11.237-9.267,22.664-3.966,33.218,0.728
		c6.962,3.097,4.423,9.047-1.138,11.721c-6.248,3.004-13.144,4.824-19.916,6.533C546.894,322.558,549.386,311.336,543.897,309.174z"
		/>
	<path style="fill:#F5F5F5;" d="M361.664,457.604l-0.615-0.924l-1.109,0.001c-5.178-3.965-10.273-8.046-15.558-11.865
		c-5.607-4.053-4.978-8.481-1.52-13.541c4.136-6.052,7.898-3.084,11.932,0.082c5.164,4.054,10.701,7.662,15.629,11.974
		c3.315,2.901,10.453,3.652,5.761,11.725C371.695,462.783,367.264,461.176,361.664,457.604z"/>
	<path style="fill:#201F1F;" d="M382.424,265.024c-11.458-28.344-22.916-56.687-34.374-85.031c2.395-1.11,2.468-3.509,3.106-5.594
		c12.787,27.653,24.245,55.843,34.265,84.616C383.039,260.329,382.957,262.789,382.424,265.024z"/>
	<path style="fill:#EFEFEF;" d="M668.043,467.045c5.855-1.047,9.171,1.735,10.326,7.218c1.285,6.103-2.694,8.549-7.564,10.383
		c-3.668,1.381-7.16,3.238-10.849,4.552c-3.315,1.181-7.301,5.602-10.051,0.11c-2.073-4.14-6.791-9.03-0.46-13.783
		C655.644,472.699,661.844,469.872,668.043,467.045z"/>
	<path style="fill:#010101;" d="M633.715,488.391c-7.923,0.054-15.846,0.107-23.769,0.161c0.737-3.393,1.633-6.76,2.18-10.184
		c1.183-7.409,2.997-14.767,12.792-12.168c9.168,2.432,16.03,7.199,9.05,18.294C633.358,485.462,633.775,487.076,633.715,488.391z"
		/>
	<path style="fill:#EBEBEC;" d="M348.413,473.111c3.35,4.239,12.717,3.464,10.373,12.447c-2.922,5.032-6.502,8.583-12.921,5.732
		c-4.222-1.97-8.375-4.106-12.681-5.872c-6.764-2.774-7.567-7.64-4.981-13.624c2.939-6.802,7.434-3.546,11.776-1.667
		C342.708,471.311,345.596,472.129,348.413,473.111z"/>
	<path style="fill:#010101;" d="M358.806,533.592c0.19,19.121-2.134,20.892-20.901,15.921c-5.719-10.19-2.292-16.883,8.009-20.948
		c0.853-0.076,1.707-0.143,2.561-0.201C353.851,526.289,356.405,529.79,358.806,533.592z"/>
	<path style="fill:#010103;" d="M562.268,369.896c0.778-3.843,1.654-7.67,2.308-11.534c0.753-4.441,4.501-9.261-1.149-13.082
		c-5.278-3.57-10.704-6.439-16.66-1.2c-0.95-2.825-1.9-5.649-2.85-8.474c6.177-9.648,13.833-5.022,21.302-2.221
		c6.097,5.127,8.368,13.036,13.962,18.808c3.871,3.993,2.206,11.095-3.881,12.806C570.727,366.285,567.514,370.896,562.268,369.896z
		"/>
	<path style="fill:#252525;" d="M145.085,528.429c-13.76-0.692-27.515-1.547-41.283-1.971c-3.859-0.119-8.501-3.163-11.576,1.948
		c-5.15-0.39-4.98-2.333-1.204-4.767c2.728-1.758,6.893,0.343,9.147-3.1c20.641,0.3,41.25,1.014,61.624,4.765
		C156.495,527.795,149.942,523.58,145.085,528.429z"/>
	<path style="fill:#010103;" d="M607.628,375.209c2.026-6.716-1.663-10.486-7.053-13.08c-5.822-2.802-8.121,2.123-11.061,5.476
		c-6.858-3.415-7.026-4.709-1.827-13.958c16.987-5.895,30.052,1.729,32.713,19.091c0.006,0.828-0.039,1.654-0.136,2.477
		C616.05,375.212,611.839,375.21,607.628,375.209z"/>
	<path style="fill:#E4E4E4;" d="M344.713,513.071c3.511,4.872,1.125,10.167,1.094,15.293c-5.243,0.815-10.314-0.152-15.336-1.524
		c-5.919-1.617-6.788-5.884-5.829-11.141c1.235-6.768,5.479-4.814,9.837-3.737C337.78,512.776,341.294,512.732,344.713,513.071z"/>
	<path style="fill:#141410;" d="M652.166,409.546c-0.706-8.743,9.218-5.85,12.546-11.632c4.591-7.977,12.512-14.153,21.801-17.477
		c0.046,1.022,0.093,2.045,0.14,3.069c-8.812,10.503-18.452,20.171-29.068,28.857C656.438,410.159,654.417,409.63,652.166,409.546z"
		/>
	<path style="fill:#242418;" d="M565.072,335.67c-7.042-3.223-14.088-4.967-21.154-0.064c-12.709-0.036-6.308-9.464-7.505-15.613
		c1.961,8.232,5.29,10.59,14.308,8.357c11.284-2.794,21.37,2.324,28.024,12.562c-1.041,0.079-2.087,0.158-3.134,0.237
		C570.273,342.834,568.887,336.915,565.072,335.67z"/>
	<path style="fill:#B0B0B0;" d="M113.973,379.952c-1.064,1.052-2.129,2.104-3.193,3.156c-7.08-2.623-14.16-5.247-21.239-7.87
		c-3.958-2.259-7.915-4.519-14.232-8.125C91.181,367.92,102.39,374.522,113.973,379.952z"/>
	<path style="fill:#010101;" d="M429.174,362.33c4.082,0.622,6.065,3.095,6.231,7.052c0.154,3.674-1.609,5.696-5.396,5.614
		c-3.96-0.085-6.835-1.929-7.109-5.998C422.625,364.898,425.195,362.758,429.174,362.33z"/>
	<path style="fill:#010101;" d="M639.018,459.78c1.685-2.954,4.318-4.612,7.515-5.498c6.015,4.746,12.102,0.917,19.6-2.183
		C660.665,460.979,646.175,463.996,639.018,459.78z"/>
	<path style="fill:#A5A5A5;" d="M382.697,113.822c-0.996,1.888-1.993,3.777-2.989,5.665c-4.257-10.403-6.797-21.209-7.599-32.423
		c0.999-0.132,1.998-0.263,2.997-0.395C377.711,95.7,382.289,104.178,382.697,113.822z"/>
	<path style="fill:#010101;" d="M415.518,409.183c0.531,1.024,1.062,2.048,1.593,3.073c-3.494,5.842-8.913,7.827-15.394,7.682
		l-0.278-0.306C400.543,408.617,408.629,409.707,415.518,409.183z"/>
	<path style="fill:#171815;" d="M353.531,335.95c4.77,5.133,9.009,10.602,11.074,17.449c-0.649,3.428-1.853,6.874-4.855,1.695
		C356.367,349.257,353.995,342.853,353.531,335.95z"/>
	<path style="fill:#CACACA;" d="M155.999,295.763c-0.987,0.944-1.974,1.888-2.962,2.833c-6.154-4.419-12.308-8.839-18.461-13.258
		c-0.473-2.464,0.015-3.92,2.949-2.808C143.683,286.941,149.841,291.352,155.999,295.763z"/>
	<path style="fill:#9D9D9D;" d="M137.525,282.53c-0.983,0.936-1.966,1.872-2.949,2.808c-7.046-5.23-14.091-10.461-21.137-15.691
		C123.803,269.576,130.078,277.148,137.525,282.53z"/>
	<path style="fill:#010101;" d="M598.756,448.11c4.625,1.086,9.804,0.911,11.757,5.997c0.139,0.361-0.893,1.608-1.547,1.769
		C602.601,457.447,601.914,450.998,598.756,448.11z"/>
	<path style="fill:#010101;" d="M216.505,549.479c-0.946-0.764-1.892-1.527-2.838-2.291c0.41-1.614,0.402-3.541,1.323-4.773
		c1.604-2.144,3.279-6.269,6.557-3.949c3.939,2.789-1.026,4.817-1.981,7.159C218.972,547.083,217.554,548.205,216.505,549.479z"/>
	<path style="fill:#FCD559;" d="M607.454,549.781c-0.92,11.393-1.457,22.832-2.852,34.167c-1.906,15.484-0.361,29.63,12.379,40.531
		c4.853,4.153,4.208,7.953-0.654,11.766c-2.751,2.158-5.068,4.869-7.59,7.321c-14.079,13.683-32.912,24.829-25.214,50.532
		c-17.03-16.148-30.387-34.088-52.416-44.901c4.654,7.323,3.286,11.224-4.79,10.812c-6.999-0.356-11.187,3.929-15.046,9.002
		c-5.042,6.627-10.872,8.053-15.743,0.236c-4.899-7.862-11.721-9.924-20.191-9.056c-1.524-1.483-5.427-0.728-5.215-2.782
		c0.749-7.247-3.304-2.858-5.633-2.683c-17.086,9.767-27.603,26.353-40.659,40.152c-1.246-0.875-2.547-1.477-2.48-1.786
		c5.507-25.676-11.882-39.183-28.524-52.617c-7.731-6.241-9.791-11.509-1.686-18.496c10.305-8.884,12.337-20.094,10.527-33.13
		c-1.802-12.977-2.197-26.15-3.208-39.237c-5.539-8.477,3.764-12.79,5.37-19.272c6.378-10.427,17.238-15.593,26.545-22.612
		c3.682-2.032,7.597-3.378,11.741-4.075c22.103-6.935,43.938-14.436,67.793-13.41c14.675,0.631,28.027,6.691,42.388,7.971
		c10.368,0.535,18.835,5.738,27.221,11.133c1.106,0.625,2.153,1.352,3.177,2.101c11.112,8.843,23.234,16.736,29.287,30.47
		C612.207,545.538,610.668,548.144,607.454,549.781z"/>
	<path style="fill:#FDD55A;" d="M412.653,730.706c12.941-18.539,22.034-35.041,34.315-49.291
		c12.678-14.709,35.189-15.133,46.661,0.718c7.927,10.953,12.457,8.201,19.114-0.724c10.644-14.272,33.664-14.865,44.82-1.338
		c11.547,14.002,22.488,28.503,35.659,45.29c0-13.708,0-24.452,0-35.05c5.933-0.847,9.069,1.71,10.788,5.332
		c4.353,9.169-2.026,40.743-9.44,48.217c-16.717,16.851-33.663,33.482-50.09,50.61c-4.949,5.161-9.347,7.525-15.726,3.184
		c-1.075-0.731-2.427-1.048-3.524-1.754c-14.98-9.641-29.896-10.649-44.751,0.247c-7.762,5.693-13.556,3.7-20.141-3.078
		c-15.918-16.385-32.717-31.913-49.128-47.821c-6.403-6.208-13.716-40.541-10.04-48.242c1.742-3.649,5.149-6.94,9.183-6.191
		c3.692,0.685,2.126,5.159,2.203,7.921C412.811,707.945,412.653,717.164,412.653,730.706z"/>
	<path style="fill:#FDD559;" d="M414.125,770.154c19.146,9.874,32.824,22.624,44.505,37.343c5.41,6.818,8.793,8.175,16.496,2.762
		c24.403-17.15,32.123-16.978,56.815,0.308c6.651,4.656,10.181,4.828,15.839-1.643c12.324-14.094,25.089-27.994,45.434-39.922
		c0,16.005-0.048,29.306,0.029,42.606c0.023,3.981-2.251,6.504-4.952,8.85c-20.882,18.137-40.765,37.412-63.643,53.238
		c-14.059,9.725-27.002,10.203-41.183,0.418c-23.623-16.3-44.215-36.091-65.59-55.014c-5.303-4.695-3.627-10.391-3.707-15.897
		C414.018,792.841,414.125,782.476,414.125,770.154z"/>
	<path style="fill:#DE3A3E;" d="M648.702,846.105c0.025,0.824-0.371,1.295-1.185,1.417c0.002-9.534,0.002-19.072,0.002-31.571
		c-9.378,8.972-16.743,15.587-23.591,22.699c-5.939,6.168-8.836,3.749-10.459-3.054c-4.189-17.557-6.55-35.332-6.394-53.439
		c0.054-6.318,1.733-8.784,8.575-6.869c7.057,1.975,14.439,2.794,21.753,4.132c0.333-3.794-1.86-4.482-3.667-5.71
		c-29.63-20.151-29.619-20.165-21.678-55.424c0.193-0.858,0.302-1.734,0.485-2.594c3.855-18.184,3.847-18.149,21.392-13.695
		c1.929,0.49,4.027,0.312,6.552,0.477c-2.347-6.47-7.151-10.015-11.315-13.601c-6.882-5.928-7.611-11.824-3.805-19.762
		c7.369-15.371,7.102-15.499,26.888-8.05c1.233,1.169,2.128,2.557,2.699,4.156c1.59,20.991-1.294,41.882-2.391,62.752
		c-1.544,29.36-2.13,58.557-0.059,87.892C653.213,825.95,655.111,836.691,648.702,846.105z"/>
	<path style="fill:#DE3A3F;" d="M350.59,662.205c7.159-3.078,14.318-6.155,21.477-9.232c12.657,17.92,16.441,34.816-7.739,47.743
		c2.791,1.366,3.581,2.123,4.171,1.989c21.783-4.93,20.816-4.692,26.622,17.694c6.181,23.828,4.133,43.023-21.396,53.614
		c-1.514,0.628-2.704,2.081-3.969,3.233c-0.256,0.233-0.173,0.838-0.418,2.288c7.541-1.3,14.832-2.256,21.968-3.888
		c5.049-1.155,7.423-0.126,7.485,5.413c0.234,21.123-1.261,41.985-8.133,63.229c-12.899-6.564-18.589-20.317-30.783-26.156
		c-4.509-2.918-3.94-7.452-3.516-11.762c3.652-37.124-0.482-74.014-3.299-110.937c-0.73-9.573,0.618-19.23-1.344-28.731
		C351.208,665.238,350.838,663.736,350.59,662.205z"/>
	<path style="fill:#028355;" d="M794.004,462.625c-4.789,12.039-14.386,20.595-22.568,30.016
		c-6.238,7.182-5.376,10.657,3.065,13.952c16.653,6.5,30.876,20.171,50.75,17.016c-1.673,2.833-4.499,4.955-7.374,4.662
		c-38.657-3.931-76.615,5.828-115.061,5.655c-2.078,3.397-5.203,3.052-8.425,2.357c-6.823,0.205-13.519,0.274-7.925-9.666
		c4.327-7.688,3.461-15.048-1.008-22.374c-2.282-3.741-5.367-7.689,1.963-9.942c34.245-10.528,68.436-21.232,102.669-31.799
		C791.27,462.138,792.694,462.566,794.004,462.625z"/>
	<path style="fill:#F5D162;" d="M555.36,501.531c-17.82,0.326-34.04-8.751-52.274-7.842c-17.631,0.879-34.15,5.076-50.562,10.579
		c-4.136,1.387-7.95,3.572-12.514,2.518c6.553-10.946,18.084-12.534,28.926-15.402c16.765-2.158,33.317-7.422,49.656-2.93
		c2.221-1.99,1.375-3.137,0.626-4.135c-15.19-20.237-15.34-20.359-31.819-1.443c-4.684,5.376-9.75,8.528-16.939,7.81
		c-7.806-2.655-14.863-6.928-22.238-10.509c-5.987-2.907-9.72-1.753-11.896,4.787c-2.318,6.966-4.256,14.065-7.016,20.888
		c-6.817,13.072-18.814,10.36-29.901,9.397c-13.428-1.166-13.426-1.488-13.176,12.039c0.112,6.082-0.204,12.169,0.218,19.071
		c7.147-5.08,9.414-16.052,20.11-15.399c-0.025,7.379-9.803,10.523-8.102,18.652c-6.193,3.9-8.52,10.896-13.008,16.145
		c-2.241,2.621-2.594,8.148-8.325,6.212c-0.835-19.309-1.408-38.627-2.608-57.906c-0.54-8.674,1.341-12.789,11.337-12.31
		c10.385,0.498,22.297,7.15,30.761,0.616c8.029-6.198,7.934-19.042,10.608-29.014c3.475-12.958,8.716-12.778,19.113-7.327
		c27.212,14.267,27.614,14.025,47.476-10.179c5.926-7.222,9.364-9.119,16.42-0.507c6.513,7.95,11.094,21.487,21.328,21.803
		c9.367,0.289,19.534-7.032,28.371-12.562c10.868-6.801,15.123-3.499,17.817,7.785c2.436,10.202,3.669,22.56,10.206,29.423
		c7.465,7.837,19.984,0.119,30.247-0.445c10.873-0.598,13.656,2.934,12.867,13.288c-1.468,19.264-1.785,38.617-2.58,57.93
		c-8.165-0.056-7.695-8.539-12.003-12.411c-3.389-3.046-4.451-8.255-9.033-10.372c0.806-2.655,1.611-5.31,2.415-7.964
		c6.622-1.381,7.94,3.725,9.875,7.796c-0.307-7.592,0.095-15.383,1.254-23.215c1.633-11.033-0.762-13.39-12.085-12.418
		c-9.499,0.815-19.077,4.335-28.177-1.571l0.288,0.254c-6.807-7.928-7.931-18.236-11.225-27.578
		c-2.544-7.218-5.915-8.819-12.496-4.948c-5.608,3.298-11.641,5.857-17.972,9.365C544.451,494.419,553.577,493.346,555.36,501.531z"
		/>
	<path style="fill:#DF3A3F;" d="M652.289,662.359c0,0-0.038-1.298-0.037-1.298c5.436-0.266,10.873-0.529,15.796-3.269
		c9.055,15.224,12.872,32.309,17.542,49.105c1.607,5.781-1.98,9.126-5.39,12.465c-4.603,4.506-10.563,7.622-14.104,13.424
		c2.463,3.615,5.803,2.459,8.145,1.23c13.941-7.316,16.227,1.007,16.706,12.058c0.133,3.065,0.044,6.165,0.475,9.189
		c2.139,15.014-0.429,27.705-15.614,35.183c-3.345,1.647-5.816,5.068-8.743,7.72c0.73,0.811,1.284,1.863,1.682,1.807
		c23.25-3.277,23.249-3.286,20.298,20.653c-0.054,0.435-0.008,0.894-0.127,1.307c-1.538,5.326,0.351,13.333-4.901,15.44
		c-5.663,2.272-8.988-5.157-13.054-8.746c-1.635-1.443-3.415-2.795-4.762-4.481c-6.864-8.594-8.986-3.519-10.494,3.54
		c-4.98-3.577-2.819-8.591-2.767-13.254c0.539-48.586,0.743-97.174,0.618-145.763C653.554,666.476,653.625,664.279,652.289,662.359z
		"/>
	<path style="fill:#E0393E;" d="M327.049,789.931c-10.092-5.199-11.849-14.042-10.642-24.219c0.154-1.3-0.062-2.64-0.016-3.958
		c0.321-9.209-2.364-20.21,1.759-27.177c5.333-9.011,15.498,3.738,24.4,0.234c-0.928-6.545-6.804-9.312-10.999-12.036
		c-10.029-6.511-11.573-14.271-7.586-24.81c3.257-8.608,6.059-17.477,8.048-26.455c2.508-11.319,8.676-13.605,18.576-9.304
		c0.238,0.433,0.523,0.833,0.858,1.198c4.1,18.026,3.814,36.458,2.699,54.572c-1.511,24.542-2.263,48.904,0.342,73.391
		c0.9,8.456,3.115,17.538-3.783,25c-6.632,6.248-13.568,12.21-19.812,18.824c-6.449,6.831-9.013,4.297-10.382-3.359
		c-0.842-4.707-1.799-9.394-2.661-14.098c-3.601-19.665-3.595-19.666,16.228-20.437
		C335.129,791.583,330.097,791.679,327.049,789.931z"/>
	<path style="fill:#F1D75E;" d="M369.713,644.996c-17.133,14.961-33.373,11.178-42.663-9.994c-1.729-3.941-3.18-8.004-4.759-12.011
		c-2.499-2.304-2.461-4.84-0.69-7.535c1.132-11.268-0.597-22.745,3.291-33.835c4.182-11.926,10.421-22.409,24.162-22.511
		c13.667-0.102,20.607,10.108,24.66,22.012C381.134,602.918,379.153,624.212,369.713,644.996z"/>
	<path style="fill:#010101;" d="M747.813,443.695c8.011,0.742,15.776,2.518,23.24,5.551c-0.474,2.081-0.958,5.983-1.422,5.98
		c-15.31-0.075-24.612,15.84-40.455,14.818c-6.747-0.435-13.745-0.026-20.44,3.398c-10.972,5.612-13.336-6.305-17.206-11.274
		c-4.625-5.939,1.341-12.479,7.476-13.525c14.369-2.45,23.466-13.424,35.29-19.857c7.134-3.881,10.175-5.933,8.758,4.818
		C742.632,436.817,743.673,441.544,747.813,443.695z"/>
	<path style="fill:#F1D561;" d="M675.295,568.27c10.61,20.573,11.482,41.554,3.861,63.416c-2.894,8.301-8.282,14.169-13.975,20.164
		c-14.561,3.514-24.696-0.655-30.895-14.551c-9.211-20.647-9.123-41.971,0.366-62.402
		C643.826,555.145,658.047,553.27,675.295,568.27z"/>
	<path style="fill:#F7ECEA;" d="M350.706,816.368c-3.507-51.006-0.378-101.98,0.741-152.963c7.79,0.233,4.483,6.477,4.692,9.86
		c2.98,48.245,6.887,96.481,3.734,144.878c-0.347,8.143-0.695,16.296-1.044,24.448c-2.446,9.517-0.402,19.22-1.241,28.791
		c-0.254,2.902,2.138,7.349-3.51,8.03C352.955,858.397,351.83,837.382,350.706,816.368z"/>
	<path style="fill:#010101;" d="M707.669,573.277c-4.401-0.011-8.803-0.022-13.204-0.034c-0.908-5.269,4.269-10.539-0.004-15.807
		c11.701-8.498,26.11-6.966,39.162-10.457c2.876-0.769,6.108-0.228,9.177-0.256c4.461-0.04,9.621-5.913,12.97,2.725
		c2.348,6.056,7.452,11.484,3.083,18.176c-4.232,6.484-11.149,7.75-18.454,7.417C729.484,574.544,718.907,567.754,707.669,573.277z"
		/>
	<path style="fill:#010101;" d="M660.325,527.883c1.747,4.169,6.187,2.489,9.08,4.177c4.175,2.435,4.586,6.535,3.592,10.377
		c-1.619,6.257-8.099,6.356-12.698,7.414c-4.337,0.998-5.102-4.303-5.181-7.453c-0.241-9.622-1.213-19.082-2.574-28.627
		c-1.224-8.585,9.545-20.394,18-21.854c2.889-0.499,5.338,0.314,6.592,3.012c1.337,2.877-0.857,3.935-3.075,4.463
		c-7.175,1.709-10.296,7.651-13.936,13.076C660.881,517.597,664.257,522.693,660.325,527.883z"/>
	<path style="fill:#EBEAEA;" d="M660.325,527.883c-0.062-5.138-5.063-10.213-0.2-15.415c4.251-0.707,8.504-1.4,12.752-2.124
		c3.6-0.614,7.366-1.052,8.234,3.702c0.783,4.287,1.375,9.274-4.222,10.847C671.511,526.404,666.166,528.705,660.325,527.883z"/>
	<path style="fill:#9F9F9F;" d="M354.08,879.412c5.72-11.74-0.365-25.003,4.75-36.821c-0.077,20.161-0.154,40.321-0.231,60.482
		c-5.157,1.435-2.551-3.692-4.325-5.117C354.209,891.775,354.144,885.593,354.08,879.412z"/>
	<path style="fill:#010101;" d="M321.601,615.457c0.23,2.512,0.46,5.023,0.69,7.535c-1.106,4.801-2.94,7.876-7.972,3.362
		c5.309-9.294,0.597-19.553,2.805-29.144C322.424,602.359,316.471,610.267,321.601,615.457z"/>
	<path style="fill:#313221;" d="M694.391,536.283c2.806-0.786,5.613-1.573,8.422-2.358c7.808,6.022,18.16-1.43,25.906,4.897
		C717.304,537.592,705.448,542.344,694.391,536.283z"/>
	<path style="fill:#513A07;" d="M464.489,654.726c3.107-4.166,7.253-6.708,12.147-8.18c3.426,5.162-11.594,8.044-1.298,13.646
		C469.509,662.757,467.716,657.319,464.489,654.726z"/>
	<path style="fill:#656565;" d="M354.274,897.957c1.442,1.706,2.884,3.411,4.325,5.117c0.503,3.252,1.476,6.578-2.046,9.914
		C352.097,908.361,353.841,903.029,354.274,897.957z"/>
	<path style="fill:#010101;" d="M358.806,533.592c-3.443-1.742-6.887-3.485-10.33-5.227c0.397-2.573,0.945-5.166,4.479-4.124
		C357.562,525.598,359.731,528.676,358.806,533.592z"/>
	<path style="fill:#C1C1C1;" d="M103.261,475.278c-5.136,2.645-11.684-2.362-16.316,3.012c-13.88-2.376-27.76-4.753-41.64-7.129
		c0.226-1.356,0.453-2.711,0.679-4.067C65.169,468.96,84.379,470.589,103.261,475.278z"/>
	<path style="fill:#FDFDFD;" d="M752.583,723.8c1.696-10.165-4.158-18.125-7.806-26.73c-5.652-6.008-10.052-13.646-5.324-20.823
		c5.399-8.196,15.057-6.868,23.786-4.817c11.404,0.732,23.2-6.108,34.233,1.775c26.789,10.807,53.579,21.614,80.368,32.422
		c-0.047,0.749-0.093,1.499-0.14,2.248c-19.481,1.796-38.963,3.592-62.498,5.762c24.346,15.29,45.548,28.605,66.75,41.92
		c0.364,2.594-0.557,3.849-3.319,3.187c-21.572-11.157-43.144-22.314-68.082-35.212c9.263,21.427,17.078,39.504,24.893,57.581
		c-0.628,0.576-1.255,1.151-1.883,1.727C806.569,763.159,779.576,743.48,752.583,723.8z"/>
	<path style="fill:#FDFDFD;" d="M797.604,667.957c-2.115-5.451-9.333-3.211-11.941-7.921c-9.263-9.425-15.205-21.162-22.187-32.155
		c-3.155-4.967-3.219-10.757,2.326-13.774c13.661-7.434,27.21-15.653,43.676-15.202c31.532,5.018,63.063,10.036,94.595,15.054
		c0.29,0.656,0.579,1.313,0.869,1.969c-19.201,6.86-38.402,13.72-59.897,21.399c16.201,6.678,30.123,12.069,44.818,15.315
		c-0.965,6.358-4.999,3.316-8.244,2.691c-13.089-0.057-24.95-6.197-39.604-8.158c13.439,16.671,25.908,32.137,38.057,47.207
		c-2.663,4.514-5.543,3.386-7.577,2.364c-22.115-11.113-46.551-16.597-68.442-28.263
		C802.307,667.552,799.772,668.098,797.604,667.957z"/>
	<path style="fill:#AAAAAA;" d="M918.846,660.676c10.72,3.606,23.592,1.932,31.362,12.777c-13.443-2.438-26.768-5.34-39.633-10.055
		C912.545,660.1,916.559,663.013,918.846,660.676z"/>
	<path style="fill:#BABABA;" d="M878.634,758.743c1.106-1.062,2.213-2.124,3.319-3.187c12.233,7.115,24.466,14.229,36.7,21.344
		c0.645,2.303-0.001,3.439-2.567,2.84C903.797,772.394,890.044,767.656,878.634,758.743z"/>
	<path style="fill:#E0E0E0;" d="M918.846,660.676c-1.946,3.371-5.563,1.666-8.272,2.722c-9.616-2.816-19.817-3.532-28.954-8.064
		c2.724-0.969,6.265,0.562,8.244-2.691C899.524,655.32,909.185,657.998,918.846,660.676z"/>
	<path style="fill:#555555;" d="M916.085,779.741c0.856-0.947,1.711-1.893,2.567-2.84c6.083,2.151,11.543,5.159,17.414,12.557
		C926.699,787.517,920.853,784.803,916.085,779.741z"/>
	<path style="fill:#FDFDFD;" d="M908.055,528.259c-17.95,7.793-33.564,19.444-49.849,31.029c25.472,2.129,50.944,4.259,76.416,6.388
		c0.217,2.975-1.731,3.579-4.053,3.527c-15.479-0.347-30.989,1.101-46.44-0.81c-8.205,0-16.41,0-28.556,0
		c18.345,13.287,33.938,24.58,49.531,35.874c-0.265,0.741-0.53,1.483-0.795,2.224c-32.213-4.73-65.143-6.83-96.327-15.334
		c-14.912-4.066-26.513-20.276-39.868-31.193c11.448-10.458,25.391-15.458,35.021-26.205c1.127-1.957,3.714-1.093,5.064-2.621
		c28.746-1.94,57.48-4.107,86.25-5.574C898.778,525.343,904.809,521.284,908.055,528.259z"/>
	<path style="fill:#03764C;" d="M809.478,598.905c-15.864,3.294-29.331,12.432-44.156,18.287c-6.303,2.489-0.903,6.376,0.649,9.407
		c5.907,11.536,16.675,20.211,19.698,33.444c-25.481-3.635-46.922-18.754-71.263-25.228c-19.831-5.274-28.22-14.908-25.759-36.552
		c1.994-17.534-0.251-16.676,15.781-17.546c10.903-0.592,21.483,8.017,32.32,0.698c3.906,9.25,12.814,6.259,19.604,7.44
		C774.114,591.947,791.993,594.349,809.478,598.905z"/>
	<path style="fill:#B8B8B8;" d="M884.128,568.393c12.157-2.178,24.394-0.19,36.578-0.727c4.678-0.206,9.664,1.329,13.915-1.99
		c11.639-1.042,23.121,0.312,34.562,2.274c-4.784,4.656-11.236,0.747-16.448,3.202C929.856,570.484,906.928,571.026,884.128,568.393
		z"/>
	<path style="fill:#313326;" d="M767.649,535.759c-9.39,0-18.779,0-28.169,0c0.002-0.457,0.003-0.915,0.004-1.372
		c9.551,0,19.101,0,28.652,0C767.974,534.844,767.812,535.302,767.649,535.759z"/>
	<path style="fill:#313427;" d="M808.198,531.138c-1.688,0.874-3.376,1.747-5.064,2.621c-7.841,0-15.683,0-23.524,0
		c-0.026-0.874-0.051-1.747-0.077-2.621C789.088,531.138,798.643,531.138,808.198,531.138z"/>
	<path style="fill:#FDFDFD;" d="M100.799,620.479c-3.506-8.916,4.774-5.651,7.315-6.08c27.509-4.649,55.113-8.735,82.702-12.977
		c16.248,3.381,29.106,13.878,43.523,21.052c4.416,2.198-0.511,5.937-1.84,8.76c-4.896,10.397-14.947,18.216-15.406,30.836
		c-1.072,5.606-5.862,7.452-10.136,9.394c-24.715,11.227-50.292,20.388-75.211,31.137c-2.798,1.207-5.878,2.458-8.852,0.929
		c-2.578-1.325-4.11-3.367-0.754-5.75c11.681-14.635,23.363-29.271,35.044-43.906c-0.591-0.897-1.181-1.793-1.772-2.69
		c-18.526,4.795-37.053,9.59-55.579,14.385c-4.178,5.115-9.945,5.809-15.987,5.764c-2.676-1.733-7.93-0.157-7.567-5.835
		c25.646-8.518,51.292-17.035,80.919-26.875C135.854,631.757,118.326,626.118,100.799,620.479z"/>
	<path style="fill:#010101;" d="M84.453,668.433c5.127-0.955,10.253-1.91,15.38-2.864c3.055,0.27,6.365-0.118,9.112,0.946
		c5.846,2.265,15.244,0.754,16.286,8.734c1.102,8.443-9.264,5.812-13.505,9.68c-1.901,1.734-5.82,2.32-6.448,4.214
		c-4.987,15.037-13.793,15.557-26.473,8.985c-4.582-2.375-10.818-2.463-12.152-8.306c-1.406-6.157,2.819-10.698,7.186-14.583
		c1.619-1.44,3.482-2.606,5.234-3.897C80.113,668.979,83.089,670.196,84.453,668.433z"/>
	<path style="fill:#212221;" d="M122.14,697.779c0.511,1.467-2.322,5.836,1.507,4.146c30.982-13.67,63.636-23.43,93.44-39.85
		c11.49,0.488,20.518-7.275,31.254-9.3c6.725,6.329-0.459,7.776-3.833,9.591c-7.729,4.157-16.917,5.111-24.111,10.624
		c-31.738,10.148-61.468,25.417-92.95,36.201c-1.64,0.629,0.043,2.893-0.601,1.255c-0.196-0.498,0.099-0.741,0.764-1.018
		c5.181-2.155,10.048-3.254,12.787,3.494c-6.358,0.268-12.716,0.536-19.074,0.808C118.142,708.239,113.683,702.678,122.14,697.779z"
		/>
	<path style="fill:#AFAFAF;" d="M84.453,668.433c-1.793,0.97-3.587,1.939-5.38,2.909c-10.664,0.134-20.46,6.893-35.027,4.257
		c12.808-4.277,21.954-8.819,32.234-10.1C77.873,669.627,81.904,666.968,84.453,668.433z"/>
	<path style="fill:#FDFDFD;" d="M140.398,712.922c-5.525-1.058-11.05-2.117-17.852-3.42c9.821-6.649,20.378-9.332,30.243-13.43
		c18.249-7.58,36.577-14.97,54.893-22.385c4.464-1.807,8.918-3.907,13.983-2.64c11.438-1.224,22.591,1.07,33.719,3.043
		c7.776,1.379,11.778,6.159,8.543,14.108c-4.7,11.55-4.438,25.043-13.595,34.835c-1.031,5.738-4.291,9.501-9.09,12.995
		c-22.866,16.646-45.389,33.762-68.034,50.712c-1.913,0.923-3.826,1.846-8.076,3.896c9.096-21.31,17.339-40.621,26.742-62.649
		c-21.86,11.035-40.868,20.631-59.876,30.227c-2.971,1.692-5.222,1.869-5.3-2.521c19.082-12.055,38.165-24.11,60.538-38.245
		C169.413,715.725,154.905,714.323,140.398,712.922z"/>
	<path style="fill:#C6C6C6;" d="M126.697,755.692c1.767,0.84,3.533,1.681,5.3,2.521c-10.265,7.038-21.263,12.489-32.683,17.025
		c-0.529-0.981-1.059-1.961-1.588-2.942C107.382,766.761,117.039,761.226,126.697,755.692z"/>
	<path style="fill:#444444;" d="M75.751,788.911c2.506-6.205,6.819-9.949,13.009-10.785c0.645-0.087,2.39,2.249,2.2,2.547
		C87.452,786.139,80.946,786.069,75.751,788.911z"/>
	<path style="fill:#010103;" d="M763.239,671.43c-0.74,0.434-1.43,1.041-2.228,1.274c-7.025,2.051-17.277-1.461-20.641,4.876
		c-2.368,4.46,2.674,12.854,4.407,19.491c-0.819,3.918,1.704,9.523-4.821,10.637c-6.114,1.044-11.86-1.143-15.404-5.73
		c-6.734-8.716-15.124-14.38-24.192-20.544c-8.698-5.913-17.495-17.292-16.349-30.985c0.488-5.83,2.313-10.966,8.501-13.678
		c6.096-2.671,9.92-0.635,15.063,3.257c10.302,7.795,22.102,12.968,35.556,13.533c9.084,0.382,16.635,5.807,23.693,10.539
		C774.287,669.1,761.837,667.555,763.239,671.43z"/>
	<path style="fill:#F7F4F2;" d="M652.289,662.359c6.291,8.39,3.793,18.362,4.238,27.52c2.231,45.942,2.347,91.911-0.819,137.823
		c-0.441,11.981-0.882,23.979-1.324,35.976c-4.07,5.534,4.153,14.175-4.678,18.505c-0.335-12.012-0.67-24.025-1.005-36.058
		c1.924-15.377-0.89-30.577-1.52-45.848C645.278,754.169,649.461,708.29,652.289,662.359z"/>
	<path style="fill:#ABABAB;" d="M649.706,882.184c4.668-5.383,0.458-13.009,4.678-18.505c0.959,15.93,0.08,31.728-3.212,47.392
		C648.918,901.472,648.293,891.872,649.706,882.184z"/>
	<path style="fill:#BABABA;" d="M287.509,153.475c-0.971,1.031-1.942,2.062-2.912,3.093c-5.712-8.384-10.909-17.009-12.78-27.197
		C279.621,135.731,283.807,144.446,287.509,153.475z"/>
	<path style="fill:#010101;" d="M197.778,206.908c-4.492,6.731-10.271,5.246-13.993,0.366c-3.977-5.215-1.236-9.806,5.164-11.656
		C193.201,198.358,199.628,199.397,197.778,206.908z"/>
	<path style="fill:#CACACA;" d="M197.778,206.908c-2.943-3.763-5.886-7.527-8.829-11.29c-0.555-1.162-1.798-2.505-1.548-3.455
		c1.114-4.232,3.221-1.055,4.16-0.032c6.632,7.224,13.065,14.631,19.562,21.979c-1.01,1.069-2.021,2.138-3.031,3.207
		C204.654,213.847,201.216,210.378,197.778,206.908z"/>
	<path style="fill:#010101;" d="M250.332,723.033c3.217-11.212,5.536-22.789,9.913-33.528c4.056-9.952-0.048-11.971-8.492-12.788
		c-10.175-0.984-20.478-1.567-30.087-5.67c4.924-7.509,14.04-6.948,20.844-10.835c2.939-1.679,8.529-1.325,5.831-7.437
		c3.422-0.945,6.843-1.89,10.263-2.836c13.412,7.6,21.539-5.043,32.034-8.513c2.728-0.902,4.758-3.866,7.482-4.832
		c5.871-2.082,14.499-7.008,17.693-2.121c4.699,7.189,13.075,13.638,9.823,25.431c-2.987,10.832-7.798,18.483-17.203,24.744
		c-17.742,11.811-34.679,24.831-51.949,37.351C254.602,723.362,253.05,726.651,250.332,723.033z"/>
	<path style="fill:#010101;" d="M705.084,356.74c-8.763-0.807-14.281,2.663-19.004,10.58c-4.974,8.337-10.187,17.173-20.451,21.227
		c-5.763,2.276-10.758,3.141-16.12-0.124c-5.706-5.284-17.307-5.071-18.531-12.637c-1.159-7.168,7.611-12.962,11.785-19.499
		c8.897-13.936,18.117-27.555,30.514-41.485c0,5.499,0,8.942,0,12.386c-5.149,4.077-1.114,10.487-4.197,15.691
		c-2.791,4.711,2.158,4.523,5.98,4.331c12.625-0.636,24.869-4.899,37.648-3.825C717.943,352.274,708.068,352.541,705.084,356.74z"/>
	<path style="fill:#038355;" d="M620.399,372.737c-6.615-12.828-15.864-21.239-31.569-18.828c-6.224-0.654-4.433-4.112-2.649-7.568
		c8.26-20.028,16.563-40.037,24.75-60.094c2.264-5.547,3.662-11.54,8.978-15.252c7.751,9.97,5.692,22.336,7.933,33.591
		c1.696,8.519,3.913,10.935,12.752,6.949c9.841-4.437,18.536-12.843,30.672-10.957c-11.316,25.17-29.201,46.153-43.93,69.136
		C625.829,372.067,623.147,372.719,620.399,372.737z"/>
	<path style="fill:#010101;" d="M586.182,346.341c0.574,2.631-0.295,5.767,2.648,7.569c0.694,4.541-6.107,9.457,0.683,13.695
		c-4.729,11.118-9.317,22.308-16.218,32.337c-1.156-8.841-7.238-18.086,2.643-25.986c1.792-1.433,1.056-4.287-1.379-5.336
		c-2.914-1.256-3.404,1.243-4.413,3.213c-3.359,6.562-7.544,12.844-7.678,20.532c-0.192,11.022-5.411,11.345-13.281,6.564
		c8.021-2.624,5.831-10.474,8.141-16.004c1.789-4.283,3.303-8.681,4.94-13.028c1.989-1.627,3.745-3.761,6.004-4.798
		c12.707-5.834,13.348-7.813,3.278-16.933c-3.962-3.588-3.721-8.673-6.48-12.496c4.712-0.483,7.005,3.691,10.54,5.477
		C576.41,348.426,580.338,349.335,586.182,346.341z"/>
	<path style="fill:#050304;" d="M568.058,589.351c2.122,0.177,4.244,0.354,8.427,0.703c-12.675,7.998-24.622,13.011-36.681,17.759
		c-6.094,2.4-9.75-2.002-13.796-5.351c-8.04-6.655-14.39-19.841-23.388-19.381c-7.779,0.398-15.458,11.776-22.287,19.13
		c-6.45,6.946-12.716,7.941-20.892,3.557c-8.386-4.497-17.177-8.239-25.043-15.06c9.392,1.729,18.79,3.43,28.175,5.199
		c4.425,0.834,8.791,1.739,11.55-3.28c1.115-2.028,2.154-4.484-0.458-5.587c-4.09-1.727-7.908-5.613-13.055-0.83
		c-6.384,5.934-13.076,3.868-15.821-3.555c-4.779-12.923-11.807-9.873-20.139-4.604c-3.116,1.971-5.036,7.584-9.563,5.215
		c-4.04-2.114-1.783-7.21-2.4-10.947c-1.55-9.393-2.817-18.832-4.412-29.72c21.242,8.143,41.509,15.931,61.79,23.683
		c19.504,7.455,31.82-2.944,28.58-24.104c-1.205-1.213-1.113-2.319,0.273-3.318c1.377-5.287,1.408-10.587,0.151-15.899
		c-1.628-1.716-1.618-3.483-0.166-5.295c2.797-4.677-1.846-11.309,3.911-15.507c5.23,4.447,0.444,11.188,4.128,15.7
		c-0.14,7-3.467,13.993-0.053,21.002l0.081,0.123c0.89,0.566,1.221,1.178,0.996,1.836c-0.234,0.681-0.486,1.022-0.759,1.022
		c-2.111,7.299-3.437,13.938,3.664,20.127c7.686,6.699,14.471,8.751,24.551,4.323c19.495-8.563,39.708-15.49,60.695-23.504
		c-1.42,12.584-2.516,23.364-3.891,34.108c-0.929,7.259-4.215,5.758-8.893,2.613c-14.324-9.63-18.057-8.389-23.574,6.891
		c-5.425,10.331-14.6,1.473-21.59,4.183C548.304,593.048,558.169,590.902,568.058,589.351z"/>
	<path style="fill:#FBEAD0;" d="M457.464,641.645c-15.811-0.477-31.758-9.369-44.699-24.251c-1.979-2.276-4.763-4.895-2.027-7.945
		c2.303-2.567,4.776,0.309,7.033,1.214c22.63,9.071,45.122,7.832,67.764-0.211c4.116-1.462,9.861-9.112,12.856-1.523
		c2.394,6.066,4.712,16.338-2.591,20.636C485.488,635.634,474.722,642.372,457.464,641.645z"/>
	<path style="fill:#FBECD5;" d="M506.804,617.032c-0.788-7.218-0.43-12.686,8.597-8.888c24.704,10.394,49.435,14.549,74.331,0.534
		c1.99-1.12,4.461-1.349,5.873,0.814c1.339,2.051,0.279,3.797-1.452,5.61c-22.888,23.954-43.602,31.172-73.38,21.461
		C510.432,633.191,505.077,627.48,506.804,617.032z"/>
	<path style="fill:#080707;" d="M406.562,530.961c-8.749,5.874-13.642,15.539-22.525,23.533c-3.467-13.985-1.457-27.092-2.62-39.908
		c-0.526-5.8,4.22-4.428,7.464-4.173c7.878,0.618,15.763,1.303,23.59,2.365c7.647,1.038,12.777-1.386,14.752-9.178
		c2.688,1.332,3.584,3.629,3.48,6.465C423.277,517.747,412.735,521.831,406.562,530.961z"/>
	<path style="fill:#080906;" d="M580.736,512.411c11.514,1.882,22.627-1.823,33.956-2.57c7.562-0.499,11.642,0.719,10.477,9.658
		c-1.451,11.138-1.99,22.395-3.087,35.57c-4.955-5.375-8.584-9.312-12.214-13.25C602.354,529.839,589.911,522.744,580.736,512.411z"
		/>
	<path style="fill:#080907;" d="M555.36,501.531c-6.811-5.889-16.162-5.516-26.383-10.268c12.882-6.763,23.964-12.641,35.106-18.403
		c5.358-2.771,5.721,2.36,6.567,4.983c3.717,11.524,6.96,23.2,10.374,34.821C571.688,510.755,565.224,502.224,555.36,501.531z"/>
	<path style="fill:#060709;" d="M430.703,510.064c-2.608-1.375-3.032-3.925-3.48-6.464c8.575-33.045,8.579-33.053,38.548-17.719
		c1.495,0.765,2.817,1.868,4.219,2.814c1.541,1.768,1.534,3.527-0.032,5.276c-10.178,3.816-21.192,5.678-29.949,12.814
		C436.908,507.879,433.805,508.972,430.703,510.064z"/>
	<path style="fill:#CFB958;" d="M568.058,589.351c-7.997,2.075-15.999,4.127-23.988,6.234c-4.805,1.267-9.472,2.404-12.432-3.355
		c-1.08-2.101-2.005-4.443,0.585-5.474c4.17-1.659,8.471-5.513,13.124-0.671c4.65,4.839,9.553,2.529,14.409,0.316
		C561.736,589.602,565.242,588.507,568.058,589.351z"/>
	<path style="fill:#433401;" d="M506.888,538.862c-5.726-7.015-3.378-14.01,0.053-21.002c8.554,0,17.108,0,26.94,0
		c-3.703,6.712-8.555,4.417-12.325,4.516C505.447,522.799,505.444,522.654,506.888,538.862z"/>
	<path style="fill:#583910;" d="M498.903,517.667c0.056,1.765,0.111,3.53,0.166,5.295c-8.722-0.127-17.446-0.221-26.165-0.45
		c-0.627-0.017-1.227-1.021-2.897-2.506C479.828,515.33,489.596,518.471,498.903,517.667z"/>
	<path style="fill:#331B00;" d="M498.918,538.861c-0.091,1.106-0.181,2.213-0.273,3.319c-12.429-0.001-24.857-0.001-37.284-0.001
		c0.015-1.106,0.03-2.212,0.045-3.318C473.91,538.861,486.414,538.861,498.918,538.861z"/>
	<path style="fill:#402301;" d="M507.206,541.843c-0.079-0.953-0.158-1.906-0.237-2.858c11.658-0.383,23.335-1.235,34.924,2.858
		C530.33,541.843,518.768,541.843,507.206,541.843z"/>
	<path style="fill:#0B0707;" d="M544.478,717.072c-1.391,3.143-1.877,4.307-2.416,5.447c-3.18,6.726-4.728,15.707-10.011,19.55
		c-5.591,4.067-13.681-2.78-21.019-3.125c-8.388-0.394-17.137-1.278-24.752,2.154c-9.763,4.4-14.205,1.389-16.943-8.005
		c-1.327-4.554-3.891-8.749-7.137-15.808C490.449,728.3,516.964,728.301,544.478,717.072z"/>
	<path style="fill:#130A05;" d="M532.826,705.898c-8.684-0.591-17.321-1.391-23.76,6.575c-3.965,4.906-8.486,3.786-12.174-0.365
		c-5.912-6.656-13.375-7.323-21.425-6.408c-4.673,0.143-10.15,4.285-13.388-2.696c7.572-1.971,16.337-7.352,22.469-5.206
		c12.961,4.535,23.899,4.674,36.854-0.175c5.94-2.223,14.813,3.389,22.356,5.448C541.568,709.64,536.691,705.81,532.826,705.898z"/>
	<path style="fill:#5D420B;" d="M462.079,703.004c3.756,4.419,9.154,0.676,13.391,2.695c-8.78,3.503-17.862,3.07-29.675,2.41
		C452.462,704.62,457.05,703.187,462.079,703.004z"/>
	<path style="fill:#56350D;" d="M532.826,705.898c3.464-1.638,7.969,0.751,10.931-2.826c4.428,1.01,8.855,2.021,13.282,3.031
		C548.73,709.18,540.719,709.072,532.826,705.898z"/>
	<path style="fill:#080908;" d="M469.959,493.972c0.011-1.759,0.021-3.517,0.032-5.276c13.247,2.807,15.15-9.967,21.03-16.302
		c12.694-13.677,12.054-14.224,23.753,1.194c4.136,5.45,8.445,10.769,14.526,18.501C507.641,490.034,488.66,489.823,469.959,493.972
		z"/>
	<path style="fill:#040506;" d="M331.479,604.593c-0.295-8.893,1.474-17.494,5.204-25.435c5.928-12.62,16.032-13.461,24.225-2.454
		c9.939,13.351,11.187,43.667,2.375,57.661c-7.164,11.376-17.228,11.725-24.806,0.374
		C332.447,625.709,331.11,615.269,331.479,604.593z"/>
	<path style="fill:#09090A;" d="M673.748,603.824c-0.585,10.84-1.034,20.117-5.32,28.548c-2.662,5.236-6.347,10.178-12.669,10.302
		c-6.207,0.122-10.583-3.974-13.079-9.552c-8.394-18.756-8.25-37.377,1.512-55.636c2.868-5.365,7.216-8.854,13.712-8.641
		c6.963,0.229,9.572,5.381,11.817,10.76C673.174,587.876,673.081,596.742,673.748,603.824z"/>
	<path style="fill:#DA3F45;" d="M426.962,620.905c19.943,4.988,39.104,4.089,57.749-4.328c2.622-1.184,6.216-2.472,6.989,2.431
		c0.743,4.717-0.606,7.941-5.375,10.52C469.163,638.812,441.85,635.585,426.962,620.905z"/>
	<path style="fill:#DE4047;" d="M578.606,621.248c-17.699,15.211-37.369,16.783-58.395,8.703c-5.57-2.14-9.616-6.032-7.022-11.907
		c2.62-5.933,7.573-1.629,11.19-0.235C542.057,624.623,559.984,625.809,578.606,621.248z"/>
	<path style="fill:#D9DCDE;" d="M356.693,606.289c-1.079,8.23,1.101,20.186-6.105,20.336c-7.808,0.162-4.858-11.992-6.296-18.69
		c-1.053-4.906-0.031-10.435,0.919-15.527c0.56-3,0.285-8.235,5.036-7.729c3.946,0.42,4.282,4.867,4.677,8.441
		C355.45,597.88,356.191,602.618,356.693,606.289z"/>
	<path style="fill:#ECF2EF;" d="M655.764,626.906c-7.514-14.158-9.115-28.212,0.303-45.297
		C662.314,598.636,662.961,612.739,655.764,626.906z"/>
</g>
</svg>
