<?xml version="1.0" encoding="utf-8"?>
<!-- Generator: Adobe Illustrator 28.3.0, SVG Export Plug-In . SVG Version: 6.00 Build 0)  -->
<svg version="1.1" id="Layer_1" xmlns="http://www.w3.org/2000/svg" xmlns:xlink="http://www.w3.org/1999/xlink" x="0px" y="0px"
	 viewBox="0 0 1000 1000" style="enable-background:new 0 0 1000 1000;" xml:space="preserve">
<path style="fill:#003200;" d="M566.18,780.082c-18.171,21.425-38.608,38.633-61.937,55.685
	c3.935-14.364,7.604-26.864,10.768-39.491c6.198-24.739,10.07-49.772,7.123-75.362c-4.98-43.249-32.428-69.919-67.969-89.835
	c-29.893-16.751-63.03-22.093-96.723-24.886c-11.379-0.943-22.738-0.908-34.117-1.005c-13.233-0.112-16.969-3.706-17.876-17.081
	c-0.25-3.694-0.567-7.383-0.963-12.485c-16.114,10.742-34.36,8.768-51.118,13.338c-38.64,10.537-72.673,28.567-100.377,57.848
	c-1.359,1.436-2.908,2.693-5.466,5.04c5.524-81.42,28.725-155.36,74.59-221.993c-25.615-8.329-50.677-14.91-76.579-4.164
	c-5.648,2.343-6.958-2.638-9.879-4.893c-3.613-2.789-0.493-5.101,0.868-7.434c10.894-18.665,22.169-37.118,32.633-56.02
	c12.471-22.528,31.336-38.929,50.604-55.101c3.215-2.698,7.212-4.663,10.14-9.746c-39.901,1.611-77.283,11.184-116.243,21.269
	c7.784-14.087,15.133-26.679,23.445-38.713c8.471-12.265,17.437-24.167,27.694-34.989c10.453-11.029,21.277-21.703,33.43-30.919
	c11.908-9.031,24.599-16.754,37.909-23.568c13.253-6.784,27.334-11.302,41.57-17.135c-27.737-6.513-55.473-13.026-83.738-19.663
	c34.022-35.992,77.32-54.664,165.796-71.521c-22.666-6.97-43.71-13.442-65.813-20.239c30.275-21.872,62.117-36.838,97.816-43.021
	c38.354-6.644,76.51-8.299,114.241,4.073c3.157,1.035,7.157,5.998,9.435,2.428c2.141-3.357-3.391-6.075-5.932-8.646
	c-2.427-2.455-5.56-4.213-7.737-7.278c19.286-5.315,37.988-5.447,56.508-3.192c39.834,4.851,77.646,16.326,111.878,37.882
	c30.21,19.023,54.177,44.3,72.493,74.811c3.785,6.306,5.948,5.736,10.53,1.177c14.305-14.235,14.428-14.072,30.475-2.089
	c20.066,14.984,33.584,34.763,41.718,58.179c1.964,5.653,4.543,6.897,9.336,4.586c6.862-3.309,9.684-0.39,12.037,6.054
	c9.915,27.156,20.298,54.135,29.576,81.53c3.305,9.759,2.185,17.755-5.577,24.436c-3.304,2.844-3.419,5.607-1.548,9.127
	c11.975,22.528,8.286,43.362-7.342,62.55c-3.285,4.034-2.38,6.999-0.41,10.935c8.635,17.258,15.434,35.269,22.215,53.332
	c5.371,14.309,2.703,26.437-8.326,35.619c-10.569,8.799-14.718,19.39-15.15,32.397c-0.084,2.542-0.388,5.821-1.955,7.44
	c-7.047,7.278-7.671,17.357-12.06,25.657c-4.133,7.815-4.223,15.209-0.908,22.646c8.122,18.22,3.34,35.993-1.166,53.804
	c-0.922,3.643-2.834,7.027-4.187,10.57c-8.17,21.405-27.442,21.871-45.659,24.028c-11.622,1.376-23.245,0.642-34.9-0.624
	c-7.133-0.775-13.827,2.227-19.642,6.238c-11.303,7.797-20.139,18.222-25.578,30.582c-3.645,8.284,0.481,17.709,0.952,26.622
	c1.197,22.682,3.4,45.315,0.436,68.035c-3.793,29.08-18.357,52.508-37.918,73.407c-7.581,8.1-15.059,16.298-22.648,24.39
	c-13.191,14.064-15.105,31.881-15.775,49.727c-0.958,25.495,3.065,50.573,8.662,75.379c0.989,4.384,1.524,7.283-3.977,9.413
	c-5.457,2.113-7.114-0.365-9.505-4.165c-8.872-14.098-17.968-28.055-27.07-42.007c-16.085-24.655-19.095-52.184-17.788-80.648
	c0.602-13.11,2.22-26.105,4.887-38.969c0.459-2.217,0.7-4.351-0.705-6.69C584.547,811.528,575.631,796.177,566.18,780.082z"/>
<path d="M629.451,962.617c-26.667-30.681-30.797-65.571-26.407-102.792c1.158-9.821,2.577-19.583,4.288-29.294
	c0.585-3.318-0.484-5.522-1.977-8.038c-11.605-19.552-23.303-39.053-34.639-58.761c-3.276-5.695-4.857-2.568-7.294,0.375
	c-9.302,11.23-18.799,22.291-29.412,32.333c-1.906,1.803-3.678,3.804-7.078,3.755c5.075-22.769,9.202-45.544,8.239-68.97
	c-1.453-35.333-15.4-63.742-42.148-87.574c-33.939-30.238-74.046-42.608-117.695-47.73c-16.205-1.902-32.386-3.813-48.71-3.253
	c-6.721,0.231-9.594-1.939-9.32-8.998c0.408-10.491-3.475-19.975-8.381-29.06c-1.392-2.578-3.925-5.463-5.138-0.981
	c-4.424,16.347-18.085,17.487-30.908,19.313c-39.566,5.635-75.014,20.726-106.708,44.914c-0.391,0.299-1.086,0.2-2.999,0.499
	c1.823-11.301,3.016-22.319,5.439-33.06c8.169-36.223,19.804-71.327,37.051-104.288c10.119-19.339,20.317-38.803,36.227-54.366
	c2.327-2.276,4.575-5.159-0.705-5.936c-23.512-3.461-45.643-14.476-70.153-12.615c-5.151,0.391-10.339,0.405-15.768,1.903
	c22.141-54.205,58.515-95.048,108.635-123.912c-8.825-8.028-41.782-6.605-61.537-3.936c-20.343,2.749-40.531,6.703-62.024,12.257
	c4.659-11.625,11.867-20.074,18.633-28.342c24.21-29.582,51.429-55.726,87.086-71.591c20.944-9.318,42.411-16.46,65.573-16.067
	c6.631,0.113,7.929-3.441,8.7-8.116c0.951-5.768-3.865-5.405-7.394-6.243c-29.41-6.977-58.821-13.951-88.233-20.922
	c-1.084-0.257-2.387-0.083-3.007-2.039c6.545-7.267,15.397-11.732,23.916-16.422c32.282-17.774,66.93-28.098,103.468-32.7
	c13.879-1.748,27.671-3.656,41.696-3.368c2.944,0.061,7.017,1.211,7.271-3.855c0.214-4.281,1.145-8.644-5.044-10.419
	c-17.073-4.898-34.005-10.286-50.985-15.507c-5.527-1.699-11.029-3.48-18.154-5.732c15.878-10.872,31.953-17.146,48.568-22.168
	c31.441-9.504,63.908-11.291,96.153-8.492c29.042,2.52,56.128,12.824,78.979,32.086c1.551,1.308,3.54,2.14,4.948,3.567
	c3.787,3.839,6.077,1.029,8.622-1.574c3-3.067,1.966-5.57-0.607-8.293c-8.615-9.12-17.227-18.248-25.572-27.611
	c-1.77-1.985-4.955-4.51-3.527-7.336c1.813-3.587,5.161-0.223,7.823-0.324c18.252-0.688,35.91,2.986,53.446,7.258
	c42.594,10.377,80.177,29.968,110.522,62.049c13.843,14.636,25.991,30.668,34.928,48.919c3.899,7.963,6.01,8.252,12.85,2.341
	c3.964-3.426,8.418-6.416,11.823-10.324c4.262-4.893,7.692-4.379,12.543-0.825c20.636,15.121,33.705,35.475,40.43,59.698
	c2.383,8.584,5.375,11.966,13.82,8.244c4.128-1.82,6.605-1.739,8.437,3.468c8.222,23.365,16.59,46.692,25.615,69.754
	c3.391,8.665,1.484,14.747-5.9,19.11c-5.372,3.174-5.645,6.679-3.086,11.619c1.602,3.094,2.468,6.576,4.126,9.633
	c10.975,20.237,3.428,37.403-9.965,52.522c-5.628,6.354-3.787,10.477-0.601,16.052c10.018,17.53,16.812,36.448,23.852,55.287
	c5.204,13.926-2.583,23.12-12.087,29.763c-8.656,6.05-10.113,13.403-10.696,22.432c-0.5,7.736-0.484,15.939-8.543,20.767
	c-1.942,1.164-1.678,3.515-1.958,5.556c-0.392,2.863-0.544,6.009-1.871,8.452c-7.995,14.714-5.485,28.855-1.335,44.486
	c5.392,20.307-1.426,39.67-13.025,57.078c-1.863,2.796-4.96,3.138-7.638,3.826c-18.265,4.695-36.754,4.813-55.485,3.193
	c-14.261-1.234-25.695,6.183-35.829,15.305c-8.752,7.878-15.296,17.669-20.785,27.955c-5.791,10.852-0.363,22.207,0.162,33.288
	c1.651,34.815,6.386,69.862-11.905,102.359c-6.782,12.049-15.955,22.207-25.024,32.441c-7.737,8.73-16.149,16.873-23.695,25.758
	c-9.202,10.834-12.08,24.244-14.254,37.918c-3.198,20.111-1.186,39.995,1.726,59.893
	C629.992,959.281,629.659,960.423,629.451,962.617z"/>
<path style="fill:#FED65B;" d="M664.662,492.636c11.211-10.145,15.106-22.739,16.059-36.452c0.323-4.647,1.928-6.419,6.906-6.29
	c13.889,0.361,27.793,0.126,44.065,0.126c-11.979-10.546-20.633-20.906-29.021-31.573c-7.706-9.799-8.847-20.036-6.996-31.996
	c6.666-43.071,35.384-66.837,72.102-83.6c16.815-7.677,34.729-11.784,53.102-14.171c7.263-0.943,11.236,1.753,13.298,8.12
	c6.762,20.879,10.372,40.001-13.384,57.861c-5.313,3.994-4.557,9.425-1.545,13.924c13.615,20.34,19.017,43.749,25.425,66.76
	c1.781,6.398-5.888,14.678-13.333,15.29c-2.906,0.239-5.88-0.234-8.768,0.1c-9.997,1.156-18.336,0.474-18.983-12.723
	c-0.129-2.639-1.51-7.227-5.44-6.802c-3.24,0.35-3.044,4.491-3.713,7.218c-3.367,13.72,3.102,22.728,16.985,23.897
	c5.799,0.488,11.583,1.156,17.369,1.782c3.685,0.399,4.411,1.969,3.811,5.915c-3.365,22.109-3.196,22.134-25.193,22.135
	c-4.388,0-8.798-0.266-13.161,0.068c-9.149,0.701-16.699,4.473-22.794,13.163c16.74,2.507,33.15-1.589,50.183,3.457
	c-15.643,10.667-13.685,24.864-10.27,39.386c0.067,0.284,0.184,0.556,0.254,0.84c2.83,11.468,6.652,23.954-4.93,32.21
	c-12.412,8.848-26.541,7.197-40.068,1.198c-6.315-2.8-10.571-8.203-15.287-12.958c-10.307-10.393-20.445-21.061-34.517-26.428
	c-9.321-3.555-18.944-5.954-29.051-3.677c-4.142,0.933-6.005-0.267-5.548-4.769c0.441-4.349,0.451-8.74,0.721-13.108
	C683.976,504.809,681.439,500.561,664.662,492.636z"/>
<path style="fill:#FEFEFE;" d="M510.838,205.54c19.907,4.955,40.042,8.125,59.393,14.542c9.164,3.039,18.209,6.312,25.913,12.408
	c4.82,3.814,6.054,6.805,1.16,12.586c-9.82,11.6-18.409,17.269-34.455,8.451c-15.488-8.511-34.139-9.665-51.94-10.202
	c-28.557-0.861-57.222-2.263-85.509,3.527c-7.362,1.507-14.539,3.913-23.098,6.261c2.494-7.589,4.776-14.535,7.411-22.555
	c-7.82,3.701-13.919,7.239-16.442,14.837c-3.156,9.503-9.812,14.49-19.777,15.536c-3.741,0.393-7.384,1.713-11.465,2.706
	c-1.741-6.518,2.617-12.826,0.669-19.684c-7.589,6.563-10.382,17.78-19.123,21.335c-11.696,4.757-24.574,6.609-37.721,9.902
	c15.546-34.316,39.532-56.927,76.228-65.633c-7.783,0.413-15.577,0.682-23.345,1.279c-8.082,0.622-16.139,1.562-24.586,2.4
	c4.375-16.788-9.017-17.638-19.622-21.664c4.601-3.554,9.247-3.931,13.611-5.113c34.509-9.346,69.625-12.815,105.366-14.278
	c52.108-2.133,101.869,9,151.613,21.584c16.239,4.108,30.971,11.602,44.405,21.709c-0.611,0.789-0.931,1.278-1.323,1.7
	c-9.169,9.871-17.985,12.166-31.724,5.601C569.734,209.999,540.826,203.768,510.838,205.54z"/>
<path style="fill:#FEFEFE;" d="M562.842,273.486c-15.913,17.457-33.434,33.168-44.643,53.31
	c-7.393,13.285-16.815,16.361-30.495,17.108c-21.171,1.156-42.241,4.28-63.328,6.787c-12.707,1.511-12.681,1.695-15.774-10.929
	c-0.392-1.599,0.127-3.671-3.558-4.716c1.163,18.706-13.148,21.67-26.332,25.942c-2.735,0.886-5.316,2.245-8.756,3.725
	c-0.603-9.614,3.684-18.151,3.438-28.408c-6.142,8.31-9.548,16.598-12.94,24.881c-0.981,2.397-1.341,4.989-4.425,5.973
	c-19.481,6.214-37.457,15.752-56.369,24.721c5.092-7.884,10.23-15.739,15.26-23.663c3.286-5.177,7.551-10.083,9.401-15.755
	c5.675-17.395,19.285-26.036,34.303-33.636c5.421-2.743,10.513-6.139,15.532-9.826c-10.848,1.145-21.384,3.462-31.546,7.071
	c-4.631,1.644-8.006,1.425-11.816-1.887c-9.657-8.397-19.897-16.077-31.783-23.084c26.238-8.62,52.117-14.462,78.185-19.221
	c38.163-6.966,76.678-11.49,115.54-10.653C516.279,261.731,539.842,263.473,562.842,273.486z"/>
<path style="fill:#FEFEFE;" d="M352.812,426.525c-18.035,5.736-32.585,16.918-45.729,29.739c-5.362,5.23-9.494,5.805-15.822,2.857
	c-10.045-4.68-20.374-8.773-30.694-12.831c-4.851-1.908-4.719-3.977-1.49-7.45c9.774-10.512,22.122-17.398,34.769-23.296
	c47.221-22.022,95.78-40.328,147.468-48.889c17.724-2.936,35.632-4.536,54.748-4.391c-6.789,13.121-16.899,23.72-19.232,37.169
	c-2.886,16.645-13.03,23.211-27.441,29.021c-27.38,11.038-53.122,25.503-75.006,46.237c-1.728-5.329-3.249-10.016-5.471-16.868
	c-3.781,13.276-7.888,24.442-17.51,33.46c-1.033-4.945-1.894-9.071-2.823-13.516c-3.887,3.031-2.267,7.315-3.217,10.817
	c-1.17,4.314-2.793,8.309-6.104,11.419c-2.933,2.754-5.936,5.434-9.457,8.647c-1.463-7.722-2.734-14.425-4.191-22.113
	c-1.081,1.649-2.319,2.656-2.254,3.57c1.17,16.453-8.725,27.818-17.924,39.538c-5.554,7.076-11,14.237-17.974,23.278
	c1.1-26.868,2.821-51.591,14.736-73.611C314.065,457.376,334.344,442.668,352.812,426.525z"/>
<path style="fill:#980000;" d="M617.711,396.348c-9.664,0.935-18.159,5.111-26.197,9.725c-1.695-1.037-1.512-2.124-0.818-3.147
	c21.487-31.659,42.026-64.129,69.895-90.781c39.93-38.186,82.953-71.941,135.519-91.593c25.207-9.424,25.074-9.68,31.939,15.891
	c2.648,9.862,5.446,19.685,8.261,29.501c1.107,3.861,1.503,6.427-4.072,7.018c-25.01,2.649-47.734,12.811-70.812,21.935
	c-55.957,22.122-91.83,65.828-122.904,114.423c-10.055,15.725-21.429,28.355-40.709,31.484c-1.435,0.233-2.882,0.509-4.329,0.539
	c-5.495,0.113-12.635,1.142-15.336-3.426c-2.432-4.114,3.348-8.689,6.085-12.639C592.863,412.816,604.048,403.197,617.711,396.348z"
	/>
<path style="fill:#FEFEFE;" d="M414.832,97.937c29.066,1.75,57.269,7.587,85.335,14.087
	c55.978,12.965,109.096,34.018,161.276,57.632c15.317,6.932,14.528,6.67,2.509,17.543c-12.151,10.992-21.981,12.366-37.755,4.716
	c-37.004-17.946-77.627-24.52-118.22-29.754c-12.397-1.598-24.875-2.999-37.35-3.397c-7.896-0.252-8.56-2.574-4.754-8.516
	c1.034-1.615,1.619-3.517,3.487-7.697c-19.366,13.589-38.867,16.887-59.742,16.255c-13.715-0.415-27.04,3.957-40.288,7.479
	c-2.23,0.593-4.339,1.755-7.949,0.79c20.261-19.757,42.384-34.634,70.453-37.932c8.658-1.017,7.096-3.114,3.509-8.357
	C429.561,112.334,422.963,104.745,414.832,97.937z"/>
<path style="fill:#FEFEFE;" d="M573.752,587.312c4.721-15.997,10.645-31.516,18.535-46.238c1.184-2.208,1.742-5.703,4.823-5.535
	c2.991,0.163,4.989,2.843,6.37,5.501c5.904,11.358,7.134,23.767,8.667,37.294c-6.089-3.187-7.022-9.458-12.291-13.525
	c2.119,9.541,4.108,18.058,5.861,26.623c0.637,3.111,1.07,6.349,0.972,9.509c-0.3,9.71-2.74,11.672-11.525,8.125
	c-7.004-2.828-8.616-1.092-9.224,6.16c-1.263,15.074,0.767,29.704,3.918,44.267c2.259,10.438,0.818,20.276-3.515,29.833
	c-8.469,18.678-18.944,36.194-30.867,52.857c-0.782,1.092-1.219,2.747-3.983,2.587c0.518-8.506,0.73-17.011,1.603-25.447
	c3.153-30.478,3.105-60.498-9.351-89.413c-7.054-16.374-3.753-32.398,5.493-46.733c4.482-6.95,2.514-8.784-3.741-11.273
	c-5.094-2.027-10.28-4.229-14.985-8.479c18.414-9.031,32.776-22.905,47.591-36.766c-3.644,19.561-6.706,38.891-6.564,58.57
	c0.038,2.036,0.148,4.081,0.058,6.109c-0.091,2.027-0.382,4.037-1.146,6.003C572.052,594.203,570.837,589.998,573.752,587.312z"/>
<path style="fill:#FEFEFE;" d="M691.681,166.06c-15.413-6.855-29.968-13.15-44.371-19.775c-20.719-9.531-41.615-18.545-64.06-23.251
	c-10.1-2.118-0.449-6.835-2.312-10.791c-4.691,1.597-9.944,3.385-17.124,5.83c2.49-5.278,4.236-8.98,5.996-12.711
	c-0.484-0.246-1.157-0.828-1.409-0.683c-15.895,9.184-31.965,5.69-48.125,0.867c-15.942-4.758-32.142-8.78-47.167-16.144
	c-4.55-2.23-9.717-3.901-12.968-9.813c18.016,4.629,35.474,6.34,53.819,6.979c-2.503-7.122-4.704-13.387-6.938-19.744
	C566.259,59.996,673.58,117.217,691.681,166.06z"/>
<path style="fill:#003300;" d="M532.212,656.56c-7.512-9.979-12.394-19.817-19.369-28.303
	c-10.998-13.379-24.242-22.954-39.74-30.576c-26.457-13.012-54.778-16.282-83.432-19.458c-15.185-1.684-30.225-1.761-45.316-0.668
	c-4.619,0.335-4.52-1.897-3.74-4.459c1.688-5.546,5.743-9.312,10.588-12.333c8.102-5.05,17.188-8.107,26.409-8.308
	c30.244-0.661,60.715-2.221,90.192,6.781c19.222,5.87,37.36,14.659,55.875,22.408c2.953,1.236,5.421,3.194,3.743,6.671
	c-8.809,18.257-2.56,35.803,2.193,53.459C530.767,646.053,532.739,650.214,532.212,656.56z"/>
<path style="fill:#FEFEFE;" d="M467.921,457.881c9.194-2.038,13.194-10.384,21.947-12.255c-5.898,25.547-10.942,50.859-22.765,74.13
	c-1.797,3.537-4.388,7.822-9.003,7.141c-4.698-0.693-5.329-5.598-6.381-9.526c-0.375-1.401-0.657-2.836-0.865-4.272
	c-1.605-11.126-2.143-11.711-13.394-10.21c-9.324,1.244-17.895,5.076-26.621,8.394c-2.746,1.044-6.463,3.392-8.87,0.882
	c-2.11-2.2,0.358-5.536,1.376-8.15c8.436-21.65,24.264-37.511,41.548-52.076c7.119-5.999,14.875-11.246,22.387-16.773
	c2.42-1.78,5.045-3.564,7.339,0.174c1.765,2.876,6.18,4.922,2.137,9.512C473.619,448.413,471.348,452.738,467.921,457.881z"/>
<path style="fill:#980000;" d="M655.539,404.098c3.53,0.953,3.847,3.969,4.435,6.841c5.19,25.35,4.111,49.881-4.202,74.939
	c-13.549,40.842-60.052,42.143-85.418,24.685c-9.427-6.488-17.728-14.345-24.042-24.03c-1.367-2.097-3.876-4.784-1.736-7.066
	c2.655-2.832,5.39,0.164,7.665,1.639c8.575,5.558,16.748,11.783,25.566,16.907c33.628,19.541,61.114,1.859,66.269-35.487
	c2.414-17.49-0.091-35.782,8.221-52.374C653.321,408.109,653.412,405.595,655.539,404.098z"/>
<path style="fill:#FDFDFD;" d="M587.668,62.552c57.676-3.016,125.333,30.137,131.521,89.622
	C677.431,118.507,636.342,84.973,587.668,62.552z"/>
<path style="fill:#003300;" d="M671.559,256.629c1.168-3.968,9.197-1.466,7.492-6.213c-1.477-4.111-7.347-1.513-11.254-1.863
	c-1.652-0.148-3.387,0.641-5.085,1.005c-4.001,0.858-7.359,1.178-5.549-4.843c1.913-6.366-2.813-5.161-6.058-4.702
	c-5.437,0.769-10.78,2.187-16.209,3.031c-1.868,0.29-4.442,0.996-5.628-1.077c-1.359-2.374,1.376-3.436,2.478-4.985
	c15.197-21.369,36.36-21.147,58.737-16.045c11.14,2.54,21.802,6.338,30.55,14.145c5.123,4.573,4.896,8.78-0.678,12.902
	c-5.369,3.97-10.483,8.284-15.858,12.246C694.272,267.767,680.59,266.182,671.559,256.629z"/>
<path style="fill:#003300;" d="M628.011,289.055c-5.531-0.212-8.915-0.241-12.417,0.647c-7.803,1.978-8.363,1.218-6.006-7.771
	c-5.332,1.114-10.234,2.235-15.178,3.124c-1.922,0.346-4.303,1.009-5.636-0.984c-1.115-1.666,0.439-3.331,1.174-4.828
	c3.913-7.979,10.091-13.909,18.536-16.264c21.241-5.924,42.394-6.391,63.013,3.068c8.859,4.064,9.359,5.966,2.647,12.798
	c-3.068,3.123-6.768,5.801-9.181,9.36c-9.025,13.312-20.363,15.591-34.979,9.712C624.451,295.692,622.463,294.527,628.011,289.055z"
	/>
<path style="fill:#003300;" d="M538.444,424.089c3.923-4.433,6.741-7.616,10.846-12.255c-11.908,3.057-21.312,7.417-30.18,13.074
	c-0.436-0.751-0.946-1.215-0.903-1.621c0.32-3.01,4.557-5.849,1.679-8.714c-2.823-2.811-6.553-0.275-9.884,0.547
	c-6.691,1.651-11.59,6.262-18.431,11.793c4.166-12.277,10.753-19.983,19.468-25.922c20.728-14.124,44.448-17.703,68.746-19.123
	c6.279-0.367,7.113,2.31,4.387,7.349c-2.081,3.846-4.618,7.615-5.807,11.747C572.666,420.766,556.143,421.517,538.444,424.089z"/>
<path style="fill:#003300;" d="M713.628,218.622c4.739-10.471,4.725-10.158-6.459-10.683c-6.621-0.31-13.19-1.776-19.777-2.759
	c-4.648-0.693-4.806-3.071-2.671-6.669c5.375-9.06,22.267-16.063,32.775-14.334c18.333,3.017,34.907,9.078,46.963,24.111
	c5.532,6.898,5.061,8.772-2.932,11.855c-7.913,3.052-15.749,6.353-22.509,11.513c-4.405,3.363-7.78,0.807-7.776-2.52
	C731.256,216.205,722.274,218.516,713.628,218.622z"/>
<path style="fill:#003200;" d="M545.079,376.639c1.505-3.425,2.065-4.751,2.668-6.059c1.11-2.41,2.572-5.071,0.059-7.188
	c-2.003-1.688-4.373-0.417-6.572,0.524c-7.972,3.411-16.304,5.984-25.612,12.521c3.811-14.518,11.881-21.999,22.262-27.535
	c8.121-4.331,17.189-6.083,26.054-6.526c15.572-0.779,31.078-5.137,46.841-1.244c4.384,1.083,5.753,1.78,2.364,5.859
	c-6.312,7.595-12.136,15.593-18.308,23.308c-3.792,4.74-16.787,6.254-21.802,2.884c-4.382-2.945,2.789-3.764,0.08-6.853
	C564.105,367.012,555.121,370.22,545.079,376.639z"/>
<path style="fill:#003300;" d="M601.258,302.879c7.491,0.162,17.079-0.47,26.628,1.667c11.106,2.485,12.262,4.69,5.817,13.61
	c-0.851,1.178-1.575,2.46-2.518,3.558c-11.229,13.072-22.579,17.729-37.798,8.283c-8.235-5.111-12.645-0.226-18.669-0.931
	c-1.388-0.162-3.888,0.185-3.564-1.427c2.232-11.108-4.906-3.723-7.341-3.425c-4.564,0.557-8.99,2.301-13.452,3.624
	c-1.898,0.563-3.957,2.214-5.614,0.167c-1.615-1.996,0.239-3.666,1.249-5.437c7.885-13.824,20.338-19.328,35.615-19.667
	C587.456,302.771,593.306,302.879,601.258,302.879z"/>
<path style="fill:#003200;" d="M779.522,189.573c-5.022-3.22-9.934,5.649-13.374,0.885c-2.272-3.147-0.868-8.963-1.07-13.586
	c-0.152-3.459-2.283-4.352-4.504-2.344c-7.171,6.481-11.236-0.66-16.4-3.258c-3.578-1.8-3.016-3.8-0.441-5.871
	c5.87-4.724,11.817-9.352,17.715-14.043c2.628-2.09,4.935-0.523,7.291,0.559c9.702,4.456,15.592,12.969,21.521,21.141
	c4.922,6.783,8.609,14.453,12.995,21.638c2.349,3.848,1.857,6.213-2.635,7.853c-4.624,1.688-9,4.045-13.581,5.867
	c-2.696,1.072-5.352,4.737-8.495,1.229c-2.642-2.948-3.522-6.662-2.55-10.62C776.801,195.73,779.703,193.169,779.522,189.573z"/>
<path style="fill:#980000;" d="M676.275,701.792c-10.456-6.977-20.563-13.731-30.681-20.467
	c-5.837-3.886-11.305-8.608-17.619-11.435c-13.727-6.147-16.721-16.44-13.06-30.812c14.99,8.931,29.934,17.832,44.873,26.742
	c1.003,0.598,1.945,1.299,2.947,1.9C681.158,678.755,681.159,678.753,676.275,701.792z"/>
<path style="fill:#970000;" d="M614.521,676.436c13.141,10.151,25.322,19.548,37.488,28.966c3.232,2.502,6.394,5.096,9.631,7.592
	c14.034,10.819,14.534,12.968,8.589,29.981c-1.676,4.797-3.414,3.576-5.941,1.015c-16.426-16.651-32.893-33.26-49.301-49.928
	C609.756,688.745,614.187,683.281,614.521,676.436z"/>
<path style="fill:#970000;" d="M628.957,803.985c-12.528-22.096-24.974-44.198-37.597-66.198c-2.927-5.102,1.126-8.191,3.593-10.447
	c3.497-3.196,4.594,1.717,5.974,3.755c11.149,16.46,22.145,33.023,33.19,49.553C642.617,793.366,642.396,794.425,628.957,803.985z"
	/>
<path style="fill:#970000;" d="M607.635,702.465c17.871,21.027,34.399,39.863,50.14,59.336c5.26,6.507-4.04,10.13-4.29,18.227
	c-16.651-21.959-31.573-41.641-46.5-61.319C603.224,713.752,607.399,709.394,607.635,702.465z"/>
<path style="fill:#010000;" d="M808.79,360.089c-8.277,6.367-17.314,11.92-23.541,20.571c-1.618,2.247-2.948,2.433-4.728,0.37
	c-0.762-0.883-1.642-1.666-2.489-2.472c-17.796-16.955-28.219-18.065-49.014-5.257c-0.922,0.568-1.974,0.925-3.182,1.48
	c1.053-8.245,1.053-8.245,12.518-23.186c-5.928,0.463-11.227,0.877-16.698,1.304C735.186,323.609,781.885,327.55,808.79,360.089z"/>
<path style="fill:#9A0301;" d="M712.062,394.774c5.249,7.227,9.481,15.272,17.884,19.484c1.918,0.962,1.845,2.753,1.597,4.535
	c-0.704,5.055,1.744,6.093,6.156,5.044c4.385-1.042,7.621,0.716,10.778,3.93c6.934,7.06,16.269,10.831,24.722,16.584
	C739.499,450.72,715.005,431.008,712.062,394.774z"/>
<path style="fill:#100D06;" d="M768.766,527.541c8.351-10.64,19.829-11.124,33.561-12.251c-11.976,8.241-2.028,14.769,0.035,24.641
	C792.652,526.896,782.338,522.364,768.766,527.541z"/>
</svg>
