<?xml version="1.0" encoding="utf-8"?>
<!-- Generator: Adobe Illustrator 28.3.0, SVG Export Plug-In . SVG Version: 6.00 Build 0)  -->
<svg version="1.1" id="Layer_1" xmlns="http://www.w3.org/2000/svg" xmlns:xlink="http://www.w3.org/1999/xlink" x="0px" y="0px"
	 viewBox="0 0 1000 1000" style="enable-background:new 0 0 1000 1000;" xml:space="preserve">
<path style="fill:#018036;" d="M297.493,931.992c-15.078-18.41-26.841-32.772-40.117-48.982
	c-14.837,19.003-12.176,38.762-20.539,57.615c-42.209-30.708-65.134-74.45-86.104-123.102c-15.879,20.35-28.997,37.162-44.34,56.825
	c-23.401-42.11-37.953-83.028-43.526-127.338c-1.381-10.98,7.008-31.576-19.749-23.622c-5.271,1.567-5.648-8.772-6.32-14.234
	c-6.782-55.068-10.18-109.914,8.154-163.861c2.3-6.766,12.612-18.088-7.184-20.574c-10.655-1.338-2.916-11.344-0.601-16.613
	c15.844-36.053,30.463-73.113,61.289-99.781c11.071-9.577,10.92-18.068,5.111-30.676c-22.645-49.144-22.464-98.63-2.071-149.076
	c9.531-23.576,12.494-49.792,21.881-73.444c28.52-71.862,88.011-113.878,150.942-152.11c9.424-5.725,14.185-3.368,15.931,7.534
	c2.8,17.48,4.862,35.238,9.603,52.217c14.277,51.128,40.411,90.384,97.178,103.601c29.435,6.853,57.541,20.309,85.381,32.726
	c13.146,5.863,19.281,3.956,28.113-7.406c33.645-43.283,72.995-80.388,126.364-98.138c33.423-11.116,36.971-7.856,33.178,25.687
	c-4.204,37.181,5.166,71.952,17.024,106.386c14.091,40.916,38.302,77.843,47.555,120.717c2.023,9.373,10.108,14.318,17.508,19.193
	c13.139,8.657,26.624,16.789,39.763,25.445c42.76,28.167,50.913,46.983,36.888,97.085c-5.854,20.914-1.086,33.715,14.156,48.685
	c38.523,37.838,81.544,71.729,109.982,119.029c21.862,36.362,22.061,46.86-6.941,77.921c-25.924,27.764-51.092,54.479-69.45,89.4
	c-29.124,55.4-85.429,64.652-142.673,66.189c-5.468,0.147-8.679-2.342-12.214-6.376c-8.17-9.326-15.286-5.295-14.68,5.028
	c2.314,39.437-7.476,73.822-43.899,93.094c-46.858,24.792-96.938,22.555-146.756,8.808c-56.937-15.712-93.13-56.481-123.945-103.736
	c-11.259-17.267-19.994-36.06-34.439-51.464c-14.916-15.906-26.06-11.804-32.362,5.601
	C315.636,867.718,308.298,896.135,297.493,931.992z"/>
<path style="fill:#010101;" d="M219.917,884.598c-27.781-26.625-38.181-60.478-49.949-93.662
	c-2.791-7.871-2.289-19.527-13.33-20.595c-8.743-0.846-11.44,9.655-17.18,14.708c-1.456,1.282-2.41,3.114-3.737,4.564
	c-8.261,9.023-12.113,29.336-23.709,26.094c-14.007-3.916-15.203-24.122-17.394-38.158c-4.384-28.087-11.025-56.169-8.333-84.969
	c2.037-21.79-4.01-31.301-26.952-15.48c-7.099-64.255,1.524-122.257,35.905-174.83c10.304-15.756,14.078-27.146-13.448-23.029
	c10.514-25.814,25.302-46.198,45.8-59.686c19.44-12.791,16.679-23.838,7.722-41.059c-15.884-30.537-35.849-64.405-18.864-97.72
	c18.429-36.147,18.04-75.704,31.528-111.952c19.335-51.962,56.971-88.727,103.213-117.57c22.474-14.018,20.475,8.461,22.508,17.223
	c9.954,42.912,29.464,79.988,66.82,103.761c19.494,12.406,43.418,17.832,65.302,26.508c24.67,9.781,50.001,18.243,73.728,29.948
	c20.332,10.031,33.657,9.214,46.595-11.628c23.239-37.436,56.299-65.038,94.597-86.799c14.33-8.143,22.005-8.282,21.584,10.747
	c-1.336,60.379,26.379,112.201,48.873,165.549c2.675,6.344,7.989,12.35,8.402,18.751c3.154,48.789,39.966,68.216,75.725,89.063
	c34.617,20.181,42.03,36.236,24.51,72.708c-13.88,28.893-7.46,47.336,15.106,66.49c27.716,23.526,53.7,49.094,80.348,73.871
	c5.046,4.692,9.861,9.661,14.496,14.762c38.476,42.347,37.731,59.727-7.119,94.814c-18.293,14.311-32.417,29.56-39.762,52.436
	c-11.429,35.592-37.753,56.736-73.929,65.347c-8.988,2.14-19.219,7.623-18.774-10.938c0.54-22.491-16.375-31.25-33.074-14.62
	c-24.475,24.374-50.545,20.058-79,15.971c-15.821-2.273-20.242-6.405-12.922-22.53c21.21-46.722,20.595-47-20.75-74.88
	c-15.483-10.441-31.111-20.674-46.4-31.392c-12.156-8.522-19.728-5.943-16.8,8.982c7.965,40.607,21.853,79.537,41.451,115.915
	c8.358,15.515,24.249,22.845,42.747,20.884c17.761-1.883,24.321,7.442,26.792,23.604c7.731,50.573-8.48,74.464-57.912,83.736
	c-83.321,15.629-156.818-22.328-202.542-103.525c-11.907-21.144-21.814-44.265-43.778-58.059
	c-28.448-17.866-46.614-13.563-63.564,15.362c-2.977,5.08-4.571,11.056-7.963,15.787c-6.201,8.647-3.383,26.431-13.808,26.881
	c-15.288,0.659-10.543-18.065-16.039-27.576c-2.895-5.01-3.758-12.505-10.322-13.318c-7.024-0.871-9.173,6.468-11.799,11.389
	C236.306,851.86,228.6,867.513,219.917,884.598z"/>
<path style="fill:#6D6E72;" d="M860.927,649.652c-21.737,13.632-45.028,11.777-69.112,8.415
	c-28.395-3.964-43.262,6.625-43.427,28.299c-2.309,13.714,6.445,24.067,10.96,35.671c8.188,21.044,3.061,31.422-19.755,34.458
	c-34.028,4.529-60.94-9.684-82.89-34.834c-8.92-14.581-21.38-25.511-35.802-34.398c-61.439-64.993-138.247-90.6-226.047-89.207
	c-22.155,0.351-42.779,4.427-62.576,14.335c-8.298,4.153-17.982,14.098-26.581,5.882c-9.291-8.878-2.106-20.123,3.295-29.66
	c2.389-4.218,6.296-7.614,7.281-15.588c-18.402-0.324-33.373,8.335-48.934,15.146c-8.766,3.837-18.815,10.44-27.128,1.138
	c-7.699-8.615-2.577-18.582,1.773-27.568c4.223-8.723,11.341-16.039,13.99-29.12c-31.976-1.626-59.661,8.182-86.738,20.815
	c-18.368,6.423-37.244,12.049-47.748,30.718c-2.964,8.848-10.482,13.402-17.982,10.184c-8.366-3.59-2.698-11.949-0.976-18.096
	c17.558-62.691,60.455-104.167,114.724-135.778c14.259-8.305,29.387-15.118,46.093-23.622
	c-15.201-14.964-33.717-3.043-49.755-11.797c20.48-21.868,46.054-32.105,73.556-38.892c10.147-2.504,22.088-0.291,29.092-11.061
	c20.411-15.724,23.967-49.897,7.52-78.857c-9.772-17.206-23.536-31.365-36.813-45.941c-21.937-24.083-42.809-49.082-49.361-82.467
	c-2.056-10.476-6.111-21.252,3.276-30.538c14.757,45.563,48.097,77.782,80.151,110.761c23.349,24.024,38.206,51.997,43.666,85.031
	c0.901,5.451-1.33,13.088,5.825,15.127c8.108,2.31,11.991-5.379,16.12-10.35c3.671-4.42,7.394-9.914,8.242-15.377
	c4.864-31.355,21.12-32.9,47.672-23.05c38.691,14.353,77.356,28.443,114.744,46.035c61.652,29.009,117.056,64.8,145.286,132.262
	c9.039-6.045,4.911-13.763,7.254-19.207c4.228-9.824,9.736-7.47,15.452-1.314c-23.104,44.999-9.025,81.024,24.372,115.083
	C784.348,587.683,814.301,628.037,860.927,649.652z"/>
<path style="fill:#F1F1F1;" d="M163.826,549.33c27.645-19.485,60.408-22.477,92.236-27.911c14.262-2.435,18.496,3.57,9.556,16.504
	c-10.427,15.086-21.167,30.152-27.076,53.95c34.151-12.626,61.365-32.237,96.574-29.614c-8.221,19.481-28.47,31.581-28.758,55.182
	c87.795-61.012,262.221-13.453,319.64,66.35c9.668,11.042,22.264,19.261,30.541,31.66c0.68,6.369-2.205,10.473-8.047,12.7
	c-56.034-43.024-111.209-87.669-186.13-93.16c-6.156-0.451-18.505,1.982-11.104-12.355c2.228-4.315-0.792-7.691-5.158-8.039
	c-26.329-2.101-53.53-8.842-77.935,6.223c-14.827,9.153-24.981,19.633-1.292,33.812c22.791,13.642,32.644,39.347,43.64,62.138
	c25.665,53.194,49.855,107.139,73.026,161.47c6.225,14.596,18.882,24.586,25.08,41.488c-12.169,1.605-17.648-5.694-24.406-11.828
	c-32.116-29.147-51.093-67.269-72.108-104.021c-15.165-26.522-29.877-53.205-51.891-75.151
	c-19.454-19.393-40.35-25.857-66.974-15.472c-24.929,9.724-49.909,19.011-70.247,36.891c-15.822,13.91-21.5,7.214-23.321-9.925
	c-1.467-13.805-1.984-27.695,2.481-41.022c5.243-15.65-1.98-16.962-14.445-13.851c-23.757,5.929-39.853,23.407-60.595,44.745
	c-4.779-66.923,6.408-120.989,53.611-163.343c3.841-7.248-1.413-7.746-6.324-8.576C169.174,557.294,161.695,559.032,163.826,549.33z
	"/>
<path style="fill:#8F8F94;" d="M240.862,117.289c-0.464,48.128,26.25,82.639,57.954,114.33
	c28.05,28.038,47.217,58.621,43.427,101.131c-1.734,19.446-7.607,26.112-26.001,22.34c-12.115-6.668-10.613-14.986-6.698-27.096
	c11.086-34.299-1.024-63.981-31.035-82.316c-3.942,11.652,7.613,22.893-2.196,39.392c-36.861-35.96-47.067-79.674-49.27-129.329
	c-16.706,10.608-18.65,27.409-21.924,42.448c-10.3,47.322-7.619,91.9,29.82,128.631c14.039,13.774,15.831,25.049-8.942,28.178
	c-11.602,1.465-23.055,5.167-34.2,8.959c-18.05,6.141-22.645-6.017-26.571-18.78c-4.193-13.63-3.126-21.457,15.675-21.351
	c20.624,0.116,6.049-13.422,4.081-20.106c-19.661-66.771-5.671-126.242,38.28-179.15
	C227.038,120.024,230.787,109.23,240.862,117.289z"/>
<path style="fill:#8D040B;" d="M519.196,779.697c-6.312-20.049-12.623-40.098-21.228-67.429
	c33.68,24.578,40.87,56.269,54.264,83.691c8.584,17.574,13.582,37.001,29.325,50.25c11.464,9.647,6.936,16.925-3.578,22.398
	c-21.097,10.983-41.752,9.595-60.742-4.92c-12.686-9.696-21.694-22.497-28.224-37.135c-18.63-41.762-30.355-86.532-60.613-131.31
	c50.88,19.902,57.895,66.697,84.013,97.199c2.523,1.542,4.659,3.55,6.76,5.602C522.523,791.932,522.98,785.817,519.196,779.697z"/>
<path style="fill:#86868B;" d="M860.927,649.652c-41.357,2.678-58.042-33.174-81.805-55.45
	c-29.035-27.219-52.604-60.269-78.528-90.804c-1.899-2.236-3.734-4.526-5.599-6.791c21.843-13.812,9.44-45.076,30.279-59.399
	c10.732,3.984,18.029,11.938,23.203,21.617c5.697,10.656,8.878,22.394,4.292,34.113c-6.307,16.12-19.627-1.364-30.088,6.723
	c29.598,44.593,65.158,83.824,107.295,117.571C841.479,626.444,858.9,631.044,860.927,649.652z"/>
<path style="fill:#E7E7E7;" d="M648.492,728.153c2.031-4.203,4.062-8.406,6.092-12.609c1.403-2.686,2.982-2.67,4.716-0.308
	c20.455,24.612,45.813,38.445,78.636,34.802c16.468-1.828,29.366-4.583,14.372-26.234c-6.703-9.679-22.729-23.106-3.92-37.438
	c5.146,6.699,11.561,11.366,20.068,7.355c15.11-7.123,26.945,0.452,38.073,8.395c8.241,5.882,22.075,11.942,17.065,23.945
	c-4.772,11.432-17.82-0.598-29.426,3.64c18.839,25.477-1.015,29.364-19.451,34.128C725.701,776.494,685.241,758.885,648.492,728.153
	z"/>
<path style="fill:#6A6B6F;" d="M636.46,320.124c-19.308-11.557-38.145-24.016-58.06-34.409
	c-18.627-9.721-23.664-22.208-13.204-40.489c7.309-12.773,14.226-25.836,22.479-37.981c5.951-8.756,13.553-22.992,23.012-20.264
	c13.237,3.817,6.331,20.19,8.23,31.146c-9.485,8.823-2.319,17.692-0.574,26.912C623.142,270.387,638.842,293.089,636.46,320.124z"/>
<path style="fill:#C4C4C4;" d="M549.935,905.487c19.393,0.927,33.904-4.105,49.471-12.441c0.501,6.168,1.581,10.018,0.951,13.563
	c-1.616,9.095-3.794,18.5,9.028,20.42c12.393,1.855,21.409-2.028,21.126-16.855c-0.151-7.898,1.335-14.909,11.458-9.756
	c6.422,3.269,9.194,7.787,5.085,16.589c-7.824,16.761-18.064,28.307-37.836,24.962C586.054,938.051,564.851,930.125,549.935,905.487
	z"/>
<path style="fill:#87878C;" d="M636.46,320.124c-16.504-28.902-20.341-61.683-28.33-93.169c-2.313-9.117,1.464-12.881,10.789-8.828
	c6.567,32.768,27.553,60.032,35.264,92.291c1.648,6.895,7.064,16.809-2.155,20.775C645.726,333.904,640.926,325.127,636.46,320.124z
	"/>
<path style="fill:#D2D2D2;" d="M779.175,797.888c-33.478,2.163-62.333,18.959-93.987,30.114
	c12.189-14.456-3.473-50.386,34.782-42.157c14.73,6.804,30.328,1.298,45.388,3.231C771.189,789.825,780.11,786.312,779.175,797.888z
	"/>
<path style="fill:#9C9C9C;" d="M779.175,797.888c-17.674-14.146-41.7,2.933-59.205-12.043c29.706-0.053,59.357-0.967,88.759-5.735
	c13.808,2.251,19.018,11.121,18.681,24.261c-4.846,8.54-9.846,16.87-21.51,16.261c-8.615-10.29,5.795-15.343,4.75-24.567
	C800.101,796.677,789.638,797.283,779.175,797.888z"/>
<path style="fill:#CFCFD0;" d="M163.826,549.33c4.619,6.703,12.072,3.316,17.996,5.177c16.592,5.212,5.304,8.665-1.097,12.247
	c-8.922-13.435-18.521-3.529-26.975,0.057c-11.193,4.746-21.547,11.47-32.262,17.343c-3.417-0.82-10.282-1.515-4.232-6.163
	C131.707,566.888,143.837,551.546,163.826,549.33z"/>
<path style="fill:#C5C5C5;" d="M827.41,804.372c-6.227-8.087-12.454-16.174-18.681-24.261c11.86-4.951,23.72-9.903,39.757-16.598
	C845.233,783.344,838.377,794.885,827.41,804.372z"/>
<path style="fill:#370204;" d="M519.196,779.697c4.848,10.31,9.696,20.62,16.653,35.415c-15.48-4.608-21.201-11.815-23.435-22.675
	C517.585,789.742,518.421,784.736,519.196,779.697z"/>
<path style="fill:#030504;" d="M577.97,584.836c-17.175,3.562-34.35,7.125-51.525,10.687c8.091-25.894-12.144-37.871-26.017-52.985
	c-5.066-5.519-6.687-16.3-18.918-5.832c-6.173,5.283-14.977-4.482-16.806-11.697c-6.182-24.391-20.055-24.719-38.763-14.682
	c-2.504,1.343-5.546-0.353-7.356-2.982c0.779-21.484,7.743-40.353,23.446-55.543c24.853-24.042,48.07-26.814,76.754-7.048
	c29.138,20.079,57.158,41.772,85.988,62.309c8.232,5.864,17.566,17.739,27.972,6.854c10.578-11.065,1.616-21.458-7.031-30.134
	l0.059,0.188c25.854-3.915,32.783,15.363,32.378,32.967c-0.35,15.234,5.635,22.033,14.496,31.834
	c11.727,12.971,33.897,24.375,17.617,48.338c-7.069-3.193-14.884-4.932-21.45-8.918C639.037,570.12,608.865,569.338,577.97,584.836z
	"/>
<path style="fill:#929297;" d="M682.92,468.529c-45.803-29.128-87.034-55.134-139.763-65.092
	c10.279-11.726,21.4-4.951,31.278-10.808c-29.67-44.867-81.854-58.74-120.781-90.344c70.66,21.625,136.834,52.626,195.48,97.448
	C668.484,414.519,675.244,439.634,682.92,468.529z"/>
<path style="fill:#535355;" d="M418.585,507.346c4.387-1.681,9.841-2.239,12.986-5.228c18.681-17.755,30.191-16.145,34.866,10.983
	c1.286,7.462,4.59,15.026,13.303,20.72c3.538-19.277,10.321-20.403,20.744-4.233c11.093,17.21,23.966,33.006,43.754,39.811
	c-1.468,13.112-20.085,12.099-17.803,26.132c-12.924-16.142-33.351-22.389-47.955-36.27
	C459.304,541.034,442.321,520.305,418.585,507.346z"/>
<path style="fill:#8D8E92;" d="M625.713,483.784c-2.782,9.267-4.87,23.072-18.408,13.679
	c-26.133-18.132-50.633-38.618-73.951-61.209c38.727,0.663,65.437,24.456,92.415,47.719
	C625.772,483.972,625.713,483.784,625.713,483.784z"/>
<path style="fill:#565557;" d="M577.97,584.836c40.206-29.754,64.198-27.132,112.293,12.275
	C652.491,596.134,616.081,582.71,577.97,584.836z"/>
<path style="fill:#D8D8D9;" d="M659.3,715.236c-1.574,0.036-3.144,0.135-4.713,0.303c-11.067-9.194-23.622-17.051-28.59-31.742
	C640.361,690.82,651.243,701.532,659.3,715.236z"/>
<path style="fill:#016729;" d="M512.009,504.199c20.245-3.96,34.533,0.719,40.49,13.559c8.918,19.222,21.54,22.672,43.529,13.517
	c-5.923,19.479-17.678,18.3-28.698,18.617C536.782,550.769,527.487,526.698,512.009,504.199z"/>
</svg>
