<?xml version="1.0" encoding="utf-8"?>
<!-- Generator: Adobe Illustrator 28.3.0, SVG Export Plug-In . SVG Version: 6.00 Build 0)  -->
<svg version="1.1" id="Layer_1" xmlns="http://www.w3.org/2000/svg" xmlns:xlink="http://www.w3.org/1999/xlink" x="0px" y="0px"
	 viewBox="0 0 1000 1000" style="enable-background:new 0 0 1000 1000;" xml:space="preserve">
<g>
	<path style="fill:#CBCBCB;" d="M493.355,1000c-24.597-29.318-53.797-53.705-83.243-77.844c-9.254-7.586-12.904-2.948-15.394,6.23
		c-6.119,22.551-12.491,45.033-19.397,69.826c-14.97-15.287-20.296-33.065-29.297-48.427
		c-26.909-45.926-52.493-94.969-52.959-147.729c-0.35-39.525-23.608-52.163-46.78-70.672c-15.92-12.716-31.064-26.412-46.377-39.873
		c-4.633-4.073-8.176-7.84-15.762-5.425c-29.533,9.402-57.102-4.267-85.434-8.66c-9.285-1.44-5.951-8.004-2.215-12.208
		c8.44-9.498,17.564-18.388,26.387-27.546c9.947-10.323,13.933-21.001,7.428-35.68c-20.301-45.809-38.169-92.584-46.747-142.248
		c-2.084-12.064-6.948-14.52-18.31-10.934c-20.875,6.589-41.471,14.595-63.624,16.307c0-2.215,0-4.43,0-6.645
		c18.089-37.338,36.129-74.737,66.541-104.161c5.908-5.716,6.068-12.262,5.853-19.731c-1.344-46.674,2.031-92.918,15.23-137.956
		c3.256-11.109,0.965-19.119-7.993-26.243c-7.353-5.847-14.737-11.688-21.842-17.872c-8.273-7.2-8.149-14.175,0.151-20.636
		c30.695-23.893,64.01-42.139,104.047-42.871c14.382-0.263,27.076-2.82,38.902-11.331c10.777-7.756,22.536-14.305,34.997-18.902
		c11.952-4.409,12.743-10.943,8.4-21.807C241.137,25.011,230.736,14.603,234.203,0c7.752,0,15.505,0,23.257,0
		c11.177,3.668,22.89,1.868,34.309,2.907c15.699,1.428,30.665,4.333,44.629,11.476c9.33,4.773,18.396,5.673,28.773,3.195
		c41.298-9.861,82.95-13.376,124.949-4.165c6.59,1.445,13.17,1.445,19.76,0c41.999-9.211,83.606-5.513,124.976,4.054
		c7.71,1.783,15.341,3.558,22.63-0.47C681.629,3.657,708.013,2.032,734.69,1.709c2.732-0.033,5.551,0.319,7.85-1.709
		c7.752,0,15.505,0,23.257,0c2.297,13.113-5.88,23.056-10.567,33.954c-7.195,16.731-6.56,16.679,8.381,25.369
		c30.128,17.524,60.342,31.653,96.682,33.382c30.456,1.45,55.407,20.586,79.436,38.567c9.049,6.771,9.674,14.23,0.352,21.596
		c-1.298,1.025-2.459,2.223-3.744,3.268c-35.725,29.076-29.024,20.23-20.343,61.821c7.911,37.904,11.669,76.357,9.903,115.14
		c-0.399,8.764,0.684,16.042,7.268,22.567c29.538,29.273,46.963,66.317,65.204,102.808c0,2.215,0,4.43,0,6.645
		c-23.239-1.836-44.765-10.768-67.018-16.595c-8.957-2.346-11.92-1.344-13.778,8.22c-10.019,51.566-27.985,100.616-49.12,148.539
		c-5.294,12.003-1.334,21.473,6.502,30.057c8.951,9.806,18.721,18.868,27.599,28.736c6.004,6.674,7.467,12.159-4.735,14.073
		c-28.335,4.443-55.832,17.528-85.473,7.059c-5.783-2.043-8.794,3.382-12.421,6.58c-25.641,22.611-50.875,45.724-79.886,64.147
		c-6.117,3.884-10.829,7.816-10.853,16.768c-0.157,56.985-22.226,107.343-49.695,155.578c-12.389,21.755-24.311,44.048-41.51,66.019
		c-8.027-27.841-15.274-52.974-23.038-79.905C560.145,940.556,527.981,967.903,500,1000C497.785,1000,495.57,1000,493.355,1000z"/>
	<path style="fill:#CA0D0C;" d="M43.673,433.541c13.02-27.796,27.362-50.985,49.443-68.369c6.443-5.073,8.531-10.199,7.866-18.243
		c-4.65-56.256-0.466-111.577,19.359-164.975c2.012-5.419,1.615-9.483-2.936-13.199c-4.284-3.498-8.288-7.338-12.497-10.932
		c-19.279-16.46-19.342-16.548,3.857-28.799c23.035-12.165,47.698-17.496,73.644-15.769c8.269,0.55,14.641-1.465,21.294-6.431
		c21.431-15.999,45.261-27.827,70.75-35.649c10.585-3.249,11.682-7.14,6.773-16.164c-4.981-9.157-8.63-19.038-13.598-30.262
		c25.752,0.886,49.05,5.251,69.8,18.52c6.643,4.248,12.192,5.04,19.767,3.038c45.81-12.106,91.844-20.843,138.468-3.613
		c3.305,1.221,6.404,0.746,9.659-0.431c45.534-16.474,90.549-8.105,135.321,3.449c8.544,2.205,15.106,2.196,22.874-2.979
		c19.89-13.252,42.99-16.305,68.714-18.593c-5.25,11.955-9.621,22.841-14.784,33.338c-3.417,6.948-3.248,10.201,5.351,12.842
		c27.651,8.49,53.492,21.047,76.445,38.85c5.986,4.643,12.134,4.186,18.774,3.926c31.317-1.23,60.151,6.356,86.428,23.825
		c7.245,4.817,8.005,8.533,0.328,12.755c-24.91,13.7-26.558,31.025-17.547,57.924c14.443,43.114,16.28,89.044,11.985,134.63
		c-1.016,10.782,0.971,18.184,10.256,25.386c20.94,16.242,33.46,39.227,46.603,63.896c-15.963,0.79-28.742-6.04-42.224-8.812
		c-8.886-1.827-13.136-0.128-14.173,9.693c-5.994,56.786-25.675,109.622-49.269,160.919c-10.234,22.25-3.935,39.414,9.629,56.016
		c11.318,13.852,11.785,13.523-6.021,17.298c-13.236,2.806-26.589,3.328-39.164-2.137c-9.436-4.101-15.7-2.469-22.998,5.069
		c-28.183,29.113-59.149,55.131-93.828,76.18c-9.365,5.684-8.665,12.678-8.661,20.905c0.027,53.012-29.852,134.953-64.341,175.41
		c-6.201-14.414-7.832-29.832-15.248-43.246c-5.758-10.415-10.83-12.847-21.427-5.189c-28.353,20.488-54.883,43.062-79.67,67.605
		c-9.02,8.931-14.488,9.085-23.624-0.175c-23.719-24.041-49.762-45.51-76.863-65.781c-12.956-9.691-20.304-7.36-25.396,6.94
		c-4.787,13.446-9.315,26.985-14.31,41.509c-8.18-6.744-11.217-16.376-15.61-24.861c-25.7-49.63-44.47-101.233-42.181-158.293
		c0.293-7.312-2.864-10.739-8.494-14.29c-34.792-21.944-66.332-48-94.996-77.44c-6.159-6.326-11.168-8.188-20.049-4.985
		c-20.003,7.213-28.717,6.255-56.605-1.622c1.424-7.071,8.199-10.03,11.751-15.351c10.773-16.135,17.062-31.973,7.778-52.191
		c-23.568-51.324-43.455-104.074-49.697-160.796c-1.263-11.479-5.865-13.713-16.124-10.67
		C71.729,426.931,58.924,429.712,43.673,433.541z"/>
	<path style="fill:#D39F0F;" d="M631.543,907.821c-6.054-10.039-10.658-18.091-15.669-25.881
		c-7.19-11.176-15.277-13.353-27.468-5.409c-29.366,19.135-55.616,41.999-81.08,65.743c-8.615,8.033-13.157,7.469-21.231-0.336
		c-24.264-23.456-49.686-45.734-78.287-63.875c-17.373-11.019-20.154-10.056-31.66,7.233c-4.218,6.338-7.747,13.133-12.557,21.375
		c-15.784-27.14-25.647-55.492-32.431-84.756c-5.347-23.064-10.135-46.606-5.465-70.528c1.28-6.554-2.136-8.868-6.602-11.592
		c-40.388-24.634-76.616-54.475-109.194-88.672c-6.589-6.917-12.203-6.937-20.42-3.639c-9.47,3.801-19.104,9.2-30.117,5.856
		c-0.197-1.331-0.813-2.589-0.434-3.354c12.198-24.623,11.99-47.201-0.484-73.524c-24.12-50.903-43.193-104.187-44.357-161.797
		c-0.18-8.925-5.074-9.745-11.937-9.075c-8.176,0.798-16.026,4.68-26.99,2.054c8.158-15.341,19.812-26.432,33.131-35.592
		c6.928-4.765,7.904-9.11,7.45-17.548c-3.217-59.826-3.657-119.554,22.229-175.713c2.608-5.659,1.892-9.099-2.398-12.897
		c-7.418-6.568-14.645-13.351-23.458-21.423c22.447-14.028,46.232-18.717,70.992-16.402c10.231,0.956,17.407-0.463,25.54-6.766
		c26.563-20.587,56.662-34.498,89.571-41.215c10.195-2.081,7.824-5.674,5.366-12.068c-2.981-7.754-13.662-16.866-6.85-22.987
		c6.658-5.983,19.08,0.793,25.465,6.521c16.374,14.688,32.086,11.269,50.915,5.538c30.755-9.362,63.473-13.91,94.826-6.385
		c22.03,5.287,40.999,5.13,63.298,0.287c38.078-8.271,76.911-1.771,113.876,11.482c8.217,2.946,13.937,2.864,20.516-3.759
		c7.903-7.957,18.96-11.099,29.507-14.488c3.099-0.996,6.824-2.194,9.376,0.587c2.739,2.985,0.038,6.093-1.063,9.105
		c-2.816,7.7-11.912,15.79-8.505,22.105c2.711,5.024,14.381,5.165,22.041,7.578c28.214,8.889,54.559,21.653,77.581,40.27
		c7.153,5.784,13.559,4.804,21.448,4.154c25.127-2.07,48.962,2.549,74.555,17.88c-35.516,13.2-27.234,34.771-18.676,60.085
		c16.332,48.312,16.412,98.888,11.622,149.254c-0.769,8.087,1.265,12.065,7.393,16.265c13.648,9.354,25.412,20.624,33.474,35.573
		c-1.812,0.896-2.255,1.224-2.747,1.342c-11.392,2.734-24.875-9.297-33.185-0.303c-7.387,7.995-1.741,22.354-3.764,33.751
		c-8.846,49.814-24.493,97.656-46.615,142.876c-9.903,20.243-8.789,37.719-0.724,56.73c1.487,3.505,2.993,7.002,4.808,11.245
		c-12.544,4.344-22.489-1.692-32.343-5.459c-7.626-2.915-12.902-3.251-19.052,3.187c-33.01,34.554-69.585,64.837-110.512,89.666
		c-4.739,2.875-7.153,5.801-6.505,11.874C679.797,808.696,656.625,857.341,631.543,907.821z"/>
	<path style="fill:#002D62;" d="M179.42,284.594c-8.242-5.705-15.187-8.43-22.189-8.588c-18.33-0.413-17.721-9.584-13.655-23.53
		c7.344-25.186,17.025-49.298,32.218-70.529c8.492-11.867,8.27-17.491-6.662-20.253c-3.099-0.573-5.961-2.433-9.462-3.926
		c32.128-11.821,73.371-5.679,168.701,24.734c-5.819-11.4-13.404-18.111-38.87-31.583c-15.577-8.24-31.841-15.181-49.014-23.279
		c27-31.823,63.682-24.553,98.348-25.073c0.187-8.929-7.082-13.915-9.961-24.384c43.984,17.968,72.91,51.157,106.326,85.508
		c-8.891-35.388-25.681-61.484-47.476-86.336c33.675-16.016,65.505-11.02,96.21,4.067c11.373,5.588,19.697,6.421,31.478,0.389
		c30.643-15.689,62.725-20.434,96.566-4.593c-21.154,24.671-38.182,50.649-47.285,86.14c33.679-33.842,62.112-67.481,105.707-84.628
		c-1.935,9.878-9.351,14.737-9.669,24.328c17.682-0.82,35.25-2.36,52.52,0.327c17.666,2.748,34.498,7.919,46.043,25.008
		c-32.481,13.503-64.489,26.837-89.027,53.56c54.551-22.65,110.106-36.805,170.337-25.904c-7.207,7.733-22.082,4.739-22.796,14.074
		c-0.539,7.045,8.718,14.655,13.131,22.294c22.921,39.671,34.44,82.382,33.668,128.289c-0.193,11.506-0.194,18.943-17.146,13.06
		c-29.127-10.109-60.025-7.67-95.075-3.812c46.438,10.603,86.975,24.202,123.669,55.404c-16.358-1.899-17.093,5.12-16.3,16.075
		c3.747,51.772-4.492,101.387-29.807,147.397c-2.394,4.352-5.116,8.536-7.892,12.66c-1.198,1.78-2.923,3.207-4.581,4.978
		c-22.337-45.306-58.195-74.029-105.306-89.887c43.142,38.689,78.329,82.556,95.761,139.199c-7.27,3.796-13.982-8.456-20.656-1.992
		c-5.063,4.904-8.224,11.73-12.476,17.521c-10.499,14.299-22.214,27.532-34.596,40.258c-8.177,8.404-15.349,16.893-25.185-1.406
		c1.926,20.573-7.534,31.568-22.976,39.736c-9.441,4.994-11.724,3.945-12.299-6.822c-2.283-42.759-17.991-81.345-38.915-118.544
		c6.082,86.478,15.126,173.008-19.595,259.165c-16.395-19.622-20.968-41.545-33.499-64.492c-1.627,18.126-2.183,31.559,1.196,44.886
		c2.694,10.625,0.329,18.75-7.976,26.627c-21.742,20.62-45.29,38.867-68.939,57.178c-14.81,11.467-22.994,0.152-33.568-5.511
		c-9.56-5.12-13.363-11.299-9.339-22.752c2.426-6.906,5.289-14.643,3.662-22.739c-24.963,24.99-24.632,24.612-51.857,0.748
		c-12.501-10.958-20.541-21.328-14.941-39.683c3.191-10.46,0.577-22.69,0.577-38.921c-12.511,23.069-17.913,44.662-32.435,64.419
		c-20.328-41.482-23.297-84.413-23.885-127.915c-0.593-43.802,4.242-87.162,9.299-130.779
		c-17.584,26.722-28.027,56.285-35.316,87.064c-2.028,8.565-3.081,17.426-3.83,26.216c-1.608,18.864-1.454,18.952-18.007,8.065
		c-31.86-20.955-58.555-47.401-79.802-78.868c-8.065-11.945-14.973-20.057-31.461-7.94c17.733-59.893,53.447-103.643,96.645-142.602
		c-47.581,15.224-82.717,44.746-105.698,90.262c-24.946-33.046-36.155-70.727-40.784-110.727
		c-2.288-19.77-4.627-39.725-0.932-59.565c2.147-11.527-5.833-11.488-17.403-10.487c37.522-31.952,77.853-45.709,120.925-55.222
		c-29.706-6.516-68.093-5.345-95.959,4.122c-8.794,2.987-11.243,1.365-12.414-7.395C131.041,294.408,135.918,289.242,179.42,284.594
		z"/>
	<path style="fill:#D39F0F;" d="M582.554,230.316c22.145-12.359,42.915-16.001,64.488-7.905
		c22.401,8.407,28.325,25.681,16.316,46.345c-10.693,18.399-27.789,29.341-47.851,40.461c1.097-10.311,1.993-18.723,2.888-27.136
		c-20.841,35.465-56.584,33.857-93.065,36.62c21.654,23.806,34.643,49.965,42.972,78.901c3.846,13.363,0.475,17.904-12.425,22.035
		c-40.229,12.882-79.462,9.462-118.915-2.805c-8.7-2.705-9.364-6.836-7.389-14.605c7.787-30.623,23.109-57.039,45.745-82.578
		c-36.796,1.783-70.9,0.545-90.195-37.321c-5.47,9.08,0.867,17.341-2.387,25.467c-16.578-5.525-30.707-14.726-42.085-27.93
		c-8.298-9.63-12.209-20.85-10.356-33.786c1.213-8.47,3.726-13.538,13.826-8.821c7.14,3.335,16.009,4.38,22.49,0.366
		c7.486-4.637,2.505-12.722,1.567-19.677c-1.315-9.749,7.018-5.262,10.171-4.762c22.269,3.531,44.407,7.886,68.216,12.279
		c-7.243-11.385-19.464-14.911-29.397-23.948c21.64-9.32,41.118-8.062,60.715,4.258c0.716-7.605-2.387-13.139-6.068-17.181
		c-12.377-13.59-3.016-18.148,8.353-22.398c7.91-2.957,16.067-4.22,24.443-3.128c9.415,1.227,19.923,2.812,25.935,9.7
		c8.095,9.275-6.526,14.093-7.598,22.238c-0.342,2.598-1.951,5.03-4.505,11.255c19.358-10.697,36.884-12.411,55.208-6.798
		c11.295,3.46,20.015,6.719,9.893,20.285C582.205,221.539,582.976,224.904,582.554,230.316z"/>
	<path style="fill:#D39F0F;" d="M635.422,453.691c2.496,6.689,7.959,10.875,13.199,14.552c11.592,8.136,5.198,11.951-3.22,14.687
		c-8.264,2.686-16.914,4.189-26.052,6.367c4.357,13.189,17.078,18.127,26.724,27.493c-18.153,18.406-40.093,25.43-64.577,20.188
		c-25.623-5.486-47.694-17.9-58.927-43.518c-5.879-13.408,1.323-23.584,10.457-32.302c14.259-13.61,31.856-22.201,50.108-28.383
		c13.651-4.624,15.38-11.36,10.374-23.221c-6.837-16.199-13.07-32.653-20.409-51.132c21.854,8.741,42.9,16.473,66.607,13.24
		c-0.076-6.066-8.539-5.942-8.835-11.837c19.867-12.375,39.984-24.849,54.703-44.2c22.145,30.066,21.419,60.836-1.084,88.416
		c-3.7,4.534-12.464,8.366-10.205,13.636c3.166,7.388,12.568,7.681,20.442,7.922c2.014,0.062,4.02,0.367,6.32,0.589
		C689.547,451.142,672.345,458.207,635.422,453.691z"/>
	<path style="fill:#D39F0F;" d="M426.876,356.647c-9.384,21.45-18.659,39.571-24.006,59.386c-2.249,8.333-0.511,11.817,7.392,14.669
		c18.219,6.576,35.896,14.556,51.026,26.97c20.116,16.506,21.242,33.223,4.018,52.498c-30.794,34.462-78.714,37.619-113.105,6.541
		c9.455-8.733,21.732-14.764,28.446-28.459c-14.015-1.346-27.584-2.182-39.838-12.897c7.064-6.068,13.604-11.686,24.048-20.657
		c-30.019,1.689-54.518,0.582-67.477-26.293c1.235-1.126,1.894-2.265,2.674-2.355c8.695-1.004,20.314,0.465,23.762-8.054
		c2.71-6.697-8.316-11.296-12.727-17.239c-19.223-25.902-19.35-54.174,1.013-85.622c12.332,15.222,26.901,27.593,43.587,37.154
		c9.284,5.319,16.977,9.796-0.042,18.907C382.284,374.488,403.526,368.028,426.876,356.647z"/>
	<path style="fill:#D39F0F;" d="M461.753,778.945c-21.829,10.253-21.819,10.247-33.382-10.415c-1.887-3.372-3.789-6.746-5.888-9.987
		c-12.117-18.711-12.435-18.748-28.53-3.737c-14.466-26.604-16.262-54.094-10.956-86.072c7.07,10.985,11.86,19.485,17.651,27.238
		c22.669,30.348,51.905,43.725,89.75,33.33c4.367-1.199,8.499-2.26,12.951-0.862c46.928,14.743,80.552-3.071,105.188-42.955
		c0.814-1.318,2.12-2.333,4.668-5.069c5.835,24.333,3.573,45.838-8.356,66.253c-3.736,6.393-7.822,7.447-12.022,0.421
		c-4.633-7.75-8.849-3.919-12.566,0.639c-4.524,5.548-9.521,11.004-12.672,17.318c-6.237,12.496-14.886,19.56-29.02,14.637
		c-7.441-2.591-7.063,3.112-8.526,6.408c-5.447,12.27-12.494,23.251-22.344,32.547c-6.978,6.586-13.097,6.552-20.174,0.27
		C475.177,807.953,468.116,793.684,461.753,778.945z"/>
	<path style="fill:#CACACB;" d="M539.85,681.263c24.285-14.221,36.954-35.287,48.382-58.006
		c10.303,22.243,3.128,60.893-13.286,76.154c-8.149,7.577-17.921,8.108-27.981,6.837c-31.453-3.973-62.903-4.11-94.301,0.077
		c-17.839,2.378-29.931-4.545-37.324-20.648c-8.993-19.589-11.372-39.651-5.456-63.652c14.115,23.586,25.573,45.677,50.166,59.056
		c-2.125-7.906-3.765-14.007-5.794-21.555c42.792,40.414,48.544,40.284,91.285,0.072
		C543.541,667.212,541.941,673.302,539.85,681.263z"/>
	<path style="fill:#C90C0C;" d="M498.687,633.038c6.858-3.671,11.534-10.231,19.272-12.717c7.761-2.494,14.35-1.843,19.603,4.243
		c4.866,5.638,4.73,12.776,1.372,18.741c-8.485,15.068-22.194,26.844-37.782,30.529c-13.673,3.232-23.927-10.994-33.148-20.981
		c-7.072-7.66-11.085-17.298-6.369-27.449c4.278-9.207,11.985-12.514,22.04-7.587C490.465,621.142,493.819,627.668,498.687,633.038z
		"/>
	<path style="fill:#D29F10;" d="M280.121,635.523c-4.726-4.578-9.948-8.75-14.098-13.802c-24.838-30.239-31.248-27.249-1.506-64.769
		c13.976-17.63,29.758-33.973,48.591-46.853c-3.56,20.192-12.483,38.761-17.675,58.467c-4.373,16.595-6.151,33.626-9.12,50.458
		C285.289,624.829,285.755,631.374,280.121,635.523z"/>
	<path style="fill:#D29F10;" d="M689.277,513.144c-0.258-0.485-0.821-1.057-0.712-1.437c0.237-0.827,0.817-1.555,1.256-2.324
		c25.456,21.207,50.356,42.941,65.115,73.565c2.994,6.213,0.301,11.803-3.71,16.791c-8.959,11.143-17.079,23.042-28.64,31.846
		c-5.247-4.134-6.64-10.187-7.112-16.206C712.676,579.759,701.406,546.35,689.277,513.144z"/>
	<path style="fill:#D29F10;" d="M738.468,388.808c6.169-3.911,7.832-4.328,16.729-2.591c18.875,3.685,37.041,9.65,54.583,17.519
		c18.11,8.124,21.639,15.75,15.107,34.67c-2.479,7.18-5.496,14.349-11.188,19.857c-7.877-0.43-9.866-7.924-14.468-12.22
		C778.891,427.057,761.381,405.069,738.468,388.808z"/>
	<path style="fill:#D29F10;" d="M177.825,456.801c-4.93-5.586-6.437-12.588-8.04-19.538c-4.558-19.753-0.727-26.721,18.777-32.552
		c23.114-6.911,46.326-13.6,70.947-9.598c-22.954,21.159-49.155,38.353-72.377,59.199
		C184.727,456.471,181.323,457.444,177.825,456.801z"/>
	<path style="fill:#C9CACA;" d="M534.67,578.315c-14.51-40.21-12.308-30.6-42.798-32.135c-22.348-1.125-19.315,18.457-26.023,31.423
		c-8.068-9.525-8.619-20.854-10.425-31.733c-0.451-2.72-0.575-5.068,2.027-7.344c16.284-14.24,45.349-17.919,64.982-7.315
		c7.104,3.838,19.131,2.435,21.03,10.714C546.174,553.742,541.509,565.837,534.67,578.315z"/>
	<path style="fill:#CACACA;" d="M444.708,629.607c-22.21-21.9-30.937-46.842-40.519-71.293c-2.265-5.78,0.938-7.753,6.06-8.815
		c9.621-1.994,19.169-4.345,30.076-6.853C441.725,570.413,443.123,598.149,444.708,629.607z"/>
	<path style="fill:#CF9E12;" d="M706.144,216.156c-0.547-0.072-1.305,0.054-1.595-0.257c-0.574-0.614-0.889-1.47-1.312-2.227
		c33.27-8.688,67.379-13.413,101.145-7.776c14.308,2.389,14.709,19.405,12.363,33.032c-7.876,1.784-15.247-0.764-22.596-2.862
		C765.18,227.796,735.277,223.682,706.144,216.156z"/>
	<path style="fill:#C7C8C9;" d="M555.181,628.997c1.386-29.865,2.628-56.617,3.91-84.231c6.454,1.918,11.11,3.375,15.806,4.683
		c21.92,6.106,22.006,6.126,12.629,28.427C580.08,595.586,572.366,613.174,555.181,628.997z"/>
	<path style="fill:#C9C9C8;" d="M706.144,216.156c38.157,1.335,74.925,9.41,110.602,22.777c-0.375,3.285-0.608,6.598-1.151,9.859
		c-2.13,12.802-6.302,16.389-19.243,8.108C768.405,239.015,736.904,228.242,706.144,216.156z"/>
	<path style="fill:#C9C9C8;" d="M280.121,635.523c3.191-43.846,12.644-86.049,32.951-125.419
		c1.136,23.431-7.723,45.355-10.362,68.251c-2.077,18.023-5.326,35.919-8.383,53.816c-0.683,3.998,2.234,10.311-3.061,11.553
		C286.235,644.902,282.844,639.724,280.121,635.523z"/>
	<path style="fill:#D19E11;" d="M187.65,233.041c-0.2-25.748,5.362-30.736,30.757-28.191c24.411,2.446,49.084,3.472,71.654,14.781
		c-28.556,6.414-57.714,9.346-86.415,14.931C198.22,235.618,192.679,236.701,187.65,233.041z"/>
	<path style="fill:#C7C7C7;" d="M689.277,513.144c19.008,27.893,24.484,60.185,29.915,92.458c1.449,8.608,2.28,17.319,3.394,25.983
		c-2.292,4.712-6.456,7.079-12.072,10.149C703.317,598.154,696.297,555.649,689.277,513.144z"/>
	<path style="fill:#C8C8C5;" d="M187.65,233.041c33.701-7.799,67.741-13.003,102.411-13.411
		c-18.833,6.543-37.806,12.713-56.453,19.75c-13.865,5.232-27.306,11.586-41.035,17.482
		C187.699,249.484,186.628,241.482,187.65,233.041z"/>
	<path style="fill:#C9C9C8;" d="M177.825,456.801c26.361-21.697,51.418-45.119,81.666-61.69c6.226,1.792,1.31,4.011-0.064,5.238
		c-23.123,20.642-44.412,42.962-62.18,68.425c-4.218,6.045-7.696,7.546-12.042,0.72
		C182.579,465.369,180.275,461.039,177.825,456.801z"/>
	<path style="fill:#C9C9C8;" d="M738.468,388.808c11.862,1.482,18.996,10.447,26.813,17.777
		c17.234,16.159,34.315,32.548,48.415,51.68c-2.694,3.427-5.304,6.928-8.105,10.268c-5.212,6.214-8.759,4.136-12.045-2.174
		C778.767,437.982,758.453,413.506,738.468,388.808z"/>
	<path style="fill:#C1C3C6;" d="M379.804,157.958c-22.775,1.593-38.368-8-52.6-22.527
		C346.499,129.754,365.242,137.569,379.804,157.958z"/>
	<path style="fill:#CD9C11;" d="M629.742,152.961c15.398-17.55,31.284-25.501,54.383-23.522
		C669.31,146.535,653.981,155.809,629.742,152.961z"/>
	<path style="fill:#BCBFC3;" d="M424.155,342.556c-10.337,6.843-21.318,6.956-32.242,6.49c-16.312-0.695-19.433-5.986-13.289-23.168
		c6.24,4.662,12.161,9.22,18.228,13.575c4.326,3.105,8.787,7.831,13.689,0.723C416.944,330.89,419.791,340.147,424.155,342.556z"/>
	<path style="fill:#BCBFC3;" d="M577.975,344.453c2.856-5.829,8.385-10.375,10.609-7.417c10.533,14.006,16.158,1.296,23.871-2.802
		c4.113-2.186,6.876-8.822,12.148-6.207c2.24,1.111,3.152,6.915,2.95,10.49c-0.366,6.476-5.325,9.556-11.249,10.127
		C603.588,349.867,590.93,349.626,577.975,344.453z"/>
	<path style="fill:#CA9A13;" d="M475.773,130.934c-16.79-9.592-34.001-13.517-36.048-34.039
		C449.421,109.45,473.756,105.044,475.773,130.934z"/>
	<path style="fill:#C4C6C8;" d="M519.079,130.034c0.233-25.697,26.184-20.097,34.595-33.738
		C550.485,112.572,550.485,112.572,519.079,130.034z"/>
	<path style="fill:#CB160C;" d="M560.999,226.793c-1.679,24.815-23.999,26.052-40.48,38.882
		C520.877,235.393,548.963,239.746,560.999,226.793z"/>
	<path style="fill:#CB120C;" d="M561.401,257.431c-2.175,24.658-24.134,27.858-41.35,40.399
		C519.412,266.947,550.713,272.542,561.401,257.431z"/>
</g>
</svg>
