<?xml version="1.0" encoding="utf-8"?>
<!-- Generator: Adobe Illustrator 28.3.0, SVG Export Plug-In . SVG Version: 6.00 Build 0)  -->
<svg version="1.1" id="Layer_1" xmlns="http://www.w3.org/2000/svg" xmlns:xlink="http://www.w3.org/1999/xlink" x="0px" y="0px"
	 viewBox="0 0 1000 1000" style="enable-background:new 0 0 1000 1000;" xml:space="preserve">
<path style="fill:#FEFEFE;" d="M388.697-0.009c9.938,2.33,19.913,4.515,29.808,7.016c52.624,13.298,103.179,31.79,149.465,60.652
	c31.818,19.84,59.798,43.839,79.728,76.174c13.275,21.538,20.634,44.932,23.59,70.11c2.83,24.102,5.354,48.188,5.155,72.445
	c-0.21,25.598-1.853,51.131-11.437,75.292c-4.627,11.664-9.465,23.201-11.232,35.716c-1.096,7.764-1.468,15.563,0.684,23.24
	c2.045,7.297,5.972,11.202,11.142,11.265c5.723,0.07,9.63-3.306,11.895-10.975c4.154-14.062,4.453-28.539,4.146-43.052
	c-0.192-9.086-1.49-18.062-3.241-27.731c4.829,3.25,8.092,7.051,11.489,10.663c39.881,42.409,70.174,90.294,83.85,147.584
	c1.802,7.55,3.054,15.232,4.56,22.853c0,18.555,0,37.109,0,55.664c-0.753,11.846-2.772,23.436-6.28,34.813
	c-2.741,8.891-6.397,17.406-9.761,26.043c-1.197,3.072-1.922,6.179-1.926,9.496c-0.03,25.125-4.964,49.501-11.946,73.459
	c-16.203,55.597-44.372,104.639-82.426,148.081c-23.936,27.326-51.541,50.502-81.547,70.886
	c-25.078,17.036-51.308,32.053-78.571,45.307c-4.418,2.148-8.98,3.646-13.641,5.001c-0.326,0-0.651,0-0.976,0
	c-9.661-2.469-17.369-8.676-25.645-13.691c-26.288-15.933-52.165-32.514-76.911-50.794c-22.137-16.353-43.424-33.729-62.337-53.779
	c-24.925-26.422-45.582-56.017-62.383-88.139c-13.442-25.701-20.906-53.539-26.205-81.964c-4.267-22.887-6.575-45.978-8.106-69.205
	c-1.027-15.581-0.236-31.196-1.725-46.746c-1.672-17.462-1.991-35.019-3.544-52.495c-0.633-7.115-0.378-14.283-0.56-21.422
	c-0.253-9.901-0.958-19.802-0.617-29.717c0.023-0.654-0.009-1.294-0.49-1.812c0-11.719,0-23.438,0-35.156
	c1.151-8.167,2.07-16.376,3.492-24.496c7.479-42.697,25.394-81.063,48.963-117.033c25.436-38.819,56.055-73.312,88.841-105.968
	c9.33-9.293,18.912-18.334,28.406-27.461c1.121-1.077,2.029-2.481,4.195-3.025c-4.653,13.303-8.749,26.464-11.293,40.023
	c-2.827,15.061-4.966,30.184-1.566,45.482c4.011,18.048,16.575,27.028,35.004,26.182c35.846-1.646,57.465-21.819,70.682-53.225
	c8.095-19.234,11.736-39.528,13.425-60.199c1.485-18.173,2.257-36.348-1.13-54.446c-5.665-30.264-22.494-53.549-45.455-73.01
	C436.082,30.786,413.42,17.31,390.988,3.501c-1.784-1.098-3.482-2.337-5.22-3.51C386.745-0.009,387.721-0.009,388.697-0.009z"/>
<path style="fill:#081F2B;" d="M729.741,655.524c-2.403,46.396-15.692,89.801-36.188,131.193
	c-31.802,64.225-79.337,114.175-139.039,153.081c-19.645,12.802-39.879,24.54-61.017,34.707c-2.278,1.095-4.16,1.677-6.714,0.067
	c-41.623-26.247-81.918-54.247-117.65-88.334c-39.692-37.865-70.702-81.953-92.993-131.982
	c-13.333-29.924-19.894-61.815-24.116-94.193c-1.662-12.749-2.78-25.544-3.271-38.392c-0.361-1.435-0.069-2.913-0.327-4.367
	c-0.842-4.733-0.397-5.517,4.206-5.668c8.617-0.284,17.246-0.271,25.864-0.008c4.754,0.145,6.011,1.554,6.416,6.187
	c0.113,1.297,0.114,2.603,0.089,3.903c-0.058,3.013,0.249,5.387,4.325,5.449c4.126,0.064,4.867-2.042,4.865-5.464
	c-0.021-24.245-0.026-48.49-0.013-72.735c0.007-11.362,0.317-11.658,11.84-11.674c7.321-0.01,14.643,0.023,21.964-0.025
	c6.458-0.042,7.586,1.046,7.755,7.657c0.125,4.88,0.162,9.768,0.007,14.642c-0.123,3.859,1.536,5.137,5.23,5.093
	c14.968-0.176,12.598,1.386,12.733-12.192c0.141-14.155,0.148-28.314-0.031-42.469c-0.064-5.047,1.228-9.046,5.092-12.545
	c4.328-3.919,7.75-8.766,11.927-12.882c3.512-3.46,5.249-3.73,8.707-0.576c6.01,5.481,11.515,11.49,17.442,17.066
	c1.917,1.803,2.272,4.232,2.355,6.727c0.092,2.765,0.001,5.531,0.12,8.297c0.09,2.092,0.99,3.098,3.13,3.606
	c6.014,1.425,6.491,2.031,6.52,8.205c0.091,19.689,0.025,39.378,0.037,59.067c0.001,1.627,0.041,3.255,0.036,4.881
	c-0.008,2.547,1.042,3.721,3.727,4.015c12.658,1.389,13.218,0.953,13.228-11.626c0.004-4.881-0.137-9.766,0.068-14.643
	c0.222-5.293,1.528-6.538,6.764-6.854c0.974-0.059,1.952-0.039,2.928-0.05c7.926-0.084,8.237-0.111,7.736-7.837
	c-1.346-20.781-3.748-41.456-6.73-62.068c-0.45-3.112-2.423-3.996-4.893-4.54c-6.047-1.333-11.924-3.208-17.802-5.146
	c-14.253-4.698-24.785-13.934-32.862-26.296c-1.362-2.085-2.516-4.409-2.355-6.83c0.304-4.578-2.166-6.674-5.931-8.24
	c-4.611-1.918-8.196-5.27-11.305-9.092c-8.415-10.344-6.815-24.766,3.748-32.915c4.932-3.805,10.501-6.533,16.504-8.236
	c3.05-0.865,5.146-2.159,5.679-5.723c0.668-4.472,4.31-6.697,7.952-8.647c6.679-3.577,14.007-5.269,21.32-6.801
	c3.885-0.814,6.315-2.501,7.779-6.279c3.691-9.522,11.763-14.446,20.469-18.472c5.917-2.736,12.089-4.915,18.487-6.164
	c4.706-0.918,7.275-3.369,8.68-7.964c5.516-18.048,11.554-35.933,17.153-53.958c0.833-2.681,0.958-6.759,4.411-6.775
	c3.503-0.016,3.565,4.095,4.43,6.766c5.761,17.804,11.887,35.487,17.636,53.294c1.28,3.963,3.69,6.059,7.543,7.457
	c11.655,4.227,22.875,9.365,32.645,17.232c3.329,2.68,6.404,5.58,8.476,9.333c1.793,3.248,4.512,4.89,7.992,5.817
	c5.829,1.553,11.434,3.728,16.78,6.572c4.225,2.248,8.133,4.807,10.57,9.098c1.101,1.938,2.987,2.941,4.769,4.07
	c4.831,3.059,9.34,6.494,13.171,10.787c11.76,13.178,9.019,27.077-2.815,38.313c-1.062,1.008-2.238,1.923-3.518,2.621
	c-4.424,2.412-6.403,5.91-6.339,11.106c0.094,7.633-4.112,13.115-10.107,17.419c-10.872,7.806-23.208,12.331-35.873,16.155
	c-10.339,3.121-9.372,0.957-10.264,12.748c-0.76,10.051-1.326,20.118-2.629,30.112c-0.437,3.35,0.714,5.162,3.552,6.562
	c7.004,3.454,13.958,7.01,20.955,10.478c5.092,2.524,7.475,6.256,7.221,12.057c-0.284,6.495,0.011,13.016-0.087,19.522
	c-0.052,3.471,1.219,4.895,4.818,5.012c9.189,0.299,9.257,0.371,9.265-8.843c0.011-13.506-0.061-27.012,0.032-40.517
	c0.048-7.028,1.254-8.143,8.307-8.288c12.213-0.251,11.127,1.86,11.181-11.266c0.053-12.744,0.427-13.161,13.178-13.156
	c4.718,0.002,9.441-0.159,14.153,0.083c4.781,0.246,5.984,1.509,6.383,6.194c0.055,0.649,0.058,1.3,0.067,1.951
	c0.129,9.996-0.903,9.244,9.71,9.361c7.63,0.084,8.818,1.212,8.833,8.791c0.058,27.825,0.009,55.65,0.029,83.475
	c0.006,8.413,0.368,8.584,8.917,8.334c3.766-0.11,5.253-1.567,5.155-5.292c-0.124-4.714-0.023-9.436-0.019-14.155
	c0.007-8.787,0.276-17.585-0.09-26.357c-0.262-6.275,2.06-10.84,6.635-14.914c9.909-8.824,10.104-8.682,20.7-0.461
	c6.235,4.838,8.839,10.373,8.647,18.34c-0.467,19.352-0.167,38.723-0.144,58.087c0.008,7.103,0.044,7.103,6.959,7.182
	c0.651,0.007,1.302-0.001,1.952,0.012c7.086,0.135,7.403,0.431,7.368,7.403C729.935,651.309,730.182,653.43,729.741,655.524z"/>
<path style="fill:#008299;" d="M729.741,655.524c-0.089-0.31-0.251-0.619-0.257-0.931c-0.233-10.9-0.231-10.9-11.35-10.913
	c-6.464-0.007-6.47-0.007-6.471-6.733c-0.003-21.97-0.067-43.94,0.068-65.909c0.021-3.423-0.932-5.876-3.655-7.936
	c-3.496-2.645-6.934-5.405-10.121-8.408c-2.238-2.11-3.541-1.74-6.125-0.12c-10.209,6.403-13.592,15.113-12.476,27.047
	c1.072,11.454,0.117,23.089,0.296,34.641c0.057,3.659-1.238,4.722-4.81,4.744c-12.563,0.078-12.561,0.196-12.561-12.55
	c0-27.503-0.082-55.007,0.088-82.509c0.026-4.163-0.905-5.838-5.374-5.565c-4.147,0.254-9.492,1.865-12.242-0.774
	c-2.792-2.68-0.869-8.037-0.91-12.209c-0.029-2.999-0.703-4.46-4.077-4.372c-7.48,0.196-14.97,0.145-22.453,0.022
	c-2.972-0.049-4.044,1.115-3.963,4.038c0.143,5.204-0.123,10.421,0.094,15.619c0.138,3.306-0.807,4.818-4.352,4.523
	c-3.07-0.255-6.21,0.226-9.263-0.117c-4.599-0.517-6.167,0.968-6.071,5.811c0.308,15.454-0.015,30.92,0.198,46.378
	c0.059,4.241-0.802,5.959-5.552,5.839c-12.321-0.312-12.327-0.067-12.326-12.634c0-5.533-0.203-11.077,0.076-16.596
	c0.165-3.272-1.056-5.085-3.891-6.465c-8.336-4.057-16.511-8.452-24.913-12.362c-2.97-1.382-3.619-3.019-3.122-6.033
	c2.119-12.847,2.651-25.851,3.372-38.823c0.175-3.145,1.072-4.424,4.206-5.264c14.317-3.837,28.387-8.364,40.877-16.743
	c7.085-4.753,11.678-10.769,10.952-19.799c-0.32-3.983,1.324-6.562,4.95-8.577c5.944-3.304,10.485-8.161,13.267-14.515
	c3.217-7.345,2.337-14.315-2.039-20.844c-4.536-6.768-10.863-11.601-17.84-15.603c-1.896-1.087-3.289-2.25-4.147-4.436
	c-1.454-3.704-4.978-5.443-8.265-7.238c-6.172-3.37-12.777-5.622-19.522-7.542c-1.791-0.51-3.938-0.583-4.989-2.657
	c-6.234-12.297-17.796-18.127-29.337-23.844c-4.936-2.445-10.153-4.391-15.38-6.156c-3.118-1.053-4.642-2.831-5.634-5.92
	c-6.311-19.661-12.815-39.261-19.269-58.877c-0.347-1.053-0.819-2.065-1.751-4.386c-2.651,8.248-4.941,15.357-7.222,22.468
	c-4.667,14.549-9.385,29.083-13.945,43.665c-0.859,2.748-2.535,3.711-5.165,4.305c-11.957,2.701-23.559,6.316-33.436,14.037
	c-4.387,3.43-7.49,7.778-8.785,13.129c-0.612,2.53-1.684,3.332-4.106,3.798c-8.136,1.565-16.316,3.2-23.785,6.952
	c-4.619,2.32-9.71,4.646-8.126,11.557c0.48,2.095-1.475,1.706-2.564,2.035c-5.299,1.6-10.507,3.361-15.376,6.098
	c-17.584,9.886-17.94,30.167-0.65,40.74c1.108,0.678,2.218,1.445,3.435,1.834c4.641,1.485,7.024,3.412,6.761,9.436
	c-0.311,7.131,6.25,11.844,10.598,16.856c9.607,11.074,23.073,15.376,36.773,18.714c9.562,2.33,9.836,2.087,11.082,11.494
	c2.666,20.131,5.231,40.282,6.124,60.591c0.305,6.933,0.145,6.94-6.625,6.943c-10.971,0.004-10.97,0.004-10.97,10.94
	c0,6.184-0.091,12.37,0.04,18.551c0.057,2.707-0.871,3.827-3.648,3.725c-4.062-0.149-8.157-0.298-12.196,0.042
	c-4.046,0.34-4.872-1.363-4.848-5.041c0.139-21.806-0.057-43.615,0.17-65.42c0.047-4.544-0.957-6.771-5.827-6.004
	c-2.897,0.457-4.475-0.807-3.883-3.807c2.078-10.529-2.468-17.831-10.745-23.803c-3.515-2.536-6.371-6.037-9.318-9.289
	c-1.775-1.959-2.786-1.885-4.558,0.121c-5.059,5.724-10.267,11.331-15.667,16.732c-1.785,1.785-1.819,3.636-1.819,5.741
	c0.004,18.064-0.135,36.13,0.102,54.191c0.057,4.324-1.161,5.842-5.48,5.434c-3.71-0.35-7.494-0.285-11.216-0.013
	c-3.747,0.274-5.254-0.867-5.061-4.862c0.306-6.332-0.051-12.694,0.133-19.035c0.093-3.216-0.918-4.077-4.209-3.979
	c-9.592,0.286-19.202,0.269-28.797,0.03c-3.852-0.096-4.977,1.111-4.955,4.966c0.154,26.526,0.1,53.053,0.037,79.579
	c-0.004,1.812,1.061,4.638-1.155,5.241c-3.388,0.921-7.178,1.069-10.557-0.135c-1.575-0.562-0.832-2.944-0.853-4.514
	c-0.142-10.594-0.123-10.594-10.847-10.594c-6.183,0-12.386,0.298-18.544-0.098c-4.589-0.295-6.202,1.135-5.105,5.628
	c0.219,0.895-0.074,1.915-0.132,2.87c-4.434-20.17-7.381-40.582-10.1-61.026c-2.853-21.452-4.633-42.995-5.218-64.64
	c-1.043-38.579,7.551-75.209,22.279-110.579c22.491-54.016,56.18-100.608,95.526-143.4c6.603-7.182,13.488-14.106,20.307-21.087
	c1.07-1.096,1.855-2.694,4.13-2.949c-1.71,10.892-2.968,21.657-3.125,32.514c-0.167,11.588,0.558,23.096,3.979,34.242
	c7.133,23.236,23.155,32.819,47.119,28.31c23.076-4.343,40.791-17.583,55.44-34.958c30.993-36.759,45.364-79.435,43.671-127.528
	c-0.633-17.986-2.874-35.663-9.445-52.553c-8.16-20.973-22.72-36.918-40.027-50.702c-9.411-7.495-19.41-14.169-29.211-21.232
	c6.547,0.872,12.65,3.178,18.763,5.32c46.124,16.165,89.079,38.148,126.257,70.303c36.298,31.394,62.221,69.285,71.6,117.211
	c4.6,23.509,3.703,47.303,3.44,71.027c-0.245,22.131-1.879,44.179-6.822,65.859c-1.744,7.65-4.785,14.824-7.524,22.132
	c-6.888,18.377-7.911,36.787,0.884,54.946c2.512,5.187,5.955,9.704,10.689,13.106c8.187,5.882,15.5,4.914,21.647-3.095
	c6.84-8.913,9.691-19.415,11.277-30.292c1.777-12.188,1.41-24.266-2.895-36.104c7.473,7.666,13.637,16.196,19.319,25.057
	c27.979,43.634,43.479,91.018,42.769,143.236c-0.407,29.945-6.537,58.753-17.537,86.519
	C732.831,639.178,729.481,646.853,729.741,655.524z"/>
<path style="fill:#FEFEFE;" d="M591.114,727.715c0.095,31.513-25.203,59.765-57.23,64.308c-17.314,2.456-33.271-0.746-48.105-9.943
	c-2.625-1.627-4.181-3.559-4.847-6.776c-4.866-23.505-9.895-46.978-15.978-70.207c-0.536-2.047-0.854-3.926,0.445-6.003
	c15-23.996,36.908-35.552,64.819-33.713c26.024,1.715,45.274,14.872,56.176,39.077C589.702,711.805,591.097,719.646,591.114,727.715
	z"/>
<path style="fill:#FEFEFE;" d="M388.745,773.389c8.273,4.021,13.767,9.779,18.666,16.062c6.805,8.728,12.282,18.365,18.252,27.664
	c1.937,3.017,0.762,3.607-2.066,4.222c-8.249,1.794-16.487,3.676-24.645,5.843c-3.17,0.842-4.954,0.029-6.924-2.489
	c-10.215-13.057-20.624-25.962-30.976-38.912c-0.895-1.12-1.864-2.18-3.735-4.36c2.633,13.775,5.016,26.21,7.381,38.647
	c0.638,3.352,0.995,6.778,1.905,10.052c0.719,2.585-0.007,3.439-2.506,3.88c-8.155,1.438-16.314,2.894-24.392,4.698
	c-3.403,0.76-4.108-0.651-4.642-3.48c-5.154-27.291-10.41-54.562-15.623-81.842c-2.073-10.846-3.886-21.748-6.281-32.521
	c-0.879-3.954,0.211-4.945,3.865-5.618c18.846-3.471,37.647-7.191,56.459-10.844c6.186-1.201,11.193,0.905,14.07,6.296
	c8.347,15.64,12.759,32.284,10.858,50.151C397.824,766.35,395.601,771.201,388.745,773.389z"/>
<path style="fill:#FEFEFE;" d="M599.896,671.313c-5.011,0.95-11.897,2.135-18.721,3.608c-2.725,0.588-4.033,0.335-4.547-2.832
	c-1.353-8.332-2.946-16.633-4.751-24.879c-0.561-2.562,0.385-3.112,2.449-3.505c25.689-4.89,51.376-9.795,77.052-14.754
	c2.567-0.496,3.684,0.067,4.148,2.896c1.261,7.689,2.838,15.33,4.43,22.96c0.569,2.725,0.177,4.102-3.003,4.573
	c-6.257,0.928-12.412,2.553-18.671,3.464c-3.154,0.459-3.441,1.502-2.874,4.423c5.818,29.98,11.382,60.01,17.241,89.982
	c0.667,3.412,0.065,4.436-3.316,4.967c-7.534,1.183-15.031,2.668-22.476,4.333c-3.461,0.774-4.373-0.438-4.973-3.664
	c-5.435-29.225-11.013-58.423-16.691-87.602C604.855,673.555,605.727,670.085,599.896,671.313z"/>
<path style="fill:#A1A9AC;" d="M511.581,515.314c6.407-17.472,10.601-35.723,22.351-50.842c-2.311,10.018-4.72,20.014-6.915,30.057
	c-7.411,33.916-12.657,68.046-11.668,102.962c0.567,19.994,0.044,40.018,0.164,60.028c0.018,3.068-0.458,4.632-4.005,4.975
	c-5.826,0.565-11.538,2.029-16.9,4.498c-2.447,1.127-3.254,0.388-3.059-2.11c0.063-0.808,0.005-1.626,0.005-2.44
	c0-69.792,0.056-139.585-0.12-209.377c-0.013-4.975,1.239-6.791,6.193-6.086c4.444,0.632,10.186-1.935,13.108,1.082
	c2.686,2.773,0.791,8.381,0.815,12.731c0.092,16.431,0.033,32.862,0.031,49.294C511.581,511.829,511.581,513.571,511.581,515.314z"
	/>
<path style="fill:#A1A9AC;" d="M463.22,694.69c-2.561-7.321-4.823-13.743-7.049-20.176c-0.725-2.094-0.241-4.19,0.196-6.26
	c6.765-31.989,12.652-64.145,13.853-96.883c1.15-31.36-2.297-62.321-10.733-92.639c-0.871-3.13-1.712-6.281-2.32-9.47
	c-1.463-7.673,1.084-12.428,7.941-15.972c2.755-1.424,3.94-0.926,4.863,2.029c3.547,11.364,5.63,23.027,7.63,34.729
	c6.963,40.737,8.321,81.79,6.706,122.972c-0.809,20.63-3.429,41.129-5.917,61.62c-0.185,1.527-0.723,2.807-1.881,3.832
	C471.498,682.911,467.469,688.185,463.22,694.69z"/>
<path style="fill:#008299;" d="M422.446,787.883c-1.972,0.399-2.429-1.051-2.966-2.453c-6.11-15.933-12.179-31.882-18.379-47.78
	c-1.517-3.889,1.578-3.642,3.484-4.053c14.61-3.151,29.083-6.838,43.462-10.903c4.375-1.237,8.741-2.518,13.068-3.912
	c2.156-0.694,3.451-0.873,4.083,2.024c3.255,14.91,6.713,29.776,10.151,44.645c0.491,2.122-0.658,3.36-1.978,4.628
	c-6.32,6.074-13.318,10.798-22.228,12.322C441.545,784.045,432.009,786.041,422.446,787.883z"/>
<path style="fill:#A1A9AC;" d="M491.554,859.826c0-21.62-0.004-43.24,0.003-64.86c0.002-5.395,0.033-5.428,5.212-3.404
	c4.867,1.902,9.883,3.247,15.052,3.918c2.441,0.316,3.691,1.026,3.684,3.872c-0.087,38.526-0.085,77.051-0.005,115.577
	c0.005,2.439-1.274,3.408-3.025,4.413c-5.638,3.233-11.339,6.372-16.826,9.846c-3.632,2.299-4.16,1.071-4.144-2.551
	C491.602,904.367,491.553,882.097,491.554,859.826z"/>
<path style="fill:#A1A9AC;" d="M462.589,861.291c-4.061,0-8.136,0.208-12.179-0.065c-3.274-0.221-4.546,0.938-4.993,4.188
	c-1.505,10.937-4.158,21.659-6.42,32.456c-0.774,3.696-2.133,4.134-5.205,2.463c-10.144-5.518-17.718-14.09-26.306-21.5
	c-9.088-7.841-11.66-15.697-5.371-26.642c3.505-6.1,5.219-13.269,7.416-20.062c1.026-3.172,2.599-5.089,6.014-5.249
	c0.469-0.022,0.918-0.32,1.39-0.43c2.837-0.66,5.765-2.065,8.497-1.756c3.339,0.378,2.798,4.611,4.553,6.845
	c2.889,3.678,6.058,6.96,10.574,8.238c6.902,1.953,13.556,5.047,21.129,4.113c4.32-0.533,8.784,0.187,13.139-0.179
	c4.054-0.341,4.79,1.309,4.751,4.968c-0.134,12.609-0.005,12.611-12.604,12.611C465.513,861.291,464.051,861.291,462.589,861.291z"
	/>
<path style="fill:#FEFEFE;" d="M390.761,700.376c0.069-1.46,0.037-2.933,0.235-4.374c1.223-8.914,2.345-10.081,11.218-11.137
	c11.615-1.382,22.701-4.165,31.945-11.846c1.701-1.413,3.225-1.054,4.947-0.368c8.566,3.413,15.103,9.012,18.045,17.925
	c2.235,6.771,3.804,13.761,5.784,20.62c0.678,2.347,0.164,3.353-2.331,4.132c-19.224,6.005-38.737,10.872-58.39,15.216
	c-1.446,0.32-3.086,0.879-3.477-1.264c-1.576-8.659-6.892-16.148-7.773-25.012C390.836,702.979,390.829,701.676,390.761,700.376z"/>
<path style="fill:#FEFEFE;" d="M476.731,772.132c2.64,12.544,4.74,24.685,7.878,36.552c1.652,6.246-0.264,10.576-3.947,15.041
	c-11.014,13.357-26.981,13.688-40.416,9.045c-1.546-0.534-2.268-1.706-2.841-3.108c-4.788-11.714-9.549-23.439-14.432-35.113
	c-1.039-2.483-0.543-3.233,2.145-3.683c8.318-1.394,16.544-3.359,24.876-4.646c8.815-1.361,16.333-5.114,22.959-10.916
	C474.021,774.369,475.127,773.476,476.731,772.132z"/>
<path style="fill:#A1A9AC;" d="M594.898,409.551c-40.772-7.504-81.837-8.058-123.001-6.404c-15.981,0.642-31.76,2.928-46.879,8.418
	c-9.406,3.415-18.411,7.626-23.756,16.847c-0.904,1.56-1.89,1.334-3.227,0.659c-2.757-1.393-5.563-2.691-8.374-3.975
	c-4.597-2.101-5.485-4.884-2.633-9.086c2.629-3.872,6.443-6.398,10.528-8.499c14.854-7.64,30.999-10.769,47.318-12.781
	c33.887-4.178,67.817-4.248,101.642,0.784C563.263,398.005,579.708,401.772,594.898,409.551z"/>
<path style="fill:#FDFEFE;" d="M385.735,654.318c-5.27-1.371-9.999-3.804-14.197-7.267c-1.8-1.485-2.369-2.795-1.048-5.34
	c2.937-5.656,2.256-12.018,2.288-18.168c0.025-4.866-0.08-9.736-0.276-14.599c-0.14-3.479,1.742-4.198,4.572-3.555
	c3.002,0.683,6.163,1.158,8.888,2.478c7.455,3.612,14.796,7.439,22.739,9.922c2.754,0.861,4.129,3.091,5.155,5.52
	c6.07,14.366,12.012,28.787,18.187,43.108c1.14,2.643,0.098,3.878-1.766,5.216c-5.099,3.662-10.898,5.724-16.841,7.471
	c-2.795-0.826-1.196-2.376-0.512-3.615c7.518-13.611,4.133-24.411-9.968-31.015c-5.604-2.624-10.443-5.935-13.666-12.191
	c-0.085,2.256,0.042,3.948-0.096,5.621c0.429,2.965,1.998,5.393,3.782,7.652c1.781,2.256,4.454,4.334,1.774,7.429
	C392.25,655.876,389.129,656.511,385.735,654.318z"/>
<path style="fill:#A1A9AC;" d="M573.491,441.718c-15.745-4.554-31.888-5.465-48.071-6.052c-29.573-1.073-58.8,0.762-87.106,10.356
	c-0.307,0.104-0.647,0.13-0.937,0.266c-2.7,1.276-7.031,1.145-7.439,4.593c-0.473,3.998,3.945,4.989,6.67,6.851
	c1.683,1.151,3.994,1.243,5.735,3.594c-9.951,2.664-19.238,2.528-27.848-2.866c-4.445-2.785-4.565-6.798-0.702-10.591
	c7.023-6.897,15.842-10.841,24.982-13.767c42.232-13.518,84.293-13.819,125.972,2.463
	C567.873,437.785,570.98,439.169,573.491,441.718z"/>
<path style="fill:#A1A9AC;" d="M544.793,864.378c-0.26-3.928-0.524-6.932-0.648-9.941c-0.772-18.663-1.439-37.331-2.337-55.987
	c-0.151-3.137,0.689-4.543,3.754-5.528c4.299-1.381,8.401-3.417,12.502-5.354c1.978-0.934,3.177-1.805,3.835,1.452
	c3.218,15.925,7.001,31.718,12.153,47.15c0.511,1.531,0.349,2.806-0.851,3.996C564.567,848.727,555.069,856.245,544.793,864.378z"/>
<path style="fill:#A1A9AC;" d="M385.735,654.318c1.915-0.203,3.868,0.318,5.762-0.479c3.598-1.512,3.957-3.455,1.19-6.116
	c-2.881-2.771-4.904-6.005-4.738-10.221c1.976-0.967,3.513,0.187,4.892,1.241c4.426,3.383,9.422,5.734,14.315,8.295
	c7.285,3.813,10.463,9.93,9.294,17.576c-0.981,6.417-6.131,11.042-13.895,12.456c-2.899,0.528-5.832,0.458-8.754,0.359
	c-7.135-0.243-11.04-4.575-10.405-11.689c0.273-3.063,0.796-6.129,2.515-8.814C387.165,655.968,386.383,655.147,385.735,654.318z"/>
<path style="fill:#028299;" d="M385.911,656.926c-0.653,3.5-1.432,6.975-1.073,10.59c0.58,5.846,3.236,8.451,9.022,8.522
	c3.726,0.046,7.449,0.018,11.071-1.168c6.535-2.14,9.902-6.051,10.241-12.071c0.424-7.549-1.525-11.017-8.537-14.068
	c-6.741-2.934-12.488-7.439-18.686-11.23c-0.493-2.756-0.26-5.434,0.967-9.203c3.27,8.977,9.951,12.669,17.257,16.039
	c12.858,5.931,16.201,21.577,7.345,32.641c-0.614,0.767-1.501,1.365-0.073,2.125c-7.432,2.618-14.788,5.36-22.935,4.731
	c-3.412-0.263-5.842-1.398-7.396-4.478C380.143,673.466,381.52,662.129,385.911,656.926z"/>
<path style="fill:#A0A8AB;" d="M510.474,356.828c-10.54,3.768-21.241,6.981-31.505,11.417c-4.188,1.81-8.039,5.377-12.135,5.882
	c-4.02,0.496-6.239-5.519-10.337-7.203c-0.586-0.241-1.099-0.661-1.669-1.012C461.457,359.813,489.938,355.013,510.474,356.828z"/>
<path style="fill:#9DA5A8;" d="M534.82,617.987c2.702,7.124,3.596,14.638,4.919,22.049c1.085,6.078,2.102,12.175,2.867,18.3
	c0.2,1.6,2.154,4.479-1.274,4.811c-2.668,0.258-5.285-0.169-5.327-4.406c-0.112-11.218-0.77-22.43-1.173-33.646
	C534.747,622.729,534.82,620.357,534.82,617.987z"/>
<path style="fill:#081F2C;" d="M529.868,697.338c5.254-0.02,11.84,1.413,17.969,4.745c17.827,9.691,21.622,30.499,8.353,45.79
	c-12.208,14.068-34.982,18.718-51.762,10.57c-21.901-10.635-23.938-36.991-3.971-52.047
	C508.636,700.228,517.942,697.313,529.868,697.338z"/>
<path style="fill:#081F2C;" d="M350.718,726.062c11.643,0.156,19.083,4.558,22.203,12.759c4.991,13.119-3.802,27.656-17.785,29.534
	c-1.773,0.238-2.257-0.39-2.547-1.944c-2.291-12.28-4.677-24.542-6.96-36.824C344.519,723.618,349.656,727.58,350.718,726.062z"/>
</svg>
