<?xml version="1.0" encoding="utf-8"?>
<!-- Generator: Adobe Illustrator 28.3.0, SVG Export Plug-In . SVG Version: 6.00 Build 0)  -->
<svg version="1.1" id="Layer_1" xmlns="http://www.w3.org/2000/svg" xmlns:xlink="http://www.w3.org/1999/xlink" x="0px" y="0px"
	 viewBox="0 0 1000 1000" style="enable-background:new 0 0 1000 1000;" xml:space="preserve">
<path style="fill:#EDE0C4;" d="M999.386,501.398c14.642,268.374-234.734,503.104-504.297,498.536
	C215.279,995.193,16.514,769.608,1.548,546.995c-10.11-150.394,28.646-284.82,135.302-393.423
	C238.36,50.211,362.435,1.516,510.179,0.022C773.458-2.638,1013.096,231.801,999.386,501.398z"/>
<path style="fill:#CE142B;" d="M500.527,33.887c257.069-0.083,466.547,208.692,466.801,465.234
	c0.255,257.961-209.248,467.188-468.701,466.251c-253.913-0.916-464.49-204.752-464.404-465.8
	C34.308,238.609,245.004,34.668,500.527,33.887z"/>
<path style="fill:#EDE0C4;" d="M381.394,610.118c3.819,3.554,3.087,12.246,11.083,10.886c8.88-1.51,6.597-9.307,6.965-15.035
	c0.99-15.408,14.436-25.41,16.757-41.238c1.065-7.264,18.227-9.977,28.99-10.567c5.541-0.304,3.516,6.576,3.409,10.221
	c-1.262,43.136-2.77,86.264-4.243,129.393c-0.106,3.115-0.494,6.219-0.663,9.333c-0.244,4.491,0.296,8.573,6.158,8.674
	c5.479,0.094,7.073-3.385,7.096-8.14c0.056-11.443,0.151-22.887,0.167-34.33c0.042-30.171,0.048-60.342,0.072-90.513
	c0.005-6.768-0.667-13.99,10.667-14.384c3.454,57.05,6.901,113.991,10.349,170.932c0.934,0.051,1.867,0.102,2.8,0.153
	c0-36.947,0-73.894,0-115.286c17.398,13.659,31.038,24.414,44.726,35.106c30.994,24.21,61.044,49.634,93.521,71.934
	c12.498,8.582,12.054,12.258-2.179,18.926c-151.604,71.027-335.155-10.403-378.828-172.456
	c-24.183-89.734-8.806-172.485,49.586-244.22c52.178-64.102,120.57-98.685,205.519-100.62
	c79.435-1.809,146.345,24.452,201.935,79.732c45.324,45.072,70.819,100.044,76.716,163.99
	c8.779,95.202-24.403,173.372-95.726,235.945c-32.123,28.182-32.632,27.838-47.34-11.788c-14.216-38.301-28.059-76.74-42.088-115.11
	c-1.527-4.177-3.196-8.302-5.803-12.317c-0.692,13.661-3.684,26.489-9.947,40.197c4.459-69.048-23.459-113.695-94.129-122.536
	c-41.176-5.151-78.061,7.04-107.114,38.342c-3.038,14.709-15.938,25.333-16.597,41.257c-0.29,7.007-1.634,13.989-1.29,19.849
	c-0.022-23.666,4.315-46.407,28.138-60.412c45.589-34.489,105.988-36.913,144.405-5.796c32.337,26.193,38.489,70.905,13.965,104.409
	c-13.862,18.939-16.489-4.972-26.276-7.798c17.115,1.378,34.473,2.98,30.411-21.251c-2.503-14.933-14.668-1.531-23.515-6.961
	c10.43-8.642,30.364-14.507,15.638-32.929c-9.005-11.265-13.582,6.756-22.644,3.998c-1.016-11.002,19.168-24.515-3.098-34.059
	c-17.322-7.425-11.034,16.746-23.876,15.45c-4.118-9.196,11.746-26.972-9.695-29.833c-21.128-2.82-7.901,20.459-18.959,25.58
	c-12.335-2.895,5.92-28.891-18.296-24.773c-20.215,3.437-11.369,17.749-10.612,29.207c-11.629,0.995-13.499-25.183-28.318-8.68
	c-6.921,4.091-13.153,8.535-9.343,18.137c2.921,3.382,5.842,6.764,10.107,11.702c-7.791,0.733-16.295-5.728-19.659,4.386
	C373.982,581.419,377.863,595.764,381.394,610.118z"/>
<path style="fill:#EDDFC3;" d="M845.811,364.37c29.254-1.52,29.292-1.52,29.563-29.333c0.11-11.296,0.018-22.595,0.859-34
	c6.511,15.756,9.342,32.407,11.459,49c1.337,10.48,5.123,14.428,15.654,13.209c7.488-0.867,15.159-0.168,24.531,1.337
	c-18.513,11.971-30.006,25.508-15.761,44.966c-1.865,4.083-3.496,3.075-4.621,2.402c-18.726-11.196-18.273-11.109-23.14,9.511
	c-13.746,58.243-40.702,109.626-81.394,153.691c-2.464,2.668-5.162,5.13-7.861,7.567c-0.729,0.658-1.859,0.874-3.359,1.538
	c-1.852-8.878,4.014-14.44,8.45-20.173c36.287-46.907,58.972-99.658,70.171-157.788c2.587-13.429,1.615-22.826-11.63-29.351
	C854.119,374.674,848.969,371.54,845.811,364.37z"/>
<path style="fill:#EDDFC3;" d="M128.707,307.708c0,16.228,0.792,29.662-0.223,42.959c-1.014,13.28,4.178,18.046,16.932,16.318
	c3.832-0.519,7.794-0.08,12.004-0.08c-1.062,7.94-6.641,10.206-10.673,12.219c-15.352,7.664-14.949,19.29-12.03,33.809
	c10.377,51.62,30.195,99.011,60.32,142.2c4.644,6.657,9.708,13.399,9.911,25.329c-15.363-13.342-25.871-27.774-35.45-42.482
	c-24.236-37.211-42.943-77.051-50.589-121.161c-2.245-12.953-5.783-15.41-15.606-5.951c-2.492,2.4-6.086,3.659-13.864,8.152
	c12.816-22.475,11.21-38.714-12.247-48.135c3.971-2.468,5.111-3.769,6.327-3.845c30.808-1.933,30.73-1.925,36.38-31.597
	C121.519,326.935,122.081,318.048,128.707,307.708z"/>
<path style="fill:#EDDEC3;" d="M586.571,129.487c0,19.636,0.109,39.274-0.103,58.908c-0.037,3.437,2.039,9.152-5.585,7.912
	c-4.891-0.795-7.062-2.885-6.922-8.149c0.687-25.946,0.879-51.906,1.787-77.843c0.136-3.869-1.447-10.591,5.524-10.914
	c5.819-0.27,10.62,1.915,13.367,8.343c7.329,17.155,15.373,34.007,23.147,50.973c2.321,5.066,4.689,10.111,9.454,15.008
	c1.022-18.146,1.914-36.301,3.184-54.429c0.233-3.329-2.659-9.012,4.184-9.215c6.576-0.196,8.667,3.604,8.341,9.99
	c-1.374,26.941-2.355,53.902-3.678,80.846c-0.159,3.23,1.865,8.144-3.127,9.167c-5.075,1.04-9.014-1.785-11.123-6.596
	c-5.619-12.824-11.078-25.718-16.773-38.507c-5.431-12.197-11.08-24.298-16.633-36.441
	C589.934,128.854,588.252,129.17,586.571,129.487z"/>
<path style="fill:#EDDEC2;" d="M542.652,142.86c0.18,31.438-8.629,46.191-30.18,50.776c-25.507,5.427-43.883-7.251-48.427-32.951
	c-1.74-9.84-1.832-19.67-0.901-29.454c2.774-29.145,14.88-40.99,40.627-40.478c24.551,0.489,37.385,14.587,38.859,42.768
	C542.792,136.625,542.652,139.746,542.652,142.86z"/>
<path style="fill:#EDDEC2;" d="M414.468,156.694c6.215,6.921,11.415,12.696,16.598,18.488c4.762,5.321,9.506,10.659,15.165,17.007
	c-10.286,4.825-16.779,2.551-22.682-4.709c-5.236-6.44-12.104-11.696-16.614-18.549c-5.821-8.845-13.117-6.807-20.498-4.577
	c-8.042,2.43-4.369,9.406-4.457,14.612c-0.113,6.737,0.432,13.487,0.748,20.229c0.243,5.178-3.81,5.54-7.246,6.329
	c-6.382,1.465-5.01-3.619-5.148-6.753c-1.165-26.452-2.201-52.909-3.16-79.369c-0.126-3.465-1.439-8.584,2.902-9.567
	c16.461-3.728,32.738-12.132,50.096-5.269c13.479,5.329,17.842,22.13,10.3,35.746C426.824,146.894,420.798,151.061,414.468,156.694z
	"/>
<path style="fill:#EDDDC2;" d="M337.432,178.549c0.918,27.56-12.378,48.055-39.05,55.882c-16.597,4.871-26.319,0.316-31.203-16.12
	c-5.57-18.746-5.743-37.886-0.539-56.836c4.67-17.009,16.444-27.207,32.779-32.623c17.995-5.967,29.108-0.114,34.817,17.793
	C337.142,155.766,336.514,165.16,337.432,178.549z"/>
<path style="fill:#EDDDC2;" d="M448.462,836.057c-1.237,23.305-2.252,46.625-3.881,69.902c-0.367,5.243,3.05,14.858-6.668,13.938
	c-9.509-0.901-4.242-9.988-4.439-15.364c-0.32-8.781-0.019-17.72,1.343-26.386c1.2-7.639-0.016-10.745-8.543-12.231
	c-22.554-3.93-22.418-4.481-24.733,19.045c-0.61,6.194-1.196,12.427-2.462,18.504c-0.69,3.311,2.403,9.506-4.881,9.042
	c-7.57-0.482-6.901-5.726-6.223-11.349c1.924-15.96,3.34-31.981,5.137-47.957c1.565-13.915,3.134-27.838,5.239-41.677
	c0.563-3.704-2.086-10.997,5.785-9.771c6.715,1.045,4.36,7.277,4.077,11.548c-0.583,8.787-1.347,17.597-2.707,26.292
	c-3.155,20.164,13.966,13.913,22.783,16.592c12.234,3.717,7.553-7.62,8.389-12.837c1.473-9.187,1.645-18.577,2.519-27.867
	c0.276-2.939,0.144-6.523,4.981-5.886c3.76,0.495,5.233,2.479,5.139,6.238c-0.168,6.738-0.047,13.483-0.047,20.224
	C449.001,836.057,448.731,836.057,448.462,836.057z"/>
<path style="fill:#ECDBC1;" d="M830.165,241.45c-2.034,11.18-1.565,23.3-5.794,34.664c-4.582,12.313-12.711,15.539-24.585,9.764
	c-22.538-10.963-34.384-29.455-37.343-53.755c-1.709-14.033-0.011-28.107,3.587-41.691c4.855-18.333,16.605-22.355,33.067-12.151
	C822.427,192.741,829.334,215.287,830.165,241.45z"/>
<path style="fill:#EDDDC2;" d="M292.017,871.932c-10.767-0.374-12.485-7.609-13.925-14.671c-2.69-13.189-5.367-26.399-7.355-39.704
	c-0.998-6.678-4.859-11.275-10.409-12.082c-8.354-1.214-4.869,7.351-6.632,11.303c-2.705,6.063-3.363,13.003-5.445,19.39
	c-0.88,2.699-0.06,8.567-6.148,5.853c-3.501-1.561-5.836-4.219-4.512-8.69c2.352-7.941,4.563-15.925,6.763-23.909
	c5.64-20.468,11.934-40.792,16.594-61.481c2.681-11.899,6.129-10.728,14.803-5.017c16.195,10.662,28.163,22.94,26.215,43.997
	c-1.05,11.354-3.809,22.057-16.076,25.934c-6.843,2.163-5.625,5.832-4.538,10.628C284.978,839.467,288.415,855.493,292.017,871.932z
	"/>
<path style="fill:#ECDBC1;" d="M150.187,750.359c-1.985-32.558,7.944-64.286,11-101.164c-10.378,22.842-18.838,41.46-27.745,61.065
	c-4.2-5.158-6.706-8.612-4.341-13.784c12.422-27.163,24.706-54.389,39.229-81.165c6.019,30.386-6.937,59.236-6.576,93.336
	c9.136-21.66,16.735-39.674,24.427-57.909c5.283,2.876,7.163,6.249,5.411,10.686c-11.771,29.803-23.677,59.552-35.539,89.319
	C154.097,750.615,152.142,750.487,150.187,750.359z"/>
<path style="fill:#ECDCC1;" d="M790.26,813.878c-9.618-30.794-19.219-60.89-28.334-91.133c-2.548-8.453,15.911-31.456,26.26-32.497
	c13.497-1.357,15.218,9.853,18.408,19.047c2.278,6.565,3.125,13.802,0.667,19.924c-4.929,12.273-0.922,19.436,10.398,24.319
	c3.792,1.636,7.301,3.992,10.785,6.257c3.07,1.995,8.825,2.791,4.861,8.697c-3.167,4.718-6.615,7.815-12.567,3.254
	c-5.349-4.098-11.286-7.422-16.834-11.274c-3.492-2.425-6.687-5.318-10.898-1.275c-3.788,3.638-7.55,6.82-5.048,13.267
	c3.371,8.686,5.436,17.877,8.793,26.569C799.147,805.239,799.555,810.022,790.26,813.878z"/>
<path style="fill:#ECDCC1;" d="M236.902,732.337c-0.49,21.552-6.267,41.899-15.899,60.955c-9.181,18.166-22.816,18.291-34.006,1.172
	c-5.899-9.024-7.821-19.07-7.41-29.607c0.888-22.754,8.631-43.575,19.692-63.04c9.603-16.898,20.965-16.233,31.571,0.55
	C236.743,711.689,237.019,721.89,236.902,732.337z"/>
<path style="fill:#EDDDC2;" d="M614.326,887.248c-0.691,13.41-5.874,24.149-18.892,29.62c-12.262,5.153-24.32,5.056-35.429-3.231
	c-3.326-2.481-7.169-5.137-3.497-10.064c3.405-4.568,6.22-2.715,10.282,0.074c14.293,9.815,25.866,8.021,33.082-4.28
	c7.403-12.62,2.517-24.419-13.267-32.128c-6.994-3.416-14.398-6.23-20.846-10.481c-13.831-9.121-17.196-27.549-8.24-41.224
	c8.406-12.835,26.538-17.034,40.139-9.347c3.693,2.087,7.481,3.726,4.684,9.324c-2.994,5.993-6.217,3.194-10,1.108
	c-10.475-5.776-20.742-6.252-26.398,5.91c-5.533,11.897-0.48,21.031,11.162,26.665c7.474,3.617,14.916,7.304,22.3,11.099
	C610.349,865.915,614.858,875.163,614.326,887.248z"/>
<path style="fill:#ECDAC0;" d="M718.724,743.469c17.213,27,34.388,54.025,51.682,80.973c2.584,4.027,3.477,7.196-1.45,10.137
	c-4.456,2.66-6.631,0.425-8.54-3.176c-0.483-0.912-0.936-1.939-1.682-2.597c-4.824-4.246-4.725-17.085-13.198-12.991
	c-9.526,4.603-23.405,8.508-21.013,24.962c1.031,7.093,0.15,14.489-0.126,21.737c-0.14,3.695-3.301,5.67-6.194,5.916
	c-5.041,0.429-3.357-4.092-3.365-6.6c-0.125-39.226-0.087-78.452-0.087-117.678C716.076,743.924,717.4,743.696,718.724,743.469z"/>
<path style="fill:#ECDBC1;" d="M714.317,147.548c-1.771,24.444-3.378,48.716-5.464,72.946c-0.279,3.245,2.408,9.483-4.071,9.387
	c-6.075-0.09-8.732-4.369-8.219-10.776c1.656-20.694,2.265-41.503,4.778-62.085c1.502-12.305-0.841-20.058-14.066-22.15
	c-2.524-0.399-5.174-1.196-7.319-2.527c-3.862-2.399-12.722-0.988-10.167-8.569c2.743-8.139,9.159-1.524,12.91-0.107
	c18.922,7.147,37.526,15.135,56.193,22.945c4.339,1.815,10.006,4.312,6.922,9.89c-2.767,5.005-6.866-0.293-10.21-1.481
	C728.904,152.641,723.086,147.814,714.317,147.548z"/>
<path style="fill:#ECDAC0;" d="M838.572,617.029c2.018,7.328,2.276,11.791-5.508,15.892c-13.098,6.902-13.664,20.136-10.866,32.845
	c2.349,10.67,9.855,8.047,17.133,4.827c22.436-9.927,30.067-5.109,31.347,19.912c0.883,17.259-3.448,32.972-15.267,46.065
	c-3.665,4.06-8.257,6.366-13.954,4.976c-2.577-0.629-2.302-2.644-2.397-4.84c-0.312-7.198,4.742-7,9.752-8.857
	c13.3-4.93,20.061-37.173,10.34-46.816c-5.611-5.565-10.574-0.811-15.483,1.541c-19.785,9.478-27.412,5.322-29.716-16.347
	C811.719,645.23,820.584,626.729,838.572,617.029z"/>
<path style="fill:#ECDAC0;" d="M666.077,893.672c-5.243,0.596-3.948-4.208-4.468-7.345c-4.152-25.051-9.096-50.021-11.893-75.226
	c-1.404-12.65-5.313-15.029-16.366-10.261c-3.391,1.463-9.136,6.651-11.297-1.265c-1.524-5.581,4.343-6.158,7.933-7.631
	c13.433-5.512,26.921-10.895,40.449-16.169c2.976-1.16,6.516-5.381,9.25-0.271c2.18,4.074-0.565,7.53-4.381,8.333
	c-19.694,4.142-17.532,16.826-14.31,31.803c4.682,21.764,7.232,43.978,11.329,65.88C673.449,887.539,673.6,891.708,666.077,893.672z
	"/>
<path style="fill:#ECDBC1;" d="M328.486,885.301c4.5-26.004,8.241-50.631,13.199-75.011c2.486-12.226,2.008-21.253-12.226-24.853
	c-4.208-1.064-10.26-3.145-7.337-9.379c2.942-6.272,7.222-0.555,10.433,0.628c13.628,5.022,27.07,10.547,40.561,15.934
	c3.799,1.517,8.851,2.733,6.35,8.405c-2.179,4.943-6.289,2.168-9.311,0.689c-12.971-6.346-17.323-2.43-18.82,11.879
	c-2.531,24.197-7.565,48.136-11.681,72.16c-0.586,3.422,1.547,9.662-5.971,7.578C328.908,892.009,326.917,888.82,328.486,885.301z"
	/>
<path style="fill:#ECDCC1;" d="M199.238,196.871c-10.267,7.253-18.525,13.086-27.485,19.415
	c1.337-13.569,34.611-39.862,67.115-54.15c4.561,9.965-4.511,11.984-9.547,14.087c-17.122,7.147-20.235,18.958-16.865,36.112
	c3.286,16.726,3.49,34.054,5.082,51.114c0.6,6.426,1.131,12.766-9.447,15.622C205.193,252.157,202.32,225.49,199.238,196.871z"/>
<path style="fill:#D35962;" d="M380.102,526.036c-18.082,18.062-27.852,39.822-28.318,65.847
	c-3.017-24.934-0.439-48.01,18.068-66.541C372.935,530.477,376.731,525.133,380.102,526.036z"/>
<path style="fill:#F2E9EA;" d="M381.394,610.118c-8.7-13.894-9.838-28.444-3.733-43.593c0.122-0.302,0.903-0.524,1.335-0.466
	c0.473,0.064,0.896,0.495,1.341,0.766c1.293,9.188-8.395,22.585,11.918,25.689C382.609,595.936,377.902,601.053,381.394,610.118z"/>
<path style="fill:#F7F5F4;" d="M389.888,550.737c-1.249,1.692-4.755,2.726-4.592,1.798c1.518-8.636,1.522-18.788,13.935-19.934
	C395.917,538.543,390.625,543.47,389.888,550.737z"/>
<path style="fill:#CE142B;" d="M326.277,550.404c15.594-77.694,90.289-122.566,176.801-106.212
	c-47.586-34.373-135.162-5.599-173.034,56.85c-6.138,0.317-4.546-3.258-3.35-6.634c14.385-43.213,45.27-69.388,87.301-83.789
	c22.678-7.77,22.763-7.522,29.932-26.841c3.132,3.116,2.239,6.778,2.09,9.907c-0.295,6.203,2.533,8.066,8.385,7.971
	c6.2-0.101,10.057-2.046,10.086-8.792c0.034-7.78,0.305-15.57,0.012-23.338c-0.316-8.401,1.274-14.711,11.747-13.49
	c3.109,0.363,6.312,1.272,7.209-3.243c0.83-4.175-1.272-7.213-4.305-9.316c-8.119-5.63-17.038-7.276-26.619-4.194
	c-3.312,0.872-4.253-0.551-3.506-3.61c20.276-6.164,21.832-9.764,15.623-30.152c-2.168-7.117-0.397-14.147,1.656-21.883
	c3.213-12.107,0.852-25.688,3.828-39.514c2.658,6.877,5.303,13.76,7.978,20.631c17.86,45.881,37.362,91.18,50.881,138.617
	c2.645,9.282,7.596,8.587,15.065,8.242c66.418-3.059,132.755,0.377,202.721,2.464c-7.761,5.04-12.627,8.435-17.712,11.466
	c-51.331,30.6-102.835,60.916-153.879,91.986c-6.231,3.793-8.012,2.174-11.404-2.293c-51.467-67.756-157.612-69.258-211.041-2.391
	c-11.596,14.513-17.854,32.488-22.83,50.529C321.621,561.032,326.498,555.006,326.277,550.404z"/>
<path style="fill:#D35C64;" d="M326.277,550.404c1.804,4.16-1.105,9.636,3.637,12.975c-1.08,17.962-1.503,35.893,2.007,53.679
	C320.61,595.705,322.511,573.141,326.277,550.404z"/>
<path style="fill:#CF404E;" d="M326.695,494.408c0.584,2.48,0.508,5.291,3.35,6.634c-2.247,8.675-4.493,17.349-7.71,29.772
	C319.333,515.411,321.676,504.735,326.695,494.408z"/>
<path style="fill:#D46169;" d="M449.028,335.675c1.168,1.203,2.337,2.406,3.506,3.609c-5.667,3.884-11.335,7.768-17.003,11.652
	C438.045,343.751,440.842,337.128,449.028,335.675z"/>
<path style="fill:#CE152B;" d="M475.646,144.895c0.506-11.951,0.072-21.29,4.209-30.065c5.035-10.68,13.428-15.296,25.01-14.552
	c11.091,0.712,18.477,6.545,21.778,16.946c4.989,15.717,4.265,31.643,0.502,47.511c-3.009,12.69-11.237,20.113-24.145,20.129
	c-13.591,0.017-22.215-8.034-25.277-21.036C476.078,156.844,476.107,149.466,475.646,144.895z"/>
<path style="fill:#CE162C;" d="M379.589,134.465c2.542-6.262-4.375-14.805,4.53-18.239c9.621-3.71,20.17-5.721,30.188-1.6
	c8.103,3.333,9.259,17.1,2.541,25.78c-7.527,9.725-18.963,14.089-29.989,13.451C373.5,153.084,383.651,140.445,379.589,134.465z"/>
<path style="fill:#CE152C;" d="M325.006,175.083c-0.198,17.66-0.372,36.659-20.506,47.064c-12.967,6.702-22.721,3.035-26.267-10.992
	c-4.07-16.1-6.017-32.618-0.926-49.077c2.208-7.14,6.264-13.057,11.975-17.795c14.521-12.049,29.724-7.239,33.813,10.965
	C324.442,161.255,324.331,167.588,325.006,175.083z"/>
<path style="fill:#CE142B;" d="M773.804,223.398c0.118-9.384,0.378-18.785,3.932-27.639c4.592-11.441,12.426-13.26,22.277-6.533
	c8.955,6.115,14.913,14.837,17.131,25.268c3.512,16.516,2.581,33.197-2.274,49.345c-4.225,14.053-11.142,15.838-23.074,6.955
	C778.358,260.791,773.356,247.622,773.804,223.398z"/>
<path style="fill:#CF182E;" d="M271.341,752.774c20.933,11.643,26.604,24.607,18.287,41.182c-3.29,6.556-7.599,11.351-15.798,7.528
	c-6.922-3.227-15.152-5.598-12.272-16.289c2.277-8.454,4.384-16.955,6.749-25.384C268.986,757.388,270.299,755.144,271.341,752.774z
	"/>
<path style="fill:#CF182E;" d="M800.092,725.949c-0.759,3.506-1.293,8.168-2.813,12.484c-2.277,6.465-6.203,14.654-12.335,14.74
	c-6.809,0.096-6.013-9.55-7.554-15.039c-2.688-9.574-11.81-19.138,0.548-29.334c11.43-9.431,16.602-8.793,20.485,5.231
	C799.38,717.489,799.455,721.19,800.092,725.949z"/>
<path style="fill:#CE152C;" d="M187.958,767.612c1.477-20.441,8.811-39.645,18.754-57.951c2.177-4.009,5.303-8.425,10.729-7.541
	c4.929,0.803,7.636,4.954,9.408,9.448c3.774,9.568,2.716,19.103,0.67,28.957c-2.959,14.257-7.263,28.005-13.428,41.128
	c-2.801,5.963-5.866,13.86-13.867,12.492c-7.973-1.363-10.596-9.057-11.559-16.616C188.273,774.459,188.213,771.346,187.958,767.612
	z"/>
<path style="fill:#D1283A;" d="M725.072,816.336c0-13.735,0-25.843,0-38.182C746.309,796.371,746.71,804.819,725.072,816.336z"/>
</svg>
