<?xml version="1.0" encoding="utf-8"?>
<!-- Generator: Adobe Illustrator 28.2.0, SVG Export Plug-In . SVG Version: 6.00 Build 0)  -->
<svg version="1.1" id="Layer_1" xmlns="http://www.w3.org/2000/svg" xmlns:xlink="http://www.w3.org/1999/xlink" x="0px" y="0px"
	 viewBox="0 0 390.46 330.28" style="enable-background:new 0 0 390.46 330.28;" xml:space="preserve">
<style type="text/css">
	.st0{fill:#FEFEFE;}
	.st1{fill:#215CA4;}
</style>
<g>
	<path class="st0" d="M42,66.23l-7.85-27.47l14.53,4.03l50.37,16.35l23.67,5.61l48.99,8.53l10.18,2.27l-0.04,3.82l0.04,66.85
		l-4.32,15.91H157V98.71l-45.9-7.45L69.82,79.94L42,66.23L42,66.23z"/>
	<path class="st1" d="M145.75,268.67c0-4.39,0.03-9.2-0.01-14.02c-0.18-24.99-0.48-49.97-0.54-74.96
		c-0.03-13.15,0.45-26.3,0.47-39.45c0.02-9.81-0.33-19.63-0.54-29.44c-0.01-0.63-0.22-1.26-0.42-2.34
		c-39.14-4.79-76.91-14.49-112.88-33.21c-4.58-17.54-9.42-36.1-14.56-55.79c7.55,2.73,14.06,4.94,20.46,7.43
		c23.1,8.97,45.99,18.55,69.85,25.4c8.7,2.5,17.69,4.01,26.54,5.98c10.71,2.38,21.57,3.65,32.5,4.12
		c11.8,0.51,23.63,1.16,35.42,0.76c15.23-0.52,30.23-3.18,45.22-6.13c23.5-4.62,45.68-13.04,67.87-21.62
		c12.95-5.01,25.98-9.78,38.99-14.64c0.74-0.28,1.54-0.39,2.78-0.69c-0.13,1.41-0.09,2.52-0.35,3.54
		c-2.89,11.35-5.81,22.7-8.76,34.04c-1.25,4.79-2.61,9.55-3.89,14.33c-0.73,2.74-2.25,4.65-5,5.73
		c-35.27,13.84-71.74,24.14-108.98,31.18V267.1c-42.99,43.84,0,0-42.99,43.84 M42,66.23c35.99,17.19,75.9,25.59,114.99,32.49v63.42
		h20.58l4.32-15.92l-0.04-66.84l0.04-3.83c-29.06-3.66-57.53-7.6-86.06-15.8c-21.03-5.95-41.2-13.47-61.68-20.98L42,66.23L42,66.23z
		 M192.92,75.28v1.51l0.13,69.49l4.39,15.76h20.64V98.56l35.77-6.33l56.98-15.75l21.8-10.34l6.91-27.03l-71.28,25.27l-74.88,10.8
		L192.92,75.28z M217.6,264.68v-97.56l-14.7,13.11l7.53,26.1l-17.34-10.14v94.21L217.6,264.68L217.6,264.68z M181.68,290.46v-94.82
		c-5.82,3.69-11.13,7.04-17.34,10.98c2.71-9.47,5.1-17.86,7.48-26.2c-2.51-2.34-4.79-4.52-7.14-6.63c-2.37-2.13-4.82-4.17-7.64-6.61
		v97.29C165.15,273.01,173.24,281.55,181.68,290.46z M195.52,178.42c3.69-3.21,7.7-6.7,11.66-10.14h-14.34
		c-1.89-5.02-3.64-9.71-5.42-14.43c-1.86,4.77-3.71,9.48-5.75,14.71h-12.9c4.12,4.16,7.42,7.49,10.44,10.54
		c-1.53,4.65-2.86,8.67-4.47,13.54c4.76-3.13,8.69-5.72,12.67-8.35c4.38,2.88,8.25,5.43,12.19,8.02
		C198.33,187.97,197.09,183.74,195.52,178.42z"/>
	<path class="st0" d="M193.38,75.18c19.18-2.85,37.94-5.18,56.88-8.84c31.02-5.79,59.74-16.8,89.29-27.24l-6.91,28.89
		c-35.74,16.63-75.89,25.7-114.55,32.42l0,61.62h-20.64l-4.39-15.76l-0.14-70.99L193.38,75.18L193.38,75.18z"/>
	<path class="st0" d="M217.6,264.68l-24.51,25.72v-94.21l17.34,10.14l-7.53-26.1l14.7-13.11V264.68L217.6,264.68z"/>
	<path class="st0" d="M181.68,290.46c-8.44-8.91-16.52-17.44-24.63-26v-97.29c2.82,2.43,5.26,4.48,7.64,6.61
		c2.35,2.11,4.63,4.3,7.14,6.63c-2.38,8.34-4.78,16.73-7.48,26.2c6.21-3.93,11.52-7.29,17.34-10.98L181.68,290.46L181.68,290.46z"/>
	<path class="st0" d="M207.18,168.28c-3.96,3.45-7.97,6.93-11.66,10.14c1.56,5.32,2.81,9.55,4.09,13.9
		c-3.93-2.59-7.81-5.14-12.19-8.02c-3.98,2.62-7.92,5.21-12.67,8.35c1.61-4.87,2.93-8.89,4.47-13.54
		c-3.02-3.05-6.32-6.38-10.44-10.54h12.9c2.04-5.23,3.88-9.94,5.75-14.71c1.77,4.72,3.53,9.4,5.42,14.43h14.33V168.28z"/>
</g>
</svg>
