<?xml version="1.0" encoding="utf-8"?>
<!-- Generator: Adobe Illustrator 28.3.0, SVG Export Plug-In . SVG Version: 6.00 Build 0)  -->
<svg version="1.1" id="Layer_1" xmlns="http://www.w3.org/2000/svg" xmlns:xlink="http://www.w3.org/1999/xlink" x="0px" y="0px"
	 viewBox="0 0 1000 1000" style="enable-background:new 0 0 1000 1000;" xml:space="preserve">
<g>
	<path style="fill:#0000FF;" d="M758.461,193.264l0.171,91.727h202.72V0H38.648v285.332h202.698V193.15l159.584,0.227v101.246
		H67.611v28.984l255.915,193.257L207.929,869.452h11.86l181.141-149.653v72.45h-77.286l-24.124,24.145l-0.022,183.574L700.474,1000
		h4.846V816.426l-24.166-24.102l-82.127-0.096l0.032-67.621l183.442,140.128l9.548-9.321L681.056,512.433L956.578,294.88h-357.53
		V193.434L758.461,193.264z"/>
	<path style="fill:#FFFFFF;" d="M777.823,169.039l0.086,101.445l159.328-0.085V24.145H58.102l-0.114,246.31h159.471V169.067
		l202.891-0.114v140.148H91.86v9.434l255.972,188.683v9.207l-86.953,275.749h24.097l116.165-106.162h19.209v125.371h-96.728
		l0.114,164.245l357.473,0.227V816.27H579.821V690.672h4.774l151.173,111.05l8.184,0.114l-91.727-289.844L888.987,328.31v-9.434
		l-294.617-0.227l-14.577-33.673l0.085-116.108L777.823,169.039z M618.257,875.135l19.55-17.277v70.017l-19.55-15.913V875.135z
		 M874.569,106.652l23.187-19.778v135.374l-23.187-19.436V106.652z M545.966,840.581l-23.642,20.005V638.259l23.642,19.55V840.581z
		 M613.71,352.28l151.4,1.364l-257.79,95.023l115.937,87.749l42.738,142.307L507.775,458.67l-54.104,150.036L338.188,690.09
		l164.211-242.332l-273.783-95.023l142.762,0.455l123.212,86.385h7.809V159.506l47.659,137.306l-35.009,140.489L613.71,352.28z
		 M123.022,81.76L94.038,53.116h778.145l-24.552,29.326L123.022,81.76z"/>
	<path style="fill:#00007B;" d="M787.843,260.894h139.58V34.021H67.668v226.874l140.034-0.114V159.506h222.782v160.039h-324.17
		l251.88,187.773v7.729l-85.021,267.338h9.548l117.232-106.079l30.531,0.144v145.49h-96.387l-0.455,144.126h337.81V826.032H570.063
		l-0.455-145.035h19.55L731.466,788.75l-93.659-280.523l237.33-179.589H589.613l-19.55-39.555l-0.455-129.577h217.78
		L787.843,260.894z M605.526,870.134l32.281-28.643h10.002v101.616h-10.002l-32.281-25.233V870.134z M907.986,72.894l0.341,164.017
		h-9.719l-34.099-29.155v-106.39l29.325-28.473H907.986z M522.324,874.68h-10.23V628.257h13.128l30.291,29.098l0.227,183.454
		L522.324,874.68z M608.936,342.96l197.094,2.046L526.075,453.441l102.298,74.337l52.854,171.86l-2.046,10.23L513.799,478.674
		h-4.774l-48.421,132.987L321.48,709.867h-7.161l173.224-253.016v-5.456L188.492,342.96h187.205l117.301,86.953V130.521H500
		l55.741,164.359l0.341,5.456l-28.643,116.619L608.936,342.96z M120.806,91.648l-34.099-34.27v-13.64h802.184v14.322l-33.928,33.588
		H120.806z"/>
</g>
</svg>
