<?xml version="1.0" encoding="utf-8"?>
<!-- Generator: Adobe Illustrator 28.3.0, SVG Export Plug-In . SVG Version: 6.00 Build 0)  -->
<svg version="1.1" id="Layer_1" xmlns="http://www.w3.org/2000/svg" xmlns:xlink="http://www.w3.org/1999/xlink" x="0px" y="0px"
	 viewBox="0 0 1000 1000" style="enable-background:new 0 0 1000 1000;" xml:space="preserve">
<path style="fill:#041E44;" d="M444,0c36.667,0,73.333,0,110,0c9.43,1.919,19.086,1.304,28.571,2.518
	c57.669,7.379,111.045,27.687,161.677,55.319c44.141,24.089,83.733,54.609,118.355,91.103
	c60.806,64.096,103.076,138.642,125.147,224.51c7.598,29.558,11.47,59.395,11.253,89.84c-0.012,1.628-0.3,3.345,0.997,4.71
	c0,20.667,0,41.333,0,62c-2.106,14.087-1.472,28.345-2.745,42.503c-2.702,30.067-10.557,58.897-20.044,87.339
	c-19.042,57.093-47.431,109.156-85.23,156.004c-32.211,39.922-69.946,73.695-112.459,102.491
	c-49.411,33.469-103.298,56.145-160.89,70.846c-25.621,6.54-51.608,9.278-77.934,9.865c-3.562,0.079-7.296-1.107-10.699,0.953
	c-21.333,0-42.667,0-64,0c-12.765-2.037-25.709-1.784-38.552-2.648c-28.219-1.897-55.123-9.433-81.823-17.694
	c-39.974-12.368-77.908-29.622-113.286-51.973c-61.069-38.58-112.016-87.573-152.444-147.768
	C42.547,724.311,17.957,663.744,4.357,598.417C1.303,583.751,2.659,568.686,0,554c0-37.333,0-74.667,0-112
	c2.061-12.744,1.329-25.807,3.737-38.454c14.182-74.498,43.91-142.257,88.639-203.515c32.529-44.549,71.617-82.417,116.57-114.125
	c55.13-38.886,115.961-65.001,181.853-79.645C408.41,2.347,426.349,2.728,444,0z"/>
<path style="fill:#C6B198;" d="M952.044,484.011c7.643-4.898,6.253,1.255,6.364,5.287c0.908,33.041-2.072,65.744-8.55,98.148
	c-12.257,61.31-35.582,118.116-71.072,169.536c-68.759,99.623-162.817,162.776-280.312,190.775
	c-43.945,10.472-88.915,13.231-133.887,10.02c-56.041-4.002-109.808-17.763-161.042-41.371
	c-53.725-24.756-101.092-58.406-141.546-101.314c-61.811-65.561-101.325-142.78-118.588-231.438
	c-7.692-39.503-9.853-79.335-7.126-119.198c3.857-56.391,17.891-110.467,41.768-161.943
	c24.596-53.027,57.894-99.846,100.228-139.918c65.45-61.952,142.623-101.598,231.22-119.05c39.803-7.84,79.988-10.053,120.191-7.255
	c53.981,3.757,105.931,16.787,155.566,38.951c55.896,24.96,105.085,59.42,146.926,103.856
	c61.765,65.596,101.49,142.783,118.358,231.531c3.789,19.933,6.071,40.012,7.653,60.212c0.451,5.759-1.602,7.432-7.221,7.273
	c-12.988-0.368-25.993-0.141-38.992-0.156c-9.036-7.314-7.976-19.122-12.676-27.587c0.435,11.116,0.221,23.032,0.1,34.946
	c-0.037,3.669-0.615,7.263-3.417,10.044c-3.186-15.017,0.215-30.297-1.807-45.361c-4.369-6.702-3.834,1.015-5.62,1.911
	c-0.283,1.16-0.567,2.319-0.85,3.479c-1.278,8.599-2.613,17.179-8.261,24.31c-9.648,3.677-19.651,1.937-29.525,1.778
	c-3.285-0.053-6.559-0.902-9.868-0.159c-2.015-0.177-4.03-0.354-6.044-0.531c-7.348,0.76-6.943-4.977-7.264-9.321
	c-2.176-29.466-8.529-58.038-18.895-85.622c-26.819-71.367-72.238-127.409-137.637-167.263
	c-42.93-26.161-89.262-42.281-139.093-46.413c-54.445-4.514-107.894,1.585-158.551,23.774
	C271.977,240.008,205.841,315.01,180.362,421.626c-25.28,105.786-3.789,203.745,66.36,288.004
	c58.509,70.278,134.617,109.125,226.292,117.201c58.657,5.167,114.391-5.601,167.137-30.283
	c61.694-28.869,110.088-73.11,143.989-132.649c21.693-38.099,36.117-78.684,41.254-122.29c1.867-15.843,3.41-31.772,3.304-47.808
	c-0.029-4.451-1.591-10.368,5.366-12.041c11.91,10.821,23.228,22.524,39.677,26.566c-5.086,11.978-10.764,23.77-11.668,37.006
	c3.79,3.377,5.425-1.156,7.639-2.378c8.932-4.93,15.638-13.515,26.123-15.975c7.787,3.108,13.777,8.973,20.656,13.481
	c3.531,2.314,6.67,5.572,11.369,5.269c3.88-3.164-0.021-5.946-0.635-8.671c-2.212-9.824-7.145-18.93-7.837-29.191
	C929.991,499.534,941.101,491.886,952.044,484.011z"/>
<path style="fill:#041E44;" d="M834.064,481.761c-4.336,6.297-1.788,13.362-1.947,20.022
	c-1.206,50.371-11.922,98.499-34.119,143.789c-18.841,38.442-43.862,72.518-75.812,101.118
	c-40.339,36.11-87.305,60.51-139.344,74.566c-19.155,5.174-39.133,7.164-59.097,9.115c-53.904,5.268-105.185-4.936-154.449-25.082
	c-34.01-13.908-64.659-34.12-92.21-58.946c-24.733-22.286-45.755-47.495-62.861-75.86c-21.734-36.038-35.376-75.004-42.595-116.643
	c-4.875-28.116-4.739-56.267-3.115-84.192c2.049-35.228,11.057-69.437,25.576-101.862c12.309-27.489,27.095-53.604,46.187-76.982
	c28.404-34.779,62.39-62.732,102.001-84.257c34.22-18.595,70.541-31.112,108.72-36.02c47.935-6.163,95.769-3.967,142.773,10.105
	c43.831,13.122,82.993,34.697,118.374,62.973c22.743,18.176,41.878,40.134,58.761,64.111c25.105,35.655,42.439,74.66,52.259,116.947
	c3.69,15.892,7.201,32,6.867,48.561c-0.063,3.148-1.065,7.011,3.984,7.563L834.064,481.761z"/>
<path style="fill:#FBFCFC;" d="M928.295,547.989c-1.11,1.431-2.414,2.177-4.152,1.055c-10.05-6.49-20.332-12.672-28.679-21.441
	c-5.478-8.206-3.079-16.942-1.725-25.608c19.197-6.766,38.097-14.497,58.306-17.984c-8.22,11.494-19.168,19.413-32.214,24.584
	c-4.631,2.869-8.829-1.098-15.343-0.742c6.927,9.598,13.575,18.148,19.56,27.133C926.608,538.83,931.298,542.229,928.295,547.989z"
	/>
<path style="fill:#092247;" d="M893.738,501.995c3.856,8.314,1.18,17.069,1.726,25.607c-10.486,7.788-20.935,15.625-31.507,23.294
	c-1.16,0.841-3.02,0.717-4.555,1.04c0.319-1.805,0.639-3.611,0.958-5.416c0.798-7.403,6.552-11.991,10.289-17.662
	c5.611-8.514,12.532-16.142,17.345-25.222C889.564,501.884,891.649,501.933,893.738,501.995z"/>
<path style="fill:#FBFBFB;" d="M895.989,495.361c0-19.132,0-38.264,0-57.396c0.861-0.183,1.723-0.366,2.584-0.549
	c4.469,13.514,8.939,27.028,13.408,40.541C905.993,483.154,904.881,492.833,895.989,495.361z"/>
<path style="fill:#FAFAFB;" d="M840.059,481.32c1.108-4.9,5.104-3.232,8.045-3.273c10.53-0.145,21.064,0.002,31.597,0.038
	c3.087,0.862,2.52,4.268,4.237,6.084c2.727,4.319,5.453,8.639,9.765,15.469C874.119,492.95,857.089,487.135,840.059,481.32z"/>
<path style="fill:#FBFBFB;" d="M887.993,503.636c3.06,0.558,2.77,2.728,1.523,4.359c-9.781,12.795-17.826,26.905-29.156,38.524
	c-3.532-9.567,3.28-17.29,4.69-25.981c0.868-5.354,3.21-9.989,8.694-12.211C878.491,506.764,883.242,505.2,887.993,503.636z"/>
<path style="fill:#041E44;" d="M883.938,484.169c-2.55-1.236-3.466-3.609-4.237-6.084c2.569-7.601,4.005-15.601,8.012-22.695
	C891.694,465.67,884.086,474.43,883.938,484.169z"/>
<path style="fill:#041E44;" d="M888.563,451.911c0.591-4.415,1.484-8.72,4.642-12.617c2.773,3.518,1.293,7.177,0.978,10.706
	C892.309,450.637,890.436,451.274,888.563,451.911z"/>
<path style="fill:#051F44;" d="M220.241,203.427c19.754-3.155,30.716,0.826,37.915,13.381c7.593,13.24,5.087,30.063-6.468,43.434
	c-10.57,12.23-20.961,17.371-37.978,18.443c2.939,4.4,9.178,6.51,8.132,12.769c-0.869,5.207-4.591,8.763-7.509,12.757
	c-9.42,12.893-19.091,25.608-28.307,38.645c-5.065,7.164-10.377,8.457-17.557,3.124c-20.832-15.474-41.75-30.834-62.724-46.115
	c-6.418-4.676-7.187-9.935-2.603-16.193c11.008-15.027,21.999-30.066,33.068-45.048c4.934-6.678,10.545-5.483,16.441-1.235
	c6.04,4.352,9.961,9.282,4.664,16.628c-6.034,8.366-12.527,16.41-18.325,24.931c-1.961,2.882-7.68,5.842-1.611,10.56
	c5.997,4.661,7.284-1.036,9.595-4.057c5.457-7.132,10.801-14.357,15.965-21.704c5.381-7.657,11.036-6.528,17.833-1.747
	c6.834,4.807,8.23,10.144,3.44,16.854c-5.024,7.038-10.422,13.809-15.446,20.847c-2.824,3.956-7.96,7.403-0.453,12.712
	c7.199,5.09,8.201-1.08,10.953-4.417c8.407-10.193,14.606-22.171,24.559-31.072c-15.913-10.931-15.913-10.931-5.925-28.489
	c-1.752,0-3.382-0.165-4.971,0.025c-19.367,2.311-34.092-11.093-33.227-30.298c1.138-25.271,30.915-46.968,53.171-38.742
	C227.7,184.897,229.43,189.966,220.241,203.427z"/>
<path style="fill:#051F45;" d="M106.285,400.275c-9.593-7.045-19.014-14.339-28.836-21.048c-6.795-4.641-7.53-9.825-4.428-17.078
	c2.986-6.981,4.946-13.715,14.984-12.457c11.179,1.401,22.484,1.794,34.678,0.928c-8.93-6.205-17.874-12.39-26.784-18.622
	c-8.232-5.758-8.72-18.389-0.857-24.888c3.837-3.171,7.852-2.778,11.843,0.101c23.181,16.721,46.411,33.374,69.586,50.104
	c5.682,4.102,3.606,9.203,1.658,14.337c-2.185,5.759-4.109,11.338-12.181,10.539c-14.541-1.441-29.118-2.529-46.514-4.006
	c12.923,9.52,23.666,17.872,34.884,25.527c6.384,4.357,8.993,8.597,5.849,16.537c-3.126,7.893-6.178,12.975-16.261,11.736
	c-26.059-3.2-52.243-5.378-78.368-8.045c-6.479-0.661-12.043-2.745-11.217-10.856c1.081-10.616,7.034-16.898,14.92-15.926
	c12.171,1.499,24.322,3.17,36.481,4.768C105.91,401.377,106.097,400.826,106.285,400.275z"/>
<path style="fill:#061F45;" d="M525.979,50.131c13.121,1.129,29.024,2.63,44.951,3.812c8.159,0.605,11.098,5.338,10.594,12.664
	c-0.511,7.425-2.239,14.229-12.153,13.352c-10.942-0.967-21.896-1.805-32.825-2.891c-3.444-0.342-6.619-1.305-7.255,3.813
	c-0.622,5.008,1.923,6.45,6.243,6.769c9.291,0.685,18.559,1.86,27.86,2.191c8.299,0.295,12.314,3.836,11.774,12.278
	c-0.72,11.252-3.51,14.239-13.71,13.554c-9.62-0.647-19.226-1.603-28.808-2.687c-4.338-0.491-7.008-0.045-6.752,5.373
	c0.192,4.051-0.911,7.734,5.435,8.07c11.95,0.634,23.842,2.286,35.784,3.157c8.712,0.635,10.144,6.336,9.756,13.229
	c-0.414,7.341-2.893,13.318-11.882,12.565c-19.233-1.61-38.441-3.518-57.68-5.052c-7.658-0.611-10.815-4.983-10.262-11.901
	c2.119-26.532,4.439-53.05,6.965-79.546C504.877,49.818,507.048,49.024,525.979,50.131z"/>
<path style="fill:#061F45;" d="M795.19,756.624c-7.666-7.257-15.395-14.448-22.979-21.79c-7.406-7.17-7.489-11.337-0.69-18.538
	c7.604-8.053,11.41-8.295,19.146-0.987c17.91,16.918,35.705,33.959,53.706,50.78c4.397,4.109,8.832,8.562,5.305,14.484
	c-3.8,6.381-8.316,13.241-17.851,11.582c-15.071-2.622-30.151-5.188-45.236-7.729c-1.204-0.203-2.472-0.027-5.256-0.027
	c8.839,8.405,16.744,15.873,24.591,23.399c7.955,7.629,8.124,11.557,0.968,19.316c-6.932,7.516-11.258,7.664-19.225,0.201
	c-17.979-16.843-35.706-33.959-53.88-50.589c-4.674-4.277-8.541-8.93-4.818-14.407c4.04-5.945,8.118-13.322,18-11.465
	c15.64,2.939,31.385,5.321,47.085,7.938C794.436,758.068,794.813,757.346,795.19,756.624z"/>
<path style="fill:#062045;" d="M619.222,119.636c-4.519,13.448-8.45,24.726-12.086,36.099c-2.914,9.114-8.687,9.222-16.484,6.526
	c-7.897-2.731-11.794-6.563-8.727-15.445c8.239-23.857,16.151-47.826,24.178-71.756c1.822-5.432,3.493-12.096,10.758-10.721
	c7.477,1.415,16.013,2.399,18.492,12.425c3.665,14.825,7.89,29.511,11.908,44.248c0.343,1.259,0.923,2.452,1.782,4.689
	c3.879-11.586,7.401-22.251,11.021-32.883c3.719-10.925,6.399-12.301,16.788-8.853c10.445,3.467,12.123,6.554,8.636,17.02
	c-7.874,23.635-15.867,47.232-23.865,70.825c-1.717,5.066-3.419,11.361-10.256,9.982c-6.952-1.402-15.631-0.828-18.166-10.777
	C629.024,154.623,624.346,138.357,619.222,119.636z"/>
<path style="fill:#061F45;" d="M428.536,86.258c7.387-9.264,14.368-17.985,21.309-26.738c4.965-6.261,18.514-10.311,25.991-7.71
	c6.571,2.286,7.847,7.601,2.678,14.41c-6.629,8.734-13.55,17.283-20.874,25.436c-3.734,4.157-3.391,6.781,0.326,10.563
	c10.023,10.2,19.784,20.662,29.477,31.179c3.253,3.529,7.653,6.781,5.047,12.861c-2.276,5.309-7.057,4.924-11.533,6.145
	c-9.905,2.703-16.372-1.136-22.228-8.791c-5.438-7.108-11.874-13.457-17.938-20.079c-1.467-1.602-2.554-4.561-5.419-3.279
	c-2.618,1.172-3.589,3.759-3.271,6.661c0.723,6.608,1.329,13.234,2.247,19.815c1.353,9.703-4.649,11.989-12.406,12.902
	c-7.534,0.887-13.153-0.428-14.22-9.5c-3.066-26.084-6.24-52.158-9.656-78.198c-1.329-10.131,4.579-12.507,12.71-13.762
	c8.625-1.331,13.193,1.79,14.546,10.541C426.163,74.17,424.995,80.015,428.536,86.258z"/>
<path style="fill:#092247;" d="M504.838,843.977c10.311,0.001,20.625,0.162,30.932-0.048c9.06-0.184,11.237,5.279,11.393,12.841
	c0.163,7.877-2.85,12.499-11.426,12.999c-17.387,1.013-17.376,1.188-17.377,19.073c0,14.635-0.224,29.274,0.077,43.903
	c0.196,9.518-4.373,13.109-13.387,13.028c-10.842-0.098-14.028-2.649-14.154-13.217c-0.194-16.296,0.005-32.595-0.075-48.893
	c-0.081-16.465,1.327-13.705-13.625-13.933c-12.196-0.186-15.599-3.97-14.284-15.767c0.744-6.676,3.906-10.188,10.994-10.042
	C484.212,844.134,494.527,843.976,504.838,843.977z"/>
<path style="fill:#062045;" d="M453.975,934.914c-0.061,6.695-3.495,9.914-10.655,9.323c-14.567-1.202-18.256-3.975-18.713-22.01
	c-0.329-12.989-9.79-10.742-16.613-13.694c-7.283-3.15-11.103,0.086-14.987,6.214c-9.717,15.329-10.436,15.331-24.059,10.97
	c-7.949-2.545-10.485-7.612-5.84-14.372c16.943-24.658,34.277-49.049,51.605-73.44c5.129-7.22,11.51-1.625,17.357-1.111
	c6.593,0.579,8.736,5.061,9.539,10.838c3.433,24.691,6.919,49.374,10.399,74.058C452.611,925.968,453.277,930.238,453.975,934.914z"
	/>
<path style="fill:#062045;" d="M836.093,207.048c-0.521,1.42-1.306,3.946-2.355,6.358c-11.001,25.304-22.159,50.541-32.99,75.917
	c-2.475,5.799-5.243,10.351-12.376,8.233c-6.484-1.926-14.425-13.01-13.12-18.035c0.745-2.87,1.708-5.885,3.374-8.279
	c6.404-9.204,4.691-15.76-3.642-23.614c-6.458-6.087-10.619-7.121-18.275-3.125c-14.38,7.504-16.986,6.649-25.471-3.917
	c-4.928-6.136-4.034-12.169,3.246-15.387c27.05-11.956,54.213-23.664,81.474-35.133
	C822.782,187.193,836.039,198.014,836.093,207.048z"/>
<path style="fill:#062045;" d="M282.33,126.575c0.353,9.173-5.938,11.318-10.298,14.24c-6.543,4.385-8.124,7.383-2.223,14.242
	c11.477,13.34,21.772,27.702,32.473,41.705c6.278,8.214,5.521,12.771-2.893,19.129c-8.059,6.09-12.307,5.613-18.4-2.202
	c-11.449-14.685-23.095-29.227-34.138-44.213c-3.558-4.829-6.062-5.061-10.002-1.103c-1.621,1.628-3.765,2.726-5.623,4.128
	c-9.416,7.104-12.734,6.865-19.008-1.416c-6.453-8.517-5.903-12.077,2.982-18.936c15.266-11.785,30.585-23.502,45.79-35.364
	c3.988-3.112,8.306-5.106,12.733-2.091C278.438,117.907,281.841,122.498,282.33,126.575z"/>
<path style="fill:#062045;" d="M304.035,798.428c-0.377,26.874-26.908,43.01-48.588,31.439c-6.388-3.409-12.335-7.942-17.746-12.785
	c-3.959-3.544-6.221-3.628-9.385,0.566c-3.801,5.037-7.977,9.807-12.197,14.508c-5.298,5.901-10.555,3.801-15.701-0.431
	c-5.463-4.493-10.587-9.724-4.9-16.721c17.405-21.417,35.235-42.492,53.109-63.522c3.697-4.349,8.651-5.01,13.3-1.077
	c10.911,9.232,21.906,18.383,32.466,28.007C300.768,784.222,303.805,791.962,304.035,798.428z"/>
<path style="fill:#062045;" d="M772.045,163.103c-0.232,24.346-22.475,51.438-46.211,56.239
	c-11.653,2.357-21.748-2.117-31.122-8.004c-8.715-5.473-16.742-12.035-25.165-17.984c-6.78-4.788-7.681-10.437-2.889-17.066
	c15.401-21.304,30.862-42.566,46.229-63.895c3.783-5.251,8.817-6.558,13.799-3.037c11.663,8.245,23.938,15.732,34.193,25.857
	C768.662,142.899,772.106,152.297,772.045,163.103z"/>
<path style="fill:#062045;" d="M332.427,801.75c13.484,1.386,18.455,10.265,12.263,21.998c-8.365,15.851-16.441,31.87-25.348,47.413
	c-3.291,5.744-1.89,7.932,3.346,10.41c7.192,3.405,14.144,7.332,21.111,11.194c7.029,3.896,7.493,9.236,3.648,15.919
	c-3.633,6.315-7.358,11.342-15.601,6.916c-14.329-7.695-28.666-15.377-43.049-22.97c-6.511-3.437-6.871-8.782-3.955-14.337
	c12.5-23.81,25.328-47.447,37.942-71.198C324.918,803.076,327.908,801.178,332.427,801.75z"/>
<path style="fill:#072045;" d="M876.094,260.051c8.057,1.131,9.724,8.119,12.049,14.108c2.199,5.665-0.946,9.272-5.946,11.932
	c-16.705,8.886-33.215,18.144-50.021,26.833c-5.198,2.688-6.717,4.821-3.163,10.247c4.348,6.639,7.573,14.007,11.41,20.991
	c4.295,7.817,0.685,12.25-6.113,15.967c-6.975,3.814-12.634,3.672-16.726-3.892c-7.426-13.725-14.738-27.512-22.243-41.194
	c-3.538-6.449-2.456-11.49,4.031-15.018c23.33-12.69,46.695-25.315,70.074-37.913C871.46,261.027,873.448,259.583,876.094,260.051z"
	/>
<path style="fill:#072046;" d="M602.639,931.113c-27.231,0.232-47.775-21.231-48.145-50.299
	c-0.349-27.38,21.04-48.157,49.942-48.512c27.659-0.34,48.331,21.316,48.662,50.977
	C653.402,910.596,632.023,930.863,602.639,931.113z"/>
<path style="fill:#072046;" d="M848.852,434.038c-4.105-0.163-7.492-1.847-8.949-6.918c-4.488-15.616-9.31-31.136-13.838-46.741
	c-2.137-7.366,0.503-11.929,8.18-14.113c24.556-6.988,49.058-14.176,73.502-21.547c8.72-2.63,13.952-0.502,16.343,8.752
	c2.864,11.083,1.911,13.873-8.451,17.024c-17.768,5.403-35.595,10.617-53.445,15.743c-4.917,1.412-7.395,3.146-5.009,8.972
	c2.627,6.415,4.169,13.28,6.089,19.976C866.768,427.373,862.139,433.664,848.852,434.038z"/>
<path style="fill:#072045;" d="M704.411,886.342c-27.566,0.071-48.167-21.944-48.107-51.41
	c0.054-26.735,22.464-47.343,51.315-47.188c26.86,0.144,47.369,22.206,47.501,51.097
	C755.243,866.082,733.695,886.267,704.411,886.342z"/>
<path style="fill:#092247;" d="M85.686,478.096c4.182-12.963,8.363-25.927,12.545-38.89c4.052,18.93,0.639,37.68,3.769,56.14
	c0.884-0.421,1.809-0.547,2.778-0.386c1.9,0.685,3.501,1.666,3.818,3.904c-1.133,3.975-4.936,4.226-7.888,5.677
	c-2.319,0.583-4.69,1.003-6.814,2.216c-4.629,1.442-9.047,4.876-14.185,1.529c-12.111-0.564-19.07-10.311-28.015-16.288
	c-4.302-2.874-10.186-4.856-12.194-10.763c2.288-2.071,4.42,0.021,6.573,0.059c10.002-1.553,18.449,3.817,27.557,6.224
	c5.368,1.419,10.395,4.019,16.207,4.886C89.627,487.128,82.272,484.115,85.686,478.096z"/>
<path style="fill:#FBFBFB;" d="M100.117,502.058c2.727-1.312,5.455-2.624,8.182-3.936c3.267-5.4,9.255-5.84,14.382-7.686
	c7.723-2.783,15.508-5.431,23.406-7.685c4.065-1.16,8.335-2.581,11.947,1.269c-8.213,11.5-19.167,19.408-32.21,24.579
	c-4.664,2.931-8.945-1.279-15.1-0.594c6.803,9.688,13.63,18.421,19.785,27.6c2.438,3.637,6.774,6.97,3.791,12.378
	c-1.106,1.426-2.406,2.186-4.144,1.068c-10.042-6.462-20.291-12.65-28.619-21.404C95.809,519.409,98.703,510.692,100.117,502.058z"
	/>
<path style="fill:#092247;" d="M100.117,502.058c3.34,8.37,1,17.055,1.42,25.588c-10.507,7.77-21.032,15.516-31.501,23.335
	c-1.474,1.101-2.967,1.202-4.625,0.954c0.317-1.804,0.635-3.608,0.952-5.413c2.779-10.993,11.961-17.911,17.379-27.237
	c3.129-5.386,8.097-9.6,10.259-15.647C95.722,501.884,97.929,502.006,100.117,502.058z"/>
<path style="fill:#072046;" d="M158.033,484.021c-13.763,1.289-26.101,7.581-39.208,11.174c-3.512,0.963-7.018,1.951-10.526,2.928
	c-1.43-0.599-2.86-1.197-4.289-1.796c1.208-8.745,5.737-14.967,13.965-18.379c15.76,0,31.52,0,47.925,0
	C163.886,482.538,160.095,481.95,158.033,484.021z"/>
<path style="fill:#0B2448;" d="M928.295,547.989c-5.732-13.248-16.322-23.183-23.93-35.146c-1.839-2.893-6.671-6.043-4.633-8.771
	c2.619-3.505,7.095,0.295,10.686,1.297c3.187,0.889,6.275,2.135,9.409,3.225c7.76,11.985,10.103,26.031,13.547,39.387
	C934.903,553.911,930.167,547.849,928.295,547.989z"/>
<path style="fill:#092247;" d="M134.299,547.983c-5.924-12.76-15.919-22.74-23.495-34.373c-1.962-3.012-4.165-5.868-7.058-9.916
	c8.819-1.826,15.096,3.397,22.075,4.902c7.746,11.98,10.097,26.015,13.545,39.361C140.904,553.911,136.166,547.835,134.299,547.983z
	"/>
<path style="fill:#FBFBFB;" d="M117.974,477.948c-4.655,6.126-9.31,12.252-13.965,18.379c-0.668-0.325-1.336-0.651-2.007-0.978
	C102,476.219,102,457.092,102,437.965c0.858-0.183,1.716-0.366,2.574-0.549C109.041,450.927,113.508,464.437,117.974,477.948z"/>
<path style="fill:#FBFBFC;" d="M85.686,478.096c4.081,6.222,8.161,12.443,14.056,21.431c-19.602-6.659-36.634-12.446-53.668-18.233
	c1.13-4.887,5.123-3.196,8.055-3.237C64.646,477.909,75.167,478.059,85.686,478.096z"/>
<path style="fill:#FBFBFB;" d="M94.001,503.638c3.065,0.561,2.75,2.771,1.54,4.383c-9.66,12.883-17.77,26.945-29.177,38.501
	c-3.579-9.572,3.287-17.28,4.697-25.968c0.866-5.34,3.16-10.027,8.653-12.27C84.473,506.736,89.237,505.187,94.001,503.638z"/>
<path style="fill:#FEFEFE;" d="M782.313,499.44c0.89,158.095-129.112,287.335-287.769,287.118
	C336.42,786.343,207.208,657.06,207.441,498.557c0.233-158.088,129.379-287.329,288.018-287.115
	C653.459,211.655,783.671,340.838,782.313,499.44z"/>
<path style="fill:#FDFDFE;" d="M154.124,247.904c-1.553,2.227-2.838,4.15-4.204,6.014c-6.882,9.389-13.468,19.022-20.813,28.036
	c-3.819,4.686-3.021,7.2,1.678,9.942c2.57,1.5,5.152,3.197,7.214,5.307c4.149,4.248,6.471,2.148,9.186-1.685
	c6.535-9.226,13.588-18.09,19.968-27.417c2.994-4.377,5.331-4.671,9.58-1.652c4.522,3.214,5.33,5.781,1.706,10.358
	c-7.015,8.862-13.292,18.31-20.317,27.164c-3.278,4.132-2.611,6.139,1.435,9.199c15.008,11.348,14.892,11.511,25.865-3.382
	c5.524-7.497,11.289-14.834,16.447-22.574c3.448-5.174,6.309-3.894,10.508-1.021c4.807,3.289,3.59,5.983,0.797,9.712
	c-10.766,14.374-21.428,28.828-31.92,43.403c-2.869,3.985-5.083,5.041-9.523,1.711c-20.486-15.365-41.188-30.444-61.929-45.464
	c-3.715-2.691-4.576-4.839-1.575-8.819c10.81-14.338,21.308-28.911,31.944-43.382c1.83-2.49,3.757-5.068,7.22-2.267
	C149.86,243.084,153.157,244.38,154.124,247.904z"/>
<path style="fill:#FDFDFE;" d="M256.326,232.712c0.23,25.677-30.788,47.625-52.252,36.7c-3.09-1.573-10.007-2.501-6.739-8.48
	c2.399-4.389,4.554-10.596,13.236-5.512c12.174,7.129,33.175-8.766,31.708-22.932c-0.801-7.733-7.755-11.537-15.626-7.745
	c-6.544,3.152-12.538,7.442-18.793,11.199c-4.847,2.912-9.733,5.652-15.466,6.603c-14.11,2.342-25.945-6.99-26.688-21.198
	c-1.056-20.167,21.6-40.686,41.44-37.353c2.866,0.482,5.742,1.71,8.27,3.182c2.544,1.481,7.436,2.985,3.621,7.062
	c-2.729,2.916-3.258,9.946-10.982,6.102c-11.055-5.502-27.631,5.352-28.261,17.695c-0.401,7.85,5.878,12.197,13.267,8.419
	c8.839-4.52,16.971-10.427,25.827-14.908c15.029-7.605,28.885-3.154,35.394,10.53C255.917,225.512,256.41,229.019,256.326,232.712z"
	/>
<path style="fill:#C2AE97;" d="M204.448,244.911c7.684-4.704,15.173-9.402,22.788-13.886c2.514-1.48,5.64-3.158,8.01-0.113
	c2.019,2.593,0.972,5.568-0.513,8.342C227.933,251.955,218.07,253.918,204.448,244.911z"/>
<path style="fill:#BFAC95;" d="M210.751,209.089c-6.442,4.024-11.986,7.594-17.65,10.963c-1.856,1.104-4.089,3.131-6.205,0.872
	c-2.244-2.396-0.668-4.787,0.779-7.141C194.076,203.368,200.151,201.971,210.751,209.089z"/>
<path style="fill:#FEFEFE;" d="M145.335,358.624c-15.33-10.449-30.393-21.325-46.103-31.166c-7.693-4.819-3.594-9.516-1.221-13.933
	c3.551-6.612,6.875-0.293,9.272,1.397c20.659,14.571,41.015,29.572,61.592,44.261c3.903,2.786,6.064,4.86,3.904,10.433
	c-2.107,5.436-4.605,7.015-10.162,6.447c-20.378-2.082-40.797-3.769-64.264-5.881c9.35,6.902,16.421,12.153,23.526,17.357
	c9.394,6.88,18.721,13.858,28.267,20.521c4.157,2.901,6.475,5.233,4.146,11.106c-2.277,5.741-5.045,7.307-10.917,6.657
	c-25.457-2.82-50.959-5.227-76.437-7.855c-3.007-0.31-8.225,0.477-6.298-4.708c1.485-3.996,0.091-11.558,9.031-10.112
	c14.438,2.336,29.001,3.905,43.514,5.77c4.606,0.592,9.223,1.097,15.228,1.806c-4.423-6.072-9.98-8.787-14.703-12.374
	c-9.801-7.444-19.76-14.682-29.721-21.913c-4.276-3.104-8.574-5.114-5.681-12.46c2.729-6.931,6.067-8.866,13.148-8.111
	c17.802,1.898,35.679,3.093,53.526,4.57C145.101,359.831,145.218,359.227,145.335,358.624z"/>
<path style="fill:#FDFDFE;" d="M553.482,148.41c-14.562-1.357-29.104-3.043-43.695-3.912c-6.065-0.361-7.09-2.81-6.595-8.116
	c2.313-24.821,4.492-49.657,6.413-74.512c0.388-5.014,1.684-6.931,7.13-6.389c17.86,1.78,35.761,3.178,53.666,4.443
	c4.661,0.329,5.666,2.725,5.118,6.544c-0.546,3.808-0.195,8.26-6.516,7.537c-12.22-1.398-24.518-2.143-36.716-3.687
	c-6.172-0.781-9.338,0.407-8.746,7.366c0.247,2.909-0.496,5.95-1.092,8.87c-0.888,4.351,0.953,5.89,5.129,6.207
	c11.268,0.857,22.513,1.998,33.77,3c4.201,0.374,8.573-0.505,7.892,6.707c-0.658,6.968-3.75,7.995-9.697,7.244
	c-10.544-1.332-21.174-1.977-31.723-3.273c-4.969-0.611-7.026,0.631-7.639,5.996c-2.099,18.364-2.323,18.415,15.872,20.391
	c9.25,1.004,18.524,1.923,27.812,2.409c5.377,0.281,7.704,1.99,7.071,7.788c-0.626,5.733-3.098,7.4-8.511,6.088
	c-2.884-0.699-5.937-0.702-8.913-1.019C553.502,148.199,553.492,148.305,553.482,148.41z"/>
<path style="fill:#FDFEFE;" d="M816.069,768.055c-14.067-13.249-26.354-24.829-38.652-36.399c-3.442-3.239-7.221-5.805-1.895-11.187
	c4.568-4.617,7.067-4.867,11.896-0.113c17.081,16.817,34.781,33.004,52.104,49.579c2.372,2.27,7.437,4.21,4.485,8.649
	c-3.034,4.563-6.469,8.907-13.684,7.508c-17.626-3.417-35.387-6.138-53.099-9.11c-4.239-0.711-8.496-1.311-15.101-2.323
	c13.832,13.068,26.093,24.61,38.301,36.21c3.484,3.311,8.143,5.769,2.608,11.947c-5.613,6.266-8.66,2.804-12.769-1.11
	c-17.119-16.305-34.402-32.439-51.517-48.749c-2.383-2.271-7.474-4.346-3.954-8.621c3.061-3.719,5.241-8.927,12.608-7.449
	c20.533,4.12,41.263,7.266,61.92,10.764C810.613,767.87,811.954,767.82,816.069,768.055z"/>
<path style="fill:#FDFEFE;" d="M618.864,102.449c-5.685,16.728-11.413,32.991-16.671,49.405c-1.628,5.081-3.224,7.184-9.065,5.075
	c-5.541-2-7.297-4.076-5.185-10.027c8.088-22.785,15.679-45.747,23.565-68.605c1.087-3.149,0.598-8.745,5.548-7.875
	c5.091,0.895,11.098,1.385,12.935,8.778c4.959,19.956,10.579,39.748,15.955,59.601c0.411,1.519,0.968,2.998,2.33,7.17
	c6.272-18.36,11.896-34.262,17.078-50.307c1.739-5.385,2.75-8.601,10.07-6.182c7.795,2.576,5.579,6.667,3.976,11.374
	c-7.582,22.269-15.158,44.54-22.906,66.752c-1.157,3.318-0.296,9.306-6.302,8.132c-5.219-1.021-10.616-1.954-12.378-9.363
	c-4.679-19.673-10.394-39.1-15.666-58.633C621.637,105.856,621.772,103.686,618.864,102.449z"/>
<path style="fill:#FDFDFE;" d="M423.241,102.787c11.341-14.341,21.108-26.72,30.914-39.068c2.018-2.541,3.588-5.918,7.65-5.505
	c4.49,0.456,10.504-3.679,13.017,0.526c2.133,3.57-3.783,6.883-6.266,10.141c-6.048,7.935-12.228,15.805-18.879,23.23
	c-3.686,4.115-3.555,6.534,0.385,10.487c11.269,11.308,22.038,23.115,32.941,34.785c1.749,1.872,4.749,3.591,3.947,6.444
	c-0.924,3.284-4.558,1.703-6.933,2.487c-7.007,2.313-11.708-0.259-16.151-5.911c-6.154-7.829-13.025-15.132-19.988-22.271
	c-2.694-2.762-4.83-9.781-9.008-6.79c-4.508,3.228-10.15,7.844-8.886,15.52c1.025,6.227,1.254,12.589,2.355,18.799
	c1.046,5.898-1.717,7.386-6.895,8.109c-5.607,0.783-7.524-0.976-8.151-6.587c-2.81-25.116-5.931-50.199-9.226-75.256
	c-0.813-6.185,2.326-7.15,7.258-7.788c4.861-0.629,7.546,0.384,8.076,5.718C420.405,79.974,421.735,90.061,423.241,102.787z"/>
<path style="fill:#FDFDFE;" d="M497.03,901.275c-0.002-10.307-0.235-20.622,0.095-30.919c0.167-5.188-1.482-7.229-6.774-6.787
	c-4.623,0.386-9.33-0.235-13.951,0.159c-5.709,0.487-7.494-1.765-7.522-7.377c-0.028-5.622,2.454-6.47,7.261-6.419
	c19.283,0.205,38.57,0.224,57.852-0.01c5.078-0.062,7.156,1.406,7.096,6.716c-0.057,5.033-1.615,7.614-6.919,7.012
	c-0.328-0.037-0.665-0.014-0.997-0.002c-20.858,0.76-20.858,0.76-20.858,21.407c0,15.627-0.144,31.257,0.08,46.881
	c0.075,5.195-0.89,7.987-7.032,7.884c-5.631-0.094-8.699-1.071-8.437-7.627C497.334,921.902,497.032,911.583,497.03,901.275z"/>
<path style="fill:#FDFDFD;" d="M447.644,933.741c0.583,2.593,0.233,5.155-3.077,4.547c-4.595-0.844-10.494,0.016-12.656-5.504
	c-1.418-3.618-2.065-7.919-1.697-11.784c1.053-11.049-4.78-14.687-14.556-16.782c-19.248-4.127-19.566-4.849-30.113,11.933
	c-4.094,6.514-8.108,5.939-14.024,4.145c-4.515-1.369-5.552-3.055-2.869-6.863c16.478-23.392,33.049-46.721,49.362-70.228
	c2.711-3.907,5.396-2.465,8.593-1.604c3.759,1.012,8.205,0.653,8.968,6.14C439.561,876.411,443.614,905.074,447.644,933.741z"/>
<path style="fill:#FDFDFE;" d="M829.998,207.011c-0.614,1.469-1.356,3.302-2.144,5.115c-10.567,24.311-21.056,48.657-31.833,72.874
	c-1.194,2.682-1.265,9.32-6.276,6.167c-3.884-2.444-11.084-5.08-7.858-12.735c1.93-4.58,3.658-9.332,6.258-13.522
	c3.881-6.254,2.747-10.961-3.024-15.009c-0.268-0.188-0.468-0.47-0.703-0.706c-15.54-15.569-15.701-15.932-35.552-7.12
	c-8.513,3.779-11.306-2.967-13.812-7.125c-2.939-4.878,3.662-5.152,6.412-6.366c24.248-10.699,48.621-21.114,72.981-31.558
	C820.163,194.576,830.052,200.738,829.998,207.011z"/>
<path style="fill:#FDFDFD;" d="M268.04,119.32c4.406,0.26,5.494,3.873,7.478,6.308c1.783,2.189,0.991,4.342-1.086,6.045
	c-0.77,0.631-1.644,1.144-2.372,1.818c-5.057,4.681-14.782,7.535-14.715,13.531c0.063,5.584,7.545,11.105,11.807,16.618
	c9.34,12.082,18.521,24.296,28.159,36.136c3.867,4.75,3.378,7.463-1.333,11.294c-5.08,4.13-7.644,2.68-11.075-1.873
	c-12.19-16.173-24.877-31.972-36.989-48.2c-3.347-4.484-5.697-5.351-9.842-1.246c-3.043,3.014-6.916,5.17-10.163,8.002
	c-3.931,3.428-6.881,5.308-11.216-0.233c-4.349-5.559-1.656-7.869,2.477-11.006c14.28-10.838,28.402-21.884,42.611-32.817
	C263.863,122.091,266.091,120.675,268.04,119.32z"/>
<path style="fill:#FDFDFE;" d="M298.003,800.629c-0.299,20.214-22.095,33.366-39.964,24.069
	c-7.747-4.031-14.191-9.861-20.555-15.688c-3.941-3.608-6.741-4.225-10.225,0.633c-3.865,5.389-8.584,10.158-12.674,15.397
	c-3.294,4.219-5.899,6.336-11.031,1.608c-4.451-4.101-4.91-6.813-1.007-11.388c16.185-18.97,32.11-38.161,48.14-57.264
	c2.411-2.873,4.517-5.836,8.818-1.989c10.157,9.084,20.792,17.64,30.823,26.856C295.318,787.445,298.267,793.492,298.003,800.629z"
	/>
<path style="fill:#FEFEFE;" d="M766.005,162.738c-0.06,20.893-18.834,44.913-39.046,50.248c-8.255,2.179-15.854,0.473-23.084-3.303
	c-11.238-5.868-20.771-14.28-31.171-21.405c-4.145-2.84-3.355-5.541-0.75-9.101c14.902-20.369,29.651-40.851,44.385-61.342
	c2.324-3.232,4.317-5.886,8.692-2.54c10.54,8.061,22.071,14.822,31.642,24.158C763.222,145.842,766.295,153.616,766.005,162.738z"/>
<path style="fill:#FDFDFD;" d="M333.207,807.794c6.862,0.248,10.1,6.062,6.247,13.341c-9.155,17.294-18.082,34.724-27.803,51.696
	c-3.625,6.329-2.369,8.777,3.831,11.539c8.159,3.635,15.761,8.498,23.774,12.488c4.573,2.277,5.392,4.601,2.878,9.317
	c-2.605,4.885-4.868,5.946-9.888,3.098c-12.396-7.035-24.98-13.765-37.724-20.146c-5.636-2.822-5.864-5.613-2.99-10.851
	c11.965-21.808,23.499-43.853,35.224-65.792C327.942,810.263,328.568,807.256,333.207,807.794z"/>
<path style="fill:#FDFDFD;" d="M836.342,349.374c-0.475,4.658-4.413,4.955-7.083,6.564c-3.034,1.828-5.08,0.029-6.456-2.498
	c-7.453-13.677-14.751-27.438-22.271-41.077c-2.203-3.995-0.557-6.062,2.822-7.877c22.778-12.237,45.615-24.368,68.244-36.873
	c5.261-2.908,6.757-0.287,8.957,3.599c2.459,4.342,3.466,7.357-2.116,10.266c-18.219,9.492-36.151,19.534-54.366,29.033
	c-5.138,2.679-6.688,4.868-3.111,10.345c4.874,7.465,8.696,15.619,12.936,23.495C834.829,346.08,835.622,347.886,836.342,349.374z"
	/>
<path style="fill:#FDFDFE;" d="M602.185,924.983c-24.581-0.172-41.929-18.965-41.673-45.146
	c0.235-24.081,18.847-41.464,44.43-41.496c24.685-0.031,42.581,19.513,42.032,45.903
	C646.468,908.612,628.267,925.166,602.185,924.983z"/>
<path style="fill:#FDFDFD;" d="M832.094,380.354c-1.266-6.704,1.438-7.558,4.557-8.471c24.173-7.078,48.322-14.24,72.459-21.442
	c4.779-1.426,7.751-1.356,9.414,4.781c1.549,5.717,1.068,8.356-4.961,10.045c-18.828,5.277-37.391,11.574-56.36,16.245
	c-8.571,2.11-9.245,5.389-6.573,12.641c3.084,8.373,4.887,17.21,7.713,25.689c1.524,4.572-0.512,6.049-4.281,6.868
	c-2.965,0.644-6.722,3.681-8.313-1.349C840.753,409.573,836.109,393.672,832.094,380.354z"/>
<path style="fill:#FDFDFE;" d="M704.022,880.323c-24.019-0.048-41.626-19.156-41.681-45.234
	c-0.05-23.451,19.127-41.23,44.621-41.368c24.077-0.131,41.815,18.863,42.021,44.995
	C749.175,863.086,730.492,880.376,704.022,880.323z"/>
<path style="fill:#041E44;" d="M649.701,564.881c-4.442,6.195-8.023,12.967-13.393,18.545c-23.83,24.753-55.339,23.003-76.187-4.458
	c-11.994-15.798-18.066-34.154-20.637-53.422c-1.202-9.009-4.342-10.872-12.545-9.248c-8.449,1.673-17.129,3.005-25.709,3.006
	c-13.234,0.001-23.102,7.158-33.646,13.378c-4.151,2.448-3.473,5.934-3.582,9.489c-0.667,21.83-4.421,42.977-13.888,62.862
	c-3.429,5.845-5.249,12.753-11.193,16.935c-1.649,1.66-3.298,3.319-4.947,4.979c-11.71,13.012-26.739,11.287-41.504,8.651
	c-17.468-3.119-27.74-15.701-36.083-30.09c-2.666-4.599-5.151-8.813-9.771-12.169c-7.908-5.745-9.145-16.294-3.669-21.472
	c2.571-4.33-0.11-8.392-0.893-12.421c-6.774-34.824-9.068-69.717-0.755-104.554c4.943-20.714,13.088-39.778,32.999-51.009
	c12.472-4.659,30.706-4.079,37.737,1.229c-1.832,3.18-4.554,2.986-7.449,2.06c12.932,5.356,21.084,15.707,27.537,27.529
	c13.54,24.804,18.055,51.932,19.373,79.698c0.639,13.448,0.009,26.952,0.965,40.443c5.989-14.672,4.211-29.902,3.075-44.941
	c-1.001-13.239-3.159-26.359-7.365-39.09c-1.645-4.978-3.063-10.24-1.615-15.661c6.386-3.66,13.282-6.466,19.069-11.17
	c28.643-18.264,57.24-36.601,85.953-54.754c10.889-6.884,20.747-14.942,29.784-24.082c7.066-7.146,15.107-6.199,22.94-1.833
	c12.263,6.834,19.566,17.737,23.777,30.896c1.965,6.515,2.078,13.617-0.009,19.514c-2.22,6.272,0.125,9.301,3.901,12.794
	c10.966,14.077,17.556,30.077,20.872,47.52c0.585,3.077,0.084,6.658,3.695,8.359c2.076-0.535,4.203-2.11,6.075,0.34
	C664.564,511.112,662.474,538.837,649.701,564.881z"/>
<path style="fill:#C79F51;" d="M671.424,545.443c8.168-14.274-1.74-29.249,1.722-43.816c1.884-7.925-1.623-16.516,2.333-24.447
	c0.541-1.084-0.314-3.22-1.08-4.546c-8.513-14.742-9.422-31.796-14.757-47.463c-1.695-4.978,3.197-8.643,0.583-13.019
	c5.457-2.044,8.819,1.69,12.066,4.797c7.408,7.087,15.065,13.975,21.52,21.967c2.455,3.04,2.801,0.293,3.907-0.748
	c5.54-4.853,0.084-11.781,3.072-15.876c-1.652,4.264,0.699,10.443-2.688,15.686c-4.28,0.924-5.247-2.653-5.919-5.19
	c-3.872-14.605-9.903-28.175-18.314-40.714c-0.747-1.114-0.686-2.539-0.498-3.884c1.068-1.97,2.776-2.917,4.955-3.098
	c7.687,2.652,8.461,10.464,11.931,16.228c2.03,3.372,3.728,6.978,5.235,11.201c2.492-14.913,2.881-29.203-1.772-43.311
	c-0.729-2.211-0.879-4.551-0.4-6.894c0.301-1.568,1.021-2.878,2.282-3.867c4.637,5.267,4.955,12.083,6.576,18.424
	c0.557,2.177,0.3,5.077,4.041,3.59c4.442,4.165,4.229,9.765,3.642,14.897c-1.997,17.46-1.039,35.061-2.885,52.485
	c-0.416,1.109-0.93,2.204-1.835,3.061c-0.603,0.571-1.242,1.098-1.927,1.567c0.984-0.146,1.849-1.172,3.002-0.384
	c6.588,11.309,7.764,23.612,7.226,35.534c2.549-7.893,6.214-16.28,8.815-25.054c3.427-11.56,5.141-23.209,3.052-35.274
	c-0.781-4.512-1.544-9.275,2.195-13.148c0.586,0.792,1.656,1.566,1.688,2.379c0.843,21.727,12.119,41.154,13.583,62.847
	c0.702,10.4,0.675,20.558-0.776,30.816c-0.85,6.013-6.423,12.433,1.558,17.953c1.059,0.732-0.001,3.804-1.728,5.228
	c-9.66,9.949-18.271,20.817-27.385,31.245c-2.804,3.208-4.787,7.341-9.526,8.338c-4.091-1.861-8.336,4.368-12.396-0.201
	c-1.964-6.554,1.412-12.424,2.55-18.538c4.261-22.905-1.177-43.365-15.424-64.361c0.007,16.287-1.108,30.137,1.57,43.981
	c2.713,14.028,6.945,27.86,6.22,42.396c-0.127,2.552,0.804,3.764,3.483,3.142c1.794,1.408,4.029,2.005,5.93,3.262
	c-1.158,10.154-6.867,17.442-15.255,19.529c-3.12-4.313-3.986-9.106-1.939-13.987c1.72-4.1,1.396-8.134,1.029-12.274
	c-0.304-1.328-1.935,0.399-0.706-0.119c0.551-0.232,0.845-0.082,0.882,0.449c0.663,9.494,0.422,9.874-5.877,9.246
	c-2.155-11.399,0.617-23.066-1.91-34.46C672.647,549.1,672.807,547.063,671.424,545.443z"/>
<path style="fill:#082044;" d="M704.045,452.014c-1.536-23.906,2.495-47.643,2.174-71.532c0.166-2.294,0.331-4.567,0.706-9.718
	c10.173,14.85,16.306,28.679,20.585,43.409c6.622,29.362-2.112,56.052-15.673,85.18c-2.069-17.819-2.131-33.23-7.824-47.492
	L704.045,452.014z"/>
<path style="fill:#A3AAAD;" d="M448.108,454.025c7.995,28.866,13.792,58.032,11.53,88.222c-0.44,5.877,0.049,12.09-4.392,17.022
	c-2.073,2.302-4.356,4.954-7.536,3.39c-2.606-1.282-0.567-4.173-0.389-6.347c2.398-29.411,1.599-58.689-5.818-87.359
	c-6.977-26.966-17.282-52.001-46.514-63.509c6.066-3.55,11.001,1.555,18.173-0.669c-14.263-4.238-26.574-2.393-38.87-0.891
	c16.691-10.676,49.108-2.469,59.314,15.903c4.753,8.555,12.389,15.544,14.343,25.642
	C446.254,448.326,448.701,451.147,448.108,454.025z"/>
<path style="fill:#061F44;" d="M255.882,510.989c-4.515-21.514-2.621-42.829,1.99-64.06c3.687-3.742,5.286-0.686,6.482,2.227
	c1.194,2.91,0.446,6.342,2.073,9.206c2.532,13.156,7.573,25.507,13.543,37.333c10.373,20.55,11.033,43.651,18.084,65.038
	c0.839,2.546,0.459,5.604-2.196,7.115c-2.765,1.573-5.068-0.297-7.047-2.128c-9.786-9.055-19.333-18.465-25.742-30.232
	C258.997,528.013,258.616,519.073,255.882,510.989z"/>
<path style="fill:#051E44;" d="M361.033,699.903c-6.321-3.665-12.643-7.33-18.964-10.995c-6.725-7.438-15.219-13.292-21.304-23.045
	c6.243-1.117,11.143-1.006,16.373,0.264c17.304,4.203,34.344,9.36,51.57,13.851c16.576,4.212,31.107,13.268,46.736,19.721
	c2.481,1.024,5.032,2.705,4.612,5.777c-0.344,2.516-2.981,3.744-5.179,4.16c-16.622,3.147-33.17,5.908-49.747-0.958
	C377.257,705.416,368.951,703.154,361.033,699.903z"/>
<path style="fill:#041E44;" d="M681.16,603.169c6.5-6.274,11.151-13.872,15.519-21.672c-0.438-5.131,1.354-8.711,6.786-9.76
	c11.717-12.392,23.072-25.087,33.107-38.916c1.084-1.494,1.088-5.142,4.434-3.223c0.745,0.427,0.575,2.448,0.823,3.753
	c-3.542,20.708-8.236,41.007-20.028,58.891c-11.466,18.889-32.069,25.354-49.402,36.252c-1.391,0.874-3.193,0.642-4.765-0.146
	C665.48,619.558,671.249,608.821,681.16,603.169z"/>
<path style="fill:#041E44;" d="M627.821,331.676c-13.086-12.359-26.296-24.639-31.521-42.771c-1.079-3.743-3.462-8.095,0.32-11.189
	c4.466-3.652,7.185,1.527,10.12,3.508c13.781,9.302,27.364,18.904,39.001,30.931c13.167,10.515,17.228,25.336,19.539,41.041
	c0.487,3.308,1.92,6.902-1.62,9.034c-3.889,2.343-6.073-1.149-8.171-3.579C647.038,348.86,634.729,343.036,627.821,331.676z"/>
<path style="fill:#C89F50;" d="M255.882,510.989c5.737,19.167,16.353,35.298,30.706,49.054c2.558,2.451,4.427,5.835,10.227,7.396
	c-7.813-22.454-8.679-45.399-18.084-66.401c-5.938-13.26-12.274-26.498-14.754-41.053c1.579-1.765,3.8,3.308,5.2-0.488
	c5.522,3.312,4.927,9.673,7.242,14.578c1.525,3.231,2.214,6.849,4.439,9.8c2.246-6.232,0.674-13.165,3.962-19.097
	c0.587-0.638,1.31-1.074,2.134-1.316c2.867,1.921,5.566-5.109,8.526-0.183c1.612,4.428-0.545,8.435-1.439,12.57
	c-2.295,10.61-4.222,21.217-0.987,33.415c6.907-9.586,11.344-19.146,16.785-28.086c1.934-3.178,2.947-7.667,8.177-7.221
	c7.693,20.186,3.994,40.828,2.321,61.361c-0.285,3.496,0.23,5.895,2.695,8.774c2.369,2.766,4.091,6.815,2.914,11.062
	c-2.263-0.262-3.575-1.559-4.001-3.399c-3.335,14.442-3.409,29.093,1.603,43.575c0.764,2.208,0.892,4.573,0.197,6.897
	c-1.66,3.808-5.062,4.455-8.654,4.771c-9.518-7.174-16.067-16.258-18.051-28.252c2.725-2.835,6.196,1.134,9.026-0.966
	c2.326,1.103,3.405,3.059,4.074,7.26c-3.275-15.671,0.155-29.177,3.02-42.507c3.459-16.094,3.855-32.165,2.181-48.649
	c-10.403,15.59-19.736,31.322-16.657,51.577c1.591,10.465,8.254,19.735,6.839,30.799c-3.099,5.254-7.057-2.951-10.28,0.659
	c-9.101-3.844-36.502-36.524-38.811-46.256c0.361-0.916,0.87-1.741,1.544-2.461C260.092,522.121,253.597,517.089,255.882,510.989z"
	/>
<path style="fill:#152945;" d="M296.156,367.049c5.285-24.818,24.587-38.915,41.814-54.583c0.844-0.767,2.129-3.354,3.188-0.163
	c0.245,0.738-0.545,1.82-0.858,2.743c-3.702,19.433-10.402,38.047-15.581,57.081c-1.738,5.703-3.609,11.344-7.145,16.26
	c-6.599,9.61-12.754,19.459-17.079,30.346c-1.006,2.533-2.493,5.373-5.359,5.21c-3.173-0.181-3.868-3.384-3.885-6.101
	c-0.098-15.246-1.371-30.549,1.93-45.653C293.626,370.157,295.199,368.782,296.156,367.049z"/>
<path style="fill:#051F44;" d="M287.619,463.694c-1.47,9.724-2.939,19.448-4.634,30.664c-8.353-11.282-10.483-23.699-14.522-35.296
	c-6.989-8.694-3.897-18.717-2.951-28.084c0.741-7.34,1.903-14.88,4.672-21.927c5.097-9.816,6.993-21.048,13.396-30.286
	c1.577-1.976,2.704-5.399,5.613-4.661c3.558,0.903,2.856,4.53,2.894,7.489c0.202,15.746-0.965,31.517,0.83,47.233
	c0.016,2.463,0.033,4.929-0.421,7.364c-1.943,5.106-1.199,10.433-1.433,15.705C290.88,455.999,291.982,460.719,287.619,463.694z"/>
<path style="fill:#041E44;" d="M333.054,411.958c-0.475,0.253-0.845,0.613-1.11,1.082c-1.336,6.449-7.391,8.915-11.27,13.194
	c-5.716,6.307-12.442,11.651-17.34,18.774c-1.984,2.885-4.606,6.331-8.763,4.967c-3.801-1.247-3.268-5.21-3.451-8.452
	c0.324-3.554,0.675-7.104,1.902-10.495c4.48-5.85,6.512-12.928,9.664-19.445c5.086-10.516,11.545-20,20.445-27.701
	c12.58-10.935,28.743-12.823,43.849-17.374c2.335-0.703,5.089-0.931,6.404,1.202c2.413,3.913-2.502,5.426-3.429,8.333l0.077-0.092
	C358.396,388.661,347.095,401.717,333.054,411.958z"/>
<path style="fill:#051E44;" d="M697.811,438.188c0,2.231,0,4.462,0,7.423c-13.439-10.8-23.449-24.435-37.565-33.438
	c-8.792-8.784-17.563-17.547-26.334-26.31c-2.989-4.783-7.565-8.242-10.479-13.19c-3.153-5.353-0.628-6.936,3.899-6.451
	c4.545,0.486,9.124,1.193,13.622,2.552c9.27,2.801,17.354,8.123,26.275,11.642c3.356,1.324,6.503,3.566,6.157,8.077
	c11.389,10.939,16.578,25.09,20.756,39.803c0.975,3.432,2.46,6.719,3.71,10.073L697.811,438.188z"/>
<path style="fill:#051E44;" d="M318.014,473.954c-7.583,12.792-15.165,25.585-22.749,38.376c-0.991,1.671-1.517,3.77-3.851,4.213
	c-4.69-13.823-4.598-15.708,2.679-54.999c-1.78-1.923-1.001-3.789,0.11-5.653c9.104-11.815,17.94-23.871,29.963-33.06
	c2.95-2.255,6.115-5.186,9.656-2.574c2.885,2.128,0.378,5.393-0.393,8.188c-1.271,4.606-0.988,9.706-4.498,13.569
	c-0.986,3.646-1.973,7.293-2.959,10.939c-2.092,7.25-4.906,14.225-8.029,21.082L318.014,473.954z"/>
<path style="fill:#061F44;" d="M344.373,317.169c8.809-15.45,23.823-23.132,38.735-30.943c3.442-1.352,5.735-4.498,9.209-5.839
	c1.832-0.707,3.662-2.197,5.505-0.577c1.841,1.619,0.772,3.581,0.041,5.46c-5.169,13.294-11.344,26.003-19.702,37.685
	c-5.949,8.316-14.157,13.713-22.245,19.391c-7.058,4.955-14.087,9.913-19.456,16.836c-1.637,2.111-3.706,4.293-6.635,2.407
	c-2.284-1.471-2.051-4.161-1.252-6.353C333.28,342.319,334.594,327.98,344.373,317.169z"/>
<path style="fill:#051E44;" d="M322.601,604.508c-4.944-15.528-9.146-31.138-4.846-47.598c0.798-3.054,1.796-6.055,3.036-10.196
	c2.161,3.531,3.656,5.976,5.153,8.429c1.677,3.622,3.354,7.235,5.03,10.849c9.207,9.811,12.992,22.594,18.816,34.267
	c0.402,0.922,0.677,1.878,0.859,2.863c2.392,17.25,6.632,33.887,16.205,48.744c1.654,2.566,3.953,5.622,0.83,7.888
	c-2.946,2.138-5.46-0.94-7.657-2.907c-5.204-4.66-9.667-10.128-15.453-14.151C334.373,631.627,324.664,620.266,322.601,604.508z"/>
<path style="fill:#051E44;" d="M405.967,727.956c-5.958-3.014-11.917-6.028-17.876-9.042c-0.952-2.371-4.955-3.222-3.915-6.324
	c1.051-3.133,4.412-2.773,6.919-2.482c19.387,2.251,38.106-1.267,57.187-4.397c15.129-2.482,31.191-2.322,46.549,1.938
	c5.166,2.538,4.008,5.944,0.286,8.178c-14.567,8.745-29.64,16.49-47.133,17.125C433.752,733.467,419.492,733.651,405.967,727.956z"
	/>
<path style="fill:#051E44;" d="M673.774,670.847c-7.628,6.287-15.257,12.574-22.885,18.861
	c-27.701,15.109-57.173,22.001-88.751,19.155c-2.005-0.181-3.972-0.403-5.663-1.622c-4.029-7.289,2.36-8.765,6.503-10.348
	c21.417-8.181,43.157-15.469,65.251-21.617c10.86-3.022,21.659-6.261,32.552-9.176c3.654-0.978,7.213-1.303,10.818-0.94
	C675.549,665.557,675.466,668.017,673.774,670.847z"/>
<path style="fill:#C9A153;" d="M557.164,705.662c20.559,0.41,41.078,1.126,61.36-3.914c11.31-2.81,21.235-8.967,32.364-12.04
	c-8.879,8.045-20.225,10.648-31.163,14.173c-2.774,0.894-6.651-0.694-5.494,5.983c0.6,3.463-6.508,8.322-12.889,7.831
	c-0.433-1.198-0.579-3.15-1.983-3.079c-25.941,1.311-51.581-5.143-77.541-2.961c-1.526,0.128-3.217-0.305-4.866,1.231
	c19.103,11.349,38.828,17.211,60.895,10.494c4.272-1.301,8.925-3.476,13.159,0.484c-8.855,6.04-19.111,7.699-29.345,7.954
	c-6.205,0.155-11.181,1.608-15.661,5.568c-14.021-3.847-27.095-10.292-40.817-14.9c-7.668-2.575-15.038,0.652-22.121,3.848
	c-8.351,3.768-16.077,9.052-22.535,10.471c4.779-0.495,12.439-0.061,20.01-1.312c3.28-0.542,6.667-0.89,9.456,1.688
	c-10.705,7.158-24.659,9.548-33.952,3.998c-13.512-8.07-27.878-4.69-41.114-9.241c-3.079-1.059-5.978-2.64-8.96-3.981
	c15.151,2.832,30.138,5.995,45.799,2.431c15.666-3.565,29.76-10.586,43.945-17.588c1.408-0.695,1.707-1.846,0.297-2.995
	c-0.424-0.492-0.584-0.999-0.481-1.521c0.105-0.529,0.222-0.793,0.337-0.794c1.509-1.353,3.078-2.679,3.2-4.966
	c0.28-0.863,0.728-1.609,1.316-2.289c8.385-6.372,16.454-13.117,24.354-20.065c1.636-1.439,4.131-2.448,3.377-5.42
	c5.437-6.612,14.276,0.959,19.922-4.778c1.218,5.155-2.997,6.946-6.043,9.061c-9.508,6.601-18.069,14.263-26.916,23.021
	c9.458-1.194,17.778-3.649,25.862-7.065c3.606-1.524,7.092-3.709,11.317-2.456c1.37,0.643,2.263,1.632,2.32,3.218
	c-1.81,4.104-5.918,5.028-9.198,6.975c2.16,0.211,4.599-0.864,6.98,0.044C554.193,703.354,555.107,705.451,557.164,705.662z"/>
<path style="fill:#041E44;" d="M671.424,545.443c4.341-2.105,4.106,1.483,4.686,3.854c3.021,12.352,3.232,24.739,0.295,37.145
	c1.532,1.587,1.834,3.503,1.508,5.587c-1.571,6.1-3.973,11.944-5.653,18.017c-3.42,7.348-7.943,14.101-11.587,21.337
	c-1.041,2.28-1.986,4.608-3.601,6.573c-4.348,4.933-8.209,10.306-13.949,13.9c-2.774,1.737-5.407,5.048-8.654,2.242
	c-2.88-2.488-1.381-6.157-0.05-9.227c6.391-14.734,8.773-30.857,15.753-45.383C657.256,581.474,664.34,563.459,671.424,545.443z"/>
<path style="fill:#051F44;" d="M671.989,658.049c-0.353,0.654-0.707,1.308-1.06,1.961c-11.911,9.106-26.352,11.445-40.32,15.02
	c-2.845,0.728-6.341,2.056-8.294-0.912c-2.34-3.557,0.987-6.057,3.025-8.556c1.255-1.539,2.695-2.923,4.02-4.397
	c10.411-7.107,20.183-15.025,29.362-23.685c15.132-10.702,31.276-19.793,47.012-29.536c3.021-1.87,5.988-2.958,8.985,0.006
	c1.338,3.907-0.723,6.944-2.567,10.036l-0.088,0.157C702.126,634.88,688.914,648.329,671.989,658.049z"/>
<path style="fill:#082144;" d="M604.14,354.014c-8.168-8.599-16.335-17.199-24.503-25.798c-1.843-3.284-9.297-3.075-7.158-7.722
	c1.825-3.965,7.104-0.219,10.835-0.023c15.544,0.816,28.896,8.127,42.498,14.653c15.018,7.708,27.064,18.837,36.348,32.783
	c2.929,4.399-0.322,8.975-5.027,7.142C639.428,368.152,619.252,367.387,604.14,354.014z"/>
<path style="fill:#082144;" d="M407.634,653.174c1.379-5.563,4.71-1.897,6.705-1.022c8.344,3.661,16.501,7.751,24.726,11.684
	c16.56,8.845,33.185,17.602,47.321,30.22c3.564,3.181,8.572,5.483,8.067,11.565c-4.581,5.009-10.065,1.146-14.988,1.152
	c-10.156,0.012-20.525-0.11-29.774-5.504c-0.977-0.302-1.89-0.758-2.744-1.313C430.241,687.402,417.188,671.757,407.634,653.174z"/>
<path style="fill:#051E44;" d="M613.694,637.53c0.472-0.565,0.943-1.131,1.415-1.697c7.546-5.569,15.898-10.249,20.744-18.798
	c2.458-1.363,1.027-5.817,4.846-6.098c5.208,1.142,3.318,4.951,2.616,7.832c-5.43,22.287-13.81,43.033-31.571,58.711
	c-11.631,8.642-25.487,12.25-38.795,17.117c-2.848,1.042-6.036,2.579-8.23-0.22c-2.671-3.406,0.997-5.316,2.975-7.187
	c9.392-8.88,18.384-18.086,25.448-29c1.87-2.889,4.858-4.402,7.657-6.132C605.234,647.342,610.867,643.681,613.694,637.53z"/>
<path style="fill:#1C2E46;" d="M551.987,693.997c-14.157,6.178-28.401,12.012-46.056,11.596
	c14.76-12.705,27.492-25.245,42.104-35.62c0,0-0.074,0.071-0.074,0.071c5.252-3.528,10.919-6.187,16.945-8.095
	c5.941-4.853,13.813-5.722,20.146-9.767c3.708-0.362,7.748-5.401,10.669-1.762c2.917,3.633-1.884,7.061-3.963,10.21
	c-7.522,11.396-16.703,21.182-27.96,29.072C560.107,692.288,556.308,693.619,551.987,693.997z"/>
<path style="fill:#061F44;" d="M591.006,723.863c-0.648-0.118-1.411-0.521-1.927-0.312c-29.555,11.978-56.392,5.329-82.49-12.885
	c34.291-8.235,68.078,4.335,102.233-0.561c-0.917,4.639-5.732,4.651-7.479,7.59C597.897,719.751,594.452,721.807,591.006,723.863z"
	/>
<path style="fill:#C89F4E;" d="M344.373,317.169c-4.102,11.16-8.329,22.276-12.228,33.506c-1.136,3.273-2.868,6.645-1.668,11.597
	c9.64-13.432,22.641-21.554,35.03-30.412c17.679-12.639,25.798-31.041,32.318-51.284c-6.819-0.326-9.34,6.02-14.718,5.651
	c4.207-4.653,9.716-11.291,15.224-7.828c4.899,3.08-0.296,10.379-2.404,15.272c-5.111,11.866-10.744,23.534-21.038,34.649
	c13.581-4.026,25.106-8.277,37.314-9.577c3.959-0.422,7.943-0.634,11.921-0.849c2.083-0.113,4.198,0.268,4.647,2.691
	c0.327,1.762-0.978,2.964-2.401,4.017c-5.317,3.935-10.561,7.967-15.833,11.963c-0.362-0.301-0.723-0.603-1.088-0.903
	c-0.402-5.509,3.968-8.013,7.021-11.28c-35.233,3.452-59.511,17.093-80.855,45.005c16.174-1.345,30.512-11.041,46.828-14.715
	c0.937,0.339,1.611,0.964,2.028,1.867c-3.72,2.798-7.587,4.847-7.064,11.138c0.235,2.821-3.236,7.054-7.452,8.367
	c1.055-2.516,2.11-5.032,3.633-8.666c-17.607,5.401-34.931,8.246-49.422,18.801c-0.399-0.198-0.798-0.396-1.2-0.591
	c-4.844-4.022,1.579-8.891-0.984-13.087c4.925-19.526,9.43-39.185,18.315-57.452C340.553,317.874,341.345,319.666,344.373,317.169z"
	/>
<path style="fill:#082044;" d="M489.993,737.18c-12.925,2.042-25.833,6.085-41.063-0.028c13.304-2.996,23.135-8.953,33.268-14.273
	c11.3-5.933,22.42-6.86,34.067-0.285c7.76,4.381,16.215,7.523,25.014,9.493c2.745,0.615,6.558,0.476,4.751,5.288
	c-15.216,1.837-30.398,3.671-44.999-3.095C496.59,732.223,493.728,736.421,489.993,737.18z"/>
<path style="fill:#C59E51;" d="M447.917,697.995c11.841,5.022,24.113,8.169,37.037,8.312c3.08,0.034,6.662,1.65,8.794-2.222
	c0.811-0.569,1.667-0.676,2.575-0.251c0.828,1.312,0.902,2.589-0.171,3.816c-0.048,0.718-0.096,1.436-0.143,2.154
	c-36.83-6.474-73.15,5.116-109.605,2.611c-1.731,3.179,2.805,3.922,1.686,6.494c-3.484-1.719-7.83-2.888-6.396-8.277
	c0.983-3.691-2.128-2.468-3.518-3.055c-5.768-2.435-12.205-3.356-17.139-7.674c3.967-1.235,6.996,1.44,10.32,2.635
	c22.053,7.934,44.303,9.164,68.489,2.697c-18.172-8.517-34.513-17.181-52.2-22.818c0.167-0.408,0.335-0.817,0.492-1.232
	c1.515-1.639,3.073-3.231,5.115-4.253c9.244-0.529,15.759,6.203,23.77,8.977c3.314,1.148,6.585,2.459,10.204,4.307
	c-8.186-11.16-16.972-20.99-26.512-30.178c-3.057-2.945-6.551-5.698-7.446-10.27c-0.025-1.014,0.416-1.78,1.252-2.332
	c3.417,2.826,6.693,5.85,10.287,8.43c4.784,3.435,1.433-2.239,2.827-2.692c7.619,6.589,12.538,15.389,18.709,23.151
	c6.439,8.099,14.662,14.275,21.658,21.733c-1.042,1.505-3.099,3.275-0.305,4.632c3.043,1.478,0.897-0.481,0.536-1.106
	C447.566,700.427,447.191,699.266,447.917,697.995z"/>
<path style="fill:#C79F51;" d="M604.14,354.014c16.346,10.909,36.309,11.762,53.841,19.374c1.193,0.518,2.484,1.387,3.548,0.012
	c1.285-1.661,0.097-2.853-0.9-4.256c-8.488-11.949-19.181-21.549-31.223-29.758c-1.349-0.919-2.535-2.077-3.796-3.125
	c-0.519-0.487-0.706-0.99-0.564-1.507c0.144-0.524,0.298-0.787,0.462-0.787c0.773-0.762,1.547-1.523,2.316-2.288
	c13.267,8.103,23.184,20.205,35.926,31.124c-1.371-19.646-7.087-36.069-18.009-50.649c2.916,0.565,5.158,4.206,8.701,1.905
	c1.292,1.53,3.199,2.49,4.089,4.397c3.187,5.458,5.634,11.187,6.594,17.494c2.001,13.15,6.173,25.637,11.435,37.815
	c1.503,3.478,4.191,7.011,1.283,11.081c-0.615,2.279-2.367,3.168-4.456,3.645c-15.22-10.178-31.222-18.376-50.302-20.285
	c1.382,7.776,8.991,10.952,10.829,17.656c-3.378-0.435-5.291-3.16-6.609-5.547C621.498,369.796,613.48,361.354,604.14,354.014z"/>
<path style="fill:#C59E51;" d="M347.977,602.154c-4.461-12.62-10.046-24.711-17.001-36.161c4.718,0.47,5.901,8.15,11.969,5.872
	c-2.165,4.595,1.744,19.333,6.152,19.814c5.017,0.548,5.624,3.653,7.154,6.761c3.229,6.558,7.42,12.485,11.541,18.511
	c14.768,21.596,48.194,24.964,66.179,9.995c-3.71,9.17-12.165,10.265-20.161,10.824c-10.424,0.729-21.034,1.129-32.037-4.479
	c3.471,6.921,9.391,9.356,12.747,14.144c-0.372,0.412-0.742,0.825-1.112,1.239c-5.221,1.82-7.998-2.113-10.993-4.964
	c-7.681-7.311-15.068-14.927-23.704-23.63c3.369,12.929,8.849,23.124,15.833,32.635c2.295,3.126,5.637,5.874,4.453,10.501
	c-2.546,2.843-6.608,1.839-9.541,3.756c-11.978-3.51-20.206-11.565-26.542-21.924c-0.06-2.154,0.936-3.732,2.686-4.894
	c7.098,6.393,14.195,12.787,21.293,19.18c-11.37-17.609-17.214-36.75-18.945-57.294c0.596-0.624,1.504-0.579,2.184-1.022
	C349.214,601.018,348.581,601.559,347.977,602.154z"/>
<path style="fill:#C49F56;" d="M551.987,693.997c17.653-10.896,33.085-23.983,43.235-43.494c-3.946,0.651-7.058,1.165-10.17,1.679
	c4.956-6.9,11.976-3.803,18.359-3.787c-0.153,1.209-0.406,2.397-0.759,3.564c-12.508,13.488-22.249,29.487-39.705,42.355
	c19.166-2.913,33.684-9.396,46.881-19.184c4.241,5.374,5.395,1.57,7.605-2.07c3.415-5.626,5.413-13.83,15.119-11.203
	c-3.119,3.33-6.238,6.659-10.557,11.271c14.695-0.61,26.819-4.875,38.83-9.727c3.284-1.326,6.09-4.184,10.098-3.389
	c0.234,1.186-5.149,4.137,0.972,3.39c2.533-0.309,4.961-0.649,5.504,2.272c0.448,2.41-1.168,4.314-3.627,5.174
	c-0.226-2.39,0.864-5.684-3.883-4.306c-37.299,10.83-74.852,20.854-110.971,35.393c-1.997,0.804-2.442,1.885-1.762,3.728
	c-2.23,0.182-4.146-0.347-5.372-2.412c-1.514-3.398,0.95-5.719,2.263-8.351C553.362,694.599,552.675,694.298,551.987,693.997z"/>
<path style="fill:#C79F51;" d="M632.552,661.856c-5.144,3.9-15.142,3.859-11.12,15.367c0.547,1.566-8.783,3.358-14.744,5.234
	c1.34-3.125,2.239-5.223,3.139-7.324c18.002-15.211,26.204-35.888,32.229-57.774c0.643-2.336,0.599-4.596-1.352-6.422
	c-1.539-3.473-0.25-6.759,3.142-6.531c4.35,0.291,4.046-3.6,6.326-4.91c-2.727,18.55-9.557,35.999-15.958,55.421
	c10.426-4.457,14.615-13.21,21.66-18.57c1.953,0.455,3.019,1.732,3.39,3.655C650.359,647.287,641.456,654.571,632.552,661.856z"/>
<path style="fill:#A1A8AB;" d="M659.798,477.631c0.213,3.459-1.191,6.218-3.685,8.504c-4.486-2.206-3.525-6.761-4.199-10.411
	c-2.797-15.146-8.061-29.25-16.545-42.151c-1.481-2.253-2.784-4.494-5.494-5.413c-2.391-2.287-4.814-4.54-7.157-6.875
	c-1.05-1.047-3.445-2.498-1.346-3.809c9.367-5.85,5.729-15.179,6.705-23.273c0.26,0.209,0.752,0.422,0.746,0.62
	c-0.56,18.572,13.333,30.339,21.145,44.962c4.43,10.165,8.41,20.476,10.364,31.459C660.722,473.436,661.911,475.661,659.798,477.631
	z"/>
<path style="fill:#323C49;" d="M441.97,283.96c-3.014-0.042-4.529-2.195-8.884-6.16c14.145,0,25.629-0.796,36.944,0.239
	c9.96,0.912,14.334-2.887,16.324-12.163c1.803-8.406,4.915-16.523,7.215-24.832c1.763-6.37,4.07-3.191,6.48-0.595
	c1.496,3.161,0,6.59,0.882,9.812c-0.971,13.348,3.459,26.82-0.955,40.082c-1.308,2.354-3.351,2.887-5.821,2.35
	c-4.766-1.302-7.539-5.707-11.907-7.636c-10.756-4.256-21.977-1.118-32.907-2.101C446.849,282.936,444.328,282.841,441.97,283.96z"
	/>
<path style="fill:#A2AAAC;" d="M525.773,345.845c-6.402-1.395-11.146-5.633-15.142-10.231c-7.851-9.035-15.956-7.09-24.581-1.85
	c-1.29-4.758,2.098-7.146,5.153-9.351c2.511-1.812,4.666-3.424,3.929-6.925c0.746-7.077-2.247-14.564,2.404-21.176
	c3.313-1.611,4.934,0.967,6.444,2.944c8.615,11.28,16.363,23.15,23.695,35.299C530.301,338.907,529.896,342.669,525.773,345.845z"/>
<path style="fill:#C59E51;" d="M257.975,528.201c-0.127,0.921-0.255,1.843-0.382,2.764c2.596,8.983,0.383,18.53,3.09,27.465
	c4.3,14.194,13.338,25.209,24.285,34.762c11.064,9.655,23.582,17.372,35.37,26.065c2.068,1.525,4.364,1.384,6.646,1.685
	c6.795,3.522,7.322,10.633,9.584,16.755c-4.733,3.833-8.026-0.142-11.296-2.415c-14.361-9.984-28.598-20.145-43.679-29.645
	c0.692,3.187,2.526,5.76,1.732,8.829c-0.343,0.923-0.951,1.601-1.858,1.999c-2.186-7.154-13.228-11.965-5.416-21.977
	c1.235-1.583-2.846-4.034-4.582-5.963c-13.832-15.368-20.84-33.05-18.266-53.922C253.545,531.819,252.082,527.092,257.975,528.201z"
	/>
<path style="fill:#0E2345;" d="M525.773,345.845c3.419-6.24-1.265-10.296-3.997-14.891c-7.038-11.838-15.957-22.507-21.804-35.085
	c0.372-0.279,0.744-0.558,1.115-0.841c0.317-0.08,0.724-0.322,0.941-0.206c10.169,5.421,20.372,6.28,30.659,0.313
	c3.588,2.943,0.453,3.801-1.553,5.01c-8.854,4.715-8.479,11.141-4.943,19.543c4.147,9.855,6.714,20.375,10.115,31.074
	C530.979,350.902,528.955,347.254,525.773,345.845z"/>
<path style="fill:#061E43;" d="M441.97,283.96c-1.308-3.688,0.734-3.993,3.55-3.517c2.107,1.345,4.45,1.645,6.889,1.555
	c12.709,1.329,25.476,2.349,37.258,7.973c1.961,1.514,4.587,2.403,5.052,5.334c-3.737,8.031-12.139,10.429-18.503,15.296
	c-4.258-3.188-7.074-8.056-12.053-10.425C456.388,295.287,448.804,290.136,441.97,283.96z"/>
<path style="fill:#C59E51;" d="M387.646,682.418c-21.351-5.536-42.702-11.073-65.435-16.968
	c4.777,10.744,15.58,14.374,19.857,23.454c-7.944-3.951-13.333-10.851-19.319-17.014c-1.937-1.995-5.329-4.002-3.999-7.378
	c1.449-3.679,5.626,0.737,8.03-1.943c-13.716-7.002-27.184-14.21-35.348-28.041c0.323-0.358,0.646-0.717,0.968-1.079
	c5.803-0.305,8.575,4.36,12.195,7.545c19.926,17.534,43.993,24.563,69.641,27.6c6.716,2.013,9.492,8.512,14.344,12.664
	C388.269,681.645,387.958,682.032,387.646,682.418z"/>
<path style="fill:#C89F4E;" d="M324.168,386.178c-14.161,12.344-20.866,29.317-28.416,45.765c-1.811-0.996-4.008-0.376-5.816-1.386
	c0-18.521,0-37.042,0-55.598c-3.619-1.061-3.984,3.033-6.357,3.803c1.592-6.693,3.505-13.044,12.576-11.712
	c-1.788,18.061-3.808,36.118-1.627,56.335c7.14-14.077,13.062-26.851,21.72-37.971c2.392,0.555,4.807-1.73,7.188,0.059
	C323.683,385.708,323.926,385.942,324.168,386.178z"/>
<path style="fill:#142847;" d="M528.113,674.75c1.197,0.564,4.51,0.549,2.549,2.489c-9.202,9.107-17.032,20.06-30.221,24.217
	c-2.657,0.828-5.323,0.923-7.626-0.793c-7.962-5.934-15.928-11.876-22.971-18.923c-1.41-1.411-2.958-3.102-1.807-5.207
	c1.336-2.445,3.468-1.292,5.136-0.323c6.229,3.618,13.677,5.121,18.742,10.76c1.801,1.102,3.602,2.203,5.402,3.305
	c7.138,2.516,10.27-4.583,15.566-6.486C517.961,680.776,523.037,677.763,528.113,674.75z"/>
<path style="fill:#071F44;" d="M497.675,320.024c-0.379,1.759,4.663,3.986,0.584,4.786c-5.863,1.149-8.787,5.123-12.21,8.955
	c-6.001,4.135-12.004,8.271-18.006,12.406c-2.034,0.646-3.933,3.581-6.11,1.423c-2.26-2.24,0.194-4.086,1.638-5.775
	c0.876-1.024,1.343-2.249,1.869-3.453c6.487-11.189,13.661-21.94,21.003-32.573c2.181-3.158,4.298-6.961,9.291-6.093
	C498.833,306.242,495.497,313.396,497.675,320.024z"/>
<path style="fill:#1E2C44;" d="M512.467,277.565c13.64,0.135,27.281,0.25,40.921,0.431c1.895,0.025,4.708-0.807,5.304,1.433
	c0.782,2.94-2.672,3.142-4.343,4.484c-2.374,1.574-4.965,2.587-7.782,3.008c-8.494-0.645-15.883,3.894-23.983,5.128
	c-6.433,0.98-12.688,3.96-19.394,1.633c-0.998-0.492-1.739-1.246-2.226-2.247c-0.706-6.829,4.107-10.344,8.497-14.117
	C510.497,276.957,511.5,277.042,512.467,277.565z"/>
<path style="fill:#C89F50;" d="M328.931,442.014c1.768-6.973,3.535-13.946,5.853-23.089c-14.331,8.946-24.219,19.177-32.719,30.997
	c-2.011,2.796-2.495,6.962-6.594,8.077c-5.269-0.975-2.715,6.226-6.791,6.497c-0.354-0.267-0.707-0.534-1.061-0.802
	c0.537-9.461-0.294-19.025,2.143-28.342c3.063,0.979,1.001,5.459,4.292,6.283c0,2.301,0,4.602,0,8.535
	c13.013-13.22,23.837-26.884,37.888-37.128C338.188,419.912,336.84,432.878,328.931,442.014z"/>
<path style="fill:#C79F51;" d="M659.263,640.003c-2.001-0.411-3.059-1.697-3.39-3.656c1.002-1.999,2.005-3.999,3.008-5.998
	c2.59-0.861,4.744-5.742,7.955-0.861c9.098-5.441,18.03-11.188,27.339-16.241c10.335-5.609,19.322-12.822,27.627-21.007
	c-4.934,5.134,1.395,12.847-4.095,17.85c-1.204-1.32-2.333-2.778-4.45-2.414c-14.089,2.564-24.039,12.843-35.926,19.485
	C670.919,630.743,665.261,635.678,659.263,640.003z"/>
<path style="fill:#C9A153;" d="M491.915,686.97c-7.395-3.526-14.113-8.538-24.917-11.355c11.241,11.403,19.875,21.71,33.443,25.841
	c-0.275,0.35-0.549,0.703-0.822,1.056c-0.968,1.178-2.235,1.609-3.721,1.492c-0.717,0.027-1.433,0.054-2.15,0.081
	c-16.886-15.24-35.744-27.801-54.685-40.25c13.752,8.399,30.884,7.369,44.541,15.936
	C486.689,681.707,491.371,682.027,491.915,686.97z"/>
<path style="fill:#CCA863;" d="M659.798,477.631c-0.62-13.305-7.127-25.081-9.83-37.846c8.715,12.343,11.262,26.787,13.11,41.196
	c3.258,25.395,1.424,50.435-8.054,74.533c-1.315,3.344-2.146,7.047-5.323,9.368c4.009-14.551,10.075-28.527,11.363-43.838
	C662.289,506.49,662.989,492.023,659.798,477.631z"/>
<path style="fill:#3E4650;" d="M467.943,340.019c-0.709,1.022-1.402,2.057-2.132,3.063c-0.788,1.086-3.564,1.187-2.148,3.175
	c0.478,0.671,2.866-0.019,4.38-0.087c-2.126,2.983-4.429,5.682-9.826,5.493c3.487-10.789,6.289-21.332,10.331-31.377
	c3.291-8.178,4.226-14.95-4.387-20.113c5.938,0.731,9.424,4.329,11.382,9.718c4.186,8.209-2.539,14.229-4.373,21.206
	C470.375,334.119,467.07,336.315,467.943,340.019z"/>
<path style="fill:#C5A668;" d="M270.183,409.052c-3.18,16.582-4.613,33.223-1.721,50.013c-0.555,4.878-2.628,2.375-4.485,0.92
	c-3.726-3.562,1.381-11.254-6.106-13.056c-0.095-0.318-0.375-0.797-0.257-0.934C266.765,435.362,263.009,420.343,270.183,409.052z"
	/>
<path style="fill:#313B47;" d="M625.508,333.967c0.033,0.763,0.067,1.526,0.101,2.291c-16.479-7.618-32.786-15.821-51.773-14.968
	c0.315,3.42,5.914,2.928,5.804,6.927c-3.978-1.867-11.085-2.63-10.025-7.42c1.274-5.759,7.989-2.203,12.022-1.848
	C597.41,320.339,611.82,326.215,625.508,333.967z"/>
<path style="fill:#404B57;" d="M512.467,277.565c-1.016,0.15-2.031,0.299-3.047,0.449c-6.371-1.844-6.363-7.874-7.929-12.63
	c-1.843-5.596-1.45-11.726-3.451-17.35c0.669-2.529,1.339-5.058,2.009-7.586C506.027,252.206,509.224,264.893,512.467,277.565z"/>
<path style="fill:#C89F50;" d="M333.054,411.958c12.326-12.002,24.653-24.005,36.979-36.007
	C360.219,390.533,348.532,403.193,333.054,411.958z"/>
<path style="fill:#313B47;" d="M655.945,318.445c-0.502-1.461-1.004-2.922-1.504-4.384c16.176,5.336,25.599,17.877,33.818,31.701
	c-0.381,0.259-0.763,0.518-1.144,0.781c-3.819,0.033-5.82-2.722-7.907-5.256C672.259,332.849,664.17,325.579,655.945,318.445z"/>
<path style="fill:#736850;" d="M546.229,284.256c2.706-0.114,5.411-0.227,8.118-0.342c-6.926,6.567-14.026,12.888-23.211,16.23
	c0.003-1.584,2.862-2.371,1.232-4.412C533.124,287.24,541.015,287.365,546.229,284.256z"/>
<path style="fill:#C89F4E;" d="M410.537,336.564c-7.837,7.769-16.386,14.609-26.065,19.974c-0.343-0.396-0.687-0.792-1.03-1.189
	c5.502-10.808,14.012-17.675,26.067-19.898C409.85,335.824,410.193,336.195,410.537,336.564z"/>
<path style="fill:#485059;" d="M448.108,454.025c-1.431-2.838-6.087-5.617-0.158-8.593c1.607,5.286,4.205,6.853,9.095,3.018
	c2.5-1.961,5.044-4.301,8.579-4.473C461.187,449.773,455.678,453.694,448.108,454.025z"/>
<path style="fill:#2A3747;" d="M635.853,617.036c-3.177,10.383-11.727,14.838-20.738,18.795
	C622.024,629.568,628.938,623.302,635.853,617.036z"/>
<path style="fill:#C89F50;" d="M317.944,474.036c0.986-7.669,4.53-14.364,8.028-21.079
	C326.026,461.02,322.848,467.857,317.944,474.036z"/>
<path style="fill:#C59E51;" d="M291.432,634.528c-4.7-5.26-7.224-11.722-9.965-18.063c0.4-0.344,0.8-0.687,1.2-1.031
	c8.383,3.202,10.957,9.621,9.978,18.01C292.239,633.803,291.835,634.164,291.432,634.528z"/>
<path style="fill:#313B47;" d="M695.602,358.448c0.122,1.85,0.244,3.7,0.367,5.55c-7.953-3.255-9.452-9.768-8.771-17.38
	c0.355-0.284,0.709-0.569,1.061-0.856C692.193,349.13,693.452,354.047,695.602,358.448z"/>
<path style="fill:#1C2E46;" d="M602.652,651.958c0.239-1.175,0.479-2.35,0.739-3.545c3.449-3.642,6.877-7.264,10.304-10.885
	C613.292,644.849,606.809,647.513,602.652,651.958z"/>
<path style="fill:#C59E51;" d="M438.921,621.967c3.731-5.645,7.462-11.29,11.193-16.935
	C448.602,612.144,446.15,618.634,438.921,621.967z"/>
<path style="fill:#C9A153;" d="M512.884,683.789c-4.832,3.015-7.242,11.84-15.564,6.486
	C503.592,690.719,506.798,683.796,512.884,683.789z"/>
<path style="fill:#C9A153;" d="M564.906,661.949c-5.359,3.305-10.615,6.824-16.945,8.095
	C552.601,665.234,558.036,662.089,564.906,661.949z"/>
<path style="fill:#0D264A;" d="M423.306,860.419c1.25,12.126,2.283,22.144,3.436,33.329c-8.028-2.025-14.872-3.751-22.567-5.691
	C410.652,878.699,416.41,870.38,423.306,860.419z"/>
<path style="fill:#0C2549;" d="M797.562,244.048c-6.069-6.546-10.775-11.622-15.889-17.14c9.867-4.408,19.082-8.524,30.294-13.533
	C806.686,224.619,802.275,234.011,797.562,244.048z"/>
<path style="fill:#092347;" d="M282.337,799.341c-0.265,10.284-10.526,16.911-19.043,11.842
	c-7.048-4.194-13.155-9.982-19.614-15.145c-1.644-1.314-2.591-2.864-0.76-4.984c4.331-5.018,8.47-10.204,12.819-15.206
	c0.746-0.858,2.173-1.648,3.244-1.598c2.957,0.137,22.51,19.37,23.136,22.495C282.313,797.712,282.289,798.723,282.337,799.341z"/>
<path style="fill:#082146;" d="M719.098,199.572c-11.659-1.373-19.539-9.454-28.335-15.762c-2.663-1.91-0.184-4.186,1.094-5.959
	c9.882-13.7,19.942-27.274,29.655-41.092c2.52-3.584,4.481-4.17,7.681-1.156c1.672,1.574,3.72,2.754,5.62,4.081
	c9.144,6.382,18.91,12.967,15.657,26.111c-3.742,15.125-12.342,26.951-27.638,32.695
	C721.596,198.954,720.289,199.232,719.098,199.572z"/>
<path style="fill:#092247;" d="M575.988,878.653c-0.026-16.007,11.611-27.427,27.909-27.388
	c16.201,0.039,27.899,14.27,27.788,33.807c-0.09,15.887-11.897,27.334-28.125,27.269
	C586.991,912.274,576.021,898.871,575.988,878.653z"/>
<path style="fill:#082146;" d="M677.753,832.756c0.097-14.523,12.862-26.591,27.939-26.412
	c15.922,0.188,28.554,15.756,28.251,34.817c-0.24,15.124-13.173,27.195-28.758,26.84
	C689.17,867.637,677.619,852.796,677.753,832.756z"/>
<path style="fill:#A1A9AC;" d="M608.37,412.187c1.769,2.887,5.644,0.5,8.15,3.067c-6.02,2.512-12.219,2.67-16.5-0.679
	c-8.02-6.273-13.744-2.655-19.843,2.327c1.301,3.854,5.753,4.296,8.242,8.489c-13.629-8.534-21.968,1.857-31.427,7.627
	c-15.059,9.186-29.94,18.67-44.776,28.214c-4.268,2.745-7.343,4.424-9.108-2.454c-1.142-4.449-6.002-5.927-9.11-8.827
	c-1.102-6.251,4.385-7.71,7.916-9.93c22.061-13.874,43.975-27.977,65.864-42.106c6.01-3.602,12.963-6.015,16.358-12.941
	c0.618-0.69,1.38-1.138,2.279-1.351c3.184,10.728,6.678,21.246,17.927,26.523C606.484,409.248,607.645,410.287,608.37,412.187z"/>
<path style="fill:#A1A9AC;" d="M486.301,447.517c-13.71-3.036-14.743,8.115-18.344,16.392c-0.759-1.603-1.897-2.125-2.644-1.289
	c-2.983,3.34-6.7,5.956-9.44,9.541c-4.551-7.696-3.673-12.876,4.836-18.143c31.715-19.628,62.898-40.115,94.263-60.308
	c10.728-6.906,20.484-14.925,28.603-24.871c1.392-1.706,3.619-2.731,6.744-5.004c-1.489,7.546-2.696,13.666-3.904,19.787
	c-0.273,0.257-0.545,0.515-0.817,0.773c-3.92,6.159-11.339,8.474-15.634,14.228c-14.08,4.735-25.089,14.72-37.574,22.161
	c-12.53,7.467-24.644,15.657-36.938,23.534C492.605,446.142,489.871,447.928,486.301,447.517z"/>
<path style="fill:#A1A9AC;" d="M389.762,608.827c2.085,4.144-2.353,8.785,2.077,14.096c-14.718-4.253-23.243-13.609-29.852-24.943
	c-13.714-23.518-18.494-49.478-20.636-76.224c-0.597-7.458,0.63-13.527,8.802-20.783c-1.141,17.958-0.726,33.518,2.942,49.022
	c3.814,16.123,6.417,32.357,16.045,46.35l-0.121-0.536c2.254,4.375,0.378,11.18,7.823,12.806c0.927-3.353,1.853-6.701,2.778-10.049
	c3.095,1.365,4.302,4.561,4.455,7.133C384.369,610.644,388.409,606.959,389.762,608.827z"/>
<path style="fill:#F1EFF3;" d="M540.498,508.918c-5.936,1.391-7.257-0.717-5.425-5.655c2.576-6.94,6.097-12.382,14.721-12.421
	c8.971-0.041,17.951-0.535,26.905-1.156c4.027-0.279,5.747,1.22,7.21,4.948c2.959,7.543,2.373,11.173-7.196,11.316
	C564.446,506.133,552.203,507.889,540.498,508.918z"/>
<path style="fill:#F3ECDE;" d="M627.627,439.983c15.098,20.721,14.87,22.361-4.122,35.886c-3.782,2.693-7.425,5.603-11.349,8.066
	c-1.92,1.205-3.502,4.646-6.654,1.943c-3.312-2.841-0.884-5.383,0.514-7.877c6.001-10.707,12.062-21.382,18.111-32.062
	C625.103,444.213,626.134,442.518,627.627,439.983z"/>
<path style="fill:#A1A9AD;" d="M561.161,553.921c1.249,8.49,1.249,8.49,7.46,11.319c0.254-3.322-0.034-6.829,3.14-9.074
	c1.938,0.861,2.581,2.765,4.08,6.232c-0.366-6.838,3.182-11.695,0.156-16.853c0.148-6.464,3.878-11.571,7.21-17.071
	c-0.937,15.135-1.05,30.387-3.187,45.35c-0.948,6.639,1.007,8.217,6.211,9.169c3.368-1.483,6.52-2.254,8.018,2.431
	c-1.787,4.839-5.18,2.289-7.882,1.487c-8.911-2.647-15.934-8.207-21.612-15.358c-12.111-15.253-18.157-33.051-21.104-52.048
	c-0.315-2.03-1.878-4.936,1.834-5.559c3.272-0.55,3.207,2.371,4.209,4.402c2.519,5.109-2.545,11.196,2.232,15.905
	C558.842,539.007,561.376,545.818,561.161,553.921z"/>
<path style="fill:#F6F0E4;" d="M641.471,541.557c-8.437-7.065-16.625-13.699-24.504-20.683c-1.876-1.663-6.705-2.529-4.29-6.39
	c1.764-2.821,4.247-6.214,8.519-5.78c6.916,0.704,13.801,1.717,20.711,2.493c4.062,0.456,4.557,3.054,4.204,6.362
	C645.269,525.422,644.884,533.371,641.471,541.557z"/>
<path style="fill:#EFE5D2;" d="M641.699,471.98c3.113,9.003,4.092,17.463,4.537,25.997c0.079,1.522-0.371,4.297-1.037,4.447
	c-7.851,1.768-15.72-0.033-23.386-1.259c-4.156-0.664-2.268-6.938-4.745-10.088c-1.113-1.416,0.818-2.831,2.219-3.784
	C626.587,482.33,633.866,477.337,641.699,471.98z"/>
<path style="fill:#F5F3F6;" d="M486.301,447.517c24.787-16.167,49.624-32.259,74.3-48.593c3.212-2.126,6.114-1.616,9.317-1.141
	c0.015,0.457,0.029,0.914,0.044,1.37c-20.379,15.52-42.93,27.713-64.164,41.922c-4.087,2.735-8.988,4.433-11.8,8.876
	C490.999,450.509,488.441,449.674,486.301,447.517z"/>
<path style="fill:#E9DDC6;" d="M418.098,608.929c-1.969-14.918-3.935-29.837-5.911-44.755c-0.272-2.055-0.346-4.206,1.98-4.99
	c2.717-0.916,3.181,1.571,3.951,3.27c3.547,7.822,7.461,15.512,10.444,23.546C432.19,595.774,423.791,601.545,418.098,608.929z"/>
<path style="fill:#EEEDF1;" d="M470.601,494.73c14.751-2.733,12.011,9.536,12.375,15.303c0.578,9.149-8.824,4.698-13.402,5.338
	c-14.068,1.965-6.396-10.065-7.89-15.27C458.92,490.472,468.703,497.557,470.601,494.73z"/>
<path style="fill:#FDFCF9;" d="M599.545,533.63c6.686,13.259,13.543,26.435,19.99,39.809c3.496,7.252-4.05,6.776-7.24,8.805
	c-4.478,2.848-4.607-1.5-5.194-4.171c-3.195-14.552-6.289-29.125-9.418-43.692C598.305,534.131,598.925,533.881,599.545,533.63z"/>
<path style="fill:#E9DEC9;" d="M382.924,493.395c-7.294-10.564-14.883-20.941-21.779-31.759c-4.554-7.144,2.2-12.64,4.886-19.141
	c6.293,16.599,12.586,33.198,18.879,49.796C384.248,492.66,383.586,493.027,382.924,493.395z"/>
<path style="fill:#EDE4D2;" d="M407.538,486.334c2.306-16.177,4.612-32.354,6.967-48.876c11.127,12.344,11.78,16.719,4.738,30.411
	c-3.277,6.372-6.624,12.708-9.939,19.061C408.715,486.731,408.126,486.533,407.538,486.334z"/>
<path style="fill:#FBF8F1;" d="M403.685,566.756c2.062,15.469,4.051,30.949,6.23,46.402c0.651,4.618-1.977,5.793-5.627,6.385
	c-5.278,0.855-4.014-3.033-4.026-5.715c-0.071-15.518-0.035-31.036-0.035-46.554C401.38,567.101,402.532,566.929,403.685,566.756z"
	/>
<path style="fill:#FDFBF7;" d="M609.38,423.087c13.328,7.157,13.34,7.164,7.008,18.575c-4.943,8.906-9.921,17.793-16.548,26.138
	C602.947,453.237,606.054,438.675,609.38,423.087z"/>
<path style="fill:#F7EEDD;" d="M388.506,479.74c-4.597-15.841-9.223-31.673-13.778-47.526c-2.048-7.129,3.639-8.672,8.797-12.565
	c2.061,20.75,3.977,40.038,5.893,59.325C389.114,479.229,388.81,479.484,388.506,479.74z"/>
<path style="fill:#E4D6BA;" d="M357.047,471.367c5.905,7.55,11.684,14.722,17.165,22.114c1.242,1.674,5.137,3.261,1.707,6.274
	c-2.065,1.814-4.195,2.289-7.218,1.174C352.73,495.04,350.304,489.455,357.047,471.367z"/>
<path style="fill:#FCF9F4;" d="M578.109,484.316c-6.901-6.808-12.648-12.284-18.163-17.984c-4.008-4.142-2.542-16.129,2.189-19.268
	c3.41-2.263,4.567-0.124,5.454,2.82C570.899,460.881,574.293,471.853,578.109,484.316z"/>
<path style="fill:#E6D7B8;" d="M389.762,608.827c-1.777,2.79-3.019,5.406-6.88,1.49c-3.567-3.618-2.393-7.811-3.26-11.758
	c0.96-5.549,2.171-11.075,2.812-16.667c0.627-5.467,3.493-8.15,9.536-8.948C391.219,585.155,390.491,596.991,389.762,608.827z"/>
<path style="fill:#E1C795;" d="M613.926,542.005c-6.445-6.805-8.959-15.821-12.591-24.715
	c11.784,10.161,23.489,20.416,35.406,30.419c3.131,2.628,2.211,5.045,0.892,7.836c-2.387,5.052-4.66,10.177-9.776,15.058
	c-4.631-9.895-11.114-18.201-13.861-28.504c5.328-1.305,6.353,3.26,8.502,6.26c2.221,3.1,2.597,7.438,6.557,9.816
	c3.283-3.398,2.391-6.514-0.244-9.497c-3.064-3.467-7.223-5.712-10.41-9.038C613.966,535.014,616.154,542.631,613.926,542.005z"/>
<path style="fill:#E3D3B4;" d="M556.35,532.205c6.719-5.38,13.437-10.759,20.156-16.139c0.576,0.307,1.153,0.615,1.729,0.922
	c-4.176,10.786-8.353,21.571-12.529,32.357c-0.679,1.898-2.39,4.366-3.779,2.099C558.391,545.673,553.94,539.826,556.35,532.205z"/>
<path style="fill:#A48850;" d="M404.086,423.932c1.496,0.429,2.117,1.546,1.937,2.957c-2.5,19.59-5.04,39.174-9.61,58.661
	c-0.726-21.092-1.465-42.184-2.153-63.277c-0.052-1.584-0.074-3.918,2.199-3.541c3.155,0.523,6.558,1.313,7.615,5.193
	c-6.562,7.195-2.438,16.53-4.302,22.637C401.471,440.424,397.737,431.165,404.086,423.932z"/>
<path style="fill:#EEF0F1;" d="M620.087,397.206c0.134,6.837-2.673,9.557-8.592,8.627c-1.911-0.3-3.948-0.751-2.66-3.716
	c4.736-10.906-0.337-18.987-7.802-26.3c-1.285-1.259-4.138-1.947-2.39-4.372c1.605-2.228,3.731-0.348,5.205,0.607
	C613.306,378.177,618.233,387.208,620.087,397.206z"/>
<path style="fill:#A98B4F;" d="M594.249,585.424c-2.672-0.811-5.344-1.623-8.017-2.432c-0.001-16.961-0.001-33.923-0.001-51.526
	c5.708,1.241,5.101,4.387,5.549,6.579c2.734,13.371,5.224,26.792,7.885,40.178C600.57,582.78,600.579,586.421,594.249,585.424z"/>
<path style="fill:#FBF7EF;" d="M360.389,558.573c-0.867-2.2-1.491-3.325-1.758-4.53c-3.371-15.2-0.273-18.632,15.219-16.723
	c3.248,0.4,3.87,2.2,1.641,4.672C370.682,547.329,365.82,552.618,360.389,558.573z"/>
<path style="fill:#D8DADE;" d="M629.875,428.159c4.441-2.517,4.764,2.074,6.097,3.933c9.987,13.927,15.328,29.73,18.163,46.498
	c0.432,2.553,1.308,5.031,1.979,7.544c-0.027,1.573,0.719,4.006-1.177,4.295c-3.787,0.578-2.616-2.886-2.907-4.791
	C648.85,464.848,642.504,445.299,629.875,428.159z"/>
<path style="fill:#FBF7EF;" d="M434.512,574.514c-12.976-19.873-12.976-19.873,3.117-25.608
	C438.376,557.216,436.456,564.952,434.512,574.514z"/>
<path style="fill:#F3F2F0;" d="M552.642,470.651c4.958,5.306,9.536,10.206,13.941,14.92c-3.774,0.59-10.568,3.169-14.476-0.476
	C548.954,482.152,552.128,475.514,552.642,470.651z"/>
<path style="fill:#DFE1E6;" d="M590.939,483.227c4.085,2.509,7.211,5.999,12.142,4.799c0.737,4.08-3.742,2.548-4.294,5.44
	c1.314,0.551,2.677,1.38,4.149,1.687c3.16,0.66,6.069,1.563,5.195,5.615c-0.767,3.554-4.057,2.638-6.528,3.097
	c-3.855,0.717-5.567-0.809-5.423-4.762C596.392,493.308,593.52,488.546,590.939,483.227z"/>
<path style="fill:#E5E6EA;" d="M394.502,499.926c0.004-1.279-2.926-3.315-0.019-3.626c3.173-0.34,6.782,1.477,7.708,4.732
	c2.009,7.057,5.794,5.742,10.134,2.806c1.965-1.329,3.907-3.434,5.401,0.033c1.18,2.739-0.685,4.015-3.263,4.868
	c-4.294,1.42-8.463,3.218-12.684,4.857C394.734,511.498,395.767,505.1,394.502,499.926z"/>
<path style="fill:#F0EDE6;" d="M429.59,468.519c6.036,10.875-9.729,17.178-1.238,26.161c-4.044,1.9-7.593,1.598-12.648,1.16
	C420.297,486.804,424.589,478.36,429.59,468.519z"/>
<path style="fill:#F5E7CE;" d="M580.445,466.97c-1.941-7.032-3.811-14.085-5.857-21.087c-0.977-3.342-0.74-6.206,3.118-6.917
	c5.829-1.074,3.272,3.839,3.425,5.962c0.526,7.275,0.426,14.595,0.546,21.899c0.003,0.191-0.263,0.564-0.329,0.548
	C581.033,467.298,580.743,467.115,580.445,466.97z"/>
<path style="fill:#ECECEF;" d="M502.811,496.719c-1.279,5.373,7.3,11.103-0.269,15.432c-1.809,1.035-7.204,3.547-8.182-1.413
	C493.128,504.493,496.124,499.459,502.811,496.719z"/>
<path style="fill:#FBF8F2;" d="M575.997,545.545c1.201,0.573,3.744-3.741,3.729,0.809c-0.024,7.463-0.325,14.944-2.282,22.39
	c-6.816-2.371-5.18-7.932-5.681-12.579C573.173,552.626,574.585,549.085,575.997,545.545z"/>
<path style="fill:#BF9A53;" d="M570.397,511.92c-3.709,3.073-7.334,6.256-11.167,9.166c-1.645,1.249-3.25,4.123-5.77,2.146
	c-2.267-1.778-1.315-4.858-1.628-7.39c-0.373-3.019,1.29-3.901,4.037-4.105c4.549-0.338,9.075-0.986,13.611-1.504
	C569.786,510.795,570.092,511.358,570.397,511.92z"/>
<path style="fill:#ECECF0;" d="M366.602,521.887c-0.501,3.433-0.241,8.293-4.793,8.364c-5.115,0.08-5.433-4.981-5.43-8.849
	c0.003-3.87,0.364-9.136,5.332-8.948C366.656,512.64,366.243,517.934,366.602,521.887z"/>
<path style="fill:#D0A757;" d="M594.258,449.713c-0.247,7.995-2.098,15.683-5.767,23.325c0-12.578-0.013-25.156,0.011-37.733
	c0.005-2.384,1.476-3.536,3.673-3.948C595.974,437.123,589.962,444.003,594.258,449.713z"/>
<path style="fill:#E9E9ED;" d="M525.277,505.334c1.374,4.932-1.638,5.924-4.117,5.243c-7.437-2.044-3.771-9.264-5.774-13.918
	c-1.211-2.815,0.257-4.617,3.232-4.326C528.15,493.262,521.766,502.313,525.277,505.334z"/>
<path style="fill:#E3E4E9;" d="M367.341,507.003c4.981-1.811,8.48-0.041,10.607,4.435c1.545,3.252,3.07,6.762,1.076,10.314
	c-0.486,0.865-2.496,1.603-3.497,1.318c-3.747-1.067-4.274-4.524-5.169-7.741C369.576,512.521,368.382,509.829,367.341,507.003z"/>
<path style="fill:#D8DAE0;" d="M401.962,517.284c4.172,0.757,7.698-1.596,11.526-2.468c2.828-0.644,5.128-1.33,5.984,2.629
	c0.884,4.09-1.034,5.426-4.621,5.663c-4.302,0.285-8.601,0.612-12.902,0.92C400.328,521.778,400.023,519.529,401.962,517.284z"/>
<path style="fill:#DEC697;" d="M594.258,449.713c-1.392,0.079-3.672,4.989-3.999-0.361c-0.368-6.022-1.396-12.287,1.911-17.993
	c2.744-1.384,6.905-5.878,5.489,2.296C596.726,439.043,595.405,444.363,594.258,449.713z"/>
<path style="fill:#EEEFF2;" d="M397.841,523.909c-4.951,0.741-3.912-2.849-4.195-5.651c-0.694-6.887-2.212-13.422-9.917-18.145
	c3.581,0,5.834,0,8.086,0C399.293,506.572,401.353,514.705,397.841,523.909z"/>
<path style="fill:#E4E6EA;" d="M377.465,504.142c8.637,2.625,13.298,10.053,11.501,16.491c-0.473,1.696-1.291,3.097-3.338,2.89
	c-2.368-0.24-1.851-2.244-2.139-3.75c-0.493-2.583-0.713-5.273-1.616-7.707C380.978,509.654,379.379,507.503,377.465,504.142z"/>
<path style="fill:#EEEFF1;" d="M455.873,472.162c-1.235-7.845,5.561-9.554,10.192-12.093c2.751-1.508,1.363,2.397,1.892,3.84
	C463.713,466.343,462.897,473.798,455.873,472.162z"/>
<path style="fill:#C79F53;" d="M369.02,595.808c0,0,0.122,0.535,0.121,0.536c-2.867-11.118-2.867-11.118,5.155-14.236
	C374.161,592.969,374.161,592.969,369.02,595.808z"/>
<path style="fill:#3B4B66;" d="M397.841,523.909c1.376-8.789-0.222-16.825-6.026-23.796c0.896-0.062,1.791-0.125,2.687-0.187
	c5.103,3.131,3.881,9.63,7.277,13.67c0.061,1.23,0.122,2.459,0.183,3.689c-0.005,2.248-0.009,4.497-0.014,6.745
	C400.579,523.989,399.21,523.949,397.841,523.909z"/>
<path style="fill:#4C4F52;" d="M556.35,532.205c1.709,5.263,3.426,10.524,5.125,15.791c0.787,2.44,2.161,2.956,4.23,1.353
	c0.336,3.35-1.35,4.704-4.538,4.574c-4.799-5.753-5.632-13.365-9.242-19.67C553.401,533.57,554.875,532.888,556.35,532.205z"/>
<path style="fill:#A1A9B6;" d="M608.37,412.187c-1.343-0.681-2.686-1.361-4.029-2.042c0.279-1.262-1.028-4.435,1.239-3.354
	c4.355,2.077,8.957,0.296,13.294,1.822C616.447,413.576,612.125,412.011,608.37,412.187z"/>
<path style="fill:#C69D4D;" d="M352.969,511.045c-1.541-3.287-2.654-6.414,0.211-8.811c0.7-0.585,3.905,0.236,4.284,1.125
	C359.384,507.855,353.784,507.881,352.969,511.045z"/>
<path style="fill:#041E44;" d="M687.197,346.618c2.924,5.793,5.847,11.587,8.771,17.38c3.22,9.039,5.586,18.367,5.197,27.935
	c-0.374,9.219-2.028,18.387-3.371,29.697c-7.276-13.413-13.608-25.085-19.947-36.77c-11.774-20.676-14.798-44.223-21.904-66.419
	c12.166,2.183,17.336,13.026,25.208,20.489C683.493,341.149,685.2,344.036,687.197,346.618z"/>
<path style="fill:#061F44;" d="M715.392,503.986c7.863-11.294,9.701-25.051,15.227-37.305c1.63-3.615,2.884-7.399,4.364-11.246
	c16.246,37.111,4.731,74.8-34.122,110.321c1.715-17.787,9.22-33.453,11.354-50.265C708.414,510.314,710.871,506.865,715.392,503.986
	z"/>
<path style="fill:#051E44;" d="M660.789,419.923c39.38,25.954,52.841,58.488,43.497,103.046
	c-5.278-19.965-17.111-34.451-26.778-50.154C667.863,457.147,666.777,439.03,660.789,419.923z"/>
<path style="fill:#072044;" d="M691.636,579.394c-2.738,2.387-2.752,6.766-6.715,8.929c0.712-35.52-15.476-69.345-7.845-104.887
	c21.458,15.399,28.245,53.235,16.005,90.629C694.017,576.226,694.126,578.162,691.636,579.394z"/>
<path style="fill:#C79F51;" d="M666.837,629.487c-2.901-2.025-4.999,3.389-7.955,0.86c3.693-6.903,7.387-13.807,11.08-20.712
	c3.081-5.524,4.091-11.767,6.137-17.651c0.102-1.849,0.205-3.698,0.307-5.545c6.701-2.865,1.609-9.872,5.751-15.095
	c-0.233,11.367,0.697,21.58-0.982,31.803C676.534,612.022,668.261,618.891,666.837,629.487z"/>
<path style="fill:#E7D7B7;" d="M691.636,579.394c0.486-1.778,0.972-3.556,1.452-5.332c3.628-0.014,5.234-9.066,10.38-2.328
	c-2.271,3.262-4.538,6.523-6.797,9.773C693.943,583.325,691.881,583.539,691.636,579.394z"/>
<path style="fill:#F2DFBB;" d="M697.852,438.369c-2.456-7.61,2.044-14.223,3.609-21.34c0,8.126,0,16.251,0,24.818
	c-1.483-1.487-2.566-2.574-3.65-3.66C697.811,438.188,697.852,438.369,697.852,438.369z"/>
<path style="fill:#F6EBD4;" d="M715.392,503.986c-1.059,3.839-2.119,7.679-3.177,11.512c-1.134,1.442-2.269,2.889-4.356,5.551
	c0.37-6.293,0.316-11.164,1.038-15.917C709.533,500.951,710.359,500.934,715.392,503.986z"/>
<path style="fill:#F2E1C0;" d="M704.013,451.86c-0.174,2.719-0.348,5.437-0.604,9.448c-2.68-3.81-6.139-6.201-4.425-9.984
	c1.005-2.218,3.356,0.133,5.062,0.691C704.045,452.014,704.013,451.86,704.013,451.86z"/>
<path style="fill:#051E44;" d="M325.357,621.474c0.107,2.251-0.191,4.378-3.069,2.422c-19.775-13.44-40.997-25.275-55.285-45.245
	c-10.208-14.268-14.948-30.082-9.41-47.686c11.295,16.488,25.393,30.636,38.262,45.811c0.841,0.077,1.292,0.518,1.289,1.383
	c6.369,9.647,12.737,19.294,19.106,28.941C322.768,609.684,325.251,614.826,325.357,621.474z"/>
<path style="fill:#061F44;" d="M304.041,578.062c-2.982-11.212-6.864-22.274-8.76-33.667c-4.023-24.169,9.506-42.012,23.094-59.848
	c1.091,16.74,2.62,33.27-0.226,49.558c-3.469,19.852-8.642,39.459-4.023,61.131c-6.089-5.456-5.409-12.911-10.138-17.293
	L304.041,578.062z"/>
<path style="fill:#E4D4B4;" d="M325.357,621.474c-3.041-4.8-6.082-9.6-9.115-14.387c0.472-4.866,2.987-4.761,6.354-2.588
	c6.475,12.666,13.646,24.87,23.007,35.658c0.142,1.898-0.709,3.278-2.243,4.303c-4.06,0.057-6.899-1.498-7.651-5.803
	C330.191,634.174,331.456,625.606,325.357,621.474z"/>
<path style="fill:#F4E7CF;" d="M288.68,464.496c0.386-2.226,0.366-4.629,1.244-6.64c1.706-3.906,3.827-4.765,5.551,0.141
	c-0.464,1.186-0.923,2.37-1.382,3.551C291.2,460.53,293.465,468.978,288.68,464.496z"/>
<path style="fill:#F6EBD6;" d="M297.144,578.158c-0.646-0.266-1.076-0.729-1.29-1.387c0.763-1.831-0.675-5.267,2.45-5.27
	c3.76-0.004,2.55,5.41,5.737,6.56c0,0-0.053-0.119-0.053-0.119C301.95,585.79,299.346,575.568,297.144,578.158z"/>
<path style="fill:#E0CBA3;" d="M323.438,385.475c-2.391-1.271-4.85,8.616-7.193-0.051c1.917-4.317,3.83-8.625,5.741-12.928
	c1.901-0.923,1.782-4.424,5.429-3.765C328.045,374.74,320.534,379.046,323.438,385.475z"/>
<path style="fill:#EED5A5;" d="M294.054,441.635c-3.29,2.099-3.29,2.099-4.292-6.279c0.059-1.607,0.118-3.21,0.176-4.806
	c2.453-1.693,4.592-2.068,5.816,1.392C292.887,434.771,295.147,438.497,294.054,441.635z"/>
<path style="fill:#FAF4E8;" d="M554.05,694.9c0.906,3.235,0.368,6.08-2.262,8.355c-4.808,5.02-10.637,1.532-16.569,0.867
	C541.496,701.047,547.773,697.973,554.05,694.9z"/>
<path style="fill:#F5E9D1;" d="M495.898,704.004c0.833-1.513,2.29-1.472,3.722-1.492c2.193,1.242,5.746,2.234,3.644,5.511
	c-1.862,2.903-4.693-0.174-7.111-0.372C496.068,706.435,495.983,705.219,495.898,704.004z"/>
<path style="fill:#2C3948;" d="M676.099,591.985c-0.428,6.445-1.875,12.536-6.136,17.65
	C670.87,603.357,672.438,597.307,676.099,591.985z"/>
<path style="fill:#041E44;" d="M409.509,335.452c-8.689,6.633-17.378,13.265-26.067,19.898
	c-16.439,11.305-36.49,13.292-54.21,20.678c7.036-27.267,56.786-56.419,96.252-55.418C419.79,325.9,414.649,330.676,409.509,335.452
	z"/>
<path style="fill:#051E44;" d="M378.082,664.705c0.069-5.306-4.55-7.794-7.08-11.484c-8.439-12.306-15.595-25.012-16.289-42.582
	c12.664,14.807,24.658,27.5,38.696,38.037c15.846,13.711,28.859,30.006,42.861,46.931c-16.538-3.232-29.842-11.981-44.358-17.583
	c-0.45-0.034-0.899-0.067-1.351-0.094c-5.068-2.335-8.217-6.845-12.029-10.614C378.071,666.5,377.938,665.625,378.082,664.705z"/>
<path style="fill:#FAF4EA;" d="M378.082,664.705c0.276,0.493,0.638,0.913,1.086,1.26c4.286,4.028,7.797,8.879,12.845,12.098
	c0,0-0.101-0.039-0.101-0.039c1.016,3.27-0.28,4.157-3.332,3.235c-8.276,0.459-9.713-8.482-15.58-11.333
	c-2.217,0.116-3.117-1.081-3.139-3.152C370.652,658.34,374.325,661.355,378.082,664.705z"/>
<path style="fill:#FBF7EF;" d="M447.917,697.995c1.103,4.051,6.132,3.281,8.543,7.507c-5.194-0.059-9.945,3.106-14.241-1.342
	c-1.134-1.174-2.029-2.92-0.845-5.263c2.051-4.057,4.606,0.528,6.628-0.838C448.002,698.059,447.917,697.995,447.917,697.995z"/>
<path style="fill:#051E44;" d="M369.86,666.774c1.051,1.052,2.103,2.103,3.147,3.153c0.752,2.671-0.966,2.719-2.699,2.357
	c-29.299-6.117-57.869-13.71-77.662-38.841c-3.326-6.003-6.652-12.007-9.978-18.01c-2.312-5.005-4.625-10.011-8.089-17.507
	c22.911,13.102,41.611,27.543,61.13,40.729c2.551,1.936,5.102,3.87,7.652,5.804C352.193,651.897,361.027,659.335,369.86,666.774z"/>
<path style="fill:#FBF8F1;" d="M347.977,602.154c1.364-2.164-1.59-6.358,1.772-6.81c3.975-0.534,4.058,4.293,5.674,6.865
	c1.278,2.035,0.526,3.615-1.807,4.569c-5.006,2.047-2.78-4.371-5.668-4.738C347.948,602.041,347.977,602.154,347.977,602.154z"/>
<path style="fill:#A2AAAD;" d="M498.04,248.033c5.953,9.174,6.066,20.565,11.381,29.981c1.227,6.33-5.408,7.664-7.537,11.862
	c-0.928,1.47-1.671,3.29-3.997,2.099C497.938,277.328,497.989,262.681,498.04,248.033z"/>
<path style="fill:#A1A9AD;" d="M489.991,292.194c-13.107-2.838-26.214-5.677-39.321-8.515c0.103-0.828-0.756-2.238,0.843-2.251
	c11.481-0.093,23.015-1.924,34.414,0.946c2.63,2.571,5.259,5.142,7.889,7.713C494.071,293.568,492.206,293.199,489.991,292.194z"/>
<path style="fill:#404B57;" d="M489.991,292.194c1.421-0.437,3.384,0.11,3.824-2.107c1.358,0.63,2.715,1.26,4.073,1.889
	c1.332-0.7,2.665-1.4,3.997-2.1c0.056,0.908,0.113,1.815,0.17,2.722c0.728,2.034-1.183,2.48-2.115,3.515
	c0,0,0.037-0.245,0.035-0.245c-4.092,7.736-0.424,16.21-2.299,24.156c-4.067-6.166,1.46-14.09-3.677-20.06
	c-0.953-1.333-0.277-2.658,0.018-3.986C492.674,294.717,491.332,293.456,489.991,292.194z"/>
<path style="fill:#293E61;" d="M485.926,282.375c-11.763,0.164-23.621-2.265-35.257,1.305c-2.746,0.558-4.245-0.864-5.145-3.239
	C458.996,280.939,472.661,277.481,485.926,282.375z"/>
<path style="fill:#A0A8AB;" d="M499.939,296.113c0.705-1.172,1.41-2.344,2.115-3.515c14.94-1.636,28.939-8.247,44.172-8.345
	c-4.621,3.83-9.245,7.657-13.863,11.481c-9.062,9.493-18.543,11.289-28.786,1.7C502.711,296.624,501.168,296.537,499.939,296.113z"
	/>
<path style="fill:#9FA7AB;" d="M494.016,295.979c1.68,1.336-0.34,2.656-0.018,3.986c-8.685,13.351-17.369,26.702-26.055,40.053
	c-0.737-10.867,6.156-19.81,7.6-30.127C479.047,301.731,487.975,300.771,494.016,295.979z"/>
<path style="fill:#908881;" d="M419.634,877.878c-0.257,2.962,2.326,6.171-1.729,7.799c-0.662,0.266-2.43-0.407-2.564-0.933
	C414.456,881.266,416.796,879.606,419.634,877.878z"/>
<path style="fill:#C3AF97;" d="M258.608,782.365c2.625,0.098,17.193,14.221,17.502,16.277c0.379,2.53-0.582,4.508-2.431,6.157
	c-2.558,2.282-5.562,2.636-8.21,0.762c-4.838-3.425-9.348-7.311-14.044-10.94c-1.703-1.316-1.626-2.618-0.311-4.065
	C253.708,787.7,256.321,784.863,258.608,782.365z"/>
<path style="fill:#C5B198;" d="M744.811,163.555c0.109,8.927-12.279,25.633-22.61,28.887c-4.963,1.564-22.372-6.228-24.255-10.853
	c-0.977-2.4,1.212-3.54,2.214-4.962c7.248-10.292,14.795-20.376,21.969-30.719c2.972-4.285,5.522-4.701,9.492-1.208
	C737.209,149.618,744.97,152.713,744.811,163.555z"/>
<path style="fill:#C6B198;" d="M603.398,857.412c12.96-0.125,21.816,10.511,22.228,26.696c0.329,12.93-8.632,22.115-21.615,22.153
	c-13.667,0.04-21.977-10.41-21.981-27.645C582.026,866.003,590.559,857.536,603.398,857.412z"/>
<path style="fill:#C6B198;" d="M727.865,840.424c0.093,11.838-9.233,21.202-21.439,21.527c-13.242,0.353-22.486-11.28-22.586-28.425
	c-0.069-11.841,9.433-21.137,21.589-21.122C717.954,812.42,727.742,824.644,727.865,840.424z"/>
<path style="fill:#F3F1F4;" d="M569.962,399.154c0.002-0.456-0.012-0.912-0.044-1.369c1.359-8.992,9.267-10.314,15.678-13.389
	C585.819,395.071,576.37,395.501,569.962,399.154z"/>
<path style="fill:#FDFCFA;" d="M613.926,542.005c1.18-4.139-3.385-6.942-3.034-12.742c8.299,7.156,16.052,12.815,22.495,19.698
	c5.882,6.285-1.942,10.382-4.03,16.19c-7.23-6.939-7.905-17.313-15.361-23.052C613.995,542.1,613.926,542.005,613.926,542.005z"/>
<path style="fill:#FCF8F2;" d="M404.086,423.932c-1.392,10.421-2.783,20.843-4.175,31.264c-0.953-0.002-1.906-0.003-2.859-0.005
	c0-9.828-0.221-19.664,0.072-29.483c0.224-7.518,4.833-0.305,6.949-1.784C404.074,423.924,404.086,423.932,404.086,423.932z"/>
<path style="fill:#FCF8F2;" d="M591.911,552.492c1.523,7.71,3.158,15.401,4.495,23.144c0.372,2.153,3.075,5.842-1.575,6.168
	c-3.431,0.241-6.384-1.756-6.094-6.179c0.5-7.614,0.912-15.234,1.362-22.852C590.703,552.679,591.307,552.586,591.911,552.492z"/>
<path style="fill:#C59E51;" d="M392.013,678.063c-6.53-1.642-9.505-7.057-12.84-12.096
	C385.142,668.2,388.312,673.413,392.013,678.063z"/>
</svg>
