<?xml version="1.0" encoding="utf-8"?>
<!-- Generator: Adobe Illustrator 24.1.0, SVG Export Plug-In . SVG Version: 6.00 Build 0)  -->
<svg version="1.1" id="Layer_1" xmlns="http://www.w3.org/2000/svg" xmlns:xlink="http://www.w3.org/1999/xlink" x="0px" y="0px"
	 viewBox="0 0 200 200" style="enable-background:new 0 0 200 200;" xml:space="preserve">
<path style="fill:#FEFEFE;" d="M99.773,199.928C44.668,200.067-0.444,155.031-0.227,99.5C-0.013,44.795,44.688-0.418,100.527-0.051
	c54.533,0.358,99.551,44.939,99.243,100.631C199.468,155.292,154.858,200.034,99.773,199.928z"/>
<path style="fill:#080E28;" d="M99.707,4.19c52.711-0.075,95.87,42.744,95.826,95.808c-0.044,52.991-42.881,95.643-95.694,95.715
	c-52.004,0.071-95.759-41.975-95.843-95.627C3.915,47.428,46.724,4.105,99.707,4.19z"/>
<path style="fill:#FEFEFE;" d="M32.688,99.943c0.138-37.336,30.403-67.163,67.249-67.08c37.179,0.083,66.946,30.435,66.867,67.267
	c-0.078,36.695-29.909,66.874-67.105,66.865C62.087,166.985,32.63,136.186,32.688,99.943z"/>
<path style="fill:#FEFEFE;" d="M177.37,107.257c0.549-1.663,1.098-3.327,1.648-4.99c0.193-0.583,0.326-0.483-0.274-0.913
	c-1.256-0.9-2.518-1.794-3.776-2.69c-0.148-0.105-0.329-0.179-0.402-0.37c0.144-0.175,0.321-0.107,0.472-0.108
	c1.475-0.008,2.95-0.012,4.425-0.008c0.912,0.002,0.908,0.008,1.169-0.825c0.49-1.562,0.986-3.121,1.49-4.713
	c0.263,0.169,0.267,0.451,0.343,0.676c0.488,1.44,0.957,2.886,1.432,4.329c0.177,0.537,0.177,0.536,0.707,0.532
	c1.689-0.01,3.378-0.019,5.067-0.028c0.068,0,0.139-0.001,0.193,0.116c-0.068,0.218-0.298,0.31-0.481,0.441
	c-1.276,0.914-2.545,1.836-3.837,2.727c-0.319,0.22-0.35,0.397-0.224,0.753c0.593,1.675,1.146,3.364,1.742,5.133
	c-0.328-0.074-0.504-0.252-0.699-0.395c-1.286-0.94-2.577-1.874-3.854-2.826c-0.254-0.189-0.41-0.187-0.672,0.01
	c-1.443,1.083-2.907,2.137-4.363,3.2C177.441,107.291,177.406,107.274,177.37,107.257z"/>
<path style="fill:#FEFEFE;" d="M25.837,98.227c-1.009,0.722-1.895,1.356-2.781,1.991c-0.58,0.416-1.151,0.845-1.743,1.242
	c-0.287,0.193-0.332,0.368-0.213,0.703c0.563,1.587,1.088,3.187,1.627,4.782c0.037,0.109,0.109,0.216-0.005,0.377
	c-0.585-0.433-1.167-0.871-1.756-1.3c-0.885-0.644-1.783-1.269-2.656-1.927c-0.267-0.202-0.427-0.153-0.673,0.032
	c-1.405,1.059-2.826,2.097-4.243,3.14c-0.032,0.024-0.086,0.017-0.195,0.037c0.265-0.836,0.515-1.645,0.777-2.45
	c0.302-0.924,0.597-1.852,0.931-2.764c0.116-0.315,0.036-0.459-0.22-0.639c-1.304-0.916-2.595-1.851-3.887-2.783
	c-0.146-0.105-0.352-0.155-0.397-0.375c0.102-0.209,0.292-0.113,0.438-0.113c1.618-0.004,3.237-0.009,4.855,0.015
	c0.344,0.005,0.504-0.084,0.607-0.424c0.497-1.634,1.021-3.259,1.534-4.888c0.027-0.084,0.007-0.192,0.174-0.246
	c0.402,0.866,0.631,1.797,0.933,2.702c0.27,0.81,0.532,1.624,0.772,2.443c0.098,0.334,0.265,0.414,0.609,0.407
	c1.713-0.035,3.427-0.034,5.14-0.044C25.528,98.146,25.593,98.173,25.837,98.227z"/>
<path style="fill:#FFFFFE;" d="M136.806,21.099c0.428-0.645,0.591-1.333,1.038-1.846c1.067,0.537,2.099,1.07,3.144,1.578
	c0.437,0.213,0.679,0.516,0.818,0.996c0.31,1.069,0.684,2.12,1.056,3.17c0.093,0.263,0.119,0.461-0.017,0.731
	c-1.321,2.604-2.63,5.213-3.918,7.834c-0.257,0.524-0.586,0.837-1.168,1.002c-1.093,0.311-2.158,0.719-3.23,1.1
	c-0.213,0.076-0.401,0.108-0.613,0.004c-1.166-0.572-2.335-1.137-3.529-1.717c0.267-0.513,0.54-0.983,0.758-1.477
	c0.135-0.305,0.294-0.32,0.553-0.189c0.783,0.397,1.58,0.768,2.35,1.19c0.284,0.156,0.502,0.153,0.792,0.037
	c0.616-0.246,1.248-0.451,1.881-0.653c0.221-0.071,0.358-0.185,0.462-0.395c1.152-2.319,2.311-4.634,3.476-6.946
	c0.126-0.25,0.16-0.469,0.056-0.742c-0.203-0.531-0.384-1.074-0.536-1.622c-0.106-0.38-0.327-0.589-0.681-0.75
	C138.615,22.003,137.751,21.561,136.806,21.099z"/>
<path style="fill:#FFFFFE;" d="M125.913,185.752c-0.712,0.222-1.39,0.429-2.064,0.647c-0.172,0.056-0.322,0.055-0.473-0.048
	c-0.87-0.588-1.832-1.003-2.762-1.479c-0.3-0.153-0.393-0.39-0.474-0.663c-0.914-3.051-1.79-6.113-2.76-9.146
	c-0.271-0.848-0.248-1.524,0.265-2.246c0.369-0.52,0.645-1.109,0.935-1.681c0.14-0.277,0.32-0.439,0.625-0.519
	c0.526-0.138,1.047-0.303,1.558-0.49c0.304-0.111,0.427-0.032,0.503,0.27c0.104,0.414,0.245,0.819,0.378,1.225
	c0.088,0.268,0.067,0.5-0.268,0.496c-1.268-0.015-1.573,0.997-2.029,1.858c-0.089,0.168-0.044,0.31,0.006,0.475
	c0.81,2.657,1.625,5.313,2.41,7.977c0.177,0.599,0.356,1.138,1.059,1.275c0.067,0.013,0.139,0.05,0.189,0.096
	c0.528,0.486,1.099,0.427,1.72,0.191c0.557-0.211,0.567-0.181,0.737,0.359C125.61,184.802,125.754,185.253,125.913,185.752z"/>
<path style="fill:#FFFFFE;" d="M110.417,188.761c-0.756,0.094-1.437,0.179-2.118,0.264c-0.198,0.025-0.353-0.029-0.519-0.162
	c-0.78-0.623-1.572-1.23-2.368-1.832c-0.243-0.184-0.364-0.395-0.401-0.709c-0.391-3.331-0.792-6.66-1.208-9.987
	c-0.063-0.506,0.027-0.906,0.377-1.301c0.535-0.604,1.014-1.26,1.503-1.904c0.186-0.245,0.395-0.367,0.712-0.388
	c0.544-0.037,1.086-0.121,1.626-0.206c0.223-0.035,0.372-0.022,0.408,0.239c0.068,0.494,0.146,0.987,0.216,1.482
	c0.033,0.235-0.067,0.388-0.313,0.341c-1.071-0.206-1.655,0.452-2.202,1.202c-0.188,0.258-0.276,0.49-0.231,0.843
	c0.37,2.874,0.705,5.753,1.037,8.632c0.032,0.281,0.106,0.491,0.351,0.651c0.278,0.181,0.57,0.363,0.793,0.603
	c0.379,0.407,0.819,0.426,1.307,0.324c0.139-0.029,0.28-0.051,0.42-0.077c0.228-0.042,0.364,0.036,0.393,0.28
	C110.266,187.595,110.337,188.135,110.417,188.761z"/>
<path style="fill:#FFFFFE;" d="M126.189,183.499c1.164-0.005,1.581-0.836,2.012-1.673c0.141-0.274,0.187-0.495,0.094-0.801
	c-0.843-2.773-1.674-5.55-2.483-8.333c-0.096-0.331-0.24-0.548-0.538-0.692c-0.213-0.104-0.416-0.229-0.622-0.346
	c-0.448-0.253-0.864-0.374-1.396-0.108c-0.544,0.272-0.58,0.203-0.765-0.383c-0.093-0.295-0.182-0.591-0.269-0.887
	c-0.146-0.496-0.145-0.499,0.373-0.659c0.52-0.161,1.045-0.448,1.563-0.439c0.525,0.009,0.978,0.448,1.464,0.694
	c0.19,0.096,0.365,0.238,0.566,0.298c1.052,0.315,1.368,1.131,1.631,2.102c0.645,2.381,1.391,4.736,2.1,7.1
	c0.191,0.636,0.384,1.272,0.598,1.901c0.077,0.225,0.046,0.393-0.068,0.598c-0.484,0.871-0.953,1.751-1.414,2.635
	c-0.141,0.271-0.325,0.444-0.63,0.517c-0.415,0.1-0.826,0.223-1.228,0.364c-0.275,0.096-0.437,0.091-0.517-0.245
	C126.534,184.616,126.364,184.1,126.189,183.499z"/>
<path style="fill:#FFFFFE;" d="M111.319,172.143c0.199-0.021,0.354,0.023,0.521,0.161c0.696,0.575,1.392,1.155,2.127,1.677
	c0.331,0.235,0.452,0.506,0.494,0.877c0.197,1.747,0.405,3.493,0.612,5.239c0.194,1.628,0.379,3.257,0.598,4.881
	c0.045,0.337-0.003,0.581-0.219,0.846c-0.586,0.717-1.157,1.448-1.703,2.196c-0.203,0.278-0.426,0.413-0.762,0.437
	c-0.425,0.03-0.849,0.098-1.272,0.159c-0.297,0.043-0.438-0.063-0.459-0.375c-0.029-0.427-0.082-0.852-0.144-1.276
	c-0.035-0.243,0.041-0.375,0.29-0.362c0.812,0.043,1.308-0.415,1.706-1.047c0.113-0.18,0.272-0.333,0.383-0.514
	c0.097-0.158,0.156-0.318,0.115-0.534c-0.306-1.61-0.446-3.244-0.652-4.868c-0.167-1.321-0.305-2.646-0.468-3.967
	c-0.056-0.457-1.404-1.501-1.855-1.445c-0.344,0.043-0.743,0.289-1.014,0.036c-0.225-0.21-0.068-0.637-0.155-0.957
	c-0.012-0.046-0.022-0.093-0.029-0.14c-0.119-0.768-0.119-0.766,0.687-0.866C110.519,172.253,110.919,172.197,111.319,172.143z"/>
<path style="fill:#FFFFFE;" d="M57.208,172.046c0.298-0.472,0.572-0.886,0.824-1.314c0.14-0.239,0.265-0.261,0.507-0.114
	c0.811,0.494,1.646,0.948,2.457,1.441c0.406,0.246,0.769,0.283,1.262,0.195c0.841-0.151,1.342-0.57,1.704-1.306
	c0.324-0.659,0.733-1.277,1.106-1.912c0.06-0.102,0.157-0.2,0.125-0.323c-0.146-0.549-0.289-1.1-0.464-1.64
	c-0.069-0.212-0.304-0.285-0.491-0.391c-0.827-0.468-1.655-0.933-2.474-1.415c-0.44-0.259-0.431-0.273-0.18-0.699
	c0.205-0.348,0.426-0.688,0.609-1.048c0.116-0.227,0.259-0.265,0.456-0.15c1.19,0.695,2.374,1.4,3.567,2.09
	c0.262,0.151,0.326,0.396,0.392,0.646c0.245,0.916,0.468,1.838,0.732,2.747c0.065,0.224-0.012,0.362-0.107,0.524
	c-0.729,1.251-1.462,2.5-2.183,3.756c-0.135,0.236-0.271,0.415-0.561,0.489c-0.964,0.247-1.939,0.453-2.881,0.784
	c-0.174,0.061-0.32,0.023-0.473-0.067C59.847,173.583,58.555,172.832,57.208,172.046z"/>
<path style="fill:#FFFFFE;" d="M147.359,44.938c-0.553-0.399-1.066-0.771-1.58-1.141c-0.181-0.13-0.118-0.27-0.049-0.437
	c0.453-1.098,0.901-2.198,1.341-3.301c1.539-3.862,3.073-7.727,4.609-11.59c0.061-0.153,0.127-0.303,0.207-0.492
	c0.666,0.279,1.141,0.789,1.697,1.177c0.145,0.101,0.09,0.234,0.031,0.378c-1.817,4.464-3.629,8.929-5.442,13.395
	C147.905,43.583,147.641,44.24,147.359,44.938z"/>
<path style="fill:#FFFFFE;" d="M88.888,189.168c-0.551-0.081-1.11-0.182-1.674-0.237c-0.253-0.025-0.322-0.15-0.343-0.356
	c-0.064-0.614-0.155-1.228-0.183-1.844c-0.119-2.54-0.45-5.062-0.629-7.597c-0.165-2.343-0.434-4.678-0.661-7.055
	c0.683-0.133,1.316,0.162,1.969,0.168c0.215,0.002,0.224,0.226,0.24,0.384c0.049,0.472,0.078,0.947,0.117,1.42
	c0.169,2.035,0.307,4.074,0.517,6.104c0.203,1.961,0.318,3.929,0.503,5.892c0.084,0.898,0.146,1.798,0.216,2.697
	C88.971,188.884,89.008,189.03,88.888,189.168z"/>
<path style="fill:#FFFFFF;" d="M22.642,54.706c0.337-0.452,0.664-0.885,0.985-1.323c0.167-0.227,0.329-0.251,0.602-0.127
	c2.069,0.94,4.149,1.857,6.225,2.782c2.765,1.232,5.529,2.466,8.294,3.698c0.43,0.192,0.447,0.214,0.186,0.593
	c-0.269,0.391-0.577,0.756-0.83,1.156c-0.174,0.275-0.353,0.243-0.595,0.13c-1.889-0.885-3.778-1.77-5.672-2.646
	c-2.97-1.375-5.915-2.802-8.916-4.108C22.836,54.825,22.759,54.772,22.642,54.706z"/>
<path style="fill:#FFFFFE;" d="M90.989,24.855c0.105,0.636,0.068,1.569,0.189,2.489c0.041,0.311-0.041,0.45-0.356,0.452
	c-0.238,0.001-0.476,0.03-0.713,0.023c-0.325-0.01-0.738,0.241-0.944-0.007c-0.179-0.216-0.135-0.629-0.16-0.957
	c-0.124-1.635-0.231-3.271-0.359-4.906c-0.172-2.203-0.361-4.405-0.537-6.607c-0.089-1.113-0.155-2.228-0.255-3.34
	c-0.034-0.374,0.083-0.507,0.459-0.505c0.378,0.002,0.757-0.069,1.136-0.095c0.459-0.032,0.466-0.019,0.506,0.441
	c0.079,0.9,0.167,1.799,0.238,2.7C90.454,17.885,90.709,21.228,90.989,24.855z"/>
<path style="fill:#FFFFFE;" d="M127.714,32.649c2.205-4.388,4.368-8.692,6.53-12.995c0.245-0.487,0.491-0.974,0.723-1.467
	c0.106-0.226,0.231-0.258,0.446-0.14c0.395,0.217,0.8,0.414,1.202,0.618c0.239,0.122,0.349,0.229,0.189,0.545
	c-2.218,4.373-4.418,8.755-6.62,13.136c-0.149,0.296-0.294,0.595-0.41,0.904c-0.093,0.246-0.217,0.264-0.433,0.159
	C128.812,33.151,128.275,32.909,127.714,32.649z"/>
<path style="fill:#FFFFFE;" d="M103.891,10.96c0.427,0.102,0.855,0.109,1.282,0.133c0.634,0.035,0.647,0.035,0.603,0.698
	c-0.042,0.64-0.115,1.278-0.176,1.917c-0.225,2.363-0.441,4.728-0.678,7.09c-0.206,2.055-0.428,4.108-0.572,6.169
	c-0.035,0.506-0.094,0.537-0.633,0.477c-0.26-0.029-0.519-0.063-0.78-0.079c-0.752-0.048-0.759-0.046-0.683-0.825
	c0.351-3.572,0.707-7.144,1.06-10.715c0.145-1.467,0.285-2.934,0.434-4.4C103.763,11.288,103.742,11.136,103.891,10.96z"/>
<path style="fill:#FFFFFE;" d="M51.497,175.951c0.402-0.684,0.785-1.335,1.166-1.988c2.289-3.917,4.577-7.835,6.865-11.752
	c0.277-0.474,0.277-0.474,0.739-0.198c0.367,0.219,0.732,0.442,1.099,0.661c0.178,0.106,0.191,0.208,0.078,0.4
	c-1.244,2.103-2.479,4.211-3.709,6.322c-1.409,2.419-2.815,4.839-4.207,7.268c-0.148,0.258-0.265,0.273-0.496,0.138
	C52.543,176.517,52.042,176.252,51.497,175.951z"/>
<path style="fill:#FFFFFE;" d="M50.36,46.71c-0.4,0.335-0.802,0.667-1.198,1.006c-0.333,0.285-0.333,0.293-0.644-0.068
	C47.185,46.1,45.854,44.548,44.52,43c-2.125-2.466-4.252-4.93-6.401-7.421c0.503-0.443,1.01-0.89,1.517-1.337
	C40.059,34.647,49.943,46.139,50.36,46.71z"/>
<path style="fill:#FEFFFE;" d="M44.656,52.693c-0.392,0.351-0.624,0.71-0.854,1.068c-0.179,0.278-0.318,0.358-0.681,0.204
	c-4.499-1.896-9.01-3.763-13.519-5.633c-0.544-0.225-1.098-0.425-1.703-0.657c0.279-0.563,0.698-0.977,1.046-1.44
	c0.098-0.13,0.2-0.13,0.364-0.061c1.918,0.809,3.843,1.6,5.764,2.402c2.683,1.12,5.365,2.241,8.042,3.373
	C43.611,52.16,44.123,52.345,44.656,52.693z"/>
<path style="fill:#FEFEFE;" d="M84.593,173.167c0.084,0.991,0.172,1.981,0.249,2.972c0.009,0.114-0.013,0.242-0.06,0.346
	c-0.832,1.863-1.67,3.724-2.509,5.584c-0.028,0.063-0.075,0.118-0.153,0.24c0.605,0.214,1.232,0.134,1.811,0.293
	c0.159,0.044,0.329,0.049,0.492,0.081c1.078,0.214,1.078,0.215,1.125,1.327c0.004,0.091,0.001,0.183,0.001,0.333
	c-0.667,0.029-1.284-0.145-1.907-0.232c-0.612-0.085-1.219-0.204-1.825-0.322c-0.251-0.049-0.362,0.01-0.468,0.272
	c-0.443,1.101-0.933,2.183-1.388,3.279c-0.074,0.178-0.142,0.307-0.343,0.272c-0.555-0.097-1.127-0.113-1.721-0.331
	c2.245-4.725,4.387-9.458,6.547-14.181C84.495,173.122,84.544,173.144,84.593,173.167z"/>
<path style="fill:#FEFFFE;" d="M144.374,35.696c0.732,0.652,1.534,1.124,2.273,1.68c0.304,0.228,0.402,0.425,0.227,0.77
	c-0.148,0.292-0.256,0.606-0.407,0.973c-0.675-0.491-1.322-0.96-1.966-1.432c-0.345-0.252-0.703-0.491-1.027-0.768
	c-0.251-0.214-0.417-0.187-0.663,0.023c-0.867,0.741-1.77,1.441-2.633,2.186c-0.249,0.215-0.391,0.245-0.648,0.025
	c-0.372-0.319-0.791-0.585-1.222-0.896c4.116-3.281,8.178-6.518,12.242-9.757c0.174,0.192,0.012,0.33-0.039,0.462
	c-0.25,0.641-0.54,1.267-0.772,1.914c-0.176,0.493-0.485,0.857-0.881,1.178C147.38,33.246,145.91,34.447,144.374,35.696z"/>
<path style="fill:#FFFFFE;" d="M115.939,29.087c-0.042-0.006-0.066-0.007-0.089-0.013c-0.434-0.115-1.003-0.102-1.268-0.38
	c-0.315-0.329,0.087-0.832,0.204-1.246c1.292-4.595,2.6-9.185,3.907-13.776c0.229-0.804,0.236-0.801,1.023-0.573
	c0.945,0.275,0.951,0.276,0.696,1.18c-1.317,4.659-2.637,9.318-3.956,13.976c-0.052,0.183-0.101,0.366-0.144,0.551
	C116.262,29.019,116.172,29.163,115.939,29.087z"/>
<path style="fill:#FEFFFE;" d="M124.587,31.554c-0.519-0.138-1.005-0.252-1.481-0.399c-0.231-0.071-0.126-0.25-0.079-0.412
	c0.611-2.124,1.214-4.249,1.822-6.374c0.798-2.786,1.598-5.571,2.397-8.356c0.039-0.137,0.085-0.273,0.115-0.412
	c0.056-0.252,0.215-0.286,0.428-0.215c0.427,0.142,0.99,0.167,1.246,0.46c0.298,0.339-0.114,0.831-0.23,1.246
	c-1.303,4.664-2.625,9.323-3.951,13.98C124.806,31.251,124.867,31.534,124.587,31.554z"/>
<path style="fill:#FFFFFE;" d="M128.828,167.478c0.56-0.291,1.08-0.561,1.594-0.828c2.488,4.871,4.959,9.708,7.467,14.617
	c-0.425,0.255-0.939,0.434-1.37,0.755c-0.229,0.171-0.311-0.131-0.39-0.28c-0.543-1.029-1.08-2.062-1.609-3.098
	C132.631,174.942,130.745,171.238,128.828,167.478z"/>
<path style="fill:#FEFFFE;" d="M144.199,178.047c-2.517-4.906-4.997-9.741-7.496-14.612c0.464-0.242,0.919-0.471,1.365-0.716
	c0.223-0.122,0.332-0.06,0.436,0.16c1.848,3.93,3.946,7.733,5.872,11.624c0.399,0.807,0.831,1.599,1.285,2.376
	c0.172,0.296,0.094,0.416-0.171,0.539C145.061,177.619,144.64,177.832,144.199,178.047z"/>
<path style="fill:#FFFFFE;" d="M72.559,168.403c-1.524,4.23-3.032,8.416-4.555,12.644c-0.561-0.191-1.089-0.401-1.635-0.546
	c-0.34-0.09-0.337-0.233-0.235-0.507c0.398-1.066,0.78-2.138,1.168-3.207c1.043-2.876,2.086-5.751,3.128-8.627
	c0.171-0.473,0.171-0.477,0.657-0.305c0.402,0.142,0.803,0.29,1.204,0.436C72.357,168.316,72.42,168.345,72.559,168.403z"/>
<path style="fill:#FFFFFE;" d="M68.389,19.614c0.673-0.252,1.286-0.482,1.926-0.722c1.606,4.249,3.197,8.456,4.791,12.673
	c-0.513,0.209-1.041,0.405-1.551,0.64c-0.26,0.12-0.37,0.075-0.47-0.191c-0.432-1.156-0.886-2.303-1.323-3.458
	C70.647,25.606,69.536,22.654,68.389,19.614z"/>
<path style="fill:#FFFFFE;" d="M159.703,53.675c3.747-2.557,7.449-5.083,11.152-7.609c0.35,0.5,0.662,0.974,1.005,1.425
	c0.186,0.244,0.099,0.354-0.117,0.5c-3.229,2.186-6.45,4.385-9.684,6.564c-0.385,0.26-0.734,0.804-1.17,0.701
	c-0.38-0.09-0.525-0.692-0.805-1.046C159.967,54.063,159.864,53.903,159.703,53.675z"/>
<path style="fill:#FFFFFE;" d="M95.535,187.147c0.048-2.735,0.073-5.471,0.156-8.205c0.026-0.854,0.097-1.708,0.093-2.565
	c-0.001-0.236,0.066-0.347,0.328-0.326c0.474,0.037,0.95,0.055,1.426,0.065c0.261,0.005,0.315,0.142,0.301,0.365
	c-0.091,1.472-0.007,2.948-0.115,4.422c-0.083,1.137-0.054,2.283-0.074,3.424c-0.028,1.57-0.056,3.141-0.081,4.711
	c-0.011,0.677,0.017,0.602-0.635,0.598c-0.286-0.002-0.571,0.001-0.857-0.001c-0.598-0.003-0.595-0.004-0.591-0.633
	c0.004-0.619,0.001-1.237,0.001-1.856C95.503,187.147,95.519,187.147,95.535,187.147z"/>
<path style="fill:#FFFFFE;" d="M160.678,35.136c0.477,0.419,0.957,0.842,1.462,1.286c-0.525,0.526-1.002,1.017-1.493,1.493
	c-1.775,1.721-3.553,3.438-5.333,5.154c-0.872,0.841-1.753,1.672-2.62,2.517c-0.152,0.148-0.276,0.171-0.422,0.03
	c-0.408-0.397-0.812-0.8-1.217-1.201c0.226-0.489,0.674-0.78,1.042-1.134c2.604-2.504,5.222-4.993,7.838-7.484
	C160.192,35.552,160.465,35.325,160.678,35.136z"/>
<path style="fill:#FFFFFE;" d="M63.415,37.099c-0.35-0.651-0.79-1.156-1.035-1.766c0.06-0.058,0.089-0.109,0.128-0.12
	c1.065-0.291,1.229-1.204,1.438-2.084c0.041-0.173-0.03-0.325-0.117-0.471c-0.473-0.795-0.935-1.597-1.422-2.385
	c-0.308-0.499-1.153-0.65-1.676-0.37c-0.386,0.207-0.74,0.701-1.151,0.571c-0.358-0.113-0.49-0.661-0.713-1.023
	c-0.096-0.156-0.261-0.272-0.289-0.508c0.72-0.431,1.45-0.866,2.179-1.304c0.214-0.129,0.414-0.153,0.672-0.072
	c0.54,0.169,1.097,0.282,1.649,0.41c0.287,0.066,0.508,0.179,0.669,0.462c0.729,1.277,1.482,2.54,2.234,3.805
	c0.162,0.273,0.228,0.502,0.111,0.847c-0.259,0.761-0.438,1.551-0.613,2.337c-0.085,0.381-0.266,0.627-0.611,0.808
	C64.389,36.487,63.933,36.788,63.415,37.099z"/>
<path style="fill:#FEFEFE;" d="M44.576,51.612c-1.189-0.52-2.378-1.042-3.568-1.559c-0.206-0.089-0.337-0.254-0.479-0.414
	c-2.334-2.634-4.67-5.266-7.007-7.897c-0.221-0.248-0.452-0.487-0.715-0.77c0.37-0.497,0.745-1.001,1.15-1.545
	c3.581,4.059,7.129,8.081,10.677,12.104C44.615,51.557,44.595,51.584,44.576,51.612z"/>
<path style="fill:#FFFFFE;" d="M56.029,30.341c0.392-0.005,0.641-0.305,0.965-0.441c0.256-0.107,0.434-0.471,0.719-0.39
	c0.267,0.076,0.346,0.431,0.485,0.674c0.171,0.299,0.584,0.577,0.444,0.906c-0.106,0.248-0.522,0.368-0.806,0.535
	c-0.491,0.288-0.957,0.662-1.488,0.826c-0.548,0.169-1.086-0.254-1.657-0.287c-0.683-0.039-1.144-0.342-1.477-0.997
	c-0.537-1.055-1.2-2.045-1.812-3.062c-0.099-0.165-0.181-0.315-0.096-0.528c0.311-0.773,0.449-1.596,0.653-2.399
	c0.08-0.314,0.204-0.551,0.515-0.714c0.503-0.264,0.977-0.583,1.461-0.883c0.205-0.127,0.331-0.087,0.453,0.131
	c0.231,0.413,0.484,0.816,0.748,1.209c0.138,0.205,0.144,0.341-0.101,0.439c-0.022,0.009-0.044,0.02-0.066,0.026
	c-1.016,0.276-1.255,1.109-1.433,1.989c-0.046,0.228,0.022,0.418,0.138,0.606c0.385,0.626,0.773,1.251,1.147,1.884
	C55.107,30.348,55.645,30.144,56.029,30.341z"/>
<path style="fill:#FFFFFE;" d="M122.416,29.152c-0.461-2.349-0.924-4.698-1.382-7.048c-0.236-1.21-0.463-2.422-0.7-3.633
	c-0.042-0.213-0.067-0.418-0.002-0.632c0.343-1.135,0.681-2.271,1.023-3.406c0.026-0.087,0.073-0.167,0.175-0.397
	c0.099,0.487,0.173,0.835,0.239,1.184c0.596,3.143,1.186,6.288,1.795,9.429c0.071,0.364,0.057,0.688-0.047,1.042
	c-0.341,1.152-0.652,2.313-0.974,3.471C122.5,29.159,122.458,29.156,122.416,29.152z"/>
<path style="fill:#FEFEFE;" d="M142.486,177.006c-0.797-0.586-1.593-1.174-2.392-1.757c-2.091-1.526-4.181-3.053-6.278-4.571
	c-0.318-0.23-0.552-0.502-0.724-0.855c-0.447-0.917-0.921-1.82-1.372-2.735c-0.078-0.159-0.245-0.301-0.158-0.557
	c1.194,0.878,2.37,1.747,3.551,2.609c1.457,1.064,2.907,2.139,4.384,3.175c0.753,0.528,1.379,1.127,1.764,1.985
	c0.397,0.885,0.866,1.738,1.304,2.606C142.537,176.94,142.511,176.973,142.486,177.006z"/>
<path style="fill:#FEFEFE;" d="M63.903,20.358c-0.307-0.503-0.461-1.051-0.644-1.584c-0.074-0.214,0.009-0.327,0.243-0.412
	c2.956-1.085,5.907-2.184,8.858-3.282c0.266-0.099,0.524-0.22,0.79-0.322c0.424-0.163,0.427-0.161,0.6,0.283
	c0.069,0.177,0.142,0.353,0.19,0.536c0.077,0.291,0.407,0.597,0.243,0.84c-0.142,0.211-0.531,0.262-0.817,0.369
	c-2.886,1.081-5.772,2.159-8.658,3.24C64.444,20.124,64.187,20.24,63.903,20.358z"/>
<path style="fill:#FEFEFE;" d="M102.44,173.414c0,0.464-0.021,0.936,0.006,1.406c0.022,0.387-0.137,0.491-0.5,0.479
	c-1.66-0.054-3.322-0.077-4.982-0.14c-0.498-0.019-0.996-0.059-1.494-0.033c-1.26,0.065-2.516-0.083-3.774-0.047
	c-0.353,0.01-0.458-0.124-0.437-0.457c0.022-0.355,0.015-0.713-0.003-1.068c-0.015-0.298,0.08-0.428,0.4-0.418
	c1.851,0.06,3.703,0.03,5.554,0.114c1.518,0.069,3.039,0.063,4.558,0.094C101.977,173.348,102.193,173.294,102.44,173.414z"/>
<path style="fill:#FEFEFE;" d="M65.031,183.101c0.17-0.455,0.343-0.919,0.517-1.384c0.175-0.467,0.197-0.49,0.663-0.331
	c1.166,0.399,2.33,0.806,3.489,1.224c1.582,0.571,3.161,1.151,4.737,1.737c0.468,0.174,0.459,0.187,0.293,0.649
	c-0.128,0.356-0.268,0.71-0.365,1.076c-0.082,0.31-0.226,0.363-0.514,0.258c-1.646-0.604-3.294-1.2-4.944-1.793
	c-1.159-0.417-2.322-0.825-3.483-1.236C65.291,183.253,65.144,183.238,65.031,183.101z"/>
<path style="fill:#FEFEFE;" d="M148.987,46.488c0.442-0.51,0.888-1.026,1.335-1.543c2.289,2.376,4.521,4.693,6.782,7.04
	c-0.516,0.439-0.988,0.891-1.452,1.405C153.382,51.039,151.146,48.725,148.987,46.488z"/>
<path style="fill:#FEFEFE;" d="M162.778,63.383c-1.862-2.702-3.69-5.354-5.539-8.038c0.593-0.389,1.152-0.757,1.695-1.114
	c1.766,2.557,3.509,5.094,5.272,7.616c0.223,0.319,0.208,0.45-0.138,0.642C163.636,62.729,163.249,63.05,162.778,63.383z"/>
<path style="fill:#FEFEFE;" d="M28.675,48.997c0.718,0.277,1.359,0.572,2.029,0.774c1.059,0.319,1.753,1.04,2.417,1.878
	c1.756,2.214,3.566,4.384,5.354,6.573c0.089,0.109,0.202,0.205,0.227,0.36c-0.129,0.157-0.251,0.029-0.364-0.023
	c-0.817-0.379-1.621-0.788-2.451-1.137c-0.367-0.155-0.66-0.372-0.904-0.664c-2.099-2.516-4.193-5.036-6.287-7.556
	C28.684,49.185,28.69,49.154,28.675,48.997z"/>
<path style="fill:#FEFEFE;" d="M91.564,20.356c-0.071-0.842-0.142-1.683-0.211-2.525c-0.023-0.282,0.131-0.497,0.28-0.712
	c1.327-1.909,2.659-3.815,3.976-5.731c0.216-0.315,0.441-0.518,0.852-0.518c0.533,0,1.065-0.061,1.735-0.105
	c-2.143,3.34-4.368,6.454-6.485,9.641C91.661,20.389,91.612,20.373,91.564,20.356z"/>
<path style="fill:#FEFEFE;" d="M94.483,18.037c1.701,3.041,3.354,5.996,5.052,9.031c-0.634,0.061-1.23,0.121-1.827,0.175
	c-0.281,0.026-0.342-0.213-0.443-0.392c-1.068-1.904-2.138-3.807-3.195-5.717c-0.251-0.454-0.741-0.884-0.694-1.363
	c0.044-0.438,0.495-0.836,0.769-1.251C94.237,18.384,94.334,18.25,94.483,18.037z"/>
<path style="fill:#FEFEFE;" d="M62.601,37.591c-0.593,0.347-1.149,0.661-1.694,0.996c-0.241,0.148-0.458,0.164-0.736,0.087
	c-0.844-0.234-1.698-0.433-2.551-0.631c-0.221-0.051-0.391-0.136-0.511-0.338c-0.472-0.795-0.953-1.584-1.452-2.41
	c0.531-0.276,1.031-0.535,1.483-0.869c0.201-0.149,0.321-0.117,0.441,0.109c0.212,0.397,0.459,0.776,0.684,1.166
	c0.187,0.324,0.402,0.593,0.832,0.542c0.045-0.005,0.101,0,0.139,0.022c0.746,0.433,1.393,0.238,2.005-0.289
	c0.236-0.203,0.377-0.023,0.496,0.179C62.015,36.624,62.299,37.089,62.601,37.591z"/>
<path style="fill:#FEFEFE;" d="M106.412,25.611c1.769,0.18,3.539,0.353,5.308,0.543c0.521,0.056,0.522,0.077,0.498,0.607
	c-0.009,0.189-0.032,0.378-0.056,0.567c-0.12,0.938-0.12,0.928-1.031,0.838c-1.819-0.18-3.638-0.361-5.46-0.509
	c-0.371-0.03-0.509-0.125-0.455-0.5c0.053-0.375,0.077-0.756,0.097-1.135c0.018-0.351,0.141-0.532,0.53-0.434
	c0.182,0.046,0.377,0.037,0.567,0.053C106.411,25.631,106.412,25.621,106.412,25.611z"/>
<path style="fill:#FEFEFE;" d="M113.497,11.922c0.044,0.633-0.02,1.171-0.074,1.713c-0.025,0.252-0.132,0.32-0.364,0.296
	c-0.589-0.06-1.18-0.106-1.77-0.164c-1.415-0.138-2.828-0.295-4.245-0.41c-0.38-0.031-0.5-0.151-0.449-0.52
	c0.052-0.375,0.066-0.756,0.078-1.135c0.009-0.28,0.071-0.43,0.412-0.404C109.213,11.459,111.331,11.689,113.497,11.922z"/>
<path style="fill:#FEFEFE;" d="M55.055,40.069c0.404,0.484,0.826,0.991,1.256,1.507c-1.679,1.423-3.362,2.815-4.96,4.305
	c-0.149,0.139-0.265,0.187-0.411,0.019c-0.343-0.395-0.687-0.789-1.03-1.184c-0.127-0.146-0.153-0.264,0.032-0.41
	c1.64-1.297,3.195-2.694,4.767-4.072C54.797,40.156,54.882,40.067,55.055,40.069z"/>
<path style="fill:#FEFEFE;" d="M41.72,35.146c-0.462-0.517-0.886-0.993-1.339-1.5c0.723-0.636,1.441-1.273,2.166-1.902
	c0.896-0.778,1.807-1.537,2.69-2.329c0.264-0.236,0.413-0.225,0.624,0.045c0.333,0.425,0.73,0.8,1.016,1.26
	C45.15,32.2,43.445,33.664,41.72,35.146z"/>
<path style="fill:#FEFEFE;" d="M55.01,22.985c0.585-0.359,1.148-0.705,1.711-1.05c0.191-0.117,0.371-0.126,0.602-0.058
	c0.791,0.235,1.591,0.444,2.396,0.63c0.251,0.058,0.423,0.14,0.552,0.375c0.285,0.518,0.596,1.022,0.906,1.526
	c0.129,0.21,0.094,0.32-0.134,0.437c-0.482,0.247-0.947,0.529-1.425,0.801c-0.257-0.195-0.358-0.494-0.5-0.76
	c-0.169-0.315-0.396-0.518-0.76-0.565c-0.186-0.024-0.381-0.054-0.55-0.13c-0.476-0.214-0.858-0.057-1.245,0.229
	c-0.431,0.317-0.442,0.3-0.736-0.163C55.561,23.84,55.293,23.425,55.01,22.985z"/>
<path style="fill:#FEFEFE;" d="M107.235,18.187c1.054,0.102,2.093,0.21,3.134,0.297c0.315,0.026,0.4,0.144,0.351,0.454
	c-0.056,0.35-0.062,0.71-0.072,1.066c-0.007,0.246-0.107,0.333-0.352,0.309c-1.348-0.133-2.696-0.263-4.045-0.379
	c-0.252-0.022-0.335-0.123-0.305-0.356c0.006-0.047,0-0.095,0.006-0.142c0.046-0.4-0.028-0.883,0.173-1.179
	C106.372,17.891,106.866,18.304,107.235,18.187z"/>
<path style="fill:#FEFEFD;" d="M46.054,40.201c-0.339-0.386-0.643-0.748-0.965-1.093c-0.224-0.239-0.153-0.37,0.081-0.564
	c1.071-0.89,2.122-1.804,3.205-2.73c0.419,0.308,0.701,0.785,1.078,1.171c0.214,0.219-0.045,0.333-0.172,0.442
	c-0.752,0.651-1.512,1.292-2.268,1.939C46.693,39.641,46.377,39.921,46.054,40.201z"/>
<path d="M112.382,161.595c-0.901,0.32-1.851,0.411-2.785,0.56c-3.575,0.571-7.175,0.815-10.797,0.758
	c-7.07-0.111-13.919-1.403-20.568-3.798c-7.258-2.614-13.803-6.455-19.614-11.515c-9.671-8.42-16.289-18.785-19.677-31.182
	c-0.853-3.12-1.428-6.292-1.794-9.501c-0.397-3.481-0.479-6.982-0.274-10.474c0.551-9.383,3.097-18.216,7.546-26.492
	c2.055-3.822,4.509-7.377,7.307-10.695c0.105-0.125,0.234-0.23,0.352-0.344c0.292-0.111,0.555-0.269,0.79-0.474
	c0.227-0.197,0.497-0.307,0.788-0.269c0.906,0.119,1.823,0.133,2.725,0.276c0.355,0.056,0.622,0.192,0.313,0.604
	c-0.138,0.417,0.253,0.266,0.381,0.305c1.231,0.368,2.485,0.654,3.716,1.026c0.324,0.098,0.805,0.086,0.866,0.497
	c0.054,0.365-0.376,0.506-0.636,0.7c-1.412,1.053-2.825,2.104-4.271,3.11c-0.525,0.365-0.682,0.711-0.482,1.361
	c0.637,2.07,1.286,4.136,1.941,6.199c0.223,0.702,0.092,1.172-0.456,1.623c-2.865,2.358-5.597,4.873-8.466,7.227
	c-0.235,0.193-0.481,0.383-0.659,0.644c0.109,0.234,0.348,0.239,0.534,0.314c2.361,0.954,4.732,1.882,7.093,2.835
	c0.724,0.292,0.762,0.455,0.165,0.94c-1.328,1.079-2.751,2.033-4.125,3.109c0.228,0.136,0.443,0.067,0.645,0.083
	c0.726,0.056,0.839,0.279,0.417,0.896c-0.532,0.777-1.159,1.488-1.723,2.382c1.235-0.162,2.363-0.285,3.482-0.477
	c0.33-0.057,0.66-0.094,0.993-0.099c0.162-0.002,0.364-0.054,0.45,0.127c0.094,0.2-0.035,0.376-0.178,0.504
	c-0.551,0.491-1.161,0.909-1.713,1.399c-0.213,0.189-0.455,0.344-0.69,0.673c0.491,0.041,0.925,0.019,1.356,0.02
	c1.095,0.004,2.19-0.007,3.284,0.007c0.273,0.003,0.632-0.08,0.761,0.24c0.12,0.299-0.14,0.53-0.332,0.738
	c-1.193,1.294-2.286,2.676-3.503,3.949c-0.047,0.049-0.095,0.102-0.076,0.239c1.453-0.184,2.897-0.443,4.348-0.649
	c2.897-0.411,5.787-0.861,8.683-1.281c0.094-0.014,0.187-0.037,0.283-0.04c0.167-0.006,0.354-0.024,0.443,0.15
	c0.093,0.18-0.037,0.331-0.153,0.438c-0.508,0.466-1.031,0.916-1.546,1.374c-1.686,1.5-3.362,3.011-5.124,4.601
	c0.871-0.08,1.623-0.239,2.383-0.328c0.204-0.024,0.456-0.115,0.605,0.08c0.172,0.225,0.012,0.461-0.103,0.661
	c-0.803,1.399-1.59,2.807-2.416,4.23c2.406-1.697,4.827-3.331,7.215-5.012c0.257-0.181,0.575-0.573,0.851-0.296
	c0.271,0.272-0.117,0.602-0.291,0.863c-1.001,1.503-2.058,2.969-3.095,4.6c2.073-1.17,4.12-2.146,6.141-3.175
	c0.106-0.054,0.207-0.117,0.314-0.17c0.215-0.106,0.457-0.245,0.654-0.027c0.197,0.218,0.028,0.451-0.085,0.656
	c-1.568,2.858-3.131,5.718-4.737,8.581c3.014-1.747,6.017-3.481,9.015-5.225c0.199-0.116,0.395-0.34,0.641-0.175
	c0.258,0.173,0.183,0.465,0.145,0.723c-0.253,1.742-0.448,3.492-0.75,5.227c-0.142,0.816-0.103,0.845,0.674,0.604
	c1.227-0.381,2.444-0.794,3.658-1.216c0.527-0.183,0.873-0.053,1.278,0.298c1.838,1.588,3.429,3.435,5.269,5.02
	c0.404,0.348,0.632,0.437,1.031-0.019c1.725-1.966,3.441-3.94,5.198-5.878c0.605-0.667,0.797-0.634,1.047,0.207
	c0.468,1.574,0.982,3.134,1.407,4.72c0.031,0.115,0.064,0.229,0.101,0.342c0.222,0.667,0.286,0.712,0.892,0.38
	c1.627-0.894,3.309-1.687,4.906-2.631c0.572-0.338,0.988-0.29,1.471,0.117c2.802,2.361,5.608,4.716,8.409,7.077
	c0.309,0.261,0.626,0.512,0.93,0.78c0.117,0.103,0.224,0.294,0.414,0.193c0.164-0.087,0.156-0.286,0.168-0.449
	c0.32-4.316-0.835-7.967-4.706-10.381c-0.328-0.204-0.505-0.47-0.585-0.845c-0.897-4.188-1.798-8.375-2.728-12.556
	c-0.051-0.23-0.149-0.523,0.086-0.66c0.288-0.168,0.466,0.13,0.643,0.303c2.193,2.148,4.309,4.376,6.542,6.48
	c1.403,1.322,2.762,2.684,4.074,3.979c-1.374-2.766-2.762-5.626-4.106-8.506c-0.365-0.781-0.35-0.962,0.333-1.524
	c0.956-0.785,1.87-1.62,2.822-2.409c0.401-0.332,0.413-0.564,0.067-0.98c-1.504-1.809-2.272-3.935-2.569-6.251
	c-0.189-1.47-0.229-2.939-0.001-4.407c0.034-0.218-0.023-0.567,0.289-0.563c0.251,0.003,0.313,0.326,0.368,0.555
	c0.347,1.447,0.933,2.799,1.645,4.095c1.646,2.995,3.998,5.177,7.296,6.249c0.614,0.2,1.254,0.277,1.878,0.427
	c0.411,0.099,0.605,0.32,0.567,0.76c-0.129,1.474,0.027,2.938,0.186,4.399c0.336,3.081,1.132,6.03,2.591,8.779
	c2.415,4.55,6.133,7.443,11.137,8.646c1.488,0.358,1.344,0.654,1.905-1.067c1.057-3.245,1.745-6.574,2.261-9.942
	c0.046-0.302,0.031-0.629,0.349-0.816c0.625-0.068,0.69-0.007,0.6,0.705c-0.184,1.46-0.481,2.901-0.78,4.34
	c-0.183,0.883-0.327,1.773-0.512,2.655c-0.398,1.315-0.673,2.667-1.187,3.947c-0.127,0.317-0.002,0.605,0.066,0.903
	c0.311,1.54,0.462,3.094,0.443,4.664c-0.004,0.325,0.032,0.677-0.3,0.9c-0.589,0.178-0.79-0.128-0.815-0.653
	c0.065-0.999-0.204-1.984-0.143-2.985c0.026-0.435-0.206-0.482-0.541-0.307c-1.887,0.991-3.712,0.762-5.499-0.271
	c-1.994-1.152-4.181-1.526-6.443-1.534c-0.718-0.003-1.286-0.211-1.773-0.736c-1.664-1.794-3.319-3.597-5.044-5.333
	c-0.725-0.73-0.852-0.729-1.646-0.055c-0.99,0.84-1.257,0.845-2.198-0.086c-2.383-2.358-4.742-4.74-7.119-7.104
	c-0.228-0.227-0.464-0.655-0.772-0.533c-0.331,0.132-0.144,0.598-0.141,0.909c0.016,1.828,0.357,3.64,0.28,5.474
	c-0.128,0.55,0.073,0.892,0.531,1.256c1.231,0.977,2.013,2.319,2.728,3.695c1.069,2.056,1.71,4.267,2.385,6.469
	c0.173,0.563-0.018,0.8-0.471,0.985c-0.154,0.063-0.309,0.125-0.469,0.168c-0.468,0.127-0.672,0.413-0.743,0.909
	c-0.28,1.948-0.27,3.927-0.64,5.864c-0.079,0.414,0.295,0.749,0.262,1.167c0.044,1.718-0.217,3.411-0.418,5.108
	c-0.405,3.421-0.824,6.839-1.313,10.249c-0.044,0.306-0.102,0.609-0.166,0.911c-0.282,1.702-0.458,3.42-0.796,5.114
	c-0.264,1.322-0.501,2.65-0.749,3.975C112.555,160.2,112.258,160.864,112.382,161.595z"/>
<path style="fill:#6A1516;" d="M112.382,161.595c-0.21-0.135-0.361-0.301-0.262-0.574c0.167-0.458,0.185-0.959,0.403-1.402
	c1.056-0.445,2.195-0.591,3.292-0.884c4.717-1.261,9.152-3.185,13.432-5.509c4.248-2.307,8.128-5.136,11.676-8.389
	c4.458-4.087,8.269-8.731,11.329-13.967c0.069-0.118,0.167-0.232,0.134-0.442c-1.471,0.805-2.928,1.597-4.38,2.393
	c-2.001,1.097-4.05,2.108-5.99,3.315c-0.181,0.113-0.374,0.24-0.571,0.016c-0.108-0.236-0.033-0.468,0.024-0.697
	c0.524-2.123,1.139-4.218,2.03-6.219c0.357-0.802,0.537-1.662,0.886-2.463c0.228-0.839,0.135-1.69,0.061-2.533
	c-0.089-1.013-0.232-2.02-0.352-3.03c0.173-1.291,0.766-2.468,1.025-3.736c0.08-0.39,0.15-0.797,0.502-1.065
	c4.065-1.98,8.01-4.185,11.975-6.355c0.647-0.354,1.312-0.674,1.938-1.068c0.394-0.248,0.595-0.574,0.648-1.041
	c0.342-3.025,0.666-6.051,0.566-9.102c-0.057-1.758-0.21-3.509-0.412-5.257c-0.048-0.413-0.178-0.488-0.541-0.29
	c-2.819,1.539-5.652,3.051-8.465,4.6c-1.021,0.562-2.088,1.04-3.079,1.658c-0.196,0.122-0.416,0.26-0.655,0.06
	c-0.251-0.436-0.038-0.943-0.217-1.39c-0.037-0.158-0.056-0.317-0.057-0.479c-0.05-0.676,0.068-1.357-0.071-2.029
	c-0.023-0.075-0.038-0.153-0.048-0.23c-0.062-0.455,0.037-0.92-0.094-1.37c-0.029-0.109-0.046-0.219-0.056-0.331
	c-0.031-0.355,0.029-0.717-0.071-1.067c-0.02-0.066-0.033-0.135-0.044-0.203c-0.042-0.298,0.004-0.603-0.077-0.898
	c-0.02-0.062-0.035-0.126-0.047-0.19c-0.043-0.251-0.027-0.511-0.112-0.756c-0.019-0.061-0.032-0.123-0.042-0.186
	c-0.034-0.248-0.003-0.502-0.081-0.746c-0.02-0.061-0.035-0.123-0.048-0.186c-0.041-0.257-0.03-0.521-0.127-0.77
	c-0.023-0.067-0.04-0.135-0.055-0.204c-0.313-1.633-0.802-3.225-1.12-4.856c-0.012-0.412,0.299-0.56,0.593-0.723
	c2.433-1.353,4.911-2.622,7.351-3.962c0.918-0.504,1.844-0.992,2.753-1.511c0.333-0.19,0.406-0.392,0.251-0.754
	c-1.652-3.861-3.61-7.553-5.968-11.033c-0.289-0.426-0.49-0.489-0.959-0.229c-3.079,1.707-6.205,3.329-9.268,5.065
	c-0.104,0.059-0.214,0.104-0.332,0.126c-0.147,0.017-0.274-0.037-0.396-0.11c-0.056-0.039-0.107-0.085-0.151-0.137
	c-0.914-1.252-1.755-2.558-2.718-3.774c-0.047-0.044-0.09-0.092-0.132-0.14c-0.169-0.187-0.298-0.404-0.461-0.595
	c-0.043-0.044-0.083-0.091-0.122-0.138c-0.181-0.205-0.316-0.446-0.5-0.65c-0.061-0.067-0.116-0.139-0.166-0.214
	c-0.106-0.178-0.232-0.341-0.383-0.485c-0.065-0.062-0.127-0.127-0.19-0.192c-0.106-0.11-0.211-0.22-0.3-0.345
	c-0.145-0.24-0.34-0.433-0.564-0.599c-0.248-0.245-0.453-0.532-0.719-0.76c-0.734-0.714-1.413-1.485-2.206-2.137
	c-0.141-0.17-0.293-0.329-0.466-0.467c-0.229-0.304-0.476-0.589-0.807-0.788c-0.181-0.131-0.33-0.299-0.505-0.437
	c-0.153-0.124-0.337-0.215-0.427-0.406c-0.021-0.066-0.03-0.134-0.027-0.204c0.036-0.254,0.25-0.323,0.435-0.428
	c2.919-1.65,5.92-3.148,8.843-4.792c0.192-0.108,0.389-0.238,0.673-0.133c-4.045-3.309-8.396-6.056-13.083-8.275
	c-0.394-0.186-0.708-0.137-1.072,0.058c-2.515,1.349-5.01,2.732-7.524,4.082c-2.514,1.35-5.049,2.66-7.529,4.074
	c-0.067,0.031-0.136,0.051-0.209,0.061c-0.111,0.011-0.22,0.001-0.328-0.023c-1.574-0.44-3.128-0.953-4.706-1.38
	c-0.073-0.015-0.144-0.037-0.215-0.062c-4.072-1.295-8.164-2.524-12.249-3.778c-0.792-0.243-1.611-0.413-2.354-0.803
	c-0.389-0.435-0.016-0.649,0.278-0.829c0.689-0.422,1.395-0.816,2.11-1.193c3.385-1.786,6.768-3.574,10.111-5.438
	c0.118-0.066,0.277-0.086,0.35-0.291c-14.611-0.291-27.763,3.852-39.406,12.693c-0.113,0.082-0.233,0.154-0.345,0.237
	c-1.112,0.968-2.295,1.854-3.361,2.878c-1.044,0.395-1.371,1.522-2.189,2.156c-0.271,0.21-0.462,0.534-0.712,0.787
	c-0.434,0.441-0.891,0.736-1.571,0.572c-0.536-0.129-1.112,0.099-1.658-0.086c1.433-1.753,3.057-3.321,4.722-4.848
	c4.934-4.523,10.472-8.128,16.57-10.88c3.41-1.539,6.933-2.746,10.557-3.674c5.547-1.419,11.185-2.005,16.899-1.846
	c5.156,0.144,10.226,0.901,15.197,2.295c6.199,1.739,12.014,4.333,17.409,7.852c6.444,4.204,11.964,9.39,16.505,15.607
	c3.915,5.361,6.917,11.197,9,17.5c1.294,3.916,2.164,7.925,2.7,12.017c0.515,3.936,0.581,7.884,0.343,11.829
	c-0.328,5.436-1.396,10.745-3.144,15.91c-1.4,4.136-3.205,8.087-5.422,11.848c-5.375,9.117-12.59,16.432-21.612,21.95
	c-4.515,2.762-9.315,4.909-14.394,6.427c-1.726,0.516-3.467,0.968-5.224,1.364C112.663,161.593,112.526,161.63,112.382,161.595z"/>
<path style="fill:#010101;" d="M62.106,51.786c0.062-0.107,0.163-0.142,0.278-0.152c0.643-0.18,1.268,0.093,1.909,0.075
	c4.203-0.12,8.391,0.427,12.595,0.289c0.427-0.014,0.854,0.051,1.243,0.256c0.255,0.544-0.208,0.54-0.486,0.558
	c-0.878,0.056-1.763,0.091-2.636-0.02c-0.45-0.057-0.896-0.099-1.347-0.09c-3.114,0.063-6.22-0.254-9.251-0.131
	c0.565,0.37,1.27,0.71,1.95,1.092c0.207,0.117,0.415,0.234,0.597,0.389c0.286,0.243,0.518,0.53,0.377,0.926
	c-0.147,0.415-0.518,0.572-0.918,0.53c-0.639-0.066-1.286-0.047-1.919-0.148c-1.857-0.297-3.691,0.204-5.641,0.029
	c0.292,0.651,0.799,0.946,1.153,1.367c0.326,0.388,0.912,0.702,0.696,1.3c-0.238,0.661-0.906,0.467-1.433,0.498
	c-0.354,0.021-0.711-0.016-1.066,0.103c0.348,0.077,0.706,0.043,1.058,0.074c0.262,0.023,0.591-0.07,0.713,0.302
	c-0.118,0.174-0.303,0.223-0.489,0.233c-0.84,0.045-1.68,0.051-2.52-0.004c-0.166-0.011-0.32-0.065-0.433-0.201
	c0.061-0.1,0.121-0.199,0.222-0.364c-0.593-0.014-1.114-0.358-1.699-0.11c-0.112,0.047-0.243,0.062-0.336-0.019
	c-0.365-0.319-0.803-0.187-1.216-0.212c-0.196-0.012-0.379,0.029-0.495,0.206c-0.226,0.345-0.564,0.387-0.931,0.353
	c0.123-0.307,0.381-0.497,0.618-0.706c0.617,0.003,1.234-0.007,1.851,0.012c0.436,0.014,0.782-0.14,1.071-0.458
	c0.446-0.49,0.897-0.977,1.351-1.46c0.146-0.155,0.3-0.304,0.462-0.443c0.413-0.356,0.415-0.353,0.181-0.891
	c0.414-0.083,0.84-0.111,1.209-0.327c0.826-0.138,1.658-0.039,2.487-0.05c1.539-0.02,3.079-0.004,4.643-0.08
	c-0.917-0.718-1.942-1.229-2.949-1.768c-0.209-0.112-0.446-0.175-0.636-0.318C62.161,52.268,61.921,52.109,62.106,51.786z"/>
<path style="fill:#C4C4C4;" d="M182.078,100.774c0.019-0.115-0.003-0.28,0.065-0.337c0.408-0.341,0.658-0.806,0.989-1.206
	c0.26-0.315,0.554-0.498,0.983-0.452c0.353,0.038,0.709-0.004,1.063,0.085c0.299,0.075,0.612,0.046,0.919-0.022
	c0.417-0.093,0.84-0.073,1.29-0.056c-0.116,0.234-0.313,0.234-0.49,0.287c-1.295,0.384-2.587,0.774-3.88,1.164
	c-0.091,0.027-0.177,0.069-0.268,0.098c-0.134,0.044-0.31,0.078-0.278,0.255c0.03,0.161,0.204,0.171,0.349,0.186
	c0.117,0.012,0.234,0.035,0.35,0.055c0.855,0.149,1.388,0.581,1.57,1.495c0.187,0.945,0.678,1.811,0.802,2.811
	c-0.279-0.359-0.567-0.712-0.836-1.079c-0.744-1.014-1.483-2.032-2.217-3.054c-0.108-0.151-0.236-0.226-0.414-0.232L182.078,100.774
	z"/>
<path style="fill:#C4C4C4;" d="M182.075,100.771c0.005,0.498-0.027,1.001,0.026,1.494c0.058,0.536-0.227,0.849-0.599,1.126
	c-0.569,0.425-1.145,0.84-1.727,1.247c-0.243,0.17-0.418,0.439-0.817,0.574c0.237-0.615,0.602-1.051,0.9-1.51
	c0.606-0.931,1.289-1.814,1.947-2.711c0.066-0.091,0.181-0.146,0.273-0.218C182.078,100.774,182.075,100.771,182.075,100.771z"/>
<path style="fill:#C4C3C5;" d="M176.587,99.044c1.773,0.263,3.411,0.917,5.187,1.375c-0.575,0.493-1.23,0.591-1.861,0.734
	c-0.094,0.021-0.226-0.064-0.322-0.128C178.588,100.368,177.588,99.705,176.587,99.044z"/>
<path style="fill:#C2C1C2;" d="M182.057,94.923c0,1.72,0,3.44,0,5.16c-0.355-0.194-1.041-1.003-1.154-1.334
	c-0.056-0.165-0.059-0.309-0.002-0.48c0.372-1.116,0.73-2.237,1.092-3.356C182.014,94.916,182.035,94.919,182.057,94.923z"/>
<path style="fill:#C3C3C3;" d="M21.425,105.27c-0.679-0.936-1.354-1.876-2.04-2.806c-0.393-0.534-0.79-1.066-1.218-1.572
	c-0.214-0.254-0.217-0.438,0-0.675c0.207-0.226,0.418-0.46,0.573-0.722c0.407-0.691,1.032-0.718,1.719-0.638
	c0.613,0.072,1.23,0.091,1.841-0.03c0.276-0.055,0.549-0.064,0.844-0.03c-0.1,0.205-0.266,0.225-0.424,0.271
	c-1.294,0.381-2.586,0.766-3.879,1.151c-0.091,0.027-0.179,0.063-0.267,0.099c-0.104,0.042-0.262,0.037-0.255,0.195
	c0.007,0.171,0.154,0.213,0.295,0.253c0.296,0.084,0.587,0.182,0.884,0.258c0.483,0.123,0.77,0.44,0.917,0.899
	c0.231,0.721,0.493,1.435,0.671,2.169C21.183,104.487,21.443,104.808,21.425,105.27z"/>
<path style="fill:#C3C3C3;" d="M17.818,100.781c0.196,0.731,0.197,1.355,0.041,1.987c-0.055,0.223-0.189,0.377-0.362,0.509
	c-0.896,0.683-1.875,1.252-2.757,1.975C15.64,103.708,16.71,102.293,17.818,100.781z"/>
<path style="fill:#C4C3C5;" d="M17.683,100.342c-0.175,0.379-0.571,0.386-0.888,0.517c-0.261,0.108-0.543,0.163-0.807,0.265
	c-0.195,0.076-0.369,0.069-0.539-0.044c-1.036-0.687-2.07-1.374-3.052-2.172c0.809,0.233,1.618,0.461,2.425,0.7
	c0.702,0.207,1.404,0.414,2.099,0.644c0.256,0.085,0.512,0.075,0.77,0.097L17.683,100.342z"/>
<path style="fill:#C2C3C4;" d="M17.692,100.349c-0.053-0.513-0.451-0.825-0.733-1.192c-0.26-0.339-0.343-0.666-0.208-1.054
	c0.356-1.027,0.738-2.046,0.984-3.108c0.012-0.052,0.098-0.088,0.194-0.168c-0.18,1.628,0.147,3.2,0.037,4.778
	c-0.019,0.275,0.065,0.587-0.281,0.737C17.683,100.342,17.692,100.349,17.692,100.349z"/>
<path style="fill:#FEFEFE;" d="M56.535,59.06c1.16,0.036,2.319,0.022,3.473-0.114c0.408-0.363,0.905-0.178,1.364-0.215
	c0.354-0.029,0.712,0.002,1.123-0.004c-0.535-0.729-1.281-1.185-1.872-1.797c-0.271-0.28-0.784-0.546-0.618-0.954
	c0.167-0.409,0.72-0.241,1.108-0.242c3.154-0.011,6.308-0.006,9.543-0.006c-1.241-0.773-2.505-1.316-3.718-1.955
	c-0.147-0.078-0.296-0.153-0.439-0.239c-0.198-0.119-0.498-0.208-0.424-0.496c0.085-0.333,0.402-0.256,0.661-0.239
	c0.919,0.151,1.844,0.039,2.765,0.068c0.299-0.02,0.599,0.014,0.898-0.009c0.477,0,0.954-0.024,1.427,0.059
	c1.112,0.212,2.235,0.038,3.351,0.09c0.368-0.013,0.736-0.01,1.101,0.049c0.23,0.056,0.458,0.118,0.7,0.111
	c2.163-0.064,4.32,0.086,6.603,0.184c-0.476-0.554-0.979-0.943-1.34-1.453c-0.173-0.244-0.55-0.494-0.387-0.78
	c0.175-0.306,0.57-0.086,0.854-0.017c2.148,0.516,4.304,1.002,6.451,1.521c2.725,0.658,5.472,1.22,8.179,1.954
	c0.114,0.031,0.231,0.057,0.455,0.174c-3.565-2.329-6.94-4.702-10.388-6.967c-0.235-0.155-0.502-0.281-0.626-0.563
	c-0.003-0.134,0.075-0.205,0.191-0.247c0.725,0.006,1.387,0.293,2.062,0.499c5.034,1.539,10.064,3.09,15.108,4.595
	c0.114,0.034,0.225,0.075,0.333,0.122c0.162,0.076,0.332,0.128,0.507,0.165c0.458,0.161,0.938,0.251,1.39,0.431
	c0.155,0.072,0.322,0.102,0.49,0.125c0.459,0.141,0.917,0.286,1.369,0.449c0.155,0.071,0.32,0.109,0.486,0.146
	c0.452,0.158,0.926,0.245,1.372,0.424c0.155,0.071,0.32,0.1,0.488,0.124c0.459,0.141,0.917,0.286,1.368,0.448
	c0.155,0.071,0.32,0.109,0.486,0.146c0.452,0.158,0.926,0.245,1.372,0.424c0.155,0.071,0.32,0.1,0.488,0.124
	c0.459,0.141,0.917,0.286,1.368,0.448c0.155,0.071,0.32,0.109,0.486,0.146c0.452,0.158,0.926,0.245,1.372,0.424
	c0.155,0.071,0.32,0.1,0.488,0.124c0.459,0.141,0.917,0.286,1.368,0.448c0.155,0.071,0.32,0.109,0.486,0.146
	c0.452,0.158,0.926,0.245,1.371,0.424c0.154,0.071,0.32,0.101,0.487,0.124c0.457,0.14,0.912,0.284,1.362,0.447
	c0.152,0.069,0.312,0.11,0.475,0.147c0.317,0.09,0.626,0.204,0.949,0.273c0.156,0.012,0.28,0.162,0.471,0.102
	c-0.187-0.304-0.39-0.58-0.653-0.807c-0.07-0.062-0.13-0.133-0.177-0.214c-0.077-0.198-0.218-0.342-0.395-0.456
	c-0.093-0.083-0.159-0.185-0.211-0.297c-0.08-0.246-0.269-0.395-0.474-0.531c-0.098-0.08-0.168-0.179-0.221-0.292
	c-0.065-0.213-0.229-0.343-0.398-0.47c-0.092-0.101-0.152-0.214-0.132-0.356c0.035-0.106,0.11-0.168,0.215-0.198
	c0.176-0.033,0.323,0.037,0.462,0.134c1.526,1.069,3.045,2.146,4.428,3.4c0.134,0.142,0.293,0.253,0.456,0.358
	c0.816,0.741,1.677,1.433,2.427,2.245c0.326,0.346,0.654,0.689,1.057,0.949c0.051,0.04,0.097,0.085,0.14,0.133
	c0.216,0.323,0.464,0.617,0.762,0.868c3.995,4.09,7.149,8.753,9.578,13.925c1.381,2.942,2.416,5.998,3.259,9.128
	c0.027,0.165,0.042,0.332,0.096,0.492c0.021,0.063,0.036,0.128,0.049,0.193c0.03,0.165,0.075,0.325,0.125,0.485
	c0.107,0.47,0.263,0.929,0.323,1.409c0.013,0.165,0.027,0.33,0.077,0.49c0.026,0.095,0.043,0.191,0.054,0.288
	c0.016,0.159,0.045,0.316,0.093,0.469c0.034,0.125,0.05,0.252,0.059,0.381c0.009,0.16,0.036,0.317,0.085,0.47
	c0.027,0.095,0.044,0.192,0.053,0.29c0.012,0.199,0.037,0.395,0.1,0.586c0.035,0.134,0.051,0.271,0.058,0.409
	c0.004,0.245,0.01,0.489,0.091,0.725c0.041,0.177,0.056,0.357,0.06,0.538c-0.004,0.255,0.003,0.509,0.088,0.754
	c0.042,0.186,0.058,0.374,0.062,0.564c0.001,0.385-0.037,0.773,0.091,1.148c0.048,0.241,0.066,0.484,0.059,0.729
	c0.016,0.627-0.08,1.26,0.103,1.878c0.09,1.237,0.094,2.474,0.003,3.71c-0.18,0.575-0.094,1.166-0.105,1.751
	c0.011,0.287-0.004,0.573-0.056,0.856c-0.129,0.378-0.096,0.77-0.092,1.159c0.002,0.231-0.012,0.46-0.059,0.686
	c-0.082,0.248-0.101,0.504-0.093,0.763c-0.002,0.185-0.019,0.368-0.06,0.548c-0.07,0.211-0.085,0.429-0.088,0.65
	c-0.012,0.193-0.07,0.369-0.197,0.518c-0.269,0.792-0.283,1.63-0.43,2.445c-0.564,3.116-1.291,6.19-2.295,9.196
	c-0.099,0.297-0.147,0.574-0.607,0.484c-2.814-0.555-5.427-1.555-7.715-3.328c-2.505-1.941-4.317-4.403-5.524-7.319
	c-1.515-3.661-2.114-7.489-2.058-11.435c0.002-0.119,0.002-0.239,0.018-0.356c0.038-0.294-0.067-0.409-0.381-0.448
	c-0.921-0.116-1.82-0.343-2.688-0.682c-2.477-0.968-4.388-2.632-5.867-4.81c-1.172-1.727-2.003-3.612-2.484-5.647
	c-0.026-0.109-0.066-0.215-0.119-0.385c-0.674,3.1-0.264,8.584,2.986,11.795c-1.241,1.07-2.482,2.137-3.72,3.207
	c-0.43,0.372-0.422,0.373-0.181,0.872c1.469,3.038,2.935,6.077,4.402,9.115c0.03,0.063,0.073,0.127-0.036,0.237
	c-3.824-3.754-7.65-7.509-11.54-11.329c-0.012,0.644,0.198,1.152,0.309,1.67c0.805,3.763,1.655,7.516,2.436,11.283
	c0.115,0.556,0.352,0.836,0.806,1.123c2.422,1.532,3.857,3.752,4.389,6.555c0.277,1.461,0.269,2.935,0.077,4.407
	c-0.015,0.111,0.006,0.238-0.143,0.346c-0.28-0.102-0.454-0.371-0.682-0.562c-3.21-2.69-6.415-5.386-9.617-8.087
	c-0.181-0.153-0.297-0.219-0.548-0.081c-1.769,0.974-3.552,1.919-5.33,2.876c-0.249,0.134-0.491,0.28-0.814,0.465
	c-0.762-2.222-1.329-4.485-2.08-6.752c-2.138,2.422-4.225,4.785-6.331,7.17c-1.338-1.287-2.639-2.541-3.941-3.793
	c-0.738-0.709-1.484-1.41-2.213-2.128c-0.192-0.189-0.321-0.225-0.606-0.124c-1.563,0.557-3.144,1.066-4.72,1.586
	c-0.057,0.019-0.131-0.012-0.244-0.025c0.32-2.303,0.639-4.59,0.973-6.994c-3.415,1.982-6.697,3.887-10.103,5.863
	c0.526-1.195,1.172-2.196,1.732-3.241c0.584-1.09,1.193-2.166,1.79-3.248c0.581-1.053,1.162-2.106,1.742-3.158
	c-0.036-0.041-0.071-0.082-0.107-0.123c-2.463,1.27-4.926,2.54-7.389,3.81c-0.025-0.03-0.05-0.06-0.076-0.091
	c1.277-1.893,2.555-3.785,3.832-5.678c-0.029-0.027-0.059-0.054-0.088-0.082c-2.79,1.94-5.579,3.88-8.369,5.821
	c-0.029-0.019-0.057-0.039-0.086-0.058c0.988-1.73,1.975-3.461,3.021-5.293c-1.226,0.178-2.34,0.339-3.631,0.526
	c2.514-2.322,4.984-4.44,7.489-6.753c-4.895,0.732-9.602,1.436-14.435,2.159c1.545-1.816,3.098-3.463,4.597-5.295
	c-2.032,0-3.928,0-5.821,0c-0.113-0.232,0.079-0.309,0.194-0.404c0.714-0.593,1.435-1.177,2.151-1.766
	c0.196-0.161,0.419-0.301,0.564-0.613c-1.789,0.241-3.509,0.474-5.396,0.728c0.862-1.166,1.616-2.186,2.452-3.317
	c-0.671,0-1.216,0-1.762,0c-0.019-0.051-0.038-0.102-0.058-0.153c1.656-1.241,3.312-2.483,5.045-3.782
	c-2.951-1.174-5.787-2.301-8.637-3.435c0.053-0.273,0.312-0.338,0.478-0.481c2.379-2.05,4.766-4.091,7.148-6.138
	c0.721-0.62,1.425-1.262,2.152-1.875c0.228-0.192,0.304-0.341,0.202-0.658c-0.772-2.397-1.501-4.808-2.281-7.202
	c-0.12-0.369,0.073-0.47,0.276-0.618c1.707-1.251,3.416-2.498,5.124-3.748c0.109-0.08,0.277-0.11,0.269-0.368
	c-1.804-0.493-3.628-0.992-5.462-1.493C56.131,59.008,56.403,59.152,56.535,59.06z"/>
<path style="fill:#6A1516;" d="M112.383,113.615c0.034-1.45-0.13-2.886-0.25-4.328c-0.068-0.813-0.012-1.637-0.012-2.512
	c0.517,0.171,0.825,0.496,1.139,0.808c2.375,2.365,4.748,4.733,7.12,7.101c0.236,0.236,0.487,0.449,0.756,0.648
	c0.308,0.228,0.562,0.193,0.819-0.067c0.301-0.304,0.617-0.59,0.969-0.837c0.444-0.312,0.545-0.335,0.917,0.028
	c0.731,0.714,1.461,1.432,2.146,2.189c0.318,0.352,0.64,0.701,0.965,1.046c0.83,0.882,1.676,1.75,2.491,2.645
	c0.364,0.4,0.768,0.586,1.314,0.565c1.481-0.058,2.921,0.23,4.357,0.556c0.613,0.139,1.16,0.412,1.714,0.682
	c0.427,0.208,0.848,0.43,1.271,0.645c1.547,0.785,3.099,0.785,4.65,0.018c0.859-0.425,0.898-0.524,0.917,0.537
	c0.016,0.9,0.085,1.8,0.13,2.699c-0.112,0.758,0.07,1.528-0.283,2.285c-1.1,2.359-1.829,4.852-2.484,7.364
	c-0.402,1.542-0.716,3.107-1.288,4.603c-1.579,4.125-4.559,6.887-8.485,8.722c-1.448,0.677-2.966,1.168-4.504,1.596
	c-0.263,0.073-0.581,0.237-0.801-0.029c-0.195-0.236-0.004-0.503,0.107-0.731c0.277-0.57,0.357-1.183,0.406-1.8
	c0.243-3.089,0.173-6.17-0.104-9.258c-0.319-3.554-1.039-7.019-2.197-10.38c-1.578-4.581-3.79-8.83-6.999-12.508
	c-0.227-0.26-0.35-0.597-0.553-0.765c0.821,1.238,1.65,2.567,2.417,3.935c3.523,6.287,5.533,13.086,6.747,20.142
	c0.314,1.824,0.645,3.657,0.644,5.522c0,0.314,0.113,0.789-0.273,0.866c-0.379,0.075-0.6-0.342-0.726-0.679
	c-0.592-1.585-0.992-3.229-1.483-4.846c-1.203-3.962-2.195-7.986-3.462-11.929c-0.181-0.564-0.242-1.165-0.536-1.696
	c-0.237-0.428-0.496-0.829-1.023-0.915c-0.543-0.088-0.704-0.474-0.842-0.935c-0.546-1.822-1.09-3.647-1.912-5.37
	c-0.833-1.745-1.765-3.426-3.374-4.6C112.416,114.362,112.507,113.957,112.383,113.615z"/>
<path style="fill:#1A1A1A;" d="M110.338,159.987c-0.332-0.575-0.449-1.165-0.499-1.73c-0.135-1.556-0.411-3.09-0.62-4.634
	c-0.165-1.215-0.256-2.441-0.53-3.643c-0.093-0.408,0.025-0.858-0.251-1.279c-0.528,0.394-0.984,0.874-1.4,1.378
	c-0.227,0.275-0.46,0.541-0.702,0.801c-1.311,1.406-2.646,2.79-3.92,4.229c-0.707,0.798-1.429,1.583-2.13,2.387
	c-0.107,0.122-0.235,0.225-0.464,0.443c1.594-7.164,3.092-14.189,4.544-21.334c-0.526,0.246-0.792,0.609-1.08,0.939
	c-0.779,0.891-1.499,1.831-2.302,2.704c-0.978,1.063-1.905,2.173-2.859,3.259c-0.47,0.534-0.956,1.054-1.427,1.587
	c-1.003,1.137-1.998,2.281-3.003,3.416c-0.849,0.958-1.723,1.895-2.558,2.865c-0.85,0.987-1.711,1.966-2.575,2.939
	c-0.625,0.704-1.142,1.527-1.954,2.058c-0.288,0.188-0.333,0.625-0.769,0.738c3.169-5.947,6.542-11.731,9.771-17.777
	c-0.856,0.139-1.545,0.244-2.231,0.365c-1.999,0.354-3.997,0.716-5.996,1.073c-1.278,0.228-2.55,0.497-3.836,0.665
	c-0.697,0.091-1.392,0.148-2.167,0.517c0.133-0.184,0.158-0.258,0.209-0.284c1.461-0.742,2.832-1.642,4.298-2.378
	c2.251-1.129,4.473-2.316,6.701-3.49c2.185-1.151,4.364-2.313,6.541-3.48c0.458-0.246,0.914-0.498,1.323-0.83
	c0.611-0.497,0.791-1.228,1.06-1.906c1.251-3.151,2.486-6.308,3.729-9.462c0.015-0.039,0.051-0.07,0.108-0.145
	c0.436,0.362,0.835,0.766,1.267,1.127c1.527,1.275,2.999,2.617,4.516,3.905c1.263,1.072,2.56,2.103,3.841,3.154
	c0.36,0.296,0.552,0.581,0.444,1.141c-0.201,1.039-0.204,2.115-0.33,3.17c-0.151,1.265-0.344,2.525-0.518,3.787
	c-0.11,0.795-0.266,1.588-0.314,2.387c-0.053,0.877-0.215,1.737-0.336,2.6c-0.121,0.863-0.197,1.733-0.372,2.592
	c-0.24,1.178-0.414,2.372-0.576,3.564c-0.159,1.17-0.383,2.329-0.556,3.496c-0.201,1.358-0.499,2.695-0.768,4.038
	c-0.311,1.552-0.616,3.11-1.126,4.616C110.475,159.685,110.412,159.811,110.338,159.987z"/>
<path style="fill:#131313;" d="M141.519,136.191c0.371-0.009,0.552-0.343,0.843-0.497c1.425-0.758,2.829-1.557,4.247-2.327
	c1.919-1.042,3.872-2.023,5.743-3.153c0.098-0.059,0.201-0.131,0.377-0.09c0.037,0.317-0.172,0.562-0.314,0.811
	c-0.882,1.547-1.87,3.027-2.905,4.476c-1.159,1.623-2.435,3.151-3.709,4.681c-1.202,1.444-2.562,2.744-3.898,4.063
	c-1.437,1.419-3.001,2.689-4.588,3.934c-1.382,1.083-2.799,2.118-4.27,3.076c-2.751,1.792-5.647,3.315-8.637,4.67
	c-1.905,0.863-3.843,1.632-5.836,2.261c-1.785,0.563-3.581,1.084-5.413,1.471c-0.207,0.044-0.424,0.036-0.637,0.052
	c0.104-0.673,0.189-1.349,0.315-2.017c0.304-1.614,0.673-3.215,0.842-4.855c0.079-0.762,0.26-1.514,0.395-2.271
	c0.119,0.104,0.038,0.405,0.429,0.146c1.665-1.101,3.469-1.971,5.216-2.935c1.457-0.803,2.933-1.571,4.404-2.347
	c0.287-0.151,0.457-0.408,0.688-0.607c0.219,0.008,0.263,0.18,0.301,0.34c0.266,1.108,0.615,2.203,0.69,3.345
	c0.053,0.802-0.122,1.558-0.752,2.144c-0.273,0.254-0.54,0.519-0.759,0.893c3.266-0.656,6.383-1.53,9.234-3.189
	c3.739-2.177,6.037-5.413,7.1-9.571c0.141-0.553,0.269-1.109,0.422-1.658C141.138,136.721,141.207,136.387,141.519,136.191z"/>
<path style="fill:#6A1616;" d="M124.816,144.769c0.053,0.388-0.213,0.528-0.499,0.679c-1.276,0.671-2.543,1.357-3.817,2.032
	c-2.129,1.129-4.254,2.265-6.327,3.491c-0.138-0.162-0.06-0.338-0.099-0.494c0.159-1.195,0.318-2.39,0.477-3.585
	c0.131-0.984,0.264-1.967,0.392-2.951c0.232-1.781,0.513-3.558,0.674-5.345c0.136-1.507,0.401-3.008,0.336-4.531
	c0.192-0.3-0.061-0.576-0.049-0.867c0.011-0.257,0.03-0.506,0.192-0.72c0.928-0.65,1.989-1.066,2.947-1.665
	c0.299-0.187,0.607-0.363,0.91-0.545c0.244-0.146,0.497-0.3,0.775-0.057c0.777,2.172,1.312,4.415,1.969,6.623
	c0.712,2.391,1.341,4.806,2.083,7.188C124.857,144.263,124.992,144.511,124.816,144.769z"/>
<path style="fill:#010101;" d="M111.933,54.647c-0.491-0.085-0.965-0.225-1.413-0.447c-0.127-0.116-0.316-0.012-0.443-0.125
	c-0.481-0.117-0.982-0.173-1.414-0.448c-0.132-0.111-0.319-0.016-0.452-0.12c-0.486-0.092-0.96-0.221-1.404-0.447
	c-0.128-0.119-0.318-0.017-0.449-0.126c-0.477-0.122-0.977-0.174-1.407-0.444c-0.133-0.119-0.323-0.024-0.461-0.123
	c-1.676-0.421-3.316-0.962-4.965-1.474c-1.025-0.319-2.052-0.63-3.079-0.945c-0.825-0.253-1.65-0.506-2.476-0.757
	c-0.69-0.21-1.382-0.417-2.072-0.626c-1.16-0.351-2.323-0.695-3.48-1.055c-0.489-0.152-0.999-0.242-1.464-0.467
	c-0.141-0.02-0.229-0.001-0.125,0.165c3.881,2.528,7.701,5.146,11.518,7.777c-5.47-1.352-10.966-2.537-16.568-3.915
	c0.713,0.946,1.562,1.57,2.19,2.404c-0.7,0-1.356,0.035-2.007-0.007c-1.569-0.102-3.141-0.071-4.71-0.138
	c-0.306-0.013-0.62,0.029-0.916-0.094c0.398-0.363,0.887-0.185,1.336-0.211c0.514-0.03,0.981-0.102,1.214-0.641
	c0.694-0.414,1.453-0.121,2.201-0.191c-0.31-0.473-0.743-0.807-1.114-1.198c-0.28-0.318-0.523-0.665-0.816-0.973
	c-0.158-0.166-0.366-0.361-0.225-0.613c0.158-0.282,0.45-0.195,0.7-0.144c0.945,0.194,1.854,0.524,2.79,0.748
	c2.212,0.446,4.401,0.997,6.595,1.524c1.062,0.255,2.124,0.511,3.196,0.724c0.019,0.004,0.052-0.008,0.061-0.024
	c0.01-0.017,0.002-0.046-0.004-0.073c-0.43-0.643-1.142-0.927-1.73-1.355c-2.339-1.705-4.839-3.173-7.216-4.823
	c-0.369-0.256-1.073-0.521-0.879-0.975c0.233-0.543,0.848-0.078,1.261,0.036c2.792,0.767,5.513,1.763,8.286,2.592
	c3.945,1.178,7.849,2.494,11.826,3.566l-0.004-0.005c1.415,0.614,2.942,0.879,4.383,1.412c0.163,0.06,0.329-0.055,0.489,0.016
	c0.088,0.004,0.176,0.007,0.264,0.011c2.188,0.939,4.494,1.524,6.765,2.205c1.797,0.539,3.589,1.093,5.376,1.664
	c0.304,0.097,0.72,0.361,0.928,0.111c0.243-0.293-0.201-0.561-0.347-0.836c-0.144-0.272-0.332-0.52-0.527-0.759
	c-0.044-0.05-0.082-0.104-0.118-0.159c-0.107-0.192-0.23-0.372-0.382-0.533c-0.04-0.046-0.076-0.096-0.11-0.148
	c-0.119-0.213-0.294-0.381-0.457-0.559c-0.041-0.046-0.077-0.095-0.111-0.147c-0.136-0.248-0.341-0.431-0.56-0.603
	c-0.073-0.067-0.132-0.145-0.18-0.231c-0.089-0.196-0.244-0.351-0.336-0.543c-0.09-0.189-0.229-0.41-0.063-0.594
	c0.18-0.2,0.393-0.034,0.58,0.055c0.085,0.041,0.163,0.096,0.24,0.151c2.184,1.583,4.524,2.942,6.648,4.613
	c0.686,0.54,1.288,1.182,2.028,1.654c0.095,0.051,0.126,0.153,0.185,0.233c0.008,0.04,0.013,0.081,0.015,0.122
	c0.059,0.223,0.277,0.217,0.433,0.299c0.18,0.098,0.32,0.238,0.423,0.415c0.223,0.296,0.535,0.512,0.744,0.821
	c0.143,0.205,0.385,0.295,0.547,0.478c0.12,0.007,0.23,0.035,0.318,0.125c0.652,0.67,1.359,1.288,1.959,2.009
	c0.252,0.311,0.418,0.694,0.764,0.927c0.172,0.177,0.38,0.317,0.538,0.508c0.124,0.059,0.213,0.153,0.269,0.278
	c0.074,0.12,0.1,0.268,0.218,0.362c0.135,0.108,0.255,0.231,0.369,0.36c0.042,0.045,0.085,0.09,0.127,0.135
	c0.171,0.257,0.245,0.591,0.576,0.721l-0.003-0.003c0.168,0.258,0.247,0.586,0.573,0.718l-0.002-0.003
	c0.922,1.357,1.848,2.71,2.857,4.005l-0.002-0.004c0.758,0.951,1.284,2.045,1.867,3.1c1.726,3.12,3.016,6.427,4.124,9.81
	c0.158,1.404,0.683,2.723,0.94,4.105c0.08,0.43,0.107,0.884,0.356,1.27l-0.001-0.001c0.064,0.284-0.115,0.608,0.143,0.86
	l-0.002-0.003c0.163,0.268-0.176,0.618,0.14,0.862c0.011,0.043,0.013,0.086,0.007,0.13c0.072,0.285-0.125,0.615,0.142,0.868
	l-0.003-0.004c0.145,0.321-0.247,0.719,0.142,1.006c0.01,0.043,0.011,0.085,0.003,0.128c0.13,0.376-0.275,0.815,0.138,1.157
	c0.001,0.09,0.003,0.181,0.004,0.271c0.126,0.25,0.065,0.495-0.024,0.737c-0.1,0.274,0.014,0.494,0.165,0.708
	c0.01,0.043,0.01,0.085,0.001,0.128c0.112,0.273,0.07,0.54-0.008,0.816c-0.132,0.463-0.118,0.918,0.148,1.341
	c0.001,0.138,0.002,0.276,0.003,0.414c-0.083,1.095,0.055,2.186,0.051,3.279c-0.001,0.375-0.043,0.755,0.077,1.123
	c0.074,0.354,0.083,0.71,0.013,1.066c-0.123,0.37-0.336,0.726-0.169,1.14c0.025,0.147,0.018,0.292-0.03,0.434
	c-0.284,0.708-0.229,1.459-0.273,2.197c0.018,0.104,0.016,0.208-0.008,0.31c-0.157,0.296-0.255,0.601-0.122,0.937
	c0.024,0.139,0.017,0.275-0.029,0.409c-0.251,0.55-0.286,1.136-0.283,1.728c-0.003,0.077-0.019,0.149-0.045,0.221
	c-0.395,1.591-0.652,3.209-0.989,4.81c-0.061,0.291-0.031,0.647-0.483,0.642c0.158-0.881,0.301-1.766,0.476-2.644
	c0.331-1.661,0.684-3.317,0.859-4.99c-0.207-0.133-0.339,0.024-0.492,0.06c0.009-0.19,0.018-0.379,0.028-0.569
	c0.119-0.195,0.014-0.429,0.106-0.629c0.011-0.171,0.023-0.342,0.034-0.514c0.143-0.234-0.012-0.514,0.116-0.75
	c0.01-0.226,0.019-0.452,0.029-0.679c0.157-0.381-0.032-0.796,0.114-1.179c-0.026-0.275-0.026-0.548,0.025-0.821
	c0.169-0.58-0.03-1.184,0.114-1.765c0.003-1.242,0.006-2.484,0.009-3.725c-0.165-0.637,0.048-1.298-0.123-1.934
	c-0.042-0.212-0.074-0.424-0.022-0.639c-0.148-0.395,0.038-0.824-0.12-1.218c-0.053-0.175-0.053-0.352-0.025-0.53
	c-0.127-0.238,0.02-0.518-0.114-0.755c-0.053-0.172-0.066-0.346-0.03-0.522c-0.12-0.242,0.016-0.521-0.11-0.763
	c-0.052-0.128-0.058-0.259-0.031-0.393c-0.119-0.187,0.015-0.424-0.121-0.608c-0.006-0.086-0.013-0.172-0.019-0.259
	c-0.1-0.136-0.016-0.317-0.112-0.454c-0.057-0.127-0.062-0.258-0.034-0.392c-0.091-0.142-0.013-0.325-0.111-0.466
	c-0.008-0.09-0.017-0.179-0.025-0.269c-0.109-0.13-0.017-0.312-0.115-0.445c-0.112-0.517-0.362-1.006-0.313-1.554
	c-0.11-0.13-0.013-0.316-0.121-0.446c-0.042-0.038-0.049-0.081-0.021-0.13c-0.114-0.127-0.013-0.313-0.122-0.442
	c-0.408-1.318-0.796-2.644-1.229-3.954c-1.496-4.527-3.648-8.728-6.346-12.653c-1.515-2.204-3.193-4.276-5.046-6.205
	c-0.095-0.099-0.23-0.171-0.248-0.329c-0.217-0.304-0.349-0.688-0.757-0.816l0.037-0.034l-0.034,0.037
	c-0.244-0.479-0.693-0.741-1.105-1.042c-0.815-0.74-1.631-1.479-2.446-2.219c-0.07-0.196-0.277-0.232-0.413-0.351
	c-1.151-0.886-2.297-1.781-3.457-2.655c-0.446-0.336-0.928-0.626-1.393-0.937c-0.16-0.048-0.215,0.002-0.154,0.163
	c0.052,0.083,0.189,0.104,0.169,0.238c0.099,0.198,0.269,0.333,0.429,0.477c0.049,0.081,0.165,0.123,0.14,0.246
	c0.147,0.241,0.347,0.434,0.564,0.611c0.044,0.091,0.163,0.141,0.143,0.266c0.127,0.166,0.318,0.271,0.432,0.45
	c0.044,0.052,0.088,0.103,0.132,0.155c0.197,0.309,0.627,0.584,0.143,0.991c-0.376,0.038-0.696-0.106-1.002-0.302
	c-0.129-0.114-0.317-0.013-0.446-0.124c-0.491-0.082-0.963-0.225-1.41-0.446c-0.126-0.118-0.316-0.013-0.443-0.127
	c-0.48-0.123-0.983-0.171-1.414-0.447c-0.127-0.114-0.315-0.011-0.443-0.124c-0.493-0.078-0.964-0.228-1.413-0.446
	c-0.126-0.116-0.315-0.011-0.442-0.126c-0.481-0.116-0.98-0.176-1.414-0.444c-0.129-0.118-0.318-0.017-0.45-0.124
	c-0.488-0.089-0.958-0.233-1.407-0.447c-0.127-0.12-0.317-0.016-0.447-0.126c-0.477-0.128-0.977-0.179-1.41-0.447
	C112.251,54.654,112.062,54.758,111.933,54.647z"/>
<path style="fill:#010000;" d="M116.238,132.485c-0.159,0.257-0.131,0.546-0.151,0.829c-0.017,0.253,0.067,0.528-0.134,0.75
	c-0.002-0.047,0.013-0.106-0.009-0.141c-0.453-0.718-0.156-1.455-0.053-2.184c0.079-0.561,0.151-1.13,0.177-1.687
	c0.05-1.041,0.19-2.068,0.293-3.101c0.045-0.457,0.253-0.693,0.634-0.842c0.309-0.121,0.628-0.214,0.934-0.34
	c0.184-0.075,0.324-0.188,0.214-0.438c-0.46-1.04-0.675-2.161-1.049-3.231c-0.65-1.859-1.418-3.656-2.547-5.282
	c-0.524-0.755-1.047-1.503-1.864-1.991c-0.269-0.161-0.446-0.422-0.324-0.788c0.043-0.13,0.018-0.283,0.025-0.425
	c0.114,0.514,0.458,0.823,0.866,1.141c0.931,0.724,1.582,1.701,2.188,2.701c0.831,1.369,1.427,2.844,1.934,4.356
	c0.324,0.968,0.684,1.925,0.923,2.92c0.092,0.384,0.243,0.65,0.717,0.613c0.441-0.034,0.695,0.308,0.886,0.627
	c0.303,0.507,0.514,1.051,0.65,1.642c0.206,0.898,0.532,1.769,0.786,2.657c0.783,2.737,1.545,5.479,2.336,8.213
	c0.593,2.051,1.219,4.092,1.829,6.138c0.11,0.367,0.252,0.709,0.729,0.972c0.038-0.703,0.067-1.337-0.021-1.952
	c-0.414-2.908-0.809-5.815-1.48-8.684c-0.736-3.151-1.629-6.247-2.793-9.261c-1.192-3.089-2.673-6.04-4.442-8.843
	c-0.428-0.679-0.836-1.37-1.21-2.09c0.575,0.3,0.892,0.855,1.287,1.317c1.331,1.556,2.497,3.233,3.499,5.02
	c1.036,1.847,1.956,3.752,2.728,5.726c1.023,2.617,1.735,5.325,2.245,8.081c0.241,1.301,0.383,2.624,0.512,3.947
	c0.233,2.395,0.313,4.791,0.227,7.189c-0.038,1.062-0.086,2.133-0.273,3.187c-0.08,0.45-0.419,0.796-0.508,1.257
	c0.21,0.18,0.424,0.008,0.59-0.039c1.732-0.49,3.459-1.017,5.065-1.843c1.348-0.693,2.613-1.504,3.779-2.504
	c1.546-1.326,2.711-2.9,3.613-4.696c0.685-1.364,1.106-2.824,1.441-4.302c0.247-1.087,0.539-2.161,0.839-3.232
	c0.532-1.899,1.161-3.766,1.976-5.567c0.245-0.541,0.413-1.114,0.372-1.727c-0.012-0.186-0.031-0.385,0.119-0.54
	c0.021,0.683,0.021,0.683,0.59,0.734c0.046,0.993-0.449,1.828-0.8,2.703c-0.875,2.181-1.606,4.406-2.065,6.715
	c-0.516,1.449-0.752,2.98-1.303,4.419c-0.728,1.9-1.707,3.638-3.143,5.107c-1.188,1.214-2.529,2.194-4.02,3.011
	c-2.351,1.288-4.86,2.083-7.467,2.623c-0.55,0.114-1.09,0.272-1.708,0.429c0.27-0.596,0.664-0.988,1.07-1.368
	c0.654-0.612,0.725-1.379,0.651-2.21c-0.098-1.113-0.52-2.157-0.668-3.257c-0.008-0.062-0.075-0.116-0.114-0.174
	c-0.942-2.959-1.748-5.958-2.596-8.945c-0.447-1.573-0.921-3.138-1.377-4.709c-0.086-0.294-0.22-0.581-0.192-0.9
	c-0.386-0.27-0.448-0.708-0.567-1.112c-0.207-0.703-0.31-1.437-0.599-2.116c-0.34-0.8-0.599-0.881-1.434-0.651
	c-0.766,0.211-1.19,0.568-1.246,1.454c-0.084,1.342-0.168,2.689-0.365,4.024C116.406,132.051,116.375,132.283,116.238,132.485z"/>
<path style="fill:#FFFFFE;" d="M126.907,109.887c-1.691-0.11-3.302-0.327-4.74-1.213c-2.738-1.687-2.213-5-0.689-6.374
	c1.067-0.962,2.348-1.4,3.707-1.693c0.181-0.039,0.277,0.046,0.294,0.208c0.064,0.591,0.119,1.182,0.173,1.774
	c0.019,0.205-0.094,0.296-0.288,0.329c-0.471,0.081-0.921,0.234-1.339,0.465c-1.519,0.838-1.607,2.434-0.186,3.439
	c0.609,0.431,1.296,0.696,2.03,0.809c0.324,0.05,0.521,0.168,0.597,0.499C126.598,108.7,126.75,109.267,126.907,109.887z"/>
<path style="fill:#010001;" d="M145.228,116.484c0.161-0.078,0.256-0.198,0.281-0.382c0.199-1.451,0.525-2.878,0.836-4.308
	c0.066-0.305-0.098-0.695,0.31-0.881c0.177,0.172,0.162,0.388,0.125,0.6c-0.264,1.498-0.553,2.991-0.868,4.479
	c-0.04,0.19-0.126,0.357-0.247,0.508c-0.325,0.513-0.411,1.11-0.568,1.679c-0.284,1.028-0.56,2.056-1.004,3.03
	c-0.159-0.284-0.199-0.57-0.07-0.884c0.404-0.983,0.689-2.004,0.93-3.038C145.016,117.013,145.135,116.752,145.228,116.484z"/>
<path style="fill:#121212;" d="M145.664,116.501c0.064-0.937,0.342-1.836,0.502-2.756c0.163-0.944,0.326-1.887,0.489-2.831
	c0-0.048,0-0.096,0-0.143c0.039-0.58,0.069-1.162,0.285-1.713c0.001-0.143,0.002-0.286,0.003-0.429
	c0.014-0.291-0.051-0.595,0.141-0.857c0.001-0.095,0.001-0.191,0.002-0.286c0.08-0.763-0.011-1.548,0.284-2.285
	c0.001-0.143,0.001-0.286,0.002-0.429c-0.027-0.343-0.002-0.679,0.141-0.999c0.001-0.381,0.002-0.762,0.003-1.143
	c-0.007-0.781,0-1.562,0.003-2.343c0.001-0.229-0.067-0.481,0.147-0.666c0.49-0.13,0.864-0.475,1.3-0.706
	c1.573-0.835,3.146-1.668,4.713-2.514c2.025-1.094,4.043-2.202,6.066-3.301c0.203-0.11,0.42-0.196,0.703-0.327
	c0.126,0.535,0.085,1.034,0.169,1.513c0.131,0.743,0.12,1.509,0.188,2.264c0.101,1.111,0.14,2.223,0.142,3.339
	c0.003,1.638-0.119,3.265-0.257,4.896c-0.093,1.109-0.267,2.209-0.325,3.32c-0.024,0.468-0.249,0.787-0.667,1.013
	c-1.336,0.722-2.653,1.478-3.991,2.196c-3.012,1.616-6.031,3.218-9.05,4.819C146.344,116.297,146.042,116.507,145.664,116.501z"/>
<path style="fill:#121212;" d="M82.402,50.2c-0.929-0.247-1.858-0.494-2.787-0.741c-0.113-0.03-0.224-0.072-0.339-0.091
	c-0.092-0.015-0.191-0.003-0.242,0.095c-0.055,0.105,0.014,0.187,0.079,0.249c0.377,0.359,0.707,0.756,0.992,1.19
	c-0.444,0.656-1.226,0.892-1.768,1.426c-0.032,0.011-0.063,0.022-0.095,0.033c-2.078-0.288-4.175-0.008-6.248-0.185
	c-1.152-0.099-2.322,0.045-3.46-0.239c-0.157-0.039-0.331-0.011-0.497-0.011c-1.354-0.001-2.707-0.003-4.061,0
	c-0.549,0.001-1.077-0.104-1.591-0.292c0.656-0.695,1.462-1.202,2.234-1.746c2.999-2.109,6.172-3.923,9.499-5.458
	c3.756-1.733,7.651-3.086,11.678-4.034c1.725-0.406,3.472-0.737,5.224-0.999c1.119-0.167,2.26-0.235,3.388-0.354
	c2.438-0.258,4.879-0.256,7.322-0.247c0.23,0.001,0.472-0.061,0.689,0.068c0.071,0.172-0.07,0.212-0.163,0.262
	c-2.633,1.418-5.27,2.83-7.902,4.249c-1.649,0.889-3.294,1.786-4.937,2.686c-0.215,0.118-0.523,0.213-0.313,0.575
	c-0.13,0.127-0.268,0.05-0.395,0.004c-1.71-0.628-3.486-1.038-5.212-1.61c-0.655-0.217-1.347-0.266-2.115-0.568
	c1.587,1.285,3.254,2.233,4.754,3.41c-0.839,0.595-1.793,0.995-2.654,1.552C83.109,49.665,82.703,49.858,82.402,50.2z"/>
<path style="fill:#121212;" d="M128.51,58.213c-0.046-0.048-0.092-0.097-0.137-0.145c-0.841-0.578-1.561-1.303-2.372-1.92
	c-2.53-1.924-5.26-3.549-7.882-5.354c0.501,0.567,0.742,1.3,1.258,1.847c0.047,0.047,0.094,0.095,0.14,0.142
	c0.16,0.263,0.413,0.452,0.574,0.714l0-0.001c0.156,0.266,0.412,0.452,0.571,0.715l0-0.001c0.128,0.202,0.298,0.372,0.429,0.571
	l0-0.001c0.307,0.393,0.568,0.818,0.842,1.233c0.116,0.177,0.36,0.379,0.148,0.629c-0.172,0.203-0.396,0.081-0.598,0.023
	c-0.729-0.207-1.446-0.455-2.169-0.682c-3.05-0.96-6.127-1.832-9.175-2.799c-0.378-0.12-0.775-0.239-1.057-0.557
	c0.445-0.445,1.027-0.677,1.564-0.968c2.926-1.58,5.868-3.131,8.798-4.705c1.673-0.899,3.335-1.82,4.995-2.745
	c0.214-0.119,0.378-0.129,0.593-0.023c1.662,0.82,3.33,1.627,4.935,2.557c1.973,1.144,3.882,2.388,5.727,3.728
	c0.863,0.626,1.695,1.296,2.539,1.949c0.092,0.071,0.182,0.156,0.184,0.304c-2.585,1.338-5.107,2.811-7.718,4.117
	c-0.699,0.35-1.338,0.813-2.059,1.126C128.543,58.013,128.534,58.122,128.51,58.213z"/>
<path style="fill:#121212;" d="M139.515,70.634c3.182-1.807,6.417-3.517,9.642-5.245c0.23-0.123,0.384-0.42,0.651-0.398
	c0.301,0.025,0.319,0.378,0.465,0.583c1.789,2.528,3.296,5.221,4.635,8.008c0.545,1.134,1.047,2.289,1.582,3.429
	c0.117,0.248,0.075,0.373-0.169,0.504c-1.548,0.834-3.084,1.689-4.631,2.525c-1.985,1.072-3.977,2.131-5.966,3.196
	c-0.167,0.089-0.351,0.165-0.372,0.393c-0.251,0.028-0.168-0.168-0.196-0.29c-1.065-3.128-2.2-6.227-3.785-9.139
	c-0.534-0.981-1.051-1.971-1.636-2.923C139.616,71.082,139.429,70.903,139.515,70.634z"/>
<path style="fill:#121212;" d="M62.106,51.786c0.031,0.331,0.253,0.463,0.537,0.584c1.201,0.512,2.308,1.2,3.424,1.87
	c0.121,0.072,0.244,0.149,0.342,0.248c0.104,0.105,0.075,0.226-0.07,0.268c-0.111,0.032-0.234,0.025-0.352,0.025
	c-2.16,0.001-4.32-0.001-6.48,0.003c-0.242,0-0.473-0.02-0.686-0.145c0.307-0.492,0.795-0.792,1.224-1.153
	C60.727,52.913,61.419,52.352,62.106,51.786z"/>
<path style="fill:#010001;" d="M86.102,47.909c-0.665-0.319-1.189-0.841-1.799-1.24c-1.031-0.674-2.054-1.36-3.08-2.041
	c-0.119-0.079-0.27-0.166-0.176-0.328c0.066-0.113,0.207-0.059,0.325-0.024c1.156,0.343,2.316,0.676,3.471,1.022
	c1.111,0.332,2.214,0.689,3.329,1.008c0.32,0.092,0.59,0.313,0.934,0.33c0.907,0.268,1.816,0.527,2.72,0.805
	c3.308,1.015,6.616,2.033,9.922,3.058c0.697,0.216,1.429,0.331,2.072,0.704c-0.863-0.012-1.663-0.305-2.473-0.555
	c-1.335-0.411-2.669-0.825-4.003-1.24c-1.513-0.47-3.017-0.969-4.539-1.407c-2.001-0.576-3.977-1.227-5.964-1.847
	c-1.332-0.415-2.672-0.804-4.01-1.201c-0.111-0.033-0.23-0.052-0.345,0.054c0.168,0.429,0.588,0.636,0.93,0.823
	c0.878,0.482,1.612,1.162,2.466,1.672c0.993,0.594,1.989,1.193,2.927,1.868c0.781,0.562,1.627,1.035,2.351,1.677
	c0.122,0.108,0.275,0.185,0.421,0.261c0.41,0.214,0.747,0.497,0.937,0.93c-0.238,0.136-0.404-0.026-0.574-0.145
	c-1.815-1.275-3.641-2.534-5.483-3.772C86.306,48.219,86.136,48.121,86.102,47.909z"/>
<path style="fill:#010101;" d="M109.08,52.63c2.188,0.847,4.458,1.443,6.69,2.154c1.599,0.509,3.219,0.955,4.826,1.44
	c0.362,0.109,0.71,0.265,1.067,0.389c0.112,0.039,0.248,0.048,0.334-0.051c0.094-0.108,0.018-0.228-0.043-0.325
	c-0.214-0.342-0.431-0.681-0.658-1.014c-0.094-0.138-0.21-0.26-0.207-0.441c0.573,0.422,0.831,1.083,1.221,1.641
	c0.191,0.274,0.003,0.533-0.331,0.488c-0.326-0.043-0.651-0.129-0.963-0.237c-2.69-0.932-5.445-1.651-8.158-2.508
	c-1.107-0.349-2.218-0.681-3.314-1.066c-0.264-0.093-0.471-0.213-0.595-0.464C108.993,52.63,109.037,52.627,109.08,52.63z"/>
<path style="fill:#010101;" d="M139.515,70.634c1.049,1.773,2.035,3.579,2.928,5.436c1.13,2.348,2.032,4.784,2.782,7.278
	c-0.047,0.065-0.094,0.065-0.14,0c-0.383-0.843-0.686-1.717-0.986-2.592c-0.898-2.612-2.063-5.101-3.41-7.51
	c-0.394-0.704-0.786-1.408-1.198-2.102c-0.12-0.202-0.254-0.406-0.258-0.657C139.344,70.503,139.453,70.523,139.515,70.634z"/>
<path style="fill:#010001;" d="M145.085,83.348c0.047,0,0.094,0,0.14,0c0.005,0.111,0.023,0.216,0.128,0.282
	c0.381,1.549,0.765,3.098,1.14,4.649c0.038,0.157,0.019,0.328,0.027,0.493c-0.208-0.008-0.267-0.136-0.302-0.323
	c-0.104-0.556-0.227-1.109-0.344-1.662c-0.204-0.968-0.574-1.894-0.73-2.876C145.115,83.722,145.09,83.537,145.085,83.348z"/>
<path style="fill:#010001;" d="M108.687,52.627c-0.191,0.095-0.365,0.165-0.603,0.089c-1.253-0.406-2.513-0.789-3.772-1.176
	c-0.205-0.063-0.421-0.096-0.498-0.341c0.607-0.002,1.14,0.29,1.704,0.45C106.582,51.949,107.631,52.298,108.687,52.627z"/>
<path style="fill:#010001;" d="M147.664,99.621c-0.003,0.753-0.009,1.506-0.007,2.259c0.001,0.262-0.005,0.518-0.143,0.751
	c-0.178-0.137-0.136-0.334-0.144-0.518c-0.036-0.839,0.095-1.685-0.132-2.516c-0.047-0.174-0.045-0.387,0.089-0.539
	c0.229-0.259,0.176-0.569,0.191-0.869C147.759,98.646,147.608,99.144,147.664,99.621z"/>
<path style="fill:#010001;" d="M139.235,70.492c-0.309-0.184-0.542-0.44-0.736-0.741c-0.597-0.927-1.236-1.824-1.922-2.687
	c-0.143-0.179-0.223-0.353-0.198-0.577c0.094,0.071,0.214,0.124,0.279,0.216c0.859,1.213,1.71,2.43,2.56,3.649
	C139.241,70.386,139.23,70.444,139.235,70.492z"/>
<path style="fill:#010001;" d="M147.516,97.774c-0.433-0.323-0.615-0.925-0.318-1.371c0.178-0.267,0.149-0.518,0.177-0.785
	c0.236,0.416,0.101,0.872,0.138,1.309C147.536,97.207,147.516,97.491,147.516,97.774z"/>
<path style="fill:#010001;" d="M147.375,95.49c-0.437-0.369-0.442-0.371-0.214-0.889c0.08-0.182,0.057-0.369,0.072-0.555
	C147.476,94.508,147.335,95.007,147.375,95.49z"/>
<path style="fill:#010001;" d="M147.228,93.774c-0.458-0.298-0.497-0.389-0.284-0.781c0.067-0.122,0.137-0.235,0.146-0.376
	C147.332,92.98,147.194,93.387,147.228,93.774z"/>
<path style="fill:#010101;" d="M130.089,59.924c-0.307-0.234-0.661-0.43-0.708-0.875c0.447,0.13,0.734,0.424,0.883,0.86
	C130.211,59.984,130.153,59.989,130.089,59.924z"/>
<path style="fill:#010001;" d="M147.088,92.489c-0.396-0.107-0.497-0.33-0.26-0.676c0.07-0.102,0.107-0.21,0.118-0.33
	C147.178,91.793,147.057,92.152,147.088,92.489z"/>
<path style="fill:#010001;" d="M133.659,63.495c-0.384-0.234-0.587-0.595-0.71-1.012c0.301,0.176,0.489,0.463,0.71,0.719
	C133.738,63.299,133.751,63.397,133.659,63.495z"/>
<path style="fill:#010001;" d="M146.662,89.631c-0.43-0.223-0.305-0.539-0.143-0.86C146.743,89.028,146.632,89.341,146.662,89.631z"
	/>
<path style="fill:#010001;" d="M146.8,90.489c-0.251-0.02-0.31-0.179-0.268-0.392c0.031-0.159,0.085-0.313,0.129-0.47
	C146.88,89.887,146.776,90.198,146.8,90.489z"/>
<path style="fill:#010001;" d="M146.949,91.487c-0.439-0.225-0.3-0.545-0.143-0.868C147.027,90.88,146.922,91.194,146.949,91.487z"
	/>
<path style="fill:#010101;" d="M133.659,63.495c0-0.098,0-0.195,0-0.293c0.29,0.162,0.529,0.367,0.593,0.717
	C134.025,63.818,133.771,63.756,133.659,63.495z"/>
<path style="fill:#010001;" d="M130.089,59.924c0.058-0.005,0.116-0.01,0.175-0.015c0.274,0.018,0.38,0.193,0.409,0.439
	C130.374,60.35,130.218,60.156,130.089,59.924z"/>
<path style="fill:#010001;" d="M135.811,65.773c-0.454-0.031-0.504-0.385-0.576-0.721C135.522,65.217,135.627,65.527,135.811,65.773
	z"/>
<path style="fill:#010001;" d="M136.381,66.489c-0.449-0.033-0.503-0.382-0.573-0.718C136.098,65.931,136.2,66.242,136.381,66.489z"
	/>
<path style="fill:#010101;" d="M135.108,64.918c-0.165-0.069-0.343-0.118-0.449-0.281c-0.088-0.11-0.086-0.217,0.012-0.32
	C134.888,64.466,135.078,64.633,135.108,64.918z"/>
<path style="fill:#010001;" d="M128.958,58.634c-0.218,0.007-0.435,0.012-0.433-0.299C128.672,58.43,128.856,58.473,128.958,58.634z
	"/>
<path style="fill:#010001;" d="M134.671,64.317c-0.004,0.107-0.008,0.213-0.012,0.32c-0.171-0.108-0.138-0.279-0.138-0.441
	C134.571,64.237,134.621,64.277,134.671,64.317z"/>
<path d="M78.958,52.357c-0.019,0.163,0.179,0.397,0.057,0.454c-0.302,0.143-0.559,0.403-0.929,0.402
	c-0.583-0.001-1.166,0.014-1.75,0.022c-0.366,0.057-0.729,0.022-1.092-0.028c-0.313-0.199-0.624-0.19-0.997-0.133
	c-0.829,0.128-1.673,0.111-2.511,0.004c-0.45,0.051-0.899,0.027-1.348-0.018c-0.405-0.347-0.839-0.12-1.266-0.065
	c-0.833-0.029-1.667,0.058-2.497-0.05c-0.142,0.069-0.33-0.083-0.503,0.156c1.716,0.9,3.418,1.792,5.12,2.684
	c-0.009,0.042-0.018,0.084-0.027,0.125c-3.726,0-7.453,0-11.358,0c1.078,1.09,2.161,1.923,3.172,3.035c-1.097,0-2.059,0-3.021,0
	c-0.571-0.007-1.142-0.014-1.713-0.022c-0.143-0.002-0.287,0.002-0.427-0.017c-0.121-0.016-0.238-0.083-0.261-0.209
	c-0.028-0.153,0.108-0.178,0.219-0.224c0.224-0.093,0.453-0.128,0.696-0.124c0.476,0.008,0.952-0.005,1.428,0.005
	c0.286,0.006,0.542-0.068,0.652-0.337c0.103-0.253-0.085-0.455-0.248-0.623c-0.513-0.53-1.042-1.045-1.559-1.571
	c-0.131-0.133-0.3-0.24-0.342-0.438c0.044-0.204,0.208-0.18,0.34-0.171c1.57,0.101,3.128-0.221,4.694-0.137
	c0.918,0.049,1.841,0.082,2.75,0.248c0.047,0.009,0.094,0.017,0.141,0.02c0.366,0.028,0.765-0.162,0.84-0.413
	c0.11-0.374-0.139-0.605-0.396-0.763c-0.563-0.347-1.157-0.643-1.733-0.969c-0.461-0.261-0.915-0.536-1.512-0.887
	c0.546-0.107,0.899,0.058,1.262,0.051c1.257-0.027,2.521-0.091,3.77,0.008c1.923,0.153,3.849,0.026,5.765,0.155
	c1.068,0.072,2.131,0.08,3.197,0.111c0.265,0.008,0.534,0.021,0.673-0.278c0,0,0.013-0.026,0.013-0.026
	C78.494,52.184,78.73,52.14,78.958,52.357z"/>
<path style="fill:#5B5B5C;" d="M100.093,105.198c-8.88-6.69-17.759-13.381-26.639-20.071c0.013-0.024,0.026-0.048,0.04-0.072
	c9.383,5.089,18.767,10.178,28.161,15.272c-9.262-9.312-18.498-18.597-27.782-27.931c0.336-0.102,0.443,0.131,0.578,0.244
	c3.326,2.77,6.644,5.55,9.969,8.323c7.27,6.065,14.494,12.184,21.813,18.191c0.313,0.257,0.489,0.551,0.573,0.945
	c1,4.671,2.013,9.34,3.015,14.011c0.094,0.439,0.257,0.758,0.689,0.999c0.852,0.475,1.643,1.051,2.296,1.793
	c1.823,2.07,2.4,4.535,2.293,7.218c-0.001,0.015-0.03,0.029-0.064,0.06c-0.246,0.017-0.319-0.232-0.47-0.358
	c-3.01-2.518-6.02-5.037-9.017-7.571c-0.259-0.219-0.427-0.169-0.683-0.03c-1.84,0.993-3.688,1.97-5.627,3.001
	c-0.727-2.376-1.446-4.722-2.198-7.181c-2.352,2.483-4.463,5.098-6.759,7.55c-0.221-0.008-0.308-0.204-0.439-0.328
	c-1.793-1.706-3.589-3.408-5.364-5.133c-0.276-0.268-0.507-0.252-0.828-0.156c-1.219,0.363-2.434,0.738-3.607,1.242
	c-0.021-0.043-0.042-0.086-0.063-0.13c4.215-2.436,8.43-4.873,12.798-7.397c-1.672-0.405-3.231-0.599-4.766-0.898
	c-1.586-0.309-3.181-0.572-4.774-0.839c-1.561-0.262-3.125-0.503-4.671-0.866c7.163,0.098,14.326,0.196,21.489,0.295
	C100.066,105.32,100.08,105.259,100.093,105.198z"/>
<path style="fill:#010101;" d="M71.736,53.077c0.639-0.003,1.278-0.004,1.918-0.011c0.186-0.002,0.364,0.003,0.548-0.093
	c0.569-0.299,0.588-0.284,1.043,0.233C74.073,53.215,72.9,53.268,71.736,53.077z"/>
<path style="fill:#010101;" d="M124.519,58.5c0.217-0.368-0.051-0.667-0.143-0.991c0.43,0.326,0.691,0.792,1.074,1.231
	C125.046,58.848,124.784,58.667,124.519,58.5z"/>
<path style="fill:#121212;" d="M66.625,52.945c0.922-0.007,1.843-0.014,2.765-0.021c0.133-0.047,0.159,0.02,0.143,0.133
	C68.562,53.05,67.588,53.128,66.625,52.945z"/>
<path style="fill:#010101;" d="M130.23,61.067c0.551,0.153,1.02,0.394,1.105,1.042C130.922,61.809,130.585,61.428,130.23,61.067z"/>
<path style="fill:#010101;" d="M69.532,53.057c-0.048-0.044-0.095-0.089-0.143-0.133c0.458-0.414,0.529-0.404,0.998,0.136
	C70.102,53.111,69.817,53.104,69.532,53.057z"/>
<path style="fill:#010001;" d="M146.524,96.346c0.25,0.312,0.102,0.678,0.127,1.018c0.022,0.303-0.001,0.61-0.004,0.916
	C146.483,97.644,146.53,96.994,146.524,96.346z"/>
<path style="fill:#010101;" d="M131.332,62.106c0.504,0.038,0.751,0.316,0.757,0.816C131.82,62.665,131.531,62.427,131.332,62.106z"
	/>
<path style="fill:#121212;" d="M146.637,102.006c-0.004,0.591,0.161,1.192-0.114,1.765
	C146.512,103.18,146.481,102.587,146.637,102.006z"/>
<path style="fill:#010101;" d="M123.669,56.639c-0.443,0.032-0.545-0.251-0.564-0.611C123.437,56.099,123.579,56.345,123.669,56.639
	z"/>
<path style="fill:#121212;" d="M146.498,104.592c-0.001,0.396,0.139,0.807-0.114,1.179
	C146.394,105.375,146.339,104.973,146.498,104.592z"/>
<path style="fill:#010001;" d="M146.382,94.49c0.266,0.383,0.079,0.812,0.12,1.218C146.345,95.313,146.388,94.899,146.382,94.49z"/>
<path style="fill:#010101;" d="M122.965,55.782c-0.303-0.015-0.451-0.17-0.429-0.477C122.777,55.376,122.942,55.515,122.965,55.782z
	"/>
<path style="fill:#010101;" d="M124.244,57.354c-0.193-0.102-0.444-0.15-0.432-0.45C124.05,56.963,124.229,57.08,124.244,57.354z"/>
<path style="fill:#121212;" d="M146.355,106.45c0.012,0.258,0.104,0.528-0.116,0.75C146.222,106.941,146.203,106.682,146.355,106.45
	z"/>
<path style="fill:#010001;" d="M146.243,93.205c0.217,0.225,0.099,0.5,0.114,0.755C146.216,93.724,146.225,93.465,146.243,93.205z"
	/>
<path style="fill:#121212;" d="M122.367,55.068c-0.13-0.102-0.194-0.254-0.047-0.348c0.143-0.092,0.18,0.069,0.201,0.185
	C122.44,54.931,122.383,54.981,122.367,55.068z"/>
<path style="fill:#010001;" d="M146.103,91.92c0.214,0.229,0.096,0.505,0.11,0.763C146.081,92.442,146.094,92.181,146.103,91.92z"/>
<path style="fill:#010101;" d="M127.371,58.497c0.23,0.008,0.383,0.107,0.413,0.351C127.61,58.774,127.487,58.64,127.371,58.497z"/>
<path style="fill:#121212;" d="M146.205,107.713c0.027,0.22,0.093,0.447-0.106,0.629
	C146.088,108.124,146.068,107.905,146.205,107.713z"/>
<path style="fill:#010001;" d="M145.951,90.919c0.201,0.171,0.115,0.398,0.121,0.608C145.937,91.343,145.92,91.136,145.951,90.919z"
	/>
<path style="fill:#010001;" d="M144.958,86.063c0.156,0.115,0.122,0.283,0.122,0.442C144.977,86.375,144.932,86.229,144.958,86.063z
	"/>
<path style="fill:#010001;" d="M106.358,52.933c0.162-0.002,0.334-0.038,0.449,0.126C106.636,53.092,106.481,53.069,106.358,52.933z
	"/>
<path style="fill:#010001;" d="M145.82,90.206c0.152,0.123,0.116,0.293,0.112,0.454C145.819,90.527,145.8,90.372,145.82,90.206z"/>
<path style="fill:#010001;" d="M145.675,89.349c0.157,0.127,0.117,0.3,0.111,0.466C145.669,89.678,145.654,89.518,145.675,89.349z"
	/>
<path style="fill:#010001;" d="M104.49,52.366c0.166-0.005,0.341-0.044,0.461,0.123C104.777,52.523,104.619,52.5,104.49,52.366z"/>
<path style="fill:#010001;" d="M145.535,88.635c0.151,0.119,0.116,0.287,0.115,0.445C145.548,88.948,145.512,88.799,145.535,88.635z
	"/>
<path style="fill:#121212;" d="M86.829,47.207c-0.112-0.049-0.188-0.128-0.081-0.232c0.067-0.065,0.155-0.013,0.206,0.068
	C86.875,47.069,86.828,47.12,86.829,47.207z"/>
<path style="fill:#010001;" d="M145.101,86.635c0.157,0.117,0.122,0.286,0.121,0.446C145.121,86.948,145.078,86.8,145.101,86.635z"
	/>
<path style="fill:#010000;" d="M138.005,131.26c-0.213,0.068-0.296-0.111-0.392-0.224c-1.127-1.325-2.481-2.323-4.122-2.931
	c-0.472-0.175-0.951-0.275-1.444-0.333c-0.211-0.025-0.376-0.066-0.376-0.32c0-0.725,0-1.451,0-2.211
	C134.031,126.166,137.166,129.011,138.005,131.26z"/>
<path style="fill:#131313;" d="M116.238,132.485c-0.024-0.973,0.185-1.926,0.247-2.889c0.048-0.755,0.167-1.507,0.165-2.262
	c-0.001-0.522,0.226-0.8,0.674-0.957c0.403-0.141,0.812-0.262,1.215-0.403c0.314-0.11,0.504-0.017,0.725,0.247
	c0.381,0.458,0.542,0.991,0.682,1.539c0.211,0.825,0.397,1.657,0.706,2.454c-0.171-0.035-0.317,0.006-0.463,0.108
	c-1.024,0.715-2.17,1.219-3.24,1.858C116.729,132.312,116.476,132.385,116.238,132.485z"/>
<path style="fill:#691615;" d="M86.102,47.909c2.031,1.311,4.021,2.682,5.987,4.088c0.136,0.097,0.258,0.211,0.428,0.243
	c0.045,0.13,0.241,0.172,0.2,0.364c-2.429-0.577-4.851-1.168-7.283-1.721c-1.01-0.23-2-0.554-3.033-0.682
	c-0.095-0.142-0.079-0.237,0.083-0.334c0.422-0.25,0.827-0.529,1.248-0.781c0.542-0.323,1.093-0.633,1.642-0.944
	C85.6,48.014,85.831,47.897,86.102,47.909z"/>
<path style="fill:#010101;" d="M119.376,52.641c-0.041-0.024-0.092-0.038-0.122-0.072c-0.58-0.649-1.082-1.356-1.584-2.055
	c0.205-0.197,0.3-0.042,0.407,0.031c1.329,0.909,2.642,1.841,3.988,2.724c1.089,0.714,2.204,1.393,3.232,2.193
	c1.06,0.825,2.209,1.55,3.074,2.605c-0.209,0.134-0.34,0.015-0.487-0.128c-1.242-1.208-2.637-2.223-4.063-3.197
	c-1.445-0.987-2.9-1.959-4.348-2.941c-0.158-0.107-0.308-0.218-0.547-0.27c-0.042,0.249,0.023,0.45,0.185,0.626
	C119.243,52.297,119.382,52.429,119.376,52.641z"/>
<path style="fill:#621110;" d="M78.958,52.357c-0.235-0.007-0.469-0.014-0.704-0.022c0.026-0.345,0.355-0.422,0.56-0.583
	c0.403-0.318,0.857-0.57,1.29-0.849c0.511,0.452,1.021,0.904,1.401,1.599C80.606,52.295,79.781,52.363,78.958,52.357z"/>
<path style="fill:#010001;" d="M147.368,105.201c-0.135,0.756-0.038,1.542-0.284,2.285c-0.2-0.163-0.199-0.41-0.105-0.58
	C147.278,106.37,146.775,105.66,147.368,105.201z"/>
<path style="fill:#010001;" d="M146.94,109.058c0.013,0.589-0.12,1.153-0.285,1.713c-0.074-0.061-0.145-0.135-0.129-0.234
	c0.063-0.389,0.153-0.773,0.154-1.172C146.68,109.218,146.808,109.122,146.94,109.058z"/>
<path style="fill:#010001;" d="M147.083,107.772c-0.04,0.287,0.115,0.605-0.141,0.857
	C146.721,108.192,146.736,108.099,147.083,107.772z"/>
<path style="fill:#010001;" d="M147.511,103.773c-0.007,0.339,0.057,0.687-0.141,0.999
	C147.094,104.394,147.238,104.075,147.511,103.773z"/>
<path style="fill:#010101;" d="M120.09,53.498c-0.268-0.177-0.53-0.358-0.574-0.714C119.789,52.957,120.053,53.136,120.09,53.498z"
	/>
<path style="fill:#010101;" d="M120.661,54.212c-0.267-0.178-0.531-0.357-0.571-0.715C120.359,53.672,120.626,53.85,120.661,54.212z
	"/>
<path style="fill:#010101;" d="M121.09,54.783c-0.228-0.126-0.415-0.284-0.429-0.571C120.892,54.336,121.08,54.493,121.09,54.783z"
	/>
</svg>
