<?xml version="1.0" encoding="utf-8"?>
<!-- Generator: Adobe Illustrator 28.3.0, SVG Export Plug-In . SVG Version: 6.00 Build 0)  -->
<svg version="1.1" id="Layer_1" xmlns="http://www.w3.org/2000/svg" xmlns:xlink="http://www.w3.org/1999/xlink" x="0px" y="0px"
	 viewBox="0 0 1000 1000" style="enable-background:new 0 0 1000 1000;" xml:space="preserve">
<g>
	<path style="fill:#C7102E;" d="M521.516,927.387c-1.06-1.35-2.577-0.72-3.865-0.783c-16.795-0.815-33.323-3.519-49.83-6.571
		c-19.472-3.601-38.54-8.806-57.179-15.277c-16.461-5.715-32.548-12.516-48.114-20.542c-16.506-8.511-32.592-17.631-47.899-28.158
		c-33.846-23.278-63.573-50.95-89.197-83.046c-0.692-0.867-1.457-1.677-2.187-2.514c-1.54-0.983-3.251-0.469-4.87-0.469
		c-60.26-0.032-120.52-0.016-180.779-0.087c-1.563-0.002-3.679,1.224-4.741-1.176c5.063-8.989,10.125-17.979,15.19-26.967
		c2.276-4.038,4.557-8.073,6.836-12.109c2.156-2.203,4.95-1.496,7.503-1.498c56.601-0.044,113.201-0.04,169.802-0.016
		c3.885,0.002,7.788-0.33,11.647,0.345c1.791,0.42,2.66,1.895,3.62,3.253c14.594,20.657,31.497,39.347,50.123,56.328
		c36.928,33.668,78.972,59.013,126.204,75.667c26.895,9.484,54.5,15.666,82.793,18.954c19.112,2.221,38.344,2.693,57.475,1.641
		c47.982-2.638,93.901-13.905,137.555-34.361c32.118-15.051,61.44-34.256,88.019-57.62c33.126-29.118,60.076-63.175,80.977-102.081
		c20.649-38.437,33.589-79.286,39.464-122.436c1.631-11.977,2.179-24.064,3.171-36.112c0.462-7.307,0.806-14.605-0.237-21.889
		c-0.384-3.986-0.798-7.973,0.254-11.926c1.311-1.983,3.407-1.605,5.29-1.623c7.648-0.073,15.302-0.185,22.944,0.037
		c3.703,0.108,5.937-1.278,7.628-4.487c6.354-12.053,13.131-23.876,19.751-35.784c1.034-1.86,1.595-4.265,4.26-4.692
		c7.626,0.014,15.252,0.081,22.877,0.01c2.494-0.023,3.812,0.172,2.131,3.099c-8.255,14.372-16.412,28.801-24.586,43.219
		c-2.903,5.121-6.101,10.113-8.528,15.452c-1.99,4.377-4.208,7.446-9.563,5.959c0,2.191,0,4.026,0,5.861
		c-0.647,3.681,0.173,7.422-0.452,11.104c-0.714,19.731-2.997,39.254-6.503,58.71c-3.784,20.999-9.342,41.471-16.445,61.516
		c-7.323,20.666-16.478,40.539-27.17,59.722c-9.901,17.764-20.977,34.701-33.428,50.78c-10.577,13.659-21.91,26.594-34.012,38.944
		c-25.674,26.2-54.498,48.245-86.165,66.611c-42.344,24.558-87.691,40.937-135.946,49.2c-15.486,2.652-31.067,4.507-46.778,5.176
		c-1.22,0.052-2.526-0.189-3.626,0.633C550.458,927.387,535.987,927.387,521.516,927.387z"/>
	<path style="fill:#012169;" d="M245.022,729.673c-46.564-0.029-93.129-0.069-139.693-0.08c-16.817-0.004-33.634,0.06-50.451,0.093
		c-18.665-0.055-37.33-0.111-55.995-0.167c0-0.278,0-0.557,0-0.835c1.884-0.297,2.454-2.064,3.458-3.254
		c24.183-28.677,48.342-57.374,72.446-86.118c8.912-10.627,19.998-15.414,33.895-13.397c13.599,1.974,27.219,3.812,40.832,5.688
		c0.953,0.131,1.93,0.087,2.897,0.124c1.388-0.973,2.915-0.622,4.41-0.431c13.411,1.717,26.824,3.411,40.205,5.322
		c15.395,2.286,30.833,4.296,46.255,6.414c20.934,2.875,41.868,5.747,62.802,8.618c11.765,1.613,20.928-3.143,28.447-11.535
		c7.497-8.367,12.043-18.675,17.468-28.362c15.629-27.905,31.215-55.834,46.779-83.775c3.181-5.71,6.352-11.425,9.53-17.136
		c1.475-2.651,3.448-3.709,6.396-3.697c11.684,0.047,23.369-0.059,35.053,0.06c4.827,0.049,5.619,1.431,3.322,5.519
		c-17.164,30.553-34.211,61.17-51.319,91.754c-15.207,27.185-30.399,54.38-45.563,81.589c-4.805,8.621-9.378,17.401-15.837,24.975
		c-6.413,7.521-13.914,13.56-23.253,17.134c-4.204,1.609-8.477,2.51-13.016,2.49c-17.805-0.08-35.61-0.025-53.414-0.042
		C248.749,730.624,246.754,730.896,245.022,729.673z"/>
	<path style="fill:#012169;" d="M698.51,71.633c-3.74,6.65-7.48,13.299-11.22,19.949c-1.245,5.984-5.081,10.708-7.901,15.896
		c-11.529,21.207-23.622,42.103-35.125,63.328c-22.493,40.011-44.821,80.114-67.255,120.158
		c-7.002,12.499-13.736,25.152-21.098,37.445c-2.199,3.671-2.894,7.337-2.13,11.544c0.985,5.424,1.332,10.957,2.506,16.884
		c4.026-6.197,7.404-12.242,10.453-18.41c2.738-5.538,6.326-8.12,12.741-7.513c6.206,0.588,12.511,0.064,18.772,0.151
		c5.034,0.07,5.691,1.081,3.343,5.304c-12.44,22.367-25.112,44.604-37.462,67.02c-1.988,3.608-4.535,5.156-8.687,5.008
		c-7.226-0.258-14.469,0.008-21.703-0.105c-4.452-0.07-5.212-0.95-5.815-5.309c-0.854-6.179-1.511-12.389-2.695-19.152
		c-3.625,5.753-6.484,11.269-9.487,16.69c-16.782,30.297-33.947,60.382-50.461,90.825c-2.757,5.082-5.904,7.611-12.035,7.294
		c-10.269-0.532-20.586-0.089-30.882-0.17c-5.329-0.042-6.134-1.378-3.597-5.927c16.732-30.006,33.505-59.989,50.262-89.981
		c15.333-27.443,30.645-54.898,45.991-82.333c21.933-39.21,43.817-78.447,65.773-117.644c7.612-13.589,15.353-27.111,22.673-40.863
		c6.932-11.622,13.077-23.685,19.798-35.426c0.756-1.321,1.366-2.721,2.647-3.649c1.538-0.72,1.853-2.335,2.577-3.62
		c8.888-15.787,17.742-31.594,26.605-47.395C669.567,71.633,684.039,71.633,698.51,71.633z"/>
	<path style="fill:#C7102E;" d="M625.914,122.649c-0.869,3.554-3.125,6.416-4.827,9.546c-4.878,8.975-9.853,17.896-14.807,26.83
		c-0.595,1.072-1.009,2.295-2.158,2.972c-3.637,1.525-7.097-0.38-10.611-0.69c-11.185-0.987-22.361-2.053-33.569-2.771
		c-8.658-1.069-17.328-0.674-25.992-0.217c-11.24,0.427-22.428,1.42-33.607,2.783c-34.476,4.202-67.604,13.26-99.546,26.837
		c-35.238,14.978-67.32,35.09-96.094,60.233c-35.652,31.153-64.413,67.813-86.027,110.078
		c-18.88,36.918-30.792,75.914-36.421,116.916c-2.883,20.996-3.581,42.133-2.582,63.23c1.526,32.209,7.242,63.763,17.33,94.46
		c0.506,1.541,1.382,3.099,0.516,4.812c-15.036-1.98-30.072-3.96-45.107-5.94c-4.53-15.601-8.132-31.464-10.633-47.464
		c-4.632-29.634-5.675-59.51-3.73-89.483c3.801-58.564,19.876-113.56,47.772-165.133c16.963-31.362,37.886-59.861,62.291-85.837
		c24.401-25.972,51.818-48.264,82.076-67.028c19.565-12.133,40.008-22.544,61.368-31.274c23.275-9.513,47.196-16.736,71.756-21.798
		c14.825-3.056,29.795-5.375,44.967-6.376c7.7-0.508,15.378-1.486,23.113-1.647c4.544-0.317,9.088-0.394,13.63,0.034
		c0.747-0.001,1.495-0.002,2.242-0.002c4.549-0.442,9.1-0.301,13.652-0.07c20.012,0.992,39.952,2.612,59.623,6.679
		C622.279,122.687,624.12,122.553,625.914,122.649z"/>
	<path style="fill:#012169;" d="M973.123,451.39c-7.524,13.398-15.215,26.706-22.472,40.247c-2.23,4.16-4.657,5.983-9.567,5.751
		c-9.133-0.433-18.305-0.07-27.46-0.038c-1.012,1.193-2.432,1.229-3.817,1.314c-1.528,0.094-3.059,0.052-4.589,0.052
		c-141.467,0.001-282.934,0.001-424.4-0.001c-1.669,0-3.343,0.074-5.005-0.083c-4.049-0.382-4.964-1.781-3.154-5.479
		c2.383-4.87,5.218-9.507,7.833-14.259c10.329-18.764,21.04-37.317,31.19-56.177c2.763-5.134,6.331-6.84,12.01-6.83
		c78.732,0.138,157.463,0.094,236.195,0.094c14.188,0,28.377-0.001,42.565,0.001c1.391,0,2.785-0.049,4.172,0.065
		c4.411,0.362,5.487,2.093,3.372,6.011c-3.094,5.732-6.265,11.427-9.412,16.764c16.841-12.293,35.827-19.744,56.858-21.981
		c13.874-1.476,27.786-0.699,41.687-0.796c12.522-0.252,25.042-0.079,37.562-0.088c1.674-0.001,3.361,0.074,4.701,1.321
		c14.15,0.09,28.301,0.181,42.451,0.267c2.359,0.014,4.718,0.002,7.812,0.002C985.345,429.066,979.234,440.228,973.123,451.39z"/>
	<path style="fill:#C7102E;" d="M941.389,417.277c-14.143,0-28.287,0-42.43,0c-1.043-0.795-1.555-1.888-1.941-3.122
		c-10.955-35.053-27.085-67.579-48.001-97.729c-8.564-12.345-17.891-24.09-27.952-35.282c-15.195-16.904-31.687-32.361-49.63-46.306
		c-14.97-11.634-30.814-21.915-47.368-31.122c-24.413-13.577-50.088-24.107-76.945-31.771c-1.322-0.377-2.756-0.592-3.505-1.993
		c14.558-26.123,29.116-52.246,43.674-78.369c6.394-0.001,12.789-0.001,19.183-0.001c0.538,1.969-0.794,3.069-1.484,4.307
		c-7.166,12.859-14.299,25.738-21.696,38.464c-1.826,3.142-1.444,4.121,1.989,5.385c87.052,32.059,155.887,87.036,206.336,164.864
		C914.213,339.459,930.691,377.116,941.389,417.277z"/>
	<path style="fill:#DD7082;" d="M955.002,536.094c0-3.707-0.691-7.443,0.452-11.104
		C955.542,528.701,955.934,532.424,955.002,536.094z"/>
	<path style="fill:#F6D9DE;" d="M32.854,768.762c1.4,1.789,3.358,0.902,5.03,0.904c60.217,0.051,120.434,0.036,180.65,0.081
		c1.563,0.001,3.347-0.757,4.709,0.747c-61.91-0.024-123.819-0.047-185.728-0.077c-1.388-0.001-2.788,0.031-4.159-0.137
		C32.469,770.173,32.342,769.497,32.854,768.762z"/>
	<path style="fill:#FEFEFE;" d="M643.616,169.952c55.578,15.225,104.937,42.018,147.958,80.282
		c50.873,45.247,86.644,100.387,107.036,165.417c0.165,0.527,0.234,1.083,0.348,1.626c-9.037,0.068-18.076,0.259-27.112,0.183
		c-26.915-0.227-51.149,7.57-72.569,23.948c-0.51,0.39-1.065,0.721-2.533,1.707c4.521-8.021,8.409-15.159,12.548-22.149
		c1.766-2.983,1.127-3.536-2.138-3.534c-95.868,0.063-191.737,0.055-287.605,0.026c-2.056-0.001-3.557,0.204-4.742,2.348
		c-13.834,25.029-27.79,49.99-41.692,74.982c-0.306,0.55-0.931,1.089-0.307,2.276c1.404,0,3.022,0,4.639,0
		c143.594,0,287.188-0.001,430.782,0.012c1.798,0,3.596,0.18,5.394,0.276c0.1,4.196,0.201,8.393,0.302,12.59
		c0.642,7.518,0.625,15.036,0.005,22.555c-0.435,10.145-1.485,20.23-2.459,30.337c-1.635,16.957-5.081,33.505-9.3,49.937
		c-4.491,17.491-10.446,34.473-17.612,51.061c-9.171,21.228-20.274,41.37-33.349,60.415c-7.575,11.033-15.744,21.613-24.395,31.859
		c-8.136,9.636-16.75,18.818-25.873,27.436c-12.543,11.849-25.748,22.97-39.989,32.845c-13.144,9.114-26.577,17.66-40.636,25.322
		c-32.503,17.713-66.966,29.848-103.172,37.173c-15.199,3.075-30.565,4.889-46.042,6.046c-14.865,1.112-29.757,1.233-44.569,0.442
		c-25.767-1.375-51.189-5.381-76.164-12.201c-26.688-7.287-52.28-17.238-76.704-30.183c-23.757-12.591-45.904-27.564-66.383-45.027
		c-22.789-19.432-43.071-41.152-60.577-65.455c-0.639-0.887-1.124-1.884-1.682-2.829c17.799-0.042,35.623-0.678,53.392,0.042
		c17.35,0.702,30.117-6.917,40.95-19.301c5.62-6.424,9.701-13.853,13.835-21.256c33.013-59.122,66.054-118.229,99.071-177.349
		c0.587-1.05,1.562-1.963,1.467-3.358c-1.136-0.823-2.413-0.426-3.598-0.43c-11.683-0.035-23.367,0.066-35.048-0.083
		c-2.834-0.036-4.394,0.778-5.827,3.361c-21.603,38.954-43.338,77.833-65.043,116.731c-2.576,4.616-5.29,9.139-8.929,13.026
		c-8.389,8.962-18.269,13.436-30.917,11.629c-34.792-4.97-69.632-9.594-104.451-14.373c-0.816-0.112-1.605-0.425-2.406-0.644
		c-8.094-24.054-13.698-48.636-16.786-73.864c-2.506-20.479-3.15-41.02-2.094-61.514c2.058-39.971,10.616-78.67,25.756-115.78
		c12.754-31.262,29.47-60.268,50.263-86.929c12.154-15.583,25.417-30.14,39.794-43.646c12.135-11.4,25.093-21.845,38.754-31.412
		c16.343-11.446,33.395-21.698,51.341-30.387c25.332-12.265,51.77-21.564,79.178-27.915c13.244-3.069,26.714-5.229,40.228-6.741
		c9.716-1.087,19.471-2.335,29.308-1.833c8.857-0.702,17.713-0.725,26.569,0.012c14.861,0.458,29.66,1.541,44.292,4.336
		c0.068,1.813-1.178,3.077-1.97,4.495C541.447,275.17,480.716,383.834,419.991,492.502c-0.722,1.292-1.379,2.619-2.085,3.965
		c1.497,1.017,2.917,0.565,4.236,0.57c11.406,0.044,22.815-0.101,34.217,0.106c3.191,0.058,4.905-0.874,6.484-3.726
		c20.027-36.183,40.201-72.286,60.345-108.405c0.705-1.263,1.486-2.483,2.805-4.676c1.121,8.357,2.255,15.572,2.982,22.827
		c0.307,3.062,1.117,4.272,4.473,4.155c8.058-0.28,16.132-0.105,24.2-0.079c1.691,0.005,3.062,0.021,4.119-1.881
		c13.284-23.896,26.676-47.732,40.026-71.591c0.181-0.323,0.179-0.749,0.331-1.444c-9.599,0-19.013,0.076-28.424-0.056
		c-2.189-0.031-2.844,1.307-3.657,2.751c-4.62,8.2-9.236,16.402-14.47,25.698c-0.872-6.143-1.579-11.131-2.286-16.12
		c-0.019-0.138-0.004-0.285-0.045-0.414c-2.474-7.677,0.414-14.028,4.163-20.671c28.17-49.915,56.082-99.977,84.08-149.989
		C642.161,172.313,642.904,171.141,643.616,169.952z"/>
	<path style="fill:#E48C9A;" d="M913.93,532.495c-0.002-7.518-0.003-15.036-0.005-22.555
		C915.158,517.458,915.159,524.976,913.93,532.495z"/>
	<path style="fill:#FBF2F3;" d="M559.83,157.66c-8.856-0.004-17.712-0.008-26.569-0.012
		C542.118,156.449,550.974,156.451,559.83,157.66z"/>
	<path style="fill:#012169;" d="M615.375,729.546c2.592-4.654,4.858-8.734,7.133-12.808c11.1-19.872,22.251-39.716,33.24-59.65
		c1.325-2.404,2.722-3.258,5.471-3.249c31.717,0.105,63.434,0.057,95.151,0.077c4.887,0.003,9.695-0.554,14.497-1.437
		c16.145-2.968,23.679-14.193,27.719-28.766c3.14-11.327,0.419-21.211-7.849-29.449c-4.823-4.805-9.809-9.478-15.013-13.865
		c-20.177-17.008-25.748-38.703-20.84-63.843c1.672-8.566,1.723-8.556,10.604-8.556c25.04,0,50.08,0.052,75.119-0.066
		c3.112-0.015,4.201,0.569,4.158,4.006c-0.166,13.185,4.24,25.116,11.268,36.057c5.553,8.645,11.356,17.147,17.395,25.46
		c19.33,26.607,22.065,54.991,9.599,85.139c-6.181,14.949-13.233,29.396-24.417,41.375c-16.452,17.621-37.315,25.967-60.816,28.683
		c-7.061,0.816-14.149,0.905-21.248,0.902c-52.027-0.02-104.054-0.011-156.081-0.011
		C618.993,729.546,617.521,729.546,615.375,729.546z"/>
	<path style="fill:#012169;" d="M544.905,508.275c-3.884,7.06-7.542,13.706-11.46,20.827c22.918,0,45.346,0,67.645,0
		c0.817,1.777-0.335,2.682-0.898,3.694c-12.889,23.163-25.837,46.294-38.673,69.486c-1.169,2.112-2.467,2.843-4.868,2.831
		c-20.866-0.098-41.733-0.061-62.599-0.047c-1.592,0.001-3.18-0.385-4.273,1.604c-8.537,15.543-17.184,31.026-26.061,47.002
		c22.969,0,45.415,0,67.805,0c0.659,1.904-0.576,2.915-1.199,4.036c-12.747,22.927-25.546,45.825-38.31,68.742
		c-1.039,1.865-1.938,3.186-4.623,3.179c-47.854-0.119-95.708-0.087-143.562-0.094c-0.52,0-1.04-0.09-1.593-0.141
		c-0.167-1.674,0.939-2.694,1.582-3.844c39.976-71.466,79.987-142.913,119.96-214.381c1.073-1.919,2-3.254,4.639-3.241
		c24.9,0.12,49.801,0.074,74.702,0.086C543.529,508.017,543.939,508.131,544.905,508.275z"/>
	<path style="fill:#012169;" d="M513.05,729.546c8.713-15.584,17.086-30.577,25.476-45.561
		c32.133-57.39,64.293-114.764,96.339-172.203c1.542-2.764,3.073-3.895,6.358-3.872c23.504,0.168,47.009,0.09,70.514,0.09
		c1.358,0,2.717,0,4.067,0c0.225,1.893-0.899,2.903-1.546,4.059c-39.899,71.33-79.841,142.635-119.681,213.998
		c-1.494,2.676-3.083,3.579-6.115,3.563C563.568,729.489,538.675,729.546,513.05,729.546z"/>
	<path style="fill:#C7102E;" d="M195.732,507.487c-1.802-1.507-3.604-3.014-5.742-4.802c6.927-4.244,14.112-7.906,20.448-12.691
		c11.058-8.35,23.017-11.077,36.835-10.458c21.224,0.951,42.523,0.196,63.789,0.307c3.312,0.017,6.184-0.75,9.12-2.2
		c35.308-17.431,70.657-34.779,105.996-52.147c1.061-0.522,2.133-1.022,4.057-1.943c-2.152,4.258-3.865,7.646-5.577,11.035
		c0.188,1.635-0.622,2.967-1.367,4.292c-17.562,31.232-34.947,62.563-52.521,93.788c-6.88,12.224-13.665,24.502-20.565,36.715
		c-2.376,4.206-2.546,4.107-6.419,1.098c-7.264-5.642-13.345-12.556-20.055-18.785c-8.335-7.738-16.886-15.288-24.716-23.573
		c-1.91-2.021-3.989-3.875-6.592-5.025c-1.785-0.503-3.598-0.271-5.39-0.275c-23.7-0.059-47.4,0.076-71.09-0.069
		c-1.885-0.081-3.487-0.952-4.876-2.105C205.886,516.343,199.802,513.086,195.732,507.487z"/>
	<path style="fill:#012169;" d="M254.434,407.317c-3.862,0.026-6.958-0.301-10.414-0.025c-3.051,0.244-3.642-0.973-3.681-3.761
		c-0.317-22.532-0.729-45.064-1.272-67.592c-0.072-3.002,0.843-3.76,3.713-3.677c6.672,0.195,13.356,0.185,20.028,0.001
		c2.625-0.072,3.326,0.792,3.269,3.31c-0.151,6.629-0.051,13.263-0.051,19.895c0.391,0.112,0.782,0.225,1.173,0.337
		c8.133-6.934,16.343-13.782,24.349-20.859c2.264-2.001,4.522-2.75,7.472-2.678c7.09,0.171,14.192,0.189,21.28-0.012
		c2.765-0.078,3.462,0.826,3.588,3.482c0.464,9.808,1.2,19.603,1.903,30.473c2.379-2.76,4.143-4.792,5.891-6.836
		c7.05-8.243,14.093-16.493,21.147-24.733c0.968-1.131,1.744-2.356,3.627-2.35c18.601,0.062,37.203,0.037,55.817,0.037
		c0.281,1.816-0.822,2.846-1.467,4.006c-12.545,22.562-25.164,45.082-37.626,67.689c-1.319,2.393-2.67,3.339-5.446,3.277
		c-8.896-0.198-17.798-0.074-27.45-0.074c10.227-18.358,20.23-36.314,30.291-54.373c-1.577-0.194-1.889,0.997-2.48,1.684
		c-14.148,16.447-28.321,32.871-42.325,49.44c-2.107,2.493-4.256,3.408-7.431,3.314c-7.088-0.209-14.19-0.173-21.28-0.009
		c-2.582,0.06-3.535-0.506-3.617-3.333c-0.251-8.727-0.873-17.444-1.409-27.218c-5.887,7.306-11.773,13.462-16.279,20.502
		l-8.053,10.104L254.434,407.317z"/>
	<path style="fill:#012169;" d="M464.689,343.981c-2.792,5.209-5.664,10.507-9.18,16.822c-1.235-9.174-2.41-16.997-3.281-24.854
		c-0.307-2.772-1.223-3.761-4.107-3.692c-8.065,0.193-16.139,0.148-24.207,0.017c-2.339-0.038-3.737,0.581-4.929,2.74
		c-12.749,23.088-25.619,46.11-38.414,69.173c-0.475,0.857-1.607,1.652-0.795,3.041c8.721,0,17.484-0.121,26.24,0.069
		c2.849,0.062,4.453-0.75,5.815-3.343c4.249-8.087,8.803-16.014,13.239-24.003c0.297,0.082,0.595,0.163,0.892,0.245
		c1.016,7.677,2.095,15.346,3.014,23.034c0.338,2.828,1.116,4.247,4.512,4.103c7.777-0.33,15.582-0.249,23.368-0.03
		c2.913,0.082,4.382-0.919,5.771-3.438c12.469-22.609,25.098-45.129,37.641-67.697c0.632-1.137,1.834-2.164,1.289-3.844
		c-5.571,0-11.181,0.006-16.674-0.151h-13.652L464.689,343.981z"/>
	<path style="fill:#012169;" d="M608.85,407.227c12.743-22.872,25.352-44.9,37.27-67.295c3.191-5.997,6.66-7.988,13.388-7.796
		c18.897,0.539,37.818,0.18,56.73,0.194c4.831,0.004,5.321,0.797,2.994,4.959c-9.275,16.59-18.611,33.146-27.834,49.766
		c-1.071,1.931-2.222,2.694-4.505,2.666c-11.401-0.139-22.806,0.01-34.207-0.122c-2.403-0.028-3.731,0.689-4.795,2.853
		c-2.08,4.228-4.513,8.282-6.699,12.46c-0.759,1.451-1.479,2.385-3.392,2.363C628.379,407.168,618.955,407.227,608.85,407.227z"/>
	<path style="fill:#012169;" d="M791.129,392.649c0.58,0.21,0.693,0.267,0.813,0.291c5.919,1.203,9.59-0.819,12.202-6.617
		c3.292-7.309,7.771-14.077,11.608-21.15c1.104-2.035,2.326-3.001,4.805-2.919c6.251,0.207,12.514,0.115,18.77,0.044
		c2.252-0.026,3.546,0.003,1.95,2.83c-7.503,13.289-14.881,26.649-22.226,40.026c-0.851,1.55-1.809,2.117-3.574,2.112
		c-20.853-0.059-41.706-0.038-62.505-0.038c-0.723-1.42,0.368-2.225,0.853-3.099c12.729-22.925,25.53-45.811,38.225-68.754
		c1.205-2.179,2.479-3.138,5.109-3.12c19.467,0.128,38.936,0.122,58.404,0.017c3.209-0.017,3.457,0.358,2.254,3.548
		c-3.29,8.727-8.793,12.205-18.25,10.874c-6.545-0.921-13.325-0.142-19.999-0.202c-1.648-0.015-2.853,0.253-3.754,1.88
		C807.688,363.046,799.489,377.678,791.129,392.649z"/>
	<path style="fill:#012169;" d="M725.947,392.999c9.255,0,17.9,0,27.107,0c-2.571,4.604-4.875,8.674-7.117,12.777
		c-0.61,1.116-1.41,1.478-2.671,1.475c-18.465-0.037-36.93-0.026-55.376-0.026c-0.387-1.693,0.67-2.589,1.244-3.623
		c12.603-22.69,25.261-45.35,37.809-68.071c1.278-2.314,2.607-3.319,5.427-3.291c16.832,0.169,33.667,0.152,50.5,0.025
		c3.346-0.025,3.278,0.517,2.208,3.568c-3.13,8.927-8.79,12.447-18.168,10.793c-3.778-0.666-7.776,0.007-11.665-0.154
		c-2.329-0.096-3.84,0.468-4.953,2.731c-2.07,4.208-4.485,8.246-7.095,12.968c9.099,0,17.698,0,27.128,0
		c-2.777,4.933-5.147,9.118-7.489,13.318c-0.904,1.622-2.438,1.047-3.731,1.057c-6.956,0.055-13.915,0.138-20.867-0.035
		c-2.448-0.061-3.763,0.777-4.847,2.913C731.151,383.841,728.644,388.122,725.947,392.999z"/>
	<path style="fill:#012169;" d="M569.272,407.229c2.075-3.755,3.856-7,5.657-10.234c11.412-20.488,22.871-40.95,34.185-61.492
		c1.309-2.377,2.676-3.321,5.457-3.256c8.881,0.208,17.77,0.077,26.645,0.077c0.494,1.566-0.584,2.486-1.154,3.51
		c-12.676,22.801-25.423,45.562-38.031,68.4c-1.241,2.248-2.545,3.107-5.125,3.059C587.914,407.127,578.917,407.229,569.272,407.229
		z"/>
	<path style="fill:#012169;" d="M294.476,522.525c17.518,16.61,35.035,33.221,52.803,50.068
		c11.231-20.073,22.178-39.678,33.162-59.263c14.725-26.256,29.477-52.495,44.217-78.742c2.219-1.043,4.439-2.086,7.597-3.57
		c-1.134,2.083-1.808,3.345-2.504,4.594c-26.133,46.881-52.312,93.736-78.315,140.689c-1.978,3.571-2.965,2.914-5.371,0.61
		c-15.66-14.997-31.482-29.824-47.162-44.8c-2.043-1.951-4.052-2.836-6.933-2.822c-23.909,0.117-47.82,0.031-71.729,0.118
		c-2.521,0.009-4.476-0.638-6.427-2.216c-6.049-4.891-12.086-9.82-18.416-14.33c-3.393-2.418-3.15-3.786,0.333-5.375
		c6.127,4.727,12.254,9.455,18.38,14.182c1.449,0.757,3.008,0.374,4.51,0.376c23.791,0.028,47.582,0.01,71.372,0.042
		C291.487,522.089,293.057,521.645,294.476,522.525z"/>
	<path style="fill:#B44C6A;" d="M294.476,522.525c-25.216-0.019-50.432-0.023-75.647-0.09c-1.572-0.004-3.343,0.68-4.716-0.766
		c25.503-0.012,51.006-0.031,76.51-0.014C291.938,521.656,293.44,521.154,294.476,522.525z"/>
	<path style="fill:#FDFDFD;" d="M657.797,374.983c3.706-6.661,7.388-13.279,11.071-19.897c0.404-0.727,0.953-1.406,1.201-2.182
		c1.981-6.19,6.339-7.591,12.599-5.935c-2.867,5.191-5.716,10.362-8.579,15.526c-1.21,2.182-2.82,4.223-3.604,6.546
		C668.377,375.291,664.043,376.565,657.797,374.983z"/>
</g>
</svg>
