<?xml version="1.0" encoding="utf-8"?>
<!-- Generator: Adobe Illustrator 24.1.0, SVG Export Plug-In . SVG Version: 6.00 Build 0)  -->
<svg version="1.1" id="Layer_1" xmlns="http://www.w3.org/2000/svg" xmlns:xlink="http://www.w3.org/1999/xlink" x="0px" y="0px"
	 viewBox="0 0 200 200" style="enable-background:new 0 0 200 200;" xml:space="preserve">
<path style="fill:#DADFE4;" d="M191.1,95.6c-5.3-43.7-44-79.2-88.2-79.9C96.3,15.3,86.1,16,79,17.9c-0.8,0.2-1-0.1-1.1-0.8
	c-0.6-3.2-2.6-14.5-3.5-16.9c-0.1,0.4-0.1,11.8-0.1,17.1c0.1,0.7,0,1.9-0.9,2C44.8,27.2,21.2,50,12,78.1
	c-18.8,54.1,17.6,113.5,74.5,121.1C147.1,208,199.5,155.7,191.1,95.6z"/>
<path style="fill:#CE0922;" d="M74,56.8c-6.4,4.6-12.8,9.4-19,14.3c-0.7-0.1-1.1,0.4-1.6,0.7c-5.1,3.8-10.2,7.7-15.2,11.5
	c-2.4,1.9-5.5,3.4-7.3,6.1c-1,3.7-1.8,7.5-2.1,11.3c0.5,0.3,0.8-0.2,1.1-0.5c2.6-2.8,6.2-5,8.1-8.3c0.2-2.5,1.1-3.3,3.9-3.6
	c1.6-1,3-2.5,4.4-3.8c4.7-4.8,9.7-9.2,14.3-14c0.4-0.4,1-0.8,1-1.4c4.1-3.4,7.3-7.7,11.6-10.9C73.7,57.9,74.6,57.6,74,56.8z"/>
<path style="fill:#081A3F;" d="M81.4,34.5c-0.9-2.9-1.3-6-1.9-9c-0.6-3.1-0.6-3.1,2.5-3.7c25-4.9,51,0.8,71.1,16.5
	c68.4,53.7,26.7,162.5-60,156.9c-69.4-4.9-105.8-86-63.1-141C41.1,39.5,55.7,29.7,73.1,24c1.7-0.7,1.2,1.1,1.3,2.2
	c0,0.8,0,0.8,0,1.2c0,3.1,0,6.1-0.1,9.3c0,0.6-0.4,0.5-0.9,0.7c-8.2,3-15.6,7.3-22.3,12.9C28.5,69,18.9,101.1,27.5,129.2
	c7.9,27.8,33.2,49.5,61.8,53c40.5,6.5,81.3-25.1,84.9-66.1c5.3-44.9-32.4-85.4-77.5-83.3c-4.4,0.2-8.7,0.7-13,1.6
	C83,34.6,82.2,35,81.4,34.5z"/>
<path style="fill:#071B3E;" d="M85.5,177.7c-16.9-3.6-32.5-13.1-42.9-27c-0.4-0.6-0.7-0.9,0.1-1.5c6.2-4,12.5-7.9,19-11.4
	c0.9-0.5,1.4-0.5,2,0.5c2.4,3.8,5.5,7,8.8,10c0.2,0.2,0.4,0.5,1,0.5c0.1-9.3-0.1-18.5-0.3-27.8c0-1.7-0.1-1.8-1.6-1.1
	c-8,3.5-16,7.9-23.6,11.9c2-1,5.1-1.8,7.8-2.5c0.3,0,0.6,0,0.7,0.3c0.1,0.6-0.6,1-1,1.3c-3.2,2-6.4,3.9-9.5,5.8
	c1.5-0.6,3.3-0.6,5-1.1c0.5-0.1,1.1-0.2,1.3,0.3c0.3,0.5-0.3,0.8-0.7,1.1c-1,0.8-2.1,1.4-3.2,2.1c-2.6,1.6-5.1,3.4-7.7,5.1
	c-0.6,0.3-1.1,0.9-1.9,0.5c-4.1-7.1-7.3-14.5-8.9-22.6c0-0.4,0.1-0.7,0.6-0.9c8.2-3,16.5-6,24.7-9c0.1,0,0.2,0,0.6,0.1
	c-3.8,2.6-7.6,4.7-11.3,6.9c0.3,0.4,0.6,0.1,0.9,0c9-3.6,18.1-6.9,27.3-9.8c0.8-0.3,0.7-0.8,0.7-1.3c0-3.2,0-6.4,0-9.6
	c0-0.5-0.1-1,0.7-1.2c5.2-1.5,10.4-2.9,15.9-4.1c-1.6,2.5-4.9,4.4-4.4,7.8c0.1,0.7,0,1.5,0,2.2c0,2.4,0,2.4,2.3,1.8
	c23.7-6.5,48.2-10.4,72.6-12.1c-0.9,0.9-2,0.8-2.9,0.9c-24.1,4.1-47.9,10.4-70.7,19.2c-1.1,0.4-1.3,0.9-1.3,2
	C85.5,135.9,85.6,156.8,85.5,177.7z"/>
<path style="fill:#FDFDFD;" d="M81.4,34.5c42.1-10.6,86.8,18.6,92.7,61.9c10.3,64.8-62.8,110.7-116.9,73.9
	C6,136.2,16.2,56.7,74.3,36.8c0,2.2,0.2,2.7,0.1,4.6c-1.1,1.2-2.7,1.5-4.1,2.1c-7.2,3.3-13.7,7.6-19.5,13.1
	c-12.3,11.5-20,27.4-21.7,44.1c-0.2,5.3-0.6,10.6,0.3,15.8c0.6,0.9,0.3,2.3-0.1,3.2c0.4,0.8,0.2,1.6,0.5,2.4c1,1.3,1,2.8,1.4,4.3
	c1.6,6.5,4.5,12.3,7.8,18.1c1,1.5,1,1.5,2.5,0.5c9.4-5.9,18.9-11.5,29-16.1c3.1-1.8,2.7-1.3,3.2,1.8c0.3,5.7,0.1,11.4,0.1,17
	c0.1,1.3-0.9,1.7-1.7,0.7c-3-2.7-5.9-5.6-8.1-9c-1.1-1.7-1.2-1.7-3-0.8c-6,3.2-11.8,6.8-17.5,10.5c-1,0.6-0.8,1.2-0.2,1.9
	c2.4,3,4.9,6,7.8,8.6c5.5,5,11.5,9.1,18.2,12.2c4.5,2.2,9.3,3.7,14.1,4.9c0.7,0.2,1.5,0.3,2,0.9c0.6-0.2,0.3-0.8,0.3-1.1
	c0-17.5,0-35,0-52.5c0-1.2,0.2-1.7,1.4-2.2c12.5-5.2,25.4-9.3,38.5-12.9c14.2-3.7,28.5-7,43.1-8.7c1.2-0.1,1.1-0.8,1.1-1.6
	c0-1-0.7-0.9-1.3-0.9c-2.8,0.3-5.6,0.6-8.4,1c-11.7,1.7-23.3,3.7-34.9,5.9c-0.5,0.1-0.9,0.3-1.4-0.1c0-0.4,0.3-0.5,0.6-0.6
	c14.4-4.1,28.8-8,43.7-9.8c0.5-0.1,0.9,0,0.7-0.7c-0.3-1.2-0.4-2.5-0.6-3.7c-1.1-1.2-1-2.8-1.6-4.1c-0.6-1.7-1.2-3.4-1.9-5.1
	c-0.7-1.9-2.4-2.8-3.8-4C153,70,144.4,64.6,135,60.3c-2.4-1.1-4.8-2.2-7.3-3.2c-0.5-0.2-0.9-0.4-1.1-0.9c-0.3-2-0.1-2.4,1.2-2.7
	c9.3,2.5,17.7,5.9,26.5,9.9C140,45.6,117.6,35.9,95,37.4c-4.2,0.3-8.2,1.2-12.4,1.6C80.5,39.1,81.7,36,81.4,34.5z"/>
<path style="fill:#081B3E;" d="M134.6,82.2c5.3,3,10.7,5.9,16,9c-0.2,0.2-0.3,0.3-0.4,0.3c-5,0.1-10,0.7-15.1,1.2
	c-0.9,0.1-1.6-0.1-2.3-0.7c-5.5-4.3-11.3-8.3-16.6-12.8c1.4-1.3,4.4,0.7,4.8-1.8c0.1-0.7,0.6-1.2,1.3-1.5c0.7-0.2,1.4,0.1,2,0.4
	c1.6,1,3.8,1.5,4.9,3c0.3,0.9,0.1,1.8,0.2,2.8c0.1,1.8,3.3,0.7,3.9-0.4C133.9,81.6,134.3,81.7,134.6,82.2z"/>
<path style="fill:#081B41;" d="M29.4,119.7c0-0.8-0.4-1.7,0.3-2.5c6.1-8.8,13.4-16.9,19.8-25.5c0.7-0.6,1.2-1.4,1.7-2.1
	c0.3-0.4,0.6-0.9,1.2-0.8c0.6,0.3,0.5,0.9,0.5,1.4c-0.2,2.5,2.8,1.3,0.9,3.8c-4.3,6.4-8.5,12.9-12.8,19.3c-0.3,0.4-0.6,0.9-1.1,1.1
	c-0.6,1.1-1.6,1.7-2.8,2.1C34.5,117.5,32,118.6,29.4,119.7z"/>
<path style="fill:#071B3E;" d="M72.8,85.8c-1,3.1-2.2,5.9-5.2,7.8s-5.6,4.2-8.5,6.2c-0.9,0.6-1.2,1.3-1.2,2.3c0.1,2,0,3.9,0,5.9
	c0,0.6,0,1-0.8,1.2c-2.4,0.6-4.7,1.4-6.9,2.3c-0.7,0.3-0.8,0-0.6-0.6c0.1-1.5,1.1-2.5,1.7-3.7c4.6-8.2,9.4-16.4,14-24.7
	c0.4-0.7,1.3-0.8,2.1-0.6c0.9,0.1,1.8-0.2,2.6,0.3c0.9,0.5,0.6,1.6,0.7,2.4C70.9,86.1,72.1,85.3,72.8,85.8z"/>
<path style="fill:#081B3E;" d="M96.4,77.8c4.3,6.2,8.5,12.3,12.9,18.5c-2.3,0.4-4.4,0.9-6.6,1.2c-1.1,0.1-2.4,1.1-3.2,0.3
	c-0.7-0.7-0.2-2.1-0.2-3.3c-0.1-1.4,0.5-3-0.2-4s-2.3-1.1-3.6-1.5c-2.9-1.6-7.8-1.4-8.2-5.4c1.3-1,2.9-0.8,4.3-0.5
	c1.2,0.3,1.5-0.2,1.4-1.2c-0.1-2-0.1-4.4,2.2-4.9C95.9,76.9,96.3,77.2,96.4,77.8z"/>
<path style="fill:#CB0B1F;" d="M122.7,75.9c-3.6,3,1.8,3.5-6.9,3.2c-8.7-5.3-16.3-12.4-24.6-18.3c-1-0.9-5.7-3.2-2.7-4.2
	c1.8,0.3,3.2,1.7,4.9,2.3c9.5,5.4,19.2,10.5,28.7,16C122.4,75.1,122.7,75.4,122.7,75.9z"/>
<path style="fill:#091B3F;" d="M49,111.2c-1.7,2.2-5.1,2.4-7.5,3.6c-0.4,0.2-0.8,0.6-1.3,0c0-1.1,0.8-1.7,1.4-2.5
	c4.3-6.4,8.6-12.9,12.8-19.3c2.4-3.4,4.6-7,6.9-10.5c0.8-1.1,2.6-0.7,3.6,0c0.2,1-0.5,1.8-0.9,2.5C59,93.7,54.5,102.8,49,111.2z"/>
<path style="fill:#071B3E;" d="M76,82.7c-0.2,2.5-0.1,5.1-0.6,7.6c-1.2,3.9-4.7,7-4,11.5c0.2,3.1,0,3.1-2.9,4
	c-2.4,0.8-4.8,1.4-7.1,2.3c-2.1,1-0.7-2.6-1.2-3.7c-0.5-2.7,0.8-4.3,2.9-5.7c2.9-2,5.5-4.2,8.3-6.3c0.6-0.4,0.9-0.9,1.2-1.6
	c0.8-2.3,1.8-4.7,2.6-7C75.4,83.3,75.4,82.8,76,82.7z"/>
<path style="fill:#091B3D;" d="M155.5,85.6c3.5,1.5,7,3,10.7,4.6c-0.7,0.6-1.4,0.5-2.1,0.5c-3.7,0.2-7.4,0.3-11.1,0.5
	c-0.6,0-1.1-0.2-1.7-0.5c-5.4-2.9-10.7-5.9-16.1-8.8c-0.1-0.1-0.2-0.3-0.1-0.4c0.7-1.4,0.4-3.1,0.8-4.5c0.2-0.2,0.4-0.3,0.6-0.2
	c3.3,1.4,6.6,2.8,9.8,4.4c0.4,0.2,0.8,0.4,1,0.9c0,2,1.2,3.2,3.5,3.5c0.8,0.1,1.7,0.2,2.4,0.6C154.2,86.4,154.8,85.6,155.5,85.6z"/>
<path style="fill:#081C3D;" d="M114,88.7c1.8,1.9,3.6,3.8,5.6,5.9c-2.3,0.7-4.5,0.5-6.6,1.2c-2.2,0.7-3.4-0.1-4.6-1.9
	c-3.6-5.6-7.8-10.8-11.4-16.4c0.3-1.5,4.3-0.2,5.6-0.6c2.2,0.8,3.4,3.5,5.2,5c0.2,0.3,0.4,0.7,0.4,1c0.2,2.9-0.8,4.7,2.6,5.7
	C111.9,89.1,113.2,87.8,114,88.7z"/>
<path style="fill:#081B3F;" d="M115.3,79.5c5.9,4.5,11.6,8.8,17.5,13.4c-3.5,0.4-6.7,0.7-9.8,1.3c-1.8,0.3-2.9-0.1-4.1-1.4
	c-1.4-1.7-3-3.2-4.6-4.8c-0.7-0.2-1.1-0.7-1.1-1.5c0.5-1.8,0.3-3.7,0.4-5.5c0-0.8-0.1-1.6,0.8-2C114.9,79,115.1,79.2,115.3,79.5z"/>
<path style="fill:#CA0A20;" d="M95.6,77.1c-3.3,1-1.6,4.5-2.4,6.6c-0.4,0.5-1.2-0.3-1.9-0.4c-1.4-0.2-2.7,0.1-4.1,0.3
	c-0.6-1.4-1.9-2.5-2-4.1c0.2-5.4-0.3-10.9,0.2-16.2c0.8-0.9,1.1,0,1.4,0.4c2.6,3.8,5.3,7.6,7.8,11.4C95.1,75.8,95.9,76.2,95.6,77.1z
	"/>
<path style="fill:#FDFDFD;" d="M84.6,75.3c-0.9,1.2,0.8,4.3-1.4,4.2c-0.8-0.1-1.5,0.1-1.5-1.2c0.1-6.4,0-12.8,0-19.2
	c-0.1-6.9-1.3-13.7-1.8-20.5c0.6-0.4,1-0.2,1.4,0.4c1.1,4.4,1.5,8.9,2.5,13.2c1.5,6.9,0.9,14.1,1.2,21.2
	C85,74.1,85.2,74.8,84.6,75.3z"/>
<path style="fill:#CE0A1E;" d="M72.8,85.8c-1.7,0.5-2.5,0.8-2.5-1.2c-0.2-2-0.2-2-2.1-2.1c-0.7,0-1.3-0.2-2-0.3
	c-0.4-0.8,0.2-1.4,0.6-2C68.9,76.5,71,72.8,73,69c0.3-0.5,0.5-1.9,1.7-0.6c-0.2,3.9-0.3,7-0.3,10.8c0,0.4,0.3,1.4,0,1.7
	C74.4,82.7,73.6,84.3,72.8,85.8z"/>
<path style="fill:#C70E21;" d="M102.8,77.1c-1.9,0.7-4-0.3-5.8,0.3c-1.1-0.4-1.5-1.6-2.3-2.3c-3-4.4-6-8.7-9-13
	c-0.5-1-0.4-4.3,1.2-2.4c5.2,5.4,10.3,10.8,15.5,16.2C102.6,76.2,103,76.5,102.8,77.1z"/>
<path style="fill:#FDFDFD;" d="M87.6,87.7c3.1,1.2,5.9,2.3,8.8,3.5C97,91.5,97,92,97,92.5c0,1.8,0,3.5,0,5.3c0,0.7-0.2,1-1,1.1
	c-1,0.1-2,0.3-3,0.6c-1,0.3-1.1-0.1-1.1-0.9c-0.1-3,0.8-6.3-2.1-8.3C89,89.8,88,89.2,87.6,87.7z"/>
<path style="fill:#DADFE4;" d="M85.8,59.2c0,1-0.2,2,0.2,3c-0.1,0.3,0.3,0.6,0.1,0.9c-0.4,0.2-0.3,0.6-0.3,0.9
	c0.3,5.8-0.6,11.9,0.4,17.6c-2.4-1.1-1.2-4.1-1.5-6.2c-0.1-5.7-0.2-11.3-0.3-17c-0.7-6.5-2.3-12.9-3.3-19.4c-0.1-0.3-0.2-0.6,0-0.9
	c0.2-0.6-0.2-1.3,0.3-1.8c0.8,5.2,2.2,10.4,3,15.6c0.1,0.8,0.8,1.1,1.1,1.7c0.1,0.5,0.5,1.1,0.2,1.6c-0.3,0.6-0.1,1.3,0.1,1.9
	C85.9,57.8,86.7,58.6,85.8,59.2z"/>
<path style="fill:#081B3E;" d="M166.9,85.3c0,0.8,2.6,6,0.5,4.7c-3.4-1.6-6.8-3.1-10.2-4.6c-0.3-0.2-0.7-0.4-1.1-0.3
	c-1.7-0.1-0.6-2,0.5-2c1.9-0.2,4.5-0.5,6.2,0.2C163.6,85.1,165.3,85,166.9,85.3z"/>
<path style="fill:#DADFE4;" d="M49,111.2c3.1-5.5,6.1-10.9,9.2-16.4c2.3-4.1,4.5-8.1,6.8-12.2c0.2-0.1,0.5-0.1,0.6,0.1
	c-5,9.6-10.6,18.8-15.9,28.2C49.4,110.9,49.4,111.6,49,111.2z"/>
<path style="fill:#BF1019;" d="M155.5,85.6c-0.4,0.6-1,1-1.7,0.8c-2.2-0.6-4.4-1-6.4-2.1c-1-0.6-0.4-1.6-0.2-2.5
	c2.8,0.3,5.8,1.9,8.2,3.5C155.5,85.5,155.5,85.5,155.5,85.6z"/>
<path style="fill:#DADFE4;" d="M54.7,93.1c-4.8,7.3-9.5,14.6-14.4,21.7c-0.1-0.1-0.3-0.3-0.4-0.4c4.8-7.2,9.6-14.5,14.4-21.7
	C54.6,92.6,54.7,92.7,54.7,93.1z"/>
<path style="fill:#071B3E;" d="M76,82.7C76,82.7,75.9,82.7,76,82.7c0.7-1.2,2-1.1,3.4-1.5c-0.3,2.7-0.7,5.3-1,7.8
	c-0.1,0-0.2,0-0.3,0.1c-0.4-1.7-0.8-3.4-1.2-5.1C76.8,83.5,77.1,82.6,76,82.7z"/>
<path style="fill:#FAFBFB;" d="M87,86.7c-0.9,0-1.2-0.6-1.5-1c-0.8-1.1-1.7-2.2-2.6-3.1c-0.4-0.5-1.3-1.2-0.6-1.7
	C85.3,79.5,85.8,84.8,87,86.7z"/>
<path style="fill:#DADFE4;" d="M113.5,86.9c0.3,0.4,0.6,0.8,0.9,1.2c0,0.3-0.1,0.5-0.4,0.6c-1.1-0.4-8.1-7.2-6.2-7.8
	C109.7,82.8,111.9,84.5,113.5,86.9z"/>
<path style="fill:#DADFE4;" d="M135.1,81.6c0,0.1,0.1,0.2,0.1,0.3c-0.2,0.1-0.5,0.2-0.7,0.4c-1.2-0.2-6.2-2.5-5.9-3.9
	c0.2-0.2,0.4-0.2,0.6-0.2C131.3,79.2,133.4,80.1,135.1,81.6z"/>
<path style="fill:#D9DCE0;" d="M81.1,38.1c0,0.3,0,0.6,0,0.9c-0.3-0.2-0.7-0.4-1.1-0.3c-0.5-0.9-0.3-1.9-0.3-2.8
	c0-0.4,0.1-0.7,0.6-0.7s0.5,0.3,0.6,0.7C80.9,36.6,80.6,37.4,81.1,38.1z"/>
<path style="fill:#DADFE4;" d="M115.3,79.5c-1.3-0.7-2.7-1.1-3.4-2.6c0-0.2,0.2-0.4,0.4-0.4c1.3,0.7,2.4,1.6,3.5,2.6
	C115.8,79.4,115.5,79.5,115.3,79.5z"/>
<path style="fill:#DADFE4;" d="M95,75c0.7,0.7,1.3,1.5,1.7,2.3c-0.1,0.2-0.3,0.3-0.4,0.5c-0.8-0.6-1.2-1.5-1.7-2.4
	C94.7,75.2,94.8,75,95,75z"/>
<path style="fill:#081A3F;" d="M87.6,151.6c0-8.3,0-16.6,0-24.8c0-0.7,0-1.1,0.8-1.4c16.8-6.8,34-12.2,51.6-16.4
	c1.1-0.3,1.5-0.1,1.5,1.1c-0.1,4.2,0,8.4,0,12.6c0,0.9-0.2,1.4-1.2,1.5c-1.9,0.3-3.7,0.9-5.6,1.3c-0.9,0.2-0.7,0.7-0.7,1.2
	c0,14,0,28,0,42.1c0,0.9-0.3,1.3-1,1.6c-4,2.1-8.1,3.8-12.4,5.2c-1.3,0.4-1.5,0.2-1.5-1.1c0.1-14.5,0.1-28.9,0-43.4
	c0-0.9-0.2-1-1-0.8c-4.6,1.6-9.1,3.2-13.7,4.8c-0.7,0.3-1.3,3.1-0.7,3.5c0.4,0.3,0.7-0.1,1.1-0.2c3.7-1.3,7.5-2.6,11.2-3.9
	c0.9-0.3,1.1-0.2,1.1,0.7c0,6.7,0,13.3,0,20c0,0.6-0.1,0.8-0.7,1.1c-3.7,1.3-7.5,2.3-11.4,2.7c-1.1,0.1-1.6,0.5-1.4,1.6
	c0.2,1-0.5,2.4,1.1,2.1c17-2,11.5-8.6,12.4,12.8c0,0.9-0.3,1.1-1.1,1.3c-8.6,2-17.3,2.4-26.1,1.2c-2.3-0.3-2.3-0.4-2.3-2.7
	C87.6,167.5,87.6,159.6,87.6,151.6L87.6,151.6z"/>
<path style="fill:#BF1019;" d="M155.2,84.5c-2.9-1-5.6-2.3-8.3-3.7c-0.6-0.9-12.4-4.8-14.5-5.9c-7-3.1-14-6.3-21-9.5
	c-8.7-4.1-17.7-7.8-26.3-12C84,52.5,84.2,51.1,84,50c-0.7-3.3-1.4-6.7-2-10c-0.2-1,0.2-1.2,1-1.3c26.3-5.9,56.3,3.4,72.3,25.6
	c-8.9-4.1-17.8-7.5-27.1-10.3c-4.3-0.8-0.4-6.1-4.3-5.9c-1.7-0.9-2.9-2.4-4.7-3.1c-0.6-1.2-3.5-2.6-3.9-0.5c0,0.2-0.3,0.3-0.4,0.4
	c-1.8,0.4-3.3,1.5-4.9,2.4c-3.7,0.3-7-0.6-11.1-0.6c2.4,1.6,4.8,2.2,7.2,2.9c1.4,0.3,2.4,1.1,1.9,2.7c-0.9,6.3,5.1,11.2,11.1,9.3
	c0.3-0.1,0.7-0.1,1,0c1.1,0.4,1.5-0.1,1.6-1c1.1-1.4,2.3-3.5,4.1-1.5c0.4,0.4,0.9,0.8,1.5,0.7c0.1-1-1.3-1.8-0.4-2.9
	c11.1,3.8,21.3,9.9,30.7,16.9c2.1,1.6,4.2,3.2,6.1,5.1c1.8,1.8,2.2,4.4,3,6.7c-1.3,0.8-2.5-0.3-3.8-0.4c-0.1,0-0.2-0.1-0.2-0.2
	c0.1-2-1.4-1.4-2.4-1.4C158.7,83.5,156.5,82.8,155.2,84.5z"/>
<path style="fill:#CE0922;" d="M74.1,41.5c0.3,0.3,0.3,0.6,0.3,1c0.2,3.2,0.2,6.6,0.1,9.8c0.6,3.5,0.5,3.7-2.6,5.6
	c-13.2,9.9-26.3,19.7-39.5,29.6c-0.3,0.2-0.6,0.6-1,0.4C36.8,67.1,53.7,49.2,74.1,41.5z"/>
<path style="fill:#081B3F;" d="M136.1,168.7c0-8.7,0-17.3,0-25.8c0-1,0.5-0.8,1.1-0.9c5.3-0.4,20-2.5,16.3-10.6
	c-1-1.8-2.5-3.1-4.1-4.3c-1.5-1.1-3-2.2-4.7-2.9c-1.1-0.5-1.2-1.1-1.1-2c0-4.4,0.1-8.7,0-13.1c0-0.8,0.2-1.1,1.1-1.3
	c7.9-1.7,15.9-2.9,23.8-4.3c2.2-0.3,2.2-0.3,2.2,1.9c0.1,4.1-0.2,8.2-0.6,12.3c-0.2,1.5-0.7,1.8-2.1,1.6c-3.3-0.2-6.7-1.1-9.9,0
	c-0.8,0.3-0.8,0.7-0.3,1.3c2.5,2.6,6.2,3.7,9.4,5.4c0.7,0.3,1.1,0.6,0.8,1.6C162.4,145.3,151.7,159.2,136.1,168.7z"/>
<path style="fill:#B3B6BC;" d="M38.8,144.8c1-0.1,1.7-0.9,2.5-1.4c3.2-2,6.3-4.1,9.5-6.2c0.5-0.3,1.1-0.6,1.5-1.4
	c-2.6,0.5-5,1-7.4,1.4c0-0.1-0.1-0.2-0.1-0.2c3.9-2.4,7.8-4.8,11.7-7.2c-0.1-0.1-0.1-0.3-0.2-0.4c-3.2,1-6.5,1.8-9.7,2.9
	c8.3-4.9,16.9-9.2,25.7-13.1c0.9-0.4,1.3-0.4,1.3,0.8c-0.1,3.6,0.6,7.9-0.5,8.3C62.2,133,52,139,42,145.3
	C40.1,146.4,40.1,146.4,38.8,144.8z"/>
<path style="fill:#081C3D;" d="M29.3,116.8c-0.2,0-0.6,0-0.5-0.3c0.2-2.4-0.4-4.9-0.3-7.3c2.5-1.5,1-4.6,2.4-6.7
	c1-1.3,2.4-1.8,4-1.7c2.1,0.1,2.2,0,2.3-2c0.2-1.8,0.2-3.5,0-5.2c0.1-0.8,0.7-1.3,1.2-1.9c2-1.1,3.1-3.6,5.3-4.4
	c2.6,0.5,5.3-0.2,7.8,0.5c0.4,0.5,0.1,0.9-0.2,1.3c-0.6,0.9-1.2,1.6-1.9,2.4c-5.5,7.1-11.1,14.1-16.6,21.2
	C31.8,114.3,31,115.9,29.3,116.8z"/>
<path style="fill:#C40E1C;" d="M37.5,93.4c0.7,2.4,0.1,4.8,0.1,7.2c-0.7,2.3-7.2-2.2-7,5.9c0.2,1.7-0.6,2.4-2.1,2.8
	c-0.2-2.6,0-5.1,0.3-7.7c0.4-1.1,1.4-1.7,2.2-2.5c1.8-1.8,3.8-3.4,5.5-5.2C36.8,93.6,37,93.2,37.5,93.4z"/>
<path style="fill:#DADFE4;" d="M54.8,71.2C47,77,39.3,82.8,31.4,88.5c0-0.2,0-0.3,0-0.5C45.6,77.5,59.5,66.3,74,56.2
	c0.8,0.1,0.3,0.5,0.2,0.7C68.2,61.5,55.8,70.5,54.8,71.2z"/>
<path style="fill:#DADFE4;" d="M29.3,116.8c6.7-8.4,13.3-16.9,20-25.3c0.3-0.1,0.5,0.1,0.4,0.4c-6.6,8.4-13.1,17-20,25.3
	C29.6,117.1,29.5,117,29.3,116.8z"/>
<path style="fill:#DADFE4;" d="M37.5,93.4c-2.9,2.7-5.8,5.4-8.7,8.1c0-0.3,0-0.7,0-1c3.1-2.8,6.2-5.6,9-8.6c0.1-0.4,0.3-0.5,0.7-0.5
	C39.5,91.9,37.8,92.9,37.5,93.4z"/>
<path style="fill:#DADFE4;" d="M83,38.6c-0.4,0.2-0.9,0.3-0.8,1.1c0.9,4.2,1.7,8.4,2.5,12.7c0,0.5,0.6,0.7,0.7,1
	c-0.8,0.1-1.2-1.1-1.3-1.9c-0.5-4.4-2.2-8.6-2.3-13C82.2,38.6,82.6,38.6,83,38.6z"/>
<path style="fill:#BB141A;" d="M129.2,79.3c1.5,0.7,3,1.5,4.3,2.5c-0.4,0.4-0.3,1.3-0.9,1.4c-1,0.2-2.1,0.1-3.1,0.3
	c-0.4,0.1-0.4-0.5-0.4-0.8C129.1,81.6,129.1,80.5,129.2,79.3z"/>
<path style="fill:#DADFE4;" d="M128.8,78.3c0,0.2-0.1,0.4-0.1,0.6c-1.5-0.8-2.9-1.6-4.4-2.3C124.9,75.1,128.3,77.4,128.8,78.3z"/>
<path style="fill:#DADFE4;" d="M125,76.2c-0.2,0.1-0.4,0.2-0.6,0.4c-1-0.2-1.8-0.5-2.4-1.5C122.2,73.8,125,75.4,125,76.2z"/>
<path style="fill:#C2111F;" d="M54.3,92.5c-1.2,0.1-1.7-0.5-1.7-1.7c0-0.6,0.2-1.3-0.4-1.9c-0.1-0.1-0.1-0.3,0-0.4
	c1.1-1.8,2.6-3.4,3.9-5c0.3-0.3,0.7-0.8,1.1-0.1c0.4,1.5,0,3,0.3,4.5c0,0.8-0.7,1.3-0.9,2C56,90.8,55.5,92,54.3,92.5z"/>
<path style="fill:#DADFE4;" d="M52.3,88.6c-0.6,1.3-1.8,2.2-2.6,3.4c-0.1-0.1-0.3-0.3-0.4-0.4c0.8-1.1,1.7-2.2,2.5-3.3
	C52,88.2,52.3,88.3,52.3,88.6z"/>
<path style="fill:#DADFE4;" d="M54.3,92.5c0.7-0.9,1.4-1.8,2.1-2.7c1.2,0.7-1.2,2.6-1.7,3.3c-0.2-0.1-0.3-0.2-0.5-0.4
	C54.3,92.6,54.3,92.5,54.3,92.5z"/>
<path style="fill:#DADFE4;" d="M65.6,82.8c-0.1,0-0.3-0.1-0.4-0.1c-0.3-0.7,0.2-1.2,0.5-1.7c2.5-4.1,4.9-8.3,7.1-12.6
	c0.3-0.6,0.5-1.5,1.5-1.4c0,0.4,0,0.8,0,1.2c-0.3,0-0.5,0.1-0.6,0.3C71.2,73.3,68.5,78.1,65.6,82.8z"/>
<path style="fill:#DADFE4;" d="M122.3,74.8c-0.1,0.1-0.2,0.2-0.3,0.3c-9.6-5.3-19.3-10.4-28.8-15.9c0-0.8,1.1-0.5,1.5-0.2
	c8.7,5,17.6,9.7,26.3,14.6C121.5,73.9,122.2,74.1,122.3,74.8z"/>
<path style="fill:#DADFE4;" d="M112.3,76.5c-0.4,0.6-1.1,0.3-1.5-0.1c-6-4.5-12-9.2-17.9-13.8c-1.4-1.1-2.9-2.1-4.2-3.2
	c-0.4-0.4-1-0.6-1.1-1.3c0.1-0.3,0.3-0.5,0.6-0.2C96.2,64.2,104.2,70.4,112.3,76.5z"/>
<path style="fill:#DADFE4;" d="M93.5,58.9c-0.1,0.1-0.2,0.2-0.3,0.3c-1.6-0.8-3.1-1.6-4.7-2.3c-1.1-0.3-2.4-0.5-3-1.8
	c1.1-1.1,2.4,0.4,3.4,0.8c0.5,0.2,0.9,0.5,1.4,0.8C91.4,57.4,92.8,57.5,93.5,58.9z"/>
<path style="fill:#BF1019;" d="M85.5,55c1,0.6,2,1.2,3,1.8c-0.3,0.2-0.6,0.4-0.9,0.6c-1.2,0-1.8-0.8-2.3-1.8
	C85.3,55.4,85.2,55.2,85.5,55z"/>
<path style="fill:#DADFE4;" d="M85.3,55.7c0.9,0.8,2.1,1.4,2.8,2.4c-0.2,0-0.4,0.1-0.5,0.3C86.2,58.4,85,56.9,85.3,55.7z"/>
<path style="fill:#C2171F;" d="M74.4,66.9c-0.4,0.1-0.6,0.5-0.8,0.8c-2.8,5-5.6,9.9-8.4,14.9c-1-0.1-2-0.4-3.1-0.5
	c-0.3-0.7,0.2-1.1,0.5-1.6c3.4-5.3,7-10.4,10.4-15.7c0.3-0.4,0.5-0.9,1.1-0.8c0.3,0.2,0.4,0.4,0.2,0.7
	C74.4,65.5,74.4,66.2,74.4,66.9z"/>
<path style="fill:#DADFE4;" d="M74.1,64.2c-5.9,8.6-11.5,17.3-17.3,25.9c-0.1-0.1-0.2-0.2-0.4-0.3c4.6-8.9,11-16.7,16.3-25.3
	c0.4-0.6,0.7-1.3,1.5-1.5C74.8,63.4,74.7,63.8,74.1,64.2z"/>
<path style="fill:#C70E1F;" d="M93.5,58.9c-1.1-0.7-2.2-1.3-3.3-2c-0.2-0.4,0.1-0.6,0.3-0.8c15,5.9,29.4,13.4,44.3,19.6
	c0.5,0.2,1.2,0.3,1.2,1.1c-0.1,1.2-0.2,2.4-0.3,3.6c0,0.5-0.2,1-0.8,1.1c-2.1-0.9-4-2-5.8-3.2c-0.5-1-1.2-1.5-2.3-1.7
	c-1.5-0.2-1.5-0.4-1.9-2.1c0-0.2-0.1,0-0.1,0c0.5,0.6,0.1,0.9-0.4,1.2C114.1,70.5,103.9,64.4,93.5,58.9z"/>
<path style="fill:#BE101F;" d="M108,82.7c2.1,1.7,3.8,3.7,5.5,5.8c-1.2,0.8-2.2,0.6-3.7,0C106.8,87.4,108.1,84.9,108,82.7z"/>
<path style="fill:#DADFE4;" d="M85.8,59.2c0.1-0.2,0.2-0.4,0.2-0.6c1.1,0,1.7,0.9,2.2,1.6c4.8,5.3,9.7,10.5,14.7,15.6
	c0.5,0.3,1.5,1.8,0.4,1.7C97.3,71.7,91.8,65.2,85.8,59.2z"/>
<path style="fill:#DADFE4;" d="M103.4,77.5c0.1-0.1,0.2-0.3,0.4-0.4c0.4-0.1,0.7,0.1,1,0.3c1,1.5,3.2,2.5,2.8,4.6
	C106.1,80.5,104.7,79.1,103.4,77.5z"/>
<path style="fill:#C90D1F;" d="M104.5,77.4c-6.5-5.8-12-12.9-18.4-18.8c-0.1-0.5-0.6-0.8-0.5-1.4c0.8,0.1,1.2,0.9,2,1.2
	c9,7,18.3,13.5,27,20.8c-0.8,0.7-0.5,1.7-0.6,2.6c-0.1,1.7,0.4,3.5-0.5,5.1c-2-1.8-3.9-3.6-5.6-5.7c-0.4-0.6-0.4-1.4-0.4-2.1
	C107.6,77,105.5,78.3,104.5,77.4z"/>
<path style="fill:#DADFE4;" d="M95,75c-0.1,0.1-0.2,0.2-0.4,0.4c-2.8-4.1-5.7-8.2-8.5-12.3c0-0.3-0.5-0.6-0.1-0.9
	C89,66.4,92,70.7,95,75z"/>
<path style="fill:#DADFE4;" d="M85.3,77.6c0-4.7,0-9.3,0-14h0.1c0,4.7,0,9.4,0,14C85.4,77.7,85.4,77.6,85.3,77.6z"/>
<path style="fill:#DADFE4;" d="M74.1,64.2c0.2-0.4,0.5-0.7,0.1-1.1c-0.4-0.5,0-1.2-0.5-1.7c0-0.5,0.3-0.8,0.2-1.3
	c0-2.7-3.2,3.5-4,1.5c1.1-2.2,3.1-2.8,4.2-4.8c0.1-0.2,0.3-0.4,0-0.5c0.5-0.4,0.3-1,0.3-1.5c0-3.7,0-7.4,0.1-11.1
	c0.5,1.4,0.3,2.9,0.2,4.3c0.1,5.3,0.9,10.4,0.6,15.7c0,0.6,0,1.2-0.9,1.1C74.3,64.6,74.2,64.4,74.1,64.2z"/>
<path style="fill:#081B3E;" d="M104.5,77.4c3.7-0.4,3.4,0.3,3.4,3.7c-0.1,0-0.2-0.1-0.3-0.1C106.6,79.8,105.3,78.8,104.5,77.4z"/>
<path style="fill:#081B3E;" d="M124.6,75.9c0.2-0.6,0.4-1.2,0.6-1.7c0,2.3,1.6,2.3,3.2,2.4c1.2,0.1,0.6,1.2,0.9,1.8
	C127.7,77.9,126,76.8,124.6,75.9z"/>
<path style="fill:#C70B20;" d="M137,116.6c0,0.4,0.2,1.3-0.4,1.4c-1,0.1-0.3-2.3-0.5-3.1c0-0.7,0.5-0.8,0.9-1
	c0.6-0.2,1.2-0.5,1.8-0.7c0.1-0.8-0.1-1.1-1-0.9c-1.6,0.4-3.2,0.6-4.8,0.9c-0.2,3.3-0.8,6.8,0,10c1.6-0.4,3.1-0.8,4.7-1.1
	c0.8-0.1,1.2-0.4,1.2-1.3c0-2,0-4.1,0-6.1C137.3,114.6,136.8,115.2,137,116.6z"/>
<path style="fill:#181829;" d="M127,56.7c-0.3-0.5,0.1-1.1,0-1.6c-0.3-1.1,0.4-1.2,1.2-1.2c0-0.7-0.5-0.9-1.1-0.9
	c-0.4,0-0.7-0.1-0.7-0.6c0-1.2-0.4-2.3-0.3-3.4c0.1-1.2-0.4-1.2-1.2-1.3c-1.1-0.1-2.1,0.1-3.1,0.7c-3.7,2.1,0.3-5.4-6.1-5.7
	c-1.2,0,0.1,1.2-0.7,1.5c-1.9,4.2-3.8,2.4-7.5,2.6c-2.6-0.7-5.5-0.4-8.3-0.7c-0.4,0-0.9-0.2-1,0.2s0.3,0.6,0.7,0.8
	c2.2,1.2,4.6,2.1,7.1,2.6l0,0c1.5,0.4,1.9,1.3,3.2,1.9c1.6,1.1,3.6,1.6,4.8,3.3c1,1.4,1.8,2.9,2.7,4.4c0.2,0.3,0.5,0.6,0.1,0.9
	c-1.2,1-0.1,1,0.5,1.2s1.3,0.1,1.9,0.1c2.7,0.6,2.7,0.6,2.7-1.2c0.1-1.1-0.3-2.1-0.4-3.2c-0.3-0.9,0.4-1.1,1.1-0.7
	c0.7,0.4,0.9,1.3,1.6,1.6c1.3,0.5,1.9,2.3,3.7,1.8C128,58.8,126.8,57.9,127,56.7z"/>
<path style="fill:#FDFDFD;" d="M107.9,50.7c2,0.6,3.6,1.9,5.4,2.9c2,1.4,2.5,4,4,5.8c0.6,0.9,0.7,1.4-0.9,1.2c1,0.8,2.1,0.4,2.9,0.9
	c-1.4,1.1-3.1,0.8-4.6,0.4C109.5,61,106.7,55.7,107.9,50.7z"/>
<path style="fill:#DADFE4;" d="M155.2,84.4c-0.3-0.4-8.7-3.8-8.7-3.8c-3.1-1.4-6.1-2.9-9.2-4.1c-17.3-7.6-34.6-16-52.1-23.3
	c0,0.1,0,0.2,0,0.3c1.6,1.6,3.7,2.3,5.9,2.8c18.5,8.2,36.9,16.7,55.3,24.9c2.9,1.6,6.1,2.7,9.1,4.1c0.3,0,0.5,0,0.6-0.3
	C155.8,84.9,155.5,84.7,155.2,84.4z"/>
<path style="fill:#CA0D1F;" d="M70.2,61.9c0.9-0.8,1.8-1.7,2.7-2.5c0.3-0.3,0.7-1,1.1-0.7c0.6,0.3,0.1,0.9,0.1,1.4
	c-4.1,6.6-9.6,12.4-14.3,18.7c-2.1,2.8-4.5,5.4-6.6,8.2c-0.4,0.5-0.7,0.9-1.3,1.2c-2.8-0.4-5.6,0.1-8.4-0.5c-0.2-0.7,0.4-1,0.7-1.3
	c6-5.6,11.8-11.4,17.8-17C64.8,66.9,67.1,63.7,70.2,61.9z"/>
<path style="fill:#DADFE4;" d="M70.2,61.9c-6,5.7-12,11.4-17.9,17.2c-2.9,2.9-6.1,5.5-8.8,8.6c-0.3,0.1-0.8,0.3-0.7-0.2
	c6.3-6.1,12.7-12.1,18.8-18.3c0.7-0.9,5.8-6,8-7.8C69.8,61.4,70.1,61.7,70.2,61.9z"/>
<path style="fill:#DADFE4;" d="M42.9,87.5c0.1,0.1,0.2,0.2,0.3,0.3c-1.3,1.5-2.8,2.9-4.4,4.2c-0.1-0.1-0.2-0.3-0.3-0.4
	C38.9,89.5,41.3,88.6,42.9,87.5z"/>
<path style="fill:#081B3E;" d="M42,88c-1.4,1.3-2.5,2.9-4.1,3.9C37.4,89.4,39,87.9,42,88z"/>
<path style="fill:#081B3E;" d="M61,82.4c-1.1,2-2.4,3.9-3.7,5.7C56.9,86.4,57,84.7,57,83c-0.1-0.3,0.2-0.5,0.4-0.6
	C58.6,82,59.8,81.7,61,82.4z"/>
<path style="fill:#DADFE4;" d="M57.2,82.7c-1.8,1.8-3.2,3.9-4.9,5.8c-0.1-0.1-0.2-0.3-0.3-0.4c2.5-3.2,5.1-6.4,7.6-9.6
	c0.2,0.1,0.4,0.2,0.4,0.4C59.5,80.5,58.5,81.7,57.2,82.7z"/>
<path style="fill:#C5181D;" d="M57.2,82.7c4.8-7.4,10.6-14.1,15.9-21.1c0.2-0.2,0.3-0.4,0.6-0.4c1.2,0.4,0.3,1.2,0.4,1.8
	c-4.4,6.5-8.7,13-13.2,19.4C59.7,82.3,58.5,82.4,57.2,82.7z"/>
<path style="fill:#DADFE4;" d="M73.8,61.2c-4.4,6-9.2,11.8-13.8,17.7c-0.1-0.1-0.2-0.2-0.3-0.3c4.9-6.1,9.5-12.5,14.5-18.5
	C74.7,60.7,74,60.9,73.8,61.2z"/>
<path style="fill:#FAF8F8;" d="M123.7,47.8c-0.8,0.9-2.1,1-3,1.6c-0.5,0.3-0.7,0.1-0.8-0.5c-0.1-1.4-0.6-2.8-0.5-4.2
	C121.1,45.4,122.5,46.5,123.7,47.8z"/>
<path style="fill:#F7F6F6;" d="M115,44.4c-0.4,2.5-1.8,4.1-4.7,2.4C111.6,45.5,113.1,44.7,115,44.4z"/>
<path style="fill:#F8F7F7;" d="M122,60.4c-0.8-1.2-0.6-2.6-0.9-3.9c-0.1-0.7,0.3-0.7,0.8-0.6c1.3,0.2,1.9,1.2,2.4,2.3
	C123.5,58.9,122.8,59.6,122,60.4z"/>
<path style="fill:#C70B20;" d="M131.7,123.6c-0.3-1.2,0.8-4.7-1.3-4.1c-0.7,0.2-1.4,0.5-2.2,0.1c1-1.7,4.1-0.1,3.5-2.7
	c-0.2-1.2-0.9-0.2-1.3-0.3c-0.2,0-0.4,0.1-0.6,0.1c-0.4,0-1.1,0.4-1.2-0.3c-0.1-0.7,0.6-0.6,1-0.8c1.1-0.4,2.9-0.3,1.8-1.9l0,0
	c-1.9,0.6-3.8,0.8-5.7,1.5c0,2.6,0,5.3,0,7.9l0,0c0.3,0.5-0.4,1.7,0.9,1.5C128.4,124.5,130,124,131.7,123.6L131.7,123.6z"/>
<path style="fill:#C70B20;" d="M124.3,121.5c0.6-0.3,0.7-0.8,0.7-1.5c-0.1-1.4-0.1-2.9-0.1-4.3l0,0c-1.9,0.2-3.7,0.9-5.6,1.4
	c-0.4,3-0.2,6-0.2,9c0,0.9,0.7,0.7,1.3,0.5c1.5-0.1,2.2-0.6,1.8-2.4C121.7,122,121.9,122,124.3,121.5z M122.7,117.8
	c0.5-0.1,0.4,0.4,0.5,0.7c0,0.3,0,0.7-0.4,0.7C122.1,119.2,122.1,117.9,122.7,117.8z"/>
<path style="fill:#C70B20;" d="M117.9,117.6L117.9,117.6c-1,0.3-2,0.6-3,1c0,2.4,0,4.9,0.1,7.3c0,0.7-0.3,1.7,0.8,2.1l0,0
	c0.8-0.2,1.6-0.4,2.3-0.6c0-2.8,0-5.7,0-8.5C118.2,118.5,118.3,118,117.9,117.6z"/>
<path style="fill:#C70B20;" d="M114,120.4c0.1-0.6,0-1.3-0.8-1.3l0,0c-1.6,0.6-3.3,0.8-4.8,1.8c0.1,2.7,0.2,5.5,0.3,8.2
	c0,0.5-0.3,1.2,0.6,1.3c0.8-0.3,1.6-0.6,2.4-0.9c0-2.4,0-4.7,0-7.1c0-0.6-0.1-1.3,0.8-1.4c0,2.7,0.1,5.4,0.1,8.1
	c0.6,0.1,1-0.3,1.4-0.5C114,125.9,114.1,123.2,114,120.4z"/>
<path style="fill:#C70B20;" d="M101.6,133.3c-0.1-3.3-0.2-6.6-0.3-9.9l0,0c-1,0.4-1.9,0.8-2.9,1.1c0.4,2.7,0.2,5.4,0.3,8.2
	c0,0.6-0.2,1.4,0.9,1.3l0,0l0,0C100.3,133.7,101,133.5,101.6,133.3L101.6,133.3z"/>
<path style="fill:#C70B20;" d="M97.8,124.8L97.8,124.8L97.8,124.8c-2.6,0-1.4,3.2-1.8,4.9l0,0c-1.2-0.6-0.5-1.6-0.5-2.4
	c0-1.3-0.4-1.6-1.5-1.1c0,1.3,0,2.5,0,3.8c0,0.4-0.1,0.7-0.5,0.7c-0.5,0-0.3-0.5-0.4-0.8c-0.2-1,0.5-2.1-0.5-3l0,0
	c-0.7,0.4-2.3,0.3-2.3,1.4c0.1,2.8-0.1,5.7,0.1,8.5c0.1,0.5,0.2,0.8,0.8,0.6c1.5-0.5,3-0.9,4.2-1.9c-0.4-0.7-0.2-1.5-0.3-2.3
	c0-0.6,0.3-0.7,0.8-0.6c0.1,0.9,0.3,1.9,0.4,2.8l0,0c0.5-0.3,1-0.6,1.5-0.8C97.7,131.5,98,128.2,97.8,124.8z"/>
<path style="fill:#C70B20;" d="M107.9,122.7c0.1-0.6,0-1.3-0.8-1.3l0,0c-1.6,0.6-3.3,0.8-4.8,1.8c0.1,2.7,0.2,5.5,0.3,8.2
	c0,0.5-0.3,1.2,0.6,1.3c0.8-0.3,1.6-0.6,2.4-0.9c0-2.4,0-4.7,0-7.1c0-0.6-0.1-1.3,0.8-1.4c0,2.7,0.1,5.4,0.1,8.1
	c0.6,0.1,1-0.3,1.4-0.5C107.9,128.1,107.9,125.4,107.9,122.7z"/>
<path style="fill:#081A3F;" d="M79.3,51.1c-0.6-11.4-2.4-22.7-3.2-34.1c-0.6,12.9-0.1,26-0.3,39c0,8,0,16.1,0,24.1
	c0.6,0.9,1.3,0,1.9,0.1c1.4,0,1.7-0.7,1.7-2C79.3,69.1,79.4,60.1,79.3,51.1z"/>
<path style="fill:#091B3D;" d="M146.8,76.4c-0.9-1-2.9-0.2-4.4-0.4c-0.2-1.1-0.5-2.7-0.5-2.7s-0.3-0.5-0.3-0.1c0,0,0,1.2,0,1.3
	c0.3,2.9-3.3,0.6-4.8,1.8c3.3,1.4,6.7,2.9,9.9,4.4h0.1c0,0,0.1,0.1,0.1,0C147,79.3,147.7,77.4,146.8,76.4z"/>
<path style="fill:#BF1019;" d="M85.5,53.9c1.7,0.8,3.3,1.6,5,2.3c-0.1,0.2-0.2,0.4-0.3,0.7c-1.5-0.7-2.9-1.4-4.4-2.1
	C85.8,54.4,84.9,54.4,85.5,53.9z"/>
</svg>
