<?xml version="1.0" encoding="utf-8"?>
<!-- Generator: Adobe Illustrator 28.3.0, SVG Export Plug-In . SVG Version: 6.00 Build 0)  -->
<svg version="1.1" id="Layer_1" xmlns="http://www.w3.org/2000/svg" xmlns:xlink="http://www.w3.org/1999/xlink" x="0px" y="0px"
	 viewBox="0 0 1000 1080" style="enable-background:new 0 0 1000 1080;" xml:space="preserve">
<path style="fill:#B3B4B6;" d="M1.65,366.306c36.38,44.927,72.76,89.855,109.203,134.859c3.325-2.611,5.238-5.696,7.508-8.417
	c10.742-12.875,22.289-24.938,34.602-36.335c15.797-14.623,32.702-27.785,50.679-39.555c26.428-17.304,54.445-31.515,84.162-42.312
	c2.821-1.025,5.62-2.113,8.442-3.134c3.384-1.224,3.456-1.225,2.578-4.452c-1.836-6.748-3.765-13.471-5.626-20.212
	c-4.559-16.51-9.101-33.024-13.652-49.536c-0.151-0.546-0.382-1.083,0.272-1.975c22.689,8.375,45.497,16.795,69.137,25.522
	c-2.691-7.334-5.071-13.821-7.455-20.318c2.769-1.116,5.103,0.166,7.494,0.24c8.861,0.274,17.73,0.494,26.575,1.058
	c11.269,0.718,22.579,0.941,33.804,1.936c5.071,0.45,6.95-1.2,9.105-5.181c11.785-21.765,23.85-43.379,35.836-65.034
	c5.196-9.388,10.345-18.804,15.705-28.098c1.678-2.909,1.764-5.266,0.193-8.334c-5.478-10.698-10.936-21.429-15.764-32.427
	c-2.722-6.202-7.172-10.525-12.12-14.652c-2.635-2.197-5.253-4.416-7.93-6.56c-1.546-1.239-1.966-2.387-0.889-4.332
	c5.127-9.264,10.173-18.575,15.06-27.966c1.381-2.653,3.22-3.312,5.911-2.826c5.753,1.04,11.516,2.024,17.277,3.019
	c2.952,0.51,5.921,0.932,8.86,1.506c3.864,0.756,3.872,0.804,3.894,4.653c0.023,4.01,0.002,8.021,0.011,12.031
	c0.003,1.284-0.035,2.556,0.575,3.775c5.37,10.747,10.714,21.507,15.98,32.093c1.495,0.348,1.682-0.702,2.08-1.368
	c5.79-9.706,11.522-19.448,17.365-29.123c0.949-1.571,1.238-3.134,1.221-4.884c-0.037-3.867,0.028-7.735-0.021-11.601
	c-0.026-2.046,0.699-2.995,2.906-3.346c7.744-1.231,15.445-2.734,23.166-4.113c2.716-0.485,4.753-0.069,6.411,2.741
	c4.578,7.76,9.481,15.332,14.409,22.879c1.174,1.798,1.243,3.055-0.39,4.413c-0.548,0.456-0.997,1.03-1.527,1.509
	c-6.738,6.094-12.224,13.093-16.73,21.046c-7.262,12.818-15.015,25.358-22.675,37.947c-1.034,1.699-1.186,2.908-0.123,4.621
	c10.251,16.539,20.43,33.122,30.625,49.696c8.846,14.38,17.712,28.747,26.518,43.151c3.79,6.199,3.737,6.377,11.029,6.077
	c13.997-0.576,27.987-1.336,41.985-1.92c5.562-0.232,11.136-0.45,16.705-0.657c1.257-0.047,2.581-0.347,4.042,0.58
	c-1.194,4.999-2.412,10.095-3.8,15.904c12.315-3.566,23.823-7.993,35.503-11.88c11.609-3.863,23.22-7.722,35.173-11.217
	c-11.09,25.033-23.388,49.301-35.064,74.315c4.974,1.464,9.599,2.847,14.236,4.186c17.346,5.009,34.113,11.526,50.431,19.235
	c16.325,7.712,32.097,16.424,47.127,26.419c13.822,9.191,27.089,19.131,39.777,29.867c13.02,11.017,25.391,22.701,37.203,34.983
	c4.558,4.739,8.835,9.748,13.263,14.612c0.954,1.049,1.805,2.229,3.489,3.088c35.015-44.361,70.067-88.769,105.62-133.811
	c0.091,4.896-1.092,8.813-1.771,12.762c-2.727,15.877-5.605,31.729-8.472,47.582c-2.715,15.011-5.529,30.005-8.219,45.021
	c-2.463,13.754-4.8,27.53-7.228,41.29c-1.759,9.97-3.584,19.929-5.365,29.895c-2.233,12.49-4.446,24.983-6.679,37.473
	c-1.731,9.685-3.477,19.368-5.22,29.051c-2.248,12.487-4.489,24.976-6.752,37.46c-2.771,15.291-5.593,30.573-8.336,45.87
	c-2.693,15.017-5.288,30.051-7.975,45.069c-3.063,17.122-6.209,34.228-9.265,51.351c-3.257,18.247-6.419,36.511-9.682,54.756
	c-3.037,16.982-6.164,33.947-9.226,50.924c-2.076,11.506-4.165,23.01-6.109,34.539c-0.335,1.987-0.959,2.901-3.046,3.359
	c-18.536,4.064-37.181,7.569-55.851,10.922c-12.631,2.268-25.324,4.223-38.03,6.032c-12.002,1.709-24.054,3.068-36.089,4.538
	c-11.469,1.401-22.936,2.834-34.422,4.082c-7.378,0.801-14.793,1.259-22.187,1.929c-8.243,0.747-16.479,1.571-24.72,2.338
	c-4.124,0.384-8.276,0.601-12.396,0.827c-11.273,0.617-22.522,1.584-33.804,2.108c-12.42,0.577-24.842,1.167-37.257,1.806
	c-6.431,0.331-12.869,0.267-19.283,0.697c-14.009,0.938-28.05,0.381-42.053,0.977c-27.055,1.151-54.116,0.72-81.161,0.342
	c-12.437-0.174-24.91,0.009-37.328-0.757c-8.725-0.538-17.453-0.328-26.159-0.817c-12.131-0.682-24.281-1.036-36.4-1.774
	c-11.11-0.677-22.239-1.167-33.343-2.118c-5.817-0.498-11.688-0.798-17.532-1.172c-9.112-0.585-18.201-1.546-27.3-2.334
	c-7.397-0.641-14.801-1.204-22.191-1.909c-6.959-0.664-13.906-1.456-20.856-2.215c-6.1-0.666-12.198-1.341-18.292-2.054
	c-7.935-0.929-15.874-1.831-23.793-2.875c-7.209-0.95-14.399-2.048-21.59-3.13c-10.012-1.506-20.047-2.885-30.017-4.634
	c-13.199-2.315-26.37-4.805-39.502-7.474c-7.188-1.461-6.414-0.094-7.684-7.403c-2.22-12.782-4.398-25.571-6.611-38.354
	c-2.115-12.223-4.256-24.441-6.377-36.663c-1.878-10.816-3.749-21.633-5.616-32.451c-2.134-12.365-4.255-24.731-6.392-37.095
	c-1.87-10.817-3.763-21.63-5.63-32.447c-2.135-12.365-4.242-24.734-6.38-37.099c-1.87-10.817-3.78-21.628-5.647-32.446
	c-2.133-12.364-4.235-24.734-6.356-37.1c-1.904-11.1-3.816-22.199-5.726-33.299c-1.838-10.679-3.678-21.357-5.518-32.035
	c-2.179-12.645-4.334-25.294-6.546-37.934c-2.458-14.043-4.995-28.072-7.45-42.116c-2.087-11.938-4.118-23.887-6.155-35.834
	c-1.773-10.401-3.488-20.811-5.288-31.207c-1.898-10.957-3.91-21.894-5.792-32.853c-2.024-11.783-3.955-23.581-5.927-35.373
	C1.241,366.582,1.445,366.444,1.65,366.306z"/>
<path d="M109.849,918.775c-1.475-0.869-1.302-2.443-1.542-3.79c-7.441-41.821-14.873-83.644-22.276-125.472
	c-7.851-44.363-15.648-88.736-23.51-133.098c-7.013-39.573-14.107-79.131-21.121-118.704
	c-7.314-41.263-14.574-82.536-21.861-123.804c-0.695-3.938-1.416-7.871-1.54-12.187c30.187,39.286,60.373,78.572,90.889,118.287
	c55.104-68.066,123.859-115.637,207.96-140.656c-7.911-22.63-15.818-45.247-24.085-68.895
	c47.171,20.986,93.428,41.566,140.045,62.306c0.482-10.619-0.245-20.621,0.411-30.596c2.771-6.761,6.203-13.115,11.324-18.433
	c2.311,1.244,1.592,3.487,1.611,5.359c0.094,9.415,0.025,18.831,0.053,28.928c7.611-8.935,14.475-17.659,21.491-26.253
	c9.771-11.967,19.437-24.021,29.193-36.001c3.551-4.361,5.063-4.353,8.524,0.244c15.231,20.232,30.4,40.51,46.026,61.328
	c0.002-9.465-0.044-18.335,0.034-27.204c0.018-2.057-0.892-5.116,1.304-5.836c2.275-0.746,3.051,2.446,4.325,4.01
	c2.071,2.543,4.093,5.179,4.684,8.561c2.625,3.135,3.229,6.733,3.088,10.77c-0.255,7.297-0.072,14.608-0.072,21.914
	c0,1.388,0,2.776,0,5.013c45.498-20.02,90.197-39.974,135.804-60.084c-10.769,19.579-19.014,39.423-27.704,59.316
	c1.38,1.077,2.909,1.396,4.335,1.916c32.292,11.759,63.962,24.942,94.24,41.289c26.418,14.263,51.398,30.623,73.704,50.851
	c17.296,15.684,32.349,33.226,44.204,53.415c0.36,0.613,0.761,1.201,1.438,2.263c30.93-38.936,61.691-77.658,92.797-116.815
	c0.473,1.641,0.133,2.671-0.044,3.708c-4.16,24.255-8.312,48.51-12.469,72.766c-4.471,26.089-8.952,52.176-13.418,78.266
	c-4.128,24.115-8.237,48.234-12.365,72.349c-4.465,26.09-8.947,52.176-13.41,78.266c-4.438,25.949-8.852,51.903-13.293,77.852
	c-4.441,25.948-8.906,51.893-13.356,77.839c-2.951,17.204-5.889,34.41-8.857,51.612c-0.195,1.133,0.266,2.805-1.813,2.729
	c-2.541,0.697-4.797-0.431-7.056-1.223c-33.613-11.792-67.911-21.206-102.5-29.609c-15.134-3.677-30.338-7.047-45.578-10.26
	c-3.423-0.721-7.164-0.771-9.959-3.423c-30.023-7.276-60.212-13.751-90.637-19.133c-20.713-3.664-41.509-6.749-62.408-9.092
	c-15.358-1.722-30.764-2.951-46.202-3.808c-21.607-1.199-43.22-1.277-64.837-0.698c-18.894,0.506-37.726,1.977-56.528,3.932
	c-44.035,4.579-87.428,12.796-130.52,22.765c-6.943,1.675-14.023,2.661-20.975,4.317c-31.775,7.567-63.377,15.761-94.585,25.434
	c-16.419,5.089-32.792,10.309-48.771,16.679C112.68,918.528,111.286,918.723,109.849,918.775z"/>
<path style="fill:#1D2171;" d="M109.849,918.775c5.528-3.031,11.528-4.914,17.425-7.009c34.196-12.151,69.11-21.894,104.258-30.829
	c12.86-3.269,25.749-6.418,38.763-9.05c2.733-0.553,5.392-0.174,8.079-0.333c-0.336,0.626-0.787,1.296,0.207,1.729
	c1.439,0.627,2.881,1.256,4.355,1.792c17.486,6.367,35.622,10.331,53.738,14.31c13.365,2.936,26.807,5.531,40.245,8.123
	c13.158,2.539,26.359,4.843,39.637,6.689c6.328,0.88,12.632,1.927,18.945,3.085c-4.885,0.089-9.768,0.459-14.651-0.212
	c-0.989-0.136-1.991-0.285-2.983-0.263c-11.881,0.26-23.736-0.626-35.579-1.213c-12.111-0.6-24.238-1.133-36.341-2.095
	c-6.249-0.497-12.549-0.8-18.812-1.242c-8.674-0.612-17.356-1.238-26.013-2.197c-6.376-0.706-12.789-1.123-19.163-1.923
	c-6.364-0.799-12.761-1.32-19.087-2.431c-1.394-0.245-2.852-0.128-4.28-0.178c-0.219-0.178-0.396-0.438-0.738-0.368
	c0.299,0.006,0.559,0.111,0.782,0.314c3.265,1.838,6.949,2.413,10.501,3.269c33.433,8.059,67.016,15.453,100.684,22.46
	c17,3.538,34.018,6.994,51.111,10.223c-4.383,0-8.793,0.302-13.138-0.101c-3.139-0.291-6.27-0.396-9.407-0.582
	c-12.548-0.742-25.113-1.204-37.635-2.406c-4.546-0.436-9.122-0.421-13.69-0.861c-9.382-0.903-18.819-1.207-28.215-1.984
	c-11.379-0.942-22.723-2.33-34.111-3.115c-7.132-0.492-14.208-1.438-21.321-2.061c-7.955-0.697-15.875-1.834-23.788-2.937
	c-6.071-0.846-12.108-1.943-18.164-2.902c-0.506-0.08-1.045,0.043-2.452,0.12c7.066,3.071,13.511,5.334,20.017,7.388
	c15.395,4.861,31.021,8.888,46.762,12.452c15.721,3.559,31.541,6.616,47.436,9.326c12.095,2.062,24.227,3.861,36.359,5.653
	c8.184,1.209,16.441,1.925,24.667,2.851c6.053,0.681,12.107,1.345,18.156,2.186c-6.663,0.612-13.292,1.881-20.013,0.597
	c-0.973-0.186-1.999-0.109-3.001-0.12c-14.159-0.151-28.258-1.253-42.35-2.553c-8.39-0.774-16.811-1.209-25.204-1.954
	c-7.39-0.656-14.756-1.571-22.14-2.298c-6.962-0.686-13.939-1.229-20.9-1.919c-7.241-0.719-14.47-1.559-21.708-2.308
	c-6.532-0.677-13.07-1.296-19.604-1.951c-7.952-0.797-15.9-1.633-23.855-2.398c-3.837-0.369-7.693-0.552-11.534-0.867
	c-6.997-0.572-13.892-1.71-20.762-2.964c-20.778-3.793-41.439-8.158-61.86-13.585C116.191,921.259,112.809,920.605,109.849,918.775z
	"/>
<path style="fill:#FFFFFF;" d="M671.51,878.684c-5.666,1.846-11.294,3.823-17.007,5.51c-11.364,3.355-22.898,6.08-34.517,8.358
	c-9.652,1.892-19.357,3.535-29.133,4.74c-12.046,1.484-24.112,2.616-36.216,3.567c-20.576,1.616-41.165,1.729-61.762,1.352
	c-10.566-0.193-21.149-0.753-31.673-1.717c-14.487-1.327-28.958-2.809-43.391-4.781c-28.332-3.871-56.206-9.746-83.685-17.577
	c-3.146-0.897-6.221-2.042-9.323-3.088c-0.097-0.033-0.136-0.236-0.35-0.637c3.924-1.641,8.046-2.554,12.098-3.552
	c13.03-3.207,26.248-5.408,39.539-7.282c12.162-1.715,24.39-2.714,36.591-4.002c6.104-0.644,12.279-0.577,18.403-1.068
	c11.284-0.906,22.61-0.433,33.881-1.079c8.163-0.468,16.319-0.695,24.446-0.366c11.3,0.458,22.604,0.373,33.897,0.786
	c9.993,0.366,20.002,0.784,29.951,1.732c10.795,1.03,21.62,1.68,32.398,3.007c9.769,1.203,19.55,2.304,29.301,3.666
	c18.1,2.528,35.985,6.135,53.712,10.551c0.961,0.239,1.876,0.661,2.813,0.998C671.492,878.096,671.501,878.39,671.51,878.684z"/>
<path style="fill:#1D2171;" d="M729.506,877.589c10.722,2.33,21.464,4.574,32.163,7.007c30.763,6.995,61.341,14.714,91.562,23.801
	c10.121,3.043,20.173,6.307,30.096,9.943c3.726,1.366,7.687,2.003,11.274,3.765c0.978,0.984,1.862,1.971-0.303,2.57
	c-5.09,1.409-10.153,2.926-15.281,4.182c-20.236,4.956-40.615,9.27-61.142,12.817c-8.991,1.554-18.105,2.341-27.234,2.92
	c-7.112,0.451-14.187,1.482-21.283,2.207c-6.816,0.696-13.64,1.309-20.457,1.996c-7.523,0.758-15.039,1.578-22.562,2.334
	c-6.676,0.671-13.357,1.287-20.035,1.934c-8.379,0.811-16.755,1.661-25.138,2.433c-7.108,0.654-14.219,1.285-21.337,1.811
	c-11.962,0.884-23.921,1.936-35.901,2.428c-9.714,0.399-19.458,0.081-29.59,0.081c1.27-1.077,2.462-1.385,3.683-1.445
	c8.992-0.44,17.911-1.647,26.823-2.794c9.473-1.219,18.945-2.473,28.391-3.939c12.404-1.925,24.791-3.922,37.12-6.271
	c24.264-4.624,48.335-10.041,71.977-17.271c6.7-2.049,13.321-4.303,19.877-6.76c1.462-0.548,2.969-0.996,4.721-2.461
	c-3.806,0.607-7.029,1.105-10.246,1.638c-13.8,2.284-27.683,3.863-41.604,5.228c-12.358,1.212-24.706,2.471-37.088,3.462
	c-10.958,0.877-21.912,1.776-32.879,2.555c-12.964,0.92-25.922,1.87-38.901,2.606c-10.842,0.615-21.667,1.5-32.533,1.634
	c-3.104,0.038-6.15,1.226-10.05,0.269c55.722-10.582,110.504-22.167,164.894-35.775c-0.294-0.676-0.712-0.655-1.054-0.609
	c-7.628,1.028-15.242,2.166-22.882,3.087c-6.517,0.785-13.059,1.37-19.598,1.961c-9.382,0.847-18.769,1.635-28.156,2.419
	c-4.555,0.38-9.122,0.362-13.69,0.843c-6.812,0.718-13.697,0.716-20.546,1.11c-14.129,0.813-28.272,1.306-42.405,1.966
	c-8.714,0.407-17.392,0.411-26.124,0.11c4.993-0.692,9.98-1.441,14.982-2.064c11.752-1.464,23.424-3.45,35.09-5.451
	c12.084-2.073,24.156-4.252,36.171-6.69c19.159-3.887,38.313-7.84,56.981-13.768c2.72-0.864,5.391-1.91,8.015-3.035
	C726.845,879.709,728.612,879.273,729.506,877.589z"/>
<path style="fill:#FFFFFF;" d="M444.545,324.021c-2.96,4.933-5.897,9.879-8.895,14.789c-0.717,1.174-1.137,2.588-2.428,3.355
	c-19.193-0.021-38.385-0.127-57.576,0.015c-3.343,0.025-5.148-0.915-6.563-4.029c-3.245-7.141-6.927-14.084-10.522-21.289
	c1.231-0.888,2.392-0.604,3.445-0.61c9.024-0.057,18.051-0.242,27.07-0.061c9.456,0.19,18.867-0.923,28.311-0.688
	c2.173,0.054,3.427-0.877,4.444-2.661c8.006-14.046,16.049-28.07,24.093-42.095c10.678-18.616,21.368-37.225,32.05-55.838
	c1.638-2.854,3.207-5.75,4.91-8.565c1.081-1.786,1.049-3.369,0.048-5.222c-5.443-10.07-10.791-20.192-16.172-30.296
	c-6.255-11.746-12.471-23.514-18.807-35.217c-1.023-1.89-0.991-3.38,0.176-5.113c1.677-2.491,3.229-5.068,4.775-7.644
	c0.727-1.212,1.647-1.867,3.114-1.857c6.296,0.045,12.581,0.238,18.842,0.962c1.207,0.14,1.828,0.69,1.859,1.889
	c0.026,1.002,0.133,2.017,0.02,3.005c-0.541,4.747,0.941,8.905,3.06,13.111c6.826,13.547,13.383,27.229,20.057,40.853
	c0.49,1.001,1.086,1.951,1.611,2.886c1.631-0.152,1.904-1.407,2.436-2.349c8.02-14.203,15.984-28.438,24.074-42.601
	c1.049-1.837,1.572-3.598,1.483-5.67c-0.123-2.861-0.084-5.728-0.155-8.592c-0.037-1.471,0.314-2.395,2.059-2.578
	c4.696-0.494,9.392-0.817,14.116-0.929c2.208-0.052,3.404,0.943,4.433,2.685c2.11,3.572,4.225,7.151,6.546,10.586
	c1.606,2.376,1.393,4.334-0.152,6.66c-4.908,7.389-9.653,14.887-14.451,22.35c-8.047,12.518-16.042,25.071-24.178,37.531
	c-1.215,1.86-1.155,3.235-0.086,5.043c10.851,18.35,21.66,36.724,32.447,55.111c10.353,17.646,20.722,35.284,30.936,53.012
	c1.416,2.458,2.958,3.314,5.752,3.294c17.474-0.124,34.949-0.067,52.424-0.052c1.274,0.001,2.574-0.209,3.822,0.265
	c0.626,1.166-0.353,1.86-0.8,2.684c-3.479,6.415-7.024,12.794-10.442,19.242c-0.897,1.692-1.896,2.55-3.958,2.542
	c-19.05-0.074-38.1-0.061-57.151-0.018c-2.104,0.005-3.373-0.829-4.524-2.584c-1.316-2.006-1.995-4.474-4.064-5.967
	c-3.546-3.617-5.697-8.187-8.259-12.441c-17.053-28.312-34.064-56.651-51.197-84.915c-0.511-0.843-0.877-1.815-1.848-2.397
	c-1.593,0.398-1.941,1.941-2.635,3.094c-16.378,27.217-32.686,54.476-49.049,81.702
	C447.805,320.473,446.812,322.766,444.545,324.021z"/>
<path style="fill:#1D2171;" d="M444.545,324.021c18.557-30.988,37.113-61.976,55.96-93.449c2.706,4.451,5.085,8.336,7.437,12.239
	c17.417,28.903,34.828,57.809,52.241,86.714c0.737,1.223,1.571,2.397,1.851,3.839c-0.081,1.169-0.162,2.338-0.244,3.505
	c-2.84-4.055-5.679-8.109-8.518-12.163c-0.234,0.054-0.469,0.107-0.703,0.161c0,11.433,0,22.866,0,34.298
	c-0.243,0.075-0.487,0.15-0.73,0.224c-1.117-1.407-2.267-2.788-3.346-4.224c-14.795-19.686-29.579-39.379-44.367-59.07
	c-0.172-0.229-0.347-0.456-0.523-0.682c-2.426-3.11-2.512-3.132-4.916-0.164c-14.783,18.24-29.549,36.494-44.332,54.733
	c-2.778,3.428-5.61,6.813-8.688,10.547c-0.687-1.402-0.454-2.527-0.457-3.575c-0.024-9.452,0.004-18.904-0.033-28.356
	C445.172,327.062,445.59,325.43,444.545,324.021z"/>
<path style="fill:#B3B4B6;" d="M522.577,717.331c8.505,0.996,17.062,1.444,25.608,2.024c20.993,1.425,42.032,2.37,62.884,5.343
	c2.815,0.401,3.789-0.541,4.867-2.666c8.937-17.61,17.939-35.187,26.929-52.77c4.883-9.55,9.78-19.093,14.831-28.953
	c6.186,4.177,13.074,3.672,19.894,3.598c3.608-0.039,3.659-0.041,4.422,3.525c6.134,28.676,12.247,57.357,18.367,86.037
	c0.119,0.56,0.278,1.116,0.337,1.682c0.217,2.076,1.215,3.187,3.395,3.596c27.922,5.235,54.563,15.004,81.661,23.158
	c4.928,1.483,9.923,2.75,14.831,4.292c1.745,0.548,2.634,0.057,3.473-1.396c2.815-4.873,4.676-10.125,6.241-15.49
	c3.859-13.23,6.021-26.798,7.622-40.444c2.104-17.933,3.24-35.933,2.737-54.008c-0.088-3.151-0.114-6.308-0.681-9.417
	c-0.441-2.419,0.272-4.331,1.778-6.297c19.417-25.35,38.76-50.757,58.116-76.153c26.3-34.507,52.593-69.021,78.907-103.518
	c0.938-1.229,1.658-2.673,3.58-3.88c-0.643,4.08-1.175,7.734-1.798,11.373c-7.705,44.982-15.423,89.961-23.137,134.941
	c-1.717,10.011-3.433,20.023-5.151,30.034c-0.073,0.423-0.155,0.845-0.246,1.264c-0.638,2.933-0.667,3.083-3.581,2.545
	c-5.924-1.093-11.727-0.392-17.429,1.12c-11.932,3.164-22.068,9.387-30.289,18.604c-4.876,5.466-7.944,11.723-8.74,19.191
	c-0.855,8.017-1.259,15.967,0.087,23.95c2.063,12.232,7.99,22.227,17.411,30.217c6.062,5.141,12.891,9.022,20.207,12.027
	c2.093,0.86,2.639,1.864,2.231,4.129c-2.869,15.909-5.578,31.846-8.345,47.774c-4.701,27.062-9.405,54.124-14.111,81.185
	c-1.566,9.005-3.139,18.01-4.709,27.013c-1.7,0.382-2.972-0.369-4.291-0.784c-47.349-14.892-95.075-28.404-143.504-39.363
	c-29.726-6.727-59.623-12.52-89.768-17.049c-29.742-4.468-59.606-7.655-89.626-9.541c-28.762-1.807-57.541-2.095-86.321-1.233
	c-27.769,0.832-55.442,3.136-83.043,6.416c-55.79,6.63-110.689,17.84-165.112,31.578c-33.837,8.541-67.376,18.144-100.777,28.241
	c-1.365,0.413-2.735,0.808-4.596,1.357c-0.904-5.312-1.804-10.474-2.659-15.644c-4.18-25.265-8.345-50.532-12.521-75.798
	c-3.499-21.173-7.008-42.344-10.499-63.518c-0.232-1.41-0.501-2.591,1.603-3.224c17.462-5.26,27.984-17.726,34.312-34.109
	c5.284-13.68,6.116-27.653,0.403-41.467c-8.153-19.713-28.379-32.821-49.824-32.585c-5.087,0.056-5.144,0.066-6.058-4.924
	c-5.592-30.536-11.154-61.077-16.729-91.616c-4.727-25.894-9.457-51.788-14.191-77.681c-0.23-1.259-0.65-2.497-0.308-3.872
	c1.382,0.424,1.851,1.709,2.573,2.685c43.991,59.539,87.947,119.103,131.974,178.615c2.932,3.963,3.311,8.457,3.657,12.994
	c0.85,11.145,0.694,22.328,1.071,33.49c0.624,18.473,1.81,36.899,6.744,54.845c2.632,9.573,6.278,18.703,11.9,26.979
	c1.194,1.758,2.229,2.074,4.225,1.242c23.684-9.873,48.305-16.868,73.018-23.559c7.453-2.018,14.912-4.045,22.452-5.686
	c2.766-0.602,3.704-1.975,4.203-4.433c3.188-15.701,6.448-31.388,9.69-47.078c2.605-12.608,5.21-25.216,7.834-37.821
	c0.704-3.38,0.745-3.408,4.219-2.44c6.122,1.705,12.28,2.971,18.603,1.207c2.322-0.648,2.979,0.912,3.848,2.421
	c8.006,13.888,16.027,27.768,24.048,41.647c5.944,10.286,11.937,20.544,17.801,30.875c1.077,1.898,2.176,2.558,4.41,2.135
	c11-2.081,22.175-2.511,33.316-3.185c15.729-0.952,31.487-1.078,47.232-1.584c0.844-0.027,1.687-0.104,2.448-0.153
	c0.761-1.329,0.041-2.349-0.264-3.394c-7.4-25.407-14.793-50.816-22.25-76.206c-0.674-2.297-0.646-4.302,0.261-6.591
	c15.292-38.567,30.494-77.171,45.719-115.765c0.418-1.059,0.876-2.102,1.324-3.172c1.535,0.849,1.596,2.441,2.097,3.718
	c14.58,37.156,29.099,74.336,43.706,111.482c0.95,2.415,1.005,4.531,0.226,6.996c-7.931,25.096-15.771,50.221-23.598,75.35
	C523.214,713.5,522.212,715.172,522.577,717.331z"/>
<path style="fill:#FFFFFF;" d="M832.7,604.827c-7.647,9.633-15.259,19.296-22.977,28.872c-1.325,1.644-1.345,3.345-1.275,5.223
	c0.357,9.583,1.108,19.146,1.194,28.745c0.169,18.789-0.746,37.475-4.384,55.96c-1.687,8.574-4.017,16.963-7.093,25.141
	c-0.541,1.437-1.26,2.808-1.97,4.37c-5.588-2.733-10.984-5.333-16.649-7.298c-1.311-1.448-0.458-3.004-0.132-4.469
	c4.256-19.16,7.141-38.477,8.515-58.099c1.942-27.729-0.456-54.914-8.61-81.453c-12.944-42.131-38.966-73.993-76.845-96.321
	c-9.903-5.838-20.309-10.557-31.182-14.262c-1.086-0.37-2.142-0.788-3.118-1.41c16.111,9.435,31.253,20.256,44.745,33.136
	c14.414,13.759,25.976,29.728,33.89,48.13c9.513,22.118,13.757,45.245,14.127,69.336c0.47,30.602-4.076,60.453-11.479,89.988
	c-0.521,2.077-0.345,4.788-3.343,5.425c-10.032-2.319-20.077-4.596-30.249-6.212c-2.31-0.367-3.033-1.503-3.42-3.581
	c-1.939-10.404-3.999-20.786-6.009-31.177c-3.286-16.992-6.431-34.013-9.966-50.953c-0.687-3.29,0.239-4.848,2.631-6.721
	c9.198-7.198,15.53-16.374,17.961-27.933c2.407-11.44,0.719-22.192-5.934-31.984c-2.577-3.792-5.333-7.433-8.433-10.832
	c-14.42-15.812-41.438-18.827-60.01-2.144c-7.759,6.97-13.308,15.266-15.533,25.61c-1.824,8.482-0.197,16.53,3.144,24.283
	c3.755,8.715,9.264,16.099,17.443,21.176c-0.149,1.612-1.119,2.718-1.793,3.93c-12.724,22.88-25.479,45.744-38.227,68.61
	c-2.076,3.724-2.087,3.77-6.095,2.916c-16.464-3.507-33.109-4.937-49.928-4.442c-1.969,0.058-3.941,0.008-5.794,0.008
	c-0.39-0.805-0.148-1.303,0.084-1.837c21.349-49.194,41.22-98.999,61.487-148.641c20.267-49.641,40.298-99.379,60.432-149.074
	c0.054-0.133,0.111-0.264,0.165-0.397c1.684-4.137,1.679-4.119,6.044-2.921c37.192,10.201,72.322,25.089,104.797,46.033
	c33.797,21.797,62.565,49.056,87.464,80.512c3.553,4.489,6.888,9.153,10.462,13.624c1.352,1.692,1.608,2.868,0.112,4.725
	c-7.724,9.585-15.291,19.296-22.913,28.963c-2.555-0.288-2.755-2.661-3.603-4.304c-12.083-23.404-27.769-44.096-47.287-61.733
	c-23.75-21.462-50.905-37.37-80.914-48.535c-11.839-4.404-23.994-7.615-36.158-10.863c-0.689-0.184-1.37-0.38-1.797-0.732
	c24.87,9.035,47.83,21.96,69.312,37.59c27.611,20.089,50.353,44.532,66.074,75.039c5.974,11.594,10.632,23.786,13.604,36.551
	C833.625,601.936,834.048,603.498,832.7,604.827z"/>
<path style="fill:#FFFFFF;" d="M149.407,575.856c-8.248-10.426-16.496-20.852-24.795-31.344
	c9.067-12.583,18.683-24.486,28.893-35.918c45.754-51.23,102.173-85.339,167.843-104.606c3.153-0.925,6.375-1.641,9.474-2.716
	c2.135-0.74,2.939-0.142,3.738,1.902c3.797,9.722,7.777,19.372,11.707,29.042c35.045,86.237,69.671,172.646,105.668,258.494
	c1.92,4.578,3.93,9.118,6.007,13.927c-4.496,0-8.624,0.06-12.749-0.011c-14.965-0.256-29.708,1.562-44.32,4.652
	c-3.228,0.683-3.249,0.69-4.864-2.273c-11.366-20.852-22.689-41.727-34.131-62.536c-1.221-2.22-1.092-3.666,0.491-5.661
	c7.479-9.425,12.629-20.011,15.582-31.721c1.605-6.364,1.371-12.54-1.029-18.531c-5.974-14.913-15.951-26.451-30.319-33.729
	c-18.308-9.274-39.953-4.275-52.538,11.837c-8.206,10.506-12.917,22.21-11.525,35.84c0.809,7.926,4.015,14.849,8.834,21.09
	c3.886,5.033,8.547,9.271,13.804,12.799c1.846,1.239,2.18,2.403,1.756,4.555c-5.146,26.102-10.163,52.229-15.218,78.348
	c-0.38,1.966-0.949,3.909-1.151,5.891c-0.185,1.823-1.192,2.372-2.767,2.627c-10.451,1.698-20.777,4.005-31.082,6.412
	c-2.132-0.365-2.529-2.125-2.949-3.787c-4.564-18.061-7.934-36.335-10.131-54.844c-1.573-13.251-2.047-26.535-1.61-39.833
	c1.212-36.906,11.31-70.768,34.961-99.843c13.896-17.083,31.096-30.307,49.474-42.124c2.997-1.927,5.853-4.147,9.312-5.278
	c-10.268,3.547-20.404,7.385-30.01,12.522c-40.746,21.786-68.23,54.57-81.778,98.811c-4.752,15.516-7.101,31.445-8.232,47.673
	c-2.072,29.721,1.921,58.777,7.992,87.705c0.594,2.829,2.292,5.693,0.492,8.695c-5.133,1.796-10.165,3.855-14.931,6.466
	c-1.897,1.039-2.588,0.727-3.393-1.254c-3.784-9.319-6.435-18.955-8.241-28.819c-3.809-20.798-4.799-41.782-3.822-62.877
	c0.305-6.578,0.609-13.158,1.065-19.727c0.179-2.578-0.474-4.597-2.131-6.641c-7.479-9.228-14.803-18.582-22.157-27.911
	c-0.326-0.413-0.402-1.023-0.594-1.542c0.518-8.277,3.611-15.884,6.439-23.499c7.87-21.195,19.932-39.832,34.825-56.795
	c19.237-21.91,42.274-38.861,67.503-53.123c10.246-5.792,20.852-10.783,31.681-15.344c3.431-1.445,7.039-2.284,10.607-3.25
	c0.545-0.258,1.041-0.942,1.639-0.353c-0.787-0.646-1.31,0.273-1.965,0.548c-12.948,3.079-25.733,6.721-38.213,11.334
	c-25.142,9.295-48.434,21.941-69.604,38.473c-24.968,19.498-44.757,43.263-59.503,71.279
	C152.456,572.76,152.276,575.452,149.407,575.856z"/>
<path style="fill:#1D2171;" d="M552.471,605.801c-16.651-43.155-33.303-86.31-49.954-129.465c-0.31-0.037-0.619-0.074-0.929-0.111
	c-18.023,43.21-36.046,86.419-54.069,129.629c-0.165-0.029-0.33-0.057-0.496-0.086c0-67.933,0-135.867,0-204.17
	c1.946,0.773,2.752,2.177,3.727,3.305c15.54,17.975,31.061,35.967,46.555,53.982c4.27,4.966,4.232,5.015,8.405,0.108
	c14.465-17.011,28.915-34.034,43.397-51.03c1.082-1.27,1.995-2.76,3.911-3.73c0,67.328,0,134.386,0,201.443
	C552.835,605.718,552.653,605.759,552.471,605.801z"/>
<path style="fill:#B3B4B6;" d="M680.522,338.552c-38.047,92.311-75.74,183.763-113.434,275.216c-0.289-0.015-0.577-0.03-0.866-0.045
	c0-1.031,0-2.061,0-3.092c-0.002-72.183,0.019-144.366-0.089-216.549c-0.004-2.98,1.058-4.207,3.577-5.347
	c35.964-16.267,71.883-32.63,107.816-48.967C678.173,339.474,678.844,339.231,680.522,338.552z"/>
<path style="fill:#B3B4B6;" d="M321.59,337.072c1.882,0.839,3.94,1.712,5.962,2.662c35.2,16.544,70.388,33.112,105.607,49.615
	c2.261,1.06,3.502,2.147,3.494,5.003c-0.201,71.455-0.287,142.91-0.397,214.366c-0.001,0.406-0.06,0.813-0.095,1.262
	c-0.429-0.47,0.102,0.125-0.463,0.029c-0.127-0.021-0.301-0.115-0.346-0.22c-38.016-90.451-76.022-180.905-114.017-271.364
	C321.187,338.075,320.89,337.648,321.59,337.072z"/>
<path style="fill:#1D2171;" d="M746.114,735.84c1.177-0.603,1.304-1.755,1.588-2.876c4.651-18.315,8.244-36.817,10.413-55.608
	c1.763-15.264,2.274-30.557,1.438-45.866c-2.628-48.14-21.631-88.083-59.702-118.407c-10.321-8.22-21.229-15.564-32.46-22.455
	c-0.954-0.585-2.105-0.936-2.851-2.163c1.017-0.506,1.842,0.037,2.67,0.316c59.561,20.103,98.829,59.729,115.523,120.739
	c6.553,23.949,7.949,48.466,6.447,73.215c-1.295,21.343-4.697,42.333-9.634,63.103c-1.155,0.462-2.238,0.089-3.333-0.266
	C766.182,742.325,756.147,739.084,746.114,735.84z"/>
<path style="fill:#1D2171;" d="M224.235,743.925c-1.258-6.3-2.52-12.599-3.773-18.899c-4.649-23.373-7.147-46.961-6.324-70.799
	c0.906-26.245,5.654-51.727,16.583-75.796c16.585-36.527,43.406-63.074,79.183-80.811c8.086-4.009,16.451-7.339,25.102-9.924
	c1.316-0.393,2.608-1.004,4.174-0.883c-1.32,1.588-3.084,2.294-4.651,3.255c-15.163,9.294-29.713,19.413-42.681,31.66
	c-25.705,24.276-40.857,54.027-46.266,88.892c-3.248,20.938-3.121,41.884-0.941,62.902c1.996,19.246,5.633,38.174,10.363,56.914
	c0.346,1.372,0.364,2.881,1.715,3.792c-2.473,1.892-5.565,1.928-8.385,2.715C240.276,739.188,232.139,741.15,224.235,743.925z"/>
<path style="fill:#B3B4B6;" d="M501.459,316.163c0.821,0.989,1.661,1.952,2.449,2.956c15.642,19.934,31.276,39.874,46.917,59.81
	c2.947,3.756,2.459,2.884-0.1,5.898c-15.565,18.338-31.168,36.644-46.77,54.951c-0.821,0.963-1.487,2.098-2.674,2.711
	c-1.235-0.321-1.785-1.409-2.518-2.25c-15.796-18.14-31.572-36.298-47.36-54.445c-2.6-2.989-2.304-2.418-0.122-5.26
	c15.867-20.665,31.761-41.31,47.658-61.951C499.619,317.7,500.137,316.614,501.459,316.163z"/>
<path style="fill:#1D2171;" d="M832.7,604.827c0.171-1.598-0.245-3.1-0.628-4.638c-7.025-28.218-20.792-52.851-39.792-74.668
	c-20.557-23.604-45.266-41.961-72.579-56.966c-11.797-6.48-23.953-12.203-36.619-16.802c-0.648-0.235-1.255-0.583-2.346-1.097
	c1.365-0.477,2.255-0.304,3.128-0.112c43.986,9.648,83.63,28.14,117.645,57.987c20.902,18.34,37.573,39.997,50.185,64.782
	c0.708,1.392,1.2,2.921,2.341,4.069c0.002,1.244-0.835,2.068-1.511,2.957c-5.652,7.437-11.303,14.875-16.993,22.283
	C834.802,603.573,834.338,604.991,832.7,604.827z"/>
<path style="fill:#1D2171;" d="M321.275,449.386c-1.567,1.594-3.771,1.832-5.706,2.6c-36.763,14.59-69.786,34.957-97.451,63.461
	c-21.076,21.715-36.558,46.818-45.06,76.039c-0.984,3.382-1.231,6.995-3.029,10.134c-1.069-0.238-1.574-1.16-2.204-1.892
	c-5.549-6.446-11.075-12.912-16.605-19.374c-1.108-1.295-2.338-2.545-1.813-4.499c3.072-5.469,6.023-11.01,9.235-16.396
	c20.555-34.457,48.854-60.949,83.566-80.738c23.364-13.32,48.203-22.912,74.464-28.791c1.545-0.346,3.067-0.677,4.656-0.482
	L321.275,449.386z"/>
<path style="fill:#1D2171;" d="M702.213,597.968c0.748,14.978-11.935,31.9-31.736,31.931c-17.472,0.028-31.944-14.523-31.884-31.992
	c0.06-17.427,14.249-31.43,31.71-31.673C687.905,565.989,702.799,581.046,702.213,597.968z"/>
<path style="fill:#1D2171;" d="M294.597,596.955c-0.582-16.766,14.462-31.911,31.968-31.711
	c15.893,0.182,31.641,12.895,31.626,32.18c-0.013,17.214-14.602,31.705-31.881,31.522
	C306.476,628.735,294.008,612.286,294.597,596.955z"/>
<path style="fill:#1D2171;" d="M81.436,687.601c-1.573-3.282-1.519-6.922-2.207-10.391c-1.582-7.986-2.879-16.027-4.301-24.045
	c-0.676-3.813-0.364-4.177,3.434-4.432c5.571-0.374,10.791,0.787,15.76,3.298c9.716,4.909,16.78,12.375,21.086,22.316
	c4.136,9.549,3.76,19.236-0.079,28.798c-4.48,11.157-12.16,19.266-23.374,23.828c-3.394,1.381-3.589,1.186-4.163-2.232
	c-1.158-6.898-2.326-13.793-3.491-20.69c0.964-1.688,2.815-1.86,4.371-2.45c4.883-1.849,7.129-5.47,7.369-10.526
	c0.136-2.872-0.003-5.714-0.842-8.497c-0.872-2.895-2.641-5.095-5.272-6.478c-2.333-1.226-5.139-2.07-7.366-0.611
	c-1.865,1.222-0.334,3.711-0.267,5.628C82.17,683.321,83.434,685.614,81.436,687.601z"/>
<path style="fill:#1D2171;" d="M920.373,703.957c-1.205,7.179-2.366,14.365-3.642,21.532c-0.411,2.31-0.858,2.521-3.236,1.648
	c-11.271-4.137-18.93-12.139-23.717-22.912c-12.069-27.163,9.675-50.819,27.797-54.952c3.123-0.712,6.252-0.699,9.391-0.516
	c2.861,0.167,3.183,0.611,2.683,3.454c-1.237,7.033-2.495,14.064-3.822,21.08c-0.575,3.041-0.471,6.241-2.014,9.068
	c-1.089-0.968-1.199-2.32-1.018-3.554c0.511-3.484-1.261-4.145-4.218-3.903c-4.076,0.333-6.927,2.168-8.576,5.984
	c-4.097,9.479-1.157,17.168,8.347,21.568C919.132,702.818,919.877,703.214,920.373,703.957z"/>
<path style="fill:#FEFEFF;" d="M920.373,703.957c-5.477-0.963-10.347-2.994-12.147-8.787c-1.616-5.2-1.236-10.476,1.013-15.501
	c1.451-3.242,4.109-5.107,7.518-5.806c2.379-0.488,4.806-0.449,7.42-0.023c0.3,2.959-0.953,5.724-0.364,8.52
	c0,0,0.004-0.02,0.004-0.02c-1.063,1.618,0.148,3.579-0.785,5.216C921.958,692.993,921.731,698.567,920.373,703.957z"/>
<path style="fill:#FEFEFF;" d="M81.436,687.601c0.316-3.876-0.75-7.615-1.216-11.407c-0.246-1.998,0.406-2.436,2.187-2.568
	c8.156-0.607,13.062,3.128,14.392,11.184c0.418,2.534,0.448,5.117,0.163,7.669c-0.475,4.252-2.565,7.489-6.418,9.467
	c-2.029,1.041-4.112,1.964-6.442,2.105c0.001,0.001-0.132-0.21-0.132-0.21c-0.475-0.785,0.001-1.788-0.582-2.548
	C82.736,696.728,82.086,692.165,81.436,687.601z"/>
<path style="fill:#5A598F;" d="M83.387,701.292c0.577,0.763,0.743,1.619,0.583,2.549C82.933,703.183,83.088,702.254,83.387,701.292z
	"/>
<path style="fill:#B3B4B6;" d="M258.636,895.475c-0.82,0-1.641,0-2.77,0c1.218-1.182,1.984-0.697,2.726,0.054
	C258.592,895.529,258.636,895.475,258.636,895.475z"/>
<path d="M501.419,219.29c-1.571,1.103-2.049,2.512-2.779,3.711c-22.231,36.547-44.467,73.091-66.579,109.71
	c-1.682,2.786-3.409,3.882-6.739,3.838c-15.75-0.205-31.505-0.161-47.256-0.026c-2.782,0.024-4.505-0.585-5.648-3.303
	c-1.319-3.135-3.131-6.063-4.695-9.016c0.967-1.412,2.221-0.799,3.241-0.802c16.325-0.046,32.652-0.113,48.976,0.043
	c2.848,0.027,4.278-0.899,5.672-3.331c21.421-37.35,42.929-74.652,64.522-111.903c1.469-2.534,1.577-4.361,0.109-6.972
	c-10.867-19.324-21.538-38.757-32.304-58.138c-1.039-1.87-2.253-3.649-3.471-5.412c-2.217-3.208-2.053-3.068,0.136-6.49
	c1.911-2.987,4.306-4.373,7.807-4.019c0.988,0.1,2.001-0.048,3.003-0.096c4.895-0.235,4.935-0.234,4.497,4.868
	c-0.174,2.022-0.171,3.854,0.906,5.766c10.46,18.564,20.825,37.181,31.196,55.745c1.217,0.12,1.382-0.821,1.767-1.5
	c10.102-17.785,20.174-35.588,30.342-53.336c1.035-1.806,1.13-3.339,0.393-5.205c-0.884-2.238-1.526-4.572-2.382-7.2
	c4.398-0.794,8.644-0.28,12.857-0.312c0.452-0.003,0.936,0.559,1.35,0.922c0.2,0.175,0.27,0.498,0.404,0.75
	c1.611,3.029,4.149,5.935,4.571,9.121c0.414,3.121-2.847,5.675-4.576,8.412c-11.694,18.507-23.414,36.999-35.291,55.388
	c-1.637,2.536-1.547,4.335-0.109,6.848c21.236,37.126,42.409,74.288,63.475,111.51c1.532,2.707,3.116,3.77,6.289,3.732
	c15.464-0.185,30.932-0.084,46.398-0.084c1.38,0,2.76,0,5.007,0c-2.427,4.249-4.413,7.81-6.489,11.318
	c-0.819,1.384-2.309,0.892-3.538,0.894c-16.898,0.025-33.797-0.045-50.694,0.082c-2.688,0.02-4.042-0.982-5.32-3.218
	c-9.09-15.895-18.316-31.712-27.495-47.556c-11.832-20.424-23.659-40.85-35.491-61.274
	C502.838,221.644,502.168,220.547,501.419,219.29z"/>
<path style="fill:#FDFDFE;" d="M747.628,823.335c-6.281-2.853-10.514-7.394-12.328-14.213c-2.719-10.217,4.376-22.083,14.666-24.478
	c6.375-1.484,12.034-0.15,17.418,3.393c2.371,1.56,3.349,4.136,5.191,6.049c4.292,3.264,3.89,7.99,3.651,12.501
	c-0.627,11.831-13.323,21.742-24.15,18.987C750.451,825.161,748.689,824.914,747.628,823.335z"/>
<path style="fill:#FDFDFE;" d="M231.088,824.193c-6.329-2.862-10.558-7.459-12.363-14.311c-2.7-10.25,4.612-22.09,14.982-24.419
	c6.476-1.454,12.101,0.08,17.451,3.658c2.231,1.493,3.096,4.016,4.872,5.826c4.3,3.26,3.894,7.987,3.655,12.498
	c-0.627,11.832-13.323,21.743-24.151,18.988C233.91,826.021,232.148,825.774,231.088,824.193z"/>
<path style="fill:#FDFEFE;" d="M493.236,647.106c-5.112-2.202-9.293-5.371-11.448-10.748c-4.706-11.74,0.521-23.965,12.728-27.785
	c8.873-2.777,17.627,0.771,22.503,8.597c0.206,0.331,0.617,0.534,0.932,0.797c2.647,1.332,3.065,4,3.573,6.437
	c2.893,13.88-10.398,27.382-24.325,24.789C495.678,648.909,494.044,648.774,493.236,647.106z"/>
<path style="fill:#FDFEFE;" d="M584.347,797.475c-0.578-0.72-1.4-0.926-2.251-1.093c-4.062-0.798-6.941-3.45-9.126-6.629
	c-8.666-12.604-1.62-27.397,9.969-31.125c8.079-2.599,18.817-0.047,22.89,7.564c0.106,0.199,0.469,0.26,0.712,0.386
	c4.924,4.49,5.129,10.127,3.829,16.077c-1.84,8.419-8.338,14.553-16.848,16.023c-2.668-0.089-5.355,0.286-8.003-0.323
	C585.04,798.177,584.65,797.883,584.347,797.475z"/>
<path style="fill:#FDFEFE;" d="M396.159,795.637c-2.595-1.906-5.895-2.411-8.283-4.957c-5.411-5.769-6.852-12.467-5.009-19.78
	c1.891-7.502,6.988-12.507,14.507-14.246c7.631-1.766,17.066-0.255,21.892,9.07c0.182,0.352,0.598,0.583,0.904,0.87
	c1.868,1.114,2.584,2.941,3.101,4.919c3.515,13.455-8.302,27.454-22.174,26.251C399.22,797.6,397.396,797.294,396.159,795.637z"/>
<path style="fill:#030202;" d="M493.236,647.106c8.9,3.285,17.618-0.053,22.476-5.708c4.467-5.201,7.41-14.177,2.239-23.432
	c0.759-0.867,1.27-0.092,1.734,0.329c7.71,6.98,8.378,19.53,1.485,27.564c-6.961,8.114-19.319,9.399-27.439,2.818
	C493.323,648.347,492.26,647.977,493.236,647.106z"/>
<path style="fill:#020202;" d="M747.628,823.335c9.33,3.687,18.249-0.239,22.938-5.689c5.819-6.764,6.207-17.023,2.009-23.559
	c0.527-0.794,1.002-0.18,1.369,0.124c7.998,6.637,9.006,19.608,2.174,27.747c-7.103,8.463-19.873,9.726-27.98,2.741
	C747.785,824.395,747.072,824.054,747.628,823.335z"/>
<path style="fill:#020202;" d="M231.088,824.193c9.281,3.667,18.205-0.191,22.934-5.688c5.776-6.714,6.238-16.905,2.009-23.557
	c0.552-0.761,1.02-0.143,1.385,0.163c7.983,6.679,8.967,19.61,2.131,27.743c-7.102,8.449-19.86,9.692-27.975,2.701
	C231.22,825.252,230.508,824.903,231.088,824.193z"/>
<path style="fill:#020202;" d="M396.159,795.637c12.297,4.364,27.224-5.102,26.541-20.505c-0.135-3.04-0.937-5.914-2.529-8.539
	c0.832-1.38,1.384-0.179,1.871,0.276c10.652,9.98,6.397,28.551-7.632,33.131c-6.543,2.136-12.696,1.144-18.309-2.904
	C395.42,796.607,395.106,796.081,396.159,795.637z"/>
<path style="fill:#020202;" d="M593.83,797.619c10.649-1.506,20.162-14.568,14.308-28.043c-0.45-1.036-1.061-2.001-1.597-2.999
	c1.509-0.078,2.269,1.082,3.139,1.978c7.011,7.217,7.367,18.852,0.844,26.611c-6.534,7.771-18.026,9.454-26.361,3.856
	c-0.919-0.617-1.793-1.26,0.184-1.547c0.263,0.124,0.538,0.168,0.826,0.133C588.058,798.216,590.944,798.193,593.83,797.619z"/>
<path style="fill:#1D2171;" d="M880.351,645.918c-1.451-9.432-2.747-17.862-4.209-27.369c7.833,5.332,14.408,10.57,21.298,16.157
	C891.661,638.498,886.333,641.993,880.351,645.918z"/>
<path style="fill:#1D2171;" d="M122.501,646.268c-5.998-3.873-11.36-7.335-17.331-11.19c7.05-5.388,13.642-10.426,20.234-15.464
	c0.276,0.152,0.551,0.303,0.827,0.455C125.62,628.629,123.637,637.015,122.501,646.268z"/>
<path style="fill:#1D2171;" d="M127.883,656.291c4.531-0.789,23.925-1.3,27.004-0.621c-5.679,5.824-11.089,11.372-16.905,17.337
	C134.538,667.306,131.332,662.001,127.883,656.291z"/>
<path style="fill:#1D2171;" d="M848.979,654.755c8.357,0.335,16.752-0.355,24.775,0.813c0.634,0.654,0.595,1.056,0.373,1.431
	c-2.675,4.532-5.365,9.056-8.038,13.59c-0.835,1.416-1.756,1.745-2.996,0.425c-4.839-5.153-9.696-10.288-14.547-15.43
	C848.69,655.307,848.835,655.031,848.979,654.755z"/>
<path style="fill:#1D2171;" d="M86.118,607.566c3.195,7.242,6.144,13.928,9.355,21.207c-7.215,0.413-13.916,0.796-21.477,1.229
	C77.924,622.206,81.714,615.081,86.118,607.566z"/>
<path style="fill:#1D2171;" d="M916.756,606.969c4.102,7.598,7.773,14.398,11.481,21.266c-3.638,1.213-16.199,1.06-20.457-0.246
	C910.143,621.066,913.473,614.598,916.756,606.969z"/>
<path style="fill:#1D2171;" d="M888.742,761.776c0-2.373-0.001-4.747,0-7.12c0.002-4.279-0.039-8.56,0.034-12.838
	c0.025-1.445,0.188-3.178,2.42-2.247c5.113,2.135,10.187,4.364,15.736,6.753c-5.621,5.861-11.576,10.609-17.096,15.826
	C889.472,762.026,889.107,761.901,888.742,761.776z"/>
<path style="fill:#1D2171;" d="M876.878,728.21c-9.132,2.299-17.619,4.436-26.615,6.701c0.919-2.767,2.733-4.299,4.2-6.064
	c3.374-4.059,6.722-8.139,10.11-12.186c1.652-1.973,2.022-2.052,3.565-0.091C871.018,720.226,873.739,724.009,876.878,728.21z"/>
<path style="fill:#1D2171;" d="M125.939,728.659c3.683-4.927,6.816-9.118,10.207-13.655c6.063,6.332,11.147,13.093,16.249,20.237
	C143.822,733.108,135.25,730.975,125.939,728.659z"/>
<path style="fill:#1D2171;" d="M863.63,702.995c-8.165-2.684-15.957-4.654-24.259-7.807c7.75-3.752,14.905-6.913,22.668-10.119
	C862.909,691.115,863.436,696.785,863.63,702.995z"/>
<path style="fill:#1D2171;" d="M162.822,695.186c-0.405,1.136-1.153,1.299-1.77,1.489c-6.278,1.942-12.555,3.888-18.865,5.724
	c-2.884,0.839-3.345,0.618-2.949-2.076c0.698-4.745,0.288-9.657,1.786-14.801C148.584,688.873,155.711,692.033,162.822,695.186z"/>
<path style="fill:#1D2171;" d="M95.77,746.846c6.066-2.617,11.501-4.962,17.618-7.601c0.042,4.114,0.093,7.722,0.111,11.331
	c0.018,3.685,0.004,7.369,0.004,11.966C106.94,757.569,101.689,752.37,95.77,746.846z"/>
<path style="fill:#5A598F;" d="M321.328,449.449c0.886-0.523,0.886-0.523,2.281-0.191c-1.039,0.058-1.686,0.094-2.333,0.129
	C321.275,449.386,321.328,449.449,321.328,449.449z"/>
<path d="M609.929,441.115c-9.013-0.103-16.604-1.982-22.594-8.18c-7.088-7.334-8.775-17.603-4.335-26.534
	c4.231-8.511,13.701-13.467,23.529-12.313c12.374,1.453,22.669,9.952,25.481,21.062c0.927,3.665,0.965,7.4,0.189,11.058
	c-1.767,8.325-7.889,13.376-17.453,14.581C612.907,441.021,611.041,441.043,609.929,441.115z"/>
<path d="M417.744,419.499c-0.13,10.108-4.938,16.466-14.691,19.046c-7.712,2.039-15.408,1.634-22.679-1.539
	c-9.138-3.989-14.609-11.177-14.891-21.235c-0.261-9.305,4.032-16.548,12.517-20.838c5.877-2.971,12.163-3.332,18.366-1.364
	c10.625,3.371,18.211,9.943,20.781,21.27C417.491,416.359,417.552,417.944,417.744,419.499z"/>
<path style="fill:#010101;" d="M500.171,404.823c-14.24-0.037-25.475-11.497-25.343-25.849
	c0.129-14.035,11.512-25.174,25.649-25.103c14.068,0.071,25.402,11.418,25.379,25.409C525.833,393.57,514.48,404.86,500.171,404.823
	z"/>
<path style="fill:#1D2171;" d="M770.933,804.837c0.009,9.071-7.218,16.381-16.254,16.441c-8.91,0.059-16.368-7.389-16.392-16.37
	c-0.025-9.072,7.194-16.275,16.321-16.288C763.809,788.608,770.923,795.674,770.933,804.837z"/>
<path style="fill:#1D2171;" d="M237.967,789.489c9.216-0.053,16.376,6.977,16.421,16.124c0.045,9.085-7.099,16.391-16.163,16.531
	c-8.879,0.137-16.412-7.301-16.482-16.275C221.672,796.782,228.844,789.541,237.967,789.489z"/>
<path style="fill:#1D2171;" d="M499.894,644.778c-9.22-0.003-16.26-7.046-16.253-16.258c0.007-9.069,7.316-16.446,16.253-16.406
	c8.944,0.04,16.389,7.49,16.4,16.41C516.306,637.545,509.004,644.782,499.894,644.778z"/>
<path style="fill:#1D2171;" d="M589.258,794.246c-9.244,0.058-16.332-6.91-16.402-16.125c-0.069-9.095,7.121-16.47,16.128-16.542
	c8.906-0.071,16.477,7.374,16.538,16.264C605.584,786.864,598.322,794.189,589.258,794.246z"/>
<path style="fill:#B3B4B6;" d="M593.83,797.619c-2.888,1.245-5.774,1.227-8.658-0.011
	C588.059,797.611,590.944,797.615,593.83,797.619z"/>
<path style="fill:#1D2171;" d="M402.07,793.308c-9.211,0.037-16.359-7.014-16.39-16.168c-0.031-9.12,7.128-16.43,16.157-16.5
	c8.969-0.069,16.41,7.266,16.5,16.263C418.427,785.903,411.122,793.271,402.07,793.308z"/>
<path style="fill:#1D2171;" d="M585.928,417.138c-0.007-10.071,7.537-17.642,17.585-17.648c9.995-0.005,17.714,7.651,17.735,17.59
	c0.021,9.763-7.942,17.755-17.693,17.758C593.638,434.84,585.936,427.106,585.928,417.138z"/>
<path style="fill:#1D2171;" d="M388.577,433.219c-9.886,0.045-18.076-7.645-17.953-17.456c0.139-11.182,9.045-17.941,17.625-17.893
	c9.775,0.055,17.901,7.887,18.006,17.557C406.359,425.111,398.347,433.175,388.577,433.219z"/>
<path style="fill:#1D2171;" d="M520.851,379.487c0.685,9.935-8.743,20.806-20.837,20.393c-11.561-0.395-20.674-9.379-20.399-20.974
	c0.248-10.46,8.186-20.288,20.759-20.274C513.404,358.646,521.55,369.788,520.851,379.487z"/>
</svg>
