<?xml version="1.0" encoding="utf-8"?>
<!-- Generator: Adobe Illustrator 24.1.2, SVG Export Plug-In . SVG Version: 6.00 Build 0)  -->
<svg version="1.1" id="Layer_1" xmlns="http://www.w3.org/2000/svg" xmlns:xlink="http://www.w3.org/1999/xlink" x="0px" y="0px"
	 viewBox="0 0 200 200" style="enable-background:new 0 0 200 200;" xml:space="preserve">
<path style="fill:#BDBCBC;" d="M175.944,87.035c-0.871,0.328-1.724,0.65-2.595,0.972l0,0c-3.699,2.154-7.421,4.319-10.774,6.27
	l-0.006,0.006c-0.758,2.655-1.348,4.719-1.951,6.837c-7.642,3.561-15.171,7.069-23.17,10.798l0,0l5.733,1.104l0,0
	c-5.035,2.535-9.467,4.767-13.954,7.022l23.355-0.776c0.089,0.179,0.179,0.358,0.268,0.531c-0.507,0.471-0.937,1.157-1.539,1.372
	c-2.595,0.925-5.208,1.861-7.881,2.512c-8.334,2.028-16.698,3.931-25.366,5.96c-0.919-1.509-1.861-3.066-2.977-4.898l0,0
	c11.406-5.655,20.754-13.112,25.229-25.545l1.742,0.286c0.943,0.155,1.903-0.125,2.607-0.77c0.006-0.006,0.012-0.012,0.018-0.018
	c0.358-0.579,0.71-1.235,1.008-1.987c1.217-2.983,1.074-5.781,0.823-7.481c5.793,0.268,12.325,0.155,19.43-0.692
	c2.756-0.328,5.381-0.74,7.875-1.211c0.298-0.078,1.754-0.591,2.088-0.704c0.37-0.131-0.119,0.006-0.119,0.006
	s0.119-0.012,0.119-0.006c0,0,1.253-0.43,1.253-0.435c0.006,0-0.006,0,0,0l1.837-0.603l0,0c0.018-0.006-0.018,0.006,0,0
	c0.525-0.155,1.062-0.406,1.509-0.722c0.656-0.459,1.312-0.925,1.969-1.384c4.236-2.995,6.318-8.394,4.588-12.474
	c-1.223-2.893-2.637-5.721-4.158-8.471c-0.716-1.295-1.885-2.339-3.126-3.83c-1.223,3.985-2.995,7.022-6.574,7.815
	c-2.631,0.579-5.578,0.567-8.227,0.03c-7.206-1.45-13.423-5.208-19.913-9.473c-0.37-7.045-0.752-14.323-1.139-21.709l0,0
	c-21.894-9.33-43.841-10.917-65.472-2.004h-0.006c-2.309-0.215-3.973-0.4-5.643-0.525c-7.785-0.579-15.57-1.223-23.361-1.652
	c-2.547-0.143-5.13,0.245-7.69,0.495c-3.925,0.388-7.863,0.776-11.764,1.36c-1.873,0.28-3.687,1.008-5.524,1.539
	c16.895,3.627,33.061,8.614,48.214,17.604c-5.202,2.607-10.171,4.629-13.93,8.853l0,0c1.67,0.931,3.144,1.748,4.832,2.69l0,0
	c-3.979,2.738-8.364,3.078-12.945,4.301l0,0l6.431,5.244l0,0c-12.468,1.295-24.62,3.961-27.686,6.055
	c1.33,0.078,2.631,0.06,3.902,0.251c6.145,0.913,12.301,1.76,18.41,2.863c5.733,1.038,11.448,2.243,16.757,4.796
	c0.817,0.394,1.545,0.966,2.374,1.497c-0.424,0.447-0.537,0.674-0.686,0.704c-5.25,1.056-10.201,1.169-15.463-1.092
	c-9.366-4.021-19.406-6.019-29.476-7.582c-3.49-0.543-7.051-0.597-10.565-0.943c1.116,0.972,2.154,2.052,3.281,3.013
	c3.317,2.822,6.831,5.447,9.957,8.465c7.433,7.171,15.063,14.186,21.303,22.466c4.224,5.608,8.131,11.46,12.033,17.3
	c0.71,1.056,1.074,2.607,0.978,3.884c-0.203,2.744-0.817,5.453-1.354,8.781c-18.839,8.793-38.019,17.754-57.192,26.714
	c21.22-3.192,42.451-6.389,62.943-9.473c2.577,1.831,4.355,3.287,6.306,4.438c6.717,3.961,13.769,6.514,21.757,4.737
	c1.247-0.274,2.559-0.268,3.782-0.597c2.064-0.549,4.158-1.104,6.103-1.957c1.509-0.668,2.84-1.766,4.206-2.732
	c1.283-0.907,2.494-1.909,3.764-2.834c1.002-0.728,1.957-1.605,3.072-2.07c4.313-1.814,7.487-6.592,7.105-10.422
	c-0.173-1.754-0.03-3.544-0.03-5.596c0,0,0-0.006,0.006-0.006c4.647-1.116,8.823-2.231,13.578-2.905
	c5.524-0.787,10.953-2.106,16.274-3.788c4.295-1.354,9.068-1.921,13.321-3.651c5.297-2.16,9.372-6.007,12.325-10.816
	c5.805-9.455,11.424-19.03,16.912-28.677c0.853-1.503,0.925-3.663,0.787-5.476c-0.191-2.571-1.909-4.248-4.14-4.343
	c-1.963-0.084-3.949,0.125-5.912,0.334c-0.74,0.078-1.116,0.131-1.497,0.185c-2.559,0.358-4.474,0.978-4.826,1.092
	c-0.394,0.125,0.185-0.072,0,0c0-0.006,0,0.006,0,0l-3.478,1.127 M140.156,37.198c0.507,5.697,1.032,11.573,1.593,17.879l0,0
	c-16.799-11.722-35.686-16.465-54.973-19.985C94.591,29.228,125.648,30.344,140.156,37.198z M190.959,91.909
	c-0.364,1.116-0.978,2.171-1.599,3.186c-5.393,8.817-10.845,17.593-16.215,26.428c-3.096,5.101-7.397,8.37-13.256,9.796
	c-13.596,3.305-27.143,6.789-40.709,10.201c-0.567,0.143-1.122,0.334-1.283,0.382c0.084,3.317,0.614,6.497,0.125,9.515
	c-0.561,3.472-3.526,5.083-6.854,6.001l0,0c-1.372,2.726-3.603,4.104-6.831,3.8l0,0c-2.327,3.687-5.984,4.253-10.004,4.116l0,0
	c-2.41,2.183-5.399,2.327-8.382,1.784c-5.453-0.99-10.428-3.239-14.86-6.544c-1.485-1.104-2.613-2.685-4.009-4.164
	c-16.274,3.353-32.745,6.741-49.192,10.124c-0.048-0.149-0.03-0.095-0.072-0.245c15.803-6.306,31.57-12.599,47.856-19.102l0,0
	c0.996-4.152,1.593-8.96,1.515-13.834c-0.018-0.919-0.579-1.873-1.032-2.738c-4.916-9.288-11.078-17.73-18.32-25.282
	c-6.598-6.878-13.709-13.267-20.593-19.865c-0.346-0.334-0.71-0.644-0.949-1.169c20.915,4.265,40.656,11.203,57.64,25.294l0,0
	c0.71-1.008,1.283-1.831,1.921-2.744c-2.565-3.406-5.572-6.007-8.871-8.197c-3.192-2.118-6.598-3.907-10.052-5.924
	c8.853-1.36,17.306-0.811,25.873,3.311l-4.08-3.084c-4.403-3.305-9.3-5.691-14.443-7.618c-8.417-3.15-17.163-4.874-26.046-6.294
	c11.138-2.756,22.407-3.204,34.022-1.641c-0.358-2.1-0.698-4.086-1.086-6.33c-3.681,2.607-7.439,5.118-12.259,3.913
	c-2.977-0.74-5.423-2.339-7.093-4.54l0,0c3.782-2.649,7.487-5.244,11.418-8l0,0c-1.772-0.901-3.251-1.652-5.029-2.559
	c3.036-4.039,7.433-5.441,12.194-6.866c-12.587-9.08-26.559-13.715-41.676-17.503c1.635-0.4,2.625-0.764,3.651-0.877
	c19.746-2.183,38.8,1.175,57.443,7.439c15.326,5.148,29.631,12.432,43.274,21.076c6.347,4.021,13.184,6.944,20.629,8.179
	c2.327,0.388,4.778,0.471,7.117,0.209c3.985-0.453,7.051-2.529,8.913-6.192c0.304-0.603,0.638-1.193,1.217-2.273
	c0.692,2.356,1.426,4.218,1.766,6.145c0.853,4.88-1.235,9.092-5.769,11.782c-4.194,2.488-8.871,3.573-13.655,3.758
	c-6.24,0.245-12.498,0.06-18.857,0.06l0,0c-1.205,0.954-1.688,2.243-1.617,3.842c0.066,1.39,0.018,2.786-0.018,4.176
	c-0.078,2.977-1.312,3.812-4.242,2.923c-0.274-0.084-0.555-0.149-1.122-0.298c-5.268,15.63-17.426,23.206-31.91,28.08
	c2.267,1.223,4.492,2.177,6.437,3.532c2.076,1.444,2.726,3.812,2.989,6.58l0,0c4.951-1.247,9.801-2.47,14.652-3.699
	c7.409-1.873,14.777-3.907,22.234-5.542c3.418-0.746,5.459-2.571,6.681-5.643c0.43-1.074,0.859-2.148,1.45-3.615
	c-3.788,0.543-7.111,0.996-10.428,1.491c-3.74,0.567-7.457,1.378-11.257,1.312c0-0.006,0-0.006,0-0.006
	c6.52-2.571,13.047-5.142,19.567-7.714l-13.56,0.955c6.872-2.702,13.733-5.399,20.671-8.125l0,0c0.728-1.754,1.39-3.496,2.189-5.184
	c1.414-2.971,3.985-5.226,7.075-6.353c3.585-1.306,7.224-2.47,10.851-3.675c0.656-0.221,1.336-0.412,2.022-0.501
	C190.255,86.981,191.931,88.926,190.959,91.909z"/>
<path style="fill:#2E0706;" d="M141.743,55.083c-16.799-11.722-35.686-16.465-54.973-19.985c7.821-5.87,38.878-4.749,53.38,2.1
	C140.663,42.895,141.182,48.772,141.743,55.083z M102.203,35.415c4.265,1.151,7.994,2.04,11.645,3.18
	c3.585,1.122,7.123,2.416,10.625,3.776c3.448,1.342,6.825,2.858,10.237,4.295c0.143-0.304-0.066,0.137,0.078-0.167
	c-3.878-2.213-7.403-5.178-11.86-7.714c3.776,0,6.872,0,9.974,0C123.106,35.283,113.024,34.758,102.203,35.415z"/>
<path style="fill:#FEFEFE;" d="M179.845,85.359"/>
<path style="fill:#810D01;" d="M110.632,117.674c-2.404,0.829-4.808,1.658-7.821,2.702c2.72-11.376,3.06-22.168-1.163-33.014
	c0.865-0.352,1.623-0.656,2.416-0.978c4.122,3.484,4.641,8.596,6.932,12.808c0.435-4.373-0.919-8.334-3.114-12.003
	c-3.591-5.995-8.042-11.275-13.608-15.57c-0.37-0.286-0.597-0.758-0.895-1.145c1.026-0.245,2.052-0.489,2.792-0.668
	c11.681,8.394,22.264,17.402,30.478,28.355c0.418,2.368-0.143,3.967-1.491,5.351c-0.203,0.209-0.078,0.752-0.101,1.139
	c-1.581,0.346-3.168,0.68-4.743,1.05c-0.626,0.143-1.235,0.358-1.849,0.543c-0.937,2.261-2.177,4.277-4.432,5.476
	c-0.018,0.012,0.179,0.424,0.274,0.644c-1.026,0.245-2.052,0.489-3.263,0.776c0.346,0.161,0.626,0.286,0.907,0.418
	C111.509,114.936,111.068,116.302,110.632,117.674z"/>
<path style="fill:#EE2205;" d="M77.231,158.897c-4.003-1.372-5.25-2.404-6.711-5.846c3.603-1.718,7.195-3.538,10.869-5.166
	c7.535-3.329,15.284-6.055,23.331-7.881c0.573-0.131,1.169-0.167,1.754-0.245c-0.322,1.998-0.549,5.524-4.098,8.376
	c-0.632,0.507-0.561,1.211-1.133,1.617c-0.573,0.513-1.784,0.877-2.434,1.396c-1.485,1.187-2.947,2.189-4.325,3.036
	c-0.185,0.161-0.37,0.322-0.555,0.483l0.03-0.048c-1.366,0.477-1.778,1.11-3.15,1.593c-0.245,0.101-1.444,0.257-1.688,0.352
	c-0.185,0.012-0.364-0.167-0.543-0.119c-1.187,0.537-2.38,1.08-3.567,1.617c-1.79,0.352-3.573,0.555-5.363,0.573
	C78.841,158.718,78.036,158.807,77.231,158.897z"/>
<path style="fill:#EB2106;" d="M125.057,104.651c0.024-0.388-0.107-0.925,0.101-1.139c1.348-1.384,1.909-2.983,1.491-5.351
	c-8.215-10.953-18.798-19.967-30.478-28.355c-0.74,0.179-1.766,0.424-2.792,0.668c-0.71-1.682-1.02-3.377-0.161-5.53
	c1.032,0.358,2.106,0.513,2.935,1.044c8.925,5.745,17.491,11.973,25.229,19.269c1.652,1.557,3.096,3.359,4.85,4.784
	c1.67,1.354,3.621,2.374,5.453,3.532c0.728,0.459,1.479,0.877,2.416,1.432C133.385,100.601,129.501,102.886,125.057,104.651z"/>
<path style="fill:#7D0D02;" d="M85.01,158.061c1.187-0.537,2.38-1.08,3.567-1.617c1.247,0.268,2.404-0.155,3.854,0.155
	c0.579-1.08,1.098-1.187,1.521-1.981l-0.03,0.048c0.185-0.161,0.37-0.322,0.555-0.483c1.444-1.014,2.881-2.022,4.325-3.036
	c0.549,0.191,2.076,0.424,2.917-0.489c0.656-0.716,0.871-1.718,0.656-2.517c2.583-2.195,3.705-5.107,4.098-8.376
	c0.835,0.871,1.766,1.676,2.482,2.637c0.686,0.925,1.157,2.01,1.927,3.4c0.304-1.014,0.477-1.605,0.668-2.237
	c3.561,2.953,2.685,6.884-2.028,8.787c-1.139-0.412-2.404-0.865-4.236-1.527c1.02,1.575,1.724,2.667,2.368,3.657
	c-1.67,3.561-3.144,4.295-6.646,3.424c-1.79-0.447-3.561-0.943-5.345-1.42c-0.101,0.191-0.209,0.376-0.31,0.567
	c1.521,0.943,3.042,1.885,4.564,2.828c-0.03,0.221-0.066,0.441-0.095,0.662c-1.491,0.221-2.983,0.62-4.48,0.62
	c-1.45-0.006-2.899-0.424-4.743-0.722c0.31,0.817,0.489,1.289,0.716,1.879c-1.175,1.163-2.464,1.462-4.224,0.925
	c-3.472-1.062-7.039-1.82-9.861-4.337c0.805-0.089,1.611-0.179,2.416-0.268C80.768,159.636,83.184,160.603,85.01,158.061z"/>
<path style="fill:#C85432;" d="M116.628,76.362c-1.271-1.062-2.541-2.13-4.295-3.591c1.963,0.245,3.299,0.412,4.898,0.608
	c-0.447-4.11-1.76-8.191,1.36-11.883c7.588,0.227,14.592,2.195,20.73,6.86c-0.441,1.724-0.883,3.454-1.324,5.178
	c-1.825-1.76-3.394-3.878-6.115-4.409c-0.943-0.185-1.879-0.37-2.559-0.507c-0.758,2.195-1.426,4.128-2.094,6.067
	c-1.056,0.173-2.112,0.358-3.168,0.525C121.585,75.599,119.109,75.981,116.628,76.362z"/>
<path style="fill:#EB2106;" d="M104.016,135.064c0.024,0.388,0.042,0.77,0.072,1.301c-3.43,0.937-6.813,1.861-10.279,2.81
	c-1.891-2.512-2.291-5.47-2.69-8.358c-0.286-2.058,1.462-3.919,3.86-4.057c1.724-0.095,3.526,0.268,5.208,0.734
	c1.778,0.495,3.46,1.354,5.184,2.052c0.006,1.032,0.012,2.058,0.018,3.09c-0.06,0.662-0.113,1.33-0.191,2.195
	c-0.364,0.03-0.71,0.06-1.056,0.084c-0.28-0.113-0.555-0.221-0.835-0.334"/>
<path style="fill:#7D0D02;" d="M87.826,49.153c-8.787-3.645-17.533-7.272-26.744-11.09c9.682-0.268,28.378,4.772,33.24,8.883
	C92.216,47.662,90.194,48.348,87.826,49.153z"/>
<path style="fill:#EE2205;" d="M89.812,140.576c-2.81,1.104-5.53,2.166-8.763,3.436c-0.937-3.204-1.808-6.168-2.565-8.758
	c2.243-5.572,4.361-6.693,8.674-4.904C87.999,133.602,88.858,136.913,89.812,140.576z"/>
<path style="fill:#C85432;" d="M135.139,90.71c-0.889-0.233-1.778-0.459-2.768-0.716c-0.089-1.092,0.197-1.802,0.316-2.923
	c-1.396,0.215-2.685,0.406-4.325,0.656c-2.07-0.793-3.52-2.774-5.053-4.647c1.957-0.931,3.49-2.917,6.013-2.476
	c1.509,0.435,3.042,0.799,4.516,1.318c1.957,0.686,3.907,1.438,4.928,3.484C138.462,87.793,136.744,89.212,135.139,90.71z"/>
<path style="fill:#7B0E04;" d="M176.391,75.384c-0.871,0.674-1.646,1.563-2.625,1.987c-3.538,1.533-7.302,1.802-11.072,1.354
	c-3.412-0.406-6.795-1.092-10.183-1.694c-0.752-0.137-1.474-0.459-2.219-0.698c-0.215-1.497-0.406-2.846-0.65-4.588
	c8.656,3.221,17.181,6.759,26.517,2.905C176.23,74.895,176.307,75.14,176.391,75.384z"/>
<path style="fill:#F1EFEF;" d="M180.728,103.846c-4.522,0.68-8.811,1.324-13.679,2.058c0.889-2.177,1.599-3.925,2.362-5.805
	c4.653-0.567,9.247-1.127,14.562-1.778C182.673,100.535,181.671,102.235,180.728,103.846z"/>
<path style="fill:#7D0D02;" d="M170.413,97.934c1.056-2.398,2.452-4.057,4.403-4.802c3.591-1.372,7.308-2.404,10.995-3.508
	c0.626-0.185,1.354-0.024,2.619-0.024c-1.163,2.148-2.112,3.896-3.192,5.888C180.477,96.27,175.657,97.069,170.413,97.934z"/>
<path style="fill:#EB2106;" d="M74.946,136.681c0.972,3.001,1.873,5.781,2.846,8.787c-2.565,1.265-5.178,2.547-7.851,3.866
	C69.147,144.591,71.617,138.238,74.946,136.681z"/>
<path style="fill:#EFE46F;" d="M129.328,80.604c-2.523-0.441-4.051,1.545-6.013,2.476c-2.231-2.237-4.462-4.48-6.687-6.717
	c2.482-0.382,4.963-0.764,7.439-1.151c1.056-0.167,2.112-0.352,3.168-0.525C126.93,77.013,127.58,79.005,129.328,80.604z"/>
<path style="fill:#F1EFEF;" d="M178.867,106.936c-0.608,1.068-0.99,1.736-1.456,2.553c-4.391,1.414-8.835,2.846-13.828,4.456
	c0.978-2.237,1.664-3.818,2.404-5.506C170.151,107.95,174.243,107.479,178.867,106.936z"/>
<path style="fill:#F1EFEF;" d="M175.252,113.152c-1.283,2.237-2.207,3.848-3.174,5.53c-3.424,0-6.741,0-10.589,0
	c0.674-0.889,0.996-1.808,1.557-1.981C166.87,115.491,170.742,114.441,175.252,113.152z"/>
<path style="fill:#EFE46F;" d="M138.002,73.535c0.441-1.724,0.883-3.454,1.324-5.178c0.883,0.626,1.76,1.253,2.607,1.855
	c1.133,4.301,1.569,8.388-0.746,12.247C140.096,79.399,139.046,76.47,138.002,73.535z"/>
<path style="fill:#7B0E04;" d="M65.723,151.446c0.06,1.014,0.095,1.575,0.137,2.333c-7.016,1.593-13.96,3.168-20.903,4.737
	c-0.06-0.245-0.119-0.495-0.179-0.74C51.758,156.021,58.379,153.044,65.723,151.446z"/>
<path style="fill:#E52107;" d="M114.301,112.371c-0.095-0.227-0.292-0.632-0.274-0.644c2.255-1.199,3.496-3.215,4.432-5.476
	c1.724,0.239,3.454,0.477,5.62,0.776C121.221,110.092,117.958,111.571,114.301,112.371z"/>
<path style="fill:#F1EFEF;" d="M137.603,80.151c-5.59-0.919-7.606-3.341-5.673-6.765C134.578,74.978,136.976,76.714,137.603,80.151z
	"/>
<path style="fill:#7B0E04;" d="M85.768,57.213c-3.311,1.247-6.592,2.482-10.016,3.77c-0.65-0.34-1.306-0.686-2.195-1.145
	c1.372-1.718,3.042-2.398,4.898-2.535C80.876,57.111,83.34,57.368,85.768,57.213z"/>
<path style="fill:#C85432;" d="M109.743,62.355c0.692,0.28,0.674,0.632,1.098,1.378c-0.125-0.042-2.392-0.579-4.033,0.74
	c-1.235,0.99-1.485,2.655-1.008,4.236c-1.127-0.591-2.78-1.092-3.019-2.583c-0.113-1.873,0.931-3.287,2.595-4.033
	C106.188,61.729,108.837,61.985,109.743,62.355z"/>
<path style="fill:#7B0E04;" d="M87.826,64.563c-0.597-1.414-1.11-2.267-0.603-5.333c0.686-0.543,1.014-1.909,2.583-2.052
	c2.136-0.107,2.75,1.229,3.072,1.855C91.208,60.995,89.603,62.463,87.826,64.563z"/>
<path style="fill:#7B0E04;" d="M105.394,132.63c-0.006-1.032-0.012-2.058-0.018-3.09c0.889,0.382,1.778,0.746,2.661,1.139
	c1.641,0.728,2.404,1.921,1.855,4.104c-0.841,0.251-1.873,0.561-2.631,0.787C105.967,134.664,107.333,132.725,105.394,132.63z"/>
<path style="fill:#EFE46F;" d="M135.139,90.71c1.605-1.497,3.323-2.917,3.633-5.303c2.225,2.171,1.038,4.522,0.686,7.212
	C137.746,91.861,136.445,91.288,135.139,90.71z"/>
<path style="fill:#EFE46F;" d="M109.672,62.385c-0.31-0.119-2.869-0.835-4.295-0.28c-0.167,0.066-1.766,0.716-2.374,2.44
	c-0.227,0.644-0.34,1.324,0.006,2.243c-0.674-0.292-1.575-1.247-2.434-1.623c0.835-2.303,1.527-4.379,4.027-4.82
	C106.146,60.07,107.584,59.707,109.672,62.385z"/>
<path style="fill:#E52107;" d="M110.632,117.674c0.441-1.372,0.877-2.738,1.318-4.11c2.046,0,4.092,0,6.479,0
	C116.049,115.759,113.251,116.559,110.632,117.674z"/>
<path style="fill:#E52107;" d="M102.203,35.415c10.822-0.656,20.903-0.131,30.699,3.377h-9.974c4.91,2.798,8.746,5.966,13.023,8.406
	c-0.239,0.483,0.239-0.483,0,0c-3.836-1.587-7.618-3.317-11.484-4.82c-3.502-1.36-7.039-2.661-10.625-3.776
	C110.197,37.455,106.468,36.566,102.203,35.415z"/>
<path style="fill:#2E0706;" d="M94.006,154.333c-0.042,0.215-0.346,1.688-1.724,2.44c-1.199,0.656-2.738,0.501-3.89-0.394
	c0.137,0.012,0.286,0.018,0.459,0.006c0.095-0.006,0.185-0.018,0.268-0.03c0.585-0.125,1.223-0.298,1.909-0.543
	C92.24,155.371,93.236,154.834,94.006,154.333z"/>
<path style="fill:#2E0706;" d="M102.382,147.878c0.084,0.239,0.197,0.674,0.137,1.217c-0.024,0.221-0.125,0.99-0.776,1.617
	c-0.632,0.609-1.384,0.686-1.688,0.71c-0.781,0.066-1.384-0.191-1.641-0.322c0.549-0.185,1.372-0.537,2.219-1.205
	C101.535,149.179,102.077,148.397,102.382,147.878z"/>
<path style="fill:#2E0706;" d="M85.141,157.853c-0.054,0.107-0.823,1.646-2.583,1.873c-1.82,0.233-2.965-1.151-3.031-1.229
	c0.764,0.072,1.718,0.095,2.81-0.024C83.453,158.348,84.401,158.097,85.141,157.853z"/>
<path style="fill:#2E0706;" d="M94.477,154.178c-0.185,0.161-0.37,0.322-0.555,0.483C94.107,154.5,94.292,154.339,94.477,154.178z"
	/>
<path style="fill:#7D0D02;" d="M89.848,156.057"/>
<path style="fill:#7D0D02;" d="M89.12,156.355"/>
<path style="fill:#2A0504;" d="M137.465,95.47c-5.268,15.63-17.426,23.206-31.91,28.08c2.267,1.223,4.492,2.177,6.437,3.532
	c2.076,1.444,2.726,3.812,2.995,6.586c4.951-1.247,9.801-2.47,14.652-3.699c7.409-1.873,14.777-3.907,22.234-5.542
	c3.418-0.746,5.459-2.571,6.681-5.643c0.43-1.074,0.859-2.148,1.45-3.615c-3.788,0.543-7.111,0.996-10.428,1.491
	c-3.752,0.567-7.475,1.384-11.275,1.312c6.526-2.571,13.059-5.148,19.585-7.719l-13.56,0.954c6.872-2.702,13.739-5.399,20.671-8.125
	c0.668-1.605,1.277-3.204,1.993-4.761c1.462-3.174,4.128-5.632,7.409-6.825c3.544-1.289,7.135-2.434,10.714-3.627
	c0.656-0.221,1.336-0.412,2.022-0.501c3.126-0.4,4.802,1.545,3.83,4.528c-0.364,1.116-0.978,2.171-1.599,3.186
	c-5.393,8.817-10.845,17.593-16.214,26.428c-3.096,5.101-7.391,8.37-13.256,9.796c-13.596,3.305-27.143,6.789-40.709,10.201
	c-0.567,0.143-1.122,0.334-1.283,0.382c0.084,3.317,0.614,6.497,0.125,9.515c-0.561,3.472-3.526,5.083-6.854,6.001
	c-1.372,2.726-3.609,4.104-6.837,3.8c-2.327,3.687-5.983,4.259-10.004,4.116c-2.41,2.183-5.399,2.327-8.382,1.784
	c-5.453-0.99-10.428-3.239-14.86-6.544c-1.485-1.104-2.613-2.685-4.009-4.164c-16.739,3.448-33.688,6.932-50.612,10.416
	c16.256-6.491,32.453-12.951,49.204-19.639c0.996-4.152,1.593-8.96,1.515-13.834c-0.018-0.919-0.579-1.873-1.032-2.738
	c-4.916-9.288-11.078-17.73-18.32-25.282c-6.598-6.878-13.709-13.268-20.593-19.865c-0.346-0.334-0.71-0.644-0.949-1.169
	c20.921,4.265,40.662,11.203,57.64,25.294c0.71-1.008,1.283-1.837,1.921-2.744c-2.565-3.406-5.572-6.007-8.871-8.197
	c-3.192-2.118-6.598-3.907-10.052-5.924c8.089-1.247,15.851-0.889,23.666,2.327c-0.62-0.71-1.139-1.551-1.879-2.1
	c-4.403-3.305-9.3-5.691-14.443-7.618c-8.417-3.15-17.163-4.874-26.046-6.294c11.138-2.756,22.407-3.204,34.022-1.641
	c-0.358-2.1-0.698-4.086-1.086-6.33c-3.681,2.607-7.439,5.118-12.259,3.913c-2.977-0.74-5.423-2.339-7.093-4.54
	c3.782-2.649,7.487-5.244,11.418-8c-1.772-0.901-3.251-1.652-5.029-2.559c3.036-4.039,7.433-5.441,12.194-6.866
	c-12.582-9.068-26.553-13.703-41.67-17.491c1.635-0.4,2.625-0.764,3.651-0.877c19.746-2.183,38.8,1.175,57.443,7.439
	c15.326,5.148,29.631,12.432,43.274,21.076c6.347,4.021,13.184,6.944,20.629,8.179c2.327,0.388,4.778,0.471,7.117,0.209
	c3.985-0.453,7.051-2.529,8.913-6.192c0.304-0.603,0.638-1.193,1.217-2.273c0.692,2.356,1.426,4.218,1.766,6.145
	c0.853,4.88-1.235,9.092-5.769,11.782c-4.194,2.488-8.871,3.573-13.655,3.758c-6.24,0.245-12.498,0.06-18.857,0.06
	c-1.205,0.954-1.688,2.243-1.617,3.842c0.066,1.39,0.018,2.786-0.018,4.176c-0.078,2.977-1.312,3.812-4.242,2.923
	C138.307,95.685,138.032,95.619,137.465,95.47z M108.908,61.592c-1.485-1.599-2.762-1.527-4.307-1.253
	c-2.494,0.441-3.186,2.517-4.027,4.82c0.859,0.37,4.552,3.251,5.226,3.544l0,0c-0.304-0.996-0.525-2.619,0.692-3.949
	c1.527-1.587,4.182-1.223,4.349-1.026C109.851,62.558,109.606,62.296,108.908,61.592z M123.315,83.08
	c1.533,1.879,2.983,3.854,5.053,4.647c1.641-0.251,3.824-1.211,5.22-1.426c-1.348,2.166-1.205,2.631-1.211,3.687
	c0.984,0.257,1.873,0.483,2.768,0.716c1.301,0.579,2.607,1.151,4.319,1.909c0.346-2.69,1.539-5.041-0.686-7.212
	c-1.014-2.046-2.971-2.792-4.928-3.484c-1.479-0.519-3.007-0.889-4.516-1.318c-1.748-1.605-2.398-3.591-2.094-5.918
	c0.668-1.933,1.545-4.206,1.08-6.306c0.686,0.137,2.631,0.567,3.573,0.746c2.714,0.525,4.283,2.649,6.115,4.409
	c1.044,2.929,2.094,5.864,3.186,8.925c2.315-3.86,1.879-7.946,0.746-12.247c-0.847-0.603-1.73-1.229-2.607-1.855
	c-6.139-4.665-13.142-6.64-20.73-6.86c-3.12,3.693-1.808,7.773-1.36,11.883c-1.605-0.203-2.935-0.364-4.898-0.608
	c1.748,1.462,3.019,2.529,4.295,3.591C118.859,78.606,121.084,80.843,123.315,83.08z M102.453,134.038
	c0.346-0.03,2.386,0.817,2.75,0.787c0.078-0.871,0.131-1.533,0.191-2.195c1.939,0.095,0.573,2.034,1.867,2.941
	c0.758-0.227,1.79-0.537,2.631-0.787c0.549-2.183-0.215-3.377-1.855-4.104c-0.883-0.388-1.778-0.758-2.661-1.139
	c-1.724-0.698-3.4-1.557-5.184-2.052c-1.682-0.465-3.484-0.829-5.208-0.734c-2.404,0.131-4.146,1.998-3.86,4.057
	c0.4,2.893,0.799,5.852,2.69,8.358c3.466-0.949,6.849-1.873,10.279-2.81c-0.03-0.525-0.054-0.913-0.072-1.3L102.453,134.038z
	 M52.79,100.326c0.787,0.883,1.587,1.754,2.368,2.643c2.619,2.959,5.339,5.84,7.833,8.901c3.561,4.367,6.467,9.163,8.608,14.795
	c3.484-4.373,8.238-5.763,13.506-6.514c-0.519-0.632-0.662-0.913-0.889-1.068c-5.906-3.961-11.752-8.012-17.754-11.818
	c-4.236-2.69-8.686-5.047-13.035-7.552 M50.511,97.684c-0.125,0.179-0.245,0.364-0.37,0.543 M106.468,139.765
	c-0.585,0.078-1.181,0.113-1.754,0.245c-8.048,1.825-15.797,4.552-23.331,7.881c-3.675,1.623-7.266,3.442-10.869,5.166
	c1.462,3.442,2.714,4.474,6.711,5.846c2.822,2.517,6.389,3.275,9.861,4.337c1.76,0.537,3.048,0.239,4.224-0.925
	c-0.227-0.591-0.406-1.062-0.716-1.879c1.849,0.304,3.299,0.722,4.743,0.722c1.491,0.006,2.983-0.394,4.48-0.62
	c0.03-0.221,0.066-0.441,0.095-0.662c-1.521-0.943-3.042-1.885-4.564-2.828c0.101-0.191,0.209-0.376,0.31-0.567
	c1.778,0.471,3.556,0.972,5.345,1.42c3.502,0.877,4.969,0.143,6.646-3.424c-0.644-0.99-1.348-2.076-2.368-3.657
	c1.831,0.662,3.096,1.116,4.236,1.527c4.713-1.903,5.584-5.834,2.028-8.787c-0.191,0.632-0.364,1.223-0.668,2.237
	c-0.776-1.39-1.241-2.476-1.927-3.4C108.234,141.435,107.309,140.636,106.468,139.765z M114.301,112.371
	c3.657-0.793,6.92-2.279,9.778-5.351c-2.166-0.298-3.89-0.537-5.62-0.776c0.614-0.185,1.229-0.4,1.849-0.543
	c1.575-0.364,3.162-0.698,4.743-1.05c4.444-1.766,8.328-4.051,9.044-9.64c-0.937-0.555-1.688-0.978-2.416-1.432
	c-1.831-1.151-3.782-2.171-5.453-3.532c-1.754-1.426-3.198-3.227-4.85-4.784c-7.737-7.302-16.304-13.524-25.229-19.269
	c-0.829-0.531-1.903-0.686-2.935-1.044c-0.859,2.148-0.549,3.848,0.161,5.53c0.292,0.388,0.519,0.859,0.895,1.145
	c5.566,4.295,10.016,9.575,13.608,15.57c2.195,3.669,3.55,7.63,3.114,12.003c-2.195-4.045-2.762-8.913-6.443-12.379
	c-0.292-0.274-0.716-0.34-1.086-0.191l-0.901,0.364c-0.507,0.203-0.752,0.776-0.567,1.295c3.854,10.541,3.454,21.041,0.811,32.095
	c3.013-1.038,5.417-1.873,7.821-2.702c2.625-1.116,5.423-1.915,7.797-4.11c-2.386,0-4.432,0-6.479,0
	c-0.28-0.131-0.561-0.257-0.907-0.418C112.249,112.86,113.275,112.615,114.301,112.371z M110.262,141.048
	c1.354-0.155,2.35-0.167,3.287-0.4c15.105-3.687,30.222-7.32,45.291-11.156c4.653-1.187,8.638-3.651,11.376-8.131
	c-3.025,0-5.727,0-8.471,0c0.352,1.271,1.253,1.814,1.515,2.756c-1.253,1.921-3.341,3.335-5.333,3.77
	c-9.408,2.07-18.786,4.307-28.176,6.461c-6.503,1.491-13.011,2.953-19.609,4.444C110.185,139.532,110.215,140.081,110.262,141.048z
	 M87.826,49.153c2.368-0.805,4.391-1.491,6.497-2.207c-4.862-4.11-23.558-9.151-33.24-8.883
	C70.293,41.881,79.038,45.508,87.826,49.153z M89.812,140.576c-0.949-3.663-1.808-6.968-2.655-10.225
	c-4.319-1.79-6.431-0.662-8.674,4.904c0.758,2.583,1.629,5.554,2.565,8.758C84.282,142.742,87.002,141.674,89.812,140.576z
	 M84.348,60.679c-4.838,0.835-8.758,2.863-12.319,6.365c-1.402,1.384-2.905,2.667-4.325,3.967c3.556,1.629,5.059,1.736,8.012,0.185
	c3.442-1.814,6.819-3.746,10.016-5.518C85.296,64.085,84.825,62.397,84.348,60.679z M176.391,75.384
	c-0.078-0.245-0.161-0.489-0.239-0.734c-9.336,3.86-17.861,0.322-26.517-2.905c0.251,1.742,0.441,3.084,0.65,4.588
	c0.746,0.239,1.468,0.561,2.219,0.698c3.388,0.608,6.771,1.295,10.183,1.694c3.77,0.447,7.535,0.179,11.072-1.354
	C174.745,76.947,175.52,76.058,176.391,75.384z M180.728,103.846c0.943-1.611,1.945-3.311,3.239-5.524
	c-5.315,0.65-9.909,1.211-14.562,1.778c-0.764,1.879-1.473,3.627-2.362,5.805C171.917,105.17,176.206,104.526,180.728,103.846z
	 M170.413,97.934c5.244-0.865,10.064-1.658,14.825-2.446c1.08-1.993,2.028-3.74,3.192-5.888c-1.265,0-1.993-0.161-2.619,0.024
	c-3.687,1.104-7.409,2.136-10.995,3.508C172.865,93.872,171.469,95.536,170.413,97.934z M74.946,136.681
	c-3.329,1.557-5.799,7.916-5.011,12.653c2.679-1.318,5.286-2.601,7.851-3.866C76.819,142.461,75.918,139.681,74.946,136.681z
	 M178.867,106.936c-4.623,0.537-8.722,1.014-12.874,1.497c-0.74,1.694-1.426,3.269-2.404,5.506
	c4.993-1.611,9.438-3.042,13.828-4.456C177.876,108.678,178.258,108.01,178.867,106.936z M175.252,113.152
	c-4.51,1.289-8.382,2.344-12.206,3.55c-0.561,0.179-0.883,1.092-1.557,1.981c3.848,0,7.171,0,10.589,0
	C173.044,117,173.969,115.389,175.252,113.152z M65.723,151.446c-7.344,1.599-13.965,4.57-20.945,6.335
	c0.06,0.245,0.119,0.495,0.179,0.74c6.944-1.575,13.894-3.15,20.903-4.737C65.813,153.02,65.783,152.466,65.723,151.446z
	 M137.603,80.151c-0.626-3.436-3.025-5.178-5.673-6.765C129.997,76.81,132.013,79.232,137.603,80.151z M85.726,57.225
	c0-0.006,0-0.006,0-0.012c-2.416,0.155-4.862-0.101-7.272,0.084c-1.855,0.143-3.526,0.823-4.898,2.535
	c0.889,0.465,1.551,0.811,2.195,1.145C79.158,59.695,82.427,58.466,85.726,57.225z M87.826,64.563
	c0.024-0.674,0.161-1.772,0.799-2.905c0.245-0.435,0.513-0.787,0.764-1.074c0.28-0.286,0.686-0.638,1.241-0.937
	c0.901-0.483,1.748-0.591,2.243-0.614c-0.817-1.342-2.13-2.058-3.251-1.82c-1.175,0.251-1.742,1.462-2.016,2.052
	C86.537,61.562,87.545,63.948,87.826,64.563z"/>
<path style="fill:#7D0D02;" d="M66.463,107.264c6.001,3.806,11.848,7.863,17.754,11.818c0.227,0.155,0.37,0.435,0.889,1.068
	c-5.268,0.752-10.022,2.142-13.506,6.514c-2.142-5.632-5.047-10.428-8.608-14.795c-2.494-3.06-5.214-5.942-7.833-8.901
	c-1.39-1.569-2.816-3.108-4.182-4.695C56.095,101.34,61.428,104.067,66.463,107.264z"/>
<path style="fill:#7D0D02;" d="M85.362,60.202c-0.805,2.034,0,3.86,0.901,5.238c-3.198,1.766-7.099,3.943-10.547,5.757
	c-2.953,1.551-4.456,1.444-8.012-0.185c1.42-1.295,2.923-2.583,4.325-3.967C75.59,63.542,80.53,61.037,85.362,60.202z"/>
<path style="fill:#7B0E04;" d="M110.262,141.048c-0.054-0.966-0.078-1.521-0.119-2.249c6.598-1.497,13.106-2.953,19.609-4.444
	c9.39-2.154,18.768-4.391,28.176-6.461c1.987-0.435,3.388-1.575,4.355-3.198c0.567-0.829-0.191-2.064-0.537-3.329
	c2.744,0,5.447,0,8.471,0c-2.738,4.48-6.723,6.95-11.376,8.131c-15.069,3.836-30.186,7.469-45.291,11.156
	C112.613,140.88,111.616,140.892,110.262,141.048z"/>
<path style="fill:#2A0504;" d="M89.77,58.478"/>
<path style="fill:#2E0706;" d="M84.795,157.31"/>
<path style="fill:#FEFEFE;" d="M180.233,86.2"/>
<path style="fill:#BDBCBC;" d="M175.806,86.647"/>
<path style="fill:#BDBCBC;" d="M151.073,100.344"/>
</svg>
