<?xml version="1.0" encoding="utf-8"?>
<!-- Generator: Adobe Illustrator 24.1.2, SVG Export Plug-In . SVG Version: 6.00 Build 0)  -->
<svg version="1.1" id="Layer_1" xmlns="http://www.w3.org/2000/svg" xmlns:xlink="http://www.w3.org/1999/xlink" x="0px" y="0px"
	 viewBox="0 0 200 200" style="enable-background:new 0 0 200 200;" xml:space="preserve">
<path style="fill:#5B5B59;" d="M45.262,134.883c-1.265-0.177-2.436-0.348-3.609-0.503c-0.697-0.092-1.406-0.116-2.095-0.252
	c-1.402-0.278-1.782-1.7-1.067-2.614c1.027-1.315,2.055-2.633,3.046-3.977c2.182-2.961,4.126-6.068,5.587-9.452
	c0.607-1.405,1.109-2.855,1.654-4.269c-1.52-0.73-2.945-1.402-4.361-2.095c-3.531-1.73-6.898-3.737-10.126-5.981
	c-3.552-2.469-6.853-5.237-9.824-8.38c-3.19-3.375-5.911-7.102-8.134-11.182c-2.087-3.829-3.586-7.888-4.584-12.123
	c-0.432-1.832-0.757-3.702-0.963-5.572c-0.201-1.819-0.206-3.66-0.268-5.494c-0.095-2.831,0.158-5.644,0.617-8.431
	c0.367-2.227,0.88-4.427,1.488-6.608c0.875-3.143,1.994-6.19,3.327-9.162c1.7-3.79,3.71-7.408,6.1-10.805
	c2.355-3.346,5.086-6.358,8.245-8.964c2.761-2.277,5.725-4.25,8.898-5.915c2.692-1.412,5.489-2.561,8.366-3.519
	c2.599-0.866,5.244-1.581,7.939-2.065c2.074-0.372,4.168-0.65,6.259-0.925c3.472-0.457,6.968-0.379,10.457-0.335
	c1.366,0.018,2.733,0.193,4.093,0.344c0.851,0.096,1.289,0.612,1.426,1.525c0.085,0.56-0.344,1.317-0.944,1.608
	c-4.145,2.005-7.996,4.487-11.637,7.292c-2.816,2.169-5.458,4.541-7.874,7.152c-2.079,2.248-4.003,4.619-5.599,7.244
	c-1.197,1.97-2.23,4.022-2.977,6.203c-0.869,2.54-1.129,5.163-1.001,7.84c0.212,4.471,1.438,8.612,3.951,12.339
	c0.846,1.254,1.84,2.386,2.978,3.415c0.601-0.52,1.168-1.028,1.752-1.513c1.705-1.416,3.55-2.63,5.475-3.719
	c0.487-0.275,0.814-0.604,1.067-1.12c1.027-2.095,2.304-4.041,3.722-5.89c1.563-2.039,3.356-3.873,5.249-5.601
	c1.873-1.712,3.871-3.281,6.004-4.656c1.95-1.256,3.959-2.421,5.951-3.608c0.462-0.275,0.975-0.464,1.446-0.725
	c0.156-0.086,0.32-0.256,0.37-0.421c0.932-3.074,2.555-5.793,4.308-8.447c1.775-2.687,3.744-5.229,5.788-7.714
	c0.447-0.543,0.886-1.098,1.379-1.599c0.646-0.656,1.735-0.861,2.561-0.001c0.907,0.943,1.832,1.879,2.649,2.898
	c1.268,1.582,2.515,3.189,3.658,4.862c2.174,3.181,3.957,6.582,5.36,10.175c0.152,0.388,0.375,0.61,0.743,0.782
	c3.451,1.609,6.721,3.527,9.81,5.758c4.551,3.287,8.471,7.174,11.421,11.981c0.54,0.88,0.98,1.822,1.44,2.75
	c0.13,0.262,0.284,0.436,0.553,0.564c1.579,0.747,3.054,1.672,4.411,2.768c0.907,0.734,1.747,1.55,2.707,2.41
	c0.576-0.54,1.244-1.083,1.814-1.714c2.527-2.801,3.92-6.139,4.581-9.817c0.325-1.809,0.451-3.631,0.526-5.467
	c0.139-3.398-0.555-6.599-2.011-9.658c-1.171-2.46-2.606-4.752-4.4-6.798c-1.448-1.651-2.897-3.316-4.493-4.817
	c-1.756-1.65-3.651-3.16-5.541-4.659c-2.816-2.237-5.85-4.161-8.949-5.977c-1.205-0.707-2.448-1.352-3.687-1.999
	c-0.571-0.298-0.947-0.692-1.055-1.357c-0.11-0.681,0.257-1.446,0.915-1.68c0.318-0.113,0.661-0.207,0.994-0.212
	c3.431-0.05,6.862-0.119,10.292-0.096c1.71,0.012,3.422,0.165,5.125,0.325c3.978,0.372,7.911,1.025,11.77,2.079
	c4.297,1.175,8.433,2.751,12.192,5.175c1.736,1.119,3.378,2.385,5.06,3.589c0.604,0.432,1.237,0.832,1.791,1.32
	c0.995,0.879,1.982,1.775,2.901,2.733c2.753,2.867,5.131,6.033,7.29,9.367c1.923,2.97,3.611,6.067,5.016,9.315
	c1.534,3.548,2.718,7.206,3.492,10.998c0.439,2.152,0.783,4.313,0.837,6.511c0.039,1.592,0.139,3.19,0.058,4.777
	c-0.113,2.21-0.258,4.43-0.594,6.615c-0.353,2.29-0.861,4.565-1.451,6.807c-1.326,5.036-3.409,9.755-6.226,14.143
	c-1.621,2.526-3.426,4.907-5.434,7.144c-4.016,4.471-8.669,8.146-13.794,11.255c-3.374,2.048-6.906,3.766-10.654,5.159
	c0.303,0.776,0.567,1.547,0.9,2.288c1.803,4.024,3.993,7.832,6.476,11.472c0.77,1.129,1.569,2.238,2.364,3.349
	c0.862,1.204,0.515,2.315-0.886,2.838c-1.417,0.53-2.876,0.863-4.388,0.969c-0.339,0.024-0.675,0.093-1.123,0.158
	c0.344,0.696,0.621,1.398,1.016,2.022c0.696,1.098,1.463,2.15,2.204,3.219c0.103,0.149,0.236,0.278,0.331,0.43
	c0.378,0.61,0.575,1.22,0.324,1.971c-0.991,2.956-2.099,5.861-3.415,8.691c-1.862,4.003-4.093,7.786-6.685,11.355
	c-1.073,1.477-2.239,2.886-3.375,4.315c-2.025,2.547-4.314,4.857-6.715,7.037c-2.093,1.901-4.315,3.666-6.55,5.405
	c-3.71,2.887-7.699,5.361-11.85,7.556c-2.429,1.284-4.931,2.433-7.435,3.569c-3.168,1.438-6.438,2.615-9.776,3.602
	c-0.364,0.108-0.736,0.189-1.095,0.313c-0.943,0.324-1.782-0.075-2.608-0.404c-4.702-1.874-9.335-3.905-13.827-6.247
	c-4.429-2.308-8.74-4.815-12.807-7.717c-2.236-1.596-4.388-3.311-6.556-5.003c-2.71-2.115-5.155-4.525-7.49-7.031
	c-3.4-3.651-6.402-7.613-8.891-11.957c-1.854-3.235-3.405-6.594-4.48-10.164c-0.356-1.185-0.634-2.395-0.907-3.601
	c-0.13-0.573,0.091-1.096,0.39-1.594c0.701-1.163,1.406-2.324,2.055-3.517C44.463,136.713,44.817,135.841,45.262,134.883z
	 M154.525,142.037c-0.045-0.107-0.065-0.233-0.138-0.316c-1.716-1.984-2.996-4.224-3.937-6.662
	c-0.153-0.398-0.242-0.818-0.366-1.248c2.568-0.11,5.066-0.166,7.435-1.233c-0.127-0.224-0.196-0.37-0.287-0.501
	c-1.14-1.653-2.333-3.27-3.409-4.963c-1.206-1.897-2.35-3.837-3.445-5.803c-1.165-2.093-2.121-4.29-2.969-6.529
	c-0.187-0.493-0.293-1.016-0.435-1.514c0.418-0.144,0.746-0.239,1.058-0.367c1.225-0.503,2.47-0.965,3.662-1.537
	c2.101-1.009,4.216-2.007,6.237-3.162c1.843-1.055,3.594-2.277,5.338-3.492c1.999-1.392,3.866-2.957,5.623-4.645
	c1.148-1.103,2.245-2.262,3.326-3.434c0.832-0.901,1.642-1.827,2.39-2.798c1.46-1.895,2.795-3.873,3.989-5.953
	c1.577-2.747,2.876-5.61,3.911-8.597c1.111-3.207,1.895-6.489,2.369-9.855c0.278-1.97,0.527-3.942,0.554-5.925
	c0.03-2.278,0.049-4.566-0.142-6.832c-0.169-2.007-0.529-4.013-0.983-5.977c-0.903-3.899-2.224-7.666-4.024-11.249
	c-0.831-1.651-1.667-3.308-2.629-4.884c-1.212-1.987-2.506-3.93-3.858-5.826c-0.966-1.356-2.081-2.604-3.135-3.897
	c-1.226-1.501-2.538-2.933-4.056-4.134c-1.73-1.369-3.533-2.648-5.33-3.931c-2.5-1.786-5.215-3.188-8.082-4.275
	c-1.646-0.624-3.323-1.187-5.02-1.659c-1.714-0.476-3.462-0.844-5.207-1.187c-1.353-0.267-2.724-0.444-4.092-0.621
	c-0.935-0.121-1.878-0.182-2.818-0.253c-1.661-0.126-3.322-0.258-4.984-0.352c-1.206-0.068-2.415-0.098-3.623-0.103
	c-0.904-0.004-1.809,0.063-2.715,0.096c-1.268,0.045-2.536,0.085-3.803,0.131c-0.067,0.002-0.131,0.055-0.298,0.131
	c0.251,0.145,0.413,0.25,0.586,0.338c0.481,0.249,0.976,0.472,1.448,0.736c2.77,1.551,5.494,3.18,8.093,5.004
	c1.413,0.991,2.803,2.016,4.164,3.078c1.234,0.964,2.452,1.957,3.606,3.013c1.229,1.126,2.38,2.34,3.561,3.52
	c1.541,1.541,2.863,3.264,4.102,5.05c1.357,1.954,2.486,4.04,3.317,6.271c0.846,2.267,1.402,4.606,1.399,7.043
	c-0.001,1.187-0.012,2.38-0.126,3.56c-0.152,1.573-0.298,3.161-0.645,4.697c-0.405,1.796-1.006,3.549-1.834,5.21
	c-1.073,2.153-2.49,4.046-4.308,5.62c-0.582,0.504-1.252,0.907-1.83,1.319c-0.924-0.918-1.754-1.762-2.608-2.581
	c-0.332-0.319-0.71-0.589-1.075-0.872c-1.324-1.027-2.767-1.856-4.274-2.584c-0.246-0.119-0.495-0.371-0.6-0.622
	c-1.218-2.911-3.014-5.447-5.087-7.79c-1.066-1.204-2.249-2.304-3.398-3.43c-1.483-1.454-3.145-2.69-4.838-3.883
	c-2.944-2.074-6.072-3.834-9.344-5.335c-0.375-0.172-0.604-0.421-0.761-0.794c-0.548-1.292-1.106-2.58-1.682-3.859
	c-1.1-2.443-2.476-4.731-3.973-6.945c-0.674-0.997-1.411-1.953-2.15-2.905c-0.663-0.857-1.339-1.708-2.062-2.513
	c-0.589-0.657-1.257-1.243-1.931-1.901c-0.42,0.5-0.839,0.98-1.239,1.476c-1.123,1.391-2.267,2.764-3.348,4.188
	c-0.897,1.182-1.742,2.407-2.558,3.646c-0.794,1.206-1.563,2.435-2.268,3.696c-0.863,1.545-1.608,3.151-2.022,4.886
	c-0.062,0.262-0.196,0.381-0.452,0.49c-0.663,0.28-1.314,0.597-1.94,0.953c-1.432,0.815-2.864,1.632-4.263,2.5
	c-2.567,1.592-4.975,3.406-7.215,5.431c-1.029,0.93-1.977,1.95-2.96,2.933c-1.255,1.257-2.357,2.642-3.361,4.103
	c-1.048,1.524-2.03,3.087-2.793,4.779c-0.121,0.268-0.381,0.512-0.637,0.675c-1.235,0.789-2.51,1.517-3.733,2.324
	c-1.446,0.954-2.789,2.045-4.01,3.28c-0.276,0.28-0.523,0.589-0.8,0.904c-0.188-0.166-0.318-0.289-0.457-0.401
	c-0.139-0.114-0.298-0.206-0.432-0.327c-2.481-2.279-4.399-4.953-5.701-8.069c-1.219-2.916-1.868-5.96-2.031-9.104
	c-0.078-1.486-0.022-2.973,0.204-4.457c0.356-2.341,1.057-4.57,2.051-6.706c1.416-3.04,3.179-5.868,5.377-8.407
	c1.33-1.536,2.69-3.047,4.076-4.535c0.685-0.736,1.442-1.41,2.193-2.081c0.915-0.816,1.838-1.626,2.798-2.389
	c1.243-0.986,2.49-1.971,3.8-2.865c1.807-1.233,3.652-2.415,5.521-3.549c1.217-0.738,2.51-1.351,3.765-2.027
	c0.114-0.061,0.196-0.181,0.399-0.373c-1.128-0.101-2.083-0.258-3.038-0.258c-3.087,0-6.175,0.023-9.261,0.108
	c-1.421,0.039-2.843,0.195-4.254,0.378c-1.406,0.182-2.804,0.441-4.199,0.707c-2.618,0.498-5.198,1.163-7.718,2.014
	c-2.701,0.912-5.358,1.954-7.853,3.354c-1.593,0.894-3.177,1.81-4.716,2.791c-2.054,1.309-3.949,2.84-5.732,4.497
	c-1.861,1.731-3.584,3.599-5.135,5.615c-2.038,2.652-3.796,5.485-5.327,8.454c-0.82,1.588-1.58,3.209-2.301,4.845
	c-0.607,1.376-1.182,2.773-1.657,4.199c-0.895,2.677-1.701,5.384-2.179,8.174c-0.27,1.577-0.575,3.154-0.735,4.744
	c-0.144,1.42-0.13,2.858-0.154,4.287c-0.052,3,0.032,5.986,0.584,8.954c0.504,2.706,1.158,5.361,2.079,7.956
	c1.169,3.292,2.709,6.405,4.558,9.36c1.678,2.682,3.601,5.193,5.782,7.481c1.598,1.677,3.312,3.246,5.023,4.81
	c1.916,1.752,4.013,3.285,6.181,4.704c1.847,1.21,3.737,2.364,5.678,3.414c2.334,1.262,4.739,2.391,7.118,3.571
	c0.428,0.212,0.872,0.393,1.275,0.573c-0.148,1.502-0.657,2.835-1.147,4.167c-0.85,2.31-1.985,4.484-3.24,6.593
	c-1.491,2.506-3.157,4.895-4.977,7.174c-0.461,0.577-0.911,1.163-1.439,1.838c2.676,0.293,5.246,0.587,7.813,1.181
	c-0.353,0.831-0.634,1.608-1.004,2.341c-0.814,1.614-1.668,3.207-2.511,4.807c-0.194,0.367-0.404,0.727-0.606,1.09
	c-0.035,0.224-0.136,0.461-0.095,0.669c0.565,2.844,1.508,5.566,2.692,8.209c1.393,3.114,3.101,6.049,5.038,8.851
	c1.994,2.887,4.193,5.615,6.647,8.122c1.663,1.7,3.406,3.327,5.165,4.929c1.279,1.165,2.61,2.278,3.977,3.34
	c2.542,1.975,5.183,3.814,7.903,5.541c3.111,1.974,6.3,3.812,9.594,5.455c2.591,1.292,5.218,2.517,7.86,3.705
	c1.849,0.832,3.742,1.569,5.632,2.307c0.353,0.138,0.791,0.153,1.171,0.101c0.491-0.068,0.968-0.255,1.446-0.4
	c4.252-1.295,8.362-2.95,12.373-4.857c3.619-1.72,7.119-3.657,10.484-5.835c2.719-1.762,5.378-3.611,7.851-5.712
	c1.489-1.265,2.997-2.511,4.417-3.85c2.362-2.23,4.647-4.542,6.642-7.115c1.404-1.811,2.809-3.629,4.102-5.519
	c1.99-2.911,3.694-5.992,5.182-9.193c1.245-2.679,2.301-5.431,3.211-8.24C154.587,142.383,154.533,142.203,154.525,142.037z"/>
<path d="M154.525,142.037c0.007,0.165,0.062,0.347,0.015,0.493c-0.909,2.809-1.965,5.56-3.211,8.24
	c-1.488,3.201-3.192,6.282-5.182,9.193c-1.292,1.891-2.698,3.708-4.102,5.519c-1.994,2.573-4.279,4.886-6.642,7.115
	c-1.42,1.34-2.928,2.585-4.417,3.85c-2.472,2.101-5.131,3.95-7.851,5.712c-3.365,2.178-6.864,4.115-10.484,5.835
	c-4.012,1.906-8.122,3.562-12.373,4.857c-0.479,0.145-0.955,0.332-1.446,0.4c-0.381,0.052-0.818,0.038-1.171-0.101
	c-1.889-0.738-3.783-1.476-5.632-2.307c-2.641-1.188-5.268-2.413-7.86-3.705c-3.294-1.644-6.483-3.481-9.594-5.455
	c-2.721-1.727-5.36-3.566-7.903-5.541c-1.366-1.061-2.698-2.175-3.977-3.34c-1.759-1.602-3.502-3.229-5.165-4.929
	c-2.453-2.507-4.651-5.235-6.647-8.122c-1.936-2.802-3.645-5.737-5.038-8.851c-1.183-2.644-2.127-5.365-2.692-8.209
	c-0.041-0.209,0.059-0.446,0.095-0.669c0.228-0.076,0.473-0.119,0.68-0.233c1.215-0.672,2.478-1.274,3.619-2.056
	c3.796-2.603,6.415-6.074,7.513-10.6c0.196-0.809,0.306-1.637,0.466-2.51c-2.334,0.327-4.515,0.207-6.741-0.443
	c2.455-2.128,4.065-4.756,5.344-7.615c1.284-2.869,2.027-5.883,2.489-8.988c-0.15-0.059-0.24-0.103-0.335-0.132
	c-1.748-0.548-3.525-1.018-5.24-1.654c-7.58-2.808-14.427-6.826-20.273-12.46c-3.876-3.736-7.015-8.015-9.324-12.879
	c-2.835-5.974-4.188-12.31-4.348-18.897c-0.052-2.114,0.102-4.234,0.184-6.351c0.113-2.91,0.654-5.757,1.357-8.572
	c1.046-4.188,2.665-8.149,4.867-11.86c2.144-3.613,4.754-6.858,7.804-9.753c3.329-3.16,7.027-5.805,11.062-7.974
	c4.892-2.63,10.037-4.572,15.539-5.485c1.008-0.167,2.021-0.227,3.064-0.098c-0.154,0.165-0.329,0.284-0.509,0.39
	c-3.52,2.07-6.676,4.596-9.487,7.555c-3.705,3.898-6.529,8.329-8.185,13.474c-0.964,2.995-1.431,6.072-1.468,9.207
	c-0.017,1.409,0.096,2.821,0.2,4.228c0.195,2.642,0.717,5.223,1.603,7.721c1.539,4.334,4.048,7.958,7.858,10.616
	c1.849,1.289,3.866,2.219,6.04,2.87c0.085-0.112,0.166-0.199,0.228-0.299c0.972-1.566,2.083-3.026,3.381-4.336
	c1.994-2.01,4.193-3.658,7.113-3.897c0.299-0.9,0.537-1.797,0.891-2.646c1.28-3.064,3.283-5.628,5.622-7.948
	c2.944-2.918,6.288-5.31,9.907-7.304c2.098-1.155,4.274-2.169,6.407-3.263c0.211-0.108,0.445-0.296,0.532-0.503
	c0.572-1.374,1.083-2.774,1.66-4.145c1.329-3.158,2.743-6.277,4.553-9.196c0.336-0.541,0.713-1.056,1.152-1.703
	c0.873,1.217,1.719,2.299,2.46,3.448c2.333,3.617,3.966,7.554,5.205,11.66c0.103,0.342,0.246,0.532,0.599,0.646
	c5.142,1.656,9.678,4.373,13.693,7.957c3.829,3.419,6.784,7.49,8.865,12.191c0.092,0.209,0.324,0.393,0.535,0.504
	c0.569,0.301,1.174,0.533,1.742,0.834c3.475,1.839,6.496,4.138,8.002,7.985c0.124-0.016,0.247-0.01,0.356-0.047
	c1.027-0.347,2.089-0.621,3.071-1.068c4.65-2.113,8.026-5.542,10.216-10.138c1.497-3.143,2.268-6.477,2.559-9.94
	c0.194-2.317,0.238-4.624,0.001-6.941c-0.218-2.133-0.65-4.213-1.305-6.251c-1.725-5.37-4.743-9.948-8.629-13.979
	c-2.787-2.89-5.908-5.374-9.353-7.446c-0.162-0.097-0.308-0.221-0.462-0.331c0.155-0.101,0.27-0.115,0.381-0.098
	c0.952,0.154,1.908,0.29,2.854,0.475c6.335,1.244,12.315,3.447,17.913,6.674c4.982,2.872,9.348,6.477,12.963,10.96
	c3.493,4.333,6.011,9.189,7.675,14.497c1.518,4.846,2.231,9.822,2.397,14.88c0.055,1.645,0.002,3.297-0.068,4.943
	c-0.093,2.215-0.423,4.402-0.863,6.577c-0.841,4.159-2.292,8.087-4.333,11.799c-2.98,5.417-6.993,9.966-11.801,13.816
	c-5.585,4.471-11.809,7.808-18.543,10.201c-1.28,0.455-2.581,0.85-3.917,1.286c0.042,0.211,0.095,0.422,0.125,0.635
	c0.449,3.055,1.272,6.01,2.472,8.851c1.083,2.561,2.465,4.936,4.553,6.835c0.067,0.061,0.102,0.155,0.177,0.275
	c-2.165,0.445-4.271,0.826-6.485-0.006c0.051,0.45,0.104,0.818,0.133,1.189c0.135,1.703,0.638,3.306,1.376,4.833
	c1.336,2.762,3.304,4.998,5.764,6.815C150.579,140.123,152.472,141.223,154.525,142.037z M106.402,150.995
	c0.076-0.079,0.153-0.159,0.228-0.238c0.065-0.042,0.149-0.072,0.193-0.13c0.991-1.303,1.814-2.71,2.509-4.189
	c1.737-3.703,2.941-7.587,3.851-11.564c0.5-2.184,0.904-4.389,1.329-6.59c0.196-1.02,0.356-2.048,0.498-3.077
	c0.15-1.092,0.262-2.191,0.387-3.287c0.156-1.372,0.32-2.745,0.46-4.12c0.038-0.369,0.145-0.62,0.489-0.826
	c0.964-0.578,1.939-1.153,2.836-1.826c2.282-1.71,3.89-3.939,4.856-6.624c0.084-0.23,0.076-0.493,0.112-0.742
	c0.212-0.723,0.424-1.445,0.634-2.158c-0.976,0.896-1.864,1.832-2.87,2.614c-3.144,2.441-6.73,3.675-10.716,3.717
	c-0.629,0.007-0.632-0.007-0.632,0.638c-0.001,1.442,0.019,2.884-0.004,4.326c-0.038,2.302-0.105,4.604-0.159,6.906
	c-0.01,0.444,0.008,0.89-0.022,1.331c-0.105,1.564-0.222,3.127-0.343,4.69c-0.119,1.52-0.213,3.044-0.382,4.56
	c-0.2,1.793-0.445,3.583-0.714,5.366c-0.228,1.506-0.502,3.004-0.787,4.502c-0.198,1.041-0.446,2.072-0.67,3.109l0.015,0.027
	c-0.039,0.061-0.076,0.121-0.115,0.183c-0.007,0.075-0.013,0.149-0.021,0.224c-0.038,0.132-0.075,0.264-0.113,0.396
	c-0.279,0.849-0.558,1.699-0.837,2.547c0,0.081,0,0.164,0,0.245c-0.036,0.012-0.073,0.024-0.109,0.036
	c0.007,0.016,0.015,0.033,0.022,0.049C106.352,151.06,106.377,151.028,106.402,150.995z M99.17,68.529
	c-0.097-0.394-0.194-0.787-0.29-1.181c-0.036-0.639-0.067-1.278-0.113-1.916c-0.029-0.399,0.156-0.492,0.533-0.533
	c0.632-0.069,1.278-0.162,1.873-0.372c1.209-0.428,1.923-1.559,1.787-2.673c-0.036,0.011-0.082,0.012-0.108,0.035
	c-1.596,1.445-3.447,1.986-5.566,1.562c-0.972-0.195-1.899-0.512-2.696-1.126c-0.748-0.577-1.174-1.352-1.114-2.287
	c0.074-1.168,0.683-2.032,1.774-2.519c0.001,0.141,0.007,0.283,0.004,0.423c-0.057,2.566,2.015,4.29,4.493,3.693
	c1.822-0.439,2.589-1.896,2.19-3.293c-0.005-0.08,0.004-0.164-0.016-0.24c-0.775-2.91-1.55-5.82-2.336-8.726
	c-0.045-0.167-0.19-0.307-0.29-0.46c0.008-0.074,0.017-0.147,0.024-0.221c-0.013-0.055-0.028-0.109-0.041-0.164
	c-0.169-0.485-0.337-0.969-0.504-1.454c-0.064-0.036-0.127-0.097-0.194-0.104c-1.684-0.164-3.341-0.443-4.921-1.08
	c-1.016-0.533-1.958-1.168-2.743-2.016c-0.016,0.011-0.034,0.018-0.045,0.032c-0.01,0.012-0.008,0.03-0.012,0.046
	c0.019-0.028,0.04-0.056,0.059-0.084c-0.023,0.067-0.081,0.145-0.063,0.2c0.159,0.492,0.261,1.022,0.514,1.462
	c0.483,0.837,0.415,1.64,0.057,2.471c-1.26,2.923-1.753,6.027-2.102,9.155c-0.188,1.69-0.268,3.394-0.358,5.093
	c-0.076,1.438-0.131,2.88-0.132,4.32c-0.001,1.805,0.044,3.611,0.107,5.415c0.049,1.358,0.121,2.718,0.25,4.07
	c0.16,1.697,0.386,3.389,0.588,5.083c0.28,2.333,0.798,4.618,1.474,6.864c0.451,1.5,0.944,2.992,1.805,4.325
	c0.032,0.142,0.062,0.285,0.11,0.507c-0.599-0.101-1.125-0.2-1.655-0.276c-2.595-0.373-5.136-0.982-7.648-1.717
	c-2.835-0.828-5.581-1.881-8.142-3.375c-0.235-0.137-0.497-0.23-0.746-0.343c-0.141,0.073-0.291,0.132-0.422,0.222
	c-3.299,2.26-5.341,5.369-6.227,9.251c-0.067,0.29-0.097,0.589-0.16,0.987c0.483-0.415,0.855-0.749,1.242-1.065
	c1.883-1.535,4.042-2.196,6.439-1.825c1.457,0.226,2.849,0.742,4.219,1.317c0.908,0.382,1.792,0.886,2.814,0.944
	c0.418,0.189,0.839,0.372,1.252,0.57c0.405,0.195,0.786,0.139,1.14-0.103c0.513-0.35,1.033-0.696,1.517-1.083
	c1.022-0.82,2.079-1.577,3.292-2.094c0.107-0.046,0.233-0.047,0.35-0.07c0.016,0.033,0.03,0.065,0.046,0.098
	c-0.108,0.133-0.216,0.266-0.324,0.399c-0.199,0.171-0.401,0.338-0.597,0.513c-0.873,0.781-1.718,1.591-2.253,2.654
	c-0.125,0.249-0.156,0.543-0.201,0.709c1.616,0.795,3.124,1.508,4.606,2.277c0.761,0.395,1.473,0.888,2.207,1.336
	c0.03,0.273,0.102,0.549,0.081,0.818c-0.039,0.498-0.143,0.991-0.201,1.488c-0.132,1.134-0.233,2.272-0.384,3.402
	c-0.173,1.29-0.359,2.579-0.594,3.858c-0.253,1.374-0.58,2.735-0.854,4.105c-0.047,0.235-0.063,0.53,0.038,0.732
	c0.354,0.72,0.751,1.42,1.158,2.113c1.158,1.97,2.519,3.79,4.128,5.415c0.446,0.45,0.953,0.839,1.432,1.255
	c1.34-1.033,2.382-2.233,3.392-3.464c1.323-1.611,2.425-3.358,3.181-5.306c0.115-0.298,0.133-0.675,0.073-0.992
	c-0.234-1.216-0.561-2.415-0.772-3.635c-0.324-1.872-0.61-3.753-0.851-5.637c-0.144-1.128-0.16-2.271-0.262-3.403
	c-0.042-0.466,0.133-0.75,0.526-0.97c1.317-0.734,2.593-1.543,3.943-2.211c2.364-1.17,4.85-1.996,7.478-2.346
	c0.476-0.063,0.948-0.158,1.422-0.238c-0.001-0.051-0.002-0.102-0.004-0.154c-0.406-0.065-0.81-0.171-1.217-0.192
	c-1.918-0.097-3.817,0.057-5.679,0.541c-3.077,0.8-5.825,2.261-8.357,4.162c-0.365,0.274-0.308,0.577-0.256,0.898
	c0.304,1.895,0.658,3.784,0.929,5.684c0.216,1.518,0.394,3.047,0.481,4.577c0.061,1.073,0.181,2.17-0.261,3.221
	c-0.783,1.862-1.791,3.596-2.924,5.262c-0.205,0.301-0.435,0.583-0.655,0.874c-0.046-0.019-0.092-0.039-0.138-0.058
	c0-0.215,0-0.429,0-0.644c0-2.404,0.008-4.809-0.007-7.212c-0.002-0.427,0.093-0.749,0.399-1.075
	c0.439-0.469,0.878-0.968,1.079-1.727c-1.168,0.529-2.25,1.039-3.636,0.822c0.632-0.627,1.152-1.21,1.745-1.706
	c0.339-0.284,0.428-0.566,0.428-0.978c-0.012-5.292-0.007-10.586-0.007-15.878c0-0.236,0-0.472,0-0.736
	c6.46-0.069,12.728-0.804,18.627-3.503c-0.734,0.021-1.457,0.109-2.182,0.183c-2.036,0.207-4.069,0.435-6.108,0.605
	c-1.505,0.125-3.015,0.202-4.524,0.245c-1.433,0.04-2.869,0.028-4.302-0.007c-0.504-0.012-1.006-0.159-1.511-0.245
	c0-2.156,0.005-4.216-0.005-6.276c-0.002-0.371,0.153-0.473,0.503-0.504c1.077-0.096,1.914-0.61,2.597-1.614
	c-0.33,0.085-0.54,0.13-0.744,0.192c-1.141,0.343-2.293,0.658-3.485,0.331c-0.98-0.269-1.964-0.558-2.898-0.953
	c-0.478-0.202-0.9-0.613-1.256-1.011c-0.598-0.668-0.663-1.478-0.421-2.325c0.373-1.301,1.109-2.296,2.369-2.861
	c0.025,0.68-0.03,1.376,0.093,2.038c0.189,1.011,0.723,1.842,1.748,2.205c1.072,0.381,2.157,0.354,3.206-0.105
	c0.458-0.201,0.914-0.436,1.074-0.98c0.07-0.067,0.177-0.12,0.204-0.201c0.286-0.851,0.386-1.694,0.057-2.575
	c-0.801-2.151-1.56-4.317-2.346-6.474C99.405,68.831,99.271,68.685,99.17,68.529z M101.941,40.918
	c-0.013-0.426,0.019-0.857-0.047-1.274c-0.428-2.637-1.143-5.197-2.204-7.652c-0.259-0.601-0.595-1.169-0.897-1.753
	c-0.102-0.242-0.205-0.484-0.347-0.821c-0.092,0.2-0.141,0.284-0.171,0.373c-0.689,2.017-1.408,4.025-2.053,6.057
	c-0.467,1.471-0.834,2.975-0.851,4.535c-0.012,1.111,0.524,1.813,1.602,2.108c0.995,0.273,2.011,0.216,2.977-0.072
	C100.768,42.178,101.577,41.815,101.941,40.918z M63.344,93.408c-0.135,0.542-0.269,1.085-0.403,1.627
	c0.04,0.015,0.08,0.028,0.12,0.042c0.048-0.056,0.108-0.105,0.143-0.169c1.822-3.276,3.334-6.684,4.244-10.331
	c0.299-1.199,0.515-2.432,0.623-3.663c0.108-1.222,0.064-2.462,0.028-3.693c-0.056-1.93-0.152-3.859-0.256-5.787
	c-0.017-0.32-0.169-0.632-0.258-0.948c0.022-0.9-0.336-1.695-0.633-2.512c-1.26,0.479-2.757,1.37-3.685,2.239
	c-0.718,0.673-1.209,1.431-0.885,2.506c0.782,2.595,1.445,5.221,1.605,7.939c0.101,1.707,0.196,3.422,0.153,5.13
	c-0.04,1.585-0.255,3.167-0.42,4.747C63.621,91.497,63.471,92.452,63.344,93.408z M74.869,100.91
	c-0.08,0.01-0.165,0.006-0.239,0.033c-1.579,0.569-3.081,1.288-4.365,2.382c-0.678,0.578-1.232,1.268-1.356,2.209
	c-0.017,0.127-0.114,0.245-0.194,0.407c-1.05,0-2.09,0-3.172,0c0,0.253-0.011,0.453,0.001,0.651c0.102,1.695,0.51,3.321,1.142,4.892
	c0.492,1.225,1.166,2.333,2.083,3.293c0.245,0.257,0.498,0.35,0.849,0.338c1.503-0.055,3.007-0.097,4.511-0.118
	c0.432-0.006,0.863,0.074,1.363,0.12c0.126-0.926,0.245-1.793,0.364-2.661c0.08-0.219,0.162-0.438,0.24-0.657
	c0.223-0.632,0.446-1.265,0.668-1.896c0.032-0.089,0.063-0.177,0.102-0.284c-1.429-0.966-2.762-2.009-3.917-3.263
	c-0.267-0.517-0.537-1.028-0.245-1.632c0.296-0.611,0.533-1.254,0.879-1.833c0.398-0.666,0.885-1.278,1.334-1.913
	c0.085-0.034,0.171-0.069,0.256-0.103c-0.013-0.027-0.025-0.053-0.039-0.08C75.049,100.833,74.959,100.871,74.869,100.91z
	 M86.606,85.542c0.115,0.033,0.23,0.065,0.347,0.098c-0.028-0.073-0.056-0.145-0.085-0.217c-0.115-0.318-0.258-0.628-0.342-0.954
	c-0.325-1.277-0.677-2.55-0.93-3.841c-0.268-1.374-0.47-2.762-0.638-4.151c-0.17-1.412-0.268-2.835-0.383-4.253
	c-0.124-1.52-0.304-3.041-0.331-4.564c-0.034-1.952,0.051-3.906,0.102-5.86c0.017-0.643,0.073-1.284,0.137-1.923
	c0.102-1.016,0.224-2.03,0.342-3.043c0.108-0.935,0.234-1.868,0.327-2.804c0.051-0.51,0.052-1.026,0.075-1.539
	c0.087-0.301,0.196-0.598,0.258-0.903c0.114-0.57,0.201-1.145,0.298-1.718c0.028,0.004,0.056,0.007,0.084,0.012
	c0-0.017,0-0.034,0-0.051c-0.024,0.018-0.05,0.036-0.074,0.055c-0.144,0.061-0.298,0.104-0.432,0.183
	c-3.312,1.97-6.145,4.478-8.391,7.617c-2.643,3.694-4.08,7.808-3.962,12.372c0.062,2.389,0.336,4.773,0.561,7.155
	c0.065,0.69,0.295,1.365,0.455,2.047c0.537,2.277,1.981,3.647,4.224,4.213c2.712,0.685,5.427,1.366,8.139,2.05
	C86.463,85.525,86.534,85.533,86.606,85.542z M37.052,31.086c-0.717,0.856-1.206,1.842-1.638,2.86
	c-0.099,0.063-0.247,0.102-0.291,0.193c-0.903,1.842-1.857,3.662-2.676,5.541c-1.146,2.632-2.004,5.369-2.631,8.173
	c-0.456,2.038-0.747,4.099-0.897,6.182c-0.017,0.233-0.141,0.496-0.296,0.674c-0.557,0.638-1.163,1.232-1.724,1.865
	c-1.011,1.138-1.802,2.424-2.368,3.834c-0.361,0.901-0.626,1.836-0.526,2.836c0.667-1.417,1.536-2.688,2.606-3.817
	c1.081-1.141,2.295-2.096,3.803-2.638c-0.194,0.675-0.449,1.3-0.675,1.934c-0.264,0.738-0.557,1.496-0.422,2.288
	c0.381,2.227,0.817,4.446,1.22,6.67c0.028,0.155-0.01,0.344-0.078,0.49c-0.339,0.729-0.743,1.429-1.044,2.173
	c-1.029,2.539-1.353,5.194-1.214,7.915c0.007,0.15,0.057,0.298,0.087,0.446c0.166-0.104,0.233-0.218,0.289-0.337
	c0.416-0.872,0.788-1.767,1.252-2.612c1.131-2.058,2.586-3.841,4.595-5.117c0.308-0.195,0.644-0.348,0.966-0.52
	c0.035,0.038,0.072,0.076,0.107,0.114c-0.125,0.218-0.262,0.432-0.373,0.657c-0.276,0.557-0.571,1.107-0.803,1.683
	c-0.343,0.851-0.218,1.659,0.359,2.381c0.403,0.503,0.795,1.016,1.226,1.494c0.878,0.974,1.777,1.927,2.67,2.887
	c1.117,1.202,0.896,1.011,0.229,2.262c-1.003,1.881-1.718,3.822-1.911,5.971c-0.126,1.408,0.045,2.763,0.298,4.125
	c0.065,0.353,0.232,0.687,0.327,0.963c0.332-1.409,0.583-2.855,1.018-4.244c0.886-2.83,2.254-5.381,4.65-7.259
	c0.624-0.49,1.283-0.914,2.145-1.238c-0.227,0.353-0.383,0.588-0.53,0.827c-0.455,0.738-0.851,1.5-1.031,2.363
	c-0.156,0.748,0.025,1.354,0.652,1.808c0.293,0.212,0.583,0.43,0.89,0.622c3.388,2.119,7.016,3.748,10.719,5.222
	c0.095,1.608,0.229,3.215,0.274,4.824c0.057,2.019,0.039,4.039,0.057,6.057c0.001,0.122,0.045,0.245,0.069,0.367
	c0.041,0.001,0.081,0.004,0.122,0.005c0.399-1.588,0.82-3.171,1.192-4.765c0.558-2.387,0.947-4.807,1.107-7.25
	c0.102-1.543,0.061-3.099,0.022-4.647c-0.04-1.613-0.326-3.189-0.834-4.729c-0.911-2.757-2.601-4.745-5.319-5.922
	c-3.082-1.335-5.832-3.225-8.285-5.525c-4.058-3.803-6.848-8.409-8.595-13.67c-0.897-2.696-1.469-5.461-1.666-8.289
	c-0.133-1.925,0.027-3.846,0.315-5.762c0.395-2.623,1.032-5.184,1.776-7.723c0.257-0.878,0.529-1.752,0.794-2.629
	c0.032-0.029,0.063-0.057,0.091-0.087c0.002-0.002-0.021-0.027-0.032-0.041C37.099,31.01,37.076,31.047,37.052,31.086z
	 M90.875,151.107c-0.038-0.153-0.078-0.304-0.114-0.457c-0.492-2.1-1.05-4.188-1.459-6.305c-0.467-2.421-0.839-4.864-1.18-7.307
	c-0.236-1.688-0.36-3.39-0.518-5.087c-0.165-1.763-0.339-3.525-0.457-5.291c-0.12-1.797-0.192-3.599-0.253-5.399
	c-0.063-1.81-0.095-3.623-0.125-5.434c-0.017-1.009-0.001-2.019-0.005-3.027c0-0.154-0.024-0.308-0.036-0.446
	c-0.965-0.097-1.893-0.144-2.802-0.295c-1.314-0.217-2.681-0.332-3.742-1.369c-0.638,1.038-1.149,2.087-1.534,3.197
	c-0.199,0.61-0.43,1.211-0.584,1.832c-0.078,0.313-0.132,0.657,0.158,0.963c0.976,1.029,1.359,2.295,1.386,3.686
	c0.013,0.707-0.034,1.417,0.028,2.119c0.122,1.417,0.28,2.832,0.462,4.244c0.154,1.189,0.352,2.375,0.555,3.557
	c0.13,0.753,0.306,1.499,0.461,2.248c-0.052,0.025-0.103,0.051-0.155,0.076c-4.274-3.15-6.838-7.475-8.42-12.501
	c-0.202,1.477-0.41,2.93-0.428,4.385c-0.018,1.422,0.053,2.863,0.263,4.269c0.469,3.132,1.622,6.032,3.251,8.744
	c1.946,3.241,4.405,6.044,7.213,8.565c2.27,2.037,4.708,3.842,7.247,5.519c0.367,0.242,0.748,0.466,1.22,0.755
	C91.133,151.854,91.003,151.48,90.875,151.107z M160.409,30.926c-0.036-0.064-0.072-0.129-0.108-0.193
	c-0.025,0.016-0.052,0.032-0.078,0.047c0.039,0.068,0.078,0.135,0.116,0.202c0.006,0.08-0.002,0.165,0.019,0.241
	c0.839,2.889,1.519,5.814,1.967,8.79c0.332,2.21,0.536,4.425,0.495,6.665c-0.029,1.614-0.153,3.214-0.396,4.81
	c-0.604,3.968-1.952,7.666-4.046,11.085c-1.815,2.963-4.08,5.538-6.758,7.757c-2.663,2.207-5.552,4.028-8.773,5.309
	c-0.293,0.116-0.576,0.29-0.824,0.486c-0.947,0.749-1.473,1.791-1.917,2.877c-0.946,2.316-1.294,4.767-1.428,7.23
	c-0.132,2.413-0.113,4.832,0.184,7.249c0.304,2.473,0.84,4.889,1.505,7.281c0.178,0.643,0.422,1.266,0.675,2.016
	c0.098-2.945,0.179-5.745,0.29-8.544c0.048-1.246,0.155-2.492,0.236-3.737c0.241-0.007,0.491,0.019,0.724-0.029
	c1.6-0.333,3.118-0.9,4.566-1.659c2.108-1.107,4.048-2.475,5.996-3.833c0.856-0.597,1.657-1.307,2.692-1.579
	c1.217-0.32,2.462-0.242,3.699-0.115c0.532,0.055,1.061,0.139,1.591,0.211c0.01-0.045,0.019-0.09,0.029-0.135
	c-0.182-0.116-0.36-0.241-0.548-0.348c-1.75-0.993-3.503-1.981-5.251-2.978c-0.169-0.096-0.312-0.236-0.467-0.356
	c1.352-0.092,2.644-0.107,3.937-0.084c0.462,0.008,0.824-0.124,1.125-0.466c0.639-0.727,1.296-1.437,1.914-2.181
	c0.182-0.218,0.361-0.275,0.617-0.273c0.97,0.008,1.94,0.005,2.909,0.001c0.12,0,0.241-0.032,0.512-0.069
	c-1.42-0.838-2.706-1.596-3.993-2.355c0.011-0.04,0.023-0.08,0.034-0.119c0.432,0,0.868-0.038,1.295,0.01
	c0.536,0.059,0.854-0.186,1.154-0.588c1.227-1.643,2.124-3.457,2.819-5.376c0.794-2.195,1.308-4.452,1.579-6.774
	c0.206-1.78,0.389-3.557,0.339-5.35c-0.021-0.743-0.041-1.49-0.122-2.227c-0.15-1.374-0.24-2.767-0.544-4.108
	c-0.466-2.045-1.02-4.077-1.666-6.073c-1.13-3.489-2.695-6.797-4.467-10.006c-0.091-0.165-0.269-0.281-0.406-0.42
	c-0.008-0.052-0.017-0.105-0.027-0.158c-0.008-0.053-0.018-0.108-0.027-0.161C161.193,32.242,160.801,31.585,160.409,30.926z
	 M87.775,168.079c-0.177-0.084-0.347-0.19-0.532-0.247c-3.458-1.043-6.859-2.248-10.195-3.629
	c-5.371-2.222-10.528-4.866-15.414-8.019c-3.249-2.098-6.371-4.367-9.239-6.973c-0.569-0.516-1.132-1.039-1.699-1.559
	c-0.033,0.118-0.005,0.182,0.029,0.244c1.592,2.884,3.578,5.484,5.753,7.946c3.534,4,7.385,7.661,11.605,10.931
	c1.558,1.136,3.092,2.31,4.68,3.402c4.572,3.144,9.421,5.803,14.473,8.091c3.495,1.583,7.071,2.967,10.724,4.142
	c0.252,0.081,0.559,0.108,0.811,0.044c0.66-0.166,1.308-0.381,1.952-0.604c4.395-1.519,8.637-3.383,12.746-5.56
	c2.688-1.425,5.314-2.951,7.857-4.618c2.678-1.757,5.3-3.595,7.741-5.669c1.919-1.631,3.837-3.268,5.674-4.988
	c2.86-2.678,5.454-5.611,7.861-8.702c1-1.284,1.919-2.63,2.875-3.948c0.017-0.047,0.034-0.093,0.05-0.141
	c-0.045,0.018-0.089,0.038-0.133,0.056c-0.181,0.159-0.363,0.316-0.542,0.476c-1.581,1.406-3.099,2.893-4.756,4.202
	c-4.516,3.568-9.419,6.523-14.64,8.954c-4.045,1.884-8.196,3.48-12.497,4.662c-2.391,0.657-4.81,1.215-7.23,1.758
	c-1.501,0.337-3.019,0.616-4.543,0.821c-1.16,0.155-2.315,0.457-3.514,0.289c-0.47-0.065-0.97-0.022-1.445,0.053
	c-2.102,0.329-3.967,1.26-5.76,2.349c-2.047,1.243-4.082,2.505-6.125,3.754c-0.171,0.104-0.363,0.173-0.544,0.259
	c-0.028-0.042-0.056-0.085-0.084-0.127c2.112-2.349,4.224-4.698,6.398-7.116C89.254,168.416,88.514,168.247,87.775,168.079z
	 M87.756,105.838c-2.422-2.129-5.136-3.572-8.377-4.073c-0.046,0.932-0.067,1.811,0.17,2.679c0.393,1.44,1.245,2.414,2.761,2.699
	c1.04,0.196,2.079,0.16,3.105-0.096C86.272,106.832,87.106,106.557,87.756,105.838z M118.278,101.738
	c-3.22,0.935-6.165,2.044-8.691,4.194c1.582,0.901,3.145,1.505,4.899,1.295c1.227-0.147,2.259-0.684,2.928-1.787
	c0.458-0.757,0.675-1.585,0.76-2.454C118.212,102.603,118.238,102.22,118.278,101.738z M161.001,83.532
	c0.04,0.015,0.075,0.033,0.113,0.039c0.013,0.002,0.03-0.023,0.046-0.036c-0.028-0.019-0.055-0.05-0.084-0.053
	C161.054,83.479,161.028,83.512,161.001,83.532z M145.67,148.043c-0.012-0.016-0.024-0.032-0.036-0.047
	c-0.015,0.013-0.04,0.025-0.041,0.04c-0.001,0.015,0.021,0.032,0.033,0.047C145.641,148.07,145.655,148.056,145.67,148.043z"/>
<path style="fill:#CFAA59;" d="M154.525,142.037c-2.054-0.815-3.945-1.913-5.719-3.224c-2.46-1.817-4.428-4.054-5.764-6.815
	c-0.738-1.526-1.24-3.129-1.376-4.833c-0.029-0.371-0.082-0.741-0.133-1.189c2.214,0.831,4.32,0.45,6.485,0.006
	c-0.076-0.12-0.11-0.216-0.177-0.275c-2.088-1.899-3.47-4.274-4.553-6.835c-1.202-2.841-2.024-5.795-2.472-8.851
	c-0.032-0.213-0.084-0.424-0.125-0.635c1.336-0.436,2.637-0.832,3.917-1.286c6.734-2.392,12.957-5.73,18.543-10.201
	c4.807-3.848,8.819-8.397,11.801-13.816c2.042-3.712,3.492-7.641,4.333-11.799c0.44-2.175,0.77-4.362,0.863-6.577
	c0.069-1.646,0.121-3.298,0.068-4.943c-0.166-5.058-0.879-10.035-2.397-14.88c-1.663-5.308-4.182-10.164-7.675-14.497
	c-3.614-4.485-7.981-8.088-12.963-10.96c-5.597-3.228-11.576-5.431-17.913-6.674c-0.946-0.186-1.902-0.321-2.854-0.475
	c-0.11-0.018-0.226-0.002-0.381,0.098c0.154,0.112,0.301,0.234,0.462,0.331c3.445,2.071,6.565,4.555,9.353,7.446
	c3.886,4.03,6.904,8.61,8.629,13.979c0.655,2.037,1.086,4.119,1.305,6.251c0.236,2.317,0.194,4.624-0.001,6.941
	c-0.291,3.462-1.062,6.797-2.559,9.94c-2.19,4.596-5.566,8.024-10.216,10.138c-0.983,0.446-2.044,0.72-3.071,1.068
	c-0.109,0.036-0.232,0.032-0.356,0.047c-1.506-3.847-4.527-6.146-8.002-7.985c-0.569-0.301-1.174-0.533-1.742-0.834
	c-0.211-0.112-0.443-0.296-0.535-0.504c-2.082-4.701-5.036-8.772-8.865-12.191c-4.016-3.585-8.551-6.302-13.693-7.957
	c-0.353-0.114-0.496-0.304-0.599-0.646c-1.239-4.108-2.872-8.045-5.205-11.66c-0.741-1.149-1.587-2.231-2.46-3.448
	c-0.439,0.646-0.816,1.162-1.152,1.703c-1.81,2.92-3.224,6.038-4.553,9.196c-0.577,1.371-1.088,2.772-1.66,4.145
	c-0.086,0.207-0.32,0.395-0.532,0.503c-2.133,1.094-4.309,2.107-6.407,3.263c-3.619,1.994-6.963,4.385-9.907,7.304
	c-2.339,2.318-4.342,4.884-5.622,7.948c-0.354,0.849-0.592,1.746-0.891,2.646c-2.921,0.239-5.119,1.887-7.113,3.897
	c-1.299,1.309-2.41,2.769-3.381,4.336c-0.062,0.099-0.142,0.188-0.228,0.299c-2.174-0.651-4.191-1.581-6.04-2.87
	C47.18,64,44.67,60.376,43.132,56.042c-0.886-2.498-1.408-5.079-1.603-7.721c-0.104-1.408-0.217-2.82-0.2-4.228
	c0.039-3.135,0.504-6.213,1.468-9.207c1.656-5.144,4.481-9.576,8.185-13.474c2.812-2.958,5.968-5.484,9.487-7.555
	c0.181-0.107,0.355-0.226,0.509-0.39c-1.043-0.13-2.056-0.069-3.064,0.098c-5.502,0.913-10.646,2.855-15.539,5.485
	c-4.035,2.169-7.734,4.815-11.062,7.974c-3.051,2.895-5.661,6.14-7.804,9.753c-2.202,3.711-3.82,7.674-4.867,11.86
	C17.94,51.453,17.4,54.3,17.287,57.21c-0.082,2.116-0.235,4.236-0.184,6.351c0.161,6.587,1.513,12.923,4.348,18.897
	c2.308,4.863,5.447,9.143,9.324,12.879c5.846,5.634,12.694,9.652,20.273,12.46c1.716,0.635,3.492,1.106,5.24,1.654
	c0.095,0.029,0.184,0.073,0.335,0.132c-0.462,3.105-1.206,6.119-2.489,8.988c-1.279,2.859-2.889,5.486-5.344,7.615
	c2.226,0.65,4.407,0.77,6.741,0.443c-0.16,0.873-0.269,1.702-0.466,2.51c-1.098,4.525-3.719,7.997-7.513,10.6
	c-1.141,0.782-2.404,1.386-3.619,2.056c-0.206,0.114-0.452,0.156-0.68,0.233c0.202-0.364,0.412-0.723,0.606-1.09
	c0.843-1.599,1.697-3.192,2.511-4.807c0.37-0.734,0.651-1.509,1.004-2.341c-2.567-0.593-5.137-0.887-7.813-1.181
	c0.529-0.675,0.978-1.261,1.439-1.838c1.82-2.279,3.486-4.667,4.977-7.174c1.255-2.11,2.39-4.285,3.24-6.593
	c0.491-1.334,0.999-2.665,1.147-4.167c-0.404-0.181-0.847-0.361-1.275-0.573c-2.378-1.18-4.784-2.308-7.118-3.571
	c-1.941-1.05-3.831-2.205-5.678-3.414c-2.17-1.427-4.268-2.958-6.185-4.71c-1.711-1.564-3.425-3.133-5.023-4.81
	c-2.18-2.289-4.104-4.799-5.782-7.481c-1.849-2.955-3.389-6.068-4.558-9.36c-0.921-2.595-1.574-5.25-2.079-7.956
	c-0.554-2.968-0.638-5.954-0.584-8.954c0.025-1.431,0.011-2.867,0.154-4.287c0.161-1.59,0.466-3.167,0.735-4.744
	c0.478-2.79,1.284-5.497,2.179-8.174c0.476-1.426,1.051-2.823,1.657-4.199c0.721-1.636,1.482-3.257,2.301-4.845
	c1.531-2.969,3.289-5.803,5.327-8.454c1.551-2.018,3.272-3.883,5.135-5.615c1.782-1.659,3.677-3.188,5.732-4.497
	c1.54-0.981,3.123-1.899,4.716-2.791c2.495-1.398,5.153-2.442,7.853-3.354c2.522-0.851,5.102-1.516,7.718-2.014
	c1.394-0.266,2.792-0.525,4.199-0.707c1.411-0.183,2.833-0.339,4.254-0.378c3.086-0.084,6.174-0.108,9.261-0.108
	c0.955,0,1.912,0.158,3.038,0.258c-0.204,0.194-0.286,0.313-0.399,0.373c-1.255,0.677-2.547,1.289-3.765,2.027
	c-1.871,1.135-3.715,2.316-5.521,3.549c-1.309,0.892-2.557,1.879-3.8,2.865c-0.96,0.761-1.883,1.573-2.798,2.389
	c-0.752,0.67-1.507,1.345-2.193,2.081c-1.385,1.486-2.746,2.998-4.076,4.535c-2.198,2.539-3.961,5.367-5.377,8.407
	c-0.994,2.135-1.696,4.365-2.051,6.706c-0.226,1.484-0.281,2.97-0.204,4.457c0.162,3.144,0.812,6.188,2.031,9.104
	c1.302,3.116,3.22,5.789,5.701,8.069c0.132,0.121,0.291,0.213,0.432,0.327c0.138,0.113,0.269,0.236,0.457,0.401
	c0.276-0.314,0.523-0.624,0.8-0.904c1.221-1.234,2.563-2.325,4.01-3.28c1.223-0.806,2.498-1.535,3.733-2.324
	c0.255-0.162,0.515-0.406,0.637-0.675c0.764-1.694,1.746-3.255,2.793-4.779c1.004-1.461,2.106-2.846,3.361-4.103
	c0.981-0.983,1.93-2.003,2.96-2.933c2.241-2.025,4.648-3.839,7.215-5.431c1.399-0.868,2.831-1.687,4.263-2.5
	c0.626-0.355,1.277-0.673,1.94-0.953c0.256-0.108,0.389-0.228,0.452-0.49c0.413-1.736,1.158-3.341,2.022-4.886
	c0.704-1.261,1.474-2.488,2.268-3.696c0.816-1.24,1.662-2.464,2.558-3.646c1.08-1.423,2.225-2.797,3.348-4.188
	c0.4-0.496,0.818-0.976,1.239-1.476c0.674,0.658,1.342,1.245,1.931,1.901c0.723,0.806,1.398,1.657,2.062,2.513
	c0.737,0.952,1.474,1.908,2.15,2.905c1.499,2.214,2.873,4.502,3.973,6.945c0.576,1.279,1.135,2.567,1.682,3.859
	c0.159,0.373,0.387,0.622,0.761,0.794c3.272,1.501,6.4,3.26,9.344,5.335c1.693,1.193,3.355,2.43,4.838,3.883
	c1.149,1.126,2.333,2.227,3.398,3.43c2.073,2.341,3.869,4.879,5.087,7.79c0.104,0.251,0.354,0.503,0.6,0.622
	c1.508,0.727,2.95,1.557,4.274,2.584c0.365,0.283,0.744,0.553,1.075,0.872c0.854,0.82,1.684,1.663,2.608,2.581
	c0.577-0.412,1.248-0.815,1.83-1.319c1.817-1.575,3.236-3.466,4.308-5.62c0.828-1.661,1.429-3.414,1.834-5.21
	c0.347-1.536,0.493-3.124,0.645-4.697c0.114-1.18,0.125-2.373,0.126-3.56c0.002-2.437-0.553-4.776-1.399-7.043
	c-0.832-2.231-1.961-4.315-3.317-6.271c-1.239-1.786-2.561-3.508-4.102-5.05c-1.18-1.18-2.33-2.393-3.561-3.52
	c-1.154-1.057-2.372-2.049-3.606-3.013c-1.36-1.062-2.751-2.088-4.164-3.078c-2.599-1.824-5.323-3.453-8.093-5.004
	c-0.472-0.264-0.966-0.489-1.448-0.736c-0.171-0.089-0.335-0.193-0.586-0.338c0.169-0.075,0.233-0.129,0.298-0.131
	c1.268-0.047,2.536-0.087,3.803-0.131c0.904-0.032,1.81-0.098,2.715-0.096c1.208,0.005,2.418,0.036,3.623,0.103
	c1.663,0.093,3.323,0.226,4.984,0.352c0.941,0.072,1.884,0.132,2.818,0.253c1.368,0.177,2.74,0.354,4.092,0.621
	c1.747,0.344,3.494,0.71,5.207,1.187c1.696,0.472,3.373,1.034,5.02,1.659c2.867,1.088,5.582,2.489,8.082,4.275
	c1.797,1.283,3.6,2.562,5.33,3.931c1.518,1.202,2.83,2.633,4.056,4.134c1.055,1.291,2.169,2.541,3.135,3.897
	c1.352,1.896,2.646,3.839,3.858,5.826c0.961,1.576,1.799,3.232,2.629,4.884c1.8,3.583,3.121,7.35,4.024,11.249
	c0.455,1.964,0.815,3.971,0.983,5.977c0.19,2.266,0.173,4.555,0.142,6.832c-0.027,1.984-0.276,3.955-0.554,5.925
	c-0.474,3.366-1.257,6.648-2.369,9.855c-1.035,2.987-2.334,5.85-3.911,8.597c-1.194,2.081-2.529,4.058-3.989,5.953
	c-0.748,0.971-1.558,1.897-2.39,2.798c-1.08,1.171-2.178,2.33-3.326,3.434c-1.756,1.688-3.624,3.253-5.623,4.645
	c-1.745,1.215-3.497,2.437-5.338,3.492c-2.021,1.157-4.136,2.153-6.237,3.162c-1.192,0.572-2.437,1.034-3.662,1.537
	c-0.314,0.129-0.641,0.223-1.058,0.367c0.141,0.498,0.249,1.022,0.435,1.514c0.849,2.239,1.804,4.436,2.969,6.529
	c1.094,1.964,2.237,3.905,3.445,5.803c1.077,1.693,2.271,3.31,3.409,4.963c0.091,0.131,0.16,0.276,0.287,0.501
	c-2.369,1.067-4.868,1.122-7.435,1.233c0.124,0.428,0.213,0.85,0.366,1.248c0.941,2.439,2.222,4.68,3.937,6.662
	C154.459,141.804,154.481,141.931,154.525,142.037z"/>
<path style="fill:#5A5A58;" d="M93.659,45.895c1.58,0.638,3.237,0.917,4.921,1.08c0.068,0.006,0.13,0.068,0.194,0.104
	c-0.064,0.075-0.155,0.139-0.189,0.227c-0.363,0.908-0.746,1.808-1.065,2.732c-0.624,1.809-1.228,3.624-1.804,5.449
	c-0.209,0.661-0.313,1.354-0.466,2.033c-1.091,0.489-1.7,1.352-1.774,2.519c-0.059,0.934,0.366,1.71,1.114,2.287
	c0.798,0.615,1.724,0.931,2.696,1.126c2.118,0.424,3.97-0.116,5.566-1.562c0.025-0.023,0.072-0.024,0.108-0.035
	c0.136,1.114-0.578,2.245-1.787,2.673c-0.595,0.211-1.242,0.304-1.873,0.372c-0.377,0.041-0.561,0.135-0.533,0.533
	c0.046,0.638,0.076,1.277,0.113,1.916c-0.193,0.29-0.407,0.567-0.576,0.871c-1.208,2.186-2.381,4.388-2.873,6.875
	c-1.26,0.565-1.997,1.56-2.369,2.861c-0.242,0.847-0.177,1.657,0.421,2.325c0.356,0.398,0.777,0.809,1.256,1.011
	c0.934,0.395,1.917,0.683,2.898,0.953c1.192,0.327,2.345,0.012,3.485-0.331c0.205-0.062,0.415-0.107,0.744-0.192
	c-0.684,1.004-1.52,1.518-2.597,1.614c-0.352,0.032-0.506,0.133-0.503,0.504c0.011,2.06,0.005,4.12,0.005,6.276
	c0.504,0.086,1.005,0.233,1.511,0.245c1.433,0.035,2.869,0.047,4.302,0.007c1.509-0.042,3.019-0.12,4.524-0.245
	c2.038-0.17,4.073-0.398,6.108-0.605c0.725-0.074,1.449-0.162,2.182-0.183c-5.899,2.699-12.167,3.434-18.627,3.503
	c0,0.263,0,0.5,0,0.736c0,5.292-0.004,10.586,0.007,15.878c0.001,0.413-0.089,0.696-0.428,0.978
	c-0.593,0.496-1.113,1.079-1.745,1.706c1.385,0.217,2.467-0.293,3.636-0.822c-0.202,0.759-0.64,1.257-1.079,1.727
	c-0.306,0.326-0.401,0.649-0.399,1.075c0.016,2.404,0.007,4.809,0.007,7.212c0,0.215,0,0.429,0,0.644
	c0.046,0.019,0.092,0.039,0.138,0.058c0.218-0.291,0.45-0.573,0.655-0.874c1.134-1.666,2.141-3.4,2.924-5.262
	c0.441-1.05,0.321-2.148,0.261-3.221c-0.087-1.53-0.266-3.059-0.481-4.577c-0.27-1.9-0.624-3.788-0.929-5.684
	c-0.052-0.321-0.109-0.624,0.256-0.898c2.534-1.901,5.281-3.362,8.357-4.162c1.862-0.484,3.761-0.638,5.679-0.541
	c0.409,0.021,0.812,0.126,1.217,0.192c0.001,0.051,0.002,0.102,0.004,0.154c-0.474,0.08-0.946,0.175-1.422,0.238
	c-2.629,0.35-5.114,1.177-7.478,2.346c-1.348,0.667-2.626,1.478-3.943,2.211c-0.393,0.219-0.569,0.504-0.526,0.97
	c0.103,1.134,0.118,2.277,0.262,3.403c0.241,1.884,0.527,3.765,0.851,5.637c0.211,1.22,0.538,2.419,0.772,3.635
	c0.061,0.316,0.044,0.695-0.073,0.992c-0.757,1.947-1.859,3.694-3.181,5.306c-1.011,1.231-2.054,2.431-3.392,3.464
	c-0.479-0.416-0.986-0.805-1.432-1.255c-1.609-1.625-2.97-3.445-4.128-5.415c-0.407-0.692-0.804-1.393-1.158-2.113
	c-0.099-0.202-0.085-0.497-0.038-0.732c0.273-1.371,0.6-2.732,0.854-4.105c0.236-1.279,0.421-2.569,0.594-3.858
	c0.152-1.131,0.252-2.268,0.384-3.402c0.058-0.497,0.162-0.989,0.201-1.488c0.021-0.269-0.051-0.546-0.081-0.818
	c-0.132-0.31-0.238-0.634-0.399-0.928c-0.633-1.151-1.617-1.961-2.655-2.722c-0.386-0.283-0.755-0.593-1.096-0.929
	c-0.295-0.29-0.457-0.656-0.287-1.085c0.153-0.388,0.319-0.77,0.467-1.159c0.082-0.217,0.141-0.444,0.21-0.666
	c0.108-0.133,0.216-0.266,0.324-0.399c-0.016-0.033-0.03-0.065-0.046-0.098c-0.118,0.022-0.242,0.024-0.35,0.07
	c-1.212,0.516-2.27,1.274-3.292,2.094c-0.484,0.388-1.004,0.732-1.517,1.083c-0.354,0.242-0.735,0.297-1.14,0.103
	c-0.413-0.199-0.835-0.381-1.252-0.57c0.056-0.055,0.105-0.147,0.169-0.156c0.797-0.126,1.468-0.513,2.093-0.995
	c0.148-0.114,0.28-0.25,0.473-0.424c-0.259-0.141-0.424-0.249-0.603-0.323c-0.944-0.387-1.897-0.755-2.838-1.148
	c-2.158-0.902-4.321-1.793-6.465-2.732c-0.983-0.43-1.254-0.978-1.114-2.062c0.086-0.669,0.251-1.328,0.38-1.991
	c0.25,0.113,0.51,0.206,0.746,0.343c2.561,1.495,5.307,2.546,8.142,3.375c2.512,0.735,5.055,1.342,7.648,1.717
	c0.529,0.076,1.055,0.176,1.655,0.276c-0.049-0.222-0.08-0.365-0.11-0.507c-0.046-0.358-0.072-0.72-0.142-1.074
	c-0.509-2.59-0.966-5.187-1.228-7.817c-0.173-1.752-0.417-3.497-0.577-5.249c-0.126-1.379-0.19-2.764-0.249-4.148
	c-0.062-1.488-0.098-2.977-0.119-4.465c-0.007-0.54,0.076-1.079,0.098-1.62c0.053-1.286,0.063-2.575,0.148-3.86
	c0.076-1.158,0.228-2.311,0.349-3.465c0.086-0.816,0.16-1.634,0.274-2.447c0.217-1.543,0.447-3.084,0.694-4.624
	c0.249-1.558,0.515-3.114,0.787-4.668C93.273,47.894,93.471,46.895,93.659,45.895z"/>
<path style="fill:#5A5A58;" d="M145.479,148.362c-0.955,1.318-1.874,2.665-2.875,3.948c-2.408,3.09-5.001,6.023-7.861,8.702
	c-1.837,1.72-3.755,3.357-5.674,4.988c-2.442,2.076-5.063,3.914-7.741,5.669c-2.542,1.668-5.169,3.194-7.857,4.618
	c-4.109,2.178-8.353,4.041-12.746,5.56c-0.644,0.223-1.292,0.438-1.952,0.604c-0.252,0.063-0.56,0.038-0.811-0.044
	c-3.653-1.175-7.229-2.558-10.724-4.142c-5.052-2.288-9.901-4.947-14.473-8.091c-1.588-1.092-3.122-2.265-4.68-3.402
	c0.152-0.184,0.275-0.406,0.46-0.548c0.76-0.588,1.543-1.148,2.31-1.728c0.261-0.198,0.491-0.193,0.764-0.015
	c0.42,0.274,0.849,0.538,1.292,0.771c4.031,2.11,8.299,3.617,12.646,4.92c0.576,0.173,0.839,0.09,1.18-0.418
	c0.366-0.546,0.695-1.117,1.039-1.677c0.74,0.169,1.479,0.337,2.338,0.532c-2.174,2.418-4.286,4.766-6.398,7.116
	c0.028,0.042,0.056,0.085,0.084,0.127c0.182-0.086,0.375-0.155,0.544-0.259c2.043-1.249,4.079-2.511,6.125-3.754
	c1.793-1.089,3.658-2.02,5.76-2.349c0.474-0.074,0.974-0.119,1.445-0.053c1.199,0.167,2.352-0.133,3.514-0.289
	c1.524-0.204,3.042-0.484,4.543-0.821c2.42-0.543,4.839-1.102,7.23-1.758c4.301-1.182,8.452-2.778,12.497-4.662
	c5.221-2.432,10.123-5.386,14.64-8.954c1.657-1.309,3.174-2.797,4.756-4.202c0.179-0.16,0.361-0.318,0.542-0.476
	C145.422,148.306,145.45,148.335,145.479,148.362z"/>
<path style="fill:#5A5A58;" d="M56.034,90.755c-3.703-1.474-7.33-3.101-10.719-5.222c-0.307-0.192-0.597-0.41-0.89-0.622
	c-0.627-0.453-0.809-1.06-0.652-1.808c0.181-0.862,0.576-1.623,1.031-2.363c0.148-0.24,0.303-0.474,0.53-0.827
	c-0.861,0.324-1.519,0.748-2.145,1.238c-2.395,1.878-3.763,4.43-4.65,7.259c-0.435,1.388-0.686,2.833-1.018,4.244
	c-0.096-0.274-0.262-0.609-0.327-0.963c-0.253-1.362-0.424-2.717-0.298-4.125c0.193-2.15,0.908-4.092,1.911-5.971
	c0.667-1.251,0.888-1.061-0.229-2.262c-0.892-0.96-1.792-1.913-2.67-2.887c-0.43-0.478-0.823-0.991-1.226-1.494
	c-0.577-0.723-0.702-1.53-0.359-2.381c0.232-0.575,0.526-1.125,0.803-1.683c0.112-0.226,0.249-0.439,0.373-0.657
	c-0.035-0.038-0.072-0.076-0.107-0.114c-0.323,0.172-0.658,0.325-0.966,0.52c-2.009,1.274-3.463,3.059-4.595,5.117
	c-0.464,0.845-0.837,1.74-1.252,2.612c-0.057,0.119-0.122,0.233-0.289,0.337c-0.03-0.149-0.08-0.297-0.087-0.446
	c-0.139-2.722,0.184-5.376,1.214-7.915c0.302-0.743,0.704-1.444,1.044-2.173c0.068-0.145,0.105-0.335,0.078-0.49
	c-0.403-2.224-0.839-4.442-1.22-6.67c-0.136-0.791,0.158-1.55,0.422-2.288c0.227-0.634,0.48-1.259,0.675-1.934
	c-1.509,0.542-2.723,1.499-3.803,2.638c-1.071,1.129-1.939,2.399-2.606,3.817c-0.099-1,0.165-1.935,0.526-2.836
	c0.566-1.41,1.357-2.695,2.368-3.834c0.563-0.633,1.168-1.228,1.724-1.865c0.155-0.178,0.279-0.441,0.296-0.674
	c0.15-2.083,0.441-4.144,0.897-6.182c0.627-2.804,1.485-5.541,2.631-8.173c0.818-1.879,1.771-3.699,2.676-5.541
	c0.044-0.09,0.192-0.13,0.291-0.193c-0.137,0.376-0.258,0.759-0.415,1.126c-1.092,2.575-1.862,5.247-2.382,7.99
	c-0.389,2.056-0.626,4.132-0.63,6.228c-0.002,1.071-0.03,2.142,0.015,3.212c0.045,1.065,0.113,2.133,0.268,3.186
	c0.172,1.166,0.426,2.323,0.695,3.472c0.615,2.633,1.501,5.166,2.917,7.488c1.393,2.284,3.128,4.271,5.143,6.037
	c2.083,1.826,4.358,3.363,6.769,4.707c1.633,0.909,3.298,1.762,4.935,2.665c0.68,0.375,1.436,0.695,1.763,1.485
	c0.206,0.498,0.393,1.011,0.529,1.533C55.678,85.592,55.874,88.172,56.034,90.755z"/>
<path style="fill:#5A5A58;" d="M161.636,33.219c0.137,0.139,0.315,0.256,0.406,0.42c1.773,3.208,3.338,6.516,4.467,10.006
	c0.646,1.996,1.2,4.028,1.666,6.073c0.306,1.342,0.394,2.734,0.544,4.108c0.081,0.738,0.102,1.484,0.122,2.227
	c0.05,1.793-0.133,3.571-0.339,5.351c-0.269,2.323-0.783,4.579-1.579,6.774c-0.695,1.919-1.592,3.733-2.819,5.376
	c-0.301,0.403-0.618,0.647-1.154,0.588c-0.427-0.047-0.863-0.01-1.295-0.01c-0.011,0.04-0.023,0.08-0.034,0.119
	c1.286,0.759,2.573,1.517,3.993,2.355c-0.27,0.038-0.392,0.069-0.512,0.069c-0.97,0.004-1.94,0.007-2.909-0.001
	c-0.256-0.002-0.435,0.055-0.617,0.273c-0.618,0.743-1.277,1.454-1.914,2.181c-0.301,0.342-0.663,0.474-1.125,0.466
	c-1.292-0.023-2.585-0.008-3.937,0.084c0.155,0.12,0.298,0.261,0.467,0.356c1.748,0.997,3.502,1.984,5.251,2.978
	c0.188,0.107,0.365,0.232,0.548,0.348c-0.01,0.045-0.019,0.09-0.029,0.135c-0.53-0.072-1.058-0.156-1.591-0.211
	c-1.238-0.127-2.482-0.205-3.699,0.115c-1.034,0.272-1.836,0.983-2.692,1.579c-1.948,1.357-3.888,2.726-5.996,3.833
	c-1.446,0.76-2.966,1.325-4.566,1.659c-0.233,0.049-0.483,0.021-0.724,0.029c-0.01-0.101-0.038-0.202-0.025-0.299
	c0.201-1.633,0.35-3.276,0.629-4.897c0.249-1.449,0.703-2.853,1.592-4.06c0.53-0.72,1.18-1.296,2.024-1.666
	c1.525-0.669,3.087-1.291,4.524-2.124c3.412-1.977,6.322-4.567,8.807-7.634c2.483-3.065,4.339-6.461,5.49-10.244
	c0.564-1.851,0.949-3.739,1.029-5.663c0.069-1.646-0.046-3.301-0.092-4.953c-0.052-1.913-0.371-3.794-0.734-5.667
	c-0.586-3.021-1.513-5.942-2.67-8.791C161.97,34.076,161.805,33.647,161.636,33.219z"/>
<path style="fill:#D3D3D0;" d="M161.636,33.219c0.169,0.428,0.333,0.857,0.506,1.283c1.157,2.849,2.084,5.769,2.67,8.791
	c0.363,1.873,0.681,3.754,0.734,5.667c0.045,1.651,0.16,3.305,0.092,4.953c-0.08,1.924-0.467,3.812-1.029,5.663
	c-1.152,3.782-3.007,7.178-5.49,10.244c-2.484,3.066-5.394,5.656-8.807,7.634c-1.437,0.832-2.998,1.454-4.524,2.124
	c-0.845,0.371-1.495,0.947-2.024,1.666c-0.888,1.208-1.343,2.612-1.592,4.06c-0.278,1.621-0.428,3.264-0.629,4.897
	c-0.012,0.097,0.016,0.2,0.025,0.299c-0.08,1.245-0.187,2.49-0.236,3.737c-0.11,2.8-0.192,5.6-0.29,8.544
	c-0.253-0.751-0.497-1.374-0.675-2.016c-0.663-2.392-1.199-4.807-1.505-7.281c-0.297-2.416-0.316-4.836-0.184-7.249
	c0.135-2.464,0.483-4.914,1.428-7.23c0.444-1.086,0.97-2.128,1.917-2.877c0.249-0.196,0.531-0.37,0.824-0.486
	c3.221-1.282,6.111-3.103,8.773-5.309c2.677-2.219,4.943-4.794,6.758-7.757c2.094-3.419,3.442-7.117,4.046-11.085
	c0.242-1.596,0.366-3.196,0.396-4.81c0.041-2.239-0.162-4.455-0.495-6.665c-0.447-2.977-1.128-5.901-1.967-8.79
	c-0.022-0.076-0.013-0.16-0.019-0.241c0.023-0.019,0.046-0.039,0.07-0.057c0.39,0.657,0.782,1.315,1.172,1.973
	c-0.005,0.019-0.018,0.04-0.013,0.057c0.008,0.036,0.027,0.07,0.041,0.104C161.618,33.113,161.628,33.166,161.636,33.219z"/>
<path style="fill:#5A5A58;" d="M90.875,151.107c0.129,0.373,0.258,0.747,0.429,1.244c-0.47-0.291-0.851-0.513-1.22-0.755
	c-2.539-1.678-4.977-3.482-7.247-5.519c-2.808-2.521-5.267-5.324-7.213-8.565c-1.628-2.712-2.783-5.612-3.251-8.744
	c-0.211-1.406-0.282-2.846-0.263-4.269c0.019-1.455,0.226-2.907,0.428-4.385c1.583,5.027,4.147,9.35,8.42,12.501
	c0.052-0.025,0.103-0.051,0.155-0.076c-0.155-0.749-0.331-1.494-0.461-2.248c-0.204-1.183-0.401-2.368-0.555-3.557
	c-0.183-1.411-0.339-2.826-0.462-4.244c-0.061-0.702-0.015-1.412-0.028-2.119c-0.027-1.392-0.41-2.658-1.386-3.686
	c-0.29-0.306-0.235-0.651-0.158-0.963c0.154-0.621,0.386-1.222,0.584-1.832c0.377-0.126,0.748-0.279,1.134-0.373
	c1.187-0.29,2.339-0.137,3.481,0.274c0.399,0.143,0.514,0.333,0.518,0.741c0.012,1.811,0.055,3.623,0.097,5.433
	c0.03,1.307,0.063,2.615,0.125,3.921c0.059,1.242,0.135,2.483,0.244,3.721c0.139,1.575,0.287,3.15,0.495,4.716
	c0.17,1.285,0.38,2.57,0.658,3.836c0.548,2.481,1.229,4.929,2.136,7.304c0.885,2.318,1.837,4.611,2.781,6.906
	C90.432,150.643,90.686,150.861,90.875,151.107z"/>
<path style="fill:#D3D3D0;" d="M56.034,90.755c-0.16-2.585-0.356-5.165-1.015-7.682c-0.136-0.521-0.323-1.034-0.529-1.533
	c-0.327-0.791-1.083-1.109-1.763-1.485c-1.637-0.902-3.301-1.756-4.935-2.665c-2.412-1.342-4.686-2.88-6.769-4.707
	c-2.014-1.765-3.749-3.753-5.143-6.037c-1.416-2.322-2.302-4.855-2.917-7.488c-0.268-1.149-0.523-2.306-0.695-3.472
	c-0.155-1.052-0.223-2.122-0.268-3.186c-0.045-1.069-0.016-2.141-0.015-3.212c0.005-2.096,0.241-4.172,0.63-6.228
	c0.519-2.744,1.29-5.416,2.382-7.99c0.156-0.367,0.276-0.75,0.415-1.126c0.432-1.02,0.92-2.004,1.638-2.86l0.012,0.013
	c-0.266,0.877-0.537,1.75-0.794,2.629c-0.744,2.539-1.38,5.101-1.776,7.723c-0.289,1.916-0.449,3.836-0.315,5.762
	c0.195,2.829,0.769,5.593,1.665,8.289c1.748,5.261,4.538,9.866,8.595,13.67c2.453,2.3,5.203,4.191,8.285,5.525
	c2.718,1.177,4.408,3.164,5.319,5.922c0.508,1.54,0.794,3.116,0.834,4.729c0.039,1.548,0.08,3.104-0.022,4.647
	c-0.161,2.444-0.549,4.864-1.107,7.25c-0.372,1.594-0.793,3.177-1.192,4.765c-0.041-0.001-0.081-0.004-0.122-0.005
	c-0.024-0.122-0.068-0.245-0.069-0.367c-0.019-2.019-0.001-4.04-0.057-6.057C56.263,93.971,56.129,92.364,56.034,90.755z"/>
<path style="fill:#D3D3D0;" d="M85.785,49.867c-0.098,0.573-0.184,1.148-0.298,1.718c-0.062,0.307-0.171,0.603-0.258,0.903
	c-0.139,0.07-0.296,0.121-0.417,0.216c-0.978,0.76-1.743,1.718-2.471,2.707c-1.267,1.724-2.311,3.577-3.208,5.518
	c-0.267,0.577-0.308,1.083,0.141,1.602c0.341,0.394,0.62,0.843,0.913,1.275c1.57,2.316,2.145,4.783,1.085,7.475
	c-0.468,1.188-1.185,2.196-2.327,2.837c-0.519,0.291-0.854,0.723-1.032,1.28c-0.246,0.767-0.183,1.548-0.087,2.329
	c0.182,1.478,1.111,2.462,2.213,3.321c1.905,1.485,3.93,2.795,6,4.036c0.15,0.09,0.238,0.286,0.354,0.433
	c-2.713-0.683-5.427-1.365-8.139-2.05c-2.243-0.566-3.687-1.936-4.224-4.213c-0.161-0.68-0.389-1.356-0.455-2.047
	c-0.227-2.381-0.5-4.766-0.561-7.155c-0.119-4.562,1.319-8.676,3.962-12.372c2.247-3.139,5.079-5.646,8.391-7.617
	c0.133-0.079,0.287-0.124,0.432-0.183L85.785,49.867z"/>
<path style="fill:#5A5A58;" d="M86.391,85.518c-0.116-0.147-0.204-0.342-0.354-0.433c-2.07-1.242-4.094-2.551-6-4.036
	c-1.102-0.858-2.031-1.844-2.213-3.321c-0.096-0.781-0.159-1.562,0.087-2.329c0.178-0.558,0.513-0.988,1.032-1.28
	c1.142-0.641,1.859-1.649,2.327-2.837c1.061-2.692,0.485-5.159-1.085-7.475c-0.293-0.433-0.572-0.881-0.913-1.275
	c-0.449-0.519-0.407-1.025-0.141-1.602c0.897-1.94,1.941-3.794,3.208-5.518c0.727-0.989,1.494-1.947,2.471-2.707
	c0.121-0.095,0.276-0.144,0.417-0.216c-0.023,0.513-0.024,1.028-0.075,1.539c-0.093,0.936-0.219,1.87-0.327,2.804
	c-0.118,1.014-0.24,2.027-0.342,3.043c-0.064,0.639-0.12,1.282-0.137,1.923c-0.051,1.953-0.137,3.908-0.102,5.86
	c0.027,1.523,0.206,3.043,0.331,4.564c0.116,1.419,0.215,2.841,0.383,4.253c0.166,1.389,0.369,2.779,0.638,4.151
	c0.252,1.291,0.605,2.564,0.93,3.841c0.082,0.326,0.227,0.637,0.342,0.954c-0.087,0.04-0.175,0.079-0.262,0.119
	C86.534,85.533,86.463,85.525,86.391,85.518z"/>
<path style="fill:#D3D3D0;" d="M87.775,168.079c-0.344,0.56-0.673,1.131-1.039,1.677c-0.341,0.508-0.604,0.592-1.18,0.418
	c-4.345-1.303-8.613-2.81-12.646-4.92c-0.444-0.233-0.873-0.497-1.292-0.771c-0.273-0.177-0.503-0.183-0.764,0.015
	c-0.767,0.58-1.549,1.14-2.31,1.728c-0.184,0.143-0.308,0.364-0.46,0.548c-4.221-3.27-8.072-6.933-11.605-10.931
	c-2.175-2.462-4.161-5.062-5.753-7.946c-0.034-0.062-0.063-0.126-0.029-0.244c0.566,0.52,1.13,1.043,1.699,1.559
	c2.866,2.606,5.989,4.875,9.239,6.973c4.886,3.154,10.043,5.797,15.414,8.019c3.337,1.381,6.738,2.586,10.195,3.629
	C87.428,167.888,87.598,167.996,87.775,168.079z"/>
<path style="fill:#5B5B59;" d="M106.412,150.763c0.279-0.849,0.558-1.699,0.837-2.547c0.239-0.075,0.285-0.205,0.113-0.396
	c0.007-0.075,0.013-0.149,0.021-0.224c0.039-0.061,0.076-0.121,0.115-0.183l-0.015-0.027c0.105-0.156,0.259-0.298,0.31-0.47
	c0.587-1.998,1.227-3.983,1.714-6.005c0.594-2.467,1.101-4.958,1.562-7.454c0.326-1.769,0.53-3.562,0.753-5.348
	c0.125-0.994,0.187-1.997,0.259-2.998c0.122-1.682,0.279-3.363,0.332-5.047c0.057-1.797,0.013-3.596,0.013-5.394
	c0-0.212,0-0.423,0-0.633c0.598-0.07,1.102-0.091,1.591-0.194c2.044-0.43,4.051-0.975,5.891-2.007
	c1.235-0.694,2.392-1.482,3.236-2.652c0.336-0.466,0.669-0.932,1.003-1.398c-0.035,0.249-0.028,0.512-0.112,0.742
	c-0.966,2.684-2.573,4.913-4.856,6.624c-0.897,0.673-1.872,1.248-2.836,1.826c-0.343,0.206-0.451,0.457-0.489,0.826
	c-0.139,1.375-0.303,2.747-0.46,4.12c-0.125,1.096-0.236,2.193-0.387,3.287c-0.142,1.029-0.301,2.058-0.498,3.077
	c-0.424,2.201-0.831,4.406-1.329,6.59c-0.909,3.977-2.113,7.861-3.851,11.564c-0.695,1.479-1.517,2.886-2.509,4.189
	c-0.045,0.058-0.127,0.087-0.193,0.13C106.558,150.759,106.485,150.761,106.412,150.763z"/>
<path style="fill:#D2D2CF;" d="M90.875,151.107c-0.189-0.245-0.443-0.464-0.557-0.741c-0.944-2.295-1.896-4.588-2.781-6.906
	c-0.907-2.374-1.588-4.823-2.136-7.304c-0.28-1.266-0.49-2.55-0.658-3.836c-0.206-1.566-0.355-3.143-0.495-4.716
	c-0.109-1.238-0.186-2.479-0.244-3.721c-0.062-1.306-0.095-2.614-0.125-3.921c-0.042-1.811-0.085-3.622-0.097-5.433
	c-0.002-0.407-0.119-0.598-0.518-0.741c-1.143-0.41-2.294-0.564-3.481-0.274c-0.386,0.095-0.757,0.247-1.134,0.373
	c0.384-1.111,0.896-2.159,1.534-3.197c1.061,1.037,2.427,1.151,3.742,1.369c0.909,0.15,1.836,0.196,2.802,0.295
	c0.012,0.138,0.036,0.292,0.036,0.446c0.004,1.009-0.012,2.019,0.005,3.027c0.03,1.811,0.063,3.624,0.125,5.434
	c0.062,1.8,0.133,3.601,0.253,5.399c0.118,1.767,0.292,3.528,0.457,5.291c0.159,1.697,0.283,3.401,0.518,5.087
	c0.342,2.443,0.713,4.885,1.18,7.307c0.409,2.117,0.966,4.205,1.459,6.305C90.796,150.803,90.836,150.954,90.875,151.107z"/>
<path style="fill:#D1D1CF;" d="M93.659,45.895c-0.188,1-0.386,1.999-0.561,3.002c-0.272,1.554-0.538,3.11-0.787,4.668
	c-0.246,1.539-0.476,3.081-0.694,4.624c-0.114,0.812-0.188,1.631-0.274,2.447c-0.122,1.154-0.273,2.307-0.349,3.465
	c-0.085,1.284-0.096,2.573-0.148,3.86c-0.022,0.541-0.105,1.08-0.098,1.62c0.021,1.489,0.056,2.978,0.119,4.465
	c0.058,1.383,0.122,2.769,0.249,4.148c0.16,1.753,0.403,3.498,0.577,5.249c0.261,2.63,0.718,5.227,1.228,7.817
	c0.069,0.354,0.096,0.715,0.142,1.074c-0.862-1.332-1.354-2.825-1.805-4.325c-0.677-2.245-1.194-4.531-1.474-6.864
	c-0.204-1.694-0.428-3.385-0.588-5.083c-0.129-1.353-0.201-2.712-0.25-4.07c-0.064-1.804-0.108-3.609-0.107-5.415
	c0-1.44,0.056-2.882,0.132-4.32c0.09-1.7,0.169-3.403,0.358-5.093c0.349-3.128,0.843-6.232,2.102-9.155
	c0.358-0.831,0.427-1.634-0.057-2.471c-0.255-0.44-0.355-0.969-0.514-1.462c-0.017-0.055,0.04-0.132,0.063-0.2l-0.001,0.005
	C91.7,44.727,92.642,45.362,93.659,45.895z"/>
<path style="fill:#5A5A58;" d="M75.86,112.458c-0.119,0.868-0.238,1.735-0.364,2.661c-0.498-0.046-0.931-0.126-1.363-0.12
	c-1.505,0.021-3.008,0.063-4.511,0.118c-0.35,0.013-0.604-0.081-0.849-0.338c-0.917-0.96-1.59-2.07-2.083-3.293
	c-0.632-1.571-1.04-3.197-1.142-4.892c-0.012-0.198-0.001-0.398-0.001-0.651c1.081,0,2.122,0,3.172,0
	c0.08-0.162,0.177-0.28,0.194-0.407c0.124-0.941,0.677-1.631,1.356-2.209c1.284-1.095,2.786-1.815,4.365-2.382
	c0.074-0.027,0.159-0.023,0.239-0.033c0.018,0.022,0.036,0.045,0.052,0.069c-0.449,0.635-0.937,1.248-1.334,1.913
	c-0.346,0.58-0.584,1.223-0.879,1.833c-0.292,0.604-0.022,1.117,0.245,1.632c-0.015,0.124-0.072,0.262-0.038,0.37
	c0.207,0.663,0.41,1.331,0.661,1.979C74.114,110.09,74.776,111.404,75.86,112.458z"/>
<path style="fill:#D0D0CE;" d="M124.148,107.784c-0.335,0.466-0.668,0.932-1.003,1.398c-0.844,1.17-2.001,1.959-3.236,2.652
	c-1.84,1.032-3.847,1.577-5.891,2.007c-0.487,0.103-0.993,0.124-1.591,0.194c0,0.21,0,0.422,0,0.633
	c0,1.798,0.045,3.597-0.013,5.394c-0.053,1.684-0.21,3.366-0.332,5.047c-0.073,1-0.136,2.003-0.259,2.998
	c-0.223,1.787-0.427,3.579-0.753,5.348c-0.46,2.496-0.966,4.987-1.562,7.454c-0.487,2.022-1.128,4.007-1.714,6.005
	c-0.051,0.172-0.205,0.314-0.31,0.47c0.226-1.035,0.474-2.067,0.67-3.109c0.284-1.496,0.559-2.996,0.787-4.502
	c0.269-1.785,0.514-3.573,0.714-5.366c0.169-1.516,0.263-3.038,0.382-4.56c0.121-1.563,0.238-3.126,0.343-4.69
	c0.03-0.443,0.011-0.888,0.022-1.331c0.053-2.302,0.12-4.604,0.159-6.906c0.024-1.442,0.004-2.884,0.004-4.326
	c0-0.645,0.002-0.632,0.632-0.638c3.987-0.042,7.572-1.277,10.716-3.717c1.008-0.782,1.895-1.718,2.87-2.614
	C124.572,106.339,124.36,107.061,124.148,107.784z"/>
<path style="fill:#D2D2CF;" d="M74.98,87.129c-0.13,0.663-0.293,1.323-0.379,1.991c-0.141,1.084,0.131,1.632,1.114,2.062
	c2.142,0.938,4.305,1.831,6.465,2.732c0.942,0.394,1.894,0.761,2.838,1.148c0.178,0.073,0.343,0.182,0.603,0.323
	c-0.193,0.175-0.325,0.31-0.473,0.424c-0.624,0.483-1.296,0.869-2.093,0.995c-0.063,0.01-0.113,0.103-0.169,0.156
	c-1.023-0.058-1.906-0.564-2.814-0.944c-1.37-0.575-2.762-1.091-4.219-1.317c-2.398-0.371-4.556,0.289-6.439,1.825
	c-0.388,0.316-0.76,0.651-1.242,1.065c0.064-0.399,0.095-0.697,0.16-0.987c0.888-3.883,2.929-6.991,6.227-9.251
	C74.689,87.261,74.839,87.202,74.98,87.129z"/>
<path style="fill:#D2D2CF;" d="M95.25,57.519c0.152-0.679,0.257-1.372,0.466-2.033c0.576-1.825,1.18-3.641,1.804-5.449
	c0.319-0.923,0.703-1.824,1.065-2.732c0.035-0.087,0.125-0.152,0.189-0.227c0.169,0.485,0.337,0.969,0.504,1.454
	c0.013,0.055,0.028,0.109,0.041,0.164c-0.008,0.074-0.017,0.147-0.024,0.221c-0.012,0.016-0.036,0.034-0.035,0.049
	c0.379,2.385,0.611,4.782,0.618,7.197c0.001,0.541-0.008,1.1-0.142,1.617c-0.198,0.763-0.51,1.496-0.794,2.298
	c0.17,0.187,0.449,0.156,0.759,0.079c0.783-0.196,1.217-0.82,1.724-1.359c0.155-0.165,0.339-0.304,0.51-0.455
	c0.4,1.397-0.366,2.854-2.19,3.293c-2.478,0.597-4.55-1.128-4.493-3.693C95.256,57.801,95.252,57.661,95.25,57.519z"/>
<path style="fill:#5B5B59;" d="M67.585,70.489c0.09,0.316,0.241,0.628,0.258,0.948c0.105,1.928,0.2,3.857,0.256,5.787
	c0.035,1.231,0.079,2.47-0.028,3.693c-0.108,1.231-0.325,2.462-0.623,3.663c-0.909,3.646-2.421,7.055-4.244,10.331
	c-0.035,0.063-0.095,0.113-0.143,0.169c-0.04-0.015-0.08-0.028-0.12-0.042c0.135-0.542,0.269-1.085,0.403-1.627
	c0.081-0.118,0.201-0.223,0.236-0.353c0.679-2.507,1.305-5.026,1.582-7.615c0.127-1.193,0.29-2.385,0.342-3.582
	c0.057-1.308,0.033-2.623-0.006-3.933c-0.049-1.665-0.188-3.328-0.205-4.992c-0.007-0.81,0.078-1.69,0.976-2.095
	C66.678,70.654,67.145,70.602,67.585,70.489z"/>
<path style="fill:#D0D0CE;" d="M67.585,70.489c-0.44,0.112-0.907,0.165-1.314,0.348c-0.898,0.405-0.985,1.284-0.976,2.095
	c0.016,1.665,0.156,3.327,0.205,4.992c0.038,1.311,0.063,2.625,0.006,3.933c-0.052,1.197-0.213,2.389-0.342,3.582
	c-0.278,2.59-0.902,5.109-1.582,7.615c-0.035,0.13-0.155,0.236-0.236,0.353c0.127-0.957,0.278-1.911,0.377-2.871
	c0.165-1.58,0.378-3.162,0.42-4.747c0.044-1.707-0.051-3.422-0.153-5.13c-0.161-2.718-0.824-5.343-1.605-7.939
	c-0.324-1.075,0.167-1.833,0.885-2.506c0.928-0.869,2.425-1.76,3.685-2.239C67.249,68.794,67.607,69.59,67.585,70.489z"/>
<path style="fill:#D3D3D0;" d="M101.941,40.918c-0.363,0.897-1.172,1.261-1.991,1.505c-0.965,0.287-1.981,0.344-2.977,0.072
	c-1.078-0.296-1.615-0.998-1.602-2.108c0.018-1.559,0.384-3.064,0.851-4.535c0.645-2.032,1.364-4.04,2.053-6.057
	c0.03-0.09,0.079-0.173,0.171-0.373c0.142,0.337,0.245,0.578,0.347,0.821c0.039,0.399,0.035,0.809,0.125,1.197
	c0.42,1.824,0.719,3.66,0.726,5.536c0.005,1.126-0.114,2.239-0.39,3.335c-0.211,0.835,0.065,1.131,0.925,0.97
	c0.432-0.08,0.844-0.257,1.272-0.364C101.604,40.874,101.777,40.913,101.941,40.918z"/>
<path style="fill:#D1D1CF;" d="M95.431,75.093c0.492-2.486,1.665-4.689,2.873-6.875c0.167-0.303,0.382-0.581,0.576-0.871
	c0.097,0.394,0.194,0.787,0.29,1.181c-0.021,0.076-0.063,0.155-0.057,0.229c0.087,1.018,0.173,2.037,0.274,3.054
	c0.162,1.63,0.05,3.243-0.273,4.845c-0.124,0.615-0.283,1.223-0.432,1.862c1.004,0.158,1.947,0.069,2.869-0.267
	c-0.16,0.543-0.616,0.778-1.074,0.98c-1.049,0.46-2.134,0.486-3.206,0.105c-1.025-0.364-1.559-1.194-1.748-2.205
	C95.402,76.469,95.457,75.774,95.431,75.093z"/>
<path style="fill:#D9B155;" d="M87.756,105.838c-0.651,0.719-1.484,0.994-2.341,1.209c-1.025,0.257-2.065,0.292-3.105,0.096
	c-1.516-0.285-2.368-1.259-2.761-2.699c-0.236-0.868-0.216-1.747-0.17-2.679C82.62,102.266,85.334,103.709,87.756,105.838z"/>
<path style="fill:#D9B155;" d="M118.278,101.738c-0.04,0.483-0.065,0.866-0.103,1.249c-0.085,0.869-0.302,1.697-0.76,2.454
	c-0.668,1.103-1.7,1.64-2.928,1.787c-1.754,0.209-3.317-0.394-4.899-1.295C112.113,103.782,115.057,102.672,118.278,101.738z"/>
<path style="fill:#5C5C5A;" d="M101.553,78.251c-0.921,0.336-1.865,0.424-2.869,0.267c0.149-0.639,0.307-1.248,0.432-1.862
	c0.323-1.6,0.434-3.214,0.273-4.845c-0.101-1.017-0.187-2.036-0.274-3.054c-0.006-0.074,0.036-0.153,0.057-0.229
	c0.101,0.156,0.235,0.301,0.297,0.472c0.786,2.157,1.545,4.324,2.346,6.474c0.329,0.881,0.229,1.725-0.057,2.575
	C101.73,78.131,101.623,78.186,101.553,78.251z"/>
<path style="fill:#5C5C5A;" d="M101.941,40.918c-0.164-0.004-0.337-0.042-0.49-0.005c-0.428,0.107-0.84,0.284-1.272,0.364
	c-0.86,0.161-1.136-0.135-0.925-0.97c0.276-1.096,0.395-2.209,0.39-3.335c-0.007-1.876-0.307-3.712-0.726-5.536
	c-0.09-0.388-0.086-0.797-0.125-1.197c0.301,0.583,0.637,1.152,0.897,1.753c1.061,2.455,1.775,5.015,2.204,7.652
	C101.96,40.06,101.927,40.492,101.941,40.918z"/>
<path style="fill:#CFCFCC;" d="M90.158,94.68c-0.069,0.222-0.127,0.449-0.21,0.666c-0.148,0.389-0.314,0.772-0.467,1.159
	c-0.17,0.43-0.007,0.795,0.287,1.085c0.341,0.336,0.71,0.645,1.096,0.929c1.038,0.761,2.022,1.573,2.655,2.722
	c0.161,0.293,0.268,0.617,0.399,0.928c-0.734-0.449-1.445-0.941-2.207-1.336c-1.48-0.769-2.99-1.483-4.606-2.277
	c0.045-0.166,0.076-0.461,0.201-0.709c0.535-1.063,1.38-1.873,2.253-2.654C89.757,95.017,89.959,94.851,90.158,94.68z"/>
<path style="fill:#5C5C5A;" d="M101.937,58.343c-0.171,0.15-0.355,0.289-0.51,0.455c-0.507,0.54-0.941,1.163-1.724,1.359
	c-0.31,0.078-0.589,0.108-0.759-0.079c0.284-0.801,0.597-1.535,0.794-2.298c0.133-0.518,0.144-1.077,0.142-1.617
	c-0.007-2.415-0.239-4.813-0.618-7.197c-0.002-0.013,0.023-0.032,0.035-0.049c0.098,0.153,0.244,0.292,0.29,0.46
	c0.787,2.906,1.562,5.816,2.336,8.726C101.941,58.179,101.932,58.263,101.937,58.343z"/>
<path style="fill:#CFCFCC;" d="M75.86,112.458c-1.084-1.054-1.746-2.368-2.284-3.753c-0.251-0.647-0.455-1.314-0.661-1.979
	c-0.034-0.109,0.023-0.246,0.038-0.37c1.155,1.254,2.488,2.296,3.917,3.263c-0.039,0.107-0.07,0.195-0.102,0.284
	c-0.223,0.632-0.445,1.265-0.668,1.896C76.022,112.02,75.94,112.239,75.86,112.458z"/>
<path style="fill:#CFCFCC;" d="M107.362,147.819c0.172,0.192,0.126,0.321-0.113,0.396
	C107.286,148.083,107.324,147.951,107.362,147.819z"/>
<path style="fill:#CFCFCC;" d="M86.606,85.542c0.087-0.04,0.175-0.079,0.262-0.119c0.028,0.073,0.056,0.146,0.085,0.217
	C86.836,85.607,86.721,85.575,86.606,85.542z"/>
<path style="fill:#5A5A58;" d="M74.869,100.91c0.09-0.038,0.179-0.076,0.27-0.114c0.013,0.027,0.025,0.053,0.039,0.08
	c-0.085,0.034-0.171,0.069-0.256,0.103C74.906,100.954,74.887,100.931,74.869,100.91z"/>
<path style="fill:#CFCFCC;" d="M106.412,150.763c0.073-0.002,0.145-0.004,0.218-0.006c-0.076,0.079-0.153,0.159-0.228,0.238
	l0.01,0.012C106.412,150.926,106.412,150.844,106.412,150.763z"/>
<path style="fill:#D3D3D0;" d="M160.34,30.983c-0.039-0.068-0.078-0.135-0.116-0.202c0.025-0.016,0.052-0.032,0.078-0.047
	c0.036,0.064,0.072,0.129,0.108,0.193C160.386,30.944,160.362,30.964,160.34,30.983z"/>
<path style="fill:#5A5A58;" d="M161.001,83.532c0.027-0.019,0.052-0.053,0.075-0.051c0.029,0.002,0.056,0.034,0.084,0.053
	c-0.016,0.013-0.033,0.039-0.046,0.036C161.077,83.564,161.042,83.547,161.001,83.532z"/>
<path style="fill:#D3D3D0;" d="M37.052,31.086c0.024-0.038,0.048-0.076,0.072-0.114c0.011,0.015,0.034,0.039,0.032,0.041
	c-0.028,0.03-0.061,0.058-0.091,0.087L37.052,31.086z"/>
<path style="fill:#5A5A58;" d="M161.61,33.06c-0.015-0.035-0.032-0.069-0.041-0.104c-0.004-0.017,0.008-0.038,0.013-0.057
	C161.592,32.953,161.601,33.007,161.61,33.06z"/>
<path style="fill:#D1D1CF;" d="M90.917,43.874c-0.019,0.028-0.04,0.056-0.059,0.084c0.004-0.016,0.004-0.035,0.012-0.046
	c0.011-0.015,0.03-0.022,0.045-0.032L90.917,43.874z"/>
<path style="fill:#5C5C5A;" d="M99.319,48.697c-0.013-0.055-0.028-0.109-0.041-0.164C99.293,48.588,99.306,48.642,99.319,48.697z"/>
<path style="fill:#CFCFCC;" d="M107.497,147.411c-0.039,0.061-0.076,0.121-0.115,0.183
	C107.421,147.534,107.459,147.473,107.497,147.411z"/>
<path style="fill:#5A5A58;" d="M145.67,148.043c-0.015,0.013-0.029,0.027-0.044,0.04c-0.012-0.016-0.034-0.033-0.033-0.047
	c0.001-0.015,0.027-0.027,0.041-0.04C145.646,148.01,145.658,148.026,145.67,148.043z"/>
<path style="fill:#5A5A58;" d="M145.396,148.277c0.045-0.018,0.089-0.038,0.133-0.056c-0.017,0.047-0.034,0.093-0.05,0.141
	C145.45,148.335,145.422,148.306,145.396,148.277z"/>
<path style="fill:#D3D3D0;" d="M85.795,49.882c0.024-0.018,0.05-0.036,0.074-0.055c0,0.017,0,0.034,0,0.051
	c-0.028-0.004-0.056-0.007-0.084-0.012L85.795,49.882z"/>
<path style="fill:#CFCFCC;" d="M106.402,150.995c-0.025,0.033-0.051,0.065-0.076,0.098c-0.007-0.016-0.015-0.033-0.022-0.049
	c0.036-0.012,0.073-0.024,0.109-0.036L106.402,150.995z"/>
</svg>
