<?xml version="1.0" encoding="utf-8"?>
<!-- Generator: Adobe Illustrator 24.1.2, SVG Export Plug-In . SVG Version: 6.00 Build 0)  -->
<svg version="1.1" id="Layer_1" xmlns="http://www.w3.org/2000/svg" xmlns:xlink="http://www.w3.org/1999/xlink" x="0px" y="0px"
	 viewBox="0 0 200 200" style="enable-background:new 0 0 200 200;" xml:space="preserve">
<g>
	<path style="fill:#CA0E01;" d="M4.007,102.723c0.027-6.014,0.041-9.095,0.04-9.014C11.305-4.901,141.127-30.002,185.383,58.11
		c23.354,45.869,2.497,106.769-44.456,128.314C79.362,216.829,5.136,171.473,4.007,102.723z M178.528,55.044l0.016,0.034
		c-0.088-0.219-0.154-0.451-0.269-0.654c-1.527-2.68-3.207-5.263-5.009-7.766c-3.043-4.229-6.428-8.167-10.136-11.827
		c-0.516-0.51-1.082-0.957-1.686-1.355c-0.041-0.027-0.068-0.068-0.083-0.114c-0.096-0.308-0.342-0.504-0.575-0.704
		c-1.678-1.435-3.325-2.91-5.048-4.292c-3.808-3.054-7.867-5.744-12.135-8.116c-0.342-0.19-0.72-0.314-1.084-0.462
		c-0.043-0.017-0.08-0.048-0.102-0.09c-0.138-0.268-0.417-0.359-0.663-0.489c-6.88-3.639-14.114-6.34-21.694-8.103
		c-3.714-0.863-7.469-1.486-11.265-1.871c-2.411-0.244-4.826-0.38-7.244-0.47c-2.755-0.103-5.508,0.037-8.26,0.182
		c-0.769,0.041-1.54,0.112-2.283,0.341c-0.019,0.005-0.038,0.009-0.058,0.009c-0.473,0.003-0.952-0.035-1.419,0.022
		c-2.58,0.316-5.15,0.689-7.704,1.189c-7.64,1.499-14.961,3.95-21.961,7.349c-7.059,3.428-13.568,7.7-19.52,12.819
		c-4.812,4.138-9.161,8.712-13.027,13.744c-4.256,5.541-7.837,11.489-10.726,17.851c-1.791,3.943-3.29,7.993-4.505,12.149
		c-1.036,3.543-1.84,7.138-2.454,10.776c-0.171,1.012-0.277,2.035-0.41,3.053c-0.006,0.045-0.001,0.094,0.025,0.132
		c0.005,0.006,0.007,0.013,0.007,0.019c-0.002,0.039-0.016,0.078-0.028,0.117c-0.003,0.009-0.005,0.018-0.005,0.027
		c-0.082,0.562-0.192,1.121-0.239,1.686c-0.174,2.078-0.405,4.155-0.472,6.237c-0.101,3.174-0.149,6.352,0.125,9.524
		c0.144,1.656,0.233,3.319,0.428,4.969c0.295,2.49,0.705,4.964,1.2,7.425c1.474,7.331,3.837,14.362,7.051,21.109
		c3.788,7.948,8.649,15.182,14.519,21.741c0.215,0.24,0.477,0.438,0.719,0.654c0.008,0.007,0.015,0.015,0.023,0.024
		c0.228,0.273,0.443,0.558,0.687,0.817c3.68,3.906,7.664,7.472,11.969,10.678c5.061,3.769,10.453,6.985,16.184,9.63
		c0.213,0.099,0.454,0.139,0.681,0.207c0.086,0.027,0.175,0.047,0.257,0.084c3.142,1.407,6.365,2.596,9.652,3.617
		c0.399,0.124,0.809,0.209,1.216,0.307c0.055,0.014,0.104,0.05,0.131,0.101c0.161,0.294,0.472,0.364,0.767,0.439
		c2.198,0.554,4.386,1.152,6.599,1.636c3.311,0.724,6.663,1.191,10.037,1.529c2.685,0.269,5.375,0.367,8.066,0.419
		c2.025,0.039,4.055-0.078,6.081-0.153c0.728-0.026,1.453-0.119,2.174-0.187c0.093-0.009,0.168-0.078,0.184-0.169l0,0
		c0.016-0.09,0.089-0.158,0.18-0.168c1.119-0.128,2.24-0.24,3.355-0.394c3.231-0.446,6.444-0.999,9.61-1.786
		c1.383-0.343,2.749-0.757,4.122-1.14c0.042-0.012,0.086-0.01,0.128,0.005c0.206,0.076,0.411,0.152,0.596,0.22
		c0.042,0.015,0.087,0.016,0.13,0.004c8.917-2.664,17.178-6.599,24.857-11.767c3.884-2.614,9.033-6.766,10.099-8.029
		c0.046-0.055,0.06-0.13,0.036-0.198l-0.011-0.032c-0.025-0.073-0.006-0.153,0.045-0.208c0.177-0.189,0.352-0.381,0.538-0.56
		c0.849-0.816,1.731-1.599,2.547-2.445c1.389-1.437,2.741-2.911,4.107-4.37c0.064-0.068,0.165-0.085,0.248-0.041l0.034,0.017
		c0.083,0.044,0.185,0.026,0.249-0.042c0.151-0.162,0.284-0.303,0.411-0.45c4.233-4.958,7.907-10.3,10.998-16.039
		c3.003-5.575,5.413-11.393,7.184-17.474c0.089-0.305,0.083-0.638,0.119-0.958c0.001-0.01,0.003-0.02,0.005-0.03
		c0.479-1.895,0.989-3.782,1.427-5.686c0.601-2.616,1.07-5.257,1.383-7.925c0.154-1.317,0.331-2.633,0.458-3.952
		c0.089-0.926,0.114-1.857,0.166-2.785c0-0.007,0.001-0.015,0.002-0.022c0.026-0.175,0.069-0.35,0.074-0.525
		c0.114-4.197,0.101-8.39-0.311-12.577c-0.269-2.735-0.631-5.453-1.125-8.155c-0.777-4.251-1.847-8.426-3.249-12.515
		c-0.093-0.272-0.253-0.52-0.383-0.779c-0.008-0.015-0.014-0.032-0.017-0.048c-0.086-0.368-0.142-0.748-0.27-1.101
		c-1.265-3.487-2.717-6.894-4.423-10.189c-0.606-1.17-1.259-2.316-1.891-3.472c-0.005-0.011-0.013-0.021-0.021-0.031
		C178.622,55.161,178.575,55.102,178.528,55.044z"/>
	<path style="fill:#F9DB28;" d="M185.281,70.038c0.134,0.266,0.3,0.522,0.395,0.801c1.402,4.088,2.472,8.264,3.249,12.515
		c0.494,2.702,0.856,5.42,1.125,8.155c0.412,4.187,0.424,8.38,0.311,12.577c-0.005,0.179-0.049,0.357-0.075,0.536
		c-1.762-2.154-3.485-4.343-5.296-6.456c-4.501-5.251-9.394-10.106-14.839-14.387c-4.344-3.415-8.957-6.398-14.011-8.665
		c-3.212-1.442-6.525-2.567-10.018-3.103c-0.4-0.062-0.801-0.134-1.425-0.031c0.412,0.168,0.628,0.257,0.843,0.344
		c5.657,2.289,10.792,5.439,15.449,9.375c5.148,4.351,9.477,9.423,13.182,15.034c5.221,7.905,9.05,16.457,11.815,25.502
		c0.282,0.922,0.572,1.842,0.859,2.763c-0.038,0.325-0.03,0.663-0.121,0.973c-1.771,6.081-4.181,11.9-7.184,17.474
		c-3.092,5.739-6.766,11.081-10.998,16.039c-0.155,0.182-0.323,0.353-0.519,0.567c-0.114-0.061-0.214-0.114-0.314-0.166
		c-0.155-0.259-0.301-0.524-0.467-0.775c-1.672-2.523-3.266-5.091-4.736-7.738c-2.547-4.585-4.369-9.427-5.25-14.607
		c-0.375-2.205-0.719-4.416-1.096-6.621c-0.649-3.784-1.278-7.571-1.981-11.345c-0.659-3.537-1.465-7.043-2.534-10.482
		c-1.177-3.792-2.616-7.475-4.579-10.937c-1.257-2.219-2.698-4.307-4.481-6.145c-0.781-0.806-1.613-1.554-2.538-2.192
		c-0.209-0.144-0.424-0.343-0.73-0.118c0.192,0.243,0.376,0.478,0.563,0.713c1.248,1.567,2.319,3.248,3.229,5.033
		c1.957,3.845,3.023,7.953,3.628,12.199c0.452,3.181,0.638,6.383,0.676,9.59c0.042,3.509-0.022,7.019-0.027,10.529
		c-0.007,4.569-0.013,9.138,0.43,13.694c0.257,2.653,0.623,5.286,1.3,7.866c1.844,7.029,5.267,13.162,10.443,18.291
		c0.233,0.231,0.509,0.419,0.765,0.626c0.029,0.086,0.058,0.172,0.087,0.258c-0.878,1.143-6.191,5.44-10.172,8.12
		c-7.698,5.18-15.98,9.123-24.923,11.786c-0.22-0.081-0.472-0.174-0.722-0.266c-0.361-0.221-0.72-0.443-1.081-0.663
		c-4.518-2.753-7.772-6.576-9.746-11.485c-1.114-2.769-1.741-5.656-2.06-8.613c-0.134-1.236-0.085-2.475,0.083-3.71
		c0.338-2.493,0.958-4.921,1.643-7.335c1.337-4.711,2.949-9.333,4.537-13.963c2.02-5.887,4.083-11.761,5.805-17.744
		c1.28-4.446,2.432-8.921,2.889-13.546c0.227-2.3,0.176-4.594-0.144-6.878c-0.476-3.401-1.437-6.67-2.739-9.843
		c-2.219-5.408-5.226-10.356-8.786-14.978c-0.093-0.12-0.168-0.266-0.287-0.347c-0.113-0.077-0.273-0.084-0.461-0.135
		c0.221,0.398,0.419,0.704,0.568,1.033c0.725,1.595,1.505,3.169,2.141,4.8c2.586,6.629,3.842,13.527,4.049,20.627
		c0.076,2.634,0.045,5.265-0.281,7.881c-0.382,3.063-1.041,6.072-1.869,9.047c-1.412,5.074-3.236,10.003-5.277,14.851
		c-2.076,4.93-4.23,9.826-6.337,14.742c-1.416,3.306-2.785,6.631-3.837,10.076c-0.664,2.178-1.112,4.391-1.157,6.678
		c-0.055,2.886,0.252,5.74,0.777,8.569c0.862,4.648,2.219,9.158,3.914,13.568c0.096,0.25,0.233,0.484,0.35,0.726
		c-0.016,0.089-0.032,0.178-0.055,0.306c-0.773,0.069-1.551,0.173-2.331,0.201c-2.026,0.075-4.056,0.192-6.081,0.153
		c-2.691-0.052-5.381-0.151-8.066-0.419c-3.375-0.338-6.727-0.804-10.037-1.529c-2.213-0.484-4.402-1.083-6.599-1.636
		c-0.32-0.081-0.658-0.155-0.804-0.516c-0.003-0.06,0.006-0.124-0.009-0.181c-0.602-2.328-0.809-4.705-0.836-7.1
		c-0.025-2.272,0.173-4.531,0.479-6.783c0.441-3.244,1.192-6.414,2.232-9.517c0.937-2.793,2.235-5.42,3.675-7.978
		c2.611-4.638,5.257-9.256,7.867-13.895c3.084-5.482,6.071-11.016,8.676-16.746c1.565-3.443,2.986-6.94,4.009-10.589
		c0.748-2.666,1.149-5.37,1.049-8.151c-0.106-2.956-0.679-5.823-1.552-8.633c-1.628-5.236-4.109-10.064-7.098-14.643
		c-0.082-0.125-0.162-0.273-0.282-0.348c-0.091-0.056-0.244-0.011-0.411-0.011c0.216,0.48,0.408,0.885,0.583,1.297
		c2.753,6.498,3.612,13.268,2.86,20.255c-0.419,3.891-1.338,7.677-2.601,11.38c-1.813,5.316-4.277,10.326-7.091,15.175
		c-2.537,4.374-5.371,8.554-8.215,12.731c-2.864,4.206-5.425,8.589-7.69,13.147c-2.616,5.265-4.681,10.748-6.498,16.328
		c-0.461,1.415-0.724,2.869-0.781,4.361c-0.075,1.972,0.02,3.931,0.413,5.869c-0.228-0.068-0.468-0.108-0.681-0.207
		c-5.731-2.646-11.123-5.86-16.184-9.63c-4.305-3.206-8.289-6.773-11.969-10.678c-0.247-0.263-0.465-0.552-0.698-0.829
		c0.524-1.69,1.347-3.234,2.314-4.705c1.99-3.026,4.416-5.684,7.004-8.198c4.395-4.272,9.186-8.062,14.215-11.555
		c3.704-2.572,7.367-5.199,10.927-7.97c6.312-4.914,11.969-10.483,16.89-16.795c1.794-2.302,3.06-4.851,3.688-7.706
		c0.485-2.204,0.591-4.426,0.338-6.673c-0.208-1.842-0.601-3.635-1.258-5.368c-0.054-0.141-0.023-0.385-0.319-0.38
		c-0.078,0.145-0.17,0.298-0.245,0.458c-1.266,2.695-3.039,5.007-5.268,6.976c-1.549,1.368-3.252,2.517-5.035,3.553
		c-1.362,0.791-2.695,1.623-3.929,2.606c-0.09,0.071-0.197,0.12-0.33,0.199c-0.329-0.315-0.503-0.7-0.677-1.078
		c-0.704-1.541-0.77-3.161-0.532-4.801c0.283-1.963,0.981-3.796,1.844-5.572c1.248-2.569,2.805-4.946,4.552-7.196
		c0.664-0.856,0.974-1.788,0.997-2.85c0.026-1.214-0.05-2.418-0.259-3.615c-0.047-0.268-0.093-0.537-0.158-0.8
		c-0.057-0.234-0.141-0.462-0.252-0.819c-0.131,0.373-0.209,0.601-0.289,0.827c-0.568,1.601-1.277,3.134-2.169,4.582
		c-1.58,2.563-3.663,4.653-6.077,6.422c-1.391,1.019-2.835,1.964-4.229,2.979c-1.1,0.8-2.184,1.627-3.23,2.497
		c-1.077,0.894-1.97,1.965-2.721,3.148c-0.978,1.54-1.496,3.222-1.574,5.047c-0.091,2.121,0.307,4.15,1.093,6.112
		c0.097,0.242,0.175,0.491,0.265,0.746c-0.689,0.469-1.385,0.757-2.089,1.028c-2.785,1.074-5.693,1.64-8.643,1.968
		c-1.893,0.211-3.798,0.32-5.701,0.437c-3.423,0.211-6.837,0.118-10.23-0.422c-2.583-0.412-5.077-1.119-7.398-2.355
		c-2.835-1.51-5.023-3.651-6.402-6.583c-0.648-1.378-1.041-2.834-1.374-4.31c-0.139-0.617-0.049-1.211,0.289-1.745
		c0.258-0.407,0.513-0.832,0.849-1.171c0.658-0.666,1.331-1.328,2.069-1.901c2.569-1.997,5.385-3.579,8.392-4.821
		c0.391-0.161,0.789-0.319,1.147-0.537c1.669-1.013,2.111-3.023,1.058-4.718c-0.059-0.004-0.124-0.024-0.177-0.009
		c-0.204,0.056-0.405,0.12-0.606,0.188c-3.711,1.246-7.494,2.16-11.412,2.443c-2.95,0.213-5.868,0.093-8.687-0.928
		c0.012-0.044,0.029-0.086,0.032-0.13c0.001-0.02-0.029-0.041-0.045-0.061c0.237-0.31,0.475-0.619,0.712-0.929
		c1.301-1.709,2.531-3.478,3.914-5.117c6.689-7.928,14.661-14.306,23.667-19.42c0.233-0.132,0.462-0.27,0.657-0.384
		c0.019-0.123,0.042-0.183,0.035-0.24c-0.232-1.984,0.03-3.924,0.556-5.834c0.78-2.835,2.162-5.377,3.855-7.759
		c2.578-3.63,5.705-6.736,9.179-9.503c0.205-0.164,0.406-0.333,0.708-0.581c-1.306-0.222-2.467-0.131-3.621,0.041
		c-2.138,0.318-4.171,0.997-6.157,1.83c-3.698,1.551-7.139,3.563-10.437,5.831c-0.207,0.143-0.427,0.269-0.647,0.407
		c-0.036-0.092-0.063-0.124-0.055-0.144c0.085-0.225,0.168-0.452,0.266-0.671c1.35-3.03,3.078-5.826,5.187-8.387
		c3.412-4.145,7.549-7.41,12.246-9.97c7.519-4.098,15.615-6.285,24.095-7.164c1.052-0.109,2.11-0.172,3.221-0.261
		c0.17-0.194,0.37-0.42,0.566-0.649c1.582-1.843,3.313-3.53,5.226-5.029c2.418-1.895,5.037-3.45,7.872-4.639
		c0.258-0.108,0.62-0.105,0.726-0.468c0.752-0.236,1.534-0.309,2.311-0.35c2.751-0.144,5.504-0.284,8.26-0.182
		c2.418,0.091,4.833,0.226,7.244,0.47c3.798,0.384,7.551,1.008,11.265,1.871c7.581,1.762,14.814,4.463,21.694,8.103
		c0.263,0.139,0.564,0.233,0.69,0.547c-0.088-0.022-0.175-0.05-0.264-0.065c-4.071-0.666-8.166-0.972-12.292-0.879
		c-3.94,0.089-7.849,0.495-11.721,1.22c-6.474,1.213-12.715,3.182-18.734,5.856c-2.239,0.995-4.425,2.091-6.611,3.329
		c0.143,0.065,0.231,0.144,0.293,0.128c0.404-0.11,0.802-0.245,1.205-0.364c8.252-2.455,16.632-4.245,25.238-4.864
		c3.383-0.243,6.764-0.34,10.157-0.184c4.607,0.211,9.158,0.789,13.637,1.884c6.332,1.549,12.3,3.966,17.773,7.544
		c0.071,0.046,0.169,0.05,0.255,0.073c0.628,0.41,1.216,0.869,1.75,1.397c3.708,3.659,7.093,7.598,10.136,11.827
		c1.802,2.504,3.481,5.086,5.009,7.766c0.115,0.204,0.181,0.435,0.269,0.654c-0.222-0.068-0.455-0.112-0.663-0.208
		c-1.618-0.75-3.214-1.55-4.85-2.258c-7.332-3.172-14.946-5.197-22.959-5.628c-4.378-0.235-8.713,0.056-13.012,0.86
		c-5.508,1.031-10.73,2.896-15.67,5.545c-4.696,2.518-8.987,5.59-12.773,9.349c-0.184,0.182-0.35,0.381-0.539,0.587
		c0.373,0.18,0.564-0.093,0.78-0.218c2.831-1.637,5.747-3.102,8.77-4.35c6.112-2.526,12.462-4.079,19.058-4.584
		c3.964-0.303,7.921-0.191,11.871,0.286c3.34,0.404,6.629,1.048,9.866,1.957c9.309,2.613,17.783,6.915,25.542,12.658
		C184.4,69.399,184.841,69.717,185.281,70.038z M106.766,102.951c0.767-2.944,1.107-5.948,1.245-8.971
		c0.14-3.089,0-6.169-0.485-9.23c-0.572-3.613-1.633-7.055-3.41-10.273c-0.993-1.8-1.931-3.632-2.844-5.474
		c-1.036-2.087-1.948-4.225-2.573-6.48c-0.535-1.929-0.556-3.893-0.399-5.855c0.107-1.338,0.645-2.574,1.278-3.755
		c1.055-1.966,2.449-3.671,4.044-5.218c2.186-2.121,4.658-3.856,7.294-5.367c0.253-0.145,0.501-0.301,0.751-0.452
		c-0.055-0.092-0.074-0.165-0.117-0.187c-0.215-0.108-0.435-0.208-0.658-0.301c-1.832-0.761-3.756-1.154-5.713-1.387
		c-3.365-0.402-6.708-0.164-10.033,0.431c-3.468,0.621-6.81,1.664-10.069,2.987c-0.22,0.089-0.448,0.16-0.659,0.234
		c-0.167-0.098-0.298-0.172-0.426-0.25c-4.447-2.716-9.28-3.745-14.44-3.205c-3.009,0.315-5.842,1.264-8.525,2.659
		c-5.2,2.705-9.275,6.695-12.912,11.216c0.426,0.194,0.659-0.105,0.931-0.274c1.903-1.177,3.782-2.398,5.714-3.528
		c2.378-1.391,4.858-2.586,7.476-3.471c1.642-0.555,3.311-0.949,5.063-0.919c3.035,0.053,5.337,1.367,6.904,3.963
		c0.66,1.094,1.133,2.27,1.504,3.49c0.654,2.149,1.014,4.354,1.276,6.578c0.039,0.331,0.087,0.66,0.124,0.99
		c0.039,0.349,0.07,0.698,0.116,1.169c0.229-0.224,0.376-0.362,0.516-0.508c1.031-1.066,2.036-2.159,3.095-3.194
		c1.604-1.569,3.31-3.02,5.221-4.21c0.979-0.61,2.003-1.129,3.141-1.382c0.158-0.035,0.327-0.022,0.485-0.03
		c-0.276,0.983-0.574,1.903-0.79,2.842c-0.456,1.989-0.396,3.93,0.38,5.871c1.049,2.626,2.291,5.138,3.973,7.415
		c1.258,1.704,2.559,3.377,3.835,5.069c1.697,2.249,3.275,4.575,4.555,7.093c2.444,4.806,3.709,9.954,4.408,15.259
		c0.26,1.978,0.403,3.971,0.604,5.957C106.672,102.488,106.726,102.718,106.766,102.951z M55.573,66.406
		c-7.417,3.158-13.818,7.729-19.485,13.422c0.288,0.169,0.502,0.114,0.723,0.005c0.325-0.161,0.656-0.311,0.985-0.464
		c6.005-2.794,12.155-5.244,18.341-7.6c4.772-1.818,9.575-3.558,14.359-5.346c0.245-0.092,0.6-0.07,0.7-0.355
		c-1.845-0.287-3.674-0.532-5.486-0.867c-1.728-0.319-3.408-0.826-4.979-1.636c-0.784-0.404-1.512-0.89-2.119-1.541
		c-0.956-1.024-1.328-2.236-1.027-3.598c0.128-0.58,0.434-1.12,0.658-1.679c0.071-0.176,0.256-0.313,0.23-0.589
		c-1.032,0.456-1.903,1.039-2.632,1.823c-1.111,1.196-1.577,2.635-1.499,4.243c0.059,1.22,0.391,2.382,0.92,3.486
		C55.365,65.925,55.457,66.145,55.573,66.406z"/>
	<path style="fill:#010100;" d="M9.225,88.53c2.82,1.02,5.737,1.141,8.687,0.928c3.917-0.283,7.7-1.196,11.412-2.443
		c0.201-0.067,0.402-0.132,0.606-0.188c0.055-0.015,0.118,0.005,0.177,0.009c1.053,1.694,0.611,3.705-1.058,4.718
		c-0.359,0.218-0.758,0.375-1.147,0.537c-3.008,1.242-5.823,2.825-8.392,4.821c-0.738,0.573-1.411,1.236-2.069,1.901
		c-0.335,0.339-0.591,0.764-0.849,1.171c-0.338,0.534-0.428,1.128-0.289,1.745c0.333,1.476,0.725,2.932,1.374,4.31
		c1.379,2.931,3.567,5.073,6.402,6.583c2.32,1.236,4.815,1.944,7.398,2.355c3.392,0.541,6.806,0.633,10.23,0.422
		c1.902-0.117,3.808-0.226,5.701-0.437c2.952-0.329,5.858-0.894,8.643-1.968c0.703-0.271,1.4-0.559,2.089-1.028
		c-0.09-0.254-0.169-0.504-0.265-0.746c-0.785-1.962-1.184-3.991-1.093-6.112c0.078-1.825,0.596-3.507,1.574-5.047
		c0.751-1.183,1.644-2.254,2.721-3.148c1.047-0.869,2.13-1.695,3.23-2.497c1.394-1.015,2.838-1.961,4.229-2.979
		c2.414-1.769,4.497-3.859,6.077-6.422c0.892-1.447,1.602-2.981,2.169-4.582c0.08-0.226,0.158-0.453,0.289-0.827
		c0.111,0.358,0.194,0.585,0.252,0.819c0.065,0.264,0.111,0.532,0.158,0.8c0.21,1.196,0.285,2.401,0.259,3.615
		c-0.023,1.062-0.333,1.994-0.997,2.85c-1.746,2.25-3.303,4.627-4.552,7.196c-0.863,1.776-1.561,3.609-1.844,5.572
		c-0.237,1.641-0.172,3.261,0.532,4.801c0.174,0.379,0.348,0.763,0.677,1.078c0.133-0.079,0.241-0.128,0.33-0.199
		c1.235-0.982,2.567-1.814,3.929-2.606c1.782-1.036,3.486-2.184,5.035-3.553c2.229-1.97,4.002-4.281,5.268-6.976
		c0.075-0.16,0.167-0.313,0.245-0.458c0.296-0.005,0.265,0.239,0.319,0.38c0.657,1.733,1.051,3.526,1.258,5.368
		c0.253,2.247,0.147,4.469-0.338,6.673c-0.629,2.855-1.893,5.405-3.688,7.706c-4.92,6.311-10.578,11.88-16.89,16.795
		c-3.56,2.771-7.223,5.397-10.927,7.97c-5.03,3.493-9.82,7.283-14.215,11.555c-2.587,2.515-5.014,5.172-7.004,8.198
		c-0.967,1.471-1.79,3.015-2.314,4.705c-0.244-0.221-0.512-0.421-0.731-0.665c-5.871-6.558-10.732-13.794-14.519-21.741
		c-3.215-6.747-5.578-13.777-7.051-21.109c-0.494-2.461-0.905-4.935-1.2-7.425c-0.195-1.65-0.284-3.312-0.428-4.969
		c-0.274-3.172-0.226-6.35-0.125-9.524c0.066-2.082,0.297-4.159,0.472-6.237C9.032,89.661,9.144,89.096,9.225,88.53z
		 M20.588,116.507c-0.038,0.853-0.069,1.538-0.098,2.223c-0.1,2.342-0.537,4.615-1.372,6.809c-0.215,0.564-0.428,1.129-0.637,1.696
		c-0.416,1.13-0.503,2.298-0.371,3.484c0.223,1.998,1.555,3.366,3.527,3.717c1.009,0.179,1.992,0.056,2.974-0.115
		c3.035-0.531,6.062-1.112,9.1-1.63c1.639-0.28,3.296-0.518,4.962-0.431c1.689,0.088,3.378,0.238,5.056,0.451
		c1.617,0.205,3.219,0.528,4.829,0.793c0.184,0.03,0.372,0.024,0.631,0.039c-0.863-1.931-1.983-3.564-3.381-5.01
		c-2.072-2.143-4.553-3.672-7.275-4.839c-2.509-1.076-5.125-1.803-7.791-2.361c-3.427-0.717-6.536-2.131-9.344-4.215
		C21.18,116.957,20.965,116.793,20.588,116.507z"/>
	<path style="fill:#020100;" d="M90.98,9.297c-0.106,0.362-0.468,0.36-0.726,0.468c-2.836,1.189-5.455,2.744-7.872,4.639
		c-1.911,1.499-3.644,3.187-5.226,5.029c-0.196,0.229-0.396,0.454-0.566,0.649c-1.11,0.089-2.168,0.151-3.221,0.261
		c-8.48,0.879-16.576,3.066-24.095,7.164c-4.697,2.56-8.833,5.825-12.246,9.97c-2.109,2.561-3.837,5.357-5.187,8.387
		c-0.098,0.22-0.181,0.446-0.266,0.671c-0.007,0.02,0.019,0.053,0.055,0.144c0.221-0.138,0.44-0.264,0.647-0.407
		c3.298-2.268,6.738-4.28,10.437-5.831c1.986-0.832,4.019-1.512,6.157-1.83c1.156-0.172,2.316-0.263,3.621-0.041
		c-0.302,0.247-0.502,0.417-0.708,0.581c-3.475,2.767-6.601,5.873-9.179,9.503c-1.692,2.382-3.073,4.925-3.855,7.759
		c-0.526,1.911-0.787,3.849-0.556,5.834c0.006,0.057-0.016,0.117-0.035,0.24c-0.195,0.114-0.424,0.253-0.657,0.384
		c-9.006,5.113-16.978,11.493-23.667,19.42c-1.384,1.639-2.613,3.408-3.914,5.117c-0.236,0.311-0.474,0.62-0.712,0.929
		c0.139-1.048,0.246-2.101,0.422-3.143c0.614-3.638,1.418-7.233,2.454-10.776c1.216-4.156,2.715-8.206,4.505-12.149
		c2.889-6.362,6.469-12.309,10.726-17.851c3.866-5.033,8.215-9.606,13.027-13.744c5.952-5.118,12.461-9.391,19.52-12.819
		c7-3.399,14.321-5.851,21.961-7.349c2.553-0.501,5.124-0.873,7.704-1.189C90.008,9.26,90.497,9.302,90.98,9.297z"/>
	<path style="fill:#020200;" d="M107.291,190.715c-0.117-0.242-0.253-0.476-0.35-0.726c-1.695-4.41-3.053-8.92-3.914-13.568
		c-0.525-2.829-0.832-5.683-0.777-8.569c0.045-2.288,0.492-4.501,1.157-6.678c1.051-3.445,2.419-6.77,3.837-10.076
		c2.107-4.917,4.262-9.813,6.337-14.742c2.041-4.848,3.866-9.777,5.277-14.851c0.828-2.974,1.487-5.983,1.869-9.047
		c0.326-2.616,0.357-5.247,0.281-7.881c-0.206-7.101-1.463-13.998-4.049-20.627c-0.636-1.63-1.416-3.204-2.141-4.8
		c-0.149-0.328-0.347-0.634-0.568-1.033c0.188,0.051,0.348,0.059,0.461,0.135c0.119,0.082,0.195,0.228,0.287,0.347
		c3.56,4.622,6.567,9.57,8.786,14.978c1.302,3.172,2.262,6.443,2.739,9.843c0.32,2.284,0.371,4.578,0.144,6.878
		c-0.457,4.624-1.609,9.1-2.889,13.546c-1.723,5.983-3.786,11.857-5.805,17.744c-1.588,4.63-3.2,9.251-4.537,13.963
		c-0.685,2.414-1.306,4.842-1.643,7.335c-0.167,1.236-0.216,2.475-0.083,3.71c0.319,2.956,0.946,5.843,2.06,8.613
		c1.974,4.91,5.228,8.732,9.746,11.485c0.362,0.22,0.721,0.442,1.081,0.663c-1.395,0.388-2.782,0.809-4.186,1.158
		c-3.167,0.787-6.379,1.34-9.61,1.786C109.633,190.465,108.46,190.579,107.291,190.715z"/>
	<path style="fill:#020200;" d="M62.099,183.243c-0.392-1.939-0.488-3.897-0.413-5.869c0.056-1.492,0.32-2.946,0.781-4.361
		c1.818-5.581,3.883-11.064,6.498-16.328c2.264-4.558,4.826-8.941,7.69-13.147c2.843-4.176,5.677-8.358,8.215-12.731
		c2.814-4.849,5.277-9.859,7.091-15.175c1.263-3.704,2.183-7.489,2.601-11.38c0.752-6.987-0.108-13.757-2.86-20.255
		c-0.174-0.412-0.367-0.818-0.583-1.297c0.167,0,0.32-0.045,0.411,0.011c0.12,0.075,0.199,0.222,0.282,0.348
		c2.989,4.58,5.471,9.408,7.098,14.643c0.873,2.809,1.445,5.676,1.552,8.633c0.1,2.781-0.301,5.484-1.049,8.151
		c-1.023,3.649-2.445,7.146-4.009,10.589c-2.605,5.731-5.592,11.264-8.676,16.746c-2.609,4.639-5.256,9.257-7.867,13.895
		c-1.44,2.558-2.738,5.186-3.675,7.978c-1.04,3.103-1.792,6.273-2.232,9.517c-0.306,2.251-0.503,4.51-0.479,6.783
		c0.026,2.395,0.233,4.771,0.836,7.1c0.015,0.057,0.006,0.12,0.009,0.181c-0.437-0.109-0.88-0.197-1.31-0.331
		c-3.287-1.019-6.51-2.209-9.652-3.617C62.275,183.29,62.185,183.271,62.099,183.243z"/>
	<path style="fill:#020100;" d="M160.326,167.463c-0.256-0.208-0.531-0.395-0.765-0.626c-5.177-5.129-8.599-11.262-10.443-18.291
		c-0.677-2.581-1.043-5.213-1.3-7.866c-0.442-4.556-0.437-9.125-0.43-13.694c0.005-3.51,0.069-7.02,0.027-10.529
		c-0.038-3.207-0.223-6.409-0.676-9.59c-0.604-4.245-1.671-8.355-3.628-12.199c-0.908-1.785-1.981-3.466-3.229-5.033
		c-0.187-0.234-0.372-0.471-0.563-0.713c0.306-0.224,0.521-0.026,0.73,0.118c0.926,0.638,1.757,1.386,2.538,2.192
		c1.782,1.838,3.222,3.927,4.481,6.145c1.962,3.462,3.401,7.145,4.579,10.937c1.068,3.44,1.875,6.945,2.534,10.482
		c0.702,3.774,1.332,7.561,1.981,11.345c0.378,2.205,0.721,4.415,1.096,6.621c0.881,5.18,2.703,10.023,5.25,14.607
		c1.47,2.646,3.064,5.215,4.736,7.738c0.166,0.252,0.312,0.516,0.467,0.775c-1.403,1.497-2.79,3.01-4.215,4.485
		c-0.817,0.846-1.699,1.629-2.547,2.445C160.733,167.02,160.533,167.245,160.326,167.463z"/>
	<path style="fill:#020200;" d="M185.281,70.038c-0.439-0.321-0.88-0.639-1.317-0.962c-7.759-5.743-16.232-10.045-25.542-12.658
		c-3.237-0.909-6.526-1.553-9.866-1.957c-3.95-0.478-7.908-0.59-11.871-0.286c-6.596,0.505-12.945,2.059-19.058,4.584
		c-3.023,1.249-5.939,2.714-8.77,4.35c-0.216,0.125-0.407,0.398-0.78,0.218c0.189-0.207,0.356-0.405,0.539-0.587
		c3.788-3.758,8.077-6.831,12.773-9.349c4.94-2.649,10.162-4.513,15.67-5.545c4.298-0.805,8.633-1.097,13.012-0.86
		c8.013,0.431,15.626,2.457,22.959,5.628c1.636,0.708,3.232,1.508,4.85,2.258c0.208,0.096,0.442,0.14,0.663,0.208l-0.016-0.034
		c0.051,0.064,0.103,0.126,0.154,0.19c0.635,1.162,1.292,2.313,1.901,3.489c1.706,3.295,3.158,6.702,4.423,10.189
		C185.135,69.273,185.191,69.662,185.281,70.038z"/>
	<path style="fill:#030200;" d="M186.847,124.997c-0.287-0.921-0.578-1.841-0.859-2.763c-2.765-9.044-6.595-17.597-11.815-25.502
		c-3.706-5.611-8.034-10.683-13.182-15.034c-4.658-3.936-9.792-7.086-15.449-9.375c-0.216-0.087-0.432-0.176-0.843-0.344
		c0.624-0.103,1.025-0.031,1.425,0.031c3.493,0.537,6.806,1.662,10.018,3.103c5.054,2.268,9.667,5.25,14.011,8.665
		c5.445,4.281,10.338,9.136,14.839,14.387c1.811,2.113,3.533,4.302,5.296,6.456c-0.054,0.932-0.077,1.868-0.167,2.796
		c-0.127,1.32-0.304,2.635-0.458,3.952c-0.313,2.667-0.781,5.309-1.383,7.925C187.839,121.205,187.327,123.097,186.847,124.997z"/>
	<path style="fill:#040301;" d="M161.381,33.434c-0.085-0.024-0.184-0.027-0.255-0.073c-5.473-3.579-11.441-5.995-17.773-7.544
		c-4.479-1.096-9.03-1.673-13.637-1.884c-3.392-0.155-6.774-0.059-10.157,0.184c-8.607,0.62-16.986,2.409-25.238,4.864
		c-0.402,0.12-0.8,0.254-1.205,0.364c-0.062,0.017-0.151-0.063-0.293-0.128c2.185-1.237,4.373-2.334,6.611-3.329
		c6.019-2.676,12.26-4.643,18.734-5.856c3.871-0.725,7.78-1.131,11.721-1.22c4.125-0.093,8.221,0.214,12.292,0.879
		c0.089,0.015,0.176,0.043,0.264,0.065c0.387,0.163,0.794,0.291,1.158,0.493c4.268,2.371,8.326,5.062,12.135,8.116
		c1.723,1.381,3.37,2.855,5.048,4.292C161.037,32.872,161.303,33.083,161.381,33.434z"/>
	<path style="fill:#F9DB28;" d="M178.681,55.234c-0.051-0.064-0.103-0.126-0.154-0.19C178.579,55.108,178.63,55.17,178.681,55.234z"
		/>
	<path style="fill:#020200;" d="M106.766,102.951c-0.04-0.233-0.094-0.464-0.118-0.699c-0.201-1.986-0.343-3.979-0.604-5.957
		c-0.698-5.306-1.964-10.453-4.408-15.259c-1.28-2.517-2.858-4.843-4.555-7.093c-1.276-1.691-2.576-3.363-3.835-5.069
		c-1.681-2.278-2.923-4.789-3.973-7.415c-0.776-1.941-0.836-3.882-0.38-5.871c0.215-0.938,0.514-1.859,0.79-2.842
		c-0.158,0.009-0.327-0.005-0.485,0.03c-1.137,0.253-2.16,0.771-3.141,1.382c-1.911,1.19-3.618,2.641-5.221,4.21
		c-1.059,1.037-2.065,2.129-3.095,3.194c-0.14,0.145-0.287,0.283-0.516,0.508c-0.046-0.472-0.077-0.821-0.116-1.169
		c-0.037-0.331-0.084-0.66-0.124-0.99c-0.263-2.225-0.623-4.43-1.276-6.578c-0.371-1.219-0.843-2.396-1.504-3.49
		c-1.567-2.596-3.868-3.911-6.904-3.963c-1.752-0.03-3.421,0.364-5.063,0.919c-2.618,0.885-5.097,2.08-7.476,3.471
		c-1.931,1.129-3.81,2.349-5.714,3.528c-0.272,0.168-0.505,0.468-0.931,0.274c3.637-4.523,7.711-8.513,12.912-11.216
		c2.684-1.395,5.516-2.345,8.525-2.659c5.159-0.54,9.993,0.489,14.44,3.205c0.128,0.078,0.259,0.153,0.426,0.25
		c0.211-0.074,0.439-0.145,0.659-0.234c3.26-1.323,6.601-2.367,10.069-2.987c3.325-0.595,6.668-0.832,10.033-0.431
		c1.957,0.233,3.881,0.626,5.713,1.387c0.223,0.093,0.442,0.193,0.658,0.301c0.045,0.022,0.063,0.096,0.117,0.187
		c-0.25,0.151-0.498,0.306-0.751,0.452c-2.636,1.511-5.108,3.245-7.294,5.367c-1.594,1.547-2.988,3.252-4.044,5.218
		c-0.634,1.181-1.171,2.417-1.278,3.755c-0.157,1.962-0.136,3.927,0.399,5.855c0.626,2.254,1.538,4.394,2.573,6.48
		c0.914,1.842,1.851,3.674,2.844,5.474c1.776,3.218,2.837,6.66,3.41,10.273c0.485,3.062,0.625,6.141,0.485,9.23
		C107.874,97.004,107.533,100.007,106.766,102.951z"/>
	<path style="fill:#040301;" d="M55.573,66.406c-0.116-0.261-0.208-0.481-0.311-0.695c-0.53-1.104-0.861-2.265-0.92-3.486
		c-0.078-1.608,0.388-3.047,1.499-4.243c0.729-0.784,1.6-1.368,2.632-1.823c0.027,0.276-0.159,0.412-0.23,0.589
		c-0.223,0.559-0.53,1.099-0.658,1.679c-0.302,1.363,0.071,2.574,1.027,3.598c0.607,0.65,1.335,1.136,2.119,1.541
		c1.572,0.811,3.252,1.318,4.979,1.636c1.812,0.334,3.641,0.579,5.486,0.867c-0.101,0.286-0.455,0.263-0.7,0.355
		c-4.784,1.788-9.586,3.528-14.359,5.346c-6.186,2.357-12.335,4.807-18.341,7.601c-0.329,0.153-0.66,0.303-0.985,0.464
		c-0.22,0.109-0.434,0.164-0.723-0.005C41.755,74.134,48.156,69.564,55.573,66.406z"/>
	<path style="fill:#F8DB28;" d="M20.588,116.507c0.377,0.285,0.591,0.45,0.809,0.611c2.808,2.083,5.917,3.498,9.344,4.215
		c2.666,0.558,5.282,1.286,7.791,2.361c2.722,1.167,5.203,2.696,7.275,4.839c1.398,1.446,2.517,3.079,3.381,5.01
		c-0.259-0.015-0.448-0.008-0.631-0.039c-1.61-0.265-3.212-0.588-4.829-0.793c-1.678-0.213-3.367-0.362-5.056-0.451
		c-1.666-0.087-3.323,0.151-4.962,0.431c-3.037,0.518-6.064,1.098-9.1,1.63c-0.981,0.172-1.964,0.295-2.974,0.115
		c-1.972-0.351-3.304-1.719-3.527-3.717c-0.133-1.187-0.045-2.355,0.371-3.484c0.209-0.567,0.422-1.132,0.637-1.696
		c0.836-2.194,1.272-4.467,1.372-6.809C20.519,118.045,20.55,117.36,20.588,116.507z"/>
</g>
<path style="fill:#010100;" d="M93.5,3.996"/>
</svg>
