<?xml version="1.0" encoding="utf-8"?>
<!-- Generator: Adobe Illustrator 24.1.2, SVG Export Plug-In . SVG Version: 6.00 Build 0)  -->
<svg version="1.1" id="Layer_1" xmlns="http://www.w3.org/2000/svg" xmlns:xlink="http://www.w3.org/1999/xlink" x="0px" y="0px"
	 viewBox="0 0 200 200" style="enable-background:new 0 0 200 200;" xml:space="preserve">
<path style="fill:#838484;" d="M102.075,2.011c1.281,0.224,2.568,0.419,3.842,0.681c2.41,0.496,4.826,0.982,7.216,1.566
	c2.788,0.679,5.559,1.426,8.32,2.199c4.636,1.301,9.293,2.543,13.877,4.012c4.236,1.358,8.42,2.889,12.567,4.503
	c6.2,2.41,12.42,4.79,18.493,7.496c5.53,2.464,10.918,5.259,16.282,8.069c4.53,2.374,8.938,4.978,13.404,7.471
	c0.188,0.104,0.636,0.262,0.586,0.48c-0.26,1.161-0.362,1.896-0.681,2.96c-0.45,2.077-0.767,4.184-1.134,6.279
	c-0.315,1.801-0.602,3.605-0.95,5.399c-0.181,0.935-0.496,1.842-0.699,2.774c-0.319,1.446-0.584,2.903-0.896,4.351
	c-0.582,2.702-1.122,5.415-1.783,8.096c-0.858,3.471-1.754,6.935-2.747,10.37c-0.987,3.403-2.052,6.786-3.197,10.139
	c-1.378,4.028-2.797,8.046-4.344,12.01c-1.636,4.191-3.362,8.354-5.209,12.456c-1.618,3.598-3.326,7.168-5.227,10.623
	c-2.806,5.098-5.716,10.146-8.777,15.095c-2.211,3.573-4.709,6.969-7.139,10.402c-3.213,4.541-6.775,8.804-10.467,12.963
	c-1.573,1.772-3.1,3.586-4.725,5.306c-1.419,1.502-2.935,2.912-4.428,4.342c-1.597,1.534-3.188,3.08-4.838,4.555
	c-2.014,1.801-4.068,3.559-6.141,5.295c-2.043,1.711-4.071,3.446-6.211,5.028c-3.528,2.607-7.128,5.118-10.723,7.63
	c-1.595,1.113-3.24,2.154-4.894,3.181c-0.337,0.21-0.806,0.213-1.213,0.31c-0.45-1.312-0.371-2.629-0.032-3.946
	c0.484-0.871,1.378-1.258,2.159-1.765c4.326-2.817,8.521-5.813,12.603-8.976c2.885-2.236,5.741-4.507,8.442-6.965
	c0.197-0.179,0.423-0.315,0.674-0.405c0.272-0.068,0.432-0.272,0.588-0.486c4.041-3.681,7.877-7.573,11.71-11.463
	c3.704-3.761,7.08-7.815,10.384-11.931c4.915-6.123,9.356-12.581,13.411-19.296c2.67-4.419,5.188-8.929,7.49-13.558
	c2.686-5.403,5.281-10.847,7.499-16.461c2.964-7.503,5.664-15.097,7.942-22.844c1.767-6.007,3.376-12.051,4.774-18.149
	c1.532-6.684,2.862-13.411,3.994-20.177c0.061-0.367,0.156-0.742,0.002-1.172c-0.462-0.62-1.222-0.914-1.894-1.31
	c-5.195-3.071-10.537-5.879-15.95-8.535c-8.259-4.053-16.706-7.691-25.315-10.954c-7.901-2.994-15.923-5.609-24.001-8.073
	c-5.811-1.772-11.716-3.159-17.617-4.568c-1.901-0.455-3.819-0.88-5.765-1.14c-0.491-0.066-0.977-0.158-1.231-0.674
	c-0.091-1.251-1.111-3.433,0.38-3.367c0.611,0.027,0.778,0.018,1.588,0.17L102.075,2.011z"/>
<path style="fill:#9FA19F;" d="M100.538,193.891c-0.1,1.387-0.197,2.776-0.296,4.163c-1.106-0.62-2.258-1.17-3.31-1.871
	c-2.559-1.706-5.08-3.471-7.598-5.238c-1.903-1.335-3.817-2.663-5.657-4.08c-1.749-1.349-3.41-2.81-5.111-4.22
	c-1.733-1.435-3.532-2.797-5.191-4.313c-2.808-2.564-5.58-5.17-8.27-7.856c-2.586-2.579-5.111-5.227-7.546-7.949
	c-2.589-2.892-4.98-5.965-7.465-8.947c-1.03-1.235-2.014-2.505-2.96-3.804c-1.659-2.281-3.274-4.596-4.797-6.967
	c-2.577-4.012-5.168-8.024-7.567-12.144c-2.987-5.13-5.741-10.39-8.144-15.828c-1.407-3.188-2.966-6.315-4.258-9.549
	c-1.668-4.172-3.161-8.417-4.679-12.649c-0.996-2.774-1.971-5.559-2.824-8.381c-1.278-4.227-2.514-8.467-3.632-12.739
	c-1.077-4.111-2.025-8.259-2.948-12.409c-0.636-2.853-1.136-5.738-1.695-8.61c-0.486-2.496-0.996-4.985-1.457-7.485
	c-0.283-1.539-0.493-3.089-0.765-4.815c1.073-0.636,2.281-1.376,3.509-2.079c2.708-1.554,5.369-3.197,8.15-4.611
	c5.698-2.896,11.411-5.77,17.208-8.458c5.007-2.322,10.128-4.401,15.221-6.528c1.693-0.706,3.462-1.233,5.197-1.837
	c4.514-1.57,9.008-3.204,13.551-4.691c3.686-1.206,7.419-2.27,11.153-3.324c2.086-0.588,4.218-1.02,6.324-1.541
	c1.903-0.471,3.79-1.016,5.704-1.437c2.152-0.475,4.331-0.839,6.492-1.274C97.527,2.294,98.171,2.122,98.821,2
	c0.568-0.106,0.919-0.165,1.496-0.158v3.516c-0.229,0.423-0.654,0.464-1.061,0.545c-9.92,1.969-19.699,4.485-29.343,7.521
	c-5.826,1.835-11.562,3.924-17.31,5.989c-7.177,2.582-14.162,5.607-21.064,8.827C24.156,31.682,17.01,35.587,9.91,39.579
	c-1.018,0.572-1.043,1.33-0.901,2.285c0.627,4.213,1.548,8.372,2.374,12.547c1.159,5.845,2.539,11.642,4.048,17.403
	c1.118,4.265,2.34,8.506,3.704,12.703c0.222,0.681,0.557,1.134,1.337,1.134c0.335,0,0.686,0.032,0.912,0.348
	c0.057,0.939-0.815,0.45-1.186,0.772c-0.19,0.328,0.133,0.597,0.147,0.91c-0.034,0.905,0.299,1.672,0.889,2.342
	c0.296,0.708,0.717,1.378,0.717,2.184c-0.163,0.946,0.233,1.788,0.543,2.625c1.597,4.313,3.356,8.56,5.193,12.775
	c2.045,4.697,4.134,9.379,6.546,13.9c4.331,8.116,9.037,16.006,14.434,23.469c3.976,5.496,8.184,10.809,12.732,15.846
	c2.374,2.629,4.765,5.243,7.304,7.709c3.838,3.724,7.766,7.361,11.909,10.743c5.718,4.67,11.601,9.128,17.848,13.085
	c0.722,0.457,1.484,0.889,2.079,1.534H100.538z"/>
<path style="fill:#F6F6F8;" d="M100.561,193.937c-1.432-0.889-2.901-1.724-4.288-2.677c-2.72-1.864-5.431-3.749-8.08-5.713
	c-2.197-1.631-4.322-3.36-6.435-5.1c-2.722-2.24-5.399-4.534-8.094-6.806c-0.086-0.072-0.167-0.152-0.249-0.231
	c-2.301-2.222-4.679-4.374-6.888-6.686c-2.672-2.799-5.234-5.704-7.781-8.616c-2.075-2.374-4.12-4.777-6.06-7.261
	c-1.914-2.453-3.774-4.958-5.487-7.553c-3.161-4.792-6.227-9.648-9.268-14.518c-1.05-1.683-1.921-3.482-2.846-5.24
	c-1.258-2.394-2.582-4.758-3.718-7.211c-1.894-4.089-3.702-8.218-5.471-12.363c-1.269-2.971-2.421-5.992-3.609-8.997
	c-0.262-0.663-0.477-1.346-0.647-2.036c-0.048-0.195-2.62-7.171-2.405-7.279c3.005-1.548,5.569,5.582,4.304,6.652
	c-1.179,0.998,3.03,0.595,4.562,0.808c0.362,0.05,0.76,0.072,1.036,0.532c-0.174,0.69-0.778,0.753-1.373,0.796
	c-1.389,0.1-2.738,0.457-4.195,0.543c0.011,0.982,0.396,1.713,0.898,2.444c2.507-0.197,4.476-5.655,6.958-5.759
	c0.683,0.147,1.894,4.838,2.394,5.483c1.948,3.991,3.756,8.053,5.84,11.983c3.874,7.304,8.159,14.346,12.983,21.061
	c3.611,5.023,7.449,9.865,11.612,14.438c4.568,5.016,9.393,9.77,14.529,14.226c5.335,4.63,10.967,8.849,16.794,12.823
	c1.308,0.892,2.67,1.704,3.996,2.566c0.686,0.446,1.256,0.324,1.88-0.07c2.236-1.403,4.421-2.88,6.596-4.376
	c5.598-3.849,10.909-8.073,15.975-12.587c3.853-3.433,7.496-7.089,11.008-10.884c4.254-4.6,8.275-9.386,11.974-14.434
	c5.645-7.705,10.723-15.767,14.995-24.322c0.326-0.654,0.88-1.063,1.238-1.828c0.932-1.989,0.656-1.405,1.321-2.971
	c0.285-0.674,0.434-1.376,0.76-2.025c0.147-0.21,0.333-0.398,0.385-0.665c0.262-0.785,0.701-1.493,0.998-2.263
	c0.12-0.208,0.299-0.387,0.33-0.64c0.038-0.192,0.079-0.382,0.174-0.557c0.247-0.301,0.496-0.6,0.509-1.018
	c0.05-0.36,0.147-0.706,0.353-1.011c0.158-0.204,0.31-0.407,0.33-0.679c0.396-1.328,1.12-2.525,1.509-3.853
	c0.722-1.063,1.079-2.276,1.405-3.5c0.378-1.509,1.088-2.901,1.514-4.392c0.738-1.192,1-2.559,1.419-3.869
	c0.048-0.38,0.158-0.742,0.312-1.091c0.079-0.195,0.149-0.391,0.172-0.602c0.059-0.541,0.317-1.011,0.523-1.5
	c0.086-0.204,0.131-0.416,0.156-0.634c1-3.598,1.978-7.2,2.908-10.814c1.478-5.736,2.632-11.542,3.702-17.364
	c0.041-0.224,0.054-0.45-0.052-0.756c-1.566-1.303-3.378-2.365-5.225-3.378c-8.166-4.487-16.525-8.582-25.01-12.429
	c-5.668-2.57-11.372-5.053-17.156-7.343c-3.887-1.539-7.922-2.693-11.911-3.96c-5.643-1.794-11.341-3.396-17.068-4.901
	c-1.496-0.394-3.016-0.683-4.51-1.079c-0.529-0.14-1.043-0.059-1.564,0.063c-7.865,1.831-15.579,4.193-23.304,6.53
	c-8.327,2.518-16.285,5.955-24.227,9.429c-7.6,3.324-15.049,6.969-22.414,10.795c-2.073,1.077-4.039,2.351-6.186,3.281
	c-0.419,0.075-0.792,0.244-1.088,0.561c-1.113,0.425-1.81,1.496-2.939,1.898c-0.21,0.059-0.428,0.106-0.582,0.281
	c-0.05,0.066-0.1,0.133-0.14,0.204c-0.079,0.183,0.045,0.321,0.104,0.475c0.048,0.14,0.054,0.281,0.034,0.428
	c-0.084,0.305-0.061,0.591,0.147,0.842c0.066,0.129,0.091,0.267,0.081,0.412c-0.036,0.222-0.043,0.441,0.027,0.661
	c0.045,0.181,0.07,0.364,0.095,0.548c0.029,0.19,0.084,0.373,0.136,0.559c0.063,0.24,0.079,0.489,0.124,0.731
	c2.306,10.777,4.734,21.842,8.678,32.278c0.244,0.887,2.426,6.012,2.055,7.044c-0.183,0.267-0.509,0.011-0.803,0.158
	c-2.023,0.536-5.428-3.39-7.49-3.188c-0.188,0.018-0.353-0.097-0.484-0.24c-0.62-0.086-1.24-0.174-2.066-0.29
	c-4.795-14.816-8.22-30.047-10.816-45.569c0.369-0.278,0.692-0.595,1.075-0.801c4.964-2.686,9.92-5.39,14.911-8.026
	c8.63-4.559,17.586-8.406,26.714-11.834c5.695-2.141,11.474-4.071,17.258-5.96c4.462-1.455,8.978-2.751,13.497-4.016
	c3.36-0.941,6.754-1.772,10.155-2.559c2.482-0.575,5.001-1,7.503-1.498c0.258-0.052,0.505-0.149,0.756-0.226
	c1.837,0.38,3.684,0.713,5.507,1.147c4.937,1.174,9.906,2.247,14.787,3.629c6.259,1.774,12.515,3.602,18.638,5.783
	c7.474,2.663,14.846,5.63,22.19,8.641c4.491,1.844,8.915,3.885,13.244,6.087c5.607,2.849,11.087,5.944,16.62,8.94
	c0.36,0.195,0.69,0.446,1.077,0.699c-0.317,1.883-0.563,3.74-0.946,5.571c-1.469,7.026-2.88,14.065-4.501,21.057
	c-1.817,7.847-4.116,15.57-6.761,23.182c-1.319,3.797-2.779,7.544-4.2,11.305c-2.41,6.381-5.331,12.531-8.388,18.624
	c-3.111,6.2-6.594,12.18-10.338,18.011c-3.313,5.159-6.879,10.146-10.766,14.886c-2.5,3.048-5.064,6.053-7.754,8.933
	c-3.444,3.688-7.026,7.245-10.578,10.829c-1.079,1.088-2.256,2.082-3.387,3.118c-0.181,0.12-0.312,0.308-0.52,0.394
	c-0.977,0.815-1.939,1.654-2.939,2.441c-3.136,2.473-6.259,4.969-9.445,7.376c-2.532,1.912-5.139,3.729-7.734,5.553
	c-1.165,0.819-2.389,1.554-3.586,2.326L100.561,193.937z"/>
<path style="fill:#9FA19F;" d="M124.24,176.192c0.174-0.131,0.346-0.262,0.52-0.394C124.586,175.93,124.414,176.061,124.24,176.192z
	"/>
<path style="fill:#081E57;" d="M21.327,86.141c1.776-0.167,3.552-0.321,5.326-0.511c0.473-0.05,1.07-0.102,1.536-0.215
	c0.274,0.878,0.274,0.964,0.536,1.532c0.382,0.993,0.561,1.521,0.941,2.514c-0.459,0.835-1.027,0.812-1.738,1.276
	c-0.398,0.26-0.905,0.339-1.301,0.74c1.602,0.507,2.912,0.423,4.396,1.211c0.387,1.009,0.738,1.862,1.111,2.799
	c0.278,0.701,0.683,1.075-0.17,1.122c-2.552,0.419-5.105,0.839-7.845,1.287c-0.43-1.02-0.894-2.129-1.369-3.258
	c2.159-0.272,4.157-0.523,6.157-0.774c0-0.093,0.005-0.186,0.005-0.278c-1.441-0.265-2.887-0.518-4.326-0.796
	c-0.919-0.176-1.828-0.389-2.745-0.586c-0.244-0.726-0.489-1.453-0.731-2.179c0.165-0.541,0.679-0.661,1.097-0.878
	c1.161-0.597,2.315-1.208,3.509-1.772c-1.48,0.229-2.998,0.075-4.458,0.505c-0.358,0.104-0.729,0.201-1.073-0.054
	c-0.165-0.468-0.33-0.937-0.491-1.392c0.606-0.109,1.12-0.201,1.631-0.292L21.327,86.141z"/>
<path style="fill:#F6F6F8;" d="M20.187,87.822c2.125-0.303,4.249-0.609,6.372-0.912c0.027,0.106,0.054,0.213,0.081,0.317
	c-1.842,0.932-3.686,1.864-5.528,2.794c-0.692-0.339-1.113-1.344-0.925-2.202L20.187,87.822z"/>
<path style="fill:#081E57;" d="M24.405,71.825c-2.045-7.175-3.738-14.425-5.197-21.72c-0.041-0.276-0.084-0.552-0.124-0.828
	c-0.007-0.183-0.106-0.339-0.145-0.514c-0.032-0.206-0.061-0.412-0.093-0.618c-0.007-0.147-0.027-0.294-0.063-0.437
	c-0.025-0.138-0.048-0.274-0.072-0.412c-0.12-0.303-0.075-0.634-0.158-0.944c-0.025-0.138-0.052-0.274-0.077-0.412
	c-0.079-0.265-0.066-0.52,0.081-0.763l0.023-0.023c0.183-0.102,0.339-0.249,0.527-0.344c1.03-0.649,2.059-1.299,3.089-1.95
	c0.346-0.147,0.663-0.346,0.975-0.552c6.883-3.505,13.694-7.161,20.668-10.472c8.607-4.089,17.287-8.048,26.32-11.146
	c8.155-2.799,16.405-5.292,24.752-7.451c1.677-0.434,3.365-0.839,5.057-1.206c0.382-0.084,0.828-0.016,1.215,0.088
	c6.035,1.629,12.092,3.177,18.086,4.946c5.231,1.545,10.492,3.08,15.558,5.082c12.411,4.903,24.562,10.413,36.371,16.649
	c2.867,1.514,5.709,3.071,8.533,4.661c0.91,0.511,1.722,1.195,2.722,1.903c-1.663,9.838-3.973,19.604-6.849,29.239
	c-0.084,0.147-0.17,0.292-0.172,0.468c-0.167,0.523-0.335,1.045-0.502,1.568c-0.086,0.147-0.174,0.292-0.176,0.468
	c-0.113,0.362-0.229,0.726-0.342,1.088c-0.428,1.328-0.987,2.613-1.292,3.98l-1.607,4.41c-0.484,1.154-1.009,2.292-1.312,3.514
	c-0.541,1.319-1.084,2.636-1.625,3.955c-0.095,0.181-0.215,0.348-0.238,0.559c-0.145,0.342-0.29,0.686-0.434,1.027
	c-0.767,1.661-1.48,3.423-2.26,5.089c-0.296,0.638-0.593,1.276-0.889,1.914c-0.561,1.063-0.937,1.76-1.568,3.163
	c-3.473,7.121-7.469,13.941-11.909,20.493c-6.487,9.578-13.857,18.43-22.177,26.483c-8.426,8.157-17.593,15.364-27.542,21.575
	c-0.348,0.217-0.69,0.443-1.147,0.738c-30.436-18.916-52.346-45.116-66.759-77.772c-0.808-1.462-1.337-3.052-2.077-4.546
	c-0.64-1.061-0.98-2.24-1.421-3.394c-0.625-1.638-0.941-2.747-1.453-4.36c-0.283-0.894-0.631-1.767-0.946-2.652
	c-1.143-3.514-2.312-7.008-3.349-10.547L24.405,71.825z"/>
<path style="fill:#081E57;" d="M62.783,154.452c-0.016-0.075,0.07-0.124,0.129-0.077c3.154,2.638,6.284,5.308,9.465,7.913
	c8.411,6.885,17.117,13.327,27.01,17.993c0.658,0.31,1.423,0.299,2.084-0.009c7.573-3.546,14.479-8.159,21.043-13.282
	c4.854-3.788,9.537-7.793,14.3-11.696c0.19-0.156,0.353-0.238,0.586-0.382c0.158-0.097,0.446-0.342,0.67-0.158
	c-1.373,1.489-2.736,2.989-4.123,4.464c-6.96,7.399-14.318,14.361-22.713,20.131c-3.224,2.215-6.637,4.157-9.967,6.218
	c-0.242,0.149-0.514,0.256-0.833,0.41c-0.025,0.011-0.052,0.011-0.075,0c-0.638-0.337-1.294-0.665-1.935-1.027
	c-7.223-4.066-13.832-8.972-20.027-14.466c-5.453-4.838-10.447-10.128-15.439-15.425c-0.041-0.045-0.07-0.1-0.084-0.158
	l-0.093-0.446L62.783,154.452z"/>
<path style="fill:#081E57;" d="M155.149,24.477c11.327,4.521,31.09,14.511,34.312,17.387c-2.401,12.042-5.315,24.021-9.245,35.74
	c-0.251,0.027-0.378-0.104-0.419-0.337c3.003-10.866,4.374-22.012,5.797-33.266c-12.327-7.324-24.612-14.624-36.898-21.923
	c1.432,0.502,2.865,1.007,4.299,1.509c0.188,0.077,0.362,0.19,0.566,0.233c0.188,0.075,0.376,0.149,0.566,0.224
	c0.355,0.115,0.638,0.398,1.027,0.437L155.149,24.477z"/>
<path style="fill:#081E57;" d="M48.014,24.57c-10.843,6.453-21.686,12.907-32.653,19.432c1.24,9.89,2.455,19.785,4.801,29.504
	c0.02,0.172,0.081,0.333,0.122,0.498l0.548,2.193c-0.197,0.152-0.371,0.645-0.561,0.473c-3.724-11.243-6.433-23.236-8.827-34.871
	c10.696-6.971,22.134-12.253,33.794-17.102c0.21-0.016,0.382-0.133,0.568-0.219c0.342-0.147,0.681-0.292,1.023-0.439
	c0.204-0.036,0.38-0.147,0.568-0.222l2.453-1.011c0.24,0.091,0.36,0.253,0.317,0.518c-0.541,0.312-1.084,0.622-1.625,0.935
	c-0.201,0.063-0.36,0.197-0.525,0.317L48.014,24.57z"/>
<path style="fill:#081E57;" d="M151.655,133.975c0.839,2.05,1.679,4.1,2.557,6.245c-0.441,0.613-0.896,1.244-1.444,2.005
	c-1.799-1.095-3.541-2.159-5.286-3.22c-0.079,0.079-0.161,0.158-0.24,0.238c1.308,1.629,2.618,3.256,3.996,4.971
	c-0.278,0.373-0.606,0.815-0.932,1.249c-1.855-2.396-3.666-4.731-5.535-7.143c0.749-1.007,1.597-2.147,2.525-3.394
	c1.317,0.76,2.602,1.502,3.887,2.245c0.084-0.05,0.167-0.097,0.251-0.147c-0.69-1.661-1.38-3.322-2.088-5.028
	c0.767-1.152,1.532-2.301,2.319-3.48c2.034,2.233,4.003,4.392,6.071,6.664c-0.64,0.934-1.349,1.971-2.093,3.059
	c-1.097-1.659-2.421-3.039-3.647-4.507c-0.113,0.081-0.226,0.165-0.342,0.247L151.655,133.975z"/>
<path style="fill:#081E57;" d="M52.872,138.726c0.491-0.109,0.849-0.188,1.344-0.299c1.292,1.774,2.611,3.552,3.89,5.358
	c0.464,0.656,0.192,1.249-0.425,1.638c-0.539,0.337-1.131,0.591-1.711,0.86c-0.914,0.428-1.837,0.837-2.966,1.349
	c-0.505-0.849-1.039-1.756-1.586-2.654c-0.091-0.149-0.269-0.242-0.38-0.38c-0.815-1.03-1.674-2.027-2.417-3.107
	c-0.443-0.647-0.217-1.17,0.48-1.602c1.801-1.116,2.994-0.889,4.256,0.806c0.428,0.575,0.833,1.165,1.283,1.722
	c0.206,0.256,0.498,0.443,0.892,0.541c-0.561-1.57-1.776-2.702-2.659-4.229L52.872,138.726z"/>
<path style="fill:#081E57;" d="M170.359,99.106c-0.609,1.523-1.217,3.046-1.889,4.725c-0.38-0.416-0.667-0.733-0.95-1.043
	c0.738-2.009,1.419-3.955,2.172-5.874c0.453-1.149,1.138-1.373,2.238-0.729c1.29,0.758,2.525,1.609,3.91,2.503
	c-0.416,1.025-0.842,2.068-1.45,3.562c-0.066,1.048-0.751,2.428-1.43,3.799c-0.269,0.543-0.796,0.729-1.335,0.369
	c-0.62-0.414-1.303-0.821-1.738-1.396c-0.31-0.412-0.443-1.138-0.33-1.654c0.224-1.018,0.692-1.978,1.02-2.975
	c0.122-0.371,0.138-0.776,0.204-1.163c-0.14-0.041-0.283-0.084-0.423-0.124L170.359,99.106z"/>
<path style="fill:#081E57;" d="M29.749,107.356c-0.803,0.034-1.453-0.276-1.792-0.977c-0.916-1.894-1.799-3.804-2.636-5.734
	c-0.31-0.717-0.009-1.278,0.787-1.446c1.285-0.272,2.591-0.473,3.896-0.609c0.821-0.084,1.446,0.367,1.803,1.116
	c0.821,1.731,1.652,3.46,2.43,5.211c0.385,0.864,0.131,1.378-0.738,1.665c-0.462,0.154-0.946,0.251-1.426,0.346
	c-0.774,0.154-1.552,0.283-2.328,0.423L29.749,107.356z"/>
<path style="fill:#081E57;" d="M45.233,134.343c0.946,1.405,1.864,2.767,2.894,4.295c-0.502,0.115-0.901,0.208-1.389,0.321
	c-1.324-1.993-2.647-3.91-3.885-5.883c-0.511-0.815-0.244-1.421,0.69-1.776c1.054-0.401,2.131-0.747,3.215-1.054
	c0.665-0.19,1.437-0.256,1.894,0.36c1.383,1.867,2.69,3.786,4,5.648c-0.715,1.575-2.168,1.53-3.34,2.206
	c-0.944-1.367-1.867-2.684-2.765-4.016c-0.321-0.475-0.629-0.753-1.312-0.1L45.233,134.343z"/>
<path style="fill:#081E57;" d="M33.114,116.712c-0.559-1.066-1.125-2.15-1.697-3.238c1.69-0.31,3.265-0.6,5.102-0.937
	c-0.373-0.769-0.681-1.396-1.052-2.159c-1.713,0.407-3.301,0.787-5.023,1.197c-0.473-0.95-0.998-2.009-1.507-3.034
	c2.163-0.45,4.236-0.882,6.415-1.335c0.367,0.876,1.159,1.758,1.233,2.555c0.808,1.554,1.534,2.772,2.073,4.066
	c0.312,0.749-0.26,1.301-0.948,1.554c-0.738,0.274-1.516,0.441-2.274,0.658c-0.717,0.206-1.435,0.416-2.324,0.677L33.114,116.712z"
	/>
<path style="fill:#081E57;" d="M168.96,112.411c0.371,0.432,0.609,0.708,0.914,1.061c-0.679,1.394-1.303,2.797-2.039,4.139
	c-0.502,0.919-1.174,0.984-2.059,0.278c-0.839-0.67-1.634-1.398-2.5-2.147c-0.287,0.405-0.493,0.695-0.76,1.073
	c-0.33-0.276-0.602-0.502-0.919-0.767c0.167-0.416,0.319-0.787,0.5-1.233c-0.272-0.303-0.563-0.629-0.885-0.989
	c0.419-0.91,0.835-1.815,1.29-2.806c0.403,0.251,0.706,0.437,1.097,0.681c0.378-0.744,0.726-1.43,1.116-2.202
	c0.358,0.265,0.645,0.48,1.02,0.758c-0.342,0.781-0.67,1.523-1.066,2.428c0.894,0.769,1.812,1.559,2.874,2.473
	c0.493-0.953,0.91-1.763,1.419-2.747L168.96,112.411z"/>
<path style="fill:#081E57;" d="M39.194,117.45c-0.197-0.491-0.319-0.794-0.486-1.211c0.419-0.109,0.758-0.199,1.138-0.299
	c0.267,0.364,0.505,0.69,0.781,1.068c0.376-0.048,0.774-0.1,1.276-0.163c0.5,0.824,1.014,1.67,1.568,2.579
	c-0.455,0.219-0.778,0.378-1.181,0.572c0.378,0.681,0.735,1.33,1.145,2.07c-0.376,0.172-0.704,0.319-1.143,0.52
	c-0.477-0.756-0.928-1.471-1.428-2.265c-1.168,0.308-2.31,0.609-3.634,0.957c0.482,0.916,0.889,1.693,1.378,2.622
	c-0.462,0.097-0.83,0.176-1.312,0.278c-0.774-1.373-1.577-2.681-2.254-4.05c-0.432-0.876-0.084-1.462,0.93-1.778
	C36.997,118.032,38.042,117.771,39.194,117.45L39.194,117.45z"/>
<path style="fill:#081E57;" d="M163.446,125.913c-0.529,0.907-1.127,1.935-1.765,3.028c-2.12-2.17-4.177-4.277-6.329-6.48
	c0.434-0.758,0.966-1.69,1.573-2.745C159.131,121.81,161.242,123.817,163.446,125.913L163.446,125.913z"/>
<path style="fill:#081E57;" d="M56.268,151.622c-0.656-0.826-1.389-1.751-2.118-2.668c2.747-1.231,5.401-2.421,8.211-3.679
	c0.543,0.661,1.224,1.489,2.032,2.475C61.665,149.051,59.02,150.311,56.268,151.622L56.268,151.622z"/>
<path style="fill:#081E57;" d="M44.423,123.616c0.292,0.923,1.426,1.564,1.231,2.718c0.679,0.787,1.364,1.584,2.181,2.527
	c-0.756,0.296-1.263,0.496-1.812,0.71c-0.301-0.539-0.582-1.052-0.873-1.559c-0.441-0.767-1.086-1.002-1.921-0.71
	c-1.061,0.369-2.125,0.74-3.324,1.159c-0.568-0.923-1.186-1.932-1.803-2.942c2.109-0.634,4.136-1.244,6.324-1.903H44.423z"/>
<path style="fill:#081E57;" d="M159.31,119.55c0.468-0.876,0.973-1.819,1.536-2.874c1.772,1.525,3.437,2.96,5.204,4.482
	c-0.509,0.939-1.091,2.009-1.661,3.061C162.693,122.661,161.073,121.172,159.31,119.55L159.31,119.55z"/>
<path style="fill:#081E57;" d="M171.961,108.691c-0.439,1.016-0.912,2.111-1.385,3.204c-1.81-1.403-3.595-2.79-5.469-4.243
	c0.378-0.876,0.803-1.858,1.287-2.98c1.88,1.358,3.657,2.638,5.566,4.016V108.691z"/>
<path style="fill:#081E57;" d="M160.711,130.542c-0.622,0.977-1.278,2.012-1.896,2.982c-1.568-1.665-3.093-3.285-4.745-5.041
	c0.466-0.751,1.045-1.683,1.702-2.742c1.679,1.631,3.252,3.159,4.94,4.799L160.711,130.542z"/>
<path style="fill:#081E57;" d="M20.253,76.185c0.195,0.005,0.387,0.007,0.582,0.011c0.195,0.511,0.403,1.016,0.579,1.534
	c0.57,1.67,1.134,3.34,1.69,5.014c0.072,0.217,0.084,0.457-0.068,0.769c-0.145-0.183-0.344-0.348-0.423-0.557
	c-0.787-2.07-1.559-4.148-2.322-6.225C20.23,76.567,20.264,76.368,20.253,76.185L20.253,76.185z"/>
<path style="fill:#081E57;" d="M158.785,119.014c-0.41-0.453-0.654-0.724-0.93-1.03c0.468-0.892,0.919-1.747,1.437-2.729
	c0.355,0.333,0.64,0.6,0.993,0.932c-0.482,0.907-0.948,1.785-1.498,2.826H158.785z"/>
<path style="fill:#081E57;" d="M152.689,126.879c0.563-0.916,1.05-1.713,1.629-2.656c0.346,0.371,0.627,0.67,0.93,0.993
	c-0.557,0.907-1.061,1.729-1.64,2.672C153.275,127.521,153.013,127.234,152.689,126.879z"/>
<path style="fill:#081E57;" d="M177.909,83.824c-0.143-0.853,1.229-5.322,1.885-6.557c0.14,0.113,0.281,0.226,0.419,0.337"/>
<path style="fill:#081E57;" d="M164.962,103.632c0.29,0.226,0.459,0.321,0.817,0.6c-0.396,0.941-0.878,2-1.265,2.914l-0.977-0.652
	C164.12,105.206,164.17,105.449,164.962,103.632L164.962,103.632z"/>
<path style="fill:#9FA19F;" d="M23.09,66.942c0.407,1.505,0.815,3.007,1.222,4.512C23.905,69.949,23.497,68.446,23.09,66.942z"/>
<path style="fill:#9FA19F;" d="M26.265,77.803c0.496,1.523,0.993,3.046,1.489,4.568C27.258,80.848,26.76,79.326,26.265,77.803z"/>
<path style="fill:#838484;" d="M173.117,82.174c0.43-1.326,0.862-2.654,1.292-3.98C173.979,79.52,173.547,80.848,173.117,82.174z"/>
<path style="fill:#838484;" d="M170.2,90.098c0.437-1.172,0.873-2.342,1.312-3.514C171.076,87.756,170.639,88.926,170.2,90.098z"/>
<path style="fill:#081E57;" d="M50.166,23.321c-0.106-0.172-0.21-0.344-0.317-0.518c0.74-0.346,1.48-0.695,2.22-1.041
	c0.109,0.124,0.133,0.262,0.075,0.416c-0.661,0.38-1.319,0.76-1.98,1.14L50.166,23.321z"/>
<path style="fill:#9FA19F;" d="M20.146,54.497c0.188,0.921,0.378,1.842,0.566,2.763C20.524,56.339,20.334,55.418,20.146,54.497z"/>
<path style="fill:#9FA19F;" d="M21.008,58.701c0.197,0.855,0.394,1.713,0.591,2.568C21.402,60.414,21.205,59.556,21.008,58.701
	L21.008,58.701z"/>
<path style="fill:#081E57;" d="M52.146,22.181l-0.075-0.416l1.05-0.394l0.093,0.154C52.858,21.744,52.503,21.961,52.146,22.181z"/>
<path style="fill:#9FA19F;" d="M24.405,71.825c0.124,0.425,0.251,0.851,0.376,1.276C24.656,72.675,24.529,72.25,24.405,71.825z"/>
<path style="fill:#9FA19F;" d="M18.551,46.351c0.052,0.315,0.104,0.629,0.158,0.944C18.657,46.98,18.605,46.666,18.551,46.351z"/>
<path style="fill:#838484;" d="M167.463,96.66c0.147-0.339,0.294-0.681,0.441-1.02C167.757,95.979,167.61,96.321,167.463,96.66z"/>
<path style="fill:#838484;" d="M155.149,24.477c-0.342-0.145-0.686-0.292-1.027-0.437C154.463,24.185,154.807,24.333,155.149,24.477
	z"/>
<path style="fill:#9FA19F;" d="M23.169,42.31c-0.326,0.183-0.649,0.369-0.975,0.552C22.52,42.679,22.843,42.493,23.169,42.31z"/>
<path style="fill:#9FA19F;" d="M20.796,57.667c0.045,0.219,0.091,0.441,0.138,0.661C20.888,58.108,20.843,57.886,20.796,57.667z"/>
<path style="fill:#9FA19F;" d="M19.207,50.105c0.045,0.197,0.091,0.394,0.136,0.591C19.298,50.499,19.252,50.302,19.207,50.105z"/>
<path style="fill:#9FA19F;" d="M18.938,48.761c0.048,0.172,0.097,0.344,0.145,0.514C19.035,49.102,18.985,48.931,18.938,48.761z"/>
<path style="fill:#9FA19F;" d="M18.78,47.706c0.02,0.145,0.043,0.292,0.063,0.437C18.823,47.998,18.8,47.851,18.78,47.706z"/>
<path style="fill:#838484;" d="M45.805,24.477l-0.568,0.219L45.805,24.477z"/>
<path style="fill:#838484;" d="M48.014,24.57c0.174-0.106,0.351-0.21,0.525-0.317C48.365,24.36,48.188,24.464,48.014,24.57z"/>
<path style="fill:#838484;" d="M47.396,23.817c-0.19,0.075-0.378,0.147-0.568,0.222C47.018,23.964,47.206,23.891,47.396,23.817z"/>
<path style="fill:#838484;" d="M153.558,23.817c-0.188-0.077-0.376-0.154-0.566-0.233C153.18,23.661,153.368,23.737,153.558,23.817z
	"/>
<path style="fill:#9FA19F;" d="M25.943,76.825c0.068,0.19,0.134,0.38,0.201,0.57C26.077,77.205,26.011,77.015,25.943,76.825z"/>
<path style="fill:#838484;" d="M174.753,77.106c0.059-0.156,0.118-0.312,0.176-0.468C174.871,76.794,174.812,76.95,174.753,77.106z"
	/>
<path style="fill:#9FA19F;" d="M19.105,44.81c-0.176,0.115-0.351,0.231-0.527,0.344C18.755,45.039,18.929,44.923,19.105,44.81z"/>
<path style="fill:#838484;" d="M168.336,94.612c0.079-0.186,0.158-0.373,0.238-0.559C168.494,94.239,168.415,94.427,168.336,94.612z
	"/>
<path style="fill:#9FA19F;" d="M25.274,74.784c0.077,0.19,0.154,0.378,0.231,0.568C25.427,75.162,25.351,74.974,25.274,74.784z"/>
<path style="fill:#838484;" d="M175.43,75.067c0.057-0.156,0.115-0.312,0.172-0.468C175.545,74.755,175.486,74.911,175.43,75.067z"
	/>
<path style="fill:#838484;" d="M166.983,97.783c0.084-0.183,0.17-0.367,0.253-0.552C167.153,97.414,167.067,97.597,166.983,97.783z"
	/>
<path style="fill:#9FA19F;" d="M19.891,53.494c0.061,0.195,0.122,0.391,0.183,0.586C20.013,53.886,19.952,53.689,19.891,53.494z"/>
<path style="fill:#838484;" d="M165.641,100.729c0.084-0.183,0.167-0.367,0.251-0.548
	C165.808,100.364,165.725,100.548,165.641,100.729z"/>
<path style="fill:#838484;" d="M20.287,74.004c-0.041-0.165-0.081-0.333-0.122-0.498C20.205,73.671,20.246,73.838,20.287,74.004z"/>
<path style="fill:#9FA19F;" d="M19.633,52.148c0.043,0.174,0.084,0.348,0.127,0.523C19.716,52.497,19.676,52.322,19.633,52.148z"/>
<path style="fill:#9FA19F;" d="M21.92,62.55c0.05,0.197,0.1,0.394,0.152,0.591C22.022,62.943,21.972,62.747,21.92,62.55z"/>
<path style="fill:#F6F6F8;" d="M31.544,92.73c-0.127,0.005-0.136,0.005-0.262,0.009c-1.607-0.324-3.213-0.645-4.822-0.968
	c-0.167-0.034-0.33-0.081-0.724-0.179c1.532-0.83,2.858-1.55,4.186-2.27c0.152-0.12,0.084-0.066,0.229,0.063
	c0.432,1.131,0.959,2.213,1.392,3.347L31.544,92.73z"/>
<path style="fill:#F6F6F8;" d="M173.923,48.869c-0.566,2.779-1,5.498-1.683,8.155c-1.697,6.603-3.344,13.228-5.331,19.747
	c-1.401,4.596-3.22,9.078-5.053,13.527c-1.647,4.003-3.356,8.008-5.412,11.807c-2.851,5.263-5.91,10.427-9.139,15.47
	c-5.836,9.114-12.755,17.371-20.5,24.931c-4.808,4.693-9.856,9.112-15.312,13.038c-3.362,2.419-6.815,4.709-10.216,7.071
	c-0.575,0.398-1.104,0.412-1.668,0.025c-3.202-2.193-6.474-4.288-9.585-6.6c-3.292-2.448-6.505-5.019-9.623-7.691
	c-6.136-5.261-11.741-11.058-16.912-17.274c-5.245-6.302-9.94-12.993-14.117-20.039c-4.211-7.103-7.872-14.484-11.008-22.132
	c-4.575-11.153-7.82-22.7-10.352-34.461c-0.326-1.509-0.554-3.041-0.869-4.553c-0.158-0.765,0.038-1.267,0.726-1.697
	c4.885-3.059,9.646-6.329,14.647-9.184c6.933-3.96,13.981-7.729,21.088-11.37c6.811-3.491,13.929-6.32,21.136-8.895
	c4.892-1.749,9.841-3.347,14.753-5.039c0.647-0.224,1.19-0.199,1.842,0.027c5.41,1.871,10.877,3.591,16.253,5.555
	c10.062,3.675,19.81,8.064,29.237,13.176c7.856,4.258,15.608,8.687,23.086,13.581c1.319,0.864,2.582,1.817,4.012,2.831V48.869z"/>
<path style="fill:#F6F6F8;" d="M52.566,141.948c0.473,0.586,0.846,1.05,1.353,1.679c-0.586,0.24-1.061,0.434-1.627,0.665
	c-0.439-0.579-0.81-1.07-1.283-1.69c0.591-0.249,1.018-0.428,1.554-0.652L52.566,141.948z"/>
<path style="fill:#F6F6F8;" d="M172.09,100.102c0.525,0.412,0.869,0.683,1.344,1.059c-0.204,0.629-0.412,1.265-0.683,2.1
	c-0.563-0.425-0.955-0.72-1.41-1.061c0.247-0.69,0.464-1.303,0.747-2.098H172.09z"/>
<path style="fill:#F6F6F8;" d="M28.407,104.335c-0.346-0.772-0.613-1.369-0.964-2.15c1.292-0.231,2.412-0.43,3.679-0.656
	c0.337,0.665,0.658,1.301,1.086,2.143C30.831,103.912,29.681,104.114,28.407,104.335z"/>
<path style="fill:#F6F6F8;" d="M48.754,135.35c-0.466-0.681-0.855-1.251-1.306-1.91c0.423-0.197,0.742-0.344,1.206-0.559
	c0.443,0.611,0.862,1.183,1.344,1.846c-0.473,0.238-0.792,0.398-1.244,0.625V135.35z"/>
<path style="fill:#081E57;" d="M64.152,112.429c-4.403-1.312-8.777-2.134-12.363-4.946c-8.512-6.673-10.773-19.45-3.328-28.637
	c4.249-5.245,9.838-8.354,16.405-9.696c6.157-1.258,12.142-0.527,17.937,1.871c0.163,0.068,0.348,0.084,0.636,0.152
	c0.233-1.156,0.373-2.272,0.69-3.333c0.885-2.957,1.749-5.926,2.788-8.829c2.901-8.119,6.245-16.077,8.56-24.403
	c1.371-4.933,2.957-9.809,4.453-14.708c0.124-0.405,0.301-0.794,0.455-1.19c0.104,0.005,0.21,0.011,0.315,0.016
	c0.253,0.839,0.516,1.679,0.763,2.521c3.186,10.879,6.146,21.828,10.472,32.348c1.715,4.172,3.039,8.508,4.462,12.796
	c0.437,1.315,0.609,2.718,0.907,4.077c0.045,0.208,0.124,0.407,0.201,0.649c1.342-0.448,2.6-0.93,3.892-1.29
	c8.811-2.462,17.19-1.548,24.931,3.471c5.071,3.288,8.827,7.682,10.139,13.741c1.525,7.042-0.378,13.21-5.211,18.477
	c-1.912,2.084-4.265,3.58-6.942,4.514c-2.027,0.708-4.08,1.337-6.127,1.984c-0.419,0.131-0.862,0.186-1.444,0.308
	c-0.396-1.539-0.799-2.978-1.136-4.43c-0.446-1.923-1.054-3.767-2.199-5.408c-2.552-3.654-6.406-4.7-10.427-2.801
	c-2.181,1.03-5.041,3.623-6.132,5.503c0.253,1.917,0.493,3.722,0.758,5.707c0.717-0.955,1.376-1.835,2.111-2.813
	c0.796,0.586,1.502,1.131,2.236,1.638c2.998,2.075,5.75,4.383,7.63,7.594c2.955,5.044,3.315,10.187,0.505,15.38
	c-1.693,3.129-4.525,4.872-7.874,5.82c-2.991,0.846-6.028,0.74-9.069,0.319c-0.36-0.05-0.724-0.086-1.226-0.145
	c-1.984,6.838-6.308,11.988-11.452,16.73c-2.374-2.568-4.856-4.854-6.852-7.605c-2.009-2.767-3.378-5.845-4.541-9.076
	c-1.163,0.122-2.236,0.244-3.313,0.346c-3.48,0.328-6.84-0.059-9.979-1.724c-4.252-2.256-6.32-5.951-6.661-10.594
	c-0.464-6.313,2.555-11.065,7.193-14.966c1.208-1.018,2.523-1.912,3.795-2.853c0.326-0.242,0.679-0.45,1.156-0.763
	c0.713,0.93,1.378,1.801,2.12,2.767c0.251-1.978,0.482-3.781,0.738-5.793c-1.806-2.396-4.01-4.598-7.087-5.781
	c-4.308-1.659-8.112,0.604-9.97,3.935c-1.346,2.417-1.726,5.127-2.471,7.727c-0.12,0.421-0.267,0.835-0.443,1.394L64.152,112.429z"
	/>
<path style="fill:#081E57;" d="M119.208,68.073c-0.724-3.356-2.127-6.44-2.064-10.01c0.19-10.852,0.068-21.711,0.068-32.567v-1.5
	c18.468,6.876,35.362,16.301,51.628,26.759c-0.373,3.575-3.546,16.626-4.7,19.382c-0.308,0.023-0.67,0.077-1.034,0.077
	c-5.616,0.005-11.234,0.018-16.85-0.018c-0.6-0.005-1.254-0.217-1.79-0.505c-2.618-1.412-5.424-2.263-8.325-2.77
	c-4.227-0.738-8.463-0.772-12.676,0.197c-1.387,0.319-2.776,0.625-4.258,0.957V68.073z"/>
<path style="fill:#081E57;" d="M81.624,68.105c-1.874-0.41-3.733-0.871-5.616-1.217c-4.168-0.765-8.325-0.643-12.443,0.367
	c-1.419,0.346-2.833,0.733-4.218,1.197c-0.953,0.319-1.835,0.839-2.776,1.201c-0.645,0.249-1.33,0.527-2.003,0.539
	c-2.978,0.059-5.955,0.025-8.933,0.025c-2.937,0-5.874,0-8.96,0c-1.923-6.243-3.507-12.61-4.65-19.072
	c3.878-4.51,43.815-25.444,51.382-26.904c0.02,0.378,0.057,0.74,0.057,1.102c0.002,11.836,0.023,23.673-0.027,35.509
	c-0.005,1.179-0.369,2.369-0.665,3.53c-0.315,1.233-0.747,2.435-1.149,3.724H81.624z"/>
<path style="fill:#081E57;" d="M81.495,105.32c-1.629,1.057-3.17,1.987-4.639,3.021c-3.304,2.326-6.109,5.121-8.078,8.702
	c-1.566,2.849-2.272,5.883-2.136,9.121c0.016,0.371,0.036,0.744,0.057,1.136c-1.303-0.536-9.874-12.169-11.065-15.004
	c0.152-0.014,0.29-0.066,0.405-0.034c2.272,0.668,4.532,1.378,6.815,2.007c1.595,0.439,2.516,0.115,3.279-1.011
	c0.145-0.215,0.278-0.455,0.344-0.704c0.437-1.636,0.826-3.285,1.283-4.915c0.584-2.075,1.278-4.116,3.111-5.474
	c1.251-0.928,2.62-1.335,4.224-0.996c2.684,0.566,4.677,2.107,6.397,4.15L81.495,105.32z"/>
<path style="fill:#081E57;" d="M119.427,105.281c2.369-2.496,4.747-4.544,8.377-4.143c1.416,0.156,2.475,0.842,3.317,1.921
	c1.206,1.548,1.828,3.36,2.31,5.229c0.33,1.276,0.654,2.552,0.987,3.826c0.52,1.987,1.591,2.684,3.609,2.163
	c2.075-0.534,4.111-1.211,6.166-1.824c0.319-0.095,0.636-0.197,1.039-0.213c-3.07,5.193-6.566,10.062-10.569,14.916
	c-0.054-0.532-0.113-0.772-0.1-1.009c0.283-5.304-1.783-9.696-5.277-13.517c-2.647-2.896-5.765-5.184-9.261-6.958
	c-0.163-0.081-0.305-0.199-0.597-0.389L119.427,105.281z"/>
<path style="fill:#838484;" d="M114.022,52.637c-0.312-0.735-0.643-1.464-0.937-2.206c-0.62-1.573-1.24-3.143-1.812-4.731
	c-0.186-0.518-0.31-1.091-0.31-1.638c-0.02-7.012-0.014-14.024-0.014-21.036c0-0.36,0-0.722,0-1.328
	c1.256,0.473,2.285,0.86,3.274,1.231v29.657c-0.068,0.016-0.136,0.034-0.201,0.05L114.022,52.637z"/>
<path style="fill:#9FA19F;" d="M86.543,52.583V22.991c0.86-0.339,1.781-0.704,2.849-1.127c0.043,0.439,0.097,0.751,0.1,1.066
	c0.005,7.27,0.023,14.538-0.02,21.808c-0.005,0.876-0.242,1.785-0.539,2.618c-0.636,1.788-1.383,3.537-2.082,5.302
	c-0.102-0.025-0.201-0.052-0.303-0.077L86.543,52.583z"/>
<path style="fill:#838484;" d="M163.29,73.11c-0.373,1.106-0.704,2.084-1.043,3.086h-9.064c-1.007-0.937-2.059-1.917-3.113-2.894
	l0.102-0.192H163.29z"/>
<path style="fill:#9FA19F;" d="M50.571,73.576c-0.948,0.869-1.896,1.738-2.858,2.62h-9.164c-0.274-0.907-0.548-1.812-0.855-2.837
	h12.75C50.487,73.431,50.528,73.504,50.571,73.576L50.571,73.576z"/>
<path style="fill:#838484;" d="M114.253,141.27v6.329c-0.932,0.758-1.969,1.602-3.15,2.564c-0.353-2.03-0.183-3.781,0.681-5.464
	c0.462-0.896,0.853-1.828,1.278-2.742c0.222-0.48,0.41-1.023,1.192-0.688L114.253,141.27z"/>
<path style="fill:#9FA19F;" d="M89.422,149.857c-0.975-0.758-1.898-1.478-2.88-2.242v-6.385c0.355-0.023,0.701-0.045,1.005-0.063
	c1.317,2.763,2.799,5.376,1.876,8.689V149.857z"/>
<path style="fill:#081E57;" d="M121.561,141.233c-1.371,1.242-2.745,2.484-4.283,3.876v-3.659c1.387-0.165,2.776-0.33,4.166-0.496
	c0.038,0.093,0.077,0.186,0.118,0.281V141.233z"/>
<path style="fill:#081E57;" d="M83.4,141.5v3.437c-1.539-1.378-2.905-2.602-4.272-3.826c0.027-0.068,0.052-0.133,0.079-0.201
	C80.583,141.104,81.959,141.297,83.4,141.5z"/>
<path style="fill:#F6F6F8;" d="M112.175,104.899c2.064,4.125,1.394,7.94-1.165,11.495c1.419,2.652,3.905,3.184,6.118,1.247
	c1.011-0.885,1.833-1.991,2.733-3.003c0.242-0.274,0.462-0.57,0.706-0.873c3.028,2.025,5.326,4.541,6.614,7.895
	c0.91,2.369,1.018,4.795,0.238,7.207c-1.093,3.387-3.589,5.222-6.976,5.883c-3.557,0.695-7.051,0.303-10.456-0.914
	c-0.24-0.086-0.484-0.161-0.896-0.296c-0.536,3.082-1.521,5.946-2.932,8.655c-1.423,2.727-3.261,5.141-5.609,7.367
	c-4.725-4.322-7.37-9.718-8.628-15.982c-0.996,0.312-1.867,0.627-2.761,0.858c-3.224,0.833-6.462,1.05-9.703,0.079
	c-3.919-1.174-6.29-4.408-6.333-8.512c-0.05-4.709,2.335-8.13,5.722-11.04c0.455-0.391,0.959-0.722,1.55-1.159
	c0.337,0.414,0.64,0.828,0.987,1.201c0.892,0.966,1.706,2.041,2.727,2.846c2.159,1.704,4.471,1.122,5.885-1.403
	c-1.161-1.683-2.102-3.505-2.342-5.623c-0.233-2.084,0.251-4.032,1.1-5.928c-2.656-4.32-5.915-7.908-10.829-9.533
	c-5.503-1.819-10.718,0.324-13.823,5.127c-1.317,2.036-2.236,4.258-2.738,6.867c-1.231-0.369-2.41-0.6-3.489-1.066
	c-5.331-2.297-8.562-6.304-9.383-12.078c-0.941-6.612,1.647-11.879,6.605-16.054c3.254-2.74,7.066-4.442,11.271-5.207
	c4.605-0.839,9.073-0.299,13.434,1.33c2.444,0.914,4.783,2.032,6.924,3.543c0.143,0.102,0.328,0.143,0.688,0.294
	c-0.059-0.643-0.122-1.136-0.147-1.629c-0.17-3.428,0.281-6.806,1.405-10.017c2.527-7.218,5.2-14.384,7.867-21.552
	c1.545-4.152,2.507-8.447,3.365-12.773c0.097-0.496,0.233-0.987,0.353-1.478h0.247c0.095,0.265,0.233,0.52,0.276,0.79
	c1.095,6.657,3.272,12.981,5.725,19.244c2.141,5.469,4.086,11.019,5.944,16.592c0.93,2.788,1.319,5.725,1.208,8.693
	c-0.023,0.62-0.111,1.24-0.195,2.143c0.627-0.358,1.034-0.57,1.421-0.815c4.89-3.084,10.171-5.082,15.997-4.79
	c8.542,0.425,15.534,3.862,19.867,11.56c3.295,5.854,2.392,13.228-2.075,18.242c-2.362,2.65-5.383,4.168-8.987,4.849
	c-0.134-0.437-0.267-0.851-0.387-1.269c-0.86-3.021-2.197-5.781-4.496-7.983c-3.156-3.025-6.931-3.912-11.083-2.797
	c-5.329,1.432-8.711,5.256-11.54,9.768L112.175,104.899z"/>
<path style="fill:#F6F6F8;" d="M134.911,57.843c-0.72,0.74-1.815,0.658-2.233-0.71c-0.416-0.115-0.283,0.084-0.396-0.21
	c-0.959-2.512-1.869-5.041-2.794-7.564c-0.143-0.385-0.276-0.774-0.527-1.106c-0.394-1.254-0.998-2.439-1.278-3.727
	c-0.02-0.059-0.041-0.127-0.063-0.192c-0.14,0.05-0.054,0.165-0.068,0.256c0.095,0.611,0.249,1.208,0.226,1.828
	c0.025,0.317,0.005,0.634,0.009,0.948c0.029,3.342,0.02,6.684,0.005,10.026c-0.005,0.842,0.199,1.543,0.882,2.068
	c0.4,0.33,0.769,0.672,0.346,1.233c-1.76,0.398-3.505,0.346-5.168,0.018c-0.265-0.763,0.091-1.048,0.491-1.283
	c0.586-0.344,0.774-0.844,0.774-1.505c-0.007-4.806-0.007-9.612,0-14.418c0-0.821-0.308-1.45-0.953-1.932
	c-0.233-0.199-0.441-0.412-0.38-1.005c1.405-0.858,3.075-0.26,4.639-0.414c0.195,0.007,0.382,0.052,0.554,0.138
	c0.584,0.437,0.731,1.118,0.946,1.751c1.199,3.523,2.579,6.983,3.754,10.515c0.14,0.419,0.256,0.867,0.62,1.242
	c0.428-0.197,0.48-0.634,0.618-0.989c1.453-3.749,2.901-7.503,4.338-11.259c0.172-0.45,0.281-0.946,0.722-1.249
	c0.176-0.093,0.362-0.138,0.559-0.149c1.306-0.007,2.611-0.068,3.917,0.034c0.921,0.692,0.835,0.939-0.769,1.991
	c-0.41,5.44-0.389,10.949-0.027,16.421c0.143,0.387,0.523,0.475,0.733,0.735c0.274,0.337,0.674,0.613,0.572,1.122
	c-0.134,0.287-0.382,0.396-0.643,0.412c-1.564,0.1-3.129,0.1-4.691,0.005c-0.62-0.038-0.939-0.414-0.763-1.077
	c1.222-0.695,1.48-1.756,1.432-3.111c-0.102-2.81-0.029-5.63-0.032-8.444c0-1.161-0.029-2.322,0.161-3.48
	c-0.36,0.6-0.48,1.29-0.76,1.914c-1.12,2.041-1.733,4.292-2.67,6.413c-0.572,1.299-1.116,2.616-1.505,3.987
	c-0.095,0.333-0.204,0.647-0.577,0.765L134.911,57.843z"/>
<path style="fill:#F6F6F8;" d="M136.398,46.267c0.79-2.079,1.548-4.172,2.392-6.229c0.276-0.67,0.968-0.873,1.681-0.876
	c1.206,0,2.412-0.007,3.618,0c1,0.005,1.862,0.529,1.973,1.285c0.104,0.71-0.045,1.473-1.19,1.998
	c-0.102,0.048-0.208,0.084-0.371,0.149v15.948c0.989,0.434,1.896,1.002,1.48,2.421c-0.453,0.81-1.199,1.048-2.152,1.007
	c-1.43-0.061-2.865-0.007-4.297-0.018c-1.208-0.009-1.668-0.319-1.867-1.22c-0.226-1.023,0.081-1.552,1.206-2.088
	c0.1-0.048,0.186-0.122,0.358-0.235v-7.268c-0.063-0.036-0.129-0.07-0.192-0.106c-0.215,0.412-0.459,0.812-0.638,1.24
	c-0.935,2.213-1.849,4.433-2.781,6.646c-0.05,0.115-0.204,0.186-0.31,0.278c-0.188-0.036-0.285-0.152-0.292-0.342
	c0.145-0.328,0.29-0.656,0.432-0.982c-0.084-0.389,0.059-0.74,0.197-1.086c1.149-2.883,2.279-5.772,3.46-8.641
	c0.113-0.276,0.219-0.559,0.439-0.776c0.272-0.267,0.453-0.154,0.588,0.147c0.247,1.416,0.093,2.844,0.111,4.265
	c0.027,2.025,0.011,4.053,0.005,6.078c0,0.819-0.201,1.5-1.159,1.638c-0.602,0.337-0.563,0.799-0.305,1.303
	c2.26,0.462,5.874,0.238,6.431-0.391c-0.023-0.636-0.631-0.783-0.984-1.145c-0.462-0.272-0.679-0.663-0.695-1.206
	c-0.163-4.964-0.179-9.929,0.005-14.891c0.027-0.72,0.405-1.19,1.009-1.516c0.389-0.21,0.708-0.491,0.604-0.973
	c-0.124-0.579-0.627-0.577-1.082-0.575c-1.355,0-2.711-0.07-4.062,0.045c-0.55,0.229-0.701,0.749-0.892,1.238
	c-0.545,1.403-1.052,2.819-1.631,4.206c-0.172,0.41-0.29,0.869-0.79,1.034C136.5,46.589,136.386,46.48,136.398,46.267
	L136.398,46.267z"/>
<path style="fill:#F6F6F8;" d="M122.817,61.07c-0.708-1.093-0.376-1.849,1.222-2.65c0-5.173,0-10.381,0-15.592
	c-1.491-1.068-1.883-1.754-1.5-2.634c0.351-0.808,1.116-1.143,2.254-0.987c0.149,0.206,0.134,0.412,0,0.618
	c-0.249,0.222-0.595,0.219-0.869,0.38c-0.412,0.233-0.523,0.572-0.362,0.998c0.238,0.312,0.609,0.407,0.901,0.62
	c0.638,0.498,0.726,1.213,0.729,1.932c0.016,4.663,0.009,9.327,0.007,13.993c0,0.774-0.226,1.423-0.987,1.745
	c-0.566,0.238-0.674,0.763-0.878,1.238c-0.129,0.179-0.33,0.244-0.516,0.337V61.07z"/>
<path style="fill:#F6F6F8;" d="M136.398,46.267l0.321,0.269c0.344,0.319,0.217,0.697,0.095,1.045
	c-0.563,1.591-1.192,3.159-1.806,4.731c-0.111,0.283-0.265,0.543-0.629,0.615c-0.575-0.113-0.663-0.638-0.824-1.079
	c-1.224-3.347-2.405-6.709-3.652-10.049c-0.197-0.527-0.346-1.07-0.69-1.53c-0.145-0.109-0.249-0.247-0.315-0.414
	c-0.063-0.238-0.059-0.462,0.113-0.658c1.039-0.068,1.306,0.731,1.57,1.462c1.161,3.186,2.292,6.381,3.437,9.574
	c0.088,0.244,0.19,0.484,0.364,0.923c0.496-1.319,0.912-2.471,1.364-3.609c0.176-0.443,0.432-0.855,0.652-1.283L136.398,46.267z"/>
<path style="fill:#081E57;" d="M139.894,47.247c-1.319,3.265-2.634,6.532-3.962,9.793c-0.12,0.294-0.324,0.554-0.489,0.833
	c-0.176-0.009-0.355-0.018-0.532-0.029c1.156-3.041,2.303-6.087,3.48-9.121c0.258-0.667,0.622-1.292,0.937-1.937
	C139.794,46.6,139.909,46.842,139.894,47.247L139.894,47.247z"/>
<path style="fill:#081E57;" d="M132.209,57.873c-0.767-1.971-1.541-3.939-2.297-5.915c-0.36-0.941-0.695-1.892-1.011-2.849
	c-0.088-0.265-0.068-0.563-0.1-0.844c0.07-0.206-1.491-4.847-1.31-4.725c0.115,0.118,1.975,4.811,2.027,4.951
	c1.048,2.819,2.084,5.645,3.109,8.472c0.088,0.242,0.095,0.511,0.14,0.767l-0.561,0.14L132.209,57.873z"/>
<path style="fill:#F6F6F8;" d="M129.01,39.201c0.014,0.199,0.029,0.401,0.043,0.6c-1.437,0.457-2.871,0.516-4.299-0.043
	c0.014-0.183,0.025-0.369,0.038-0.552c1.405,0,2.813-0.005,4.218-0.007V39.201z"/>
<g>
	<path style="fill:#F6F6F8;" d="M132.209,57.873c0.131,0.367,0.41,1.048,0.582,1.527c-0.729-0.018-0.966-0.796-1.113-1.19
		c-0.753-2.045-1.5-4.096-2.256-6.141c-0.1-0.267-0.233-0.52-0.477-0.767c-0.321,2.358-0.152,4.711-0.208,7.014
		c0.407,0.315,0.74,0.55,1.048,0.812c0.534,0.453,0.645,1.032,0.448,1.683c-0.188,0.627-0.584,1.086-1.249,1.102
		c-1.654,0.041-3.31,0.061-4.962-0.02c-0.391-0.02-0.763-0.473-1.143-0.729c0.038-0.136,0.129-0.219,0.265-0.251
		c1.688,0.041,3.378,0.054,5.068,0.025c0.394-0.007,0.849,0.122,1.12-0.326c0.33-1.016-0.622-1.018-1.104-1.394
		c-0.33-0.489-0.43-1.027-0.428-1.609c0.009-2.937,0-5.874,0.009-8.811c0-0.482-0.054-0.989,0.373-1.349
		c0.407-0.138,0.385,0.24,0.505,0.532c1.043,2.896,2.005,5.686,3.073,8.576c0.154,0.419,0.337,0.701,0.446,1.312L132.209,57.873z"/>
	<path style="fill:#F6F6F8;" d="M135.305,59.196c-0.916,0.611-1.817,0.405-2.715,0.174c-0.002-0.115-0.179-0.604-0.181-0.72
		c0.382,0.552,1.991,0.654,2.899-0.149c0.097,0.113-0.097,0.582,0,0.695L135.305,59.196z"/>
</g>
<path style="fill:#F6F6F8;" d="M122.817,61.07l0.405-0.317c0.05,0.066,0.061,0.136,0.036,0.213
	c-0.127,0.068-0.251,0.133-0.378,0.201C122.849,61.142,122.828,61.111,122.817,61.07L122.817,61.07z"/>
<path style="fill:#F6F6F8;" d="M59.979,39.905c0.916-0.016,1.161,0.69,1.403,1.351c1.145,3.152,2.27,6.311,3.405,9.465
	c0.097,0.272,0.222,0.534,0.432,1.039c0.733-1.88,1.383-3.543,2.03-5.207c0.71-1.826,1.414-3.654,2.136-5.474
	c0.274-0.688,0.652-1.283,1.541-1.208c0.163,0.19,0.149,0.401,0.079,0.62c-0.145,0.299-0.337,0.57-0.5,0.858
	c-1.31,2.792-2.331,5.704-3.462,8.567c-0.387,0.98-0.778,1.955-1.149,2.942c-0.129,0.344-0.231,0.726-0.665,0.833
	c-0.627-0.183-0.717-0.756-0.887-1.229c-1.208-3.36-2.412-6.723-3.65-10.071c-0.156-0.421-0.249-0.869-0.525-1.24
	c-0.136-0.186-0.249-0.38-0.312-0.604c-0.048-0.231-0.038-0.45,0.122-0.64L59.979,39.905z"/>
<path style="fill:#F6F6F8;" d="M61.049,61.808c-0.459,0.625-1.086,0.839-1.844,0.826c-1.24-0.023-2.48,0.002-3.72-0.009
	c-1.287-0.011-1.808-0.328-2.023-1.192c-0.238-0.95,0.088-1.518,1.199-2.111c0.097-0.052,0.183-0.127,0.342-0.238V43.339
	c-0.344-0.188-0.665-0.367-0.989-0.543c-0.02-0.303,0.122-0.509,0.385-0.645c0.201-0.066,0.401-0.05,0.597,0.02
	c0.769,0.312,1.052,0.928,1.054,1.708c0.014,4.639,0.045,9.277-0.023,13.916c-0.014,0.991-0.05,2.088-1.301,2.514
	c-0.317,0.109-0.369,0.446-0.36,0.749c0.772,0.753,4.878,0.815,6.116,0.106c0.473-0.038,0.634,0.201,0.57,0.64L61.049,61.808z"/>
<path style="fill:#F6F6F8;" d="M75.603,39.873c0.894-0.066,1.283,0.477,1.421,1.244c0.199,1.109-0.154,1.625-1.521,2.258v15.656
	c1.747,0.998,2.075,2.168,0.925,3.195c-0.274-0.057-0.57-0.068-0.692-0.391c-0.115-0.33,0.063-0.674-0.129-1.226
	c-1.509-0.606-1.215-2.1-1.22-3.478c-0.009-4.064-0.005-8.125,0-12.189c0-0.563-0.032-1.129,0.086-1.686
	c0.075-0.317,0.253-0.57,0.491-0.785c0.208-0.181,0.437-0.342,0.649-0.52c0.776-0.541,0.048-0.984-0.097-1.466
	c-0.066-0.217-0.075-0.425,0.086-0.609V39.873z"/>
<path style="fill:#F6F6F8;" d="M70.311,50.718c-0.256,0.274-0.751,1.806-0.887,2.129c-0.86,2.05-1.722,4.1-2.475,6.189
	c-0.43,1.192-1.31,1.319-2.333,1.321c-1.281,0.002-1.772-0.283-2.181-1.373c-0.753-2.009-1.464-4.037-2.224-6.044
	c-0.131-0.348-0.385-1.206-0.602-1.521c-0.396,0.007-0.43,0.301-0.36,0.05c0.066-0.235,0.285-0.308,0.523-0.294
	c0.315,0.016,0.525,0.229,0.756,0.403c0.817,0.894,0.996,2.084,1.419,3.154c0.468,1.186,0.898,2.387,1.335,3.586
	c0.242,0.665,0.611,1.068,1.389,1.057c0.749-0.011,1.201-0.355,1.444-1.023c0.858-2.362,2.179-4.806,2.991-7.189
	c0.172-0.507,0.439-2.032,1.285-1.828c0.679,0.466,0.421,0.726-0.077,1.38L70.311,50.718z"/>
<path style="fill:#F6F6F8;" d="M70.175,52.019c0.009-0.738,0.043-1.267-0.559-1.695c-0.048-0.948,0.197-1.794,0.862-2.496
	c0.199-0.052,0.376-0.025,0.514,0.143c-0.016,1.636,0.222,3.263,0.21,4.901c-0.011,1.502,0.032,3.005-0.014,4.505
	c-0.036,1.206-0.088,2.444-1.548,2.926c-0.231,0.077-0.249,0.358-0.355,0.55c-0.167,0.453,0.179,0.561,0.477,0.701
	c1.557,0.145,3.113,0.025,4.67,0.068c0.475,0.014,0.973-0.063,1.387,0.269c0.204,0.111,0.609,0.333,0.609,0.333
	s-0.21,0.308-1.032,0.378c-1.837,0.036-3.677,0.027-5.517,0.002c-0.326-0.005-0.753-0.093-0.935-0.215
	c-1.136-1.31-0.842-2.068,1.226-3.405v-6.967L70.175,52.019z"/>
<path style="fill:#F6F6F8;" d="M60.142,51.587l-0.253-0.147c-0.17-0.097-0.33,0.084-0.326,0.328v0.204
	c0.005,0.014,0.007,0.027,0.007,0.041v6.924c0,0.093,0.052,0.179,0.133,0.224c0.283,0.158,0.509,0.283,0.724,0.405
	c0.086,0.048,0.14,0.14,0.131,0.238c-0.02,0.224-0.163,0.369-0.387,0.457c-0.032,0.011-0.066,0.018-0.1,0.018
	c-0.824-0.005-1.403-0.477-1.423-1.233c-0.088-3.319-0.296-6.646,0.122-9.963c0.014-0.111,0.077-0.21,0.122-0.312
	c0.027-0.05,0.059-0.095,0.097-0.131c0.093-0.088,0.244-0.079,0.337,0.009c0.787,0.742,1.14,1.661,1.201,2.702
	c0.011,0.204-0.21,0.337-0.385,0.235L60.142,51.587z"/>
<path style="fill:#F6F6F8;" d="M59.979,39.905l0.05,0.611c-1.693,0.471-3.396,0.31-5.102,0.093
	c-0.294-0.222-0.305-0.468-0.068-0.738C56.565,39.882,58.273,39.893,59.979,39.905z"/>
<path style="fill:#F6F6F8;" d="M75.603,39.873c0.018,0.199,0.036,0.398,0.054,0.597c-1.595,0.491-3.188,0.491-4.783,0
	c0.018-0.201,0.034-0.401,0.052-0.602C72.485,39.868,74.044,39.871,75.603,39.873L75.603,39.873z"/>
<path style="fill:#F6F6F8;" d="M54.859,39.871c-0.018,0.199-0.034,0.398-0.052,0.595c-0.093,0.414-0.473,0.769-0.26,1.249
	c0.025,0.219-0.018,0.416-0.183,0.572l-0.351,0.509c-0.756-0.401-0.833-1.091-0.661-1.794c0.181-0.738,0.652-1.224,1.507-1.134
	L54.859,39.871z"/>
<path style="fill:#F6F6F8;" d="M60.253,60.212c0.1-0.192,0.199-0.385,0.299-0.577c0.916,0.634,1.043,1.183,0.498,2.172
	c-0.179-0.174-0.36-0.348-0.539-0.52c-0.358-0.292-0.382-0.665-0.258-1.073V60.212z"/>
<path style="fill:#081E57;" d="M89.385,80.294c-0.127-0.91-0.256-1.821-0.382-2.731c-0.009-0.147-0.025-0.294-0.054-0.439
	c-0.005-1.136-0.007-2.274-0.011-3.41c0.036-0.145,0.054-0.292,0.061-0.439c0.358-1.889,0.713-3.779,1.07-5.668
	c0.043-0.167,0.097-0.33,0.109-0.505c0.176-0.554,0.353-1.109,0.532-1.663c0.267-0.882,0.615-1.74,0.846-2.634
	c2.883-7.985,6.259-15.785,8.77-24.08c0.231,0.317,0.376,0.446,0.432,0.604c1.62,4.539,3.233,9.078,4.842,13.622
	c1.785,5.044,3.663,10.055,5.315,15.142c1.351,4.157,1.419,8.438,0.464,12.719c-0.057,0.258-0.111,0.516-0.154,0.776
	c-0.011,0.068,0.023,0.145,0.061,0.346c0.269-0.192,0.5-0.339,0.713-0.514c3.627-2.971,7.625-5.22,12.182-6.465
	c8.587-2.344,18.165,0.652,23.55,7.438c3.962,4.994,4.274,12.431,0.708,17.55c-1.695,2.432-4.023,4.041-6.799,5.021
	c-0.204,0.072-0.43,0.077-0.715,0.124c-0.124-0.247-0.265-0.459-0.344-0.695c-1.054-3.125-2.634-5.933-5.145-8.116
	c-3.871-3.369-8.322-4.073-13.108-2.478c-4.555,1.518-7.811,4.727-10.517,8.562c-0.563,0.796-1.057,1.643-1.622,2.523
	c1.215,1.826,1.697,3.81,1.45,5.937c-0.247,2.136-1.287,3.912-2.668,5.476c1.337,3.706,5.331,5.243,8.374,3.193
	c0.957-0.643,1.763-1.514,2.618-2.301c0.326-0.301,0.593-0.663,1.014-1.143c0.871,0.885,1.751,1.643,2.471,2.532
	c2.441,3.018,3.593,6.358,2.184,10.203c-1.009,2.751-3.213,4.048-5.944,4.41c-4.01,0.529-7.904,0.161-11.413-2.131
	c-0.12-0.077-0.272-0.104-0.536-0.199c-0.369,3.041-0.977,5.967-2.186,8.739c-1.199,2.751-2.745,5.265-5.03,7.571
	c-4.455-4.584-6.551-10.11-7.227-16.208c-1.419,0.609-2.742,1.326-4.157,1.751c-2.969,0.889-6.008,1.088-9.033,0.258
	c-3.747-1.027-5.464-3.853-5.322-7.68c0.143-3.84,2.337-6.646,5.238-9.164c0.416,0.459,0.749,0.905,1.156,1.265
	c0.955,0.844,1.869,1.767,2.935,2.441c1.679,1.063,3.435,0.955,5.105-0.156c1.213-0.81,2.15-1.862,2.88-3.224
	c-1.349-1.611-2.503-3.342-2.772-5.462c-0.269-2.125,0.192-4.125,1.511-6.136c-1.079-1.502-2.107-3.123-3.324-4.582
	c-2.478-2.969-5.442-5.311-9.189-6.523c-5.596-1.812-11.474,0.143-14.943,4.906c-1.303,1.788-2.294,3.711-2.998,5.797
	c-0.081,0.24-0.19,0.471-0.364,0.892c-0.977-0.416-1.937-0.733-2.81-1.208c-4.297-2.337-6.729-5.967-7.116-10.841
	c-0.541-6.788,2.584-11.728,8.103-15.323c4.028-2.625,8.503-3.899,13.293-3.727c4.358,0.154,8.478,1.387,12.214,3.672
	c1.889,1.156,3.654,2.518,5.476,3.788c0.281,0.124,0.45,0.054,0.466-0.274c-0.05-0.208-0.102-0.416-0.152-0.625
	c-0.007-0.174-0.061-0.337-0.106-0.502L89.385,80.294z"/>
<path style="fill:#9FA19F;" d="M91.555,62.803c-0.283,0.878-0.563,1.756-0.846,2.634C90.992,64.559,91.272,63.681,91.555,62.803z"/>
<path style="fill:#9FA19F;" d="M89.385,80.294c0.036,0.167,0.072,0.335,0.106,0.502C89.455,80.629,89.419,80.461,89.385,80.294z"/>
<path style="fill:#9FA19F;" d="M88.949,77.124c0.018,0.147,0.036,0.292,0.054,0.439C88.985,77.416,88.967,77.271,88.949,77.124z"/>
<path style="fill:#9FA19F;" d="M88.998,73.273c-0.02,0.147-0.041,0.294-0.061,0.439C88.958,73.565,88.978,73.418,88.998,73.273z"/>
<path style="fill:#9FA19F;" d="M90.177,67.1c-0.036,0.167-0.072,0.337-0.109,0.505C90.105,67.437,90.141,67.268,90.177,67.1z"/>
<path style="fill:#081E57;" d="M129.295,40.006c0.229,0.369,0.527,0.713,0.672,1.113c1.373,3.758,2.72,7.528,4.077,11.293
	c0.048,0.133,0.14,0.251,0.204,0.362c0.113-0.02,0.229-0.014,0.24-0.045c0.749-2.061,1.489-4.127,2.229-6.191
	c0.747-1.874,1.48-3.754,2.251-5.616c0.143-0.346,0.62-0.98,1.032-0.98c0.242,0.118,0.575,0.391-0.057,0.62
	c-1.797,4.7-3.593,9.399-5.392,14.099c-0.138,0.005-0.276,0.011-0.414,0.016c-1.726-4.706-3.435-9.42-5.093-14.151
	c-0.19-0.303,0.048-0.401,0.247-0.518L129.295,40.006z"/>
<path style="fill:#081E57;" d="M139.848,40.375c-0.011-0.023-0.025-0.048-0.036-0.07c-0.079-0.154,0.018-0.339,0.188-0.362
	c0.455-0.061,0.912-0.131,1.369-0.149c0.901-0.034,1.806,0.016,2.706-0.016c0.563-0.02,1,0.113,1.297,0.643
	c0.163,0.29,0.097,0.656-0.14,0.889l-0.941,0.923c0,0-0.016,0.016-0.023,0.025l-0.224,0.287c-0.018,0.023-0.032,0.05-0.041,0.077
	c-0.045,0.138-0.179,0.591-0.179,1.016c-0.014,4.736,0.005,9.469-0.007,14.205c0,0.539,0.079,0.998,0.509,1.31
	c0.1,0.072,0.134,0.21,0.075,0.317c-0.02,0.036-0.045,0.07-0.072,0.102c-0.075,0.081-0.201,0.086-0.299,0.032
	c-0.554-0.303-0.783-0.806-0.792-1.453c-0.016-1.018-0.066-2.034-0.066-3.05c-0.002-3.695,0-7.39,0.023-11.087
	c0.005-0.665,0.091-1.33,0.145-1.973c0.007-0.079,0.052-0.152,0.12-0.192c0.434-0.26,0.842-0.505,1.312-0.787
	c0.165-0.1,0.163-0.342-0.007-0.437l-0.285-0.156c-0.032-0.018-0.063-0.027-0.097-0.032c-1.33-0.149-2.661-0.145-3.991,0
	c-0.016,0-0.032,0.005-0.048,0.009l-0.199,0.059c-0.115,0.034-0.24-0.018-0.294-0.124L139.848,40.375z"/>
<path style="fill:#081E57;" d="M123.258,60.966c0.025-0.077,0.011-0.147-0.036-0.213c-0.014-0.704,0.262-1.165,0.93-1.514
	c0.358-0.186,0.595-0.706,0.756-1.127c0.127-0.333,0.068-0.742,0.068-1.118c0.002-4.292,0.023-8.582-0.014-12.875
	c-0.007-0.851,0.102-1.835-0.939-2.301c-0.068-0.244,0.057-0.382,0.267-0.471c0.83,0.396,1.199,1.095,1.202,1.975
	c0.009,4.865,0,9.727-0.005,14.592c0,0.86-0.258,1.543-1.161,1.862c-0.226,0.079-0.389,0.337-0.529,0.645
	c1.785,0.326,3.523,0.287,5.265,0.167c0.219-0.176,0.437-0.179,0.654,0.005c-0.333,0.231-0.656,0.647-1,0.663
	c-1.498,0.072-3.003,0.048-4.505,0.014c-0.319-0.007-0.634-0.201-0.95-0.308L123.258,60.966z"/>
<path style="fill:#081E57;" d="M139.894,47.247c-0.188-0.154-0.378-0.308-0.566-0.462c0.358-1.007,0.715-2.012,1.073-3.018
	c0.075,0.02,0.147,0.038,0.222,0.059c0,0.835,0.002,1.67,0,2.507c-0.018,3.69-0.032,7.379-0.059,11.069
	c-0.007,1.1-0.14,2.145-1.473,2.462c-0.26-0.041-0.396-0.19-0.403-0.455c0.305-0.136,0.611-0.272,1.147-0.509
	c0.186-3.824,0.072-7.738,0.059-11.651L139.894,47.247z"/>
<path style="fill:#081E57;" d="M129.18,48.139c0,0-0.251,0.084-0.378,0.127c-0.165-0.265-0.493-0.796-0.493-0.796
	s-0.12,0.023-0.181,0.034c-0.016,0.233-0.045,0.466-0.045,0.699c0,3.104-0.011,6.211,0.014,9.316c0.005,0.6-0.167,1.299,0.518,1.713
	c0.115,0.167,0.109,0.335-0.011,0.498c-1.016-0.283-1.134-1.106-1.138-1.96c-0.016-2.672,0-5.345-0.011-8.015
	c-0.002-0.864-0.043-1.729-0.068-2.593c0.208-0.036,0.328-0.161,0.371-0.364c-0.038-0.206-0.163-0.328-0.367-0.373
	c-0.029-0.697-0.061-1.394-0.091-2.088c0.183-0.208,0.367-0.208,0.55,0c0.441,1.269,1.326,3.806,1.326,3.806L129.18,48.139z"/>
<path style="fill:#081E57;" d="M138.688,59.409c0.133,0.152,0.269,0.303,0.403,0.455c-0.034,0.176-0.07,0.353-0.122,0.622h5.779
	c0.109-0.138,0.217-0.278,0.328-0.416c-0.294-0.131-0.591-0.262-0.885-0.394c0.095-0.145,0.19-0.292,0.285-0.437
	c0.79,0.029,1.181,0.523,1.111,1.226c-0.063,0.631-0.588,0.907-1.233,0.905c-1.693-0.007-3.387,0.036-5.08-0.032
	c-0.358-0.014-0.842-0.337-1.011-0.654c-0.24-0.45-0.29-1.043,0.428-1.274L138.688,59.409z"/>
<path style="fill:#081E57;" d="M129.295,40.006c-0.081,0.172-0.247,0.518-0.247,0.518s-0.303-0.059-0.455-0.088
	c-1.326-0.206-2.659-0.038-3.987-0.097c-0.348-0.016-0.772,0.145-0.941-0.355c0.362-0.075,0.726-0.149,1.088-0.224l4.299,0.043
	c0.081,0.068,0.161,0.136,0.242,0.206V40.006z"/>
<path style="fill:#081E57;" d="M123.665,39.984c0.376,0.106,0.744,0.281,1.125,0.305c3.704-0.26,3.417,0.158,3.804,0.145
	c0.387-0.014-4.539-0.181-4.801,0.143s0.369,0.572,0.496,0.772c-0.088,0.156-0.265,0.416-0.267,0.471
	c-0.002,0.054-0.821-0.342-0.821-0.342S122.919,40.285,123.665,39.984L123.665,39.984z"/>
<path style="fill:#081E57;" d="M128.605,59.728c0.005-0.165,0.007-0.33,0.011-0.498c1.03,0.145,1.161,0.308,1.095,1.362
	c-0.217,0-0.437-0.002-0.654-0.005c-0.152-0.287-0.301-0.575-0.453-0.862V59.728z"/>
<path style="fill:#081E57;" d="M127.392,46.421c0.604-0.127,0.837,0.12,0.708,0.799c-0.231-0.02-0.471-0.041-0.71-0.061
	c0-0.247,0.002-0.491,0.005-0.738H127.392z"/>
<path style="fill:#081E57;" d="M127.854,44.33c-0.183,0-0.367,0-0.55,0c-0.027-0.231-0.052-0.462-0.079-0.69l0.269-0.1
	C127.494,43.541,127.734,44.068,127.854,44.33L127.854,44.33z"/>
<path style="fill:#081E57;" d="M60.339,40.914c0.434,1.066,0.903,2.122,1.299,3.202c1.073,2.923,2.111,5.86,3.17,8.791
	c0.075,0.206,0.199,0.396,0.414,0.817c0.511-1.301,0.953-2.426,1.392-3.548c1.093-2.794,2.181-5.593,3.281-8.383
	c0.093-0.238,0.276-0.439,0.416-0.656c0.097-0.097,0.21-0.118,0.337-0.068c0.385,0.401,0.235,0.844,0.072,1.265
	c-1.611,4.177-3.211,8.356-4.887,12.508c-0.097,0.242-0.204,0.489-0.55,0.647c-0.668-0.011-0.792-0.615-0.977-1.125
	c-1.373-3.743-2.704-7.501-4.055-11.252c-0.595-1.652-0.563-1.661-2.279-1.665c-0.715,0-1.432,0.048-2.143-0.032
	c-0.303-0.034-0.837,0.124-0.753-0.523c1.756-0.321,3.512-0.355,5.263,0.027L60.339,40.914z"/>
<path style="fill:#081E57;" d="M70.745,41.283c-0.145-0.05-0.29-0.1-0.434-0.147c0.188-0.222,0.373-0.441,0.561-0.663
	c1.595,0,3.188,0,4.783,0c0.201,0.339,0.505,0.658,0.575,1.025c0.079,0.416-0.124,0.76-0.663,0.471
	c-0.029-0.041-0.057-0.084-0.086-0.122c-0.122-0.29-0.319-0.5-0.631-0.588c-1.138-0.048-2.274-0.122-3.405,0.061
	c-0.235,0.05-0.468,0.066-0.697-0.034L70.745,41.283z"/>
<path style="fill:#081E57;" d="M60.339,40.914c-1.367,0.02-2.736,0.034-4.102,0.068c-0.398,0.011-1.414-0.333-1.19,0.131
	c0.224,0.464-0.801,0.819-0.493,0.407s-0.088,0.016-0.131,0.025c-1.168-0.38-0.136-0.968,0.387-1.079s3.48,0.032,5.22,0.048
	c0.104,0.133,0.208,0.265,0.31,0.398V40.914z"/>
<path style="fill:#081E57;" d="M60.253,60.212c0.81,0.647,0.258,1.073,0.258,1.073c0.005,0.016-0.606,0.654-0.93,0.649
	c-1.505-0.018-3.014,0.052-4.519,0.014c-0.351-0.009-0.756,0.034-0.996-0.319c-0.348-0.514-0.287-1.573,1.396-1.975
	c0.072-0.486,0.231-1.063,0.233-1.64c0.02-4.559,0-9.116,0.02-13.676c0.002-0.849-0.145-1.564-1-1.941
	c0.016-0.156,0.095-0.265,0.238-0.326c0.953-0.224,1.38,0.346,1.665,1.113c0.118,0.319,0.129,0.663,0.129,1
	c0.014,4.693,0.007,9.386,0.005,14.079c0,1.113-0.387,1.973-1.414,2.473c-0.072,0.052-0.176,0.075-0.231,0.17
	c0.054,0.111,0.161,0.036,0.249,0.054c1.206-0.059,2.408,0.018,3.935-0.077c-1.665-1.188-1.387-2.767-1.419-4.272
	c-0.075-3.756,0.172-7.517-0.145-11.271c-0.023-0.265,0.011-0.525,0.152-0.763c0.133-0.172,0.315-0.217,0.52-0.201
	c0.434,0.102,0.543,0.473,0.686,0.824c1.681,4.073,3.068,8.257,4.675,12.357c0.041,0.106,0.079,0.213,0.122,0.317
	c0.152,0.355,0.326,0.697,0.778,0.72c0.511,0.027,0.729-0.339,0.894-0.731c0.613-1.459,1.177-2.937,1.754-4.41
	c1.054-2.699,2.306-5.32,3.204-8.082c0.174-0.539,0.219-0.525,0.898-0.907c0.498,0.247,0.489,0.738,0.464,1.168
	c-0.253,4.288-0.192,8.582-0.235,12.875c-0.009,0.928-0.529,1.625-1.376,2.369c1.634,0.14,3.048,0.063,4.711,0.063
	c-1.778-1.548-1.444-3.476-1.455-5.306c-0.023-3.428-0.007-6.858-0.007-10.289c0-0.643,0.02-1.283,0.219-1.901
	c0.154-0.477,0.33-0.937,0.932-1.002c0.224,0.111,0.192,0.305,0.165,0.498c-0.077,0.554-0.217,1.106-0.219,1.661
	c-0.018,4.399-0.016,8.797-0.005,13.196c0,0.631,0.095,1.263,0.145,1.898c0.441,0.256,0.821,0.477,1.349,0.783
	c0.464,0.704,0.195,1.106-0.276,1.414c-2.021,0.02-4.041,0.043-6.062,0.05c-0.161,0-0.324-0.133-0.484-0.204
	c-0.12-0.24-0.21-0.493-0.385-0.701c0.016-1.068,1.057-1.073,1.846-1.769c0.016-3.62,0.032-7.449,0.048-11.275
	c-0.009-0.095-0.011-0.106-0.072-0.156c-0.088-0.07-0.131-0.186-0.163-0.063c-0.292,0.787-0.593,1.229-0.885,2.016
	c-0.113,0.127-0.328,0.772-0.385,0.919c-0.987,2.555-1.984,5.105-2.919,7.677c-0.319,0.878-0.833,1.22-1.76,1.226
	c-0.889,0.007-1.265-0.421-1.534-1.181c-0.663-1.878-1.371-3.74-2.07-5.605c-0.129-0.346-0.308-0.672-0.464-1.007
	c-0.401-1.07-0.801-2.141-1.201-3.211c-0.197-0.176-0.208-0.441-0.303-0.658c-0.05-0.057-0.027-0.172-0.143-0.186
	c0.045,0.041,0.077,0.093,0.093,0.161c0.1,0.233,0.122,0.45-0.086,0.636v10.857c0.437,0.258,0.548,0.156,1.358,0.803L60.253,60.212z
	"/>
<path style="fill:#081E57;" d="M54.492,41.488c0.272,0.1,0.407,0.312,0.48,0.577c-0.086,0.111-0.172,0.222-0.258,0.333
	c-0.118-0.036-0.167,0.038-0.351-0.109c-0.244-0.197-0.953-1.844,0.057-0.742"/>
<path style="fill:#081E57;" d="M76.081,42.034c-0.129,0.208-1.19,0.935-1.319,1.143c-0.133,0.014-0.235-0.038-0.303-0.154
	c-0.038-0.561,0.753-1.233,1.195-1.07l0.425,0.084L76.081,42.034z"/>
<path style="fill:#081E57;" d="M68.89,61.036c0.059,0.346,0.17,0.613,0.385,0.701C69.541,61.851,69.163,61.165,68.89,61.036z"/>
<path style="fill:#F6F6F8;" d="M70.562,47.553c0.061,0.002,0.122,0.007,0.183,0.009c0.014,0.143,0.027,0.287,0.038,0.43
	c-0.1-0.009-1.118,1.978-1.215,1.969"/>
<path style="fill:#F6F6F8;" d="M58.796,47.924c0.111-0.091,0.231-0.102,0.355-0.032c0.061,0.238,0.905,2.566,0.964,2.801
	c-0.233,0.373-1.213,0.183-1.22-0.459"/>
<path style="fill:#838484;" d="M100.66,48.03c0.491,1.371,1.111,3.53,1.6,4.903c1.462,4.111,2.939,8.218,4.378,12.339
	c1.104,3.163,1.932,6.365,2.109,9.757c0.278,5.365-0.885,10.436-2.625,15.434c-0.133,0.38-0.174,0.794-0.256,1.192
	c0.102,0.057,0.204,0.113,0.305,0.167c0.285-0.256,0.593-0.489,0.851-0.769c1.453-1.575,2.792-3.27,4.36-4.72
	c3.806-3.521,7.951-6.56,12.974-8.155c2.048-0.649,4.136-1.145,6.311-1.05c4.019,0.176,7.68,1.419,10.911,3.819
	c2.754,2.045,4.872,4.616,5.86,7.953c1.054,3.562,0.453,6.833-1.944,9.739c-0.742,0.901-1.462,1.806-2.65,2.349
	c-0.496-0.853-0.975-1.688-1.464-2.516c-2.34-3.973-5.686-6.723-10.162-7.852c-4.964-1.254-9.66-0.502-14.038,2.283
	c-3.195,2.034-5.928,4.505-8.019,7.662c-0.498,0.751-0.941,1.548-1.31,2.369c-0.471,1.043-0.674,2.041-0.045,3.218
	c1.803,3.371,1.274,6.399-1.403,9.153c-0.208,0.215-0.4,0.443-0.563,0.627c-0.011,0.14-0.048,0.231-0.018,0.287
	c1.493,3.111,3.543,5.704,6.881,6.953c1.917,0.717,3.799,0.353,5.494-0.767c0.964-0.638,1.86-1.383,2.865-2.141
	c1.12,1.106,1.661,2.534,2.095,3.994c0.756,2.537-0.086,4.317-2.514,5.399c-2.312,1.032-4.695,0.896-7.071,0.287
	c-2.758-0.706-5.073-2.227-7.207-4.057c-0.376-0.324-0.828-0.557-1.247-0.833l-0.265,0.136c0,0.432-0.005,0.864,0,1.297
	c0.052,4.258-0.582,8.401-2.299,12.316c-0.48,1.095-1.337,2.025-2.023,3.03c-0.593-0.815-0.597-1.756-0.597-2.704
	c0.002-8.254,0-16.509,0-24.763c0-20.767,0-41.534,0-62.302c0-0.679-0.07-1.369,0.088-2.027c0.113-0.468-0.079-1.892,0.634-2.007
	L100.66,48.03z"/>
<path style="fill:#9FA19F;" d="M100.47,48.455c-0.161,0.785-0.143,1.93-0.143,2.715c-0.025,24.804-0.02,49.608-0.02,74.412
	c0,4.335-0.014,8.671,0.011,13.006c0.007,1.084,0.14,2.165,0.215,3.247c-0.285-0.267-0.638-0.489-0.846-0.806
	c-1.774-2.697-2.67-5.716-3.055-8.879c-0.253-2.084-0.324-4.188-0.489-6.284c-0.018-0.24-0.12-0.471-0.213-0.821
	c-1.147,0.851-2.172,1.65-3.238,2.394c-2.251,1.57-4.668,2.774-7.449,3.023c-1.869,0.167-3.679-0.086-5.372-0.968
	c-1.69-0.885-2.487-2.453-2.19-4.381c0.274-1.785,1.082-3.331,2.17-4.829c0.941,0.713,1.799,1.428,2.722,2.043
	c2.15,1.435,4.439,1.579,6.759,0.48c1.629-0.772,2.883-2.043,3.957-3.462c0.724-0.955,1.337-1.993,2.021-3.028
	c-0.64-0.815-1.278-1.545-1.826-2.34c-1.733-2.516-1.726-5.182-0.358-7.802c0.586-1.125,0.5-2.055,0.014-3.093
	c-1.016-2.168-2.365-4.08-4.034-5.813c-2.577-2.675-5.494-4.876-8.99-6.082c-4.985-1.72-9.906-1.491-14.545,1.285
	c-2.996,1.792-5.164,4.34-6.734,7.426c-0.215,0.421-0.45,0.833-0.715,1.315c-2.224-1.385-3.557-3.31-4.448-5.544
	c-1.353-3.385-0.701-6.621,1.122-9.614c3.052-5.016,7.695-7.671,13.382-8.682c3.912-0.697,7.548,0.353,11.056,1.878
	c3.546,1.541,6.707,3.731,9.467,6.446c1.871,1.842,3.645,3.783,5.469,5.675c0.147,0.154,0.346,0.258,0.52,0.387
	c0.091-0.025,0.183-0.05,0.274-0.072c-0.036-0.339-0.027-0.695-0.12-1.018c-0.602-2.095-1.324-4.159-1.824-6.277
	c-1.629-6.904-0.968-13.606,1.584-20.235c1.984-5.154,3.598-10.451,5.376-15.683c0.036-0.106,0.079-0.21,0.12-0.317
	c0.14-0.181,0.208-1.29,0.373-0.299c0.023,0.217-0.023,0.382,0,0.597L100.47,48.455z"/>
<path style="fill:#838484;" d="M100.622,48.163l-0.244,1.143c-0.063-0.405,0.034-1.453-0.029-1.855l0,0
	c0.032-0.011,0.066,0.005,0.077,0.034c0.084,0.197,0.17,0.394,0.253,0.591c0.018,0.041-0.014,0.088-0.059,0.088H100.622z"/>
<path style="fill:#F6F6F8;" d="M74.768,42.457l0.018-0.011c-0.219,0.251-0.557,0.473-0.634,0.763
	c-0.133,0.5-0.143,1.041-0.145,1.566c-0.009,4.295-0.007,8.587-0.002,12.882c0,0.376,0.041,0.751,0.05,1.127
	c0.023,0.824,0.346,1.43,1.152,1.756c0.206,0.084,0.423,0.351,0.505,0.518c0.081,0.167-0.05,0.188-0.131,0.208
	c-0.081,0.02-6.125,0.321-6.066,0c0.023-0.122,0.36-0.695,0.548-0.753c1.14-0.358,1.287-1.274,1.319-2.247
	c0.029-0.864-0.005-1.733,0.007-2.6c0.045-3.464,0.1-6.926,0.147-10.39c0.002-0.217,0.095-0.778-0.027-1.039
	c-2.335,4.623-4.048,9.888-6.066,14.687h-1.618c-1.729-4.829-3.548-9.693-5.308-14.511c-0.131-0.091-0.353-0.124-0.364,0.186
	c0.045,4.654,0.088,9.309,0.14,13.963c0.014,1.12,0.457,1.939,1.724,2.118c0.014,0.086,0.052,0.027,0.043,0.258
	c-0.009,0.231-0.505,0.382-0.758,0.385c-1.5,0.016-3-0.023-4.503-0.045c-0.115-0.154-0.165-0.326-0.136-0.518
	c1.441-0.584,1.74-1.702,1.715-3.159c-0.072-4.292-0.023-8.585-0.029-12.877c0-0.45-0.005-0.907-0.077-1.351
	c-0.111-0.695-0.434-1.22-1.186-1.301c-0.077-0.009-0.149-0.05-0.192-0.115c0,0-0.002-0.005-0.005-0.005
	c-0.176-0.274-0.12-0.652,0.149-0.837l0.005-0.005h4.77c1.747,4.833,3.453,9.553,5.213,14.425c0.247-0.265,0.378-0.346,0.423-0.462
	c1.704-4.342,5.096-13.033,5.096-13.033s0.038-0.149,0.086-0.326l0.715-0.606c1.278-0.138,2.559-0.136,3.84,0
	c0.183,0.063,0.453,0.016,0.584,0.201c0.131,0.186-0.195,0.663-0.195,0.663c-0.269,0.161-0.539,0.321-0.808,0.482L74.768,42.457z"/>
<path style="fill:#838484;" d="M75.187,41.108h-3.844C72.623,41.108,73.906,41.108,75.187,41.108z"/>
<path style="fill:#F6F6F8;" d="M54.662,60.762c0.045,0.172,0.091,0.346,0.136,0.518C54.363,61.21,54.277,61.047,54.662,60.762z"/>
</svg>
