<?xml version="1.0" encoding="utf-8"?>
<!-- Generator: Adobe Illustrator 24.1.2, SVG Export Plug-In . SVG Version: 6.00 Build 0)  -->
<svg version="1.1" id="Layer_1" xmlns="http://www.w3.org/2000/svg" xmlns:xlink="http://www.w3.org/1999/xlink" x="0px" y="0px"
	 viewBox="0 0 200 200" style="enable-background:new 0 0 200 200;" xml:space="preserve">
<path style="fill:#BDA268;" d="M11.628,75.677c1.962,0.398,3.885,0.801,5.787,1.198c1.903,0.398,3.785,0.789,5.674,1.167
	c0.165-1.147,0.219-10.697,0.187-20.093c-0.028-9.396-0.145-18.639-0.318-19.176H7.215V4.62c0.54-0.159,13.414-0.275,26.883-0.315
	c13.468-0.037,27.53,0.006,30.441,0.168c3.487,6.31,6.974,12.617,10.464,18.926c3.49,6.307,6.98,12.614,10.473,18.921
	c2.777-4.975,5.441-10.021,8.073-15.084c2.632-5.063,5.233-10.14,7.889-15.184c2.507,3.927,5.072,7.832,7.687,11.739
	c2.615,3.905,5.285,7.812,8.002,11.739c2.899-5.225,5.773-10.404,8.641-15.573c2.868-5.168,5.725-10.319,8.593-15.482h58.627v34.269
	h-16.05c-0.173,0.582-0.292,9.51-0.332,18.668c-0.04,9.158,0,18.549,0.148,20.054c2.212,1.301,4.316,2.627,6.244,4.157
	c1.928,1.531,3.683,3.271,5.191,5.398c1.488,2.096,2.726,4.47,3.592,6.966c0.866,2.496,1.36,5.114,1.36,7.701
	c0,2.422-0.454,4.859-1.284,7.164c-0.832,2.306-2.039,4.475-3.552,6.361c-1.528,1.905-3.311,3.345-5.262,4.541
	s-4.072,2.141-6.276,3.055v38.932h15.99c0.182,0.534,0.304,8.584,0.341,16.799s-0.014,16.595-0.176,17.793h-68.316V162.97
	c-0.045-0.023-0.088-0.045-0.133-0.065c-0.045-0.02-0.088-0.045-0.133-0.065c-3.811,4.129-7.599,8.283-11.398,12.449
	s-7.61,8.346-11.469,12.529c-4.18-4.075-8.34-8.13-12.511-12.196c-4.171-4.066-8.351-8.141-12.574-12.259v32.954H7.275
	c-0.151-0.948-0.202-9.32-0.173-17.586c0.028-8.266,0.139-16.433,0.31-16.97h15.74c0.295-4.93,0.312-9.905,0.256-14.883
	c-0.057-4.978-0.185-9.956-0.179-14.897c0-0.912,0.156-2.127,0.196-3.317c0.04-1.19-0.034-2.36-0.491-3.18
	c-0.466-0.835-1.377-1.599-2.36-2.3c-0.983-0.701-2.033-1.343-2.777-1.937c-0.931-0.741-1.863-1.482-2.794-2.226
	c-0.931-0.744-1.866-1.482-2.8-2.218c-0.877-0.69-1.826-1.355-2.743-2.056c-0.917-0.701-1.797-1.44-2.536-2.275
	c1.772-0.71,3.555-1.377,5.347-2.033c1.789-0.656,3.584-1.298,5.375-1.954c0.809-0.295,1.386-0.593,1.744-1.045
	c0.358-0.451,0.494-1.051,0.42-1.957c-0.082-1.019-0.321-2.039-0.608-3.053c-0.287-1.014-0.622-2.013-0.892-2.993
	c-1.093-3.964-2.169-7.937-3.268-11.901S12.818,79.615,11.628,75.677L11.628,75.677z M136.302,79.377l1.673-0.727l1.673-0.727
	v-4.859l-1.675,3.155l-1.675,3.155 M63.042,39.88c1.746,0.747,3.416,1.712,5.074,2.712c1.658,1,3.3,2.03,4.995,2.908
	c0.991,0.511,2.834,1.684,4.671,2.434c1.837,0.75,3.666,1.085,4.629-0.077c-3.538-6.398-7.074-12.793-10.606-19.179
	S64.746,15.914,61.231,9.556H12.812v24.12c2.621,0,5.276-0.088,7.931-0.119c2.655-0.031,5.304,0,7.914,0.236
	c0,7.57-0.023,15.138-0.031,22.709c-0.009,7.57-0.006,15.141,0.048,22.709c1.36,0.281,2.723,0.559,4.083,0.843
	c1.36,0.284,2.72,0.565,4.081,0.852c0.713,0.15,1.78,0.457,2.8,0.548c1.019,0.091,1.993-0.034,2.522-0.741
	c0.338-0.454,0.554-1.139,0.727-1.843c0.173-0.704,0.304-1.431,0.469-1.974c0.193-0.63,0.386-1.264,0.579-1.894
	c0.193-0.63,0.386-1.264,0.579-1.894c0.361-1.181,0.707-2.368,1.073-3.55c0.366-1.181,0.753-2.354,1.198-3.507
	c1.258,1.363,2.482,2.689,3.714,4.024c1.232,1.335,2.473,2.681,3.768,4.081V54.232c0.043-0.014,0.085-0.026,0.128-0.04
	c0.043-0.014,0.085-0.026,0.128-0.04c2.899,5.27,5.799,10.541,8.698,15.811c2.899,5.27,5.799,10.541,8.698,15.811
	c-0.071-1.962-0.417-3.95-0.841-5.929s-0.926-3.947-1.306-5.87c-0.366-1.843-0.741-3.686-1.119-5.529
	c-0.378-1.843-0.761-3.683-1.144-5.523c-0.798-3.822-1.627-7.647-2.405-11.478c-0.778-3.834-1.502-7.676-2.09-11.535l0.014-0.014
	l0.014-0.014L63.042,39.88z M17.281,80.751c1.025,3.391,2.016,6.798,2.973,10.217s1.886,6.844,2.789,10.268
	c0.395,1.494,0.821,3.163,0.838,4.762s-0.378,3.129-1.63,4.345c-0.912,0.883-2.252,1.488-3.66,1.985
	c-1.408,0.497-2.879,0.889-4.046,1.346c4.907,3.93,9.834,7.84,14.769,11.739s9.876,7.789,14.817,11.679
	c1.213,0.954,2.425,1.908,3.638,2.862s2.425,1.908,3.64,2.86c1.065,0.835,2.221,1.638,3.283,2.533s2.033,1.88,2.729,3.078
	c1.468,2.53,1.156,4.91,0.301,7.252c-0.855,2.343-2.255,4.651-2.962,7.034c3.97-0.551,7.886-1.093,11.776-1.633
	c3.89-0.54,7.755-1.076,11.617-1.61c3.626,3.595,7.233,7.207,10.822,10.836c3.589,3.629,7.162,7.272,10.72,10.938
	c0-4.339-0.006-8.675-0.009-13.014c-0.003-4.339-0.006-8.675,0-13.014c0.006-4.438-0.065-8.868-0.165-13.295
	c-0.097-4.427-0.221-8.854-0.318-13.292c-2.63-3.484-4.666-7.099-6.372-10.879s-3.078-7.721-4.382-11.856
	c0.051-0.017,0.099-0.037,0.15-0.054s0.099-0.037,0.151-0.054c1.366,3.351,2.922,6.594,4.646,9.751
	c1.724,3.158,3.606,6.23,5.625,9.237c0.216-1.565,0.312-3.129,0.352-4.694c0.043-1.567,0.028-3.135,0.023-4.711
	c-0.006-1.562,0.043-3.138,0.065-4.714c0.026-1.576,0.028-3.149-0.062-4.708c-0.082-1.423-0.551-2.706-1.136-3.953
	c-0.585-1.247-1.284-2.459-1.82-3.74c-0.426-1.011-1.082-2.326-1.593-3.66c-0.511-1.335-0.875-2.692-0.716-3.785
	c0.735,1.863,1.508,3.618,2.36,5.321c0.852,1.704,1.78,3.359,2.825,5.029c0.17-3.55,0.287-7.105,0.349-10.657
	s0.077-7.108,0.048-10.663c-0.006-0.826,0.011-1.65-0.031-2.462s-0.15-1.621-0.406-2.414c-0.264-0.821-0.565-1.627-0.866-2.436
	s-0.599-1.619-0.858-2.442c-0.491-1.556-1.085-3.22-1.556-4.901s-0.821-3.385-0.821-5.018c0.761,2.059,1.494,4.049,2.258,5.989
	s1.559,3.828,2.445,5.682V23.967c-2.056,3.788-4.1,7.585-6.122,11.39c-2.022,3.805-4.024,7.624-5.994,11.461
	c-0.821,1.596-1.729,3.098-2.939,4.149s-2.72,1.647-4.745,1.428c-1.979-0.213-3.941-0.974-5.844-1.897
	c-1.903-0.923-3.745-2.016-5.486-2.885c0,1.783,0.338,3.643,0.767,5.495c0.429,1.851,0.946,3.694,1.306,5.446
	c0.375,1.826,0.75,3.655,1.125,5.481c0.375,1.826,0.744,3.655,1.105,5.483c0.346,1.749,0.667,3.501,0.988,5.253
	c0.321,1.752,0.645,3.504,1,5.251c0.344,1.695,0.934,3.53,1.363,5.375s0.696,3.7,0.398,5.438c-0.301,1.749-1.071,2.737-2.144,3.283
	c-1.073,0.545-2.459,0.647-3.987,0.625c-0.86-0.011-1.579-0.014-2.232-0.17c-0.653-0.156-1.247-0.466-1.854-1.093
	c-0.696-0.721-1.363-1.471-2.025-2.226c-0.662-0.755-1.318-1.516-1.993-2.258c-1.113-1.221-2.266-2.402-3.419-3.584
	c-1.153-1.181-2.303-2.365-3.41-3.586c-1.184-1.309-2.34-2.641-3.507-3.964c-1.167-1.323-2.348-2.632-3.584-3.89
	c-0.795,1.332-1.105,2.922-1.443,4.495c-0.338,1.573-0.701,3.138-1.599,4.421c-0.795,1.136-1.92,1.806-3.163,2.135
	c-1.244,0.329-2.601,0.318-3.862,0.091c-3.564-0.645-7.11-1.389-10.657-2.141c-3.547-0.753-7.088-1.522-10.643-2.215L17.281,80.751z
	 M152.846,114.026l-0.074,0.182l-0.074,0.182c2.164,2.036,4.657,3.657,7.372,4.722c2.712,1.065,5.642,1.579,8.681,1.397
	c2.808-0.168,5.696-0.843,8.377-1.985c2.681-1.142,5.148-2.754,7.119-4.788c3.444-3.555,4.847-8.07,4.68-12.619
	c-0.168-4.549-1.908-9.135-4.754-12.832c-1.479-1.922-3.26-3.575-5.233-4.969c-1.974-1.394-4.135-2.533-6.369-3.427
	c-2.303-0.92-4.901-1.746-7.548-2.306s-5.341-0.86-7.84-0.735c-1.394,0.071-2.831,0.349-4.254,0.707
	c-1.423,0.358-2.834,0.789-4.174,1.167c-1.014,0.287-2.019,0.599-3.016,0.946c-0.997,0.346-1.979,0.721-2.95,1.13
	c-2.36,0.994-4.654,2.158-6.824,3.513c-2.169,1.355-4.223,2.899-6.097,4.654c-1.752,1.638-3.356,3.447-4.785,5.384
	c-1.428,1.937-2.683,4.004-3.731,6.162c-1.176,2.425-1.999,4.87-2.607,7.372c-0.608,2.502-1.002,5.06-1.32,7.712h-4.907
	c-0.185-2.073-0.099-4.1,0.133-6.119c0.233-2.019,0.608-4.027,1-6.065c0.381-1.974,0.835-3.774,1.457-5.506
	c0.622-1.732,1.42-3.399,2.49-5.111c1.755-2.803,3.777-5.466,5.651-8.212c1.874-2.746,3.604-5.571,4.773-8.701
	c1.127-3.013,1.763-6.273,1.732-9.507c-0.028-3.232-0.724-6.437-2.252-9.34c-0.772-1.462-1.715-2.842-2.715-4.186
	s-2.053-2.649-3.038-3.97c-1.09-1.46-2.172-2.928-3.24-4.404c-1.068-1.477-2.121-2.962-3.158-4.464
	c-1.011-1.465-2.013-2.936-3.01-4.407c-0.997-1.471-1.996-2.945-3.002-4.413c-0.877-1.284-1.9-2.533-2.882-3.805
	s-1.934-2.564-2.672-3.927l-0.207,0.051l-0.207,0.051v78.738v78.738c1.105-0.832,2.099-1.917,3.047-3.053
	c0.948-1.136,1.849-2.323,2.763-3.362c0.971-1.102,1.939-2.206,2.902-3.314c0.963-1.107,1.928-2.215,2.888-3.328
	c1.019-1.178,2.036-2.357,3.058-3.533c1.022-1.176,2.047-2.346,3.078-3.515c0.917-1.039,1.939-2.067,2.908-3.135
	s1.883-2.175,2.584-3.371c-2.013-2.158-4.066-4.316-5.932-6.616c-1.866-2.297-3.544-4.734-4.808-7.44
	c-0.588-1.261-1.073-2.576-1.417-3.924c-0.344-1.349-0.548-2.732-0.574-4.129c-0.026-1.408,0.258-2.82,0.653-4.211
	c0.395-1.391,0.894-2.763,1.295-4.1c2.493,5.75,5.358,12.179,9.399,17.316s9.254,8.982,16.442,9.567
	c3.004,0.244,6.679,0.179,9.825-0.826c3.146-1.005,5.764-2.95,6.656-6.466c0.383-1.519,0.483-2.97,0.213-4.33
	c-0.27-1.36-0.906-2.635-1.993-3.797c-0.511-0.545-1.068-1.051-1.661-1.511s-1.221-0.877-1.871-1.241
	c-0.619-0.346-1.349-0.806-2.11-1.156c-0.761-0.349-1.55-0.585-2.292-0.483c-0.116,0.568-0.213,1.207-0.366,1.826
	c-0.153,0.619-0.361,1.218-0.699,1.709c-0.363,0.528-0.943,0.965-1.579,1.329s-1.326,0.656-1.917,0.897
	c-1.343,0.548-2.76,0.872-4.191,0.957c-1.431,0.085-2.871-0.074-4.262-0.486c-1.249-0.372-2.436-0.914-3.541-1.593
	c-1.105-0.679-2.13-1.488-3.064-2.394c-1.159-1.124-1.985-2.169-2.559-3.334c-0.574-1.164-0.9-2.442-1.051-4.038
	c1.69,0.17,2.754-1.054,3.234-2.641c0.48-1.587,0.375-3.541-0.278-4.833c-0.116-0.23-0.292-0.417-0.505-0.548
	c-0.213-0.131-0.46-0.21-0.716-0.224c-0.27-0.014-0.545-0.028-0.829-0.043c-0.284-0.014-0.576-0.028-0.88-0.045
	c0.207-1.8,0.372-3.558,0.71-5.268c0.338-1.709,0.846-3.376,1.744-4.992c0.852-1.536,1.82-2.842,2.936-4.007
	s2.385-2.181,3.845-3.138c2.848-1.874,6.088-3.339,9.467-4.262c3.379-0.923,6.9-1.303,10.316-1.011
	c1.709,0.148,3.481,0.454,5.188,0.968c1.707,0.514,3.345,1.232,4.779,2.206c1.13,0.767,2.28,1.903,3.112,3.209
	c0.832,1.306,1.352,2.783,1.215,4.223c-0.145,1.539-0.832,2.967-1.812,4.183c-0.98,1.213-2.249,2.212-3.561,2.896
	c-1.613,0.841-3.314,1.187-5.052,1.323c-1.738,0.136-3.51,0.065-5.27,0.065L152.846,114.026z M137.682,9.547
	c-2.842,5.12-5.691,10.248-8.539,15.377s-5.699,10.262-8.547,15.391c1.525,2.766,3.521,5.242,5.5,7.732
	c1.979,2.49,3.939,4.995,5.39,7.818c0.69,1.343,1.207,2.746,1.585,4.188c0.378,1.443,0.613,2.925,0.741,4.424
	c0.128,1.494,0.017,2.945-0.148,4.39c-0.165,1.445-0.381,2.888-0.457,4.362c2.019-3.498,3.961-7.022,5.884-10.544
	c1.922-3.521,3.831-7.045,5.782-10.544l0.136,0.045l0.136,0.045v23.498c2.172-0.596,4.382-1.278,6.619-1.797
	c2.238-0.52,4.501-0.88,6.778-0.829c2.161,0.048,4.296,0.338,6.412,0.733c2.116,0.395,4.217,0.9,6.313,1.374V33.786
	c2.661-0.21,5.353-0.236,8.048-0.21c2.695,0.026,5.39,0.102,8.059,0.102V9.547h-49.685H137.682z M171.25,166.869v-42.904
	c-2.896,0.349-5.901,0.256-8.814-0.298c-2.913-0.554-5.736-1.57-8.263-3.064c-1.991-1.178-3.976-2.959-5.418-5.063
	c-1.443-2.104-2.337-4.538-2.15-7.02c1.942,0.576,3.862,1.153,5.81,1.508c1.948,0.355,3.922,0.483,5.972,0.162
	c1.281-0.202,2.919-0.815,4.16-1.783c1.241-0.968,2.081-2.289,1.763-3.907c-0.321-1.627-1.496-2.783-2.942-3.604
	c-1.445-0.821-3.149-1.306-4.529-1.596c-2.005-0.42-3.944-0.591-5.875-0.52s-3.856,0.383-5.827,0.923v27.121
	c1.017-0.395,2.221-0.287,3.408,0.014s2.357,0.798,3.305,1.181c1.014,0.409,1.999,0.892,2.945,1.44
	c0.946,0.548,1.851,1.161,2.712,1.837c1.69,1.326,3.058,2.86,3.956,4.614c0.897,1.755,1.318,3.726,1.107,5.929
	c-0.179,1.877-0.673,3.677-1.511,5.29c-0.838,1.613-2.016,3.038-3.564,4.16c-1.888,1.369-3.902,2.079-5.994,2.536
	c-2.093,0.454-4.265,0.656-6.466,1.011v11.98c-2.473,0-4.907,0.142-7.409,0.111c-2.502-0.034-5.299,0.094-7.542-0.06v24.688
	c4.751,0,9.501,0,14.252,0s9.501,0,14.252,0c2.505,0,5.009,0,7.514,0c2.505,0,5.009,0,7.514,0c1.252,0,2.505,0,3.757,0
	c1.252,0,2.505,0,3.757,0c0.687,0,2.008-0.182,3.28-0.148c1.272,0.034,2.496,0.284,3.002-0.29v-24.242h-16.158L171.25,166.869z
	 M48.242,167.324c0.86-2.045,1.783-4.061,2.709-6.074c0.926-2.013,1.851-4.027,2.72-6.065c0.295-0.696,0.52-1.411,0.613-2.138
	s0.054-1.465-0.179-2.209c-0.295-0.946-0.912-1.673-1.633-2.306c-0.721-0.633-1.556-1.181-2.294-1.763
	c-3.592-2.842-7.179-5.693-10.774-8.533c-3.595-2.84-7.198-5.668-10.828-8.462v37.04c-2.632,0-5.265-0.003-7.897,0
	c-2.632,0.003-5.265,0.014-7.897,0.04v24.54c0.889,0.148,15.158,0.202,29.325,0.185c14.167-0.02,28.229-0.111,28.709-0.256
	c0.136-0.647,0.196-6.508,0.185-12.338s-0.094-11.634-0.241-12.168c-1.954,0-3.907-0.006-5.861-0.009
	c-1.954-0.003-3.907-0.003-5.861,0.006c-0.877,0.006-1.763-0.043-2.644-0.088s-1.761-0.088-2.63-0.074
	c-0.892,0.014-1.826,0.133-2.757,0.273c-0.931,0.139-1.868,0.304-2.76,0.403L48.242,167.324z M139.591,134.108v-32.372
	c-1.232,0.602-2.434,1.295-3.547,2.098c-1.113,0.804-2.144,1.724-3.036,2.777c-0.858,1.014-1.763,2.314-2.405,3.706
	c-0.642,1.391-1.011,2.877-0.801,4.254c2.294,1.511,3.109,4.135,2.956,6.829c-0.153,2.695-1.275,5.458-2.851,7.25
	c1.278,1.525,2.598,2.913,4.152,3.907S137.393,134.154,139.591,134.108z M133.218,153.032c-1.335,1.474-2.632,2.908-3.924,4.336
	c-1.292,1.428-2.576,2.845-3.882,4.288h14.249c0-1.11,0.108-2.348,0.142-3.578s0-2.451-0.287-3.53
	c-2.152-0.565-4.112-1.247-6.009-2.076c-1.897-0.829-3.734-1.8-5.64-2.945c0.542,1.09,1.312,1.826,2.226,2.36
	c0.914,0.534,1.979,0.863,3.121,1.144L133.218,153.032z M59.686,80.146c1.178,1.244,2.388,2.499,3.586,3.743
	c1.198,1.244,2.394,2.468,3.541,3.652c-1.187-2.164-2.377-4.325-3.564-6.489c-1.187-2.164-2.377-4.325-3.564-6.489v2.791V80.146
	L59.686,80.146z"/>
<path style="fill:#681A2C;" d="M17.281,80.751c7.108,1.391,14.173,3.067,21.297,4.359c2.522,0.457,5.435,0.045,7.025-2.226
	c1.797-2.564,1.451-6.25,3.041-8.916c2.47,2.522,4.722,5.239,7.091,7.854c2.215,2.448,4.603,4.731,6.827,7.17
	c1.349,1.479,2.627,3.044,4.018,4.484c1.213,1.255,2.365,1.241,4.086,1.264c3.058,0.043,5.529-0.409,6.134-3.907
	c0.596-3.473-1.073-7.423-1.763-10.811c-0.71-3.493-1.295-7.011-1.988-10.507c-0.727-3.657-1.479-7.312-2.229-10.964
	c-0.718-3.504-2.073-7.375-2.073-10.941c3.481,1.741,7.372,4.359,11.33,4.782c4.044,0.434,6.043-2.385,7.684-5.577
	c3.941-7.67,8.005-15.272,12.117-22.851v47.868c-1.772-3.714-3.18-7.551-4.702-11.671c0,3.268,1.394,6.809,2.377,9.922
	c0.52,1.647,1.193,3.237,1.724,4.876c0.514,1.587,0.426,3.226,0.44,4.879c0.06,7.11-0.054,14.218-0.398,21.32
	c-2.096-3.339-3.714-6.622-5.185-10.351c-0.321,2.189,1.457,5.424,2.309,7.446c1.076,2.561,2.794,4.844,2.956,7.693
	c0.179,3.115-0.014,6.298-0.003,9.419c0.009,3.149,0.054,6.276-0.378,9.405c-4.035-6.014-7.539-12.287-10.268-18.986
	c-0.099,0.037-0.199,0.071-0.298,0.108c2.604,8.272,5.495,15.769,10.754,22.734c0.193,8.874,0.494,17.708,0.483,26.588
	c-0.011,8.675,0.009,17.353,0.009,26.028c-7.113-7.329-14.289-14.582-21.542-21.774c-7.727,1.071-15.456,2.144-23.393,3.246
	c1.414-4.771,5.6-9.229,2.664-14.286c-1.391-2.397-3.879-3.941-6.009-5.611c-2.428-1.905-4.85-3.814-7.275-5.725
	c-9.882-7.781-19.77-15.556-29.586-23.419c2.337-0.917,5.887-1.565,7.707-3.331c2.505-2.431,1.579-6.119,0.792-9.107
	c-1.806-6.852-3.711-13.701-5.764-20.485L17.281,80.751z M42.875,124.808c1.022,1.721,4.353,2.701,6.156,3.447
	c2.402,0.997,4.879,1.815,7.409,2.422c5.14,1.235,10.245,1.505,15.507,1.505c4.969,4.461,9.913,8.897,14.891,13.363
	c1.235-0.48,2.456-0.954,3.814-1.482c-1.284-0.951-2.374-1.761-3.365-2.496c-1.599-8.576-3.374-19.026-10.282-25.139
	c0.224,1.542,1.417,3.169,2.022,4.606c0.738,1.758,1.437,3.535,2.036,5.347c1.107,3.348,2.255,7.19,1.775,10.754
	c-6.5-5.938-12.889-11.77-19.122-17.467c-0.264-3.22-0.383-6.483-0.954-9.666c-0.5-2.777-1.031-6.48-2.862-8.746 M36.597,97.573
	c1.746,2.797,5.052,5.097,7.44,7.4c2.678,2.581,5.35,5.171,8.019,7.764c5.356,5.202,11.015,10.211,16.104,15.675
	c-1.82,0.63-4.572,0.128-6.491,0.031c-2.206-0.114-4.41-0.327-6.596-0.639c-4.18-0.596-8.164-1.817-12.208-2.976 M35.208,96.409
	l24.708,4.827c0.381,2.913,1.198,5.745,1.391,8.686c0.148,2.277,0.258,5.145-1.576,6.832c-8.031-5.989-15.189-13.065-23.095-19.222"
	/>
<path style="fill:#681A2C;" d="M163.168,112.638c2.624-1.366,5.083-3.998,5.373-7.079c0.273-2.882-2.07-5.901-4.328-7.434
	c-2.871-1.948-6.551-2.879-9.967-3.175c-6.832-0.588-14.087,1.522-19.784,5.27c-2.919,1.92-5.074,4.069-6.781,7.145
	c-1.795,3.234-2.039,6.659-2.453,10.26c0.616,0.031,1.181,0.06,1.729,0.088c0.503,0.026,0.965,0.307,1.193,0.755
	c1.318,2.573,0.44,7.832-2.948,7.491c0.307,3.192,1.295,5.12,3.612,7.372c1.863,1.812,4.103,3.24,6.605,3.984
	c2.78,0.826,5.767,0.625,8.454-0.469c1.181-0.483,2.769-1.17,3.496-2.226c0.676-0.983,0.832-2.399,1.065-3.535
	c1.482-0.202,3.163,0.946,4.401,1.638c1.301,0.73,2.513,1.661,3.533,2.752c2.175,2.326,2.55,5.091,1.78,8.13
	c-1.78,7.031-10.473,7.778-16.481,7.289c-14.377-1.167-20.854-15.382-25.841-26.88c-0.801,2.672-2.002,5.492-1.948,8.312
	c0.054,2.794,0.815,5.532,1.993,8.053c2.527,5.412,6.716,9.743,10.742,14.056c-1.403,2.391-3.655,4.427-5.489,6.503
	c-2.062,2.334-4.103,4.688-6.139,7.045c-1.92,2.223-3.851,4.438-5.79,6.642c-1.829,2.079-3.601,4.748-5.81,6.412V23.567
	c0.221-0.054,0.19-0.048,0.412-0.102c1.474,2.729,3.797,5.168,5.554,7.732c2.01,2.936,3.993,5.892,6.014,8.82
	c2.073,2.999,4.214,5.946,6.398,8.865c1.974,2.641,4.211,5.228,5.753,8.155c3.058,5.804,2.774,12.818,0.52,18.844
	c-2.343,6.259-6.915,11.305-10.424,16.913c-2.141,3.419-3.186,6.667-3.95,10.617c-0.789,4.078-1.502,8.036-1.133,12.185h4.907
	c0.636-5.302,1.573-10.237,3.927-15.084c2.093-4.316,5.015-8.269,8.516-11.549c3.748-3.51,8.198-6.182,12.92-8.17
	c1.942-0.818,3.939-1.502,5.966-2.073c2.683-0.758,5.64-1.732,8.428-1.874c4.995-0.253,10.779,1.198,15.388,3.041
	c4.47,1.789,8.647,4.555,11.603,8.4c5.688,7.397,6.96,18.344,0.074,25.452c-3.941,4.069-9.876,6.44-15.496,6.773
	c-6.256,0.369-12.054-2.192-16.43-6.483c3.686-0.037,7.457,0.372,10.845-1.391H163.168z"/>
<path style="fill:#424242;" d="M63.014,39.909c1.178,7.721,2.896,15.368,4.495,23.015c0.77,3.68,1.528,7.363,2.263,11.052
	c0.767,3.839,2.005,7.877,2.15,11.799c-5.799-10.541-11.6-21.082-17.399-31.622c-0.085,0.026-0.17,0.054-0.258,0.08v19.923
	c-2.587-2.803-4.967-5.381-7.482-8.104c-0.889,2.303-1.545,4.694-2.269,7.057c-0.386,1.264-0.772,2.527-1.159,3.791
	c-0.329,1.082-0.52,2.908-1.195,3.816c-1.054,1.417-3.893,0.497-5.321,0.193c-2.718-0.576-5.441-1.133-8.164-1.695
	c-0.108-15.138-0.017-30.279-0.017-45.417c-5.222-0.474-10.603-0.119-15.845-0.119V9.556h48.416
	c7.034,12.716,14.105,25.506,21.181,38.301c-1.922,2.326-7.318-1.332-9.3-2.357c-3.388-1.752-6.577-4.126-10.069-5.62"/>
<path style="fill:#424242;" d="M137.682,9.547h49.685v24.131c-5.339,0-10.782-0.31-16.104,0.108v41.425
	c-4.194-0.951-8.403-2.01-12.724-2.107c-4.555-0.099-9.056,1.437-13.397,2.627V52.233l-0.27-0.094
	c-3.905,6.997-7.624,14.093-11.665,21.087c0.156-2.95,0.863-5.767,0.605-8.752c-0.258-2.999-0.946-5.926-2.326-8.613
	c-2.902-5.645-7.837-10.018-10.89-15.55c5.699-10.26,11.401-20.528,17.089-30.768L137.682,9.547z"/>
<path style="fill:#424242;" d="M171.25,166.869h16.158v24.62l-6.281,0.06c-2.505,0-5.009,0-7.514,0c-5.009,0-10.018,0-15.025,0
	c-9.501,0-19.003,0-28.504,0v-24.688c5.994-0.026,10.001-0.051,14.951-0.051v-11.98c4.401-0.707,8.686-0.806,12.46-3.547
	c3.092-2.243,4.719-5.696,5.074-9.45c0.42-4.407-1.687-7.886-5.063-10.541c-1.721-1.352-3.629-2.459-5.657-3.277
	c-1.9-0.767-4.68-1.982-6.716-1.195V99.697c3.941-1.082,7.698-1.247,11.705-0.406c2.76,0.579,6.829,1.945,7.471,5.202
	c0.636,3.234-3.362,5.287-5.923,5.691c-4.103,0.647-7.897-0.52-11.782-1.67c-0.372,4.961,3.584,9.726,7.568,12.083
	c5.057,2.99,11.288,4.061,17.08,3.362v42.904L171.25,166.869z"/>
<path style="fill:#424242;" d="M48.242,167.324c1.786-0.202,3.734-0.65,5.517-0.676c1.735-0.026,3.518,0.173,5.273,0.162
	c3.907-0.02,7.818,0,11.725,0c0.292,1.071,0.329,23.211,0.057,24.506c-0.96,0.29-56.253,0.369-58.034,0.071v-24.54
	c5.265-0.054,10.529-0.04,15.794-0.04v-37.04c7.258,5.591,14.417,11.31,21.601,16.998c1.474,1.164,3.334,2.178,3.927,4.069
	c0.466,1.485,0.159,2.956-0.432,4.345c-1.735,4.078-3.709,8.05-5.429,12.142L48.242,167.324z"/>
<path style="fill:#FEFEFE;" d="M136.299,79.371h0.003"/>
<path style="fill:#BDA268;" d="M59.896,101.254c1.832,2.266,2.363,5.969,2.862,8.746c0.574,3.183,0.69,6.446,0.954,9.666
	c6.236,5.693,12.622,11.529,19.122,17.467c0.483-3.564-0.667-7.406-1.775-10.754c-0.599-1.812-1.298-3.589-2.036-5.347
	c-0.602-1.434-1.795-3.061-2.022-4.606c6.909,6.114,8.684,16.564,10.282,25.139c0.991,0.735,2.081,1.545,3.365,2.496
	c-1.357,0.528-2.578,1.002-3.814,1.482c-4.978-4.467-9.922-8.902-14.891-13.363c-5.262,0-10.368-0.27-15.507-1.505
	c-2.53-0.608-5.006-1.425-7.409-2.422c-1.8-0.747-5.134-1.729-6.156-3.447l-0.014,0.017c4.046,1.159,8.028,2.38,12.208,2.976
	c2.187,0.312,4.39,0.525,6.596,0.639c1.92,0.099,4.671,0.602,6.491-0.031c-5.086-5.461-10.748-10.473-16.104-15.675
	c-2.669-2.593-5.339-5.182-8.019-7.764c-2.388-2.303-5.693-4.603-7.44-7.4l0.037-0.037c7.906,6.156,15.064,13.233,23.095,19.222
	c1.834-1.687,1.724-4.555,1.576-6.832c-0.193-2.945-1.028-5.759-1.408-8.672l0,0L59.896,101.254z"/>
<path style="fill:#BDA268;" d="M36.634,97.534l-0.037,0.037"/>
<path style="fill:#BDA268;" d="M63.042,39.88l-0.028,0.028"/>
</svg>
