<?xml version="1.0" encoding="utf-8"?>
<!-- Generator: Adobe Illustrator 24.1.2, SVG Export Plug-In . SVG Version: 6.00 Build 0)  -->
<svg version="1.1" id="Layer_1" xmlns="http://www.w3.org/2000/svg" xmlns:xlink="http://www.w3.org/1999/xlink" x="0px" y="0px"
	 viewBox="0 0 200 200" style="enable-background:new 0 0 200 200;" xml:space="preserve">
<path style="fill:#EEEDEE;" d="M198.059,54.064c0,0.11-0.018,0.233-0.031,0.342l-3.65,18.408c-0.14,0.662-0.632,1.202-1.294,1.36
	c0,0-0.053,0.018-0.154,0.039l-0.092,0.452c-0.171,0.807-0.785,1.435-1.588,1.641c0,0-2.602,0.649-4.527,1.132
	c-0.509,2.545-1.29,6.51-1.404,7.054c0.719,2.176,1.127,4.282,1.167,6.256v0.61c0,3.347-0.557,12.201-5.971,19.496
	c-0.456,0.619-0.956,1.211-1.496,1.799c-0.039,0.061-0.07,0.123-0.114,0.18c-5.826,7.849-19.049,14.28-23.896,14.763l-2.452,0.338
	c-0.627,0.083-1.263-0.101-1.737-0.526c-0.465-0.399-0.733-1.005-0.733-1.619c0-0.009,0.053-3.589,0.053-3.633
	c0.022-0.579,0.031-1.141,0.031-1.68c0-3.602-0.491-6.234-1.452-7.923l-4.778,24.467c-0.145,0.763-0.772,1.329-1.535,1.421
	c0,0-0.272,0.022-0.741,0.079l-0.132,0.61c-0.175,0.934-0.956,1.645-1.908,1.737c0,0-5.896,0.592-12.459,1.263
	c0.022,0.114,0.048,0.246,0.048,0.369c0,0.11-0.018,0.224-0.031,0.325l-0.491,2.615c-0.294,1.588-1.391,4.181-3.694,6.589
	c-2.645,3.821-7.954,7.949-17.456,7.985c-0.987,2.338-2.422,4.751-4.506,6.927c-2.571,3.426-6.489,6.703-12.516,8.45l-0.478,0.14
	c-0.307,0.092-0.623,0.114-0.943,0.061l-0.496-0.079c-4.435-0.689-7.8-2.61-10.007-5.712c-1.443-2.044-2.259-4.523-2.509-7.331
	c-5.817,0.693-10.279-0.325-13.249-3.08c-2.817-2.615-3.246-5.809-3.246-7.484l0.162-1.772c0,0,0.193-1.049,0.254-1.36
	c-4.585,0.434-9.744,0.917-9.744,0.917c-0.68,0.061-1.351-0.202-1.807-0.702c-0.369-0.399-0.562-0.926-0.562-1.457
	c0-0.14,0.018-0.272,0.039-0.408c0,0,1.325-6.822,2.075-10.687c-6.326,1.575-43.318,10.827-43.318,10.827
	c-0.724,0.175-1.483-0.018-2.022-0.531c-0.531-0.518-0.772-1.263-0.623-1.992c0,0,6.611-33.364,6.62-33.434
	c0,0,3.865-16.868,3.865-16.851l0.053-0.233c0.123-0.583,0.496-1.088,1.018-1.395c0,0,0.316-0.189,0.834-0.491l0.487-2.435
	c0.11-0.535,0.456-0.996,0.956-1.233c0,0,10.463-5.098,11.113-5.414c6.002-7.818,13.828-13.196,22.098-15.14
	c3.79-0.886,7.476-1.005,11.012-0.373c0.75-0.355,13.92-6.524,18.478-8.656c1.869-4.975,4.637-9.559,7.949-13.736
	c7.331-10.538,18.312-18.707,27.525-24.256l1.136-0.68c0.548-0.333,1.224-0.333,1.781-0.018l1.141,0.662
	c3.374,1.952,6.445,4.146,9.16,6.537c0.763-0.233,1.518-0.443,2.224-0.61l0.233-0.053l0.285-0.066
	c0.785-0.175,1.566-0.307,2.33-0.408c0,0,0.123-0.018,0.162-0.018l0.509-0.057l1.974-0.127c4.374-0.171,8.52,0.978,12.012,3.339
	c4.659,3.15,7.607,8.081,8.305,13.89c0.11,0.851,0.162,1.711,0.162,2.571c0,4.624-1.465,9.283-4.212,13.346
	c-1.057,1.636-2.308,3.119-3.742,4.47c0.592-0.167,1.189-0.333,1.807-0.491c2.729-0.68,6.567-1.404,10.161-0.662
	c0.018-0.048,0.048-0.228,0.048-0.228c0.132-0.662,0.641-1.198,1.294-1.36l27.639-6.905l7.432-1.865
	c0.588-0.145,1.198,0.022,1.636,0.434c0.347,0.333,0.548,0.794,0.548,1.268 M78.984,79.983l-1.72-7.901l-3.216,1.233l4.94,6.668"/>
<path style="fill:#231F20;" d="M184.748,90.775c-0.14-6.032-3.812-13.231-8.752-17.101c-10.634-8.335-22.115-8.375-35.101-0.127
	c-6.633,4.22-12.354,11.24-16.767,16.969c3.15-5.971,6.445-12.508,10.007-19.834c3.08-6.335,4.352-12.043,4.352-17.136
	c0-15.851-12.354-25.844-21.242-30.982l-1.149-0.662l-1.136,0.68c-13.381,8.05-34.829,24.449-34.829,46.687
	c0,1.478,0.092,2.979,0.294,4.51c1.167,9.015,2.391,16.767,3.711,23.69C78.186,76.438,65.27,66.102,49.499,69.809
	c-8.805,2.071-17.215,8.344-23.063,17.219c-6.221,9.41-8.555,20.203-6.572,30.359c1.443,7.414,8.208,15.596,17.013,16.443
	l1.729,0.162l0.873-2.382c2.623-7.309,7.362-16.403,15.07-18.202c5.238-1.228,9.805-0.592,12.521,1.72
	c1.72,1.465,2.623,3.597,2.777,6.282c-3.119,0.276-15.372,1.364-15.372,1.364l-4.466,23.015c0,0,17.408-1.628,25.757-2.4
	c-2.702,1.36-6.541,2.654-12.091,3.58l-1.557,0.254c0,0-0.408,1.891-0.399,2.931c0.009,1.891,0.658,4.15,2.545,5.905
	c2.865,2.645,7.533,3.374,13.881,2.167c-0.018,0.254-0.039,0.496-0.039,0.763c0,2.602,0.526,5.418,2.215,7.8
	c1.843,2.61,4.729,4.238,8.564,4.839l0.5,0.07l0.478-0.14c10.038-2.917,13.789-10.301,15.206-15.526
	c14.39,1.009,18.965-7.322,19.909-10.941c0.347-1.351,0.487-2.615,0.487-2.615l-2.663-0.048c-5.681-0.101-10.007-0.996-12.012-2.378
	c6.102-0.658,31.442-3.396,31.442-3.396l4.313-22.085c0,0-13.736,1.228-18.628,1.667c4.168-7.625,12.516-10.555,19.237-9.946
	c5.194,0.469,7.445,4.971,7.098,14.188l-0.053,3.549c0,0,1.294,0.031,2.61-0.276c5.317-1.233,16.86-6.629,22.308-13.96
	c5.098-6.888,5.642-15.271,5.642-18.443c0-0.211,0-0.408-0.009-0.579"/>
<path style="fill:#416CB4;" d="M101.315,103.897L101.315,103.897l14.806-76.743c-12.56,7.756-31.491,22.668-31.491,42.142
	c0,1.281,0.092,2.584,0.254,3.896c1.228,9.419,2.492,17.452,3.883,24.563l1.272,6.129l11.275,0.009"/>
<path style="fill:#416CB4;" d="M79.941,99.128c-5.247-19.009-15.956-28.104-29.407-24.941c-11.889,2.795-23.489,15.114-26.244,29.63
	l59.142,0.07l-2.308-0.009c-0.355-1.562-0.75-3.15-1.189-4.751"/>
<path style="fill:#BABABB;" d="M24.295,103.814c-0.404,2.097-0.619,4.255-0.619,6.431s0.193,4.181,0.601,6.282
	c1.009,5.194,5.554,11.034,11.398,12.477c4.33-11.472,10.318-18.224,17.847-19.992c6.651-1.544,12.652-0.57,16.474,2.694
	c2.062,1.759,4.413,4.971,4.413,10.463c0,0.469-0.018,0.948-0.053,1.457l-0.132,1.913c0,0-13.28,1.171-15.978,1.413
	c-0.439,2.268-1.952,10.086-2.672,13.797c4.843-0.456,31.697-2.961,31.697-2.961s-1.233,2.308-2.593,3.926
	c-4.462,5.317-9.103,7.515-18.347,9.323c0.123,0.557,0.395,1.171,0.996,1.72c1.198,1.11,4.431,2.623,12.802,0.417l3.435-0.913
	l-0.649,3.488c-0.154,0.847-0.307,1.983-0.307,3.216c0,1.768,0.316,3.703,1.382,5.225c1.066,1.496,2.764,2.422,5.133,2.878
	c0.009,0,0.018-0.009,0.022-0.009l12.174-63.161l-77.02-0.083"/>
<path style="fill:#BABABB;" d="M147.572,101.809c5.133,0.465,11.086,3.808,11.205,16.732c4.606-1.707,13.008-6.427,16.719-11.428
	c3.51-4.738,4.751-11.099,4.751-15.688c0-0.18,0-0.364-0.009-0.544c-0.092-4.655-3.185-10.661-7.015-13.67
	c-5.716-4.47-15.03-9.323-29.916,0.136c-6.73,4.269-12.709,12.104-17.075,17.834l-1.202,1.566c-1.812,2.369-3.387,4.786-4.769,7.182
	l14.692,0.022c3.821-1.75,8.134-2.536,12.617-2.137"/>
<path style="fill:#BABABB;" d="M112.726,102.011l4.098-7.375c4.111-7.537,8.45-16.013,13.271-25.923
	c2.707-5.576,3.856-10.604,3.856-15.114c0-12.455-8.783-20.979-17.816-26.454c-0.009,0-0.009,0.009-0.018,0.009l-14.806,76.743
	l10.371,0.018l1.04-1.9"/>
<path style="fill:#416CB4;" d="M101.315,103.897l-12.174,63.161c8.651-2.777,11.209-9.836,11.959-13.859l0.386-2.093l2.106,0.272
	c9.16,1.141,13.767-1.97,15.75-4.624c-8.717-0.671-13.394-3.76-14.877-7.98c-0.566-1.606-0.619-2.509-0.619-2.509
	s31.622-3.404,34.605-3.729c0.426-2.185,1.812-9.327,2.523-12.946c-4.264,0.377-19.838,1.768-19.838,1.768l1.088-3.255
	c2.132-6.458,6.822-11.463,12.731-14.162l-33.64-0.048"/>
<polygon style="fill:#EEEDEE;" points="137.315,66.971 126.799,70.77 130.599,79.395 "/>
<path style="fill:#231F20;" d="M161.251,62.816l-0.408,2.097c-3.571-1.395-7.87-0.645-11.095,0.149
	c-11.249,2.825-15.719,8.362-18.079,14.956l-0.333-4.878l1.351-5.256l-7.3,1.895l-15.438,3.856l-2.768,6.414
	c-0.154-0.171-0.294-0.333-0.456-0.496c-3.821-3.628-9.538-2.724-13.512-1.729l-16.838,4.203l-37.808,9.454l1.821-9.191
	l-13.078,3.264l0.145-1.952l-10.801,4.615L6.11,143.403l82.416-20.593c0,0,1.812-9.112,2.509-12.609
	c0.018-0.009,0.184-0.048,0.184-0.048c1.557-0.386,3.023-0.886,4.405-1.474l-5.997,13.859l44.204-11.055l-0.145-1.974
	c3.558,1.382,7.884,0.662,11.521-0.246c7.375-1.838,12.661-5.651,15.842-11.354c-0.803,4.049-1.413,7.125-1.413,7.125l20.874-5.225
	l5.063-25.581l7.116-1.772l3.641-18.408l-35.079,8.765"/>
<g>
	<polygon style="fill:#FFFFFF;" points="38.606,98.479 53.763,94.693 52.78,114.404 52.881,114.382 60.344,93.043 75.172,89.336 
		68.543,122.797 58.72,125.262 63.546,100.883 63.445,100.914 54.017,126.425 46.502,128.307 46.73,105.09 46.63,105.117 
		41.799,129.487 31.985,131.944 	"/>
	<path style="fill:#FFFFFF;" d="M118.113,98.606l-4.747,1.185l5.115-14.324l0.11-0.031L118.113,98.606z M117.959,110.451
		l10.748-2.685L126.571,76.5l-13.117,3.273L97.998,115.44l10.762-2.685l2.053-5.379l6.997-1.742l0.145,4.821"/>
	<polygon style="fill:#FFFFFF;" points="20.82,94.189 18.986,103.458 32.249,100.107 18.083,107.999 12.371,136.844 25.681,133.514 
		34.131,90.863 	"/>
	<polygon style="fill:#FFFFFF;" points="165.428,66.782 163.862,74.657 181.322,70.288 170.227,76.609 165.897,98.462 
		176.338,95.856 181.406,70.274 188.513,68.493 190.079,60.623 	"/>
	<path style="fill:#FFFFFF;" d="M94.392,84.541l-13.841,3.453l-1.614,8.112l22.607-5.769l-23.774,11.678l-3.852,19.435l10.446-2.61
		l2.492-12.609l3.185-0.798c7.054-1.764,12.872-6.067,14.35-13.517c1.452-7.357-2.022-9.384-10.007-7.379"/>
	<path style="fill:#FFFFFF;" d="M149.41,89.915l-0.934,4.558l-5.194,1.312l3.409-16.746l5.199-1.299l-1.869,9.165l10.564-5.879
		l0.671-3.769c1.027-5.199,0.794-10.261-10.332-7.48c-13.425,3.347-14.815,10.38-16.868,20.742
		c-2.115,10.683-3.448,17.382,9.976,14.026c9.143-2.286,13.534-7.655,15.083-15.478l0.325-1.636l-10.038,2.479"/>
</g>
<g>
	<path style="fill:#FFFFFF;" d="M70.342,130.36c-0.061,0.031-2.382,2.448-2.83,2.895c-0.14-0.193-1.829-2.43-1.829-2.43l-1.097,0.11
		l-0.886,4.729l1.18-0.114l0.54-2.869c0,0,0.009-0.053,0.018-0.114c0.022,0.048,0.061,0.114,0.061,0.114l1.518,2.128l0.294-0.031
		c0.07-0.031,2.4-2.479,2.4-2.479s0.022-0.031,0.053-0.07c-0.018,0.083-0.54,2.891-0.54,2.891l1.329-0.132l0.877-4.738l-0.14,0.018
		L70.342,130.36"/>
	<path style="fill:#FFFFFF;" d="M79.835,129.421l-3.729,0.377c-1.035,0.101-1.395,0.399-1.557,1.272l-0.456,2.382
		c-0.083,0.439-0.053,0.711,0.114,0.877c0.162,0.193,0.478,0.246,1.066,0.184l3.733-0.364c1.027-0.11,1.395-0.399,1.557-1.281
		l0.439-2.378c0.092-0.447,0.061-0.715-0.101-0.886c-0.171-0.193-0.487-0.237-1.07-0.193 M79.634,130.461
		c-0.048,0.254-0.461,2.479-0.491,2.632c-0.154,0.018-3.396,0.333-3.659,0.364c0.048-0.263,0.469-2.492,0.496-2.632
		c0.162-0.018,3.387-0.333,3.659-0.364"/>
	<path style="fill:#FFFFFF;" d="M89.557,128.469l-0.456,2.448c0,0-0.048,0.338-0.07,0.57c-0.154-0.14-0.338-0.303-0.338-0.303
		l-3.071-2.299c-0.079-0.022-0.873,0.053-0.873,0.053l-0.083,0.009l-0.895,4.729l1.294-0.123l0.469-2.514c0,0,0.031-0.294,0.061-0.5
		c0.101,0.092,0.202,0.175,0.202,0.175c0,0.009,3.203,2.43,3.203,2.43c0.079,0.018,0.877-0.053,0.877-0.053l0.083-0.018l0.886-4.738
		l-0.145,0.018l-1.149,0.114"/>
	<path style="fill:#FFFFFF;" d="M93.238,128.101l-0.193,1.04c0,0,2.062-0.211,2.321-0.233c-0.048,0.272-0.693,3.703-0.693,3.703
		l1.404-0.14c0,0,0.671-3.549,0.702-3.711c0.154-0.009,2.33-0.224,2.33-0.224l0.202-1.027l-0.145,0.009l-5.927,0.579"/>
	<path style="fill:#FFFFFF;" d="M105.961,129.829c0.847-0.092,1.281-0.417,1.404-1.079l0.202-1.057
		c0.018-0.092,0.022-0.171,0.022-0.254c0-0.175-0.048-0.325-0.14-0.43c-0.18-0.184-0.496-0.254-0.978-0.206l-4.431,0.447
		l-0.886,4.729l1.386-0.14c0,0,0.303-1.553,0.325-1.698c0.132-0.018,0.908-0.101,0.987-0.11c0.07,0.061,1.72,1.505,1.72,1.505
		l2.031-0.202c0,0-1.65-1.198-2.022-1.465c0.193-0.022,0.377-0.039,0.377-0.039 M106.053,128.57
		c-0.048,0.206-0.145,0.285-0.496,0.316c0,0-2.246,0.215-2.514,0.246c0.053-0.211,0.175-0.904,0.202-1.035
		c0.154-0.018,2.571-0.246,2.571-0.246c0.184-0.018,0.307-0.009,0.338,0.022c0.009,0.018,0.018,0.039,0.018,0.07
		c0,0.022-0.009,0.053-0.009,0.079L106.053,128.57"/>
	<path style="fill:#FFFFFF;" d="M111.212,126.333l-0.886,4.729l5.462-0.531l0.206-1.075c0,0-3.782,0.369-4.058,0.395
		c0.039-0.211,0.149-0.772,0.171-0.886c0.145-0.018,2.33-0.233,2.33-0.233l0.193-1.005c0,0-2.084,0.206-2.33,0.237
		c0.031-0.202,0.114-0.662,0.14-0.772c0.154-0.018,4.005-0.399,4.005-0.399l0.193-0.996l-0.154,0.009l-5.269,0.526"/>
	<path style="fill:#FFFFFF;" d="M123.053,125.166l-1.189,0.114l-3.905,5.032l1.483-0.14c0,0,0.719-0.978,0.781-1.057
		c0.092-0.009,2.931-0.285,3.08-0.294c0.061,0.114,0.426,0.917,0.426,0.917l1.566-0.154l-2.167-4.427l-0.07,0.009L123.053,125.166z
		 M122.873,127.846c-0.241,0.022-1.452,0.14-1.821,0.171c0.233-0.294,1.027-1.36,1.211-1.584
		C122.373,126.688,122.772,127.631,122.873,127.846"/>
	<path style="fill:#FFFFFF;" d="M129.616,128.105c0.053-0.263,0.684-3.659,0.684-3.659l-0.145,0.018l-1.259,0.123l-0.904,4.729
		l5.216-0.5l0.206-1.088c0,0-3.527,0.347-3.804,0.377"/>
	<polygon style="fill:#FFFFFF;" points="111.607,124.288 116.516,123.819 116.384,124.359 111.493,124.828 	"/>
</g>
<path style="fill:#BABABB;" d="M153.574,43.675c-0.632-5.295-3.308-9.779-7.555-12.639c-4.229-2.865-9.516-3.755-14.868-2.509
	c-6.875,1.606-12.538,6.449-15.53,12.499L92.062,51.427l21.589-4.396c-0.053,0.259-0.11,0.513-0.145,0.777l-96.85,42.414
	l98.122-32.179c0.07,0.18,0.14,0.364,0.224,0.544L81.178,78.535l40.493-12.459c0.338,0.206,0.68,0.404,1.027,0.588l-12.854,7.726
	l5.357-1.667l-4.922,1.847c0,0,15.802-2.702,22.269-4.615c6.506-1.93,12.745-5.041,16.82-10.911
	c3.203-4.431,4.861-9.906,4.212-15.372"/>
<path style="fill:#FFFFFF;" d="M109.839,74.39l13.069-11.499c0.842,0.553,1.742,1.018,2.667,1.391l-15.741,10.103 M116.599,54.569
	L81.138,78.566l36.926-20.681c-0.61-1.04-1.097-2.141-1.465-3.312 M116.841,43.092L16.657,90.223l99.249-43.103
	C116.069,45.759,116.384,44.413,116.841,43.092 M151.029,38.06c-1.518-3.966-4.462-6.857-8.178-8.493
	c-0.132-0.066-0.276-0.127-0.408-0.18c-0.061-0.035-0.123-0.057-0.184-0.079c-2.702-1.101-5.523-1.47-8.493-1.237
	c-0.355,0.031-0.719,0.061-1.088,0.11c-0.031,0-0.061,0.009-0.083,0.009c-0.926,0.118-1.843,0.285-2.777,0.522
	c-10.994,2.606-23.686,12.13-37.808,22.773c0,0,13.639-9.173,25.647-15.741c1.127-0.619,2.237-1.206,3.325-1.777
	c0.022-0.009,0.039-0.018,0.061-0.031c0.711-0.369,1.421-0.724,2.106-1.057c0.022-0.018,0.039-0.018,0.053-0.035
	c0.307-0.145,0.61-0.29,0.908-0.439c0.061-0.022,0.114-0.048,0.162-0.075c0.649-0.303,1.272-0.597,1.882-0.869
	c0.048-0.022,0.101-0.039,0.145-0.061c0.246-0.11,0.491-0.215,0.724-0.316c0.07-0.031,0.145-0.053,0.206-0.088
	c0.272-0.11,0.531-0.219,0.785-0.325c0.018-0.009,0.031-0.009,0.048-0.018c0.276-0.11,0.54-0.211,0.812-0.307
	c0.061-0.022,0.118-0.048,0.184-0.07c0.202-0.075,0.395-0.145,0.579-0.206c0.07-0.022,0.145-0.057,0.215-0.075
	c0.233-0.079,0.447-0.149,0.671-0.219l0.039-0.009c0.233-0.075,0.447-0.136,0.662-0.189c0.061-0.018,0.123-0.035,0.184-0.048
	c0.154-0.039,0.316-0.079,0.461-0.11c0.061-0.009,0.114-0.022,0.184-0.039c0.193-0.044,0.386-0.075,0.562-0.097
	c0.022-0.009,0.053-0.009,0.079-0.009c0.526-0.097,1.049-0.158,1.557-0.197c0.048-0.009,0.092-0.018,0.132-0.018
	c0.487-0.044,0.978-0.057,1.457-0.057h0.193c0.461,0.009,0.926,0.031,1.382,0.075c0.079,0.009,0.14,0.018,0.215,0.022
	c0.456,0.048,0.895,0.114,1.342,0.197c0.07,0.018,0.14,0.031,0.206,0.039c0.439,0.097,0.873,0.197,1.294,0.325
	c0.061,0.018,0.132,0.031,0.193,0.057c0.426,0.123,0.851,0.272,1.263,0.439c0.048,0.018,0.092,0.039,0.14,0.057
	c0.426,0.18,0.851,0.364,1.25,0.575c0.022,0.009,0.048,0.022,0.07,0.039c0.426,0.224,0.842,0.461,1.233,0.719l0,0
	c3.764,2.435,6.418,6.48,7.015,11.494c0.364,3.045-0.061,6.151-1.202,9.073c1.992-4.536,2.308-9.52,0.579-14.056"/>
<path style="fill:#231F20;" d="M151.652,43.044c-1.119-9.441-9.507-15.429-18.952-13.767c-0.022,0-0.053,0-0.079,0.009
	c-9.669,1.391-40.625,22.194-40.625,22.194l24.84-8.397v0.018c-0.456,1.321-0.772,2.672-0.934,4.027L16.657,90.223l99.907-35.75
	c0.009,0.039,0.018,0.07,0.039,0.101c0.369,1.171,0.855,2.277,1.465,3.312L81.143,78.566l41.752-15.688c0,0,0.018,0.009,0.022,0.018
	c0.842,0.553,1.742,1.018,2.667,1.391l-15.701,10.073l-0.048,0.048c0,0,19.18-5.633,29.398-10.555c0.009,0,0.018-0.009,0.022-0.009
	c3.404-1.478,6.405-3.896,8.656-7.033C150.889,52.669,152.214,47.777,151.652,43.044"/>
<path style="fill:#231F20;" d="M148.05,47.966c-0.487-0.478-1.149-0.772-1.619-0.93c0.233-1.9-0.649-3.769-1.11-4.598
	c0.641-1.237,0.702-2.882,0.68-3.988c-0.092-0.136-0.184-0.272-0.281-0.408c-0.14-0.189-0.281-0.373-0.421-0.557
	c0,0.079,0,0.167,0.009,0.272c0.048,0.82,0.14,2.948-0.562,4.33c-0.434,0.136-1.395,0.347-3.119,0.347
	c-0.75-1.132-2.523-3.255-4.598-4.37c0.101-0.733,0.233-2.119,0.11-3.602c0.86-0.316,2.584-0.654,3.703-0.553
	c-0.044-0.022-0.083-0.039-0.127-0.061c-0.136-0.066-0.276-0.127-0.417-0.189c-0.097-0.044-0.197-0.083-0.294-0.123
	c-0.101-0.044-0.206-0.079-0.311-0.118c-0.11-0.039-0.215-0.083-0.329-0.118c-1.101,0.127-2.207,0.421-2.751,0.662
	c-2.33-0.798-3.966-0.623-4.119-0.627c-0.202,0-0.386,0.022-0.57,0.053c-0.123-0.118-0.29-0.259-0.452-0.404
	c-0.057,0.013-0.114,0.031-0.171,0.044c-0.219,0.061-0.439,0.118-0.649,0.184c0.171,0.11,0.364,0.259,0.548,0.417
	c-1.452,0.649-2.615,2.255-3.181,3.146c-1.04,0.465-3.562,1.606-4.993,2.509l-0.048-0.167l-0.039-0.254l-0.009-0.25v-0.009
	c-0.127,0.162-0.246,0.325-0.369,0.491c-0.018,0.026-0.035,0.053-0.057,0.079c-0.097,0.14-0.193,0.281-0.29,0.421
	c-0.044,0.07-0.092,0.136-0.132,0.206c-0.07,0.11-0.14,0.219-0.206,0.329s-0.127,0.215-0.193,0.325
	c-0.044,0.079-0.092,0.158-0.136,0.237c-0.083,0.149-0.162,0.303-0.241,0.452c-0.022,0.044-0.048,0.092-0.07,0.136
	c-0.518,1.04-0.926,2.137-1.198,3.268c-0.018,0.061-0.026,0.127-0.044,0.189c-0.035,0.154-0.07,0.307-0.101,0.465
	c-0.022,0.105-0.039,0.206-0.057,0.311c-0.018,0.114-0.039,0.224-0.057,0.338c-0.022,0.136-0.039,0.272-0.053,0.412
	c-0.009,0.075-0.018,0.154-0.026,0.228c-0.018,0.167-0.035,0.338-0.044,0.505c0,0.039-0.004,0.083-0.009,0.123
	c-0.013,0.202-0.022,0.404-0.026,0.605l0,0c0,0.224,0,0.443,0,0.667l0.092-0.272c0.377-0.79,0.855-1.803,1.707-2.18l0.092-0.018
	l3.089,3.233c-0.053,2.615,0.855,4.606,1.312,5.418c-0.689,0.877-1.645,1.821-2.044,2.198c-0.333-0.145-0.908-0.386-1.707-0.75
	c0,0.018,0.018,0.035,0.022,0.048c0.149,0.202,0.303,0.399,0.461,0.588c0.022,0.026,0.044,0.053,0.066,0.079
	c0.483,0.57,1.013,1.097,1.579,1.575c0.175,0.149,0.364,0.294,0.579,0.461c0,0-0.338-0.79-0.579-1.492
	c0.386-0.364,1.373-1.329,2.106-2.255c0.825,0.145,3.518,0.57,4.637,0.601c0.562,0.632,2.43,2.676,3.703,3.435
	c-0.285,0.601-0.864,1.667-1.711,2.338c0.57,0.018,4.146-0.149,7.493-2.158l0.048-0.022c1.119-0.671,2.198-1.553,3.141-2.681
	c0,0-1.233,0.816-2.229,0.333c0.531-1.04,1.588-3.492,1.86-5.506c0.816-0.641,2.645-2.132,2.992-3.659
	c0.509,0.18,1.22,0.526,1.544,1.106l0.022,0.044c0,0,0.004-0.026,0.009-0.039C147.963,48.536,148.015,48.251,148.05,47.966
	L148.05,47.966z M125.031,48.655l-3.225-3.391c-0.215-1.746,0.399-3.475,1.171-5.014l0.132-0.241
	c0.965-0.662,2.979-1.65,4.782-2.457c0.57,0.399,1.812,1.351,2.444,2.615c-0.491,1.114-1.588,3.786-1.737,6.155
	c-1.299,1.22-2.838,2.001-3.571,2.334H125.031z M129.291,46.027c0.224-2.224,1.263-4.703,1.698-5.677
	c0.873-0.496,2.961-1.522,5.686-1.72c2.053,1.066,3.751,3.189,4.396,4.172c0.031,0.829-0.039,2.917-1.163,5.041
	c-1.263,0.513-4.119,1.601-6.467,2.163c-3.211-1.983-3.975-3.369-4.15-3.983V46.027z M140.834,56.679
	c-2.053,1.913-4.628,1.943-5.554,1.922c-0.965-0.443-2.869-2.435-3.637-3.282c0.943-1.667,1.689-3.79,1.983-4.685
	c2.268-0.54,4.914-1.544,6.287-2.079c0.61,0.369,1.952,1.342,2.759,2.676c-0.263,2.04-1.413,4.585-1.843,5.444L140.834,56.679z"/>
<path style="fill:none;stroke:#231F20;stroke-width:0.99;" d="M119.793,50.309c-1.242-7.743,4.08-15.552,11.828-17.369
	c7.778-1.825,15.131,2.992,16.39,10.731c1.25,7.726-4.076,15.535-11.845,17.36C128.405,62.856,121.043,58.03,119.793,50.309
	L119.793,50.309z"/>
<path style="fill:#231F20;" d="M15.051,112.075v0.215c33.202-8.335,150.162-37.79,176.581-44.45v-0.211
	c-26.428,6.62-143.379,36.075-176.581,44.45"/>
<path style="fill:#231F20;" d="M11.603,128.833v0.215c24.884-6.234,129.59-32.609,169.667-42.704v-0.233
	c-40.076,10.073-144.792,36.452-169.667,42.717"/>
</svg>
