<?xml version="1.0" encoding="utf-8"?>
<!-- Generator: Adobe Illustrator 24.1.2, SVG Export Plug-In . SVG Version: 6.00 Build 0)  -->
<svg version="1.1" id="Layer_1" xmlns="http://www.w3.org/2000/svg" xmlns:xlink="http://www.w3.org/1999/xlink" x="0px" y="0px"
	 viewBox="0 0 200 200" style="enable-background:new 0 0 200 200;" xml:space="preserve">
<path style="fill:#DD8331;" d="M192.783,105.249c-4.495,3.745-9.32,6.94-14.83,8.99c-0.76,0.28-1.595,0.355-2.395,0.54
	c-0.635,0.145-1.335,0.185-1.89,0.485c-2.26,1.215-4.71,1.43-7.285,1.58c-0.855,0.665-1.81,1.33-2.675,2.095
	c-4.31,3.815-9.395,5.275-15.07,5.495c-4.39,0.17-8.51-0.785-12.645-1.95c-0.47-0.135-0.965-0.195-1.575-0.315
	c-2.275,4.53-6.53,6.405-10.875,8.105c-4.645,1.815-9.54,2.635-14.425,3.52c-2.835,0.515-5.65,1.22-8.415,2.03
	c-1.15,0.335-2.15,1.165-3.195,1.75c-3.995-1.37-8.025-2.855-12.12-4.11c-2.915-0.895-5.955-1.37-8.885-2.21
	c-4.09-1.175-8.02-2.74-11.14-5.79c-0.94-0.92-1.74-1.985-2.825-3.235c-0.63,0.145-1.515,0.265-2.335,0.555
	c-4.885,1.735-9.945,1.905-15,1.415c-2.04-0.2-3.965-1.355-5.99-1.9c-2.985-0.805-5.11-2.915-7.49-4.655
	c-0.565-0.415-1.295-0.77-1.98-0.84c-9.21-0.965-17.175-4.705-24.145-10.705c-1.555-1.34-3.1-2.69-4.45-4.42
	c2.175,0.425,4.385,0.715,6.515,1.295c7.23,1.975,14.47,1.55,21.69,0.125c2.99-0.59,5.92-1.495,8.87-2.295
	c4.505-1.22,8.58-3.37,12.69-5.555c5.465-2.905,11.2-5.31,16.82-7.93c-0.57-0.83-1.385-0.55-2.255-0.09
	c-2.485,1.32-5.145,1.81-7.94,1.575c-2.65-0.22-5.085-1.16-7.87-2.13c3.25-1.58,6.125-2.98,9.215-4.485
	c-1.03-1.77-1.885-3.245-2.91-5.015c2.165,0.305,4.03,0.6,5.905,0.82c0.72,0.085,1.495,0.12,2.185-0.055
	c1.895-0.475,3.76-1.07,5.8-1.665c-0.04,0.185,0.065,0.005,0.015-0.1c-1.885-4.215-1.65-8.355,0.33-12.48
	c0.57-1.185,0.95-2.46,1.615-4.205l2.725,6.79c0.635-0.535,1.12-0.95,1.59-1.345c0.19-0.025,0.37-0.11,0.505-0.06
	c2.9,0.99,5.77,0.57,8.52-0.43c4.12-1.5,8.21-3.105,12.23-4.855c3.725-1.62,7.44-3.195,11.445-4.02c2.38-0.49,4.535-0.305,6.91,0.99
	c2.835,1.54,5.945,2.48,9.105,3.125c0.77,0.155,1.34,0.525,2.265,0.96c-1.075,1.18-2.475,0.775-3.47,1.38
	c-1.095,0.66-2.355,0.995-3.63,0.985c-2.87-0.015-4.935,0.89-6.545,3.055c0.695,0.335,1.365,0.595,1.97,0.96
	c0.92,0.56,2.06,1.01,2.625,1.835c1.44,2.1,3.425,3.57,5.23,5.27c1.245,1.175,2.115,2.755,3.125,4.175
	c0.91,1.285,1.745,2.625,2.685,3.895c1.27,1.715,2.1,3.56,1.875,5.815c2.84,1.24,5.655,2.4,8.405,3.7
	c2.47,1.165,4.975,2.32,7.285,3.765c5.49,3.43,11.485,5.51,17.76,6.785c4.125,0.84,8.3,1.535,12.485,1.94
	c5.69,0.55,11.195-0.845,16.68-2.16c1.74-0.42,3.5-0.765,5.235-1.205c-1.87,1.645-4.125,2.82-6.04,4.415L192.783,105.249z
	 M72.983,69.244l0.02,0.01c-0.375-0.915-0.745-1.825-1.24-3.04c-1.47,4.245-0.7,7.72,1.34,10.775c1.485-0.415,2.84-0.71,4.135-1.18
	c1.655-0.6,3.665,0.835,4.8-0.76c3.595,0.325,6.925,0.63,10.43,0.945c-0.545,0.83-1.025,1.565-1.505,2.3
	c-0.095-0.465-0.19-0.925-0.365-1.79c-3.03,3.255-6.68,2.765-10.545,2.055c0.48,0.67,0.73,1.01,1.045,1.45
	c-1.945,0.585-3.395-0.09-4.805-1.055c-0.285-0.195-0.755-0.12-1.315-0.195c0.455,0.485,0.75,0.805,1.095,1.18l-0.86,0.785
	c-1.285-0.395-2.53-0.84-3.805-1.16c-1.7-0.425-3.34-0.455-5.055,0.19c-1.51,0.565-3.125,0.915-4.615,1.425l1.755,1.045
	c-1.37,1.98-3.25,3.06-5.38,4.005c0.57,0.255,1.19,0.505,1.715,0.37c2.405-0.6,4.725-1.36,6.72-3.005
	c1.415-1.165,3.13-1.925,5.03-0.375l-0.92,1.41c3.135,0.46,6.035,0.23,8.76-1.385c1.6-0.95,3.305-1.13,5.095-0.115
	c-0.375,0.445-0.61,0.72-1.2,1.42c1.4-0.365,2.36-0.545,3.265-0.865c1.92-0.68,2.785-2.46,3.92-3.945
	c-0.235,2.78-0.79,5.375-3.85,6.48l0.045,0.845l-1.89,0.48c3.59,2.695,7.01,2.115,10.635,1.03c-0.505-0.635-0.955-1.195-1.435-1.8
	c0.545-1.105,0.985-2.185,1.59-3.165c0.675-1.095,1.64-1.92,3.03-1.89c2.85,0.06,5.62,0.51,8.135,1.95
	c1.935,1.11,2.465,2.895,1.32,4.835c-0.58,0.985-1.315,1.975-2.205,2.67c-2.68,2.09-5.335,4.26-8.255,5.975
	c-3.275,1.925-6.745,3.495-9.045,6.74c-0.765-0.54-1.445-0.89-1.96-1.405c-1.985-2-4.14-3.885-5.8-6.135
	c-1.6-2.165-0.905-3.805,1.535-4.985c0.545-0.26,1.11-0.475,1.855-0.795c-0.51-0.38-0.755-0.61-1.04-0.765
	c-3.835-2.055-7.855-1.95-11.85-0.745c-7.01,2.11-13.635,5.175-20.04,8.685c-2.985,1.635-5.91,3.345-9.165,4.405
	c-8.55,2.79-17.225,4.91-26.315,4.54c-1.875-0.075-3.74-0.365-5.74-0.565c0.18,0.38,0.205,0.585,0.32,0.665
	c6.9,4.825,14.405,7.795,22.98,7.55c2.995-0.085,5.995-0.1,8.99-0.075c1.69,0.015,2.965,0.775,3.78,2.58
	c-2.98,2.065-6.15,2.165-9.475,1.485c5.91,3.665,12.205,4.6,18.865,3.045c3.22-0.75,6.395-1.73,9.635-2.355
	c2.425-0.47,4.925-0.595,7.395-0.76c1.21-0.08,2.08,0.465,2.01,1.97c-0.275,0.195-0.51,0.485-0.8,0.55
	c-2.565,0.59-5.14,1.145-7.85,1.74c0.31,0.395,0.525,0.875,0.9,1.115c1.95,1.245,3.86,2.595,5.935,3.6
	c3.29,1.59,6.875,2.295,10.42,3.16c4.65,1.13,9.175,2.76,14.065,4.27c4.365-2.275,9.54-3.025,14.68-3.88
	c5.17-0.865,10.2-2.195,14.87-4.64c1.75-0.915,3.46-1.935,4.575-3.72c-2.93-1.11-6.43-0.22-8.78-2.75
	c0.68-1.51,1.875-1.475,3.06-1.475c4.2,0,8.205,1.115,12.18,2.26c4.505,1.295,9.035,2.06,13.71,1.315
	c2.85-0.455,5.67-1.05,7.98-2.98c0.27-0.065-0.27,0.065,0,0c-0.04-0.095-0.045,0.01-0.08-0.09c-0.26,0.135,0.26-0.135,0,0
	c-2.245,0.04-4.485-0.035-6.595-0.915c-0.625-0.26-1.175-0.71-1.78-1.09c1.045-1.77,2.4-2.43,4.1-2.435c2.415,0,4.835-0.1,7.24,0.07
	c6.755,0.475,12.99-1.26,18.93-4.27c2.33-1.18,4.475-2.72,6.75-3.995c-1.435,0.13-2.875,0.205-4.31,0.335
	c-0.905,0.08-1.81,0.24-2.715,0.29c-6.76,0.36-13.305-1.07-19.785-2.65c-5.885-1.435-11.52-3.59-16.665-6.93
	c-2.075-1.345-4.355-2.41-6.625-3.405c-3.4-1.49-6.875-2.815-10.385-4.23c-0.35-1.15-0.715-2.36-1.17-3.865
	c0.89,0.415,1.415,0.66,2.38,1.105c-1.96-4.645-5.655-7.13-9.15-10.48l2.115,0.375c-1.615-3.135-5.14-3.485-7.46-5.685l2.2-0.35
	c-2.74-2.21-5.92-2.52-8.89-3.545c1.245-0.91,2.425-1.685,3.505-2.575c2.035-1.685,4.01-3.445,6.745-4.075
	c-1.24-0.065-2.47-0.06-3.58,0.31c-2.035,0.675-4.015,1.535-5.995,2.38c-1.955,0.835-3.925,1.44-6.33,1.09
	c2.24-2.785,5.095-4.24,8.205-5.77c-3.36-0.235-4.08-0.085-6.6,1.03c-4.775,2.105-9.545,4.215-14.35,6.255
	c-3.625,1.535-7.385,2.495-11.38,2.115c-0.23-0.02-0.47,0.085-0.7,0.13c0.06,0.645,0.115,1.245,0.205,2.215
	c-1.64-0.34-2.985-0.62-4.33-0.895L72.983,69.244z"/>
<path style="fill:#040201;" d="M159.503,118.804c-2.31,1.93-5.13,2.525-7.98,2.98c-4.68,0.745-9.205-0.015-13.71-1.315
	c-3.975-1.145-7.98-2.26-12.18-2.26c-1.185,0-2.38-0.03-3.06,1.475c2.345,2.53,5.85,1.64,8.78,2.75
	c-1.115,1.78-2.825,2.8-4.575,3.72c-4.67,2.445-9.695,3.78-14.87,4.64c-5.14,0.86-10.315,1.605-14.68,3.88
	c-4.89-1.51-9.42-3.14-14.065-4.27c-3.55-0.865-7.13-1.57-10.42-3.16c-2.075-1-3.985-2.35-5.935-3.6
	c-0.375-0.24-0.595-0.725-0.9-1.115c2.715-0.595,5.29-1.145,7.85-1.74c0.285-0.065,0.52-0.355,0.8-0.55
	c0.07-1.505-0.805-2.05-2.01-1.97c-2.475,0.165-4.97,0.29-7.395,0.76c-3.245,0.625-6.415,1.605-9.635,2.355
	c-6.66,1.55-12.955,0.62-18.865-3.045c3.33,0.68,6.5,0.575,9.475-1.485c-0.815-1.81-2.09-2.57-3.78-2.58
	c-2.995-0.025-5.995-0.015-8.99,0.075c-8.575,0.245-16.08-2.725-22.98-7.55c-0.115-0.08-0.14-0.285-0.32-0.665
	c2,0.205,3.865,0.49,5.74,0.565c9.09,0.37,17.76-1.75,26.315-4.54c3.255-1.06,6.18-2.775,9.165-4.405
	c6.405-3.505,13.03-6.57,20.04-8.685c4-1.205,8.015-1.31,11.85,0.745c0.285,0.155,0.53,0.385,1.04,0.765
	c-0.75,0.32-1.315,0.53-1.855,0.795c-2.44,1.18-3.135,2.82-1.535,4.985c1.66,2.245,3.815,4.135,5.8,6.135
	c0.515,0.52,1.2,0.87,1.96,1.405c2.305-3.245,5.77-4.82,9.045-6.74c2.915-1.715,5.575-3.885,8.255-5.975
	c0.89-0.695,1.63-1.685,2.205-2.67c1.14-1.94,0.61-3.725-1.32-4.835c-2.515-1.44-5.285-1.89-8.135-1.95
	c-1.39-0.03-2.355,0.795-3.03,1.89c-0.605,0.98-1.045,2.06-1.59,3.165c0.48,0.605,0.93,1.165,1.435,1.8
	c-3.62,1.085-7.045,1.665-10.635-1.03l1.89-0.48l-0.045-0.845c3.06-1.11,3.615-3.7,3.85-6.48l-0.04,0.055
	c0.18-0.52,0.36-1.035,0.54-1.555l-0.035,0.05c0.48-0.735,0.965-1.47,1.505-2.3c-3.505-0.32-6.835-0.62-10.43-0.945
	c-1.135,1.595-3.145,0.155-4.8,0.76c-1.29,0.47-2.65,0.765-4.135,1.18c-2.04-3.055-2.815-6.53-1.34-10.775
	c0.495,1.21,0.87,2.125,1.24,3.04c-0.9,2.105-0.76,3.02,1.1,4.73c-0.275-1.2-0.44-1.935-0.615-2.66
	c-0.165-0.695-0.335-1.385-0.505-2.08c1.345,0.28,2.69,0.555,4.33,0.895c-0.09-0.97-0.145-1.57-0.205-2.215
	c0.225-0.045,0.47-0.155,0.7-0.13c3.995,0.38,7.755-0.575,11.38-2.115c4.805-2.035,9.58-4.145,14.35-6.255
	c2.52-1.11,3.24-1.265,6.6-1.03c-3.11,1.535-5.965,2.99-8.205,5.77c2.41,0.35,4.38-0.255,6.33-1.09c1.98-0.845,3.96-1.7,5.995-2.38
	c1.11-0.37,2.34-0.375,3.58-0.31c-2.735,0.63-4.705,2.395-6.745,4.075c-1.08,0.89-2.255,1.665-3.505,2.575
	c2.97,1.025,6.15,1.335,8.89,3.545l-2.2,0.35c2.32,2.2,5.845,2.55,7.46,5.685l-2.115-0.375c3.495,3.35,7.19,5.835,9.15,10.48
	c-0.965-0.45-1.485-0.69-2.38-1.105c0.455,1.505,0.825,2.715,1.17,3.865c3.51,1.42,6.985,2.74,10.385,4.23
	c2.27,0.995,4.555,2.06,6.625,3.405c5.145,3.34,10.785,5.495,16.665,6.93c6.48,1.58,13.025,3.01,19.785,2.65
	c0.91-0.05,1.81-0.205,2.715-0.29c1.435-0.13,2.875-0.205,4.31-0.335c-2.28,1.28-4.425,2.815-6.75,3.995
	c-5.94,3.01-12.175,4.75-18.93,4.27c-2.405-0.17-4.825-0.075-7.24-0.07c-1.695,0-3.055,0.66-4.1,2.435
	c0.61,0.38,1.155,0.83,1.78,1.09c2.11,0.88,4.35,0.955,6.595,0.915l0.08,0.09L159.503,118.804z M113.478,97.784l-0.015-0.015
	c-0.365,0.515-0.64,1.14-1.11,1.52c-2.16,1.73-4.39,3.37-6.56,5.085c-0.935,0.74-2.16,1.35-1.805,2.915
	c-0.075,0.11-0.145,0.215-0.22,0.325c0.065-0.115,0.13-0.23,0.195-0.35c4.37-2.45,8.215-5.58,11.52-9.325
	c0.895-1.015,1.395-2.375,1.985-3.405c-0.33-0.975-0.565-1.67-0.795-2.345c-1.11-0.615-2.155-1.19-3.39-1.875
	c2.6-1.875,5.185-2.465,7.995-1.685c0.675-2.4-0.325-4.255-1.3-6.05c-2.87-5.28-7.155-9.065-12.7-11.32
	c-3.06-1.245-6.115-2.845-9.64-2.025c-0.125,0.03-0.29-0.12-0.48-0.21c0.04-0.555,0.08-1.12,0.135-1.87
	c-2.675,0.715-5.115,1.37-7.51,2.01c-0.315-0.335-0.575-0.615-0.92-0.98c-0.67,0.705-1.22,1.285-1.805,1.905
	c1.135,0.53,2.53-0.375,3.265,0.935c-2.91,0.635-5.77,1.26-9.16,2c2.79,0.6,5.075,0.11,7.39,0.8c2.44,0.725,5.21,0.33,7.835,0.45
	c0.355,0.015,0.7,0.16,1.395,0.325c-0.63,0.555-0.93,1.025-1.325,1.125c-1.665,0.43-2.725,1.585-3.435,2.98
	c-0.85,1.675-1.465,3.475-2.14,5.235c-0.61,1.585-0.96,3.315-2.59,4.465c1.18-0.2,2.355-0.4,3.465-0.585
	c0.465-4.095,2.72-6.795,5.64-8.95c1.615-1.195,2.36-2.68,2.585-4.56c0.055-0.47,0.125-0.935,0.235-1.775
	c3,1.29,5.85,2.355,8.55,3.725c2.195,1.115,4.235,2.56,5.215,5.02l-0.01,0.01c-0.49-0.26-1.015-0.465-1.46-0.785
	c-0.94-0.665-1.755-1.6-2.78-2.045c-1.78-0.77-3.675-1.635-5.65-0.72c-0.91,0.42-1.665,1.185-2.59,1.865
	c1.58,0.435,3.045,0.71,4.415,1.23c5.31,2.015,7.9,7.905,2.86,12.5c-2.47,2.255-5.155,4.105-7.985,5.82
	c-4.23,2.57-8.015,5.59-9.885,10.405c-0.235,0.6-0.315,1.265-0.555,2.26c1.48-1.745,2.635-3.14,3.825-4.505
	c3.015-3.465,6.635-6.245,10.445-8.73c1.465-0.955,2.905-2.215,4.815-2.355l0.09,0.09c-0.495,0.72-1.045,1.41-1.47,2.17
	c-0.3,0.53-0.43,1.155-0.635,1.74c-0.065,0.15-0.125,0.295-0.19,0.445c0.095-0.115,0.195-0.23,0.29-0.345
	c1.385-0.67,2.76-1.37,4.16-2c0.57-0.255,1.2-0.36,1.805-0.535L113.478,97.784z M121.738,93.159c0.525,0.21,1.045,0.43,1.575,0.62
	c5.22,1.86,10.215,4.22,15.15,6.74c3.89,1.985,7.765,4.115,11.865,5.565c7.375,2.605,15.045,3.98,22.89,3.91
	c-0.045-0.08-0.08-0.26-0.19-0.34c-0.195-0.145-0.42-0.3-0.65-0.325c-5.895-0.71-11.635-2.13-17.225-4.09
	c-3.645-1.275-7.31-2.62-10.73-4.385c-4.19-2.16-8.31-4.46-12.785-5.955c-3.175-1.06-6.45-1.88-9.895-1.74L121.738,93.159z
	 M26.253,110.294c0.405,0,0.81-0.01,1.215,0c3.16,0.1,6.235-0.485,9.34-0.955c4.175-0.63,8.145-1.915,12.1-3.285
	c3.84-1.33,7.395-3.235,10.95-5.195c5.25-2.9,10.7-5.42,16.775-7.42c-2.42-0.46-4.32,0.215-6.225,0.645
	c-5.285,1.205-10.125,3.535-14.79,6.185c-3.68,2.095-7.58,3.605-11.535,5.035C38.283,107.404,32.303,108.789,26.253,110.294z
	 M51.763,118.589c1.23-0.275,2.435-0.515,3.63-0.81c3.7-0.91,7.2-2.335,10.25-4.62c2.485-1.865,3.915-4.335,3.145-7.85
	c-4.54,4.37-9.665,7.33-15.34,8.64c-0.56,1.54-1.04,2.87-1.68,4.645L51.763,118.589z M129.108,105.244
	c-0.61,3.82,0.875,6.235,3.695,8.28c3.835,2.78,8.225,4.015,12.66,5.225c0.245,0.065,0.55-0.07,0.585-0.075
	c-0.505-1.465-0.97-2.825-1.555-4.535c-5.72-1.225-10.71-4.465-15.385-8.89L129.108,105.244z M94.518,119.889h-6.225
	c2,1.55,3.54,2.745,5.005,3.885c-0.505,1.895-0.965,3.605-1.575,5.895c1.995-1.425,3.46-2.465,4.995-3.56
	c1.55,1.025,3.07,2.025,5.06,3.34c-0.68-2.33-1.205-4.11-1.715-5.86c1.6-1.25,3.09-2.41,4.92-3.835h-6.25
	c-0.695-1.875-1.33-3.59-2.16-5.835c-0.77,2.235-1.35,3.93-2.05,5.97H94.518z M116.173,110.834c-2.925,2.43-5.71,4.87-5.145,9.155
	c2.05,2.56,4.895,2.535,7.805,2.705c-5.095-3.06-3.43-7.46-2.66-11.865V110.834z M85.268,69.224c-1.14,0.44-2.28,0.885-3.42,1.325
	C83.723,71.229,84.123,71.129,85.268,69.224z"/>
<path style="fill:#040201;" d="M90.493,79.749c-1.135,1.485-2,3.26-3.92,3.945c-0.905,0.32-1.865,0.5-3.265,0.865
	c0.595-0.7,0.825-0.975,1.2-1.42c-1.79-1.015-3.49-0.835-5.095,0.115c-2.725,1.61-5.63,1.845-8.76,1.385l0.92-1.41
	c-1.895-1.55-3.61-0.79-5.03,0.375c-2,1.645-4.315,2.4-6.72,3.005c-0.525,0.13-2.445-0.05-3.015-0.305
	c2.94-0.415,5.305-2.095,6.675-4.075l-2.84-1.695c3.43,0.265,4.115-0.355,5.625-0.92c1.715-0.645,3.43-0.475,5.13-0.045
	c1.275,0.32,2.52,0.765,3.805,1.16l0.86-0.785c-0.92-1.01-1.51-0.875-1.96-1.36c0.56,0.075,1.895,0.18,2.18,0.375
	c1.41,0.965,2.86,1.64,4.805,1.055c-0.315-0.435-0.565-0.78-1.045-1.45c3.865,0.71,7.515,1.2,10.545-2.055
	c0.175,0.865,0.27,1.325,0.365,1.79l0.035-0.05c-0.18,0.52-0.36,1.035-0.54,1.555l0.04-0.055H90.493z M86.068,81.844
	c0.865-0.615,1.61-1.15,2.355-1.68l-0.18-0.41l-4.165,0.895c0.86,0.515,1.31,0.785,1.995,1.195H86.068z"/>
<path style="fill:#850102;" d="M113.668,97.429c-0.06,0.12-0.125,0.235-0.185,0.355c-0.605,0.175-1.24,0.28-1.805,0.535
	c-1.405,0.63-2.775,1.33-4.16,2l-0.1-0.1c0.205-0.585,0.335-1.21,0.635-1.74c0.425-0.76,0.975-1.45,1.47-2.17
	c0.06-0.145,0.12-0.29,0.18-0.43c-0.09,0.115-0.18,0.23-0.27,0.34c-1.915,0.145-3.355,1.4-4.815,2.355
	c-3.81,2.485-7.43,5.27-10.445,8.73c-1.19,1.365-2.345,2.755-3.825,4.505c0.24-1,0.325-1.66,0.555-2.26
	c1.87-4.815,5.655-7.835,9.885-10.405c2.83-1.72,5.515-3.57,7.985-5.82c5.04-4.595,2.45-10.485-2.86-12.5
	c-1.37-0.52-2.835-0.8-4.415-1.23c0.925-0.68,1.68-1.445,2.59-1.865c1.98-0.915,3.875-0.05,5.65,0.72
	c1.03,0.445,1.84,1.38,2.78,2.045c0.45,0.315,0.97,0.525,1.46,0.785 M113.978,81.269c-0.98-2.46-3.02-3.905-5.215-5.02
	c-2.7-1.37-5.55-2.435-8.55-3.725c-0.11,0.84-0.18,1.31-0.235,1.775c-0.225,1.88-0.965,3.365-2.585,4.56
	c-2.92,2.155-5.175,4.855-5.64,8.95c-1.105,0.185-2.285,0.385-3.465,0.585c1.63-1.15,1.98-2.885,2.59-4.465
	c0.675-1.76,1.29-3.56,2.14-5.235c0.71-1.395,1.77-2.555,3.435-2.98c0.395-0.1,0.695-0.57,1.325-1.125
	c-0.695-0.165-1.04-0.31-1.395-0.325c-2.625-0.12-5.395,0.275-7.835-0.45c-2.32-0.685-4.6-0.2-7.39-0.8c3.39-0.74,6.25-1.365,9.16-2
	c-0.735-1.315-2.13-0.41-3.265-0.935c0.585-0.62,1.135-1.195,1.805-1.905c0.345,0.365,0.605,0.645,0.92,0.98
	c2.395-0.64,4.835-1.295,7.51-2.01c-0.055,0.745-0.095,1.315-0.135,1.87c0.19,0.09,0.355,0.24,0.48,0.21
	c3.53-0.82,6.58,0.78,9.64,2.025c5.545,2.25,9.83,6.04,12.7,11.32c0.975,1.795,1.975,3.65,1.3,6.05
	c-2.81-0.78-5.395-0.19-7.995,1.685c1.235,0.68,2.28,1.26,3.39,1.875c0.23,0.68,0.465,1.37,0.795,2.345
	c-0.585,1.035-1.09,2.395-1.985,3.405c-3.305,3.75-7.15,6.875-11.52,9.325l0.025,0.025c-0.355-1.56,0.87-2.175,1.805-2.915
	c2.17-1.715,4.4-3.355,6.56-5.085c0.475-0.38,0.745-1.005,1.11-1.52"/>
<path style="fill:#850102;" d="M121.738,93.159c3.445-0.14,6.72,0.675,9.895,1.74c4.475,1.495,8.595,3.795,12.785,5.955
	c3.42,1.765,7.085,3.11,10.73,4.385c5.59,1.955,11.33,3.38,17.225,4.09c0.23,0.03,0.455,0.185,0.65,0.325
	c0.11,0.08,0.15,0.26,0.19,0.34c-7.845,0.07-15.515-1.305-22.89-3.91c-4.1-1.445-7.975-3.575-11.865-5.565
	c-4.935-2.52-9.93-4.88-15.15-6.74c-0.53-0.19-1.05-0.415-1.575-0.62L121.738,93.159z"/>
<path style="fill:#850102;" d="M26.253,110.294c6.05-1.505,12.03-2.89,17.83-4.99c3.955-1.43,7.85-2.94,11.535-5.035
	c4.665-2.655,9.505-4.985,14.79-6.185c1.905-0.435,3.8-1.105,6.225-0.645c-6.075,2.005-11.525,4.525-16.775,7.42
	c-3.555,1.96-7.11,3.865-10.95,5.195c-3.955,1.37-7.925,2.655-12.1,3.285c-3.105,0.47-6.185,1.055-9.34,0.955
	C27.063,110.279,26.658,110.294,26.253,110.294L26.253,110.294z"/>
<path style="fill:#850102;" d="M51.763,118.589c0.64-1.775,1.12-3.1,1.68-4.645c5.675-1.31,10.805-4.275,15.34-8.64
	c0.77,3.52-0.66,5.99-3.145,7.85c-3.05,2.29-6.55,3.71-10.25,4.62c-1.195,0.295-2.4,0.54-3.63,0.81L51.763,118.589z"/>
<path style="fill:#850102;" d="M129.108,105.244c4.675,4.43,9.665,7.665,15.385,8.89c0.585,1.705,1.05,3.065,1.555,4.535
	c-0.04,0.005-0.34,0.145-0.585,0.075c-4.435-1.21-8.825-2.445-12.66-5.225c-2.82-2.04-4.305-4.46-3.695-8.28L129.108,105.244z"/>
<path style="fill:#DD8331;" d="M94.518,119.889c0.7-2.045,1.285-3.735,2.05-5.97c0.83,2.245,1.465,3.96,2.16,5.835h6.25
	c-1.83,1.425-3.315,2.585-4.92,3.835c0.51,1.745,1.035,3.53,1.715,5.86c-1.99-1.315-3.51-2.315-5.06-3.34
	c-1.535,1.095-3,2.14-4.995,3.56c0.61-2.29,1.07-4,1.575-5.895c-1.465-1.14-3.005-2.33-5.005-3.885h6.225H94.518z M98.188,120.754
	c-0.52-1.235-0.975-2.31-1.565-3.72c-0.585,1.435-1.04,2.545-1.54,3.77h-3.87c1.33,1.09,2.315,1.9,3.235,2.655
	c-0.31,1.015-0.735,2.535-1.135,3.83c1.355-0.78,2.465-1.66,3.405-2.16c0.995,0.565,2.215,1.44,3.49,2.16
	c-0.45-1.52-0.93-2.92-1.25-3.99c0.975-0.825,1.88-1.585,3.015-2.545h-3.79H98.188z"/>
<path style="fill:#850102;" d="M116.173,110.834c-0.77,4.405-2.435,8.805,2.66,11.865c-2.91-0.175-5.755-0.15-7.805-2.705
	c-0.565-4.285,2.22-6.725,5.145-9.155V110.834z"/>
<path style="fill:#FEFEFE;" d="M85.268,69.224c-1.145,1.9-1.545,2.005-3.42,1.325C82.988,70.109,84.128,69.669,85.268,69.224z"/>
<path style="fill:#850102;" d="M72.983,69.244c0.17,0.695,0.34,1.385,0.505,2.08c0.175,0.73,0.335,1.46,0.615,2.66
	c-1.86-1.71-2-2.625-1.1-4.73C73.003,69.254,72.983,69.244,72.983,69.244z"/>
<path style="fill:#850102;" d="M107.513,100.319c-0.095,0.115-0.195,0.23-0.29,0.345c0.065-0.15,0.125-0.295,0.19-0.445
	L107.513,100.319z"/>
<path style="fill:#850102;" d="M103.963,107.259c-0.065,0.115-0.13,0.23-0.195,0.35c0.075-0.11,0.145-0.215,0.22-0.325
	C103.988,107.284,103.963,107.259,103.963,107.259z"/>
<path style="fill:#850102;" d="M86.068,81.844c-0.68-0.41-1.135-0.68-1.995-1.195c1.705-0.365,2.925-0.625,4.15-0.89
	c0.07,0.135,0.14,0.265,0.21,0.4c-0.75,0.535-1.5,1.07-2.365,1.69V81.844z"/>
<path style="fill:#040201;" d="M109.423,96.219c0.09-0.115,0.18-0.23,0.27-0.34c-0.06,0.145-0.12,0.29-0.18,0.43L109.423,96.219z"/>
<path style="fill:#FEFEFE;" d="M98.188,120.754h3.79c-1.135,0.955-2.035,1.72-3.015,2.545c0.315,1.07,0.635,2.145,1.085,3.665
	c-1.275-0.72-2.33-1.27-3.33-1.83c-0.97,0.42-1.81,0.85-3.185,1.44c0.395-1.295,0.605-2.095,0.915-3.11
	c-0.925-0.76-1.905-1.565-3.235-2.655h3.87c0.5-1.22,0.955-2.335,1.54-3.77c0.59,1.405,1.045,2.485,1.565,3.72L98.188,120.754z"/>
</svg>
