<?xml version="1.0" encoding="utf-8"?>
<!-- Generator: Adobe Illustrator 24.1.2, SVG Export Plug-In . SVG Version: 6.00 Build 0)  -->
<svg version="1.1" id="Layer_1" xmlns="http://www.w3.org/2000/svg" xmlns:xlink="http://www.w3.org/1999/xlink" x="0px" y="0px"
	 viewBox="0 0 200 200" style="enable-background:new 0 0 200 200;" xml:space="preserve">
<path style="fill:#E8A800;" d="M72.181,169.948h-2.165c-0.363-0.363-0.726-0.726-1.09-1.09h-1.09
	c-0.363-0.363-0.726-0.726-1.09-1.09h-1.09c-0.363-0.363-0.726-0.726-1.09-1.09h-1.09c-0.363-0.363-0.726-0.726-1.09-1.09
	c-0.726-0.363-1.438-0.726-2.165-1.09c-0.363-0.363-0.726-0.726-1.09-1.09c-0.726-0.363-1.438-0.726-2.165-1.09
	c-0.363-0.363-0.726-0.726-1.09-1.09c-0.363-0.363-0.726-0.726-1.09-1.09c-0.363-0.363-0.726-0.726-1.09-1.09
	c-1.438-1.453-2.891-2.906-4.329-4.358h1.09c0.305-0.116,0.596-0.232,0.901-0.363c-0.305-0.247-0.596-0.494-0.901-0.726v-1.09
	c-0.363-0.363-0.726-0.726-1.09-1.09c-0.363-0.363-0.726-0.726-1.09-1.09c-0.363-0.363-0.726-0.726-1.09-1.09
	c-0.363-0.363-0.726-0.726-1.09-1.09c-0.363-0.363-0.726-0.726-1.09-1.09c-0.363-0.363-0.726-0.726-1.09-1.09
	c-0.726-1.09-1.438-2.179-2.165-3.269c-0.363-0.363-0.726-0.726-1.09-1.09c-0.363-0.726-0.726-1.453-1.09-2.179
	c-0.363-0.363-0.726-0.726-1.09-1.09v-1.09c-0.363-0.363-0.726-0.726-1.09-1.09c-0.538-1.889-2.353-3.269-2.165-5.448
	c-0.363-0.363-0.726-0.726-1.09-1.09c-0.479-1.758-0.654-3.705-1.554-5.215c-0.726-1.235-0.45-2.339-0.625-3.501
	c-0.363-0.363-0.726-0.726-1.09-1.09v-6.537c0-1.031,0.116-2.063-0.044-3.065c-0.073-0.479-0.668-0.857-1.031-1.293v-4.344
	c0.741,1.496,0.915,1.83,1.09,2.165c0.363,0.363,0.726,0.726,1.09,1.09c0.116,0.305,0.232,0.596,0.363,0.901
	c0.247-0.305,0.479-0.596,0.726-0.901V83.871c0.363-0.363,0.726-0.726,1.09-1.09v-4.358c0.363-0.363,0.726-0.726,1.09-1.09v-2.179
	h1.09c0.363,0.363,0.726,0.726,1.09,1.09v1.09c0.116,0.305,0.232,0.596,0.363,0.901c0.247-0.305,0.479-0.596,0.726-0.901
	c0.363-0.363,0.726-0.726,1.09-1.09v-2.179c0.363-0.363,0.726-0.726,1.09-1.09c-0.479-3.705-3.138-6.421-4.329-9.806
	c-0.363-0.363-0.726-0.726-1.09-1.09c-0.726-1.09-1.438-2.179-2.165-3.269c-0.363-0.363-0.726-0.726-1.09-1.09
	c-0.363-0.363-0.726-0.726-1.09-1.09c-0.363-0.363-0.726-0.726-1.09-1.09c-0.363-0.363-0.726-0.726-1.09-1.09
	c-0.363-0.363-0.726-0.726-1.09-1.09c-0.363-0.363-0.726-0.726-1.09-1.09c-1.09-0.726-2.165-1.453-3.254-2.179
	c-0.363-0.363-0.726-0.726-1.09-1.09c-1.438-0.726-2.891-1.453-4.329-2.179l-1.09-1.09c-0.784-0.247-1.569-0.523-2.353-0.726
	c-0.654-0.16-1.322-0.247-1.976-0.363c-0.363-0.363-0.726-0.726-1.09-1.09H9.232c-0.363-0.363-0.726-0.726-1.09-1.09H4.089
	c-0.029-0.261-0.058-0.508-0.073-0.77c1.046-0.102,2.092-0.218,3.138-0.32c0.363-0.363,0.726-0.726,1.09-1.09H29.92
	c0.087,1.627,1.351,0.93,2.165,1.09h5.419c0.363,0.363,0.726,0.726,1.09,1.09h3.254c0.363,0.363,0.726,0.726,1.09,1.09
	c2.455-0.203,4.504,1.017,6.697,1.801c0.625,0.218,1.307,0.247,1.976,0.378c0.363,0.363,0.726,0.726,1.09,1.09h2.165
	c0.363,0.363,0.726,0.726,1.09,1.09h1.09c0.363,0.363,0.726,0.726,1.09,1.09h1.09l1.09,1.09h1.09l1.09,1.09h1.09l1.09,1.09h1.09
	l1.09,1.09c1.438,0.726,2.891,1.453,4.329,2.179c0.363,0.363,0.726,0.726,1.09,1.09s0.726,0.726,1.09,1.09
	c0.726,0.363,1.438,0.726,2.165,1.09c0.363,0.363,0.726,0.726,1.09,1.09l2.165,1.09c0.363-0.363,0.726-0.726,1.09-1.09
	c0.363-0.726,0.726-1.453,1.09-2.179c0.363-0.363,0.726-0.726,1.09-1.09s0.726-0.726,1.09-1.09c0.363-0.726,0.726-1.453,1.09-2.179
	c0.363-0.363,0.726-0.726,1.09-1.09c0.726-1.09,1.438-2.179,2.165-3.269c0.363-0.363,0.726-0.726,1.09-1.09
	c2.876-3.08,5.709-6.203,8.673-9.211c0.843-0.843,1.235-1.656,1.075-2.775c0.363-0.363,0.726-0.726,1.09-1.09v-7.627
	c0.363-0.363,0.726-0.726,1.09-1.09c0.726-0.726,1.438-1.453,2.165-2.179c0.363-0.363,0.726-0.726,1.09-1.09c0.363,0,0.726,0,1.09,0
	c0.363-0.363,0.726-0.726,1.09-1.09c1.801,0,3.617,0,5.419,0c0.363,0.363,0.726,0.726,1.09,1.09c0.726,0.363,1.438,0.726,2.165,1.09
	c0.363,0.363,0.726,0.726,1.09,1.09c0.363,0.363,0.726,0.726,1.09,1.09c0.363,0.363,0.726,0.726,1.09,1.09
	c0.363,0.363,0.726,0.726,1.09,1.09h11.913c0.726,0,1.438,0,2.165,0c0.363,0.363,0.726,0.726,1.09,1.09
	c0.363,0.363,0.726,0.726,1.09,1.09s0.726,0.726,1.09,1.09c1.598,1.976,1.002,4.315,1.09,6.537c-0.363,0.363-0.726,0.726-1.09,1.09
	v2.179c-0.363,0.363-0.726,0.726-1.09,1.09v4.358c-0.363,0.363-0.726,0.726-1.09,1.09v10.896c0.363,0.363,0.726,0.726,1.09,1.09
	v8.717c0,1.031-0.116,2.063,0.044,3.065c0.073,0.479,0.668,0.857,1.031,1.293v13.075c0.16,0.828-0.538,2.092,1.09,2.179
	c1.104,1.424,2.484,2.266,4.329,2.179c0.363,0.363,0.726,0.726,1.09,1.09c2.993,0,4.954,2.412,7.583,3.269
	c0.363,0.363,0.726,0.726,1.09,1.09h1.09c0.363,0.363,0.726,0.726,1.09,1.09c0.726,0.363,1.438,0.726,2.165,1.09
	c0.363,0.363,0.726,0.726,1.09,1.09l2.165,1.09c0.363,0.363,0.726,0.726,1.09,1.09l4.329,2.179c0.363,0.363,0.726,0.726,1.09,1.09
	c0.726,0.363,1.438,0.726,2.165,1.09c0.363,0.363,0.726,0.726,1.09,1.09c1.438,0.726,2.891,1.453,4.329,2.179
	c0.363,0.363,0.726,0.726,1.09,1.09c0.726,0.363,1.438,0.726,2.165,1.09c0.363,0.363,0.726,0.726,1.09,1.09h1.09
	c0.363,0.363,0.726,0.726,1.09,1.09l2.165,1.09c0.363,0.363,0.726,0.726,1.09,1.09h2.165c0.363,0.363,0.726,0.726,1.09,1.09h1.09
	c0.363,0.363,0.726,0.726,1.09,1.09h1.09c0.363,0.363,0.726,0.726,1.09,1.09c0.363,0.363,0.726,0.726,1.09,1.09
	c0.363,0.363,0.726,0.726,1.09,1.09c0.363,0.363,0.726,0.726,1.09,1.09c0.363,1.09,0.726,2.179,1.09,3.269
	c0.363,0.363,0.726,0.726,1.09,1.09v8.717h-1.09c-0.363-0.363-0.726-0.726-1.09-1.09s-0.726-0.726-1.09-1.09
	c-0.363-0.363-0.726-0.726-1.09-1.09s-0.726-0.726-1.09-1.09c-0.726-0.363-1.438-0.726-2.165-1.09
	c-0.363-0.363-0.726-0.726-1.09-1.09c-0.726-0.363-1.438-0.726-2.165-1.09c-0.363-0.363-0.726-0.726-1.09-1.09
	c-1.801-0.363-3.617-0.726-5.419-1.09c-0.363-0.363-0.726-0.726-1.09-1.09c-1.38,0-2.76-0.087-4.111,0.044
	c-0.465,0.044-0.872,0.683-1.307,1.046c-0.363,0.363-0.726,0.726-1.09,1.09c-0.363,2.542-0.726,5.085-1.09,7.627
	c-0.363,0.363-0.726,0.726-1.09,1.09v2.179c-0.363,0.363-0.726,0.726-1.09,1.09v1.09c-0.363,0.363-0.726,0.726-1.09,1.09
	c0.189,2.179-1.627,3.559-2.165,5.448c-0.363,0.363-0.726,0.726-1.09,1.09v1.09c-0.363,0.363-0.726,0.726-1.09,1.09
	c-0.363,0.726-0.726,1.453-1.09,2.179c-0.363,0.363-0.726,0.726-1.09,1.09c-0.363,0.726-0.726,1.453-1.09,2.179l-1.09,1.09
	l-1.09,1.09l-5.419,5.448l-1.09,1.09c-1.09,0.726-2.165,1.453-3.254,2.179l-1.09,1.09c-2.63,0.857-4.591,3.269-7.583,3.269
	c-0.363,0.363-0.726,0.726-1.09,1.09h-1.09c-0.363,0.363-0.726,0.726-1.09,1.09h-2.165c-0.363,0.363-0.726,0.726-1.09,1.09h-3.254
	c-0.363,0.363-0.726,0.726-1.09,1.09h-4.329c0.363-0.726,0.726-1.453,1.09-2.179c-0.116-0.305-0.232-0.596-0.363-0.901
	c-0.247,0.305-0.479,0.596-0.726,0.901h-2.165c-0.363,0.363-0.726,0.726-1.09,1.09h-3.254c-0.363,0.363-0.726,0.726-1.09,1.09
	H85.299c-0.363-0.363-0.726-0.726-1.09-1.09H79.88c-0.363-0.363-0.726-0.726-1.09-1.09h-2.165c-0.363-0.363-0.726-0.726-1.09-1.09
	h-2.165c-0.363-0.363-0.726-0.726-1.09-1.09H72.181z M63.508,162.321c-0.087-1.627-1.351-0.93-2.165-1.09
	c-0.363-0.363-0.726-0.726-1.09-1.09c-0.363,0-0.726,0-1.177,0.116c0.073-0.073,0.145-0.145,0.218-0.218l-0.755-0.886
	c-0.116,0.116-0.232,0.232-0.349,0.349c0.291,0.247,0.596,0.508,0.988,0.639c0.363,0.363,0.726,0.726,1.09,1.09
	c0.363,0.363,0.726,0.726,1.09,1.09h1.09c0.363,0.363,0.726,0.726,1.09,1.09h1.09c0.683,0.726,1.22,1.714,2.048,2.121
	c1.772,0.901,3.719,1.467,5.564,2.237c5.84,2.47,11.956,4.155,18.218,4.228c8.136,0.087,16.344,1.148,24.421-0.944
	c2.295-0.596,4.765-0.654,6.959-1.511c5.593-2.165,11.579-3.458,16.503-7.206c0.232-0.174,0.697-0.029,1.061-0.029l1.09,1.09
	c-0.363,0.726-0.726,1.453-1.09,2.179c-0.363,0.363-0.726,0.726-1.09,1.09h-1.09c-0.363,0.363-0.726,0.726-1.09,1.09h-1.09
	c-0.363,0.363-0.726,0.726-1.09,1.09c-0.305,0.116-0.596,0.232-0.901,0.363c0.305,0.247,0.596,0.494,0.901,0.726
	c0.363-0.363,0.726-0.726,1.09-1.09h1.09c0.363-0.363,0.726-0.726,1.09-1.09h1.09c0.363-0.363,0.726-0.726,1.09-1.09h1.09
	c5.855-2.441,9.806-7.249,14.194-11.52c2.746-2.688,4.649-5.913,6.45-9.269c2.484-4.605,4.591-9.356,6.073-14.339
	c0.872-2.92,3.007-5.985,0.16-9.588c1.395-0.407,2.513-0.988,3.617-1.002c7.903-0.029,14.76,3.022,21.515,7.889
	c0-1.322,0.305-2.339-0.058-2.993c-1.772-3.225-3.981-6.014-7.743-7.133c-5.215-1.554-10.01-4.14-14.179-7.525
	c-5.07-4.126-10.634-7.453-16.271-10.533c-3.922-2.15-7.714-4.62-12.116-6.029c-3.777-1.206-7.148-3.632-10.838-5.186
	c-1.845-0.784-3.981-0.828-5.985-1.22v-1.09c2.833,0.363,5.666,0.741,8.76,1.133c-0.523-5.201,0.61-9.951-1.046-14.702
	c-0.726-2.092-0.174-4.663-0.102-7.017c0.058-2.281-1.816-4.242-1.09-6.61c0.741-2.397-0.843-4.387-1.162-6.61
	c-0.276-1.918,1.206-3.225,1.162-4.998c-0.131-4.896,1.729-9.341,3.356-14.223c-1.7-1.22-3.487-2.513-5.448-3.937
	c-2.353,0.378-4.721,0.755-7.191,1.162c-0.814-1.307-2.353-0.814-3.719-0.872c-0.726,0-1.438,0-2.165,0
	c-1.613-1.874-3.211-3.734-4.649-5.419h-5.608c-1.366,0.901-2.659,1.729-3.501,2.281c-0.61,3.748-1.133,6.988-1.845,11.39
	c-7.249,7.932-16.14,15.937-21.399,26.615c-3.734-2.31-6.901-4.852-10.387-7.046c-6.436-4.039-13.075-7.656-20.179-10.039
	c-6.872-2.31-13.772-5.07-21.283-4.707c-0.436-0.363-0.872-1.017-1.322-1.046c-2.077-0.116-4.169-0.044-6.261-0.044
	c-1.09,0-2.165,0-3.254,0c-0.683,0.116-1.366,0.247-2.063,0.363c0.029,0.247,0.058,0.479,0.073,0.726h1.976
	c0.087,1.627,1.351,0.93,2.165,1.09c10.925,5.404,18.697,13.859,24.072,25.627c-0.363,2.063-0.305,5.07-1.496,7.424
	c-0.915,1.801-0.683,3.385-0.901,5.085c-0.363,0.465-1.002,0.915-1.031,1.395c-0.116,1.976,0.015,3.966-0.102,5.927
	c-0.029,0.479-0.668,0.93-1.031,1.395c-0.494-2.499-0.973-4.998-1.467-7.496c-0.726,2.019-0.131,4.213-0.843,5.84
	c-2.048,4.692-0.32,9.472-0.944,14.164c2.136,1.889,0.915,4.373,1.017,6.552c0.102,2.441,1.932,4.547,1.148,7.09
	c0.16,0.828-0.538,2.092,1.09,2.179v3.269h-1.09v-1.09c-0.363-0.363-0.726-0.726-1.09-1.09c-0.363-0.363-0.726-0.726-1.09-1.09
	v-2.179c-0.538-1.075-1.09-2.136-1.627-3.211c-0.203,1.525-1.467,3.182,0.552,4.3v2.179c0.16,0.828-0.538,2.092,1.09,2.179v1.09
	c0.16,0.828-0.538,2.092,1.09,2.179c0.363,1.104,0.625,2.266,1.104,3.327c3.283,7.453,7.482,14.281,13.671,19.685
	c1.685,1.467,3.603,2.688,5.23,4.228c3.864,3.676,8.92,5.491,13.089,8.688c0.334,0.262,1.046,0.029,1.584,0.029
	c-0.363,0.363-0.726,0.726-1.09,1.09c-1.801-0.363-3.617-0.726-5.419-1.09h-1.09L63.508,162.321z"/>
<path style="fill:#E38C00;" d="M94.931,174.306h6.508v1.09c-1.729,0-3.472,0.073-5.186-0.044c-0.465-0.029-0.872-0.683-1.307-1.046
	H94.931z"/>
<path style="fill:#E69C00;" d="M33.159,94.767v4.358h-1.09v-4.358H33.159z"/>
<path style="fill:#E7A100;" d="M29.92,108.932c0.363,0.421,0.959,0.814,1.031,1.293c0.16,1.002,0.044,2.048,0.044,3.065h-1.09
	v-4.358H29.92z"/>
<path style="fill:#E7A100;" d="M136.102,72.976c-0.363-0.421-0.959-0.814-1.031-1.293c-0.16-1.002-0.044-2.048-0.044-3.065h1.09
	v4.358H136.102z"/>
<path style="fill:#E49300;" d="M130.684,28.303h-3.254v-1.09C128.49,27.635,130.175,26.197,130.684,28.303z"/>
<path style="fill:#E49400;" d="M101.439,175.396v-1.09h3.254v1.09H101.439z"/>
<path style="fill:#E38E00;" d="M33.159,94.767h-1.09c0.16-0.828-0.538-2.092,1.09-2.179V94.767z"/>
<path style="fill:#E49400;" d="M32.084,41.378c-0.828-0.16-2.077,0.538-2.165-1.09C30.748,40.448,31.997,39.751,32.084,41.378z"/>
<path style="fill:#E69C00;" d="M50.505,154.694h-1.09c-0.305-0.116-0.61-0.247-1.554-0.625c1.264-0.218,1.947-0.349,2.644-0.465
	V154.694z"/>
<path style="fill:#E49200;" d="M32.084,99.126h1.09v2.179h-1.09V99.126z"/>
<path style="fill:#E38C00;" d="M104.679,175.396v-1.09h2.165C106.756,175.933,105.493,175.236,104.679,175.396z"/>
<path style="fill:#E38D00;" d="M136.102,86.051v-2.179c1.627,0.087,0.915,1.351,1.09,2.179H136.102z"/>
<path style="fill:#E59800;" d="M136.102,86.051h1.09v2.179C135.565,88.143,136.277,86.879,136.102,86.051z"/>
<path style="fill:#E69C00;" d="M105.769,21.766c-0.363,0.363-0.726,0.726-1.09,1.09C105.042,22.492,105.405,22.129,105.769,21.766z"
	/>
<path style="fill:#E39000;" d="M112.262,22.855c-0.363-0.363-0.726-0.726-1.09-1.09C111.536,22.129,111.899,22.492,112.262,22.855z"
	/>
<path style="fill:#E69C00;" d="M103.604,22.855c-0.363,0.363-0.726,0.726-1.09,1.09C102.878,23.582,103.241,23.218,103.604,22.855z"
	/>
<path style="fill:#E59800;" d="M115.517,25.034c-0.363-0.363-0.726-0.726-1.09-1.09C114.79,24.308,115.153,24.671,115.517,25.034z"
	/>
<path style="fill:#E59800;" d="M116.606,26.124c-0.363-0.363-0.726-0.726-1.09-1.09C115.88,25.398,116.243,25.761,116.606,26.124z"
	/>
<path style="fill:#E7A000;" d="M100.35,26.124c-0.363,0.363-0.726,0.726-1.09,1.09C99.623,26.85,99.987,26.487,100.35,26.124z"/>
<path style="fill:#E59800;" d="M118.771,28.303c-0.363-0.363-0.726-0.726-1.09-1.09C118.044,27.577,118.408,27.94,118.771,28.303z"
	/>
<path style="fill:#E38C00;" d="M127.444,27.213v1.09h-1.09C126.717,27.94,127.081,27.577,127.444,27.213z"/>
<path style="fill:#E7A000;" d="M133.938,29.393c-0.363-0.363-0.726-0.726-1.09-1.09C133.211,28.666,133.575,29.029,133.938,29.393z"
	/>
<path style="fill:#E69C00;" d="M136.102,31.572c-0.363-0.363-0.726-0.726-1.09-1.09C135.376,30.845,135.739,31.209,136.102,31.572z"
	/>
<path style="fill:#E69C00;" d="M99.26,34.841c-0.363,0.363-0.726,0.726-1.09,1.09C98.534,35.567,98.897,35.204,99.26,34.841z"/>
<path style="fill:#E39000;" d="M136.102,39.199c0.363-0.363,0.726-0.726,1.09-1.09C136.829,38.472,136.466,38.836,136.102,39.199z"
	/>
<path style="fill:#E28A00;" d="M8.244,40.288c-0.363,0.363-0.726,0.726-1.09,1.09C7.518,41.015,7.881,40.652,8.244,40.288z"/>
<path style="fill:#E38C00;" d="M38.578,42.468c-0.363-0.363-0.726-0.726-1.09-1.09C37.852,41.741,38.215,42.104,38.578,42.468z"/>
<path style="fill:#E59800;" d="M135.027,42.468c0.363-0.363,0.726-0.726,1.09-1.09C135.754,41.741,135.391,42.104,135.027,42.468z"
	/>
<path style="fill:#E7A000;" d="M8.244,42.468c0.363,0.363,0.726,0.726,1.09,1.09C8.971,43.194,8.607,42.831,8.244,42.468z"/>
<path style="fill:#E49400;" d="M42.922,43.557c-0.363-0.363-0.726-0.726-1.09-1.09C42.195,42.831,42.559,43.194,42.922,43.557z"/>
<path style="fill:#E69C00;" d="M11.498,43.557c0.363,0.363,0.726,0.726,1.09,1.09C12.225,44.284,11.862,43.92,11.498,43.557z"/>
<path style="fill:#E7A000;" d="M16.917,45.736l1.09,1.09C17.644,46.463,17.28,46.099,16.917,45.736z"/>
<path style="fill:#E7A000;" d="M52.67,46.826c-0.363-0.363-0.726-0.726-1.09-1.09C51.943,46.099,52.307,46.463,52.67,46.826z"/>
<path style="fill:#E38C00;" d="M55.924,47.915c-0.363-0.363-0.726-0.726-1.09-1.09C55.198,47.189,55.561,47.552,55.924,47.915z"/>
<path style="fill:#E38C00;" d="M133.938,47.915c0.363-0.363,0.726-0.726,1.09-1.09C134.664,47.189,134.301,47.552,133.938,47.915z"
	/>
<path style="fill:#E59800;" d="M58.089,49.005c-0.363-0.363-0.726-0.726-1.09-1.09C57.362,48.279,57.726,48.642,58.089,49.005z"/>
<path style="fill:#E59800;" d="M88.423,47.915c-0.363,0.363-0.726,0.726-1.09,1.09C87.696,48.642,88.059,48.279,88.423,47.915z"/>
<path style="fill:#E69C00;" d="M22.322,49.005c0.363,0.363,0.726,0.726,1.09,1.09C23.048,49.731,22.685,49.368,22.322,49.005z"/>
<path style="fill:#E7A000;" d="M60.253,50.095l-1.09-1.09L60.253,50.095z"/>
<path style="fill:#E7A000;" d="M62.418,51.184l-1.09-1.09C61.692,50.458,62.055,50.821,62.418,51.184z"/>
<path style="fill:#E69C00;" d="M64.583,52.274l-1.09-1.09L64.583,52.274z"/>
<path style="fill:#E7A000;" d="M26.665,52.274c0.363,0.363,0.726,0.726,1.09,1.09C27.392,53,27.029,52.637,26.665,52.274z"/>
<path style="fill:#E49400;" d="M66.762,53.363l-1.09-1.09C66.035,52.637,66.399,53,66.762,53.363z"/>
<path style="fill:#E59800;" d="M85.183,52.274c-0.363,0.363-0.726,0.726-1.09,1.09C84.456,53,84.82,52.637,85.183,52.274z"/>
<path style="fill:#E59800;" d="M27.74,53.363c0.363,0.363,0.726,0.726,1.09,1.09C28.467,54.09,28.104,53.727,27.74,53.363z"/>
<path style="fill:#E49400;" d="M28.83,54.453c0.363,0.363,0.726,0.726,1.09,1.09C29.556,55.179,29.193,54.816,28.83,54.453z"/>
<path style="fill:#E49400;" d="M29.92,55.542c0.363,0.363,0.726,0.726,1.09,1.09C30.646,56.269,30.283,55.906,29.92,55.542z"/>
<path style="fill:#E38C00;" d="M72.181,56.632c-0.363-0.363-0.726-0.726-1.09-1.09C71.454,55.906,71.817,56.269,72.181,56.632z"/>
<path style="fill:#E7A000;" d="M83.018,55.542c-0.363,0.363-0.726,0.726-1.09,1.09C82.292,56.269,82.655,55.906,83.018,55.542z"/>
<path style="fill:#E59800;" d="M30.995,56.632c0.363,0.363,0.726,0.726,1.09,1.09C31.721,57.358,31.358,56.995,30.995,56.632z"/>
<path style="fill:#E7A000;" d="M73.256,57.722c-0.363-0.363-0.726-0.726-1.09-1.09C72.529,56.995,72.892,57.358,73.256,57.722z"/>
<path style="fill:#E38C00;" d="M81.929,56.632c-0.363,0.363-0.726,0.726-1.09,1.09C81.202,57.358,81.565,56.995,81.929,56.632z"/>
<path style="fill:#E7A000;" d="M32.084,57.722c0.363,0.363,0.726,0.726,1.09,1.09C32.811,58.448,32.447,58.085,32.084,57.722z"/>
<path style="fill:#E59800;" d="M76.51,59.901c-0.363-0.363-0.726-0.726-1.09-1.09C75.783,59.174,76.147,59.538,76.51,59.901z"/>
<path style="fill:#E39000;" d="M135.027,59.901c-0.363-0.363-0.726-0.726-1.09-1.09C134.301,59.174,134.664,59.538,135.027,59.901z"
	/>
<path style="fill:#E49400;" d="M79.764,59.901c-0.363,0.363-0.726,0.726-1.09,1.09C79.038,60.627,79.401,60.264,79.764,59.901z"/>
<path style="fill:#E38C00;" d="M136.102,68.617h-1.09v-1.09C135.376,67.891,135.739,68.254,136.102,68.617z"/>
<path style="fill:#E7A000;" d="M40.757,72.976c-0.363,0.363-0.726,0.726-1.09,1.09C40.031,73.702,40.394,73.339,40.757,72.976z"/>
<path style="fill:#E7A000;" d="M36.413,75.155h-1.09c0.247-0.305,0.479-0.596,0.726-0.901C36.166,74.559,36.283,74.85,36.413,75.155
	z"/>
<path style="fill:#E59800;" d="M37.503,76.244c-0.363-0.363-0.726-0.726-1.09-1.09C36.777,75.518,37.14,75.881,37.503,76.244z"/>
<path style="fill:#E7A000;" d="M39.668,76.244c-0.363,0.363-0.726,0.726-1.09,1.09C38.941,76.971,39.304,76.608,39.668,76.244z"/>
<path style="fill:#E38C00;" d="M35.338,77.334c-0.363,0.363-0.726,0.726-1.09,1.09C34.612,78.06,34.975,77.697,35.338,77.334z"/>
<path style="fill:#E28A00;" d="M38.578,77.334c-0.247,0.305-0.479,0.596-0.726,0.901c-0.116-0.305-0.232-0.596-0.363-0.901H38.578z"
	/>
<path style="fill:#E49400;" d="M34.249,82.782c-0.363,0.363-0.726,0.726-1.09,1.09C33.522,83.508,33.886,83.145,34.249,82.782z"/>
<path style="fill:#E69C00;" d="M142.611,91.498c-0.363-0.363-0.726-0.726-1.09-1.09C141.884,90.772,142.248,91.135,142.611,91.498z"
	/>
<path style="fill:#E7A000;" d="M35.338,62.08c0.363,0.363,0.726,0.726,1.09,1.09L35.338,62.08z"/>
<path style="fill:#E69C00;" d="M151.284,95.857c-0.363-0.363-0.726-0.726-1.09-1.09C150.557,95.13,150.921,95.494,151.284,95.857z"
	/>
<path style="fill:#E38C00;" d="M153.448,96.946c-0.363-0.363-0.726-0.726-1.09-1.09C152.722,96.22,153.085,96.583,153.448,96.946z"
	/>
<path style="fill:#E59800;" d="M156.703,99.126c-0.363-0.363-0.726-0.726-1.09-1.09C155.976,98.399,156.339,98.762,156.703,99.126z"
	/>
<path style="fill:#E7A000;" d="M159.942,101.305c-0.363-0.363-0.726-0.726-1.09-1.09
	C159.216,100.578,159.579,100.941,159.942,101.305z"/>
<path style="fill:#E28A00;" d="M32.084,101.305h1.09v1.09C32.811,102.031,32.447,101.668,32.084,101.305z"/>
<path style="fill:#E49400;" d="M165.361,104.573c-0.363-0.363-0.726-0.726-1.09-1.09
	C164.635,103.847,164.998,104.21,165.361,104.573z"/>
<path style="fill:#E7A000;" d="M183.782,126.365c0.363,0.363,0.726,0.726,1.09,1.09
	C184.509,127.091,184.145,126.728,183.782,126.365z"/>
<path style="fill:#E39000;" d="M177.288,124.186c0.363,0.363,0.726,0.726,1.09,1.09
	C178.015,124.912,177.652,124.549,177.288,124.186z"/>
<path style="fill:#E38C00;" d="M192.455,132.902c0.363,0.363,0.726,0.726,1.09,1.09
	C193.182,133.629,192.818,133.266,192.455,132.902z"/>
<path style="fill:#E69F00;" d="M191.38,119.827c-0.363-0.363-0.726-0.726-1.09-1.09C190.654,119.101,191.017,119.464,191.38,119.827
	z"/>
<path style="fill:#E49400;" d="M168.615,135.082c0.363-0.363,0.726-0.726,1.09-1.09
	C169.342,134.355,168.979,134.718,168.615,135.082z"/>
<path style="fill:#E38C00;" d="M193.545,133.992c0.363,0.363,0.726,0.726,1.09,1.09
	C194.271,134.718,193.908,134.355,193.545,133.992z"/>
<path style="fill:#E49400;" d="M190.291,118.738c-0.363-0.363-0.726-0.726-1.09-1.09
	C189.564,118.012,189.927,118.375,190.291,118.738z"/>
<path style="fill:#E7A000;" d="M170.78,126.365c0.363-0.363,0.726-0.726,1.09-1.09C171.506,125.639,171.143,126.002,170.78,126.365z
	"/>
<path style="fill:#E49400;" d="M194.62,135.082h1.09c-0.247,0.305-0.479,0.596-0.726,0.901
	C194.867,135.677,194.751,135.387,194.62,135.082z"/>
<path style="fill:#E7A000;" d="M37.503,136.171c0.363,0.363,0.726,0.726,1.09,1.09C38.229,136.898,37.866,136.534,37.503,136.171z"
	/>
<path style="fill:#E69C00;" d="M188.126,117.648c-0.363-0.363-0.726-0.726-1.09-1.09C187.4,116.922,187.763,117.285,188.126,117.648
	z"/>
<path style="fill:#E69C00;" d="M193.545,122.007c-0.363-0.363-0.726-0.726-1.09-1.09
	C192.818,121.28,193.182,121.643,193.545,122.007z"/>
<path style="fill:#E38C00;" d="M185.961,116.559c-0.363-0.363-0.726-0.726-1.09-1.09
	C185.235,115.832,185.598,116.196,185.961,116.559z"/>
<path style="fill:#E38C00;" d="M195.709,126.365c-0.363-0.363-0.726-0.726-1.09-1.09
	C194.983,125.639,195.346,126.002,195.709,126.365z"/>
<path style="fill:#E38C00;" d="M167.54,138.35c0.363-0.363,0.726-0.726,1.09-1.09C168.267,137.624,167.903,137.987,167.54,138.35z"
	/>
<path style="fill:#E59800;" d="M38.578,138.35c0.363,0.363,0.726,0.726,1.09,1.09C39.304,139.077,38.941,138.713,38.578,138.35z"/>
<path style="fill:#E69C00;" d="M182.707,115.469c-0.363-0.363-0.726-0.726-1.09-1.09
	C181.981,114.743,182.344,115.106,182.707,115.469z"/>
<path style="fill:#E39000;" d="M29.92,113.29h1.09v1.09C30.646,114.016,30.283,113.653,29.92,113.29z"/>
<path style="fill:#E39000;" d="M179.453,113.29c-0.363-0.363-0.726-0.726-1.09-1.09C178.727,112.564,179.09,112.927,179.453,113.29z
	"/>
<path style="fill:#E7A000;" d="M177.288,112.2c-0.363-0.363-0.726-0.726-1.09-1.09C176.562,111.474,176.925,111.837,177.288,112.2z"
	/>
<path style="fill:#E69C00;" d="M166.451,140.529c0.363-0.363,0.726-0.726,1.09-1.09
	C167.177,139.803,166.814,140.166,166.451,140.529z"/>
<path style="fill:#E69C00;" d="M40.757,141.619c0.363,0.363,0.726,0.726,1.09,1.09C41.484,142.345,41.12,141.982,40.757,141.619z"/>
<path style="fill:#E28A00;" d="M187.036,128.544c0.363,0.363,0.726,0.726,1.09,1.09C187.763,129.27,187.4,128.907,187.036,128.544z"
	/>
<path style="fill:#E69C00;" d="M34.249,129.634c0.363,0.363,0.726,0.726,1.09,1.09C34.975,130.36,34.612,129.997,34.249,129.634z"/>
<path style="fill:#E49400;" d="M43.997,145.977c0.363,0.363,0.726,0.726,1.09,1.09C44.723,146.704,44.36,146.34,43.997,145.977z"/>
<path style="fill:#E69C00;" d="M163.197,147.067c0.363-0.363,0.726-0.726,1.09-1.09C163.923,146.34,163.56,146.704,163.197,147.067z
	"/>
<path style="fill:#E69C00;" d="M45.086,147.067c0.363,0.363,0.726,0.726,1.09,1.09C45.813,147.793,45.45,147.43,45.086,147.067z"/>
<path style="fill:#E39000;" d="M162.121,149.246c0.363-0.363,0.726-0.726,1.09-1.09C162.848,148.52,162.485,148.883,162.121,149.246
	z"/>
<path style="fill:#E7A000;" d="M47.251,149.246c0.363,0.363,0.726,0.726,1.09,1.09C47.977,149.972,47.614,149.609,47.251,149.246z"
	/>
<path style="fill:#E7A000;" d="M48.341,150.336c0.363,0.363,0.726,0.726,1.09,1.09C49.067,151.062,48.704,150.699,48.341,150.336z"
	/>
<path style="fill:#E7A000;" d="M49.416,151.425c0.363,0.363,0.726,0.726,1.09,1.09C50.142,152.152,49.779,151.788,49.416,151.425z"
	/>
<path style="fill:#E59800;" d="M159.942,152.515c0.363-0.363,0.726-0.726,1.09-1.09
	C160.669,151.788,160.305,152.152,159.942,152.515z"/>
<path style="fill:#E38C00;" d="M157.778,155.783l1.09-1.09L157.778,155.783z"/>
<path style="fill:#E69C00;" d="M156.703,156.873l1.09-1.09L156.703,156.873z"/>
<path style="fill:#E59800;" d="M174.034,110.021c-0.363-0.363-0.726-0.726-1.09-1.09
	C173.308,109.295,173.671,109.658,174.034,110.021z"/>
<path style="fill:#E7A000;" d="M53.759,159.052c0.363,0.363,0.726,0.726,1.09,1.09C54.486,159.779,54.123,159.415,53.759,159.052z"
	/>
<path style="fill:#E69C00;" d="M190.291,130.723c0.363,0.363,0.726,0.726,1.09,1.09C191.017,131.45,190.654,131.086,190.291,130.723
	z"/>
<path style="fill:#E69C00;" d="M54.835,160.142c0.363,0.363,0.726,0.726,1.09,1.09C55.561,160.868,55.198,160.505,54.835,160.142z"
	/>
<path style="fill:#E28B00;" d="M55.924,161.231c0.363,0.363,0.726,0.726,1.09,1.09C56.65,161.958,56.287,161.595,55.924,161.231z"/>
<path style="fill:#E28B00;" d="M33.159,107.842c-0.247,0.305-0.479,0.596-0.726,0.901c-0.116-0.305-0.232-0.596-0.363-0.901H33.159z
	"/>
<path style="fill:#E69C00;" d="M150.194,163.411l1.09-1.09L150.194,163.411z"/>
<path style="fill:#E69C00;" d="M59.178,163.411c0.363,0.363,0.726,0.726,1.09,1.09C59.905,164.137,59.541,163.774,59.178,163.411z"
	/>
<path style="fill:#E49400;" d="M62.418,165.59c0.363,0.363,0.726,0.726,1.09,1.09C63.144,166.316,62.781,165.953,62.418,165.59z"/>
<path style="fill:#E38C00;" d="M30.995,119.827c0.363,0.363,0.726,0.726,1.09,1.09C31.721,120.554,31.358,120.191,30.995,119.827z"
	/>
<path style="fill:#E49400;" d="M145.865,166.679l1.09-1.09L145.865,166.679z"/>
<path style="fill:#E69C00;" d="M64.583,166.679c0.363,0.363,0.726,0.726,1.09,1.09C65.309,167.406,64.946,167.042,64.583,166.679z"
	/>
<path style="fill:#E38C00;" d="M32.084,107.842c-0.363-0.363-0.726-0.726-1.09-1.09C31.358,107.116,31.721,107.479,32.084,107.842z"
	/>
<path style="fill:#E49400;" d="M191.38,131.813c0.363,0.363,0.726,0.726,1.09,1.09C192.107,132.539,191.743,132.176,191.38,131.813z
	"/>
<path style="fill:#E69F00;" d="M66.762,167.769c0.363,0.363,0.726,0.726,1.09,1.09C67.488,168.495,67.125,168.132,66.762,167.769z"
	/>
<path style="fill:#E69C00;" d="M168.615,106.753c-0.363-0.363-0.726-0.726-1.09-1.09
	C167.889,106.026,168.252,106.389,168.615,106.753z"/>
<path style="fill:#E49400;" d="M68.926,168.858c0.363,0.363,0.726,0.726,1.09,1.09C69.653,169.585,69.29,169.222,68.926,168.858z"/>
<path style="fill:#E7A000;" d="M72.181,169.948c0.363,0.363,0.726,0.726,1.09,1.09C72.907,170.674,72.544,170.311,72.181,169.948z"
	/>
<path style="fill:#E7A000;" d="M137.192,171.038c0.363-0.363,0.726-0.726,1.09-1.09
	C137.918,170.311,137.555,170.674,137.192,171.038z"/>
<path style="fill:#E7A000;" d="M75.42,171.038c0.363,0.363,0.726,0.726,1.09,1.09C76.147,171.764,75.783,171.401,75.42,171.038z"/>
<path style="fill:#E49400;" d="M123.1,172.127c0.247-0.305,0.479-0.596,0.726-0.901c0.116,0.305,0.232,0.596,0.363,0.901H123.1z"/>
<path style="fill:#E39000;" d="M135.027,172.127c0.363-0.363,0.726-0.726,1.09-1.09
	C135.754,171.401,135.391,171.764,135.027,172.127z"/>
<path style="fill:#E49400;" d="M78.674,172.127c0.363,0.363,0.726,0.726,1.09,1.09C79.401,172.854,79.038,172.49,78.674,172.127z"/>
<path style="fill:#E49400;" d="M119.86,173.217c0.363-0.363,0.726-0.726,1.09-1.09C120.587,172.49,120.224,172.854,119.86,173.217z"
	/>
<path style="fill:#E49400;" d="M131.773,173.217c0.363-0.363,0.726-0.726,1.09-1.09C132.5,172.49,132.136,172.854,131.773,173.217z"
	/>
<path style="fill:#E49400;" d="M84.093,173.217c0.363,0.363,0.726,0.726,1.09,1.09C84.82,173.943,84.456,173.58,84.093,173.217z"/>
<path style="fill:#E38C00;" d="M115.517,174.306c0.363-0.363,0.726-0.726,1.09-1.09C116.243,173.58,115.88,173.943,115.517,174.306z
	"/>
<path style="fill:#E69C00;" d="M127.444,174.306c0.363-0.363,0.726-0.726,1.09-1.09C128.17,173.58,127.807,173.943,127.444,174.306z
	"/>
<path style="fill:#E59800;" d="M123.216,174.408c-0.247,0.291-0.508,0.596-0.755,0.886l-0.349-0.349
	c0.291-0.247,0.596-0.508,0.886-0.755C123.071,174.263,123.144,174.335,123.216,174.408z"/>
<path d="M27.74,43.557c7.511-0.363,14.426,2.412,21.283,4.707c7.104,2.383,13.743,6,20.179,10.039
	c3.487,2.194,6.654,4.736,10.387,7.046c5.259-10.663,14.15-18.683,21.399-26.615c0.712-4.402,1.235-7.642,1.845-11.39
	c0.857-0.552,2.136-1.395,3.501-2.281h5.608c1.438,1.671,3.036,3.545,4.649,5.419c0.523,1.075,1.061,2.15,2.165,4.387v-4.387
	c1.38,0.058,2.906-0.45,3.719,0.872c2.484-0.407,4.852-0.784,7.191-1.162c1.976,1.424,3.763,2.717,5.448,3.937
	c-1.627,4.881-3.501,9.327-3.356,14.223c0.044,1.758-1.438,3.065-1.162,4.998c0.32,2.223,1.903,4.213,1.162,6.61
	c-0.726,2.368,1.162,4.329,1.09,6.61c-0.058,2.353-0.625,4.925,0.102,7.017c1.656,4.751,0.538,9.487,1.046,14.702
	c-3.094-0.407-5.927-0.77-8.76-1.133c-1.7-0.872-3.37-1.947-5.433-0.378c1.947,0.523,3.69,1.002,5.433,1.467
	c2.005,0.378,4.155,0.436,5.985,1.22c3.69,1.554,7.06,3.981,10.838,5.186c4.402,1.395,8.208,3.879,12.116,6.029
	c5.637,3.094,11.201,6.407,16.271,10.533c4.155,3.385,8.964,5.971,14.179,7.525c3.763,1.119,5.985,3.908,7.743,7.133
	c0.363,0.654,0.058,1.685,0.058,2.993c-6.755-4.867-13.627-7.932-21.515-7.889c-1.119,0-2.223,0.596-3.617,1.002
	c2.847,3.603,0.697,6.654-0.16,9.588c-1.467,4.983-3.588,9.734-6.073,14.339c-1.816,3.37-3.705,6.596-6.45,9.269
	c-4.387,4.286-8.324,9.094-14.194,11.52l-1.09-1.09c0.363-0.726,0.726-1.453,1.09-2.179c0.726-0.363,1.438-0.726,2.165-1.09
	c0.363-0.363,0.726-0.726,1.09-1.09v-1.09c0.363-0.363,0.726-0.726,1.09-1.09c0.363-0.363,0.726-0.726,1.09-1.09
	s0.726-0.726,1.09-1.09c0.363-0.363,0.726-0.726,1.09-1.09s0.726-0.726,1.031-1.133c0,0.015,0.087,0.087,0.16,0.16
	c0.291-0.247,0.596-0.508,0.886-0.755l-0.349-0.349c-0.247,0.291-0.508,0.596-0.697,0.944c-0.305,0.407-0.668,0.77-1.031,1.133
	c-0.363,0.363-0.726,0.726-1.09,1.09c-0.363,0.363-0.726,0.726-1.09,1.09c-0.363,0.363-0.726,0.726-1.09,1.09
	c-0.828,0.16-2.077-0.538-2.165,1.09c-0.363,0.363-0.726,0.726-1.09,1.09h-1.09c-0.363,0.363-0.726,0.726-1.09,1.09
	c-0.363,0-0.843-0.145-1.061,0.029c-4.91,3.748-10.91,5.027-16.503,7.206c-2.179,0.843-4.649,0.915-6.959,1.511
	c-8.077,2.092-16.286,1.031-24.421,0.944c-6.247-0.073-12.378-1.758-18.218-4.228c-1.845-0.785-3.777-1.337-5.564-2.237
	c-0.828-0.421-1.38-1.395-2.048-2.121v-1.09c1.801,0.363,3.617,0.726,5.419,1.09c0.697,2.034,2.019,0.901,3.24,0.741
	c-0.044-0.581-0.087-1.061-0.16-1.83h-2.005c-0.538,0-1.249,0.232-1.584-0.029c-4.169-3.196-9.225-5.012-13.089-8.688
	c-1.613-1.54-3.53-2.76-5.23-4.228c-6.189-5.404-10.387-12.232-13.671-19.685c-0.465-1.061-0.741-2.208-1.104-3.327
	c-0.16-0.828,0.538-2.092-1.09-2.179v-3.269h1.09v1.09c0.363,0.363,0.726,0.726,1.09,1.09c0.363,0.363,0.726,0.726,1.09,1.09v1.09
	c0.363,0.363,0.726,0.726,1.09,1.09v1.09c0.363,0.363,0.726,0.726,1.09,1.09c0.363,0.363,0.726,0.726,1.09,1.09
	c0.16,0.349,0.32,0.697,0.552,1.206c0.697-1.191,0.944-2.034-0.552-2.295c-0.363-0.363-0.726-0.726-1.09-1.09v-1.09
	c-0.16-0.828,0.538-2.092-1.09-2.179v-1.09c-0.363-0.363-0.726-0.726-1.09-1.09v-2.179c-0.16-0.828,0.538-2.092-1.09-2.179
	c0.784-2.542-1.046-4.649-1.148-7.09c-0.087-2.194,1.119-4.663-1.017-6.552c0.639-4.678-1.09-9.472,0.944-14.164
	c0.712-1.627,0.116-3.821,0.843-5.84c0.494,2.499,0.973,4.998,1.467,7.496c0.523,1.061,1.061,2.136,2.165,4.373V82.811
	c0.232-1.7,0-3.283,0.901-5.085c1.191-2.368,1.133-5.375,1.496-7.424C37.735,58.535,29.963,50.08,19.038,44.676
	c-0.087-1.627-1.351-0.93-2.165-1.09v-1.09h3.254c0.436,0.363,0.872,1.017,1.322,1.046c2.077,0.116,4.169,0.044,6.261,0.044
	L27.74,43.557z M153.448,106.753c0.949,0.891,2.097,0.891,3.443,0h-2.368c-0.363-0.363-0.726-0.726-1.09-1.09h-1.09
	c-0.363-0.363-0.726-0.726-1.09-1.09h-1.09c-1.104-1.424-2.484-2.266-4.329-2.179c0.639-0.567,1.278-1.119,2.048-1.801
	c-0.596-0.421-1.322-0.944-2.048-1.467c-4.91-2.513-9.835-5.027-15.167-6.537h-1.09c-0.508-2.107-2.179-0.668-3.254-1.09
	c-0.93-0.654-5.942-2.092-7.583-2.179c-0.087-1.627-1.351-0.93-2.165-1.09h-2.165c-0.668-2.034-2.005-0.886-3.559-0.741
	c1.424,0.741,2.499,1.278,3.559,1.83h2.165c0.087,1.627,1.351,0.93,2.165,1.09c1.409,0.567,2.818,1.119,4.431,1.758
	c-0.843,0.305-1.438,0.523-2.426,0.886c0.886,0.654,1.613,1.177,2.339,1.714c3.138,4.053,7.322,6.465,12.218,7.613
	c4.939,1.162,9.908,2.194,14.862,3.283h1.09c0.363,0.363,0.726,0.726,1.09,1.09h1.09H153.448z M126.354,159.052
	c0.363-0.363,0.726-0.726,1.09-1.09h3.254v1.09c-0.363,0.363-0.726,0.726-1.09,1.09c-1.874,0.552-3.254,2.368-5.419,2.179
	c-0.363,0.363-0.726,0.726-1.09,1.09h-1.09c-0.828,0.16-2.077-0.538-2.165,1.09c-1.801,0.363-3.617,0.726-5.419,1.09
	c-0.828,0.16-2.077-0.538-2.165,1.09h-3.254c-1.801,0.363-3.617,0.726-5.419,1.09H87.333c-1.472-0.92-3.433-0.93-5.884-0.029
	c2.484,0,4.373-0.131,5.884,1.119h16.256c1.729,0,3.472,0.073,5.186-0.044c0.465-0.029,0.872-0.683,1.307-1.046h4.329
	c0.828-0.16,2.077,0.538,2.165-1.09c1.874-0.029,3.821,0.349,5.419-1.09h1.09c0.363-0.363,0.726-0.726,1.09-1.09h2.165
	c0.363-0.363,0.726-0.726,1.09-1.09c1.017-0.116,2.179,0.029,3.051-0.407c5.404-2.76,10.678-5.84,15.225-9.893
	c3.777-3.356,7.467-6.901,9.908-11.491c0.363-0.363,0.726-0.726,1.09-1.09c0-0.363,0-0.726,0-1.09
	c0.363-0.363,0.726-0.726,1.09-1.09c1.627-0.087,0.915-1.351,1.09-2.179c0.363-0.363,0.726-0.726,1.09-1.09
	c1.511-0.261,1.264-1.104,0.552-2.295c-0.232,0.508-0.392,0.857-0.552,1.206c-0.363,0.363-0.726,0.726-1.09,1.09
	c-0.363,0.363-0.726,0.726-1.09,1.09v1.09c-0.363,0.363-0.726,0.726-1.09,1.09c-2.412,1.889-5.012,3.588-7.206,5.709
	c-2.121,2.048-4.707,3.37-6.901,5.23c-2.644,2.237-6.218,2.891-8.658,5.404h-1.09c-1.09,0.726-2.165,1.453-3.254,2.179h-2.165
	c-0.363,0.363-0.726,0.726-1.09,1.09c-0.305,0.116-0.596,0.232-0.901,0.363c0.305,0.247,0.596,0.494,0.901,0.726H126.354z
	 M122.025,153.604c0.363-0.363,0.726-0.726,1.09-1.09h1.09c0.363-0.363,0.726-0.726,1.09-1.09c0.363,0,0.726,0,1.09,0
	c0.363-0.363,0.726-0.726,1.09-1.09c0.363,0,0.726,0,1.09,0c0.363-0.363,0.726-0.726,1.09-1.09c0.363-0.363,0.726-0.726,1.09-1.09
	c0.363,0,0.726,0,1.09,0c0.363-0.363,0.726-0.726,1.09-1.09h1.09c6.247-3.472,12.363-7.104,17.259-12.45
	c-0.726-1.278-2.644-1.918-2.092-3.893h1.09c1.453,1.206,3.167,1.206,3.864,1.148c2.906-2.92,5.244-5.274,7.482-7.511
	c-0.915-0.392-2.121-0.915-2.586-1.119c-2.441,0.407-4.097,0.799-5.767,0.93c-1.947,0.145-3.908,0.029-5.855,0.029
	c-1.816,4.983-4.852,9.065-7.99,13.075c-0.363,0.363-0.726,0.726-1.09,1.09c-0.363,0.363-0.726,0.726-1.09,1.09
	c-0.349,0.16-0.712,0.32-0.944,0.436c0.363,0.683,0.654,1.22,0.944,1.743c-1.438,1.453-2.891,2.906-4.329,4.358
	c-0.363,0.363-0.726,0.726-1.09,1.09h-1.09c-0.363,0.363-0.726,0.726-1.09,1.09c-0.363,0.363-0.726,0.726-1.09,1.09h-1.09
	c-0.363,0.363-0.726,0.726-1.09,1.09c-0.363,0.363-0.726,0.726-1.09,1.09c-0.363,0-0.726,0-1.09,0
	c-0.363,0.363-0.726,0.726-1.09,1.09h-1.09c-0.363,0.363-0.726,0.726-0.973,1.191c-0.073-0.073-0.145-0.145-0.218-0.218
	c-0.291,0.247-0.596,0.508-0.886,0.755l0.349,0.349c0.247-0.291,0.508-0.596,0.639-0.988c0.363,0,0.726,0,1.09,0L122.025,153.604z
	 M48.341,130.723c-0.363,0.363-0.726,0.726-1.09,1.09v1.09c0.16,0.828-0.538,2.092,1.09,2.179c0.247,0.785,0.523,1.569,0.726,2.368
	c0.16,0.654,0.247,1.322,0.363,1.99h-1.09c-0.363-0.363-0.726-0.726-1.09-1.09s-0.726-0.726-1.09-1.09
	c-0.363-0.363-0.726-0.726-1.09-1.09c-0.261-1.511-1.09-1.264-2.281-0.567c0.494,0.232,0.843,0.392,1.191,0.567
	c0.363,0.363,0.726,0.726,1.09,1.09c0.363,0.363,0.726,0.726,1.09,1.09c0.363,0.363,0.726,0.726,1.09,1.09
	c0.16,0.828-0.538,2.092,1.09,2.179c3.269,4.155,7.06,7.7,11.273,10.939c4.344,3.356,9.211,5.491,14.135,7.511
	c3.254,1.337,6.61,2.891,10.358,2.252c0.276,0.363,0.567,1.031,0.857,1.046c4.126,0.073,8.252,0.073,12.392,0
	c0.291,0,0.567-0.683,0.857-1.046h5.419c0.726-0.523,1.453-1.046,2.6-1.889c-1.7-0.073-3.036-1.249-3.676,0.799h-1.09
	c-3.414,0-7.002,0.668-10.198-0.189c-3.298-0.886-6.683-1.075-9.981-1.816c-6.014-1.366-11.07-4.649-16.474-7.191
	c-2.281-1.075-4.257-3.051-6.029-4.925c-1.874-1.99-3.356-4.358-4.998-6.567c0.363-0.363,0.726-0.726,1.09-1.09
	c3.196,2.935,6.407,5.869,9.588,8.789c1.816-0.291,2.339-2.949,4.504-2.252c0.363,0.363,0.726,0.726,1.09,1.09
	c-0.349,1.293-0.697,2.571-1.075,3.952c4.765,2.077,9.385,4.562,14.629,4.838c1.918-2.324,4.431-3.806,5.855-7.525v9.385h10.78
	v-13.99c-5.39,0.465-10.431-0.508-15.385-2.107c-2.063-0.668-4.097-1.438-6.131-2.165c-0.087-1.627-1.351-0.93-2.165-1.09
	c-0.087-1.627-1.351-0.93-2.165-1.09c-0.363-0.363-0.726-0.726-1.09-1.09c-0.523-0.726-1.046-1.438-1.83-2.513
	c-0.712,2.426,0.421,3.109,1.83,3.603c0.363,0.363,0.726,0.726,1.09,1.09h1.09c0.363,0.363,0.726,0.726,1.09,1.09l1.09,1.09
	l1.09,1.09v1.09h-2.165c-0.087-1.627-1.351-0.93-2.165-1.09c-3.53-0.901-6.697-2.513-9.617-4.707
	c-0.61-0.465-1.525-0.508-2.31-0.741c-0.363-0.363-0.726-0.726-1.09-1.09c-0.087-1.627-1.351-0.93-2.165-1.09
	c-0.363-0.363-0.726-0.726-1.177-0.973c0.073-0.073,0.145-0.145,0.218-0.218c-0.247-0.291-0.508-0.596-0.755-0.886
	c-0.116,0.116-0.232,0.232-0.349,0.349c0.291,0.247,0.596,0.508,0.988,0.639c0.16,0.828-0.538,2.092,1.09,2.179
	c0.363,0.363,0.726,0.726,1.09,1.09c0.363,0.363,0.726,0.726,1.09,1.09v1.09h-1.09c-2.528-1.816-5.056-3.632-7.583-5.448
	c-0.363-0.363-0.726-0.726-1.09-1.09s-0.726-0.726-1.09-1.09c-0.363-0.363-0.726-0.726-1.177-0.973
	c0.073-0.073,0.145-0.145,0.218-0.218c-0.247-0.291-0.508-0.596-0.755-0.886c-0.116,0.116-0.232,0.232-0.349,0.349
	c0.291,0.247,0.596,0.508,0.988,0.639v1.09h-1.09L48.341,130.723z M99.26,93.678c0.363,0,0.726,0,1.09,0
	c0.363-0.363,0.726-0.726,1.09-1.09c0.349-0.16,0.697-0.32,1.191-0.567c-1.191-0.712-2.019-0.959-2.281,0.567h-1.09
	c-0.538-0.291-1.061-0.581-1.743-0.944c-0.102,0.247-0.261,0.596-0.421,0.944h-1.09c-0.363,0.363-0.726,0.726-1.09,1.09h-2.165
	c0.363-0.726,0.726-1.453,1.09-2.179l1.09-1.09c0.726-0.523,1.453-1.046,2.6-1.889c-1.7-0.073-3.036-1.249-3.675,0.799h-1.09v-1.09
	c-1.366-1.467-2.964-1.467-4.329,0h-1.09c-0.363-0.363-0.726-0.726-1.09-1.09c1.671-2.034,4.373-2.412,6.944-4.358h-9.109
	c-2.876,0-5.767-0.174-8.629,0.044c-4.14,0.32-7.83-0.639-11.186-3.051c-0.247-0.189-0.639-0.174-1.409-0.363
	c-0.349,0.523-0.814,1.249-1.307,1.99c1.337,1.22,2.978,2.426,5.186,2.47v1.09c-4.605-0.363-9.312,0.828-14.135-0.886
	c0.16,2.237,1.235,3.153,3.298,3.065c2.949-0.131,5.637,1.874,8.673,1.09c0.363,0.726,0.726,1.453,1.09,2.179
	c-3.065,0.087-6.247-0.567-8.935,1.801c-0.538,0.465-1.642,0.334-2.499,0.363c-1.569,0.058-3.123,0.015-4.721,0.015v3.269h5.317
	c1.061-0.421,2.746,1.017,3.254-1.09h1.09c0.363-0.363,0.726-0.726,1.09-1.09h1.09v2.179h-1.09c-0.363,0.363-0.726,0.726-1.09,1.09
	c-0.93,0.363-1.889,0.683-2.789,1.104c-4.78,2.194-9.922,3.821-13.54,8.295c0.145,0.814,0.305,1.743,0.45,2.542
	c5.288-2.644,10.242-5.085,15.152-7.583c1.642-0.843,3.036-2.252,5.07-2.165c0,0.363,0,0.726,0,1.09
	c-1.148,1.337-2.063,3.036-3.472,3.937c-7.162,4.518-11.506,11.433-16.358,18.16c1.002,0.843,1.758,1.496,2.557,2.179
	c3.109-5.027,12.697-13.162,23.782-18.828l1.09,1.09c-6.174,5.884-9.109,13.569-12.014,21.196c0.872,0.814,1.496,1.38,2.208,2.048
	c1.976-1.278,2.397-3.196,3.298-4.765c3.138-5.419,5.303-11.535,10.838-15.225l1.09,1.09c-1.642,2.528-1.613,5.564-2.499,8.223
	c-1.104,3.269-0.45,6.145-0.567,8.993h2.775c0.479-4.228,0.886-8.237,1.424-12.218c0.087-0.61,0.683-1.162,1.046-1.729h1.09v1.09
	c0.538,1.061,1.061,2.136,1.889,3.792c2.455-5.041,5.056-9.196,7.7-13.307c1.758-2.731,5.172-4.286,5.579-7.918
	c1.09-1.09,2.165-2.179,3.254-3.269c0.363-0.363,0.726-0.726,1.09-1.09H99.26z M105.769,127.455c-0.363-0.363-0.726-0.726-1.09-1.09
	h-1.09v-1.09c0.349-0.16,0.697-0.32,1.191-0.567c-1.191-0.712-2.019-0.959-2.281,0.567c-1.627,0.087-0.915,1.351-1.09,2.179v1.09
	c-2.818-1.54-5.535-3.327-8.92-1.162c-0.697,0.45-1.976-0.015-2.993-0.073c0-2.005,0.029-3.632,0-5.244
	c-0.029-1.438-0.116-2.891-0.189-4.329c-2.194,4.3-2.499,8.92-4.475,13.191c1.249,1.264,2.31,2.47,3.516,3.487
	c1.293,1.09,2.731,1.99,3.908,2.833c2.092,0,3.893,0.015,5.68,0c4.184-0.058,8.353,0.232,12.494-1.017
	c1.976-0.596,3.748-1.162,5.39-3.341h-3.559v-1.09c0.363-0.363,0.726-0.726,1.09-1.09c2.005-0.785,0.959-2.077,0.552-3.588
	c-0.886,2.034-2.484,1.249-3.792,1.409c-0.726-0.363-1.438-0.726-2.165-1.09h-2.165L105.769,127.455z M106.858,99.126l1.09,1.09
	c-1.278,1.903-1.932,3.763,0.828,5.506c0.944-0.087,2.252-0.218,4.286-0.421c-1.845-1.918-1.598-4.431-4.024-5.085l-1.09-1.09
	c-0.261-1.511-1.09-1.264-2.281-0.567C106.161,98.791,106.509,98.951,106.858,99.126z M93.841,69.707
	c-0.683,0.116-1.366,0.247-2.063,0.363c0.029,0.247,0.058,0.479,0.073,0.726h3.065c1.017,0,2.063-0.116,3.051,0.044
	c0.465,0.073,0.857,0.683,1.278,1.046h-5.622c0.726,2.121,1.293,3.835,1.932,5.521c0.116,0.305,0.494,0.523,0.988,1.017h3.966
	c2.513,0,5.041-0.145,7.54,0.044c2.383,0.174,4.794,0.465,7.075,1.119c1.627,0.465,3.559,0.494,4.722,2.107
	c-1.438,0-2.891,0-4.329,0c-1.772,0.508-3.53,1.002-5.303,1.511c0.044,0.218,0.087,0.45,0.131,0.668h16.01
	c0.712,0,1.453-0.116,2.15,0.029c0.697,0.145,1.337,0.538,2.077,0.872v-9.181c-0.494-0.494-0.799-1.002-1.264-1.235
	c-8.106-4.01-16.721-6.174-25.699-6.741c-2.513-0.16-5.07,0.654-7.613,1.017c-0.828,0.16-2.077-0.538-2.165,1.09L93.841,69.707z
	 M123.1,54.453c2.092-0.508,0.668-2.194,1.09-3.269v-2.964c0.988-0.334,1.598-0.552,2.179-0.755v-5.913
	c0.639-0.508,1.482-1.162,1.903-1.496v-4.533c-0.959,0.508-1.642,0.712-2.063,1.148c-1.642,1.671-3.617,2.513-5.913,2.673
	c-0.073,0-0.116,0.465-0.16,0.712c0.697,0.232,1.307,0.436,1.801,0.61c-1.206,2.949-5.419,0.944-6.654,4.315
	c1.83,1.061,3.574,1.99,5.215,3.065c1.046,0.697,1.918,1.656,1.525,3.138v3.269c0.102,1.061,0.203,2.107,0.32,3.167
	c0.261-0.029,0.508-0.058,0.77-0.087v-3.08H123.1z M131.773,120.917c-0.363,0.291-1.002,0.552-1.031,0.857
	c-0.116,1.409-0.044,2.833-0.044,3.922c-1.278,0.799-2.281,1.438-3.138,1.976c0.378,0.959,0.886,1.714,0.93,2.47
	c0.102,2.513,0.029,5.041,0.073,7.569c0,0.218,0.479,0.421,1.017,0.857c0.726-0.581,1.496-1.22,2.208-1.787v-10.416
	c1.554-1.772,1.554-3.675,0-5.448L131.773,120.917z M120.863,117.445c-1.395-3.094-0.16-6.654-2.339-9.167
	c-2.906-1.99-5.709,3.022-8.019-0.291c-1.976,0.45-3.617,0.828-5.506,1.249c-1.54-2.426-2.978-4.663-4.736-7.424
	c-1.22,1.729-2.252,3.182-3.051,4.315v9.516c7.264,0.814,13.525,3.69,17.564,9.588c4.024,0.261,7.424-0.015,10.387-2.441v-5.593
	c-1.424-0.93-2.717-1.787-4.14-2.731c-0.073,1.293-0.116,2.15-0.16,3.007L120.863,117.445z M118.35,162.321
	c1.598-2.92-1.671-4.605-1.772-7.075c-0.116-2.775-1.729-5.375-1.061-8.266c-2.063-2.179-0.363-5.157-1.38-7.366h-4.402
	c0.886,4.445,1.511,8.688,2.6,12.784c0.77,2.891,2.136,5.637,3.341,8.397c0.261,0.61,0.959,1.075,1.525,1.496
	c0.232,0.174,0.697,0.029,1.133,0.029H118.35z M120.805,130.2c1.293,5.245,2.571,10.489,3.952,16.126
	c1.031-0.755,1.947-1.409,2.557-1.86c-0.915-5.593-1.772-10.78-2.659-16.184c-1.38,0.683-2.557,1.264-3.864,1.918H120.805z
	 M103.778,155.711c0.886,0.45,1.729,0.886,2.891,1.482v-16.562h-2.891C103.778,140.631,103.778,155.711,103.778,155.711z
	 M119.163,148.316c0.174-0.131,0.349-0.247,0.538-0.378v-12.973c-0.93,1.772-1.307,2.499-1.845,3.516v8.397
	c0.218-0.16,0.436-0.32,0.639-0.494C118.713,147.023,118.931,147.677,119.163,148.316z M135.652,123.009
	c2.63,1.598,0,6.29,4.925,6.683c-0.508-2.702-0.872-5.012-1.409-7.293c-0.145-0.61-0.828-1.104-1.278-1.642
	C137.889,120.757,135.652,123.009,135.652,123.009z M123.173,111.677c1.133,1.569,2.412,2.136,3.908,1.366
	c0.465-0.973,0.872-1.816,1.337-2.804C126.514,109.978,124.64,109.426,123.173,111.677z M121.662,58.811h-0.363v1.09h0.363V58.811z"
	/>
<path style="fill:#654900;" d="M40.757,82.782v13.089c-1.104-2.237-1.642-3.298-2.165-4.373c0.363-0.465,1.002-0.915,1.031-1.395
	c0.116-1.976-0.015-3.966,0.102-5.927C39.755,83.697,40.394,83.247,40.757,82.782z"/>
<path style="fill:#3B2A00;" d="M27.74,43.557c-2.092,0-4.184,0.058-6.261-0.044c-0.465-0.029-0.886-0.683-1.322-1.046
	c2.092,0,4.184-0.058,6.261,0.044C26.883,42.54,27.305,43.194,27.74,43.557z"/>
<path style="fill:#594000;" d="M125.279,88.23c-1.743-0.479-3.487-0.944-5.433-1.467c2.063-1.569,3.748-0.494,5.433,0.378V88.23z"/>
<path style="fill:#322400;" d="M71.091,162.321h2.005c0.058,0.77,0.102,1.249,0.16,1.83c-1.235,0.16-2.542,1.293-3.24-0.741
	c0.363-0.363,0.726-0.726,1.09-1.09H71.091z"/>
<path style="fill:#976D00;" d="M34.249,118.738c-2.005-1.119-0.741-2.775-0.552-4.3c0.538,1.075,1.09,2.136,1.627,3.211
	c-0.363,0.363-0.726,0.726-1.09,1.09H34.249z"/>
<path style="fill:#E8A800;" d="M140.446,161.231h2.165v1.09c-0.726,0.363-1.438,0.726-2.165,1.09l-1.09-1.09
	C139.72,161.958,140.083,161.595,140.446,161.231z"/>
<path style="fill:#AB7C00;" d="M118.771,30.482v4.387c-1.104-2.237-1.642-3.312-2.165-4.387
	C116.606,30.482,118.771,30.482,118.771,30.482z"/>
<path style="fill:#705100;" d="M61.343,162.321c-0.363-0.363-0.726-0.726-1.09-1.09v-1.09c0.363,0.363,0.726,0.726,1.09,1.09
	V162.321z"/>
<path style="fill:#3B2A00;" d="M16.917,42.468v1.09h-1.976c-0.029-0.247-0.058-0.479-0.073-0.726
	c0.683-0.116,1.366-0.247,2.063-0.363H16.917z"/>
<path style="fill:#3B2A00;" d="M16.917,43.557c0.828,0.16,2.077-0.538,2.165,1.09C18.254,44.487,17.004,45.184,16.917,43.557z"/>
<path style="fill:#291D00;" d="M61.343,162.321v-1.09c0.828,0.16,2.077-0.538,2.165,1.09H61.343z"/>
<path style="fill:#110C00;" d="M138.282,166.679c0.363-0.363,0.726-0.726,1.09-1.09v1.09c-0.363,0.363-0.726,0.726-1.09,1.09
	V166.679z"/>
<path style="fill:#2D2000;" d="M137.192,167.769c-0.363,0.363-0.726,0.726-1.09,1.09v-1.09c0.363-0.363,0.726-0.726,1.09-1.09
	V167.769z"/>
<path style="fill:#654900;" d="M133.938,168.858c0.363-0.363,0.726-0.726,1.09-1.09v1.09c-0.363,0.363-0.726,0.726-1.09,1.09
	V168.858z"/>
<path style="fill:#C89100;" d="M37.503,117.648c1.627,0.087,0.915,1.351,1.09,2.179C36.965,119.74,37.677,118.476,37.503,117.648z"
	/>
<path style="fill:#0D0900;" d="M34.249,120.917v-2.179h1.09v2.179H34.249z"/>
<path style="fill:#392900;" d="M34.249,120.917h1.09v2.179C33.711,123.009,34.423,121.745,34.249,120.917z"/>
<path style="fill:#392900;" d="M35.338,124.186c1.627,0.087,0.915,1.351,1.09,2.179C34.801,126.278,35.513,125.014,35.338,124.186z"
	/>
<path style="fill:#503A00;" d="M35.338,118.738h-1.09c0.363-0.363,0.726-0.726,1.09-1.09V118.738z"/>
<path style="fill:#392900;" d="M37.503,123.096c-0.363-0.363-0.726-0.726-1.09-1.09h1.09V123.096z"/>
<path style="fill:#C89100;" d="M38.578,122.007c0.363,0.363,0.726,0.726,1.09,1.09h-1.09V122.007z"/>
<path style="fill:#C89100;" d="M37.503,122.007h-1.09v-1.09C36.777,121.28,37.14,121.643,37.503,122.007z"/>
<path style="fill:#392900;" d="M35.338,120.917v-1.09c0.363,0.363,0.726,0.726,1.09,1.09H35.338z"/>
<path style="fill:#DF7D00;" d="M50.505,154.694v-1.09c0.305,0.247,0.596,0.494,0.901,0.726
	C51.101,154.447,50.81,154.563,50.505,154.694z"/>
<path style="fill:#A57800;" d="M59.077,160.258c-0.291-0.247-0.596-0.508-0.886-0.755c0.116-0.116,0.232-0.232,0.349-0.349
	l0.755,0.886C59.295,160.04,59.149,160.185,59.077,160.258z"/>
<path style="fill:#654900;" d="M60.253,160.142v1.09c-0.363-0.363-0.726-0.726-1.09-1.09H60.253z"/>
<path style="fill:#291D00;" d="M62.418,162.321h1.09v1.09C63.144,163.047,62.781,162.684,62.418,162.321z"/>
<path d="M63.508,163.411v-1.09h1.09v1.09H63.508z"/>
<path d="M139.357,166.679v-1.09l1.09,1.09H139.357z"/>
<path style="fill:#C89100;" d="M38.578,124.186c-0.363-0.363-0.726-0.726-1.09-1.09h1.09V124.186z"/>
<path d="M137.192,167.769v-1.09h1.09v1.09H137.192z"/>
<path style="fill:#191200;" d="M135.027,168.858v-1.09h1.09v1.09H135.027z"/>
<path style="fill:#553E00;" d="M133.938,168.858v1.09c-0.305-0.247-0.596-0.494-0.901-0.726
	C133.342,169.105,133.633,168.989,133.938,168.858z"/>
<path style="fill:#E7A700;" d="M93.841,93.678h2.165v1.09c-2.092,0.508-0.668,2.194-1.09,3.269
	c-0.407,3.632-3.821,5.186-5.579,7.918c-2.659,4.126-5.244,8.266-7.7,13.307c-0.828-1.671-1.366-2.731-1.889-3.792
	c0.363-0.363,0.726-0.726,1.09-1.09v-1.09c0.363-0.363,0.726-0.726,1.09-1.09v-1.09c0.363-0.363,0.726-0.726,1.09-1.09v-1.09
	c0.363-0.363,0.726-0.726,1.09-1.09c0.683-0.872,1.366-1.743,2.063-2.615c0.755-0.944,1.525-1.889,2.281-2.833v-1.09
	c0.363-0.363,0.726-0.726,1.09-1.09c0.363-0.363,0.726-0.726,1.031-1.133c0,0.015,0.087,0.087,0.16,0.16
	c0.291-0.247,0.596-0.508,0.886-0.755l-0.349-0.349c-0.247,0.291-0.508,0.596-0.697,0.944c-0.305,0.407-0.668,0.77-1.031,1.133
	c-0.828,0.16-2.077-0.538-2.165,1.09h-1.09c-0.116-0.697-0.247-1.38-0.465-2.659c-0.378,0.959-0.508,1.264-0.625,1.569l-5.419,5.448
	l-1.09,1.09l-2.165,2.179l-1.09,1.09c-5.521,3.69-7.7,9.806-10.838,15.225c-0.915,1.569-1.322,3.487-3.298,4.765
	c-0.726-0.668-1.337-1.235-2.208-2.048c2.906-7.627,5.84-15.312,12.014-21.196c0.363-0.363,0.726-0.726,1.09-1.09h1.09
	c0.363-0.363,0.726-0.726,1.09-1.09c0.363-0.363,0.726-0.726,1.075-1.511c0-0.116,0.015,0.203,0.029,0.523
	c0.712-0.145,1.409-0.276,2.121-0.421l-0.087-0.697c-0.697,0.058-1.38,0.116-2.063,0.596c-0.349,0.421-0.712,0.421-1.075,0.421
	c-0.363,0.363-0.726,0.726-1.09,1.09h-1.09l-1.09,1.09h-1.09c-11.085,5.666-20.673,13.801-23.782,18.828
	c-0.799-0.683-1.554-1.337-2.557-2.179c4.852-6.726,9.196-13.641,16.358-18.16c1.424-0.901,2.324-2.6,3.472-3.937h1.09
	c0.363-0.363,0.726-0.726,1.09-1.09h1.09c0.363-0.363,0.726-0.726,1.09-1.09h1.09c1.511-0.261,1.264-1.104,0.552-2.295
	c-0.232,0.508-0.392,0.857-0.552,1.206h-1.09c-0.363,0.363-0.726,0.726-1.09,1.09h-1.09c-0.363,0.363-0.726,0.726-1.09,1.09h-1.09
	c-2.034-0.087-3.414,1.322-5.07,2.165c-4.925,2.513-9.879,4.954-15.152,7.583c-0.145-0.799-0.305-1.714-0.45-2.542
	c3.617-4.489,8.76-6.102,13.54-8.295c0.915-0.421,1.86-0.741,2.789-1.104c0.363-0.363,0.726-0.726,1.09-1.09h2.949
	c0.828-2.484-0.683-2.165-1.874-2.179h-1.09c-0.363,0.363-0.726,0.726-1.09,1.09h-1.09c-1.061,0.421-2.746-1.017-3.254,1.09h-5.317
	v-3.269c1.598,0,3.167,0.044,4.722-0.015c0.857-0.029,1.961,0.102,2.499-0.363c2.673-2.368,5.855-1.7,8.935-1.801
	c2.048,0.291,3.719-0.508,5.797-2.179h-6.872c-3.036,0.785-5.724-1.22-8.673-1.09c0.45-0.363,0.886-1.031,1.351-1.046
	c3.167-0.087,6.334-0.044,9.487-0.044h3.254c0.683-0.116,1.38-0.247,2.644-0.465c-0.959-0.378-1.249-0.508-1.554-0.625
	c0.465-0.363,0.915-1.031,1.395-1.046c3.414-0.087,6.813,0,10.227-0.102c0.465,0,0.93-0.683,1.395-1.046h9.109
	c-2.557,1.947-5.274,2.324-6.944,4.358l-1.09,1.09h-1.09c-0.726,0.523-1.438,1.061-2.324,1.7c0.639,0.247,0.93,0.363,1.235,0.479
	v2.179l-1.09,1.09h-1.09l-1.09,1.09l-1.09,1.09h-1.09c-1.511,0.262-1.264,1.104-0.552,2.295c0.232-0.508,0.392-0.857,0.552-1.206
	l1.09-1.09h1.09l1.09-1.09l1.09-1.09h1.09c0.363-0.363,0.726-0.726,1.09-1.09h1.09c0.363-0.363,0.726-0.726,1.09-1.09h1.09
	c1.845,0.087,3.24-0.755,4.329-2.179h2.165v2.179c-0.363,0.726-0.726,1.453-1.09,2.179l-1.09,1.09
	c-0.349,0.16-0.697,0.32-1.191,0.567c1.191,0.712,2.019,0.959,2.281-0.567c0.363-0.363,0.726-0.726,1.09-1.09L93.841,93.678z"/>
<path style="fill:#CCC191;" d="M78.674,139.44c2.048,0.726,4.068,1.496,6.131,2.165c4.939,1.598,9.995,2.586,15.385,2.107v13.99
	H89.41v-9.385c-1.424,3.719-3.937,5.215-5.855,7.525c-5.244-0.291-9.864-2.76-14.629-4.838c0.378-1.366,0.726-2.659,1.075-3.952
	v-1.09c1.511-0.261,1.264-1.104,0.552-2.295c-0.232,0.508-0.392,0.857-0.552,1.206c-0.363,0.363-0.726,0.726-1.09,1.09
	c-2.165-0.697-2.688,1.961-4.504,2.252c-3.182-2.92-6.378-5.855-9.588-8.789c-0.363-0.726-0.726-1.453-1.09-2.179
	c-0.363-0.363-0.726-0.726-1.09-1.09s-0.726-0.726-1.09-1.09v-1.09c0.363-0.363,0.726-0.726,1.09-1.09
	c2.528,1.816,5.056,3.632,7.583,5.448c0.261,1.511,1.09,1.264,2.281,0.567c-0.494-0.232-0.843-0.392-1.191-0.567v-1.09
	c0.363-0.363,0.726-0.726,1.09-1.09c0.77,0.232,1.7,0.276,2.31,0.741c2.92,2.194,6.087,3.806,9.617,4.707
	c0.087,1.627,1.351,0.93,2.165,1.09h1.09l1.09,1.09h2.165l1.09,1.09c0.683-0.116,1.366-0.247,2.063-0.363
	c-0.029-0.247-0.058-0.479-0.073-0.726h-1.976l-1.09-1.09h-1.09l-1.09-1.09l-1.09-1.09c0.363-0.363,0.726-0.726,1.09-1.09
	L78.674,139.44z"/>
<path style="fill:#C60C00;" d="M96.02,68.617c2.542-0.363,5.114-1.177,7.613-1.017c8.964,0.567,17.593,2.731,25.699,6.741
	c0.45,0.232,0.77,0.741,1.264,1.235v9.181c-0.755-0.32-1.395-0.726-2.077-0.872c-0.683-0.145-1.424-0.029-2.15-0.029
	c-0.436-0.363-0.857-1.002-1.307-1.046c-1.714-0.131-3.458-0.044-5.186-0.044v-1.09c-1.162-1.613-3.109-1.642-4.721-2.107
	c-2.281-0.654-4.692-0.944-7.075-1.119c-2.499-0.189-5.027-0.044-7.54-0.044h-3.966c-0.494-0.494-0.872-0.712-0.988-1.017
	c-0.625-1.685-1.191-3.399-1.932-5.521h14.281c0.305-0.116,0.596-0.232,0.901-0.363c-0.305-0.247-0.596-0.494-0.901-0.726h-1.09
	c-0.436-0.363-0.843-0.988-1.307-1.046c-1.366-0.145-2.746-0.044-4.111-0.044h-5.419v-1.09L96.02,68.617z"/>
<path style="fill:#CBC190;" d="M120.863,117.445c0.044-0.857,0.087-1.714,0.16-3.007c1.424,0.944,2.731,1.801,4.14,2.731v5.593
	c-2.964,2.426-6.363,2.702-10.387,2.441c-4.039-5.898-10.3-8.775-17.564-9.588v-9.516c0.799-1.119,1.83-2.586,3.051-4.315
	c1.758,2.76,3.196,5.012,4.736,7.424c1.889-0.436,3.53-0.799,5.506-1.249c2.31,3.298,5.128-1.7,8.019,0.291
	c2.179,2.513,0.944,6.073,2.339,9.167L120.863,117.445z"/>
<path style="fill:#CBC090;" d="M112.262,132.902h3.559c-1.642,2.179-3.399,2.746-5.39,3.341c-4.14,1.249-8.31,0.959-12.494,1.017
	c-1.787,0.029-3.588,0-5.68,0c-1.177-0.843-2.615-1.743-3.908-2.833c-1.206-1.017-2.266-2.223-3.516-3.487
	c1.976-4.286,2.281-8.905,4.475-13.191c0.058,1.438,0.16,2.891,0.189,4.329c0.029,1.613,0,3.24,0,5.244
	c1.017,0.044,2.295,0.508,2.993,0.073c3.385-2.165,6.102-0.378,8.92,1.162c0.087,1.627,1.351,0.93,2.165,1.09l1.09,1.09
	c2.528,0.726,5.056,1.453,7.583,2.179L112.262,132.902z"/>
<path style="fill:#CABF8F;" d="M132.863,145.977c1.438-1.453,2.891-2.906,4.329-4.358c0.363-0.363,0.726-0.726,1.09-1.09
	s0.726-0.726,1.09-1.09c0.363-0.363,0.726-0.726,1.09-1.09c-0.363-0.363-0.726-0.726-1.09-1.09c3.138-4.01,6.174-8.092,7.99-13.075
	c1.932,0,3.908,0.102,5.855-0.029c1.671-0.116,3.312-0.523,5.767-0.93c0.465,0.203,1.671,0.726,2.586,1.119
	c-2.237,2.252-4.576,4.591-7.482,7.511c-0.697,0.058-2.412,0.073-3.864-1.148c-0.262-1.511-1.09-1.264-2.281-0.567
	c0.494,0.232,0.843,0.392,1.191,0.567c-0.552,1.976,1.366,2.615,2.092,3.893c-4.896,5.346-11.027,8.978-17.259,12.45l-1.09-1.09
	L132.863,145.977z"/>
<path style="fill:#C20B00;" d="M53.759,140.529c1.656,2.208,3.123,4.576,4.998,6.567c1.772,1.889,3.748,3.85,6.029,4.925
	c5.404,2.557,10.46,5.826,16.474,7.191c3.298,0.755,6.668,0.93,9.981,1.816c3.182,0.857,6.784,0.189,10.198,0.189v1.09H84.108
	c-3.748,0.639-7.104-0.915-10.358-2.252c-4.925-2.019-9.792-4.155-14.135-7.511c-4.198-3.24-8.005-6.784-11.273-10.939
	c0.363-0.363,0.726-0.726,1.09-1.09h1.09c0.363,0.363,0.726,0.726,1.133,1.031c-0.015,0-0.087,0.087-0.16,0.16
	c0.247,0.291,0.508,0.596,0.755,0.886c0.116-0.116,0.232-0.232,0.349-0.349c-0.291-0.247-0.596-0.508-0.93-0.697
	c-0.407-0.305-0.77-0.668-1.133-1.031v-1.09h2.165c0.363,0.363,0.726,0.726,1.09,1.09L53.759,140.529z"/>
<path style="fill:#313131;" d="M126.354,91.498c1.061,0.421,2.746-1.017,3.254,1.09c0.116,0.305,0.232,0.596,0.363,0.901
	c0.247-0.305,0.479-0.596,0.726-0.901c5.346,1.511,10.257,4.024,15.167,6.537c-0.363,0.363-0.726,0.726-1.09,1.09
	c-1.046,0.102-2.107,0.203-3.777,0.378c1.714,0.828,2.746,1.322,3.777,1.801h1.09c1.845-0.087,3.24,0.755,4.329,2.179v1.09
	c-4.954-1.09-9.922-2.121-14.862-3.283c-4.91-1.148-9.08-3.545-12.218-7.613c0.508-2.107,2.179-0.668,4.562-0.465
	c0.581-0.203,0.363-0.61,0.203-0.596c-0.523,0.073-1.017,0.305-1.525,0.465c0.654,0.189,1.307,0.378,1.307,0.116
	c-1.961-1.191-2.615-1.758-3.458-2.499c0.741-0.102,1.438-0.203,2.15-0.305V91.498z"/>
<path style="fill:#C30B00;" d="M155.613,141.619c-2.426,4.591-6.116,8.135-9.908,11.491c-4.547,4.039-9.821,7.119-15.225,9.893
	c-0.857,0.436-2.019,0.291-3.051,0.407c-0.363,0.363-0.726,0.726-1.09,1.09h-2.165c-0.363,0.363-0.726,0.726-1.09,1.09h-1.09v-2.179
	h1.09c0.363-0.363,0.726-0.726,1.09-1.09c2.165,0.189,3.545-1.627,5.419-2.179c0.363-0.363,0.726-0.726,1.09-1.09
	c0.363-0.363,0.726-0.726,1.09-1.09h1.09c0.363-0.363,0.726-0.726,1.09-1.09h1.09c0.726-0.523,1.438-1.061,2.978-2.179h-4.053
	c2.441-2.499,6.014-3.153,8.659-5.404c2.194-1.86,4.78-3.182,6.901-5.23c2.194-2.121,4.78-3.821,7.206-5.709v2.179
	c-0.363,0.363-0.726,0.726-1.09,1.09H155.613z"/>
<path style="fill:#2F2F2F;" d="M122.025,51.184c0.378-1.482-0.479-2.441-1.525-3.138c-1.642-1.09-3.385-2.005-5.215-3.065
	c1.235-3.37,5.448-1.366,6.654-4.315c-0.494-0.16-1.119-0.378-1.801-0.61c0.058-0.247,0.087-0.712,0.16-0.712
	c2.31-0.16,4.271-1.002,5.913-2.673c0.436-0.436,1.119-0.639,2.063-1.148v4.533c-0.421,0.334-1.264,0.988-1.903,1.496v5.913
	c-0.581,0.203-1.191,0.407-2.179,0.755v2.964C124.19,51.184,122.025,51.184,122.025,51.184z M118.771,43.92v0.363h1.09V43.92
	H118.771z"/>
<path style="fill:#DEA100;" d="M118.35,162.321c-0.45,0-0.901,0.145-1.133-0.029c-0.581-0.421-1.264-0.886-1.525-1.496
	c-1.206-2.76-2.571-5.506-3.341-8.397c-1.09-4.097-1.729-8.339-2.6-12.784h4.402c1.031,2.208-0.683,5.186,1.38,7.366
	c-0.668,2.891,0.944,5.477,1.061,8.266c0.102,2.47,3.37,4.169,1.772,7.075L118.35,162.321z"/>
<path style="fill:#D99D00;" d="M78.674,114.38c-0.363,0.581-0.959,1.119-1.046,1.729c-0.523,3.995-0.944,7.99-1.424,12.218H73.43
	c0.116-2.847-0.538-5.724,0.567-8.993c0.901-2.673,0.872-5.709,2.499-8.223c1.627-0.087,0.915-1.351,1.09-2.179l1.09-1.09h1.09
	c0.363,0.363,0.726,0.726,1.09,1.09v1.09c-0.363,0.363-0.726,0.726-1.09,1.09v1.09c-0.363,0.363-0.726,0.726-1.09,1.09
	C78.674,113.29,78.674,114.38,78.674,114.38z"/>
<path style="fill:#D99D00;" d="M120.805,130.2c1.307-0.639,2.484-1.235,3.864-1.918c0.886,5.404,1.729,10.591,2.659,16.184
	c-0.625,0.45-1.525,1.104-2.557,1.86c-1.38-5.637-2.673-10.867-3.952-16.126H120.805z"/>
<path style="fill:#D09700;" d="M103.778,155.711v-15.08h2.891v16.562C105.507,156.597,104.664,156.176,103.778,155.711z"/>
<path style="fill:#E2A400;" d="M131.773,126.365v10.416c-0.712,0.581-1.482,1.206-2.208,1.787c-0.538-0.436-1.002-0.639-1.017-0.857
	c-0.058-2.528,0.029-5.056-0.073-7.569c-0.029-0.77-0.552-1.511-0.93-2.47c0.857-0.538,1.86-1.162,3.138-1.976
	c0-1.104-0.058-2.528,0.044-3.922c0.029-0.305,0.668-0.567,1.031-0.857v5.448L131.773,126.365z"/>
<path style="fill:#0F0A00;" d="M79.764,112.2v-1.09c0.363-0.363,0.726-0.726,1.09-1.09v-1.09c0.363-0.363,0.726-0.726,1.09-1.09
	v-1.09c0.334-0.174,0.668-0.334,2.165-1.09h-4.329l5.419-5.448l1.09,1.09h1.09c0.363,0.363,0.726,0.726,1.09,1.09
	c-0.755,0.944-1.525,1.889-2.281,2.833c-0.683,0.872-1.366,1.743-2.063,2.615c-0.363,0.363-0.726,0.726-1.09,1.09v1.09
	c-0.363,0.363-0.726,0.726-1.09,1.09v1.09c-0.363,0.363-0.726,0.726-1.09,1.09v1.09h-2.165v-1.09c0.363-0.363,0.726-0.726,1.09-1.09
	H79.764z"/>
<path style="fill:#CC9400;" d="M84.093,82.782c-0.465,0.363-0.915,1.031-1.395,1.046c-3.414,0.087-6.813,0-10.227,0.102
	c-0.465,0-0.93,0.683-1.395,1.046h-2.165c-0.087-1.627-1.351-0.93-2.165-1.09c-2.208-0.044-3.85-1.249-5.186-2.47
	c0.479-0.741,0.959-1.467,1.307-1.99c0.77,0.189,1.162,0.174,1.409,0.363c3.356,2.426,7.046,3.37,11.186,3.051
	c2.862-0.218,5.753-0.044,8.629-0.044V82.782z"/>
<path style="fill:#D39900;" d="M119.163,148.316c-0.218-0.639-0.436-1.293-0.668-1.932c-0.218,0.16-0.436,0.32-0.639,0.494v-8.397
	c0.538-1.017,0.915-1.743,1.845-3.516v12.973C119.526,148.069,119.352,148.186,119.163,148.316z"/>
<path style="fill:#C58F00;" d="M135.652,123.009l2.237-2.252c0.436,0.552,1.133,1.031,1.278,1.642
	c0.538,2.281,0.901,4.591,1.409,7.293C135.652,129.3,138.296,124.593,135.652,123.009z"/>
<path style="fill:#BA0B00;" d="M109.023,100.215c2.426,0.668,2.179,3.167,4.024,5.085c-2.034,0.203-3.341,0.32-4.286,0.421
	c-2.76-1.743-2.107-3.603-0.828-5.506H109.023z"/>
<path style="fill:#750700;" d="M106.858,71.886h-7.583c-0.421-0.363-0.814-0.959-1.278-1.046c-0.988-0.16-2.034-0.044-3.051-0.044
	c0.363-0.363,0.726-0.726,1.09-1.09h4.329c0.116,0.305,0.232,0.596,0.363,0.901c0.247-0.305,0.479-0.596,0.726-0.901
	c1.38,0,2.76-0.087,4.111,0.044c0.465,0.044,0.872,0.683,1.307,1.046v1.09H106.858z"/>
<path style="fill:#790700;" d="M119.86,82.782c1.729,0,3.472-0.073,5.186,0.044c0.465,0.029,0.872,0.683,1.307,1.046h-16.01
	c-0.044-0.218-0.087-0.45-0.131-0.668c1.772-0.508,3.53-1.002,5.303-1.511c0.421,0.363,0.814,0.959,1.278,1.046
	c0.988,0.16,2.034,0.044,3.051,0.044H119.86z"/>
<path style="fill:#2E2E2E;" d="M126.354,91.498c-0.712,0.102-1.409,0.203-2.15,0.305c0.857,0.741,1.496,1.307,2.15,1.874
	c-1.061,0.421-2.746-1.017-3.254,1.09c-0.726-0.523-1.438-1.061-2.339-1.714c0.988-0.363,1.584-0.581,2.426-0.886
	c-1.613-0.639-3.022-1.206-4.431-1.758v-1.09c1.656,0.087,6.654,1.525,7.583,2.179H126.354z"/>
<path style="fill:#BE8A00;" d="M66.762,86.051c-3.167,0-6.334-0.044-9.487,0.044c-0.465,0-0.901,0.683-1.351,1.046
	c-2.048,0.087-3.138-0.814-3.298-3.065c4.823,1.714,9.516,0.508,14.135,0.886V86.051z"/>
<path style="fill:#A00900;" d="M84.093,162.321h14.092c-0.276,0.363-0.567,1.031-0.857,1.046c-4.126,0.073-8.252,0.073-12.392,0
	c-0.291,0-0.567-0.683-0.857-1.046H84.093z"/>
<path style="fill:#C60B00;" d="M122.025,164.5v1.09c-1.598,1.438-3.545,1.061-5.419,1.09h-2.165v-1.09
	c1.801-0.363,3.617-0.726,5.419-1.09H122.025z"/>
<path style="fill:#C20B00;" d="M123.173,111.677c1.467-2.266,3.341-1.7,5.244-1.438c-0.465,0.988-0.872,1.816-1.337,2.804
	C125.584,113.813,124.306,113.246,123.173,111.677z"/>
<path style="fill:#292720;" d="M112.262,132.902c-2.528-0.726-5.056-1.453-7.583-2.179v-1.09h3.254
	c0.363,0.363,0.726,0.726,1.09,1.09h3.254v2.179H112.262z"/>
<path style="fill:#423000;" d="M64.583,88.23h6.872c-2.077,1.671-3.748,2.47-5.797,2.179c-0.363-0.726-0.726-1.453-1.09-2.179
	H64.583z"/>
<path style="fill:#AE0A00;" d="M103.604,167.769c1.801-0.363,3.617-0.726,5.419-1.09c0.363,0.363,0.726,0.726,1.09,1.09
	c-0.436,0.363-0.857,1.002-1.307,1.046c-1.714,0.131-3.458,0.044-5.186,0.044v-1.09H103.604z"/>
<path style="fill:#C8C8C8;" d="M112.262,130.723h-3.254c-0.363-0.363-0.726-0.726-1.09-1.09h-1.09v-1.09
	c0.363-0.363,0.726-0.726,1.09-1.09c0.726,0.363,1.438,0.726,2.165,1.09c0.45,0.363,0.857,0.886,1.366,1.046
	c0.726,0.247,1.874-0.334,1.874,1.133h-1.09H112.262z"/>
<path style="fill:#C00B00;" d="M49.416,139.44c-0.116-0.668-0.203-1.337-0.363-1.99c-0.203-0.799-0.479-1.584-0.726-2.368h2.165
	v1.09c0.363,0.363,0.726,0.726,1.09,1.09v1.09c-0.363,0.363-0.726,0.726-1.09,1.09h-1.09H49.416z"/>
<path style="fill:#B7B7B7;" d="M113.352,130.723c0-1.453-1.148-0.886-1.874-1.133c-0.523-0.174-0.915-0.683-1.366-1.046
	c1.322-0.16,2.906,0.625,3.792-1.409C114.311,128.646,115.357,129.939,113.352,130.723z"/>
<path style="fill:#B60A00;" d="M103.604,167.769v1.09h-6.508v-1.09H103.604z"/>
<path style="fill:#1D1D1D;" d="M122.025,51.184h2.165c-0.407,1.075,1.002,2.76-1.09,3.269h-1.09v-3.269H122.025z"/>
<path style="fill:#1C0100;" d="M87.347,168.858c-1.511-1.249-3.385-1.104-5.884-1.119c2.45-0.901,4.412-0.891,5.884,0.029V168.858z"
	/>
<path style="fill:#9C0900;" d="M130.684,157.963h-1.09v-1.09c1.09-0.726,2.165-1.453,3.254-2.179c0.363,0.363,0.726,0.726,1.09,1.09
	v1.09h-2.165C131.41,157.236,131.047,157.599,130.684,157.963z"/>
<path style="fill:#D89C00;" d="M94.931,98.036c0.407-1.075-1.002-2.76,1.09-3.269h2.165C98.185,94.767,94.931,98.036,94.931,98.036z
	"/>
<path style="fill:#B80A00;" d="M110.098,167.769c-0.363-0.363-0.726-0.726-1.09-1.09h5.419v1.09H110.098z"/>
<path style="fill:#520500;" d="M87.347,168.858v-1.09h5.419v1.09H87.347z"/>
<path style="fill:#1D1500;" d="M98.185,94.767H96.02v-1.09c0.363-0.363,0.726-0.726,1.09-1.09c0.16-0.349,0.32-0.712,0.421-0.944
	c0.683,0.378,1.206,0.654,1.743,0.944v1.09C98.911,94.041,98.548,94.404,98.185,94.767z"/>
<path style="fill:#CC9400;" d="M131.773,126.365v-5.448C133.328,122.689,133.328,124.593,131.773,126.365z"/>
<path style="fill:#543D00;" d="M88.423,88.23c1.366-1.467,2.964-1.467,4.329,0c-0.828,0.16-2.077-0.538-2.165,1.09h-1.09l-1.09-1.09
	H88.423z"/>
<path style="fill:#242424;" d="M144.775,100.215c0.363-0.363,0.726-0.726,1.09-1.09c0.726,0.523,1.453,1.046,2.048,1.467
	c-0.77,0.683-1.409,1.235-2.048,1.801h-1.09V100.215z"/>
<path style="fill:#3D0300;" d="M102.514,161.231c0.639-2.034,1.99-0.872,3.676-0.799c-1.148,0.828-1.874,1.366-2.6,1.889
	c-0.363-0.363-0.726-0.726-1.09-1.09H102.514z"/>
<path style="fill:#A00900;" d="M119.86,82.782c-1.017,0-2.063,0.116-3.051-0.044c-0.465-0.073-0.857-0.683-1.278-1.046h4.329
	C119.86,81.692,119.86,82.782,119.86,82.782z"/>
<path style="fill:#850700;" d="M92.766,168.858v-1.09h4.329v1.09H92.766z"/>
<path style="fill:#634800;" d="M66.762,86.051v-2.179c0.828,0.16,2.077-0.538,2.165,1.09v1.09H66.762z"/>
<path style="fill:#1F1700;" d="M61.343,93.678c1.191,0.015,2.688-0.305,1.874,2.179h-1.874V93.678z"/>
<path style="fill:#906900;" d="M93.841,89.319c0.639-2.034,1.99-0.872,3.675-0.799c-1.148,0.828-1.874,1.366-2.6,1.889l-1.09-1.09
	H93.841z"/>
<path style="fill:#151515;" d="M114.442,89.319c-1.075-0.552-2.136-1.104-3.559-1.83c1.569-0.145,2.891-1.293,3.559,0.741V89.319z"
	/>
<path style="fill:#797356;" d="M73.256,137.261c-1.409-0.494-2.542-1.177-1.83-3.603c0.785,1.075,1.307,1.801,1.83,2.513V137.261z"
	/>
<path style="fill:#212121;" d="M118.771,89.319v1.09c-0.828-0.16-2.077,0.538-2.165-1.09v-1.09
	C117.434,88.39,118.684,87.692,118.771,89.319z"/>
<path style="fill:#1F1700;" d="M54.835,95.857c0.508-2.107,2.179-0.668,3.254-1.09C57.58,96.874,55.91,95.436,54.835,95.857z"/>
<path style="fill:#1E1E1E;" d="M122.025,54.453h1.09v3.08c-0.261,0.029-0.508,0.058-0.77,0.087
	C122.243,56.559,122.141,55.513,122.025,54.453z"/>
<path style="fill:#C7BD8D;" d="M60.253,136.171c-0.363-0.363-0.726-0.726-1.09-1.09v-1.09c0.828,0.16,2.077-0.538,2.165,1.09
	c-0.363,0.363-0.726,0.726-1.09,1.09H60.253z"/>
<path style="fill:#880800;" d="M96.02,69.707c-0.363,0.363-0.726,0.726-1.09,1.09h-1.09v-1.09c0.087-1.627,1.351-0.93,2.165-1.09
	v1.09H96.02z"/>
<path style="fill:#212121;" d="M154.523,106.753h2.368c-1.356,0.891-2.504,0.891-3.443,0h1.09H154.523z"/>
<path style="fill:#C40B00;" d="M48.341,139.44h1.09v1.09c-0.363,0.363-0.726,0.726-1.09,1.09c-1.627-0.087-0.915-1.351-1.09-2.179
	H48.341z"/>
<path style="fill:#BC8800;" d="M39.668,126.365c-0.363-0.363-0.726-0.726-1.09-1.09c0.363-0.363,0.726-0.726,1.09-1.09
	c1.627,0.087,0.915,1.351,1.09,2.179H39.668z"/>
<path style="fill:#CDC291;" d="M60.253,136.171c0.363-0.363,0.726-0.726,1.09-1.09c0.363,0.363,0.726,0.726,1.09,1.09
	c-0.363,0.363-0.726,0.726-1.09,1.09C60.98,136.898,60.617,136.534,60.253,136.171z"/>
<path style="fill:#C3B98A;" d="M51.58,131.813c0.363,0.363,0.726,0.726,1.09,1.09c-0.363,0.363-0.726,0.726-1.09,1.09h-1.09v-2.179
	H51.58z"/>
<path style="fill:#C3B98A;" d="M77.599,140.529l-1.09-1.09v-1.09c0.828,0.16,2.077-0.538,2.165,1.09
	c-0.363,0.363-0.726,0.726-1.09,1.09H77.599z"/>
<path style="fill:#656048;" d="M138.282,140.529c-0.363,0.363-0.726,0.726-1.09,1.09c-0.291-0.538-0.581-1.075-0.944-1.743
	c0.232-0.102,0.596-0.276,0.944-0.436h1.09V140.529z"/>
<path style="fill:#ABA27A;" d="M73.256,137.261v-1.09c0.363,0.363,0.726,0.726,1.09,1.09v1.09
	C73.982,137.987,73.619,137.624,73.256,137.261z"/>
<path style="fill:#B00A00;" d="M158.867,136.171c-0.16,0.828,0.538,2.092-1.09,2.179v-2.179H158.867z"/>
<path style="fill:#980900;" d="M46.161,138.35c-0.363-0.363-0.726-0.726-1.09-1.09h1.09c0.363,0.363,0.726,0.726,1.09,1.09H46.161z"
	/>
<path style="fill:#C7BD8D;" d="M74.345,138.35v-1.09c0.828,0.16,2.077-0.538,2.165,1.09H74.345z"/>
<path style="fill:#B7AD81;" d="M138.282,138.35c0.363-0.363,0.726-0.726,1.09-1.09v2.179h-1.09V138.35z"/>
<path style="fill:#493500;" d="M100.35,92.588c0.262-1.511,1.09-1.264,2.281-0.567c-0.494,0.232-0.843,0.392-1.191,0.567H100.35z"/>
<path style="fill:#B80A00;" d="M46.161,138.35h1.09c0.363,0.363,0.726,0.726,1.09,1.09h-1.09
	C46.888,139.077,46.525,138.713,46.161,138.35z"/>
<path style="fill:#726C51;" d="M61.343,138.35c0.349,0.16,0.697,0.32,1.191,0.567c-1.191,0.712-2.019,0.959-2.281-0.567H61.343z"/>
<path style="fill:#333024;" d="M76.51,142.709c-0.828-0.16-2.077,0.538-2.165-1.09C75.173,141.779,76.423,141.081,76.51,142.709z"/>
<path style="fill:#3B2B00;" d="M93.841,93.678c-0.363,0.363-0.726,0.726-1.09,1.09h-1.09l1.09-1.09H93.841z"/>
<path style="fill:#C3B98A;" d="M132.863,147.067c-0.363,0.363-0.726,0.726-1.09,1.09v-1.09c0.363-0.363,0.726-0.726,1.09-1.09
	V147.067z"/>
<path style="fill:#BAB084;" d="M129.608,148.156c0.363-0.363,0.726-0.726,1.09-1.09v1.09c-0.363,0.363-0.726,0.726-1.09,1.09
	V148.156z"/>
<path style="fill:#ABA27A;" d="M129.608,148.156v1.09c-0.363,0.363-0.726,0.726-1.09,1.09v-1.09
	C128.882,148.883,129.245,148.52,129.608,148.156z"/>
<path style="fill:#6A654B;" d="M127.444,150.336c-0.363,0.363-0.726,0.726-1.09,1.09v-1.09c0.363-0.363,0.726-0.726,1.09-1.09
	V150.336z"/>
<path style="fill:#C80B00;" d="M133.938,155.783c-0.363-0.363-0.726-0.726-1.09-1.09h2.165v1.09h-1.09H133.938z"/>
<path style="fill:#1D0100;" d="M130.684,157.963c0.363-0.363,0.726-0.726,1.09-1.09v1.09c-0.363,0.363-0.726,0.726-1.09,1.09
	V157.963z"/>
<path style="fill:#E4A500;" d="M142.611,160.142c0.087-1.627,1.351-0.93,2.165-1.09c-0.363,0.363-0.726,0.726-1.09,1.09h-1.09
	H142.611z"/>
<path style="fill:#330200;" d="M106.858,99.126c-0.349-0.16-0.697-0.32-1.191-0.567c1.191-0.712,2.019-0.959,2.281,0.567H106.858z"
	/>
<path style="fill:#A00900;" d="M102.514,161.231c0.363,0.363,0.726,0.726,1.09,1.09h-2.165v-1.09h1.09H102.514z"/>
<path style="fill:#B40A00;" d="M122.025,164.5h-2.165c0.087-1.627,1.351-0.93,2.165-1.09V164.5z"/>
<path style="fill:#A10900;" d="M114.442,166.679h-2.165c0.087-1.627,1.351-0.93,2.165-1.09V166.679z"/>
<path style="fill:#940800;" d="M106.858,99.126h1.09l1.09,1.09h-1.09L106.858,99.126z"/>
<path style="fill:#A10900;" d="M114.442,167.769v-1.09h2.165C116.519,168.306,115.255,167.609,114.442,167.769z"/>
<path style="fill:#900800;" d="M93.841,69.707v1.09h-1.976c-0.029-0.247-0.058-0.479-0.073-0.726
	c0.683-0.116,1.366-0.247,2.063-0.363H93.841z"/>
<path style="fill:#2D2D2D;" d="M151.284,104.573c0.363,0.363,0.726,0.726,1.09,1.09v1.09c-0.363-0.363-0.726-0.726-1.09-1.09
	V104.573z"/>
<path style="fill:#E8A800;" d="M39.668,124.186c-0.363,0.363-0.726,0.726-1.09,1.09v-2.179h1.09V124.186z"/>
<path style="fill:#B1B1B1;" d="M102.514,125.275c0.261-1.511,1.09-1.264,2.281-0.567c-0.494,0.232-0.843,0.392-1.191,0.567H102.514z
	"/>
<path style="fill:#B1B1B1;" d="M101.439,127.455c0.16-0.828-0.538-2.092,1.09-2.179v2.179H101.439z"/>
<path style="fill:#FBFBFB;" d="M102.514,127.455v-2.179h1.09v2.179H102.514z"/>
<path style="fill:#E9E9E9;" d="M104.679,126.365c0.363,0.363,0.726,0.726,1.09,1.09v1.09h-1.09V126.365z"/>
<path style="fill:#9C7200;" d="M40.757,128.544c-0.363-0.363-0.726-0.726-1.09-1.09h1.09c0.363,0.363,0.726,0.726,1.09,1.09H40.757z
	"/>
<path style="fill:#FBFBFB;" d="M105.769,128.544v-1.09h2.165c-0.363,0.363-0.726,0.726-1.09,1.09h-1.09H105.769z"/>
<path style="fill:#2B1E00;" d="M41.832,128.544c1.511,0.261,1.264,1.104,0.552,2.295c-0.232-0.508-0.392-0.857-0.552-1.206V128.544z
	"/>
<path d="M90.602,89.319c0.087-1.627,1.351-0.93,2.165-1.09v1.09H90.602z"/>
<path style="fill:#898262;" d="M149.119,130.723c-0.349-0.16-0.697-0.32-1.191-0.567c1.191-0.712,2.019-0.959,2.281,0.567H149.119z"
	/>
<path style="fill:#A40900;" d="M48.341,135.082c-1.627-0.087-0.915-1.351-1.09-2.179h1.09V135.082z"/>
<path style="fill:#A39A74;" d="M59.178,133.992v1.09c-1.627-0.087-0.915-1.351-1.09-2.179
	C58.452,133.266,58.815,133.629,59.178,133.992z"/>
<path style="fill:#0B0000;" d="M159.942,133.992c0.16-0.349,0.32-0.697,0.552-1.206c0.697,1.191,0.944,2.034-0.552,2.295V133.992z"
	/>
<path style="fill:#2B0200;" d="M43.997,136.171c-0.349-0.16-0.697-0.32-1.191-0.567c1.191-0.712,2.019-0.959,2.281,0.567H43.997z"/>
<path style="fill:#650500;" d="M158.867,136.171h-1.09c0.363-0.363,0.726-0.726,1.09-1.09h1.09
	C159.594,135.445,159.23,135.808,158.867,136.171z"/>
<path style="fill:#650500;" d="M43.997,136.171h1.09c0.363,0.363,0.726,0.726,1.09,1.09h-1.09
	C44.723,136.898,44.36,136.534,43.997,136.171z"/>
<path style="fill:#050504;" d="M121.662,58.811v1.09h-0.363v-1.09H121.662z"/>
<path d="M86.258,87.14c0.363,0.363,0.726,0.726,1.09,1.09h-1.09V87.14z"/>
<path style="fill:#D89C00;" d="M87.347,88.23h1.09v1.09h-1.09V88.23z"/>
<path style="fill:#212121;" d="M114.442,89.319v-1.09h1.09v1.09H114.442z"/>
<path style="fill:#292929;" d="M115.517,89.319v-1.09h1.09v1.09H115.517z"/>
<path style="fill:#3B2B00;" d="M93.841,91.498v-1.09h1.09L93.841,91.498z"/>
<path style="fill:#3B2B00;" d="M96.02,93.678h-1.09c0.363-0.363,0.726-0.726,1.09-1.09V93.678z"/>
<path style="fill:#B58300;" d="M96.02,93.678v-1.09h1.09C96.747,92.951,96.384,93.314,96.02,93.678z"/>
<path style="fill:#946C00;" d="M99.26,93.678v-1.09h1.09v1.09H99.26z"/>
<path style="fill:#594000;" d="M100.35,93.678v-1.09h1.09C101.076,92.951,100.713,93.314,100.35,93.678z"/>
<path style="fill:#353535;" d="M130.684,92.588c-0.247,0.305-0.479,0.596-0.726,0.901c-0.116-0.305-0.232-0.596-0.363-0.901H130.684
	z"/>
<path style="fill:#1F1700;" d="M59.178,94.767c0.363-0.363,0.726-0.726,1.09-1.09C59.905,94.041,59.541,94.404,59.178,94.767z"/>
<path style="fill:#C89100;" d="M98.185,94.767c0.363-0.363,0.726-0.726,1.09-1.09C98.911,94.041,98.548,94.404,98.185,94.767z"/>
<path style="fill:#1F1700;" d="M60.253,95.857c-0.363,0.363-0.726,0.726-1.09,1.09C59.527,96.583,59.89,96.22,60.253,95.857z"/>
<path d="M64.583,100.215h-1.09v-1.09h1.09V100.215z"/>
<path d="M101.439,127.455h1.09v1.09h-1.09V127.455z"/>
<path style="fill:#510400;" d="M159.942,135.082h-1.09c0.363-0.363,0.726-0.726,1.09-1.09V135.082z"/>
<path style="fill:#755500;" d="M41.832,128.544v1.09c-0.363-0.363-0.726-0.726-1.09-1.09H41.832z"/>
<path style="fill:#5D5842;" d="M49.314,129.75c-0.291-0.247-0.596-0.508-0.886-0.755l0.349-0.349
	c0.247,0.291,0.508,0.596,0.755,0.886C49.459,129.605,49.387,129.677,49.314,129.75z"/>
<path style="fill:#D89C00;" d="M40.757,127.455h-1.09v-1.09h1.09V127.455z"/>
<path style="fill:#C00B00;" d="M157.778,137.261v1.09h-1.09C157.051,137.987,157.414,137.624,157.778,137.261z"/>
<path style="fill:#C7BD8D;" d="M75.42,138.35h1.09v1.09C76.147,139.077,75.783,138.713,75.42,138.35z"/>
<path style="fill:#817B5C;" d="M138.282,138.35v1.09h-1.09C137.555,139.077,137.918,138.713,138.282,138.35z"/>
<path style="fill:#140E00;" d="M79.764,114.38h1.09c-0.363,0.363-0.726,0.726-1.09,1.09V114.38z"/>
<path style="fill:#AF0A00;" d="M156.703,138.35h1.09c-0.363,0.363-0.726,0.726-1.09,1.09V138.35z"/>
<path d="M54.835,139.44c-0.363,0.363-0.726,0.726-1.09,1.09C54.108,140.166,54.471,139.803,54.835,139.44z"/>
<path style="fill:#AF0A00;" d="M155.613,141.619c0.363-0.363,0.726-0.726,1.09-1.09
	C156.339,140.893,155.976,141.256,155.613,141.619z"/>
<path style="fill:#333024;" d="M78.674,141.619l1.09,1.09h-1.09V141.619z"/>
<path style="fill:#ABA27A;" d="M49.416,129.634c0.363,0.363,0.726,0.726,1.09,1.09h-1.09V129.634z"/>
<path d="M70.001,145.977v1.09c-0.363-0.363-0.726-0.726-1.09-1.09H70.001z"/>
<path style="fill:#CDC291;" d="M132.863,147.067v-1.09l1.09,1.09H132.863z"/>
<path style="fill:#FBFBFB;" d="M104.679,126.365v1.09h-1.09v-1.09H104.679z"/>
<path style="fill:#CDC291;" d="M130.684,148.156v-1.09h1.09v1.09H130.684z"/>
<path style="fill:#690600;" d="M47.251,131.813c0.363-0.363,0.726-0.726,1.09-1.09v1.09H47.251z"/>
<path d="M48.341,131.813v-1.09h1.09v1.09H48.341z"/>
<path style="fill:#BAB084;" d="M127.444,150.336v-1.09h1.09v1.09H127.444z"/>
<path style="fill:#948C6A;" d="M126.354,150.336v1.09h-1.09C125.628,151.062,125.991,150.699,126.354,150.336z"/>
<path style="fill:#56513D;" d="M123.1,152.515c0.363-0.363,0.726-0.726,1.09-1.09v1.09H123.1z"/>
<path style="fill:#5A5640;" d="M124.19,152.515v-1.09h1.09C124.916,151.788,124.553,152.152,124.19,152.515z"/>
<path style="fill:#29261C;" d="M120.935,153.604c0.363-0.363,0.726-0.726,1.09-1.09v1.09H120.935z"/>
<path style="fill:#3C392A;" d="M122.025,153.604v-1.09h1.09C122.751,152.878,122.388,153.241,122.025,153.604z"/>
<path style="fill:#0D0D0D;" d="M121.052,153.706c-0.247,0.291-0.508,0.596-0.755,0.886l-0.349-0.349
	c0.291-0.247,0.596-0.508,0.886-0.755C120.906,153.561,120.979,153.633,121.052,153.706z"/>
<path style="fill:#0B0800;" d="M149.003,154.592c0.247-0.291,0.508-0.596,0.755-0.886l0.349,0.349
	c-0.291,0.247-0.596,0.508-0.886,0.755C149.148,154.737,149.076,154.665,149.003,154.592z"/>
<path style="fill:#A79E77;" d="M51.58,131.813h-1.09v-1.09C50.854,131.086,51.217,131.45,51.58,131.813z"/>
<path d="M76.51,111.111l-1.09-1.09L76.51,111.111z"/>
<path style="fill:#423000;" d="M148.03,155.783c0.363-0.363,0.726-0.726,1.09-1.09C148.756,155.057,148.393,155.42,148.03,155.783z"
	/>
<path style="fill:#795800;" d="M148.03,155.783c-0.363,0.363-0.726,0.726-1.09,1.09C147.303,156.51,147.666,156.147,148.03,155.783z
	"/>
<path style="fill:#510400;" d="M126.354,157.963c0.363-0.363,0.726-0.726,1.09-1.09v1.09H126.354z"/>
<path style="fill:#980900;" d="M127.444,157.963v-1.09h1.09v1.09H127.444z"/>
<path style="fill:#A00900;" d="M128.519,157.963v-1.09h1.09v1.09H128.519z"/>
<path style="fill:#B7B7B7;" d="M112.262,130.723h1.09c-0.363,0.363-0.726,0.726-1.09,1.09V130.723z"/>
<path style="fill:#AC7D00;" d="M146.94,156.873c-0.363,0.363-0.726,0.726-1.09,1.09C146.214,157.599,146.577,157.236,146.94,156.873
	z"/>
<path style="fill:#360300;" d="M126.354,159.052c-0.305-0.247-0.596-0.494-0.901-0.726c0.305-0.116,0.596-0.232,0.901-0.363V159.052
	z"/>
<path style="fill:#1D0100;" d="M126.354,159.052v-1.09h1.09C127.081,158.326,126.717,158.689,126.354,159.052z"/>
<path style="fill:#D19700;" d="M145.865,157.963c-0.363,0.363-0.726,0.726-1.09,1.09
	C145.139,158.689,145.502,158.326,145.865,157.963z"/>
<path style="fill:#1D0100;" d="M130.684,159.052c-0.363,0.363-0.726,0.726-1.09,1.09
	C129.957,159.779,130.32,159.415,130.684,159.052z"/>
<path style="fill:#333024;" d="M78.674,143.798l-1.09-1.09h1.09V143.798z"/>
<path style="fill:#C28D00;" d="M142.611,161.231h-1.09c0.363-0.363,0.726-0.726,1.09-1.09V161.231z"/>
<path style="fill:#E4A500;" d="M142.611,161.231v-1.09h1.09v1.09H142.611z"/>
<path style="fill:#AC0A00;" d="M47.251,131.813h1.09v1.09h-1.09V131.813z"/>
<path style="fill:#C28D00;" d="M140.446,161.231c-0.363,0.363-0.726,0.726-1.09,1.09
	C139.72,161.958,140.083,161.595,140.446,161.231z"/>
<path style="fill:#C28D00;" d="M142.611,161.231h1.09c-0.363,0.363-0.726,0.726-1.09,1.09V161.231z"/>
<path style="fill:#B40A00;" d="M124.19,162.321c-0.363,0.363-0.726,0.726-1.09,1.09C123.463,163.047,123.826,162.684,124.19,162.321
	z"/>
<path style="fill:#B40A00;" d="M126.354,164.5c0.363-0.363,0.726-0.726,1.09-1.09C127.081,163.774,126.717,164.137,126.354,164.5z"
	/>
<path style="fill:#B40A00;" d="M123.1,165.59c0.363-0.363,0.726-0.726,1.09-1.09C123.826,164.863,123.463,165.227,123.1,165.59z"/>
<path style="fill:#343225;" d="M57.987,133.019c-0.291-0.247-0.596-0.508-0.886-0.755c0.116-0.116,0.232-0.232,0.349-0.349
	c0.247,0.291,0.508,0.596,0.755,0.886C58.132,132.873,58.06,132.946,57.987,133.019z"/>
<path style="fill:#252525;" d="M154.523,106.753h-1.09v-1.09C153.797,106.026,154.16,106.389,154.523,106.753z"/>
<path style="fill:#2D2D2D;" d="M153.448,105.663v1.09h-1.09v-1.09H153.448z"/>
<path d="M70.001,105.663h1.09v1.09L70.001,105.663z"/>
<path style="fill:#323232;" d="M151.284,104.573v1.09h-1.09v-1.09H151.284z"/>
<path style="fill:#291D00;" d="M87.347,89.319h4.329c-1.104,1.424-2.484,2.266-4.329,2.179V89.319z"/>
<path d="M76.51,111.111l-1.09-1.09l1.09-1.09h1.09C77.44,109.76,78.137,111.024,76.51,111.111z"/>
<path style="fill:#7D5A00;" d="M83.018,90.409c-0.291-0.116-0.596-0.232-1.235-0.479c0.872-0.639,1.598-1.162,2.324-1.7v2.179
	H83.018z"/>
<path style="fill:#040100;" d="M77.599,108.932h-1.09l2.165-2.179v1.09l-1.09,1.09H77.599z"/>
<path style="fill:#805D00;" d="M79.764,94.767l1.09-1.09v1.09l-1.09,1.09V94.767z"/>
<path style="fill:#C38D00;" d="M91.677,94.767h1.09c-0.261,1.511-1.09,1.264-2.281,0.567C90.979,95.101,91.328,94.942,91.677,94.767
	z"/>
<path style="fill:#D19700;" d="M68.926,96.946c0.16-0.349,0.32-0.697,0.552-1.206c0.697,1.191,0.944,2.034-0.552,2.295V96.946z"/>
<path style="fill:#CC9400;" d="M77.599,96.946c-0.16,0.349-0.32,0.697-0.552,1.206c-0.697-1.191-0.944-2.034,0.552-2.295V96.946z"/>
<path style="fill:#795800;" d="M67.837,98.036c-0.363,0.363-0.726,0.726-1.09,1.09v-1.09c0.363-0.363,0.726-0.726,1.09-1.09V98.036z
	"/>
<path style="fill:#392900;" d="M64.583,100.215v-1.09c0.363-0.363,0.726-0.726,1.09-1.09v1.09
	C65.309,99.489,64.946,99.852,64.583,100.215z"/>
<path d="M86.258,101.305l-1.09-1.09c0.116-0.305,0.247-0.61,0.625-1.569C86.011,99.91,86.127,100.607,86.258,101.305z"/>
<path style="fill:#211800;" d="M89.512,100.215c-0.363,0.363-0.726,0.726-1.09,1.09h-1.09c0.087-1.627,1.351-0.93,2.165-1.09H89.512
	z"/>
<path style="fill:#705100;" d="M75.391,102.641c0.697-0.058,1.38-0.116,2.077-0.174l0.087,0.697
	c-0.712,0.145-1.409,0.276-2.121,0.421C75.42,103.266,75.406,102.961,75.391,102.641z"/>
<path style="fill:#392900;" d="M74.345,104.573c-0.363,0.363-0.726,0.726-1.09,1.09v-1.09c0.363-0.363,0.726-0.726,1.09-1.09
	V104.573z"/>
<path d="M79.764,105.663h1.09v1.09h-2.165l1.09-1.09H79.764z"/>
<path style="fill:#423000;" d="M83.018,92.588v-1.09h1.09v1.09c-0.363,0.363-0.726,0.726-1.09,1.09V92.588z"/>
<path style="fill:#594000;" d="M70.001,84.961h1.09c0.305,0.116,0.61,0.247,1.554,0.625c-1.264,0.218-1.947,0.349-2.644,0.465
	V84.961z"/>
<path style="fill:#140E00;" d="M71.091,106.753v-1.09l1.09-1.09v1.09C71.817,106.026,71.454,106.389,71.091,106.753z"/>
<path style="fill:#503A00;" d="M70.001,84.961v1.09h-1.09v-1.09H70.001z"/>
<path style="fill:#2D2000;" d="M86.258,87.14v1.09h-1.09L86.258,87.14z"/>
<path style="fill:#211800;" d="M84.093,89.319v-1.09h1.09v1.09H84.093z"/>
<path style="fill:#E8A800;" d="M94.931,90.409h-1.09v-1.09L94.931,90.409z"/>
<path style="fill:#E8A800;" d="M84.093,91.498h-1.09v-1.09h1.09V91.498z"/>
<path style="fill:#040100;" d="M87.347,90.409v1.09h-1.09v-1.09H87.347z"/>
<path style="fill:#100B00;" d="M84.093,92.588v-1.09h1.09v1.09H84.093z"/>
<path style="fill:#372800;" d="M85.183,92.588v-1.09h1.09C85.909,91.862,85.546,92.225,85.183,92.588z"/>
<path style="fill:#342600;" d="M83.018,92.588v1.09h-1.09L83.018,92.588z"/>
<path style="fill:#493500;" d="M80.839,94.767v-1.09h1.09L80.839,94.767z"/>
<path style="fill:#6E5000;" d="M79.764,94.767v1.09h-1.09L79.764,94.767z"/>
<path style="fill:#946C00;" d="M77.599,96.946v-1.09h1.09L77.599,96.946z"/>
<path style="fill:#896400;" d="M67.837,98.036v-1.09h1.09v1.09H67.837z"/>
<path style="fill:#291D00;" d="M65.672,99.126v-1.09h1.09v1.09H65.672z"/>
<path style="fill:#C58F00;" d="M90.485,99.024l0.755-0.886l0.349,0.349c-0.291,0.247-0.596,0.508-0.886,0.755L90.485,99.024z"/>
<path style="fill:#694C00;" d="M89.512,100.215c0.363-0.363,0.726-0.726,1.09-1.09C90.238,99.489,89.875,99.852,89.512,100.215z"/>
<path style="fill:#050400;" d="M87.347,101.305h1.09v1.09C88.074,102.031,87.711,101.668,87.347,101.305z"/>
<path style="fill:#322400;" d="M74.345,104.573v-1.09h1.09C75.072,103.847,74.708,104.21,74.345,104.573z"/>
<path style="fill:#140E00;" d="M80.839,113.29c0.363-0.363,0.726-0.726,1.09-1.09C81.565,112.564,81.202,112.927,80.839,113.29z"/>
<path style="fill:#140E00;" d="M81.929,111.111c0.363-0.363,0.726-0.726,1.09-1.09C82.655,110.384,82.292,110.748,81.929,111.111z"
	/>
<path style="fill:#140E00;" d="M83.018,108.932c0.363-0.363,0.726-0.726,1.09-1.09C83.745,108.205,83.381,108.569,83.018,108.932z"
	/>
<path style="fill:#040100;" d="M72.181,105.663v-1.09h1.09v1.09H72.181z"/>
<path d="M54.835,139.44c-0.363,0.363-0.726,0.726-1.09,1.09c-0.363-0.363-0.726-0.726-1.09-1.09c-0.363-0.363-0.726-0.726-1.09-1.09
	v-2.179h1.09c0.363,0.363,0.726,0.726,1.09,1.09C54.108,137.987,54.471,138.713,54.835,139.44z"/>
<path style="fill:#090908;" d="M78.674,143.798v-1.09h2.165v1.09H78.674z"/>
<path style="fill:#524D3A;" d="M80.839,143.798v-1.09l1.09,1.09v1.09L80.839,143.798z"/>
<path style="fill:#7D7658;" d="M70.001,144.888c0.16-0.349,0.32-0.697,0.552-1.206c0.697,1.191,0.944,2.034-0.552,2.295V144.888z"/>
<path style="fill:#4F4A38;" d="M81.929,144.888v-1.09h1.976c0.029,0.247,0.058,0.479,0.073,0.726
	c-0.683,0.116-1.366,0.247-2.063,0.363H81.929z"/>
<path d="M50.505,133.992h1.09v1.09H49.43v-1.09h1.09H50.505z"/>
<path style="fill:#CDC291;" d="M51.58,133.992c0.363-0.363,0.726-0.726,1.09-1.09C52.307,133.266,51.943,133.629,51.58,133.992z"/>
<path style="fill:#281610;" d="M52.67,136.171h-1.09v-1.09C51.943,135.445,52.307,135.808,52.67,136.171z"/>
<path style="fill:#281610;" d="M53.759,137.261c-0.363-0.363-0.726-0.726-1.09-1.09C53.033,136.534,53.396,136.898,53.759,137.261z"
	/>
<path style="fill:#CDC291;" d="M61.343,137.261c0.363-0.363,0.726-0.726,1.09-1.09C62.069,136.534,61.706,136.898,61.343,137.261z"
	/>
<path style="fill:#CDC291;" d="M77.599,140.529c0.363-0.363,0.726-0.726,1.09-1.09C78.326,139.803,77.963,140.166,77.599,140.529z"
	/>
<path style="fill:#12110D;" d="M70.001,144.888v1.09h-1.09C69.275,145.614,69.638,145.251,70.001,144.888z"/>
<path d="M101.439,69.707c-0.247,0.305-0.479,0.596-0.726,0.901c-0.116-0.305-0.232-0.596-0.363-0.901H101.439z"/>
<path style="fill:#750600;" d="M106.858,71.886v-1.09h1.09v1.09H106.858z"/>
<path style="fill:#980900;" d="M107.933,71.886v-1.09c0.305,0.247,0.596,0.494,0.901,0.726
	C108.529,71.639,108.238,71.755,107.933,71.886z"/>
<path style="fill:#100F0B;" d="M101.439,128.544h2.165v1.09C102.776,129.474,101.526,130.171,101.439,128.544z"/>
<path style="fill:#292823;" d="M104.679,129.634v1.09l-1.09-1.09H104.679z"/>
<path style="fill:#CDC291;" d="M139.357,138.35v-1.09c0.363,0.363,0.726,0.726,1.09,1.09H139.357z"/>
<path style="fill:#797356;" d="M139.357,138.35h1.09c-0.363,0.363-0.726,0.726-1.09,1.09V138.35z"/>
<path d="M138.282,139.44h1.09c-0.363,0.363-0.726,0.726-1.09,1.09V139.44z"/>
<path style="fill:#C80B00;" d="M50.505,139.44c0.363-0.363,0.726-0.726,1.09-1.09v1.09H50.505z"/>
<path style="fill:#281610;" d="M51.58,139.44v-1.09c0.363,0.363,0.726,0.726,1.09,1.09H51.58z"/>
<path d="M49.416,140.529v-1.09h1.09v1.09H49.416z"/>
<path style="fill:#C80B00;" d="M48.341,141.619c0.363-0.363,0.726-0.726,1.09-1.09C49.067,140.893,48.704,141.256,48.341,141.619z"
	/>
<path style="fill:#510400;" d="M51.58,141.619c-0.363-0.363-0.726-0.726-1.09-1.09C50.854,140.893,51.217,141.256,51.58,141.619z"/>
<path style="fill:#A70900;" d="M51.682,141.503l0.886,0.755c-0.116,0.116-0.232,0.232-0.349,0.349
	c-0.247-0.291-0.508-0.596-0.755-0.886C51.537,141.648,51.609,141.575,51.682,141.503z"/>
<path style="fill:#1E1E1E;" d="M144.775,100.215v2.179c-1.031-0.494-2.063-0.988-3.777-1.801
	C142.669,100.433,143.729,100.331,144.775,100.215z"/>
<path style="fill:#292929;" d="M128.984,94.942c-1.322-0.378-1.976-0.567-2.63-0.755c0.508-0.174,1.002-0.392,1.525-0.465
	C128.04,93.692,128.243,94.113,128.984,94.942z"/>
<path style="fill:#A10900;" d="M135.027,155.783v-1.09h2.978c-1.54,1.119-2.252,1.656-2.978,2.179V155.783z"/>
<path style="fill:#510400;" d="M135.027,155.783v1.09h-1.09v-1.09H135.027z"/>
<path style="fill:#110000;" d="M131.773,157.963v-1.09h1.09v1.09H131.773z"/>
<path style="fill:#3D0300;" d="M132.863,157.963v-1.09h1.09C133.589,157.236,133.226,157.599,132.863,157.963z"/>
<path style="fill:#353535;" d="M118.771,43.92h1.09v0.363h-1.09V43.92z"/>
<path style="fill:#140E00;" d="M79.764,112.2c-0.363,0.363-0.726,0.726-1.09,1.09C79.038,112.927,79.401,112.564,79.764,112.2z"/>
<path style="fill:#140E00;" d="M80.839,110.021c-0.363,0.363-0.726,0.726-1.09,1.09C80.113,110.748,80.476,110.384,80.839,110.021z"
	/>
<path style="fill:#E1A300;" d="M80.839,108.932c-0.363-0.363-0.726-0.726-1.09-1.09h1.09V108.932z"/>
<path d="M78.674,106.753h1.09v1.09h-1.09V106.753z"/>
<path style="fill:#1F1600;" d="M80.839,106.753v-1.09h3.254c-1.496,0.755-1.83,0.915-2.165,1.09H80.839z"/>
<path style="fill:#140E00;" d="M80.839,108.932v-1.09h1.09C81.565,108.205,81.202,108.569,80.839,108.932z"/>
<path style="fill:#A77A00;" d="M81.929,107.842h-1.09v-1.09h1.09V107.842z"/>
<path d="M104.679,129.634h-1.09v-1.09h2.165v1.09h-1.09H104.679z"/>
<path style="fill:#292823;" d="M105.769,129.634v-1.09h1.09v1.09H105.769z"/>
<path style="fill:#292823;" d="M107.933,129.634c0.363,0.363,0.726,0.726,1.09,1.09C108.66,130.36,108.296,129.997,107.933,129.634z
	"/>
<path style="fill:#B80A00;" d="M49.416,133.992v1.09h-1.09v-1.09H49.416z"/>
<path d="M51.58,135.082v1.09h-1.09v-1.09H51.58z"/>
<path style="fill:#281610;" d="M50.505,136.171h1.09v1.09C51.232,136.898,50.868,136.534,50.505,136.171z"/>
<path style="fill:#AC7D00;" d="M89.512,89.319h-1.09v-1.09L89.512,89.319z"/>
<path style="fill:#181611;" d="M50.505,131.813v1.09h-1.09v-1.09H50.505z"/>
<path d="M49.416,132.902h1.09v1.09h-1.09V132.902z"/>
<path style="fill:#1D1D1D;" d="M103.604,128.544h-1.09v-1.09h1.09V128.544z"/>
<path style="fill:#838383;" d="M103.604,128.544v-1.09h1.09v1.09H103.604z"/>
<path style="fill:#5D0500;" d="M49.416,132.902v1.09h-1.09v-1.09H49.416z"/>
<path style="fill:#A97C00;" d="M87.347,88.23v1.09h-1.09v-1.09H87.347z"/>
<path style="fill:#7D7658;" d="M50.505,131.813h-1.09v-1.09h1.09V131.813z"/>
<path style="fill:#110000;" d="M49.416,132.902h-1.09v-1.09h1.09V132.902z"/>
<path style="fill:#B88500;" d="M86.258,89.319h1.09v1.09h-1.09V89.319z"/>
<path style="fill:#D49900;" d="M84.093,89.319h1.09v1.09h-1.09V89.319z"/>
<path style="fill:#5C4300;" d="M80.839,106.753v1.09h-1.09v-1.09H80.839z"/>
<path style="fill:#583F00;" d="M86.258,88.23v1.09h-1.09v-1.09H86.258z"/>
<path style="fill:#CC9400;" d="M84.093,90.409h1.09v1.09h-1.09V90.409z"/>
<path style="fill:#553E00;" d="M85.183,91.498v-1.09h1.09v1.09H85.183z"/>
<path style="fill:#E8A800;" d="M86.258,90.409h-1.09v-1.09h1.09V90.409z"/>
</svg>
