<?xml version="1.0" encoding="utf-8"?>
<!-- Generator: Adobe Illustrator 24.1.2, SVG Export Plug-In . SVG Version: 6.00 Build 0)  -->
<svg version="1.1" id="Layer_1" xmlns="http://www.w3.org/2000/svg" xmlns:xlink="http://www.w3.org/1999/xlink" x="0px" y="0px"
	 viewBox="0 0 200 200" style="enable-background:new 0 0 200 200;" xml:space="preserve">
<g>
	<path style="fill:#C0C0C0;" d="M195.399,62.654c-0.634,1.779-1.301,3.546-1.896,5.337c-1.686,5.074-3.345,10.156-5.007,15.237
		c-2.795,8.544-5.586,17.09-8.379,25.634c-1.6,4.893-3.197,9.787-4.804,14.68c-1.903,5.794-3.783,11.595-5.737,17.373
		c-0.99,2.925-2.028,5.839-3.209,8.692c-1.181,2.85-3.226,5.101-5.598,7.026c-4.61,3.742-10.06,5.66-15.749,6.939
		c-3.424,0.77-6.892,1.387-10.366,1.899c-2.305,0.34-4.653,0.462-6.987,0.514c-5.887,0.134-11.775,0.187-17.664,0.242
		c-1.22,0.012-2.441-0.11-3.84-0.179c0.562-1.808,1.083-3.446,1.578-5.089c0.308-1.019,0.576-2.052,0.863-3.078
		c0.043-0.048,0.088-0.093,0.132-0.141c-0.019-0.017-0.038-0.033-0.057-0.05c-0.038,0.05-0.077,0.1-0.115,0.151
		c-0.665,0.344-1.351,0.65-1.987,1.04c-3.008,1.839-6.275,3.075-9.651,3.972c-3.164,0.842-6.382,1.49-9.596,2.123
		c-1.547,0.304-3.137,0.39-4.711,0.548c-2.398,0.242-4.799,0.462-7.2,0.682c-0.356,0.033-0.717,0.022-1.076,0.022
		c-5.258,0.005-10.519,0.017-15.778-0.002c-1.059-0.005-2.119-0.134-3.353-0.218c0.729-2.274,1.423-4.4,2.088-6.535
		c0.163-0.521,0.227-1.074,0.337-1.612c0.043-0.033,0.086-0.067,0.045-0.036c0.033-0.038-0.002,0.002-0.038,0.043
		c-1.327,0.705-2.635,1.444-3.981,2.111c-4.003,1.985-8.238,3.278-12.619,4.099c-2.678,0.5-5.364,0.954-8.051,1.394
		c-0.897,0.146-1.808,0.213-2.716,0.275c-1.504,0.103-3.008,0.227-4.512,0.249c-6.208,0.096-12.416,0.167-18.623,0.222
		c-0.823,0.007-1.645-0.132-2.525-0.208c-0.179-1.196,0.337-2.169,0.653-3.149c2.159-6.703,4.374-13.386,6.562-20.077
		c2.927-8.943,5.842-17.892,8.769-26.835c1.389-4.247,2.805-8.484,4.192-12.731c2.913-8.908,5.801-17.822,8.723-26.727
		c1.368-4.17,2.788-8.322,4.18-12.485c0.163-0.483,0.28-0.983,0.442-1.559c5.268,0,10.514,0,15.835,0
		c-0.433-0.928-0.827-1.738-1.191-2.563c-1.138-2.58-1.624-5.313-1.552-8.102c0.045-1.724,0.313-3.477,0.739-5.153
		c0.806-3.168,2.128-6.141,3.993-8.85c1.411-2.049,3.243-3.57,5.586-4.45c0.108-0.041,0.23-0.038,0.344-0.048
		c0.036-0.002,0.077,0.022,0.182,0.053c0.232,2.346,1.459,4.197,3.214,5.718c1.822,1.578,3.95,2.661,6.201,3.47
		c3.209,1.153,6.521,1.841,9.917,2.226c3.391,0.385,6.784,0.643,10.194,0.705c3.099,0.055,6.203,0.261,9.297,0.184
		c2.843-0.072,5.679-0.428,8.52-0.665c1.064-0.088,2.126-0.194,3.259-0.299c0.583,0.902,1.16,1.791,1.868,2.886
		c0.672-1.023,1.246-1.896,1.889-2.874c1.055,0.093,2.152,0.175,3.245,0.287c1.296,0.136,2.587,0.392,3.886,0.433
		c4.135,0.124,8.271,0.246,12.406,0.222c2.733-0.017,5.471-0.201,8.193-0.464c4.522-0.438,9.034-0.995,13.334-2.602
		c2.32-0.868,4.531-1.935,6.406-3.58c1.715-1.504,2.91-3.336,3.149-5.82c0.629,0.237,1.203,0.385,1.71,0.655
		c2.353,1.248,4.056,3.161,5.352,5.443c1.437,2.528,2.556,5.191,3.197,8.042c0.703,3.13,0.825,6.246,0.045,9.402
		c-0.485,1.975-1.169,3.845-2.279,5.71c6.865,0,13.59,0,20.316,0C195.399,62.496,195.399,62.575,195.399,62.654z M60.019,154.735
		l0.029,0.029c-0.607,2.004-1.208,4.01-1.827,6.009c-0.404,1.306-0.842,2.599-1.279,3.953c0.832,0.11,1.535,0.285,2.236,0.282
		c6.48-0.022,12.968,0.285,19.434-0.433c2.788-0.311,5.581-0.591,8.362-0.968c3.57-0.485,7.071-1.315,10.507-2.396
		c3.962-1.248,7.724-2.898,11.048-5.452c0.765-0.588,1.645-1.031,2.47-1.54c0.072,0.06,0.141,0.117,0.213,0.177
		c-1.102,3.429-2.202,6.858-3.312,10.311c0.497,0.098,0.88,0.196,1.267,0.242c0.433,0.05,0.87,0.074,1.306,0.072
		c6.401-0.026,12.808,0.244,19.195-0.438c1.38-0.146,2.788-0.077,4.149-0.311c3.735-0.643,7.478-1.279,11.167-2.131
		c4.936-1.138,9.654-2.879,13.786-5.93c3.025-2.233,5.536-4.893,6.896-8.475c0.634-1.667,1.229-3.348,1.793-5.038
		c1.97-5.897,3.926-11.801,5.871-17.707c1.559-4.74,3.09-9.491,4.639-14.235c2.705-8.283,5.409-16.567,8.126-24.845
		c2.274-6.925,4.567-13.845,6.844-20.768c0.146-0.44,0.23-0.902,0.383-1.518c-6.916,0-13.695,0-20.586,0
		c0.153-0.251,0.203-0.354,0.273-0.442c2.372-2.951,3.503-6.399,3.666-10.108c0.077-1.746-0.311-3.539-0.67-5.275
		c-0.689-3.321-1.865-6.478-3.814-9.288c-1.045-1.507-2.315-2.781-3.986-3.271c-0.801,1.217-1.449,2.403-2.291,3.431
		c-1.975,2.41-4.682,3.757-7.518,4.859c-5.108,1.985-10.5,2.561-15.888,3.07c-2.487,0.234-5,0.27-7.501,0.261
		c-3.776-0.014-7.554-0.148-11.33-0.234c-0.198-0.005-0.395-0.033-0.593-0.055c-1.92-0.206-3.84-0.411-5.851-0.627
		c-0.866,1.169-1.748,2.365-2.676,3.618c-0.971-1.313-1.86-2.511-2.683-3.623c-0.921,0.086-1.667,0.163-2.415,0.227
		c-2.64,0.234-5.278,0.624-7.92,0.662c-5.443,0.081-10.895,0.258-16.32-0.423c-2.236-0.28-4.498-0.387-6.71-0.789
		c-4.099-0.744-8.118-1.813-11.732-3.993c-2.425-1.463-4.488-3.281-5.474-6.062c-0.048-0.136-0.158-0.253-0.261-0.411
		c-1.353,0.54-2.449,1.315-3.365,2.415c-1.263,1.516-2.217,3.192-2.915,5.022c-1.447,3.785-2.678,7.599-2.164,11.76
		c0.225,1.825,0.555,3.608,1.377,5.249c0.684,1.358,1.499,2.652,2.317,4.08c-5.739,0-11.423,0-17.117,0
		c-0.959,2.783-1.918,5.464-2.807,8.166c-1.853,5.639-3.666,11.292-5.505,16.935c-1.423,4.364-2.862,8.726-4.29,13.087
		c-2.929,8.953-5.859,17.906-8.788,26.859c-1.365,4.175-2.738,8.348-4.103,12.523c-1.896,5.794-3.795,11.586-5.686,17.382
		c-0.658,2.018-1.294,4.044-1.963,6.141c0.995,0.091,1.858,0.232,2.721,0.239c6.801,0.05,13.604,0.153,20.39-0.459
		c0.947-0.086,1.901-0.124,2.836-0.275c2.728-0.44,5.457-0.89,8.171-1.406c4.376-0.832,8.628-2.102,12.602-4.135
		c2.047-1.047,3.986-2.303,5.988-3.443C59.144,155.062,59.591,154.916,60.019,154.735z"/>
	<path style="fill:#FCFDFD;" d="M60.019,154.735c-0.426,0.184-0.875,0.328-1.277,0.555c-1.999,1.143-3.938,2.398-5.988,3.443
		c-3.977,2.033-8.226,3.302-12.602,4.135c-2.714,0.517-5.443,0.964-8.171,1.406c-0.935,0.151-1.892,0.189-2.836,0.275
		c-6.786,0.612-13.59,0.509-20.39,0.459c-0.863-0.007-1.727-0.148-2.721-0.239c0.67-2.097,1.306-4.123,1.963-6.141
		c1.889-5.796,3.788-11.588,5.686-17.382c1.368-4.175,2.738-8.348,4.103-12.523c2.929-8.953,5.856-17.906,8.788-26.859
		c1.428-4.364,2.867-8.723,4.29-13.087c1.839-5.643,3.651-11.296,5.505-16.935c0.89-2.702,1.848-5.383,2.807-8.166
		c5.694,0,11.378,0,17.117,0c-0.818-1.428-1.633-2.719-2.317-4.08c-0.825-1.64-1.155-3.424-1.377-5.249
		c-0.512-4.161,0.72-7.975,2.164-11.76c0.698-1.829,1.652-3.506,2.915-5.022c0.916-1.1,2.013-1.875,3.365-2.415
		c0.103,0.158,0.213,0.273,0.261,0.411c0.985,2.781,3.049,4.596,5.474,6.062c3.613,2.183,7.633,3.25,11.732,3.993
		c2.212,0.402,4.474,0.507,6.71,0.789c5.426,0.682,10.878,0.502,16.32,0.423c2.642-0.038,5.28-0.43,7.92-0.662
		c0.746-0.067,1.495-0.141,2.415-0.227c0.825,1.112,1.712,2.312,2.683,3.623c0.928-1.255,1.81-2.449,2.676-3.618
		c2.011,0.215,3.931,0.421,5.851,0.627c0.196,0.022,0.395,0.05,0.593,0.055c3.776,0.086,7.554,0.22,11.33,0.234
		c2.501,0.01,5.015-0.026,7.501-0.261c5.39-0.509,10.78-1.086,15.888-3.07c2.836-1.102,5.543-2.446,7.518-4.859
		c0.842-1.028,1.487-2.214,2.291-3.431c1.674,0.493,2.941,1.765,3.986,3.271c1.949,2.81,3.125,5.966,3.814,9.288
		c0.359,1.734,0.746,3.527,0.67,5.275c-0.163,3.709-1.294,7.157-3.666,10.108c-0.069,0.088-0.12,0.191-0.273,0.442
		c6.892,0,13.671,0,20.587,0c-0.153,0.617-0.237,1.076-0.383,1.518c-2.279,6.925-4.572,13.843-6.844,20.768
		c-2.716,8.279-5.421,16.562-8.126,24.845c-1.55,4.744-3.08,9.493-4.639,14.235c-1.944,5.906-3.903,11.808-5.871,17.707
		c-0.564,1.691-1.16,3.372-1.793,5.038c-1.361,3.582-3.869,6.241-6.896,8.475c-4.132,3.051-8.85,4.792-13.786,5.93
		c-3.69,0.851-7.432,1.487-11.167,2.131c-1.361,0.234-2.769,0.165-4.149,0.311c-6.387,0.682-12.793,0.411-19.195,0.438
		c-0.435,0.002-0.873-0.022-1.306-0.072c-0.387-0.045-0.77-0.143-1.267-0.242c1.107-3.451,2.21-6.882,3.312-10.311
		c-0.072-0.06-0.141-0.117-0.213-0.177c-0.827,0.509-1.705,0.952-2.47,1.54c-3.324,2.556-7.085,4.206-11.048,5.452
		c-3.436,1.081-6.937,1.911-10.507,2.396c-2.779,0.378-5.574,0.66-8.362,0.968c-6.464,0.72-12.954,0.414-19.434,0.433
		c-0.701,0.002-1.404-0.172-2.236-0.282c0.44-1.351,0.875-2.647,1.279-3.953c0.619-1.999,1.22-4.005,1.827-6.009 M71.093,132.206
		c0.098,0.043,0.198,0.086,0.297,0.129c-3.166,9.627-6.332,19.257-9.529,28.977c0.509,0.048,0.82,0.096,1.133,0.1
		c8.633,0.165,17.239,0,25.764-1.621c4.558-0.868,9.008-2.052,13.178-4.108c3.226-1.59,6.095-3.592,8.19-6.681
		c3.661-5.404,7.516-10.677,11.292-16.002c0.189-0.268,0.418-0.505,0.629-0.758c0.086,0.045,0.17,0.091,0.256,0.139
		c-3.154,9.596-6.311,19.192-9.515,28.942c0.593,0.045,1.014,0.1,1.437,0.103c1.992,0.014,3.986-0.017,5.978,0.026
		c4.622,0.098,9.228-0.232,13.805-0.777c3.133-0.373,6.248-0.964,9.326-1.662c4.252-0.964,8.338-2.425,12.069-4.747
		c3.472-2.162,6.153-4.991,7.461-8.96c2.233-6.777,4.479-13.549,6.7-20.331c5.732-17.497,11.457-34.994,17.179-52.493
		c0.567-1.731,1.1-3.472,1.667-5.266c-6.664,0-13.2,0-19.778,0c-3.376,2.585-7.284,4.139-11.294,5.5
		c-6.246,2.121-12.181,4.883-17.607,8.68c-0.763,0.533-1.205,1.181-1.487,2.054c-3.2,9.864-6.413,19.723-9.663,29.571
		c-0.239,0.722-0.682,1.437-1.196,2.001c-2.492,2.743-5.041,5.433-7.573,8.14c-0.175,0.187-0.387,0.34-0.581,0.509
		c-0.048-0.026-0.096-0.055-0.141-0.081c0.696-2.166,1.394-4.333,2.109-6.562c-14.089-2.781-28.083-5.541-42.108-8.31
		c-0.638,1.913-1.215,3.675-1.817,5.428c-0.139,0.404-0.299,0.844-0.581,1.148c-2.652,2.867-5.33,5.71-8.013,8.546
		c-0.151,0.158-0.426,0.196-0.698,0.313c5.096-15.603,10.149-31.07,15.199-46.537c-3.761-2.04-7.54-3.606-11.43-4.916
		c-4.013-1.351-7.913-2.925-11.21-5.447c-6.375,0-12.624,0-18.841,0c-10.256,31.345-20.491,62.623-30.728,93.91
		c0.203,0.098,0.306,0.187,0.409,0.189c0.835,0.036,1.672,0.065,2.506,0.077c5.335,0.081,10.677,0.093,15.983-0.514
		c3.532-0.404,7.049-0.978,10.538-1.66c5.596-1.093,10.777-3.269,15.543-6.404c0.387-0.253,0.727-0.619,1.002-0.997
		c1.291-1.765,2.549-3.553,3.824-5.333c3.197-4.469,6.397-8.939,9.599-13.405C70.603,132.809,70.854,132.512,71.093,132.206z
		 M81.541,101.223c4.039,1.126,41.058,8.283,42.187,8.142c2.743-8.41,5.493-16.851,8.307-25.484
		c-0.763,0.335-1.334,0.581-1.901,0.839c-0.615,0.28-1.215,0.593-1.837,0.856c-0.528,0.222-1.078,0.392-1.617,0.586
		c0.17-0.409,0.409-0.607,0.643-0.813c3.465-3.078,7.15-5.859,11.265-8.008c6.392-3.338,12.863-6.492,19.752-8.735
		c3.802-1.239,7.298-3.113,10.216-5.93c3.211-3.101,4.821-6.875,4.52-11.347c-0.222-3.295-1.315-6.351-3.003-9.19
		c-0.294-0.493-0.607-0.976-0.866-1.392c-1,0.916-1.851,1.815-2.819,2.559c-3.4,2.609-7.365,3.984-11.461,4.995
		c-6.162,1.521-12.439,2.145-18.774,2.162c-3.503,0.007-7.006-0.11-10.507-0.225c-2.257-0.074-4.512-0.242-6.818-0.371
		c-1.404,1.935-2.812,3.874-4.266,5.878c-1.528-2.102-2.946-4.053-4.283-5.894c-2.929,0.189-5.663,0.447-8.403,0.526
		c-6.409,0.184-12.812,0.253-19.197-0.576c-3.465-0.45-6.901-0.985-10.254-1.978c-4.68-1.385-9.13-3.19-12.447-7.162
		c-2.535,3.845-4.154,7.925-3.929,12.53c0.187,3.821,1.877,7.002,4.656,9.62c2.889,2.724,6.351,4.45,10.024,5.811
		c3.003,1.114,6.059,2.097,9.027,3.302c5.993,2.434,11.28,6.009,16.074,10.328c0.201,0.182,0.354,0.416,0.531,0.627
		c-0.05,0.062-0.103,0.122-0.153,0.184c-2.511-1.131-5.022-2.262-7.595-3.422C86.237,86.882,83.903,94.01,81.541,101.223z"/>
	<path style="fill:#FEFEFE;" d="M57.645,157.865c0.036-0.041,0.072-0.081,0.038-0.043c0.041-0.031-0.002,0.002-0.045,0.036
		L57.645,157.865z"/>
	<path style="fill:#FEFEFE;" d="M108.562,157.838c0.038-0.05,0.077-0.1,0.115-0.151c0.019,0.017,0.038,0.033,0.057,0.05
		c-0.043,0.048-0.088,0.093-0.132,0.141L108.562,157.838z"/>
	<path style="fill:#02824A;" d="M70.378,133.125c-3.202,4.467-6.399,8.936-9.599,13.406c-1.272,1.779-2.532,3.568-3.824,5.333
		c-0.275,0.378-0.615,0.744-1.002,0.997c-4.766,3.135-9.95,5.311-15.543,6.404c-3.489,0.682-7.009,1.255-10.538,1.66
		c-5.306,0.607-10.646,0.595-15.983,0.514c-0.835-0.012-1.672-0.041-2.506-0.077c-0.105-0.005-0.206-0.093-0.409-0.189
		c10.237-31.287,20.472-62.568,30.728-93.91h18.841c3.298,2.523,7.198,4.096,11.21,5.447c3.888,1.31,7.666,2.877,11.43,4.916
		c-5.053,15.467-10.103,30.931-15.199,46.537c0.273-0.117,0.55-0.155,0.698-0.313c2.685-2.836,5.361-5.679,8.013-8.546
		c0.28-0.304,0.442-0.744,0.581-1.148c0.605-1.753,1.181-3.515,1.817-5.428c14.025,2.767,28.019,5.529,42.108,8.31
		c-0.751,2.339-1.483,4.608-2.212,6.882c0.244-0.28,0.574-0.478,0.827-0.748c2.532-2.705,5.081-5.397,7.573-8.14
		c0.514-0.567,0.957-1.279,1.196-2.001c3.25-9.847,6.464-19.707,9.663-29.571c0.282-0.873,0.725-1.521,1.487-2.054
		c5.426-3.797,11.361-6.559,17.607-8.68c4.008-1.363,7.918-2.917,11.294-5.5h19.778c-0.567,1.791-1.102,3.534-1.667,5.266
		c-5.722,17.499-11.447,34.999-17.179,52.493c-2.221,6.779-4.467,13.554-6.7,20.331c-1.308,3.97-3.991,6.796-7.461,8.96
		c-3.73,2.324-7.817,3.783-12.069,4.747c-3.078,0.698-6.196,1.289-9.326,1.662c-4.579,0.545-9.183,0.875-13.805,0.777
		c-1.992-0.043-3.986-0.012-5.978-0.026c-0.421-0.002-0.844-0.06-1.437-0.103c3.204-9.749,6.361-19.345,9.515-28.942
		c-0.086-0.045-0.17-0.091-0.256-0.139c-0.21,0.251-0.44,0.49-0.629,0.758c-3.778,5.325-7.633,10.598-11.292,16.002
		c-2.092,3.09-4.962,5.091-8.19,6.681c-4.17,2.056-8.618,3.24-13.178,4.108c-8.525,1.621-17.131,1.789-25.764,1.621
		c-0.313-0.007-0.627-0.055-1.133-0.1c3.326-10.115,6.619-20.127,9.912-30.144C71.418,131.9,70.844,132.474,70.378,133.125z
		 M104.332,150.038l-0.201-0.347c-10.603,5.06-21.832,5.727-33.44,4.981c1.363-7.15,2.693-14.118,4.027-21.11
		c-0.007-0.002-0.005,0-0.012-0.002c-2.638,8.066-5.266,16.103-7.975,24.386c3.042-0.103,5.902-0.206,8.762-0.299
		c4.46-0.146,8.876-0.672,13.26-1.473c4.405-0.806,8.635-2.155,12.592-4.278C102.376,151.344,103.337,150.662,104.332,150.038z
		 M125.667,133.567c-0.019-0.005-0.012-0.002-0.031-0.007c-2.638,8.061-5.27,16.103-7.956,24.305c0.698,0,1.253-0.002,1.808,0
		c6.853,0.029,13.664-0.483,20.402-1.729c4.914-0.909,9.613-2.477,13.898-5.122c0.507-0.313,0.964-0.71,1.442-1.067
		c-0.043-0.088-0.084-0.175-0.127-0.263c-10.624,5.062-21.866,5.749-33.471,4.988C123.005,147.487,124.332,140.542,125.667,133.567z
		 M19.755,154.675c0.61-3.211,1.198-6.284,1.774-9.357c0.674-3.592,1.49-7.159,1.944-10.787c-2.532,7.741-5.062,15.476-7.607,23.25
		c0.227,0.029,0.344,0.057,0.462,0.06c5.498,0.1,10.971-0.206,16.43-0.892c4.627-0.583,9.185-1.428,13.539-3.156
		c2.334-0.925,4.622-1.944,6.636-3.482c0.148-0.112,0.242-0.299,0.361-0.452C42.587,154.751,31.357,155.421,19.755,154.675z"/>
	<path style="fill:#0E1E40;" d="M81.541,101.223c2.363-7.214,4.696-14.343,7.069-21.584c2.573,1.16,5.084,2.291,7.595,3.422
		c0.05-0.062,0.103-0.122,0.153-0.184c-0.177-0.21-0.33-0.445-0.531-0.627c-4.795-4.319-10.082-7.894-16.074-10.328
		c-2.968-1.205-6.024-2.188-9.027-3.302c-3.673-1.361-7.136-3.087-10.024-5.811c-2.776-2.618-4.469-5.799-4.656-9.62
		c-0.225-4.606,1.394-8.685,3.929-12.53c3.317,3.972,7.767,5.78,12.447,7.162c3.353,0.99,6.789,1.526,10.254,1.978
		c6.387,0.83,12.789,0.763,19.197,0.576c2.74-0.079,5.474-0.337,8.403-0.526c1.339,1.841,2.757,3.795,4.283,5.894
		c1.456-2.004,2.862-3.943,4.266-5.878c2.305,0.129,4.56,0.297,6.818,0.371c3.501,0.115,7.006,0.232,10.507,0.225
		c6.334-0.014,12.612-0.641,18.774-2.162c4.096-1.012,8.061-2.386,11.461-4.995c0.968-0.744,1.82-1.643,2.819-2.559
		c0.261,0.416,0.574,0.897,0.866,1.392c1.688,2.838,2.781,5.894,3.003,9.19c0.301,4.472-1.308,8.245-4.52,11.347
		c-2.917,2.817-6.413,4.692-10.216,5.93c-6.887,2.243-13.358,5.397-19.752,8.735c-4.118,2.15-7.8,4.928-11.265,8.008
		c-0.232,0.208-0.473,0.407-0.643,0.813c0.54-0.194,1.09-0.363,1.617-0.586c0.622-0.263,1.222-0.576,1.837-0.856
		c0.567-0.258,1.138-0.502,1.901-0.839c-2.815,8.63-5.564,17.071-8.307,25.484C122.601,109.506,85.579,102.349,81.541,101.223z
		 M165.515,51.986c0.069,0.383,0.201,0.796,0.213,1.212c0.033,1.258-0.363,2.418-0.849,3.563c-0.959,2.262-2.731,3.793-4.649,5.168
		c-1.927,1.382-3.907,2.688-5.942,4.08c0.352-0.017,0.646,0.031,0.894-0.053c3.436-1.172,6.794-2.523,9.675-4.802
		c3.981-3.147,5.464-7.205,4.235-12.172c-0.203-0.823-0.545-1.614-0.842-2.473c-1.067,0.646-1.956,1.241-2.898,1.741
		c-5.531,2.936-11.569,4.154-17.679,5.036c-5.287,0.765-10.622,0.89-15.959,0.813c-0.765-0.012-1.533-0.002-2.298-0.002
		c2.291,0.758,4.653,1.074,7.03,1.09c3.14,0.024,6.289-0.012,9.419-0.232c3.09-0.215,6.174-0.605,9.235-1.078
		C158.549,53.352,161.966,52.641,165.515,51.986z M74.534,65.98c0.022-0.055,0.043-0.11,0.062-0.165
		c-0.316-0.213-0.636-0.421-0.949-0.641c-2.021-1.413-4.075-2.786-6.055-4.256c-1.87-1.389-3.195-3.219-3.848-5.474
		c-0.328-1.133-0.655-2.3-0.069-3.486c0.158,0.014,0.273,0.014,0.383,0.036c3.711,0.691,7.411,1.471,11.139,2.047
		c3.023,0.466,6.081,0.744,9.13,1.007c3.895,0.337,7.798,0.337,11.686-0.117c1.236-0.146,2.456-0.447,3.683-0.677
		c-0.509-0.163-0.988-0.17-1.466-0.16c-7.461,0.134-14.888-0.177-22.213-1.734c-4.249-0.902-8.439-2.009-12.284-4.123
		c-0.933-0.512-1.825-1.098-2.846-1.715c-1.342,3.257-1.817,6.461-0.495,9.766c0.811,2.023,2.255,3.57,3.917,4.893
		c2.874,2.288,6.241,3.63,9.685,4.795C74.161,66.025,74.357,65.98,74.534,65.98z"/>
	<path style="fill:#B8BCBB;" d="M104.332,150.038c-0.995,0.622-1.956,1.303-2.987,1.858c-3.958,2.123-8.185,3.472-12.592,4.278
		c-4.386,0.801-8.802,1.33-13.26,1.473c-2.86,0.093-5.72,0.194-8.762,0.299c2.719-8.317,5.359-16.383,8.006-24.479
		c-1.339,7.026-2.676,14.025-4.046,21.206c11.605,0.746,22.837,0.079,33.44-4.981L104.332,150.038z"/>
	<path style="fill:#B8BCBB;" d="M125.712,133.323c-1.349,7.059-2.693,14.08-4.082,21.349c11.607,0.76,22.846,0.074,33.471-4.988
		c0.043,0.088,0.084,0.175,0.127,0.263c-0.481,0.359-0.935,0.753-1.442,1.067c-4.285,2.645-8.984,4.213-13.898,5.122
		c-6.739,1.246-13.551,1.758-20.402,1.729c-0.555-0.002-1.107,0-1.808,0C120.389,149.581,123.048,141.463,125.712,133.323z"/>
	<path style="fill:#B8BCBB;" d="M19.755,154.675c11.602,0.746,22.832,0.077,33.54-4.816c-0.12,0.153-0.213,0.34-0.361,0.452
		c-2.013,1.538-4.302,2.556-6.636,3.482c-4.355,1.729-8.912,2.573-13.539,3.156c-5.457,0.689-10.931,0.992-16.43,0.892
		c-0.117-0.002-0.234-0.029-0.462-0.06c2.542-7.774,5.074-15.51,7.607-23.25c-0.454,3.628-1.27,7.195-1.944,10.787
		C20.953,148.39,20.365,151.461,19.755,154.675z"/>
	<path style="fill:#B8B9BA;" d="M165.515,51.986c-3.549,0.655-6.968,1.365-10.414,1.896c-3.061,0.473-6.146,0.863-9.235,1.078
		c-3.13,0.22-6.279,0.253-9.419,0.232c-2.377-0.019-4.74-0.332-7.03-1.09c0.765,0,1.533-0.01,2.298,0.002
		c5.337,0.077,10.672-0.05,15.959-0.813c6.11-0.882,12.148-2.1,17.679-5.036c0.942-0.5,1.832-1.095,2.898-1.741
		c0.297,0.858,0.638,1.648,0.842,2.473c1.229,4.969-0.253,9.025-4.235,12.172c-2.881,2.276-6.239,3.63-9.675,4.802
		c-0.249,0.084-0.543,0.036-0.894,0.053c2.035-1.392,4.015-2.7,5.942-4.08c1.92-1.377,3.69-2.905,4.649-5.168
		c0.485-1.145,0.885-2.305,0.849-3.563C165.718,52.782,165.587,52.369,165.515,51.986z"/>
	<path style="fill:#B8B9BA;" d="M74.534,65.98c-0.179,0-0.373,0.048-0.536-0.007c-3.443-1.162-6.81-2.506-9.685-4.795
		c-1.662-1.322-3.109-2.87-3.917-4.893c-1.322-3.305-0.847-6.509,0.495-9.766c1.019,0.617,1.913,1.203,2.846,1.715
		c3.845,2.114,8.035,3.221,12.284,4.123c7.324,1.557,14.752,1.868,22.213,1.734c0.478-0.01,0.954,0,1.466,0.16
		c-1.227,0.23-2.446,0.531-3.683,0.677c-3.888,0.454-7.791,0.454-11.686,0.117c-3.051-0.263-6.107-0.54-9.13-1.007
		c-3.73-0.576-7.427-1.356-11.139-2.047c-0.11-0.022-0.225-0.022-0.383-0.036c-0.586,1.184-0.258,2.353,0.069,3.486
		c0.653,2.255,1.978,4.087,3.848,5.474c1.98,1.471,4.032,2.843,6.055,4.256c0.313,0.218,0.631,0.428,0.949,0.641
		C74.577,65.87,74.556,65.925,74.534,65.98z"/>
</g>
</svg>
